<?xml version="1.0" encoding="UTF-8" standalone="no"?>
<!DOCTYPE svg PUBLIC "-//W3C//DTD SVG 1.1//EN"
 "http://www.w3.org/Graphics/SVG/1.1/DTD/svg11.dtd">
<!-- Generated by graphviz version 2.38.0 (20140413.2041)
 -->
<!-- Title: g Pages: 1 -->
<svg width="331pt" height="332pt"
 viewBox="0.00 0.00 331.26 332.00" xmlns="http://www.w3.org/2000/svg" xmlns:xlink="http://www.w3.org/1999/xlink">
<g id="graph0" class="graph" transform="scale(1 1) rotate(0) translate(4 328)">
<title>g</title>
<polygon fill="white" stroke="none" points="-4,4 -4,-328 327.26,-328 327.26,4 -4,4"/>
<!-- add user info -->
<g id="node1" class="node"><title>add user info</title>
<ellipse fill="none" stroke="black" cx="264.766" cy="-90" rx="58.4896" ry="18"/>
<text text-anchor="middle" x="264.766" y="-86.3" font-family="Times New Roman,serif" font-size="14.00">add user info</text>
</g>
<!-- main page -->
<g id="node2" class="node"><title>main page</title>
<ellipse fill="none" stroke="black" cx="74.7656" cy="-18" rx="47.3916" ry="18"/>
<text text-anchor="middle" x="74.7656" y="-14.3" font-family="Times New Roman,serif" font-size="14.00">main page</text>
</g>
<!-- add user info&#45;&gt;main page -->
<g id="edge1" class="edge"><title>add user info&#45;&gt;main page</title>
<path fill="none" stroke="black" d="M228.581,-75.6688C196.83,-63.9711 150.629,-46.9496 117.155,-34.6173"/>
<polygon fill="black" stroke="black" points="118.234,-31.2848 107.641,-31.1119 115.814,-37.8532 118.234,-31.2848"/>
</g>
<!-- user info -->
<g id="node3" class="node"><title>user info</title>
<ellipse fill="none" stroke="black" cx="264.766" cy="-18" rx="42.4939" ry="18"/>
<text text-anchor="middle" x="264.766" y="-14.3" font-family="Times New Roman,serif" font-size="14.00">user info</text>
</g>
<!-- add user info&#45;&gt;user info -->
<g id="edge2" class="edge"><title>add user info&#45;&gt;user info</title>
<path fill="none" stroke="black" d="M264.766,-71.6966C264.766,-63.9827 264.766,-54.7125 264.766,-46.1124"/>
<polygon fill="black" stroke="black" points="268.266,-46.1043 264.766,-36.1043 261.266,-46.1044 268.266,-46.1043"/>
</g>
<!-- verify user info -->
<g id="node4" class="node"><title>verify user info</title>
<ellipse fill="none" stroke="black" cx="165.766" cy="-162" rx="65.7887" ry="18"/>
<text text-anchor="middle" x="165.766" y="-158.3" font-family="Times New Roman,serif" font-size="14.00">verify user info</text>
</g>
<!-- verify user info&#45;&gt;add user info -->
<g id="edge3" class="edge"><title>verify user info&#45;&gt;add user info</title>
<path fill="none" stroke="black" d="M188.727,-144.765C202.288,-135.176 219.621,-122.92 234.313,-112.532"/>
<polygon fill="black" stroke="black" points="236.465,-115.297 242.61,-106.666 232.424,-109.581 236.465,-115.297"/>
</g>
<!-- invalid info message -->
<g id="node5" class="node"><title>invalid info message</title>
<ellipse fill="none" stroke="black" cx="104.766" cy="-90" rx="83.6854" ry="18"/>
<text text-anchor="middle" x="104.766" y="-86.3" font-family="Times New Roman,serif" font-size="14.00">invalid info message</text>
</g>
<!-- verify user info&#45;&gt;invalid info message -->
<g id="edge4" class="edge"><title>verify user info&#45;&gt;invalid info message</title>
<path fill="none" stroke="black" d="M151.309,-144.411C143.823,-135.82 134.533,-125.159 126.227,-115.627"/>
<polygon fill="black" stroke="black" points="128.75,-113.196 119.542,-107.956 123.473,-117.795 128.75,-113.196"/>
</g>
<!-- registration page -->
<g id="node6" class="node"><title>registration page</title>
<ellipse fill="none" stroke="black" cx="165.766" cy="-234" rx="70.3881" ry="18"/>
<text text-anchor="middle" x="165.766" y="-230.3" font-family="Times New Roman,serif" font-size="14.00">registration page</text>
</g>
<!-- registration page&#45;&gt;verify user info -->
<g id="edge5" class="edge"><title>registration page&#45;&gt;verify user info</title>
<path fill="none" stroke="black" d="M165.766,-215.697C165.766,-207.983 165.766,-198.712 165.766,-190.112"/>
<polygon fill="black" stroke="black" points="169.266,-190.104 165.766,-180.104 162.266,-190.104 169.266,-190.104"/>
</g>
<!-- vendor -->
<g id="node7" class="node"><title>vendor</title>
<ellipse fill="none" stroke="black" cx="67.7656" cy="-306" rx="36.2938" ry="18"/>
<text text-anchor="middle" x="67.7656" y="-302.3" font-family="Times New Roman,serif" font-size="14.00">vendor</text>
</g>
<!-- vendor&#45;&gt;main page -->
<g id="edge7" class="edge"><title>vendor&#45;&gt;main page</title>
<path fill="none" stroke="black" d="M56.7919,-288.732C31.9439,-249.712 -23.7901,-148.376 11.7656,-72 17.9303,-58.7577 29.2128,-47.6419 40.5447,-39.0652"/>
<polygon fill="black" stroke="black" points="42.5888,-41.9064 48.7323,-33.2746 38.5469,-36.1913 42.5888,-41.9064"/>
</g>
<!-- vendor&#45;&gt;invalid info message -->
<g id="edge8" class="edge"><title>vendor&#45;&gt;invalid info message</title>
<path fill="none" stroke="black" d="M69.5388,-287.968C72.757,-258.466 80.2159,-196.023 90.7656,-144 92.4944,-135.474 94.7736,-126.28 96.9896,-117.982"/>
<polygon fill="black" stroke="black" points="100.439,-118.637 99.7166,-108.067 93.6898,-116.781 100.439,-118.637"/>
</g>
<!-- vendor&#45;&gt;registration page -->
<g id="edge6" class="edge"><title>vendor&#45;&gt;registration page</title>
<path fill="none" stroke="black" d="M87.5973,-290.834C101.188,-281.127 119.486,-268.057 134.962,-257.003"/>
<polygon fill="black" stroke="black" points="137.118,-259.764 143.221,-251.103 133.049,-254.068 137.118,-259.764"/>
</g>
</g>
</svg>
