<?xml version="1.0" encoding="UTF-8" standalone="no"?>
<!DOCTYPE svg PUBLIC "-//W3C//DTD SVG 1.1//EN"
 "http://www.w3.org/Graphics/SVG/1.1/DTD/svg11.dtd">
<!-- Generated by graphviz version 2.40.1 (20161225.0304)
 -->
<!-- Title: class_diagram Pages: 1 -->
<svg width="3281pt" height="73pt"
 viewBox="0.00 0.00 3281.36 73.00" xmlns="http://www.w3.org/2000/svg" xmlns:xlink="http://www.w3.org/1999/xlink">
<g id="graph0" class="graph" transform="scale(1 1) rotate(0) translate(4 69)">
<title>class_diagram</title>
<polygon fill="#ffffff" stroke="transparent" points="-4,4 -4,-69 3277.3594,-69 3277.3594,4 -4,4"/>
<!-- c188dc0c5_7e4f_4b38_9467_b59fd27706c7 -->
<g id="c188dc0c5_7e4f_4b38_9467_b59fd27706c7" class="node">
<title>c188dc0c5_7e4f_4b38_9467_b59fd27706c7</title>
<polygon fill="none" stroke="#000000" points="0,-12.5 0,-52.5 116.7188,-52.5 116.7188,-12.5 0,-12.5"/>
<text text-anchor="middle" x="58.3594" y="-42.1" font-family="Times,serif" font-size="8.00" fill="#000000">AndroidProcesses</text>
<polyline fill="none" stroke="#000000" points="0,-36.5 116.7188,-36.5 "/>
<text text-anchor="start" x="8" y="-26.1" font-family="Times,serif" font-size="8.00" fill="#000000">+ log()</text>
<text text-anchor="start" x="8" y="-18.1" font-family="Times,serif" font-size="8.00" fill="#000000">+ getRunningAppProcessInfo()</text>
</g>
<!-- c32baa58a_b4f7_4626_878a_cb29e8ce3b5f -->
<g id="c32baa58a_b4f7_4626_878a_cb29e8ce3b5f" class="node">
<title>c32baa58a_b4f7_4626_878a_cb29e8ce3b5f</title>
<polygon fill="none" stroke="#000000" points="134.6973,-14.5 134.6973,-50.5 208.0215,-50.5 208.0215,-14.5 134.6973,-14.5"/>
<text text-anchor="middle" x="171.3594" y="-30.1" font-family="Times,serif" font-size="8.00" fill="#000000">ActivityProcesses</text>
</g>
<!-- cf00ff07a_35cc_4411_a477_b03e58a84ccb -->
<g id="cf00ff07a_35cc_4411_a477_b03e58a84ccb" class="node">
<title>cf00ff07a_35cc_4411_a477_b03e58a84ccb</title>
<polygon fill="none" stroke="#000000" points="225.8105,-14.5 225.8105,-50.5 292.9082,-50.5 292.9082,-14.5 225.8105,-14.5"/>
<text text-anchor="middle" x="259.3594" y="-30.1" font-family="Times,serif" font-size="8.00" fill="#000000">ContentHandler</text>
</g>
<!-- cf0799cb8_a68d_485f_87a6_887dff92c042 -->
<g id="cf0799cb8_a68d_485f_87a6_887dff92c042" class="node">
<title>cf0799cb8_a68d_485f_87a6_887dff92c042</title>
<polygon fill="none" stroke="#000000" points="310.918,-14.5 310.918,-50.5 391.8008,-50.5 391.8008,-14.5 310.918,-14.5"/>
<text text-anchor="middle" x="351.3594" y="-39.6" font-family="Times,serif" font-size="8.00" fill="#000000">AndroidAppProcess</text>
<polyline fill="none" stroke="#000000" points="310.918,-33.5 391.8008,-33.5 "/>
<text text-anchor="start" x="318.918" y="-22.6" font-family="Times,serif" font-size="8.00" fill="#000000">&#45; uid:int</text>
<polyline fill="none" stroke="#000000" points="310.918,-16.5 391.8008,-16.5 "/>
</g>
<!-- c03ecb5c2_284b_4d6e_a880_72705319f282 -->
<g id="c03ecb5c2_284b_4d6e_a880_72705319f282" class="node">
<title>c03ecb5c2_284b_4d6e_a880_72705319f282</title>
<polygon fill="none" stroke="#000000" points="410.2559,-14.5 410.2559,-50.5 468.4629,-50.5 468.4629,-14.5 410.2559,-14.5"/>
<text text-anchor="middle" x="439.3594" y="-30.1" font-family="Times,serif" font-size="8.00" fill="#000000">DTDHandler</text>
</g>
<!-- c294f4f7d_193b_4cee_bc1f_7bf476c6137c -->
<g id="c294f4f7d_193b_4cee_bc1f_7bf476c6137c" class="node">
<title>c294f4f7d_193b_4cee_bc1f_7bf476c6137c</title>
<polygon fill="none" stroke="#000000" points="486.3359,-14.5 486.3359,-50.5 642.3828,-50.5 642.3828,-14.5 486.3359,-14.5"/>
<text text-anchor="middle" x="564.3594" y="-39.6" font-family="Times,serif" font-size="8.00" fill="#000000">ControlGroup$1</text>
<polyline fill="none" stroke="#000000" points="486.3359,-33.5 642.3828,-33.5 "/>
<text text-anchor="start" x="494.3359" y="-22.6" font-family="Times,serif" font-size="8.00" fill="#000000">&#45; CREATOR:android.os.Parcelable$Creator</text>
<polyline fill="none" stroke="#000000" points="486.3359,-16.5 642.3828,-16.5 "/>
</g>
<!-- cda08d6e6_87ac_4735_919b_d07bc0979de5 -->
<g id="cda08d6e6_87ac_4735_919b_d07bc0979de5" class="node">
<title>cda08d6e6_87ac_4735_919b_d07bc0979de5</title>
<polygon fill="none" stroke="#000000" points="660.332,-12.5 660.332,-52.5 718.3867,-52.5 718.3867,-12.5 660.332,-12.5"/>
<text text-anchor="middle" x="689.3594" y="-42.1" font-family="Times,serif" font-size="8.00" fill="#000000">Cgroup$1</text>
<polyline fill="none" stroke="#000000" points="660.332,-36.5 718.3867,-36.5 "/>
<text text-anchor="start" x="668.332" y="-26.1" font-family="Times,serif" font-size="8.00" fill="#000000">+ getGroup()</text>
<text text-anchor="start" x="668.332" y="-18.1" font-family="Times,serif" font-size="8.00" fill="#000000">+ get()</text>
</g>
<!-- cee768917_00e7_43f1_8fc3_b1134a5cfc23 -->
<g id="cee768917_00e7_43f1_8fc3_b1134a5cfc23" class="node">
<title>cee768917_00e7_43f1_8fc3_b1134a5cfc23</title>
<polygon fill="none" stroke="#000000" points="736.3594,-14.5 736.3594,-50.5 790.3594,-50.5 790.3594,-14.5 736.3594,-14.5"/>
<text text-anchor="middle" x="763.082" y="-35.1" font-family="Times,serif" font-size="8.00" fill="#000000">Stat</text>
<polyline fill="none" stroke="#000000" points="736.3594,-24.5 789.8047,-24.5 "/>
</g>
<!-- c76a59bec_32cc_4fc0_a01a_56e0003e8a67 -->
<g id="c76a59bec_32cc_4fc0_a01a_56e0003e8a67" class="node">
<title>c76a59bec_32cc_4fc0_a01a_56e0003e8a67</title>
<polygon fill="none" stroke="#000000" points="808.3594,-14.5 808.3594,-50.5 862.3594,-50.5 862.3594,-14.5 808.3594,-14.5"/>
<text text-anchor="middle" x="835.1387" y="-35.1" font-family="Times,serif" font-size="8.00" fill="#000000">Status$1</text>
<polyline fill="none" stroke="#000000" points="808.3594,-24.5 861.918,-24.5 "/>
</g>
<!-- ccbdd79f2_6fcb_4968_9923_a2f0906c176a -->
<g id="ccbdd79f2_6fcb_4968_9923_a2f0906c176a" class="node">
<title>ccbdd79f2_6fcb_4968_9923_a2f0906c176a</title>
<polygon fill="none" stroke="#000000" points="880.3594,-14.5 880.3594,-50.5 934.3594,-50.5 934.3594,-14.5 880.3594,-14.5"/>
<text text-anchor="middle" x="906.9141" y="-35.1" font-family="Times,serif" font-size="8.00" fill="#000000">ProcFile</text>
<polyline fill="none" stroke="#000000" points="880.3594,-24.5 933.4688,-24.5 "/>
</g>
<!-- c3eeb2cab_8524_4ca0_8a98_39be6891d57b -->
<g id="c3eeb2cab_8524_4ca0_8a98_39be6891d57b" class="node">
<title>c3eeb2cab_8524_4ca0_8a98_39be6891d57b</title>
<polygon fill="none" stroke="#000000" points="951.9258,-.5 951.9258,-64.5 1042.793,-64.5 1042.793,-.5 951.9258,-.5"/>
<text text-anchor="middle" x="997.3594" y="-54.1" font-family="Times,serif" font-size="8.00" fill="#000000">AndroidProcess</text>
<polyline fill="none" stroke="#000000" points="951.9258,-48.5 1042.793,-48.5 "/>
<text text-anchor="start" x="959.9258" y="-38.1" font-family="Times,serif" font-size="8.00" fill="#000000">&#45; name:java.lang.String</text>
<polyline fill="none" stroke="#000000" points="951.9258,-32.5 1042.793,-32.5 "/>
<text text-anchor="start" x="959.9258" y="-22.1" font-family="Times,serif" font-size="8.00" fill="#000000">+ status()</text>
<text text-anchor="start" x="959.9258" y="-14.1" font-family="Times,serif" font-size="8.00" fill="#000000">+ cgroup()</text>
<text text-anchor="start" x="959.9258" y="-6.1" font-family="Times,serif" font-size="8.00" fill="#000000">+ stat()</text>
</g>
<!-- ccc8d6ee8_5a11_4699_b8b3_c29af211911a -->
<g id="ccc8d6ee8_5a11_4699_b8b3_c29af211911a" class="node">
<title>ccc8d6ee8_5a11_4699_b8b3_c29af211911a</title>
<polygon fill="none" stroke="#000000" points="1061.2598,-14.5 1061.2598,-50.5 1175.459,-50.5 1175.459,-14.5 1061.2598,-14.5"/>
<text text-anchor="middle" x="1118.3594" y="-30.1" font-family="Times,serif" font-size="8.00" fill="#000000">SAXNotRecognizedException</text>
</g>
<!-- c18eca000_ad15_4ca5_9db6_da0608674244 -->
<g id="c18eca000_ad15_4ca5_9db6_da0608674244" class="node">
<title>c18eca000_ad15_4ca5_9db6_da0608674244</title>
<polygon fill="none" stroke="#000000" points="1193.0371,-14.5 1193.0371,-50.5 1251.6816,-50.5 1251.6816,-14.5 1193.0371,-14.5"/>
<text text-anchor="middle" x="1222.3594" y="-30.1" font-family="Times,serif" font-size="8.00" fill="#000000">ErrorHandler</text>
</g>
<!-- c0a14a9cf_8af0_4a3e_a5c5_cffde5c76148 -->
<g id="c0a14a9cf_8af0_4a3e_a5c5_cffde5c76148" class="node">
<title>c0a14a9cf_8af0_4a3e_a5c5_cffde5c76148</title>
<polygon fill="none" stroke="#000000" points="1269.3594,-14.5 1269.3594,-50.5 1323.3594,-50.5 1323.3594,-14.5 1269.3594,-14.5"/>
<text text-anchor="middle" x="1296.2969" y="-30.1" font-family="Times,serif" font-size="8.00" fill="#000000">Locator</text>
</g>
<!-- c2c60550d_82c1_494a_8809_9775bb4e7d69 -->
<g id="c2c60550d_82c1_494a_8809_9775bb4e7d69" class="node">
<title>c2c60550d_82c1_494a_8809_9775bb4e7d69</title>
<polygon fill="none" stroke="#000000" points="1341.0391,-14.5 1341.0391,-50.5 1411.6797,-50.5 1411.6797,-14.5 1341.0391,-14.5"/>
<text text-anchor="middle" x="1376.3594" y="-30.1" font-family="Times,serif" font-size="8.00" fill="#000000">ServiceReader$4</text>
</g>
<!-- c8b0f3fc4_76bb_428c_bade_364435d6198b -->
<g id="c8b0f3fc4_76bb_428c_bade_364435d6198b" class="node">
<title>c8b0f3fc4_76bb_428c_bade_364435d6198b</title>
<polygon fill="none" stroke="#000000" points="1429.9238,-14.5 1429.9238,-50.5 1498.7949,-50.5 1498.7949,-14.5 1429.9238,-14.5"/>
<text text-anchor="middle" x="1464.3594" y="-30.1" font-family="Times,serif" font-size="8.00" fill="#000000">ProcessManager</text>
</g>
<!-- c5ea99c77_03db_4908_a3b4_705919093d15 -->
<g id="c5ea99c77_03db_4908_a3b4_705919093d15" class="node">
<title>c5ea99c77_03db_4908_a3b4_705919093d15</title>
<polygon fill="none" stroke="#000000" points="1516.3594,-14.5 1516.3594,-50.5 1570.3594,-50.5 1570.3594,-14.5 1516.3594,-14.5"/>
<text text-anchor="middle" x="1543.0273" y="-30.1" font-family="Times,serif" font-size="8.00" fill="#000000">C</text>
</g>
<!-- ca3665624_82b4_4662_b05a_01c1eeda32f3 -->
<g id="ca3665624_82b4_4662_b05a_01c1eeda32f3" class="node">
<title>ca3665624_82b4_4662_b05a_01c1eeda32f3</title>
<polygon fill="none" stroke="#000000" points="1588.3594,-14.5 1588.3594,-50.5 1642.3594,-50.5 1642.3594,-14.5 1588.3594,-14.5"/>
<text text-anchor="middle" x="1615.1934" y="-30.1" font-family="Times,serif" font-size="8.00" fill="#000000">Statm</text>
</g>
<!-- ccd830bfa_5cdf_410f_bd3a_00fdb1702099 -->
<g id="ccd830bfa_5cdf_410f_bd3a_00fdb1702099" class="node">
<title>ccd830bfa_5cdf_410f_bd3a_00fdb1702099</title>
<polygon fill="none" stroke="#000000" points="1660.6973,-14.5 1660.6973,-50.5 1770.0215,-50.5 1770.0215,-14.5 1660.6973,-14.5"/>
<text text-anchor="middle" x="1715.3594" y="-30.1" font-family="Times,serif" font-size="8.00" fill="#000000">SAXNotSupportedException</text>
</g>
<!-- ce8d7c395_300e_4783_bfc0_638a1a97851a -->
<g id="ce8d7c395_300e_4783_bfc0_638a1a97851a" class="node">
<title>ce8d7c395_300e_4783_bfc0_638a1a97851a</title>
<polygon fill="none" stroke="#000000" points="1788.1445,-14.5 1788.1445,-50.5 1844.5742,-50.5 1844.5742,-14.5 1788.1445,-14.5"/>
<text text-anchor="middle" x="1816.3594" y="-30.1" font-family="Times,serif" font-size="8.00" fill="#000000">XMLReader</text>
</g>
<!-- ca9dcce85_3ad6_4d2d_9b2b_68942bbf07ad -->
<g id="ca9dcce85_3ad6_4d2d_9b2b_68942bbf07ad" class="node">
<title>ca9dcce85_3ad6_4d2d_9b2b_68942bbf07ad</title>
<polygon fill="none" stroke="#000000" points="1863.0508,-14.5 1863.0508,-50.5 1921.668,-50.5 1921.668,-14.5 1863.0508,-14.5"/>
<text text-anchor="middle" x="1892.3594" y="-30.1" font-family="Times,serif" font-size="8.00" fill="#000000">ViewGraphic</text>
</g>
<!-- c45a07845_145c_403f_ab48_bddc2b06c184 -->
<g id="c45a07845_145c_403f_ab48_bddc2b06c184" class="node">
<title>c45a07845_145c_403f_ab48_bddc2b06c184</title>
<polygon fill="none" stroke="#000000" points="1939.8047,-14.5 1939.8047,-50.5 2002.9141,-50.5 2002.9141,-14.5 1939.8047,-14.5"/>
<text text-anchor="middle" x="1971.3594" y="-30.1" font-family="Times,serif" font-size="8.00" fill="#000000">XmlPullParser</text>
</g>
<!-- c499f24e0_cfe4_43c7_94b4_3bb73d57ec69 -->
<g id="c499f24e0_cfe4_43c7_94b4_3bb73d57ec69" class="node">
<title>c499f24e0_cfe4_43c7_94b4_3bb73d57ec69</title>
<polygon fill="none" stroke="#000000" points="2020.4766,-14.5 2020.4766,-50.5 2102.2422,-50.5 2102.2422,-14.5 2020.4766,-14.5"/>
<text text-anchor="middle" x="2061.3594" y="-30.1" font-family="Times,serif" font-size="8.00" fill="#000000">SAXParseException</text>
</g>
<!-- c098681f4_f594_48e7_93eb_accaeb3488f4 -->
<g id="c098681f4_f594_48e7_93eb_accaeb3488f4" class="node">
<title>c098681f4_f594_48e7_93eb_accaeb3488f4</title>
<polygon fill="none" stroke="#000000" points="2120.5762,-14.5 2120.5762,-50.5 2176.1426,-50.5 2176.1426,-14.5 2120.5762,-14.5"/>
<text text-anchor="middle" x="2148.3594" y="-30.1" font-family="Times,serif" font-size="8.00" fill="#000000">BuildConfig</text>
</g>
<!-- c8a472c85_b335_4a2d_9737_efd4c6750b3d -->
<g id="c8a472c85_b335_4a2d_9737_efd4c6750b3d" class="node">
<title>c8a472c85_b335_4a2d_9737_efd4c6750b3d</title>
<polygon fill="none" stroke="#000000" points="2193.8066,-14.5 2193.8066,-50.5 2264.9121,-50.5 2264.9121,-14.5 2193.8066,-14.5"/>
<text text-anchor="middle" x="2229.3594" y="-30.1" font-family="Times,serif" font-size="8.00" fill="#000000">ActivityMain$19</text>
</g>
<!-- c8a4b9ccf_acda_4f74_8fb6_ed5f72ba673e -->
<g id="c8a4b9ccf_acda_4f74_8fb6_ed5f72ba673e" class="node">
<title>c8a4b9ccf_acda_4f74_8fb6_ed5f72ba673e</title>
<polygon fill="none" stroke="#000000" points="2283.3633,-14.5 2283.3633,-50.5 2347.3555,-50.5 2347.3555,-14.5 2283.3633,-14.5"/>
<text text-anchor="middle" x="2315.3594" y="-30.1" font-family="Times,serif" font-size="8.00" fill="#000000">EntityResolver</text>
</g>
<!-- ce3f8f8b0_9a3a_485c_a811_e1f241f27d2d -->
<g id="ce3f8f8b0_9a3a_485c_a811_e1f241f27d2d" class="node">
<title>ce3f8f8b0_9a3a_485c_a811_e1f241f27d2d</title>
<polygon fill="none" stroke="#000000" points="2365.3594,-14.5 2365.3594,-50.5 2419.3594,-50.5 2419.3594,-14.5 2365.3594,-14.5"/>
<text text-anchor="middle" x="2392.0273" y="-30.1" font-family="Times,serif" font-size="8.00" fill="#000000">R</text>
</g>
<!-- c7e4c93ea_477a_4d05_b5e4_63aa3d161c15 -->
<g id="c7e4c93ea_477a_4d05_b5e4_63aa3d161c15" class="node">
<title>c7e4c93ea_477a_4d05_b5e4_63aa3d161c15</title>
<polygon fill="none" stroke="#000000" points="2437.1406,-14.5 2437.1406,-50.5 2501.5781,-50.5 2501.5781,-14.5 2437.1406,-14.5"/>
<text text-anchor="middle" x="2469.3594" y="-30.1" font-family="Times,serif" font-size="8.00" fill="#000000">SAXException</text>
</g>
<!-- c915b1421_722b_46fe_95ae_eaaf73d40dab -->
<g id="c915b1421_722b_46fe_95ae_eaaf73d40dab" class="node">
<title>c915b1421_722b_46fe_95ae_eaaf73d40dab</title>
<polygon fill="none" stroke="#000000" points="2519.8086,-14.5 2519.8086,-50.5 2574.9102,-50.5 2574.9102,-14.5 2519.8086,-14.5"/>
<text text-anchor="middle" x="2547.3594" y="-30.1" font-family="Times,serif" font-size="8.00" fill="#000000">InputSource</text>
</g>
<!-- c9d9d4fc4_680b_4f98_ac65_ac5d0a42c6a1 -->
<g id="c9d9d4fc4_680b_4f98_ac65_ac5d0a42c6a1" class="node">
<title>c9d9d4fc4_680b_4f98_ac65_ac5d0a42c6a1</title>
<polygon fill="none" stroke="#000000" points="2593.3594,-14.5 2593.3594,-50.5 2647.3594,-50.5 2647.3594,-14.5 2593.3594,-14.5"/>
<text text-anchor="middle" x="2620.0254" y="-30.1" font-family="Times,serif" font-size="8.00" fill="#000000">R$layout</text>
</g>
<!-- ce36bedd6_4cca_49e2_8884_b1c24f517cfc -->
<g id="ce36bedd6_4cca_49e2_8884_b1c24f517cfc" class="node">
<title>ce36bedd6_4cca_49e2_8884_b1c24f517cfc</title>
<polygon fill="none" stroke="#000000" points="2665.5879,-14.5 2665.5879,-50.5 2761.1309,-50.5 2761.1309,-14.5 2665.5879,-14.5"/>
<text text-anchor="middle" x="2713.3594" y="-30.1" font-family="Times,serif" font-size="8.00" fill="#000000">XmlPullParserException</text>
</g>
<!-- c23517e28_1c9c_43ad_9e21_c40d9f8a9df6 -->
<g id="c23517e28_1c9c_43ad_9e21_c40d9f8a9df6" class="node">
<title>c23517e28_1c9c_43ad_9e21_c40d9f8a9df6</title>
<polygon fill="none" stroke="#000000" points="2778.7012,-14.5 2778.7012,-50.5 2876.0176,-50.5 2876.0176,-14.5 2778.7012,-14.5"/>
<text text-anchor="middle" x="2827.3594" y="-30.1" font-family="Times,serif" font-size="8.00" fill="#000000">LinearLayoutCustomised</text>
</g>
<!-- c1b5cc162_c8ae_4641_8f57_7654812db4f6 -->
<g id="c1b5cc162_c8ae_4641_8f57_7654812db4f6" class="node">
<title>c1b5cc162_c8ae_4641_8f57_7654812db4f6</title>
<polygon fill="none" stroke="#000000" points="2894.4746,-14.5 2894.4746,-50.5 2960.2441,-50.5 2960.2441,-14.5 2894.4746,-14.5"/>
<text text-anchor="middle" x="2927.3594" y="-30.1" font-family="Times,serif" font-size="8.00" fill="#000000">ActivityHelp$1</text>
</g>
<!-- cd5205aa1_9a7b_47c2_9d51_1abe60ecfa16 -->
<g id="cd5205aa1_9a7b_47c2_9d51_1abe60ecfa16" class="node">
<title>cd5205aa1_9a7b_47c2_9d51_1abe60ecfa16</title>
<polygon fill="none" stroke="#000000" points="2978.25,-14.5 2978.25,-50.5 3048.4688,-50.5 3048.4688,-14.5 2978.25,-14.5"/>
<text text-anchor="middle" x="3013.3594" y="-30.1" font-family="Times,serif" font-size="8.00" fill="#000000">ActivityAbout$2</text>
</g>
<!-- c4c963d35_f62f_4975_98b7_a5895e92c4b1 -->
<g id="c4c963d35_f62f_4975_98b7_a5895e92c4b1" class="node">
<title>c4c963d35_f62f_4975_98b7_a5895e92c4b1</title>
<polygon fill="none" stroke="#000000" points="3066.9238,-14.5 3066.9238,-50.5 3127.7949,-50.5 3127.7949,-14.5 3066.9238,-14.5"/>
<text text-anchor="middle" x="3097.3594" y="-30.1" font-family="Times,serif" font-size="8.00" fill="#000000">XmlSerializer</text>
</g>
<!-- cd142f8a8_09b0_4f8c_9ad1_6dcee381b223 -->
<g id="cd142f8a8_09b0_4f8c_9ad1_6dcee381b223" class="node">
<title>cd142f8a8_09b0_4f8c_9ad1_6dcee381b223</title>
<polygon fill="none" stroke="#000000" points="3145.5762,-14.5 3145.5762,-50.5 3201.1426,-50.5 3201.1426,-14.5 3145.5762,-14.5"/>
<text text-anchor="middle" x="3173.3594" y="-30.1" font-family="Times,serif" font-size="8.00" fill="#000000">BuildConfig</text>
</g>
<!-- cd02af7ff_4042_4398_9fb6_113538dfb2f6 -->
<g id="cd02af7ff_4042_4398_9fb6_113538dfb2f6" class="node">
<title>cd02af7ff_4042_4398_9fb6_113538dfb2f6</title>
<polygon fill="none" stroke="#000000" points="3219.3594,-14.5 3219.3594,-50.5 3273.3594,-50.5 3273.3594,-14.5 3219.3594,-14.5"/>
<text text-anchor="middle" x="3246.3574" y="-30.1" font-family="Times,serif" font-size="8.00" fill="#000000">Attributes</text>
</g>
</g>
</svg>
