<?xml version="1.0" encoding="UTF-8" standalone="no"?>
<!DOCTYPE svg PUBLIC "-//W3C//DTD SVG 1.1//EN"
 "http://www.w3.org/Graphics/SVG/1.1/DTD/svg11.dtd">
<!-- Generated by graphviz version 2.38.0 (20140413.2041)
 -->
<!-- Title: g Pages: 1 -->
<svg width="5589pt" height="333pt"
 viewBox="0.00 0.00 5588.50 333.00" xmlns="http://www.w3.org/2000/svg" xmlns:xlink="http://www.w3.org/1999/xlink">
<g id="graph0" class="graph" transform="scale(1 1) rotate(0) translate(4 329)">
<title>g</title>
<polygon fill="white" stroke="none" points="-4,4 -4,-329 5584.5,-329 5584.5,4 -4,4"/>
<!-- c694de6ac_ebb1_40c7_85f9_eef0961bd457 -->
<g id="node1" class="node"><title>c694de6ac_ebb1_40c7_85f9_eef0961bd457</title>
<polygon fill="none" stroke="black" points="9.5,-246.5 9.5,-267.5 178.5,-267.5 178.5,-246.5 9.5,-246.5"/>
<text text-anchor="start" x="20" y="-254.3" font-family="Times New Roman,serif" font-weight="bold" font-size="14.00">AppsArrayPageAdapter</text>
<polygon fill="none" stroke="black" points="9.5,-225.5 9.5,-246.5 178.5,-246.5 178.5,-225.5 9.5,-225.5"/>
<text text-anchor="start" x="43" y="-233.3" font-family="Times New Roman,serif" font-weight="bold" font-size="14.00">getAppsLayout()</text>
<polygon fill="none" stroke="black" points="9.5,-204.5 9.5,-225.5 178.5,-225.5 178.5,-204.5 9.5,-204.5"/>
<text text-anchor="start" x="12.5" y="-212.3" font-family="Times New Roman,serif" font-weight="bold" font-size="14.00">AppsLayoutPageAdapter()</text>
<polygon fill="none" stroke="black" points="9.5,-183.5 9.5,-204.5 178.5,-204.5 178.5,-183.5 9.5,-183.5"/>
<text text-anchor="start" x="55" y="-191.3" font-family="Times New Roman,serif" font-weight="bold" font-size="14.00">getAppInfo()</text>
<polygon fill="none" stroke="black" points="9.5,-162.5 9.5,-183.5 178.5,-183.5 178.5,-162.5 9.5,-162.5"/>
<text text-anchor="start" x="39.5" y="-170.3" font-family="Times New Roman,serif" font-weight="bold" font-size="14.00">getAppInfoView()</text>
<polygon fill="none" stroke="black" points="9.5,-141.5 9.5,-162.5 178.5,-162.5 178.5,-141.5 9.5,-141.5"/>
<text text-anchor="start" x="32.5" y="-149.3" font-family="Times New Roman,serif" font-weight="bold" font-size="14.00">getAppInfoViewAt()</text>
<polygon fill="none" stroke="black" points="9.5,-120.5 9.5,-141.5 178.5,-141.5 178.5,-120.5 9.5,-120.5"/>
<text text-anchor="start" x="38" y="-128.3" font-family="Times New Roman,serif" font-weight="bold" font-size="14.00">addAppInfoView()</text>
<polygon fill="none" stroke="black" points="9.5,-99.5 9.5,-120.5 178.5,-120.5 178.5,-99.5 9.5,-99.5"/>
<text text-anchor="start" x="65.5" y="-107.3" font-family="Times New Roman,serif" font-weight="bold" font-size="14.00">addApp()</text>
<polygon fill="none" stroke="black" points="9.5,-78.5 9.5,-99.5 178.5,-99.5 178.5,-78.5 9.5,-78.5"/>
<text text-anchor="start" x="55" y="-86.3" font-family="Times New Roman,serif" font-weight="bold" font-size="14.00">getAppInfo()</text>
<polygon fill="none" stroke="black" points="9.5,-57.5 9.5,-78.5 178.5,-78.5 178.5,-57.5 9.5,-57.5"/>
<text text-anchor="start" x="39.5" y="-65.3" font-family="Times New Roman,serif" font-weight="bold" font-size="14.00">getAppInfoView()</text>
<polygon fill="none" stroke="black" points="8,-56.5 8,-268.5 179,-268.5 179,-56.5 8,-56.5"/>
</g>
<!-- c3f755624_be44_4894_8aa5_2e844f91ff64 -->
<g id="node2" class="node"><title>c3f755624_be44_4894_8aa5_2e844f91ff64</title>
<polygon fill="none" stroke="black" points="214.5,-235.5 214.5,-256.5 356.5,-256.5 356.5,-235.5 214.5,-235.5"/>
<text text-anchor="start" x="228" y="-243.3" font-family="Times New Roman,serif" font-weight="bold" font-size="14.00">AllTheAppsLayout</text>
<polygon fill="none" stroke="black" points="214.5,-214.5 214.5,-235.5 356.5,-235.5 356.5,-214.5 214.5,-214.5"/>
<text text-anchor="start" x="217.5" y="-222.3" font-family="Times New Roman,serif" font-weight="bold" font-size="14.00">onIconLongTouched()</text>
<polygon fill="none" stroke="black" points="214.5,-193.5 214.5,-214.5 356.5,-214.5 356.5,-193.5 214.5,-193.5"/>
<text text-anchor="start" x="219.5" y="-201.3" font-family="Times New Roman,serif" font-weight="bold" font-size="14.00">onAppsPageLoaded()</text>
<polygon fill="none" stroke="black" points="214.5,-172.5 214.5,-193.5 356.5,-193.5 356.5,-172.5 214.5,-172.5"/>
<text text-anchor="start" x="221" y="-180.3" font-family="Times New Roman,serif" font-weight="bold" font-size="14.00">AppInfoCacheView()</text>
<polygon fill="none" stroke="black" points="214.5,-151.5 214.5,-172.5 356.5,-172.5 356.5,-151.5 214.5,-151.5"/>
<text text-anchor="start" x="223.5" y="-159.3" font-family="Times New Roman,serif" font-weight="bold" font-size="14.00">AllTheAppsLayout()</text>
<polygon fill="none" stroke="black" points="214.5,-130.5 214.5,-151.5 356.5,-151.5 356.5,-130.5 214.5,-130.5"/>
<text text-anchor="start" x="222" y="-138.3" font-family="Times New Roman,serif" font-weight="bold" font-size="14.00">AppPagesManager()</text>
<polygon fill="none" stroke="black" points="214.5,-109.5 214.5,-130.5 356.5,-130.5 356.5,-109.5 214.5,-109.5"/>
<text text-anchor="start" x="248" y="-117.3" font-family="Times New Roman,serif" font-weight="bold" font-size="14.00">AppsPanel()</text>
<polygon fill="none" stroke="black" points="214.5,-88.5 214.5,-109.5 356.5,-109.5 356.5,-88.5 214.5,-88.5"/>
<text text-anchor="start" x="238.5" y="-96.3" font-family="Times New Roman,serif" font-weight="bold" font-size="14.00">addAppsPage()</text>
<polygon fill="none" stroke="black" points="214.5,-67.5 214.5,-88.5 356.5,-88.5 356.5,-67.5 214.5,-67.5"/>
<text text-anchor="start" x="254.5" y="-75.3" font-family="Times New Roman,serif" font-weight="bold" font-size="14.00">getIndex()</text>
<polygon fill="none" stroke="black" points="213.5,-67 213.5,-258 357.5,-258 357.5,-67 213.5,-67"/>
</g>
<!-- c2b1eee4b_9ace_4a0f_bbd7_c9398e6149b6 -->
<g id="node3" class="node"><title>c2b1eee4b_9ace_4a0f_bbd7_c9398e6149b6</title>
<polygon fill="none" stroke="black" points="392.5,-225.5 392.5,-246.5 634.5,-246.5 634.5,-225.5 392.5,-225.5"/>
<text text-anchor="start" x="444.5" y="-233.3" font-family="Times New Roman,serif" font-weight="bold" font-size="14.00">TrackBrowserActivity</text>
<polygon fill="none" stroke="black" points="392.5,-204.5 392.5,-225.5 634.5,-225.5 634.5,-204.5 392.5,-204.5"/>
<text text-anchor="start" x="424" y="-212.3" font-family="Times New Roman,serif" font-weight="bold" font-size="14.00">TrackBrowserActivity layout</text>
<polygon fill="none" stroke="black" points="392.5,-183.5 392.5,-204.5 634.5,-204.5 634.5,-183.5 392.5,-183.5"/>
<text text-anchor="start" x="414" y="-191.3" font-family="Times New Roman,serif" font-weight="bold" font-size="14.00">TrackBrowserActivity mActivity</text>
<polygon fill="none" stroke="black" points="392.5,-162.5 392.5,-183.5 634.5,-183.5 634.5,-162.5 392.5,-162.5"/>
<text text-anchor="start" x="395.5" y="-170.3" font-family="Times New Roman,serif" font-weight="bold" font-size="14.00">TrackListAdapter:mActivity undefined</text>
<polygon fill="none" stroke="black" points="392.5,-141.5 392.5,-162.5 634.5,-162.5 634.5,-141.5 392.5,-141.5"/>
<text text-anchor="start" x="453" y="-149.3" font-family="Times New Roman,serif" font-weight="bold" font-size="14.00">TrackListAdapter()</text>
<polygon fill="none" stroke="black" points="392.5,-120.5 392.5,-141.5 634.5,-141.5 634.5,-120.5 392.5,-120.5"/>
<text text-anchor="start" x="477" y="-128.3" font-family="Times New Roman,serif" font-weight="bold" font-size="14.00">setActivity()</text>
<polygon fill="none" stroke="black" points="392.5,-99.5 392.5,-120.5 634.5,-120.5 634.5,-99.5 392.5,-99.5"/>
<text text-anchor="start" x="455.5" y="-107.3" font-family="Times New Roman,serif" font-weight="bold" font-size="14.00">getQueryHandler()</text>
<polygon fill="none" stroke="black" points="392.5,-78.5 392.5,-99.5 634.5,-99.5 634.5,-78.5 392.5,-78.5"/>
<text text-anchor="start" x="458.5" y="-86.3" font-family="Times New Roman,serif" font-weight="bold" font-size="14.00">getTrackCursor()</text>
<polygon fill="none" stroke="black" points="391.5,-77.5 391.5,-247.5 635.5,-247.5 635.5,-77.5 391.5,-77.5"/>
</g>
<!-- cba89a523_be37_44af_928a_8b4c45887e65 -->
<g id="node4" class="node"><title>cba89a523_be37_44af_928a_8b4c45887e65</title>
<polygon fill="none" stroke="black" points="670.5,-288.5 670.5,-309.5 872.5,-309.5 872.5,-288.5 670.5,-288.5"/>
<text text-anchor="start" x="731" y="-296.3" font-family="Times New Roman,serif" font-weight="bold" font-size="14.00">AppInfoView</text>
<polygon fill="none" stroke="black" points="670.5,-267.5 670.5,-288.5 872.5,-288.5 872.5,-267.5 670.5,-267.5"/>
<text text-anchor="start" x="730.5" y="-275.3" font-family="Times New Roman,serif" font-weight="bold" font-size="14.00">addAppInfo()</text>
<polygon fill="none" stroke="black" points="670.5,-246.5 670.5,-267.5 872.5,-267.5 872.5,-246.5 670.5,-246.5"/>
<text text-anchor="start" x="721.5" y="-254.3" font-family="Times New Roman,serif" font-weight="bold" font-size="14.00">updateAppInfo()</text>
<polygon fill="none" stroke="black" points="670.5,-225.5 670.5,-246.5 872.5,-246.5 872.5,-225.5 670.5,-225.5"/>
<text text-anchor="start" x="693" y="-233.3" font-family="Times New Roman,serif" font-weight="bold" font-size="14.00">addAppInfoToFavorites()</text>
<polygon fill="none" stroke="black" points="670.5,-204.5 670.5,-225.5 872.5,-225.5 872.5,-204.5 670.5,-204.5"/>
<text text-anchor="start" x="673.5" y="-212.3" font-family="Times New Roman,serif" font-weight="bold" font-size="14.00">removeAppInfoFromFavorites()</text>
<polygon fill="none" stroke="black" points="670.5,-183.5 670.5,-204.5 872.5,-204.5 872.5,-183.5 670.5,-183.5"/>
<text text-anchor="start" x="711" y="-191.3" font-family="Times New Roman,serif" font-weight="bold" font-size="14.00">queryAppinfoById()</text>
<polygon fill="none" stroke="black" points="670.5,-162.5 670.5,-183.5 872.5,-183.5 872.5,-162.5 670.5,-162.5"/>
<text text-anchor="start" x="732.5" y="-170.3" font-family="Times New Roman,serif" font-weight="bold" font-size="14.00">getAppInfo()</text>
<polygon fill="none" stroke="black" points="670.5,-141.5 670.5,-162.5 872.5,-162.5 872.5,-141.5 670.5,-141.5"/>
<text text-anchor="start" x="732.5" y="-149.3" font-family="Times New Roman,serif" font-weight="bold" font-size="14.00">getAppInfo()</text>
<polygon fill="none" stroke="black" points="670.5,-120.5 670.5,-141.5 872.5,-141.5 872.5,-120.5 670.5,-120.5"/>
<text text-anchor="start" x="755.5" y="-128.3" font-family="Times New Roman,serif" font-weight="bold" font-size="14.00">add()</text>
<polygon fill="none" stroke="black" points="670.5,-99.5 670.5,-120.5 872.5,-120.5 872.5,-99.5 670.5,-99.5"/>
<text text-anchor="start" x="733.5" y="-107.3" font-family="Times New Roman,serif" font-weight="bold" font-size="14.00">setAppInfo()</text>
<polygon fill="none" stroke="black" points="670.5,-78.5 670.5,-99.5 872.5,-99.5 872.5,-78.5 670.5,-78.5"/>
<text text-anchor="start" x="732.5" y="-86.3" font-family="Times New Roman,serif" font-weight="bold" font-size="14.00">getAppInfo()</text>
<polygon fill="none" stroke="black" points="670.5,-57.5 670.5,-78.5 872.5,-78.5 872.5,-57.5 670.5,-57.5"/>
<text text-anchor="start" x="733.5" y="-65.3" font-family="Times New Roman,serif" font-weight="bold" font-size="14.00">setAppInfo()</text>
<polygon fill="none" stroke="black" points="670.5,-36.5 670.5,-57.5 872.5,-57.5 872.5,-36.5 670.5,-36.5"/>
<text text-anchor="start" x="721.5" y="-44.3" font-family="Times New Roman,serif" font-weight="bold" font-size="14.00">updateAppInfo()</text>
<polygon fill="none" stroke="black" points="670.5,-15.5 670.5,-36.5 872.5,-36.5 872.5,-15.5 670.5,-15.5"/>
<text text-anchor="start" x="726.5" y="-23.3" font-family="Times New Roman,serif" font-weight="bold" font-size="14.00">AppInfoView()</text>
<polygon fill="none" stroke="black" points="669.5,-14.5 669.5,-310.5 873.5,-310.5 873.5,-14.5 669.5,-14.5"/>
</g>
<!-- c30e624cf_33a3_4306_a9d1_0b305a99c7c6 -->
<g id="node5" class="node"><title>c30e624cf_33a3_4306_a9d1_0b305a99c7c6</title>
<polygon fill="none" stroke="black" points="908.5,-151.5 908.5,-172.5 1056.5,-172.5 1056.5,-151.5 908.5,-151.5"/>
<text text-anchor="start" x="911.5" y="-159.3" font-family="Times New Roman,serif" font-weight="bold" font-size="14.00">RepeatingImageButton</text>
<polygon fill="none" stroke="black" points="907.5,-151 907.5,-174 1057.5,-174 1057.5,-151 907.5,-151"/>
</g>
<!-- c36e9aa99_55bf_495e_b4a9_fb96a6c5c350 -->
<g id="node6" class="node"><title>c36e9aa99_55bf_495e_b4a9_fb96a6c5c350</title>
<polygon fill="none" stroke="black" points="1092.5,-183.5 1092.5,-204.5 1234.5,-204.5 1234.5,-183.5 1092.5,-183.5"/>
<text text-anchor="start" x="1095.5" y="-191.3" font-family="Times New Roman,serif" font-weight="bold" font-size="14.00">SystemAppsDBHelper</text>
<polygon fill="none" stroke="black" points="1092.5,-162.5 1092.5,-183.5 1234.5,-183.5 1234.5,-162.5 1092.5,-162.5"/>
<text text-anchor="start" x="1149.5" y="-170.3" font-family="Times New Roman,serif" font-weight="bold" font-size="14.00">get()</text>
<polygon fill="none" stroke="black" points="1092.5,-141.5 1092.5,-162.5 1234.5,-162.5 1234.5,-141.5 1092.5,-141.5"/>
<text text-anchor="start" x="1147.5" y="-149.3" font-family="Times New Roman,serif" font-weight="bold" font-size="14.00">add()</text>
<polygon fill="none" stroke="black" points="1092.5,-120.5 1092.5,-141.5 1234.5,-141.5 1234.5,-120.5 1092.5,-120.5"/>
<text text-anchor="start" x="1138" y="-128.3" font-family="Times New Roman,serif" font-weight="bold" font-size="14.00">update()</text>
<polygon fill="none" stroke="black" points="1091.5,-119.5 1091.5,-205.5 1235.5,-205.5 1235.5,-119.5 1091.5,-119.5"/>
</g>
<!-- cdbc88cfa_7fab_478c_986d_2f69a2eeccd1 -->
<g id="node7" class="node"><title>cdbc88cfa_7fab_478c_986d_2f69a2eeccd1</title>
<polygon fill="none" stroke="black" points="1271.5,-214.5 1271.5,-235.5 1458.5,-235.5 1458.5,-214.5 1271.5,-214.5"/>
<text text-anchor="start" x="1274.5" y="-222.3" font-family="Times New Roman,serif" font-weight="bold" font-size="14.00">HorizontallySwipeableLayout</text>
<polygon fill="none" stroke="black" points="1271.5,-193.5 1271.5,-214.5 1458.5,-214.5 1458.5,-193.5 1271.5,-193.5"/>
<text text-anchor="start" x="1328.5" y="-201.3" font-family="Times New Roman,serif" font-weight="bold" font-size="14.00">getPageAt()</text>
<polygon fill="none" stroke="black" points="1271.5,-172.5 1271.5,-193.5 1458.5,-193.5 1458.5,-172.5 1271.5,-172.5"/>
<text text-anchor="start" x="1318" y="-180.3" font-family="Times New Roman,serif" font-weight="bold" font-size="14.00">addAppsPage()</text>
<polygon fill="none" stroke="black" points="1271.5,-151.5 1271.5,-172.5 1458.5,-172.5 1458.5,-151.5 1271.5,-151.5"/>
<text text-anchor="start" x="1334" y="-159.3" font-family="Times New Roman,serif" font-weight="bold" font-size="14.00">getIndex()</text>
<polygon fill="none" stroke="black" points="1271.5,-130.5 1271.5,-151.5 1458.5,-151.5 1458.5,-130.5 1271.5,-130.5"/>
<text text-anchor="start" x="1279" y="-138.3" font-family="Times New Roman,serif" font-weight="bold" font-size="14.00">onFrameSequenceRequest()</text>
<polygon fill="none" stroke="black" points="1271.5,-109.5 1271.5,-130.5 1458.5,-130.5 1458.5,-109.5 1271.5,-109.5"/>
<text text-anchor="start" x="1347" y="-117.3" font-family="Times New Roman,serif" font-weight="bold" font-size="14.00">bind()</text>
<polygon fill="none" stroke="black" points="1271.5,-88.5 1271.5,-109.5 1458.5,-109.5 1458.5,-88.5 1271.5,-88.5"/>
<text text-anchor="start" x="1279" y="-96.3" font-family="Times New Roman,serif" font-weight="bold" font-size="14.00">onFrameSequenceRequest()</text>
<polygon fill="none" stroke="black" points="1270,-88 1270,-237 1459,-237 1459,-88 1270,-88"/>
</g>
<!-- c4caaa1a0_21c3_44ad_97ee_66279556f894 -->
<g id="node8" class="node"><title>c4caaa1a0_21c3_44ad_97ee_66279556f894</title>
<polygon fill="none" stroke="black" points="1494.5,-193.5 1494.5,-214.5 1666.5,-214.5 1666.5,-193.5 1494.5,-193.5"/>
<text text-anchor="start" x="1497.5" y="-201.3" font-family="Times New Roman,serif" font-weight="bold" font-size="14.00">HorizontallySwipeDetector</text>
<polygon fill="none" stroke="black" points="1494.5,-172.5 1494.5,-193.5 1666.5,-193.5 1666.5,-172.5 1494.5,-172.5"/>
<text text-anchor="start" x="1524.5" y="-180.3" font-family="Times New Roman,serif" font-weight="bold" font-size="14.00">GestureDetector()</text>
<polygon fill="none" stroke="black" points="1494.5,-151.5 1494.5,-172.5 1666.5,-172.5 1666.5,-151.5 1494.5,-151.5"/>
<text text-anchor="start" x="1550" y="-159.3" font-family="Times New Roman,serif" font-weight="bold" font-size="14.00">onDown()</text>
<polygon fill="none" stroke="black" points="1494.5,-130.5 1494.5,-151.5 1666.5,-151.5 1666.5,-130.5 1494.5,-130.5"/>
<text text-anchor="start" x="1550" y="-138.3" font-family="Times New Roman,serif" font-weight="bold" font-size="14.00">onScroll()</text>
<polygon fill="none" stroke="black" points="1494.5,-109.5 1494.5,-130.5 1666.5,-130.5 1666.5,-109.5 1494.5,-109.5"/>
<text text-anchor="start" x="1552.5" y="-117.3" font-family="Times New Roman,serif" font-weight="bold" font-size="14.00">onFling()</text>
<polygon fill="none" stroke="black" points="1493.5,-109 1493.5,-216 1667.5,-216 1667.5,-109 1493.5,-109"/>
</g>
<!-- c2c03c0e1_1b36_4a60_ac63_eb3d2bd7355f -->
<g id="node9" class="node"><title>c2c03c0e1_1b36_4a60_ac63_eb3d2bd7355f</title>
<polygon fill="none" stroke="black" points="1702.5,-193.5 1702.5,-214.5 1980.5,-214.5 1980.5,-193.5 1702.5,-193.5"/>
<text text-anchor="start" x="1754.5" y="-201.3" font-family="Times New Roman,serif" font-weight="bold" font-size="14.00">ArtistAlbumBrowserActivity</text>
<polygon fill="none" stroke="black" points="1702.5,-172.5 1702.5,-193.5 1980.5,-193.5 1980.5,-172.5 1702.5,-172.5"/>
<text text-anchor="start" x="1741" y="-180.3" font-family="Times New Roman,serif" font-weight="bold" font-size="14.00">MusicAlphabetIndexer mIndexer</text>
<polygon fill="none" stroke="black" points="1702.5,-151.5 1702.5,-172.5 1980.5,-172.5 1980.5,-151.5 1702.5,-151.5"/>
<text text-anchor="start" x="1705.5" y="-159.3" font-family="Times New Roman,serif" font-weight="bold" font-size="14.00">ArtistAlbumListAdapter:mIndexer undefined</text>
<polygon fill="none" stroke="black" points="1702.5,-130.5 1702.5,-151.5 1980.5,-151.5 1980.5,-130.5 1702.5,-130.5"/>
<text text-anchor="start" x="1763" y="-138.3" font-family="Times New Roman,serif" font-weight="bold" font-size="14.00">ArtistAlbumListAdapter()</text>
<polygon fill="none" stroke="black" points="1702.5,-109.5 1702.5,-130.5 1980.5,-130.5 1980.5,-109.5 1702.5,-109.5"/>
<text text-anchor="start" x="1805" y="-117.3" font-family="Times New Roman,serif" font-weight="bold" font-size="14.00">setActivity()</text>
<polygon fill="none" stroke="black" points="1701.5,-109 1701.5,-216 1981.5,-216 1981.5,-109 1701.5,-109"/>
</g>
<!-- cf16d45f4_7a57_4d39_8733_4ffbef3e45b0 -->
<g id="node10" class="node"><title>cf16d45f4_7a57_4d39_8733_4ffbef3e45b0</title>
<polygon fill="none" stroke="black" points="2016.5,-151.5 2016.5,-172.5 2124.5,-172.5 2124.5,-151.5 2016.5,-151.5"/>
<text text-anchor="start" x="2019.5" y="-159.3" font-family="Times New Roman,serif" font-weight="bold" font-size="14.00">ServiceManager</text>
<polygon fill="none" stroke="black" points="2015.5,-151 2015.5,-174 2125.5,-174 2125.5,-151 2015.5,-151"/>
</g>
<!-- ce5445f3c_df61_4b51_ba71_3a3289aba684 -->
<g id="node11" class="node"><title>ce5445f3c_df61_4b51_ba71_3a3289aba684</title>
<polygon fill="none" stroke="black" points="2160.5,-298.5 2160.5,-319.5 2404.5,-319.5 2404.5,-298.5 2160.5,-298.5"/>
<text text-anchor="start" x="2213" y="-306.3" font-family="Times New Roman,serif" font-weight="bold" font-size="14.00">AlbumBrowserActivity</text>
<polygon fill="none" stroke="black" points="2160.5,-277.5 2160.5,-298.5 2404.5,-298.5 2404.5,-277.5 2160.5,-277.5"/>
<text text-anchor="start" x="2183" y="-285.3" font-family="Times New Roman,serif" font-weight="bold" font-size="14.00">QueryBrowserActivity mActivity</text>
<polygon fill="none" stroke="black" points="2160.5,-256.5 2160.5,-277.5 2404.5,-277.5 2404.5,-256.5 2160.5,-256.5"/>
<text text-anchor="start" x="2164.5" y="-264.3" font-family="Times New Roman,serif" font-weight="bold" font-size="14.00">QueryListAdapter:mActivity undefined</text>
<polygon fill="none" stroke="black" points="2160.5,-235.5 2160.5,-256.5 2404.5,-256.5 2404.5,-235.5 2160.5,-235.5"/>
<text text-anchor="start" x="2182" y="-243.3" font-family="Times New Roman,serif" font-weight="bold" font-size="14.00">AlbumBrowserActivity mActivity</text>
<polygon fill="none" stroke="black" points="2160.5,-214.5 2160.5,-235.5 2404.5,-235.5 2404.5,-214.5 2160.5,-214.5"/>
<text text-anchor="start" x="2163.5" y="-222.3" font-family="Times New Roman,serif" font-weight="bold" font-size="14.00">AlbumListAdapter:mActivity undefined</text>
<polygon fill="none" stroke="black" points="2160.5,-193.5 2160.5,-214.5 2404.5,-214.5 2404.5,-193.5 2160.5,-193.5"/>
<text text-anchor="start" x="2212.5" y="-201.3" font-family="Times New Roman,serif" font-weight="bold" font-size="14.00">ServiceToken mToken</text>
<polygon fill="none" stroke="black" points="2160.5,-172.5 2160.5,-193.5 2404.5,-193.5 2404.5,-172.5 2160.5,-172.5"/>
<text text-anchor="start" x="2212.5" y="-180.3" font-family="Times New Roman,serif" font-weight="bold" font-size="14.00">ServiceToken mToken</text>
<polygon fill="none" stroke="black" points="2160.5,-151.5 2160.5,-172.5 2404.5,-172.5 2404.5,-151.5 2160.5,-151.5"/>
<text text-anchor="start" x="2180" y="-159.3" font-family="Times New Roman,serif" font-weight="bold" font-size="14.00">ServiceManager serviceManager</text>
<polygon fill="none" stroke="black" points="2160.5,-130.5 2160.5,-151.5 2404.5,-151.5 2404.5,-130.5 2160.5,-130.5"/>
<text text-anchor="start" x="2222" y="-138.3" font-family="Times New Roman,serif" font-weight="bold" font-size="14.00">QueryListAdapter()</text>
<polygon fill="none" stroke="black" points="2160.5,-109.5 2160.5,-130.5 2404.5,-130.5 2404.5,-109.5 2160.5,-109.5"/>
<text text-anchor="start" x="2246" y="-117.3" font-family="Times New Roman,serif" font-weight="bold" font-size="14.00">setActivity()</text>
<polygon fill="none" stroke="black" points="2160.5,-88.5 2160.5,-109.5 2404.5,-109.5 2404.5,-88.5 2160.5,-88.5"/>
<text text-anchor="start" x="2221.5" y="-96.3" font-family="Times New Roman,serif" font-weight="bold" font-size="14.00">AlbumListAdapter()</text>
<polygon fill="none" stroke="black" points="2160.5,-67.5 2160.5,-88.5 2404.5,-88.5 2404.5,-67.5 2160.5,-67.5"/>
<text text-anchor="start" x="2246" y="-75.3" font-family="Times New Roman,serif" font-weight="bold" font-size="14.00">setActivity()</text>
<polygon fill="none" stroke="black" points="2160.5,-46.5 2160.5,-67.5 2404.5,-67.5 2404.5,-46.5 2160.5,-46.5"/>
<text text-anchor="start" x="2233.5" y="-54.3" font-family="Times New Roman,serif" font-weight="bold" font-size="14.00">bindToService()</text>
<polygon fill="none" stroke="black" points="2160.5,-25.5 2160.5,-46.5 2404.5,-46.5 2404.5,-25.5 2160.5,-25.5"/>
<text text-anchor="start" x="2233.5" y="-33.3" font-family="Times New Roman,serif" font-weight="bold" font-size="14.00">bindToService()</text>
<polygon fill="none" stroke="black" points="2160.5,-4.5 2160.5,-25.5 2404.5,-25.5 2404.5,-4.5 2160.5,-4.5"/>
<text text-anchor="start" x="2217.5" y="-12.3" font-family="Times New Roman,serif" font-weight="bold" font-size="14.00">unbindFromService()</text>
<polygon fill="none" stroke="black" points="2159.5,-4 2159.5,-321 2405.5,-321 2405.5,-4 2159.5,-4"/>
</g>
<!-- c7b6be7a8_06d6_4358_ab9f_7b326df73931 -->
<g id="node12" class="node"><title>c7b6be7a8_06d6_4358_ab9f_7b326df73931</title>
<polygon fill="none" stroke="black" points="2441.5,-162.5 2441.5,-183.5 2628.5,-183.5 2628.5,-162.5 2441.5,-162.5"/>
<text text-anchor="start" x="2491.5" y="-170.3" font-family="Times New Roman,serif" font-weight="bold" font-size="14.00">WeekSelector</text>
<polygon fill="none" stroke="black" points="2441.5,-141.5 2441.5,-162.5 2628.5,-162.5 2628.5,-141.5 2441.5,-141.5"/>
<text text-anchor="start" x="2444.5" y="-149.3" font-family="Times New Roman,serif" font-weight="bold" font-size="14.00">VerticalTextSpinner mWeeks</text>
<polygon fill="none" stroke="black" points="2440,-140.5 2440,-184.5 2629,-184.5 2629,-140.5 2440,-140.5"/>
</g>
<!-- c4a6820b1_dd8d_4d8e_949a_838548daddeb -->
<g id="node13" class="node"><title>c4a6820b1_dd8d_4d8e_949a_838548daddeb</title>
<polygon fill="none" stroke="black" points="2664.5,-151.5 2664.5,-172.5 2794.5,-172.5 2794.5,-151.5 2664.5,-151.5"/>
<text text-anchor="start" x="2667.5" y="-159.3" font-family="Times New Roman,serif" font-weight="bold" font-size="14.00">VerticalTextSpinner</text>
<polygon fill="none" stroke="black" points="2663.5,-151 2663.5,-174 2795.5,-174 2795.5,-151 2663.5,-151"/>
</g>
<!-- c39a14a86_856a_406b_a7b9_13e3a0624e84 -->
<g id="node14" class="node"><title>c39a14a86_856a_406b_a7b9_13e3a0624e84</title>
<polygon fill="none" stroke="black" points="2830.5,-183.5 2830.5,-204.5 3050.5,-204.5 3050.5,-183.5 2830.5,-183.5"/>
<text text-anchor="start" x="2897.5" y="-191.3" font-family="Times New Roman,serif" font-weight="bold" font-size="14.00">AudioPreview</text>
<polygon fill="none" stroke="black" points="2830.5,-162.5 2830.5,-183.5 3050.5,-183.5 3050.5,-162.5 2830.5,-162.5"/>
<text text-anchor="start" x="2866.5" y="-170.3" font-family="Times New Roman,serif" font-weight="bold" font-size="14.00">AudioPreview mActivity</text>
<polygon fill="none" stroke="black" points="2830.5,-141.5 2830.5,-162.5 3050.5,-162.5 3050.5,-141.5 2830.5,-141.5"/>
<text text-anchor="start" x="2833.5" y="-149.3" font-family="Times New Roman,serif" font-weight="bold" font-size="14.00">PreviewPlayer:mActivity undefined</text>
<polygon fill="none" stroke="black" points="2830.5,-120.5 2830.5,-141.5 3050.5,-141.5 3050.5,-120.5 2830.5,-120.5"/>
<text text-anchor="start" x="2904" y="-128.3" font-family="Times New Roman,serif" font-weight="bold" font-size="14.00">setActivity()</text>
<polygon fill="none" stroke="black" points="2829.5,-119.5 2829.5,-205.5 3051.5,-205.5 3051.5,-119.5 2829.5,-119.5"/>
</g>
<!-- c5a09e639_5fa8_4369_afa6_a4d14d307c47 -->
<g id="node15" class="node"><title>c5a09e639_5fa8_4369_afa6_a4d14d307c47</title>
<polygon fill="none" stroke="black" points="3086.5,-172.5 3086.5,-193.5 3330.5,-193.5 3330.5,-172.5 3086.5,-172.5"/>
<text text-anchor="start" x="3169" y="-180.3" font-family="Times New Roman,serif" font-weight="bold" font-size="14.00">MusicPicker</text>
<polygon fill="none" stroke="black" points="3086.5,-151.5 3086.5,-172.5 3330.5,-172.5 3330.5,-151.5 3086.5,-151.5"/>
<text text-anchor="start" x="3108" y="-159.3" font-family="Times New Roman,serif" font-weight="bold" font-size="14.00">MusicAlphabetIndexer mIndexer</text>
<polygon fill="none" stroke="black" points="3086.5,-130.5 3086.5,-151.5 3330.5,-151.5 3330.5,-130.5 3086.5,-130.5"/>
<text text-anchor="start" x="3089.5" y="-138.3" font-family="Times New Roman,serif" font-weight="bold" font-size="14.00">TrackListAdapter:mIndexer mAdapter</text>
<polygon fill="none" stroke="black" points="3085.5,-130 3085.5,-195 3331.5,-195 3331.5,-130 3085.5,-130"/>
</g>
<!-- c317af217_e719_443c_b800_c6f49f2d7657 -->
<g id="node16" class="node"><title>c317af217_e719_443c_b800_c6f49f2d7657</title>
<polygon fill="none" stroke="black" points="3367.5,-193.5 3367.5,-214.5 3616.5,-214.5 3616.5,-193.5 3367.5,-193.5"/>
<text text-anchor="start" x="3419.5" y="-201.3" font-family="Times New Roman,serif" font-weight="bold" font-size="14.00">PlaylistBrowserActivity</text>
<polygon fill="none" stroke="black" points="3367.5,-172.5 3367.5,-193.5 3616.5,-193.5 3616.5,-172.5 3367.5,-172.5"/>
<text text-anchor="start" x="3389" y="-180.3" font-family="Times New Roman,serif" font-weight="bold" font-size="14.00">PlaylistBrowserActivity mActivity</text>
<polygon fill="none" stroke="black" points="3367.5,-151.5 3367.5,-172.5 3616.5,-172.5 3616.5,-151.5 3367.5,-151.5"/>
<text text-anchor="start" x="3370.5" y="-159.3" font-family="Times New Roman,serif" font-weight="bold" font-size="14.00">PlaylistListAdapter:mActivity undefined</text>
<polygon fill="none" stroke="black" points="3367.5,-130.5 3367.5,-151.5 3616.5,-151.5 3616.5,-130.5 3367.5,-130.5"/>
<text text-anchor="start" x="3428.5" y="-138.3" font-family="Times New Roman,serif" font-weight="bold" font-size="14.00">PlaylistListAdapter()</text>
<polygon fill="none" stroke="black" points="3367.5,-109.5 3367.5,-130.5 3616.5,-130.5 3616.5,-109.5 3367.5,-109.5"/>
<text text-anchor="start" x="3455.5" y="-117.3" font-family="Times New Roman,serif" font-weight="bold" font-size="14.00">setActivity()</text>
<polygon fill="none" stroke="black" points="3366,-109 3366,-216 3617,-216 3617,-109 3366,-109"/>
</g>
<!-- c16083378_2bc6_4e4e_a1ed_b0a2d498d51c -->
<g id="node17" class="node"><title>c16083378_2bc6_4e4e_a1ed_b0a2d498d51c</title>
<polygon fill="none" stroke="black" points="3652.5,-162.5 3652.5,-183.5 3857.5,-183.5 3857.5,-162.5 3652.5,-162.5"/>
<text text-anchor="start" x="3655.5" y="-170.3" font-family="Times New Roman,serif" font-weight="bold" font-size="14.00">BluetoothAlbumBrowserActivity</text>
<polygon fill="none" stroke="black" points="3652.5,-141.5 3652.5,-162.5 3857.5,-162.5 3857.5,-141.5 3652.5,-141.5"/>
<text text-anchor="start" x="3666" y="-149.3" font-family="Times New Roman,serif" font-weight="bold" font-size="14.00">AlbumListAdapter mAdapter</text>
<polygon fill="none" stroke="black" points="3651,-140.5 3651,-184.5 3858,-184.5 3858,-140.5 3651,-140.5"/>
</g>
<!-- c5e18b6e3_8c82_4045_a7f1_811d157ef2d7 -->
<g id="node18" class="node"><title>c5e18b6e3_8c82_4045_a7f1_811d157ef2d7</title>
<polygon fill="none" stroke="black" points="3893.5,-162.5 3893.5,-183.5 4039.5,-183.5 4039.5,-162.5 3893.5,-162.5"/>
<text text-anchor="start" x="3903" y="-170.3" font-family="Times New Roman,serif" font-weight="bold" font-size="14.00">MediaPickerActivity</text>
<polygon fill="none" stroke="black" points="3893.5,-141.5 3893.5,-162.5 4039.5,-162.5 4039.5,-141.5 3893.5,-141.5"/>
<text text-anchor="start" x="3896.5" y="-149.3" font-family="Times New Roman,serif" font-weight="bold" font-size="14.00">ServiceToken mToken</text>
<polygon fill="none" stroke="black" points="3892.5,-140.5 3892.5,-184.5 4040.5,-184.5 4040.5,-140.5 3892.5,-140.5"/>
</g>
<!-- c0226f0b8_c299_4c92_a07a_02c89436591a -->
<g id="node19" class="node"><title>c0226f0b8_c299_4c92_a07a_02c89436591a</title>
<polygon fill="none" stroke="black" points="4075.5,-162.5 4075.5,-183.5 4241.5,-183.5 4241.5,-162.5 4075.5,-162.5"/>
<text text-anchor="start" x="4083" y="-170.3" font-family="Times New Roman,serif" font-weight="bold" font-size="14.00">BluetoothPlaylistActivity</text>
<polygon fill="none" stroke="black" points="4075.5,-141.5 4075.5,-162.5 4241.5,-162.5 4241.5,-141.5 4075.5,-141.5"/>
<text text-anchor="start" x="4078.5" y="-149.3" font-family="Times New Roman,serif" font-weight="bold" font-size="14.00">PlaylistAdapter mAdapter</text>
<polygon fill="none" stroke="black" points="4074.5,-140.5 4074.5,-184.5 4242.5,-184.5 4242.5,-140.5 4074.5,-140.5"/>
</g>
<!-- c7d7c9c11_3eab_4a35_b92a_69f5555996ca -->
<g id="node20" class="node"><title>c7d7c9c11_3eab_4a35_b92a_69f5555996ca</title>
<polygon fill="none" stroke="black" points="4278.5,-204.5 4278.5,-225.5 4555.5,-225.5 4555.5,-204.5 4278.5,-204.5"/>
<text text-anchor="start" x="4346" y="-212.3" font-family="Times New Roman,serif" font-weight="bold" font-size="14.00">MediaPlaybackService</text>
<polygon fill="none" stroke="black" points="4278.5,-183.5 4278.5,-204.5 4555.5,-204.5 4555.5,-183.5 4278.5,-183.5"/>
<text text-anchor="start" x="4281.5" y="-191.3" font-family="Times New Roman,serif" font-weight="bold" font-size="14.00">CompatMediaPlayer mCurrentMediaPlayer</text>
<polygon fill="none" stroke="black" points="4278.5,-162.5 4278.5,-183.5 4555.5,-183.5 4555.5,-162.5 4278.5,-162.5"/>
<text text-anchor="start" x="4281.5" y="-170.3" font-family="Times New Roman,serif" font-weight="bold" font-size="14.00">MultiPlayer:mCurrentMediaPlayer mPlayer</text>
<polygon fill="none" stroke="black" points="4278.5,-141.5 4278.5,-162.5 4555.5,-162.5 4555.5,-141.5 4278.5,-141.5"/>
<text text-anchor="start" x="4371.5" y="-149.3" font-family="Times New Roman,serif" font-weight="bold" font-size="14.00">notifyChange()</text>
<polygon fill="none" stroke="black" points="4278.5,-120.5 4278.5,-141.5 4555.5,-141.5 4555.5,-120.5 4278.5,-120.5"/>
<text text-anchor="start" x="4365.5" y="-128.3" font-family="Times New Roman,serif" font-weight="bold" font-size="14.00">performUpdate()</text>
<polygon fill="none" stroke="black" points="4278.5,-99.5 4278.5,-120.5 4555.5,-120.5 4555.5,-99.5 4278.5,-99.5"/>
<text text-anchor="start" x="4376" y="-107.3" font-family="Times New Roman,serif" font-weight="bold" font-size="14.00">ServiceStub()</text>
<polygon fill="none" stroke="black" points="4277,-98.5 4277,-226.5 4556,-226.5 4556,-98.5 4277,-98.5"/>
</g>
<!-- cc62323a5_6cd5_44fd_9809_6809f148436a -->
<g id="node21" class="node"><title>cc62323a5_6cd5_44fd_9809_6809f148436a</title>
<polygon fill="none" stroke="black" points="4591.5,-162.5 4591.5,-183.5 4790.5,-183.5 4790.5,-162.5 4591.5,-162.5"/>
<text text-anchor="start" x="4594.5" y="-170.3" font-family="Times New Roman,serif" font-weight="bold" font-size="14.00">BluetoothArtistBrowserActivity</text>
<polygon fill="none" stroke="black" points="4591.5,-141.5 4591.5,-162.5 4790.5,-162.5 4790.5,-141.5 4591.5,-141.5"/>
<text text-anchor="start" x="4605" y="-149.3" font-family="Times New Roman,serif" font-weight="bold" font-size="14.00">ArtistListAdapter mAdapter</text>
<polygon fill="none" stroke="black" points="4590,-140.5 4590,-184.5 4791,-184.5 4791,-140.5 4590,-140.5"/>
</g>
<!-- c7591b686_ab08_493f_a340_0acd3f8640a1 -->
<g id="node22" class="node"><title>c7591b686_ab08_493f_a340_0acd3f8640a1</title>
<polygon fill="none" stroke="black" points="4826.5,-162.5 4826.5,-183.5 5029.5,-183.5 5029.5,-162.5 4826.5,-162.5"/>
<text text-anchor="start" x="4829.5" y="-170.3" font-family="Times New Roman,serif" font-weight="bold" font-size="14.00">BluetoothTrackBrowserActivity</text>
<polygon fill="none" stroke="black" points="4826.5,-141.5 4826.5,-162.5 5029.5,-162.5 5029.5,-141.5 4826.5,-141.5"/>
<text text-anchor="start" x="4850.5" y="-149.3" font-family="Times New Roman,serif" font-weight="bold" font-size="14.00">SongListAdapter adapter</text>
<polygon fill="none" stroke="black" points="4825,-140.5 4825,-184.5 5030,-184.5 5030,-140.5 4825,-140.5"/>
</g>
<!-- c7243c19b_625c_4b78_94a4_5611ba6c3729 -->
<g id="node23" class="node"><title>c7243c19b_625c_4b78_94a4_5611ba6c3729</title>
<polygon fill="none" stroke="black" points="5065.5,-151.5 5065.5,-172.5 5210.5,-172.5 5210.5,-151.5 5065.5,-151.5"/>
<text text-anchor="start" x="5068.5" y="-159.3" font-family="Times New Roman,serif" font-weight="bold" font-size="14.00">MusicAlphabetIndexer</text>
<polygon fill="none" stroke="black" points="5064,-151 5064,-174 5211,-174 5211,-151 5064,-151"/>
</g>
<!-- c0079bb6f_091b_41f4_a8f0_a88cbe776875 -->
<g id="node24" class="node"><title>c0079bb6f_091b_41f4_a8f0_a88cbe776875</title>
<polygon fill="none" stroke="black" points="5246.5,-162.5 5246.5,-183.5 5479.5,-183.5 5479.5,-162.5 5246.5,-162.5"/>
<text text-anchor="start" x="5291.5" y="-170.3" font-family="Times New Roman,serif" font-weight="bold" font-size="14.00">MediaPlaybackActivity</text>
<polygon fill="none" stroke="black" points="5246.5,-141.5 5246.5,-162.5 5479.5,-162.5 5479.5,-141.5 5246.5,-141.5"/>
<text text-anchor="start" x="5249.5" y="-149.3" font-family="Times New Roman,serif" font-weight="bold" font-size="14.00">RepeatingImageButton mPrevButton</text>
<polygon fill="none" stroke="black" points="5245,-140.5 5245,-184.5 5480,-184.5 5480,-140.5 5245,-140.5"/>
</g>
<!-- caeb49b19_851e_4405_a18d_ee4e1193a235 -->
<g id="node25" class="node"><title>caeb49b19_851e_4405_a18d_ee4e1193a235</title>
<polygon fill="none" stroke="black" points="5515.5,-151.5 5515.5,-172.5 5571.5,-172.5 5571.5,-151.5 5515.5,-151.5"/>
<text text-anchor="start" x="5518.5" y="-159.3" font-family="Times New Roman,serif" font-weight="bold" font-size="14.00">AppInfo</text>
<polygon fill="none" stroke="black" points="5514.5,-151 5514.5,-174 5572.5,-174 5572.5,-151 5514.5,-151"/>
</g>
</g>
</svg>
