<?xml version="1.0" encoding="UTF-8" standalone="no"?>
<!DOCTYPE svg PUBLIC "-//W3C//DTD SVG 1.1//EN"
 "http://www.w3.org/Graphics/SVG/1.1/DTD/svg11.dtd">
<!-- Generated by graphviz version 2.38.0 (20140413.2041)
 -->
<!-- Title: g Pages: 1 -->
<svg width="2947pt" height="1040pt"
 viewBox="0.00 0.00 2946.74 1040.00" xmlns="http://www.w3.org/2000/svg" xmlns:xlink="http://www.w3.org/1999/xlink">
<g id="graph0" class="graph" transform="scale(1 1) rotate(0) translate(4 1036)">
<title>g</title>
<polygon fill="white" stroke="none" points="-4,4 -4,-1036 2942.74,-1036 2942.74,4 -4,4"/>
<g id="clust1" class="cluster"><title>cluster0</title>
<polygon fill="none" stroke="black" stroke-width="2" points="101.743,-64 101.743,-568 601.743,-568 601.743,-64 101.743,-64"/>
<text text-anchor="start" x="329.743" y="-553.8" font-family="Times New Roman,serif" font-weight="bold" font-size="14.00">System</text>
</g>
<g id="clust2" class="cluster"><title>cluster1</title>
<polygon fill="none" stroke="black" stroke-width="2" points="68.7429,-748.5 68.7429,-851.5 644.743,-851.5 644.743,-748.5 68.7429,-748.5"/>
<text text-anchor="start" x="342.243" y="-837.3" font-family="Times New Roman,serif" font-weight="bold" font-size="14.00">User</text>
</g>
<g id="clust3" class="cluster"><title>cluster1000</title>
<polygon fill="none" stroke="black" stroke-width="2" points="652.743,-576 652.743,-1024 2930.74,-1024 2930.74,-576 652.743,-576"/>
<text text-anchor="start" x="1746.24" y="-1009.8" font-family="Times New Roman,serif" font-weight="bold" font-size="14.00">Domain Model</text>
</g>
<!-- EAID_3DA15542_977C_44cb_961D_D7FED9D38545___EAID_CD9482C8_A5A6_4c58_B2E0_1234FF5453C4 -->
<g id="node1" class="node"><title>EAID_3DA15542_977C_44cb_961D_D7FED9D38545___EAID_CD9482C8_A5A6_4c58_B2E0_1234FF5453C4</title>
<image xlink:href="img/activity_icon.png" width="30px" height="20px" preserveAspectRatio="xMinYMin meet" x="357.743" y="-524"/>
<text text-anchor="start" x="289.743" y="-489.8" font-family="Times New Roman,serif" font-weight="bold" font-size="14.00">User:check requests button</text>
</g>
<!-- EAID_CD9482C8_A5A6_4c58_B2E0_1234FF5453C4___EAID_C0CDBD81_B3FE_4342_9BCE_1D693B7538C7 -->
<g id="node6" class="node"><title>EAID_CD9482C8_A5A6_4c58_B2E0_1234FF5453C4___EAID_C0CDBD81_B3FE_4342_9BCE_1D693B7538C7</title>
<image xlink:href="img/activity_icon.png" width="30px" height="20px" preserveAspectRatio="xMinYMin meet" x="272.743" y="-431"/>
<text text-anchor="start" x="205.743" y="-396.8" font-family="Times New Roman,serif" font-weight="bold" font-size="14.00">check requests button:load</text>
<text text-anchor="start" x="261.743" y="-382.8" font-family="Times New Roman,serif" font-weight="bold" font-size="14.00">requests</text>
</g>
<!-- EAID_3DA15542_977C_44cb_961D_D7FED9D38545___EAID_CD9482C8_A5A6_4c58_B2E0_1234FF5453C4&#45;&gt;EAID_CD9482C8_A5A6_4c58_B2E0_1234FF5453C4___EAID_C0CDBD81_B3FE_4342_9BCE_1D693B7538C7 -->
<g id="edge1" class="edge"><title>EAID_3DA15542_977C_44cb_961D_D7FED9D38545___EAID_CD9482C8_A5A6_4c58_B2E0_1234FF5453C4&#45;&gt;EAID_CD9482C8_A5A6_4c58_B2E0_1234FF5453C4___EAID_C0CDBD81_B3FE_4342_9BCE_1D693B7538C7</title>
<path fill="none" stroke="black" d="M351.294,-479.27C342.263,-468.858 331.536,-456.49 321.49,-444.909"/>
<polygon fill="black" stroke="black" points="323.87,-442.311 314.674,-437.05 318.582,-446.898 323.87,-442.311"/>
</g>
<!-- EAID_CD9482C8_A5A6_4c58_B2E0_1234FF5453C4 -->
<g id="node19" class="node"><title>EAID_CD9482C8_A5A6_4c58_B2E0_1234FF5453C4</title>
<text text-anchor="middle" x="234.743" y="-14.3" font-family="Times New Roman,serif" font-size="14.00">EAID_CD9482C8_A5A6_4c58_B2E0_1234FF5453C4</text>
</g>
<!-- EAID_3DA15542_977C_44cb_961D_D7FED9D38545___EAID_CD9482C8_A5A6_4c58_B2E0_1234FF5453C4&#45;&gt;EAID_CD9482C8_A5A6_4c58_B2E0_1234FF5453C4 -->
<g id="edge11" class="edge"><title>EAID_3DA15542_977C_44cb_961D_D7FED9D38545___EAID_CD9482C8_A5A6_4c58_B2E0_1234FF5453C4&#45;&gt;EAID_CD9482C8_A5A6_4c58_B2E0_1234FF5453C4</title>
<path fill="none" stroke="black" stroke-dasharray="5,2" d="M295.903,-479.496C253.644,-465.4 205.98,-448.299 186.743,-437 114.081,-394.324 43.7429,-396.768 43.7429,-312.5 43.7429,-312.5 43.7429,-312.5 43.7429,-217 43.7429,-147.243 30.8165,-114.686 78.7429,-64 88.0932,-54.1113 99.4654,-46.352 111.764,-40.2706"/>
<polygon fill="black" stroke="black" points="113.213,-43.4569 120.868,-36.1325 110.316,-37.0844 113.213,-43.4569"/>
</g>
<!-- EAID_3DA15542_977C_44cb_961D_D7FED9D38545___EAID_5B0DE9CD_E226_433d_81A6_EA6848CF551D -->
<g id="node2" class="node"><title>EAID_3DA15542_977C_44cb_961D_D7FED9D38545___EAID_5B0DE9CD_E226_433d_81A6_EA6848CF551D</title>
<image xlink:href="img/activity_icon.png" width="30px" height="20px" preserveAspectRatio="xMinYMin meet" x="518.743" y="-330.5"/>
<text text-anchor="start" x="483.743" y="-296.3" font-family="Times New Roman,serif" font-weight="bold" font-size="14.00">User:request list</text>
</g>
<!-- EAID_5B0DE9CD_E226_433d_81A6_EA6848CF551D___EAID_3E321074_E8B1_4a18_B700_EB2F7C8C533F -->
<g id="node8" class="node"><title>EAID_5B0DE9CD_E226_433d_81A6_EA6848CF551D___EAID_3E321074_E8B1_4a18_B700_EB2F7C8C533F</title>
<image xlink:href="img/activity_icon.png" width="30px" height="20px" preserveAspectRatio="xMinYMin meet" x="387.743" y="-244"/>
<text text-anchor="start" x="326.743" y="-209.8" font-family="Times New Roman,serif" font-weight="bold" font-size="14.00">request list:update status</text>
<text text-anchor="start" x="369.243" y="-195.8" font-family="Times New Roman,serif" font-weight="bold" font-size="14.00">of requests</text>
</g>
<!-- EAID_3DA15542_977C_44cb_961D_D7FED9D38545___EAID_5B0DE9CD_E226_433d_81A6_EA6848CF551D&#45;&gt;EAID_5B0DE9CD_E226_433d_81A6_EA6848CF551D___EAID_3E321074_E8B1_4a18_B700_EB2F7C8C533F -->
<g id="edge3" class="edge"><title>EAID_3DA15542_977C_44cb_961D_D7FED9D38545___EAID_5B0DE9CD_E226_433d_81A6_EA6848CF551D&#45;&gt;EAID_5B0DE9CD_E226_433d_81A6_EA6848CF551D___EAID_3E321074_E8B1_4a18_B700_EB2F7C8C533F</title>
<path fill="none" stroke="black" d="M498.637,-285.98C485.46,-276.775 470.173,-266.098 455.729,-256.01"/>
<polygon fill="black" stroke="black" points="457.547,-253.01 447.345,-250.153 453.539,-258.749 457.547,-253.01"/>
</g>
<!-- EAID_3DA15542_977C_44cb_961D_D7FED9D38545___EAID_5B0DE9CD_E226_433d_81A6_EA6848CF551D&#45;&gt;EAID_CD9482C8_A5A6_4c58_B2E0_1234FF5453C4 -->
<g id="edge12" class="edge"><title>EAID_3DA15542_977C_44cb_961D_D7FED9D38545___EAID_5B0DE9CD_E226_433d_81A6_EA6848CF551D&#45;&gt;EAID_CD9482C8_A5A6_4c58_B2E0_1234FF5453C4</title>
<path fill="none" stroke="black" stroke-dasharray="5,2" d="M541.044,-285.712C553.868,-236.481 574.067,-125.814 517.743,-64 501.56,-46.2395 457.297,-35.4751 408.45,-28.9559"/>
<polygon fill="black" stroke="black" points="408.657,-25.4543 398.296,-27.668 407.776,-32.3986 408.657,-25.4543"/>
</g>
<!-- EAID_3DA15542_977C_44cb_961D_D7FED9D38545___EAID_2ACE3859_D7C3_4b50_8181_2FA87F763F01 -->
<g id="node3" class="node"><title>EAID_3DA15542_977C_44cb_961D_D7FED9D38545___EAID_2ACE3859_D7C3_4b50_8181_2FA87F763F01</title>
<image xlink:href="img/activity_icon.png" width="30px" height="20px" preserveAspectRatio="xMinYMin meet" x="171.243" y="-531"/>
<text text-anchor="start" x="120.743" y="-496.8" font-family="Times New Roman,serif" font-weight="bold" font-size="14.00">User:request status is</text>
<text text-anchor="start" x="121.743" y="-482.8" font-family="Times New Roman,serif" font-weight="bold" font-size="14.00">successfully updated.</text>
</g>
<!-- EAID_3DA15542_977C_44cb_961D_D7FED9D38545___EAID_2ACE3859_D7C3_4b50_8181_2FA87F763F01&#45;&gt;EAID_CD9482C8_A5A6_4c58_B2E0_1234FF5453C4 -->
<g id="edge13" class="edge"><title>EAID_3DA15542_977C_44cb_961D_D7FED9D38545___EAID_2ACE3859_D7C3_4b50_8181_2FA87F763F01&#45;&gt;EAID_CD9482C8_A5A6_4c58_B2E0_1234FF5453C4</title>
<path fill="none" stroke="black" stroke-dasharray="5,2" d="M110.029,-487.714C80.8746,-477.742 49.7971,-461.912 29.7429,-437 -5.59371,-393.104 5.74285,-368.852 5.74285,-312.5 5.74285,-312.5 5.74285,-312.5 5.74285,-217 5.74285,-148.168 -17.4343,-114.121 29.7429,-64 39.896,-53.2133 64.2795,-44.7391 92.8296,-38.1966"/>
<polygon fill="black" stroke="black" points="93.6335,-41.6036 102.657,-36.0513 92.1406,-34.7646 93.6335,-41.6036"/>
</g>
<!-- EAID_3E321074_E8B1_4a18_B700_EB2F7C8C533F___EAID_2F39210B_12CF_4a3b_A218_902BDC2068FB -->
<g id="node4" class="node"><title>EAID_3E321074_E8B1_4a18_B700_EB2F7C8C533F___EAID_2F39210B_12CF_4a3b_A218_902BDC2068FB</title>
<image xlink:href="img/activity_icon.png" width="30px" height="20px" preserveAspectRatio="xMinYMin meet" x="388.243" y="-137"/>
<text text-anchor="start" x="354.743" y="-102.8" font-family="Times New Roman,serif" font-weight="bold" font-size="14.00">update status of</text>
<text text-anchor="start" x="350.743" y="-88.8" font-family="Times New Roman,serif" font-weight="bold" font-size="14.00">requests:Request</text>
</g>
<!-- EAID_3E321074_E8B1_4a18_B700_EB2F7C8C533F___EAID_2F39210B_12CF_4a3b_A218_902BDC2068FB&#45;&gt;EAID_CD9482C8_A5A6_4c58_B2E0_1234FF5453C4 -->
<g id="edge14" class="edge"><title>EAID_3E321074_E8B1_4a18_B700_EB2F7C8C533F___EAID_2F39210B_12CF_4a3b_A218_902BDC2068FB&#45;&gt;EAID_CD9482C8_A5A6_4c58_B2E0_1234FF5453C4</title>
<path fill="none" stroke="black" stroke-dasharray="5,2" d="M356.025,-78.9161C347.716,-73.7449 339.058,-68.5799 330.743,-64 315.655,-55.6902 298.77,-47.4426 283.418,-40.3222"/>
<polygon fill="black" stroke="black" points="284.636,-37.0302 274.087,-36.0439 281.718,-43.3933 284.636,-37.0302"/>
</g>
<!-- EAID_C0CDBD81_B3FE_4342_9BCE_1D693B7538C7___EAID_2F39210B_12CF_4a3b_A218_902BDC2068FB -->
<g id="node5" class="node"><title>EAID_C0CDBD81_B3FE_4342_9BCE_1D693B7538C7___EAID_2F39210B_12CF_4a3b_A218_902BDC2068FB</title>
<image xlink:href="img/activity_icon.png" width="30px" height="20px" preserveAspectRatio="xMinYMin meet" x="363.243" y="-330.5"/>
<text text-anchor="start" x="310.743" y="-296.3" font-family="Times New Roman,serif" font-weight="bold" font-size="14.00">load requests:Request</text>
</g>
<!-- EAID_C0CDBD81_B3FE_4342_9BCE_1D693B7538C7___EAID_2F39210B_12CF_4a3b_A218_902BDC2068FB&#45;&gt;EAID_CD9482C8_A5A6_4c58_B2E0_1234FF5453C4 -->
<g id="edge15" class="edge"><title>EAID_C0CDBD81_B3FE_4342_9BCE_1D693B7538C7___EAID_2F39210B_12CF_4a3b_A218_902BDC2068FB&#45;&gt;EAID_CD9482C8_A5A6_4c58_B2E0_1234FF5453C4</title>
<path fill="none" stroke="black" stroke-dasharray="5,2" d="M455.414,-286.898C472.182,-278.058 487.834,-266.092 497.743,-250 512.516,-226.007 520.775,-93.2279 495.743,-64 482.687,-48.7556 448.182,-38.6753 408.376,-32.0097"/>
<polygon fill="black" stroke="black" points="408.856,-28.5421 398.431,-30.4296 407.758,-35.4554 408.856,-28.5421"/>
</g>
<!-- EAID_CD9482C8_A5A6_4c58_B2E0_1234FF5453C4___EAID_C0CDBD81_B3FE_4342_9BCE_1D693B7538C7&#45;&gt;EAID_C0CDBD81_B3FE_4342_9BCE_1D693B7538C7___EAID_2F39210B_12CF_4a3b_A218_902BDC2068FB -->
<g id="edge6" class="edge"><title>EAID_CD9482C8_A5A6_4c58_B2E0_1234FF5453C4___EAID_C0CDBD81_B3FE_4342_9BCE_1D693B7538C7&#45;&gt;EAID_C0CDBD81_B3FE_4342_9BCE_1D693B7538C7___EAID_2F39210B_12CF_4a3b_A218_902BDC2068FB</title>
<path fill="none" stroke="black" d="M318.464,-372.767C327.465,-363.616 337.315,-353.601 346.357,-344.409"/>
<polygon fill="black" stroke="black" points="348.885,-346.83 353.402,-337.246 343.895,-341.921 348.885,-346.83"/>
</g>
<!-- EAID_C0CDBD81_B3FE_4342_9BCE_1D693B7538C7___EAID_5B0DE9CD_E226_433d_81A6_EA6848CF551D -->
<g id="node7" class="node"><title>EAID_C0CDBD81_B3FE_4342_9BCE_1D693B7538C7___EAID_5B0DE9CD_E226_433d_81A6_EA6848CF551D</title>
<image xlink:href="img/activity_icon.png" width="30px" height="20px" preserveAspectRatio="xMinYMin meet" x="180.743" y="-330.5"/>
<text text-anchor="start" x="119.743" y="-296.3" font-family="Times New Roman,serif" font-weight="bold" font-size="14.00">load requests:request list</text>
</g>
<!-- EAID_CD9482C8_A5A6_4c58_B2E0_1234FF5453C4___EAID_C0CDBD81_B3FE_4342_9BCE_1D693B7538C7&#45;&gt;EAID_C0CDBD81_B3FE_4342_9BCE_1D693B7538C7___EAID_5B0DE9CD_E226_433d_81A6_EA6848CF551D -->
<g id="edge7" class="edge"><title>EAID_CD9482C8_A5A6_4c58_B2E0_1234FF5453C4___EAID_C0CDBD81_B3FE_4342_9BCE_1D693B7538C7&#45;&gt;EAID_C0CDBD81_B3FE_4342_9BCE_1D693B7538C7___EAID_5B0DE9CD_E226_433d_81A6_EA6848CF551D</title>
<path fill="none" stroke="black" d="M256.339,-372.767C247.138,-363.616 237.069,-353.601 227.827,-344.409"/>
<polygon fill="black" stroke="black" points="230.183,-341.816 220.624,-337.246 225.246,-346.78 230.183,-341.816"/>
</g>
<!-- EAID_CD9482C8_A5A6_4c58_B2E0_1234FF5453C4___EAID_C0CDBD81_B3FE_4342_9BCE_1D693B7538C7&#45;&gt;EAID_CD9482C8_A5A6_4c58_B2E0_1234FF5453C4 -->
<g id="edge16" class="edge"><title>EAID_CD9482C8_A5A6_4c58_B2E0_1234FF5453C4___EAID_C0CDBD81_B3FE_4342_9BCE_1D693B7538C7&#45;&gt;EAID_CD9482C8_A5A6_4c58_B2E0_1234FF5453C4</title>
<path fill="none" stroke="black" stroke-dasharray="5,2" d="M195.47,-393.625C159.835,-384.6 122.48,-367.879 100.743,-337 82.3821,-310.918 49.7841,-155.271 117.743,-64 124.952,-54.3175 134.53,-46.7183 145.112,-40.754"/>
<polygon fill="black" stroke="black" points="146.887,-43.778 154.207,-36.1188 143.708,-37.5413 146.887,-43.778"/>
</g>
<!-- EAID_C0CDBD81_B3FE_4342_9BCE_1D693B7538C7___EAID_5B0DE9CD_E226_433d_81A6_EA6848CF551D&#45;&gt;EAID_5B0DE9CD_E226_433d_81A6_EA6848CF551D___EAID_3E321074_E8B1_4a18_B700_EB2F7C8C533F -->
<g id="edge8" class="edge"><title>EAID_C0CDBD81_B3FE_4342_9BCE_1D693B7538C7___EAID_5B0DE9CD_E226_433d_81A6_EA6848CF551D&#45;&gt;EAID_5B0DE9CD_E226_433d_81A6_EA6848CF551D___EAID_3E321074_E8B1_4a18_B700_EB2F7C8C533F</title>
<path fill="none" stroke="black" d="M251.215,-285.98C273.206,-276.259 298.913,-264.896 322.842,-254.318"/>
<polygon fill="black" stroke="black" points="324.534,-257.398 332.265,-250.153 321.704,-250.995 324.534,-257.398"/>
</g>
<!-- EAID_C0CDBD81_B3FE_4342_9BCE_1D693B7538C7___EAID_5B0DE9CD_E226_433d_81A6_EA6848CF551D&#45;&gt;EAID_CD9482C8_A5A6_4c58_B2E0_1234FF5453C4 -->
<g id="edge17" class="edge"><title>EAID_C0CDBD81_B3FE_4342_9BCE_1D693B7538C7___EAID_5B0DE9CD_E226_433d_81A6_EA6848CF551D&#45;&gt;EAID_CD9482C8_A5A6_4c58_B2E0_1234FF5453C4</title>
<path fill="none" stroke="black" stroke-dasharray="5,2" d="M178.589,-285.696C148.47,-238.78 93.3833,-135.358 138.743,-64 144.715,-54.6043 153.225,-47.1364 162.738,-41.2098"/>
<polygon fill="black" stroke="black" points="164.695,-44.1257 171.714,-36.1893 161.278,-38.0164 164.695,-44.1257"/>
</g>
<!-- EAID_5B0DE9CD_E226_433d_81A6_EA6848CF551D___EAID_3E321074_E8B1_4a18_B700_EB2F7C8C533F&#45;&gt;EAID_3E321074_E8B1_4a18_B700_EB2F7C8C533F___EAID_2F39210B_12CF_4a3b_A218_902BDC2068FB -->
<g id="edge9" class="edge"><title>EAID_5B0DE9CD_E226_433d_81A6_EA6848CF551D___EAID_3E321074_E8B1_4a18_B700_EB2F7C8C533F&#45;&gt;EAID_3E321074_E8B1_4a18_B700_EB2F7C8C533F___EAID_2F39210B_12CF_4a3b_A218_902BDC2068FB</title>
<path fill="none" stroke="black" d="M402.743,-185.781C402.743,-175.611 402.743,-164.158 402.743,-153.364"/>
<polygon fill="black" stroke="black" points="406.243,-153.28 402.743,-143.28 399.243,-153.28 406.243,-153.28"/>
</g>
<!-- EAID_3E321074_E8B1_4a18_B700_EB2F7C8C533F___EAID_2ACE3859_D7C3_4b50_8181_2FA87F763F01 -->
<g id="node9" class="node"><title>EAID_3E321074_E8B1_4a18_B700_EB2F7C8C533F___EAID_2ACE3859_D7C3_4b50_8181_2FA87F763F01</title>
<image xlink:href="img/activity_icon.png" width="30px" height="20px" preserveAspectRatio="xMinYMin meet" x="219.743" y="-144"/>
<text text-anchor="start" x="186.243" y="-109.8" font-family="Times New Roman,serif" font-weight="bold" font-size="14.00">update status of</text>
<text text-anchor="start" x="157.743" y="-95.8" font-family="Times New Roman,serif" font-weight="bold" font-size="14.00">requests:request status is</text>
<text text-anchor="start" x="170.243" y="-81.8" font-family="Times New Roman,serif" font-weight="bold" font-size="14.00">successfully updated.</text>
</g>
<!-- EAID_5B0DE9CD_E226_433d_81A6_EA6848CF551D___EAID_3E321074_E8B1_4a18_B700_EB2F7C8C533F&#45;&gt;EAID_3E321074_E8B1_4a18_B700_EB2F7C8C533F___EAID_2ACE3859_D7C3_4b50_8181_2FA87F763F01 -->
<g id="edge10" class="edge"><title>EAID_5B0DE9CD_E226_433d_81A6_EA6848CF551D___EAID_3E321074_E8B1_4a18_B700_EB2F7C8C533F&#45;&gt;EAID_3E321074_E8B1_4a18_B700_EB2F7C8C533F___EAID_2ACE3859_D7C3_4b50_8181_2FA87F763F01</title>
<path fill="none" stroke="black" d="M352.792,-185.781C337.694,-176.345 320.83,-165.805 304.68,-155.711"/>
<polygon fill="black" stroke="black" points="306.132,-152.491 295.797,-150.159 302.422,-158.427 306.132,-152.491"/>
</g>
<!-- EAID_5B0DE9CD_E226_433d_81A6_EA6848CF551D___EAID_3E321074_E8B1_4a18_B700_EB2F7C8C533F&#45;&gt;EAID_CD9482C8_A5A6_4c58_B2E0_1234FF5453C4 -->
<g id="edge18" class="edge"><title>EAID_5B0DE9CD_E226_433d_81A6_EA6848CF551D___EAID_3E321074_E8B1_4a18_B700_EB2F7C8C533F&#45;&gt;EAID_CD9482C8_A5A6_4c58_B2E0_1234FF5453C4</title>
<path fill="none" stroke="black" stroke-dasharray="5,2" d="M447.694,-185.762C458.597,-175.721 468.812,-163.62 474.743,-150 490.002,-114.956 499.153,-93.4123 474.743,-64 464.452,-51.6001 439.108,-42.5964 408.559,-36.0654"/>
<polygon fill="black" stroke="black" points="408.965,-32.5768 398.47,-34.0306 407.581,-39.4386 408.965,-32.5768"/>
</g>
<!-- EAID_3E321074_E8B1_4a18_B700_EB2F7C8C533F___EAID_2ACE3859_D7C3_4b50_8181_2FA87F763F01&#45;&gt;EAID_CD9482C8_A5A6_4c58_B2E0_1234FF5453C4 -->
<g id="edge19" class="edge"><title>EAID_3E321074_E8B1_4a18_B700_EB2F7C8C533F___EAID_2ACE3859_D7C3_4b50_8181_2FA87F763F01&#45;&gt;EAID_CD9482C8_A5A6_4c58_B2E0_1234FF5453C4</title>
<path fill="none" stroke="black" stroke-dasharray="5,2" d="M234.743,-71.9351C234.743,-63.2658 234.743,-54.2264 234.743,-46.122"/>
<polygon fill="black" stroke="black" points="238.243,-46.1164 234.743,-36.1164 231.243,-46.1164 238.243,-46.1164"/>
</g>
<!-- EAID_3DA15542_977C_44cb_961D_D7FED9D38545___EAID_CD9482C8_A5A6_4c58_B2E0_1234FF5453C4_STL -->
<g id="node10" class="node"><title>EAID_3DA15542_977C_44cb_961D_D7FED9D38545___EAID_CD9482C8_A5A6_4c58_B2E0_1234FF5453C4_STL</title>
<image xlink:href="img/stimulus_icon.png" width="30px" height="20px" preserveAspectRatio="xMinYMin meet" x="357.743" y="-807.5"/>
<text text-anchor="start" x="278.743" y="-773.3" font-family="Times New Roman,serif" font-weight="bold" font-size="14.00">stl#User:check requests button</text>
</g>
<!-- EAID_3DA15542_977C_44cb_961D_D7FED9D38545___EAID_CD9482C8_A5A6_4c58_B2E0_1234FF5453C4_STL&#45;&gt;EAID_3DA15542_977C_44cb_961D_D7FED9D38545___EAID_CD9482C8_A5A6_4c58_B2E0_1234FF5453C4 -->
<g id="edge2" class="edge"><title>EAID_3DA15542_977C_44cb_961D_D7FED9D38545___EAID_CD9482C8_A5A6_4c58_B2E0_1234FF5453C4_STL&#45;&gt;EAID_3DA15542_977C_44cb_961D_D7FED9D38545___EAID_CD9482C8_A5A6_4c58_B2E0_1234FF5453C4</title>
<path fill="none" stroke="black" d="M372.743,-762.519C372.743,-712.103 372.743,-598.103 372.743,-540.579"/>
<polygon fill="black" stroke="black" points="376.243,-540.523 372.743,-530.523 369.243,-540.523 376.243,-540.523"/>
</g>
<!-- EAID_3DA15542_977C_44cb_961D_D7FED9D38545___EAID_5B0DE9CD_E226_433d_81A6_EA6848CF551D_STL -->
<g id="node11" class="node"><title>EAID_3DA15542_977C_44cb_961D_D7FED9D38545___EAID_5B0DE9CD_E226_433d_81A6_EA6848CF551D_STL</title>
<image xlink:href="img/stimulus_icon.png" width="30px" height="20px" preserveAspectRatio="xMinYMin meet" x="551.243" y="-807.5"/>
<text text-anchor="start" x="505.743" y="-773.3" font-family="Times New Roman,serif" font-weight="bold" font-size="14.00">stl#User:request list</text>
</g>
<!-- EAID_3DA15542_977C_44cb_961D_D7FED9D38545___EAID_5B0DE9CD_E226_433d_81A6_EA6848CF551D_STL&#45;&gt;EAID_3DA15542_977C_44cb_961D_D7FED9D38545___EAID_5B0DE9CD_E226_433d_81A6_EA6848CF551D -->
<g id="edge4" class="edge"><title>EAID_3DA15542_977C_44cb_961D_D7FED9D38545___EAID_5B0DE9CD_E226_433d_81A6_EA6848CF551D_STL&#45;&gt;EAID_3DA15542_977C_44cb_961D_D7FED9D38545___EAID_5B0DE9CD_E226_433d_81A6_EA6848CF551D</title>
<path fill="none" stroke="black" d="M564.09,-762.962C558.796,-684.385 542.25,-438.779 536.087,-347.298"/>
<polygon fill="black" stroke="black" points="539.57,-346.918 535.405,-337.176 532.585,-347.389 539.57,-346.918"/>
</g>
<!-- EAID_3DA15542_977C_44cb_961D_D7FED9D38545___EAID_2ACE3859_D7C3_4b50_8181_2FA87F763F01_STL -->
<g id="node12" class="node"><title>EAID_3DA15542_977C_44cb_961D_D7FED9D38545___EAID_2ACE3859_D7C3_4b50_8181_2FA87F763F01_STL</title>
<image xlink:href="img/stimulus_icon.png" width="30px" height="20px" preserveAspectRatio="xMinYMin meet" x="149.243" y="-814.5"/>
<text text-anchor="start" x="87.7429" y="-780.3" font-family="Times New Roman,serif" font-weight="bold" font-size="14.00">stl#User:request status is</text>
<text text-anchor="start" x="99.7429" y="-766.3" font-family="Times New Roman,serif" font-weight="bold" font-size="14.00">successfully updated.</text>
</g>
<!-- EAID_3DA15542_977C_44cb_961D_D7FED9D38545___EAID_2ACE3859_D7C3_4b50_8181_2FA87F763F01_STL&#45;&gt;EAID_3DA15542_977C_44cb_961D_D7FED9D38545___EAID_2ACE3859_D7C3_4b50_8181_2FA87F763F01 -->
<g id="edge5" class="edge"><title>EAID_3DA15542_977C_44cb_961D_D7FED9D38545___EAID_2ACE3859_D7C3_4b50_8181_2FA87F763F01_STL&#45;&gt;EAID_3DA15542_977C_44cb_961D_D7FED9D38545___EAID_2ACE3859_D7C3_4b50_8181_2FA87F763F01</title>
<path fill="none" stroke="black" d="M166.181,-756.299C170.162,-705.359 178.059,-604.32 182.505,-547.428"/>
<polygon fill="black" stroke="black" points="186.004,-547.583 183.293,-537.341 179.025,-547.038 186.004,-547.583"/>
</g>
<!-- EAID_4F9F00FB_6302_4d9c_807D_89439E271ACA -->
<g id="node13" class="node"><title>EAID_4F9F00FB_6302_4d9c_807D_89439E271ACA</title>
<polygon fill="none" stroke="black" points="2505.74,-914.5 2505.74,-935.5 2913.74,-935.5 2913.74,-914.5 2505.74,-914.5"/>
<text text-anchor="start" x="2655.24" y="-922.3" font-family="Times New Roman,serif" font-weight="bold" font-size="14.00">Consumer Profile</text>
<polygon fill="none" stroke="black" points="2505.74,-893.5 2505.74,-914.5 2913.74,-914.5 2913.74,-893.5 2505.74,-893.5"/>
<text text-anchor="start" x="2654.74" y="-901.3" font-family="Times New Roman,serif" font-weight="bold" font-size="14.00">EAJava_char city</text>
<polygon fill="none" stroke="black" points="2505.74,-872.5 2505.74,-893.5 2913.74,-893.5 2913.74,-872.5 2505.74,-872.5"/>
<text text-anchor="start" x="2649.24" y="-880.3" font-family="Times New Roman,serif" font-weight="bold" font-size="14.00">EAJava_char email</text>
<polygon fill="none" stroke="black" points="2505.74,-851.5 2505.74,-872.5 2913.74,-872.5 2913.74,-851.5 2505.74,-851.5"/>
<text text-anchor="start" x="2647.74" y="-859.3" font-family="Times New Roman,serif" font-weight="bold" font-size="14.00">EAJava_char Name</text>
<polygon fill="none" stroke="black" points="2505.74,-830.5 2505.74,-851.5 2913.74,-851.5 2913.74,-830.5 2505.74,-830.5"/>
<text text-anchor="start" x="2636.24" y="-838.3" font-family="Times New Roman,serif" font-weight="bold" font-size="14.00">EAJava_char password</text>
<polygon fill="none" stroke="black" points="2505.74,-809.5 2505.74,-830.5 2913.74,-830.5 2913.74,-809.5 2505.74,-809.5"/>
<text text-anchor="start" x="2606.24" y="-817.3" font-family="Times New Roman,serif" font-weight="bold" font-size="14.00">EAJava_char specialityInterested</text>
<polygon fill="none" stroke="black" points="2505.74,-788.5 2505.74,-809.5 2913.74,-809.5 2913.74,-788.5 2505.74,-788.5"/>
<text text-anchor="start" x="2650.74" y="-796.3" font-family="Times New Roman,serif" font-weight="bold" font-size="14.00">EAJava_char state</text>
<polygon fill="none" stroke="black" points="2505.74,-767.5 2505.74,-788.5 2913.74,-788.5 2913.74,-767.5 2505.74,-767.5"/>
<text text-anchor="start" x="2634.74" y="-775.3" font-family="Times New Roman,serif" font-weight="bold" font-size="14.00">EAJava_char Username</text>
<polygon fill="none" stroke="black" points="2505.74,-746.5 2505.74,-767.5 2913.74,-767.5 2913.74,-746.5 2505.74,-746.5"/>
<text text-anchor="start" x="2648.74" y="-754.3" font-family="Times New Roman,serif" font-weight="bold" font-size="14.00">EAJava_int zipcode</text>
<polygon fill="none" stroke="black" points="2505.74,-725.5 2505.74,-746.5 2913.74,-746.5 2913.74,-725.5 2505.74,-725.5"/>
<text text-anchor="start" x="2508.74" y="-733.3" font-family="Times New Roman,serif" font-weight="bold" font-size="14.00">EAID_2D8A89EC_8E9E_4221_A322_670FAA646E76 undefined</text>
<polygon fill="none" stroke="black" points="2505.74,-704.5 2505.74,-725.5 2913.74,-725.5 2913.74,-704.5 2505.74,-704.5"/>
<text text-anchor="start" x="2652.74" y="-712.3" font-family="Times New Roman,serif" font-weight="bold" font-size="14.00">ConsumerProfile()</text>
<polygon fill="none" stroke="black" points="2505.74,-683.5 2505.74,-704.5 2913.74,-704.5 2913.74,-683.5 2505.74,-683.5"/>
<text text-anchor="start" x="2647.24" y="-691.3" font-family="Times New Roman,serif" font-weight="bold" font-size="14.00">saveudpatedprofile()</text>
<polygon fill="none" stroke="black" points="2505.74,-662.5 2505.74,-683.5 2913.74,-683.5 2913.74,-662.5 2505.74,-662.5"/>
<text text-anchor="start" x="2660.74" y="-670.3" font-family="Times New Roman,serif" font-weight="bold" font-size="14.00">Confirmdialog()</text>
<polygon fill="none" stroke="black" points="2505.74,-641.5 2505.74,-662.5 2913.74,-662.5 2913.74,-641.5 2505.74,-641.5"/>
<text text-anchor="start" x="2660.74" y="-649.3" font-family="Times New Roman,serif" font-weight="bold" font-size="14.00">EmailProtocol()</text>
<polygon fill="none" stroke="black" points="2504.74,-640.5 2504.74,-936.5 2914.74,-936.5 2914.74,-640.5 2504.74,-640.5"/>
</g>
<!-- EAID_2D8A89EC_8E9E_4221_A322_670FAA646E76 -->
<g id="node14" class="node"><title>EAID_2D8A89EC_8E9E_4221_A322_670FAA646E76</title>
<polygon fill="none" stroke="black" points="2063.74,-966.5 2063.74,-987.5 2469.74,-987.5 2469.74,-966.5 2063.74,-966.5"/>
<text text-anchor="start" x="2154.74" y="-974.3" font-family="Times New Roman,serif" font-weight="bold" font-size="14.00">Medical services pricing information</text>
<polygon fill="none" stroke="black" points="2063.74,-945.5 2063.74,-966.5 2469.74,-966.5 2469.74,-945.5 2063.74,-945.5"/>
<text text-anchor="start" x="2208.24" y="-953.3" font-family="Times New Roman,serif" font-weight="bold" font-size="14.00">EAJava_char code</text>
<polygon fill="none" stroke="black" points="2063.74,-924.5 2063.74,-945.5 2469.74,-945.5 2469.74,-924.5 2063.74,-924.5"/>
<text text-anchor="start" x="2188.74" y="-932.3" font-family="Times New Roman,serif" font-weight="bold" font-size="14.00">EAJava_char description</text>
<polygon fill="none" stroke="black" points="2063.74,-903.5 2063.74,-924.5 2469.74,-924.5 2469.74,-903.5 2063.74,-903.5"/>
<text text-anchor="start" x="2213.74" y="-911.3" font-family="Times New Roman,serif" font-weight="bold" font-size="14.00">EAJava_blob file</text>
<polygon fill="none" stroke="black" points="2063.74,-882.5 2063.74,-903.5 2469.74,-903.5 2469.74,-882.5 2063.74,-882.5"/>
<text text-anchor="start" x="2177.74" y="-890.3" font-family="Times New Roman,serif" font-weight="bold" font-size="14.00">EAJava_blob medicalInvoice</text>
<polygon fill="none" stroke="black" points="2063.74,-861.5 2063.74,-882.5 2469.74,-882.5 2469.74,-861.5 2063.74,-861.5"/>
<text text-anchor="start" x="2201.74" y="-869.3" font-family="Times New Roman,serif" font-weight="bold" font-size="14.00">EAJava_blob picture</text>
<polygon fill="none" stroke="black" points="2063.74,-840.5 2063.74,-861.5 2469.74,-861.5 2469.74,-840.5 2063.74,-840.5"/>
<text text-anchor="start" x="2213.24" y="-848.3" font-family="Times New Roman,serif" font-weight="bold" font-size="14.00">EAJava_int price</text>
<polygon fill="none" stroke="black" points="2063.74,-819.5 2063.74,-840.5 2469.74,-840.5 2469.74,-819.5 2063.74,-819.5"/>
<text text-anchor="start" x="2165.24" y="-827.3" font-family="Times New Roman,serif" font-weight="bold" font-size="14.00">EAJava_char ProviderUsername</text>
<polygon fill="none" stroke="black" points="2063.74,-798.5 2063.74,-819.5 2469.74,-819.5 2469.74,-798.5 2063.74,-798.5"/>
<text text-anchor="start" x="2194.24" y="-806.3" font-family="Times New Roman,serif" font-weight="bold" font-size="14.00">EAJava_char speciality</text>
<polygon fill="none" stroke="black" points="2063.74,-777.5 2063.74,-798.5 2469.74,-798.5 2469.74,-777.5 2063.74,-777.5"/>
<text text-anchor="start" x="2066.74" y="-785.3" font-family="Times New Roman,serif" font-weight="bold" font-size="14.00">EAID_58EF6445_FBA8_43b1_9DB2_02C672C5035B undefined</text>
<polygon fill="none" stroke="black" points="2063.74,-756.5 2063.74,-777.5 2469.74,-777.5 2469.74,-756.5 2063.74,-756.5"/>
<text text-anchor="start" x="2155.74" y="-764.3" font-family="Times New Roman,serif" font-weight="bold" font-size="14.00">Medicalservicespricinginformation()</text>
<polygon fill="none" stroke="black" points="2063.74,-735.5 2063.74,-756.5 2469.74,-756.5 2469.74,-735.5 2063.74,-735.5"/>
<text text-anchor="start" x="2170.24" y="-743.3" font-family="Times New Roman,serif" font-weight="bold" font-size="14.00">providerinformationinputpage()</text>
<polygon fill="none" stroke="black" points="2063.74,-714.5 2063.74,-735.5 2469.74,-735.5 2469.74,-714.5 2063.74,-714.5"/>
<text text-anchor="start" x="2168.74" y="-722.3" font-family="Times New Roman,serif" font-weight="bold" font-size="14.00">Errormessageforupdatefailure()</text>
<polygon fill="none" stroke="black" points="2063.74,-693.5 2063.74,-714.5 2469.74,-714.5 2469.74,-693.5 2063.74,-693.5"/>
<text text-anchor="start" x="2203.24" y="-701.3" font-family="Times New Roman,serif" font-weight="bold" font-size="14.00">verifyinputmessage()</text>
<polygon fill="none" stroke="black" points="2063.74,-672.5 2063.74,-693.5 2469.74,-693.5 2469.74,-672.5 2063.74,-672.5"/>
<text text-anchor="start" x="2173.24" y="-680.3" font-family="Times New Roman,serif" font-weight="bold" font-size="14.00">sendemailincludingcredential()</text>
<polygon fill="none" stroke="black" points="2063.74,-651.5 2063.74,-672.5 2469.74,-672.5 2469.74,-651.5 2063.74,-651.5"/>
<text text-anchor="start" x="2237.24" y="-659.3" font-family="Times New Roman,serif" font-weight="bold" font-size="14.00">userinfo()</text>
<polygon fill="none" stroke="black" points="2063.74,-630.5 2063.74,-651.5 2469.74,-651.5 2469.74,-630.5 2063.74,-630.5"/>
<text text-anchor="start" x="2140.24" y="-638.3" font-family="Times New Roman,serif" font-weight="bold" font-size="14.00">Sharepricethroughpicturecapturebutton()</text>
<polygon fill="none" stroke="black" points="2063.74,-609.5 2063.74,-630.5 2469.74,-630.5 2469.74,-609.5 2063.74,-609.5"/>
<text text-anchor="start" x="2245.74" y="-617.3" font-family="Times New Roman,serif" font-weight="bold" font-size="14.00">Price()</text>
<polygon fill="none" stroke="black" points="2063.74,-588.5 2063.74,-609.5 2469.74,-609.5 2469.74,-588.5 2063.74,-588.5"/>
<text text-anchor="start" x="2199.74" y="-596.3" font-family="Times New Roman,serif" font-weight="bold" font-size="14.00">pricedetailinputpage()</text>
<polygon fill="none" stroke="black" points="2062.74,-588 2062.74,-989 2470.74,-989 2470.74,-588 2062.74,-588"/>
</g>
<!-- EAID_D3112094_48FE_4973_99B8_CAA2B2ABCA4F -->
<g id="node15" class="node"><title>EAID_D3112094_48FE_4973_99B8_CAA2B2ABCA4F</title>
<polygon fill="none" stroke="black" points="1625.74,-840.5 1625.74,-861.5 2027.74,-861.5 2027.74,-840.5 1625.74,-840.5"/>
<text text-anchor="start" x="1761.24" y="-848.3" font-family="Times New Roman,serif" font-weight="bold" font-size="14.00">Network Information</text>
<polygon fill="none" stroke="black" points="1625.74,-819.5 1625.74,-840.5 2027.74,-840.5 2027.74,-819.5 1625.74,-819.5"/>
<text text-anchor="start" x="1722.24" y="-827.3" font-family="Times New Roman,serif" font-weight="bold" font-size="14.00">EAJava_char consumerUsername</text>
<polygon fill="none" stroke="black" points="1625.74,-798.5 1625.74,-819.5 2027.74,-819.5 2027.74,-798.5 1625.74,-798.5"/>
<text text-anchor="start" x="1734.74" y="-806.3" font-family="Times New Roman,serif" font-weight="bold" font-size="14.00">EAJava_int notifyByMailFlag</text>
<polygon fill="none" stroke="black" points="1625.74,-777.5 1625.74,-798.5 2027.74,-798.5 2027.74,-777.5 1625.74,-777.5"/>
<text text-anchor="start" x="1725.74" y="-785.3" font-family="Times New Roman,serif" font-weight="bold" font-size="14.00">EAJava_char providerUsername</text>
<polygon fill="none" stroke="black" points="1625.74,-756.5 1625.74,-777.5 2027.74,-777.5 2027.74,-756.5 1625.74,-756.5"/>
<text text-anchor="start" x="1628.74" y="-764.3" font-family="Times New Roman,serif" font-weight="bold" font-size="14.00">EAID_E3A9CD90_CE83_4fef_AB57_3192129D90C0 undefined</text>
<polygon fill="none" stroke="black" points="1625.74,-735.5 1625.74,-756.5 2027.74,-756.5 2027.74,-735.5 1625.74,-735.5"/>
<text text-anchor="start" x="1758.74" y="-743.3" font-family="Times New Roman,serif" font-weight="bold" font-size="14.00">NetworkInformation()</text>
<polygon fill="none" stroke="black" points="1625.74,-714.5 1625.74,-735.5 2027.74,-735.5 2027.74,-714.5 1625.74,-714.5"/>
<text text-anchor="start" x="1783.74" y="-722.3" font-family="Times New Roman,serif" font-weight="bold" font-size="14.00">Subscription()</text>
<polygon fill="none" stroke="black" points="1624.74,-714 1624.74,-863 2028.74,-863 2028.74,-714 1624.74,-714"/>
</g>
<!-- EAID_E3A9CD90_CE83_4fef_AB57_3192129D90C0 -->
<g id="node16" class="node"><title>EAID_E3A9CD90_CE83_4fef_AB57_3192129D90C0</title>
<polygon fill="none" stroke="black" points="1181.74,-935.5 1181.74,-956.5 1589.74,-956.5 1589.74,-935.5 1181.74,-935.5"/>
<text text-anchor="start" x="1336.24" y="-943.3" font-family="Times New Roman,serif" font-weight="bold" font-size="14.00">Provider Profile</text>
<polygon fill="none" stroke="black" points="1181.74,-914.5 1181.74,-935.5 1589.74,-935.5 1589.74,-914.5 1181.74,-914.5"/>
<text text-anchor="start" x="1330.74" y="-922.3" font-family="Times New Roman,serif" font-weight="bold" font-size="14.00">EAJava_char city</text>
<polygon fill="none" stroke="black" points="1181.74,-893.5 1181.74,-914.5 1589.74,-914.5 1589.74,-893.5 1181.74,-893.5"/>
<text text-anchor="start" x="1325.24" y="-901.3" font-family="Times New Roman,serif" font-weight="bold" font-size="14.00">EAJava_char email</text>
<polygon fill="none" stroke="black" points="1181.74,-872.5 1181.74,-893.5 1589.74,-893.5 1589.74,-872.5 1181.74,-872.5"/>
<text text-anchor="start" x="1315.74" y="-880.3" font-family="Times New Roman,serif" font-weight="bold" font-size="14.00">EAJava_char Lifestyle</text>
<polygon fill="none" stroke="black" points="1181.74,-851.5 1181.74,-872.5 1589.74,-872.5 1589.74,-851.5 1181.74,-851.5"/>
<text text-anchor="start" x="1323.74" y="-859.3" font-family="Times New Roman,serif" font-weight="bold" font-size="14.00">EAJava_char Name</text>
<polygon fill="none" stroke="black" points="1181.74,-830.5 1181.74,-851.5 1589.74,-851.5 1589.74,-830.5 1181.74,-830.5"/>
<text text-anchor="start" x="1311.74" y="-838.3" font-family="Times New Roman,serif" font-weight="bold" font-size="14.00">EAJava_char Password</text>
<polygon fill="none" stroke="black" points="1181.74,-809.5 1181.74,-830.5 1589.74,-830.5 1589.74,-809.5 1181.74,-809.5"/>
<text text-anchor="start" x="1313.24" y="-817.3" font-family="Times New Roman,serif" font-weight="bold" font-size="14.00">EAJava_char speciality</text>
<polygon fill="none" stroke="black" points="1181.74,-788.5 1181.74,-809.5 1589.74,-809.5 1589.74,-788.5 1181.74,-788.5"/>
<text text-anchor="start" x="1326.74" y="-796.3" font-family="Times New Roman,serif" font-weight="bold" font-size="14.00">EAJava_char state</text>
<polygon fill="none" stroke="black" points="1181.74,-767.5 1181.74,-788.5 1589.74,-788.5 1589.74,-767.5 1181.74,-767.5"/>
<text text-anchor="start" x="1310.74" y="-775.3" font-family="Times New Roman,serif" font-weight="bold" font-size="14.00">EAJava_char Username</text>
<polygon fill="none" stroke="black" points="1181.74,-746.5 1181.74,-767.5 1589.74,-767.5 1589.74,-746.5 1181.74,-746.5"/>
<text text-anchor="start" x="1324.74" y="-754.3" font-family="Times New Roman,serif" font-weight="bold" font-size="14.00">EAJava_int zipcode</text>
<polygon fill="none" stroke="black" points="1181.74,-725.5 1181.74,-746.5 1589.74,-746.5 1589.74,-725.5 1181.74,-725.5"/>
<text text-anchor="start" x="1184.74" y="-733.3" font-family="Times New Roman,serif" font-weight="bold" font-size="14.00">EAID_2D8A89EC_8E9E_4221_A322_670FAA646E76 undefined</text>
<polygon fill="none" stroke="black" points="1181.74,-704.5 1181.74,-725.5 1589.74,-725.5 1589.74,-704.5 1181.74,-704.5"/>
<text text-anchor="start" x="1333.74" y="-712.3" font-family="Times New Roman,serif" font-weight="bold" font-size="14.00">ProviderProfile()</text>
<polygon fill="none" stroke="black" points="1181.74,-683.5 1181.74,-704.5 1589.74,-704.5 1589.74,-683.5 1181.74,-683.5"/>
<text text-anchor="start" x="1323.24" y="-691.3" font-family="Times New Roman,serif" font-weight="bold" font-size="14.00">Addproviderbutton()</text>
<polygon fill="none" stroke="black" points="1181.74,-662.5 1181.74,-683.5 1589.74,-683.5 1589.74,-662.5 1181.74,-662.5"/>
<text text-anchor="start" x="1282.74" y="-670.3" font-family="Times New Roman,serif" font-weight="bold" font-size="14.00">Providercreatedsuccessmessage()</text>
<polygon fill="none" stroke="black" points="1181.74,-641.5 1181.74,-662.5 1589.74,-662.5 1589.74,-641.5 1181.74,-641.5"/>
<text text-anchor="start" x="1322.24" y="-649.3" font-family="Times New Roman,serif" font-weight="bold" font-size="14.00">Searchprovidepage()</text>
<polygon fill="none" stroke="black" points="1181.74,-620.5 1181.74,-641.5 1589.74,-641.5 1589.74,-620.5 1181.74,-620.5"/>
<text text-anchor="start" x="1277.24" y="-628.3" font-family="Times New Roman,serif" font-weight="bold" font-size="14.00">Displayallproviderbasedoncriteria()</text>
<polygon fill="none" stroke="black" points="1180.74,-619.5 1180.74,-957.5 1590.74,-957.5 1590.74,-619.5 1180.74,-619.5"/>
</g>
<!-- EAID_58EF6445_FBA8_43b1_9DB2_02C672C5035B -->
<g id="node17" class="node"><title>EAID_58EF6445_FBA8_43b1_9DB2_02C672C5035B</title>
<polygon fill="none" stroke="black" points="854.743,-872.5 854.743,-893.5 1145.74,-893.5 1145.74,-872.5 854.743,-872.5"/>
<text text-anchor="start" x="906.743" y="-880.3" font-family="Times New Roman,serif" font-weight="bold" font-size="14.00">Rating and review information</text>
<polygon fill="none" stroke="black" points="854.743,-851.5 854.743,-872.5 1145.74,-872.5 1145.74,-851.5 854.743,-851.5"/>
<text text-anchor="start" x="942.243" y="-859.3" font-family="Times New Roman,serif" font-weight="bold" font-size="14.00">EAJava_Date date</text>
<polygon fill="none" stroke="black" points="854.743,-830.5 854.743,-851.5 1145.74,-851.5 1145.74,-830.5 854.743,-830.5"/>
<text text-anchor="start" x="943.743" y="-838.3" font-family="Times New Roman,serif" font-weight="bold" font-size="14.00">EAJava_int rating</text>
<polygon fill="none" stroke="black" points="854.743,-809.5 854.743,-830.5 1145.74,-830.5 1145.74,-809.5 854.743,-809.5"/>
<text text-anchor="start" x="935.743" y="-817.3" font-family="Times New Roman,serif" font-weight="bold" font-size="14.00">EAJava_char review</text>
<polygon fill="none" stroke="black" points="854.743,-788.5 854.743,-809.5 1145.74,-809.5 1145.74,-788.5 854.743,-788.5"/>
<text text-anchor="start" x="907.743" y="-796.3" font-family="Times New Roman,serif" font-weight="bold" font-size="14.00">Ratingandreviewinformation()</text>
<polygon fill="none" stroke="black" points="854.743,-767.5 854.743,-788.5 1145.74,-788.5 1145.74,-767.5 854.743,-767.5"/>
<text text-anchor="start" x="974.743" y="-775.3" font-family="Times New Roman,serif" font-weight="bold" font-size="14.00">Rating()</text>
<polygon fill="none" stroke="black" points="854.743,-746.5 854.743,-767.5 1145.74,-767.5 1145.74,-746.5 854.743,-746.5"/>
<text text-anchor="start" x="900.743" y="-754.3" font-family="Times New Roman,serif" font-weight="bold" font-size="14.00">Updatesubscriptioninformation()</text>
<polygon fill="none" stroke="black" points="854.743,-725.5 854.743,-746.5 1145.74,-746.5 1145.74,-725.5 854.743,-725.5"/>
<text text-anchor="start" x="924.243" y="-733.3" font-family="Times New Roman,serif" font-weight="bold" font-size="14.00">Displayratinginputpage()</text>
<polygon fill="none" stroke="black" points="854.743,-704.5 854.743,-725.5 1145.74,-725.5 1145.74,-704.5 854.743,-704.5"/>
<text text-anchor="start" x="857.743" y="-712.3" font-family="Times New Roman,serif" font-weight="bold" font-size="14.00">updatetherecognizedinformationintodatabase()</text>
<polygon fill="none" stroke="black" points="854.743,-683.5 854.743,-704.5 1145.74,-704.5 1145.74,-683.5 854.743,-683.5"/>
<text text-anchor="start" x="900.743" y="-691.3" font-family="Times New Roman,serif" font-weight="bold" font-size="14.00">retrievematcheddoctorsfromdb()</text>
<polygon fill="none" stroke="black" points="853.243,-682.5 853.243,-894.5 1146.24,-894.5 1146.24,-682.5 853.243,-682.5"/>
</g>
<!-- EAID_7CDF4B18_D159_4400_8D59_C27718800C59 -->
<g id="node18" class="node"><title>EAID_7CDF4B18_D159_4400_8D59_C27718800C59</title>
<polygon fill="none" stroke="black" points="669.743,-809.5 669.743,-830.5 817.743,-830.5 817.743,-809.5 669.743,-809.5"/>
<text text-anchor="start" x="707.743" y="-817.3" font-family="Times New Roman,serif" font-weight="bold" font-size="14.00">FeatureList</text>
<polygon fill="none" stroke="black" points="669.743,-788.5 669.743,-809.5 817.743,-809.5 817.743,-788.5 669.743,-788.5"/>
<text text-anchor="start" x="703.243" y="-796.3" font-family="Times New Roman,serif" font-weight="bold" font-size="14.00">FeatureList()</text>
<polygon fill="none" stroke="black" points="669.743,-767.5 669.743,-788.5 817.743,-788.5 817.743,-767.5 669.743,-767.5"/>
<text text-anchor="start" x="672.743" y="-775.3" font-family="Times New Roman,serif" font-weight="bold" font-size="14.00">redirecttofeaturepage()</text>
<polygon fill="none" stroke="black" points="669.743,-746.5 669.743,-767.5 817.743,-767.5 817.743,-746.5 669.743,-746.5"/>
<text text-anchor="start" x="679.743" y="-754.3" font-family="Times New Roman,serif" font-weight="bold" font-size="14.00">updatefeaturedetail()</text>
<polygon fill="none" stroke="black" points="668.743,-745.5 668.743,-831.5 818.743,-831.5 818.743,-745.5 668.743,-745.5"/>
</g>
</g>
</svg>
