<?xml version="1.0" encoding="UTF-8" standalone="no"?>
<!DOCTYPE svg PUBLIC "-//W3C//DTD SVG 1.1//EN"
 "http://www.w3.org/Graphics/SVG/1.1/DTD/svg11.dtd">
<!-- Generated by graphviz version 2.38.0 (20140413.2041)
 -->
<!-- Title: g Pages: 1 -->
<svg width="455pt" height="548pt"
 viewBox="0.00 0.00 455.08 548.00" xmlns="http://www.w3.org/2000/svg" xmlns:xlink="http://www.w3.org/1999/xlink">
<g id="graph0" class="graph" transform="scale(1 1) rotate(0) translate(4 544)">
<title>g</title>
<polygon fill="white" stroke="none" points="-4,4 -4,-544 451.081,-544 451.081,4 -4,4"/>
<!-- Redirect to venue list -->
<g id="node1" class="node"><title>Redirect to venue list</title>
<ellipse fill="none" stroke="black" cx="87.0923" cy="-522" rx="87.1846" ry="18"/>
<text text-anchor="middle" x="87.0923" y="-518.3" font-family="Times New Roman,serif" font-size="14.00">Redirect to venue list</text>
</g>
<!-- venue list -->
<g id="node2" class="node"><title>venue list</title>
<ellipse fill="none" stroke="black" cx="158.092" cy="-450" rx="44.393" ry="18"/>
<text text-anchor="middle" x="158.092" y="-446.3" font-family="Times New Roman,serif" font-size="14.00">venue list</text>
</g>
<!-- Redirect to venue list&#45;&gt;venue list -->
<g id="edge1" class="edge"><title>Redirect to venue list&#45;&gt;venue list</title>
<path fill="none" stroke="black" d="M104.279,-504.055C113.437,-495.027 124.832,-483.792 134.776,-473.987"/>
<polygon fill="black" stroke="black" points="137.373,-476.343 142.037,-466.829 132.458,-471.358 137.373,-476.343"/>
</g>
<!-- display confirmation prompt -->
<g id="node3" class="node"><title>display confirmation prompt</title>
<ellipse fill="none" stroke="black" cx="158.092" cy="-378" rx="114.28" ry="18"/>
<text text-anchor="middle" x="158.092" y="-374.3" font-family="Times New Roman,serif" font-size="14.00">display confirmation prompt</text>
</g>
<!-- venue list&#45;&gt;display confirmation prompt -->
<g id="edge11" class="edge"><title>venue list&#45;&gt;display confirmation prompt</title>
<path fill="none" stroke="black" d="M158.092,-431.697C158.092,-423.983 158.092,-414.712 158.092,-406.112"/>
<polygon fill="black" stroke="black" points="161.592,-406.104 158.092,-396.104 154.592,-406.104 161.592,-406.104"/>
</g>
<!-- server error -->
<g id="node4" class="node"><title>server error</title>
<ellipse fill="none" stroke="black" cx="305.092" cy="-306" rx="52.7911" ry="18"/>
<text text-anchor="middle" x="305.092" y="-302.3" font-family="Times New Roman,serif" font-size="14.00">server error</text>
</g>
<!-- display confirmation prompt&#45;&gt;server error -->
<g id="edge2" class="edge"><title>display confirmation prompt&#45;&gt;server error</title>
<path fill="none" stroke="black" d="M192.187,-360.765C214.401,-350.186 243.433,-336.361 266.495,-325.38"/>
<polygon fill="black" stroke="black" points="268.13,-328.478 275.654,-321.018 265.12,-322.158 268.13,-328.478"/>
</g>
<!-- venue -->
<g id="node5" class="node"><title>venue</title>
<ellipse fill="none" stroke="black" cx="86.0923" cy="-18" rx="31.6951" ry="18"/>
<text text-anchor="middle" x="86.0923" y="-14.3" font-family="Times New Roman,serif" font-size="14.00">venue</text>
</g>
<!-- display confirmation prompt&#45;&gt;venue -->
<g id="edge3" class="edge"><title>display confirmation prompt&#45;&gt;venue</title>
<path fill="none" stroke="black" d="M107.37,-361.744C88.0155,-353.503 67.4228,-341.358 54.0923,-324 29.4567,-291.921 35.0923,-275.447 35.0923,-235 35.0923,-235 35.0923,-235 35.0923,-161 35.0923,-118.12 55.946,-72.0157 70.9836,-44.3444"/>
<polygon fill="black" stroke="black" points="74.1823,-45.7959 76.0163,-35.361 68.0753,-42.3746 74.1823,-45.7959"/>
</g>
<!-- confirmation prompt -->
<g id="node6" class="node"><title>confirmation prompt</title>
<ellipse fill="none" stroke="black" cx="149.092" cy="-306" rx="85.5853" ry="18"/>
<text text-anchor="middle" x="149.092" y="-302.3" font-family="Times New Roman,serif" font-size="14.00">confirmation prompt</text>
</g>
<!-- display confirmation prompt&#45;&gt;confirmation prompt -->
<g id="edge4" class="edge"><title>display confirmation prompt&#45;&gt;confirmation prompt</title>
<path fill="none" stroke="black" d="M155.868,-359.697C154.876,-351.983 153.684,-342.712 152.578,-334.112"/>
<polygon fill="black" stroke="black" points="156.038,-333.576 151.291,-324.104 149.095,-334.469 156.038,-333.576"/>
</g>
<!-- confirmation prompt&#45;&gt;Redirect to venue list -->
<g id="edge6" class="edge"><title>confirmation prompt&#45;&gt;Redirect to venue list</title>
<path fill="none" stroke="black" d="M92.1497,-319.517C70.4525,-327.357 47.8863,-339.943 35.0923,-360 7.54117,-403.192 41.6686,-462.262 66.2194,-495.527"/>
<polygon fill="black" stroke="black" points="63.676,-497.964 72.5209,-503.796 69.2438,-493.721 63.676,-497.964"/>
</g>
<!-- Redirect to vehicle request screen -->
<g id="node7" class="node"><title>Redirect to vehicle request screen</title>
<ellipse fill="none" stroke="black" cx="211.092" cy="-234" rx="133.477" ry="18"/>
<text text-anchor="middle" x="211.092" y="-230.3" font-family="Times New Roman,serif" font-size="14.00">Redirect to vehicle request screen</text>
</g>
<!-- confirmation prompt&#45;&gt;Redirect to vehicle request screen -->
<g id="edge7" class="edge"><title>confirmation prompt&#45;&gt;Redirect to vehicle request screen</title>
<path fill="none" stroke="black" d="M164.101,-288.055C171.604,-279.583 180.829,-269.168 189.113,-259.815"/>
<polygon fill="black" stroke="black" points="191.781,-262.082 195.791,-252.275 186.541,-257.441 191.781,-262.082"/>
</g>
<!-- Vehicle request screen -->
<g id="node8" class="node"><title>Vehicle request screen</title>
<ellipse fill="none" stroke="black" cx="232.092" cy="-162" rx="92.0841" ry="18"/>
<text text-anchor="middle" x="232.092" y="-158.3" font-family="Times New Roman,serif" font-size="14.00">Vehicle request screen</text>
</g>
<!-- Redirect to vehicle request screen&#45;&gt;Vehicle request screen -->
<g id="edge5" class="edge"><title>Redirect to vehicle request screen&#45;&gt;Vehicle request screen</title>
<path fill="none" stroke="black" d="M216.283,-215.697C218.623,-207.898 221.44,-198.509 224.044,-189.829"/>
<polygon fill="black" stroke="black" points="227.44,-190.688 226.961,-180.104 220.735,-188.677 227.44,-190.688"/>
</g>
<!-- pull advertisement for random venue -->
<g id="node9" class="node"><title>pull advertisement for random venue</title>
<ellipse fill="none" stroke="black" cx="232.092" cy="-90" rx="142.975" ry="18"/>
<text text-anchor="middle" x="232.092" y="-86.3" font-family="Times New Roman,serif" font-size="14.00">pull advertisement for random venue</text>
</g>
<!-- Vehicle request screen&#45;&gt;pull advertisement for random venue -->
<g id="edge8" class="edge"><title>Vehicle request screen&#45;&gt;pull advertisement for random venue</title>
<path fill="none" stroke="black" d="M232.092,-143.697C232.092,-135.983 232.092,-126.712 232.092,-118.112"/>
<polygon fill="black" stroke="black" points="235.592,-118.104 232.092,-108.104 228.592,-118.104 235.592,-118.104"/>
</g>
<!-- pull advertisement for random venue&#45;&gt;venue -->
<g id="edge10" class="edge"><title>pull advertisement for random venue&#45;&gt;venue</title>
<path fill="none" stroke="black" d="M197.492,-72.411C173.628,-60.9691 142.109,-45.8574 118.689,-34.6288"/>
<polygon fill="black" stroke="black" points="120.042,-31.3958 109.512,-30.2285 117.016,-37.7079 120.042,-31.3958"/>
</g>
<!-- Advertisement for random venue -->
<g id="node10" class="node"><title>Advertisement for random venue</title>
<ellipse fill="none" stroke="black" cx="317.092" cy="-18" rx="129.977" ry="18"/>
<text text-anchor="middle" x="317.092" y="-14.3" font-family="Times New Roman,serif" font-size="14.00">Advertisement for random venue</text>
</g>
<!-- pull advertisement for random venue&#45;&gt;Advertisement for random venue -->
<g id="edge9" class="edge"><title>pull advertisement for random venue&#45;&gt;Advertisement for random venue</title>
<path fill="none" stroke="black" d="M252.668,-72.055C263.527,-63.1128 277.014,-52.0054 288.838,-42.268"/>
<polygon fill="black" stroke="black" points="291.211,-44.8479 296.706,-35.789 286.761,-39.4443 291.211,-44.8479"/>
</g>
<!-- Valet -->
<g id="node11" class="node"><title>Valet</title>
<ellipse fill="none" stroke="black" cx="338.092" cy="-522" rx="29.4969" ry="18"/>
<text text-anchor="middle" x="338.092" y="-518.3" font-family="Times New Roman,serif" font-size="14.00">Valet</text>
</g>
<!-- Valet&#45;&gt;venue list -->
<g id="edge13" class="edge"><title>Valet&#45;&gt;venue list</title>
<path fill="none" stroke="black" d="M313.817,-511.559C284.257,-500.064 233.898,-480.48 198.467,-466.701"/>
<polygon fill="black" stroke="black" points="199.488,-463.343 188.9,-462.981 196.951,-469.867 199.488,-463.343"/>
</g>
<!-- Valet&#45;&gt;server error -->
<g id="edge12" class="edge"><title>Valet&#45;&gt;server error</title>
<path fill="none" stroke="black" d="M335.615,-503.59C331.383,-474.04 322.412,-412.188 314.092,-360 312.749,-351.575 311.218,-342.41 309.804,-334.107"/>
<polygon fill="black" stroke="black" points="313.24,-333.435 308.099,-324.171 306.341,-334.619 313.24,-333.435"/>
</g>
<!-- Valet&#45;&gt;confirmation prompt -->
<g id="edge14" class="edge"><title>Valet&#45;&gt;confirmation prompt</title>
<path fill="none" stroke="black" d="M333.026,-504.264C321.101,-465.266 291.484,-370.833 281.092,-360 264.114,-342.302 240.444,-330.359 217.828,-322.369"/>
<polygon fill="black" stroke="black" points="218.816,-319.01 208.223,-319.182 216.612,-325.653 218.816,-319.01"/>
</g>
<!-- Valet&#45;&gt;Vehicle request screen -->
<g id="edge16" class="edge"><title>Valet&#45;&gt;Vehicle request screen</title>
<path fill="none" stroke="black" d="M347.576,-504.562C361.564,-478.722 386.092,-426.622 386.092,-379 386.092,-379 386.092,-379 386.092,-305 386.092,-262.813 382.049,-246.68 353.092,-216 337.804,-199.802 316.701,-188.267 296.396,-180.187"/>
<polygon fill="black" stroke="black" points="297.427,-176.836 286.834,-176.603 294.97,-183.39 297.427,-176.836"/>
</g>
<!-- Valet&#45;&gt;Advertisement for random venue -->
<g id="edge15" class="edge"><title>Valet&#45;&gt;Advertisement for random venue</title>
<path fill="none" stroke="black" d="M354.268,-506.595C379.18,-482.733 424.092,-432.32 424.092,-379 424.092,-379 424.092,-379 424.092,-161 424.092,-117.633 410.748,-106.207 384.092,-72 375.23,-60.6266 363.436,-50.248 352.215,-41.7489"/>
<polygon fill="black" stroke="black" points="353.95,-38.6829 343.804,-35.6305 349.832,-44.3435 353.95,-38.6829"/>
</g>
</g>
</svg>
