<?xml version="1.0" encoding="UTF-8" standalone="no"?>
<!DOCTYPE svg PUBLIC "-//W3C//DTD SVG 1.1//EN"
 "http://www.w3.org/Graphics/SVG/1.1/DTD/svg11.dtd">
<!-- Generated by graphviz version 2.38.0 (20140413.2041)
 -->
<!-- Title: g Pages: 1 -->
<svg width="2926pt" height="510pt"
 viewBox="0.00 0.00 2926.00 510.00" xmlns="http://www.w3.org/2000/svg" xmlns:xlink="http://www.w3.org/1999/xlink">
<g id="graph0" class="graph" transform="scale(1 1) rotate(0) translate(4 506)">
<title>g</title>
<polygon fill="white" stroke="none" points="-4,4 -4,-506 2922,-506 2922,4 -4,4"/>
<g id="clust1" class="cluster"><title>cluster0</title>
<polygon fill="none" stroke="black" stroke-width="2" points="1602,-91 1602,-494 2380,-494 2380,-91 1602,-91"/>
<text text-anchor="start" x="1969" y="-479.8" font-family="Times New Roman,serif" font-weight="bold" font-size="14.00">System</text>
</g>
<g id="clust2" class="cluster"><title>cluster1000</title>
<polygon fill="none" stroke="black" stroke-width="2" points="8,-8 8,-83 2910,-83 2910,-8 8,-8"/>
<text text-anchor="start" x="1413.5" y="-68.8" font-family="Times New Roman,serif" font-weight="bold" font-size="14.00">Domain Model</text>
</g>
<!-- EAID_C45F45DA_3002_4a29_95B9_A9B8977858E3___EAID_0A980C9C_7C99_4aba_B8F9_CCC238B8EA58 -->
<g id="node1" class="node"><title>EAID_C45F45DA_3002_4a29_95B9_A9B8977858E3___EAID_0A980C9C_7C99_4aba_B8F9_CCC238B8EA58</title>
<image xlink:href="img/activity_icon.png" width="30px" height="20px" preserveAspectRatio="xMinYMin meet" x="2232.5" y="-350"/>
<text text-anchor="start" x="2133" y="-315.8" font-family="Times New Roman,serif" font-weight="bold" font-size="14.00">weapon available?:Weapon inventory</text>
</g>
<!-- EAID_07A7CEE6_8A8C_4a3b_90F0_46EA39FE9CD9 -->
<g id="node14" class="node"><title>EAID_07A7CEE6_8A8C_4a3b_90F0_46EA39FE9CD9</title>
<polygon fill="none" stroke="black" points="1831,-23 1831,-44 1926,-44 1926,-23 1831,-23"/>
<text text-anchor="start" x="1834" y="-30.8" font-family="Times New Roman,serif" font-weight="bold" font-size="14.00">Single weapon</text>
<polygon fill="none" stroke="black" points="1829.5,-22.5 1829.5,-45.5 1926.5,-45.5 1926.5,-22.5 1829.5,-22.5"/>
</g>
<!-- EAID_C45F45DA_3002_4a29_95B9_A9B8977858E3___EAID_0A980C9C_7C99_4aba_B8F9_CCC238B8EA58&#45;&gt;EAID_07A7CEE6_8A8C_4a3b_90F0_46EA39FE9CD9 -->
<g id="edge9" class="edge"><title>EAID_C45F45DA_3002_4a29_95B9_A9B8977858E3___EAID_0A980C9C_7C99_4aba_B8F9_CCC238B8EA58&#45;&gt;EAID_07A7CEE6_8A8C_4a3b_90F0_46EA39FE9CD9</title>
<path fill="none" stroke="black" stroke-dasharray="5,2" d="M2216.17,-305.356C2146.1,-249.334 1975.63,-113.052 1907.17,-58.3199"/>
<polygon fill="black" stroke="black" points="1909.34,-55.5711 1899.34,-52.0605 1904.97,-61.0387 1909.34,-55.5711"/>
</g>
<!-- EAID_961C1606_3C28_4491_AC50_64E63F419B28___EAID_C1B51128_100F_4445_9A46_4C916D6CACC0 -->
<g id="node2" class="node"><title>EAID_961C1606_3C28_4491_AC50_64E63F419B28___EAID_C1B51128_100F_4445_9A46_4C916D6CACC0</title>
<image xlink:href="img/activity_icon.png" width="30px" height="20px" preserveAspectRatio="xMinYMin meet" x="1731" y="-157"/>
<text text-anchor="start" x="1652" y="-122.8" font-family="Times New Roman,serif" font-weight="bold" font-size="14.00">Weapons Bar:display weapons</text>
<text text-anchor="start" x="1735" y="-108.8" font-family="Times New Roman,serif" font-weight="bold" font-size="14.00">bar</text>
</g>
<!-- EAID_C1B51128_100F_4445_9A46_4C916D6CACC0___EAID_C45F45DA_3002_4a29_95B9_A9B8977858E3 -->
<g id="node7" class="node"><title>EAID_C1B51128_100F_4445_9A46_4C916D6CACC0___EAID_C45F45DA_3002_4a29_95B9_A9B8977858E3</title>
<image xlink:href="img/activity_icon.png" width="30px" height="20px" preserveAspectRatio="xMinYMin meet" x="1977" y="-457"/>
<text text-anchor="start" x="1904" y="-422.8" font-family="Times New Roman,serif" font-weight="bold" font-size="14.00">display weapons bar:weapon</text>
<text text-anchor="start" x="1960.5" y="-408.8" font-family="Times New Roman,serif" font-weight="bold" font-size="14.00">available?</text>
</g>
<!-- EAID_961C1606_3C28_4491_AC50_64E63F419B28___EAID_C1B51128_100F_4445_9A46_4C916D6CACC0&#45;&gt;EAID_C1B51128_100F_4445_9A46_4C916D6CACC0___EAID_C45F45DA_3002_4a29_95B9_A9B8977858E3 -->
<g id="edge1" class="edge"><title>EAID_961C1606_3C28_4491_AC50_64E63F419B28___EAID_C1B51128_100F_4445_9A46_4C916D6CACC0&#45;&gt;EAID_C1B51128_100F_4445_9A46_4C916D6CACC0___EAID_C45F45DA_3002_4a29_95B9_A9B8977858E3</title>
<path fill="none" stroke="black" d="M1672.99,-163.177C1658.29,-172.645 1644.48,-184.488 1635,-199 1628.26,-209.32 1604.4,-341.921 1622,-363 1654.84,-402.318 1786.48,-418.609 1883.43,-425.329"/>
<polygon fill="black" stroke="black" points="1883.38,-428.834 1893.59,-426.008 1883.85,-421.849 1883.38,-428.834"/>
</g>
<!-- EAID_FEAB27D4_69ED_4c75_B770_C9D08EF1E7A5 -->
<g id="node11" class="node"><title>EAID_FEAB27D4_69ED_4c75_B770_C9D08EF1E7A5</title>
<polygon fill="none" stroke="black" points="2369,-23 2369,-44 2553,-44 2553,-23 2369,-23"/>
<text text-anchor="start" x="2372" y="-30.8" font-family="Times New Roman,serif" font-weight="bold" font-size="14.00">Display score at end of battle</text>
<polygon fill="none" stroke="black" points="2368,-22.5 2368,-45.5 2554,-45.5 2554,-22.5 2368,-22.5"/>
</g>
<!-- EAID_961C1606_3C28_4491_AC50_64E63F419B28___EAID_C1B51128_100F_4445_9A46_4C916D6CACC0&#45;&gt;EAID_FEAB27D4_69ED_4c75_B770_C9D08EF1E7A5 -->
<g id="edge10" class="edge"><title>EAID_961C1606_3C28_4491_AC50_64E63F419B28___EAID_C1B51128_100F_4445_9A46_4C916D6CACC0&#45;&gt;EAID_FEAB27D4_69ED_4c75_B770_C9D08EF1E7A5</title>
<path fill="none" stroke="black" stroke-dasharray="5,2" d="M1850.19,-118.989C1935.74,-110.286 2060.1,-98.4091 2169,-91 2209.39,-88.2519 2311.56,-92.1383 2351,-83 2375.29,-77.3714 2400.91,-66.5159 2421.31,-56.5503"/>
<polygon fill="black" stroke="black" points="2422.91,-59.6615 2430.29,-52.0562 2419.78,-53.4016 2422.91,-59.6615"/>
</g>
<!-- EAID_84133E17_C525_475d_B35B_C3284BE6AD58___EAID_961C1606_3C28_4491_AC50_64E63F419B28 -->
<g id="node3" class="node"><title>EAID_84133E17_C525_475d_B35B_C3284BE6AD58___EAID_961C1606_3C28_4491_AC50_64E63F419B28</title>
<image xlink:href="img/activity_icon.png" width="30px" height="20px" preserveAspectRatio="xMinYMin meet" x="1731" y="-257"/>
<text text-anchor="start" x="1654" y="-222.8" font-family="Times New Roman,serif" font-weight="bold" font-size="14.00">display weapon icon:Weapons</text>
<text text-anchor="start" x="1734" y="-208.8" font-family="Times New Roman,serif" font-weight="bold" font-size="14.00">Bar</text>
</g>
<!-- EAID_84133E17_C525_475d_B35B_C3284BE6AD58___EAID_961C1606_3C28_4491_AC50_64E63F419B28&#45;&gt;EAID_961C1606_3C28_4491_AC50_64E63F419B28___EAID_C1B51128_100F_4445_9A46_4C916D6CACC0 -->
<g id="edge2" class="edge"><title>EAID_84133E17_C525_475d_B35B_C3284BE6AD58___EAID_961C1606_3C28_4491_AC50_64E63F419B28&#45;&gt;EAID_961C1606_3C28_4491_AC50_64E63F419B28___EAID_C1B51128_100F_4445_9A46_4C916D6CACC0</title>
<path fill="none" stroke="black" d="M1746,-198.992C1746,-190.859 1746,-181.959 1746,-173.378"/>
<polygon fill="black" stroke="black" points="1749.5,-173.142 1746,-163.142 1742.5,-173.142 1749.5,-173.142"/>
</g>
<!-- EAID_84133E17_C525_475d_B35B_C3284BE6AD58___EAID_961C1606_3C28_4491_AC50_64E63F419B28&#45;&gt;EAID_07A7CEE6_8A8C_4a3b_90F0_46EA39FE9CD9 -->
<g id="edge11" class="edge"><title>EAID_84133E17_C525_475d_B35B_C3284BE6AD58___EAID_961C1606_3C28_4491_AC50_64E63F419B28&#45;&gt;EAID_07A7CEE6_8A8C_4a3b_90F0_46EA39FE9CD9</title>
<path fill="none" stroke="black" stroke-dasharray="5,2" d="M1820.12,-198.92C1835.08,-189.448 1849.21,-177.578 1859,-163 1879.13,-133.036 1881.47,-90.2635 1880.43,-62.5635"/>
<polygon fill="black" stroke="black" points="1883.92,-62.1866 1879.87,-52.3946 1876.93,-62.5722 1883.92,-62.1866"/>
</g>
<!-- EAID_B82B0E92_1FA6_4039_93EF_5696E4C439DB___EAID_961C1606_3C28_4491_AC50_64E63F419B28 -->
<g id="node4" class="node"><title>EAID_B82B0E92_1FA6_4039_93EF_5696E4C439DB___EAID_961C1606_3C28_4491_AC50_64E63F419B28</title>
<image xlink:href="img/activity_icon.png" width="30px" height="20px" preserveAspectRatio="xMinYMin meet" x="1944.5" y="-257"/>
<text text-anchor="start" x="1903.5" y="-222.8" font-family="Times New Roman,serif" font-weight="bold" font-size="14.00">display greyed out</text>
<text text-anchor="start" x="1877" y="-208.8" font-family="Times New Roman,serif" font-weight="bold" font-size="14.00">weapon icon:Weapons Bar</text>
</g>
<!-- EAID_B82B0E92_1FA6_4039_93EF_5696E4C439DB___EAID_961C1606_3C28_4491_AC50_64E63F419B28&#45;&gt;EAID_961C1606_3C28_4491_AC50_64E63F419B28___EAID_C1B51128_100F_4445_9A46_4C916D6CACC0 -->
<g id="edge3" class="edge"><title>EAID_B82B0E92_1FA6_4039_93EF_5696E4C439DB___EAID_961C1606_3C28_4491_AC50_64E63F419B28&#45;&gt;EAID_961C1606_3C28_4491_AC50_64E63F419B28___EAID_C1B51128_100F_4445_9A46_4C916D6CACC0</title>
<path fill="none" stroke="black" d="M1891.61,-198.992C1869.75,-188.938 1845.35,-177.71 1822.86,-167.363"/>
<polygon fill="black" stroke="black" points="1824.23,-164.143 1813.69,-163.142 1821.31,-170.502 1824.23,-164.143"/>
</g>
<!-- EAID_B82B0E92_1FA6_4039_93EF_5696E4C439DB___EAID_961C1606_3C28_4491_AC50_64E63F419B28&#45;&gt;EAID_07A7CEE6_8A8C_4a3b_90F0_46EA39FE9CD9 -->
<g id="edge12" class="edge"><title>EAID_B82B0E92_1FA6_4039_93EF_5696E4C439DB___EAID_961C1606_3C28_4491_AC50_64E63F419B28&#45;&gt;EAID_07A7CEE6_8A8C_4a3b_90F0_46EA39FE9CD9</title>
<path fill="none" stroke="black" stroke-dasharray="5,2" d="M1945.99,-198.67C1930.17,-160.586 1903.75,-96.9993 1888.94,-61.329"/>
<polygon fill="black" stroke="black" points="1892.15,-59.9452 1885.08,-52.0528 1885.69,-62.6305 1892.15,-59.9452"/>
</g>
<!-- EAID_C45F45DA_3002_4a29_95B9_A9B8977858E3___EAID_B82B0E92_1FA6_4039_93EF_5696E4C439DB -->
<g id="node5" class="node"><title>EAID_C45F45DA_3002_4a29_95B9_A9B8977858E3___EAID_B82B0E92_1FA6_4039_93EF_5696E4C439DB</title>
<image xlink:href="img/activity_icon.png" width="30px" height="20px" preserveAspectRatio="xMinYMin meet" x="1977.5" y="-357"/>
<text text-anchor="start" x="1890" y="-322.8" font-family="Times New Roman,serif" font-weight="bold" font-size="14.00">weapon available?:display greyed</text>
<text text-anchor="start" x="1942.5" y="-308.8" font-family="Times New Roman,serif" font-weight="bold" font-size="14.00">out weapon icon</text>
</g>
<!-- EAID_C45F45DA_3002_4a29_95B9_A9B8977858E3___EAID_B82B0E92_1FA6_4039_93EF_5696E4C439DB&#45;&gt;EAID_B82B0E92_1FA6_4039_93EF_5696E4C439DB___EAID_961C1606_3C28_4491_AC50_64E63F419B28 -->
<g id="edge4" class="edge"><title>EAID_C45F45DA_3002_4a29_95B9_A9B8977858E3___EAID_B82B0E92_1FA6_4039_93EF_5696E4C439DB&#45;&gt;EAID_B82B0E92_1FA6_4039_93EF_5696E4C439DB___EAID_961C1606_3C28_4491_AC50_64E63F419B28</title>
<path fill="none" stroke="black" d="M1981.56,-298.992C1978.76,-290.681 1975.69,-281.567 1972.74,-272.812"/>
<polygon fill="black" stroke="black" points="1976,-271.503 1969.49,-263.142 1969.36,-273.737 1976,-271.503"/>
</g>
<!-- EAID_C45F45DA_3002_4a29_95B9_A9B8977858E3___EAID_B82B0E92_1FA6_4039_93EF_5696E4C439DB&#45;&gt;EAID_FEAB27D4_69ED_4c75_B770_C9D08EF1E7A5 -->
<g id="edge13" class="edge"><title>EAID_C45F45DA_3002_4a29_95B9_A9B8977858E3___EAID_B82B0E92_1FA6_4039_93EF_5696E4C439DB&#45;&gt;EAID_FEAB27D4_69ED_4c75_B770_C9D08EF1E7A5</title>
<path fill="none" stroke="black" stroke-dasharray="5,2" d="M2104.71,-301.985C2135.69,-291.963 2168.55,-279.066 2197,-263 2298.44,-205.709 2396.5,-105.774 2438.98,-59.636"/>
<polygon fill="black" stroke="black" points="2441.62,-61.9311 2445.78,-52.1873 2436.46,-57.21 2441.62,-61.9311"/>
</g>
<!-- EAID_C45F45DA_3002_4a29_95B9_A9B8977858E3___EAID_84133E17_C525_475d_B35B_C3284BE6AD58 -->
<g id="node6" class="node"><title>EAID_C45F45DA_3002_4a29_95B9_A9B8977858E3___EAID_84133E17_C525_475d_B35B_C3284BE6AD58</title>
<image xlink:href="img/activity_icon.png" width="30px" height="20px" preserveAspectRatio="xMinYMin meet" x="1731.5" y="-357"/>
<text text-anchor="start" x="1641" y="-322.8" font-family="Times New Roman,serif" font-weight="bold" font-size="14.00">weapon available?:display weapon</text>
<text text-anchor="start" x="1733.5" y="-308.8" font-family="Times New Roman,serif" font-weight="bold" font-size="14.00">icon</text>
</g>
<!-- EAID_C45F45DA_3002_4a29_95B9_A9B8977858E3___EAID_84133E17_C525_475d_B35B_C3284BE6AD58&#45;&gt;EAID_84133E17_C525_475d_B35B_C3284BE6AD58___EAID_961C1606_3C28_4491_AC50_64E63F419B28 -->
<g id="edge5" class="edge"><title>EAID_C45F45DA_3002_4a29_95B9_A9B8977858E3___EAID_84133E17_C525_475d_B35B_C3284BE6AD58&#45;&gt;EAID_84133E17_C525_475d_B35B_C3284BE6AD58___EAID_961C1606_3C28_4491_AC50_64E63F419B28</title>
<path fill="none" stroke="black" d="M1746,-298.992C1746,-290.859 1746,-281.959 1746,-273.378"/>
<polygon fill="black" stroke="black" points="1749.5,-273.142 1746,-263.142 1742.5,-273.142 1749.5,-273.142"/>
</g>
<!-- EAID_C45F45DA_3002_4a29_95B9_A9B8977858E3___EAID_84133E17_C525_475d_B35B_C3284BE6AD58&#45;&gt;EAID_FEAB27D4_69ED_4c75_B770_C9D08EF1E7A5 -->
<g id="edge14" class="edge"><title>EAID_C45F45DA_3002_4a29_95B9_A9B8977858E3___EAID_84133E17_C525_475d_B35B_C3284BE6AD58&#45;&gt;EAID_FEAB27D4_69ED_4c75_B770_C9D08EF1E7A5</title>
<path fill="none" stroke="black" stroke-dasharray="5,2" d="M1861.72,-301.06C1864.84,-300.356 1867.94,-299.668 1871,-299 1954.96,-280.649 1981.15,-294.793 2061,-263 2192.49,-210.645 2202.16,-153.792 2329,-91 2338.32,-86.3841 2341.34,-86.8602 2351,-83 2371.95,-74.629 2394.86,-64.7519 2414.32,-56.1404"/>
<polygon fill="black" stroke="black" points="2415.86,-59.2875 2423.57,-52.0268 2413.01,-52.8912 2415.86,-59.2875"/>
</g>
<!-- EAID_C1B51128_100F_4445_9A46_4C916D6CACC0___EAID_C45F45DA_3002_4a29_95B9_A9B8977858E3&#45;&gt;EAID_C45F45DA_3002_4a29_95B9_A9B8977858E3___EAID_0A980C9C_7C99_4aba_B8F9_CCC238B8EA58 -->
<g id="edge6" class="edge"><title>EAID_C1B51128_100F_4445_9A46_4C916D6CACC0___EAID_C45F45DA_3002_4a29_95B9_A9B8977858E3&#45;&gt;EAID_C45F45DA_3002_4a29_95B9_A9B8977858E3___EAID_0A980C9C_7C99_4aba_B8F9_CCC238B8EA58</title>
<path fill="none" stroke="black" d="M2072.68,-398.992C2104.95,-386.592 2141.86,-372.407 2173.38,-360.292"/>
<polygon fill="black" stroke="black" points="2174.9,-363.457 2182.98,-356.603 2172.39,-356.923 2174.9,-363.457"/>
</g>
<!-- EAID_C1B51128_100F_4445_9A46_4C916D6CACC0___EAID_C45F45DA_3002_4a29_95B9_A9B8977858E3&#45;&gt;EAID_C45F45DA_3002_4a29_95B9_A9B8977858E3___EAID_B82B0E92_1FA6_4039_93EF_5696E4C439DB -->
<g id="edge7" class="edge"><title>EAID_C1B51128_100F_4445_9A46_4C916D6CACC0___EAID_C45F45DA_3002_4a29_95B9_A9B8977858E3&#45;&gt;EAID_C45F45DA_3002_4a29_95B9_A9B8977858E3___EAID_B82B0E92_1FA6_4039_93EF_5696E4C439DB</title>
<path fill="none" stroke="black" d="M1992,-398.992C1992,-390.859 1992,-381.959 1992,-373.378"/>
<polygon fill="black" stroke="black" points="1995.5,-373.142 1992,-363.142 1988.5,-373.142 1995.5,-373.142"/>
</g>
<!-- EAID_C1B51128_100F_4445_9A46_4C916D6CACC0___EAID_C45F45DA_3002_4a29_95B9_A9B8977858E3&#45;&gt;EAID_C45F45DA_3002_4a29_95B9_A9B8977858E3___EAID_84133E17_C525_475d_B35B_C3284BE6AD58 -->
<g id="edge8" class="edge"><title>EAID_C1B51128_100F_4445_9A46_4C916D6CACC0___EAID_C45F45DA_3002_4a29_95B9_A9B8977858E3&#45;&gt;EAID_C45F45DA_3002_4a29_95B9_A9B8977858E3___EAID_84133E17_C525_475d_B35B_C3284BE6AD58</title>
<path fill="none" stroke="black" d="M1914.16,-398.992C1888.59,-388.804 1859.99,-377.41 1833.73,-366.95"/>
<polygon fill="black" stroke="black" points="1834.76,-363.592 1824.17,-363.142 1832.17,-370.095 1834.76,-363.592"/>
</g>
<!-- EAID_C1B51128_100F_4445_9A46_4C916D6CACC0___EAID_C45F45DA_3002_4a29_95B9_A9B8977858E3&#45;&gt;EAID_07A7CEE6_8A8C_4a3b_90F0_46EA39FE9CD9 -->
<g id="edge15" class="edge"><title>EAID_C1B51128_100F_4445_9A46_4C916D6CACC0___EAID_C45F45DA_3002_4a29_95B9_A9B8977858E3&#45;&gt;EAID_07A7CEE6_8A8C_4a3b_90F0_46EA39FE9CD9</title>
<path fill="none" stroke="black" stroke-dasharray="5,2" d="M2090.24,-427.036C2193.05,-421.619 2344.52,-406.303 2381,-363 2399.33,-341.247 2395.45,-323.502 2381,-299 2284,-134.49 2186.41,-150.684 2005,-91 1979.03,-82.4546 1969.4,-93.132 1944,-83 1929.6,-77.2545 1915.45,-67.6494 1903.97,-58.5346"/>
<polygon fill="black" stroke="black" points="1906.05,-55.7168 1896.11,-52.0464 1901.59,-61.1136 1906.05,-55.7168"/>
</g>
<!-- EAID_BF5E151A_3C60_48f1_9CA0_F870C93F1C23 -->
<g id="node8" class="node"><title>EAID_BF5E151A_3C60_48f1_9CA0_F870C93F1C23</title>
<polygon fill="none" stroke="black" points="2858,-23 2858,-44 2893,-44 2893,-23 2858,-23"/>
<text text-anchor="start" x="2861" y="-30.8" font-family="Times New Roman,serif" font-weight="bold" font-size="14.00">User</text>
<polygon fill="none" stroke="black" points="2856.5,-22.5 2856.5,-45.5 2893.5,-45.5 2893.5,-22.5 2856.5,-22.5"/>
</g>
<!-- EAID_974FB299_6A5A_4951_B5B5_F51B0C4B8267 -->
<g id="node9" class="node"><title>EAID_974FB299_6A5A_4951_B5B5_F51B0C4B8267</title>
<polygon fill="none" stroke="black" points="2743,-23 2743,-44 2821,-44 2821,-23 2743,-23"/>
<text text-anchor="start" x="2746" y="-30.8" font-family="Times New Roman,serif" font-weight="bold" font-size="14.00">Show Rank</text>
<polygon fill="none" stroke="black" points="2742,-22.5 2742,-45.5 2822,-45.5 2822,-22.5 2742,-22.5"/>
</g>
<!-- EAID_C3EA7336_1F2F_47ea_BB66_D95DECA96D04 -->
<g id="node10" class="node"><title>EAID_C3EA7336_1F2F_47ea_BB66_D95DECA96D04</title>
<polygon fill="none" stroke="black" points="2589,-23 2589,-44 2707,-44 2707,-23 2589,-23"/>
<text text-anchor="start" x="2592" y="-30.8" font-family="Times New Roman,serif" font-weight="bold" font-size="14.00">Algortihm to scale</text>
<polygon fill="none" stroke="black" points="2588,-22.5 2588,-45.5 2708,-45.5 2708,-22.5 2588,-22.5"/>
</g>
<!-- EAID_8273AF7D_78C3_45c3_8CD8_F1443CD6978C -->
<g id="node12" class="node"><title>EAID_8273AF7D_78C3_45c3_8CD8_F1443CD6978C</title>
<polygon fill="none" stroke="black" points="2221,-23 2221,-44 2333,-44 2333,-23 2221,-23"/>
<text text-anchor="start" x="2224" y="-30.8" font-family="Times New Roman,serif" font-weight="bold" font-size="14.00">Update Database</text>
<polygon fill="none" stroke="black" points="2220,-22.5 2220,-45.5 2334,-45.5 2334,-22.5 2220,-22.5"/>
</g>
<!-- EAID_5B2568A1_712C_4e12_B51B_6281E5B501F8 -->
<g id="node13" class="node"><title>EAID_5B2568A1_712C_4e12_B51B_6281E5B501F8</title>
<polygon fill="none" stroke="black" points="1962,-23 1962,-44 2185,-44 2185,-23 1962,-23"/>
<text text-anchor="start" x="1965" y="-30.8" font-family="Times New Roman,serif" font-weight="bold" font-size="14.00">Count the number of enemies killed</text>
<polygon fill="none" stroke="black" points="1960.5,-22.5 1960.5,-45.5 2185.5,-45.5 2185.5,-22.5 1960.5,-22.5"/>
</g>
<!-- EAID_5F6420DF_7B22_457c_ADA4_D9D9D55CB879 -->
<g id="node15" class="node"><title>EAID_5F6420DF_7B22_457c_ADA4_D9D9D55CB879</title>
<polygon fill="none" stroke="black" points="1702,-23 1702,-44 1795,-44 1795,-23 1702,-23"/>
<text text-anchor="start" x="1705" y="-30.8" font-family="Times New Roman,serif" font-weight="bold" font-size="14.00">Avatar&#39;s Page</text>
<polygon fill="none" stroke="black" points="1700.5,-22.5 1700.5,-45.5 1795.5,-45.5 1795.5,-22.5 1700.5,-22.5"/>
</g>
<!-- EAID_931A4E3F_F432_4fd1_927C_C030F3D9737B -->
<g id="node16" class="node"><title>EAID_931A4E3F_F432_4fd1_927C_C030F3D9737B</title>
<polygon fill="none" stroke="black" points="1541,-23 1541,-44 1666,-44 1666,-23 1541,-23"/>
<text text-anchor="start" x="1544" y="-30.8" font-family="Times New Roman,serif" font-weight="bold" font-size="14.00">Specify Credentials</text>
<polygon fill="none" stroke="black" points="1539.5,-22.5 1539.5,-45.5 1666.5,-45.5 1666.5,-22.5 1539.5,-22.5"/>
</g>
<!-- EAID_3E20DA63_525B_4224_BB9E_9534D0359C8D -->
<g id="node17" class="node"><title>EAID_3E20DA63_525B_4224_BB9E_9534D0359C8D</title>
<polygon fill="none" stroke="black" points="1354,-23 1354,-44 1504,-44 1504,-23 1354,-23"/>
<text text-anchor="start" x="1357" y="-30.8" font-family="Times New Roman,serif" font-weight="bold" font-size="14.00">check password format</text>
<polygon fill="none" stroke="black" points="1353,-22.5 1353,-45.5 1505,-45.5 1505,-22.5 1353,-22.5"/>
</g>
<!-- EAID_4DD41B17_9B81_4dce_A227_999219CC82AB -->
<g id="node18" class="node"><title>EAID_4DD41B17_9B81_4dce_A227_999219CC82AB</title>
<polygon fill="none" stroke="black" points="1254,-23 1254,-44 1318,-44 1318,-23 1254,-23"/>
<text text-anchor="start" x="1257" y="-30.8" font-family="Times New Roman,serif" font-weight="bold" font-size="14.00">AR mode</text>
<polygon fill="none" stroke="black" points="1253,-22.5 1253,-45.5 1319,-45.5 1319,-22.5 1253,-22.5"/>
</g>
<!-- EAID_4998CE95_6BF0_42b7_8984_BA5E8944C781 -->
<g id="node19" class="node"><title>EAID_4998CE95_6BF0_42b7_8984_BA5E8944C781</title>
<polygon fill="none" stroke="black" points="1157,-23 1157,-44 1218,-44 1218,-23 1157,-23"/>
<text text-anchor="start" x="1160" y="-30.8" font-family="Times New Roman,serif" font-weight="bold" font-size="14.00">Location</text>
<polygon fill="none" stroke="black" points="1155.5,-22.5 1155.5,-45.5 1218.5,-45.5 1218.5,-22.5 1155.5,-22.5"/>
</g>
<!-- EAID_D3CFF9D9_16DE_42ba_A3E4_A49314E45EA2 -->
<g id="node20" class="node"><title>EAID_D3CFF9D9_16DE_42ba_A3E4_A49314E45EA2</title>
<polygon fill="none" stroke="black" points="990,-23 990,-44 1121,-44 1121,-23 990,-23"/>
<text text-anchor="start" x="993" y="-30.8" font-family="Times New Roman,serif" font-weight="bold" font-size="14.00">Make Difficult to hit</text>
<polygon fill="none" stroke="black" points="988.5,-22.5 988.5,-45.5 1121.5,-45.5 1121.5,-22.5 988.5,-22.5"/>
</g>
<!-- EAID_0CEAFE9C_24D5_4399_883C_CA6EB019CA02 -->
<g id="node21" class="node"><title>EAID_0CEAFE9C_24D5_4399_883C_CA6EB019CA02</title>
<polygon fill="none" stroke="black" points="863,-23 863,-44 954,-44 954,-23 863,-23"/>
<text text-anchor="start" x="866" y="-30.8" font-family="Times New Roman,serif" font-weight="bold" font-size="14.00">Time Elapsed</text>
<polygon fill="none" stroke="black" points="861.5,-22.5 861.5,-45.5 954.5,-45.5 954.5,-22.5 861.5,-22.5"/>
</g>
<!-- EAID_83740E8F_D7B1_408d_9DCA_AAAFB7279B39 -->
<g id="node22" class="node"><title>EAID_83740E8F_D7B1_408d_9DCA_AAAFB7279B39</title>
<polygon fill="none" stroke="black" points="766,-23 766,-44 827,-44 827,-23 766,-23"/>
<text text-anchor="start" x="769" y="-30.8" font-family="Times New Roman,serif" font-weight="bold" font-size="14.00">Get level</text>
<polygon fill="none" stroke="black" points="764.5,-22.5 764.5,-45.5 827.5,-45.5 827.5,-22.5 764.5,-22.5"/>
</g>
<!-- EAID_4A2D3301_D9B3_4d72_A6EF_6134F3CC78A3 -->
<g id="node23" class="node"><title>EAID_4A2D3301_D9B3_4d72_A6EF_6134F3CC78A3</title>
<polygon fill="none" stroke="black" points="631,-23 631,-44 729,-44 729,-23 631,-23"/>
<text text-anchor="start" x="634" y="-30.8" font-family="Times New Roman,serif" font-weight="bold" font-size="14.00">Doug&#39;s E&#45;book</text>
<polygon fill="none" stroke="black" points="630,-22.5 630,-45.5 730,-45.5 730,-22.5 630,-22.5"/>
</g>
<!-- EAID_D8C42AFA_CEFB_40b7_A674_DE63589A8B19 -->
<g id="node24" class="node"><title>EAID_D8C42AFA_CEFB_40b7_A674_DE63589A8B19</title>
<polygon fill="none" stroke="black" points="560,-23 560,-44 595,-44 595,-23 560,-23"/>
<text text-anchor="start" x="563" y="-30.8" font-family="Times New Roman,serif" font-weight="bold" font-size="14.00">Map</text>
<polygon fill="none" stroke="black" points="558.5,-22.5 558.5,-45.5 595.5,-45.5 595.5,-22.5 558.5,-22.5"/>
</g>
<!-- EAID_43838F35_58A6_4e13_A05C_EAFE96ED98FA -->
<g id="node25" class="node"><title>EAID_43838F35_58A6_4e13_A05C_EAFE96ED98FA</title>
<polygon fill="none" stroke="black" points="477,-23 477,-44 523,-44 523,-23 477,-23"/>
<text text-anchor="start" x="480" y="-30.8" font-family="Times New Roman,serif" font-weight="bold" font-size="14.00">Places</text>
<polygon fill="none" stroke="black" points="476,-22.5 476,-45.5 524,-45.5 524,-22.5 476,-22.5"/>
</g>
<!-- EAID_89F2B8DC_A83A_45e8_BB81_B0AA3F7182CD -->
<g id="node26" class="node"><title>EAID_89F2B8DC_A83A_45e8_BB81_B0AA3F7182CD</title>
<polygon fill="none" stroke="black" points="332,-23 332,-44 441,-44 441,-23 332,-23"/>
<text text-anchor="start" x="335" y="-30.8" font-family="Times New Roman,serif" font-weight="bold" font-size="14.00">VR scene library</text>
<polygon fill="none" stroke="black" points="330.5,-22.5 330.5,-45.5 441.5,-45.5 441.5,-22.5 330.5,-22.5"/>
</g>
<!-- EAID_971A2E65_E86B_4791_A05C_69F32AF0A809 -->
<g id="node27" class="node"><title>EAID_971A2E65_E86B_4791_A05C_69F32AF0A809</title>
<polygon fill="none" stroke="black" points="260,-23 260,-44 295,-44 295,-23 260,-23"/>
<text text-anchor="start" x="263" y="-30.8" font-family="Times New Roman,serif" font-weight="bold" font-size="14.00">GPS</text>
<polygon fill="none" stroke="black" points="258.5,-22.5 258.5,-45.5 295.5,-45.5 295.5,-22.5 258.5,-22.5"/>
</g>
<!-- EAID_EF32C35B_857E_42e0_BFCA_CEFD99C67258 -->
<g id="node28" class="node"><title>EAID_EF32C35B_857E_42e0_BFCA_CEFD99C67258</title>
<polygon fill="none" stroke="black" points="146,-23 146,-44 223,-44 223,-23 146,-23"/>
<text text-anchor="start" x="149" y="-30.8" font-family="Times New Roman,serif" font-weight="bold" font-size="14.00">if in Hawaii</text>
<polygon fill="none" stroke="black" points="144.5,-22.5 144.5,-45.5 223.5,-45.5 223.5,-22.5 144.5,-22.5"/>
</g>
<!-- EAID_4A577807_AA4A_4c30_99C2_F9A15F0651EC -->
<g id="node29" class="node"><title>EAID_4A577807_AA4A_4c30_99C2_F9A15F0651EC</title>
<polygon fill="none" stroke="black" points="25,-23 25,-44 109,-44 109,-23 25,-23"/>
<text text-anchor="start" x="28" y="-30.8" font-family="Times New Roman,serif" font-weight="bold" font-size="14.00">Achivements</text>
<polygon fill="none" stroke="black" points="24,-22.5 24,-45.5 110,-45.5 110,-22.5 24,-22.5"/>
</g>
</g>
</svg>
