<?xml version="1.0" encoding="UTF-8" standalone="no"?>
<!DOCTYPE svg PUBLIC "-//W3C//DTD SVG 1.1//EN"
 "http://www.w3.org/Graphics/SVG/1.1/DTD/svg11.dtd">
<!-- Generated by graphviz version 2.38.0 (20140413.2041)
 -->
<!-- Title: g Pages: 1 -->
<svg width="246pt" height="404pt"
 viewBox="0.00 0.00 246.43 404.00" xmlns="http://www.w3.org/2000/svg" xmlns:xlink="http://www.w3.org/1999/xlink">
<g id="graph0" class="graph" transform="scale(1 1) rotate(0) translate(4 400)">
<title>g</title>
<polygon fill="white" stroke="none" points="-4,4 -4,-400 242.434,-400 242.434,4 -4,4"/>
<!-- update feature detail -->
<g id="node1" class="node"><title>update feature detail</title>
<ellipse fill="none" stroke="black" cx="83.1926" cy="-90" rx="83.3857" ry="18"/>
<text text-anchor="middle" x="83.1926" y="-86.3" font-family="Times New Roman,serif" font-size="14.00">update feature detail</text>
</g>
<!-- feature -->
<g id="node2" class="node"><title>feature</title>
<ellipse fill="none" stroke="black" cx="83.1926" cy="-18" rx="35.194" ry="18"/>
<text text-anchor="middle" x="83.1926" y="-14.3" font-family="Times New Roman,serif" font-size="14.00">feature</text>
</g>
<!-- update feature detail&#45;&gt;feature -->
<g id="edge1" class="edge"><title>update feature detail&#45;&gt;feature</title>
<path fill="none" stroke="black" d="M83.1926,-71.6966C83.1926,-63.9827 83.1926,-54.7125 83.1926,-46.1124"/>
<polygon fill="black" stroke="black" points="86.6927,-46.1043 83.1926,-36.1043 79.6927,-46.1044 86.6927,-46.1043"/>
</g>
<!-- feature detail -->
<g id="node3" class="node"><title>feature detail</title>
<ellipse fill="none" stroke="black" cx="83.1926" cy="-162" rx="56.59" ry="18"/>
<text text-anchor="middle" x="83.1926" y="-158.3" font-family="Times New Roman,serif" font-size="14.00">feature detail</text>
</g>
<!-- feature detail&#45;&gt;update feature detail -->
<g id="edge2" class="edge"><title>feature detail&#45;&gt;update feature detail</title>
<path fill="none" stroke="black" d="M83.1926,-143.697C83.1926,-135.983 83.1926,-126.712 83.1926,-118.112"/>
<polygon fill="black" stroke="black" points="86.6927,-118.104 83.1926,-108.104 79.6927,-118.104 86.6927,-118.104"/>
</g>
<!-- redirect to feature page -->
<g id="node4" class="node"><title>redirect to feature page</title>
<ellipse fill="none" stroke="black" cx="144.193" cy="-234" rx="94.4839" ry="18"/>
<text text-anchor="middle" x="144.193" y="-230.3" font-family="Times New Roman,serif" font-size="14.00">redirect to feature page</text>
</g>
<!-- redirect to feature page&#45;&gt;feature detail -->
<g id="edge3" class="edge"><title>redirect to feature page&#45;&gt;feature detail</title>
<path fill="none" stroke="black" d="M129.426,-216.055C121.933,-207.457 112.696,-196.857 104.453,-187.397"/>
<polygon fill="black" stroke="black" points="107.032,-185.029 97.823,-179.789 101.754,-189.628 107.032,-185.029"/>
</g>
<!-- Feature List -->
<g id="node5" class="node"><title>Feature List</title>
<ellipse fill="none" stroke="black" cx="124.193" cy="-306" rx="53.8905" ry="18"/>
<text text-anchor="middle" x="124.193" y="-302.3" font-family="Times New Roman,serif" font-size="14.00">Feature List</text>
</g>
<!-- Feature List&#45;&gt;redirect to feature page -->
<g id="edge4" class="edge"><title>Feature List&#45;&gt;redirect to feature page</title>
<path fill="none" stroke="black" d="M129.034,-288.055C131.261,-280.261 133.958,-270.822 136.456,-262.079"/>
<polygon fill="black" stroke="black" points="139.875,-262.852 139.257,-252.275 133.144,-260.929 139.875,-262.852"/>
</g>
<!-- User -->
<g id="node6" class="node"><title>User</title>
<ellipse fill="none" stroke="black" cx="73.1926" cy="-378" rx="27.8951" ry="18"/>
<text text-anchor="middle" x="73.1926" y="-374.3" font-family="Times New Roman,serif" font-size="14.00">User</text>
</g>
<!-- User&#45;&gt;feature detail -->
<g id="edge6" class="edge"><title>User&#45;&gt;feature detail</title>
<path fill="none" stroke="black" d="M64.3582,-360.611C49.639,-331.052 23.3878,-267.135 41.1926,-216 44.8788,-205.413 51.6582,-195.351 58.7105,-186.894"/>
<polygon fill="black" stroke="black" points="61.4251,-189.108 65.4636,-179.313 56.1983,-184.452 61.4251,-189.108"/>
</g>
<!-- User&#45;&gt;Feature List -->
<g id="edge5" class="edge"><title>User&#45;&gt;Feature List</title>
<path fill="none" stroke="black" d="M84.5112,-361.465C90.7756,-352.867 98.7142,-341.97 105.842,-332.187"/>
<polygon fill="black" stroke="black" points="108.775,-334.105 111.835,-323.962 103.117,-329.983 108.775,-334.105"/>
</g>
</g>
</svg>
