<?xml version="1.0" encoding="UTF-8" standalone="no"?>
<!DOCTYPE svg PUBLIC "-//W3C//DTD SVG 1.1//EN"
 "http://www.w3.org/Graphics/SVG/1.1/DTD/svg11.dtd">
<!-- Generated by graphviz version 2.38.0 (20140413.2041)
 -->
<!-- Title: g Pages: 1 -->
<svg width="540pt" height="404pt"
 viewBox="0.00 0.00 539.84 404.00" xmlns="http://www.w3.org/2000/svg" xmlns:xlink="http://www.w3.org/1999/xlink">
<g id="graph0" class="graph" transform="scale(1 1) rotate(0) translate(4 400)">
<title>g</title>
<polygon fill="white" stroke="none" points="-4,4 -4,-400 535.841,-400 535.841,4 -4,4"/>
<!-- verify attendee information -->
<g id="node1" class="node"><title>verify attendee information</title>
<ellipse fill="none" stroke="black" cx="152.841" cy="-90" rx="107.482" ry="18"/>
<text text-anchor="middle" x="152.841" y="-86.3" font-family="Times New Roman,serif" font-size="14.00">verify attendee information</text>
</g>
<!-- attendee information list -->
<g id="node2" class="node"><title>attendee information list</title>
<ellipse fill="none" stroke="black" cx="152.841" cy="-18" rx="96.6831" ry="18"/>
<text text-anchor="middle" x="152.841" y="-14.3" font-family="Times New Roman,serif" font-size="14.00">attendee information list</text>
</g>
<!-- verify attendee information&#45;&gt;attendee information list -->
<g id="edge1" class="edge"><title>verify attendee information&#45;&gt;attendee information list</title>
<path fill="none" stroke="black" d="M152.841,-71.6966C152.841,-63.9827 152.841,-54.7125 152.841,-46.1124"/>
<polygon fill="black" stroke="black" points="156.342,-46.1043 152.841,-36.1043 149.342,-46.1044 156.342,-46.1043"/>
</g>
<!-- Attendee is not available -->
<g id="node3" class="node"><title>Attendee is not available</title>
<ellipse fill="none" stroke="black" cx="421.841" cy="-18" rx="98.5829" ry="18"/>
<text text-anchor="middle" x="421.841" y="-14.3" font-family="Times New Roman,serif" font-size="14.00">Attendee is not available</text>
</g>
<!-- verify attendee information&#45;&gt;Attendee is not available -->
<g id="edge2" class="edge"><title>verify attendee information&#45;&gt;Attendee is not available</title>
<path fill="none" stroke="black" d="M208.252,-74.5808C251.668,-63.283 312.137,-47.5477 357.656,-35.7024"/>
<polygon fill="black" stroke="black" points="358.626,-39.0667 367.422,-33.1611 356.863,-32.2923 358.626,-39.0667"/>
</g>
<!-- Edit default attendee list -->
<g id="node4" class="node"><title>Edit default attendee list</title>
<ellipse fill="none" stroke="black" cx="96.8414" cy="-162" rx="96.6831" ry="18"/>
<text text-anchor="middle" x="96.8414" y="-158.3" font-family="Times New Roman,serif" font-size="14.00">Edit default attendee list</text>
</g>
<!-- Edit default attendee list&#45;&gt;verify attendee information -->
<g id="edge3" class="edge"><title>Edit default attendee list&#45;&gt;verify attendee information</title>
<path fill="none" stroke="black" d="M110.397,-144.055C117.107,-135.668 125.341,-125.376 132.764,-116.096"/>
<polygon fill="black" stroke="black" points="135.507,-118.27 139.021,-108.275 130.041,-113.898 135.507,-118.27"/>
</g>
<!-- Verify project information -->
<g id="node5" class="node"><title>Verify project information</title>
<ellipse fill="none" stroke="black" cx="252.841" cy="-234" rx="104.782" ry="18"/>
<text text-anchor="middle" x="252.841" y="-230.3" font-family="Times New Roman,serif" font-size="14.00">Verify project information</text>
</g>
<!-- Verify project information&#45;&gt;Edit default attendee list -->
<g id="edge5" class="edge"><title>Verify project information&#45;&gt;Edit default attendee list</title>
<path fill="none" stroke="black" d="M217.052,-216.941C194.578,-206.856 165.414,-193.77 141.44,-183.012"/>
<polygon fill="black" stroke="black" points="142.752,-179.765 132.195,-178.864 139.886,-186.151 142.752,-179.765"/>
</g>
<!-- Project -->
<g id="node6" class="node"><title>Project</title>
<ellipse fill="none" stroke="black" cx="247.841" cy="-162" rx="36.2938" ry="18"/>
<text text-anchor="middle" x="247.841" y="-158.3" font-family="Times New Roman,serif" font-size="14.00">Project</text>
</g>
<!-- Verify project information&#45;&gt;Project -->
<g id="edge4" class="edge"><title>Verify project information&#45;&gt;Project</title>
<path fill="none" stroke="black" d="M251.605,-215.697C251.054,-207.983 250.392,-198.712 249.778,-190.112"/>
<polygon fill="black" stroke="black" points="253.267,-189.83 249.063,-180.104 246.285,-190.328 253.267,-189.83"/>
</g>
<!-- Project information error -->
<g id="node7" class="node"><title>Project information error</title>
<ellipse fill="none" stroke="black" cx="402.841" cy="-162" rx="100.983" ry="18"/>
<text text-anchor="middle" x="402.841" y="-158.3" font-family="Times New Roman,serif" font-size="14.00">Project information error</text>
</g>
<!-- Verify project information&#45;&gt;Project information error -->
<g id="edge6" class="edge"><title>Verify project information&#45;&gt;Project information error</title>
<path fill="none" stroke="black" d="M287.254,-216.941C308.692,-206.936 336.461,-193.978 359.408,-183.269"/>
<polygon fill="black" stroke="black" points="361.007,-186.385 368.589,-178.985 358.047,-180.042 361.007,-186.385"/>
</g>
<!-- Create a project screen -->
<g id="node8" class="node"><title>Create a project screen</title>
<ellipse fill="none" stroke="black" cx="257.841" cy="-306" rx="94.4839" ry="18"/>
<text text-anchor="middle" x="257.841" y="-302.3" font-family="Times New Roman,serif" font-size="14.00">Create a project screen</text>
</g>
<!-- Create a project screen&#45;&gt;Verify project information -->
<g id="edge7" class="edge"><title>Create a project screen&#45;&gt;Verify project information</title>
<path fill="none" stroke="black" d="M256.605,-287.697C256.054,-279.983 255.392,-270.712 254.778,-262.112"/>
<polygon fill="black" stroke="black" points="258.267,-261.83 254.063,-252.104 251.285,-262.328 258.267,-261.83"/>
</g>
<!-- Administrator -->
<g id="node9" class="node"><title>Administrator</title>
<ellipse fill="none" stroke="black" cx="321.841" cy="-378" rx="60.3893" ry="18"/>
<text text-anchor="middle" x="321.841" y="-374.3" font-family="Times New Roman,serif" font-size="14.00">Administrator</text>
</g>
<!-- Administrator&#45;&gt;Attendee is not available -->
<g id="edge8" class="edge"><title>Administrator&#45;&gt;Attendee is not available</title>
<path fill="none" stroke="black" d="M369.756,-366.965C431.736,-350.853 531.841,-312.789 531.841,-235 531.841,-235 531.841,-235 531.841,-161 531.841,-110.332 487.53,-66.7786 455.155,-41.7197"/>
<polygon fill="black" stroke="black" points="456.902,-38.6545 446.802,-35.453 452.701,-44.2539 456.902,-38.6545"/>
</g>
<!-- Administrator&#45;&gt;Edit default attendee list -->
<g id="edge10" class="edge"><title>Administrator&#45;&gt;Edit default attendee list</title>
<path fill="none" stroke="black" d="M265.016,-371.755C229.254,-365.655 184.431,-352.473 154.841,-324 117.397,-287.969 104.044,-226.018 99.3422,-190.385"/>
<polygon fill="black" stroke="black" points="102.792,-189.75 98.1435,-180.229 95.8399,-190.57 102.792,-189.75"/>
</g>
<!-- Administrator&#45;&gt;Project information error -->
<g id="edge11" class="edge"><title>Administrator&#45;&gt;Project information error</title>
<path fill="none" stroke="black" d="M336.623,-360.4C344.8,-350.45 354.55,-337.2 360.841,-324 381.946,-279.721 393.532,-223.348 398.941,-190.406"/>
<polygon fill="black" stroke="black" points="402.453,-190.605 400.544,-180.184 395.537,-189.521 402.453,-190.605"/>
</g>
<!-- Administrator&#45;&gt;Create a project screen -->
<g id="edge9" class="edge"><title>Administrator&#45;&gt;Create a project screen</title>
<path fill="none" stroke="black" d="M306.674,-360.411C298.741,-351.734 288.878,-340.946 280.097,-331.342"/>
<polygon fill="black" stroke="black" points="282.675,-328.975 273.344,-323.956 277.509,-333.698 282.675,-328.975"/>
</g>
</g>
</svg>
