<?xml version="1.0" encoding="UTF-8" standalone="no"?>
<!DOCTYPE svg PUBLIC "-//W3C//DTD SVG 1.1//EN"
 "http://www.w3.org/Graphics/SVG/1.1/DTD/svg11.dtd">
<!-- Generated by graphviz version 2.38.0 (20140413.2041)
 -->
<!-- Title: g Pages: 1 -->
<svg width="2574pt" height="951pt"
 viewBox="0.00 0.00 2574.00 951.00" xmlns="http://www.w3.org/2000/svg" xmlns:xlink="http://www.w3.org/1999/xlink">
<g id="graph0" class="graph" transform="scale(1 1) rotate(0) translate(4 947)">
<title>g</title>
<polygon fill="white" stroke="none" points="-4,4 -4,-947 2570,-947 2570,4 -4,4"/>
<g id="clust1" class="cluster"><title>cluster0</title>
<polygon fill="none" stroke="black" stroke-width="2" points="1258,-91 1258,-837 1708,-837 1708,-91 1258,-91"/>
<text text-anchor="start" x="1461" y="-822.8" font-family="Times New Roman,serif" font-weight="bold" font-size="14.00">System</text>
</g>
<g id="clust2" class="cluster"><title>cluster1</title>
<polygon fill="none" stroke="black" stroke-width="2" points="1494,-845 1494,-935 1704,-935 1704,-845 1494,-845"/>
<text text-anchor="start" x="1579" y="-920.8" font-family="Times New Roman,serif" font-weight="bold" font-size="14.00">Driver</text>
</g>
<g id="clust3" class="cluster"><title>cluster1000</title>
<polygon fill="none" stroke="black" stroke-width="2" points="8,-8 8,-83 2558,-83 2558,-8 8,-8"/>
<text text-anchor="start" x="1237.5" y="-68.8" font-family="Times New Roman,serif" font-weight="bold" font-size="14.00">Domain Model</text>
</g>
<!-- EAID_E4583B1B_6FCA_4c94_B28E_AD82F71B4E3E___EAID_1BC28549_618A_4bfb_B02C_5B74F15F21EF -->
<g id="node1" class="node"><title>EAID_E4583B1B_6FCA_4c94_B28E_AD82F71B4E3E___EAID_1BC28549_618A_4bfb_B02C_5B74F15F21EF</title>
<image xlink:href="img/activity_icon.png" width="30px" height="20px" preserveAspectRatio="xMinYMin meet" x="1584.5" y="-799.5"/>
<text text-anchor="start" x="1524" y="-765.3" font-family="Times New Roman,serif" font-weight="bold" font-size="14.00">Driver:Recording screen</text>
</g>
<!-- EAID_1BC28549_618A_4bfb_B02C_5B74F15F21EF___EAID_4A82BA02_86AA_4146_9AA7_E4CBEE3AD3C1 -->
<g id="node8" class="node"><title>EAID_1BC28549_618A_4bfb_B02C_5B74F15F21EF___EAID_4A82BA02_86AA_4146_9AA7_E4CBEE3AD3C1</title>
<image xlink:href="img/activity_icon.png" width="30px" height="20px" preserveAspectRatio="xMinYMin meet" x="1569.5" y="-713"/>
<text text-anchor="start" x="1479" y="-678.8" font-family="Times New Roman,serif" font-weight="bold" font-size="14.00">Recording screen:Recording video</text>
<text text-anchor="start" x="1570.5" y="-664.8" font-family="Times New Roman,serif" font-weight="bold" font-size="14.00">clips</text>
</g>
<!-- EAID_E4583B1B_6FCA_4c94_B28E_AD82F71B4E3E___EAID_1BC28549_618A_4bfb_B02C_5B74F15F21EF&#45;&gt;EAID_1BC28549_618A_4bfb_B02C_5B74F15F21EF___EAID_4A82BA02_86AA_4146_9AA7_E4CBEE3AD3C1 -->
<g id="edge1" class="edge"><title>EAID_E4583B1B_6FCA_4c94_B28E_AD82F71B4E3E___EAID_1BC28549_618A_4bfb_B02C_5B74F15F21EF&#45;&gt;EAID_1BC28549_618A_4bfb_B02C_5B74F15F21EF___EAID_4A82BA02_86AA_4146_9AA7_E4CBEE3AD3C1</title>
<path fill="none" stroke="black" d="M1594.98,-754.98C1593.68,-747.066 1592.21,-738.063 1590.77,-729.281"/>
<polygon fill="black" stroke="black" points="1594.18,-728.455 1589.11,-719.153 1587.27,-729.588 1594.18,-728.455"/>
</g>
<!-- EAID_0E723912_B847_4f0d_8C8A_8EC4E3B3C261 -->
<g id="node12" class="node"><title>EAID_0E723912_B847_4f0d_8C8A_8EC4E3B3C261</title>
<polygon fill="none" stroke="black" points="2165,-23 2165,-44 2259,-44 2259,-23 2165,-23"/>
<text text-anchor="start" x="2168" y="-30.8" font-family="Times New Roman,serif" font-weight="bold" font-size="14.00">Signup Screen</text>
<polygon fill="none" stroke="black" points="2164,-22.5 2164,-45.5 2260,-45.5 2260,-22.5 2164,-22.5"/>
</g>
<!-- EAID_E4583B1B_6FCA_4c94_B28E_AD82F71B4E3E___EAID_1BC28549_618A_4bfb_B02C_5B74F15F21EF&#45;&gt;EAID_0E723912_B847_4f0d_8C8A_8EC4E3B3C261 -->
<g id="edge11" class="edge"><title>EAID_E4583B1B_6FCA_4c94_B28E_AD82F71B4E3E___EAID_1BC28549_618A_4bfb_B02C_5B74F15F21EF&#45;&gt;EAID_0E723912_B847_4f0d_8C8A_8EC4E3B3C261</title>
<path fill="none" stroke="black" stroke-dasharray="5,2" d="M1684.79,-764.795C1831.51,-737.187 2115,-672.064 2115,-581 2115,-581 2115,-581 2115,-230 2115,-162.965 2161.52,-95.2564 2190.13,-59.9566"/>
<polygon fill="black" stroke="black" points="2192.95,-62.0423 2196.63,-52.1087 2187.56,-57.5764 2192.95,-62.0423"/>
</g>
<!-- EAID_4A82BA02_86AA_4146_9AA7_E4CBEE3AD3C1___EAID_39D3874C_2C69_4c48_ABEE_92C8530E373C -->
<g id="node2" class="node"><title>EAID_4A82BA02_86AA_4146_9AA7_E4CBEE3AD3C1___EAID_39D3874C_2C69_4c48_ABEE_92C8530E373C</title>
<image xlink:href="img/activity_icon.png" width="30px" height="20px" preserveAspectRatio="xMinYMin meet" x="1341" y="-157"/>
<text text-anchor="start" x="1276" y="-122.8" font-family="Times New Roman,serif" font-weight="bold" font-size="14.00">Recording video clips:Bad</text>
<text text-anchor="start" x="1313.5" y="-108.8" font-family="Times New Roman,serif" font-weight="bold" font-size="14.00">driver reports</text>
</g>
<!-- EAID_7D9987A0_EE61_4402_84E9_775EF5A002CF -->
<g id="node15" class="node"><title>EAID_7D9987A0_EE61_4402_84E9_775EF5A002CF</title>
<polygon fill="none" stroke="black" points="402,-23 402,-44 495,-44 495,-23 402,-23"/>
<text text-anchor="start" x="405" y="-30.8" font-family="Times New Roman,serif" font-weight="bold" font-size="14.00">Report Poster</text>
<polygon fill="none" stroke="black" points="400.5,-22.5 400.5,-45.5 495.5,-45.5 495.5,-22.5 400.5,-22.5"/>
</g>
<!-- EAID_4A82BA02_86AA_4146_9AA7_E4CBEE3AD3C1___EAID_39D3874C_2C69_4c48_ABEE_92C8530E373C&#45;&gt;EAID_7D9987A0_EE61_4402_84E9_775EF5A002CF -->
<g id="edge12" class="edge"><title>EAID_4A82BA02_86AA_4146_9AA7_E4CBEE3AD3C1___EAID_39D3874C_2C69_4c48_ABEE_92C8530E373C&#45;&gt;EAID_7D9987A0_EE61_4402_84E9_775EF5A002CF</title>
<path fill="none" stroke="black" stroke-dasharray="5,2" d="M1265.96,-127.892C1063.06,-122.723 582.338,-107.988 513,-83 498.345,-77.7186 484.173,-67.9874 472.823,-58.6604"/>
<polygon fill="black" stroke="black" points="474.955,-55.8772 465.091,-52.0099 470.39,-61.1842 474.955,-55.8772"/>
</g>
<!-- EAID_42075E84_D354_49ba_A97B_9324B515CB24___EAID_C1444D2B_1F11_4cea_BAEF_96F023C0C6B3 -->
<g id="node3" class="node"><title>EAID_42075E84_D354_49ba_A97B_9324B515CB24___EAID_C1444D2B_1F11_4cea_BAEF_96F023C0C6B3</title>
<image xlink:href="img/activity_icon.png" width="30px" height="20px" preserveAspectRatio="xMinYMin meet" x="1382" y="-371"/>
<text text-anchor="start" x="1350" y="-336.8" font-family="Times New Roman,serif" font-weight="bold" font-size="14.00">Fetch two most</text>
<text text-anchor="start" x="1316" y="-322.8" font-family="Times New Roman,serif" font-weight="bold" font-size="14.00">recent video clips:Circular</text>
<text text-anchor="start" x="1377" y="-308.8" font-family="Times New Roman,serif" font-weight="bold" font-size="14.00">Buffer</text>
</g>
<!-- EAID_C1444D2B_1F11_4cea_BAEF_96F023C0C6B3 -->
<g id="node23" class="node"><title>EAID_C1444D2B_1F11_4cea_BAEF_96F023C0C6B3</title>
<polygon fill="none" stroke="black" points="1308,-23 1308,-44 1409,-44 1409,-23 1308,-23"/>
<text text-anchor="start" x="1311" y="-30.8" font-family="Times New Roman,serif" font-weight="bold" font-size="14.00">Circular Buffer</text>
<polygon fill="none" stroke="black" points="1306.5,-22.5 1306.5,-45.5 1409.5,-45.5 1409.5,-22.5 1306.5,-22.5"/>
</g>
<!-- EAID_42075E84_D354_49ba_A97B_9324B515CB24___EAID_C1444D2B_1F11_4cea_BAEF_96F023C0C6B3&#45;&gt;EAID_C1444D2B_1F11_4cea_BAEF_96F023C0C6B3 -->
<g id="edge13" class="edge"><title>EAID_42075E84_D354_49ba_A97B_9324B515CB24___EAID_C1444D2B_1F11_4cea_BAEF_96F023C0C6B3&#45;&gt;EAID_C1444D2B_1F11_4cea_BAEF_96F023C0C6B3</title>
<path fill="none" stroke="black" stroke-dasharray="5,2" d="M1488.06,-302.989C1504.41,-292.676 1519.31,-279.548 1529,-263 1543.38,-238.457 1537.42,-226.171 1529,-199 1511.78,-143.418 1502.21,-125.007 1455,-91 1444.5,-83.4359 1438.69,-88.5484 1427,-83 1413,-76.3551 1398.73,-66.9609 1386.84,-58.2428"/>
<polygon fill="black" stroke="black" points="1388.73,-55.2833 1378.63,-52.0631 1384.52,-60.8749 1388.73,-55.2833"/>
</g>
<!-- EAID_42075E84_D354_49ba_A97B_9324B515CB24___EAID_FDEDB62A_89D0_4283_B3C6_718A332B303F -->
<g id="node4" class="node"><title>EAID_42075E84_D354_49ba_A97B_9324B515CB24___EAID_FDEDB62A_89D0_4283_B3C6_718A332B303F</title>
<image xlink:href="img/activity_icon.png" width="30px" height="20px" preserveAspectRatio="xMinYMin meet" x="1588" y="-371"/>
<text text-anchor="start" x="1556" y="-336.8" font-family="Times New Roman,serif" font-weight="bold" font-size="14.00">Fetch two most</text>
<text text-anchor="start" x="1516" y="-322.8" font-family="Times New Roman,serif" font-weight="bold" font-size="14.00">recent video clips:Recording</text>
<text text-anchor="start" x="1581.5" y="-308.8" font-family="Times New Roman,serif" font-weight="bold" font-size="14.00">paused</text>
</g>
<!-- EAID_FDEDB62A_89D0_4283_B3C6_718A332B303F___EAID_4A82BA02_86AA_4146_9AA7_E4CBEE3AD3C1 -->
<g id="node7" class="node"><title>EAID_FDEDB62A_89D0_4283_B3C6_718A332B303F___EAID_4A82BA02_86AA_4146_9AA7_E4CBEE3AD3C1</title>
<image xlink:href="img/activity_icon.png" width="30px" height="20px" preserveAspectRatio="xMinYMin meet" x="1388" y="-257"/>
<text text-anchor="start" x="1296" y="-222.8" font-family="Times New Roman,serif" font-weight="bold" font-size="14.00">Recording paused:Recording video</text>
<text text-anchor="start" x="1389" y="-208.8" font-family="Times New Roman,serif" font-weight="bold" font-size="14.00">clips</text>
</g>
<!-- EAID_42075E84_D354_49ba_A97B_9324B515CB24___EAID_FDEDB62A_89D0_4283_B3C6_718A332B303F&#45;&gt;EAID_FDEDB62A_89D0_4283_B3C6_718A332B303F___EAID_4A82BA02_86AA_4146_9AA7_E4CBEE3AD3C1 -->
<g id="edge3" class="edge"><title>EAID_42075E84_D354_49ba_A97B_9324B515CB24___EAID_FDEDB62A_89D0_4283_B3C6_718A332B303F&#45;&gt;EAID_FDEDB62A_89D0_4283_B3C6_718A332B303F___EAID_4A82BA02_86AA_4146_9AA7_E4CBEE3AD3C1</title>
<path fill="none" stroke="black" d="M1530.51,-298.944C1511.11,-288.76 1490.22,-277.79 1471.07,-267.736"/>
<polygon fill="black" stroke="black" points="1472.6,-264.585 1462.12,-263.035 1469.34,-270.783 1472.6,-264.585"/>
</g>
<!-- EAID_57588212_E614_48e0_8F4A_81BEF06B8020 -->
<g id="node14" class="node"><title>EAID_57588212_E614_48e0_8F4A_81BEF06B8020</title>
<polygon fill="none" stroke="black" points="1865,-23 1865,-44 1973,-44 1973,-23 1865,-23"/>
<text text-anchor="start" x="1868" y="-30.8" font-family="Times New Roman,serif" font-weight="bold" font-size="14.00">receive response</text>
<polygon fill="none" stroke="black" points="1864,-22.5 1864,-45.5 1974,-45.5 1974,-22.5 1864,-22.5"/>
</g>
<!-- EAID_42075E84_D354_49ba_A97B_9324B515CB24___EAID_FDEDB62A_89D0_4283_B3C6_718A332B303F&#45;&gt;EAID_57588212_E614_48e0_8F4A_81BEF06B8020 -->
<g id="edge14" class="edge"><title>EAID_42075E84_D354_49ba_A97B_9324B515CB24___EAID_FDEDB62A_89D0_4283_B3C6_718A332B303F&#45;&gt;EAID_57588212_E614_48e0_8F4A_81BEF06B8020</title>
<path fill="none" stroke="black" stroke-dasharray="5,2" d="M1643.02,-298.751C1709.03,-235.668 1838.86,-111.587 1893.65,-59.2249"/>
<polygon fill="black" stroke="black" points="1896.36,-61.475 1901.17,-52.0355 1891.53,-56.4144 1896.36,-61.475"/>
</g>
<!-- EAID_2EBED7D5_4495_4059_BA0E_4D728387BA92___EAID_42075E84_D354_49ba_A97B_9324B515CB24 -->
<g id="node5" class="node"><title>EAID_2EBED7D5_4495_4059_BA0E_4D728387BA92___EAID_42075E84_D354_49ba_A97B_9324B515CB24</title>
<image xlink:href="img/activity_icon.png" width="30px" height="20px" preserveAspectRatio="xMinYMin meet" x="1586.5" y="-499"/>
<text text-anchor="start" x="1543" y="-464.8" font-family="Times New Roman,serif" font-weight="bold" font-size="14.00">Receive report bad</text>
<text text-anchor="start" x="1519" y="-450.8" font-family="Times New Roman,serif" font-weight="bold" font-size="14.00">driver command:Fetch two</text>
<text text-anchor="start" x="1547.5" y="-436.8" font-family="Times New Roman,serif" font-weight="bold" font-size="14.00">most recent video</text>
<text text-anchor="start" x="1587.5" y="-422.8" font-family="Times New Roman,serif" font-weight="bold" font-size="14.00">clips</text>
</g>
<!-- EAID_2EBED7D5_4495_4059_BA0E_4D728387BA92___EAID_42075E84_D354_49ba_A97B_9324B515CB24&#45;&gt;EAID_42075E84_D354_49ba_A97B_9324B515CB24___EAID_C1444D2B_1F11_4cea_BAEF_96F023C0C6B3 -->
<g id="edge4" class="edge"><title>EAID_2EBED7D5_4495_4059_BA0E_4D728387BA92___EAID_42075E84_D354_49ba_A97B_9324B515CB24&#45;&gt;EAID_42075E84_D354_49ba_A97B_9324B515CB24___EAID_C1444D2B_1F11_4cea_BAEF_96F023C0C6B3</title>
<path fill="none" stroke="black" d="M1523.59,-412.842C1506.4,-402.819 1488.23,-392.22 1471.19,-382.275"/>
<polygon fill="black" stroke="black" points="1472.79,-379.156 1462.38,-377.14 1469.26,-385.202 1472.79,-379.156"/>
</g>
<!-- EAID_2EBED7D5_4495_4059_BA0E_4D728387BA92___EAID_42075E84_D354_49ba_A97B_9324B515CB24&#45;&gt;EAID_42075E84_D354_49ba_A97B_9324B515CB24___EAID_FDEDB62A_89D0_4283_B3C6_718A332B303F -->
<g id="edge5" class="edge"><title>EAID_2EBED7D5_4495_4059_BA0E_4D728387BA92___EAID_42075E84_D354_49ba_A97B_9324B515CB24&#45;&gt;EAID_42075E84_D354_49ba_A97B_9324B515CB24___EAID_FDEDB62A_89D0_4283_B3C6_718A332B303F</title>
<path fill="none" stroke="black" d="M1601.76,-412.672C1601.9,-404.36 1602.05,-395.656 1602.19,-387.262"/>
<polygon fill="black" stroke="black" points="1605.69,-387.282 1602.36,-377.224 1598.69,-387.164 1605.69,-387.282"/>
</g>
<!-- EAID_B8C3480D_A766_40ef_81CE_C0CB5E409BAD -->
<g id="node17" class="node"><title>EAID_B8C3480D_A766_40ef_81CE_C0CB5E409BAD</title>
<polygon fill="none" stroke="black" points="1750,-23 1750,-44 1829,-44 1829,-23 1750,-23"/>
<text text-anchor="start" x="1753" y="-30.8" font-family="Times New Roman,serif" font-weight="bold" font-size="14.00">Email client</text>
<polygon fill="none" stroke="black" points="1748.5,-22.5 1748.5,-45.5 1829.5,-45.5 1829.5,-22.5 1748.5,-22.5"/>
</g>
<!-- EAID_2EBED7D5_4495_4059_BA0E_4D728387BA92___EAID_42075E84_D354_49ba_A97B_9324B515CB24&#45;&gt;EAID_B8C3480D_A766_40ef_81CE_C0CB5E409BAD -->
<g id="edge15" class="edge"><title>EAID_2EBED7D5_4495_4059_BA0E_4D728387BA92___EAID_42075E84_D354_49ba_A97B_9324B515CB24&#45;&gt;EAID_B8C3480D_A766_40ef_81CE_C0CB5E409BAD</title>
<path fill="none" stroke="black" stroke-dasharray="5,2" d="M1675.81,-412.927C1688.41,-402.49 1700.22,-390.442 1709,-377 1775.68,-274.895 1787,-123.599 1788.76,-62.2849"/>
<polygon fill="black" stroke="black" points="1792.26,-62.3196 1788.99,-52.244 1785.27,-62.1635 1792.26,-62.3196"/>
</g>
<!-- EAID_4A82BA02_86AA_4146_9AA7_E4CBEE3AD3C1___EAID_2EBED7D5_4495_4059_BA0E_4D728387BA92 -->
<g id="node6" class="node"><title>EAID_4A82BA02_86AA_4146_9AA7_E4CBEE3AD3C1___EAID_2EBED7D5_4495_4059_BA0E_4D728387BA92</title>
<image xlink:href="img/activity_icon.png" width="30px" height="20px" preserveAspectRatio="xMinYMin meet" x="1576" y="-613"/>
<text text-anchor="start" x="1499" y="-578.8" font-family="Times New Roman,serif" font-weight="bold" font-size="14.00">Recording video clips:Receive</text>
<text text-anchor="start" x="1538" y="-564.8" font-family="Times New Roman,serif" font-weight="bold" font-size="14.00">report bad driver</text>
<text text-anchor="start" x="1561" y="-550.8" font-family="Times New Roman,serif" font-weight="bold" font-size="14.00">command</text>
</g>
<!-- EAID_4A82BA02_86AA_4146_9AA7_E4CBEE3AD3C1___EAID_2EBED7D5_4495_4059_BA0E_4D728387BA92&#45;&gt;EAID_2EBED7D5_4495_4059_BA0E_4D728387BA92___EAID_42075E84_D354_49ba_A97B_9324B515CB24 -->
<g id="edge6" class="edge"><title>EAID_4A82BA02_86AA_4146_9AA7_E4CBEE3AD3C1___EAID_2EBED7D5_4495_4059_BA0E_4D728387BA92&#45;&gt;EAID_2EBED7D5_4495_4059_BA0E_4D728387BA92___EAID_42075E84_D354_49ba_A97B_9324B515CB24</title>
<path fill="none" stroke="black" d="M1594.22,-540.693C1594.9,-532.586 1595.63,-523.876 1596.35,-515.283"/>
<polygon fill="black" stroke="black" points="1599.84,-515.552 1597.19,-505.294 1592.87,-514.966 1599.84,-515.552"/>
</g>
<!-- EAID_4A82BA02_86AA_4146_9AA7_E4CBEE3AD3C1___EAID_2EBED7D5_4495_4059_BA0E_4D728387BA92&#45;&gt;EAID_57588212_E614_48e0_8F4A_81BEF06B8020 -->
<g id="edge16" class="edge"><title>EAID_4A82BA02_86AA_4146_9AA7_E4CBEE3AD3C1___EAID_2EBED7D5_4495_4059_BA0E_4D728387BA92&#45;&gt;EAID_57588212_E614_48e0_8F4A_81BEF06B8020</title>
<path fill="none" stroke="black" stroke-dasharray="5,2" d="M1693.05,-549.014C1785.71,-514.756 1908,-448.755 1908,-339 1908,-339 1908,-339 1908,-230 1908,-170.129 1913.23,-100.081 1916.48,-62.3769"/>
<polygon fill="black" stroke="black" points="1919.99,-62.4663 1917.38,-52.1977 1913.01,-61.852 1919.99,-62.4663"/>
</g>
<!-- EAID_FDEDB62A_89D0_4283_B3C6_718A332B303F___EAID_4A82BA02_86AA_4146_9AA7_E4CBEE3AD3C1&#45;&gt;EAID_4A82BA02_86AA_4146_9AA7_E4CBEE3AD3C1___EAID_39D3874C_2C69_4c48_ABEE_92C8530E373C -->
<g id="edge7" class="edge"><title>EAID_FDEDB62A_89D0_4283_B3C6_718A332B303F___EAID_4A82BA02_86AA_4146_9AA7_E4CBEE3AD3C1&#45;&gt;EAID_4A82BA02_86AA_4146_9AA7_E4CBEE3AD3C1___EAID_39D3874C_2C69_4c48_ABEE_92C8530E373C</title>
<path fill="none" stroke="black" d="M1388.13,-198.992C1384.06,-190.502 1379.58,-181.175 1375.3,-172.248"/>
<polygon fill="black" stroke="black" points="1378.42,-170.646 1370.94,-163.142 1372.1,-173.673 1378.42,-170.646"/>
</g>
<!-- EAID_FDEDB62A_89D0_4283_B3C6_718A332B303F___EAID_4A82BA02_86AA_4146_9AA7_E4CBEE3AD3C1&#45;&gt;EAID_4A82BA02_86AA_4146_9AA7_E4CBEE3AD3C1___EAID_2EBED7D5_4495_4059_BA0E_4D728387BA92 -->
<g id="edge8" class="edge"><title>EAID_FDEDB62A_89D0_4283_B3C6_718A332B303F___EAID_4A82BA02_86AA_4146_9AA7_E4CBEE3AD3C1&#45;&gt;EAID_4A82BA02_86AA_4146_9AA7_E4CBEE3AD3C1___EAID_2EBED7D5_4495_4059_BA0E_4D728387BA92</title>
<path fill="none" stroke="black" d="M1331.59,-263.112C1317.74,-272.561 1305.04,-284.413 1297,-299 1280.27,-329.363 1280.86,-346.322 1297,-377 1336.18,-451.456 1416.58,-503.777 1483.41,-536.486"/>
<polygon fill="black" stroke="black" points="1482.22,-539.795 1492.74,-540.972 1485.25,-533.486 1482.22,-539.795"/>
</g>
<!-- EAID_00E1699A_4B0A_487b_9FBD_32AC73BB59F3 -->
<g id="node16" class="node"><title>EAID_00E1699A_4B0A_487b_9FBD_32AC73BB59F3</title>
<polygon fill="none" stroke="black" points="1445,-23 1445,-44 1713,-44 1713,-23 1445,-23"/>
<text text-anchor="start" x="1448" y="-30.8" font-family="Times New Roman,serif" font-weight="bold" font-size="14.00">Capture frame from video and extract LP#</text>
<polygon fill="none" stroke="black" points="1444,-22.5 1444,-45.5 1714,-45.5 1714,-22.5 1444,-22.5"/>
</g>
<!-- EAID_FDEDB62A_89D0_4283_B3C6_718A332B303F___EAID_4A82BA02_86AA_4146_9AA7_E4CBEE3AD3C1&#45;&gt;EAID_00E1699A_4B0A_487b_9FBD_32AC73BB59F3 -->
<g id="edge17" class="edge"><title>EAID_FDEDB62A_89D0_4283_B3C6_718A332B303F___EAID_4A82BA02_86AA_4146_9AA7_E4CBEE3AD3C1&#45;&gt;EAID_00E1699A_4B0A_487b_9FBD_32AC73BB59F3</title>
<path fill="none" stroke="black" stroke-dasharray="5,2" d="M1431.28,-198.67C1466.24,-159.935 1525.01,-94.818 1556.87,-59.5245"/>
<polygon fill="black" stroke="black" points="1559.51,-61.8214 1563.61,-52.0528 1554.31,-57.1313 1559.51,-61.8214"/>
</g>
<!-- EAID_1BC28549_618A_4bfb_B02C_5B74F15F21EF___EAID_4A82BA02_86AA_4146_9AA7_E4CBEE3AD3C1&#45;&gt;EAID_4A82BA02_86AA_4146_9AA7_E4CBEE3AD3C1___EAID_39D3874C_2C69_4c48_ABEE_92C8530E373C -->
<g id="edge9" class="edge"><title>EAID_1BC28549_618A_4bfb_B02C_5B74F15F21EF___EAID_4A82BA02_86AA_4146_9AA7_E4CBEE3AD3C1&#45;&gt;EAID_4A82BA02_86AA_4146_9AA7_E4CBEE3AD3C1___EAID_39D3874C_2C69_4c48_ABEE_92C8530E373C</title>
<path fill="none" stroke="black" d="M1468.66,-654.957C1378.02,-622.749 1267,-562.398 1267,-460 1267,-460 1267,-460 1267,-337 1267,-275.506 1249.16,-253.83 1277,-199 1282.47,-188.227 1290.51,-178.493 1299.4,-169.996"/>
<polygon fill="black" stroke="black" points="1301.92,-172.438 1307.02,-163.153 1297.24,-167.228 1301.92,-172.438"/>
</g>
<!-- EAID_1BC28549_618A_4bfb_B02C_5B74F15F21EF___EAID_4A82BA02_86AA_4146_9AA7_E4CBEE3AD3C1&#45;&gt;EAID_4A82BA02_86AA_4146_9AA7_E4CBEE3AD3C1___EAID_2EBED7D5_4495_4059_BA0E_4D728387BA92 -->
<g id="edge10" class="edge"><title>EAID_1BC28549_618A_4bfb_B02C_5B74F15F21EF___EAID_4A82BA02_86AA_4146_9AA7_E4CBEE3AD3C1&#45;&gt;EAID_4A82BA02_86AA_4146_9AA7_E4CBEE3AD3C1___EAID_2EBED7D5_4495_4059_BA0E_4D728387BA92</title>
<path fill="none" stroke="black" d="M1586.08,-654.781C1586.61,-646.786 1587.2,-637.999 1587.78,-629.362"/>
<polygon fill="black" stroke="black" points="1591.27,-629.559 1588.44,-619.348 1584.29,-629.093 1591.27,-629.559"/>
</g>
<!-- EAID_1BC28549_618A_4bfb_B02C_5B74F15F21EF___EAID_4A82BA02_86AA_4146_9AA7_E4CBEE3AD3C1&#45;&gt;EAID_00E1699A_4B0A_487b_9FBD_32AC73BB59F3 -->
<g id="edge18" class="edge"><title>EAID_1BC28549_618A_4bfb_B02C_5B74F15F21EF___EAID_4A82BA02_86AA_4146_9AA7_E4CBEE3AD3C1&#45;&gt;EAID_00E1699A_4B0A_487b_9FBD_32AC73BB59F3</title>
<path fill="none" stroke="black" stroke-dasharray="5,2" d="M1662.11,-654.815C1677.4,-645.411 1691.84,-633.596 1702,-619 1742.92,-560.237 1728,-531.605 1728,-460 1728,-460 1728,-460 1728,-230 1728,-154.751 1657.08,-90.5165 1613.1,-57.9155"/>
<polygon fill="black" stroke="black" points="1615.1,-55.0483 1604.95,-52.0118 1611,-60.7155 1615.1,-55.0483"/>
</g>
<!-- EAID_E4583B1B_6FCA_4c94_B28E_AD82F71B4E3E___EAID_1BC28549_618A_4bfb_B02C_5B74F15F21EF_STL -->
<g id="node9" class="node"><title>EAID_E4583B1B_6FCA_4c94_B28E_AD82F71B4E3E___EAID_1BC28549_618A_4bfb_B02C_5B74F15F21EF_STL</title>
<image xlink:href="img/stimulus_icon.png" width="30px" height="20px" preserveAspectRatio="xMinYMin meet" x="1584.5" y="-897.5"/>
<text text-anchor="start" x="1513" y="-863.3" font-family="Times New Roman,serif" font-weight="bold" font-size="14.00">stl#Driver:Recording screen</text>
</g>
<!-- EAID_E4583B1B_6FCA_4c94_B28E_AD82F71B4E3E___EAID_1BC28549_618A_4bfb_B02C_5B74F15F21EF_STL&#45;&gt;EAID_E4583B1B_6FCA_4c94_B28E_AD82F71B4E3E___EAID_1BC28549_618A_4bfb_B02C_5B74F15F21EF -->
<g id="edge2" class="edge"><title>EAID_E4583B1B_6FCA_4c94_B28E_AD82F71B4E3E___EAID_1BC28549_618A_4bfb_B02C_5B74F15F21EF_STL&#45;&gt;EAID_E4583B1B_6FCA_4c94_B28E_AD82F71B4E3E___EAID_1BC28549_618A_4bfb_B02C_5B74F15F21EF</title>
<path fill="none" stroke="black" d="M1599,-852.778C1599,-841.692 1599,-828.42 1599,-816.351"/>
<polygon fill="black" stroke="black" points="1602.5,-816.139 1599,-806.139 1595.5,-816.139 1602.5,-816.139"/>
</g>
<!-- EAID_B1636B12_8124_4e9d_BE67_509C4A398FC6 -->
<g id="node10" class="node"><title>EAID_B1636B12_8124_4e9d_BE67_509C4A398FC6</title>
<polygon fill="none" stroke="black" points="2480,-23 2480,-44 2541,-44 2541,-23 2480,-23"/>
<text text-anchor="start" x="2483" y="-30.8" font-family="Times New Roman,serif" font-weight="bold" font-size="14.00">App user</text>
<polygon fill="none" stroke="black" points="2478.5,-22.5 2478.5,-45.5 2541.5,-45.5 2541.5,-22.5 2478.5,-22.5"/>
</g>
<!-- EAID_265385DE_97B5_4ab2_A0B7_DDFB6519AA1E -->
<g id="node11" class="node"><title>EAID_265385DE_97B5_4ab2_A0B7_DDFB6519AA1E</title>
<polygon fill="none" stroke="black" points="2295,-23 2295,-44 2443,-44 2443,-23 2295,-23"/>
<text text-anchor="start" x="2298" y="-30.8" font-family="Times New Roman,serif" font-weight="bold" font-size="14.00">display failure message</text>
<polygon fill="none" stroke="black" points="2294,-22.5 2294,-45.5 2444,-45.5 2444,-22.5 2294,-22.5"/>
</g>
<!-- EAID_63C9FF09_6946_4f93_B689_2513C0FD295F -->
<g id="node13" class="node"><title>EAID_63C9FF09_6946_4f93_B689_2513C0FD295F</title>
<polygon fill="none" stroke="black" points="2010,-23 2010,-44 2129,-44 2129,-23 2010,-23"/>
<text text-anchor="start" x="2013" y="-30.8" font-family="Times New Roman,serif" font-weight="bold" font-size="14.00">Account collection</text>
<polygon fill="none" stroke="black" points="2008.5,-22.5 2008.5,-45.5 2129.5,-45.5 2129.5,-22.5 2008.5,-22.5"/>
</g>
<!-- EAID_06913D99_4EA4_4fd5_854B_1CCA6EDD344C -->
<g id="node18" class="node"><title>EAID_06913D99_4EA4_4fd5_854B_1CCA6EDD344C</title>
<polygon fill="none" stroke="black" points="1085,-23 1085,-44 1272,-44 1272,-23 1085,-23"/>
<text text-anchor="start" x="1088" y="-30.8" font-family="Times New Roman,serif" font-weight="bold" font-size="14.00">Describe LP# in editable field</text>
<polygon fill="none" stroke="black" points="1083.5,-22.5 1083.5,-45.5 1272.5,-45.5 1272.5,-22.5 1083.5,-22.5"/>
</g>
<!-- EAID_6EC92B63_013A_4627_B721_9D2FE777044D -->
<g id="node19" class="node"><title>EAID_6EC92B63_013A_4627_B721_9D2FE777044D</title>
<polygon fill="none" stroke="black" points="1004,-23 1004,-44 1048,-44 1048,-23 1004,-23"/>
<text text-anchor="start" x="1007" y="-30.8" font-family="Times New Roman,serif" font-weight="bold" font-size="14.00">Finish</text>
<polygon fill="none" stroke="black" points="1003,-22.5 1003,-45.5 1049,-45.5 1049,-22.5 1003,-22.5"/>
</g>
<!-- EAID_B872B6DB_6D9B_4b3c_8652_0D748D4769AB -->
<g id="node20" class="node"><title>EAID_B872B6DB_6D9B_4b3c_8652_0D748D4769AB</title>
<polygon fill="none" stroke="black" points="863,-23 863,-44 968,-44 968,-23 863,-23"/>
<text text-anchor="start" x="866" y="-30.8" font-family="Times New Roman,serif" font-weight="bold" font-size="14.00">emergency alert</text>
<polygon fill="none" stroke="black" points="861.5,-22.5 861.5,-45.5 968.5,-45.5 968.5,-22.5 861.5,-22.5"/>
</g>
<!-- EAID_9199F281_1979_4dd9_8B39_52FCC0E3A5B3 -->
<g id="node21" class="node"><title>EAID_9199F281_1979_4dd9_8B39_52FCC0E3A5B3</title>
<polygon fill="none" stroke="black" points="662,-23 662,-44 827,-44 827,-23 662,-23"/>
<text text-anchor="start" x="665" y="-30.8" font-family="Times New Roman,serif" font-weight="bold" font-size="14.00">unauthoried access popup</text>
<polygon fill="none" stroke="black" points="660.5,-22.5 660.5,-45.5 827.5,-45.5 827.5,-22.5 660.5,-22.5"/>
</g>
<!-- EAID_4B8019F0_C2E6_4083_B3D4_85ED9DEA5A61 -->
<g id="node22" class="node"><title>EAID_4B8019F0_C2E6_4083_B3D4_85ED9DEA5A61</title>
<polygon fill="none" stroke="black" points="531,-23 531,-44 626,-44 626,-23 531,-23"/>
<text text-anchor="start" x="534" y="-30.8" font-family="Times New Roman,serif" font-weight="bold" font-size="14.00">Review Queue</text>
<polygon fill="none" stroke="black" points="529.5,-22.5 529.5,-45.5 626.5,-45.5 626.5,-22.5 529.5,-22.5"/>
</g>
<!-- EAID_C0758333_DC7C_42f1_8E1B_E09C3BD020DB -->
<g id="node24" class="node"><title>EAID_C0758333_DC7C_42f1_8E1B_E09C3BD020DB</title>
<polygon fill="none" stroke="black" points="247,-23 247,-44 365,-44 365,-23 247,-23"/>
<text text-anchor="start" x="250" y="-30.8" font-family="Times New Roman,serif" font-weight="bold" font-size="14.00">Upload video clips</text>
<polygon fill="none" stroke="black" points="246,-22.5 246,-45.5 366,-45.5 366,-22.5 246,-22.5"/>
</g>
<!-- EAID_DD7C5EE5_303D_4d3d_99A9_54492603DFDD -->
<g id="node25" class="node"><title>EAID_DD7C5EE5_303D_4d3d_99A9_54492603DFDD</title>
<polygon fill="none" stroke="black" points="26,-23 26,-44 211,-44 211,-23 26,-23"/>
<text text-anchor="start" x="29" y="-30.8" font-family="Times New Roman,serif" font-weight="bold" font-size="14.00">Stop Recording and store file</text>
<polygon fill="none" stroke="black" points="24.5,-22.5 24.5,-45.5 211.5,-45.5 211.5,-22.5 24.5,-22.5"/>
</g>
</g>
</svg>
