<?xml version="1.0" encoding="UTF-8" standalone="no"?>
<!DOCTYPE svg PUBLIC "-//W3C//DTD SVG 1.1//EN"
 "http://www.w3.org/Graphics/SVG/1.1/DTD/svg11.dtd">
<!-- Generated by graphviz version 2.38.0 (20140413.2041)
 -->
<!-- Title: g Pages: 1 -->
<svg width="149pt" height="188pt"
 viewBox="0.00 0.00 148.64 188.00" xmlns="http://www.w3.org/2000/svg" xmlns:xlink="http://www.w3.org/1999/xlink">
<g id="graph0" class="graph" transform="scale(1 1) rotate(0) translate(4 184)">
<title>g</title>
<polygon fill="white" stroke="none" points="-4,4 -4,-184 144.641,-184 144.641,4 -4,4"/>
<!-- Database -->
<g id="node1" class="node"><title>Database</title>
<ellipse fill="none" stroke="black" cx="53.9452" cy="-162" rx="44.393" ry="18"/>
<text text-anchor="middle" x="53.9452" y="-158.3" font-family="Times New Roman,serif" font-size="14.00">Database</text>
</g>
<!-- Match API -->
<g id="node2" class="node"><title>Match API</title>
<ellipse fill="none" stroke="black" cx="53.9452" cy="-90" rx="50.8918" ry="18"/>
<text text-anchor="middle" x="53.9452" y="-86.3" font-family="Times New Roman,serif" font-size="14.00">Match API</text>
</g>
<!-- Database&#45;&gt;Match API -->
<g id="edge1" class="edge"><title>Database&#45;&gt;Match API</title>
<path fill="none" stroke="black" d="M48.067,-144.055C47.2489,-136.346 47.0066,-127.027 47.3401,-118.364"/>
<polygon fill="black" stroke="black" points="50.8395,-118.491 48.0324,-108.275 43.8559,-118.012 50.8395,-118.491"/>
</g>
<!-- Match API&#45;&gt;Database -->
<g id="edge3" class="edge"><title>Match API&#45;&gt;Database</title>
<path fill="none" stroke="black" d="M59.858,-108.275C60.6597,-116.03 60.8856,-125.362 60.5358,-134.005"/>
<polygon fill="black" stroke="black" points="57.0393,-133.832 59.8234,-144.055 64.0218,-134.327 57.0393,-133.832"/>
</g>
<!-- Match API&#45;&gt;Match API -->
<g id="edge2" class="edge"><title>Match API&#45;&gt;Match API</title>
<path fill="none" stroke="black" d="M101.143,-96.6804C113.399,-96.2698 122.641,-94.043 122.641,-90 122.641,-87.2205 118.273,-85.2993 111.56,-84.2367"/>
<polygon fill="black" stroke="black" points="111.411,-80.7101 101.143,-83.3196 110.797,-87.6832 111.411,-80.7101"/>
</g>
<!-- Match API&#45;&gt;Match API -->
<g id="edge5" class="edge"><title>Match API&#45;&gt;Match API</title>
<path fill="none" stroke="black" d="M91.3723,-102.31C116.339,-105.775 140.641,-101.672 140.641,-90 140.641,-79.9239 122.53,-75.4882 101.515,-76.693"/>
<polygon fill="black" stroke="black" points="100.982,-73.2284 91.3723,-77.6898 101.667,-80.1948 100.982,-73.2284"/>
</g>
<!-- Match Page -->
<g id="node3" class="node"><title>Match Page</title>
<ellipse fill="none" stroke="black" cx="53.9452" cy="-18" rx="53.8905" ry="18"/>
<text text-anchor="middle" x="53.9452" y="-14.3" font-family="Times New Roman,serif" font-size="14.00">Match Page</text>
</g>
<!-- Match API&#45;&gt;Match Page -->
<g id="edge4" class="edge"><title>Match API&#45;&gt;Match Page</title>
<path fill="none" stroke="black" d="M48.067,-72.055C47.2489,-64.3456 47.0066,-55.0269 47.3401,-46.3642"/>
<polygon fill="black" stroke="black" points="50.8395,-46.4915 48.0324,-36.2753 43.8559,-46.0122 50.8395,-46.4915"/>
</g>
<!-- Match Page&#45;&gt;Match API -->
<g id="edge6" class="edge"><title>Match Page&#45;&gt;Match API</title>
<path fill="none" stroke="black" d="M59.858,-36.2753C60.6597,-44.03 60.8856,-53.3618 60.5358,-62.0054"/>
<polygon fill="black" stroke="black" points="57.0393,-61.8325 59.8234,-72.055 64.0218,-62.3275 57.0393,-61.8325"/>
</g>
</g>
</svg>
