<?xml version="1.0" encoding="UTF-8" standalone="no"?>
<!DOCTYPE svg PUBLIC "-//W3C//DTD SVG 1.1//EN"
 "http://www.w3.org/Graphics/SVG/1.1/DTD/svg11.dtd">
<!-- Generated by graphviz version 2.38.0 (20140413.2041)
 -->
<!-- Title: g Pages: 1 -->
<svg width="238pt" height="260pt"
 viewBox="0.00 0.00 238.08 260.00" xmlns="http://www.w3.org/2000/svg" xmlns:xlink="http://www.w3.org/1999/xlink">
<g id="graph0" class="graph" transform="scale(1 1) rotate(0) translate(4 256)">
<title>g</title>
<polygon fill="white" stroke="none" points="-4,4 -4,-256 234.08,-256 234.08,4 -4,4"/>
<!-- Clear Local Storage and Exit -->
<g id="node1" class="node"><title>Clear Local Storage and Exit</title>
<ellipse fill="none" stroke="black" cx="115.04" cy="-90" rx="115.08" ry="18"/>
<text text-anchor="middle" x="115.04" y="-86.3" font-family="Times New Roman,serif" font-size="14.00">Clear Local Storage and Exit</text>
</g>
<!-- Local Storage -->
<g id="node2" class="node"><title>Local Storage</title>
<ellipse fill="none" stroke="black" cx="115.04" cy="-18" rx="61.99" ry="18"/>
<text text-anchor="middle" x="115.04" y="-14.3" font-family="Times New Roman,serif" font-size="14.00">Local Storage</text>
</g>
<!-- Clear Local Storage and Exit&#45;&gt;Local Storage -->
<g id="edge1" class="edge"><title>Clear Local Storage and Exit&#45;&gt;Local Storage</title>
<path fill="none" stroke="black" d="M115.04,-71.6966C115.04,-63.9827 115.04,-54.7125 115.04,-46.1124"/>
<polygon fill="black" stroke="black" points="118.54,-46.1043 115.04,-36.1043 111.54,-46.1044 118.54,-46.1043"/>
</g>
<!-- Logout Button -->
<g id="node3" class="node"><title>Logout Button</title>
<ellipse fill="none" stroke="black" cx="115.04" cy="-162" rx="63.8893" ry="18"/>
<text text-anchor="middle" x="115.04" y="-158.3" font-family="Times New Roman,serif" font-size="14.00">Logout Button</text>
</g>
<!-- Logout Button&#45;&gt;Clear Local Storage and Exit -->
<g id="edge2" class="edge"><title>Logout Button&#45;&gt;Clear Local Storage and Exit</title>
<path fill="none" stroke="black" d="M115.04,-143.697C115.04,-135.983 115.04,-126.712 115.04,-118.112"/>
<polygon fill="black" stroke="black" points="118.54,-118.104 115.04,-108.104 111.54,-118.104 118.54,-118.104"/>
</g>
<!-- User -->
<g id="node4" class="node"><title>User</title>
<ellipse fill="none" stroke="black" cx="115.04" cy="-234" rx="27.8951" ry="18"/>
<text text-anchor="middle" x="115.04" y="-230.3" font-family="Times New Roman,serif" font-size="14.00">User</text>
</g>
<!-- User&#45;&gt;Logout Button -->
<g id="edge3" class="edge"><title>User&#45;&gt;Logout Button</title>
<path fill="none" stroke="black" d="M115.04,-215.697C115.04,-207.983 115.04,-198.712 115.04,-190.112"/>
<polygon fill="black" stroke="black" points="118.54,-190.104 115.04,-180.104 111.54,-190.104 118.54,-190.104"/>
</g>
</g>
</svg>
