<?xml version="1.0" encoding="UTF-8" standalone="no"?>
<!DOCTYPE svg PUBLIC "-//W3C//DTD SVG 1.1//EN"
 "http://www.w3.org/Graphics/SVG/1.1/DTD/svg11.dtd">
<!-- Generated by graphviz version 2.38.0 (20140413.2041)
 -->
<!-- Title: g Pages: 1 -->
<svg width="1233pt" height="395pt"
 viewBox="0.00 0.00 1233.00 395.00" xmlns="http://www.w3.org/2000/svg" xmlns:xlink="http://www.w3.org/1999/xlink">
<g id="graph0" class="graph" transform="scale(1 1) rotate(0) translate(4 391)">
<title>g</title>
<polygon fill="white" stroke="none" points="-4,4 -4,-391 1229,-391 1229,4 -4,4"/>
<!-- EAID_72077792_C50B_42bf_9F40_F58F32EB54A2 -->
<g id="node1" class="node"><title>EAID_72077792_C50B_42bf_9F40_F58F32EB54A2</title>
<image xlink:href="img/actor1.png" width="61px" height="90px" preserveAspectRatio="xMinYMin meet" x="10.5" y="-190.5"/>
<text text-anchor="start" x="19" y="-77.3" font-family="Times New Roman,serif" font-size="24.00">User</text>
</g>
<!-- EAID_48E718DE_1796_4024_838F_49E94DF2B3DE -->
<g id="node2" class="node"><title>EAID_48E718DE_1796_4024_838F_49E94DF2B3DE</title>
<image xlink:href="img/boundary3.png" width="115px" height="67px" preserveAspectRatio="xMinYMin meet" x="129.5" y="-226.5"/>
<text text-anchor="start" x="127" y="-136.3" font-family="Times New Roman,serif" font-size="24.00">Battle Scene</text>
</g>
<!-- EAID_72077792_C50B_42bf_9F40_F58F32EB54A2&#45;&gt;EAID_48E718DE_1796_4024_838F_49E94DF2B3DE -->
<g id="edge1" class="edge"><title>EAID_72077792_C50B_42bf_9F40_F58F32EB54A2&#45;&gt;EAID_48E718DE_1796_4024_838F_49E94DF2B3DE</title>
<path fill="none" stroke="black" d="M81.3678,-143.743C89.4657,-146.433 98.2479,-149.351 107.165,-152.313"/>
<polygon fill="black" stroke="black" points="106.274,-155.705 116.868,-155.536 108.481,-149.062 106.274,-155.705"/>
</g>
<!-- EAID_1360F0FD_5A98_4737_AA9D_60C3BCC89876 -->
<g id="node3" class="node"><title>EAID_1360F0FD_5A98_4737_AA9D_60C3BCC89876</title>
<image xlink:href="img/boundary3.png" width="86px" height="67px" preserveAspectRatio="xMinYMin meet" x="399.5" y="-107.5"/>
<text text-anchor="start" x="399.5" y="-17.3" font-family="Times New Roman,serif" font-size="24.00">Minimap</text>
</g>
<!-- EAID_72077792_C50B_42bf_9F40_F58F32EB54A2&#45;&gt;EAID_1360F0FD_5A98_4737_AA9D_60C3BCC89876 -->
<g id="edge2" class="edge"><title>EAID_72077792_C50B_42bf_9F40_F58F32EB54A2&#45;&gt;EAID_1360F0FD_5A98_4737_AA9D_60C3BCC89876</title>
<path fill="none" stroke="black" d="M81.0143,-121.808C92.5917,-119.347 105.286,-116.733 117,-114.5 207.974,-97.1582 313.827,-79.729 379.251,-69.2744"/>
<polygon fill="black" stroke="black" points="380.071,-72.6879 389.396,-67.6574 378.97,-65.7751 380.071,-72.6879"/>
</g>
<!-- EAID_5F238761_4830_4bb7_AFFF_06FDA2C27AF7 -->
<g id="node8" class="node"><title>EAID_5F238761_4830_4bb7_AFFF_06FDA2C27AF7</title>
<image xlink:href="img/control1.png" width="106px" height="75px" preserveAspectRatio="xMinYMin meet" x="390" y="-244.5"/>
<text text-anchor="start" x="303.5" y="-146.3" font-family="Times New Roman,serif" font-size="24.00">Check if weapon hit the army</text>
</g>
<!-- EAID_48E718DE_1796_4024_838F_49E94DF2B3DE&#45;&gt;EAID_5F238761_4830_4bb7_AFFF_06FDA2C27AF7 -->
<g id="edge5" class="edge"><title>EAID_48E718DE_1796_4024_838F_49E94DF2B3DE&#45;&gt;EAID_5F238761_4830_4bb7_AFFF_06FDA2C27AF7</title>
<path fill="none" stroke="black" d="M257.27,-182.326C265.471,-182.778 274.08,-183.254 282.909,-183.742"/>
<polygon fill="black" stroke="black" points="282.783,-187.24 292.961,-184.297 283.169,-180.25 282.783,-187.24"/>
</g>
<!-- EAID_8F1E9C8E_3217_4231_B878_9CA70DF2BC6E -->
<g id="node10" class="node"><title>EAID_8F1E9C8E_3217_4231_B878_9CA70DF2BC6E</title>
<image xlink:href="img/control1.png" width="106px" height="75px" preserveAspectRatio="xMinYMin meet" x="676" y="-110.5"/>
<text text-anchor="start" x="649" y="-12.3" font-family="Times New Roman,serif" font-size="24.00">Update Minimap</text>
</g>
<!-- EAID_1360F0FD_5A98_4737_AA9D_60C3BCC89876&#45;&gt;EAID_8F1E9C8E_3217_4231_B878_9CA70DF2BC6E -->
<g id="edge10" class="edge"><title>EAID_1360F0FD_5A98_4737_AA9D_60C3BCC89876&#45;&gt;EAID_8F1E9C8E_3217_4231_B878_9CA70DF2BC6E</title>
<path fill="none" stroke="black" d="M495.682,-59.3166C532.891,-59.1858 584.068,-59.0059 628.92,-58.8483"/>
<polygon fill="black" stroke="black" points="628.992,-62.3481 638.979,-58.8129 628.967,-55.3482 628.992,-62.3481"/>
</g>
<!-- EAID_2023B554_BE69_4d56_8F12_D246E89B837D -->
<g id="node4" class="node"><title>EAID_2023B554_BE69_4d56_8F12_D246E89B837D</title>
<image xlink:href="img/control1.png" width="106px" height="75px" preserveAspectRatio="xMinYMin meet" x="899" y="-245.5"/>
<text text-anchor="start" x="876.5" y="-147.3" font-family="Times New Roman,serif" font-size="24.00">Calculate Score</text>
</g>
<!-- EAID_DEC4CBC8_431D_423f_8E49_8464ADD21C8F -->
<g id="node5" class="node"><title>EAID_DEC4CBC8_431D_423f_8E49_8464ADD21C8F</title>
<image xlink:href="img/entity1.png" width="107px" height="72px" preserveAspectRatio="xMinYMin meet" x="1095.5" y="-244.5"/>
<text text-anchor="start" x="1083" y="-149.3" font-family="Times New Roman,serif" font-size="24.00">Achievements</text>
</g>
<!-- EAID_2023B554_BE69_4d56_8F12_D246E89B837D&#45;&gt;EAID_DEC4CBC8_431D_423f_8E49_8464ADD21C8F -->
<g id="edge3" class="edge"><title>EAID_2023B554_BE69_4d56_8F12_D246E89B837D&#45;&gt;EAID_DEC4CBC8_431D_423f_8E49_8464ADD21C8F</title>
<path fill="none" stroke="black" d="M1037.11,-193.5C1045.55,-193.5 1054.12,-193.5 1062.56,-193.5"/>
<polygon fill="black" stroke="black" points="1062.79,-197 1072.79,-193.5 1062.79,-190 1062.79,-197"/>
</g>
<!-- EAID_74850761_CC3A_4b36_8EF5_6BCBA352F326 -->
<g id="node6" class="node"><title>EAID_74850761_CC3A_4b36_8EF5_6BCBA352F326</title>
<image xlink:href="img/control1.png" width="106px" height="75px" preserveAspectRatio="xMinYMin meet" x="676" y="-380.5"/>
<text text-anchor="start" x="638" y="-282.3" font-family="Times New Roman,serif" font-size="24.00">Move Army Closer</text>
</g>
<!-- EAID_132D9836_83AF_46f8_9045_676944C77B65 -->
<g id="node7" class="node"><title>EAID_132D9836_83AF_46f8_9045_676944C77B65</title>
<image xlink:href="img/entity1.png" width="80px" height="72px" preserveAspectRatio="xMinYMin meet" x="911.5" y="-379.5"/>
<text text-anchor="start" x="922.5" y="-284.3" font-family="Times New Roman,serif" font-size="24.00">Battle</text>
</g>
<!-- EAID_74850761_CC3A_4b36_8EF5_6BCBA352F326&#45;&gt;EAID_132D9836_83AF_46f8_9045_676944C77B65 -->
<g id="edge4" class="edge"><title>EAID_74850761_CC3A_4b36_8EF5_6BCBA352F326&#45;&gt;EAID_132D9836_83AF_46f8_9045_676944C77B65</title>
<path fill="none" stroke="black" d="M830.249,-328.5C851.079,-328.5 872.389,-328.5 891.172,-328.5"/>
<polygon fill="black" stroke="black" points="891.328,-332 901.328,-328.5 891.328,-325 891.328,-332"/>
</g>
<!-- EAID_5F238761_4830_4bb7_AFFF_06FDA2C27AF7&#45;&gt;EAID_74850761_CC3A_4b36_8EF5_6BCBA352F326 -->
<g id="edge9" class="edge"><title>EAID_5F238761_4830_4bb7_AFFF_06FDA2C27AF7&#45;&gt;EAID_74850761_CC3A_4b36_8EF5_6BCBA352F326</title>
<path fill="none" stroke="black" d="M566.218,-251.163C583.602,-259.473 601.383,-267.973 618.495,-276.153"/>
<polygon fill="black" stroke="black" points="617.395,-279.507 627.926,-280.662 620.414,-273.191 617.395,-279.507"/>
</g>
<!-- EAID_F10EE142_4DED_4516_A85F_B3AAF60DF08E -->
<g id="node9" class="node"><title>EAID_F10EE142_4DED_4516_A85F_B3AAF60DF08E</title>
<image xlink:href="img/control1.png" width="106px" height="75px" preserveAspectRatio="xMinYMin meet" x="676.5" y="-245.5"/>
<text text-anchor="start" x="644" y="-147.3" font-family="Times New Roman,serif" font-size="24.00">Destroy armyMan</text>
</g>
<!-- EAID_5F238761_4830_4bb7_AFFF_06FDA2C27AF7&#45;&gt;EAID_F10EE142_4DED_4516_A85F_B3AAF60DF08E -->
<g id="edge7" class="edge"><title>EAID_5F238761_4830_4bb7_AFFF_06FDA2C27AF7&#45;&gt;EAID_F10EE142_4DED_4516_A85F_B3AAF60DF08E</title>
<path fill="none" stroke="black" d="M592.416,-193.023C602.693,-193.06 612.924,-193.096 622.894,-193.131"/>
<polygon fill="black" stroke="black" points="623.167,-196.631 633.179,-193.167 623.192,-189.631 623.167,-196.631"/>
</g>
<!-- EAID_5F238761_4830_4bb7_AFFF_06FDA2C27AF7&#45;&gt;EAID_8F1E9C8E_3217_4231_B878_9CA70DF2BC6E -->
<g id="edge8" class="edge"><title>EAID_5F238761_4830_4bb7_AFFF_06FDA2C27AF7&#45;&gt;EAID_8F1E9C8E_3217_4231_B878_9CA70DF2BC6E</title>
<path fill="none" stroke="black" d="M567.872,-133.921C588.618,-124.149 609.879,-114.135 629.853,-104.727"/>
<polygon fill="black" stroke="black" points="631.378,-107.878 638.934,-100.45 628.395,-101.545 631.378,-107.878"/>
</g>
<!-- EAID_F10EE142_4DED_4516_A85F_B3AAF60DF08E&#45;&gt;EAID_2023B554_BE69_4d56_8F12_D246E89B837D -->
<g id="edge6" class="edge"><title>EAID_F10EE142_4DED_4516_A85F_B3AAF60DF08E&#45;&gt;EAID_2023B554_BE69_4d56_8F12_D246E89B837D</title>
<path fill="none" stroke="black" d="M824.792,-193.5C835.034,-193.5 845.458,-193.5 855.701,-193.5"/>
<polygon fill="black" stroke="black" points="855.87,-197 865.87,-193.5 855.87,-190 855.87,-197"/>
</g>
</g>
</svg>
