<?xml version="1.0" encoding="UTF-8" standalone="no"?>
<!DOCTYPE svg PUBLIC "-//W3C//DTD SVG 1.1//EN"
 "http://www.w3.org/Graphics/SVG/1.1/DTD/svg11.dtd">
<!-- Generated by graphviz version 2.38.0 (20140413.2041)
 -->
<!-- Title: g Pages: 1 -->
<svg width="2777pt" height="528pt"
 viewBox="0.00 0.00 2777.00 527.50" xmlns="http://www.w3.org/2000/svg" xmlns:xlink="http://www.w3.org/1999/xlink">
<g id="graph0" class="graph" transform="scale(1 1) rotate(0) translate(4 523.5)">
<title>g</title>
<polygon fill="white" stroke="none" points="-4,4 -4,-523.5 2773,-523.5 2773,4 -4,4"/>
<!-- EAID_37EE273F_75E5_404e_8889_D563ACC7A8D8 -->
<g id="node1" class="node"><title>EAID_37EE273F_75E5_404e_8889_D563ACC7A8D8</title>
<image xlink:href="img/actor1.png" width="82px" height="90px" preserveAspectRatio="xMinYMin meet" x="30" y="-422"/>
<text text-anchor="start" x="10.5" y="-308.8" font-family="Times New Roman,serif" font-size="24.00">Weight loser</text>
</g>
<!-- EAID_8760C776_7CBA_4b30_8F23_D4927CF5B057 -->
<g id="node2" class="node"><title>EAID_8760C776_7CBA_4b30_8F23_D4927CF5B057</title>
<image xlink:href="img/boundary3.png" width="115px" height="67px" preserveAspectRatio="xMinYMin meet" x="277.5" y="-286"/>
<text text-anchor="start" x="187" y="-195.8" font-family="Times New Roman,serif" font-size="24.00">add charity organization button</text>
</g>
<!-- EAID_37EE273F_75E5_404e_8889_D563ACC7A8D8&#45;&gt;EAID_8760C776_7CBA_4b30_8F23_D4927CF5B057 -->
<g id="edge1" class="edge"><title>EAID_37EE273F_75E5_404e_8889_D563ACC7A8D8&#45;&gt;EAID_8760C776_7CBA_4b30_8F23_D4927CF5B057</title>
<path fill="none" stroke="black" d="M141.156,-329.096C162.141,-319.183 185.843,-307.987 209.267,-296.922"/>
<polygon fill="black" stroke="black" points="211.026,-299.961 218.573,-292.525 208.037,-293.632 211.026,-299.961"/>
</g>
<!-- EAID_BED33BD8_E9FE_4bb5_BDBB_767E4C91569C -->
<g id="node3" class="node"><title>EAID_BED33BD8_E9FE_4bb5_BDBB_767E4C91569C</title>
<image xlink:href="img/boundary3.png" width="115px" height="67px" preserveAspectRatio="xMinYMin meet" x="1894.5" y="-513"/>
<text text-anchor="start" x="1776.5" y="-422.8" font-family="Times New Roman,serif" font-size="24.00">access information on facebook error</text>
</g>
<!-- EAID_37EE273F_75E5_404e_8889_D563ACC7A8D8&#45;&gt;EAID_BED33BD8_E9FE_4bb5_BDBB_767E4C91569C -->
<g id="edge2" class="edge"><title>EAID_37EE273F_75E5_404e_8889_D563ACC7A8D8&#45;&gt;EAID_BED33BD8_E9FE_4bb5_BDBB_767E4C91569C</title>
<path fill="none" stroke="black" d="M141.173,-393.843C152.936,-398.215 165.17,-402.168 177,-405 396.246,-457.484 457.059,-447 682.5,-447 682.5,-447 682.5,-447 1437,-447 1542.32,-447 1659.73,-450.829 1755.66,-454.955"/>
<polygon fill="black" stroke="black" points="1755.62,-458.456 1765.76,-455.394 1755.92,-451.463 1755.62,-458.456"/>
</g>
<!-- EAID_9A27F520_ACCF_45cf_8E1E_DAC77E0608B5 -->
<g id="node4" class="node"><title>EAID_9A27F520_ACCF_45cf_8E1E_DAC77E0608B5</title>
<image xlink:href="img/boundary3.png" width="115px" height="67px" preserveAspectRatio="xMinYMin meet" x="1049.5" y="-357"/>
<text text-anchor="start" x="1009" y="-266.8" font-family="Times New Roman,serif" font-size="24.00">suggested charity list</text>
</g>
<!-- EAID_37EE273F_75E5_404e_8889_D563ACC7A8D8&#45;&gt;EAID_9A27F520_ACCF_45cf_8E1E_DAC77E0608B5 -->
<g id="edge3" class="edge"><title>EAID_37EE273F_75E5_404e_8889_D563ACC7A8D8&#45;&gt;EAID_9A27F520_ACCF_45cf_8E1E_DAC77E0608B5</title>
<path fill="none" stroke="black" d="M141.387,-358.42C315.863,-349.481 772.075,-326.108 988.634,-315.013"/>
<polygon fill="black" stroke="black" points="988.955,-318.501 998.763,-314.494 988.597,-311.51 988.955,-318.501"/>
</g>
<!-- EAID_34881016_182D_4924_8E1E_51D49968B422 -->
<g id="node5" class="node"><title>EAID_34881016_182D_4924_8E1E_51D49968B422</title>
<image xlink:href="img/boundary3.png" width="100px" height="67px" preserveAspectRatio="xMinYMin meet" x="1386" y="-283"/>
<text text-anchor="start" x="1386" y="-192.8" font-family="Times New Roman,serif" font-size="24.00">charity list</text>
</g>
<!-- EAID_37EE273F_75E5_404e_8889_D563ACC7A8D8&#45;&gt;EAID_34881016_182D_4924_8E1E_51D49968B422 -->
<g id="edge4" class="edge"><title>EAID_37EE273F_75E5_404e_8889_D563ACC7A8D8&#45;&gt;EAID_34881016_182D_4924_8E1E_51D49968B422</title>
<path fill="none" stroke="black" d="M141.321,-370.985C375.468,-399.831 1129.88,-481.989 1340,-372 1369.96,-356.315 1392.37,-326.404 1407.87,-298.523"/>
<polygon fill="black" stroke="black" points="1411.03,-300.031 1412.66,-289.562 1404.86,-296.731 1411.03,-300.031"/>
</g>
<!-- EAID_5E90FA4A_08DD_467b_ADC9_962032C5968F -->
<g id="node12" class="node"><title>EAID_5E90FA4A_08DD_467b_ADC9_962032C5968F</title>
<image xlink:href="img/control1.png" width="106px" height="75px" preserveAspectRatio="xMinYMin meet" x="631" y="-278"/>
<text text-anchor="start" x="539.5" y="-179.8" font-family="Times New Roman,serif" font-size="24.00">show a list of available charity</text>
</g>
<!-- EAID_8760C776_7CBA_4b30_8F23_D4927CF5B057&#45;&gt;EAID_5E90FA4A_08DD_467b_ADC9_962032C5968F -->
<g id="edge10" class="edge"><title>EAID_8760C776_7CBA_4b30_8F23_D4927CF5B057&#45;&gt;EAID_5E90FA4A_08DD_467b_ADC9_962032C5968F</title>
<path fill="none" stroke="black" d="M493.029,-232.562C501.588,-232.265 510.199,-231.967 518.78,-231.67"/>
<polygon fill="black" stroke="black" points="518.961,-235.166 528.833,-231.322 518.718,-228.17 518.961,-235.166"/>
</g>
<!-- EAID_9A27F520_ACCF_45cf_8E1E_DAC77E0608B5&#45;&gt;EAID_34881016_182D_4924_8E1E_51D49968B422 -->
<g id="edge15" class="edge"><title>EAID_9A27F520_ACCF_45cf_8E1E_DAC77E0608B5&#45;&gt;EAID_34881016_182D_4924_8E1E_51D49968B422</title>
<path fill="none" stroke="black" d="M1215.07,-284.77C1264.67,-273.546 1322.16,-260.536 1365.92,-250.633"/>
<polygon fill="black" stroke="black" points="1366.9,-253.999 1375.88,-248.378 1365.36,-247.172 1366.9,-253.999"/>
</g>
<!-- EAID_AC840369_2A5F_456e_A6EA_E8E8BE210BB5 -->
<g id="node8" class="node"><title>EAID_AC840369_2A5F_456e_A6EA_E8E8BE210BB5</title>
<image xlink:href="img/control1.png" width="106px" height="75px" preserveAspectRatio="xMinYMin meet" x="1578" y="-287"/>
<text text-anchor="start" x="1542" y="-188.8" font-family="Times New Roman,serif" font-size="24.00">add charity to goal</text>
</g>
<!-- EAID_34881016_182D_4924_8E1E_51D49968B422&#45;&gt;EAID_AC840369_2A5F_456e_A6EA_E8E8BE210BB5 -->
<g id="edge13" class="edge"><title>EAID_34881016_182D_4924_8E1E_51D49968B422&#45;&gt;EAID_AC840369_2A5F_456e_A6EA_E8E8BE210BB5</title>
<path fill="none" stroke="black" d="M1496.22,-235C1504.34,-235 1512.88,-235 1521.55,-235"/>
<polygon fill="black" stroke="black" points="1521.77,-238.5 1531.77,-235 1521.77,-231.5 1521.77,-238.5"/>
</g>
<!-- EAID_D5ECBF3A_5878_45e6_8781_2998B4AF05AD -->
<g id="node6" class="node"><title>EAID_D5ECBF3A_5878_45e6_8781_2998B4AF05AD</title>
<image xlink:href="img/control1.png" width="106px" height="75px" preserveAspectRatio="xMinYMin meet" x="2321" y="-386"/>
<text text-anchor="start" x="2183.5" y="-287.8" font-family="Times New Roman,serif" font-size="24.00">send out emails to charities and sponsors</text>
</g>
<!-- EAID_20B8C1D2_F368_4d8c_83F1_498335831BAA -->
<g id="node7" class="node"><title>EAID_20B8C1D2_F368_4d8c_83F1_498335831BAA</title>
<image xlink:href="img/actor1.png" width="82px" height="90px" preserveAspectRatio="xMinYMin meet" x="2649" y="-394"/>
<text text-anchor="start" x="2620.5" y="-280.8" font-family="Times New Roman,serif" font-size="24.00">email protocol</text>
</g>
<!-- EAID_D5ECBF3A_5878_45e6_8781_2998B4AF05AD&#45;&gt;EAID_20B8C1D2_F368_4d8c_83F1_498335831BAA -->
<g id="edge5" class="edge"><title>EAID_D5ECBF3A_5878_45e6_8781_2998B4AF05AD&#45;&gt;EAID_20B8C1D2_F368_4d8c_83F1_498335831BAA</title>
<path fill="none" stroke="black" d="M2574.25,-334C2582.93,-334 2591.41,-334 2599.59,-334"/>
<polygon fill="black" stroke="black" points="2599.78,-337.5 2609.78,-334 2599.78,-330.5 2599.78,-337.5"/>
</g>
<!-- EAID_AC840369_2A5F_456e_A6EA_E8E8BE210BB5&#45;&gt;EAID_BED33BD8_E9FE_4bb5_BDBB_767E4C91569C -->
<g id="edge9" class="edge"><title>EAID_AC840369_2A5F_456e_A6EA_E8E8BE210BB5&#45;&gt;EAID_BED33BD8_E9FE_4bb5_BDBB_767E4C91569C</title>
<path fill="none" stroke="black" d="M1667.17,-293.518C1691.11,-328.97 1725.7,-372.669 1766,-401 1767.92,-402.347 1769.86,-403.667 1771.84,-404.962"/>
<polygon fill="black" stroke="black" points="1770.33,-408.146 1780.66,-410.477 1774.04,-402.21 1770.33,-408.146"/>
</g>
<!-- EAID_43DB62A2_662B_4f76_824F_F4B571779947 -->
<g id="node9" class="node"><title>EAID_43DB62A2_662B_4f76_824F_F4B571779947</title>
<image xlink:href="img/actor1.png" width="82px" height="90px" preserveAspectRatio="xMinYMin meet" x="2332.5" y="-227"/>
<text text-anchor="start" x="2329.5" y="-113.8" font-family="Times New Roman,serif" font-size="24.00">facebook</text>
</g>
<!-- EAID_AC840369_2A5F_456e_A6EA_E8E8BE210BB5&#45;&gt;EAID_43DB62A2_662B_4f76_824F_F4B571779947 -->
<g id="edge6" class="edge"><title>EAID_AC840369_2A5F_456e_A6EA_E8E8BE210BB5&#45;&gt;EAID_43DB62A2_662B_4f76_824F_F4B571779947</title>
<path fill="none" stroke="black" d="M1730.15,-195.104C1742.07,-191.455 1754.2,-188.28 1766,-186 1961.09,-148.291 2197.93,-155.833 2309.1,-162.418"/>
<polygon fill="black" stroke="black" points="2308.95,-165.915 2319.14,-163.03 2309.37,-158.928 2308.95,-165.915"/>
</g>
<!-- EAID_46F7AF34_6D77_4bc0_9692_92E0DBADCFB7 -->
<g id="node10" class="node"><title>EAID_46F7AF34_6D77_4bc0_9692_92E0DBADCFB7</title>
<image xlink:href="img/control1.png" width="106px" height="75px" preserveAspectRatio="xMinYMin meet" x="1898.5" y="-386"/>
<text text-anchor="start" x="1870.5" y="-287.8" font-family="Times New Roman,serif" font-size="24.00">post on facebook</text>
</g>
<!-- EAID_AC840369_2A5F_456e_A6EA_E8E8BE210BB5&#45;&gt;EAID_46F7AF34_6D77_4bc0_9692_92E0DBADCFB7 -->
<g id="edge12" class="edge"><title>EAID_AC840369_2A5F_456e_A6EA_E8E8BE210BB5&#45;&gt;EAID_46F7AF34_6D77_4bc0_9692_92E0DBADCFB7</title>
<path fill="none" stroke="black" d="M1730.16,-265.511C1768.41,-277.4 1812.2,-291.012 1850.61,-302.952"/>
<polygon fill="black" stroke="black" points="1849.67,-306.324 1860.26,-305.95 1851.75,-299.639 1849.67,-306.324"/>
</g>
<!-- EAID_1141F046_5AB5_4ff5_968D_FA6E31E387AE -->
<g id="node13" class="node"><title>EAID_1141F046_5AB5_4ff5_968D_FA6E31E387AE</title>
<image xlink:href="img/activity_icon.png" width="30px" height="20px" preserveAspectRatio="xMinYMin meet" x="1937" y="-251"/>
<text text-anchor="start" x="1930.5" y="-208.8" font-family="Times New Roman,serif" font-weight="bold" font-size="24.00">goal</text>
</g>
<!-- EAID_AC840369_2A5F_456e_A6EA_E8E8BE210BB5&#45;&gt;EAID_1141F046_5AB5_4ff5_968D_FA6E31E387AE -->
<g id="edge11" class="edge"><title>EAID_AC840369_2A5F_456e_A6EA_E8E8BE210BB5&#45;&gt;EAID_1141F046_5AB5_4ff5_968D_FA6E31E387AE</title>
<path fill="none" stroke="black" d="M1730.16,-232.226C1790.4,-230.524 1864.39,-228.433 1909.46,-227.16"/>
<polygon fill="black" stroke="black" points="1909.82,-230.651 1919.72,-226.87 1909.63,-223.654 1909.82,-230.651"/>
</g>
<!-- EAID_46F7AF34_6D77_4bc0_9692_92E0DBADCFB7&#45;&gt;EAID_D5ECBF3A_5878_45e6_8781_2998B4AF05AD -->
<g id="edge19" class="edge"><title>EAID_46F7AF34_6D77_4bc0_9692_92E0DBADCFB7&#45;&gt;EAID_D5ECBF3A_5878_45e6_8781_2998B4AF05AD</title>
<path fill="none" stroke="black" d="M2042.6,-334C2078.08,-334 2120.43,-334 2162.76,-334"/>
<polygon fill="black" stroke="black" points="2162.94,-337.5 2172.94,-334 2162.94,-330.5 2162.94,-337.5"/>
</g>
<!-- EAID_46F7AF34_6D77_4bc0_9692_92E0DBADCFB7&#45;&gt;EAID_43DB62A2_662B_4f76_824F_F4B571779947 -->
<g id="edge7" class="edge"><title>EAID_46F7AF34_6D77_4bc0_9692_92E0DBADCFB7&#45;&gt;EAID_43DB62A2_662B_4f76_824F_F4B571779947</title>
<path fill="none" stroke="black" d="M2042.89,-301.601C2072.94,-290.587 2106.51,-278.02 2137,-266 2196.18,-242.667 2262.98,-214.402 2310.27,-194.056"/>
<polygon fill="black" stroke="black" points="2311.67,-197.267 2319.47,-190.096 2308.9,-190.838 2311.67,-197.267"/>
</g>
<!-- EAID_04EBE380_C22A_4d27_8E46_C1770340E14A -->
<g id="node11" class="node"><title>EAID_04EBE380_C22A_4d27_8E46_C1770340E14A</title>
<image xlink:href="img/control1.png" width="106px" height="75px" preserveAspectRatio="xMinYMin meet" x="1054" y="-191"/>
<text text-anchor="start" x="884" y="-92.8" font-family="Times New Roman,serif" font-size="24.00">displays a congradulatory message on facebook</text>
</g>
<!-- EAID_04EBE380_C22A_4d27_8E46_C1770340E14A&#45;&gt;EAID_34881016_182D_4924_8E1E_51D49968B422 -->
<g id="edge16" class="edge"><title>EAID_04EBE380_C22A_4d27_8E46_C1770340E14A&#45;&gt;EAID_34881016_182D_4924_8E1E_51D49968B422</title>
<path fill="none" stroke="black" d="M1307.64,-197.609C1328.51,-203.735 1348.55,-209.619 1366.31,-214.833"/>
<polygon fill="black" stroke="black" points="1365.35,-218.2 1375.93,-217.659 1367.32,-211.483 1365.35,-218.2"/>
</g>
<!-- EAID_04EBE380_C22A_4d27_8E46_C1770340E14A&#45;&gt;EAID_43DB62A2_662B_4f76_824F_F4B571779947 -->
<g id="edge8" class="edge"><title>EAID_04EBE380_C22A_4d27_8E46_C1770340E14A&#45;&gt;EAID_43DB62A2_662B_4f76_824F_F4B571779947</title>
<path fill="none" stroke="black" d="M1340.24,-139.699C1548.84,-140.967 1863.47,-144.461 2137,-154 2195.33,-156.034 2261.72,-159.834 2309.1,-162.802"/>
<polygon fill="black" stroke="black" points="2309.01,-166.303 2319.22,-163.441 2309.46,-159.317 2309.01,-166.303"/>
</g>
<!-- EAID_5E90FA4A_08DD_467b_ADC9_962032C5968F&#45;&gt;EAID_9A27F520_ACCF_45cf_8E1E_DAC77E0608B5 -->
<g id="edge20" class="edge"><title>EAID_5E90FA4A_08DD_467b_ADC9_962032C5968F&#45;&gt;EAID_9A27F520_ACCF_45cf_8E1E_DAC77E0608B5</title>
<path fill="none" stroke="black" d="M838.162,-256.258C887.914,-266.055 942.256,-276.756 988.911,-285.943"/>
<polygon fill="black" stroke="black" points="988.257,-289.382 998.745,-287.88 989.61,-282.514 988.257,-289.382"/>
</g>
<!-- EAID_5E90FA4A_08DD_467b_ADC9_962032C5968F&#45;&gt;EAID_34881016_182D_4924_8E1E_51D49968B422 -->
<g id="edge14" class="edge"><title>EAID_5E90FA4A_08DD_467b_ADC9_962032C5968F&#45;&gt;EAID_34881016_182D_4924_8E1E_51D49968B422</title>
<path fill="none" stroke="black" d="M838.186,-227.843C999.657,-229.779 1246.4,-232.738 1365.67,-234.169"/>
<polygon fill="black" stroke="black" points="1365.73,-237.669 1375.77,-234.29 1365.82,-230.67 1365.73,-237.669"/>
</g>
<!-- EAID_5E90FA4A_08DD_467b_ADC9_962032C5968F&#45;&gt;EAID_04EBE380_C22A_4d27_8E46_C1770340E14A -->
<g id="edge18" class="edge"><title>EAID_5E90FA4A_08DD_467b_ADC9_962032C5968F&#45;&gt;EAID_04EBE380_C22A_4d27_8E46_C1770340E14A</title>
<path fill="none" stroke="black" d="M838.162,-194.283C846.624,-192.537 855.218,-190.763 863.885,-188.974"/>
<polygon fill="black" stroke="black" points="864.612,-192.398 873.698,-186.948 863.197,-185.542 864.612,-192.398"/>
</g>
<!-- EAID_E0421C2F_AE97_469f_A84D_12201E8B9C14 -->
<g id="node14" class="node"><title>EAID_E0421C2F_AE97_469f_A84D_12201E8B9C14</title>
<image xlink:href="img/activity_icon.png" width="30px" height="20px" preserveAspectRatio="xMinYMin meet" x="1092" y="-56"/>
<text text-anchor="start" x="1052" y="-13.8" font-family="Times New Roman,serif" font-weight="bold" font-size="24.00">charity list</text>
</g>
<!-- EAID_5E90FA4A_08DD_467b_ADC9_962032C5968F&#45;&gt;EAID_E0421C2F_AE97_469f_A84D_12201E8B9C14 -->
<g id="edge17" class="edge"><title>EAID_5E90FA4A_08DD_467b_ADC9_962032C5968F&#45;&gt;EAID_E0421C2F_AE97_469f_A84D_12201E8B9C14</title>
<path fill="none" stroke="black" d="M740.094,-167.374C775.282,-133.858 823.541,-94.0295 874,-71 923.71,-48.3127 984.771,-38.4124 1031.77,-34.131"/>
<polygon fill="black" stroke="black" points="1032.21,-37.6065 1041.88,-33.2765 1031.62,-30.6313 1032.21,-37.6065"/>
</g>
</g>
</svg>
