<?xml version="1.0" encoding="UTF-8" standalone="no"?>
<!DOCTYPE svg PUBLIC "-//W3C//DTD SVG 1.1//EN"
 "http://www.w3.org/Graphics/SVG/1.1/DTD/svg11.dtd">
<!-- Generated by graphviz version 2.38.0 (20140413.2041)
 -->
<!-- Title: g Pages: 1 -->
<svg width="872pt" height="208pt"
 viewBox="0.00 0.00 872.00 208.00" xmlns="http://www.w3.org/2000/svg" xmlns:xlink="http://www.w3.org/1999/xlink">
<g id="graph0" class="graph" transform="scale(1 1) rotate(0) translate(4 204)">
<title>g</title>
<polygon fill="white" stroke="none" points="-4,4 -4,-204 868,-204 868,4 -4,4"/>
<!-- EAID_26D51D87_FA9F_4700_93D3_95AEA4DFBB6D -->
<g id="node1" class="node"><title>EAID_26D51D87_FA9F_4700_93D3_95AEA4DFBB6D</title>
<image xlink:href="img/actor1.png" width="61px" height="90px" preserveAspectRatio="xMinYMin meet" x="10.5" y="-162.5"/>
<text text-anchor="start" x="12.5" y="-49.3" font-family="Times New Roman,serif" font-size="24.00">florist</text>
</g>
<!-- EAID_8F8062A1_0E10_4778_AF14_69ED88B145D7 -->
<g id="node2" class="node"><title>EAID_8F8062A1_0E10_4778_AF14_69ED88B145D7</title>
<image xlink:href="img/boundary3.png" width="115px" height="67px" preserveAspectRatio="xMinYMin meet" x="690.5" y="-193.5"/>
<text text-anchor="start" x="641.5" y="-103.3" font-family="Times New Roman,serif" font-size="24.00">update successful page</text>
</g>
<!-- EAID_26D51D87_FA9F_4700_93D3_95AEA4DFBB6D&#45;&gt;EAID_8F8062A1_0E10_4778_AF14_69ED88B145D7 -->
<g id="edge1" class="edge"><title>EAID_26D51D87_FA9F_4700_93D3_95AEA4DFBB6D&#45;&gt;EAID_8F8062A1_0E10_4778_AF14_69ED88B145D7</title>
<path fill="none" stroke="black" d="M81.0817,-115.402C92.5484,-118.622 105.167,-121.674 117,-123.5 290.097,-150.212 493.001,-152.111 620.662,-149.79"/>
<polygon fill="black" stroke="black" points="620.936,-153.285 630.866,-149.592 620.8,-146.287 620.936,-153.285"/>
</g>
<!-- EAID_97AA26D1_9C44_4471_9DC2_17E741FF0D6F -->
<g id="node3" class="node"><title>EAID_97AA26D1_9C44_4471_9DC2_17E741FF0D6F</title>
<image xlink:href="img/boundary3.png" width="107px" height="67px" preserveAspectRatio="xMinYMin meet" x="127.5" y="-108.5"/>
<text text-anchor="start" x="127.5" y="-18.3" font-family="Times New Roman,serif" font-size="24.00">Order page</text>
</g>
<!-- EAID_26D51D87_FA9F_4700_93D3_95AEA4DFBB6D&#45;&gt;EAID_97AA26D1_9C44_4471_9DC2_17E741FF0D6F -->
<g id="edge2" class="edge"><title>EAID_26D51D87_FA9F_4700_93D3_95AEA4DFBB6D&#45;&gt;EAID_97AA26D1_9C44_4471_9DC2_17E741FF0D6F</title>
<path fill="none" stroke="black" d="M81.0453,-90.4645C89.2339,-87.9723 98.1038,-85.2728 107.051,-82.5496"/>
<polygon fill="black" stroke="black" points="108.214,-85.8542 116.762,-79.5941 106.176,-79.1575 108.214,-85.8542"/>
</g>
<!-- EAID_20908ED1_374C_41db_80F6_847BB370D20C -->
<g id="node4" class="node"><title>EAID_20908ED1_374C_41db_80F6_847BB370D20C</title>
<image xlink:href="img/control1.png" width="106px" height="75px" preserveAspectRatio="xMinYMin meet" x="385" y="-110.5"/>
<text text-anchor="start" x="290.5" y="-12.3" font-family="Times New Roman,serif" font-size="24.00">update order status information</text>
</g>
<!-- EAID_97AA26D1_9C44_4471_9DC2_17E741FF0D6F&#45;&gt;EAID_20908ED1_374C_41db_80F6_847BB370D20C -->
<g id="edge3" class="edge"><title>EAID_97AA26D1_9C44_4471_9DC2_17E741FF0D6F&#45;&gt;EAID_20908ED1_374C_41db_80F6_847BB370D20C</title>
<path fill="none" stroke="black" d="M244.207,-60.0082C252.242,-59.9452 260.746,-59.8785 269.526,-59.8096"/>
<polygon fill="black" stroke="black" points="269.575,-63.3094 279.548,-59.731 269.52,-56.3096 269.575,-63.3094"/>
</g>
<!-- EAID_20908ED1_374C_41db_80F6_847BB370D20C&#45;&gt;EAID_8F8062A1_0E10_4778_AF14_69ED88B145D7 -->
<g id="edge5" class="edge"><title>EAID_20908ED1_374C_41db_80F6_847BB370D20C&#45;&gt;EAID_8F8062A1_0E10_4778_AF14_69ED88B145D7</title>
<path fill="none" stroke="black" d="M595.207,-102.765C603.953,-105.235 612.687,-107.702 621.297,-110.134"/>
<polygon fill="black" stroke="black" points="620.383,-113.513 630.958,-112.863 622.286,-106.777 620.383,-113.513"/>
</g>
<!-- EAID_B2305FE4_2345_4195_A765_8700D7696EA6 -->
<g id="node5" class="node"><title>EAID_B2305FE4_2345_4195_A765_8700D7696EA6</title>
<image xlink:href="img/activity_icon.png" width="30px" height="20px" preserveAspectRatio="xMinYMin meet" x="732.5" y="-66.5"/>
<text text-anchor="start" x="718.5" y="-24.3" font-family="Times New Roman,serif" font-weight="bold" font-size="24.00">order</text>
</g>
<!-- EAID_20908ED1_374C_41db_80F6_847BB370D20C&#45;&gt;EAID_B2305FE4_2345_4195_A765_8700D7696EA6 -->
<g id="edge4" class="edge"><title>EAID_20908ED1_374C_41db_80F6_847BB370D20C&#45;&gt;EAID_B2305FE4_2345_4195_A765_8700D7696EA6</title>
<path fill="none" stroke="black" d="M595.207,-49.8506C632.631,-47.785 669.841,-45.7312 697.994,-44.1773"/>
<polygon fill="black" stroke="black" points="698.531,-47.6531 708.323,-43.6072 698.145,-40.6637 698.531,-47.6531"/>
</g>
</g>
</svg>
