<?xml version="1.0" encoding="UTF-8" standalone="no"?>
<!DOCTYPE svg PUBLIC "-//W3C//DTD SVG 1.1//EN"
 "http://www.w3.org/Graphics/SVG/1.1/DTD/svg11.dtd">
<!-- Generated by graphviz version 2.38.0 (20140413.2041)
 -->
<!-- Title: g Pages: 1 -->
<svg width="2819pt" height="701pt"
 viewBox="0.00 0.00 2819.00 700.82" xmlns="http://www.w3.org/2000/svg" xmlns:xlink="http://www.w3.org/1999/xlink">
<g id="graph0" class="graph" transform="scale(1 1) rotate(0) translate(4 696.821)">
<title>g</title>
<polygon fill="white" stroke="none" points="-4,4 -4,-696.821 2815,-696.821 2815,4 -4,4"/>
<!-- EAID_68635130_39C0_4def_A2A6_3D8BEDEA1DAD -->
<g id="node1" class="node"><title>EAID_68635130_39C0_4def_A2A6_3D8BEDEA1DAD</title>
<image xlink:href="img/actor1.png" width="61px" height="90px" preserveAspectRatio="xMinYMin meet" x="10.5" y="-286.614"/>
<text text-anchor="start" x="15" y="-173.414" font-family="Times New Roman,serif" font-size="24.00">Valet</text>
</g>
<!-- EAID_C23E42A4_9573_47b9_AF71_842BAD1520EC -->
<g id="node2" class="node"><title>EAID_C23E42A4_9573_47b9_AF71_842BAD1520EC</title>
<image xlink:href="img/boundary3.png" width="115px" height="67px" preserveAspectRatio="xMinYMin meet" x="1324.5" y="-649.614"/>
<text text-anchor="start" x="1191" y="-559.414" font-family="Times New Roman,serif" font-size="24.00">display spinner while saving information</text>
</g>
<!-- EAID_68635130_39C0_4def_A2A6_3D8BEDEA1DAD&#45;&gt;EAID_C23E42A4_9573_47b9_AF71_842BAD1520EC -->
<g id="edge1" class="edge"><title>EAID_68635130_39C0_4def_A2A6_3D8BEDEA1DAD&#45;&gt;EAID_C23E42A4_9573_47b9_AF71_842BAD1520EC</title>
<path fill="none" stroke="black" d="M50.7221,-292.913C60.1852,-336.668 79.1691,-392.088 117,-426.614 226.671,-526.703 290.523,-515.614 439,-515.614 439,-515.614 439,-515.614 696,-515.614 856.049,-515.614 1035.51,-539.013 1170.58,-561.4"/>
<polygon fill="black" stroke="black" points="1170.19,-564.885 1180.63,-563.079 1171.35,-557.98 1170.19,-564.885"/>
</g>
<!-- EAID_B1ED46F9_918C_440a_BE52_1BDF4D3B5C56 -->
<g id="node3" class="node"><title>EAID_B1ED46F9_918C_440a_BE52_1BDF4D3B5C56</title>
<image xlink:href="img/boundary3.png" width="115px" height="67px" preserveAspectRatio="xMinYMin meet" x="1805.5" y="-621.614"/>
<text text-anchor="start" x="1629.5" y="-531.414" font-family="Times New Roman,serif" font-size="24.00">system error when saving registration information</text>
</g>
<!-- EAID_68635130_39C0_4def_A2A6_3D8BEDEA1DAD&#45;&gt;EAID_B1ED46F9_918C_440a_BE52_1BDF4D3B5C56 -->
<g id="edge2" class="edge"><title>EAID_68635130_39C0_4def_A2A6_3D8BEDEA1DAD&#45;&gt;EAID_B1ED46F9_918C_440a_BE52_1BDF4D3B5C56</title>
<path fill="none" stroke="black" d="M47.8928,-292.621C56.1201,-348.07 74.8006,-426.948 117,-482.614 219.06,-617.242 270.06,-684.614 439,-684.614 439,-684.614 439,-684.614 983.5,-684.614 1250.08,-684.614 1320.51,-712.124 1583,-665.614 1626.03,-657.99 1671.5,-645.139 1712.95,-631.423"/>
<polygon fill="black" stroke="black" points="1714.19,-634.699 1722.56,-628.204 1711.97,-628.061 1714.19,-634.699"/>
</g>
<!-- EAID_5072B8F4_9AAC_4b5c_A5C4_FA5224539DA0 -->
<g id="node4" class="node"><title>EAID_5072B8F4_9AAC_4b5c_A5C4_FA5224539DA0</title>
<image xlink:href="img/boundary3.png" width="115px" height="67px" preserveAspectRatio="xMinYMin meet" x="1324.5" y="-522.614"/>
<text text-anchor="start" x="1193" y="-432.414" font-family="Times New Roman,serif" font-size="24.00">registration information invalid message</text>
</g>
<!-- EAID_68635130_39C0_4def_A2A6_3D8BEDEA1DAD&#45;&gt;EAID_5072B8F4_9AAC_4b5c_A5C4_FA5224539DA0 -->
<g id="edge3" class="edge"><title>EAID_68635130_39C0_4def_A2A6_3D8BEDEA1DAD&#45;&gt;EAID_5072B8F4_9AAC_4b5c_A5C4_FA5224539DA0</title>
<path fill="none" stroke="black" d="M61.162,-292.728C72.9641,-321.783 90.883,-353.93 117,-374.614 232.516,-466.1 291.645,-453.614 439,-453.614 439,-453.614 439,-453.614 696,-453.614 856.038,-453.614 1037.01,-459.411 1172.73,-464.914"/>
<polygon fill="black" stroke="black" points="1172.7,-468.416 1182.84,-465.327 1172.99,-461.421 1172.7,-468.416"/>
</g>
<!-- EAID_92727CDE_2C99_4ce8_86AD_58CE4BDE6FC6 -->
<g id="node5" class="node"><title>EAID_92727CDE_2C99_4ce8_86AD_58CE4BDE6FC6</title>
<image xlink:href="img/boundary3.png" width="115px" height="67px" preserveAspectRatio="xMinYMin meet" x="2611.5" y="-136.614"/>
<text text-anchor="start" x="2536.5" y="-46.4138" font-family="Times New Roman,serif" font-size="24.00">management empolyee page</text>
</g>
<!-- EAID_68635130_39C0_4def_A2A6_3D8BEDEA1DAD&#45;&gt;EAID_92727CDE_2C99_4ce8_86AD_58CE4BDE6FC6 -->
<g id="edge4" class="edge"><title>EAID_68635130_39C0_4def_A2A6_3D8BEDEA1DAD&#45;&gt;EAID_92727CDE_2C99_4ce8_86AD_58CE4BDE6FC6</title>
<path fill="none" stroke="black" d="M52.9064,-160.273C63.0738,-122.049 82.0242,-76.5707 117,-50.6138 232.637,35.2048 294.997,-14.6138 439,-14.6138 439,-14.6138 439,-14.6138 1863.5,-14.6138 2091.59,-14.6138 2354.55,-44.5106 2515.9,-66.2983"/>
<polygon fill="black" stroke="black" points="2515.52,-69.7787 2525.9,-67.6558 2516.46,-62.8423 2515.52,-69.7787"/>
</g>
<!-- EAID_AAE637B8_933F_4a72_9C7E_693F4099D0AD -->
<g id="node6" class="node"><title>EAID_AAE637B8_933F_4a72_9C7E_693F4099D0AD</title>
<image xlink:href="img/boundary3.png" width="115px" height="67px" preserveAspectRatio="xMinYMin meet" x="637.5" y="-361.614"/>
<text text-anchor="start" x="616" y="-271.414" font-family="Times New Roman,serif" font-size="24.00">registration page</text>
</g>
<!-- EAID_68635130_39C0_4def_A2A6_3D8BEDEA1DAD&#45;&gt;EAID_AAE637B8_933F_4a72_9C7E_693F4099D0AD -->
<g id="edge5" class="edge"><title>EAID_68635130_39C0_4def_A2A6_3D8BEDEA1DAD&#45;&gt;EAID_AAE637B8_933F_4a72_9C7E_693F4099D0AD</title>
<path fill="none" stroke="black" d="M81.2253,-221.909C170.535,-212.645 393.188,-196.914 570,-245.614 578.96,-248.082 587.981,-251.306 596.849,-255.01"/>
<polygon fill="black" stroke="black" points="595.463,-258.224 606.027,-259.032 598.272,-251.812 595.463,-258.224"/>
</g>
<!-- EAID_0E1655CF_42AB_440b_B8B4_97C32DC30FAB -->
<g id="node7" class="node"><title>EAID_0E1655CF_42AB_440b_B8B4_97C32DC30FAB</title>
<image xlink:href="img/boundary3.png" width="115px" height="67px" preserveAspectRatio="xMinYMin meet" x="1325" y="-221.614"/>
<text text-anchor="start" x="1224" y="-131.414" font-family="Times New Roman,serif" font-size="24.00">duplicate registration information</text>
</g>
<!-- EAID_68635130_39C0_4def_A2A6_3D8BEDEA1DAD&#45;&gt;EAID_0E1655CF_42AB_440b_B8B4_97C32DC30FAB -->
<g id="edge6" class="edge"><title>EAID_68635130_39C0_4def_A2A6_3D8BEDEA1DAD&#45;&gt;EAID_0E1655CF_42AB_440b_B8B4_97C32DC30FAB</title>
<path fill="none" stroke="black" d="M81.2271,-215.862C92.696,-213.108 105.28,-210.417 117,-208.614 258.807,-186.794 295.524,-185.614 439,-185.614 439,-185.614 439,-185.614 696,-185.614 868.171,-185.614 1064.65,-181.777 1202.9,-178.443"/>
<polygon fill="black" stroke="black" points="1203.25,-181.935 1213.16,-178.193 1203.08,-174.937 1203.25,-181.935"/>
</g>
<!-- EAID_8744A350_FACB_462d_85A7_04D737FB3A3B -->
<g id="node8" class="node"><title>EAID_8744A350_FACB_462d_85A7_04D737FB3A3B</title>
<image xlink:href="img/boundary3.png" width="115px" height="67px" preserveAspectRatio="xMinYMin meet" x="1805" y="-272.614"/>
<text text-anchor="start" x="1668.5" y="-182.414" font-family="Times New Roman,serif" font-size="24.00">successfully save registration information</text>
</g>
<!-- EAID_68635130_39C0_4def_A2A6_3D8BEDEA1DAD&#45;&gt;EAID_8744A350_FACB_462d_85A7_04D737FB3A3B -->
<g id="edge7" class="edge"><title>EAID_68635130_39C0_4def_A2A6_3D8BEDEA1DAD&#45;&gt;EAID_8744A350_FACB_462d_85A7_04D737FB3A3B</title>
<path fill="none" stroke="black" d="M81.1571,-203.235C150.981,-164.35 301.512,-90.6138 439,-90.6138 439,-90.6138 439,-90.6138 983.5,-90.6138 1116.79,-90.6138 1465.64,-46.4254 1583,-109.614 1607.43,-122.767 1596.21,-144.786 1619,-160.614 1628.57,-167.26 1638.79,-173.217 1649.41,-178.555"/>
<polygon fill="black" stroke="black" points="1647.9,-181.711 1658.43,-182.894 1650.94,-175.404 1647.9,-181.711"/>
</g>
<!-- EAID_5515279E_C338_4402_AA1B_D4FE0FD0B40B -->
<g id="node9" class="node"><title>EAID_5515279E_C338_4402_AA1B_D4FE0FD0B40B</title>
<image xlink:href="img/boundary3.png" width="115px" height="67px" preserveAspectRatio="xMinYMin meet" x="1805.5" y="-145.614"/>
<text text-anchor="start" x="1763.5" y="-55.4138" font-family="Times New Roman,serif" font-size="24.00">system error message</text>
</g>
<!-- EAID_68635130_39C0_4def_A2A6_3D8BEDEA1DAD&#45;&gt;EAID_5515279E_C338_4402_AA1B_D4FE0FD0B40B -->
<g id="edge8" class="edge"><title>EAID_68635130_39C0_4def_A2A6_3D8BEDEA1DAD&#45;&gt;EAID_5515279E_C338_4402_AA1B_D4FE0FD0B40B</title>
<path fill="none" stroke="black" d="M74.7691,-160.591C86.065,-143.96 100.174,-127.704 117,-116.614 238.829,-36.3172 293.089,-52.6138 439,-52.6138 439,-52.6138 439,-52.6138 983.5,-52.6138 1250.08,-52.6138 1316.94,-54.9942 1583,-71.6138 1635.48,-74.8923 1693.4,-80.0494 1742.76,-84.9092"/>
<polygon fill="black" stroke="black" points="1742.54,-88.4044 1752.83,-85.9087 1743.23,-81.4386 1742.54,-88.4044"/>
</g>
<!-- EAID_981311E6_4A50_4717_B8A5_B6699575C937 -->
<g id="node10" class="node"><title>EAID_981311E6_4A50_4717_B8A5_B6699575C937</title>
<image xlink:href="img/boundary3.png" width="115px" height="67px" preserveAspectRatio="xMinYMin meet" x="138.5" y="-359.614"/>
<text text-anchor="start" x="127.5" y="-269.414" font-family="Times New Roman,serif" font-size="24.00">register button</text>
</g>
<!-- EAID_68635130_39C0_4def_A2A6_3D8BEDEA1DAD&#45;&gt;EAID_981311E6_4A50_4717_B8A5_B6699575C937 -->
<g id="edge9" class="edge"><title>EAID_68635130_39C0_4def_A2A6_3D8BEDEA1DAD&#45;&gt;EAID_981311E6_4A50_4717_B8A5_B6699575C937</title>
<path fill="none" stroke="black" d="M81.2995,-248.725C89.6197,-253.347 98.6988,-258.391 107.978,-263.546"/>
<polygon fill="black" stroke="black" points="106.477,-266.716 116.918,-268.513 109.876,-260.597 106.477,-266.716"/>
</g>
<!-- EAID_B0067CC2_D720_4366_9299_38F6ED98A4E7 -->
<g id="node11" class="node"><title>EAID_B0067CC2_D720_4366_9299_38F6ED98A4E7</title>
<image xlink:href="img/control1.png" width="106px" height="75px" preserveAspectRatio="xMinYMin meet" x="930" y="-377.614"/>
<text text-anchor="start" x="830.5" y="-279.414" font-family="Times New Roman,serif" font-size="24.00">validate registration information</text>
</g>
<!-- EAID_AAE637B8_933F_4a72_9C7E_693F4099D0AD&#45;&gt;EAID_B0067CC2_D720_4366_9299_38F6ED98A4E7 -->
<g id="edge19" class="edge"><title>EAID_AAE637B8_933F_4a72_9C7E_693F4099D0AD&#45;&gt;EAID_B0067CC2_D720_4366_9299_38F6ED98A4E7</title>
<path fill="none" stroke="black" d="M784.379,-317.329C792.559,-317.672 801.02,-318.028 809.628,-318.39"/>
<polygon fill="black" stroke="black" points="809.655,-321.894 819.794,-318.817 809.95,-314.9 809.655,-321.894"/>
</g>
<!-- EAID_464B067A_F193_4c50_8733_447D03F2B238 -->
<g id="node15" class="node"><title>EAID_464B067A_F193_4c50_8733_447D03F2B238</title>
<image xlink:href="img/control1.png" width="106px" height="75px" preserveAspectRatio="xMinYMin meet" x="2263" y="-214.614"/>
<text text-anchor="start" x="2152" y="-116.414" font-family="Times New Roman,serif" font-size="24.00">navigate to manage employee page</text>
</g>
<!-- EAID_8744A350_FACB_462d_85A7_04D737FB3A3B&#45;&gt;EAID_464B067A_F193_4c50_8733_447D03F2B238 -->
<g id="edge17" class="edge"><title>EAID_8744A350_FACB_462d_85A7_04D737FB3A3B&#45;&gt;EAID_464B067A_F193_4c50_8733_447D03F2B238</title>
<path fill="none" stroke="black" d="M2066.8,-196.697C2088.42,-193.728 2110.31,-190.721 2131.69,-187.786"/>
<polygon fill="black" stroke="black" points="2132.37,-191.226 2141.8,-186.398 2131.41,-184.291 2132.37,-191.226"/>
</g>
<!-- EAID_4358297F_509F_445d_A06C_735BEF1BC021 -->
<g id="node12" class="node"><title>EAID_4358297F_509F_445d_A06C_735BEF1BC021</title>
<image xlink:href="img/control1.png" width="106px" height="75px" preserveAspectRatio="xMinYMin meet" x="387" y="-365.614"/>
<text text-anchor="start" x="320" y="-267.414" font-family="Times New Roman,serif" font-size="24.00">displays registration page</text>
</g>
<!-- EAID_981311E6_4A50_4717_B8A5_B6699575C937&#45;&gt;EAID_4358297F_509F_445d_A06C_735BEF1BC021 -->
<g id="edge12" class="edge"><title>EAID_981311E6_4A50_4717_B8A5_B6699575C937&#45;&gt;EAID_4358297F_509F_445d_A06C_735BEF1BC021</title>
<path fill="none" stroke="black" d="M274.229,-312.255C282.394,-312.322 290.863,-312.392 299.457,-312.463"/>
<polygon fill="black" stroke="black" points="299.564,-315.964 309.592,-312.547 299.621,-308.964 299.564,-315.964"/>
</g>
<!-- EAID_B0067CC2_D720_4366_9299_38F6ED98A4E7&#45;&gt;EAID_C23E42A4_9573_47b9_AF71_842BAD1520EC -->
<g id="edge10" class="edge"><title>EAID_B0067CC2_D720_4366_9299_38F6ED98A4E7&#45;&gt;EAID_C23E42A4_9573_47b9_AF71_842BAD1520EC</title>
<path fill="none" stroke="black" d="M1037.16,-384.205C1094.11,-446.283 1176.56,-535.804 1181,-538.614 1182.73,-539.709 1184.48,-540.786 1186.25,-541.846"/>
<polygon fill="black" stroke="black" points="1184.83,-545.066 1195.25,-547 1188.31,-538.992 1184.83,-545.066"/>
</g>
<!-- EAID_B0067CC2_D720_4366_9299_38F6ED98A4E7&#45;&gt;EAID_5072B8F4_9AAC_4b5c_A5C4_FA5224539DA0 -->
<g id="edge18" class="edge"><title>EAID_B0067CC2_D720_4366_9299_38F6ED98A4E7&#45;&gt;EAID_5072B8F4_9AAC_4b5c_A5C4_FA5224539DA0</title>
<path fill="none" stroke="black" d="M1125.55,-384.193C1144.14,-391.555 1162.99,-398.863 1181,-405.614 1190.71,-409.252 1200.71,-412.927 1210.82,-416.586"/>
<polygon fill="black" stroke="black" points="1209.94,-419.991 1220.54,-420.088 1212.31,-413.405 1209.94,-419.991"/>
</g>
<!-- EAID_B0067CC2_D720_4366_9299_38F6ED98A4E7&#45;&gt;EAID_0E1655CF_42AB_440b_B8B4_97C32DC30FAB -->
<g id="edge13" class="edge"><title>EAID_B0067CC2_D720_4366_9299_38F6ED98A4E7&#45;&gt;EAID_0E1655CF_42AB_440b_B8B4_97C32DC30FAB</title>
<path fill="none" stroke="black" d="M1107.41,-267.091C1131.6,-256.431 1156.93,-245.792 1181,-236.614 1188.44,-233.779 1196.06,-230.968 1203.79,-228.199"/>
<polygon fill="black" stroke="black" points="1205,-231.482 1213.26,-224.842 1202.66,-224.884 1205,-231.482"/>
</g>
<!-- EAID_8F3CF7A4_A90B_4234_9C1B_18F16A31EF1D -->
<g id="node13" class="node"><title>EAID_8F3CF7A4_A90B_4234_9C1B_18F16A31EF1D</title>
<image xlink:href="img/activity_icon.png" width="30px" height="20px" preserveAspectRatio="xMinYMin meet" x="1847.5" y="-384.614"/>
<text text-anchor="start" x="1814.5" y="-342.414" font-family="Times New Roman,serif" font-weight="bold" font-size="24.00">employee</text>
</g>
<!-- EAID_B0067CC2_D720_4366_9299_38F6ED98A4E7&#45;&gt;EAID_8F3CF7A4_A90B_4234_9C1B_18F16A31EF1D -->
<g id="edge14" class="edge"><title>EAID_B0067CC2_D720_4366_9299_38F6ED98A4E7&#45;&gt;EAID_8F3CF7A4_A90B_4234_9C1B_18F16A31EF1D</title>
<path fill="none" stroke="black" d="M1145.19,-366.405C1157.25,-368.486 1169.28,-370.267 1181,-371.614 1404.5,-397.298 1671.97,-378.14 1794.37,-366.634"/>
<polygon fill="black" stroke="black" points="1794.72,-370.116 1804.35,-365.683 1794.06,-363.148 1794.72,-370.116"/>
</g>
<!-- EAID_373326DE_A3AA_4b1f_8602_20DC509F2FCF -->
<g id="node14" class="node"><title>EAID_373326DE_A3AA_4b1f_8602_20DC509F2FCF</title>
<image xlink:href="img/control1.png" width="106px" height="75px" preserveAspectRatio="xMinYMin meet" x="1329.5" y="-356.614"/>
<text text-anchor="start" x="1278" y="-258.414" font-family="Times New Roman,serif" font-size="24.00">save valet information</text>
</g>
<!-- EAID_B0067CC2_D720_4366_9299_38F6ED98A4E7&#45;&gt;EAID_373326DE_A3AA_4b1f_8602_20DC509F2FCF -->
<g id="edge23" class="edge"><title>EAID_B0067CC2_D720_4366_9299_38F6ED98A4E7&#45;&gt;EAID_373326DE_A3AA_4b1f_8602_20DC509F2FCF</title>
<path fill="none" stroke="black" d="M1145.18,-317.072C1182.45,-315.103 1221.52,-313.039 1256.9,-311.17"/>
<polygon fill="black" stroke="black" points="1257.46,-314.646 1267.26,-310.623 1257.09,-307.655 1257.46,-314.646"/>
</g>
<!-- EAID_4358297F_509F_445d_A06C_735BEF1BC021&#45;&gt;EAID_AAE637B8_933F_4a72_9C7E_693F4099D0AD -->
<g id="edge11" class="edge"><title>EAID_4358297F_509F_445d_A06C_735BEF1BC021&#45;&gt;EAID_AAE637B8_933F_4a72_9C7E_693F4099D0AD</title>
<path fill="none" stroke="black" d="M570.094,-313.614C578.668,-313.614 587.227,-313.614 595.612,-313.614"/>
<polygon fill="black" stroke="black" points="595.743,-317.114 605.743,-313.614 595.742,-310.114 595.743,-317.114"/>
</g>
<!-- EAID_373326DE_A3AA_4b1f_8602_20DC509F2FCF&#45;&gt;EAID_B1ED46F9_918C_440a_BE52_1BDF4D3B5C56 -->
<g id="edge22" class="edge"><title>EAID_373326DE_A3AA_4b1f_8602_20DC509F2FCF&#45;&gt;EAID_B1ED46F9_918C_440a_BE52_1BDF4D3B5C56</title>
<path fill="none" stroke="black" d="M1495.57,-363.213C1524.22,-378.414 1554.85,-394.927 1583,-410.614 1642.8,-443.941 1708.97,-482.591 1761.8,-513.888"/>
<polygon fill="black" stroke="black" points="1760.1,-516.955 1770.49,-519.045 1763.67,-510.934 1760.1,-516.955"/>
</g>
<!-- EAID_373326DE_A3AA_4b1f_8602_20DC509F2FCF&#45;&gt;EAID_8744A350_FACB_462d_85A7_04D737FB3A3B -->
<g id="edge21" class="edge"><title>EAID_373326DE_A3AA_4b1f_8602_20DC509F2FCF&#45;&gt;EAID_8744A350_FACB_462d_85A7_04D737FB3A3B</title>
<path fill="none" stroke="black" d="M1496.7,-285.604C1542.14,-278.007 1596.01,-269 1648.22,-260.273"/>
<polygon fill="black" stroke="black" points="1649,-263.69 1658.29,-258.589 1647.85,-256.786 1649,-263.69"/>
</g>
<!-- EAID_373326DE_A3AA_4b1f_8602_20DC509F2FCF&#45;&gt;EAID_5515279E_C338_4402_AA1B_D4FE0FD0B40B -->
<g id="edge20" class="edge"><title>EAID_373326DE_A3AA_4b1f_8602_20DC509F2FCF&#45;&gt;EAID_5515279E_C338_4402_AA1B_D4FE0FD0B40B</title>
<path fill="none" stroke="black" d="M1496.7,-283.114C1527.39,-273.004 1558.77,-258.212 1583,-236.614 1610.9,-211.743 1590.21,-184.442 1619,-160.614 1653.74,-131.863 1700.12,-116.067 1743,-107.448"/>
<polygon fill="black" stroke="black" points="1743.78,-110.863 1752.96,-105.561 1742.48,-103.985 1743.78,-110.863"/>
</g>
<!-- EAID_373326DE_A3AA_4b1f_8602_20DC509F2FCF&#45;&gt;EAID_8F3CF7A4_A90B_4234_9C1B_18F16A31EF1D -->
<g id="edge15" class="edge"><title>EAID_373326DE_A3AA_4b1f_8602_20DC509F2FCF&#45;&gt;EAID_8F3CF7A4_A90B_4234_9C1B_18F16A31EF1D</title>
<path fill="none" stroke="black" d="M1496.7,-317.683C1589.42,-328.34 1717.23,-343.031 1794.35,-351.896"/>
<polygon fill="black" stroke="black" points="1794.09,-355.389 1804.43,-353.054 1794.89,-348.435 1794.09,-355.389"/>
</g>
<!-- EAID_464B067A_F193_4c50_8733_447D03F2B238&#45;&gt;EAID_92727CDE_2C99_4ce8_86AD_58CE4BDE6FC6 -->
<g id="edge16" class="edge"><title>EAID_464B067A_F193_4c50_8733_447D03F2B238&#45;&gt;EAID_92727CDE_2C99_4ce8_86AD_58CE4BDE6FC6</title>
<path fill="none" stroke="black" d="M2490.2,-126.047C2498.81,-124.228 2507.43,-122.408 2515.98,-120.604"/>
<polygon fill="black" stroke="black" points="2516.91,-123.985 2525.97,-118.495 2515.46,-117.136 2516.91,-123.985"/>
</g>
</g>
</svg>
