<?xml version="1.0" encoding="UTF-8" standalone="no"?>
<!DOCTYPE svg PUBLIC "-//W3C//DTD SVG 1.1//EN"
 "http://www.w3.org/Graphics/SVG/1.1/DTD/svg11.dtd">
<!-- Generated by graphviz version 2.38.0 (20140413.2041)
 -->
<!-- Title: g Pages: 1 -->
<svg width="4517pt" height="937pt"
 viewBox="0.00 0.00 4517.00 937.00" xmlns="http://www.w3.org/2000/svg" xmlns:xlink="http://www.w3.org/1999/xlink">
<g id="graph0" class="graph" transform="scale(1 1) rotate(0) translate(4 933)">
<title>g</title>
<polygon fill="white" stroke="none" points="-4,4 -4,-933 4513,-933 4513,4 -4,4"/>
<g id="clust1" class="cluster"><title>cluster0</title>
<polygon fill="none" stroke="black" stroke-width="2" points="1252,-91 1252,-823 1618,-823 1618,-91 1252,-91"/>
<text text-anchor="start" x="1413" y="-808.8" font-family="Times New Roman,serif" font-weight="bold" font-size="14.00">System</text>
</g>
<g id="clust3" class="cluster"><title>cluster1000</title>
<polygon fill="none" stroke="black" stroke-width="2" points="8,-8 8,-83 4501,-83 4501,-8 8,-8"/>
<text text-anchor="start" x="2209" y="-68.8" font-family="Times New Roman,serif" font-weight="bold" font-size="14.00">Domain Model</text>
</g>
<g id="clust2" class="cluster"><title>cluster1</title>
<polygon fill="none" stroke="black" stroke-width="2" points="1393,-831 1393,-921 1625,-921 1625,-831 1393,-831"/>
<text text-anchor="start" x="1494.5" y="-906.8" font-family="Times New Roman,serif" font-weight="bold" font-size="14.00">User</text>
</g>
<!-- EAID_12073305_A48E_45e5_B560_5A44C5D8A099___EAID_93ECEF1F_C28E_4848_8C1A_93C451BF208A -->
<g id="node1" class="node"><title>EAID_12073305_A48E_45e5_B560_5A44C5D8A099___EAID_93ECEF1F_C28E_4848_8C1A_93C451BF208A</title>
<image xlink:href="img/activity_icon.png" width="30px" height="20px" preserveAspectRatio="xMinYMin meet" x="1494.5" y="-785.5"/>
<text text-anchor="start" x="1423" y="-751.3" font-family="Times New Roman,serif" font-weight="bold" font-size="14.00">User:Coupon receiving page</text>
</g>
<!-- EAID_93ECEF1F_C28E_4848_8C1A_93C451BF208A___EAID_A2E7B276_9971_4181_A8D6_53F508DFC1C4 -->
<g id="node9" class="node"><title>EAID_93ECEF1F_C28E_4848_8C1A_93C451BF208A___EAID_A2E7B276_9971_4181_A8D6_53F508DFC1C4</title>
<image xlink:href="img/activity_icon.png" width="30px" height="20px" preserveAspectRatio="xMinYMin meet" x="1490" y="-699"/>
<text text-anchor="start" x="1410" y="-664.8" font-family="Times New Roman,serif" font-weight="bold" font-size="14.00">Coupon receiving page:Choose</text>
<text text-anchor="start" x="1464" y="-650.8" font-family="Times New Roman,serif" font-weight="bold" font-size="14.00">a category or</text>
<text text-anchor="start" x="1495" y="-636.8" font-family="Times New Roman,serif" font-weight="bold" font-size="14.00">not</text>
</g>
<!-- EAID_12073305_A48E_45e5_B560_5A44C5D8A099___EAID_93ECEF1F_C28E_4848_8C1A_93C451BF208A&#45;&gt;EAID_93ECEF1F_C28E_4848_8C1A_93C451BF208A___EAID_A2E7B276_9971_4181_A8D6_53F508DFC1C4 -->
<g id="edge1" class="edge"><title>EAID_12073305_A48E_45e5_B560_5A44C5D8A099___EAID_93ECEF1F_C28E_4848_8C1A_93C451BF208A&#45;&gt;EAID_93ECEF1F_C28E_4848_8C1A_93C451BF208A___EAID_A2E7B276_9971_4181_A8D6_53F508DFC1C4</title>
<path fill="none" stroke="black" d="M1508,-740.898C1507.68,-733.032 1507.32,-724.036 1506.95,-715.09"/>
<polygon fill="black" stroke="black" points="1510.45,-714.925 1506.55,-705.075 1503.45,-715.209 1510.45,-714.925"/>
</g>
<!-- EAID_8283C94A_102D_4101_8F63_B7CC9683C235 -->
<g id="node21" class="node"><title>EAID_8283C94A_102D_4101_8F63_B7CC9683C235</title>
<polygon fill="none" stroke="black" points="2753,-23 2753,-44 3054,-44 3054,-23 2753,-23"/>
<text text-anchor="start" x="2756" y="-30.8" font-family="Times New Roman,serif" font-weight="bold" font-size="14.00">Coupon Successfully Redeemed Popup Message</text>
<polygon fill="none" stroke="black" points="2751.5,-22.5 2751.5,-45.5 3054.5,-45.5 3054.5,-22.5 2751.5,-22.5"/>
</g>
<!-- EAID_12073305_A48E_45e5_B560_5A44C5D8A099___EAID_93ECEF1F_C28E_4848_8C1A_93C451BF208A&#45;&gt;EAID_8283C94A_102D_4101_8F63_B7CC9683C235 -->
<g id="edge11" class="edge"><title>EAID_12073305_A48E_45e5_B560_5A44C5D8A099___EAID_93ECEF1F_C28E_4848_8C1A_93C451BF208A&#45;&gt;EAID_8283C94A_102D_4101_8F63_B7CC9683C235</title>
<path fill="none" stroke="black" stroke-dasharray="5,2" d="M1605.64,-760.733C1822.1,-747.42 2327,-700.553 2327,-553 2327,-553 2327,-553 2327,-237 2327,-210.315 2683.69,-100.54 2835.69,-54.9708"/>
<polygon fill="black" stroke="black" points="2836.82,-58.2847 2845.4,-52.0636 2834.82,-51.5788 2836.82,-58.2847"/>
</g>
<!-- EAID_B7F9D4DA_3679_4df7_B2BB_1A32448BA916___EAID_6877AB67_CCF4_49f3_9F75_3BF4BC72E52B -->
<g id="node2" class="node"><title>EAID_B7F9D4DA_3679_4df7_B2BB_1A32448BA916___EAID_6877AB67_CCF4_49f3_9F75_3BF4BC72E52B</title>
<image xlink:href="img/activity_icon.png" width="30px" height="20px" preserveAspectRatio="xMinYMin meet" x="1347.5" y="-271"/>
<text text-anchor="start" x="1312.5" y="-236.8" font-family="Times New Roman,serif" font-weight="bold" font-size="14.00">Add coupon into</text>
<text text-anchor="start" x="1277" y="-222.8" font-family="Times New Roman,serif" font-weight="bold" font-size="14.00">category:Sort coupons from</text>
<text text-anchor="start" x="1328" y="-208.8" font-family="Times New Roman,serif" font-weight="bold" font-size="14.00">far to close</text>
</g>
<!-- EAID_6877AB67_CCF4_49f3_9F75_3BF4BC72E52B___EAID_E83E8101_F6E3_4d93_B3CA_810D2E11512C -->
<g id="node4" class="node"><title>EAID_6877AB67_CCF4_49f3_9F75_3BF4BC72E52B___EAID_E83E8101_F6E3_4d93_B3CA_810D2E11512C</title>
<image xlink:href="img/activity_icon.png" width="30px" height="20px" preserveAspectRatio="xMinYMin meet" x="1325.5" y="-157"/>
<text text-anchor="start" x="1283.5" y="-122.8" font-family="Times New Roman,serif" font-weight="bold" font-size="14.00">Sort coupons from</text>
<text text-anchor="start" x="1271" y="-108.8" font-family="Times New Roman,serif" font-weight="bold" font-size="14.00">far to close:Categories</text>
</g>
<!-- EAID_B7F9D4DA_3679_4df7_B2BB_1A32448BA916___EAID_6877AB67_CCF4_49f3_9F75_3BF4BC72E52B&#45;&gt;EAID_6877AB67_CCF4_49f3_9F75_3BF4BC72E52B___EAID_E83E8101_F6E3_4d93_B3CA_810D2E11512C -->
<g id="edge3" class="edge"><title>EAID_B7F9D4DA_3679_4df7_B2BB_1A32448BA916___EAID_6877AB67_CCF4_49f3_9F75_3BF4BC72E52B&#45;&gt;EAID_6877AB67_CCF4_49f3_9F75_3BF4BC72E52B___EAID_E83E8101_F6E3_4d93_B3CA_810D2E11512C</title>
<path fill="none" stroke="black" d="M1354,-198.796C1352.25,-190.458 1350.39,-181.6 1348.62,-173.153"/>
<polygon fill="black" stroke="black" points="1352,-172.187 1346.52,-163.117 1345.14,-173.622 1352,-172.187"/>
</g>
<!-- EAID_89DA77E9_17AA_4f66_B6A0_31552C8E1C6C -->
<g id="node30" class="node"><title>EAID_89DA77E9_17AA_4f66_B6A0_31552C8E1C6C</title>
<polygon fill="none" stroke="black" points="1313,-23 1313,-44 1505,-44 1505,-23 1313,-23"/>
<text text-anchor="start" x="1316" y="-30.8" font-family="Times New Roman,serif" font-weight="bold" font-size="14.00">Sort coupons from far to close</text>
<polygon fill="none" stroke="black" points="1312,-22.5 1312,-45.5 1506,-45.5 1506,-22.5 1312,-22.5"/>
</g>
<!-- EAID_B7F9D4DA_3679_4df7_B2BB_1A32448BA916___EAID_6877AB67_CCF4_49f3_9F75_3BF4BC72E52B&#45;&gt;EAID_89DA77E9_17AA_4f66_B6A0_31552C8E1C6C -->
<g id="edge12" class="edge"><title>EAID_B7F9D4DA_3679_4df7_B2BB_1A32448BA916___EAID_6877AB67_CCF4_49f3_9F75_3BF4BC72E52B&#45;&gt;EAID_89DA77E9_17AA_4f66_B6A0_31552C8E1C6C</title>
<path fill="none" stroke="black" stroke-dasharray="5,2" d="M1406.04,-198.9C1415.39,-188.317 1423.95,-176.099 1429,-163 1441.91,-129.503 1430.95,-88.0189 1420.86,-61.5281"/>
<polygon fill="black" stroke="black" points="1424.07,-60.1276 1417.09,-52.1573 1417.58,-62.741 1424.07,-60.1276"/>
</g>
<!-- EAID_2BC2721C_FB38_44f0_A75E_D5033694D7BC___EAID_B7F9D4DA_3679_4df7_B2BB_1A32448BA916 -->
<g id="node3" class="node"><title>EAID_2BC2721C_FB38_44f0_A75E_D5033694D7BC___EAID_B7F9D4DA_3679_4df7_B2BB_1A32448BA916</title>
<image xlink:href="img/activity_icon.png" width="30px" height="20px" preserveAspectRatio="xMinYMin meet" x="1370" y="-371"/>
<text text-anchor="start" x="1307" y="-336.8" font-family="Times New Roman,serif" font-weight="bold" font-size="14.00">Category list:Add coupon</text>
<text text-anchor="start" x="1344.5" y="-322.8" font-family="Times New Roman,serif" font-weight="bold" font-size="14.00">into category</text>
</g>
<!-- EAID_2BC2721C_FB38_44f0_A75E_D5033694D7BC___EAID_B7F9D4DA_3679_4df7_B2BB_1A32448BA916&#45;&gt;EAID_B7F9D4DA_3679_4df7_B2BB_1A32448BA916___EAID_6877AB67_CCF4_49f3_9F75_3BF4BC72E52B -->
<g id="edge4" class="edge"><title>EAID_2BC2721C_FB38_44f0_A75E_D5033694D7BC___EAID_B7F9D4DA_3679_4df7_B2BB_1A32448BA916&#45;&gt;EAID_B7F9D4DA_3679_4df7_B2BB_1A32448BA916___EAID_6877AB67_CCF4_49f3_9F75_3BF4BC72E52B</title>
<path fill="none" stroke="black" d="M1378.16,-312.781C1376.41,-304.786 1374.49,-295.999 1372.59,-287.362"/>
<polygon fill="black" stroke="black" points="1375.96,-286.368 1370.4,-277.348 1369.12,-287.866 1375.96,-286.368"/>
</g>
<!-- EAID_DDC2D790_6648_4fb3_A728_801B88D6B7F0 -->
<g id="node31" class="node"><title>EAID_DDC2D790_6648_4fb3_A728_801B88D6B7F0</title>
<polygon fill="none" stroke="black" points="1542,-23 1542,-44 1659,-44 1659,-23 1542,-23"/>
<text text-anchor="start" x="1545" y="-30.8" font-family="Times New Roman,serif" font-weight="bold" font-size="14.00">Create a category</text>
<polygon fill="none" stroke="black" points="1540.5,-22.5 1540.5,-45.5 1659.5,-45.5 1659.5,-22.5 1540.5,-22.5"/>
</g>
<!-- EAID_2BC2721C_FB38_44f0_A75E_D5033694D7BC___EAID_B7F9D4DA_3679_4df7_B2BB_1A32448BA916&#45;&gt;EAID_DDC2D790_6648_4fb3_A728_801B88D6B7F0 -->
<g id="edge13" class="edge"><title>EAID_2BC2721C_FB38_44f0_A75E_D5033694D7BC___EAID_B7F9D4DA_3679_4df7_B2BB_1A32448BA916&#45;&gt;EAID_DDC2D790_6648_4fb3_A728_801B88D6B7F0</title>
<path fill="none" stroke="black" stroke-dasharray="5,2" d="M1433.98,-312.711C1446.38,-302.669 1458.55,-290.581 1467,-277 1511.81,-204.954 1460.48,-159.899 1510,-91 1513.96,-85.491 1517.23,-86.5722 1523,-83 1536.38,-74.7105 1551.05,-65.578 1563.96,-57.5241"/>
<polygon fill="black" stroke="black" points="1565.95,-60.408 1572.58,-52.1442 1562.25,-54.4696 1565.95,-60.408"/>
</g>
<!-- EAID_6877AB67_CCF4_49f3_9F75_3BF4BC72E52B___EAID_E83E8101_F6E3_4d93_B3CA_810D2E11512C&#45;&gt;EAID_DDC2D790_6648_4fb3_A728_801B88D6B7F0 -->
<g id="edge14" class="edge"><title>EAID_6877AB67_CCF4_49f3_9F75_3BF4BC72E52B___EAID_E83E8101_F6E3_4d93_B3CA_810D2E11512C&#45;&gt;EAID_DDC2D790_6648_4fb3_A728_801B88D6B7F0</title>
<path fill="none" stroke="black" stroke-dasharray="5,2" d="M1419.83,-104.579C1436.94,-99.6488 1454.98,-94.8313 1472,-91 1494.38,-85.9608 1501.5,-91.0076 1523,-83 1539.35,-76.9116 1555.96,-67.1084 1569.55,-57.9437"/>
<polygon fill="black" stroke="black" points="1571.8,-60.6423 1578.01,-52.0588 1567.8,-54.8957 1571.8,-60.6423"/>
</g>
<!-- EAID_6D562439_F902_4494_B6F4_4E0D09CCD6F0___EAID_2BC2721C_FB38_44f0_A75E_D5033694D7BC -->
<g id="node5" class="node"><title>EAID_6D562439_F902_4494_B6F4_4E0D09CCD6F0___EAID_2BC2721C_FB38_44f0_A75E_D5033694D7BC</title>
<image xlink:href="img/activity_icon.png" width="30px" height="20px" preserveAspectRatio="xMinYMin meet" x="1499" y="-471"/>
<text text-anchor="start" x="1428" y="-436.8" font-family="Times New Roman,serif" font-weight="bold" font-size="14.00">Create a category:Category</text>
<text text-anchor="start" x="1504.5" y="-422.8" font-family="Times New Roman,serif" font-weight="bold" font-size="14.00">list</text>
</g>
<!-- EAID_6D562439_F902_4494_B6F4_4E0D09CCD6F0___EAID_2BC2721C_FB38_44f0_A75E_D5033694D7BC&#45;&gt;EAID_2BC2721C_FB38_44f0_A75E_D5033694D7BC___EAID_B7F9D4DA_3679_4df7_B2BB_1A32448BA916 -->
<g id="edge5" class="edge"><title>EAID_6D562439_F902_4494_B6F4_4E0D09CCD6F0___EAID_2BC2721C_FB38_44f0_A75E_D5033694D7BC&#45;&gt;EAID_2BC2721C_FB38_44f0_A75E_D5033694D7BC___EAID_B7F9D4DA_3679_4df7_B2BB_1A32448BA916</title>
<path fill="none" stroke="black" d="M1473.18,-412.992C1460.83,-403.608 1447.13,-393.202 1434.29,-383.444"/>
<polygon fill="black" stroke="black" points="1436.07,-380.405 1425.99,-377.142 1431.84,-385.979 1436.07,-380.405"/>
</g>
<!-- EAID_6D562439_F902_4494_B6F4_4E0D09CCD6F0___EAID_2BC2721C_FB38_44f0_A75E_D5033694D7BC&#45;&gt;EAID_DDC2D790_6648_4fb3_A728_801B88D6B7F0 -->
<g id="edge15" class="edge"><title>EAID_6D562439_F902_4494_B6F4_4E0D09CCD6F0___EAID_2BC2721C_FB38_44f0_A75E_D5033694D7BC&#45;&gt;EAID_DDC2D790_6648_4fb3_A728_801B88D6B7F0</title>
<path fill="none" stroke="black" stroke-dasharray="5,2" d="M1526.31,-412.979C1530.44,-401.769 1534.8,-388.935 1538,-377 1568.8,-262.005 1588.95,-121.139 1596.57,-62.5714"/>
<polygon fill="black" stroke="black" points="1600.09,-62.6662 1597.89,-52.3021 1593.14,-61.7754 1600.09,-62.6662"/>
</g>
<!-- EAID_A2E7B276_9971_4181_A8D6_53F508DFC1C4___EAID_2BC2721C_FB38_44f0_A75E_D5033694D7BC -->
<g id="node6" class="node"><title>EAID_A2E7B276_9971_4181_A8D6_53F508DFC1C4___EAID_2BC2721C_FB38_44f0_A75E_D5033694D7BC</title>
<image xlink:href="img/activity_icon.png" width="30px" height="20px" preserveAspectRatio="xMinYMin meet" x="1315" y="-471"/>
<text text-anchor="start" x="1272.5" y="-436.8" font-family="Times New Roman,serif" font-weight="bold" font-size="14.00">Choose a category</text>
<text text-anchor="start" x="1270" y="-422.8" font-family="Times New Roman,serif" font-weight="bold" font-size="14.00">or not:Category list</text>
</g>
<!-- EAID_A2E7B276_9971_4181_A8D6_53F508DFC1C4___EAID_2BC2721C_FB38_44f0_A75E_D5033694D7BC&#45;&gt;EAID_2BC2721C_FB38_44f0_A75E_D5033694D7BC___EAID_B7F9D4DA_3679_4df7_B2BB_1A32448BA916 -->
<g id="edge6" class="edge"><title>EAID_A2E7B276_9971_4181_A8D6_53F508DFC1C4___EAID_2BC2721C_FB38_44f0_A75E_D5033694D7BC&#45;&gt;EAID_2BC2721C_FB38_44f0_A75E_D5033694D7BC___EAID_B7F9D4DA_3679_4df7_B2BB_1A32448BA916</title>
<path fill="none" stroke="black" d="M1347.4,-412.992C1352.22,-404.413 1357.51,-394.978 1362.57,-385.966"/>
<polygon fill="black" stroke="black" points="1365.68,-387.576 1367.52,-377.142 1359.58,-384.15 1365.68,-387.576"/>
</g>
<!-- EAID_A2E7B276_9971_4181_A8D6_53F508DFC1C4___EAID_2BC2721C_FB38_44f0_A75E_D5033694D7BC&#45;&gt;EAID_DDC2D790_6648_4fb3_A728_801B88D6B7F0 -->
<g id="edge16" class="edge"><title>EAID_A2E7B276_9971_4181_A8D6_53F508DFC1C4___EAID_2BC2721C_FB38_44f0_A75E_D5033694D7BC&#45;&gt;EAID_DDC2D790_6648_4fb3_A728_801B88D6B7F0</title>
<path fill="none" stroke="black" stroke-dasharray="5,2" d="M1400.05,-416.141C1436.88,-400.96 1475.71,-383.896 1482,-377 1572.38,-277.962 1532.14,-216.994 1578,-91 1581.52,-81.3409 1585.58,-70.833 1589.25,-61.5561"/>
<polygon fill="black" stroke="black" points="1592.58,-62.6563 1593.03,-52.0712 1586.08,-60.0621 1592.58,-62.6563"/>
</g>
<!-- EAID_A2E7B276_9971_4181_A8D6_53F508DFC1C4___EAID_6D562439_F902_4494_B6F4_4E0D09CCD6F0 -->
<g id="node7" class="node"><title>EAID_A2E7B276_9971_4181_A8D6_53F508DFC1C4___EAID_6D562439_F902_4494_B6F4_4E0D09CCD6F0</title>
<image xlink:href="img/activity_icon.png" width="30px" height="20px" preserveAspectRatio="xMinYMin meet" x="1341.5" y="-585"/>
<text text-anchor="start" x="1299" y="-550.8" font-family="Times New Roman,serif" font-weight="bold" font-size="14.00">Choose a category</text>
<text text-anchor="start" x="1309.5" y="-536.8" font-family="Times New Roman,serif" font-weight="bold" font-size="14.00">or not:Create a</text>
<text text-anchor="start" x="1329.5" y="-522.8" font-family="Times New Roman,serif" font-weight="bold" font-size="14.00">category</text>
</g>
<!-- EAID_A2E7B276_9971_4181_A8D6_53F508DFC1C4___EAID_6D562439_F902_4494_B6F4_4E0D09CCD6F0&#45;&gt;EAID_6D562439_F902_4494_B6F4_4E0D09CCD6F0___EAID_2BC2721C_FB38_44f0_A75E_D5033694D7BC -->
<g id="edge7" class="edge"><title>EAID_A2E7B276_9971_4181_A8D6_53F508DFC1C4___EAID_6D562439_F902_4494_B6F4_4E0D09CCD6F0&#45;&gt;EAID_6D562439_F902_4494_B6F4_4E0D09CCD6F0___EAID_2BC2721C_FB38_44f0_A75E_D5033694D7BC</title>
<path fill="none" stroke="black" d="M1413.49,-512.796C1428.24,-502.992 1444.08,-492.469 1458.71,-482.741"/>
<polygon fill="black" stroke="black" points="1460.78,-485.567 1467.18,-477.117 1456.91,-479.737 1460.78,-485.567"/>
</g>
<!-- EAID_A2E7B276_9971_4181_A8D6_53F508DFC1C4___EAID_6D562439_F902_4494_B6F4_4E0D09CCD6F0&#45;&gt;EAID_DDC2D790_6648_4fb3_A728_801B88D6B7F0 -->
<g id="edge17" class="edge"><title>EAID_A2E7B276_9971_4181_A8D6_53F508DFC1C4___EAID_6D562439_F902_4494_B6F4_4E0D09CCD6F0&#45;&gt;EAID_DDC2D790_6648_4fb3_A728_801B88D6B7F0</title>
<path fill="none" stroke="black" stroke-dasharray="5,2" d="M1423.6,-516.417C1426.75,-515.194 1429.89,-514.047 1433,-513 1512.8,-486.129 1560.88,-537.926 1619,-477 1659.61,-434.431 1638,-404.831 1638,-346 1638,-346 1638,-346 1638,-237 1638,-173.395 1619.58,-100.436 1608.39,-61.9833"/>
<polygon fill="black" stroke="black" points="1611.65,-60.6759 1605.44,-52.089 1604.94,-62.6719 1611.65,-60.6759"/>
</g>
<!-- EAID_A2E7B276_9971_4181_A8D6_53F508DFC1C4___EAID_9DE898AA_672B_4a03_9442_84BB9AB9B167 -->
<g id="node8" class="node"><title>EAID_A2E7B276_9971_4181_A8D6_53F508DFC1C4___EAID_9DE898AA_672B_4a03_9442_84BB9AB9B167</title>
<image xlink:href="img/activity_icon.png" width="30px" height="20px" preserveAspectRatio="xMinYMin meet" x="1511" y="-585"/>
<text text-anchor="start" x="1468.5" y="-550.8" font-family="Times New Roman,serif" font-weight="bold" font-size="14.00">Choose a category</text>
<text text-anchor="start" x="1452" y="-536.8" font-family="Times New Roman,serif" font-weight="bold" font-size="14.00">or not:Random coupoon</text>
<text text-anchor="start" x="1512.5" y="-522.8" font-family="Times New Roman,serif" font-weight="bold" font-size="14.00">pool</text>
</g>
<!-- EAID_A2E7B276_9971_4181_A8D6_53F508DFC1C4___EAID_9DE898AA_672B_4a03_9442_84BB9AB9B167&#45;&gt;EAID_89DA77E9_17AA_4f66_B6A0_31552C8E1C6C -->
<g id="edge18" class="edge"><title>EAID_A2E7B276_9971_4181_A8D6_53F508DFC1C4___EAID_9DE898AA_672B_4a03_9442_84BB9AB9B167&#45;&gt;EAID_89DA77E9_17AA_4f66_B6A0_31552C8E1C6C</title>
<path fill="none" stroke="black" stroke-dasharray="5,2" d="M1610.1,-518.127C1626.83,-507.577 1642.23,-494.063 1652,-477 1666.13,-452.314 1660.02,-440.292 1652,-413 1607.91,-262.868 1483.75,-115.96 1432.04,-59.3774"/>
<polygon fill="black" stroke="black" points="1434.6,-56.9825 1425.25,-52.0019 1429.45,-61.7269 1434.6,-56.9825"/>
</g>
<!-- EAID_93ECEF1F_C28E_4848_8C1A_93C451BF208A___EAID_A2E7B276_9971_4181_A8D6_53F508DFC1C4&#45;&gt;EAID_A2E7B276_9971_4181_A8D6_53F508DFC1C4___EAID_2BC2721C_FB38_44f0_A75E_D5033694D7BC -->
<g id="edge8" class="edge"><title>EAID_93ECEF1F_C28E_4848_8C1A_93C451BF208A___EAID_A2E7B276_9971_4181_A8D6_53F508DFC1C4&#45;&gt;EAID_A2E7B276_9971_4181_A8D6_53F508DFC1C4___EAID_2BC2721C_FB38_44f0_A75E_D5033694D7BC</title>
<path fill="none" stroke="black" d="M1399.78,-657.066C1355.32,-647.885 1307.55,-629.058 1280,-591 1259.67,-562.918 1269.08,-545.901 1280,-513 1283.19,-503.392 1288.35,-494.046 1294.18,-485.532"/>
<polygon fill="black" stroke="black" points="1297.11,-487.458 1300.17,-477.317 1291.45,-483.331 1297.11,-487.458"/>
</g>
<!-- EAID_93ECEF1F_C28E_4848_8C1A_93C451BF208A___EAID_A2E7B276_9971_4181_A8D6_53F508DFC1C4&#45;&gt;EAID_A2E7B276_9971_4181_A8D6_53F508DFC1C4___EAID_6D562439_F902_4494_B6F4_4E0D09CCD6F0 -->
<g id="edge9" class="edge"><title>EAID_93ECEF1F_C28E_4848_8C1A_93C451BF208A___EAID_A2E7B276_9971_4181_A8D6_53F508DFC1C4&#45;&gt;EAID_A2E7B276_9971_4181_A8D6_53F508DFC1C4___EAID_6D562439_F902_4494_B6F4_4E0D09CCD6F0</title>
<path fill="none" stroke="black" d="M1454.14,-626.769C1441.43,-617.218 1427.7,-606.898 1414.65,-597.089"/>
<polygon fill="black" stroke="black" points="1416.73,-594.269 1406.63,-591.058 1412.52,-599.865 1416.73,-594.269"/>
</g>
<!-- EAID_93ECEF1F_C28E_4848_8C1A_93C451BF208A___EAID_A2E7B276_9971_4181_A8D6_53F508DFC1C4&#45;&gt;EAID_A2E7B276_9971_4181_A8D6_53F508DFC1C4___EAID_9DE898AA_672B_4a03_9442_84BB9AB9B167 -->
<g id="edge10" class="edge"><title>EAID_93ECEF1F_C28E_4848_8C1A_93C451BF208A___EAID_A2E7B276_9971_4181_A8D6_53F508DFC1C4&#45;&gt;EAID_A2E7B276_9971_4181_A8D6_53F508DFC1C4___EAID_9DE898AA_672B_4a03_9442_84BB9AB9B167</title>
<path fill="none" stroke="black" d="M1512.17,-626.769C1513.72,-618.48 1515.39,-609.61 1517,-600.999"/>
<polygon fill="black" stroke="black" points="1520.46,-601.532 1518.86,-591.058 1513.58,-600.242 1520.46,-601.532"/>
</g>
<!-- EAID_93ECEF1F_C28E_4848_8C1A_93C451BF208A___EAID_A2E7B276_9971_4181_A8D6_53F508DFC1C4&#45;&gt;EAID_DDC2D790_6648_4fb3_A728_801B88D6B7F0 -->
<g id="edge19" class="edge"><title>EAID_93ECEF1F_C28E_4848_8C1A_93C451BF208A___EAID_A2E7B276_9971_4181_A8D6_53F508DFC1C4&#45;&gt;EAID_DDC2D790_6648_4fb3_A728_801B88D6B7F0</title>
<path fill="none" stroke="black" stroke-dasharray="5,2" d="M1578.1,-626.951C1638.37,-589.748 1714,-526.937 1714,-446 1714,-446 1714,-446 1714,-237 1714,-165.12 1658.58,-95.2708 1625.02,-59.5668"/>
<polygon fill="black" stroke="black" points="1627.26,-56.853 1617.81,-52.0657 1622.22,-61.7022 1627.26,-56.853"/>
</g>
<!-- EAID_12073305_A48E_45e5_B560_5A44C5D8A099___EAID_93ECEF1F_C28E_4848_8C1A_93C451BF208A_STL -->
<g id="node10" class="node"><title>EAID_12073305_A48E_45e5_B560_5A44C5D8A099___EAID_93ECEF1F_C28E_4848_8C1A_93C451BF208A_STL</title>
<image xlink:href="img/stimulus_icon.png" width="30px" height="20px" preserveAspectRatio="xMinYMin meet" x="1494.5" y="-883.5"/>
<text text-anchor="start" x="1412" y="-849.3" font-family="Times New Roman,serif" font-weight="bold" font-size="14.00">stl#User:Coupon receiving page</text>
</g>
<!-- EAID_12073305_A48E_45e5_B560_5A44C5D8A099___EAID_93ECEF1F_C28E_4848_8C1A_93C451BF208A_STL&#45;&gt;EAID_12073305_A48E_45e5_B560_5A44C5D8A099___EAID_93ECEF1F_C28E_4848_8C1A_93C451BF208A -->
<g id="edge2" class="edge"><title>EAID_12073305_A48E_45e5_B560_5A44C5D8A099___EAID_93ECEF1F_C28E_4848_8C1A_93C451BF208A_STL&#45;&gt;EAID_12073305_A48E_45e5_B560_5A44C5D8A099___EAID_93ECEF1F_C28E_4848_8C1A_93C451BF208A</title>
<path fill="none" stroke="black" d="M1509,-838.778C1509,-827.692 1509,-814.42 1509,-802.351"/>
<polygon fill="black" stroke="black" points="1512.5,-802.139 1509,-792.139 1505.5,-802.139 1512.5,-802.139"/>
</g>
<!-- EAID_3FB61F91_1358_4ea9_B760_8E437DFC6DFE -->
<g id="node11" class="node"><title>EAID_3FB61F91_1358_4ea9_B760_8E437DFC6DFE</title>
<polygon fill="none" stroke="black" points="4392,-23 4392,-44 4484,-44 4484,-23 4392,-23"/>
<text text-anchor="start" x="4395" y="-30.8" font-family="Times New Roman,serif" font-weight="bold" font-size="14.00">Administrator</text>
<polygon fill="none" stroke="black" points="4391,-22.5 4391,-45.5 4485,-45.5 4485,-22.5 4391,-22.5"/>
</g>
<!-- EAID_203589E9_F431_4893_9BF9_EBE65748645B -->
<g id="node12" class="node"><title>EAID_203589E9_F431_4893_9BF9_EBE65748645B</title>
<polygon fill="none" stroke="black" points="4213,-23 4213,-44 4356,-44 4356,-23 4213,-23"/>
<text text-anchor="start" x="4216" y="-30.8" font-family="Times New Roman,serif" font-weight="bold" font-size="14.00">Transaction Log Page</text>
<polygon fill="none" stroke="black" points="4211.5,-22.5 4211.5,-45.5 4356.5,-45.5 4356.5,-22.5 4211.5,-22.5"/>
</g>
<!-- EAID_456E301B_558A_4606_86F5_F4E13C55015B -->
<g id="node13" class="node"><title>EAID_456E301B_558A_4606_86F5_F4E13C55015B</title>
<polygon fill="none" stroke="black" points="3984,-23 3984,-44 4177,-44 4177,-23 3984,-23"/>
<text text-anchor="start" x="3987" y="-30.8" font-family="Times New Roman,serif" font-weight="bold" font-size="14.00">Enter username and password</text>
<polygon fill="none" stroke="black" points="3982.5,-22.5 3982.5,-45.5 4177.5,-45.5 4177.5,-22.5 3982.5,-22.5"/>
</g>
<!-- EAID_963024D3_8B26_429f_B514_62E3D25E05F0 -->
<g id="node14" class="node"><title>EAID_963024D3_8B26_429f_B514_62E3D25E05F0</title>
<polygon fill="none" stroke="black" points="3827,-23 3827,-44 3948,-44 3948,-23 3827,-23"/>
<text text-anchor="start" x="3830" y="-30.8" font-family="Times New Roman,serif" font-weight="bold" font-size="14.00">display partner list</text>
<polygon fill="none" stroke="black" points="3825.5,-22.5 3825.5,-45.5 3948.5,-45.5 3948.5,-22.5 3825.5,-22.5"/>
</g>
<!-- EAID_B3569612_E0E4_4135_92F9_6C661977C326 -->
<g id="node15" class="node"><title>EAID_B3569612_E0E4_4135_92F9_6C661977C326</title>
<polygon fill="none" stroke="black" points="3684,-23 3684,-44 3790,-44 3790,-23 3684,-23"/>
<text text-anchor="start" x="3687" y="-30.8" font-family="Times New Roman,serif" font-weight="bold" font-size="14.00">Direct to modify</text>
<polygon fill="none" stroke="black" points="3683,-22.5 3683,-45.5 3791,-45.5 3791,-22.5 3683,-22.5"/>
</g>
<!-- EAID_4368C098_7FC9_4c05_9CA6_E585C4317E5E -->
<g id="node16" class="node"><title>EAID_4368C098_7FC9_4c05_9CA6_E585C4317E5E</title>
<polygon fill="none" stroke="black" points="3530,-23 3530,-44 3648,-44 3648,-23 3530,-23"/>
<text text-anchor="start" x="3533" y="-30.8" font-family="Times New Roman,serif" font-weight="bold" font-size="14.00">Retrieve and print</text>
<polygon fill="none" stroke="black" points="3529,-22.5 3529,-45.5 3649,-45.5 3649,-22.5 3529,-22.5"/>
</g>
<!-- EAID_89FA625B_DDE8_4b40_8497_572902E8AD0D -->
<g id="node17" class="node"><title>EAID_89FA625B_DDE8_4b40_8497_572902E8AD0D</title>
<polygon fill="none" stroke="black" points="3427,-23 3427,-44 3494,-44 3494,-23 3427,-23"/>
<text text-anchor="start" x="3430" y="-30.8" font-family="Times New Roman,serif" font-weight="bold" font-size="14.00">Employee</text>
<polygon fill="none" stroke="black" points="3425.5,-22.5 3425.5,-45.5 3494.5,-45.5 3494.5,-22.5 3425.5,-22.5"/>
</g>
<!-- EAID_60D180E9_820F_43a1_A0E5_F68051113F17 -->
<g id="node18" class="node"><title>EAID_60D180E9_820F_43a1_A0E5_F68051113F17</title>
<polygon fill="none" stroke="black" points="3342,-23 3342,-44 3391,-44 3391,-23 3342,-23"/>
<text text-anchor="start" x="3345" y="-30.8" font-family="Times New Roman,serif" font-weight="bold" font-size="14.00">Invoke</text>
<polygon fill="none" stroke="black" points="3340.5,-22.5 3340.5,-45.5 3391.5,-45.5 3391.5,-22.5 3340.5,-22.5"/>
</g>
<!-- EAID_1F31CA6B_1735_49e6_96F8_D53069B77FF0 -->
<g id="node19" class="node"><title>EAID_1F31CA6B_1735_49e6_96F8_D53069B77FF0</title>
<polygon fill="none" stroke="black" points="3251,-23 3251,-44 3306,-44 3306,-23 3251,-23"/>
<text text-anchor="start" x="3254" y="-30.8" font-family="Times New Roman,serif" font-weight="bold" font-size="14.00">account</text>
<polygon fill="none" stroke="black" points="3249.5,-22.5 3249.5,-45.5 3306.5,-45.5 3306.5,-22.5 3249.5,-22.5"/>
</g>
<!-- EAID_9F435887_A548_4ec1_BBA9_A54067F42CD6 -->
<g id="node20" class="node"><title>EAID_9F435887_A548_4ec1_BBA9_A54067F42CD6</title>
<polygon fill="none" stroke="black" points="3090,-23 3090,-44 3215,-44 3215,-23 3090,-23"/>
<text text-anchor="start" x="3093" y="-30.8" font-family="Times New Roman,serif" font-weight="bold" font-size="14.00">Click cancel button</text>
<polygon fill="none" stroke="black" points="3088.5,-22.5 3088.5,-45.5 3215.5,-45.5 3215.5,-22.5 3088.5,-22.5"/>
</g>
<!-- EAID_771E150D_7083_47c4_9F8B_477734B9B5D3 -->
<g id="node22" class="node"><title>EAID_771E150D_7083_47c4_9F8B_477734B9B5D3</title>
<polygon fill="none" stroke="black" points="2668,-23 2668,-44 2717,-44 2717,-23 2668,-23"/>
<text text-anchor="start" x="2671" y="-30.8" font-family="Times New Roman,serif" font-weight="bold" font-size="14.00">Search</text>
<polygon fill="none" stroke="black" points="2666.5,-22.5 2666.5,-45.5 2717.5,-45.5 2717.5,-22.5 2666.5,-22.5"/>
</g>
<!-- EAID_1E2A037D_67C6_4b69_AEDC_5B45349BFAC2 -->
<g id="node23" class="node"><title>EAID_1E2A037D_67C6_4b69_AEDC_5B45349BFAC2</title>
<polygon fill="none" stroke="black" points="2453,-23 2453,-44 2631,-44 2631,-23 2453,-23"/>
<text text-anchor="start" x="2456" y="-30.8" font-family="Times New Roman,serif" font-weight="bold" font-size="14.00">EmailNotificationController</text>
<polygon fill="none" stroke="black" points="2452,-22.5 2452,-45.5 2632,-45.5 2632,-22.5 2452,-22.5"/>
</g>
<!-- EAID_D21BB805_A3FC_4e33_B592_FDCF42E93EF6 -->
<g id="node24" class="node"><title>EAID_D21BB805_A3FC_4e33_B592_FDCF42E93EF6</title>
<polygon fill="none" stroke="black" points="2382,-23 2382,-44 2416,-44 2416,-23 2382,-23"/>
<text text-anchor="start" x="2385" y="-30.8" font-family="Times New Roman,serif" font-weight="bold" font-size="14.00">Bills</text>
<polygon fill="none" stroke="black" points="2381,-22.5 2381,-45.5 2417,-45.5 2417,-22.5 2381,-22.5"/>
</g>
<!-- EAID_3D0E881B_8CE1_45b2_9DF0_3508DC1B6953 -->
<g id="node25" class="node"><title>EAID_3D0E881B_8CE1_45b2_9DF0_3508DC1B6953</title>
<polygon fill="none" stroke="black" points="2183,-23 2183,-44 2345,-44 2345,-23 2183,-23"/>
<text text-anchor="start" x="2186" y="-30.8" font-family="Times New Roman,serif" font-weight="bold" font-size="14.00">Trip plans database table</text>
<polygon fill="none" stroke="black" points="2182,-22.5 2182,-45.5 2346,-45.5 2346,-22.5 2182,-22.5"/>
</g>
<!-- EAID_09CE27D1_4B61_433e_A7A5_7CC89CCA63F7 -->
<g id="node26" class="node"><title>EAID_09CE27D1_4B61_433e_A7A5_7CC89CCA63F7</title>
<polygon fill="none" stroke="black" points="2050,-23 2050,-44 2147,-44 2147,-23 2050,-23"/>
<text text-anchor="start" x="2053" y="-30.8" font-family="Times New Roman,serif" font-weight="bold" font-size="14.00">Validate/check</text>
<polygon fill="none" stroke="black" points="2048.5,-22.5 2048.5,-45.5 2147.5,-45.5 2147.5,-22.5 2048.5,-22.5"/>
</g>
<!-- EAID_13550E6A_4789_4323_8D14_C43C60F524BF -->
<g id="node27" class="node"><title>EAID_13550E6A_4789_4323_8D14_C43C60F524BF</title>
<polygon fill="none" stroke="black" points="1945,-23 1945,-44 2013,-44 2013,-23 1945,-23"/>
<text text-anchor="start" x="1948" y="-30.8" font-family="Times New Roman,serif" font-weight="bold" font-size="14.00">Geo fence</text>
<polygon fill="none" stroke="black" points="1944,-22.5 1944,-45.5 2014,-45.5 2014,-22.5 1944,-22.5"/>
</g>
<!-- EAID_E942A9FC_56CA_4dcb_8A30_5166F0C7E96D -->
<g id="node28" class="node"><title>EAID_E942A9FC_56CA_4dcb_8A30_5166F0C7E96D</title>
<polygon fill="none" stroke="black" points="1829,-23 1829,-44 1909,-44 1909,-23 1829,-23"/>
<text text-anchor="start" x="1832" y="-30.8" font-family="Times New Roman,serif" font-weight="bold" font-size="14.00">Save it later</text>
<polygon fill="none" stroke="black" points="1828,-22.5 1828,-45.5 1910,-45.5 1910,-22.5 1828,-22.5"/>
</g>
<!-- EAID_D96DCF18_B051_4a74_B994_4AA72F2F6980 -->
<g id="node29" class="node"><title>EAID_D96DCF18_B051_4a74_B994_4AA72F2F6980</title>
<polygon fill="none" stroke="black" points="1695,-23 1695,-44 1793,-44 1793,-23 1695,-23"/>
<text text-anchor="start" x="1698" y="-30.8" font-family="Times New Roman,serif" font-weight="bold" font-size="14.00">Scan QR Code</text>
<polygon fill="none" stroke="black" points="1694,-22.5 1694,-45.5 1794,-45.5 1794,-22.5 1694,-22.5"/>
</g>
<!-- EAID_78877F71_A878_4bbc_A85F_700C53609FFA -->
<g id="node32" class="node"><title>EAID_78877F71_A878_4bbc_A85F_700C53609FFA</title>
<polygon fill="none" stroke="black" points="1128,-23 1128,-44 1277,-44 1277,-23 1128,-23"/>
<text text-anchor="start" x="1131" y="-30.8" font-family="Times New Roman,serif" font-weight="bold" font-size="14.00">Marked as Subscirpted</text>
<polygon fill="none" stroke="black" points="1126.5,-22.5 1126.5,-45.5 1277.5,-45.5 1277.5,-22.5 1126.5,-22.5"/>
</g>
<!-- EAID_056A8261_9F7D_4b14_B74D_AC2096049B58 -->
<g id="node33" class="node"><title>EAID_056A8261_9F7D_4b14_B74D_AC2096049B58</title>
<polygon fill="none" stroke="black" points="1035,-23 1035,-44 1092,-44 1092,-23 1035,-23"/>
<text text-anchor="start" x="1038" y="-30.8" font-family="Times New Roman,serif" font-weight="bold" font-size="14.00">Proceed</text>
<polygon fill="none" stroke="black" points="1033.5,-22.5 1033.5,-45.5 1092.5,-45.5 1092.5,-22.5 1033.5,-22.5"/>
</g>
<!-- EAID_4DFEC0D0_44CA_4667_930E_613F9322AF54 -->
<g id="node34" class="node"><title>EAID_4DFEC0D0_44CA_4667_930E_613F9322AF54</title>
<polygon fill="none" stroke="black" points="916,-23 916,-44 999,-44 999,-23 916,-23"/>
<text text-anchor="start" x="919" y="-30.8" font-family="Times New Roman,serif" font-weight="bold" font-size="14.00">FT sales rep</text>
<polygon fill="none" stroke="black" points="914.5,-22.5 914.5,-45.5 999.5,-45.5 999.5,-22.5 914.5,-22.5"/>
</g>
<!-- EAID_DE595F52_8253_48e5_AC8D_C8D8A5749F8F -->
<g id="node35" class="node"><title>EAID_DE595F52_8253_48e5_AC8D_C8D8A5749F8F</title>
<polygon fill="none" stroke="black" points="805,-23 805,-44 879,-44 879,-23 805,-23"/>
<text text-anchor="start" x="808" y="-30.8" font-family="Times New Roman,serif" font-weight="bold" font-size="14.00">Link offers</text>
<polygon fill="none" stroke="black" points="804,-22.5 804,-45.5 880,-45.5 880,-22.5 804,-22.5"/>
</g>
<!-- EAID_3E574FE1_159B_463c_A19A_654D4DF17D10 -->
<g id="node36" class="node"><title>EAID_3E574FE1_159B_463c_A19A_654D4DF17D10</title>
<polygon fill="none" stroke="black" points="734,-23 734,-44 768,-44 768,-23 734,-23"/>
<text text-anchor="start" x="737" y="-30.8" font-family="Times New Roman,serif" font-weight="bold" font-size="14.00">Test</text>
<polygon fill="none" stroke="black" points="733,-22.5 733,-45.5 769,-45.5 769,-22.5 733,-22.5"/>
</g>
<!-- EAID_2CD69C18_D4DC_4a28_A371_8B25822D6360 -->
<g id="node37" class="node"><title>EAID_2CD69C18_D4DC_4a28_A371_8B25822D6360</title>
<polygon fill="none" stroke="black" points="653,-23 653,-44 697,-44 697,-23 653,-23"/>
<text text-anchor="start" x="656" y="-30.8" font-family="Times New Roman,serif" font-weight="bold" font-size="14.00">FTSR</text>
<polygon fill="none" stroke="black" points="652,-22.5 652,-45.5 698,-45.5 698,-22.5 652,-22.5"/>
</g>
<!-- EAID_EAC17841_42BB_49cc_A531_7748B498C14A -->
<g id="node38" class="node"><title>EAID_EAC17841_42BB_49cc_A531_7748B498C14A</title>
<polygon fill="none" stroke="black" points="471,-23 471,-44 617,-44 617,-23 471,-23"/>
<text text-anchor="start" x="474" y="-30.8" font-family="Times New Roman,serif" font-weight="bold" font-size="14.00">File Chooser Windows</text>
<polygon fill="none" stroke="black" points="470,-22.5 470,-45.5 618,-45.5 618,-22.5 470,-22.5"/>
</g>
<!-- EAID_3667E19B_801A_439e_9B2B_12F9CC100B96 -->
<g id="node39" class="node"><title>EAID_3667E19B_801A_439e_9B2B_12F9CC100B96</title>
<polygon fill="none" stroke="black" points="386,-23 386,-44 435,-44 435,-23 386,-23"/>
<text text-anchor="start" x="389" y="-30.8" font-family="Times New Roman,serif" font-weight="bold" font-size="14.00">Photos</text>
<polygon fill="none" stroke="black" points="384.5,-22.5 384.5,-45.5 435.5,-45.5 435.5,-22.5 384.5,-22.5"/>
</g>
<!-- EAID_249E1B94_A628_4095_A30B_9F334D8C1C13 -->
<g id="node40" class="node"><title>EAID_249E1B94_A628_4095_A30B_9F334D8C1C13</title>
<polygon fill="none" stroke="black" points="267,-23 267,-44 349,-44 349,-23 267,-23"/>
<text text-anchor="start" x="270" y="-30.8" font-family="Times New Roman,serif" font-weight="bold" font-size="14.00">Main screen</text>
<polygon fill="none" stroke="black" points="266,-22.5 266,-45.5 350,-45.5 350,-22.5 266,-22.5"/>
</g>
<!-- EAID_52DB47A2_7596_4d57_813D_E26192FF0980 -->
<g id="node41" class="node"><title>EAID_52DB47A2_7596_4d57_813D_E26192FF0980</title>
<polygon fill="none" stroke="black" points="97,-23 97,-44 231,-44 231,-23 97,-23"/>
<text text-anchor="start" x="100" y="-30.8" font-family="Times New Roman,serif" font-weight="bold" font-size="14.00">Error prompting box</text>
<polygon fill="none" stroke="black" points="96,-22.5 96,-45.5 232,-45.5 232,-22.5 96,-22.5"/>
</g>
<!-- EAID_9E1297B3_D53B_4da9_9B1B_6CBDED4B1EEB -->
<g id="node42" class="node"><title>EAID_9E1297B3_D53B_4da9_9B1B_6CBDED4B1EEB</title>
<polygon fill="none" stroke="black" points="26,-23 26,-44 61,-44 61,-23 26,-23"/>
<text text-anchor="start" x="29" y="-30.8" font-family="Times New Roman,serif" font-weight="bold" font-size="14.00">Map</text>
<polygon fill="none" stroke="black" points="24.5,-22.5 24.5,-45.5 61.5,-45.5 61.5,-22.5 24.5,-22.5"/>
</g>
</g>
</svg>
