<?xml version="1.0" encoding="UTF-8" standalone="no"?>
<!DOCTYPE svg PUBLIC "-//W3C//DTD SVG 1.1//EN"
 "http://www.w3.org/Graphics/SVG/1.1/DTD/svg11.dtd">
<!-- Generated by graphviz version 2.38.0 (20140413.2041)
 -->
<!-- Title: g Pages: 1 -->
<svg width="432pt" height="332pt"
 viewBox="0.00 0.00 431.78 332.00" xmlns="http://www.w3.org/2000/svg" xmlns:xlink="http://www.w3.org/1999/xlink">
<g id="graph0" class="graph" transform="scale(1 1) rotate(0) translate(4 328)">
<title>g</title>
<polygon fill="white" stroke="none" points="-4,4 -4,-328 427.782,-328 427.782,4 -4,4"/>
<!-- update user account information -->
<g id="node1" class="node"><title>update user account information</title>
<ellipse fill="none" stroke="black" cx="295.743" cy="-90" rx="128.077" ry="18"/>
<text text-anchor="middle" x="295.743" y="-86.3" font-family="Times New Roman,serif" font-size="14.00">update user account information</text>
</g>
<!-- account information -->
<g id="node2" class="node"><title>account information</title>
<ellipse fill="none" stroke="black" cx="295.743" cy="-18" rx="83.3857" ry="18"/>
<text text-anchor="middle" x="295.743" y="-14.3" font-family="Times New Roman,serif" font-size="14.00">account information</text>
</g>
<!-- update user account information&#45;&gt;account information -->
<g id="edge1" class="edge"><title>update user account information&#45;&gt;account information</title>
<path fill="none" stroke="black" d="M295.743,-71.6966C295.743,-63.9827 295.743,-54.7125 295.743,-46.1124"/>
<polygon fill="black" stroke="black" points="299.243,-46.1043 295.743,-36.1043 292.243,-46.1044 299.243,-46.1043"/>
</g>
<!-- verify input information -->
<g id="node3" class="node"><title>verify input information</title>
<ellipse fill="none" stroke="black" cx="198.743" cy="-162" rx="95.5831" ry="18"/>
<text text-anchor="middle" x="198.743" y="-158.3" font-family="Times New Roman,serif" font-size="14.00">verify input information</text>
</g>
<!-- verify input information&#45;&gt;update user account information -->
<g id="edge3" class="edge"><title>verify input information&#45;&gt;update user account information</title>
<path fill="none" stroke="black" d="M221.731,-144.411C234.443,-135.237 250.424,-123.704 264.28,-113.705"/>
<polygon fill="black" stroke="black" points="266.524,-116.403 272.585,-107.713 262.427,-110.726 266.524,-116.403"/>
</g>
<!-- Error Information -->
<g id="node4" class="node"><title>Error Information</title>
<ellipse fill="none" stroke="black" cx="74.7434" cy="-90" rx="74.9875" ry="18"/>
<text text-anchor="middle" x="74.7434" y="-86.3" font-family="Times New Roman,serif" font-size="14.00">Error Information</text>
</g>
<!-- verify input information&#45;&gt;Error Information -->
<g id="edge2" class="edge"><title>verify input information&#45;&gt;Error Information</title>
<path fill="none" stroke="black" d="M169.984,-144.765C152.645,-134.977 130.383,-122.409 111.742,-111.886"/>
<polygon fill="black" stroke="black" points="113.349,-108.774 102.92,-106.906 109.907,-114.87 113.349,-108.774"/>
</g>
<!-- Edit Profile Page -->
<g id="node5" class="node"><title>Edit Profile Page</title>
<ellipse fill="none" stroke="black" cx="185.743" cy="-234" rx="71.4873" ry="18"/>
<text text-anchor="middle" x="185.743" y="-230.3" font-family="Times New Roman,serif" font-size="14.00">Edit Profile Page</text>
</g>
<!-- Edit Profile Page&#45;&gt;verify input information -->
<g id="edge4" class="edge"><title>Edit Profile Page&#45;&gt;verify input information</title>
<path fill="none" stroke="black" d="M188.957,-215.697C190.389,-207.983 192.111,-198.712 193.708,-190.112"/>
<polygon fill="black" stroke="black" points="197.182,-190.575 195.567,-180.104 190.3,-189.297 197.182,-190.575"/>
</g>
<!-- User -->
<g id="node6" class="node"><title>User</title>
<ellipse fill="none" stroke="black" cx="129.743" cy="-306" rx="27.8951" ry="18"/>
<text text-anchor="middle" x="129.743" y="-302.3" font-family="Times New Roman,serif" font-size="14.00">User</text>
</g>
<!-- User&#45;&gt;Error Information -->
<g id="edge6" class="edge"><title>User&#45;&gt;Error Information</title>
<path fill="none" stroke="black" d="M121.148,-288.686C116.036,-278.401 109.782,-264.707 105.743,-252 91.1813,-206.179 82.34,-150.736 78.0097,-118.314"/>
<polygon fill="black" stroke="black" points="81.4621,-117.719 76.7124,-108.249 74.5195,-118.614 81.4621,-117.719"/>
</g>
<!-- User&#45;&gt;Edit Profile Page -->
<g id="edge5" class="edge"><title>User&#45;&gt;Edit Profile Page</title>
<path fill="none" stroke="black" d="M142.172,-289.465C149.12,-280.78 157.943,-269.75 165.831,-259.891"/>
<polygon fill="black" stroke="black" points="168.66,-261.957 172.174,-251.962 163.194,-257.584 168.66,-261.957"/>
</g>
</g>
</svg>
