<?xml version="1.0" encoding="UTF-8" standalone="no"?>
<!DOCTYPE svg PUBLIC "-//W3C//DTD SVG 1.1//EN"
 "http://www.w3.org/Graphics/SVG/1.1/DTD/svg11.dtd">
<!-- Generated by graphviz version 2.38.0 (20140413.2041)
 -->
<!-- Title: g Pages: 1 -->
<svg width="16657pt" height="99pt"
 viewBox="0.00 0.00 16657.00 99.00" xmlns="http://www.w3.org/2000/svg" xmlns:xlink="http://www.w3.org/1999/xlink">
<g id="graph0" class="graph" transform="scale(1 1) rotate(0) translate(4 95)">
<title>g</title>
<polygon fill="white" stroke="none" points="-4,4 -4,-95 16653,-95 16653,4 -4,4"/>
<g id="clust1" class="cluster"><title>cluster1000</title>
<polygon fill="none" stroke="black" stroke-width="2" points="8,-8 8,-83 16641,-83 16641,-8 8,-8"/>
<text text-anchor="start" x="8279" y="-68.8" font-family="Times New Roman,serif" font-weight="bold" font-size="14.00">Domain Model</text>
</g>
<!-- EAID_41AE5E54_C604_46c7_8C7D_943689CB0E55 -->
<g id="node1" class="node"><title>EAID_41AE5E54_C604_46c7_8C7D_943689CB0E55</title>
<polygon fill="none" stroke="black" points="16563,-23 16563,-44 16624,-44 16624,-23 16563,-23"/>
<text text-anchor="start" x="16566" y="-30.8" font-family="Times New Roman,serif" font-weight="bold" font-size="14.00">App user</text>
<polygon fill="none" stroke="black" points="16561.5,-22.5 16561.5,-45.5 16624.5,-45.5 16624.5,-22.5 16561.5,-22.5"/>
</g>
<!-- EAID_1FA390CD_2BA5_49c0_A48F_77F85C6B4B9D -->
<g id="node2" class="node"><title>EAID_1FA390CD_2BA5_49c0_A48F_77F85C6B4B9D</title>
<polygon fill="none" stroke="black" points="16378,-23 16378,-44 16526,-44 16526,-23 16378,-23"/>
<text text-anchor="start" x="16381" y="-30.8" font-family="Times New Roman,serif" font-weight="bold" font-size="14.00">display failure message</text>
<polygon fill="none" stroke="black" points="16377,-22.5 16377,-45.5 16527,-45.5 16527,-22.5 16377,-22.5"/>
</g>
<!-- EAID_3BC4F118_48C2_4adb_9E5D_59F0A06A12E9 -->
<g id="node3" class="node"><title>EAID_3BC4F118_48C2_4adb_9E5D_59F0A06A12E9</title>
<polygon fill="none" stroke="black" points="16198,-23 16198,-44 16342,-44 16342,-23 16198,-23"/>
<text text-anchor="start" x="16201" y="-30.8" font-family="Times New Roman,serif" font-weight="bold" font-size="14.00">Registered user popup</text>
<polygon fill="none" stroke="black" points="16197,-22.5 16197,-45.5 16343,-45.5 16343,-22.5 16197,-22.5"/>
</g>
<!-- EAID_0E723912_B847_4f0d_8C8A_8EC4E3B3C261 -->
<g id="node4" class="node"><title>EAID_0E723912_B847_4f0d_8C8A_8EC4E3B3C261</title>
<polygon fill="none" stroke="black" points="16068,-23 16068,-44 16162,-44 16162,-23 16068,-23"/>
<text text-anchor="start" x="16071" y="-30.8" font-family="Times New Roman,serif" font-weight="bold" font-size="14.00">Signup Screen</text>
<polygon fill="none" stroke="black" points="16067,-22.5 16067,-45.5 16163,-45.5 16163,-22.5 16067,-22.5"/>
</g>
<!-- EAID_23CF8016_4C4C_46e6_B4FD_84E288E2FEC7 -->
<g id="node5" class="node"><title>EAID_23CF8016_4C4C_46e6_B4FD_84E288E2FEC7</title>
<polygon fill="none" stroke="black" points="15871,-23 15871,-44 16032,-44 16032,-23 15871,-23"/>
<text text-anchor="start" x="15874" y="-30.8" font-family="Times New Roman,serif" font-weight="bold" font-size="14.00">Query for first time users</text>
<polygon fill="none" stroke="black" points="15869.5,-22.5 15869.5,-45.5 16032.5,-45.5 16032.5,-22.5 15869.5,-22.5"/>
</g>
<!-- EAID_E3CAE6A8_FF97_4068_A7E9_5257D0727DE7 -->
<g id="node6" class="node"><title>EAID_E3CAE6A8_FF97_4068_A7E9_5257D0727DE7</title>
<polygon fill="none" stroke="black" points="15716,-23 15716,-44 15835,-44 15835,-23 15716,-23"/>
<text text-anchor="start" x="15719" y="-30.8" font-family="Times New Roman,serif" font-weight="bold" font-size="14.00">Account collection</text>
<polygon fill="none" stroke="black" points="15714.5,-22.5 15714.5,-45.5 15835.5,-45.5 15835.5,-22.5 15714.5,-22.5"/>
</g>
<!-- EAID_648CE65D_14F0_452a_8189_1E4663AFA99C -->
<g id="node7" class="node"><title>EAID_648CE65D_14F0_452a_8189_1E4663AFA99C</title>
<polygon fill="none" stroke="black" points="15571,-23 15571,-44 15679,-44 15679,-23 15571,-23"/>
<text text-anchor="start" x="15574" y="-30.8" font-family="Times New Roman,serif" font-weight="bold" font-size="14.00">receive response</text>
<polygon fill="none" stroke="black" points="15570,-22.5 15570,-45.5 15680,-45.5 15680,-22.5 15570,-22.5"/>
</g>
<!-- EAID_F341E2A8_3624_40e7_8A80_81B2AC896934 -->
<g id="node8" class="node"><title>EAID_F341E2A8_3624_40e7_8A80_81B2AC896934</title>
<polygon fill="none" stroke="black" points="15404,-23 15404,-44 15535,-44 15535,-23 15404,-23"/>
<text text-anchor="start" x="15407" y="-30.8" font-family="Times New Roman,serif" font-weight="bold" font-size="14.00">check first time user</text>
<polygon fill="none" stroke="black" points="15402.5,-22.5 15402.5,-45.5 15535.5,-45.5 15535.5,-22.5 15402.5,-22.5"/>
</g>
<!-- EAID_FF7F6FB1_9D44_4565_97D8_1E6B50F20753 -->
<g id="node9" class="node"><title>EAID_FF7F6FB1_9D44_4565_97D8_1E6B50F20753</title>
<polygon fill="none" stroke="black" points="15233,-23 15233,-44 15368,-44 15368,-23 15233,-23"/>
<text text-anchor="start" x="15236" y="-30.8" font-family="Times New Roman,serif" font-weight="bold" font-size="14.00">Registered user alert</text>
<polygon fill="none" stroke="black" points="15231.5,-22.5 15231.5,-45.5 15368.5,-45.5 15368.5,-22.5 15231.5,-22.5"/>
</g>
<!-- EAID_0D114C3E_828A_486d_A027_BD8F30AD08AA -->
<g id="node10" class="node"><title>EAID_0D114C3E_828A_486d_A027_BD8F30AD08AA</title>
<polygon fill="none" stroke="black" points="15066,-23 15066,-44 15196,-44 15196,-23 15066,-23"/>
<text text-anchor="start" x="15069" y="-30.8" font-family="Times New Roman,serif" font-weight="bold" font-size="14.00">Video record screen</text>
<polygon fill="none" stroke="black" points="15065,-22.5 15065,-45.5 15197,-45.5 15197,-22.5 15065,-22.5"/>
</g>
<!-- EAID_2EDE2A2A_8273_4e2e_A4AC_30F3F034A6C9 -->
<g id="node11" class="node"><title>EAID_2EDE2A2A_8273_4e2e_A4AC_30F3F034A6C9</title>
<polygon fill="none" stroke="black" points="14937,-23 14937,-44 15030,-44 15030,-23 14937,-23"/>
<text text-anchor="start" x="14940" y="-30.8" font-family="Times New Roman,serif" font-weight="bold" font-size="14.00">Report Poster</text>
<polygon fill="none" stroke="black" points="14935.5,-22.5 14935.5,-45.5 15030.5,-45.5 15030.5,-22.5 14935.5,-22.5"/>
</g>
<!-- EAID_79FE43E3_E33B_4e61_A751_6F8E41E7EC69 -->
<g id="node12" class="node"><title>EAID_79FE43E3_E33B_4e61_A751_6F8E41E7EC69</title>
<polygon fill="none" stroke="black" points="14724,-23 14724,-44 14900,-44 14900,-23 14724,-23"/>
<text text-anchor="start" x="14727" y="-30.8" font-family="Times New Roman,serif" font-weight="bold" font-size="14.00">Bad driver reporting screen</text>
<polygon fill="none" stroke="black" points="14723,-22.5 14723,-45.5 14901,-45.5 14901,-22.5 14723,-22.5"/>
</g>
<!-- EAID_00E1699A_4B0A_487b_9FBD_32AC73BB59F3 -->
<g id="node13" class="node"><title>EAID_00E1699A_4B0A_487b_9FBD_32AC73BB59F3</title>
<polygon fill="none" stroke="black" points="14420,-23 14420,-44 14688,-44 14688,-23 14420,-23"/>
<text text-anchor="start" x="14423" y="-30.8" font-family="Times New Roman,serif" font-weight="bold" font-size="14.00">Capture frame from video and extract LP#</text>
<polygon fill="none" stroke="black" points="14419,-22.5 14419,-45.5 14689,-45.5 14689,-22.5 14419,-22.5"/>
</g>
<!-- EAID_78A40B68_5159_4b15_AE5D_B15DD4CF5F23 -->
<g id="node14" class="node"><title>EAID_78A40B68_5159_4b15_AE5D_B15DD4CF5F23</title>
<polygon fill="none" stroke="black" points="14172,-23 14172,-44 14384,-44 14384,-23 14172,-23"/>
<text text-anchor="start" x="14175" y="-30.8" font-family="Times New Roman,serif" font-weight="bold" font-size="14.00">Display video with media controls</text>
<polygon fill="none" stroke="black" points="14171,-22.5 14171,-45.5 14385,-45.5 14385,-22.5 14171,-22.5"/>
</g>
<!-- EAID_DB915CF1_78EC_42a5_91B2_733A284B48BF -->
<g id="node15" class="node"><title>EAID_DB915CF1_78EC_42a5_91B2_733A284B48BF</title>
<polygon fill="none" stroke="black" points="14045,-23 14045,-44 14136,-44 14136,-23 14045,-23"/>
<text text-anchor="start" x="14048" y="-30.8" font-family="Times New Roman,serif" font-weight="bold" font-size="14.00">Cancel report</text>
<polygon fill="none" stroke="black" points="14043.5,-22.5 14043.5,-45.5 14136.5,-45.5 14136.5,-22.5 14043.5,-22.5"/>
</g>
<!-- EAID_32351ABA_E3C0_4b5e_84F2_74D1475378B8 -->
<g id="node16" class="node"><title>EAID_32351ABA_E3C0_4b5e_84F2_74D1475378B8</title>
<polygon fill="none" stroke="black" points="13930,-23 13930,-44 14009,-44 14009,-23 13930,-23"/>
<text text-anchor="start" x="13933" y="-30.8" font-family="Times New Roman,serif" font-weight="bold" font-size="14.00">Email client</text>
<polygon fill="none" stroke="black" points="13928.5,-22.5 13928.5,-45.5 14009.5,-45.5 14009.5,-22.5 13928.5,-22.5"/>
</g>
<!-- EAID_A915E943_969F_4224_A917_A4D0125D5475 -->
<g id="node17" class="node"><title>EAID_A915E943_969F_4224_A917_A4D0125D5475</title>
<polygon fill="none" stroke="black" points="13739,-23 13739,-44 13893,-44 13893,-23 13739,-23"/>
<text text-anchor="start" x="13742" y="-30.8" font-family="Times New Roman,serif" font-weight="bold" font-size="14.00">Displlay captured frame</text>
<polygon fill="none" stroke="black" points="13738,-22.5 13738,-45.5 13894,-45.5 13894,-22.5 13738,-22.5"/>
</g>
<!-- EAID_B7E0E412_28AF_4851_92EF_96DE837CFDBD -->
<g id="node18" class="node"><title>EAID_B7E0E412_28AF_4851_92EF_96DE837CFDBD</title>
<polygon fill="none" stroke="black" points="13524,-23 13524,-44 13703,-44 13703,-23 13524,-23"/>
<text text-anchor="start" x="13527" y="-30.8" font-family="Times New Roman,serif" font-weight="bold" font-size="14.00">Zoom and crop functionality</text>
<polygon fill="none" stroke="black" points="13522.5,-22.5 13522.5,-45.5 13703.5,-45.5 13703.5,-22.5 13522.5,-22.5"/>
</g>
<!-- EAID_06913D99_4EA4_4fd5_854B_1CCA6EDD344C -->
<g id="node19" class="node"><title>EAID_06913D99_4EA4_4fd5_854B_1CCA6EDD344C</title>
<polygon fill="none" stroke="black" points="13301,-23 13301,-44 13488,-44 13488,-23 13301,-23"/>
<text text-anchor="start" x="13304" y="-30.8" font-family="Times New Roman,serif" font-weight="bold" font-size="14.00">Describe LP# in editable field</text>
<polygon fill="none" stroke="black" points="13299.5,-22.5 13299.5,-45.5 13488.5,-45.5 13488.5,-22.5 13299.5,-22.5"/>
</g>
<!-- EAID_037EE65F_CBA3_49b9_9AFA_67652FAEE624 -->
<g id="node20" class="node"><title>EAID_037EE65F_CBA3_49b9_9AFA_67652FAEE624</title>
<polygon fill="none" stroke="black" points="13182,-23 13182,-44 13264,-44 13264,-23 13182,-23"/>
<text text-anchor="start" x="13185" y="-30.8" font-family="Times New Roman,serif" font-weight="bold" font-size="14.00">Extract LP#</text>
<polygon fill="none" stroke="black" points="13181,-22.5 13181,-45.5 13265,-45.5 13265,-22.5 13181,-22.5"/>
</g>
<!-- EAID_6EC92B63_013A_4627_B721_9D2FE777044D -->
<g id="node21" class="node"><title>EAID_6EC92B63_013A_4627_B721_9D2FE777044D</title>
<polygon fill="none" stroke="black" points="13102,-23 13102,-44 13146,-44 13146,-23 13102,-23"/>
<text text-anchor="start" x="13105" y="-30.8" font-family="Times New Roman,serif" font-weight="bold" font-size="14.00">Finish</text>
<polygon fill="none" stroke="black" points="13101,-22.5 13101,-45.5 13147,-45.5 13147,-22.5 13101,-22.5"/>
</g>
<!-- EAID_5C52B3F5_54F3_4a0c_8112_7A9228DF4F2A -->
<g id="node22" class="node"><title>EAID_5C52B3F5_54F3_4a0c_8112_7A9228DF4F2A</title>
<polygon fill="none" stroke="black" points="12983,-23 12983,-44 13066,-44 13066,-23 12983,-23"/>
<text text-anchor="start" x="12986" y="-30.8" font-family="Times New Roman,serif" font-weight="bold" font-size="14.00">confirm LP#</text>
<polygon fill="none" stroke="black" points="12981.5,-22.5 12981.5,-45.5 13066.5,-45.5 13066.5,-22.5 12981.5,-22.5"/>
</g>
<!-- EAID_88130BA4_1C41_4abf_95CF_06A620A41D16 -->
<g id="node23" class="node"><title>EAID_88130BA4_1C41_4abf_95CF_06A620A41D16</title>
<polygon fill="none" stroke="black" points="12842,-23 12842,-44 12947,-44 12947,-23 12842,-23"/>
<text text-anchor="start" x="12845" y="-30.8" font-family="Times New Roman,serif" font-weight="bold" font-size="14.00">emergency alert</text>
<polygon fill="none" stroke="black" points="12840.5,-22.5 12840.5,-45.5 12947.5,-45.5 12947.5,-22.5 12840.5,-22.5"/>
</g>
<!-- EAID_3AD7659D_231F_479a_891E_21541D6B0918 -->
<g id="node24" class="node"><title>EAID_3AD7659D_231F_479a_891E_21541D6B0918</title>
<polygon fill="none" stroke="black" points="12659,-23 12659,-44 12805,-44 12805,-23 12659,-23"/>
<text text-anchor="start" x="12662" y="-30.8" font-family="Times New Roman,serif" font-weight="bold" font-size="14.00">Display cropped image</text>
<polygon fill="none" stroke="black" points="12658,-22.5 12658,-45.5 12806,-45.5 12806,-22.5 12658,-22.5"/>
</g>
<!-- EAID_EDDBD9C9_445A_40b1_9870_3C03EADFEC84 -->
<g id="node25" class="node"><title>EAID_EDDBD9C9_445A_40b1_9870_3C03EADFEC84</title>
<polygon fill="none" stroke="black" points="12407,-23 12407,-44 12623,-44 12623,-23 12407,-23"/>
<text text-anchor="start" x="12410" y="-30.8" font-family="Times New Roman,serif" font-weight="bold" font-size="14.00">Display emergency alert web form</text>
<polygon fill="none" stroke="black" points="12406,-22.5 12406,-45.5 12624,-45.5 12624,-22.5 12406,-22.5"/>
</g>
<!-- EAID_E0DB07CB_B693_4548_8B01_104837CF9597 -->
<g id="node26" class="node"><title>EAID_E0DB07CB_B693_4548_8B01_104837CF9597</title>
<polygon fill="none" stroke="black" points="12329,-23 12329,-44 12371,-44 12371,-23 12329,-23"/>
<text text-anchor="start" x="12332" y="-30.8" font-family="Times New Roman,serif" font-weight="bold" font-size="14.00">Video</text>
<polygon fill="none" stroke="black" points="12328,-22.5 12328,-45.5 12372,-45.5 12372,-22.5 12328,-22.5"/>
</g>
<!-- EAID_E36D3F5B_D401_4e05_8C31_F38771994852 -->
<g id="node27" class="node"><title>EAID_E36D3F5B_D401_4e05_8C31_F38771994852</title>
<polygon fill="none" stroke="black" points="12152,-23 12152,-44 12293,-44 12293,-23 12152,-23"/>
<text text-anchor="start" x="12155" y="-30.8" font-family="Times New Roman,serif" font-weight="bold" font-size="14.00">return LP# and image</text>
<polygon fill="none" stroke="black" points="12150.5,-22.5 12150.5,-45.5 12293.5,-45.5 12293.5,-22.5 12150.5,-22.5"/>
</g>
<!-- EAID_CDC07472_A7AA_4c02_9B5D_F2B9C6E0AE75 -->
<g id="node28" class="node"><title>EAID_CDC07472_A7AA_4c02_9B5D_F2B9C6E0AE75</title>
<polygon fill="none" stroke="black" points="11977,-23 11977,-44 12116,-44 12116,-23 11977,-23"/>
<text text-anchor="start" x="11980" y="-30.8" font-family="Times New Roman,serif" font-weight="bold" font-size="14.00">Independent reviewer</text>
<polygon fill="none" stroke="black" points="11975.5,-22.5 11975.5,-45.5 12116.5,-45.5 12116.5,-22.5 11975.5,-22.5"/>
</g>
<!-- EAID_A8F6D90E_CB4B_4281_BD73_AB929BCC3D11 -->
<g id="node29" class="node"><title>EAID_A8F6D90E_CB4B_4281_BD73_AB929BCC3D11</title>
<polygon fill="none" stroke="black" points="11856,-23 11856,-44 11941,-44 11941,-23 11856,-23"/>
<text text-anchor="start" x="11859" y="-30.8" font-family="Times New Roman,serif" font-weight="bold" font-size="14.00">Login screen</text>
<polygon fill="none" stroke="black" points="11854.5,-22.5 11854.5,-45.5 11941.5,-45.5 11941.5,-22.5 11854.5,-22.5"/>
</g>
<!-- EAID_69010548_88C4_442d_BC1E_0984D31137B1 -->
<g id="node30" class="node"><title>EAID_69010548_88C4_442d_BC1E_0984D31137B1</title>
<polygon fill="none" stroke="black" points="11655,-23 11655,-44 11820,-44 11820,-23 11655,-23"/>
<text text-anchor="start" x="11658" y="-30.8" font-family="Times New Roman,serif" font-weight="bold" font-size="14.00">unauthoried access popup</text>
<polygon fill="none" stroke="black" points="11653.5,-22.5 11653.5,-45.5 11820.5,-45.5 11820.5,-22.5 11653.5,-22.5"/>
</g>
<!-- EAID_B71A9880_4943_402d_BAE3_1E2972E45AD7 -->
<g id="node31" class="node"><title>EAID_B71A9880_4943_402d_BAE3_1E2972E45AD7</title>
<polygon fill="none" stroke="black" points="11512,-23 11512,-44 11618,-44 11618,-23 11512,-23"/>
<text text-anchor="start" x="11515" y="-30.8" font-family="Times New Roman,serif" font-weight="bold" font-size="14.00">Duplicate popup</text>
<polygon fill="none" stroke="black" points="11511,-22.5 11511,-45.5 11619,-45.5 11619,-22.5 11511,-22.5"/>
</g>
<!-- EAID_B9986513_B558_4ebe_98D1_1C50385FE2C2 -->
<g id="node32" class="node"><title>EAID_B9986513_B558_4ebe_98D1_1C50385FE2C2</title>
<polygon fill="none" stroke="black" points="11356,-23 11356,-44 11476,-44 11476,-23 11356,-23"/>
<text text-anchor="start" x="11359" y="-30.8" font-family="Times New Roman,serif" font-weight="bold" font-size="14.00">Invalid user popup</text>
<polygon fill="none" stroke="black" points="11355,-22.5 11355,-45.5 11477,-45.5 11477,-22.5 11355,-22.5"/>
</g>
<!-- EAID_57D0500E_57BE_4ef4_B91B_9F85AB8A8CE1 -->
<g id="node33" class="node"><title>EAID_57D0500E_57BE_4ef4_B91B_9F85AB8A8CE1</title>
<polygon fill="none" stroke="black" points="11172,-23 11172,-44 11320,-44 11320,-23 11172,-23"/>
<text text-anchor="start" x="11175" y="-30.8" font-family="Times New Roman,serif" font-weight="bold" font-size="14.00">Generate review queue</text>
<polygon fill="none" stroke="black" points="11171,-22.5 11171,-45.5 11321,-45.5 11321,-22.5 11171,-22.5"/>
</g>
<!-- EAID_B3AEADF9_EE45_4b5e_962A_E92907A09BC8 -->
<g id="node34" class="node"><title>EAID_B3AEADF9_EE45_4b5e_962A_E92907A09BC8</title>
<polygon fill="none" stroke="black" points="11006,-23 11006,-44 11136,-44 11136,-23 11006,-23"/>
<text text-anchor="start" x="11009" y="-30.8" font-family="Times New Roman,serif" font-weight="bold" font-size="14.00">Bad driver database</text>
<polygon fill="none" stroke="black" points="11005,-22.5 11005,-45.5 11137,-45.5 11137,-22.5 11005,-22.5"/>
</g>
<!-- EAID_8D487051_7ED3_41b3_A3DF_BE6A25C96F26 -->
<g id="node35" class="node"><title>EAID_8D487051_7ED3_41b3_A3DF_BE6A25C96F26</title>
<polygon fill="none" stroke="black" points="10781,-23 10781,-44 10970,-44 10970,-23 10781,-23"/>
<text text-anchor="start" x="10784" y="-30.8" font-family="Times New Roman,serif" font-weight="bold" font-size="14.00">Query for potential duplicates</text>
<polygon fill="none" stroke="black" points="10779.5,-22.5 10779.5,-45.5 10970.5,-45.5 10970.5,-22.5 10779.5,-22.5"/>
</g>
<!-- EAID_51567461_7902_43ac_AFE7_41F5553C4827 -->
<g id="node36" class="node"><title>EAID_51567461_7902_43ac_AFE7_41F5553C4827</title>
<polygon fill="none" stroke="black" points="10630,-23 10630,-44 10744,-44 10744,-23 10630,-23"/>
<text text-anchor="start" x="10633" y="-30.8" font-family="Times New Roman,serif" font-weight="bold" font-size="14.00">Bad driver report</text>
<polygon fill="none" stroke="black" points="10629,-22.5 10629,-45.5 10745,-45.5 10745,-22.5 10629,-22.5"/>
</g>
<!-- EAID_2B76F862_BA85_4e68_BF5D_FD7587404D29 -->
<g id="node37" class="node"><title>EAID_2B76F862_BA85_4e68_BF5D_FD7587404D29</title>
<polygon fill="none" stroke="black" points="10494,-23 10494,-44 10594,-44 10594,-23 10494,-23"/>
<text text-anchor="start" x="10497" y="-30.8" font-family="Times New Roman,serif" font-weight="bold" font-size="14.00">Get next report</text>
<polygon fill="none" stroke="black" points="10493,-22.5 10493,-45.5 10595,-45.5 10595,-22.5 10493,-22.5"/>
</g>
<!-- EAID_D504D166_2EF6_40ee_986F_ECCF4C1D217A -->
<g id="node38" class="node"><title>EAID_D504D166_2EF6_40ee_986F_ECCF4C1D217A</title>
<polygon fill="none" stroke="black" points="10373,-23 10373,-44 10458,-44 10458,-23 10373,-23"/>
<text text-anchor="start" x="10376" y="-30.8" font-family="Times New Roman,serif" font-weight="bold" font-size="14.00">Display alert</text>
<polygon fill="none" stroke="black" points="10371.5,-22.5 10371.5,-45.5 10458.5,-45.5 10458.5,-22.5 10371.5,-22.5"/>
</g>
<!-- EAID_4B8019F0_C2E6_4083_B3D4_85ED9DEA5A61 -->
<g id="node39" class="node"><title>EAID_4B8019F0_C2E6_4083_B3D4_85ED9DEA5A61</title>
<polygon fill="none" stroke="black" points="10242,-23 10242,-44 10337,-44 10337,-23 10242,-23"/>
<text text-anchor="start" x="10245" y="-30.8" font-family="Times New Roman,serif" font-weight="bold" font-size="14.00">Review Queue</text>
<polygon fill="none" stroke="black" points="10240.5,-22.5 10240.5,-45.5 10337.5,-45.5 10337.5,-22.5 10240.5,-22.5"/>
</g>
<!-- EAID_F96BBA6B_CD34_442b_AE16_0976AF6CC5C7 -->
<g id="node40" class="node"><title>EAID_F96BBA6B_CD34_442b_AE16_0976AF6CC5C7</title>
<polygon fill="none" stroke="black" points="10095,-23 10095,-44 10206,-44 10206,-23 10095,-23"/>
<text text-anchor="start" x="10098" y="-30.8" font-family="Times New Roman,serif" font-weight="bold" font-size="14.00">Invalid user alert</text>
<polygon fill="none" stroke="black" points="10093.5,-22.5 10093.5,-45.5 10206.5,-45.5 10206.5,-22.5 10093.5,-22.5"/>
</g>
<!-- EAID_2CCADE33_A407_4ca0_9404_26D3A5ACB90B -->
<g id="node41" class="node"><title>EAID_2CCADE33_A407_4ca0_9404_26D3A5ACB90B</title>
<polygon fill="none" stroke="black" points="9922,-23 9922,-44 10058,-44 10058,-23 9922,-23"/>
<text text-anchor="start" x="9925" y="-30.8" font-family="Times New Roman,serif" font-weight="bold" font-size="14.00">Query for valid users</text>
<polygon fill="none" stroke="black" points="9921,-22.5 9921,-45.5 10059,-45.5 10059,-22.5 9921,-22.5"/>
</g>
<!-- EAID_878D59AF_0D22_4950_BCA3_60593C74AFBF -->
<g id="node42" class="node"><title>EAID_878D59AF_0D22_4950_BCA3_60593C74AFBF</title>
<polygon fill="none" stroke="black" points="9789,-23 9789,-44 9886,-44 9886,-23 9789,-23"/>
<text text-anchor="start" x="9792" y="-30.8" font-family="Times New Roman,serif" font-weight="bold" font-size="14.00">privileges alert</text>
<polygon fill="none" stroke="black" points="9787.5,-22.5 9787.5,-45.5 9886.5,-45.5 9886.5,-22.5 9787.5,-22.5"/>
</g>
<!-- EAID_C92D2EE9_7C8E_4c13_99E7_967CA3A1A70F -->
<g id="node43" class="node"><title>EAID_C92D2EE9_7C8E_4c13_99E7_967CA3A1A70F</title>
<polygon fill="none" stroke="black" points="9654,-23 9654,-44 9752,-44 9752,-23 9654,-23"/>
<text text-anchor="start" x="9657" y="-30.8" font-family="Times New Roman,serif" font-weight="bold" font-size="14.00">Review Report</text>
<polygon fill="none" stroke="black" points="9653,-22.5 9653,-45.5 9753,-45.5 9753,-22.5 9653,-22.5"/>
</g>
<!-- EAID_C2E99C83_1071_42d1_AD98_98F94DE7B9D3 -->
<g id="node44" class="node"><title>EAID_C2E99C83_1071_42d1_AD98_98F94DE7B9D3</title>
<polygon fill="none" stroke="black" points="9481,-23 9481,-44 9618,-44 9618,-23 9481,-23"/>
<text text-anchor="start" x="9484" y="-30.8" font-family="Times New Roman,serif" font-weight="bold" font-size="14.00">List of reports screen</text>
<polygon fill="none" stroke="black" points="9479.5,-22.5 9479.5,-45.5 9618.5,-45.5 9618.5,-22.5 9479.5,-22.5"/>
</g>
<!-- EAID_84261C97_7B76_4b46_8098_1BCC85D3E345 -->
<g id="node45" class="node"><title>EAID_84261C97_7B76_4b46_8098_1BCC85D3E345</title>
<polygon fill="none" stroke="black" points="9264,-23 9264,-44 9444,-44 9444,-23 9264,-23"/>
<text text-anchor="start" x="9267" y="-30.8" font-family="Times New Roman,serif" font-weight="bold" font-size="14.00">Enter License Plate# Screen</text>
<polygon fill="none" stroke="black" points="9263,-22.5 9263,-45.5 9445,-45.5 9445,-22.5 9263,-22.5"/>
</g>
<!-- EAID_19E8E14C_817E_41de_AA48_C36A0B5EC55C -->
<g id="node46" class="node"><title>EAID_19E8E14C_817E_41de_AA48_C36A0B5EC55C</title>
<polygon fill="none" stroke="black" points="9107,-23 9107,-44 9228,-44 9228,-23 9107,-23"/>
<text text-anchor="start" x="9110" y="-30.8" font-family="Times New Roman,serif" font-weight="bold" font-size="14.00">Bad Dirver Report</text>
<polygon fill="none" stroke="black" points="9105.5,-22.5 9105.5,-45.5 9228.5,-45.5 9228.5,-22.5 9105.5,-22.5"/>
</g>
<!-- EAID_BDEDA044_03BC_4ec8_BE9A_3EC6FB333719 -->
<g id="node47" class="node"><title>EAID_BDEDA044_03BC_4ec8_BE9A_3EC6FB333719</title>
<polygon fill="none" stroke="black" points="8888,-23 8888,-44 9070,-44 9070,-23 8888,-23"/>
<text text-anchor="start" x="8891" y="-30.8" font-family="Times New Roman,serif" font-weight="bold" font-size="14.00">check if all details are filled?</text>
<polygon fill="none" stroke="black" points="8887,-22.5 8887,-45.5 9071,-45.5 9071,-22.5 8887,-22.5"/>
</g>
<!-- EAID_D42F0E44_6E67_4890_9737_0C2D6DDB4C19 -->
<g id="node48" class="node"><title>EAID_D42F0E44_6E67_4890_9737_0C2D6DDB4C19</title>
<polygon fill="none" stroke="black" points="8587,-23 8587,-44 8852,-44 8852,-23 8587,-23"/>
<text text-anchor="start" x="8590" y="-30.8" font-family="Times New Roman,serif" font-weight="bold" font-size="14.00">describe vechle(license &#160;# model/make etc)</text>
<polygon fill="none" stroke="black" points="8585.5,-22.5 8585.5,-45.5 8852.5,-45.5 8852.5,-22.5 8585.5,-22.5"/>
</g>
<!-- EAID_6D89F0DF_8F8C_4d6e_B0C3_07E9AE940CD5 -->
<g id="node49" class="node"><title>EAID_6D89F0DF_8F8C_4d6e_B0C3_07E9AE940CD5</title>
<polygon fill="none" stroke="black" points="8302,-23 8302,-44 8551,-44 8551,-23 8302,-23"/>
<text text-anchor="start" x="8305" y="-30.8" font-family="Times New Roman,serif" font-weight="bold" font-size="14.00">describe incident (category security etc)</text>
<polygon fill="none" stroke="black" points="8300.5,-22.5 8300.5,-45.5 8551.5,-45.5 8551.5,-22.5 8300.5,-22.5"/>
</g>
<!-- EAID_930D78B8_F3DE_43ce_ACA1_781CABADB961 -->
<g id="node50" class="node"><title>EAID_930D78B8_F3DE_43ce_ACA1_781CABADB961</title>
<polygon fill="none" stroke="black" points="8167,-23 8167,-44 8266,-44 8266,-23 8167,-23"/>
<text text-anchor="start" x="8170" y="-30.8" font-family="Times New Roman,serif" font-weight="bold" font-size="14.00">Capture Image</text>
<polygon fill="none" stroke="black" points="8165.5,-22.5 8165.5,-45.5 8266.5,-45.5 8266.5,-22.5 8165.5,-22.5"/>
</g>
<!-- EAID_06E1CBE8_0D7C_4068_9BD6_9357813E1E0D -->
<g id="node51" class="node"><title>EAID_06E1CBE8_0D7C_4068_9BD6_9357813E1E0D</title>
<polygon fill="none" stroke="black" points="7878,-23 7878,-44 8131,-44 8131,-23 7878,-23"/>
<text text-anchor="start" x="7881" y="-30.8" font-family="Times New Roman,serif" font-weight="bold" font-size="14.00">Display error message from empty fields</text>
<polygon fill="none" stroke="black" points="7876.5,-22.5 7876.5,-45.5 8131.5,-45.5 8131.5,-22.5 7876.5,-22.5"/>
</g>
<!-- EAID_AC0D3461_2293_45f0_A3D3_341FEC07154C -->
<g id="node52" class="node"><title>EAID_AC0D3461_2293_45f0_A3D3_341FEC07154C</title>
<polygon fill="none" stroke="black" points="7659,-23 7659,-44 7841,-44 7841,-23 7659,-23"/>
<text text-anchor="start" x="7662" y="-30.8" font-family="Times New Roman,serif" font-weight="bold" font-size="14.00">Display in non&#45;editable fields</text>
<polygon fill="none" stroke="black" points="7658,-22.5 7658,-45.5 7842,-45.5 7842,-22.5 7658,-22.5"/>
</g>
<!-- EAID_5AE5B867_277F_4bb4_98DE_C7620B9BF80D -->
<g id="node53" class="node"><title>EAID_5AE5B867_277F_4bb4_98DE_C7620B9BF80D</title>
<polygon fill="none" stroke="black" points="7262,-23 7262,-44 7623,-44 7623,-23 7262,-23"/>
<text text-anchor="start" x="7265" y="-30.8" font-family="Times New Roman,serif" font-weight="bold" font-size="14.00">get date time and location of incident from video metadata</text>
<polygon fill="none" stroke="black" points="7260.5,-22.5 7260.5,-45.5 7623.5,-45.5 7623.5,-22.5 7260.5,-22.5"/>
</g>
<!-- EAID_4D0C4C37_A1B4_446b_9924_3B4BA9D2B6E7 -->
<g id="node54" class="node"><title>EAID_4D0C4C37_A1B4_446b_9924_3B4BA9D2B6E7</title>
<polygon fill="none" stroke="black" points="7137,-23 7137,-44 7225,-44 7225,-23 7137,-23"/>
<text text-anchor="start" x="7140" y="-30.8" font-family="Times New Roman,serif" font-weight="bold" font-size="14.00">Display video</text>
<polygon fill="none" stroke="black" points="7136,-22.5 7136,-45.5 7226,-45.5 7226,-22.5 7136,-22.5"/>
</g>
<!-- EAID_5409BF64_1776_4b3c_B571_77DDC0E8FF28 -->
<g id="node55" class="node"><title>EAID_5409BF64_1776_4b3c_B571_77DDC0E8FF28</title>
<polygon fill="none" stroke="black" points="7025,-23 7025,-44 7101,-44 7101,-23 7025,-23"/>
<text text-anchor="start" x="7028" y="-30.8" font-family="Times New Roman,serif" font-weight="bold" font-size="14.00">Post report</text>
<polygon fill="none" stroke="black" points="7024,-22.5 7024,-45.5 7102,-45.5 7102,-22.5 7024,-22.5"/>
</g>
<!-- EAID_F3E0B1C4_5DBF_4bea_81AA_158762F8A5EE -->
<g id="node56" class="node"><title>EAID_F3E0B1C4_5DBF_4bea_81AA_158762F8A5EE</title>
<polygon fill="none" stroke="black" points="6882,-23 6882,-44 6989,-44 6989,-23 6882,-23"/>
<text text-anchor="start" x="6885" y="-30.8" font-family="Times New Roman,serif" font-weight="bold" font-size="14.00">Insurance Agent</text>
<polygon fill="none" stroke="black" points="6880.5,-22.5 6880.5,-45.5 6989.5,-45.5 6989.5,-22.5 6880.5,-22.5"/>
</g>
<!-- EAID_046FFB4E_39DF_49eb_81D0_E52F4E65ED6B -->
<g id="node57" class="node"><title>EAID_046FFB4E_39DF_49eb_81D0_E52F4E65ED6B</title>
<polygon fill="none" stroke="black" points="6747,-23 6747,-44 6846,-44 6846,-23 6747,-23"/>
<text text-anchor="start" x="6750" y="-30.8" font-family="Times New Roman,serif" font-weight="bold" font-size="14.00">Display Report</text>
<polygon fill="none" stroke="black" points="6745.5,-22.5 6745.5,-45.5 6846.5,-45.5 6846.5,-22.5 6745.5,-22.5"/>
</g>
<!-- EAID_F48CD93E_8EB5_4b99_93F8_13446D37D58F -->
<g id="node58" class="node"><title>EAID_F48CD93E_8EB5_4b99_93F8_13446D37D58F</title>
<polygon fill="none" stroke="black" points="6620,-23 6620,-44 6710,-44 6710,-23 6620,-23"/>
<text text-anchor="start" x="6623" y="-30.8" font-family="Times New Roman,serif" font-weight="bold" font-size="14.00">Select Report</text>
<polygon fill="none" stroke="black" points="6619,-22.5 6619,-45.5 6711,-45.5 6711,-22.5 6619,-22.5"/>
</g>
<!-- EAID_AE73B6F6_8063_42fd_9C62_D4B64D9748BA -->
<g id="node59" class="node"><title>EAID_AE73B6F6_8063_42fd_9C62_D4B64D9748BA</title>
<polygon fill="none" stroke="black" points="6367,-23 6367,-44 6584,-44 6584,-23 6367,-23"/>
<text text-anchor="start" x="6370" y="-30.8" font-family="Times New Roman,serif" font-weight="bold" font-size="14.00">Query for report by license plate #</text>
<polygon fill="none" stroke="black" points="6365.5,-22.5 6365.5,-45.5 6584.5,-45.5 6584.5,-22.5 6365.5,-22.5"/>
</g>
<!-- EAID_18959622_9404_4e62_B26A_98A3E1273316 -->
<g id="node60" class="node"><title>EAID_18959622_9404_4e62_B26A_98A3E1273316</title>
<polygon fill="none" stroke="black" points="6004,-23 6004,-44 6331,-44 6331,-23 6004,-23"/>
<text text-anchor="start" x="6007" y="-30.8" font-family="Times New Roman,serif" font-weight="bold" font-size="14.00">License lace # database associated with Bad Drivers</text>
<polygon fill="none" stroke="black" points="6002.5,-22.5 6002.5,-45.5 6331.5,-45.5 6331.5,-22.5 6002.5,-22.5"/>
</g>
<!-- EAID_6F0D5737_C7C5_4cea_8490_0F145DAEB757 -->
<g id="node61" class="node"><title>EAID_6F0D5737_C7C5_4cea_8490_0F145DAEB757</title>
<polygon fill="none" stroke="black" points="5921,-23 5921,-44 5967,-44 5967,-23 5921,-23"/>
<text text-anchor="start" x="5924" y="-30.8" font-family="Times New Roman,serif" font-weight="bold" font-size="14.00">Driver</text>
<polygon fill="none" stroke="black" points="5920,-22.5 5920,-45.5 5968,-45.5 5968,-22.5 5920,-22.5"/>
</g>
<!-- EAID_2534F33B_C4D1_4fd7_BB9F_A23EA080378B -->
<g id="node62" class="node"><title>EAID_2534F33B_C4D1_4fd7_BB9F_A23EA080378B</title>
<polygon fill="none" stroke="black" points="5771,-23 5771,-44 5885,-44 5885,-23 5771,-23"/>
<text text-anchor="start" x="5774" y="-30.8" font-family="Times New Roman,serif" font-weight="bold" font-size="14.00">Recording screen</text>
<polygon fill="none" stroke="black" points="5770,-22.5 5770,-45.5 5886,-45.5 5886,-22.5 5770,-22.5"/>
</g>
<!-- EAID_DE036A9B_ADD6_4fe1_BB4C_8D1C55E8E83E -->
<g id="node63" class="node"><title>EAID_DE036A9B_ADD6_4fe1_BB4C_8D1C55E8E83E</title>
<polygon fill="none" stroke="black" points="5597,-23 5597,-44 5735,-44 5735,-23 5597,-23"/>
<text text-anchor="start" x="5600" y="-30.8" font-family="Times New Roman,serif" font-weight="bold" font-size="14.00">Recording video clips</text>
<polygon fill="none" stroke="black" points="5596,-22.5 5596,-45.5 5736,-45.5 5736,-22.5 5596,-22.5"/>
</g>
<!-- EAID_50A8C4E5_133E_41ca_95C9_39D354D1F061 -->
<g id="node64" class="node"><title>EAID_50A8C4E5_133E_41ca_95C9_39D354D1F061</title>
<polygon fill="none" stroke="black" points="5441,-23 5441,-44 5561,-44 5561,-23 5441,-23"/>
<text text-anchor="start" x="5444" y="-30.8" font-family="Times New Roman,serif" font-weight="bold" font-size="14.00">Bad driver reports</text>
<polygon fill="none" stroke="black" points="5440,-22.5 5440,-45.5 5562,-45.5 5562,-22.5 5440,-22.5"/>
</g>
<!-- EAID_6C088339_2C3D_4d6f_B73E_8EE6B7733C59 -->
<g id="node65" class="node"><title>EAID_6C088339_2C3D_4d6f_B73E_8EE6B7733C59</title>
<polygon fill="none" stroke="black" points="5191,-23 5191,-44 5405,-44 5405,-23 5191,-23"/>
<text text-anchor="start" x="5194" y="-30.8" font-family="Times New Roman,serif" font-weight="bold" font-size="14.00">Fetch two most &#160;recent video clips</text>
<polygon fill="none" stroke="black" points="5190,-22.5 5190,-45.5 5406,-45.5 5406,-22.5 5190,-22.5"/>
</g>
<!-- EAID_50D13718_C429_4933_995E_3DBEEDAA60C4 -->
<g id="node66" class="node"><title>EAID_50D13718_C429_4933_995E_3DBEEDAA60C4</title>
<polygon fill="none" stroke="black" points="5054,-23 5054,-44 5155,-44 5155,-23 5054,-23"/>
<text text-anchor="start" x="5057" y="-30.8" font-family="Times New Roman,serif" font-weight="bold" font-size="14.00">Circular Buffer</text>
<polygon fill="none" stroke="black" points="5052.5,-22.5 5052.5,-45.5 5155.5,-45.5 5155.5,-22.5 5052.5,-22.5"/>
</g>
<!-- EAID_FDEDB62A_89D0_4283_B3C6_718A332B303F -->
<g id="node67" class="node"><title>EAID_FDEDB62A_89D0_4283_B3C6_718A332B303F</title>
<polygon fill="none" stroke="black" points="4901,-23 4901,-44 5018,-44 5018,-23 4901,-23"/>
<text text-anchor="start" x="4904" y="-30.8" font-family="Times New Roman,serif" font-weight="bold" font-size="14.00">Recording paused</text>
<polygon fill="none" stroke="black" points="4899.5,-22.5 4899.5,-45.5 5018.5,-45.5 5018.5,-22.5 4899.5,-22.5"/>
</g>
<!-- EAID_2EBED7D5_4495_4059_BA0E_4D728387BA92 -->
<g id="node68" class="node"><title>EAID_2EBED7D5_4495_4059_BA0E_4D728387BA92</title>
<polygon fill="none" stroke="black" points="4638,-23 4638,-44 4864,-44 4864,-23 4638,-23"/>
<text text-anchor="start" x="4641" y="-30.8" font-family="Times New Roman,serif" font-weight="bold" font-size="14.00">Receive report bad driver command</text>
<polygon fill="none" stroke="black" points="4637,-22.5 4637,-45.5 4865,-45.5 4865,-22.5 4637,-22.5"/>
</g>
<!-- EAID_C0758333_DC7C_42f1_8E1B_E09C3BD020DB -->
<g id="node69" class="node"><title>EAID_C0758333_DC7C_42f1_8E1B_E09C3BD020DB</title>
<polygon fill="none" stroke="black" points="4484,-23 4484,-44 4602,-44 4602,-23 4484,-23"/>
<text text-anchor="start" x="4487" y="-30.8" font-family="Times New Roman,serif" font-weight="bold" font-size="14.00">Upload video clips</text>
<polygon fill="none" stroke="black" points="4483,-22.5 4483,-45.5 4603,-45.5 4603,-22.5 4483,-22.5"/>
</g>
<!-- EAID_DD7C5EE5_303D_4d3d_99A9_54492603DFDD -->
<g id="node70" class="node"><title>EAID_DD7C5EE5_303D_4d3d_99A9_54492603DFDD</title>
<polygon fill="none" stroke="black" points="4263,-23 4263,-44 4448,-44 4448,-23 4263,-23"/>
<text text-anchor="start" x="4266" y="-30.8" font-family="Times New Roman,serif" font-weight="bold" font-size="14.00">Stop Recording and store file</text>
<polygon fill="none" stroke="black" points="4261.5,-22.5 4261.5,-45.5 4448.5,-45.5 4448.5,-22.5 4261.5,-22.5"/>
</g>
<!-- EAID_2C8EBD2E_FEFD_4737_A41F_3741C75F49C0 -->
<g id="node71" class="node"><title>EAID_2C8EBD2E_FEFD_4737_A41F_3741C75F49C0</title>
<polygon fill="none" stroke="black" points="4070,-23 4070,-44 4227,-44 4227,-23 4070,-23"/>
<text text-anchor="start" x="4073" y="-30.8" font-family="Times New Roman,serif" font-weight="bold" font-size="14.00">Resolve duplicate screen</text>
<polygon fill="none" stroke="black" points="4068.5,-22.5 4068.5,-45.5 4227.5,-45.5 4227.5,-22.5 4068.5,-22.5"/>
</g>
<!-- EAID_81880DA5_C26D_43c1_9914_DFE8308F8F44 -->
<g id="node72" class="node"><title>EAID_81880DA5_C26D_43c1_9914_DFE8308F8F44</title>
<polygon fill="none" stroke="black" points="3841,-23 3841,-44 4034,-44 4034,-23 3841,-23"/>
<text text-anchor="start" x="3844" y="-30.8" font-family="Times New Roman,serif" font-weight="bold" font-size="14.00">Get potential duplicate reports</text>
<polygon fill="none" stroke="black" points="3839.5,-22.5 3839.5,-45.5 4034.5,-45.5 4034.5,-22.5 3839.5,-22.5"/>
</g>
<!-- EAID_052D5E73_05AE_4f3d_89C4_E5BBD92638B2 -->
<g id="node73" class="node"><title>EAID_052D5E73_05AE_4f3d_89C4_E5BBD92638B2</title>
<polygon fill="none" stroke="black" points="3696,-23 3696,-44 3805,-44 3805,-23 3696,-23"/>
<text text-anchor="start" x="3699" y="-30.8" font-family="Times New Roman,serif" font-weight="bold" font-size="14.00">display 2 reports</text>
<polygon fill="none" stroke="black" points="3694.5,-22.5 3694.5,-45.5 3805.5,-45.5 3805.5,-22.5 3694.5,-22.5"/>
</g>
<!-- EAID_E0297193_7FF1_4a4e_9E79_16B827BFC7F7 -->
<g id="node74" class="node"><title>EAID_E0297193_7FF1_4a4e_9E79_16B827BFC7F7</title>
<polygon fill="none" stroke="black" points="3569,-23 3569,-44 3660,-44 3660,-23 3569,-23"/>
<text text-anchor="start" x="3572" y="-30.8" font-family="Times New Roman,serif" font-weight="bold" font-size="14.00">Review/Agent</text>
<polygon fill="none" stroke="black" points="3567.5,-22.5 3567.5,-45.5 3660.5,-45.5 3660.5,-22.5 3567.5,-22.5"/>
</g>
<!-- EAID_845600B1_DF9E_4d8e_8621_FBAF4C7F9332 -->
<g id="node75" class="node"><title>EAID_845600B1_DF9E_4d8e_8621_FBAF4C7F9332</title>
<polygon fill="none" stroke="black" points="3412,-23 3412,-44 3533,-44 3533,-23 3412,-23"/>
<text text-anchor="start" x="3415" y="-30.8" font-family="Times New Roman,serif" font-weight="bold" font-size="14.00">Blank fields popup</text>
<polygon fill="none" stroke="black" points="3410.5,-22.5 3410.5,-45.5 3533.5,-45.5 3533.5,-22.5 3410.5,-22.5"/>
</g>
<!-- EAID_DC5908C0_71CE_42d2_9E97_65E9B30C1B1C -->
<g id="node76" class="node"><title>EAID_DC5908C0_71CE_42d2_9E97_65E9B30C1B1C</title>
<polygon fill="none" stroke="black" points="3259,-23 3259,-44 3376,-44 3376,-23 3259,-23"/>
<text text-anchor="start" x="3262" y="-30.8" font-family="Times New Roman,serif" font-weight="bold" font-size="14.00">check blank fields</text>
<polygon fill="none" stroke="black" points="3257.5,-22.5 3257.5,-45.5 3376.5,-45.5 3376.5,-22.5 3257.5,-22.5"/>
</g>
<!-- EAID_C2DF9D8C_0527_45f3_A2C4_B7CD16C6FE13 -->
<g id="node77" class="node"><title>EAID_C2DF9D8C_0527_45f3_A2C4_B7CD16C6FE13</title>
<polygon fill="none" stroke="black" points="3134,-23 3134,-44 3222,-44 3222,-23 3134,-23"/>
<text text-anchor="start" x="3137" y="-30.8" font-family="Times New Roman,serif" font-weight="bold" font-size="14.00">Validate user</text>
<polygon fill="none" stroke="black" points="3133,-22.5 3133,-45.5 3223,-45.5 3223,-22.5 3133,-22.5"/>
</g>
<!-- EAID_CA88676A_9FC7_423f_85DF_F2343C8D0A66 -->
<g id="node78" class="node"><title>EAID_CA88676A_9FC7_423f_85DF_F2343C8D0A66</title>
<polygon fill="none" stroke="black" points="2856,-23 2856,-44 3098,-44 3098,-23 2856,-23"/>
<text text-anchor="start" x="2859" y="-30.8" font-family="Times New Roman,serif" font-weight="bold" font-size="14.00">Record hazardous videos and Call 911</text>
<polygon fill="none" stroke="black" points="2855,-22.5 2855,-45.5 3099,-45.5 3099,-22.5 2855,-22.5"/>
</g>
<!-- EAID_743FF24D_7D21_49d5_86EB_A40553B5B31C -->
<g id="node79" class="node"><title>EAID_743FF24D_7D21_49d5_86EB_A40553B5B31C</title>
<polygon fill="none" stroke="black" points="2708,-23 2708,-44 2820,-44 2820,-23 2708,-23"/>
<text text-anchor="start" x="2711" y="-30.8" font-family="Times New Roman,serif" font-weight="bold" font-size="14.00">Describe incident</text>
<polygon fill="none" stroke="black" points="2707,-22.5 2707,-45.5 2821,-45.5 2821,-22.5 2707,-22.5"/>
</g>
<!-- EAID_6D1AEE9B_DF6B_4b8c_9CE3_EC42F7A2B977 -->
<g id="node80" class="node"><title>EAID_6D1AEE9B_DF6B_4b8c_9CE3_EC42F7A2B977</title>
<polygon fill="none" stroke="black" points="2522,-23 2522,-44 2672,-44 2672,-23 2522,-23"/>
<text text-anchor="start" x="2525" y="-30.8" font-family="Times New Roman,serif" font-weight="bold" font-size="14.00">Describe vehicle details</text>
<polygon fill="none" stroke="black" points="2521,-22.5 2521,-45.5 2673,-45.5 2673,-22.5 2521,-22.5"/>
</g>
<!-- EAID_BFD64120_15B7_43fe_A5EC_4FA055D6D5BB -->
<g id="node81" class="node"><title>EAID_BFD64120_15B7_43fe_A5EC_4FA055D6D5BB</title>
<polygon fill="none" stroke="black" points="2291,-23 2291,-44 2486,-44 2486,-23 2291,-23"/>
<text text-anchor="start" x="2294" y="-30.8" font-family="Times New Roman,serif" font-weight="bold" font-size="14.00">Enter name and phone number</text>
<polygon fill="none" stroke="black" points="2289.5,-22.5 2289.5,-45.5 2486.5,-45.5 2486.5,-22.5 2289.5,-22.5"/>
</g>
<!-- EAID_93846FE6_7D19_47e4_9334_809B7798B403 -->
<g id="node82" class="node"><title>EAID_93846FE6_7D19_47e4_9334_809B7798B403</title>
<polygon fill="none" stroke="black" points="2006,-23 2006,-44 2255,-44 2255,-23 2006,-23"/>
<text text-anchor="start" x="2009" y="-30.8" font-family="Times New Roman,serif" font-weight="bold" font-size="14.00">fill video metadata in non&#45;editable fields</text>
<polygon fill="none" stroke="black" points="2004.5,-22.5 2004.5,-45.5 2255.5,-45.5 2255.5,-22.5 2004.5,-22.5"/>
</g>
<!-- EAID_E829C8B3_B8D6_4887_B745_20DB89422F35 -->
<g id="node83" class="node"><title>EAID_E829C8B3_B8D6_4887_B745_20DB89422F35</title>
<polygon fill="none" stroke="black" points="1861,-23 1861,-44 1970,-44 1970,-23 1861,-23"/>
<text text-anchor="start" x="1864" y="-30.8" font-family="Times New Roman,serif" font-weight="bold" font-size="14.00">Upload the video</text>
<polygon fill="none" stroke="black" points="1859.5,-22.5 1859.5,-45.5 1970.5,-45.5 1970.5,-22.5 1859.5,-22.5"/>
</g>
<!-- EAID_964743DB_767A_481a_AEC4_FEA76AE12FC7 -->
<g id="node84" class="node"><title>EAID_964743DB_767A_481a_AEC4_FEA76AE12FC7</title>
<polygon fill="none" stroke="black" points="1556,-23 1556,-44 1824,-44 1824,-23 1556,-23"/>
<text text-anchor="start" x="1559" y="-30.8" font-family="Times New Roman,serif" font-weight="bold" font-size="14.00">get time date location from video metadata</text>
<polygon fill="none" stroke="black" points="1555,-22.5 1555,-45.5 1825,-45.5 1825,-22.5 1555,-22.5"/>
</g>
<!-- EAID_FE799D81_1632_4695_91E0_FC2303E1433E -->
<g id="node85" class="node"><title>EAID_FE799D81_1632_4695_91E0_FC2303E1433E</title>
<polygon fill="none" stroke="black" points="1366,-23 1366,-44 1520,-44 1520,-23 1366,-23"/>
<text text-anchor="start" x="1369" y="-30.8" font-family="Times New Roman,serif" font-weight="bold" font-size="14.00">display success message</text>
<polygon fill="none" stroke="black" points="1365,-22.5 1365,-45.5 1521,-45.5 1521,-22.5 1365,-22.5"/>
</g>
<!-- EAID_AFB3081A_CE93_49fb_BFA1_95258739BB6C -->
<g id="node86" class="node"><title>EAID_AFB3081A_CE93_49fb_BFA1_95258739BB6C</title>
<polygon fill="none" stroke="black" points="1254,-23 1254,-44 1330,-44 1330,-23 1254,-23"/>
<text text-anchor="start" x="1257" y="-30.8" font-family="Times New Roman,serif" font-weight="bold" font-size="14.00">Mobile app</text>
<polygon fill="none" stroke="black" points="1253,-22.5 1253,-45.5 1331,-45.5 1331,-22.5 1253,-22.5"/>
</g>
<!-- EAID_F8A63D47_A7C2_4789_883A_04CA0BC18121 -->
<g id="node87" class="node"><title>EAID_F8A63D47_A7C2_4789_883A_04CA0BC18121</title>
<polygon fill="none" stroke="black" points="1046,-23 1046,-44 1218,-44 1218,-23 1046,-23"/>
<text text-anchor="start" x="1049" y="-30.8" font-family="Times New Roman,serif" font-weight="bold" font-size="14.00">send request with video file</text>
<polygon fill="none" stroke="black" points="1045,-22.5 1045,-45.5 1219,-45.5 1219,-22.5 1045,-22.5"/>
</g>
<!-- EAID_C70F8F7A_0BB1_4836_AF01_65D4228CCAB6 -->
<g id="node88" class="node"><title>EAID_C70F8F7A_0BB1_4836_AF01_65D4228CCAB6</title>
<polygon fill="none" stroke="black" points="874,-23 874,-44 1010,-44 1010,-23 874,-23"/>
<text text-anchor="start" x="877" y="-30.8" font-family="Times New Roman,serif" font-weight="bold" font-size="14.00">receive file at node.js</text>
<polygon fill="none" stroke="black" points="873,-22.5 873,-45.5 1011,-45.5 1011,-22.5 873,-22.5"/>
</g>
<!-- EAID_E1481B56_BAC4_4f77_B599_8A2F9DC902B7 -->
<g id="node89" class="node"><title>EAID_E1481B56_BAC4_4f77_B599_8A2F9DC902B7</title>
<polygon fill="none" stroke="black" points="706,-23 706,-44 838,-44 838,-23 706,-23"/>
<text text-anchor="start" x="709" y="-30.8" font-family="Times New Roman,serif" font-weight="bold" font-size="14.00">View Review Screen</text>
<polygon fill="none" stroke="black" points="705,-22.5 705,-45.5 839,-45.5 839,-22.5 705,-22.5"/>
</g>
<!-- EAID_5B7FF5CE_C274_4e4f_87FB_CBE406CDFE98 -->
<g id="node90" class="node"><title>EAID_5B7FF5CE_C274_4e4f_87FB_CBE406CDFE98</title>
<polygon fill="none" stroke="black" points="511,-23 511,-44 670,-44 670,-23 511,-23"/>
<text text-anchor="start" x="514" y="-30.8" font-family="Times New Roman,serif" font-weight="bold" font-size="14.00">Retrieve recorded videos</text>
<polygon fill="none" stroke="black" points="509.5,-22.5 509.5,-45.5 670.5,-45.5 670.5,-22.5 509.5,-22.5"/>
</g>
<!-- EAID_179829FC_E5C2_45d0_8131_29F5068C1E69 -->
<g id="node91" class="node"><title>EAID_179829FC_E5C2_45d0_8131_29F5068C1E69</title>
<polygon fill="none" stroke="black" points="346,-23 346,-44 475,-44 475,-23 346,-23"/>
<text text-anchor="start" x="349" y="-30.8" font-family="Times New Roman,serif" font-weight="bold" font-size="14.00">Click on thumbnails</text>
<polygon fill="none" stroke="black" points="344.5,-22.5 344.5,-45.5 475.5,-45.5 475.5,-22.5 344.5,-22.5"/>
</g>
<!-- EAID_A2E16F7B_1A16_49a9_9BFE_DA95EE5C3B0A -->
<g id="node92" class="node"><title>EAID_A2E16F7B_1A16_49a9_9BFE_DA95EE5C3B0A</title>
<polygon fill="none" stroke="black" points="189,-23 189,-44 309,-44 309,-23 189,-23"/>
<text text-anchor="start" x="192" y="-30.8" font-family="Times New Roman,serif" font-weight="bold" font-size="14.00">Display video clips</text>
<polygon fill="none" stroke="black" points="188,-22.5 188,-45.5 310,-45.5 310,-22.5 188,-22.5"/>
</g>
<!-- EAID_DFBD7FFF_CEDE_4510_8804_E4AC2C9BD9D6 -->
<g id="node93" class="node"><title>EAID_DFBD7FFF_CEDE_4510_8804_E4AC2C9BD9D6</title>
<polygon fill="none" stroke="black" points="25,-23 25,-44 153,-44 153,-23 25,-23"/>
<text text-anchor="start" x="28" y="-30.8" font-family="Times New Roman,serif" font-weight="bold" font-size="14.00">Display Thumbnails</text>
<polygon fill="none" stroke="black" points="24,-22.5 24,-45.5 154,-45.5 154,-22.5 24,-22.5"/>
</g>
</g>
</svg>
