<?xml version="1.0" encoding="UTF-8" standalone="no"?>
<!DOCTYPE svg PUBLIC "-//W3C//DTD SVG 1.1//EN"
 "http://www.w3.org/Graphics/SVG/1.1/DTD/svg11.dtd">
<!-- Generated by graphviz version 2.38.0 (20140413.2041)
 -->
<!-- Title: g Pages: 1 -->
<svg width="2480pt" height="312pt"
 viewBox="0.00 0.00 2479.50 312.00" xmlns="http://www.w3.org/2000/svg" xmlns:xlink="http://www.w3.org/1999/xlink">
<g id="graph0" class="graph" transform="scale(1 1) rotate(0) translate(4 308)">
<title>g</title>
<polygon fill="white" stroke="none" points="-4,4 -4,-308 2475.5,-308 2475.5,4 -4,4"/>
<!-- EAID_12DFED4D_C406_47fa_84A0_8CAC823D49B7 -->
<g id="node1" class="node"><title>EAID_12DFED4D_C406_47fa_84A0_8CAC823D49B7</title>
<polygon fill="none" stroke="black" points="9,-194 9,-215 267,-215 267,-194 9,-194"/>
<text text-anchor="start" x="91" y="-201.8" font-family="Times New Roman,serif" font-weight="bold" font-size="14.00">Check In Form</text>
<polygon fill="none" stroke="black" points="9,-173 9,-194 267,-194 267,-173 9,-173"/>
<text text-anchor="start" x="45" y="-180.8" font-family="Times New Roman,serif" font-weight="bold" font-size="14.00">EAJava_int Classes Attending</text>
<polygon fill="none" stroke="black" points="9,-152 9,-173 267,-173 267,-152 9,-152"/>
<text text-anchor="start" x="55.5" y="-159.8" font-family="Times New Roman,serif" font-weight="bold" font-size="14.00">EAJava_int Phone number</text>
<polygon fill="none" stroke="black" points="9,-131 9,-152 267,-152 267,-131 9,-131"/>
<text text-anchor="start" x="90" y="-138.8" font-family="Times New Roman,serif" font-weight="bold" font-size="14.00">CheckInForm()</text>
<polygon fill="none" stroke="black" points="9,-110 9,-131 267,-131 267,-110 9,-110"/>
<text text-anchor="start" x="73.5" y="-117.8" font-family="Times New Roman,serif" font-weight="bold" font-size="14.00">displaycheckinpage()</text>
<polygon fill="none" stroke="black" points="9,-89 9,-110 267,-110 267,-89 9,-89"/>
<text text-anchor="start" x="12" y="-96.8" font-family="Times New Roman,serif" font-weight="bold" font-size="14.00">Restcalforvalidatingcheckininformation()</text>
<polygon fill="none" stroke="black" points="8,-88 8,-216 268,-216 268,-88 8,-88"/>
</g>
<!-- EAID_ED9E3F4F_B16C_41b9_8DA7_0F75BF884877 -->
<g id="node2" class="node"><title>EAID_ED9E3F4F_B16C_41b9_8DA7_0F75BF884877</title>
<polygon fill="none" stroke="black" points="304,-183 304,-204 523,-204 523,-183 304,-183"/>
<text text-anchor="start" x="358.5" y="-190.8" font-family="Times New Roman,serif" font-weight="bold" font-size="14.00">Check in Records</text>
<polygon fill="none" stroke="black" points="304,-162 304,-183 523,-183 523,-162 304,-162"/>
<text text-anchor="start" x="336.5" y="-169.8" font-family="Times New Roman,serif" font-weight="bold" font-size="14.00">EAJava_int Date attened</text>
<polygon fill="none" stroke="black" points="304,-141 304,-162 523,-162 523,-141 304,-141"/>
<text text-anchor="start" x="329.5" y="-148.8" font-family="Times New Roman,serif" font-weight="bold" font-size="14.00">EAJava_int Phone Number</text>
<polygon fill="none" stroke="black" points="304,-120 304,-141 523,-141 523,-120 304,-120"/>
<text text-anchor="start" x="307" y="-127.8" font-family="Times New Roman,serif" font-weight="bold" font-size="14.00">EAJava_int Type of class attended</text>
<polygon fill="none" stroke="black" points="304,-99 304,-120 523,-120 523,-99 304,-99"/>
<text text-anchor="start" x="357.5" y="-106.8" font-family="Times New Roman,serif" font-weight="bold" font-size="14.00">CheckinRecords()</text>
<polygon fill="none" stroke="black" points="302.5,-98.5 302.5,-205.5 523.5,-205.5 523.5,-98.5 302.5,-98.5"/>
</g>
<!-- EAID_931DE505_3523_44f6_A8D6_855F6D40D3F9 -->
<g id="node3" class="node"><title>EAID_931DE505_3523_44f6_A8D6_855F6D40D3F9</title>
<polygon fill="none" stroke="black" points="559,-194 559,-215 791,-215 791,-194 559,-194"/>
<text text-anchor="start" x="626" y="-201.8" font-family="Times New Roman,serif" font-weight="bold" font-size="14.00">Feedback Form</text>
<polygon fill="none" stroke="black" points="559,-173 559,-194 791,-194 791,-173 559,-173"/>
<text text-anchor="start" x="562" y="-180.8" font-family="Times New Roman,serif" font-weight="bold" font-size="14.00">EAJava_int ClientSatisfactionRating</text>
<polygon fill="none" stroke="black" points="559,-152 559,-173 791,-173 791,-152 559,-152"/>
<text text-anchor="start" x="578.5" y="-159.8" font-family="Times New Roman,serif" font-weight="bold" font-size="14.00">EAJava_int Interview Outcome</text>
<polygon fill="none" stroke="black" points="559,-131 559,-152 791,-152 791,-131 559,-131"/>
<text text-anchor="start" x="593" y="-138.8" font-family="Times New Roman,serif" font-weight="bold" font-size="14.00">EAJava_int PhoneNumber</text>
<polygon fill="none" stroke="black" points="559,-110 559,-131 791,-131 791,-110 559,-110"/>
<text text-anchor="start" x="623.5" y="-117.8" font-family="Times New Roman,serif" font-weight="bold" font-size="14.00">FeedbackForm()</text>
<polygon fill="none" stroke="black" points="559,-89 559,-110 791,-110 791,-89 559,-89"/>
<text text-anchor="start" x="603.5" y="-96.8" font-family="Times New Roman,serif" font-weight="bold" font-size="14.00">Validatefeedbackdata()</text>
<polygon fill="none" stroke="black" points="558,-88 558,-216 792,-216 792,-88 558,-88"/>
</g>
<!-- EAID_EE027DFC_A338_4d14_AC2B_556200AB96BF -->
<g id="node4" class="node"><title>EAID_EE027DFC_A338_4d14_AC2B_556200AB96BF</title>
<polygon fill="none" stroke="black" points="827,-278 827,-299 1079,-299 1079,-278 827,-278"/>
<text text-anchor="start" x="896" y="-285.8" font-family="Times New Roman,serif" font-weight="bold" font-size="14.00">Registration Form</text>
<polygon fill="none" stroke="black" points="827,-257 827,-278 1079,-278 1079,-257 827,-257"/>
<text text-anchor="start" x="903" y="-264.8" font-family="Times New Roman,serif" font-weight="bold" font-size="14.00">EAJava_int Age</text>
<polygon fill="none" stroke="black" points="827,-236 827,-257 1079,-257 1079,-236 827,-236"/>
<text text-anchor="start" x="841.5" y="-243.8" font-family="Times New Roman,serif" font-weight="bold" font-size="14.00">EAJava_String Contact Information</text>
<polygon fill="none" stroke="black" points="827,-215 827,-236 1079,-236 1079,-215 827,-215"/>
<text text-anchor="start" x="848" y="-222.8" font-family="Times New Roman,serif" font-weight="bold" font-size="14.00">EAJava_String Current/Past Jobs</text>
<polygon fill="none" stroke="black" points="827,-194 827,-215 1079,-215 1079,-194 827,-194"/>
<text text-anchor="start" x="830" y="-201.8" font-family="Times New Roman,serif" font-weight="bold" font-size="14.00">EAJava_String Dependents Information</text>
<polygon fill="none" stroke="black" points="827,-173 827,-194 1079,-194 1079,-173 827,-173"/>
<text text-anchor="start" x="849" y="-180.8" font-family="Times New Roman,serif" font-weight="bold" font-size="14.00">EAJava_String home Information</text>
<polygon fill="none" stroke="black" points="827,-152 827,-173 1079,-173 1079,-152 827,-152"/>
<text text-anchor="start" x="864" y="-159.8" font-family="Times New Roman,serif" font-weight="bold" font-size="14.00">EAJava_String Jog Interests</text>
<polygon fill="none" stroke="black" points="827,-131 827,-152 1079,-152 1079,-131 827,-131"/>
<text text-anchor="start" x="886" y="-138.8" font-family="Times New Roman,serif" font-weight="bold" font-size="14.00">EAJava_String Name</text>
<polygon fill="none" stroke="black" points="827,-110 827,-131 1079,-131 1079,-110 827,-110"/>
<text text-anchor="start" x="893" y="-117.8" font-family="Times New Roman,serif" font-weight="bold" font-size="14.00">EAJava_String Sex</text>
<polygon fill="none" stroke="black" points="827,-89 827,-110 1079,-110 1079,-89 827,-89"/>
<text text-anchor="start" x="893.5" y="-96.8" font-family="Times New Roman,serif" font-weight="bold" font-size="14.00">RegistrationForm()</text>
<polygon fill="none" stroke="black" points="827,-68 827,-89 1079,-89 1079,-68 827,-68"/>
<text text-anchor="start" x="915" y="-75.8" font-family="Times New Roman,serif" font-weight="bold" font-size="14.00">NeonCRM()</text>
<polygon fill="none" stroke="black" points="827,-47 827,-68 1079,-68 1079,-47 827,-47"/>
<text text-anchor="start" x="881.5" y="-54.8" font-family="Times New Roman,serif" font-weight="bold" font-size="14.00">RegisterOnlineButton()</text>
<polygon fill="none" stroke="black" points="827,-26 827,-47 1079,-47 1079,-26 827,-26"/>
<text text-anchor="start" x="877" y="-33.8" font-family="Times New Roman,serif" font-weight="bold" font-size="14.00">reportgenerationbutton()</text>
<polygon fill="none" stroke="black" points="827,-5 827,-26 1079,-26 1079,-5 827,-5"/>
<text text-anchor="start" x="873.5" y="-12.8" font-family="Times New Roman,serif" font-weight="bold" font-size="14.00">validatelogininformation()</text>
<polygon fill="none" stroke="black" points="826,-4 826,-300 1080,-300 1080,-4 826,-4"/>
</g>
<!-- EAID_B7679A48_EF19_4682_A22C_83EA2D6B4C94 -->
<g id="node5" class="node"><title>EAID_B7679A48_EF19_4682_A22C_83EA2D6B4C94</title>
<polygon fill="none" stroke="black" points="1115,-173 1115,-194 1459,-194 1459,-173 1115,-173"/>
<text text-anchor="start" x="1262.5" y="-180.8" font-family="Times New Roman,serif" font-weight="bold" font-size="14.00">Reports</text>
<polygon fill="none" stroke="black" points="1115,-152 1115,-173 1459,-173 1459,-152 1115,-152"/>
<text text-anchor="start" x="1169.5" y="-159.8" font-family="Times New Roman,serif" font-weight="bold" font-size="14.00">EAJava_int Demographic Information</text>
<polygon fill="none" stroke="black" points="1115,-131 1115,-152 1459,-152 1459,-131 1115,-131"/>
<text text-anchor="start" x="1118" y="-138.8" font-family="Times New Roman,serif" font-weight="bold" font-size="14.00">EAJava_int Number of clients attended in past 3 weeks</text>
<polygon fill="none" stroke="black" points="1115,-110 1115,-131 1459,-131 1459,-110 1115,-110"/>
<text text-anchor="start" x="1258" y="-117.8" font-family="Times New Roman,serif" font-weight="bold" font-size="14.00">Reports()</text>
<polygon fill="none" stroke="black" points="1114,-109 1114,-195 1460,-195 1460,-109 1114,-109"/>
</g>
<!-- EAID_27839C10_2E83_4748_8D8A_3D2D92350EF2 -->
<g id="node6" class="node"><title>EAID_27839C10_2E83_4748_8D8A_3D2D92350EF2</title>
<polygon fill="none" stroke="black" points="1495,-257 1495,-278 1747,-278 1747,-257 1495,-257"/>
<text text-anchor="start" x="1584" y="-264.8" font-family="Times New Roman,serif" font-weight="bold" font-size="14.00">User Profile</text>
<polygon fill="none" stroke="black" points="1495,-236 1495,-257 1747,-257 1747,-236 1495,-236"/>
<text text-anchor="start" x="1571" y="-243.8" font-family="Times New Roman,serif" font-weight="bold" font-size="14.00">EAJava_int Age</text>
<polygon fill="none" stroke="black" points="1495,-215 1495,-236 1747,-236 1747,-215 1495,-215"/>
<text text-anchor="start" x="1504" y="-222.8" font-family="Times New Roman,serif" font-weight="bold" font-size="14.00">EAJava_int Client Satisfaction Rating</text>
<polygon fill="none" stroke="black" points="1495,-194 1495,-215 1747,-215 1747,-194 1495,-194"/>
<text text-anchor="start" x="1509.5" y="-201.8" font-family="Times New Roman,serif" font-weight="bold" font-size="14.00">EAJava_String Contact Information</text>
<polygon fill="none" stroke="black" points="1495,-173 1495,-194 1747,-194 1747,-173 1495,-173"/>
<text text-anchor="start" x="1529" y="-180.8" font-family="Times New Roman,serif" font-weight="bold" font-size="14.00">EAJava_int current/Past Jobs</text>
<polygon fill="none" stroke="black" points="1495,-152 1495,-173 1747,-173 1747,-152 1495,-152"/>
<text text-anchor="start" x="1498" y="-159.8" font-family="Times New Roman,serif" font-weight="bold" font-size="14.00">EAJava_String Dependents Information</text>
<polygon fill="none" stroke="black" points="1495,-131 1495,-152 1747,-152 1747,-131 1495,-131"/>
<text text-anchor="start" x="1511" y="-138.8" font-family="Times New Roman,serif" font-weight="bold" font-size="14.00">EAJava_String Income Information</text>
<polygon fill="none" stroke="black" points="1495,-110 1495,-131 1747,-131 1747,-110 1495,-110"/>
<text text-anchor="start" x="1524.5" y="-117.8" font-family="Times New Roman,serif" font-weight="bold" font-size="14.00">EAJava_int Interview Outcome</text>
<polygon fill="none" stroke="black" points="1495,-89 1495,-110 1747,-110 1747,-89 1495,-89"/>
<text text-anchor="start" x="1543" y="-96.8" font-family="Times New Roman,serif" font-weight="bold" font-size="14.00">EAJava_int Job Interests</text>
<polygon fill="none" stroke="black" points="1495,-68 1495,-89 1747,-89 1747,-68 1495,-68"/>
<text text-anchor="start" x="1554" y="-75.8" font-family="Times New Roman,serif" font-weight="bold" font-size="14.00">EAJava_String Name</text>
<polygon fill="none" stroke="black" points="1495,-47 1495,-68 1747,-68 1747,-47 1495,-47"/>
<text text-anchor="start" x="1581.5" y="-54.8" font-family="Times New Roman,serif" font-weight="bold" font-size="14.00">UserProfile()</text>
<polygon fill="none" stroke="black" points="1495,-26 1495,-47 1747,-47 1747,-26 1495,-26"/>
<text text-anchor="start" x="1581.5" y="-33.8" font-family="Times New Roman,serif" font-weight="bold" font-size="14.00">Googleplus()</text>
<polygon fill="none" stroke="black" points="1494,-25 1494,-279 1748,-279 1748,-25 1494,-25"/>
</g>
<!-- EAID_E1DA979C_908A_4985_AB08_8B2FF073F44F -->
<g id="node7" class="node"><title>EAID_E1DA979C_908A_4985_AB08_8B2FF073F44F</title>
<polygon fill="none" stroke="black" points="1783,-162 1783,-183 1895,-183 1895,-162 1783,-162"/>
<text text-anchor="start" x="1790.5" y="-169.8" font-family="Times New Roman,serif" font-weight="bold" font-size="14.00">queryarticleinfo</text>
<polygon fill="none" stroke="black" points="1783,-141 1783,-162 1895,-162 1895,-141 1783,-141"/>
<text text-anchor="start" x="1786" y="-148.8" font-family="Times New Roman,serif" font-weight="bold" font-size="14.00">queryarticleinfo()</text>
<polygon fill="none" stroke="black" points="1783,-120 1783,-141 1895,-141 1895,-120 1783,-120"/>
<text text-anchor="start" x="1804.5" y="-127.8" font-family="Times New Roman,serif" font-weight="bold" font-size="14.00">Articlelist()</text>
<polygon fill="none" stroke="black" points="1782,-119.5 1782,-184.5 1896,-184.5 1896,-119.5 1782,-119.5"/>
</g>
<!-- EAID_7B305742_0F00_40cd_B21A_3635F6E658DF -->
<g id="node8" class="node"><title>EAID_7B305742_0F00_40cd_B21A_3635F6E658DF</title>
<polygon fill="none" stroke="black" points="1932,-173 1932,-194 2041,-194 2041,-173 1932,-173"/>
<text text-anchor="start" x="1939.5" y="-180.8" font-family="Times New Roman,serif" font-weight="bold" font-size="14.00">Admininterface</text>
<polygon fill="none" stroke="black" points="1932,-152 1932,-173 2041,-173 2041,-152 1932,-152"/>
<text text-anchor="start" x="1935" y="-159.8" font-family="Times New Roman,serif" font-weight="bold" font-size="14.00">Admininterface()</text>
<polygon fill="none" stroke="black" points="1932,-131 1932,-152 2041,-152 2041,-131 1932,-131"/>
<text text-anchor="start" x="1951.5" y="-138.8" font-family="Times New Roman,serif" font-weight="bold" font-size="14.00">Facebook()</text>
<polygon fill="none" stroke="black" points="1932,-110 1932,-131 2041,-131 2041,-110 1932,-110"/>
<text text-anchor="start" x="1959" y="-117.8" font-family="Times New Roman,serif" font-weight="bold" font-size="14.00">Twitter()</text>
<polygon fill="none" stroke="black" points="1930.5,-109 1930.5,-195 2041.5,-195 2041.5,-109 1930.5,-109"/>
</g>
<!-- EAID_3BBB0494_6C6F_4df5_9527_AAD11CAA2B22 -->
<g id="node9" class="node"><title>EAID_3BBB0494_6C6F_4df5_9527_AAD11CAA2B22</title>
<polygon fill="none" stroke="black" points="2077,-173 2077,-194 2282,-194 2282,-173 2077,-173"/>
<text text-anchor="start" x="2101" y="-180.8" font-family="Times New Roman,serif" font-weight="bold" font-size="14.00">Invalidstoreerrormessage</text>
<polygon fill="none" stroke="black" points="2077,-152 2077,-173 2282,-173 2282,-152 2077,-152"/>
<text text-anchor="start" x="2096.5" y="-159.8" font-family="Times New Roman,serif" font-weight="bold" font-size="14.00">Invalidstoreerrormessage()</text>
<polygon fill="none" stroke="black" points="2077,-131 2077,-152 2282,-152 2282,-131 2077,-131"/>
<text text-anchor="start" x="2080" y="-138.8" font-family="Times New Roman,serif" font-weight="bold" font-size="14.00">viewingdocumenterrormessage()</text>
<polygon fill="none" stroke="black" points="2077,-110 2077,-131 2282,-131 2282,-110 2077,-110"/>
<text text-anchor="start" x="2108.5" y="-117.8" font-family="Times New Roman,serif" font-weight="bold" font-size="14.00">sharetosocialnetwork()</text>
<polygon fill="none" stroke="black" points="2075.5,-109 2075.5,-195 2282.5,-195 2282.5,-109 2075.5,-109"/>
</g>
<!-- EAID_31AAD3AE_2889_4378_AAD9_03AE161DDE22 -->
<g id="node10" class="node"><title>EAID_31AAD3AE_2889_4378_AAD9_03AE161DDE22</title>
<polygon fill="none" stroke="black" points="2318,-162 2318,-183 2463,-183 2463,-162 2318,-162"/>
<text text-anchor="start" x="2325.5" y="-169.8" font-family="Times New Roman,serif" font-weight="bold" font-size="14.00">documentuploadpage</text>
<polygon fill="none" stroke="black" points="2318,-141 2318,-162 2463,-162 2463,-141 2318,-141"/>
<text text-anchor="start" x="2321" y="-148.8" font-family="Times New Roman,serif" font-weight="bold" font-size="14.00">documentuploadpage()</text>
<polygon fill="none" stroke="black" points="2318,-120 2318,-141 2463,-141 2463,-120 2318,-120"/>
<text text-anchor="start" x="2331.5" y="-127.8" font-family="Times New Roman,serif" font-weight="bold" font-size="14.00">storethedocument()</text>
<polygon fill="none" stroke="black" points="2316.5,-119.5 2316.5,-184.5 2463.5,-184.5 2463.5,-119.5 2316.5,-119.5"/>
</g>
</g>
</svg>
