<?xml version="1.0" encoding="UTF-8" standalone="no"?>
<!DOCTYPE svg PUBLIC "-//W3C//DTD SVG 1.1//EN"
 "http://www.w3.org/Graphics/SVG/1.1/DTD/svg11.dtd">
<!-- Generated by graphviz version 2.38.0 (20140413.2041)
 -->
<!-- Title: g Pages: 1 -->
<svg width="3131pt" height="1079pt"
 viewBox="0.00 0.00 3131.00 1079.00" xmlns="http://www.w3.org/2000/svg" xmlns:xlink="http://www.w3.org/1999/xlink">
<g id="graph0" class="graph" transform="scale(1 1) rotate(0) translate(4 1075)">
<title>g</title>
<polygon fill="white" stroke="none" points="-4,4 -4,-1075 3127,-1075 3127,4 -4,4"/>
<g id="clust1" class="cluster"><title>cluster0</title>
<polygon fill="none" stroke="black" stroke-width="2" points="2288,-275 2288,-965 2858,-965 2858,-275 2288,-275"/>
<text text-anchor="start" x="2551" y="-950.8" font-family="Times New Roman,serif" font-weight="bold" font-size="14.00">System</text>
</g>
<g id="clust2" class="cluster"><title>cluster1</title>
<polygon fill="none" stroke="black" stroke-width="2" points="2226,-973 2226,-1063 3115,-1063 3115,-973 2226,-973"/>
<text text-anchor="start" x="2653" y="-1048.8" font-family="Times New Roman,serif" font-weight="bold" font-size="14.00">Actor</text>
</g>
<g id="clust3" class="cluster"><title>cluster1000</title>
<polygon fill="none" stroke="black" stroke-width="2" points="8,-8 8,-267 2871,-267 2871,-8 8,-8"/>
<text text-anchor="start" x="1394" y="-252.8" font-family="Times New Roman,serif" font-weight="bold" font-size="14.00">Domain Model</text>
</g>
<!-- EAID_57204BF0_8A75_4004_8476_5F9B67BE6E75___EAID_A0BBFAAD_9C4A_46a0_BA74_A25970869F28 -->
<g id="node1" class="node"><title>EAID_57204BF0_8A75_4004_8476_5F9B67BE6E75___EAID_A0BBFAAD_9C4A_46a0_BA74_A25970869F28</title>
<image xlink:href="img/activity_icon.png" width="30px" height="20px" preserveAspectRatio="xMinYMin meet" x="2577.5" y="-927.5"/>
<text text-anchor="start" x="2532" y="-893.3" font-family="Times New Roman,serif" font-weight="bold" font-size="14.00">Actor:Project detail</text>
</g>
<!-- EAID_80445D8E_0ED8_4028_8CF3_60CA7E370CB9 -->
<g id="node21" class="node"><title>EAID_80445D8E_0ED8_4028_8CF3_60CA7E370CB9</title>
<polygon fill="none" stroke="black" points="2445,-168 2445,-189 2854,-189 2854,-168 2445,-168"/>
<text text-anchor="start" x="2626.5" y="-175.8" font-family="Times New Roman,serif" font-weight="bold" font-size="14.00">Project</text>
<polygon fill="none" stroke="black" points="2445,-147 2445,-168 2854,-168 2854,-147 2445,-147"/>
<text text-anchor="start" x="2448" y="-154.8" font-family="Times New Roman,serif" font-weight="bold" font-size="14.00">EAID_FDF84386_392A_47b9_AEB0_B17152B69BCF undefined</text>
<polygon fill="none" stroke="black" points="2445,-126 2445,-147 2854,-147 2854,-126 2445,-126"/>
<text text-anchor="start" x="2622" y="-133.8" font-family="Times New Roman,serif" font-weight="bold" font-size="14.00">Project()</text>
<polygon fill="none" stroke="black" points="2445,-105 2445,-126 2854,-126 2854,-105 2445,-105"/>
<text text-anchor="start" x="2570.5" y="-112.8" font-family="Times New Roman,serif" font-weight="bold" font-size="14.00">Projectinformationerror()</text>
<polygon fill="none" stroke="black" points="2445,-84 2445,-105 2854,-105 2854,-84 2445,-84"/>
<text text-anchor="start" x="2596" y="-91.8" font-family="Times New Roman,serif" font-weight="bold" font-size="14.00">EditProfilePage()</text>
<polygon fill="none" stroke="black" points="2445,-63 2445,-84 2854,-84 2854,-63 2445,-63"/>
<text text-anchor="start" x="2570.5" y="-70.8" font-family="Times New Roman,serif" font-weight="bold" font-size="14.00">displayeditprojectscreen()</text>
<polygon fill="none" stroke="black" points="2443.5,-62 2443.5,-190 2854.5,-190 2854.5,-62 2443.5,-62"/>
</g>
<!-- EAID_57204BF0_8A75_4004_8476_5F9B67BE6E75___EAID_A0BBFAAD_9C4A_46a0_BA74_A25970869F28&#45;&gt;EAID_80445D8E_0ED8_4028_8CF3_60CA7E370CB9 -->
<g id="edge15" class="edge"><title>EAID_57204BF0_8A75_4004_8476_5F9B67BE6E75___EAID_A0BBFAAD_9C4A_46a0_BA74_A25970869F28&#45;&gt;EAID_80445D8E_0ED8_4028_8CF3_60CA7E370CB9</title>
<path fill="none" stroke="black" stroke-dasharray="5,2" d="M2521.07,-884.982C2518.35,-884.285 2515.66,-883.621 2513,-883 2311.35,-835.851 2078,-923.091 2078,-716 2078,-716 2078,-716 2078,-514 2078,-366.888 2173.69,-337.217 2307,-275 2331.22,-263.697 2401.59,-275.27 2427,-267 2472.62,-252.155 2518.27,-225.84 2556.2,-200"/>
<polygon fill="black" stroke="black" points="2558.43,-202.713 2564.67,-194.151 2554.45,-196.953 2558.43,-202.713"/>
</g>
<!-- EAID_57204BF0_8A75_4004_8476_5F9B67BE6E75___EAID_60BEB291_ADCD_4107_8101_F6C7A8E2F451 -->
<g id="node2" class="node"><title>EAID_57204BF0_8A75_4004_8476_5F9B67BE6E75___EAID_60BEB291_ADCD_4107_8101_F6C7A8E2F451</title>
<image xlink:href="img/activity_icon.png" width="30px" height="20px" preserveAspectRatio="xMinYMin meet" x="2385.5" y="-927.5"/>
<text text-anchor="start" x="2307" y="-893.3" font-family="Times New Roman,serif" font-weight="bold" font-size="14.00">Actor:Selecting settings button</text>
</g>
<!-- EAID_60BEB291_ADCD_4107_8101_F6C7A8E2F451___EAID_06CD1A3F_1A16_454e_9D5C_A53E071DBB4C -->
<g id="node6" class="node"><title>EAID_60BEB291_ADCD_4107_8101_F6C7A8E2F451___EAID_06CD1A3F_1A16_454e_9D5C_A53E071DBB4C</title>
<image xlink:href="img/activity_icon.png" width="30px" height="20px" preserveAspectRatio="xMinYMin meet" x="2391.5" y="-841"/>
<text text-anchor="start" x="2307" y="-806.8" font-family="Times New Roman,serif" font-weight="bold" font-size="14.00">Selecting settings button:Display</text>
<text text-anchor="start" x="2332" y="-792.8" font-family="Times New Roman,serif" font-weight="bold" font-size="14.00">dropdown settings menu</text>
</g>
<!-- EAID_57204BF0_8A75_4004_8476_5F9B67BE6E75___EAID_60BEB291_ADCD_4107_8101_F6C7A8E2F451&#45;&gt;EAID_60BEB291_ADCD_4107_8101_F6C7A8E2F451___EAID_06CD1A3F_1A16_454e_9D5C_A53E071DBB4C -->
<g id="edge2" class="edge"><title>EAID_57204BF0_8A75_4004_8476_5F9B67BE6E75___EAID_60BEB291_ADCD_4107_8101_F6C7A8E2F451&#45;&gt;EAID_60BEB291_ADCD_4107_8101_F6C7A8E2F451___EAID_06CD1A3F_1A16_454e_9D5C_A53E071DBB4C</title>
<path fill="none" stroke="black" d="M2401.61,-882.98C2402.13,-875.066 2402.72,-866.063 2403.29,-857.281"/>
<polygon fill="black" stroke="black" points="2406.8,-857.361 2403.96,-847.153 2399.81,-856.903 2406.8,-857.361"/>
</g>
<!-- EAID_A248345F_D11A_4400_BE20_A97C53DEF375 -->
<g id="node19" class="node"><title>EAID_A248345F_D11A_4400_BE20_A97C53DEF375</title>
<polygon fill="none" stroke="black" points="888,-178 888,-199 1307,-199 1307,-178 888,-178"/>
<text text-anchor="start" x="1048.5" y="-185.8" font-family="Times New Roman,serif" font-weight="bold" font-size="14.00">Meeting Minute</text>
<polygon fill="none" stroke="black" points="888,-157 888,-178 1307,-178 1307,-157 888,-157"/>
<text text-anchor="start" x="899.5" y="-164.8" font-family="Times New Roman,serif" font-weight="bold" font-size="14.00">EAID_905D5DC7_566F_40c2_A927_E23E83C27975 undefined</text>
<polygon fill="none" stroke="black" points="888,-136 888,-157 1307,-157 1307,-136 888,-136"/>
<text text-anchor="start" x="891" y="-143.8" font-family="Times New Roman,serif" font-weight="bold" font-size="14.00">EAID_8AA0F4D1_CAA1_4d34_A2BD_4250BA9CCB27 undefined</text>
<polygon fill="none" stroke="black" points="888,-115 888,-136 1307,-136 1307,-115 888,-115"/>
<text text-anchor="start" x="1046" y="-122.8" font-family="Times New Roman,serif" font-weight="bold" font-size="14.00">MeetingMinute()</text>
<polygon fill="none" stroke="black" points="888,-94 888,-115 1307,-115 1307,-94 888,-94"/>
<text text-anchor="start" x="1022" y="-101.8" font-family="Times New Roman,serif" font-weight="bold" font-size="14.00">Selectingsettingsbutton()</text>
<polygon fill="none" stroke="black" points="888,-73 888,-94 1307,-94 1307,-73 888,-73"/>
<text text-anchor="start" x="999.5" y="-80.8" font-family="Times New Roman,serif" font-weight="bold" font-size="14.00">Displaydropdownsettingsmenu()</text>
<polygon fill="none" stroke="black" points="888,-52 888,-73 1307,-73 1307,-52 888,-52"/>
<text text-anchor="start" x="1037.5" y="-59.8" font-family="Times New Roman,serif" font-weight="bold" font-size="14.00">selectadminoption()</text>
<polygon fill="none" stroke="black" points="886.5,-51.5 886.5,-200.5 1307.5,-200.5 1307.5,-51.5 886.5,-51.5"/>
</g>
<!-- EAID_57204BF0_8A75_4004_8476_5F9B67BE6E75___EAID_60BEB291_ADCD_4107_8101_F6C7A8E2F451&#45;&gt;EAID_A248345F_D11A_4400_BE20_A97C53DEF375 -->
<g id="edge16" class="edge"><title>EAID_57204BF0_8A75_4004_8476_5F9B67BE6E75___EAID_60BEB291_ADCD_4107_8101_F6C7A8E2F451&#45;&gt;EAID_A248345F_D11A_4400_BE20_A97C53DEF375</title>
<path fill="none" stroke="black" stroke-dasharray="5,2" d="M2296.15,-903.595C2084.06,-892.784 1621,-853.442 1621,-716 1621,-716 1621,-716 1621,-414 1621,-267.115 1453.49,-338.168 1325,-267 1293.06,-249.308 1259.23,-229.281 1227.7,-210.021"/>
<polygon fill="black" stroke="black" points="1229.22,-206.85 1218.87,-204.611 1225.56,-212.819 1229.22,-206.85"/>
</g>
<!-- EAID_57204BF0_8A75_4004_8476_5F9B67BE6E75___EAID_86480A8B_51F0_4fe1_A330_B5A6F6F5CAE7 -->
<g id="node3" class="node"><title>EAID_57204BF0_8A75_4004_8476_5F9B67BE6E75___EAID_86480A8B_51F0_4fe1_A330_B5A6F6F5CAE7</title>
<image xlink:href="img/activity_icon.png" width="30px" height="20px" preserveAspectRatio="xMinYMin meet" x="2747.5" y="-534"/>
<text text-anchor="start" x="2685" y="-499.8" font-family="Times New Roman,serif" font-weight="bold" font-size="14.00">Actor:Projects list screen</text>
</g>
<!-- EAID_86480A8B_51F0_4fe1_A330_B5A6F6F5CAE7___EAID_80D013DD_D878_46a0_8DA8_BAD3FC4A72B5 -->
<g id="node10" class="node"><title>EAID_86480A8B_51F0_4fe1_A330_B5A6F6F5CAE7___EAID_80D013DD_D878_46a0_8DA8_BAD3FC4A72B5</title>
<image xlink:href="img/activity_icon.png" width="30px" height="20px" preserveAspectRatio="xMinYMin meet" x="2549.5" y="-441"/>
<text text-anchor="start" x="2485" y="-406.8" font-family="Times New Roman,serif" font-weight="bold" font-size="14.00">Projects list screen:Query</text>
<text text-anchor="start" x="2523.5" y="-392.8" font-family="Times New Roman,serif" font-weight="bold" font-size="14.00">project detail</text>
</g>
<!-- EAID_57204BF0_8A75_4004_8476_5F9B67BE6E75___EAID_86480A8B_51F0_4fe1_A330_B5A6F6F5CAE7&#45;&gt;EAID_86480A8B_51F0_4fe1_A330_B5A6F6F5CAE7___EAID_80D013DD_D878_46a0_8DA8_BAD3FC4A72B5 -->
<g id="edge4" class="edge"><title>EAID_57204BF0_8A75_4004_8476_5F9B67BE6E75___EAID_86480A8B_51F0_4fe1_A330_B5A6F6F5CAE7&#45;&gt;EAID_86480A8B_51F0_4fe1_A330_B5A6F6F5CAE7___EAID_80D013DD_D878_46a0_8DA8_BAD3FC4A72B5</title>
<path fill="none" stroke="black" d="M2712.29,-489.397C2689.23,-477.985 2661.39,-464.202 2636.08,-451.676"/>
<polygon fill="black" stroke="black" points="2637.4,-448.424 2626.89,-447.125 2634.3,-454.698 2637.4,-448.424"/>
</g>
<!-- EAID_57204BF0_8A75_4004_8476_5F9B67BE6E75___EAID_86480A8B_51F0_4fe1_A330_B5A6F6F5CAE7&#45;&gt;EAID_80445D8E_0ED8_4028_8CF3_60CA7E370CB9 -->
<g id="edge17" class="edge"><title>EAID_57204BF0_8A75_4004_8476_5F9B67BE6E75___EAID_86480A8B_51F0_4fe1_A330_B5A6F6F5CAE7&#45;&gt;EAID_80445D8E_0ED8_4028_8CF3_60CA7E370CB9</title>
<path fill="none" stroke="black" stroke-dasharray="5,2" d="M2786.14,-489.246C2826.15,-445.096 2898.07,-350.33 2859,-275 2843.74,-245.576 2819.64,-220.764 2793.13,-200.365"/>
<polygon fill="black" stroke="black" points="2794.94,-197.348 2784.83,-194.176 2790.75,-202.959 2794.94,-197.348"/>
</g>
<!-- EAID_57204BF0_8A75_4004_8476_5F9B67BE6E75___EAID_DC9A351A_F1A5_4e58_BFA4_21D8841D5693 -->
<g id="node4" class="node"><title>EAID_57204BF0_8A75_4004_8476_5F9B67BE6E75___EAID_DC9A351A_F1A5_4e58_BFA4_21D8841D5693</title>
<image xlink:href="img/activity_icon.png" width="30px" height="20px" preserveAspectRatio="xMinYMin meet" x="2609.5" y="-734"/>
<text text-anchor="start" x="2531" y="-699.8" font-family="Times New Roman,serif" font-weight="bold" font-size="14.00">Actor:dropdown settings menu</text>
</g>
<!-- EAID_DC9A351A_F1A5_4e58_BFA4_21D8841D5693___EAID_90AB2E51_8721_413a_B930_D55FF6E40A3B -->
<g id="node12" class="node"><title>EAID_DC9A351A_F1A5_4e58_BFA4_21D8841D5693___EAID_90AB2E51_8721_413a_B930_D55FF6E40A3B</title>
<image xlink:href="img/activity_icon.png" width="30px" height="20px" preserveAspectRatio="xMinYMin meet" x="2385.5" y="-641"/>
<text text-anchor="start" x="2307" y="-606.8" font-family="Times New Roman,serif" font-weight="bold" font-size="14.00">dropdown settings menu:query</text>
<text text-anchor="start" x="2375.5" y="-592.8" font-family="Times New Roman,serif" font-weight="bold" font-size="14.00">projects</text>
</g>
<!-- EAID_57204BF0_8A75_4004_8476_5F9B67BE6E75___EAID_DC9A351A_F1A5_4e58_BFA4_21D8841D5693&#45;&gt;EAID_DC9A351A_F1A5_4e58_BFA4_21D8841D5693___EAID_90AB2E51_8721_413a_B930_D55FF6E40A3B -->
<g id="edge6" class="edge"><title>EAID_57204BF0_8A75_4004_8476_5F9B67BE6E75___EAID_DC9A351A_F1A5_4e58_BFA4_21D8841D5693&#45;&gt;EAID_DC9A351A_F1A5_4e58_BFA4_21D8841D5693___EAID_90AB2E51_8721_413a_B930_D55FF6E40A3B</title>
<path fill="none" stroke="black" d="M2567.76,-689.397C2541.34,-677.835 2509.35,-663.839 2480.42,-651.182"/>
<polygon fill="black" stroke="black" points="2481.71,-647.927 2471.14,-647.125 2478.9,-654.34 2481.71,-647.927"/>
</g>
<!-- EAID_FDF84386_392A_47b9_AEB0_B17152B69BCF -->
<g id="node17" class="node"><title>EAID_FDF84386_392A_47b9_AEB0_B17152B69BCF</title>
<polygon fill="none" stroke="black" points="1555,-189 1555,-210 1963,-210 1963,-189 1555,-189"/>
<text text-anchor="start" x="1733.5" y="-196.8" font-family="Times New Roman,serif" font-weight="bold" font-size="14.00">Meeting</text>
<polygon fill="none" stroke="black" points="1555,-168 1555,-189 1963,-189 1963,-168 1555,-168"/>
<text text-anchor="start" x="1558" y="-175.8" font-family="Times New Roman,serif" font-weight="bold" font-size="14.00">EAID_A248345F_D11A_4400_BE20_A97C53DEF375 undefined</text>
<polygon fill="none" stroke="black" points="1555,-147 1555,-168 1963,-168 1963,-147 1555,-147"/>
<text text-anchor="start" x="1729" y="-154.8" font-family="Times New Roman,serif" font-weight="bold" font-size="14.00">Meeting()</text>
<polygon fill="none" stroke="black" points="1555,-126 1555,-147 1963,-147 1963,-126 1555,-126"/>
<text text-anchor="start" x="1683.5" y="-133.8" font-family="Times New Roman,serif" font-weight="bold" font-size="14.00">dropdownsettingsmenu()</text>
<polygon fill="none" stroke="black" points="1555,-105 1555,-126 1963,-126 1963,-105 1555,-105"/>
<text text-anchor="start" x="1660.5" y="-112.8" font-family="Times New Roman,serif" font-weight="bold" font-size="14.00">displaythecreatemeetingscreen()</text>
<polygon fill="none" stroke="black" points="1555,-84 1555,-105 1963,-105 1963,-84 1555,-84"/>
<text text-anchor="start" x="1674.5" y="-91.8" font-family="Times New Roman,serif" font-weight="bold" font-size="14.00">meetinginformationscreen()</text>
<polygon fill="none" stroke="black" points="1555,-63 1555,-84 1963,-84 1963,-63 1555,-63"/>
<text text-anchor="start" x="1681" y="-70.8" font-family="Times New Roman,serif" font-weight="bold" font-size="14.00">querymeetingsbyproject()</text>
<polygon fill="none" stroke="black" points="1555,-42 1555,-63 1963,-63 1963,-42 1555,-42"/>
<text text-anchor="start" x="1663" y="-49.8" font-family="Times New Roman,serif" font-weight="bold" font-size="14.00">meetinglistandpushlishoptions()</text>
<polygon fill="none" stroke="black" points="1554,-41 1554,-211 1964,-211 1964,-41 1554,-41"/>
</g>
<!-- EAID_57204BF0_8A75_4004_8476_5F9B67BE6E75___EAID_DC9A351A_F1A5_4e58_BFA4_21D8841D5693&#45;&gt;EAID_FDF84386_392A_47b9_AEB0_B17152B69BCF -->
<g id="edge18" class="edge"><title>EAID_57204BF0_8A75_4004_8476_5F9B67BE6E75___EAID_DC9A351A_F1A5_4e58_BFA4_21D8841D5693&#45;&gt;EAID_FDF84386_392A_47b9_AEB0_B17152B69BCF</title>
<path fill="none" stroke="black" stroke-dasharray="5,2" d="M2538.48,-689.497C2529.24,-687.161 2519.95,-684.943 2511,-683 2412.89,-661.689 2373.63,-699.408 2288,-647 2226.43,-609.32 2192,-588.182 2192,-516 2192,-516 2192,-516 2192,-414 2192,-350.401 2207.12,-315.393 2158,-275 2142.88,-262.567 2000.68,-272.841 1982,-267 1947.9,-256.339 1913.84,-239.14 1882.97,-220.388"/>
<polygon fill="black" stroke="black" points="1884.7,-217.341 1874.35,-215.062 1881.02,-223.296 1884.7,-217.341"/>
</g>
<!-- EAID_06CD1A3F_1A16_454e_9D5C_A53E071DBB4C___EAID_DC9A351A_F1A5_4e58_BFA4_21D8841D5693 -->
<g id="node5" class="node"><title>EAID_06CD1A3F_1A16_454e_9D5C_A53E071DBB4C___EAID_DC9A351A_F1A5_4e58_BFA4_21D8841D5693</title>
<image xlink:href="img/activity_icon.png" width="30px" height="20px" preserveAspectRatio="xMinYMin meet" x="2384" y="-741"/>
<text text-anchor="start" x="2318" y="-706.8" font-family="Times New Roman,serif" font-weight="bold" font-size="14.00">Display dropdown settings</text>
<text text-anchor="start" x="2306" y="-692.8" font-family="Times New Roman,serif" font-weight="bold" font-size="14.00">menu:dropdown settings menu</text>
</g>
<!-- EAID_06CD1A3F_1A16_454e_9D5C_A53E071DBB4C___EAID_DC9A351A_F1A5_4e58_BFA4_21D8841D5693&#45;&gt;EAID_DC9A351A_F1A5_4e58_BFA4_21D8841D5693___EAID_90AB2E51_8721_413a_B930_D55FF6E40A3B -->
<g id="edge8" class="edge"><title>EAID_06CD1A3F_1A16_454e_9D5C_A53E071DBB4C___EAID_DC9A351A_F1A5_4e58_BFA4_21D8841D5693&#45;&gt;EAID_DC9A351A_F1A5_4e58_BFA4_21D8841D5693___EAID_90AB2E51_8721_413a_B930_D55FF6E40A3B</title>
<path fill="none" stroke="black" d="M2399.32,-682.992C2399.4,-674.859 2399.49,-665.959 2399.58,-657.378"/>
<polygon fill="black" stroke="black" points="2403.08,-657.178 2399.68,-647.142 2396.08,-657.106 2403.08,-657.178"/>
</g>
<!-- EAID_06CD1A3F_1A16_454e_9D5C_A53E071DBB4C___EAID_DC9A351A_F1A5_4e58_BFA4_21D8841D5693&#45;&gt;EAID_FDF84386_392A_47b9_AEB0_B17152B69BCF -->
<g id="edge19" class="edge"><title>EAID_06CD1A3F_1A16_454e_9D5C_A53E071DBB4C___EAID_DC9A351A_F1A5_4e58_BFA4_21D8841D5693&#45;&gt;EAID_FDF84386_392A_47b9_AEB0_B17152B69BCF</title>
<path fill="none" stroke="black" stroke-dasharray="5,2" d="M2295.99,-705.99C2253.74,-697.432 2207.84,-680.422 2178,-647 2138.58,-602.846 2154,-575.191 2154,-516 2154,-516 2154,-516 2154,-414 2154,-351.308 2176.85,-316.663 2130,-275 2117.69,-264.056 1997.7,-271.982 1982,-267 1948.05,-256.225 1914.1,-239.038 1883.31,-220.341"/>
<polygon fill="black" stroke="black" points="1885.06,-217.307 1874.71,-215.032 1881.38,-223.263 1885.06,-217.307"/>
</g>
<!-- EAID_60BEB291_ADCD_4107_8101_F6C7A8E2F451___EAID_06CD1A3F_1A16_454e_9D5C_A53E071DBB4C&#45;&gt;EAID_06CD1A3F_1A16_454e_9D5C_A53E071DBB4C___EAID_DC9A351A_F1A5_4e58_BFA4_21D8841D5693 -->
<g id="edge9" class="edge"><title>EAID_60BEB291_ADCD_4107_8101_F6C7A8E2F451___EAID_06CD1A3F_1A16_454e_9D5C_A53E071DBB4C&#45;&gt;EAID_06CD1A3F_1A16_454e_9D5C_A53E071DBB4C___EAID_DC9A351A_F1A5_4e58_BFA4_21D8841D5693</title>
<path fill="none" stroke="black" d="M2403.79,-782.992C2403.2,-774.859 2402.57,-765.959 2401.96,-757.378"/>
<polygon fill="black" stroke="black" points="2405.43,-756.868 2401.22,-747.142 2398.45,-757.366 2405.43,-756.868"/>
</g>
<!-- EAID_60BEB291_ADCD_4107_8101_F6C7A8E2F451___EAID_06CD1A3F_1A16_454e_9D5C_A53E071DBB4C&#45;&gt;EAID_A248345F_D11A_4400_BE20_A97C53DEF375 -->
<g id="edge20" class="edge"><title>EAID_60BEB291_ADCD_4107_8101_F6C7A8E2F451___EAID_06CD1A3F_1A16_454e_9D5C_A53E071DBB4C&#45;&gt;EAID_A248345F_D11A_4400_BE20_A97C53DEF375</title>
<path fill="none" stroke="black" stroke-dasharray="5,2" d="M2296.36,-786.751C2214.24,-759.007 2116,-706.835 2116,-616 2116,-616 2116,-616 2116,-414 2116,-191.475 1854.91,-309.037 1635,-275 1600.95,-269.73 1358.03,-276.795 1325,-267 1283.57,-254.715 1242.13,-232.867 1206.17,-210.03"/>
<polygon fill="black" stroke="black" points="1207.93,-207.001 1197.63,-204.523 1204.14,-212.884 1207.93,-207.001"/>
</g>
<!-- EAID_80D013DD_D878_46a0_8DA8_BAD3FC4A72B5___EAID_F89F6DC2_623A_4724_9B1E_37CAC734C40D -->
<g id="node7" class="node"><title>EAID_80D013DD_D878_46a0_8DA8_BAD3FC4A72B5___EAID_F89F6DC2_623A_4724_9B1E_37CAC734C40D</title>
<image xlink:href="img/activity_icon.png" width="30px" height="20px" preserveAspectRatio="xMinYMin meet" x="2529" y="-334"/>
<text text-anchor="start" x="2458" y="-299.8" font-family="Times New Roman,serif" font-weight="bold" font-size="14.00">Query project detail:Project</text>
</g>
<!-- EAID_80D013DD_D878_46a0_8DA8_BAD3FC4A72B5___EAID_F89F6DC2_623A_4724_9B1E_37CAC734C40D&#45;&gt;EAID_80445D8E_0ED8_4028_8CF3_60CA7E370CB9 -->
<g id="edge21" class="edge"><title>EAID_80D013DD_D878_46a0_8DA8_BAD3FC4A72B5___EAID_F89F6DC2_623A_4724_9B1E_37CAC734C40D&#45;&gt;EAID_80445D8E_0ED8_4028_8CF3_60CA7E370CB9</title>
<path fill="none" stroke="black" stroke-dasharray="5,2" d="M2557.94,-289.168C2570.28,-267.195 2588.95,-233.945 2606.18,-203.261"/>
<polygon fill="black" stroke="black" points="2609.39,-204.696 2611.23,-194.263 2603.28,-201.268 2609.39,-204.696"/>
</g>
<!-- EAID_90AB2E51_8721_413a_B930_D55FF6E40A3B___EAID_F89F6DC2_623A_4724_9B1E_37CAC734C40D -->
<g id="node8" class="node"><title>EAID_90AB2E51_8721_413a_B930_D55FF6E40A3B___EAID_F89F6DC2_623A_4724_9B1E_37CAC734C40D</title>
<image xlink:href="img/activity_icon.png" width="30px" height="20px" preserveAspectRatio="xMinYMin meet" x="2360.5" y="-534"/>
<text text-anchor="start" x="2307" y="-499.8" font-family="Times New Roman,serif" font-weight="bold" font-size="14.00">query projects:Project</text>
</g>
<!-- EAID_90AB2E51_8721_413a_B930_D55FF6E40A3B___EAID_F89F6DC2_623A_4724_9B1E_37CAC734C40D&#45;&gt;EAID_80445D8E_0ED8_4028_8CF3_60CA7E370CB9 -->
<g id="edge22" class="edge"><title>EAID_90AB2E51_8721_413a_B930_D55FF6E40A3B___EAID_F89F6DC2_623A_4724_9B1E_37CAC734C40D&#45;&gt;EAID_80445D8E_0ED8_4028_8CF3_60CA7E370CB9</title>
<path fill="none" stroke="black" stroke-dasharray="5,2" d="M2369.88,-489.392C2361.56,-442.055 2350.77,-337.481 2402,-275 2409.4,-265.979 2416.43,-271.929 2427,-267 2467.43,-248.154 2509.41,-223.247 2545.83,-199.672"/>
<polygon fill="black" stroke="black" points="2548.02,-202.425 2554.48,-194.031 2544.19,-196.562 2548.02,-202.425"/>
</g>
<!-- EAID_80D013DD_D878_46a0_8DA8_BAD3FC4A72B5___EAID_A0BBFAAD_9C4A_46a0_BA74_A25970869F28 -->
<g id="node9" class="node"><title>EAID_80D013DD_D878_46a0_8DA8_BAD3FC4A72B5___EAID_A0BBFAAD_9C4A_46a0_BA74_A25970869F28</title>
<image xlink:href="img/activity_icon.png" width="30px" height="20px" preserveAspectRatio="xMinYMin meet" x="2739" y="-341"/>
<text text-anchor="start" x="2668" y="-306.8" font-family="Times New Roman,serif" font-weight="bold" font-size="14.00">Query project detail:Project</text>
<text text-anchor="start" x="2737" y="-292.8" font-family="Times New Roman,serif" font-weight="bold" font-size="14.00">detail</text>
</g>
<!-- EAID_80D013DD_D878_46a0_8DA8_BAD3FC4A72B5___EAID_A0BBFAAD_9C4A_46a0_BA74_A25970869F28&#45;&gt;EAID_80445D8E_0ED8_4028_8CF3_60CA7E370CB9 -->
<g id="edge23" class="edge"><title>EAID_80D013DD_D878_46a0_8DA8_BAD3FC4A72B5___EAID_A0BBFAAD_9C4A_46a0_BA74_A25970869F28&#45;&gt;EAID_80445D8E_0ED8_4028_8CF3_60CA7E370CB9</title>
<path fill="none" stroke="black" stroke-dasharray="5,2" d="M2736.43,-282.7C2724.2,-260.934 2707.36,-230.938 2691.72,-203.08"/>
<polygon fill="black" stroke="black" points="2694.64,-201.129 2686.69,-194.123 2688.53,-204.556 2694.64,-201.129"/>
</g>
<!-- EAID_86480A8B_51F0_4fe1_A330_B5A6F6F5CAE7___EAID_80D013DD_D878_46a0_8DA8_BAD3FC4A72B5&#45;&gt;EAID_80D013DD_D878_46a0_8DA8_BAD3FC4A72B5___EAID_F89F6DC2_623A_4724_9B1E_37CAC734C40D -->
<g id="edge10" class="edge"><title>EAID_86480A8B_51F0_4fe1_A330_B5A6F6F5CAE7___EAID_80D013DD_D878_46a0_8DA8_BAD3FC4A72B5&#45;&gt;EAID_80D013DD_D878_46a0_8DA8_BAD3FC4A72B5___EAID_F89F6DC2_623A_4724_9B1E_37CAC734C40D</title>
<path fill="none" stroke="black" d="M2557.67,-382.992C2555.58,-372.73 2553.23,-361.246 2551.09,-350.724"/>
<polygon fill="black" stroke="black" points="2554.45,-349.701 2549.02,-340.603 2547.59,-351.101 2554.45,-349.701"/>
</g>
<!-- EAID_86480A8B_51F0_4fe1_A330_B5A6F6F5CAE7___EAID_80D013DD_D878_46a0_8DA8_BAD3FC4A72B5&#45;&gt;EAID_80D013DD_D878_46a0_8DA8_BAD3FC4A72B5___EAID_A0BBFAAD_9C4A_46a0_BA74_A25970869F28 -->
<g id="edge11" class="edge"><title>EAID_86480A8B_51F0_4fe1_A330_B5A6F6F5CAE7___EAID_80D013DD_D878_46a0_8DA8_BAD3FC4A72B5&#45;&gt;EAID_80D013DD_D878_46a0_8DA8_BAD3FC4A72B5___EAID_A0BBFAAD_9C4A_46a0_BA74_A25970869F28</title>
<path fill="none" stroke="black" d="M2624.12,-382.992C2643.35,-373.072 2664.8,-362.009 2684.63,-351.778"/>
<polygon fill="black" stroke="black" points="2686.34,-354.837 2693.62,-347.142 2683.13,-348.616 2686.34,-354.837"/>
</g>
<!-- EAID_86480A8B_51F0_4fe1_A330_B5A6F6F5CAE7___EAID_80D013DD_D878_46a0_8DA8_BAD3FC4A72B5&#45;&gt;EAID_80445D8E_0ED8_4028_8CF3_60CA7E370CB9 -->
<g id="edge24" class="edge"><title>EAID_86480A8B_51F0_4fe1_A330_B5A6F6F5CAE7___EAID_80D013DD_D878_46a0_8DA8_BAD3FC4A72B5&#45;&gt;EAID_80445D8E_0ED8_4028_8CF3_60CA7E370CB9</title>
<path fill="none" stroke="black" stroke-dasharray="5,2" d="M2476.26,-382.906C2461.4,-373.666 2447.92,-361.894 2439,-347 2422.56,-319.543 2424.27,-303.407 2439,-275 2454.26,-245.576 2478.36,-220.764 2504.87,-200.365"/>
<polygon fill="black" stroke="black" points="2507.25,-202.959 2513.17,-194.176 2503.06,-197.348 2507.25,-202.959"/>
</g>
<!-- EAID_90AB2E51_8721_413a_B930_D55FF6E40A3B___EAID_86480A8B_51F0_4fe1_A330_B5A6F6F5CAE7 -->
<g id="node11" class="node"><title>EAID_90AB2E51_8721_413a_B930_D55FF6E40A3B___EAID_86480A8B_51F0_4fe1_A330_B5A6F6F5CAE7</title>
<image xlink:href="img/activity_icon.png" width="30px" height="20px" preserveAspectRatio="xMinYMin meet" x="2549.5" y="-541"/>
<text text-anchor="start" x="2482" y="-506.8" font-family="Times New Roman,serif" font-weight="bold" font-size="14.00">query projects:Projects list</text>
<text text-anchor="start" x="2544.5" y="-492.8" font-family="Times New Roman,serif" font-weight="bold" font-size="14.00">screen</text>
</g>
<!-- EAID_90AB2E51_8721_413a_B930_D55FF6E40A3B___EAID_86480A8B_51F0_4fe1_A330_B5A6F6F5CAE7&#45;&gt;EAID_86480A8B_51F0_4fe1_A330_B5A6F6F5CAE7___EAID_80D013DD_D878_46a0_8DA8_BAD3FC4A72B5 -->
<g id="edge12" class="edge"><title>EAID_90AB2E51_8721_413a_B930_D55FF6E40A3B___EAID_86480A8B_51F0_4fe1_A330_B5A6F6F5CAE7&#45;&gt;EAID_86480A8B_51F0_4fe1_A330_B5A6F6F5CAE7___EAID_80D013DD_D878_46a0_8DA8_BAD3FC4A72B5</title>
<path fill="none" stroke="black" d="M2564,-482.992C2564,-474.859 2564,-465.959 2564,-457.378"/>
<polygon fill="black" stroke="black" points="2567.5,-457.142 2564,-447.142 2560.5,-457.142 2567.5,-457.142"/>
</g>
<!-- EAID_90AB2E51_8721_413a_B930_D55FF6E40A3B___EAID_86480A8B_51F0_4fe1_A330_B5A6F6F5CAE7&#45;&gt;EAID_80445D8E_0ED8_4028_8CF3_60CA7E370CB9 -->
<g id="edge25" class="edge"><title>EAID_90AB2E51_8721_413a_B930_D55FF6E40A3B___EAID_86480A8B_51F0_4fe1_A330_B5A6F6F5CAE7&#45;&gt;EAID_80445D8E_0ED8_4028_8CF3_60CA7E370CB9</title>
<path fill="none" stroke="black" stroke-dasharray="5,2" d="M2506.9,-482.883C2492.19,-472.878 2477.33,-460.765 2466,-447 2415.93,-386.158 2385.53,-344.32 2423,-275 2439.19,-245.051 2464.36,-220.188 2492.13,-199.933"/>
<polygon fill="black" stroke="black" points="2494.28,-202.701 2500.42,-194.069 2490.24,-196.985 2494.28,-202.701"/>
</g>
<!-- EAID_DC9A351A_F1A5_4e58_BFA4_21D8841D5693___EAID_90AB2E51_8721_413a_B930_D55FF6E40A3B&#45;&gt;EAID_90AB2E51_8721_413a_B930_D55FF6E40A3B___EAID_F89F6DC2_623A_4724_9B1E_37CAC734C40D -->
<g id="edge13" class="edge"><title>EAID_DC9A351A_F1A5_4e58_BFA4_21D8841D5693___EAID_90AB2E51_8721_413a_B930_D55FF6E40A3B&#45;&gt;EAID_90AB2E51_8721_413a_B930_D55FF6E40A3B___EAID_F89F6DC2_623A_4724_9B1E_37CAC734C40D</title>
<path fill="none" stroke="black" d="M2392.09,-582.992C2389.44,-572.623 2386.48,-561.006 2383.77,-550.395"/>
<polygon fill="black" stroke="black" points="2387.14,-549.428 2381.28,-540.603 2380.36,-551.158 2387.14,-549.428"/>
</g>
<!-- EAID_DC9A351A_F1A5_4e58_BFA4_21D8841D5693___EAID_90AB2E51_8721_413a_B930_D55FF6E40A3B&#45;&gt;EAID_90AB2E51_8721_413a_B930_D55FF6E40A3B___EAID_86480A8B_51F0_4fe1_A330_B5A6F6F5CAE7 -->
<g id="edge14" class="edge"><title>EAID_DC9A351A_F1A5_4e58_BFA4_21D8841D5693___EAID_90AB2E51_8721_413a_B930_D55FF6E40A3B&#45;&gt;EAID_90AB2E51_8721_413a_B930_D55FF6E40A3B___EAID_86480A8B_51F0_4fe1_A330_B5A6F6F5CAE7</title>
<path fill="none" stroke="black" d="M2451.89,-582.992C2468.19,-573.251 2486.34,-562.408 2503.2,-552.332"/>
<polygon fill="black" stroke="black" points="2505.1,-555.277 2511.88,-547.142 2501.5,-549.268 2505.1,-555.277"/>
</g>
<!-- EAID_DC9A351A_F1A5_4e58_BFA4_21D8841D5693___EAID_90AB2E51_8721_413a_B930_D55FF6E40A3B&#45;&gt;EAID_80445D8E_0ED8_4028_8CF3_60CA7E370CB9 -->
<g id="edge26" class="edge"><title>EAID_DC9A351A_F1A5_4e58_BFA4_21D8841D5693___EAID_90AB2E51_8721_413a_B930_D55FF6E40A3B&#45;&gt;EAID_80445D8E_0ED8_4028_8CF3_60CA7E370CB9</title>
<path fill="none" stroke="black" stroke-dasharray="5,2" d="M2323.49,-582.863C2309.29,-573.495 2296.33,-561.684 2288,-547 2240.32,-462.917 2312.31,-316.944 2365,-275 2386.74,-257.697 2400.86,-276.409 2427,-267 2471.44,-251.004 2516.29,-225.008 2553.93,-199.733"/>
<polygon fill="black" stroke="black" points="2556.04,-202.531 2562.35,-194.015 2552.11,-196.741 2556.04,-202.531"/>
</g>
<!-- EAID_57204BF0_8A75_4004_8476_5F9B67BE6E75___EAID_A0BBFAAD_9C4A_46a0_BA74_A25970869F28_STL -->
<g id="node13" class="node"><title>EAID_57204BF0_8A75_4004_8476_5F9B67BE6E75___EAID_A0BBFAAD_9C4A_46a0_BA74_A25970869F28_STL</title>
<image xlink:href="img/stimulus_icon.png" width="30px" height="20px" preserveAspectRatio="xMinYMin meet" x="2548.5" y="-1025.5"/>
<text text-anchor="start" x="2492" y="-991.3" font-family="Times New Roman,serif" font-weight="bold" font-size="14.00">stl#Actor:Project detail</text>
</g>
<!-- EAID_57204BF0_8A75_4004_8476_5F9B67BE6E75___EAID_A0BBFAAD_9C4A_46a0_BA74_A25970869F28_STL&#45;&gt;EAID_57204BF0_8A75_4004_8476_5F9B67BE6E75___EAID_A0BBFAAD_9C4A_46a0_BA74_A25970869F28 -->
<g id="edge1" class="edge"><title>EAID_57204BF0_8A75_4004_8476_5F9B67BE6E75___EAID_A0BBFAAD_9C4A_46a0_BA74_A25970869F28_STL&#45;&gt;EAID_57204BF0_8A75_4004_8476_5F9B67BE6E75___EAID_A0BBFAAD_9C4A_46a0_BA74_A25970869F28</title>
<path fill="none" stroke="black" d="M2570.47,-980.778C2573.85,-969.58 2577.91,-956.152 2581.58,-943.985"/>
<polygon fill="black" stroke="black" points="2585.02,-944.724 2584.56,-934.139 2578.31,-942.699 2585.02,-944.724"/>
</g>
<!-- EAID_57204BF0_8A75_4004_8476_5F9B67BE6E75___EAID_60BEB291_ADCD_4107_8101_F6C7A8E2F451_STL -->
<g id="node14" class="node"><title>EAID_57204BF0_8A75_4004_8476_5F9B67BE6E75___EAID_60BEB291_ADCD_4107_8101_F6C7A8E2F451_STL</title>
<image xlink:href="img/stimulus_icon.png" width="30px" height="20px" preserveAspectRatio="xMinYMin meet" x="2334.5" y="-1025.5"/>
<text text-anchor="start" x="2245" y="-991.3" font-family="Times New Roman,serif" font-weight="bold" font-size="14.00">stl#Actor:Selecting settings button</text>
</g>
<!-- EAID_57204BF0_8A75_4004_8476_5F9B67BE6E75___EAID_60BEB291_ADCD_4107_8101_F6C7A8E2F451_STL&#45;&gt;EAID_57204BF0_8A75_4004_8476_5F9B67BE6E75___EAID_60BEB291_ADCD_4107_8101_F6C7A8E2F451 -->
<g id="edge3" class="edge"><title>EAID_57204BF0_8A75_4004_8476_5F9B67BE6E75___EAID_60BEB291_ADCD_4107_8101_F6C7A8E2F451_STL&#45;&gt;EAID_57204BF0_8A75_4004_8476_5F9B67BE6E75___EAID_60BEB291_ADCD_4107_8101_F6C7A8E2F451</title>
<path fill="none" stroke="black" d="M2362.13,-980.778C2368.2,-969.356 2375.5,-955.614 2382.07,-943.257"/>
<polygon fill="black" stroke="black" points="2385.31,-944.612 2386.91,-934.139 2379.13,-941.328 2385.31,-944.612"/>
</g>
<!-- EAID_57204BF0_8A75_4004_8476_5F9B67BE6E75___EAID_86480A8B_51F0_4fe1_A330_B5A6F6F5CAE7_STL -->
<g id="node15" class="node"><title>EAID_57204BF0_8A75_4004_8476_5F9B67BE6E75___EAID_86480A8B_51F0_4fe1_A330_B5A6F6F5CAE7_STL</title>
<image xlink:href="img/stimulus_icon.png" width="30px" height="20px" preserveAspectRatio="xMinYMin meet" x="2993.5" y="-1025.5"/>
<text text-anchor="start" x="2920" y="-991.3" font-family="Times New Roman,serif" font-weight="bold" font-size="14.00">stl#Actor:Projects list screen</text>
</g>
<!-- EAID_57204BF0_8A75_4004_8476_5F9B67BE6E75___EAID_86480A8B_51F0_4fe1_A330_B5A6F6F5CAE7_STL&#45;&gt;EAID_57204BF0_8A75_4004_8476_5F9B67BE6E75___EAID_86480A8B_51F0_4fe1_A330_B5A6F6F5CAE7 -->
<g id="edge5" class="edge"><title>EAID_57204BF0_8A75_4004_8476_5F9B67BE6E75___EAID_86480A8B_51F0_4fe1_A330_B5A6F6F5CAE7_STL&#45;&gt;EAID_57204BF0_8A75_4004_8476_5F9B67BE6E75___EAID_86480A8B_51F0_4fe1_A330_B5A6F6F5CAE7</title>
<path fill="none" stroke="black" d="M2942.3,-980.874C2878.11,-952.048 2790,-897.615 2790,-816 2790,-816 2790,-816 2790,-714 2790,-656.158 2778.14,-589.738 2769.86,-550.407"/>
<polygon fill="black" stroke="black" points="2773.26,-549.577 2767.73,-540.537 2766.42,-551.049 2773.26,-549.577"/>
</g>
<!-- EAID_57204BF0_8A75_4004_8476_5F9B67BE6E75___EAID_DC9A351A_F1A5_4e58_BFA4_21D8841D5693_STL -->
<g id="node16" class="node"><title>EAID_57204BF0_8A75_4004_8476_5F9B67BE6E75___EAID_DC9A351A_F1A5_4e58_BFA4_21D8841D5693_STL</title>
<image xlink:href="img/stimulus_icon.png" width="30px" height="20px" preserveAspectRatio="xMinYMin meet" x="2762.5" y="-1025.5"/>
<text text-anchor="start" x="2673" y="-991.3" font-family="Times New Roman,serif" font-weight="bold" font-size="14.00">stl#Actor:dropdown settings menu</text>
</g>
<!-- EAID_57204BF0_8A75_4004_8476_5F9B67BE6E75___EAID_DC9A351A_F1A5_4e58_BFA4_21D8841D5693_STL&#45;&gt;EAID_57204BF0_8A75_4004_8476_5F9B67BE6E75___EAID_DC9A351A_F1A5_4e58_BFA4_21D8841D5693 -->
<g id="edge7" class="edge"><title>EAID_57204BF0_8A75_4004_8476_5F9B67BE6E75___EAID_DC9A351A_F1A5_4e58_BFA4_21D8841D5693_STL&#45;&gt;EAID_57204BF0_8A75_4004_8476_5F9B67BE6E75___EAID_DC9A351A_F1A5_4e58_BFA4_21D8841D5693</title>
<path fill="none" stroke="black" d="M2763.96,-980.817C2736.52,-928.9 2672.81,-808.351 2641.71,-749.513"/>
<polygon fill="black" stroke="black" points="2644.78,-747.826 2637.01,-740.62 2638.59,-751.097 2644.78,-747.826"/>
</g>
<!-- EAID_7E65FF88_83D9_4e72_9255_EA0E5A41D0B2 -->
<g id="node18" class="node"><title>EAID_7E65FF88_83D9_4e72_9255_EA0E5A41D0B2</title>
<polygon fill="none" stroke="black" points="2000,-147 2000,-168 2409,-168 2409,-147 2000,-147"/>
<text text-anchor="start" x="2165" y="-154.8" font-family="Times New Roman,serif" font-weight="bold" font-size="14.00">Meeting Log</text>
<polygon fill="none" stroke="black" points="2000,-126 2000,-147 2409,-147 2409,-126 2000,-126"/>
<text text-anchor="start" x="2003" y="-133.8" font-family="Times New Roman,serif" font-weight="bold" font-size="14.00">EAID_FDF84386_392A_47b9_AEB0_B17152B69BCF undefined</text>
<polygon fill="none" stroke="black" points="2000,-105 2000,-126 2409,-126 2409,-105 2000,-105"/>
<text text-anchor="start" x="2162.5" y="-112.8" font-family="Times New Roman,serif" font-weight="bold" font-size="14.00">MeetingLog()</text>
<polygon fill="none" stroke="black" points="2000,-84 2000,-105 2409,-105 2409,-84 2000,-84"/>
<text text-anchor="start" x="2167.5" y="-91.8" font-family="Times New Roman,serif" font-weight="bold" font-size="14.00">Loginpage()</text>
<polygon fill="none" stroke="black" points="1998.5,-83 1998.5,-169 2409.5,-169 2409.5,-83 1998.5,-83"/>
</g>
<!-- EAID_8AA0F4D1_CAA1_4d34_A2BD_4250BA9CCB27 -->
<g id="node20" class="node"><title>EAID_8AA0F4D1_CAA1_4d34_A2BD_4250BA9CCB27</title>
<polygon fill="none" stroke="black" points="1343,-189 1343,-210 1519,-210 1519,-189 1343,-189"/>
<text text-anchor="start" x="1350.5" y="-196.8" font-family="Times New Roman,serif" font-weight="bold" font-size="14.00">Meeting Minute Comment</text>
<polygon fill="none" stroke="black" points="1343,-168 1343,-189 1519,-189 1519,-168 1343,-168"/>
<text text-anchor="start" x="1349.5" y="-175.8" font-family="Times New Roman,serif" font-weight="bold" font-size="14.00">MeetingMinuteComment()</text>
<polygon fill="none" stroke="black" points="1343,-147 1343,-168 1519,-168 1519,-147 1343,-147"/>
<text text-anchor="start" x="1346" y="-154.8" font-family="Times New Roman,serif" font-weight="bold" font-size="14.00">submittedcommentsscreen()</text>
<polygon fill="none" stroke="black" points="1343,-126 1343,-147 1519,-147 1519,-126 1343,-126"/>
<text text-anchor="start" x="1381" y="-133.8" font-family="Times New Roman,serif" font-weight="bold" font-size="14.00">CommentView()</text>
<polygon fill="none" stroke="black" points="1343,-105 1343,-126 1519,-126 1519,-105 1343,-105"/>
<text text-anchor="start" x="1349.5" y="-112.8" font-family="Times New Roman,serif" font-weight="bold" font-size="14.00">Tasklistwithcommentbox()</text>
<polygon fill="none" stroke="black" points="1343,-84 1343,-105 1519,-105 1519,-84 1343,-84"/>
<text text-anchor="start" x="1350.5" y="-91.8" font-family="Times New Roman,serif" font-weight="bold" font-size="14.00">errorfortoolongcomment()</text>
<polygon fill="none" stroke="black" points="1343,-63 1343,-84 1519,-84 1519,-63 1343,-63"/>
<text text-anchor="start" x="1354" y="-70.8" font-family="Times New Roman,serif" font-weight="bold" font-size="14.00">opencommentinputpage()</text>
<polygon fill="none" stroke="black" points="1343,-42 1343,-63 1519,-63 1519,-42 1343,-42"/>
<text text-anchor="start" x="1360.5" y="-49.8" font-family="Times New Roman,serif" font-weight="bold" font-size="14.00">noavailablecomments()</text>
<polygon fill="none" stroke="black" points="1342,-41 1342,-211 1520,-211 1520,-41 1342,-41"/>
</g>
<!-- EAID_905D5DC7_566F_40c2_A927_E23E83C27975 -->
<g id="node22" class="node"><title>EAID_905D5DC7_566F_40c2_A927_E23E83C27975</title>
<polygon fill="none" stroke="black" points="689,-147 689,-168 852,-168 852,-147 689,-147"/>
<text text-anchor="start" x="713" y="-154.8" font-family="Times New Roman,serif" font-weight="bold" font-size="14.00">Status Notification</text>
<polygon fill="none" stroke="black" points="689,-126 689,-147 852,-147 852,-126 689,-126"/>
<text text-anchor="start" x="710.5" y="-133.8" font-family="Times New Roman,serif" font-weight="bold" font-size="14.00">StatusNotification()</text>
<polygon fill="none" stroke="black" points="689,-105 689,-126 852,-126 852,-105 689,-105"/>
<text text-anchor="start" x="692" y="-112.8" font-family="Times New Roman,serif" font-weight="bold" font-size="14.00">Updateacceptancestatus()</text>
<polygon fill="none" stroke="black" points="689,-84 689,-105 852,-105 852,-84 689,-84"/>
<text text-anchor="start" x="707" y="-91.8" font-family="Times New Roman,serif" font-weight="bold" font-size="14.00">Verifiesattendeelist()</text>
<polygon fill="none" stroke="black" points="687.5,-83 687.5,-169 852.5,-169 852.5,-83 687.5,-83"/>
</g>
<!-- EAID_EFF02F8D_2245_4876_8959_46CD3B88BAB0 -->
<g id="node23" class="node"><title>EAID_EFF02F8D_2245_4876_8959_46CD3B88BAB0</title>
<polygon fill="none" stroke="black" points="456,-168 456,-189 652,-189 652,-168 456,-168"/>
<text text-anchor="start" x="538" y="-175.8" font-family="Times New Roman,serif" font-weight="bold" font-size="14.00">Task</text>
<polygon fill="none" stroke="black" points="456,-147 456,-168 652,-168 652,-147 456,-147"/>
<text text-anchor="start" x="533.5" y="-154.8" font-family="Times New Roman,serif" font-weight="bold" font-size="14.00">Task()</text>
<polygon fill="none" stroke="black" points="456,-126 456,-147 652,-147 652,-126 456,-126"/>
<text text-anchor="start" x="489" y="-133.8" font-family="Times New Roman,serif" font-weight="bold" font-size="14.00">pendingtasksscreen()</text>
<polygon fill="none" stroke="black" points="456,-105 456,-126 652,-126 652,-105 456,-105"/>
<text text-anchor="start" x="508" y="-112.8" font-family="Times New Roman,serif" font-weight="bold" font-size="14.00">Querytasklist()</text>
<polygon fill="none" stroke="black" points="456,-84 456,-105 652,-105 652,-84 456,-84"/>
<text text-anchor="start" x="459" y="-91.8" font-family="Times New Roman,serif" font-weight="bold" font-size="14.00">querydetailoftaskandassignee()</text>
<polygon fill="none" stroke="black" points="456,-63 456,-84 652,-84 652,-63 456,-63"/>
<text text-anchor="start" x="474" y="-70.8" font-family="Times New Roman,serif" font-weight="bold" font-size="14.00">viewassignedtasksoption()</text>
<polygon fill="none" stroke="black" points="455,-62 455,-190 653,-190 653,-62 455,-62"/>
</g>
<!-- EAID_8CC61336_05C9_4a1f_A743_BF79C67F0640 -->
<g id="node24" class="node"><title>EAID_8CC61336_05C9_4a1f_A743_BF79C67F0640</title>
<polygon fill="none" stroke="black" points="225,-210 225,-231 420,-231 420,-210 225,-210"/>
<text text-anchor="start" x="295.5" y="-217.8" font-family="Times New Roman,serif" font-weight="bold" font-size="14.00">UserInfo</text>
<polygon fill="none" stroke="black" points="225,-189 225,-210 420,-210 420,-189 225,-189"/>
<text text-anchor="start" x="291" y="-196.8" font-family="Times New Roman,serif" font-weight="bold" font-size="14.00">UserInfo()</text>
<polygon fill="none" stroke="black" points="225,-168 225,-189 420,-189 420,-168 225,-168"/>
<text text-anchor="start" x="228" y="-175.8" font-family="Times New Roman,serif" font-weight="bold" font-size="14.00">Retrievecommentanduserinfo()</text>
<polygon fill="none" stroke="black" points="225,-147 225,-168 420,-168 420,-147 225,-147"/>
<text text-anchor="start" x="239" y="-154.8" font-family="Times New Roman,serif" font-weight="bold" font-size="14.00">verifyattendeeinformation()</text>
<polygon fill="none" stroke="black" points="225,-126 225,-147 420,-147 420,-126 225,-126"/>
<text text-anchor="start" x="247" y="-133.8" font-family="Times New Roman,serif" font-weight="bold" font-size="14.00">useralreadyexiststoasts()</text>
<polygon fill="none" stroke="black" points="225,-105 225,-126 420,-126 420,-105 225,-105"/>
<text text-anchor="start" x="258" y="-112.8" font-family="Times New Roman,serif" font-weight="bold" font-size="14.00">accountinformation()</text>
<polygon fill="none" stroke="black" points="225,-84 225,-105 420,-105 420,-84 225,-84"/>
<text text-anchor="start" x="256" y="-91.8" font-family="Times New Roman,serif" font-weight="bold" font-size="14.00">Verifydefaultuserlist()</text>
<polygon fill="none" stroke="black" points="225,-63 225,-84 420,-84 420,-63 225,-63"/>
<text text-anchor="start" x="249.5" y="-70.8" font-family="Times New Roman,serif" font-weight="bold" font-size="14.00">generaluserdashboard()</text>
<polygon fill="none" stroke="black" points="225,-42 225,-63 420,-63 420,-42 225,-42"/>
<text text-anchor="start" x="242" y="-49.8" font-family="Times New Roman,serif" font-weight="bold" font-size="14.00">Viewuserregistrationinfo()</text>
<polygon fill="none" stroke="black" points="225,-21 225,-42 420,-42 420,-21 225,-21"/>
<text text-anchor="start" x="246" y="-28.8" font-family="Times New Roman,serif" font-weight="bold" font-size="14.00">Userinfoalreadycreated()</text>
<polygon fill="none" stroke="black" points="223.5,-20 223.5,-232 420.5,-232 420.5,-20 223.5,-20"/>
</g>
<!-- EAID_69E671CF_1CBB_46ad_81AE_28DBEF452C35 -->
<g id="node25" class="node"><title>EAID_69E671CF_1CBB_46ad_81AE_28DBEF452C35</title>
<polygon fill="none" stroke="black" points="26,-168 26,-189 189,-189 189,-168 26,-168"/>
<text text-anchor="start" x="42.5" y="-175.8" font-family="Times New Roman,serif" font-weight="bold" font-size="14.00">approvesignupscreen</text>
<polygon fill="none" stroke="black" points="26,-147 26,-168 189,-168 189,-147 26,-147"/>
<text text-anchor="start" x="38" y="-154.8" font-family="Times New Roman,serif" font-weight="bold" font-size="14.00">approvesignupscreen()</text>
<polygon fill="none" stroke="black" points="26,-126 26,-147 189,-147 189,-126 26,-126"/>
<text text-anchor="start" x="60.5" y="-133.8" font-family="Times New Roman,serif" font-weight="bold" font-size="14.00">signuprequest()</text>
<polygon fill="none" stroke="black" points="26,-105 26,-126 189,-126 189,-105 26,-105"/>
<text text-anchor="start" x="68" y="-112.8" font-family="Times New Roman,serif" font-weight="bold" font-size="14.00">signuppage()</text>
<polygon fill="none" stroke="black" points="26,-84 26,-105 189,-105 189,-84 26,-84"/>
<text text-anchor="start" x="29" y="-91.8" font-family="Times New Roman,serif" font-weight="bold" font-size="14.00">approveuserregistration()</text>
<polygon fill="none" stroke="black" points="26,-63 26,-84 189,-84 189,-63 26,-63"/>
<text text-anchor="start" x="75.5" y="-70.8" font-family="Times New Roman,serif" font-weight="bold" font-size="14.00">Assignee()</text>
<polygon fill="none" stroke="black" points="24.5,-62 24.5,-190 189.5,-190 189.5,-62 24.5,-62"/>
</g>
</g>
</svg>
