<?xml version="1.0" encoding="UTF-8" standalone="no"?>
<!DOCTYPE svg PUBLIC "-//W3C//DTD SVG 1.1//EN"
 "http://www.w3.org/Graphics/SVG/1.1/DTD/svg11.dtd">
<!-- Generated by graphviz version 2.38.0 (20140413.2041)
 -->
<!-- Title: g Pages: 1 -->
<svg width="830pt" height="325pt"
 viewBox="0.00 0.00 830.00 325.00" xmlns="http://www.w3.org/2000/svg" xmlns:xlink="http://www.w3.org/1999/xlink">
<g id="graph0" class="graph" transform="scale(1 1) rotate(0) translate(4 321)">
<title>g</title>
<polygon fill="white" stroke="none" points="-4,4 -4,-321 826,-321 826,4 -4,4"/>
<!-- EAID_CD3B5B3D_76CF_49ce_BF14_48CF38AC1221 -->
<g id="node1" class="node"><title>EAID_CD3B5B3D_76CF_49ce_BF14_48CF38AC1221</title>
<image xlink:href="img/actor1.png" width="61px" height="90px" preserveAspectRatio="xMinYMin meet" x="10.5" y="-218.5"/>
<text text-anchor="start" x="19" y="-105.3" font-family="Times New Roman,serif" font-size="24.00">User</text>
</g>
<!-- EAID_8853BFC1_3403_4ab7_940E_62E6F356C483 -->
<g id="node2" class="node"><title>EAID_8853BFC1_3403_4ab7_940E_62E6F356C483</title>
<image xlink:href="img/boundary3.png" width="115px" height="67px" preserveAspectRatio="xMinYMin meet" x="628.5" y="-310.5"/>
<text text-anchor="start" x="559.5" y="-220.3" font-family="Times New Roman,serif" font-size="24.00">Successfully input message</text>
</g>
<!-- EAID_CD3B5B3D_76CF_49ce_BF14_48CF38AC1221&#45;&gt;EAID_8853BFC1_3403_4ab7_940E_62E6F356C483 -->
<g id="edge1" class="edge"><title>EAID_CD3B5B3D_76CF_49ce_BF14_48CF38AC1221&#45;&gt;EAID_8853BFC1_3403_4ab7_940E_62E6F356C483</title>
<path fill="none" stroke="black" d="M81.1321,-199.312C91.9111,-208.115 104.178,-216.323 117,-221.5 252.395,-276.169 420.638,-281.375 538.656,-276.011"/>
<polygon fill="black" stroke="black" points="539.026,-279.498 548.845,-275.516 538.687,-272.506 539.026,-279.498"/>
</g>
<!-- EAID_47395D15_FDE3_4878_81F6_9CC1A0D1352D -->
<g id="node3" class="node"><title>EAID_47395D15_FDE3_4878_81F6_9CC1A0D1352D</title>
<image xlink:href="img/boundary3.png" width="115px" height="67px" preserveAspectRatio="xMinYMin meet" x="151.5" y="-206.5"/>
<text text-anchor="start" x="127.5" y="-116.3" font-family="Times New Roman,serif" font-size="24.00">Project info page</text>
</g>
<!-- EAID_CD3B5B3D_76CF_49ce_BF14_48CF38AC1221&#45;&gt;EAID_47395D15_FDE3_4878_81F6_9CC1A0D1352D -->
<g id="edge2" class="edge"><title>EAID_CD3B5B3D_76CF_49ce_BF14_48CF38AC1221&#45;&gt;EAID_47395D15_FDE3_4878_81F6_9CC1A0D1352D</title>
<path fill="none" stroke="black" d="M81.2611,-158.5C89.1361,-158.5 97.7315,-158.5 106.614,-158.5"/>
<polygon fill="black" stroke="black" points="106.741,-162 116.741,-158.5 106.741,-155 106.741,-162"/>
</g>
<!-- EAID_79A67C93_8802_4710_B26B_0B86261D70DC -->
<g id="node4" class="node"><title>EAID_79A67C93_8802_4710_B26B_0B86261D70DC</title>
<image xlink:href="img/boundary3.png" width="115px" height="67px" preserveAspectRatio="xMinYMin meet" x="628" y="-102.5"/>
<text text-anchor="start" x="605.5" y="-12.3" font-family="Times New Roman,serif" font-size="24.00">search results list</text>
</g>
<!-- EAID_CD3B5B3D_76CF_49ce_BF14_48CF38AC1221&#45;&gt;EAID_79A67C93_8802_4710_B26B_0B86261D70DC -->
<g id="edge3" class="edge"><title>EAID_CD3B5B3D_76CF_49ce_BF14_48CF38AC1221&#45;&gt;EAID_79A67C93_8802_4710_B26B_0B86261D70DC</title>
<path fill="none" stroke="black" d="M81.0364,-117.027C91.8178,-108.085 104.11,-99.7499 117,-94.5 271.212,-31.6943 468.425,-34.2618 585.126,-43.338"/>
<polygon fill="black" stroke="black" points="584.872,-46.8288 595.121,-44.1467 585.436,-39.8515 584.872,-46.8288"/>
</g>
<!-- EAID_7F12DCC5_01E0_4dc3_B557_0C18087B0D30 -->
<g id="node5" class="node"><title>EAID_7F12DCC5_01E0_4dc3_B557_0C18087B0D30</title>
<image xlink:href="img/control1.png" width="106px" height="75px" preserveAspectRatio="xMinYMin meet" x="372" y="-210.5"/>
<text text-anchor="start" x="346.5" y="-112.3" font-family="Times New Roman,serif" font-size="24.00">save project info</text>
</g>
<!-- EAID_47395D15_FDE3_4878_81F6_9CC1A0D1352D&#45;&gt;EAID_7F12DCC5_01E0_4dc3_B557_0C18087B0D30 -->
<g id="edge5" class="edge"><title>EAID_47395D15_FDE3_4878_81F6_9CC1A0D1352D&#45;&gt;EAID_7F12DCC5_01E0_4dc3_B557_0C18087B0D30</title>
<path fill="none" stroke="black" d="M300.255,-158.5C308.597,-158.5 317.074,-158.5 325.476,-158.5"/>
<polygon fill="black" stroke="black" points="325.674,-162 335.674,-158.5 325.674,-155 325.674,-162"/>
</g>
<!-- EAID_7F12DCC5_01E0_4dc3_B557_0C18087B0D30&#45;&gt;EAID_8853BFC1_3403_4ab7_940E_62E6F356C483 -->
<g id="edge6" class="edge"><title>EAID_7F12DCC5_01E0_4dc3_B557_0C18087B0D30&#45;&gt;EAID_8853BFC1_3403_4ab7_940E_62E6F356C483</title>
<path fill="none" stroke="black" d="M513.186,-193.71C521.592,-197.085 530.261,-200.566 539.03,-204.087"/>
<polygon fill="black" stroke="black" points="537.992,-207.442 548.576,-207.921 540.601,-200.946 537.992,-207.442"/>
</g>
<!-- EAID_7F12DCC5_01E0_4dc3_B557_0C18087B0D30&#45;&gt;EAID_79A67C93_8802_4710_B26B_0B86261D70DC -->
<g id="edge7" class="edge"><title>EAID_7F12DCC5_01E0_4dc3_B557_0C18087B0D30&#45;&gt;EAID_79A67C93_8802_4710_B26B_0B86261D70DC</title>
<path fill="none" stroke="black" d="M513.186,-123.29C536.506,-113.926 561.852,-103.748 585.721,-94.1641"/>
<polygon fill="black" stroke="black" points="587.165,-97.3562 595.14,-90.3819 584.556,-90.8603 587.165,-97.3562"/>
</g>
<!-- EAID_00C258CB_3FE3_435a_946C_EBA1BF2F96B6 -->
<g id="node6" class="node"><title>EAID_00C258CB_3FE3_435a_946C_EBA1BF2F96B6</title>
<image xlink:href="img/activity_icon.png" width="30px" height="20px" preserveAspectRatio="xMinYMin meet" x="671" y="-183.5"/>
<text text-anchor="start" x="624.5" y="-141.3" font-family="Times New Roman,serif" font-weight="bold" font-size="24.00">Project info</text>
</g>
<!-- EAID_7F12DCC5_01E0_4dc3_B557_0C18087B0D30&#45;&gt;EAID_00C258CB_3FE3_435a_946C_EBA1BF2F96B6 -->
<g id="edge4" class="edge"><title>EAID_7F12DCC5_01E0_4dc3_B557_0C18087B0D30&#45;&gt;EAID_00C258CB_3FE3_435a_946C_EBA1BF2F96B6</title>
<path fill="none" stroke="black" d="M513.186,-158.5C542.332,-158.5 574.645,-158.5 603.281,-158.5"/>
<polygon fill="black" stroke="black" points="603.652,-162 613.652,-158.5 603.652,-155 603.652,-162"/>
</g>
</g>
</svg>
