<?xml version="1.0" encoding="UTF-8" standalone="no"?>
<!DOCTYPE svg PUBLIC "-//W3C//DTD SVG 1.1//EN"
 "http://www.w3.org/Graphics/SVG/1.1/DTD/svg11.dtd">
<!-- Generated by graphviz version 2.38.0 (20140413.2041)
 -->
<!-- Title: g Pages: 1 -->
<svg width="2154pt" height="679pt"
 viewBox="0.00 0.00 2154.00 679.00" xmlns="http://www.w3.org/2000/svg" xmlns:xlink="http://www.w3.org/1999/xlink">
<g id="graph0" class="graph" transform="scale(1 1) rotate(0) translate(4 675)">
<title>g</title>
<polygon fill="white" stroke="none" points="-4,4 -4,-675 2150,-675 2150,4 -4,4"/>
<g id="clust1" class="cluster"><title>cluster0</title>
<polygon fill="none" stroke="black" stroke-width="2" points="1374,-275 1374,-565 1964,-565 1964,-275 1374,-275"/>
<text text-anchor="start" x="1647" y="-550.8" font-family="Times New Roman,serif" font-weight="bold" font-size="14.00">System</text>
</g>
<g id="clust3" class="cluster"><title>cluster1000</title>
<polygon fill="none" stroke="black" stroke-width="2" points="8,-8 8,-267 1812,-267 1812,-8 8,-8"/>
<text text-anchor="start" x="864.5" y="-252.8" font-family="Times New Roman,serif" font-weight="bold" font-size="14.00">Domain Model</text>
</g>
<g id="clust2" class="cluster"><title>cluster1</title>
<polygon fill="none" stroke="black" stroke-width="2" points="1341,-573 1341,-663 1995,-663 1995,-573 1341,-573"/>
<text text-anchor="start" x="1653.5" y="-648.8" font-family="Times New Roman,serif" font-weight="bold" font-size="14.00">User</text>
</g>
<!-- EAID_CD3B5B3D_76CF_49ce_BF14_48CF38AC1221___EAID_8853BFC1_3403_4ab7_940E_62E6F356C483 -->
<g id="node1" class="node"><title>EAID_CD3B5B3D_76CF_49ce_BF14_48CF38AC1221___EAID_8853BFC1_3403_4ab7_940E_62E6F356C483</title>
<image xlink:href="img/activity_icon.png" width="30px" height="20px" preserveAspectRatio="xMinYMin meet" x="1476.5" y="-527.5"/>
<text text-anchor="start" x="1393" y="-493.3" font-family="Times New Roman,serif" font-weight="bold" font-size="14.00">User:Successfully input message</text>
</g>
<!-- EAID_E7A3FC56_83D3_46d3_B8CE_409BCF3C618D -->
<g id="node17" class="node"><title>EAID_E7A3FC56_83D3_46d3_B8CE_409BCF3C618D</title>
<polygon fill="none" stroke="black" points="177,-136 177,-157 383,-157 383,-136 177,-136"/>
<text text-anchor="start" x="231" y="-143.8" font-family="Times New Roman,serif" font-weight="bold" font-size="14.00">successmessage</text>
<polygon fill="none" stroke="black" points="177,-115 177,-136 383,-136 383,-115 177,-115"/>
<text text-anchor="start" x="226.5" y="-122.8" font-family="Times New Roman,serif" font-weight="bold" font-size="14.00">successmessage()</text>
<polygon fill="none" stroke="black" points="177,-94 177,-115 383,-115 383,-94 177,-94"/>
<text text-anchor="start" x="180" y="-101.8" font-family="Times New Roman,serif" font-weight="bold" font-size="14.00">projecthasbeencreatedmessage()</text>
<polygon fill="none" stroke="black" points="176,-93.5 176,-158.5 384,-158.5 384,-93.5 176,-93.5"/>
</g>
<!-- EAID_CD3B5B3D_76CF_49ce_BF14_48CF38AC1221___EAID_8853BFC1_3403_4ab7_940E_62E6F356C483&#45;&gt;EAID_E7A3FC56_83D3_46d3_B8CE_409BCF3C618D -->
<g id="edge8" class="edge"><title>EAID_CD3B5B3D_76CF_49ce_BF14_48CF38AC1221___EAID_8853BFC1_3403_4ab7_940E_62E6F356C483&#45;&gt;EAID_E7A3FC56_83D3_46d3_B8CE_409BCF3C618D</title>
<path fill="none" stroke="black" stroke-dasharray="5,2" d="M1382.22,-505.71C1176.28,-497.756 721.417,-458.03 401,-267 361.653,-243.542 328.598,-202.78 307.033,-171.27"/>
<polygon fill="black" stroke="black" points="309.733,-169.011 301.26,-162.65 303.917,-172.906 309.733,-169.011"/>
</g>
<!-- EAID_CD3B5B3D_76CF_49ce_BF14_48CF38AC1221___EAID_47395D15_FDE3_4878_81F6_9CC1A0D1352D -->
<g id="node2" class="node"><title>EAID_CD3B5B3D_76CF_49ce_BF14_48CF38AC1221___EAID_47395D15_FDE3_4878_81F6_9CC1A0D1352D</title>
<image xlink:href="img/activity_icon.png" width="30px" height="20px" preserveAspectRatio="xMinYMin meet" x="1682" y="-527.5"/>
<text text-anchor="start" x="1628" y="-493.3" font-family="Times New Roman,serif" font-weight="bold" font-size="14.00">User:Project info page</text>
</g>
<!-- EAID_47395D15_FDE3_4878_81F6_9CC1A0D1352D___EAID_7F12DCC5_01E0_4dc3_B557_0C18087B0D30 -->
<g id="node5" class="node"><title>EAID_47395D15_FDE3_4878_81F6_9CC1A0D1352D___EAID_7F12DCC5_01E0_4dc3_B557_0C18087B0D30</title>
<image xlink:href="img/activity_icon.png" width="30px" height="20px" preserveAspectRatio="xMinYMin meet" x="1671" y="-441"/>
<text text-anchor="start" x="1618" y="-406.8" font-family="Times New Roman,serif" font-weight="bold" font-size="14.00">Project info page:save</text>
<text text-anchor="start" x="1650.5" y="-392.8" font-family="Times New Roman,serif" font-weight="bold" font-size="14.00">project info</text>
</g>
<!-- EAID_CD3B5B3D_76CF_49ce_BF14_48CF38AC1221___EAID_47395D15_FDE3_4878_81F6_9CC1A0D1352D&#45;&gt;EAID_47395D15_FDE3_4878_81F6_9CC1A0D1352D___EAID_7F12DCC5_01E0_4dc3_B557_0C18087B0D30 -->
<g id="edge2" class="edge"><title>EAID_CD3B5B3D_76CF_49ce_BF14_48CF38AC1221___EAID_47395D15_FDE3_4878_81F6_9CC1A0D1352D&#45;&gt;EAID_47395D15_FDE3_4878_81F6_9CC1A0D1352D___EAID_7F12DCC5_01E0_4dc3_B557_0C18087B0D30</title>
<path fill="none" stroke="black" d="M1694.05,-482.98C1693.1,-475.066 1692.02,-466.063 1690.96,-457.281"/>
<polygon fill="black" stroke="black" points="1694.41,-456.664 1689.75,-447.153 1687.46,-457.5 1694.41,-456.664"/>
</g>
<!-- EAID_97376CA8_FE65_4f28_88ED_3CCCEC8D46FB -->
<g id="node12" class="node"><title>EAID_97376CA8_FE65_4f28_88ED_3CCCEC8D46FB</title>
<polygon fill="none" stroke="black" points="1315,-210 1315,-231 1547,-231 1547,-210 1315,-210"/>
<text text-anchor="start" x="1361.5" y="-217.8" font-family="Times New Roman,serif" font-weight="bold" font-size="14.00">Product Configuration</text>
<polygon fill="none" stroke="black" points="1315,-189 1315,-210 1547,-210 1547,-189 1315,-189"/>
<text text-anchor="start" x="1359" y="-196.8" font-family="Times New Roman,serif" font-weight="bold" font-size="14.00">EAJava_float TotalFee</text>
<polygon fill="none" stroke="black" points="1315,-168 1315,-189 1547,-189 1547,-168 1315,-168"/>
<text text-anchor="start" x="1373" y="-175.8" font-family="Times New Roman,serif" font-weight="bold" font-size="14.00">EAJava_date Date</text>
<polygon fill="none" stroke="black" points="1315,-147 1315,-168 1547,-168 1547,-147 1315,-147"/>
<text text-anchor="start" x="1370.5" y="-154.8" font-family="Times New Roman,serif" font-weight="bold" font-size="14.00">EAJava_int UserID</text>
<polygon fill="none" stroke="black" points="1315,-126 1315,-147 1547,-147 1547,-126 1315,-126"/>
<text text-anchor="start" x="1318" y="-133.8" font-family="Times New Roman,serif" font-weight="bold" font-size="14.00">EAJava_int ProductConfigurationID</text>
<polygon fill="none" stroke="black" points="1315,-105 1315,-126 1547,-126 1547,-105 1315,-105"/>
<text text-anchor="start" x="1331.5" y="-112.8" font-family="Times New Roman,serif" font-weight="bold" font-size="14.00">EAJava_string Purchasing Type</text>
<polygon fill="none" stroke="black" points="1315,-84 1315,-105 1547,-105 1547,-84 1315,-84"/>
<text text-anchor="start" x="1368" y="-91.8" font-family="Times New Roman,serif" font-weight="bold" font-size="14.00">EAJava_int FormID</text>
<polygon fill="none" stroke="black" points="1315,-63 1315,-84 1547,-84 1547,-63 1315,-63"/>
<text text-anchor="start" x="1359" y="-70.8" font-family="Times New Roman,serif" font-weight="bold" font-size="14.00">ProductConfiguration()</text>
<polygon fill="none" stroke="black" points="1315,-42 1315,-63 1547,-63 1547,-42 1315,-42"/>
<text text-anchor="start" x="1356" y="-49.8" font-family="Times New Roman,serif" font-weight="bold" font-size="14.00">projectdescriptionpage()</text>
<polygon fill="none" stroke="black" points="1315,-21 1315,-42 1547,-42 1547,-21 1315,-21"/>
<text text-anchor="start" x="1392" y="-28.8" font-family="Times New Roman,serif" font-weight="bold" font-size="14.00">Projectinfo()</text>
<polygon fill="none" stroke="black" points="1314,-20 1314,-232 1548,-232 1548,-20 1314,-20"/>
</g>
<!-- EAID_CD3B5B3D_76CF_49ce_BF14_48CF38AC1221___EAID_47395D15_FDE3_4878_81F6_9CC1A0D1352D&#45;&gt;EAID_97376CA8_FE65_4f28_88ED_3CCCEC8D46FB -->
<g id="edge9" class="edge"><title>EAID_CD3B5B3D_76CF_49ce_BF14_48CF38AC1221___EAID_47395D15_FDE3_4878_81F6_9CC1A0D1352D&#45;&gt;EAID_97376CA8_FE65_4f28_88ED_3CCCEC8D46FB</title>
<path fill="none" stroke="black" stroke-dasharray="5,2" d="M1620.58,-482.945C1528.09,-451.503 1380.88,-395.305 1350,-347 1330.31,-316.203 1334.41,-279.939 1348.02,-245.834"/>
<polygon fill="black" stroke="black" points="1351.39,-246.849 1352.1,-236.278 1344.95,-244.1 1351.39,-246.849"/>
</g>
<!-- EAID_CD3B5B3D_76CF_49ce_BF14_48CF38AC1221___EAID_79A67C93_8802_4710_B26B_0B86261D70DC -->
<g id="node3" class="node"><title>EAID_CD3B5B3D_76CF_49ce_BF14_48CF38AC1221___EAID_79A67C93_8802_4710_B26B_0B86261D70DC</title>
<image xlink:href="img/activity_icon.png" width="30px" height="20px" preserveAspectRatio="xMinYMin meet" x="1861.5" y="-527.5"/>
<text text-anchor="start" x="1807" y="-493.3" font-family="Times New Roman,serif" font-weight="bold" font-size="14.00">User:search results list</text>
</g>
<!-- EAID_79A67C93_8802_4710_B26B_0B86261D70DC -->
<g id="node19" class="node"><title>EAID_79A67C93_8802_4710_B26B_0B86261D70DC</title>
<text text-anchor="middle" x="1984" y="-122.3" font-family="Times New Roman,serif" font-size="14.00">EAID_79A67C93_8802_4710_B26B_0B86261D70DC</text>
</g>
<!-- EAID_CD3B5B3D_76CF_49ce_BF14_48CF38AC1221___EAID_79A67C93_8802_4710_B26B_0B86261D70DC&#45;&gt;EAID_79A67C93_8802_4710_B26B_0B86261D70DC -->
<g id="edge10" class="edge"><title>EAID_CD3B5B3D_76CF_49ce_BF14_48CF38AC1221___EAID_79A67C93_8802_4710_B26B_0B86261D70DC&#45;&gt;EAID_79A67C93_8802_4710_B26B_0B86261D70DC</title>
<path fill="none" stroke="black" stroke-dasharray="5,2" d="M1894.03,-482.87C1915.13,-452.584 1949.19,-398.806 1965,-347 1985.49,-279.876 1986.39,-196.253 1985.24,-154.052"/>
<polygon fill="black" stroke="black" points="1988.74,-153.889 1984.91,-144.011 1981.74,-154.122 1988.74,-153.889"/>
</g>
<!-- EAID_7F12DCC5_01E0_4dc3_B557_0C18087B0D30___EAID_00C258CB_3FE3_435a_946C_EBA1BF2F96B6 -->
<g id="node4" class="node"><title>EAID_7F12DCC5_01E0_4dc3_B557_0C18087B0D30___EAID_00C258CB_3FE3_435a_946C_EBA1BF2F96B6</title>
<image xlink:href="img/activity_icon.png" width="30px" height="20px" preserveAspectRatio="xMinYMin meet" x="1671.5" y="-341"/>
<text text-anchor="start" x="1611" y="-306.8" font-family="Times New Roman,serif" font-weight="bold" font-size="14.00">save project info:Project</text>
<text text-anchor="start" x="1674.5" y="-292.8" font-family="Times New Roman,serif" font-weight="bold" font-size="14.00">info</text>
</g>
<!-- EAID_7F12DCC5_01E0_4dc3_B557_0C18087B0D30___EAID_00C258CB_3FE3_435a_946C_EBA1BF2F96B6&#45;&gt;EAID_97376CA8_FE65_4f28_88ED_3CCCEC8D46FB -->
<g id="edge11" class="edge"><title>EAID_7F12DCC5_01E0_4dc3_B557_0C18087B0D30___EAID_00C258CB_3FE3_435a_946C_EBA1BF2F96B6&#45;&gt;EAID_97376CA8_FE65_4f28_88ED_3CCCEC8D46FB</title>
<path fill="none" stroke="black" stroke-dasharray="5,2" d="M1612.35,-282.998C1605.17,-280.207 1597.97,-277.495 1591,-275 1579.62,-270.922 1575.29,-273.349 1565,-267 1553.6,-259.962 1542.5,-251.725 1531.88,-242.832"/>
<polygon fill="black" stroke="black" points="1534.1,-240.126 1524.24,-236.249 1529.53,-245.428 1534.1,-240.126"/>
</g>
<!-- EAID_47395D15_FDE3_4878_81F6_9CC1A0D1352D___EAID_7F12DCC5_01E0_4dc3_B557_0C18087B0D30&#45;&gt;EAID_7F12DCC5_01E0_4dc3_B557_0C18087B0D30___EAID_00C258CB_3FE3_435a_946C_EBA1BF2F96B6 -->
<g id="edge5" class="edge"><title>EAID_47395D15_FDE3_4878_81F6_9CC1A0D1352D___EAID_7F12DCC5_01E0_4dc3_B557_0C18087B0D30&#45;&gt;EAID_7F12DCC5_01E0_4dc3_B557_0C18087B0D30___EAID_00C258CB_3FE3_435a_946C_EBA1BF2F96B6</title>
<path fill="none" stroke="black" d="M1686,-382.992C1686,-374.859 1686,-365.959 1686,-357.378"/>
<polygon fill="black" stroke="black" points="1689.5,-357.142 1686,-347.142 1682.5,-357.142 1689.5,-357.142"/>
</g>
<!-- EAID_7F12DCC5_01E0_4dc3_B557_0C18087B0D30___EAID_8853BFC1_3403_4ab7_940E_62E6F356C483 -->
<g id="node6" class="node"><title>EAID_7F12DCC5_01E0_4dc3_B557_0C18087B0D30___EAID_8853BFC1_3403_4ab7_940E_62E6F356C483</title>
<image xlink:href="img/activity_icon.png" width="30px" height="20px" preserveAspectRatio="xMinYMin meet" x="1467" y="-341"/>
<text text-anchor="start" x="1392" y="-306.8" font-family="Times New Roman,serif" font-weight="bold" font-size="14.00">save project info:Successfully</text>
<text text-anchor="start" x="1438.5" y="-292.8" font-family="Times New Roman,serif" font-weight="bold" font-size="14.00">input message</text>
</g>
<!-- EAID_47395D15_FDE3_4878_81F6_9CC1A0D1352D___EAID_7F12DCC5_01E0_4dc3_B557_0C18087B0D30&#45;&gt;EAID_7F12DCC5_01E0_4dc3_B557_0C18087B0D30___EAID_8853BFC1_3403_4ab7_940E_62E6F356C483 -->
<g id="edge6" class="edge"><title>EAID_47395D15_FDE3_4878_81F6_9CC1A0D1352D___EAID_7F12DCC5_01E0_4dc3_B557_0C18087B0D30&#45;&gt;EAID_7F12DCC5_01E0_4dc3_B557_0C18087B0D30___EAID_8853BFC1_3403_4ab7_940E_62E6F356C483</title>
<path fill="none" stroke="black" d="M1621.45,-382.992C1600.62,-372.983 1577.36,-361.81 1555.9,-351.501"/>
<polygon fill="black" stroke="black" points="1557.36,-348.318 1546.83,-347.142 1554.33,-354.628 1557.36,-348.318"/>
</g>
<!-- EAID_7F12DCC5_01E0_4dc3_B557_0C18087B0D30___EAID_79A67C93_8802_4710_B26B_0B86261D70DC -->
<g id="node7" class="node"><title>EAID_7F12DCC5_01E0_4dc3_B557_0C18087B0D30___EAID_79A67C93_8802_4710_B26B_0B86261D70DC</title>
<image xlink:href="img/activity_icon.png" width="30px" height="20px" preserveAspectRatio="xMinYMin meet" x="1858" y="-341"/>
<text text-anchor="start" x="1800" y="-306.8" font-family="Times New Roman,serif" font-weight="bold" font-size="14.00">save project info:search</text>
<text text-anchor="start" x="1841.5" y="-292.8" font-family="Times New Roman,serif" font-weight="bold" font-size="14.00">results list</text>
</g>
<!-- EAID_47395D15_FDE3_4878_81F6_9CC1A0D1352D___EAID_7F12DCC5_01E0_4dc3_B557_0C18087B0D30&#45;&gt;EAID_7F12DCC5_01E0_4dc3_B557_0C18087B0D30___EAID_79A67C93_8802_4710_B26B_0B86261D70DC -->
<g id="edge7" class="edge"><title>EAID_47395D15_FDE3_4878_81F6_9CC1A0D1352D___EAID_7F12DCC5_01E0_4dc3_B557_0C18087B0D30&#45;&gt;EAID_7F12DCC5_01E0_4dc3_B557_0C18087B0D30___EAID_79A67C93_8802_4710_B26B_0B86261D70DC</title>
<path fill="none" stroke="black" d="M1745.17,-382.992C1764.01,-373.117 1785.02,-362.109 1804.47,-351.916"/>
<polygon fill="black" stroke="black" points="1806.34,-354.884 1813.58,-347.142 1803.09,-348.684 1806.34,-354.884"/>
</g>
<!-- EAID_47395D15_FDE3_4878_81F6_9CC1A0D1352D___EAID_7F12DCC5_01E0_4dc3_B557_0C18087B0D30&#45;&gt;EAID_97376CA8_FE65_4f28_88ED_3CCCEC8D46FB -->
<g id="edge12" class="edge"><title>EAID_47395D15_FDE3_4878_81F6_9CC1A0D1352D___EAID_7F12DCC5_01E0_4dc3_B557_0C18087B0D30&#45;&gt;EAID_97376CA8_FE65_4f28_88ED_3CCCEC8D46FB</title>
<path fill="none" stroke="black" stroke-dasharray="5,2" d="M1607.9,-408.278C1525,-400.39 1402,-382.866 1373,-347 1349.75,-318.241 1351.26,-281.089 1362.54,-245.53"/>
<polygon fill="black" stroke="black" points="1365.86,-246.637 1365.78,-236.043 1359.23,-244.371 1365.86,-246.637"/>
</g>
<!-- EAID_7F12DCC5_01E0_4dc3_B557_0C18087B0D30___EAID_8853BFC1_3403_4ab7_940E_62E6F356C483&#45;&gt;EAID_E7A3FC56_83D3_46d3_B8CE_409BCF3C618D -->
<g id="edge13" class="edge"><title>EAID_7F12DCC5_01E0_4dc3_B557_0C18087B0D30___EAID_8853BFC1_3403_4ab7_940E_62E6F356C483&#45;&gt;EAID_E7A3FC56_83D3_46d3_B8CE_409BCF3C618D</title>
<path fill="none" stroke="black" stroke-dasharray="5,2" d="M1381.93,-307.199C1247.9,-298.35 1002.66,-283.071 793,-275 771.234,-274.162 420.715,-276.263 401,-267 358.561,-247.06 325.182,-204.349 304.327,-171.313"/>
<polygon fill="black" stroke="black" points="307.258,-169.397 299.039,-162.712 301.295,-173.064 307.258,-169.397"/>
</g>
<!-- EAID_7F12DCC5_01E0_4dc3_B557_0C18087B0D30___EAID_79A67C93_8802_4710_B26B_0B86261D70DC&#45;&gt;EAID_79A67C93_8802_4710_B26B_0B86261D70DC -->
<g id="edge14" class="edge"><title>EAID_7F12DCC5_01E0_4dc3_B557_0C18087B0D30___EAID_79A67C93_8802_4710_B26B_0B86261D70DC&#45;&gt;EAID_79A67C93_8802_4710_B26B_0B86261D70DC</title>
<path fill="none" stroke="black" stroke-dasharray="5,2" d="M1891.58,-282.7C1913.13,-246.396 1948.27,-187.194 1968.44,-153.211"/>
<polygon fill="black" stroke="black" points="1971.62,-154.72 1973.71,-144.334 1965.6,-151.147 1971.62,-154.72"/>
</g>
<!-- EAID_CD3B5B3D_76CF_49ce_BF14_48CF38AC1221___EAID_8853BFC1_3403_4ab7_940E_62E6F356C483_STL -->
<g id="node8" class="node"><title>EAID_CD3B5B3D_76CF_49ce_BF14_48CF38AC1221___EAID_8853BFC1_3403_4ab7_940E_62E6F356C483_STL</title>
<image xlink:href="img/stimulus_icon.png" width="30px" height="20px" preserveAspectRatio="xMinYMin meet" x="1454.5" y="-625.5"/>
<text text-anchor="start" x="1360" y="-591.3" font-family="Times New Roman,serif" font-weight="bold" font-size="14.00">stl#User:Successfully input message</text>
</g>
<!-- EAID_CD3B5B3D_76CF_49ce_BF14_48CF38AC1221___EAID_8853BFC1_3403_4ab7_940E_62E6F356C483_STL&#45;&gt;EAID_CD3B5B3D_76CF_49ce_BF14_48CF38AC1221___EAID_8853BFC1_3403_4ab7_940E_62E6F356C483 -->
<g id="edge1" class="edge"><title>EAID_CD3B5B3D_76CF_49ce_BF14_48CF38AC1221___EAID_8853BFC1_3403_4ab7_940E_62E6F356C483_STL&#45;&gt;EAID_CD3B5B3D_76CF_49ce_BF14_48CF38AC1221___EAID_8853BFC1_3403_4ab7_940E_62E6F356C483</title>
<path fill="none" stroke="black" d="M1474.67,-580.778C1477.23,-569.58 1480.31,-556.152 1483.1,-543.985"/>
<polygon fill="black" stroke="black" points="1486.53,-544.668 1485.35,-534.139 1479.71,-543.104 1486.53,-544.668"/>
</g>
<!-- EAID_CD3B5B3D_76CF_49ce_BF14_48CF38AC1221___EAID_47395D15_FDE3_4878_81F6_9CC1A0D1352D_STL -->
<g id="node9" class="node"><title>EAID_CD3B5B3D_76CF_49ce_BF14_48CF38AC1221___EAID_47395D15_FDE3_4878_81F6_9CC1A0D1352D_STL</title>
<image xlink:href="img/stimulus_icon.png" width="30px" height="20px" preserveAspectRatio="xMinYMin meet" x="1682" y="-625.5"/>
<text text-anchor="start" x="1617" y="-591.3" font-family="Times New Roman,serif" font-weight="bold" font-size="14.00">stl#User:Project info page</text>
</g>
<!-- EAID_CD3B5B3D_76CF_49ce_BF14_48CF38AC1221___EAID_47395D15_FDE3_4878_81F6_9CC1A0D1352D_STL&#45;&gt;EAID_CD3B5B3D_76CF_49ce_BF14_48CF38AC1221___EAID_47395D15_FDE3_4878_81F6_9CC1A0D1352D -->
<g id="edge3" class="edge"><title>EAID_CD3B5B3D_76CF_49ce_BF14_48CF38AC1221___EAID_47395D15_FDE3_4878_81F6_9CC1A0D1352D_STL&#45;&gt;EAID_CD3B5B3D_76CF_49ce_BF14_48CF38AC1221___EAID_47395D15_FDE3_4878_81F6_9CC1A0D1352D</title>
<path fill="none" stroke="black" d="M1697,-580.778C1697,-569.692 1697,-556.42 1697,-544.351"/>
<polygon fill="black" stroke="black" points="1700.5,-544.139 1697,-534.139 1693.5,-544.139 1700.5,-544.139"/>
</g>
<!-- EAID_CD3B5B3D_76CF_49ce_BF14_48CF38AC1221___EAID_79A67C93_8802_4710_B26B_0B86261D70DC_STL -->
<g id="node10" class="node"><title>EAID_CD3B5B3D_76CF_49ce_BF14_48CF38AC1221___EAID_79A67C93_8802_4710_B26B_0B86261D70DC_STL</title>
<image xlink:href="img/stimulus_icon.png" width="30px" height="20px" preserveAspectRatio="xMinYMin meet" x="1881.5" y="-625.5"/>
<text text-anchor="start" x="1816" y="-591.3" font-family="Times New Roman,serif" font-weight="bold" font-size="14.00">stl#User:search results list</text>
</g>
<!-- EAID_CD3B5B3D_76CF_49ce_BF14_48CF38AC1221___EAID_79A67C93_8802_4710_B26B_0B86261D70DC_STL&#45;&gt;EAID_CD3B5B3D_76CF_49ce_BF14_48CF38AC1221___EAID_79A67C93_8802_4710_B26B_0B86261D70DC -->
<g id="edge4" class="edge"><title>EAID_CD3B5B3D_76CF_49ce_BF14_48CF38AC1221___EAID_79A67C93_8802_4710_B26B_0B86261D70DC_STL&#45;&gt;EAID_CD3B5B3D_76CF_49ce_BF14_48CF38AC1221___EAID_79A67C93_8802_4710_B26B_0B86261D70DC</title>
<path fill="none" stroke="black" d="M1890.85,-580.778C1888.52,-569.58 1885.72,-556.152 1883.18,-543.985"/>
<polygon fill="black" stroke="black" points="1886.6,-543.215 1881.13,-534.139 1879.75,-544.642 1886.6,-543.215"/>
</g>
<!-- EAID_0158E22A_3B0C_443b_A627_10A9EADBA8AF -->
<g id="node11" class="node"><title>EAID_0158E22A_3B0C_443b_A627_10A9EADBA8AF</title>
<polygon fill="none" stroke="black" points="1583,-168 1583,-189 1795,-189 1795,-168 1583,-168"/>
<text text-anchor="start" x="1586" y="-175.8" font-family="Times New Roman,serif" font-weight="bold" font-size="14.00">Data Service Configuration Form</text>
<polygon fill="none" stroke="black" points="1583,-147 1583,-168 1795,-168 1795,-147 1583,-147"/>
<text text-anchor="start" x="1631" y="-154.8" font-family="Times New Roman,serif" font-weight="bold" font-size="14.00">EAJava_date Date</text>
<polygon fill="none" stroke="black" points="1583,-126 1583,-147 1795,-147 1795,-126 1583,-126"/>
<text text-anchor="start" x="1628.5" y="-133.8" font-family="Times New Roman,serif" font-weight="bold" font-size="14.00">EAJava_int UserID</text>
<polygon fill="none" stroke="black" points="1583,-105 1583,-126 1795,-126 1795,-105 1583,-105"/>
<text text-anchor="start" x="1624.5" y="-112.8" font-family="Times New Roman,serif" font-weight="bold" font-size="14.00">EAJava_String Type</text>
<polygon fill="none" stroke="black" points="1583,-84 1583,-105 1795,-105 1795,-84 1583,-84"/>
<text text-anchor="start" x="1586.5" y="-91.8" font-family="Times New Roman,serif" font-weight="bold" font-size="14.00">EAJava_String ConfigParameter</text>
<polygon fill="none" stroke="black" points="1583,-63 1583,-84 1795,-84 1795,-63 1583,-63"/>
<text text-anchor="start" x="1587" y="-70.8" font-family="Times New Roman,serif" font-weight="bold" font-size="14.00">DataServiceConfigurationForm()</text>
<polygon fill="none" stroke="black" points="1582,-62 1582,-190 1796,-190 1796,-62 1582,-62"/>
</g>
<!-- EAID_E156122F_A92B_48f5_9FA3_D801C10BB233 -->
<g id="node13" class="node"><title>EAID_E156122F_A92B_48f5_9FA3_D801C10BB233</title>
<polygon fill="none" stroke="black" points="1098,-168 1098,-189 1279,-189 1279,-168 1098,-168"/>
<text text-anchor="start" x="1114" y="-175.8" font-family="Times New Roman,serif" font-weight="bold" font-size="14.00">Sensor Data Export File</text>
<polygon fill="none" stroke="black" points="1098,-147 1098,-168 1279,-168 1279,-147 1098,-147"/>
<text text-anchor="start" x="1111.5" y="-154.8" font-family="Times New Roman,serif" font-weight="bold" font-size="14.00">EAJava_float signalDate</text>
<polygon fill="none" stroke="black" points="1098,-126 1098,-147 1279,-147 1279,-126 1098,-126"/>
<text text-anchor="start" x="1101" y="-133.8" font-family="Times New Roman,serif" font-weight="bold" font-size="14.00">EAJava_float TimeDuration</text>
<polygon fill="none" stroke="black" points="1098,-105 1098,-126 1279,-126 1279,-105 1098,-105"/>
<text text-anchor="start" x="1136" y="-112.8" font-family="Times New Roman,serif" font-weight="bold" font-size="14.00">EAJava_int Tick</text>
<polygon fill="none" stroke="black" points="1098,-84 1098,-105 1279,-105 1279,-84 1098,-84"/>
<text text-anchor="start" x="1128" y="-91.8" font-family="Times New Roman,serif" font-weight="bold" font-size="14.00">EAJava_int UserID</text>
<polygon fill="none" stroke="black" points="1098,-63 1098,-84 1279,-84 1279,-63 1098,-63"/>
<text text-anchor="start" x="1115" y="-70.8" font-family="Times New Roman,serif" font-weight="bold" font-size="14.00">SensorDataExportFile()</text>
<polygon fill="none" stroke="black" points="1096.5,-62 1096.5,-190 1279.5,-190 1279.5,-62 1096.5,-62"/>
</g>
<!-- EAID_12187F8D_3E52_4e10_81B4_1E694225150C -->
<g id="node14" class="node"><title>EAID_12187F8D_3E52_4e10_81B4_1E694225150C</title>
<polygon fill="none" stroke="black" points="833,-189 833,-210 1061,-210 1061,-189 833,-189"/>
<text text-anchor="start" x="836" y="-196.8" font-family="Times New Roman,serif" font-weight="bold" font-size="14.00">Sensor Product Configuration Form</text>
<polygon fill="none" stroke="black" points="833,-168 833,-189 1061,-189 1061,-168 833,-168"/>
<text text-anchor="start" x="886.5" y="-175.8" font-family="Times New Roman,serif" font-weight="bold" font-size="14.00">EAJava_float Price</text>
<polygon fill="none" stroke="black" points="833,-147 833,-168 1061,-168 1061,-147 833,-147"/>
<text text-anchor="start" x="882" y="-154.8" font-family="Times New Roman,serif" font-weight="bold" font-size="14.00">EAJava_int Quantity</text>
<polygon fill="none" stroke="black" points="833,-126 833,-147 1061,-147 1061,-126 833,-126"/>
<text text-anchor="start" x="889" y="-133.8" font-family="Times New Roman,serif" font-weight="bold" font-size="14.00">EAJava_date Date</text>
<polygon fill="none" stroke="black" points="833,-105 833,-126 1061,-126 1061,-105 833,-105"/>
<text text-anchor="start" x="886.5" y="-112.8" font-family="Times New Roman,serif" font-weight="bold" font-size="14.00">EAJava_int UserID</text>
<polygon fill="none" stroke="black" points="833,-84 833,-105 1061,-105 1061,-84 833,-84"/>
<text text-anchor="start" x="878.5" y="-91.8" font-family="Times New Roman,serif" font-weight="bold" font-size="14.00">EAJava_string Config</text>
<polygon fill="none" stroke="black" points="833,-63 833,-84 1061,-84 1061,-63 833,-63"/>
<text text-anchor="start" x="855.5" y="-70.8" font-family="Times New Roman,serif" font-weight="bold" font-size="14.00">EAJava_int SensorProductID</text>
<polygon fill="none" stroke="black" points="833,-42 833,-63 1061,-63 1061,-42 833,-42"/>
<text text-anchor="start" x="837" y="-49.8" font-family="Times New Roman,serif" font-weight="bold" font-size="14.00">SensorProductConfigurationForm()</text>
<polygon fill="none" stroke="black" points="832,-41 832,-211 1062,-211 1062,-41 832,-41"/>
</g>
<!-- EAID_9F2FB75A_C326_4873_90BB_46005702BA79 -->
<g id="node15" class="node"><title>EAID_9F2FB75A_C326_4873_90BB_46005702BA79</title>
<polygon fill="none" stroke="black" points="571,-178 571,-199 797,-199 797,-178 571,-178"/>
<text text-anchor="start" x="642.5" y="-185.8" font-family="Times New Roman,serif" font-weight="bold" font-size="14.00">User Account</text>
<polygon fill="none" stroke="black" points="571,-157 571,-178 797,-178 797,-157 571,-157"/>
<text text-anchor="start" x="604" y="-164.8" font-family="Times New Roman,serif" font-weight="bold" font-size="14.00">EAJava_string UserName</text>
<polygon fill="none" stroke="black" points="571,-136 571,-157 797,-157 797,-136 571,-136"/>
<text text-anchor="start" x="592" y="-143.8" font-family="Times New Roman,serif" font-weight="bold" font-size="14.00">EAJava_string UserPassword</text>
<polygon fill="none" stroke="black" points="571,-115 571,-136 797,-136 797,-115 571,-115"/>
<text text-anchor="start" x="574" y="-122.8" font-family="Times New Roman,serif" font-weight="bold" font-size="14.00">EAJava_date UserRegistrationDate</text>
<polygon fill="none" stroke="black" points="571,-94 571,-115 797,-115 797,-94 571,-94"/>
<text text-anchor="start" x="604" y="-101.8" font-family="Times New Roman,serif" font-weight="bold" font-size="14.00">EAJava_string UserEmail</text>
<polygon fill="none" stroke="black" points="571,-73 571,-94 797,-94 797,-73 571,-73"/>
<text text-anchor="start" x="606.5" y="-80.8" font-family="Times New Roman,serif" font-weight="bold" font-size="14.00">EAJava_string UserType</text>
<polygon fill="none" stroke="black" points="571,-52 571,-73 797,-73 797,-52 571,-52"/>
<text text-anchor="start" x="640" y="-59.8" font-family="Times New Roman,serif" font-weight="bold" font-size="14.00">UserAccount()</text>
<polygon fill="none" stroke="black" points="570,-51.5 570,-200.5 798,-200.5 798,-51.5 570,-51.5"/>
</g>
<!-- EAID_C9FD8C03_E3AF_4a74_B70A_BB5F54C1C6E3 -->
<g id="node16" class="node"><title>EAID_C9FD8C03_E3AF_4a74_B70A_BB5F54C1C6E3</title>
<polygon fill="none" stroke="black" points="420,-126 420,-147 535,-147 535,-126 420,-126"/>
<text text-anchor="start" x="427.5" y="-133.8" font-family="Times New Roman,serif" font-weight="bold" font-size="14.00">Studentinfopage</text>
<polygon fill="none" stroke="black" points="420,-105 420,-126 535,-126 535,-105 420,-105"/>
<text text-anchor="start" x="423" y="-112.8" font-family="Times New Roman,serif" font-weight="bold" font-size="14.00">Studentinfopage()</text>
<polygon fill="none" stroke="black" points="418.5,-104 418.5,-148 535.5,-148 535.5,-104 418.5,-104"/>
</g>
<!-- EAID_DA382B0E_A02E_4d59_97F8_8B4C257F12C5 -->
<g id="node18" class="node"><title>EAID_DA382B0E_A02E_4d59_97F8_8B4C257F12C5</title>
<polygon fill="none" stroke="black" points="26,-126 26,-147 141,-147 141,-126 26,-126"/>
<text text-anchor="start" x="33.5" y="-133.8" font-family="Times New Roman,serif" font-weight="bold" font-size="14.00">searchresultslist</text>
<polygon fill="none" stroke="black" points="26,-105 26,-126 141,-126 141,-105 26,-105"/>
<text text-anchor="start" x="29" y="-112.8" font-family="Times New Roman,serif" font-weight="bold" font-size="14.00">searchresultslist()</text>
<polygon fill="none" stroke="black" points="24.5,-104 24.5,-148 141.5,-148 141.5,-104 24.5,-104"/>
</g>
</g>
</svg>
