<?xml version="1.0" encoding="UTF-8" standalone="no"?>
<!DOCTYPE svg PUBLIC "-//W3C//DTD SVG 1.1//EN"
 "http://www.w3.org/Graphics/SVG/1.1/DTD/svg11.dtd">
<!-- Generated by graphviz version 2.38.0 (20140413.2041)
 -->
<!-- Title: g Pages: 1 -->
<svg width="2600pt" height="412pt"
 viewBox="0.00 0.00 2599.69 412.00" xmlns="http://www.w3.org/2000/svg" xmlns:xlink="http://www.w3.org/1999/xlink">
<g id="graph0" class="graph" transform="scale(1 1) rotate(0) translate(4 408)">
<title>g</title>
<polygon fill="white" stroke="none" points="-4,4 -4,-408 2595.69,-408 2595.69,4 -4,4"/>
<!-- EAID_54FCEB5B_7DB8_4646_A24D_43F9B39705F9_0 -->
<g id="node1" class="node"><title>EAID_54FCEB5B_7DB8_4646_A24D_43F9B39705F9_0</title>
<ellipse fill="none" stroke="black" cx="356.5" cy="-168.5" rx="27" ry="18"/>
<text text-anchor="middle" x="356.5" y="-164.8" font-family="Times New Roman,serif" font-size="14.00">2. 2</text>
</g>
<!-- EAID_5164519C_D281_4ecb_ADFB_74AC4905F23F_0 -->
<g id="node4" class="node"><title>EAID_5164519C_D281_4ecb_ADFB_74AC4905F23F_0</title>
<ellipse fill="none" stroke="black" cx="212.5" cy="-90.5" rx="27" ry="18"/>
<text text-anchor="middle" x="212.5" y="-86.8" font-family="Times New Roman,serif" font-size="14.00">4. 4</text>
</g>
<!-- EAID_54FCEB5B_7DB8_4646_A24D_43F9B39705F9_0&#45;&gt;EAID_5164519C_D281_4ecb_ADFB_74AC4905F23F_0 -->
<g id="edge3" class="edge"><title>EAID_54FCEB5B_7DB8_4646_A24D_43F9B39705F9_0&#45;&gt;EAID_5164519C_D281_4ecb_ADFB_74AC4905F23F_0</title>
<path fill="none" stroke="black" d="M335.868,-156.611C311.274,-143.631 269.995,-121.844 242.025,-107.083"/>
<polygon fill="black" stroke="black" points="243.571,-103.941 233.093,-102.369 240.304,-110.132 243.571,-103.941"/>
</g>
<!-- EAID_3D39FCB9_3063_410b_8768_142EFC990321_0 -->
<g id="node2" class="node"><title>EAID_3D39FCB9_3063_410b_8768_142EFC990321_0</title>
<polygon fill="none" stroke="black" points="301,-256.5 301,-292.5 432,-292.5 432,-256.5 301,-256.5"/>
<text text-anchor="middle" x="366.5" y="-270.8" font-family="Times New Roman,serif" font-size="14.00">BookTicketInterface</text>
</g>
<!-- EAID_3D39FCB9_3063_410b_8768_142EFC990321_0&#45;&gt;EAID_54FCEB5B_7DB8_4646_A24D_43F9B39705F9_0 -->
<g id="edge1" class="edge"><title>EAID_3D39FCB9_3063_410b_8768_142EFC990321_0&#45;&gt;EAID_54FCEB5B_7DB8_4646_A24D_43F9B39705F9_0</title>
<path fill="none" stroke="black" d="M364.849,-256.327C363.293,-240.143 360.936,-215.631 359.122,-196.773"/>
<polygon fill="black" stroke="black" points="362.595,-196.318 358.154,-186.699 355.627,-196.988 362.595,-196.318"/>
</g>
<!-- EAID_A2005B87_8BE7_4869_9CC6_2F5C7E80F893_0 -->
<g id="node3" class="node"><title>EAID_A2005B87_8BE7_4869_9CC6_2F5C7E80F893_0</title>
<path fill="none" stroke="black" d="M313.5,-357.5C313.5,-357.5 419.5,-357.5 419.5,-357.5 425.5,-357.5 431.5,-363.5 431.5,-369.5 431.5,-369.5 431.5,-391.5 431.5,-391.5 431.5,-397.5 425.5,-403.5 419.5,-403.5 419.5,-403.5 313.5,-403.5 313.5,-403.5 307.5,-403.5 301.5,-397.5 301.5,-391.5 301.5,-391.5 301.5,-369.5 301.5,-369.5 301.5,-363.5 307.5,-357.5 313.5,-357.5"/>
<text text-anchor="middle" x="366.5" y="-388.3" font-family="Times New Roman,serif" font-size="14.00">bookTicketInterface</text>
<polyline fill="none" stroke="black" points="301.5,-380.5 431.5,-380.5 "/>
<text text-anchor="middle" x="366.5" y="-365.3" font-family="Times New Roman,serif" font-size="14.00">BookTicketInput</text>
</g>
<!-- EAID_A2005B87_8BE7_4869_9CC6_2F5C7E80F893_0&#45;&gt;EAID_3D39FCB9_3063_410b_8768_142EFC990321_0 -->
<g id="edge2" class="edge"><title>EAID_A2005B87_8BE7_4869_9CC6_2F5C7E80F893_0&#45;&gt;EAID_3D39FCB9_3063_410b_8768_142EFC990321_0</title>
<path fill="none" stroke="black" d="M366.5,-357.444C366.5,-341.597 366.5,-320.121 366.5,-303.13"/>
<polygon fill="black" stroke="black" points="370,-302.717 366.5,-292.717 363,-302.717 370,-302.717"/>
</g>
<!-- EAID_66D3FA8C_6A89_4462_864B_6697DA4E7882_0 -->
<g id="node7" class="node"><title>EAID_66D3FA8C_6A89_4462_864B_6697DA4E7882_0</title>
<ellipse fill="none" stroke="black" cx="135.5" cy="-18" rx="27" ry="18"/>
<text text-anchor="middle" x="135.5" y="-14.3" font-family="Times New Roman,serif" font-size="14.00">5. 5</text>
</g>
<!-- EAID_5164519C_D281_4ecb_ADFB_74AC4905F23F_0&#45;&gt;EAID_66D3FA8C_6A89_4462_864B_6697DA4E7882_0 -->
<g id="edge6" class="edge"><title>EAID_5164519C_D281_4ecb_ADFB_74AC4905F23F_0&#45;&gt;EAID_66D3FA8C_6A89_4462_864B_6697DA4E7882_0</title>
<path fill="none" stroke="black" d="M197.287,-75.5715C186.108,-65.3362 170.733,-51.2592 158.118,-39.7083"/>
<polygon fill="black" stroke="black" points="160.42,-37.0711 150.681,-32.8996 155.693,-42.234 160.42,-37.0711"/>
</g>
<!-- EAID_23AC56E0_E407_40a4_BE5D_54A73236D361_0 -->
<g id="node5" class="node"><title>EAID_23AC56E0_E407_40a4_BE5D_54A73236D361_0</title>
<polygon fill="none" stroke="black" points="133,-150.5 133,-186.5 292,-186.5 292,-150.5 133,-150.5"/>
<text text-anchor="middle" x="212.5" y="-164.8" font-family="Times New Roman,serif" font-size="14.00">BookTicketsManagement</text>
</g>
<!-- EAID_23AC56E0_E407_40a4_BE5D_54A73236D361_0&#45;&gt;EAID_5164519C_D281_4ecb_ADFB_74AC4905F23F_0 -->
<g id="edge4" class="edge"><title>EAID_23AC56E0_E407_40a4_BE5D_54A73236D361_0&#45;&gt;EAID_5164519C_D281_4ecb_ADFB_74AC4905F23F_0</title>
<path fill="none" stroke="black" d="M212.5,-150.254C212.5,-141.023 212.5,-129.435 212.5,-118.995"/>
<polygon fill="black" stroke="black" points="216,-118.677 212.5,-108.677 209,-118.677 216,-118.677"/>
</g>
<!-- EAID_BA78D637_2FF8_42d4_B0CA_2B07F4EC5584_0 -->
<g id="node6" class="node"><title>EAID_BA78D637_2FF8_42d4_B0CA_2B07F4EC5584_0</title>
<path fill="none" stroke="black" d="M136.5,-228.5C136.5,-228.5 270.5,-228.5 270.5,-228.5 276.5,-228.5 282.5,-234.5 282.5,-240.5 282.5,-240.5 282.5,-308.5 282.5,-308.5 282.5,-314.5 276.5,-320.5 270.5,-320.5 270.5,-320.5 136.5,-320.5 136.5,-320.5 130.5,-320.5 124.5,-314.5 124.5,-308.5 124.5,-308.5 124.5,-240.5 124.5,-240.5 124.5,-234.5 130.5,-228.5 136.5,-228.5"/>
<text text-anchor="middle" x="203.5" y="-305.3" font-family="Times New Roman,serif" font-size="14.00">bookTicketsManagement</text>
<polyline fill="none" stroke="black" points="124.5,-297.5 282.5,-297.5 "/>
<text text-anchor="middle" x="203.5" y="-282.3" font-family="Times New Roman,serif" font-size="14.00">ticketName</text>
<polyline fill="none" stroke="black" points="124.5,-274.5 282.5,-274.5 "/>
<text text-anchor="middle" x="203.5" y="-259.3" font-family="Times New Roman,serif" font-size="14.00">tiketId</text>
<polyline fill="none" stroke="black" points="124.5,-251.5 282.5,-251.5 "/>
<text text-anchor="middle" x="203.5" y="-236.3" font-family="Times New Roman,serif" font-size="14.00">bookTicketsManagement</text>
</g>
<!-- EAID_BA78D637_2FF8_42d4_B0CA_2B07F4EC5584_0&#45;&gt;EAID_23AC56E0_E407_40a4_BE5D_54A73236D361_0 -->
<g id="edge5" class="edge"><title>EAID_BA78D637_2FF8_42d4_B0CA_2B07F4EC5584_0&#45;&gt;EAID_23AC56E0_E407_40a4_BE5D_54A73236D361_0</title>
<path fill="none" stroke="black" d="M207.395,-228.489C208.327,-217.72 209.294,-206.543 210.133,-196.852"/>
<polygon fill="black" stroke="black" points="213.641,-196.908 211.016,-186.643 206.667,-196.304 213.641,-196.908"/>
</g>
<!-- EAID_FC3FF47A_7475_494a_BA4A_BE777480C1D4_0 -->
<g id="node8" class="node"><title>EAID_FC3FF47A_7475_494a_BA4A_BE777480C1D4_0</title>
<polygon fill="none" stroke="black" points="46,-72.5 46,-108.5 135,-108.5 135,-72.5 46,-72.5"/>
<text text-anchor="middle" x="90.5" y="-86.8" font-family="Times New Roman,serif" font-size="14.00">BookTickets</text>
</g>
<!-- EAID_FC3FF47A_7475_494a_BA4A_BE777480C1D4_0&#45;&gt;EAID_66D3FA8C_6A89_4462_864B_6697DA4E7882_0 -->
<g id="edge7" class="edge"><title>EAID_FC3FF47A_7475_494a_BA4A_BE777480C1D4_0&#45;&gt;EAID_66D3FA8C_6A89_4462_864B_6697DA4E7882_0</title>
<path fill="none" stroke="black" d="M101.393,-72.4339C106.913,-63.787 113.715,-53.1298 119.789,-43.6137"/>
<polygon fill="black" stroke="black" points="122.894,-45.2549 125.324,-34.9425 116.993,-41.4886 122.894,-45.2549"/>
</g>
<!-- EAID_DB1C34DE_E1DA_4634_8454_B3E9A6E55224_0 -->
<g id="node9" class="node"><title>EAID_DB1C34DE_E1DA_4634_8454_B3E9A6E55224_0</title>
<path fill="none" stroke="black" d="M12,-145.5C12,-145.5 103,-145.5 103,-145.5 109,-145.5 115,-151.5 115,-157.5 115,-157.5 115,-179.5 115,-179.5 115,-185.5 109,-191.5 103,-191.5 103,-191.5 12,-191.5 12,-191.5 6,-191.5 0,-185.5 0,-179.5 0,-179.5 0,-157.5 0,-157.5 0,-151.5 6,-145.5 12,-145.5"/>
<text text-anchor="middle" x="57.5" y="-176.3" font-family="Times New Roman,serif" font-size="14.00">BookTickets</text>
<polyline fill="none" stroke="black" points="0,-168.5 115,-168.5 "/>
<text text-anchor="middle" x="57.5" y="-153.3" font-family="Times New Roman,serif" font-size="14.00">BookTicketName</text>
</g>
<!-- EAID_DB1C34DE_E1DA_4634_8454_B3E9A6E55224_0&#45;&gt;EAID_FC3FF47A_7475_494a_BA4A_BE777480C1D4_0 -->
<g id="edge8" class="edge"><title>EAID_DB1C34DE_E1DA_4634_8454_B3E9A6E55224_0&#45;&gt;EAID_FC3FF47A_7475_494a_BA4A_BE777480C1D4_0</title>
<path fill="none" stroke="black" d="M67.2226,-145.109C70.8694,-136.71 75.0507,-127.08 78.8543,-118.32"/>
<polygon fill="black" stroke="black" points="82.167,-119.479 82.9395,-108.912 75.7462,-116.691 82.167,-119.479"/>
</g>
<!-- EAID_2E4AD77B_1D6F_40df_9C57_FBB6006E9949_1 -->
<g id="node10" class="node"><title>EAID_2E4AD77B_1D6F_40df_9C57_FBB6006E9949_1</title>
<ellipse fill="none" stroke="black" cx="777.5" cy="-168.5" rx="65.7887" ry="18"/>
<text text-anchor="middle" x="777.5" y="-164.8" font-family="Times New Roman,serif" font-size="14.00">0. bookTickets</text>
</g>
<!-- EAID_017B1AFD_5D09_4997_9F2D_7F5ADF9188AF_1 -->
<g id="node13" class="node"><title>EAID_017B1AFD_5D09_4997_9F2D_7F5ADF9188AF_1</title>
<ellipse fill="none" stroke="black" cx="614.5" cy="-90.5" rx="27" ry="18"/>
<text text-anchor="middle" x="614.5" y="-86.8" font-family="Times New Roman,serif" font-size="14.00">1. 1</text>
</g>
<!-- EAID_2E4AD77B_1D6F_40df_9C57_FBB6006E9949_1&#45;&gt;EAID_017B1AFD_5D09_4997_9F2D_7F5ADF9188AF_1 -->
<g id="edge11" class="edge"><title>EAID_2E4AD77B_1D6F_40df_9C57_FBB6006E9949_1&#45;&gt;EAID_017B1AFD_5D09_4997_9F2D_7F5ADF9188AF_1</title>
<path fill="none" stroke="black" d="M745.685,-152.666C716.718,-139.16 674.21,-119.34 645.5,-105.954"/>
<polygon fill="black" stroke="black" points="646.875,-102.733 636.332,-101.679 643.916,-109.077 646.875,-102.733"/>
</g>
<!-- EAID_3D39FCB9_3063_410b_8768_142EFC990321_1 -->
<g id="node11" class="node"><title>EAID_3D39FCB9_3063_410b_8768_142EFC990321_1</title>
<polygon fill="none" stroke="black" points="712,-256.5 712,-292.5 843,-292.5 843,-256.5 712,-256.5"/>
<text text-anchor="middle" x="777.5" y="-270.8" font-family="Times New Roman,serif" font-size="14.00">BookTicketInterface</text>
</g>
<!-- EAID_3D39FCB9_3063_410b_8768_142EFC990321_1&#45;&gt;EAID_2E4AD77B_1D6F_40df_9C57_FBB6006E9949_1 -->
<g id="edge9" class="edge"><title>EAID_3D39FCB9_3063_410b_8768_142EFC990321_1&#45;&gt;EAID_2E4AD77B_1D6F_40df_9C57_FBB6006E9949_1</title>
<path fill="none" stroke="black" d="M777.5,-256.327C777.5,-240.143 777.5,-215.631 777.5,-196.773"/>
<polygon fill="black" stroke="black" points="781,-196.699 777.5,-186.699 774,-196.699 781,-196.699"/>
</g>
<!-- EAID_A2005B87_8BE7_4869_9CC6_2F5C7E80F893_1 -->
<g id="node12" class="node"><title>EAID_A2005B87_8BE7_4869_9CC6_2F5C7E80F893_1</title>
<path fill="none" stroke="black" d="M724.5,-357.5C724.5,-357.5 830.5,-357.5 830.5,-357.5 836.5,-357.5 842.5,-363.5 842.5,-369.5 842.5,-369.5 842.5,-391.5 842.5,-391.5 842.5,-397.5 836.5,-403.5 830.5,-403.5 830.5,-403.5 724.5,-403.5 724.5,-403.5 718.5,-403.5 712.5,-397.5 712.5,-391.5 712.5,-391.5 712.5,-369.5 712.5,-369.5 712.5,-363.5 718.5,-357.5 724.5,-357.5"/>
<text text-anchor="middle" x="777.5" y="-388.3" font-family="Times New Roman,serif" font-size="14.00">bookTicketInterface</text>
<polyline fill="none" stroke="black" points="712.5,-380.5 842.5,-380.5 "/>
<text text-anchor="middle" x="777.5" y="-365.3" font-family="Times New Roman,serif" font-size="14.00">BookTicketInput</text>
</g>
<!-- EAID_A2005B87_8BE7_4869_9CC6_2F5C7E80F893_1&#45;&gt;EAID_3D39FCB9_3063_410b_8768_142EFC990321_1 -->
<g id="edge10" class="edge"><title>EAID_A2005B87_8BE7_4869_9CC6_2F5C7E80F893_1&#45;&gt;EAID_3D39FCB9_3063_410b_8768_142EFC990321_1</title>
<path fill="none" stroke="black" d="M777.5,-357.444C777.5,-341.597 777.5,-320.121 777.5,-303.13"/>
<polygon fill="black" stroke="black" points="781,-302.717 777.5,-292.717 774,-302.717 781,-302.717"/>
</g>
<!-- EAID_C0CC8501_525A_49bb_9372_36B6FB6B9BDD_1 -->
<g id="node16" class="node"><title>EAID_C0CC8501_525A_49bb_9372_36B6FB6B9BDD_1</title>
<ellipse fill="none" stroke="black" cx="552.5" cy="-18" rx="27" ry="18"/>
<text text-anchor="middle" x="552.5" y="-14.3" font-family="Times New Roman,serif" font-size="14.00">3. 3</text>
</g>
<!-- EAID_017B1AFD_5D09_4997_9F2D_7F5ADF9188AF_1&#45;&gt;EAID_C0CC8501_525A_49bb_9372_36B6FB6B9BDD_1 -->
<g id="edge14" class="edge"><title>EAID_017B1AFD_5D09_4997_9F2D_7F5ADF9188AF_1&#45;&gt;EAID_C0CC8501_525A_49bb_9372_36B6FB6B9BDD_1</title>
<path fill="none" stroke="black" d="M601.351,-74.5488C592.967,-65.0149 581.94,-52.4758 572.484,-41.724"/>
<polygon fill="black" stroke="black" points="574.862,-39.1276 565.63,-33.9297 569.605,-43.7503 574.862,-39.1276"/>
</g>
<!-- EAID_23AC56E0_E407_40a4_BE5D_54A73236D361_1 -->
<g id="node14" class="node"><title>EAID_23AC56E0_E407_40a4_BE5D_54A73236D361_1</title>
<polygon fill="none" stroke="black" points="535,-150.5 535,-186.5 694,-186.5 694,-150.5 535,-150.5"/>
<text text-anchor="middle" x="614.5" y="-164.8" font-family="Times New Roman,serif" font-size="14.00">BookTicketsManagement</text>
</g>
<!-- EAID_23AC56E0_E407_40a4_BE5D_54A73236D361_1&#45;&gt;EAID_017B1AFD_5D09_4997_9F2D_7F5ADF9188AF_1 -->
<g id="edge12" class="edge"><title>EAID_23AC56E0_E407_40a4_BE5D_54A73236D361_1&#45;&gt;EAID_017B1AFD_5D09_4997_9F2D_7F5ADF9188AF_1</title>
<path fill="none" stroke="black" d="M614.5,-150.254C614.5,-141.023 614.5,-129.435 614.5,-118.995"/>
<polygon fill="black" stroke="black" points="618,-118.677 614.5,-108.677 611,-118.677 618,-118.677"/>
</g>
<!-- EAID_BA78D637_2FF8_42d4_B0CA_2B07F4EC5584_1 -->
<g id="node15" class="node"><title>EAID_BA78D637_2FF8_42d4_B0CA_2B07F4EC5584_1</title>
<path fill="none" stroke="black" d="M547.5,-228.5C547.5,-228.5 681.5,-228.5 681.5,-228.5 687.5,-228.5 693.5,-234.5 693.5,-240.5 693.5,-240.5 693.5,-308.5 693.5,-308.5 693.5,-314.5 687.5,-320.5 681.5,-320.5 681.5,-320.5 547.5,-320.5 547.5,-320.5 541.5,-320.5 535.5,-314.5 535.5,-308.5 535.5,-308.5 535.5,-240.5 535.5,-240.5 535.5,-234.5 541.5,-228.5 547.5,-228.5"/>
<text text-anchor="middle" x="614.5" y="-305.3" font-family="Times New Roman,serif" font-size="14.00">bookTicketsManagement</text>
<polyline fill="none" stroke="black" points="535.5,-297.5 693.5,-297.5 "/>
<text text-anchor="middle" x="614.5" y="-282.3" font-family="Times New Roman,serif" font-size="14.00">ticketName</text>
<polyline fill="none" stroke="black" points="535.5,-274.5 693.5,-274.5 "/>
<text text-anchor="middle" x="614.5" y="-259.3" font-family="Times New Roman,serif" font-size="14.00">tiketId</text>
<polyline fill="none" stroke="black" points="535.5,-251.5 693.5,-251.5 "/>
<text text-anchor="middle" x="614.5" y="-236.3" font-family="Times New Roman,serif" font-size="14.00">bookTicketsManagement</text>
</g>
<!-- EAID_BA78D637_2FF8_42d4_B0CA_2B07F4EC5584_1&#45;&gt;EAID_23AC56E0_E407_40a4_BE5D_54A73236D361_1 -->
<g id="edge13" class="edge"><title>EAID_BA78D637_2FF8_42d4_B0CA_2B07F4EC5584_1&#45;&gt;EAID_23AC56E0_E407_40a4_BE5D_54A73236D361_1</title>
<path fill="none" stroke="black" d="M614.5,-228.489C614.5,-217.72 614.5,-206.543 614.5,-196.852"/>
<polygon fill="black" stroke="black" points="618,-196.643 614.5,-186.643 611,-196.643 618,-196.643"/>
</g>
<!-- EAID_FC3FF47A_7475_494a_BA4A_BE777480C1D4_1 -->
<g id="node17" class="node"><title>EAID_FC3FF47A_7475_494a_BA4A_BE777480C1D4_1</title>
<polygon fill="none" stroke="black" points="447,-72.5 447,-108.5 536,-108.5 536,-72.5 447,-72.5"/>
<text text-anchor="middle" x="491.5" y="-86.8" font-family="Times New Roman,serif" font-size="14.00">BookTickets</text>
</g>
<!-- EAID_FC3FF47A_7475_494a_BA4A_BE777480C1D4_1&#45;&gt;EAID_C0CC8501_525A_49bb_9372_36B6FB6B9BDD_1 -->
<g id="edge15" class="edge"><title>EAID_FC3FF47A_7475_494a_BA4A_BE777480C1D4_1&#45;&gt;EAID_C0CC8501_525A_49bb_9372_36B6FB6B9BDD_1</title>
<path fill="none" stroke="black" d="M506.266,-72.4339C514.279,-63.1732 524.287,-51.6066 532.941,-41.6055"/>
<polygon fill="black" stroke="black" points="535.63,-43.8467 539.526,-33.9944 530.336,-39.2665 535.63,-43.8467"/>
</g>
<!-- EAID_DB1C34DE_E1DA_4634_8454_B3E9A6E55224_1 -->
<g id="node18" class="node"><title>EAID_DB1C34DE_E1DA_4634_8454_B3E9A6E55224_1</title>
<path fill="none" stroke="black" d="M414,-145.5C414,-145.5 505,-145.5 505,-145.5 511,-145.5 517,-151.5 517,-157.5 517,-157.5 517,-179.5 517,-179.5 517,-185.5 511,-191.5 505,-191.5 505,-191.5 414,-191.5 414,-191.5 408,-191.5 402,-185.5 402,-179.5 402,-179.5 402,-157.5 402,-157.5 402,-151.5 408,-145.5 414,-145.5"/>
<text text-anchor="middle" x="459.5" y="-176.3" font-family="Times New Roman,serif" font-size="14.00">BookTickets</text>
<polyline fill="none" stroke="black" points="402,-168.5 517,-168.5 "/>
<text text-anchor="middle" x="459.5" y="-153.3" font-family="Times New Roman,serif" font-size="14.00">BookTicketName</text>
</g>
<!-- EAID_DB1C34DE_E1DA_4634_8454_B3E9A6E55224_1&#45;&gt;EAID_FC3FF47A_7475_494a_BA4A_BE777480C1D4_1 -->
<g id="edge16" class="edge"><title>EAID_DB1C34DE_E1DA_4634_8454_B3E9A6E55224_1&#45;&gt;EAID_FC3FF47A_7475_494a_BA4A_BE777480C1D4_1</title>
<path fill="none" stroke="black" d="M468.928,-145.109C472.464,-136.71 476.519,-127.08 480.207,-118.32"/>
<polygon fill="black" stroke="black" points="483.514,-119.487 484.169,-108.912 477.062,-116.77 483.514,-119.487"/>
</g>
<!-- EAID_9C5842BC_3476_4feb_B401_6995547D5B5C_2 -->
<g id="node19" class="node"><title>EAID_9C5842BC_3476_4feb_B401_6995547D5B5C_2</title>
<ellipse fill="none" stroke="black" cx="1202.5" cy="-274.5" rx="115.08" ry="18"/>
<text text-anchor="middle" x="1202.5" y="-270.8" font-family="Times New Roman,serif" font-size="14.00">Actor1&gt;Buy tickets interface</text>
</g>
<!-- EAID_B3D50E04_DAD6_4f06_8799_3A356D8BD509_2 -->
<g id="node21" class="node"><title>EAID_B3D50E04_DAD6_4f06_8799_3A356D8BD509_2</title>
<ellipse fill="none" stroke="black" cx="1116.5" cy="-168.5" rx="129.177" ry="18"/>
<text text-anchor="middle" x="1116.5" y="-164.8" font-family="Times New Roman,serif" font-size="14.00">Buy tickets interface&gt;pay the bill</text>
</g>
<!-- EAID_9C5842BC_3476_4feb_B401_6995547D5B5C_2&#45;&gt;EAID_B3D50E04_DAD6_4f06_8799_3A356D8BD509_2 -->
<g id="edge18" class="edge"><title>EAID_9C5842BC_3476_4feb_B401_6995547D5B5C_2&#45;&gt;EAID_B3D50E04_DAD6_4f06_8799_3A356D8BD509_2</title>
<path fill="none" stroke="black" d="M1188.3,-256.327C1174.36,-239.466 1152.94,-213.564 1137.12,-194.436"/>
<polygon fill="black" stroke="black" points="1139.79,-192.175 1130.72,-186.699 1134.4,-196.636 1139.79,-192.175"/>
</g>
<!-- EAID_D74B2E4B_A09B_490c_8A63_FD182DD29007_2 -->
<g id="node20" class="node"><title>EAID_D74B2E4B_A09B_490c_8A63_FD182DD29007_2</title>
<polygon fill="none" stroke="black" points="1137.5,-362.5 1137.5,-398.5 1267.5,-398.5 1267.5,-362.5 1137.5,-362.5"/>
<text text-anchor="middle" x="1202.5" y="-376.8" font-family="Times New Roman,serif" font-size="14.00">Buy tickets interface</text>
</g>
<!-- EAID_D74B2E4B_A09B_490c_8A63_FD182DD29007_2&#45;&gt;EAID_9C5842BC_3476_4feb_B401_6995547D5B5C_2 -->
<g id="edge17" class="edge"><title>EAID_D74B2E4B_A09B_490c_8A63_FD182DD29007_2&#45;&gt;EAID_9C5842BC_3476_4feb_B401_6995547D5B5C_2</title>
<path fill="none" stroke="black" d="M1202.5,-362.327C1202.5,-346.143 1202.5,-321.631 1202.5,-302.773"/>
<polygon fill="black" stroke="black" points="1206,-302.699 1202.5,-292.699 1199,-302.699 1206,-302.699"/>
</g>
<!-- EAID_8C58C66D_45E4_4fa9_87A1_6F9F01F7061D_2 -->
<g id="node23" class="node"><title>EAID_8C58C66D_45E4_4fa9_87A1_6F9F01F7061D_2</title>
<ellipse fill="none" stroke="black" cx="1015.5" cy="-90.5" rx="115.08" ry="18"/>
<text text-anchor="middle" x="1015.5" y="-86.8" font-family="Times New Roman,serif" font-size="14.00">pay the bill&gt;save bill records</text>
</g>
<!-- EAID_B3D50E04_DAD6_4f06_8799_3A356D8BD509_2&#45;&gt;EAID_8C58C66D_45E4_4fa9_87A1_6F9F01F7061D_2 -->
<g id="edge20" class="edge"><title>EAID_B3D50E04_DAD6_4f06_8799_3A356D8BD509_2&#45;&gt;EAID_8C58C66D_45E4_4fa9_87A1_6F9F01F7061D_2</title>
<path fill="none" stroke="black" d="M1094.08,-150.633C1079.96,-140.007 1061.54,-126.147 1046.09,-114.517"/>
<polygon fill="black" stroke="black" points="1047.95,-111.536 1037.85,-108.32 1043.74,-117.129 1047.95,-111.536"/>
</g>
<!-- EAID_4016A4E4_FD98_4efd_A851_B7B01AC79427_2 -->
<g id="node22" class="node"><title>EAID_4016A4E4_FD98_4efd_A851_B7B01AC79427_2</title>
<polygon fill="none" stroke="black" points="992,-256.5 992,-292.5 1069,-292.5 1069,-256.5 992,-256.5"/>
<text text-anchor="middle" x="1030.5" y="-270.8" font-family="Times New Roman,serif" font-size="14.00">pay the bill</text>
</g>
<!-- EAID_4016A4E4_FD98_4efd_A851_B7B01AC79427_2&#45;&gt;EAID_B3D50E04_DAD6_4f06_8799_3A356D8BD509_2 -->
<g id="edge19" class="edge"><title>EAID_4016A4E4_FD98_4efd_A851_B7B01AC79427_2&#45;&gt;EAID_B3D50E04_DAD6_4f06_8799_3A356D8BD509_2</title>
<path fill="none" stroke="black" d="M1044.7,-256.327C1058.64,-239.466 1080.06,-213.564 1095.88,-194.436"/>
<polygon fill="black" stroke="black" points="1098.6,-196.636 1102.28,-186.699 1093.21,-192.175 1098.6,-196.636"/>
</g>
<!-- EAID_FB752BC8_2742_4b54_A120_66A641D914CC_2 -->
<g id="node24" class="node"><title>EAID_FB752BC8_2742_4b54_A120_66A641D914CC_2</title>
<polygon fill="none" stroke="black" points="861.5,-150.5 861.5,-186.5 969.5,-186.5 969.5,-150.5 861.5,-150.5"/>
<text text-anchor="middle" x="915.5" y="-164.8" font-family="Times New Roman,serif" font-size="14.00">save bill records</text>
</g>
<!-- EAID_FB752BC8_2742_4b54_A120_66A641D914CC_2&#45;&gt;EAID_8C58C66D_45E4_4fa9_87A1_6F9F01F7061D_2 -->
<g id="edge21" class="edge"><title>EAID_FB752BC8_2742_4b54_A120_66A641D914CC_2&#45;&gt;EAID_8C58C66D_45E4_4fa9_87A1_6F9F01F7061D_2</title>
<path fill="none" stroke="black" d="M938.192,-150.254C952.097,-139.686 970.068,-126.028 985.183,-114.541"/>
<polygon fill="black" stroke="black" points="987.399,-117.253 993.243,-108.416 983.163,-111.68 987.399,-117.253"/>
</g>
<!-- EAID_9C5842BC_3476_4feb_B401_6995547D5B5C_3 -->
<g id="node25" class="node"><title>EAID_9C5842BC_3476_4feb_B401_6995547D5B5C_3</title>
<ellipse fill="none" stroke="black" cx="1660.5" cy="-274.5" rx="115.08" ry="18"/>
<text text-anchor="middle" x="1660.5" y="-270.8" font-family="Times New Roman,serif" font-size="14.00">Actor1&gt;Buy tickets interface</text>
</g>
<!-- EAID_B3D50E04_DAD6_4f06_8799_3A356D8BD509_3 -->
<g id="node27" class="node"><title>EAID_B3D50E04_DAD6_4f06_8799_3A356D8BD509_3</title>
<ellipse fill="none" stroke="black" cx="1574.5" cy="-168.5" rx="129.177" ry="18"/>
<text text-anchor="middle" x="1574.5" y="-164.8" font-family="Times New Roman,serif" font-size="14.00">Buy tickets interface&gt;pay the bill</text>
</g>
<!-- EAID_9C5842BC_3476_4feb_B401_6995547D5B5C_3&#45;&gt;EAID_B3D50E04_DAD6_4f06_8799_3A356D8BD509_3 -->
<g id="edge23" class="edge"><title>EAID_9C5842BC_3476_4feb_B401_6995547D5B5C_3&#45;&gt;EAID_B3D50E04_DAD6_4f06_8799_3A356D8BD509_3</title>
<path fill="none" stroke="black" d="M1646.3,-256.327C1632.36,-239.466 1610.94,-213.564 1595.12,-194.436"/>
<polygon fill="black" stroke="black" points="1597.79,-192.175 1588.72,-186.699 1592.4,-196.636 1597.79,-192.175"/>
</g>
<!-- EAID_D74B2E4B_A09B_490c_8A63_FD182DD29007_3 -->
<g id="node26" class="node"><title>EAID_D74B2E4B_A09B_490c_8A63_FD182DD29007_3</title>
<polygon fill="none" stroke="black" points="1595.5,-362.5 1595.5,-398.5 1725.5,-398.5 1725.5,-362.5 1595.5,-362.5"/>
<text text-anchor="middle" x="1660.5" y="-376.8" font-family="Times New Roman,serif" font-size="14.00">Buy tickets interface</text>
</g>
<!-- EAID_D74B2E4B_A09B_490c_8A63_FD182DD29007_3&#45;&gt;EAID_9C5842BC_3476_4feb_B401_6995547D5B5C_3 -->
<g id="edge22" class="edge"><title>EAID_D74B2E4B_A09B_490c_8A63_FD182DD29007_3&#45;&gt;EAID_9C5842BC_3476_4feb_B401_6995547D5B5C_3</title>
<path fill="none" stroke="black" d="M1660.5,-362.327C1660.5,-346.143 1660.5,-321.631 1660.5,-302.773"/>
<polygon fill="black" stroke="black" points="1664,-302.699 1660.5,-292.699 1657,-302.699 1664,-302.699"/>
</g>
<!-- EAID_8327B0A9_4996_4c98_964F_9E8CFB2472A5_3 -->
<g id="node29" class="node"><title>EAID_8327B0A9_4996_4c98_964F_9E8CFB2472A5_3</title>
<ellipse fill="none" stroke="black" cx="1459.5" cy="-90.5" rx="150.574" ry="18"/>
<text text-anchor="middle" x="1459.5" y="-86.8" font-family="Times New Roman,serif" font-size="14.00">pay the bill&gt;payment success message</text>
</g>
<!-- EAID_B3D50E04_DAD6_4f06_8799_3A356D8BD509_3&#45;&gt;EAID_8327B0A9_4996_4c98_964F_9E8CFB2472A5_3 -->
<g id="edge25" class="edge"><title>EAID_B3D50E04_DAD6_4f06_8799_3A356D8BD509_3&#45;&gt;EAID_8327B0A9_4996_4c98_964F_9E8CFB2472A5_3</title>
<path fill="none" stroke="black" d="M1549.26,-150.821C1532.9,-140.007 1511.38,-125.786 1493.51,-113.979"/>
<polygon fill="black" stroke="black" points="1495.35,-110.996 1485.08,-108.402 1491.49,-116.836 1495.35,-110.996"/>
</g>
<!-- EAID_4016A4E4_FD98_4efd_A851_B7B01AC79427_3 -->
<g id="node28" class="node"><title>EAID_4016A4E4_FD98_4efd_A851_B7B01AC79427_3</title>
<polygon fill="none" stroke="black" points="1450,-256.5 1450,-292.5 1527,-292.5 1527,-256.5 1450,-256.5"/>
<text text-anchor="middle" x="1488.5" y="-270.8" font-family="Times New Roman,serif" font-size="14.00">pay the bill</text>
</g>
<!-- EAID_4016A4E4_FD98_4efd_A851_B7B01AC79427_3&#45;&gt;EAID_B3D50E04_DAD6_4f06_8799_3A356D8BD509_3 -->
<g id="edge24" class="edge"><title>EAID_4016A4E4_FD98_4efd_A851_B7B01AC79427_3&#45;&gt;EAID_B3D50E04_DAD6_4f06_8799_3A356D8BD509_3</title>
<path fill="none" stroke="black" d="M1502.7,-256.327C1516.64,-239.466 1538.06,-213.564 1553.88,-194.436"/>
<polygon fill="black" stroke="black" points="1556.6,-196.636 1560.28,-186.699 1551.21,-192.175 1556.6,-196.636"/>
</g>
<!-- EAID_1A829F8F_037D_4396_9248_AB80B239B2AE_3 -->
<g id="node30" class="node"><title>EAID_1A829F8F_037D_4396_9248_AB80B239B2AE_3</title>
<polygon fill="none" stroke="black" points="1264,-150.5 1264,-186.5 1427,-186.5 1427,-150.5 1264,-150.5"/>
<text text-anchor="middle" x="1345.5" y="-164.8" font-family="Times New Roman,serif" font-size="14.00">payment success message</text>
</g>
<!-- EAID_1A829F8F_037D_4396_9248_AB80B239B2AE_3&#45;&gt;EAID_8327B0A9_4996_4c98_964F_9E8CFB2472A5_3 -->
<g id="edge26" class="edge"><title>EAID_1A829F8F_037D_4396_9248_AB80B239B2AE_3&#45;&gt;EAID_8327B0A9_4996_4c98_964F_9E8CFB2472A5_3</title>
<path fill="none" stroke="black" d="M1371.08,-150.444C1387.07,-139.785 1407.86,-125.93 1425.25,-114.33"/>
<polygon fill="black" stroke="black" points="1427.62,-116.958 1434,-108.499 1423.74,-111.134 1427.62,-116.958"/>
</g>
<!-- EAID_A5345FDE_379A_4e77_8939_3CB2BE8187D6_4 -->
<g id="node31" class="node"><title>EAID_A5345FDE_379A_4e77_8939_3CB2BE8187D6_4</title>
<ellipse fill="none" stroke="black" cx="1930.5" cy="-274.5" rx="136.476" ry="18"/>
<text text-anchor="middle" x="1930.5" y="-270.8" font-family="Times New Roman,serif" font-size="14.00">Actor1&gt;payment success message</text>
</g>
<!-- EAID_1A829F8F_037D_4396_9248_AB80B239B2AE_4 -->
<g id="node32" class="node"><title>EAID_1A829F8F_037D_4396_9248_AB80B239B2AE_4</title>
<polygon fill="none" stroke="black" points="1849,-362.5 1849,-398.5 2012,-398.5 2012,-362.5 1849,-362.5"/>
<text text-anchor="middle" x="1930.5" y="-376.8" font-family="Times New Roman,serif" font-size="14.00">payment success message</text>
</g>
<!-- EAID_1A829F8F_037D_4396_9248_AB80B239B2AE_4&#45;&gt;EAID_A5345FDE_379A_4e77_8939_3CB2BE8187D6_4 -->
<g id="edge27" class="edge"><title>EAID_1A829F8F_037D_4396_9248_AB80B239B2AE_4&#45;&gt;EAID_A5345FDE_379A_4e77_8939_3CB2BE8187D6_4</title>
<path fill="none" stroke="black" d="M1930.5,-362.327C1930.5,-346.143 1930.5,-321.631 1930.5,-302.773"/>
<polygon fill="black" stroke="black" points="1934,-302.699 1930.5,-292.699 1927,-302.699 1934,-302.699"/>
</g>
<!-- EAID_C93863FE_220D_44dc_9668_0B23BEB65A9A_5 -->
<g id="node33" class="node"><title>EAID_C93863FE_220D_44dc_9668_0B23BEB65A9A_5</title>
<ellipse fill="none" stroke="black" cx="2207.5" cy="-380.5" rx="58.4896" ry="18"/>
<text text-anchor="middle" x="2207.5" y="-376.8" font-family="Times New Roman,serif" font-size="14.00">ActivityInitial</text>
</g>
<!-- EAID_FC7B0E7C_172B_4612_98DC_7BBA0C7C0E55_5 -->
<g id="node34" class="node"><title>EAID_FC7B0E7C_172B_4612_98DC_7BBA0C7C0E55_5</title>
<ellipse fill="none" stroke="black" cx="2207.5" cy="-274.5" rx="122.379" ry="18"/>
<text text-anchor="middle" x="2207.5" y="-270.8" font-family="Times New Roman,serif" font-size="14.00">Input Username and Password</text>
</g>
<!-- EAID_C93863FE_220D_44dc_9668_0B23BEB65A9A_5&#45;&gt;EAID_FC7B0E7C_172B_4612_98DC_7BBA0C7C0E55_5 -->
<g id="edge28" class="edge"><title>EAID_C93863FE_220D_44dc_9668_0B23BEB65A9A_5&#45;&gt;EAID_FC7B0E7C_172B_4612_98DC_7BBA0C7C0E55_5</title>
<path fill="none" stroke="black" d="M2207.5,-362.327C2207.5,-346.143 2207.5,-321.631 2207.5,-302.773"/>
<polygon fill="black" stroke="black" points="2211,-302.699 2207.5,-292.699 2204,-302.699 2211,-302.699"/>
</g>
<!-- EAID_DD237FDE_EE4D_4fad_B594_47DE1792DC51_5 -->
<g id="node35" class="node"><title>EAID_DD237FDE_EE4D_4fad_B594_47DE1792DC51_5</title>
<ellipse fill="none" stroke="black" cx="2138.5" cy="-168.5" rx="104.782" ry="18"/>
<text text-anchor="middle" x="2138.5" y="-164.8" font-family="Times New Roman,serif" font-size="14.00">Validate User Information</text>
</g>
<!-- EAID_FC7B0E7C_172B_4612_98DC_7BBA0C7C0E55_5&#45;&gt;EAID_DD237FDE_EE4D_4fad_B594_47DE1792DC51_5 -->
<g id="edge29" class="edge"><title>EAID_FC7B0E7C_172B_4612_98DC_7BBA0C7C0E55_5&#45;&gt;EAID_DD237FDE_EE4D_4fad_B594_47DE1792DC51_5</title>
<path fill="none" stroke="black" d="M2196.11,-256.327C2185.07,-239.691 2168.19,-214.256 2155.56,-195.208"/>
<polygon fill="black" stroke="black" points="2158.36,-193.097 2149.91,-186.699 2152.52,-196.967 2158.36,-193.097"/>
</g>
<!-- EAID_386D0AF1_B46C_4697_9801_1546B18CB6A9_5 -->
<g id="node36" class="node"><title>EAID_386D0AF1_B46C_4697_9801_1546B18CB6A9_5</title>
<ellipse fill="none" stroke="black" cx="2204.5" cy="-90.5" rx="46.2923" ry="18"/>
<text text-anchor="middle" x="2204.5" y="-86.8" font-family="Times New Roman,serif" font-size="14.00">undefined</text>
</g>
<!-- EAID_DD237FDE_EE4D_4fad_B594_47DE1792DC51_5&#45;&gt;EAID_386D0AF1_B46C_4697_9801_1546B18CB6A9_5 -->
<g id="edge30" class="edge"><title>EAID_DD237FDE_EE4D_4fad_B594_47DE1792DC51_5&#45;&gt;EAID_386D0AF1_B46C_4697_9801_1546B18CB6A9_5</title>
<path fill="none" stroke="black" d="M2153.15,-150.633C2162.07,-140.358 2173.62,-127.06 2183.5,-115.677"/>
<polygon fill="black" stroke="black" points="2186.43,-117.643 2190.35,-107.798 2181.15,-113.054 2186.43,-117.643"/>
</g>
<!-- EAID_386D0AF1_B46C_4697_9801_1546B18CB6A9_5&#45;&gt;EAID_FC7B0E7C_172B_4612_98DC_7BBA0C7C0E55_5 -->
<g id="edge31" class="edge"><title>EAID_386D0AF1_B46C_4697_9801_1546B18CB6A9_5&#45;&gt;EAID_FC7B0E7C_172B_4612_98DC_7BBA0C7C0E55_5</title>
<path fill="none" stroke="black" d="M2224.22,-107.062C2234.79,-116.708 2246.79,-130.083 2252.5,-145 2266.09,-180.501 2244.85,-222.11 2227.17,-248.142"/>
<polygon fill="black" stroke="black" points="2224.29,-246.157 2221.37,-256.342 2230,-250.2 2224.29,-246.157"/>
</g>
<!-- EAID_C93863FE_220D_44dc_9668_0B23BEB65A9A_6 -->
<g id="node37" class="node"><title>EAID_C93863FE_220D_44dc_9668_0B23BEB65A9A_6</title>
<ellipse fill="none" stroke="black" cx="2469.5" cy="-380.5" rx="58.4896" ry="18"/>
<text text-anchor="middle" x="2469.5" y="-376.8" font-family="Times New Roman,serif" font-size="14.00">ActivityInitial</text>
</g>
<!-- EAID_FC7B0E7C_172B_4612_98DC_7BBA0C7C0E55_6 -->
<g id="node38" class="node"><title>EAID_FC7B0E7C_172B_4612_98DC_7BBA0C7C0E55_6</title>
<ellipse fill="none" stroke="black" cx="2469.5" cy="-274.5" rx="122.379" ry="18"/>
<text text-anchor="middle" x="2469.5" y="-270.8" font-family="Times New Roman,serif" font-size="14.00">Input Username and Password</text>
</g>
<!-- EAID_C93863FE_220D_44dc_9668_0B23BEB65A9A_6&#45;&gt;EAID_FC7B0E7C_172B_4612_98DC_7BBA0C7C0E55_6 -->
<g id="edge32" class="edge"><title>EAID_C93863FE_220D_44dc_9668_0B23BEB65A9A_6&#45;&gt;EAID_FC7B0E7C_172B_4612_98DC_7BBA0C7C0E55_6</title>
<path fill="none" stroke="black" d="M2469.5,-362.327C2469.5,-346.143 2469.5,-321.631 2469.5,-302.773"/>
<polygon fill="black" stroke="black" points="2473,-302.699 2469.5,-292.699 2466,-302.699 2473,-302.699"/>
</g>
<!-- EAID_DD237FDE_EE4D_4fad_B594_47DE1792DC51_6 -->
<g id="node39" class="node"><title>EAID_DD237FDE_EE4D_4fad_B594_47DE1792DC51_6</title>
<ellipse fill="none" stroke="black" cx="2469.5" cy="-168.5" rx="104.782" ry="18"/>
<text text-anchor="middle" x="2469.5" y="-164.8" font-family="Times New Roman,serif" font-size="14.00">Validate User Information</text>
</g>
<!-- EAID_FC7B0E7C_172B_4612_98DC_7BBA0C7C0E55_6&#45;&gt;EAID_DD237FDE_EE4D_4fad_B594_47DE1792DC51_6 -->
<g id="edge33" class="edge"><title>EAID_FC7B0E7C_172B_4612_98DC_7BBA0C7C0E55_6&#45;&gt;EAID_DD237FDE_EE4D_4fad_B594_47DE1792DC51_6</title>
<path fill="none" stroke="black" d="M2469.5,-256.327C2469.5,-240.143 2469.5,-215.631 2469.5,-196.773"/>
<polygon fill="black" stroke="black" points="2473,-196.699 2469.5,-186.699 2466,-196.699 2473,-196.699"/>
</g>
<!-- EAID_386D0AF1_B46C_4697_9801_1546B18CB6A9_6 -->
<g id="node40" class="node"><title>EAID_386D0AF1_B46C_4697_9801_1546B18CB6A9_6</title>
<ellipse fill="none" stroke="black" cx="2469.5" cy="-90.5" rx="46.2923" ry="18"/>
<text text-anchor="middle" x="2469.5" y="-86.8" font-family="Times New Roman,serif" font-size="14.00">undefined</text>
</g>
<!-- EAID_DD237FDE_EE4D_4fad_B594_47DE1792DC51_6&#45;&gt;EAID_386D0AF1_B46C_4697_9801_1546B18CB6A9_6 -->
<g id="edge34" class="edge"><title>EAID_DD237FDE_EE4D_4fad_B594_47DE1792DC51_6&#45;&gt;EAID_386D0AF1_B46C_4697_9801_1546B18CB6A9_6</title>
<path fill="none" stroke="black" d="M2469.5,-150.254C2469.5,-141.023 2469.5,-129.435 2469.5,-118.995"/>
<polygon fill="black" stroke="black" points="2473,-118.677 2469.5,-108.677 2466,-118.677 2473,-118.677"/>
</g>
<!-- EAID_57571220_8292_4867_AD5D_2A623D1B57B7_6 -->
<g id="node41" class="node"><title>EAID_57571220_8292_4867_AD5D_2A623D1B57B7_6</title>
<ellipse fill="none" stroke="black" cx="2469.5" cy="-18" rx="56.59" ry="18"/>
<text text-anchor="middle" x="2469.5" y="-14.3" font-family="Times New Roman,serif" font-size="14.00">ActivityFinal</text>
</g>
<!-- EAID_386D0AF1_B46C_4697_9801_1546B18CB6A9_6&#45;&gt;EAID_57571220_8292_4867_AD5D_2A623D1B57B7_6 -->
<g id="edge35" class="edge"><title>EAID_386D0AF1_B46C_4697_9801_1546B18CB6A9_6&#45;&gt;EAID_57571220_8292_4867_AD5D_2A623D1B57B7_6</title>
<path fill="none" stroke="black" d="M2469.5,-72.4339C2469.5,-64.6695 2469.5,-55.2842 2469.5,-46.5597"/>
<polygon fill="black" stroke="black" points="2473,-46.3987 2469.5,-36.3987 2466,-46.3987 2473,-46.3987"/>
</g>
</g>
</svg>
