<?xml version="1.0" encoding="UTF-8" standalone="no"?>
<!DOCTYPE svg PUBLIC "-//W3C//DTD SVG 1.1//EN"
 "http://www.w3.org/Graphics/SVG/1.1/DTD/svg11.dtd">
<!-- Generated by graphviz version 2.38.0 (20140413.2041)
 -->
<!-- Title: g Pages: 1 -->
<svg width="3550pt" height="1054pt"
 viewBox="0.00 0.00 3550.00 1054.00" xmlns="http://www.w3.org/2000/svg" xmlns:xlink="http://www.w3.org/1999/xlink">
<g id="graph0" class="graph" transform="scale(1 1) rotate(0) translate(4 1050)">
<title>g</title>
<polygon fill="white" stroke="none" points="-4,4 -4,-1050 3546,-1050 3546,4 -4,4"/>
<g id="clust1" class="cluster"><title>cluster0</title>
<polygon fill="none" stroke="black" stroke-width="2" points="1021,-380 1021,-940 1435,-940 1435,-380 1021,-380"/>
<text text-anchor="start" x="1206" y="-925.8" font-family="Times New Roman,serif" font-weight="bold" font-size="14.00">System</text>
</g>
<g id="clust4" class="cluster"><title>cluster1000</title>
<polygon fill="none" stroke="black" stroke-width="2" points="8,-8 8,-372 3534,-372 3534,-8 8,-8"/>
<text text-anchor="start" x="1725.5" y="-357.8" font-family="Times New Roman,serif" font-weight="bold" font-size="14.00">Domain Model</text>
</g>
<g id="clust2" class="cluster"><title>cluster1</title>
<polygon fill="none" stroke="black" stroke-width="2" points="1063,-948 1063,-1038 1247,-1038 1247,-948 1063,-948"/>
<text text-anchor="start" x="1137.5" y="-1023.8" font-family="Times New Roman,serif" font-weight="bold" font-size="14.00">Actor</text>
</g>
<g id="clust3" class="cluster"><title>cluster2</title>
<polygon fill="none" stroke="black" stroke-width="2" points="1255,-948 1255,-1038 1433,-1038 1433,-948 1255,-948"/>
<text text-anchor="start" x="1329.5" y="-1023.8" font-family="Times New Roman,serif" font-weight="bold" font-size="14.00">User</text>
</g>
<!-- EAID_4CAE859B_7D10_4de9_9761_2A4B55F6C24D___EAID_10A9BA8F_79C2_4d47_B971_585F99CB165A -->
<g id="node1" class="node"><title>EAID_4CAE859B_7D10_4de9_9761_2A4B55F6C24D___EAID_10A9BA8F_79C2_4d47_B971_585F99CB165A</title>
<image xlink:href="img/activity_icon.png" width="30px" height="20px" preserveAspectRatio="xMinYMin meet" x="1151.5" y="-902.5"/>
<text text-anchor="start" x="1104" y="-868.3" font-family="Times New Roman,serif" font-weight="bold" font-size="14.00">Actor:Log In Screen</text>
</g>
<!-- EAID_10A9BA8F_79C2_4d47_B971_585F99CB165A___EAID_75CE6DAF_0894_4cb1_8B6E_B06901CE9DEE -->
<g id="node4" class="node"><title>EAID_10A9BA8F_79C2_4d47_B971_585F99CB165A___EAID_75CE6DAF_0894_4cb1_8B6E_B06901CE9DEE</title>
<image xlink:href="img/activity_icon.png" width="30px" height="20px" preserveAspectRatio="xMinYMin meet" x="1308.5" y="-816"/>
<text text-anchor="start" x="1255.5" y="-781.8" font-family="Times New Roman,serif" font-weight="bold" font-size="14.00">Log In Screen:Display</text>
<text text-anchor="start" x="1230" y="-767.8" font-family="Times New Roman,serif" font-weight="bold" font-size="14.00">pop&#45;p &quot;Authentication Failed&quot;</text>
<text text-anchor="start" x="1293.5" y="-753.8" font-family="Times New Roman,serif" font-weight="bold" font-size="14.00">on Log In</text>
<text text-anchor="start" x="1302" y="-739.8" font-family="Times New Roman,serif" font-weight="bold" font-size="14.00">Screen</text>
</g>
<!-- EAID_4CAE859B_7D10_4de9_9761_2A4B55F6C24D___EAID_10A9BA8F_79C2_4d47_B971_585F99CB165A&#45;&gt;EAID_10A9BA8F_79C2_4d47_B971_585F99CB165A___EAID_75CE6DAF_0894_4cb1_8B6E_B06901CE9DEE -->
<g id="edge1" class="edge"><title>EAID_4CAE859B_7D10_4de9_9761_2A4B55F6C24D___EAID_10A9BA8F_79C2_4d47_B971_585F99CB165A&#45;&gt;EAID_10A9BA8F_79C2_4d47_B971_585F99CB165A___EAID_75CE6DAF_0894_4cb1_8B6E_B06901CE9DEE</title>
<path fill="none" stroke="black" d="M1202.81,-857.765C1216.19,-848.772 1231.85,-838.249 1247.36,-827.826"/>
<polygon fill="black" stroke="black" points="1249.6,-830.539 1255.95,-822.056 1245.7,-824.729 1249.6,-830.539"/>
</g>
<!-- EAID_10A9BA8F_79C2_4d47_B971_585F99CB165A___EAID_327980E6_7C9E_4f85_8AAE_393B2881175C -->
<g id="node5" class="node"><title>EAID_10A9BA8F_79C2_4d47_B971_585F99CB165A___EAID_327980E6_7C9E_4f85_8AAE_393B2881175C</title>
<image xlink:href="img/activity_icon.png" width="30px" height="20px" preserveAspectRatio="xMinYMin meet" x="1248" y="-560"/>
<text text-anchor="start" x="1199" y="-525.8" font-family="Times New Roman,serif" font-weight="bold" font-size="14.00">Log In Screen:Verify</text>
<text text-anchor="start" x="1232" y="-511.8" font-family="Times New Roman,serif" font-weight="bold" font-size="14.00">Username</text>
</g>
<!-- EAID_4CAE859B_7D10_4de9_9761_2A4B55F6C24D___EAID_10A9BA8F_79C2_4d47_B971_585F99CB165A&#45;&gt;EAID_10A9BA8F_79C2_4d47_B971_585F99CB165A___EAID_327980E6_7C9E_4f85_8AAE_393B2881175C -->
<g id="edge2" class="edge"><title>EAID_4CAE859B_7D10_4de9_9761_2A4B55F6C24D___EAID_10A9BA8F_79C2_4d47_B971_585F99CB165A&#45;&gt;EAID_10A9BA8F_79C2_4d47_B971_585F99CB165A___EAID_327980E6_7C9E_4f85_8AAE_393B2881175C</title>
<path fill="none" stroke="black" d="M1164.35,-857.892C1161.97,-807.367 1161.61,-689.346 1202,-602 1206.65,-591.943 1213.36,-582.348 1220.64,-573.722"/>
<polygon fill="black" stroke="black" points="1223.41,-575.88 1227.45,-566.087 1218.18,-571.222 1223.41,-575.88"/>
</g>
<!-- EAID_529C10AC_1A49_4686_8DB8_5542FC791CC5 -->
<g id="node17" class="node"><title>EAID_529C10AC_1A49_4686_8DB8_5542FC791CC5</title>
<polygon fill="none" stroke="black" points="1652,-230.5 1652,-251.5 2123,-251.5 2123,-230.5 1652,-230.5"/>
<text text-anchor="start" x="1845" y="-238.3" font-family="Times New Roman,serif" font-weight="bold" font-size="14.00">SignupScreen</text>
<polygon fill="none" stroke="black" points="1652,-209.5 1652,-230.5 2123,-230.5 2123,-209.5 1652,-209.5"/>
<text text-anchor="start" x="1840.5" y="-217.3" font-family="Times New Roman,serif" font-weight="bold" font-size="14.00">SignupScreen()</text>
<polygon fill="none" stroke="black" points="1652,-188.5 1652,-209.5 2123,-209.5 2123,-188.5 1652,-188.5"/>
<text text-anchor="start" x="1655" y="-196.3" font-family="Times New Roman,serif" font-weight="bold" font-size="14.00">DisplaypopupinvalidUseernameorUsernameisalreadyinuseonSignUpScreen()</text>
<polygon fill="none" stroke="black" points="1652,-167.5 1652,-188.5 2123,-188.5 2123,-167.5 1652,-167.5"/>
<text text-anchor="start" x="1823" y="-175.3" font-family="Times New Roman,serif" font-weight="bold" font-size="14.00">ProfilePhotoScreen()</text>
<polygon fill="none" stroke="black" points="1652,-146.5 1652,-167.5 2123,-167.5 2123,-146.5 1652,-146.5"/>
<text text-anchor="start" x="1822" y="-154.3" font-family="Times New Roman,serif" font-weight="bold" font-size="14.00">SetPasswordScreen()</text>
<polygon fill="none" stroke="black" points="1652,-125.5 1652,-146.5 2123,-146.5 2123,-125.5 1652,-125.5"/>
<text text-anchor="start" x="1834.5" y="-133.3" font-family="Times New Roman,serif" font-weight="bold" font-size="14.00">LocationScreen()</text>
<polygon fill="none" stroke="black" points="1652,-104.5 1652,-125.5 2123,-125.5 2123,-104.5 1652,-104.5"/>
<text text-anchor="start" x="1785" y="-112.3" font-family="Times New Roman,serif" font-weight="bold" font-size="14.00">NavigatetoPhotoSelectedScreen()</text>
<polygon fill="none" stroke="black" points="1650.5,-104 1650.5,-253 2123.5,-253 2123.5,-104 1650.5,-104"/>
</g>
<!-- EAID_4CAE859B_7D10_4de9_9761_2A4B55F6C24D___EAID_10A9BA8F_79C2_4d47_B971_585F99CB165A&#45;&gt;EAID_529C10AC_1A49_4686_8DB8_5542FC791CC5 -->
<g id="edge15" class="edge"><title>EAID_4CAE859B_7D10_4de9_9761_2A4B55F6C24D___EAID_10A9BA8F_79C2_4d47_B971_585F99CB165A&#45;&gt;EAID_529C10AC_1A49_4686_8DB8_5542FC791CC5</title>
<path fill="none" stroke="black" stroke-dasharray="5,2" d="M1238.61,-861.349C1243.13,-860.176 1247.62,-859.05 1252,-858 1533.14,-790.579 1868,-938.107 1868,-649 1868,-649 1868,-649 1868,-533 1868,-442.349 1874.31,-338.81 1879.65,-267.326"/>
<polygon fill="black" stroke="black" points="1883.17,-267.253 1880.43,-257.017 1876.19,-266.724 1883.17,-267.253"/>
</g>
<!-- EAID_75CE6DAF_0894_4cb1_8B6E_B06901CE9DEE___EAID_10A9BA8F_79C2_4d47_B971_585F99CB165A -->
<g id="node2" class="node"><title>EAID_75CE6DAF_0894_4cb1_8B6E_B06901CE9DEE___EAID_10A9BA8F_79C2_4d47_B971_585F99CB165A</title>
<image xlink:href="img/activity_icon.png" width="30px" height="20px" preserveAspectRatio="xMinYMin meet" x="1309" y="-688"/>
<text text-anchor="start" x="1231" y="-653.8" font-family="Times New Roman,serif" font-weight="bold" font-size="14.00">Display pop&#45;p &quot;Authentication</text>
<text text-anchor="start" x="1277" y="-639.8" font-family="Times New Roman,serif" font-weight="bold" font-size="14.00">Failed&quot; on Log</text>
<text text-anchor="start" x="1272.5" y="-625.8" font-family="Times New Roman,serif" font-weight="bold" font-size="14.00">In Screen:Log In</text>
<text text-anchor="start" x="1302.5" y="-611.8" font-family="Times New Roman,serif" font-weight="bold" font-size="14.00">Screen</text>
</g>
<!-- EAID_75CE6DAF_0894_4cb1_8B6E_B06901CE9DEE___EAID_10A9BA8F_79C2_4d47_B971_585F99CB165A&#45;&gt;EAID_10A9BA8F_79C2_4d47_B971_585F99CB165A___EAID_75CE6DAF_0894_4cb1_8B6E_B06901CE9DEE -->
<g id="edge4" class="edge"><title>EAID_75CE6DAF_0894_4cb1_8B6E_B06901CE9DEE___EAID_10A9BA8F_79C2_4d47_B971_585F99CB165A&#45;&gt;EAID_10A9BA8F_79C2_4d47_B971_585F99CB165A___EAID_75CE6DAF_0894_4cb1_8B6E_B06901CE9DEE</title>
<path fill="none" stroke="black" d="M1330.15,-694.241C1330.31,-702.478 1330.31,-711.156 1330.14,-719.647"/>
<polygon fill="black" stroke="black" points="1326.64,-719.774 1329.86,-729.867 1333.64,-719.968 1326.64,-719.774"/>
</g>
<!-- EAID_75CE6DAF_0894_4cb1_8B6E_B06901CE9DEE___EAID_10A9BA8F_79C2_4d47_B971_585F99CB165A&#45;&gt;EAID_10A9BA8F_79C2_4d47_B971_585F99CB165A___EAID_327980E6_7C9E_4f85_8AAE_393B2881175C -->
<g id="edge5" class="edge"><title>EAID_75CE6DAF_0894_4cb1_8B6E_B06901CE9DEE___EAID_10A9BA8F_79C2_4d47_B971_585F99CB165A&#45;&gt;EAID_10A9BA8F_79C2_4d47_B971_585F99CB165A___EAID_327980E6_7C9E_4f85_8AAE_393B2881175C</title>
<path fill="none" stroke="black" d="M1299.36,-601.768C1294.61,-593.03 1289.65,-583.927 1284.98,-575.357"/>
<polygon fill="black" stroke="black" points="1287.91,-573.415 1280.05,-566.308 1281.76,-576.764 1287.91,-573.415"/>
</g>
<!-- EAID_75CE6DAF_0894_4cb1_8B6E_B06901CE9DEE___EAID_10A9BA8F_79C2_4d47_B971_585F99CB165A&#45;&gt;EAID_529C10AC_1A49_4686_8DB8_5542FC791CC5 -->
<g id="edge16" class="edge"><title>EAID_75CE6DAF_0894_4cb1_8B6E_B06901CE9DEE___EAID_10A9BA8F_79C2_4d47_B971_585F99CB165A&#45;&gt;EAID_529C10AC_1A49_4686_8DB8_5542FC791CC5</title>
<path fill="none" stroke="black" stroke-dasharray="5,2" d="M1427.46,-629.628C1527.87,-607.739 1678.57,-560.855 1773,-466 1826.69,-412.073 1855.9,-329.702 1871.27,-267.1"/>
<polygon fill="black" stroke="black" points="1874.71,-267.769 1873.62,-257.23 1867.9,-266.148 1874.71,-267.769"/>
</g>
<!-- EAID_327980E6_7C9E_4f85_8AAE_393B2881175C___EAID_75CE6DAF_0894_4cb1_8B6E_B06901CE9DEE -->
<g id="node3" class="node"><title>EAID_327980E6_7C9E_4f85_8AAE_393B2881175C___EAID_75CE6DAF_0894_4cb1_8B6E_B06901CE9DEE</title>
<image xlink:href="img/activity_icon.png" width="30px" height="20px" preserveAspectRatio="xMinYMin meet" x="1306.5" y="-460"/>
<text text-anchor="start" x="1226" y="-425.8" font-family="Times New Roman,serif" font-weight="bold" font-size="14.00">Verify Username:Display pop&#45;p</text>
<text text-anchor="start" x="1238" y="-411.8" font-family="Times New Roman,serif" font-weight="bold" font-size="14.00">&quot;Authentication Failed&quot; on</text>
<text text-anchor="start" x="1278" y="-397.8" font-family="Times New Roman,serif" font-weight="bold" font-size="14.00">Log In Screen</text>
</g>
<!-- EAID_327980E6_7C9E_4f85_8AAE_393B2881175C___EAID_75CE6DAF_0894_4cb1_8B6E_B06901CE9DEE&#45;&gt;EAID_75CE6DAF_0894_4cb1_8B6E_B06901CE9DEE___EAID_10A9BA8F_79C2_4d47_B971_585F99CB165A -->
<g id="edge6" class="edge"><title>EAID_327980E6_7C9E_4f85_8AAE_393B2881175C___EAID_75CE6DAF_0894_4cb1_8B6E_B06901CE9DEE&#45;&gt;EAID_75CE6DAF_0894_4cb1_8B6E_B06901CE9DEE___EAID_10A9BA8F_79C2_4d47_B971_585F99CB165A</title>
<path fill="none" stroke="black" d="M1336.54,-466.183C1340.42,-477.518 1344.04,-490.091 1346,-502 1350.61,-530.068 1349.76,-537.805 1346,-566 1344.88,-574.409 1343.13,-583.183 1341.1,-591.72"/>
<polygon fill="black" stroke="black" points="1337.66,-591.045 1338.6,-601.598 1344.44,-592.76 1337.66,-591.045"/>
</g>
<!-- EAID_7B26ECE6_0137_4ce9_8F52_379D0A30727C -->
<g id="node21" class="node"><title>EAID_7B26ECE6_0137_4ce9_8F52_379D0A30727C</title>
<polygon fill="none" stroke="black" points="814,-220.5 814,-241.5 1127,-241.5 1127,-220.5 814,-220.5"/>
<text text-anchor="start" x="821.5" y="-228.3" font-family="Times New Roman,serif" font-weight="bold" font-size="14.00">DisplaypoppAuthenticationFailedonLogInScreen</text>
<polygon fill="none" stroke="black" points="814,-199.5 814,-220.5 1127,-220.5 1127,-199.5 814,-199.5"/>
<text text-anchor="start" x="817" y="-207.3" font-family="Times New Roman,serif" font-weight="bold" font-size="14.00">DisplaypoppAuthenticationFailedonLogInScreen()</text>
<polygon fill="none" stroke="black" points="814,-178.5 814,-199.5 1127,-199.5 1127,-178.5 814,-178.5"/>
<text text-anchor="start" x="863.5" y="-186.3" font-family="Times New Roman,serif" font-weight="bold" font-size="14.00">Deleteexpiredeventsautomatically()</text>
<polygon fill="none" stroke="black" points="814,-157.5 814,-178.5 1127,-178.5 1127,-157.5 814,-157.5"/>
<text text-anchor="start" x="919" y="-165.3" font-family="Times New Roman,serif" font-weight="bold" font-size="14.00">currentlocation()</text>
<polygon fill="none" stroke="black" points="814,-136.5 814,-157.5 1127,-157.5 1127,-136.5 814,-136.5"/>
<text text-anchor="start" x="909.5" y="-144.3" font-family="Times New Roman,serif" font-weight="bold" font-size="14.00">displayloginscreen()</text>
<polygon fill="none" stroke="black" points="814,-115.5 814,-136.5 1127,-136.5 1127,-115.5 814,-115.5"/>
<text text-anchor="start" x="876.5" y="-123.3" font-family="Times New Roman,serif" font-weight="bold" font-size="14.00">DisplayRemainingEventTime()</text>
<polygon fill="none" stroke="black" points="812.5,-114.5 812.5,-242.5 1127.5,-242.5 1127.5,-114.5 812.5,-114.5"/>
</g>
<!-- EAID_327980E6_7C9E_4f85_8AAE_393B2881175C___EAID_75CE6DAF_0894_4cb1_8B6E_B06901CE9DEE&#45;&gt;EAID_7B26ECE6_0137_4ce9_8F52_379D0A30727C -->
<g id="edge17" class="edge"><title>EAID_327980E6_7C9E_4f85_8AAE_393B2881175C___EAID_75CE6DAF_0894_4cb1_8B6E_B06901CE9DEE&#45;&gt;EAID_7B26ECE6_0137_4ce9_8F52_379D0A30727C</title>
<path fill="none" stroke="black" stroke-dasharray="5,2" d="M1232.27,-387.984C1223.49,-384.988 1214.63,-382.255 1206,-380 1179.54,-373.091 1169.23,-384.668 1145,-372 1093.4,-345.027 1049.4,-296.409 1018.42,-254.784"/>
<polygon fill="black" stroke="black" points="1021.13,-252.562 1012.4,-246.56 1015.48,-256.697 1021.13,-252.562"/>
</g>
<!-- EAID_10A9BA8F_79C2_4d47_B971_585F99CB165A___EAID_75CE6DAF_0894_4cb1_8B6E_B06901CE9DEE&#45;&gt;EAID_75CE6DAF_0894_4cb1_8B6E_B06901CE9DEE___EAID_10A9BA8F_79C2_4d47_B971_585F99CB165A -->
<g id="edge7" class="edge"><title>EAID_10A9BA8F_79C2_4d47_B971_585F99CB165A___EAID_75CE6DAF_0894_4cb1_8B6E_B06901CE9DEE&#45;&gt;EAID_75CE6DAF_0894_4cb1_8B6E_B06901CE9DEE___EAID_10A9BA8F_79C2_4d47_B971_585F99CB165A</title>
<path fill="none" stroke="black" d="M1316.86,-729.867C1316.69,-721.634 1316.69,-712.957 1316.85,-704.465"/>
<polygon fill="black" stroke="black" points="1320.36,-704.334 1317.14,-694.241 1313.36,-704.141 1320.36,-704.334"/>
</g>
<!-- EAID_10A9BA8F_79C2_4d47_B971_585F99CB165A___EAID_75CE6DAF_0894_4cb1_8B6E_B06901CE9DEE&#45;&gt;EAID_7B26ECE6_0137_4ce9_8F52_379D0A30727C -->
<g id="edge18" class="edge"><title>EAID_10A9BA8F_79C2_4d47_B971_585F99CB165A___EAID_75CE6DAF_0894_4cb1_8B6E_B06901CE9DEE&#45;&gt;EAID_7B26ECE6_0137_4ce9_8F52_379D0A30727C</title>
<path fill="none" stroke="black" stroke-dasharray="5,2" d="M1426.68,-737.128C1598.74,-669.069 1911.31,-520.086 1773,-380 1760.74,-367.586 1160.91,-379.159 1145,-372 1091.02,-347.709 1046.45,-297.84 1015.79,-254.947"/>
<polygon fill="black" stroke="black" points="1018.65,-252.925 1010.04,-246.75 1012.92,-256.946 1018.65,-252.925"/>
</g>
<!-- EAID_10A9BA8F_79C2_4d47_B971_585F99CB165A___EAID_327980E6_7C9E_4f85_8AAE_393B2881175C&#45;&gt;EAID_327980E6_7C9E_4f85_8AAE_393B2881175C___EAID_75CE6DAF_0894_4cb1_8B6E_B06901CE9DEE -->
<g id="edge8" class="edge"><title>EAID_10A9BA8F_79C2_4d47_B971_585F99CB165A___EAID_327980E6_7C9E_4f85_8AAE_393B2881175C&#45;&gt;EAID_327980E6_7C9E_4f85_8AAE_393B2881175C___EAID_75CE6DAF_0894_4cb1_8B6E_B06901CE9DEE</title>
<path fill="none" stroke="black" d="M1280.24,-501.781C1284.85,-493.439 1289.94,-484.233 1294.91,-475.236"/>
<polygon fill="black" stroke="black" points="1298.05,-476.794 1299.82,-466.348 1291.92,-473.409 1298.05,-476.794"/>
</g>
<!-- EAID_327980E6_7C9E_4f85_8AAE_393B2881175C___EAID_10A9BA8F_79C2_4d47_B971_585F99CB165A -->
<g id="node6" class="node"><title>EAID_327980E6_7C9E_4f85_8AAE_393B2881175C___EAID_10A9BA8F_79C2_4d47_B971_585F99CB165A</title>
<image xlink:href="img/activity_icon.png" width="30px" height="20px" preserveAspectRatio="xMinYMin meet" x="1098" y="-453"/>
<text text-anchor="start" x="1039" y="-418.8" font-family="Times New Roman,serif" font-weight="bold" font-size="14.00">Verify Username:Log In</text>
<text text-anchor="start" x="1091.5" y="-404.8" font-family="Times New Roman,serif" font-weight="bold" font-size="14.00">Screen</text>
</g>
<!-- EAID_10A9BA8F_79C2_4d47_B971_585F99CB165A___EAID_327980E6_7C9E_4f85_8AAE_393B2881175C&#45;&gt;EAID_327980E6_7C9E_4f85_8AAE_393B2881175C___EAID_10A9BA8F_79C2_4d47_B971_585F99CB165A -->
<g id="edge9" class="edge"><title>EAID_10A9BA8F_79C2_4d47_B971_585F99CB165A___EAID_327980E6_7C9E_4f85_8AAE_393B2881175C&#45;&gt;EAID_327980E6_7C9E_4f85_8AAE_393B2881175C___EAID_10A9BA8F_79C2_4d47_B971_585F99CB165A</title>
<path fill="none" stroke="black" d="M1212.17,-501.781C1195.18,-490.301 1176.36,-477.188 1159.7,-465.231"/>
<polygon fill="black" stroke="black" points="1161.36,-462.114 1151.2,-459.099 1157.26,-467.79 1161.36,-462.114"/>
</g>
<!-- EAID_327980E6_7C9E_4f85_8AAE_393B2881175C -->
<g id="node26" class="node"><title>EAID_327980E6_7C9E_4f85_8AAE_393B2881175C</title>
<text text-anchor="middle" x="1604" y="-423.3" font-family="Times New Roman,serif" font-size="14.00">EAID_327980E6_7C9E_4f85_8AAE_393B2881175C</text>
</g>
<!-- EAID_10A9BA8F_79C2_4d47_B971_585F99CB165A___EAID_327980E6_7C9E_4f85_8AAE_393B2881175C&#45;&gt;EAID_327980E6_7C9E_4f85_8AAE_393B2881175C -->
<g id="edge19" class="edge"><title>EAID_10A9BA8F_79C2_4d47_B971_585F99CB165A___EAID_327980E6_7C9E_4f85_8AAE_393B2881175C&#45;&gt;EAID_327980E6_7C9E_4f85_8AAE_393B2881175C</title>
<path fill="none" stroke="black" stroke-dasharray="5,2" d="M1337.41,-510.087C1397.62,-491.548 1481.56,-465.702 1539.07,-447.992"/>
<polygon fill="black" stroke="black" points="1540.25,-451.291 1548.78,-445.003 1538.19,-444.601 1540.25,-451.291"/>
</g>
<!-- EAID_327980E6_7C9E_4f85_8AAE_393B2881175C___EAID_10A9BA8F_79C2_4d47_B971_585F99CB165A&#45;&gt;EAID_10A9BA8F_79C2_4d47_B971_585F99CB165A___EAID_75CE6DAF_0894_4cb1_8B6E_B06901CE9DEE -->
<g id="edge10" class="edge"><title>EAID_327980E6_7C9E_4f85_8AAE_393B2881175C___EAID_10A9BA8F_79C2_4d47_B971_585F99CB165A&#45;&gt;EAID_10A9BA8F_79C2_4d47_B971_585F99CB165A___EAID_75CE6DAF_0894_4cb1_8B6E_B06901CE9DEE</title>
<path fill="none" stroke="black" d="M1118.49,-459.125C1129.03,-511.896 1156.21,-620.356 1212,-694 1220.11,-704.711 1230.03,-714.63 1240.57,-723.587"/>
<polygon fill="black" stroke="black" points="1238.37,-726.314 1248.33,-729.937 1242.8,-720.896 1238.37,-726.314"/>
</g>
<!-- EAID_327980E6_7C9E_4f85_8AAE_393B2881175C___EAID_10A9BA8F_79C2_4d47_B971_585F99CB165A&#45;&gt;EAID_10A9BA8F_79C2_4d47_B971_585F99CB165A___EAID_327980E6_7C9E_4f85_8AAE_393B2881175C -->
<g id="edge11" class="edge"><title>EAID_327980E6_7C9E_4f85_8AAE_393B2881175C___EAID_10A9BA8F_79C2_4d47_B971_585F99CB165A&#45;&gt;EAID_10A9BA8F_79C2_4d47_B971_585F99CB165A___EAID_327980E6_7C9E_4f85_8AAE_393B2881175C</title>
<path fill="none" stroke="black" d="M1163.65,-459.099C1180.63,-470.567 1199.45,-483.679 1216.13,-495.644"/>
<polygon fill="black" stroke="black" points="1214.47,-498.767 1224.63,-501.781 1218.57,-493.091 1214.47,-498.767"/>
</g>
<!-- EAID_327980E6_7C9E_4f85_8AAE_393B2881175C___EAID_10A9BA8F_79C2_4d47_B971_585F99CB165A&#45;&gt;EAID_529C10AC_1A49_4686_8DB8_5542FC791CC5 -->
<g id="edge20" class="edge"><title>EAID_327980E6_7C9E_4f85_8AAE_393B2881175C___EAID_10A9BA8F_79C2_4d47_B971_585F99CB165A&#45;&gt;EAID_529C10AC_1A49_4686_8DB8_5542FC791CC5</title>
<path fill="none" stroke="black" stroke-dasharray="5,2" d="M1166.66,-394.797C1179.48,-388.753 1193.4,-383.284 1207,-380 1253.13,-368.863 1589.18,-387.582 1634,-372 1697.83,-349.811 1758.47,-304.815 1804.38,-263.903"/>
<polygon fill="black" stroke="black" points="1806.82,-266.41 1811.91,-257.113 1802.14,-261.212 1806.82,-266.41"/>
</g>
<!-- EAID_C12EB1CC_0086_4c02_832E_8D77F3AE6755___EAID_10A9BA8F_79C2_4d47_B971_585F99CB165A -->
<g id="node7" class="node"><title>EAID_C12EB1CC_0086_4c02_832E_8D77F3AE6755___EAID_10A9BA8F_79C2_4d47_B971_585F99CB165A</title>
<image xlink:href="img/activity_icon.png" width="30px" height="20px" preserveAspectRatio="xMinYMin meet" x="1315.5" y="-902.5"/>
<text text-anchor="start" x="1271" y="-868.3" font-family="Times New Roman,serif" font-weight="bold" font-size="14.00">User:Log In Screen</text>
</g>
<!-- EAID_C12EB1CC_0086_4c02_832E_8D77F3AE6755___EAID_10A9BA8F_79C2_4d47_B971_585F99CB165A&#45;&gt;EAID_10A9BA8F_79C2_4d47_B971_585F99CB165A___EAID_75CE6DAF_0894_4cb1_8B6E_B06901CE9DEE -->
<g id="edge12" class="edge"><title>EAID_C12EB1CC_0086_4c02_832E_8D77F3AE6755___EAID_10A9BA8F_79C2_4d47_B971_585F99CB165A&#45;&gt;EAID_10A9BA8F_79C2_4d47_B971_585F99CB165A___EAID_75CE6DAF_0894_4cb1_8B6E_B06901CE9DEE</title>
<path fill="none" stroke="black" d="M1328.36,-857.765C1327.85,-850.065 1327.26,-841.244 1326.67,-832.324"/>
<polygon fill="black" stroke="black" points="1330.16,-832.013 1326,-822.266 1323.17,-832.476 1330.16,-832.013"/>
</g>
<!-- EAID_C12EB1CC_0086_4c02_832E_8D77F3AE6755___EAID_10A9BA8F_79C2_4d47_B971_585F99CB165A&#45;&gt;EAID_10A9BA8F_79C2_4d47_B971_585F99CB165A___EAID_327980E6_7C9E_4f85_8AAE_393B2881175C -->
<g id="edge13" class="edge"><title>EAID_C12EB1CC_0086_4c02_832E_8D77F3AE6755___EAID_10A9BA8F_79C2_4d47_B971_585F99CB165A&#45;&gt;EAID_10A9BA8F_79C2_4d47_B971_585F99CB165A___EAID_327980E6_7C9E_4f85_8AAE_393B2881175C</title>
<path fill="none" stroke="black" d="M1260.41,-862.498C1241.06,-853.381 1222.27,-840.373 1211,-822 1204.2,-810.916 1204.19,-624.851 1212,-602 1215.3,-592.351 1220.58,-582.987 1226.53,-574.467"/>
<polygon fill="black" stroke="black" points="1229.48,-576.362 1232.65,-566.251 1223.87,-572.181 1229.48,-576.362"/>
</g>
<!-- EAID_C12EB1CC_0086_4c02_832E_8D77F3AE6755___EAID_10A9BA8F_79C2_4d47_B971_585F99CB165A&#45;&gt;EAID_529C10AC_1A49_4686_8DB8_5542FC791CC5 -->
<g id="edge21" class="edge"><title>EAID_C12EB1CC_0086_4c02_832E_8D77F3AE6755___EAID_10A9BA8F_79C2_4d47_B971_585F99CB165A&#45;&gt;EAID_529C10AC_1A49_4686_8DB8_5542FC791CC5</title>
<path fill="none" stroke="black" stroke-dasharray="5,2" d="M1399.55,-879.588C1540.2,-873.033 1847.99,-855.047 1882,-822 1937.67,-767.903 1906,-726.625 1906,-649 1906,-649 1906,-649 1906,-533 1906,-442.349 1899.69,-338.81 1894.35,-267.326"/>
<polygon fill="black" stroke="black" points="1897.81,-266.724 1893.57,-257.017 1890.83,-267.253 1897.81,-266.724"/>
</g>
<!-- EAID_4CAE859B_7D10_4de9_9761_2A4B55F6C24D___EAID_10A9BA8F_79C2_4d47_B971_585F99CB165A_STL -->
<g id="node8" class="node"><title>EAID_4CAE859B_7D10_4de9_9761_2A4B55F6C24D___EAID_10A9BA8F_79C2_4d47_B971_585F99CB165A_STL</title>
<image xlink:href="img/stimulus_icon.png" width="30px" height="20px" preserveAspectRatio="xMinYMin meet" x="1140.5" y="-1000.5"/>
<text text-anchor="start" x="1082" y="-966.3" font-family="Times New Roman,serif" font-weight="bold" font-size="14.00">stl#Actor:Log In Screen</text>
</g>
<!-- EAID_4CAE859B_7D10_4de9_9761_2A4B55F6C24D___EAID_10A9BA8F_79C2_4d47_B971_585F99CB165A_STL&#45;&gt;EAID_4CAE859B_7D10_4de9_9761_2A4B55F6C24D___EAID_10A9BA8F_79C2_4d47_B971_585F99CB165A -->
<g id="edge3" class="edge"><title>EAID_4CAE859B_7D10_4de9_9761_2A4B55F6C24D___EAID_10A9BA8F_79C2_4d47_B971_585F99CB165A_STL&#45;&gt;EAID_4CAE859B_7D10_4de9_9761_2A4B55F6C24D___EAID_10A9BA8F_79C2_4d47_B971_585F99CB165A</title>
<path fill="none" stroke="black" d="M1157.83,-955.778C1159.1,-944.692 1160.62,-931.42 1162.01,-919.351"/>
<polygon fill="black" stroke="black" points="1165.52,-919.472 1163.18,-909.139 1158.56,-918.675 1165.52,-919.472"/>
</g>
<!-- EAID_C12EB1CC_0086_4c02_832E_8D77F3AE6755___EAID_10A9BA8F_79C2_4d47_B971_585F99CB165A_STL -->
<g id="node9" class="node"><title>EAID_C12EB1CC_0086_4c02_832E_8D77F3AE6755___EAID_10A9BA8F_79C2_4d47_B971_585F99CB165A_STL</title>
<image xlink:href="img/stimulus_icon.png" width="30px" height="20px" preserveAspectRatio="xMinYMin meet" x="1329.5" y="-1000.5"/>
<text text-anchor="start" x="1274" y="-966.3" font-family="Times New Roman,serif" font-weight="bold" font-size="14.00">stl#User:Log In Screen</text>
</g>
<!-- EAID_C12EB1CC_0086_4c02_832E_8D77F3AE6755___EAID_10A9BA8F_79C2_4d47_B971_585F99CB165A_STL&#45;&gt;EAID_C12EB1CC_0086_4c02_832E_8D77F3AE6755___EAID_10A9BA8F_79C2_4d47_B971_585F99CB165A -->
<g id="edge14" class="edge"><title>EAID_C12EB1CC_0086_4c02_832E_8D77F3AE6755___EAID_10A9BA8F_79C2_4d47_B971_585F99CB165A_STL&#45;&gt;EAID_C12EB1CC_0086_4c02_832E_8D77F3AE6755___EAID_10A9BA8F_79C2_4d47_B971_585F99CB165A</title>
<path fill="none" stroke="black" d="M1340.39,-955.778C1338.78,-944.692 1336.84,-931.42 1335.08,-919.351"/>
<polygon fill="black" stroke="black" points="1338.5,-918.529 1333.59,-909.139 1331.57,-919.539 1338.5,-918.529"/>
</g>
<!-- EAID_C12EB1CC_0086_4c02_832E_8D77F3AE6755 -->
<g id="node10" class="node"><title>EAID_C12EB1CC_0086_4c02_832E_8D77F3AE6755</title>
<polygon fill="none" stroke="black" points="3473,-178.5 3473,-199.5 3517,-199.5 3517,-178.5 3473,-178.5"/>
<text text-anchor="start" x="3480.5" y="-186.3" font-family="Times New Roman,serif" font-weight="bold" font-size="14.00">User</text>
<polygon fill="none" stroke="black" points="3473,-157.5 3473,-178.5 3517,-178.5 3517,-157.5 3473,-157.5"/>
<text text-anchor="start" x="3476" y="-165.3" font-family="Times New Roman,serif" font-weight="bold" font-size="14.00">User()</text>
<polygon fill="none" stroke="black" points="3472,-156.5 3472,-200.5 3518,-200.5 3518,-156.5 3472,-156.5"/>
</g>
<!-- EAID_0337D7CE_98FB_4610_9F77_A5F6946B2D15 -->
<g id="node11" class="node"><title>EAID_0337D7CE_98FB_4610_9F77_A5F6946B2D15</title>
<polygon fill="none" stroke="black" points="3154,-314.5 3154,-335.5 3437,-335.5 3437,-314.5 3154,-314.5"/>
<text text-anchor="start" x="3269" y="-322.3" font-family="Times New Roman,serif" font-weight="bold" font-size="14.00">photolist</text>
<polygon fill="none" stroke="black" points="3154,-293.5 3154,-314.5 3437,-314.5 3437,-293.5 3154,-293.5"/>
<text text-anchor="start" x="3264.5" y="-301.3" font-family="Times New Roman,serif" font-weight="bold" font-size="14.00">photolist()</text>
<polygon fill="none" stroke="black" points="3154,-272.5 3154,-293.5 3437,-293.5 3437,-272.5 3154,-272.5"/>
<text text-anchor="start" x="3253" y="-280.3" font-family="Times New Roman,serif" font-weight="bold" font-size="14.00">selectphotos()</text>
<polygon fill="none" stroke="black" points="3154,-251.5 3154,-272.5 3437,-272.5 3437,-251.5 3154,-251.5"/>
<text text-anchor="start" x="3205.5" y="-259.3" font-family="Times New Roman,serif" font-weight="bold" font-size="14.00">popupphotoconnectionerror()</text>
<polygon fill="none" stroke="black" points="3154,-230.5 3154,-251.5 3437,-251.5 3437,-230.5 3154,-230.5"/>
<text text-anchor="start" x="3157" y="-238.3" font-family="Times New Roman,serif" font-weight="bold" font-size="14.00">DisplaySelectedPhotoonProfilePhotoScreen()</text>
<polygon fill="none" stroke="black" points="3154,-209.5 3154,-230.5 3437,-230.5 3437,-209.5 3154,-209.5"/>
<text text-anchor="start" x="3210" y="-217.3" font-family="Times New Roman,serif" font-weight="bold" font-size="14.00">DismissDeletePhotoModel()</text>
<polygon fill="none" stroke="black" points="3154,-188.5 3154,-209.5 3437,-209.5 3437,-188.5 3154,-188.5"/>
<text text-anchor="start" x="3245.5" y="-196.3" font-family="Times New Roman,serif" font-weight="bold" font-size="14.00">Preparephotos()</text>
<polygon fill="none" stroke="black" points="3154,-167.5 3154,-188.5 3437,-188.5 3437,-167.5 3154,-167.5"/>
<text text-anchor="start" x="3215.5" y="-175.3" font-family="Times New Roman,serif" font-weight="bold" font-size="14.00">DownloadphototoDevice()</text>
<polygon fill="none" stroke="black" points="3154,-146.5 3154,-167.5 3437,-167.5 3437,-146.5 3154,-146.5"/>
<text text-anchor="start" x="3267.5" y="-154.3" font-family="Times New Roman,serif" font-weight="bold" font-size="14.00">Userlist()</text>
<polygon fill="none" stroke="black" points="3154,-125.5 3154,-146.5 3437,-146.5 3437,-125.5 3154,-125.5"/>
<text text-anchor="start" x="3205" y="-133.3" font-family="Times New Roman,serif" font-weight="bold" font-size="14.00">PhotoSearchResultListView()</text>
<polygon fill="none" stroke="black" points="3154,-104.5 3154,-125.5 3437,-125.5 3437,-104.5 3154,-104.5"/>
<text text-anchor="start" x="3253.5" y="-112.3" font-family="Times New Roman,serif" font-weight="bold" font-size="14.00">ListMutator()</text>
<polygon fill="none" stroke="black" points="3154,-83.5 3154,-104.5 3437,-104.5 3437,-83.5 3154,-83.5"/>
<text text-anchor="start" x="3244" y="-91.3" font-family="Times New Roman,serif" font-weight="bold" font-size="14.00">PhotoDatabase()</text>
<polygon fill="none" stroke="black" points="3154,-62.5 3154,-83.5 3437,-83.5 3437,-62.5 3154,-62.5"/>
<text text-anchor="start" x="3184" y="-70.3" font-family="Times New Roman,serif" font-weight="bold" font-size="14.00">UserDirectedtoViewPhotoUseCase()</text>
<polygon fill="none" stroke="black" points="3154,-41.5 3154,-62.5 3437,-62.5 3437,-41.5 3154,-41.5"/>
<text text-anchor="start" x="3214.5" y="-49.3" font-family="Times New Roman,serif" font-weight="bold" font-size="14.00">takethephotosuccessfully()</text>
<polygon fill="none" stroke="black" points="3154,-20.5 3154,-41.5 3437,-41.5 3437,-20.5 3154,-20.5"/>
<text text-anchor="start" x="3221" y="-28.3" font-family="Times New Roman,serif" font-weight="bold" font-size="14.00">Cantaccesslocalphotos()</text>
<polygon fill="none" stroke="black" points="3152.5,-20 3152.5,-337 3437.5,-337 3437.5,-20 3152.5,-20"/>
</g>
<!-- EAID_5A4E1C17_E2A4_4dd4_83F3_30B27A2BFB41 -->
<g id="node12" class="node"><title>EAID_5A4E1C17_E2A4_4dd4_83F3_30B27A2BFB41</title>
<polygon fill="none" stroke="black" points="2849,-251.5 2849,-272.5 3117,-272.5 3117,-251.5 2849,-251.5"/>
<text text-anchor="start" x="2939" y="-259.3" font-family="Times New Roman,serif" font-weight="bold" font-size="14.00">canceldeletion</text>
<polygon fill="none" stroke="black" points="2849,-230.5 2849,-251.5 3117,-251.5 3117,-230.5 2849,-230.5"/>
<text text-anchor="start" x="2934.5" y="-238.3" font-family="Times New Roman,serif" font-weight="bold" font-size="14.00">canceldeletion()</text>
<polygon fill="none" stroke="black" points="2849,-209.5 2849,-230.5 3117,-230.5 3117,-209.5 2849,-209.5"/>
<text text-anchor="start" x="2916.5" y="-217.3" font-family="Times New Roman,serif" font-weight="bold" font-size="14.00">confirmdeletephotos()</text>
<polygon fill="none" stroke="black" points="2849,-188.5 2849,-209.5 3117,-209.5 3117,-188.5 2849,-188.5"/>
<text text-anchor="start" x="2852" y="-196.3" font-family="Times New Roman,serif" font-weight="bold" font-size="14.00">deleteexpiredlocationphotosautomatically()</text>
<polygon fill="none" stroke="black" points="2849,-167.5 2849,-188.5 3117,-188.5 3117,-167.5 2849,-167.5"/>
<text text-anchor="start" x="2933" y="-175.3" font-family="Times New Roman,serif" font-weight="bold" font-size="14.00">UserCollection()</text>
<polygon fill="none" stroke="black" points="2849,-146.5 2849,-167.5 3117,-167.5 3117,-146.5 2849,-146.5"/>
<text text-anchor="start" x="2919.5" y="-154.3" font-family="Times New Roman,serif" font-weight="bold" font-size="14.00">ToggleDeleteMode()</text>
<polygon fill="none" stroke="black" points="2849,-125.5 2849,-146.5 3117,-146.5 3117,-125.5 2849,-125.5"/>
<text text-anchor="start" x="2958.5" y="-133.3" font-family="Times New Roman,serif" font-weight="bold" font-size="14.00">Delete()</text>
<polygon fill="none" stroke="black" points="2849,-104.5 2849,-125.5 3117,-125.5 3117,-104.5 2849,-104.5"/>
<text text-anchor="start" x="2912" y="-112.3" font-family="Times New Roman,serif" font-weight="bold" font-size="14.00">HandleCreationError()</text>
<polygon fill="none" stroke="black" points="2849,-83.5 2849,-104.5 3117,-104.5 3117,-83.5 2849,-83.5"/>
<text text-anchor="start" x="2908.5" y="-91.3" font-family="Times New Roman,serif" font-weight="bold" font-size="14.00">getlocationsuccessfully()</text>
<polygon fill="none" stroke="black" points="2848,-83 2848,-274 3118,-274 3118,-83 2848,-83"/>
</g>
<!-- EAID_20C606F2_AF95_45c4_A0FC_260EF953D4A5 -->
<g id="node13" class="node"><title>EAID_20C606F2_AF95_45c4_A0FC_260EF953D4A5</title>
<polygon fill="none" stroke="black" points="2636,-230.5 2636,-251.5 2813,-251.5 2813,-230.5 2636,-230.5"/>
<text text-anchor="start" x="2692" y="-238.3" font-family="Times New Roman,serif" font-weight="bold" font-size="14.00">Searchbox</text>
<polygon fill="none" stroke="black" points="2636,-209.5 2636,-230.5 2813,-230.5 2813,-209.5 2636,-209.5"/>
<text text-anchor="start" x="2687.5" y="-217.3" font-family="Times New Roman,serif" font-weight="bold" font-size="14.00">Searchbox()</text>
<polygon fill="none" stroke="black" points="2636,-188.5 2636,-209.5 2813,-209.5 2813,-188.5 2636,-188.5"/>
<text text-anchor="start" x="2648" y="-196.3" font-family="Times New Roman,serif" font-weight="bold" font-size="14.00">SearchEventHomepage()</text>
<polygon fill="none" stroke="black" points="2636,-167.5 2636,-188.5 2813,-188.5 2813,-167.5 2636,-167.5"/>
<text text-anchor="start" x="2658" y="-175.3" font-family="Times New Roman,serif" font-weight="bold" font-size="14.00">displaysearchscreen()</text>
<polygon fill="none" stroke="black" points="2636,-146.5 2636,-167.5 2813,-167.5 2813,-146.5 2636,-146.5"/>
<text text-anchor="start" x="2650.5" y="-154.3" font-family="Times New Roman,serif" font-weight="bold" font-size="14.00">PerformDefaultSearch()</text>
<polygon fill="none" stroke="black" points="2636,-125.5 2636,-146.5 2813,-146.5 2813,-125.5 2636,-125.5"/>
<text text-anchor="start" x="2639" y="-133.3" font-family="Times New Roman,serif" font-weight="bold" font-size="14.00">entersearchitemandsearch()</text>
<polygon fill="none" stroke="black" points="2636,-104.5 2636,-125.5 2813,-125.5 2813,-104.5 2636,-104.5"/>
<text text-anchor="start" x="2672.5" y="-112.3" font-family="Times New Roman,serif" font-weight="bold" font-size="14.00">Searchbackend()</text>
<polygon fill="none" stroke="black" points="2634.5,-104 2634.5,-253 2813.5,-253 2813.5,-104 2634.5,-104"/>
</g>
<!-- EAID_89388CF8_4D62_4589_9A19_667FE80F5B87 -->
<g id="node14" class="node"><title>EAID_89388CF8_4D62_4589_9A19_667FE80F5B87</title>
<polygon fill="none" stroke="black" points="2491,-209.5 2491,-230.5 2599,-230.5 2599,-209.5 2491,-209.5"/>
<text text-anchor="start" x="2510" y="-217.3" font-family="Times New Roman,serif" font-weight="bold" font-size="14.00">Adminpage</text>
<polygon fill="none" stroke="black" points="2491,-188.5 2491,-209.5 2599,-209.5 2599,-188.5 2491,-188.5"/>
<text text-anchor="start" x="2505.5" y="-196.3" font-family="Times New Roman,serif" font-weight="bold" font-size="14.00">Adminpage()</text>
<polygon fill="none" stroke="black" points="2491,-167.5 2491,-188.5 2599,-188.5 2599,-167.5 2491,-167.5"/>
<text text-anchor="start" x="2500" y="-175.3" font-family="Times New Roman,serif" font-weight="bold" font-size="14.00">Confirmpage()</text>
<polygon fill="none" stroke="black" points="2491,-146.5 2491,-167.5 2599,-167.5 2599,-146.5 2491,-146.5"/>
<text text-anchor="start" x="2496.5" y="-154.3" font-family="Times New Roman,serif" font-weight="bold" font-size="14.00">isuserloggedin()</text>
<polygon fill="none" stroke="black" points="2491,-125.5 2491,-146.5 2599,-146.5 2599,-125.5 2491,-125.5"/>
<text text-anchor="start" x="2494" y="-133.3" font-family="Times New Roman,serif" font-weight="bold" font-size="14.00">ValidInputText()</text>
<polygon fill="none" stroke="black" points="2490,-125 2490,-232 2600,-232 2600,-125 2490,-125"/>
</g>
<!-- EAID_732E93B2_18C0_4327_9B66_E6E7CB4C672F -->
<g id="node15" class="node"><title>EAID_732E93B2_18C0_4327_9B66_E6E7CB4C672F</title>
<polygon fill="none" stroke="black" points="2389,-178.5 2389,-199.5 2455,-199.5 2455,-178.5 2389,-178.5"/>
<text text-anchor="start" x="2396.5" y="-186.3" font-family="Times New Roman,serif" font-weight="bold" font-size="14.00">Account</text>
<polygon fill="none" stroke="black" points="2389,-157.5 2389,-178.5 2455,-178.5 2455,-157.5 2389,-157.5"/>
<text text-anchor="start" x="2392" y="-165.3" font-family="Times New Roman,serif" font-weight="bold" font-size="14.00">Account()</text>
<polygon fill="none" stroke="black" points="2388,-156.5 2388,-200.5 2456,-200.5 2456,-156.5 2388,-156.5"/>
</g>
<!-- EAID_8F8469F1_3495_4479_9C57_B3A963D9115F -->
<g id="node16" class="node"><title>EAID_8F8469F1_3495_4479_9C57_B3A963D9115F</title>
<polygon fill="none" stroke="black" points="2159,-241.5 2159,-262.5 2353,-262.5 2353,-241.5 2159,-241.5"/>
<text text-anchor="start" x="2239.5" y="-249.3" font-family="Times New Roman,serif" font-weight="bold" font-size="14.00">event</text>
<polygon fill="none" stroke="black" points="2159,-220.5 2159,-241.5 2353,-241.5 2353,-220.5 2159,-220.5"/>
<text text-anchor="start" x="2235" y="-228.3" font-family="Times New Roman,serif" font-weight="bold" font-size="14.00">event()</text>
<polygon fill="none" stroke="black" points="2159,-199.5 2159,-220.5 2353,-220.5 2353,-199.5 2159,-199.5"/>
<text text-anchor="start" x="2191.5" y="-207.3" font-family="Times New Roman,serif" font-weight="bold" font-size="14.00">CreateEventScreen()</text>
<polygon fill="none" stroke="black" points="2159,-178.5 2159,-199.5 2353,-199.5 2353,-178.5 2159,-178.5"/>
<text text-anchor="start" x="2202.5" y="-186.3" font-family="Times New Roman,serif" font-weight="bold" font-size="14.00">EventCollection()</text>
<polygon fill="none" stroke="black" points="2159,-157.5 2159,-178.5 2353,-178.5 2353,-157.5 2159,-157.5"/>
<text text-anchor="start" x="2164.5" y="-165.3" font-family="Times New Roman,serif" font-weight="bold" font-size="14.00">Createneweventwithhashtag()</text>
<polygon fill="none" stroke="black" points="2159,-136.5 2159,-157.5 2353,-157.5 2353,-136.5 2159,-136.5"/>
<text text-anchor="start" x="2199" y="-144.3" font-family="Times New Roman,serif" font-weight="bold" font-size="14.00">Photosintheevent()</text>
<polygon fill="none" stroke="black" points="2159,-115.5 2159,-136.5 2353,-136.5 2353,-115.5 2159,-115.5"/>
<text text-anchor="start" x="2201.5" y="-123.3" font-family="Times New Roman,serif" font-weight="bold" font-size="14.00">displaymyevents()</text>
<polygon fill="none" stroke="black" points="2159,-94.5 2159,-115.5 2353,-115.5 2353,-94.5 2159,-94.5"/>
<text text-anchor="start" x="2162" y="-102.3" font-family="Times New Roman,serif" font-weight="bold" font-size="14.00">Determineifuseriseventowner()</text>
<polygon fill="none" stroke="black" points="2158,-93.5 2158,-263.5 2354,-263.5 2354,-93.5 2158,-93.5"/>
</g>
<!-- EAID_963012E2_09BE_44a0_BFC3_918886DFD61E -->
<g id="node18" class="node"><title>EAID_963012E2_09BE_44a0_BFC3_918886DFD61E</title>
<polygon fill="none" stroke="black" points="1559,-178.5 1559,-199.5 1616,-199.5 1616,-178.5 1559,-178.5"/>
<text text-anchor="start" x="1566.5" y="-186.3" font-family="Times New Roman,serif" font-weight="bold" font-size="14.00">Profile</text>
<polygon fill="none" stroke="black" points="1559,-157.5 1559,-178.5 1616,-178.5 1616,-157.5 1559,-157.5"/>
<text text-anchor="start" x="1562" y="-165.3" font-family="Times New Roman,serif" font-weight="bold" font-size="14.00">Profile()</text>
<polygon fill="none" stroke="black" points="1557.5,-156.5 1557.5,-200.5 1616.5,-200.5 1616.5,-156.5 1557.5,-156.5"/>
</g>
<!-- EAID_75C79EF6_89C5_4163_8AC8_06079D8BB69F -->
<g id="node19" class="node"><title>EAID_75C79EF6_89C5_4163_8AC8_06079D8BB69F</title>
<polygon fill="none" stroke="black" points="1364,-199.5 1364,-220.5 1523,-220.5 1523,-199.5 1364,-199.5"/>
<text text-anchor="start" x="1423.5" y="-207.3" font-family="Times New Roman,serif" font-weight="bold" font-size="14.00">Result</text>
<polygon fill="none" stroke="black" points="1364,-178.5 1364,-199.5 1523,-199.5 1523,-178.5 1364,-178.5"/>
<text text-anchor="start" x="1419" y="-186.3" font-family="Times New Roman,serif" font-weight="bold" font-size="14.00">Result()</text>
<polygon fill="none" stroke="black" points="1364,-157.5 1364,-178.5 1523,-178.5 1523,-157.5 1364,-157.5"/>
<text text-anchor="start" x="1367" y="-165.3" font-family="Times New Roman,serif" font-weight="bold" font-size="14.00">ShowEmptyResultPage()</text>
<polygon fill="none" stroke="black" points="1364,-136.5 1364,-157.5 1523,-157.5 1523,-136.5 1364,-136.5"/>
<text text-anchor="start" x="1393" y="-144.3" font-family="Times New Roman,serif" font-weight="bold" font-size="14.00">processrequest()</text>
<polygon fill="none" stroke="black" points="1362.5,-135.5 1362.5,-221.5 1523.5,-221.5 1523.5,-135.5 1362.5,-135.5"/>
</g>
<!-- EAID_8633C382_989A_4f73_BD27_628A53F85534 -->
<g id="node20" class="node"><title>EAID_8633C382_989A_4f73_BD27_628A53F85534</title>
<polygon fill="none" stroke="black" points="1163,-199.5 1163,-220.5 1327,-220.5 1327,-199.5 1163,-199.5"/>
<text text-anchor="start" x="1215" y="-207.3" font-family="Times New Roman,serif" font-weight="bold" font-size="14.00">myupload</text>
<polygon fill="none" stroke="black" points="1163,-178.5 1163,-199.5 1327,-199.5 1327,-178.5 1163,-178.5"/>
<text text-anchor="start" x="1210.5" y="-186.3" font-family="Times New Roman,serif" font-weight="bold" font-size="14.00">myupload()</text>
<polygon fill="none" stroke="black" points="1163,-157.5 1163,-178.5 1327,-178.5 1327,-157.5 1163,-157.5"/>
<text text-anchor="start" x="1166" y="-165.3" font-family="Times New Roman,serif" font-weight="bold" font-size="14.00">Handledownloadsuccess()</text>
<polygon fill="none" stroke="black" points="1163,-136.5 1163,-157.5 1327,-157.5 1327,-136.5 1163,-136.5"/>
<text text-anchor="start" x="1166.5" y="-144.3" font-family="Times New Roman,serif" font-weight="bold" font-size="14.00">uploadtocurrentlocation()</text>
<polygon fill="none" stroke="black" points="1162,-135.5 1162,-221.5 1328,-221.5 1328,-135.5 1162,-135.5"/>
</g>
<!-- EAID_D290E412_D7DF_466a_9B4E_EEFFEC9E3F9D -->
<g id="node22" class="node"><title>EAID_D290E412_D7DF_466a_9B4E_EEFFEC9E3F9D</title>
<polygon fill="none" stroke="black" points="715,-178.5 715,-199.5 778,-199.5 778,-178.5 715,-178.5"/>
<text text-anchor="start" x="722.5" y="-186.3" font-family="Times New Roman,serif" font-weight="bold" font-size="14.00">confirm</text>
<polygon fill="none" stroke="black" points="715,-157.5 715,-178.5 778,-178.5 778,-157.5 715,-157.5"/>
<text text-anchor="start" x="718" y="-165.3" font-family="Times New Roman,serif" font-weight="bold" font-size="14.00">confirm()</text>
<polygon fill="none" stroke="black" points="713.5,-156.5 713.5,-200.5 778.5,-200.5 778.5,-156.5 713.5,-156.5"/>
</g>
<!-- EAID_CF6ECBA1_FF95_4765_BD36_B9B31F77F450 -->
<g id="node23" class="node"><title>EAID_CF6ECBA1_FF95_4765_BD36_B9B31F77F450</title>
<polygon fill="none" stroke="black" points="480,-188.5 480,-209.5 679,-209.5 679,-188.5 480,-188.5"/>
<text text-anchor="start" x="487.5" y="-196.3" font-family="Times New Roman,serif" font-weight="bold" font-size="14.00">RangeButtonsDefaultmyhome</text>
<polygon fill="none" stroke="black" points="480,-167.5 480,-188.5 679,-188.5 679,-167.5 480,-167.5"/>
<text text-anchor="start" x="483" y="-175.3" font-family="Times New Roman,serif" font-weight="bold" font-size="14.00">RangeButtonsDefaultmyhome()</text>
<polygon fill="none" stroke="black" points="480,-146.5 480,-167.5 679,-167.5 679,-146.5 480,-146.5"/>
<text text-anchor="start" x="527" y="-154.3" font-family="Times New Roman,serif" font-weight="bold" font-size="14.00">HideEditButton()</text>
<polygon fill="none" stroke="black" points="478.5,-146 478.5,-211 679.5,-211 679.5,-146 478.5,-146"/>
</g>
<!-- EAID_E2F1FF88_6562_4099_991D_C090C3CF89B0 -->
<g id="node24" class="node"><title>EAID_E2F1FF88_6562_4099_991D_C090C3CF89B0</title>
<polygon fill="none" stroke="black" points="249,-199.5 249,-220.5 443,-220.5 443,-199.5 249,-199.5"/>
<text text-anchor="start" x="312.5" y="-207.3" font-family="Times New Roman,serif" font-weight="bold" font-size="14.00">cameraroll</text>
<polygon fill="none" stroke="black" points="249,-178.5 249,-199.5 443,-199.5 443,-178.5 249,-178.5"/>
<text text-anchor="start" x="308" y="-186.3" font-family="Times New Roman,serif" font-weight="bold" font-size="14.00">cameraroll()</text>
<polygon fill="none" stroke="black" points="249,-157.5 249,-178.5 443,-178.5 443,-157.5 249,-157.5"/>
<text text-anchor="start" x="252" y="-165.3" font-family="Times New Roman,serif" font-weight="bold" font-size="14.00">PopupdaabaseErrorMessage()</text>
<polygon fill="none" stroke="black" points="249,-136.5 249,-157.5 443,-157.5 443,-136.5 249,-136.5"/>
<text text-anchor="start" x="285.5" y="-144.3" font-family="Times New Roman,serif" font-weight="bold" font-size="14.00">cantaccesscamera()</text>
<polygon fill="none" stroke="black" points="248,-135.5 248,-221.5 444,-221.5 444,-135.5 248,-135.5"/>
</g>
<!-- EAID_CFCB3272_25DF_4db1_992D_20DE6ABC1425 -->
<g id="node25" class="node"><title>EAID_CFCB3272_25DF_4db1_992D_20DE6ABC1425</title>
<polygon fill="none" stroke="black" points="26,-209.5 26,-230.5 213,-230.5 213,-209.5 26,-209.5"/>
<text text-anchor="start" x="50" y="-217.3" font-family="Times New Roman,serif" font-weight="bold" font-size="14.00">HandlePasswordError</text>
<polygon fill="none" stroke="black" points="26,-188.5 26,-209.5 213,-209.5 213,-188.5 26,-188.5"/>
<text text-anchor="start" x="45.5" y="-196.3" font-family="Times New Roman,serif" font-weight="bold" font-size="14.00">HandlePasswordError()</text>
<polygon fill="none" stroke="black" points="26,-167.5 26,-188.5 213,-188.5 213,-167.5 26,-167.5"/>
<text text-anchor="start" x="29" y="-175.3" font-family="Times New Roman,serif" font-weight="bold" font-size="14.00">Validatesnonblockpassword()</text>
<polygon fill="none" stroke="black" points="26,-146.5 26,-167.5 213,-167.5 213,-146.5 26,-146.5"/>
<text text-anchor="start" x="54" y="-154.3" font-family="Times New Roman,serif" font-weight="bold" font-size="14.00">SetPasswordScreen()</text>
<polygon fill="none" stroke="black" points="26,-125.5 26,-146.5 213,-146.5 213,-125.5 26,-125.5"/>
<text text-anchor="start" x="33.5" y="-133.3" font-family="Times New Roman,serif" font-weight="bold" font-size="14.00">Handlephotoretrievalerror()</text>
<polygon fill="none" stroke="black" points="24.5,-125 24.5,-232 213.5,-232 213.5,-125 24.5,-125"/>
</g>
</g>
</svg>
