<?xml version="1.0" encoding="UTF-8" standalone="no"?>
<!DOCTYPE svg PUBLIC "-//W3C//DTD SVG 1.1//EN"
 "http://www.w3.org/Graphics/SVG/1.1/DTD/svg11.dtd">
<!-- Generated by graphviz version 2.38.0 (20140413.2041)
 -->
<!-- Title: g Pages: 1 -->
<svg width="919pt" height="308pt"
 viewBox="0.00 0.00 919.00 307.50" xmlns="http://www.w3.org/2000/svg" xmlns:xlink="http://www.w3.org/1999/xlink">
<g id="graph0" class="graph" transform="scale(1 1) rotate(0) translate(4 303.5)">
<title>g</title>
<polygon fill="white" stroke="none" points="-4,4 -4,-303.5 915,-303.5 915,4 -4,4"/>
<!-- EAID_91776EB4_BE0C_4a21_B61C_DFC42276E046 -->
<g id="node1" class="node"><title>EAID_91776EB4_BE0C_4a21_B61C_DFC42276E046</title>
<image xlink:href="img/actor1.png" width="66px" height="90px" preserveAspectRatio="xMinYMin meet" x="10" y="-234.5"/>
<text text-anchor="start" x="10" y="-121.3" font-family="Times New Roman,serif" font-size="24.00">vendor</text>
</g>
<!-- EAID_366A9691_7F0A_4604_A092_016D9721FC5F -->
<g id="node2" class="node"><title>EAID_366A9691_7F0A_4604_A092_016D9721FC5F</title>
<image xlink:href="img/boundary3.png" width="115px" height="67px" preserveAspectRatio="xMinYMin meet" x="153.5" y="-222.5"/>
<text text-anchor="start" x="132" y="-132.3" font-family="Times New Roman,serif" font-size="24.00">registration page</text>
</g>
<!-- EAID_91776EB4_BE0C_4a21_B61C_DFC42276E046&#45;&gt;EAID_366A9691_7F0A_4604_A092_016D9721FC5F -->
<g id="edge1" class="edge"><title>EAID_91776EB4_BE0C_4a21_B61C_DFC42276E046&#45;&gt;EAID_366A9691_7F0A_4604_A092_016D9721FC5F</title>
<path fill="none" stroke="black" d="M86.3183,-174.5C94.2746,-174.5 102.894,-174.5 111.752,-174.5"/>
<polygon fill="black" stroke="black" points="111.834,-178 121.834,-174.5 111.834,-171 111.834,-178"/>
</g>
<!-- EAID_80DA623C_A801_46a8_9217_7F8C6E21158E -->
<g id="node3" class="node"><title>EAID_80DA623C_A801_46a8_9217_7F8C6E21158E</title>
<image xlink:href="img/activity_icon.png" width="30px" height="20px" preserveAspectRatio="xMinYMin meet" x="833" y="-293.5"/>
<text text-anchor="start" x="794.5" y="-251.3" font-family="Times New Roman,serif" font-weight="bold" font-size="24.00">main page</text>
</g>
<!-- EAID_91776EB4_BE0C_4a21_B61C_DFC42276E046&#45;&gt;EAID_80DA623C_A801_46a8_9217_7F8C6E21158E -->
<g id="edge2" class="edge"><title>EAID_91776EB4_BE0C_4a21_B61C_DFC42276E046&#45;&gt;EAID_80DA623C_A801_46a8_9217_7F8C6E21158E</title>
<path fill="none" stroke="black" d="M86.2667,-216.561C97.0953,-224.981 109.298,-232.703 122,-237.5 346.983,-322.464 639.604,-297.891 773.653,-279.943"/>
<polygon fill="black" stroke="black" points="774.369,-283.378 783.803,-278.556 773.421,-276.442 774.369,-283.378"/>
</g>
<!-- EAID_A984001F_B37D_4edf_B247_33665574975C -->
<g id="node4" class="node"><title>EAID_A984001F_B37D_4edf_B247_33665574975C</title>
<image xlink:href="img/boundary3.png" width="115px" height="67px" preserveAspectRatio="xMinYMin meet" x="584.5" y="-102.5"/>
<text text-anchor="start" x="546" y="-12.3" font-family="Times New Roman,serif" font-size="24.00">invalid info message</text>
</g>
<!-- EAID_91776EB4_BE0C_4a21_B61C_DFC42276E046&#45;&gt;EAID_A984001F_B37D_4edf_B247_33665574975C -->
<g id="edge3" class="edge"><title>EAID_91776EB4_BE0C_4a21_B61C_DFC42276E046&#45;&gt;EAID_A984001F_B37D_4edf_B247_33665574975C</title>
<path fill="none" stroke="black" d="M86.0007,-132.702C96.927,-123.999 109.24,-115.854 122,-110.5 252.644,-55.6795 417.272,-46.9301 525.658,-48.4269"/>
<polygon fill="black" stroke="black" points="525.911,-51.9316 535.969,-48.6025 526.03,-44.9326 525.911,-51.9316"/>
</g>
<!-- EAID_95EC3CCC_7063_4b23_9233_562D3CE18470 -->
<g id="node7" class="node"><title>EAID_95EC3CCC_7063_4b23_9233_562D3CE18470</title>
<image xlink:href="img/control1.png" width="106px" height="75px" preserveAspectRatio="xMinYMin meet" x="365" y="-226.5"/>
<text text-anchor="start" x="346" y="-128.3" font-family="Times New Roman,serif" font-size="24.00">verify user info</text>
</g>
<!-- EAID_366A9691_7F0A_4604_A092_016D9721FC5F&#45;&gt;EAID_95EC3CCC_7063_4b23_9233_562D3CE18470 -->
<g id="edge8" class="edge"><title>EAID_366A9691_7F0A_4604_A092_016D9721FC5F&#45;&gt;EAID_95EC3CCC_7063_4b23_9233_562D3CE18470</title>
<path fill="none" stroke="black" d="M300.128,-174.5C308.538,-174.5 317.079,-174.5 325.519,-174.5"/>
<polygon fill="black" stroke="black" points="325.749,-178 335.749,-174.5 325.749,-171 325.749,-178"/>
</g>
<!-- EAID_89459177_4F76_48fe_A8A7_4087E0083841 -->
<g id="node5" class="node"><title>EAID_89459177_4F76_48fe_A8A7_4087E0083841</title>
<image xlink:href="img/control1.png" width="106px" height="75px" preserveAspectRatio="xMinYMin meet" x="589.5" y="-237.5"/>
<text text-anchor="start" x="581" y="-139.3" font-family="Times New Roman,serif" font-size="24.00">add user info</text>
</g>
<!-- EAID_89459177_4F76_48fe_A8A7_4087E0083841&#45;&gt;EAID_80DA623C_A801_46a8_9217_7F8C6E21158E -->
<g id="edge4" class="edge"><title>EAID_89459177_4F76_48fe_A8A7_4087E0083841&#45;&gt;EAID_80DA623C_A801_46a8_9217_7F8C6E21158E</title>
<path fill="none" stroke="black" d="M713.603,-214.296C733.324,-222.34 754.773,-231.088 774.57,-239.163"/>
<polygon fill="black" stroke="black" points="773.257,-242.407 783.838,-242.943 775.9,-235.925 773.257,-242.407"/>
</g>
<!-- EAID_925A6C73_CF19_4304_816C_116455E26A30 -->
<g id="node6" class="node"><title>EAID_925A6C73_CF19_4304_816C_116455E26A30</title>
<image xlink:href="img/activity_icon.png" width="30px" height="20px" preserveAspectRatio="xMinYMin meet" x="833" y="-210.5"/>
<text text-anchor="start" x="802.5" y="-168.3" font-family="Times New Roman,serif" font-weight="bold" font-size="24.00">user info</text>
</g>
<!-- EAID_89459177_4F76_48fe_A8A7_4087E0083841&#45;&gt;EAID_925A6C73_CF19_4304_816C_116455E26A30 -->
<g id="edge5" class="edge"><title>EAID_89459177_4F76_48fe_A8A7_4087E0083841&#45;&gt;EAID_925A6C73_CF19_4304_816C_116455E26A30</title>
<path fill="none" stroke="black" d="M713.603,-185.5C735.703,-185.5 759.972,-185.5 781.655,-185.5"/>
<polygon fill="black" stroke="black" points="781.743,-189 791.743,-185.5 781.743,-182 781.743,-189"/>
</g>
<!-- EAID_95EC3CCC_7063_4b23_9233_562D3CE18470&#45;&gt;EAID_A984001F_B37D_4edf_B247_33665574975C -->
<g id="edge7" class="edge"><title>EAID_95EC3CCC_7063_4b23_9233_562D3CE18470&#45;&gt;EAID_A984001F_B37D_4edf_B247_33665574975C</title>
<path fill="none" stroke="black" d="M500.089,-130.668C510.25,-125.176 520.772,-119.488 531.278,-113.809"/>
<polygon fill="black" stroke="black" points="532.959,-116.879 540.092,-109.045 529.631,-110.721 532.959,-116.879"/>
</g>
<!-- EAID_95EC3CCC_7063_4b23_9233_562D3CE18470&#45;&gt;EAID_89459177_4F76_48fe_A8A7_4087E0083841 -->
<g id="edge6" class="edge"><title>EAID_95EC3CCC_7063_4b23_9233_562D3CE18470&#45;&gt;EAID_89459177_4F76_48fe_A8A7_4087E0083841</title>
<path fill="none" stroke="black" d="M500.089,-178.518C519.708,-179.49 540.674,-180.529 560.275,-181.5"/>
<polygon fill="black" stroke="black" points="560.226,-185.002 570.387,-182.001 560.573,-178.01 560.226,-185.002"/>
</g>
</g>
</svg>
