<?xml version="1.0" encoding="UTF-8" standalone="no"?>
<!DOCTYPE svg PUBLIC "-//W3C//DTD SVG 1.1//EN"
 "http://www.w3.org/Graphics/SVG/1.1/DTD/svg11.dtd">
<!-- Generated by graphviz version 2.38.0 (20140413.2041)
 -->
<!-- Title: g Pages: 1 -->
<svg width="1071pt" height="422pt"
 viewBox="0.00 0.00 1071.00 421.50" xmlns="http://www.w3.org/2000/svg" xmlns:xlink="http://www.w3.org/1999/xlink">
<g id="graph0" class="graph" transform="scale(1 1) rotate(0) translate(4 417.5)">
<title>g</title>
<polygon fill="white" stroke="none" points="-4,4 -4,-417.5 1067,-417.5 1067,4 -4,4"/>
<!-- EAID_727C0CC5_E077_4801_BAFE_68D346515B9A -->
<g id="node1" class="node"><title>EAID_727C0CC5_E077_4801_BAFE_68D346515B9A</title>
<image xlink:href="img/actor1.png" width="82px" height="90px" preserveAspectRatio="xMinYMin meet" x="35" y="-388.5"/>
<text text-anchor="start" x="10" y="-275.3" font-family="Times New Roman,serif" font-size="24.00">Administrator</text>
</g>
<!-- EAID_F68604B9_5C9C_4618_9233_81C06D371B57 -->
<g id="node2" class="node"><title>EAID_F68604B9_5C9C_4618_9233_81C06D371B57</title>
<image xlink:href="img/boundary3.png" width="115px" height="67px" preserveAspectRatio="xMinYMin meet" x="271.5" y="-376.5"/>
<text text-anchor="start" x="221.5" y="-286.3" font-family="Times New Roman,serif" font-size="24.00">meeting publish button</text>
</g>
<!-- EAID_727C0CC5_E077_4801_BAFE_68D346515B9A&#45;&gt;EAID_F68604B9_5C9C_4618_9233_81C06D371B57 -->
<g id="edge1" class="edge"><title>EAID_727C0CC5_E077_4801_BAFE_68D346515B9A&#45;&gt;EAID_F68604B9_5C9C_4618_9233_81C06D371B57</title>
<path fill="none" stroke="black" d="M152.158,-328.5C167.434,-328.5 183.901,-328.5 200.41,-328.5"/>
<polygon fill="black" stroke="black" points="200.684,-332 210.684,-328.5 200.684,-325 200.684,-332"/>
</g>
<!-- EAID_C0F343E2_CE3F_448e_AADE_3C83BBA2CECB -->
<g id="node8" class="node"><title>EAID_C0F343E2_CE3F_448e_AADE_3C83BBA2CECB</title>
<image xlink:href="img/control1.png" width="106px" height="75px" preserveAspectRatio="xMinYMin meet" x="537" y="-380.5"/>
<text text-anchor="start" x="515.5" y="-282.3" font-family="Times New Roman,serif" font-size="24.00">publish meeting</text>
</g>
<!-- EAID_F68604B9_5C9C_4618_9233_81C06D371B57&#45;&gt;EAID_C0F343E2_CE3F_448e_AADE_3C83BBA2CECB -->
<g id="edge7" class="edge"><title>EAID_F68604B9_5C9C_4618_9233_81C06D371B57&#45;&gt;EAID_C0F343E2_CE3F_448e_AADE_3C83BBA2CECB</title>
<path fill="none" stroke="black" d="M446.12,-328.5C462.31,-328.5 478.772,-328.5 494.48,-328.5"/>
<polygon fill="black" stroke="black" points="494.683,-332 504.683,-328.5 494.683,-325 494.683,-332"/>
</g>
<!-- EAID_B6CAB06B_45B2_43b0_8B18_2FC326F399C0 -->
<g id="node3" class="node"><title>EAID_B6CAB06B_45B2_43b0_8B18_2FC326F399C0</title>
<image xlink:href="img/actor1.png" width="61px" height="90px" preserveAspectRatio="xMinYMin meet" x="46" y="-172.5"/>
<text text-anchor="start" x="54.5" y="-59.3" font-family="Times New Roman,serif" font-size="24.00">User</text>
</g>
<!-- EAID_EE58BED3_0C3F_417a_93B2_0619E72B25FE -->
<g id="node4" class="node"><title>EAID_EE58BED3_0C3F_417a_93B2_0619E72B25FE</title>
<image xlink:href="img/boundary3.png" width="115px" height="67px" preserveAspectRatio="xMinYMin meet" x="271.5" y="-160.5"/>
<text text-anchor="start" x="198.5" y="-70.3" font-family="Times New Roman,serif" font-size="24.00">Task list with comment box</text>
</g>
<!-- EAID_B6CAB06B_45B2_43b0_8B18_2FC326F399C0&#45;&gt;EAID_EE58BED3_0C3F_417a_93B2_0619E72B25FE -->
<g id="edge2" class="edge"><title>EAID_B6CAB06B_45B2_43b0_8B18_2FC326F399C0&#45;&gt;EAID_EE58BED3_0C3F_417a_93B2_0619E72B25FE</title>
<path fill="none" stroke="black" d="M116.692,-112.5C133.937,-112.5 155.327,-112.5 177.81,-112.5"/>
<polygon fill="black" stroke="black" points="177.854,-116 187.854,-112.5 177.854,-109 177.854,-116"/>
</g>
<!-- EAID_AEB20850_7FC4_49cf_A1B7_413B431851AA -->
<g id="node5" class="node"><title>EAID_AEB20850_7FC4_49cf_A1B7_413B431851AA</title>
<image xlink:href="img/control1.png" width="106px" height="75px" preserveAspectRatio="xMinYMin meet" x="537" y="-164.5"/>
<text text-anchor="start" x="526.5" y="-66.3" font-family="Times New Roman,serif" font-size="24.00">add comment</text>
</g>
<!-- EAID_EE58BED3_0C3F_417a_93B2_0619E72B25FE&#45;&gt;EAID_AEB20850_7FC4_49cf_A1B7_413B431851AA -->
<g id="edge3" class="edge"><title>EAID_EE58BED3_0C3F_417a_93B2_0619E72B25FE&#45;&gt;EAID_AEB20850_7FC4_49cf_A1B7_413B431851AA</title>
<path fill="none" stroke="black" d="M469.234,-112.5C481.708,-112.5 494.054,-112.5 505.806,-112.5"/>
<polygon fill="black" stroke="black" points="505.969,-116 515.969,-112.5 505.969,-109 505.969,-116"/>
</g>
<!-- EAID_1A8F207A_0188_43b8_8428_0F7310389C32 -->
<g id="node6" class="node"><title>EAID_1A8F207A_0188_43b8_8428_0F7310389C32</title>
<image xlink:href="img/activity_icon.png" width="30px" height="20px" preserveAspectRatio="xMinYMin meet" x="783.5" y="-191.5"/>
<text text-anchor="start" x="750.5" y="-149.3" font-family="Times New Roman,serif" font-weight="bold" font-size="24.00">comment</text>
</g>
<!-- EAID_AEB20850_7FC4_49cf_A1B7_413B431851AA&#45;&gt;EAID_1A8F207A_0188_43b8_8428_0F7310389C32 -->
<g id="edge4" class="edge"><title>EAID_AEB20850_7FC4_49cf_A1B7_413B431851AA&#45;&gt;EAID_1A8F207A_0188_43b8_8428_0F7310389C32</title>
<path fill="none" stroke="black" d="M663.189,-131.462C685.111,-137.181 709.062,-143.429 730.589,-149.045"/>
<polygon fill="black" stroke="black" points="729.734,-152.439 740.294,-151.577 731.501,-145.666 729.734,-152.439"/>
</g>
<!-- EAID_F8A435F8_8303_41be_A051_08AD33B6C5F4 -->
<g id="node7" class="node"><title>EAID_F8A435F8_8303_41be_A051_08AD33B6C5F4</title>
<image xlink:href="img/control1.png" width="106px" height="75px" preserveAspectRatio="xMinYMin meet" x="746" y="-110.5"/>
<text text-anchor="start" x="720.5" y="-12.3" font-family="Times New Roman,serif" font-size="24.00">send notification</text>
</g>
<!-- EAID_AEB20850_7FC4_49cf_A1B7_413B431851AA&#45;&gt;EAID_F8A435F8_8303_41be_A051_08AD33B6C5F4 -->
<g id="edge5" class="edge"><title>EAID_AEB20850_7FC4_49cf_A1B7_413B431851AA&#45;&gt;EAID_F8A435F8_8303_41be_A051_08AD33B6C5F4</title>
<path fill="none" stroke="black" d="M663.189,-93.5376C675.047,-90.4442 687.499,-87.196 699.839,-83.9767"/>
<polygon fill="black" stroke="black" points="700.906,-87.3156 709.699,-81.4047 699.139,-80.5423 700.906,-87.3156"/>
</g>
<!-- EAID_7C0C20DC_0A4A_4c74_AC26_7B7CE26C58EB -->
<g id="node10" class="node"><title>EAID_7C0C20DC_0A4A_4c74_AC26_7B7CE26C58EB</title>
<image xlink:href="img/activity_icon.png" width="30px" height="20px" preserveAspectRatio="xMinYMin meet" x="978" y="-191.5"/>
<text text-anchor="start" x="933" y="-149.3" font-family="Times New Roman,serif" font-weight="bold" font-size="24.00">notification</text>
</g>
<!-- EAID_F8A435F8_8303_41be_A051_08AD33B6C5F4&#45;&gt;EAID_7C0C20DC_0A4A_4c74_AC26_7B7CE26C58EB -->
<g id="edge8" class="edge"><title>EAID_F8A435F8_8303_41be_A051_08AD33B6C5F4&#45;&gt;EAID_7C0C20DC_0A4A_4c74_AC26_7B7CE26C58EB</title>
<path fill="none" stroke="black" d="M887.019,-107.602C900.738,-115.298 914.695,-123.129 927.763,-130.461"/>
<polygon fill="black" stroke="black" points="926.221,-133.609 936.655,-135.449 929.646,-127.504 926.221,-133.609"/>
</g>
<!-- EAID_FD8CB8D3_17FD_4342_B855_78E55A7AF774 -->
<g id="node9" class="node"><title>EAID_FD8CB8D3_17FD_4342_B855_78E55A7AF774</title>
<image xlink:href="img/activity_icon.png" width="30px" height="20px" preserveAspectRatio="xMinYMin meet" x="783.5" y="-407.5"/>
<text text-anchor="start" x="757.5" y="-365.3" font-family="Times New Roman,serif" font-weight="bold" font-size="24.00">meeting</text>
</g>
<!-- EAID_C0F343E2_CE3F_448e_AADE_3C83BBA2CECB&#45;&gt;EAID_FD8CB8D3_17FD_4342_B855_78E55A7AF774 -->
<g id="edge6" class="edge"><title>EAID_C0F343E2_CE3F_448e_AADE_3C83BBA2CECB&#45;&gt;EAID_FD8CB8D3_17FD_4342_B855_78E55A7AF774</title>
<path fill="none" stroke="black" d="M674.098,-350.308C695.312,-355.842 717.685,-361.679 737.468,-366.84"/>
<polygon fill="black" stroke="black" points="736.696,-370.255 747.256,-369.393 738.463,-363.482 736.696,-370.255"/>
</g>
<!-- EAID_C9FE4B63_F08B_4c75_8D19_E0AD1988AD45 -->
<g id="node11" class="node"><title>EAID_C9FE4B63_F08B_4c75_8D19_E0AD1988AD45</title>
<image xlink:href="img/control1.png" width="106px" height="75px" preserveAspectRatio="xMinYMin meet" x="746" y="-326.5"/>
<text text-anchor="start" x="720.5" y="-228.3" font-family="Times New Roman,serif" font-size="24.00">send notification</text>
</g>
<!-- EAID_C0F343E2_CE3F_448e_AADE_3C83BBA2CECB&#45;&gt;EAID_C9FE4B63_F08B_4c75_8D19_E0AD1988AD45 -->
<g id="edge10" class="edge"><title>EAID_C0F343E2_CE3F_448e_AADE_3C83BBA2CECB&#45;&gt;EAID_C9FE4B63_F08B_4c75_8D19_E0AD1988AD45</title>
<path fill="none" stroke="black" d="M674.098,-306.692C682.658,-304.459 691.407,-302.176 700.099,-299.909"/>
<polygon fill="black" stroke="black" points="701.081,-303.27 709.874,-297.359 699.314,-296.497 701.081,-303.27"/>
</g>
<!-- EAID_C9FE4B63_F08B_4c75_8D19_E0AD1988AD45&#45;&gt;EAID_7C0C20DC_0A4A_4c74_AC26_7B7CE26C58EB -->
<g id="edge9" class="edge"><title>EAID_C9FE4B63_F08B_4c75_8D19_E0AD1988AD45&#45;&gt;EAID_7C0C20DC_0A4A_4c74_AC26_7B7CE26C58EB</title>
<path fill="none" stroke="black" d="M887.019,-225.398C900.738,-217.702 914.695,-209.871 927.763,-202.539"/>
<polygon fill="black" stroke="black" points="929.646,-205.496 936.655,-197.551 926.221,-199.391 929.646,-205.496"/>
</g>
</g>
</svg>
