<?xml version="1.0" encoding="UTF-8" standalone="no"?>
<!DOCTYPE svg PUBLIC "-//W3C//DTD SVG 1.1//EN"
 "http://www.w3.org/Graphics/SVG/1.1/DTD/svg11.dtd">
<!-- Generated by graphviz version 2.38.0 (20140413.2041)
 -->
<!-- Title: g Pages: 1 -->
<svg width="1090pt" height="262pt"
 viewBox="0.00 0.00 1090.00 261.88" xmlns="http://www.w3.org/2000/svg" xmlns:xlink="http://www.w3.org/1999/xlink">
<g id="graph0" class="graph" transform="scale(1 1) rotate(0) translate(4 257.879)">
<title>g</title>
<polygon fill="white" stroke="none" points="-4,4 -4,-257.879 1086,-257.879 1086,4 -4,4"/>
<!-- EAID_3CB4BAAB_0B7D_47b0_BB28_D8B52B6F6524 -->
<g id="node1" class="node"><title>EAID_3CB4BAAB_0B7D_47b0_BB28_D8B52B6F6524</title>
<image xlink:href="img/actor1.png" width="61px" height="90px" preserveAspectRatio="xMinYMin meet" x="10.5" y="-242.5"/>
<text text-anchor="start" x="19" y="-129.3" font-family="Times New Roman,serif" font-size="24.00">User</text>
</g>
<!-- EAID_93306665_6AD5_4054_B911_6DACBEFE2714 -->
<g id="node2" class="node"><title>EAID_93306665_6AD5_4054_B911_6DACBEFE2714</title>
<image xlink:href="img/boundary3.png" width="115px" height="67px" preserveAspectRatio="xMinYMin meet" x="936.5" y="-189.5"/>
<text text-anchor="start" x="915.5" y="-99.3" font-family="Times New Roman,serif" font-size="24.00">Scenario display</text>
</g>
<!-- EAID_3CB4BAAB_0B7D_47b0_BB28_D8B52B6F6524&#45;&gt;EAID_93306665_6AD5_4054_B911_6DACBEFE2714 -->
<g id="edge1" class="edge"><title>EAID_3CB4BAAB_0B7D_47b0_BB28_D8B52B6F6524&#45;&gt;EAID_93306665_6AD5_4054_B911_6DACBEFE2714</title>
<path fill="none" stroke="black" d="M81.0488,-195.627C92.515,-198.85 105.142,-201.848 117,-203.5 448.026,-249.629 544.533,-286.673 869,-206.5 877.81,-204.323 886.685,-201.392 895.418,-197.974"/>
<polygon fill="black" stroke="black" points="896.923,-201.139 904.829,-194.086 894.25,-194.67 896.923,-201.139"/>
</g>
<!-- EAID_E7EEC50C_1D59_428a_9C61_4EE1FBBD339B -->
<g id="node3" class="node"><title>EAID_E7EEC50C_1D59_428a_9C61_4EE1FBBD339B</title>
<image xlink:href="img/boundary3.png" width="115px" height="67px" preserveAspectRatio="xMinYMin meet" x="219.5" y="-188.5"/>
<text text-anchor="start" x="127.5" y="-98.3" font-family="Times New Roman,serif" font-size="24.00">Civilian or veteran radio button</text>
</g>
<!-- EAID_3CB4BAAB_0B7D_47b0_BB28_D8B52B6F6524&#45;&gt;EAID_E7EEC50C_1D59_428a_9C61_4EE1FBBD339B -->
<g id="edge2" class="edge"><title>EAID_3CB4BAAB_0B7D_47b0_BB28_D8B52B6F6524&#45;&gt;EAID_E7EEC50C_1D59_428a_9C61_4EE1FBBD339B</title>
<path fill="none" stroke="black" d="M81.1949,-175.375C88.9513,-173.983 97.528,-172.444 106.63,-170.81"/>
<polygon fill="black" stroke="black" points="107.474,-174.214 116.699,-169.003 106.238,-167.325 107.474,-174.214"/>
</g>
<!-- EAID_FD391164_9DF5_4f76_BFF6_5A9D39DB9894 -->
<g id="node4" class="node"><title>EAID_FD391164_9DF5_4f76_BFF6_5A9D39DB9894</title>
<image xlink:href="img/control1.png" width="106px" height="75px" preserveAspectRatio="xMinYMin meet" x="514" y="-190.5"/>
<text text-anchor="start" x="482.5" y="-92.3" font-family="Times New Roman,serif" font-size="24.00">load first scenario</text>
</g>
<!-- EAID_E7EEC50C_1D59_428a_9C61_4EE1FBBD339B&#45;&gt;EAID_FD391164_9DF5_4f76_BFF6_5A9D39DB9894 -->
<g id="edge3" class="edge"><title>EAID_E7EEC50C_1D59_428a_9C61_4EE1FBBD339B&#45;&gt;EAID_FD391164_9DF5_4f76_BFF6_5A9D39DB9894</title>
<path fill="none" stroke="black" d="M436.243,-139.398C444.864,-139.338 453.415,-139.278 461.769,-139.22"/>
<polygon fill="black" stroke="black" points="461.877,-142.72 471.852,-139.15 461.828,-135.72 461.877,-142.72"/>
</g>
<!-- EAID_476444A2_503D_4b08_92CF_05000D714527 -->
<g id="node5" class="node"><title>EAID_476444A2_503D_4b08_92CF_05000D714527</title>
<image xlink:href="img/activity_icon.png" width="30px" height="20px" preserveAspectRatio="xMinYMin meet" x="768" y="-191.5"/>
<text text-anchor="start" x="738" y="-149.3" font-family="Times New Roman,serif" font-weight="bold" font-size="24.00">Scenario</text>
</g>
<!-- EAID_FD391164_9DF5_4f76_BFF6_5A9D39DB9894&#45;&gt;EAID_476444A2_503D_4b08_92CF_05000D714527 -->
<g id="edge4" class="edge"><title>EAID_FD391164_9DF5_4f76_BFF6_5A9D39DB9894&#45;&gt;EAID_476444A2_503D_4b08_92CF_05000D714527</title>
<path fill="none" stroke="black" d="M661.271,-150.74C680.307,-153.225 699.918,-155.785 717.655,-158.101"/>
<polygon fill="black" stroke="black" points="717.494,-161.609 727.863,-159.433 718.4,-154.668 717.494,-161.609"/>
</g>
<!-- EAID_DF48F089_9912_4569_85BB_E65E3C888840 -->
<g id="node6" class="node"><title>EAID_DF48F089_9912_4569_85BB_E65E3C888840</title>
<image xlink:href="img/control1.png" width="106px" height="75px" preserveAspectRatio="xMinYMin meet" x="730" y="-110.5"/>
<text text-anchor="start" x="707" y="-12.3" font-family="Times New Roman,serif" font-size="24.00">display scenario</text>
</g>
<!-- EAID_FD391164_9DF5_4f76_BFF6_5A9D39DB9894&#45;&gt;EAID_DF48F089_9912_4569_85BB_E65E3C888840 -->
<g id="edge6" class="edge"><title>EAID_FD391164_9DF5_4f76_BFF6_5A9D39DB9894&#45;&gt;EAID_DF48F089_9912_4569_85BB_E65E3C888840</title>
<path fill="none" stroke="black" d="M661.271,-103.527C669.963,-100.285 678.776,-96.9984 687.476,-93.7539"/>
<polygon fill="black" stroke="black" points="688.713,-97.0278 696.86,-90.2539 686.267,-90.4691 688.713,-97.0278"/>
</g>
<!-- EAID_DF48F089_9912_4569_85BB_E65E3C888840&#45;&gt;EAID_93306665_6AD5_4054_B911_6DACBEFE2714 -->
<g id="edge5" class="edge"><title>EAID_DF48F089_9912_4569_85BB_E65E3C888840&#45;&gt;EAID_93306665_6AD5_4054_B911_6DACBEFE2714</title>
<path fill="none" stroke="black" d="M869.106,-92.379C877.788,-95.8354 886.655,-99.3649 895.452,-102.867"/>
<polygon fill="black" stroke="black" points="894.374,-106.205 904.959,-106.652 896.963,-99.7013 894.374,-106.205"/>
</g>
</g>
</svg>
