<?xml version="1.0" encoding="UTF-8" standalone="no"?>
<!DOCTYPE svg PUBLIC "-//W3C//DTD SVG 1.1//EN"
 "http://www.w3.org/Graphics/SVG/1.1/DTD/svg11.dtd">
<!-- Generated by graphviz version 2.40.1 (20161225.0304)
 -->
<!-- Title: class_diagram Pages: 1 -->
<svg width="3281pt" height="73pt"
 viewBox="0.00 0.00 3281.36 73.00" xmlns="http://www.w3.org/2000/svg" xmlns:xlink="http://www.w3.org/1999/xlink">
<g id="graph0" class="graph" transform="scale(1 1) rotate(0) translate(4 69)">
<title>class_diagram</title>
<polygon fill="#ffffff" stroke="transparent" points="-4,4 -4,-69 3277.3594,-69 3277.3594,4 -4,4"/>
<!-- c26bb5f01_e322_4d2d_a8b1_ba0fc0e5c837 -->
<g id="c26bb5f01_e322_4d2d_a8b1_ba0fc0e5c837" class="node">
<title>c26bb5f01_e322_4d2d_a8b1_ba0fc0e5c837</title>
<polygon fill="none" stroke="#000000" points="0,-12.5 0,-52.5 116.7188,-52.5 116.7188,-12.5 0,-12.5"/>
<text text-anchor="middle" x="58.3594" y="-42.1" font-family="Times,serif" font-size="8.00" fill="#000000">AndroidProcesses</text>
<polyline fill="none" stroke="#000000" points="0,-36.5 116.7188,-36.5 "/>
<text text-anchor="start" x="8" y="-26.1" font-family="Times,serif" font-size="8.00" fill="#000000">+ log()</text>
<text text-anchor="start" x="8" y="-18.1" font-family="Times,serif" font-size="8.00" fill="#000000">+ getRunningAppProcessInfo()</text>
</g>
<!-- cf52d9771_ccc1_44d4_8425_9f1ad81ed047 -->
<g id="cf52d9771_ccc1_44d4_8425_9f1ad81ed047" class="node">
<title>cf52d9771_ccc1_44d4_8425_9f1ad81ed047</title>
<polygon fill="none" stroke="#000000" points="134.6973,-14.5 134.6973,-50.5 208.0215,-50.5 208.0215,-14.5 134.6973,-14.5"/>
<text text-anchor="middle" x="171.3594" y="-30.1" font-family="Times,serif" font-size="8.00" fill="#000000">ActivityProcesses</text>
</g>
<!-- c1a5fc6b5_1746_432d_b380_0a45a314ef5b -->
<g id="c1a5fc6b5_1746_432d_b380_0a45a314ef5b" class="node">
<title>c1a5fc6b5_1746_432d_b380_0a45a314ef5b</title>
<polygon fill="none" stroke="#000000" points="225.8105,-14.5 225.8105,-50.5 292.9082,-50.5 292.9082,-14.5 225.8105,-14.5"/>
<text text-anchor="middle" x="259.3594" y="-30.1" font-family="Times,serif" font-size="8.00" fill="#000000">ContentHandler</text>
</g>
<!-- c72e0d728_0f50_4898_8814_bdfb95c5efce -->
<g id="c72e0d728_0f50_4898_8814_bdfb95c5efce" class="node">
<title>c72e0d728_0f50_4898_8814_bdfb95c5efce</title>
<polygon fill="none" stroke="#000000" points="310.918,-14.5 310.918,-50.5 391.8008,-50.5 391.8008,-14.5 310.918,-14.5"/>
<text text-anchor="middle" x="351.3594" y="-39.6" font-family="Times,serif" font-size="8.00" fill="#000000">AndroidAppProcess</text>
<polyline fill="none" stroke="#000000" points="310.918,-33.5 391.8008,-33.5 "/>
<text text-anchor="start" x="318.918" y="-22.6" font-family="Times,serif" font-size="8.00" fill="#000000">&#45; uid:int</text>
<polyline fill="none" stroke="#000000" points="310.918,-16.5 391.8008,-16.5 "/>
</g>
<!-- cdda0fc85_c316_42fd_ab0d_71f3ccea99a9 -->
<g id="cdda0fc85_c316_42fd_ab0d_71f3ccea99a9" class="node">
<title>cdda0fc85_c316_42fd_ab0d_71f3ccea99a9</title>
<polygon fill="none" stroke="#000000" points="410.2559,-14.5 410.2559,-50.5 468.4629,-50.5 468.4629,-14.5 410.2559,-14.5"/>
<text text-anchor="middle" x="439.3594" y="-30.1" font-family="Times,serif" font-size="8.00" fill="#000000">DTDHandler</text>
</g>
<!-- c24ce660e_8dc0_473e_b394_c4e38de9c8cd -->
<g id="c24ce660e_8dc0_473e_b394_c4e38de9c8cd" class="node">
<title>c24ce660e_8dc0_473e_b394_c4e38de9c8cd</title>
<polygon fill="none" stroke="#000000" points="486.3359,-14.5 486.3359,-50.5 642.3828,-50.5 642.3828,-14.5 486.3359,-14.5"/>
<text text-anchor="middle" x="564.3594" y="-39.6" font-family="Times,serif" font-size="8.00" fill="#000000">ControlGroup$1</text>
<polyline fill="none" stroke="#000000" points="486.3359,-33.5 642.3828,-33.5 "/>
<text text-anchor="start" x="494.3359" y="-22.6" font-family="Times,serif" font-size="8.00" fill="#000000">&#45; CREATOR:android.os.Parcelable$Creator</text>
<polyline fill="none" stroke="#000000" points="486.3359,-16.5 642.3828,-16.5 "/>
</g>
<!-- cef84b6d3_cade_4300_872f_281418c0eb94 -->
<g id="cef84b6d3_cade_4300_872f_281418c0eb94" class="node">
<title>cef84b6d3_cade_4300_872f_281418c0eb94</title>
<polygon fill="none" stroke="#000000" points="660.332,-12.5 660.332,-52.5 718.3867,-52.5 718.3867,-12.5 660.332,-12.5"/>
<text text-anchor="middle" x="689.3594" y="-42.1" font-family="Times,serif" font-size="8.00" fill="#000000">Cgroup$1</text>
<polyline fill="none" stroke="#000000" points="660.332,-36.5 718.3867,-36.5 "/>
<text text-anchor="start" x="668.332" y="-26.1" font-family="Times,serif" font-size="8.00" fill="#000000">+ getGroup()</text>
<text text-anchor="start" x="668.332" y="-18.1" font-family="Times,serif" font-size="8.00" fill="#000000">+ get()</text>
</g>
<!-- c6fc2930f_4d8a_4160_a72b_883f3ce2adab -->
<g id="c6fc2930f_4d8a_4160_a72b_883f3ce2adab" class="node">
<title>c6fc2930f_4d8a_4160_a72b_883f3ce2adab</title>
<polygon fill="none" stroke="#000000" points="736.3594,-14.5 736.3594,-50.5 790.3594,-50.5 790.3594,-14.5 736.3594,-14.5"/>
<text text-anchor="middle" x="763.082" y="-35.1" font-family="Times,serif" font-size="8.00" fill="#000000">Stat</text>
<polyline fill="none" stroke="#000000" points="736.3594,-24.5 789.8047,-24.5 "/>
</g>
<!-- c26338479_b9d9_4d9d_a063_460bde04b1cf -->
<g id="c26338479_b9d9_4d9d_a063_460bde04b1cf" class="node">
<title>c26338479_b9d9_4d9d_a063_460bde04b1cf</title>
<polygon fill="none" stroke="#000000" points="808.3594,-14.5 808.3594,-50.5 862.3594,-50.5 862.3594,-14.5 808.3594,-14.5"/>
<text text-anchor="middle" x="835.1387" y="-35.1" font-family="Times,serif" font-size="8.00" fill="#000000">Status$1</text>
<polyline fill="none" stroke="#000000" points="808.3594,-24.5 861.918,-24.5 "/>
</g>
<!-- c107559a1_bc1c_47f6_86cf_18b0ae30ca22 -->
<g id="c107559a1_bc1c_47f6_86cf_18b0ae30ca22" class="node">
<title>c107559a1_bc1c_47f6_86cf_18b0ae30ca22</title>
<polygon fill="none" stroke="#000000" points="880.3594,-14.5 880.3594,-50.5 934.3594,-50.5 934.3594,-14.5 880.3594,-14.5"/>
<text text-anchor="middle" x="906.9141" y="-35.1" font-family="Times,serif" font-size="8.00" fill="#000000">ProcFile</text>
<polyline fill="none" stroke="#000000" points="880.3594,-24.5 933.4688,-24.5 "/>
</g>
<!-- c2142f4cc_c454_41f3_a9ae_ea4c00ce814d -->
<g id="c2142f4cc_c454_41f3_a9ae_ea4c00ce814d" class="node">
<title>c2142f4cc_c454_41f3_a9ae_ea4c00ce814d</title>
<polygon fill="none" stroke="#000000" points="951.9258,-.5 951.9258,-64.5 1042.793,-64.5 1042.793,-.5 951.9258,-.5"/>
<text text-anchor="middle" x="997.3594" y="-54.1" font-family="Times,serif" font-size="8.00" fill="#000000">AndroidProcess</text>
<polyline fill="none" stroke="#000000" points="951.9258,-48.5 1042.793,-48.5 "/>
<text text-anchor="start" x="959.9258" y="-38.1" font-family="Times,serif" font-size="8.00" fill="#000000">&#45; name:java.lang.String</text>
<polyline fill="none" stroke="#000000" points="951.9258,-32.5 1042.793,-32.5 "/>
<text text-anchor="start" x="959.9258" y="-22.1" font-family="Times,serif" font-size="8.00" fill="#000000">+ status()</text>
<text text-anchor="start" x="959.9258" y="-14.1" font-family="Times,serif" font-size="8.00" fill="#000000">+ cgroup()</text>
<text text-anchor="start" x="959.9258" y="-6.1" font-family="Times,serif" font-size="8.00" fill="#000000">+ stat()</text>
</g>
<!-- c653c0b90_dc7c_4e96_bbce_fe5eebc86af9 -->
<g id="c653c0b90_dc7c_4e96_bbce_fe5eebc86af9" class="node">
<title>c653c0b90_dc7c_4e96_bbce_fe5eebc86af9</title>
<polygon fill="none" stroke="#000000" points="1061.2598,-14.5 1061.2598,-50.5 1175.459,-50.5 1175.459,-14.5 1061.2598,-14.5"/>
<text text-anchor="middle" x="1118.3594" y="-30.1" font-family="Times,serif" font-size="8.00" fill="#000000">SAXNotRecognizedException</text>
</g>
<!-- c787608d0_1497_4327_82ba_f8fc4990b25f -->
<g id="c787608d0_1497_4327_82ba_f8fc4990b25f" class="node">
<title>c787608d0_1497_4327_82ba_f8fc4990b25f</title>
<polygon fill="none" stroke="#000000" points="1193.0371,-14.5 1193.0371,-50.5 1251.6816,-50.5 1251.6816,-14.5 1193.0371,-14.5"/>
<text text-anchor="middle" x="1222.3594" y="-30.1" font-family="Times,serif" font-size="8.00" fill="#000000">ErrorHandler</text>
</g>
<!-- c217dad1e_947d_43e9_89a6_beeda31db73f -->
<g id="c217dad1e_947d_43e9_89a6_beeda31db73f" class="node">
<title>c217dad1e_947d_43e9_89a6_beeda31db73f</title>
<polygon fill="none" stroke="#000000" points="1269.3594,-14.5 1269.3594,-50.5 1323.3594,-50.5 1323.3594,-14.5 1269.3594,-14.5"/>
<text text-anchor="middle" x="1296.2969" y="-30.1" font-family="Times,serif" font-size="8.00" fill="#000000">Locator</text>
</g>
<!-- cf982f1a8_b570_40dd_a035_b0b6168b68d2 -->
<g id="cf982f1a8_b570_40dd_a035_b0b6168b68d2" class="node">
<title>cf982f1a8_b570_40dd_a035_b0b6168b68d2</title>
<polygon fill="none" stroke="#000000" points="1341.0391,-14.5 1341.0391,-50.5 1411.6797,-50.5 1411.6797,-14.5 1341.0391,-14.5"/>
<text text-anchor="middle" x="1376.3594" y="-30.1" font-family="Times,serif" font-size="8.00" fill="#000000">ServiceReader$4</text>
</g>
<!-- c00f8a0c1_c8e0_4bc0_8906_ddf5d3fcdba6 -->
<g id="c00f8a0c1_c8e0_4bc0_8906_ddf5d3fcdba6" class="node">
<title>c00f8a0c1_c8e0_4bc0_8906_ddf5d3fcdba6</title>
<polygon fill="none" stroke="#000000" points="1429.9238,-14.5 1429.9238,-50.5 1498.7949,-50.5 1498.7949,-14.5 1429.9238,-14.5"/>
<text text-anchor="middle" x="1464.3594" y="-30.1" font-family="Times,serif" font-size="8.00" fill="#000000">ProcessManager</text>
</g>
<!-- c2be8dbd0_72a9_4bfe_a58b_bb409b56c5ac -->
<g id="c2be8dbd0_72a9_4bfe_a58b_bb409b56c5ac" class="node">
<title>c2be8dbd0_72a9_4bfe_a58b_bb409b56c5ac</title>
<polygon fill="none" stroke="#000000" points="1516.3594,-14.5 1516.3594,-50.5 1570.3594,-50.5 1570.3594,-14.5 1516.3594,-14.5"/>
<text text-anchor="middle" x="1543.0273" y="-30.1" font-family="Times,serif" font-size="8.00" fill="#000000">C</text>
</g>
<!-- cb9f3ffd4_8609_4fd0_9f5d_f98a553e8c78 -->
<g id="cb9f3ffd4_8609_4fd0_9f5d_f98a553e8c78" class="node">
<title>cb9f3ffd4_8609_4fd0_9f5d_f98a553e8c78</title>
<polygon fill="none" stroke="#000000" points="1588.3594,-14.5 1588.3594,-50.5 1642.3594,-50.5 1642.3594,-14.5 1588.3594,-14.5"/>
<text text-anchor="middle" x="1615.1934" y="-30.1" font-family="Times,serif" font-size="8.00" fill="#000000">Statm</text>
</g>
<!-- cc62db310_929d_4d16_8f45_b9ab2f70d470 -->
<g id="cc62db310_929d_4d16_8f45_b9ab2f70d470" class="node">
<title>cc62db310_929d_4d16_8f45_b9ab2f70d470</title>
<polygon fill="none" stroke="#000000" points="1660.6973,-14.5 1660.6973,-50.5 1770.0215,-50.5 1770.0215,-14.5 1660.6973,-14.5"/>
<text text-anchor="middle" x="1715.3594" y="-30.1" font-family="Times,serif" font-size="8.00" fill="#000000">SAXNotSupportedException</text>
</g>
<!-- ce896d33b_49d0_4d70_8890_d68981ec1ac0 -->
<g id="ce896d33b_49d0_4d70_8890_d68981ec1ac0" class="node">
<title>ce896d33b_49d0_4d70_8890_d68981ec1ac0</title>
<polygon fill="none" stroke="#000000" points="1788.1445,-14.5 1788.1445,-50.5 1844.5742,-50.5 1844.5742,-14.5 1788.1445,-14.5"/>
<text text-anchor="middle" x="1816.3594" y="-30.1" font-family="Times,serif" font-size="8.00" fill="#000000">XMLReader</text>
</g>
<!-- cf9428c8e_e369_4057_8e21_790ea246742f -->
<g id="cf9428c8e_e369_4057_8e21_790ea246742f" class="node">
<title>cf9428c8e_e369_4057_8e21_790ea246742f</title>
<polygon fill="none" stroke="#000000" points="1863.0508,-14.5 1863.0508,-50.5 1921.668,-50.5 1921.668,-14.5 1863.0508,-14.5"/>
<text text-anchor="middle" x="1892.3594" y="-30.1" font-family="Times,serif" font-size="8.00" fill="#000000">ViewGraphic</text>
</g>
<!-- c54d44da9_a6bf_49f8_857d_d8833e9e8e95 -->
<g id="c54d44da9_a6bf_49f8_857d_d8833e9e8e95" class="node">
<title>c54d44da9_a6bf_49f8_857d_d8833e9e8e95</title>
<polygon fill="none" stroke="#000000" points="1939.8047,-14.5 1939.8047,-50.5 2002.9141,-50.5 2002.9141,-14.5 1939.8047,-14.5"/>
<text text-anchor="middle" x="1971.3594" y="-30.1" font-family="Times,serif" font-size="8.00" fill="#000000">XmlPullParser</text>
</g>
<!-- c6e7d3435_2d0d_4ab6_859a_fbb0c4d67ae2 -->
<g id="c6e7d3435_2d0d_4ab6_859a_fbb0c4d67ae2" class="node">
<title>c6e7d3435_2d0d_4ab6_859a_fbb0c4d67ae2</title>
<polygon fill="none" stroke="#000000" points="2020.4766,-14.5 2020.4766,-50.5 2102.2422,-50.5 2102.2422,-14.5 2020.4766,-14.5"/>
<text text-anchor="middle" x="2061.3594" y="-30.1" font-family="Times,serif" font-size="8.00" fill="#000000">SAXParseException</text>
</g>
<!-- c1a850f51_d29f_426d_b9ed_a3e3ea3d6c73 -->
<g id="c1a850f51_d29f_426d_b9ed_a3e3ea3d6c73" class="node">
<title>c1a850f51_d29f_426d_b9ed_a3e3ea3d6c73</title>
<polygon fill="none" stroke="#000000" points="2120.5762,-14.5 2120.5762,-50.5 2176.1426,-50.5 2176.1426,-14.5 2120.5762,-14.5"/>
<text text-anchor="middle" x="2148.3594" y="-30.1" font-family="Times,serif" font-size="8.00" fill="#000000">BuildConfig</text>
</g>
<!-- ccf9eb8f4_e2ab_4bbc_bd34_f1f4a3ee15f4 -->
<g id="ccf9eb8f4_e2ab_4bbc_bd34_f1f4a3ee15f4" class="node">
<title>ccf9eb8f4_e2ab_4bbc_bd34_f1f4a3ee15f4</title>
<polygon fill="none" stroke="#000000" points="2193.8066,-14.5 2193.8066,-50.5 2264.9121,-50.5 2264.9121,-14.5 2193.8066,-14.5"/>
<text text-anchor="middle" x="2229.3594" y="-30.1" font-family="Times,serif" font-size="8.00" fill="#000000">ActivityMain$19</text>
</g>
<!-- c9e2d6ea4_c3fc_44d5_926d_e4c020ba8c5a -->
<g id="c9e2d6ea4_c3fc_44d5_926d_e4c020ba8c5a" class="node">
<title>c9e2d6ea4_c3fc_44d5_926d_e4c020ba8c5a</title>
<polygon fill="none" stroke="#000000" points="2283.3633,-14.5 2283.3633,-50.5 2347.3555,-50.5 2347.3555,-14.5 2283.3633,-14.5"/>
<text text-anchor="middle" x="2315.3594" y="-30.1" font-family="Times,serif" font-size="8.00" fill="#000000">EntityResolver</text>
</g>
<!-- c5aeabf29_3ce0_4e75_ba89_0f8816ea595e -->
<g id="c5aeabf29_3ce0_4e75_ba89_0f8816ea595e" class="node">
<title>c5aeabf29_3ce0_4e75_ba89_0f8816ea595e</title>
<polygon fill="none" stroke="#000000" points="2365.3594,-14.5 2365.3594,-50.5 2419.3594,-50.5 2419.3594,-14.5 2365.3594,-14.5"/>
<text text-anchor="middle" x="2392.0273" y="-30.1" font-family="Times,serif" font-size="8.00" fill="#000000">R</text>
</g>
<!-- c0fc79a67_5200_4c51_8f1a_4c2b5d7fd1d4 -->
<g id="c0fc79a67_5200_4c51_8f1a_4c2b5d7fd1d4" class="node">
<title>c0fc79a67_5200_4c51_8f1a_4c2b5d7fd1d4</title>
<polygon fill="none" stroke="#000000" points="2437.1406,-14.5 2437.1406,-50.5 2501.5781,-50.5 2501.5781,-14.5 2437.1406,-14.5"/>
<text text-anchor="middle" x="2469.3594" y="-30.1" font-family="Times,serif" font-size="8.00" fill="#000000">SAXException</text>
</g>
<!-- cdc1fcb61_33fc_4bfc_8da7_e7aa5fa36fbc -->
<g id="cdc1fcb61_33fc_4bfc_8da7_e7aa5fa36fbc" class="node">
<title>cdc1fcb61_33fc_4bfc_8da7_e7aa5fa36fbc</title>
<polygon fill="none" stroke="#000000" points="2519.8086,-14.5 2519.8086,-50.5 2574.9102,-50.5 2574.9102,-14.5 2519.8086,-14.5"/>
<text text-anchor="middle" x="2547.3594" y="-30.1" font-family="Times,serif" font-size="8.00" fill="#000000">InputSource</text>
</g>
<!-- c82c624df_c3d4_44a3_885c_1196d9ae1ef8 -->
<g id="c82c624df_c3d4_44a3_885c_1196d9ae1ef8" class="node">
<title>c82c624df_c3d4_44a3_885c_1196d9ae1ef8</title>
<polygon fill="none" stroke="#000000" points="2593.3594,-14.5 2593.3594,-50.5 2647.3594,-50.5 2647.3594,-14.5 2593.3594,-14.5"/>
<text text-anchor="middle" x="2620.0254" y="-30.1" font-family="Times,serif" font-size="8.00" fill="#000000">R$layout</text>
</g>
<!-- cf681bca0_111d_4f6e_866a_113171f6720c -->
<g id="cf681bca0_111d_4f6e_866a_113171f6720c" class="node">
<title>cf681bca0_111d_4f6e_866a_113171f6720c</title>
<polygon fill="none" stroke="#000000" points="2665.5879,-14.5 2665.5879,-50.5 2761.1309,-50.5 2761.1309,-14.5 2665.5879,-14.5"/>
<text text-anchor="middle" x="2713.3594" y="-30.1" font-family="Times,serif" font-size="8.00" fill="#000000">XmlPullParserException</text>
</g>
<!-- c1b86b4ed_fc31_4ff1_9ce2_68cbc7625b12 -->
<g id="c1b86b4ed_fc31_4ff1_9ce2_68cbc7625b12" class="node">
<title>c1b86b4ed_fc31_4ff1_9ce2_68cbc7625b12</title>
<polygon fill="none" stroke="#000000" points="2778.7012,-14.5 2778.7012,-50.5 2876.0176,-50.5 2876.0176,-14.5 2778.7012,-14.5"/>
<text text-anchor="middle" x="2827.3594" y="-30.1" font-family="Times,serif" font-size="8.00" fill="#000000">LinearLayoutCustomised</text>
</g>
<!-- c6b5817e4_9dca_492c_bff2_3e0c41d37c97 -->
<g id="c6b5817e4_9dca_492c_bff2_3e0c41d37c97" class="node">
<title>c6b5817e4_9dca_492c_bff2_3e0c41d37c97</title>
<polygon fill="none" stroke="#000000" points="2894.4746,-14.5 2894.4746,-50.5 2960.2441,-50.5 2960.2441,-14.5 2894.4746,-14.5"/>
<text text-anchor="middle" x="2927.3594" y="-30.1" font-family="Times,serif" font-size="8.00" fill="#000000">ActivityHelp$1</text>
</g>
<!-- c64ca224c_be8a_4142_81d5_a45db4e9bafb -->
<g id="c64ca224c_be8a_4142_81d5_a45db4e9bafb" class="node">
<title>c64ca224c_be8a_4142_81d5_a45db4e9bafb</title>
<polygon fill="none" stroke="#000000" points="2978.25,-14.5 2978.25,-50.5 3048.4688,-50.5 3048.4688,-14.5 2978.25,-14.5"/>
<text text-anchor="middle" x="3013.3594" y="-30.1" font-family="Times,serif" font-size="8.00" fill="#000000">ActivityAbout$2</text>
</g>
<!-- cecfea575_1dbc_49db_a9c1_6c53e4d0cd8d -->
<g id="cecfea575_1dbc_49db_a9c1_6c53e4d0cd8d" class="node">
<title>cecfea575_1dbc_49db_a9c1_6c53e4d0cd8d</title>
<polygon fill="none" stroke="#000000" points="3066.9238,-14.5 3066.9238,-50.5 3127.7949,-50.5 3127.7949,-14.5 3066.9238,-14.5"/>
<text text-anchor="middle" x="3097.3594" y="-30.1" font-family="Times,serif" font-size="8.00" fill="#000000">XmlSerializer</text>
</g>
<!-- c9326c61a_9070_408c_8d8a_f6af53479702 -->
<g id="c9326c61a_9070_408c_8d8a_f6af53479702" class="node">
<title>c9326c61a_9070_408c_8d8a_f6af53479702</title>
<polygon fill="none" stroke="#000000" points="3145.5762,-14.5 3145.5762,-50.5 3201.1426,-50.5 3201.1426,-14.5 3145.5762,-14.5"/>
<text text-anchor="middle" x="3173.3594" y="-30.1" font-family="Times,serif" font-size="8.00" fill="#000000">BuildConfig</text>
</g>
<!-- c0ad26709_58bb_4112_a993_99a43066e8f8 -->
<g id="c0ad26709_58bb_4112_a993_99a43066e8f8" class="node">
<title>c0ad26709_58bb_4112_a993_99a43066e8f8</title>
<polygon fill="none" stroke="#000000" points="3219.3594,-14.5 3219.3594,-50.5 3273.3594,-50.5 3273.3594,-14.5 3219.3594,-14.5"/>
<text text-anchor="middle" x="3246.3574" y="-30.1" font-family="Times,serif" font-size="8.00" fill="#000000">Attributes</text>
</g>
</g>
</svg>
