<?xml version="1.0" encoding="UTF-8" standalone="no"?>
<!DOCTYPE svg PUBLIC "-//W3C//DTD SVG 1.1//EN"
 "http://www.w3.org/Graphics/SVG/1.1/DTD/svg11.dtd">
<!-- Generated by graphviz version 2.38.0 (20140413.2041)
 -->
<!-- Title: g Pages: 1 -->
<svg width="1189pt" height="293pt"
 viewBox="0.00 0.00 1189.00 293.00" xmlns="http://www.w3.org/2000/svg" xmlns:xlink="http://www.w3.org/1999/xlink">
<g id="graph0" class="graph" transform="scale(1 1) rotate(0) translate(4 289)">
<title>g</title>
<polygon fill="white" stroke="none" points="-4,4 -4,-289 1185,-289 1185,4 -4,4"/>
<!-- EAID_B3EDB848_66EB_49ed_AB23_E8BF434A74DD -->
<g id="node1" class="node"><title>EAID_B3EDB848_66EB_49ed_AB23_E8BF434A74DD</title>
<image xlink:href="img/actor1.png" width="61px" height="90px" preserveAspectRatio="xMinYMin meet" x="10.5" y="-249.5"/>
<text text-anchor="start" x="19" y="-136.3" font-family="Times New Roman,serif" font-size="24.00">User</text>
</g>
<!-- EAID_09BA9F56_DE0C_4b41_9FE4_BA333CB99624 -->
<g id="node2" class="node"><title>EAID_09BA9F56_DE0C_4b41_9FE4_BA333CB99624</title>
<image xlink:href="img/boundary3.png" width="115px" height="67px" preserveAspectRatio="xMinYMin meet" x="574.5" y="-237.5"/>
<text text-anchor="start" x="559.5" y="-147.3" font-family="Times New Roman,serif" font-size="24.00">Sorting options</text>
</g>
<!-- EAID_B3EDB848_66EB_49ed_AB23_E8BF434A74DD&#45;&gt;EAID_09BA9F56_DE0C_4b41_9FE4_BA333CB99624 -->
<g id="edge1" class="edge"><title>EAID_B3EDB848_66EB_49ed_AB23_E8BF434A74DD&#45;&gt;EAID_09BA9F56_DE0C_4b41_9FE4_BA333CB99624</title>
<path fill="none" stroke="black" d="M81.0565,-202.572C92.5228,-205.794 105.148,-208.805 117,-210.5 158.141,-216.382 483.758,-215.335 513,-212.5 521.493,-211.677 530.284,-210.526 539.058,-209.174"/>
<polygon fill="black" stroke="black" points="539.632,-212.627 548.941,-207.569 538.509,-205.717 539.632,-212.627"/>
</g>
<!-- EAID_C95283CD_BE00_4d8e_AB1D_F030BEF6021A -->
<g id="node3" class="node"><title>EAID_C95283CD_BE00_4d8e_AB1D_F030BEF6021A</title>
<image xlink:href="img/boundary3.png" width="115px" height="67px" preserveAspectRatio="xMinYMin meet" x="1007.5" y="-278.5"/>
<text text-anchor="start" x="958.5" y="-188.3" font-family="Times New Roman,serif" font-size="24.00">Sorted List of Pictures</text>
</g>
<!-- EAID_B3EDB848_66EB_49ed_AB23_E8BF434A74DD&#45;&gt;EAID_C95283CD_BE00_4d8e_AB1D_F030BEF6021A -->
<g id="edge2" class="edge"><title>EAID_B3EDB848_66EB_49ed_AB23_E8BF434A74DD&#45;&gt;EAID_C95283CD_BE00_4d8e_AB1D_F030BEF6021A</title>
<path fill="none" stroke="black" d="M81.3683,-211.648C92.6226,-217.174 105.061,-222.622 117,-226.5 235.209,-264.898 268.211,-274.5 392.5,-274.5 392.5,-274.5 392.5,-274.5 632.5,-274.5 757.04,-274.5 788.272,-268.701 912,-254.5 920.458,-253.529 929.166,-252.427 937.93,-251.24"/>
<polygon fill="black" stroke="black" points="938.412,-254.707 947.837,-249.868 937.452,-247.773 938.412,-254.707"/>
</g>
<!-- EAID_C0B042A9_C206_456b_BE10_2FDCFF5921B1 -->
<g id="node4" class="node"><title>EAID_C0B042A9_C206_456b_BE10_2FDCFF5921B1</title>
<image xlink:href="img/boundary3.png" width="101px" height="67px" preserveAspectRatio="xMinYMin meet" x="127.5" y="-195.5"/>
<text text-anchor="start" x="127.5" y="-105.3" font-family="Times New Roman,serif" font-size="24.00">Filter Icon</text>
</g>
<!-- EAID_B3EDB848_66EB_49ed_AB23_E8BF434A74DD&#45;&gt;EAID_C0B042A9_C206_456b_BE10_2FDCFF5921B1 -->
<g id="edge3" class="edge"><title>EAID_B3EDB848_66EB_49ed_AB23_E8BF434A74DD&#45;&gt;EAID_C0B042A9_C206_456b_BE10_2FDCFF5921B1</title>
<path fill="none" stroke="black" d="M81.2743,-177.126C89.4992,-174.567 98.3888,-171.801 107.318,-169.023"/>
<polygon fill="black" stroke="black" points="108.484,-172.326 116.992,-166.013 106.404,-165.642 108.484,-172.326"/>
</g>
<!-- EAID_49713EE2_112F_4ada_8582_C3C2C8A73424 -->
<g id="node5" class="node"><title>EAID_49713EE2_112F_4ada_8582_C3C2C8A73424</title>
<image xlink:href="img/control1.png" width="106px" height="75px" preserveAspectRatio="xMinYMin meet" x="579" y="-110.5"/>
<text text-anchor="start" x="559.5" y="-12.3" font-family="Times New Roman,serif" font-size="24.00">Sorting options</text>
</g>
<!-- EAID_B3EDB848_66EB_49ed_AB23_E8BF434A74DD&#45;&gt;EAID_49713EE2_112F_4ada_8582_C3C2C8A73424 -->
<g id="edge4" class="edge"><title>EAID_B3EDB848_66EB_49ed_AB23_E8BF434A74DD&#45;&gt;EAID_49713EE2_112F_4ada_8582_C3C2C8A73424</title>
<path fill="none" stroke="black" d="M74.8041,-123.404C86,-107.666 100.05,-92.7659 117,-83.5 249.336,-11.1585 430.693,-23.4243 538.702,-40.1234"/>
<polygon fill="black" stroke="black" points="538.174,-43.5833 548.6,-41.6979 539.274,-36.6702 538.174,-43.5833"/>
</g>
<!-- EAID_1767467F_C026_441d_A346_F0884A874BDC -->
<g id="node7" class="node"><title>EAID_1767467F_C026_441d_A346_F0884A874BDC</title>
<image xlink:href="img/control1.png" width="106px" height="75px" preserveAspectRatio="xMinYMin meet" x="778" y="-239.5"/>
<text text-anchor="start" x="760" y="-141.3" font-family="Times New Roman,serif" font-size="24.00">sort the picture</text>
</g>
<!-- EAID_09BA9F56_DE0C_4b41_9FE4_BA333CB99624&#45;&gt;EAID_1767467F_C026_441d_A346_F0884A874BDC -->
<g id="edge9" class="edge"><title>EAID_09BA9F56_DE0C_4b41_9FE4_BA333CB99624&#45;&gt;EAID_1767467F_C026_441d_A346_F0884A874BDC</title>
<path fill="none" stroke="black" d="M714.256,-188.672C722.631,-188.587 731.173,-188.501 739.633,-188.415"/>
<polygon fill="black" stroke="black" points="739.93,-191.912 749.894,-188.311 739.859,-184.913 739.93,-191.912"/>
</g>
<!-- EAID_44CB1AB3_A922_4df0_AC49_AB2D73AB0F6A -->
<g id="node6" class="node"><title>EAID_44CB1AB3_A922_4df0_AC49_AB2D73AB0F6A</title>
<image xlink:href="img/control1.png" width="106px" height="75px" preserveAspectRatio="xMinYMin meet" x="341" y="-197.5"/>
<text text-anchor="start" x="284.5" y="-99.3" font-family="Times New Roman,serif" font-size="24.00">Display sorting options</text>
</g>
<!-- EAID_C0B042A9_C206_456b_BE10_2FDCFF5921B1&#45;&gt;EAID_44CB1AB3_A922_4df0_AC49_AB2D73AB0F6A -->
<g id="edge7" class="edge"><title>EAID_C0B042A9_C206_456b_BE10_2FDCFF5921B1&#45;&gt;EAID_44CB1AB3_A922_4df0_AC49_AB2D73AB0F6A</title>
<path fill="none" stroke="black" d="M238.111,-146.943C246.288,-146.866 254.928,-146.786 263.774,-146.703"/>
<polygon fill="black" stroke="black" points="263.869,-150.202 273.836,-146.609 263.804,-143.203 263.869,-150.202"/>
</g>
<!-- EAID_44CB1AB3_A922_4df0_AC49_AB2D73AB0F6A&#45;&gt;EAID_09BA9F56_DE0C_4b41_9FE4_BA333CB99624 -->
<g id="edge5" class="edge"><title>EAID_44CB1AB3_A922_4df0_AC49_AB2D73AB0F6A&#45;&gt;EAID_09BA9F56_DE0C_4b41_9FE4_BA333CB99624</title>
<path fill="none" stroke="black" d="M513.191,-167.629C521.854,-169.244 530.511,-170.858 538.977,-172.436"/>
<polygon fill="black" stroke="black" points="538.344,-175.879 548.816,-174.271 539.627,-168.997 538.344,-175.879"/>
</g>
<!-- EAID_44CB1AB3_A922_4df0_AC49_AB2D73AB0F6A&#45;&gt;EAID_49713EE2_112F_4ada_8582_C3C2C8A73424 -->
<g id="edge6" class="edge"><title>EAID_44CB1AB3_A922_4df0_AC49_AB2D73AB0F6A&#45;&gt;EAID_49713EE2_112F_4ada_8582_C3C2C8A73424</title>
<path fill="none" stroke="black" d="M513.191,-101.745C521.948,-98.517 530.7,-95.2908 539.253,-92.1376"/>
<polygon fill="black" stroke="black" points="540.644,-95.3552 548.816,-88.6123 538.223,-88.7873 540.644,-95.3552"/>
</g>
<!-- EAID_1767467F_C026_441d_A346_F0884A874BDC&#45;&gt;EAID_C95283CD_BE00_4d8e_AB1D_F030BEF6021A -->
<g id="edge8" class="edge"><title>EAID_1767467F_C026_441d_A346_F0884A874BDC&#45;&gt;EAID_C95283CD_BE00_4d8e_AB1D_F030BEF6021A</title>
<path fill="none" stroke="black" d="M912.318,-202.419C920.667,-203.97 929.289,-205.571 937.985,-207.186"/>
<polygon fill="black" stroke="black" points="937.353,-210.629 947.824,-209.014 938.632,-203.746 937.353,-210.629"/>
</g>
</g>
</svg>
