<?xml version="1.0" encoding="UTF-8" standalone="no"?>
<!DOCTYPE svg PUBLIC "-//W3C//DTD SVG 1.1//EN"
 "http://www.w3.org/Graphics/SVG/1.1/DTD/svg11.dtd">
<!-- Generated by graphviz version 2.38.0 (20140413.2041)
 -->
<!-- Title: g Pages: 1 -->
<svg width="784pt" height="692pt"
 viewBox="0.00 0.00 784.34 692.00" xmlns="http://www.w3.org/2000/svg" xmlns:xlink="http://www.w3.org/1999/xlink">
<g id="graph0" class="graph" transform="scale(1 1) rotate(0) translate(4 688)">
<title>g</title>
<polygon fill="white" stroke="none" points="-4,4 -4,-688 780.34,-688 780.34,4 -4,4"/>
<!-- Administrator -->
<g id="node1" class="node"><title>Administrator</title>
<ellipse fill="none" stroke="black" cx="76" cy="-666" rx="60.3893" ry="18"/>
<text text-anchor="middle" x="76" y="-662.3" font-family="Times New Roman,serif" font-size="14.00">Administrator</text>
</g>
<!-- informatin invalid error message -->
<g id="node2" class="node"><title>informatin invalid error message</title>
<ellipse fill="none" stroke="black" cx="400" cy="-90" rx="126.178" ry="18"/>
<text text-anchor="middle" x="400" y="-86.3" font-family="Times New Roman,serif" font-size="14.00">informatin invalid error message</text>
</g>
<!-- Administrator&#45;&gt;informatin invalid error message -->
<g id="edge1" class="edge"><title>Administrator&#45;&gt;informatin invalid error message</title>
<path fill="none" stroke="black" d="M76,-647.951C76,-621.292 76,-568.115 76,-523 76,-523 76,-523 76,-233 76,-143.466 181.073,-109.856 271.546,-97.5111"/>
<polygon fill="black" stroke="black" points="272.182,-100.958 281.653,-96.2106 271.288,-94.0155 272.182,-100.958"/>
</g>
<!-- unauthorized error message -->
<g id="node3" class="node"><title>unauthorized error message</title>
<ellipse fill="none" stroke="black" cx="214" cy="-306" rx="110.48" ry="18"/>
<text text-anchor="middle" x="214" y="-302.3" font-family="Times New Roman,serif" font-size="14.00">unauthorized error message</text>
</g>
<!-- Administrator&#45;&gt;unauthorized error message -->
<g id="edge2" class="edge"><title>Administrator&#45;&gt;unauthorized error message</title>
<path fill="none" stroke="black" d="M68.3101,-647.907C57.2064,-621.623 38,-569.447 38,-523 38,-523 38,-523 38,-449 38,-386.722 105.575,-347.103 156.981,-325.973"/>
<polygon fill="black" stroke="black" points="158.371,-329.187 166.372,-322.242 155.786,-322.682 158.371,-329.187"/>
</g>
<!-- case information edit page -->
<g id="node4" class="node"><title>case information edit page</title>
<ellipse fill="none" stroke="black" cx="530" cy="-234" rx="105.881" ry="18"/>
<text text-anchor="middle" x="530" y="-230.3" font-family="Times New Roman,serif" font-size="14.00">case information edit page</text>
</g>
<!-- Administrator&#45;&gt;case information edit page -->
<g id="edge3" class="edge"><title>Administrator&#45;&gt;case information edit page</title>
<path fill="none" stroke="black" d="M60.2528,-648.609C37.9919,-623.639 0,-573.611 0,-523 0,-523 0,-523 0,-377 0,-319.144 42.5812,-312.487 95,-288 150.813,-261.927 310.089,-247.632 419.592,-240.647"/>
<polygon fill="black" stroke="black" points="419.936,-244.133 429.698,-240.014 419.498,-237.146 419.936,-244.133"/>
</g>
<!-- list of cases -->
<g id="node5" class="node"><title>list of cases</title>
<ellipse fill="none" stroke="black" cx="230" cy="-594" rx="53.8905" ry="18"/>
<text text-anchor="middle" x="230" y="-590.3" font-family="Times New Roman,serif" font-size="14.00">list of cases</text>
</g>
<!-- Administrator&#45;&gt;list of cases -->
<g id="edge4" class="edge"><title>Administrator&#45;&gt;list of cases</title>
<path fill="none" stroke="black" d="M107.909,-650.496C131.736,-639.666 164.456,-624.793 190.027,-613.17"/>
<polygon fill="black" stroke="black" points="191.788,-616.214 199.444,-608.889 188.892,-609.841 191.788,-616.214"/>
</g>
<!-- case information page -->
<g id="node6" class="node"><title>case information page</title>
<ellipse fill="none" stroke="black" cx="266" cy="-450" rx="90.1842" ry="18"/>
<text text-anchor="middle" x="266" y="-446.3" font-family="Times New Roman,serif" font-size="14.00">case information page</text>
</g>
<!-- Administrator&#45;&gt;case information page -->
<g id="edge5" class="edge"><title>Administrator&#45;&gt;case information page</title>
<path fill="none" stroke="black" d="M81.1531,-647.972C93.1316,-608.795 122.62,-514.792 133,-504 149.886,-486.443 173.334,-474.562 195.846,-466.583"/>
<polygon fill="black" stroke="black" points="197.032,-469.877 205.414,-463.397 194.821,-463.235 197.032,-469.877"/>
</g>
<!-- validate input information -->
<g id="node9" class="node"><title>validate input information</title>
<ellipse fill="none" stroke="black" cx="530" cy="-162" rx="102.882" ry="18"/>
<text text-anchor="middle" x="530" y="-158.3" font-family="Times New Roman,serif" font-size="14.00">validate input information</text>
</g>
<!-- case information edit page&#45;&gt;validate input information -->
<g id="edge9" class="edge"><title>case information edit page&#45;&gt;validate input information</title>
<path fill="none" stroke="black" d="M530,-215.697C530,-207.983 530,-198.712 530,-190.112"/>
<polygon fill="black" stroke="black" points="533.5,-190.104 530,-180.104 526.5,-190.104 533.5,-190.104"/>
</g>
<!-- query detail of a case -->
<g id="node13" class="node"><title>query detail of a case</title>
<ellipse fill="none" stroke="black" cx="230" cy="-522" rx="87.9851" ry="18"/>
<text text-anchor="middle" x="230" y="-518.3" font-family="Times New Roman,serif" font-size="14.00">query detail of a case</text>
</g>
<!-- list of cases&#45;&gt;query detail of a case -->
<g id="edge17" class="edge"><title>list of cases&#45;&gt;query detail of a case</title>
<path fill="none" stroke="black" d="M230,-575.697C230,-567.983 230,-558.712 230,-550.112"/>
<polygon fill="black" stroke="black" points="233.5,-550.104 230,-540.104 226.5,-550.104 233.5,-550.104"/>
</g>
<!-- validate role -->
<g id="node11" class="node"><title>validate role</title>
<ellipse fill="none" stroke="black" cx="466" cy="-378" rx="53.8905" ry="18"/>
<text text-anchor="middle" x="466" y="-374.3" font-family="Times New Roman,serif" font-size="14.00">validate role</text>
</g>
<!-- case information page&#45;&gt;validate role -->
<g id="edge11" class="edge"><title>case information page&#45;&gt;validate role</title>
<path fill="none" stroke="black" d="M308.905,-433.983C341.812,-422.466 387.124,-406.607 420.63,-394.88"/>
<polygon fill="black" stroke="black" points="421.901,-398.143 430.184,-391.536 419.589,-391.536 421.901,-398.143"/>
</g>
<!-- save case update information -->
<g id="node7" class="node"><title>save case update information</title>
<ellipse fill="none" stroke="black" cx="660" cy="-90" rx="116.18" ry="18"/>
<text text-anchor="middle" x="660" y="-86.3" font-family="Times New Roman,serif" font-size="14.00">save case update information</text>
</g>
<!-- case information -->
<g id="node8" class="node"><title>case information</title>
<ellipse fill="none" stroke="black" cx="660" cy="-18" rx="70.6878" ry="18"/>
<text text-anchor="middle" x="660" y="-14.3" font-family="Times New Roman,serif" font-size="14.00">case information</text>
</g>
<!-- save case update information&#45;&gt;case information -->
<g id="edge6" class="edge"><title>save case update information&#45;&gt;case information</title>
<path fill="none" stroke="black" d="M660,-71.6966C660,-63.9827 660,-54.7125 660,-46.1124"/>
<polygon fill="black" stroke="black" points="663.5,-46.1043 660,-36.1043 656.5,-46.1044 663.5,-46.1043"/>
</g>
<!-- validate input information&#45;&gt;informatin invalid error message -->
<g id="edge7" class="edge"><title>validate input information&#45;&gt;informatin invalid error message</title>
<path fill="none" stroke="black" d="M499.849,-144.765C481.977,-135.142 459.116,-122.832 439.779,-112.419"/>
<polygon fill="black" stroke="black" points="441.355,-109.293 430.891,-107.633 438.036,-115.456 441.355,-109.293"/>
</g>
<!-- validate input information&#45;&gt;save case update information -->
<g id="edge8" class="edge"><title>validate input information&#45;&gt;save case update information</title>
<path fill="none" stroke="black" d="M560.151,-144.765C578.152,-135.072 601.216,-122.653 620.641,-112.193"/>
<polygon fill="black" stroke="black" points="622.416,-115.212 629.562,-107.39 619.098,-109.049 622.416,-115.212"/>
</g>
<!-- display information edit page -->
<g id="node10" class="node"><title>display information edit page</title>
<ellipse fill="none" stroke="black" cx="530" cy="-306" rx="115.88" ry="18"/>
<text text-anchor="middle" x="530" y="-302.3" font-family="Times New Roman,serif" font-size="14.00">display information edit page</text>
</g>
<!-- display information edit page&#45;&gt;case information edit page -->
<g id="edge10" class="edge"><title>display information edit page&#45;&gt;case information edit page</title>
<path fill="none" stroke="black" d="M530,-287.697C530,-279.983 530,-270.712 530,-262.112"/>
<polygon fill="black" stroke="black" points="533.5,-262.104 530,-252.104 526.5,-262.104 533.5,-262.104"/>
</g>
<!-- validate role&#45;&gt;unauthorized error message -->
<g id="edge14" class="edge"><title>validate role&#45;&gt;unauthorized error message</title>
<path fill="none" stroke="black" d="M425.791,-365.831C385.705,-354.696 323.555,-337.432 276.93,-324.481"/>
<polygon fill="black" stroke="black" points="277.802,-321.09 267.23,-321.786 275.929,-327.835 277.802,-321.09"/>
</g>
<!-- validate role&#45;&gt;display information edit page -->
<g id="edge12" class="edge"><title>validate role&#45;&gt;display information edit page</title>
<path fill="none" stroke="black" d="M481.167,-360.411C489.101,-351.734 498.964,-340.946 507.745,-331.342"/>
<polygon fill="black" stroke="black" points="510.333,-333.698 514.497,-323.956 505.166,-328.975 510.333,-333.698"/>
</g>
<!-- role -->
<g id="node12" class="node"><title>role</title>
<ellipse fill="none" stroke="black" cx="369" cy="-306" rx="27" ry="18"/>
<text text-anchor="middle" x="369" y="-302.3" font-family="Times New Roman,serif" font-size="14.00">role</text>
</g>
<!-- validate role&#45;&gt;role -->
<g id="edge13" class="edge"><title>validate role&#45;&gt;role</title>
<path fill="none" stroke="black" d="M444.473,-361.465C429.779,-350.861 410.244,-336.763 394.729,-325.567"/>
<polygon fill="black" stroke="black" points="396.737,-322.7 386.58,-319.687 392.641,-328.377 396.737,-322.7"/>
</g>
<!-- query detail of a case&#45;&gt;case information page -->
<g id="edge16" class="edge"><title>query detail of a case&#45;&gt;case information page</title>
<path fill="none" stroke="black" d="M238.715,-504.055C242.854,-496.007 247.895,-486.205 252.512,-477.226"/>
<polygon fill="black" stroke="black" points="255.655,-478.769 257.116,-468.275 249.43,-475.567 255.655,-478.769"/>
</g>
<!-- case -->
<g id="node14" class="node"><title>case</title>
<ellipse fill="none" stroke="black" cx="131" cy="-450" rx="27" ry="18"/>
<text text-anchor="middle" x="131" y="-446.3" font-family="Times New Roman,serif" font-size="14.00">case</text>
</g>
<!-- query detail of a case&#45;&gt;case -->
<g id="edge15" class="edge"><title>query detail of a case&#45;&gt;case</title>
<path fill="none" stroke="black" d="M206.789,-504.588C191.979,-494.116 172.745,-480.517 157.36,-469.639"/>
<polygon fill="black" stroke="black" points="158.995,-466.508 148.809,-463.592 154.954,-472.223 158.995,-466.508"/>
</g>
<!-- Case Manager -->
<g id="node15" class="node"><title>Case Manager</title>
<ellipse fill="none" stroke="black" cx="384" cy="-666" rx="62.2891" ry="18"/>
<text text-anchor="middle" x="384" y="-662.3" font-family="Times New Roman,serif" font-size="14.00">Case Manager</text>
</g>
<!-- Case Manager&#45;&gt;informatin invalid error message -->
<g id="edge21" class="edge"><title>Case Manager&#45;&gt;informatin invalid error message</title>
<path fill="none" stroke="black" d="M446.466,-664.749C541.633,-660.708 712,-637.486 712,-523 712,-523 712,-523 712,-233 712,-182.676 684.638,-170.73 642,-144 617.464,-128.618 551.777,-114.753 495.022,-105.066"/>
<polygon fill="black" stroke="black" points="495.349,-101.572 484.907,-103.367 494.189,-108.475 495.349,-101.572"/>
</g>
<!-- Case Manager&#45;&gt;unauthorized error message -->
<g id="edge20" class="edge"><title>Case Manager&#45;&gt;unauthorized error message</title>
<path fill="none" stroke="black" d="M384,-647.951C384,-621.292 384,-568.115 384,-523 384,-523 384,-523 384,-449 384,-387.945 318.613,-348.003 268.943,-326.47"/>
<polygon fill="black" stroke="black" points="270.132,-323.174 259.557,-322.536 267.426,-329.63 270.132,-323.174"/>
</g>
<!-- Case Manager&#45;&gt;case information edit page -->
<g id="edge18" class="edge"><title>Case Manager&#45;&gt;case information edit page</title>
<path fill="none" stroke="black" d="M444.794,-661.635C529.831,-653.277 674,-624.186 674,-523 674,-523 674,-523 674,-377 674,-336.553 680.747,-319.193 655,-288 641.46,-271.597 621.935,-260.172 602.327,-252.255"/>
<polygon fill="black" stroke="black" points="603.312,-248.886 592.72,-248.643 600.849,-255.438 603.312,-248.886"/>
</g>
<!-- Case Manager&#45;&gt;list of cases -->
<g id="edge22" class="edge"><title>Case Manager&#45;&gt;list of cases</title>
<path fill="none" stroke="black" d="M352.091,-650.496C328.264,-639.666 295.544,-624.793 269.973,-613.17"/>
<polygon fill="black" stroke="black" points="271.108,-609.841 260.556,-608.889 268.212,-616.214 271.108,-609.841"/>
</g>
<!-- Case Manager&#45;&gt;case information page -->
<g id="edge19" class="edge"><title>Case Manager&#45;&gt;case information page</title>
<path fill="none" stroke="black" d="M379.172,-647.963C368.711,-611.725 343.565,-528.324 327,-504 319.336,-492.746 308.715,-482.407 298.482,-473.908"/>
<polygon fill="black" stroke="black" points="300.428,-470.984 290.421,-467.503 296.073,-476.464 300.428,-470.984"/>
</g>
</g>
</svg>
