<?xml version="1.0" encoding="UTF-8" standalone="no"?>
<!DOCTYPE svg PUBLIC "-//W3C//DTD SVG 1.1//EN"
 "http://www.w3.org/Graphics/SVG/1.1/DTD/svg11.dtd">
<!-- Generated by graphviz version 2.40.1 (20161225.0304)
 -->
<!-- Title: class_diagram Pages: 1 -->
<svg width="3281pt" height="73pt"
 viewBox="0.00 0.00 3281.36 73.00" xmlns="http://www.w3.org/2000/svg" xmlns:xlink="http://www.w3.org/1999/xlink">
<g id="graph0" class="graph" transform="scale(1 1) rotate(0) translate(4 69)">
<title>class_diagram</title>
<polygon fill="#ffffff" stroke="transparent" points="-4,4 -4,-69 3277.3594,-69 3277.3594,4 -4,4"/>
<!-- c9f2598cf_8a9a_457c_a1f9_4acc88d89b3f -->
<g id="c9f2598cf_8a9a_457c_a1f9_4acc88d89b3f" class="node">
<title>c9f2598cf_8a9a_457c_a1f9_4acc88d89b3f</title>
<polygon fill="none" stroke="#000000" points="0,-12.5 0,-52.5 116.7188,-52.5 116.7188,-12.5 0,-12.5"/>
<text text-anchor="middle" x="58.3594" y="-42.1" font-family="Times,serif" font-size="8.00" fill="#000000">AndroidProcesses</text>
<polyline fill="none" stroke="#000000" points="0,-36.5 116.7188,-36.5 "/>
<text text-anchor="start" x="8" y="-26.1" font-family="Times,serif" font-size="8.00" fill="#000000">+ log()</text>
<text text-anchor="start" x="8" y="-18.1" font-family="Times,serif" font-size="8.00" fill="#000000">+ getRunningAppProcessInfo()</text>
</g>
<!-- c9e01241d_b371_414c_bae5_6cde987d2032 -->
<g id="c9e01241d_b371_414c_bae5_6cde987d2032" class="node">
<title>c9e01241d_b371_414c_bae5_6cde987d2032</title>
<polygon fill="none" stroke="#000000" points="134.6973,-14.5 134.6973,-50.5 208.0215,-50.5 208.0215,-14.5 134.6973,-14.5"/>
<text text-anchor="middle" x="171.3594" y="-30.1" font-family="Times,serif" font-size="8.00" fill="#000000">ActivityProcesses</text>
</g>
<!-- c7456bfb4_8e1d_42f4_868e_600f71e67781 -->
<g id="c7456bfb4_8e1d_42f4_868e_600f71e67781" class="node">
<title>c7456bfb4_8e1d_42f4_868e_600f71e67781</title>
<polygon fill="none" stroke="#000000" points="225.8105,-14.5 225.8105,-50.5 292.9082,-50.5 292.9082,-14.5 225.8105,-14.5"/>
<text text-anchor="middle" x="259.3594" y="-30.1" font-family="Times,serif" font-size="8.00" fill="#000000">ContentHandler</text>
</g>
<!-- cbdb3e119_a474_4824_8a93_c36aa9ded5fb -->
<g id="cbdb3e119_a474_4824_8a93_c36aa9ded5fb" class="node">
<title>cbdb3e119_a474_4824_8a93_c36aa9ded5fb</title>
<polygon fill="none" stroke="#000000" points="310.918,-14.5 310.918,-50.5 391.8008,-50.5 391.8008,-14.5 310.918,-14.5"/>
<text text-anchor="middle" x="351.3594" y="-39.6" font-family="Times,serif" font-size="8.00" fill="#000000">AndroidAppProcess</text>
<polyline fill="none" stroke="#000000" points="310.918,-33.5 391.8008,-33.5 "/>
<text text-anchor="start" x="318.918" y="-22.6" font-family="Times,serif" font-size="8.00" fill="#000000">&#45; uid:int</text>
<polyline fill="none" stroke="#000000" points="310.918,-16.5 391.8008,-16.5 "/>
</g>
<!-- ce283078d_e6c4_40d0_a0b5_3c58976ef612 -->
<g id="ce283078d_e6c4_40d0_a0b5_3c58976ef612" class="node">
<title>ce283078d_e6c4_40d0_a0b5_3c58976ef612</title>
<polygon fill="none" stroke="#000000" points="410.2559,-14.5 410.2559,-50.5 468.4629,-50.5 468.4629,-14.5 410.2559,-14.5"/>
<text text-anchor="middle" x="439.3594" y="-30.1" font-family="Times,serif" font-size="8.00" fill="#000000">DTDHandler</text>
</g>
<!-- c737edf25_1274_4194_b924_180c5d0dd558 -->
<g id="c737edf25_1274_4194_b924_180c5d0dd558" class="node">
<title>c737edf25_1274_4194_b924_180c5d0dd558</title>
<polygon fill="none" stroke="#000000" points="486.3359,-14.5 486.3359,-50.5 642.3828,-50.5 642.3828,-14.5 486.3359,-14.5"/>
<text text-anchor="middle" x="564.3594" y="-39.6" font-family="Times,serif" font-size="8.00" fill="#000000">ControlGroup$1</text>
<polyline fill="none" stroke="#000000" points="486.3359,-33.5 642.3828,-33.5 "/>
<text text-anchor="start" x="494.3359" y="-22.6" font-family="Times,serif" font-size="8.00" fill="#000000">&#45; CREATOR:android.os.Parcelable$Creator</text>
<polyline fill="none" stroke="#000000" points="486.3359,-16.5 642.3828,-16.5 "/>
</g>
<!-- ca3513515_da62_45d1_ad48_739c67681fca -->
<g id="ca3513515_da62_45d1_ad48_739c67681fca" class="node">
<title>ca3513515_da62_45d1_ad48_739c67681fca</title>
<polygon fill="none" stroke="#000000" points="660.332,-12.5 660.332,-52.5 718.3867,-52.5 718.3867,-12.5 660.332,-12.5"/>
<text text-anchor="middle" x="689.3594" y="-42.1" font-family="Times,serif" font-size="8.00" fill="#000000">Cgroup$1</text>
<polyline fill="none" stroke="#000000" points="660.332,-36.5 718.3867,-36.5 "/>
<text text-anchor="start" x="668.332" y="-26.1" font-family="Times,serif" font-size="8.00" fill="#000000">+ getGroup()</text>
<text text-anchor="start" x="668.332" y="-18.1" font-family="Times,serif" font-size="8.00" fill="#000000">+ get()</text>
</g>
<!-- cfa15c900_e977_4db9_ba24_3ecefec5a717 -->
<g id="cfa15c900_e977_4db9_ba24_3ecefec5a717" class="node">
<title>cfa15c900_e977_4db9_ba24_3ecefec5a717</title>
<polygon fill="none" stroke="#000000" points="736.3594,-14.5 736.3594,-50.5 790.3594,-50.5 790.3594,-14.5 736.3594,-14.5"/>
<text text-anchor="middle" x="763.082" y="-35.1" font-family="Times,serif" font-size="8.00" fill="#000000">Stat</text>
<polyline fill="none" stroke="#000000" points="736.3594,-24.5 789.8047,-24.5 "/>
</g>
<!-- c88a98b2c_9082_40e3_bc66_49082d2ae987 -->
<g id="c88a98b2c_9082_40e3_bc66_49082d2ae987" class="node">
<title>c88a98b2c_9082_40e3_bc66_49082d2ae987</title>
<polygon fill="none" stroke="#000000" points="808.3594,-14.5 808.3594,-50.5 862.3594,-50.5 862.3594,-14.5 808.3594,-14.5"/>
<text text-anchor="middle" x="835.1387" y="-35.1" font-family="Times,serif" font-size="8.00" fill="#000000">Status$1</text>
<polyline fill="none" stroke="#000000" points="808.3594,-24.5 861.918,-24.5 "/>
</g>
<!-- cdc7e80d2_37a3_489a_bfdd_f287734e1fa4 -->
<g id="cdc7e80d2_37a3_489a_bfdd_f287734e1fa4" class="node">
<title>cdc7e80d2_37a3_489a_bfdd_f287734e1fa4</title>
<polygon fill="none" stroke="#000000" points="880.3594,-14.5 880.3594,-50.5 934.3594,-50.5 934.3594,-14.5 880.3594,-14.5"/>
<text text-anchor="middle" x="906.9141" y="-35.1" font-family="Times,serif" font-size="8.00" fill="#000000">ProcFile</text>
<polyline fill="none" stroke="#000000" points="880.3594,-24.5 933.4688,-24.5 "/>
</g>
<!-- c536ada91_39bf_4fb2_bef6_0c6440bf1ce9 -->
<g id="c536ada91_39bf_4fb2_bef6_0c6440bf1ce9" class="node">
<title>c536ada91_39bf_4fb2_bef6_0c6440bf1ce9</title>
<polygon fill="none" stroke="#000000" points="951.9258,-.5 951.9258,-64.5 1042.793,-64.5 1042.793,-.5 951.9258,-.5"/>
<text text-anchor="middle" x="997.3594" y="-54.1" font-family="Times,serif" font-size="8.00" fill="#000000">AndroidProcess</text>
<polyline fill="none" stroke="#000000" points="951.9258,-48.5 1042.793,-48.5 "/>
<text text-anchor="start" x="959.9258" y="-38.1" font-family="Times,serif" font-size="8.00" fill="#000000">&#45; name:java.lang.String</text>
<polyline fill="none" stroke="#000000" points="951.9258,-32.5 1042.793,-32.5 "/>
<text text-anchor="start" x="959.9258" y="-22.1" font-family="Times,serif" font-size="8.00" fill="#000000">+ status()</text>
<text text-anchor="start" x="959.9258" y="-14.1" font-family="Times,serif" font-size="8.00" fill="#000000">+ cgroup()</text>
<text text-anchor="start" x="959.9258" y="-6.1" font-family="Times,serif" font-size="8.00" fill="#000000">+ stat()</text>
</g>
<!-- c631c92de_278b_4e14_9253_e6f5315179ef -->
<g id="c631c92de_278b_4e14_9253_e6f5315179ef" class="node">
<title>c631c92de_278b_4e14_9253_e6f5315179ef</title>
<polygon fill="none" stroke="#000000" points="1061.2598,-14.5 1061.2598,-50.5 1175.459,-50.5 1175.459,-14.5 1061.2598,-14.5"/>
<text text-anchor="middle" x="1118.3594" y="-30.1" font-family="Times,serif" font-size="8.00" fill="#000000">SAXNotRecognizedException</text>
</g>
<!-- c6c43fa57_2b20_4205_b2a7_d3268a821a43 -->
<g id="c6c43fa57_2b20_4205_b2a7_d3268a821a43" class="node">
<title>c6c43fa57_2b20_4205_b2a7_d3268a821a43</title>
<polygon fill="none" stroke="#000000" points="1193.0371,-14.5 1193.0371,-50.5 1251.6816,-50.5 1251.6816,-14.5 1193.0371,-14.5"/>
<text text-anchor="middle" x="1222.3594" y="-30.1" font-family="Times,serif" font-size="8.00" fill="#000000">ErrorHandler</text>
</g>
<!-- c20d3306a_491e_4431_ae7f_4a15eb817847 -->
<g id="c20d3306a_491e_4431_ae7f_4a15eb817847" class="node">
<title>c20d3306a_491e_4431_ae7f_4a15eb817847</title>
<polygon fill="none" stroke="#000000" points="1269.3594,-14.5 1269.3594,-50.5 1323.3594,-50.5 1323.3594,-14.5 1269.3594,-14.5"/>
<text text-anchor="middle" x="1296.2969" y="-30.1" font-family="Times,serif" font-size="8.00" fill="#000000">Locator</text>
</g>
<!-- caa46120d_04f0_48ca_8744_45268a35185d -->
<g id="caa46120d_04f0_48ca_8744_45268a35185d" class="node">
<title>caa46120d_04f0_48ca_8744_45268a35185d</title>
<polygon fill="none" stroke="#000000" points="1341.0391,-14.5 1341.0391,-50.5 1411.6797,-50.5 1411.6797,-14.5 1341.0391,-14.5"/>
<text text-anchor="middle" x="1376.3594" y="-30.1" font-family="Times,serif" font-size="8.00" fill="#000000">ServiceReader$4</text>
</g>
<!-- c10fd6813_1ab0_425f_b786_09ed70d67545 -->
<g id="c10fd6813_1ab0_425f_b786_09ed70d67545" class="node">
<title>c10fd6813_1ab0_425f_b786_09ed70d67545</title>
<polygon fill="none" stroke="#000000" points="1429.9238,-14.5 1429.9238,-50.5 1498.7949,-50.5 1498.7949,-14.5 1429.9238,-14.5"/>
<text text-anchor="middle" x="1464.3594" y="-30.1" font-family="Times,serif" font-size="8.00" fill="#000000">ProcessManager</text>
</g>
<!-- cb03689b5_5650_4f00_9b65_9637c3618366 -->
<g id="cb03689b5_5650_4f00_9b65_9637c3618366" class="node">
<title>cb03689b5_5650_4f00_9b65_9637c3618366</title>
<polygon fill="none" stroke="#000000" points="1516.3594,-14.5 1516.3594,-50.5 1570.3594,-50.5 1570.3594,-14.5 1516.3594,-14.5"/>
<text text-anchor="middle" x="1543.0273" y="-30.1" font-family="Times,serif" font-size="8.00" fill="#000000">C</text>
</g>
<!-- c35d55558_0d8a_42f0_b91c_3f721940177a -->
<g id="c35d55558_0d8a_42f0_b91c_3f721940177a" class="node">
<title>c35d55558_0d8a_42f0_b91c_3f721940177a</title>
<polygon fill="none" stroke="#000000" points="1588.3594,-14.5 1588.3594,-50.5 1642.3594,-50.5 1642.3594,-14.5 1588.3594,-14.5"/>
<text text-anchor="middle" x="1615.1934" y="-30.1" font-family="Times,serif" font-size="8.00" fill="#000000">Statm</text>
</g>
<!-- c29b89c7b_7fdd_47cf_9fb8_89a9584a6c27 -->
<g id="c29b89c7b_7fdd_47cf_9fb8_89a9584a6c27" class="node">
<title>c29b89c7b_7fdd_47cf_9fb8_89a9584a6c27</title>
<polygon fill="none" stroke="#000000" points="1660.6973,-14.5 1660.6973,-50.5 1770.0215,-50.5 1770.0215,-14.5 1660.6973,-14.5"/>
<text text-anchor="middle" x="1715.3594" y="-30.1" font-family="Times,serif" font-size="8.00" fill="#000000">SAXNotSupportedException</text>
</g>
<!-- c110a1709_75b9_4a18_a91e_2c509c424476 -->
<g id="c110a1709_75b9_4a18_a91e_2c509c424476" class="node">
<title>c110a1709_75b9_4a18_a91e_2c509c424476</title>
<polygon fill="none" stroke="#000000" points="1788.1445,-14.5 1788.1445,-50.5 1844.5742,-50.5 1844.5742,-14.5 1788.1445,-14.5"/>
<text text-anchor="middle" x="1816.3594" y="-30.1" font-family="Times,serif" font-size="8.00" fill="#000000">XMLReader</text>
</g>
<!-- c8db360f3_4cb3_448f_8c9c_0217eec151d6 -->
<g id="c8db360f3_4cb3_448f_8c9c_0217eec151d6" class="node">
<title>c8db360f3_4cb3_448f_8c9c_0217eec151d6</title>
<polygon fill="none" stroke="#000000" points="1863.0508,-14.5 1863.0508,-50.5 1921.668,-50.5 1921.668,-14.5 1863.0508,-14.5"/>
<text text-anchor="middle" x="1892.3594" y="-30.1" font-family="Times,serif" font-size="8.00" fill="#000000">ViewGraphic</text>
</g>
<!-- c228a3c9a_9ce1_41b9_8f2f_8bbaa0a49ea1 -->
<g id="c228a3c9a_9ce1_41b9_8f2f_8bbaa0a49ea1" class="node">
<title>c228a3c9a_9ce1_41b9_8f2f_8bbaa0a49ea1</title>
<polygon fill="none" stroke="#000000" points="1939.8047,-14.5 1939.8047,-50.5 2002.9141,-50.5 2002.9141,-14.5 1939.8047,-14.5"/>
<text text-anchor="middle" x="1971.3594" y="-30.1" font-family="Times,serif" font-size="8.00" fill="#000000">XmlPullParser</text>
</g>
<!-- c7c4a4942_e1a5_4fd6_bffc_2760d8be745d -->
<g id="c7c4a4942_e1a5_4fd6_bffc_2760d8be745d" class="node">
<title>c7c4a4942_e1a5_4fd6_bffc_2760d8be745d</title>
<polygon fill="none" stroke="#000000" points="2020.4766,-14.5 2020.4766,-50.5 2102.2422,-50.5 2102.2422,-14.5 2020.4766,-14.5"/>
<text text-anchor="middle" x="2061.3594" y="-30.1" font-family="Times,serif" font-size="8.00" fill="#000000">SAXParseException</text>
</g>
<!-- c8ddfcdfe_a97e_418e_a765_e8d938264795 -->
<g id="c8ddfcdfe_a97e_418e_a765_e8d938264795" class="node">
<title>c8ddfcdfe_a97e_418e_a765_e8d938264795</title>
<polygon fill="none" stroke="#000000" points="2120.5762,-14.5 2120.5762,-50.5 2176.1426,-50.5 2176.1426,-14.5 2120.5762,-14.5"/>
<text text-anchor="middle" x="2148.3594" y="-30.1" font-family="Times,serif" font-size="8.00" fill="#000000">BuildConfig</text>
</g>
<!-- c48af8971_e03c_40cb_8fe4_9ea1b0dcdfa9 -->
<g id="c48af8971_e03c_40cb_8fe4_9ea1b0dcdfa9" class="node">
<title>c48af8971_e03c_40cb_8fe4_9ea1b0dcdfa9</title>
<polygon fill="none" stroke="#000000" points="2193.8066,-14.5 2193.8066,-50.5 2264.9121,-50.5 2264.9121,-14.5 2193.8066,-14.5"/>
<text text-anchor="middle" x="2229.3594" y="-30.1" font-family="Times,serif" font-size="8.00" fill="#000000">ActivityMain$19</text>
</g>
<!-- c862e9fdd_ad77_4216_a82c_6a1aee779402 -->
<g id="c862e9fdd_ad77_4216_a82c_6a1aee779402" class="node">
<title>c862e9fdd_ad77_4216_a82c_6a1aee779402</title>
<polygon fill="none" stroke="#000000" points="2283.3633,-14.5 2283.3633,-50.5 2347.3555,-50.5 2347.3555,-14.5 2283.3633,-14.5"/>
<text text-anchor="middle" x="2315.3594" y="-30.1" font-family="Times,serif" font-size="8.00" fill="#000000">EntityResolver</text>
</g>
<!-- c4615143d_f24a_4845_a9dc_9876163ed5f2 -->
<g id="c4615143d_f24a_4845_a9dc_9876163ed5f2" class="node">
<title>c4615143d_f24a_4845_a9dc_9876163ed5f2</title>
<polygon fill="none" stroke="#000000" points="2365.3594,-14.5 2365.3594,-50.5 2419.3594,-50.5 2419.3594,-14.5 2365.3594,-14.5"/>
<text text-anchor="middle" x="2392.0273" y="-30.1" font-family="Times,serif" font-size="8.00" fill="#000000">R</text>
</g>
<!-- cb9800804_a217_46c1_b251_a4d818915cf2 -->
<g id="cb9800804_a217_46c1_b251_a4d818915cf2" class="node">
<title>cb9800804_a217_46c1_b251_a4d818915cf2</title>
<polygon fill="none" stroke="#000000" points="2437.1406,-14.5 2437.1406,-50.5 2501.5781,-50.5 2501.5781,-14.5 2437.1406,-14.5"/>
<text text-anchor="middle" x="2469.3594" y="-30.1" font-family="Times,serif" font-size="8.00" fill="#000000">SAXException</text>
</g>
<!-- cf9d37ebb_cb53_4989_ad2f_a3f9d36d1300 -->
<g id="cf9d37ebb_cb53_4989_ad2f_a3f9d36d1300" class="node">
<title>cf9d37ebb_cb53_4989_ad2f_a3f9d36d1300</title>
<polygon fill="none" stroke="#000000" points="2519.8086,-14.5 2519.8086,-50.5 2574.9102,-50.5 2574.9102,-14.5 2519.8086,-14.5"/>
<text text-anchor="middle" x="2547.3594" y="-30.1" font-family="Times,serif" font-size="8.00" fill="#000000">InputSource</text>
</g>
<!-- c8d0cca0a_c3c8_4168_b5fc_7e940c17d93f -->
<g id="c8d0cca0a_c3c8_4168_b5fc_7e940c17d93f" class="node">
<title>c8d0cca0a_c3c8_4168_b5fc_7e940c17d93f</title>
<polygon fill="none" stroke="#000000" points="2593.3594,-14.5 2593.3594,-50.5 2647.3594,-50.5 2647.3594,-14.5 2593.3594,-14.5"/>
<text text-anchor="middle" x="2620.0254" y="-30.1" font-family="Times,serif" font-size="8.00" fill="#000000">R$layout</text>
</g>
<!-- c3f0abfb0_c6b6_4c8d_b5d1_a15d9a313eb2 -->
<g id="c3f0abfb0_c6b6_4c8d_b5d1_a15d9a313eb2" class="node">
<title>c3f0abfb0_c6b6_4c8d_b5d1_a15d9a313eb2</title>
<polygon fill="none" stroke="#000000" points="2665.5879,-14.5 2665.5879,-50.5 2761.1309,-50.5 2761.1309,-14.5 2665.5879,-14.5"/>
<text text-anchor="middle" x="2713.3594" y="-30.1" font-family="Times,serif" font-size="8.00" fill="#000000">XmlPullParserException</text>
</g>
<!-- cd0bd1b35_4248_4a1d_bcc1_b4d4ef472b60 -->
<g id="cd0bd1b35_4248_4a1d_bcc1_b4d4ef472b60" class="node">
<title>cd0bd1b35_4248_4a1d_bcc1_b4d4ef472b60</title>
<polygon fill="none" stroke="#000000" points="2778.7012,-14.5 2778.7012,-50.5 2876.0176,-50.5 2876.0176,-14.5 2778.7012,-14.5"/>
<text text-anchor="middle" x="2827.3594" y="-30.1" font-family="Times,serif" font-size="8.00" fill="#000000">LinearLayoutCustomised</text>
</g>
<!-- cb2bc857c_f5eb_4981_9bca_7377acf0792e -->
<g id="cb2bc857c_f5eb_4981_9bca_7377acf0792e" class="node">
<title>cb2bc857c_f5eb_4981_9bca_7377acf0792e</title>
<polygon fill="none" stroke="#000000" points="2894.4746,-14.5 2894.4746,-50.5 2960.2441,-50.5 2960.2441,-14.5 2894.4746,-14.5"/>
<text text-anchor="middle" x="2927.3594" y="-30.1" font-family="Times,serif" font-size="8.00" fill="#000000">ActivityHelp$1</text>
</g>
<!-- c8e5dc230_4325_4585_8106_89ac65671ce1 -->
<g id="c8e5dc230_4325_4585_8106_89ac65671ce1" class="node">
<title>c8e5dc230_4325_4585_8106_89ac65671ce1</title>
<polygon fill="none" stroke="#000000" points="2978.25,-14.5 2978.25,-50.5 3048.4688,-50.5 3048.4688,-14.5 2978.25,-14.5"/>
<text text-anchor="middle" x="3013.3594" y="-30.1" font-family="Times,serif" font-size="8.00" fill="#000000">ActivityAbout$2</text>
</g>
<!-- ca544c25a_b68d_492e_84fa_32d808caca85 -->
<g id="ca544c25a_b68d_492e_84fa_32d808caca85" class="node">
<title>ca544c25a_b68d_492e_84fa_32d808caca85</title>
<polygon fill="none" stroke="#000000" points="3066.9238,-14.5 3066.9238,-50.5 3127.7949,-50.5 3127.7949,-14.5 3066.9238,-14.5"/>
<text text-anchor="middle" x="3097.3594" y="-30.1" font-family="Times,serif" font-size="8.00" fill="#000000">XmlSerializer</text>
</g>
<!-- c0304cad8_04e3_4d1c_aa6c_2855f9b7f1dc -->
<g id="c0304cad8_04e3_4d1c_aa6c_2855f9b7f1dc" class="node">
<title>c0304cad8_04e3_4d1c_aa6c_2855f9b7f1dc</title>
<polygon fill="none" stroke="#000000" points="3145.5762,-14.5 3145.5762,-50.5 3201.1426,-50.5 3201.1426,-14.5 3145.5762,-14.5"/>
<text text-anchor="middle" x="3173.3594" y="-30.1" font-family="Times,serif" font-size="8.00" fill="#000000">BuildConfig</text>
</g>
<!-- cebef7d4a_9318_49b2_8d88_cd1099f9eeb1 -->
<g id="cebef7d4a_9318_49b2_8d88_cd1099f9eeb1" class="node">
<title>cebef7d4a_9318_49b2_8d88_cd1099f9eeb1</title>
<polygon fill="none" stroke="#000000" points="3219.3594,-14.5 3219.3594,-50.5 3273.3594,-50.5 3273.3594,-14.5 3219.3594,-14.5"/>
<text text-anchor="middle" x="3246.3574" y="-30.1" font-family="Times,serif" font-size="8.00" fill="#000000">Attributes</text>
</g>
</g>
</svg>
