<?xml version="1.0" encoding="UTF-8" standalone="no"?>
<!DOCTYPE svg PUBLIC "-//W3C//DTD SVG 1.1//EN"
 "http://www.w3.org/Graphics/SVG/1.1/DTD/svg11.dtd">
<!-- Generated by graphviz version 2.38.0 (20140413.2041)
 -->
<!-- Title: g Pages: 1 -->
<svg width="830pt" height="476pt"
 viewBox="0.00 0.00 830.13 476.00" xmlns="http://www.w3.org/2000/svg" xmlns:xlink="http://www.w3.org/1999/xlink">
<g id="graph0" class="graph" transform="scale(1 1) rotate(0) translate(4 472)">
<title>g</title>
<polygon fill="white" stroke="none" points="-4,4 -4,-472 826.126,-472 826.126,4 -4,4"/>
<!-- redirect to addresss input page -->
<g id="node1" class="node"><title>redirect to addresss input page</title>
<ellipse fill="none" stroke="black" cx="480.437" cy="-306" rx="122.379" ry="18"/>
<text text-anchor="middle" x="480.437" y="-302.3" font-family="Times New Roman,serif" font-size="14.00">redirect to addresss input page</text>
</g>
<!-- address input dialog -->
<g id="node2" class="node"><title>address input dialog</title>
<ellipse fill="none" stroke="black" cx="338.437" cy="-234" rx="83.6854" ry="18"/>
<text text-anchor="middle" x="338.437" y="-230.3" font-family="Times New Roman,serif" font-size="14.00">address input dialog</text>
</g>
<!-- redirect to addresss input page&#45;&gt;address input dialog -->
<g id="edge1" class="edge"><title>redirect to addresss input page&#45;&gt;address input dialog</title>
<path fill="none" stroke="black" d="M447.144,-288.588C427.007,-278.661 401.169,-265.925 379.736,-255.359"/>
<polygon fill="black" stroke="black" points="381.06,-252.11 370.544,-250.827 377.965,-258.388 381.06,-252.11"/>
</g>
<!-- validate the address form -->
<g id="node7" class="node"><title>validate the address form</title>
<ellipse fill="none" stroke="black" cx="353.437" cy="-162" rx="102.082" ry="18"/>
<text text-anchor="middle" x="353.437" y="-158.3" font-family="Times New Roman,serif" font-size="14.00">validate the address form</text>
</g>
<!-- address input dialog&#45;&gt;validate the address form -->
<g id="edge7" class="edge"><title>address input dialog&#45;&gt;validate the address form</title>
<path fill="none" stroke="black" d="M342.144,-215.697C343.797,-207.983 345.784,-198.712 347.627,-190.112"/>
<polygon fill="black" stroke="black" points="351.098,-190.616 349.771,-180.104 344.254,-189.149 351.098,-190.616"/>
</g>
<!-- search for best match -->
<g id="node3" class="node"><title>search for best match</title>
<ellipse fill="none" stroke="black" cx="353.437" cy="-90" rx="89.0842" ry="18"/>
<text text-anchor="middle" x="353.437" y="-86.3" font-family="Times New Roman,serif" font-size="14.00">search for best match</text>
</g>
<!-- Error message when connecting -->
<g id="node4" class="node"><title>Error message when connecting</title>
<ellipse fill="none" stroke="black" cx="446.437" cy="-18" rx="126.178" ry="18"/>
<text text-anchor="middle" x="446.437" y="-14.3" font-family="Times New Roman,serif" font-size="14.00">Error message when connecting</text>
</g>
<!-- search for best match&#45;&gt;Error message when connecting -->
<g id="edge2" class="edge"><title>search for best match&#45;&gt;Error message when connecting</title>
<path fill="none" stroke="black" d="M375.476,-72.411C387.461,-63.3901 402.477,-52.0882 415.605,-42.2065"/>
<polygon fill="black" stroke="black" points="418.024,-44.7664 423.909,-35.9562 413.815,-39.1736 418.024,-44.7664"/>
</g>
<!-- matched results for locations -->
<g id="node5" class="node"><title>matched results for locations</title>
<ellipse fill="none" stroke="black" cx="706.437" cy="-18" rx="115.88" ry="18"/>
<text text-anchor="middle" x="706.437" y="-14.3" font-family="Times New Roman,serif" font-size="14.00">matched results for locations</text>
</g>
<!-- search for best match&#45;&gt;matched results for locations -->
<g id="edge3" class="edge"><title>search for best match&#45;&gt;matched results for locations</title>
<path fill="none" stroke="black" d="M414.521,-76.8868C473.618,-65.168 563.454,-47.3535 627.851,-34.5836"/>
<polygon fill="black" stroke="black" points="628.831,-37.9575 637.959,-32.5791 627.469,-31.0912 628.831,-37.9575"/>
</g>
<!-- Google Places API -->
<g id="node6" class="node"><title>Google Places API</title>
<ellipse fill="none" stroke="black" cx="221.437" cy="-18" rx="80.6858" ry="18"/>
<text text-anchor="middle" x="221.437" y="-14.3" font-family="Times New Roman,serif" font-size="14.00">Google Places API</text>
</g>
<!-- search for best match&#45;&gt;Google Places API -->
<g id="edge4" class="edge"><title>search for best match&#45;&gt;Google Places API</title>
<path fill="none" stroke="black" d="M323.153,-72.9406C304.407,-62.9997 280.161,-50.1416 260.043,-39.4729"/>
<polygon fill="black" stroke="black" points="261.599,-36.3364 251.124,-34.7434 258.319,-42.5206 261.599,-36.3364"/>
</g>
<!-- validate the address form&#45;&gt;search for best match -->
<g id="edge6" class="edge"><title>validate the address form&#45;&gt;search for best match</title>
<path fill="none" stroke="black" d="M353.437,-143.697C353.437,-135.983 353.437,-126.712 353.437,-118.112"/>
<polygon fill="black" stroke="black" points="356.937,-118.104 353.437,-108.104 349.937,-118.104 356.937,-118.104"/>
</g>
<!-- Invalid input address -->
<g id="node8" class="node"><title>Invalid input address</title>
<ellipse fill="none" stroke="black" cx="546.437" cy="-90" rx="86.3847" ry="18"/>
<text text-anchor="middle" x="546.437" y="-86.3" font-family="Times New Roman,serif" font-size="14.00">Invalid input address</text>
</g>
<!-- validate the address form&#45;&gt;Invalid input address -->
<g id="edge5" class="edge"><title>validate the address form&#45;&gt;Invalid input address</title>
<path fill="none" stroke="black" d="M396.27,-145.465C425.631,-134.816 464.711,-120.642 495.643,-109.423"/>
<polygon fill="black" stroke="black" points="497.17,-112.592 505.377,-105.892 494.783,-106.011 497.17,-112.592"/>
</g>
<!-- Invalid input address&#45;&gt;redirect to addresss input page -->
<g id="edge9" class="edge"><title>Invalid input address&#45;&gt;redirect to addresss input page</title>
<path fill="none" stroke="black" d="M541.122,-108.232C529.634,-145.481 502.419,-233.723 488.678,-278.278"/>
<polygon fill="black" stroke="black" points="485.329,-277.262 485.726,-287.849 492.018,-279.325 485.329,-277.262"/>
</g>
<!-- displays a prompt for inputing address -->
<g id="node9" class="node"><title>displays a prompt for inputing address</title>
<ellipse fill="none" stroke="black" cx="151.437" cy="-306" rx="151.373" ry="18"/>
<text text-anchor="middle" x="151.437" y="-302.3" font-family="Times New Roman,serif" font-size="14.00">displays a prompt for inputing address</text>
</g>
<!-- displays a prompt for inputing address&#45;&gt;address input dialog -->
<g id="edge8" class="edge"><title>displays a prompt for inputing address&#45;&gt;address input dialog</title>
<path fill="none" stroke="black" d="M195.28,-288.588C223.406,-278.059 259.979,-264.369 289.117,-253.462"/>
<polygon fill="black" stroke="black" points="290.553,-256.662 298.691,-249.878 288.099,-250.106 290.553,-256.662"/>
</g>
<!-- Add location button -->
<g id="node10" class="node"><title>Add location button</title>
<ellipse fill="none" stroke="black" cx="185.437" cy="-378" rx="83.6854" ry="18"/>
<text text-anchor="middle" x="185.437" y="-374.3" font-family="Times New Roman,serif" font-size="14.00">Add location button</text>
</g>
<!-- Add location button&#45;&gt;displays a prompt for inputing address -->
<g id="edge10" class="edge"><title>Add location button&#45;&gt;displays a prompt for inputing address</title>
<path fill="none" stroke="black" d="M177.206,-360.055C173.338,-352.091 168.636,-342.411 164.313,-333.51"/>
<polygon fill="black" stroke="black" points="167.345,-331.741 159.827,-324.275 161.048,-334.8 167.345,-331.741"/>
</g>
<!-- Valet -->
<g id="node11" class="node"><title>Valet</title>
<ellipse fill="none" stroke="black" cx="630.437" cy="-450" rx="29.4969" ry="18"/>
<text text-anchor="middle" x="630.437" y="-446.3" font-family="Times New Roman,serif" font-size="14.00">Valet</text>
</g>
<!-- Valet&#45;&gt;address input dialog -->
<g id="edge11" class="edge"><title>Valet&#45;&gt;address input dialog</title>
<path fill="none" stroke="black" d="M602.075,-445.544C544.027,-436.836 411.892,-408.305 349.437,-324 336.438,-306.454 334.381,-281.42 335.178,-262.369"/>
<polygon fill="black" stroke="black" points="338.681,-262.436 335.889,-252.216 331.698,-261.947 338.681,-262.436"/>
</g>
<!-- Valet&#45;&gt;Error message when connecting -->
<g id="edge15" class="edge"><title>Valet&#45;&gt;Error message when connecting</title>
<path fill="none" stroke="black" d="M637.944,-432.338C649.019,-406.197 668.437,-353.702 668.437,-307 668.437,-307 668.437,-307 668.437,-161 668.437,-119.664 671.088,-100.799 641.437,-72 619.9,-51.0829 590.972,-38.2278 562.001,-30.3821"/>
<polygon fill="black" stroke="black" points="562.737,-26.9582 552.185,-27.909 561.027,-33.7461 562.737,-26.9582"/>
</g>
<!-- Valet&#45;&gt;matched results for locations -->
<g id="edge14" class="edge"><title>Valet&#45;&gt;matched results for locations</title>
<path fill="none" stroke="black" d="M647.766,-435.441C659.183,-425.636 673.603,-411.441 682.437,-396 702.78,-360.439 706.437,-347.969 706.437,-307 706.437,-307 706.437,-307 706.437,-161 706.437,-120.996 706.437,-74.6528 706.437,-46.0798"/>
<polygon fill="black" stroke="black" points="709.937,-46.0492 706.437,-36.0493 702.937,-46.0493 709.937,-46.0492"/>
</g>
<!-- Valet&#45;&gt;Invalid input address -->
<g id="edge13" class="edge"><title>Valet&#45;&gt;Invalid input address</title>
<path fill="none" stroke="black" d="M630.437,-431.951C630.437,-405.292 630.437,-352.115 630.437,-307 630.437,-307 630.437,-307 630.437,-233 630.437,-186.335 596.416,-141.555 571.677,-115.16"/>
<polygon fill="black" stroke="black" points="574.127,-112.659 564.663,-107.896 569.092,-117.521 574.127,-112.659"/>
</g>
<!-- Valet&#45;&gt;Add location button -->
<g id="edge12" class="edge"><title>Valet&#45;&gt;Add location button</title>
<path fill="none" stroke="black" d="M602.262,-444.568C534.75,-433.948 361.882,-406.755 261.241,-390.924"/>
<polygon fill="black" stroke="black" points="261.557,-387.431 251.135,-389.335 260.469,-394.346 261.557,-387.431"/>
</g>
</g>
</svg>
