<?xml version="1.0" encoding="UTF-8" standalone="no"?>
<!DOCTYPE svg PUBLIC "-//W3C//DTD SVG 1.1//EN"
 "http://www.w3.org/Graphics/SVG/1.1/DTD/svg11.dtd">
<!-- Generated by graphviz version 2.38.0 (20140413.2041)
 -->
<!-- Title: g Pages: 1 -->
<svg width="3040pt" height="534pt"
 viewBox="0.00 0.00 3040.00 534.44" xmlns="http://www.w3.org/2000/svg" xmlns:xlink="http://www.w3.org/1999/xlink">
<g id="graph0" class="graph" transform="scale(1 1) rotate(0) translate(4 530.437)">
<title>g</title>
<polygon fill="white" stroke="none" points="-4,4 -4,-530.437 3036,-530.437 3036,4 -4,4"/>
<!-- EAID_02F6E001_CD7B_478b_B702_71993CC926BC -->
<g id="node1" class="node"><title>EAID_02F6E001_CD7B_478b_B702_71993CC926BC</title>
<image xlink:href="img/actor1.png" width="82px" height="90px" preserveAspectRatio="xMinYMin meet" x="76" y="-201.937"/>
<text text-anchor="start" x="10" y="-88.7371" font-family="Times New Roman,serif" font-size="24.00">Transport Coordinator</text>
</g>
<!-- EAID_46756EA2_EA9D_4950_B4E0_8EE096591913 -->
<g id="node2" class="node"><title>EAID_46756EA2_EA9D_4950_B4E0_8EE096591913</title>
<image xlink:href="img/boundary3.png" width="115px" height="67px" preserveAspectRatio="xMinYMin meet" x="1060.5" y="-242.937"/>
<text text-anchor="start" x="990" y="-152.737" font-family="Times New Roman,serif" font-size="24.00">Building Assignments Page</text>
</g>
<!-- EAID_02F6E001_CD7B_478b_B702_71993CC926BC&#45;&gt;EAID_46756EA2_EA9D_4950_B4E0_8EE096591913 -->
<g id="edge1" class="edge"><title>EAID_02F6E001_CD7B_478b_B702_71993CC926BC&#45;&gt;EAID_46756EA2_EA9D_4950_B4E0_8EE096591913</title>
<path fill="none" stroke="black" d="M234.063,-148.095C416.465,-157.772 769.995,-176.527 969.935,-187.135"/>
<polygon fill="black" stroke="black" points="969.757,-190.63 979.929,-187.665 970.128,-183.64 969.757,-190.63"/>
</g>
<!-- EAID_2279D6BF_C398_4673_997F_6173445CCAA5 -->
<g id="node3" class="node"><title>EAID_2279D6BF_C398_4673_997F_6173445CCAA5</title>
<image xlink:href="img/boundary3.png" width="115px" height="67px" preserveAspectRatio="xMinYMin meet" x="2352" y="-519.937"/>
<text text-anchor="start" x="2261.5" y="-429.737" font-family="Times New Roman,serif" font-size="24.00">submitted add EMT Form page</text>
</g>
<!-- EAID_02F6E001_CD7B_478b_B702_71993CC926BC&#45;&gt;EAID_2279D6BF_C398_4673_997F_6173445CCAA5 -->
<g id="edge2" class="edge"><title>EAID_02F6E001_CD7B_478b_B702_71993CC926BC&#45;&gt;EAID_2279D6BF_C398_4673_997F_6173445CCAA5</title>
<path fill="none" stroke="black" d="M144.963,-208.144C169.569,-259.55 211.114,-327.945 270,-363.937 593.799,-561.848 737.508,-471.937 1117,-471.937 1117,-471.937 1117,-471.937 1534,-471.937 1780.11,-471.937 2065.18,-471.937 2241.19,-471.937"/>
<polygon fill="black" stroke="black" points="2241.31,-475.437 2251.31,-471.937 2241.31,-468.437 2241.31,-475.437"/>
</g>
<!-- EAID_3BE7D846_5FE9_4a22_B1EC_F5DBB6E6E312 -->
<g id="node4" class="node"><title>EAID_3BE7D846_5FE9_4a22_B1EC_F5DBB6E6E312</title>
<image xlink:href="img/boundary3.png" width="115px" height="67px" preserveAspectRatio="xMinYMin meet" x="2352" y="-257.937"/>
<text text-anchor="start" x="2333.5" y="-167.737" font-family="Times New Roman,serif" font-size="24.00">EMT form page</text>
</g>
<!-- EAID_02F6E001_CD7B_478b_B702_71993CC926BC&#45;&gt;EAID_3BE7D846_5FE9_4a22_B1EC_F5DBB6E6E312 -->
<g id="edge3" class="edge"><title>EAID_02F6E001_CD7B_478b_B702_71993CC926BC&#45;&gt;EAID_3BE7D846_5FE9_4a22_B1EC_F5DBB6E6E312</title>
<path fill="none" stroke="black" d="M234.202,-124.638C420.169,-98.4945 796.365,-51.9371 1117,-51.9371 1117,-51.9371 1117,-51.9371 1534,-51.9371 1798.58,-51.9371 1872.43,-6.32288 2129,-70.9371 2194.2,-87.358 2261.86,-120.512 2314.27,-150.322"/>
<polygon fill="black" stroke="black" points="2312.79,-153.512 2323.21,-155.458 2316.28,-147.442 2312.79,-153.512"/>
</g>
<!-- EAID_63C6CFF9_4A63_4cdb_BFB6_565C24B3AD00 -->
<g id="node5" class="node"><title>EAID_63C6CFF9_4A63_4cdb_BFB6_565C24B3AD00</title>
<image xlink:href="img/boundary3.png" width="115px" height="67px" preserveAspectRatio="xMinYMin meet" x="1845.5" y="-182.937"/>
<text text-anchor="start" x="1803.5" y="-92.7371" font-family="Times New Roman,serif" font-size="24.00">Empty error message</text>
</g>
<!-- EAID_02F6E001_CD7B_478b_B702_71993CC926BC&#45;&gt;EAID_63C6CFF9_4A63_4cdb_BFB6_565C24B3AD00 -->
<g id="edge4" class="edge"><title>EAID_02F6E001_CD7B_478b_B702_71993CC926BC&#45;&gt;EAID_63C6CFF9_4A63_4cdb_BFB6_565C24B3AD00</title>
<path fill="none" stroke="black" d="M234.307,-139.638C378.015,-136.923 630.014,-132.569 846,-130.937 1087.77,-129.111 1148.22,-129.992 1390,-130.937 1524.5,-131.463 1678.89,-132.767 1782.55,-133.744"/>
<polygon fill="black" stroke="black" points="1782.71,-137.245 1792.74,-133.84 1782.77,-130.246 1782.71,-137.245"/>
</g>
<!-- EAID_34284B87_5797_4174_A603_9AEBEEB52011 -->
<g id="node6" class="node"><title>EAID_34284B87_5797_4174_A603_9AEBEEB52011</title>
<image xlink:href="img/boundary3.png" width="115px" height="67px" preserveAspectRatio="xMinYMin meet" x="2803.5" y="-173.937"/>
<text text-anchor="start" x="2700" y="-83.7371" font-family="Times New Roman,serif" font-size="24.00">Transport coordinator&#39;s homepage</text>
</g>
<!-- EAID_02F6E001_CD7B_478b_B702_71993CC926BC&#45;&gt;EAID_34284B87_5797_4174_A603_9AEBEEB52011 -->
<g id="edge5" class="edge"><title>EAID_02F6E001_CD7B_478b_B702_71993CC926BC&#45;&gt;EAID_34284B87_5797_4174_A603_9AEBEEB52011</title>
<path fill="none" stroke="black" d="M231.207,-75.793C243.987,-70.321 257.069,-65.5235 270,-61.9371 633.334,38.8312 739.952,-13.9371 1117,-13.9371 1117,-13.9371 1117,-13.9371 1903.5,-13.9371 2175.48,-13.9371 2488.02,-59.1604 2679.76,-92.1339"/>
<polygon fill="black" stroke="black" points="2679.2,-95.5891 2689.65,-93.8424 2680.39,-88.6912 2679.2,-95.5891"/>
</g>
<!-- EAID_AE1A4C57_71FC_47a3_9E5A_0387FE3BBA75 -->
<g id="node7" class="node"><title>EAID_AE1A4C57_71FC_47a3_9E5A_0387FE3BBA75</title>
<image xlink:href="img/boundary3.png" width="115px" height="67px" preserveAspectRatio="xMinYMin meet" x="482.5" y="-348.937"/>
<text text-anchor="start" x="280" y="-258.737" font-family="Times New Roman,serif" font-size="24.00">victim information input and medical information input</text>
</g>
<!-- EAID_02F6E001_CD7B_478b_B702_71993CC926BC&#45;&gt;EAID_AE1A4C57_71FC_47a3_9E5A_0387FE3BBA75 -->
<g id="edge6" class="edge"><title>EAID_02F6E001_CD7B_478b_B702_71993CC926BC&#45;&gt;EAID_AE1A4C57_71FC_47a3_9E5A_0387FE3BBA75</title>
<path fill="none" stroke="black" d="M234.155,-185.805C280.799,-203.422 335.236,-223.981 385.097,-242.812"/>
<polygon fill="black" stroke="black" points="384.085,-246.171 394.677,-246.43 386.559,-239.623 384.085,-246.171"/>
</g>
<!-- EAID_92190CBF_7F2A_4328_AC63_38BF1D2AEC0F -->
<g id="node8" class="node"><title>EAID_92190CBF_7F2A_4328_AC63_38BF1D2AEC0F</title>
<image xlink:href="img/control1.png" width="106px" height="75px" preserveAspectRatio="xMinYMin meet" x="1480" y="-319.937"/>
<text text-anchor="start" x="1436" y="-221.737" font-family="Times New Roman,serif" font-size="24.00">Insert record into db</text>
</g>
<!-- EAID_46756EA2_EA9D_4950_B4E0_8EE096591913&#45;&gt;EAID_92190CBF_7F2A_4328_AC63_38BF1D2AEC0F -->
<g id="edge7" class="edge"><title>EAID_46756EA2_EA9D_4950_B4E0_8EE096591913&#45;&gt;EAID_92190CBF_7F2A_4328_AC63_38BF1D2AEC0F</title>
<path fill="none" stroke="black" d="M1256.24,-219.194C1307.95,-228.335 1366.22,-238.635 1415.83,-247.404"/>
<polygon fill="black" stroke="black" points="1415.5,-250.899 1425.96,-249.193 1416.72,-244.006 1415.5,-250.899"/>
</g>
<!-- EAID_1197708F_B279_492a_963D_4A3CED2455B3 -->
<g id="node11" class="node"><title>EAID_1197708F_B279_492a_963D_4A3CED2455B3</title>
<image xlink:href="img/control1.png" width="106px" height="75px" preserveAspectRatio="xMinYMin meet" x="1065" y="-377.937"/>
<text text-anchor="start" x="856" y="-279.737" font-family="Times New Roman,serif" font-size="24.00">check the barcode, ambulance number and hospital info</text>
</g>
<!-- EAID_AE1A4C57_71FC_47a3_9E5A_0387FE3BBA75&#45;&gt;EAID_1197708F_B279_492a_963D_4A3CED2455B3 -->
<g id="edge18" class="edge"><title>EAID_AE1A4C57_71FC_47a3_9E5A_0387FE3BBA75&#45;&gt;EAID_1197708F_B279_492a_963D_4A3CED2455B3</title>
<path fill="none" stroke="black" d="M810.028,-312.614C818.558,-312.984 827.111,-313.355 835.655,-313.726"/>
<polygon fill="black" stroke="black" points="835.538,-317.224 845.681,-314.161 835.842,-310.231 835.538,-317.224"/>
</g>
<!-- EAID_92190CBF_7F2A_4328_AC63_38BF1D2AEC0F&#45;&gt;EAID_3BE7D846_5FE9_4a22_B1EC_F5DBB6E6E312 -->
<g id="edge8" class="edge"><title>EAID_92190CBF_7F2A_4328_AC63_38BF1D2AEC0F&#45;&gt;EAID_3BE7D846_5FE9_4a22_B1EC_F5DBB6E6E312</title>
<path fill="none" stroke="black" d="M1640.18,-277.063C1652.25,-277.833 1664.39,-278.488 1676,-278.937 1877.18,-286.718 1929.14,-303.242 2129,-278.937 2164.41,-274.631 2247.22,-253.678 2313.56,-235.979"/>
<polygon fill="black" stroke="black" points="2314.47,-239.36 2323.22,-233.394 2312.66,-232.598 2314.47,-239.36"/>
</g>
<!-- EAID_92190CBF_7F2A_4328_AC63_38BF1D2AEC0F&#45;&gt;EAID_63C6CFF9_4A63_4cdb_BFB6_565C24B3AD00 -->
<g id="edge10" class="edge"><title>EAID_92190CBF_7F2A_4328_AC63_38BF1D2AEC0F&#45;&gt;EAID_63C6CFF9_4A63_4cdb_BFB6_565C24B3AD00</title>
<path fill="none" stroke="black" d="M1640.11,-213.892C1652.09,-208.538 1664.22,-203.431 1676,-198.937 1710.23,-185.878 1748.28,-174.088 1783.22,-164.29"/>
<polygon fill="black" stroke="black" points="1784.29,-167.627 1792.99,-161.58 1782.42,-160.881 1784.29,-167.627"/>
</g>
<!-- EAID_F8010A3E_0810_49ac_B002_A7F52C2B606D -->
<g id="node9" class="node"><title>EAID_F8010A3E_0810_49ac_B002_A7F52C2B606D</title>
<image xlink:href="img/control1.png" width="106px" height="75px" preserveAspectRatio="xMinYMin meet" x="1850" y="-436.937"/>
<text text-anchor="start" x="1686.5" y="-338.737" font-family="Times New Roman,serif" font-size="24.00">Updates the database for building information</text>
</g>
<!-- EAID_92190CBF_7F2A_4328_AC63_38BF1D2AEC0F&#45;&gt;EAID_F8010A3E_0810_49ac_B002_A7F52C2B606D -->
<g id="edge12" class="edge"><title>EAID_92190CBF_7F2A_4328_AC63_38BF1D2AEC0F&#45;&gt;EAID_F8010A3E_0810_49ac_B002_A7F52C2B606D</title>
<path fill="none" stroke="black" d="M1640.3,-301.778C1661.63,-308.57 1684.67,-315.905 1707.92,-323.306"/>
<polygon fill="black" stroke="black" points="1706.94,-326.67 1717.53,-326.368 1709.07,-319.999 1706.94,-326.67"/>
</g>
<!-- EAID_2C534B1F_9838_4127_B684_CA7BE55486FC -->
<g id="node10" class="node"><title>EAID_2C534B1F_9838_4127_B684_CA7BE55486FC</title>
<image xlink:href="img/activity_icon.png" width="30px" height="20px" preserveAspectRatio="xMinYMin meet" x="1887.5" y="-263.937"/>
<text text-anchor="start" x="1793.5" y="-221.737" font-family="Times New Roman,serif" font-weight="bold" font-size="24.00">Hospital information</text>
</g>
<!-- EAID_92190CBF_7F2A_4328_AC63_38BF1D2AEC0F&#45;&gt;EAID_2C534B1F_9838_4127_B684_CA7BE55486FC -->
<g id="edge11" class="edge"><title>EAID_92190CBF_7F2A_4328_AC63_38BF1D2AEC0F&#45;&gt;EAID_2C534B1F_9838_4127_B684_CA7BE55486FC</title>
<path fill="none" stroke="black" d="M1640.3,-259.549C1681.79,-256.275 1729.74,-252.491 1773.14,-249.066"/>
<polygon fill="black" stroke="black" points="1773.5,-252.549 1783.19,-248.273 1772.95,-245.57 1773.5,-252.549"/>
</g>
<!-- EAID_F8010A3E_0810_49ac_B002_A7F52C2B606D&#45;&gt;EAID_2279D6BF_C398_4673_997F_6173445CCAA5 -->
<g id="edge17" class="edge"><title>EAID_F8010A3E_0810_49ac_B002_A7F52C2B606D&#45;&gt;EAID_2279D6BF_C398_4673_997F_6173445CCAA5</title>
<path fill="none" stroke="black" d="M2129.05,-423.793C2166.76,-430.291 2205.29,-436.929 2241.21,-443.117"/>
<polygon fill="black" stroke="black" points="2240.82,-446.601 2251.27,-444.85 2242.01,-439.703 2240.82,-446.601"/>
</g>
<!-- EAID_F8010A3E_0810_49ac_B002_A7F52C2B606D&#45;&gt;EAID_3BE7D846_5FE9_4a22_B1EC_F5DBB6E6E312 -->
<g id="edge9" class="edge"><title>EAID_F8010A3E_0810_49ac_B002_A7F52C2B606D&#45;&gt;EAID_3BE7D846_5FE9_4a22_B1EC_F5DBB6E6E312</title>
<path fill="none" stroke="black" d="M2103.77,-326.422C2112.49,-321.916 2120.94,-317.094 2129,-311.937 2148.87,-299.223 2144.76,-285.05 2165,-272.937 2209.95,-246.037 2266.25,-230.513 2313.38,-221.611"/>
<polygon fill="black" stroke="black" points="2314.08,-225.042 2323.29,-219.811 2312.83,-218.155 2314.08,-225.042"/>
</g>
<!-- EAID_3A4BE6EE_83B3_4d0a_AAF1_159369D2C304 -->
<g id="node12" class="node"><title>EAID_3A4BE6EE_83B3_4d0a_AAF1_159369D2C304</title>
<image xlink:href="img/control1.png" width="106px" height="75px" preserveAspectRatio="xMinYMin meet" x="2357" y="-392.937"/>
<text text-anchor="start" x="2175.5" y="-294.737" font-family="Times New Roman,serif" font-size="24.00">Redirects to the transport coordinator&#39;s homepage</text>
</g>
<!-- EAID_F8010A3E_0810_49ac_B002_A7F52C2B606D&#45;&gt;EAID_3A4BE6EE_83B3_4d0a_AAF1_159369D2C304 -->
<g id="edge16" class="edge"><title>EAID_F8010A3E_0810_49ac_B002_A7F52C2B606D&#45;&gt;EAID_3A4BE6EE_83B3_4d0a_AAF1_159369D2C304</title>
<path fill="none" stroke="black" d="M2129.05,-365.286C2137.55,-364.545 2146.09,-363.801 2154.63,-363.056"/>
<polygon fill="black" stroke="black" points="2155,-366.538 2164.66,-362.183 2154.39,-359.564 2155,-366.538"/>
</g>
<!-- EAID_1197708F_B279_492a_963D_4A3CED2455B3&#45;&gt;EAID_92190CBF_7F2A_4328_AC63_38BF1D2AEC0F -->
<g id="edge13" class="edge"><title>EAID_1197708F_B279_492a_963D_4A3CED2455B3&#45;&gt;EAID_92190CBF_7F2A_4328_AC63_38BF1D2AEC0F</title>
<path fill="none" stroke="black" d="M1390.16,-287.857C1398.9,-286.629 1407.47,-285.426 1415.79,-284.257"/>
<polygon fill="black" stroke="black" points="1416.41,-287.705 1425.82,-282.848 1415.43,-280.773 1416.41,-287.705"/>
</g>
<!-- EAID_3A4BE6EE_83B3_4d0a_AAF1_159369D2C304&#45;&gt;EAID_34284B87_5797_4174_A603_9AEBEEB52011 -->
<g id="edge15" class="edge"><title>EAID_3A4BE6EE_83B3_4d0a_AAF1_159369D2C304&#45;&gt;EAID_34284B87_5797_4174_A603_9AEBEEB52011</title>
<path fill="none" stroke="black" d="M2633.01,-282.345C2640.15,-279.338 2647.17,-276.203 2654,-272.937 2701.74,-250.11 2750.15,-216.227 2788.04,-186.742"/>
<polygon fill="black" stroke="black" points="2790.26,-189.451 2795.96,-180.523 2785.93,-183.945 2790.26,-189.451"/>
</g>
<!-- EAID_E8BD7B31_21A5_44f6_9F3F_B7745862EA9B -->
<g id="node13" class="node"><title>EAID_E8BD7B31_21A5_44f6_9F3F_B7745862EA9B</title>
<image xlink:href="img/activity_icon.png" width="30px" height="20px" preserveAspectRatio="xMinYMin meet" x="2846.5" y="-365.937"/>
<text text-anchor="start" x="2781" y="-323.737" font-family="Times New Roman,serif" font-weight="bold" font-size="24.00">Triage category</text>
</g>
<!-- EAID_3A4BE6EE_83B3_4d0a_AAF1_159369D2C304&#45;&gt;EAID_E8BD7B31_21A5_44f6_9F3F_B7745862EA9B -->
<g id="edge14" class="edge"><title>EAID_3A4BE6EE_83B3_4d0a_AAF1_159369D2C304&#45;&gt;EAID_E8BD7B31_21A5_44f6_9F3F_B7745862EA9B</title>
<path fill="none" stroke="black" d="M2654.32,-340.937C2691.76,-340.937 2728.48,-340.937 2760.3,-340.937"/>
<polygon fill="black" stroke="black" points="2760.45,-344.437 2770.45,-340.937 2760.45,-337.437 2760.45,-344.437"/>
</g>
</g>
</svg>
