<?xml version="1.0" encoding="UTF-8" standalone="no"?>
<!DOCTYPE svg PUBLIC "-//W3C//DTD SVG 1.1//EN"
 "http://www.w3.org/Graphics/SVG/1.1/DTD/svg11.dtd">
<!-- Generated by graphviz version 2.38.0 (20140413.2041)
 -->
<!-- Title: g Pages: 1 -->
<svg width="212pt" height="332pt"
 viewBox="0.00 0.00 211.74 332.00" xmlns="http://www.w3.org/2000/svg" xmlns:xlink="http://www.w3.org/1999/xlink">
<g id="graph0" class="graph" transform="scale(1 1) rotate(0) translate(4 328)">
<title>g</title>
<polygon fill="white" stroke="none" points="-4,4 -4,-328 207.741,-328 207.741,4 -4,4"/>
<!-- send email -->
<g id="node1" class="node"><title>send email</title>
<ellipse fill="none" stroke="black" cx="64.3443" cy="-90" rx="48.9926" ry="18"/>
<text text-anchor="middle" x="64.3443" y="-86.3" font-family="Times New Roman,serif" font-size="14.00">send email</text>
</g>
<!-- Email protocol -->
<g id="node2" class="node"><title>Email protocol</title>
<ellipse fill="none" stroke="black" cx="64.3443" cy="-18" rx="64.189" ry="18"/>
<text text-anchor="middle" x="64.3443" y="-14.3" font-family="Times New Roman,serif" font-size="14.00">Email protocol</text>
</g>
<!-- send email&#45;&gt;Email protocol -->
<g id="edge1" class="edge"><title>send email&#45;&gt;Email protocol</title>
<path fill="none" stroke="black" d="M64.3443,-71.6966C64.3443,-63.9827 64.3443,-54.7125 64.3443,-46.1124"/>
<polygon fill="black" stroke="black" points="67.8444,-46.1043 64.3443,-36.1043 60.8444,-46.1044 67.8444,-46.1043"/>
</g>
<!-- query vendor email -->
<g id="node3" class="node"><title>query vendor email</title>
<ellipse fill="none" stroke="black" cx="115.344" cy="-162" rx="79.8859" ry="18"/>
<text text-anchor="middle" x="115.344" y="-158.3" font-family="Times New Roman,serif" font-size="14.00">query vendor email</text>
</g>
<!-- query vendor email&#45;&gt;send email -->
<g id="edge2" class="edge"><title>query vendor email&#45;&gt;send email</title>
<path fill="none" stroke="black" d="M102.999,-144.055C96.8595,-135.629 89.3196,-125.28 82.534,-115.966"/>
<polygon fill="black" stroke="black" points="85.2937,-113.81 76.5763,-107.789 79.6361,-117.932 85.2937,-113.81"/>
</g>
<!-- vendor -->
<g id="node4" class="node"><title>vendor</title>
<ellipse fill="none" stroke="black" cx="167.344" cy="-90" rx="36.2938" ry="18"/>
<text text-anchor="middle" x="167.344" y="-86.3" font-family="Times New Roman,serif" font-size="14.00">vendor</text>
</g>
<!-- query vendor email&#45;&gt;vendor -->
<g id="edge3" class="edge"><title>query vendor email&#45;&gt;vendor</title>
<path fill="none" stroke="black" d="M127.932,-144.055C134.284,-135.505 142.106,-124.975 149.103,-115.556"/>
<polygon fill="black" stroke="black" points="152.077,-117.422 155.231,-107.307 146.458,-113.247 152.077,-117.422"/>
</g>
<!-- list of vendors -->
<g id="node5" class="node"><title>list of vendors</title>
<ellipse fill="none" stroke="black" cx="115.344" cy="-234" rx="63.0888" ry="18"/>
<text text-anchor="middle" x="115.344" y="-230.3" font-family="Times New Roman,serif" font-size="14.00">list of vendors</text>
</g>
<!-- list of vendors&#45;&gt;query vendor email -->
<g id="edge4" class="edge"><title>list of vendors&#45;&gt;query vendor email</title>
<path fill="none" stroke="black" d="M115.344,-215.697C115.344,-207.983 115.344,-198.712 115.344,-190.112"/>
<polygon fill="black" stroke="black" points="118.844,-190.104 115.344,-180.104 111.844,-190.104 118.844,-190.104"/>
</g>
<!-- Admin -->
<g id="node6" class="node"><title>Admin</title>
<ellipse fill="none" stroke="black" cx="115.344" cy="-306" rx="35.194" ry="18"/>
<text text-anchor="middle" x="115.344" y="-302.3" font-family="Times New Roman,serif" font-size="14.00">Admin</text>
</g>
<!-- Admin&#45;&gt;list of vendors -->
<g id="edge5" class="edge"><title>Admin&#45;&gt;list of vendors</title>
<path fill="none" stroke="black" d="M115.344,-287.697C115.344,-279.983 115.344,-270.712 115.344,-262.112"/>
<polygon fill="black" stroke="black" points="118.844,-262.104 115.344,-252.104 111.844,-262.104 118.844,-262.104"/>
</g>
</g>
</svg>
