<?xml version="1.0" encoding="UTF-8" standalone="no"?>
<!DOCTYPE svg PUBLIC "-//W3C//DTD SVG 1.1//EN"
 "http://www.w3.org/Graphics/SVG/1.1/DTD/svg11.dtd">
<!-- Generated by graphviz version 2.38.0 (20140413.2041)
 -->
<!-- Title: g Pages: 1 -->
<svg width="630pt" height="332pt"
 viewBox="0.00 0.00 629.53 332.00" xmlns="http://www.w3.org/2000/svg" xmlns:xlink="http://www.w3.org/1999/xlink">
<g id="graph0" class="graph" transform="scale(1 1) rotate(0) translate(4 328)">
<title>g</title>
<polygon fill="white" stroke="none" points="-4,4 -4,-328 625.535,-328 625.535,4 -4,4"/>
<!-- Check cookie expiration -->
<g id="node1" class="node"><title>Check cookie expiration</title>
<ellipse fill="none" stroke="black" cx="305.393" cy="-90" rx="98.5829" ry="18"/>
<text text-anchor="middle" x="305.393" y="-86.3" font-family="Times New Roman,serif" font-size="14.00">Check cookie expiration</text>
</g>
<!-- Cookie Expiration Error -->
<g id="node2" class="node"><title>Cookie Expiration Error</title>
<ellipse fill="none" stroke="black" cx="523.393" cy="-18" rx="98.2828" ry="18"/>
<text text-anchor="middle" x="523.393" y="-14.3" font-family="Times New Roman,serif" font-size="14.00">Cookie Expiration Error</text>
</g>
<!-- Check cookie expiration&#45;&gt;Cookie Expiration Error -->
<g id="edge1" class="edge"><title>Check cookie expiration&#45;&gt;Cookie Expiration Error</title>
<path fill="none" stroke="black" d="M351.892,-74.0691C385.611,-63.242 431.382,-48.5448 467.158,-37.0571"/>
<polygon fill="black" stroke="black" points="468.515,-40.2977 476.966,-33.908 466.374,-33.6329 468.515,-40.2977"/>
</g>
<!-- Cookie -->
<g id="node3" class="node"><title>Cookie</title>
<ellipse fill="none" stroke="black" cx="305.393" cy="-18" rx="37.0935" ry="18"/>
<text text-anchor="middle" x="305.393" y="-14.3" font-family="Times New Roman,serif" font-size="14.00">Cookie</text>
</g>
<!-- Check cookie expiration&#45;&gt;Cookie -->
<g id="edge2" class="edge"><title>Check cookie expiration&#45;&gt;Cookie</title>
<path fill="none" stroke="black" d="M305.393,-71.6966C305.393,-63.9827 305.393,-54.7125 305.393,-46.1124"/>
<polygon fill="black" stroke="black" points="308.893,-46.1043 305.393,-36.1043 301.893,-46.1044 308.893,-46.1043"/>
</g>
<!-- Load next senario -->
<g id="node4" class="node"><title>Load next senario</title>
<ellipse fill="none" stroke="black" cx="75.3933" cy="-90" rx="75.2868" ry="18"/>
<text text-anchor="middle" x="75.3933" y="-86.3" font-family="Times New Roman,serif" font-size="14.00">Load next senario</text>
</g>
<!-- Scenario Page -->
<g id="node5" class="node"><title>Scenario Page</title>
<ellipse fill="none" stroke="black" cx="269.393" cy="-234" rx="62.2891" ry="18"/>
<text text-anchor="middle" x="269.393" y="-230.3" font-family="Times New Roman,serif" font-size="14.00">Scenario Page</text>
</g>
<!-- Load next senario&#45;&gt;Scenario Page -->
<g id="edge3" class="edge"><title>Load next senario&#45;&gt;Scenario Page</title>
<path fill="none" stroke="black" d="M81.9347,-108.074C90.3428,-127.92 106.734,-160.442 130.393,-180 153.529,-199.125 184.309,-211.809 211.022,-219.958"/>
<polygon fill="black" stroke="black" points="210.079,-223.329 220.659,-222.759 212.033,-216.607 210.079,-223.329"/>
</g>
<!-- Scenario -->
<g id="node6" class="node"><title>Scenario</title>
<ellipse fill="none" stroke="black" cx="127.393" cy="-18" rx="42.4939" ry="18"/>
<text text-anchor="middle" x="127.393" y="-14.3" font-family="Times New Roman,serif" font-size="14.00">Scenario</text>
</g>
<!-- Load next senario&#45;&gt;Scenario -->
<g id="edge4" class="edge"><title>Load next senario&#45;&gt;Scenario</title>
<path fill="none" stroke="black" d="M87.9811,-72.055C94.3326,-63.5048 102.155,-52.975 109.152,-43.5561"/>
<polygon fill="black" stroke="black" points="112.126,-45.4216 115.28,-35.307 106.507,-41.2473 112.126,-45.4216"/>
</g>
<!-- Store the answer for the scenario -->
<g id="node7" class="node"><title>Store the answer for the scenario</title>
<ellipse fill="none" stroke="black" cx="269.393" cy="-162" rx="129.977" ry="18"/>
<text text-anchor="middle" x="269.393" y="-158.3" font-family="Times New Roman,serif" font-size="14.00">Store the answer for the scenario</text>
</g>
<!-- Scenario Page&#45;&gt;Store the answer for the scenario -->
<g id="edge9" class="edge"><title>Scenario Page&#45;&gt;Store the answer for the scenario</title>
<path fill="none" stroke="black" d="M269.393,-215.697C269.393,-207.983 269.393,-198.712 269.393,-190.112"/>
<polygon fill="black" stroke="black" points="272.893,-190.104 269.393,-180.104 265.893,-190.104 272.893,-190.104"/>
</g>
<!-- Store the answer for the scenario&#45;&gt;Check cookie expiration -->
<g id="edge7" class="edge"><title>Store the answer for the scenario&#45;&gt;Check cookie expiration</title>
<path fill="none" stroke="black" d="M278.292,-143.697C282.39,-135.728 287.342,-126.1 291.886,-117.264"/>
<polygon fill="black" stroke="black" points="295.136,-118.598 296.597,-108.104 288.911,-115.396 295.136,-118.598"/>
</g>
<!-- Store the answer for the scenario&#45;&gt;Load next senario -->
<g id="edge5" class="edge"><title>Store the answer for the scenario&#45;&gt;Load next senario</title>
<path fill="none" stroke="black" d="M224.886,-144.941C195.007,-134.16 155.619,-119.948 124.775,-108.818"/>
<polygon fill="black" stroke="black" points="125.678,-105.423 115.084,-105.321 123.302,-112.008 125.678,-105.423"/>
</g>
<!-- Store the answer for the scenario&#45;&gt;Scenario -->
<g id="edge6" class="edge"><title>Store the answer for the scenario&#45;&gt;Scenario</title>
<path fill="none" stroke="black" d="M243.076,-144.173C228.822,-134.451 211.33,-121.499 197.393,-108 177.036,-88.2825 157.408,-62.5472 144.143,-43.8253"/>
<polygon fill="black" stroke="black" points="146.934,-41.7088 138.342,-35.5098 141.193,-45.7138 146.934,-41.7088"/>
</g>
<!-- Thank you page -->
<g id="node8" class="node"><title>Thank you page</title>
<ellipse fill="none" stroke="black" cx="491.393" cy="-90" rx="69.5877" ry="18"/>
<text text-anchor="middle" x="491.393" y="-86.3" font-family="Times New Roman,serif" font-size="14.00">Thank you page</text>
</g>
<!-- Store the answer for the scenario&#45;&gt;Thank you page -->
<g id="edge8" class="edge"><title>Store the answer for the scenario&#45;&gt;Thank you page</title>
<path fill="none" stroke="black" d="M319.214,-145.291C354.854,-134.053 402.731,-118.957 438.952,-107.536"/>
<polygon fill="black" stroke="black" points="440.354,-110.763 448.839,-104.418 438.249,-104.087 440.354,-110.763"/>
</g>
<!-- User -->
<g id="node9" class="node"><title>User</title>
<ellipse fill="none" stroke="black" cx="491.393" cy="-306" rx="27.8951" ry="18"/>
<text text-anchor="middle" x="491.393" y="-302.3" font-family="Times New Roman,serif" font-size="14.00">User</text>
</g>
<!-- User&#45;&gt;Cookie Expiration Error -->
<g id="edge11" class="edge"><title>User&#45;&gt;Cookie Expiration Error</title>
<path fill="none" stroke="black" d="M500.392,-288.792C518.066,-255.925 556.774,-178.553 570.393,-108 573.426,-92.29 576.071,-86.9589 570.393,-72 566.317,-61.2602 558.959,-51.3017 551.255,-42.9843"/>
<polygon fill="black" stroke="black" points="553.693,-40.4719 544.168,-35.8318 548.721,-45.3989 553.693,-40.4719"/>
</g>
<!-- User&#45;&gt;Scenario Page -->
<g id="edge10" class="edge"><title>User&#45;&gt;Scenario Page</title>
<path fill="none" stroke="black" d="M466.787,-297.241C431.449,-286.099 365.536,-265.315 319.644,-250.845"/>
<polygon fill="black" stroke="black" points="320.475,-247.437 309.886,-247.768 318.37,-254.113 320.475,-247.437"/>
</g>
<!-- User&#45;&gt;Thank you page -->
<g id="edge12" class="edge"><title>User&#45;&gt;Thank you page</title>
<path fill="none" stroke="black" d="M491.393,-287.849C491.393,-250.832 491.393,-163.181 491.393,-118.386"/>
<polygon fill="black" stroke="black" points="494.893,-118.232 491.393,-108.232 487.893,-118.232 494.893,-118.232"/>
</g>
</g>
</svg>
