<?xml version="1.0" encoding="UTF-8" standalone="no"?>
<!DOCTYPE svg PUBLIC "-//W3C//DTD SVG 1.1//EN"
 "http://www.w3.org/Graphics/SVG/1.1/DTD/svg11.dtd">
<!-- Generated by graphviz version 2.38.0 (20140413.2041)
 -->
<!-- Title: g Pages: 1 -->
<svg width="3798pt" height="677pt"
 viewBox="0.00 0.00 3798.00 677.00" xmlns="http://www.w3.org/2000/svg" xmlns:xlink="http://www.w3.org/1999/xlink">
<g id="graph0" class="graph" transform="scale(1 1) rotate(0) translate(4 673)">
<title>g</title>
<polygon fill="white" stroke="none" points="-4,4 -4,-673 3794,-673 3794,4 -4,4"/>
<g id="clust1" class="cluster"><title>cluster0</title>
<polygon fill="none" stroke="black" stroke-width="2" points="1804,-233 1804,-550 2714,-550 2714,-233 1804,-233"/>
<text text-anchor="start" x="2237" y="-535.8" font-family="Times New Roman,serif" font-weight="bold" font-size="14.00">System</text>
</g>
<g id="clust3" class="cluster"><title>cluster1000</title>
<polygon fill="none" stroke="black" stroke-width="2" points="8,-8 8,-225 3782,-225 3782,-8 8,-8"/>
<text text-anchor="start" x="1849.5" y="-210.8" font-family="Times New Roman,serif" font-weight="bold" font-size="14.00">Domain Model</text>
</g>
<g id="clust2" class="cluster"><title>cluster1</title>
<polygon fill="none" stroke="black" stroke-width="2" points="1761,-558 1761,-661 2757,-661 2757,-558 1761,-558"/>
<text text-anchor="start" x="2244.5" y="-646.8" font-family="Times New Roman,serif" font-weight="bold" font-size="14.00">User</text>
</g>
<!-- EAID_577049F8_2932_4d7f_8FB1_EF3FE86A9F7E___EAID_089A4168_5629_4b12_A89E_09A924C93A3E -->
<g id="node1" class="node"><title>EAID_577049F8_2932_4d7f_8FB1_EF3FE86A9F7E___EAID_089A4168_5629_4b12_A89E_09A924C93A3E</title>
<image xlink:href="img/activity_icon.png" width="30px" height="20px" preserveAspectRatio="xMinYMin meet" x="1879" y="-513"/>
<text text-anchor="start" x="1822" y="-478.8" font-family="Times New Roman,serif" font-weight="bold" font-size="14.00">User:Save Favorite Job</text>
<text text-anchor="start" x="1873" y="-464.8" font-family="Times New Roman,serif" font-weight="bold" font-size="14.00">Button</text>
</g>
<!-- EAID_089A4168_5629_4b12_A89E_09A924C93A3E___EAID_DF25DF1A_43AD_409e_A2D7_1A36D10121C5 -->
<g id="node6" class="node"><title>EAID_089A4168_5629_4b12_A89E_09A924C93A3E___EAID_DF25DF1A_43AD_409e_A2D7_1A36D10121C5</title>
<image xlink:href="img/activity_icon.png" width="30px" height="20px" preserveAspectRatio="xMinYMin meet" x="2178.5" y="-413"/>
<text text-anchor="start" x="2137.5" y="-378.8" font-family="Times New Roman,serif" font-weight="bold" font-size="14.00">Save Favorite Job</text>
<text text-anchor="start" x="2116" y="-364.8" font-family="Times New Roman,serif" font-weight="bold" font-size="14.00">Button:Save favorite jobs</text>
</g>
<!-- EAID_577049F8_2932_4d7f_8FB1_EF3FE86A9F7E___EAID_089A4168_5629_4b12_A89E_09A924C93A3E&#45;&gt;EAID_089A4168_5629_4b12_A89E_09A924C93A3E___EAID_DF25DF1A_43AD_409e_A2D7_1A36D10121C5 -->
<g id="edge1" class="edge"><title>EAID_577049F8_2932_4d7f_8FB1_EF3FE86A9F7E___EAID_089A4168_5629_4b12_A89E_09A924C93A3E&#45;&gt;EAID_089A4168_5629_4b12_A89E_09A924C93A3E___EAID_DF25DF1A_43AD_409e_A2D7_1A36D10121C5</title>
<path fill="none" stroke="black" d="M1976.24,-458.234C1979.54,-457.138 1982.8,-456.057 1986,-455 2021.74,-443.197 2061.01,-430.432 2095.65,-419.243"/>
<polygon fill="black" stroke="black" points="2096.86,-422.533 2105.3,-416.131 2094.7,-415.872 2096.86,-422.533"/>
</g>
<!-- EAID_168644E6_3B76_44cb_9DEC_0A5EC6BBE8AA -->
<g id="node15" class="node"><title>EAID_168644E6_3B76_44cb_9DEC_0A5EC6BBE8AA</title>
<polygon fill="none" stroke="black" points="632,-115 632,-136 777,-136 777,-115 632,-115"/>
<text text-anchor="start" x="665" y="-122.8" font-family="Times New Roman,serif" font-weight="bold" font-size="14.00">Favorite Job</text>
<polygon fill="none" stroke="black" points="632,-94 632,-115 777,-115 777,-94 632,-94"/>
<text text-anchor="start" x="662.5" y="-101.8" font-family="Times New Roman,serif" font-weight="bold" font-size="14.00">FavoriteJob()</text>
<polygon fill="none" stroke="black" points="632,-73 632,-94 777,-94 777,-73 632,-73"/>
<text text-anchor="start" x="635" y="-80.8" font-family="Times New Roman,serif" font-weight="bold" font-size="14.00">savefiltersandcriteria()</text>
<polygon fill="none" stroke="black" points="630.5,-72.5 630.5,-137.5 777.5,-137.5 777.5,-72.5 630.5,-72.5"/>
</g>
<!-- EAID_577049F8_2932_4d7f_8FB1_EF3FE86A9F7E___EAID_089A4168_5629_4b12_A89E_09A924C93A3E&#45;&gt;EAID_168644E6_3B76_44cb_9DEC_0A5EC6BBE8AA -->
<g id="edge10" class="edge"><title>EAID_577049F8_2932_4d7f_8FB1_EF3FE86A9F7E___EAID_089A4168_5629_4b12_A89E_09A924C93A3E&#45;&gt;EAID_168644E6_3B76_44cb_9DEC_0A5EC6BBE8AA</title>
<path fill="none" stroke="black" stroke-dasharray="5,2" d="M1976.02,-457.426C1979.38,-456.554 1982.71,-455.74 1986,-455 2259.52,-393.421 2436.75,-545.495 2602,-319 2624.53,-288.122 2628.97,-260.087 2602,-233 2584.29,-215.214 817.475,-236.169 795,-225 763.717,-209.454 740.21,-177.463 724.931,-150.562"/>
<polygon fill="black" stroke="black" points="727.934,-148.76 720.065,-141.666 721.793,-152.119 727.934,-148.76"/>
</g>
<!-- EAID_577049F8_2932_4d7f_8FB1_EF3FE86A9F7E___EAID_E3602F77_14BE_415d_9B21_A21A2FF4F839 -->
<g id="node2" class="node"><title>EAID_577049F8_2932_4d7f_8FB1_EF3FE86A9F7E___EAID_E3602F77_14BE_415d_9B21_A21A2FF4F839</title>
<image xlink:href="img/activity_icon.png" width="30px" height="20px" preserveAspectRatio="xMinYMin meet" x="2089.5" y="-506"/>
<text text-anchor="start" x="2005" y="-471.8" font-family="Times New Roman,serif" font-weight="bold" font-size="14.00">User:saved successfully message</text>
</g>
<!-- EAID_23139A53_6B42_424b_A5A2_84C2C41257D5 -->
<g id="node17" class="node"><title>EAID_23139A53_6B42_424b_A5A2_84C2C41257D5</title>
<polygon fill="none" stroke="black" points="2567,-168 2567,-189 2781,-189 2781,-168 2567,-168"/>
<text text-anchor="start" x="2570" y="-175.8" font-family="Times New Roman,serif" font-weight="bold" font-size="14.00">email message requesting referral</text>
<polygon fill="none" stroke="black" points="2567,-147 2567,-168 2781,-168 2781,-147 2567,-147"/>
<text text-anchor="start" x="2571.5" y="-154.8" font-family="Times New Roman,serif" font-weight="bold" font-size="14.00">emailmessagerequestingreferral()</text>
<polygon fill="none" stroke="black" points="2567,-126 2567,-147 2781,-147 2781,-126 2567,-126"/>
<text text-anchor="start" x="2621.5" y="-133.8" font-family="Times New Roman,serif" font-weight="bold" font-size="14.00">userprofilepage()</text>
<polygon fill="none" stroke="black" points="2567,-105 2567,-126 2781,-126 2781,-105 2567,-105"/>
<text text-anchor="start" x="2582.5" y="-112.8" font-family="Times New Roman,serif" font-weight="bold" font-size="14.00">savedunsuccessfullymessage()</text>
<polygon fill="none" stroke="black" points="2567,-84 2567,-105 2781,-105 2781,-84 2567,-84"/>
<text text-anchor="start" x="2617.5" y="-91.8" font-family="Times New Roman,serif" font-weight="bold" font-size="14.00">messageeditpage()</text>
<polygon fill="none" stroke="black" points="2567,-63 2567,-84 2781,-84 2781,-63 2567,-63"/>
<text text-anchor="start" x="2613" y="-70.8" font-family="Times New Roman,serif" font-weight="bold" font-size="14.00">sendemailmessage()</text>
<polygon fill="none" stroke="black" points="2567,-42 2567,-63 2781,-63 2781,-42 2567,-42"/>
<text text-anchor="start" x="2609" y="-49.8" font-family="Times New Roman,serif" font-weight="bold" font-size="14.00">credentialinputpage()</text>
<polygon fill="none" stroke="black" points="2567,-21 2567,-42 2781,-42 2781,-21 2567,-21"/>
<text text-anchor="start" x="2609" y="-28.8" font-family="Times New Roman,serif" font-weight="bold" font-size="14.00">signinerrormessage()</text>
<polygon fill="none" stroke="black" points="2566,-20 2566,-190 2782,-190 2782,-20 2566,-20"/>
</g>
<!-- EAID_577049F8_2932_4d7f_8FB1_EF3FE86A9F7E___EAID_E3602F77_14BE_415d_9B21_A21A2FF4F839&#45;&gt;EAID_23139A53_6B42_424b_A5A2_84C2C41257D5 -->
<g id="edge11" class="edge"><title>EAID_577049F8_2932_4d7f_8FB1_EF3FE86A9F7E___EAID_E3602F77_14BE_415d_9B21_A21A2FF4F839&#45;&gt;EAID_23139A53_6B42_424b_A5A2_84C2C41257D5</title>
<path fill="none" stroke="black" stroke-dasharray="5,2" d="M2191.36,-461.433C2201.97,-458.989 2212.69,-456.764 2223,-455 2269.93,-446.969 2616.46,-452.795 2650,-419 2679.18,-389.601 2682.17,-284.77 2679.78,-204.446"/>
<polygon fill="black" stroke="black" points="2683.27,-204.161 2679.45,-194.282 2676.28,-204.391 2683.27,-204.161"/>
</g>
<!-- EAID_577049F8_2932_4d7f_8FB1_EF3FE86A9F7E___EAID_1E679F17_A440_4a59_A68F_5BAEE3033E05 -->
<g id="node3" class="node"><title>EAID_577049F8_2932_4d7f_8FB1_EF3FE86A9F7E___EAID_1E679F17_A440_4a59_A68F_5BAEE3033E05</title>
<image xlink:href="img/activity_icon.png" width="30px" height="20px" preserveAspectRatio="xMinYMin meet" x="2334" y="-506"/>
<text text-anchor="start" x="2242" y="-471.8" font-family="Times New Roman,serif" font-weight="bold" font-size="14.00">User:saved unsuccessfully message</text>
</g>
<!-- EAID_577049F8_2932_4d7f_8FB1_EF3FE86A9F7E___EAID_1E679F17_A440_4a59_A68F_5BAEE3033E05&#45;&gt;EAID_23139A53_6B42_424b_A5A2_84C2C41257D5 -->
<g id="edge12" class="edge"><title>EAID_577049F8_2932_4d7f_8FB1_EF3FE86A9F7E___EAID_1E679F17_A440_4a59_A68F_5BAEE3033E05&#45;&gt;EAID_23139A53_6B42_424b_A5A2_84C2C41257D5</title>
<path fill="none" stroke="black" stroke-dasharray="5,2" d="M2445.49,-461.491C2455.43,-459.196 2465.4,-456.988 2475,-455 2522.01,-445.259 2657.01,-455.664 2688,-419 2737.28,-360.694 2728.32,-272.243 2710.16,-204.225"/>
<polygon fill="black" stroke="black" points="2713.47,-203.045 2707.42,-194.344 2706.72,-204.915 2713.47,-203.045"/>
</g>
<!-- EAID_577049F8_2932_4d7f_8FB1_EF3FE86A9F7E___EAID_31DCD0CF_9368_455b_8357_E716D739A5E3 -->
<g id="node4" class="node"><title>EAID_577049F8_2932_4d7f_8FB1_EF3FE86A9F7E___EAID_31DCD0CF_9368_455b_8357_E716D739A5E3</title>
<image xlink:href="img/activity_icon.png" width="30px" height="20px" preserveAspectRatio="xMinYMin meet" x="2580" y="-513"/>
<text text-anchor="start" x="2494" y="-478.8" font-family="Times New Roman,serif" font-weight="bold" font-size="14.00">User:search saved unsuccessfully</text>
<text text-anchor="start" x="2551" y="-464.8" font-family="Times New Roman,serif" font-weight="bold" font-size="14.00">error message</text>
</g>
<!-- EAID_D835DBDA_2178_48bc_B96B_8388F0E24226 -->
<g id="node22" class="node"><title>EAID_D835DBDA_2178_48bc_B96B_8388F0E24226</title>
<polygon fill="none" stroke="black" points="3267,-147 3267,-168 3529,-168 3529,-147 3267,-147"/>
<text text-anchor="start" x="3359" y="-154.8" font-family="Times New Roman,serif" font-weight="bold" font-size="14.00">savedSearch</text>
<polygon fill="none" stroke="black" points="3267,-126 3267,-147 3529,-147 3529,-126 3267,-126"/>
<text text-anchor="start" x="3354.5" y="-133.8" font-family="Times New Roman,serif" font-weight="bold" font-size="14.00">savedSearch()</text>
<polygon fill="none" stroke="black" points="3267,-105 3267,-126 3529,-126 3529,-105 3267,-105"/>
<text text-anchor="start" x="3342.5" y="-112.8" font-family="Times New Roman,serif" font-weight="bold" font-size="14.00">saveuseraccount()</text>
<polygon fill="none" stroke="black" points="3267,-84 3267,-105 3529,-105 3529,-84 3267,-84"/>
<text text-anchor="start" x="3314" y="-91.8" font-family="Times New Roman,serif" font-weight="bold" font-size="14.00">userprofileandsearchpage()</text>
<polygon fill="none" stroke="black" points="3267,-63 3267,-84 3529,-84 3529,-63 3267,-63"/>
<text text-anchor="start" x="3270" y="-70.8" font-family="Times New Roman,serif" font-weight="bold" font-size="14.00">searchsavedunsuccessfullyerrormessage()</text>
<polygon fill="none" stroke="black" points="3267,-42 3267,-63 3529,-63 3529,-42 3267,-42"/>
<text text-anchor="start" x="3347" y="-49.8" font-family="Times New Roman,serif" font-weight="bold" font-size="14.00">Jobsearchpage()</text>
<polygon fill="none" stroke="black" points="3266,-41 3266,-169 3530,-169 3530,-41 3266,-41"/>
</g>
<!-- EAID_577049F8_2932_4d7f_8FB1_EF3FE86A9F7E___EAID_31DCD0CF_9368_455b_8357_E716D739A5E3&#45;&gt;EAID_D835DBDA_2178_48bc_B96B_8388F0E24226 -->
<g id="edge13" class="edge"><title>EAID_577049F8_2932_4d7f_8FB1_EF3FE86A9F7E___EAID_31DCD0CF_9368_455b_8357_E716D739A5E3&#45;&gt;EAID_D835DBDA_2178_48bc_B96B_8388F0E24226</title>
<path fill="none" stroke="black" stroke-dasharray="5,2" d="M2699.3,-454.925C2832.13,-413.027 3066.32,-331.258 3249,-225 3271.36,-211.995 3293.95,-195.845 3314.54,-179.68"/>
<polygon fill="black" stroke="black" points="3316.98,-182.211 3322.64,-173.249 3312.63,-176.731 3316.98,-182.211"/>
</g>
<!-- EAID_DF25DF1A_43AD_409e_A2D7_1A36D10121C5___EAID_0F9EC061_6DA6_4a0f_ADBC_501BB9BC3AB9 -->
<g id="node5" class="node"><title>EAID_DF25DF1A_43AD_409e_A2D7_1A36D10121C5___EAID_0F9EC061_6DA6_4a0f_ADBC_501BB9BC3AB9</title>
<image xlink:href="img/activity_icon.png" width="30px" height="20px" preserveAspectRatio="xMinYMin meet" x="1890" y="-306"/>
<text text-anchor="start" x="1822" y="-271.8" font-family="Times New Roman,serif" font-weight="bold" font-size="14.00">Save favorite jobs:Favorite</text>
<text text-anchor="start" x="1890.5" y="-257.8" font-family="Times New Roman,serif" font-weight="bold" font-size="14.00">Jobs</text>
</g>
<!-- EAID_DF25DF1A_43AD_409e_A2D7_1A36D10121C5___EAID_0F9EC061_6DA6_4a0f_ADBC_501BB9BC3AB9&#45;&gt;EAID_168644E6_3B76_44cb_9DEC_0A5EC6BBE8AA -->
<g id="edge14" class="edge"><title>EAID_DF25DF1A_43AD_409e_A2D7_1A36D10121C5___EAID_0F9EC061_6DA6_4a0f_ADBC_501BB9BC3AB9&#45;&gt;EAID_168644E6_3B76_44cb_9DEC_0A5EC6BBE8AA</title>
<path fill="none" stroke="black" stroke-dasharray="5,2" d="M1811.93,-278.934C1561.09,-278.131 883.837,-271.62 795,-225 764.171,-208.821 740.701,-177.023 725.323,-150.365"/>
<polygon fill="black" stroke="black" points="728.34,-148.588 720.419,-141.551 722.223,-151.991 728.34,-148.588"/>
</g>
<!-- EAID_089A4168_5629_4b12_A89E_09A924C93A3E___EAID_DF25DF1A_43AD_409e_A2D7_1A36D10121C5&#45;&gt;EAID_DF25DF1A_43AD_409e_A2D7_1A36D10121C5___EAID_0F9EC061_6DA6_4a0f_ADBC_501BB9BC3AB9 -->
<g id="edge6" class="edge"><title>EAID_089A4168_5629_4b12_A89E_09A924C93A3E___EAID_DF25DF1A_43AD_409e_A2D7_1A36D10121C5&#45;&gt;EAID_DF25DF1A_43AD_409e_A2D7_1A36D10121C5___EAID_0F9EC061_6DA6_4a0f_ADBC_501BB9BC3AB9</title>
<path fill="none" stroke="black" d="M2105.87,-354.837C2074.66,-343.614 2039.23,-330.807 2007,-319 2003.94,-317.879 2000.83,-316.736 1997.69,-315.58"/>
<polygon fill="black" stroke="black" points="1998.79,-312.255 1988.19,-312.079 1996.36,-318.823 1998.79,-312.255"/>
</g>
<!-- EAID_DF25DF1A_43AD_409e_A2D7_1A36D10121C5___EAID_1E679F17_A440_4a59_A68F_5BAEE3033E05 -->
<g id="node7" class="node"><title>EAID_DF25DF1A_43AD_409e_A2D7_1A36D10121C5___EAID_1E679F17_A440_4a59_A68F_5BAEE3033E05</title>
<image xlink:href="img/activity_icon.png" width="30px" height="20px" preserveAspectRatio="xMinYMin meet" x="2085" y="-306"/>
<text text-anchor="start" x="2026" y="-271.8" font-family="Times New Roman,serif" font-weight="bold" font-size="14.00">Save favorite jobs:saved</text>
<text text-anchor="start" x="2028.5" y="-257.8" font-family="Times New Roman,serif" font-weight="bold" font-size="14.00">unsuccessfully message</text>
</g>
<!-- EAID_089A4168_5629_4b12_A89E_09A924C93A3E___EAID_DF25DF1A_43AD_409e_A2D7_1A36D10121C5&#45;&gt;EAID_DF25DF1A_43AD_409e_A2D7_1A36D10121C5___EAID_1E679F17_A440_4a59_A68F_5BAEE3033E05 -->
<g id="edge7" class="edge"><title>EAID_089A4168_5629_4b12_A89E_09A924C93A3E___EAID_DF25DF1A_43AD_409e_A2D7_1A36D10121C5&#45;&gt;EAID_DF25DF1A_43AD_409e_A2D7_1A36D10121C5___EAID_1E679F17_A440_4a59_A68F_5BAEE3033E05</title>
<path fill="none" stroke="black" d="M2165.35,-354.781C2155.69,-343.877 2144.73,-331.499 2134.58,-320.038"/>
<polygon fill="black" stroke="black" points="2136.96,-317.445 2127.71,-312.28 2131.72,-322.087 2136.96,-317.445"/>
</g>
<!-- EAID_DF25DF1A_43AD_409e_A2D7_1A36D10121C5___EAID_31DCD0CF_9368_455b_8357_E716D739A5E3 -->
<g id="node8" class="node"><title>EAID_DF25DF1A_43AD_409e_A2D7_1A36D10121C5___EAID_31DCD0CF_9368_455b_8357_E716D739A5E3</title>
<image xlink:href="img/activity_icon.png" width="30px" height="20px" preserveAspectRatio="xMinYMin meet" x="2464" y="-313"/>
<text text-anchor="start" x="2402" y="-278.8" font-family="Times New Roman,serif" font-weight="bold" font-size="14.00">Save favorite jobs:search</text>
<text text-anchor="start" x="2398" y="-264.8" font-family="Times New Roman,serif" font-weight="bold" font-size="14.00">saved unsuccessfully error</text>
<text text-anchor="start" x="2453" y="-250.8" font-family="Times New Roman,serif" font-weight="bold" font-size="14.00">message</text>
</g>
<!-- EAID_089A4168_5629_4b12_A89E_09A924C93A3E___EAID_DF25DF1A_43AD_409e_A2D7_1A36D10121C5&#45;&gt;EAID_DF25DF1A_43AD_409e_A2D7_1A36D10121C5___EAID_31DCD0CF_9368_455b_8357_E716D739A5E3 -->
<g id="edge8" class="edge"><title>EAID_089A4168_5629_4b12_A89E_09A924C93A3E___EAID_DF25DF1A_43AD_409e_A2D7_1A36D10121C5&#45;&gt;EAID_DF25DF1A_43AD_409e_A2D7_1A36D10121C5___EAID_31DCD0CF_9368_455b_8357_E716D739A5E3</title>
<path fill="none" stroke="black" d="M2280.17,-354.954C2308.95,-344.618 2341.3,-332.907 2378.25,-319.265"/>
<polygon fill="black" stroke="black" points="2379.57,-322.505 2387.74,-315.754 2377.15,-315.94 2379.57,-322.505"/>
</g>
<!-- EAID_DF25DF1A_43AD_409e_A2D7_1A36D10121C5___EAID_E3602F77_14BE_415d_9B21_A21A2FF4F839 -->
<g id="node9" class="node"><title>EAID_DF25DF1A_43AD_409e_A2D7_1A36D10121C5___EAID_E3602F77_14BE_415d_9B21_A21A2FF4F839</title>
<image xlink:href="img/activity_icon.png" width="30px" height="20px" preserveAspectRatio="xMinYMin meet" x="2271" y="-306"/>
<text text-anchor="start" x="2212" y="-271.8" font-family="Times New Roman,serif" font-weight="bold" font-size="14.00">Save favorite jobs:saved</text>
<text text-anchor="start" x="2222" y="-257.8" font-family="Times New Roman,serif" font-weight="bold" font-size="14.00">successfully message</text>
</g>
<!-- EAID_089A4168_5629_4b12_A89E_09A924C93A3E___EAID_DF25DF1A_43AD_409e_A2D7_1A36D10121C5&#45;&gt;EAID_DF25DF1A_43AD_409e_A2D7_1A36D10121C5___EAID_E3602F77_14BE_415d_9B21_A21A2FF4F839 -->
<g id="edge9" class="edge"><title>EAID_089A4168_5629_4b12_A89E_09A924C93A3E___EAID_DF25DF1A_43AD_409e_A2D7_1A36D10121C5&#45;&gt;EAID_DF25DF1A_43AD_409e_A2D7_1A36D10121C5___EAID_E3602F77_14BE_415d_9B21_A21A2FF4F839</title>
<path fill="none" stroke="black" d="M2220.65,-354.781C2230.31,-343.877 2241.27,-331.499 2251.42,-320.038"/>
<polygon fill="black" stroke="black" points="2254.28,-322.087 2258.29,-312.28 2249.04,-317.445 2254.28,-322.087"/>
</g>
<!-- EAID_089A4168_5629_4b12_A89E_09A924C93A3E___EAID_DF25DF1A_43AD_409e_A2D7_1A36D10121C5&#45;&gt;EAID_168644E6_3B76_44cb_9DEC_0A5EC6BBE8AA -->
<g id="edge15" class="edge"><title>EAID_089A4168_5629_4b12_A89E_09A924C93A3E___EAID_DF25DF1A_43AD_409e_A2D7_1A36D10121C5&#45;&gt;EAID_168644E6_3B76_44cb_9DEC_0A5EC6BBE8AA</title>
<path fill="none" stroke="black" stroke-dasharray="5,2" d="M2280.92,-383.419C2382.84,-378.356 2541.67,-363.368 2579,-319 2603.61,-289.753 2605.97,-260.088 2579,-233 2561.52,-215.44 817.189,-236.027 795,-225 763.717,-209.453 740.21,-177.462 724.931,-150.562"/>
<polygon fill="black" stroke="black" points="727.935,-148.76 720.065,-141.665 721.793,-152.118 727.935,-148.76"/>
</g>
<!-- EAID_DF25DF1A_43AD_409e_A2D7_1A36D10121C5___EAID_1E679F17_A440_4a59_A68F_5BAEE3033E05&#45;&gt;EAID_23139A53_6B42_424b_A5A2_84C2C41257D5 -->
<g id="edge16" class="edge"><title>EAID_DF25DF1A_43AD_409e_A2D7_1A36D10121C5___EAID_1E679F17_A440_4a59_A68F_5BAEE3033E05&#45;&gt;EAID_23139A53_6B42_424b_A5A2_84C2C41257D5</title>
<path fill="none" stroke="black" stroke-dasharray="5,2" d="M2153.06,-247.835C2165.75,-241.789 2179.53,-236.309 2193,-233 2231.42,-223.56 2512.43,-240.102 2549,-225 2563.68,-218.938 2577.64,-210.286 2590.54,-200.376"/>
<polygon fill="black" stroke="black" points="2592.82,-203.036 2598.44,-194.054 2588.45,-197.571 2592.82,-203.036"/>
</g>
<!-- EAID_DF25DF1A_43AD_409e_A2D7_1A36D10121C5___EAID_31DCD0CF_9368_455b_8357_E716D739A5E3&#45;&gt;EAID_D835DBDA_2178_48bc_B96B_8388F0E24226 -->
<g id="edge17" class="edge"><title>EAID_DF25DF1A_43AD_409e_A2D7_1A36D10121C5___EAID_31DCD0CF_9368_455b_8357_E716D739A5E3&#45;&gt;EAID_D835DBDA_2178_48bc_B96B_8388F0E24226</title>
<path fill="none" stroke="black" stroke-dasharray="5,2" d="M2570.5,-270.711C2684.9,-260.589 2886.79,-243.519 3060,-233 3080.98,-231.726 3229.31,-232.367 3249,-225 3276.18,-214.828 3302.22,-197.668 3324.71,-179.499"/>
<polygon fill="black" stroke="black" points="3327.04,-182.112 3332.51,-173.04 3322.58,-176.72 3327.04,-182.112"/>
</g>
<!-- EAID_DF25DF1A_43AD_409e_A2D7_1A36D10121C5___EAID_E3602F77_14BE_415d_9B21_A21A2FF4F839&#45;&gt;EAID_23139A53_6B42_424b_A5A2_84C2C41257D5 -->
<g id="edge18" class="edge"><title>EAID_DF25DF1A_43AD_409e_A2D7_1A36D10121C5___EAID_E3602F77_14BE_415d_9B21_A21A2FF4F839&#45;&gt;EAID_23139A53_6B42_424b_A5A2_84C2C41257D5</title>
<path fill="none" stroke="black" stroke-dasharray="5,2" d="M2339.62,-247.841C2352.17,-241.876 2365.75,-236.429 2379,-233 2415.61,-223.527 2514.22,-239.864 2549,-225 2563.24,-218.914 2576.82,-210.436 2589.44,-200.779"/>
<polygon fill="black" stroke="black" points="2591.95,-203.25 2597.58,-194.276 2587.58,-197.78 2591.95,-203.25"/>
</g>
<!-- EAID_577049F8_2932_4d7f_8FB1_EF3FE86A9F7E___EAID_089A4168_5629_4b12_A89E_09A924C93A3E_STL -->
<g id="node10" class="node"><title>EAID_577049F8_2932_4d7f_8FB1_EF3FE86A9F7E___EAID_089A4168_5629_4b12_A89E_09A924C93A3E_STL</title>
<image xlink:href="img/stimulus_icon.png" width="30px" height="20px" preserveAspectRatio="xMinYMin meet" x="1847" y="-624"/>
<text text-anchor="start" x="1779" y="-589.8" font-family="Times New Roman,serif" font-weight="bold" font-size="14.00">stl#User:Save Favorite Job</text>
<text text-anchor="start" x="1841" y="-575.8" font-family="Times New Roman,serif" font-weight="bold" font-size="14.00">Button</text>
</g>
<!-- EAID_577049F8_2932_4d7f_8FB1_EF3FE86A9F7E___EAID_089A4168_5629_4b12_A89E_09A924C93A3E_STL&#45;&gt;EAID_577049F8_2932_4d7f_8FB1_EF3FE86A9F7E___EAID_089A4168_5629_4b12_A89E_09A924C93A3E -->
<g id="edge2" class="edge"><title>EAID_577049F8_2932_4d7f_8FB1_EF3FE86A9F7E___EAID_089A4168_5629_4b12_A89E_09A924C93A3E_STL&#45;&gt;EAID_577049F8_2932_4d7f_8FB1_EF3FE86A9F7E___EAID_089A4168_5629_4b12_A89E_09A924C93A3E</title>
<path fill="none" stroke="black" d="M1871.17,-565.765C1874.52,-554.363 1878.36,-541.288 1881.92,-529.154"/>
<polygon fill="black" stroke="black" points="1885.37,-529.821 1884.83,-519.24 1878.65,-527.849 1885.37,-529.821"/>
</g>
<!-- EAID_577049F8_2932_4d7f_8FB1_EF3FE86A9F7E___EAID_E3602F77_14BE_415d_9B21_A21A2FF4F839_STL -->
<g id="node11" class="node"><title>EAID_577049F8_2932_4d7f_8FB1_EF3FE86A9F7E___EAID_E3602F77_14BE_415d_9B21_A21A2FF4F839_STL</title>
<image xlink:href="img/stimulus_icon.png" width="30px" height="20px" preserveAspectRatio="xMinYMin meet" x="2078" y="-617"/>
<text text-anchor="start" x="1983" y="-582.8" font-family="Times New Roman,serif" font-weight="bold" font-size="14.00">stl#User:saved successfully message</text>
</g>
<!-- EAID_577049F8_2932_4d7f_8FB1_EF3FE86A9F7E___EAID_E3602F77_14BE_415d_9B21_A21A2FF4F839_STL&#45;&gt;EAID_577049F8_2932_4d7f_8FB1_EF3FE86A9F7E___EAID_E3602F77_14BE_415d_9B21_A21A2FF4F839 -->
<g id="edge3" class="edge"><title>EAID_577049F8_2932_4d7f_8FB1_EF3FE86A9F7E___EAID_E3602F77_14BE_415d_9B21_A21A2FF4F839_STL&#45;&gt;EAID_577049F8_2932_4d7f_8FB1_EF3FE86A9F7E___EAID_E3602F77_14BE_415d_9B21_A21A2FF4F839</title>
<path fill="none" stroke="black" d="M2095.5,-572.266C2096.97,-557.633 2098.87,-538.87 2100.49,-522.765"/>
<polygon fill="black" stroke="black" points="2103.99,-522.937 2101.51,-512.636 2097.03,-522.234 2103.99,-522.937"/>
</g>
<!-- EAID_577049F8_2932_4d7f_8FB1_EF3FE86A9F7E___EAID_1E679F17_A440_4a59_A68F_5BAEE3033E05_STL -->
<g id="node12" class="node"><title>EAID_577049F8_2932_4d7f_8FB1_EF3FE86A9F7E___EAID_1E679F17_A440_4a59_A68F_5BAEE3033E05_STL</title>
<image xlink:href="img/stimulus_icon.png" width="30px" height="20px" preserveAspectRatio="xMinYMin meet" x="2344.5" y="-617"/>
<text text-anchor="start" x="2242" y="-582.8" font-family="Times New Roman,serif" font-weight="bold" font-size="14.00">stl#User:saved unsuccessfully message</text>
</g>
<!-- EAID_577049F8_2932_4d7f_8FB1_EF3FE86A9F7E___EAID_1E679F17_A440_4a59_A68F_5BAEE3033E05_STL&#45;&gt;EAID_577049F8_2932_4d7f_8FB1_EF3FE86A9F7E___EAID_1E679F17_A440_4a59_A68F_5BAEE3033E05 -->
<g id="edge4" class="edge"><title>EAID_577049F8_2932_4d7f_8FB1_EF3FE86A9F7E___EAID_1E679F17_A440_4a59_A68F_5BAEE3033E05_STL&#45;&gt;EAID_577049F8_2932_4d7f_8FB1_EF3FE86A9F7E___EAID_1E679F17_A440_4a59_A68F_5BAEE3033E05</title>
<path fill="none" stroke="black" d="M2356.73,-572.266C2355.39,-557.633 2353.67,-538.87 2352.19,-522.765"/>
<polygon fill="black" stroke="black" points="2355.66,-522.274 2351.26,-512.636 2348.69,-522.914 2355.66,-522.274"/>
</g>
<!-- EAID_577049F8_2932_4d7f_8FB1_EF3FE86A9F7E___EAID_31DCD0CF_9368_455b_8357_E716D739A5E3_STL -->
<g id="node13" class="node"><title>EAID_577049F8_2932_4d7f_8FB1_EF3FE86A9F7E___EAID_31DCD0CF_9368_455b_8357_E716D739A5E3_STL</title>
<image xlink:href="img/stimulus_icon.png" width="30px" height="20px" preserveAspectRatio="xMinYMin meet" x="2612" y="-624"/>
<text text-anchor="start" x="2515" y="-589.8" font-family="Times New Roman,serif" font-weight="bold" font-size="14.00">stl#User:search saved unsuccessfully</text>
<text text-anchor="start" x="2583" y="-575.8" font-family="Times New Roman,serif" font-weight="bold" font-size="14.00">error message</text>
</g>
<!-- EAID_577049F8_2932_4d7f_8FB1_EF3FE86A9F7E___EAID_31DCD0CF_9368_455b_8357_E716D739A5E3_STL&#45;&gt;EAID_577049F8_2932_4d7f_8FB1_EF3FE86A9F7E___EAID_31DCD0CF_9368_455b_8357_E716D739A5E3 -->
<g id="edge5" class="edge"><title>EAID_577049F8_2932_4d7f_8FB1_EF3FE86A9F7E___EAID_31DCD0CF_9368_455b_8357_E716D739A5E3_STL&#45;&gt;EAID_577049F8_2932_4d7f_8FB1_EF3FE86A9F7E___EAID_31DCD0CF_9368_455b_8357_E716D739A5E3</title>
<path fill="none" stroke="black" d="M2617.83,-565.765C2614.48,-554.363 2610.64,-541.288 2607.08,-529.154"/>
<polygon fill="black" stroke="black" points="2610.35,-527.849 2604.17,-519.24 2603.63,-529.821 2610.35,-527.849"/>
</g>
<!-- EAID_953D44C2_5843_4888_B58D_4D7780FEE819 -->
<g id="node14" class="node"><title>EAID_953D44C2_5843_4888_B58D_4D7780FEE819</title>
<polygon fill="none" stroke="black" points="3566,-126 3566,-147 3765,-147 3765,-126 3566,-126"/>
<text text-anchor="start" x="3572" y="-133.8" font-family="Times New Roman,serif" font-weight="bold" font-size="14.00">Email Subscription Preference</text>
<polygon fill="none" stroke="black" points="3566,-105 3566,-126 3765,-126 3765,-105 3566,-105"/>
<text text-anchor="start" x="3571" y="-112.8" font-family="Times New Roman,serif" font-weight="bold" font-size="14.00">EmailSubscriptionPreference()</text>
<polygon fill="none" stroke="black" points="3566,-84 3566,-105 3765,-105 3765,-84 3566,-84"/>
<text text-anchor="start" x="3569" y="-91.8" font-family="Times New Roman,serif" font-weight="bold" font-size="14.00">subscribefornotificationbutton()</text>
<polygon fill="none" stroke="black" points="3566,-63 3566,-84 3765,-84 3765,-63 3566,-63"/>
<text text-anchor="start" x="3616.5" y="-70.8" font-family="Times New Roman,serif" font-weight="bold" font-size="14.00">EmailProtocol()</text>
<polygon fill="none" stroke="black" points="3564.5,-62 3564.5,-148 3765.5,-148 3765.5,-62 3564.5,-62"/>
</g>
<!-- EAID_B915E624_11D4_4a73_9C51_D4508EF42B60 -->
<g id="node16" class="node"><title>EAID_B915E624_11D4_4a73_9C51_D4508EF42B60</title>
<polygon fill="none" stroke="black" points="2818,-168 2818,-189 3231,-189 3231,-168 2818,-168"/>
<text text-anchor="start" x="2932.5" y="-175.8" font-family="Times New Roman,serif" font-weight="bold" font-size="14.00">User social media information</text>
<polygon fill="none" stroke="black" points="2818,-147 2818,-168 3231,-168 3231,-147 2818,-147"/>
<text text-anchor="start" x="2826" y="-154.8" font-family="Times New Roman,serif" font-weight="bold" font-size="14.00">EAID_FEF07658_952D_4b88_9559_EFD8D91092B0 undefined</text>
<polygon fill="none" stroke="black" points="2818,-126 2818,-147 3231,-147 3231,-126 2818,-126"/>
<text text-anchor="start" x="2826" y="-133.8" font-family="Times New Roman,serif" font-weight="bold" font-size="14.00">EAID_953D44C2_5843_4888_B58D_4D7780FEE819 undefined</text>
<polygon fill="none" stroke="black" points="2818,-105 2818,-126 3231,-126 3231,-105 2818,-105"/>
<text text-anchor="start" x="2821" y="-112.8" font-family="Times New Roman,serif" font-weight="bold" font-size="14.00">EAID_168644E6_3B76_44cb_9DEC_0A5EC6BBE8AA undefined</text>
<polygon fill="none" stroke="black" points="2818,-84 2818,-105 3231,-105 3231,-84 2818,-84"/>
<text text-anchor="start" x="2826" y="-91.8" font-family="Times New Roman,serif" font-weight="bold" font-size="14.00">EAID_D835DBDA_2178_48bc_B96B_8388F0E24226 undefined</text>
<polygon fill="none" stroke="black" points="2818,-63 2818,-84 3231,-84 3231,-63 2818,-63"/>
<text text-anchor="start" x="2934" y="-70.8" font-family="Times New Roman,serif" font-weight="bold" font-size="14.00">Usersocialmediainformation()</text>
<polygon fill="none" stroke="black" points="2818,-42 2818,-63 3231,-63 3231,-42 2818,-42"/>
<text text-anchor="start" x="2948.5" y="-49.8" font-family="Times New Roman,serif" font-weight="bold" font-size="14.00">invalidinputinformation()</text>
<polygon fill="none" stroke="black" points="2818,-21 2818,-42 3231,-42 3231,-21 2818,-21"/>
<text text-anchor="start" x="2946" y="-28.8" font-family="Times New Roman,serif" font-weight="bold" font-size="14.00">socialmedialoginbuttons()</text>
<polygon fill="none" stroke="black" points="2816.5,-20 2816.5,-190 3231.5,-190 3231.5,-20 2816.5,-20"/>
</g>
<!-- EAID_E0DF0FCF_C875_464a_8978_3AD1CD0FF62F -->
<g id="node18" class="node"><title>EAID_E0DF0FCF_C875_464a_8978_3AD1CD0FF62F</title>
<polygon fill="none" stroke="black" points="2129,-126 2129,-147 2531,-147 2531,-126 2129,-126"/>
<text text-anchor="start" x="2286" y="-133.8" font-family="Times New Roman,serif" font-weight="bold" font-size="14.00">facebook data</text>
<polygon fill="none" stroke="black" points="2129,-105 2129,-126 2531,-126 2531,-105 2129,-105"/>
<text text-anchor="start" x="2132" y="-112.8" font-family="Times New Roman,serif" font-weight="bold" font-size="14.00">EAID_B915E624_11D4_4a73_9C51_D4508EF42B60 undefined</text>
<polygon fill="none" stroke="black" points="2129,-84 2129,-105 2531,-105 2531,-84 2129,-84"/>
<text text-anchor="start" x="2133" y="-91.8" font-family="Times New Roman,serif" font-weight="bold" font-size="14.00">EAID_23139A53_6B42_424b_A5A2_84C2C41257D5 undefined</text>
<polygon fill="none" stroke="black" points="2129,-63 2129,-84 2531,-84 2531,-63 2129,-63"/>
<text text-anchor="start" x="2283.5" y="-70.8" font-family="Times New Roman,serif" font-weight="bold" font-size="14.00">facebookdata()</text>
<polygon fill="none" stroke="black" points="2128,-62 2128,-148 2532,-148 2532,-62 2128,-62"/>
</g>
<!-- EAID_E2CA3D19_2E92_4f50_A0C4_BC04647EC6B3 -->
<g id="node19" class="node"><title>EAID_E2CA3D19_2E92_4f50_A0C4_BC04647EC6B3</title>
<polygon fill="none" stroke="black" points="1691,-136 1691,-157 2093,-157 2093,-136 1691,-136"/>
<text text-anchor="start" x="1856.5" y="-143.8" font-family="Times New Roman,serif" font-weight="bold" font-size="14.00">google date</text>
<polygon fill="none" stroke="black" points="1691,-115 1691,-136 2093,-136 2093,-115 1691,-115"/>
<text text-anchor="start" x="1694" y="-122.8" font-family="Times New Roman,serif" font-weight="bold" font-size="14.00">EAID_B915E624_11D4_4a73_9C51_D4508EF42B60 undefined</text>
<polygon fill="none" stroke="black" points="1691,-94 1691,-115 2093,-115 2093,-94 1691,-94"/>
<text text-anchor="start" x="1695" y="-101.8" font-family="Times New Roman,serif" font-weight="bold" font-size="14.00">EAID_23139A53_6B42_424b_A5A2_84C2C41257D5 undefined</text>
<polygon fill="none" stroke="black" points="1691,-73 1691,-94 2093,-94 2093,-73 1691,-73"/>
<text text-anchor="start" x="1854" y="-80.8" font-family="Times New Roman,serif" font-weight="bold" font-size="14.00">googledate()</text>
<polygon fill="none" stroke="black" points="1691,-52 1691,-73 2093,-73 2093,-52 1691,-52"/>
<text text-anchor="start" x="1825.5" y="-59.8" font-family="Times New Roman,serif" font-weight="bold" font-size="14.00">querygoogleplusinfo()</text>
<polygon fill="none" stroke="black" points="1690,-51.5 1690,-158.5 2094,-158.5 2094,-51.5 1690,-51.5"/>
</g>
<!-- EAID_D3CE170B_A071_40e8_B3FB_64E784C8E2C7 -->
<g id="node20" class="node"><title>EAID_D3CE170B_A071_40e8_B3FB_64E784C8E2C7</title>
<polygon fill="none" stroke="black" points="1252,-136 1252,-157 1655,-157 1655,-136 1252,-136"/>
<text text-anchor="start" x="1396" y="-143.8" font-family="Times New Roman,serif" font-weight="bold" font-size="14.00">indeed.com job list</text>
<polygon fill="none" stroke="black" points="1252,-115 1252,-136 1655,-136 1655,-115 1252,-115"/>
<text text-anchor="start" x="1255" y="-122.8" font-family="Times New Roman,serif" font-weight="bold" font-size="14.00">EAID_FEF07658_952D_4b88_9559_EFD8D91092B0 undefined</text>
<polygon fill="none" stroke="black" points="1252,-94 1252,-115 1655,-115 1655,-94 1252,-94"/>
<text text-anchor="start" x="1397.5" y="-101.8" font-family="Times New Roman,serif" font-weight="bold" font-size="14.00">indeedcomjoblist()</text>
<polygon fill="none" stroke="black" points="1252,-73 1252,-94 1655,-94 1655,-73 1252,-73"/>
<text text-anchor="start" x="1414" y="-80.8" font-family="Times New Roman,serif" font-weight="bold" font-size="14.00">Joblistpage()</text>
<polygon fill="none" stroke="black" points="1252,-52 1252,-73 1655,-73 1655,-52 1252,-52"/>
<text text-anchor="start" x="1327" y="-59.8" font-family="Times New Roman,serif" font-weight="bold" font-size="14.00">SearchbyinputkeywordsfromIndeedcom()</text>
<polygon fill="none" stroke="black" points="1250.5,-51.5 1250.5,-158.5 1655.5,-158.5 1655.5,-51.5 1250.5,-51.5"/>
</g>
<!-- EAID_38F641C9_AE57_45f1_A860_5F9891857941 -->
<g id="node21" class="node"><title>EAID_38F641C9_AE57_45f1_A860_5F9891857941</title>
<polygon fill="none" stroke="black" points="813,-147 813,-168 1215,-168 1215,-147 813,-147"/>
<text text-anchor="start" x="981" y="-154.8" font-family="Times New Roman,serif" font-weight="bold" font-size="14.00">linkin data</text>
<polygon fill="none" stroke="black" points="813,-126 813,-147 1215,-147 1215,-126 813,-126"/>
<text text-anchor="start" x="816" y="-133.8" font-family="Times New Roman,serif" font-weight="bold" font-size="14.00">EAID_B915E624_11D4_4a73_9C51_D4508EF42B60 undefined</text>
<polygon fill="none" stroke="black" points="813,-105 813,-126 1215,-126 1215,-105 813,-105"/>
<text text-anchor="start" x="817" y="-112.8" font-family="Times New Roman,serif" font-weight="bold" font-size="14.00">EAID_23139A53_6B42_424b_A5A2_84C2C41257D5 undefined</text>
<polygon fill="none" stroke="black" points="813,-84 813,-105 1215,-105 1215,-84 813,-84"/>
<text text-anchor="start" x="978.5" y="-91.8" font-family="Times New Roman,serif" font-weight="bold" font-size="14.00">linkindata()</text>
<polygon fill="none" stroke="black" points="813,-63 813,-84 1215,-84 1215,-63 813,-63"/>
<text text-anchor="start" x="956.5" y="-70.8" font-family="Times New Roman,serif" font-weight="bold" font-size="14.00">validateinputdata()</text>
<polygon fill="none" stroke="black" points="813,-42 813,-63 1215,-63 1215,-42 813,-42"/>
<text text-anchor="start" x="967.5" y="-49.8" font-family="Times New Roman,serif" font-weight="bold" font-size="14.00">querylinkedin()</text>
<polygon fill="none" stroke="black" points="812,-41 812,-169 1216,-169 1216,-41 812,-41"/>
</g>
<!-- EAID_FEF07658_952D_4b88_9559_EFD8D91092B0 -->
<g id="node23" class="node"><title>EAID_FEF07658_952D_4b88_9559_EFD8D91092B0</title>
<polygon fill="none" stroke="black" points="193,-136 193,-157 596,-157 596,-136 193,-136"/>
<text text-anchor="start" x="355" y="-143.8" font-family="Times New Roman,serif" font-weight="bold" font-size="14.00">search result</text>
<polygon fill="none" stroke="black" points="193,-115 193,-136 596,-136 596,-115 193,-115"/>
<text text-anchor="start" x="197.5" y="-122.8" font-family="Times New Roman,serif" font-weight="bold" font-size="14.00">EAID_23139A53_6B42_424b_A5A2_84C2C41257D5 undefined</text>
<polygon fill="none" stroke="black" points="193,-94 193,-115 596,-115 596,-94 193,-94"/>
<text text-anchor="start" x="196" y="-101.8" font-family="Times New Roman,serif" font-weight="bold" font-size="14.00">EAID_D835DBDA_2178_48bc_B96B_8388F0E24226 undefined</text>
<polygon fill="none" stroke="black" points="193,-73 193,-94 596,-94 596,-73 193,-73"/>
<text text-anchor="start" x="352" y="-80.8" font-family="Times New Roman,serif" font-weight="bold" font-size="14.00">searchresult()</text>
<polygon fill="none" stroke="black" points="193,-52 193,-73 596,-73 596,-52 193,-52"/>
<text text-anchor="start" x="368" y="-59.8" font-family="Times New Roman,serif" font-weight="bold" font-size="14.00">session()</text>
<polygon fill="none" stroke="black" points="191.5,-51.5 191.5,-158.5 596.5,-158.5 596.5,-51.5 191.5,-51.5"/>
</g>
<!-- EAID_D5CB6791_DC54_4f3f_9CD6_4FFE92997022 -->
<g id="node24" class="node"><title>EAID_D5CB6791_DC54_4f3f_9CD6_4FFE92997022</title>
<polygon fill="none" stroke="black" points="26,-115 26,-136 157,-136 157,-115 26,-115"/>
<text text-anchor="start" x="42.5" y="-122.8" font-family="Times New Roman,serif" font-weight="bold" font-size="14.00">ProfileEditPage</text>
<polygon fill="none" stroke="black" points="26,-94 26,-115 157,-115 157,-94 26,-94"/>
<text text-anchor="start" x="38" y="-101.8" font-family="Times New Roman,serif" font-weight="bold" font-size="14.00">ProfileEditPage()</text>
<polygon fill="none" stroke="black" points="26,-73 26,-94 157,-94 157,-73 26,-73"/>
<text text-anchor="start" x="29" y="-80.8" font-family="Times New Roman,serif" font-weight="bold" font-size="14.00">saveupdatedprofile()</text>
<polygon fill="none" stroke="black" points="24.5,-72.5 24.5,-137.5 157.5,-137.5 157.5,-72.5 24.5,-72.5"/>
</g>
</g>
</svg>
