<?xml version="1.0" encoding="UTF-8" standalone="no"?>
<!DOCTYPE svg PUBLIC "-//W3C//DTD SVG 1.1//EN"
 "http://www.w3.org/Graphics/SVG/1.1/DTD/svg11.dtd">
<!-- Generated by graphviz version 2.38.0 (20140413.2041)
 -->
<!-- Title: g Pages: 1 -->
<svg width="2443pt" height="1096pt"
 viewBox="0.00 0.00 2443.00 1096.00" xmlns="http://www.w3.org/2000/svg" xmlns:xlink="http://www.w3.org/1999/xlink">
<g id="graph0" class="graph" transform="scale(1 1) rotate(0) translate(4 1092)">
<title>g</title>
<polygon fill="white" stroke="none" points="-4,4 -4,-1092 2439,-1092 2439,4 -4,4"/>
<g id="clust1" class="cluster"><title>cluster0</title>
<polygon fill="none" stroke="black" stroke-width="2" points="1467,-464 1467,-982 1955,-982 1955,-464 1467,-464"/>
<text text-anchor="start" x="1689" y="-967.8" font-family="Times New Roman,serif" font-weight="bold" font-size="14.00">System</text>
</g>
<g id="clust3" class="cluster"><title>cluster1000</title>
<polygon fill="none" stroke="black" stroke-width="2" points="340,-8 340,-456 2427,-456 2427,-8 340,-8"/>
<text text-anchor="start" x="1338" y="-441.8" font-family="Times New Roman,serif" font-weight="bold" font-size="14.00">Domain Model</text>
</g>
<g id="clust2" class="cluster"><title>cluster1</title>
<polygon fill="none" stroke="black" stroke-width="2" points="1504,-990 1504,-1080 1942,-1080 1942,-990 1504,-990"/>
<text text-anchor="start" x="1708.5" y="-1065.8" font-family="Times New Roman,serif" font-weight="bold" font-size="14.00">User</text>
</g>
<!-- EAID_E5B93D1F_5A52_4a0c_89B5_26680EF93B98___EAID_8F88C660_075C_4346_A0C2_9623080F1A93 -->
<g id="node1" class="node"><title>EAID_E5B93D1F_5A52_4a0c_89B5_26680EF93B98___EAID_8F88C660_075C_4346_A0C2_9623080F1A93</title>
<image xlink:href="img/activity_icon.png" width="30px" height="20px" preserveAspectRatio="xMinYMin meet" x="1535" y="-944.5"/>
<text text-anchor="start" x="1501" y="-910.3" font-family="Times New Roman,serif" font-weight="bold" font-size="14.00">User:Homepage</text>
</g>
<!-- EAID_81FD120F_FCA8_4f26_A54A_5E6C09FE64D0 -->
<g id="node19" class="node"><title>EAID_81FD120F_FCA8_4f26_A54A_5E6C09FE64D0</title>
<text text-anchor="middle" x="165" y="-216.8" font-family="Times New Roman,serif" font-size="14.00">EAID_81FD120F_FCA8_4f26_A54A_5E6C09FE64D0</text>
</g>
<!-- EAID_E5B93D1F_5A52_4a0c_89B5_26680EF93B98___EAID_8F88C660_075C_4346_A0C2_9623080F1A93&#45;&gt;EAID_81FD120F_FCA8_4f26_A54A_5E6C09FE64D0 -->
<g id="edge9" class="edge"><title>EAID_E5B93D1F_5A52_4a0c_89B5_26680EF93B98___EAID_8F88C660_075C_4346_A0C2_9623080F1A93&#45;&gt;EAID_81FD120F_FCA8_4f26_A54A_5E6C09FE64D0</title>
<path fill="none" stroke="black" stroke-dasharray="5,2" d="M1490.73,-919.133C1265.58,-897.967 476,-816.303 476,-712 476,-712 476,-712 476,-603 476,-512.778 393.814,-525.264 336,-456 275.285,-383.26 211.501,-290.855 181.916,-246.922"/>
<polygon fill="black" stroke="black" points="184.78,-244.908 176.301,-238.555 178.967,-248.808 184.78,-244.908"/>
</g>
<!-- EAID_E5B93D1F_5A52_4a0c_89B5_26680EF93B98___EAID_3C844C76_8BB1_4158_9FFA_DC7CB8543D8F -->
<g id="node2" class="node"><title>EAID_E5B93D1F_5A52_4a0c_89B5_26680EF93B98___EAID_3C844C76_8BB1_4158_9FFA_DC7CB8543D8F</title>
<image xlink:href="img/activity_icon.png" width="30px" height="20px" preserveAspectRatio="xMinYMin meet" x="1803.5" y="-944.5"/>
<text text-anchor="start" x="1708" y="-910.3" font-family="Times New Roman,serif" font-weight="bold" font-size="14.00">User:Cancel Volunteer Appointment</text>
</g>
<!-- EAID_3C844C76_8BB1_4158_9FFA_DC7CB8543D8F___EAID_28130BAF_B71E_41f3_9872_5CE13110F6D8 -->
<g id="node3" class="node"><title>EAID_3C844C76_8BB1_4158_9FFA_DC7CB8543D8F___EAID_28130BAF_B71E_41f3_9872_5CE13110F6D8</title>
<image xlink:href="img/activity_icon.png" width="30px" height="20px" preserveAspectRatio="xMinYMin meet" x="1803" y="-858"/>
<text text-anchor="start" x="1699" y="-823.8" font-family="Times New Roman,serif" font-weight="bold" font-size="14.00">Cancel Volunteer Appointment:Choose</text>
<text text-anchor="start" x="1774" y="-809.8" font-family="Times New Roman,serif" font-weight="bold" font-size="14.00">one of existing</text>
<text text-anchor="start" x="1777" y="-795.8" font-family="Times New Roman,serif" font-weight="bold" font-size="14.00">appointments</text>
</g>
<!-- EAID_E5B93D1F_5A52_4a0c_89B5_26680EF93B98___EAID_3C844C76_8BB1_4158_9FFA_DC7CB8543D8F&#45;&gt;EAID_3C844C76_8BB1_4158_9FFA_DC7CB8543D8F___EAID_28130BAF_B71E_41f3_9872_5CE13110F6D8 -->
<g id="edge2" class="edge"><title>EAID_E5B93D1F_5A52_4a0c_89B5_26680EF93B98___EAID_3C844C76_8BB1_4158_9FFA_DC7CB8543D8F&#45;&gt;EAID_3C844C76_8BB1_4158_9FFA_DC7CB8543D8F___EAID_28130BAF_B71E_41f3_9872_5CE13110F6D8</title>
<path fill="none" stroke="black" d="M1818,-899.898C1818,-892.032 1818,-883.036 1818,-874.09"/>
<polygon fill="black" stroke="black" points="1821.5,-874.075 1818,-864.075 1814.5,-874.075 1821.5,-874.075"/>
</g>
<!-- EAID_A78B4FEE_2FFD_4e9a_A9A3_681411A9167B -->
<g id="node11" class="node"><title>EAID_A78B4FEE_2FFD_4e9a_A9A3_681411A9167B</title>
<polygon fill="none" stroke="black" points="1913,-283.5 1913,-304.5 2190,-304.5 2190,-283.5 1913,-283.5"/>
<text text-anchor="start" x="2012" y="-291.3" font-family="Times New Roman,serif" font-weight="bold" font-size="14.00">Appointment</text>
<polygon fill="none" stroke="black" points="1913,-262.5 1913,-283.5 2190,-283.5 2190,-262.5 1913,-262.5"/>
<text text-anchor="start" x="1970" y="-270.3" font-family="Times New Roman,serif" font-weight="bold" font-size="14.00">EAJava_void Client Name</text>
<polygon fill="none" stroke="black" points="1913,-241.5 1913,-262.5 2190,-262.5 2190,-241.5 1913,-241.5"/>
<text text-anchor="start" x="1994" y="-249.3" font-family="Times New Roman,serif" font-weight="bold" font-size="14.00">EAJava_void Date</text>
<polygon fill="none" stroke="black" points="1913,-220.5 1913,-241.5 2190,-241.5 2190,-220.5 1913,-220.5"/>
<text text-anchor="start" x="1981" y="-228.3" font-family="Times New Roman,serif" font-weight="bold" font-size="14.00">EAJava_void End time</text>
<polygon fill="none" stroke="black" points="1913,-199.5 1913,-220.5 2190,-220.5 2190,-199.5 1913,-199.5"/>
<text text-anchor="start" x="1978" y="-207.3" font-family="Times New Roman,serif" font-weight="bold" font-size="14.00">EAJava_void Start time</text>
<polygon fill="none" stroke="black" points="1913,-178.5 1913,-199.5 2190,-199.5 2190,-178.5 1913,-178.5"/>
<text text-anchor="start" x="1958" y="-186.3" font-family="Times New Roman,serif" font-weight="bold" font-size="14.00">EAJava_void Volunteer String</text>
<polygon fill="none" stroke="black" points="1913,-157.5 1913,-178.5 2190,-178.5 2190,-157.5 1913,-157.5"/>
<text text-anchor="start" x="2007.5" y="-165.3" font-family="Times New Roman,serif" font-weight="bold" font-size="14.00">Appointment()</text>
<polygon fill="none" stroke="black" points="1913,-136.5 1913,-157.5 2190,-157.5 2190,-136.5 1913,-136.5"/>
<text text-anchor="start" x="1916" y="-144.3" font-family="Times New Roman,serif" font-weight="bold" font-size="14.00">Chooseoneofclientappointmentspreadsheet()</text>
<polygon fill="none" stroke="black" points="1911.5,-135.5 1911.5,-305.5 2190.5,-305.5 2190.5,-135.5 1911.5,-135.5"/>
</g>
<!-- EAID_E5B93D1F_5A52_4a0c_89B5_26680EF93B98___EAID_3C844C76_8BB1_4158_9FFA_DC7CB8543D8F&#45;&gt;EAID_A78B4FEE_2FFD_4e9a_A9A3_681411A9167B -->
<g id="edge10" class="edge"><title>EAID_E5B93D1F_5A52_4a0c_89B5_26680EF93B98___EAID_3C844C76_8BB1_4158_9FFA_DC7CB8543D8F&#45;&gt;EAID_A78B4FEE_2FFD_4e9a_A9A3_681411A9167B</title>
<path fill="none" stroke="black" stroke-dasharray="5,2" d="M1895.79,-899.979C1916.83,-890.905 1938.58,-879.052 1956,-864 2016.28,-811.91 2051,-791.665 2051,-712 2051,-712 2051,-712 2051,-603 2051,-506.811 2051,-396.979 2051,-319.941"/>
<polygon fill="black" stroke="black" points="2054.5,-319.767 2051,-309.767 2047.5,-319.767 2054.5,-319.767"/>
</g>
<!-- EAID_28130BAF_B71E_41f3_9872_5CE13110F6D8___EAID_A3563718_4A55_47f6_8DDF_0927B57A5CA4 -->
<g id="node5" class="node"><title>EAID_28130BAF_B71E_41f3_9872_5CE13110F6D8___EAID_A3563718_4A55_47f6_8DDF_0927B57A5CA4</title>
<image xlink:href="img/activity_icon.png" width="30px" height="20px" preserveAspectRatio="xMinYMin meet" x="1679" y="-744"/>
<text text-anchor="start" x="1650" y="-709.8" font-family="Times New Roman,serif" font-weight="bold" font-size="14.00">Choose one of</text>
<text text-anchor="start" x="1578" y="-695.8" font-family="Times New Roman,serif" font-weight="bold" font-size="14.00">existing appointments:Remove chosen</text>
<text text-anchor="start" x="1656" y="-681.8" font-family="Times New Roman,serif" font-weight="bold" font-size="14.00">appointment</text>
</g>
<!-- EAID_3C844C76_8BB1_4158_9FFA_DC7CB8543D8F___EAID_28130BAF_B71E_41f3_9872_5CE13110F6D8&#45;&gt;EAID_28130BAF_B71E_41f3_9872_5CE13110F6D8___EAID_A3563718_4A55_47f6_8DDF_0927B57A5CA4 -->
<g id="edge4" class="edge"><title>EAID_3C844C76_8BB1_4158_9FFA_DC7CB8543D8F___EAID_28130BAF_B71E_41f3_9872_5CE13110F6D8&#45;&gt;EAID_28130BAF_B71E_41f3_9872_5CE13110F6D8___EAID_A3563718_4A55_47f6_8DDF_0927B57A5CA4</title>
<path fill="none" stroke="black" d="M1775.67,-785.769C1765.4,-776.488 1754.32,-766.481 1743.74,-756.923"/>
<polygon fill="black" stroke="black" points="1745.9,-754.164 1736.14,-750.058 1741.21,-759.359 1745.9,-754.164"/>
</g>
<!-- EAID_3C844C76_8BB1_4158_9FFA_DC7CB8543D8F___EAID_28130BAF_B71E_41f3_9872_5CE13110F6D8&#45;&gt;EAID_A78B4FEE_2FFD_4e9a_A9A3_681411A9167B -->
<g id="edge11" class="edge"><title>EAID_3C844C76_8BB1_4158_9FFA_DC7CB8543D8F___EAID_28130BAF_B71E_41f3_9872_5CE13110F6D8&#45;&gt;EAID_A78B4FEE_2FFD_4e9a_A9A3_681411A9167B</title>
<path fill="none" stroke="black" stroke-dasharray="5,2" d="M1846.85,-785.707C1885.45,-732.537 1953.31,-632.02 1990,-536 2016.71,-466.094 2032.19,-382.792 2040.87,-319.487"/>
<polygon fill="black" stroke="black" points="2044.35,-319.88 2042.21,-309.504 2037.41,-318.952 2044.35,-319.88"/>
</g>
<!-- EAID_8ACE6EC3_4AAA_4f76_AE29_4639B60CD0FC___EAID_3C844C76_8BB1_4158_9FFA_DC7CB8543D8F -->
<g id="node4" class="node"><title>EAID_8ACE6EC3_4AAA_4f76_AE29_4639B60CD0FC___EAID_3C844C76_8BB1_4158_9FFA_DC7CB8543D8F</title>
<image xlink:href="img/activity_icon.png" width="30px" height="20px" preserveAspectRatio="xMinYMin meet" x="1824" y="-530"/>
<text text-anchor="start" x="1741" y="-495.8" font-family="Times New Roman,serif" font-weight="bold" font-size="14.00">Show confirmation page:Cancel</text>
<text text-anchor="start" x="1768" y="-481.8" font-family="Times New Roman,serif" font-weight="bold" font-size="14.00">Volunteer Appointment</text>
</g>
<!-- EAID_8ACE6EC3_4AAA_4f76_AE29_4639B60CD0FC___EAID_3C844C76_8BB1_4158_9FFA_DC7CB8543D8F&#45;&gt;EAID_3C844C76_8BB1_4158_9FFA_DC7CB8543D8F___EAID_28130BAF_B71E_41f3_9872_5CE13110F6D8 -->
<g id="edge5" class="edge"><title>EAID_8ACE6EC3_4AAA_4f76_AE29_4639B60CD0FC___EAID_3C844C76_8BB1_4158_9FFA_DC7CB8543D8F&#45;&gt;EAID_3C844C76_8BB1_4158_9FFA_DC7CB8543D8F___EAID_28130BAF_B71E_41f3_9872_5CE13110F6D8</title>
<path fill="none" stroke="black" d="M1838.79,-536.012C1838.24,-582.579 1836.25,-673.29 1829,-750 1828.22,-758.274 1827.14,-767.034 1825.96,-775.522"/>
<polygon fill="black" stroke="black" points="1822.46,-775.289 1824.49,-785.687 1829.39,-776.292 1822.46,-775.289"/>
</g>
<!-- EAID_8ACE6EC3_4AAA_4f76_AE29_4639B60CD0FC___EAID_3C844C76_8BB1_4158_9FFA_DC7CB8543D8F&#45;&gt;EAID_A78B4FEE_2FFD_4e9a_A9A3_681411A9167B -->
<g id="edge12" class="edge"><title>EAID_8ACE6EC3_4AAA_4f76_AE29_4639B60CD0FC___EAID_3C844C76_8BB1_4158_9FFA_DC7CB8543D8F&#45;&gt;EAID_A78B4FEE_2FFD_4e9a_A9A3_681411A9167B</title>
<path fill="none" stroke="black" stroke-dasharray="5,2" d="M1878.87,-471.991C1884.53,-466.9 1890.09,-461.487 1895,-456 1932.52,-414.061 1967.83,-362.441 1995.33,-318.319"/>
<polygon fill="black" stroke="black" points="1998.44,-319.945 2000.73,-309.6 1992.49,-316.261 1998.44,-319.945"/>
</g>
<!-- EAID_A3563718_4A55_47f6_8DDF_0927B57A5CA4___EAID_8ACE6EC3_4AAA_4f76_AE29_4639B60CD0FC -->
<g id="node7" class="node"><title>EAID_A3563718_4A55_47f6_8DDF_0927B57A5CA4___EAID_8ACE6EC3_4AAA_4f76_AE29_4639B60CD0FC</title>
<image xlink:href="img/activity_icon.png" width="30px" height="20px" preserveAspectRatio="xMinYMin meet" x="1629.5" y="-630"/>
<text text-anchor="start" x="1538" y="-595.8" font-family="Times New Roman,serif" font-weight="bold" font-size="14.00">Remove chosen appointment:Show</text>
<text text-anchor="start" x="1588.5" y="-581.8" font-family="Times New Roman,serif" font-weight="bold" font-size="14.00">confirmation page</text>
</g>
<!-- EAID_28130BAF_B71E_41f3_9872_5CE13110F6D8___EAID_A3563718_4A55_47f6_8DDF_0927B57A5CA4&#45;&gt;EAID_A3563718_4A55_47f6_8DDF_0927B57A5CA4___EAID_8ACE6EC3_4AAA_4f76_AE29_4639B60CD0FC -->
<g id="edge6" class="edge"><title>EAID_28130BAF_B71E_41f3_9872_5CE13110F6D8___EAID_A3563718_4A55_47f6_8DDF_0927B57A5CA4&#45;&gt;EAID_A3563718_4A55_47f6_8DDF_0927B57A5CA4___EAID_8ACE6EC3_4AAA_4f76_AE29_4639B60CD0FC</title>
<path fill="none" stroke="black" d="M1675.81,-671.796C1671.71,-663.183 1667.34,-654.015 1663.2,-645.319"/>
<polygon fill="black" stroke="black" points="1666.28,-643.641 1658.82,-636.117 1659.96,-646.651 1666.28,-643.641"/>
</g>
<!-- EAID_28130BAF_B71E_41f3_9872_5CE13110F6D8___EAID_A3563718_4A55_47f6_8DDF_0927B57A5CA4&#45;&gt;EAID_A78B4FEE_2FFD_4e9a_A9A3_681411A9167B -->
<g id="edge13" class="edge"><title>EAID_28130BAF_B71E_41f3_9872_5CE13110F6D8___EAID_A3563718_4A55_47f6_8DDF_0927B57A5CA4&#45;&gt;EAID_A78B4FEE_2FFD_4e9a_A9A3_681411A9167B</title>
<path fill="none" stroke="black" stroke-dasharray="5,2" d="M1780.73,-671.888C1838.18,-642.49 1910.98,-596.597 1956,-536 2002.99,-472.745 2026.93,-386.165 2039.02,-319.86"/>
<polygon fill="black" stroke="black" points="2042.5,-320.271 2040.78,-309.815 2035.6,-319.057 2042.5,-320.271"/>
</g>
<!-- EAID_8ACE6EC3_4AAA_4f76_AE29_4639B60CD0FC___EAID_8F88C660_075C_4346_A0C2_9623080F1A93 -->
<g id="node6" class="node"><title>EAID_8ACE6EC3_4AAA_4f76_AE29_4639B60CD0FC___EAID_8F88C660_075C_4346_A0C2_9623080F1A93</title>
<image xlink:href="img/activity_icon.png" width="30px" height="20px" preserveAspectRatio="xMinYMin meet" x="1579" y="-523"/>
<text text-anchor="start" x="1485" y="-488.8" font-family="Times New Roman,serif" font-weight="bold" font-size="14.00">Show confirmation page:Homepage</text>
</g>
<!-- EAID_8ACE6EC3_4AAA_4f76_AE29_4639B60CD0FC___EAID_8F88C660_075C_4346_A0C2_9623080F1A93&#45;&gt;EAID_81FD120F_FCA8_4f26_A54A_5E6C09FE64D0 -->
<g id="edge14" class="edge"><title>EAID_8ACE6EC3_4AAA_4f76_AE29_4639B60CD0FC___EAID_8F88C660_075C_4346_A0C2_9623080F1A93&#45;&gt;EAID_81FD120F_FCA8_4f26_A54A_5E6C09FE64D0</title>
<path fill="none" stroke="black" stroke-dasharray="5,2" d="M1474.98,-490.014C1385.67,-480.886 1260.33,-469.38 1150,-464 1127.41,-462.899 356.106,-466.347 336,-456 249.056,-411.256 195.664,-299.594 174.918,-248.181"/>
<polygon fill="black" stroke="black" points="178.121,-246.764 171.203,-238.739 171.607,-249.326 178.121,-246.764"/>
</g>
<!-- EAID_A3563718_4A55_47f6_8DDF_0927B57A5CA4___EAID_8ACE6EC3_4AAA_4f76_AE29_4639B60CD0FC&#45;&gt;EAID_8ACE6EC3_4AAA_4f76_AE29_4639B60CD0FC___EAID_3C844C76_8BB1_4158_9FFA_DC7CB8543D8F -->
<g id="edge7" class="edge"><title>EAID_A3563718_4A55_47f6_8DDF_0927B57A5CA4___EAID_8ACE6EC3_4AAA_4f76_AE29_4639B60CD0FC&#45;&gt;EAID_8ACE6EC3_4AAA_4f76_AE29_4639B60CD0FC___EAID_3C844C76_8BB1_4158_9FFA_DC7CB8543D8F</title>
<path fill="none" stroke="black" d="M1705.7,-571.992C1725.53,-562.027 1747.65,-550.91 1768.08,-540.64"/>
<polygon fill="black" stroke="black" points="1769.67,-543.76 1777.03,-536.142 1766.53,-537.506 1769.67,-543.76"/>
</g>
<!-- EAID_A3563718_4A55_47f6_8DDF_0927B57A5CA4___EAID_8ACE6EC3_4AAA_4f76_AE29_4639B60CD0FC&#45;&gt;EAID_8ACE6EC3_4AAA_4f76_AE29_4639B60CD0FC___EAID_8F88C660_075C_4346_A0C2_9623080F1A93 -->
<g id="edge8" class="edge"><title>EAID_A3563718_4A55_47f6_8DDF_0927B57A5CA4___EAID_8ACE6EC3_4AAA_4f76_AE29_4639B60CD0FC&#45;&gt;EAID_8ACE6EC3_4AAA_4f76_AE29_4639B60CD0FC___EAID_8F88C660_075C_4346_A0C2_9623080F1A93</title>
<path fill="none" stroke="black" d="M1628.18,-571.992C1622.78,-561.41 1616.72,-549.527 1611.21,-538.74"/>
<polygon fill="black" stroke="black" points="1614.21,-536.92 1606.55,-529.603 1607.98,-540.101 1614.21,-536.92"/>
</g>
<!-- EAID_A3563718_4A55_47f6_8DDF_0927B57A5CA4___EAID_8ACE6EC3_4AAA_4f76_AE29_4639B60CD0FC&#45;&gt;EAID_81FD120F_FCA8_4f26_A54A_5E6C09FE64D0 -->
<g id="edge15" class="edge"><title>EAID_A3563718_4A55_47f6_8DDF_0927B57A5CA4___EAID_8ACE6EC3_4AAA_4f76_AE29_4639B60CD0FC&#45;&gt;EAID_81FD120F_FCA8_4f26_A54A_5E6C09FE64D0</title>
<path fill="none" stroke="black" stroke-dasharray="5,2" d="M1527.15,-586.259C1319.08,-557.048 870.49,-496.76 490,-464 472.929,-462.53 351.067,-464.159 336,-456 250.017,-409.437 196.129,-298.714 175.086,-247.861"/>
<polygon fill="black" stroke="black" points="178.306,-246.488 171.316,-238.526 171.815,-249.109 178.306,-246.488"/>
</g>
<!-- EAID_E5B93D1F_5A52_4a0c_89B5_26680EF93B98___EAID_8F88C660_075C_4346_A0C2_9623080F1A93_STL -->
<g id="node8" class="node"><title>EAID_E5B93D1F_5A52_4a0c_89B5_26680EF93B98___EAID_8F88C660_075C_4346_A0C2_9623080F1A93_STL</title>
<image xlink:href="img/stimulus_icon.png" width="30px" height="20px" preserveAspectRatio="xMinYMin meet" x="1567" y="-1042.5"/>
<text text-anchor="start" x="1522" y="-1008.3" font-family="Times New Roman,serif" font-weight="bold" font-size="14.00">stl#User:Homepage</text>
</g>
<!-- EAID_E5B93D1F_5A52_4a0c_89B5_26680EF93B98___EAID_8F88C660_075C_4346_A0C2_9623080F1A93_STL&#45;&gt;EAID_E5B93D1F_5A52_4a0c_89B5_26680EF93B98___EAID_8F88C660_075C_4346_A0C2_9623080F1A93 -->
<g id="edge1" class="edge"><title>EAID_E5B93D1F_5A52_4a0c_89B5_26680EF93B98___EAID_8F88C660_075C_4346_A0C2_9623080F1A93_STL&#45;&gt;EAID_E5B93D1F_5A52_4a0c_89B5_26680EF93B98___EAID_8F88C660_075C_4346_A0C2_9623080F1A93</title>
<path fill="none" stroke="black" d="M1573.76,-997.778C1570.03,-986.58 1565.55,-973.152 1561.5,-960.985"/>
<polygon fill="black" stroke="black" points="1564.7,-959.519 1558.21,-951.139 1558.05,-961.732 1564.7,-959.519"/>
</g>
<!-- EAID_E5B93D1F_5A52_4a0c_89B5_26680EF93B98___EAID_3C844C76_8BB1_4158_9FFA_DC7CB8543D8F_STL -->
<g id="node9" class="node"><title>EAID_E5B93D1F_5A52_4a0c_89B5_26680EF93B98___EAID_3C844C76_8BB1_4158_9FFA_DC7CB8543D8F_STL</title>
<image xlink:href="img/stimulus_icon.png" width="30px" height="20px" preserveAspectRatio="xMinYMin meet" x="1787.5" y="-1042.5"/>
<text text-anchor="start" x="1681" y="-1008.3" font-family="Times New Roman,serif" font-weight="bold" font-size="14.00">stl#User:Cancel Volunteer Appointment</text>
</g>
<!-- EAID_E5B93D1F_5A52_4a0c_89B5_26680EF93B98___EAID_3C844C76_8BB1_4158_9FFA_DC7CB8543D8F_STL&#45;&gt;EAID_E5B93D1F_5A52_4a0c_89B5_26680EF93B98___EAID_3C844C76_8BB1_4158_9FFA_DC7CB8543D8F -->
<g id="edge3" class="edge"><title>EAID_E5B93D1F_5A52_4a0c_89B5_26680EF93B98___EAID_3C844C76_8BB1_4158_9FFA_DC7CB8543D8F_STL&#45;&gt;EAID_E5B93D1F_5A52_4a0c_89B5_26680EF93B98___EAID_3C844C76_8BB1_4158_9FFA_DC7CB8543D8F</title>
<path fill="none" stroke="black" d="M1806.12,-997.778C1807.97,-986.692 1810.18,-973.42 1812.19,-961.351"/>
<polygon fill="black" stroke="black" points="1815.7,-961.578 1813.89,-951.139 1808.8,-960.427 1815.7,-961.578"/>
</g>
<!-- EAID_0C96BC89_6B52_4608_B7A5_C4BD74CC0082 -->
<g id="node10" class="node"><title>EAID_0C96BC89_6B52_4608_B7A5_C4BD74CC0082</title>
<polygon fill="none" stroke="black" points="2226,-304.5 2226,-325.5 2410,-325.5 2410,-304.5 2226,-304.5"/>
<text text-anchor="start" x="2275" y="-312.3" font-family="Times New Roman,serif" font-weight="bold" font-size="14.00">Administrator</text>
<polygon fill="none" stroke="black" points="2226,-283.5 2226,-304.5 2410,-304.5 2410,-283.5 2226,-283.5"/>
<text text-anchor="start" x="2243" y="-291.3" font-family="Times New Roman,serif" font-weight="bold" font-size="14.00">EAJava_void Client List</text>
<polygon fill="none" stroke="black" points="2226,-262.5 2226,-283.5 2410,-283.5 2410,-262.5 2226,-262.5"/>
<text text-anchor="start" x="2257" y="-270.3" font-family="Times New Roman,serif" font-weight="bold" font-size="14.00">EAJava_void Email</text>
<polygon fill="none" stroke="black" points="2226,-241.5 2226,-262.5 2410,-262.5 2410,-241.5 2226,-241.5"/>
<text text-anchor="start" x="2257" y="-249.3" font-family="Times New Roman,serif" font-weight="bold" font-size="14.00">EAJava_void Name</text>
<polygon fill="none" stroke="black" points="2226,-220.5 2226,-241.5 2410,-241.5 2410,-220.5 2226,-220.5"/>
<text text-anchor="start" x="2256" y="-228.3" font-family="Times New Roman,serif" font-weight="bold" font-size="14.00">EAJava_void Phone</text>
<polygon fill="none" stroke="black" points="2226,-199.5 2226,-220.5 2410,-220.5 2410,-199.5 2226,-199.5"/>
<text text-anchor="start" x="2259.5" y="-207.3" font-family="Times New Roman,serif" font-weight="bold" font-size="14.00">EAJava_void Type</text>
<polygon fill="none" stroke="black" points="2226,-178.5 2226,-199.5 2410,-199.5 2410,-178.5 2226,-178.5"/>
<text text-anchor="start" x="2241" y="-186.3" font-family="Times New Roman,serif" font-weight="bold" font-size="14.00">EAJava_void User Name</text>
<polygon fill="none" stroke="black" points="2226,-157.5 2226,-178.5 2410,-178.5 2410,-157.5 2226,-157.5"/>
<text text-anchor="start" x="2229" y="-165.3" font-family="Times New Roman,serif" font-weight="bold" font-size="14.00">EAJava_void User Password</text>
<polygon fill="none" stroke="black" points="2226,-136.5 2226,-157.5 2410,-157.5 2410,-136.5 2226,-136.5"/>
<text text-anchor="start" x="2231.5" y="-144.3" font-family="Times New Roman,serif" font-weight="bold" font-size="14.00">EAJava_void Volunteer List</text>
<polygon fill="none" stroke="black" points="2226,-115.5 2226,-136.5 2410,-136.5 2410,-115.5 2226,-115.5"/>
<text text-anchor="start" x="2270.5" y="-123.3" font-family="Times New Roman,serif" font-weight="bold" font-size="14.00">Administrator()</text>
<polygon fill="none" stroke="black" points="2225,-114.5 2225,-326.5 2411,-326.5 2411,-114.5 2225,-114.5"/>
</g>
<!-- EAID_831A4B1C_BF7D_4b2c_A867_80745A40D54F -->
<g id="node12" class="node"><title>EAID_831A4B1C_BF7D_4b2c_A867_80745A40D54F</title>
<polygon fill="none" stroke="black" points="1820,-220.5 1820,-241.5 1877,-241.5 1877,-220.5 1820,-220.5"/>
<text text-anchor="start" x="1827.5" y="-228.3" font-family="Times New Roman,serif" font-weight="bold" font-size="14.00">Class1</text>
<polygon fill="none" stroke="black" points="1820,-199.5 1820,-220.5 1877,-220.5 1877,-199.5 1820,-199.5"/>
<text text-anchor="start" x="1823" y="-207.3" font-family="Times New Roman,serif" font-weight="bold" font-size="14.00">Class1()</text>
<polygon fill="none" stroke="black" points="1818.5,-198.5 1818.5,-242.5 1877.5,-242.5 1877.5,-198.5 1818.5,-198.5"/>
</g>
<!-- EAID_ECBA4629_6F17_47dd_9D33_DACFDEB6D318 -->
<g id="node13" class="node"><title>EAID_ECBA4629_6F17_47dd_9D33_DACFDEB6D318</title>
<polygon fill="none" stroke="black" points="1565,-272.5 1565,-293.5 1784,-293.5 1784,-272.5 1565,-272.5"/>
<text text-anchor="start" x="1656" y="-280.3" font-family="Times New Roman,serif" font-weight="bold" font-size="14.00">Client</text>
<polygon fill="none" stroke="black" points="1565,-251.5 1565,-272.5 1784,-272.5 1784,-251.5 1565,-251.5"/>
<text text-anchor="start" x="1613.5" y="-259.3" font-family="Times New Roman,serif" font-weight="bold" font-size="14.00">EAJava_void Email</text>
<polygon fill="none" stroke="black" points="1565,-230.5 1565,-251.5 1784,-251.5 1784,-230.5 1565,-230.5"/>
<text text-anchor="start" x="1568" y="-238.3" font-family="Times New Roman,serif" font-weight="bold" font-size="14.00">EAJava_void List of Appointments</text>
<polygon fill="none" stroke="black" points="1565,-209.5 1565,-230.5 1784,-230.5 1784,-209.5 1565,-209.5"/>
<text text-anchor="start" x="1613.5" y="-217.3" font-family="Times New Roman,serif" font-weight="bold" font-size="14.00">EAJava_void Name</text>
<polygon fill="none" stroke="black" points="1565,-188.5 1565,-209.5 1784,-209.5 1784,-188.5 1565,-188.5"/>
<text text-anchor="start" x="1612.5" y="-196.3" font-family="Times New Roman,serif" font-weight="bold" font-size="14.00">EAJava_void Phone</text>
<polygon fill="none" stroke="black" points="1565,-167.5 1565,-188.5 1784,-188.5 1784,-167.5 1565,-167.5"/>
<text text-anchor="start" x="1651.5" y="-175.3" font-family="Times New Roman,serif" font-weight="bold" font-size="14.00">Client()</text>
<polygon fill="none" stroke="black" points="1565,-146.5 1565,-167.5 1784,-167.5 1784,-146.5 1565,-146.5"/>
<text text-anchor="start" x="1593" y="-154.3" font-family="Times New Roman,serif" font-weight="bold" font-size="14.00">ViewClientSchedulePage()</text>
<polygon fill="none" stroke="black" points="1563.5,-146 1563.5,-295 1784.5,-295 1784.5,-146 1563.5,-146"/>
</g>
<!-- EAID_60C7CCC6_FFF7_4ada_88A6_09E32F88DCF2 -->
<g id="node14" class="node"><title>EAID_60C7CCC6_FFF7_4ada_88A6_09E32F88DCF2</title>
<polygon fill="none" stroke="black" points="1266,-398.5 1266,-419.5 1528,-419.5 1528,-398.5 1266,-398.5"/>
<text text-anchor="start" x="1363.5" y="-406.3" font-family="Times New Roman,serif" font-weight="bold" font-size="14.00">USC VITA</text>
<polygon fill="none" stroke="black" points="1266,-377.5 1266,-398.5 1528,-398.5 1528,-377.5 1266,-377.5"/>
<text text-anchor="start" x="1281.5" y="-385.3" font-family="Times New Roman,serif" font-weight="bold" font-size="14.00">EAJava_void Apply to volunteer page</text>
<polygon fill="none" stroke="black" points="1266,-356.5 1266,-377.5 1528,-377.5 1528,-356.5 1266,-356.5"/>
<text text-anchor="start" x="1278.5" y="-364.3" font-family="Times New Roman,serif" font-weight="bold" font-size="14.00">EAJava_void Before you come in page</text>
<polygon fill="none" stroke="black" points="1266,-335.5 1266,-356.5 1528,-356.5 1528,-335.5 1266,-335.5"/>
<text text-anchor="start" x="1311" y="-343.3" font-family="Times New Roman,serif" font-weight="bold" font-size="14.00">EAJava_void Email us page</text>
<polygon fill="none" stroke="black" points="1266,-314.5 1266,-335.5 1528,-335.5 1528,-314.5 1266,-314.5"/>
<text text-anchor="start" x="1291.5" y="-322.3" font-family="Times New Roman,serif" font-weight="bold" font-size="14.00">EAJava_void Event calendar page</text>
<polygon fill="none" stroke="black" points="1266,-293.5 1266,-314.5 1528,-314.5 1528,-293.5 1266,-293.5"/>
<text text-anchor="start" x="1290" y="-301.3" font-family="Times New Roman,serif" font-weight="bold" font-size="14.00">EAJava_void FAQs for client page</text>
<polygon fill="none" stroke="black" points="1266,-272.5 1266,-293.5 1528,-293.5 1528,-272.5 1266,-272.5"/>
<text text-anchor="start" x="1278" y="-280.3" font-family="Times New Roman,serif" font-weight="bold" font-size="14.00">EAJava_void FAQs for volunteer page</text>
<polygon fill="none" stroke="black" points="1266,-251.5 1266,-272.5 1528,-272.5 1528,-251.5 1266,-251.5"/>
<text text-anchor="start" x="1293" y="-259.3" font-family="Times New Roman,serif" font-weight="bold" font-size="14.00">EAJava_void General FAQs page</text>
<polygon fill="none" stroke="black" points="1266,-230.5 1266,-251.5 1528,-251.5 1528,-230.5 1266,-230.5"/>
<text text-anchor="start" x="1272" y="-238.3" font-family="Times New Roman,serif" font-weight="bold" font-size="14.00">EAJava_void History of USC VITA page</text>
<polygon fill="none" stroke="black" points="1266,-209.5 1266,-230.5 1528,-230.5 1528,-209.5 1266,-209.5"/>
<text text-anchor="start" x="1318.5" y="-217.3" font-family="Times New Roman,serif" font-weight="bold" font-size="14.00">EAJava_void Hours page</text>
<polygon fill="none" stroke="black" points="1266,-188.5 1266,-209.5 1528,-209.5 1528,-188.5 1266,-188.5"/>
<text text-anchor="start" x="1310.5" y="-196.3" font-family="Times New Roman,serif" font-weight="bold" font-size="14.00">EAJava_void Location page</text>
<polygon fill="none" stroke="black" points="1266,-167.5 1266,-188.5 1528,-188.5 1528,-167.5 1266,-167.5"/>
<text text-anchor="start" x="1270.5" y="-175.3" font-family="Times New Roman,serif" font-weight="bold" font-size="14.00">EAJava_void Make an appointment page</text>
<polygon fill="none" stroke="black" points="1266,-146.5 1266,-167.5 1528,-167.5 1528,-146.5 1266,-146.5"/>
<text text-anchor="start" x="1312.5" y="-154.3" font-family="Times New Roman,serif" font-weight="bold" font-size="14.00">EAJava_void Sponsor page</text>
<polygon fill="none" stroke="black" points="1266,-125.5 1266,-146.5 1528,-146.5 1528,-125.5 1266,-125.5"/>
<text text-anchor="start" x="1287" y="-133.3" font-family="Times New Roman,serif" font-weight="bold" font-size="14.00">EAJava_void Training session page</text>
<polygon fill="none" stroke="black" points="1266,-104.5 1266,-125.5 1528,-125.5 1528,-104.5 1266,-104.5"/>
<text text-anchor="start" x="1269" y="-112.3" font-family="Times New Roman,serif" font-weight="bold" font-size="14.00">EAJava_void USC VITA Committee page</text>
<polygon fill="none" stroke="black" points="1266,-83.5 1266,-104.5 1528,-104.5 1528,-83.5 1266,-83.5"/>
<text text-anchor="start" x="1279.5" y="-91.3" font-family="Times New Roman,serif" font-weight="bold" font-size="14.00">EAJava_void Volunteer schedule page</text>
<polygon fill="none" stroke="black" points="1266,-62.5 1266,-83.5 1528,-83.5 1528,-62.5 1266,-62.5"/>
<text text-anchor="start" x="1309" y="-70.3" font-family="Times New Roman,serif" font-weight="bold" font-size="14.00">EAJava_void Welcome page</text>
<polygon fill="none" stroke="black" points="1266,-41.5 1266,-62.5 1528,-62.5 1528,-41.5 1266,-41.5"/>
<text text-anchor="start" x="1293" y="-49.3" font-family="Times New Roman,serif" font-weight="bold" font-size="14.00">EAJava_void Why volunteer page</text>
<polygon fill="none" stroke="black" points="1266,-20.5 1266,-41.5 1528,-41.5 1528,-20.5 1266,-20.5"/>
<text text-anchor="start" x="1360.5" y="-28.3" font-family="Times New Roman,serif" font-weight="bold" font-size="14.00">USCVITA()</text>
<polygon fill="none" stroke="black" points="1265,-20 1265,-421 1529,-421 1529,-20 1265,-20"/>
</g>
<!-- EAID_9B870FC5_46DF_4fdf_8BB2_5FA6FE1CEEF7 -->
<g id="node15" class="node"><title>EAID_9B870FC5_46DF_4fdf_8BB2_5FA6FE1CEEF7</title>
<polygon fill="none" stroke="black" points="1011,-262.5 1011,-283.5 1230,-283.5 1230,-262.5 1011,-262.5"/>
<text text-anchor="start" x="1090" y="-270.3" font-family="Times New Roman,serif" font-weight="bold" font-size="14.00">Volunteer</text>
<polygon fill="none" stroke="black" points="1011,-241.5 1011,-262.5 1230,-262.5 1230,-241.5 1011,-241.5"/>
<text text-anchor="start" x="1059.5" y="-249.3" font-family="Times New Roman,serif" font-weight="bold" font-size="14.00">EAJava_void Email</text>
<polygon fill="none" stroke="black" points="1011,-220.5 1011,-241.5 1230,-241.5 1230,-220.5 1011,-220.5"/>
<text text-anchor="start" x="1014" y="-228.3" font-family="Times New Roman,serif" font-weight="bold" font-size="14.00">EAJava_void List of Appointments</text>
<polygon fill="none" stroke="black" points="1011,-199.5 1011,-220.5 1230,-220.5 1230,-199.5 1011,-199.5"/>
<text text-anchor="start" x="1059.5" y="-207.3" font-family="Times New Roman,serif" font-weight="bold" font-size="14.00">EAJava_void Name</text>
<polygon fill="none" stroke="black" points="1011,-178.5 1011,-199.5 1230,-199.5 1230,-178.5 1011,-178.5"/>
<text text-anchor="start" x="1058.5" y="-186.3" font-family="Times New Roman,serif" font-weight="bold" font-size="14.00">EAJava_void Phone</text>
<polygon fill="none" stroke="black" points="1011,-157.5 1011,-178.5 1230,-178.5 1230,-157.5 1011,-157.5"/>
<text text-anchor="start" x="1085.5" y="-165.3" font-family="Times New Roman,serif" font-weight="bold" font-size="14.00">Volunteer()</text>
<polygon fill="none" stroke="black" points="1009.5,-156.5 1009.5,-284.5 1230.5,-284.5 1230.5,-156.5 1009.5,-156.5"/>
</g>
<!-- EAID_592DC096_1167_44d2_99F7_64B7108A3BF6 -->
<g id="node16" class="node"><title>EAID_592DC096_1167_44d2_99F7_64B7108A3BF6</title>
<polygon fill="none" stroke="black" points="780,-272.5 780,-293.5 974,-293.5 974,-272.5 780,-272.5"/>
<text text-anchor="start" x="810" y="-280.3" font-family="Times New Roman,serif" font-weight="bold" font-size="14.00">Volunteer Application</text>
<polygon fill="none" stroke="black" points="780,-251.5 780,-272.5 974,-272.5 974,-251.5 780,-251.5"/>
<text text-anchor="start" x="806.5" y="-259.3" font-family="Times New Roman,serif" font-weight="bold" font-size="14.00">EAJava_void Contents</text>
<polygon fill="none" stroke="black" points="780,-230.5 780,-251.5 974,-251.5 974,-230.5 780,-230.5"/>
<text text-anchor="start" x="794" y="-238.3" font-family="Times New Roman,serif" font-weight="bold" font-size="14.00">EAJava_void Service Time</text>
<polygon fill="none" stroke="black" points="780,-209.5 780,-230.5 974,-230.5 974,-209.5 780,-209.5"/>
<text text-anchor="start" x="784" y="-217.3" font-family="Times New Roman,serif" font-weight="bold" font-size="14.00">EAJava_void Volunteer Email</text>
<polygon fill="none" stroke="black" points="780,-188.5 780,-209.5 974,-209.5 974,-188.5 780,-188.5"/>
<text text-anchor="start" x="784" y="-196.3" font-family="Times New Roman,serif" font-weight="bold" font-size="14.00">EAJava_void Volunteer Name</text>
<polygon fill="none" stroke="black" points="780,-167.5 780,-188.5 974,-188.5 974,-167.5 780,-167.5"/>
<text text-anchor="start" x="783" y="-175.3" font-family="Times New Roman,serif" font-weight="bold" font-size="14.00">EAJava_void Volunteer Phone</text>
<polygon fill="none" stroke="black" points="780,-146.5 780,-167.5 974,-167.5 974,-146.5 780,-146.5"/>
<text text-anchor="start" x="807.5" y="-154.3" font-family="Times New Roman,serif" font-weight="bold" font-size="14.00">VolunteerApplication()</text>
<polygon fill="none" stroke="black" points="779,-146 779,-295 975,-295 975,-146 779,-146"/>
</g>
<!-- EAID_DA6BD147_8E8D_418b_BD8C_0825DD9D7A63 -->
<g id="node17" class="node"><title>EAID_DA6BD147_8E8D_418b_BD8C_0825DD9D7A63</title>
<polygon fill="none" stroke="black" points="551,-230.5 551,-251.5 744,-251.5 744,-230.5 551,-230.5"/>
<text text-anchor="start" x="558.5" y="-238.3" font-family="Times New Roman,serif" font-weight="bold" font-size="14.00">Checkallrequiredinformation</text>
<polygon fill="none" stroke="black" points="551,-209.5 551,-230.5 744,-230.5 744,-209.5 551,-209.5"/>
<text text-anchor="start" x="554" y="-217.3" font-family="Times New Roman,serif" font-weight="bold" font-size="14.00">Checkallrequiredinformation()</text>
<polygon fill="none" stroke="black" points="551,-188.5 551,-209.5 744,-209.5 744,-188.5 551,-188.5"/>
<text text-anchor="start" x="572" y="-196.3" font-family="Times New Roman,serif" font-weight="bold" font-size="14.00">Showconfirmationpage()</text>
<polygon fill="none" stroke="black" points="549.5,-188 549.5,-253 744.5,-253 744.5,-188 549.5,-188"/>
</g>
<!-- EAID_32226C82_3719_4a32_9589_722D9C8649E1 -->
<g id="node18" class="node"><title>EAID_32226C82_3719_4a32_9589_722D9C8649E1</title>
<polygon fill="none" stroke="black" points="358,-230.5 358,-251.5 515,-251.5 515,-230.5 358,-230.5"/>
<text text-anchor="start" x="403.5" y="-238.3" font-family="Times New Roman,serif" font-weight="bold" font-size="14.00">Homepage</text>
<polygon fill="none" stroke="black" points="358,-209.5 358,-230.5 515,-230.5 515,-209.5 358,-209.5"/>
<text text-anchor="start" x="399" y="-217.3" font-family="Times New Roman,serif" font-weight="bold" font-size="14.00">Homepage()</text>
<polygon fill="none" stroke="black" points="358,-188.5 358,-209.5 515,-209.5 515,-188.5 358,-188.5"/>
<text text-anchor="start" x="361" y="-196.3" font-family="Times New Roman,serif" font-weight="bold" font-size="14.00">Showconfirmationpage()</text>
<polygon fill="none" stroke="black" points="356.5,-188 356.5,-253 515.5,-253 515.5,-188 356.5,-188"/>
</g>
</g>
</svg>
