<?xml version="1.0" encoding="UTF-8" standalone="no"?>
<!DOCTYPE svg PUBLIC "-//W3C//DTD SVG 1.1//EN"
 "http://www.w3.org/Graphics/SVG/1.1/DTD/svg11.dtd">
<!-- Generated by graphviz version 2.38.0 (20140413.2041)
 -->
<!-- Title: g Pages: 1 -->
<svg width="1357pt" height="599pt"
 viewBox="0.00 0.00 1357.00 599.24" xmlns="http://www.w3.org/2000/svg" xmlns:xlink="http://www.w3.org/1999/xlink">
<g id="graph0" class="graph" transform="scale(1 1) rotate(0) translate(4 595.235)">
<title>g</title>
<polygon fill="white" stroke="none" points="-4,4 -4,-595.235 1353,-595.235 1353,4 -4,4"/>
<!-- EAID_852E56EF_DD57_463f_BFBA_B0286B21CA0A -->
<g id="node1" class="node"><title>EAID_852E56EF_DD57_463f_BFBA_B0286B21CA0A</title>
<image xlink:href="img/actor1.png" width="61px" height="90px" preserveAspectRatio="xMinYMin meet" x="10.5" y="-270.122"/>
<text text-anchor="start" x="19" y="-156.922" font-family="Times New Roman,serif" font-size="24.00">User</text>
</g>
<!-- EAID_1AD02B4E_0695_4833_836F_292AC6399D3E -->
<g id="node2" class="node"><title>EAID_1AD02B4E_0695_4833_836F_292AC6399D3E</title>
<image xlink:href="img/boundary3.png" width="115px" height="67px" preserveAspectRatio="xMinYMin meet" x="219" y="-443.122"/>
<text text-anchor="start" x="153" y="-352.922" font-family="Times New Roman,serif" font-size="24.00">a list of accessible spheres</text>
</g>
<!-- EAID_852E56EF_DD57_463f_BFBA_B0286B21CA0A&#45;&gt;EAID_1AD02B4E_0695_4833_836F_292AC6399D3E -->
<g id="edge1" class="edge"><title>EAID_852E56EF_DD57_463f_BFBA_B0286B21CA0A&#45;&gt;EAID_1AD02B4E_0695_4833_836F_292AC6399D3E</title>
<path fill="none" stroke="black" d="M81.2338,-243.756C92.7029,-253.334 105.285,-263.718 117,-273.122 142.117,-293.287 169.822,-314.89 194.925,-334.23"/>
<polygon fill="black" stroke="black" points="192.918,-337.101 202.978,-340.425 197.186,-331.553 192.918,-337.101"/>
</g>
<!-- EAID_597CD3BF_D3F1_4a2c_B343_BD7C2FACB834 -->
<g id="node3" class="node"><title>EAID_597CD3BF_D3F1_4a2c_B343_BD7C2FACB834</title>
<image xlink:href="img/boundary3.png" width="115px" height="67px" preserveAspectRatio="xMinYMin meet" x="1206.5" y="-335.122"/>
<text text-anchor="start" x="1194.5" y="-244.922" font-family="Times New Roman,serif" font-size="24.00">2D polar chart</text>
</g>
<!-- EAID_852E56EF_DD57_463f_BFBA_B0286B21CA0A&#45;&gt;EAID_597CD3BF_D3F1_4a2c_B343_BD7C2FACB834 -->
<g id="edge2" class="edge"><title>EAID_852E56EF_DD57_463f_BFBA_B0286B21CA0A&#45;&gt;EAID_597CD3BF_D3F1_4a2c_B343_BD7C2FACB834</title>
<path fill="none" stroke="black" d="M81.3452,-168.09C92.033,-159.281 104.204,-151.147 117,-146.122 223.044,-104.484 1044.4,-61.3589 1142,-120.122 1171.3,-137.761 1158.78,-159.836 1178,-188.122 1186.31,-200.348 1195.88,-212.789 1205.54,-224.537"/>
<polygon fill="black" stroke="black" points="1203.13,-227.112 1212.22,-232.549 1208.5,-222.628 1203.13,-227.112"/>
</g>
<!-- EAID_E8A84930_D0FD_45c9_887D_D3107C3E2B34 -->
<g id="node4" class="node"><title>EAID_E8A84930_D0FD_45c9_887D_D3107C3E2B34</title>
<image xlink:href="img/boundary3.png" width="115px" height="67px" preserveAspectRatio="xMinYMin meet" x="218.5" y="-258.122"/>
<text text-anchor="start" x="127" y="-167.922" font-family="Times New Roman,serif" font-size="24.00">List of usrs with specific sphere</text>
</g>
<!-- EAID_852E56EF_DD57_463f_BFBA_B0286B21CA0A&#45;&gt;EAID_E8A84930_D0FD_45c9_887D_D3107C3E2B34 -->
<g id="edge3" class="edge"><title>EAID_852E56EF_DD57_463f_BFBA_B0286B21CA0A&#45;&gt;EAID_E8A84930_D0FD_45c9_887D_D3107C3E2B34</title>
<path fill="none" stroke="black" d="M81.1101,-210.122C88.8499,-210.122 97.4083,-210.122 106.491,-210.122"/>
<polygon fill="black" stroke="black" points="106.538,-213.623 116.538,-210.122 106.538,-206.623 106.538,-213.623"/>
</g>
<!-- EAID_43339986_0249_4346_BEF7_63A47B9AC7DF -->
<g id="node5" class="node"><title>EAID_43339986_0249_4346_BEF7_63A47B9AC7DF</title>
<image xlink:href="img/boundary3.png" width="115px" height="67px" preserveAspectRatio="xMinYMin meet" x="1206.5" y="-173.122"/>
<text text-anchor="start" x="1188.5" y="-82.9224" font-family="Times New Roman,serif" font-size="24.00">success message</text>
</g>
<!-- EAID_852E56EF_DD57_463f_BFBA_B0286B21CA0A&#45;&gt;EAID_43339986_0249_4346_BEF7_63A47B9AC7DF -->
<g id="edge4" class="edge"><title>EAID_852E56EF_DD57_463f_BFBA_B0286B21CA0A&#45;&gt;EAID_43339986_0249_4346_BEF7_63A47B9AC7DF</title>
<path fill="none" stroke="black" d="M74.2595,-143.9C85.5177,-127.809 99.7352,-112.539 117,-103.122 464.01,86.1493 962.527,-31.6809 1168.24,-93.8847"/>
<polygon fill="black" stroke="black" points="1167.23,-97.2348 1177.81,-96.8033 1169.27,-90.539 1167.23,-97.2348"/>
</g>
<!-- EAID_C6B92E40_4AEA_4e04_B47A_76037CE2D458 -->
<g id="node6" class="node"><title>EAID_C6B92E40_4AEA_4e04_B47A_76037CE2D458</title>
<image xlink:href="img/boundary3.png" width="115px" height="67px" preserveAspectRatio="xMinYMin meet" x="922.5" y="-583.122"/>
<text text-anchor="start" x="906.5" y="-492.922" font-family="Times New Roman,serif" font-size="24.00">textual message</text>
</g>
<!-- EAID_852E56EF_DD57_463f_BFBA_B0286B21CA0A&#45;&gt;EAID_C6B92E40_4AEA_4e04_B47A_76037CE2D458 -->
<g id="edge5" class="edge"><title>EAID_852E56EF_DD57_463f_BFBA_B0286B21CA0A&#45;&gt;EAID_C6B92E40_4AEA_4e04_B47A_76037CE2D458</title>
<path fill="none" stroke="black" d="M42.19,-276.321C46.6498,-334.063 63.0035,-415.261 117,-459.122 340.788,-640.904 713.562,-592.742 885.906,-557.315"/>
<polygon fill="black" stroke="black" points="886.64,-560.738 895.714,-555.268 885.21,-553.885 886.64,-560.738"/>
</g>
<!-- EAID_B5C3DF2B_447A_44c8_B3A9_0EEB29A093CD -->
<g id="node9" class="node"><title>EAID_B5C3DF2B_447A_44c8_B3A9_0EEB29A093CD</title>
<image xlink:href="img/control1.png" width="106px" height="75px" preserveAspectRatio="xMinYMin meet" x="573" y="-470.122"/>
<text text-anchor="start" x="481" y="-371.922" font-family="Times New Roman,serif" font-size="24.00">query for the latest sphere data</text>
</g>
<!-- EAID_1AD02B4E_0695_4833_836F_292AC6399D3E&#45;&gt;EAID_B5C3DF2B_447A_44c8_B3A9_0EEB29A093CD -->
<g id="edge9" class="edge"><title>EAID_1AD02B4E_0695_4833_836F_292AC6399D3E&#45;&gt;EAID_B5C3DF2B_447A_44c8_B3A9_0EEB29A093CD</title>
<path fill="none" stroke="black" d="M409.557,-403.883C426.336,-404.992 443.661,-406.137 460.857,-407.274"/>
<polygon fill="black" stroke="black" points="460.753,-410.775 470.962,-407.942 461.215,-403.79 460.753,-410.775"/>
</g>
<!-- EAID_CA54F119_2AF1_44ee_B596_AB9907E765CD -->
<g id="node7" class="node"><title>EAID_CA54F119_2AF1_44ee_B596_AB9907E765CD</title>
<image xlink:href="img/control1.png" width="106px" height="75px" preserveAspectRatio="xMinYMin meet" x="927" y="-375.122"/>
<text text-anchor="start" x="881.5" y="-276.922" font-family="Times New Roman,serif" font-size="24.00">render 2D polar chat</text>
</g>
<!-- EAID_E8A84930_D0FD_45c9_887D_D3107C3E2B34&#45;&gt;EAID_CA54F119_2AF1_44ee_B596_AB9907E765CD -->
<g id="edge8" class="edge"><title>EAID_E8A84930_D0FD_45c9_887D_D3107C3E2B34&#45;&gt;EAID_CA54F119_2AF1_44ee_B596_AB9907E765CD</title>
<path fill="none" stroke="black" d="M435.034,-257.202C447.149,-260.113 459.237,-262.799 471,-265.122 603.188,-291.234 757.238,-306.782 860.634,-315.107"/>
<polygon fill="black" stroke="black" points="860.546,-318.611 870.792,-315.915 861.1,-311.633 860.546,-318.611"/>
</g>
<!-- EAID_8799D3A5_6632_4b5a_B5F6_2878AA401727 -->
<g id="node8" class="node"><title>EAID_8799D3A5_6632_4b5a_B5F6_2878AA401727</title>
<image xlink:href="img/control1.png" width="106px" height="75px" preserveAspectRatio="xMinYMin meet" x="573.5" y="-250.122"/>
<text text-anchor="start" x="527" y="-151.922" font-family="Times New Roman,serif" font-size="24.00">add association in db</text>
</g>
<!-- EAID_E8A84930_D0FD_45c9_887D_D3107C3E2B34&#45;&gt;EAID_8799D3A5_6632_4b5a_B5F6_2878AA401727 -->
<g id="edge7" class="edge"><title>EAID_E8A84930_D0FD_45c9_887D_D3107C3E2B34&#45;&gt;EAID_8799D3A5_6632_4b5a_B5F6_2878AA401727</title>
<path fill="none" stroke="black" d="M435.217,-204.667C459.146,-203.842 483.478,-203.003 506.38,-202.213"/>
<polygon fill="black" stroke="black" points="506.574,-205.708 516.448,-201.866 506.333,-198.712 506.574,-205.708"/>
</g>
<!-- EAID_CA54F119_2AF1_44ee_B596_AB9907E765CD&#45;&gt;EAID_597CD3BF_D3F1_4a2c_B343_BD7C2FACB834 -->
<g id="edge6" class="edge"><title>EAID_CA54F119_2AF1_44ee_B596_AB9907E765CD&#45;&gt;EAID_597CD3BF_D3F1_4a2c_B343_BD7C2FACB834</title>
<path fill="none" stroke="black" d="M1088.32,-309.358C1116.45,-305.768 1146.44,-301.939 1173.47,-298.488"/>
<polygon fill="black" stroke="black" points="1174.2,-301.923 1183.67,-297.185 1173.31,-294.98 1174.2,-301.923"/>
</g>
<!-- EAID_C2287869_A9F6_42c1_89FA_0FBF3B8973F9 -->
<g id="node10" class="node"><title>EAID_C2287869_A9F6_42c1_89FA_0FBF3B8973F9</title>
<image xlink:href="img/control1.png" width="106px" height="75px" preserveAspectRatio="xMinYMin meet" x="927" y="-240.122"/>
<text text-anchor="start" x="827.5" y="-141.922" font-family="Times New Roman,serif" font-size="24.00">sends notification to second user</text>
</g>
<!-- EAID_8799D3A5_6632_4b5a_B5F6_2878AA401727&#45;&gt;EAID_C2287869_A9F6_42c1_89FA_0FBF3B8973F9 -->
<g id="edge10" class="edge"><title>EAID_8799D3A5_6632_4b5a_B5F6_2878AA401727&#45;&gt;EAID_C2287869_A9F6_42c1_89FA_0FBF3B8973F9</title>
<path fill="none" stroke="black" d="M735.81,-195.027C758.404,-194.384 782.733,-193.692 806.956,-193.003"/>
<polygon fill="black" stroke="black" points="807.061,-196.501 816.958,-192.718 806.862,-189.504 807.061,-196.501"/>
</g>
<!-- EAID_B5C3DF2B_447A_44c8_B3A9_0EEB29A093CD&#45;&gt;EAID_C6B92E40_4AEA_4e04_B47A_76037CE2D458 -->
<g id="edge13" class="edge"><title>EAID_B5C3DF2B_447A_44c8_B3A9_0EEB29A093CD&#45;&gt;EAID_C6B92E40_4AEA_4e04_B47A_76037CE2D458</title>
<path fill="none" stroke="black" d="M781.173,-469.44C816.947,-481.348 853.931,-493.659 886.077,-504.359"/>
<polygon fill="black" stroke="black" points="885.297,-507.788 895.891,-507.625 887.508,-501.146 885.297,-507.788"/>
</g>
<!-- EAID_B5C3DF2B_447A_44c8_B3A9_0EEB29A093CD&#45;&gt;EAID_CA54F119_2AF1_44ee_B596_AB9907E765CD -->
<g id="edge12" class="edge"><title>EAID_B5C3DF2B_447A_44c8_B3A9_0EEB29A093CD&#45;&gt;EAID_CA54F119_2AF1_44ee_B596_AB9907E765CD</title>
<path fill="none" stroke="black" d="M781.173,-376.454C807.998,-369.204 835.503,-361.77 861.138,-354.842"/>
<polygon fill="black" stroke="black" points="862.126,-358.2 870.867,-352.213 860.3,-351.443 862.126,-358.2"/>
</g>
<!-- EAID_03F3E7CD_05DD_4588_A1A9_697642591D1A -->
<g id="node11" class="node"><title>EAID_03F3E7CD_05DD_4588_A1A9_697642591D1A</title>
<image xlink:href="img/activity_icon.png" width="30px" height="20px" preserveAspectRatio="xMinYMin meet" x="964.5" y="-456.122"/>
<text text-anchor="start" x="919.5" y="-413.922" font-family="Times New Roman,serif" font-weight="bold" font-size="24.00">sphere data</text>
</g>
<!-- EAID_B5C3DF2B_447A_44c8_B3A9_0EEB29A093CD&#45;&gt;EAID_03F3E7CD_05DD_4588_A1A9_697642591D1A -->
<g id="edge11" class="edge"><title>EAID_B5C3DF2B_447A_44c8_B3A9_0EEB29A093CD&#45;&gt;EAID_03F3E7CD_05DD_4588_A1A9_697642591D1A</title>
<path fill="none" stroke="black" d="M781.173,-423.824C821.97,-425.333 864.341,-426.9 899.314,-428.194"/>
<polygon fill="black" stroke="black" points="899.324,-431.696 909.446,-428.569 899.583,-424.701 899.324,-431.696"/>
</g>
<!-- EAID_C2287869_A9F6_42c1_89FA_0FBF3B8973F9&#45;&gt;EAID_43339986_0249_4346_BEF7_63A47B9AC7DF -->
<g id="edge14" class="edge"><title>EAID_C2287869_A9F6_42c1_89FA_0FBF3B8973F9&#45;&gt;EAID_43339986_0249_4346_BEF7_63A47B9AC7DF</title>
<path fill="none" stroke="black" d="M1142.09,-152.023C1150.93,-150.047 1159.67,-148.095 1168.15,-146.201"/>
<polygon fill="black" stroke="black" points="1168.98,-149.601 1177.98,-144.004 1167.46,-142.769 1168.98,-149.601"/>
</g>
</g>
</svg>
