<?xml version="1.0" encoding="UTF-8" standalone="no"?>
<!DOCTYPE svg PUBLIC "-//W3C//DTD SVG 1.1//EN"
 "http://www.w3.org/Graphics/SVG/1.1/DTD/svg11.dtd">
<!-- Generated by graphviz version 2.38.0 (20140413.2041)
 -->
<!-- Title: g Pages: 1 -->
<svg width="2473pt" height="698pt"
 viewBox="0.00 0.00 2473.00 698.00" xmlns="http://www.w3.org/2000/svg" xmlns:xlink="http://www.w3.org/1999/xlink">
<g id="graph0" class="graph" transform="scale(1 1) rotate(0) translate(4 694)">
<title>g</title>
<polygon fill="white" stroke="none" points="-4,4 -4,-694 2469,-694 2469,4 -4,4"/>
<g id="clust1" class="cluster"><title>cluster0</title>
<polygon fill="none" stroke="black" stroke-width="2" points="1916,-254 1916,-571 2104,-571 2104,-254 1916,-254"/>
<text text-anchor="start" x="1988" y="-556.8" font-family="Times New Roman,serif" font-weight="bold" font-size="14.00">System</text>
</g>
<g id="clust3" class="cluster"><title>cluster1000</title>
<polygon fill="none" stroke="black" stroke-width="2" points="8,-8 8,-246 2457,-246 2457,-8 8,-8"/>
<text text-anchor="start" x="1187" y="-231.8" font-family="Times New Roman,serif" font-weight="bold" font-size="14.00">Domain Model</text>
</g>
<g id="clust2" class="cluster"><title>cluster1</title>
<polygon fill="none" stroke="black" stroke-width="2" points="1944,-579 1944,-682 2102,-682 2102,-579 1944,-579"/>
<text text-anchor="start" x="2008.5" y="-667.8" font-family="Times New Roman,serif" font-weight="bold" font-size="14.00">User</text>
</g>
<!-- EAID_6E7F2543_B428_47b6_8E99_22D5EEB24DBA___EAID_A780FA0B_D4FC_4b34_9347_017A41C5D0ED -->
<g id="node1" class="node"><title>EAID_6E7F2543_B428_47b6_8E99_22D5EEB24DBA___EAID_A780FA0B_D4FC_4b34_9347_017A41C5D0ED</title>
<image xlink:href="img/activity_icon.png" width="30px" height="20px" preserveAspectRatio="xMinYMin meet" x="2008" y="-534"/>
<text text-anchor="start" x="1973" y="-499.8" font-family="Times New Roman,serif" font-weight="bold" font-size="14.00">User:add to cart</text>
<text text-anchor="start" x="2003" y="-485.8" font-family="Times New Roman,serif" font-weight="bold" font-size="14.00">button</text>
</g>
<!-- EAID_A780FA0B_D4FC_4b34_9347_017A41C5D0ED___EAID_82000729_A2A2_47ff_B71D_E63328BCAED8 -->
<g id="node2" class="node"><title>EAID_A780FA0B_D4FC_4b34_9347_017A41C5D0ED___EAID_82000729_A2A2_47ff_B71D_E63328BCAED8</title>
<image xlink:href="img/activity_icon.png" width="30px" height="20px" preserveAspectRatio="xMinYMin meet" x="1995.5" y="-434"/>
<text text-anchor="start" x="1977" y="-399.8" font-family="Times New Roman,serif" font-weight="bold" font-size="14.00">add to cart</text>
<text text-anchor="start" x="1935" y="-385.8" font-family="Times New Roman,serif" font-weight="bold" font-size="14.00">button:adding product in</text>
<text text-anchor="start" x="1979" y="-371.8" font-family="Times New Roman,serif" font-weight="bold" font-size="14.00">buying list</text>
</g>
<!-- EAID_6E7F2543_B428_47b6_8E99_22D5EEB24DBA___EAID_A780FA0B_D4FC_4b34_9347_017A41C5D0ED&#45;&gt;EAID_A780FA0B_D4FC_4b34_9347_017A41C5D0ED___EAID_82000729_A2A2_47ff_B71D_E63328BCAED8 -->
<g id="edge1" class="edge"><title>EAID_6E7F2543_B428_47b6_8E99_22D5EEB24DBA___EAID_A780FA0B_D4FC_4b34_9347_017A41C5D0ED&#45;&gt;EAID_A780FA0B_D4FC_4b34_9347_017A41C5D0ED___EAID_82000729_A2A2_47ff_B71D_E63328BCAED8</title>
<path fill="none" stroke="black" d="M2019.13,-475.781C2018.14,-467.786 2017.06,-458.999 2015.99,-450.362"/>
<polygon fill="black" stroke="black" points="2019.45,-449.843 2014.75,-440.348 2012.5,-450.703 2019.45,-449.843"/>
</g>
<!-- EAID_A780FA0B_D4FC_4b34_9347_017A41C5D0ED -->
<g id="node18" class="node"><title>EAID_A780FA0B_D4FC_4b34_9347_017A41C5D0ED</title>
<text text-anchor="middle" x="2281" y="-397.3" font-family="Times New Roman,serif" font-size="14.00">EAID_A780FA0B_D4FC_4b34_9347_017A41C5D0ED</text>
</g>
<!-- EAID_6E7F2543_B428_47b6_8E99_22D5EEB24DBA___EAID_A780FA0B_D4FC_4b34_9347_017A41C5D0ED&#45;&gt;EAID_A780FA0B_D4FC_4b34_9347_017A41C5D0ED -->
<g id="edge4" class="edge"><title>EAID_6E7F2543_B428_47b6_8E99_22D5EEB24DBA___EAID_A780FA0B_D4FC_4b34_9347_017A41C5D0ED&#45;&gt;EAID_A780FA0B_D4FC_4b34_9347_017A41C5D0ED</title>
<path fill="none" stroke="black" stroke-dasharray="5,2" d="M2083.16,-482.515C2127.51,-464.468 2187.2,-440.176 2229.38,-423.009"/>
<polygon fill="black" stroke="black" points="2230.96,-426.145 2238.9,-419.133 2228.32,-419.661 2230.96,-426.145"/>
</g>
<!-- EAID_82000729_A2A2_47ff_B71D_E63328BCAED8___EAID_C6B90EBA_14A7_494c_97F6_1C9B1722CC99 -->
<g id="node3" class="node"><title>EAID_82000729_A2A2_47ff_B71D_E63328BCAED8___EAID_C6B90EBA_14A7_494c_97F6_1C9B1722CC99</title>
<image xlink:href="img/activity_icon.png" width="30px" height="20px" preserveAspectRatio="xMinYMin meet" x="1990.5" y="-320"/>
<text text-anchor="start" x="1951.5" y="-285.8" font-family="Times New Roman,serif" font-weight="bold" font-size="14.00">adding product in</text>
<text text-anchor="start" x="1941" y="-271.8" font-family="Times New Roman,serif" font-weight="bold" font-size="14.00">buying list:buying list</text>
</g>
<!-- EAID_A780FA0B_D4FC_4b34_9347_017A41C5D0ED___EAID_82000729_A2A2_47ff_B71D_E63328BCAED8&#45;&gt;EAID_82000729_A2A2_47ff_B71D_E63328BCAED8___EAID_C6B90EBA_14A7_494c_97F6_1C9B1722CC99 -->
<g id="edge3" class="edge"><title>EAID_A780FA0B_D4FC_4b34_9347_017A41C5D0ED___EAID_82000729_A2A2_47ff_B71D_E63328BCAED8&#45;&gt;EAID_82000729_A2A2_47ff_B71D_E63328BCAED8___EAID_C6B90EBA_14A7_494c_97F6_1C9B1722CC99</title>
<path fill="none" stroke="black" d="M2008.18,-361.796C2007.78,-353.458 2007.36,-344.6 2006.96,-336.153"/>
<polygon fill="black" stroke="black" points="2010.45,-335.939 2006.48,-326.117 2003.46,-336.272 2010.45,-335.939"/>
</g>
<!-- EAID_B34D9D03_AEE7_46e0_946B_5B2866E143B3 -->
<g id="node6" class="node"><title>EAID_B34D9D03_AEE7_46e0_946B_5B2866E143B3</title>
<polygon fill="none" stroke="black" points="2098,-146.5 2098,-167.5 2272,-167.5 2272,-146.5 2098,-146.5"/>
<text text-anchor="start" x="2144" y="-154.3" font-family="Times New Roman,serif" font-weight="bold" font-size="14.00">Buyer Profile</text>
<polygon fill="none" stroke="black" points="2098,-125.5 2098,-146.5 2272,-146.5 2272,-125.5 2098,-125.5"/>
<text text-anchor="start" x="2141" y="-133.3" font-family="Times New Roman,serif" font-weight="bold" font-size="14.00">BuyerProfile()</text>
<polygon fill="none" stroke="black" points="2098,-104.5 2098,-125.5 2272,-125.5 2272,-104.5 2098,-104.5"/>
<text text-anchor="start" x="2101" y="-112.3" font-family="Times New Roman,serif" font-weight="bold" font-size="14.00">addingproductinbuyinglist()</text>
<polygon fill="none" stroke="black" points="2098,-83.5 2098,-104.5 2272,-104.5 2272,-83.5 2098,-83.5"/>
<text text-anchor="start" x="2136.5" y="-91.3" font-family="Times New Roman,serif" font-weight="bold" font-size="14.00">Emailprotocol()</text>
<polygon fill="none" stroke="black" points="2098,-62.5 2098,-83.5 2272,-83.5 2272,-62.5 2098,-62.5"/>
<text text-anchor="start" x="2156.5" y="-70.3" font-family="Times New Roman,serif" font-weight="bold" font-size="14.00">product()</text>
<polygon fill="none" stroke="black" points="2097,-62 2097,-169 2273,-169 2273,-62 2097,-62"/>
</g>
<!-- EAID_A780FA0B_D4FC_4b34_9347_017A41C5D0ED___EAID_82000729_A2A2_47ff_B71D_E63328BCAED8&#45;&gt;EAID_B34D9D03_AEE7_46e0_946B_5B2866E143B3 -->
<g id="edge5" class="edge"><title>EAID_A780FA0B_D4FC_4b34_9347_017A41C5D0ED___EAID_82000729_A2A2_47ff_B71D_E63328BCAED8&#45;&gt;EAID_B34D9D03_AEE7_46e0_946B_5B2866E143B3</title>
<path fill="none" stroke="black" stroke-dasharray="5,2" d="M2056.99,-361.636C2068.38,-350.889 2079.89,-338.66 2089,-326 2120.72,-281.925 2145.8,-225.692 2162.35,-182.585"/>
<polygon fill="black" stroke="black" points="2165.7,-183.632 2165.96,-173.041 2159.15,-181.156 2165.7,-183.632"/>
</g>
<!-- EAID_2B659719_B9C5_4287_A793_484F45B8D8FE -->
<g id="node7" class="node"><title>EAID_2B659719_B9C5_4287_A793_484F45B8D8FE</title>
<polygon fill="none" stroke="black" points="1896,-157.5 1896,-178.5 2062,-178.5 2062,-157.5 1896,-157.5"/>
<text text-anchor="start" x="1902" y="-165.3" font-family="Times New Roman,serif" font-weight="bold" font-size="14.00">Buyer Registration Form</text>
<polygon fill="none" stroke="black" points="1896,-136.5 1896,-157.5 2062,-157.5 2062,-136.5 1896,-136.5"/>
<text text-anchor="start" x="1901" y="-144.3" font-family="Times New Roman,serif" font-weight="bold" font-size="14.00">BuyerRegistrationForm()</text>
<polygon fill="none" stroke="black" points="1896,-115.5 1896,-136.5 2062,-136.5 2062,-115.5 1896,-115.5"/>
<text text-anchor="start" x="1945" y="-123.3" font-family="Times New Roman,serif" font-weight="bold" font-size="14.00">buyinglist()</text>
<polygon fill="none" stroke="black" points="1896,-94.5 1896,-115.5 2062,-115.5 2062,-94.5 1896,-94.5"/>
<text text-anchor="start" x="1939.5" y="-102.3" font-family="Times New Roman,serif" font-weight="bold" font-size="14.00">notification()</text>
<polygon fill="none" stroke="black" points="1896,-73.5 1896,-94.5 2062,-94.5 2062,-73.5 1896,-73.5"/>
<text text-anchor="start" x="1902" y="-81.3" font-family="Times New Roman,serif" font-weight="bold" font-size="14.00">invalidinformationerror()</text>
<polygon fill="none" stroke="black" points="1896,-52.5 1896,-73.5 2062,-73.5 2062,-52.5 1896,-52.5"/>
<text text-anchor="start" x="1899" y="-60.3" font-family="Times New Roman,serif" font-weight="bold" font-size="14.00">Accountinformationpage()</text>
<polygon fill="none" stroke="black" points="1895,-51.5 1895,-179.5 2063,-179.5 2063,-51.5 1895,-51.5"/>
</g>
<!-- EAID_82000729_A2A2_47ff_B71D_E63328BCAED8___EAID_C6B90EBA_14A7_494c_97F6_1C9B1722CC99&#45;&gt;EAID_2B659719_B9C5_4287_A793_484F45B8D8FE -->
<g id="edge6" class="edge"><title>EAID_82000729_A2A2_47ff_B71D_E63328BCAED8___EAID_C6B90EBA_14A7_494c_97F6_1C9B1722CC99&#45;&gt;EAID_2B659719_B9C5_4287_A793_484F45B8D8FE</title>
<path fill="none" stroke="black" stroke-dasharray="5,2" d="M2000.41,-261.852C1997.62,-242.888 1993.92,-217.759 1990.38,-193.736"/>
<polygon fill="black" stroke="black" points="1993.79,-192.912 1988.87,-183.529 1986.87,-193.932 1993.79,-192.912"/>
</g>
<!-- EAID_6E7F2543_B428_47b6_8E99_22D5EEB24DBA___EAID_A780FA0B_D4FC_4b34_9347_017A41C5D0ED_STL -->
<g id="node4" class="node"><title>EAID_6E7F2543_B428_47b6_8E99_22D5EEB24DBA___EAID_A780FA0B_D4FC_4b34_9347_017A41C5D0ED_STL</title>
<image xlink:href="img/stimulus_icon.png" width="30px" height="20px" preserveAspectRatio="xMinYMin meet" x="2008.5" y="-645"/>
<text text-anchor="start" x="1963" y="-610.8" font-family="Times New Roman,serif" font-weight="bold" font-size="14.00">stl#User:add to cart</text>
<text text-anchor="start" x="2003.5" y="-596.8" font-family="Times New Roman,serif" font-weight="bold" font-size="14.00">button</text>
</g>
<!-- EAID_6E7F2543_B428_47b6_8E99_22D5EEB24DBA___EAID_A780FA0B_D4FC_4b34_9347_017A41C5D0ED_STL&#45;&gt;EAID_6E7F2543_B428_47b6_8E99_22D5EEB24DBA___EAID_A780FA0B_D4FC_4b34_9347_017A41C5D0ED -->
<g id="edge2" class="edge"><title>EAID_6E7F2543_B428_47b6_8E99_22D5EEB24DBA___EAID_A780FA0B_D4FC_4b34_9347_017A41C5D0ED_STL&#45;&gt;EAID_6E7F2543_B428_47b6_8E99_22D5EEB24DBA___EAID_A780FA0B_D4FC_4b34_9347_017A41C5D0ED</title>
<path fill="none" stroke="black" d="M2023,-586.765C2023,-575.477 2023,-562.549 2023,-550.518"/>
<polygon fill="black" stroke="black" points="2026.5,-550.24 2023,-540.24 2019.5,-550.24 2026.5,-550.24"/>
</g>
<!-- EAID_59A1311D_A7A4_495a_A79A_E541167ADE46 -->
<g id="node5" class="node"><title>EAID_59A1311D_A7A4_495a_A79A_E541167ADE46</title>
<polygon fill="none" stroke="black" points="2309,-157.5 2309,-178.5 2440,-178.5 2440,-157.5 2309,-157.5"/>
<text text-anchor="start" x="2360" y="-165.3" font-family="Times New Roman,serif" font-weight="bold" font-size="14.00">Blog</text>
<polygon fill="none" stroke="black" points="2309,-136.5 2309,-157.5 2440,-157.5 2440,-136.5 2309,-136.5"/>
<text text-anchor="start" x="2355.5" y="-144.3" font-family="Times New Roman,serif" font-weight="bold" font-size="14.00">Blog()</text>
<polygon fill="none" stroke="black" points="2309,-115.5 2309,-136.5 2440,-136.5 2440,-115.5 2309,-115.5"/>
<text text-anchor="start" x="2324.5" y="-123.3" font-family="Times New Roman,serif" font-weight="bold" font-size="14.00">postblogbutton()</text>
<polygon fill="none" stroke="black" points="2309,-94.5 2309,-115.5 2440,-115.5 2440,-94.5 2309,-94.5"/>
<text text-anchor="start" x="2312" y="-102.3" font-family="Times New Roman,serif" font-weight="bold" font-size="14.00">redirecttoblogpage()</text>
<polygon fill="none" stroke="black" points="2309,-73.5 2309,-94.5 2440,-94.5 2440,-73.5 2309,-73.5"/>
<text text-anchor="start" x="2325.5" y="-81.3" font-family="Times New Roman,serif" font-weight="bold" font-size="14.00">Confirmdialog()</text>
<polygon fill="none" stroke="black" points="2309,-52.5 2309,-73.5 2440,-73.5 2440,-52.5 2309,-52.5"/>
<text text-anchor="start" x="2340" y="-60.3" font-family="Times New Roman,serif" font-weight="bold" font-size="14.00">loginpage()</text>
<polygon fill="none" stroke="black" points="2307.5,-51.5 2307.5,-179.5 2440.5,-179.5 2440.5,-51.5 2307.5,-51.5"/>
</g>
<!-- EAID_B664B6E7_136C_41d6_BDBD_11BDDFA90F56 -->
<g id="node8" class="node"><title>EAID_B664B6E7_136C_41d6_BDBD_11BDDFA90F56</title>
<polygon fill="none" stroke="black" points="1718,-136.5 1718,-157.5 1860,-157.5 1860,-136.5 1718,-136.5"/>
<text text-anchor="start" x="1759" y="-144.3" font-family="Times New Roman,serif" font-weight="bold" font-size="14.00">Comment</text>
<polygon fill="none" stroke="black" points="1718,-115.5 1718,-136.5 1860,-136.5 1860,-115.5 1718,-115.5"/>
<text text-anchor="start" x="1754.5" y="-123.3" font-family="Times New Roman,serif" font-weight="bold" font-size="14.00">Comment()</text>
<polygon fill="none" stroke="black" points="1718,-94.5 1718,-115.5 1860,-115.5 1860,-94.5 1718,-94.5"/>
<text text-anchor="start" x="1721" y="-102.3" font-family="Times New Roman,serif" font-weight="bold" font-size="14.00">paymentmethodpage()</text>
<polygon fill="none" stroke="black" points="1718,-73.5 1718,-94.5 1860,-94.5 1860,-73.5 1718,-73.5"/>
<text text-anchor="start" x="1742" y="-81.3" font-family="Times New Roman,serif" font-weight="bold" font-size="14.00">finishpayment()</text>
<polygon fill="none" stroke="black" points="1717,-72.5 1717,-158.5 1861,-158.5 1861,-72.5 1717,-72.5"/>
</g>
<!-- EAID_6F33AB5D_9D2F_4e69_AAD5_D980AED6561C -->
<g id="node9" class="node"><title>EAID_6F33AB5D_9D2F_4e69_AAD5_D980AED6561C</title>
<polygon fill="none" stroke="black" points="1464,-167.5 1464,-188.5 1682,-188.5 1682,-167.5 1464,-167.5"/>
<text text-anchor="start" x="1506.5" y="-175.3" font-family="Times New Roman,serif" font-weight="bold" font-size="14.00">Medical Create Form</text>
<polygon fill="none" stroke="black" points="1464,-146.5 1464,-167.5 1682,-167.5 1682,-146.5 1464,-146.5"/>
<text text-anchor="start" x="1505.5" y="-154.3" font-family="Times New Roman,serif" font-weight="bold" font-size="14.00">MedicalCreateForm()</text>
<polygon fill="none" stroke="black" points="1464,-125.5 1464,-146.5 1682,-146.5 1682,-125.5 1464,-125.5"/>
<text text-anchor="start" x="1467" y="-133.3" font-family="Times New Roman,serif" font-weight="bold" font-size="14.00">redirecttothirdpartypaymentpage()</text>
<polygon fill="none" stroke="black" points="1464,-104.5 1464,-125.5 1682,-125.5 1682,-104.5 1464,-104.5"/>
<text text-anchor="start" x="1486" y="-112.3" font-family="Times New Roman,serif" font-weight="bold" font-size="14.00">displaycreatesuccessdialog()</text>
<polygon fill="none" stroke="black" points="1464,-83.5 1464,-104.5 1682,-104.5 1682,-83.5 1464,-83.5"/>
<text text-anchor="start" x="1520" y="-91.3" font-family="Times New Roman,serif" font-weight="bold" font-size="14.00">Clearcachedata()</text>
<polygon fill="none" stroke="black" points="1464,-62.5 1464,-83.5 1682,-83.5 1682,-62.5 1464,-62.5"/>
<text text-anchor="start" x="1492" y="-70.3" font-family="Times New Roman,serif" font-weight="bold" font-size="14.00">Userinfoupdatedmessage()</text>
<polygon fill="none" stroke="black" points="1464,-41.5 1464,-62.5 1682,-62.5 1682,-41.5 1464,-41.5"/>
<text text-anchor="start" x="1510.5" y="-49.3" font-family="Times New Roman,serif" font-weight="bold" font-size="14.00">invalidinfomessage()</text>
<polygon fill="none" stroke="black" points="1463,-41 1463,-190 1683,-190 1683,-41 1463,-41"/>
</g>
<!-- EAID_3BD3F3C6_DBEB_467b_9866_3C20F49D36AD -->
<g id="node10" class="node"><title>EAID_3BD3F3C6_DBEB_467b_9866_3C20F49D36AD</title>
<polygon fill="none" stroke="black" points="1240,-157.5 1240,-178.5 1428,-178.5 1428,-157.5 1240,-157.5"/>
<text text-anchor="start" x="1286.5" y="-165.3" font-family="Times New Roman,serif" font-weight="bold" font-size="14.00">Medical Profile</text>
<polygon fill="none" stroke="black" points="1240,-136.5 1240,-157.5 1428,-157.5 1428,-136.5 1240,-136.5"/>
<text text-anchor="start" x="1284" y="-144.3" font-family="Times New Roman,serif" font-weight="bold" font-size="14.00">MedicalProfile()</text>
<polygon fill="none" stroke="black" points="1240,-115.5 1240,-136.5 1428,-136.5 1428,-115.5 1240,-115.5"/>
<text text-anchor="start" x="1264" y="-123.3" font-family="Times New Roman,serif" font-weight="bold" font-size="14.00">changeunsaveddialog()</text>
<polygon fill="none" stroke="black" points="1240,-94.5 1240,-115.5 1428,-115.5 1428,-94.5 1240,-94.5"/>
<text text-anchor="start" x="1275.5" y="-102.3" font-family="Times New Roman,serif" font-weight="bold" font-size="14.00">deletefaileddialog()</text>
<polygon fill="none" stroke="black" points="1240,-73.5 1240,-94.5 1428,-94.5 1428,-73.5 1240,-73.5"/>
<text text-anchor="start" x="1243" y="-81.3" font-family="Times New Roman,serif" font-weight="bold" font-size="14.00">editbuttonforspecificproduct()</text>
<polygon fill="none" stroke="black" points="1240,-52.5 1240,-73.5 1428,-73.5 1428,-52.5 1240,-52.5"/>
<text text-anchor="start" x="1279.5" y="-60.3" font-family="Times New Roman,serif" font-weight="bold" font-size="14.00">producteditpage()</text>
<polygon fill="none" stroke="black" points="1239,-51.5 1239,-179.5 1429,-179.5 1429,-51.5 1239,-51.5"/>
</g>
<!-- EAID_883C3F81_A33A_446b_8D0E_5D7F7DF3F385 -->
<g id="node11" class="node"><title>EAID_883C3F81_A33A_446b_8D0E_5D7F7DF3F385</title>
<polygon fill="none" stroke="black" points="1048,-136.5 1048,-157.5 1204,-157.5 1204,-136.5 1048,-136.5"/>
<text text-anchor="start" x="1107" y="-144.3" font-family="Times New Roman,serif" font-weight="bold" font-size="14.00">Order</text>
<polygon fill="none" stroke="black" points="1048,-115.5 1048,-136.5 1204,-136.5 1204,-115.5 1048,-115.5"/>
<text text-anchor="start" x="1102.5" y="-123.3" font-family="Times New Roman,serif" font-weight="bold" font-size="14.00">Order()</text>
<polygon fill="none" stroke="black" points="1048,-94.5 1048,-115.5 1204,-115.5 1204,-94.5 1048,-94.5"/>
<text text-anchor="start" x="1051" y="-102.3" font-family="Times New Roman,serif" font-weight="bold" font-size="14.00">unshippedordersbutton()</text>
<polygon fill="none" stroke="black" points="1048,-73.5 1048,-94.5 1204,-94.5 1204,-73.5 1048,-73.5"/>
<text text-anchor="start" x="1074.5" y="-81.3" font-family="Times New Roman,serif" font-weight="bold" font-size="14.00">generateorders()</text>
<polygon fill="none" stroke="black" points="1047,-72.5 1047,-158.5 1205,-158.5 1205,-72.5 1047,-72.5"/>
</g>
<!-- EAID_29435C6A_F5BC_4216_B016_70CB416483BB -->
<g id="node12" class="node"><title>EAID_29435C6A_F5BC_4216_B016_70CB416483BB</title>
<polygon fill="none" stroke="black" points="951,-115.5 951,-136.5 1012,-136.5 1012,-115.5 951,-115.5"/>
<text text-anchor="start" x="958.5" y="-123.3" font-family="Times New Roman,serif" font-weight="bold" font-size="14.00">Review</text>
<polygon fill="none" stroke="black" points="951,-94.5 951,-115.5 1012,-115.5 1012,-94.5 951,-94.5"/>
<text text-anchor="start" x="954" y="-102.3" font-family="Times New Roman,serif" font-weight="bold" font-size="14.00">Review()</text>
<polygon fill="none" stroke="black" points="949.5,-93.5 949.5,-137.5 1012.5,-137.5 1012.5,-93.5 949.5,-93.5"/>
</g>
<!-- EAID_40F20A7C_60EB_4852_B39F_5811C66BE4E2 -->
<g id="node13" class="node"><title>EAID_40F20A7C_60EB_4852_B39F_5811C66BE4E2</title>
<polygon fill="none" stroke="black" points="694,-188.5 694,-209.5 915,-209.5 915,-188.5 694,-188.5"/>
<text text-anchor="start" x="723.5" y="-196.3" font-family="Times New Roman,serif" font-weight="bold" font-size="14.00">Vender Registration Form</text>
<polygon fill="none" stroke="black" points="694,-167.5 694,-188.5 915,-188.5 915,-167.5 694,-167.5"/>
<text text-anchor="start" x="723" y="-175.3" font-family="Times New Roman,serif" font-weight="bold" font-size="14.00">VenderRegistrationForm()</text>
<polygon fill="none" stroke="black" points="694,-146.5 694,-167.5 915,-167.5 915,-146.5 694,-146.5"/>
<text text-anchor="start" x="745" y="-154.3" font-family="Times New Roman,serif" font-weight="bold" font-size="14.00">queryvendoremail()</text>
<polygon fill="none" stroke="black" points="694,-125.5 694,-146.5 915,-146.5 915,-125.5 694,-125.5"/>
<text text-anchor="start" x="751.5" y="-133.3" font-family="Times New Roman,serif" font-weight="bold" font-size="14.00">sendnotification()</text>
<polygon fill="none" stroke="black" points="694,-104.5 694,-125.5 915,-125.5 915,-104.5 694,-104.5"/>
<text text-anchor="start" x="756" y="-112.3" font-family="Times New Roman,serif" font-weight="bold" font-size="14.00">vendorsidebar()</text>
<polygon fill="none" stroke="black" points="694,-83.5 694,-104.5 915,-104.5 915,-83.5 694,-83.5"/>
<text text-anchor="start" x="697" y="-91.3" font-family="Times New Roman,serif" font-weight="bold" font-size="14.00">userlistwitheditandremovebuttons()</text>
<polygon fill="none" stroke="black" points="694,-62.5 694,-83.5 915,-83.5 915,-62.5 694,-62.5"/>
<text text-anchor="start" x="747" y="-70.3" font-family="Times New Roman,serif" font-weight="bold" font-size="14.00">vendordetailpage()</text>
<polygon fill="none" stroke="black" points="694,-41.5 694,-62.5 915,-62.5 915,-41.5 694,-41.5"/>
<text text-anchor="start" x="751.5" y="-49.3" font-family="Times New Roman,serif" font-weight="bold" font-size="14.00">Noresultisfound()</text>
<polygon fill="none" stroke="black" points="694,-20.5 694,-41.5 915,-41.5 915,-20.5 694,-20.5"/>
<text text-anchor="start" x="730.5" y="-28.3" font-family="Times New Roman,serif" font-weight="bold" font-size="14.00">sendconfirmationemail()</text>
<polygon fill="none" stroke="black" points="692.5,-20 692.5,-211 915.5,-211 915.5,-20 692.5,-20"/>
</g>
<!-- EAID_57E30833_3116_4a22_926C_BF1F401329E4 -->
<g id="node14" class="node"><title>EAID_57E30833_3116_4a22_926C_BF1F401329E4</title>
<polygon fill="none" stroke="black" points="469,-167.5 469,-188.5 658,-188.5 658,-167.5 469,-167.5"/>
<text text-anchor="start" x="482" y="-175.3" font-family="Times New Roman,serif" font-weight="bold" font-size="14.00">Vendor Registration Form</text>
<polygon fill="none" stroke="black" points="469,-146.5 469,-167.5 658,-167.5 658,-146.5 469,-146.5"/>
<text text-anchor="start" x="481.5" y="-154.3" font-family="Times New Roman,serif" font-weight="bold" font-size="14.00">VendorRegistrationForm()</text>
<polygon fill="none" stroke="black" points="469,-125.5 469,-146.5 658,-146.5 658,-125.5 469,-125.5"/>
<text text-anchor="start" x="519.5" y="-133.3" font-family="Times New Roman,serif" font-weight="bold" font-size="14.00">listofvendors()</text>
<polygon fill="none" stroke="black" points="469,-104.5 469,-125.5 658,-125.5 658,-104.5 469,-104.5"/>
<text text-anchor="start" x="497" y="-112.3" font-family="Times New Roman,serif" font-weight="bold" font-size="14.00">Vendorapprovepage()</text>
<polygon fill="none" stroke="black" points="469,-83.5 469,-104.5 658,-104.5 658,-83.5 469,-83.5"/>
<text text-anchor="start" x="472" y="-91.3" font-family="Times New Roman,serif" font-weight="bold" font-size="14.00">vendoralreadyexistsmessage()</text>
<polygon fill="none" stroke="black" points="469,-62.5 469,-83.5 658,-83.5 658,-62.5 469,-62.5"/>
<text text-anchor="start" x="513.5" y="-70.3" font-family="Times New Roman,serif" font-weight="bold" font-size="14.00">redirectvendor()</text>
<polygon fill="none" stroke="black" points="469,-41.5 469,-62.5 658,-62.5 658,-41.5 469,-41.5"/>
<text text-anchor="start" x="505.5" y="-49.3" font-family="Times New Roman,serif" font-weight="bold" font-size="14.00">updatevendorinfo()</text>
<polygon fill="none" stroke="black" points="467.5,-41 467.5,-190 658.5,-190 658.5,-41 467.5,-41"/>
</g>
<!-- EAID_52A560BE_327E_4aae_8816_5CA2C9040944 -->
<g id="node15" class="node"><title>EAID_52A560BE_327E_4aae_8816_5CA2C9040944</title>
<polygon fill="none" stroke="black" points="362,-115.5 362,-136.5 432,-136.5 432,-115.5 362,-115.5"/>
<text text-anchor="start" x="369.5" y="-123.3" font-family="Times New Roman,serif" font-weight="bold" font-size="14.00">postpage</text>
<polygon fill="none" stroke="black" points="362,-94.5 362,-115.5 432,-115.5 432,-94.5 362,-94.5"/>
<text text-anchor="start" x="365" y="-102.3" font-family="Times New Roman,serif" font-weight="bold" font-size="14.00">postpage()</text>
<polygon fill="none" stroke="black" points="361,-93.5 361,-137.5 433,-137.5 433,-93.5 361,-93.5"/>
</g>
<!-- EAID_61D92224_6962_4449_B3A0_BF55C8E96982 -->
<g id="node16" class="node"><title>EAID_61D92224_6962_4449_B3A0_BF55C8E96982</title>
<polygon fill="none" stroke="black" points="171,-115.5 171,-136.5 326,-136.5 326,-115.5 171,-115.5"/>
<text text-anchor="start" x="178.5" y="-123.3" font-family="Times New Roman,serif" font-weight="bold" font-size="14.00">Itemquantityfieldincart</text>
<polygon fill="none" stroke="black" points="171,-94.5 171,-115.5 326,-115.5 326,-94.5 171,-94.5"/>
<text text-anchor="start" x="174" y="-102.3" font-family="Times New Roman,serif" font-weight="bold" font-size="14.00">Itemquantityfieldincart()</text>
<polygon fill="none" stroke="black" points="169.5,-93.5 169.5,-137.5 326.5,-137.5 326.5,-93.5 169.5,-93.5"/>
</g>
<!-- EAID_5D3CE529_2F3C_43e6_B277_0B57C56F2359 -->
<g id="node17" class="node"><title>EAID_5D3CE529_2F3C_43e6_B277_0B57C56F2359</title>
<polygon fill="none" stroke="black" points="26,-146.5 26,-167.5 135,-167.5 135,-146.5 26,-146.5"/>
<text text-anchor="start" x="50" y="-154.3" font-family="Times New Roman,serif" font-weight="bold" font-size="14.00">notifyuser</text>
<polygon fill="none" stroke="black" points="26,-125.5 26,-146.5 135,-146.5 135,-125.5 26,-125.5"/>
<text text-anchor="start" x="45.5" y="-133.3" font-family="Times New Roman,serif" font-weight="bold" font-size="14.00">notifyuser()</text>
<polygon fill="none" stroke="black" points="26,-104.5 26,-125.5 135,-125.5 135,-104.5 26,-104.5"/>
<text text-anchor="start" x="51" y="-112.3" font-family="Times New Roman,serif" font-weight="bold" font-size="14.00">userinfo()</text>
<polygon fill="none" stroke="black" points="26,-83.5 26,-104.5 135,-104.5 135,-83.5 26,-83.5"/>
<text text-anchor="start" x="44.5" y="-91.3" font-family="Times New Roman,serif" font-weight="bold" font-size="14.00">listofusers()</text>
<polygon fill="none" stroke="black" points="26,-62.5 26,-83.5 135,-83.5 135,-62.5 26,-62.5"/>
<text text-anchor="start" x="29" y="-70.3" font-family="Times New Roman,serif" font-weight="bold" font-size="14.00">queryuseremail()</text>
<polygon fill="none" stroke="black" points="24.5,-62 24.5,-169 135.5,-169 135.5,-62 24.5,-62"/>
</g>
</g>
</svg>
