<?xml version="1.0" encoding="UTF-8" standalone="no"?>
<!DOCTYPE svg PUBLIC "-//W3C//DTD SVG 1.1//EN"
 "http://www.w3.org/Graphics/SVG/1.1/DTD/svg11.dtd">
<!-- Generated by graphviz version 2.38.0 (20140413.2041)
 -->
<!-- Title: g Pages: 1 -->
<svg width="2018pt" height="358pt"
 viewBox="0.00 0.00 2018.00 358.01" xmlns="http://www.w3.org/2000/svg" xmlns:xlink="http://www.w3.org/1999/xlink">
<g id="graph0" class="graph" transform="scale(1 1) rotate(0) translate(4 354.012)">
<title>g</title>
<polygon fill="white" stroke="none" points="-4,4 -4,-354.012 2014,-354.012 2014,4 -4,4"/>
<!-- EAID_7E562D5D_4D95_49cb_B1DD_DAA155CBB1CD -->
<g id="node1" class="node"><title>EAID_7E562D5D_4D95_49cb_B1DD_DAA155CBB1CD</title>
<text text-anchor="start" x="10" y="-241.8" font-family="Times New Roman,serif" font-size="24.00">Administrator</text>
</g>
<!-- EAID_E21E0AEC_E3DF_414b_8FC0_EE5E485C6AB0 -->
<g id="node2" class="node"><title>EAID_E21E0AEC_E3DF_414b_8FC0_EE5E485C6AB0</title>
<text text-anchor="start" x="1463.5" y="-208.8" font-family="Times New Roman,serif" font-size="24.00">invalid security questions</text>
</g>
<!-- EAID_7E562D5D_4D95_49cb_B1DD_DAA155CBB1CD&#45;&gt;EAID_E21E0AEC_E3DF_414b_8FC0_EE5E485C6AB0 -->
<g id="edge1" class="edge"><title>EAID_7E562D5D_4D95_49cb_B1DD_DAA155CBB1CD&#45;&gt;EAID_E21E0AEC_E3DF_414b_8FC0_EE5E485C6AB0</title>
<path fill="none" stroke="black" d="M152.202,-255.385C164.171,-256.057 176.42,-256.635 188,-257 549.598,-268.39 643.537,-305.861 1002,-257 1018.45,-254.757 1021.61,-249.696 1038,-247 1174.54,-224.538 1332.7,-217.957 1443.07,-216.438"/>
<polygon fill="black" stroke="black" points="1443.31,-219.936 1453.27,-216.311 1443.23,-212.936 1443.31,-219.936"/>
</g>
<!-- EAID_CA662A8F_32C5_4b62_A461_CFD3027DA0E4 -->
<g id="node3" class="node"><title>EAID_CA662A8F_32C5_4b62_A461_CFD3027DA0E4</title>
<text text-anchor="start" x="1786" y="-238.8" font-family="Times New Roman,serif" font-size="24.00">case management page</text>
</g>
<!-- EAID_7E562D5D_4D95_49cb_B1DD_DAA155CBB1CD&#45;&gt;EAID_CA662A8F_32C5_4b62_A461_CFD3027DA0E4 -->
<g id="edge2" class="edge"><title>EAID_7E562D5D_4D95_49cb_B1DD_DAA155CBB1CD&#45;&gt;EAID_CA662A8F_32C5_4b62_A461_CFD3027DA0E4</title>
<path fill="none" stroke="black" d="M152.288,-269.513C164.19,-272.25 176.396,-274.856 188,-277 357.404,-308.296 400.229,-326 572.5,-326 572.5,-326 572.5,-326 1214.5,-326 1448.21,-326 1521.72,-390.518 1740,-307 1759.45,-299.557 1757.47,-286.505 1776,-277 1779.54,-275.183 1783.2,-273.47 1786.95,-271.856"/>
<polygon fill="black" stroke="black" points="1788.43,-275.03 1796.4,-268.043 1785.81,-268.539 1788.43,-275.03"/>
</g>
<!-- EAID_27876999_8495_4dfb_9B4E_8B21EB77893C -->
<g id="node4" class="node"><title>EAID_27876999_8495_4dfb_9B4E_8B21EB77893C</title>
<text text-anchor="start" x="729" y="-218.8" font-family="Times New Roman,serif" font-size="24.00">unauthorized error message</text>
</g>
<!-- EAID_7E562D5D_4D95_49cb_B1DD_DAA155CBB1CD&#45;&gt;EAID_27876999_8495_4dfb_9B4E_8B21EB77893C -->
<g id="edge3" class="edge"><title>EAID_7E562D5D_4D95_49cb_B1DD_DAA155CBB1CD&#45;&gt;EAID_27876999_8495_4dfb_9B4E_8B21EB77893C</title>
<path fill="none" stroke="black" d="M152.144,-247.784C279.953,-244.015 541.927,-236.291 708.004,-231.393"/>
<polygon fill="black" stroke="black" points="708.414,-234.883 718.307,-231.09 708.208,-227.886 708.414,-234.883"/>
</g>
<!-- EAID_7BB9E227_B35A_4a1c_9E27_49DABCE3BA11 -->
<g id="node5" class="node"><title>EAID_7BB9E227_B35A_4a1c_9E27_49DABCE3BA11</title>
<text text-anchor="start" x="724" y="-98.8" font-family="Times New Roman,serif" font-size="24.00">security questions reset page</text>
</g>
<!-- EAID_7E562D5D_4D95_49cb_B1DD_DAA155CBB1CD&#45;&gt;EAID_7BB9E227_B35A_4a1c_9E27_49DABCE3BA11 -->
<g id="edge4" class="edge"><title>EAID_7E562D5D_4D95_49cb_B1DD_DAA155CBB1CD&#45;&gt;EAID_7BB9E227_B35A_4a1c_9E27_49DABCE3BA11</title>
<path fill="none" stroke="black" d="M89.5935,-228.82C107.479,-201.008 143.111,-153.331 188,-133 233.593,-112.35 520.687,-107.718 703.666,-106.897"/>
<polygon fill="black" stroke="black" points="703.944,-110.396 713.93,-106.854 703.915,-103.396 703.944,-110.396"/>
</g>
<!-- EAID_2A52A49D_33FE_4d9c_8307_36EF5D7147FC -->
<g id="node6" class="node"><title>EAID_2A52A49D_33FE_4d9c_8307_36EF5D7147FC</title>
<text text-anchor="start" x="198.5" y="-154.8" font-family="Times New Roman,serif" font-size="24.00">Reset security questions</text>
</g>
<!-- EAID_7E562D5D_4D95_49cb_B1DD_DAA155CBB1CD&#45;&gt;EAID_2A52A49D_33FE_4d9c_8307_36EF5D7147FC -->
<g id="edge5" class="edge"><title>EAID_7E562D5D_4D95_49cb_B1DD_DAA155CBB1CD&#45;&gt;EAID_2A52A49D_33FE_4d9c_8307_36EF5D7147FC</title>
<path fill="none" stroke="black" d="M133.282,-228.94C166.572,-216.483 208.898,-200.645 243.724,-187.613"/>
<polygon fill="black" stroke="black" points="245.195,-190.8 253.334,-184.017 242.742,-184.244 245.195,-190.8"/>
</g>
<!-- EAID_B43D9AAF_B6D3_4c3b_8B6C_DB1AF97B9B03 -->
<g id="node11" class="node"><title>EAID_B43D9AAF_B6D3_4c3b_8B6C_DB1AF97B9B03</title>
<text text-anchor="start" x="1048.5" y="-268.8" font-family="Times New Roman,serif" font-size="24.00">validate typed in security questions</text>
</g>
<!-- EAID_7BB9E227_B35A_4a1c_9E27_49DABCE3BA11&#45;&gt;EAID_B43D9AAF_B6D3_4c3b_8B6C_DB1AF97B9B03 -->
<g id="edge17" class="edge"><title>EAID_7BB9E227_B35A_4a1c_9E27_49DABCE3BA11&#45;&gt;EAID_B43D9AAF_B6D3_4c3b_8B6C_DB1AF97B9B03</title>
<path fill="none" stroke="black" d="M977.157,-128.032C985.682,-130.689 994.046,-133.666 1002,-137 1070.4,-165.666 1140.22,-217.487 1179.78,-249.405"/>
<polygon fill="black" stroke="black" points="1177.79,-252.296 1187.75,-255.898 1182.21,-246.869 1177.79,-252.296"/>
</g>
<!-- EAID_35F479E2_B760_4f68_803A_CB924C6888DF -->
<g id="node8" class="node"><title>EAID_35F479E2_B760_4f68_803A_CB924C6888DF</title>
<text text-anchor="start" x="479.5" y="-154.8" font-family="Times New Roman,serif" font-size="24.00">validate role of user</text>
</g>
<!-- EAID_2A52A49D_33FE_4d9c_8307_36EF5D7147FC&#45;&gt;EAID_35F479E2_B760_4f68_803A_CB924C6888DF -->
<g id="edge11" class="edge"><title>EAID_2A52A49D_33FE_4d9c_8307_36EF5D7147FC&#45;&gt;EAID_35F479E2_B760_4f68_803A_CB924C6888DF</title>
<path fill="none" stroke="black" d="M433.212,-163C441.716,-163 450.269,-163 458.727,-163"/>
<polygon fill="black" stroke="black" points="458.987,-166.5 468.987,-163 458.987,-159.5 458.987,-166.5"/>
</g>
<!-- EAID_3221D434_EBDA_49ff_A036_82A3F51D9C33 -->
<g id="node7" class="node"><title>EAID_3221D434_EBDA_49ff_A036_82A3F51D9C33</title>
<text text-anchor="start" x="11" y="-67.8" font-family="Times New Roman,serif" font-size="24.00">Case manager</text>
</g>
<!-- EAID_3221D434_EBDA_49ff_A036_82A3F51D9C33&#45;&gt;EAID_E21E0AEC_E3DF_414b_8FC0_EE5E485C6AB0 -->
<g id="edge9" class="edge"><title>EAID_3221D434_EBDA_49ff_A036_82A3F51D9C33&#45;&gt;EAID_E21E0AEC_E3DF_414b_8FC0_EE5E485C6AB0</title>
<path fill="none" stroke="black" d="M151.575,-66.7042C248.425,-55.4543 422.81,-38 572.5,-38 572.5,-38 572.5,-38 859,-38 1112.21,-38 1401.08,-142.866 1522.67,-192.068"/>
<polygon fill="black" stroke="black" points="1521.6,-195.41 1532.18,-195.94 1524.24,-188.927 1521.6,-195.41"/>
</g>
<!-- EAID_3221D434_EBDA_49ff_A036_82A3F51D9C33&#45;&gt;EAID_CA662A8F_32C5_4b62_A461_CFD3027DA0E4 -->
<g id="edge7" class="edge"><title>EAID_3221D434_EBDA_49ff_A036_82A3F51D9C33&#45;&gt;EAID_CA662A8F_32C5_4b62_A461_CFD3027DA0E4</title>
<path fill="none" stroke="black" d="M130.206,-54.9931C148.294,-48.6053 168.793,-42.1777 188,-38 355.798,-1.5024 400.779,-1.05149e-014 572.5,-0 572.5,-0 572.5,-0 1214.5,-0 1469.96,-2.76168e-014 1748.62,-156.929 1851.19,-220.616"/>
<polygon fill="black" stroke="black" points="1849.37,-223.606 1859.7,-225.941 1853.08,-217.671 1849.37,-223.606"/>
</g>
<!-- EAID_3221D434_EBDA_49ff_A036_82A3F51D9C33&#45;&gt;EAID_27876999_8495_4dfb_9B4E_8B21EB77893C -->
<g id="edge8" class="edge"><title>EAID_3221D434_EBDA_49ff_A036_82A3F51D9C33&#45;&gt;EAID_27876999_8495_4dfb_9B4E_8B21EB77893C</title>
<path fill="none" stroke="black" d="M89.6292,-97.1015C107.556,-124.825 143.233,-172.401 188,-193 233.85,-214.097 525.136,-222.216 707.916,-225.257"/>
<polygon fill="black" stroke="black" points="708.108,-228.761 718.164,-225.424 708.222,-221.761 708.108,-228.761"/>
</g>
<!-- EAID_3221D434_EBDA_49ff_A036_82A3F51D9C33&#45;&gt;EAID_7BB9E227_B35A_4a1c_9E27_49DABCE3BA11 -->
<g id="edge10" class="edge"><title>EAID_3221D434_EBDA_49ff_A036_82A3F51D9C33&#45;&gt;EAID_7BB9E227_B35A_4a1c_9E27_49DABCE3BA11</title>
<path fill="none" stroke="black" d="M151.79,-78.9724C278.308,-84.0007 537.014,-94.2826 703.444,-100.897"/>
<polygon fill="black" stroke="black" points="703.643,-104.408 713.775,-101.308 703.921,-97.4133 703.643,-104.408"/>
</g>
<!-- EAID_3221D434_EBDA_49ff_A036_82A3F51D9C33&#45;&gt;EAID_2A52A49D_33FE_4d9c_8307_36EF5D7147FC -->
<g id="edge6" class="edge"><title>EAID_3221D434_EBDA_49ff_A036_82A3F51D9C33&#45;&gt;EAID_2A52A49D_33FE_4d9c_8307_36EF5D7147FC</title>
<path fill="none" stroke="black" d="M133.282,-97.0603C166.572,-109.517 208.898,-125.355 243.724,-138.387"/>
<polygon fill="black" stroke="black" points="242.742,-141.756 253.334,-141.983 245.195,-135.2 242.742,-141.756"/>
</g>
<!-- EAID_35F479E2_B760_4f68_803A_CB924C6888DF&#45;&gt;EAID_27876999_8495_4dfb_9B4E_8B21EB77893C -->
<g id="edge19" class="edge"><title>EAID_35F479E2_B760_4f68_803A_CB924C6888DF&#45;&gt;EAID_27876999_8495_4dfb_9B4E_8B21EB77893C</title>
<path fill="none" stroke="black" d="M658.862,-184.025C677.024,-188.422 696.132,-192.949 714,-197 723.936,-199.253 734.275,-201.537 744.644,-203.787"/>
<polygon fill="black" stroke="black" points="744.07,-207.244 754.584,-205.932 745.547,-200.401 744.07,-207.244"/>
</g>
<!-- EAID_35F479E2_B760_4f68_803A_CB924C6888DF&#45;&gt;EAID_7BB9E227_B35A_4a1c_9E27_49DABCE3BA11 -->
<g id="edge18" class="edge"><title>EAID_35F479E2_B760_4f68_803A_CB924C6888DF&#45;&gt;EAID_7BB9E227_B35A_4a1c_9E27_49DABCE3BA11</title>
<path fill="none" stroke="black" d="M678.088,-142.466C698.616,-138.397 720.288,-134.1 741.191,-129.957"/>
<polygon fill="black" stroke="black" points="741.929,-133.379 751.057,-128.001 740.567,-126.512 741.929,-133.379"/>
</g>
<!-- EAID_65BB4306_30A8_46ef_A017_D341362D5137 -->
<g id="node12" class="node"><title>EAID_65BB4306_30A8_46ef_A017_D341362D5137</title>
<text text-anchor="start" x="839" y="-158.8" font-family="Times New Roman,serif" font-size="24.00">role</text>
</g>
<!-- EAID_35F479E2_B760_4f68_803A_CB924C6888DF&#45;&gt;EAID_65BB4306_30A8_46ef_A017_D341362D5137 -->
<g id="edge15" class="edge"><title>EAID_35F479E2_B760_4f68_803A_CB924C6888DF&#45;&gt;EAID_65BB4306_30A8_46ef_A017_D341362D5137</title>
<path fill="none" stroke="black" d="M678.088,-164.467C727.105,-165.161 782.649,-165.947 818.667,-166.457"/>
<polygon fill="black" stroke="black" points="818.689,-169.958 828.738,-166.6 818.788,-162.958 818.689,-169.958"/>
</g>
<!-- EAID_C1E7D0E3_0750_4774_9D39_B3AD446402BB -->
<g id="node9" class="node"><title>EAID_C1E7D0E3_0750_4774_9D39_B3AD446402BB</title>
<text text-anchor="start" x="1435.5" y="-268.8" font-family="Times New Roman,serif" font-size="24.00">save updated security questions</text>
</g>
<!-- EAID_C1E7D0E3_0750_4774_9D39_B3AD446402BB&#45;&gt;EAID_CA662A8F_32C5_4b62_A461_CFD3027DA0E4 -->
<g id="edge13" class="edge"><title>EAID_C1E7D0E3_0750_4774_9D39_B3AD446402BB&#45;&gt;EAID_CA662A8F_32C5_4b62_A461_CFD3027DA0E4</title>
<path fill="none" stroke="black" d="M1740.01,-261.78C1748.69,-260.936 1757.37,-260.092 1765.92,-259.261"/>
<polygon fill="black" stroke="black" points="1766.29,-262.742 1775.9,-258.29 1765.61,-255.774 1766.29,-262.742"/>
</g>
<!-- EAID_71A228F1_1CC5_4495_AFE2_1C3F19405FF9 -->
<g id="node10" class="node"><title>EAID_71A228F1_1CC5_4495_AFE2_1C3F19405FF9</title>
<text text-anchor="start" x="1807" y="-298.8" font-family="Times New Roman,serif" font-size="24.00">Security questions</text>
</g>
<!-- EAID_C1E7D0E3_0750_4774_9D39_B3AD446402BB&#45;&gt;EAID_71A228F1_1CC5_4495_AFE2_1C3F19405FF9 -->
<g id="edge12" class="edge"><title>EAID_C1E7D0E3_0750_4774_9D39_B3AD446402BB&#45;&gt;EAID_71A228F1_1CC5_4495_AFE2_1C3F19405FF9</title>
<path fill="none" stroke="black" d="M1740.01,-292.22C1755.76,-293.752 1771.49,-295.281 1786.52,-296.743"/>
<polygon fill="black" stroke="black" points="1786.52,-300.259 1796.81,-297.743 1787.19,-293.292 1786.52,-300.259"/>
</g>
<!-- EAID_B43D9AAF_B6D3_4c3b_8B6C_DB1AF97B9B03&#45;&gt;EAID_E21E0AEC_E3DF_414b_8FC0_EE5E485C6AB0 -->
<g id="edge14" class="edge"><title>EAID_B43D9AAF_B6D3_4c3b_8B6C_DB1AF97B9B03&#45;&gt;EAID_E21E0AEC_E3DF_414b_8FC0_EE5E485C6AB0</title>
<path fill="none" stroke="black" d="M1343.12,-255.973C1375.51,-250.677 1410.42,-244.97 1443.26,-239.6"/>
<polygon fill="black" stroke="black" points="1444.08,-243.013 1453.38,-237.945 1442.95,-236.105 1444.08,-243.013"/>
</g>
<!-- EAID_B43D9AAF_B6D3_4c3b_8B6C_DB1AF97B9B03&#45;&gt;EAID_C1E7D0E3_0750_4774_9D39_B3AD446402BB -->
<g id="edge16" class="edge"><title>EAID_B43D9AAF_B6D3_4c3b_8B6C_DB1AF97B9B03&#45;&gt;EAID_C1E7D0E3_0750_4774_9D39_B3AD446402BB</title>
<path fill="none" stroke="black" d="M1389.13,-277C1397.7,-277 1406.29,-277 1414.83,-277"/>
<polygon fill="black" stroke="black" points="1414.84,-280.5 1424.84,-277 1414.84,-273.5 1414.84,-280.5"/>
</g>
</g>
</svg>
