<?xml version="1.0" encoding="UTF-8" standalone="no"?>
<!DOCTYPE svg PUBLIC "-//W3C//DTD SVG 1.1//EN"
 "http://www.w3.org/Graphics/SVG/1.1/DTD/svg11.dtd">
<!-- Generated by graphviz version 2.38.0 (20140413.2041)
 -->
<!-- Title: g Pages: 1 -->
<svg width="2087pt" height="332pt"
 viewBox="0.00 0.00 2087.00 332.00" xmlns="http://www.w3.org/2000/svg" xmlns:xlink="http://www.w3.org/1999/xlink">
<g id="graph0" class="graph" transform="scale(1 1) rotate(0) translate(4 328)">
<title>g</title>
<polygon fill="white" stroke="none" points="-4,4 -4,-328 2083,-328 2083,4 -4,4"/>
<!-- EAID_6446CEC0_7730_4240_8A5D_F70ECB5B78B0 -->
<g id="node1" class="node"><title>EAID_6446CEC0_7730_4240_8A5D_F70ECB5B78B0</title>
<image xlink:href="img/control1.png" width="106px" height="75px" preserveAspectRatio="xMinYMin meet" x="1192" y="-186"/>
<text text-anchor="start" x="1135.5" y="-87.8" font-family="Times New Roman,serif" font-size="24.00">Validate feedback data</text>
</g>
<!-- EAID_D1DE357D_4DBA_4685_8615_FF8C7A89DE1E -->
<g id="node2" class="node"><title>EAID_D1DE357D_4DBA_4685_8615_FF8C7A89DE1E</title>
<image xlink:href="img/actor1.png" width="82px" height="90px" preserveAspectRatio="xMinYMin meet" x="1569" y="-318"/>
<text text-anchor="start" x="1555" y="-204.8" font-family="Times New Roman,serif" font-size="24.00">Neon CRM</text>
</g>
<!-- EAID_6446CEC0_7730_4240_8A5D_F70ECB5B78B0&#45;&gt;EAID_D1DE357D_4DBA_4685_8615_FF8C7A89DE1E -->
<g id="edge1" class="edge"><title>EAID_6446CEC0_7730_4240_8A5D_F70ECB5B78B0&#45;&gt;EAID_D1DE357D_4DBA_4685_8615_FF8C7A89DE1E</title>
<path fill="none" stroke="black" d="M1364.02,-174.431C1420.44,-193.679 1486.16,-216.095 1535.31,-232.863"/>
<polygon fill="black" stroke="black" points="1534.32,-236.222 1544.91,-236.139 1536.58,-229.597 1534.32,-236.222"/>
</g>
<!-- EAID_DC6AD931_C241_4fc3_B74D_CD286DD5B58D -->
<g id="node7" class="node"><title>EAID_DC6AD931_C241_4fc3_B74D_CD286DD5B58D</title>
<image xlink:href="img/control1.png" width="106px" height="75px" preserveAspectRatio="xMinYMin meet" x="1557" y="-167"/>
<text text-anchor="start" x="1410" y="-68.8" font-family="Times New Roman,serif" font-size="24.00">Display an invalid feedback error message</text>
</g>
<!-- EAID_6446CEC0_7730_4240_8A5D_F70ECB5B78B0&#45;&gt;EAID_DC6AD931_C241_4fc3_B74D_CD286DD5B58D -->
<g id="edge6" class="edge"><title>EAID_6446CEC0_7730_4240_8A5D_F70ECB5B78B0&#45;&gt;EAID_DC6AD931_C241_4fc3_B74D_CD286DD5B58D</title>
<path fill="none" stroke="black" d="M1364.02,-127.805C1372.36,-127.369 1380.9,-126.923 1389.56,-126.47"/>
<polygon fill="black" stroke="black" points="1389.98,-129.953 1399.78,-125.936 1389.61,-122.963 1389.98,-129.953"/>
</g>
<!-- EAID_CF310A69_7F7A_41f8_AEFB_A2D3A5D4465C -->
<g id="node3" class="node"><title>EAID_CF310A69_7F7A_41f8_AEFB_A2D3A5D4465C</title>
<image xlink:href="img/actor1.png" width="61px" height="90px" preserveAspectRatio="xMinYMin meet" x="10.5" y="-126"/>
<text text-anchor="start" x="19" y="-12.8" font-family="Times New Roman,serif" font-size="24.00">User</text>
</g>
<!-- EAID_B3134F8D_7BD9_4bd5_BCCC_77DA613617F5 -->
<g id="node4" class="node"><title>EAID_B3134F8D_7BD9_4bd5_BCCC_77DA613617F5</title>
<image xlink:href="img/boundary3.png" width="115px" height="67px" preserveAspectRatio="xMinYMin meet" x="140.5" y="-199"/>
<text text-anchor="start" x="127" y="-108.8" font-family="Times New Roman,serif" font-size="24.00">Feedback page</text>
</g>
<!-- EAID_CF310A69_7F7A_41f8_AEFB_A2D3A5D4465C&#45;&gt;EAID_B3134F8D_7BD9_4bd5_BCCC_77DA613617F5 -->
<g id="edge2" class="edge"><title>EAID_CF310A69_7F7A_41f8_AEFB_A2D3A5D4465C&#45;&gt;EAID_B3134F8D_7BD9_4bd5_BCCC_77DA613617F5</title>
<path fill="none" stroke="black" d="M81.1416,-87.669C89.4607,-92.2164 98.5531,-97.1866 107.868,-102.279"/>
<polygon fill="black" stroke="black" points="106.396,-105.463 116.85,-107.188 109.754,-99.3203 106.396,-105.463"/>
</g>
<!-- EAID_5A896F7C_E7E8_4e11_9D17_93457CC9AC71 -->
<g id="node5" class="node"><title>EAID_5A896F7C_E7E8_4e11_9D17_93457CC9AC71</title>
<image xlink:href="img/boundary3.png" width="115px" height="67px" preserveAspectRatio="xMinYMin meet" x="606.5" y="-182"/>
<text text-anchor="start" x="592.5" y="-91.8" font-family="Times New Roman,serif" font-size="24.00">Feedback form</text>
</g>
<!-- EAID_CF310A69_7F7A_41f8_AEFB_A2D3A5D4465C&#45;&gt;EAID_5A896F7C_E7E8_4e11_9D17_93457CC9AC71 -->
<g id="edge3" class="edge"><title>EAID_CF310A69_7F7A_41f8_AEFB_A2D3A5D4465C&#45;&gt;EAID_5A896F7C_E7E8_4e11_9D17_93457CC9AC71</title>
<path fill="none" stroke="black" d="M81.0366,-62.7299C166.899,-56.6581 376.345,-47.4373 546,-85 554.732,-86.9332 563.636,-89.4929 572.437,-92.4306"/>
<polygon fill="black" stroke="black" points="571.338,-95.7541 581.933,-95.7549 573.651,-89.1473 571.338,-95.7541"/>
</g>
<!-- EAID_BF7654C0_A7A8_47dc_8D3B_1AFB35225E55 -->
<g id="node6" class="node"><title>EAID_BF7654C0_A7A8_47dc_8D3B_1AFB35225E55</title>
<image xlink:href="img/boundary3.png" width="115px" height="67px" preserveAspectRatio="xMinYMin meet" x="1910.5" y="-119"/>
<text text-anchor="start" x="1866.5" y="-28.8" font-family="Times New Roman,serif" font-size="24.00">Invalid error message</text>
</g>
<!-- EAID_CF310A69_7F7A_41f8_AEFB_A2D3A5D4465C&#45;&gt;EAID_BF7654C0_A7A8_47dc_8D3B_1AFB35225E55 -->
<g id="edge4" class="edge"><title>EAID_CF310A69_7F7A_41f8_AEFB_A2D3A5D4465C&#45;&gt;EAID_BF7654C0_A7A8_47dc_8D3B_1AFB35225E55</title>
<path fill="none" stroke="black" d="M81.3885,-59.0902C92.8601,-57.2579 105.405,-55.4018 117,-54 255.361,-37.2722 290.131,-28 429.5,-28 429.5,-28 429.5,-28 1245.5,-28 1500.97,-28 1565.75,-22.0749 1820,-47 1828.48,-47.8313 1837.21,-48.8481 1845.99,-49.9886"/>
<polygon fill="black" stroke="black" points="1845.53,-53.4585 1855.91,-51.3256 1846.47,-46.5212 1845.53,-53.4585"/>
</g>
<!-- EAID_7D277030_E963_4ef1_8E9E_57380825FBBD -->
<g id="node9" class="node"><title>EAID_7D277030_E963_4ef1_8E9E_57380825FBBD</title>
<image xlink:href="img/control1.png" width="106px" height="75px" preserveAspectRatio="xMinYMin meet" x="378" y="-205"/>
<text text-anchor="start" x="325.5" y="-106.8" font-family="Times New Roman,serif" font-size="24.00">display feedback form</text>
</g>
<!-- EAID_B3134F8D_7BD9_4bd5_BCCC_77DA613617F5&#45;&gt;EAID_7D277030_E963_4ef1_8E9E_57380825FBBD -->
<g id="edge9" class="edge"><title>EAID_B3134F8D_7BD9_4bd5_BCCC_77DA613617F5&#45;&gt;EAID_7D277030_E963_4ef1_8E9E_57380825FBBD</title>
<path fill="none" stroke="black" d="M279.294,-151.697C287.512,-151.768 295.992,-151.842 304.543,-151.916"/>
<polygon fill="black" stroke="black" points="304.573,-155.416 314.603,-152.003 304.634,-148.416 304.573,-155.416"/>
</g>
<!-- EAID_576464B1_D180_4564_8449_A83EDEB5B8A7 -->
<g id="node8" class="node"><title>EAID_576464B1_D180_4564_8449_A83EDEB5B8A7</title>
<image xlink:href="img/control1.png" width="106px" height="75px" preserveAspectRatio="xMinYMin meet" x="882" y="-186"/>
<text text-anchor="start" x="791" y="-87.8" font-family="Times New Roman,serif" font-size="24.00">Rest cal for inserting feedback</text>
</g>
<!-- EAID_5A896F7C_E7E8_4e11_9D17_93457CC9AC71&#45;&gt;EAID_576464B1_D180_4564_8449_A83EDEB5B8A7 -->
<g id="edge7" class="edge"><title>EAID_5A896F7C_E7E8_4e11_9D17_93457CC9AC71&#45;&gt;EAID_576464B1_D180_4564_8449_A83EDEB5B8A7</title>
<path fill="none" stroke="black" d="M745.359,-134C753.494,-134 761.943,-134 770.555,-134"/>
<polygon fill="black" stroke="black" points="770.732,-137.5 780.732,-134 770.732,-130.5 770.732,-137.5"/>
</g>
<!-- EAID_DC6AD931_C241_4fc3_B74D_CD286DD5B58D&#45;&gt;EAID_BF7654C0_A7A8_47dc_8D3B_1AFB35225E55 -->
<g id="edge5" class="edge"><title>EAID_DC6AD931_C241_4fc3_B74D_CD286DD5B58D&#45;&gt;EAID_BF7654C0_A7A8_47dc_8D3B_1AFB35225E55</title>
<path fill="none" stroke="black" d="M1820.11,-89.1187C1828.8,-88.043 1837.39,-86.98 1845.79,-85.9405"/>
<polygon fill="black" stroke="black" points="1846.44,-89.3869 1855.93,-84.685 1845.58,-82.4399 1846.44,-89.3869"/>
</g>
<!-- EAID_576464B1_D180_4564_8449_A83EDEB5B8A7&#45;&gt;EAID_6446CEC0_7730_4240_8A5D_F70ECB5B78B0 -->
<g id="edge10" class="edge"><title>EAID_576464B1_D180_4564_8449_A83EDEB5B8A7&#45;&gt;EAID_6446CEC0_7730_4240_8A5D_F70ECB5B78B0</title>
<path fill="none" stroke="black" d="M1089.3,-134C1097.75,-134 1106.2,-134 1114.55,-134"/>
<polygon fill="black" stroke="black" points="1114.68,-137.5 1124.68,-134 1114.68,-130.5 1114.68,-137.5"/>
</g>
<!-- EAID_7D277030_E963_4ef1_8E9E_57380825FBBD&#45;&gt;EAID_5A896F7C_E7E8_4e11_9D17_93457CC9AC71 -->
<g id="edge8" class="edge"><title>EAID_7D277030_E963_4ef1_8E9E_57380825FBBD&#45;&gt;EAID_5A896F7C_E7E8_4e11_9D17_93457CC9AC71</title>
<path fill="none" stroke="black" d="M546.323,-143.556C554.856,-142.854 563.394,-142.152 571.751,-141.464"/>
<polygon fill="black" stroke="black" points="572.162,-144.942 581.842,-140.634 571.588,-137.966 572.162,-144.942"/>
</g>
</g>
</svg>
