<?xml version="1.0" encoding="UTF-8" standalone="no"?>
<!DOCTYPE svg PUBLIC "-//W3C//DTD SVG 1.1//EN"
 "http://www.w3.org/Graphics/SVG/1.1/DTD/svg11.dtd">
<!-- Generated by graphviz version 2.38.0 (20140413.2041)
 -->
<!-- Title: g Pages: 1 -->
<svg width="3383pt" height="552pt"
 viewBox="0.00 0.00 3383.00 552.00" xmlns="http://www.w3.org/2000/svg" xmlns:xlink="http://www.w3.org/1999/xlink">
<g id="graph0" class="graph" transform="scale(1 1) rotate(0) translate(4 548)">
<title>g</title>
<polygon fill="white" stroke="none" points="-4,4 -4,-548 3379,-548 3379,4 -4,4"/>
<g id="clust1" class="cluster"><title>cluster0</title>
<polygon fill="none" stroke="black" stroke-width="2" points="19,-8 19,-425 810,-425 810,-8 19,-8"/>
<text text-anchor="start" x="392.5" y="-410.8" font-family="Times New Roman,serif" font-weight="bold" font-size="14.00">System</text>
</g>
<g id="clust2" class="cluster"><title>cluster1</title>
<polygon fill="none" stroke="black" stroke-width="2" points="8,-433 8,-536 634,-536 634,-433 8,-433"/>
<text text-anchor="start" x="293.5" y="-521.8" font-family="Times New Roman,serif" font-weight="bold" font-size="14.00">App user</text>
</g>
<g id="clust3" class="cluster"><title>cluster1000</title>
<polygon fill="none" stroke="black" stroke-width="2" points="818,-22 818,-97 3367,-97 3367,-22 818,-22"/>
<text text-anchor="start" x="2047" y="-82.8" font-family="Times New Roman,serif" font-weight="bold" font-size="14.00">Domain Model</text>
</g>
<!-- EAID_B1636B12_8124_4e9d_BE67_509C4A398FC6___EAID_265385DE_97B5_4ab2_A0B7_DDFB6519AA1E -->
<g id="node1" class="node"><title>EAID_B1636B12_8124_4e9d_BE67_509C4A398FC6___EAID_265385DE_97B5_4ab2_A0B7_DDFB6519AA1E</title>
<image xlink:href="img/activity_icon.png" width="30px" height="20px" preserveAspectRatio="xMinYMin meet" x="704.5" y="-388"/>
<text text-anchor="start" x="647" y="-353.8" font-family="Times New Roman,serif" font-weight="bold" font-size="14.00">App user:display failure</text>
<text text-anchor="start" x="693.5" y="-339.8" font-family="Times New Roman,serif" font-weight="bold" font-size="14.00">message</text>
</g>
<!-- EAID_265385DE_97B5_4ab2_A0B7_DDFB6519AA1E -->
<g id="node17" class="node"><title>EAID_265385DE_97B5_4ab2_A0B7_DDFB6519AA1E</title>
<polygon fill="none" stroke="black" points="3202,-37 3202,-58 3350,-58 3350,-37 3202,-37"/>
<text text-anchor="start" x="3205" y="-44.8" font-family="Times New Roman,serif" font-weight="bold" font-size="14.00">display failure message</text>
<polygon fill="none" stroke="black" points="3201,-36.5 3201,-59.5 3351,-59.5 3351,-36.5 3201,-36.5"/>
</g>
<!-- EAID_B1636B12_8124_4e9d_BE67_509C4A398FC6___EAID_265385DE_97B5_4ab2_A0B7_DDFB6519AA1E&#45;&gt;EAID_265385DE_97B5_4ab2_A0B7_DDFB6519AA1E -->
<g id="edge13" class="edge"><title>EAID_B1636B12_8124_4e9d_BE67_509C4A398FC6___EAID_265385DE_97B5_4ab2_A0B7_DDFB6519AA1E&#45;&gt;EAID_265385DE_97B5_4ab2_A0B7_DDFB6519AA1E</title>
<path fill="none" stroke="black" stroke-dasharray="5,2" d="M801.713,-359.82C1150.84,-354.616 2494.47,-332.263 2680,-294 2901.35,-248.35 3144.51,-122.173 3237.21,-70.9944"/>
<polygon fill="black" stroke="black" points="3238.91,-74.0496 3245.96,-66.137 3235.52,-67.9288 3238.91,-74.0496"/>
</g>
<!-- EAID_B1636B12_8124_4e9d_BE67_509C4A398FC6___EAID_92C9B6EC_F355_4217_96C2_17AAB69A422E -->
<g id="node2" class="node"><title>EAID_B1636B12_8124_4e9d_BE67_509C4A398FC6___EAID_92C9B6EC_F355_4217_96C2_17AAB69A422E</title>
<image xlink:href="img/activity_icon.png" width="30px" height="20px" preserveAspectRatio="xMinYMin meet" x="100.5" y="-388"/>
<text text-anchor="start" x="38" y="-353.8" font-family="Times New Roman,serif" font-weight="bold" font-size="14.00">App user:Registered user</text>
<text text-anchor="start" x="96.5" y="-339.8" font-family="Times New Roman,serif" font-weight="bold" font-size="14.00">popup</text>
</g>
<!-- EAID_92C9B6EC_F355_4217_96C2_17AAB69A422E___EAID_80FF783A_49B3_46fa_B8EC_9C4869690730 -->
<g id="node8" class="node"><title>EAID_92C9B6EC_F355_4217_96C2_17AAB69A422E___EAID_80FF783A_49B3_46fa_B8EC_9C4869690730</title>
<image xlink:href="img/activity_icon.png" width="30px" height="20px" preserveAspectRatio="xMinYMin meet" x="137" y="-288"/>
<text text-anchor="start" x="48" y="-253.8" font-family="Times New Roman,serif" font-weight="bold" font-size="14.00">Registered user popup:Registered</text>
<text text-anchor="start" x="122.5" y="-239.8" font-family="Times New Roman,serif" font-weight="bold" font-size="14.00">user alert</text>
</g>
<!-- EAID_B1636B12_8124_4e9d_BE67_509C4A398FC6___EAID_92C9B6EC_F355_4217_96C2_17AAB69A422E&#45;&gt;EAID_92C9B6EC_F355_4217_96C2_17AAB69A422E___EAID_80FF783A_49B3_46fa_B8EC_9C4869690730 -->
<g id="edge2" class="edge"><title>EAID_B1636B12_8124_4e9d_BE67_509C4A398FC6___EAID_92C9B6EC_F355_4217_96C2_17AAB69A422E&#45;&gt;EAID_92C9B6EC_F355_4217_96C2_17AAB69A422E___EAID_80FF783A_49B3_46fa_B8EC_9C4869690730</title>
<path fill="none" stroke="black" d="M126.707,-329.992C129.879,-321.591 133.36,-312.371 136.698,-303.53"/>
<polygon fill="black" stroke="black" points="139.984,-304.734 140.242,-294.142 133.436,-302.262 139.984,-304.734"/>
</g>
<!-- EAID_B1636B12_8124_4e9d_BE67_509C4A398FC6 -->
<g id="node16" class="node"><title>EAID_B1636B12_8124_4e9d_BE67_509C4A398FC6</title>
<polygon fill="none" stroke="black" points="2975,-37 2975,-58 3036,-58 3036,-37 2975,-37"/>
<text text-anchor="start" x="2978" y="-44.8" font-family="Times New Roman,serif" font-weight="bold" font-size="14.00">App user</text>
<polygon fill="none" stroke="black" points="2973.5,-36.5 2973.5,-59.5 3036.5,-59.5 3036.5,-36.5 2973.5,-36.5"/>
</g>
<!-- EAID_B1636B12_8124_4e9d_BE67_509C4A398FC6___EAID_92C9B6EC_F355_4217_96C2_17AAB69A422E&#45;&gt;EAID_B1636B12_8124_4e9d_BE67_509C4A398FC6 -->
<g id="edge14" class="edge"><title>EAID_B1636B12_8124_4e9d_BE67_509C4A398FC6___EAID_92C9B6EC_F355_4217_96C2_17AAB69A422E&#45;&gt;EAID_B1636B12_8124_4e9d_BE67_509C4A398FC6</title>
<path fill="none" stroke="black" stroke-dasharray="5,2" d="M202.665,-331.736C205.464,-331.108 208.248,-330.526 211,-330 451.174,-284.08 517,-321.255 760,-294 1040.87,-262.498 1114.01,-263.346 1388,-194 1489.38,-168.34 1507.04,-134.31 1610,-116 1683.68,-102.897 2888.06,-126.127 2957,-97 2968.59,-92.1045 2978.86,-82.9472 2986.89,-73.9329"/>
<polygon fill="black" stroke="black" points="2989.65,-76.0858 2993.36,-66.1588 2984.27,-71.6105 2989.65,-76.0858"/>
</g>
<!-- EAID_B1636B12_8124_4e9d_BE67_509C4A398FC6___EAID_0E723912_B847_4f0d_8C8A_8EC4E3B3C261 -->
<g id="node3" class="node"><title>EAID_B1636B12_8124_4e9d_BE67_509C4A398FC6___EAID_0E723912_B847_4f0d_8C8A_8EC4E3B3C261</title>
<image xlink:href="img/activity_icon.png" width="30px" height="20px" preserveAspectRatio="xMinYMin meet" x="289.5" y="-381"/>
<text text-anchor="start" x="231" y="-346.8" font-family="Times New Roman,serif" font-weight="bold" font-size="14.00">App user:Signup Screen</text>
</g>
<!-- EAID_0E723912_B847_4f0d_8C8A_8EC4E3B3C261___EAID_F341E2A8_3624_40e7_8A80_81B2AC896934 -->
<g id="node10" class="node"><title>EAID_0E723912_B847_4f0d_8C8A_8EC4E3B3C261___EAID_F341E2A8_3624_40e7_8A80_81B2AC896934</title>
<image xlink:href="img/activity_icon.png" width="30px" height="20px" preserveAspectRatio="xMinYMin meet" x="648.5" y="-288"/>
<text text-anchor="start" x="585" y="-253.8" font-family="Times New Roman,serif" font-weight="bold" font-size="14.00">Signup Screen:check first</text>
<text text-anchor="start" x="635" y="-239.8" font-family="Times New Roman,serif" font-weight="bold" font-size="14.00">time user</text>
</g>
<!-- EAID_B1636B12_8124_4e9d_BE67_509C4A398FC6___EAID_0E723912_B847_4f0d_8C8A_8EC4E3B3C261&#45;&gt;EAID_0E723912_B847_4f0d_8C8A_8EC4E3B3C261___EAID_F341E2A8_3624_40e7_8A80_81B2AC896934 -->
<g id="edge4" class="edge"><title>EAID_B1636B12_8124_4e9d_BE67_509C4A398FC6___EAID_0E723912_B847_4f0d_8C8A_8EC4E3B3C261&#45;&gt;EAID_0E723912_B847_4f0d_8C8A_8EC4E3B3C261___EAID_F341E2A8_3624_40e7_8A80_81B2AC896934</title>
<path fill="none" stroke="black" d="M375.928,-336.431C383.025,-334.185 390.139,-332.004 397,-330 459.91,-311.624 476.447,-310.008 540,-294 547.981,-291.99 556.254,-289.905 564.563,-287.812"/>
<polygon fill="black" stroke="black" points="565.476,-291.191 574.318,-285.354 563.766,-284.403 565.476,-291.191"/>
</g>
<!-- EAID_0E723912_B847_4f0d_8C8A_8EC4E3B3C261 -->
<g id="node18" class="node"><title>EAID_0E723912_B847_4f0d_8C8A_8EC4E3B3C261</title>
<polygon fill="none" stroke="black" points="3072,-37 3072,-58 3166,-58 3166,-37 3072,-37"/>
<text text-anchor="start" x="3075" y="-44.8" font-family="Times New Roman,serif" font-weight="bold" font-size="14.00">Signup Screen</text>
<polygon fill="none" stroke="black" points="3071,-36.5 3071,-59.5 3167,-59.5 3167,-36.5 3071,-36.5"/>
</g>
<!-- EAID_B1636B12_8124_4e9d_BE67_509C4A398FC6___EAID_0E723912_B847_4f0d_8C8A_8EC4E3B3C261&#45;&gt;EAID_0E723912_B847_4f0d_8C8A_8EC4E3B3C261 -->
<g id="edge15" class="edge"><title>EAID_B1636B12_8124_4e9d_BE67_509C4A398FC6___EAID_0E723912_B847_4f0d_8C8A_8EC4E3B3C261&#45;&gt;EAID_0E723912_B847_4f0d_8C8A_8EC4E3B3C261</title>
<path fill="none" stroke="black" stroke-dasharray="5,2" d="M369.944,-336.441C378.933,-333.855 388.122,-331.593 397,-330 515.289,-308.778 1369.63,-345.958 1478,-294 1511.82,-277.785 1500.04,-247.901 1533,-230 1865.62,-49.3363 1999.73,-146.686 2377,-116 2452,-109.899 2982.86,-121.532 3054,-97 3068.73,-91.9217 3082.91,-82.2173 3094.25,-72.8557"/>
<polygon fill="black" stroke="black" points="3096.7,-75.3627 3101.97,-66.1707 3092.12,-70.0708 3096.7,-75.3627"/>
</g>
<!-- EAID_23CF8016_4C4C_46e6_B4FD_84E288E2FEC7___EAID_63C9FF09_6946_4f93_B689_2513C0FD295F -->
<g id="node4" class="node"><title>EAID_23CF8016_4C4C_46e6_B4FD_84E288E2FEC7___EAID_63C9FF09_6946_4f93_B689_2513C0FD295F</title>
<image xlink:href="img/activity_icon.png" width="30px" height="20px" preserveAspectRatio="xMinYMin meet" x="434.5" y="-74"/>
<text text-anchor="start" x="405" y="-39.8" font-family="Times New Roman,serif" font-weight="bold" font-size="14.00">Query for first</text>
<text text-anchor="start" x="360" y="-25.8" font-family="Times New Roman,serif" font-weight="bold" font-size="14.00">time users:Account collection</text>
</g>
<!-- EAID_63C9FF09_6946_4f93_B689_2513C0FD295F -->
<g id="node19" class="node"><title>EAID_63C9FF09_6946_4f93_B689_2513C0FD295F</title>
<polygon fill="none" stroke="black" points="2820,-37 2820,-58 2939,-58 2939,-37 2820,-37"/>
<text text-anchor="start" x="2823" y="-44.8" font-family="Times New Roman,serif" font-weight="bold" font-size="14.00">Account collection</text>
<polygon fill="none" stroke="black" points="2818.5,-36.5 2818.5,-59.5 2939.5,-59.5 2939.5,-36.5 2818.5,-36.5"/>
</g>
<!-- EAID_23CF8016_4C4C_46e6_B4FD_84E288E2FEC7___EAID_63C9FF09_6946_4f93_B689_2513C0FD295F&#45;&gt;EAID_63C9FF09_6946_4f93_B689_2513C0FD295F -->
<g id="edge16" class="edge"><title>EAID_23CF8016_4C4C_46e6_B4FD_84E288E2FEC7___EAID_63C9FF09_6946_4f93_B689_2513C0FD295F&#45;&gt;EAID_63C9FF09_6946_4f93_B689_2513C0FD295F</title>
<path fill="none" stroke="black" stroke-dasharray="5,2" d="M548.512,-67.8745C623.585,-81.8163 729.303,-99.2164 823,-106.5 877.53,-110.739 2739.68,-122.453 2792,-106.5 2813.94,-99.809 2835.37,-85.5275 2851.46,-72.751"/>
<polygon fill="black" stroke="black" points="2853.86,-75.3074 2859.37,-66.255 2849.42,-69.8986 2853.86,-75.3074"/>
</g>
<!-- EAID_57588212_E614_48e0_8F4A_81BEF06B8020___EAID_23CF8016_4C4C_46e6_B4FD_84E288E2FEC7 -->
<g id="node5" class="node"><title>EAID_57588212_E614_48e0_8F4A_81BEF06B8020___EAID_23CF8016_4C4C_46e6_B4FD_84E288E2FEC7</title>
<image xlink:href="img/activity_icon.png" width="30px" height="20px" preserveAspectRatio="xMinYMin meet" x="344" y="-181"/>
<text text-anchor="start" x="276" y="-146.8" font-family="Times New Roman,serif" font-weight="bold" font-size="14.00">receive response:Query for</text>
<text text-anchor="start" x="313.5" y="-132.8" font-family="Times New Roman,serif" font-weight="bold" font-size="14.00">first time users</text>
</g>
<!-- EAID_57588212_E614_48e0_8F4A_81BEF06B8020___EAID_23CF8016_4C4C_46e6_B4FD_84E288E2FEC7&#45;&gt;EAID_23CF8016_4C4C_46e6_B4FD_84E288E2FEC7___EAID_63C9FF09_6946_4f93_B689_2513C0FD295F -->
<g id="edge6" class="edge"><title>EAID_57588212_E614_48e0_8F4A_81BEF06B8020___EAID_23CF8016_4C4C_46e6_B4FD_84E288E2FEC7&#45;&gt;EAID_23CF8016_4C4C_46e6_B4FD_84E288E2FEC7___EAID_63C9FF09_6946_4f93_B689_2513C0FD295F</title>
<path fill="none" stroke="black" d="M385.759,-122.781C395.106,-111.877 405.715,-99.4987 415.539,-88.0383"/>
<polygon fill="black" stroke="black" points="418.338,-90.1506 422.188,-80.2802 413.023,-85.595 418.338,-90.1506"/>
</g>
<!-- EAID_57588212_E614_48e0_8F4A_81BEF06B8020___EAID_23CF8016_4C4C_46e6_B4FD_84E288E2FEC7&#45;&gt;EAID_B1636B12_8124_4e9d_BE67_509C4A398FC6 -->
<g id="edge17" class="edge"><title>EAID_57588212_E614_48e0_8F4A_81BEF06B8020___EAID_23CF8016_4C4C_46e6_B4FD_84E288E2FEC7&#45;&gt;EAID_B1636B12_8124_4e9d_BE67_509C4A398FC6</title>
<path fill="none" stroke="black" stroke-dasharray="5,2" d="M433.358,-122.933C442.536,-120.104 451.893,-117.677 461,-116 529.189,-103.443 2893.04,-123.777 2957,-97 2968.6,-92.1421 2978.87,-82.9911 2986.91,-73.9713"/>
<polygon fill="black" stroke="black" points="2989.67,-76.1194 2993.37,-66.1898 2984.29,-71.6478 2989.67,-76.1194"/>
</g>
<!-- EAID_F341E2A8_3624_40e7_8A80_81B2AC896934___EAID_23CF8016_4C4C_46e6_B4FD_84E288E2FEC7 -->
<g id="node6" class="node"><title>EAID_F341E2A8_3624_40e7_8A80_81B2AC896934___EAID_23CF8016_4C4C_46e6_B4FD_84E288E2FEC7</title>
<image xlink:href="img/activity_icon.png" width="30px" height="20px" preserveAspectRatio="xMinYMin meet" x="525.5" y="-188"/>
<text text-anchor="start" x="493" y="-153.8" font-family="Times New Roman,serif" font-weight="bold" font-size="14.00">check first time</text>
<text text-anchor="start" x="481" y="-139.8" font-family="Times New Roman,serif" font-weight="bold" font-size="14.00">user:Query for first</text>
<text text-anchor="start" x="509" y="-125.8" font-family="Times New Roman,serif" font-weight="bold" font-size="14.00">time users</text>
</g>
<!-- EAID_F341E2A8_3624_40e7_8A80_81B2AC896934___EAID_23CF8016_4C4C_46e6_B4FD_84E288E2FEC7&#45;&gt;EAID_23CF8016_4C4C_46e6_B4FD_84E288E2FEC7___EAID_63C9FF09_6946_4f93_B689_2513C0FD295F -->
<g id="edge7" class="edge"><title>EAID_F341E2A8_3624_40e7_8A80_81B2AC896934___EAID_23CF8016_4C4C_46e6_B4FD_84E288E2FEC7&#45;&gt;EAID_23CF8016_4C4C_46e6_B4FD_84E288E2FEC7___EAID_63C9FF09_6946_4f93_B689_2513C0FD295F</title>
<path fill="none" stroke="black" d="M506.889,-115.796C499.028,-106.725 490.633,-97.0385 482.744,-87.9359"/>
<polygon fill="black" stroke="black" points="485.162,-85.3818 475.968,-80.1172 479.873,-89.9664 485.162,-85.3818"/>
</g>
<!-- EAID_F341E2A8_3624_40e7_8A80_81B2AC896934___EAID_23CF8016_4C4C_46e6_B4FD_84E288E2FEC7&#45;&gt;EAID_B1636B12_8124_4e9d_BE67_509C4A398FC6 -->
<g id="edge18" class="edge"><title>EAID_F341E2A8_3624_40e7_8A80_81B2AC896934___EAID_23CF8016_4C4C_46e6_B4FD_84E288E2FEC7&#45;&gt;EAID_B1636B12_8124_4e9d_BE67_509C4A398FC6</title>
<path fill="none" stroke="black" stroke-dasharray="5,2" d="M609.622,-118.553C612.753,-117.583 615.887,-116.723 619,-116 682.262,-101.305 2897.1,-122.098 2957,-97 2968.6,-92.1391 2978.87,-82.9876 2986.91,-73.9683"/>
<polygon fill="black" stroke="black" points="2989.67,-76.1168 2993.37,-66.1874 2984.29,-71.6449 2989.67,-76.1168"/>
</g>
<!-- EAID_80FF783A_49B3_46fa_B8EC_9C4869690730___EAID_23CF8016_4C4C_46e6_B4FD_84E288E2FEC7 -->
<g id="node7" class="node"><title>EAID_80FF783A_49B3_46fa_B8EC_9C4869690730___EAID_23CF8016_4C4C_46e6_B4FD_84E288E2FEC7</title>
<image xlink:href="img/activity_icon.png" width="30px" height="20px" preserveAspectRatio="xMinYMin meet" x="137.5" y="-188"/>
<text text-anchor="start" x="67" y="-153.8" font-family="Times New Roman,serif" font-weight="bold" font-size="14.00">Registered user alert:Query</text>
<text text-anchor="start" x="114" y="-139.8" font-family="Times New Roman,serif" font-weight="bold" font-size="14.00">for first time</text>
<text text-anchor="start" x="136" y="-125.8" font-family="Times New Roman,serif" font-weight="bold" font-size="14.00">users</text>
</g>
<!-- EAID_80FF783A_49B3_46fa_B8EC_9C4869690730___EAID_23CF8016_4C4C_46e6_B4FD_84E288E2FEC7&#45;&gt;EAID_23CF8016_4C4C_46e6_B4FD_84E288E2FEC7___EAID_63C9FF09_6946_4f93_B689_2513C0FD295F -->
<g id="edge8" class="edge"><title>EAID_80FF783A_49B3_46fa_B8EC_9C4869690730___EAID_23CF8016_4C4C_46e6_B4FD_84E288E2FEC7&#45;&gt;EAID_23CF8016_4C4C_46e6_B4FD_84E288E2FEC7___EAID_63C9FF09_6946_4f93_B689_2513C0FD295F</title>
<path fill="none" stroke="black" d="M247.553,-119.366C250.739,-118.228 253.895,-117.104 257,-116 287.017,-105.331 319.728,-93.8594 349.504,-83.4761"/>
<polygon fill="black" stroke="black" points="350.77,-86.7414 359.061,-80.1455 348.466,-80.1313 350.77,-86.7414"/>
</g>
<!-- EAID_80FF783A_49B3_46fa_B8EC_9C4869690730___EAID_23CF8016_4C4C_46e6_B4FD_84E288E2FEC7&#45;&gt;EAID_B1636B12_8124_4e9d_BE67_509C4A398FC6 -->
<g id="edge19" class="edge"><title>EAID_80FF783A_49B3_46fa_B8EC_9C4869690730___EAID_23CF8016_4C4C_46e6_B4FD_84E288E2FEC7&#45;&gt;EAID_B1636B12_8124_4e9d_BE67_509C4A398FC6</title>
<path fill="none" stroke="black" stroke-dasharray="5,2" d="M247.77,-117.868C250.865,-117.173 253.947,-116.547 257,-116 330.828,-102.784 2887.81,-125.946 2957,-97 2968.6,-92.1455 2978.88,-82.995 2986.91,-73.9747"/>
<polygon fill="black" stroke="black" points="2989.68,-76.1224 2993.37,-66.1926 2984.29,-71.6512 2989.68,-76.1224"/>
</g>
<!-- EAID_92C9B6EC_F355_4217_96C2_17AAB69A422E___EAID_80FF783A_49B3_46fa_B8EC_9C4869690730&#45;&gt;EAID_80FF783A_49B3_46fa_B8EC_9C4869690730___EAID_23CF8016_4C4C_46e6_B4FD_84E288E2FEC7 -->
<g id="edge9" class="edge"><title>EAID_92C9B6EC_F355_4217_96C2_17AAB69A422E___EAID_80FF783A_49B3_46fa_B8EC_9C4869690730&#45;&gt;EAID_80FF783A_49B3_46fa_B8EC_9C4869690730___EAID_23CF8016_4C4C_46e6_B4FD_84E288E2FEC7</title>
<path fill="none" stroke="black" d="M152,-229.781C152,-221.786 152,-212.999 152,-204.362"/>
<polygon fill="black" stroke="black" points="155.5,-204.348 152,-194.348 148.5,-204.349 155.5,-204.348"/>
</g>
<!-- EAID_92C9B6EC_F355_4217_96C2_17AAB69A422E___EAID_80FF783A_49B3_46fa_B8EC_9C4869690730&#45;&gt;EAID_B1636B12_8124_4e9d_BE67_509C4A398FC6 -->
<g id="edge20" class="edge"><title>EAID_92C9B6EC_F355_4217_96C2_17AAB69A422E___EAID_80FF783A_49B3_46fa_B8EC_9C4869690730&#45;&gt;EAID_B1636B12_8124_4e9d_BE67_509C4A398FC6</title>
<path fill="none" stroke="black" stroke-dasharray="5,2" d="M266.059,-235.491C277.489,-233.422 288.95,-231.539 300,-230 525.497,-198.589 586.177,-229.916 811,-194 951.293,-171.588 980.098,-134.195 1121,-116 1171.58,-109.468 2909.98,-116.761 2957,-97 2968.6,-92.1262 2978.87,-82.9726 2986.9,-73.9552"/>
<polygon fill="black" stroke="black" points="2989.67,-76.1053 2993.36,-66.1768 2984.28,-71.6321 2989.67,-76.1053"/>
</g>
<!-- EAID_57588212_E614_48e0_8F4A_81BEF06B8020___EAID_80FF783A_49B3_46fa_B8EC_9C4869690730 -->
<g id="node9" class="node"><title>EAID_57588212_E614_48e0_8F4A_81BEF06B8020___EAID_80FF783A_49B3_46fa_B8EC_9C4869690730</title>
<image xlink:href="img/activity_icon.png" width="30px" height="20px" preserveAspectRatio="xMinYMin meet" x="405" y="-288"/>
<text text-anchor="start" x="319" y="-253.8" font-family="Times New Roman,serif" font-weight="bold" font-size="14.00">receive response:Registered user</text>
<text text-anchor="start" x="405.5" y="-239.8" font-family="Times New Roman,serif" font-weight="bold" font-size="14.00">alert</text>
</g>
<!-- EAID_57588212_E614_48e0_8F4A_81BEF06B8020___EAID_80FF783A_49B3_46fa_B8EC_9C4869690730&#45;&gt;EAID_80FF783A_49B3_46fa_B8EC_9C4869690730___EAID_23CF8016_4C4C_46e6_B4FD_84E288E2FEC7 -->
<g id="edge10" class="edge"><title>EAID_57588212_E614_48e0_8F4A_81BEF06B8020___EAID_80FF783A_49B3_46fa_B8EC_9C4869690730&#45;&gt;EAID_80FF783A_49B3_46fa_B8EC_9C4869690730___EAID_23CF8016_4C4C_46e6_B4FD_84E288E2FEC7</title>
<path fill="none" stroke="black" d="M340.679,-229.923C314.47,-219.654 284.892,-208.066 257.063,-197.163"/>
<polygon fill="black" stroke="black" points="258.287,-193.883 247.7,-193.494 255.734,-200.401 258.287,-193.883"/>
</g>
<!-- EAID_57588212_E614_48e0_8F4A_81BEF06B8020___EAID_80FF783A_49B3_46fa_B8EC_9C4869690730&#45;&gt;EAID_B1636B12_8124_4e9d_BE67_509C4A398FC6 -->
<g id="edge21" class="edge"><title>EAID_57588212_E614_48e0_8F4A_81BEF06B8020___EAID_80FF783A_49B3_46fa_B8EC_9C4869690730&#45;&gt;EAID_B1636B12_8124_4e9d_BE67_509C4A398FC6</title>
<path fill="none" stroke="black" stroke-dasharray="5,2" d="M531.33,-235.484C542.663,-233.402 554.035,-231.519 565,-230 810.287,-196.024 880.461,-252.83 1121,-194 1204.51,-173.577 1213.98,-134.195 1298,-116 1388.08,-96.4916 2872.05,-132.76 2957,-97 2968.59,-92.1198 2978.86,-82.9652 2986.9,-73.9486"/>
<polygon fill="black" stroke="black" points="2989.66,-76.0995 2993.36,-66.1715 2984.28,-71.6257 2989.66,-76.0995"/>
</g>
<!-- EAID_0E723912_B847_4f0d_8C8A_8EC4E3B3C261___EAID_F341E2A8_3624_40e7_8A80_81B2AC896934&#45;&gt;EAID_F341E2A8_3624_40e7_8A80_81B2AC896934___EAID_23CF8016_4C4C_46e6_B4FD_84E288E2FEC7 -->
<g id="edge11" class="edge"><title>EAID_0E723912_B847_4f0d_8C8A_8EC4E3B3C261___EAID_F341E2A8_3624_40e7_8A80_81B2AC896934&#45;&gt;EAID_F341E2A8_3624_40e7_8A80_81B2AC896934___EAID_23CF8016_4C4C_46e6_B4FD_84E288E2FEC7</title>
<path fill="none" stroke="black" d="M626.429,-229.781C615.842,-220.743 604.069,-210.693 592.705,-200.992"/>
<polygon fill="black" stroke="black" points="594.801,-198.179 584.922,-194.348 590.256,-203.503 594.801,-198.179"/>
</g>
<!-- EAID_F341E2A8_3624_40e7_8A80_81B2AC896934___EAID_0D114C3E_828A_486d_A027_BD8F30AD08AA -->
<g id="node11" class="node"><title>EAID_F341E2A8_3624_40e7_8A80_81B2AC896934___EAID_0D114C3E_828A_486d_A027_BD8F30AD08AA</title>
<image xlink:href="img/activity_icon.png" width="30px" height="20px" preserveAspectRatio="xMinYMin meet" x="700" y="-181"/>
<text text-anchor="start" x="667.5" y="-146.8" font-family="Times New Roman,serif" font-weight="bold" font-size="14.00">check first time</text>
<text text-anchor="start" x="638" y="-132.8" font-family="Times New Roman,serif" font-weight="bold" font-size="14.00">user:Video record screen</text>
</g>
<!-- EAID_0E723912_B847_4f0d_8C8A_8EC4E3B3C261___EAID_F341E2A8_3624_40e7_8A80_81B2AC896934&#45;&gt;EAID_F341E2A8_3624_40e7_8A80_81B2AC896934___EAID_0D114C3E_828A_486d_A027_BD8F30AD08AA -->
<g id="edge12" class="edge"><title>EAID_0E723912_B847_4f0d_8C8A_8EC4E3B3C261___EAID_F341E2A8_3624_40e7_8A80_81B2AC896934&#45;&gt;EAID_F341E2A8_3624_40e7_8A80_81B2AC896934___EAID_0D114C3E_828A_486d_A027_BD8F30AD08AA</title>
<path fill="none" stroke="black" d="M678.461,-229.781C683.653,-219.296 689.521,-207.449 695.01,-196.365"/>
<polygon fill="black" stroke="black" points="698.207,-197.795 699.509,-187.28 691.934,-194.688 698.207,-197.795"/>
</g>
<!-- EAID_0E723912_B847_4f0d_8C8A_8EC4E3B3C261___EAID_F341E2A8_3624_40e7_8A80_81B2AC896934&#45;&gt;EAID_B1636B12_8124_4e9d_BE67_509C4A398FC6 -->
<g id="edge22" class="edge"><title>EAID_0E723912_B847_4f0d_8C8A_8EC4E3B3C261___EAID_F341E2A8_3624_40e7_8A80_81B2AC896934&#45;&gt;EAID_B1636B12_8124_4e9d_BE67_509C4A398FC6</title>
<path fill="none" stroke="black" stroke-dasharray="5,2" d="M751.523,-261.823C876.095,-260.717 1109.03,-250.313 1298,-194 1370.77,-172.315 1376.31,-134.297 1450,-116 1531.26,-95.824 2879.85,-129.529 2957,-97 2968.59,-92.1132 2978.86,-82.9573 2986.9,-73.9418"/>
<polygon fill="black" stroke="black" points="2989.66,-76.0936 2993.36,-66.166 2984.27,-71.6191 2989.66,-76.0936"/>
</g>
<!-- EAID_F341E2A8_3624_40e7_8A80_81B2AC896934___EAID_0D114C3E_828A_486d_A027_BD8F30AD08AA&#45;&gt;EAID_0E723912_B847_4f0d_8C8A_8EC4E3B3C261 -->
<g id="edge23" class="edge"><title>EAID_F341E2A8_3624_40e7_8A80_81B2AC896934___EAID_0D114C3E_828A_486d_A027_BD8F30AD08AA&#45;&gt;EAID_0E723912_B847_4f0d_8C8A_8EC4E3B3C261</title>
<path fill="none" stroke="black" stroke-dasharray="5,2" d="M802.05,-148.792C947.546,-140.317 1249.37,-123.713 1505,-116 1548.01,-114.702 3013.21,-110.706 3054,-97 3068.87,-92.0022 3083.16,-82.2085 3094.53,-72.7638"/>
<polygon fill="black" stroke="black" points="3097.02,-75.232 3102.26,-66.0219 3092.42,-69.956 3097.02,-75.232"/>
</g>
<!-- EAID_57588212_E614_48e0_8F4A_81BEF06B8020___EAID_265385DE_97B5_4ab2_A0B7_DDFB6519AA1E -->
<g id="node12" class="node"><title>EAID_57588212_E614_48e0_8F4A_81BEF06B8020___EAID_265385DE_97B5_4ab2_A0B7_DDFB6519AA1E</title>
<image xlink:href="img/activity_icon.png" width="30px" height="20px" preserveAspectRatio="xMinYMin meet" x="497" y="-388"/>
<text text-anchor="start" x="416" y="-353.8" font-family="Times New Roman,serif" font-weight="bold" font-size="14.00">receive response:display failure</text>
<text text-anchor="start" x="486" y="-339.8" font-family="Times New Roman,serif" font-weight="bold" font-size="14.00">message</text>
</g>
<!-- EAID_57588212_E614_48e0_8F4A_81BEF06B8020___EAID_265385DE_97B5_4ab2_A0B7_DDFB6519AA1E&#45;&gt;EAID_265385DE_97B5_4ab2_A0B7_DDFB6519AA1E -->
<g id="edge24" class="edge"><title>EAID_57588212_E614_48e0_8F4A_81BEF06B8020___EAID_265385DE_97B5_4ab2_A0B7_DDFB6519AA1E&#45;&gt;EAID_265385DE_97B5_4ab2_A0B7_DDFB6519AA1E</title>
<path fill="none" stroke="black" stroke-dasharray="5,2" d="M618.022,-331.495C621.039,-330.953 624.036,-330.453 627,-330 1025.37,-269.177 1131.33,-326.545 1533,-294 2181.04,-241.493 2338.66,-186.459 2985,-116 3073.32,-106.372 3098.81,-122.239 3184,-97 3203.82,-91.1275 3224.36,-80.8754 3240.99,-71.3498"/>
<polygon fill="black" stroke="black" points="3242.95,-74.2547 3249.79,-66.165 3239.4,-68.2225 3242.95,-74.2547"/>
</g>
<!-- EAID_B1636B12_8124_4e9d_BE67_509C4A398FC6___EAID_265385DE_97B5_4ab2_A0B7_DDFB6519AA1E_STL -->
<g id="node13" class="node"><title>EAID_B1636B12_8124_4e9d_BE67_509C4A398FC6___EAID_265385DE_97B5_4ab2_A0B7_DDFB6519AA1E_STL</title>
<image xlink:href="img/stimulus_icon.png" width="30px" height="20px" preserveAspectRatio="xMinYMin meet" x="517.5" y="-499"/>
<text text-anchor="start" x="449" y="-464.8" font-family="Times New Roman,serif" font-weight="bold" font-size="14.00">stl#App user:display failure</text>
<text text-anchor="start" x="506.5" y="-450.8" font-family="Times New Roman,serif" font-weight="bold" font-size="14.00">message</text>
</g>
<!-- EAID_B1636B12_8124_4e9d_BE67_509C4A398FC6___EAID_265385DE_97B5_4ab2_A0B7_DDFB6519AA1E_STL&#45;&gt;EAID_B1636B12_8124_4e9d_BE67_509C4A398FC6___EAID_265385DE_97B5_4ab2_A0B7_DDFB6519AA1E -->
<g id="edge1" class="edge"><title>EAID_B1636B12_8124_4e9d_BE67_509C4A398FC6___EAID_265385DE_97B5_4ab2_A0B7_DDFB6519AA1E_STL&#45;&gt;EAID_B1636B12_8124_4e9d_BE67_509C4A398FC6___EAID_265385DE_97B5_4ab2_A0B7_DDFB6519AA1E</title>
<path fill="none" stroke="black" d="M597.764,-440.895C607.677,-435.797 617.692,-430.407 627,-425 640.252,-417.302 654.155,-408.4 667.022,-399.786"/>
<polygon fill="black" stroke="black" points="668.987,-402.682 675.312,-394.182 665.067,-396.883 668.987,-402.682"/>
</g>
<!-- EAID_B1636B12_8124_4e9d_BE67_509C4A398FC6___EAID_92C9B6EC_F355_4217_96C2_17AAB69A422E_STL -->
<g id="node14" class="node"><title>EAID_B1636B12_8124_4e9d_BE67_509C4A398FC6___EAID_92C9B6EC_F355_4217_96C2_17AAB69A422E_STL</title>
<image xlink:href="img/stimulus_icon.png" width="30px" height="20px" preserveAspectRatio="xMinYMin meet" x="100.5" y="-499"/>
<text text-anchor="start" x="27" y="-464.8" font-family="Times New Roman,serif" font-weight="bold" font-size="14.00">stl#App user:Registered user</text>
<text text-anchor="start" x="96.5" y="-450.8" font-family="Times New Roman,serif" font-weight="bold" font-size="14.00">popup</text>
</g>
<!-- EAID_B1636B12_8124_4e9d_BE67_509C4A398FC6___EAID_92C9B6EC_F355_4217_96C2_17AAB69A422E_STL&#45;&gt;EAID_B1636B12_8124_4e9d_BE67_509C4A398FC6___EAID_92C9B6EC_F355_4217_96C2_17AAB69A422E -->
<g id="edge3" class="edge"><title>EAID_B1636B12_8124_4e9d_BE67_509C4A398FC6___EAID_92C9B6EC_F355_4217_96C2_17AAB69A422E_STL&#45;&gt;EAID_B1636B12_8124_4e9d_BE67_509C4A398FC6___EAID_92C9B6EC_F355_4217_96C2_17AAB69A422E</title>
<path fill="none" stroke="black" d="M115,-440.765C115,-429.477 115,-416.549 115,-404.518"/>
<polygon fill="black" stroke="black" points="118.5,-404.24 115,-394.24 111.5,-404.24 118.5,-404.24"/>
</g>
<!-- EAID_B1636B12_8124_4e9d_BE67_509C4A398FC6___EAID_0E723912_B847_4f0d_8C8A_8EC4E3B3C261_STL -->
<g id="node15" class="node"><title>EAID_B1636B12_8124_4e9d_BE67_509C4A398FC6___EAID_0E723912_B847_4f0d_8C8A_8EC4E3B3C261_STL</title>
<image xlink:href="img/stimulus_icon.png" width="30px" height="20px" preserveAspectRatio="xMinYMin meet" x="311.5" y="-492"/>
<text text-anchor="start" x="242" y="-457.8" font-family="Times New Roman,serif" font-weight="bold" font-size="14.00">stl#App user:Signup Screen</text>
</g>
<!-- EAID_B1636B12_8124_4e9d_BE67_509C4A398FC6___EAID_0E723912_B847_4f0d_8C8A_8EC4E3B3C261_STL&#45;&gt;EAID_B1636B12_8124_4e9d_BE67_509C4A398FC6___EAID_0E723912_B847_4f0d_8C8A_8EC4E3B3C261 -->
<g id="edge5" class="edge"><title>EAID_B1636B12_8124_4e9d_BE67_509C4A398FC6___EAID_0E723912_B847_4f0d_8C8A_8EC4E3B3C261_STL&#45;&gt;EAID_B1636B12_8124_4e9d_BE67_509C4A398FC6___EAID_0E723912_B847_4f0d_8C8A_8EC4E3B3C261</title>
<path fill="none" stroke="black" d="M321.008,-447.266C318.054,-432.633 314.267,-413.87 311.017,-397.765"/>
<polygon fill="black" stroke="black" points="314.382,-396.746 308.972,-387.636 307.52,-398.131 314.382,-396.746"/>
</g>
<!-- EAID_57588212_E614_48e0_8F4A_81BEF06B8020 -->
<g id="node20" class="node"><title>EAID_57588212_E614_48e0_8F4A_81BEF06B8020</title>
<polygon fill="none" stroke="black" points="2675,-37 2675,-58 2783,-58 2783,-37 2675,-37"/>
<text text-anchor="start" x="2678" y="-44.8" font-family="Times New Roman,serif" font-weight="bold" font-size="14.00">receive response</text>
<polygon fill="none" stroke="black" points="2674,-36.5 2674,-59.5 2784,-59.5 2784,-36.5 2674,-36.5"/>
</g>
<!-- EAID_7D9987A0_EE61_4402_84E9_775EF5A002CF -->
<g id="node21" class="node"><title>EAID_7D9987A0_EE61_4402_84E9_775EF5A002CF</title>
<polygon fill="none" stroke="black" points="2546,-37 2546,-58 2639,-58 2639,-37 2546,-37"/>
<text text-anchor="start" x="2549" y="-44.8" font-family="Times New Roman,serif" font-weight="bold" font-size="14.00">Report Poster</text>
<polygon fill="none" stroke="black" points="2544.5,-36.5 2544.5,-59.5 2639.5,-59.5 2639.5,-36.5 2544.5,-36.5"/>
</g>
<!-- EAID_00E1699A_4B0A_487b_9FBD_32AC73BB59F3 -->
<g id="node22" class="node"><title>EAID_00E1699A_4B0A_487b_9FBD_32AC73BB59F3</title>
<polygon fill="none" stroke="black" points="2241,-37 2241,-58 2509,-58 2509,-37 2241,-37"/>
<text text-anchor="start" x="2244" y="-44.8" font-family="Times New Roman,serif" font-weight="bold" font-size="14.00">Capture frame from video and extract LP#</text>
<polygon fill="none" stroke="black" points="2240,-36.5 2240,-59.5 2510,-59.5 2510,-36.5 2240,-36.5"/>
</g>
<!-- EAID_B8C3480D_A766_40ef_81CE_C0CB5E409BAD -->
<g id="node23" class="node"><title>EAID_B8C3480D_A766_40ef_81CE_C0CB5E409BAD</title>
<polygon fill="none" stroke="black" points="2126,-37 2126,-58 2205,-58 2205,-37 2126,-37"/>
<text text-anchor="start" x="2129" y="-44.8" font-family="Times New Roman,serif" font-weight="bold" font-size="14.00">Email client</text>
<polygon fill="none" stroke="black" points="2124.5,-36.5 2124.5,-59.5 2205.5,-59.5 2205.5,-36.5 2124.5,-36.5"/>
</g>
<!-- EAID_06913D99_4EA4_4fd5_854B_1CCA6EDD344C -->
<g id="node24" class="node"><title>EAID_06913D99_4EA4_4fd5_854B_1CCA6EDD344C</title>
<polygon fill="none" stroke="black" points="1903,-37 1903,-58 2090,-58 2090,-37 1903,-37"/>
<text text-anchor="start" x="1906" y="-44.8" font-family="Times New Roman,serif" font-weight="bold" font-size="14.00">Describe LP# in editable field</text>
<polygon fill="none" stroke="black" points="1901.5,-36.5 1901.5,-59.5 2090.5,-59.5 2090.5,-36.5 1901.5,-36.5"/>
</g>
<!-- EAID_6EC92B63_013A_4627_B721_9D2FE777044D -->
<g id="node25" class="node"><title>EAID_6EC92B63_013A_4627_B721_9D2FE777044D</title>
<polygon fill="none" stroke="black" points="1822,-37 1822,-58 1866,-58 1866,-37 1822,-37"/>
<text text-anchor="start" x="1825" y="-44.8" font-family="Times New Roman,serif" font-weight="bold" font-size="14.00">Finish</text>
<polygon fill="none" stroke="black" points="1821,-36.5 1821,-59.5 1867,-59.5 1867,-36.5 1821,-36.5"/>
</g>
<!-- EAID_B872B6DB_6D9B_4b3c_8652_0D748D4769AB -->
<g id="node26" class="node"><title>EAID_B872B6DB_6D9B_4b3c_8652_0D748D4769AB</title>
<polygon fill="none" stroke="black" points="1681,-37 1681,-58 1786,-58 1786,-37 1681,-37"/>
<text text-anchor="start" x="1684" y="-44.8" font-family="Times New Roman,serif" font-weight="bold" font-size="14.00">emergency alert</text>
<polygon fill="none" stroke="black" points="1679.5,-36.5 1679.5,-59.5 1786.5,-59.5 1786.5,-36.5 1679.5,-36.5"/>
</g>
<!-- EAID_9199F281_1979_4dd9_8B39_52FCC0E3A5B3 -->
<g id="node27" class="node"><title>EAID_9199F281_1979_4dd9_8B39_52FCC0E3A5B3</title>
<polygon fill="none" stroke="black" points="1480,-37 1480,-58 1645,-58 1645,-37 1480,-37"/>
<text text-anchor="start" x="1483" y="-44.8" font-family="Times New Roman,serif" font-weight="bold" font-size="14.00">unauthoried access popup</text>
<polygon fill="none" stroke="black" points="1478.5,-36.5 1478.5,-59.5 1645.5,-59.5 1645.5,-36.5 1478.5,-36.5"/>
</g>
<!-- EAID_4B8019F0_C2E6_4083_B3D4_85ED9DEA5A61 -->
<g id="node28" class="node"><title>EAID_4B8019F0_C2E6_4083_B3D4_85ED9DEA5A61</title>
<polygon fill="none" stroke="black" points="1349,-37 1349,-58 1444,-58 1444,-37 1349,-37"/>
<text text-anchor="start" x="1352" y="-44.8" font-family="Times New Roman,serif" font-weight="bold" font-size="14.00">Review Queue</text>
<polygon fill="none" stroke="black" points="1347.5,-36.5 1347.5,-59.5 1444.5,-59.5 1444.5,-36.5 1347.5,-36.5"/>
</g>
<!-- EAID_C1444D2B_1F11_4cea_BAEF_96F023C0C6B3 -->
<g id="node29" class="node"><title>EAID_C1444D2B_1F11_4cea_BAEF_96F023C0C6B3</title>
<polygon fill="none" stroke="black" points="1212,-37 1212,-58 1313,-58 1313,-37 1212,-37"/>
<text text-anchor="start" x="1215" y="-44.8" font-family="Times New Roman,serif" font-weight="bold" font-size="14.00">Circular Buffer</text>
<polygon fill="none" stroke="black" points="1210.5,-36.5 1210.5,-59.5 1313.5,-59.5 1313.5,-36.5 1210.5,-36.5"/>
</g>
<!-- EAID_C0758333_DC7C_42f1_8E1B_E09C3BD020DB -->
<g id="node30" class="node"><title>EAID_C0758333_DC7C_42f1_8E1B_E09C3BD020DB</title>
<polygon fill="none" stroke="black" points="1057,-37 1057,-58 1175,-58 1175,-37 1057,-37"/>
<text text-anchor="start" x="1060" y="-44.8" font-family="Times New Roman,serif" font-weight="bold" font-size="14.00">Upload video clips</text>
<polygon fill="none" stroke="black" points="1056,-36.5 1056,-59.5 1176,-59.5 1176,-36.5 1056,-36.5"/>
</g>
<!-- EAID_DD7C5EE5_303D_4d3d_99A9_54492603DFDD -->
<g id="node31" class="node"><title>EAID_DD7C5EE5_303D_4d3d_99A9_54492603DFDD</title>
<polygon fill="none" stroke="black" points="836,-37 836,-58 1021,-58 1021,-37 836,-37"/>
<text text-anchor="start" x="839" y="-44.8" font-family="Times New Roman,serif" font-weight="bold" font-size="14.00">Stop Recording and store file</text>
<polygon fill="none" stroke="black" points="834.5,-36.5 834.5,-59.5 1021.5,-59.5 1021.5,-36.5 834.5,-36.5"/>
</g>
</g>
</svg>
