<?xml version="1.0" encoding="UTF-8" standalone="no"?>
<!DOCTYPE svg PUBLIC "-//W3C//DTD SVG 1.1//EN"
 "http://www.w3.org/Graphics/SVG/1.1/DTD/svg11.dtd">
<!-- Generated by graphviz version 2.38.0 (20140413.2041)
 -->
<!-- Title: g Pages: 1 -->
<svg width="1933pt" height="629pt"
 viewBox="0.00 0.00 1933.00 628.65" xmlns="http://www.w3.org/2000/svg" xmlns:xlink="http://www.w3.org/1999/xlink">
<g id="graph0" class="graph" transform="scale(1 1) rotate(0) translate(4 624.646)">
<title>g</title>
<polygon fill="white" stroke="none" points="-4,4 -4,-624.646 1929,-624.646 1929,4 -4,4"/>
<!-- EAID_6D75A8B0_BABE_4135_A6E1_FABA1C1AB463 -->
<g id="node1" class="node"><title>EAID_6D75A8B0_BABE_4135_A6E1_FABA1C1AB463</title>
<image xlink:href="img/actor1.png" width="82px" height="90px" preserveAspectRatio="xMinYMin meet" x="35" y="-327.146"/>
<text text-anchor="start" x="10" y="-213.946" font-family="Times New Roman,serif" font-size="24.00">Administrator</text>
</g>
<!-- EAID_B418C678_E77A_4ef0_BA7C_9E69935E359D -->
<g id="node2" class="node"><title>EAID_B418C678_E77A_4ef0_BA7C_9E69935E359D</title>
<image xlink:href="img/boundary3.png" width="115px" height="67px" preserveAspectRatio="xMinYMin meet" x="1523.5" y="-614.146"/>
<text text-anchor="start" x="1445.5" y="-523.946" font-family="Times New Roman,serif" font-size="24.00">case created success message</text>
</g>
<!-- EAID_6D75A8B0_BABE_4135_A6E1_FABA1C1AB463&#45;&gt;EAID_B418C678_E77A_4ef0_BA7C_9E69935E359D -->
<g id="edge1" class="edge"><title>EAID_6D75A8B0_BABE_4135_A6E1_FABA1C1AB463&#45;&gt;EAID_B418C678_E77A_4ef0_BA7C_9E69935E359D</title>
<path fill="none" stroke="black" d="M107.528,-333.438C126.09,-366.126 153.01,-402.985 188,-424.146 542.122,-638.315 698.699,-511.39 1111,-547.146 1215.45,-556.205 1333.39,-560.958 1424.8,-563.445"/>
<polygon fill="black" stroke="black" points="1424.88,-566.948 1434.97,-563.715 1425.07,-559.95 1424.88,-566.948"/>
</g>
<!-- EAID_3645898D_2799_4fdf_B721_93B5284698F5 -->
<g id="node3" class="node"><title>EAID_3645898D_2799_4fdf_B721_93B5284698F5</title>
<image xlink:href="img/boundary3.png" width="115px" height="67px" preserveAspectRatio="xMinYMin meet" x="1197.5" y="-315.146"/>
<text text-anchor="start" x="1121" y="-224.946" font-family="Times New Roman,serif" font-size="24.00">generate a random password</text>
</g>
<!-- EAID_6D75A8B0_BABE_4135_A6E1_FABA1C1AB463&#45;&gt;EAID_3645898D_2799_4fdf_B721_93B5284698F5 -->
<g id="edge2" class="edge"><title>EAID_6D75A8B0_BABE_4135_A6E1_FABA1C1AB463&#45;&gt;EAID_3645898D_2799_4fdf_B721_93B5284698F5</title>
<path fill="none" stroke="black" d="M152.417,-267.146C342.678,-267.146 845.148,-267.146 1100.44,-267.146"/>
<polygon fill="black" stroke="black" points="1100.54,-270.646 1110.54,-267.146 1100.54,-263.646 1100.54,-270.646"/>
</g>
<!-- EAID_F1B9C4A9_5BC2_482d_96C2_02E3214AD083 -->
<g id="node4" class="node"><title>EAID_F1B9C4A9_5BC2_482d_96C2_02E3214AD083</title>
<image xlink:href="img/boundary3.png" width="115px" height="67px" preserveAspectRatio="xMinYMin meet" x="1198" y="-107.146"/>
<text text-anchor="start" x="1126" y="-16.9464" font-family="Times New Roman,serif" font-size="24.00">unauthorized error message</text>
</g>
<!-- EAID_6D75A8B0_BABE_4135_A6E1_FABA1C1AB463&#45;&gt;EAID_F1B9C4A9_5BC2_482d_96C2_02E3214AD083 -->
<g id="edge3" class="edge"><title>EAID_6D75A8B0_BABE_4135_A6E1_FABA1C1AB463&#45;&gt;EAID_F1B9C4A9_5BC2_482d_96C2_02E3214AD083</title>
<path fill="none" stroke="black" d="M109.056,-200.794C127.599,-170.065 154.041,-136.387 188,-118.146 481.747,39.6336 889.051,4.8 1105.26,-29.8557"/>
<polygon fill="black" stroke="black" points="1104.98,-33.3557 1115.41,-31.505 1106.1,-26.4463 1104.98,-33.3557"/>
</g>
<!-- EAID_5D4593FB_28FA_45bd_B091_9FBCEBAE03DD -->
<g id="node5" class="node"><title>EAID_5D4593FB_28FA_45bd_B091_9FBCEBAE03DD</title>
<image xlink:href="img/boundary3.png" width="115px" height="67px" preserveAspectRatio="xMinYMin meet" x="322.5" y="-409.146"/>
<text text-anchor="start" x="198.5" y="-318.946" font-family="Times New Roman,serif" font-size="24.00">username and received password input</text>
</g>
<!-- EAID_6D75A8B0_BABE_4135_A6E1_FABA1C1AB463&#45;&gt;EAID_5D4593FB_28FA_45bd_B091_9FBCEBAE03DD -->
<g id="edge4" class="edge"><title>EAID_6D75A8B0_BABE_4135_A6E1_FABA1C1AB463&#45;&gt;EAID_5D4593FB_28FA_45bd_B091_9FBCEBAE03DD</title>
<path fill="none" stroke="black" d="M152.303,-290.624C165.395,-294.706 179.509,-299.106 194.065,-303.644"/>
<polygon fill="black" stroke="black" points="193.1,-307.009 203.688,-306.645 195.183,-300.327 193.1,-307.009"/>
</g>
<!-- EAID_59FC962E_38E0_4237_86D2_151CD871071F -->
<g id="node6" class="node"><title>EAID_59FC962E_38E0_4237_86D2_151CD871071F</title>
<image xlink:href="img/boundary3.png" width="115px" height="67px" preserveAspectRatio="xMinYMin meet" x="322.5" y="-230.146"/>
<text text-anchor="start" x="293.5" y="-139.946" font-family="Times New Roman,serif" font-size="24.00">Create user button</text>
</g>
<!-- EAID_6D75A8B0_BABE_4135_A6E1_FABA1C1AB463&#45;&gt;EAID_59FC962E_38E0_4237_86D2_151CD871071F -->
<g id="edge5" class="edge"><title>EAID_6D75A8B0_BABE_4135_A6E1_FABA1C1AB463&#45;&gt;EAID_59FC962E_38E0_4237_86D2_151CD871071F</title>
<path fill="none" stroke="black" d="M152.303,-245.917C188.8,-235.627 233.246,-223.097 273.047,-211.876"/>
<polygon fill="black" stroke="black" points="274.115,-215.211 282.79,-209.129 272.216,-208.474 274.115,-215.211"/>
</g>
<!-- EAID_73882F11_53D4_4de8_8044_B2E772E232B6 -->
<g id="node7" class="node"><title>EAID_73882F11_53D4_4de8_8044_B2E772E232B6</title>
<image xlink:href="img/control1.png" width="106px" height="75px" preserveAspectRatio="xMinYMin meet" x="1528" y="-319.146"/>
<text text-anchor="start" x="1507.5" y="-220.946" font-family="Times New Roman,serif" font-size="24.00">email password</text>
</g>
<!-- EAID_3645898D_2799_4fdf_B721_93B5284698F5&#45;&gt;EAID_73882F11_53D4_4de8_8044_B2E772E232B6 -->
<g id="edge12" class="edge"><title>EAID_3645898D_2799_4fdf_B721_93B5284698F5&#45;&gt;EAID_73882F11_53D4_4de8_8044_B2E772E232B6</title>
<path fill="none" stroke="black" d="M1399.3,-267.146C1428.83,-267.146 1459.18,-267.146 1486.36,-267.146"/>
<polygon fill="black" stroke="black" points="1486.61,-270.646 1496.61,-267.146 1486.61,-263.646 1486.61,-270.646"/>
</g>
<!-- EAID_0BC4F946_D45F_43b6_BF0F_823684ECBA5A -->
<g id="node12" class="node"><title>EAID_0BC4F946_D45F_43b6_BF0F_823684ECBA5A</title>
<image xlink:href="img/control1.png" width="106px" height="75px" preserveAspectRatio="xMinYMin meet" x="788" y="-423.146"/>
<text text-anchor="start" x="617" y="-324.946" font-family="Times New Roman,serif" font-size="24.00">insert username and received password into DB</text>
</g>
<!-- EAID_5D4593FB_28FA_45bd_B091_9FBCEBAE03DD&#45;&gt;EAID_0BC4F946_D45F_43b6_BF0F_823684ECBA5A -->
<g id="edge14" class="edge"><title>EAID_5D4593FB_28FA_45bd_B091_9FBCEBAE03DD&#45;&gt;EAID_0BC4F946_D45F_43b6_BF0F_823684ECBA5A</title>
<path fill="none" stroke="black" d="M571.045,-365.293C579.558,-365.478 588.144,-365.665 596.756,-365.853"/>
<polygon fill="black" stroke="black" points="596.8,-369.354 606.874,-366.073 596.953,-362.356 596.8,-369.354"/>
</g>
<!-- EAID_42F67611_6F47_4a3e_8374_A08043B1CE3B -->
<g id="node11" class="node"><title>EAID_42F67611_6F47_4a3e_8374_A08043B1CE3B</title>
<image xlink:href="img/control1.png" width="106px" height="75px" preserveAspectRatio="xMinYMin meet" x="788.5" y="-224.146"/>
<text text-anchor="start" x="747" y="-125.946" font-family="Times New Roman,serif" font-size="24.00">validate role of user</text>
</g>
<!-- EAID_59FC962E_38E0_4237_86D2_151CD871071F&#45;&gt;EAID_42F67611_6F47_4a3e_8374_A08043B1CE3B -->
<g id="edge8" class="edge"><title>EAID_59FC962E_38E0_4237_86D2_151CD871071F&#45;&gt;EAID_42F67611_6F47_4a3e_8374_A08043B1CE3B</title>
<path fill="none" stroke="black" d="M476.267,-180.062C549.014,-178.479 649.308,-176.296 726.158,-174.624"/>
<polygon fill="black" stroke="black" points="726.442,-178.119 736.363,-174.402 726.29,-171.12 726.442,-178.119"/>
</g>
<!-- EAID_AF42834F_D50C_4bd2_AF00_A3B5C47BB4B2 -->
<g id="node8" class="node"><title>EAID_AF42834F_D50C_4bd2_AF00_A3B5C47BB4B2</title>
<image xlink:href="img/actor1.png" width="82px" height="90px" preserveAspectRatio="xMinYMin meet" x="1803" y="-327.146"/>
<text text-anchor="start" x="1772.5" y="-213.946" font-family="Times New Roman,serif" font-size="24.00">Email protocol</text>
</g>
<!-- EAID_73882F11_53D4_4de8_8044_B2E772E232B6&#45;&gt;EAID_AF42834F_D50C_4bd2_AF00_A3B5C47BB4B2 -->
<g id="edge6" class="edge"><title>EAID_73882F11_53D4_4de8_8044_B2E772E232B6&#45;&gt;EAID_AF42834F_D50C_4bd2_AF00_A3B5C47BB4B2</title>
<path fill="none" stroke="black" d="M1664.08,-267.146C1691.88,-267.146 1723.05,-267.146 1751.46,-267.146"/>
<polygon fill="black" stroke="black" points="1751.79,-270.646 1761.79,-267.146 1751.79,-263.646 1751.79,-270.646"/>
</g>
<!-- EAID_43BB6BD8_FDF3_4308_9F70_C394DD9B1CB7 -->
<g id="node9" class="node"><title>EAID_43BB6BD8_FDF3_4308_9F70_C394DD9B1CB7</title>
<image xlink:href="img/control1.png" width="106px" height="75px" preserveAspectRatio="xMinYMin meet" x="1202" y="-531.146"/>
<text text-anchor="start" x="1139" y="-432.946" font-family="Times New Roman,serif" font-size="24.00">create a case for the user</text>
</g>
<!-- EAID_43BB6BD8_FDF3_4308_9F70_C394DD9B1CB7&#45;&gt;EAID_B418C678_E77A_4ef0_BA7C_9E69935E359D -->
<g id="edge10" class="edge"><title>EAID_43BB6BD8_FDF3_4308_9F70_C394DD9B1CB7&#45;&gt;EAID_B418C678_E77A_4ef0_BA7C_9E69935E359D</title>
<path fill="none" stroke="black" d="M1381.07,-512.783C1395.51,-516.666 1410.36,-520.66 1425.13,-524.632"/>
<polygon fill="black" stroke="black" points="1424.25,-528.02 1434.82,-527.237 1426.07,-521.26 1424.25,-528.02"/>
</g>
<!-- EAID_D00602AA_A312_483f_A8F0_67833B6B6D13 -->
<g id="node10" class="node"><title>EAID_D00602AA_A312_483f_A8F0_67833B6B6D13</title>
<image xlink:href="img/activity_icon.png" width="30px" height="20px" preserveAspectRatio="xMinYMin meet" x="1566" y="-487.146"/>
<text text-anchor="start" x="1556.5" y="-444.946" font-family="Times New Roman,serif" font-weight="bold" font-size="24.00">Case</text>
</g>
<!-- EAID_43BB6BD8_FDF3_4308_9F70_C394DD9B1CB7&#45;&gt;EAID_D00602AA_A312_483f_A8F0_67833B6B6D13 -->
<g id="edge7" class="edge"><title>EAID_43BB6BD8_FDF3_4308_9F70_C394DD9B1CB7&#45;&gt;EAID_D00602AA_A312_483f_A8F0_67833B6B6D13</title>
<path fill="none" stroke="black" d="M1381.07,-472.574C1435.59,-469.709 1495.97,-466.536 1535.64,-464.451"/>
<polygon fill="black" stroke="black" points="1535.96,-467.939 1545.76,-463.919 1535.59,-460.949 1535.96,-467.939"/>
</g>
<!-- EAID_42F67611_6F47_4a3e_8374_A08043B1CE3B&#45;&gt;EAID_3645898D_2799_4fdf_B721_93B5284698F5 -->
<g id="edge13" class="edge"><title>EAID_42F67611_6F47_4a3e_8374_A08043B1CE3B&#45;&gt;EAID_3645898D_2799_4fdf_B721_93B5284698F5</title>
<path fill="none" stroke="black" d="M945.699,-196.058C992.727,-206.901 1049.29,-219.943 1101.05,-231.879"/>
<polygon fill="black" stroke="black" points="1100.47,-235.336 1111,-234.172 1102.04,-228.515 1100.47,-235.336"/>
</g>
<!-- EAID_42F67611_6F47_4a3e_8374_A08043B1CE3B&#45;&gt;EAID_F1B9C4A9_5BC2_482d_96C2_02E3214AD083 -->
<g id="edge16" class="edge"><title>EAID_42F67611_6F47_4a3e_8374_A08043B1CE3B&#45;&gt;EAID_F1B9C4A9_5BC2_482d_96C2_02E3214AD083</title>
<path fill="none" stroke="black" d="M945.699,-143.705C994.059,-130.441 1052.5,-114.413 1105.44,-99.8927"/>
<polygon fill="black" stroke="black" points="1106.54,-103.221 1115.26,-97.2001 1104.69,-96.4698 1106.54,-103.221"/>
</g>
<!-- EAID_B56E16A8_5607_4264_AE5F_F10C5E64AC80 -->
<g id="node14" class="node"><title>EAID_B56E16A8_5607_4264_AE5F_F10C5E64AC80</title>
<image xlink:href="img/activity_icon.png" width="30px" height="20px" preserveAspectRatio="xMinYMin meet" x="1240" y="-188.146"/>
<text text-anchor="start" x="1235" y="-145.946" font-family="Times New Roman,serif" font-weight="bold" font-size="24.00">role</text>
</g>
<!-- EAID_42F67611_6F47_4a3e_8374_A08043B1CE3B&#45;&gt;EAID_B56E16A8_5607_4264_AE5F_F10C5E64AC80 -->
<g id="edge15" class="edge"><title>EAID_42F67611_6F47_4a3e_8374_A08043B1CE3B&#45;&gt;EAID_B56E16A8_5607_4264_AE5F_F10C5E64AC80</title>
<path fill="none" stroke="black" d="M945.699,-169.881C1033.13,-167.971 1153.51,-165.342 1214.76,-164.003"/>
<polygon fill="black" stroke="black" points="1214.86,-167.502 1224.78,-163.785 1214.71,-160.504 1214.86,-167.502"/>
</g>
<!-- EAID_0BC4F946_D45F_43b6_BF0F_823684ECBA5A&#45;&gt;EAID_43BB6BD8_FDF3_4308_9F70_C394DD9B1CB7 -->
<g id="edge11" class="edge"><title>EAID_0BC4F946_D45F_43b6_BF0F_823684ECBA5A&#45;&gt;EAID_43BB6BD8_FDF3_4308_9F70_C394DD9B1CB7</title>
<path fill="none" stroke="black" d="M1065.18,-429.651C1083.39,-434.423 1101.41,-439.148 1118.69,-443.676"/>
<polygon fill="black" stroke="black" points="1118.2,-447.167 1128.76,-446.317 1119.98,-440.396 1118.2,-447.167"/>
</g>
<!-- EAID_B7098A75_0F98_44d1_9DFB_5A1115F550B4 -->
<g id="node13" class="node"><title>EAID_B7098A75_0F98_44d1_9DFB_5A1115F550B4</title>
<image xlink:href="img/activity_icon.png" width="30px" height="20px" preserveAspectRatio="xMinYMin meet" x="1240" y="-396.146"/>
<text text-anchor="start" x="1231" y="-353.946" font-family="Times New Roman,serif" font-weight="bold" font-size="24.00">User</text>
</g>
<!-- EAID_0BC4F946_D45F_43b6_BF0F_823684ECBA5A&#45;&gt;EAID_B7098A75_0F98_44d1_9DFB_5A1115F550B4 -->
<g id="edge9" class="edge"><title>EAID_0BC4F946_D45F_43b6_BF0F_823684ECBA5A&#45;&gt;EAID_B7098A75_0F98_44d1_9DFB_5A1115F550B4</title>
<path fill="none" stroke="black" d="M1075.09,-371.146C1127,-371.146 1176.59,-371.146 1210.33,-371.146"/>
<polygon fill="black" stroke="black" points="1210.71,-374.646 1220.71,-371.146 1210.71,-367.646 1210.71,-374.646"/>
</g>
</g>
</svg>
