<?xml version="1.0" encoding="UTF-8" standalone="no"?>
<!DOCTYPE svg PUBLIC "-//W3C//DTD SVG 1.1//EN"
 "http://www.w3.org/Graphics/SVG/1.1/DTD/svg11.dtd">
<!-- Generated by graphviz version 2.38.0 (20140413.2041)
 -->
<!-- Title: class_diagram Pages: 1 -->
<svg width="12235pt" height="45pt"
 viewBox="0.00 0.00 12235.00 45.00" xmlns="http://www.w3.org/2000/svg" xmlns:xlink="http://www.w3.org/1999/xlink">
<g id="graph0" class="graph" transform="scale(1 1) rotate(0) translate(4 41)">
<title>class_diagram</title>
<polygon fill="white" stroke="none" points="-4,4 -4,-41 12231,-41 12231,4 -4,4"/>
<!-- EAID_2131AFB0_4F0E_4197_AA82_EAC74180A520 -->
<g id="EAID_2131AFB0_4F0E_4197_AA82_EAC74180A520" class="node"><title>EAID_2131AFB0_4F0E_4197_AA82_EAC74180A520</title>
<polygon fill="none" stroke="black" points="0,-0.5 0,-36.5 54,-36.5 54,-0.5 0,-0.5"/>
<text text-anchor="middle" x="27" y="-16.6" font-family="Times New Roman,serif" font-size="8.00">User</text>
</g>
<!-- EAID_7A60B82A_7E49_4a91_896C_88036575E0B9 -->
<g id="EAID_7A60B82A_7E49_4a91_896C_88036575E0B9" class="node"><title>EAID_7A60B82A_7E49_4a91_896C_88036575E0B9</title>
<polygon fill="none" stroke="black" points="72,-0.5 72,-36.5 134,-36.5 134,-0.5 72,-0.5"/>
<text text-anchor="middle" x="103" y="-16.6" font-family="Times New Roman,serif" font-size="8.00">Hashtag icon</text>
</g>
<!-- EAID_0C9775C5_EF89_47f8_97E3_A9DAFF21F116 -->
<g id="EAID_0C9775C5_EF89_47f8_97E3_A9DAFF21F116" class="node"><title>EAID_0C9775C5_EF89_47f8_97E3_A9DAFF21F116</title>
<polygon fill="none" stroke="black" points="152,-0.5 152,-36.5 214,-36.5 214,-0.5 152,-0.5"/>
<text text-anchor="middle" x="183" y="-16.6" font-family="Times New Roman,serif" font-size="8.00">Search Result</text>
</g>
<!-- EAID_8DBE2134_9467_4e29_9E75_191ACC14F020 -->
<g id="EAID_8DBE2134_9467_4e29_9E75_191ACC14F020" class="node"><title>EAID_8DBE2134_9467_4e29_9E75_191ACC14F020</title>
<polygon fill="none" stroke="black" points="232,-0.5 232,-36.5 312,-36.5 312,-0.5 232,-0.5"/>
<text text-anchor="middle" x="272" y="-16.6" font-family="Times New Roman,serif" font-size="8.00">Hashtag input box</text>
</g>
<!-- EAID_5D796940_815A_4ec8_A040_583FA48AA027 -->
<g id="EAID_5D796940_815A_4ec8_A040_583FA48AA027" class="node"><title>EAID_5D796940_815A_4ec8_A040_583FA48AA027</title>
<polygon fill="none" stroke="black" points="330,-0.5 330,-36.5 400,-36.5 400,-0.5 330,-0.5"/>
<text text-anchor="middle" x="365" y="-16.6" font-family="Times New Roman,serif" font-size="8.00">Picture Display</text>
</g>
<!-- EAID_2478B80E_C6C0_4591_BA4D_52AF1E9F3BBD -->
<g id="EAID_2478B80E_C6C0_4591_BA4D_52AF1E9F3BBD" class="node"><title>EAID_2478B80E_C6C0_4591_BA4D_52AF1E9F3BBD</title>
<polygon fill="none" stroke="black" points="418,-0.5 418,-36.5 518,-36.5 518,-0.5 418,-0.5"/>
<text text-anchor="middle" x="468" y="-16.6" font-family="Times New Roman,serif" font-size="8.00">Show hashtag text input</text>
</g>
<!-- EAID_4500676D_20B3_447d_BA9D_6389D423D147 -->
<g id="EAID_4500676D_20B3_447d_BA9D_6389D423D147" class="node"><title>EAID_4500676D_20B3_447d_BA9D_6389D423D147</title>
<polygon fill="none" stroke="black" points="536,-0.5 536,-36.5 590,-36.5 590,-0.5 536,-0.5"/>
<text text-anchor="middle" x="563" y="-16.6" font-family="Times New Roman,serif" font-size="8.00">Search</text>
</g>
<!-- EAID_F9516FA4_8479_4d22_96F3_C7014AC8173B -->
<g id="EAID_F9516FA4_8479_4d22_96F3_C7014AC8173B" class="node"><title>EAID_F9516FA4_8479_4d22_96F3_C7014AC8173B</title>
<polygon fill="none" stroke="black" points="608,-0.5 608,-36.5 714,-36.5 714,-0.5 608,-0.5"/>
<text text-anchor="middle" x="661" y="-16.6" font-family="Times New Roman,serif" font-size="8.00">shows the pictures clicked</text>
</g>
<!-- EAID_FAD06F83_2124_4ea0_B3F2_11B46DDF9956 -->
<g id="EAID_FAD06F83_2124_4ea0_B3F2_11B46DDF9956" class="node"><title>EAID_FAD06F83_2124_4ea0_B3F2_11B46DDF9956</title>
<polygon fill="none" stroke="black" points="732,-0.5 732,-36.5 786,-36.5 786,-0.5 732,-0.5"/>
<text text-anchor="middle" x="759" y="-16.6" font-family="Times New Roman,serif" font-size="8.00">Picture</text>
</g>
<!-- EAID_497AAA87_FC86_49b7_A9F0_B6FADC17187F -->
<g id="EAID_497AAA87_FC86_49b7_A9F0_B6FADC17187F" class="node"><title>EAID_497AAA87_FC86_49b7_A9F0_B6FADC17187F</title>
<polygon fill="none" stroke="black" points="804.5,-0.5 804.5,-36.5 899.5,-36.5 899.5,-0.5 804.5,-0.5"/>
<text text-anchor="middle" x="852" y="-16.6" font-family="Times New Roman,serif" font-size="8.00">shows the search result</text>
</g>
<!-- EAID_99926B45_70E1_4c47_A808_6DC84402E056 -->
<g id="EAID_99926B45_70E1_4c47_A808_6DC84402E056" class="node"><title>EAID_99926B45_70E1_4c47_A808_6DC84402E056</title>
<polygon fill="none" stroke="black" points="917.5,-0.5 917.5,-36.5 994.5,-36.5 994.5,-0.5 917.5,-0.5"/>
<text text-anchor="middle" x="956" y="-16.6" font-family="Times New Roman,serif" font-size="8.00">user list filter box</text>
</g>
<!-- EAID_C27A1332_DE65_4837_B61E_830EED72E092 -->
<g id="EAID_C27A1332_DE65_4837_B61E_830EED72E092" class="node"><title>EAID_C27A1332_DE65_4837_B61E_830EED72E092</title>
<polygon fill="none" stroke="black" points="1012.5,-0.5 1012.5,-36.5 1101.5,-36.5 1101.5,-0.5 1012.5,-0.5"/>
<text text-anchor="middle" x="1057" y="-16.6" font-family="Times New Roman,serif" font-size="8.00">Filtered List of Users</text>
</g>
<!-- EAID_55A08FD3_D5D2_453a_8D9F_76DDFD784A35 -->
<g id="EAID_55A08FD3_D5D2_453a_8D9F_76DDFD784A35" class="node"><title>EAID_55A08FD3_D5D2_453a_8D9F_76DDFD784A35</title>
<polygon fill="none" stroke="black" points="1119.5,-0.5 1119.5,-36.5 1220.5,-36.5 1220.5,-0.5 1119.5,-0.5"/>
<text text-anchor="middle" x="1170" y="-16.6" font-family="Times New Roman,serif" font-size="8.00">Query Users List Button</text>
</g>
<!-- EAID_E2364D8F_64A6_451f_9D46_772CE0E20809 -->
<g id="EAID_E2364D8F_64A6_451f_9D46_772CE0E20809" class="node"><title>EAID_E2364D8F_64A6_451f_9D46_772CE0E20809</title>
<polygon fill="none" stroke="black" points="1239,-0.5 1239,-36.5 1293,-36.5 1293,-0.5 1239,-0.5"/>
<text text-anchor="middle" x="1266" y="-16.6" font-family="Times New Roman,serif" font-size="8.00">Filter users</text>
</g>
<!-- EAID_F1966B12_A269_4a4e_9BB9_A9C18BE24D3A -->
<g id="EAID_F1966B12_A269_4a4e_9BB9_A9C18BE24D3A" class="node"><title>EAID_F1966B12_A269_4a4e_9BB9_A9C18BE24D3A</title>
<polygon fill="none" stroke="black" points="1311,-0.5 1311,-36.5 1375,-36.5 1375,-0.5 1311,-0.5"/>
<text text-anchor="middle" x="1343" y="-16.6" font-family="Times New Roman,serif" font-size="8.00">query user list</text>
</g>
<!-- EAID_DA710FF5_4864_4508_9515_B8A307934E10 -->
<g id="EAID_DA710FF5_4864_4508_9515_B8A307934E10" class="node"><title>EAID_DA710FF5_4864_4508_9515_B8A307934E10</title>
<polygon fill="none" stroke="black" points="1393,-0.5 1393,-36.5 1447,-36.5 1447,-0.5 1393,-0.5"/>
<text text-anchor="middle" x="1420" y="-16.6" font-family="Times New Roman,serif" font-size="8.00">Admin</text>
</g>
<!-- EAID_E7F3CADE_303C_48f1_82D7_E5D23E66EA9B -->
<g id="EAID_E7F3CADE_303C_48f1_82D7_E5D23E66EA9B" class="node"><title>EAID_E7F3CADE_303C_48f1_82D7_E5D23E66EA9B</title>
<polygon fill="none" stroke="black" points="1465,-0.5 1465,-36.5 1551,-36.5 1551,-0.5 1465,-0.5"/>
<text text-anchor="middle" x="1508" y="-16.6" font-family="Times New Roman,serif" font-size="8.00">System Setting Page</text>
</g>
<!-- EAID_70D54060_39F2_453d_B041_7C17C4C35591 -->
<g id="EAID_70D54060_39F2_453d_B041_7C17C4C35591" class="node"><title>EAID_70D54060_39F2_453d_B041_7C17C4C35591</title>
<polygon fill="none" stroke="black" points="1569.5,-0.5 1569.5,-36.5 1680.5,-36.5 1680.5,-0.5 1569.5,-0.5"/>
<text text-anchor="middle" x="1625" y="-16.6" font-family="Times New Roman,serif" font-size="8.00">Click system setting button</text>
</g>
<!-- EAID_5101F251_2FBE_4420_94FF_02CB5A6929A1 -->
<g id="EAID_5101F251_2FBE_4420_94FF_02CB5A6929A1" class="node"><title>EAID_5101F251_2FBE_4420_94FF_02CB5A6929A1</title>
<polygon fill="none" stroke="black" points="1699,-0.5 1699,-36.5 1803,-36.5 1803,-0.5 1699,-0.5"/>
<text text-anchor="middle" x="1751" y="-16.6" font-family="Times New Roman,serif" font-size="8.00">Load system setting page</text>
</g>
<!-- EAID_B27A6C70_3A85_4222_B258_1AFE855DEC93 -->
<g id="EAID_B27A6C70_3A85_4222_B258_1AFE855DEC93" class="node"><title>EAID_B27A6C70_3A85_4222_B258_1AFE855DEC93</title>
<polygon fill="none" stroke="black" points="1821.5,-0.5 1821.5,-36.5 1912.5,-36.5 1912.5,-0.5 1821.5,-0.5"/>
<text text-anchor="middle" x="1867" y="-16.6" font-family="Times New Roman,serif" font-size="8.00">Store System Settings</text>
</g>
<!-- EAID_D2A9840E_22BF_42ef_B2F9_36AF1BBE6859 -->
<g id="EAID_D2A9840E_22BF_42ef_B2F9_36AF1BBE6859" class="node"><title>EAID_D2A9840E_22BF_42ef_B2F9_36AF1BBE6859</title>
<polygon fill="none" stroke="black" points="1930.5,-0.5 1930.5,-36.5 2001.5,-36.5 2001.5,-0.5 1930.5,-0.5"/>
<text text-anchor="middle" x="1966" y="-16.6" font-family="Times New Roman,serif" font-size="8.00">System Settings</text>
</g>
<!-- EAID_F313F557_21C2_4e7f_A89E_53985F2C4313 -->
<g id="EAID_F313F557_21C2_4e7f_A89E_53985F2C4313" class="node"><title>EAID_F313F557_21C2_4e7f_A89E_53985F2C4313</title>
<polygon fill="none" stroke="black" points="2019.5,-0.5 2019.5,-36.5 2176.5,-36.5 2176.5,-0.5 2019.5,-0.5"/>
<text text-anchor="middle" x="2098" y="-16.6" font-family="Times New Roman,serif" font-size="8.00">Private Event Name and Password Input</text>
</g>
<!-- EAID_1D076F35_83D3_43de_970A_2FB0965094FC -->
<g id="EAID_1D076F35_83D3_43de_970A_2FB0965094FC" class="node"><title>EAID_1D076F35_83D3_43de_970A_2FB0965094FC</title>
<polygon fill="none" stroke="black" points="2194.5,-0.5 2194.5,-36.5 2331.5,-36.5 2331.5,-0.5 2194.5,-0.5"/>
<text text-anchor="middle" x="2263" y="-16.6" font-family="Times New Roman,serif" font-size="8.00">Warning Information of Duplicate</text>
</g>
<!-- EAID_AEB4D01E_09BB_4610_9F37_9496B06C4AC8 -->
<g id="EAID_AEB4D01E_09BB_4610_9F37_9496B06C4AC8" class="node"><title>EAID_AEB4D01E_09BB_4610_9F37_9496B06C4AC8</title>
<polygon fill="none" stroke="black" points="2349.5,-0.5 2349.5,-36.5 2478.5,-36.5 2478.5,-0.5 2349.5,-0.5"/>
<text text-anchor="middle" x="2414" y="-16.6" font-family="Times New Roman,serif" font-size="8.00">Check the presence of the event</text>
</g>
<!-- EAID_F3CCFE80_92B8_44de_8173_0BA6BD5D3FED -->
<g id="EAID_F3CCFE80_92B8_44de_8173_0BA6BD5D3FED" class="node"><title>EAID_F3CCFE80_92B8_44de_8173_0BA6BD5D3FED</title>
<polygon fill="none" stroke="black" points="2496.5,-0.5 2496.5,-36.5 2597.5,-36.5 2597.5,-0.5 2496.5,-0.5"/>
<text text-anchor="middle" x="2547" y="-16.6" font-family="Times New Roman,serif" font-size="8.00">Create the private event</text>
</g>
<!-- EAID_5B4CC338_6651_49fa_95B6_A4A6669E7688 -->
<g id="EAID_5B4CC338_6651_49fa_95B6_A4A6669E7688" class="node"><title>EAID_5B4CC338_6651_49fa_95B6_A4A6669E7688</title>
<polygon fill="none" stroke="black" points="2616,-0.5 2616,-36.5 2670,-36.5 2670,-0.5 2616,-0.5"/>
<text text-anchor="middle" x="2643" y="-16.6" font-family="Times New Roman,serif" font-size="8.00">Event</text>
</g>
<!-- EAID_CEBF0AD1_79FA_44dd_B9C2_D1143B582174 -->
<g id="EAID_CEBF0AD1_79FA_44dd_B9C2_D1143B582174" class="node"><title>EAID_CEBF0AD1_79FA_44dd_B9C2_D1143B582174</title>
<polygon fill="none" stroke="black" points="2688,-0.5 2688,-36.5 2790,-36.5 2790,-0.5 2688,-0.5"/>
<text text-anchor="middle" x="2739" y="-16.6" font-family="Times New Roman,serif" font-size="8.00">Public Event Name Field</text>
</g>
<!-- EAID_71972135_7816_413d_A2EF_4567E2D3AC52 -->
<g id="EAID_71972135_7816_413d_A2EF_4567E2D3AC52" class="node"><title>EAID_71972135_7816_413d_A2EF_4567E2D3AC52</title>
<polygon fill="none" stroke="black" points="2808,-0.5 2808,-36.5 2924,-36.5 2924,-0.5 2808,-0.5"/>
<text text-anchor="middle" x="2866" y="-16.6" font-family="Times New Roman,serif" font-size="8.00">Check presence of the event</text>
</g>
<!-- EAID_B0AEC28E_127A_42a0_9C47_C70ED9DE9DF4 -->
<g id="EAID_B0AEC28E_127A_42a0_9C47_C70ED9DE9DF4" class="node"><title>EAID_B0AEC28E_127A_42a0_9C47_C70ED9DE9DF4</title>
<polygon fill="none" stroke="black" points="2942.5,-0.5 2942.5,-36.5 3039.5,-36.5 3039.5,-0.5 2942.5,-0.5"/>
<text text-anchor="middle" x="2991" y="-16.6" font-family="Times New Roman,serif" font-size="8.00">Create the public event</text>
</g>
<!-- EAID_A9127DCF_DAD6_4443_8194_3D868DA70ACE -->
<g id="EAID_A9127DCF_DAD6_4443_8194_3D868DA70ACE" class="node"><title>EAID_A9127DCF_DAD6_4443_8194_3D868DA70ACE</title>
<polygon fill="none" stroke="black" points="3057.5,-0.5 3057.5,-36.5 3118.5,-36.5 3118.5,-0.5 3057.5,-0.5"/>
<text text-anchor="middle" x="3088" y="-16.6" font-family="Times New Roman,serif" font-size="8.00">Public Event</text>
</g>
<!-- EAID_2346F5DF_4EBD_439b_AD06_E4EE7CF757B9 -->
<g id="EAID_2346F5DF_4EBD_439b_AD06_E4EE7CF757B9" class="node"><title>EAID_2346F5DF_4EBD_439b_AD06_E4EE7CF757B9</title>
<polygon fill="none" stroke="black" points="3137,-0.5 3137,-36.5 3199,-36.5 3199,-0.5 3137,-0.5"/>
<text text-anchor="middle" x="3168" y="-16.6" font-family="Times New Roman,serif" font-size="8.00">Confirm Box</text>
</g>
<!-- EAID_0A50B7A2_18D1_49ad_914B_5E275B0DA079 -->
<g id="EAID_0A50B7A2_18D1_49ad_914B_5E275B0DA079" class="node"><title>EAID_0A50B7A2_18D1_49ad_914B_5E275B0DA079</title>
<polygon fill="none" stroke="black" points="3217.5,-0.5 3217.5,-36.5 3306.5,-36.5 3306.5,-0.5 3217.5,-0.5"/>
<text text-anchor="middle" x="3262" y="-16.6" font-family="Times New Roman,serif" font-size="8.00">Delete Event Button</text>
</g>
<!-- EAID_2759DB9E_E863_4484_AB51_CA94AC1EA69C -->
<g id="EAID_2759DB9E_E863_4484_AB51_CA94AC1EA69C" class="node"><title>EAID_2759DB9E_E863_4484_AB51_CA94AC1EA69C</title>
<polygon fill="none" stroke="black" points="3324.5,-0.5 3324.5,-36.5 3447.5,-36.5 3447.5,-0.5 3324.5,-0.5"/>
<text text-anchor="middle" x="3386" y="-16.6" font-family="Times New Roman,serif" font-size="8.00">Close warning and delete event</text>
</g>
<!-- EAID_3114C8CC_36B2_479d_A73A_B2361985E28F -->
<g id="EAID_3114C8CC_36B2_479d_A73A_B2361985E28F" class="node"><title>EAID_3114C8CC_36B2_479d_A73A_B2361985E28F</title>
<polygon fill="none" stroke="black" points="3466,-0.5 3466,-36.5 3532,-36.5 3532,-0.5 3466,-0.5"/>
<text text-anchor="middle" x="3499" y="-16.6" font-family="Times New Roman,serif" font-size="8.00">Delete Picture</text>
</g>
<!-- EAID_20207C84_7981_430d_9676_26CE3BA15CEC -->
<g id="EAID_20207C84_7981_430d_9676_26CE3BA15CEC" class="node"><title>EAID_20207C84_7981_430d_9676_26CE3BA15CEC</title>
<polygon fill="none" stroke="black" points="3550,-0.5 3550,-36.5 3654,-36.5 3654,-0.5 3550,-0.5"/>
<text text-anchor="middle" x="3602" y="-16.6" font-family="Times New Roman,serif" font-size="8.00">Show warning of deletion</text>
</g>
<!-- EAID_74234FC7_1CBE_417e_8DA5_DE56B8B6D3A6 -->
<g id="EAID_74234FC7_1CBE_417e_8DA5_DE56B8B6D3A6" class="node"><title>EAID_74234FC7_1CBE_417e_8DA5_DE56B8B6D3A6</title>
<polygon fill="none" stroke="black" points="3672.5,-0.5 3672.5,-36.5 3737.5,-36.5 3737.5,-0.5 3672.5,-0.5"/>
<text text-anchor="middle" x="3705" y="-16.6" font-family="Times New Roman,serif" font-size="8.00">Delete Button</text>
</g>
<!-- EAID_BA3111CD_50CB_41d8_91DB_6B88C649EE1E -->
<g id="EAID_BA3111CD_50CB_41d8_91DB_6B88C649EE1E" class="node"><title>EAID_BA3111CD_50CB_41d8_91DB_6B88C649EE1E</title>
<polygon fill="none" stroke="black" points="3756,-0.5 3756,-36.5 3908,-36.5 3908,-0.5 3756,-0.5"/>
<text text-anchor="middle" x="3832" y="-16.6" font-family="Times New Roman,serif" font-size="8.00">close the prompt and delete the picture</text>
</g>
<!-- EAID_87921378_559F_4703_A832_82FFB1CFEF5A -->
<g id="EAID_87921378_559F_4703_A832_82FFB1CFEF5A" class="node"><title>EAID_87921378_559F_4703_A832_82FFB1CFEF5A</title>
<polygon fill="none" stroke="black" points="3926,-0.5 3926,-36.5 4022,-36.5 4022,-0.5 3926,-0.5"/>
<text text-anchor="middle" x="3974" y="-16.6" font-family="Times New Roman,serif" font-size="8.00">Shows confirm prompt</text>
</g>
<!-- EAID_566B0121_90CC_45a5_8C06_482B0ED71EC9 -->
<g id="EAID_566B0121_90CC_45a5_8C06_482B0ED71EC9" class="node"><title>EAID_566B0121_90CC_45a5_8C06_482B0ED71EC9</title>
<polygon fill="none" stroke="black" points="4040.5,-0.5 4040.5,-36.5 4219.5,-36.5 4219.5,-0.5 4040.5,-0.5"/>
<text text-anchor="middle" x="4130" y="-16.6" font-family="Times New Roman,serif" font-size="8.00">Click the number of pictures posted per month</text>
</g>
<!-- EAID_F61CDC4C_52AF_4f2d_806B_DE2A0FFA083F -->
<g id="EAID_F61CDC4C_52AF_4f2d_806B_DE2A0FFA083F" class="node"><title>EAID_F61CDC4C_52AF_4f2d_806B_DE2A0FFA083F</title>
<polygon fill="none" stroke="black" points="4237.5,-0.5 4237.5,-36.5 4374.5,-36.5 4374.5,-0.5 4237.5,-0.5"/>
<text text-anchor="middle" x="4306" y="-16.6" font-family="Times New Roman,serif" font-size="8.00">The number of pictures per month</text>
</g>
<!-- EAID_B9439806_781B_4213_A276_AB47C8D35997 -->
<g id="EAID_B9439806_781B_4213_A276_AB47C8D35997" class="node"><title>EAID_B9439806_781B_4213_A276_AB47C8D35997</title>
<polygon fill="none" stroke="black" points="4392.5,-0.5 4392.5,-36.5 4533.5,-36.5 4533.5,-0.5 4392.5,-0.5"/>
<text text-anchor="middle" x="4463" y="-16.6" font-family="Times New Roman,serif" font-size="8.00">Search pictures posted in the month</text>
</g>
<!-- EAID_A78D1964_D110_4019_84EC_04771930E481 -->
<g id="EAID_A78D1964_D110_4019_84EC_04771930E481" class="node"><title>EAID_A78D1964_D110_4019_84EC_04771930E481</title>
<polygon fill="none" stroke="black" points="4552,-0.5 4552,-36.5 4606,-36.5 4606,-0.5 4552,-0.5"/>
<text text-anchor="middle" x="4579" y="-16.6" font-family="Times New Roman,serif" font-size="8.00">Pictures</text>
</g>
<!-- EAID_0E684785_80D6_4668_8A84_3504E38A3B17 -->
<g id="EAID_0E684785_80D6_4668_8A84_3504E38A3B17" class="node"><title>EAID_0E684785_80D6_4668_8A84_3504E38A3B17</title>
<polygon fill="none" stroke="black" points="4624.5,-0.5 4624.5,-36.5 4729.5,-36.5 4729.5,-0.5 4624.5,-0.5"/>
<text text-anchor="middle" x="4677" y="-16.6" font-family="Times New Roman,serif" font-size="8.00">The total number of likes</text>
</g>
<!-- EAID_C7F2AA22_0882_4426_8376_040E3F4EFA4C -->
<g id="EAID_C7F2AA22_0882_4426_8376_040E3F4EFA4C" class="node"><title>EAID_C7F2AA22_0882_4426_8376_040E3F4EFA4C</title>
<polygon fill="none" stroke="black" points="4748,-0.5 4748,-36.5 4846,-36.5 4846,-0.5 4748,-0.5"/>
<text text-anchor="middle" x="4797" y="-16.6" font-family="Times New Roman,serif" font-size="8.00">Heart Icon on a picture</text>
</g>
<!-- EAID_A7AD5403_3AC1_4193_8EC0_A7AB5B609CE3 -->
<g id="EAID_A7AD5403_3AC1_4193_8EC0_A7AB5B609CE3" class="node"><title>EAID_A7AD5403_3AC1_4193_8EC0_A7AB5B609CE3</title>
<polygon fill="none" stroke="black" points="4864.5,-0.5 4864.5,-36.5 4971.5,-36.5 4971.5,-0.5 4864.5,-0.5"/>
<text text-anchor="middle" x="4918" y="-16.6" font-family="Times New Roman,serif" font-size="8.00">Store the like information</text>
</g>
<!-- EAID_AD28C951_8D17_4e42_A6B8_C448BD0A5565 -->
<g id="EAID_AD28C951_8D17_4e42_A6B8_C448BD0A5565" class="node"><title>EAID_AD28C951_8D17_4e42_A6B8_C448BD0A5565</title>
<polygon fill="none" stroke="black" points="4989.5,-0.5 4989.5,-36.5 5066.5,-36.5 5066.5,-0.5 4989.5,-0.5"/>
<text text-anchor="middle" x="5028" y="-16.6" font-family="Times New Roman,serif" font-size="8.00">Like Information</text>
</g>
<!-- EAID_88CBA27A_F213_4f80_B91A_2566942128B0 -->
<g id="EAID_88CBA27A_F213_4f80_B91A_2566942128B0" class="node"><title>EAID_88CBA27A_F213_4f80_B91A_2566942128B0</title>
<polygon fill="none" stroke="black" points="5085,-0.5 5085,-36.5 5205,-36.5 5205,-0.5 5085,-0.5"/>
<text text-anchor="middle" x="5145" y="-16.6" font-family="Times New Roman,serif" font-size="8.00">Check username and password</text>
</g>
<!-- EAID_148F4EA5_5B2F_4701_B68C_FCAFCA9DEEAC -->
<g id="EAID_148F4EA5_5B2F_4701_B68C_FCAFCA9DEEAC" class="node"><title>EAID_148F4EA5_5B2F_4701_B68C_FCAFCA9DEEAC</title>
<polygon fill="none" stroke="black" points="5223.5,-0.5 5223.5,-36.5 5300.5,-36.5 5300.5,-0.5 5223.5,-0.5"/>
<text text-anchor="middle" x="5262" y="-16.6" font-family="Times New Roman,serif" font-size="8.00">Facebook Service</text>
</g>
<!-- EAID_C99981CE_38A8_458e_9DF6_3B6B8E57CBF1 -->
<g id="EAID_C99981CE_38A8_458e_9DF6_3B6B8E57CBF1" class="node"><title>EAID_C99981CE_38A8_458e_9DF6_3B6B8E57CBF1</title>
<polygon fill="none" stroke="black" points="5318.5,-0.5 5318.5,-36.5 5389.5,-36.5 5389.5,-0.5 5318.5,-0.5"/>
<text text-anchor="middle" x="5354" y="-16.6" font-family="Times New Roman,serif" font-size="8.00">App Main Page</text>
</g>
<!-- EAID_6A00FBD5_3E4F_4969_8E0D_4E2832388855 -->
<g id="EAID_6A00FBD5_3E4F_4969_8E0D_4E2832388855" class="node"><title>EAID_6A00FBD5_3E4F_4969_8E0D_4E2832388855</title>
<polygon fill="none" stroke="black" points="5408,-0.5 5408,-36.5 5464,-36.5 5464,-0.5 5408,-0.5"/>
<text text-anchor="middle" x="5436" y="-16.6" font-family="Times New Roman,serif" font-size="8.00">Login Page</text>
</g>
<!-- EAID_A244913F_7CC6_4a0c_9CAC_F88D33EA80B8 -->
<g id="EAID_A244913F_7CC6_4a0c_9CAC_F88D33EA80B8" class="node"><title>EAID_A244913F_7CC6_4a0c_9CAC_F88D33EA80B8</title>
<polygon fill="none" stroke="black" points="5482,-0.5 5482,-36.5 5550,-36.5 5550,-0.5 5482,-0.5"/>
<text text-anchor="middle" x="5516" y="-16.6" font-family="Times New Roman,serif" font-size="8.00">Logout Button</text>
</g>
<!-- EAID_73CA8CEE_601A_4619_A3C1_900CC5B2819F -->
<g id="EAID_73CA8CEE_601A_4619_A3C1_900CC5B2819F" class="node"><title>EAID_73CA8CEE_601A_4619_A3C1_900CC5B2819F</title>
<polygon fill="none" stroke="black" points="5568,-0.5 5568,-36.5 5684,-36.5 5684,-0.5 5568,-0.5"/>
<text text-anchor="middle" x="5626" y="-16.6" font-family="Times New Roman,serif" font-size="8.00">Clear Local Storage and Exit</text>
</g>
<!-- EAID_2B1DB996_C3A7_4dde_B168_25CF5C6D02B9 -->
<g id="EAID_2B1DB996_C3A7_4dde_B168_25CF5C6D02B9" class="node"><title>EAID_2B1DB996_C3A7_4dde_B168_25CF5C6D02B9</title>
<polygon fill="none" stroke="black" points="5702,-0.5 5702,-36.5 5766,-36.5 5766,-0.5 5702,-0.5"/>
<text text-anchor="middle" x="5734" y="-16.6" font-family="Times New Roman,serif" font-size="8.00">Local Storage</text>
</g>
<!-- EAID_5B081FBB_04D9_4adb_B481_B2FA80955739 -->
<g id="EAID_5B081FBB_04D9_4adb_B481_B2FA80955739" class="node"><title>EAID_5B081FBB_04D9_4adb_B481_B2FA80955739</title>
<polygon fill="none" stroke="black" points="5784.5,-0.5 5784.5,-36.5 5855.5,-36.5 5855.5,-0.5 5784.5,-0.5"/>
<text text-anchor="middle" x="5820" y="-16.6" font-family="Times New Roman,serif" font-size="8.00">Options to post</text>
</g>
<!-- EAID_199005EE_B70F_4f8d_9D57_715E35B57DCA -->
<g id="EAID_199005EE_B70F_4f8d_9D57_715E35B57DCA" class="node"><title>EAID_199005EE_B70F_4f8d_9D57_715E35B57DCA</title>
<polygon fill="none" stroke="black" points="5873.5,-0.5 5873.5,-36.5 5934.5,-36.5 5934.5,-0.5 5873.5,-0.5"/>
<text text-anchor="middle" x="5904" y="-16.6" font-family="Times New Roman,serif" font-size="8.00">Camera Icon</text>
</g>
<!-- EAID_C3A18DC0_2B3C_448e_9CF0_1AFC390718B3 -->
<g id="EAID_C3A18DC0_2B3C_448e_9CF0_1AFC390718B3" class="node"><title>EAID_C3A18DC0_2B3C_448e_9CF0_1AFC390718B3</title>
<polygon fill="none" stroke="black" points="5952.5,-0.5 5952.5,-36.5 6033.5,-36.5 6033.5,-0.5 5952.5,-0.5"/>
<text text-anchor="middle" x="5993" y="-16.6" font-family="Times New Roman,serif" font-size="8.00">gallery application</text>
</g>
<!-- EAID_359B03EF_8350_49ac_8692_61341F144E1A -->
<g id="EAID_359B03EF_8350_49ac_8692_61341F144E1A" class="node"><title>EAID_359B03EF_8350_49ac_8692_61341F144E1A</title>
<polygon fill="none" stroke="black" points="6052,-0.5 6052,-36.5 6112,-36.5 6112,-0.5 6052,-0.5"/>
<text text-anchor="middle" x="6082" y="-16.6" font-family="Times New Roman,serif" font-size="8.00">Camera App</text>
</g>
<!-- EAID_E4CFEA2B_B423_4a6e_9447_4319CB039B96 -->
<g id="EAID_E4CFEA2B_B423_4a6e_9447_4319CB039B96" class="node"><title>EAID_E4CFEA2B_B423_4a6e_9447_4319CB039B96</title>
<polygon fill="none" stroke="black" points="6130,-0.5 6130,-36.5 6258,-36.5 6258,-0.5 6130,-0.5"/>
<text text-anchor="middle" x="6194" y="-16.6" font-family="Times New Roman,serif" font-size="8.00">opens up the gallery application</text>
</g>
<!-- EAID_DD364112_8A67_4d6b_A1DE_B5FC12D3DED4 -->
<g id="EAID_DD364112_8A67_4d6b_A1DE_B5FC12D3DED4" class="node"><title>EAID_DD364112_8A67_4d6b_A1DE_B5FC12D3DED4</title>
<polygon fill="none" stroke="black" points="6276.5,-0.5 6276.5,-36.5 6377.5,-36.5 6377.5,-0.5 6276.5,-0.5"/>
<text text-anchor="middle" x="6327" y="-16.6" font-family="Times New Roman,serif" font-size="8.00">Event and caption Input</text>
</g>
<!-- EAID_0FF7670F_A868_4bab_894E_01E9C61AAB41 -->
<g id="EAID_0FF7670F_A868_4bab_894E_01E9C61AAB41" class="node"><title>EAID_0FF7670F_A868_4bab_894E_01E9C61AAB41</title>
<polygon fill="none" stroke="black" points="6395.5,-0.5 6395.5,-36.5 6602.5,-36.5 6602.5,-0.5 6395.5,-0.5"/>
<text text-anchor="middle" x="6499" y="-16.6" font-family="Times New Roman,serif" font-size="8.00">show picture and options to post nearby or to an event</text>
</g>
<!-- EAID_B0171170_639E_41bc_B1C7_1FBD3ECCB43E -->
<g id="EAID_B0171170_639E_41bc_B1C7_1FBD3ECCB43E" class="node"><title>EAID_B0171170_639E_41bc_B1C7_1FBD3ECCB43E</title>
<polygon fill="none" stroke="black" points="6621,-0.5 6621,-36.5 6735,-36.5 6735,-0.5 6621,-0.5"/>
<text text-anchor="middle" x="6678" y="-16.6" font-family="Times New Roman,serif" font-size="8.00">Launch Camera Application</text>
</g>
<!-- EAID_40AD25CC_7B83_456e_8814_B5186F8CECF6 -->
<g id="EAID_40AD25CC_7B83_456e_8814_B5186F8CECF6" class="node"><title>EAID_40AD25CC_7B83_456e_8814_B5186F8CECF6</title>
<polygon fill="none" stroke="black" points="6753.5,-0.5 6753.5,-36.5 6926.5,-36.5 6926.5,-0.5 6753.5,-0.5"/>
<text text-anchor="middle" x="6840" y="-16.6" font-family="Times New Roman,serif" font-size="8.00">show a text box for user to input event name</text>
</g>
<!-- EAID_8E6CD97E_69E3_4339_861C_97A792A870F6 -->
<g id="EAID_8E6CD97E_69E3_4339_861C_97A792A870F6" class="node"><title>EAID_8E6CD97E_69E3_4339_861C_97A792A870F6</title>
<polygon fill="none" stroke="black" points="6945,-0.5 6945,-36.5 7049,-36.5 7049,-0.5 6945,-0.5"/>
<text text-anchor="middle" x="6997" y="-16.6" font-family="Times New Roman,serif" font-size="8.00">store picture in the event</text>
</g>
<!-- EAID_7F859566_4C18_49b6_A519_C85A236966E6 -->
<g id="EAID_7F859566_4C18_49b6_A519_C85A236966E6" class="node"><title>EAID_7F859566_4C18_49b6_A519_C85A236966E6</title>
<polygon fill="none" stroke="black" points="7067,-0.5 7067,-36.5 7231,-36.5 7231,-0.5 7067,-0.5"/>
<text text-anchor="middle" x="7149" y="-16.6" font-family="Times New Roman,serif" font-size="8.00">shows the picture and text box for caption</text>
</g>
<!-- EAID_9F240CC7_C239_454c_8E0E_FD2E58546755 -->
<g id="EAID_9F240CC7_C239_454c_8E0E_FD2E58546755" class="node"><title>EAID_9F240CC7_C239_454c_8E0E_FD2E58546755</title>
<polygon fill="none" stroke="black" points="7249.5,-0.5 7249.5,-36.5 7454.5,-36.5 7454.5,-0.5 7249.5,-0.5"/>
<text text-anchor="middle" x="7352" y="-16.6" font-family="Times New Roman,serif" font-size="8.00">retrive user&#39;s location and posts the picture at location</text>
</g>
<!-- EAID_9BA9AD09_6820_4838_B4FF_77B6282164E3 -->
<g id="EAID_9BA9AD09_6820_4838_B4FF_77B6282164E3" class="node"><title>EAID_9BA9AD09_6820_4838_B4FF_77B6282164E3</title>
<polygon fill="none" stroke="black" points="7472.5,-0.5 7472.5,-36.5 7597.5,-36.5 7597.5,-0.5 7472.5,-0.5"/>
<text text-anchor="middle" x="7535" y="-16.6" font-family="Times New Roman,serif" font-size="8.00">text box for user to input name</text>
</g>
<!-- EAID_54BF4F45_0A31_4d1e_A1C0_5196F8651579 -->
<g id="EAID_54BF4F45_0A31_4d1e_A1C0_5196F8651579" class="node"><title>EAID_54BF4F45_0A31_4d1e_A1C0_5196F8651579</title>
<polygon fill="none" stroke="black" points="7615.5,-0.5 7615.5,-36.5 7678.5,-36.5 7678.5,-0.5 7615.5,-0.5"/>
<text text-anchor="middle" x="7647" y="-16.6" font-family="Times New Roman,serif" font-size="8.00">Register Page</text>
</g>
<!-- EAID_D1F8B04D_7107_46c4_B8BE_40545B1BC204 -->
<g id="EAID_D1F8B04D_7107_46c4_B8BE_40545B1BC204" class="node"><title>EAID_D1F8B04D_7107_46c4_B8BE_40545B1BC204</title>
<polygon fill="none" stroke="black" points="7697,-0.5 7697,-36.5 7815,-36.5 7815,-0.5 7697,-0.5"/>
<text text-anchor="middle" x="7756" y="-16.6" font-family="Times New Roman,serif" font-size="8.00">Warning Invalid Information</text>
</g>
<!-- EAID_6E4BEB4E_9C5B_432d_98F4_9E9057D78328 -->
<g id="EAID_6E4BEB4E_9C5B_432d_98F4_9E9057D78328" class="node"><title>EAID_6E4BEB4E_9C5B_432d_98F4_9E9057D78328</title>
<polygon fill="none" stroke="black" points="7833.5,-0.5 7833.5,-36.5 7934.5,-36.5 7934.5,-0.5 7833.5,-0.5"/>
<text text-anchor="middle" x="7884" y="-16.6" font-family="Times New Roman,serif" font-size="8.00">Check User Information</text>
</g>
<!-- EAID_80390359_58F1_424d_BA3A_A7A328D32225 -->
<g id="EAID_80390359_58F1_424d_BA3A_A7A328D32225" class="node"><title>EAID_80390359_58F1_424d_BA3A_A7A328D32225</title>
<polygon fill="none" stroke="black" points="7952.5,-0.5 7952.5,-36.5 8061.5,-36.5 8061.5,-0.5 7952.5,-0.5"/>
<text text-anchor="middle" x="8007" y="-16.6" font-family="Times New Roman,serif" font-size="8.00">Report icon on the picture</text>
</g>
<!-- EAID_4114324C_3DC0_41e4_BBDB_E0406E508C8A -->
<g id="EAID_4114324C_3DC0_41e4_BBDB_E0406E508C8A" class="node"><title>EAID_4114324C_3DC0_41e4_BBDB_E0406E508C8A</title>
<polygon fill="none" stroke="black" points="8079.5,-0.5 8079.5,-36.5 8170.5,-36.5 8170.5,-0.5 8079.5,-0.5"/>
<text text-anchor="middle" x="8125" y="-16.6" font-family="Times New Roman,serif" font-size="8.00">report confirm dialog</text>
</g>
<!-- EAID_3171E6EC_CE38_41ae_9332_0747012F4F6F -->
<g id="EAID_3171E6EC_CE38_41ae_9332_0747012F4F6F" class="node"><title>EAID_3171E6EC_CE38_41ae_9332_0747012F4F6F</title>
<polygon fill="none" stroke="black" points="8188.5,-0.5 8188.5,-36.5 8265.5,-36.5 8265.5,-0.5 8188.5,-0.5"/>
<text text-anchor="middle" x="8227" y="-16.6" font-family="Times New Roman,serif" font-size="8.00">prompot confirm</text>
</g>
<!-- EAID_3D573CD9_B429_4e9f_B19E_6A6933C196EA -->
<g id="EAID_3D573CD9_B429_4e9f_B19E_6A6933C196EA" class="node"><title>EAID_3D573CD9_B429_4e9f_B19E_6A6933C196EA</title>
<polygon fill="none" stroke="black" points="8284,-0.5 8284,-36.5 8386,-36.5 8386,-0.5 8284,-0.5"/>
<text text-anchor="middle" x="8335" y="-16.6" font-family="Times New Roman,serif" font-size="8.00">store report information</text>
</g>
<!-- EAID_A55E6222_6CFF_48f1_9D56_81230E2E2EE6 -->
<g id="EAID_A55E6222_6CFF_48f1_9D56_81230E2E2EE6" class="node"><title>EAID_A55E6222_6CFF_48f1_9D56_81230E2E2EE6</title>
<polygon fill="none" stroke="black" points="8404.5,-0.5 8404.5,-36.5 8487.5,-36.5 8487.5,-0.5 8404.5,-0.5"/>
<text text-anchor="middle" x="8446" y="-16.6" font-family="Times New Roman,serif" font-size="8.00">report information</text>
</g>
<!-- EAID_B490DCF6_30F8_4a18_BF75_92DDB2C2C88B -->
<g id="EAID_B490DCF6_30F8_4a18_BF75_92DDB2C2C88B" class="node"><title>EAID_B490DCF6_30F8_4a18_BF75_92DDB2C2C88B</title>
<polygon fill="none" stroke="black" points="8506,-0.5 8506,-36.5 8598,-36.5 8598,-0.5 8506,-0.5"/>
<text text-anchor="middle" x="8552" y="-16.6" font-family="Times New Roman,serif" font-size="8.00">Picture restore button</text>
</g>
<!-- EAID_13DD4531_137E_4dcf_B3BC_197E17D4F073 -->
<g id="EAID_13DD4531_137E_4dcf_B3BC_197E17D4F073" class="node"><title>EAID_13DD4531_137E_4dcf_B3BC_197E17D4F073</title>
<polygon fill="none" stroke="black" points="8616.5,-0.5 8616.5,-36.5 8717.5,-36.5 8717.5,-0.5 8616.5,-0.5"/>
<text text-anchor="middle" x="8667" y="-16.6" font-family="Times New Roman,serif" font-size="8.00">Restore reported picture</text>
</g>
<!-- EAID_6A0CDD02_6483_46ec_9815_52AAC32B68C7 -->
<g id="EAID_6A0CDD02_6483_46ec_9815_52AAC32B68C7" class="node"><title>EAID_6A0CDD02_6483_46ec_9815_52AAC32B68C7</title>
<polygon fill="none" stroke="black" points="8736,-0.5 8736,-36.5 8790,-36.5 8790,-0.5 8736,-0.5"/>
<text text-anchor="middle" x="8763" y="-16.6" font-family="Times New Roman,serif" font-size="8.00">Report</text>
</g>
<!-- EAID_D98C0879_A0EB_4556_B707_2E30236B1C5C -->
<g id="EAID_D98C0879_A0EB_4556_B707_2E30236B1C5C" class="node"><title>EAID_D98C0879_A0EB_4556_B707_2E30236B1C5C</title>
<polygon fill="none" stroke="black" points="8808,-0.5 8808,-36.5 8884,-36.5 8884,-0.5 8808,-0.5"/>
<text text-anchor="middle" x="8846" y="-16.6" font-family="Times New Roman,serif" font-size="8.00">Download button</text>
</g>
<!-- EAID_756FEF97_8317_4f5a_9774_168F735F5ADF -->
<g id="EAID_756FEF97_8317_4f5a_9774_168F735F5ADF" class="node"><title>EAID_756FEF97_8317_4f5a_9774_168F735F5ADF</title>
<polygon fill="none" stroke="black" points="8902.5,-0.5 8902.5,-36.5 8985.5,-36.5 8985.5,-0.5 8902.5,-0.5"/>
<text text-anchor="middle" x="8944" y="-16.6" font-family="Times New Roman,serif" font-size="8.00">download to phone</text>
</g>
<!-- EAID_FC31D0F3_0809_4e2d_9B26_2AE0A7DF783D -->
<g id="EAID_FC31D0F3_0809_4e2d_9B26_2AE0A7DF783D" class="node"><title>EAID_FC31D0F3_0809_4e2d_9B26_2AE0A7DF783D</title>
<polygon fill="none" stroke="black" points="9004,-0.5 9004,-36.5 9070,-36.5 9070,-0.5 9004,-0.5"/>
<text text-anchor="middle" x="9037" y="-16.6" font-family="Times New Roman,serif" font-size="8.00">List of Events</text>
</g>
<!-- EAID_8539E36A_F128_4963_8ADB_16951E903BFD -->
<g id="EAID_8539E36A_F128_4963_8ADB_16951E903BFD" class="node"><title>EAID_8539E36A_F128_4963_8ADB_16951E903BFD</title>
<polygon fill="none" stroke="black" points="9088.5,-0.5 9088.5,-36.5 9177.5,-36.5 9177.5,-0.5 9088.5,-0.5"/>
<text text-anchor="middle" x="9133" y="-16.6" font-family="Times New Roman,serif" font-size="8.00">Search box of events</text>
</g>
<!-- EAID_1A6AC8E3_AA68_4166_9FEB_302FF021FE8D -->
<g id="EAID_1A6AC8E3_AA68_4166_9FEB_302FF021FE8D" class="node"><title>EAID_1A6AC8E3_AA68_4166_9FEB_302FF021FE8D</title>
<polygon fill="none" stroke="black" points="9195.5,-0.5 9195.5,-36.5 9290.5,-36.5 9290.5,-0.5 9195.5,-0.5"/>
<text text-anchor="middle" x="9243" y="-16.6" font-family="Times New Roman,serif" font-size="8.00">Search events by name</text>
</g>
<!-- EAID_AA637918_9BD7_481e_BFDB_3C664F3950F8 -->
<g id="EAID_AA637918_9BD7_481e_BFDB_3C664F3950F8" class="node"><title>EAID_AA637918_9BD7_481e_BFDB_3C664F3950F8</title>
<polygon fill="none" stroke="black" points="9308.5,-0.5 9308.5,-36.5 9383.5,-36.5 9383.5,-0.5 9308.5,-0.5"/>
<text text-anchor="middle" x="9346" y="-16.6" font-family="Times New Roman,serif" font-size="8.00">Image Filter Box</text>
</g>
<!-- EAID_46ACF12D_EAF0_4e2f_90A1_D59A2EAF50D6 -->
<g id="EAID_46ACF12D_EAF0_4e2f_90A1_D59A2EAF50D6" class="node"><title>EAID_46ACF12D_EAF0_4e2f_90A1_D59A2EAF50D6</title>
<polygon fill="none" stroke="black" points="9402,-0.5 9402,-36.5 9482,-36.5 9482,-0.5 9402,-0.5"/>
<text text-anchor="middle" x="9442" y="-16.6" font-family="Times New Roman,serif" font-size="8.00">Query Picture List</text>
</g>
<!-- EAID_70698EAB_2DE2_4cc6_BA0A_F805F353569C -->
<g id="EAID_70698EAB_2DE2_4cc6_BA0A_F805F353569C" class="node"><title>EAID_70698EAB_2DE2_4cc6_BA0A_F805F353569C</title>
<polygon fill="none" stroke="black" points="9500.5,-0.5 9500.5,-36.5 9569.5,-36.5 9569.5,-0.5 9500.5,-0.5"/>
<text text-anchor="middle" x="9535" y="-16.6" font-family="Times New Roman,serif" font-size="8.00">List of pictures</text>
</g>
<!-- EAID_E9D11F84_D199_420c_89D5_0AA772636C96 -->
<g id="EAID_E9D11F84_D199_420c_89D5_0AA772636C96" class="node"><title>EAID_E9D11F84_D199_420c_89D5_0AA772636C96</title>
<polygon fill="none" stroke="black" points="9587.5,-0.5 9587.5,-36.5 9652.5,-36.5 9652.5,-0.5 9587.5,-0.5"/>
<text text-anchor="middle" x="9620" y="-16.6" font-family="Times New Roman,serif" font-size="8.00">Filter Pictures</text>
</g>
<!-- EAID_8DC88DE2_B375_4997_8419_AB460F91D7DC -->
<g id="EAID_8DC88DE2_B375_4997_8419_AB460F91D7DC" class="node"><title>EAID_8DC88DE2_B375_4997_8419_AB460F91D7DC</title>
<polygon fill="none" stroke="black" points="9671,-0.5 9671,-36.5 9773,-36.5 9773,-0.5 9671,-0.5"/>
<text text-anchor="middle" x="9722" y="-16.6" font-family="Times New Roman,serif" font-size="8.00">retrive the list of picture</text>
</g>
<!-- EAID_49713EE2_112F_4ada_8582_C3C2C8A73424 -->
<g id="EAID_49713EE2_112F_4ada_8582_C3C2C8A73424" class="node"><title>EAID_49713EE2_112F_4ada_8582_C3C2C8A73424</title>
<polygon fill="none" stroke="black" points="9791,-0.5 9791,-36.5 9861,-36.5 9861,-0.5 9791,-0.5"/>
<text text-anchor="middle" x="9826" y="-16.6" font-family="Times New Roman,serif" font-size="8.00">Sorting options</text>
</g>
<!-- EAID_C95283CD_BE00_4d8e_AB1D_F030BEF6021A -->
<g id="EAID_C95283CD_BE00_4d8e_AB1D_F030BEF6021A" class="node"><title>EAID_C95283CD_BE00_4d8e_AB1D_F030BEF6021A</title>
<polygon fill="none" stroke="black" points="9879,-0.5 9879,-36.5 9973,-36.5 9973,-0.5 9879,-0.5"/>
<text text-anchor="middle" x="9926" y="-16.6" font-family="Times New Roman,serif" font-size="8.00">Sorted List of Pictures</text>
</g>
<!-- EAID_C0B042A9_C206_456b_BE10_2FDCFF5921B1 -->
<g id="EAID_C0B042A9_C206_456b_BE10_2FDCFF5921B1" class="node"><title>EAID_C0B042A9_C206_456b_BE10_2FDCFF5921B1</title>
<polygon fill="none" stroke="black" points="9991,-0.5 9991,-36.5 10045,-36.5 10045,-0.5 9991,-0.5"/>
<text text-anchor="middle" x="10018" y="-16.6" font-family="Times New Roman,serif" font-size="8.00">Filter Icon</text>
</g>
<!-- EAID_44CB1AB3_A922_4df0_AC49_AB2D73AB0F6A -->
<g id="EAID_44CB1AB3_A922_4df0_AC49_AB2D73AB0F6A" class="node"><title>EAID_44CB1AB3_A922_4df0_AC49_AB2D73AB0F6A</title>
<polygon fill="none" stroke="black" points="10063,-0.5 10063,-36.5 10161,-36.5 10161,-0.5 10063,-0.5"/>
<text text-anchor="middle" x="10112" y="-16.6" font-family="Times New Roman,serif" font-size="8.00">Display sorting options</text>
</g>
<!-- EAID_1767467F_C026_441d_A346_F0884A874BDC -->
<g id="EAID_1767467F_C026_441d_A346_F0884A874BDC" class="node"><title>EAID_1767467F_C026_441d_A346_F0884A874BDC</title>
<polygon fill="none" stroke="black" points="10179,-0.5 10179,-36.5 10249,-36.5 10249,-0.5 10179,-0.5"/>
<text text-anchor="middle" x="10214" y="-16.6" font-family="Times New Roman,serif" font-size="8.00">sort the picture</text>
</g>
<!-- EAID_A8B633A5_7376_4716_A0D1_05199BD4326A -->
<g id="EAID_A8B633A5_7376_4716_A0D1_05199BD4326A" class="node"><title>EAID_A8B633A5_7376_4716_A0D1_05199BD4326A</title>
<polygon fill="none" stroke="black" points="10267.5,-0.5 10267.5,-36.5 10338.5,-36.5 10338.5,-0.5 10267.5,-0.5"/>
<text text-anchor="middle" x="10303" y="-16.6" font-family="Times New Roman,serif" font-size="8.00">Confirm Dialog</text>
</g>
<!-- EAID_FF5B10EB_E932_4c13_8367_283F1878C1C3 -->
<g id="EAID_FF5B10EB_E932_4c13_8367_283F1878C1C3" class="node"><title>EAID_FF5B10EB_E932_4c13_8367_283F1878C1C3</title>
<polygon fill="none" stroke="black" points="10357,-0.5 10357,-36.5 10411,-36.5 10411,-0.5 10357,-0.5"/>
<text text-anchor="middle" x="10384" y="-16.6" font-family="Times New Roman,serif" font-size="8.00">User List</text>
</g>
<!-- EAID_9638F8A0_522F_4c9f_BF73_56BE8AAA1DD8 -->
<g id="EAID_9638F8A0_522F_4c9f_BF73_56BE8AAA1DD8" class="node"><title>EAID_9638F8A0_522F_4c9f_BF73_56BE8AAA1DD8</title>
<polygon fill="none" stroke="black" points="10429,-0.5 10429,-36.5 10533,-36.5 10533,-0.5 10429,-0.5"/>
<text text-anchor="middle" x="10481" y="-16.6" font-family="Times New Roman,serif" font-size="8.00">Click user suspend button</text>
</g>
<!-- EAID_90A53000_C50E_4f7c_9E8A_DD599BBAC2A3 -->
<g id="EAID_90A53000_C50E_4f7c_9E8A_DD599BBAC2A3" class="node"><title>EAID_90A53000_C50E_4f7c_9E8A_DD599BBAC2A3</title>
<polygon fill="none" stroke="black" points="10551,-0.5 10551,-36.5 10647,-36.5 10647,-0.5 10551,-0.5"/>
<text text-anchor="middle" x="10599" y="-16.6" font-family="Times New Roman,serif" font-size="8.00">Prompt confirm dialog</text>
</g>
<!-- EAID_8AD1DC6E_3C19_4424_9100_A896BDF2DC5F -->
<g id="EAID_8AD1DC6E_3C19_4424_9100_A896BDF2DC5F" class="node"><title>EAID_8AD1DC6E_3C19_4424_9100_A896BDF2DC5F</title>
<polygon fill="none" stroke="black" points="10665,-0.5 10665,-36.5 10727,-36.5 10727,-0.5 10665,-0.5"/>
<text text-anchor="middle" x="10696" y="-16.6" font-family="Times New Roman,serif" font-size="8.00">Suspend User</text>
</g>
<!-- EAID_36134387_3752_49c9_BB85_9F485AC3985E -->
<g id="EAID_36134387_3752_49c9_BB85_9F485AC3985E" class="node"><title>EAID_36134387_3752_49c9_BB85_9F485AC3985E</title>
<polygon fill="none" stroke="black" points="10745,-0.5 10745,-36.5 10851,-36.5 10851,-0.5 10745,-0.5"/>
<text text-anchor="middle" x="10798" y="-16.6" font-family="Times New Roman,serif" font-size="8.00">The heart icon on picture</text>
</g>
<!-- EAID_14D761CB_B14F_4c6f_B9D8_1F30DE2956EE -->
<g id="EAID_14D761CB_B14F_4c6f_B9D8_1F30DE2956EE" class="node"><title>EAID_14D761CB_B14F_4c6f_B9D8_1F30DE2956EE</title>
<polygon fill="none" stroke="black" points="10869,-0.5 10869,-36.5 10965,-36.5 10965,-0.5 10869,-0.5"/>
<text text-anchor="middle" x="10917" y="-16.6" font-family="Times New Roman,serif" font-size="8.00">Total Number of Likes</text>
</g>
<!-- EAID_11EE5375_4F11_4011_993A_F8E1EF9A95E7 -->
<g id="EAID_11EE5375_4F11_4011_993A_F8E1EF9A95E7" class="node"><title>EAID_11EE5375_4F11_4011_993A_F8E1EF9A95E7</title>
<polygon fill="none" stroke="black" points="10983,-0.5 10983,-36.5 11121,-36.5 11121,-0.5 10983,-0.5"/>
<text text-anchor="middle" x="11052" y="-16.6" font-family="Times New Roman,serif" font-size="8.00">remove the user liking information</text>
</g>
<!-- EAID_349C0643_759C_49af_AA61_2AA19600EEB3 -->
<g id="EAID_349C0643_759C_49af_AA61_2AA19600EEB3" class="node"><title>EAID_349C0643_759C_49af_AA61_2AA19600EEB3</title>
<polygon fill="none" stroke="black" points="11139,-0.5 11139,-36.5 11267,-36.5 11267,-0.5 11139,-0.5"/>
<text text-anchor="middle" x="11203" y="-16.6" font-family="Times New Roman,serif" font-size="8.00">Event Information Update Page</text>
</g>
<!-- EAID_4BCB6F32_1C4C_4033_A104_F40114F0A59B -->
<g id="EAID_4BCB6F32_1C4C_4033_A104_F40114F0A59B" class="node"><title>EAID_4BCB6F32_1C4C_4033_A104_F40114F0A59B</title>
<polygon fill="none" stroke="black" points="11285,-0.5 11285,-36.5 11339,-36.5 11339,-0.5 11285,-0.5"/>
<text text-anchor="middle" x="11312" y="-16.6" font-family="Times New Roman,serif" font-size="8.00">Event List</text>
</g>
<!-- EAID_499E0DE4_983D_4300_994E_82D8A6B0EB05 -->
<g id="EAID_499E0DE4_983D_4300_994E_82D8A6B0EB05" class="node"><title>EAID_499E0DE4_983D_4300_994E_82D8A6B0EB05</title>
<polygon fill="none" stroke="black" points="11357.5,-0.5 11357.5,-36.5 11448.5,-36.5 11448.5,-0.5 11357.5,-0.5"/>
<text text-anchor="middle" x="11403" y="-16.6" font-family="Times New Roman,serif" font-size="8.00">Event Update Button</text>
</g>
<!-- EAID_D67692D0_C0AF_4ea1_BD4A_2F197BBEC267 -->
<g id="EAID_D67692D0_C0AF_4ea1_BD4A_2F197BBEC267" class="node"><title>EAID_D67692D0_C0AF_4ea1_BD4A_2F197BBEC267</title>
<polygon fill="none" stroke="black" points="11467,-0.5 11467,-36.5 11577,-36.5 11577,-0.5 11467,-0.5"/>
<text text-anchor="middle" x="11522" y="-16.6" font-family="Times New Roman,serif" font-size="8.00">Update Event Information</text>
</g>
<!-- EAID_589797F0_9EAD_403d_B1D5_633266B37C30 -->
<g id="EAID_589797F0_9EAD_403d_B1D5_633266B37C30" class="node"><title>EAID_589797F0_9EAD_403d_B1D5_633266B37C30</title>
<polygon fill="none" stroke="black" points="11595,-0.5 11595,-36.5 11663,-36.5 11663,-0.5 11595,-0.5"/>
<text text-anchor="middle" x="11629" y="-16.6" font-family="Times New Roman,serif" font-size="8.00">retrieve events</text>
</g>
<!-- EAID_60F3CE29_9E4B_42a0_8FF6_606817D82F4C -->
<g id="EAID_60F3CE29_9E4B_42a0_8FF6_606817D82F4C" class="node"><title>EAID_60F3CE29_9E4B_42a0_8FF6_606817D82F4C</title>
<polygon fill="none" stroke="black" points="11681.5,-0.5 11681.5,-36.5 11800.5,-36.5 11800.5,-0.5 11681.5,-0.5"/>
<text text-anchor="middle" x="11741" y="-16.6" font-family="Times New Roman,serif" font-size="8.00">Prompt Event Update Dialog</text>
</g>
<!-- EAID_46981291_5660_4125_AF4C_8B8FF07774EA -->
<g id="EAID_46981291_5660_4125_AF4C_8B8FF07774EA" class="node"><title>EAID_46981291_5660_4125_AF4C_8B8FF07774EA</title>
<polygon fill="none" stroke="black" points="11818.5,-0.5 11818.5,-36.5 11909.5,-36.5 11909.5,-0.5 11818.5,-0.5"/>
<text text-anchor="middle" x="11864" y="-16.6" font-family="Times New Roman,serif" font-size="8.00">Radius Setting Button</text>
</g>
<!-- EAID_E2C503FF_4493_4362_B5E4_C8C2B687A293 -->
<g id="EAID_E2C503FF_4493_4362_B5E4_C8C2B687A293" class="node"><title>EAID_E2C503FF_4493_4362_B5E4_C8C2B687A293</title>
<polygon fill="none" stroke="black" points="11927.5,-0.5 11927.5,-36.5 12028.5,-36.5 12028.5,-0.5 11927.5,-0.5"/>
<text text-anchor="middle" x="11978" y="-16.6" font-family="Times New Roman,serif" font-size="8.00">Search pictures by radius</text>
</g>
<!-- EAID_E498C834_5E3B_4058_9B9F_CF7DCF3C385D -->
<g id="EAID_E498C834_5E3B_4058_9B9F_CF7DCF3C385D" class="node"><title>EAID_E498C834_5E3B_4058_9B9F_CF7DCF3C385D</title>
<polygon fill="none" stroke="black" points="12047,-0.5 12047,-36.5 12115,-36.5 12115,-0.5 12047,-0.5"/>
<text text-anchor="middle" x="12081" y="-16.6" font-family="Times New Roman,serif" font-size="8.00">Picture Gallery</text>
</g>
<!-- EAID_D855C65B_EC1A_42e9_9D3F_A9CA1B48094C -->
<g id="EAID_D855C65B_EC1A_42e9_9D3F_A9CA1B48094C" class="node"><title>EAID_D855C65B_EC1A_42e9_9D3F_A9CA1B48094C</title>
<polygon fill="none" stroke="black" points="12133,-0.5 12133,-36.5 12227,-36.5 12227,-0.5 12133,-0.5"/>
<text text-anchor="middle" x="12180" y="-16.6" font-family="Times New Roman,serif" font-size="8.00">retrieve picture details</text>
</g>
</g>
</svg>
