<?xml version="1.0" encoding="UTF-8" standalone="no"?>
<!DOCTYPE svg PUBLIC "-//W3C//DTD SVG 1.1//EN"
 "http://www.w3.org/Graphics/SVG/1.1/DTD/svg11.dtd">
<!-- Generated by graphviz version 2.38.0 (20140413.2041)
 -->
<!-- Title: g Pages: 1 -->
<svg width="627pt" height="620pt"
 viewBox="0.00 0.00 627.37 620.00" xmlns="http://www.w3.org/2000/svg" xmlns:xlink="http://www.w3.org/1999/xlink">
<g id="graph0" class="graph" transform="scale(1 1) rotate(0) translate(4 616)">
<title>g</title>
<polygon fill="white" stroke="none" points="-4,4 -4,-616 623.367,-616 623.367,4 -4,4"/>
<!-- Select file location to save -->
<g id="node1" class="node"><title>Select file location to save</title>
<ellipse fill="none" stroke="black" cx="105.291" cy="-90" rx="105.082" ry="18"/>
<text text-anchor="middle" x="105.291" y="-86.3" font-family="Times New Roman,serif" font-size="14.00">Select file location to save</text>
</g>
<!-- Data export success message -->
<g id="node2" class="node"><title>Data export success message</title>
<ellipse fill="none" stroke="black" cx="260.291" cy="-18" rx="117.779" ry="18"/>
<text text-anchor="middle" x="260.291" y="-14.3" font-family="Times New Roman,serif" font-size="14.00">Data export success message</text>
</g>
<!-- Select file location to save&#45;&gt;Data export success message -->
<g id="edge1" class="edge"><title>Select file location to save&#45;&gt;Data export success message</title>
<path fill="none" stroke="black" d="M140.851,-72.9406C162.944,-62.9631 191.544,-50.0469 215.218,-39.3552"/>
<polygon fill="black" stroke="black" points="216.686,-42.5328 224.359,-35.2271 213.805,-36.1532 216.686,-42.5328"/>
</g>
<!-- csv files -->
<g id="node3" class="node"><title>csv files</title>
<ellipse fill="none" stroke="black" cx="84.2907" cy="-18" rx="40.0939" ry="18"/>
<text text-anchor="middle" x="84.2907" y="-14.3" font-family="Times New Roman,serif" font-size="14.00">csv files</text>
</g>
<!-- Select file location to save&#45;&gt;csv files -->
<g id="edge2" class="edge"><title>Select file location to save&#45;&gt;csv files</title>
<path fill="none" stroke="black" d="M100.1,-71.6966C97.76,-63.8979 94.9432,-54.5085 92.3394,-45.8292"/>
<polygon fill="black" stroke="black" points="95.6479,-44.6769 89.422,-36.1043 88.9431,-46.6883 95.6479,-44.6769"/>
</g>
<!-- export data to csv file -->
<g id="node4" class="node"><title>export data to csv file</title>
<ellipse fill="none" stroke="black" cx="112.291" cy="-162" rx="89.8845" ry="18"/>
<text text-anchor="middle" x="112.291" y="-158.3" font-family="Times New Roman,serif" font-size="14.00">export data to csv file</text>
</g>
<!-- export data to csv file&#45;&gt;Select file location to save -->
<g id="edge3" class="edge"><title>export data to csv file&#45;&gt;Select file location to save</title>
<path fill="none" stroke="black" d="M110.56,-143.697C109.789,-135.983 108.862,-126.712 108.002,-118.112"/>
<polygon fill="black" stroke="black" points="111.479,-117.706 107.001,-108.104 104.514,-118.403 111.479,-117.706"/>
</g>
<!-- Staff -->
<g id="node5" class="node"><title>Staff</title>
<ellipse fill="none" stroke="black" cx="233.291" cy="-450" rx="28.6953" ry="18"/>
<text text-anchor="middle" x="233.291" y="-446.3" font-family="Times New Roman,serif" font-size="14.00">Staff</text>
</g>
<!-- Staff&#45;&gt;Data export success message -->
<g id="edge4" class="edge"><title>Staff&#45;&gt;Data export success message</title>
<path fill="none" stroke="black" d="M234.366,-431.878C238.506,-365.939 253.443,-128.058 258.558,-46.5935"/>
<polygon fill="black" stroke="black" points="262.079,-46.3705 259.212,-36.1708 255.093,-45.9318 262.079,-46.3705"/>
</g>
<!-- Types of attendance -->
<g id="node6" class="node"><title>Types of attendance</title>
<ellipse fill="none" stroke="black" cx="125.291" cy="-234" rx="85.2851" ry="18"/>
<text text-anchor="middle" x="125.291" y="-230.3" font-family="Times New Roman,serif" font-size="14.00">Types of attendance</text>
</g>
<!-- Staff&#45;&gt;Types of attendance -->
<g id="edge5" class="edge"><title>Staff&#45;&gt;Types of attendance</title>
<path fill="none" stroke="black" d="M224.995,-432.563C206.358,-395.634 161.042,-305.841 138.49,-261.155"/>
<polygon fill="black" stroke="black" points="141.543,-259.436 133.913,-252.085 135.294,-262.59 141.543,-259.436"/>
</g>
<!-- Attendance page -->
<g id="node7" class="node"><title>Attendance page</title>
<ellipse fill="none" stroke="black" cx="385.291" cy="-378" rx="71.4873" ry="18"/>
<text text-anchor="middle" x="385.291" y="-374.3" font-family="Times New Roman,serif" font-size="14.00">Attendance page</text>
</g>
<!-- Staff&#45;&gt;Attendance page -->
<g id="edge6" class="edge"><title>Staff&#45;&gt;Attendance page</title>
<path fill="none" stroke="black" d="M255.719,-438.671C278.719,-428.079 315.037,-411.353 343.379,-398.301"/>
<polygon fill="black" stroke="black" points="345.035,-401.392 352.654,-394.03 342.107,-395.034 345.035,-401.392"/>
</g>
<!-- Types of attendance&#45;&gt;export data to csv file -->
<g id="edge9" class="edge"><title>Types of attendance&#45;&gt;export data to csv file</title>
<path fill="none" stroke="black" d="M122.077,-215.697C120.645,-207.983 118.923,-198.712 117.326,-190.112"/>
<polygon fill="black" stroke="black" points="120.734,-189.297 115.467,-180.104 113.852,-190.575 120.734,-189.297"/>
</g>
<!-- display type of attendance for export -->
<g id="node8" class="node"><title>display type of attendance for export</title>
<ellipse fill="none" stroke="black" cx="406.291" cy="-306" rx="144.874" ry="18"/>
<text text-anchor="middle" x="406.291" y="-302.3" font-family="Times New Roman,serif" font-size="14.00">display type of attendance for export</text>
</g>
<!-- Attendance page&#45;&gt;display type of attendance for export -->
<g id="edge10" class="edge"><title>Attendance page&#45;&gt;display type of attendance for export</title>
<path fill="none" stroke="black" d="M390.482,-359.697C392.821,-351.898 395.638,-342.509 398.242,-333.829"/>
<polygon fill="black" stroke="black" points="401.638,-334.688 401.159,-324.104 394.933,-332.677 401.638,-334.688"/>
</g>
<!-- display type of attendance for export&#45;&gt;Types of attendance -->
<g id="edge7" class="edge"><title>display type of attendance for export&#45;&gt;Types of attendance</title>
<path fill="none" stroke="black" d="M344.624,-289.638C298.266,-278.09 234.979,-262.324 188.299,-250.696"/>
<polygon fill="black" stroke="black" points="188.854,-247.227 178.305,-248.206 187.162,-254.02 188.854,-247.227"/>
</g>
<!-- attendance -->
<g id="node9" class="node"><title>attendance</title>
<ellipse fill="none" stroke="black" cx="473.291" cy="-234" rx="49.2915" ry="18"/>
<text text-anchor="middle" x="473.291" y="-230.3" font-family="Times New Roman,serif" font-size="14.00">attendance</text>
</g>
<!-- display type of attendance for export&#45;&gt;attendance -->
<g id="edge8" class="edge"><title>display type of attendance for export&#45;&gt;attendance</title>
<path fill="none" stroke="black" d="M422.509,-288.055C430.944,-279.243 441.391,-268.328 450.612,-258.694"/>
<polygon fill="black" stroke="black" points="453.296,-260.951 457.683,-251.307 448.239,-256.111 453.296,-260.951"/>
</g>
<!-- Display attendance page -->
<g id="node10" class="node"><title>Display attendance page</title>
<ellipse fill="none" stroke="black" cx="490.291" cy="-450" rx="98.5829" ry="18"/>
<text text-anchor="middle" x="490.291" y="-446.3" font-family="Times New Roman,serif" font-size="14.00">Display attendance page</text>
</g>
<!-- Display attendance page&#45;&gt;Attendance page -->
<g id="edge11" class="edge"><title>Display attendance page&#45;&gt;Attendance page</title>
<path fill="none" stroke="black" d="M465.407,-432.411C451.213,-422.948 433.253,-410.975 417.937,-400.764"/>
<polygon fill="black" stroke="black" points="419.535,-397.623 409.273,-394.988 415.652,-403.447 419.535,-397.623"/>
</g>
<!-- Display attendance page&#45;&gt;attendance -->
<g id="edge12" class="edge"><title>Display attendance page&#45;&gt;attendance</title>
<path fill="none" stroke="black" d="M507.963,-432.009C536.904,-402.043 588.504,-338.223 560.291,-288 550.936,-271.347 533.99,-259.312 517.523,-250.962"/>
<polygon fill="black" stroke="black" points="519.013,-247.795 508.475,-246.697 516.028,-254.127 519.013,-247.795"/>
</g>
<!-- Select attendance button -->
<g id="node11" class="node"><title>Select attendance button</title>
<ellipse fill="none" stroke="black" cx="490.291" cy="-522" rx="99.3824" ry="18"/>
<text text-anchor="middle" x="490.291" y="-518.3" font-family="Times New Roman,serif" font-size="14.00">Select attendance button</text>
</g>
<!-- Select attendance button&#45;&gt;Display attendance page -->
<g id="edge13" class="edge"><title>Select attendance button&#45;&gt;Display attendance page</title>
<path fill="none" stroke="black" d="M490.291,-503.697C490.291,-495.983 490.291,-486.712 490.291,-478.112"/>
<polygon fill="black" stroke="black" points="493.791,-478.104 490.291,-468.104 486.791,-478.104 493.791,-478.104"/>
</g>
<!-- Admin -->
<g id="node12" class="node"><title>Admin</title>
<ellipse fill="none" stroke="black" cx="426.291" cy="-594" rx="35.194" ry="18"/>
<text text-anchor="middle" x="426.291" y="-590.3" font-family="Times New Roman,serif" font-size="14.00">Admin</text>
</g>
<!-- Admin&#45;&gt;Data export success message -->
<g id="edge16" class="edge"><title>Admin&#45;&gt;Data export success message</title>
<path fill="none" stroke="black" d="M461.429,-592.195C500.601,-589.321 563.062,-578.496 598.291,-540 625.597,-510.161 617.291,-491.447 617.291,-451 617.291,-451 617.291,-451 617.291,-161 617.291,-102.036 447.021,-56.7885 341.662,-34.4343"/>
<polygon fill="black" stroke="black" points="342.182,-30.9672 331.677,-32.3427 340.747,-37.8186 342.182,-30.9672"/>
</g>
<!-- Admin&#45;&gt;Types of attendance -->
<g id="edge14" class="edge"><title>Admin&#45;&gt;Types of attendance</title>
<path fill="none" stroke="black" d="M391.173,-592.017C312.766,-587.765 130.291,-565.563 130.291,-451 130.291,-451 130.291,-451 130.291,-377 130.291,-336.971 128.282,-290.635 126.811,-262.07"/>
<polygon fill="black" stroke="black" points="130.304,-261.843 126.278,-252.042 123.313,-262.214 130.304,-261.843"/>
</g>
<!-- Admin&#45;&gt;Attendance page -->
<g id="edge15" class="edge"><title>Admin&#45;&gt;Attendance page</title>
<path fill="none" stroke="black" d="M409.094,-578.193C399.182,-568.475 387.651,-554.848 382.291,-540 366.172,-495.349 372.756,-439.098 379.017,-406.28"/>
<polygon fill="black" stroke="black" points="382.525,-406.597 381.095,-396.099 375.666,-405.197 382.525,-406.597"/>
</g>
<!-- Admin&#45;&gt;Select attendance button -->
<g id="edge17" class="edge"><title>Admin&#45;&gt;Select attendance button</title>
<path fill="none" stroke="black" d="M440.494,-577.465C448.514,-568.693 458.721,-557.529 467.803,-547.596"/>
<polygon fill="black" stroke="black" points="470.618,-549.704 474.783,-539.962 465.452,-544.98 470.618,-549.704"/>
</g>
</g>
</svg>
