<?xml version="1.0" encoding="UTF-8" standalone="no"?>
<!DOCTYPE svg PUBLIC "-//W3C//DTD SVG 1.1//EN"
 "http://www.w3.org/Graphics/SVG/1.1/DTD/svg11.dtd">
<!-- Generated by graphviz version 2.38.0 (20140413.2041)
 -->
<!-- Title: g Pages: 1 -->
<svg width="634pt" height="404pt"
 viewBox="0.00 0.00 633.99 404.00" xmlns="http://www.w3.org/2000/svg" xmlns:xlink="http://www.w3.org/1999/xlink">
<g id="graph0" class="graph" transform="scale(1 1) rotate(0) translate(4 400)">
<title>g</title>
<polygon fill="white" stroke="none" points="-4,4 -4,-400 629.992,-400 629.992,4 -4,4"/>
<!-- redirect to home page -->
<g id="node1" class="node"><title>redirect to home page</title>
<ellipse fill="none" stroke="black" cx="129" cy="-90" rx="89.8845" ry="18"/>
<text text-anchor="middle" x="129" y="-86.3" font-family="Times New Roman,serif" font-size="14.00">redirect to home page</text>
</g>
<!-- home page -->
<g id="node2" class="node"><title>home page</title>
<ellipse fill="none" stroke="black" cx="129" cy="-18" rx="50.0912" ry="18"/>
<text text-anchor="middle" x="129" y="-14.3" font-family="Times New Roman,serif" font-size="14.00">home page</text>
</g>
<!-- redirect to home page&#45;&gt;home page -->
<g id="edge1" class="edge"><title>redirect to home page&#45;&gt;home page</title>
<path fill="none" stroke="black" d="M129,-71.6966C129,-63.9827 129,-54.7125 129,-46.1124"/>
<polygon fill="black" stroke="black" points="132.5,-46.1043 129,-36.1043 125.5,-46.1044 132.5,-46.1043"/>
</g>
<!-- send verification code -->
<g id="node3" class="node"><title>send verification code</title>
<ellipse fill="none" stroke="black" cx="535" cy="-162" rx="90.9839" ry="18"/>
<text text-anchor="middle" x="535" y="-158.3" font-family="Times New Roman,serif" font-size="14.00">send verification code</text>
</g>
<!-- Email protocol -->
<g id="node4" class="node"><title>Email protocol</title>
<ellipse fill="none" stroke="black" cx="535" cy="-90" rx="64.189" ry="18"/>
<text text-anchor="middle" x="535" y="-86.3" font-family="Times New Roman,serif" font-size="14.00">Email protocol</text>
</g>
<!-- send verification code&#45;&gt;Email protocol -->
<g id="edge2" class="edge"><title>send verification code&#45;&gt;Email protocol</title>
<path fill="none" stroke="black" d="M535,-143.697C535,-135.983 535,-126.712 535,-118.112"/>
<polygon fill="black" stroke="black" points="538.5,-118.104 535,-108.104 531.5,-118.104 538.5,-118.104"/>
</g>
<!-- validation failed message -->
<g id="node5" class="node"><title>validation failed message</title>
<ellipse fill="none" stroke="black" cx="129" cy="-162" rx="100.983" ry="18"/>
<text text-anchor="middle" x="129" y="-158.3" font-family="Times New Roman,serif" font-size="14.00">validation failed message</text>
</g>
<!-- validation failed message&#45;&gt;redirect to home page -->
<g id="edge3" class="edge"><title>validation failed message&#45;&gt;redirect to home page</title>
<path fill="none" stroke="black" d="M129,-143.697C129,-135.983 129,-126.712 129,-118.112"/>
<polygon fill="black" stroke="black" points="132.5,-118.104 129,-108.104 125.5,-118.104 132.5,-118.104"/>
</g>
<!-- verification code input field -->
<g id="node6" class="node"><title>verification code input field</title>
<ellipse fill="none" stroke="black" cx="262" cy="-306" rx="109.681" ry="18"/>
<text text-anchor="middle" x="262" y="-302.3" font-family="Times New Roman,serif" font-size="14.00">verification code input field</text>
</g>
<!-- validate password -->
<g id="node7" class="node"><title>validate password</title>
<ellipse fill="none" stroke="black" cx="258" cy="-234" rx="76.0865" ry="18"/>
<text text-anchor="middle" x="258" y="-230.3" font-family="Times New Roman,serif" font-size="14.00">validate password</text>
</g>
<!-- verification code input field&#45;&gt;validate password -->
<g id="edge4" class="edge"><title>verification code input field&#45;&gt;validate password</title>
<path fill="none" stroke="black" d="M261.011,-287.697C260.57,-279.983 260.041,-270.712 259.549,-262.112"/>
<polygon fill="black" stroke="black" points="263.042,-261.888 258.977,-252.104 256.054,-262.288 263.042,-261.888"/>
</g>
<!-- validate password&#45;&gt;home page -->
<g id="edge7" class="edge"><title>validate password&#45;&gt;home page</title>
<path fill="none" stroke="black" d="M259.37,-215.857C260.99,-184.233 260.155,-115.94 228,-72 215.196,-54.5033 194.834,-42.2063 175.896,-33.8932"/>
<polygon fill="black" stroke="black" points="177.042,-30.5804 166.463,-30.015 174.381,-37.0546 177.042,-30.5804"/>
</g>
<!-- validate password&#45;&gt;validation failed message -->
<g id="edge5" class="edge"><title>validate password&#45;&gt;validation failed message</title>
<path fill="none" stroke="black" d="M229.05,-217.291C211.094,-207.547 187.793,-194.903 168.195,-184.269"/>
<polygon fill="black" stroke="black" points="169.658,-181.08 159.199,-179.387 166.319,-187.233 169.658,-181.08"/>
</g>
<!-- user information -->
<g id="node8" class="node"><title>user information</title>
<ellipse fill="none" stroke="black" cx="356" cy="-162" rx="69.5877" ry="18"/>
<text text-anchor="middle" x="356" y="-158.3" font-family="Times New Roman,serif" font-size="14.00">user information</text>
</g>
<!-- validate password&#45;&gt;user information -->
<g id="edge6" class="edge"><title>validate password&#45;&gt;user information</title>
<path fill="none" stroke="black" d="M280.729,-216.765C293.964,-207.311 310.829,-195.265 325.239,-184.972"/>
<polygon fill="black" stroke="black" points="327.291,-187.808 333.394,-179.147 323.222,-182.112 327.291,-187.808"/>
</g>
<!-- validate input information -->
<g id="node9" class="node"><title>validate input information</title>
<ellipse fill="none" stroke="black" cx="455" cy="-234" rx="102.882" ry="18"/>
<text text-anchor="middle" x="455" y="-230.3" font-family="Times New Roman,serif" font-size="14.00">validate input information</text>
</g>
<!-- validate input information&#45;&gt;send verification code -->
<g id="edge9" class="edge"><title>validate input information&#45;&gt;send verification code</title>
<path fill="none" stroke="black" d="M474.366,-216.055C484.487,-207.199 497.036,-196.219 508.087,-186.549"/>
<polygon fill="black" stroke="black" points="510.592,-189.008 515.813,-179.789 505.982,-183.74 510.592,-189.008"/>
</g>
<!-- validate input information&#45;&gt;user information -->
<g id="edge8" class="edge"><title>validate input information&#45;&gt;user information</title>
<path fill="none" stroke="black" d="M431.538,-216.411C418.375,-207.103 401.777,-195.367 387.494,-185.268"/>
<polygon fill="black" stroke="black" points="389.137,-182.144 378.952,-179.228 385.096,-187.86 389.137,-182.144"/>
</g>
<!-- Login Page -->
<g id="node10" class="node"><title>Login Page</title>
<ellipse fill="none" stroke="black" cx="448" cy="-306" rx="51.9908" ry="18"/>
<text text-anchor="middle" x="448" y="-302.3" font-family="Times New Roman,serif" font-size="14.00">Login Page</text>
</g>
<!-- Login Page&#45;&gt;validate input information -->
<g id="edge10" class="edge"><title>Login Page&#45;&gt;validate input information</title>
<path fill="none" stroke="black" d="M449.73,-287.697C450.502,-279.983 451.429,-270.712 452.289,-262.112"/>
<polygon fill="black" stroke="black" points="455.777,-262.403 453.29,-252.104 448.812,-261.706 455.777,-262.403"/>
</g>
<!-- User -->
<g id="node11" class="node"><title>User</title>
<ellipse fill="none" stroke="black" cx="193" cy="-378" rx="27.8951" ry="18"/>
<text text-anchor="middle" x="193" y="-374.3" font-family="Times New Roman,serif" font-size="14.00">User</text>
</g>
<!-- User&#45;&gt;home page -->
<g id="edge13" class="edge"><title>User&#45;&gt;home page</title>
<path fill="none" stroke="black" d="M166.971,-370.908C114.29,-356.863 0,-316.95 0,-235 0,-235 0,-235 0,-161 0,-119.258 3.03894,-103.867 30,-72 44.1114,-55.3207 64.8397,-43.0878 83.6875,-34.6048"/>
<polygon fill="black" stroke="black" points="85.2091,-37.7611 93.0385,-30.623 82.4666,-31.3207 85.2091,-37.7611"/>
</g>
<!-- User&#45;&gt;validation failed message -->
<g id="edge14" class="edge"><title>User&#45;&gt;validation failed message</title>
<path fill="none" stroke="black" d="M175.476,-363.752C164.114,-354.086 150.142,-339.929 143,-324 123.508,-280.528 123.714,-223.891 126.063,-190.68"/>
<polygon fill="black" stroke="black" points="129.58,-190.623 126.917,-180.369 122.604,-190.046 129.58,-190.623"/>
</g>
<!-- User&#45;&gt;verification code input field -->
<g id="edge11" class="edge"><title>User&#45;&gt;verification code input field</title>
<path fill="none" stroke="black" d="M207.297,-362.496C216.191,-353.473 227.85,-341.644 238.119,-331.227"/>
<polygon fill="black" stroke="black" points="240.764,-333.529 245.292,-323.951 235.779,-328.615 240.764,-333.529"/>
</g>
<!-- User&#45;&gt;Login Page -->
<g id="edge12" class="edge"><title>User&#45;&gt;Login Page</title>
<path fill="none" stroke="black" d="M218.383,-370.032C260.365,-358.508 344.976,-335.281 398.935,-320.469"/>
<polygon fill="black" stroke="black" points="399.92,-323.828 408.637,-317.806 398.067,-317.078 399.92,-323.828"/>
</g>
</g>
</svg>
