<?xml version="1.0" encoding="UTF-8" standalone="no"?>
<!DOCTYPE svg PUBLIC "-//W3C//DTD SVG 1.1//EN"
 "http://www.w3.org/Graphics/SVG/1.1/DTD/svg11.dtd">
<!-- Generated by graphviz version 2.38.0 (20140413.2041)
 -->
<!-- Title: g Pages: 1 -->
<svg width="1854pt" height="618pt"
 viewBox="0.00 0.00 1854.00 617.93" xmlns="http://www.w3.org/2000/svg" xmlns:xlink="http://www.w3.org/1999/xlink">
<g id="graph0" class="graph" transform="scale(1 1) rotate(0) translate(4 613.932)">
<title>g</title>
<polygon fill="white" stroke="none" points="-4,4 -4,-613.932 1850,-613.932 1850,4 -4,4"/>
<!-- EAID_9C3D0017_81AF_4812_84C6_557F184DDB71 -->
<g id="node1" class="node"><title>EAID_9C3D0017_81AF_4812_84C6_557F184DDB71</title>
<text text-anchor="start" x="11.5" y="-195.243" font-family="Times New Roman,serif" font-size="24.00">Administrator</text>
</g>
<!-- EAID_B17D5BEC_41DB_4809_88FE_23ACA23E1C45 -->
<g id="node2" class="node"><title>EAID_B17D5BEC_41DB_4809_88FE_23ACA23E1C45</title>
<text text-anchor="start" x="1014.5" y="-307.243" font-family="Times New Roman,serif" font-size="24.00">case information page</text>
</g>
<!-- EAID_9C3D0017_81AF_4812_84C6_557F184DDB71&#45;&gt;EAID_B17D5BEC_41DB_4809_88FE_23ACA23E1C45 -->
<g id="edge1" class="edge"><title>EAID_9C3D0017_81AF_4812_84C6_557F184DDB71&#45;&gt;EAID_B17D5BEC_41DB_4809_88FE_23ACA23E1C45</title>
<path fill="none" stroke="black" d="M153.534,-184.865C212.922,-171.159 298.194,-153.688 374,-146.443 637.77,-121.236 747.899,-49.9123 968,-197.443 993.832,-214.758 981.313,-236.173 1004,-257.443 1017.8,-270.378 1035.03,-281.171 1051.83,-289.801"/>
<polygon fill="black" stroke="black" points="1050.58,-293.086 1061.1,-294.372 1053.68,-286.809 1050.58,-293.086"/>
</g>
<!-- EAID_D346C9F6_E111_4e2e_B772_B39A2438E607 -->
<g id="node3" class="node"><title>EAID_D346C9F6_E111_4e2e_B772_B39A2438E607</title>
<text text-anchor="start" x="201.5" y="-244.243" font-family="Times New Roman,serif" font-size="24.00">document list</text>
</g>
<!-- EAID_9C3D0017_81AF_4812_84C6_557F184DDB71&#45;&gt;EAID_D346C9F6_E111_4e2e_B772_B39A2438E607 -->
<g id="edge2" class="edge"><title>EAID_9C3D0017_81AF_4812_84C6_557F184DDB71&#45;&gt;EAID_D346C9F6_E111_4e2e_B772_B39A2438E607</title>
<path fill="none" stroke="black" d="M153.747,-223.374C162.709,-225.748 171.896,-228.181 180.954,-230.58"/>
<polygon fill="black" stroke="black" points="180.152,-233.988 190.715,-233.165 181.945,-227.222 180.152,-233.988"/>
</g>
<!-- EAID_3940DC34_A507_4cdf_933A_AA5573F4F76F -->
<g id="node4" class="node"><title>EAID_3940DC34_A507_4cdf_933A_AA5573F4F76F</title>
<text text-anchor="start" x="679" y="-281.243" font-family="Times New Roman,serif" font-size="24.00">unauthorized request message</text>
</g>
<!-- EAID_9C3D0017_81AF_4812_84C6_557F184DDB71&#45;&gt;EAID_3940DC34_A507_4cdf_933A_AA5573F4F76F -->
<g id="edge3" class="edge"><title>EAID_9C3D0017_81AF_4812_84C6_557F184DDB71&#45;&gt;EAID_3940DC34_A507_4cdf_933A_AA5573F4F76F</title>
<path fill="none" stroke="black" d="M153.513,-201.716C205.988,-202.246 277.274,-206.475 338,-222.443 355.113,-226.943 356.979,-234.608 374,-239.443 466.206,-265.637 572.877,-278.189 658.438,-284.168"/>
<polygon fill="black" stroke="black" points="658.286,-287.666 668.5,-284.848 658.758,-280.682 658.286,-287.666"/>
</g>
<!-- EAID_704DF49B_A291_450b_9DB6_6C8E1E3D036B -->
<g id="node10" class="node"><title>EAID_704DF49B_A291_450b_9DB6_6C8E1E3D036B</title>
<text text-anchor="start" x="1277.5" y="-307.243" font-family="Times New Roman,serif" font-size="24.00">Validate print/download request</text>
</g>
<!-- EAID_B17D5BEC_41DB_4809_88FE_23ACA23E1C45&#45;&gt;EAID_704DF49B_A291_450b_9DB6_6C8E1E3D036B -->
<g id="edge23" class="edge"><title>EAID_B17D5BEC_41DB_4809_88FE_23ACA23E1C45&#45;&gt;EAID_704DF49B_A291_450b_9DB6_6C8E1E3D036B</title>
<path fill="none" stroke="black" d="M1231.22,-315.443C1239.59,-315.443 1248.14,-315.443 1256.76,-315.443"/>
<polygon fill="black" stroke="black" points="1256.91,-318.944 1266.91,-315.443 1256.91,-311.944 1256.91,-318.944"/>
</g>
<!-- EAID_65FBB4E9_489C_4639_A605_FDF65B5836E9 -->
<g id="node16" class="node"><title>EAID_65FBB4E9_489C_4639_A605_FDF65B5836E9</title>
<text text-anchor="start" x="384" y="-168.243" font-family="Times New Roman,serif" font-size="24.00">verify the role of the user</text>
</g>
<!-- EAID_D346C9F6_E111_4e2e_B772_B39A2438E607&#45;&gt;EAID_65FBB4E9_489C_4639_A605_FDF65B5836E9 -->
<g id="edge27" class="edge"><title>EAID_D346C9F6_E111_4e2e_B772_B39A2438E607&#45;&gt;EAID_65FBB4E9_489C_4639_A605_FDF65B5836E9</title>
<path fill="none" stroke="black" d="M331.064,-231.374C360.669,-221.861 395.811,-210.568 426.51,-200.703"/>
<polygon fill="black" stroke="black" points="427.858,-203.945 436.308,-197.554 425.717,-197.281 427.858,-203.945"/>
</g>
<!-- EAID_AD524581_9D5A_48d0_88D4_3F6FE5B6EC85 -->
<g id="node5" class="node"><title>EAID_AD524581_9D5A_48d0_88D4_3F6FE5B6EC85</title>
<text text-anchor="start" x="11.5" y="-540.243" font-family="Times New Roman,serif" font-size="24.00">Administrator</text>
</g>
<!-- EAID_AD524581_9D5A_48d0_88D4_3F6FE5B6EC85&#45;&gt;EAID_B17D5BEC_41DB_4809_88FE_23ACA23E1C45 -->
<g id="edge7" class="edge"><title>EAID_AD524581_9D5A_48d0_88D4_3F6FE5B6EC85&#45;&gt;EAID_B17D5BEC_41DB_4809_88FE_23ACA23E1C45</title>
<path fill="none" stroke="black" d="M153.522,-534.081C205.385,-524.059 275.944,-510.238 338,-497.443 618.549,-439.599 690.922,-434.115 968,-361.443 992.666,-354.974 1019.35,-347.014 1043.21,-339.545"/>
<polygon fill="black" stroke="black" points="1044.41,-342.836 1052.9,-336.491 1042.31,-336.16 1044.41,-342.836"/>
</g>
<!-- EAID_AD524581_9D5A_48d0_88D4_3F6FE5B6EC85&#45;&gt;EAID_D346C9F6_E111_4e2e_B772_B39A2438E607 -->
<g id="edge5" class="edge"><title>EAID_AD524581_9D5A_48d0_88D4_3F6FE5B6EC85&#45;&gt;EAID_D346C9F6_E111_4e2e_B772_B39A2438E607</title>
<path fill="none" stroke="black" d="M91.7834,-527.295C107.054,-502.974 132.865,-461.843 155,-426.443 186.621,-375.875 223.321,-316.976 244.911,-282.305"/>
<polygon fill="black" stroke="black" points="248.008,-283.953 250.323,-273.614 242.066,-280.253 248.008,-283.953"/>
</g>
<!-- EAID_AD524581_9D5A_48d0_88D4_3F6FE5B6EC85&#45;&gt;EAID_3940DC34_A507_4cdf_933A_AA5573F4F76F -->
<g id="edge6" class="edge"><title>EAID_AD524581_9D5A_48d0_88D4_3F6FE5B6EC85&#45;&gt;EAID_3940DC34_A507_4cdf_933A_AA5573F4F76F</title>
<path fill="none" stroke="black" d="M138.621,-527.358C274.197,-479.81 603.125,-364.452 747.316,-313.883"/>
<polygon fill="black" stroke="black" points="748.679,-317.113 756.958,-310.501 746.363,-310.508 748.679,-317.113"/>
</g>
<!-- EAID_9BBFE678_1184_4760_B579_9F0355658543 -->
<g id="node6" class="node"><title>EAID_9BBFE678_1184_4760_B579_9F0355658543</title>
<text text-anchor="start" x="1640" y="-521.243" font-family="Times New Roman,serif" font-size="24.00">unauthorized request</text>
</g>
<!-- EAID_AD524581_9D5A_48d0_88D4_3F6FE5B6EC85&#45;&gt;EAID_9BBFE678_1184_4760_B579_9F0355658543 -->
<g id="edge4" class="edge"><title>EAID_AD524581_9D5A_48d0_88D4_3F6FE5B6EC85&#45;&gt;EAID_9BBFE678_1184_4760_B579_9F0355658543</title>
<path fill="none" stroke="black" d="M153.825,-564.777C238.192,-581.621 379.22,-605.443 502,-605.443 502,-605.443 502,-605.443 1118.5,-605.443 1330.1,-605.443 1386.6,-623.4 1594,-581.443 1623.4,-575.496 1654.86,-564.593 1680.76,-554.302"/>
<polygon fill="black" stroke="black" points="1682.08,-557.543 1690.03,-550.548 1679.45,-551.054 1682.08,-557.543"/>
</g>
<!-- EAID_587AD183_E498_44c1_8BA1_865D7D267AAF -->
<g id="node7" class="node"><title>EAID_587AD183_E498_44c1_8BA1_865D7D267AAF</title>
<text text-anchor="start" x="10.5" y="-310.243" font-family="Times New Roman,serif" font-size="24.00">Case Manager</text>
</g>
<!-- EAID_587AD183_E498_44c1_8BA1_865D7D267AAF&#45;&gt;EAID_B17D5BEC_41DB_4809_88FE_23ACA23E1C45 -->
<g id="edge9" class="edge"><title>EAID_587AD183_E498_44c1_8BA1_865D7D267AAF&#45;&gt;EAID_B17D5BEC_41DB_4809_88FE_23ACA23E1C45</title>
<path fill="none" stroke="black" d="M155.031,-323.074C167.064,-323.643 179.367,-324.133 191,-324.443 256.31,-326.184 272.667,-324.703 338,-324.443 618.007,-323.332 688.034,-324.325 968,-319.443 976.34,-319.298 984.944,-319.126 993.61,-318.935"/>
<polygon fill="black" stroke="black" points="993.883,-322.43 1003.8,-318.704 993.725,-315.432 993.883,-322.43"/>
</g>
<!-- EAID_587AD183_E498_44c1_8BA1_865D7D267AAF&#45;&gt;EAID_D346C9F6_E111_4e2e_B772_B39A2438E607 -->
<g id="edge10" class="edge"><title>EAID_587AD183_E498_44c1_8BA1_865D7D267AAF&#45;&gt;EAID_D346C9F6_E111_4e2e_B772_B39A2438E607</title>
<path fill="none" stroke="black" d="M137.544,-297.379C155.817,-290.86 176.104,-283.623 194.963,-276.895"/>
<polygon fill="black" stroke="black" points="196.14,-280.191 204.383,-273.534 193.788,-273.598 196.14,-280.191"/>
</g>
<!-- EAID_587AD183_E498_44c1_8BA1_865D7D267AAF&#45;&gt;EAID_3940DC34_A507_4cdf_933A_AA5573F4F76F -->
<g id="edge11" class="edge"><title>EAID_587AD183_E498_44c1_8BA1_865D7D267AAF&#45;&gt;EAID_3940DC34_A507_4cdf_933A_AA5573F4F76F</title>
<path fill="none" stroke="black" d="M155.096,-315.436C273.341,-310.792 502.872,-301.779 658.056,-295.685"/>
<polygon fill="black" stroke="black" points="658.313,-299.178 668.168,-295.288 658.039,-292.183 658.313,-299.178"/>
</g>
<!-- EAID_587AD183_E498_44c1_8BA1_865D7D267AAF&#45;&gt;EAID_9BBFE678_1184_4760_B579_9F0355658543 -->
<g id="edge8" class="edge"><title>EAID_587AD183_E498_44c1_8BA1_865D7D267AAF&#45;&gt;EAID_9BBFE678_1184_4760_B579_9F0355658543</title>
<path fill="none" stroke="black" d="M130.799,-339.484C250.276,-385.589 553.305,-491.443 817,-491.443 817,-491.443 817,-491.443 1118.5,-491.443 1293.25,-491.443 1495.25,-506.742 1619.56,-517.925"/>
<polygon fill="black" stroke="black" points="1619.58,-521.442 1629.86,-518.858 1620.21,-514.47 1619.58,-521.442"/>
</g>
<!-- EAID_384826C6_A3C7_4313_AB84_7CB1DA2D62AE -->
<g id="node8" class="node"><title>EAID_384826C6_A3C7_4313_AB84_7CB1DA2D62AE</title>
<text text-anchor="start" x="16.5" y="-119.243" font-family="Times New Roman,serif" font-size="24.00">General staff</text>
</g>
<!-- EAID_384826C6_A3C7_4313_AB84_7CB1DA2D62AE&#45;&gt;EAID_B17D5BEC_41DB_4809_88FE_23ACA23E1C45 -->
<g id="edge14" class="edge"><title>EAID_384826C6_A3C7_4313_AB84_7CB1DA2D62AE&#45;&gt;EAID_B17D5BEC_41DB_4809_88FE_23ACA23E1C45</title>
<path fill="none" stroke="black" d="M128.402,-106.391C275.508,-48.01 713.076,98.7603 968,-103.443 1023.07,-147.124 960.781,-202.011 1004,-257.443 1014.45,-270.843 1028.85,-281.44 1043.86,-289.704"/>
<polygon fill="black" stroke="black" points="1042.25,-292.814 1052.74,-294.304 1045.47,-286.598 1042.25,-292.814"/>
</g>
<!-- EAID_384826C6_A3C7_4313_AB84_7CB1DA2D62AE&#45;&gt;EAID_D346C9F6_E111_4e2e_B772_B39A2438E607 -->
<g id="edge12" class="edge"><title>EAID_384826C6_A3C7_4313_AB84_7CB1DA2D62AE&#45;&gt;EAID_D346C9F6_E111_4e2e_B772_B39A2438E607</title>
<path fill="none" stroke="black" d="M115.097,-148.562C127.874,-156.167 142.212,-164.967 155,-173.443 179.751,-189.85 206.748,-209.5 227.621,-225.097"/>
<polygon fill="black" stroke="black" points="225.779,-228.091 235.877,-231.295 229.981,-222.493 225.779,-228.091"/>
</g>
<!-- EAID_384826C6_A3C7_4313_AB84_7CB1DA2D62AE&#45;&gt;EAID_3940DC34_A507_4cdf_933A_AA5573F4F76F -->
<g id="edge13" class="edge"><title>EAID_384826C6_A3C7_4313_AB84_7CB1DA2D62AE&#45;&gt;EAID_3940DC34_A507_4cdf_933A_AA5573F4F76F</title>
<path fill="none" stroke="black" d="M148.673,-147.369C221.684,-167.889 331.209,-198.026 374,-206.443 487.427,-228.755 521.407,-205.786 632,-239.443 649.114,-244.652 651.121,-251.518 668,-257.443 676.525,-260.436 685.427,-263.2 694.453,-265.742"/>
<polygon fill="black" stroke="black" points="693.717,-269.169 704.285,-268.415 695.553,-262.414 693.717,-269.169"/>
</g>
<!-- EAID_9122019A_24A2_437b_93DD_D2FCF51E73CD -->
<g id="node9" class="node"><title>EAID_9122019A_24A2_437b_93DD_D2FCF51E73CD</title>
<text text-anchor="start" x="48.5" y="-388.243" font-family="Times New Roman,serif" font-size="24.00">Youth</text>
</g>
<!-- EAID_9122019A_24A2_437b_93DD_D2FCF51E73CD&#45;&gt;EAID_B17D5BEC_41DB_4809_88FE_23ACA23E1C45 -->
<g id="edge15" class="edge"><title>EAID_9122019A_24A2_437b_93DD_D2FCF51E73CD&#45;&gt;EAID_B17D5BEC_41DB_4809_88FE_23ACA23E1C45</title>
<path fill="none" stroke="black" d="M117.208,-394.838C167.938,-392.657 259.671,-388.451 338,-383.443 618.274,-365.527 688.627,-363.162 968,-334.443 976.363,-333.584 984.982,-332.638 993.661,-331.642"/>
<polygon fill="black" stroke="black" points="994.337,-335.087 1003.86,-330.451 993.526,-328.134 994.337,-335.087"/>
</g>
<!-- EAID_9122019A_24A2_437b_93DD_D2FCF51E73CD&#45;&gt;EAID_D346C9F6_E111_4e2e_B772_B39A2438E607 -->
<g id="edge18" class="edge"><title>EAID_9122019A_24A2_437b_93DD_D2FCF51E73CD&#45;&gt;EAID_D346C9F6_E111_4e2e_B772_B39A2438E607</title>
<path fill="none" stroke="black" d="M114.728,-375.396C127.738,-367.403 142.32,-357.931 155,-348.443 183.159,-327.374 212.927,-300.681 234.145,-280.793"/>
<polygon fill="black" stroke="black" points="236.687,-283.206 241.556,-273.796 231.882,-278.116 236.687,-283.206"/>
</g>
<!-- EAID_9122019A_24A2_437b_93DD_D2FCF51E73CD&#45;&gt;EAID_3940DC34_A507_4cdf_933A_AA5573F4F76F -->
<g id="edge16" class="edge"><title>EAID_9122019A_24A2_437b_93DD_D2FCF51E73CD&#45;&gt;EAID_3940DC34_A507_4cdf_933A_AA5573F4F76F</title>
<path fill="none" stroke="black" d="M117.165,-390.841C217.023,-376.373 487.869,-337.131 661.843,-311.924"/>
<polygon fill="black" stroke="black" points="662.469,-315.37 671.864,-310.472 661.465,-308.442 662.469,-315.37"/>
</g>
<!-- EAID_9122019A_24A2_437b_93DD_D2FCF51E73CD&#45;&gt;EAID_9BBFE678_1184_4760_B579_9F0355658543 -->
<g id="edge17" class="edge"><title>EAID_9122019A_24A2_437b_93DD_D2FCF51E73CD&#45;&gt;EAID_9BBFE678_1184_4760_B579_9F0355658543</title>
<path fill="none" stroke="black" d="M105.645,-417.51C127.54,-433.498 159.734,-454.815 191,-467.443 268.023,-498.553 291.444,-496.227 374,-505.443 832.537,-556.632 1383.13,-543.776 1619.66,-534.733"/>
<polygon fill="black" stroke="black" points="1619.8,-538.23 1629.65,-534.346 1619.53,-531.236 1619.8,-538.23"/>
</g>
<!-- EAID_704DF49B_A291_450b_9DB6_6C8E1E3D036B&#45;&gt;EAID_9BBFE678_1184_4760_B579_9F0355658543 -->
<g id="edge20" class="edge"><title>EAID_704DF49B_A291_450b_9DB6_6C8E1E3D036B&#45;&gt;EAID_9BBFE678_1184_4760_B579_9F0355658543</title>
<path fill="none" stroke="black" d="M1461.63,-336.548C1517.41,-375.624 1636.7,-459.183 1698.34,-502.364"/>
<polygon fill="black" stroke="black" points="1696.45,-505.31 1706.65,-508.18 1700.46,-499.576 1696.45,-505.31"/>
</g>
<!-- EAID_BF8438EA_0CFC_46b9_989F_9FD9B5264BAB -->
<g id="node11" class="node"><title>EAID_BF8438EA_0CFC_46b9_989F_9FD9B5264BAB</title>
<text text-anchor="start" x="1719" y="-193.243" font-family="Times New Roman,serif" font-size="24.00">role</text>
</g>
<!-- EAID_704DF49B_A291_450b_9DB6_6C8E1E3D036B&#45;&gt;EAID_BF8438EA_0CFC_46b9_989F_9FD9B5264BAB -->
<g id="edge19" class="edge"><title>EAID_704DF49B_A291_450b_9DB6_6C8E1E3D036B&#45;&gt;EAID_BF8438EA_0CFC_46b9_989F_9FD9B5264BAB</title>
<path fill="none" stroke="black" d="M1487.89,-294.401C1549.44,-271.434 1646.26,-235.302 1699.25,-215.53"/>
<polygon fill="black" stroke="black" points="1700.78,-218.694 1708.93,-211.919 1698.34,-212.136 1700.78,-218.694"/>
</g>
<!-- EAID_7089F85B_8413_47ca_BC1D_61D28D432719 -->
<g id="node12" class="node"><title>EAID_7089F85B_8413_47ca_BC1D_61D28D432719</title>
<text text-anchor="start" x="1715" y="-337.243" font-family="Times New Roman,serif" font-size="24.00">print</text>
</g>
<!-- EAID_704DF49B_A291_450b_9DB6_6C8E1E3D036B&#45;&gt;EAID_7089F85B_8413_47ca_BC1D_61D28D432719 -->
<g id="edge21" class="edge"><title>EAID_704DF49B_A291_450b_9DB6_6C8E1E3D036B&#45;&gt;EAID_7089F85B_8413_47ca_BC1D_61D28D432719</title>
<path fill="none" stroke="black" d="M1594.09,-331.41C1631.45,-335.079 1668.02,-338.67 1694.82,-341.301"/>
<polygon fill="black" stroke="black" points="1694.66,-344.802 1704.95,-342.296 1695.34,-337.836 1694.66,-344.802"/>
</g>
<!-- EAID_67CDD711_0139_4d94_A210_F4B9F36404EE -->
<g id="node13" class="node"><title>EAID_67CDD711_0139_4d94_A210_F4B9F36404EE</title>
<text text-anchor="start" x="1691" y="-277.243" font-family="Times New Roman,serif" font-size="24.00">download</text>
</g>
<!-- EAID_704DF49B_A291_450b_9DB6_6C8E1E3D036B&#45;&gt;EAID_67CDD711_0139_4d94_A210_F4B9F36404EE -->
<g id="edge22" class="edge"><title>EAID_704DF49B_A291_450b_9DB6_6C8E1E3D036B&#45;&gt;EAID_67CDD711_0139_4d94_A210_F4B9F36404EE</title>
<path fill="none" stroke="black" d="M1594.09,-299.477C1621.15,-296.82 1647.8,-294.203 1670.62,-291.962"/>
<polygon fill="black" stroke="black" points="1671.21,-295.421 1680.82,-290.96 1670.53,-288.454 1671.21,-295.421"/>
</g>
<!-- EAID_85D35F72_331A_4d85_90AC_B3418973AB1F -->
<g id="node14" class="node"><title>EAID_85D35F72_331A_4d85_90AC_B3418973AB1F</title>
<text text-anchor="start" x="678" y="-219.243" font-family="Times New Roman,serif" font-size="24.00">display case information page</text>
</g>
<!-- EAID_85D35F72_331A_4d85_90AC_B3418973AB1F&#45;&gt;EAID_B17D5BEC_41DB_4809_88FE_23ACA23E1C45 -->
<g id="edge25" class="edge"><title>EAID_85D35F72_331A_4d85_90AC_B3418973AB1F&#45;&gt;EAID_B17D5BEC_41DB_4809_88FE_23ACA23E1C45</title>
<path fill="none" stroke="black" d="M926.509,-248.527C940.547,-251.866 954.674,-255.524 968,-259.443 997.663,-268.169 1029.86,-280.005 1056.66,-290.549"/>
<polygon fill="black" stroke="black" points="1055.69,-293.93 1066.28,-294.367 1058.27,-287.424 1055.69,-293.93"/>
</g>
<!-- EAID_0EA18BF0_9FEF_4b26_A3ED_20572291D15C -->
<g id="node15" class="node"><title>EAID_0EA18BF0_9FEF_4b26_A3ED_20572291D15C</title>
<text text-anchor="start" x="1039.5" y="-219.243" font-family="Times New Roman,serif" font-size="24.00">case information</text>
</g>
<!-- EAID_85D35F72_331A_4d85_90AC_B3418973AB1F&#45;&gt;EAID_0EA18BF0_9FEF_4b26_A3ED_20572291D15C -->
<g id="edge24" class="edge"><title>EAID_85D35F72_331A_4d85_90AC_B3418973AB1F&#45;&gt;EAID_0EA18BF0_9FEF_4b26_A3ED_20572291D15C</title>
<path fill="none" stroke="black" d="M968.186,-227.443C985.193,-227.443 1002.19,-227.443 1018.29,-227.443"/>
<polygon fill="black" stroke="black" points="1018.74,-230.944 1028.74,-227.443 1018.74,-223.944 1018.74,-230.944"/>
</g>
<!-- EAID_65FBB4E9_489C_4639_A605_FDF65B5836E9&#45;&gt;EAID_3940DC34_A507_4cdf_933A_AA5573F4F76F -->
<g id="edge29" class="edge"><title>EAID_65FBB4E9_489C_4639_A605_FDF65B5836E9&#45;&gt;EAID_3940DC34_A507_4cdf_933A_AA5573F4F76F</title>
<path fill="none" stroke="black" d="M605.576,-197.557C614.873,-201.436 623.847,-206.022 632,-211.443 653.618,-225.819 645.993,-243.672 668,-257.443 671.825,-259.837 675.802,-262.054 679.893,-264.107"/>
<polygon fill="black" stroke="black" points="678.474,-267.307 689.018,-268.344 681.422,-260.958 678.474,-267.307"/>
</g>
<!-- EAID_65FBB4E9_489C_4639_A605_FDF65B5836E9&#45;&gt;EAID_BF8438EA_0CFC_46b9_989F_9FD9B5264BAB -->
<g id="edge28" class="edge"><title>EAID_65FBB4E9_489C_4639_A605_FDF65B5836E9&#45;&gt;EAID_BF8438EA_0CFC_46b9_989F_9FD9B5264BAB</title>
<path fill="none" stroke="black" d="M632.174,-179.042C906.046,-184.595 1536.55,-197.379 1698.51,-200.663"/>
<polygon fill="black" stroke="black" points="1698.86,-204.171 1708.93,-200.874 1699,-197.172 1698.86,-204.171"/>
</g>
<!-- EAID_65FBB4E9_489C_4639_A605_FDF65B5836E9&#45;&gt;EAID_85D35F72_331A_4d85_90AC_B3418973AB1F -->
<g id="edge26" class="edge"><title>EAID_65FBB4E9_489C_4639_A605_FDF65B5836E9&#45;&gt;EAID_85D35F72_331A_4d85_90AC_B3418973AB1F</title>
<path fill="none" stroke="black" d="M632.212,-197.334C647.308,-199.794 662.766,-202.313 678.001,-204.795"/>
<polygon fill="black" stroke="black" points="677.541,-208.266 687.974,-206.42 678.667,-201.357 677.541,-208.266"/>
</g>
</g>
</svg>
