<?xml version="1.0" encoding="UTF-8" standalone="no"?>
<!DOCTYPE svg PUBLIC "-//W3C//DTD SVG 1.1//EN"
 "http://www.w3.org/Graphics/SVG/1.1/DTD/svg11.dtd">
<!-- Generated by graphviz version 2.38.0 (20140413.2041)
 -->
<!-- Title: g Pages: 1 -->
<svg width="752pt" height="178pt"
 viewBox="0.00 0.00 752.00 177.50" xmlns="http://www.w3.org/2000/svg" xmlns:xlink="http://www.w3.org/1999/xlink">
<g id="graph0" class="graph" transform="scale(1 1) rotate(0) translate(4 173.5)">
<title>g</title>
<polygon fill="white" stroke="none" points="-4,4 -4,-173.5 748,-173.5 748,4 -4,4"/>
<!-- EAID_D94B4615_C403_4291_A2BF_60F0DD5DE12D -->
<g id="node1" class="node"><title>EAID_D94B4615_C403_4291_A2BF_60F0DD5DE12D</title>
<image xlink:href="img/actor1.png" width="61px" height="90px" preserveAspectRatio="xMinYMin meet" x="10.5" y="-126"/>
<text text-anchor="start" x="19" y="-12.8" font-family="Times New Roman,serif" font-size="24.00">User</text>
</g>
<!-- EAID_F13652A5_F319_4507_B8DA_0ABB39408BC3 -->
<g id="node2" class="node"><title>EAID_F13652A5_F319_4507_B8DA_0ABB39408BC3</title>
<image xlink:href="img/boundary3.png" width="115px" height="67px" preserveAspectRatio="xMinYMin meet" x="187.5" y="-157"/>
<text text-anchor="start" x="127.5" y="-66.8" font-family="Times New Roman,serif" font-size="24.00">Student preference menu</text>
</g>
<!-- EAID_D94B4615_C403_4291_A2BF_60F0DD5DE12D&#45;&gt;EAID_F13652A5_F319_4507_B8DA_0ABB39408BC3 -->
<g id="edge1" class="edge"><title>EAID_D94B4615_C403_4291_A2BF_60F0DD5DE12D&#45;&gt;EAID_F13652A5_F319_4507_B8DA_0ABB39408BC3</title>
<path fill="none" stroke="black" d="M81.4087,-74.4954C89.2614,-76.167 97.9032,-78.0066 106.984,-79.9397"/>
<polygon fill="black" stroke="black" points="106.484,-83.4115 116.993,-82.0704 107.941,-76.5649 106.484,-83.4115"/>
</g>
<!-- EAID_D4329E7C_9AAA_4388_9C8B_0593E87B6683 -->
<g id="node3" class="node"><title>EAID_D4329E7C_9AAA_4388_9C8B_0593E87B6683</title>
<image xlink:href="img/boundary3.png" width="102px" height="67px" preserveAspectRatio="xMinYMin meet" x="632" y="-115"/>
<text text-anchor="start" x="632" y="-24.8" font-family="Times New Roman,serif" font-size="24.00">Homepage</text>
</g>
<!-- EAID_D94B4615_C403_4291_A2BF_60F0DD5DE12D&#45;&gt;EAID_D4329E7C_9AAA_4388_9C8B_0593E87B6683 -->
<g id="edge2" class="edge"><title>EAID_D94B4615_C403_4291_A2BF_60F0DD5DE12D&#45;&gt;EAID_D4329E7C_9AAA_4388_9C8B_0593E87B6683</title>
<path fill="none" stroke="black" d="M81.0501,-52.8828C92.5163,-49.6599 105.143,-46.6598 117,-45 323.434,-16.1025 379.115,-17.5313 586,-43 594.548,-44.0523 603.43,-45.6129 612.187,-47.4423"/>
<polygon fill="black" stroke="black" points="611.476,-50.8697 621.996,-49.6092 612.986,-44.0345 611.476,-50.8697"/>
</g>
<!-- EAID_430959A4_DF36_4938_B87D_02F07DBE5A29 -->
<g id="node4" class="node"><title>EAID_430959A4_DF36_4938_B87D_02F07DBE5A29</title>
<image xlink:href="img/control1.png" width="106px" height="75px" preserveAspectRatio="xMinYMin meet" x="444" y="-163"/>
<text text-anchor="start" x="418" y="-64.8" font-family="Times New Roman,serif" font-size="24.00">Display progress</text>
</g>
<!-- EAID_F13652A5_F319_4507_B8DA_0ABB39408BC3&#45;&gt;EAID_430959A4_DF36_4938_B87D_02F07DBE5A29 -->
<g id="edge4" class="edge"><title>EAID_F13652A5_F319_4507_B8DA_0ABB39408BC3&#45;&gt;EAID_430959A4_DF36_4938_B87D_02F07DBE5A29</title>
<path fill="none" stroke="black" d="M372.218,-110.012C380.759,-110.08 389.291,-110.148 397.655,-110.215"/>
<polygon fill="black" stroke="black" points="397.735,-113.715 407.763,-110.296 397.791,-106.716 397.735,-113.715"/>
</g>
<!-- EAID_430959A4_DF36_4938_B87D_02F07DBE5A29&#45;&gt;EAID_D4329E7C_9AAA_4388_9C8B_0593E87B6683 -->
<g id="edge3" class="edge"><title>EAID_430959A4_DF36_4938_B87D_02F07DBE5A29&#45;&gt;EAID_D4329E7C_9AAA_4388_9C8B_0593E87B6683</title>
<path fill="none" stroke="black" d="M586.228,-89.9021C594.912,-87.8255 603.641,-85.7381 612.104,-83.7141"/>
<polygon fill="black" stroke="black" points="612.988,-87.1016 621.9,-81.3718 611.36,-80.2936 612.988,-87.1016"/>
</g>
</g>
</svg>
