<?xml version="1.0" encoding="UTF-8" standalone="no"?>
<!DOCTYPE svg PUBLIC "-//W3C//DTD SVG 1.1//EN"
 "http://www.w3.org/Graphics/SVG/1.1/DTD/svg11.dtd">
<!-- Generated by graphviz version 2.38.0 (20140413.2041)
 -->
<!-- Title: class_diagram Pages: 1 -->
<svg width="313pt" height="45pt"
 viewBox="0.00 0.00 312.50 45.00" xmlns="http://www.w3.org/2000/svg" xmlns:xlink="http://www.w3.org/1999/xlink">
<g id="graph0" class="graph" transform="scale(1 1) rotate(0) translate(4 41)">
<title>class_diagram</title>
<polygon fill="white" stroke="none" points="-4,4 -4,-41 308.5,-41 308.5,4 -4,4"/>
<!-- c92b0c1f5_06a9_4507_805b_fe4166d0f0f5 -->
<g id="c92b0c1f5_06a9_4507_805b_fe4166d0f0f5" class="node"><title>c92b0c1f5_06a9_4507_805b_fe4166d0f0f5</title>
<polygon fill="none" stroke="black" points="0,-0.5 0,-36.5 68,-36.5 68,-0.5 0,-0.5"/>
<text text-anchor="middle" x="34" y="-16.6" font-family="Times New Roman,serif" font-size="8.00">SAXException</text>
</g>
<!-- cc0fa0e50_7eb4_4272_b640_77b982b9249d -->
<g id="cc0fa0e50_7eb4_4272_b640_77b982b9249d" class="node"><title>cc0fa0e50_7eb4_4272_b640_77b982b9249d</title>
<polygon fill="none" stroke="black" points="86,-0.5 86,-36.5 140,-36.5 140,-0.5 86,-0.5"/>
<text text-anchor="middle" x="113" y="-16.6" font-family="Times New Roman,serif" font-size="8.00">C</text>
</g>
<!-- cefdf2ebf_3690_4c92_b99d_065ff70ed86f -->
<g id="cefdf2ebf_3690_4c92_b99d_065ff70ed86f" class="node"><title>cefdf2ebf_3690_4c92_b99d_065ff70ed86f</title>
<polygon fill="none" stroke="black" points="158.5,-0.5 158.5,-36.5 217.5,-36.5 217.5,-0.5 158.5,-0.5"/>
<text text-anchor="middle" x="188" y="-16.6" font-family="Times New Roman,serif" font-size="8.00">XMLReader</text>
</g>
<!-- ceb1079cf_06da_4430_bc6a_510ba2bafad8 -->
<g id="ceb1079cf_06da_4430_bc6a_510ba2bafad8" class="node"><title>ceb1079cf_06da_4430_bc6a_510ba2bafad8</title>
<polygon fill="none" stroke="black" points="235.5,-0.5 235.5,-36.5 304.5,-36.5 304.5,-0.5 235.5,-0.5"/>
<text text-anchor="middle" x="270" y="-16.6" font-family="Times New Roman,serif" font-size="8.00">EntityResolver</text>
</g>
</g>
</svg>
