<?xml version="1.0" encoding="UTF-8" standalone="no"?>
<!DOCTYPE svg PUBLIC "-//W3C//DTD SVG 1.1//EN"
 "http://www.w3.org/Graphics/SVG/1.1/DTD/svg11.dtd">
<!-- Generated by graphviz version 2.38.0 (20140413.2041)
 -->
<!-- Title: g Pages: 1 -->
<svg width="3156pt" height="1212pt"
 viewBox="0.00 0.00 3156.11 1212.00" xmlns="http://www.w3.org/2000/svg" xmlns:xlink="http://www.w3.org/1999/xlink">
<g id="graph0" class="graph" transform="scale(1 1) rotate(0) translate(4 1208)">
<title>g</title>
<polygon fill="white" stroke="none" points="-4,4 -4,-1208 3152.11,-1208 3152.11,4 -4,4"/>
<g id="clust1" class="cluster"><title>cluster0</title>
<polygon fill="none" stroke="black" stroke-width="2" points="8,-236.5 8,-1085 783,-1085 783,-236.5 8,-236.5"/>
<text text-anchor="start" x="373.5" y="-1070.8" font-family="Times New Roman,serif" font-weight="bold" font-size="14.00">System</text>
</g>
<g id="clust2" class="cluster"><title>cluster1</title>
<polygon fill="none" stroke="black" stroke-width="2" points="153,-1093 153,-1196 816,-1196 816,-1093 153,-1093"/>
<text text-anchor="start" x="470" y="-1181.8" font-family="Times New Roman,serif" font-weight="bold" font-size="14.00">User</text>
</g>
<g id="clust3" class="cluster"><title>cluster1000</title>
<polygon fill="none" stroke="black" stroke-width="2" points="791,-64 791,-512 3069,-512 3069,-64 791,-64"/>
<text text-anchor="start" x="1884.5" y="-497.8" font-family="Times New Roman,serif" font-weight="bold" font-size="14.00">Domain Model</text>
</g>
<!-- EAID_706E0F3A_C3A6_4925_B7B7_81D21A1534F4___EAID_21416701_DFD5_48df_83F3_37DDED0EF8E0 -->
<g id="node1" class="node"><title>EAID_706E0F3A_C3A6_4925_B7B7_81D21A1534F4___EAID_21416701_DFD5_48df_83F3_37DDED0EF8E0</title>
<image xlink:href="img/activity_icon.png" width="30px" height="20px" preserveAspectRatio="xMinYMin meet" x="476.5" y="-820"/>
<text text-anchor="start" x="409" y="-785.8" font-family="Times New Roman,serif" font-weight="bold" font-size="14.00">User:Invalid input message</text>
</g>
<!-- EAID_21416701_DFD5_48df_83F3_37DDED0EF8E0___EAID_40CDA76A_2DF7_4a2c_A492_CD5CE5FFC171 -->
<g id="node6" class="node"><title>EAID_21416701_DFD5_48df_83F3_37DDED0EF8E0___EAID_40CDA76A_2DF7_4a2c_A492_CD5CE5FFC171</title>
<image xlink:href="img/activity_icon.png" width="30px" height="20px" preserveAspectRatio="xMinYMin meet" x="655.5" y="-720"/>
<text text-anchor="start" x="586" y="-685.8" font-family="Times New Roman,serif" font-weight="bold" font-size="14.00">Invalid input message:OCR</text>
<text text-anchor="start" x="619.5" y="-671.8" font-family="Times New Roman,serif" font-weight="bold" font-size="14.00">read the medical</text>
<text text-anchor="start" x="634.5" y="-657.8" font-family="Times New Roman,serif" font-weight="bold" font-size="14.00">information</text>
</g>
<!-- EAID_706E0F3A_C3A6_4925_B7B7_81D21A1534F4___EAID_21416701_DFD5_48df_83F3_37DDED0EF8E0&#45;&gt;EAID_21416701_DFD5_48df_83F3_37DDED0EF8E0___EAID_40CDA76A_2DF7_4a2c_A492_CD5CE5FFC171 -->
<g id="edge1" class="edge"><title>EAID_706E0F3A_C3A6_4925_B7B7_81D21A1534F4___EAID_21416701_DFD5_48df_83F3_37DDED0EF8E0&#45;&gt;EAID_21416701_DFD5_48df_83F3_37DDED0EF8E0___EAID_40CDA76A_2DF7_4a2c_A492_CD5CE5FFC171</title>
<path fill="none" stroke="black" d="M530.282,-775.421C550.814,-762.575 576.558,-746.467 600.335,-731.589"/>
<polygon fill="black" stroke="black" points="602.372,-734.443 608.993,-726.172 598.659,-728.509 602.372,-734.443"/>
</g>
<!-- EAID_0D2ED1EB_C7DB_478b_B2A0_4D116B5CBBB6 -->
<g id="node21" class="node"><title>EAID_0D2ED1EB_C7DB_478b_B2A0_4D116B5CBBB6</title>
<text text-anchor="middle" x="963" y="-683.3" font-family="Times New Roman,serif" font-size="14.00">EAID_0D2ED1EB_C7DB_478b_B2A0_4D116B5CBBB6</text>
</g>
<!-- EAID_706E0F3A_C3A6_4925_B7B7_81D21A1534F4___EAID_21416701_DFD5_48df_83F3_37DDED0EF8E0&#45;&gt;EAID_0D2ED1EB_C7DB_478b_B2A0_4D116B5CBBB6 -->
<g id="edge13" class="edge"><title>EAID_706E0F3A_C3A6_4925_B7B7_81D21A1534F4___EAID_21416701_DFD5_48df_83F3_37DDED0EF8E0&#45;&gt;EAID_0D2ED1EB_C7DB_478b_B2A0_4D116B5CBBB6</title>
<path fill="none" stroke="black" stroke-dasharray="5,2" d="M551.039,-775.42C564.379,-770.52 578.553,-765.739 592,-762 676.91,-738.39 700.584,-743.302 787,-726 816.201,-720.154 848.042,-713.396 876.514,-707.215"/>
<polygon fill="black" stroke="black" points="877.408,-710.602 886.435,-705.055 875.919,-703.763 877.408,-710.602"/>
</g>
<!-- EAID_706E0F3A_C3A6_4925_B7B7_81D21A1534F4___EAID_0D2ED1EB_C7DB_478b_B2A0_4D116B5CBBB6 -->
<g id="node2" class="node"><title>EAID_706E0F3A_C3A6_4925_B7B7_81D21A1534F4___EAID_0D2ED1EB_C7DB_478b_B2A0_4D116B5CBBB6</title>
<image xlink:href="img/activity_icon.png" width="30px" height="20px" preserveAspectRatio="xMinYMin meet" x="475" y="-1048"/>
<text text-anchor="start" x="407" y="-1013.8" font-family="Times New Roman,serif" font-weight="bold" font-size="14.00">User:Search crieteria input</text>
<text text-anchor="start" x="475" y="-999.8" font-family="Times New Roman,serif" font-weight="bold" font-size="14.00">page</text>
</g>
<!-- EAID_0D2ED1EB_C7DB_478b_B2A0_4D116B5CBBB6___EAID_8068A1B5_6CDA_4570_AE6E_2BC89D2D154B -->
<g id="node10" class="node"><title>EAID_0D2ED1EB_C7DB_478b_B2A0_4D116B5CBBB6___EAID_8068A1B5_6CDA_4570_AE6E_2BC89D2D154B</title>
<image xlink:href="img/activity_icon.png" width="30px" height="20px" preserveAspectRatio="xMinYMin meet" x="475" y="-948"/>
<text text-anchor="start" x="423.5" y="-913.8" font-family="Times New Roman,serif" font-weight="bold" font-size="14.00">Search crieteria input</text>
<text text-anchor="start" x="397" y="-899.8" font-family="Times New Roman,serif" font-weight="bold" font-size="14.00">page:retrieve matched doctors</text>
<text text-anchor="start" x="465.5" y="-885.8" font-family="Times New Roman,serif" font-weight="bold" font-size="14.00">from db</text>
</g>
<!-- EAID_706E0F3A_C3A6_4925_B7B7_81D21A1534F4___EAID_0D2ED1EB_C7DB_478b_B2A0_4D116B5CBBB6&#45;&gt;EAID_0D2ED1EB_C7DB_478b_B2A0_4D116B5CBBB6___EAID_8068A1B5_6CDA_4570_AE6E_2BC89D2D154B -->
<g id="edge3" class="edge"><title>EAID_706E0F3A_C3A6_4925_B7B7_81D21A1534F4___EAID_0D2ED1EB_C7DB_478b_B2A0_4D116B5CBBB6&#45;&gt;EAID_0D2ED1EB_C7DB_478b_B2A0_4D116B5CBBB6___EAID_8068A1B5_6CDA_4570_AE6E_2BC89D2D154B</title>
<path fill="none" stroke="black" d="M490,-989.781C490,-981.786 490,-972.999 490,-964.362"/>
<polygon fill="black" stroke="black" points="493.5,-964.348 490,-954.348 486.5,-964.349 493.5,-964.348"/>
</g>
<!-- EAID_706E0F3A_C3A6_4925_B7B7_81D21A1534F4___EAID_0D2ED1EB_C7DB_478b_B2A0_4D116B5CBBB6&#45;&gt;EAID_0D2ED1EB_C7DB_478b_B2A0_4D116B5CBBB6 -->
<g id="edge14" class="edge"><title>EAID_706E0F3A_C3A6_4925_B7B7_81D21A1534F4___EAID_0D2ED1EB_C7DB_478b_B2A0_4D116B5CBBB6&#45;&gt;EAID_0D2ED1EB_C7DB_478b_B2A0_4D116B5CBBB6</title>
<path fill="none" stroke="black" stroke-dasharray="5,2" d="M542.571,-989.889C561.377,-978.671 582.69,-965.854 602,-954 683.021,-904.26 706.274,-896.138 783,-840 840.299,-798.076 902.652,-743.121 936.86,-712.083"/>
<polygon fill="black" stroke="black" points="939.493,-714.419 944.528,-705.098 934.779,-709.245 939.493,-714.419"/>
</g>
<!-- EAID_706E0F3A_C3A6_4925_B7B7_81D21A1534F4___EAID_F4378555_E80D_453c_B7D2_08A7B363CF43 -->
<g id="node3" class="node"><title>EAID_706E0F3A_C3A6_4925_B7B7_81D21A1534F4___EAID_F4378555_E80D_453c_B7D2_08A7B363CF43</title>
<image xlink:href="img/activity_icon.png" width="30px" height="20px" preserveAspectRatio="xMinYMin meet" x="673" y="-1041"/>
<text text-anchor="start" x="611" y="-1006.8" font-family="Times New Roman,serif" font-weight="bold" font-size="14.00">User:non matched doctor</text>
</g>
<!-- EAID_D20A7636_B9DE_48df_857A_130C741CC6DF -->
<g id="node22" class="node"><title>EAID_D20A7636_B9DE_48df_857A_130C741CC6DF</title>
<text text-anchor="middle" x="434" y="-14.3" font-family="Times New Roman,serif" font-size="14.00">EAID_D20A7636_B9DE_48df_857A_130C741CC6DF</text>
</g>
<!-- EAID_706E0F3A_C3A6_4925_B7B7_81D21A1534F4___EAID_F4378555_E80D_453c_B7D2_08A7B363CF43&#45;&gt;EAID_D20A7636_B9DE_48df_857A_130C741CC6DF -->
<g id="edge15" class="edge"><title>EAID_706E0F3A_C3A6_4925_B7B7_81D21A1534F4___EAID_F4378555_E80D_453c_B7D2_08A7B363CF43&#45;&gt;EAID_D20A7636_B9DE_48df_857A_130C741CC6DF</title>
<path fill="none" stroke="black" stroke-dasharray="5,2" d="M775.228,-1017.71C1206.36,-1000.88 3089,-920.606 3089,-802 3089,-802 3089,-802 3089,-565 3089,-342.22 3231.7,-220.353 3073,-64 3029.08,-20.7265 1192.56,-18.4113 609.622,-18.7691"/>
<polygon fill="black" stroke="black" points="609.444,-15.2691 599.446,-18.7757 609.448,-22.2691 609.444,-15.2691"/>
</g>
<!-- EAID_E8619E28_6041_4097_BCB1_78B74A67CE16___EAID_09F1B3E3_0BD1_458c_96DD_06D3A31ED582 -->
<g id="node4" class="node"><title>EAID_E8619E28_6041_4097_BCB1_78B74A67CE16___EAID_09F1B3E3_0BD1_458c_96DD_06D3A31ED582</title>
<image xlink:href="img/activity_icon.png" width="30px" height="20px" preserveAspectRatio="xMinYMin meet" x="603" y="-302.5"/>
<text text-anchor="start" x="551" y="-268.3" font-family="Times New Roman,serif" font-weight="bold" font-size="14.00">update the recognized</text>
<text text-anchor="start" x="514" y="-254.3" font-family="Times New Roman,serif" font-weight="bold" font-size="14.00">information into database.:Doctor</text>
</g>
<!-- EAID_E8619E28_6041_4097_BCB1_78B74A67CE16___EAID_09F1B3E3_0BD1_458c_96DD_06D3A31ED582&#45;&gt;EAID_D20A7636_B9DE_48df_857A_130C741CC6DF -->
<g id="edge16" class="edge"><title>EAID_E8619E28_6041_4097_BCB1_78B74A67CE16___EAID_09F1B3E3_0BD1_458c_96DD_06D3A31ED582&#45;&gt;EAID_D20A7636_B9DE_48df_857A_130C741CC6DF</title>
<path fill="none" stroke="black" stroke-dasharray="5,2" d="M595.622,-244.305C558.746,-192.898 485.93,-91.3911 452.084,-44.2093"/>
<polygon fill="black" stroke="black" points="454.908,-42.1414 446.235,-36.056 449.22,-46.2216 454.908,-42.1414"/>
</g>
<!-- EAID_8068A1B5_6CDA_4570_AE6E_2BC89D2D154B___EAID_09F1B3E3_0BD1_458c_96DD_06D3A31ED582 -->
<g id="node5" class="node"><title>EAID_8068A1B5_6CDA_4570_AE6E_2BC89D2D154B___EAID_09F1B3E3_0BD1_458c_96DD_06D3A31ED582</title>
<image xlink:href="img/activity_icon.png" width="30px" height="20px" preserveAspectRatio="xMinYMin meet" x="279.5" y="-827"/>
<text text-anchor="start" x="218" y="-792.8" font-family="Times New Roman,serif" font-weight="bold" font-size="14.00">retrieve matched doctors</text>
<text text-anchor="start" x="247" y="-778.8" font-family="Times New Roman,serif" font-weight="bold" font-size="14.00">from db:Doctor</text>
</g>
<!-- EAID_8068A1B5_6CDA_4570_AE6E_2BC89D2D154B___EAID_09F1B3E3_0BD1_458c_96DD_06D3A31ED582&#45;&gt;EAID_D20A7636_B9DE_48df_857A_130C741CC6DF -->
<g id="edge17" class="edge"><title>EAID_8068A1B5_6CDA_4570_AE6E_2BC89D2D154B___EAID_09F1B3E3_0BD1_458c_96DD_06D3A31ED582&#45;&gt;EAID_D20A7636_B9DE_48df_857A_130C741CC6DF</title>
<path fill="none" stroke="black" stroke-dasharray="5,2" d="M294.234,-768.734C295.018,-716.791 298.323,-609.565 312,-520 340.078,-336.124 402.947,-120.689 425.634,-46.0565"/>
<polygon fill="black" stroke="black" points="429.105,-46.6736 428.681,-36.0873 422.411,-44.6277 429.105,-46.6736"/>
</g>
<!-- EAID_40CDA76A_2DF7_4a2c_A492_CD5CE5FFC171___EAID_F4378555_E80D_453c_B7D2_08A7B363CF43 -->
<g id="node8" class="node"><title>EAID_40CDA76A_2DF7_4a2c_A492_CD5CE5FFC171___EAID_F4378555_E80D_453c_B7D2_08A7B363CF43</title>
<image xlink:href="img/activity_icon.png" width="30px" height="20px" preserveAspectRatio="xMinYMin meet" x="419.5" y="-599"/>
<text text-anchor="start" x="391" y="-564.8" font-family="Times New Roman,serif" font-weight="bold" font-size="14.00">OCR read the</text>
<text text-anchor="start" x="332" y="-550.8" font-family="Times New Roman,serif" font-weight="bold" font-size="14.00">medical information:non matched</text>
<text text-anchor="start" x="414.5" y="-536.8" font-family="Times New Roman,serif" font-weight="bold" font-size="14.00">doctor</text>
</g>
<!-- EAID_21416701_DFD5_48df_83F3_37DDED0EF8E0___EAID_40CDA76A_2DF7_4a2c_A492_CD5CE5FFC171&#45;&gt;EAID_40CDA76A_2DF7_4a2c_A492_CD5CE5FFC171___EAID_F4378555_E80D_453c_B7D2_08A7B363CF43 -->
<g id="edge6" class="edge"><title>EAID_21416701_DFD5_48df_83F3_37DDED0EF8E0___EAID_40CDA76A_2DF7_4a2c_A492_CD5CE5FFC171&#45;&gt;EAID_40CDA76A_2DF7_4a2c_A492_CD5CE5FFC171___EAID_F4378555_E80D_453c_B7D2_08A7B363CF43</title>
<path fill="none" stroke="black" d="M594.354,-647.857C570.219,-635.687 543.358,-622.142 518.628,-609.673"/>
<polygon fill="black" stroke="black" points="520.127,-606.509 509.622,-605.132 516.975,-612.759 520.127,-606.509"/>
</g>
<!-- EAID_40CDA76A_2DF7_4a2c_A492_CD5CE5FFC171___EAID_E8619E28_6041_4097_BCB1_78B74A67CE16 -->
<g id="node9" class="node"><title>EAID_40CDA76A_2DF7_4a2c_A492_CD5CE5FFC171___EAID_E8619E28_6041_4097_BCB1_78B74A67CE16</title>
<image xlink:href="img/activity_icon.png" width="30px" height="20px" preserveAspectRatio="xMinYMin meet" x="655" y="-606"/>
<text text-anchor="start" x="626.5" y="-571.8" font-family="Times New Roman,serif" font-weight="bold" font-size="14.00">OCR read the</text>
<text text-anchor="start" x="575" y="-557.8" font-family="Times New Roman,serif" font-weight="bold" font-size="14.00">medical information:update the</text>
<text text-anchor="start" x="585.5" y="-543.8" font-family="Times New Roman,serif" font-weight="bold" font-size="14.00">recognized information into</text>
<text text-anchor="start" x="640.5" y="-529.8" font-family="Times New Roman,serif" font-weight="bold" font-size="14.00">database.</text>
</g>
<!-- EAID_21416701_DFD5_48df_83F3_37DDED0EF8E0___EAID_40CDA76A_2DF7_4a2c_A492_CD5CE5FFC171&#45;&gt;EAID_40CDA76A_2DF7_4a2c_A492_CD5CE5FFC171___EAID_E8619E28_6041_4097_BCB1_78B74A67CE16 -->
<g id="edge7" class="edge"><title>EAID_21416701_DFD5_48df_83F3_37DDED0EF8E0___EAID_40CDA76A_2DF7_4a2c_A492_CD5CE5FFC171&#45;&gt;EAID_40CDA76A_2DF7_4a2c_A492_CD5CE5FFC171___EAID_E8619E28_6041_4097_BCB1_78B74A67CE16</title>
<path fill="none" stroke="black" d="M670,-647.693C670,-639.674 670,-631.065 670,-622.563"/>
<polygon fill="black" stroke="black" points="673.5,-622.294 670,-612.294 666.5,-622.294 673.5,-622.294"/>
</g>
<!-- EAID_2D8A89EC_8E9E_4221_A322_670FAA646E76 -->
<g id="node16" class="node"><title>EAID_2D8A89EC_8E9E_4221_A322_670FAA646E76</title>
<polygon fill="none" stroke="black" points="2202,-454.5 2202,-475.5 2608,-475.5 2608,-454.5 2202,-454.5"/>
<text text-anchor="start" x="2293" y="-462.3" font-family="Times New Roman,serif" font-weight="bold" font-size="14.00">Medical services pricing information</text>
<polygon fill="none" stroke="black" points="2202,-433.5 2202,-454.5 2608,-454.5 2608,-433.5 2202,-433.5"/>
<text text-anchor="start" x="2346.5" y="-441.3" font-family="Times New Roman,serif" font-weight="bold" font-size="14.00">EAJava_char code</text>
<polygon fill="none" stroke="black" points="2202,-412.5 2202,-433.5 2608,-433.5 2608,-412.5 2202,-412.5"/>
<text text-anchor="start" x="2327" y="-420.3" font-family="Times New Roman,serif" font-weight="bold" font-size="14.00">EAJava_char description</text>
<polygon fill="none" stroke="black" points="2202,-391.5 2202,-412.5 2608,-412.5 2608,-391.5 2202,-391.5"/>
<text text-anchor="start" x="2352" y="-399.3" font-family="Times New Roman,serif" font-weight="bold" font-size="14.00">EAJava_blob file</text>
<polygon fill="none" stroke="black" points="2202,-370.5 2202,-391.5 2608,-391.5 2608,-370.5 2202,-370.5"/>
<text text-anchor="start" x="2316" y="-378.3" font-family="Times New Roman,serif" font-weight="bold" font-size="14.00">EAJava_blob medicalInvoice</text>
<polygon fill="none" stroke="black" points="2202,-349.5 2202,-370.5 2608,-370.5 2608,-349.5 2202,-349.5"/>
<text text-anchor="start" x="2340" y="-357.3" font-family="Times New Roman,serif" font-weight="bold" font-size="14.00">EAJava_blob picture</text>
<polygon fill="none" stroke="black" points="2202,-328.5 2202,-349.5 2608,-349.5 2608,-328.5 2202,-328.5"/>
<text text-anchor="start" x="2351.5" y="-336.3" font-family="Times New Roman,serif" font-weight="bold" font-size="14.00">EAJava_int price</text>
<polygon fill="none" stroke="black" points="2202,-307.5 2202,-328.5 2608,-328.5 2608,-307.5 2202,-307.5"/>
<text text-anchor="start" x="2303.5" y="-315.3" font-family="Times New Roman,serif" font-weight="bold" font-size="14.00">EAJava_char ProviderUsername</text>
<polygon fill="none" stroke="black" points="2202,-286.5 2202,-307.5 2608,-307.5 2608,-286.5 2202,-286.5"/>
<text text-anchor="start" x="2332.5" y="-294.3" font-family="Times New Roman,serif" font-weight="bold" font-size="14.00">EAJava_char speciality</text>
<polygon fill="none" stroke="black" points="2202,-265.5 2202,-286.5 2608,-286.5 2608,-265.5 2202,-265.5"/>
<text text-anchor="start" x="2205" y="-273.3" font-family="Times New Roman,serif" font-weight="bold" font-size="14.00">EAID_58EF6445_FBA8_43b1_9DB2_02C672C5035B undefined</text>
<polygon fill="none" stroke="black" points="2202,-244.5 2202,-265.5 2608,-265.5 2608,-244.5 2202,-244.5"/>
<text text-anchor="start" x="2294" y="-252.3" font-family="Times New Roman,serif" font-weight="bold" font-size="14.00">Medicalservicespricinginformation()</text>
<polygon fill="none" stroke="black" points="2202,-223.5 2202,-244.5 2608,-244.5 2608,-223.5 2202,-223.5"/>
<text text-anchor="start" x="2308.5" y="-231.3" font-family="Times New Roman,serif" font-weight="bold" font-size="14.00">providerinformationinputpage()</text>
<polygon fill="none" stroke="black" points="2202,-202.5 2202,-223.5 2608,-223.5 2608,-202.5 2202,-202.5"/>
<text text-anchor="start" x="2307" y="-210.3" font-family="Times New Roman,serif" font-weight="bold" font-size="14.00">Errormessageforupdatefailure()</text>
<polygon fill="none" stroke="black" points="2202,-181.5 2202,-202.5 2608,-202.5 2608,-181.5 2202,-181.5"/>
<text text-anchor="start" x="2341.5" y="-189.3" font-family="Times New Roman,serif" font-weight="bold" font-size="14.00">verifyinputmessage()</text>
<polygon fill="none" stroke="black" points="2202,-160.5 2202,-181.5 2608,-181.5 2608,-160.5 2202,-160.5"/>
<text text-anchor="start" x="2311.5" y="-168.3" font-family="Times New Roman,serif" font-weight="bold" font-size="14.00">sendemailincludingcredential()</text>
<polygon fill="none" stroke="black" points="2202,-139.5 2202,-160.5 2608,-160.5 2608,-139.5 2202,-139.5"/>
<text text-anchor="start" x="2375.5" y="-147.3" font-family="Times New Roman,serif" font-weight="bold" font-size="14.00">userinfo()</text>
<polygon fill="none" stroke="black" points="2202,-118.5 2202,-139.5 2608,-139.5 2608,-118.5 2202,-118.5"/>
<text text-anchor="start" x="2278.5" y="-126.3" font-family="Times New Roman,serif" font-weight="bold" font-size="14.00">Sharepricethroughpicturecapturebutton()</text>
<polygon fill="none" stroke="black" points="2202,-97.5 2202,-118.5 2608,-118.5 2608,-97.5 2202,-97.5"/>
<text text-anchor="start" x="2384" y="-105.3" font-family="Times New Roman,serif" font-weight="bold" font-size="14.00">Price()</text>
<polygon fill="none" stroke="black" points="2202,-76.5 2202,-97.5 2608,-97.5 2608,-76.5 2202,-76.5"/>
<text text-anchor="start" x="2338" y="-84.3" font-family="Times New Roman,serif" font-weight="bold" font-size="14.00">pricedetailinputpage()</text>
<polygon fill="none" stroke="black" points="2201,-76 2201,-477 2609,-477 2609,-76 2201,-76"/>
</g>
<!-- EAID_21416701_DFD5_48df_83F3_37DDED0EF8E0___EAID_40CDA76A_2DF7_4a2c_A492_CD5CE5FFC171&#45;&gt;EAID_2D8A89EC_8E9E_4221_A322_670FAA646E76 -->
<g id="edge18" class="edge"><title>EAID_21416701_DFD5_48df_83F3_37DDED0EF8E0___EAID_40CDA76A_2DF7_4a2c_A492_CD5CE5FFC171&#45;&gt;EAID_2D8A89EC_8E9E_4221_A322_670FAA646E76</title>
<path fill="none" stroke="black" stroke-dasharray="5,2" d="M764.59,-652.224C770.444,-650.658 776.279,-649.231 782,-648 1394.03,-516.334 1621.89,-787.605 2184,-512 2198.45,-504.913 2212.45,-496.456 2225.91,-487.026"/>
<polygon fill="black" stroke="black" points="2228.16,-489.721 2234.22,-481.033 2224.07,-484.043 2228.16,-489.721"/>
</g>
<!-- EAID_8068A1B5_6CDA_4570_AE6E_2BC89D2D154B___EAID_21416701_DFD5_48df_83F3_37DDED0EF8E0 -->
<g id="node7" class="node"><title>EAID_8068A1B5_6CDA_4570_AE6E_2BC89D2D154B___EAID_21416701_DFD5_48df_83F3_37DDED0EF8E0</title>
<image xlink:href="img/activity_icon.png" width="30px" height="20px" preserveAspectRatio="xMinYMin meet" x="673.5" y="-834"/>
<text text-anchor="start" x="612" y="-799.8" font-family="Times New Roman,serif" font-weight="bold" font-size="14.00">retrieve matched doctors</text>
<text text-anchor="start" x="624" y="-785.8" font-family="Times New Roman,serif" font-weight="bold" font-size="14.00">from db:Invalid input</text>
<text text-anchor="start" x="662.5" y="-771.8" font-family="Times New Roman,serif" font-weight="bold" font-size="14.00">message</text>
</g>
<!-- EAID_8068A1B5_6CDA_4570_AE6E_2BC89D2D154B___EAID_21416701_DFD5_48df_83F3_37DDED0EF8E0&#45;&gt;EAID_21416701_DFD5_48df_83F3_37DDED0EF8E0___EAID_40CDA76A_2DF7_4a2c_A492_CD5CE5FFC171 -->
<g id="edge8" class="edge"><title>EAID_8068A1B5_6CDA_4570_AE6E_2BC89D2D154B___EAID_21416701_DFD5_48df_83F3_37DDED0EF8E0&#45;&gt;EAID_21416701_DFD5_48df_83F3_37DDED0EF8E0___EAID_40CDA76A_2DF7_4a2c_A492_CD5CE5FFC171</title>
<path fill="none" stroke="black" d="M681.856,-761.769C680.524,-753.48 679.098,-744.61 677.714,-735.999"/>
<polygon fill="black" stroke="black" points="681.159,-735.376 676.117,-726.058 674.248,-736.487 681.159,-735.376"/>
</g>
<!-- EAID_8068A1B5_6CDA_4570_AE6E_2BC89D2D154B___EAID_21416701_DFD5_48df_83F3_37DDED0EF8E0&#45;&gt;EAID_0D2ED1EB_C7DB_478b_B2A0_4D116B5CBBB6 -->
<g id="edge19" class="edge"><title>EAID_8068A1B5_6CDA_4570_AE6E_2BC89D2D154B___EAID_21416701_DFD5_48df_83F3_37DDED0EF8E0&#45;&gt;EAID_0D2ED1EB_C7DB_478b_B2A0_4D116B5CBBB6</title>
<path fill="none" stroke="black" stroke-dasharray="5,2" d="M774.634,-764.716C819.627,-746.392 873.078,-724.623 911.528,-708.963"/>
<polygon fill="black" stroke="black" points="913.024,-712.133 920.966,-705.119 910.384,-705.65 913.024,-712.133"/>
</g>
<!-- EAID_40CDA76A_2DF7_4a2c_A492_CD5CE5FFC171___EAID_F4378555_E80D_453c_B7D2_08A7B363CF43&#45;&gt;EAID_D20A7636_B9DE_48df_857A_130C741CC6DF -->
<g id="edge20" class="edge"><title>EAID_40CDA76A_2DF7_4a2c_A492_CD5CE5FFC171___EAID_F4378555_E80D_453c_B7D2_08A7B363CF43&#45;&gt;EAID_D20A7636_B9DE_48df_857A_130C741CC6DF</title>
<path fill="none" stroke="black" stroke-dasharray="5,2" d="M434,-526.606C434,-422.447 434,-136.337 434,-46.4196"/>
<polygon fill="black" stroke="black" points="437.5,-46.2199 434,-36.2199 430.5,-46.2199 437.5,-46.2199"/>
</g>
<!-- EAID_40CDA76A_2DF7_4a2c_A492_CD5CE5FFC171___EAID_E8619E28_6041_4097_BCB1_78B74A67CE16&#45;&gt;EAID_E8619E28_6041_4097_BCB1_78B74A67CE16___EAID_09F1B3E3_0BD1_458c_96DD_06D3A31ED582 -->
<g id="edge9" class="edge"><title>EAID_40CDA76A_2DF7_4a2c_A492_CD5CE5FFC171___EAID_E8619E28_6041_4097_BCB1_78B74A67CE16&#45;&gt;EAID_E8619E28_6041_4097_BCB1_78B74A67CE16___EAID_09F1B3E3_0BD1_458c_96DD_06D3A31ED582</title>
<path fill="none" stroke="black" d="M661.818,-519.762C651.843,-464.613 635.127,-372.192 625.481,-318.862"/>
<polygon fill="black" stroke="black" points="628.874,-317.957 623.65,-308.74 621.986,-319.203 628.874,-317.957"/>
</g>
<!-- EAID_58EF6445_FBA8_43b1_9DB2_02C672C5035B -->
<g id="node19" class="node"><title>EAID_58EF6445_FBA8_43b1_9DB2_02C672C5035B</title>
<polygon fill="none" stroke="black" points="993,-360.5 993,-381.5 1284,-381.5 1284,-360.5 993,-360.5"/>
<text text-anchor="start" x="1045" y="-368.3" font-family="Times New Roman,serif" font-weight="bold" font-size="14.00">Rating and review information</text>
<polygon fill="none" stroke="black" points="993,-339.5 993,-360.5 1284,-360.5 1284,-339.5 993,-339.5"/>
<text text-anchor="start" x="1080.5" y="-347.3" font-family="Times New Roman,serif" font-weight="bold" font-size="14.00">EAJava_Date date</text>
<polygon fill="none" stroke="black" points="993,-318.5 993,-339.5 1284,-339.5 1284,-318.5 993,-318.5"/>
<text text-anchor="start" x="1082" y="-326.3" font-family="Times New Roman,serif" font-weight="bold" font-size="14.00">EAJava_int rating</text>
<polygon fill="none" stroke="black" points="993,-297.5 993,-318.5 1284,-318.5 1284,-297.5 993,-297.5"/>
<text text-anchor="start" x="1074" y="-305.3" font-family="Times New Roman,serif" font-weight="bold" font-size="14.00">EAJava_char review</text>
<polygon fill="none" stroke="black" points="993,-276.5 993,-297.5 1284,-297.5 1284,-276.5 993,-276.5"/>
<text text-anchor="start" x="1046" y="-284.3" font-family="Times New Roman,serif" font-weight="bold" font-size="14.00">Ratingandreviewinformation()</text>
<polygon fill="none" stroke="black" points="993,-255.5 993,-276.5 1284,-276.5 1284,-255.5 993,-255.5"/>
<text text-anchor="start" x="1113" y="-263.3" font-family="Times New Roman,serif" font-weight="bold" font-size="14.00">Rating()</text>
<polygon fill="none" stroke="black" points="993,-234.5 993,-255.5 1284,-255.5 1284,-234.5 993,-234.5"/>
<text text-anchor="start" x="1039" y="-242.3" font-family="Times New Roman,serif" font-weight="bold" font-size="14.00">Updatesubscriptioninformation()</text>
<polygon fill="none" stroke="black" points="993,-213.5 993,-234.5 1284,-234.5 1284,-213.5 993,-213.5"/>
<text text-anchor="start" x="1062.5" y="-221.3" font-family="Times New Roman,serif" font-weight="bold" font-size="14.00">Displayratinginputpage()</text>
<polygon fill="none" stroke="black" points="993,-192.5 993,-213.5 1284,-213.5 1284,-192.5 993,-192.5"/>
<text text-anchor="start" x="996" y="-200.3" font-family="Times New Roman,serif" font-weight="bold" font-size="14.00">updatetherecognizedinformationintodatabase()</text>
<polygon fill="none" stroke="black" points="993,-171.5 993,-192.5 1284,-192.5 1284,-171.5 993,-171.5"/>
<text text-anchor="start" x="1039" y="-179.3" font-family="Times New Roman,serif" font-weight="bold" font-size="14.00">retrievematcheddoctorsfromdb()</text>
<polygon fill="none" stroke="black" points="991.5,-170.5 991.5,-382.5 1284.5,-382.5 1284.5,-170.5 991.5,-170.5"/>
</g>
<!-- EAID_40CDA76A_2DF7_4a2c_A492_CD5CE5FFC171___EAID_E8619E28_6041_4097_BCB1_78B74A67CE16&#45;&gt;EAID_58EF6445_FBA8_43b1_9DB2_02C672C5035B -->
<g id="edge21" class="edge"><title>EAID_40CDA76A_2DF7_4a2c_A492_CD5CE5FFC171___EAID_E8619E28_6041_4097_BCB1_78B74A67CE16&#45;&gt;EAID_58EF6445_FBA8_43b1_9DB2_02C672C5035B</title>
<path fill="none" stroke="black" stroke-dasharray="5,2" d="M775.347,-555.287C849.654,-546.836 941.51,-532.667 974,-512 1018.51,-483.69 1054.3,-438.527 1080.96,-395.36"/>
<polygon fill="black" stroke="black" points="1083.98,-397.125 1086.17,-386.758 1078,-393.498 1083.98,-397.125"/>
</g>
<!-- EAID_0D2ED1EB_C7DB_478b_B2A0_4D116B5CBBB6___EAID_8068A1B5_6CDA_4570_AE6E_2BC89D2D154B&#45;&gt;EAID_8068A1B5_6CDA_4570_AE6E_2BC89D2D154B___EAID_09F1B3E3_0BD1_458c_96DD_06D3A31ED582 -->
<g id="edge10" class="edge"><title>EAID_0D2ED1EB_C7DB_478b_B2A0_4D116B5CBBB6___EAID_8068A1B5_6CDA_4570_AE6E_2BC89D2D154B&#45;&gt;EAID_8068A1B5_6CDA_4570_AE6E_2BC89D2D154B___EAID_09F1B3E3_0BD1_458c_96DD_06D3A31ED582</title>
<path fill="none" stroke="black" d="M423.37,-875.926C402.007,-863.718 378.42,-850.24 357.302,-838.172"/>
<polygon fill="black" stroke="black" points="358.835,-835.017 348.416,-833.095 355.362,-841.095 358.835,-835.017"/>
</g>
<!-- EAID_0D2ED1EB_C7DB_478b_B2A0_4D116B5CBBB6___EAID_8068A1B5_6CDA_4570_AE6E_2BC89D2D154B&#45;&gt;EAID_8068A1B5_6CDA_4570_AE6E_2BC89D2D154B___EAID_21416701_DFD5_48df_83F3_37DDED0EF8E0 -->
<g id="edge11" class="edge"><title>EAID_0D2ED1EB_C7DB_478b_B2A0_4D116B5CBBB6___EAID_8068A1B5_6CDA_4570_AE6E_2BC89D2D154B&#45;&gt;EAID_8068A1B5_6CDA_4570_AE6E_2BC89D2D154B___EAID_21416701_DFD5_48df_83F3_37DDED0EF8E0</title>
<path fill="none" stroke="black" d="M557.31,-875.926C574.845,-866.007 593.862,-855.25 611.82,-845.092"/>
<polygon fill="black" stroke="black" points="613.559,-848.129 620.54,-840.159 610.113,-842.036 613.559,-848.129"/>
</g>
<!-- EAID_8068A1B5_6CDA_4570_AE6E_2BC89D2D154B___EAID_F4378555_E80D_453c_B7D2_08A7B363CF43 -->
<g id="node11" class="node"><title>EAID_8068A1B5_6CDA_4570_AE6E_2BC89D2D154B___EAID_F4378555_E80D_453c_B7D2_08A7B363CF43</title>
<image xlink:href="img/activity_icon.png" width="30px" height="20px" preserveAspectRatio="xMinYMin meet" x="88.5" y="-834"/>
<text text-anchor="start" x="27" y="-799.8" font-family="Times New Roman,serif" font-weight="bold" font-size="14.00">retrieve matched doctors</text>
<text text-anchor="start" x="38.5" y="-785.8" font-family="Times New Roman,serif" font-weight="bold" font-size="14.00">from db:non matched</text>
<text text-anchor="start" x="83.5" y="-771.8" font-family="Times New Roman,serif" font-weight="bold" font-size="14.00">doctor</text>
</g>
<!-- EAID_0D2ED1EB_C7DB_478b_B2A0_4D116B5CBBB6___EAID_8068A1B5_6CDA_4570_AE6E_2BC89D2D154B&#45;&gt;EAID_8068A1B5_6CDA_4570_AE6E_2BC89D2D154B___EAID_F4378555_E80D_453c_B7D2_08A7B363CF43 -->
<g id="edge12" class="edge"><title>EAID_0D2ED1EB_C7DB_478b_B2A0_4D116B5CBBB6___EAID_8068A1B5_6CDA_4570_AE6E_2BC89D2D154B&#45;&gt;EAID_8068A1B5_6CDA_4570_AE6E_2BC89D2D154B___EAID_F4378555_E80D_453c_B7D2_08A7B363CF43</title>
<path fill="none" stroke="black" d="M386.687,-891.339C333.029,-878.732 266.382,-861.77 199.427,-840.359"/>
<polygon fill="black" stroke="black" points="200.14,-836.911 189.548,-837.167 197.988,-843.572 200.14,-836.911"/>
</g>
<!-- EAID_0D2ED1EB_C7DB_478b_B2A0_4D116B5CBBB6___EAID_8068A1B5_6CDA_4570_AE6E_2BC89D2D154B&#45;&gt;EAID_58EF6445_FBA8_43b1_9DB2_02C672C5035B -->
<g id="edge22" class="edge"><title>EAID_0D2ED1EB_C7DB_478b_B2A0_4D116B5CBBB6___EAID_8068A1B5_6CDA_4570_AE6E_2BC89D2D154B&#45;&gt;EAID_58EF6445_FBA8_43b1_9DB2_02C672C5035B</title>
<path fill="none" stroke="black" stroke-dasharray="5,2" d="M593.027,-899.756C760.263,-874.262 1078.75,-815.035 1144,-726 1212.87,-632.03 1199.19,-494.712 1175.93,-396.808"/>
<polygon fill="black" stroke="black" points="1179.27,-395.748 1173.5,-386.864 1172.47,-397.408 1179.27,-395.748"/>
</g>
<!-- EAID_8068A1B5_6CDA_4570_AE6E_2BC89D2D154B___EAID_F4378555_E80D_453c_B7D2_08A7B363CF43&#45;&gt;EAID_D20A7636_B9DE_48df_857A_130C741CC6DF -->
<g id="edge23" class="edge"><title>EAID_8068A1B5_6CDA_4570_AE6E_2BC89D2D154B___EAID_F4378555_E80D_453c_B7D2_08A7B363CF43&#45;&gt;EAID_D20A7636_B9DE_48df_857A_130C741CC6DF</title>
<path fill="none" stroke="black" stroke-dasharray="5,2" d="M102.356,-761.812C102.438,-642.308 118.907,-271.131 311,-64 320.269,-54.0051 331.942,-46.2236 344.385,-40.1669"/>
<polygon fill="black" stroke="black" points="345.865,-43.3392 353.558,-36.0546 343.001,-36.9517 345.865,-43.3392"/>
</g>
<!-- EAID_706E0F3A_C3A6_4925_B7B7_81D21A1534F4___EAID_21416701_DFD5_48df_83F3_37DDED0EF8E0_STL -->
<g id="node12" class="node"><title>EAID_706E0F3A_C3A6_4925_B7B7_81D21A1534F4___EAID_21416701_DFD5_48df_83F3_37DDED0EF8E0_STL</title>
<image xlink:href="img/stimulus_icon.png" width="30px" height="20px" preserveAspectRatio="xMinYMin meet" x="250.5" y="-1152"/>
<text text-anchor="start" x="172" y="-1117.8" font-family="Times New Roman,serif" font-weight="bold" font-size="14.00">stl#User:Invalid input message</text>
</g>
<!-- EAID_706E0F3A_C3A6_4925_B7B7_81D21A1534F4___EAID_21416701_DFD5_48df_83F3_37DDED0EF8E0_STL&#45;&gt;EAID_706E0F3A_C3A6_4925_B7B7_81D21A1534F4___EAID_21416701_DFD5_48df_83F3_37DDED0EF8E0 -->
<g id="edge2" class="edge"><title>EAID_706E0F3A_C3A6_4925_B7B7_81D21A1534F4___EAID_21416701_DFD5_48df_83F3_37DDED0EF8E0_STL&#45;&gt;EAID_706E0F3A_C3A6_4925_B7B7_81D21A1534F4___EAID_21416701_DFD5_48df_83F3_37DDED0EF8E0</title>
<path fill="none" stroke="black" d="M270.85,-1107.25C283.408,-1058.4 316.886,-948.067 378,-876 392.863,-858.474 412.904,-843.523 431.982,-831.743"/>
<polygon fill="black" stroke="black" points="433.87,-834.691 440.657,-826.556 430.278,-828.683 433.87,-834.691"/>
</g>
<!-- EAID_706E0F3A_C3A6_4925_B7B7_81D21A1534F4___EAID_0D2ED1EB_C7DB_478b_B2A0_4D116B5CBBB6_STL -->
<g id="node13" class="node"><title>EAID_706E0F3A_C3A6_4925_B7B7_81D21A1534F4___EAID_0D2ED1EB_C7DB_478b_B2A0_4D116B5CBBB6_STL</title>
<image xlink:href="img/stimulus_icon.png" width="30px" height="20px" preserveAspectRatio="xMinYMin meet" x="475.5" y="-1159"/>
<text text-anchor="start" x="397" y="-1124.8" font-family="Times New Roman,serif" font-weight="bold" font-size="14.00">stl#User:Search crieteria input</text>
<text text-anchor="start" x="475.5" y="-1110.8" font-family="Times New Roman,serif" font-weight="bold" font-size="14.00">page</text>
</g>
<!-- EAID_706E0F3A_C3A6_4925_B7B7_81D21A1534F4___EAID_0D2ED1EB_C7DB_478b_B2A0_4D116B5CBBB6_STL&#45;&gt;EAID_706E0F3A_C3A6_4925_B7B7_81D21A1534F4___EAID_0D2ED1EB_C7DB_478b_B2A0_4D116B5CBBB6 -->
<g id="edge4" class="edge"><title>EAID_706E0F3A_C3A6_4925_B7B7_81D21A1534F4___EAID_0D2ED1EB_C7DB_478b_B2A0_4D116B5CBBB6_STL&#45;&gt;EAID_706E0F3A_C3A6_4925_B7B7_81D21A1534F4___EAID_0D2ED1EB_C7DB_478b_B2A0_4D116B5CBBB6</title>
<path fill="none" stroke="black" d="M490,-1100.76C490,-1089.48 490,-1076.55 490,-1064.52"/>
<polygon fill="black" stroke="black" points="493.5,-1064.24 490,-1054.24 486.5,-1064.24 493.5,-1064.24"/>
</g>
<!-- EAID_706E0F3A_C3A6_4925_B7B7_81D21A1534F4___EAID_F4378555_E80D_453c_B7D2_08A7B363CF43_STL -->
<g id="node14" class="node"><title>EAID_706E0F3A_C3A6_4925_B7B7_81D21A1534F4___EAID_F4378555_E80D_453c_B7D2_08A7B363CF43_STL</title>
<image xlink:href="img/stimulus_icon.png" width="30px" height="20px" preserveAspectRatio="xMinYMin meet" x="695" y="-1152"/>
<text text-anchor="start" x="622" y="-1117.8" font-family="Times New Roman,serif" font-weight="bold" font-size="14.00">stl#User:non matched doctor</text>
</g>
<!-- EAID_706E0F3A_C3A6_4925_B7B7_81D21A1534F4___EAID_F4378555_E80D_453c_B7D2_08A7B363CF43_STL&#45;&gt;EAID_706E0F3A_C3A6_4925_B7B7_81D21A1534F4___EAID_F4378555_E80D_453c_B7D2_08A7B363CF43 -->
<g id="edge5" class="edge"><title>EAID_706E0F3A_C3A6_4925_B7B7_81D21A1534F4___EAID_F4378555_E80D_453c_B7D2_08A7B363CF43_STL&#45;&gt;EAID_706E0F3A_C3A6_4925_B7B7_81D21A1534F4___EAID_F4378555_E80D_453c_B7D2_08A7B363CF43</title>
<path fill="none" stroke="black" d="M705.008,-1107.27C702.054,-1092.63 698.267,-1073.87 695.017,-1057.77"/>
<polygon fill="black" stroke="black" points="698.382,-1056.75 692.972,-1047.64 691.52,-1058.13 698.382,-1056.75"/>
</g>
<!-- EAID_4F9F00FB_6302_4d9c_807D_89439E271ACA -->
<g id="node15" class="node"><title>EAID_4F9F00FB_6302_4d9c_807D_89439E271ACA</title>
<polygon fill="none" stroke="black" points="2644,-402.5 2644,-423.5 3052,-423.5 3052,-402.5 2644,-402.5"/>
<text text-anchor="start" x="2793.5" y="-410.3" font-family="Times New Roman,serif" font-weight="bold" font-size="14.00">Consumer Profile</text>
<polygon fill="none" stroke="black" points="2644,-381.5 2644,-402.5 3052,-402.5 3052,-381.5 2644,-381.5"/>
<text text-anchor="start" x="2793" y="-389.3" font-family="Times New Roman,serif" font-weight="bold" font-size="14.00">EAJava_char city</text>
<polygon fill="none" stroke="black" points="2644,-360.5 2644,-381.5 3052,-381.5 3052,-360.5 2644,-360.5"/>
<text text-anchor="start" x="2787.5" y="-368.3" font-family="Times New Roman,serif" font-weight="bold" font-size="14.00">EAJava_char email</text>
<polygon fill="none" stroke="black" points="2644,-339.5 2644,-360.5 3052,-360.5 3052,-339.5 2644,-339.5"/>
<text text-anchor="start" x="2786" y="-347.3" font-family="Times New Roman,serif" font-weight="bold" font-size="14.00">EAJava_char Name</text>
<polygon fill="none" stroke="black" points="2644,-318.5 2644,-339.5 3052,-339.5 3052,-318.5 2644,-318.5"/>
<text text-anchor="start" x="2774.5" y="-326.3" font-family="Times New Roman,serif" font-weight="bold" font-size="14.00">EAJava_char password</text>
<polygon fill="none" stroke="black" points="2644,-297.5 2644,-318.5 3052,-318.5 3052,-297.5 2644,-297.5"/>
<text text-anchor="start" x="2744.5" y="-305.3" font-family="Times New Roman,serif" font-weight="bold" font-size="14.00">EAJava_char specialityInterested</text>
<polygon fill="none" stroke="black" points="2644,-276.5 2644,-297.5 3052,-297.5 3052,-276.5 2644,-276.5"/>
<text text-anchor="start" x="2789" y="-284.3" font-family="Times New Roman,serif" font-weight="bold" font-size="14.00">EAJava_char state</text>
<polygon fill="none" stroke="black" points="2644,-255.5 2644,-276.5 3052,-276.5 3052,-255.5 2644,-255.5"/>
<text text-anchor="start" x="2773" y="-263.3" font-family="Times New Roman,serif" font-weight="bold" font-size="14.00">EAJava_char Username</text>
<polygon fill="none" stroke="black" points="2644,-234.5 2644,-255.5 3052,-255.5 3052,-234.5 2644,-234.5"/>
<text text-anchor="start" x="2787" y="-242.3" font-family="Times New Roman,serif" font-weight="bold" font-size="14.00">EAJava_int zipcode</text>
<polygon fill="none" stroke="black" points="2644,-213.5 2644,-234.5 3052,-234.5 3052,-213.5 2644,-213.5"/>
<text text-anchor="start" x="2647" y="-221.3" font-family="Times New Roman,serif" font-weight="bold" font-size="14.00">EAID_2D8A89EC_8E9E_4221_A322_670FAA646E76 undefined</text>
<polygon fill="none" stroke="black" points="2644,-192.5 2644,-213.5 3052,-213.5 3052,-192.5 2644,-192.5"/>
<text text-anchor="start" x="2791" y="-200.3" font-family="Times New Roman,serif" font-weight="bold" font-size="14.00">ConsumerProfile()</text>
<polygon fill="none" stroke="black" points="2644,-171.5 2644,-192.5 3052,-192.5 3052,-171.5 2644,-171.5"/>
<text text-anchor="start" x="2785.5" y="-179.3" font-family="Times New Roman,serif" font-weight="bold" font-size="14.00">saveudpatedprofile()</text>
<polygon fill="none" stroke="black" points="2644,-150.5 2644,-171.5 3052,-171.5 3052,-150.5 2644,-150.5"/>
<text text-anchor="start" x="2799" y="-158.3" font-family="Times New Roman,serif" font-weight="bold" font-size="14.00">Confirmdialog()</text>
<polygon fill="none" stroke="black" points="2644,-129.5 2644,-150.5 3052,-150.5 3052,-129.5 2644,-129.5"/>
<text text-anchor="start" x="2799" y="-137.3" font-family="Times New Roman,serif" font-weight="bold" font-size="14.00">EmailProtocol()</text>
<polygon fill="none" stroke="black" points="2643,-128.5 2643,-424.5 3053,-424.5 3053,-128.5 2643,-128.5"/>
</g>
<!-- EAID_D3112094_48FE_4973_99B8_CAA2B2ABCA4F -->
<g id="node17" class="node"><title>EAID_D3112094_48FE_4973_99B8_CAA2B2ABCA4F</title>
<polygon fill="none" stroke="black" points="1764,-328.5 1764,-349.5 2166,-349.5 2166,-328.5 1764,-328.5"/>
<text text-anchor="start" x="1899.5" y="-336.3" font-family="Times New Roman,serif" font-weight="bold" font-size="14.00">Network Information</text>
<polygon fill="none" stroke="black" points="1764,-307.5 1764,-328.5 2166,-328.5 2166,-307.5 1764,-307.5"/>
<text text-anchor="start" x="1860.5" y="-315.3" font-family="Times New Roman,serif" font-weight="bold" font-size="14.00">EAJava_char consumerUsername</text>
<polygon fill="none" stroke="black" points="1764,-286.5 1764,-307.5 2166,-307.5 2166,-286.5 1764,-286.5"/>
<text text-anchor="start" x="1873" y="-294.3" font-family="Times New Roman,serif" font-weight="bold" font-size="14.00">EAJava_int notifyByMailFlag</text>
<polygon fill="none" stroke="black" points="1764,-265.5 1764,-286.5 2166,-286.5 2166,-265.5 1764,-265.5"/>
<text text-anchor="start" x="1864" y="-273.3" font-family="Times New Roman,serif" font-weight="bold" font-size="14.00">EAJava_char providerUsername</text>
<polygon fill="none" stroke="black" points="1764,-244.5 1764,-265.5 2166,-265.5 2166,-244.5 1764,-244.5"/>
<text text-anchor="start" x="1767" y="-252.3" font-family="Times New Roman,serif" font-weight="bold" font-size="14.00">EAID_E3A9CD90_CE83_4fef_AB57_3192129D90C0 undefined</text>
<polygon fill="none" stroke="black" points="1764,-223.5 1764,-244.5 2166,-244.5 2166,-223.5 1764,-223.5"/>
<text text-anchor="start" x="1897" y="-231.3" font-family="Times New Roman,serif" font-weight="bold" font-size="14.00">NetworkInformation()</text>
<polygon fill="none" stroke="black" points="1764,-202.5 1764,-223.5 2166,-223.5 2166,-202.5 1764,-202.5"/>
<text text-anchor="start" x="1922" y="-210.3" font-family="Times New Roman,serif" font-weight="bold" font-size="14.00">Subscription()</text>
<polygon fill="none" stroke="black" points="1763,-202 1763,-351 2167,-351 2167,-202 1763,-202"/>
</g>
<!-- EAID_E3A9CD90_CE83_4fef_AB57_3192129D90C0 -->
<g id="node18" class="node"><title>EAID_E3A9CD90_CE83_4fef_AB57_3192129D90C0</title>
<polygon fill="none" stroke="black" points="1320,-423.5 1320,-444.5 1728,-444.5 1728,-423.5 1320,-423.5"/>
<text text-anchor="start" x="1474.5" y="-431.3" font-family="Times New Roman,serif" font-weight="bold" font-size="14.00">Provider Profile</text>
<polygon fill="none" stroke="black" points="1320,-402.5 1320,-423.5 1728,-423.5 1728,-402.5 1320,-402.5"/>
<text text-anchor="start" x="1469" y="-410.3" font-family="Times New Roman,serif" font-weight="bold" font-size="14.00">EAJava_char city</text>
<polygon fill="none" stroke="black" points="1320,-381.5 1320,-402.5 1728,-402.5 1728,-381.5 1320,-381.5"/>
<text text-anchor="start" x="1463.5" y="-389.3" font-family="Times New Roman,serif" font-weight="bold" font-size="14.00">EAJava_char email</text>
<polygon fill="none" stroke="black" points="1320,-360.5 1320,-381.5 1728,-381.5 1728,-360.5 1320,-360.5"/>
<text text-anchor="start" x="1454" y="-368.3" font-family="Times New Roman,serif" font-weight="bold" font-size="14.00">EAJava_char Lifestyle</text>
<polygon fill="none" stroke="black" points="1320,-339.5 1320,-360.5 1728,-360.5 1728,-339.5 1320,-339.5"/>
<text text-anchor="start" x="1462" y="-347.3" font-family="Times New Roman,serif" font-weight="bold" font-size="14.00">EAJava_char Name</text>
<polygon fill="none" stroke="black" points="1320,-318.5 1320,-339.5 1728,-339.5 1728,-318.5 1320,-318.5"/>
<text text-anchor="start" x="1450" y="-326.3" font-family="Times New Roman,serif" font-weight="bold" font-size="14.00">EAJava_char Password</text>
<polygon fill="none" stroke="black" points="1320,-297.5 1320,-318.5 1728,-318.5 1728,-297.5 1320,-297.5"/>
<text text-anchor="start" x="1451.5" y="-305.3" font-family="Times New Roman,serif" font-weight="bold" font-size="14.00">EAJava_char speciality</text>
<polygon fill="none" stroke="black" points="1320,-276.5 1320,-297.5 1728,-297.5 1728,-276.5 1320,-276.5"/>
<text text-anchor="start" x="1465" y="-284.3" font-family="Times New Roman,serif" font-weight="bold" font-size="14.00">EAJava_char state</text>
<polygon fill="none" stroke="black" points="1320,-255.5 1320,-276.5 1728,-276.5 1728,-255.5 1320,-255.5"/>
<text text-anchor="start" x="1449" y="-263.3" font-family="Times New Roman,serif" font-weight="bold" font-size="14.00">EAJava_char Username</text>
<polygon fill="none" stroke="black" points="1320,-234.5 1320,-255.5 1728,-255.5 1728,-234.5 1320,-234.5"/>
<text text-anchor="start" x="1463" y="-242.3" font-family="Times New Roman,serif" font-weight="bold" font-size="14.00">EAJava_int zipcode</text>
<polygon fill="none" stroke="black" points="1320,-213.5 1320,-234.5 1728,-234.5 1728,-213.5 1320,-213.5"/>
<text text-anchor="start" x="1323" y="-221.3" font-family="Times New Roman,serif" font-weight="bold" font-size="14.00">EAID_2D8A89EC_8E9E_4221_A322_670FAA646E76 undefined</text>
<polygon fill="none" stroke="black" points="1320,-192.5 1320,-213.5 1728,-213.5 1728,-192.5 1320,-192.5"/>
<text text-anchor="start" x="1472" y="-200.3" font-family="Times New Roman,serif" font-weight="bold" font-size="14.00">ProviderProfile()</text>
<polygon fill="none" stroke="black" points="1320,-171.5 1320,-192.5 1728,-192.5 1728,-171.5 1320,-171.5"/>
<text text-anchor="start" x="1461.5" y="-179.3" font-family="Times New Roman,serif" font-weight="bold" font-size="14.00">Addproviderbutton()</text>
<polygon fill="none" stroke="black" points="1320,-150.5 1320,-171.5 1728,-171.5 1728,-150.5 1320,-150.5"/>
<text text-anchor="start" x="1421" y="-158.3" font-family="Times New Roman,serif" font-weight="bold" font-size="14.00">Providercreatedsuccessmessage()</text>
<polygon fill="none" stroke="black" points="1320,-129.5 1320,-150.5 1728,-150.5 1728,-129.5 1320,-129.5"/>
<text text-anchor="start" x="1460.5" y="-137.3" font-family="Times New Roman,serif" font-weight="bold" font-size="14.00">Searchprovidepage()</text>
<polygon fill="none" stroke="black" points="1320,-108.5 1320,-129.5 1728,-129.5 1728,-108.5 1320,-108.5"/>
<text text-anchor="start" x="1415.5" y="-116.3" font-family="Times New Roman,serif" font-weight="bold" font-size="14.00">Displayallproviderbasedoncriteria()</text>
<polygon fill="none" stroke="black" points="1319,-107.5 1319,-445.5 1729,-445.5 1729,-107.5 1319,-107.5"/>
</g>
<!-- EAID_7CDF4B18_D159_4400_8D59_C27718800C59 -->
<g id="node20" class="node"><title>EAID_7CDF4B18_D159_4400_8D59_C27718800C59</title>
<polygon fill="none" stroke="black" points="808,-297.5 808,-318.5 956,-318.5 956,-297.5 808,-297.5"/>
<text text-anchor="start" x="846" y="-305.3" font-family="Times New Roman,serif" font-weight="bold" font-size="14.00">FeatureList</text>
<polygon fill="none" stroke="black" points="808,-276.5 808,-297.5 956,-297.5 956,-276.5 808,-276.5"/>
<text text-anchor="start" x="841.5" y="-284.3" font-family="Times New Roman,serif" font-weight="bold" font-size="14.00">FeatureList()</text>
<polygon fill="none" stroke="black" points="808,-255.5 808,-276.5 956,-276.5 956,-255.5 808,-255.5"/>
<text text-anchor="start" x="811" y="-263.3" font-family="Times New Roman,serif" font-weight="bold" font-size="14.00">redirecttofeaturepage()</text>
<polygon fill="none" stroke="black" points="808,-234.5 808,-255.5 956,-255.5 956,-234.5 808,-234.5"/>
<text text-anchor="start" x="818" y="-242.3" font-family="Times New Roman,serif" font-weight="bold" font-size="14.00">updatefeaturedetail()</text>
<polygon fill="none" stroke="black" points="807,-233.5 807,-319.5 957,-319.5 957,-233.5 807,-233.5"/>
</g>
</g>
</svg>
