<?xml version="1.0" encoding="UTF-8" standalone="no"?>
<!DOCTYPE svg PUBLIC "-//W3C//DTD SVG 1.1//EN"
 "http://www.w3.org/Graphics/SVG/1.1/DTD/svg11.dtd">
<!-- Generated by graphviz version 2.38.0 (20140413.2041)
 -->
<!-- Title: g Pages: 1 -->
<svg width="1169pt" height="442pt"
 viewBox="0.00 0.00 1169.00 442.00" xmlns="http://www.w3.org/2000/svg" xmlns:xlink="http://www.w3.org/1999/xlink">
<g id="graph0" class="graph" transform="scale(1 1) rotate(0) translate(4 438)">
<title>g</title>
<polygon fill="white" stroke="none" points="-4,4 -4,-438 1165,-438 1165,4 -4,4"/>
<g id="clust1" class="cluster"><title>cluster0</title>
<polygon fill="none" stroke="black" stroke-width="2" points="8,-8 8,-185 232,-185 232,-8 8,-8"/>
<text text-anchor="start" x="98" y="-170.8" font-family="Times New Roman,serif" font-weight="bold" font-size="14.00">System</text>
</g>
<g id="clust2" class="cluster"><title>cluster1</title>
<polygon fill="none" stroke="black" stroke-width="2" points="133,-304 133,-394 225,-394 225,-304 133,-304"/>
<text text-anchor="start" x="164.5" y="-379.8" font-family="Times New Roman,serif" font-weight="bold" font-size="14.00">User</text>
</g>
<g id="clust3" class="cluster"><title>cluster1000</title>
<polygon fill="none" stroke="black" stroke-width="2" points="347,-272 347,-426 1153,-426 1153,-272 347,-272"/>
<text text-anchor="start" x="704.5" y="-411.8" font-family="Times New Roman,serif" font-weight="bold" font-size="14.00">Domain Model</text>
</g>
<!-- EAID_DD237FDE_EE4D_4fad_B594_47DE1792DC51 -->
<g id="node1" class="node"><title>EAID_DD237FDE_EE4D_4fad_B594_47DE1792DC51</title>
<image xlink:href="img/activity_icon.png" width="30px" height="20px" preserveAspectRatio="xMinYMin meet" x="105" y="-147.5"/>
<text text-anchor="start" x="40" y="-113.3" font-family="Times New Roman,serif" font-weight="bold" font-size="14.00">Validate User Information</text>
</g>
<!-- EAID_FC7B0E7C_172B_4612_98DC_7BBA0C7C0E55 -->
<g id="node2" class="node"><title>EAID_FC7B0E7C_172B_4612_98DC_7BBA0C7C0E55</title>
<image xlink:href="img/activity_icon.png" width="30px" height="20px" preserveAspectRatio="xMinYMin meet" x="105" y="-60.5"/>
<text text-anchor="start" x="26" y="-26.3" font-family="Times New Roman,serif" font-weight="bold" font-size="14.00">Input Username and Password</text>
</g>
<!-- EAID_DD237FDE_EE4D_4fad_B594_47DE1792DC51&#45;&gt;EAID_FC7B0E7C_172B_4612_98DC_7BBA0C7C0E55 -->
<g id="edge5" class="edge"><title>EAID_DD237FDE_EE4D_4fad_B594_47DE1792DC51&#45;&gt;EAID_FC7B0E7C_172B_4612_98DC_7BBA0C7C0E55</title>
<path fill="none" stroke="black" d="M113.814,-102.914C113.279,-94.8972 113.124,-85.8388 113.351,-77.2221"/>
<polygon fill="black" stroke="black" points="116.857,-77.1798 113.818,-67.0303 109.864,-76.8599 116.857,-77.1798"/>
</g>
<!-- EAID_FC7B0E7C_172B_4612_98DC_7BBA0C7C0E55&#45;&gt;EAID_DD237FDE_EE4D_4fad_B594_47DE1792DC51 -->
<g id="edge1" class="edge"><title>EAID_FC7B0E7C_172B_4612_98DC_7BBA0C7C0E55&#45;&gt;EAID_DD237FDE_EE4D_4fad_B594_47DE1792DC51</title>
<path fill="none" stroke="black" d="M126.182,-67.0303C126.72,-75.0428 126.875,-84.0997 126.65,-92.7185"/>
<polygon fill="black" stroke="black" points="123.144,-92.7656 126.186,-102.914 130.137,-93.084 123.144,-92.7656"/>
</g>
<!-- EAID_A354F5C5_A34C_4263_AB7A_C417C3C504FF -->
<g id="node3" class="node"><title>EAID_A354F5C5_A34C_4263_AB7A_C417C3C504FF</title>
<image xlink:href="img/activity_icon.png" width="30px" height="20px" preserveAspectRatio="xMinYMin meet" x="164.5" y="-356.5"/>
<text text-anchor="start" x="152" y="-322.3" font-family="Times New Roman,serif" font-weight="bold" font-size="14.00">Activity2</text>
</g>
<!-- EAID_1786B25E_D00D_4594_921F_04BA17E27C67 -->
<g id="node5" class="node"><title>EAID_1786B25E_D00D_4594_921F_04BA17E27C67</title>
<image xlink:href="img/stimulus_icon.png" width="27px" height="20px" preserveAspectRatio="xMinYMin meet" x="166" y="-237.5"/>
<text text-anchor="start" x="166" y="-203.3" font-family="Times New Roman,serif" font-weight="bold" font-size="14.00">fork</text>
</g>
<!-- EAID_A354F5C5_A34C_4263_AB7A_C417C3C504FF&#45;&gt;EAID_1786B25E_D00D_4594_921F_04BA17E27C67 -->
<g id="edge2" class="edge"><title>EAID_A354F5C5_A34C_4263_AB7A_C417C3C504FF&#45;&gt;EAID_1786B25E_D00D_4594_921F_04BA17E27C67</title>
<path fill="none" stroke="black" d="M179,-311.973C179,-295.315 179,-273.033 179,-254.516"/>
<polygon fill="black" stroke="black" points="182.5,-254.398 179,-244.398 175.5,-254.398 182.5,-254.398"/>
</g>
<!-- EAID_AC000001_31D0_4e58_B54E_3F0658851738 -->
<g id="node4" class="node"><title>EAID_AC000001_31D0_4e58_B54E_3F0658851738</title>
<image xlink:href="img/activity_icon.png" width="30px" height="20px" preserveAspectRatio="xMinYMin meet" x="271" y="-356.5"/>
<text text-anchor="start" x="245" y="-322.3" font-family="Times New Roman,serif" font-weight="bold" font-size="14.00">EA_Activity1</text>
</g>
<!-- EAID_1786B25E_D00D_4594_921F_04BA17E27C67&#45;&gt;EAID_DD237FDE_EE4D_4fad_B594_47DE1792DC51 -->
<g id="edge4" class="edge"><title>EAID_1786B25E_D00D_4594_921F_04BA17E27C67&#45;&gt;EAID_DD237FDE_EE4D_4fad_B594_47DE1792DC51</title>
<path fill="none" stroke="black" d="M162.565,-192.987C156.289,-183.626 149.023,-172.789 142.292,-162.748"/>
<polygon fill="black" stroke="black" points="145.027,-160.544 136.551,-154.187 139.213,-164.442 145.027,-160.544"/>
</g>
<!-- EAID_1786B25E_D00D_4594_921F_04BA17E27C67&#45;&gt;EAID_FC7B0E7C_172B_4612_98DC_7BBA0C7C0E55 -->
<g id="edge3" class="edge"><title>EAID_1786B25E_D00D_4594_921F_04BA17E27C67&#45;&gt;EAID_FC7B0E7C_172B_4612_98DC_7BBA0C7C0E55</title>
<path fill="none" stroke="black" d="M206.182,-200.999C211.365,-196.499 216.077,-191.14 219,-185 234.663,-152.093 236.827,-134.787 219,-103 212.181,-90.8421 201.815,-80.8362 190.317,-72.7075"/>
<polygon fill="black" stroke="black" points="192.062,-69.6668 181.779,-67.1162 188.227,-75.5228 192.062,-69.6668"/>
</g>
<!-- EAID_DB1C34DE_E1DA_4634_8454_B3E9A6E55224 -->
<g id="node6" class="node"><title>EAID_DB1C34DE_E1DA_4634_8454_B3E9A6E55224</title>
<polygon fill="none" stroke="black" points="1001,-337.5 1001,-358.5 1136,-358.5 1136,-337.5 1001,-337.5"/>
<text text-anchor="start" x="1029" y="-345.3" font-family="Times New Roman,serif" font-weight="bold" font-size="14.00">BookTickets</text>
<polygon fill="none" stroke="black" points="1001,-316.5 1001,-337.5 1136,-337.5 1136,-316.5 1001,-316.5"/>
<text text-anchor="start" x="1004" y="-324.3" font-family="Times New Roman,serif" font-weight="bold" font-size="14.00">int BookTicketName</text>
<polygon fill="none" stroke="black" points="999.5,-315.5 999.5,-359.5 1136.5,-359.5 1136.5,-315.5 999.5,-315.5"/>
</g>
<!-- EAID_755CC2E3_BF7C_4571_998E_CB58912AE524 -->
<g id="node7" class="node"><title>EAID_755CC2E3_BF7C_4571_998E_CB58912AE524</title>
<polygon fill="none" stroke="black" points="916,-326.5 916,-347.5 964,-347.5 964,-326.5 916,-326.5"/>
<text text-anchor="start" x="919" y="-334.3" font-family="Times New Roman,serif" font-weight="bold" font-size="14.00">Class1</text>
<polygon fill="none" stroke="black" points="915,-326 915,-349 965,-349 965,-326 915,-326"/>
</g>
<!-- EAID_A2005B87_8BE7_4869_9CC6_2F5C7E80F893 -->
<g id="node8" class="node"><title>EAID_A2005B87_8BE7_4869_9CC6_2F5C7E80F893</title>
<polygon fill="none" stroke="black" points="747,-337.5 747,-358.5 880,-358.5 880,-337.5 747,-337.5"/>
<text text-anchor="start" x="750" y="-345.3" font-family="Times New Roman,serif" font-weight="bold" font-size="14.00">bookTicketInterface</text>
<polygon fill="none" stroke="black" points="747,-316.5 747,-337.5 880,-337.5 880,-316.5 747,-316.5"/>
<text text-anchor="start" x="751" y="-324.3" font-family="Times New Roman,serif" font-weight="bold" font-size="14.00">int BookTicketInput</text>
<polygon fill="none" stroke="black" points="745.5,-315.5 745.5,-359.5 880.5,-359.5 880.5,-315.5 745.5,-315.5"/>
</g>
<!-- EAID_BA78D637_2FF8_42d4_B0CA_2B07F4EC5584 -->
<g id="node9" class="node"><title>EAID_BA78D637_2FF8_42d4_B0CA_2B07F4EC5584</title>
<polygon fill="none" stroke="black" points="364,-368.5 364,-389.5 710,-389.5 710,-368.5 364,-368.5"/>
<text text-anchor="start" x="458.5" y="-376.3" font-family="Times New Roman,serif" font-weight="bold" font-size="14.00">bookTicketsManagement</text>
<polygon fill="none" stroke="black" points="364,-347.5 364,-368.5 710,-368.5 710,-347.5 364,-347.5"/>
<text text-anchor="start" x="481" y="-355.3" font-family="Times New Roman,serif" font-weight="bold" font-size="14.00">String ticketName</text>
<polygon fill="none" stroke="black" points="364,-326.5 364,-347.5 710,-347.5 710,-326.5 364,-326.5"/>
<text text-anchor="start" x="506.5" y="-334.3" font-family="Times New Roman,serif" font-weight="bold" font-size="14.00">int tiketId</text>
<polygon fill="none" stroke="black" points="364,-305.5 364,-326.5 710,-326.5 710,-305.5 364,-305.5"/>
<text text-anchor="start" x="367" y="-313.3" font-family="Times New Roman,serif" font-weight="bold" font-size="14.00">005B87_8BE7_4869_9CC6_2F5C7E80F893 undefined</text>
<polygon fill="none" stroke="black" points="364,-284.5 364,-305.5 710,-305.5 710,-284.5 364,-284.5"/>
<text text-anchor="start" x="439" y="-292.3" font-family="Times New Roman,serif" font-weight="bold" font-size="14.00">void bookTicketsManagement()</text>
<polygon fill="none" stroke="black" points="363,-284 363,-391 711,-391 711,-284 363,-284"/>
</g>
</g>
</svg>
