<?xml version="1.0" encoding="UTF-8" standalone="no"?>
<!DOCTYPE svg PUBLIC "-//W3C//DTD SVG 1.1//EN"
 "http://www.w3.org/Graphics/SVG/1.1/DTD/svg11.dtd">
<!-- Generated by graphviz version 2.38.0 (20140413.2041)
 -->
<!-- Title: g Pages: 1 -->
<svg width="1160pt" height="423pt"
 viewBox="0.00 0.00 1160.00 423.00" xmlns="http://www.w3.org/2000/svg" xmlns:xlink="http://www.w3.org/1999/xlink">
<g id="graph0" class="graph" transform="scale(1 1) rotate(0) translate(4 419)">
<title>g</title>
<polygon fill="white" stroke="none" points="-4,4 -4,-419 1156,-419 1156,4 -4,4"/>
<g id="clust1" class="cluster"><title>cluster1000</title>
<polygon fill="none" stroke="black" stroke-width="2" points="338,-253 338,-407 1144,-407 1144,-253 338,-253"/>
<text text-anchor="start" x="695.5" y="-392.8" font-family="Times New Roman,serif" font-weight="bold" font-size="14.00">Domain Model</text>
</g>
<!-- EAID_C2AFBA21_29F1_43f5_9F2F_8A2B385152B9 -->
<g id="node1" class="node"><title>EAID_C2AFBA21_29F1_43f5_9F2F_8A2B385152B9</title>
<image xlink:href="img/activity_icon.png" width="30px" height="20px" preserveAspectRatio="xMinYMin meet" x="155.5" y="-337.5"/>
<text text-anchor="start" x="143" y="-303.3" font-family="Times New Roman,serif" font-weight="bold" font-size="14.00">Activity2</text>
</g>
<!-- EAID_65D71CA5_1667_4eb1_BC0C_312D4643EE67 -->
<g id="node5" class="node"><title>EAID_65D71CA5_1667_4eb1_BC0C_312D4643EE67</title>
<image xlink:href="img/activity_icon.png" width="30px" height="20px" preserveAspectRatio="xMinYMin meet" x="155" y="-218.5"/>
<text text-anchor="start" x="156.5" y="-184.3" font-family="Times New Roman,serif" font-weight="bold" font-size="14.00">fork</text>
</g>
<!-- EAID_C2AFBA21_29F1_43f5_9F2F_8A2B385152B9&#45;&gt;EAID_65D71CA5_1667_4eb1_BC0C_312D4643EE67 -->
<g id="edge1" class="edge"><title>EAID_C2AFBA21_29F1_43f5_9F2F_8A2B385152B9&#45;&gt;EAID_65D71CA5_1667_4eb1_BC0C_312D4643EE67</title>
<path fill="none" stroke="black" d="M170,-292.973C170,-276.315 170,-254.033 170,-235.516"/>
<polygon fill="black" stroke="black" points="173.5,-235.398 170,-225.398 166.5,-235.398 173.5,-235.398"/>
</g>
<!-- EAID_BC86FA26_BE9D_45f7_BDDA_3E7E6F64C8C6 -->
<g id="node2" class="node"><title>EAID_BC86FA26_BE9D_45f7_BDDA_3E7E6F64C8C6</title>
<image xlink:href="img/activity_icon.png" width="30px" height="20px" preserveAspectRatio="xMinYMin meet" x="89" y="-131.5"/>
<text text-anchor="start" x="10" y="-97.3" font-family="Times New Roman,serif" font-weight="bold" font-size="14.00">Input Username and Password</text>
</g>
<!-- EAID_2D5B2A77_03A1_45ef_A196_20D22E461F68 -->
<g id="node3" class="node"><title>EAID_2D5B2A77_03A1_45ef_A196_20D22E461F68</title>
<image xlink:href="img/activity_icon.png" width="30px" height="20px" preserveAspectRatio="xMinYMin meet" x="89" y="-44.5"/>
<text text-anchor="start" x="24" y="-10.3" font-family="Times New Roman,serif" font-weight="bold" font-size="14.00">Validate User Information</text>
</g>
<!-- EAID_BC86FA26_BE9D_45f7_BDDA_3E7E6F64C8C6&#45;&gt;EAID_2D5B2A77_03A1_45ef_A196_20D22E461F68 -->
<g id="edge2" class="edge"><title>EAID_BC86FA26_BE9D_45f7_BDDA_3E7E6F64C8C6&#45;&gt;EAID_2D5B2A77_03A1_45ef_A196_20D22E461F68</title>
<path fill="none" stroke="black" d="M97.814,-86.9145C97.2785,-78.8972 97.1243,-69.8388 97.3515,-61.2221"/>
<polygon fill="black" stroke="black" points="100.857,-61.1798 97.8177,-51.0303 93.8643,-60.8599 100.857,-61.1798"/>
</g>
<!-- EAID_2D5B2A77_03A1_45ef_A196_20D22E461F68&#45;&gt;EAID_BC86FA26_BE9D_45f7_BDDA_3E7E6F64C8C6 -->
<g id="edge5" class="edge"><title>EAID_2D5B2A77_03A1_45ef_A196_20D22E461F68&#45;&gt;EAID_BC86FA26_BE9D_45f7_BDDA_3E7E6F64C8C6</title>
<path fill="none" stroke="black" d="M110.182,-51.0303C110.72,-59.0428 110.875,-68.0997 110.65,-76.7185"/>
<polygon fill="black" stroke="black" points="107.144,-76.7656 110.186,-86.9145 114.137,-77.084 107.144,-76.7656"/>
</g>
<!-- EAID_AC000002_31D0_4e58_B54E_3F0658851738 -->
<g id="node4" class="node"><title>EAID_AC000002_31D0_4e58_B54E_3F0658851738</title>
<image xlink:href="img/activity_icon.png" width="30px" height="20px" preserveAspectRatio="xMinYMin meet" x="262" y="-337.5"/>
<text text-anchor="start" x="236" y="-303.3" font-family="Times New Roman,serif" font-weight="bold" font-size="14.00">EA_Activity2</text>
</g>
<!-- EAID_65D71CA5_1667_4eb1_BC0C_312D4643EE67&#45;&gt;EAID_BC86FA26_BE9D_45f7_BDDA_3E7E6F64C8C6 -->
<g id="edge4" class="edge"><title>EAID_65D71CA5_1667_4eb1_BC0C_312D4643EE67&#45;&gt;EAID_BC86FA26_BE9D_45f7_BDDA_3E7E6F64C8C6</title>
<path fill="none" stroke="black" d="M150.91,-173.914C144.138,-165.192 136.408,-155.238 129.205,-145.961"/>
<polygon fill="black" stroke="black" points="131.945,-143.782 123.047,-138.03 126.416,-148.075 131.945,-143.782"/>
</g>
<!-- EAID_65D71CA5_1667_4eb1_BC0C_312D4643EE67&#45;&gt;EAID_2D5B2A77_03A1_45ef_A196_20D22E461F68 -->
<g id="edge3" class="edge"><title>EAID_65D71CA5_1667_4eb1_BC0C_312D4643EE67&#45;&gt;EAID_2D5B2A77_03A1_45ef_A196_20D22E461F68</title>
<path fill="none" stroke="black" d="M195.039,-173.973C203.751,-163.763 212.471,-151.211 217,-138 224.35,-116.558 228.646,-106.446 217,-87 209.522,-74.5134 198.488,-64.458 186.205,-56.4066"/>
<polygon fill="black" stroke="black" points="187.895,-53.3385 177.529,-51.1475 184.266,-59.3245 187.895,-53.3385"/>
</g>
<!-- EAID_DB1C34DE_E1DA_4634_8454_B3E9A6E55224 -->
<g id="node6" class="node"><title>EAID_DB1C34DE_E1DA_4634_8454_B3E9A6E55224</title>
<polygon fill="none" stroke="black" points="992,-318.5 992,-339.5 1127,-339.5 1127,-318.5 992,-318.5"/>
<text text-anchor="start" x="1020" y="-326.3" font-family="Times New Roman,serif" font-weight="bold" font-size="14.00">BookTickets</text>
<polygon fill="none" stroke="black" points="992,-297.5 992,-318.5 1127,-318.5 1127,-297.5 992,-297.5"/>
<text text-anchor="start" x="995" y="-305.3" font-family="Times New Roman,serif" font-weight="bold" font-size="14.00">int BookTicketName</text>
<polygon fill="none" stroke="black" points="990.5,-296.5 990.5,-340.5 1127.5,-340.5 1127.5,-296.5 990.5,-296.5"/>
</g>
<!-- EAID_755CC2E3_BF7C_4571_998E_CB58912AE524 -->
<g id="node7" class="node"><title>EAID_755CC2E3_BF7C_4571_998E_CB58912AE524</title>
<polygon fill="none" stroke="black" points="907,-307.5 907,-328.5 955,-328.5 955,-307.5 907,-307.5"/>
<text text-anchor="start" x="910" y="-315.3" font-family="Times New Roman,serif" font-weight="bold" font-size="14.00">Class1</text>
<polygon fill="none" stroke="black" points="906,-307 906,-330 956,-330 956,-307 906,-307"/>
</g>
<!-- EAID_A2005B87_8BE7_4869_9CC6_2F5C7E80F893 -->
<g id="node8" class="node"><title>EAID_A2005B87_8BE7_4869_9CC6_2F5C7E80F893</title>
<polygon fill="none" stroke="black" points="738,-318.5 738,-339.5 871,-339.5 871,-318.5 738,-318.5"/>
<text text-anchor="start" x="741" y="-326.3" font-family="Times New Roman,serif" font-weight="bold" font-size="14.00">bookTicketInterface</text>
<polygon fill="none" stroke="black" points="738,-297.5 738,-318.5 871,-318.5 871,-297.5 738,-297.5"/>
<text text-anchor="start" x="742" y="-305.3" font-family="Times New Roman,serif" font-weight="bold" font-size="14.00">int BookTicketInput</text>
<polygon fill="none" stroke="black" points="736.5,-296.5 736.5,-340.5 871.5,-340.5 871.5,-296.5 736.5,-296.5"/>
</g>
<!-- EAID_BA78D637_2FF8_42d4_B0CA_2B07F4EC5584 -->
<g id="node9" class="node"><title>EAID_BA78D637_2FF8_42d4_B0CA_2B07F4EC5584</title>
<polygon fill="none" stroke="black" points="355,-349.5 355,-370.5 701,-370.5 701,-349.5 355,-349.5"/>
<text text-anchor="start" x="449.5" y="-357.3" font-family="Times New Roman,serif" font-weight="bold" font-size="14.00">bookTicketsManagement</text>
<polygon fill="none" stroke="black" points="355,-328.5 355,-349.5 701,-349.5 701,-328.5 355,-328.5"/>
<text text-anchor="start" x="472" y="-336.3" font-family="Times New Roman,serif" font-weight="bold" font-size="14.00">String ticketName</text>
<polygon fill="none" stroke="black" points="355,-307.5 355,-328.5 701,-328.5 701,-307.5 355,-307.5"/>
<text text-anchor="start" x="497.5" y="-315.3" font-family="Times New Roman,serif" font-weight="bold" font-size="14.00">int tiketId</text>
<polygon fill="none" stroke="black" points="355,-286.5 355,-307.5 701,-307.5 701,-286.5 355,-286.5"/>
<text text-anchor="start" x="358" y="-294.3" font-family="Times New Roman,serif" font-weight="bold" font-size="14.00">005B87_8BE7_4869_9CC6_2F5C7E80F893 undefined</text>
<polygon fill="none" stroke="black" points="355,-265.5 355,-286.5 701,-286.5 701,-265.5 355,-265.5"/>
<text text-anchor="start" x="430" y="-273.3" font-family="Times New Roman,serif" font-weight="bold" font-size="14.00">void bookTicketsManagement()</text>
<polygon fill="none" stroke="black" points="354,-265 354,-372 702,-372 702,-265 354,-265"/>
</g>
</g>
</svg>
