<?xml version="1.0" encoding="UTF-8" standalone="no"?>
<!DOCTYPE svg PUBLIC "-//W3C//DTD SVG 1.1//EN"
 "http://www.w3.org/Graphics/SVG/1.1/DTD/svg11.dtd">
<!-- Generated by graphviz version 2.40.1 (20161225.0304)
 -->
<!-- Title: g Pages: 1 -->
<svg width="532pt" height="1092pt"
 viewBox="0.00 0.00 532.00 1092.00" xmlns="http://www.w3.org/2000/svg" xmlns:xlink="http://www.w3.org/1999/xlink">
<g id="graph0" class="graph" transform="scale(1 1) rotate(0) translate(4 1088)">
<title>g</title>
<polygon fill="#ffffff" stroke="transparent" points="-4,4 -4,-1088 528,-1088 528,4 -4,4"/>
<g id="clust2" class="cluster">
<title>cluster1</title>
<polygon fill="none" stroke="#000000" stroke-width="2" points="168,-200 168,-1076 320,-1076 320,-200 168,-200"/>
<text text-anchor="start" x="175.7734" y="-1053.8" font-family="Times,serif" font-weight="bold" font-size="24.00" fill="#000000">Transaction#2</text>
</g>
<g id="clust3" class="cluster">
<title>cluster2</title>
<polygon fill="none" stroke="#000000" stroke-width="2" points="328,-776 328,-1076 516,-1076 516,-776 328,-776"/>
<text text-anchor="start" x="353.7734" y="-1053.8" font-family="Times,serif" font-weight="bold" font-size="24.00" fill="#000000">Transaction#3</text>
</g>
<g id="clust1" class="cluster">
<title>cluster0</title>
<polygon fill="none" stroke="#000000" stroke-width="2" points="8,-8 8,-1076 160,-1076 160,-8 8,-8"/>
<text text-anchor="start" x="15.7734" y="-1053.8" font-family="Times,serif" font-weight="bold" font-size="24.00" fill="#000000">Transaction#1</text>
</g>
<!-- EAID_41C1BF0E_522A_451c_B625_CF3217C57CC5_STL1 -->
<g id="node1" class="node">
<title>EAID_41C1BF0E_522A_451c_B625_CF3217C57CC5_STL1</title>
<image xlink:href="Stimulus_icon.png" width="30px" height="20px" preserveAspectRatio="xMinYMin meet" x="69" y="-1030"/>
<text text-anchor="start" x="60.6621" y="-987.8" font-family="Times,serif" font-weight="bold" font-size="24.00" fill="#000000">stl#2</text>
</g>
<!-- EAID_41C1BF0E_522A_451c_B625_CF3217C57CC51 -->
<g id="node2" class="node">
<title>EAID_41C1BF0E_522A_451c_B625_CF3217C57CC51</title>
<image xlink:href="activity_icon.png" width="30px" height="20px" preserveAspectRatio="xMinYMin meet" x="69" y="-934"/>
<text text-anchor="start" x="78" y="-891.8" font-family="Times,serif" font-weight="bold" font-size="24.00" fill="#000000">2</text>
</g>
<!-- EAID_41C1BF0E_522A_451c_B625_CF3217C57CC5_STL1&#45;&gt;EAID_41C1BF0E_522A_451c_B625_CF3217C57CC51 -->
<g id="edge1" class="edge">
<title>EAID_41C1BF0E_522A_451c_B625_CF3217C57CC5_STL1&#45;&gt;EAID_41C1BF0E_522A_451c_B625_CF3217C57CC51</title>
<path fill="none" stroke="#000000" d="M84,-975.8884C84,-967.7571 84,-958.8266 84,-950.2368"/>
<polygon fill="#000000" stroke="#000000" points="87.5001,-950.0047 84,-940.0048 80.5001,-950.0048 87.5001,-950.0047"/>
</g>
<!-- EAID_1E55DE17_7609_4ce8_8E77_BA72CDED15F81 -->
<g id="node3" class="node">
<title>EAID_1E55DE17_7609_4ce8_8E77_BA72CDED15F81</title>
<image xlink:href="activity_icon.png" width="30px" height="20px" preserveAspectRatio="xMinYMin meet" x="69" y="-838"/>
<text text-anchor="start" x="78" y="-795.8" font-family="Times,serif" font-weight="bold" font-size="24.00" fill="#000000">3</text>
</g>
<!-- EAID_41C1BF0E_522A_451c_B625_CF3217C57CC51&#45;&gt;EAID_1E55DE17_7609_4ce8_8E77_BA72CDED15F81 -->
<g id="edge2" class="edge">
<title>EAID_41C1BF0E_522A_451c_B625_CF3217C57CC51&#45;&gt;EAID_1E55DE17_7609_4ce8_8E77_BA72CDED15F81</title>
<path fill="none" stroke="#000000" d="M84,-879.8884C84,-871.7571 84,-862.8266 84,-854.2368"/>
<polygon fill="#000000" stroke="#000000" points="87.5001,-854.0047 84,-844.0048 80.5001,-854.0048 87.5001,-854.0047"/>
</g>
<!-- EAID_F9A5EE14_6D6C_48bd_A06C_12604F06BEF91 -->
<g id="node4" class="node">
<title>EAID_F9A5EE14_6D6C_48bd_A06C_12604F06BEF91</title>
<image xlink:href="activity_icon.png" width="30px" height="20px" preserveAspectRatio="xMinYMin meet" x="69" y="-742"/>
<text text-anchor="start" x="78" y="-699.8" font-family="Times,serif" font-weight="bold" font-size="24.00" fill="#000000">4</text>
</g>
<!-- EAID_1E55DE17_7609_4ce8_8E77_BA72CDED15F81&#45;&gt;EAID_F9A5EE14_6D6C_48bd_A06C_12604F06BEF91 -->
<g id="edge3" class="edge">
<title>EAID_1E55DE17_7609_4ce8_8E77_BA72CDED15F81&#45;&gt;EAID_F9A5EE14_6D6C_48bd_A06C_12604F06BEF91</title>
<path fill="none" stroke="#000000" d="M84,-783.8884C84,-775.7571 84,-766.8266 84,-758.2368"/>
<polygon fill="#000000" stroke="#000000" points="87.5001,-758.0047 84,-748.0048 80.5001,-758.0048 87.5001,-758.0047"/>
</g>
<!-- EAID_9DEC5D3E_7E27_4477_9D8B_5B60CE0622771 -->
<g id="node5" class="node">
<title>EAID_9DEC5D3E_7E27_4477_9D8B_5B60CE0622771</title>
<image xlink:href="activity_icon.png" width="30px" height="20px" preserveAspectRatio="xMinYMin meet" x="69" y="-646"/>
<text text-anchor="start" x="78" y="-603.8" font-family="Times,serif" font-weight="bold" font-size="24.00" fill="#000000">5</text>
</g>
<!-- EAID_F9A5EE14_6D6C_48bd_A06C_12604F06BEF91&#45;&gt;EAID_9DEC5D3E_7E27_4477_9D8B_5B60CE0622771 -->
<g id="edge4" class="edge">
<title>EAID_F9A5EE14_6D6C_48bd_A06C_12604F06BEF91&#45;&gt;EAID_9DEC5D3E_7E27_4477_9D8B_5B60CE0622771</title>
<path fill="none" stroke="#000000" d="M84,-687.8884C84,-679.7571 84,-670.8266 84,-662.2368"/>
<polygon fill="#000000" stroke="#000000" points="87.5001,-662.0047 84,-652.0048 80.5001,-662.0048 87.5001,-662.0047"/>
</g>
<!-- EAID_9808A6E9_59CD_4e1a_944D_51816334972A1 -->
<g id="node6" class="node">
<title>EAID_9808A6E9_59CD_4e1a_944D_51816334972A1</title>
<image xlink:href="activity_icon.png" width="30px" height="20px" preserveAspectRatio="xMinYMin meet" x="69" y="-550"/>
<text text-anchor="start" x="78" y="-507.8" font-family="Times,serif" font-weight="bold" font-size="24.00" fill="#000000">7</text>
</g>
<!-- EAID_9DEC5D3E_7E27_4477_9D8B_5B60CE0622771&#45;&gt;EAID_9808A6E9_59CD_4e1a_944D_51816334972A1 -->
<g id="edge5" class="edge">
<title>EAID_9DEC5D3E_7E27_4477_9D8B_5B60CE0622771&#45;&gt;EAID_9808A6E9_59CD_4e1a_944D_51816334972A1</title>
<path fill="none" stroke="#000000" d="M84,-591.8884C84,-583.7571 84,-574.8266 84,-566.2368"/>
<polygon fill="#000000" stroke="#000000" points="87.5001,-566.0047 84,-556.0048 80.5001,-566.0048 87.5001,-566.0047"/>
</g>
<!-- EAID_43625513_CCC8_4cd0_8AB9_23047A4773731 -->
<g id="node7" class="node">
<title>EAID_43625513_CCC8_4cd0_8AB9_23047A4773731</title>
<image xlink:href="activity_icon.png" width="30px" height="20px" preserveAspectRatio="xMinYMin meet" x="69" y="-454"/>
<text text-anchor="start" x="78" y="-411.8" font-family="Times,serif" font-weight="bold" font-size="24.00" fill="#000000">8</text>
</g>
<!-- EAID_9808A6E9_59CD_4e1a_944D_51816334972A1&#45;&gt;EAID_43625513_CCC8_4cd0_8AB9_23047A4773731 -->
<g id="edge6" class="edge">
<title>EAID_9808A6E9_59CD_4e1a_944D_51816334972A1&#45;&gt;EAID_43625513_CCC8_4cd0_8AB9_23047A4773731</title>
<path fill="none" stroke="#000000" d="M84,-495.8884C84,-487.7571 84,-478.8266 84,-470.2368"/>
<polygon fill="#000000" stroke="#000000" points="87.5001,-470.0047 84,-460.0048 80.5001,-470.0048 87.5001,-470.0047"/>
</g>
<!-- EAID_79360A60_BD25_45f2_91B5_10A99C1E311D1 -->
<g id="node8" class="node">
<title>EAID_79360A60_BD25_45f2_91B5_10A99C1E311D1</title>
<image xlink:href="activity_icon.png" width="30px" height="20px" preserveAspectRatio="xMinYMin meet" x="69" y="-358"/>
<text text-anchor="start" x="78" y="-315.8" font-family="Times,serif" font-weight="bold" font-size="24.00" fill="#000000">9</text>
</g>
<!-- EAID_43625513_CCC8_4cd0_8AB9_23047A4773731&#45;&gt;EAID_79360A60_BD25_45f2_91B5_10A99C1E311D1 -->
<g id="edge7" class="edge">
<title>EAID_43625513_CCC8_4cd0_8AB9_23047A4773731&#45;&gt;EAID_79360A60_BD25_45f2_91B5_10A99C1E311D1</title>
<path fill="none" stroke="#000000" d="M84,-399.8884C84,-391.7571 84,-382.8266 84,-374.2368"/>
<polygon fill="#000000" stroke="#000000" points="87.5001,-374.0047 84,-364.0048 80.5001,-374.0048 87.5001,-374.0047"/>
</g>
<!-- EAID_1F6D3B91_06C5_4a7f_A1A3_1F220E88D1F91 -->
<g id="node9" class="node">
<title>EAID_1F6D3B91_06C5_4a7f_A1A3_1F220E88D1F91</title>
<image xlink:href="activity_icon.png" width="30px" height="20px" preserveAspectRatio="xMinYMin meet" x="69" y="-262"/>
<text text-anchor="start" x="72" y="-219.8" font-family="Times,serif" font-weight="bold" font-size="24.00" fill="#000000">10</text>
</g>
<!-- EAID_79360A60_BD25_45f2_91B5_10A99C1E311D1&#45;&gt;EAID_1F6D3B91_06C5_4a7f_A1A3_1F220E88D1F91 -->
<g id="edge8" class="edge">
<title>EAID_79360A60_BD25_45f2_91B5_10A99C1E311D1&#45;&gt;EAID_1F6D3B91_06C5_4a7f_A1A3_1F220E88D1F91</title>
<path fill="none" stroke="#000000" d="M84,-303.8884C84,-295.7571 84,-286.8266 84,-278.2368"/>
<polygon fill="#000000" stroke="#000000" points="87.5001,-278.0047 84,-268.0048 80.5001,-278.0048 87.5001,-278.0047"/>
</g>
<!-- EAID_F905E178_A0A5_43a9_82D5_945754E219601 -->
<g id="node10" class="node">
<title>EAID_F905E178_A0A5_43a9_82D5_945754E219601</title>
<image xlink:href="activity_icon.png" width="30px" height="20px" preserveAspectRatio="xMinYMin meet" x="69" y="-166"/>
<text text-anchor="start" x="72.4395" y="-123.8" font-family="Times,serif" font-weight="bold" font-size="24.00" fill="#000000">11</text>
</g>
<!-- EAID_1F6D3B91_06C5_4a7f_A1A3_1F220E88D1F91&#45;&gt;EAID_F905E178_A0A5_43a9_82D5_945754E219601 -->
<g id="edge9" class="edge">
<title>EAID_1F6D3B91_06C5_4a7f_A1A3_1F220E88D1F91&#45;&gt;EAID_F905E178_A0A5_43a9_82D5_945754E219601</title>
<path fill="none" stroke="#000000" d="M84,-207.8884C84,-199.7571 84,-190.8266 84,-182.2368"/>
<polygon fill="#000000" stroke="#000000" points="87.5001,-182.0047 84,-172.0048 80.5001,-182.0048 87.5001,-182.0047"/>
</g>
<!-- EAID_4F616FD9_5D76_4689_9DE2_9FCE843299231 -->
<g id="node11" class="node">
<title>EAID_4F616FD9_5D76_4689_9DE2_9FCE843299231</title>
<image xlink:href="activity_icon.png" width="30px" height="20px" preserveAspectRatio="xMinYMin meet" x="69" y="-70"/>
<text text-anchor="start" x="72" y="-27.8" font-family="Times,serif" font-weight="bold" font-size="24.00" fill="#000000">12</text>
</g>
<!-- EAID_F905E178_A0A5_43a9_82D5_945754E219601&#45;&gt;EAID_4F616FD9_5D76_4689_9DE2_9FCE843299231 -->
<g id="edge10" class="edge">
<title>EAID_F905E178_A0A5_43a9_82D5_945754E219601&#45;&gt;EAID_4F616FD9_5D76_4689_9DE2_9FCE843299231</title>
<path fill="none" stroke="#000000" d="M84,-111.8884C84,-103.7571 84,-94.8266 84,-86.2368"/>
<polygon fill="#000000" stroke="#000000" points="87.5001,-86.0047 84,-76.0048 80.5001,-86.0048 87.5001,-86.0047"/>
</g>
<!-- EAID_41C1BF0E_522A_451c_B625_CF3217C57CC5_STL2 -->
<g id="node12" class="node">
<title>EAID_41C1BF0E_522A_451c_B625_CF3217C57CC5_STL2</title>
<image xlink:href="Stimulus_icon.png" width="30px" height="20px" preserveAspectRatio="xMinYMin meet" x="229" y="-1030"/>
<text text-anchor="start" x="220.6621" y="-987.8" font-family="Times,serif" font-weight="bold" font-size="24.00" fill="#000000">stl#2</text>
</g>
<!-- EAID_41C1BF0E_522A_451c_B625_CF3217C57CC52 -->
<g id="node13" class="node">
<title>EAID_41C1BF0E_522A_451c_B625_CF3217C57CC52</title>
<image xlink:href="activity_icon.png" width="30px" height="20px" preserveAspectRatio="xMinYMin meet" x="229" y="-934"/>
<text text-anchor="start" x="238" y="-891.8" font-family="Times,serif" font-weight="bold" font-size="24.00" fill="#000000">2</text>
</g>
<!-- EAID_41C1BF0E_522A_451c_B625_CF3217C57CC5_STL2&#45;&gt;EAID_41C1BF0E_522A_451c_B625_CF3217C57CC52 -->
<g id="edge11" class="edge">
<title>EAID_41C1BF0E_522A_451c_B625_CF3217C57CC5_STL2&#45;&gt;EAID_41C1BF0E_522A_451c_B625_CF3217C57CC52</title>
<path fill="none" stroke="#000000" d="M244,-975.8884C244,-967.7571 244,-958.8266 244,-950.2368"/>
<polygon fill="#000000" stroke="#000000" points="247.5001,-950.0047 244,-940.0048 240.5001,-950.0048 247.5001,-950.0047"/>
</g>
<!-- EAID_1E55DE17_7609_4ce8_8E77_BA72CDED15F82 -->
<g id="node14" class="node">
<title>EAID_1E55DE17_7609_4ce8_8E77_BA72CDED15F82</title>
<image xlink:href="activity_icon.png" width="30px" height="20px" preserveAspectRatio="xMinYMin meet" x="229" y="-838"/>
<text text-anchor="start" x="238" y="-795.8" font-family="Times,serif" font-weight="bold" font-size="24.00" fill="#000000">3</text>
</g>
<!-- EAID_41C1BF0E_522A_451c_B625_CF3217C57CC52&#45;&gt;EAID_1E55DE17_7609_4ce8_8E77_BA72CDED15F82 -->
<g id="edge12" class="edge">
<title>EAID_41C1BF0E_522A_451c_B625_CF3217C57CC52&#45;&gt;EAID_1E55DE17_7609_4ce8_8E77_BA72CDED15F82</title>
<path fill="none" stroke="#000000" d="M244,-879.8884C244,-871.7571 244,-862.8266 244,-854.2368"/>
<polygon fill="#000000" stroke="#000000" points="247.5001,-854.0047 244,-844.0048 240.5001,-854.0048 247.5001,-854.0047"/>
</g>
<!-- EAID_F9A5EE14_6D6C_48bd_A06C_12604F06BEF92 -->
<g id="node15" class="node">
<title>EAID_F9A5EE14_6D6C_48bd_A06C_12604F06BEF92</title>
<image xlink:href="activity_icon.png" width="30px" height="20px" preserveAspectRatio="xMinYMin meet" x="229" y="-742"/>
<text text-anchor="start" x="238" y="-699.8" font-family="Times,serif" font-weight="bold" font-size="24.00" fill="#000000">4</text>
</g>
<!-- EAID_1E55DE17_7609_4ce8_8E77_BA72CDED15F82&#45;&gt;EAID_F9A5EE14_6D6C_48bd_A06C_12604F06BEF92 -->
<g id="edge13" class="edge">
<title>EAID_1E55DE17_7609_4ce8_8E77_BA72CDED15F82&#45;&gt;EAID_F9A5EE14_6D6C_48bd_A06C_12604F06BEF92</title>
<path fill="none" stroke="#000000" d="M244,-783.8884C244,-775.7571 244,-766.8266 244,-758.2368"/>
<polygon fill="#000000" stroke="#000000" points="247.5001,-758.0047 244,-748.0048 240.5001,-758.0048 247.5001,-758.0047"/>
</g>
<!-- EAID_9DEC5D3E_7E27_4477_9D8B_5B60CE0622772 -->
<g id="node16" class="node">
<title>EAID_9DEC5D3E_7E27_4477_9D8B_5B60CE0622772</title>
<image xlink:href="activity_icon.png" width="30px" height="20px" preserveAspectRatio="xMinYMin meet" x="229" y="-646"/>
<text text-anchor="start" x="238" y="-603.8" font-family="Times,serif" font-weight="bold" font-size="24.00" fill="#000000">5</text>
</g>
<!-- EAID_F9A5EE14_6D6C_48bd_A06C_12604F06BEF92&#45;&gt;EAID_9DEC5D3E_7E27_4477_9D8B_5B60CE0622772 -->
<g id="edge14" class="edge">
<title>EAID_F9A5EE14_6D6C_48bd_A06C_12604F06BEF92&#45;&gt;EAID_9DEC5D3E_7E27_4477_9D8B_5B60CE0622772</title>
<path fill="none" stroke="#000000" d="M244,-687.8884C244,-679.7571 244,-670.8266 244,-662.2368"/>
<polygon fill="#000000" stroke="#000000" points="247.5001,-662.0047 244,-652.0048 240.5001,-662.0048 247.5001,-662.0047"/>
</g>
<!-- EAID_E8C9C0A7_15AD_4875_935F_2399D75030512 -->
<g id="node17" class="node">
<title>EAID_E8C9C0A7_15AD_4875_935F_2399D75030512</title>
<image xlink:href="activity_icon.png" width="30px" height="20px" preserveAspectRatio="xMinYMin meet" x="229" y="-550"/>
<text text-anchor="start" x="238" y="-507.8" font-family="Times,serif" font-weight="bold" font-size="24.00" fill="#000000">6</text>
</g>
<!-- EAID_9DEC5D3E_7E27_4477_9D8B_5B60CE0622772&#45;&gt;EAID_E8C9C0A7_15AD_4875_935F_2399D75030512 -->
<g id="edge15" class="edge">
<title>EAID_9DEC5D3E_7E27_4477_9D8B_5B60CE0622772&#45;&gt;EAID_E8C9C0A7_15AD_4875_935F_2399D75030512</title>
<path fill="none" stroke="#000000" d="M244,-591.8884C244,-583.7571 244,-574.8266 244,-566.2368"/>
<polygon fill="#000000" stroke="#000000" points="247.5001,-566.0047 244,-556.0048 240.5001,-566.0048 247.5001,-566.0047"/>
</g>
<!-- EAID_1F6D3B91_06C5_4a7f_A1A3_1F220E88D1F92 -->
<g id="node18" class="node">
<title>EAID_1F6D3B91_06C5_4a7f_A1A3_1F220E88D1F92</title>
<image xlink:href="activity_icon.png" width="30px" height="20px" preserveAspectRatio="xMinYMin meet" x="229" y="-454"/>
<text text-anchor="start" x="232" y="-411.8" font-family="Times,serif" font-weight="bold" font-size="24.00" fill="#000000">10</text>
</g>
<!-- EAID_E8C9C0A7_15AD_4875_935F_2399D75030512&#45;&gt;EAID_1F6D3B91_06C5_4a7f_A1A3_1F220E88D1F92 -->
<g id="edge16" class="edge">
<title>EAID_E8C9C0A7_15AD_4875_935F_2399D75030512&#45;&gt;EAID_1F6D3B91_06C5_4a7f_A1A3_1F220E88D1F92</title>
<path fill="none" stroke="#000000" d="M244,-495.8884C244,-487.7571 244,-478.8266 244,-470.2368"/>
<polygon fill="#000000" stroke="#000000" points="247.5001,-470.0047 244,-460.0048 240.5001,-470.0048 247.5001,-470.0047"/>
</g>
<!-- EAID_F905E178_A0A5_43a9_82D5_945754E219602 -->
<g id="node19" class="node">
<title>EAID_F905E178_A0A5_43a9_82D5_945754E219602</title>
<image xlink:href="activity_icon.png" width="30px" height="20px" preserveAspectRatio="xMinYMin meet" x="229" y="-358"/>
<text text-anchor="start" x="232.4395" y="-315.8" font-family="Times,serif" font-weight="bold" font-size="24.00" fill="#000000">11</text>
</g>
<!-- EAID_1F6D3B91_06C5_4a7f_A1A3_1F220E88D1F92&#45;&gt;EAID_F905E178_A0A5_43a9_82D5_945754E219602 -->
<g id="edge17" class="edge">
<title>EAID_1F6D3B91_06C5_4a7f_A1A3_1F220E88D1F92&#45;&gt;EAID_F905E178_A0A5_43a9_82D5_945754E219602</title>
<path fill="none" stroke="#000000" d="M244,-399.8884C244,-391.7571 244,-382.8266 244,-374.2368"/>
<polygon fill="#000000" stroke="#000000" points="247.5001,-374.0047 244,-364.0048 240.5001,-374.0048 247.5001,-374.0047"/>
</g>
<!-- EAID_4F616FD9_5D76_4689_9DE2_9FCE843299232 -->
<g id="node20" class="node">
<title>EAID_4F616FD9_5D76_4689_9DE2_9FCE843299232</title>
<image xlink:href="activity_icon.png" width="30px" height="20px" preserveAspectRatio="xMinYMin meet" x="229" y="-262"/>
<text text-anchor="start" x="232" y="-219.8" font-family="Times,serif" font-weight="bold" font-size="24.00" fill="#000000">12</text>
</g>
<!-- EAID_F905E178_A0A5_43a9_82D5_945754E219602&#45;&gt;EAID_4F616FD9_5D76_4689_9DE2_9FCE843299232 -->
<g id="edge18" class="edge">
<title>EAID_F905E178_A0A5_43a9_82D5_945754E219602&#45;&gt;EAID_4F616FD9_5D76_4689_9DE2_9FCE843299232</title>
<path fill="none" stroke="#000000" d="M244,-303.8884C244,-295.7571 244,-286.8266 244,-278.2368"/>
<polygon fill="#000000" stroke="#000000" points="247.5001,-278.0047 244,-268.0048 240.5001,-278.0048 247.5001,-278.0047"/>
</g>
<!-- EAID_23C4EFAF_C20A_467f_AF9E_ABA613186AB1_STL3 -->
<g id="node21" class="node">
<title>EAID_23C4EFAF_C20A_467f_AF9E_ABA613186AB1_STL3</title>
<image xlink:href="Stimulus_icon.png" width="30px" height="20px" preserveAspectRatio="xMinYMin meet" x="407" y="-1030"/>
<text text-anchor="start" x="345.7578" y="-987.8" font-family="Times,serif" font-weight="bold" font-size="24.00" fill="#000000">stl#bookTickets</text>
</g>
<!-- EAID_23C4EFAF_C20A_467f_AF9E_ABA613186AB13 -->
<g id="node22" class="node">
<title>EAID_23C4EFAF_C20A_467f_AF9E_ABA613186AB13</title>
<image xlink:href="activity_icon.png" width="30px" height="20px" preserveAspectRatio="xMinYMin meet" x="407.5" y="-934"/>
<text text-anchor="start" x="363.5957" y="-891.8" font-family="Times,serif" font-weight="bold" font-size="24.00" fill="#000000">bookTickets</text>
</g>
<!-- EAID_23C4EFAF_C20A_467f_AF9E_ABA613186AB1_STL3&#45;&gt;EAID_23C4EFAF_C20A_467f_AF9E_ABA613186AB13 -->
<g id="edge19" class="edge">
<title>EAID_23C4EFAF_C20A_467f_AF9E_ABA613186AB1_STL3&#45;&gt;EAID_23C4EFAF_C20A_467f_AF9E_ABA613186AB13</title>
<path fill="none" stroke="#000000" d="M422,-975.8884C422,-967.7571 422,-958.8266 422,-950.2368"/>
<polygon fill="#000000" stroke="#000000" points="425.5001,-950.0047 422,-940.0048 418.5001,-950.0048 425.5001,-950.0047"/>
</g>
<!-- EAID_7B04D550_0D7D_4b1c_A57A_811B0AD69AF43 -->
<g id="node23" class="node">
<title>EAID_7B04D550_0D7D_4b1c_A57A_811B0AD69AF43</title>
<image xlink:href="activity_icon.png" width="30px" height="20px" preserveAspectRatio="xMinYMin meet" x="407" y="-838"/>
<text text-anchor="start" x="416" y="-795.8" font-family="Times,serif" font-weight="bold" font-size="24.00" fill="#000000">1</text>
</g>
<!-- EAID_23C4EFAF_C20A_467f_AF9E_ABA613186AB13&#45;&gt;EAID_7B04D550_0D7D_4b1c_A57A_811B0AD69AF43 -->
<g id="edge20" class="edge">
<title>EAID_23C4EFAF_C20A_467f_AF9E_ABA613186AB13&#45;&gt;EAID_7B04D550_0D7D_4b1c_A57A_811B0AD69AF43</title>
<path fill="none" stroke="#000000" d="M422,-879.8884C422,-871.7571 422,-862.8266 422,-854.2368"/>
<polygon fill="#000000" stroke="#000000" points="425.5001,-854.0047 422,-844.0048 418.5001,-854.0048 425.5001,-854.0047"/>
</g>
</g>
</svg>
