<?xml version="1.0" encoding="UTF-8" standalone="no"?>
<!DOCTYPE svg PUBLIC "-//W3C//DTD SVG 1.1//EN"
 "http://www.w3.org/Graphics/SVG/1.1/DTD/svg11.dtd">
<!-- Generated by graphviz version 2.38.0 (20140413.2041)
 -->
<!-- Title: g Pages: 1 -->
<svg width="1422pt" height="258pt"
 viewBox="0.00 0.00 1422.00 257.50" xmlns="http://www.w3.org/2000/svg" xmlns:xlink="http://www.w3.org/1999/xlink">
<g id="graph0" class="graph" transform="scale(1 1) rotate(0) translate(4 253.5)">
<title>g</title>
<polygon fill="white" stroke="none" points="-4,4 -4,-253.5 1418,-253.5 1418,4 -4,4"/>
<!-- EAID_312480E8_0771_4266_A24B_49052E9E63AB -->
<g id="node1" class="node"><title>EAID_312480E8_0771_4266_A24B_49052E9E63AB</title>
<image xlink:href="img/actor1.png" width="61px" height="90px" preserveAspectRatio="xMinYMin meet" x="10.5" y="-126"/>
<text text-anchor="start" x="21.5" y="-12.8" font-family="Times New Roman,serif" font-size="24.00">user</text>
</g>
<!-- EAID_C226598B_E3E7_4067_8D47_18CAA8A9DE7D -->
<g id="node2" class="node"><title>EAID_C226598B_E3E7_4067_8D47_18CAA8A9DE7D</title>
<image xlink:href="img/boundary3.png" width="115px" height="67px" preserveAspectRatio="xMinYMin meet" x="237.5" y="-157"/>
<text text-anchor="start" x="127.5" y="-66.8" font-family="Times New Roman,serif" font-size="24.00">&quot;View reservation schedule&quot; button</text>
</g>
<!-- EAID_312480E8_0771_4266_A24B_49052E9E63AB&#45;&gt;EAID_C226598B_E3E7_4067_8D47_18CAA8A9DE7D -->
<g id="edge1" class="edge"><title>EAID_312480E8_0771_4266_A24B_49052E9E63AB&#45;&gt;EAID_C226598B_E3E7_4067_8D47_18CAA8A9DE7D</title>
<path fill="none" stroke="black" d="M81.1522,-72.7661C89.0219,-74.1089 97.7576,-75.5995 107.07,-77.1886"/>
<polygon fill="black" stroke="black" points="106.526,-80.6462 116.972,-78.8781 107.703,-73.7459 106.526,-80.6462"/>
</g>
<!-- EAID_E7C43A35_8A08_4747_951D_C373E27D2843 -->
<g id="node3" class="node"><title>EAID_E7C43A35_8A08_4747_951D_C373E27D2843</title>
<image xlink:href="img/boundary3.png" width="115px" height="67px" preserveAspectRatio="xMinYMin meet" x="1240.5" y="-155"/>
<text text-anchor="start" x="1192" y="-64.8" font-family="Times New Roman,serif" font-size="24.00">scheduled reservations</text>
</g>
<!-- EAID_312480E8_0771_4266_A24B_49052E9E63AB&#45;&gt;EAID_E7C43A35_8A08_4747_951D_C373E27D2843 -->
<g id="edge2" class="edge"><title>EAID_312480E8_0771_4266_A24B_49052E9E63AB&#45;&gt;EAID_E7C43A35_8A08_4747_951D_C373E27D2843</title>
<path fill="none" stroke="black" d="M81.0483,-52.8693C92.5144,-49.6462 105.142,-46.6494 117,-45 289.123,-21.0597 334.221,-43.4444 508,-43 791.555,-42.2748 868.122,13.4573 1146,-43 1154.62,-44.7505 1163.35,-47.0099 1172.05,-49.63"/>
<polygon fill="black" stroke="black" points="1171.26,-53.0504 1181.85,-52.7334 1173.37,-46.3772 1171.26,-53.0504"/>
</g>
<!-- EAID_6BF9371E_4972_4ab2_99C4_961A56AF987B -->
<g id="node4" class="node"><title>EAID_6BF9371E_4972_4ab2_99C4_961A56AF987B</title>
<image xlink:href="img/control1.png" width="106px" height="75px" preserveAspectRatio="xMinYMin meet" x="601" y="-163"/>
<text text-anchor="start" x="518.5" y="-64.8" font-family="Times New Roman,serif" font-size="24.00">query scheduled reservations</text>
</g>
<!-- EAID_C226598B_E3E7_4067_8D47_18CAA8A9DE7D&#45;&gt;EAID_6BF9371E_4972_4ab2_99C4_961A56AF987B -->
<g id="edge3" class="edge"><title>EAID_C226598B_E3E7_4067_8D47_18CAA8A9DE7D&#45;&gt;EAID_6BF9371E_4972_4ab2_99C4_961A56AF987B</title>
<path fill="none" stroke="black" d="M472.17,-109.99C480.654,-110.037 489.144,-110.085 497.563,-110.132"/>
<polygon fill="black" stroke="black" points="497.772,-113.633 507.791,-110.189 497.811,-106.633 497.772,-113.633"/>
</g>
<!-- EAID_BDB0B409_4A09_4a96_8061_EFDE615C29D6 -->
<g id="node5" class="node"><title>EAID_BDB0B409_4A09_4a96_8061_EFDE615C29D6</title>
<image xlink:href="img/control1.png" width="106px" height="75px" preserveAspectRatio="xMinYMin meet" x="938" y="-243"/>
<text text-anchor="start" x="845.5" y="-144.8" font-family="Times New Roman,serif" font-size="24.00">Display scheduled reservations</text>
</g>
<!-- EAID_6BF9371E_4972_4ab2_99C4_961A56AF987B&#45;&gt;EAID_BDB0B409_4A09_4a96_8061_EFDE615C29D6 -->
<g id="edge5" class="edge"><title>EAID_6BF9371E_4972_4ab2_99C4_961A56AF987B&#45;&gt;EAID_BDB0B409_4A09_4a96_8061_EFDE615C29D6</title>
<path fill="none" stroke="black" d="M799.001,-145.508C807.621,-147.566 816.325,-149.645 825.017,-151.72"/>
<polygon fill="black" stroke="black" points="824.282,-155.143 834.821,-154.062 825.908,-148.335 824.282,-155.143"/>
</g>
<!-- EAID_58FE92E5_9ED0_4b9f_BF0E_C6F06F1C296B -->
<g id="node6" class="node"><title>EAID_58FE92E5_9ED0_4b9f_BF0E_C6F06F1C296B</title>
<image xlink:href="img/activity_icon.png" width="30px" height="20px" preserveAspectRatio="xMinYMin meet" x="975.5" y="-108"/>
<text text-anchor="start" x="874.5" y="-65.8" font-family="Times New Roman,serif" font-weight="bold" font-size="24.00">scheduled reservations</text>
</g>
<!-- EAID_6BF9371E_4972_4ab2_99C4_961A56AF987B&#45;&gt;EAID_58FE92E5_9ED0_4b9f_BF0E_C6F06F1C296B -->
<g id="edge6" class="edge"><title>EAID_6BF9371E_4972_4ab2_99C4_961A56AF987B&#45;&gt;EAID_58FE92E5_9ED0_4b9f_BF0E_C6F06F1C296B</title>
<path fill="none" stroke="black" d="M799.001,-98.9223C817.379,-97.3862 836.134,-95.8187 854.357,-94.2955"/>
<polygon fill="black" stroke="black" points="854.747,-97.7752 864.421,-93.4544 854.164,-90.7996 854.747,-97.7752"/>
</g>
<!-- EAID_BDB0B409_4A09_4a96_8061_EFDE615C29D6&#45;&gt;EAID_E7C43A35_8A08_4747_951D_C373E27D2843 -->
<g id="edge4" class="edge"><title>EAID_BDB0B409_4A09_4a96_8061_EFDE615C29D6&#45;&gt;EAID_E7C43A35_8A08_4747_951D_C373E27D2843</title>
<path fill="none" stroke="black" d="M1146.04,-148.508C1154.66,-146.139 1163.26,-143.772 1171.76,-141.437"/>
<polygon fill="black" stroke="black" points="1172.95,-144.739 1181.66,-138.713 1171.09,-137.989 1172.95,-144.739"/>
</g>
</g>
</svg>
