<?xml version="1.0" encoding="UTF-8" standalone="no"?>
<!DOCTYPE svg PUBLIC "-//W3C//DTD SVG 1.1//EN"
 "http://www.w3.org/Graphics/SVG/1.1/DTD/svg11.dtd">
<!-- Generated by graphviz version 2.38.0 (20140413.2041)
 -->
<!-- Title: g Pages: 1 -->
<svg width="541pt" height="548pt"
 viewBox="0.00 0.00 540.94 548.00" xmlns="http://www.w3.org/2000/svg" xmlns:xlink="http://www.w3.org/1999/xlink">
<g id="graph0" class="graph" transform="scale(1 1) rotate(0) translate(4 544)">
<title>g</title>
<polygon fill="white" stroke="none" points="-4,4 -4,-544 536.937,-544 536.937,4 -4,4"/>
<!-- Actor -->
<g id="node1" class="node"><title>Actor</title>
<ellipse fill="none" stroke="black" cx="468.193" cy="-522" rx="31.6951" ry="18"/>
<text text-anchor="middle" x="468.193" y="-518.3" font-family="Times New Roman,serif" font-size="14.00">Actor</text>
</g>
<!-- my photo screen -->
<g id="node2" class="node"><title>my photo screen</title>
<ellipse fill="none" stroke="black" cx="344.193" cy="-450" rx="71.4873" ry="18"/>
<text text-anchor="middle" x="344.193" y="-446.3" font-family="Times New Roman,serif" font-size="14.00">my photo screen</text>
</g>
<!-- Actor&#45;&gt;my photo screen -->
<g id="edge1" class="edge"><title>Actor&#45;&gt;my photo screen</title>
<path fill="none" stroke="black" d="M446.309,-508.647C428.18,-498.412 402.031,-483.651 380.733,-471.628"/>
<polygon fill="black" stroke="black" points="382.369,-468.532 371.94,-466.664 378.927,-474.628 382.369,-468.532"/>
</g>
<!-- upload choice -->
<g id="node3" class="node"><title>upload choice</title>
<ellipse fill="none" stroke="black" cx="471.193" cy="-18" rx="61.99" ry="18"/>
<text text-anchor="middle" x="471.193" y="-14.3" font-family="Times New Roman,serif" font-size="14.00">upload choice</text>
</g>
<!-- Actor&#45;&gt;upload choice -->
<g id="edge2" class="edge"><title>Actor&#45;&gt;upload choice</title>
<path fill="none" stroke="black" d="M475.898,-504.358C487.264,-478.244 507.193,-425.785 507.193,-379 507.193,-379 507.193,-379 507.193,-161 507.193,-119.775 492.76,-73.8258 482.171,-45.6624"/>
<polygon fill="black" stroke="black" points="485.355,-44.1923 478.478,-36.1329 478.828,-46.7219 485.355,-44.1923"/>
</g>
<!-- view photo -->
<g id="node4" class="node"><title>view photo</title>
<ellipse fill="none" stroke="black" cx="428.193" cy="-162" rx="51.1914" ry="18"/>
<text text-anchor="middle" x="428.193" y="-158.3" font-family="Times New Roman,serif" font-size="14.00">view photo</text>
</g>
<!-- Actor&#45;&gt;view photo -->
<g id="edge3" class="edge"><title>Actor&#45;&gt;view photo</title>
<path fill="none" stroke="black" d="M468.193,-503.951C468.193,-477.292 468.193,-424.115 468.193,-379 468.193,-379 468.193,-379 468.193,-305 468.193,-263.484 452.156,-217.612 440.391,-189.545"/>
<polygon fill="black" stroke="black" points="443.468,-187.842 436.287,-180.051 437.042,-190.619 443.468,-187.842"/>
</g>
<!-- prepare resullt -->
<g id="node6" class="node"><title>prepare resullt</title>
<ellipse fill="none" stroke="black" cx="344.193" cy="-378" rx="61.99" ry="18"/>
<text text-anchor="middle" x="344.193" y="-374.3" font-family="Times New Roman,serif" font-size="14.00">prepare resullt</text>
</g>
<!-- my photo screen&#45;&gt;prepare resullt -->
<g id="edge10" class="edge"><title>my photo screen&#45;&gt;prepare resullt</title>
<path fill="none" stroke="black" d="M344.193,-431.697C344.193,-423.983 344.193,-414.712 344.193,-406.112"/>
<polygon fill="black" stroke="black" points="347.693,-406.104 344.193,-396.104 340.693,-406.104 347.693,-406.104"/>
</g>
<!-- view photo&#45;&gt;prepare resullt -->
<g id="edge7" class="edge"><title>view photo&#45;&gt;prepare resullt</title>
<path fill="none" stroke="black" d="M426.481,-180.134C424.304,-198.357 419.753,-227.83 411.193,-252 398.364,-288.221 376.277,-326.735 360.987,-351.284"/>
<polygon fill="black" stroke="black" points="357.878,-349.653 355.494,-359.976 363.795,-353.393 357.878,-349.653"/>
</g>
<!-- Upload -->
<g id="node8" class="node"><title>Upload</title>
<ellipse fill="none" stroke="black" cx="435.193" cy="-90" rx="37.8943" ry="18"/>
<text text-anchor="middle" x="435.193" y="-86.3" font-family="Times New Roman,serif" font-size="14.00">Upload</text>
</g>
<!-- view photo&#45;&gt;Upload -->
<g id="edge6" class="edge"><title>view photo&#45;&gt;Upload</title>
<path fill="none" stroke="black" d="M429.923,-143.697C430.694,-135.983 431.621,-126.712 432.481,-118.112"/>
<polygon fill="black" stroke="black" points="435.97,-118.403 433.482,-108.104 429.004,-117.706 435.97,-118.403"/>
</g>
<!-- can&#39;t access camera -->
<g id="node5" class="node"><title>can&#39;t access camera</title>
<ellipse fill="none" stroke="black" cx="83.1926" cy="-234" rx="83.3857" ry="18"/>
<text text-anchor="middle" x="83.1926" y="-230.3" font-family="Times New Roman,serif" font-size="14.00">can&#39;t access camera</text>
</g>
<!-- can&#39;t access camera&#45;&gt;my photo screen -->
<g id="edge4" class="edge"><title>can&#39;t access camera&#45;&gt;my photo screen</title>
<path fill="none" stroke="black" d="M102.016,-251.621C135.774,-281.277 209.079,-344.986 273.193,-396 286.2,-406.35 300.877,-417.405 313.496,-426.727"/>
<polygon fill="black" stroke="black" points="311.728,-429.771 321.858,-432.874 315.874,-424.131 311.728,-429.771"/>
</g>
<!-- camera -->
<g id="node7" class="node"><title>camera</title>
<ellipse fill="none" stroke="black" cx="293.193" cy="-306" rx="36.2938" ry="18"/>
<text text-anchor="middle" x="293.193" y="-302.3" font-family="Times New Roman,serif" font-size="14.00">camera</text>
</g>
<!-- prepare resullt&#45;&gt;camera -->
<g id="edge5" class="edge"><title>prepare resullt&#45;&gt;camera</title>
<path fill="none" stroke="black" d="M331.847,-360.055C325.618,-351.505 317.946,-340.975 311.083,-331.556"/>
<polygon fill="black" stroke="black" points="313.791,-329.328 305.073,-323.307 308.133,-333.45 313.791,-329.328"/>
</g>
<!-- camera&#45;&gt;can&#39;t access camera -->
<g id="edge9" class="edge"><title>camera&#45;&gt;can&#39;t access camera</title>
<path fill="none" stroke="black" d="M263.55,-295.119C230.545,-284.117 176.543,-266.117 136.218,-252.675"/>
<polygon fill="black" stroke="black" points="137.135,-249.292 126.542,-249.45 134.922,-255.932 137.135,-249.292"/>
</g>
<!-- take the photo successfully -->
<g id="node9" class="node"><title>take the photo successfully</title>
<ellipse fill="none" stroke="black" cx="293.193" cy="-234" rx="109.381" ry="18"/>
<text text-anchor="middle" x="293.193" y="-230.3" font-family="Times New Roman,serif" font-size="14.00">take the photo successfully</text>
</g>
<!-- camera&#45;&gt;take the photo successfully -->
<g id="edge8" class="edge"><title>camera&#45;&gt;take the photo successfully</title>
<path fill="none" stroke="black" d="M293.193,-287.697C293.193,-279.983 293.193,-270.712 293.193,-262.112"/>
<polygon fill="black" stroke="black" points="296.693,-262.104 293.193,-252.104 289.693,-262.104 296.693,-262.104"/>
</g>
<!-- Upload&#45;&gt;upload choice -->
<g id="edge12" class="edge"><title>Upload&#45;&gt;upload choice</title>
<path fill="none" stroke="black" d="M443.724,-72.411C447.922,-64.2493 453.079,-54.2203 457.788,-45.0653"/>
<polygon fill="black" stroke="black" points="461.011,-46.4498 462.472,-35.9562 454.786,-43.2484 461.011,-46.4498"/>
</g>
<!-- take the photo successfully&#45;&gt;view photo -->
<g id="edge11" class="edge"><title>take the photo successfully&#45;&gt;view photo</title>
<path fill="none" stroke="black" d="M324.844,-216.588C344.803,-206.239 370.653,-192.836 391.506,-182.022"/>
<polygon fill="black" stroke="black" points="393.134,-185.121 400.401,-177.411 389.912,-178.907 393.134,-185.121"/>
</g>
</g>
</svg>
