<?xml version="1.0" encoding="UTF-8" standalone="no"?>
<!DOCTYPE svg PUBLIC "-//W3C//DTD SVG 1.1//EN"
 "http://www.w3.org/Graphics/SVG/1.1/DTD/svg11.dtd">
<!-- Generated by graphviz version 2.38.0 (20140413.2041)
 -->
<!-- Title: g Pages: 1 -->
<svg width="1620pt" height="332pt"
 viewBox="0.00 0.00 1620.18 332.00" xmlns="http://www.w3.org/2000/svg" xmlns:xlink="http://www.w3.org/1999/xlink">
<g id="graph0" class="graph" transform="scale(1 1) rotate(0) translate(4 328)">
<title>g</title>
<polygon fill="white" stroke="none" points="-4,4 -4,-328 1616.18,-328 1616.18,4 -4,4"/>
<!-- Display pritner failure message -->
<g id="node1" class="node"><title>Display pritner failure message</title>
<ellipse fill="none" stroke="black" cx="406.888" cy="-90" rx="121.578" ry="18"/>
<text text-anchor="middle" x="406.888" y="-86.3" font-family="Times New Roman,serif" font-size="14.00">Display pritner failure message</text>
</g>
<!-- System message page -->
<g id="node2" class="node"><title>System message page</title>
<ellipse fill="none" stroke="black" cx="406.888" cy="-18" rx="90.1842" ry="18"/>
<text text-anchor="middle" x="406.888" y="-14.3" font-family="Times New Roman,serif" font-size="14.00">System message page</text>
</g>
<!-- Display pritner failure message&#45;&gt;System message page -->
<g id="edge1" class="edge"><title>Display pritner failure message&#45;&gt;System message page</title>
<path fill="none" stroke="black" d="M406.888,-71.6966C406.888,-63.9827 406.888,-54.7125 406.888,-46.1124"/>
<polygon fill="black" stroke="black" points="410.388,-46.1043 406.888,-36.1043 403.388,-46.1044 410.388,-46.1043"/>
</g>
<!-- Retrieve selected transactions -->
<g id="node3" class="node"><title>Retrieve selected transactions</title>
<ellipse fill="none" stroke="black" cx="939.888" cy="-90" rx="118.079" ry="18"/>
<text text-anchor="middle" x="939.888" y="-86.3" font-family="Times New Roman,serif" font-size="14.00">Retrieve selected transactions</text>
</g>
<!-- Transaction DB -->
<g id="node4" class="node"><title>Transaction DB</title>
<ellipse fill="none" stroke="black" cx="1232.89" cy="-18" rx="68.4888" ry="18"/>
<text text-anchor="middle" x="1232.89" y="-14.3" font-family="Times New Roman,serif" font-size="14.00">Transaction DB</text>
</g>
<!-- Retrieve selected transactions&#45;&gt;Transaction DB -->
<g id="edge2" class="edge"><title>Retrieve selected transactions&#45;&gt;Transaction DB</title>
<path fill="none" stroke="black" d="M1000.6,-74.496C1051.51,-62.3321 1123.77,-45.0686 1174.13,-33.0375"/>
<polygon fill="black" stroke="black" points="1174.99,-36.4321 1183.9,-30.7041 1173.36,-29.6237 1174.99,-36.4321"/>
</g>
<!-- Display connection error message -->
<g id="node5" class="node"><title>Display connection error message</title>
<ellipse fill="none" stroke="black" cx="133.888" cy="-90" rx="133.776" ry="18"/>
<text text-anchor="middle" x="133.888" y="-86.3" font-family="Times New Roman,serif" font-size="14.00">Display connection error message</text>
</g>
<!-- Display connection error message&#45;&gt;System message page -->
<g id="edge3" class="edge"><title>Display connection error message&#45;&gt;System message page</title>
<path fill="none" stroke="black" d="M193.125,-73.811C237.685,-62.3853 298.625,-46.7597 344.039,-35.1151"/>
<polygon fill="black" stroke="black" points="344.955,-38.4935 353.773,-32.6193 343.217,-31.7128 344.955,-38.4935"/>
</g>
<!-- Display transactions -->
<g id="node6" class="node"><title>Display transactions</title>
<ellipse fill="none" stroke="black" cx="806.888" cy="-162" rx="83.6854" ry="18"/>
<text text-anchor="middle" x="806.888" y="-158.3" font-family="Times New Roman,serif" font-size="14.00">Display transactions</text>
</g>
<!-- Display transactions&#45;&gt;Display pritner failure message -->
<g id="edge10" class="edge"><title>Display transactions&#45;&gt;Display pritner failure message</title>
<path fill="none" stroke="black" d="M743.948,-149.985C676.043,-138.102 567.523,-119.111 492.031,-105.9"/>
<polygon fill="black" stroke="black" points="492.522,-102.433 482.069,-104.157 491.316,-109.328 492.522,-102.433"/>
</g>
<!-- Display transactions&#45;&gt;Retrieve selected transactions -->
<g id="edge7" class="edge"><title>Display transactions&#45;&gt;Retrieve selected transactions</title>
<path fill="none" stroke="black" d="M837.068,-145.116C855.545,-135.391 879.417,-122.827 899.508,-112.253"/>
<polygon fill="black" stroke="black" points="901.221,-115.306 908.44,-107.552 897.961,-109.112 901.221,-115.306"/>
</g>
<!-- Display transactions&#45;&gt;Display connection error message -->
<g id="edge4" class="edge"><title>Display transactions&#45;&gt;Display connection error message</title>
<path fill="none" stroke="black" d="M731.655,-153.961C628.711,-144.221 438.201,-125.815 275.888,-108 264.126,-106.709 251.823,-105.31 239.586,-103.887"/>
<polygon fill="black" stroke="black" points="239.676,-100.374 229.337,-102.688 238.863,-107.326 239.676,-100.374"/>
</g>
<!-- Retrieve and print -->
<g id="node7" class="node"><title>Retrieve and print</title>
<ellipse fill="none" stroke="black" cx="1151.89" cy="-90" rx="75.2868" ry="18"/>
<text text-anchor="middle" x="1151.89" y="-86.3" font-family="Times New Roman,serif" font-size="14.00">Retrieve and print</text>
</g>
<!-- Display transactions&#45;&gt;Retrieve and print -->
<g id="edge5" class="edge"><title>Display transactions&#45;&gt;Retrieve and print</title>
<path fill="none" stroke="black" d="M865.804,-149.046C927.093,-136.611 1022.82,-117.188 1086.43,-104.281"/>
<polygon fill="black" stroke="black" points="1087.25,-107.686 1096.36,-102.268 1085.86,-100.826 1087.25,-107.686"/>
</g>
<!-- Display no transactions message -->
<g id="node8" class="node"><title>Display no transactions message</title>
<ellipse fill="none" stroke="black" cx="674.888" cy="-90" rx="128.877" ry="18"/>
<text text-anchor="middle" x="674.888" y="-86.3" font-family="Times New Roman,serif" font-size="14.00">Display no transactions message</text>
</g>
<!-- Display transactions&#45;&gt;Display no transactions message -->
<g id="edge6" class="edge"><title>Display transactions&#45;&gt;Display no transactions message</title>
<path fill="none" stroke="black" d="M776.935,-145.116C758.598,-135.391 734.904,-122.827 714.964,-112.253"/>
<polygon fill="black" stroke="black" points="716.574,-109.145 706.1,-107.552 713.295,-115.329 716.574,-109.145"/>
</g>
<!-- Direct to modify -->
<g id="node9" class="node"><title>Direct to modify</title>
<ellipse fill="none" stroke="black" cx="1506.89" cy="-90" rx="70.6878" ry="18"/>
<text text-anchor="middle" x="1506.89" y="-86.3" font-family="Times New Roman,serif" font-size="14.00">Direct to modify</text>
</g>
<!-- Display transactions&#45;&gt;Direct to modify -->
<g id="edge8" class="edge"><title>Display transactions&#45;&gt;Direct to modify</title>
<path fill="none" stroke="black" d="M888.011,-157.282C1006.8,-151.111 1234.81,-136.506 1426.89,-108 1433.16,-107.07 1439.67,-105.947 1446.15,-104.728"/>
<polygon fill="black" stroke="black" points="1447.13,-108.102 1456.28,-102.746 1445.79,-101.233 1447.13,-108.102"/>
</g>
<!-- Retrieve transactions -->
<g id="node10" class="node"><title>Retrieve transactions</title>
<ellipse fill="none" stroke="black" cx="1331.89" cy="-90" rx="86.3847" ry="18"/>
<text text-anchor="middle" x="1331.89" y="-86.3" font-family="Times New Roman,serif" font-size="14.00">Retrieve transactions</text>
</g>
<!-- Display transactions&#45;&gt;Retrieve transactions -->
<g id="edge9" class="edge"><title>Display transactions&#45;&gt;Retrieve transactions</title>
<path fill="none" stroke="black" d="M879.917,-153.156C965.417,-143.7 1111.21,-126.728 1235.89,-108 1243.54,-106.851 1251.52,-105.57 1259.46,-104.242"/>
<polygon fill="black" stroke="black" points="1260.21,-107.665 1269.48,-102.54 1259.04,-100.764 1260.21,-107.665"/>
</g>
<!-- Retrieve and print&#45;&gt;Transaction DB -->
<g id="edge15" class="edge"><title>Retrieve and print&#45;&gt;Transaction DB</title>
<path fill="none" stroke="black" d="M1171.08,-72.411C1181.58,-63.3446 1194.73,-51.9742 1206.21,-42.0572"/>
<polygon fill="black" stroke="black" points="1208.55,-44.6568 1213.83,-35.4699 1203.98,-39.3605 1208.55,-44.6568"/>
</g>
<!-- Display no transactions message&#45;&gt;System message page -->
<g id="edge13" class="edge"><title>Display no transactions message&#45;&gt;System message page</title>
<path fill="none" stroke="black" d="M617.066,-73.8972C573.577,-62.5381 514.057,-46.992 469.457,-35.3425"/>
<polygon fill="black" stroke="black" points="470.166,-31.9105 459.606,-32.7697 468.397,-38.6833 470.166,-31.9105"/>
</g>
<!-- Direct to modify&#45;&gt;Transaction DB -->
<g id="edge12" class="edge"><title>Direct to modify&#45;&gt;Transaction DB</title>
<path fill="none" stroke="black" d="M1458.85,-76.7268C1411.8,-64.7064 1340.08,-46.3851 1290.11,-33.6176"/>
<polygon fill="black" stroke="black" points="1290.97,-30.2259 1280.41,-31.1417 1289.24,-37.0081 1290.97,-30.2259"/>
</g>
<!-- Dispute Redemption Page -->
<g id="node11" class="node"><title>Dispute Redemption Page</title>
<ellipse fill="none" stroke="black" cx="1506.89" cy="-18" rx="105.082" ry="18"/>
<text text-anchor="middle" x="1506.89" y="-14.3" font-family="Times New Roman,serif" font-size="14.00">Dispute Redemption Page</text>
</g>
<!-- Direct to modify&#45;&gt;Dispute Redemption Page -->
<g id="edge11" class="edge"><title>Direct to modify&#45;&gt;Dispute Redemption Page</title>
<path fill="none" stroke="black" d="M1506.89,-71.6966C1506.89,-63.9827 1506.89,-54.7125 1506.89,-46.1124"/>
<polygon fill="black" stroke="black" points="1510.39,-46.1043 1506.89,-36.1043 1503.39,-46.1044 1510.39,-46.1043"/>
</g>
<!-- Retrieve transactions&#45;&gt;Transaction DB -->
<g id="edge14" class="edge"><title>Retrieve transactions&#45;&gt;Transaction DB</title>
<path fill="none" stroke="black" d="M1308.68,-72.5881C1295.3,-63.1297 1278.31,-51.1198 1263.82,-40.868"/>
<polygon fill="black" stroke="black" points="1265.8,-37.9832 1255.61,-35.0676 1261.76,-43.6988 1265.8,-37.9832"/>
</g>
<!-- Administrator -->
<g id="node12" class="node"><title>Administrator</title>
<ellipse fill="none" stroke="black" cx="604.888" cy="-306" rx="60.3893" ry="18"/>
<text text-anchor="middle" x="604.888" y="-302.3" font-family="Times New Roman,serif" font-size="14.00">Administrator</text>
</g>
<!-- Transaction Log Page -->
<g id="node13" class="node"><title>Transaction Log Page</title>
<ellipse fill="none" stroke="black" cx="604.888" cy="-234" rx="90.9839" ry="18"/>
<text text-anchor="middle" x="604.888" y="-230.3" font-family="Times New Roman,serif" font-size="14.00">Transaction Log Page</text>
</g>
<!-- Administrator&#45;&gt;Transaction Log Page -->
<g id="edge16" class="edge"><title>Administrator&#45;&gt;Transaction Log Page</title>
<path fill="none" stroke="black" d="M604.888,-287.697C604.888,-279.983 604.888,-270.712 604.888,-262.112"/>
<polygon fill="black" stroke="black" points="608.388,-262.104 604.888,-252.104 601.388,-262.104 608.388,-262.104"/>
</g>
<!-- Transaction Log Page&#45;&gt;Display connection error message -->
<g id="edge17" class="edge"><title>Transaction Log Page&#45;&gt;Display connection error message</title>
<path fill="none" stroke="black" d="M557.134,-218.603C471.188,-192.691 290.57,-138.238 195.463,-109.564"/>
<polygon fill="black" stroke="black" points="196.279,-106.154 185.694,-106.619 194.259,-112.857 196.279,-106.154"/>
</g>
<!-- Transaction Log Page&#45;&gt;Display transactions -->
<g id="edge18" class="edge"><title>Transaction Log Page&#45;&gt;Display transactions</title>
<path fill="none" stroke="black" d="M648.222,-217.983C679.559,-207.124 722.034,-192.405 755.15,-180.929"/>
<polygon fill="black" stroke="black" points="756.362,-184.213 764.664,-177.632 754.07,-177.599 756.362,-184.213"/>
</g>
</g>
</svg>
