<?xml version="1.0" encoding="UTF-8" standalone="no"?>
<!DOCTYPE svg PUBLIC "-//W3C//DTD SVG 1.1//EN"
 "http://www.w3.org/Graphics/SVG/1.1/DTD/svg11.dtd">
<!-- Generated by graphviz version 2.38.0 (20140413.2041)
 -->
<!-- Title: g Pages: 1 -->
<svg width="1092pt" height="325pt"
 viewBox="0.00 0.00 1092.00 325.00" xmlns="http://www.w3.org/2000/svg" xmlns:xlink="http://www.w3.org/1999/xlink">
<g id="graph0" class="graph" transform="scale(1 1) rotate(0) translate(4 321)">
<title>g</title>
<polygon fill="white" stroke="none" points="-4,4 -4,-321 1088,-321 1088,4 -4,4"/>
<!-- EAID_938AAA18_62E7_4139_BA71_4678CBD159EE -->
<g id="node1" class="node"><title>EAID_938AAA18_62E7_4139_BA71_4678CBD159EE</title>
<image xlink:href="img/actor1.png" width="61px" height="90px" preserveAspectRatio="xMinYMin meet" x="10.5" y="-218.5"/>
<text text-anchor="start" x="19" y="-105.3" font-family="Times New Roman,serif" font-size="24.00">User</text>
</g>
<!-- EAID_B9F476F1_9507_4312_801B_A468F9B692D2 -->
<g id="node2" class="node"><title>EAID_B9F476F1_9507_4312_801B_A468F9B692D2</title>
<image xlink:href="img/boundary3.png" width="106px" height="67px" preserveAspectRatio="xMinYMin meet" x="127" y="-206.5"/>
<text text-anchor="start" x="127" y="-116.3" font-family="Times New Roman,serif" font-size="24.00">Login page</text>
</g>
<!-- EAID_938AAA18_62E7_4139_BA71_4678CBD159EE&#45;&gt;EAID_B9F476F1_9507_4312_801B_A468F9B692D2 -->
<g id="edge1" class="edge"><title>EAID_938AAA18_62E7_4139_BA71_4678CBD159EE&#45;&gt;EAID_B9F476F1_9507_4312_801B_A468F9B692D2</title>
<path fill="none" stroke="black" d="M81.2707,-158.5C89.2517,-158.5 97.8705,-158.5 106.568,-158.5"/>
<polygon fill="black" stroke="black" points="106.781,-162 116.781,-158.5 106.781,-155 106.781,-162"/>
</g>
<!-- EAID_8B407C3F_1CE3_45b6_8CDF_6EAE8668D409 -->
<g id="node3" class="node"><title>EAID_8B407C3F_1CE3_45b6_8CDF_6EAE8668D409</title>
<image xlink:href="img/boundary3.png" width="96px" height="67px" preserveAspectRatio="xMinYMin meet" x="878" y="-310.5"/>
<text text-anchor="start" x="878" y="-220.3" font-family="Times New Roman,serif" font-size="24.00">homepage</text>
</g>
<!-- EAID_938AAA18_62E7_4139_BA71_4678CBD159EE&#45;&gt;EAID_8B407C3F_1CE3_45b6_8CDF_6EAE8668D409 -->
<g id="edge2" class="edge"><title>EAID_938AAA18_62E7_4139_BA71_4678CBD159EE&#45;&gt;EAID_8B407C3F_1CE3_45b6_8CDF_6EAE8668D409</title>
<path fill="none" stroke="black" d="M81.0554,-199.505C91.8363,-208.303 104.123,-216.46 117,-221.5 374.921,-322.442 714.907,-292.204 857.502,-272.984"/>
<polygon fill="black" stroke="black" points="858.402,-276.394 867.832,-271.564 857.449,-269.459 858.402,-276.394"/>
</g>
<!-- EAID_494E65F5_1680_4296_B512_AF3207544851 -->
<g id="node4" class="node"><title>EAID_494E65F5_1680_4296_B512_AF3207544851</title>
<image xlink:href="img/boundary3.png" width="115px" height="67px" preserveAspectRatio="xMinYMin meet" x="868.5" y="-102.5"/>
<text text-anchor="start" x="778" y="-12.3" font-family="Times New Roman,serif" font-size="24.00">username or password is wrong</text>
</g>
<!-- EAID_938AAA18_62E7_4139_BA71_4678CBD159EE&#45;&gt;EAID_494E65F5_1680_4296_B512_AF3207544851 -->
<g id="edge3" class="edge"><title>EAID_938AAA18_62E7_4139_BA71_4678CBD159EE&#45;&gt;EAID_494E65F5_1680_4296_B512_AF3207544851</title>
<path fill="none" stroke="black" d="M81.3606,-116.507C92.0479,-107.696 104.215,-99.5517 117,-94.5 325.972,-11.9279 589.312,-16.9378 757.456,-32.3119"/>
<polygon fill="black" stroke="black" points="757.358,-35.818 767.641,-33.2665 758.011,-28.8485 757.358,-35.818"/>
</g>
<!-- EAID_4E72EB10_B8B6_47b5_AD2E_7F8C003EA5F0 -->
<g id="node5" class="node"><title>EAID_4E72EB10_B8B6_47b5_AD2E_7F8C003EA5F0</title>
<image xlink:href="img/control1.png" width="106px" height="75px" preserveAspectRatio="xMinYMin meet" x="453" y="-210.5"/>
<text text-anchor="start" x="289.5" y="-112.3" font-family="Times New Roman,serif" font-size="24.00">retrieve information associated with username</text>
</g>
<!-- EAID_B9F476F1_9507_4312_801B_A468F9B692D2&#45;&gt;EAID_4E72EB10_B8B6_47b5_AD2E_7F8C003EA5F0 -->
<g id="edge4" class="edge"><title>EAID_B9F476F1_9507_4312_801B_A468F9B692D2&#45;&gt;EAID_4E72EB10_B8B6_47b5_AD2E_7F8C003EA5F0</title>
<path fill="none" stroke="black" d="M243.374,-158.5C251.311,-158.5 259.77,-158.5 268.605,-158.5"/>
<polygon fill="black" stroke="black" points="268.733,-162 278.733,-158.5 268.733,-155 268.733,-162"/>
</g>
<!-- EAID_4E72EB10_B8B6_47b5_AD2E_7F8C003EA5F0&#45;&gt;EAID_8B407C3F_1CE3_45b6_8CDF_6EAE8668D409 -->
<g id="edge5" class="edge"><title>EAID_4E72EB10_B8B6_47b5_AD2E_7F8C003EA5F0&#45;&gt;EAID_8B407C3F_1CE3_45b6_8CDF_6EAE8668D409</title>
<path fill="none" stroke="black" d="M732.287,-214.609C778.141,-226.005 822.93,-237.135 857.772,-245.793"/>
<polygon fill="black" stroke="black" points="857.241,-249.268 867.79,-248.283 858.93,-242.475 857.241,-249.268"/>
</g>
<!-- EAID_4E72EB10_B8B6_47b5_AD2E_7F8C003EA5F0&#45;&gt;EAID_494E65F5_1680_4296_B512_AF3207544851 -->
<g id="edge6" class="edge"><title>EAID_4E72EB10_B8B6_47b5_AD2E_7F8C003EA5F0&#45;&gt;EAID_494E65F5_1680_4296_B512_AF3207544851</title>
<path fill="none" stroke="black" d="M732.287,-102.391C740.889,-100.253 749.453,-98.1246 757.921,-96.0201"/>
<polygon fill="black" stroke="black" points="758.954,-99.37 767.815,-93.5616 757.266,-92.5767 758.954,-99.37"/>
</g>
<!-- EAID_0BDB1475_1A00_4889_82B5_FD297BBD48E5 -->
<g id="node6" class="node"><title>EAID_0BDB1475_1A00_4889_82B5_FD297BBD48E5</title>
<image xlink:href="img/activity_icon.png" width="30px" height="20px" preserveAspectRatio="xMinYMin meet" x="911.5" y="-183.5"/>
<text text-anchor="start" x="860" y="-141.3" font-family="Times New Roman,serif" font-weight="bold" font-size="24.00">username db</text>
</g>
<!-- EAID_4E72EB10_B8B6_47b5_AD2E_7F8C003EA5F0&#45;&gt;EAID_0BDB1475_1A00_4889_82B5_FD297BBD48E5 -->
<g id="edge7" class="edge"><title>EAID_4E72EB10_B8B6_47b5_AD2E_7F8C003EA5F0&#45;&gt;EAID_0BDB1475_1A00_4889_82B5_FD297BBD48E5</title>
<path fill="none" stroke="black" d="M732.287,-158.5C770.432,-158.5 807.84,-158.5 839.398,-158.5"/>
<polygon fill="black" stroke="black" points="839.432,-162 849.432,-158.5 839.431,-155 839.432,-162"/>
</g>
</g>
</svg>
