<?xml version="1.0" encoding="UTF-8" standalone="no"?>
<!DOCTYPE svg PUBLIC "-//W3C//DTD SVG 1.1//EN"
 "http://www.w3.org/Graphics/SVG/1.1/DTD/svg11.dtd">
<!-- Generated by graphviz version 2.38.0 (20140413.2041)
 -->
<!-- Title: g Pages: 1 -->
<svg width="4677pt" height="761pt"
 viewBox="0.00 0.00 4677.00 761.00" xmlns="http://www.w3.org/2000/svg" xmlns:xlink="http://www.w3.org/1999/xlink">
<g id="graph0" class="graph" transform="scale(1 1) rotate(0) translate(4 757)">
<title>g</title>
<polygon fill="white" stroke="none" points="-4,4 -4,-757 4673,-757 4673,4 -4,4"/>
<g id="clust1" class="cluster"><title>cluster0</title>
<polygon fill="none" stroke="black" stroke-width="2" points="3526,-317 3526,-634 4208,-634 4208,-317 3526,-317"/>
<text text-anchor="start" x="3845" y="-619.8" font-family="Times New Roman,serif" font-weight="bold" font-size="14.00">System</text>
</g>
<g id="clust2" class="cluster"><title>cluster1</title>
<polygon fill="none" stroke="black" stroke-width="2" points="3695,-642 3695,-745 4241,-745 4241,-642 3695,-642"/>
<text text-anchor="start" x="3953.5" y="-730.8" font-family="Times New Roman,serif" font-weight="bold" font-size="14.00">User</text>
</g>
<g id="clust3" class="cluster"><title>cluster1000</title>
<polygon fill="none" stroke="black" stroke-width="2" points="8,-8 8,-309 4661,-309 4661,-8 8,-8"/>
<text text-anchor="start" x="2289" y="-294.8" font-family="Times New Roman,serif" font-weight="bold" font-size="14.00">Domain Model</text>
</g>
<!-- EAID_938AAA18_62E7_4139_BA71_4678CBD159EE___EAID_B9F476F1_9507_4312_801B_A468F9B692D2 -->
<g id="node1" class="node"><title>EAID_938AAA18_62E7_4139_BA71_4678CBD159EE___EAID_B9F476F1_9507_4312_801B_A468F9B692D2</title>
<image xlink:href="img/activity_icon.png" width="30px" height="20px" preserveAspectRatio="xMinYMin meet" x="3991.5" y="-590"/>
<text text-anchor="start" x="3956" y="-555.8" font-family="Times New Roman,serif" font-weight="bold" font-size="14.00">User:Login page</text>
</g>
<!-- EAID_B9F476F1_9507_4312_801B_A468F9B692D2___EAID_4E72EB10_B8B6_47b5_AD2E_7F8C003EA5F0 -->
<g id="node4" class="node"><title>EAID_B9F476F1_9507_4312_801B_A468F9B692D2___EAID_4E72EB10_B8B6_47b5_AD2E_7F8C003EA5F0</title>
<image xlink:href="img/activity_icon.png" width="30px" height="20px" preserveAspectRatio="xMinYMin meet" x="3991.5" y="-497"/>
<text text-anchor="start" x="3909" y="-462.8" font-family="Times New Roman,serif" font-weight="bold" font-size="14.00">Login page:retrieve information</text>
<text text-anchor="start" x="3928" y="-448.8" font-family="Times New Roman,serif" font-weight="bold" font-size="14.00">associated with username</text>
</g>
<!-- EAID_938AAA18_62E7_4139_BA71_4678CBD159EE___EAID_B9F476F1_9507_4312_801B_A468F9B692D2&#45;&gt;EAID_B9F476F1_9507_4312_801B_A468F9B692D2___EAID_4E72EB10_B8B6_47b5_AD2E_7F8C003EA5F0 -->
<g id="edge1" class="edge"><title>EAID_938AAA18_62E7_4139_BA71_4678CBD159EE___EAID_B9F476F1_9507_4312_801B_A468F9B692D2&#45;&gt;EAID_B9F476F1_9507_4312_801B_A468F9B692D2___EAID_4E72EB10_B8B6_47b5_AD2E_7F8C003EA5F0</title>
<path fill="none" stroke="black" d="M4006,-545.27C4006,-535.559 4006,-524.147 4006,-513.257"/>
<polygon fill="black" stroke="black" points="4009.5,-513.05 4006,-503.05 4002.5,-513.05 4009.5,-513.05"/>
</g>
<!-- EAID_F8C8C868_ACBC_4ebc_A2E4_78D8C2933C10 -->
<g id="node11" class="node"><title>EAID_F8C8C868_ACBC_4ebc_A2E4_78D8C2933C10</title>
<polygon fill="none" stroke="black" points="4441,-189 4441,-210 4644,-210 4644,-189 4441,-189"/>
<text text-anchor="start" x="4448.5" y="-196.8" font-family="Times New Roman,serif" font-weight="bold" font-size="14.00">ChoosingDegreeProgramPage</text>
<polygon fill="none" stroke="black" points="4441,-168 4441,-189 4644,-189 4644,-168 4441,-168"/>
<text text-anchor="start" x="4444" y="-175.8" font-family="Times New Roman,serif" font-weight="bold" font-size="14.00">ChoosingDegreeProgramPage()</text>
<polygon fill="none" stroke="black" points="4441,-147 4441,-168 4644,-168 4644,-147 4441,-147"/>
<text text-anchor="start" x="4505.5" y="-154.8" font-family="Times New Roman,serif" font-weight="bold" font-size="14.00">Loginpage()</text>
<polygon fill="none" stroke="black" points="4441,-126 4441,-147 4644,-147 4644,-126 4441,-126"/>
<text text-anchor="start" x="4506.5" y="-133.8" font-family="Times New Roman,serif" font-weight="bold" font-size="14.00">homepage()</text>
<polygon fill="none" stroke="black" points="4441,-105 4441,-126 4644,-126 4644,-105 4441,-105"/>
<text text-anchor="start" x="4506" y="-112.8" font-family="Times New Roman,serif" font-weight="bold" font-size="14.00">initialpage()</text>
<polygon fill="none" stroke="black" points="4441,-84 4441,-105 4644,-105 4644,-84 4441,-84"/>
<text text-anchor="start" x="4452" y="-91.8" font-family="Times New Roman,serif" font-weight="bold" font-size="14.00">choosedegreeandyearbutton()</text>
<polygon fill="none" stroke="black" points="4439.5,-83 4439.5,-211 4644.5,-211 4644.5,-83 4439.5,-83"/>
</g>
<!-- EAID_938AAA18_62E7_4139_BA71_4678CBD159EE___EAID_B9F476F1_9507_4312_801B_A468F9B692D2&#45;&gt;EAID_F8C8C868_ACBC_4ebc_A2E4_78D8C2933C10 -->
<g id="edge8" class="edge"><title>EAID_938AAA18_62E7_4139_BA71_4678CBD159EE___EAID_B9F476F1_9507_4312_801B_A468F9B692D2&#45;&gt;EAID_F8C8C868_ACBC_4ebc_A2E4_78D8C2933C10</title>
<path fill="none" stroke="black" stroke-dasharray="5,2" d="M4060.04,-545.41C4065.4,-543.168 4070.79,-540.994 4076,-539 4124.44,-520.475 4141.51,-527.902 4187,-503 4306.1,-437.806 4329.49,-407.452 4423,-309 4447.84,-282.851 4472.09,-251.45 4492.15,-223.351"/>
<polygon fill="black" stroke="black" points="4495.04,-225.319 4497.96,-215.135 4489.33,-221.276 4495.04,-225.319"/>
</g>
<!-- EAID_938AAA18_62E7_4139_BA71_4678CBD159EE___EAID_8B407C3F_1CE3_45b6_8CDF_6EAE8668D409 -->
<g id="node2" class="node"><title>EAID_938AAA18_62E7_4139_BA71_4678CBD159EE___EAID_8B407C3F_1CE3_45b6_8CDF_6EAE8668D409</title>
<image xlink:href="img/activity_icon.png" width="30px" height="20px" preserveAspectRatio="xMinYMin meet" x="4127.5" y="-590"/>
<text text-anchor="start" x="4095" y="-555.8" font-family="Times New Roman,serif" font-weight="bold" font-size="14.00">User:homepage</text>
</g>
<!-- EAID_938AAA18_62E7_4139_BA71_4678CBD159EE___EAID_8B407C3F_1CE3_45b6_8CDF_6EAE8668D409&#45;&gt;EAID_F8C8C868_ACBC_4ebc_A2E4_78D8C2933C10 -->
<g id="edge9" class="edge"><title>EAID_938AAA18_62E7_4139_BA71_4678CBD159EE___EAID_8B407C3F_1CE3_45b6_8CDF_6EAE8668D409&#45;&gt;EAID_F8C8C868_ACBC_4ebc_A2E4_78D8C2933C10</title>
<path fill="none" stroke="black" stroke-dasharray="5,2" d="M4199.58,-565.754C4249.26,-559.348 4320.33,-543.283 4368,-503 4453.72,-430.562 4500.92,-305.839 4523.84,-225.169"/>
<polygon fill="black" stroke="black" points="4527.34,-225.64 4526.65,-215.068 4520.6,-223.765 4527.34,-225.64"/>
</g>
<!-- EAID_938AAA18_62E7_4139_BA71_4678CBD159EE___EAID_494E65F5_1680_4296_B512_AF3207544851 -->
<g id="node3" class="node"><title>EAID_938AAA18_62E7_4139_BA71_4678CBD159EE___EAID_494E65F5_1680_4296_B512_AF3207544851</title>
<image xlink:href="img/activity_icon.png" width="30px" height="20px" preserveAspectRatio="xMinYMin meet" x="3805" y="-597"/>
<text text-anchor="start" x="3734" y="-562.8" font-family="Times New Roman,serif" font-weight="bold" font-size="14.00">User:username or password</text>
<text text-anchor="start" x="3793.5" y="-548.8" font-family="Times New Roman,serif" font-weight="bold" font-size="14.00">is wrong</text>
</g>
<!-- EAID_427F3594_31F9_4d06_A72A_EC1BA46B4F65 -->
<g id="node13" class="node"><title>EAID_427F3594_31F9_4d06_A72A_EC1BA46B4F65</title>
<polygon fill="none" stroke="black" points="3769,-199 3769,-220 3965,-220 3965,-199 3769,-199"/>
<text text-anchor="start" x="3812.5" y="-206.8" font-family="Times New Roman,serif" font-weight="bold" font-size="14.00">CourseController</text>
<polygon fill="none" stroke="black" points="3769,-178 3769,-199 3965,-199 3965,-178 3769,-178"/>
<text text-anchor="start" x="3829" y="-185.8" font-family="Times New Roman,serif" font-weight="bold" font-size="14.00">addCourse()</text>
<polygon fill="none" stroke="black" points="3769,-157 3769,-178 3965,-178 3965,-157 3769,-157"/>
<text text-anchor="start" x="3822" y="-164.8" font-family="Times New Roman,serif" font-weight="bold" font-size="14.00">deleteCourse()</text>
<polygon fill="none" stroke="black" points="3769,-136 3769,-157 3965,-157 3965,-136 3769,-136"/>
<text text-anchor="start" x="3819.5" y="-143.8" font-family="Times New Roman,serif" font-weight="bold" font-size="14.00">updateCourse()</text>
<polygon fill="none" stroke="black" points="3769,-115 3769,-136 3965,-136 3965,-115 3769,-115"/>
<text text-anchor="start" x="3824.5" y="-122.8" font-family="Times New Roman,serif" font-weight="bold" font-size="14.00">showCourse()</text>
<polygon fill="none" stroke="black" points="3769,-94 3769,-115 3965,-115 3965,-94 3769,-94"/>
<text text-anchor="start" x="3772" y="-101.8" font-family="Times New Roman,serif" font-weight="bold" font-size="14.00">usernameorpasswordiswrong()</text>
<polygon fill="none" stroke="black" points="3769,-73 3769,-94 3965,-94 3965,-73 3769,-73"/>
<text text-anchor="start" x="3808.5" y="-80.8" font-family="Times New Roman,serif" font-weight="bold" font-size="14.00">udpateuserprofile()</text>
<polygon fill="none" stroke="black" points="3768,-72.5 3768,-221.5 3966,-221.5 3966,-72.5 3768,-72.5"/>
</g>
<!-- EAID_938AAA18_62E7_4139_BA71_4678CBD159EE___EAID_494E65F5_1680_4296_B512_AF3207544851&#45;&gt;EAID_427F3594_31F9_4d06_A72A_EC1BA46B4F65 -->
<g id="edge10" class="edge"><title>EAID_938AAA18_62E7_4139_BA71_4678CBD159EE___EAID_494E65F5_1680_4296_B512_AF3207544851&#45;&gt;EAID_427F3594_31F9_4d06_A72A_EC1BA46B4F65</title>
<path fill="none" stroke="black" stroke-dasharray="5,2" d="M3916.28,-543.936C3923.28,-542.212 3930.24,-540.548 3937,-539 4077.73,-506.776 4173.89,-535.164 4232,-403 4247.38,-368.01 4258.59,-344.459 4232,-317 4222.41,-307.097 3996.18,-315.455 3984,-309 3952.74,-292.434 3927.77,-263.363 3909.06,-234.441"/>
<polygon fill="black" stroke="black" points="3911.97,-232.507 3903.7,-225.893 3906.04,-236.225 3911.97,-232.507"/>
</g>
<!-- EAID_4E72EB10_B8B6_47b5_AD2E_7F8C003EA5F0___EAID_8B407C3F_1CE3_45b6_8CDF_6EAE8668D409 -->
<g id="node5" class="node"><title>EAID_4E72EB10_B8B6_47b5_AD2E_7F8C003EA5F0___EAID_8B407C3F_1CE3_45b6_8CDF_6EAE8668D409</title>
<image xlink:href="img/activity_icon.png" width="30px" height="20px" preserveAspectRatio="xMinYMin meet" x="4080" y="-390"/>
<text text-anchor="start" x="4000" y="-355.8" font-family="Times New Roman,serif" font-weight="bold" font-size="14.00">retrieve information associated</text>
<text text-anchor="start" x="4017" y="-341.8" font-family="Times New Roman,serif" font-weight="bold" font-size="14.00">with username:homepage</text>
</g>
<!-- EAID_B9F476F1_9507_4312_801B_A468F9B692D2___EAID_4E72EB10_B8B6_47b5_AD2E_7F8C003EA5F0&#45;&gt;EAID_4E72EB10_B8B6_47b5_AD2E_7F8C003EA5F0___EAID_8B407C3F_1CE3_45b6_8CDF_6EAE8668D409 -->
<g id="edge5" class="edge"><title>EAID_B9F476F1_9507_4312_801B_A468F9B692D2___EAID_4E72EB10_B8B6_47b5_AD2E_7F8C003EA5F0&#45;&gt;EAID_4E72EB10_B8B6_47b5_AD2E_7F8C003EA5F0___EAID_8B407C3F_1CE3_45b6_8CDF_6EAE8668D409</title>
<path fill="none" stroke="black" d="M4032.46,-438.781C4041.7,-427.877 4052.2,-415.499 4061.91,-404.038"/>
<polygon fill="black" stroke="black" points="4064.69,-406.172 4068.49,-396.28 4059.35,-401.645 4064.69,-406.172"/>
</g>
<!-- EAID_4E72EB10_B8B6_47b5_AD2E_7F8C003EA5F0___EAID_494E65F5_1680_4296_B512_AF3207544851 -->
<g id="node6" class="node"><title>EAID_4E72EB10_B8B6_47b5_AD2E_7F8C003EA5F0___EAID_494E65F5_1680_4296_B512_AF3207544851</title>
<image xlink:href="img/activity_icon.png" width="30px" height="20px" preserveAspectRatio="xMinYMin meet" x="3852" y="-397"/>
<text text-anchor="start" x="3772" y="-362.8" font-family="Times New Roman,serif" font-weight="bold" font-size="14.00">retrieve information associated</text>
<text text-anchor="start" x="3782" y="-348.8" font-family="Times New Roman,serif" font-weight="bold" font-size="14.00">with username:username or</text>
<text text-anchor="start" x="3809.5" y="-334.8" font-family="Times New Roman,serif" font-weight="bold" font-size="14.00">password is wrong</text>
</g>
<!-- EAID_B9F476F1_9507_4312_801B_A468F9B692D2___EAID_4E72EB10_B8B6_47b5_AD2E_7F8C003EA5F0&#45;&gt;EAID_4E72EB10_B8B6_47b5_AD2E_7F8C003EA5F0___EAID_494E65F5_1680_4296_B512_AF3207544851 -->
<g id="edge6" class="edge"><title>EAID_B9F476F1_9507_4312_801B_A468F9B692D2___EAID_4E72EB10_B8B6_47b5_AD2E_7F8C003EA5F0&#45;&gt;EAID_4E72EB10_B8B6_47b5_AD2E_7F8C003EA5F0___EAID_494E65F5_1680_4296_B512_AF3207544851</title>
<path fill="none" stroke="black" d="M3964.67,-438.781C3952.41,-429.519 3938.74,-419.195 3925.61,-409.272"/>
<polygon fill="black" stroke="black" points="3927.6,-406.393 3917.51,-403.159 3923.38,-411.979 3927.6,-406.393"/>
</g>
<!-- EAID_4E72EB10_B8B6_47b5_AD2E_7F8C003EA5F0___EAID_0BDB1475_1A00_4889_82B5_FD297BBD48E5 -->
<g id="node7" class="node"><title>EAID_4E72EB10_B8B6_47b5_AD2E_7F8C003EA5F0___EAID_0BDB1475_1A00_4889_82B5_FD297BBD48E5</title>
<image xlink:href="img/activity_icon.png" width="30px" height="20px" preserveAspectRatio="xMinYMin meet" x="3624" y="-390"/>
<text text-anchor="start" x="3544" y="-355.8" font-family="Times New Roman,serif" font-weight="bold" font-size="14.00">retrieve information associated</text>
<text text-anchor="start" x="3553" y="-341.8" font-family="Times New Roman,serif" font-weight="bold" font-size="14.00">with username:username db</text>
</g>
<!-- EAID_B9F476F1_9507_4312_801B_A468F9B692D2___EAID_4E72EB10_B8B6_47b5_AD2E_7F8C003EA5F0&#45;&gt;EAID_4E72EB10_B8B6_47b5_AD2E_7F8C003EA5F0___EAID_0BDB1475_1A00_4889_82B5_FD297BBD48E5 -->
<g id="edge7" class="edge"><title>EAID_B9F476F1_9507_4312_801B_A468F9B692D2___EAID_4E72EB10_B8B6_47b5_AD2E_7F8C003EA5F0&#45;&gt;EAID_4E72EB10_B8B6_47b5_AD2E_7F8C003EA5F0___EAID_0BDB1475_1A00_4889_82B5_FD297BBD48E5</title>
<path fill="none" stroke="black" d="M3898.48,-443.12C3853.36,-431.428 3800.45,-417.177 3753,-403 3748.9,-401.774 3744.72,-400.5 3740.5,-399.194"/>
<polygon fill="black" stroke="black" points="3741.21,-395.747 3730.62,-396.095 3739.11,-402.426 3741.21,-395.747"/>
</g>
<!-- EAID_BA2B604F_E361_4a30_9447_3A1E312BA040 -->
<g id="node20" class="node"><title>EAID_BA2B604F_E361_4a30_9447_3A1E312BA040</title>
<polygon fill="none" stroke="black" points="1668,-210 1668,-231 1951,-231 1951,-210 1668,-210"/>
<text text-anchor="start" x="1736" y="-217.8" font-family="Times New Roman,serif" font-weight="bold" font-size="14.00">SemesterSelectionPlage</text>
<polygon fill="none" stroke="black" points="1668,-189 1668,-210 1951,-210 1951,-189 1668,-189"/>
<text text-anchor="start" x="1731.5" y="-196.8" font-family="Times New Roman,serif" font-weight="bold" font-size="14.00">SemesterSelectionPlage()</text>
<polygon fill="none" stroke="black" points="1668,-168 1668,-189 1951,-189 1951,-168 1668,-168"/>
<text text-anchor="start" x="1767" y="-175.8" font-family="Times New Roman,serif" font-weight="bold" font-size="14.00">deletebutton()</text>
<polygon fill="none" stroke="black" points="1668,-147 1668,-168 1951,-168 1951,-147 1668,-147"/>
<text text-anchor="start" x="1671" y="-154.8" font-family="Times New Roman,serif" font-weight="bold" font-size="14.00">retrieveinformationassociatedwithusername()</text>
<polygon fill="none" stroke="black" points="1668,-126 1668,-147 1951,-147 1951,-126 1668,-126"/>
<text text-anchor="start" x="1767.5" y="-133.8" font-family="Times New Roman,serif" font-weight="bold" font-size="14.00">usernamedb()</text>
<polygon fill="none" stroke="black" points="1668,-105 1668,-126 1951,-126 1951,-105 1668,-105"/>
<text text-anchor="start" x="1735.5" y="-112.8" font-family="Times New Roman,serif" font-weight="bold" font-size="14.00">updatesuccessmessage()</text>
<polygon fill="none" stroke="black" points="1668,-84 1668,-105 1951,-105 1951,-84 1668,-84"/>
<text text-anchor="start" x="1733" y="-91.8" font-family="Times New Roman,serif" font-weight="bold" font-size="14.00">notappropriatemessage()</text>
<polygon fill="none" stroke="black" points="1668,-63 1668,-84 1951,-84 1951,-63 1668,-63"/>
<text text-anchor="start" x="1694.5" y="-70.8" font-family="Times New Roman,serif" font-weight="bold" font-size="14.00">theusercannotbedeleteerrormessage()</text>
<polygon fill="none" stroke="black" points="1666.5,-62 1666.5,-232 1951.5,-232 1951.5,-62 1666.5,-62"/>
</g>
<!-- EAID_B9F476F1_9507_4312_801B_A468F9B692D2___EAID_4E72EB10_B8B6_47b5_AD2E_7F8C003EA5F0&#45;&gt;EAID_BA2B604F_E361_4a30_9447_3A1E312BA040 -->
<g id="edge11" class="edge"><title>EAID_B9F476F1_9507_4312_801B_A468F9B692D2___EAID_4E72EB10_B8B6_47b5_AD2E_7F8C003EA5F0&#45;&gt;EAID_BA2B604F_E361_4a30_9447_3A1E312BA040</title>
<path fill="none" stroke="black" stroke-dasharray="5,2" d="M4113.66,-459.805C4149.91,-450.627 4186.77,-433.752 4209,-403 4231.39,-372.026 4235.98,-344.075 4209,-317 4198.02,-305.981 1983.35,-315.001 1969,-309 1935.27,-294.896 1904.97,-269.869 1880.05,-243.688"/>
<polygon fill="black" stroke="black" points="1882.54,-241.223 1873.17,-236.282 1877.41,-245.989 1882.54,-241.223"/>
</g>
<!-- EAID_4E72EB10_B8B6_47b5_AD2E_7F8C003EA5F0___EAID_8B407C3F_1CE3_45b6_8CDF_6EAE8668D409&#45;&gt;EAID_F8C8C868_ACBC_4ebc_A2E4_78D8C2933C10 -->
<g id="edge12" class="edge"><title>EAID_4E72EB10_B8B6_47b5_AD2E_7F8C003EA5F0___EAID_8B407C3F_1CE3_45b6_8CDF_6EAE8668D409&#45;&gt;EAID_F8C8C868_ACBC_4ebc_A2E4_78D8C2933C10</title>
<path fill="none" stroke="black" stroke-dasharray="5,2" d="M4200.18,-341.115C4243.36,-332.688 4293.94,-323.531 4340,-317 4358.35,-314.399 4406.88,-318.13 4423,-309 4457.28,-289.59 4484.53,-255.807 4504.26,-224.183"/>
<polygon fill="black" stroke="black" points="4507.44,-225.701 4509.63,-215.335 4501.45,-222.072 4507.44,-225.701"/>
</g>
<!-- EAID_4E72EB10_B8B6_47b5_AD2E_7F8C003EA5F0___EAID_494E65F5_1680_4296_B512_AF3207544851&#45;&gt;EAID_427F3594_31F9_4d06_A72A_EC1BA46B4F65 -->
<g id="edge13" class="edge"><title>EAID_4E72EB10_B8B6_47b5_AD2E_7F8C003EA5F0___EAID_494E65F5_1680_4296_B512_AF3207544851&#45;&gt;EAID_427F3594_31F9_4d06_A72A_EC1BA46B4F65</title>
<path fill="none" stroke="black" stroke-dasharray="5,2" d="M3867,-324.562C3867,-299.929 3867,-266.905 3867,-236.084"/>
<polygon fill="black" stroke="black" points="3870.5,-235.731 3867,-225.732 3863.5,-235.732 3870.5,-235.731"/>
</g>
<!-- EAID_4E72EB10_B8B6_47b5_AD2E_7F8C003EA5F0___EAID_0BDB1475_1A00_4889_82B5_FD297BBD48E5&#45;&gt;EAID_BA2B604F_E361_4a30_9447_3A1E312BA040 -->
<g id="edge14" class="edge"><title>EAID_4E72EB10_B8B6_47b5_AD2E_7F8C003EA5F0___EAID_0BDB1475_1A00_4889_82B5_FD297BBD48E5&#45;&gt;EAID_BA2B604F_E361_4a30_9447_3A1E312BA040</title>
<path fill="none" stroke="black" stroke-dasharray="5,2" d="M3533.76,-361.734C3178.36,-357.18 2040.76,-340.223 1969,-309 1935.64,-294.484 1905.53,-269.5 1880.67,-243.485"/>
<polygon fill="black" stroke="black" points="1883.18,-241.047 1873.8,-236.128 1878.07,-245.825 1883.18,-241.047"/>
</g>
<!-- EAID_938AAA18_62E7_4139_BA71_4678CBD159EE___EAID_B9F476F1_9507_4312_801B_A468F9B692D2_STL -->
<g id="node8" class="node"><title>EAID_938AAA18_62E7_4139_BA71_4678CBD159EE___EAID_B9F476F1_9507_4312_801B_A468F9B692D2_STL</title>
<image xlink:href="img/stimulus_icon.png" width="30px" height="20px" preserveAspectRatio="xMinYMin meet" x="3991.5" y="-701"/>
<text text-anchor="start" x="3945" y="-666.8" font-family="Times New Roman,serif" font-weight="bold" font-size="14.00">stl#User:Login page</text>
</g>
<!-- EAID_938AAA18_62E7_4139_BA71_4678CBD159EE___EAID_B9F476F1_9507_4312_801B_A468F9B692D2_STL&#45;&gt;EAID_938AAA18_62E7_4139_BA71_4678CBD159EE___EAID_B9F476F1_9507_4312_801B_A468F9B692D2 -->
<g id="edge2" class="edge"><title>EAID_938AAA18_62E7_4139_BA71_4678CBD159EE___EAID_B9F476F1_9507_4312_801B_A468F9B692D2_STL&#45;&gt;EAID_938AAA18_62E7_4139_BA71_4678CBD159EE___EAID_B9F476F1_9507_4312_801B_A468F9B692D2</title>
<path fill="none" stroke="black" d="M4006,-656.266C4006,-641.633 4006,-622.87 4006,-606.765"/>
<polygon fill="black" stroke="black" points="4009.5,-606.636 4006,-596.636 4002.5,-606.636 4009.5,-606.636"/>
</g>
<!-- EAID_938AAA18_62E7_4139_BA71_4678CBD159EE___EAID_8B407C3F_1CE3_45b6_8CDF_6EAE8668D409_STL -->
<g id="node9" class="node"><title>EAID_938AAA18_62E7_4139_BA71_4678CBD159EE___EAID_8B407C3F_1CE3_45b6_8CDF_6EAE8668D409_STL</title>
<image xlink:href="img/stimulus_icon.png" width="30px" height="20px" preserveAspectRatio="xMinYMin meet" x="4149.5" y="-701"/>
<text text-anchor="start" x="4106" y="-666.8" font-family="Times New Roman,serif" font-weight="bold" font-size="14.00">stl#User:homepage</text>
</g>
<!-- EAID_938AAA18_62E7_4139_BA71_4678CBD159EE___EAID_8B407C3F_1CE3_45b6_8CDF_6EAE8668D409_STL&#45;&gt;EAID_938AAA18_62E7_4139_BA71_4678CBD159EE___EAID_8B407C3F_1CE3_45b6_8CDF_6EAE8668D409 -->
<g id="edge3" class="edge"><title>EAID_938AAA18_62E7_4139_BA71_4678CBD159EE___EAID_8B407C3F_1CE3_45b6_8CDF_6EAE8668D409_STL&#45;&gt;EAID_938AAA18_62E7_4139_BA71_4678CBD159EE___EAID_8B407C3F_1CE3_45b6_8CDF_6EAE8668D409</title>
<path fill="none" stroke="black" d="M4159.01,-656.266C4156.05,-641.633 4152.27,-622.87 4149.02,-606.765"/>
<polygon fill="black" stroke="black" points="4152.38,-605.746 4146.97,-596.636 4145.52,-607.131 4152.38,-605.746"/>
</g>
<!-- EAID_938AAA18_62E7_4139_BA71_4678CBD159EE___EAID_494E65F5_1680_4296_B512_AF3207544851_STL -->
<g id="node10" class="node"><title>EAID_938AAA18_62E7_4139_BA71_4678CBD159EE___EAID_494E65F5_1680_4296_B512_AF3207544851_STL</title>
<image xlink:href="img/stimulus_icon.png" width="30px" height="20px" preserveAspectRatio="xMinYMin meet" x="3795.5" y="-708"/>
<text text-anchor="start" x="3714" y="-673.8" font-family="Times New Roman,serif" font-weight="bold" font-size="14.00">stl#User:username or password</text>
<text text-anchor="start" x="3784" y="-659.8" font-family="Times New Roman,serif" font-weight="bold" font-size="14.00">is wrong</text>
</g>
<!-- EAID_938AAA18_62E7_4139_BA71_4678CBD159EE___EAID_494E65F5_1680_4296_B512_AF3207544851_STL&#45;&gt;EAID_938AAA18_62E7_4139_BA71_4678CBD159EE___EAID_494E65F5_1680_4296_B512_AF3207544851 -->
<g id="edge4" class="edge"><title>EAID_938AAA18_62E7_4139_BA71_4678CBD159EE___EAID_494E65F5_1680_4296_B512_AF3207544851_STL&#45;&gt;EAID_938AAA18_62E7_4139_BA71_4678CBD159EE___EAID_494E65F5_1680_4296_B512_AF3207544851</title>
<path fill="none" stroke="black" d="M3812.87,-649.765C3813.9,-638.477 3815.09,-625.549 3816.19,-613.518"/>
<polygon fill="black" stroke="black" points="3819.71,-613.518 3817.13,-603.24 3812.73,-612.878 3819.71,-613.518"/>
</g>
<!-- EAID_35C3FBBC_7A81_4451_AC1B_C5D56D044F32 -->
<g id="node12" class="node"><title>EAID_35C3FBBC_7A81_4451_AC1B_C5D56D044F32</title>
<polygon fill="none" stroke="black" points="4002,-252 4002,-273 4405,-273 4405,-252 4002,-252"/>
<text text-anchor="start" x="4181" y="-259.8" font-family="Times New Roman,serif" font-weight="bold" font-size="14.00">Course</text>
<polygon fill="none" stroke="black" points="4002,-231 4002,-252 4405,-252 4405,-231 4002,-231"/>
<text text-anchor="start" x="4135.5" y="-238.8" font-family="Times New Roman,serif" font-weight="bold" font-size="14.00">EAJava_int course_id</text>
<polygon fill="none" stroke="black" points="4002,-210 4002,-231 4405,-231 4405,-210 4002,-210"/>
<text text-anchor="start" x="4114" y="-217.8" font-family="Times New Roman,serif" font-weight="bold" font-size="14.00">EAJava_string course_prefix</text>
<polygon fill="none" stroke="black" points="4002,-189 4002,-210 4405,-210 4405,-189 4002,-189"/>
<text text-anchor="start" x="4118" y="-196.8" font-family="Times New Roman,serif" font-weight="bold" font-size="14.00">EAJava_int course_number</text>
<polygon fill="none" stroke="black" points="4002,-168 4002,-189 4405,-189 4405,-168 4002,-168"/>
<text text-anchor="start" x="4120" y="-175.8" font-family="Times New Roman,serif" font-weight="bold" font-size="14.00">EAJava_string course_title</text>
<polygon fill="none" stroke="black" points="4002,-147 4002,-168 4405,-168 4405,-147 4002,-147"/>
<text text-anchor="start" x="4123.5" y="-154.8" font-family="Times New Roman,serif" font-weight="bold" font-size="14.00">EAJava_int course_credit</text>
<polygon fill="none" stroke="black" points="4002,-126 4002,-147 4405,-147 4405,-126 4002,-126"/>
<text text-anchor="start" x="4080.5" y="-133.8" font-family="Times New Roman,serif" font-weight="bold" font-size="14.00">EAJava_string course_prerequistite_ids</text>
<polygon fill="none" stroke="black" points="4002,-105 4002,-126 4405,-126 4405,-105 4002,-105"/>
<text text-anchor="start" x="4086" y="-112.8" font-family="Times New Roman,serif" font-weight="bold" font-size="14.00">EAJava_string course_corequisite_ids</text>
<polygon fill="none" stroke="black" points="4002,-84 4002,-105 4405,-105 4405,-84 4002,-84"/>
<text text-anchor="start" x="4101" y="-91.8" font-family="Times New Roman,serif" font-weight="bold" font-size="14.00">EAJava_string course_oncampus</text>
<polygon fill="none" stroke="black" points="4002,-63 4002,-84 4405,-84 4405,-63 4002,-63"/>
<text text-anchor="start" x="4113" y="-70.8" font-family="Times New Roman,serif" font-weight="bold" font-size="14.00">EAJava_string course_online</text>
<polygon fill="none" stroke="black" points="4002,-42 4002,-63 4405,-63 4405,-42 4002,-42"/>
<text text-anchor="start" x="4005" y="-49.8" font-family="Times New Roman,serif" font-weight="bold" font-size="14.00">EAID_427F3594_31F9_4d06_A72A_EC1BA46B4F65 undefined</text>
<polygon fill="none" stroke="black" points="4002,-21 4002,-42 4405,-42 4405,-21 4002,-21"/>
<text text-anchor="start" x="4176.5" y="-28.8" font-family="Times New Roman,serif" font-weight="bold" font-size="14.00">Course()</text>
<polygon fill="none" stroke="black" points="4000.5,-20 4000.5,-274 4405.5,-274 4405.5,-20 4000.5,-20"/>
</g>
<!-- EAID_7A731CB0_84EC_4020_9348_46B7016569CC -->
<g id="node14" class="node"><title>EAID_7A731CB0_84EC_4020_9348_46B7016569CC</title>
<polygon fill="none" stroke="black" points="3579,-178 3579,-199 3733,-199 3733,-178 3579,-178"/>
<text text-anchor="start" x="3582" y="-185.8" font-family="Times New Roman,serif" font-weight="bold" font-size="14.00">CourseGroupController</text>
<polygon fill="none" stroke="black" points="3579,-157 3579,-178 3733,-178 3733,-157 3579,-157"/>
<text text-anchor="start" x="3598" y="-164.8" font-family="Times New Roman,serif" font-weight="bold" font-size="14.00">addCourseGroup()</text>
<polygon fill="none" stroke="black" points="3579,-136 3579,-157 3733,-157 3733,-136 3579,-136"/>
<text text-anchor="start" x="3591" y="-143.8" font-family="Times New Roman,serif" font-weight="bold" font-size="14.00">deleteCourseGroup()</text>
<polygon fill="none" stroke="black" points="3579,-115 3579,-136 3733,-136 3733,-115 3579,-115"/>
<text text-anchor="start" x="3593.5" y="-122.8" font-family="Times New Roman,serif" font-weight="bold" font-size="14.00">showCourseGroup()</text>
<polygon fill="none" stroke="black" points="3579,-94 3579,-115 3733,-115 3733,-94 3579,-94"/>
<text text-anchor="start" x="3588.5" y="-101.8" font-family="Times New Roman,serif" font-weight="bold" font-size="14.00">updateCourseGroup()</text>
<polygon fill="none" stroke="black" points="3578,-93.5 3578,-200.5 3734,-200.5 3734,-93.5 3578,-93.5"/>
</g>
<!-- EAID_B3DAD8E9_F073_4a63_80D1_FD2723183789 -->
<g id="node15" class="node"><title>EAID_B3DAD8E9_F073_4a63_80D1_FD2723183789</title>
<polygon fill="none" stroke="black" points="3123,-189 3123,-210 3543,-210 3543,-189 3123,-189"/>
<text text-anchor="start" x="3310.5" y="-196.8" font-family="Times New Roman,serif" font-weight="bold" font-size="14.00">Degree</text>
<polygon fill="none" stroke="black" points="3123,-168 3123,-189 3543,-189 3543,-168 3123,-168"/>
<text text-anchor="start" x="3265" y="-175.8" font-family="Times New Roman,serif" font-weight="bold" font-size="14.00">EAJava_int degree_id</text>
<polygon fill="none" stroke="black" points="3123,-147 3123,-168 3543,-168 3543,-147 3123,-147"/>
<text text-anchor="start" x="3249" y="-154.8" font-family="Times New Roman,serif" font-weight="bold" font-size="14.00">EAJava_string degree_title</text>
<polygon fill="none" stroke="black" points="3123,-126 3123,-147 3543,-147 3543,-126 3123,-126"/>
<text text-anchor="start" x="3238" y="-133.8" font-family="Times New Roman,serif" font-weight="bold" font-size="14.00">EAJava_string degree_req_ids</text>
<polygon fill="none" stroke="black" points="3123,-105 3123,-126 3543,-126 3543,-105 3123,-105"/>
<text text-anchor="start" x="3126" y="-112.8" font-family="Times New Roman,serif" font-weight="bold" font-size="14.00">EAID_DDB3256D_BBE2_4702_9D31_5DBB0B1B0F6D undefined</text>
<polygon fill="none" stroke="black" points="3123,-84 3123,-105 3543,-105 3543,-84 3123,-84"/>
<text text-anchor="start" x="3306" y="-91.8" font-family="Times New Roman,serif" font-weight="bold" font-size="14.00">Degree()</text>
<polygon fill="none" stroke="black" points="3122,-83 3122,-211 3544,-211 3544,-83 3122,-83"/>
</g>
<!-- EAID_DDB3256D_BBE2_4702_9D31_5DBB0B1B0F6D -->
<g id="node16" class="node"><title>EAID_DDB3256D_BBE2_4702_9D31_5DBB0B1B0F6D</title>
<polygon fill="none" stroke="black" points="2895,-189 2895,-210 3087,-210 3087,-189 2895,-189"/>
<text text-anchor="start" x="2936.5" y="-196.8" font-family="Times New Roman,serif" font-weight="bold" font-size="14.00">DegreeController</text>
<polygon fill="none" stroke="black" points="2895,-168 2895,-189 3087,-189 3087,-168 2895,-168"/>
<text text-anchor="start" x="2898" y="-175.8" font-family="Times New Roman,serif" font-weight="bold" font-size="14.00">showDegreeRequiredCourse()</text>
<polygon fill="none" stroke="black" points="2895,-147 2895,-168 3087,-168 3087,-147 2895,-147"/>
<text text-anchor="start" x="2913.5" y="-154.8" font-family="Times New Roman,serif" font-weight="bold" font-size="14.00">addDegreeRequirement()</text>
<polygon fill="none" stroke="black" points="2895,-126 2895,-147 3087,-147 3087,-126 2895,-126"/>
<text text-anchor="start" x="2906.5" y="-133.8" font-family="Times New Roman,serif" font-weight="bold" font-size="14.00">deleteDegreeRequirement()</text>
<polygon fill="none" stroke="black" points="2895,-105 2895,-126 3087,-126 3087,-105 2895,-105"/>
<text text-anchor="start" x="2904" y="-112.8" font-family="Times New Roman,serif" font-weight="bold" font-size="14.00">updateDegreeRequirement()</text>
<polygon fill="none" stroke="black" points="2895,-84 2895,-105 3087,-105 3087,-84 2895,-84"/>
<text text-anchor="start" x="2934" y="-91.8" font-family="Times New Roman,serif" font-weight="bold" font-size="14.00">showDegreeTitle()</text>
<polygon fill="none" stroke="black" points="2894,-83 2894,-211 3088,-211 3088,-83 2894,-83"/>
</g>
<!-- EAID_FD3CE249_05D2_4188_9225_DA78893EE057 -->
<g id="node17" class="node"><title>EAID_FD3CE249_05D2_4188_9225_DA78893EE057</title>
<polygon fill="none" stroke="black" points="2623,-231 2623,-252 2859,-252 2859,-231 2623,-231"/>
<text text-anchor="start" x="2649" y="-238.8" font-family="Times New Roman,serif" font-weight="bold" font-size="14.00">DesiredCoursesSelectionPage</text>
<polygon fill="none" stroke="black" points="2623,-210 2623,-231 2859,-231 2859,-210 2623,-210"/>
<text text-anchor="start" x="2644.5" y="-217.8" font-family="Times New Roman,serif" font-weight="bold" font-size="14.00">DesiredCoursesSelectionPage()</text>
<polygon fill="none" stroke="black" points="2623,-189 2623,-210 2859,-210 2859,-189 2623,-189"/>
<text text-anchor="start" x="2663.5" y="-196.8" font-family="Times New Roman,serif" font-weight="bold" font-size="14.00">deletionsuccessmessage()</text>
<polygon fill="none" stroke="black" points="2623,-168 2623,-189 2859,-189 2859,-168 2623,-168"/>
<text text-anchor="start" x="2638" y="-175.8" font-family="Times New Roman,serif" font-weight="bold" font-size="14.00">showconfirmationcourseisadded()</text>
<polygon fill="none" stroke="black" points="2623,-147 2623,-168 2859,-168 2859,-147 2623,-147"/>
<text text-anchor="start" x="2652" y="-154.8" font-family="Times New Roman,serif" font-weight="bold" font-size="14.00">checkcorrectnessoftheinput()</text>
<polygon fill="none" stroke="black" points="2623,-126 2623,-147 2859,-147 2859,-126 2623,-126"/>
<text text-anchor="start" x="2675" y="-133.8" font-family="Times New Roman,serif" font-weight="bold" font-size="14.00">deletioncannotfinish()</text>
<polygon fill="none" stroke="black" points="2623,-105 2623,-126 2859,-126 2859,-105 2623,-105"/>
<text text-anchor="start" x="2626" y="-112.8" font-family="Times New Roman,serif" font-weight="bold" font-size="14.00">showmessagethatsenssionwasclosed()</text>
<polygon fill="none" stroke="black" points="2623,-84 2623,-105 2859,-105 2859,-84 2623,-84"/>
<text text-anchor="start" x="2644.5" y="-91.8" font-family="Times New Roman,serif" font-weight="bold" font-size="14.00">inputdataisnotcurrectmessage()</text>
<polygon fill="none" stroke="black" points="2623,-63 2623,-84 2859,-84 2859,-63 2623,-63"/>
<text text-anchor="start" x="2654.5" y="-70.8" font-family="Times New Roman,serif" font-weight="bold" font-size="14.00">deletionconfirmationdialog()</text>
<polygon fill="none" stroke="black" points="2623,-42 2623,-63 2859,-63 2859,-42 2623,-42"/>
<text text-anchor="start" x="2674.5" y="-49.8" font-family="Times New Roman,serif" font-weight="bold" font-size="14.00">redirecttoinitialpage()</text>
<polygon fill="none" stroke="black" points="2622,-41 2622,-253 2860,-253 2860,-41 2622,-41"/>
</g>
<!-- EAID_34596396_6D21_478d_B75C_BD01B6308163 -->
<g id="node18" class="node"><title>EAID_34596396_6D21_478d_B75C_BD01B6308163</title>
<polygon fill="none" stroke="black" points="2172,-210 2172,-231 2587,-231 2587,-210 2172,-210"/>
<text text-anchor="start" x="2340" y="-217.8" font-family="Times New Roman,serif" font-weight="bold" font-size="14.00">Requirement</text>
<polygon fill="none" stroke="black" points="2172,-189 2172,-210 2587,-210 2587,-189 2172,-189"/>
<text text-anchor="start" x="2322" y="-196.8" font-family="Times New Roman,serif" font-weight="bold" font-size="14.00">EAJava_int req_id</text>
<polygon fill="none" stroke="black" points="2172,-168 2172,-189 2587,-189 2587,-168 2172,-168"/>
<text text-anchor="start" x="2306" y="-175.8" font-family="Times New Roman,serif" font-weight="bold" font-size="14.00">EAJava_string req_title</text>
<polygon fill="none" stroke="black" points="2172,-147 2172,-168 2587,-168 2587,-147 2172,-147"/>
<text text-anchor="start" x="2299.5" y="-154.8" font-family="Times New Roman,serif" font-weight="bold" font-size="14.00">EAJava_string req_sr_ids</text>
<polygon fill="none" stroke="black" points="2172,-126 2172,-147 2587,-147 2587,-126 2172,-126"/>
<text text-anchor="start" x="2175" y="-133.8" font-family="Times New Roman,serif" font-weight="bold" font-size="14.00">EAID_1D8C9D20_EF82_4bcb_BEE9_BE6D7EE9E460 undefined</text>
<polygon fill="none" stroke="black" points="2172,-105 2172,-126 2587,-126 2587,-105 2172,-105"/>
<text text-anchor="start" x="2335.5" y="-112.8" font-family="Times New Roman,serif" font-weight="bold" font-size="14.00">Requirement()</text>
<polygon fill="none" stroke="black" points="2172,-84 2172,-105 2587,-105 2587,-84 2172,-84"/>
<text text-anchor="start" x="2238" y="-91.8" font-family="Times New Roman,serif" font-weight="bold" font-size="14.00">showconfirmationthenewrequirementisadded()</text>
<polygon fill="none" stroke="black" points="2172,-63 2172,-84 2587,-84 2587,-63 2172,-63"/>
<text text-anchor="start" x="2250" y="-70.8" font-family="Times New Roman,serif" font-weight="bold" font-size="14.00">showspecifiedrequirementsbyparameters()</text>
<polygon fill="none" stroke="black" points="2170.5,-62 2170.5,-232 2587.5,-232 2587.5,-62 2170.5,-62"/>
</g>
<!-- EAID_1D8C9D20_EF82_4bcb_BEE9_BE6D7EE9E460 -->
<g id="node19" class="node"><title>EAID_1D8C9D20_EF82_4bcb_BEE9_BE6D7EE9E460</title>
<polygon fill="none" stroke="black" points="1987,-178 1987,-199 2136,-199 2136,-178 1987,-178"/>
<text text-anchor="start" x="1990" y="-185.8" font-family="Times New Roman,serif" font-weight="bold" font-size="14.00">RequirementController</text>
<polygon fill="none" stroke="black" points="1987,-157 1987,-178 2136,-178 2136,-157 1987,-157"/>
<text text-anchor="start" x="2006" y="-164.8" font-family="Times New Roman,serif" font-weight="bold" font-size="14.00">addRequirement()</text>
<polygon fill="none" stroke="black" points="1987,-136 1987,-157 2136,-157 2136,-136 1987,-136"/>
<text text-anchor="start" x="1999.5" y="-143.8" font-family="Times New Roman,serif" font-weight="bold" font-size="14.00">deleteRequirement()</text>
<polygon fill="none" stroke="black" points="1987,-115 1987,-136 2136,-136 2136,-115 1987,-115"/>
<text text-anchor="start" x="1996.5" y="-122.8" font-family="Times New Roman,serif" font-weight="bold" font-size="14.00">updateRequirement()</text>
<polygon fill="none" stroke="black" points="1987,-94 1987,-115 2136,-115 2136,-94 1987,-94"/>
<text text-anchor="start" x="2001.5" y="-101.8" font-family="Times New Roman,serif" font-weight="bold" font-size="14.00">showRequirement()</text>
<polygon fill="none" stroke="black" points="1985.5,-93.5 1985.5,-200.5 2136.5,-200.5 2136.5,-93.5 1985.5,-93.5"/>
</g>
<!-- EAID_5E6FD425_6942_4f2b_B717_E783EE4FCD39 -->
<g id="node21" class="node"><title>EAID_5E6FD425_6942_4f2b_B717_E783EE4FCD39</title>
<polygon fill="none" stroke="black" points="1441,-178 1441,-199 1631,-199 1631,-178 1441,-178"/>
<text text-anchor="start" x="1444" y="-185.8" font-family="Times New Roman,serif" font-weight="bold" font-size="14.00">SimpleRequirementController</text>
<polygon fill="none" stroke="black" points="1441,-157 1441,-178 1631,-178 1631,-157 1441,-157"/>
<text text-anchor="start" x="1487" y="-164.8" font-family="Times New Roman,serif" font-weight="bold" font-size="14.00">addSimpleReq()</text>
<polygon fill="none" stroke="black" points="1441,-136 1441,-157 1631,-157 1631,-136 1441,-136"/>
<text text-anchor="start" x="1480" y="-143.8" font-family="Times New Roman,serif" font-weight="bold" font-size="14.00">deleteSimpleReq()</text>
<polygon fill="none" stroke="black" points="1441,-115 1441,-136 1631,-136 1631,-115 1441,-115"/>
<text text-anchor="start" x="1482.5" y="-122.8" font-family="Times New Roman,serif" font-weight="bold" font-size="14.00">showSimpleReq()</text>
<polygon fill="none" stroke="black" points="1441,-94 1441,-115 1631,-115 1631,-94 1441,-94"/>
<text text-anchor="start" x="1477.5" y="-101.8" font-family="Times New Roman,serif" font-weight="bold" font-size="14.00">updateSimpleReq()</text>
<polygon fill="none" stroke="black" points="1440,-93.5 1440,-200.5 1632,-200.5 1632,-93.5 1440,-93.5"/>
</g>
<!-- EAID_B2170549_2D5D_4fea_AF5D_2BFADA002867 -->
<g id="node22" class="node"><title>EAID_B2170549_2D5D_4fea_AF5D_2BFADA002867</title>
<polygon fill="none" stroke="black" points="1002,-210 1002,-231 1405,-231 1405,-210 1002,-210"/>
<text text-anchor="start" x="1139.5" y="-217.8" font-family="Times New Roman,serif" font-weight="bold" font-size="14.00">Simple_Requirement</text>
<polygon fill="none" stroke="black" points="1002,-189 1002,-210 1405,-210 1405,-189 1002,-189"/>
<text text-anchor="start" x="1150" y="-196.8" font-family="Times New Roman,serif" font-weight="bold" font-size="14.00">EAJava_int sr_id</text>
<polygon fill="none" stroke="black" points="1002,-168 1002,-189 1405,-189 1405,-168 1002,-168"/>
<text text-anchor="start" x="1134" y="-175.8" font-family="Times New Roman,serif" font-weight="bold" font-size="14.00">EAJava_string sr_title</text>
<polygon fill="none" stroke="black" points="1002,-147 1002,-168 1405,-168 1405,-147 1002,-147"/>
<text text-anchor="start" x="1113" y="-154.8" font-family="Times New Roman,serif" font-weight="bold" font-size="14.00">EAJava_int sr_required_num</text>
<polygon fill="none" stroke="black" points="1002,-126 1002,-147 1405,-147 1405,-126 1002,-126"/>
<text text-anchor="start" x="1129" y="-133.8" font-family="Times New Roman,serif" font-weight="bold" font-size="14.00">EAJava_int sr_cg_id_fk</text>
<polygon fill="none" stroke="black" points="1002,-105 1002,-126 1405,-126 1405,-105 1002,-105"/>
<text text-anchor="start" x="1129.5" y="-112.8" font-family="Times New Roman,serif" font-weight="bold" font-size="14.00">EAJava_boolean sr_not</text>
<polygon fill="none" stroke="black" points="1002,-84 1002,-105 1405,-105 1405,-84 1002,-84"/>
<text text-anchor="start" x="1005" y="-91.8" font-family="Times New Roman,serif" font-weight="bold" font-size="14.00">EAID_5E6FD425_6942_4f2b_B717_E783EE4FCD39 undefined</text>
<polygon fill="none" stroke="black" points="1002,-63 1002,-84 1405,-84 1405,-63 1002,-63"/>
<text text-anchor="start" x="1138.5" y="-70.8" font-family="Times New Roman,serif" font-weight="bold" font-size="14.00">SimpleRequirement()</text>
<polygon fill="none" stroke="black" points="1000.5,-62 1000.5,-232 1405.5,-232 1405.5,-62 1000.5,-62"/>
</g>
<!-- EAID_5A55A310_052A_433e_9BBA_5365B5F52CA3 -->
<g id="node23" class="node"><title>EAID_5A55A310_052A_433e_9BBA_5365B5F52CA3</title>
<polygon fill="none" stroke="black" points="823,-252 823,-273 966,-273 966,-252 823,-252"/>
<text text-anchor="start" x="831" y="-259.8" font-family="Times New Roman,serif" font-weight="bold" font-size="14.00">StudyPlanController</text>
<polygon fill="none" stroke="black" points="823,-231 823,-252 966,-252 966,-231 823,-231"/>
<text text-anchor="start" x="832.5" y="-238.8" font-family="Times New Roman,serif" font-weight="bold" font-size="14.00">addDesiredCourse()</text>
<polygon fill="none" stroke="black" points="823,-210 823,-231 966,-231 966,-210 823,-210"/>
<text text-anchor="start" x="826" y="-217.8" font-family="Times New Roman,serif" font-weight="bold" font-size="14.00">deleteDesiredCourse()</text>
<polygon fill="none" stroke="black" points="823,-189 823,-210 966,-210 966,-189 823,-189"/>
<text text-anchor="start" x="841.5" y="-196.8" font-family="Times New Roman,serif" font-weight="bold" font-size="14.00">addCompulsory()</text>
<polygon fill="none" stroke="black" points="823,-168 823,-189 966,-189 966,-168 823,-168"/>
<text text-anchor="start" x="831.5" y="-175.8" font-family="Times New Roman,serif" font-weight="bold" font-size="14.00">checkpreprequisite()</text>
<polygon fill="none" stroke="black" points="823,-147 823,-168 966,-168 966,-147 823,-147"/>
<text text-anchor="start" x="838.5" y="-154.8" font-family="Times New Roman,serif" font-weight="bold" font-size="14.00">checkcorequisite()</text>
<polygon fill="none" stroke="black" points="823,-126 823,-147 966,-147 966,-126 823,-126"/>
<text text-anchor="start" x="831.5" y="-133.8" font-family="Times New Roman,serif" font-weight="bold" font-size="14.00">generateCoursebin()</text>
<polygon fill="none" stroke="black" points="823,-105 823,-126 966,-126 966,-105 823,-105"/>
<text text-anchor="start" x="843" y="-112.8" font-family="Times New Roman,serif" font-weight="bold" font-size="14.00">topologicalSort()</text>
<polygon fill="none" stroke="black" points="823,-84 823,-105 966,-105 966,-84 823,-84"/>
<text text-anchor="start" x="838.5" y="-91.8" font-family="Times New Roman,serif" font-weight="bold" font-size="14.00">findCriticialPath()</text>
<polygon fill="none" stroke="black" points="823,-63 823,-84 966,-84 966,-63 823,-63"/>
<text text-anchor="start" x="842.5" y="-70.8" font-family="Times New Roman,serif" font-weight="bold" font-size="14.00">assignSemester()</text>
<polygon fill="none" stroke="black" points="823,-42 823,-63 966,-63 966,-42 823,-42"/>
<text text-anchor="start" x="837" y="-49.8" font-family="Times New Roman,serif" font-weight="bold" font-size="14.00">checkAvailability()</text>
<polygon fill="none" stroke="black" points="823,-21 823,-42 966,-42 966,-21 823,-21"/>
<text text-anchor="start" x="860.5" y="-28.8" font-family="Times New Roman,serif" font-weight="bold" font-size="14.00">studyplan()</text>
<polygon fill="none" stroke="black" points="821.5,-20 821.5,-274 966.5,-274 966.5,-20 821.5,-20"/>
</g>
<!-- EAID_0FEE6E4F_1C9E_4052_85FC_6649686D9B2F -->
<g id="node24" class="node"><title>EAID_0FEE6E4F_1C9E_4052_85FC_6649686D9B2F</title>
<polygon fill="none" stroke="black" points="636,-178 636,-199 787,-199 787,-178 636,-178"/>
<text text-anchor="start" x="643.5" y="-185.8" font-family="Times New Roman,serif" font-weight="bold" font-size="14.00">StudyPlanOutputPage</text>
<polygon fill="none" stroke="black" points="636,-157 636,-178 787,-178 787,-157 636,-157"/>
<text text-anchor="start" x="639" y="-164.8" font-family="Times New Roman,serif" font-weight="bold" font-size="14.00">StudyPlanOutputPage()</text>
<polygon fill="none" stroke="black" points="636,-136 636,-157 787,-157 787,-136 636,-136"/>
<text text-anchor="start" x="668" y="-143.8" font-family="Times New Roman,serif" font-weight="bold" font-size="14.00">logoutbutton()</text>
<polygon fill="none" stroke="black" points="636,-115 636,-136 787,-136 787,-115 636,-115"/>
<text text-anchor="start" x="661.5" y="-122.8" font-family="Times New Roman,serif" font-weight="bold" font-size="14.00">logoutmessage()</text>
<polygon fill="none" stroke="black" points="636,-94 636,-115 787,-115 787,-94 636,-94"/>
<text text-anchor="start" x="671.5" y="-101.8" font-family="Times New Roman,serif" font-weight="bold" font-size="14.00">updatepage()</text>
<polygon fill="none" stroke="black" points="634.5,-93.5 634.5,-200.5 787.5,-200.5 787.5,-93.5 634.5,-93.5"/>
</g>
<!-- EAID_79A566B3_B9B6_4d1f_8472_9BDEE3799B51 -->
<g id="node25" class="node"><title>EAID_79A566B3_B9B6_4d1f_8472_9BDEE3799B51</title>
<polygon fill="none" stroke="black" points="197,-199 197,-220 600,-220 600,-199 197,-199"/>
<text text-anchor="start" x="356" y="-206.8" font-family="Times New Roman,serif" font-weight="bold" font-size="14.00">course_group</text>
<polygon fill="none" stroke="black" points="197,-178 197,-199 600,-199 600,-178 197,-178"/>
<text text-anchor="start" x="344" y="-185.8" font-family="Times New Roman,serif" font-weight="bold" font-size="14.00">EAJava_int cd_id</text>
<polygon fill="none" stroke="black" points="197,-157 197,-178 600,-178 600,-157 197,-157"/>
<text text-anchor="start" x="328" y="-164.8" font-family="Times New Roman,serif" font-weight="bold" font-size="14.00">EAJava_string cg_title</text>
<polygon fill="none" stroke="black" points="197,-136 197,-157 600,-157 600,-136 197,-136"/>
<text text-anchor="start" x="307" y="-143.8" font-family="Times New Roman,serif" font-weight="bold" font-size="14.00">EAJava_string cg_course_ids</text>
<polygon fill="none" stroke="black" points="197,-115 197,-136 600,-136 600,-115 197,-115"/>
<text text-anchor="start" x="200" y="-122.8" font-family="Times New Roman,serif" font-weight="bold" font-size="14.00">EAID_7A731CB0_84EC_4020_9348_46B7016569CC undefined</text>
<polygon fill="none" stroke="black" points="197,-94 197,-115 600,-115 600,-94 197,-94"/>
<text text-anchor="start" x="355.5" y="-101.8" font-family="Times New Roman,serif" font-weight="bold" font-size="14.00">coursegroup()</text>
<polygon fill="none" stroke="black" points="197,-73 197,-94 600,-94 600,-73 197,-73"/>
<text text-anchor="start" x="279.5" y="-80.8" font-family="Times New Roman,serif" font-weight="bold" font-size="14.00">addnewcoursepageupdatesourcepage()</text>
<polygon fill="none" stroke="black" points="195.5,-72.5 195.5,-221.5 600.5,-221.5 600.5,-72.5 195.5,-72.5"/>
</g>
<!-- EAID_DC6E87FD_2337_4650_8EE9_57C6F52E7940 -->
<g id="node26" class="node"><title>EAID_DC6E87FD_2337_4650_8EE9_57C6F52E7940</title>
<polygon fill="none" stroke="black" points="26,-168 26,-189 161,-189 161,-168 26,-168"/>
<text text-anchor="start" x="33.5" y="-175.8" font-family="Times New Roman,serif" font-weight="bold" font-size="14.00">addnewusertothedb</text>
<polygon fill="none" stroke="black" points="26,-147 26,-168 161,-168 161,-147 26,-147"/>
<text text-anchor="start" x="29" y="-154.8" font-family="Times New Roman,serif" font-weight="bold" font-size="14.00">addnewusertothedb()</text>
<polygon fill="none" stroke="black" points="26,-126 26,-147 161,-147 161,-126 26,-126"/>
<text text-anchor="start" x="30" y="-133.8" font-family="Times New Roman,serif" font-weight="bold" font-size="14.00">adduserprofilepage()</text>
<polygon fill="none" stroke="black" points="26,-105 26,-126 161,-126 161,-105 26,-105"/>
<text text-anchor="start" x="64" y="-112.8" font-family="Times New Roman,serif" font-weight="bold" font-size="14.00">userinfo()</text>
<polygon fill="none" stroke="black" points="24.5,-104 24.5,-190 161.5,-190 161.5,-104 24.5,-104"/>
</g>
</g>
</svg>
