<?xml version="1.0" encoding="UTF-8" standalone="no"?>
<!DOCTYPE svg PUBLIC "-//W3C//DTD SVG 1.1//EN"
 "http://www.w3.org/Graphics/SVG/1.1/DTD/svg11.dtd">
<!-- Generated by graphviz version 2.38.0 (20140413.2041)
 -->
<!-- Title: g Pages: 1 -->
<svg width="538pt" height="332pt"
 viewBox="0.00 0.00 538.08 332.00" xmlns="http://www.w3.org/2000/svg" xmlns:xlink="http://www.w3.org/1999/xlink">
<g id="graph0" class="graph" transform="scale(1 1) rotate(0) translate(4 328)">
<title>g</title>
<polygon fill="white" stroke="none" points="-4,4 -4,-328 534.077,-328 534.077,4 -4,4"/>
<!-- Update Database -->
<g id="node1" class="node"><title>Update Database</title>
<ellipse fill="none" stroke="black" cx="253.99" cy="-90" rx="72.5877" ry="18"/>
<text text-anchor="middle" x="253.99" y="-86.3" font-family="Times New Roman,serif" font-size="14.00">Update Database</text>
</g>
<!-- User Account -->
<g id="node2" class="node"><title>User Account</title>
<ellipse fill="none" stroke="black" cx="253.99" cy="-18" rx="61.99" ry="18"/>
<text text-anchor="middle" x="253.99" y="-14.3" font-family="Times New Roman,serif" font-size="14.00">User Account</text>
</g>
<!-- Update Database&#45;&gt;User Account -->
<g id="edge1" class="edge"><title>Update Database&#45;&gt;User Account</title>
<path fill="none" stroke="black" d="M253.99,-71.6966C253.99,-63.9827 253.99,-54.7125 253.99,-46.1124"/>
<polygon fill="black" stroke="black" points="257.49,-46.1043 253.99,-36.1043 250.49,-46.1044 257.49,-46.1043"/>
</g>
<!-- Calculate Score -->
<g id="node3" class="node"><title>Calculate Score</title>
<ellipse fill="none" stroke="black" cx="253.99" cy="-162" rx="67.6881" ry="18"/>
<text text-anchor="middle" x="253.99" y="-158.3" font-family="Times New Roman,serif" font-size="14.00">Calculate Score</text>
</g>
<!-- Calculate Score&#45;&gt;Update Database -->
<g id="edge2" class="edge"><title>Calculate Score&#45;&gt;Update Database</title>
<path fill="none" stroke="black" d="M253.99,-143.697C253.99,-135.983 253.99,-126.712 253.99,-118.112"/>
<polygon fill="black" stroke="black" points="257.49,-118.104 253.99,-108.104 250.49,-118.104 257.49,-118.104"/>
</g>
<!-- Display score at end of battle -->
<g id="node4" class="node"><title>Display score at end of battle</title>
<ellipse fill="none" stroke="black" cx="116.99" cy="-234" rx="116.979" ry="18"/>
<text text-anchor="middle" x="116.99" y="-230.3" font-family="Times New Roman,serif" font-size="14.00">Display score at end of battle</text>
</g>
<!-- Display score at end of battle&#45;&gt;Calculate Score -->
<g id="edge3" class="edge"><title>Display score at end of battle&#45;&gt;Calculate Score</title>
<path fill="none" stroke="black" d="M149.11,-216.588C168.813,-206.521 194.174,-193.563 215.021,-182.911"/>
<polygon fill="black" stroke="black" points="216.634,-186.017 223.947,-178.35 213.449,-179.784 216.634,-186.017"/>
</g>
<!-- Count the number of enemies killed -->
<g id="node5" class="node"><title>Count the number of enemies killed</title>
<ellipse fill="none" stroke="black" cx="390.99" cy="-234" rx="139.175" ry="18"/>
<text text-anchor="middle" x="390.99" y="-230.3" font-family="Times New Roman,serif" font-size="14.00">Count the number of enemies killed</text>
</g>
<!-- Count the number of enemies killed&#45;&gt;Calculate Score -->
<g id="edge4" class="edge"><title>Count the number of enemies killed&#45;&gt;Calculate Score</title>
<path fill="none" stroke="black" d="M358.523,-216.411C338.898,-206.384 313.757,-193.538 293.05,-182.958"/>
<polygon fill="black" stroke="black" points="294.38,-179.707 283.883,-178.274 291.195,-185.941 294.38,-179.707"/>
</g>
<!-- User -->
<g id="node6" class="node"><title>User</title>
<ellipse fill="none" stroke="black" cx="116.99" cy="-306" rx="27.8951" ry="18"/>
<text text-anchor="middle" x="116.99" y="-302.3" font-family="Times New Roman,serif" font-size="14.00">User</text>
</g>
<!-- User&#45;&gt;Display score at end of battle -->
<g id="edge5" class="edge"><title>User&#45;&gt;Display score at end of battle</title>
<path fill="none" stroke="black" d="M116.99,-287.697C116.99,-279.983 116.99,-270.712 116.99,-262.112"/>
<polygon fill="black" stroke="black" points="120.49,-262.104 116.99,-252.104 113.49,-262.104 120.49,-262.104"/>
</g>
</g>
</svg>
