<?xml version="1.0" encoding="UTF-8" standalone="no"?>
<!DOCTYPE svg PUBLIC "-//W3C//DTD SVG 1.1//EN"
 "http://www.w3.org/Graphics/SVG/1.1/DTD/svg11.dtd">
<!-- Generated by graphviz version 2.38.0 (20140413.2041)
 -->
<!-- Title: g Pages: 1 -->
<svg width="514pt" height="260pt"
 viewBox="0.00 0.00 513.83 260.00" xmlns="http://www.w3.org/2000/svg" xmlns:xlink="http://www.w3.org/1999/xlink">
<g id="graph0" class="graph" transform="scale(1 1) rotate(0) translate(4 256)">
<title>g</title>
<polygon fill="white" stroke="none" points="-4,4 -4,-256 509.832,-256 509.832,4 -4,4"/>
<!-- Actor -->
<g id="node1" class="node"><title>Actor</title>
<ellipse fill="none" stroke="black" cx="241.892" cy="-234" rx="31.6951" ry="18"/>
<text text-anchor="middle" x="241.892" y="-230.3" font-family="Times New Roman,serif" font-size="14.00">Actor</text>
</g>
<!-- Photo Selected Screen -->
<g id="node2" class="node"><title>Photo Selected Screen</title>
<ellipse fill="none" stroke="black" cx="241.892" cy="-162" rx="92.8835" ry="18"/>
<text text-anchor="middle" x="241.892" y="-158.3" font-family="Times New Roman,serif" font-size="14.00">Photo Selected Screen</text>
</g>
<!-- Actor&#45;&gt;Photo Selected Screen -->
<g id="edge1" class="edge"><title>Actor&#45;&gt;Photo Selected Screen</title>
<path fill="none" stroke="black" d="M241.892,-215.697C241.892,-207.983 241.892,-198.712 241.892,-190.112"/>
<polygon fill="black" stroke="black" points="245.392,-190.104 241.892,-180.104 238.392,-190.104 245.392,-190.104"/>
</g>
<!-- Download photo to Device -->
<g id="node5" class="node"><title>Download photo to Device</title>
<ellipse fill="none" stroke="black" cx="241.892" cy="-90" rx="109.381" ry="18"/>
<text text-anchor="middle" x="241.892" y="-86.3" font-family="Times New Roman,serif" font-size="14.00">Download photo to Device</text>
</g>
<!-- Photo Selected Screen&#45;&gt;Download photo to Device -->
<g id="edge7" class="edge"><title>Photo Selected Screen&#45;&gt;Download photo to Device</title>
<path fill="none" stroke="black" d="M241.892,-143.697C241.892,-135.983 241.892,-126.712 241.892,-118.112"/>
<polygon fill="black" stroke="black" points="245.392,-118.104 241.892,-108.104 238.392,-118.104 245.392,-118.104"/>
</g>
<!-- Handle download error -->
<g id="node3" class="node"><title>Handle download error</title>
<ellipse fill="none" stroke="black" cx="94.8916" cy="-18" rx="94.7833" ry="18"/>
<text text-anchor="middle" x="94.8916" y="-14.3" font-family="Times New Roman,serif" font-size="14.00">Handle download error</text>
</g>
<!-- Handle download error&#45;&gt;Photo Selected Screen -->
<g id="edge2" class="edge"><title>Handle download error&#45;&gt;Photo Selected Screen</title>
<path fill="none" stroke="black" d="M96.3487,-36.1194C98.8598,-55.7069 105.648,-87.6887 123.892,-108 138.336,-124.081 158.599,-135.562 178.263,-143.628"/>
<polygon fill="black" stroke="black" points="177.251,-146.989 187.841,-147.319 179.768,-140.457 177.251,-146.989"/>
</g>
<!-- Handle download success -->
<g id="node4" class="node"><title>Handle download success</title>
<ellipse fill="none" stroke="black" cx="399.892" cy="-18" rx="105.881" ry="18"/>
<text text-anchor="middle" x="399.892" y="-14.3" font-family="Times New Roman,serif" font-size="14.00">Handle download success</text>
</g>
<!-- Handle download success&#45;&gt;Photo Selected Screen -->
<g id="edge3" class="edge"><title>Handle download success&#45;&gt;Photo Selected Screen</title>
<path fill="none" stroke="black" d="M396.096,-36.1867C390.955,-55.8373 380.018,-87.8784 359.892,-108 344.193,-123.695 323.025,-135.171 302.952,-143.347"/>
<polygon fill="black" stroke="black" points="301.592,-140.12 293.524,-146.986 304.113,-146.65 301.592,-140.12"/>
</g>
<!-- Download photo to Device&#45;&gt;Handle download error -->
<g id="edge5" class="edge"><title>Download photo to Device&#45;&gt;Handle download error</title>
<path fill="none" stroke="black" d="M207.797,-72.7646C186.869,-62.7989 159.89,-49.9514 137.552,-39.3145"/>
<polygon fill="black" stroke="black" points="138.828,-36.0453 128.294,-34.906 135.818,-42.3654 138.828,-36.0453"/>
</g>
<!-- Download photo to Device&#45;&gt;Handle download success -->
<g id="edge4" class="edge"><title>Download photo to Device&#45;&gt;Handle download success</title>
<path fill="none" stroke="black" d="M278.14,-72.9406C300.821,-62.8918 330.231,-49.8623 354.463,-39.1264"/>
<polygon fill="black" stroke="black" points="356.087,-42.2354 363.812,-34.9847 353.251,-35.8354 356.087,-42.2354"/>
</g>
<!-- Server -->
<g id="node6" class="node"><title>Server</title>
<ellipse fill="none" stroke="black" cx="241.892" cy="-18" rx="34.394" ry="18"/>
<text text-anchor="middle" x="241.892" y="-14.3" font-family="Times New Roman,serif" font-size="14.00">Server</text>
</g>
<!-- Download photo to Device&#45;&gt;Server -->
<g id="edge6" class="edge"><title>Download photo to Device&#45;&gt;Server</title>
<path fill="none" stroke="black" d="M241.892,-71.6966C241.892,-63.9827 241.892,-54.7125 241.892,-46.1124"/>
<polygon fill="black" stroke="black" points="245.392,-46.1043 241.892,-36.1043 238.392,-46.1044 245.392,-46.1043"/>
</g>
</g>
</svg>
