<?xml version="1.0" encoding="UTF-8" standalone="no"?>
<!DOCTYPE svg PUBLIC "-//W3C//DTD SVG 1.1//EN"
 "http://www.w3.org/Graphics/SVG/1.1/DTD/svg11.dtd">
<!-- Generated by graphviz version 2.38.0 (20140413.2041)
 -->
<!-- Title: g Pages: 1 -->
<svg width="2396pt" height="747pt"
 viewBox="0.00 0.00 2396.00 747.00" xmlns="http://www.w3.org/2000/svg" xmlns:xlink="http://www.w3.org/1999/xlink">
<g id="graph0" class="graph" transform="scale(1 1) rotate(0) translate(4 743)">
<title>g</title>
<polygon fill="white" stroke="none" points="-4,4 -4,-743 2392,-743 2392,4 -4,4"/>
<!-- EAID_EBB77996_2D43_484b_A230_44452AD5ECA9 -->
<g id="node1" class="node"><title>EAID_EBB77996_2D43_484b_A230_44452AD5ECA9</title>
<image xlink:href="img/actor1.png" width="61px" height="90px" preserveAspectRatio="xMinYMin meet" x="10.5" y="-410.5"/>
<text text-anchor="start" x="19" y="-297.3" font-family="Times New Roman,serif" font-size="24.00">User</text>
</g>
<!-- EAID_1A52F438_7AAA_483b_A13A_DB520F7902DB -->
<g id="node2" class="node"><title>EAID_1A52F438_7AAA_483b_A13A_DB520F7902DB</title>
<image xlink:href="img/boundary3.png" width="115px" height="67px" preserveAspectRatio="xMinYMin meet" x="1531" y="-628.5"/>
<text text-anchor="start" x="1493.5" y="-538.3" font-family="Times New Roman,serif" font-size="24.00">invalid search string</text>
</g>
<!-- EAID_EBB77996_2D43_484b_A230_44452AD5ECA9&#45;&gt;EAID_1A52F438_7AAA_483b_A13A_DB520F7902DB -->
<g id="edge1" class="edge"><title>EAID_EBB77996_2D43_484b_A230_44452AD5ECA9&#45;&gt;EAID_1A52F438_7AAA_483b_A13A_DB520F7902DB</title>
<path fill="none" stroke="black" d="M58.1545,-416.828C69.5274,-448.517 87.957,-484.112 117,-505.5 280.103,-625.612 364.943,-574.5 567.5,-574.5 567.5,-574.5 567.5,-574.5 893.5,-574.5 1097.74,-574.5 1335.78,-577.131 1473.31,-578.908"/>
<polygon fill="black" stroke="black" points="1473.4,-582.409 1483.45,-579.04 1473.49,-575.41 1473.4,-582.409"/>
</g>
<!-- EAID_D27C1D93_C892_4f1e_91CA_3AB7E0D5D79C -->
<g id="node3" class="node"><title>EAID_D27C1D93_C892_4f1e_91CA_3AB7E0D5D79C</title>
<image xlink:href="img/boundary3.png" width="115px" height="67px" preserveAspectRatio="xMinYMin meet" x="2196" y="-356.5"/>
<text text-anchor="start" x="2163" y="-266.3" font-family="Times New Roman,serif" font-size="24.00">No matched results</text>
</g>
<!-- EAID_EBB77996_2D43_484b_A230_44452AD5ECA9&#45;&gt;EAID_D27C1D93_C892_4f1e_91CA_3AB7E0D5D79C -->
<g id="edge2" class="edge"><title>EAID_EBB77996_2D43_484b_A230_44452AD5ECA9&#45;&gt;EAID_D27C1D93_C892_4f1e_91CA_3AB7E0D5D79C</title>
<path fill="none" stroke="black" d="M81.0957,-337.686C92.5626,-334.468 105.178,-331.395 117,-329.5 314.913,-297.777 367.06,-308.5 567.5,-308.5 567.5,-308.5 567.5,-308.5 1589.5,-308.5 1784.13,-308.5 2010.92,-308.5 2142.32,-308.5"/>
<polygon fill="black" stroke="black" points="2142.39,-312 2152.39,-308.5 2142.39,-305 2142.39,-312"/>
</g>
<!-- EAID_CCF7A895_C5C1_4860_B725_82948BC9DADA -->
<g id="node4" class="node"><title>EAID_CCF7A895_C5C1_4860_B725_82948BC9DADA</title>
<image xlink:href="img/boundary3.png" width="115px" height="67px" preserveAspectRatio="xMinYMin meet" x="2195.5" y="-229.5"/>
<text text-anchor="start" x="2128" y="-139.3" font-family="Times New Roman,serif" font-size="24.00">empty list of search results</text>
</g>
<!-- EAID_EBB77996_2D43_484b_A230_44452AD5ECA9&#45;&gt;EAID_CCF7A895_C5C1_4860_B725_82948BC9DADA -->
<g id="edge3" class="edge"><title>EAID_EBB77996_2D43_484b_A230_44452AD5ECA9&#45;&gt;EAID_CCF7A895_C5C1_4860_B725_82948BC9DADA</title>
<path fill="none" stroke="black" d="M81.1416,-321.86C92.2933,-314.925 104.737,-308.174 117,-303.5 306.878,-231.133 364.299,-225.5 567.5,-225.5 567.5,-225.5 567.5,-225.5 1589.5,-225.5 1768.27,-225.5 1973.57,-209.352 2107.66,-196.621"/>
<polygon fill="black" stroke="black" points="2108.37,-200.069 2117.99,-195.634 2107.7,-193.101 2108.37,-200.069"/>
</g>
<!-- EAID_F1F39DA9_DEC5_4b2f_9BAA_0A24A7EB2DBA -->
<g id="node5" class="node"><title>EAID_F1F39DA9_DEC5_4b2f_9BAA_0A24A7EB2DBA</title>
<image xlink:href="img/boundary3.png" width="115px" height="67px" preserveAspectRatio="xMinYMin meet" x="835.5" y="-530.5"/>
<text text-anchor="start" x="790.5" y="-440.3" font-family="Times New Roman,serif" font-size="24.00">advanced search page</text>
</g>
<!-- EAID_EBB77996_2D43_484b_A230_44452AD5ECA9&#45;&gt;EAID_F1F39DA9_DEC5_4b2f_9BAA_0A24A7EB2DBA -->
<g id="edge4" class="edge"><title>EAID_EBB77996_2D43_484b_A230_44452AD5ECA9&#45;&gt;EAID_F1F39DA9_DEC5_4b2f_9BAA_0A24A7EB2DBA</title>
<path fill="none" stroke="black" d="M74.7117,-416.767C85.9075,-432.504 99.9803,-447.362 117,-456.5 324.244,-567.767 609.667,-539.179 769.814,-509.868"/>
<polygon fill="black" stroke="black" points="770.515,-513.297 779.706,-508.027 769.235,-506.416 770.515,-513.297"/>
</g>
<!-- EAID_BE6ED25C_BE60_4680_90C8_C53A40FBDCEF -->
<g id="node6" class="node"><title>EAID_BE6ED25C_BE60_4680_90C8_C53A40FBDCEF</title>
<image xlink:href="img/boundary3.png" width="115px" height="67px" preserveAspectRatio="xMinYMin meet" x="2196" y="-102.5"/>
<text text-anchor="start" x="2179" y="-12.3" font-family="Times New Roman,serif" font-size="24.00">Matched results</text>
</g>
<!-- EAID_EBB77996_2D43_484b_A230_44452AD5ECA9&#45;&gt;EAID_BE6ED25C_BE60_4680_90C8_C53A40FBDCEF -->
<g id="edge5" class="edge"><title>EAID_EBB77996_2D43_484b_A230_44452AD5ECA9&#45;&gt;EAID_BE6ED25C_BE60_4680_90C8_C53A40FBDCEF</title>
<path fill="none" stroke="black" d="M70.5647,-284.365C82.2981,-264.584 97.7043,-244.677 117,-231.5 285.469,-116.449 363.494,-143.5 567.5,-143.5 567.5,-143.5 567.5,-143.5 1589.5,-143.5 1793.73,-143.5 2030.25,-101.441 2158.15,-75.1492"/>
<polygon fill="black" stroke="black" points="2159.21,-78.5028 2168.3,-73.049 2157.8,-71.6481 2159.21,-78.5028"/>
</g>
<!-- EAID_C4AE923C_E8FC_4c81_9878_D170C8875ABA -->
<g id="node7" class="node"><title>EAID_C4AE923C_E8FC_4c81_9878_D170C8875ABA</title>
<image xlink:href="img/boundary3.png" width="115px" height="67px" preserveAspectRatio="xMinYMin meet" x="179.5" y="-441.5"/>
<text text-anchor="start" x="127" y="-351.3" font-family="Times New Roman,serif" font-size="24.00">advanced search button</text>
</g>
<!-- EAID_EBB77996_2D43_484b_A230_44452AD5ECA9&#45;&gt;EAID_C4AE923C_E8FC_4c81_9878_D170C8875ABA -->
<g id="edge6" class="edge"><title>EAID_EBB77996_2D43_484b_A230_44452AD5ECA9&#45;&gt;EAID_C4AE923C_E8FC_4c81_9878_D170C8875ABA</title>
<path fill="none" stroke="black" d="M81.3293,-359.305C89.1647,-361.038 97.7748,-362.941 106.798,-364.936"/>
<polygon fill="black" stroke="black" points="106.214,-368.391 116.734,-367.133 107.725,-361.556 106.214,-368.391"/>
</g>
<!-- EAID_FC0CAB59_3157_4e53_A1DE_4F2375AE6712 -->
<g id="node15" class="node"><title>EAID_FC0CAB59_3157_4e53_A1DE_4F2375AE6712</title>
<image xlink:href="img/control1.png" width="106px" height="75px" preserveAspectRatio="xMinYMin meet" x="1140" y="-537.5"/>
<text text-anchor="start" x="1051.5" y="-439.3" font-family="Times New Roman,serif" font-size="24.00">check validity of search string</text>
</g>
<!-- EAID_F1F39DA9_DEC5_4b2f_9BAA_0A24A7EB2DBA&#45;&gt;EAID_FC0CAB59_3157_4e53_A1DE_4F2375AE6712 -->
<g id="edge16" class="edge"><title>EAID_F1F39DA9_DEC5_4b2f_9BAA_0A24A7EB2DBA&#45;&gt;EAID_FC0CAB59_3157_4e53_A1DE_4F2375AE6712</title>
<path fill="none" stroke="black" d="M1005.31,-483.626C1013.68,-483.71 1022.22,-483.796 1030.8,-483.882"/>
<polygon fill="black" stroke="black" points="1030.87,-487.383 1040.9,-483.984 1030.94,-480.383 1030.87,-487.383"/>
</g>
<!-- EAID_23ACC1C1_5F72_46ad_940E_C40431FAF2DF -->
<g id="node14" class="node"><title>EAID_23ACC1C1_5F72_46ad_940E_C40431FAF2DF</title>
<image xlink:href="img/control1.png" width="106px" height="75px" preserveAspectRatio="xMinYMin meet" x="516" y="-447.5"/>
<text text-anchor="start" x="403.5" y="-349.3" font-family="Times New Roman,serif" font-size="24.00">redirected to advanced search page</text>
</g>
<!-- EAID_C4AE923C_E8FC_4c81_9878_D170C8875ABA&#45;&gt;EAID_23ACC1C1_5F72_46ad_940E_C40431FAF2DF -->
<g id="edge15" class="edge"><title>EAID_C4AE923C_E8FC_4c81_9878_D170C8875ABA&#45;&gt;EAID_23ACC1C1_5F72_46ad_940E_C40431FAF2DF</title>
<path fill="none" stroke="black" d="M357.423,-394.225C365.763,-394.275 374.27,-394.327 382.851,-394.379"/>
<polygon fill="black" stroke="black" points="382.931,-397.88 392.952,-394.441 382.973,-390.88 382.931,-397.88"/>
</g>
<!-- EAID_C3D34B76_8064_4997_8281_55EFA90E1C89 -->
<g id="node8" class="node"><title>EAID_C3D34B76_8064_4997_8281_55EFA90E1C89</title>
<image xlink:href="img/control1.png" width="106px" height="75px" preserveAspectRatio="xMinYMin meet" x="1905" y="-462.5"/>
<text text-anchor="start" x="1843.5" y="-364.3" font-family="Times New Roman,serif" font-size="24.00">SQl injection protection</text>
</g>
<!-- EAID_C3D34B76_8064_4997_8281_55EFA90E1C89&#45;&gt;EAID_D27C1D93_C892_4f1e_91CA_3AB7E0D5D79C -->
<g id="edge8" class="edge"><title>EAID_C3D34B76_8064_4997_8281_55EFA90E1C89&#45;&gt;EAID_D27C1D93_C892_4f1e_91CA_3AB7E0D5D79C</title>
<path fill="none" stroke="black" d="M2082.12,-367.538C2102.18,-360.567 2122.83,-353.39 2142.52,-346.546"/>
<polygon fill="black" stroke="black" points="2143.81,-349.804 2152.11,-343.215 2141.51,-343.192 2143.81,-349.804"/>
</g>
<!-- EAID_C3D34B76_8064_4997_8281_55EFA90E1C89&#45;&gt;EAID_CCF7A895_C5C1_4860_B725_82948BC9DADA -->
<g id="edge9" class="edge"><title>EAID_C3D34B76_8064_4997_8281_55EFA90E1C89&#45;&gt;EAID_CCF7A895_C5C1_4860_B725_82948BC9DADA</title>
<path fill="none" stroke="black" d="M2005.36,-351.855C2035,-317.451 2075.62,-274.908 2118,-244.5 2119.24,-243.61 2120.49,-242.728 2121.76,-241.853"/>
<polygon fill="black" stroke="black" points="2123.91,-244.631 2130.31,-236.189 2120.04,-238.796 2123.91,-244.631"/>
</g>
<!-- EAID_C3D34B76_8064_4997_8281_55EFA90E1C89&#45;&gt;EAID_BE6ED25C_BE60_4680_90C8_C53A40FBDCEF -->
<g id="edge7" class="edge"><title>EAID_C3D34B76_8064_4997_8281_55EFA90E1C89&#45;&gt;EAID_BE6ED25C_BE60_4680_90C8_C53A40FBDCEF</title>
<path fill="none" stroke="black" d="M1985.07,-351.825C2019.96,-276.771 2081.07,-152.311 2118,-117.5 2129.93,-106.256 2144.23,-96.7049 2158.98,-88.7007"/>
<polygon fill="black" stroke="black" points="2160.94,-91.6271 2168.2,-83.9155 2157.71,-85.4134 2160.94,-91.6271"/>
</g>
<!-- EAID_0844F882_AE3D_4b10_ABE0_FA8C84393329 -->
<g id="node9" class="node"><title>EAID_0844F882_AE3D_4b10_ABE0_FA8C84393329</title>
<image xlink:href="img/activity_icon.png" width="30px" height="20px" preserveAspectRatio="xMinYMin meet" x="2238" y="-597.5"/>
<text text-anchor="start" x="2222" y="-555.3" font-family="Times New Roman,serif" font-weight="bold" font-size="24.00">group</text>
</g>
<!-- EAID_C3D34B76_8064_4997_8281_55EFA90E1C89&#45;&gt;EAID_0844F882_AE3D_4b10_ABE0_FA8C84393329 -->
<g id="edge10" class="edge"><title>EAID_C3D34B76_8064_4997_8281_55EFA90E1C89&#45;&gt;EAID_0844F882_AE3D_4b10_ABE0_FA8C84393329</title>
<path fill="none" stroke="black" d="M2064.36,-469.006C2070.52,-473.646 2076.46,-478.487 2082,-483.5 2102.04,-501.632 2095.91,-516.939 2118,-532.5 2142.73,-549.917 2175.12,-559.855 2201.87,-565.469"/>
<polygon fill="black" stroke="black" points="2201.33,-568.929 2211.81,-567.415 2202.67,-562.06 2201.33,-568.929"/>
</g>
<!-- EAID_A68601A1_3849_4eac_87F8_2B4579BFDB37 -->
<g id="node10" class="node"><title>EAID_A68601A1_3849_4eac_87F8_2B4579BFDB37</title>
<image xlink:href="img/activity_icon.png" width="30px" height="20px" preserveAspectRatio="xMinYMin meet" x="2238" y="-517.5"/>
<text text-anchor="start" x="2206" y="-475.3" font-family="Times New Roman,serif" font-weight="bold" font-size="24.00">company</text>
</g>
<!-- EAID_C3D34B76_8064_4997_8281_55EFA90E1C89&#45;&gt;EAID_A68601A1_3849_4eac_87F8_2B4579BFDB37 -->
<g id="edge11" class="edge"><title>EAID_C3D34B76_8064_4997_8281_55EFA90E1C89&#45;&gt;EAID_A68601A1_3849_4eac_87F8_2B4579BFDB37</title>
<path fill="none" stroke="black" d="M2082.12,-445.038C2117.88,-455.03 2155.53,-465.548 2186.27,-474.135"/>
<polygon fill="black" stroke="black" points="2185.42,-477.533 2195.99,-476.853 2187.31,-470.791 2185.42,-477.533"/>
</g>
<!-- EAID_56FCD075_B858_4c8d_93EE_EB42F93DBD05 -->
<g id="node11" class="node"><title>EAID_56FCD075_B858_4c8d_93EE_EB42F93DBD05</title>
<image xlink:href="img/activity_icon.png" width="30px" height="20px" preserveAspectRatio="xMinYMin meet" x="2238.5" y="-437.5"/>
<text text-anchor="start" x="2220" y="-395.3" font-family="Times New Roman,serif" font-weight="bold" font-size="24.00">people</text>
</g>
<!-- EAID_C3D34B76_8064_4997_8281_55EFA90E1C89&#45;&gt;EAID_56FCD075_B858_4c8d_93EE_EB42F93DBD05 -->
<g id="edge12" class="edge"><title>EAID_C3D34B76_8064_4997_8281_55EFA90E1C89&#45;&gt;EAID_56FCD075_B858_4c8d_93EE_EB42F93DBD05</title>
<path fill="none" stroke="black" d="M2082.12,-411.342C2122.97,-411.621 2166.28,-411.916 2198.94,-412.138"/>
<polygon fill="black" stroke="black" points="2199.14,-415.64 2209.16,-412.208 2199.18,-408.64 2199.14,-415.64"/>
</g>
<!-- EAID_FA28509B_F165_4213_A184_B5B599A2B8EE -->
<g id="node12" class="node"><title>EAID_FA28509B_F165_4213_A184_B5B599A2B8EE</title>
<image xlink:href="img/control1.png" width="106px" height="75px" preserveAspectRatio="xMinYMin meet" x="2200.5" y="-732.5"/>
<text text-anchor="start" x="2144" y="-634.3" font-family="Times New Roman,serif" font-size="24.00">sql injection protection</text>
</g>
<!-- EAID_C3D34B76_8064_4997_8281_55EFA90E1C89&#45;&gt;EAID_FA28509B_F165_4213_A184_B5B599A2B8EE -->
<g id="edge13" class="edge"><title>EAID_C3D34B76_8064_4997_8281_55EFA90E1C89&#45;&gt;EAID_FA28509B_F165_4213_A184_B5B599A2B8EE</title>
<path fill="none" stroke="black" d="M2069.16,-469.217C2073.81,-473.702 2078.13,-478.461 2082,-483.5 2118.24,-530.722 2080.26,-566.466 2118,-612.5 2120.46,-615.501 2123.09,-618.383 2125.85,-621.149"/>
<polygon fill="black" stroke="black" points="2123.76,-623.983 2133.48,-628.205 2128.52,-618.845 2123.76,-623.983"/>
</g>
<!-- EAID_FA28509B_F165_4213_A184_B5B599A2B8EE&#45;&gt;EAID_FC0CAB59_3157_4e53_A1DE_4F2375AE6712 -->
<g id="edge20" class="edge"><title>EAID_FA28509B_F165_4213_A184_B5B599A2B8EE&#45;&gt;EAID_FC0CAB59_3157_4e53_A1DE_4F2375AE6712</title>
<path fill="none" stroke="black" d="M2133.07,-627.09C2042.82,-589.248 1914.63,-541.16 1797,-517.5 1649.05,-487.743 1476.85,-481.322 1354.34,-481.408"/>
<polygon fill="black" stroke="black" points="1354.12,-477.908 1344.13,-481.43 1354.14,-484.908 1354.12,-477.908"/>
</g>
<!-- EAID_3D9F761A_F7BD_4e52_921E_8BBAF65C4308 -->
<g id="node13" class="node"><title>EAID_3D9F761A_F7BD_4e52_921E_8BBAF65C4308</title>
<image xlink:href="img/control1.png" width="106px" height="75px" preserveAspectRatio="xMinYMin meet" x="1536" y="-462.5"/>
<text text-anchor="start" x="1390.5" y="-364.3" font-family="Times New Roman,serif" font-size="24.00">search people, company, group by options</text>
</g>
<!-- EAID_3D9F761A_F7BD_4e52_921E_8BBAF65C4308&#45;&gt;EAID_C3D34B76_8064_4997_8281_55EFA90E1C89 -->
<g id="edge14" class="edge"><title>EAID_3D9F761A_F7BD_4e52_921E_8BBAF65C4308&#45;&gt;EAID_C3D34B76_8064_4997_8281_55EFA90E1C89</title>
<path fill="none" stroke="black" d="M1797.13,-410.5C1805.78,-410.5 1814.35,-410.5 1822.78,-410.5"/>
<polygon fill="black" stroke="black" points="1822.97,-414 1832.97,-410.5 1822.97,-407 1822.97,-414"/>
</g>
<!-- EAID_23ACC1C1_5F72_46ad_940E_C40431FAF2DF&#45;&gt;EAID_F1F39DA9_DEC5_4b2f_9BAA_0A24A7EB2DBA -->
<g id="edge17" class="edge"><title>EAID_23ACC1C1_5F72_46ad_940E_C40431FAF2DF&#45;&gt;EAID_F1F39DA9_DEC5_4b2f_9BAA_0A24A7EB2DBA</title>
<path fill="none" stroke="black" d="M744.164,-442.692C752.878,-445.046 761.538,-447.386 770.041,-449.683"/>
<polygon fill="black" stroke="black" points="769.377,-453.13 779.944,-452.359 771.203,-446.372 769.377,-453.13"/>
</g>
<!-- EAID_FC0CAB59_3157_4e53_A1DE_4F2375AE6712&#45;&gt;EAID_1A52F438_7AAA_483b_A13A_DB520F7902DB -->
<g id="edge19" class="edge"><title>EAID_FC0CAB59_3157_4e53_A1DE_4F2375AE6712&#45;&gt;EAID_1A52F438_7AAA_483b_A13A_DB520F7902DB</title>
<path fill="none" stroke="black" d="M1344.14,-521.822C1387.09,-532.178 1433.15,-543.285 1473.53,-553.019"/>
<polygon fill="black" stroke="black" points="1472.85,-556.456 1483.39,-555.398 1474.49,-549.651 1472.85,-556.456"/>
</g>
<!-- EAID_FC0CAB59_3157_4e53_A1DE_4F2375AE6712&#45;&gt;EAID_3D9F761A_F7BD_4e52_921E_8BBAF65C4308 -->
<g id="edge18" class="edge"><title>EAID_FC0CAB59_3157_4e53_A1DE_4F2375AE6712&#45;&gt;EAID_3D9F761A_F7BD_4e52_921E_8BBAF65C4308</title>
<path fill="none" stroke="black" d="M1344.14,-456.825C1352.66,-455.202 1361.31,-453.556 1370.01,-451.9"/>
<polygon fill="black" stroke="black" points="1370.68,-455.335 1379.85,-450.027 1369.37,-448.459 1370.68,-455.335"/>
</g>
</g>
</svg>
