<?xml version="1.0" encoding="UTF-8" standalone="no"?>
<!DOCTYPE svg PUBLIC "-//W3C//DTD SVG 1.1//EN"
 "http://www.w3.org/Graphics/SVG/1.1/DTD/svg11.dtd">
<!-- Generated by graphviz version 2.38.0 (20140413.2041)
 -->
<!-- Title: g Pages: 1 -->
<svg width="1612pt" height="622pt"
 viewBox="0.00 0.00 1612.00 622.00" xmlns="http://www.w3.org/2000/svg" xmlns:xlink="http://www.w3.org/1999/xlink">
<g id="graph0" class="graph" transform="scale(1 1) rotate(0) translate(4 618)">
<title>g</title>
<polygon fill="white" stroke="none" points="-4,4 -4,-618 1608,-618 1608,4 -4,4"/>
<!-- AppInfoCacheView:appInfoView -->
<g id="node1" class="node"><title>AppInfoCacheView:appInfoView</title>
<polygon fill="none" stroke="black" points="1270,-290 932,-290 932,-254 1270,-254 1270,-290"/>
<text text-anchor="middle" x="1101" y="-265.8" font-family="Times New Roman,serif" font-size="24.00">AppInfoCacheView:appInfoView</text>
</g>
<!-- AppInfoView -->
<g id="node2" class="node"><title>AppInfoView</title>
<polygon fill="none" stroke="black" points="1463,-290 1315,-290 1315,-254 1463,-254 1463,-290"/>
<text text-anchor="middle" x="1389" y="-265.8" font-family="Times New Roman,serif" font-size="24.00">AppInfoView</text>
</g>
<!-- AppInfoCacheView:appInfoView&#45;&gt;AppInfoView -->
<g id="edge1" class="edge"><title>AppInfoCacheView:appInfoView&#45;&gt;AppInfoView</title>
<path fill="none" stroke="black" d="M1270.02,-272C1281.94,-272 1293.61,-272 1304.71,-272"/>
<polygon fill="black" stroke="black" points="1304.72,-275.5 1314.72,-272 1304.72,-268.5 1304.72,-275.5"/>
</g>
<!-- AppInfo -->
<g id="node14" class="node"><title>AppInfo</title>
<polygon fill="none" stroke="black" points="1604,-290 1508,-290 1508,-254 1604,-254 1604,-290"/>
<text text-anchor="middle" x="1556" y="-265.8" font-family="Times New Roman,serif" font-size="24.00">AppInfo</text>
</g>
<!-- AppInfoView&#45;&gt;AppInfo -->
<g id="edge13" class="edge"><title>AppInfoView&#45;&gt;AppInfo</title>
<path fill="none" stroke="black" d="M1463.33,-272C1474.93,-272 1486.77,-272 1497.93,-272"/>
<polygon fill="black" stroke="black" points="1497.95,-275.5 1507.95,-272 1497.95,-268.5 1497.95,-275.5"/>
</g>
<!-- AllTheAppsLayout:floatView -->
<g id="node3" class="node"><title>AllTheAppsLayout:floatView</title>
<polygon fill="none" stroke="black" points="828,-290 529,-290 529,-254 828,-254 828,-290"/>
<text text-anchor="middle" x="678.5" y="-265.8" font-family="Times New Roman,serif" font-size="24.00">AllTheAppsLayout:floatView</text>
</g>
<!-- AllTheAppsLayout:floatView&#45;&gt;AppInfoCacheView:appInfoView -->
<g id="edge2" class="edge"><title>AllTheAppsLayout:floatView&#45;&gt;AppInfoCacheView:appInfoView</title>
<path fill="none" stroke="black" d="M828.048,-272C858.333,-272 890.493,-272 921.691,-272"/>
<polygon fill="black" stroke="black" points="921.783,-275.5 931.783,-272 921.783,-268.5 921.783,-275.5"/>
</g>
<!-- AllTheAppsActivity:state -->
<g id="node4" class="node"><title>AllTheAppsActivity:state</title>
<polygon fill="none" stroke="black" points="341,-221 84,-221 84,-185 341,-185 341,-221"/>
<text text-anchor="middle" x="212.5" y="-196.8" font-family="Times New Roman,serif" font-size="24.00">AllTheAppsActivity:state</text>
</g>
<!-- AllTheAppsActivity:state&#45;&gt;AllTheAppsLayout:floatView -->
<g id="edge5" class="edge"><title>AllTheAppsActivity:state&#45;&gt;AllTheAppsLayout:floatView</title>
<path fill="none" stroke="black" d="M333.715,-221.012C374.156,-227.061 419.53,-233.835 461,-240 488.196,-244.043 517.315,-248.357 545.098,-252.466"/>
<polygon fill="black" stroke="black" points="544.863,-255.969 555.268,-253.969 545.887,-249.044 544.863,-255.969"/>
</g>
<!-- AppPagesManagerState -->
<g id="node5" class="node"><title>AppPagesManagerState</title>
<polygon fill="none" stroke="black" points="1222,-217 980,-217 980,-181 1222,-181 1222,-217"/>
<text text-anchor="middle" x="1101" y="-192.8" font-family="Times New Roman,serif" font-size="24.00">AppPagesManagerState</text>
</g>
<!-- AllTheAppsActivity:state&#45;&gt;AppPagesManagerState -->
<g id="edge3" class="edge"><title>AllTheAppsActivity:state&#45;&gt;AppPagesManagerState</title>
<path fill="none" stroke="black" d="M341.188,-205.687C478.318,-208.12 702.6,-210.791 896,-207 919.827,-206.533 945.21,-205.759 969.688,-204.873"/>
<polygon fill="black" stroke="black" points="969.884,-208.368 979.747,-204.5 969.625,-201.373 969.884,-208.368"/>
</g>
<!-- AppPagesManager -->
<g id="node6" class="node"><title>AppPagesManager</title>
<polygon fill="none" stroke="black" points="775.5,-144 581.5,-144 581.5,-108 775.5,-108 775.5,-144"/>
<text text-anchor="middle" x="678.5" y="-119.8" font-family="Times New Roman,serif" font-size="24.00">AppPagesManager</text>
</g>
<!-- AllTheAppsActivity:state&#45;&gt;AppPagesManager -->
<g id="edge4" class="edge"><title>AllTheAppsActivity:state&#45;&gt;AppPagesManager</title>
<path fill="none" stroke="black" d="M294.873,-184.955C343.021,-174.681 405.296,-162.087 461,-153 496.726,-147.172 535.95,-141.933 571.081,-137.655"/>
<polygon fill="black" stroke="black" points="571.848,-141.087 581.357,-136.416 571.011,-134.138 571.848,-141.087"/>
</g>
<!-- PagesRefreshBroadcast -->
<g id="node7" class="node"><title>PagesRefreshBroadcast</title>
<polygon fill="none" stroke="black" points="797,-198 560,-198 560,-162 797,-162 797,-198"/>
<text text-anchor="middle" x="678.5" y="-173.8" font-family="Times New Roman,serif" font-size="24.00">PagesRefreshBroadcast</text>
</g>
<!-- AllTheAppsActivity:state&#45;&gt;PagesRefreshBroadcast -->
<g id="edge6" class="edge"><title>AllTheAppsActivity:state&#45;&gt;PagesRefreshBroadcast</title>
<path fill="none" stroke="black" d="M341.211,-196.67C406.018,-193.457 484.534,-189.565 549.396,-186.35"/>
<polygon fill="black" stroke="black" points="549.87,-189.831 559.685,-185.84 549.524,-182.839 549.87,-189.831"/>
</g>
<!-- AppPagesManager&#45;&gt;AppPagesManagerState -->
<g id="edge8" class="edge"><title>AppPagesManager&#45;&gt;AppPagesManagerState</title>
<path fill="none" stroke="black" d="M775.72,-135.957C813.36,-140.385 856.821,-146.157 896,-153 936.546,-160.082 981.188,-169.913 1018.35,-178.669"/>
<polygon fill="black" stroke="black" points="1017.58,-182.085 1028.12,-180.988 1019.2,-175.274 1017.58,-182.085"/>
</g>
<!-- AppsLayoutDBHelper -->
<g id="node10" class="node"><title>AppsLayoutDBHelper</title>
<polygon fill="none" stroke="black" points="1216,-144 986,-144 986,-108 1216,-108 1216,-144"/>
<text text-anchor="middle" x="1101" y="-119.8" font-family="Times New Roman,serif" font-size="24.00">AppsLayoutDBHelper</text>
</g>
<!-- AppPagesManager&#45;&gt;AppsLayoutDBHelper -->
<g id="edge9" class="edge"><title>AppPagesManager&#45;&gt;AppsLayoutDBHelper</title>
<path fill="none" stroke="black" d="M775.708,-126C835.079,-126 911.848,-126 975.788,-126"/>
<polygon fill="black" stroke="black" points="975.935,-129.5 985.935,-126 975.935,-122.5 975.935,-129.5"/>
</g>
<!-- AppsLayoutPageAdapter:appsLayout -->
<g id="node8" class="node"><title>AppsLayoutPageAdapter:appsLayout</title>
<polygon fill="none" stroke="black" points="397,-344 28,-344 28,-308 397,-308 397,-344"/>
<text text-anchor="middle" x="212.5" y="-319.8" font-family="Times New Roman,serif" font-size="24.00">AppsLayoutPageAdapter:appsLayout</text>
</g>
<!-- AppsLayout -->
<g id="node9" class="node"><title>AppsLayout</title>
<polygon fill="none" stroke="black" points="744,-344 613,-344 613,-308 744,-308 744,-344"/>
<text text-anchor="middle" x="678.5" y="-319.8" font-family="Times New Roman,serif" font-size="24.00">AppsLayout</text>
</g>
<!-- AppsLayoutPageAdapter:appsLayout&#45;&gt;AppsLayout -->
<g id="edge7" class="edge"><title>AppsLayoutPageAdapter:appsLayout&#45;&gt;AppsLayout</title>
<path fill="none" stroke="black" d="M397.218,-326C468.956,-326 547.139,-326 602.659,-326"/>
<polygon fill="black" stroke="black" points="602.755,-329.5 612.755,-326 602.755,-322.5 602.755,-329.5"/>
</g>
<!-- AppsPanel:appsPageScroller -->
<g id="node11" class="node"><title>AppsPanel:appsPageScroller</title>
<polygon fill="none" stroke="black" points="357.5,-90 67.5,-90 67.5,-54 357.5,-54 357.5,-90"/>
<text text-anchor="middle" x="212.5" y="-65.8" font-family="Times New Roman,serif" font-size="24.00">AppsPanel:appsPageScroller</text>
</g>
<!-- AppsPanel:appsPageScroller&#45;&gt;AppPagesManager -->
<g id="edge12" class="edge"><title>AppsPanel:appsPageScroller&#45;&gt;AppPagesManager</title>
<path fill="none" stroke="black" d="M357.769,-88.7899C426.834,-96.8277 508.063,-106.281 571.365,-113.648"/>
<polygon fill="black" stroke="black" points="571.028,-117.132 581.365,-114.812 571.837,-110.179 571.028,-117.132"/>
</g>
<!-- AppsPageScroller -->
<g id="node12" class="node"><title>AppsPageScroller</title>
<polygon fill="none" stroke="black" points="772.5,-90 584.5,-90 584.5,-54 772.5,-54 772.5,-90"/>
<text text-anchor="middle" x="678.5" y="-65.8" font-family="Times New Roman,serif" font-size="24.00">AppsPageScroller</text>
</g>
<!-- AppsPanel:appsPageScroller&#45;&gt;AppsPageScroller -->
<g id="edge10" class="edge"><title>AppsPanel:appsPageScroller&#45;&gt;AppsPageScroller</title>
<path fill="none" stroke="black" d="M357.769,-72C427.844,-72 510.442,-72 574.13,-72"/>
<polygon fill="black" stroke="black" points="574.185,-75.5001 584.185,-72 574.185,-68.5001 574.185,-75.5001"/>
</g>
<!-- PageIndicator -->
<g id="node13" class="node"><title>PageIndicator</title>
<polygon fill="none" stroke="black" points="753,-36 604,-36 604,-0 753,-0 753,-36"/>
<text text-anchor="middle" x="678.5" y="-11.8" font-family="Times New Roman,serif" font-size="24.00">PageIndicator</text>
</g>
<!-- AppsPanel:appsPageScroller&#45;&gt;PageIndicator -->
<g id="edge11" class="edge"><title>AppsPanel:appsPageScroller&#45;&gt;PageIndicator</title>
<path fill="none" stroke="black" d="M357.769,-55.2101C435.167,-46.2025 527.843,-35.417 593.442,-27.7826"/>
<polygon fill="black" stroke="black" points="594.203,-31.2177 603.731,-26.5851 593.394,-24.2647 594.203,-31.2177"/>
</g>
<!-- GestureDetector:listener -->
<g id="node15" class="node"><title>GestureDetector:listener</title>
<polygon fill="none" stroke="black" points="1225,-452 977,-452 977,-416 1225,-416 1225,-452"/>
<text text-anchor="middle" x="1101" y="-427.8" font-family="Times New Roman,serif" font-size="24.00">GestureDetector:listener</text>
</g>
<!-- GestureListener -->
<g id="node16" class="node"><title>GestureListener</title>
<polygon fill="none" stroke="black" points="1472,-479 1306,-479 1306,-443 1472,-443 1472,-479"/>
<text text-anchor="middle" x="1389" y="-454.8" font-family="Times New Roman,serif" font-size="24.00">GestureListener</text>
</g>
<!-- GestureDetector:listener&#45;&gt;GestureListener -->
<g id="edge14" class="edge"><title>GestureDetector:listener&#45;&gt;GestureListener</title>
<path fill="none" stroke="black" d="M1225.36,-445.646C1248.96,-447.874 1273.29,-450.171 1295.71,-452.287"/>
<polygon fill="black" stroke="black" points="1295.58,-455.79 1305.86,-453.246 1296.23,-448.821 1295.58,-455.79"/>
</g>
<!-- Event -->
<g id="node17" class="node"><title>Event</title>
<polygon fill="none" stroke="black" points="1424.5,-425 1353.5,-425 1353.5,-389 1424.5,-389 1424.5,-425"/>
<text text-anchor="middle" x="1389" y="-400.8" font-family="Times New Roman,serif" font-size="24.00">Event</text>
</g>
<!-- GestureDetector:listener&#45;&gt;Event -->
<g id="edge15" class="edge"><title>GestureDetector:listener&#45;&gt;Event</title>
<path fill="none" stroke="black" d="M1225.36,-422.354C1267.2,-418.404 1311.32,-414.239 1343.04,-411.245"/>
<polygon fill="black" stroke="black" points="1343.67,-414.701 1353.29,-410.276 1343.01,-407.732 1343.67,-414.701"/>
</g>
<!-- HorizontallySwipeDetector:gestureDetector -->
<g id="node18" class="node"><title>HorizontallySwipeDetector:gestureDetector</title>
<polygon fill="none" stroke="black" points="896,-452 461,-452 461,-416 896,-416 896,-452"/>
<text text-anchor="middle" x="678.5" y="-427.8" font-family="Times New Roman,serif" font-size="24.00">HorizontallySwipeDetector:gestureDetector</text>
</g>
<!-- HorizontallySwipeDetector:gestureDetector&#45;&gt;GestureDetector:listener -->
<g id="edge16" class="edge"><title>HorizontallySwipeDetector:gestureDetector&#45;&gt;GestureDetector:listener</title>
<path fill="none" stroke="black" d="M896.217,-434C920.187,-434 944.045,-434 966.543,-434"/>
<polygon fill="black" stroke="black" points="966.779,-437.5 976.779,-434 966.779,-430.5 966.779,-437.5"/>
</g>
<!-- FrameSequence:leftFrame -->
<g id="node19" class="node"><title>FrameSequence:leftFrame</title>
<polygon fill="none" stroke="black" points="345,-560 80,-560 80,-524 345,-524 345,-560"/>
<text text-anchor="middle" x="212.5" y="-535.8" font-family="Times New Roman,serif" font-size="24.00">FrameSequence:leftFrame</text>
</g>
<!-- Frame -->
<g id="node20" class="node"><title>Frame</title>
<polygon fill="none" stroke="black" points="717,-614 640,-614 640,-578 717,-578 717,-614"/>
<text text-anchor="middle" x="678.5" y="-589.8" font-family="Times New Roman,serif" font-size="24.00">Frame</text>
</g>
<!-- FrameSequence:leftFrame&#45;&gt;Frame -->
<g id="edge17" class="edge"><title>FrameSequence:leftFrame&#45;&gt;Frame</title>
<path fill="none" stroke="black" d="M345.223,-557.33C440.339,-568.399 563.301,-582.71 629.765,-590.445"/>
<polygon fill="black" stroke="black" points="629.597,-593.949 639.934,-591.628 630.406,-586.996 629.597,-593.949"/>
</g>
<!-- LeftFrame2 -->
<g id="node21" class="node"><title>LeftFrame2</title>
<polygon fill="none" stroke="black" points="742.5,-560 614.5,-560 614.5,-524 742.5,-524 742.5,-560"/>
<text text-anchor="middle" x="678.5" y="-535.8" font-family="Times New Roman,serif" font-size="24.00">LeftFrame2</text>
</g>
<!-- FrameSequence:leftFrame&#45;&gt;LeftFrame2 -->
<g id="edge18" class="edge"><title>FrameSequence:leftFrame&#45;&gt;LeftFrame2</title>
<path fill="none" stroke="black" d="M345.223,-542C429.067,-542 534.548,-542 603.895,-542"/>
<polygon fill="black" stroke="black" points="604.281,-545.5 614.281,-542 604.281,-538.5 604.281,-545.5"/>
</g>
<!-- RightFrame2 -->
<g id="node22" class="node"><title>RightFrame2</title>
<polygon fill="none" stroke="black" points="748.5,-506 608.5,-506 608.5,-470 748.5,-470 748.5,-506"/>
<text text-anchor="middle" x="678.5" y="-481.8" font-family="Times New Roman,serif" font-size="24.00">RightFrame2</text>
</g>
<!-- FrameSequence:leftFrame&#45;&gt;RightFrame2 -->
<g id="edge19" class="edge"><title>FrameSequence:leftFrame&#45;&gt;RightFrame2</title>
<path fill="none" stroke="black" d="M345.223,-526.67C426.813,-517.175 528.892,-505.295 598.225,-497.226"/>
<polygon fill="black" stroke="black" points="598.682,-500.696 608.211,-496.064 597.873,-493.743 598.682,-500.696"/>
</g>
<!-- HorizontallyScrollingManipulator:detector -->
<g id="node23" class="node"><title>HorizontallyScrollingManipulator:detector</title>
<polygon fill="none" stroke="black" points="425,-398 0,-398 0,-362 425,-362 425,-398"/>
<text text-anchor="middle" x="212.5" y="-373.8" font-family="Times New Roman,serif" font-size="24.00">HorizontallyScrollingManipulator:detector</text>
</g>
<!-- HorizontallyScrollingManipulator:detector&#45;&gt;HorizontallySwipeDetector:gestureDetector -->
<g id="edge20" class="edge"><title>HorizontallyScrollingManipulator:detector&#45;&gt;HorizontallySwipeDetector:gestureDetector</title>
<path fill="none" stroke="black" d="M368.328,-398.019C414.706,-403.416 465.729,-409.354 512.723,-414.823"/>
<polygon fill="black" stroke="black" points="512.349,-418.303 522.687,-415.983 513.159,-411.35 512.349,-418.303"/>
</g>
<!-- HorizontallySwipeableLayout -->
<g id="node24" class="node"><title>HorizontallySwipeableLayout</title>
<polygon fill="none" stroke="black" points="829.5,-398 527.5,-398 527.5,-362 829.5,-362 829.5,-398"/>
<text text-anchor="middle" x="678.5" y="-373.8" font-family="Times New Roman,serif" font-size="24.00">HorizontallySwipeableLayout</text>
</g>
<!-- HorizontallyScrollingManipulator:detector&#45;&gt;HorizontallySwipeableLayout -->
<g id="edge21" class="edge"><title>HorizontallyScrollingManipulator:detector&#45;&gt;HorizontallySwipeableLayout</title>
<path fill="none" stroke="black" d="M425.133,-373.273C456.163,-373.202 487.682,-373.294 517.448,-373.547"/>
<polygon fill="black" stroke="black" points="517.44,-377.047 527.472,-373.639 517.505,-370.047 517.44,-377.047"/>
</g>
<!-- HorizontallySwipeableLayout&#45;&gt;HorizontallyScrollingManipulator:detector -->
<g id="edge22" class="edge"><title>HorizontallySwipeableLayout&#45;&gt;HorizontallyScrollingManipulator:detector</title>
<path fill="none" stroke="black" d="M527.472,-386.361C498.004,-386.652 466.511,-386.78 435.266,-386.744"/>
<polygon fill="black" stroke="black" points="435.139,-383.244 425.133,-386.727 435.127,-390.244 435.139,-383.244"/>
</g>
</g>
</svg>
