<?xml version="1.0" encoding="UTF-8" standalone="no"?>
<!DOCTYPE svg PUBLIC "-//W3C//DTD SVG 1.1//EN"
 "http://www.w3.org/Graphics/SVG/1.1/DTD/svg11.dtd">
<!-- Generated by graphviz version 2.38.0 (20140413.2041)
 -->
<!-- Title: g Pages: 1 -->
<svg width="916pt" height="548pt"
 viewBox="0.00 0.00 915.95 548.00" xmlns="http://www.w3.org/2000/svg" xmlns:xlink="http://www.w3.org/1999/xlink">
<g id="graph0" class="graph" transform="scale(1 1) rotate(0) translate(4 544)">
<title>g</title>
<polygon fill="white" stroke="none" points="-4,4 -4,-544 911.951,-544 911.951,4 -4,4"/>
<!-- is there similiar transaction -->
<g id="node1" class="node"><title>is there similiar transaction</title>
<ellipse fill="none" stroke="black" cx="702.189" cy="-522" rx="106.681" ry="18"/>
<text text-anchor="middle" x="702.189" y="-518.3" font-family="Times New Roman,serif" font-size="14.00">is there similiar transaction</text>
</g>
<!-- Enter Password -->
<g id="node2" class="node"><title>Enter Password</title>
<ellipse fill="none" stroke="black" cx="434.189" cy="-450" rx="68.4888" ry="18"/>
<text text-anchor="middle" x="434.189" y="-446.3" font-family="Times New Roman,serif" font-size="14.00">Enter Password</text>
</g>
<!-- is there similiar transaction&#45;&gt;Enter Password -->
<g id="edge1" class="edge"><title>is there similiar transaction&#45;&gt;Enter Password</title>
<path fill="none" stroke="black" d="M646.984,-506.581C601.303,-494.649 536.673,-477.768 490.649,-465.747"/>
<polygon fill="black" stroke="black" points="491.393,-462.324 480.833,-463.183 489.624,-469.097 491.393,-462.324"/>
</g>
<!-- Alert message page -->
<g id="node3" class="node"><title>Alert message page</title>
<ellipse fill="none" stroke="black" cx="702.189" cy="-450" rx="81.4863" ry="18"/>
<text text-anchor="middle" x="702.189" y="-446.3" font-family="Times New Roman,serif" font-size="14.00">Alert message page</text>
</g>
<!-- is there similiar transaction&#45;&gt;Alert message page -->
<g id="edge2" class="edge"><title>is there similiar transaction&#45;&gt;Alert message page</title>
<path fill="none" stroke="black" d="M702.189,-503.697C702.189,-495.983 702.189,-486.712 702.189,-478.112"/>
<polygon fill="black" stroke="black" points="705.689,-478.104 702.189,-468.104 698.689,-478.104 705.689,-478.104"/>
</g>
<!-- Display Redeem Coupon Page -->
<g id="node12" class="node"><title>Display Redeem Coupon Page</title>
<ellipse fill="none" stroke="black" cx="122.189" cy="-378" rx="122.379" ry="18"/>
<text text-anchor="middle" x="122.189" y="-374.3" font-family="Times New Roman,serif" font-size="14.00">Display Redeem Coupon Page</text>
</g>
<!-- Enter Password&#45;&gt;Display Redeem Coupon Page -->
<g id="edge15" class="edge"><title>Enter Password&#45;&gt;Display Redeem Coupon Page</title>
<path fill="none" stroke="black" d="M384.061,-437.753C333.256,-426.355 254.086,-408.592 196.088,-395.58"/>
<polygon fill="black" stroke="black" points="196.769,-392.146 186.245,-393.371 195.236,-398.976 196.769,-392.146"/>
</g>
<!-- Traveler Account -->
<g id="node13" class="node"><title>Traveler Account</title>
<ellipse fill="none" stroke="black" cx="434.189" cy="-378" rx="74.187" ry="18"/>
<text text-anchor="middle" x="434.189" y="-374.3" font-family="Times New Roman,serif" font-size="14.00">Traveler Account</text>
</g>
<!-- Enter Password&#45;&gt;Traveler Account -->
<g id="edge16" class="edge"><title>Enter Password&#45;&gt;Traveler Account</title>
<path fill="none" stroke="black" d="M434.189,-431.697C434.189,-423.983 434.189,-414.712 434.189,-406.112"/>
<polygon fill="black" stroke="black" points="437.689,-406.104 434.189,-396.104 430.689,-406.104 437.689,-406.104"/>
</g>
<!-- Click cancel button -->
<g id="node4" class="node"><title>Click cancel button</title>
<ellipse fill="none" stroke="black" cx="607.189" cy="-378" rx="81.4863" ry="18"/>
<text text-anchor="middle" x="607.189" y="-374.3" font-family="Times New Roman,serif" font-size="14.00">Click cancel button</text>
</g>
<!-- Alert message page&#45;&gt;Click cancel button -->
<g id="edge5" class="edge"><title>Alert message page&#45;&gt;Click cancel button</title>
<path fill="none" stroke="black" d="M674.613,-432.941C661.171,-423.802 645.22,-412.198 632.143,-402.096"/>
<polygon fill="black" stroke="black" points="634.047,-399.14 624.021,-395.715 629.722,-404.645 634.047,-399.14"/>
</g>
<!-- Alert message page&#45;&gt;Click cancel button -->
<g id="edge19" class="edge"><title>Alert message page&#45;&gt;Click cancel button</title>
<path fill="none" stroke="black" d="M685.071,-432.055C673.307,-422.652 657.438,-410.855 643.041,-400.774"/>
<polygon fill="black" stroke="black" points="644.995,-397.869 634.777,-395.068 641.017,-403.63 644.995,-397.869"/>
</g>
<!-- Coupon Redeem Page -->
<g id="node5" class="node"><title>Coupon Redeem Page</title>
<ellipse fill="none" stroke="black" cx="745.189" cy="-306" rx="92.8835" ry="18"/>
<text text-anchor="middle" x="745.189" y="-302.3" font-family="Times New Roman,serif" font-size="14.00">Coupon Redeem Page</text>
</g>
<!-- Alert message page&#45;&gt;Coupon Redeem Page -->
<g id="edge6" class="edge"><title>Alert message page&#45;&gt;Coupon Redeem Page</title>
<path fill="none" stroke="black" d="M754.326,-436.176C775.131,-428.225 797,-415.639 809.189,-396 817.626,-382.405 815.998,-374.479 809.189,-360 803.473,-347.845 793.449,-337.52 783.006,-329.303"/>
<polygon fill="black" stroke="black" points="784.755,-326.246 774.616,-323.17 780.624,-331.897 784.755,-326.246"/>
</g>
<!-- Click cancel button&#45;&gt;Coupon Redeem Page -->
<g id="edge3" class="edge"><title>Click cancel button&#45;&gt;Coupon Redeem Page</title>
<path fill="none" stroke="black" d="M638.159,-361.291C657.68,-351.389 683.107,-338.491 704.279,-327.752"/>
<polygon fill="black" stroke="black" points="706.03,-330.788 713.365,-323.142 702.864,-324.545 706.03,-330.788"/>
</g>
<!-- Enter password -->
<g id="node9" class="node"><title>Enter password</title>
<ellipse fill="none" stroke="black" cx="750.189" cy="-234" rx="67.6881" ry="18"/>
<text text-anchor="middle" x="750.189" y="-230.3" font-family="Times New Roman,serif" font-size="14.00">Enter password</text>
</g>
<!-- Coupon Redeem Page&#45;&gt;Enter password -->
<g id="edge10" class="edge"><title>Coupon Redeem Page&#45;&gt;Enter password</title>
<path fill="none" stroke="black" d="M746.425,-287.697C746.976,-279.983 747.638,-270.712 748.253,-262.112"/>
<polygon fill="black" stroke="black" points="751.746,-262.328 748.967,-252.104 744.764,-261.83 751.746,-262.328"/>
</g>
<!-- Redeem failed page -->
<g id="node6" class="node"><title>Redeem failed page</title>
<ellipse fill="none" stroke="black" cx="679.189" cy="-18" rx="81.7856" ry="18"/>
<text text-anchor="middle" x="679.189" y="-14.3" font-family="Times New Roman,serif" font-size="14.00">Redeem failed page</text>
</g>
<!-- Redeem failed page&#45;&gt;Click cancel button -->
<g id="edge4" class="edge"><title>Redeem failed page&#45;&gt;Click cancel button</title>
<path fill="none" stroke="black" d="M663.284,-35.8456C641.268,-61.0005 604.189,-110.816 604.189,-161 604.189,-235 604.189,-235 604.189,-235 604.189,-275.013 605.395,-321.354 606.277,-349.924"/>
<polygon fill="black" stroke="black" points="602.78,-350.07 606.596,-359.953 609.776,-349.847 602.78,-350.07"/>
</g>
<!-- Traveler -->
<g id="node7" class="node"><title>Traveler</title>
<ellipse fill="none" stroke="black" cx="302.189" cy="-378" rx="40.0939" ry="18"/>
<text text-anchor="middle" x="302.189" y="-374.3" font-family="Times New Roman,serif" font-size="14.00">Traveler</text>
</g>
<!-- Traveler&#45;&gt;Coupon Redeem Page -->
<g id="edge8" class="edge"><title>Traveler&#45;&gt;Coupon Redeem Page</title>
<path fill="none" stroke="black" d="M331.706,-365.693C338.063,-363.56 344.795,-361.523 351.189,-360 451.954,-335.999 569.987,-321.924 650.408,-314.385"/>
<polygon fill="black" stroke="black" points="650.88,-317.856 660.517,-313.453 650.237,-310.886 650.88,-317.856"/>
</g>
<!-- Redeem Success Page -->
<g id="node8" class="node"><title>Redeem Success Page</title>
<ellipse fill="none" stroke="black" cx="212.189" cy="-306" rx="92.8835" ry="18"/>
<text text-anchor="middle" x="212.189" y="-302.3" font-family="Times New Roman,serif" font-size="14.00">Redeem Success Page</text>
</g>
<!-- Traveler&#45;&gt;Redeem Success Page -->
<g id="edge7" class="edge"><title>Traveler&#45;&gt;Redeem Success Page</title>
<path fill="none" stroke="black" d="M282.66,-361.811C270.673,-352.487 255.089,-340.367 241.626,-329.895"/>
<polygon fill="black" stroke="black" points="243.61,-327.005 233.568,-323.628 239.313,-332.53 243.61,-327.005"/>
</g>
<!-- Is network connection working -->
<g id="node10" class="node"><title>Is network connection working</title>
<ellipse fill="none" stroke="black" cx="755.189" cy="-162" rx="123.478" ry="18"/>
<text text-anchor="middle" x="755.189" y="-158.3" font-family="Times New Roman,serif" font-size="14.00">Is network connection working</text>
</g>
<!-- Enter password&#45;&gt;Is network connection working -->
<g id="edge9" class="edge"><title>Enter password&#45;&gt;Is network connection working</title>
<path fill="none" stroke="black" d="M751.425,-215.697C751.976,-207.983 752.638,-198.712 753.253,-190.112"/>
<polygon fill="black" stroke="black" points="756.746,-190.328 753.967,-180.104 749.764,-189.83 756.746,-190.328"/>
</g>
<!-- Is network connection working&#45;&gt;Alert message page -->
<g id="edge14" class="edge"><title>Is network connection working&#45;&gt;Alert message page</title>
<path fill="none" stroke="black" d="M786.337,-179.454C800.684,-188.482 816.793,-200.921 827.189,-216 854.897,-256.19 854.093,-275.675 847.189,-324 842.475,-356.998 848.302,-371.057 826.189,-396 810.768,-413.395 788.655,-425.269 767.361,-433.288"/>
<polygon fill="black" stroke="black" points="765.93,-430.082 757.662,-436.708 768.257,-436.684 765.93,-430.082"/>
</g>
<!-- Is password valid? -->
<g id="node11" class="node"><title>Is password valid?</title>
<ellipse fill="none" stroke="black" cx="755.189" cy="-90" rx="79.0865" ry="18"/>
<text text-anchor="middle" x="755.189" y="-86.3" font-family="Times New Roman,serif" font-size="14.00">Is password valid?</text>
</g>
<!-- Is network connection working&#45;&gt;Is password valid? -->
<g id="edge13" class="edge"><title>Is network connection working&#45;&gt;Is password valid?</title>
<path fill="none" stroke="black" d="M755.189,-143.697C755.189,-135.983 755.189,-126.712 755.189,-118.112"/>
<polygon fill="black" stroke="black" points="758.689,-118.104 755.189,-108.104 751.689,-118.104 758.689,-118.104"/>
</g>
<!-- Is password valid?&#45;&gt;is there similiar transaction -->
<g id="edge11" class="edge"><title>Is password valid?&#45;&gt;is there similiar transaction</title>
<path fill="none" stroke="black" d="M814.903,-101.849C840.654,-109.483 868.981,-122.367 887.189,-144 913.235,-174.944 906.189,-192.553 906.189,-233 906.189,-379 906.189,-379 906.189,-379 906.189,-446.446 830.146,-484.467 770.914,-503.852"/>
<polygon fill="black" stroke="black" points="769.678,-500.572 761.194,-506.918 771.784,-507.248 769.678,-500.572"/>
</g>
<!-- Is password valid?&#45;&gt;Redeem failed page -->
<g id="edge12" class="edge"><title>Is password valid?&#45;&gt;Redeem failed page</title>
<path fill="none" stroke="black" d="M737.178,-72.411C727.5,-63.4969 715.404,-52.3554 704.766,-42.558"/>
<polygon fill="black" stroke="black" points="707.061,-39.9129 697.334,-35.7125 702.318,-45.0617 707.061,-39.9129"/>
</g>
<!-- Display Redeem Coupon Page&#45;&gt;Redeem Success Page -->
<g id="edge17" class="edge"><title>Display Redeem Coupon Page&#45;&gt;Redeem Success Page</title>
<path fill="none" stroke="black" d="M143.976,-360.055C155.669,-350.96 170.241,-339.626 182.912,-329.771"/>
<polygon fill="black" stroke="black" points="185.169,-332.45 190.914,-323.547 180.872,-326.924 185.169,-332.45"/>
</g>
<!-- Employee -->
<g id="node14" class="node"><title>Employee</title>
<ellipse fill="none" stroke="black" cx="753.189" cy="-378" rx="46.5926" ry="18"/>
<text text-anchor="middle" x="753.189" y="-374.3" font-family="Times New Roman,serif" font-size="14.00">Employee</text>
</g>
<!-- Employee&#45;&gt;Coupon Redeem Page -->
<g id="edge18" class="edge"><title>Employee&#45;&gt;Coupon Redeem Page</title>
<path fill="none" stroke="black" d="M751.212,-359.697C750.33,-351.983 749.271,-342.712 748.288,-334.112"/>
<polygon fill="black" stroke="black" points="751.757,-333.642 747.144,-324.104 744.802,-334.437 751.757,-333.642"/>
</g>
</g>
</svg>
