<?xml version="1.0" encoding="UTF-8" standalone="no"?>
<!DOCTYPE svg PUBLIC "-//W3C//DTD SVG 1.1//EN"
 "http://www.w3.org/Graphics/SVG/1.1/DTD/svg11.dtd">
<!-- Generated by graphviz version 2.38.0 (20140413.2041)
 -->
<!-- Title: g Pages: 1 -->
<svg width="228pt" height="260pt"
 viewBox="0.00 0.00 227.89 260.00" xmlns="http://www.w3.org/2000/svg" xmlns:xlink="http://www.w3.org/1999/xlink">
<g id="graph0" class="graph" transform="scale(1 1) rotate(0) translate(4 256)">
<title>g</title>
<polygon fill="white" stroke="none" points="-4,4 -4,-256 223.889,-256 223.889,4 -4,4"/>
<!-- clear local cache -->
<g id="node1" class="node"><title>clear local cache</title>
<ellipse fill="none" stroke="black" cx="149.046" cy="-90" rx="70.6878" ry="18"/>
<text text-anchor="middle" x="149.046" y="-86.3" font-family="Times New Roman,serif" font-size="14.00">clear local cache</text>
</g>
<!-- cache -->
<g id="node2" class="node"><title>cache</title>
<ellipse fill="none" stroke="black" cx="150.046" cy="-18" rx="31.6951" ry="18"/>
<text text-anchor="middle" x="150.046" y="-14.3" font-family="Times New Roman,serif" font-size="14.00">cache</text>
</g>
<!-- clear local cache&#45;&gt;cache -->
<g id="edge1" class="edge"><title>clear local cache&#45;&gt;cache</title>
<path fill="none" stroke="black" d="M149.293,-71.6966C149.403,-63.9827 149.535,-54.7125 149.658,-46.1124"/>
<polygon fill="black" stroke="black" points="153.158,-46.1533 149.801,-36.1043 146.159,-46.0533 153.158,-46.1533"/>
</g>
<!-- home page -->
<g id="node3" class="node"><title>home page</title>
<ellipse fill="none" stroke="black" cx="50.0456" cy="-18" rx="50.0912" ry="18"/>
<text text-anchor="middle" x="50.0456" y="-14.3" font-family="Times New Roman,serif" font-size="14.00">home page</text>
</g>
<!-- clear local cache&#45;&gt;home page -->
<g id="edge2" class="edge"><title>clear local cache&#45;&gt;home page</title>
<path fill="none" stroke="black" d="M126.084,-72.7646C112.428,-63.1087 94.9456,-50.7475 80.1881,-40.3129"/>
<polygon fill="black" stroke="black" points="82.0492,-37.3423 71.8634,-34.4268 78.0079,-43.0579 82.0492,-37.3423"/>
</g>
<!-- Log out button -->
<g id="node4" class="node"><title>Log out button</title>
<ellipse fill="none" stroke="black" cx="146.046" cy="-162" rx="65.7887" ry="18"/>
<text text-anchor="middle" x="146.046" y="-158.3" font-family="Times New Roman,serif" font-size="14.00">Log out button</text>
</g>
<!-- Log out button&#45;&gt;clear local cache -->
<g id="edge3" class="edge"><title>Log out button&#45;&gt;clear local cache</title>
<path fill="none" stroke="black" d="M146.787,-143.697C147.118,-135.983 147.515,-126.712 147.884,-118.112"/>
<polygon fill="black" stroke="black" points="151.381,-118.245 148.313,-108.104 144.387,-117.945 151.381,-118.245"/>
</g>
<!-- User -->
<g id="node5" class="node"><title>User</title>
<ellipse fill="none" stroke="black" cx="98.0456" cy="-234" rx="27.8951" ry="18"/>
<text text-anchor="middle" x="98.0456" y="-230.3" font-family="Times New Roman,serif" font-size="14.00">User</text>
</g>
<!-- User&#45;&gt;home page -->
<g id="edge4" class="edge"><title>User&#45;&gt;home page</title>
<path fill="none" stroke="black" d="M88.0175,-216.906C82.1319,-206.705 75.0795,-193.021 71.0456,-180 56.9556,-134.521 52.3167,-78.9682 50.7911,-46.4328"/>
<polygon fill="black" stroke="black" points="54.2839,-46.1802 50.3839,-36.3293 47.2895,-46.4622 54.2839,-46.1802"/>
</g>
<!-- User&#45;&gt;Log out button -->
<g id="edge5" class="edge"><title>User&#45;&gt;Log out button</title>
<path fill="none" stroke="black" d="M108.938,-217.116C114.782,-208.592 122.124,-197.886 128.73,-188.251"/>
<polygon fill="black" stroke="black" points="131.759,-190.024 134.527,-179.797 125.985,-186.065 131.759,-190.024"/>
</g>
</g>
</svg>
