<?xml version="1.0" encoding="UTF-8" standalone="no"?>
<!DOCTYPE svg PUBLIC "-//W3C//DTD SVG 1.1//EN"
 "http://www.w3.org/Graphics/SVG/1.1/DTD/svg11.dtd">
<!-- Generated by graphviz version 2.38.0 (20140413.2041)
 -->
<!-- Title: g Pages: 1 -->
<svg width="544pt" height="486pt"
 viewBox="0.00 0.00 544.00 486.00" xmlns="http://www.w3.org/2000/svg" xmlns:xlink="http://www.w3.org/1999/xlink">
<g id="graph0" class="graph" transform="scale(1 1) rotate(0) translate(4 482)">
<title>g</title>
<polygon fill="white" stroke="none" points="-4,4 -4,-482 540,-482 540,4 -4,4"/>
<!-- EAID_88CBA27A_F213_4f80_B91A_2566942128B0 -->
<g id="node1" class="node"><title>EAID_88CBA27A_F213_4f80_B91A_2566942128B0</title>
<image xlink:href="img/control1.png" width="106px" height="75px" preserveAspectRatio="xMinYMin meet" x="102" y="-321"/>
<text text-anchor="start" x="10.5" y="-222.8" font-family="Times New Roman,serif" font-size="24.00">Check username and password</text>
</g>
<!-- EAID_148F4EA5_5B2F_4701_B68C_FCAFCA9DEEAC -->
<g id="node2" class="node"><title>EAID_148F4EA5_5B2F_4701_B68C_FCAFCA9DEEAC</title>
<image xlink:href="img/actor1.png" width="82px" height="90px" preserveAspectRatio="xMinYMin meet" x="400" y="-206"/>
<text text-anchor="start" x="355.5" y="-92.8" font-family="Times New Roman,serif" font-size="24.00">Facebook Service</text>
</g>
<!-- EAID_88CBA27A_F213_4f80_B91A_2566942128B0&#45;&gt;EAID_148F4EA5_5B2F_4701_B68C_FCAFCA9DEEAC -->
<g id="edge1" class="edge"><title>EAID_88CBA27A_F213_4f80_B91A_2566942128B0&#45;&gt;EAID_148F4EA5_5B2F_4701_B68C_FCAFCA9DEEAC</title>
<path fill="none" stroke="black" d="M290.846,-210.382C305.847,-203.885 320.947,-197.345 335.475,-191.053"/>
<polygon fill="black" stroke="black" points="337.147,-194.143 344.932,-186.957 334.365,-187.72 337.147,-194.143"/>
</g>
<!-- EAID_C99981CE_38A8_458e_9DF6_3B6B8E57CBF1 -->
<g id="node4" class="node"><title>EAID_C99981CE_38A8_458e_9DF6_3B6B8E57CBF1</title>
<image xlink:href="img/boundary3.png" width="115px" height="67px" preserveAspectRatio="xMinYMin meet" x="383" y="-460"/>
<text text-anchor="start" x="366.5" y="-369.8" font-family="Times New Roman,serif" font-size="24.00">App Main Page</text>
</g>
<!-- EAID_88CBA27A_F213_4f80_B91A_2566942128B0&#45;&gt;EAID_C99981CE_38A8_458e_9DF6_3B6B8E57CBF1 -->
<g id="edge4" class="edge"><title>EAID_88CBA27A_F213_4f80_B91A_2566942128B0&#45;&gt;EAID_C99981CE_38A8_458e_9DF6_3B6B8E57CBF1</title>
<path fill="none" stroke="black" d="M289.834,-327.524C296.343,-330.668 302.761,-333.836 309,-337 321.593,-343.386 334.683,-350.417 347.5,-357.537"/>
<polygon fill="black" stroke="black" points="345.884,-360.643 356.32,-362.473 349.303,-354.535 345.884,-360.643"/>
</g>
<!-- EAID_6A00FBD5_3E4F_4969_8E0D_4E2832388855 -->
<g id="node5" class="node"><title>EAID_6A00FBD5_3E4F_4969_8E0D_4E2832388855</title>
<image xlink:href="img/boundary3.png" width="108px" height="67px" preserveAspectRatio="xMinYMin meet" x="386.5" y="-333"/>
<text text-anchor="start" x="386.5" y="-242.8" font-family="Times New Roman,serif" font-size="24.00">Login Page</text>
</g>
<!-- EAID_88CBA27A_F213_4f80_B91A_2566942128B0&#45;&gt;EAID_6A00FBD5_3E4F_4969_8E0D_4E2832388855 -->
<g id="edge6" class="edge"><title>EAID_88CBA27A_F213_4f80_B91A_2566942128B0&#45;&gt;EAID_6A00FBD5_3E4F_4969_8E0D_4E2832388855</title>
<path fill="none" stroke="black" d="M309.137,-270.926C329.021,-272.115 348.599,-273.465 366.297,-274.886"/>
<polygon fill="black" stroke="black" points="366.233,-278.393 376.488,-275.73 366.811,-271.417 366.233,-278.393"/>
</g>
<!-- EAID_36E866C9_DB10_4d96_B588_365FB872D62E -->
<g id="node6" class="node"><title>EAID_36E866C9_DB10_4d96_B588_365FB872D62E</title>
<image xlink:href="img/activity_icon.png" width="30px" height="20px" preserveAspectRatio="xMinYMin meet" x="425.5" y="-56"/>
<text text-anchor="start" x="416.5" y="-13.8" font-family="Times New Roman,serif" font-weight="bold" font-size="24.00">User</text>
</g>
<!-- EAID_88CBA27A_F213_4f80_B91A_2566942128B0&#45;&gt;EAID_36E866C9_DB10_4d96_B588_365FB872D62E -->
<g id="edge5" class="edge"><title>EAID_88CBA27A_F213_4f80_B91A_2566942128B0&#45;&gt;EAID_36E866C9_DB10_4d96_B588_365FB872D62E</title>
<path fill="none" stroke="black" d="M200.562,-210.357C236.059,-167.291 288.796,-109.771 345,-71 360.691,-60.1757 379.774,-51.4119 396.673,-44.8771"/>
<polygon fill="black" stroke="black" points="398.174,-48.0532 406.328,-41.2884 395.735,-41.4918 398.174,-48.0532"/>
</g>
<!-- EAID_565F4FA6_4F56_47b7_81B1_E2960D50FFC8 -->
<g id="node3" class="node"><title>EAID_565F4FA6_4F56_47b7_81B1_E2960D50FFC8</title>
<image xlink:href="img/actor1.png" width="61px" height="90px" preserveAspectRatio="xMinYMin meet" x="124.5" y="-472"/>
<text text-anchor="start" x="133" y="-358.8" font-family="Times New Roman,serif" font-size="24.00">User</text>
</g>
<!-- EAID_565F4FA6_4F56_47b7_81B1_E2960D50FFC8&#45;&gt;EAID_C99981CE_38A8_458e_9DF6_3B6B8E57CBF1 -->
<g id="edge2" class="edge"><title>EAID_565F4FA6_4F56_47b7_81B1_E2960D50FFC8&#45;&gt;EAID_C99981CE_38A8_458e_9DF6_3B6B8E57CBF1</title>
<path fill="none" stroke="black" d="M195.288,-412C234.287,-412 295.168,-412 346.385,-412"/>
<polygon fill="black" stroke="black" points="346.49,-415.5 356.49,-412 346.49,-408.5 346.49,-415.5"/>
</g>
<!-- EAID_565F4FA6_4F56_47b7_81B1_E2960D50FFC8&#45;&gt;EAID_6A00FBD5_3E4F_4969_8E0D_4E2832388855 -->
<g id="edge3" class="edge"><title>EAID_565F4FA6_4F56_47b7_81B1_E2960D50FFC8&#45;&gt;EAID_6A00FBD5_3E4F_4969_8E0D_4E2832388855</title>
<path fill="none" stroke="black" d="M195.288,-394.207C239.735,-374.331 312.605,-341.746 367.197,-317.333"/>
<polygon fill="black" stroke="black" points="368.779,-320.459 376.479,-313.182 365.922,-314.069 368.779,-320.459"/>
</g>
<!-- EAID_6A00FBD5_3E4F_4969_8E0D_4E2832388855&#45;&gt;EAID_88CBA27A_F213_4f80_B91A_2566942128B0 -->
<g id="edge7" class="edge"><title>EAID_6A00FBD5_3E4F_4969_8E0D_4E2832388855&#45;&gt;EAID_88CBA27A_F213_4f80_B91A_2566942128B0</title>
<path fill="none" stroke="black" d="M376.488,-287.17C359.115,-286.699 339.428,-285.91 319.138,-284.899"/>
<polygon fill="black" stroke="black" points="319.303,-281.403 309.137,-284.385 318.944,-288.394 319.303,-281.403"/>
</g>
</g>
</svg>
