<?xml version="1.0" encoding="UTF-8" standalone="no"?>
<!DOCTYPE svg PUBLIC "-//W3C//DTD SVG 1.1//EN"
 "http://www.w3.org/Graphics/SVG/1.1/DTD/svg11.dtd">
<!-- Generated by graphviz version 2.38.0 (20140413.2041)
 -->
<!-- Title: g Pages: 1 -->
<svg width="2255pt" height="669pt"
 viewBox="0.00 0.00 2255.00 669.00" xmlns="http://www.w3.org/2000/svg" xmlns:xlink="http://www.w3.org/1999/xlink">
<g id="graph0" class="graph" transform="scale(1 1) rotate(0) translate(4 665)">
<title>g</title>
<polygon fill="white" stroke="none" points="-4,4 -4,-665 2251,-665 2251,4 -4,4"/>
<g id="clust1" class="cluster"><title>cluster0</title>
<polygon fill="none" stroke="black" stroke-width="2" points="1513,-91 1513,-555 1733,-555 1733,-91 1513,-91"/>
<text text-anchor="start" x="1601" y="-540.8" font-family="Times New Roman,serif" font-weight="bold" font-size="14.00">System</text>
</g>
<g id="clust3" class="cluster"><title>cluster1000</title>
<polygon fill="none" stroke="black" stroke-width="2" points="8,-8 8,-83 2239,-83 2239,-8 8,-8"/>
<text text-anchor="start" x="1078" y="-68.8" font-family="Times New Roman,serif" font-weight="bold" font-size="14.00">Domain Model</text>
</g>
<g id="clust2" class="cluster"><title>cluster1</title>
<polygon fill="none" stroke="black" stroke-width="2" points="1536,-563 1536,-653 1732,-653 1732,-563 1536,-563"/>
<text text-anchor="start" x="1619.5" y="-638.8" font-family="Times New Roman,serif" font-weight="bold" font-size="14.00">User</text>
</g>
<!-- EAID_E39DB03A_1008_4d62_AA48_9ABDED59C692___EAID_D98C0879_A0EB_4556_B707_2E30236B1C5C -->
<g id="node1" class="node"><title>EAID_E39DB03A_1008_4d62_AA48_9ABDED59C692___EAID_D98C0879_A0EB_4556_B707_2E30236B1C5C</title>
<image xlink:href="img/activity_icon.png" width="30px" height="20px" preserveAspectRatio="xMinYMin meet" x="1619" y="-517.5"/>
<text text-anchor="start" x="1565" y="-483.3" font-family="Times New Roman,serif" font-weight="bold" font-size="14.00">User:Download button</text>
</g>
<!-- EAID_D98C0879_A0EB_4556_B707_2E30236B1C5C___EAID_756FEF97_8317_4f5a_9774_168F735F5ADF -->
<g id="node2" class="node"><title>EAID_D98C0879_A0EB_4556_B707_2E30236B1C5C___EAID_756FEF97_8317_4f5a_9774_168F735F5ADF</title>
<image xlink:href="img/activity_icon.png" width="30px" height="20px" preserveAspectRatio="xMinYMin meet" x="1608" y="-431"/>
<text text-anchor="start" x="1531" y="-396.8" font-family="Times New Roman,serif" font-weight="bold" font-size="14.00">Download button:download to</text>
<text text-anchor="start" x="1604.5" y="-382.8" font-family="Times New Roman,serif" font-weight="bold" font-size="14.00">phone</text>
</g>
<!-- EAID_E39DB03A_1008_4d62_AA48_9ABDED59C692___EAID_D98C0879_A0EB_4556_B707_2E30236B1C5C&#45;&gt;EAID_D98C0879_A0EB_4556_B707_2E30236B1C5C___EAID_756FEF97_8317_4f5a_9774_168F735F5ADF -->
<g id="edge1" class="edge"><title>EAID_E39DB03A_1008_4d62_AA48_9ABDED59C692___EAID_D98C0879_A0EB_4556_B707_2E30236B1C5C&#45;&gt;EAID_D98C0879_A0EB_4556_B707_2E30236B1C5C___EAID_756FEF97_8317_4f5a_9774_168F735F5ADF</title>
<path fill="none" stroke="black" d="M1631.05,-472.98C1630.1,-465.066 1629.02,-456.063 1627.96,-447.281"/>
<polygon fill="black" stroke="black" points="1631.41,-446.664 1626.75,-437.153 1624.46,-447.5 1631.41,-446.664"/>
</g>
<!-- EAID_756FEF97_8317_4f5a_9774_168F735F5ADF -->
<g id="node20" class="node"><title>EAID_756FEF97_8317_4f5a_9774_168F735F5ADF</title>
<polygon fill="none" stroke="black" points="1776,-23 1776,-44 1898,-44 1898,-23 1776,-23"/>
<text text-anchor="start" x="1779" y="-30.8" font-family="Times New Roman,serif" font-weight="bold" font-size="14.00">download to phone</text>
<polygon fill="none" stroke="black" points="1775,-22.5 1775,-45.5 1899,-45.5 1899,-22.5 1775,-22.5"/>
</g>
<!-- EAID_E39DB03A_1008_4d62_AA48_9ABDED59C692___EAID_D98C0879_A0EB_4556_B707_2E30236B1C5C&#45;&gt;EAID_756FEF97_8317_4f5a_9774_168F735F5ADF -->
<g id="edge8" class="edge"><title>EAID_E39DB03A_1008_4d62_AA48_9ABDED59C692___EAID_D98C0879_A0EB_4556_B707_2E30236B1C5C&#45;&gt;EAID_756FEF97_8317_4f5a_9774_168F735F5ADF</title>
<path fill="none" stroke="black" stroke-dasharray="5,2" d="M1694.63,-472.898C1754.45,-444.136 1837,-390.342 1837,-312.5 1837,-312.5 1837,-312.5 1837,-223.5 1837,-166.261 1837,-99.2446 1837,-62.5305"/>
<polygon fill="black" stroke="black" points="1840.5,-62.1536 1837,-52.1537 1833.5,-62.1537 1840.5,-62.1536"/>
</g>
<!-- EAID_756FEF97_8317_4f5a_9774_168F735F5ADF___EAID_2B1DB996_C3A7_4dde_B168_25CF5C6D02B9 -->
<g id="node3" class="node"><title>EAID_756FEF97_8317_4f5a_9774_168F735F5ADF___EAID_2B1DB996_C3A7_4dde_B168_25CF5C6D02B9</title>
<image xlink:href="img/activity_icon.png" width="30px" height="20px" preserveAspectRatio="xMinYMin meet" x="1593" y="-157"/>
<text text-anchor="start" x="1531" y="-122.8" font-family="Times New Roman,serif" font-weight="bold" font-size="14.00">download to phone:Local</text>
<text text-anchor="start" x="1583.5" y="-108.8" font-family="Times New Roman,serif" font-weight="bold" font-size="14.00">Storage</text>
</g>
<!-- EAID_D98C0879_A0EB_4556_B707_2E30236B1C5C___EAID_756FEF97_8317_4f5a_9774_168F735F5ADF&#45;&gt;EAID_756FEF97_8317_4f5a_9774_168F735F5ADF___EAID_2B1DB996_C3A7_4dde_B168_25CF5C6D02B9 -->
<g id="edge3" class="edge"><title>EAID_D98C0879_A0EB_4556_B707_2E30236B1C5C___EAID_756FEF97_8317_4f5a_9774_168F735F5ADF&#45;&gt;EAID_756FEF97_8317_4f5a_9774_168F735F5ADF___EAID_2B1DB996_C3A7_4dde_B168_25CF5C6D02B9</title>
<path fill="none" stroke="black" d="M1563.62,-372.76C1550.91,-363.097 1539.17,-351.182 1532,-337 1504.33,-282.264 1506.76,-254.899 1532,-199 1536.86,-188.229 1544.41,-178.497 1552.89,-170"/>
<polygon fill="black" stroke="black" points="1555.29,-172.547 1560.2,-163.157 1550.51,-167.436 1555.29,-172.547"/>
</g>
<!-- EAID_756FEF97_8317_4f5a_9774_168F735F5ADF___EAID_49C05780_7F09_42a6_AE8E_ED98D87A28FA -->
<g id="node5" class="node"><title>EAID_756FEF97_8317_4f5a_9774_168F735F5ADF___EAID_49C05780_7F09_42a6_AE8E_ED98D87A28FA</title>
<image xlink:href="img/activity_icon.png" width="30px" height="20px" preserveAspectRatio="xMinYMin meet" x="1618" y="-330.5"/>
<text text-anchor="start" x="1551" y="-296.3" font-family="Times New Roman,serif" font-weight="bold" font-size="14.00">download to phone:Picture</text>
</g>
<!-- EAID_D98C0879_A0EB_4556_B707_2E30236B1C5C___EAID_756FEF97_8317_4f5a_9774_168F735F5ADF&#45;&gt;EAID_756FEF97_8317_4f5a_9774_168F735F5ADF___EAID_49C05780_7F09_42a6_AE8E_ED98D87A28FA -->
<g id="edge4" class="edge"><title>EAID_D98C0879_A0EB_4556_B707_2E30236B1C5C___EAID_756FEF97_8317_4f5a_9774_168F735F5ADF&#45;&gt;EAID_756FEF97_8317_4f5a_9774_168F735F5ADF___EAID_49C05780_7F09_42a6_AE8E_ED98D87A28FA</title>
<path fill="none" stroke="black" d="M1626.41,-372.767C1627.3,-364.613 1628.27,-355.773 1629.18,-347.44"/>
<polygon fill="black" stroke="black" points="1632.69,-347.567 1630.3,-337.246 1625.73,-346.807 1632.69,-347.567"/>
</g>
<!-- EAID_D98C0879_A0EB_4556_B707_2E30236B1C5C___EAID_756FEF97_8317_4f5a_9774_168F735F5ADF&#45;&gt;EAID_756FEF97_8317_4f5a_9774_168F735F5ADF -->
<g id="edge9" class="edge"><title>EAID_D98C0879_A0EB_4556_B707_2E30236B1C5C___EAID_756FEF97_8317_4f5a_9774_168F735F5ADF&#45;&gt;EAID_756FEF97_8317_4f5a_9774_168F735F5ADF</title>
<path fill="none" stroke="black" stroke-dasharray="5,2" d="M1691.37,-372.96C1707.06,-363.265 1722.49,-351.285 1734,-337 1769.39,-293.073 1813.66,-127.901 1830.28,-62.1992"/>
<polygon fill="black" stroke="black" points="1833.76,-62.7406 1832.8,-52.1894 1826.97,-61.0363 1833.76,-62.7406"/>
</g>
<!-- EAID_73CA8CEE_601A_4619_A3C1_900CC5B2819F -->
<g id="node17" class="node"><title>EAID_73CA8CEE_601A_4619_A3C1_900CC5B2819F</title>
<polygon fill="none" stroke="black" points="25,-23 25,-44 211,-44 211,-23 25,-23"/>
<text text-anchor="start" x="28" y="-30.8" font-family="Times New Roman,serif" font-weight="bold" font-size="14.00">Clear Local Storage and Exit</text>
<polygon fill="none" stroke="black" points="24,-22.5 24,-45.5 212,-45.5 212,-22.5 24,-22.5"/>
</g>
<!-- EAID_756FEF97_8317_4f5a_9774_168F735F5ADF___EAID_2B1DB996_C3A7_4dde_B168_25CF5C6D02B9&#45;&gt;EAID_73CA8CEE_601A_4619_A3C1_900CC5B2819F -->
<g id="edge10" class="edge"><title>EAID_756FEF97_8317_4f5a_9774_168F735F5ADF___EAID_2B1DB996_C3A7_4dde_B168_25CF5C6D02B9&#45;&gt;EAID_73CA8CEE_601A_4619_A3C1_900CC5B2819F</title>
<path fill="none" stroke="black" stroke-dasharray="5,2" d="M1520.91,-128.916C1237.78,-125.131 354.331,-111.172 229,-83 204.486,-77.4896 178.635,-66.6418 158.053,-56.6509"/>
<polygon fill="black" stroke="black" points="159.504,-53.4634 148.991,-52.1431 156.386,-59.7307 159.504,-53.4634"/>
</g>
<!-- EAID_49C05780_7F09_42a6_AE8E_ED98D87A28FA___EAID_756FEF97_8317_4f5a_9774_168F735F5ADF -->
<g id="node4" class="node"><title>EAID_49C05780_7F09_42a6_AE8E_ED98D87A28FA___EAID_756FEF97_8317_4f5a_9774_168F735F5ADF</title>
<image xlink:href="img/activity_icon.png" width="30px" height="20px" preserveAspectRatio="xMinYMin meet" x="1618" y="-243.5"/>
<text text-anchor="start" x="1551" y="-209.3" font-family="Times New Roman,serif" font-weight="bold" font-size="14.00">Picture:download to phone</text>
</g>
<!-- EAID_49C05780_7F09_42a6_AE8E_ED98D87A28FA___EAID_756FEF97_8317_4f5a_9774_168F735F5ADF&#45;&gt;EAID_756FEF97_8317_4f5a_9774_168F735F5ADF___EAID_2B1DB996_C3A7_4dde_B168_25CF5C6D02B9 -->
<g id="edge5" class="edge"><title>EAID_49C05780_7F09_42a6_AE8E_ED98D87A28FA___EAID_756FEF97_8317_4f5a_9774_168F735F5ADF&#45;&gt;EAID_756FEF97_8317_4f5a_9774_168F735F5ADF___EAID_2B1DB996_C3A7_4dde_B168_25CF5C6D02B9</title>
<path fill="none" stroke="black" d="M1626.3,-198.98C1624.11,-190.98 1621.62,-181.867 1619.2,-172.995"/>
<polygon fill="black" stroke="black" points="1622.52,-171.877 1616.51,-163.153 1615.77,-173.722 1622.52,-171.877"/>
</g>
<!-- EAID_49C05780_7F09_42a6_AE8E_ED98D87A28FA___EAID_756FEF97_8317_4f5a_9774_168F735F5ADF&#45;&gt;EAID_756FEF97_8317_4f5a_9774_168F735F5ADF___EAID_49C05780_7F09_42a6_AE8E_ED98D87A28FA -->
<g id="edge6" class="edge"><title>EAID_49C05780_7F09_42a6_AE8E_ED98D87A28FA___EAID_756FEF97_8317_4f5a_9774_168F735F5ADF&#45;&gt;EAID_756FEF97_8317_4f5a_9774_168F735F5ADF___EAID_49C05780_7F09_42a6_AE8E_ED98D87A28FA</title>
<path fill="none" stroke="black" d="M1639.18,-250.03C1639.72,-258.043 1639.88,-267.1 1639.65,-275.718"/>
<polygon fill="black" stroke="black" points="1636.14,-275.766 1639.19,-285.914 1643.14,-276.084 1636.14,-275.766"/>
</g>
<!-- EAID_49C05780_7F09_42a6_AE8E_ED98D87A28FA___EAID_756FEF97_8317_4f5a_9774_168F735F5ADF&#45;&gt;EAID_756FEF97_8317_4f5a_9774_168F735F5ADF -->
<g id="edge11" class="edge"><title>EAID_49C05780_7F09_42a6_AE8E_ED98D87A28FA___EAID_756FEF97_8317_4f5a_9774_168F735F5ADF&#45;&gt;EAID_756FEF97_8317_4f5a_9774_168F735F5ADF</title>
<path fill="none" stroke="black" stroke-dasharray="5,2" d="M1662.71,-198.873C1675.56,-188.044 1690.68,-175.068 1704,-163 1742.7,-127.951 1786.01,-85.6718 1812.38,-59.56"/>
<polygon fill="black" stroke="black" points="1815.05,-61.8498 1819.68,-52.3224 1810.12,-56.8802 1815.05,-61.8498"/>
</g>
<!-- EAID_756FEF97_8317_4f5a_9774_168F735F5ADF___EAID_49C05780_7F09_42a6_AE8E_ED98D87A28FA&#45;&gt;EAID_49C05780_7F09_42a6_AE8E_ED98D87A28FA___EAID_756FEF97_8317_4f5a_9774_168F735F5ADF -->
<g id="edge7" class="edge"><title>EAID_756FEF97_8317_4f5a_9774_168F735F5ADF___EAID_49C05780_7F09_42a6_AE8E_ED98D87A28FA&#45;&gt;EAID_49C05780_7F09_42a6_AE8E_ED98D87A28FA___EAID_756FEF97_8317_4f5a_9774_168F735F5ADF</title>
<path fill="none" stroke="black" d="M1626.81,-285.914C1626.28,-277.897 1626.12,-268.839 1626.35,-260.222"/>
<polygon fill="black" stroke="black" points="1629.86,-260.18 1626.82,-250.03 1622.86,-259.86 1629.86,-260.18"/>
</g>
<!-- EAID_5D796940_815A_4ec8_A040_583FA48AA027 -->
<g id="node10" class="node"><title>EAID_5D796940_815A_4ec8_A040_583FA48AA027</title>
<polygon fill="none" stroke="black" points="557,-23 557,-44 657,-44 657,-23 557,-23"/>
<text text-anchor="start" x="560" y="-30.8" font-family="Times New Roman,serif" font-weight="bold" font-size="14.00">Picture Display</text>
<polygon fill="none" stroke="black" points="556,-22.5 556,-45.5 658,-45.5 658,-22.5 556,-22.5"/>
</g>
<!-- EAID_756FEF97_8317_4f5a_9774_168F735F5ADF___EAID_49C05780_7F09_42a6_AE8E_ED98D87A28FA&#45;&gt;EAID_5D796940_815A_4ec8_A040_583FA48AA027 -->
<g id="edge12" class="edge"><title>EAID_756FEF97_8317_4f5a_9774_168F735F5ADF___EAID_49C05780_7F09_42a6_AE8E_ED98D87A28FA&#45;&gt;EAID_5D796940_815A_4ec8_A040_583FA48AA027</title>
<path fill="none" stroke="black" stroke-dasharray="5,2" d="M1696.26,-285.971C1711.26,-277.001 1725.38,-265.205 1734,-250 1757.08,-209.265 1708.67,-94.5753 1704,-91 1681.31,-73.6146 702.211,-91.753 675,-83 659.464,-78.0025 644.401,-68.0725 632.418,-58.5346"/>
<polygon fill="black" stroke="black" points="634.569,-55.7714 624.646,-52.0596 630.089,-61.1496 634.569,-55.7714"/>
</g>
<!-- EAID_E39DB03A_1008_4d62_AA48_9ABDED59C692___EAID_D98C0879_A0EB_4556_B707_2E30236B1C5C_STL -->
<g id="node6" class="node"><title>EAID_E39DB03A_1008_4d62_AA48_9ABDED59C692___EAID_D98C0879_A0EB_4556_B707_2E30236B1C5C_STL</title>
<image xlink:href="img/stimulus_icon.png" width="30px" height="20px" preserveAspectRatio="xMinYMin meet" x="1619" y="-615.5"/>
<text text-anchor="start" x="1554" y="-581.3" font-family="Times New Roman,serif" font-weight="bold" font-size="14.00">stl#User:Download button</text>
</g>
<!-- EAID_E39DB03A_1008_4d62_AA48_9ABDED59C692___EAID_D98C0879_A0EB_4556_B707_2E30236B1C5C_STL&#45;&gt;EAID_E39DB03A_1008_4d62_AA48_9ABDED59C692___EAID_D98C0879_A0EB_4556_B707_2E30236B1C5C -->
<g id="edge2" class="edge"><title>EAID_E39DB03A_1008_4d62_AA48_9ABDED59C692___EAID_D98C0879_A0EB_4556_B707_2E30236B1C5C_STL&#45;&gt;EAID_E39DB03A_1008_4d62_AA48_9ABDED59C692___EAID_D98C0879_A0EB_4556_B707_2E30236B1C5C</title>
<path fill="none" stroke="black" d="M1634,-570.778C1634,-559.692 1634,-546.42 1634,-534.351"/>
<polygon fill="black" stroke="black" points="1637.5,-534.139 1634,-524.139 1630.5,-534.139 1637.5,-534.139"/>
</g>
<!-- EAID_65C14CA6_B97E_44c6_AD66_8EACEA65ACC8 -->
<g id="node7" class="node"><title>EAID_65C14CA6_B97E_44c6_AD66_8EACEA65ACC8</title>
<polygon fill="none" stroke="black" points="2187,-23 2187,-44 2222,-44 2222,-23 2187,-23"/>
<text text-anchor="start" x="2190" y="-30.8" font-family="Times New Roman,serif" font-weight="bold" font-size="14.00">User</text>
<polygon fill="none" stroke="black" points="2185.5,-22.5 2185.5,-45.5 2222.5,-45.5 2222.5,-22.5 2185.5,-22.5"/>
</g>
<!-- EAID_7A60B82A_7E49_4a91_896C_88036575E0B9 -->
<g id="node8" class="node"><title>EAID_7A60B82A_7E49_4a91_896C_88036575E0B9</title>
<polygon fill="none" stroke="black" points="2063,-23 2063,-44 2150,-44 2150,-23 2063,-23"/>
<text text-anchor="start" x="2066" y="-30.8" font-family="Times New Roman,serif" font-weight="bold" font-size="14.00">Hashtag icon</text>
<polygon fill="none" stroke="black" points="2061.5,-22.5 2061.5,-45.5 2150.5,-45.5 2150.5,-22.5 2061.5,-22.5"/>
</g>
<!-- EAID_0C9775C5_EF89_47f8_97E3_A9DAFF21F116 -->
<g id="node9" class="node"><title>EAID_0C9775C5_EF89_47f8_97E3_A9DAFF21F116</title>
<polygon fill="none" stroke="black" points="1934,-23 1934,-44 2026,-44 2026,-23 1934,-23"/>
<text text-anchor="start" x="1937" y="-30.8" font-family="Times New Roman,serif" font-weight="bold" font-size="14.00">Search Result</text>
<polygon fill="none" stroke="black" points="1933,-22.5 1933,-45.5 2027,-45.5 2027,-22.5 1933,-22.5"/>
</g>
<!-- EAID_3397D48E_64F1_4203_8534_37361851C29B -->
<g id="node11" class="node"><title>EAID_3397D48E_64F1_4203_8534_37361851C29B</title>
<polygon fill="none" stroke="black" points="1694,-23 1694,-44 1740,-44 1740,-23 1694,-23"/>
<text text-anchor="start" x="1697" y="-30.8" font-family="Times New Roman,serif" font-weight="bold" font-size="14.00">Admin</text>
<polygon fill="none" stroke="black" points="1693,-22.5 1693,-45.5 1741,-45.5 1741,-22.5 1693,-22.5"/>
</g>
<!-- EAID_F313F557_21C2_4e7f_A89E_53985F2C4313 -->
<g id="node12" class="node"><title>EAID_F313F557_21C2_4e7f_A89E_53985F2C4313</title>
<polygon fill="none" stroke="black" points="1402,-23 1402,-44 1658,-44 1658,-23 1402,-23"/>
<text text-anchor="start" x="1405" y="-30.8" font-family="Times New Roman,serif" font-weight="bold" font-size="14.00">Private Event Name and Password Input</text>
<polygon fill="none" stroke="black" points="1401,-22.5 1401,-45.5 1659,-45.5 1659,-22.5 1401,-22.5"/>
</g>
<!-- EAID_80E4B179_2ACA_4847_95D3_EC956BEDFABF -->
<g id="node13" class="node"><title>EAID_80E4B179_2ACA_4847_95D3_EC956BEDFABF</title>
<polygon fill="none" stroke="black" points="1155,-23 1155,-44 1366,-44 1366,-23 1155,-23"/>
<text text-anchor="start" x="1158" y="-30.8" font-family="Times New Roman,serif" font-weight="bold" font-size="14.00">Warning information of duplicate</text>
<polygon fill="none" stroke="black" points="1153.5,-22.5 1153.5,-45.5 1366.5,-45.5 1366.5,-22.5 1153.5,-22.5"/>
</g>
<!-- EAID_74234FC7_1CBE_417e_8DA5_DE56B8B6D3A6 -->
<g id="node14" class="node"><title>EAID_74234FC7_1CBE_417e_8DA5_DE56B8B6D3A6</title>
<polygon fill="none" stroke="black" points="1028,-23 1028,-44 1119,-44 1119,-23 1028,-23"/>
<text text-anchor="start" x="1031" y="-30.8" font-family="Times New Roman,serif" font-weight="bold" font-size="14.00">Delete Button</text>
<polygon fill="none" stroke="black" points="1026.5,-22.5 1026.5,-45.5 1119.5,-45.5 1119.5,-22.5 1026.5,-22.5"/>
</g>
<!-- EAID_0E684785_80D6_4668_8A84_3504E38A3B17 -->
<g id="node15" class="node"><title>EAID_0E684785_80D6_4668_8A84_3504E38A3B17</title>
<polygon fill="none" stroke="black" points="831,-23 831,-44 991,-44 991,-23 831,-23"/>
<text text-anchor="start" x="834" y="-30.8" font-family="Times New Roman,serif" font-weight="bold" font-size="14.00">The total number of likes</text>
<polygon fill="none" stroke="black" points="830,-22.5 830,-45.5 992,-45.5 992,-22.5 830,-22.5"/>
</g>
<!-- EAID_C99981CE_38A8_458e_9DF6_3B6B8E57CBF1 -->
<g id="node16" class="node"><title>EAID_C99981CE_38A8_458e_9DF6_3B6B8E57CBF1</title>
<polygon fill="none" stroke="black" points="693,-23 693,-44 795,-44 795,-23 693,-23"/>
<text text-anchor="start" x="696" y="-30.8" font-family="Times New Roman,serif" font-weight="bold" font-size="14.00">App Main Page</text>
<polygon fill="none" stroke="black" points="692,-22.5 692,-45.5 796,-45.5 796,-22.5 692,-22.5"/>
</g>
<!-- EAID_5B081FBB_04D9_4adb_B481_B2FA80955739 -->
<g id="node18" class="node"><title>EAID_5B081FBB_04D9_4adb_B481_B2FA80955739</title>
<polygon fill="none" stroke="black" points="421,-23 421,-44 521,-44 521,-23 421,-23"/>
<text text-anchor="start" x="424" y="-30.8" font-family="Times New Roman,serif" font-weight="bold" font-size="14.00">Options to post</text>
<polygon fill="none" stroke="black" points="420,-22.5 420,-45.5 522,-45.5 522,-22.5 420,-22.5"/>
</g>
<!-- EAID_4114324C_3DC0_41e4_BBDB_E0406E508C8A -->
<g id="node19" class="node"><title>EAID_4114324C_3DC0_41e4_BBDB_E0406E508C8A</title>
<polygon fill="none" stroke="black" points="248,-23 248,-44 385,-44 385,-23 248,-23"/>
<text text-anchor="start" x="251" y="-30.8" font-family="Times New Roman,serif" font-weight="bold" font-size="14.00">report confirm dialog</text>
<polygon fill="none" stroke="black" points="246.5,-22.5 246.5,-45.5 385.5,-45.5 385.5,-22.5 246.5,-22.5"/>
</g>
</g>
</svg>
