<?xml version="1.0" encoding="UTF-8" standalone="no"?>
<!DOCTYPE svg PUBLIC "-//W3C//DTD SVG 1.1//EN"
 "http://www.w3.org/Graphics/SVG/1.1/DTD/svg11.dtd">
<!-- Generated by graphviz version 2.38.0 (20140413.2041)
 -->
<!-- Title: g Pages: 1 -->
<svg width="885pt" height="239pt"
 viewBox="0.00 0.00 885.00 238.50" xmlns="http://www.w3.org/2000/svg" xmlns:xlink="http://www.w3.org/1999/xlink">
<g id="graph0" class="graph" transform="scale(1 1) rotate(0) translate(4 234.5)">
<title>g</title>
<polygon fill="white" stroke="none" points="-4,4 -4,-234.5 881,-234.5 881,4 -4,4"/>
<!-- EAID_F32B3FDA_2883_4641_8106_06CE9A6260F5 -->
<g id="node1" class="node"><title>EAID_F32B3FDA_2883_4641_8106_06CE9A6260F5</title>
<image xlink:href="img/actor1.png" width="61px" height="90px" preserveAspectRatio="xMinYMin meet" x="10.5" y="-126"/>
<text text-anchor="start" x="19" y="-12.8" font-family="Times New Roman,serif" font-size="24.00">User</text>
</g>
<!-- EAID_0CBA1C5A_B37B_4488_B9EB_8936090CD86E -->
<g id="node2" class="node"><title>EAID_0CBA1C5A_B37B_4488_B9EB_8936090CD86E</title>
<image xlink:href="img/boundary3.png" width="115px" height="67px" preserveAspectRatio="xMinYMin meet" x="155.5" y="-156"/>
<text text-anchor="start" x="127.5" y="-65.8" font-family="Times New Roman,serif" font-size="24.00">Search name page</text>
</g>
<!-- EAID_F32B3FDA_2883_4641_8106_06CE9A6260F5&#45;&gt;EAID_0CBA1C5A_B37B_4488_B9EB_8936090CD86E -->
<g id="edge1" class="edge"><title>EAID_F32B3FDA_2883_4641_8106_06CE9A6260F5&#45;&gt;EAID_0CBA1C5A_B37B_4488_B9EB_8936090CD86E</title>
<path fill="none" stroke="black" d="M81.3574,-75.8471C89.2852,-77.8058 97.951,-79.9467 106.925,-82.1637"/>
<polygon fill="black" stroke="black" points="106.215,-85.5935 116.762,-84.5942 107.894,-78.7978 106.215,-85.5935"/>
</g>
<!-- EAID_9DFEEF9B_F2B8_4cae_83A3_8AEAF8B1516C -->
<g id="node3" class="node"><title>EAID_9DFEEF9B_F2B8_4cae_83A3_8AEAF8B1516C</title>
<image xlink:href="img/boundary3.png" width="102px" height="67px" preserveAspectRatio="xMinYMin meet" x="765" y="-116"/>
<text text-anchor="start" x="765" y="-25.8" font-family="Times New Roman,serif" font-size="24.00">Homepage</text>
</g>
<!-- EAID_F32B3FDA_2883_4641_8106_06CE9A6260F5&#45;&gt;EAID_9DFEEF9B_F2B8_4cae_83A3_8AEAF8B1516C -->
<g id="edge2" class="edge"><title>EAID_F32B3FDA_2883_4641_8106_06CE9A6260F5&#45;&gt;EAID_9DFEEF9B_F2B8_4cae_83A3_8AEAF8B1516C</title>
<path fill="none" stroke="black" d="M81.0025,-52.2049C92.4679,-48.8277 105.106,-45.6976 117,-44 381.871,-6.19561 453.449,-11.3092 719,-44 727.548,-45.0523 736.43,-46.6129 745.187,-48.4423"/>
<polygon fill="black" stroke="black" points="744.476,-51.8697 754.996,-50.6092 745.986,-45.0345 744.476,-51.8697"/>
</g>
<!-- EAID_137298C9_8915_46cd_97B2_39AB1BE1A912 -->
<g id="node5" class="node"><title>EAID_137298C9_8915_46cd_97B2_39AB1BE1A912</title>
<image xlink:href="img/control1.png" width="106px" height="75px" preserveAspectRatio="xMinYMin meet" x="362" y="-224"/>
<text text-anchor="start" x="354" y="-125.8" font-family="Times New Roman,serif" font-size="24.00">Input a name</text>
</g>
<!-- EAID_0CBA1C5A_B37B_4488_B9EB_8936090CD86E&#45;&gt;EAID_137298C9_8915_46cd_97B2_39AB1BE1A912 -->
<g id="edge6" class="edge"><title>EAID_0CBA1C5A_B37B_4488_B9EB_8936090CD86E&#45;&gt;EAID_137298C9_8915_46cd_97B2_39AB1BE1A912</title>
<path fill="none" stroke="black" d="M308.172,-138.22C316.939,-141.018 325.762,-143.834 334.374,-146.583"/>
<polygon fill="black" stroke="black" points="333.401,-149.947 343.992,-149.653 335.53,-143.278 333.401,-149.947"/>
</g>
<!-- EAID_CEB802B9_AA0D_4a0e_877F_B47DFDDFD29E -->
<g id="node4" class="node"><title>EAID_CEB802B9_AA0D_4a0e_877F_B47DFDDFD29E</title>
<image xlink:href="img/control1.png" width="106px" height="75px" preserveAspectRatio="xMinYMin meet" x="568" y="-164"/>
<text text-anchor="start" x="532.5" y="-65.8" font-family="Times New Roman,serif" font-size="24.00">Confirmation page</text>
</g>
<!-- EAID_CEB802B9_AA0D_4a0e_877F_B47DFDDFD29E&#45;&gt;EAID_0CBA1C5A_B37B_4488_B9EB_8936090CD86E -->
<g id="edge4" class="edge"><title>EAID_CEB802B9_AA0D_4a0e_877F_B47DFDDFD29E&#45;&gt;EAID_0CBA1C5A_B37B_4488_B9EB_8936090CD86E</title>
<path fill="none" stroke="black" d="M521.83,-105.471C509.768,-104.864 497.604,-104.347 486,-104 422.917,-102.112 407.104,-103.033 344,-104 335.692,-104.127 327.088,-104.3 318.442,-104.503"/>
<polygon fill="black" stroke="black" points="318.2,-101.008 308.29,-104.754 318.373,-108.006 318.2,-101.008"/>
</g>
<!-- EAID_CEB802B9_AA0D_4a0e_877F_B47DFDDFD29E&#45;&gt;EAID_9DFEEF9B_F2B8_4cae_83A3_8AEAF8B1516C -->
<g id="edge3" class="edge"><title>EAID_CEB802B9_AA0D_4a0e_877F_B47DFDDFD29E&#45;&gt;EAID_9DFEEF9B_F2B8_4cae_83A3_8AEAF8B1516C</title>
<path fill="none" stroke="black" d="M719.1,-89.8066C727.877,-87.811 736.643,-85.8175 745.112,-83.8918"/>
<polygon fill="black" stroke="black" points="745.924,-87.2966 754.899,-81.6663 744.372,-80.4708 745.924,-87.2966"/>
</g>
<!-- EAID_137298C9_8915_46cd_97B2_39AB1BE1A912&#45;&gt;EAID_CEB802B9_AA0D_4a0e_877F_B47DFDDFD29E -->
<g id="edge5" class="edge"><title>EAID_137298C9_8915_46cd_97B2_39AB1BE1A912&#45;&gt;EAID_CEB802B9_AA0D_4a0e_877F_B47DFDDFD29E</title>
<path fill="none" stroke="black" d="M486.033,-151.351C494.387,-148.888 503.057,-146.332 511.786,-143.758"/>
<polygon fill="black" stroke="black" points="513.05,-147.035 521.652,-140.849 511.071,-140.32 513.05,-147.035"/>
</g>
</g>
</svg>
