<?xml version="1.0" encoding="UTF-8" standalone="no"?>
<!DOCTYPE svg PUBLIC "-//W3C//DTD SVG 1.1//EN"
 "http://www.w3.org/Graphics/SVG/1.1/DTD/svg11.dtd">
<!-- Generated by graphviz version 2.38.0 (20140413.2041)
 -->
<!-- Title: g Pages: 1 -->
<svg width="693pt" height="1059pt"
 viewBox="0.00 0.00 693.17 1059.00" xmlns="http://www.w3.org/2000/svg" xmlns:xlink="http://www.w3.org/1999/xlink">
<g id="graph0" class="graph" transform="scale(1 1) rotate(0) translate(4 1055)">
<title>g</title>
<polygon fill="white" stroke="none" points="-4,4 -4,-1055 689.171,-1055 689.171,4 -4,4"/>
<g id="clust1" class="cluster"><title>cluster0</title>
<polygon fill="none" stroke="black" stroke-width="2" points="19.1708,-170 19.1708,-1043 301.171,-1043 301.171,-170 19.1708,-170"/>
<text text-anchor="start" x="138.171" y="-1028.8" font-family="Times New Roman,serif" font-weight="bold" font-size="14.00">System</text>
</g>
<g id="clust2" class="cluster"><title>cluster1000</title>
<polygon fill="none" stroke="black" stroke-width="2" points="141.171,-8 141.171,-162 677.171,-162 677.171,-8 141.171,-8"/>
<text text-anchor="start" x="363.671" y="-147.8" font-family="Times New Roman,serif" font-weight="bold" font-size="14.00">Domain Model</text>
</g>
<!-- a86fc9e3b_8e3a_11e8_858a_0904b49c15f1 -->
<g id="node1" class="node"><title>a86fc9e3b_8e3a_11e8_858a_0904b49c15f1</title>
<image xlink:href="img/activity_icon.png" width="30px" height="20px" preserveAspectRatio="xMinYMin meet" x="203.671" y="-918.5"/>
<text text-anchor="start" x="156.171" y="-884.3" font-family="Times New Roman,serif" font-weight="bold" font-size="14.00">MainProgram_main</text>
</g>
<!-- a86fcecf5_8e3a_11e8_858a_0904b49c15f1 -->
<g id="node2" class="node"><title>a86fcecf5_8e3a_11e8_858a_0904b49c15f1</title>
<image xlink:href="img/activity_icon.png" width="30px" height="20px" preserveAspectRatio="xMinYMin meet" x="203.171" y="-831.5"/>
<text text-anchor="start" x="153.171" y="-797.3" font-family="Times New Roman,serif" font-weight="bold" font-size="14.00">Example1_Example1</text>
</g>
<!-- a86fc9e3b_8e3a_11e8_858a_0904b49c15f1&#45;&gt;a86fcecf5_8e3a_11e8_858a_0904b49c15f1 -->
<g id="edge1" class="edge"><title>a86fc9e3b_8e3a_11e8_858a_0904b49c15f1&#45;&gt;a86fcecf5_8e3a_11e8_858a_0904b49c15f1</title>
<path fill="none" stroke="black" d="M218.171,-873.914C218.171,-865.897 218.171,-856.839 218.171,-848.222"/>
<polygon fill="black" stroke="black" points="221.671,-848.03 218.171,-838.03 214.671,-848.03 221.671,-848.03"/>
</g>
<!-- c7ea80072_46c0_47b8_87cb_522e1cb0579f -->
<g id="node14" class="node"><title>c7ea80072_46c0_47b8_87cb_522e1cb0579f</title>
<polygon fill="none" stroke="black" points="566.171,-73.5 566.171,-94.5 660.171,-94.5 660.171,-73.5 566.171,-73.5"/>
<text text-anchor="start" x="569.171" y="-81.3" font-family="Times New Roman,serif" font-weight="bold" font-size="14.00">MainProgram</text>
<polygon fill="none" stroke="black" points="566.171,-52.5 566.171,-73.5 660.171,-73.5 660.171,-52.5 566.171,-52.5"/>
<text text-anchor="start" x="593.171" y="-60.3" font-family="Times New Roman,serif" font-weight="bold" font-size="14.00">main()</text>
<polygon fill="none" stroke="black" points="565.171,-51.5 565.171,-95.5 661.171,-95.5 661.171,-51.5 565.171,-51.5"/>
</g>
<!-- a86fc9e3b_8e3a_11e8_858a_0904b49c15f1&#45;&gt;c7ea80072_46c0_47b8_87cb_522e1cb0579f -->
<g id="edge11" class="edge"><title>a86fc9e3b_8e3a_11e8_858a_0904b49c15f1&#45;&gt;c7ea80072_46c0_47b8_87cb_522e1cb0579f</title>
<path fill="none" stroke="black" stroke-dasharray="5,2" d="M290.913,-894.112C392.665,-883.593 565.171,-847.864 565.171,-726.5 565.171,-726.5 565.171,-726.5 565.171,-289.5 565.171,-224.529 586.308,-151.109 600.53,-109.065"/>
<polygon fill="black" stroke="black" points="603.85,-110.173 603.802,-99.5784 597.232,-107.89 603.85,-110.173"/>
</g>
<!-- a86fcecc5_8e3a_11e8_858a_0904b49c15f1 -->
<g id="node3" class="node"><title>a86fcecc5_8e3a_11e8_858a_0904b49c15f1</title>
<image xlink:href="img/activity_icon.png" width="30px" height="20px" preserveAspectRatio="xMinYMin meet" x="209.171" y="-744.5"/>
<text text-anchor="start" x="171.171" y="-710.3" font-family="Times New Roman,serif" font-weight="bold" font-size="14.00">Example1_print1</text>
</g>
<!-- a86fcecf5_8e3a_11e8_858a_0904b49c15f1&#45;&gt;a86fcecc5_8e3a_11e8_858a_0904b49c15f1 -->
<g id="edge2" class="edge"><title>a86fcecf5_8e3a_11e8_858a_0904b49c15f1&#45;&gt;a86fcecc5_8e3a_11e8_858a_0904b49c15f1</title>
<path fill="none" stroke="black" d="M219.906,-786.914C220.472,-778.897 221.112,-769.839 221.72,-761.222"/>
<polygon fill="black" stroke="black" points="225.226,-761.252 222.439,-751.03 218.244,-760.759 225.226,-761.252"/>
</g>
<!-- c694c8a0c_fc65_4ff2_b455_2ea7392d895d -->
<g id="node13" class="node"><title>c694c8a0c_fc65_4ff2_b455_2ea7392d895d</title>
<polygon fill="none" stroke="black" points="430.171,-104.5 430.171,-125.5 530.171,-125.5 530.171,-104.5 430.171,-104.5"/>
<text text-anchor="start" x="449.671" y="-112.3" font-family="Times New Roman,serif" font-weight="bold" font-size="14.00">Example1</text>
<polygon fill="none" stroke="black" points="430.171,-83.5 430.171,-104.5 530.171,-104.5 530.171,-83.5 430.171,-83.5"/>
<text text-anchor="start" x="433.171" y="-91.3" font-family="Times New Roman,serif" font-weight="bold" font-size="14.00">Example2 exp2</text>
<polygon fill="none" stroke="black" points="430.171,-62.5 430.171,-83.5 530.171,-83.5 530.171,-62.5 430.171,-62.5"/>
<text text-anchor="start" x="445.171" y="-70.3" font-family="Times New Roman,serif" font-weight="bold" font-size="14.00">Example1()</text>
<polygon fill="none" stroke="black" points="430.171,-41.5 430.171,-62.5 530.171,-62.5 530.171,-41.5 430.171,-41.5"/>
<text text-anchor="start" x="457.171" y="-49.3" font-family="Times New Roman,serif" font-weight="bold" font-size="14.00">print1()</text>
<polygon fill="none" stroke="black" points="430.171,-20.5 430.171,-41.5 530.171,-41.5 530.171,-20.5 430.171,-20.5"/>
<text text-anchor="start" x="457.171" y="-28.3" font-family="Times New Roman,serif" font-weight="bold" font-size="14.00">print2()</text>
<polygon fill="none" stroke="black" points="429.171,-20 429.171,-127 531.171,-127 531.171,-20 429.171,-20"/>
</g>
<!-- a86fcecf5_8e3a_11e8_858a_0904b49c15f1&#45;&gt;c694c8a0c_fc65_4ff2_b455_2ea7392d895d -->
<g id="edge12" class="edge"><title>a86fcecf5_8e3a_11e8_858a_0904b49c15f1&#45;&gt;c694c8a0c_fc65_4ff2_b455_2ea7392d895d</title>
<path fill="none" stroke="black" stroke-dasharray="5,2" d="M293.496,-798.298C375.522,-779.087 495.171,-734.741 495.171,-639.5 495.171,-639.5 495.171,-639.5 495.171,-289.5 495.171,-239.724 491.12,-183.622 487.229,-141.21"/>
<polygon fill="black" stroke="black" points="490.691,-140.639 486.272,-131.009 483.721,-141.293 490.691,-140.639"/>
</g>
<!-- a86fcece0_8e3a_11e8_858a_0904b49c15f1 -->
<g id="node4" class="node"><title>a86fcece0_8e3a_11e8_858a_0904b49c15f1</title>
<image xlink:href="img/activity_icon.png" width="30px" height="20px" preserveAspectRatio="xMinYMin meet" x="209.171" y="-657.5"/>
<text text-anchor="start" x="171.171" y="-623.3" font-family="Times New Roman,serif" font-weight="bold" font-size="14.00">Example1_print2</text>
</g>
<!-- a86fcecc5_8e3a_11e8_858a_0904b49c15f1&#45;&gt;a86fcece0_8e3a_11e8_858a_0904b49c15f1 -->
<g id="edge3" class="edge"><title>a86fcecc5_8e3a_11e8_858a_0904b49c15f1&#45;&gt;a86fcece0_8e3a_11e8_858a_0904b49c15f1</title>
<path fill="none" stroke="black" d="M224.171,-699.914C224.171,-691.897 224.171,-682.839 224.171,-674.222"/>
<polygon fill="black" stroke="black" points="227.671,-674.03 224.171,-664.03 220.671,-674.03 227.671,-674.03"/>
</g>
<!-- a86fcecc5_8e3a_11e8_858a_0904b49c15f1&#45;&gt;c694c8a0c_fc65_4ff2_b455_2ea7392d895d -->
<g id="edge13" class="edge"><title>a86fcecc5_8e3a_11e8_858a_0904b49c15f1&#45;&gt;c694c8a0c_fc65_4ff2_b455_2ea7392d895d</title>
<path fill="none" stroke="black" stroke-dasharray="5,2" d="M287.224,-707.647C356.228,-684.93 457.171,-637.221 457.171,-552.5 457.171,-552.5 457.171,-552.5 457.171,-289.5 457.171,-239.629 463.365,-183.619 469.324,-141.271"/>
<polygon fill="black" stroke="black" points="472.79,-141.756 470.75,-131.36 465.862,-140.76 472.79,-141.756"/>
</g>
<!-- a86fcec5d_8e3a_11e8_858a_0904b49c15f1 -->
<g id="node5" class="node"><title>a86fcec5d_8e3a_11e8_858a_0904b49c15f1</title>
<image xlink:href="img/activity_icon.png" width="30px" height="20px" preserveAspectRatio="xMinYMin meet" x="179.171" y="-570.5"/>
<text text-anchor="start" x="141.171" y="-536.3" font-family="Times New Roman,serif" font-weight="bold" font-size="14.00">Example2_print3</text>
</g>
<!-- a86fcece0_8e3a_11e8_858a_0904b49c15f1&#45;&gt;a86fcec5d_8e3a_11e8_858a_0904b49c15f1 -->
<g id="edge4" class="edge"><title>a86fcece0_8e3a_11e8_858a_0904b49c15f1&#45;&gt;a86fcec5d_8e3a_11e8_858a_0904b49c15f1</title>
<path fill="none" stroke="black" d="M215.494,-612.914C212.602,-604.721 209.326,-595.44 206.225,-586.655"/>
<polygon fill="black" stroke="black" points="209.457,-585.295 202.829,-577.03 202.856,-587.625 209.457,-585.295"/>
</g>
<!-- a86fcece0_8e3a_11e8_858a_0904b49c15f1&#45;&gt;c694c8a0c_fc65_4ff2_b455_2ea7392d895d -->
<g id="edge14" class="edge"><title>a86fcece0_8e3a_11e8_858a_0904b49c15f1&#45;&gt;c694c8a0c_fc65_4ff2_b455_2ea7392d895d</title>
<path fill="none" stroke="black" stroke-dasharray="5,2" d="M287.212,-612.919C344.185,-586.089 419.171,-537.163 419.171,-465.5 419.171,-465.5 419.171,-465.5 419.171,-289.5 419.171,-238.206 435.439,-182.553 451.172,-140.722"/>
<polygon fill="black" stroke="black" points="454.509,-141.797 454.831,-131.207 447.975,-139.285 454.509,-141.797"/>
</g>
<!-- a86fcec55_8e3a_11e8_858a_0904b49c15f1 -->
<g id="node6" class="node"><title>a86fcec55_8e3a_11e8_858a_0904b49c15f1</title>
<image xlink:href="img/activity_icon.png" width="30px" height="20px" preserveAspectRatio="xMinYMin meet" x="155.171" y="-483.5"/>
<text text-anchor="start" x="57.1708" y="-449.3" font-family="Times New Roman,serif" font-weight="bold" font-size="14.00">InterfaceExample_InterfaceExample</text>
</g>
<!-- a86fcec5d_8e3a_11e8_858a_0904b49c15f1&#45;&gt;a86fcec55_8e3a_11e8_858a_0904b49c15f1 -->
<g id="edge5" class="edge"><title>a86fcec5d_8e3a_11e8_858a_0904b49c15f1&#45;&gt;a86fcec55_8e3a_11e8_858a_0904b49c15f1</title>
<path fill="none" stroke="black" d="M187.229,-525.914C184.916,-517.721 182.295,-508.44 179.815,-499.655"/>
<polygon fill="black" stroke="black" points="183.183,-498.703 177.097,-490.03 176.446,-500.605 183.183,-498.703"/>
</g>
<!-- c22840006_2e8b_4841_901d_ca3205dd05ec -->
<g id="node12" class="node"><title>c22840006_2e8b_4841_901d_ca3205dd05ec</title>
<polygon fill="none" stroke="black" points="318.171,-83.5 318.171,-104.5 394.171,-104.5 394.171,-83.5 318.171,-83.5"/>
<text text-anchor="start" x="325.671" y="-91.3" font-family="Times New Roman,serif" font-weight="bold" font-size="14.00">Example2</text>
<polygon fill="none" stroke="black" points="318.171,-62.5 318.171,-83.5 394.171,-83.5 394.171,-62.5 318.171,-62.5"/>
<text text-anchor="start" x="321.171" y="-70.3" font-family="Times New Roman,serif" font-weight="bold" font-size="14.00">Example2()</text>
<polygon fill="none" stroke="black" points="318.171,-41.5 318.171,-62.5 394.171,-62.5 394.171,-41.5 318.171,-41.5"/>
<text text-anchor="start" x="333.171" y="-49.3" font-family="Times New Roman,serif" font-weight="bold" font-size="14.00">print3()</text>
<polygon fill="none" stroke="black" points="317.171,-41 317.171,-106 395.171,-106 395.171,-41 317.171,-41"/>
</g>
<!-- a86fcec5d_8e3a_11e8_858a_0904b49c15f1&#45;&gt;c22840006_2e8b_4841_901d_ca3205dd05ec -->
<g id="edge15" class="edge"><title>a86fcec5d_8e3a_11e8_858a_0904b49c15f1&#45;&gt;c22840006_2e8b_4841_901d_ca3205dd05ec</title>
<path fill="none" stroke="black" stroke-dasharray="5,2" d="M253.082,-525.98C307.896,-498.774 381.171,-449.186 381.171,-378.5 381.171,-378.5 381.171,-378.5 381.171,-289.5 381.171,-230.707 371.833,-163.472 364.571,-120.073"/>
<polygon fill="black" stroke="black" points="368.003,-119.381 362.87,-110.112 361.103,-120.559 368.003,-119.381"/>
</g>
<!-- a86fc9e8a_8e3a_11e8_858a_0904b49c15f1 -->
<g id="node7" class="node"><title>a86fc9e8a_8e3a_11e8_858a_0904b49c15f1</title>
<image xlink:href="img/activity_icon.png" width="30px" height="20px" preserveAspectRatio="xMinYMin meet" x="155.171" y="-396.5"/>
<text text-anchor="start" x="78.1708" y="-362.3" font-family="Times New Roman,serif" font-weight="bold" font-size="14.00">InterfaceExample_setListener</text>
</g>
<!-- a86fcec55_8e3a_11e8_858a_0904b49c15f1&#45;&gt;a86fc9e8a_8e3a_11e8_858a_0904b49c15f1 -->
<g id="edge6" class="edge"><title>a86fcec55_8e3a_11e8_858a_0904b49c15f1&#45;&gt;a86fc9e8a_8e3a_11e8_858a_0904b49c15f1</title>
<path fill="none" stroke="black" d="M170.171,-438.914C170.171,-430.897 170.171,-421.839 170.171,-413.222"/>
<polygon fill="black" stroke="black" points="173.671,-413.03 170.171,-403.03 166.671,-413.03 173.671,-413.03"/>
</g>
<!-- cc7cd78e8_26ce_445e_8db6_5aba201f49f0 -->
<g id="node11" class="node"><title>cc7cd78e8_26ce_445e_8db6_5aba201f49f0</title>
<polygon fill="none" stroke="black" points="158.171,-94.5 158.171,-115.5 282.171,-115.5 282.171,-94.5 158.171,-94.5"/>
<text text-anchor="start" x="165.671" y="-102.3" font-family="Times New Roman,serif" font-weight="bold" font-size="14.00">InterfaceExample</text>
<polygon fill="none" stroke="black" points="158.171,-73.5 158.171,-94.5 282.171,-94.5 282.171,-73.5 158.171,-73.5"/>
<text text-anchor="start" x="161.171" y="-81.3" font-family="Times New Roman,serif" font-weight="bold" font-size="14.00">InterfaceExample()</text>
<polygon fill="none" stroke="black" points="158.171,-52.5 158.171,-73.5 282.171,-73.5 282.171,-52.5 158.171,-52.5"/>
<text text-anchor="start" x="181.671" y="-60.3" font-family="Times New Roman,serif" font-weight="bold" font-size="14.00">setListener()</text>
<polygon fill="none" stroke="black" points="158.171,-31.5 158.171,-52.5 282.171,-52.5 282.171,-31.5 158.171,-31.5"/>
<text text-anchor="start" x="169.171" y="-39.3" font-family="Times New Roman,serif" font-weight="bold" font-size="14.00">triggerListener()</text>
<polygon fill="none" stroke="black" points="157.171,-30.5 157.171,-116.5 283.171,-116.5 283.171,-30.5 157.171,-30.5"/>
</g>
<!-- a86fcec55_8e3a_11e8_858a_0904b49c15f1&#45;&gt;cc7cd78e8_26ce_445e_8db6_5aba201f49f0 -->
<g id="edge16" class="edge"><title>a86fcec55_8e3a_11e8_858a_0904b49c15f1&#45;&gt;cc7cd78e8_26ce_445e_8db6_5aba201f49f0</title>
<path fill="none" stroke="black" stroke-dasharray="5,2" d="M235.128,-438.918C252.094,-429.843 269.01,-418.005 281.171,-403 306.581,-371.647 301.332,-355.932 307.171,-316 311.304,-287.738 304.589,-173.563 303.171,-170 297.251,-155.127 287.976,-140.982 277.735,-128.357"/>
<polygon fill="black" stroke="black" points="280.387,-126.072 271.255,-120.7 275.043,-130.594 280.387,-126.072"/>
</g>
<!-- a86fc9ea6_8e3a_11e8_858a_0904b49c15f1 -->
<g id="node8" class="node"><title>a86fc9ea6_8e3a_11e8_858a_0904b49c15f1</title>
<image xlink:href="img/activity_icon.png" width="30px" height="20px" preserveAspectRatio="xMinYMin meet" x="147.671" y="-309.5"/>
<text text-anchor="start" x="58.1708" y="-275.3" font-family="Times New Roman,serif" font-weight="bold" font-size="14.00">InterfaceExample_triggerListener</text>
</g>
<!-- a86fc9e8a_8e3a_11e8_858a_0904b49c15f1&#45;&gt;a86fc9ea6_8e3a_11e8_858a_0904b49c15f1 -->
<g id="edge7" class="edge"><title>a86fc9e8a_8e3a_11e8_858a_0904b49c15f1&#45;&gt;a86fc9ea6_8e3a_11e8_858a_0904b49c15f1</title>
<path fill="none" stroke="black" d="M167.857,-351.914C167.102,-343.897 166.25,-334.839 165.439,-326.222"/>
<polygon fill="black" stroke="black" points="168.901,-325.658 164.48,-316.03 161.932,-326.314 168.901,-325.658"/>
</g>
<!-- a86fc9e8a_8e3a_11e8_858a_0904b49c15f1&#45;&gt;cc7cd78e8_26ce_445e_8db6_5aba201f49f0 -->
<g id="edge17" class="edge"><title>a86fc9e8a_8e3a_11e8_858a_0904b49c15f1&#45;&gt;cc7cd78e8_26ce_445e_8db6_5aba201f49f0</title>
<path fill="none" stroke="black" stroke-dasharray="5,2" d="M245.27,-351.939C261.113,-343.151 275.842,-331.449 285.171,-316 320.285,-257.851 288.204,-180.579 257.944,-129.276"/>
<polygon fill="black" stroke="black" points="260.893,-127.388 252.724,-120.642 254.902,-131.01 260.893,-127.388"/>
</g>
<!-- a86fcecb8_8e3a_11e8_858a_0904b49c15f1 -->
<g id="node9" class="node"><title>a86fcecb8_8e3a_11e8_858a_0904b49c15f1</title>
<image xlink:href="img/activity_icon.png" width="30px" height="20px" preserveAspectRatio="xMinYMin meet" x="102.171" y="-222.5"/>
<text text-anchor="start" x="52.1708" y="-188.3" font-family="Times New Roman,serif" font-weight="bold" font-size="14.00">Example2_Example2</text>
</g>
<!-- a86fc9ea6_8e3a_11e8_858a_0904b49c15f1&#45;&gt;a86fcecb8_8e3a_11e8_858a_0904b49c15f1 -->
<g id="edge8" class="edge"><title>a86fc9ea6_8e3a_11e8_858a_0904b49c15f1&#45;&gt;a86fcecb8_8e3a_11e8_858a_0904b49c15f1</title>
<path fill="none" stroke="black" d="M149.155,-264.914C144.724,-256.545 139.692,-247.04 134.953,-238.089"/>
<polygon fill="black" stroke="black" points="137.93,-236.231 130.157,-229.03 131.743,-239.506 137.93,-236.231"/>
</g>
<!-- a86fc9ea6_8e3a_11e8_858a_0904b49c15f1&#45;&gt;cc7cd78e8_26ce_445e_8db6_5aba201f49f0 -->
<g id="edge18" class="edge"><title>a86fc9ea6_8e3a_11e8_858a_0904b49c15f1&#45;&gt;cc7cd78e8_26ce_445e_8db6_5aba201f49f0</title>
<path fill="none" stroke="black" stroke-dasharray="5,2" d="M181.596,-264.942C188.916,-254.44 196.575,-241.69 201.171,-229 212.49,-197.746 217.318,-160.86 219.28,-130.968"/>
<polygon fill="black" stroke="black" points="222.79,-130.889 219.86,-120.707 215.801,-130.493 222.79,-130.889"/>
</g>
<!-- a86fcecb8_8e3a_11e8_858a_0904b49c15f1&#45;&gt;a86fcec5d_8e3a_11e8_858a_0904b49c15f1 -->
<g id="edge9" class="edge"><title>a86fcecb8_8e3a_11e8_858a_0904b49c15f1&#45;&gt;a86fcec5d_8e3a_11e8_858a_0904b49c15f1</title>
<path fill="none" stroke="black" d="M70.9393,-229.027C57.9208,-238.415 45.3599,-250.439 38.1708,-265 -6.1005,-354.666 -18.3278,-407.49 38.1708,-490 56.9788,-517.467 90.2086,-532.466 121.18,-540.656"/>
<polygon fill="black" stroke="black" points="120.59,-544.115 131.135,-543.083 122.248,-537.314 120.59,-544.115"/>
</g>
<!-- a86fcecb8_8e3a_11e8_858a_0904b49c15f1&#45;&gt;c22840006_2e8b_4841_901d_ca3205dd05ec -->
<g id="edge19" class="edge"><title>a86fcecb8_8e3a_11e8_858a_0904b49c15f1&#45;&gt;c22840006_2e8b_4841_901d_ca3205dd05ec</title>
<path fill="none" stroke="black" stroke-dasharray="5,2" d="M192.379,-198.987C227.701,-194.22 268.825,-183.892 300.171,-162 315.498,-151.296 327.594,-134.914 336.563,-119.208"/>
<polygon fill="black" stroke="black" points="339.816,-120.549 341.483,-110.087 333.655,-117.226 339.816,-120.549"/>
</g>
<!-- a86fc9e3b_8e3a_11e8_858a_0904b49c15f1_STL -->
<g id="node10" class="node"><title>a86fc9e3b_8e3a_11e8_858a_0904b49c15f1_STL</title>
<image xlink:href="img/stimulus_icon.png" width="30px" height="20px" preserveAspectRatio="xMinYMin meet" x="194.671" y="-1005.5"/>
<text text-anchor="start" x="136.171" y="-971.3" font-family="Times New Roman,serif" font-weight="bold" font-size="14.00">stl#MainProgram_main</text>
</g>
<!-- a86fc9e3b_8e3a_11e8_858a_0904b49c15f1_STL&#45;&gt;a86fc9e3b_8e3a_11e8_858a_0904b49c15f1 -->
<g id="edge10" class="edge"><title>a86fc9e3b_8e3a_11e8_858a_0904b49c15f1_STL&#45;&gt;a86fc9e3b_8e3a_11e8_858a_0904b49c15f1</title>
<path fill="none" stroke="black" d="M211.774,-960.914C212.623,-952.897 213.582,-943.839 214.494,-935.222"/>
<polygon fill="black" stroke="black" points="218.001,-935.343 215.574,-925.03 211.04,-934.606 218.001,-935.343"/>
</g>
</g>
</svg>
