<?xml version="1.0" encoding="UTF-8" standalone="no"?>
<!DOCTYPE svg PUBLIC "-//W3C//DTD SVG 1.1//EN"
 "http://www.w3.org/Graphics/SVG/1.1/DTD/svg11.dtd">
<!-- Generated by graphviz version 2.38.0 (20140413.2041)
 -->
<!-- Title: g Pages: 1 -->
<svg width="2946pt" height="607pt"
 viewBox="0.00 0.00 2946.00 606.88" xmlns="http://www.w3.org/2000/svg" xmlns:xlink="http://www.w3.org/1999/xlink">
<g id="graph0" class="graph" transform="scale(1 1) rotate(0) translate(4 602.883)">
<title>g</title>
<polygon fill="white" stroke="none" points="-4,4 -4,-602.883 2942,-602.883 2942,4 -4,4"/>
<!-- EAID_690884C5_D7F7_4c5c_B2B8_96FF5A043A49 -->
<g id="node1" class="node"><title>EAID_690884C5_D7F7_4c5c_B2B8_96FF5A043A49</title>
<image xlink:href="img/actor1.png" width="82px" height="90px" preserveAspectRatio="xMinYMin meet" x="21" y="-313.383"/>
<text text-anchor="start" x="10.5" y="-200.183" font-family="Times New Roman,serif" font-size="24.00">Supervisor</text>
</g>
<!-- EAID_E6B939C0_84CE_4a25_9EFE_2BA8B848C210 -->
<g id="node2" class="node"><title>EAID_E6B939C0_84CE_4a25_9EFE_2BA8B848C210</title>
<image xlink:href="img/boundary3.png" width="115px" height="67px" preserveAspectRatio="xMinYMin meet" x="1906.5" y="-452.383"/>
<text text-anchor="start" x="1815" y="-362.183" font-family="Times New Roman,serif" font-size="24.00">authentification failure message</text>
</g>
<!-- EAID_690884C5_D7F7_4c5c_B2B8_96FF5A043A49&#45;&gt;EAID_E6B939C0_84CE_4a25_9EFE_2BA8B848C210 -->
<g id="edge1" class="edge"><title>EAID_690884C5_D7F7_4c5c_B2B8_96FF5A043A49&#45;&gt;EAID_E6B939C0_84CE_4a25_9EFE_2BA8B848C210</title>
<path fill="none" stroke="black" d="M78.0773,-319.842C92.0652,-365.765 117.034,-425.075 159,-462.383 246.867,-540.498 292.931,-544.383 410.5,-544.383 410.5,-544.383 410.5,-544.383 713.5,-544.383 1102.46,-544.383 1555.32,-476.554 1794.68,-435.322"/>
<polygon fill="black" stroke="black" points="1795.6,-438.714 1804.86,-433.562 1794.41,-431.816 1795.6,-438.714"/>
</g>
<!-- EAID_0F8E9D2C_DC7C_4478_84C6_57CC6E001FAC -->
<g id="node3" class="node"><title>EAID_0F8E9D2C_DC7C_4478_84C6_57CC6E001FAC</title>
<image xlink:href="img/boundary3.png" width="115px" height="67px" preserveAspectRatio="xMinYMin meet" x="2728.5" y="-592.383"/>
<text text-anchor="start" x="2691" y="-502.183" font-family="Times New Roman,serif" font-size="24.00">volunteer homepage</text>
</g>
<!-- EAID_690884C5_D7F7_4c5c_B2B8_96FF5A043A49&#45;&gt;EAID_0F8E9D2C_DC7C_4478_84C6_57CC6E001FAC -->
<g id="edge2" class="edge"><title>EAID_690884C5_D7F7_4c5c_B2B8_96FF5A043A49&#45;&gt;EAID_0F8E9D2C_DC7C_4478_84C6_57CC6E001FAC</title>
<path fill="none" stroke="black" d="M70.5445,-319.418C81.0746,-377.73 105.044,-461.083 159,-511.383 243.955,-590.583 294.353,-582.383 410.5,-582.383 410.5,-582.383 410.5,-582.383 1965,-582.383 2246.54,-582.383 2316.91,-574.229 2598,-558.383 2621.46,-557.061 2646.56,-555.371 2670.51,-553.626"/>
<polygon fill="black" stroke="black" points="2670.98,-557.101 2680.7,-552.876 2670.47,-550.12 2670.98,-557.101"/>
</g>
<!-- EAID_E1F52626_98B7_4e2f_B0BC_EB508B654E21 -->
<g id="node4" class="node"><title>EAID_E1F52626_98B7_4e2f_B0BC_EB508B654E21</title>
<image xlink:href="img/boundary3.png" width="115px" height="67px" preserveAspectRatio="xMinYMin meet" x="988.5" y="-395.383"/>
<text text-anchor="start" x="938.5" y="-305.183" font-family="Times New Roman,serif" font-size="24.00">Individual details page</text>
</g>
<!-- EAID_690884C5_D7F7_4c5c_B2B8_96FF5A043A49&#45;&gt;EAID_E1F52626_98B7_4e2f_B0BC_EB508B654E21 -->
<g id="edge3" class="edge"><title>EAID_690884C5_D7F7_4c5c_B2B8_96FF5A043A49&#45;&gt;EAID_E1F52626_98B7_4e2f_B0BC_EB508B654E21</title>
<path fill="none" stroke="black" d="M123.187,-259.193C280.532,-274.254 704.209,-314.81 917.773,-335.253"/>
<polygon fill="black" stroke="black" points="917.494,-338.742 927.782,-336.211 918.161,-331.774 917.494,-338.742"/>
</g>
<!-- EAID_A8511481_A645_498f_B450_6042E1EA0919 -->
<g id="node5" class="node"><title>EAID_A8511481_A645_498f_B450_6042E1EA0919</title>
<image xlink:href="img/boundary3.png" width="96px" height="67px" preserveAspectRatio="xMinYMin meet" x="169" y="-447.383"/>
<text text-anchor="start" x="169" y="-357.183" font-family="Times New Roman,serif" font-size="24.00">OTP page</text>
</g>
<!-- EAID_690884C5_D7F7_4c5c_B2B8_96FF5A043A49&#45;&gt;EAID_A8511481_A645_498f_B450_6042E1EA0919 -->
<g id="edge4" class="edge"><title>EAID_690884C5_D7F7_4c5c_B2B8_96FF5A043A49&#45;&gt;EAID_A8511481_A645_498f_B450_6042E1EA0919</title>
<path fill="none" stroke="black" d="M123.167,-311.086C132.425,-319.891 142.009,-329.007 151.348,-337.89"/>
<polygon fill="black" stroke="black" points="149.116,-340.598 158.774,-344.953 153.94,-335.526 149.116,-340.598"/>
</g>
<!-- EAID_A1DFCE6E_7403_44e7_BBA1_DE3432F07C89 -->
<g id="node6" class="node"><title>EAID_A1DFCE6E_7403_44e7_BBA1_DE3432F07C89</title>
<image xlink:href="img/boundary3.png" width="115px" height="67px" preserveAspectRatio="xMinYMin meet" x="2321.5" y="-165.383"/>
<text text-anchor="start" x="2321.5" y="-75.1834" font-family="Times New Roman,serif" font-size="24.00">Delete Page</text>
</g>
<!-- EAID_690884C5_D7F7_4c5c_B2B8_96FF5A043A49&#45;&gt;EAID_A1DFCE6E_7403_44e7_BBA1_DE3432F07C89 -->
<g id="edge5" class="edge"><title>EAID_690884C5_D7F7_4c5c_B2B8_96FF5A043A49&#45;&gt;EAID_A1DFCE6E_7403_44e7_BBA1_DE3432F07C89</title>
<path fill="none" stroke="black" d="M121.03,-187.355C132.886,-176.136 145.791,-165.261 159,-156.383 259.533,-88.8174 289.372,-51.3834 410.5,-51.3834 410.5,-51.3834 410.5,-51.3834 1620,-51.3834 1843.71,-51.3834 1900.64,-45.7828 2123,-70.3834 2183.29,-77.0535 2250.77,-89.759 2301.08,-100.28"/>
<polygon fill="black" stroke="black" points="2300.41,-103.713 2310.91,-102.352 2301.85,-96.8638 2300.41,-103.713"/>
</g>
<!-- EAID_91551AC3_FD40_4463_987E_5272DF5720E6 -->
<g id="node7" class="node"><title>EAID_91551AC3_FD40_4463_987E_5272DF5720E6</title>
<image xlink:href="img/boundary3.png" width="115px" height="67px" preserveAspectRatio="xMinYMin meet" x="2728.5" y="-222.383"/>
<text text-anchor="start" x="2644" y="-132.183" font-family="Times New Roman,serif" font-size="24.00">Management Individuals Page</text>
</g>
<!-- EAID_690884C5_D7F7_4c5c_B2B8_96FF5A043A49&#45;&gt;EAID_91551AC3_FD40_4463_987E_5272DF5720E6 -->
<g id="edge6" class="edge"><title>EAID_690884C5_D7F7_4c5c_B2B8_96FF5A043A49&#45;&gt;EAID_91551AC3_FD40_4463_987E_5272DF5720E6</title>
<path fill="none" stroke="black" d="M83.7717,-187.177C99.0528,-149.737 123.329,-105.024 159,-77.3834 250.173,-6.73712 295.16,-13.3834 410.5,-13.3834 410.5,-13.3834 410.5,-13.3834 1965,-13.3834 2246.89,-13.3834 2330.3,34.9449 2598,-53.3834 2638.12,-66.6196 2678.05,-90.593 2710.65,-113.73"/>
<polygon fill="black" stroke="black" points="2708.61,-116.578 2718.77,-119.587 2712.7,-110.9 2708.61,-116.578"/>
</g>
<!-- EAID_BF96E5B6_C152_4d9f_B1AC_93FBE66F8115 -->
<g id="node8" class="node"><title>EAID_BF96E5B6_C152_4d9f_B1AC_93FBE66F8115</title>
<image xlink:href="img/boundary3.png" width="115px" height="67px" preserveAspectRatio="xMinYMin meet" x="1561.5" y="-215.383"/>
<text text-anchor="start" x="1479" y="-125.183" font-family="Times New Roman,serif" font-size="24.00">Update Individual Form Page</text>
</g>
<!-- EAID_690884C5_D7F7_4c5c_B2B8_96FF5A043A49&#45;&gt;EAID_BF96E5B6_C152_4d9f_B1AC_93FBE66F8115 -->
<g id="edge7" class="edge"><title>EAID_690884C5_D7F7_4c5c_B2B8_96FF5A043A49&#45;&gt;EAID_BF96E5B6_C152_4d9f_B1AC_93FBE66F8115</title>
<path fill="none" stroke="black" d="M123.015,-219.987C190.882,-185.718 305.261,-137.383 410.5,-137.383 410.5,-137.383 410.5,-137.383 1046.5,-137.383 1185.86,-137.383 1344.08,-146.39 1458.65,-154.533"/>
<polygon fill="black" stroke="black" points="1458.68,-158.044 1468.9,-155.268 1459.18,-151.062 1458.68,-158.044"/>
</g>
<!-- EAID_8F14E7CE_2946_478c_8CD9_814293578BBF -->
<g id="node9" class="node"><title>EAID_8F14E7CE_2946_478c_8CD9_814293578BBF</title>
<image xlink:href="img/boundary3.png" width="115px" height="67px" preserveAspectRatio="xMinYMin meet" x="988.5" y="-268.383"/>
<text text-anchor="start" x="923.5" y="-178.183" font-family="Times New Roman,serif" font-size="24.00">OTP empty error message</text>
</g>
<!-- EAID_690884C5_D7F7_4c5c_B2B8_96FF5A043A49&#45;&gt;EAID_8F14E7CE_2946_478c_8CD9_814293578BBF -->
<g id="edge8" class="edge"><title>EAID_690884C5_D7F7_4c5c_B2B8_96FF5A043A49&#45;&gt;EAID_8F14E7CE_2946_478c_8CD9_814293578BBF</title>
<path fill="none" stroke="black" d="M123.187,-251.344C276.827,-246.181 684.406,-232.484 902.345,-225.16"/>
<polygon fill="black" stroke="black" points="902.701,-228.651 912.577,-224.817 902.466,-221.655 902.701,-228.651"/>
</g>
<!-- EAID_03178163_BE6A_4779_9906_7425D64EDCF3 -->
<g id="node11" class="node"><title>EAID_03178163_BE6A_4779_9906_7425D64EDCF3</title>
<image xlink:href="img/control1.png" width="106px" height="75px" preserveAspectRatio="xMinYMin meet" x="1271" y="-399.383"/>
<text text-anchor="start" x="1224.5" y="-301.183" font-family="Times New Roman,serif" font-size="24.00">authenticate the OTP</text>
</g>
<!-- EAID_E1F52626_98B7_4e2f_B0BC_EB508B654E21&#45;&gt;EAID_03178163_BE6A_4779_9906_7425D64EDCF3 -->
<g id="edge10" class="edge"><title>EAID_E1F52626_98B7_4e2f_B0BC_EB508B654E21&#45;&gt;EAID_03178163_BE6A_4779_9906_7425D64EDCF3</title>
<path fill="none" stroke="black" d="M1163.15,-347.383C1176.51,-347.383 1190.15,-347.383 1203.55,-347.383"/>
<polygon fill="black" stroke="black" points="1203.73,-350.883 1213.73,-347.383 1203.73,-343.883 1203.73,-350.883"/>
</g>
<!-- EAID_01896A54_255C_44df_8659_F31BAD81E6AA -->
<g id="node14" class="node"><title>EAID_01896A54_255C_44df_8659_F31BAD81E6AA</title>
<image xlink:href="img/control1.png" width="106px" height="75px" preserveAspectRatio="xMinYMin meet" x="359" y="-453.383"/>
<text text-anchor="start" x="321.5" y="-355.183" font-family="Times New Roman,serif" font-size="24.00">check local storage</text>
</g>
<!-- EAID_A8511481_A645_498f_B450_6042E1EA0919&#45;&gt;EAID_01896A54_255C_44df_8659_F31BAD81E6AA -->
<g id="edge14" class="edge"><title>EAID_A8511481_A645_498f_B450_6042E1EA0919&#45;&gt;EAID_01896A54_255C_44df_8659_F31BAD81E6AA</title>
<path fill="none" stroke="black" d="M275.235,-399.978C283.449,-400.063 292.118,-400.153 300.94,-400.245"/>
<polygon fill="black" stroke="black" points="300.912,-403.745 310.948,-400.349 300.985,-396.745 300.912,-403.745"/>
</g>
<!-- EAID_4E3BC65F_3FDB_4da7_AF11_30B2943C5330 -->
<g id="node10" class="node"><title>EAID_4E3BC65F_3FDB_4da7_AF11_30B2943C5330</title>
<image xlink:href="img/control1.png" width="106px" height="75px" preserveAspectRatio="xMinYMin meet" x="1911" y="-190.383"/>
<text text-anchor="start" x="1854" y="-92.1834" font-family="Times New Roman,serif" font-size="24.00">Redirect to delete page</text>
</g>
<!-- EAID_BF96E5B6_C152_4d9f_B1AC_93FBE66F8115&#45;&gt;EAID_4E3BC65F_3FDB_4da7_AF11_30B2943C5330 -->
<g id="edge15" class="edge"><title>EAID_BF96E5B6_C152_4d9f_B1AC_93FBE66F8115&#45;&gt;EAID_4E3BC65F_3FDB_4da7_AF11_30B2943C5330</title>
<path fill="none" stroke="black" d="M1769.45,-154.748C1790.86,-152.938 1812.73,-151.088 1833.71,-149.315"/>
<polygon fill="black" stroke="black" points="1834.26,-152.781 1843.93,-148.45 1833.67,-145.805 1834.26,-152.781"/>
</g>
<!-- EAID_A1FDC680_B844_4ca2_94CF_558CBB35A912 -->
<g id="node15" class="node"><title>EAID_A1FDC680_B844_4ca2_94CF_558CBB35A912</title>
<image xlink:href="img/control1.png" width="106px" height="75px" preserveAspectRatio="xMinYMin meet" x="1911.5" y="-325.383"/>
<text text-anchor="start" x="1897" y="-227.183" font-family="Times New Roman,serif" font-size="24.00">send ot device</text>
</g>
<!-- EAID_BF96E5B6_C152_4d9f_B1AC_93FBE66F8115&#45;&gt;EAID_A1FDC680_B844_4ca2_94CF_558CBB35A912 -->
<g id="edge16" class="edge"><title>EAID_BF96E5B6_C152_4d9f_B1AC_93FBE66F8115&#45;&gt;EAID_A1FDC680_B844_4ca2_94CF_558CBB35A912</title>
<path fill="none" stroke="black" d="M1769.45,-213.568C1805.93,-224.843 1843.77,-236.536 1876.21,-246.561"/>
<polygon fill="black" stroke="black" points="1875.51,-250.008 1886.09,-249.617 1877.57,-243.32 1875.51,-250.008"/>
</g>
<!-- EAID_4E3BC65F_3FDB_4da7_AF11_30B2943C5330&#45;&gt;EAID_A1DFCE6E_7403_44e7_BBA1_DE3432F07C89 -->
<g id="edge9" class="edge"><title>EAID_4E3BC65F_3FDB_4da7_AF11_30B2943C5330&#45;&gt;EAID_A1DFCE6E_7403_44e7_BBA1_DE3432F07C89</title>
<path fill="none" stroke="black" d="M2084.04,-132.323C2153.77,-128.773 2239.82,-124.393 2300.66,-121.295"/>
<polygon fill="black" stroke="black" points="2301.15,-124.775 2310.96,-120.771 2300.79,-117.784 2301.15,-124.775"/>
</g>
<!-- EAID_03178163_BE6A_4779_9906_7425D64EDCF3&#45;&gt;EAID_BF96E5B6_C152_4d9f_B1AC_93FBE66F8115 -->
<g id="edge17" class="edge"><title>EAID_03178163_BE6A_4779_9906_7425D64EDCF3&#45;&gt;EAID_BF96E5B6_C152_4d9f_B1AC_93FBE66F8115</title>
<path fill="none" stroke="black" d="M1420.2,-288.694C1452.29,-269.011 1488.11,-247.045 1520.35,-227.272"/>
<polygon fill="black" stroke="black" points="1522.21,-230.238 1528.9,-222.026 1518.55,-224.271 1522.21,-230.238"/>
</g>
<!-- EAID_B15C141C_6E23_489f_BED4_AE3A9731060C -->
<g id="node16" class="node"><title>EAID_B15C141C_6E23_489f_BED4_AE3A9731060C</title>
<image xlink:href="img/control1.png" width="106px" height="75px" preserveAspectRatio="xMinYMin meet" x="1566" y="-399.383"/>
<text text-anchor="start" x="1494" y="-301.183" font-family="Times New Roman,serif" font-size="24.00">generates unique device id</text>
</g>
<!-- EAID_03178163_BE6A_4779_9906_7425D64EDCF3&#45;&gt;EAID_B15C141C_6E23_489f_BED4_AE3A9731060C -->
<g id="edge18" class="edge"><title>EAID_03178163_BE6A_4779_9906_7425D64EDCF3&#45;&gt;EAID_B15C141C_6E23_489f_BED4_AE3A9731060C</title>
<path fill="none" stroke="black" d="M1433.37,-347.383C1446.5,-347.383 1460.07,-347.383 1473.6,-347.383"/>
<polygon fill="black" stroke="black" points="1473.94,-350.883 1483.94,-347.383 1473.94,-343.883 1473.94,-350.883"/>
</g>
<!-- EAID_29D9AF55_E1A2_43a4_8194_0C81A4672C2C -->
<g id="node12" class="node"><title>EAID_29D9AF55_E1A2_43a4_8194_0C81A4672C2C</title>
<image xlink:href="img/control1.png" width="106px" height="75px" preserveAspectRatio="xMinYMin meet" x="660" y="-453.383"/>
<text text-anchor="start" x="558.5" y="-355.183" font-family="Times New Roman,serif" font-size="24.00">check OTP entered is non&#45;empty</text>
</g>
<!-- EAID_29D9AF55_E1A2_43a4_8194_0C81A4672C2C&#45;&gt;EAID_E1F52626_98B7_4e2f_B0BC_EB508B654E21 -->
<g id="edge11" class="edge"><title>EAID_29D9AF55_E1A2_43a4_8194_0C81A4672C2C&#45;&gt;EAID_E1F52626_98B7_4e2f_B0BC_EB508B654E21</title>
<path fill="none" stroke="black" d="M877.061,-374.7C890.689,-372.476 904.334,-370.25 917.627,-368.082"/>
<polygon fill="black" stroke="black" points="918.412,-371.5 927.718,-366.435 917.285,-364.591 918.412,-371.5"/>
</g>
<!-- EAID_29D9AF55_E1A2_43a4_8194_0C81A4672C2C&#45;&gt;EAID_8F14E7CE_2946_478c_8CD9_814293578BBF -->
<g id="edge13" class="edge"><title>EAID_29D9AF55_E1A2_43a4_8194_0C81A4672C2C&#45;&gt;EAID_8F14E7CE_2946_478c_8CD9_814293578BBF</title>
<path fill="none" stroke="black" d="M808.679,-342.797C841.396,-323.273 878.479,-301.816 913,-283.383 915.378,-282.114 917.785,-280.841 920.216,-279.567"/>
<polygon fill="black" stroke="black" points="921.842,-282.666 929.106,-274.954 918.618,-276.453 921.842,-282.666"/>
</g>
<!-- EAID_29D9AF55_E1A2_43a4_8194_0C81A4672C2C&#45;&gt;EAID_03178163_BE6A_4779_9906_7425D64EDCF3 -->
<g id="edge19" class="edge"><title>EAID_29D9AF55_E1A2_43a4_8194_0C81A4672C2C&#45;&gt;EAID_03178163_BE6A_4779_9906_7425D64EDCF3</title>
<path fill="none" stroke="black" d="M877.188,-422.272C966.92,-429.31 1079.6,-430.902 1178,-410.383 1186.76,-408.558 1195.63,-406.172 1204.45,-403.398"/>
<polygon fill="black" stroke="black" points="1205.6,-406.705 1213.99,-400.244 1203.4,-400.059 1205.6,-406.705"/>
</g>
<!-- EAID_D02A3275_3731_46d0_84A2_2C1E8A1E8D0D -->
<g id="node17" class="node"><title>EAID_D02A3275_3731_46d0_84A2_2C1E8A1E8D0D</title>
<image xlink:href="img/activity_icon.png" width="30px" height="20px" preserveAspectRatio="xMinYMin meet" x="2771.5" y="-413.383"/>
<text text-anchor="start" x="2722" y="-371.183" font-family="Times New Roman,serif" font-weight="bold" font-size="24.00">local storage</text>
</g>
<!-- EAID_29D9AF55_E1A2_43a4_8194_0C81A4672C2C&#45;&gt;EAID_D02A3275_3731_46d0_84A2_2C1E8A1E8D0D -->
<g id="edge21" class="edge"><title>EAID_29D9AF55_E1A2_43a4_8194_0C81A4672C2C&#45;&gt;EAID_D02A3275_3731_46d0_84A2_2C1E8A1E8D0D</title>
<path fill="none" stroke="black" d="M877.145,-429.247C889.257,-430.814 901.307,-432.22 913,-433.383 1448.36,-486.629 1585.97,-500.715 2123,-468.383 2331.99,-455.801 2576.08,-421.07 2701.38,-401.764"/>
<polygon fill="black" stroke="black" points="2701.95,-405.218 2711.3,-400.23 2700.88,-398.3 2701.95,-405.218"/>
</g>
<!-- EAID_8773213D_440A_4e63_BBFA_E023D82A2862 -->
<g id="node13" class="node"><title>EAID_8773213D_440A_4e63_BBFA_E023D82A2862</title>
<image xlink:href="img/control1.png" width="106px" height="75px" preserveAspectRatio="xMinYMin meet" x="2326" y="-389.383"/>
<text text-anchor="start" x="2169.5" y="-291.183" font-family="Times New Roman,serif" font-size="24.00">receive and storate device id at local storage</text>
</g>
<!-- EAID_8773213D_440A_4e63_BBFA_E023D82A2862&#45;&gt;EAID_0F8E9D2C_DC7C_4478_84C6_57CC6E001FAC -->
<g id="edge26" class="edge"><title>EAID_8773213D_440A_4e63_BBFA_E023D82A2862&#45;&gt;EAID_0F8E9D2C_DC7C_4478_84C6_57CC6E001FAC</title>
<path fill="none" stroke="black" d="M2494.34,-396.009C2549.91,-424.375 2616.4,-458.318 2671.76,-486.576"/>
<polygon fill="black" stroke="black" points="2670.4,-489.811 2680.9,-491.24 2673.58,-483.576 2670.4,-489.811"/>
</g>
<!-- EAID_8773213D_440A_4e63_BBFA_E023D82A2862&#45;&gt;EAID_91551AC3_FD40_4463_987E_5272DF5720E6 -->
<g id="edge12" class="edge"><title>EAID_8773213D_440A_4e63_BBFA_E023D82A2862&#45;&gt;EAID_91551AC3_FD40_4463_987E_5272DF5720E6</title>
<path fill="none" stroke="black" d="M2525.04,-278.882C2562.42,-263.856 2602.62,-247.695 2639.97,-232.68"/>
<polygon fill="black" stroke="black" points="2641.43,-235.866 2649.41,-228.888 2638.82,-229.371 2641.43,-235.866"/>
</g>
<!-- EAID_8773213D_440A_4e63_BBFA_E023D82A2862&#45;&gt;EAID_D02A3275_3731_46d0_84A2_2C1E8A1E8D0D -->
<g id="edge25" class="edge"><title>EAID_8773213D_440A_4e63_BBFA_E023D82A2862&#45;&gt;EAID_D02A3275_3731_46d0_84A2_2C1E8A1E8D0D</title>
<path fill="none" stroke="black" d="M2598.27,-364.899C2634.91,-369.506 2670.84,-374.025 2701.24,-377.849"/>
<polygon fill="black" stroke="black" points="2700.98,-381.343 2711.33,-379.118 2701.85,-374.398 2700.98,-381.343"/>
</g>
<!-- EAID_01896A54_255C_44df_8659_F31BAD81E6AA&#45;&gt;EAID_0F8E9D2C_DC7C_4478_84C6_57CC6E001FAC -->
<g id="edge23" class="edge"><title>EAID_01896A54_255C_44df_8659_F31BAD81E6AA&#45;&gt;EAID_0F8E9D2C_DC7C_4478_84C6_57CC6E001FAC</title>
<path fill="none" stroke="black" d="M512.12,-456.809C523.953,-461.751 536.07,-466.113 548,-469.383 1007.76,-595.415 1141.28,-544.383 1618,-544.383 1618,-544.383 1618,-544.383 1965,-544.383 2216.79,-544.383 2512.07,-544.383 2670.56,-544.383"/>
<polygon fill="black" stroke="black" points="2670.8,-547.883 2680.8,-544.383 2670.8,-540.883 2670.8,-547.883"/>
</g>
<!-- EAID_01896A54_255C_44df_8659_F31BAD81E6AA&#45;&gt;EAID_29D9AF55_E1A2_43a4_8194_0C81A4672C2C -->
<g id="edge22" class="edge"><title>EAID_01896A54_255C_44df_8659_F31BAD81E6AA&#45;&gt;EAID_29D9AF55_E1A2_43a4_8194_0C81A4672C2C</title>
<path fill="none" stroke="black" d="M512.063,-401.383C520.366,-401.383 528.901,-401.383 537.548,-401.383"/>
<polygon fill="black" stroke="black" points="537.744,-404.883 547.744,-401.383 537.744,-397.883 537.744,-404.883"/>
</g>
<!-- EAID_A1FDC680_B844_4ca2_94CF_558CBB35A912&#45;&gt;EAID_8773213D_440A_4e63_BBFA_E023D82A2862 -->
<g id="edge27" class="edge"><title>EAID_A1FDC680_B844_4ca2_94CF_558CBB35A912&#45;&gt;EAID_8773213D_440A_4e63_BBFA_E023D82A2862</title>
<path fill="none" stroke="black" d="M2041.62,-285.271C2072.53,-290.066 2109.96,-295.875 2148.47,-301.849"/>
<polygon fill="black" stroke="black" points="2148.4,-305.38 2158.82,-303.454 2149.47,-298.462 2148.4,-305.38"/>
</g>
<!-- EAID_B15C141C_6E23_489f_BED4_AE3A9731060C&#45;&gt;EAID_E6B939C0_84CE_4a25_9EFE_2BA8B848C210 -->
<g id="edge20" class="edge"><title>EAID_B15C141C_6E23_489f_BED4_AE3A9731060C&#45;&gt;EAID_E6B939C0_84CE_4a25_9EFE_2BA8B848C210</title>
<path fill="none" stroke="black" d="M1754.09,-369.666C1767.47,-371.89 1781.17,-374.166 1794.84,-376.438"/>
<polygon fill="black" stroke="black" points="1794.35,-379.904 1804.78,-378.091 1795.49,-372.999 1794.35,-379.904"/>
</g>
<!-- EAID_B15C141C_6E23_489f_BED4_AE3A9731060C&#45;&gt;EAID_A1FDC680_B844_4ca2_94CF_558CBB35A912 -->
<g id="edge24" class="edge"><title>EAID_B15C141C_6E23_489f_BED4_AE3A9731060C&#45;&gt;EAID_A1FDC680_B844_4ca2_94CF_558CBB35A912</title>
<path fill="none" stroke="black" d="M1754.09,-318.455C1795.13,-309.599 1839.19,-300.095 1876.21,-292.108"/>
<polygon fill="black" stroke="black" points="1877.42,-295.428 1886.46,-289.897 1875.94,-288.585 1877.42,-295.428"/>
</g>
</g>
</svg>
