<?xml version="1.0" encoding="UTF-8" standalone="no"?>
<!DOCTYPE svg PUBLIC "-//W3C//DTD SVG 1.1//EN"
 "http://www.w3.org/Graphics/SVG/1.1/DTD/svg11.dtd">
<!-- Generated by graphviz version 2.38.0 (20140413.2041)
 -->
<!-- Title: g Pages: 1 -->
<svg width="1366pt" height="324pt"
 viewBox="0.00 0.00 1366.00 324.11" xmlns="http://www.w3.org/2000/svg" xmlns:xlink="http://www.w3.org/1999/xlink">
<g id="graph0" class="graph" transform="scale(1 1) rotate(0) translate(4 320.109)">
<title>g</title>
<polygon fill="white" stroke="none" points="-4,4 -4,-320.109 1362,-320.109 1362,4 -4,4"/>
<!-- EAID_EF17C7F7_26D5_40d2_974E_217C46C500E6 -->
<g id="node1" class="node"><title>EAID_EF17C7F7_26D5_40d2_974E_217C46C500E6</title>
<image xlink:href="img/actor1.png" width="61px" height="90px" preserveAspectRatio="xMinYMin meet" x="10.5" y="-254.5"/>
<text text-anchor="start" x="19" y="-141.3" font-family="Times New Roman,serif" font-size="24.00">User</text>
</g>
<!-- EAID_EE01A777_6A56_42f6_9461_5A2AD13A80CA -->
<g id="node2" class="node"><title>EAID_EE01A777_6A56_42f6_9461_5A2AD13A80CA</title>
<image xlink:href="img/boundary3.png" width="102px" height="67px" preserveAspectRatio="xMinYMin meet" x="1246" y="-241.5"/>
<text text-anchor="start" x="1246" y="-151.3" font-family="Times New Roman,serif" font-size="24.00">Homepage</text>
</g>
<!-- EAID_EF17C7F7_26D5_40d2_974E_217C46C500E6&#45;&gt;EAID_EE01A777_6A56_42f6_9461_5A2AD13A80CA -->
<g id="edge1" class="edge"><title>EAID_EF17C7F7_26D5_40d2_974E_217C46C500E6&#45;&gt;EAID_EE01A777_6A56_42f6_9461_5A2AD13A80CA</title>
<path fill="none" stroke="black" d="M81.2011,-236.911C91.8932,-245.709 104.103,-253.743 117,-258.5 463.514,-386.316 578.665,-260.833 948,-261.5 1060,-261.702 1093.28,-295.469 1200,-261.5 1209.17,-258.581 1218.22,-254.431 1226.88,-249.604"/>
<polygon fill="black" stroke="black" points="1228.93,-252.458 1235.75,-244.352 1225.37,-246.434 1228.93,-252.458"/>
</g>
<!-- EAID_08B32F78_409E_4f52_94C1_BB8F6EFEF2F6 -->
<g id="node3" class="node"><title>EAID_08B32F78_409E_4f52_94C1_BB8F6EFEF2F6</title>
<image xlink:href="img/boundary3.png" width="115px" height="67px" preserveAspectRatio="xMinYMin meet" x="257.5" y="-115.5"/>
<text text-anchor="start" x="127.5" y="-25.3" font-family="Times New Roman,serif" font-size="24.00">fills out a legitimate &#160;account&#39;s id/email </text>
</g>
<!-- EAID_EF17C7F7_26D5_40d2_974E_217C46C500E6&#45;&gt;EAID_08B32F78_409E_4f52_94C1_BB8F6EFEF2F6 -->
<g id="edge2" class="edge"><title>EAID_EF17C7F7_26D5_40d2_974E_217C46C500E6&#45;&gt;EAID_08B32F78_409E_4f52_94C1_BB8F6EFEF2F6</title>
<path fill="none" stroke="black" d="M81.2525,-155.803C92.2095,-146.582 104.53,-137.421 117,-130.5 119.261,-129.245 121.551,-128.011 123.866,-126.797"/>
<polygon fill="black" stroke="black" points="125.573,-129.856 132.915,-122.216 122.412,-123.61 125.573,-129.856"/>
</g>
<!-- EAID_BC60CD07_69E7_4c0b_8388_755A5A79960D -->
<g id="node4" class="node"><title>EAID_BC60CD07_69E7_4c0b_8388_755A5A79960D</title>
<image xlink:href="img/boundary3.png" width="115px" height="67px" preserveAspectRatio="xMinYMin meet" x="257" y="-242.5"/>
<text text-anchor="start" x="200.5" y="-152.3" font-family="Times New Roman,serif" font-size="24.00">selects Forgot Password</text>
</g>
<!-- EAID_EF17C7F7_26D5_40d2_974E_217C46C500E6&#45;&gt;EAID_BC60CD07_69E7_4c0b_8388_755A5A79960D -->
<g id="edge3" class="edge"><title>EAID_EF17C7F7_26D5_40d2_974E_217C46C500E6&#45;&gt;EAID_BC60CD07_69E7_4c0b_8388_755A5A79960D</title>
<path fill="none" stroke="black" d="M81.0511,-194.5C107.516,-194.5 144.019,-194.5 180.26,-194.5"/>
<polygon fill="black" stroke="black" points="180.467,-198 190.467,-194.5 180.467,-191 180.467,-198"/>
</g>
<!-- EAID_87E279A4_9F2E_4c4d_8B76_1E0D397437E3 -->
<g id="node8" class="node"><title>EAID_87E279A4_9F2E_4c4d_8B76_1E0D397437E3</title>
<image xlink:href="img/control1.png" width="106px" height="75px" preserveAspectRatio="xMinYMin meet" x="677" y="-218.5"/>
<text text-anchor="start" x="558" y="-120.3" font-family="Times New Roman,serif" font-size="24.00">sends an email to the account&#39;s email</text>
</g>
<!-- EAID_08B32F78_409E_4f52_94C1_BB8F6EFEF2F6&#45;&gt;EAID_87E279A4_9F2E_4c4d_8B76_1E0D397437E3 -->
<g id="edge9" class="edge"><title>EAID_08B32F78_409E_4f52_94C1_BB8F6EFEF2F6&#45;&gt;EAID_87E279A4_9F2E_4c4d_8B76_1E0D397437E3</title>
<path fill="none" stroke="black" d="M512.259,-114.608C520.789,-116.65 529.341,-118.698 537.858,-120.737"/>
<polygon fill="black" stroke="black" points="537.295,-124.201 547.836,-123.126 538.925,-117.393 537.295,-124.201"/>
</g>
<!-- EAID_BC60CD07_69E7_4c0b_8388_755A5A79960D&#45;&gt;EAID_87E279A4_9F2E_4c4d_8B76_1E0D397437E3 -->
<g id="edge10" class="edge"><title>EAID_BC60CD07_69E7_4c0b_8388_755A5A79960D&#45;&gt;EAID_87E279A4_9F2E_4c4d_8B76_1E0D397437E3</title>
<path fill="none" stroke="black" d="M438.724,-186.156C469.785,-184.053 503.871,-181.745 537.421,-179.473"/>
<polygon fill="black" stroke="black" points="538.071,-182.937 547.811,-178.769 537.598,-175.953 538.071,-182.937"/>
</g>
<!-- EAID_8BF8DA76_AA8D_4d3a_8FB3_E64FF60A2395 -->
<g id="node5" class="node"><title>EAID_8BF8DA76_AA8D_4d3a_8FB3_E64FF60A2395</title>
<image xlink:href="img/control1.png" width="106px" height="75px" preserveAspectRatio="xMinYMin meet" x="1021" y="-245.5"/>
<text text-anchor="start" x="961" y="-147.3" font-family="Times New Roman,serif" font-size="24.00">show confirmation page</text>
</g>
<!-- EAID_8BF8DA76_AA8D_4d3a_8FB3_E64FF60A2395&#45;&gt;EAID_EE01A777_6A56_42f6_9461_5A2AD13A80CA -->
<g id="edge4" class="edge"><title>EAID_8BF8DA76_AA8D_4d3a_8FB3_E64FF60A2395&#45;&gt;EAID_EE01A777_6A56_42f6_9461_5A2AD13A80CA</title>
<path fill="none" stroke="black" d="M1197.14,-193.5C1206.85,-193.5 1216.45,-193.5 1225.62,-193.5"/>
<polygon fill="black" stroke="black" points="1225.78,-197 1235.78,-193.5 1225.78,-190 1225.78,-197"/>
</g>
<!-- EAID_69353290_11A9_4271_98C6_E1382D7C874D -->
<g id="node6" class="node"><title>EAID_69353290_11A9_4271_98C6_E1382D7C874D</title>
<image xlink:href="img/control1.png" width="106px" height="75px" preserveAspectRatio="xMinYMin meet" x="1021" y="-110.5"/>
<text text-anchor="start" x="958" y="-12.3" font-family="Times New Roman,serif" font-size="24.00">Show confirmation page</text>
</g>
<!-- EAID_69353290_11A9_4271_98C6_E1382D7C874D&#45;&gt;EAID_EE01A777_6A56_42f6_9461_5A2AD13A80CA -->
<g id="edge5" class="edge"><title>EAID_69353290_11A9_4271_98C6_E1382D7C874D&#45;&gt;EAID_EE01A777_6A56_42f6_9461_5A2AD13A80CA</title>
<path fill="none" stroke="black" d="M1186.17,-117.149C1190.87,-119.924 1195.5,-122.714 1200,-125.5 1209.04,-131.096 1218.38,-137.228 1227.51,-143.447"/>
<polygon fill="black" stroke="black" points="1225.61,-146.385 1235.83,-149.169 1229.57,-140.618 1225.61,-146.385"/>
</g>
<!-- EAID_69353290_11A9_4271_98C6_E1382D7C874D&#45;&gt;EAID_08B32F78_409E_4f52_94C1_BB8F6EFEF2F6 -->
<g id="edge7" class="edge"><title>EAID_69353290_11A9_4271_98C6_E1382D7C874D&#45;&gt;EAID_08B32F78_409E_4f52_94C1_BB8F6EFEF2F6</title>
<path fill="none" stroke="black" d="M947.969,-59.9855C832.387,-61.3588 658.443,-63.4254 522.209,-65.0441"/>
<polygon fill="black" stroke="black" points="522.011,-61.5461 512.053,-65.1647 522.094,-68.5456 522.011,-61.5461"/>
</g>
<!-- EAID_566373CF_0774_4488_AE86_662FD689CE94 -->
<g id="node7" class="node"><title>EAID_566373CF_0774_4488_AE86_662FD689CE94</title>
<image xlink:href="img/activity_icon.png" width="30px" height="20px" preserveAspectRatio="xMinYMin meet" x="1282.5" y="-83.5"/>
<text text-anchor="start" x="1257" y="-41.3" font-family="Times New Roman,serif" font-weight="bold" font-size="24.00">User db</text>
</g>
<!-- EAID_69353290_11A9_4271_98C6_E1382D7C874D&#45;&gt;EAID_566373CF_0774_4488_AE86_662FD689CE94 -->
<g id="edge6" class="edge"><title>EAID_69353290_11A9_4271_98C6_E1382D7C874D&#45;&gt;EAID_566373CF_0774_4488_AE86_662FD689CE94</title>
<path fill="none" stroke="black" d="M1200.03,-58.5C1212.59,-58.5 1224.9,-58.5 1236.29,-58.5"/>
<polygon fill="black" stroke="black" points="1236.47,-62.0001 1246.47,-58.5 1236.47,-55.0001 1236.47,-62.0001"/>
</g>
<!-- EAID_87E279A4_9F2E_4c4d_8B76_1E0D397437E3&#45;&gt;EAID_8BF8DA76_AA8D_4d3a_8FB3_E64FF60A2395 -->
<g id="edge11" class="edge"><title>EAID_87E279A4_9F2E_4c4d_8B76_1E0D397437E3&#45;&gt;EAID_8BF8DA76_AA8D_4d3a_8FB3_E64FF60A2395</title>
<path fill="none" stroke="black" d="M912.014,-180.791C921.663,-181.552 931.269,-182.311 940.709,-183.056"/>
<polygon fill="black" stroke="black" points="940.636,-186.561 950.881,-183.859 941.187,-179.583 940.636,-186.561"/>
</g>
<!-- EAID_87E279A4_9F2E_4c4d_8B76_1E0D397437E3&#45;&gt;EAID_69353290_11A9_4271_98C6_E1382D7C874D -->
<g id="edge8" class="edge"><title>EAID_87E279A4_9F2E_4c4d_8B76_1E0D397437E3&#45;&gt;EAID_69353290_11A9_4271_98C6_E1382D7C874D</title>
<path fill="none" stroke="black" d="M912.014,-109.338C920.745,-106.58 929.441,-103.834 938.011,-101.128"/>
<polygon fill="black" stroke="black" points="939.146,-104.44 947.628,-98.0912 937.038,-97.765 939.146,-104.44"/>
</g>
</g>
</svg>
