<?xml version="1.0" encoding="UTF-8" standalone="no"?>
<!DOCTYPE svg PUBLIC "-//W3C//DTD SVG 1.1//EN"
 "http://www.w3.org/Graphics/SVG/1.1/DTD/svg11.dtd">
<!-- Generated by graphviz version 2.38.0 (20140413.2041)
 -->
<!-- Title: g Pages: 1 -->
<svg width="1330pt" height="326pt"
 viewBox="0.00 0.00 1330.00 326.00" xmlns="http://www.w3.org/2000/svg" xmlns:xlink="http://www.w3.org/1999/xlink">
<g id="graph0" class="graph" transform="scale(1 1) rotate(0) translate(4 322)">
<title>g</title>
<polygon fill="white" stroke="none" points="-4,4 -4,-322 1326,-322 1326,4 -4,4"/>
<!-- EAID_E1A4C484_F692_4a56_B3F2_6FD80BA96386 -->
<g id="node1" class="node"><title>EAID_E1A4C484_F692_4a56_B3F2_6FD80BA96386</title>
<image xlink:href="img/actor1.png" width="61px" height="90px" preserveAspectRatio="xMinYMin meet" x="10.5" y="-244.5"/>
<text text-anchor="start" x="19" y="-131.3" font-family="Times New Roman,serif" font-size="24.00">User</text>
</g>
<!-- EAID_F9DD62D6_2179_465c_9D04_E337DC2AD440 -->
<g id="node2" class="node"><title>EAID_F9DD62D6_2179_465c_9D04_E337DC2AD440</title>
<image xlink:href="img/boundary3.png" width="115px" height="67px" preserveAspectRatio="xMinYMin meet" x="152.5" y="-189.5"/>
<text text-anchor="start" x="127" y="-99.3" font-family="Times New Roman,serif" font-size="24.00">Modify User Info</text>
</g>
<!-- EAID_E1A4C484_F692_4a56_B3F2_6FD80BA96386&#45;&gt;EAID_F9DD62D6_2179_465c_9D04_E337DC2AD440 -->
<g id="edge1" class="edge"><title>EAID_E1A4C484_F692_4a56_B3F2_6FD80BA96386&#45;&gt;EAID_F9DD62D6_2179_465c_9D04_E337DC2AD440</title>
<path fill="none" stroke="black" d="M81.1952,-174.31C89.1522,-172.267 97.851,-170.034 106.848,-167.724"/>
<polygon fill="black" stroke="black" points="107.891,-171.07 116.706,-165.193 106.15,-164.29 107.891,-171.07"/>
</g>
<!-- EAID_8906C794_9A74_40b0_9A85_6B4973709C16 -->
<g id="node3" class="node"><title>EAID_8906C794_9A74_40b0_9A85_6B4973709C16</title>
<image xlink:href="img/boundary3.png" width="115px" height="67px" preserveAspectRatio="xMinYMin meet" x="1109.5" y="-311.5"/>
<text text-anchor="start" x="1026" y="-221.3" font-family="Times New Roman,serif" font-size="24.00">Invalid input user information</text>
</g>
<!-- EAID_E1A4C484_F692_4a56_B3F2_6FD80BA96386&#45;&gt;EAID_8906C794_9A74_40b0_9A85_6B4973709C16 -->
<g id="edge2" class="edge"><title>EAID_E1A4C484_F692_4a56_B3F2_6FD80BA96386&#45;&gt;EAID_8906C794_9A74_40b0_9A85_6B4973709C16</title>
<path fill="none" stroke="black" d="M81.2646,-211.031C92.416,-217.374 104.828,-223.469 117,-227.5 245.369,-270.014 283.774,-264.5 419,-264.5 419,-264.5 419,-264.5 617,-264.5 747.9,-264.5 896.356,-264.212 1005.86,-263.945"/>
<polygon fill="black" stroke="black" points="1006.01,-267.445 1016,-263.92 1005.99,-260.445 1006.01,-267.445"/>
</g>
<!-- EAID_6C19595B_79DE_427c_A196_0CDEA5C79F7B -->
<g id="node4" class="node"><title>EAID_6C19595B_79DE_427c_A196_0CDEA5C79F7B</title>
<image xlink:href="img/boundary3.png" width="115px" height="67px" preserveAspectRatio="xMinYMin meet" x="558.5" y="-225.5"/>
<text text-anchor="start" x="547" y="-135.3" font-family="Times New Roman,serif" font-size="24.00">User info page</text>
</g>
<!-- EAID_E1A4C484_F692_4a56_B3F2_6FD80BA96386&#45;&gt;EAID_6C19595B_79DE_427c_A196_0CDEA5C79F7B -->
<g id="edge3" class="edge"><title>EAID_E1A4C484_F692_4a56_B3F2_6FD80BA96386&#45;&gt;EAID_6C19595B_79DE_427c_A196_0CDEA5C79F7B</title>
<path fill="none" stroke="black" d="M81.0907,-196.976C92.5575,-200.045 105.174,-202.906 117,-204.5 286.139,-227.298 331.653,-227.702 501,-206.5 509.539,-205.431 518.356,-203.928 527.128,-202.163"/>
<polygon fill="black" stroke="black" points="527.941,-205.569 536.996,-200.068 526.487,-198.721 527.941,-205.569"/>
</g>
<!-- EAID_DF3B9D68_18B0_4665_B8F3_B4ABAEDA50EB -->
<g id="node5" class="node"><title>EAID_DF3B9D68_18B0_4665_B8F3_B4ABAEDA50EB</title>
<image xlink:href="img/boundary3.png" width="115px" height="67px" preserveAspectRatio="xMinYMin meet" x="1109.5" y="-102.5"/>
<text text-anchor="start" x="1022" y="-12.3" font-family="Times New Roman,serif" font-size="24.00">Save user info success message</text>
</g>
<!-- EAID_E1A4C484_F692_4a56_B3F2_6FD80BA96386&#45;&gt;EAID_DF3B9D68_18B0_4665_B8F3_B4ABAEDA50EB -->
<g id="edge4" class="edge"><title>EAID_E1A4C484_F692_4a56_B3F2_6FD80BA96386&#45;&gt;EAID_DF3B9D68_18B0_4665_B8F3_B4ABAEDA50EB</title>
<path fill="none" stroke="black" d="M74.7088,-118.453C85.937,-102.466 100.027,-87.2059 117,-77.5 233.915,-10.6432 284.319,-52.5 419,-52.5 419,-52.5 419,-52.5 617,-52.5 746.283,-52.5 892.69,-53.0615 1001.78,-53.5894"/>
<polygon fill="black" stroke="black" points="1001.87,-57.0898 1011.89,-53.6388 1001.9,-50.0899 1001.87,-57.0898"/>
</g>
<!-- EAID_681A168D_C1B3_4083_8AC2_A22DF7236F88 -->
<g id="node7" class="node"><title>EAID_681A168D_C1B3_4083_8AC2_A22DF7236F88</title>
<image xlink:href="img/control1.png" width="106px" height="75px" preserveAspectRatio="xMinYMin meet" x="367" y="-191.5"/>
<text text-anchor="start" x="349" y="-93.3" font-family="Times New Roman,serif" font-size="24.00">query user info</text>
</g>
<!-- EAID_F9DD62D6_2179_465c_9D04_E337DC2AD440&#45;&gt;EAID_681A168D_C1B3_4083_8AC2_A22DF7236F88 -->
<g id="edge6" class="edge"><title>EAID_F9DD62D6_2179_465c_9D04_E337DC2AD440&#45;&gt;EAID_681A168D_C1B3_4083_8AC2_A22DF7236F88</title>
<path fill="none" stroke="black" d="M303.14,-140.614C311.638,-140.532 320.243,-140.45 328.724,-140.368"/>
<polygon fill="black" stroke="black" points="329.026,-143.865 338.992,-140.269 328.959,-136.866 329.026,-143.865"/>
</g>
<!-- EAID_2F384E6D_2F4F_4682_95B0_7AB245301DF3 -->
<g id="node6" class="node"><title>EAID_2F384E6D_2F4F_4682_95B0_7AB245301DF3</title>
<image xlink:href="img/control1.png" width="106px" height="75px" preserveAspectRatio="xMinYMin meet" x="801" y="-229.5"/>
<text text-anchor="start" x="741.5" y="-131.3" font-family="Times New Roman,serif" font-size="24.00">Save modified user info</text>
</g>
<!-- EAID_6C19595B_79DE_427c_A196_0CDEA5C79F7B&#45;&gt;EAID_2F384E6D_2F4F_4682_95B0_7AB245301DF3 -->
<g id="edge9" class="edge"><title>EAID_6C19595B_79DE_427c_A196_0CDEA5C79F7B&#45;&gt;EAID_2F384E6D_2F4F_4682_95B0_7AB245301DF3</title>
<path fill="none" stroke="black" d="M695.091,-177.5C703.367,-177.5 711.939,-177.5 720.615,-177.5"/>
<polygon fill="black" stroke="black" points="720.836,-181 730.836,-177.5 720.836,-174 720.836,-181"/>
</g>
<!-- EAID_2F384E6D_2F4F_4682_95B0_7AB245301DF3&#45;&gt;EAID_8906C794_9A74_40b0_9A85_6B4973709C16 -->
<g id="edge5" class="edge"><title>EAID_2F384E6D_2F4F_4682_95B0_7AB245301DF3&#45;&gt;EAID_8906C794_9A74_40b0_9A85_6B4973709C16</title>
<path fill="none" stroke="black" d="M976.272,-211.119C985.999,-213.805 995.911,-216.541 1005.85,-219.284"/>
<polygon fill="black" stroke="black" points="1005.21,-222.741 1015.79,-222.028 1007.08,-215.993 1005.21,-222.741"/>
</g>
<!-- EAID_2F384E6D_2F4F_4682_95B0_7AB245301DF3&#45;&gt;EAID_DF3B9D68_18B0_4665_B8F3_B4ABAEDA50EB -->
<g id="edge8" class="edge"><title>EAID_2F384E6D_2F4F_4682_95B0_7AB245301DF3&#45;&gt;EAID_DF3B9D68_18B0_4665_B8F3_B4ABAEDA50EB</title>
<path fill="none" stroke="black" d="M976.272,-129.417C989.998,-123.997 1004.09,-118.431 1018.1,-112.898"/>
<polygon fill="black" stroke="black" points="1019.77,-116.004 1027.79,-109.076 1017.2,-109.493 1019.77,-116.004"/>
</g>
<!-- EAID_28E5B3C3_AD72_43cb_A9F9_7A41D98A8690 -->
<g id="node8" class="node"><title>EAID_28E5B3C3_AD72_43cb_A9F9_7A41D98A8690</title>
<image xlink:href="img/activity_icon.png" width="30px" height="20px" preserveAspectRatio="xMinYMin meet" x="1152.5" y="-184.5"/>
<text text-anchor="start" x="1120" y="-142.3" font-family="Times New Roman,serif" font-weight="bold" font-size="24.00">User info</text>
</g>
<!-- EAID_2F384E6D_2F4F_4682_95B0_7AB245301DF3&#45;&gt;EAID_28E5B3C3_AD72_43cb_A9F9_7A41D98A8690 -->
<g id="edge7" class="edge"><title>EAID_2F384E6D_2F4F_4682_95B0_7AB245301DF3&#45;&gt;EAID_28E5B3C3_AD72_43cb_A9F9_7A41D98A8690</title>
<path fill="none" stroke="black" d="M976.272,-170.463C1018.05,-168.049 1063.26,-165.437 1099.06,-163.368"/>
<polygon fill="black" stroke="black" points="1099.59,-166.843 1109.37,-162.772 1099.19,-159.855 1099.59,-166.843"/>
</g>
<!-- EAID_681A168D_C1B3_4083_8AC2_A22DF7236F88&#45;&gt;EAID_6C19595B_79DE_427c_A196_0CDEA5C79F7B -->
<g id="edge11" class="edge"><title>EAID_681A168D_C1B3_4083_8AC2_A22DF7236F88&#45;&gt;EAID_6C19595B_79DE_427c_A196_0CDEA5C79F7B</title>
<path fill="none" stroke="black" d="M501.027,-155.175C509.504,-156.836 518.16,-158.531 526.724,-160.209"/>
<polygon fill="black" stroke="black" points="526.233,-163.679 536.72,-162.167 527.579,-156.81 526.233,-163.679"/>
</g>
<!-- EAID_681A168D_C1B3_4083_8AC2_A22DF7236F88&#45;&gt;EAID_28E5B3C3_AD72_43cb_A9F9_7A41D98A8690 -->
<g id="edge10" class="edge"><title>EAID_681A168D_C1B3_4083_8AC2_A22DF7236F88&#45;&gt;EAID_28E5B3C3_AD72_43cb_A9F9_7A41D98A8690</title>
<path fill="none" stroke="black" d="M501.138,-119.358C513.093,-116.988 525.321,-114.915 537,-113.5 730.703,-90.0344 782.494,-84.4648 976,-109.5 988.487,-111.116 1049.78,-127.501 1099.42,-141.081"/>
<polygon fill="black" stroke="black" points="1098.61,-144.487 1109.18,-143.755 1100.46,-137.736 1098.61,-144.487"/>
</g>
</g>
</svg>
