<?xml version="1.0" encoding="UTF-8" standalone="no"?>
<!DOCTYPE svg PUBLIC "-//W3C//DTD SVG 1.1//EN"
 "http://www.w3.org/Graphics/SVG/1.1/DTD/svg11.dtd">
<!-- Generated by graphviz version 2.38.0 (20140413.2041)
 -->
<!-- Title: g Pages: 1 -->
<svg width="3076pt" height="556pt"
 viewBox="0.00 0.00 3076.00 556.00" xmlns="http://www.w3.org/2000/svg" xmlns:xlink="http://www.w3.org/1999/xlink">
<g id="graph0" class="graph" transform="scale(1 1) rotate(0) translate(4 552)">
<title>g</title>
<polygon fill="white" stroke="none" points="-4,4 -4,-552 3072,-552 3072,4 -4,4"/>
<g id="clust1" class="cluster"><title>cluster0</title>
<polygon fill="none" stroke="black" stroke-width="2" points="8,-212 8,-429 870,-429 870,-212 8,-212"/>
<text text-anchor="start" x="417" y="-414.8" font-family="Times New Roman,serif" font-weight="bold" font-size="14.00">System</text>
</g>
<g id="clust2" class="cluster"><title>cluster1</title>
<polygon fill="none" stroke="black" stroke-width="2" points="490,-437 490,-540 892,-540 892,-437 490,-437"/>
<text text-anchor="start" x="667.5" y="-525.8" font-family="Times New Roman,serif" font-weight="bold" font-size="14.00">Student</text>
</g>
<g id="clust3" class="cluster"><title>cluster1000</title>
<polygon fill="none" stroke="black" stroke-width="2" points="204,-8 204,-204 3060,-204 3060,-8 204,-8"/>
<text text-anchor="start" x="1586.5" y="-189.8" font-family="Times New Roman,serif" font-weight="bold" font-size="14.00">Domain Model</text>
</g>
<!-- EAID_2D77662E_28BE_416a_A0F1_298350CBE597___EAID_9A0DD8FA_8B1D_4ffd_9E92_4BC0F61B4F48 -->
<g id="node1" class="node"><title>EAID_2D77662E_28BE_416a_A0F1_298350CBE597___EAID_9A0DD8FA_8B1D_4ffd_9E92_4BC0F61B4F48</title>
<image xlink:href="img/activity_icon.png" width="30px" height="20px" preserveAspectRatio="xMinYMin meet" x="409" y="-292"/>
<text text-anchor="start" x="314" y="-257.8" font-family="Times New Roman,serif" font-weight="bold" font-size="14.00">calculate genealogy statisticss:error</text>
<text text-anchor="start" x="375.5" y="-243.8" font-family="Times New Roman,serif" font-weight="bold" font-size="14.00">message for not</text>
<text text-anchor="start" x="397" y="-229.8" font-family="Times New Roman,serif" font-weight="bold" font-size="14.00">statistics</text>
</g>
<!-- EAID_CC8A4534_B412_4be2_B168_A9A784EA9F10 -->
<g id="node13" class="node"><title>EAID_CC8A4534_B412_4be2_B168_A9A784EA9F10</title>
<polygon fill="none" stroke="black" points="222,-146.5 222,-167.5 627,-167.5 627,-146.5 222,-146.5"/>
<text text-anchor="start" x="396.5" y="-154.3" font-family="Times New Roman,serif" font-weight="bold" font-size="14.00">Statistics</text>
<polygon fill="none" stroke="black" points="222,-125.5 222,-146.5 627,-146.5 627,-125.5 222,-125.5"/>
<text text-anchor="start" x="364" y="-133.3" font-family="Times New Roman,serif" font-weight="bold" font-size="14.00">EAJava_string Info</text>
<polygon fill="none" stroke="black" points="222,-104.5 222,-125.5 627,-125.5 627,-104.5 222,-104.5"/>
<text text-anchor="start" x="357.5" y="-112.3" font-family="Times New Roman,serif" font-weight="bold" font-size="14.00">EAJava_image image</text>
<polygon fill="none" stroke="black" points="222,-83.5 222,-104.5 627,-104.5 627,-83.5 222,-83.5"/>
<text text-anchor="start" x="225" y="-91.3" font-family="Times New Roman,serif" font-weight="bold" font-size="14.00">EAID_587533B8_71F8_4c8f_BEC2_A3AA5B0CC295 undefined</text>
<polygon fill="none" stroke="black" points="222,-62.5 222,-83.5 627,-83.5 627,-62.5 222,-62.5"/>
<text text-anchor="start" x="392" y="-70.3" font-family="Times New Roman,serif" font-weight="bold" font-size="14.00">Statistics()</text>
<polygon fill="none" stroke="black" points="222,-41.5 222,-62.5 627,-62.5 627,-41.5 222,-41.5"/>
<text text-anchor="start" x="308" y="-49.3" font-family="Times New Roman,serif" font-weight="bold" font-size="14.00">hidethegenealogyandstatisticsframes()</text>
<polygon fill="none" stroke="black" points="222,-20.5 222,-41.5 627,-41.5 627,-20.5 222,-20.5"/>
<text text-anchor="start" x="341.5" y="-28.3" font-family="Times New Roman,serif" font-weight="bold" font-size="14.00">circleidentificationinvideo()</text>
<polygon fill="none" stroke="black" points="220.5,-20 220.5,-169 627.5,-169 627.5,-20 220.5,-20"/>
</g>
<!-- EAID_2D77662E_28BE_416a_A0F1_298350CBE597___EAID_9A0DD8FA_8B1D_4ffd_9E92_4BC0F61B4F48&#45;&gt;EAID_CC8A4534_B412_4be2_B168_A9A784EA9F10 -->
<g id="edge6" class="edge"><title>EAID_2D77662E_28BE_416a_A0F1_298350CBE597___EAID_9A0DD8FA_8B1D_4ffd_9E92_4BC0F61B4F48&#45;&gt;EAID_CC8A4534_B412_4be2_B168_A9A784EA9F10</title>
<path fill="none" stroke="black" stroke-dasharray="5,2" d="M424,-219.901C424,-208.798 424,-196.18 424,-183.342"/>
<polygon fill="black" stroke="black" points="427.5,-183.023 424,-173.023 420.5,-183.023 427.5,-183.023"/>
</g>
<!-- EAID_2D77662E_28BE_416a_A0F1_298350CBE597___EAID_6A2FEF51_B22F_496f_B651_00812806AC81 -->
<g id="node2" class="node"><title>EAID_2D77662E_28BE_416a_A0F1_298350CBE597___EAID_6A2FEF51_B22F_496f_B651_00812806AC81</title>
<image xlink:href="img/activity_icon.png" width="30px" height="20px" preserveAspectRatio="xMinYMin meet" x="136.5" y="-285"/>
<text text-anchor="start" x="27" y="-250.8" font-family="Times New Roman,serif" font-weight="bold" font-size="14.00">calculate genealogy statisticss:genealogy</text>
<text text-anchor="start" x="124.5" y="-236.8" font-family="Times New Roman,serif" font-weight="bold" font-size="14.00">statistics</text>
</g>
<!-- EAID_2D77662E_28BE_416a_A0F1_298350CBE597___EAID_6A2FEF51_B22F_496f_B651_00812806AC81&#45;&gt;EAID_CC8A4534_B412_4be2_B168_A9A784EA9F10 -->
<g id="edge7" class="edge"><title>EAID_2D77662E_28BE_416a_A0F1_298350CBE597___EAID_6A2FEF51_B22F_496f_B651_00812806AC81&#45;&gt;EAID_CC8A4534_B412_4be2_B168_A9A784EA9F10</title>
<path fill="none" stroke="black" stroke-dasharray="5,2" d="M203.314,-226.861C226.847,-212.853 255.856,-195.585 285.017,-178.228"/>
<polygon fill="black" stroke="black" points="286.849,-181.21 293.652,-173.088 283.269,-175.195 286.849,-181.21"/>
</g>
<!-- EAID_C5E32EFD_574F_4f06_9E47_B19684B1BF8A___EAID_2D77662E_28BE_416a_A0F1_298350CBE597 -->
<g id="node3" class="node"><title>EAID_C5E32EFD_574F_4f06_9E47_B19684B1BF8A___EAID_2D77662E_28BE_416a_A0F1_298350CBE597</title>
<image xlink:href="img/activity_icon.png" width="30px" height="20px" preserveAspectRatio="xMinYMin meet" x="123" y="-392"/>
<text text-anchor="start" x="26" y="-357.8" font-family="Times New Roman,serif" font-weight="bold" font-size="14.00">display genealogy statistics:calculate</text>
<text text-anchor="start" x="75.5" y="-343.8" font-family="Times New Roman,serif" font-weight="bold" font-size="14.00">genealogy statisticss</text>
</g>
<!-- EAID_C5E32EFD_574F_4f06_9E47_B19684B1BF8A___EAID_2D77662E_28BE_416a_A0F1_298350CBE597&#45;&gt;EAID_2D77662E_28BE_416a_A0F1_298350CBE597___EAID_9A0DD8FA_8B1D_4ffd_9E92_4BC0F61B4F48 -->
<g id="edge1" class="edge"><title>EAID_C5E32EFD_574F_4f06_9E47_B19684B1BF8A___EAID_2D77662E_28BE_416a_A0F1_298350CBE597&#45;&gt;EAID_2D77662E_28BE_416a_A0F1_298350CBE597___EAID_9A0DD8FA_8B1D_4ffd_9E92_4BC0F61B4F48</title>
<path fill="none" stroke="black" d="M222.649,-333.923C250.294,-323.773 281.451,-312.334 310.847,-301.542"/>
<polygon fill="black" stroke="black" points="312.141,-304.795 320.323,-298.063 309.729,-298.224 312.141,-304.795"/>
</g>
<!-- EAID_C5E32EFD_574F_4f06_9E47_B19684B1BF8A___EAID_2D77662E_28BE_416a_A0F1_298350CBE597&#45;&gt;EAID_2D77662E_28BE_416a_A0F1_298350CBE597___EAID_6A2FEF51_B22F_496f_B651_00812806AC81 -->
<g id="edge2" class="edge"><title>EAID_C5E32EFD_574F_4f06_9E47_B19684B1BF8A___EAID_2D77662E_28BE_416a_A0F1_298350CBE597&#45;&gt;EAID_2D77662E_28BE_416a_A0F1_298350CBE597___EAID_6A2FEF51_B22F_496f_B651_00812806AC81</title>
<path fill="none" stroke="black" d="M141.865,-333.781C143.124,-323.611 144.542,-312.158 145.879,-301.364"/>
<polygon fill="black" stroke="black" points="149.372,-301.635 147.127,-291.28 142.425,-300.774 149.372,-301.635"/>
</g>
<!-- EAID_C5E32EFD_574F_4f06_9E47_B19684B1BF8A___EAID_2D77662E_28BE_416a_A0F1_298350CBE597&#45;&gt;EAID_CC8A4534_B412_4be2_B168_A9A784EA9F10 -->
<g id="edge8" class="edge"><title>EAID_C5E32EFD_574F_4f06_9E47_B19684B1BF8A___EAID_2D77662E_28BE_416a_A0F1_298350CBE597&#45;&gt;EAID_CC8A4534_B412_4be2_B168_A9A784EA9F10</title>
<path fill="none" stroke="black" stroke-dasharray="5,2" d="M260.26,-335.444C263.197,-334.936 266.114,-334.453 269,-334 319.1,-326.138 689.583,-335.247 724,-298 749.939,-269.927 749.63,-240.356 724,-212 712.168,-198.909 661.965,-208.854 645,-204 620.966,-197.124 596.378,-187.726 572.745,-177.319"/>
<polygon fill="black" stroke="black" points="573.944,-174.021 563.387,-173.124 571.081,-180.408 573.944,-174.021"/>
</g>
<!-- EAID_68AB1107_98B0_4900_9DED_F535B83D81B3___EAID_79E17160_5728_4e51_9DEB_9ED1631084C8 -->
<g id="node4" class="node"><title>EAID_68AB1107_98B0_4900_9DED_F535B83D81B3___EAID_79E17160_5728_4e51_9DEB_9ED1631084C8</title>
<image xlink:href="img/activity_icon.png" width="30px" height="20px" preserveAspectRatio="xMinYMin meet" x="624.5" y="-285"/>
<text text-anchor="start" x="573" y="-250.8" font-family="Times New Roman,serif" font-weight="bold" font-size="14.00">circle identification in</text>
<text text-anchor="start" x="585" y="-236.8" font-family="Times New Roman,serif" font-weight="bold" font-size="14.00">video:video frame</text>
</g>
<!-- EAID_3D51B4AE_C800_43cd_B2DD_DB76A2AF6708 -->
<g id="node18" class="node"><title>EAID_3D51B4AE_C800_43cd_B2DD_DB76A2AF6708</title>
<polygon fill="none" stroke="black" points="1661,-146.5 1661,-167.5 1934,-167.5 1934,-146.5 1661,-146.5"/>
<text text-anchor="start" x="1763" y="-154.3" font-family="Times New Roman,serif" font-weight="bold" font-size="14.00">videoframe</text>
<polygon fill="none" stroke="black" points="1661,-125.5 1661,-146.5 1934,-146.5 1934,-125.5 1661,-125.5"/>
<text text-anchor="start" x="1758.5" y="-133.3" font-family="Times New Roman,serif" font-weight="bold" font-size="14.00">videoframe()</text>
<polygon fill="none" stroke="black" points="1661,-104.5 1661,-125.5 1934,-125.5 1934,-104.5 1661,-104.5"/>
<text text-anchor="start" x="1680.5" y="-112.3" font-family="Times New Roman,serif" font-weight="bold" font-size="14.00">playpauseresicebuttonsofvideoplayer()</text>
<polygon fill="none" stroke="black" points="1661,-83.5 1661,-104.5 1934,-104.5 1934,-83.5 1661,-83.5"/>
<text text-anchor="start" x="1756" y="-91.3" font-family="Times New Roman,serif" font-weight="bold" font-size="14.00">Videoplayer()</text>
<polygon fill="none" stroke="black" points="1661,-62.5 1661,-83.5 1934,-83.5 1934,-62.5 1661,-62.5"/>
<text text-anchor="start" x="1727" y="-70.3" font-family="Times New Roman,serif" font-weight="bold" font-size="14.00">Controlbarofthevideo()</text>
<polygon fill="none" stroke="black" points="1661,-41.5 1661,-62.5 1934,-62.5 1934,-41.5 1661,-41.5"/>
<text text-anchor="start" x="1664" y="-49.3" font-family="Times New Roman,serif" font-weight="bold" font-size="14.00">displaythetranscirptblockonthevideoframe()</text>
<polygon fill="none" stroke="black" points="1661,-20.5 1661,-41.5 1934,-41.5 1934,-20.5 1661,-20.5"/>
<text text-anchor="start" x="1763.5" y="-28.3" font-family="Times New Roman,serif" font-weight="bold" font-size="14.00">loadvideo()</text>
<polygon fill="none" stroke="black" points="1659.5,-20 1659.5,-169 1934.5,-169 1934.5,-20 1659.5,-20"/>
</g>
<!-- EAID_68AB1107_98B0_4900_9DED_F535B83D81B3___EAID_79E17160_5728_4e51_9DEB_9ED1631084C8&#45;&gt;EAID_3D51B4AE_C800_43cd_B2DD_DB76A2AF6708 -->
<g id="edge9" class="edge"><title>EAID_68AB1107_98B0_4900_9DED_F535B83D81B3___EAID_79E17160_5728_4e51_9DEB_9ED1631084C8&#45;&gt;EAID_3D51B4AE_C800_43cd_B2DD_DB76A2AF6708</title>
<path fill="none" stroke="black" stroke-dasharray="5,2" d="M715.505,-251.68C840.443,-241.606 1096.11,-222.026 1313,-212 1349.64,-210.306 1608.17,-215.503 1643,-204 1661.38,-197.929 1679.49,-188.867 1696.48,-178.52"/>
<polygon fill="black" stroke="black" points="1698.65,-181.288 1705.25,-173.001 1694.93,-175.362 1698.65,-181.288"/>
</g>
<!-- EAID_C5E32EFD_574F_4f06_9E47_B19684B1BF8A___EAID_68AB1107_98B0_4900_9DED_F535B83D81B3 -->
<g id="node5" class="node"><title>EAID_C5E32EFD_574F_4f06_9E47_B19684B1BF8A___EAID_68AB1107_98B0_4900_9DED_F535B83D81B3</title>
<image xlink:href="img/activity_icon.png" width="30px" height="20px" preserveAspectRatio="xMinYMin meet" x="375.5" y="-392"/>
<text text-anchor="start" x="289" y="-357.8" font-family="Times New Roman,serif" font-weight="bold" font-size="14.00">display genealogy statistics:circle</text>
<text text-anchor="start" x="325" y="-343.8" font-family="Times New Roman,serif" font-weight="bold" font-size="14.00">identification in video</text>
</g>
<!-- EAID_C5E32EFD_574F_4f06_9E47_B19684B1BF8A___EAID_68AB1107_98B0_4900_9DED_F535B83D81B3&#45;&gt;EAID_68AB1107_98B0_4900_9DED_F535B83D81B3___EAID_79E17160_5728_4e51_9DEB_9ED1631084C8 -->
<g id="edge3" class="edge"><title>EAID_C5E32EFD_574F_4f06_9E47_B19684B1BF8A___EAID_68AB1107_98B0_4900_9DED_F535B83D81B3&#45;&gt;EAID_68AB1107_98B0_4900_9DED_F535B83D81B3___EAID_79E17160_5728_4e51_9DEB_9ED1631084C8</title>
<path fill="none" stroke="black" d="M466.873,-333.883C494.137,-322.72 524.996,-309.94 553,-298 555.217,-297.055 557.465,-296.092 559.731,-295.117"/>
<polygon fill="black" stroke="black" points="561.342,-298.234 569.133,-291.054 558.565,-291.809 561.342,-298.234"/>
</g>
<!-- EAID_C5E32EFD_574F_4f06_9E47_B19684B1BF8A___EAID_68AB1107_98B0_4900_9DED_F535B83D81B3&#45;&gt;EAID_CC8A4534_B412_4be2_B168_A9A784EA9F10 -->
<g id="edge10" class="edge"><title>EAID_C5E32EFD_574F_4f06_9E47_B19684B1BF8A___EAID_68AB1107_98B0_4900_9DED_F535B83D81B3&#45;&gt;EAID_CC8A4534_B412_4be2_B168_A9A784EA9F10</title>
<path fill="none" stroke="black" stroke-dasharray="5,2" d="M501.648,-335.937C504.795,-335.265 507.917,-334.618 511,-334 565.388,-323.101 721.716,-339.956 758,-298 783.002,-269.089 784.055,-239.965 758,-212 749.42,-202.791 657.152,-207.279 645,-204 620.3,-197.336 595.07,-187.857 570.906,-177.244"/>
<polygon fill="black" stroke="black" points="572.259,-174.014 561.701,-173.124 569.399,-180.404 572.259,-174.014"/>
</g>
<!-- EAID_AC49C328_113D_4856_9322_252402C9B237___EAID_9A0DD8FA_8B1D_4ffd_9E92_4BC0F61B4F48 -->
<g id="node6" class="node"><title>EAID_AC49C328_113D_4856_9322_252402C9B237___EAID_9A0DD8FA_8B1D_4ffd_9E92_4BC0F61B4F48</title>
<image xlink:href="img/activity_icon.png" width="30px" height="20px" preserveAspectRatio="xMinYMin meet" x="595" y="-392"/>
<text text-anchor="start" x="530" y="-357.8" font-family="Times New Roman,serif" font-weight="bold" font-size="14.00">Student:error message for</text>
<text text-anchor="start" x="571.5" y="-343.8" font-family="Times New Roman,serif" font-weight="bold" font-size="14.00">not statistics</text>
</g>
<!-- EAID_AC49C328_113D_4856_9322_252402C9B237___EAID_9A0DD8FA_8B1D_4ffd_9E92_4BC0F61B4F48&#45;&gt;EAID_CC8A4534_B412_4be2_B168_A9A784EA9F10 -->
<g id="edge11" class="edge"><title>EAID_AC49C328_113D_4856_9322_252402C9B237___EAID_9A0DD8FA_8B1D_4ffd_9E92_4BC0F61B4F48&#45;&gt;EAID_CC8A4534_B412_4be2_B168_A9A784EA9F10</title>
<path fill="none" stroke="black" stroke-dasharray="5,2" d="M700.432,-334.735C739.075,-320.901 776.619,-305.87 782,-298 803.572,-266.447 808.228,-239.804 782,-212 771.537,-200.908 659.746,-207.881 645,-204 620.076,-197.44 594.633,-187.951 570.298,-177.277"/>
<polygon fill="black" stroke="black" points="571.586,-174.019 561.029,-173.132 568.728,-180.41 571.586,-174.019"/>
</g>
<!-- EAID_AC49C328_113D_4856_9322_252402C9B237___EAID_79E17160_5728_4e51_9DEB_9ED1631084C8 -->
<g id="node7" class="node"><title>EAID_AC49C328_113D_4856_9322_252402C9B237___EAID_79E17160_5728_4e51_9DEB_9ED1631084C8</title>
<image xlink:href="img/activity_icon.png" width="30px" height="20px" preserveAspectRatio="xMinYMin meet" x="775.5" y="-385"/>
<text text-anchor="start" x="729" y="-350.8" font-family="Times New Roman,serif" font-weight="bold" font-size="14.00">Student:video frame</text>
</g>
<!-- EAID_AC49C328_113D_4856_9322_252402C9B237___EAID_79E17160_5728_4e51_9DEB_9ED1631084C8&#45;&gt;EAID_3D51B4AE_C800_43cd_B2DD_DB76A2AF6708 -->
<g id="edge12" class="edge"><title>EAID_AC49C328_113D_4856_9322_252402C9B237___EAID_79E17160_5728_4e51_9DEB_9ED1631084C8&#45;&gt;EAID_3D51B4AE_C800_43cd_B2DD_DB76A2AF6708</title>
<path fill="none" stroke="black" stroke-dasharray="5,2" d="M861.755,-361.699C1012.29,-352.61 1369.74,-319.585 1643,-204 1659.39,-197.066 1675.78,-188.177 1691.41,-178.477"/>
<polygon fill="black" stroke="black" points="1693.45,-181.328 1700.02,-173.012 1689.7,-175.419 1693.45,-181.328"/>
</g>
<!-- EAID_AC49C328_113D_4856_9322_252402C9B237___EAID_9A0DD8FA_8B1D_4ffd_9E92_4BC0F61B4F48_STL -->
<g id="node8" class="node"><title>EAID_AC49C328_113D_4856_9322_252402C9B237___EAID_9A0DD8FA_8B1D_4ffd_9E92_4BC0F61B4F48_STL</title>
<image xlink:href="img/stimulus_icon.png" width="30px" height="20px" preserveAspectRatio="xMinYMin meet" x="584" y="-503"/>
<text text-anchor="start" x="508" y="-468.8" font-family="Times New Roman,serif" font-weight="bold" font-size="14.00">stl#Student:error message for</text>
<text text-anchor="start" x="560.5" y="-454.8" font-family="Times New Roman,serif" font-weight="bold" font-size="14.00">not statistics</text>
</g>
<!-- EAID_AC49C328_113D_4856_9322_252402C9B237___EAID_9A0DD8FA_8B1D_4ffd_9E92_4BC0F61B4F48_STL&#45;&gt;EAID_AC49C328_113D_4856_9322_252402C9B237___EAID_9A0DD8FA_8B1D_4ffd_9E92_4BC0F61B4F48 -->
<g id="edge4" class="edge"><title>EAID_AC49C328_113D_4856_9322_252402C9B237___EAID_9A0DD8FA_8B1D_4ffd_9E92_4BC0F61B4F48_STL&#45;&gt;EAID_AC49C328_113D_4856_9322_252402C9B237___EAID_9A0DD8FA_8B1D_4ffd_9E92_4BC0F61B4F48</title>
<path fill="none" stroke="black" d="M602.152,-444.765C603.291,-433.477 604.596,-420.549 605.81,-408.518"/>
<polygon fill="black" stroke="black" points="609.326,-408.541 606.847,-398.24 602.361,-407.838 609.326,-408.541"/>
</g>
<!-- EAID_AC49C328_113D_4856_9322_252402C9B237___EAID_79E17160_5728_4e51_9DEB_9ED1631084C8_STL -->
<g id="node9" class="node"><title>EAID_AC49C328_113D_4856_9322_252402C9B237___EAID_79E17160_5728_4e51_9DEB_9ED1631084C8_STL</title>
<image xlink:href="img/stimulus_icon.png" width="30px" height="20px" preserveAspectRatio="xMinYMin meet" x="786.5" y="-496"/>
<text text-anchor="start" x="729" y="-461.8" font-family="Times New Roman,serif" font-weight="bold" font-size="14.00">stl#Student:video frame</text>
</g>
<!-- EAID_AC49C328_113D_4856_9322_252402C9B237___EAID_79E17160_5728_4e51_9DEB_9ED1631084C8_STL&#45;&gt;EAID_AC49C328_113D_4856_9322_252402C9B237___EAID_79E17160_5728_4e51_9DEB_9ED1631084C8 -->
<g id="edge5" class="edge"><title>EAID_AC49C328_113D_4856_9322_252402C9B237___EAID_79E17160_5728_4e51_9DEB_9ED1631084C8_STL&#45;&gt;EAID_AC49C328_113D_4856_9322_252402C9B237___EAID_79E17160_5728_4e51_9DEB_9ED1631084C8</title>
<path fill="none" stroke="black" d="M798.504,-451.266C797.027,-436.633 795.134,-417.87 793.508,-401.765"/>
<polygon fill="black" stroke="black" points="796.973,-401.234 792.486,-391.636 790.008,-401.937 796.973,-401.234"/>
</g>
<!-- EAID_3B0C8B59_2B58_4766_A057_98CCB87E191E -->
<g id="node10" class="node"><title>EAID_3B0C8B59_2B58_4766_A057_98CCB87E191E</title>
<polygon fill="none" stroke="black" points="2638,-115.5 2638,-136.5 3043,-136.5 3043,-115.5 2638,-115.5"/>
<text text-anchor="start" x="2807.5" y="-123.3" font-family="Times New Roman,serif" font-weight="bold" font-size="14.00">Genealogy</text>
<polygon fill="none" stroke="black" points="2638,-94.5 2638,-115.5 3043,-115.5 3043,-94.5 2638,-94.5"/>
<text text-anchor="start" x="2761" y="-102.3" font-family="Times New Roman,serif" font-weight="bold" font-size="14.00">EAJava_image genealogy</text>
<polygon fill="none" stroke="black" points="2638,-73.5 2638,-94.5 3043,-94.5 3043,-73.5 2638,-73.5"/>
<text text-anchor="start" x="2641" y="-81.3" font-family="Times New Roman,serif" font-weight="bold" font-size="14.00">EAID_587533B8_71F8_4c8f_BEC2_A3AA5B0CC295 undefined</text>
<polygon fill="none" stroke="black" points="2638,-52.5 2638,-73.5 3043,-73.5 3043,-52.5 2638,-52.5"/>
<text text-anchor="start" x="2803" y="-60.3" font-family="Times New Roman,serif" font-weight="bold" font-size="14.00">Genealogy()</text>
<polygon fill="none" stroke="black" points="2636.5,-51.5 2636.5,-137.5 3043.5,-137.5 3043.5,-51.5 2636.5,-51.5"/>
</g>
<!-- EAID_3F17A4C2_B3F7_42bf_AB1B_6ECDE47E3729 -->
<g id="node11" class="node"><title>EAID_3F17A4C2_B3F7_42bf_AB1B_6ECDE47E3729</title>
<polygon fill="none" stroke="black" points="2411,-104.5 2411,-125.5 2601,-125.5 2601,-104.5 2411,-104.5"/>
<text text-anchor="start" x="2444.5" y="-112.3" font-family="Times New Roman,serif" font-weight="bold" font-size="14.00">Image Gallery Page</text>
<polygon fill="none" stroke="black" points="2411,-83.5 2411,-104.5 2601,-104.5 2601,-83.5 2411,-83.5"/>
<text text-anchor="start" x="2414" y="-91.3" font-family="Times New Roman,serif" font-weight="bold" font-size="14.00">EAJava_image image_gallery</text>
<polygon fill="none" stroke="black" points="2411,-62.5 2411,-83.5 2601,-83.5 2601,-62.5 2411,-62.5"/>
<text text-anchor="start" x="2444" y="-70.3" font-family="Times New Roman,serif" font-weight="bold" font-size="14.00">ImageGalleryPage()</text>
<polygon fill="none" stroke="black" points="2410,-62 2410,-127 2602,-127 2602,-62 2410,-62"/>
</g>
<!-- EAID_56768EA0_C81B_4eb0_A2CD_564B3C1963D8 -->
<g id="node12" class="node"><title>EAID_56768EA0_C81B_4eb0_A2CD_564B3C1963D8</title>
<polygon fill="none" stroke="black" points="1970,-136.5 1970,-157.5 2375,-157.5 2375,-136.5 1970,-136.5"/>
<text text-anchor="start" x="2123.5" y="-144.3" font-family="Times New Roman,serif" font-weight="bold" font-size="14.00">Interactive Text</text>
<polygon fill="none" stroke="black" points="1970,-115.5 1970,-136.5 2375,-136.5 2375,-115.5 1970,-115.5"/>
<text text-anchor="start" x="2092" y="-123.3" font-family="Times New Roman,serif" font-weight="bold" font-size="14.00">EAJava_string Transcript</text>
<polygon fill="none" stroke="black" points="1970,-94.5 1970,-115.5 2375,-115.5 2375,-94.5 1970,-94.5"/>
<text text-anchor="start" x="1973" y="-102.3" font-family="Times New Roman,serif" font-weight="bold" font-size="14.00">EAID_587533B8_71F8_4c8f_BEC2_A3AA5B0CC295 undefined</text>
<polygon fill="none" stroke="black" points="1970,-73.5 1970,-94.5 2375,-94.5 2375,-73.5 1970,-73.5"/>
<text text-anchor="start" x="2124" y="-81.3" font-family="Times New Roman,serif" font-weight="bold" font-size="14.00">Text_to_TBM()</text>
<polygon fill="none" stroke="black" points="1970,-52.5 1970,-73.5 2375,-73.5 2375,-52.5 1970,-52.5"/>
<text text-anchor="start" x="2044.5" y="-60.3" font-family="Times New Roman,serif" font-weight="bold" font-size="14.00">Text_to_Genealogy_Statistics_Highlight()</text>
<polygon fill="none" stroke="black" points="1970,-31.5 1970,-52.5 2375,-52.5 2375,-31.5 1970,-31.5"/>
<text text-anchor="start" x="2095" y="-39.3" font-family="Times New Roman,serif" font-weight="bold" font-size="14.00">interationliteraturepage()</text>
<polygon fill="none" stroke="black" points="1968.5,-30.5 1968.5,-158.5 2375.5,-158.5 2375.5,-30.5 1968.5,-30.5"/>
</g>
<!-- EAID_0CE44D94_4EDD_4f70_825D_519C83E4701C -->
<g id="node14" class="node"><title>EAID_0CE44D94_4EDD_4f70_825D_519C83E4701C</title>
<polygon fill="none" stroke="black" points="1220,-136.5 1220,-157.5 1625,-157.5 1625,-136.5 1220,-136.5"/>
<text text-anchor="start" x="1343.5" y="-144.3" font-family="Times New Roman,serif" font-weight="bold" font-size="14.00">Time Based Media(TBM)</text>
<polygon fill="none" stroke="black" points="1220,-115.5 1220,-136.5 1625,-136.5 1625,-115.5 1220,-115.5"/>
<text text-anchor="start" x="1223" y="-123.3" font-family="Times New Roman,serif" font-weight="bold" font-size="14.00">EAID_587533B8_71F8_4c8f_BEC2_A3AA5B0CC295 undefined</text>
<polygon fill="none" stroke="black" points="1220,-94.5 1220,-115.5 1625,-115.5 1625,-94.5 1220,-94.5"/>
<text text-anchor="start" x="1404" y="-102.3" font-family="Times New Roman,serif" font-weight="bold" font-size="14.00">Play()</text>
<polygon fill="none" stroke="black" points="1220,-73.5 1220,-94.5 1625,-94.5 1625,-73.5 1220,-73.5"/>
<text text-anchor="start" x="1399.5" y="-81.3" font-family="Times New Roman,serif" font-weight="bold" font-size="14.00">Pause()</text>
<polygon fill="none" stroke="black" points="1220,-52.5 1220,-73.5 1625,-73.5 1625,-52.5 1220,-52.5"/>
<text text-anchor="start" x="1398" y="-60.3" font-family="Times New Roman,serif" font-weight="bold" font-size="14.00">Resize()</text>
<polygon fill="none" stroke="black" points="1220,-31.5 1220,-52.5 1625,-52.5 1625,-31.5 1220,-31.5"/>
<text text-anchor="start" x="1354.5" y="-39.3" font-family="Times New Roman,serif" font-weight="bold" font-size="14.00">RollTranscriptBlock()</text>
<polygon fill="none" stroke="black" points="1218.5,-30.5 1218.5,-158.5 1625.5,-158.5 1625.5,-30.5 1218.5,-30.5"/>
</g>
<!-- EAID_D1B249B6_3DCC_47e5_A22B_5BC4CD0D9A1A -->
<g id="node15" class="node"><title>EAID_D1B249B6_3DCC_47e5_A22B_5BC4CD0D9A1A</title>
<polygon fill="none" stroke="black" points="1003,-115.5 1003,-136.5 1183,-136.5 1183,-115.5 1003,-115.5"/>
<text text-anchor="start" x="1038" y="-123.3" font-family="Times New Roman,serif" font-weight="bold" font-size="14.00">Village Map Page</text>
<polygon fill="none" stroke="black" points="1003,-94.5 1003,-115.5 1183,-115.5 1183,-94.5 1003,-94.5"/>
<text text-anchor="start" x="1031" y="-102.3" font-family="Times New Roman,serif" font-weight="bold" font-size="14.00">EAJava_image map</text>
<polygon fill="none" stroke="black" points="1003,-73.5 1003,-94.5 1183,-94.5 1183,-73.5 1003,-73.5"/>
<text text-anchor="start" x="1037" y="-81.3" font-family="Times New Roman,serif" font-weight="bold" font-size="14.00">VillageMapPage()</text>
<polygon fill="none" stroke="black" points="1003,-52.5 1003,-73.5 1183,-73.5 1183,-52.5 1003,-52.5"/>
<text text-anchor="start" x="1006" y="-60.3" font-family="Times New Roman,serif" font-weight="bold" font-size="14.00">staticmapofthetribesvillage()</text>
<polygon fill="none" stroke="black" points="1002,-51.5 1002,-137.5 1184,-137.5 1184,-51.5 1002,-51.5"/>
</g>
<!-- EAID_587533B8_71F8_4c8f_BEC2_A3AA5B0CC295 -->
<g id="node16" class="node"><title>EAID_587533B8_71F8_4c8f_BEC2_A3AA5B0CC295</title>
<polygon fill="none" stroke="black" points="762,-115.5 762,-136.5 967,-136.5 967,-115.5 762,-115.5"/>
<text text-anchor="start" x="794" y="-123.3" font-family="Times New Roman,serif" font-weight="bold" font-size="14.00">Yanomamo HomePage</text>
<polygon fill="none" stroke="black" points="762,-94.5 762,-115.5 967,-115.5 967,-94.5 762,-94.5"/>
<text text-anchor="start" x="839.5" y="-102.3" font-family="Times New Roman,serif" font-weight="bold" font-size="14.00">search()</text>
<polygon fill="none" stroke="black" points="762,-73.5 762,-94.5 967,-94.5 967,-73.5 762,-73.5"/>
<text text-anchor="start" x="765" y="-81.3" font-family="Times New Roman,serif" font-weight="bold" font-size="14.00">transcriptframeofthehomepage()</text>
<polygon fill="none" stroke="black" points="762,-52.5 762,-73.5 967,-73.5 967,-52.5 762,-52.5"/>
<text text-anchor="start" x="793.5" y="-60.3" font-family="Times New Roman,serif" font-weight="bold" font-size="14.00">Yanomamohomepage()</text>
<polygon fill="none" stroke="black" points="760.5,-51.5 760.5,-137.5 967.5,-137.5 967.5,-51.5 760.5,-51.5"/>
</g>
<!-- EAID_AC49C328_113D_4856_9322_252402C9B237 -->
<g id="node17" class="node"><title>EAID_AC49C328_113D_4856_9322_252402C9B237</title>
<polygon fill="none" stroke="black" points="663,-94.5 663,-115.5 725,-115.5 725,-94.5 663,-94.5"/>
<text text-anchor="start" x="670.5" y="-102.3" font-family="Times New Roman,serif" font-weight="bold" font-size="14.00">Student</text>
<polygon fill="none" stroke="black" points="663,-73.5 663,-94.5 725,-94.5 725,-73.5 663,-73.5"/>
<text text-anchor="start" x="666" y="-81.3" font-family="Times New Roman,serif" font-weight="bold" font-size="14.00">Student()</text>
<polygon fill="none" stroke="black" points="662,-72.5 662,-116.5 726,-116.5 726,-72.5 662,-72.5"/>
</g>
</g>
</svg>
