<?xml version="1.0" encoding="UTF-8" standalone="no"?>
<!DOCTYPE svg PUBLIC "-//W3C//DTD SVG 1.1//EN"
 "http://www.w3.org/Graphics/SVG/1.1/DTD/svg11.dtd">
<!-- Generated by graphviz version 2.38.0 (20140413.2041)
 -->
<!-- Title: g Pages: 1 -->
<svg width="1516pt" height="378pt"
 viewBox="0.00 0.00 1516.00 378.00" xmlns="http://www.w3.org/2000/svg" xmlns:xlink="http://www.w3.org/1999/xlink">
<g id="graph0" class="graph" transform="scale(1 1) rotate(0) translate(4 374)">
<title>g</title>
<polygon fill="white" stroke="none" points="-4,4 -4,-374 1512,-374 1512,4 -4,4"/>
<!-- EAID_AD6428DC_A82E_4ae1_83FB_9268983F476A -->
<g id="node1" class="node"><title>EAID_AD6428DC_A82E_4ae1_83FB_9268983F476A</title>
<image xlink:href="img/actor1.png" width="61px" height="90px" preserveAspectRatio="xMinYMin meet" x="10.5" y="-239.5"/>
<text text-anchor="start" x="19" y="-126.3" font-family="Times New Roman,serif" font-size="24.00">User</text>
</g>
<!-- EAID_D5CB6791_DC54_4f3f_9CD6_4FFE92997022 -->
<g id="node2" class="node"><title>EAID_D5CB6791_DC54_4f3f_9CD6_4FFE92997022</title>
<image xlink:href="img/boundary3.png" width="115px" height="67px" preserveAspectRatio="xMinYMin meet" x="711.5" y="-359.5"/>
<text text-anchor="start" x="687" y="-269.3" font-family="Times New Roman,serif" font-size="24.00">Profile Edit Page</text>
</g>
<!-- EAID_AD6428DC_A82E_4ae1_83FB_9268983F476A&#45;&gt;EAID_D5CB6791_DC54_4f3f_9CD6_4FFE92997022 -->
<g id="edge1" class="edge"><title>EAID_AD6428DC_A82E_4ae1_83FB_9268983F476A&#45;&gt;EAID_D5CB6791_DC54_4f3f_9CD6_4FFE92997022</title>
<path fill="none" stroke="black" d="M74.7505,-245.695C85.9463,-261.432 100.009,-276.308 117,-285.5 291.459,-379.881 532.378,-357.159 666.844,-333.48"/>
<polygon fill="black" stroke="black" points="667.513,-336.916 676.736,-331.702 666.275,-330.026 667.513,-336.916"/>
</g>
<!-- EAID_BDB5F8E8_755A_4ed2_AF0E_DD3D5B5A449B -->
<g id="node3" class="node"><title>EAID_BDB5F8E8_755A_4ed2_AF0E_DD3D5B5A449B</title>
<image xlink:href="img/boundary3.png" width="115px" height="67px" preserveAspectRatio="xMinYMin meet" x="158.5" y="-270.5"/>
<text text-anchor="start" x="127.5" y="-180.3" font-family="Times New Roman,serif" font-size="24.00">Edit profile button</text>
</g>
<!-- EAID_AD6428DC_A82E_4ae1_83FB_9268983F476A&#45;&gt;EAID_BDB5F8E8_755A_4ed2_AF0E_DD3D5B5A449B -->
<g id="edge2" class="edge"><title>EAID_AD6428DC_A82E_4ae1_83FB_9268983F476A&#45;&gt;EAID_BDB5F8E8_755A_4ed2_AF0E_DD3D5B5A449B</title>
<path fill="none" stroke="black" d="M81.1897,-189.365C89.1749,-191.35 97.9218,-193.524 106.997,-195.78"/>
<polygon fill="black" stroke="black" points="106.404,-199.239 116.953,-198.254 108.092,-192.445 106.404,-199.239"/>
</g>
<!-- EAID_8A60BA49_DBDD_4151_A66F_129F7B8C4C5E -->
<g id="node4" class="node"><title>EAID_8A60BA49_DBDD_4151_A66F_129F7B8C4C5E</title>
<image xlink:href="img/boundary3.png" width="115px" height="67px" preserveAspectRatio="xMinYMin meet" x="711.5" y="-187.5"/>
<text text-anchor="start" x="646" y="-97.3" font-family="Times New Roman,serif" font-size="24.00">incorrect user information</text>
</g>
<!-- EAID_AD6428DC_A82E_4ae1_83FB_9268983F476A&#45;&gt;EAID_8A60BA49_DBDD_4151_A66F_129F7B8C4C5E -->
<g id="edge3" class="edge"><title>EAID_AD6428DC_A82E_4ae1_83FB_9268983F476A&#45;&gt;EAID_8A60BA49_DBDD_4151_A66F_129F7B8C4C5E</title>
<path fill="none" stroke="black" d="M81.075,-166.553C92.5416,-163.333 105.162,-160.292 117,-158.5 290.65,-132.214 493.239,-130.831 625.721,-133.809"/>
<polygon fill="black" stroke="black" points="625.851,-137.313 635.931,-134.05 626.016,-130.315 625.851,-137.313"/>
</g>
<!-- EAID_A63F8BE1_491E_4c0f_BD6A_DB9B68CAF553 -->
<g id="node5" class="node"><title>EAID_A63F8BE1_491E_4c0f_BD6A_DB9B68CAF553</title>
<image xlink:href="img/boundary3.png" width="115px" height="67px" preserveAspectRatio="xMinYMin meet" x="158.5" y="-102.5"/>
<text text-anchor="start" x="132.5" y="-12.3" font-family="Times New Roman,serif" font-size="24.00">Invalid input data</text>
</g>
<!-- EAID_AD6428DC_A82E_4ae1_83FB_9268983F476A&#45;&gt;EAID_A63F8BE1_491E_4c0f_BD6A_DB9B68CAF553 -->
<g id="edge4" class="edge"><title>EAID_AD6428DC_A82E_4ae1_83FB_9268983F476A&#45;&gt;EAID_A63F8BE1_491E_4c0f_BD6A_DB9B68CAF553</title>
<path fill="none" stroke="black" d="M81.3441,-149.689C92.815,-141.177 105.371,-131.926 117,-123.5 120.839,-120.719 124.769,-117.884 128.745,-115.027"/>
<polygon fill="black" stroke="black" points="130.864,-117.814 136.952,-109.144 126.786,-112.125 130.864,-117.814"/>
</g>
<!-- EAID_89417A6D_5EAF_462d_B44F_70338158CCB8 -->
<g id="node9" class="node"><title>EAID_89417A6D_5EAF_462d_B44F_70338158CCB8</title>
<image xlink:href="img/control1.png" width="106px" height="75px" preserveAspectRatio="xMinYMin meet" x="983" y="-363.5"/>
<text text-anchor="start" x="948.5" y="-265.3" font-family="Times New Roman,serif" font-size="24.00">validate input data</text>
</g>
<!-- EAID_D5CB6791_DC54_4f3f_9CD6_4FFE92997022&#45;&gt;EAID_89417A6D_5EAF_462d_B44F_70338158CCB8 -->
<g id="edge8" class="edge"><title>EAID_D5CB6791_DC54_4f3f_9CD6_4FFE92997022&#45;&gt;EAID_89417A6D_5EAF_462d_B44F_70338158CCB8</title>
<path fill="none" stroke="black" d="M861.026,-311.5C882.537,-311.5 905.666,-311.5 927.801,-311.5"/>
<polygon fill="black" stroke="black" points="927.893,-315 937.893,-311.5 927.892,-308 927.893,-315"/>
</g>
<!-- EAID_9E38E0BA_1DD1_4edd_A96C_2AB1AD74661F -->
<g id="node6" class="node"><title>EAID_9E38E0BA_1DD1_4edd_A96C_2AB1AD74661F</title>
<image xlink:href="img/control1.png" width="106px" height="75px" preserveAspectRatio="xMinYMin meet" x="422" y="-276.5"/>
<text text-anchor="start" x="360" y="-178.3" font-family="Times New Roman,serif" font-size="24.00">display edit profile page</text>
</g>
<!-- EAID_BDB5F8E8_755A_4ed2_AF0E_DD3D5B5A449B&#45;&gt;EAID_9E38E0BA_1DD1_4edd_A96C_2AB1AD74661F -->
<g id="edge5" class="edge"><title>EAID_BDB5F8E8_755A_4ed2_AF0E_DD3D5B5A449B&#45;&gt;EAID_9E38E0BA_1DD1_4edd_A96C_2AB1AD74661F</title>
<path fill="none" stroke="black" d="M314.217,-223.259C322.602,-223.324 331.174,-223.391 339.779,-223.458"/>
<polygon fill="black" stroke="black" points="339.859,-226.958 349.886,-223.536 339.914,-219.958 339.859,-226.958"/>
</g>
<!-- EAID_9E38E0BA_1DD1_4edd_A96C_2AB1AD74661F&#45;&gt;EAID_D5CB6791_DC54_4f3f_9CD6_4FFE92997022 -->
<g id="edge9" class="edge"><title>EAID_9E38E0BA_1DD1_4edd_A96C_2AB1AD74661F&#45;&gt;EAID_D5CB6791_DC54_4f3f_9CD6_4FFE92997022</title>
<path fill="none" stroke="black" d="M600.258,-261.522C622.468,-268.139 645.365,-274.962 666.831,-281.357"/>
<polygon fill="black" stroke="black" points="666.002,-284.762 676.585,-284.263 668.001,-278.054 666.002,-284.762"/>
</g>
<!-- EAID_9E38E0BA_1DD1_4edd_A96C_2AB1AD74661F&#45;&gt;EAID_8A60BA49_DBDD_4151_A66F_129F7B8C4C5E -->
<g id="edge10" class="edge"><title>EAID_9E38E0BA_1DD1_4edd_A96C_2AB1AD74661F&#45;&gt;EAID_8A60BA49_DBDD_4151_A66F_129F7B8C4C5E</title>
<path fill="none" stroke="black" d="M600.258,-188.329C608.829,-185.834 617.503,-183.309 626.157,-180.79"/>
<polygon fill="black" stroke="black" points="627.289,-184.106 635.913,-177.95 625.333,-177.385 627.289,-184.106"/>
</g>
<!-- EAID_5D9812F7_E189_4ab1_80C6_0DA628CD54D5 -->
<g id="node8" class="node"><title>EAID_5D9812F7_E189_4ab1_80C6_0DA628CD54D5</title>
<image xlink:href="img/activity_icon.png" width="30px" height="20px" preserveAspectRatio="xMinYMin meet" x="1448" y="-292.5"/>
<text text-anchor="start" x="1427.5" y="-250.3" font-family="Times New Roman,serif" font-weight="bold" font-size="24.00">Profile</text>
</g>
<!-- EAID_9E38E0BA_1DD1_4edd_A96C_2AB1AD74661F&#45;&gt;EAID_5D9812F7_E189_4ab1_80C6_0DA628CD54D5 -->
<g id="edge7" class="edge"><title>EAID_9E38E0BA_1DD1_4edd_A96C_2AB1AD74661F&#45;&gt;EAID_5D9812F7_E189_4ab1_80C6_0DA628CD54D5</title>
<path fill="none" stroke="black" d="M600.25,-216.643C775.524,-207.925 1104.83,-200.243 1381,-243.5 1389.58,-244.845 1398.53,-246.863 1407.21,-249.169"/>
<polygon fill="black" stroke="black" points="1406.29,-252.545 1416.86,-251.874 1408.18,-245.805 1406.29,-252.545"/>
</g>
<!-- EAID_E5903BA2_471C_472c_8E95_06AC799ED5EF -->
<g id="node7" class="node"><title>EAID_E5903BA2_471C_472c_8E95_06AC799ED5EF</title>
<image xlink:href="img/control1.png" width="106px" height="75px" preserveAspectRatio="xMinYMin meet" x="1222" y="-363.5"/>
<text text-anchor="start" x="1179" y="-265.3" font-family="Times New Roman,serif" font-size="24.00">save updated profile</text>
</g>
<!-- EAID_E5903BA2_471C_472c_8E95_06AC799ED5EF&#45;&gt;EAID_5D9812F7_E189_4ab1_80C6_0DA628CD54D5 -->
<g id="edge6" class="edge"><title>EAID_E5903BA2_471C_472c_8E95_06AC799ED5EF&#45;&gt;EAID_5D9812F7_E189_4ab1_80C6_0DA628CD54D5</title>
<path fill="none" stroke="black" d="M1381.22,-286.543C1390.05,-284.447 1398.74,-282.388 1406.94,-280.442"/>
<polygon fill="black" stroke="black" points="1407.75,-283.845 1416.68,-278.132 1406.14,-277.034 1407.75,-283.845"/>
</g>
<!-- EAID_89417A6D_5EAF_462d_B44F_70338158CCB8&#45;&gt;EAID_E5903BA2_471C_472c_8E95_06AC799ED5EF -->
<g id="edge11" class="edge"><title>EAID_89417A6D_5EAF_462d_B44F_70338158CCB8&#45;&gt;EAID_E5903BA2_471C_472c_8E95_06AC799ED5EF</title>
<path fill="none" stroke="black" d="M1133.1,-311.5C1141.59,-311.5 1150.24,-311.5 1158.86,-311.5"/>
<polygon fill="black" stroke="black" points="1158.96,-315 1168.96,-311.5 1158.96,-308 1158.96,-315"/>
</g>
</g>
</svg>
