<?xml version="1.0" encoding="UTF-8" standalone="no"?>
<!DOCTYPE svg PUBLIC "-//W3C//DTD SVG 1.1//EN"
 "http://www.w3.org/Graphics/SVG/1.1/DTD/svg11.dtd">
<!-- Generated by graphviz version 2.38.0 (20140413.2041)
 -->
<!-- Title: g Pages: 1 -->
<svg width="4626pt" height="872pt"
 viewBox="0.00 0.00 4626.00 872.00" xmlns="http://www.w3.org/2000/svg" xmlns:xlink="http://www.w3.org/1999/xlink">
<g id="graph0" class="graph" transform="scale(1 1) rotate(0) translate(4 868)">
<title>g</title>
<polygon fill="white" stroke="none" points="-4,4 -4,-868 4622,-868 4622,4 -4,4"/>
<g id="clust1" class="cluster"><title>cluster0</title>
<polygon fill="none" stroke="black" stroke-width="2" points="3789,-64 3789,-758 4524,-758 4524,-64 3789,-64"/>
<text text-anchor="start" x="4134.5" y="-743.8" font-family="Times New Roman,serif" font-weight="bold" font-size="14.00">System</text>
</g>
<g id="clust2" class="cluster"><title>cluster1</title>
<polygon fill="none" stroke="black" stroke-width="2" points="3756,-766 3756,-856 4610,-856 4610,-766 3756,-766"/>
<text text-anchor="start" x="4168.5" y="-841.8" font-family="Times New Roman,serif" font-weight="bold" font-size="14.00">User</text>
</g>
<g id="clust3" class="cluster"><title>cluster1000</title>
<polygon fill="none" stroke="black" stroke-width="2" points="8,-151 8,-368 3781,-368 3781,-151 8,-151"/>
<text text-anchor="start" x="1849" y="-353.8" font-family="Times New Roman,serif" font-weight="bold" font-size="14.00">Domain Model</text>
</g>
<!-- EAID_AD6428DC_A82E_4ae1_83FB_9268983F476A___EAID_D5CB6791_DC54_4f3f_9CD6_4FFE92997022 -->
<g id="node1" class="node"><title>EAID_AD6428DC_A82E_4ae1_83FB_9268983F476A___EAID_D5CB6791_DC54_4f3f_9CD6_4FFE92997022</title>
<image xlink:href="img/activity_icon.png" width="30px" height="20px" preserveAspectRatio="xMinYMin meet" x="4422" y="-527"/>
<text text-anchor="start" x="4368" y="-492.8" font-family="Times New Roman,serif" font-weight="bold" font-size="14.00">User:Profile Edit Page</text>
</g>
<!-- EAID_D5CB6791_DC54_4f3f_9CD6_4FFE92997022___EAID_89417A6D_5EAF_462d_B44F_70338158CCB8 -->
<g id="node8" class="node"><title>EAID_D5CB6791_DC54_4f3f_9CD6_4FFE92997022___EAID_89417A6D_5EAF_462d_B44F_70338158CCB8</title>
<image xlink:href="img/activity_icon.png" width="30px" height="20px" preserveAspectRatio="xMinYMin meet" x="4094.5" y="-434"/>
<text text-anchor="start" x="4031" y="-399.8" font-family="Times New Roman,serif" font-weight="bold" font-size="14.00">Profile Edit Page:validate</text>
<text text-anchor="start" x="4078.5" y="-385.8" font-family="Times New Roman,serif" font-weight="bold" font-size="14.00">input data</text>
</g>
<!-- EAID_AD6428DC_A82E_4ae1_83FB_9268983F476A___EAID_D5CB6791_DC54_4f3f_9CD6_4FFE92997022&#45;&gt;EAID_D5CB6791_DC54_4f3f_9CD6_4FFE92997022___EAID_89417A6D_5EAF_462d_B44F_70338158CCB8 -->
<g id="edge1" class="edge"><title>EAID_AD6428DC_A82E_4ae1_83FB_9268983F476A___EAID_D5CB6791_DC54_4f3f_9CD6_4FFE92997022&#45;&gt;EAID_D5CB6791_DC54_4f3f_9CD6_4FFE92997022___EAID_89417A6D_5EAF_462d_B44F_70338158CCB8</title>
<path fill="none" stroke="black" d="M4368.45,-482.357C4361.9,-480.15 4355.33,-477.997 4349,-476 4302.78,-461.425 4251.05,-446.776 4207.49,-434.909"/>
<polygon fill="black" stroke="black" points="4208.32,-431.507 4197.75,-432.265 4206.48,-438.263 4208.32,-431.507"/>
</g>
<!-- EAID_BDB5F8E8_755A_4ed2_AF0E_DD3D5B5A449B -->
<g id="node27" class="node"><title>EAID_BDB5F8E8_755A_4ed2_AF0E_DD3D5B5A449B</title>
<text text-anchor="middle" x="4235" y="-14.3" font-family="Times New Roman,serif" font-size="14.00">EAID_BDB5F8E8_755A_4ed2_AF0E_DD3D5B5A449B</text>
</g>
<!-- EAID_AD6428DC_A82E_4ae1_83FB_9268983F476A___EAID_D5CB6791_DC54_4f3f_9CD6_4FFE92997022&#45;&gt;EAID_BDB5F8E8_755A_4ed2_AF0E_DD3D5B5A449B -->
<g id="edge13" class="edge"><title>EAID_AD6428DC_A82E_4ae1_83FB_9268983F476A___EAID_D5CB6791_DC54_4f3f_9CD6_4FFE92997022&#45;&gt;EAID_BDB5F8E8_755A_4ed2_AF0E_DD3D5B5A449B</title>
<path fill="none" stroke="black" stroke-dasharray="5,2" d="M4429.85,-482.044C4409.6,-413.074 4347.98,-215.001 4267,-64 4263.53,-57.5293 4259.27,-50.9023 4255.01,-44.7918"/>
<polygon fill="black" stroke="black" points="4257.55,-42.3325 4248.85,-36.2871 4251.88,-46.4389 4257.55,-42.3325"/>
</g>
<!-- EAID_AD6428DC_A82E_4ae1_83FB_9268983F476A___EAID_BDB5F8E8_755A_4ed2_AF0E_DD3D5B5A449B -->
<g id="node2" class="node"><title>EAID_AD6428DC_A82E_4ae1_83FB_9268983F476A___EAID_BDB5F8E8_755A_4ed2_AF0E_DD3D5B5A449B</title>
<image xlink:href="img/activity_icon.png" width="30px" height="20px" preserveAspectRatio="xMinYMin meet" x="4296.5" y="-720.5"/>
<text text-anchor="start" x="4239" y="-686.3" font-family="Times New Roman,serif" font-weight="bold" font-size="14.00">User:Edit profile button</text>
</g>
<!-- EAID_BDB5F8E8_755A_4ed2_AF0E_DD3D5B5A449B___EAID_9E38E0BA_1DD1_4edd_A96C_2AB1AD74661F -->
<g id="node5" class="node"><title>EAID_BDB5F8E8_755A_4ed2_AF0E_DD3D5B5A449B___EAID_9E38E0BA_1DD1_4edd_A96C_2AB1AD74661F</title>
<image xlink:href="img/activity_icon.png" width="30px" height="20px" preserveAspectRatio="xMinYMin meet" x="4094.5" y="-634"/>
<text text-anchor="start" x="4030" y="-599.8" font-family="Times New Roman,serif" font-weight="bold" font-size="14.00">Edit profile button:display</text>
<text text-anchor="start" x="4059.5" y="-585.8" font-family="Times New Roman,serif" font-weight="bold" font-size="14.00">edit profile page</text>
</g>
<!-- EAID_AD6428DC_A82E_4ae1_83FB_9268983F476A___EAID_BDB5F8E8_755A_4ed2_AF0E_DD3D5B5A449B&#45;&gt;EAID_BDB5F8E8_755A_4ed2_AF0E_DD3D5B5A449B___EAID_9E38E0BA_1DD1_4edd_A96C_2AB1AD74661F -->
<g id="edge3" class="edge"><title>EAID_AD6428DC_A82E_4ae1_83FB_9268983F476A___EAID_BDB5F8E8_755A_4ed2_AF0E_DD3D5B5A449B&#45;&gt;EAID_BDB5F8E8_755A_4ed2_AF0E_DD3D5B5A449B___EAID_9E38E0BA_1DD1_4edd_A96C_2AB1AD74661F</title>
<path fill="none" stroke="black" d="M4256.87,-675.98C4235.41,-666.259 4210.32,-654.896 4186.97,-644.318"/>
<polygon fill="black" stroke="black" points="4188.33,-641.091 4177.78,-640.153 4185.44,-647.468 4188.33,-641.091"/>
</g>
<!-- EAID_AD6428DC_A82E_4ae1_83FB_9268983F476A___EAID_BDB5F8E8_755A_4ed2_AF0E_DD3D5B5A449B&#45;&gt;EAID_BDB5F8E8_755A_4ed2_AF0E_DD3D5B5A449B -->
<g id="edge14" class="edge"><title>EAID_AD6428DC_A82E_4ae1_83FB_9268983F476A___EAID_BDB5F8E8_755A_4ed2_AF0E_DD3D5B5A449B&#45;&gt;EAID_BDB5F8E8_755A_4ed2_AF0E_DD3D5B5A449B</title>
<path fill="none" stroke="black" stroke-dasharray="5,2" d="M4383.13,-675.918C4451.56,-647.477 4544,-593.432 4544,-509 4544,-509 4544,-509 4544,-247 4544,-131.858 4403.36,-68.3036 4311.85,-39.1358"/>
<polygon fill="black" stroke="black" points="4312.64,-35.716 4302.05,-36.0836 4310.56,-42.3992 4312.64,-35.716"/>
</g>
<!-- EAID_AD6428DC_A82E_4ae1_83FB_9268983F476A___EAID_8A60BA49_DBDD_4151_A66F_129F7B8C4C5E -->
<g id="node3" class="node"><title>EAID_AD6428DC_A82E_4ae1_83FB_9268983F476A___EAID_8A60BA49_DBDD_4151_A66F_129F7B8C4C5E</title>
<image xlink:href="img/activity_icon.png" width="30px" height="20px" preserveAspectRatio="xMinYMin meet" x="3889.5" y="-720.5"/>
<text text-anchor="start" x="3808" y="-686.3" font-family="Times New Roman,serif" font-weight="bold" font-size="14.00">User:incorrect user information</text>
</g>
<!-- EAID_B915E624_11D4_4a73_9C51_D4508EF42B60 -->
<g id="node18" class="node"><title>EAID_B915E624_11D4_4a73_9C51_D4508EF42B60</title>
<polygon fill="none" stroke="black" points="931,-311 931,-332 1344,-332 1344,-311 931,-311"/>
<text text-anchor="start" x="1045.5" y="-318.8" font-family="Times New Roman,serif" font-weight="bold" font-size="14.00">User social media information</text>
<polygon fill="none" stroke="black" points="931,-290 931,-311 1344,-311 1344,-290 931,-290"/>
<text text-anchor="start" x="939" y="-297.8" font-family="Times New Roman,serif" font-weight="bold" font-size="14.00">EAID_FEF07658_952D_4b88_9559_EFD8D91092B0 undefined</text>
<polygon fill="none" stroke="black" points="931,-269 931,-290 1344,-290 1344,-269 931,-269"/>
<text text-anchor="start" x="939" y="-276.8" font-family="Times New Roman,serif" font-weight="bold" font-size="14.00">EAID_953D44C2_5843_4888_B58D_4D7780FEE819 undefined</text>
<polygon fill="none" stroke="black" points="931,-248 931,-269 1344,-269 1344,-248 931,-248"/>
<text text-anchor="start" x="934" y="-255.8" font-family="Times New Roman,serif" font-weight="bold" font-size="14.00">EAID_168644E6_3B76_44cb_9DEC_0A5EC6BBE8AA undefined</text>
<polygon fill="none" stroke="black" points="931,-227 931,-248 1344,-248 1344,-227 931,-227"/>
<text text-anchor="start" x="939" y="-234.8" font-family="Times New Roman,serif" font-weight="bold" font-size="14.00">EAID_D835DBDA_2178_48bc_B96B_8388F0E24226 undefined</text>
<polygon fill="none" stroke="black" points="931,-206 931,-227 1344,-227 1344,-206 931,-206"/>
<text text-anchor="start" x="1047" y="-213.8" font-family="Times New Roman,serif" font-weight="bold" font-size="14.00">Usersocialmediainformation()</text>
<polygon fill="none" stroke="black" points="931,-185 931,-206 1344,-206 1344,-185 931,-185"/>
<text text-anchor="start" x="1061.5" y="-192.8" font-family="Times New Roman,serif" font-weight="bold" font-size="14.00">invalidinputinformation()</text>
<polygon fill="none" stroke="black" points="931,-164 931,-185 1344,-185 1344,-164 931,-164"/>
<text text-anchor="start" x="1059" y="-171.8" font-family="Times New Roman,serif" font-weight="bold" font-size="14.00">socialmedialoginbuttons()</text>
<polygon fill="none" stroke="black" points="929.5,-163 929.5,-333 1344.5,-333 1344.5,-163 929.5,-163"/>
</g>
<!-- EAID_AD6428DC_A82E_4ae1_83FB_9268983F476A___EAID_8A60BA49_DBDD_4151_A66F_129F7B8C4C5E&#45;&gt;EAID_B915E624_11D4_4a73_9C51_D4508EF42B60 -->
<g id="edge15" class="edge"><title>EAID_AD6428DC_A82E_4ae1_83FB_9268983F476A___EAID_8A60BA49_DBDD_4151_A66F_129F7B8C4C5E&#45;&gt;EAID_B915E624_11D4_4a73_9C51_D4508EF42B60</title>
<path fill="none" stroke="black" stroke-dasharray="5,2" d="M3797.22,-700.033C3441.99,-695.674 2271.04,-658.683 1361,-368 1338.69,-360.875 1315.99,-351.576 1294.02,-341.314"/>
<polygon fill="black" stroke="black" points="1295.51,-338.15 1284.98,-337.02 1292.51,-344.472 1295.51,-338.15"/>
</g>
<!-- EAID_AD6428DC_A82E_4ae1_83FB_9268983F476A___EAID_A63F8BE1_491E_4c0f_BD6A_DB9B68CAF553 -->
<g id="node4" class="node"><title>EAID_AD6428DC_A82E_4ae1_83FB_9268983F476A___EAID_A63F8BE1_491E_4c0f_BD6A_DB9B68CAF553</title>
<image xlink:href="img/activity_icon.png" width="30px" height="20px" preserveAspectRatio="xMinYMin meet" x="4094" y="-720.5"/>
<text text-anchor="start" x="4039" y="-686.3" font-family="Times New Roman,serif" font-weight="bold" font-size="14.00">User:Invalid input data</text>
</g>
<!-- EAID_38F641C9_AE57_45f1_A860_5F9891857941 -->
<g id="node23" class="node"><title>EAID_38F641C9_AE57_45f1_A860_5F9891857941</title>
<polygon fill="none" stroke="black" points="2945,-290 2945,-311 3347,-311 3347,-290 2945,-290"/>
<text text-anchor="start" x="3113" y="-297.8" font-family="Times New Roman,serif" font-weight="bold" font-size="14.00">linkin data</text>
<polygon fill="none" stroke="black" points="2945,-269 2945,-290 3347,-290 3347,-269 2945,-269"/>
<text text-anchor="start" x="2948" y="-276.8" font-family="Times New Roman,serif" font-weight="bold" font-size="14.00">EAID_B915E624_11D4_4a73_9C51_D4508EF42B60 undefined</text>
<polygon fill="none" stroke="black" points="2945,-248 2945,-269 3347,-269 3347,-248 2945,-248"/>
<text text-anchor="start" x="2949" y="-255.8" font-family="Times New Roman,serif" font-weight="bold" font-size="14.00">EAID_23139A53_6B42_424b_A5A2_84C2C41257D5 undefined</text>
<polygon fill="none" stroke="black" points="2945,-227 2945,-248 3347,-248 3347,-227 2945,-227"/>
<text text-anchor="start" x="3110.5" y="-234.8" font-family="Times New Roman,serif" font-weight="bold" font-size="14.00">linkindata()</text>
<polygon fill="none" stroke="black" points="2945,-206 2945,-227 3347,-227 3347,-206 2945,-206"/>
<text text-anchor="start" x="3088.5" y="-213.8" font-family="Times New Roman,serif" font-weight="bold" font-size="14.00">validateinputdata()</text>
<polygon fill="none" stroke="black" points="2945,-185 2945,-206 3347,-206 3347,-185 2945,-185"/>
<text text-anchor="start" x="3099.5" y="-192.8" font-family="Times New Roman,serif" font-weight="bold" font-size="14.00">querylinkedin()</text>
<polygon fill="none" stroke="black" points="2944,-184 2944,-312 3348,-312 3348,-184 2944,-184"/>
</g>
<!-- EAID_AD6428DC_A82E_4ae1_83FB_9268983F476A___EAID_A63F8BE1_491E_4c0f_BD6A_DB9B68CAF553&#45;&gt;EAID_38F641C9_AE57_45f1_A860_5F9891857941 -->
<g id="edge16" class="edge"><title>EAID_AD6428DC_A82E_4ae1_83FB_9268983F476A___EAID_A63F8BE1_491E_4c0f_BD6A_DB9B68CAF553&#45;&gt;EAID_38F641C9_AE57_45f1_A860_5F9891857941</title>
<path fill="none" stroke="black" stroke-dasharray="5,2" d="M4049.93,-675.943C3923.08,-622.812 3615.82,-491.958 3365,-368 3335.38,-353.362 3303.95,-336.87 3274.42,-320.932"/>
<polygon fill="black" stroke="black" points="3275.78,-317.69 3265.32,-316.007 3272.45,-323.845 3275.78,-317.69"/>
</g>
<!-- EAID_9E38E0BA_1DD1_4edd_A96C_2AB1AD74661F___EAID_5D9812F7_E189_4ab1_80C6_0DA628CD54D5 -->
<g id="node7" class="node"><title>EAID_9E38E0BA_1DD1_4edd_A96C_2AB1AD74661F___EAID_5D9812F7_E189_4ab1_80C6_0DA628CD54D5</title>
<image xlink:href="img/activity_icon.png" width="30px" height="20px" preserveAspectRatio="xMinYMin meet" x="4258.5" y="-534"/>
<text text-anchor="start" x="4217" y="-499.8" font-family="Times New Roman,serif" font-weight="bold" font-size="14.00">display edit profile</text>
<text text-anchor="start" x="4236" y="-485.8" font-family="Times New Roman,serif" font-weight="bold" font-size="14.00">page:Profile</text>
</g>
<!-- EAID_BDB5F8E8_755A_4ed2_AF0E_DD3D5B5A449B___EAID_9E38E0BA_1DD1_4edd_A96C_2AB1AD74661F&#45;&gt;EAID_9E38E0BA_1DD1_4edd_A96C_2AB1AD74661F___EAID_5D9812F7_E189_4ab1_80C6_0DA628CD54D5 -->
<g id="edge7" class="edge"><title>EAID_BDB5F8E8_755A_4ed2_AF0E_DD3D5B5A449B___EAID_9E38E0BA_1DD1_4edd_A96C_2AB1AD74661F&#45;&gt;EAID_9E38E0BA_1DD1_4edd_A96C_2AB1AD74661F___EAID_5D9812F7_E189_4ab1_80C6_0DA628CD54D5</title>
<path fill="none" stroke="black" d="M4160.89,-575.992C4177.19,-566.251 4195.34,-555.408 4212.2,-545.332"/>
<polygon fill="black" stroke="black" points="4214.1,-548.277 4220.88,-540.142 4210.5,-542.268 4214.1,-548.277"/>
</g>
<!-- EAID_9E38E0BA_1DD1_4edd_A96C_2AB1AD74661F___EAID_D5CB6791_DC54_4f3f_9CD6_4FFE92997022 -->
<g id="node9" class="node"><title>EAID_9E38E0BA_1DD1_4edd_A96C_2AB1AD74661F___EAID_D5CB6791_DC54_4f3f_9CD6_4FFE92997022</title>
<image xlink:href="img/activity_icon.png" width="30px" height="20px" preserveAspectRatio="xMinYMin meet" x="4094.5" y="-534"/>
<text text-anchor="start" x="4053" y="-499.8" font-family="Times New Roman,serif" font-weight="bold" font-size="14.00">display edit profile</text>
<text text-anchor="start" x="4040" y="-485.8" font-family="Times New Roman,serif" font-weight="bold" font-size="14.00">page:Profile Edit Page</text>
</g>
<!-- EAID_BDB5F8E8_755A_4ed2_AF0E_DD3D5B5A449B___EAID_9E38E0BA_1DD1_4edd_A96C_2AB1AD74661F&#45;&gt;EAID_9E38E0BA_1DD1_4edd_A96C_2AB1AD74661F___EAID_D5CB6791_DC54_4f3f_9CD6_4FFE92997022 -->
<g id="edge8" class="edge"><title>EAID_BDB5F8E8_755A_4ed2_AF0E_DD3D5B5A449B___EAID_9E38E0BA_1DD1_4edd_A96C_2AB1AD74661F&#45;&gt;EAID_9E38E0BA_1DD1_4edd_A96C_2AB1AD74661F___EAID_D5CB6791_DC54_4f3f_9CD6_4FFE92997022</title>
<path fill="none" stroke="black" d="M4109,-575.992C4109,-567.859 4109,-558.959 4109,-550.378"/>
<polygon fill="black" stroke="black" points="4112.5,-550.142 4109,-540.142 4105.5,-550.142 4112.5,-550.142"/>
</g>
<!-- EAID_9E38E0BA_1DD1_4edd_A96C_2AB1AD74661F___EAID_8A60BA49_DBDD_4151_A66F_129F7B8C4C5E -->
<g id="node10" class="node"><title>EAID_9E38E0BA_1DD1_4edd_A96C_2AB1AD74661F___EAID_8A60BA49_DBDD_4151_A66F_129F7B8C4C5E</title>
<image xlink:href="img/activity_icon.png" width="30px" height="20px" preserveAspectRatio="xMinYMin meet" x="3889" y="-534"/>
<text text-anchor="start" x="3847.5" y="-499.8" font-family="Times New Roman,serif" font-weight="bold" font-size="14.00">display edit profile</text>
<text text-anchor="start" x="3807" y="-485.8" font-family="Times New Roman,serif" font-weight="bold" font-size="14.00">page:incorrect user information</text>
</g>
<!-- EAID_BDB5F8E8_755A_4ed2_AF0E_DD3D5B5A449B___EAID_9E38E0BA_1DD1_4edd_A96C_2AB1AD74661F&#45;&gt;EAID_9E38E0BA_1DD1_4edd_A96C_2AB1AD74661F___EAID_8A60BA49_DBDD_4151_A66F_129F7B8C4C5E -->
<g id="edge9" class="edge"><title>EAID_BDB5F8E8_755A_4ed2_AF0E_DD3D5B5A449B___EAID_9E38E0BA_1DD1_4edd_A96C_2AB1AD74661F&#45;&gt;EAID_9E38E0BA_1DD1_4edd_A96C_2AB1AD74661F___EAID_8A60BA49_DBDD_4151_A66F_129F7B8C4C5E</title>
<path fill="none" stroke="black" d="M4044.14,-575.992C4023.2,-565.983 3999.83,-554.81 3978.26,-544.501"/>
<polygon fill="black" stroke="black" points="3979.68,-541.298 3969.14,-540.142 3976.66,-547.613 3979.68,-541.298"/>
</g>
<!-- EAID_BDB5F8E8_755A_4ed2_AF0E_DD3D5B5A449B___EAID_9E38E0BA_1DD1_4edd_A96C_2AB1AD74661F&#45;&gt;EAID_BDB5F8E8_755A_4ed2_AF0E_DD3D5B5A449B -->
<g id="edge17" class="edge"><title>EAID_BDB5F8E8_755A_4ed2_AF0E_DD3D5B5A449B___EAID_9E38E0BA_1DD1_4edd_A96C_2AB1AD74661F&#45;&gt;EAID_BDB5F8E8_755A_4ed2_AF0E_DD3D5B5A449B</title>
<path fill="none" stroke="black" stroke-dasharray="5,2" d="M4019.31,-594.152C3929.54,-580.379 3802.68,-558.057 3788,-540 3770.06,-517.927 3781.55,-503.702 3788,-476 3834.32,-277.193 3828.21,-187.161 3991,-64 4005.44,-53.0723 4036.73,-44.4682 4072.23,-37.8402"/>
<polygon fill="black" stroke="black" points="4073.12,-41.2362 4082.34,-36.0228 4071.88,-34.3465 4073.12,-41.2362"/>
</g>
<!-- EAID_E5903BA2_471C_472c_8E95_06AC799ED5EF___EAID_5D9812F7_E189_4ab1_80C6_0DA628CD54D5 -->
<g id="node6" class="node"><title>EAID_E5903BA2_471C_472c_8E95_06AC799ED5EF___EAID_5D9812F7_E189_4ab1_80C6_0DA628CD54D5</title>
<image xlink:href="img/activity_icon.png" width="30px" height="20px" preserveAspectRatio="xMinYMin meet" x="4097.5" y="-116.5"/>
<text text-anchor="start" x="4028" y="-82.3" font-family="Times New Roman,serif" font-weight="bold" font-size="14.00">save updated profile:Profile</text>
</g>
<!-- EAID_E5903BA2_471C_472c_8E95_06AC799ED5EF___EAID_5D9812F7_E189_4ab1_80C6_0DA628CD54D5&#45;&gt;EAID_BDB5F8E8_755A_4ed2_AF0E_DD3D5B5A449B -->
<g id="edge18" class="edge"><title>EAID_E5903BA2_471C_472c_8E95_06AC799ED5EF___EAID_5D9812F7_E189_4ab1_80C6_0DA628CD54D5&#45;&gt;EAID_BDB5F8E8_755A_4ed2_AF0E_DD3D5B5A449B</title>
<path fill="none" stroke="black" stroke-dasharray="5,2" d="M4150.92,-71.9785C4166.45,-62.1919 4184.21,-50.9993 4199.4,-41.4308"/>
<polygon fill="black" stroke="black" points="4201.41,-44.2998 4208.01,-36.0077 4197.68,-38.3774 4201.41,-44.2998"/>
</g>
<!-- EAID_9E38E0BA_1DD1_4edd_A96C_2AB1AD74661F___EAID_5D9812F7_E189_4ab1_80C6_0DA628CD54D5&#45;&gt;EAID_BDB5F8E8_755A_4ed2_AF0E_DD3D5B5A449B -->
<g id="edge19" class="edge"><title>EAID_9E38E0BA_1DD1_4edd_A96C_2AB1AD74661F___EAID_5D9812F7_E189_4ab1_80C6_0DA628CD54D5&#45;&gt;EAID_BDB5F8E8_755A_4ed2_AF0E_DD3D5B5A449B</title>
<path fill="none" stroke="black" stroke-dasharray="5,2" d="M4273.94,-475.814C4275.56,-403.032 4276.43,-216.562 4249,-64 4247.95,-58.1617 4246.37,-52.0211 4244.65,-46.2177"/>
<polygon fill="black" stroke="black" points="4247.85,-44.7354 4241.47,-36.2737 4241.18,-46.8645 4247.85,-44.7354"/>
</g>
<!-- EAID_89417A6D_5EAF_462d_B44F_70338158CCB8___EAID_E5903BA2_471C_472c_8E95_06AC799ED5EF -->
<g id="node11" class="node"><title>EAID_89417A6D_5EAF_462d_B44F_70338158CCB8___EAID_E5903BA2_471C_472c_8E95_06AC799ED5EF</title>
<image xlink:href="img/activity_icon.png" width="30px" height="20px" preserveAspectRatio="xMinYMin meet" x="4094.5" y="-274"/>
<text text-anchor="start" x="4037" y="-239.8" font-family="Times New Roman,serif" font-weight="bold" font-size="14.00">validate input data:save</text>
<text text-anchor="start" x="4063" y="-225.8" font-family="Times New Roman,serif" font-weight="bold" font-size="14.00">updated profile</text>
</g>
<!-- EAID_D5CB6791_DC54_4f3f_9CD6_4FFE92997022___EAID_89417A6D_5EAF_462d_B44F_70338158CCB8&#45;&gt;EAID_89417A6D_5EAF_462d_B44F_70338158CCB8___EAID_E5903BA2_471C_472c_8E95_06AC799ED5EF -->
<g id="edge10" class="edge"><title>EAID_D5CB6791_DC54_4f3f_9CD6_4FFE92997022___EAID_89417A6D_5EAF_462d_B44F_70338158CCB8&#45;&gt;EAID_89417A6D_5EAF_462d_B44F_70338158CCB8___EAID_E5903BA2_471C_472c_8E95_06AC799ED5EF</title>
<path fill="none" stroke="black" d="M4109,-375.784C4109,-351.331 4109,-317.093 4109,-290.36"/>
<polygon fill="black" stroke="black" points="4112.5,-290.151 4109,-280.151 4105.5,-290.151 4112.5,-290.151"/>
</g>
<!-- EAID_D5CB6791_DC54_4f3f_9CD6_4FFE92997022___EAID_89417A6D_5EAF_462d_B44F_70338158CCB8&#45;&gt;EAID_38F641C9_AE57_45f1_A860_5F9891857941 -->
<g id="edge20" class="edge"><title>EAID_D5CB6791_DC54_4f3f_9CD6_4FFE92997022___EAID_89417A6D_5EAF_462d_B44F_70338158CCB8&#45;&gt;EAID_38F641C9_AE57_45f1_A860_5F9891857941</title>
<path fill="none" stroke="black" stroke-dasharray="5,2" d="M4020.43,-392.204C3979.36,-385.997 3929.82,-379.433 3885,-376 3827.38,-371.587 3420.89,-382.663 3365,-368 3326.96,-358.021 3288.33,-340.13 3254.32,-321.203"/>
<polygon fill="black" stroke="black" points="3255.75,-317.987 3245.32,-316.109 3252.3,-324.08 3255.75,-317.987"/>
</g>
<!-- EAID_9E38E0BA_1DD1_4edd_A96C_2AB1AD74661F___EAID_D5CB6791_DC54_4f3f_9CD6_4FFE92997022&#45;&gt;EAID_D5CB6791_DC54_4f3f_9CD6_4FFE92997022___EAID_89417A6D_5EAF_462d_B44F_70338158CCB8 -->
<g id="edge11" class="edge"><title>EAID_9E38E0BA_1DD1_4edd_A96C_2AB1AD74661F___EAID_D5CB6791_DC54_4f3f_9CD6_4FFE92997022&#45;&gt;EAID_D5CB6791_DC54_4f3f_9CD6_4FFE92997022___EAID_89417A6D_5EAF_462d_B44F_70338158CCB8</title>
<path fill="none" stroke="black" d="M4109,-475.992C4109,-467.859 4109,-458.959 4109,-450.378"/>
<polygon fill="black" stroke="black" points="4112.5,-450.142 4109,-440.142 4105.5,-450.142 4112.5,-450.142"/>
</g>
<!-- EAID_9E38E0BA_1DD1_4edd_A96C_2AB1AD74661F___EAID_D5CB6791_DC54_4f3f_9CD6_4FFE92997022&#45;&gt;EAID_BDB5F8E8_755A_4ed2_AF0E_DD3D5B5A449B -->
<g id="edge21" class="edge"><title>EAID_9E38E0BA_1DD1_4edd_A96C_2AB1AD74661F___EAID_D5CB6791_DC54_4f3f_9CD6_4FFE92997022&#45;&gt;EAID_BDB5F8E8_755A_4ed2_AF0E_DD3D5B5A449B</title>
<path fill="none" stroke="black" stroke-dasharray="5,2" d="M4171.76,-475.896C4185.23,-466.257 4197.85,-454.318 4206,-440 4244.42,-372.517 4239.1,-128.123 4236.13,-46.0745"/>
<polygon fill="black" stroke="black" points="4239.63,-45.8955 4235.75,-36.0355 4232.63,-46.1612 4239.63,-45.8955"/>
</g>
<!-- EAID_9E38E0BA_1DD1_4edd_A96C_2AB1AD74661F___EAID_8A60BA49_DBDD_4151_A66F_129F7B8C4C5E&#45;&gt;EAID_B915E624_11D4_4a73_9C51_D4508EF42B60 -->
<g id="edge22" class="edge"><title>EAID_9E38E0BA_1DD1_4edd_A96C_2AB1AD74661F___EAID_8A60BA49_DBDD_4151_A66F_129F7B8C4C5E&#45;&gt;EAID_B915E624_11D4_4a73_9C51_D4508EF42B60</title>
<path fill="none" stroke="black" stroke-dasharray="5,2" d="M3796.86,-494.481C3553.96,-466.757 2942.58,-400.689 2429,-376 2399.37,-374.575 1389.76,-375.28 1361,-368 1336.3,-361.748 1311.32,-352.244 1287.46,-341.276"/>
<polygon fill="black" stroke="black" points="1288.91,-338.09 1278.37,-337.005 1285.93,-344.425 1288.91,-338.09"/>
</g>
<!-- EAID_89417A6D_5EAF_462d_B44F_70338158CCB8___EAID_E5903BA2_471C_472c_8E95_06AC799ED5EF&#45;&gt;EAID_E5903BA2_471C_472c_8E95_06AC799ED5EF___EAID_5D9812F7_E189_4ab1_80C6_0DA628CD54D5 -->
<g id="edge12" class="edge"><title>EAID_89417A6D_5EAF_462d_B44F_70338158CCB8___EAID_E5903BA2_471C_472c_8E95_06AC799ED5EF&#45;&gt;EAID_E5903BA2_471C_472c_8E95_06AC799ED5EF___EAID_5D9812F7_E189_4ab1_80C6_0DA628CD54D5</title>
<path fill="none" stroke="black" d="M4109.63,-215.87C4110.12,-191.758 4110.79,-158.363 4111.3,-133.358"/>
<polygon fill="black" stroke="black" points="4114.8,-133.275 4111.5,-123.207 4107.8,-133.134 4114.8,-133.275"/>
</g>
<!-- EAID_89417A6D_5EAF_462d_B44F_70338158CCB8___EAID_E5903BA2_471C_472c_8E95_06AC799ED5EF&#45;&gt;EAID_BDB5F8E8_755A_4ed2_AF0E_DD3D5B5A449B -->
<g id="edge23" class="edge"><title>EAID_89417A6D_5EAF_462d_B44F_70338158CCB8___EAID_E5903BA2_471C_472c_8E95_06AC799ED5EF&#45;&gt;EAID_BDB5F8E8_755A_4ed2_AF0E_DD3D5B5A449B</title>
<path fill="none" stroke="black" stroke-dasharray="5,2" d="M4069.97,-215.733C4026.91,-177.497 3968.62,-111.955 4008,-64 4017.06,-52.9735 4038.56,-44.6015 4064.91,-38.26"/>
<polygon fill="black" stroke="black" points="4065.84,-41.6374 4074.82,-36.0143 4064.3,-34.8104 4065.84,-41.6374"/>
</g>
<!-- EAID_AD6428DC_A82E_4ae1_83FB_9268983F476A___EAID_D5CB6791_DC54_4f3f_9CD6_4FFE92997022_STL -->
<g id="node12" class="node"><title>EAID_AD6428DC_A82E_4ae1_83FB_9268983F476A___EAID_D5CB6791_DC54_4f3f_9CD6_4FFE92997022_STL</title>
<image xlink:href="img/stimulus_icon.png" width="30px" height="20px" preserveAspectRatio="xMinYMin meet" x="4497" y="-818.5"/>
<text text-anchor="start" x="4432" y="-784.3" font-family="Times New Roman,serif" font-weight="bold" font-size="14.00">stl#User:Profile Edit Page</text>
</g>
<!-- EAID_AD6428DC_A82E_4ae1_83FB_9268983F476A___EAID_D5CB6791_DC54_4f3f_9CD6_4FFE92997022_STL&#45;&gt;EAID_AD6428DC_A82E_4ae1_83FB_9268983F476A___EAID_D5CB6791_DC54_4f3f_9CD6_4FFE92997022 -->
<g id="edge2" class="edge"><title>EAID_AD6428DC_A82E_4ae1_83FB_9268983F476A___EAID_D5CB6791_DC54_4f3f_9CD6_4FFE92997022_STL&#45;&gt;EAID_AD6428DC_A82E_4ae1_83FB_9268983F476A___EAID_D5CB6791_DC54_4f3f_9CD6_4FFE92997022</title>
<path fill="none" stroke="black" d="M4505.61,-773.817C4492.24,-722.221 4461.31,-602.837 4445.97,-543.61"/>
<polygon fill="black" stroke="black" points="4449.27,-542.423 4443.38,-533.62 4442.5,-544.178 4449.27,-542.423"/>
</g>
<!-- EAID_AD6428DC_A82E_4ae1_83FB_9268983F476A___EAID_BDB5F8E8_755A_4ed2_AF0E_DD3D5B5A449B_STL -->
<g id="node13" class="node"><title>EAID_AD6428DC_A82E_4ae1_83FB_9268983F476A___EAID_BDB5F8E8_755A_4ed2_AF0E_DD3D5B5A449B_STL</title>
<image xlink:href="img/stimulus_icon.png" width="30px" height="20px" preserveAspectRatio="xMinYMin meet" x="4296" y="-818.5"/>
<text text-anchor="start" x="4228" y="-784.3" font-family="Times New Roman,serif" font-weight="bold" font-size="14.00">stl#User:Edit profile button</text>
</g>
<!-- EAID_AD6428DC_A82E_4ae1_83FB_9268983F476A___EAID_BDB5F8E8_755A_4ed2_AF0E_DD3D5B5A449B_STL&#45;&gt;EAID_AD6428DC_A82E_4ae1_83FB_9268983F476A___EAID_BDB5F8E8_755A_4ed2_AF0E_DD3D5B5A449B -->
<g id="edge4" class="edge"><title>EAID_AD6428DC_A82E_4ae1_83FB_9268983F476A___EAID_BDB5F8E8_755A_4ed2_AF0E_DD3D5B5A449B_STL&#45;&gt;EAID_AD6428DC_A82E_4ae1_83FB_9268983F476A___EAID_BDB5F8E8_755A_4ed2_AF0E_DD3D5B5A449B</title>
<path fill="none" stroke="black" d="M4311,-773.778C4311,-762.692 4311,-749.42 4311,-737.351"/>
<polygon fill="black" stroke="black" points="4314.5,-737.139 4311,-727.139 4307.5,-737.139 4314.5,-737.139"/>
</g>
<!-- EAID_AD6428DC_A82E_4ae1_83FB_9268983F476A___EAID_8A60BA49_DBDD_4151_A66F_129F7B8C4C5E_STL -->
<g id="node14" class="node"><title>EAID_AD6428DC_A82E_4ae1_83FB_9268983F476A___EAID_8A60BA49_DBDD_4151_A66F_129F7B8C4C5E_STL</title>
<image xlink:href="img/stimulus_icon.png" width="30px" height="20px" preserveAspectRatio="xMinYMin meet" x="3867.5" y="-818.5"/>
<text text-anchor="start" x="3775" y="-784.3" font-family="Times New Roman,serif" font-weight="bold" font-size="14.00">stl#User:incorrect user information</text>
</g>
<!-- EAID_AD6428DC_A82E_4ae1_83FB_9268983F476A___EAID_8A60BA49_DBDD_4151_A66F_129F7B8C4C5E_STL&#45;&gt;EAID_AD6428DC_A82E_4ae1_83FB_9268983F476A___EAID_8A60BA49_DBDD_4151_A66F_129F7B8C4C5E -->
<g id="edge5" class="edge"><title>EAID_AD6428DC_A82E_4ae1_83FB_9268983F476A___EAID_8A60BA49_DBDD_4151_A66F_129F7B8C4C5E_STL&#45;&gt;EAID_AD6428DC_A82E_4ae1_83FB_9268983F476A___EAID_8A60BA49_DBDD_4151_A66F_129F7B8C4C5E</title>
<path fill="none" stroke="black" d="M3887.67,-773.778C3890.23,-762.58 3893.31,-749.152 3896.1,-736.985"/>
<polygon fill="black" stroke="black" points="3899.53,-737.668 3898.35,-727.139 3892.71,-736.104 3899.53,-737.668"/>
</g>
<!-- EAID_AD6428DC_A82E_4ae1_83FB_9268983F476A___EAID_A63F8BE1_491E_4c0f_BD6A_DB9B68CAF553_STL -->
<g id="node15" class="node"><title>EAID_AD6428DC_A82E_4ae1_83FB_9268983F476A___EAID_A63F8BE1_491E_4c0f_BD6A_DB9B68CAF553_STL</title>
<image xlink:href="img/stimulus_icon.png" width="30px" height="20px" preserveAspectRatio="xMinYMin meet" x="4094" y="-818.5"/>
<text text-anchor="start" x="4028" y="-784.3" font-family="Times New Roman,serif" font-weight="bold" font-size="14.00">stl#User:Invalid input data</text>
</g>
<!-- EAID_AD6428DC_A82E_4ae1_83FB_9268983F476A___EAID_A63F8BE1_491E_4c0f_BD6A_DB9B68CAF553_STL&#45;&gt;EAID_AD6428DC_A82E_4ae1_83FB_9268983F476A___EAID_A63F8BE1_491E_4c0f_BD6A_DB9B68CAF553 -->
<g id="edge6" class="edge"><title>EAID_AD6428DC_A82E_4ae1_83FB_9268983F476A___EAID_A63F8BE1_491E_4c0f_BD6A_DB9B68CAF553_STL&#45;&gt;EAID_AD6428DC_A82E_4ae1_83FB_9268983F476A___EAID_A63F8BE1_491E_4c0f_BD6A_DB9B68CAF553</title>
<path fill="none" stroke="black" d="M4109,-773.778C4109,-762.692 4109,-749.42 4109,-737.351"/>
<polygon fill="black" stroke="black" points="4112.5,-737.139 4109,-727.139 4105.5,-737.139 4112.5,-737.139"/>
</g>
<!-- EAID_953D44C2_5843_4888_B58D_4D7780FEE819 -->
<g id="node16" class="node"><title>EAID_953D44C2_5843_4888_B58D_4D7780FEE819</title>
<polygon fill="none" stroke="black" points="3565,-269 3565,-290 3764,-290 3764,-269 3565,-269"/>
<text text-anchor="start" x="3571" y="-276.8" font-family="Times New Roman,serif" font-weight="bold" font-size="14.00">Email Subscription Preference</text>
<polygon fill="none" stroke="black" points="3565,-248 3565,-269 3764,-269 3764,-248 3565,-248"/>
<text text-anchor="start" x="3570" y="-255.8" font-family="Times New Roman,serif" font-weight="bold" font-size="14.00">EmailSubscriptionPreference()</text>
<polygon fill="none" stroke="black" points="3565,-227 3565,-248 3764,-248 3764,-227 3565,-227"/>
<text text-anchor="start" x="3568" y="-234.8" font-family="Times New Roman,serif" font-weight="bold" font-size="14.00">subscribefornotificationbutton()</text>
<polygon fill="none" stroke="black" points="3565,-206 3565,-227 3764,-227 3764,-206 3565,-206"/>
<text text-anchor="start" x="3615.5" y="-213.8" font-family="Times New Roman,serif" font-weight="bold" font-size="14.00">EmailProtocol()</text>
<polygon fill="none" stroke="black" points="3563.5,-205 3563.5,-291 3764.5,-291 3764.5,-205 3563.5,-205"/>
</g>
<!-- EAID_168644E6_3B76_44cb_9DEC_0A5EC6BBE8AA -->
<g id="node17" class="node"><title>EAID_168644E6_3B76_44cb_9DEC_0A5EC6BBE8AA</title>
<polygon fill="none" stroke="black" points="3384,-258 3384,-279 3529,-279 3529,-258 3384,-258"/>
<text text-anchor="start" x="3417" y="-265.8" font-family="Times New Roman,serif" font-weight="bold" font-size="14.00">Favorite Job</text>
<polygon fill="none" stroke="black" points="3384,-237 3384,-258 3529,-258 3529,-237 3384,-237"/>
<text text-anchor="start" x="3414.5" y="-244.8" font-family="Times New Roman,serif" font-weight="bold" font-size="14.00">FavoriteJob()</text>
<polygon fill="none" stroke="black" points="3384,-216 3384,-237 3529,-237 3529,-216 3384,-216"/>
<text text-anchor="start" x="3387" y="-223.8" font-family="Times New Roman,serif" font-weight="bold" font-size="14.00">savefiltersandcriteria()</text>
<polygon fill="none" stroke="black" points="3382.5,-215.5 3382.5,-280.5 3529.5,-280.5 3529.5,-215.5 3382.5,-215.5"/>
</g>
<!-- EAID_23139A53_6B42_424b_A5A2_84C2C41257D5 -->
<g id="node19" class="node"><title>EAID_23139A53_6B42_424b_A5A2_84C2C41257D5</title>
<polygon fill="none" stroke="black" points="2695,-311 2695,-332 2909,-332 2909,-311 2695,-311"/>
<text text-anchor="start" x="2698" y="-318.8" font-family="Times New Roman,serif" font-weight="bold" font-size="14.00">email message requesting referral</text>
<polygon fill="none" stroke="black" points="2695,-290 2695,-311 2909,-311 2909,-290 2695,-290"/>
<text text-anchor="start" x="2699.5" y="-297.8" font-family="Times New Roman,serif" font-weight="bold" font-size="14.00">emailmessagerequestingreferral()</text>
<polygon fill="none" stroke="black" points="2695,-269 2695,-290 2909,-290 2909,-269 2695,-269"/>
<text text-anchor="start" x="2749.5" y="-276.8" font-family="Times New Roman,serif" font-weight="bold" font-size="14.00">userprofilepage()</text>
<polygon fill="none" stroke="black" points="2695,-248 2695,-269 2909,-269 2909,-248 2695,-248"/>
<text text-anchor="start" x="2710.5" y="-255.8" font-family="Times New Roman,serif" font-weight="bold" font-size="14.00">savedunsuccessfullymessage()</text>
<polygon fill="none" stroke="black" points="2695,-227 2695,-248 2909,-248 2909,-227 2695,-227"/>
<text text-anchor="start" x="2745.5" y="-234.8" font-family="Times New Roman,serif" font-weight="bold" font-size="14.00">messageeditpage()</text>
<polygon fill="none" stroke="black" points="2695,-206 2695,-227 2909,-227 2909,-206 2695,-206"/>
<text text-anchor="start" x="2741" y="-213.8" font-family="Times New Roman,serif" font-weight="bold" font-size="14.00">sendemailmessage()</text>
<polygon fill="none" stroke="black" points="2695,-185 2695,-206 2909,-206 2909,-185 2695,-185"/>
<text text-anchor="start" x="2737" y="-192.8" font-family="Times New Roman,serif" font-weight="bold" font-size="14.00">credentialinputpage()</text>
<polygon fill="none" stroke="black" points="2695,-164 2695,-185 2909,-185 2909,-164 2695,-164"/>
<text text-anchor="start" x="2737" y="-171.8" font-family="Times New Roman,serif" font-weight="bold" font-size="14.00">signinerrormessage()</text>
<polygon fill="none" stroke="black" points="2694,-163 2694,-333 2910,-333 2910,-163 2694,-163"/>
</g>
<!-- EAID_E0DF0FCF_C875_464a_8978_3AD1CD0FF62F -->
<g id="node20" class="node"><title>EAID_E0DF0FCF_C875_464a_8978_3AD1CD0FF62F</title>
<polygon fill="none" stroke="black" points="2257,-269 2257,-290 2659,-290 2659,-269 2257,-269"/>
<text text-anchor="start" x="2414" y="-276.8" font-family="Times New Roman,serif" font-weight="bold" font-size="14.00">facebook data</text>
<polygon fill="none" stroke="black" points="2257,-248 2257,-269 2659,-269 2659,-248 2257,-248"/>
<text text-anchor="start" x="2260" y="-255.8" font-family="Times New Roman,serif" font-weight="bold" font-size="14.00">EAID_B915E624_11D4_4a73_9C51_D4508EF42B60 undefined</text>
<polygon fill="none" stroke="black" points="2257,-227 2257,-248 2659,-248 2659,-227 2257,-227"/>
<text text-anchor="start" x="2261" y="-234.8" font-family="Times New Roman,serif" font-weight="bold" font-size="14.00">EAID_23139A53_6B42_424b_A5A2_84C2C41257D5 undefined</text>
<polygon fill="none" stroke="black" points="2257,-206 2257,-227 2659,-227 2659,-206 2257,-206"/>
<text text-anchor="start" x="2411.5" y="-213.8" font-family="Times New Roman,serif" font-weight="bold" font-size="14.00">facebookdata()</text>
<polygon fill="none" stroke="black" points="2256,-205 2256,-291 2660,-291 2660,-205 2256,-205"/>
</g>
<!-- EAID_E2CA3D19_2E92_4f50_A0C4_BC04647EC6B3 -->
<g id="node21" class="node"><title>EAID_E2CA3D19_2E92_4f50_A0C4_BC04647EC6B3</title>
<polygon fill="none" stroke="black" points="1819,-279 1819,-300 2221,-300 2221,-279 1819,-279"/>
<text text-anchor="start" x="1984.5" y="-286.8" font-family="Times New Roman,serif" font-weight="bold" font-size="14.00">google date</text>
<polygon fill="none" stroke="black" points="1819,-258 1819,-279 2221,-279 2221,-258 1819,-258"/>
<text text-anchor="start" x="1822" y="-265.8" font-family="Times New Roman,serif" font-weight="bold" font-size="14.00">EAID_B915E624_11D4_4a73_9C51_D4508EF42B60 undefined</text>
<polygon fill="none" stroke="black" points="1819,-237 1819,-258 2221,-258 2221,-237 1819,-237"/>
<text text-anchor="start" x="1823" y="-244.8" font-family="Times New Roman,serif" font-weight="bold" font-size="14.00">EAID_23139A53_6B42_424b_A5A2_84C2C41257D5 undefined</text>
<polygon fill="none" stroke="black" points="1819,-216 1819,-237 2221,-237 2221,-216 1819,-216"/>
<text text-anchor="start" x="1982" y="-223.8" font-family="Times New Roman,serif" font-weight="bold" font-size="14.00">googledate()</text>
<polygon fill="none" stroke="black" points="1819,-195 1819,-216 2221,-216 2221,-195 1819,-195"/>
<text text-anchor="start" x="1953.5" y="-202.8" font-family="Times New Roman,serif" font-weight="bold" font-size="14.00">querygoogleplusinfo()</text>
<polygon fill="none" stroke="black" points="1818,-194.5 1818,-301.5 2222,-301.5 2222,-194.5 1818,-194.5"/>
</g>
<!-- EAID_D3CE170B_A071_40e8_B3FB_64E784C8E2C7 -->
<g id="node22" class="node"><title>EAID_D3CE170B_A071_40e8_B3FB_64E784C8E2C7</title>
<polygon fill="none" stroke="black" points="1380,-279 1380,-300 1783,-300 1783,-279 1380,-279"/>
<text text-anchor="start" x="1524" y="-286.8" font-family="Times New Roman,serif" font-weight="bold" font-size="14.00">indeed.com job list</text>
<polygon fill="none" stroke="black" points="1380,-258 1380,-279 1783,-279 1783,-258 1380,-258"/>
<text text-anchor="start" x="1383" y="-265.8" font-family="Times New Roman,serif" font-weight="bold" font-size="14.00">EAID_FEF07658_952D_4b88_9559_EFD8D91092B0 undefined</text>
<polygon fill="none" stroke="black" points="1380,-237 1380,-258 1783,-258 1783,-237 1380,-237"/>
<text text-anchor="start" x="1525.5" y="-244.8" font-family="Times New Roman,serif" font-weight="bold" font-size="14.00">indeedcomjoblist()</text>
<polygon fill="none" stroke="black" points="1380,-216 1380,-237 1783,-237 1783,-216 1380,-216"/>
<text text-anchor="start" x="1542" y="-223.8" font-family="Times New Roman,serif" font-weight="bold" font-size="14.00">Joblistpage()</text>
<polygon fill="none" stroke="black" points="1380,-195 1380,-216 1783,-216 1783,-195 1380,-195"/>
<text text-anchor="start" x="1455" y="-202.8" font-family="Times New Roman,serif" font-weight="bold" font-size="14.00">SearchbyinputkeywordsfromIndeedcom()</text>
<polygon fill="none" stroke="black" points="1378.5,-194.5 1378.5,-301.5 1783.5,-301.5 1783.5,-194.5 1378.5,-194.5"/>
</g>
<!-- EAID_D835DBDA_2178_48bc_B96B_8388F0E24226 -->
<g id="node24" class="node"><title>EAID_D835DBDA_2178_48bc_B96B_8388F0E24226</title>
<polygon fill="none" stroke="black" points="632,-290 632,-311 894,-311 894,-290 632,-290"/>
<text text-anchor="start" x="724" y="-297.8" font-family="Times New Roman,serif" font-weight="bold" font-size="14.00">savedSearch</text>
<polygon fill="none" stroke="black" points="632,-269 632,-290 894,-290 894,-269 632,-269"/>
<text text-anchor="start" x="719.5" y="-276.8" font-family="Times New Roman,serif" font-weight="bold" font-size="14.00">savedSearch()</text>
<polygon fill="none" stroke="black" points="632,-248 632,-269 894,-269 894,-248 632,-248"/>
<text text-anchor="start" x="707.5" y="-255.8" font-family="Times New Roman,serif" font-weight="bold" font-size="14.00">saveuseraccount()</text>
<polygon fill="none" stroke="black" points="632,-227 632,-248 894,-248 894,-227 632,-227"/>
<text text-anchor="start" x="679" y="-234.8" font-family="Times New Roman,serif" font-weight="bold" font-size="14.00">userprofileandsearchpage()</text>
<polygon fill="none" stroke="black" points="632,-206 632,-227 894,-227 894,-206 632,-206"/>
<text text-anchor="start" x="635" y="-213.8" font-family="Times New Roman,serif" font-weight="bold" font-size="14.00">searchsavedunsuccessfullyerrormessage()</text>
<polygon fill="none" stroke="black" points="632,-185 632,-206 894,-206 894,-185 632,-185"/>
<text text-anchor="start" x="712" y="-192.8" font-family="Times New Roman,serif" font-weight="bold" font-size="14.00">Jobsearchpage()</text>
<polygon fill="none" stroke="black" points="631,-184 631,-312 895,-312 895,-184 631,-184"/>
</g>
<!-- EAID_FEF07658_952D_4b88_9559_EFD8D91092B0 -->
<g id="node25" class="node"><title>EAID_FEF07658_952D_4b88_9559_EFD8D91092B0</title>
<polygon fill="none" stroke="black" points="193,-279 193,-300 596,-300 596,-279 193,-279"/>
<text text-anchor="start" x="355" y="-286.8" font-family="Times New Roman,serif" font-weight="bold" font-size="14.00">search result</text>
<polygon fill="none" stroke="black" points="193,-258 193,-279 596,-279 596,-258 193,-258"/>
<text text-anchor="start" x="197.5" y="-265.8" font-family="Times New Roman,serif" font-weight="bold" font-size="14.00">EAID_23139A53_6B42_424b_A5A2_84C2C41257D5 undefined</text>
<polygon fill="none" stroke="black" points="193,-237 193,-258 596,-258 596,-237 193,-237"/>
<text text-anchor="start" x="196" y="-244.8" font-family="Times New Roman,serif" font-weight="bold" font-size="14.00">EAID_D835DBDA_2178_48bc_B96B_8388F0E24226 undefined</text>
<polygon fill="none" stroke="black" points="193,-216 193,-237 596,-237 596,-216 193,-216"/>
<text text-anchor="start" x="352" y="-223.8" font-family="Times New Roman,serif" font-weight="bold" font-size="14.00">searchresult()</text>
<polygon fill="none" stroke="black" points="193,-195 193,-216 596,-216 596,-195 193,-195"/>
<text text-anchor="start" x="368" y="-202.8" font-family="Times New Roman,serif" font-weight="bold" font-size="14.00">session()</text>
<polygon fill="none" stroke="black" points="191.5,-194.5 191.5,-301.5 596.5,-301.5 596.5,-194.5 191.5,-194.5"/>
</g>
<!-- EAID_D5CB6791_DC54_4f3f_9CD6_4FFE92997022 -->
<g id="node26" class="node"><title>EAID_D5CB6791_DC54_4f3f_9CD6_4FFE92997022</title>
<polygon fill="none" stroke="black" points="26,-258 26,-279 157,-279 157,-258 26,-258"/>
<text text-anchor="start" x="42.5" y="-265.8" font-family="Times New Roman,serif" font-weight="bold" font-size="14.00">ProfileEditPage</text>
<polygon fill="none" stroke="black" points="26,-237 26,-258 157,-258 157,-237 26,-237"/>
<text text-anchor="start" x="38" y="-244.8" font-family="Times New Roman,serif" font-weight="bold" font-size="14.00">ProfileEditPage()</text>
<polygon fill="none" stroke="black" points="26,-216 26,-237 157,-237 157,-216 26,-216"/>
<text text-anchor="start" x="29" y="-223.8" font-family="Times New Roman,serif" font-weight="bold" font-size="14.00">saveupdatedprofile()</text>
<polygon fill="none" stroke="black" points="24.5,-215.5 24.5,-280.5 157.5,-280.5 157.5,-215.5 24.5,-215.5"/>
</g>
</g>
</svg>
