<?xml version="1.0" encoding="UTF-8" standalone="no"?>
<!DOCTYPE svg PUBLIC "-//W3C//DTD SVG 1.1//EN"
 "http://www.w3.org/Graphics/SVG/1.1/DTD/svg11.dtd">
<!-- Generated by graphviz version 2.38.0 (20140413.2041)
 -->
<!-- Title: g Pages: 1 -->
<svg width="345pt" height="332pt"
 viewBox="0.00 0.00 345.19 332.00" xmlns="http://www.w3.org/2000/svg" xmlns:xlink="http://www.w3.org/1999/xlink">
<g id="graph0" class="graph" transform="scale(1 1) rotate(0) translate(4 328)">
<title>g</title>
<polygon fill="white" stroke="none" points="-4,4 -4,-328 341.187,-328 341.187,4 -4,4"/>
<!-- display a logout message -->
<g id="node1" class="node"><title>display a logout message</title>
<ellipse fill="none" stroke="black" cx="173.342" cy="-90" rx="101.282" ry="18"/>
<text text-anchor="middle" x="173.342" y="-86.3" font-family="Times New Roman,serif" font-size="14.00">display a logout message</text>
</g>
<!-- Logout error message -->
<g id="node2" class="node"><title>Logout error message</title>
<ellipse fill="none" stroke="black" cx="90.342" cy="-18" rx="90.1842" ry="18"/>
<text text-anchor="middle" x="90.342" y="-14.3" font-family="Times New Roman,serif" font-size="14.00">Logout error message</text>
</g>
<!-- display a logout message&#45;&gt;Logout error message -->
<g id="edge1" class="edge"><title>display a logout message&#45;&gt;Logout error message</title>
<path fill="none" stroke="black" d="M153.25,-72.055C142.647,-63.1128 129.477,-52.0054 117.931,-42.268"/>
<polygon fill="black" stroke="black" points="120.15,-39.5605 110.249,-35.789 115.637,-44.9116 120.15,-39.5605"/>
</g>
<!-- message box -->
<g id="node3" class="node"><title>message box</title>
<ellipse fill="none" stroke="black" cx="279.342" cy="-18" rx="57.6901" ry="18"/>
<text text-anchor="middle" x="279.342" y="-14.3" font-family="Times New Roman,serif" font-size="14.00">message box</text>
</g>
<!-- display a logout message&#45;&gt;message box -->
<g id="edge2" class="edge"><title>display a logout message&#45;&gt;message box</title>
<path fill="none" stroke="black" d="M198.463,-72.411C213.133,-62.723 231.787,-50.4042 247.483,-40.0391"/>
<polygon fill="black" stroke="black" points="249.438,-42.9421 255.854,-34.5108 245.581,-37.1009 249.438,-42.9421"/>
</g>
<!-- Clear cache data -->
<g id="node4" class="node"><title>Clear cache data</title>
<ellipse fill="none" stroke="black" cx="173.342" cy="-162" rx="70.6878" ry="18"/>
<text text-anchor="middle" x="173.342" y="-158.3" font-family="Times New Roman,serif" font-size="14.00">Clear cache data</text>
</g>
<!-- Clear cache data&#45;&gt;display a logout message -->
<g id="edge3" class="edge"><title>Clear cache data&#45;&gt;display a logout message</title>
<path fill="none" stroke="black" d="M173.342,-143.697C173.342,-135.983 173.342,-126.712 173.342,-118.112"/>
<polygon fill="black" stroke="black" points="176.842,-118.104 173.342,-108.104 169.842,-118.104 176.842,-118.104"/>
</g>
<!-- Logout button -->
<g id="node5" class="node"><title>Logout button</title>
<ellipse fill="none" stroke="black" cx="173.342" cy="-234" rx="63.0888" ry="18"/>
<text text-anchor="middle" x="173.342" y="-230.3" font-family="Times New Roman,serif" font-size="14.00">Logout button</text>
</g>
<!-- Logout button&#45;&gt;Clear cache data -->
<g id="edge4" class="edge"><title>Logout button&#45;&gt;Clear cache data</title>
<path fill="none" stroke="black" d="M173.342,-215.697C173.342,-207.983 173.342,-198.712 173.342,-190.112"/>
<polygon fill="black" stroke="black" points="176.842,-190.104 173.342,-180.104 169.842,-190.104 176.842,-190.104"/>
</g>
<!-- User -->
<g id="node6" class="node"><title>User</title>
<ellipse fill="none" stroke="black" cx="173.342" cy="-306" rx="27.8951" ry="18"/>
<text text-anchor="middle" x="173.342" y="-302.3" font-family="Times New Roman,serif" font-size="14.00">User</text>
</g>
<!-- User&#45;&gt;Logout error message -->
<g id="edge6" class="edge"><title>User&#45;&gt;Logout error message</title>
<path fill="none" stroke="black" d="M151.609,-294.245C135.415,-285.143 113.996,-270.612 101.342,-252 55.3691,-184.385 44.2576,-151.505 63.342,-72 65.5486,-62.8075 69.6298,-53.4118 73.9627,-45.1339"/>
<polygon fill="black" stroke="black" points="77.0572,-46.7709 78.8751,-36.3331 70.945,-43.3591 77.0572,-46.7709"/>
</g>
<!-- User&#45;&gt;message box -->
<g id="edge5" class="edge"><title>User&#45;&gt;message box</title>
<path fill="none" stroke="black" d="M195.075,-294.245C211.269,-285.143 232.688,-270.612 245.342,-252 288.539,-188.468 286.636,-92.6458 282.571,-46.1821"/>
<polygon fill="black" stroke="black" points="286.032,-45.6121 281.573,-36.001 279.065,-46.2947 286.032,-45.6121"/>
</g>
<!-- User&#45;&gt;Logout button -->
<g id="edge7" class="edge"><title>User&#45;&gt;Logout button</title>
<path fill="none" stroke="black" d="M173.342,-287.697C173.342,-279.983 173.342,-270.712 173.342,-262.112"/>
<polygon fill="black" stroke="black" points="176.842,-262.104 173.342,-252.104 169.842,-262.104 176.842,-262.104"/>
</g>
</g>
</svg>
