<?xml version="1.0" encoding="UTF-8" standalone="no"?>
<!DOCTYPE svg PUBLIC "-//W3C//DTD SVG 1.1//EN"
 "http://www.w3.org/Graphics/SVG/1.1/DTD/svg11.dtd">
<!-- Generated by graphviz version 2.38.0 (20140413.2041)
 -->
<!-- Title: g Pages: 1 -->
<svg width="970pt" height="341pt"
 viewBox="0.00 0.00 970.00 341.00" xmlns="http://www.w3.org/2000/svg" xmlns:xlink="http://www.w3.org/1999/xlink">
<g id="graph0" class="graph" transform="scale(1 1) rotate(0) translate(4 337)">
<title>g</title>
<polygon fill="white" stroke="none" points="-4,4 -4,-337 966,-337 966,4 -4,4"/>
<!-- EAID_D4F102C1_DF42_4e2e_93B3_024DFEC5373D -->
<g id="node1" class="node"><title>EAID_D4F102C1_DF42_4e2e_93B3_024DFEC5373D</title>
<image xlink:href="img/actor1.png" width="61px" height="90px" preserveAspectRatio="xMinYMin meet" x="10.5" y="-301.5"/>
<text text-anchor="start" x="13.5" y="-188.3" font-family="Times New Roman,serif" font-size="24.00">Actor</text>
</g>
<!-- EAID_FF0DC1C4_AD4A_4582_AFB1_B37391610D13 -->
<g id="node2" class="node"><title>EAID_FF0DC1C4_AD4A_4582_AFB1_B37391610D13</title>
<image xlink:href="img/boundary3.png" width="115px" height="67px" preserveAspectRatio="xMinYMin meet" x="176.5" y="-214.5"/>
<text text-anchor="start" x="127" y="-124.3" font-family="Times New Roman,serif" font-size="24.00">Photo Selected Screen</text>
</g>
<!-- EAID_D4F102C1_DF42_4e2e_93B3_024DFEC5373D&#45;&gt;EAID_FF0DC1C4_AD4A_4582_AFB1_B37391610D13 -->
<g id="edge1" class="edge"><title>EAID_D4F102C1_DF42_4e2e_93B3_024DFEC5373D&#45;&gt;EAID_FF0DC1C4_AD4A_4582_AFB1_B37391610D13</title>
<path fill="none" stroke="black" d="M81.1789,-225.96C89.2311,-222.806 98.1002,-219.333 107.386,-215.696"/>
<polygon fill="black" stroke="black" points="108.76,-218.917 116.795,-212.011 106.207,-212.399 108.76,-218.917"/>
</g>
<!-- EAID_D4888B84_2808_4f84_863D_18B824EA7807 -->
<g id="node3" class="node"><title>EAID_D4888B84_2808_4f84_863D_18B824EA7807</title>
<image xlink:href="img/control1.png" width="106px" height="75px" preserveAspectRatio="xMinYMin meet" x="473" y="-218.5"/>
<text text-anchor="start" x="397.5" y="-120.3" font-family="Times New Roman,serif" font-size="24.00">Download photo to Device</text>
</g>
<!-- EAID_FF0DC1C4_AD4A_4582_AFB1_B37391610D13&#45;&gt;EAID_D4888B84_2808_4f84_863D_18B824EA7807 -->
<g id="edge5" class="edge"><title>EAID_FF0DC1C4_AD4A_4582_AFB1_B37391610D13&#45;&gt;EAID_D4888B84_2808_4f84_863D_18B824EA7807</title>
<path fill="none" stroke="black" d="M351.083,-166.5C359.562,-166.5 368.179,-166.5 376.81,-166.5"/>
<polygon fill="black" stroke="black" points="376.94,-170 386.94,-166.5 376.94,-163 376.94,-170"/>
</g>
<!-- EAID_6BB2FEBD_F090_4a16_BF19_7915BEA26F5F -->
<g id="node4" class="node"><title>EAID_6BB2FEBD_F090_4a16_BF19_7915BEA26F5F</title>
<image xlink:href="img/control1.png" width="106px" height="75px" preserveAspectRatio="xMinYMin meet" x="778" y="-326.5"/>
<text text-anchor="start" x="710" y="-228.3" font-family="Times New Roman,serif" font-size="24.00">Handle download success</text>
</g>
<!-- EAID_D4888B84_2808_4f84_863D_18B824EA7807&#45;&gt;EAID_6BB2FEBD_F090_4a16_BF19_7915BEA26F5F -->
<g id="edge2" class="edge"><title>EAID_D4888B84_2808_4f84_863D_18B824EA7807&#45;&gt;EAID_6BB2FEBD_F090_4a16_BF19_7915BEA26F5F</title>
<path fill="none" stroke="black" d="M664.042,-215.444C672.796,-218.559 681.613,-221.697 690.376,-224.815"/>
<polygon fill="black" stroke="black" points="689.263,-228.134 699.858,-228.189 691.61,-221.539 689.263,-228.134"/>
</g>
<!-- EAID_7FFB743B_69BF_46cd_8859_AFB1AB03597A -->
<g id="node5" class="node"><title>EAID_7FFB743B_69BF_46cd_8859_AFB1AB03597A</title>
<image xlink:href="img/control1.png" width="106px" height="75px" preserveAspectRatio="xMinYMin meet" x="778" y="-110.5"/>
<text text-anchor="start" x="720" y="-12.3" font-family="Times New Roman,serif" font-size="24.00">Handle download error</text>
</g>
<!-- EAID_D4888B84_2808_4f84_863D_18B824EA7807&#45;&gt;EAID_7FFB743B_69BF_46cd_8859_AFB1AB03597A -->
<g id="edge3" class="edge"><title>EAID_D4888B84_2808_4f84_863D_18B824EA7807&#45;&gt;EAID_7FFB743B_69BF_46cd_8859_AFB1AB03597A</title>
<path fill="none" stroke="black" d="M664.042,-117.556C676.046,-113.284 688.17,-108.97 700.11,-104.721"/>
<polygon fill="black" stroke="black" points="701.392,-107.98 709.64,-101.33 699.045,-101.385 701.392,-107.98"/>
</g>
<!-- EAID_B15492D1_3CBC_49e6_8834_611C257F79AB -->
<g id="node6" class="node"><title>EAID_B15492D1_3CBC_49e6_8834_611C257F79AB</title>
<image xlink:href="img/activity_icon.png" width="30px" height="20px" preserveAspectRatio="xMinYMin meet" x="816" y="-191.5"/>
<text text-anchor="start" x="797" y="-149.3" font-family="Times New Roman,serif" font-weight="bold" font-size="24.00">Server</text>
</g>
<!-- EAID_D4888B84_2808_4f84_863D_18B824EA7807&#45;&gt;EAID_B15492D1_3CBC_49e6_8834_611C257F79AB -->
<g id="edge4" class="edge"><title>EAID_D4888B84_2808_4f84_863D_18B824EA7807&#45;&gt;EAID_B15492D1_3CBC_49e6_8834_611C257F79AB</title>
<path fill="none" stroke="black" d="M664.042,-166.5C703.92,-166.5 745.118,-166.5 776.491,-166.5"/>
<polygon fill="black" stroke="black" points="776.738,-170 786.738,-166.5 776.738,-163 776.738,-170"/>
</g>
<!-- EAID_6BB2FEBD_F090_4a16_BF19_7915BEA26F5F&#45;&gt;EAID_FF0DC1C4_AD4A_4582_AFB1_B37391610D13 -->
<g id="edge7" class="edge"><title>EAID_6BB2FEBD_F090_4a16_BF19_7915BEA26F5F&#45;&gt;EAID_FF0DC1C4_AD4A_4582_AFB1_B37391610D13</title>
<path fill="none" stroke="black" d="M699.682,-273.433C610.409,-270.044 489.989,-260.207 387,-233.5 377.269,-230.977 367.369,-227.898 357.528,-224.462"/>
<polygon fill="black" stroke="black" points="358.712,-221.169 348.118,-221.065 356.335,-227.753 358.712,-221.169"/>
</g>
<!-- EAID_7FFB743B_69BF_46cd_8859_AFB1AB03597A&#45;&gt;EAID_FF0DC1C4_AD4A_4582_AFB1_B37391610D13 -->
<g id="edge6" class="edge"><title>EAID_7FFB743B_69BF_46cd_8859_AFB1AB03597A&#45;&gt;EAID_FF0DC1C4_AD4A_4582_AFB1_B37391610D13</title>
<path fill="none" stroke="black" d="M709.712,-58.6964C619.554,-61.3945 493.848,-70.6069 387,-98.5 376.613,-101.212 366.042,-104.567 355.558,-108.323"/>
<polygon fill="black" stroke="black" points="354.123,-105.122 345.962,-111.878 356.555,-111.686 354.123,-105.122"/>
</g>
<!-- EAID_C12EB1CC_0086_4c02_832E_8D77F3AE6755 -->
<g id="node7" class="node"><title>EAID_C12EB1CC_0086_4c02_832E_8D77F3AE6755</title>
<image xlink:href="img/actor1.png" width="61px" height="90px" preserveAspectRatio="xMinYMin meet" x="10.5" y="-151.5"/>
<text text-anchor="start" x="19" y="-38.3" font-family="Times New Roman,serif" font-size="24.00">User</text>
</g>
<!-- EAID_C12EB1CC_0086_4c02_832E_8D77F3AE6755&#45;&gt;EAID_FF0DC1C4_AD4A_4582_AFB1_B37391610D13 -->
<g id="edge8" class="edge"><title>EAID_C12EB1CC_0086_4c02_832E_8D77F3AE6755&#45;&gt;EAID_FF0DC1C4_AD4A_4582_AFB1_B37391610D13</title>
<path fill="none" stroke="black" d="M81.1789,-107.04C89.2311,-110.194 98.1002,-113.667 107.386,-117.304"/>
<polygon fill="black" stroke="black" points="106.207,-120.601 116.795,-120.989 108.76,-114.083 106.207,-120.601"/>
</g>
</g>
</svg>
