<?xml version="1.0" encoding="UTF-8" standalone="no"?>
<!DOCTYPE svg PUBLIC "-//W3C//DTD SVG 1.1//EN"
 "http://www.w3.org/Graphics/SVG/1.1/DTD/svg11.dtd">
<!-- Generated by graphviz version 2.38.0 (20140413.2041)
 -->
<!-- Title: g Pages: 1 -->
<svg width="1005pt" height="239pt"
 viewBox="0.00 0.00 1005.00 238.50" xmlns="http://www.w3.org/2000/svg" xmlns:xlink="http://www.w3.org/1999/xlink">
<g id="graph0" class="graph" transform="scale(1 1) rotate(0) translate(4 234.5)">
<title>g</title>
<polygon fill="white" stroke="none" points="-4,4 -4,-234.5 1001,-234.5 1001,4 -4,4"/>
<!-- EAID_498649FD_9844_46db_8A1E_23226386CD58 -->
<g id="node1" class="node"><title>EAID_498649FD_9844_46db_8A1E_23226386CD58</title>
<image xlink:href="img/actor1.png" width="61px" height="90px" preserveAspectRatio="xMinYMin meet" x="10.5" y="-126"/>
<text text-anchor="start" x="19" y="-12.8" font-family="Times New Roman,serif" font-size="24.00">User</text>
</g>
<!-- EAID_4E22DF58_C11C_4cfa_8E30_255D7087F56C -->
<g id="node2" class="node"><title>EAID_4E22DF58_C11C_4cfa_8E30_255D7087F56C</title>
<image xlink:href="img/boundary3.png" width="106px" height="67px" preserveAspectRatio="xMinYMin meet" x="127" y="-156"/>
<text text-anchor="start" x="127" y="-65.8" font-family="Times New Roman,serif" font-size="24.00">Login page</text>
</g>
<!-- EAID_498649FD_9844_46db_8A1E_23226386CD58&#45;&gt;EAID_4E22DF58_C11C_4cfa_8E30_255D7087F56C -->
<g id="edge1" class="edge"><title>EAID_498649FD_9844_46db_8A1E_23226386CD58&#45;&gt;EAID_4E22DF58_C11C_4cfa_8E30_255D7087F56C</title>
<path fill="none" stroke="black" d="M81.2707,-78.1481C89.4252,-80.639 98.2455,-83.3332 107.135,-86.0486"/>
<polygon fill="black" stroke="black" points="106.195,-89.4209 116.781,-88.9949 108.24,-82.7262 106.195,-89.4209"/>
</g>
<!-- EAID_5DA026FF_4E9F_4b23_858F_A26816B6023F -->
<g id="node3" class="node"><title>EAID_5DA026FF_4E9F_4b23_858F_A26816B6023F</title>
<image xlink:href="img/boundary3.png" width="102px" height="67px" preserveAspectRatio="xMinYMin meet" x="885" y="-116"/>
<text text-anchor="start" x="885" y="-25.8" font-family="Times New Roman,serif" font-size="24.00">Homepage</text>
</g>
<!-- EAID_498649FD_9844_46db_8A1E_23226386CD58&#45;&gt;EAID_5DA026FF_4E9F_4b23_858F_A26816B6023F -->
<g id="edge2" class="edge"><title>EAID_498649FD_9844_46db_8A1E_23226386CD58&#45;&gt;EAID_5DA026FF_4E9F_4b23_858F_A26816B6023F</title>
<path fill="none" stroke="black" d="M81.0025,-52.2049C92.4679,-48.8277 105.106,-45.6976 117,-44 434.67,1.34015 520.515,-4.79275 839,-44 847.548,-45.0523 856.43,-46.6129 865.187,-48.4423"/>
<polygon fill="black" stroke="black" points="864.476,-51.8697 874.996,-50.6092 865.986,-45.0345 864.476,-51.8697"/>
</g>
<!-- EAID_A952D053_B314_46ff_9F03_CB8156460415 -->
<g id="node5" class="node"><title>EAID_A952D053_B314_46ff_9F03_CB8156460415</title>
<image xlink:href="img/control1.png" width="106px" height="75px" preserveAspectRatio="xMinYMin meet" x="387" y="-224"/>
<text text-anchor="start" x="289.5" y="-125.8" font-family="Times New Roman,serif" font-size="24.00">Validate usename and password</text>
</g>
<!-- EAID_4E22DF58_C11C_4cfa_8E30_255D7087F56C&#45;&gt;EAID_A952D053_B314_46ff_9F03_CB8156460415 -->
<g id="edge6" class="edge"><title>EAID_4E22DF58_C11C_4cfa_8E30_255D7087F56C&#45;&gt;EAID_A952D053_B314_46ff_9F03_CB8156460415</title>
<path fill="none" stroke="black" d="M243.005,-123.411C251.202,-125.448 259.897,-127.609 268.889,-129.844"/>
<polygon fill="black" stroke="black" points="268.204,-133.281 278.753,-132.296 269.893,-126.487 268.204,-133.281"/>
</g>
<!-- EAID_7E0ED2CE_649F_4221_A2C3_C58F7AE738A8 -->
<g id="node4" class="node"><title>EAID_7E0ED2CE_649F_4221_A2C3_C58F7AE738A8</title>
<image xlink:href="img/control1.png" width="106px" height="75px" preserveAspectRatio="xMinYMin meet" x="685" y="-164"/>
<text text-anchor="start" x="646.5" y="-65.8" font-family="Times New Roman,serif" font-size="24.00">Confirmation page </text>
</g>
<!-- EAID_7E0ED2CE_649F_4221_A2C3_C58F7AE738A8&#45;&gt;EAID_4E22DF58_C11C_4cfa_8E30_255D7087F56C -->
<g id="edge4" class="edge"><title>EAID_7E0ED2CE_649F_4221_A2C3_C58F7AE738A8&#45;&gt;EAID_4E22DF58_C11C_4cfa_8E30_255D7087F56C</title>
<path fill="none" stroke="black" d="M635.894,-105.435C623.804,-104.844 611.627,-104.34 600,-104 457.394,-99.8247 421.637,-101.09 279,-104 270.679,-104.17 261.964,-104.42 253.307,-104.715"/>
<polygon fill="black" stroke="black" points="253.067,-101.221 243.2,-105.079 253.319,-108.217 253.067,-101.221"/>
</g>
<!-- EAID_7E0ED2CE_649F_4221_A2C3_C58F7AE738A8&#45;&gt;EAID_5DA026FF_4E9F_4b23_858F_A26816B6023F -->
<g id="edge3" class="edge"><title>EAID_7E0ED2CE_649F_4221_A2C3_C58F7AE738A8&#45;&gt;EAID_5DA026FF_4E9F_4b23_858F_A26816B6023F</title>
<path fill="none" stroke="black" d="M839.053,-89.4844C847.875,-87.5088 856.673,-85.5388 865.162,-83.638"/>
<polygon fill="black" stroke="black" points="865.974,-87.043 874.967,-81.4424 864.444,-80.2121 865.974,-87.043"/>
</g>
<!-- EAID_A952D053_B314_46ff_9F03_CB8156460415&#45;&gt;EAID_7E0ED2CE_649F_4221_A2C3_C58F7AE738A8 -->
<g id="edge5" class="edge"><title>EAID_A952D053_B314_46ff_9F03_CB8156460415&#45;&gt;EAID_7E0ED2CE_649F_4221_A2C3_C58F7AE738A8</title>
<path fill="none" stroke="black" d="M600.196,-139.629C608.738,-137.898 617.227,-136.177 625.549,-134.49"/>
<polygon fill="black" stroke="black" points="626.505,-137.868 635.61,-132.451 625.114,-131.007 626.505,-137.868"/>
</g>
</g>
</svg>
