<?xml version="1.0" encoding="UTF-8" standalone="no"?>
<!DOCTYPE svg PUBLIC "-//W3C//DTD SVG 1.1//EN"
 "http://www.w3.org/Graphics/SVG/1.1/DTD/svg11.dtd">
<!-- Generated by graphviz version 2.38.0 (20140413.2041)
 -->
<!-- Title: g Pages: 1 -->
<svg width="2151pt" height="884pt"
 viewBox="0.00 0.00 2151.00 884.00" xmlns="http://www.w3.org/2000/svg" xmlns:xlink="http://www.w3.org/1999/xlink">
<g id="graph0" class="graph" transform="scale(1 1) rotate(0) translate(4 880)">
<title>g</title>
<polygon fill="white" stroke="none" points="-4,4 -4,-880 2147,-880 2147,4 -4,4"/>
<g id="clust1" class="cluster"><title>cluster0</title>
<polygon fill="none" stroke="black" stroke-width="2" points="717,-380 717,-770 1137,-770 1137,-380 717,-380"/>
<text text-anchor="start" x="905" y="-755.8" font-family="Times New Roman,serif" font-weight="bold" font-size="14.00">System</text>
</g>
<g id="clust3" class="cluster"><title>cluster1000</title>
<polygon fill="none" stroke="black" stroke-width="2" points="8,-8 8,-372 2135,-372 2135,-8 8,-8"/>
<text text-anchor="start" x="1026" y="-357.8" font-family="Times New Roman,serif" font-weight="bold" font-size="14.00">Domain Model</text>
</g>
<g id="clust2" class="cluster"><title>cluster1</title>
<polygon fill="none" stroke="black" stroke-width="2" points="841,-778 841,-868 1159,-868 1159,-778 841,-778"/>
<text text-anchor="start" x="985.5" y="-853.8" font-family="Times New Roman,serif" font-weight="bold" font-size="14.00">User</text>
</g>
<!-- EAID_498649FD_9844_46db_8A1E_23226386CD58___EAID_4E22DF58_C11C_4cfa_8E30_255D7087F56C -->
<g id="node1" class="node"><title>EAID_498649FD_9844_46db_8A1E_23226386CD58___EAID_4E22DF58_C11C_4cfa_8E30_255D7087F56C</title>
<image xlink:href="img/activity_icon.png" width="30px" height="20px" preserveAspectRatio="xMinYMin meet" x="917.5" y="-732.5"/>
<text text-anchor="start" x="882" y="-698.3" font-family="Times New Roman,serif" font-weight="bold" font-size="14.00">User:Login page</text>
</g>
<!-- EAID_4E22DF58_C11C_4cfa_8E30_255D7087F56C___EAID_A952D053_B314_46ff_9F03_CB8156460415 -->
<g id="node6" class="node"><title>EAID_4E22DF58_C11C_4cfa_8E30_255D7087F56C___EAID_A952D053_B314_46ff_9F03_CB8156460415</title>
<image xlink:href="img/activity_icon.png" width="30px" height="20px" preserveAspectRatio="xMinYMin meet" x="941.5" y="-646"/>
<text text-anchor="start" x="866" y="-611.8" font-family="Times New Roman,serif" font-weight="bold" font-size="14.00">Login page:Validate usename</text>
<text text-anchor="start" x="914" y="-597.8" font-family="Times New Roman,serif" font-weight="bold" font-size="14.00">and password</text>
</g>
<!-- EAID_498649FD_9844_46db_8A1E_23226386CD58___EAID_4E22DF58_C11C_4cfa_8E30_255D7087F56C&#45;&gt;EAID_4E22DF58_C11C_4cfa_8E30_255D7087F56C___EAID_A952D053_B314_46ff_9F03_CB8156460415 -->
<g id="edge1" class="edge"><title>EAID_498649FD_9844_46db_8A1E_23226386CD58___EAID_4E22DF58_C11C_4cfa_8E30_255D7087F56C&#45;&gt;EAID_4E22DF58_C11C_4cfa_8E30_255D7087F56C___EAID_A952D053_B314_46ff_9F03_CB8156460415</title>
<path fill="none" stroke="black" d="M938.432,-687.98C940.53,-679.98 942.92,-670.867 945.247,-661.995"/>
<polygon fill="black" stroke="black" points="948.677,-662.714 947.829,-652.153 941.906,-660.938 948.677,-662.714"/>
</g>
<!-- EAID_CD1037A4_A732_409d_8526_F8718FE718AC -->
<g id="node15" class="node"><title>EAID_CD1037A4_A732_409d_8526_F8718FE718AC</title>
<polygon fill="none" stroke="black" points="1020,-241.5 1020,-262.5 1201,-262.5 1201,-241.5 1020,-241.5"/>
<text text-anchor="start" x="1077.5" y="-249.3" font-family="Times New Roman,serif" font-weight="bold" font-size="14.00">Homepage</text>
<polygon fill="none" stroke="black" points="1020,-220.5 1020,-241.5 1201,-241.5 1201,-220.5 1020,-220.5"/>
<text text-anchor="start" x="1073" y="-228.3" font-family="Times New Roman,serif" font-weight="bold" font-size="14.00">Homepage()</text>
<polygon fill="none" stroke="black" points="1020,-199.5 1020,-220.5 1201,-220.5 1201,-199.5 1020,-199.5"/>
<text text-anchor="start" x="1061.5" y="-207.3" font-family="Times New Roman,serif" font-weight="bold" font-size="14.00">Checkoutpage()</text>
<polygon fill="none" stroke="black" points="1020,-178.5 1020,-199.5 1201,-199.5 1201,-178.5 1020,-178.5"/>
<text text-anchor="start" x="1023" y="-186.3" font-family="Times New Roman,serif" font-weight="bold" font-size="14.00">CustomizeDataserivcepage()</text>
<polygon fill="none" stroke="black" points="1020,-157.5 1020,-178.5 1201,-178.5 1201,-157.5 1020,-157.5"/>
<text text-anchor="start" x="1073.5" y="-165.3" font-family="Times New Roman,serif" font-weight="bold" font-size="14.00">Loginpage()</text>
<polygon fill="none" stroke="black" points="1020,-136.5 1020,-157.5 1201,-157.5 1201,-136.5 1020,-136.5"/>
<text text-anchor="start" x="1052.5" y="-144.3" font-family="Times New Roman,serif" font-weight="bold" font-size="14.00">Managedatapage()</text>
<polygon fill="none" stroke="black" points="1020,-115.5 1020,-136.5 1201,-136.5 1201,-115.5 1020,-115.5"/>
<text text-anchor="start" x="1052" y="-123.3" font-family="Times New Roman,serif" font-weight="bold" font-size="14.00">ReceiveDatapage()</text>
<polygon fill="none" stroke="black" points="1020,-94.5 1020,-115.5 1201,-115.5 1201,-94.5 1020,-94.5"/>
<text text-anchor="start" x="1047" y="-102.3" font-family="Times New Roman,serif" font-weight="bold" font-size="14.00">Updatecontentpage()</text>
<polygon fill="none" stroke="black" points="1018.5,-93.5 1018.5,-263.5 1201.5,-263.5 1201.5,-93.5 1018.5,-93.5"/>
</g>
<!-- EAID_498649FD_9844_46db_8A1E_23226386CD58___EAID_4E22DF58_C11C_4cfa_8E30_255D7087F56C&#45;&gt;EAID_CD1037A4_A732_409d_8526_F8718FE718AC -->
<g id="edge8" class="edge"><title>EAID_498649FD_9844_46db_8A1E_23226386CD58___EAID_4E22DF58_C11C_4cfa_8E30_255D7087F56C&#45;&gt;EAID_CD1037A4_A732_409d_8526_F8718FE718AC</title>
<path fill="none" stroke="black" stroke-dasharray="5,2" d="M992.804,-689.854C1022.7,-677.787 1054.7,-663.173 1066,-652 1135.7,-583.071 1137.83,-547.717 1159,-452 1171.72,-394.46 1161.02,-329.535 1146.42,-277.495"/>
<polygon fill="black" stroke="black" points="1149.69,-276.23 1143.55,-267.599 1142.97,-278.178 1149.69,-276.23"/>
</g>
<!-- EAID_498649FD_9844_46db_8A1E_23226386CD58___EAID_5DA026FF_4E9F_4b23_858F_A26816B6023F -->
<g id="node2" class="node"><title>EAID_498649FD_9844_46db_8A1E_23226386CD58___EAID_5DA026FF_4E9F_4b23_858F_A26816B6023F</title>
<image xlink:href="img/activity_icon.png" width="30px" height="20px" preserveAspectRatio="xMinYMin meet" x="1055" y="-732.5"/>
<text text-anchor="start" x="1021" y="-698.3" font-family="Times New Roman,serif" font-weight="bold" font-size="14.00">User:Homepage</text>
</g>
<!-- EAID_498649FD_9844_46db_8A1E_23226386CD58___EAID_5DA026FF_4E9F_4b23_858F_A26816B6023F&#45;&gt;EAID_CD1037A4_A732_409d_8526_F8718FE718AC -->
<g id="edge9" class="edge"><title>EAID_498649FD_9844_46db_8A1E_23226386CD58___EAID_5DA026FF_4E9F_4b23_858F_A26816B6023F&#45;&gt;EAID_CD1037A4_A732_409d_8526_F8718FE718AC</title>
<path fill="none" stroke="black" stroke-dasharray="5,2" d="M1129.2,-702.403C1158.47,-694.1 1191.26,-679.076 1209,-652 1283.7,-538.023 1223.57,-378.225 1169.76,-276.788"/>
<polygon fill="black" stroke="black" points="1172.72,-274.915 1164.9,-267.766 1166.56,-278.231 1172.72,-274.915"/>
</g>
<!-- EAID_7E0ED2CE_649F_4221_A2C3_C58F7AE738A8___EAID_5DA026FF_4E9F_4b23_858F_A26816B6023F -->
<g id="node3" class="node"><title>EAID_7E0ED2CE_649F_4221_A2C3_C58F7AE738A8___EAID_5DA026FF_4E9F_4b23_858F_A26816B6023F</title>
<image xlink:href="img/activity_icon.png" width="30px" height="20px" preserveAspectRatio="xMinYMin meet" x="1010" y="-439"/>
<text text-anchor="start" x="931" y="-404.8" font-family="Times New Roman,serif" font-weight="bold" font-size="14.00">Confirmation page :Homepage</text>
</g>
<!-- EAID_7E0ED2CE_649F_4221_A2C3_C58F7AE738A8___EAID_5DA026FF_4E9F_4b23_858F_A26816B6023F&#45;&gt;EAID_CD1037A4_A732_409d_8526_F8718FE718AC -->
<g id="edge10" class="edge"><title>EAID_7E0ED2CE_649F_4221_A2C3_C58F7AE738A8___EAID_5DA026FF_4E9F_4b23_858F_A26816B6023F&#45;&gt;EAID_CD1037A4_A732_409d_8526_F8718FE718AC</title>
<path fill="none" stroke="black" stroke-dasharray="5,2" d="M1033.78,-394.271C1043.6,-366.605 1060.12,-320.051 1075.27,-277.346"/>
<polygon fill="black" stroke="black" points="1078.64,-278.327 1078.69,-267.732 1072.04,-275.986 1078.64,-278.327"/>
</g>
<!-- EAID_7E0ED2CE_649F_4221_A2C3_C58F7AE738A8___EAID_4E22DF58_C11C_4cfa_8E30_255D7087F56C -->
<g id="node4" class="node"><title>EAID_7E0ED2CE_649F_4221_A2C3_C58F7AE738A8___EAID_4E22DF58_C11C_4cfa_8E30_255D7087F56C</title>
<image xlink:href="img/activity_icon.png" width="30px" height="20px" preserveAspectRatio="xMinYMin meet" x="799" y="-446"/>
<text text-anchor="start" x="735" y="-411.8" font-family="Times New Roman,serif" font-weight="bold" font-size="14.00">Confirmation page :Login</text>
<text text-anchor="start" x="799" y="-397.8" font-family="Times New Roman,serif" font-weight="bold" font-size="14.00">page</text>
</g>
<!-- EAID_7E0ED2CE_649F_4221_A2C3_C58F7AE738A8___EAID_4E22DF58_C11C_4cfa_8E30_255D7087F56C&#45;&gt;EAID_4E22DF58_C11C_4cfa_8E30_255D7087F56C___EAID_A952D053_B314_46ff_9F03_CB8156460415 -->
<g id="edge4" class="edge"><title>EAID_7E0ED2CE_649F_4221_A2C3_C58F7AE738A8___EAID_4E22DF58_C11C_4cfa_8E30_255D7087F56C&#45;&gt;EAID_4E22DF58_C11C_4cfa_8E30_255D7087F56C___EAID_A952D053_B314_46ff_9F03_CB8156460415</title>
<path fill="none" stroke="black" d="M822.741,-452.138C831.684,-480.222 847.601,-521.653 871,-552 879.229,-562.672 889.518,-572.623 900.068,-581.419"/>
<polygon fill="black" stroke="black" points="898.167,-584.382 908.156,-587.914 902.55,-578.924 898.167,-584.382"/>
</g>
<!-- EAID_7E0ED2CE_649F_4221_A2C3_C58F7AE738A8___EAID_4E22DF58_C11C_4cfa_8E30_255D7087F56C&#45;&gt;EAID_CD1037A4_A732_409d_8526_F8718FE718AC -->
<g id="edge11" class="edge"><title>EAID_7E0ED2CE_649F_4221_A2C3_C58F7AE738A8___EAID_4E22DF58_C11C_4cfa_8E30_255D7087F56C&#45;&gt;EAID_CD1037A4_A732_409d_8526_F8718FE718AC</title>
<path fill="none" stroke="black" stroke-dasharray="5,2" d="M885.214,-387.916C894.112,-384.852 903.183,-382.103 912,-380 931.315,-375.392 984.31,-382.759 1001,-372 1035.37,-349.841 1060.01,-312.811 1077.06,-277.114"/>
<polygon fill="black" stroke="black" points="1080.45,-278.134 1081.45,-267.588 1074.09,-275.204 1080.45,-278.134"/>
</g>
<!-- EAID_A952D053_B314_46ff_9F03_CB8156460415___EAID_7E0ED2CE_649F_4221_A2C3_C58F7AE738A8 -->
<g id="node5" class="node"><title>EAID_A952D053_B314_46ff_9F03_CB8156460415___EAID_7E0ED2CE_649F_4221_A2C3_C58F7AE738A8</title>
<image xlink:href="img/activity_icon.png" width="30px" height="20px" preserveAspectRatio="xMinYMin meet" x="965.5" y="-546"/>
<text text-anchor="start" x="913" y="-511.8" font-family="Times New Roman,serif" font-weight="bold" font-size="14.00">Validate usename and</text>
<text text-anchor="start" x="890" y="-497.8" font-family="Times New Roman,serif" font-weight="bold" font-size="14.00">password:Confirmation page </text>
</g>
<!-- EAID_A952D053_B314_46ff_9F03_CB8156460415___EAID_7E0ED2CE_649F_4221_A2C3_C58F7AE738A8&#45;&gt;EAID_7E0ED2CE_649F_4221_A2C3_C58F7AE738A8___EAID_5DA026FF_4E9F_4b23_858F_A26816B6023F -->
<g id="edge5" class="edge"><title>EAID_A952D053_B314_46ff_9F03_CB8156460415___EAID_7E0ED2CE_649F_4221_A2C3_C58F7AE738A8&#45;&gt;EAID_7E0ED2CE_649F_4221_A2C3_C58F7AE738A8___EAID_5DA026FF_4E9F_4b23_858F_A26816B6023F</title>
<path fill="none" stroke="black" d="M994.238,-487.992C999.098,-477.41 1004.55,-465.527 1009.51,-454.74"/>
<polygon fill="black" stroke="black" points="1012.71,-456.151 1013.7,-445.603 1006.35,-453.23 1012.71,-456.151"/>
</g>
<!-- EAID_A952D053_B314_46ff_9F03_CB8156460415___EAID_7E0ED2CE_649F_4221_A2C3_C58F7AE738A8&#45;&gt;EAID_7E0ED2CE_649F_4221_A2C3_C58F7AE738A8___EAID_4E22DF58_C11C_4cfa_8E30_255D7087F56C -->
<g id="edge6" class="edge"><title>EAID_A952D053_B314_46ff_9F03_CB8156460415___EAID_7E0ED2CE_649F_4221_A2C3_C58F7AE738A8&#45;&gt;EAID_7E0ED2CE_649F_4221_A2C3_C58F7AE738A8___EAID_4E22DF58_C11C_4cfa_8E30_255D7087F56C</title>
<path fill="none" stroke="black" d="M927.477,-487.992C910.976,-478.251 892.609,-467.408 875.541,-457.332"/>
<polygon fill="black" stroke="black" points="877.142,-454.212 866.752,-452.142 873.584,-460.24 877.142,-454.212"/>
</g>
<!-- EAID_6F6CAE60_486A_4184_9817_225FE07C2163 -->
<g id="node11" class="node"><title>EAID_6F6CAE60_486A_4184_9817_225FE07C2163</title>
<polygon fill="none" stroke="black" points="25,-251.5 25,-272.5 257,-272.5 257,-251.5 25,-251.5"/>
<text text-anchor="start" x="71.5" y="-259.3" font-family="Times New Roman,serif" font-weight="bold" font-size="14.00">Product Configuration</text>
<polygon fill="none" stroke="black" points="25,-230.5 25,-251.5 257,-251.5 257,-230.5 25,-230.5"/>
<text text-anchor="start" x="83" y="-238.3" font-family="Times New Roman,serif" font-weight="bold" font-size="14.00">EAJava_date Date</text>
<polygon fill="none" stroke="black" points="25,-209.5 25,-230.5 257,-230.5 257,-209.5 25,-209.5"/>
<text text-anchor="start" x="78" y="-217.3" font-family="Times New Roman,serif" font-weight="bold" font-size="14.00">EAJava_int FormID</text>
<polygon fill="none" stroke="black" points="25,-188.5 25,-209.5 257,-209.5 257,-188.5 25,-188.5"/>
<text text-anchor="start" x="28" y="-196.3" font-family="Times New Roman,serif" font-weight="bold" font-size="14.00">EAJava_int ProductConfigurationID</text>
<polygon fill="none" stroke="black" points="25,-167.5 25,-188.5 257,-188.5 257,-167.5 25,-167.5"/>
<text text-anchor="start" x="43" y="-175.3" font-family="Times New Roman,serif" font-weight="bold" font-size="14.00">EAJava_string PurchasingType</text>
<polygon fill="none" stroke="black" points="25,-146.5 25,-167.5 257,-167.5 257,-146.5 25,-146.5"/>
<text text-anchor="start" x="69" y="-154.3" font-family="Times New Roman,serif" font-weight="bold" font-size="14.00">EAJava_float TotalFee</text>
<polygon fill="none" stroke="black" points="25,-125.5 25,-146.5 257,-146.5 257,-125.5 25,-125.5"/>
<text text-anchor="start" x="80.5" y="-133.3" font-family="Times New Roman,serif" font-weight="bold" font-size="14.00">EAJava_int UserID</text>
<polygon fill="none" stroke="black" points="25,-104.5 25,-125.5 257,-125.5 257,-104.5 25,-104.5"/>
<text text-anchor="start" x="69" y="-112.3" font-family="Times New Roman,serif" font-weight="bold" font-size="14.00">ProductConfiguration()</text>
<polygon fill="none" stroke="black" points="25,-83.5 25,-104.5 257,-104.5 257,-83.5 25,-83.5"/>
<text text-anchor="start" x="80.5" y="-91.3" font-family="Times New Roman,serif" font-weight="bold" font-size="14.00">Confirmationpage()</text>
<polygon fill="none" stroke="black" points="24,-83 24,-274 258,-274 258,-83 24,-83"/>
</g>
<!-- EAID_A952D053_B314_46ff_9F03_CB8156460415___EAID_7E0ED2CE_649F_4221_A2C3_C58F7AE738A8&#45;&gt;EAID_6F6CAE60_486A_4184_9817_225FE07C2163 -->
<g id="edge12" class="edge"><title>EAID_A952D053_B314_46ff_9F03_CB8156460415___EAID_7E0ED2CE_649F_4221_A2C3_C58F7AE738A8&#45;&gt;EAID_6F6CAE60_486A_4184_9817_225FE07C2163</title>
<path fill="none" stroke="black" stroke-dasharray="5,2" d="M1080.65,-496.632C1103.2,-486.739 1124.43,-472.495 1138,-452 1155.67,-425.319 1160.52,-402.732 1138,-380 1121.13,-362.97 296.198,-383.197 275,-372 239.469,-353.231 211.42,-320.329 190.363,-286.977"/>
<polygon fill="black" stroke="black" points="193.094,-284.734 184.886,-278.035 187.125,-288.391 193.094,-284.734"/>
</g>
<!-- EAID_4E22DF58_C11C_4cfa_8E30_255D7087F56C___EAID_A952D053_B314_46ff_9F03_CB8156460415&#45;&gt;EAID_A952D053_B314_46ff_9F03_CB8156460415___EAID_7E0ED2CE_649F_4221_A2C3_C58F7AE738A8 -->
<g id="edge7" class="edge"><title>EAID_4E22DF58_C11C_4cfa_8E30_255D7087F56C___EAID_A952D053_B314_46ff_9F03_CB8156460415&#45;&gt;EAID_A952D053_B314_46ff_9F03_CB8156460415___EAID_7E0ED2CE_649F_4221_A2C3_C58F7AE738A8</title>
<path fill="none" stroke="black" d="M963.594,-587.992C965.607,-579.77 967.813,-570.763 969.936,-562.095"/>
<polygon fill="black" stroke="black" points="973.394,-562.688 972.373,-552.142 966.595,-561.023 973.394,-562.688"/>
</g>
<!-- EAID_EA3F3F51_274B_48c6_96D3_BF666BE5299E -->
<g id="node12" class="node"><title>EAID_EA3F3F51_274B_48c6_96D3_BF666BE5299E</title>
<polygon fill="none" stroke="black" points="1237,-314.5 1237,-335.5 1480,-335.5 1480,-314.5 1237,-314.5"/>
<text text-anchor="start" x="1284" y="-322.3" font-family="Times New Roman,serif" font-weight="bold" font-size="14.00">Sensor Data Export File</text>
<polygon fill="none" stroke="black" points="1237,-293.5 1237,-314.5 1480,-314.5 1480,-293.5 1237,-293.5"/>
<text text-anchor="start" x="1280.5" y="-301.3" font-family="Times New Roman,serif" font-weight="bold" font-size="14.00">EAJava_float SignalDate</text>
<polygon fill="none" stroke="black" points="1237,-272.5 1237,-293.5 1480,-293.5 1480,-272.5 1237,-272.5"/>
<text text-anchor="start" x="1306" y="-280.3" font-family="Times New Roman,serif" font-weight="bold" font-size="14.00">EAJava_int Tick</text>
<polygon fill="none" stroke="black" points="1237,-251.5 1237,-272.5 1480,-272.5 1480,-251.5 1237,-251.5"/>
<text text-anchor="start" x="1271" y="-259.3" font-family="Times New Roman,serif" font-weight="bold" font-size="14.00">EAJava_float TimeDuration</text>
<polygon fill="none" stroke="black" points="1237,-230.5 1237,-251.5 1480,-251.5 1480,-230.5 1237,-230.5"/>
<text text-anchor="start" x="1298" y="-238.3" font-family="Times New Roman,serif" font-weight="bold" font-size="14.00">EAJava_int UserID</text>
<polygon fill="none" stroke="black" points="1237,-209.5 1237,-230.5 1480,-230.5 1480,-209.5 1237,-209.5"/>
<text text-anchor="start" x="1285" y="-217.3" font-family="Times New Roman,serif" font-weight="bold" font-size="14.00">SensorDataExportFile()</text>
<polygon fill="none" stroke="black" points="1237,-188.5 1237,-209.5 1480,-209.5 1480,-188.5 1237,-188.5"/>
<text text-anchor="start" x="1310.5" y="-196.3" font-family="Times New Roman,serif" font-weight="bold" font-size="14.00">Checkoutdata()</text>
<polygon fill="none" stroke="black" points="1237,-167.5 1237,-188.5 1480,-188.5 1480,-167.5 1237,-167.5"/>
<text text-anchor="start" x="1308.5" y="-175.3" font-family="Times New Roman,serif" font-weight="bold" font-size="14.00">Customizedata()</text>
<polygon fill="none" stroke="black" points="1237,-146.5 1237,-167.5 1480,-167.5 1480,-146.5 1237,-146.5"/>
<text text-anchor="start" x="1240.5" y="-154.3" font-family="Times New Roman,serif" font-weight="bold" font-size="14.00">sourceofinformationexportedintoafile()</text>
<polygon fill="none" stroke="black" points="1237,-125.5 1237,-146.5 1480,-146.5 1480,-125.5 1237,-125.5"/>
<text text-anchor="start" x="1261" y="-133.3" font-family="Times New Roman,serif" font-weight="bold" font-size="14.00">Validateusenameandpassword()</text>
<polygon fill="none" stroke="black" points="1237,-104.5 1237,-125.5 1480,-125.5 1480,-104.5 1237,-104.5"/>
<text text-anchor="start" x="1240" y="-112.3" font-family="Times New Roman,serif" font-weight="bold" font-size="14.00">choosesthetypeofmanagementfordata()</text>
<polygon fill="none" stroke="black" points="1237,-83.5 1237,-104.5 1480,-104.5 1480,-83.5 1237,-83.5"/>
<text text-anchor="start" x="1309" y="-91.3" font-family="Times New Roman,serif" font-weight="bold" font-size="14.00">SendDatapage()</text>
<polygon fill="none" stroke="black" points="1237,-62.5 1237,-83.5 1480,-83.5 1480,-62.5 1237,-62.5"/>
<text text-anchor="start" x="1324" y="-70.3" font-family="Times New Roman,serif" font-weight="bold" font-size="14.00">Inputdata()</text>
<polygon fill="none" stroke="black" points="1237,-41.5 1237,-62.5 1480,-62.5 1480,-41.5 1237,-41.5"/>
<text text-anchor="start" x="1310" y="-49.3" font-family="Times New Roman,serif" font-weight="bold" font-size="14.00">Subscribedata()</text>
<polygon fill="none" stroke="black" points="1237,-20.5 1237,-41.5 1480,-41.5 1480,-20.5 1237,-20.5"/>
<text text-anchor="start" x="1317.5" y="-28.3" font-family="Times New Roman,serif" font-weight="bold" font-size="14.00">Choosedata()</text>
<polygon fill="none" stroke="black" points="1235.5,-20 1235.5,-337 1480.5,-337 1480.5,-20 1235.5,-20"/>
</g>
<!-- EAID_4E22DF58_C11C_4cfa_8E30_255D7087F56C___EAID_A952D053_B314_46ff_9F03_CB8156460415&#45;&gt;EAID_EA3F3F51_274B_48c6_96D3_BF666BE5299E -->
<g id="edge13" class="edge"><title>EAID_4E22DF58_C11C_4cfa_8E30_255D7087F56C___EAID_A952D053_B314_46ff_9F03_CB8156460415&#45;&gt;EAID_EA3F3F51_274B_48c6_96D3_BF666BE5299E</title>
<path fill="none" stroke="black" stroke-dasharray="5,2" d="M1034.01,-587.914C1053.46,-578.104 1073.46,-566.081 1090,-552 1156.59,-495.293 1215.36,-418.716 1260.76,-349.74"/>
<polygon fill="black" stroke="black" points="1263.69,-351.653 1266.23,-341.367 1257.83,-347.824 1263.69,-351.653"/>
</g>
<!-- EAID_498649FD_9844_46db_8A1E_23226386CD58___EAID_4E22DF58_C11C_4cfa_8E30_255D7087F56C_STL -->
<g id="node7" class="node"><title>EAID_498649FD_9844_46db_8A1E_23226386CD58___EAID_4E22DF58_C11C_4cfa_8E30_255D7087F56C_STL</title>
<image xlink:href="img/stimulus_icon.png" width="30px" height="20px" preserveAspectRatio="xMinYMin meet" x="906.5" y="-830.5"/>
<text text-anchor="start" x="860" y="-796.3" font-family="Times New Roman,serif" font-weight="bold" font-size="14.00">stl#User:Login page</text>
</g>
<!-- EAID_498649FD_9844_46db_8A1E_23226386CD58___EAID_4E22DF58_C11C_4cfa_8E30_255D7087F56C_STL&#45;&gt;EAID_498649FD_9844_46db_8A1E_23226386CD58___EAID_4E22DF58_C11C_4cfa_8E30_255D7087F56C -->
<g id="edge2" class="edge"><title>EAID_498649FD_9844_46db_8A1E_23226386CD58___EAID_4E22DF58_C11C_4cfa_8E30_255D7087F56C_STL&#45;&gt;EAID_498649FD_9844_46db_8A1E_23226386CD58___EAID_4E22DF58_C11C_4cfa_8E30_255D7087F56C</title>
<path fill="none" stroke="black" d="M923.833,-785.778C925.103,-774.692 926.624,-761.42 928.007,-749.351"/>
<polygon fill="black" stroke="black" points="931.516,-749.472 929.177,-739.139 924.561,-748.675 931.516,-749.472"/>
</g>
<!-- EAID_498649FD_9844_46db_8A1E_23226386CD58___EAID_5DA026FF_4E9F_4b23_858F_A26816B6023F_STL -->
<g id="node8" class="node"><title>EAID_498649FD_9844_46db_8A1E_23226386CD58___EAID_5DA026FF_4E9F_4b23_858F_A26816B6023F_STL</title>
<image xlink:href="img/stimulus_icon.png" width="30px" height="20px" preserveAspectRatio="xMinYMin meet" x="1066" y="-830.5"/>
<text text-anchor="start" x="1021" y="-796.3" font-family="Times New Roman,serif" font-weight="bold" font-size="14.00">stl#User:Homepage</text>
</g>
<!-- EAID_498649FD_9844_46db_8A1E_23226386CD58___EAID_5DA026FF_4E9F_4b23_858F_A26816B6023F_STL&#45;&gt;EAID_498649FD_9844_46db_8A1E_23226386CD58___EAID_5DA026FF_4E9F_4b23_858F_A26816B6023F -->
<g id="edge3" class="edge"><title>EAID_498649FD_9844_46db_8A1E_23226386CD58___EAID_5DA026FF_4E9F_4b23_858F_A26816B6023F_STL&#45;&gt;EAID_498649FD_9844_46db_8A1E_23226386CD58___EAID_5DA026FF_4E9F_4b23_858F_A26816B6023F</title>
<path fill="none" stroke="black" d="M1078.17,-785.778C1076.9,-774.692 1075.38,-761.42 1073.99,-749.351"/>
<polygon fill="black" stroke="black" points="1077.44,-748.675 1072.82,-739.139 1070.48,-749.472 1077.44,-748.675"/>
</g>
<!-- EAID_1FE114CC_7F6B_47c8_B31C_F0526CF1B3B3 -->
<g id="node9" class="node"><title>EAID_1FE114CC_7F6B_47c8_B31C_F0526CF1B3B3</title>
<polygon fill="none" stroke="black" points="1764,-209.5 1764,-230.5 2118,-230.5 2118,-209.5 1764,-209.5"/>
<text text-anchor="start" x="1767" y="-217.3" font-family="Times New Roman,serif" font-weight="bold" font-size="14.00">Web based product configurator and data service system</text>
<polygon fill="none" stroke="black" points="1764,-188.5 1764,-209.5 2118,-209.5 2118,-188.5 1764,-188.5"/>
<text text-anchor="start" x="1775.5" y="-196.3" font-family="Times New Roman,serif" font-weight="bold" font-size="14.00">Webbasedproductconfiguratoranddataservicesystem()</text>
<polygon fill="none" stroke="black" points="1764,-167.5 1764,-188.5 2118,-188.5 2118,-167.5 1764,-167.5"/>
<text text-anchor="start" x="1846.5" y="-175.3" font-family="Times New Roman,serif" font-weight="bold" font-size="14.00">storesthedataintothedatabase()</text>
<polygon fill="none" stroke="black" points="1764,-146.5 1764,-167.5 2118,-167.5 2118,-146.5 1764,-146.5"/>
<text text-anchor="start" x="1786" y="-154.3" font-family="Times New Roman,serif" font-weight="bold" font-size="14.00">selectsthewaytoreceivenotificationanemailoratext()</text>
<polygon fill="none" stroke="black" points="1764,-125.5 1764,-146.5 2118,-146.5 2118,-125.5 1764,-125.5"/>
<text text-anchor="start" x="1864" y="-133.3" font-family="Times New Roman,serif" font-weight="bold" font-size="14.00">Choosecontenttoupdate()</text>
<polygon fill="none" stroke="black" points="1763,-125 1763,-232 2119,-232 2119,-125 1763,-125"/>
</g>
<!-- EAID_F13FE8AE_A9DC_4bea_97DF_463D13956F56 -->
<g id="node10" class="node"><title>EAID_F13FE8AE_A9DC_4bea_97DF_463D13956F56</title>
<polygon fill="none" stroke="black" points="1516,-262.5 1516,-283.5 1728,-283.5 1728,-262.5 1516,-262.5"/>
<text text-anchor="start" x="1519" y="-270.3" font-family="Times New Roman,serif" font-weight="bold" font-size="14.00">Data Service Configuration Form</text>
<polygon fill="none" stroke="black" points="1516,-241.5 1516,-262.5 1728,-262.5 1728,-241.5 1516,-241.5"/>
<text text-anchor="start" x="1521" y="-249.3" font-family="Times New Roman,serif" font-weight="bold" font-size="14.00">EAJava_string ConfigParameter</text>
<polygon fill="none" stroke="black" points="1516,-220.5 1516,-241.5 1728,-241.5 1728,-220.5 1516,-220.5"/>
<text text-anchor="start" x="1564" y="-228.3" font-family="Times New Roman,serif" font-weight="bold" font-size="14.00">EAJava_date Date</text>
<polygon fill="none" stroke="black" points="1516,-199.5 1516,-220.5 1728,-220.5 1728,-199.5 1516,-199.5"/>
<text text-anchor="start" x="1558.5" y="-207.3" font-family="Times New Roman,serif" font-weight="bold" font-size="14.00">EAJava_string Type</text>
<polygon fill="none" stroke="black" points="1516,-178.5 1516,-199.5 1728,-199.5 1728,-178.5 1516,-178.5"/>
<text text-anchor="start" x="1561.5" y="-186.3" font-family="Times New Roman,serif" font-weight="bold" font-size="14.00">EAJava_int UserID</text>
<polygon fill="none" stroke="black" points="1516,-157.5 1516,-178.5 1728,-178.5 1728,-157.5 1516,-157.5"/>
<text text-anchor="start" x="1520" y="-165.3" font-family="Times New Roman,serif" font-weight="bold" font-size="14.00">DataServiceConfigurationForm()</text>
<polygon fill="none" stroke="black" points="1516,-136.5 1516,-157.5 1728,-157.5 1728,-136.5 1516,-136.5"/>
<text text-anchor="start" x="1533.5" y="-144.3" font-family="Times New Roman,serif" font-weight="bold" font-size="14.00">validateaccountinformation()</text>
<polygon fill="none" stroke="black" points="1516,-115.5 1516,-136.5 1728,-136.5 1728,-115.5 1516,-115.5"/>
<text text-anchor="start" x="1544" y="-123.3" font-family="Times New Roman,serif" font-weight="bold" font-size="14.00">Receivenotificationpage()</text>
<polygon fill="none" stroke="black" points="1516,-94.5 1516,-115.5 1728,-115.5 1728,-94.5 1516,-94.5"/>
<text text-anchor="start" x="1572" y="-102.3" font-family="Times New Roman,serif" font-weight="bold" font-size="14.00">dataservicesdb()</text>
<polygon fill="none" stroke="black" points="1516,-73.5 1516,-94.5 1728,-94.5 1728,-73.5 1516,-73.5"/>
<text text-anchor="start" x="1536" y="-81.3" font-family="Times New Roman,serif" font-weight="bold" font-size="14.00">SubscribeDataserivcepage()</text>
<polygon fill="none" stroke="black" points="1515,-72.5 1515,-284.5 1729,-284.5 1729,-72.5 1515,-72.5"/>
</g>
<!-- EAID_C6CA01B0_6B98_4097_8318_1B3A172EC54D -->
<g id="node13" class="node"><title>EAID_C6CA01B0_6B98_4097_8318_1B3A172EC54D</title>
<polygon fill="none" stroke="black" points="547,-251.5 547,-272.5 983,-272.5 983,-251.5 547,-251.5"/>
<text text-anchor="start" x="654" y="-259.3" font-family="Times New Roman,serif" font-weight="bold" font-size="14.00">Sensor Product Configuration Form</text>
<polygon fill="none" stroke="black" points="547,-230.5 547,-251.5 983,-251.5 983,-230.5 547,-230.5"/>
<text text-anchor="start" x="696.5" y="-238.3" font-family="Times New Roman,serif" font-weight="bold" font-size="14.00">EAJava_string Config</text>
<polygon fill="none" stroke="black" points="547,-209.5 547,-230.5 983,-230.5 983,-209.5 547,-209.5"/>
<text text-anchor="start" x="707" y="-217.3" font-family="Times New Roman,serif" font-weight="bold" font-size="14.00">EAJava_date Date</text>
<polygon fill="none" stroke="black" points="547,-188.5 547,-209.5 983,-209.5 983,-188.5 547,-188.5"/>
<text text-anchor="start" x="704.5" y="-196.3" font-family="Times New Roman,serif" font-weight="bold" font-size="14.00">EAJava_float Price</text>
<polygon fill="none" stroke="black" points="547,-167.5 547,-188.5 983,-188.5 983,-167.5 547,-167.5"/>
<text text-anchor="start" x="700" y="-175.3" font-family="Times New Roman,serif" font-weight="bold" font-size="14.00">EAJava_int Quantity</text>
<polygon fill="none" stroke="black" points="547,-146.5 547,-167.5 983,-167.5 983,-146.5 547,-146.5"/>
<text text-anchor="start" x="673.5" y="-154.3" font-family="Times New Roman,serif" font-weight="bold" font-size="14.00">EAJava_int SensorProductID</text>
<polygon fill="none" stroke="black" points="547,-125.5 547,-146.5 983,-146.5 983,-125.5 547,-125.5"/>
<text text-anchor="start" x="704.5" y="-133.3" font-family="Times New Roman,serif" font-weight="bold" font-size="14.00">EAJava_int UserID</text>
<polygon fill="none" stroke="black" points="547,-104.5 547,-125.5 983,-125.5 983,-104.5 547,-104.5"/>
<text text-anchor="start" x="655" y="-112.3" font-family="Times New Roman,serif" font-weight="bold" font-size="14.00">SensorProductConfigurationForm()</text>
<polygon fill="none" stroke="black" points="547,-83.5 547,-104.5 983,-104.5 983,-83.5 547,-83.5"/>
<text text-anchor="start" x="550" y="-91.3" font-family="Times New Roman,serif" font-weight="bold" font-size="14.00">validateauthenticationinformationandchecksthevalidationofthesensor()</text>
<polygon fill="none" stroke="black" points="546,-83 546,-274 984,-274 984,-83 546,-83"/>
</g>
<!-- EAID_A1F4873A_C405_42a7_85F0_0AFD7AF6FD35 -->
<g id="node14" class="node"><title>EAID_A1F4873A_C405_42a7_85F0_0AFD7AF6FD35</title>
<polygon fill="none" stroke="black" points="294,-251.5 294,-272.5 511,-272.5 511,-251.5 294,-251.5"/>
<text text-anchor="start" x="361" y="-259.3" font-family="Times New Roman,serif" font-weight="bold" font-size="14.00">User Account</text>
<polygon fill="none" stroke="black" points="294,-230.5 294,-251.5 511,-251.5 511,-230.5 294,-230.5"/>
<text text-anchor="start" x="322.5" y="-238.3" font-family="Times New Roman,serif" font-weight="bold" font-size="14.00">EAJava_string UserEmail</text>
<polygon fill="none" stroke="black" points="294,-209.5 294,-230.5 511,-230.5 511,-209.5 294,-209.5"/>
<text text-anchor="start" x="322.5" y="-217.3" font-family="Times New Roman,serif" font-weight="bold" font-size="14.00">EAJava_string UserName</text>
<polygon fill="none" stroke="black" points="294,-188.5 294,-209.5 511,-209.5 511,-188.5 294,-188.5"/>
<text text-anchor="start" x="310.5" y="-196.3" font-family="Times New Roman,serif" font-weight="bold" font-size="14.00">EAJava_string UserPassword</text>
<polygon fill="none" stroke="black" points="294,-167.5 294,-188.5 511,-188.5 511,-167.5 294,-167.5"/>
<text text-anchor="start" x="297" y="-175.3" font-family="Times New Roman,serif" font-weight="bold" font-size="14.00">EAJava_date UserRegisteredDate</text>
<polygon fill="none" stroke="black" points="294,-146.5 294,-167.5 511,-167.5 511,-146.5 294,-146.5"/>
<text text-anchor="start" x="325" y="-154.3" font-family="Times New Roman,serif" font-weight="bold" font-size="14.00">EAJava_string UserType</text>
<polygon fill="none" stroke="black" points="294,-125.5 294,-146.5 511,-146.5 511,-125.5 294,-125.5"/>
<text text-anchor="start" x="358.5" y="-133.3" font-family="Times New Roman,serif" font-weight="bold" font-size="14.00">UserAccount()</text>
<polygon fill="none" stroke="black" points="294,-104.5 294,-125.5 511,-125.5 511,-104.5 294,-104.5"/>
<text text-anchor="start" x="338" y="-112.3" font-family="Times New Roman,serif" font-weight="bold" font-size="14.00">Createaccountpage()</text>
<polygon fill="none" stroke="black" points="294,-83.5 294,-104.5 511,-104.5 511,-83.5 294,-83.5"/>
<text text-anchor="start" x="367.5" y="-91.3" font-family="Times New Roman,serif" font-weight="bold" font-size="14.00">contentdb()</text>
<polygon fill="none" stroke="black" points="292.5,-83 292.5,-274 511.5,-274 511.5,-83 292.5,-83"/>
</g>
</g>
</svg>
