<?xml version="1.0" encoding="UTF-8" standalone="no"?>
<!DOCTYPE svg PUBLIC "-//W3C//DTD SVG 1.1//EN"
 "http://www.w3.org/Graphics/SVG/1.1/DTD/svg11.dtd">
<!-- Generated by graphviz version 2.38.0 (20140413.2041)
 -->
<!-- Title: g Pages: 1 -->
<svg width="2873pt" height="291pt"
 viewBox="0.00 0.00 2873.00 291.00" xmlns="http://www.w3.org/2000/svg" xmlns:xlink="http://www.w3.org/1999/xlink">
<g id="graph0" class="graph" transform="scale(1 1) rotate(0) translate(4 287)">
<title>g</title>
<polygon fill="white" stroke="none" points="-4,4 -4,-287 2869,-287 2869,4 -4,4"/>
<!-- EAID_69AF8362_C8D4_4306_8ECB_AE250530ED04 -->
<g id="node1" class="node"><title>EAID_69AF8362_C8D4_4306_8ECB_AE250530ED04</title>
<image xlink:href="img/actor1.png" width="82px" height="90px" preserveAspectRatio="xMinYMin meet" x="21" y="-249.5"/>
<text text-anchor="start" x="10.5" y="-136.3" font-family="Times New Roman,serif" font-size="24.00">Supervisor</text>
</g>
<!-- EAID_D359A489_6839_4b41_B1D8_F78F1DB4E130 -->
<g id="node2" class="node"><title>EAID_D359A489_6839_4b41_B1D8_F78F1DB4E130</title>
<image xlink:href="img/boundary3.png" width="115px" height="67px" preserveAspectRatio="xMinYMin meet" x="2689.5" y="-276.5"/>
<text text-anchor="start" x="2638.5" y="-186.3" font-family="Times New Roman,serif" font-size="24.00">View Individual&#39;s page</text>
</g>
<!-- EAID_69AF8362_C8D4_4306_8ECB_AE250530ED04&#45;&gt;EAID_D359A489_6839_4b41_B1D8_F78F1DB4E130 -->
<g id="edge1" class="edge"><title>EAID_69AF8362_C8D4_4306_8ECB_AE250530ED04&#45;&gt;EAID_D359A489_6839_4b41_B1D8_F78F1DB4E130</title>
<path fill="none" stroke="black" d="M123.183,-216.377C134.882,-220.702 147.178,-224.678 159,-227.5 367.196,-277.205 424.452,-272.5 638.5,-272.5 638.5,-272.5 638.5,-272.5 2039,-272.5 2284.94,-272.5 2347.19,-275.982 2592,-252.5 2600.49,-251.686 2609.22,-250.707 2618,-249.617"/>
<polygon fill="black" stroke="black" points="2618.46,-253.087 2627.93,-248.341 2617.57,-246.144 2618.46,-253.087"/>
</g>
<!-- EAID_B5C5A791_21DD_43d4_A246_D20044BB2ADD -->
<g id="node3" class="node"><title>EAID_B5C5A791_21DD_43d4_A246_D20044BB2ADD</title>
<image xlink:href="img/boundary3.png" width="115px" height="67px" preserveAspectRatio="xMinYMin meet" x="943.5" y="-211.5"/>
<text text-anchor="start" x="888.5" y="-121.3" font-family="Times New Roman,serif" font-size="24.00">Add invidual form page</text>
</g>
<!-- EAID_69AF8362_C8D4_4306_8ECB_AE250530ED04&#45;&gt;EAID_B5C5A791_21DD_43d4_A246_D20044BB2ADD -->
<g id="edge2" class="edge"><title>EAID_69AF8362_C8D4_4306_8ECB_AE250530ED04&#45;&gt;EAID_B5C5A791_21DD_43d4_A246_D20044BB2ADD</title>
<path fill="none" stroke="black" d="M123.185,-204.705C134.992,-207.095 147.327,-209.202 159,-210.5 229.012,-218.285 805.35,-218.069 842,-212.5 850.537,-211.203 859.247,-209.531 867.972,-207.592"/>
<polygon fill="black" stroke="black" points="868.878,-210.975 877.821,-205.294 867.287,-204.158 868.878,-210.975"/>
</g>
<!-- EAID_0EC5E805_3D2E_4431_9C63_5636E13A0CB9 -->
<g id="node4" class="node"><title>EAID_0EC5E805_3D2E_4431_9C63_5636E13A0CB9</title>
<image xlink:href="img/boundary3.png" width="115px" height="67px" preserveAspectRatio="xMinYMin meet" x="222.5" y="-195.5"/>
<text text-anchor="start" x="169" y="-105.3" font-family="Times New Roman,serif" font-size="24.00">&quot;add individual&quot; button</text>
</g>
<!-- EAID_69AF8362_C8D4_4306_8ECB_AE250530ED04&#45;&gt;EAID_0EC5E805_3D2E_4431_9C63_5636E13A0CB9 -->
<g id="edge3" class="edge"><title>EAID_69AF8362_C8D4_4306_8ECB_AE250530ED04&#45;&gt;EAID_0EC5E805_3D2E_4431_9C63_5636E13A0CB9</title>
<path fill="none" stroke="black" d="M123.095,-177.745C131.275,-176.158 139.909,-174.483 148.747,-172.769"/>
<polygon fill="black" stroke="black" points="149.648,-176.159 158.798,-170.819 148.315,-169.287 149.648,-176.159"/>
</g>
<!-- EAID_25C012D7_2FAF_49c5_861F_7280FF09E536 -->
<g id="node5" class="node"><title>EAID_25C012D7_2FAF_49c5_861F_7280FF09E536</title>
<image xlink:href="img/boundary3.png" width="115px" height="67px" preserveAspectRatio="xMinYMin meet" x="1499.5" y="-102.5"/>
<text text-anchor="start" x="1442.5" y="-12.3" font-family="Times New Roman,serif" font-size="24.00">invalidate error message</text>
</g>
<!-- EAID_69AF8362_C8D4_4306_8ECB_AE250530ED04&#45;&gt;EAID_25C012D7_2FAF_49c5_861F_7280FF09E536 -->
<g id="edge4" class="edge"><title>EAID_69AF8362_C8D4_4306_8ECB_AE250530ED04&#45;&gt;EAID_25C012D7_2FAF_49c5_861F_7280FF09E536</title>
<path fill="none" stroke="black" d="M108.344,-123.27C122.657,-107.532 139.797,-92.6651 159,-83.5 351.656,8.44994 425.026,-55.5 638.5,-55.5 638.5,-55.5 638.5,-55.5 1001.5,-55.5 1145.05,-55.5 1309.51,-55.1601 1421.72,-54.8767"/>
<polygon fill="black" stroke="black" points="1421.74,-58.3767 1431.73,-54.8512 1421.72,-51.3767 1421.74,-58.3767"/>
</g>
<!-- EAID_19CD672C_EAD7_462b_9F65_948F9AA8D161 -->
<g id="node7" class="node"><title>EAID_19CD672C_EAD7_462b_9F65_948F9AA8D161</title>
<image xlink:href="img/control1.png" width="106px" height="75px" preserveAspectRatio="xMinYMin meet" x="1185" y="-215.5"/>
<text text-anchor="start" x="1169" y="-117.3" font-family="Times New Roman,serif" font-size="24.00">validates input</text>
</g>
<!-- EAID_B5C5A791_21DD_43d4_A246_D20044BB2ADD&#45;&gt;EAID_19CD672C_EAD7_462b_9F65_948F9AA8D161 -->
<g id="edge6" class="edge"><title>EAID_B5C5A791_21DD_43d4_A246_D20044BB2ADD&#45;&gt;EAID_19CD672C_EAD7_462b_9F65_948F9AA8D161</title>
<path fill="none" stroke="black" d="M1123.04,-163.5C1131.68,-163.5 1140.29,-163.5 1148.68,-163.5"/>
<polygon fill="black" stroke="black" points="1148.8,-167 1158.8,-163.5 1148.8,-160 1148.8,-167"/>
</g>
<!-- EAID_41EB181D_2AF6_4d6e_9DCE_8697ACB8F8FC -->
<g id="node6" class="node"><title>EAID_41EB181D_2AF6_4d6e_9DCE_8697ACB8F8FC</title>
<image xlink:href="img/control1.png" width="106px" height="75px" preserveAspectRatio="xMinYMin meet" x="587" y="-197.5"/>
<text text-anchor="start" x="447.5" y="-99.3" font-family="Times New Roman,serif" font-size="24.00">redirects to the add individual form page</text>
</g>
<!-- EAID_0EC5E805_3D2E_4431_9C63_5636E13A0CB9&#45;&gt;EAID_41EB181D_2AF6_4d6e_9DCE_8697ACB8F8FC -->
<g id="edge5" class="edge"><title>EAID_0EC5E805_3D2E_4431_9C63_5636E13A0CB9&#45;&gt;EAID_41EB181D_2AF6_4d6e_9DCE_8697ACB8F8FC</title>
<path fill="none" stroke="black" d="M401.037,-146.828C409.42,-146.782 417.997,-146.734 426.682,-146.685"/>
<polygon fill="black" stroke="black" points="426.942,-150.184 436.922,-146.628 426.903,-143.184 426.942,-150.184"/>
</g>
<!-- EAID_41EB181D_2AF6_4d6e_9DCE_8697ACB8F8FC&#45;&gt;EAID_B5C5A791_21DD_43d4_A246_D20044BB2ADD -->
<g id="edge7" class="edge"><title>EAID_41EB181D_2AF6_4d6e_9DCE_8697ACB8F8FC&#45;&gt;EAID_B5C5A791_21DD_43d4_A246_D20044BB2ADD</title>
<path fill="none" stroke="black" d="M842.037,-155.605C850.673,-156.038 859.24,-156.467 867.656,-156.889"/>
<polygon fill="black" stroke="black" points="867.679,-160.395 877.842,-157.4 868.029,-153.404 867.679,-160.395"/>
</g>
<!-- EAID_19CD672C_EAD7_462b_9F65_948F9AA8D161&#45;&gt;EAID_25C012D7_2FAF_49c5_861F_7280FF09E536 -->
<g id="edge13" class="edge"><title>EAID_19CD672C_EAD7_462b_9F65_948F9AA8D161&#45;&gt;EAID_25C012D7_2FAF_49c5_861F_7280FF09E536</title>
<path fill="none" stroke="black" d="M1317.17,-130.976C1329.11,-126.293 1341.34,-121.658 1353,-117.5 1375.25,-109.565 1399.07,-101.65 1422.27,-94.2436"/>
<polygon fill="black" stroke="black" points="1423.34,-97.5741 1431.82,-91.2126 1421.23,-90.9022 1423.34,-97.5741"/>
</g>
<!-- EAID_B85882DF_5739_4629_BCE2_31314647942C -->
<g id="node8" class="node"><title>EAID_B85882DF_5739_4629_BCE2_31314647942C</title>
<image xlink:href="img/control1.png" width="106px" height="75px" preserveAspectRatio="xMinYMin meet" x="1504" y="-237.5"/>
<text text-anchor="start" x="1363.5" y="-139.3" font-family="Times New Roman,serif" font-size="24.00">Insert the new individual&#39;s record into db</text>
</g>
<!-- EAID_19CD672C_EAD7_462b_9F65_948F9AA8D161&#45;&gt;EAID_B85882DF_5739_4629_BCE2_31314647942C -->
<g id="edge10" class="edge"><title>EAID_19CD672C_EAD7_462b_9F65_948F9AA8D161&#45;&gt;EAID_B85882DF_5739_4629_BCE2_31314647942C</title>
<path fill="none" stroke="black" d="M1317.24,-168.938C1325.42,-169.507 1333.98,-170.102 1342.81,-170.716"/>
<polygon fill="black" stroke="black" points="1342.65,-174.213 1352.87,-171.415 1343.14,-167.23 1342.65,-174.213"/>
</g>
<!-- EAID_123F12E7_3320_45b0_9D55_052B28BE1795 -->
<g id="node9" class="node"><title>EAID_123F12E7_3320_45b0_9D55_052B28BE1795</title>
<image xlink:href="img/control1.png" width="106px" height="75px" preserveAspectRatio="xMinYMin meet" x="1985" y="-237.5"/>
<text text-anchor="start" x="1806" y="-139.3" font-family="Times New Roman,serif" font-size="24.00">generate one time pass (OTP) and send it to users</text>
</g>
<!-- EAID_B85882DF_5739_4629_BCE2_31314647942C&#45;&gt;EAID_123F12E7_3320_45b0_9D55_052B28BE1795 -->
<g id="edge8" class="edge"><title>EAID_B85882DF_5739_4629_BCE2_31314647942C&#45;&gt;EAID_123F12E7_3320_45b0_9D55_052B28BE1795</title>
<path fill="none" stroke="black" d="M1760.16,-185.5C1768.61,-185.5 1777.12,-185.5 1785.65,-185.5"/>
<polygon fill="black" stroke="black" points="1785.68,-189 1795.68,-185.5 1785.68,-182 1785.68,-189"/>
</g>
<!-- EAID_F95FA5BB_F0A7_432e_92D3_439A8933B48C -->
<g id="node10" class="node"><title>EAID_F95FA5BB_F0A7_432e_92D3_439A8933B48C</title>
<image xlink:href="img/activity_icon.png" width="30px" height="20px" preserveAspectRatio="xMinYMin meet" x="2023.5" y="-102.5"/>
<text text-anchor="start" x="1928" y="-60.3" font-family="Times New Roman,serif" font-weight="bold" font-size="24.00">individuals record db</text>
</g>
<!-- EAID_B85882DF_5739_4629_BCE2_31314647942C&#45;&gt;EAID_F95FA5BB_F0A7_432e_92D3_439A8933B48C -->
<g id="edge9" class="edge"><title>EAID_B85882DF_5739_4629_BCE2_31314647942C&#45;&gt;EAID_F95FA5BB_F0A7_432e_92D3_439A8933B48C</title>
<path fill="none" stroke="black" d="M1756.5,-126.952C1769.83,-123.591 1783.08,-120.404 1796,-117.5 1831.84,-109.444 1871.01,-102.261 1907.16,-96.2817"/>
<polygon fill="black" stroke="black" points="1907.97,-99.6964 1917.27,-94.6276 1906.84,-92.7882 1907.97,-99.6964"/>
</g>
<!-- EAID_8553A707_B15A_4dc1_A184_55F9EA685CA6 -->
<g id="node11" class="node"><title>EAID_8553A707_B15A_4dc1_A184_55F9EA685CA6</title>
<image xlink:href="img/control1.png" width="106px" height="75px" preserveAspectRatio="xMinYMin meet" x="2401" y="-237.5"/>
<text text-anchor="start" x="2326" y="-139.3" font-family="Times New Roman,serif" font-size="24.00">redirect to individua&#39;s page</text>
</g>
<!-- EAID_123F12E7_3320_45b0_9D55_052B28BE1795&#45;&gt;EAID_8553A707_B15A_4dc1_A184_55F9EA685CA6 -->
<g id="edge12" class="edge"><title>EAID_123F12E7_3320_45b0_9D55_052B28BE1795&#45;&gt;EAID_8553A707_B15A_4dc1_A184_55F9EA685CA6</title>
<path fill="none" stroke="black" d="M2280.13,-185.5C2288.78,-185.5 2297.35,-185.5 2305.77,-185.5"/>
<polygon fill="black" stroke="black" points="2305.97,-189 2315.97,-185.5 2305.97,-182 2305.97,-189"/>
</g>
<!-- EAID_8553A707_B15A_4dc1_A184_55F9EA685CA6&#45;&gt;EAID_D359A489_6839_4b41_B1D8_F78F1DB4E130 -->
<g id="edge11" class="edge"><title>EAID_8553A707_B15A_4dc1_A184_55F9EA685CA6&#45;&gt;EAID_D359A489_6839_4b41_B1D8_F78F1DB4E130</title>
<path fill="none" stroke="black" d="M2592.17,-205.804C2600.72,-207.07 2609.31,-208.341 2617.82,-209.601"/>
<polygon fill="black" stroke="black" points="2617.36,-213.071 2627.76,-211.073 2618.38,-206.146 2617.36,-213.071"/>
</g>
</g>
</svg>
