<?xml version="1.0" encoding="UTF-8" standalone="no"?>
<!DOCTYPE svg PUBLIC "-//W3C//DTD SVG 1.1//EN"
 "http://www.w3.org/Graphics/SVG/1.1/DTD/svg11.dtd">
<!-- Generated by graphviz version 2.38.0 (20140413.2041)
 -->
<!-- Title: g Pages: 1 -->
<svg width="2043pt" height="360pt"
 viewBox="0.00 0.00 2043.00 359.50" xmlns="http://www.w3.org/2000/svg" xmlns:xlink="http://www.w3.org/1999/xlink">
<g id="graph0" class="graph" transform="scale(1 1) rotate(0) translate(4 355.5)">
<title>g</title>
<polygon fill="white" stroke="none" points="-4,4 -4,-355.5 2039,-355.5 2039,4 -4,4"/>
<!-- EAID_17B1304C_BE0D_4e83_8804_E1FE022B0285 -->
<g id="node1" class="node"><title>EAID_17B1304C_BE0D_4e83_8804_E1FE022B0285</title>
<image xlink:href="img/actor1.png" width="82px" height="90px" preserveAspectRatio="xMinYMin meet" x="32" y="-286"/>
<text text-anchor="start" x="10" y="-172.8" font-family="Times New Roman,serif" font-size="24.00">administrator</text>
</g>
<!-- EAID_7339D4C1_5CBB_49ea_8FF4_94066F171877 -->
<g id="node2" class="node"><title>EAID_7339D4C1_5CBB_49ea_8FF4_94066F171877</title>
<image xlink:href="img/boundary3.png" width="115px" height="67px" preserveAspectRatio="xMinYMin meet" x="1175.5" y="-274"/>
<text text-anchor="start" x="1142.5" y="-183.8" font-family="Times New Roman,serif" font-size="24.00">survey import page</text>
</g>
<!-- EAID_17B1304C_BE0D_4e83_8804_E1FE022B0285&#45;&gt;EAID_7339D4C1_5CBB_49ea_8FF4_94066F171877 -->
<g id="edge1" class="edge"><title>EAID_17B1304C_BE0D_4e83_8804_E1FE022B0285&#45;&gt;EAID_7339D4C1_5CBB_49ea_8FF4_94066F171877</title>
<path fill="none" stroke="black" d="M146.407,-226C342.821,-226 886.654,-226 1121.34,-226"/>
<polygon fill="black" stroke="black" points="1121.6,-229.5 1131.6,-226 1121.6,-222.5 1121.6,-229.5"/>
</g>
<!-- EAID_A168B62D_56D8_4b41_99ED_869C031B2F2E -->
<g id="node3" class="node"><title>EAID_A168B62D_56D8_4b41_99ED_869C031B2F2E</title>
<image xlink:href="img/boundary3.png" width="115px" height="67px" preserveAspectRatio="xMinYMin meet" x="1902.5" y="-345"/>
<text text-anchor="start" x="1895" y="-254.8" font-family="Times New Roman,serif" font-size="24.00">error message</text>
</g>
<!-- EAID_17B1304C_BE0D_4e83_8804_E1FE022B0285&#45;&gt;EAID_A168B62D_56D8_4b41_99ED_869C031B2F2E -->
<g id="edge2" class="edge"><title>EAID_17B1304C_BE0D_4e83_8804_E1FE022B0285&#45;&gt;EAID_A168B62D_56D8_4b41_99ED_869C031B2F2E</title>
<path fill="none" stroke="black" d="M146.137,-257.272C231.377,-291.326 378.288,-341 510,-341 510,-341 510,-341 1479.5,-341 1643.96,-341 1686.02,-343.045 1849,-321 1857.35,-319.87 1866.01,-318.44 1874.64,-316.842"/>
<polygon fill="black" stroke="black" points="1875.58,-320.227 1884.73,-314.898 1874.25,-313.353 1875.58,-320.227"/>
</g>
<!-- EAID_4EAA155E_4FDC_421d_9E93_AF3DBDBEBF7B -->
<g id="node4" class="node"><title>EAID_4EAA155E_4FDC_421d_9E93_AF3DBDBEBF7B</title>
<image xlink:href="img/boundary3.png" width="115px" height="67px" preserveAspectRatio="xMinYMin meet" x="207.5" y="-189"/>
<text text-anchor="start" x="192" y="-98.8" font-family="Times New Roman,serif" font-size="24.00">survey list page</text>
</g>
<!-- EAID_17B1304C_BE0D_4e83_8804_E1FE022B0285&#45;&gt;EAID_4EAA155E_4FDC_421d_9E93_AF3DBDBEBF7B -->
<g id="edge3" class="edge"><title>EAID_17B1304C_BE0D_4e83_8804_E1FE022B0285&#45;&gt;EAID_4EAA155E_4FDC_421d_9E93_AF3DBDBEBF7B</title>
<path fill="none" stroke="black" d="M146.102,-193.744C154.75,-189.875 163.668,-185.885 172.544,-181.914"/>
<polygon fill="black" stroke="black" points="174.068,-185.067 181.767,-177.789 171.209,-178.677 174.068,-185.067"/>
</g>
<!-- EAID_8525CEFE_8154_4386_9DB5_52FF45A9ECFA -->
<g id="node5" class="node"><title>EAID_8525CEFE_8154_4386_9DB5_52FF45A9ECFA</title>
<image xlink:href="img/control1.png" width="106px" height="75px" preserveAspectRatio="xMinYMin meet" x="1426" y="-278"/>
<text text-anchor="start" x="1379.5" y="-179.8" font-family="Times New Roman,serif" font-size="24.00">retrieve survey detail</text>
</g>
<!-- EAID_7339D4C1_5CBB_49ea_8FF4_94066F171877&#45;&gt;EAID_8525CEFE_8154_4386_9DB5_52FF45A9ECFA -->
<g id="edge11" class="edge"><title>EAID_7339D4C1_5CBB_49ea_8FF4_94066F171877&#45;&gt;EAID_8525CEFE_8154_4386_9DB5_52FF45A9ECFA</title>
<path fill="none" stroke="black" d="M1333.1,-226C1341.53,-226 1350.1,-226 1358.66,-226"/>
<polygon fill="black" stroke="black" points="1358.68,-229.5 1368.68,-226 1358.68,-222.5 1358.68,-229.5"/>
</g>
<!-- EAID_A704E20F_27BD_4a4b_A343_BFCB475EA86F -->
<g id="node9" class="node"><title>EAID_A704E20F_27BD_4a4b_A343_BFCB475EA86F</title>
<image xlink:href="img/control1.png" width="106px" height="75px" preserveAspectRatio="xMinYMin meet" x="458" y="-191"/>
<text text-anchor="start" x="394" y="-92.8" font-family="Times New Roman,serif" font-size="24.00">retrieve the survey detail</text>
</g>
<!-- EAID_4EAA155E_4FDC_421d_9E93_AF3DBDBEBF7B&#45;&gt;EAID_A704E20F_27BD_4a4b_A343_BFCB475EA86F -->
<g id="edge13" class="edge"><title>EAID_4EAA155E_4FDC_421d_9E93_AF3DBDBEBF7B&#45;&gt;EAID_A704E20F_27BD_4a4b_A343_BFCB475EA86F</title>
<path fill="none" stroke="black" d="M348.267,-140.326C356.521,-140.258 365.046,-140.188 373.669,-140.117"/>
<polygon fill="black" stroke="black" points="373.855,-143.616 383.825,-140.034 373.797,-136.616 373.855,-143.616"/>
</g>
<!-- EAID_AC737CD0_7F48_4232_B375_F0E46AEA457B -->
<g id="node6" class="node"><title>EAID_AC737CD0_7F48_4232_B375_F0E46AEA457B</title>
<image xlink:href="img/actor1.png" width="82px" height="90px" preserveAspectRatio="xMinYMin meet" x="1695.5" y="-171"/>
<text text-anchor="start" x="1665.5" y="-57.8" font-family="Times New Roman,serif" font-size="24.00">survey monkey</text>
</g>
<!-- EAID_8525CEFE_8154_4386_9DB5_52FF45A9ECFA&#45;&gt;EAID_AC737CD0_7F48_4232_B375_F0E46AEA457B -->
<g id="edge4" class="edge"><title>EAID_8525CEFE_8154_4386_9DB5_52FF45A9ECFA&#45;&gt;EAID_AC737CD0_7F48_4232_B375_F0E46AEA457B</title>
<path fill="none" stroke="black" d="M1588.07,-177.23C1607.3,-168.589 1627.14,-159.678 1645.78,-151.304"/>
<polygon fill="black" stroke="black" points="1647.43,-154.4 1655.12,-147.109 1644.56,-148.014 1647.43,-154.4"/>
</g>
<!-- EAID_2B1683A5_8A92_4faa_9BCD_ACFA226315CE -->
<g id="node10" class="node"><title>EAID_2B1683A5_8A92_4faa_9BCD_ACFA226315CE</title>
<image xlink:href="img/control1.png" width="106px" height="75px" preserveAspectRatio="xMinYMin meet" x="1684" y="-306"/>
<text text-anchor="start" x="1634.5" y="-207.8" font-family="Times New Roman,serif" font-size="24.00">prompt error message</text>
</g>
<!-- EAID_8525CEFE_8154_4386_9DB5_52FF45A9ECFA&#45;&gt;EAID_2B1683A5_8A92_4faa_9BCD_ACFA226315CE -->
<g id="edge10" class="edge"><title>EAID_8525CEFE_8154_4386_9DB5_52FF45A9ECFA&#45;&gt;EAID_2B1683A5_8A92_4faa_9BCD_ACFA226315CE</title>
<path fill="none" stroke="black" d="M1588.07,-237.875C1596.59,-238.807 1605.23,-239.751 1613.83,-240.692"/>
<polygon fill="black" stroke="black" points="1613.58,-244.185 1623.9,-241.794 1614.34,-237.227 1613.58,-244.185"/>
</g>
<!-- EAID_AA40710B_BB41_402e_A6FA_308FD8A5A8D1 -->
<g id="node7" class="node"><title>EAID_AA40710B_BB41_402e_A6FA_308FD8A5A8D1</title>
<image xlink:href="img/control1.png" width="106px" height="75px" preserveAspectRatio="xMinYMin meet" x="832" y="-191"/>
<text text-anchor="start" x="684" y="-92.8" font-family="Times New Roman,serif" font-size="24.00">check survey and insert to data to database</text>
</g>
<!-- EAID_AA40710B_BB41_402e_A6FA_308FD8A5A8D1&#45;&gt;EAID_7339D4C1_5CBB_49ea_8FF4_94066F171877 -->
<g id="edge6" class="edge"><title>EAID_AA40710B_BB41_402e_A6FA_308FD8A5A8D1&#45;&gt;EAID_7339D4C1_5CBB_49ea_8FF4_94066F171877</title>
<path fill="none" stroke="black" d="M1096.44,-191.99C1105.05,-194.159 1113.53,-196.295 1121.79,-198.375"/>
<polygon fill="black" stroke="black" points="1121.2,-201.835 1131.75,-200.883 1122.91,-195.047 1121.2,-201.835"/>
</g>
<!-- EAID_AA40710B_BB41_402e_A6FA_308FD8A5A8D1&#45;&gt;EAID_AC737CD0_7F48_4232_B375_F0E46AEA457B -->
<g id="edge5" class="edge"><title>EAID_AA40710B_BB41_402e_A6FA_308FD8A5A8D1&#45;&gt;EAID_AC737CD0_7F48_4232_B375_F0E46AEA457B</title>
<path fill="none" stroke="black" d="M1096.26,-132.07C1272.43,-126.263 1515.34,-118.257 1645.12,-113.979"/>
<polygon fill="black" stroke="black" points="1645.54,-117.467 1655.42,-113.64 1645.31,-110.471 1645.54,-117.467"/>
</g>
<!-- EAID_AE5E890F_3069_442e_9CCC_A1933609350B -->
<g id="node8" class="node"><title>EAID_AE5E890F_3069_442e_9CCC_A1933609350B</title>
<image xlink:href="img/activity_icon.png" width="30px" height="20px" preserveAspectRatio="xMinYMin meet" x="1217.5" y="-105"/>
<text text-anchor="start" x="1150.5" y="-62.8" font-family="Times New Roman,serif" font-weight="bold" font-size="24.00">survey database</text>
</g>
<!-- EAID_AA40710B_BB41_402e_A6FA_308FD8A5A8D1&#45;&gt;EAID_AE5E890F_3069_442e_9CCC_A1933609350B -->
<g id="edge7" class="edge"><title>EAID_AA40710B_BB41_402e_A6FA_308FD8A5A8D1&#45;&gt;EAID_AE5E890F_3069_442e_9CCC_A1933609350B</title>
<path fill="none" stroke="black" d="M1096.44,-103.064C1108.09,-101.075 1119.5,-99.1264 1130.44,-97.2576"/>
<polygon fill="black" stroke="black" points="1131.09,-100.698 1140.35,-95.5649 1129.91,-93.7982 1131.09,-100.698"/>
</g>
<!-- EAID_A704E20F_27BD_4a4b_A343_BFCB475EA86F&#45;&gt;EAID_AA40710B_BB41_402e_A6FA_308FD8A5A8D1 -->
<g id="edge8" class="edge"><title>EAID_A704E20F_27BD_4a4b_A343_BFCB475EA86F&#45;&gt;EAID_AA40710B_BB41_402e_A6FA_308FD8A5A8D1</title>
<path fill="none" stroke="black" d="M638.202,-139C646.531,-139 655.04,-139 663.65,-139"/>
<polygon fill="black" stroke="black" points="663.8,-142.5 673.8,-139 663.8,-135.5 663.8,-142.5"/>
</g>
<!-- EAID_1AB1E68B_FEF1_4ec3_99C1_DF770D4733A5 -->
<g id="node11" class="node"><title>EAID_1AB1E68B_FEF1_4ec3_99C1_DF770D4733A5</title>
<image xlink:href="img/activity_icon.png" width="30px" height="20px" preserveAspectRatio="xMinYMin meet" x="870.5" y="-56"/>
<text text-anchor="start" x="820" y="-13.8" font-family="Times New Roman,serif" font-weight="bold" font-size="24.00">survey detail</text>
</g>
<!-- EAID_A704E20F_27BD_4a4b_A343_BFCB475EA86F&#45;&gt;EAID_1AB1E68B_FEF1_4ec3_99C1_DF770D4733A5 -->
<g id="edge12" class="edge"><title>EAID_A704E20F_27BD_4a4b_A343_BFCB475EA86F&#45;&gt;EAID_1AB1E68B_FEF1_4ec3_99C1_DF770D4733A5</title>
<path fill="none" stroke="black" d="M638.422,-82.9834C650.332,-78.6032 662.318,-74.5218 674,-71 714.448,-58.8056 760.444,-49.5472 799.058,-43.0248"/>
<polygon fill="black" stroke="black" points="799.93,-46.4282 809.224,-41.3417 798.787,-39.5222 799.93,-46.4282"/>
</g>
<!-- EAID_2B1683A5_8A92_4faa_9BCD_ACFA226315CE&#45;&gt;EAID_A168B62D_56D8_4b41_99ED_869C031B2F2E -->
<g id="edge9" class="edge"><title>EAID_2B1683A5_8A92_4faa_9BCD_ACFA226315CE&#45;&gt;EAID_A168B62D_56D8_4b41_99ED_869C031B2F2E</title>
<path fill="none" stroke="black" d="M1849.22,-275.689C1857.78,-277.351 1866.34,-279.011 1874.68,-280.631"/>
<polygon fill="black" stroke="black" points="1874.25,-284.113 1884.73,-282.583 1875.58,-277.241 1874.25,-284.113"/>
</g>
</g>
</svg>
