<?xml version="1.0" encoding="UTF-8" standalone="no"?>
<!DOCTYPE svg PUBLIC "-//W3C//DTD SVG 1.1//EN"
 "http://www.w3.org/Graphics/SVG/1.1/DTD/svg11.dtd">
<!-- Generated by graphviz version 2.38.0 (20140413.2041)
 -->
<!-- Title: g Pages: 1 -->
<svg width="3353pt" height="165pt"
 viewBox="0.00 0.00 3352.50 165.00" xmlns="http://www.w3.org/2000/svg" xmlns:xlink="http://www.w3.org/1999/xlink">
<g id="graph0" class="graph" transform="scale(1 1) rotate(0) translate(4 161)">
<title>g</title>
<polygon fill="white" stroke="none" points="-4,4 -4,-161 3348.5,-161 3348.5,4 -4,4"/>
<!-- EAID_ADA8B8C4_FDDA_4824_B4E0_596BE390E8CC -->
<g id="node1" class="node"><title>EAID_ADA8B8C4_FDDA_4824_B4E0_596BE390E8CC</title>
<polygon fill="none" stroke="black" points="9,-130.5 9,-151.5 311,-151.5 311,-130.5 9,-130.5"/>
<text text-anchor="start" x="65.5" y="-138.3" font-family="Times New Roman,serif" font-weight="bold" font-size="14.00">Application Server Component</text>
<polygon fill="none" stroke="black" points="9,-109.5 9,-130.5 311,-130.5 311,-109.5 9,-109.5"/>
<text text-anchor="start" x="65" y="-117.3" font-family="Times New Roman,serif" font-weight="bold" font-size="14.00">ApplicationServerComponent()</text>
<polygon fill="none" stroke="black" points="9,-88.5 9,-109.5 311,-109.5 311,-88.5 9,-88.5"/>
<text text-anchor="start" x="91.5" y="-96.3" font-family="Times New Roman,serif" font-weight="bold" font-size="14.00">ClickContinuebutton()</text>
<polygon fill="none" stroke="black" points="9,-67.5 9,-88.5 311,-88.5 311,-67.5 9,-67.5"/>
<text text-anchor="start" x="51.5" y="-75.3" font-family="Times New Roman,serif" font-weight="bold" font-size="14.00">ClickSelectanotherscenariobutton()</text>
<polygon fill="none" stroke="black" points="9,-46.5 9,-67.5 311,-67.5 311,-46.5 9,-46.5"/>
<text text-anchor="start" x="72.5" y="-54.3" font-family="Times New Roman,serif" font-weight="bold" font-size="14.00">Showsdatabaseinformation()</text>
<polygon fill="none" stroke="black" points="9,-25.5 9,-46.5 311,-46.5 311,-25.5 9,-25.5"/>
<text text-anchor="start" x="12" y="-33.3" font-family="Times New Roman,serif" font-weight="bold" font-size="14.00">Returnsstaffmembertocombatconflictfrontpage()</text>
<polygon fill="none" stroke="black" points="9,-4.5 9,-25.5 311,-25.5 311,-4.5 9,-4.5"/>
<text text-anchor="start" x="42.5" y="-12.3" font-family="Times New Roman,serif" font-weight="bold" font-size="14.00">ClickonCivilianorveteranradiobutton()</text>
<polygon fill="none" stroke="black" points="8,-4 8,-153 312,-153 312,-4 8,-4"/>
</g>
<!-- EAID_9AB8E857_9F6F_4749_9C01_58738156BBC4 -->
<g id="node2" class="node"><title>EAID_9AB8E857_9F6F_4749_9C01_58738156BBC4</title>
<polygon fill="none" stroke="black" points="348,-88.5 348,-109.5 683,-109.5 683,-88.5 348,-88.5"/>
<text text-anchor="start" x="489" y="-96.3" font-family="Times New Roman,serif" font-weight="bold" font-size="14.00">Browser</text>
<polygon fill="none" stroke="black" points="348,-67.5 348,-88.5 683,-88.5 683,-67.5 348,-67.5"/>
<text text-anchor="start" x="484.5" y="-75.3" font-family="Times New Roman,serif" font-weight="bold" font-size="14.00">Browser()</text>
<polygon fill="none" stroke="black" points="348,-46.5 348,-67.5 683,-67.5 683,-46.5 348,-46.5"/>
<text text-anchor="start" x="351" y="-54.3" font-family="Times New Roman,serif" font-weight="bold" font-size="14.00">Browseralertsuserthattheyhavenotselectedanyoption()</text>
<polygon fill="none" stroke="black" points="346.5,-46 346.5,-111 683.5,-111 683.5,-46 346.5,-46"/>
</g>
<!-- EAID_80B25E7C_830C_4d2d_9474_9E6B4F0E5ECD -->
<g id="node3" class="node"><title>EAID_80B25E7C_830C_4d2d_9474_9E6B4F0E5ECD</title>
<polygon fill="none" stroke="black" points="719,-78.5 719,-99.5 777,-99.5 777,-78.5 719,-78.5"/>
<text text-anchor="start" x="726.5" y="-86.3" font-family="Times New Roman,serif" font-weight="bold" font-size="14.00">DBMS</text>
<polygon fill="none" stroke="black" points="719,-57.5 719,-78.5 777,-78.5 777,-57.5 719,-57.5"/>
<text text-anchor="start" x="722" y="-65.3" font-family="Times New Roman,serif" font-weight="bold" font-size="14.00">DBMS()</text>
<polygon fill="none" stroke="black" points="718,-56.5 718,-100.5 778,-100.5 778,-56.5 718,-56.5"/>
</g>
<!-- EAID_7309E4D4_E230_4b7a_8D06_356402E9D250 -->
<g id="node4" class="node"><title>EAID_7309E4D4_E230_4b7a_8D06_356402E9D250</title>
<polygon fill="none" stroke="black" points="814,-78.5 814,-99.5 897,-99.5 897,-78.5 814,-78.5"/>
<text text-anchor="start" x="819.5" y="-86.3" font-family="Times New Roman,serif" font-weight="bold" font-size="14.00">ELC server</text>
<polygon fill="none" stroke="black" points="814,-57.5 814,-78.5 897,-78.5 897,-57.5 814,-57.5"/>
<text text-anchor="start" x="817" y="-65.3" font-family="Times New Roman,serif" font-weight="bold" font-size="14.00">ELCserver()</text>
<polygon fill="none" stroke="black" points="812.5,-56.5 812.5,-100.5 897.5,-100.5 897.5,-56.5 812.5,-56.5"/>
</g>
<!-- EAID_A9B6C43A_4546_447b_9E94_D125F393D9A5 -->
<g id="node5" class="node"><title>EAID_A9B6C43A_4546_447b_9E94_D125F393D9A5</title>
<polygon fill="none" stroke="black" points="933,-88.5 933,-109.5 1207,-109.5 1207,-88.5 933,-88.5"/>
<text text-anchor="start" x="936" y="-96.3" font-family="Times New Roman,serif" font-weight="bold" font-size="14.00">Techinique Summary Generator component</text>
<polygon fill="none" stroke="black" points="933,-67.5 933,-88.5 1207,-88.5 1207,-67.5 933,-67.5"/>
<text text-anchor="start" x="937" y="-75.3" font-family="Times New Roman,serif" font-weight="bold" font-size="14.00">TechiniqueSummaryGeneratorcomponent()</text>
<polygon fill="none" stroke="black" points="933,-46.5 933,-67.5 1207,-67.5 1207,-46.5 933,-46.5"/>
<text text-anchor="start" x="969" y="-54.3" font-family="Times New Roman,serif" font-weight="bold" font-size="14.00">loadsCommunicationTechnique()</text>
<polygon fill="none" stroke="black" points="932,-46 932,-111 1208,-111 1208,-46 932,-46"/>
</g>
<!-- EAID_A36EE23B_5F7F_4869_AFA1_BC2696BC57B5 -->
<g id="node6" class="node"><title>EAID_A36EE23B_5F7F_4869_AFA1_BC2696BC57B5</title>
<polygon fill="none" stroke="black" points="1243,-88.5 1243,-109.5 1427,-109.5 1427,-88.5 1243,-88.5"/>
<text text-anchor="start" x="1289.5" y="-96.3" font-family="Times New Roman,serif" font-weight="bold" font-size="14.00">User computer</text>
<polygon fill="none" stroke="black" points="1243,-67.5 1243,-88.5 1427,-88.5 1427,-67.5 1243,-67.5"/>
<text text-anchor="start" x="1287" y="-75.3" font-family="Times New Roman,serif" font-weight="bold" font-size="14.00">Usercomputer()</text>
<polygon fill="none" stroke="black" points="1243,-46.5 1243,-67.5 1427,-67.5 1427,-46.5 1243,-46.5"/>
<text text-anchor="start" x="1246" y="-54.3" font-family="Times New Roman,serif" font-weight="bold" font-size="14.00">imputusenameandpassword()</text>
<polygon fill="none" stroke="black" points="1242,-46 1242,-111 1428,-111 1428,-46 1242,-46"/>
</g>
<!-- EAID_FB13E705_CEBD_4917_9CB1_28A74032A8EE -->
<g id="node7" class="node"><title>EAID_FB13E705_CEBD_4917_9CB1_28A74032A8EE</title>
<polygon fill="none" stroke="black" points="1464,-99.5 1464,-120.5 1661,-120.5 1661,-99.5 1464,-99.5"/>
<text text-anchor="start" x="1484" y="-107.3" font-family="Times New Roman,serif" font-weight="bold" font-size="14.00">User interface component</text>
<polygon fill="none" stroke="black" points="1464,-78.5 1464,-99.5 1661,-99.5 1661,-78.5 1464,-78.5"/>
<text text-anchor="start" x="1483" y="-86.3" font-family="Times New Roman,serif" font-weight="bold" font-size="14.00">Userinterfacecomponent()</text>
<polygon fill="none" stroke="black" points="1464,-57.5 1464,-78.5 1661,-78.5 1661,-57.5 1464,-57.5"/>
<text text-anchor="start" x="1474" y="-65.3" font-family="Times New Roman,serif" font-weight="bold" font-size="14.00">Responsesdeletedfromtable()</text>
<polygon fill="none" stroke="black" points="1464,-36.5 1464,-57.5 1661,-57.5 1661,-36.5 1464,-36.5"/>
<text text-anchor="start" x="1467" y="-44.3" font-family="Times New Roman,serif" font-weight="bold" font-size="14.00">Userreadsscenariodescription()</text>
<polygon fill="none" stroke="black" points="1462.5,-35.5 1462.5,-121.5 1661.5,-121.5 1661.5,-35.5 1462.5,-35.5"/>
</g>
<!-- EAID_D15F4AFA_3733_4e0f_AF1B_09CE7829BFCE -->
<g id="node8" class="node"><title>EAID_D15F4AFA_3733_4e0f_AF1B_09CE7829BFCE</title>
<polygon fill="none" stroke="black" points="1697,-78.5 1697,-99.5 1875,-99.5 1875,-78.5 1697,-78.5"/>
<text text-anchor="start" x="1701" y="-86.3" font-family="Times New Roman,serif" font-weight="bold" font-size="14.00">User submission component</text>
<polygon fill="none" stroke="black" points="1697,-57.5 1697,-78.5 1875,-78.5 1875,-57.5 1697,-57.5"/>
<text text-anchor="start" x="1700" y="-65.3" font-family="Times New Roman,serif" font-weight="bold" font-size="14.00">Usersubmissioncomponent()</text>
<polygon fill="none" stroke="black" points="1696,-56.5 1696,-100.5 1876,-100.5 1876,-56.5 1696,-56.5"/>
</g>
<!-- EAID_42C11CD2_1780_47f6_85F9_F8B9D6AE1EDD -->
<g id="node9" class="node"><title>EAID_42C11CD2_1780_47f6_85F9_F8B9D6AE1EDD</title>
<polygon fill="none" stroke="black" points="1912,-88.5 1912,-109.5 2061,-109.5 2061,-88.5 1912,-88.5"/>
<text text-anchor="start" x="1915.5" y="-96.3" font-family="Times New Roman,serif" font-weight="bold" font-size="14.00">Web server component</text>
<polygon fill="none" stroke="black" points="1912,-67.5 1912,-88.5 2061,-88.5 2061,-67.5 1912,-67.5"/>
<text text-anchor="start" x="1915" y="-75.3" font-family="Times New Roman,serif" font-weight="bold" font-size="14.00">Webservercomponent()</text>
<polygon fill="none" stroke="black" points="1912,-46.5 1912,-67.5 2061,-67.5 2061,-46.5 1912,-46.5"/>
<text text-anchor="start" x="1925" y="-54.3" font-family="Times New Roman,serif" font-weight="bold" font-size="14.00">givetheirresponses()</text>
<polygon fill="none" stroke="black" points="1910.5,-46 1910.5,-111 2061.5,-111 2061.5,-46 1910.5,-46"/>
</g>
<!-- EAID_F529ED8A_4003_49f2_8D61_F44EF409AED9 -->
<g id="node10" class="node"><title>EAID_F529ED8A_4003_49f2_8D61_F44EF409AED9</title>
<polygon fill="none" stroke="black" points="2097,-99.5 2097,-120.5 2217,-120.5 2217,-99.5 2097,-99.5"/>
<text text-anchor="start" x="2129.5" y="-107.3" font-family="Times New Roman,serif" font-weight="bold" font-size="14.00">webpage</text>
<polygon fill="none" stroke="black" points="2097,-78.5 2097,-99.5 2217,-99.5 2217,-78.5 2097,-78.5"/>
<text text-anchor="start" x="2125" y="-86.3" font-family="Times New Roman,serif" font-weight="bold" font-size="14.00">webpage()</text>
<polygon fill="none" stroke="black" points="2097,-57.5 2097,-78.5 2217,-78.5 2217,-57.5 2097,-57.5"/>
<text text-anchor="start" x="2119.5" y="-65.3" font-family="Times New Roman,serif" font-weight="bold" font-size="14.00">Homepage()</text>
<polygon fill="none" stroke="black" points="2097,-36.5 2097,-57.5 2217,-57.5 2217,-36.5 2097,-36.5"/>
<text text-anchor="start" x="2100" y="-44.3" font-family="Times New Roman,serif" font-weight="bold" font-size="14.00">selectspagetoedit()</text>
<polygon fill="none" stroke="black" points="2096,-35.5 2096,-121.5 2218,-121.5 2218,-35.5 2096,-35.5"/>
</g>
<!-- EAID_9D5D4119_DD80_4d03_9071_BCD05ADB70CC -->
<g id="node11" class="node"><title>EAID_9D5D4119_DD80_4d03_9071_BCD05ADB70CC</title>
<polygon fill="none" stroke="black" points="2253,-109.5 2253,-130.5 2539,-130.5 2539,-109.5 2253,-109.5"/>
<text text-anchor="start" x="2307.5" y="-117.3" font-family="Times New Roman,serif" font-weight="bold" font-size="14.00">webpage update compenonet</text>
<polygon fill="none" stroke="black" points="2253,-88.5 2253,-109.5 2539,-109.5 2539,-88.5 2253,-88.5"/>
<text text-anchor="start" x="2307" y="-96.3" font-family="Times New Roman,serif" font-weight="bold" font-size="14.00">webpageupdatecompenonet()</text>
<polygon fill="none" stroke="black" points="2253,-67.5 2253,-88.5 2539,-88.5 2539,-67.5 2253,-67.5"/>
<text text-anchor="start" x="2289.5" y="-75.3" font-family="Times New Roman,serif" font-weight="bold" font-size="14.00">Answersfrompagestoredascookie()</text>
<polygon fill="none" stroke="black" points="2253,-46.5 2253,-67.5 2539,-67.5 2539,-46.5 2253,-46.5"/>
<text text-anchor="start" x="2256" y="-54.3" font-family="Times New Roman,serif" font-weight="bold" font-size="14.00">Displaysmessagesayingpagehasbeenupdated()</text>
<polygon fill="none" stroke="black" points="2253,-25.5 2253,-46.5 2539,-46.5 2539,-25.5 2253,-25.5"/>
<text text-anchor="start" x="2300" y="-33.3" font-family="Times New Roman,serif" font-weight="bold" font-size="14.00">validateusenameandpassword()</text>
<polygon fill="none" stroke="black" points="2252,-25 2252,-132 2540,-132 2540,-25 2252,-25"/>
</g>
<!-- EAID_858ED478_D84E_4909_AE23_697FAD9F0FBD -->
<g id="node12" class="node"><title>EAID_858ED478_D84E_4909_AE23_697FAD9F0FBD</title>
<polygon fill="none" stroke="black" points="2576,-88.5 2576,-109.5 2795,-109.5 2795,-88.5 2576,-88.5"/>
<text text-anchor="start" x="2608.5" y="-96.3" font-family="Times New Roman,serif" font-weight="bold" font-size="14.00">storesanswersindatabase</text>
<polygon fill="none" stroke="black" points="2576,-67.5 2576,-88.5 2795,-88.5 2795,-67.5 2576,-67.5"/>
<text text-anchor="start" x="2604" y="-75.3" font-family="Times New Roman,serif" font-weight="bold" font-size="14.00">storesanswersindatabase()</text>
<polygon fill="none" stroke="black" points="2576,-46.5 2576,-67.5 2795,-67.5 2795,-46.5 2576,-46.5"/>
<text text-anchor="start" x="2579" y="-54.3" font-family="Times New Roman,serif" font-weight="bold" font-size="14.00">Answersfrompagestoredascookie()</text>
<polygon fill="none" stroke="black" points="2574.5,-46 2574.5,-111 2795.5,-111 2795.5,-46 2574.5,-46"/>
</g>
<!-- EAID_849EBA14_FD9D_4f4b_94B2_A72578FEC60F -->
<g id="node13" class="node"><title>EAID_849EBA14_FD9D_4f4b_94B2_A72578FEC60F</title>
<polygon fill="none" stroke="black" points="2831,-120.5 2831,-141.5 3036,-141.5 3036,-120.5 2831,-120.5"/>
<text text-anchor="start" x="2903" y="-128.3" font-family="Times New Roman,serif" font-weight="bold" font-size="14.00">clicksnext</text>
<polygon fill="none" stroke="black" points="2831,-99.5 2831,-120.5 3036,-120.5 3036,-99.5 2831,-99.5"/>
<text text-anchor="start" x="2898.5" y="-107.3" font-family="Times New Roman,serif" font-weight="bold" font-size="14.00">clicksnext()</text>
<polygon fill="none" stroke="black" points="2831,-78.5 2831,-99.5 3036,-99.5 3036,-78.5 2831,-78.5"/>
<text text-anchor="start" x="2834" y="-86.3" font-family="Times New Roman,serif" font-weight="bold" font-size="14.00">clicksonradiobuttonsofanswers()</text>
<polygon fill="none" stroke="black" points="2831,-57.5 2831,-78.5 3036,-78.5 3036,-57.5 2831,-57.5"/>
<text text-anchor="start" x="2865.5" y="-65.3" font-family="Times New Roman,serif" font-weight="bold" font-size="14.00">clickscontinuebutton()</text>
<polygon fill="none" stroke="black" points="2831,-36.5 2831,-57.5 3036,-57.5 3036,-36.5 2831,-36.5"/>
<text text-anchor="start" x="2869.5" y="-44.3" font-family="Times New Roman,serif" font-weight="bold" font-size="14.00">Clickonlogininpage()</text>
<polygon fill="none" stroke="black" points="2831,-15.5 2831,-36.5 3036,-36.5 3036,-15.5 2831,-15.5"/>
<text text-anchor="start" x="2874" y="-23.3" font-family="Times New Roman,serif" font-weight="bold" font-size="14.00">loadsnextscenario()</text>
<polygon fill="none" stroke="black" points="2829.5,-14.5 2829.5,-142.5 3036.5,-142.5 3036.5,-14.5 2829.5,-14.5"/>
</g>
<!-- EAID_04498241_3914_4eda_915A_53B2A1D41761 -->
<g id="node14" class="node"><title>EAID_04498241_3914_4eda_915A_53B2A1D41761</title>
<polygon fill="none" stroke="black" points="3072,-78.5 3072,-99.5 3245,-99.5 3245,-78.5 3072,-78.5"/>
<text text-anchor="start" x="3079.5" y="-86.3" font-family="Times New Roman,serif" font-weight="bold" font-size="14.00">displaysthankyoumessage</text>
<polygon fill="none" stroke="black" points="3072,-57.5 3072,-78.5 3245,-78.5 3245,-57.5 3072,-57.5"/>
<text text-anchor="start" x="3075" y="-65.3" font-family="Times New Roman,serif" font-weight="bold" font-size="14.00">displaysthankyoumessage()</text>
<polygon fill="none" stroke="black" points="3070.5,-56.5 3070.5,-100.5 3245.5,-100.5 3245.5,-56.5 3070.5,-56.5"/>
</g>
<!-- EAID_70C51150_796E_473f_AED3_04B8D1B04C08 -->
<g id="node15" class="node"><title>EAID_70C51150_796E_473f_AED3_04B8D1B04C08</title>
<polygon fill="none" stroke="black" points="3281,-67.5 3281,-88.5 3336,-88.5 3336,-67.5 3281,-67.5"/>
<text text-anchor="start" x="3284" y="-75.3" font-family="Times New Roman,serif" font-weight="bold" font-size="14.00">Object1</text>
<polygon fill="none" stroke="black" points="3279.5,-67 3279.5,-90 3336.5,-90 3336.5,-67 3279.5,-67"/>
</g>
</g>
</svg>
