<?xml version="1.0" encoding="UTF-8" standalone="no"?>
<!DOCTYPE svg PUBLIC "-//W3C//DTD SVG 1.1//EN"
 "http://www.w3.org/Graphics/SVG/1.1/DTD/svg11.dtd">
<!-- Generated by graphviz version 2.38.0 (20140413.2041)
 -->
<!-- Title: g Pages: 1 -->
<svg width="2643pt" height="721pt"
 viewBox="0.00 0.00 2643.00 721.00" xmlns="http://www.w3.org/2000/svg" xmlns:xlink="http://www.w3.org/1999/xlink">
<g id="graph0" class="graph" transform="scale(1 1) rotate(0) translate(4 717)">
<title>g</title>
<polygon fill="white" stroke="none" points="-4,4 -4,-717 2639,-717 2639,4 -4,4"/>
<g id="clust1" class="cluster"><title>cluster0</title>
<polygon fill="none" stroke="black" stroke-width="2" points="2036,-91 2036,-594 2499,-594 2499,-91 2036,-91"/>
<text text-anchor="start" x="2245.5" y="-579.8" font-family="Times New Roman,serif" font-weight="bold" font-size="14.00">System</text>
</g>
<g id="clust3" class="cluster"><title>cluster1000</title>
<polygon fill="none" stroke="black" stroke-width="2" points="8,-8 8,-83 2239,-83 2239,-8 8,-8"/>
<text text-anchor="start" x="1078" y="-68.8" font-family="Times New Roman,serif" font-weight="bold" font-size="14.00">Domain Model</text>
</g>
<g id="clust2" class="cluster"><title>cluster1</title>
<polygon fill="none" stroke="black" stroke-width="2" points="2075,-602 2075,-705 2627,-705 2627,-602 2075,-602"/>
<text text-anchor="start" x="2336.5" y="-690.8" font-family="Times New Roman,serif" font-weight="bold" font-size="14.00">User</text>
</g>
<!-- EAID_28DFBCB9_56DB_4fb8_8341_B9BB7AF5DDD5___EAID_99926B45_70E1_4c47_A808_6DC84402E056 -->
<g id="node1" class="node"><title>EAID_28DFBCB9_56DB_4fb8_8341_B9BB7AF5DDD5___EAID_99926B45_70E1_4c47_A808_6DC84402E056</title>
<image xlink:href="img/activity_icon.png" width="30px" height="20px" preserveAspectRatio="xMinYMin meet" x="2409" y="-357"/>
<text text-anchor="start" x="2367" y="-322.8" font-family="Times New Roman,serif" font-weight="bold" font-size="14.00">User:user list filter</text>
<text text-anchor="start" x="2413" y="-308.8" font-family="Times New Roman,serif" font-weight="bold" font-size="14.00">box</text>
</g>
<!-- EAID_99926B45_70E1_4c47_A808_6DC84402E056___EAID_E2364D8F_64A6_451f_9D46_772CE0E20809 -->
<g id="node5" class="node"><title>EAID_99926B45_70E1_4c47_A808_6DC84402E056___EAID_E2364D8F_64A6_451f_9D46_772CE0E20809</title>
<image xlink:href="img/activity_icon.png" width="30px" height="20px" preserveAspectRatio="xMinYMin meet" x="2327" y="-257"/>
<text text-anchor="start" x="2301" y="-222.8" font-family="Times New Roman,serif" font-weight="bold" font-size="14.00">user list filter</text>
<text text-anchor="start" x="2294" y="-208.8" font-family="Times New Roman,serif" font-weight="bold" font-size="14.00">box:Filter users</text>
</g>
<!-- EAID_28DFBCB9_56DB_4fb8_8341_B9BB7AF5DDD5___EAID_99926B45_70E1_4c47_A808_6DC84402E056&#45;&gt;EAID_99926B45_70E1_4c47_A808_6DC84402E056___EAID_E2364D8F_64A6_451f_9D46_772CE0E20809 -->
<g id="edge1" class="edge"><title>EAID_28DFBCB9_56DB_4fb8_8341_B9BB7AF5DDD5___EAID_99926B45_70E1_4c47_A808_6DC84402E056&#45;&gt;EAID_99926B45_70E1_4c47_A808_6DC84402E056___EAID_E2364D8F_64A6_451f_9D46_772CE0E20809</title>
<path fill="none" stroke="black" d="M2398.05,-298.992C2390.58,-290.055 2382.32,-280.191 2374.5,-270.842"/>
<polygon fill="black" stroke="black" points="2377.16,-268.566 2368.06,-263.142 2371.79,-273.058 2377.16,-268.566"/>
</g>
<!-- EAID_65C14CA6_B97E_44c6_AD66_8EACEA65ACC8 -->
<g id="node12" class="node"><title>EAID_65C14CA6_B97E_44c6_AD66_8EACEA65ACC8</title>
<polygon fill="none" stroke="black" points="2187,-23 2187,-44 2222,-44 2222,-23 2187,-23"/>
<text text-anchor="start" x="2190" y="-30.8" font-family="Times New Roman,serif" font-weight="bold" font-size="14.00">User</text>
<polygon fill="none" stroke="black" points="2185.5,-22.5 2185.5,-45.5 2222.5,-45.5 2222.5,-22.5 2185.5,-22.5"/>
</g>
<!-- EAID_28DFBCB9_56DB_4fb8_8341_B9BB7AF5DDD5___EAID_99926B45_70E1_4c47_A808_6DC84402E056&#45;&gt;EAID_65C14CA6_B97E_44c6_AD66_8EACEA65ACC8 -->
<g id="edge10" class="edge"><title>EAID_28DFBCB9_56DB_4fb8_8341_B9BB7AF5DDD5___EAID_99926B45_70E1_4c47_A808_6DC84402E056&#45;&gt;EAID_65C14CA6_B97E_44c6_AD66_8EACEA65ACC8</title>
<path fill="none" stroke="black" stroke-dasharray="5,2" d="M2356.67,-302.513C2320.24,-287.146 2281.37,-269.76 2275,-263 2221.32,-206.035 2208.2,-109.088 2205.01,-62.1121"/>
<polygon fill="black" stroke="black" points="2208.5,-61.8683 2204.43,-52.0868 2201.52,-62.272 2208.5,-61.8683"/>
</g>
<!-- EAID_28DFBCB9_56DB_4fb8_8341_B9BB7AF5DDD5___EAID_C27A1332_DE65_4837_B61E_830EED72E092 -->
<g id="node2" class="node"><title>EAID_28DFBCB9_56DB_4fb8_8341_B9BB7AF5DDD5___EAID_C27A1332_DE65_4837_B61E_830EED72E092</title>
<image xlink:href="img/activity_icon.png" width="30px" height="20px" preserveAspectRatio="xMinYMin meet" x="2134" y="-557"/>
<text text-anchor="start" x="2087" y="-522.8" font-family="Times New Roman,serif" font-weight="bold" font-size="14.00">User:Filtered List of</text>
<text text-anchor="start" x="2131.5" y="-508.8" font-family="Times New Roman,serif" font-weight="bold" font-size="14.00">Users</text>
</g>
<!-- EAID_28DFBCB9_56DB_4fb8_8341_B9BB7AF5DDD5___EAID_C27A1332_DE65_4837_B61E_830EED72E092&#45;&gt;EAID_65C14CA6_B97E_44c6_AD66_8EACEA65ACC8 -->
<g id="edge11" class="edge"><title>EAID_28DFBCB9_56DB_4fb8_8341_B9BB7AF5DDD5___EAID_C27A1332_DE65_4837_B61E_830EED72E092&#45;&gt;EAID_65C14CA6_B97E_44c6_AD66_8EACEA65ACC8</title>
<path fill="none" stroke="black" stroke-dasharray="5,2" d="M2096.3,-498.964C2046.06,-464.956 1978,-405.354 1978,-332 1978,-332 1978,-332 1978,-230 1978,-148.094 2026.54,-129.183 2099,-91 2126.31,-76.6079 2141.23,-98.3762 2168,-83 2177.12,-77.7632 2184.64,-69.1938 2190.41,-60.734"/>
<polygon fill="black" stroke="black" points="2193.47,-62.4415 2195.78,-52.1018 2187.53,-58.7433 2193.47,-62.4415"/>
</g>
<!-- EAID_28DFBCB9_56DB_4fb8_8341_B9BB7AF5DDD5___EAID_55A08FD3_D5D2_453a_8D9F_76DDFD784A35 -->
<g id="node3" class="node"><title>EAID_28DFBCB9_56DB_4fb8_8341_B9BB7AF5DDD5___EAID_55A08FD3_D5D2_453a_8D9F_76DDFD784A35</title>
<image xlink:href="img/activity_icon.png" width="30px" height="20px" preserveAspectRatio="xMinYMin meet" x="2341" y="-557"/>
<text text-anchor="start" x="2288" y="-522.8" font-family="Times New Roman,serif" font-weight="bold" font-size="14.00">User:Query Users List</text>
<text text-anchor="start" x="2335" y="-508.8" font-family="Times New Roman,serif" font-weight="bold" font-size="14.00">Button</text>
</g>
<!-- EAID_55A08FD3_D5D2_453a_8D9F_76DDFD784A35___EAID_F1966B12_A269_4a4e_9BB9_A9C18BE24D3A -->
<g id="node6" class="node"><title>EAID_55A08FD3_D5D2_453a_8D9F_76DDFD784A35___EAID_F1966B12_A269_4a4e_9BB9_A9C18BE24D3A</title>
<image xlink:href="img/activity_icon.png" width="30px" height="20px" preserveAspectRatio="xMinYMin meet" x="2180" y="-457"/>
<text text-anchor="start" x="2143" y="-422.8" font-family="Times New Roman,serif" font-weight="bold" font-size="14.00">Query Users List</text>
<text text-anchor="start" x="2129" y="-408.8" font-family="Times New Roman,serif" font-weight="bold" font-size="14.00">Button:query user list</text>
</g>
<!-- EAID_28DFBCB9_56DB_4fb8_8341_B9BB7AF5DDD5___EAID_55A08FD3_D5D2_453a_8D9F_76DDFD784A35&#45;&gt;EAID_55A08FD3_D5D2_453a_8D9F_76DDFD784A35___EAID_F1966B12_A269_4a4e_9BB9_A9C18BE24D3A -->
<g id="edge4" class="edge"><title>EAID_28DFBCB9_56DB_4fb8_8341_B9BB7AF5DDD5___EAID_55A08FD3_D5D2_453a_8D9F_76DDFD784A35&#45;&gt;EAID_55A08FD3_D5D2_453a_8D9F_76DDFD784A35___EAID_F1966B12_A269_4a4e_9BB9_A9C18BE24D3A</title>
<path fill="none" stroke="black" d="M2305.06,-498.992C2289.2,-489.34 2271.57,-478.606 2255.14,-468.609"/>
<polygon fill="black" stroke="black" points="2256.52,-465.352 2246.16,-463.142 2252.88,-471.332 2256.52,-465.352"/>
</g>
<!-- EAID_28DFBCB9_56DB_4fb8_8341_B9BB7AF5DDD5___EAID_55A08FD3_D5D2_453a_8D9F_76DDFD784A35&#45;&gt;EAID_65C14CA6_B97E_44c6_AD66_8EACEA65ACC8 -->
<g id="edge12" class="edge"><title>EAID_28DFBCB9_56DB_4fb8_8341_B9BB7AF5DDD5___EAID_55A08FD3_D5D2_453a_8D9F_76DDFD784A35&#45;&gt;EAID_65C14CA6_B97E_44c6_AD66_8EACEA65ACC8</title>
<path fill="none" stroke="black" stroke-dasharray="5,2" d="M2405.79,-498.693C2453.73,-464.26 2519,-404.13 2519,-332 2519,-332 2519,-332 2519,-230 2519,-164.195 2517.73,-134.097 2468,-91 2434.46,-61.9329 2305.98,-45.2183 2241.44,-38.4925"/>
<polygon fill="black" stroke="black" points="2241.59,-34.9895 2231.29,-37.4617 2240.88,-41.9537 2241.59,-34.9895"/>
</g>
<!-- EAID_E2364D8F_64A6_451f_9D46_772CE0E20809___EAID_C27A1332_DE65_4837_B61E_830EED72E092 -->
<g id="node4" class="node"><title>EAID_E2364D8F_64A6_451f_9D46_772CE0E20809___EAID_C27A1332_DE65_4837_B61E_830EED72E092</title>
<image xlink:href="img/activity_icon.png" width="30px" height="20px" preserveAspectRatio="xMinYMin meet" x="2359.5" y="-157"/>
<text text-anchor="start" x="2300" y="-122.8" font-family="Times New Roman,serif" font-weight="bold" font-size="14.00">Filter users:Filtered List</text>
<text text-anchor="start" x="2349" y="-108.8" font-family="Times New Roman,serif" font-weight="bold" font-size="14.00">of Users</text>
</g>
<!-- EAID_E2364D8F_64A6_451f_9D46_772CE0E20809___EAID_C27A1332_DE65_4837_B61E_830EED72E092&#45;&gt;EAID_65C14CA6_B97E_44c6_AD66_8EACEA65ACC8 -->
<g id="edge13" class="edge"><title>EAID_E2364D8F_64A6_451f_9D46_772CE0E20809___EAID_C27A1332_DE65_4837_B61E_830EED72E092&#45;&gt;EAID_65C14CA6_B97E_44c6_AD66_8EACEA65ACC8</title>
<path fill="none" stroke="black" stroke-dasharray="5,2" d="M2318.34,-98.8934C2292.63,-84.5302 2262.85,-67.8875 2240.13,-55.1889"/>
<polygon fill="black" stroke="black" points="2241.6,-52.0041 2231.17,-50.1811 2238.19,-58.1147 2241.6,-52.0041"/>
</g>
<!-- EAID_99926B45_70E1_4c47_A808_6DC84402E056___EAID_E2364D8F_64A6_451f_9D46_772CE0E20809&#45;&gt;EAID_E2364D8F_64A6_451f_9D46_772CE0E20809___EAID_C27A1332_DE65_4837_B61E_830EED72E092 -->
<g id="edge6" class="edge"><title>EAID_99926B45_70E1_4c47_A808_6DC84402E056___EAID_E2364D8F_64A6_451f_9D46_772CE0E20809&#45;&gt;EAID_E2364D8F_64A6_451f_9D46_772CE0E20809___EAID_C27A1332_DE65_4837_B61E_830EED72E092</title>
<path fill="none" stroke="black" d="M2352.13,-198.992C2354.84,-190.681 2357.81,-181.567 2360.67,-172.812"/>
<polygon fill="black" stroke="black" points="2364.05,-173.735 2363.83,-163.142 2357.4,-171.562 2364.05,-173.735"/>
</g>
<!-- EAID_99926B45_70E1_4c47_A808_6DC84402E056___EAID_E2364D8F_64A6_451f_9D46_772CE0E20809&#45;&gt;EAID_65C14CA6_B97E_44c6_AD66_8EACEA65ACC8 -->
<g id="edge14" class="edge"><title>EAID_99926B45_70E1_4c47_A808_6DC84402E056___EAID_E2364D8F_64A6_451f_9D46_772CE0E20809&#45;&gt;EAID_65C14CA6_B97E_44c6_AD66_8EACEA65ACC8</title>
<path fill="none" stroke="black" stroke-dasharray="5,2" d="M2311.18,-198.731C2301.08,-187.822 2290.11,-175.238 2281,-163 2274.1,-153.74 2239.54,-95.4205 2219.14,-60.7794"/>
<polygon fill="black" stroke="black" points="2222.13,-58.9556 2214.04,-52.1117 2216.09,-62.5054 2222.13,-58.9556"/>
</g>
<!-- EAID_F1966B12_A269_4a4e_9BB9_A9C18BE24D3A___EAID_EEB725D1_0058_4868_BC4C_36B21E0EC3DE -->
<g id="node7" class="node"><title>EAID_F1966B12_A269_4a4e_9BB9_A9C18BE24D3A___EAID_EEB725D1_0058_4868_BC4C_36B21E0EC3DE</title>
<image xlink:href="img/activity_icon.png" width="30px" height="20px" preserveAspectRatio="xMinYMin meet" x="2099.5" y="-350"/>
<text text-anchor="start" x="2055" y="-315.8" font-family="Times New Roman,serif" font-weight="bold" font-size="14.00">query user list:User</text>
</g>
<!-- EAID_55A08FD3_D5D2_453a_8D9F_76DDFD784A35___EAID_F1966B12_A269_4a4e_9BB9_A9C18BE24D3A&#45;&gt;EAID_F1966B12_A269_4a4e_9BB9_A9C18BE24D3A___EAID_EEB725D1_0058_4868_BC4C_36B21E0EC3DE -->
<g id="edge7" class="edge"><title>EAID_55A08FD3_D5D2_453a_8D9F_76DDFD784A35___EAID_F1966B12_A269_4a4e_9BB9_A9C18BE24D3A&#45;&gt;EAID_F1966B12_A269_4a4e_9BB9_A9C18BE24D3A___EAID_EEB725D1_0058_4868_BC4C_36B21E0EC3DE</title>
<path fill="none" stroke="black" d="M2169.37,-398.992C2160.27,-387.982 2150.01,-375.564 2140.81,-364.438"/>
<polygon fill="black" stroke="black" points="2143.4,-362.081 2134.34,-356.603 2138.01,-366.541 2143.4,-362.081"/>
</g>
<!-- EAID_F1966B12_A269_4a4e_9BB9_A9C18BE24D3A___EAID_99926B45_70E1_4c47_A808_6DC84402E056 -->
<g id="node8" class="node"><title>EAID_F1966B12_A269_4a4e_9BB9_A9C18BE24D3A___EAID_99926B45_70E1_4c47_A808_6DC84402E056</title>
<image xlink:href="img/activity_icon.png" width="30px" height="20px" preserveAspectRatio="xMinYMin meet" x="2255.5" y="-357"/>
<text text-anchor="start" x="2212" y="-322.8" font-family="Times New Roman,serif" font-weight="bold" font-size="14.00">query user list:user</text>
<text text-anchor="start" x="2232" y="-308.8" font-family="Times New Roman,serif" font-weight="bold" font-size="14.00">list filter box</text>
</g>
<!-- EAID_55A08FD3_D5D2_453a_8D9F_76DDFD784A35___EAID_F1966B12_A269_4a4e_9BB9_A9C18BE24D3A&#45;&gt;EAID_F1966B12_A269_4a4e_9BB9_A9C18BE24D3A___EAID_99926B45_70E1_4c47_A808_6DC84402E056 -->
<g id="edge8" class="edge"><title>EAID_55A08FD3_D5D2_453a_8D9F_76DDFD784A35___EAID_F1966B12_A269_4a4e_9BB9_A9C18BE24D3A&#45;&gt;EAID_F1966B12_A269_4a4e_9BB9_A9C18BE24D3A___EAID_99926B45_70E1_4c47_A808_6DC84402E056</title>
<path fill="none" stroke="black" d="M2218.73,-398.992C2225.5,-390.144 2232.97,-380.388 2240.06,-371.123"/>
<polygon fill="black" stroke="black" points="2242.87,-373.211 2246.17,-363.142 2237.31,-368.957 2242.87,-373.211"/>
</g>
<!-- EAID_55A08FD3_D5D2_453a_8D9F_76DDFD784A35___EAID_F1966B12_A269_4a4e_9BB9_A9C18BE24D3A&#45;&gt;EAID_65C14CA6_B97E_44c6_AD66_8EACEA65ACC8 -->
<g id="edge15" class="edge"><title>EAID_55A08FD3_D5D2_453a_8D9F_76DDFD784A35___EAID_F1966B12_A269_4a4e_9BB9_A9C18BE24D3A&#45;&gt;EAID_65C14CA6_B97E_44c6_AD66_8EACEA65ACC8</title>
<path fill="none" stroke="black" stroke-dasharray="5,2" d="M2118.7,-416.911C2087.6,-407.416 2054.64,-391.077 2036,-363 2020.27,-339.301 2028.45,-326.423 2036,-299 2064.58,-195.239 2093.89,-175.925 2160,-91 2163.09,-87.0323 2164.71,-86.7987 2168,-83 2174.08,-75.9865 2180.29,-68.0386 2185.81,-60.657"/>
<polygon fill="black" stroke="black" points="2188.81,-62.4748 2191.91,-52.3416 2183.17,-58.334 2188.81,-62.4748"/>
</g>
<!-- EAID_F1966B12_A269_4a4e_9BB9_A9C18BE24D3A___EAID_EEB725D1_0058_4868_BC4C_36B21E0EC3DE&#45;&gt;EAID_65C14CA6_B97E_44c6_AD66_8EACEA65ACC8 -->
<g id="edge16" class="edge"><title>EAID_F1966B12_A269_4a4e_9BB9_A9C18BE24D3A___EAID_EEB725D1_0058_4868_BC4C_36B21E0EC3DE&#45;&gt;EAID_65C14CA6_B97E_44c6_AD66_8EACEA65ACC8</title>
<path fill="none" stroke="black" stroke-dasharray="5,2" d="M2121.31,-305.182C2134.16,-261.711 2161.72,-168.994 2186,-91 2188.96,-81.5069 2192.27,-71.1349 2195.23,-61.9255"/>
<polygon fill="black" stroke="black" points="2198.66,-62.7224 2198.4,-52.1305 2192,-60.5676 2198.66,-62.7224"/>
</g>
<!-- EAID_F1966B12_A269_4a4e_9BB9_A9C18BE24D3A___EAID_99926B45_70E1_4c47_A808_6DC84402E056&#45;&gt;EAID_99926B45_70E1_4c47_A808_6DC84402E056___EAID_E2364D8F_64A6_451f_9D46_772CE0E20809 -->
<g id="edge9" class="edge"><title>EAID_F1966B12_A269_4a4e_9BB9_A9C18BE24D3A___EAID_99926B45_70E1_4c47_A808_6DC84402E056&#45;&gt;EAID_99926B45_70E1_4c47_A808_6DC84402E056___EAID_E2364D8F_64A6_451f_9D46_772CE0E20809</title>
<path fill="none" stroke="black" d="M2292.78,-298.992C2299.22,-290.234 2306.31,-280.585 2313.05,-271.404"/>
<polygon fill="black" stroke="black" points="2316.02,-273.274 2319.12,-263.142 2310.38,-269.129 2316.02,-273.274"/>
</g>
<!-- EAID_F1966B12_A269_4a4e_9BB9_A9C18BE24D3A___EAID_99926B45_70E1_4c47_A808_6DC84402E056&#45;&gt;EAID_65C14CA6_B97E_44c6_AD66_8EACEA65ACC8 -->
<g id="edge17" class="edge"><title>EAID_F1966B12_A269_4a4e_9BB9_A9C18BE24D3A___EAID_99926B45_70E1_4c47_A808_6DC84402E056&#45;&gt;EAID_65C14CA6_B97E_44c6_AD66_8EACEA65ACC8</title>
<path fill="none" stroke="black" stroke-dasharray="5,2" d="M2233.27,-298.945C2223.56,-288.601 2214.31,-276.293 2209,-263 2181.78,-194.901 2191.33,-105.986 2198.69,-62.0278"/>
<polygon fill="black" stroke="black" points="2202.15,-62.5651 2200.45,-52.1083 2195.26,-61.3459 2202.15,-62.5651"/>
</g>
<!-- EAID_28DFBCB9_56DB_4fb8_8341_B9BB7AF5DDD5___EAID_99926B45_70E1_4c47_A808_6DC84402E056_STL -->
<g id="node9" class="node"><title>EAID_28DFBCB9_56DB_4fb8_8341_B9BB7AF5DDD5___EAID_99926B45_70E1_4c47_A808_6DC84402E056_STL</title>
<image xlink:href="img/stimulus_icon.png" width="30px" height="20px" preserveAspectRatio="xMinYMin meet" x="2526" y="-668"/>
<text text-anchor="start" x="2473" y="-633.8" font-family="Times New Roman,serif" font-weight="bold" font-size="14.00">stl#User:user list filter</text>
<text text-anchor="start" x="2530" y="-619.8" font-family="Times New Roman,serif" font-weight="bold" font-size="14.00">box</text>
</g>
<!-- EAID_28DFBCB9_56DB_4fb8_8341_B9BB7AF5DDD5___EAID_99926B45_70E1_4c47_A808_6DC84402E056_STL&#45;&gt;EAID_28DFBCB9_56DB_4fb8_8341_B9BB7AF5DDD5___EAID_99926B45_70E1_4c47_A808_6DC84402E056 -->
<g id="edge2" class="edge"><title>EAID_28DFBCB9_56DB_4fb8_8341_B9BB7AF5DDD5___EAID_99926B45_70E1_4c47_A808_6DC84402E056_STL&#45;&gt;EAID_28DFBCB9_56DB_4fb8_8341_B9BB7AF5DDD5___EAID_99926B45_70E1_4c47_A808_6DC84402E056</title>
<path fill="none" stroke="black" d="M2529.25,-609.957C2507.96,-553.737 2463.04,-435.106 2439.36,-372.561"/>
<polygon fill="black" stroke="black" points="2442.56,-371.135 2435.75,-363.022 2436.01,-373.614 2442.56,-371.135"/>
</g>
<!-- EAID_28DFBCB9_56DB_4fb8_8341_B9BB7AF5DDD5___EAID_C27A1332_DE65_4837_B61E_830EED72E092_STL -->
<g id="node10" class="node"><title>EAID_28DFBCB9_56DB_4fb8_8341_B9BB7AF5DDD5___EAID_C27A1332_DE65_4837_B61E_830EED72E092_STL</title>
<image xlink:href="img/stimulus_icon.png" width="30px" height="20px" preserveAspectRatio="xMinYMin meet" x="2151.5" y="-668"/>
<text text-anchor="start" x="2094" y="-633.8" font-family="Times New Roman,serif" font-weight="bold" font-size="14.00">stl#User:Filtered List of</text>
<text text-anchor="start" x="2149" y="-619.8" font-family="Times New Roman,serif" font-weight="bold" font-size="14.00">Users</text>
</g>
<!-- EAID_28DFBCB9_56DB_4fb8_8341_B9BB7AF5DDD5___EAID_C27A1332_DE65_4837_B61E_830EED72E092_STL&#45;&gt;EAID_28DFBCB9_56DB_4fb8_8341_B9BB7AF5DDD5___EAID_C27A1332_DE65_4837_B61E_830EED72E092 -->
<g id="edge3" class="edge"><title>EAID_28DFBCB9_56DB_4fb8_8341_B9BB7AF5DDD5___EAID_C27A1332_DE65_4837_B61E_830EED72E092_STL&#45;&gt;EAID_28DFBCB9_56DB_4fb8_8341_B9BB7AF5DDD5___EAID_C27A1332_DE65_4837_B61E_830EED72E092</title>
<path fill="none" stroke="black" d="M2161.13,-609.765C2159.35,-598.363 2157.31,-585.288 2155.42,-573.154"/>
<polygon fill="black" stroke="black" points="2158.87,-572.581 2153.87,-563.24 2151.96,-573.66 2158.87,-572.581"/>
</g>
<!-- EAID_28DFBCB9_56DB_4fb8_8341_B9BB7AF5DDD5___EAID_55A08FD3_D5D2_453a_8D9F_76DDFD784A35_STL -->
<g id="node11" class="node"><title>EAID_28DFBCB9_56DB_4fb8_8341_B9BB7AF5DDD5___EAID_55A08FD3_D5D2_453a_8D9F_76DDFD784A35_STL</title>
<image xlink:href="img/stimulus_icon.png" width="30px" height="20px" preserveAspectRatio="xMinYMin meet" x="2341" y="-668"/>
<text text-anchor="start" x="2277" y="-633.8" font-family="Times New Roman,serif" font-weight="bold" font-size="14.00">stl#User:Query Users List</text>
<text text-anchor="start" x="2335" y="-619.8" font-family="Times New Roman,serif" font-weight="bold" font-size="14.00">Button</text>
</g>
<!-- EAID_28DFBCB9_56DB_4fb8_8341_B9BB7AF5DDD5___EAID_55A08FD3_D5D2_453a_8D9F_76DDFD784A35_STL&#45;&gt;EAID_28DFBCB9_56DB_4fb8_8341_B9BB7AF5DDD5___EAID_55A08FD3_D5D2_453a_8D9F_76DDFD784A35 -->
<g id="edge5" class="edge"><title>EAID_28DFBCB9_56DB_4fb8_8341_B9BB7AF5DDD5___EAID_55A08FD3_D5D2_453a_8D9F_76DDFD784A35_STL&#45;&gt;EAID_28DFBCB9_56DB_4fb8_8341_B9BB7AF5DDD5___EAID_55A08FD3_D5D2_453a_8D9F_76DDFD784A35</title>
<path fill="none" stroke="black" d="M2356,-609.765C2356,-598.477 2356,-585.549 2356,-573.518"/>
<polygon fill="black" stroke="black" points="2359.5,-573.24 2356,-563.24 2352.5,-573.24 2359.5,-573.24"/>
</g>
<!-- EAID_7A60B82A_7E49_4a91_896C_88036575E0B9 -->
<g id="node13" class="node"><title>EAID_7A60B82A_7E49_4a91_896C_88036575E0B9</title>
<polygon fill="none" stroke="black" points="2063,-23 2063,-44 2150,-44 2150,-23 2063,-23"/>
<text text-anchor="start" x="2066" y="-30.8" font-family="Times New Roman,serif" font-weight="bold" font-size="14.00">Hashtag icon</text>
<polygon fill="none" stroke="black" points="2061.5,-22.5 2061.5,-45.5 2150.5,-45.5 2150.5,-22.5 2061.5,-22.5"/>
</g>
<!-- EAID_0C9775C5_EF89_47f8_97E3_A9DAFF21F116 -->
<g id="node14" class="node"><title>EAID_0C9775C5_EF89_47f8_97E3_A9DAFF21F116</title>
<polygon fill="none" stroke="black" points="1934,-23 1934,-44 2026,-44 2026,-23 1934,-23"/>
<text text-anchor="start" x="1937" y="-30.8" font-family="Times New Roman,serif" font-weight="bold" font-size="14.00">Search Result</text>
<polygon fill="none" stroke="black" points="1933,-22.5 1933,-45.5 2027,-45.5 2027,-22.5 1933,-22.5"/>
</g>
<!-- EAID_5D796940_815A_4ec8_A040_583FA48AA027 -->
<g id="node15" class="node"><title>EAID_5D796940_815A_4ec8_A040_583FA48AA027</title>
<polygon fill="none" stroke="black" points="1798,-23 1798,-44 1898,-44 1898,-23 1798,-23"/>
<text text-anchor="start" x="1801" y="-30.8" font-family="Times New Roman,serif" font-weight="bold" font-size="14.00">Picture Display</text>
<polygon fill="none" stroke="black" points="1797,-22.5 1797,-45.5 1899,-45.5 1899,-22.5 1797,-22.5"/>
</g>
<!-- EAID_3397D48E_64F1_4203_8534_37361851C29B -->
<g id="node16" class="node"><title>EAID_3397D48E_64F1_4203_8534_37361851C29B</title>
<polygon fill="none" stroke="black" points="1716,-23 1716,-44 1762,-44 1762,-23 1716,-23"/>
<text text-anchor="start" x="1719" y="-30.8" font-family="Times New Roman,serif" font-weight="bold" font-size="14.00">Admin</text>
<polygon fill="none" stroke="black" points="1715,-22.5 1715,-45.5 1763,-45.5 1763,-22.5 1715,-22.5"/>
</g>
<!-- EAID_F313F557_21C2_4e7f_A89E_53985F2C4313 -->
<g id="node17" class="node"><title>EAID_F313F557_21C2_4e7f_A89E_53985F2C4313</title>
<polygon fill="none" stroke="black" points="1424,-23 1424,-44 1680,-44 1680,-23 1424,-23"/>
<text text-anchor="start" x="1427" y="-30.8" font-family="Times New Roman,serif" font-weight="bold" font-size="14.00">Private Event Name and Password Input</text>
<polygon fill="none" stroke="black" points="1423,-22.5 1423,-45.5 1681,-45.5 1681,-22.5 1423,-22.5"/>
</g>
<!-- EAID_80E4B179_2ACA_4847_95D3_EC956BEDFABF -->
<g id="node18" class="node"><title>EAID_80E4B179_2ACA_4847_95D3_EC956BEDFABF</title>
<polygon fill="none" stroke="black" points="1177,-23 1177,-44 1388,-44 1388,-23 1177,-23"/>
<text text-anchor="start" x="1180" y="-30.8" font-family="Times New Roman,serif" font-weight="bold" font-size="14.00">Warning information of duplicate</text>
<polygon fill="none" stroke="black" points="1175.5,-22.5 1175.5,-45.5 1388.5,-45.5 1388.5,-22.5 1175.5,-22.5"/>
</g>
<!-- EAID_74234FC7_1CBE_417e_8DA5_DE56B8B6D3A6 -->
<g id="node19" class="node"><title>EAID_74234FC7_1CBE_417e_8DA5_DE56B8B6D3A6</title>
<polygon fill="none" stroke="black" points="1050,-23 1050,-44 1141,-44 1141,-23 1050,-23"/>
<text text-anchor="start" x="1053" y="-30.8" font-family="Times New Roman,serif" font-weight="bold" font-size="14.00">Delete Button</text>
<polygon fill="none" stroke="black" points="1048.5,-22.5 1048.5,-45.5 1141.5,-45.5 1141.5,-22.5 1048.5,-22.5"/>
</g>
<!-- EAID_0E684785_80D6_4668_8A84_3504E38A3B17 -->
<g id="node20" class="node"><title>EAID_0E684785_80D6_4668_8A84_3504E38A3B17</title>
<polygon fill="none" stroke="black" points="853,-23 853,-44 1013,-44 1013,-23 853,-23"/>
<text text-anchor="start" x="856" y="-30.8" font-family="Times New Roman,serif" font-weight="bold" font-size="14.00">The total number of likes</text>
<polygon fill="none" stroke="black" points="852,-22.5 852,-45.5 1014,-45.5 1014,-22.5 852,-22.5"/>
</g>
<!-- EAID_C99981CE_38A8_458e_9DF6_3B6B8E57CBF1 -->
<g id="node21" class="node"><title>EAID_C99981CE_38A8_458e_9DF6_3B6B8E57CBF1</title>
<polygon fill="none" stroke="black" points="715,-23 715,-44 817,-44 817,-23 715,-23"/>
<text text-anchor="start" x="718" y="-30.8" font-family="Times New Roman,serif" font-weight="bold" font-size="14.00">App Main Page</text>
<polygon fill="none" stroke="black" points="714,-22.5 714,-45.5 818,-45.5 818,-22.5 714,-22.5"/>
</g>
<!-- EAID_73CA8CEE_601A_4619_A3C1_900CC5B2819F -->
<g id="node22" class="node"><title>EAID_73CA8CEE_601A_4619_A3C1_900CC5B2819F</title>
<polygon fill="none" stroke="black" points="493,-23 493,-44 679,-44 679,-23 493,-23"/>
<text text-anchor="start" x="496" y="-30.8" font-family="Times New Roman,serif" font-weight="bold" font-size="14.00">Clear Local Storage and Exit</text>
<polygon fill="none" stroke="black" points="492,-22.5 492,-45.5 680,-45.5 680,-22.5 492,-22.5"/>
</g>
<!-- EAID_5B081FBB_04D9_4adb_B481_B2FA80955739 -->
<g id="node23" class="node"><title>EAID_5B081FBB_04D9_4adb_B481_B2FA80955739</title>
<polygon fill="none" stroke="black" points="357,-23 357,-44 457,-44 457,-23 357,-23"/>
<text text-anchor="start" x="360" y="-30.8" font-family="Times New Roman,serif" font-weight="bold" font-size="14.00">Options to post</text>
<polygon fill="none" stroke="black" points="356,-22.5 356,-45.5 458,-45.5 458,-22.5 356,-22.5"/>
</g>
<!-- EAID_4114324C_3DC0_41e4_BBDB_E0406E508C8A -->
<g id="node24" class="node"><title>EAID_4114324C_3DC0_41e4_BBDB_E0406E508C8A</title>
<polygon fill="none" stroke="black" points="184,-23 184,-44 321,-44 321,-23 184,-23"/>
<text text-anchor="start" x="187" y="-30.8" font-family="Times New Roman,serif" font-weight="bold" font-size="14.00">report confirm dialog</text>
<polygon fill="none" stroke="black" points="182.5,-22.5 182.5,-45.5 321.5,-45.5 321.5,-22.5 182.5,-22.5"/>
</g>
<!-- EAID_756FEF97_8317_4f5a_9774_168F735F5ADF -->
<g id="node25" class="node"><title>EAID_756FEF97_8317_4f5a_9774_168F735F5ADF</title>
<polygon fill="none" stroke="black" points="25,-23 25,-44 147,-44 147,-23 25,-23"/>
<text text-anchor="start" x="28" y="-30.8" font-family="Times New Roman,serif" font-weight="bold" font-size="14.00">download to phone</text>
<polygon fill="none" stroke="black" points="24,-22.5 24,-45.5 148,-45.5 148,-22.5 24,-22.5"/>
</g>
</g>
</svg>
