<?xml version="1.0" encoding="UTF-8" standalone="no"?>
<!DOCTYPE svg PUBLIC "-//W3C//DTD SVG 1.1//EN"
 "http://www.w3.org/Graphics/SVG/1.1/DTD/svg11.dtd">
<!-- Generated by graphviz version 2.38.0 (20140413.2041)
 -->
<!-- Title: g Pages: 1 -->
<svg width="3669pt" height="713pt"
 viewBox="0.00 0.00 3669.00 712.60" xmlns="http://www.w3.org/2000/svg" xmlns:xlink="http://www.w3.org/1999/xlink">
<g id="graph0" class="graph" transform="scale(1 1) rotate(0) translate(4 708.604)">
<title>g</title>
<polygon fill="white" stroke="none" points="-4,4 -4,-708.604 3665,-708.604 3665,4 -4,4"/>
<!-- EAID_0F44252F_2B3B_4b12_A744_FA5315B100F5 -->
<g id="node1" class="node"><title>EAID_0F44252F_2B3B_4b12_A744_FA5315B100F5</title>
<image xlink:href="img/actor1.png" width="61px" height="90px" preserveAspectRatio="xMinYMin meet" x="10.5" y="-444.5"/>
<text text-anchor="start" x="19" y="-331.3" font-family="Times New Roman,serif" font-size="24.00">User</text>
</g>
<!-- EAID_E101F3EB_5588_451d_A629_F902491647E0 -->
<g id="node2" class="node"><title>EAID_E101F3EB_5588_451d_A629_F902491647E0</title>
<image xlink:href="img/boundary3.png" width="115px" height="67px" preserveAspectRatio="xMinYMin meet" x="3481.5" y="-618.5"/>
<text text-anchor="start" x="3426.5" y="-528.3" font-family="Times New Roman,serif" font-size="24.00">add success information</text>
</g>
<!-- EAID_0F44252F_2B3B_4b12_A744_FA5315B100F5&#45;&gt;EAID_E101F3EB_5588_451d_A629_F902491647E0 -->
<g id="edge1" class="edge"><title>EAID_0F44252F_2B3B_4b12_A744_FA5315B100F5&#45;&gt;EAID_E101F3EB_5588_451d_A629_F902491647E0</title>
<path fill="none" stroke="black" d="M51.7605,-450.874C61.6534,-494.097 80.7254,-548.87 117,-584.5 284.421,-748.944 398.327,-696.5 633,-696.5 633,-696.5 633,-696.5 3101,-696.5 3207.06,-696.5 3322.12,-661.741 3407.47,-628.735"/>
<polygon fill="black" stroke="black" points="3408.91,-631.933 3416.94,-625.033 3406.36,-625.414 3408.91,-631.933"/>
</g>
<!-- EAID_F589D106_0BFF_495e_8012_4E906CA18766 -->
<g id="node3" class="node"><title>EAID_F589D106_0BFF_495e_8012_4E906CA18766</title>
<image xlink:href="img/boundary3.png" width="115px" height="67px" preserveAspectRatio="xMinYMin meet" x="153.5" y="-224.5"/>
<text text-anchor="start" x="127" y="-134.3" font-family="Times New Roman,serif" font-size="24.00">&quot;Documents&quot; link</text>
</g>
<!-- EAID_0F44252F_2B3B_4b12_A744_FA5315B100F5&#45;&gt;EAID_F589D106_0BFF_495e_8012_4E906CA18766 -->
<g id="edge2" class="edge"><title>EAID_0F44252F_2B3B_4b12_A744_FA5315B100F5&#45;&gt;EAID_F589D106_0BFF_495e_8012_4E906CA18766</title>
<path fill="none" stroke="black" d="M70.9637,-318.198C83.2597,-294.497 98.9183,-268.485 117,-247.5 119.61,-244.47 122.369,-241.487 125.239,-238.56"/>
<polygon fill="black" stroke="black" points="127.858,-240.895 132.576,-231.409 122.972,-235.882 127.858,-240.895"/>
</g>
<!-- EAID_89C64AD8_36DD_4f7f_A3D5_3FC9D839A92B -->
<g id="node4" class="node"><title>EAID_89C64AD8_36DD_4f7f_A3D5_3FC9D839A92B</title>
<image xlink:href="img/boundary3.png" width="115px" height="67px" preserveAspectRatio="xMinYMin meet" x="3042.5" y="-575.5"/>
<text text-anchor="start" x="3037" y="-485.3" font-family="Times New Roman,serif" font-size="24.00">students page</text>
</g>
<!-- EAID_0F44252F_2B3B_4b12_A744_FA5315B100F5&#45;&gt;EAID_89C64AD8_36DD_4f7f_A3D5_3FC9D839A92B -->
<g id="edge3" class="edge"><title>EAID_0F44252F_2B3B_4b12_A744_FA5315B100F5&#45;&gt;EAID_89C64AD8_36DD_4f7f_A3D5_3FC9D839A92B</title>
<path fill="none" stroke="black" d="M70.5646,-450.572C82.5203,-472.119 98.0622,-494.775 117,-511.5 295.735,-669.349 394.542,-658.5 633,-658.5 633,-658.5 633,-658.5 2615,-658.5 2782.35,-658.5 2838.62,-707.671 2991,-638.5 3014.99,-627.61 3036.44,-608.792 3053.78,-589.713"/>
<polygon fill="black" stroke="black" points="3056.48,-591.938 3060.46,-582.119 3051.23,-587.313 3056.48,-591.938"/>
</g>
<!-- EAID_E82A74B4_E6F3_44df_AD6A_885EA2E0FE84 -->
<g id="node5" class="node"><title>EAID_E82A74B4_E6F3_44df_AD6A_885EA2E0FE84</title>
<image xlink:href="img/boundary3.png" width="115px" height="67px" preserveAspectRatio="xMinYMin meet" x="2231.5" y="-565.5"/>
<text text-anchor="start" x="2132" y="-475.3" font-family="Times New Roman,serif" font-size="24.00">invalid format document message</text>
</g>
<!-- EAID_0F44252F_2B3B_4b12_A744_FA5315B100F5&#45;&gt;EAID_E82A74B4_E6F3_44df_AD6A_885EA2E0FE84 -->
<g id="edge4" class="edge"><title>EAID_0F44252F_2B3B_4b12_A744_FA5315B100F5&#45;&gt;EAID_E82A74B4_E6F3_44df_AD6A_885EA2E0FE84</title>
<path fill="none" stroke="black" d="M81.1799,-397.233C175.681,-426.389 421.943,-495.5 633,-495.5 633,-495.5 633,-495.5 1677.5,-495.5 1823.86,-495.5 1989.82,-501.893 2111.73,-507.786"/>
<polygon fill="black" stroke="black" points="2111.74,-511.291 2121.9,-508.282 2112.08,-504.299 2111.74,-511.291"/>
</g>
<!-- EAID_2923E7A8_4260_4627_88A8_68A3F5CD6017 -->
<g id="node6" class="node"><title>EAID_2923E7A8_4260_4627_88A8_68A3F5CD6017</title>
<image xlink:href="img/boundary3.png" width="115px" height="67px" preserveAspectRatio="xMinYMin meet" x="2824.5" y="-623.5"/>
<text text-anchor="start" x="2806.5" y="-533.3" font-family="Times New Roman,serif" font-size="24.00">success message</text>
</g>
<!-- EAID_0F44252F_2B3B_4b12_A744_FA5315B100F5&#45;&gt;EAID_2923E7A8_4260_4627_88A8_68A3F5CD6017 -->
<g id="edge5" class="edge"><title>EAID_0F44252F_2B3B_4b12_A744_FA5315B100F5&#45;&gt;EAID_2923E7A8_4260_4627_88A8_68A3F5CD6017</title>
<path fill="none" stroke="black" d="M81.1556,-420.862C92.2088,-429.759 104.6,-438.673 117,-445.5 329.138,-562.294 390.837,-620.5 633,-620.5 633,-620.5 633,-620.5 2290,-620.5 2488.42,-620.5 2538.74,-621.9 2736,-600.5 2752.14,-598.749 2769.2,-596.319 2785.73,-593.658"/>
<polygon fill="black" stroke="black" points="2786.64,-597.055 2795.94,-591.974 2785.5,-590.148 2786.64,-597.055"/>
</g>
<!-- EAID_9743B496_0C3F_4d33_806F_650C24E20B9E -->
<g id="node7" class="node"><title>EAID_9743B496_0C3F_4d33_806F_650C24E20B9E</title>
<image xlink:href="img/boundary3.png" width="115px" height="67px" preserveAspectRatio="xMinYMin meet" x="2232" y="-303.5"/>
<text text-anchor="start" x="2163" y="-213.3" font-family="Times New Roman,serif" font-size="24.00">Display usc Id empty error</text>
</g>
<!-- EAID_0F44252F_2B3B_4b12_A744_FA5315B100F5&#45;&gt;EAID_9743B496_0C3F_4d33_806F_650C24E20B9E -->
<g id="edge6" class="edge"><title>EAID_0F44252F_2B3B_4b12_A744_FA5315B100F5&#45;&gt;EAID_9743B496_0C3F_4d33_806F_650C24E20B9E</title>
<path fill="none" stroke="black" d="M81.027,-374.832C175.698,-352.554 423.174,-299.5 633,-299.5 633,-299.5 633,-299.5 1677.5,-299.5 1836.67,-299.5 2018.59,-284.436 2142.14,-271.937"/>
<polygon fill="black" stroke="black" points="2142.82,-275.385 2152.41,-270.889 2142.11,-268.421 2142.82,-275.385"/>
</g>
<!-- EAID_C5D61A79_57A9_4431_8A8A_FD99FE32512C -->
<g id="node8" class="node"><title>EAID_C5D61A79_57A9_4431_8A8A_FD99FE32512C</title>
<image xlink:href="img/boundary3.png" width="115px" height="67px" preserveAspectRatio="xMinYMin meet" x="2231.5" y="-102.5"/>
<text text-anchor="start" x="2184" y="-12.3" font-family="Times New Roman,serif" font-size="24.00">USC ID existing error</text>
</g>
<!-- EAID_0F44252F_2B3B_4b12_A744_FA5315B100F5&#45;&gt;EAID_C5D61A79_57A9_4431_8A8A_FD99FE32512C -->
<g id="edge7" class="edge"><title>EAID_0F44252F_2B3B_4b12_A744_FA5315B100F5&#45;&gt;EAID_C5D61A79_57A9_4431_8A8A_FD99FE32512C</title>
<path fill="none" stroke="black" d="M51.1388,-318.24C63.0252,-246.481 85.5816,-138.719 117,-112.5 293.805,35.0469 402.717,-65.5 633,-65.5 633,-65.5 633,-65.5 1677.5,-65.5 1845.82,-65.5 2040.21,-61.2681 2163.57,-58.054"/>
<polygon fill="black" stroke="black" points="2163.9,-61.5467 2173.81,-57.7855 2163.72,-54.5491 2163.9,-61.5467"/>
</g>
<!-- EAID_E142207C_26A2_40b3_B80F_395B5D6D479A -->
<g id="node9" class="node"><title>EAID_E142207C_26A2_40b3_B80F_395B5D6D479A</title>
<image xlink:href="img/boundary3.png" width="115px" height="67px" preserveAspectRatio="xMinYMin meet" x="1025.5" y="-241.5"/>
<text text-anchor="start" x="973" y="-151.3" font-family="Times New Roman,serif" font-size="24.00">document upload panel</text>
</g>
<!-- EAID_0F44252F_2B3B_4b12_A744_FA5315B100F5&#45;&gt;EAID_E142207C_26A2_40b3_B80F_395B5D6D479A -->
<g id="edge8" class="edge"><title>EAID_0F44252F_2B3B_4b12_A744_FA5315B100F5&#45;&gt;EAID_E142207C_26A2_40b3_B80F_395B5D6D479A</title>
<path fill="none" stroke="black" d="M79.0413,-318.401C89.5977,-305.344 102.289,-293.285 117,-285.5 276.328,-201.177 749.56,-273.292 927,-241.5 935.562,-239.966 944.314,-238.103 953.086,-236.014"/>
<polygon fill="black" stroke="black" points="954.121,-239.364 962.988,-233.565 952.44,-232.569 954.121,-239.364"/>
</g>
<!-- EAID_6EFA2053_ACBB_4323_BAE7_3F82665F4CEB -->
<g id="node10" class="node"><title>EAID_6EFA2053_ACBB_4323_BAE7_3F82665F4CEB</title>
<image xlink:href="img/boundary3.png" width="115px" height="67px" preserveAspectRatio="xMinYMin meet" x="1619.5" y="-432.5"/>
<text text-anchor="start" x="1580.5" y="-342.3" font-family="Times New Roman,serif" font-size="24.00">file descirption page</text>
</g>
<!-- EAID_0F44252F_2B3B_4b12_A744_FA5315B100F5&#45;&gt;EAID_6EFA2053_ACBB_4323_BAE7_3F82665F4CEB -->
<g id="edge9" class="edge"><title>EAID_0F44252F_2B3B_4b12_A744_FA5315B100F5&#45;&gt;EAID_6EFA2053_ACBB_4323_BAE7_3F82665F4CEB</title>
<path fill="none" stroke="black" d="M81.3092,-384.5C176.594,-384.5 425.308,-384.5 633,-384.5 633,-384.5 633,-384.5 1084,-384.5 1249.27,-384.5 1440.5,-384.5 1559.75,-384.5"/>
<polygon fill="black" stroke="black" points="1559.99,-388 1569.99,-384.5 1559.99,-381 1559.99,-388"/>
</g>
<!-- EAID_4392938C_16C7_40c1_9E4F_1E18249D374C -->
<g id="node11" class="node"><title>EAID_4392938C_16C7_40c1_9E4F_1E18249D374C</title>
<image xlink:href="img/control1.png" width="106px" height="75px" preserveAspectRatio="xMinYMin meet" x="581" y="-226.5"/>
<text text-anchor="start" x="351" y="-128.3" font-family="Times New Roman,serif" font-size="24.00">display a page that contents a form for uploading documents</text>
</g>
<!-- EAID_F589D106_0BFF_495e_8012_4E906CA18766&#45;&gt;EAID_4392938C_16C7_40c1_9E4F_1E18249D374C -->
<g id="edge10" class="edge"><title>EAID_F589D106_0BFF_495e_8012_4E906CA18766&#45;&gt;EAID_4392938C_16C7_40c1_9E4F_1E18249D374C</title>
<path fill="none" stroke="black" d="M305.172,-176.057C313.355,-176.019 321.885,-175.978 330.682,-175.936"/>
<polygon fill="black" stroke="black" points="330.738,-179.436 340.722,-175.888 330.705,-172.436 330.738,-179.436"/>
</g>
<!-- EAID_2EA84D28_DA84_4b0b_804D_B2A30EC82900 -->
<g id="node13" class="node"><title>EAID_2EA84D28_DA84_4b0b_804D_B2A30EC82900</title>
<image xlink:href="img/control1.png" width="106px" height="75px" preserveAspectRatio="xMinYMin meet" x="3242" y="-579.5"/>
<text text-anchor="start" x="3219.5" y="-481.3" font-family="Times New Roman,serif" font-size="24.00">add student info</text>
</g>
<!-- EAID_89C64AD8_36DD_4f7f_A3D5_3FC9D839A92B&#45;&gt;EAID_2EA84D28_DA84_4b0b_804D_B2A30EC82900 -->
<g id="edge15" class="edge"><title>EAID_89C64AD8_36DD_4f7f_A3D5_3FC9D839A92B&#45;&gt;EAID_2EA84D28_DA84_4b0b_804D_B2A30EC82900</title>
<path fill="none" stroke="black" d="M3173.23,-527.5C3181.59,-527.5 3190.2,-527.5 3198.8,-527.5"/>
<polygon fill="black" stroke="black" points="3198.87,-531 3208.87,-527.5 3198.87,-524 3198.87,-531"/>
</g>
<!-- EAID_AD50E5DD_3D31_44e1_B210_A51F23F5C85D -->
<g id="node18" class="node"><title>EAID_AD50E5DD_3D31_44e1_B210_A51F23F5C85D</title>
<image xlink:href="img/control1.png" width="106px" height="75px" preserveAspectRatio="xMinYMin meet" x="1334" y="-245.5"/>
<text text-anchor="start" x="1249.5" y="-147.3" font-family="Times New Roman,serif" font-size="24.00">display document detail page</text>
</g>
<!-- EAID_E142207C_26A2_40b3_B80F_395B5D6D479A&#45;&gt;EAID_AD50E5DD_3D31_44e1_B210_A51F23F5C85D -->
<g id="edge24" class="edge"><title>EAID_E142207C_26A2_40b3_B80F_395B5D6D479A&#45;&gt;EAID_AD50E5DD_3D31_44e1_B210_A51F23F5C85D</title>
<path fill="none" stroke="black" d="M1203.16,-193.5C1211.62,-193.5 1220.22,-193.5 1228.84,-193.5"/>
<polygon fill="black" stroke="black" points="1228.97,-197 1238.97,-193.5 1228.97,-190 1228.97,-197"/>
</g>
<!-- EAID_7E7FDF87_9CF7_423d_95EB_BDC3F4CE041F -->
<g id="node12" class="node"><title>EAID_7E7FDF87_9CF7_423d_95EB_BDC3F4CE041F</title>
<image xlink:href="img/control1.png" width="106px" height="75px" preserveAspectRatio="xMinYMin meet" x="1900" y="-438.5"/>
<text text-anchor="start" x="1829.5" y="-340.3" font-family="Times New Roman,serif" font-size="24.00">check format of document</text>
</g>
<!-- EAID_6EFA2053_ACBB_4323_BAE7_3F82665F4CEB&#45;&gt;EAID_7E7FDF87_9CF7_423d_95EB_BDC3F4CE041F -->
<g id="edge18" class="edge"><title>EAID_6EFA2053_ACBB_4323_BAE7_3F82665F4CEB&#45;&gt;EAID_7E7FDF87_9CF7_423d_95EB_BDC3F4CE041F</title>
<path fill="none" stroke="black" d="M1783.04,-385.27C1791.5,-385.332 1800.12,-385.395 1808.77,-385.458"/>
<polygon fill="black" stroke="black" points="1808.9,-388.959 1818.93,-385.532 1808.95,-381.959 1808.9,-388.959"/>
</g>
<!-- EAID_4392938C_16C7_40c1_9E4F_1E18249D374C&#45;&gt;EAID_E142207C_26A2_40b3_B80F_395B5D6D479A -->
<g id="edge21" class="edge"><title>EAID_4392938C_16C7_40c1_9E4F_1E18249D374C&#45;&gt;EAID_E142207C_26A2_40b3_B80F_395B5D6D479A</title>
<path fill="none" stroke="black" d="M927.229,-186.921C935.93,-187.291 944.476,-187.654 952.809,-188.009"/>
<polygon fill="black" stroke="black" points="952.723,-191.508 962.862,-188.436 953.02,-184.514 952.723,-191.508"/>
</g>
<!-- EAID_7E7FDF87_9CF7_423d_95EB_BDC3F4CE041F&#45;&gt;EAID_E82A74B4_E6F3_44df_AD6A_885EA2E0FE84 -->
<g id="edge17" class="edge"><title>EAID_7E7FDF87_9CF7_423d_95EB_BDC3F4CE041F&#45;&gt;EAID_E82A74B4_E6F3_44df_AD6A_885EA2E0FE84</title>
<path fill="none" stroke="black" d="M2086.36,-439.479C2098.4,-444.236 2110.42,-448.966 2122,-453.5 2126.82,-455.387 2131.72,-457.302 2136.67,-459.232"/>
<polygon fill="black" stroke="black" points="2135.65,-462.591 2146.24,-462.959 2138.19,-456.068 2135.65,-462.591"/>
</g>
<!-- EAID_7E7FDF87_9CF7_423d_95EB_BDC3F4CE041F&#45;&gt;EAID_9743B496_0C3F_4d33_806F_650C24E20B9E -->
<g id="edge11" class="edge"><title>EAID_7E7FDF87_9CF7_423d_95EB_BDC3F4CE041F&#45;&gt;EAID_9743B496_0C3F_4d33_806F_650C24E20B9E</title>
<path fill="none" stroke="black" d="M2086.31,-332.604C2098.36,-327.802 2110.4,-323.043 2122,-318.5 2128.81,-315.835 2135.78,-313.122 2142.83,-310.395"/>
<polygon fill="black" stroke="black" points="2144.41,-313.537 2152.47,-306.669 2141.88,-307.007 2144.41,-313.537"/>
</g>
<!-- EAID_7E7FDF87_9CF7_423d_95EB_BDC3F4CE041F&#45;&gt;EAID_C5D61A79_57A9_4431_8A8A_FD99FE32512C -->
<g id="edge12" class="edge"><title>EAID_7E7FDF87_9CF7_423d_95EB_BDC3F4CE041F&#45;&gt;EAID_C5D61A79_57A9_4431_8A8A_FD99FE32512C</title>
<path fill="none" stroke="black" d="M1999.76,-327.914C2032.33,-287.955 2077.85,-234.663 2122,-191.5 2148.87,-165.236 2180.24,-138.469 2208.43,-115.646"/>
<polygon fill="black" stroke="black" points="2210.69,-118.314 2216.29,-109.317 2206.3,-112.862 2210.69,-118.314"/>
</g>
<!-- EAID_D853A1A8_76FC_4ff6_B5B6_09B18C46CDC3 -->
<g id="node15" class="node"><title>EAID_D853A1A8_76FC_4ff6_B5B6_09B18C46CDC3</title>
<image xlink:href="img/control1.png" width="106px" height="75px" preserveAspectRatio="xMinYMin meet" x="2236" y="-438.5"/>
<text text-anchor="start" x="2167" y="-340.3" font-family="Times New Roman,serif" font-size="24.00">save document into server</text>
</g>
<!-- EAID_7E7FDF87_9CF7_423d_95EB_BDC3F4CE041F&#45;&gt;EAID_D853A1A8_76FC_4ff6_B5B6_09B18C46CDC3 -->
<g id="edge16" class="edge"><title>EAID_7E7FDF87_9CF7_423d_95EB_BDC3F4CE041F&#45;&gt;EAID_D853A1A8_76FC_4ff6_B5B6_09B18C46CDC3</title>
<path fill="none" stroke="black" d="M2086.18,-386.5C2106.08,-386.5 2126.66,-386.5 2146.72,-386.5"/>
<polygon fill="black" stroke="black" points="2146.84,-390 2156.84,-386.5 2146.84,-383 2146.84,-390"/>
</g>
<!-- EAID_2EA84D28_DA84_4b0b_804D_B2A30EC82900&#45;&gt;EAID_E101F3EB_5588_451d_A629_F902491647E0 -->
<g id="edge14" class="edge"><title>EAID_2EA84D28_DA84_4b0b_804D_B2A30EC82900&#45;&gt;EAID_E101F3EB_5588_451d_A629_F902491647E0</title>
<path fill="none" stroke="black" d="M3380.14,-542.539C3388.56,-544.035 3397.23,-545.577 3405.98,-547.131"/>
<polygon fill="black" stroke="black" points="3405.43,-550.587 3415.89,-548.891 3406.65,-543.695 3405.43,-550.587"/>
</g>
<!-- EAID_5C609404_1B53_4dc5_9ABD_E5485CFE9323 -->
<g id="node14" class="node"><title>EAID_5C609404_1B53_4dc5_9ABD_E5485CFE9323</title>
<image xlink:href="img/activity_icon.png" width="30px" height="20px" preserveAspectRatio="xMinYMin meet" x="3524" y="-327.5"/>
<text text-anchor="start" x="3447.5" y="-285.3" font-family="Times New Roman,serif" font-weight="bold" font-size="24.00">user management</text>
</g>
<!-- EAID_2EA84D28_DA84_4b0b_804D_B2A30EC82900&#45;&gt;EAID_5C609404_1B53_4dc5_9ABD_E5485CFE9323 -->
<g id="edge13" class="edge"><title>EAID_2EA84D28_DA84_4b0b_804D_B2A30EC82900&#45;&gt;EAID_5C609404_1B53_4dc5_9ABD_E5485CFE9323</title>
<path fill="none" stroke="black" d="M3358.45,-468.971C3401.86,-428.613 3458.33,-376.11 3496.14,-340.957"/>
<polygon fill="black" stroke="black" points="3498.97,-343.102 3503.91,-333.73 3494.2,-337.976 3498.97,-343.102"/>
</g>
<!-- EAID_59DD8268_DFC0_46bb_A601_91E1C904B34F -->
<g id="node16" class="node"><title>EAID_59DD8268_DFC0_46bb_A601_91E1C904B34F</title>
<image xlink:href="img/control1.png" width="106px" height="75px" preserveAspectRatio="xMinYMin meet" x="2561.5" y="-276.5"/>
<text text-anchor="start" x="2537" y="-178.3" font-family="Times New Roman,serif" font-size="24.00">delete document</text>
</g>
<!-- EAID_D853A1A8_76FC_4ff6_B5B6_09B18C46CDC3&#45;&gt;EAID_59DD8268_DFC0_46bb_A601_91E1C904B34F -->
<g id="edge20" class="edge"><title>EAID_D853A1A8_76FC_4ff6_B5B6_09B18C46CDC3&#45;&gt;EAID_59DD8268_DFC0_46bb_A601_91E1C904B34F</title>
<path fill="none" stroke="black" d="M2421.32,-334.872C2433.15,-329.571 2444.86,-324.077 2456,-318.5 2459.73,-316.631 2486.87,-300.449 2517.56,-282.022"/>
<polygon fill="black" stroke="black" points="2519.53,-284.925 2526.3,-276.775 2515.92,-278.924 2519.53,-284.925"/>
</g>
<!-- EAID_F29DF3CE_CB77_49c5_B944_DC65188FD4C2 -->
<g id="node17" class="node"><title>EAID_F29DF3CE_CB77_49c5_B944_DC65188FD4C2</title>
<image xlink:href="img/activity_icon.png" width="30px" height="20px" preserveAspectRatio="xMinYMin meet" x="2867" y="-293.5"/>
<text text-anchor="start" x="2817.5" y="-251.3" font-family="Times New Roman,serif" font-weight="bold" font-size="24.00">local storage</text>
</g>
<!-- EAID_D853A1A8_76FC_4ff6_B5B6_09B18C46CDC3&#45;&gt;EAID_F29DF3CE_CB77_49c5_B944_DC65188FD4C2 -->
<g id="edge30" class="edge"><title>EAID_D853A1A8_76FC_4ff6_B5B6_09B18C46CDC3&#45;&gt;EAID_F29DF3CE_CB77_49c5_B944_DC65188FD4C2</title>
<path fill="none" stroke="black" d="M2421.22,-347.827C2444.68,-341.571 2468.98,-335.512 2492,-330.5 2493.87,-330.093 2683.26,-299.911 2796.89,-281.814"/>
<polygon fill="black" stroke="black" points="2797.64,-285.239 2806.96,-280.21 2796.54,-278.326 2797.64,-285.239"/>
</g>
<!-- EAID_2CE00735_F5AB_43a2_BAEE_A03843D2C9BC -->
<g id="node20" class="node"><title>EAID_2CE00735_F5AB_43a2_BAEE_A03843D2C9BC</title>
<image xlink:href="img/control1.png" width="106px" height="75px" preserveAspectRatio="xMinYMin meet" x="2561" y="-585.5"/>
<text text-anchor="start" x="2502" y="-487.3" font-family="Times New Roman,serif" font-size="24.00">display success message</text>
</g>
<!-- EAID_D853A1A8_76FC_4ff6_B5B6_09B18C46CDC3&#45;&gt;EAID_2CE00735_F5AB_43a2_BAEE_A03843D2C9BC -->
<g id="edge28" class="edge"><title>EAID_D853A1A8_76FC_4ff6_B5B6_09B18C46CDC3&#45;&gt;EAID_2CE00735_F5AB_43a2_BAEE_A03843D2C9BC</title>
<path fill="none" stroke="black" d="M2421.39,-438.288C2433.15,-443.298 2444.83,-448.411 2456,-453.5 2467.65,-458.805 2479.68,-464.513 2491.66,-470.35"/>
<polygon fill="black" stroke="black" points="2490.29,-473.575 2500.81,-474.835 2493.37,-467.29 2490.29,-473.575"/>
</g>
<!-- EAID_108CF28F_F2B1_424a_BA4B_408578ADA439 -->
<g id="node21" class="node"><title>EAID_108CF28F_F2B1_424a_BA4B_408578ADA439</title>
<image xlink:href="img/control1.png" width="106px" height="75px" preserveAspectRatio="xMinYMin meet" x="2561" y="-450.5"/>
<text text-anchor="start" x="2518" y="-352.3" font-family="Times New Roman,serif" font-size="24.00">download document</text>
</g>
<!-- EAID_D853A1A8_76FC_4ff6_B5B6_09B18C46CDC3&#45;&gt;EAID_108CF28F_F2B1_424a_BA4B_408578ADA439 -->
<g id="edge29" class="edge"><title>EAID_D853A1A8_76FC_4ff6_B5B6_09B18C46CDC3&#45;&gt;EAID_108CF28F_F2B1_424a_BA4B_408578ADA439</title>
<path fill="none" stroke="black" d="M2421.38,-391.381C2446.71,-392.322 2473.06,-393.301 2497.82,-394.221"/>
<polygon fill="black" stroke="black" points="2497.84,-397.724 2507.96,-394.598 2498.1,-390.729 2497.84,-397.724"/>
</g>
<!-- EAID_59DD8268_DFC0_46bb_A601_91E1C904B34F&#45;&gt;EAID_F29DF3CE_CB77_49c5_B944_DC65188FD4C2 -->
<g id="edge19" class="edge"><title>EAID_59DD8268_DFC0_46bb_A601_91E1C904B34F&#45;&gt;EAID_F29DF3CE_CB77_49c5_B944_DC65188FD4C2</title>
<path fill="none" stroke="black" d="M2701.57,-238.846C2732.16,-243.916 2766.48,-249.605 2796.83,-254.634"/>
<polygon fill="black" stroke="black" points="2796.52,-258.13 2806.96,-256.312 2797.66,-251.224 2796.52,-258.13"/>
</g>
<!-- EAID_AD50E5DD_3D31_44e1_B210_A51F23F5C85D&#45;&gt;EAID_6EFA2053_ACBB_4323_BAE7_3F82665F4CEB -->
<g id="edge23" class="edge"><title>EAID_AD50E5DD_3D31_44e1_B210_A51F23F5C85D&#45;&gt;EAID_6EFA2053_ACBB_4323_BAE7_3F82665F4CEB</title>
<path fill="none" stroke="black" d="M1475.87,-252.104C1510.32,-274.951 1549.79,-301.127 1584.48,-324.139"/>
<polygon fill="black" stroke="black" points="1582.93,-327.308 1593.2,-329.918 1586.8,-321.474 1582.93,-327.308"/>
</g>
<!-- EAID_AD50E5DD_3D31_44e1_B210_A51F23F5C85D&#45;&gt;EAID_5C609404_1B53_4dc5_9ABD_E5485CFE9323 -->
<g id="edge22" class="edge"><title>EAID_AD50E5DD_3D31_44e1_B210_A51F23F5C85D&#45;&gt;EAID_5C609404_1B53_4dc5_9ABD_E5485CFE9323</title>
<path fill="none" stroke="black" d="M1534.06,-170.924C1647.67,-155.373 1809.19,-137.5 1951.5,-137.5 1951.5,-137.5 1951.5,-137.5 3101,-137.5 3245.32,-137.5 3400.14,-217.392 3480.97,-265.992"/>
<polygon fill="black" stroke="black" points="3479.62,-269.265 3489.98,-271.465 3483.25,-263.282 3479.62,-269.265"/>
</g>
<!-- EAID_297DC0C0_B5DD_4e27_B16C_C86577BD503A -->
<g id="node19" class="node"><title>EAID_297DC0C0_B5DD_4e27_B16C_C86577BD503A</title>
<image xlink:href="img/control1.png" width="106px" height="75px" preserveAspectRatio="xMinYMin meet" x="2829" y="-496.5"/>
<text text-anchor="start" x="2782.5" y="-398.3" font-family="Times New Roman,serif" font-size="24.00">display students page</text>
</g>
<!-- EAID_297DC0C0_B5DD_4e27_B16C_C86577BD503A&#45;&gt;EAID_89C64AD8_36DD_4f7f_A3D5_3FC9D839A92B -->
<g id="edge25" class="edge"><title>EAID_297DC0C0_B5DD_4e27_B16C_C86577BD503A&#45;&gt;EAID_89C64AD8_36DD_4f7f_A3D5_3FC9D839A92B</title>
<path fill="none" stroke="black" d="M2991.07,-486.122C2999.88,-489.501 3008.7,-492.88 3017.27,-496.168"/>
<polygon fill="black" stroke="black" points="3016.25,-499.525 3026.84,-499.836 3018.76,-492.988 3016.25,-499.525"/>
</g>
<!-- EAID_2CE00735_F5AB_43a2_BAEE_A03843D2C9BC&#45;&gt;EAID_2923E7A8_4260_4627_88A8_68A3F5CD6017 -->
<g id="edge27" class="edge"><title>EAID_2CE00735_F5AB_43a2_BAEE_A03843D2C9BC&#45;&gt;EAID_2923E7A8_4260_4627_88A8_68A3F5CD6017</title>
<path fill="none" stroke="black" d="M2736.1,-552.656C2752.74,-555.29 2769.64,-557.963 2785.72,-560.507"/>
<polygon fill="black" stroke="black" points="2785.2,-563.968 2795.62,-562.073 2786.29,-557.054 2785.2,-563.968"/>
</g>
<!-- EAID_2CE00735_F5AB_43a2_BAEE_A03843D2C9BC&#45;&gt;EAID_297DC0C0_B5DD_4e27_B16C_C86577BD503A -->
<g id="edge26" class="edge"><title>EAID_2CE00735_F5AB_43a2_BAEE_A03843D2C9BC&#45;&gt;EAID_297DC0C0_B5DD_4e27_B16C_C86577BD503A</title>
<path fill="none" stroke="black" d="M2736.1,-492.907C2744.74,-490.009 2753.45,-487.089 2762.08,-484.196"/>
<polygon fill="black" stroke="black" points="2763.41,-487.441 2771.78,-480.944 2761.19,-480.804 2763.41,-487.441"/>
</g>
</g>
</svg>
