<?xml version="1.0" encoding="UTF-8" standalone="no"?>
<!DOCTYPE svg PUBLIC "-//W3C//DTD SVG 1.1//EN"
 "http://www.w3.org/Graphics/SVG/1.1/DTD/svg11.dtd">
<!-- Generated by graphviz version 2.38.0 (20140413.2041)
 -->
<!-- Title: g Pages: 1 -->
<svg width="1991pt" height="465pt"
 viewBox="0.00 0.00 1991.00 465.00" xmlns="http://www.w3.org/2000/svg" xmlns:xlink="http://www.w3.org/1999/xlink">
<g id="graph0" class="graph" transform="scale(1 1) rotate(0) translate(4 461)">
<title>g</title>
<polygon fill="white" stroke="none" points="-4,4 -4,-461 1987,-461 1987,4 -4,4"/>
<!-- EAID_75381C89_D87B_42f6_9D4A_9A0B394F30D8 -->
<g id="node1" class="node"><title>EAID_75381C89_D87B_42f6_9D4A_9A0B394F30D8</title>
<image xlink:href="img/actor1.png" width="61px" height="90px" preserveAspectRatio="xMinYMin meet" x="10.5" y="-332.5"/>
<text text-anchor="start" x="19" y="-219.3" font-family="Times New Roman,serif" font-size="24.00">User</text>
</g>
<!-- EAID_4AED8E18_A752_480b_90C7_BEBDA24E9014 -->
<g id="node2" class="node"><title>EAID_4AED8E18_A752_480b_90C7_BEBDA24E9014</title>
<image xlink:href="img/boundary3.png" width="115px" height="67px" preserveAspectRatio="xMinYMin meet" x="202" y="-237.5"/>
<text text-anchor="start" x="158" y="-147.3" font-family="Times New Roman,serif" font-size="24.00">Course list view page</text>
</g>
<!-- EAID_75381C89_D87B_42f6_9D4A_9A0B394F30D8&#45;&gt;EAID_4AED8E18_A752_480b_90C7_BEBDA24E9014 -->
<g id="edge1" class="edge"><title>EAID_75381C89_D87B_42f6_9D4A_9A0B394F30D8&#45;&gt;EAID_4AED8E18_A752_480b_90C7_BEBDA24E9014</title>
<path fill="none" stroke="black" d="M81.2094,-257.277C97.512,-251.027 117.338,-243.426 137.74,-235.604"/>
<polygon fill="black" stroke="black" points="139.059,-238.847 147.144,-231.999 136.553,-232.311 139.059,-238.847"/>
</g>
<!-- EAID_D1C073D1_7486_48af_AE95_763BB2F84FC1 -->
<g id="node3" class="node"><title>EAID_D1C073D1_7486_48af_AE95_763BB2F84FC1</title>
<image xlink:href="img/boundary3.png" width="102px" height="67px" preserveAspectRatio="xMinYMin meet" x="1871" y="-450.5"/>
<text text-anchor="start" x="1871" y="-360.3" font-family="Times New Roman,serif" font-size="24.00">Homepage</text>
</g>
<!-- EAID_75381C89_D87B_42f6_9D4A_9A0B394F30D8&#45;&gt;EAID_D1C073D1_7486_48af_AE95_763BB2F84FC1 -->
<g id="edge2" class="edge"><title>EAID_75381C89_D87B_42f6_9D4A_9A0B394F30D8&#45;&gt;EAID_D1C073D1_7486_48af_AE95_763BB2F84FC1</title>
<path fill="none" stroke="black" d="M81.2323,-303.757C92.3838,-311.578 104.804,-319.453 117,-325.5 290.848,-411.701 342.455,-446.5 536.5,-446.5 536.5,-446.5 536.5,-446.5 1373,-446.5 1574.07,-446.5 1626.14,-457.226 1825,-427.5 1833.54,-426.224 1842.42,-424.488 1851.17,-422.523"/>
<polygon fill="black" stroke="black" points="1852.04,-425.913 1860.98,-420.218 1850.44,-419.099 1852.04,-425.913"/>
</g>
<!-- EAID_36E4481C_446E_43d4_876C_73FB5D8F7C2E -->
<g id="node4" class="node"><title>EAID_36E4481C_446E_43d4_876C_73FB5D8F7C2E</title>
<image xlink:href="img/control1.png" width="106px" height="75px" preserveAspectRatio="xMinYMin meet" x="485" y="-411.5"/>
<text text-anchor="start" x="482.5" y="-313.3" font-family="Times New Roman,serif" font-size="24.00">Buy button </text>
</g>
<!-- EAID_75381C89_D87B_42f6_9D4A_9A0B394F30D8&#45;&gt;EAID_36E4481C_446E_43d4_876C_73FB5D8F7C2E -->
<g id="edge3" class="edge"><title>EAID_75381C89_D87B_42f6_9D4A_9A0B394F30D8&#45;&gt;EAID_36E4481C_446E_43d4_876C_73FB5D8F7C2E</title>
<path fill="none" stroke="black" d="M81.0608,-279.921C92.6391,-282.07 105.322,-284.401 117,-286.5 237.606,-308.175 377.907,-332.387 461.832,-346.763"/>
<polygon fill="black" stroke="black" points="461.335,-350.229 471.782,-348.466 462.517,-343.329 461.335,-350.229"/>
</g>
<!-- EAID_542A893E_26FE_4852_BB49_3BC6E2D6594C -->
<g id="node5" class="node"><title>EAID_542A893E_26FE_4852_BB49_3BC6E2D6594C</title>
<image xlink:href="img/control1.png" width="106px" height="75px" preserveAspectRatio="xMinYMin meet" x="206" y="-110.5"/>
<text text-anchor="start" x="127" y="-12.3" font-family="Times New Roman,serif" font-size="24.00">Click on purchasing options</text>
</g>
<!-- EAID_75381C89_D87B_42f6_9D4A_9A0B394F30D8&#45;&gt;EAID_542A893E_26FE_4852_BB49_3BC6E2D6594C -->
<g id="edge4" class="edge"><title>EAID_75381C89_D87B_42f6_9D4A_9A0B394F30D8&#45;&gt;EAID_542A893E_26FE_4852_BB49_3BC6E2D6594C</title>
<path fill="none" stroke="black" d="M64.557,-206.151C76.7505,-178.525 94.0335,-147.768 117,-125.5 117.565,-124.952 118.136,-124.407 118.712,-123.867"/>
<polygon fill="black" stroke="black" points="121.269,-126.279 126.473,-117.05 116.65,-121.019 121.269,-126.279"/>
</g>
<!-- EAID_36913A56_BDF7_40aa_8B63_90BF90C69BC8 -->
<g id="node6" class="node"><title>EAID_36913A56_BDF7_40aa_8B63_90BF90C69BC8</title>
<image xlink:href="img/control1.png" width="106px" height="75px" preserveAspectRatio="xMinYMin meet" x="759.5" y="-324.5"/>
<text text-anchor="start" x="696" y="-226.3" font-family="Times New Roman,serif" font-size="24.00">Select puchasing optison</text>
</g>
<!-- EAID_75381C89_D87B_42f6_9D4A_9A0B394F30D8&#45;&gt;EAID_36913A56_BDF7_40aa_8B63_90BF90C69BC8 -->
<g id="edge5" class="edge"><title>EAID_75381C89_D87B_42f6_9D4A_9A0B394F30D8&#45;&gt;EAID_36913A56_BDF7_40aa_8B63_90BF90C69BC8</title>
<path fill="none" stroke="black" d="M81.2513,-272.5C189.913,-272.5 495.739,-272.5 675.126,-272.5"/>
<polygon fill="black" stroke="black" points="675.163,-276 685.163,-272.5 675.163,-269 675.163,-276"/>
</g>
<!-- EAID_E07B7608_D4F8_4294_BAE0_1E0219BA76A3 -->
<g id="node11" class="node"><title>EAID_E07B7608_D4F8_4294_BAE0_1E0219BA76A3</title>
<image xlink:href="img/control1.png" width="106px" height="75px" preserveAspectRatio="xMinYMin meet" x="485" y="-227.5"/>
<text text-anchor="start" x="447.5" y="-129.3" font-family="Times New Roman,serif" font-size="24.00">Display list course </text>
</g>
<!-- EAID_4AED8E18_A752_480b_90C7_BEBDA24E9014&#45;&gt;EAID_E07B7608_D4F8_4294_BAE0_1E0219BA76A3 -->
<g id="edge10" class="edge"><title>EAID_4AED8E18_A752_480b_90C7_BEBDA24E9014&#45;&gt;EAID_E07B7608_D4F8_4294_BAE0_1E0219BA76A3</title>
<path fill="none" stroke="black" d="M370.87,-183.886C389.251,-182.956 408.305,-181.991 426.661,-181.061"/>
<polygon fill="black" stroke="black" points="426.968,-184.551 436.778,-180.549 426.614,-177.559 426.968,-184.551"/>
</g>
<!-- EAID_36CB897A_F09C_400b_B5E0_9C3006040D45 -->
<g id="node7" class="node"><title>EAID_36CB897A_F09C_400b_B5E0_9C3006040D45</title>
<image xlink:href="img/control1.png" width="106px" height="75px" preserveAspectRatio="xMinYMin meet" x="1319" y="-411.5"/>
<text text-anchor="start" x="1241" y="-313.3" font-family="Times New Roman,serif" font-size="24.00">Connect to course merchant</text>
</g>
<!-- EAID_36E4481C_446E_43d4_876C_73FB5D8F7C2E&#45;&gt;EAID_36CB897A_F09C_400b_B5E0_9C3006040D45 -->
<g id="edge6" class="edge"><title>EAID_36E4481C_446E_43d4_876C_73FB5D8F7C2E&#45;&gt;EAID_36CB897A_F09C_400b_B5E0_9C3006040D45</title>
<path fill="none" stroke="black" d="M603.132,-359.5C734.802,-359.5 1037.16,-359.5 1220.74,-359.5"/>
<polygon fill="black" stroke="black" points="1220.75,-363 1230.75,-359.5 1220.75,-356 1220.75,-363"/>
</g>
<!-- EAID_43D4A54F_75F8_4f0a_86C0_5CBEF62FA579 -->
<g id="node8" class="node"><title>EAID_43D4A54F_75F8_4f0a_86C0_5CBEF62FA579</title>
<image xlink:href="img/control1.png" width="106px" height="75px" preserveAspectRatio="xMinYMin meet" x="759" y="-189.5"/>
<text text-anchor="start" x="684" y="-91.3" font-family="Times New Roman,serif" font-size="24.00">Display purchasing options</text>
</g>
<!-- EAID_542A893E_26FE_4852_BB49_3BC6E2D6594C&#45;&gt;EAID_43D4A54F_75F8_4f0a_86C0_5CBEF62FA579 -->
<g id="edge7" class="edge"><title>EAID_542A893E_26FE_4852_BB49_3BC6E2D6594C&#45;&gt;EAID_43D4A54F_75F8_4f0a_86C0_5CBEF62FA579</title>
<path fill="none" stroke="black" d="M401.112,-75.3372C472.256,-84.1953 559.814,-95.6587 638,-107.5 646.431,-108.777 655.085,-110.133 663.812,-111.535"/>
<polygon fill="black" stroke="black" points="663.258,-114.991 673.689,-113.137 664.378,-108.081 663.258,-114.991"/>
</g>
<!-- EAID_342143AC_2A66_432c_829B_D38899F6C263 -->
<g id="node10" class="node"><title>EAID_342143AC_2A66_432c_829B_D38899F6C263</title>
<image xlink:href="img/control1.png" width="106px" height="75px" preserveAspectRatio="xMinYMin meet" x="1038" y="-324.5"/>
<text text-anchor="start" x="996.5" y="-226.3" font-family="Times New Roman,serif" font-size="24.00">Display final course</text>
</g>
<!-- EAID_36913A56_BDF7_40aa_8B63_90BF90C69BC8&#45;&gt;EAID_342143AC_2A66_432c_829B_D38899F6C263 -->
<g id="edge11" class="edge"><title>EAID_36913A56_BDF7_40aa_8B63_90BF90C69BC8&#45;&gt;EAID_342143AC_2A66_432c_829B_D38899F6C263</title>
<path fill="none" stroke="black" d="M938.709,-272.5C950.969,-272.5 963.362,-272.5 975.497,-272.5"/>
<polygon fill="black" stroke="black" points="975.621,-276 985.621,-272.5 975.621,-269 975.621,-276"/>
</g>
<!-- EAID_E293D5B8_39C6_4088_9DB2_EE7DBD6B2E36 -->
<g id="node9" class="node"><title>EAID_E293D5B8_39C6_4088_9DB2_EE7DBD6B2E36</title>
<image xlink:href="img/control1.png" width="106px" height="75px" preserveAspectRatio="xMinYMin meet" x="1634" y="-411.5"/>
<text text-anchor="start" x="1559" y="-313.3" font-family="Times New Roman,serif" font-size="24.00">Verifiy the payment details</text>
</g>
<!-- EAID_36CB897A_F09C_400b_B5E0_9C3006040D45&#45;&gt;EAID_E293D5B8_39C6_4088_9DB2_EE7DBD6B2E36 -->
<g id="edge8" class="edge"><title>EAID_36CB897A_F09C_400b_B5E0_9C3006040D45&#45;&gt;EAID_E293D5B8_39C6_4088_9DB2_EE7DBD6B2E36</title>
<path fill="none" stroke="black" d="M1513.02,-359.5C1521.56,-359.5 1530.17,-359.5 1538.74,-359.5"/>
<polygon fill="black" stroke="black" points="1538.77,-363 1548.77,-359.5 1538.77,-356 1538.77,-363"/>
</g>
<!-- EAID_43D4A54F_75F8_4f0a_86C0_5CBEF62FA579&#45;&gt;EAID_342143AC_2A66_432c_829B_D38899F6C263 -->
<g id="edge12" class="edge"><title>EAID_43D4A54F_75F8_4f0a_86C0_5CBEF62FA579&#45;&gt;EAID_342143AC_2A66_432c_829B_D38899F6C263</title>
<path fill="none" stroke="black" d="M933.071,-196.124C947.417,-203.129 962.029,-210.263 976.275,-217.218"/>
<polygon fill="black" stroke="black" points="975.055,-220.517 985.577,-221.76 978.126,-214.227 975.055,-220.517"/>
</g>
<!-- EAID_E293D5B8_39C6_4088_9DB2_EE7DBD6B2E36&#45;&gt;EAID_D1C073D1_7486_48af_AE95_763BB2F84FC1 -->
<g id="edge14" class="edge"><title>EAID_E293D5B8_39C6_4088_9DB2_EE7DBD6B2E36&#45;&gt;EAID_D1C073D1_7486_48af_AE95_763BB2F84FC1</title>
<path fill="none" stroke="black" d="M1825.22,-384.824C1834.07,-386.457 1842.76,-388.06 1851.06,-389.593"/>
<polygon fill="black" stroke="black" points="1850.52,-393.053 1860.99,-391.426 1851.79,-386.169 1850.52,-393.053"/>
</g>
<!-- EAID_342143AC_2A66_432c_829B_D38899F6C263&#45;&gt;EAID_36CB897A_F09C_400b_B5E0_9C3006040D45 -->
<g id="edge9" class="edge"><title>EAID_342143AC_2A66_432c_829B_D38899F6C263&#45;&gt;EAID_36CB897A_F09C_400b_B5E0_9C3006040D45</title>
<path fill="none" stroke="black" d="M1195.18,-304.772C1203.74,-307.435 1212.49,-310.159 1221.29,-312.899"/>
<polygon fill="black" stroke="black" points="1220.27,-316.247 1230.86,-315.877 1222.35,-309.563 1220.27,-316.247"/>
</g>
<!-- EAID_E07B7608_D4F8_4294_BAE0_1E0219BA76A3&#45;&gt;EAID_43D4A54F_75F8_4f0a_86C0_5CBEF62FA579 -->
<g id="edge13" class="edge"><title>EAID_E07B7608_D4F8_4294_BAE0_1E0219BA76A3&#45;&gt;EAID_43D4A54F_75F8_4f0a_86C0_5CBEF62FA579</title>
<path fill="none" stroke="black" d="M638.035,-161.62C646.541,-160.434 655.253,-159.219 664.025,-157.996"/>
<polygon fill="black" stroke="black" points="664.525,-161.46 673.946,-156.612 663.559,-154.527 664.525,-161.46"/>
</g>
</g>
</svg>
