<?xml version="1.0" encoding="UTF-8" standalone="no"?>
<!DOCTYPE svg PUBLIC "-//W3C//DTD SVG 1.1//EN"
 "http://www.w3.org/Graphics/SVG/1.1/DTD/svg11.dtd">
<!-- Generated by graphviz version 2.38.0 (20140413.2041)
 -->
<!-- Title: g Pages: 1 -->
<svg width="452pt" height="404pt"
 viewBox="0.00 0.00 451.80 404.00" xmlns="http://www.w3.org/2000/svg" xmlns:xlink="http://www.w3.org/1999/xlink">
<g id="graph0" class="graph" transform="scale(1 1) rotate(0) translate(4 400)">
<title>g</title>
<polygon fill="white" stroke="none" points="-4,4 -4,-400 447.803,-400 447.803,4 -4,4"/>
<!-- Actor -->
<g id="node1" class="node"><title>Actor</title>
<ellipse fill="none" stroke="black" cx="109.622" cy="-378" rx="31.6951" ry="18"/>
<text text-anchor="middle" x="109.622" y="-374.3" font-family="Times New Roman,serif" font-size="14.00">Actor</text>
</g>
<!-- Create Event Screen -->
<g id="node2" class="node"><title>Create Event Screen</title>
<ellipse fill="none" stroke="black" cx="109.622" cy="-306" rx="84.485" ry="18"/>
<text text-anchor="middle" x="109.622" y="-302.3" font-family="Times New Roman,serif" font-size="14.00">Create Event Screen</text>
</g>
<!-- Actor&#45;&gt;Create Event Screen -->
<g id="edge1" class="edge"><title>Actor&#45;&gt;Create Event Screen</title>
<path fill="none" stroke="black" d="M109.622,-359.697C109.622,-351.983 109.622,-342.712 109.622,-334.112"/>
<polygon fill="black" stroke="black" points="113.122,-334.104 109.622,-324.104 106.122,-334.104 113.122,-334.104"/>
</g>
<!-- Handle Validate Error -->
<g id="node3" class="node"><title>Handle Validate Error</title>
<ellipse fill="none" stroke="black" cx="101.622" cy="-90" rx="89.0842" ry="18"/>
<text text-anchor="middle" x="101.622" y="-86.3" font-family="Times New Roman,serif" font-size="14.00">Handle Validate Error</text>
</g>
<!-- Create Event Screen&#45;&gt;Handle Validate Error -->
<g id="edge8" class="edge"><title>Create Event Screen&#45;&gt;Handle Validate Error</title>
<path fill="none" stroke="black" d="M60.0658,-291.356C40.493,-283.273 19.9943,-270.81 8.62224,-252 -20.7221,-203.462 34.0285,-145.706 71.2577,-114.253"/>
<polygon fill="black" stroke="black" points="73.8639,-116.641 79.36,-107.583 69.415,-111.236 73.8639,-116.641"/>
</g>
<!-- Validate hashtag containts alphanume, dash, underscore -->
<g id="node5" class="node"><title>Validate hashtag containts alphanume, dash, underscore</title>
<ellipse fill="none" stroke="black" cx="230.622" cy="-234" rx="213.362" ry="18"/>
<text text-anchor="middle" x="230.622" y="-230.3" font-family="Times New Roman,serif" font-size="14.00">Validate hashtag containts alphanume, dash, underscore</text>
</g>
<!-- Create Event Screen&#45;&gt;Validate hashtag containts alphanume, dash, underscore -->
<g id="edge7" class="edge"><title>Create Event Screen&#45;&gt;Validate hashtag containts alphanume, dash, underscore</title>
<path fill="none" stroke="black" d="M137.382,-288.941C153.662,-279.523 174.468,-267.486 192.293,-257.174"/>
<polygon fill="black" stroke="black" points="194.401,-259.998 201.304,-251.961 190.895,-253.939 194.401,-259.998"/>
</g>
<!-- Event Collection -->
<g id="node4" class="node"><title>Event Collection</title>
<ellipse fill="none" stroke="black" cx="162.622" cy="-18" rx="70.6878" ry="18"/>
<text text-anchor="middle" x="162.622" y="-14.3" font-family="Times New Roman,serif" font-size="14.00">Event Collection</text>
</g>
<!-- Handle Validate Error&#45;&gt;Event Collection -->
<g id="edge2" class="edge"><title>Handle Validate Error&#45;&gt;Event Collection</title>
<path fill="none" stroke="black" d="M116.389,-72.055C123.881,-63.4567 133.119,-52.8566 141.362,-43.3974"/>
<polygon fill="black" stroke="black" points="144.061,-45.6276 147.992,-35.789 138.783,-41.0287 144.061,-45.6276"/>
</g>
<!-- Validate hashtag containts alphanume, dash, underscore&#45;&gt;Handle Validate Error -->
<g id="edge3" class="edge"><title>Validate hashtag containts alphanume, dash, underscore&#45;&gt;Handle Validate Error</title>
<path fill="none" stroke="black" d="M161.079,-216.957C141.456,-209.04 122.081,-197.312 109.622,-180 96.9126,-162.339 95.728,-137.316 97.2551,-118.298"/>
<polygon fill="black" stroke="black" points="100.755,-118.488 98.3634,-108.167 93.7967,-117.727 100.755,-118.488"/>
</g>
<!-- Validate hashtag uniqueness -->
<g id="node6" class="node"><title>Validate hashtag uniqueness</title>
<ellipse fill="none" stroke="black" cx="230.622" cy="-162" rx="112.38" ry="18"/>
<text text-anchor="middle" x="230.622" y="-158.3" font-family="Times New Roman,serif" font-size="14.00">Validate hashtag uniqueness</text>
</g>
<!-- Validate hashtag containts alphanume, dash, underscore&#45;&gt;Validate hashtag uniqueness -->
<g id="edge4" class="edge"><title>Validate hashtag containts alphanume, dash, underscore&#45;&gt;Validate hashtag uniqueness</title>
<path fill="none" stroke="black" d="M230.622,-215.697C230.622,-207.983 230.622,-198.712 230.622,-190.112"/>
<polygon fill="black" stroke="black" points="234.122,-190.104 230.622,-180.104 227.122,-190.104 234.122,-190.104"/>
</g>
<!-- Validate hashtag uniqueness&#45;&gt;Handle Validate Error -->
<g id="edge6" class="edge"><title>Validate hashtag uniqueness&#45;&gt;Handle Validate Error</title>
<path fill="none" stroke="black" d="M200.377,-144.588C182.377,-134.82 159.361,-122.331 140.079,-111.868"/>
<polygon fill="black" stroke="black" points="141.691,-108.761 131.233,-107.068 138.353,-114.913 141.691,-108.761"/>
</g>
<!-- Validate hashtag uniqueness&#45;&gt;Event Collection -->
<g id="edge5" class="edge"><title>Validate hashtag uniqueness&#45;&gt;Event Collection</title>
<path fill="none" stroke="black" d="M226.125,-143.7C221.006,-125.337 211.756,-95.75 199.622,-72 194.721,-62.4065 188.293,-52.555 182.172,-43.9881"/>
<polygon fill="black" stroke="black" points="184.969,-41.8839 176.221,-35.9065 179.332,-46.0344 184.969,-41.8839"/>
</g>
</g>
</svg>
