<?xml version="1.0" encoding="UTF-8" standalone="no"?>
<!DOCTYPE svg PUBLIC "-//W3C//DTD SVG 1.1//EN"
 "http://www.w3.org/Graphics/SVG/1.1/DTD/svg11.dtd">
<!-- Generated by graphviz version 2.38.0 (20140413.2041)
 -->
<!-- Title: g Pages: 1 -->
<svg width="3102pt" height="516pt"
 viewBox="0.00 0.00 3102.00 516.00" xmlns="http://www.w3.org/2000/svg" xmlns:xlink="http://www.w3.org/1999/xlink">
<g id="graph0" class="graph" transform="scale(1 1) rotate(0) translate(4 512)">
<title>g</title>
<polygon fill="white" stroke="none" points="-4,4 -4,-512 3098,-512 3098,4 -4,4"/>
<!-- a3dbd36228dd911e8a663cf55085fe449 -->
<g id="node1" class="node"><title>a3dbd36228dd911e8a663cf55085fe449</title>
<polygon fill="none" stroke="black" points="1843,-508 1694,-508 1694,-472 1843,-472 1843,-508"/>
<text text-anchor="middle" x="1768.5" y="-483.8" font-family="Times New Roman,serif" font-size="24.00">NamedVector</text>
</g>
<!-- a3dc2db6c8dd911e8a663cf55085fe449 -->
<g id="node2" class="node"><title>a3dc2db6c8dd911e8a663cf55085fe449</title>
<polygon fill="none" stroke="black" points="1842,-454 1695,-454 1695,-418 1842,-418 1842,-454"/>
<text text-anchor="middle" x="1768.5" y="-429.8" font-family="Times New Roman,serif" font-size="24.00">RepoBrowser</text>
</g>
<!-- a3dc6374d8dd911e8a663cf55085fe449 -->
<g id="node3" class="node"><title>a3dc6374d8dd911e8a663cf55085fe449</title>
<polygon fill="none" stroke="black" points="2664,-454 2486,-454 2486,-418 2664,-418 2664,-454"/>
<text text-anchor="middle" x="2575" y="-429.8" font-family="Times New Roman,serif" font-size="24.00">RootPopupMenu</text>
</g>
<!-- a3dc17b708dd911e8a663cf55085fe449 -->
<g id="node4" class="node"><title>a3dc17b708dd911e8a663cf55085fe449</title>
<polygon fill="none" stroke="black" points="3022,-400 2885,-400 2885,-364 3022,-364 3022,-400"/>
<text text-anchor="middle" x="2953.5" y="-375.8" font-family="Times New Roman,serif" font-size="24.00">PopUpMenu</text>
</g>
<!-- a3dc573a88dd911e8a663cf55085fe449 -->
<g id="node5" class="node"><title>a3dc573a88dd911e8a663cf55085fe449</title>
<polygon fill="none" stroke="black" points="3061.5,-346 2845.5,-346 2845.5,-310 3061.5,-310 3061.5,-346"/>
<text text-anchor="middle" x="2953.5" y="-321.8" font-family="Times New Roman,serif" font-size="24.00">RepositoryTreePanel</text>
</g>
<!-- a3dbc4b928dd911e8a663cf55085fe449 -->
<g id="node6" class="node"><title>a3dbc4b928dd911e8a663cf55085fe449</title>
<polygon fill="none" stroke="black" points="2243,-292 2063,-292 2063,-256 2243,-256 2243,-292"/>
<text text-anchor="middle" x="2153" y="-267.8" font-family="Times New Roman,serif" font-size="24.00">TableFilterDemo</text>
</g>
<!-- a3dbb39ef8dd911e8a663cf55085fe449 -->
<g id="node7" class="node"><title>a3dbb39ef8dd911e8a663cf55085fe449</title>
<polygon fill="none" stroke="black" points="2624,-238 2526,-238 2526,-202 2624,-202 2624,-238"/>
<text text-anchor="middle" x="2575" y="-213.8" font-family="Times New Roman,serif" font-size="24.00">FileTree</text>
</g>
<!-- a3dbd5cdb8dd911e8a663cf55085fe449 -->
<g id="node8" class="node"><title>a3dbd5cdb8dd911e8a663cf55085fe449</title>
<polygon fill="none" stroke="black" points="3094,-184 2813,-184 2813,-148 3094,-148 3094,-184"/>
<text text-anchor="middle" x="2953.5" y="-159.8" font-family="Times New Roman,serif" font-size="24.00">CheckBoxNodeTreeSample</text>
</g>
<!-- a3dbdab148dd911e8a663cf55085fe449 -->
<g id="node9" class="node"><title>a3dbdab148dd911e8a663cf55085fe449</title>
<polygon fill="none" stroke="black" points="3037.5,-130 2869.5,-130 2869.5,-94 3037.5,-94 3037.5,-130"/>
<text text-anchor="middle" x="2953.5" y="-105.8" font-family="Times New Roman,serif" font-size="24.00">Anonymoustype</text>
</g>
<!-- a3dbd83e88dd911e8a663cf55085fe449 -->
<g id="node10" class="node"><title>a3dbd83e88dd911e8a663cf55085fe449</title>
<polygon fill="none" stroke="black" points="3067.5,-76 2839.5,-76 2839.5,-40 3067.5,-40 3067.5,-76"/>
<text text-anchor="middle" x="2953.5" y="-51.8" font-family="Times New Roman,serif" font-size="24.00">CheckBoxNodeEditor</text>
</g>
<!-- a3dc6f9b58dd911e8a663cf55085fe449 -->
<g id="node11" class="node"><title>a3dc6f9b58dd911e8a663cf55085fe449</title>
<polygon fill="none" stroke="black" points="2235,-76 2071,-76 2071,-40 2235,-40 2235,-76"/>
<text text-anchor="middle" x="2153" y="-51.8" font-family="Times New Roman,serif" font-size="24.00">RepositoryTree</text>
</g>
<!-- a3dbd35c98dd911e8a663cf55085fe449 -->
<g id="node12" class="node"><title>a3dbd35c98dd911e8a663cf55085fe449</title>
<polygon fill="none" stroke="black" points="1225.5,-184 1058.5,-184 1058.5,-148 1225.5,-148 1225.5,-184"/>
<text text-anchor="middle" x="1142" y="-159.8" font-family="Times New Roman,serif" font-size="24.00">CheckBoxNode</text>
</g>
<!-- a3dbdab768dd911e8a663cf55085fe449 -->
<g id="node13" class="node"><title>a3dbdab768dd911e8a663cf55085fe449</title>
<polygon fill="none" stroke="black" points="988,-144 734,-144 734,-108 988,-108 988,-144"/>
<text text-anchor="middle" x="861" y="-119.8" font-family="Times New Roman,serif" font-size="24.00">CheckBoxNodeRenderer</text>
</g>
<!-- a3db917068dd911e8a663cf55085fe449 -->
<g id="node14" class="node"><title>a3db917068dd911e8a663cf55085fe449</title>
<polygon fill="none" stroke="black" points="654.5,-90 564.5,-90 564.5,-54 654.5,-54 654.5,-90"/>
<text text-anchor="middle" x="609.5" y="-65.8" font-family="Times New Roman,serif" font-size="24.00">FileList</text>
</g>
<!-- a3dc091768dd911e8a663cf55085fe449 -->
<g id="node15" class="node"><title>a3dc091768dd911e8a663cf55085fe449</title>
<polygon fill="none" stroke="black" points="485,-36 330,-36 330,-0 485,-0 485,-36"/>
<text text-anchor="middle" x="407.5" y="-11.8" font-family="Times New Roman,serif" font-size="24.00">SpringUtilities</text>
</g>
<!-- mleftleftleftleftleftleftmid -->
<g id="node16" class="node"><title>mleftleftleftleftleftleftmid</title>
<polygon fill="none" stroke="black" points="1561.5,-508 1302.5,-508 1302.5,-472 1561.5,-472 1561.5,-508"/>
<text text-anchor="middle" x="1432" y="-483.8" font-family="Times New Roman,serif" font-size="24.00">mleftleftleftleftleftleftmid</text>
</g>
<!-- mleftleftleftleftleftleftmid&#45;&gt;a3dbd36228dd911e8a663cf55085fe449 -->
<g id="edge2" class="edge"><title>mleftleftleftleftleftleftmid&#45;&gt;a3dbd36228dd911e8a663cf55085fe449</title>
<path fill="none" stroke="black" d="M1561.85,-490C1602.73,-490 1646.84,-490 1683.69,-490"/>
<polygon fill="black" stroke="black" points="1683.88,-493.5 1693.88,-490 1683.88,-486.5 1683.88,-493.5"/>
</g>
<!-- mleftleftleftleftleftleft -->
<g id="node17" class="node"><title>mleftleftleftleftleftleft</title>
<polygon fill="none" stroke="black" points="1253.5,-508 1030.5,-508 1030.5,-472 1253.5,-472 1253.5,-508"/>
<text text-anchor="middle" x="1142" y="-483.8" font-family="Times New Roman,serif" font-size="24.00">mleftleftleftleftleftleft</text>
</g>
<!-- mleftleftleftleftleftleft&#45;&gt;mleftleftleftleftleftleftmid -->
<g id="edge1" class="edge"><title>mleftleftleftleftleftleft&#45;&gt;mleftleftleftleftleftleftmid</title>
<path fill="none" stroke="black" d="M1253.52,-490C1266.17,-490 1279.17,-490 1292.12,-490"/>
<polygon fill="black" stroke="black" points="1292.49,-493.5 1302.49,-490 1292.49,-486.5 1292.49,-493.5"/>
</g>
<!-- mleftleftleftleftleftrightmid -->
<g id="node18" class="node"><title>mleftleftleftleftleftrightmid</title>
<polygon fill="none" stroke="black" points="1568,-454 1296,-454 1296,-418 1568,-418 1568,-454"/>
<text text-anchor="middle" x="1432" y="-429.8" font-family="Times New Roman,serif" font-size="24.00">mleftleftleftleftleftrightmid</text>
</g>
<!-- mleftleftleftleftleftrightmid&#45;&gt;a3dc2db6c8dd911e8a663cf55085fe449 -->
<g id="edge5" class="edge"><title>mleftleftleftleftleftrightmid&#45;&gt;a3dc2db6c8dd911e8a663cf55085fe449</title>
<path fill="none" stroke="black" d="M1568.09,-436C1607.53,-436 1649.45,-436 1684.63,-436"/>
<polygon fill="black" stroke="black" points="1684.84,-439.5 1694.84,-436 1684.84,-432.5 1684.84,-439.5"/>
</g>
<!-- mleftleftleftleftleftright -->
<g id="node19" class="node"><title>mleftleftleftleftleftright</title>
<polygon fill="none" stroke="black" points="1260,-454 1024,-454 1024,-418 1260,-418 1260,-454"/>
<text text-anchor="middle" x="1142" y="-429.8" font-family="Times New Roman,serif" font-size="24.00">mleftleftleftleftleftright</text>
</g>
<!-- mleftleftleftleftleftright&#45;&gt;mleftleftleftleftleftrightmid -->
<g id="edge4" class="edge"><title>mleftleftleftleftleftright&#45;&gt;mleftleftleftleftleftrightmid</title>
<path fill="none" stroke="black" d="M1260.14,-436C1268.54,-436 1277.06,-436 1285.58,-436"/>
<polygon fill="black" stroke="black" points="1285.59,-439.5 1295.59,-436 1285.59,-432.5 1285.59,-439.5"/>
</g>
<!-- mleftleftleftleftleft -->
<g id="node20" class="node"><title>mleftleftleftleftleft</title>
<polygon fill="none" stroke="black" points="888,-454 834,-454 834,-418 888,-418 888,-454"/>
<text text-anchor="middle" x="861" y="-429.8" font-family="Times New Roman,serif" font-size="24.00">1</text>
</g>
<!-- mleftleftleftleftleft&#45;&gt;mleftleftleftleftleftleft -->
<g id="edge3" class="edge"><title>mleftleftleftleftleft&#45;&gt;mleftleftleftleftleftleft</title>
<path fill="none" stroke="black" d="M888.248,-441.08C922.408,-447.692 984.109,-459.634 1038,-470.064"/>
<polygon fill="black" stroke="black" points="1037.48,-473.528 1047.96,-471.992 1038.81,-466.655 1037.48,-473.528"/>
</g>
<!-- mleftleftleftleftleft&#45;&gt;mleftleftleftleftleftright -->
<g id="edge6" class="edge"><title>mleftleftleftleftleft&#45;&gt;mleftleftleftleftleftright</title>
<path fill="none" stroke="black" d="M888.248,-436C917.375,-436 966.527,-436 1013.78,-436"/>
<polygon fill="black" stroke="black" points="1013.83,-439.5 1023.83,-436 1013.83,-432.5 1013.83,-439.5"/>
</g>
<!-- mleftleftleftleftrightleftleftleftmid -->
<g id="node21" class="node"><title>mleftleftleftleftrightleftleftleftmid</title>
<polygon fill="none" stroke="black" points="2320.5,-454 1985.5,-454 1985.5,-418 2320.5,-418 2320.5,-454"/>
<text text-anchor="middle" x="2153" y="-429.8" font-family="Times New Roman,serif" font-size="24.00">mleftleftleftleftrightleftleftleftmid</text>
</g>
<!-- mleftleftleftleftrightleftleftleftmid&#45;&gt;a3dc6374d8dd911e8a663cf55085fe449 -->
<g id="edge9" class="edge"><title>mleftleftleftleftrightleftleftleftmid&#45;&gt;a3dc6374d8dd911e8a663cf55085fe449</title>
<path fill="none" stroke="black" d="M2320.6,-436C2373.19,-436 2429.59,-436 2475.79,-436"/>
<polygon fill="black" stroke="black" points="2475.79,-439.5 2485.79,-436 2475.79,-432.5 2475.79,-439.5"/>
</g>
<!-- mleftleftleftleftrightleftleftleft -->
<g id="node22" class="node"><title>mleftleftleftleftrightleftleftleft</title>
<polygon fill="none" stroke="black" points="1918,-400 1619,-400 1619,-364 1918,-364 1918,-400"/>
<text text-anchor="middle" x="1768.5" y="-375.8" font-family="Times New Roman,serif" font-size="24.00">mleftleftleftleftrightleftleftleft</text>
</g>
<!-- mleftleftleftleftrightleftleftleft&#45;&gt;mleftleftleftleftrightleftleftleftmid -->
<g id="edge8" class="edge"><title>mleftleftleftleftrightleftleftleft&#45;&gt;mleftleftleftleftrightleftleftleftmid</title>
<path fill="none" stroke="black" d="M1897.13,-400.019C1934.73,-405.326 1976.02,-411.156 2014.22,-416.548"/>
<polygon fill="black" stroke="black" points="2013.99,-420.051 2024.38,-417.983 2014.97,-413.119 2013.99,-420.051"/>
</g>
<!-- mleftleftleftleftrightleftleftrightleftmid -->
<g id="node23" class="node"><title>mleftleftleftleftrightleftleftrightleftmid</title>
<polygon fill="none" stroke="black" points="2764.5,-400 2385.5,-400 2385.5,-364 2764.5,-364 2764.5,-400"/>
<text text-anchor="middle" x="2575" y="-375.8" font-family="Times New Roman,serif" font-size="24.00">mleftleftleftleftrightleftleftrightleftmid</text>
</g>
<!-- mleftleftleftleftrightleftleftrightleftmid&#45;&gt;a3dc17b708dd911e8a663cf55085fe449 -->
<g id="edge12" class="edge"><title>mleftleftleftleftrightleftleftrightleftmid&#45;&gt;a3dc17b708dd911e8a663cf55085fe449</title>
<path fill="none" stroke="black" d="M2764.53,-382C2803.47,-382 2842.4,-382 2874.65,-382"/>
<polygon fill="black" stroke="black" points="2874.87,-385.5 2884.87,-382 2874.87,-378.5 2874.87,-385.5"/>
</g>
<!-- mleftleftleftleftrightleftleftrightleft -->
<g id="node24" class="node"><title>mleftleftleftleftrightleftleftrightleft</title>
<polygon fill="none" stroke="black" points="2324.5,-400 1981.5,-400 1981.5,-364 2324.5,-364 2324.5,-400"/>
<text text-anchor="middle" x="2153" y="-375.8" font-family="Times New Roman,serif" font-size="24.00">mleftleftleftleftrightleftleftrightleft</text>
</g>
<!-- mleftleftleftleftrightleftleftrightleft&#45;&gt;mleftleftleftleftrightleftleftrightleftmid -->
<g id="edge11" class="edge"><title>mleftleftleftleftrightleftleftrightleft&#45;&gt;mleftleftleftleftrightleftleftrightleftmid</title>
<path fill="none" stroke="black" d="M2324.53,-382C2341.09,-382 2357.99,-382 2374.8,-382"/>
<polygon fill="black" stroke="black" points="2375.25,-385.5 2385.25,-382 2375.25,-378.5 2375.25,-385.5"/>
</g>
<!-- mleftleftleftleftrightleftleftrightrightmid -->
<g id="node25" class="node"><title>mleftleftleftleftrightleftleftrightrightmid</title>
<polygon fill="none" stroke="black" points="2771,-346 2379,-346 2379,-310 2771,-310 2771,-346"/>
<text text-anchor="middle" x="2575" y="-321.8" font-family="Times New Roman,serif" font-size="24.00">mleftleftleftleftrightleftleftrightrightmid</text>
</g>
<!-- mleftleftleftleftrightleftleftrightrightmid&#45;&gt;a3dc573a88dd911e8a663cf55085fe449 -->
<g id="edge15" class="edge"><title>mleftleftleftleftrightleftleftrightrightmid&#45;&gt;a3dc573a88dd911e8a663cf55085fe449</title>
<path fill="none" stroke="black" d="M2771.14,-328C2792.92,-328 2814.57,-328 2834.93,-328"/>
<polygon fill="black" stroke="black" points="2835.13,-331.5 2845.13,-328 2835.13,-324.5 2835.13,-331.5"/>
</g>
<!-- mleftleftleftleftrightleftleftrightright -->
<g id="node26" class="node"><title>mleftleftleftleftrightleftleftrightright</title>
<polygon fill="none" stroke="black" points="2331,-346 1975,-346 1975,-310 2331,-310 2331,-346"/>
<text text-anchor="middle" x="2153" y="-321.8" font-family="Times New Roman,serif" font-size="24.00">mleftleftleftleftrightleftleftrightright</text>
</g>
<!-- mleftleftleftleftrightleftleftrightright&#45;&gt;mleftleftleftleftrightleftleftrightrightmid -->
<g id="edge14" class="edge"><title>mleftleftleftleftrightleftleftrightright&#45;&gt;mleftleftleftleftrightleftleftrightrightmid</title>
<path fill="none" stroke="black" d="M2331.2,-328C2343.67,-328 2356.29,-328 2368.89,-328"/>
<polygon fill="black" stroke="black" points="2368.98,-331.5 2378.98,-328 2368.98,-324.5 2368.98,-331.5"/>
</g>
<!-- mleftleftleftleftrightleftleftright -->
<g id="node27" class="node"><title>mleftleftleftleftrightleftleftright</title>
<polygon fill="none" stroke="black" points="1795.5,-346 1741.5,-346 1741.5,-310 1795.5,-310 1795.5,-346"/>
<text text-anchor="middle" x="1768.5" y="-321.8" font-family="Times New Roman,serif" font-size="24.00">0.5</text>
</g>
<!-- mleftleftleftleftrightleftleftright&#45;&gt;mleftleftleftleftrightleftleftrightleft -->
<g id="edge13" class="edge"><title>mleftleftleftleftrightleftleftright&#45;&gt;mleftleftleftleftrightleftleftrightleft</title>
<path fill="none" stroke="black" d="M1795.79,-331.712C1840.46,-338.019 1934.14,-351.244 2014.22,-362.549"/>
<polygon fill="black" stroke="black" points="2014.03,-366.056 2024.42,-363.988 2015,-359.125 2014.03,-366.056"/>
</g>
<!-- mleftleftleftleftrightleftleftright&#45;&gt;mleftleftleftleftrightleftleftrightright -->
<g id="edge16" class="edge"><title>mleftleftleftleftrightleftleftright&#45;&gt;mleftleftleftleftrightleftleftrightright</title>
<path fill="none" stroke="black" d="M1795.79,-328C1831.43,-328 1898.26,-328 1964.49,-328"/>
<polygon fill="black" stroke="black" points="1964.69,-331.5 1974.69,-328 1964.69,-324.5 1964.69,-331.5"/>
</g>
<!-- mleftleftleftleftrightleftleft -->
<g id="node28" class="node"><title>mleftleftleftleftrightleftleft</title>
<polygon fill="none" stroke="black" points="1459,-346 1405,-346 1405,-310 1459,-310 1459,-346"/>
<text text-anchor="middle" x="1432" y="-321.8" font-family="Times New Roman,serif" font-size="24.00">0.5</text>
</g>
<!-- mleftleftleftleftrightleftleft&#45;&gt;mleftleftleftleftrightleftleftleft -->
<g id="edge10" class="edge"><title>mleftleftleftleftrightleftleft&#45;&gt;mleftleftleftleftrightleftleftleft</title>
<path fill="none" stroke="black" d="M1459.25,-332.237C1499.25,-338.695 1577.99,-351.406 1645.87,-362.365"/>
<polygon fill="black" stroke="black" points="1645.37,-365.83 1655.8,-363.968 1646.49,-358.919 1645.37,-365.83"/>
</g>
<!-- mleftleftleftleftrightleftleft&#45;&gt;mleftleftleftleftrightleftleftright -->
<g id="edge17" class="edge"><title>mleftleftleftleftrightleftleft&#45;&gt;mleftleftleftleftrightleftleftright</title>
<path fill="none" stroke="black" d="M1459.25,-328C1518.6,-328 1663.25,-328 1731.16,-328"/>
<polygon fill="black" stroke="black" points="1731.37,-331.5 1741.37,-328 1731.37,-324.5 1731.37,-331.5"/>
</g>
<!-- mleftleftleftleftrightleftrightmid -->
<g id="node29" class="node"><title>mleftleftleftleftrightleftrightmid</title>
<polygon fill="none" stroke="black" points="1926.5,-292 1610.5,-292 1610.5,-256 1926.5,-256 1926.5,-292"/>
<text text-anchor="middle" x="1768.5" y="-267.8" font-family="Times New Roman,serif" font-size="24.00">mleftleftleftleftrightleftrightmid</text>
</g>
<!-- mleftleftleftleftrightleftrightmid&#45;&gt;a3dbc4b928dd911e8a663cf55085fe449 -->
<g id="edge20" class="edge"><title>mleftleftleftleftrightleftrightmid&#45;&gt;a3dbc4b928dd911e8a663cf55085fe449</title>
<path fill="none" stroke="black" d="M1926.73,-274C1969.39,-274 2014.37,-274 2052.83,-274"/>
<polygon fill="black" stroke="black" points="2052.98,-277.5 2062.98,-274 2052.98,-270.5 2052.98,-277.5"/>
</g>
<!-- mleftleftleftleftrightleftright -->
<g id="node30" class="node"><title>mleftleftleftleftrightleftright</title>
<polygon fill="none" stroke="black" points="1459,-292 1405,-292 1405,-256 1459,-256 1459,-292"/>
<text text-anchor="middle" x="1432" y="-267.8" font-family="Times New Roman,serif" font-size="24.00">0.5</text>
</g>
<!-- mleftleftleftleftrightleftright&#45;&gt;mleftleftleftleftrightleftrightmid -->
<g id="edge19" class="edge"><title>mleftleftleftleftrightleftright&#45;&gt;mleftleftleftleftrightleftrightmid</title>
<path fill="none" stroke="black" d="M1459.25,-274C1490.49,-274 1545.37,-274 1600.25,-274"/>
<polygon fill="black" stroke="black" points="1600.5,-277.5 1610.5,-274 1600.5,-270.5 1600.5,-277.5"/>
</g>
<!-- mleftleftleftleftrightleft -->
<g id="node31" class="node"><title>mleftleftleftleftrightleft</title>
<polygon fill="none" stroke="black" points="1169,-292 1115,-292 1115,-256 1169,-256 1169,-292"/>
<text text-anchor="middle" x="1142" y="-267.8" font-family="Times New Roman,serif" font-size="24.00">0.5</text>
</g>
<!-- mleftleftleftleftrightleft&#45;&gt;mleftleftleftleftrightleftleft -->
<g id="edge18" class="edge"><title>mleftleftleftleftrightleft&#45;&gt;mleftleftleftleftrightleftleft</title>
<path fill="none" stroke="black" d="M1169.07,-278.887C1220.66,-288.562 1335.9,-310.168 1394.81,-321.214"/>
<polygon fill="black" stroke="black" points="1394.31,-324.682 1404.79,-323.085 1395.6,-317.802 1394.31,-324.682"/>
</g>
<!-- mleftleftleftleftrightleft&#45;&gt;mleftleftleftleftrightleftright -->
<g id="edge21" class="edge"><title>mleftleftleftleftrightleft&#45;&gt;mleftleftleftleftrightleftright</title>
<path fill="none" stroke="black" d="M1169.07,-274C1220.55,-274 1335.42,-274 1394.44,-274"/>
<polygon fill="black" stroke="black" points="1394.79,-277.5 1404.79,-274 1394.79,-270.5 1394.79,-277.5"/>
</g>
<!-- mleftleftleftleftrightrightleftleftmid -->
<g id="node32" class="node"><title>mleftleftleftleftrightrightleftleftmid</title>
<polygon fill="none" stroke="black" points="2326.5,-238 1979.5,-238 1979.5,-202 2326.5,-202 2326.5,-238"/>
<text text-anchor="middle" x="2153" y="-213.8" font-family="Times New Roman,serif" font-size="24.00">mleftleftleftleftrightrightleftleftmid</text>
</g>
<!-- mleftleftleftleftrightrightleftleftmid&#45;&gt;a3dbb39ef8dd911e8a663cf55085fe449 -->
<g id="edge24" class="edge"><title>mleftleftleftleftrightrightleftleftmid&#45;&gt;a3dbb39ef8dd911e8a663cf55085fe449</title>
<path fill="none" stroke="black" d="M2326.65,-220C2394.03,-220 2466.71,-220 2515.73,-220"/>
<polygon fill="black" stroke="black" points="2515.82,-223.5 2525.82,-220 2515.82,-216.5 2515.82,-223.5"/>
</g>
<!-- mleftleftleftleftrightrightleftleft -->
<g id="node33" class="node"><title>mleftleftleftleftrightrightleftleft</title>
<polygon fill="none" stroke="black" points="1924,-238 1613,-238 1613,-202 1924,-202 1924,-238"/>
<text text-anchor="middle" x="1768.5" y="-213.8" font-family="Times New Roman,serif" font-size="24.00">mleftleftleftleftrightrightleftleft</text>
</g>
<!-- mleftleftleftleftrightrightleftleft&#45;&gt;mleftleftleftleftrightrightleftleftmid -->
<g id="edge23" class="edge"><title>mleftleftleftleftrightrightleftleft&#45;&gt;mleftleftleftleftrightrightleftleftmid</title>
<path fill="none" stroke="black" d="M1924.25,-220C1938.98,-220 1954.01,-220 1968.98,-220"/>
<polygon fill="black" stroke="black" points="1969.32,-223.5 1979.32,-220 1969.32,-216.5 1969.32,-223.5"/>
</g>
<!-- mleftleftleftleftrightrightleftrightleftmid -->
<g id="node34" class="node"><title>mleftleftleftleftrightrightleftrightleftmid</title>
<polygon fill="none" stroke="black" points="2771,-184 2379,-184 2379,-148 2771,-148 2771,-184"/>
<text text-anchor="middle" x="2575" y="-159.8" font-family="Times New Roman,serif" font-size="24.00">mleftleftleftleftrightrightleftrightleftmid</text>
</g>
<!-- mleftleftleftleftrightrightleftrightleftmid&#45;&gt;a3dbd5cdb8dd911e8a663cf55085fe449 -->
<g id="edge27" class="edge"><title>mleftleftleftleftrightrightleftrightleftmid&#45;&gt;a3dbd5cdb8dd911e8a663cf55085fe449</title>
<path fill="none" stroke="black" d="M2771.14,-166C2781.7,-166 2792.22,-166 2802.58,-166"/>
<polygon fill="black" stroke="black" points="2802.89,-169.5 2812.88,-166 2802.88,-162.5 2802.89,-169.5"/>
</g>
<!-- mleftleftleftleftrightrightleftrightleft -->
<g id="node35" class="node"><title>mleftleftleftleftrightrightleftrightleft</title>
<polygon fill="none" stroke="black" points="2331,-184 1975,-184 1975,-148 2331,-148 2331,-184"/>
<text text-anchor="middle" x="2153" y="-159.8" font-family="Times New Roman,serif" font-size="24.00">mleftleftleftleftrightrightleftrightleft</text>
</g>
<!-- mleftleftleftleftrightrightleftrightleft&#45;&gt;mleftleftleftleftrightrightleftrightleftmid -->
<g id="edge26" class="edge"><title>mleftleftleftleftrightrightleftrightleft&#45;&gt;mleftleftleftleftrightrightleftrightleftmid</title>
<path fill="none" stroke="black" d="M2331.2,-166C2343.67,-166 2356.29,-166 2368.89,-166"/>
<polygon fill="black" stroke="black" points="2368.98,-169.5 2378.98,-166 2368.98,-162.5 2368.98,-169.5"/>
</g>
<!-- mleftleftleftleftrightrightleftrightrightmid -->
<g id="node36" class="node"><title>mleftleftleftleftrightrightleftrightrightmid</title>
<polygon fill="none" stroke="black" points="2777,-130 2373,-130 2373,-94 2777,-94 2777,-130"/>
<text text-anchor="middle" x="2575" y="-105.8" font-family="Times New Roman,serif" font-size="24.00">mleftleftleftleftrightrightleftrightrightmid</text>
</g>
<!-- mleftleftleftleftrightrightleftrightrightmid&#45;&gt;a3dbdab148dd911e8a663cf55085fe449 -->
<g id="edge30" class="edge"><title>mleftleftleftleftrightrightleftrightrightmid&#45;&gt;a3dbdab148dd911e8a663cf55085fe449</title>
<path fill="none" stroke="black" d="M2777.2,-112C2805.81,-112 2834.03,-112 2859.18,-112"/>
<polygon fill="black" stroke="black" points="2859.39,-115.5 2869.39,-112 2859.39,-108.5 2859.39,-115.5"/>
</g>
<!-- mleftleftleftleftrightrightleftrightrightmid&#45;&gt;a3dbd83e88dd911e8a663cf55085fe449 -->
<g id="edge31" class="edge"><title>mleftleftleftleftrightrightleftrightrightmid&#45;&gt;a3dbd83e88dd911e8a663cf55085fe449</title>
<path fill="none" stroke="black" d="M2701.63,-93.9813C2742.72,-88.0877 2788.31,-81.5498 2829.22,-75.6813"/>
<polygon fill="black" stroke="black" points="2829.84,-79.1285 2839.24,-74.2441 2828.85,-72.1994 2829.84,-79.1285"/>
</g>
<!-- mleftleftleftleftrightrightleftrightright -->
<g id="node37" class="node"><title>mleftleftleftleftrightrightleftrightright</title>
<polygon fill="none" stroke="black" points="2337,-130 1969,-130 1969,-94 2337,-94 2337,-130"/>
<text text-anchor="middle" x="2153" y="-105.8" font-family="Times New Roman,serif" font-size="24.00">mleftleftleftleftrightrightleftrightright</text>
</g>
<!-- mleftleftleftleftrightrightleftrightright&#45;&gt;mleftleftleftleftrightrightleftrightrightmid -->
<g id="edge29" class="edge"><title>mleftleftleftleftrightrightleftrightright&#45;&gt;mleftleftleftleftrightrightleftrightrightmid</title>
<path fill="none" stroke="black" d="M2337.3,-112C2345.8,-112 2354.35,-112 2362.9,-112"/>
<polygon fill="black" stroke="black" points="2362.95,-115.5 2372.95,-112 2362.95,-108.5 2362.95,-115.5"/>
</g>
<!-- mleftleftleftleftrightrightleftright -->
<g id="node38" class="node"><title>mleftleftleftleftrightrightleftright</title>
<polygon fill="none" stroke="black" points="1798,-184 1739,-184 1739,-148 1798,-148 1798,-184"/>
<text text-anchor="middle" x="1768.5" y="-159.8" font-family="Times New Roman,serif" font-size="24.00">0.25</text>
</g>
<!-- mleftleftleftleftrightrightleftright&#45;&gt;mleftleftleftleftrightrightleftrightleft -->
<g id="edge28" class="edge"><title>mleftleftleftleftrightrightleftright&#45;&gt;mleftleftleftleftrightrightleftrightleft</title>
<path fill="none" stroke="black" d="M1798.25,-166C1834.45,-166 1899.77,-166 1964.51,-166"/>
<polygon fill="black" stroke="black" points="1964.89,-169.5 1974.89,-166 1964.89,-162.5 1964.89,-169.5"/>
</g>
<!-- mleftleftleftleftrightrightleftright&#45;&gt;mleftleftleftleftrightrightleftrightright -->
<g id="edge32" class="edge"><title>mleftleftleftleftrightrightleftright&#45;&gt;mleftleftleftleftrightrightleftrightright</title>
<path fill="none" stroke="black" d="M1798.25,-161.941C1843.82,-155.508 1935.53,-142.56 2014.15,-131.461"/>
<polygon fill="black" stroke="black" points="2014.75,-134.911 2024.17,-130.047 2013.77,-127.98 2014.75,-134.911"/>
</g>
<!-- mleftleftleftleftrightrightleft -->
<g id="node39" class="node"><title>mleftleftleftleftrightrightleft</title>
<polygon fill="none" stroke="black" points="1551.5,-238 1312.5,-238 1312.5,-202 1551.5,-202 1551.5,-238"/>
<text text-anchor="middle" x="1432" y="-213.8" font-family="Times New Roman,serif" font-size="24.00">0.33333333333333337</text>
</g>
<!-- mleftleftleftleftrightrightleft&#45;&gt;mleftleftleftleftrightrightleftleft -->
<g id="edge25" class="edge"><title>mleftleftleftleftrightrightleft&#45;&gt;mleftleftleftleftrightrightleftleft</title>
<path fill="none" stroke="black" d="M1551.87,-220C1568.36,-220 1585.52,-220 1602.66,-220"/>
<polygon fill="black" stroke="black" points="1602.74,-223.5 1612.74,-220 1602.74,-216.5 1602.74,-223.5"/>
</g>
<!-- mleftleftleftleftrightrightleft&#45;&gt;mleftleftleftleftrightrightleftright -->
<g id="edge33" class="edge"><title>mleftleftleftleftrightrightleft&#45;&gt;mleftleftleftleftrightrightleftright</title>
<path fill="none" stroke="black" d="M1544.85,-201.944C1608.32,-191.697 1683.8,-179.512 1728.56,-172.286"/>
<polygon fill="black" stroke="black" points="1729.4,-175.696 1738.72,-170.647 1728.29,-168.785 1729.4,-175.696"/>
</g>
<!-- mleftleftleftleftrightrightrightmid -->
<g id="node40" class="node"><title>mleftleftleftleftrightrightrightmid</title>
<polygon fill="none" stroke="black" points="1933,-103 1604,-103 1604,-67 1933,-67 1933,-103"/>
<text text-anchor="middle" x="1768.5" y="-78.8" font-family="Times New Roman,serif" font-size="24.00">mleftleftleftleftrightrightrightmid</text>
</g>
<!-- mleftleftleftleftrightrightrightmid&#45;&gt;a3dc6f9b58dd911e8a663cf55085fe449 -->
<g id="edge36" class="edge"><title>mleftleftleftleftrightrightrightmid&#45;&gt;a3dc6f9b58dd911e8a663cf55085fe449</title>
<path fill="none" stroke="black" d="M1933.1,-73.4517C1976.87,-70.3619 2022.62,-67.1327 2060.91,-64.4302"/>
<polygon fill="black" stroke="black" points="2061.26,-67.9143 2070.98,-63.7188 2060.76,-60.9317 2061.26,-67.9143"/>
</g>
<!-- mleftleftleftleftrightrightright -->
<g id="node41" class="node"><title>mleftleftleftleftrightrightright</title>
<polygon fill="none" stroke="black" points="1551.5,-130 1312.5,-130 1312.5,-94 1551.5,-94 1551.5,-130"/>
<text text-anchor="middle" x="1432" y="-105.8" font-family="Times New Roman,serif" font-size="24.00">0.33333333333333337</text>
</g>
<!-- mleftleftleftleftrightrightright&#45;&gt;mleftleftleftleftrightrightrightmid -->
<g id="edge35" class="edge"><title>mleftleftleftleftrightrightright&#45;&gt;mleftleftleftleftrightrightrightmid</title>
<path fill="none" stroke="black" d="M1551.87,-102.405C1565.47,-101.307 1579.54,-100.172 1593.67,-99.0312"/>
<polygon fill="black" stroke="black" points="1594.28,-102.494 1603.96,-98.2003 1593.71,-95.5163 1594.28,-102.494"/>
</g>
<!-- mleftleftleftleftrightright -->
<g id="node42" class="node"><title>mleftleftleftleftrightright</title>
<polygon fill="none" stroke="black" points="1169,-238 1115,-238 1115,-202 1169,-202 1169,-238"/>
<text text-anchor="middle" x="1142" y="-213.8" font-family="Times New Roman,serif" font-size="24.00">0.4</text>
</g>
<!-- mleftleftleftleftrightright&#45;&gt;mleftleftleftleftrightrightleft -->
<g id="edge34" class="edge"><title>mleftleftleftleftrightright&#45;&gt;mleftleftleftleftrightrightleft</title>
<path fill="none" stroke="black" d="M1169.07,-220C1199.44,-220 1251.88,-220 1301.89,-220"/>
<polygon fill="black" stroke="black" points="1302.19,-223.5 1312.19,-220 1302.19,-216.5 1302.19,-223.5"/>
</g>
<!-- mleftleftleftleftrightright&#45;&gt;mleftleftleftleftrightrightright -->
<g id="edge37" class="edge"><title>mleftleftleftleftrightright&#45;&gt;mleftleftleftleftrightrightright</title>
<path fill="none" stroke="black" d="M1169.01,-215.663C1193.03,-211.27 1229.48,-203.611 1260,-193 1305.66,-177.125 1355.33,-152.734 1389.32,-134.865"/>
<polygon fill="black" stroke="black" points="1391.28,-137.788 1398.47,-130.01 1388,-131.604 1391.28,-137.788"/>
</g>
<!-- mleftleftleftleftright -->
<g id="node43" class="node"><title>mleftleftleftleftright</title>
<polygon fill="none" stroke="black" points="974.5,-279 747.5,-279 747.5,-243 974.5,-243 974.5,-279"/>
<text text-anchor="middle" x="861" y="-254.8" font-family="Times New Roman,serif" font-size="24.00">0.8333333333333334</text>
</g>
<!-- mleftleftleftleftright&#45;&gt;mleftleftleftleftrightleft -->
<g id="edge22" class="edge"><title>mleftleftleftleftright&#45;&gt;mleftleftleftleftrightleft</title>
<path fill="none" stroke="black" d="M974.676,-266.25C1021.21,-268.418 1071.88,-270.78 1104.92,-272.319"/>
<polygon fill="black" stroke="black" points="1104.84,-275.819 1114.99,-272.788 1105.17,-268.826 1104.84,-275.819"/>
</g>
<!-- mleftleftleftleftright&#45;&gt;mleftleftleftleftrightright -->
<g id="edge38" class="edge"><title>mleftleftleftleftright&#45;&gt;mleftleftleftleftrightright</title>
<path fill="none" stroke="black" d="M974.676,-244.442C1021.21,-237.603 1071.88,-230.157 1104.92,-225.303"/>
<polygon fill="black" stroke="black" points="1105.61,-228.739 1114.99,-223.822 1104.59,-221.813 1105.61,-228.739"/>
</g>
<!-- mleftleftleftleft -->
<g id="node44" class="node"><title>mleftleftleftleft</title>
<polygon fill="none" stroke="black" points="636.5,-279 582.5,-279 582.5,-243 636.5,-243 636.5,-279"/>
<text text-anchor="middle" x="609.5" y="-254.8" font-family="Times New Roman,serif" font-size="24.00">1</text>
</g>
<!-- mleftleftleftleft&#45;&gt;mleftleftleftleftleft -->
<g id="edge7" class="edge"><title>mleftleftleftleft&#45;&gt;mleftleftleftleftleft</title>
<path fill="none" stroke="black" d="M636.261,-279.069C681.457,-310.769 775.031,-376.402 825.666,-411.918"/>
<polygon fill="black" stroke="black" points="823.808,-414.89 834.005,-417.767 827.828,-409.159 823.808,-414.89"/>
</g>
<!-- mleftleftleftleft&#45;&gt;mleftleftleftleftright -->
<g id="edge39" class="edge"><title>mleftleftleftleft&#45;&gt;mleftleftleftleftright</title>
<path fill="none" stroke="black" d="M636.729,-261C661.135,-261 699.353,-261 737.316,-261"/>
<polygon fill="black" stroke="black" points="737.477,-264.5 747.477,-261 737.477,-257.5 737.477,-264.5"/>
</g>
<!-- mleftleftleftrightmid -->
<g id="node45" class="node"><title>mleftleftleftrightmid</title>
<polygon fill="none" stroke="black" points="965.5,-198 756.5,-198 756.5,-162 965.5,-162 965.5,-198"/>
<text text-anchor="middle" x="861" y="-173.8" font-family="Times New Roman,serif" font-size="24.00">mleftleftleftrightmid</text>
</g>
<!-- mleftleftleftrightmid&#45;&gt;a3dbd35c98dd911e8a663cf55085fe449 -->
<g id="edge42" class="edge"><title>mleftleftleftrightmid&#45;&gt;a3dbd35c98dd911e8a663cf55085fe449</title>
<path fill="none" stroke="black" d="M965.889,-174.787C992.953,-173.429 1021.93,-171.975 1048.37,-170.648"/>
<polygon fill="black" stroke="black" points="1048.56,-174.143 1058.37,-170.146 1048.21,-167.152 1048.56,-174.143"/>
</g>
<!-- mleftleftleftright -->
<g id="node46" class="node"><title>mleftleftleftright</title>
<polygon fill="none" stroke="black" points="636.5,-198 582.5,-198 582.5,-162 636.5,-162 636.5,-198"/>
<text text-anchor="middle" x="609.5" y="-173.8" font-family="Times New Roman,serif" font-size="24.00">1</text>
</g>
<!-- mleftleftleftright&#45;&gt;mleftleftleftrightmid -->
<g id="edge41" class="edge"><title>mleftleftleftright&#45;&gt;mleftleftleftrightmid</title>
<path fill="none" stroke="black" d="M636.729,-180C663.082,-180 705.54,-180 746.391,-180"/>
<polygon fill="black" stroke="black" points="746.453,-183.5 756.453,-180 746.453,-176.5 746.453,-183.5"/>
</g>
<!-- mleftleftleft -->
<g id="node47" class="node"><title>mleftleftleft</title>
<polygon fill="none" stroke="black" points="434.5,-198 380.5,-198 380.5,-162 434.5,-162 434.5,-198"/>
<text text-anchor="middle" x="407.5" y="-173.8" font-family="Times New Roman,serif" font-size="24.00">1</text>
</g>
<!-- mleftleftleft&#45;&gt;mleftleftleftleft -->
<g id="edge40" class="edge"><title>mleftleftleft&#45;&gt;mleftleftleftleft</title>
<path fill="none" stroke="black" d="M434.647,-190.589C470.057,-204.93 533.381,-230.577 573.047,-246.642"/>
<polygon fill="black" stroke="black" points="571.765,-249.898 582.347,-250.408 574.392,-243.41 571.765,-249.898"/>
</g>
<!-- mleftleftleft&#45;&gt;mleftleftleftright -->
<g id="edge43" class="edge"><title>mleftleftleft&#45;&gt;mleftleftleftright</title>
<path fill="none" stroke="black" d="M434.647,-180C469.832,-180 532.579,-180 572.289,-180"/>
<polygon fill="black" stroke="black" points="572.347,-183.5 582.347,-180 572.347,-176.5 572.347,-183.5"/>
</g>
<!-- mleftleftrightmid -->
<g id="node48" class="node"><title>mleftleftrightmid</title>
<polygon fill="none" stroke="black" points="698,-144 521,-144 521,-108 698,-108 698,-144"/>
<text text-anchor="middle" x="609.5" y="-119.8" font-family="Times New Roman,serif" font-size="24.00">mleftleftrightmid</text>
</g>
<!-- mleftleftrightmid&#45;&gt;a3dbdab768dd911e8a663cf55085fe449 -->
<g id="edge46" class="edge"><title>mleftleftrightmid&#45;&gt;a3dbdab768dd911e8a663cf55085fe449</title>
<path fill="none" stroke="black" d="M698.114,-126C706.389,-126 714.905,-126 723.495,-126"/>
<polygon fill="black" stroke="black" points="723.604,-129.5 733.604,-126 723.604,-122.5 723.604,-129.5"/>
</g>
<!-- mleftleftright -->
<g id="node49" class="node"><title>mleftleftright</title>
<polygon fill="none" stroke="black" points="434.5,-144 380.5,-144 380.5,-108 434.5,-108 434.5,-144"/>
<text text-anchor="middle" x="407.5" y="-119.8" font-family="Times New Roman,serif" font-size="24.00">1</text>
</g>
<!-- mleftleftright&#45;&gt;mleftleftrightmid -->
<g id="edge45" class="edge"><title>mleftleftright&#45;&gt;mleftleftrightmid</title>
<path fill="none" stroke="black" d="M434.647,-126C454.261,-126 482.442,-126 510.421,-126"/>
<polygon fill="black" stroke="black" points="510.704,-129.5 520.704,-126 510.704,-122.5 510.704,-129.5"/>
</g>
<!-- mleftleft -->
<g id="node50" class="node"><title>mleftleft</title>
<polygon fill="none" stroke="black" points="264,-144 210,-144 210,-108 264,-108 264,-144"/>
<text text-anchor="middle" x="237" y="-119.8" font-family="Times New Roman,serif" font-size="24.00">1</text>
</g>
<!-- mleftleft&#45;&gt;mleftleftleft -->
<g id="edge44" class="edge"><title>mleftleft&#45;&gt;mleftleftleft</title>
<path fill="none" stroke="black" d="M264.328,-134.438C292.892,-143.592 338.673,-158.263 370.539,-168.475"/>
<polygon fill="black" stroke="black" points="369.766,-171.903 380.357,-171.622 371.902,-165.237 369.766,-171.903"/>
</g>
<!-- mleftleft&#45;&gt;mleftleftright -->
<g id="edge47" class="edge"><title>mleftleft&#45;&gt;mleftleftright</title>
<path fill="none" stroke="black" d="M264.328,-126C292.769,-126 338.277,-126 370.124,-126"/>
<polygon fill="black" stroke="black" points="370.357,-129.5 380.357,-126 370.357,-122.5 370.357,-129.5"/>
</g>
<!-- mleftrightmid -->
<g id="node51" class="node"><title>mleftrightmid</title>
<polygon fill="none" stroke="black" points="480.5,-90 334.5,-90 334.5,-54 480.5,-54 480.5,-90"/>
<text text-anchor="middle" x="407.5" y="-65.8" font-family="Times New Roman,serif" font-size="24.00">mleftrightmid</text>
</g>
<!-- mleftrightmid&#45;&gt;a3db917068dd911e8a663cf55085fe449 -->
<g id="edge50" class="edge"><title>mleftrightmid&#45;&gt;a3db917068dd911e8a663cf55085fe449</title>
<path fill="none" stroke="black" d="M480.705,-72C504.962,-72 531.59,-72 554.231,-72"/>
<polygon fill="black" stroke="black" points="554.331,-75.5001 564.331,-72 554.331,-68.5001 554.331,-75.5001"/>
</g>
<!-- mleftright -->
<g id="node52" class="node"><title>mleftright</title>
<polygon fill="none" stroke="black" points="264,-90 210,-90 210,-54 264,-54 264,-90"/>
<text text-anchor="middle" x="237" y="-65.8" font-family="Times New Roman,serif" font-size="24.00">1</text>
</g>
<!-- mleftright&#45;&gt;mleftrightmid -->
<g id="edge49" class="edge"><title>mleftright&#45;&gt;mleftrightmid</title>
<path fill="none" stroke="black" d="M264.328,-72C280.549,-72 302.322,-72 323.945,-72"/>
<polygon fill="black" stroke="black" points="324.185,-75.5001 334.185,-72 324.185,-68.5001 324.185,-75.5001"/>
</g>
<!-- mleft -->
<g id="node53" class="node"><title>mleft</title>
<polygon fill="none" stroke="black" points="144,-90 90,-90 90,-54 144,-54 144,-90"/>
<text text-anchor="middle" x="117" y="-65.8" font-family="Times New Roman,serif" font-size="24.00">1</text>
</g>
<!-- mleft&#45;&gt;mleftleft -->
<g id="edge48" class="edge"><title>mleft&#45;&gt;mleftleft</title>
<path fill="none" stroke="black" d="M144.188,-83.9844C160.84,-91.6047 182.605,-101.565 200.764,-109.875"/>
<polygon fill="black" stroke="black" points="199.336,-113.07 209.885,-114.049 202.249,-106.705 199.336,-113.07"/>
</g>
<!-- mleft&#45;&gt;mleftright -->
<g id="edge51" class="edge"><title>mleft&#45;&gt;mleftright</title>
<path fill="none" stroke="black" d="M144.188,-72C160.534,-72 181.808,-72 199.761,-72"/>
<polygon fill="black" stroke="black" points="199.885,-75.5001 209.885,-72 199.885,-68.5001 199.885,-75.5001"/>
</g>
<!-- mrightmid -->
<g id="node54" class="node"><title>mrightmid</title>
<polygon fill="none" stroke="black" points="294,-36 180,-36 180,-0 294,-0 294,-36"/>
<text text-anchor="middle" x="237" y="-11.8" font-family="Times New Roman,serif" font-size="24.00">mrightmid</text>
</g>
<!-- mrightmid&#45;&gt;a3dc091768dd911e8a663cf55085fe449 -->
<g id="edge54" class="edge"><title>mrightmid&#45;&gt;a3dc091768dd911e8a663cf55085fe449</title>
<path fill="none" stroke="black" d="M294.108,-18C302.365,-18 311.03,-18 319.73,-18"/>
<polygon fill="black" stroke="black" points="319.938,-21.5001 329.938,-18 319.938,-14.5001 319.938,-21.5001"/>
</g>
<!-- mright -->
<g id="node55" class="node"><title>mright</title>
<polygon fill="none" stroke="black" points="144,-36 90,-36 90,-0 144,-0 144,-36"/>
<text text-anchor="middle" x="117" y="-11.8" font-family="Times New Roman,serif" font-size="24.00">1</text>
</g>
<!-- mright&#45;&gt;mrightmid -->
<g id="edge53" class="edge"><title>mright&#45;&gt;mrightmid</title>
<path fill="none" stroke="black" d="M144.188,-18C151.884,-18 160.672,-18 169.691,-18"/>
<polygon fill="black" stroke="black" points="169.927,-21.5001 179.927,-18 169.927,-14.5001 169.927,-21.5001"/>
</g>
<!-- m -->
<g id="node56" class="node"><title>m</title>
<polygon fill="none" stroke="black" points="54,-63 0,-63 0,-27 54,-27 54,-63"/>
<text text-anchor="middle" x="27" y="-38.8" font-family="Times New Roman,serif" font-size="24.00">m</text>
</g>
<!-- m&#45;&gt;mleft -->
<g id="edge52" class="edge"><title>m&#45;&gt;mleft</title>
<path fill="none" stroke="black" d="M54.4029,-53.1009C62.481,-55.5794 71.5067,-58.3486 80.1046,-60.9866"/>
<polygon fill="black" stroke="black" points="79.3322,-64.4106 89.919,-63.9979 81.3855,-57.7185 79.3322,-64.4106"/>
</g>
<!-- m&#45;&gt;mright -->
<g id="edge55" class="edge"><title>m&#45;&gt;mright</title>
<path fill="none" stroke="black" d="M54.4029,-36.8991C62.481,-34.4206 71.5067,-31.6514 80.1046,-29.0134"/>
<polygon fill="black" stroke="black" points="81.3855,-32.2815 89.919,-26.0021 79.3322,-25.5894 81.3855,-32.2815"/>
</g>
</g>
</svg>
