<?xml version="1.0" encoding="UTF-8" standalone="no"?>
<!DOCTYPE svg PUBLIC "-//W3C//DTD SVG 1.1//EN"
 "http://www.w3.org/Graphics/SVG/1.1/DTD/svg11.dtd">
<!-- Generated by graphviz version 2.40.1 (20161225.0304)
 -->
<!-- Title: g Pages: 1 -->
<svg width="4383pt" height="767pt"
 viewBox="0.00 0.00 4382.68 767.00" xmlns="http://www.w3.org/2000/svg" xmlns:xlink="http://www.w3.org/1999/xlink">
<g id="graph0" class="graph" transform="scale(1 1) rotate(0) translate(4 763)">
<title>g</title>
<polygon fill="#ffffff" stroke="transparent" points="-4,4 -4,-763 4378.675,-763 4378.675,4 -4,4"/>
<!-- a56f683384d211e8af229f9e43491f2f -->
<g id="node1" class="node">
<title>a56f683384d211e8af229f9e43491f2f</title>
<polygon fill="none" stroke="#000000" points="4054.1439,-759 3836.5968,-759 3836.5968,-723 4054.1439,-723 4054.1439,-759"/>
<text text-anchor="middle" x="3945.3703" y="-733.8" font-family="Times,serif" font-size="24.00" fill="#000000">RepositoryTreePanel</text>
</g>
<!-- a56f199c84d211e8af229f9e43491f2f -->
<g id="node2" class="node">
<title>a56f199c84d211e8af229f9e43491f2f</title>
<polygon fill="none" stroke="#000000" points="4019.3469,-705 3871.3937,-705 3871.3937,-669 4019.3469,-669 4019.3469,-705"/>
<text text-anchor="middle" x="3945.3703" y="-679.8" font-family="Times,serif" font-size="24.00" fill="#000000">RepoBrowser</text>
</g>
<!-- a56fdd0484d211e8af229f9e43491f2f -->
<g id="node3" class="node">
<title>a56fdd0484d211e8af229f9e43491f2f</title>
<polygon fill="none" stroke="#000000" points="4035.3859,-651 3855.3547,-651 3855.3547,-615 4035.3859,-615 4035.3859,-651"/>
<text text-anchor="middle" x="3945.3703" y="-625.8" font-family="Times,serif" font-size="24.00" fill="#000000">RootPopupMenu</text>
</g>
<!-- a56ea47b84d211e8af229f9e43491f2f -->
<g id="node4" class="node">
<title>a56ea47b84d211e8af229f9e43491f2f</title>
<polygon fill="none" stroke="#000000" points="4014.5426,-597 3876.1981,-597 3876.1981,-561 4014.5426,-561 4014.5426,-597"/>
<text text-anchor="middle" x="3945.3703" y="-571.8" font-family="Times,serif" font-size="24.00" fill="#000000">PopUpMenu</text>
</g>
<!-- a570047c84d211e8af229f9e43491f2f -->
<g id="node5" class="node">
<title>a570047c84d211e8af229f9e43491f2f</title>
<polygon fill="none" stroke="#000000" points="4027.8241,-543 3862.9166,-543 3862.9166,-507 4027.8241,-507 4027.8241,-543"/>
<text text-anchor="middle" x="3945.3703" y="-517.8" font-family="Times,serif" font-size="24.00" fill="#000000">RepositoryTree</text>
</g>
<!-- a56c0ba384d211e8af229f9e43491f2f -->
<g id="node6" class="node">
<title>a56c0ba384d211e8af229f9e43491f2f</title>
<polygon fill="none" stroke="#000000" points="4347.2592,-513 4117.6729,-513 4117.6729,-477 4347.2592,-477 4347.2592,-513"/>
<text text-anchor="middle" x="4232.466" y="-487.8" font-family="Times,serif" font-size="24.00" fill="#000000">CheckBoxNodeEditor</text>
</g>
<!-- a56c0ace84d211e8af229f9e43491f2f -->
<g id="node7" class="node">
<title>a56c0ace84d211e8af229f9e43491f2f</title>
<polygon fill="none" stroke="#000000" points="4374.8843,-459 4090.0477,-459 4090.0477,-423 4374.8843,-423 4374.8843,-459"/>
<text text-anchor="middle" x="4232.466" y="-433.8" font-family="Times,serif" font-size="24.00" fill="#000000">CheckBoxNodeTreeSample</text>
</g>
<!-- a56aac6384d211e8af229f9e43491f2f -->
<g id="node8" class="node">
<title>a56aac6384d211e8af229f9e43491f2f</title>
<polygon fill="none" stroke="#000000" points="3800.7152,-471 3703.7911,-471 3703.7911,-435 3800.7152,-435 3800.7152,-471"/>
<text text-anchor="middle" x="3752.2531" y="-445.8" font-family="Times,serif" font-size="24.00" fill="#000000">FileTree</text>
</g>
<!-- a56b95a984d211e8af229f9e43491f2f -->
<g id="node9" class="node">
<title>a56b95a984d211e8af229f9e43491f2f</title>
<polygon fill="none" stroke="#000000" points="3667.8258,-464 3488.614,-464 3488.614,-428 3667.8258,-428 3667.8258,-464"/>
<text text-anchor="middle" x="3578.2199" y="-438.8" font-family="Times,serif" font-size="24.00" fill="#000000">TableFilterDemo</text>
</g>
<!-- a569c0d784d211e8af229f9e43491f2f -->
<g id="node10" class="node">
<title>a569c0d784d211e8af229f9e43491f2f</title>
<polygon fill="none" stroke="#000000" points="3623.3924,-410 3533.0475,-410 3533.0475,-374 3623.3924,-374 3623.3924,-410"/>
<text text-anchor="middle" x="3578.2199" y="-384.8" font-family="Times,serif" font-size="24.00" fill="#000000">FileList</text>
</g>
<!-- a56e7bd884d211e8af229f9e43491f2f -->
<g id="node11" class="node">
<title>a56e7bd884d211e8af229f9e43491f2f</title>
<polygon fill="none" stroke="#000000" points="3412.9875,-426 3255.3071,-426 3255.3071,-390 3412.9875,-390 3412.9875,-426"/>
<text text-anchor="middle" x="3334.1473" y="-400.8" font-family="Times,serif" font-size="24.00" fill="#000000">SpringUtilities</text>
</g>
<!-- a56e552784d211e8af229f9e43491f2f -->
<g id="node12" class="node">
<title>a56e552784d211e8af229f9e43491f2f</title>
<polygon fill="none" stroke="#000000" points="3219.4188,-396 2927.6531,-396 2927.6531,-360 3219.4188,-360 3219.4188,-396"/>
<text text-anchor="middle" x="3073.5359" y="-370.8" font-family="Times,serif" font-size="24.00" fill="#000000">NormalizedDataCalibrateV2</text>
</g>
<!-- a56b20b884d211e8af229f9e43491f2f -->
<g id="node13" class="node">
<title>a56b20b884d211e8af229f9e43491f2f</title>
<polygon fill="none" stroke="#000000" points="2891.5555,-366 2606.7117,-366 2606.7117,-330 2891.5555,-330 2891.5555,-366"/>
<text text-anchor="middle" x="2749.1336" y="-340.8" font-family="Times,serif" font-size="24.00" fill="#000000">SimpleTableSelectionDemo</text>
</g>
<!-- a56e2ec184d211e8af229f9e43491f2f -->
<g id="node14" class="node">
<title>a56e2ec184d211e8af229f9e43491f2f</title>
<polygon fill="none" stroke="#000000" points="2570.4484,-336 2308.3461,-336 2308.3461,-300 2570.4484,-300 2570.4484,-336"/>
<text text-anchor="middle" x="2439.3973" y="-310.8" font-family="Times,serif" font-size="24.00" fill="#000000">NormalizedDataCalibrate</text>
</g>
<!-- a56c824f84d211e8af229f9e43491f2f -->
<g id="node15" class="node">
<title>a56c824f84d211e8af229f9e43491f2f</title>
<polygon fill="none" stroke="#000000" points="2272.3626,-306 2036.4007,-306 2036.4007,-270 2272.3626,-270 2272.3626,-306"/>
<text text-anchor="middle" x="2154.3816" y="-280.8" font-family="Times,serif" font-size="24.00" fill="#000000">EffortDataCalibrateV3</text>
</g>
<!-- a56c5bca84d211e8af229f9e43491f2f -->
<g id="node16" class="node">
<title>a56c5bca84d211e8af229f9e43491f2f</title>
<polygon fill="none" stroke="#000000" points="2000.8821,-276 1764.9202,-276 1764.9202,-240 2000.8821,-240 2000.8821,-276"/>
<text text-anchor="middle" x="1882.9012" y="-250.8" font-family="Times,serif" font-size="24.00" fill="#000000">EffortDataCalibrateV2</text>
</g>
<!-- a56c32b684d211e8af229f9e43491f2f -->
<g id="node17" class="node">
<title>a56c32b684d211e8af229f9e43491f2f</title>
<polygon fill="none" stroke="#000000" points="1729.0634,-246 1480.4538,-246 1480.4538,-210 1729.0634,-210 1729.0634,-246"/>
<text text-anchor="middle" x="1604.7586" y="-220.8" font-family="Times,serif" font-size="24.00" fill="#000000">BayesianAverageReport</text>
</g>
<!-- a56c0cfb84d211e8af229f9e43491f2f -->
<g id="node18" class="node">
<title>a56c0cfb84d211e8af229f9e43491f2f</title>
<polygon fill="none" stroke="#000000" points="1444.4833,-216 1186.9753,-216 1186.9753,-180 1444.4833,-180 1444.4833,-216"/>
<text text-anchor="middle" x="1315.7293" y="-190.8" font-family="Times,serif" font-size="24.00" fill="#000000">CheckBoxNodeRenderer</text>
</g>
<!-- a56c337784d211e8af229f9e43491f2f -->
<g id="node19" class="node">
<title>a56c337784d211e8af229f9e43491f2f</title>
<polygon fill="none" stroke="#000000" points="1150.9308,-186 984.6176,-186 984.6176,-150 1150.9308,-150 1150.9308,-186"/>
<text text-anchor="middle" x="1067.7742" y="-160.8" font-family="Times,serif" font-size="24.00" fill="#000000">RepoFileFinder</text>
</g>
<!-- a56c0c9984d211e8af229f9e43491f2f -->
<g id="node20" class="node">
<title>a56c0c9984d211e8af229f9e43491f2f</title>
<polygon fill="none" stroke="#000000" points="948.2765,-156 773.9555,-156 773.9555,-120 948.2765,-120 948.2765,-156"/>
<text text-anchor="middle" x="861.116" y="-130.8" font-family="Times,serif" font-size="24.00" fill="#000000">Anonymoustype</text>
</g>
<!-- a56be66b84d211e8af229f9e43491f2f -->
<g id="node21" class="node">
<title>a56be66b84d211e8af229f9e43491f2f</title>
<polygon fill="none" stroke="#000000" points="737.7567,-126 589.8738,-126 589.8738,-90 737.7567,-90 737.7567,-126"/>
<text text-anchor="middle" x="663.8152" y="-100.8" font-family="Times,serif" font-size="24.00" fill="#000000">NamedVector</text>
</g>
<!-- a56be61284d211e8af229f9e43491f2f -->
<g id="node22" class="node">
<title>a56be61284d211e8af229f9e43491f2f</title>
<polygon fill="none" stroke="#000000" points="553.9971,-96 384.3872,-96 384.3872,-60 553.9971,-60 553.9971,-96"/>
<text text-anchor="middle" x="469.1922" y="-70.8" font-family="Times,serif" font-size="24.00" fill="#000000">CheckBoxNode</text>
</g>
<!-- a56afada84d211e8af229f9e43491f2f -->
<g id="node23" class="node">
<title>a56afada84d211e8af229f9e43491f2f</title>
<polygon fill="none" stroke="#000000" points="348.3763,-66 246.0315,-66 246.0315,-30 348.3763,-30 348.3763,-66"/>
<text text-anchor="middle" x="297.2039" y="-40.8" font-family="Times,serif" font-size="24.00" fill="#000000">FileList1</text>
</g>
<!-- a56ea36684d211e8af229f9e43491f2f -->
<g id="node24" class="node">
<title>a56ea36684d211e8af229f9e43491f2f</title>
<polygon fill="none" stroke="#000000" points="209.7024,-36 79.3656,-36 79.3656,0 209.7024,0 209.7024,-36"/>
<text text-anchor="middle" x="144.534" y="-10.8" font-family="Times,serif" font-size="24.00" fill="#000000">AnalysisKit</text>
</g>
<!-- mllllllllllllllllll -->
<g id="node25" class="node">
<title>mllllllllllllllllll</title>
<ellipse fill="#000000" stroke="#000000" cx="3752.2531" cy="-725" rx="1.8" ry="1.8"/>
</g>
<!-- mllllllllllllllllll&#45;&gt;a56f683384d211e8af229f9e43491f2f -->
<g id="edge1" class="edge">
<title>mllllllllllllllllll&#45;&gt;a56f683384d211e8af229f9e43491f2f</title>
<path fill="none" stroke="#000000" d="M3754.4219,-725.1797C3762.5496,-725.8531 3792.4723,-728.3322 3826.2987,-731.1348"/>
<polygon fill="#000000" stroke="#000000" points="3826.158,-734.635 3836.4129,-731.9727 3826.7361,-727.6589 3826.158,-734.635"/>
</g>
<!-- mlllllllllllllllllr -->
<g id="node26" class="node">
<title>mlllllllllllllllllr</title>
<ellipse fill="#000000" stroke="#000000" cx="3752.2531" cy="-687" rx="1.8" ry="1.8"/>
</g>
<!-- mlllllllllllllllllr&#45;&gt;a56f199c84d211e8af229f9e43491f2f -->
<g id="edge2" class="edge">
<title>mlllllllllllllllllr&#45;&gt;a56f199c84d211e8af229f9e43491f2f</title>
<path fill="none" stroke="#000000" d="M3754.4219,-687C3765.2894,-687 3815.1229,-687 3861.1527,-687"/>
<polygon fill="#000000" stroke="#000000" points="3861.2068,-690.5001 3871.2067,-687 3861.2067,-683.5001 3861.2068,-690.5001"/>
</g>
<!-- mllllllllllllllllrl -->
<g id="node27" class="node">
<title>mllllllllllllllllrl</title>
<ellipse fill="#000000" stroke="#000000" cx="3752.2531" cy="-620" rx="1.8" ry="1.8"/>
</g>
<!-- mllllllllllllllllrl&#45;&gt;a56fdd0484d211e8af229f9e43491f2f -->
<g id="edge5" class="edge">
<title>mllllllllllllllllrl&#45;&gt;a56fdd0484d211e8af229f9e43491f2f</title>
<path fill="none" stroke="#000000" d="M3754.4219,-620.146C3764.0307,-620.7928 3804.1017,-623.4903 3845.0718,-626.2482"/>
<polygon fill="#000000" stroke="#000000" points="3844.9953,-629.7509 3855.2079,-626.9306 3845.4655,-622.7667 3844.9953,-629.7509"/>
</g>
<!-- mllllllllllllllllrr -->
<g id="node28" class="node">
<title>mllllllllllllllllrr</title>
<ellipse fill="#000000" stroke="#000000" cx="3752.2531" cy="-586" rx="1.8" ry="1.8"/>
</g>
<!-- mllllllllllllllllrr&#45;&gt;a56ea47b84d211e8af229f9e43491f2f -->
<g id="edge6" class="edge">
<title>mllllllllllllllllrr&#45;&gt;a56ea47b84d211e8af229f9e43491f2f</title>
<path fill="none" stroke="#000000" d="M3754.4219,-585.9214C3765.6797,-585.5133 3818.7527,-583.5896 3866.0955,-581.8735"/>
<polygon fill="#000000" stroke="#000000" points="3866.2272,-585.3711 3876.0938,-581.5111 3865.9736,-578.3757 3866.2272,-585.3711"/>
</g>
<!-- mlllllllllllllllll -->
<g id="node29" class="node">
<title>mlllllllllllllllll</title>
<ellipse fill="#000000" stroke="#000000" cx="3578.2199" cy="-687" rx="1.8" ry="1.8"/>
</g>
<!-- mlllllllllllllllll&#45;&gt;mllllllllllllllllll -->
<g id="edge3" class="edge">
<title>mlllllllllllllllll&#45;&gt;mllllllllllllllllll</title>
<path fill="none" stroke="#000000" d="M3580.1744,-687.4268C3596.0057,-690.8835 3703.5955,-714.3757 3740.1375,-722.3546"/>
<polygon fill="#000000" stroke="#000000" points="3739.5677,-725.8125 3750.0842,-724.5264 3741.061,-718.9737 3739.5677,-725.8125"/>
</g>
<!-- mlllllllllllllllll&#45;&gt;mlllllllllllllllllr -->
<g id="edge4" class="edge">
<title>mlllllllllllllllll&#45;&gt;mlllllllllllllllllr</title>
<path fill="none" stroke="#000000" d="M3580.1744,-687C3595.9363,-687 3702.6535,-687 3739.6526,-687"/>
<polygon fill="#000000" stroke="#000000" points="3740.0842,-690.5001 3750.0842,-687 3740.0842,-683.5001 3740.0842,-690.5001"/>
</g>
<!-- mllllllllllllllllr -->
<g id="node30" class="node">
<title>mllllllllllllllllr</title>
<ellipse fill="#000000" stroke="#000000" cx="3578.2199" cy="-613" rx="1.8" ry="1.8"/>
</g>
<!-- mllllllllllllllllr&#45;&gt;mllllllllllllllllrl -->
<g id="edge7" class="edge">
<title>mllllllllllllllllr&#45;&gt;mllllllllllllllllrl</title>
<path fill="none" stroke="#000000" d="M3580.1744,-613.0786C3595.9363,-613.7126 3702.6535,-618.005 3739.6526,-619.4932"/>
<polygon fill="#000000" stroke="#000000" points="3739.9516,-623.0079 3750.0842,-619.9128 3740.233,-616.0136 3739.9516,-623.0079"/>
</g>
<!-- mllllllllllllllllr&#45;&gt;mllllllllllllllllrr -->
<g id="edge8" class="edge">
<title>mllllllllllllllllr&#45;&gt;mllllllllllllllllrr</title>
<path fill="none" stroke="#000000" d="M3580.1744,-612.6968C3596.0057,-610.2407 3703.5955,-593.5489 3740.1375,-587.8797"/>
<polygon fill="#000000" stroke="#000000" points="3740.739,-591.3283 3750.0842,-586.3365 3739.6658,-584.411 3740.739,-591.3283"/>
</g>
<!-- mlllllllllllllllrlrl -->
<g id="node31" class="node">
<title>mlllllllllllllllrlrl</title>
<ellipse fill="#000000" stroke="#000000" cx="3945.3703" cy="-487" rx="1.8" ry="1.8"/>
</g>
<!-- mlllllllllllllllrlrl&#45;&gt;a56c0ba384d211e8af229f9e43491f2f -->
<g id="edge12" class="edge">
<title>mlllllllllllllllrlrl&#45;&gt;a56c0ba384d211e8af229f9e43491f2f</title>
<path fill="none" stroke="#000000" d="M3947.2036,-487.0511C3959.9258,-487.4056 4036.6358,-489.5431 4107.3025,-491.5123"/>
<polygon fill="#000000" stroke="#000000" points="4107.5829,-495.0214 4117.6766,-491.8014 4107.778,-488.0241 4107.5829,-495.0214"/>
</g>
<!-- mlllllllllllllllrlrr -->
<g id="node32" class="node">
<title>mlllllllllllllllrlrr</title>
<ellipse fill="#000000" stroke="#000000" cx="3945.3703" cy="-457" rx="1.8" ry="1.8"/>
</g>
<!-- mlllllllllllllllrlrr&#45;&gt;a56c0ace84d211e8af229f9e43491f2f -->
<g id="edge13" class="edge">
<title>mlllllllllllllllrlrr&#45;&gt;a56c0ace84d211e8af229f9e43491f2f</title>
<path fill="none" stroke="#000000" d="M3947.2036,-456.8978C3958.2869,-456.2802 4017.9336,-452.956 4079.8408,-449.5059"/>
<polygon fill="#000000" stroke="#000000" points="4080.4032,-452.9801 4090.1929,-448.929 4080.0136,-445.9909 4080.4032,-452.9801"/>
</g>
<!-- mlllllllllllllllrll -->
<g id="node33" class="node">
<title>mlllllllllllllllrll</title>
<ellipse fill="#000000" stroke="#000000" cx="3752.2531" cy="-521" rx="1.8" ry="1.8"/>
</g>
<!-- mlllllllllllllllrll&#45;&gt;a570047c84d211e8af229f9e43491f2f -->
<g id="edge11" class="edge">
<title>mlllllllllllllllrll&#45;&gt;a570047c84d211e8af229f9e43491f2f</title>
<path fill="none" stroke="#000000" d="M3754.4219,-521.0449C3764.648,-521.2567 3809.3759,-522.1832 3852.9711,-523.0862"/>
<polygon fill="#000000" stroke="#000000" points="3853.0508,-526.5885 3863.1212,-523.2964 3853.1958,-519.59 3853.0508,-526.5885"/>
</g>
<!-- mlllllllllllllllrlr -->
<g id="node34" class="node">
<title>mlllllllllllllllrlr</title>
<ellipse fill="#000000" stroke="#000000" cx="3752.2531" cy="-491" rx="1.8" ry="1.8"/>
</g>
<!-- mlllllllllllllllrlr&#45;&gt;mlllllllllllllllrlrl -->
<g id="edge14" class="edge">
<title>mlllllllllllllllrlr&#45;&gt;mlllllllllllllllrlrl</title>
<path fill="none" stroke="#000000" d="M3754.4219,-490.9551C3772.2146,-490.5865 3894.4564,-488.0546 3933.4471,-487.247"/>
<polygon fill="#000000" stroke="#000000" points="3933.5336,-490.746 3943.459,-487.0396 3933.3886,-483.7475 3933.5336,-490.746"/>
</g>
<!-- mlllllllllllllllrlr&#45;&gt;mlllllllllllllllrlrr -->
<g id="edge15" class="edge">
<title>mlllllllllllllllrlr&#45;&gt;mlllllllllllllllrlrr</title>
<path fill="none" stroke="#000000" d="M3754.3365,-490.6262C3763.803,-488.9285 3803.7172,-481.7763 3836.4836,-476 3871.7996,-469.7742 3913.5782,-462.5133 3933.5654,-459.046"/>
<polygon fill="#000000" stroke="#000000" points="3934.3188,-462.4677 3943.574,-457.311 3933.1231,-455.5706 3934.3188,-462.4677"/>
</g>
<!-- mlllllllllllllllrl -->
<g id="node35" class="node">
<title>mlllllllllllllllrl</title>
<ellipse fill="#000000" stroke="#000000" cx="3578.2199" cy="-506" rx="1.8" ry="1.8"/>
</g>
<!-- mlllllllllllllllrl&#45;&gt;mlllllllllllllllrll -->
<g id="edge16" class="edge">
<title>mlllllllllllllllrl&#45;&gt;mlllllllllllllllrll</title>
<path fill="none" stroke="#000000" d="M3580.1744,-506.1685C3595.9363,-507.527 3702.6535,-516.725 3739.6526,-519.914"/>
<polygon fill="#000000" stroke="#000000" points="3739.8206,-523.4413 3750.0842,-520.8131 3740.4217,-516.4672 3739.8206,-523.4413"/>
</g>
<!-- mlllllllllllllllrl&#45;&gt;mlllllllllllllllrlr -->
<g id="edge17" class="edge">
<title>mlllllllllllllllrl&#45;&gt;mlllllllllllllllrlr</title>
<path fill="none" stroke="#000000" d="M3580.1744,-505.8315C3595.9363,-504.473 3702.6535,-495.275 3739.6526,-492.086"/>
<polygon fill="#000000" stroke="#000000" points="3740.4217,-495.5328 3750.0842,-491.1869 3739.8206,-488.5587 3740.4217,-495.5328"/>
</g>
<!-- mlllllllllllllllrr -->
<g id="node36" class="node">
<title>mlllllllllllllllrr</title>
<ellipse fill="#000000" stroke="#000000" cx="3578.2199" cy="-484" rx="1.8" ry="1.8"/>
</g>
<!-- mlllllllllllllllrr&#45;&gt;a56aac6384d211e8af229f9e43491f2f -->
<g id="edge18" class="edge">
<title>mlllllllllllllllrr&#45;&gt;a56aac6384d211e8af229f9e43491f2f</title>
<path fill="none" stroke="#000000" d="M3580.4553,-483.8186C3590.6096,-482.975 3633.3912,-479.2126 3668.0227,-473 3676.4227,-471.4931 3685.2403,-469.6707 3693.8769,-467.747"/>
<polygon fill="#000000" stroke="#000000" points="3694.9289,-471.0968 3703.8966,-465.4549 3693.3679,-464.2731 3694.9289,-471.0968"/>
</g>
<!-- mllllllllllllllll -->
<g id="node37" class="node">
<title>mllllllllllllllll</title>
<ellipse fill="#000000" stroke="#000000" cx="3450.6172" cy="-613" rx="1.8" ry="1.8"/>
</g>
<!-- mllllllllllllllll&#45;&gt;mlllllllllllllllll -->
<g id="edge9" class="edge">
<title>mllllllllllllllll&#45;&gt;mlllllllllllllllll</title>
<path fill="none" stroke="#000000" d="M3452.421,-614.0461C3464.9813,-621.3301 3539.7029,-664.663 3567.6661,-680.8796"/>
<polygon fill="#000000" stroke="#000000" points="3566.249,-684.1037 3576.6554,-686.0927 3569.7607,-678.0483 3566.249,-684.1037"/>
</g>
<!-- mllllllllllllllll&#45;&gt;mllllllllllllllllr -->
<g id="edge10" class="edge">
<title>mllllllllllllllll&#45;&gt;mllllllllllllllllr</title>
<path fill="none" stroke="#000000" d="M3452.421,-613C3464.764,-613 3537.1366,-613 3566.1737,-613"/>
<polygon fill="#000000" stroke="#000000" points="3566.2983,-616.5001 3576.2982,-613 3566.2982,-609.5001 3566.2983,-616.5001"/>
</g>
<!-- mlllllllllllllllr -->
<g id="node38" class="node">
<title>mlllllllllllllllr</title>
<ellipse fill="#000000" stroke="#000000" cx="3450.6172" cy="-495" rx="1.8" ry="1.8"/>
</g>
<!-- mlllllllllllllllr&#45;&gt;mlllllllllllllllrl -->
<g id="edge19" class="edge">
<title>mlllllllllllllllr&#45;&gt;mlllllllllllllllrl</title>
<path fill="none" stroke="#000000" d="M3452.421,-495.1555C3464.764,-496.2195 3537.1366,-502.4584 3566.1737,-504.9616"/>
<polygon fill="#000000" stroke="#000000" points="3566.0346,-508.4625 3576.2982,-505.8343 3566.6358,-501.4883 3566.0346,-508.4625"/>
</g>
<!-- mlllllllllllllllr&#45;&gt;mlllllllllllllllrr -->
<g id="edge20" class="edge">
<title>mlllllllllllllllr&#45;&gt;mlllllllllllllllrr</title>
<path fill="none" stroke="#000000" d="M3452.421,-494.8445C3464.764,-493.7805 3537.1366,-487.5416 3566.1737,-485.0384"/>
<polygon fill="#000000" stroke="#000000" points="3566.6358,-488.5117 3576.2982,-484.1657 3566.0346,-481.5375 3566.6358,-488.5117"/>
</g>
<!-- mllllllllllllllrl -->
<g id="node39" class="node">
<title>mllllllllllllllrl</title>
<ellipse fill="#000000" stroke="#000000" cx="3450.6172" cy="-446" rx="1.8" ry="1.8"/>
</g>
<!-- mllllllllllllllrl&#45;&gt;a56b95a984d211e8af229f9e43491f2f -->
<g id="edge23" class="edge">
<title>mllllllllllllllrl&#45;&gt;a56b95a984d211e8af229f9e43491f2f</title>
<path fill="none" stroke="#000000" d="M3452.421,-446C3456.2454,-446 3465.8326,-446 3478.1081,-446"/>
<polygon fill="#000000" stroke="#000000" points="3478.4705,-449.5001 3488.4705,-446 3478.4705,-442.5001 3478.4705,-449.5001"/>
</g>
<!-- mllllllllllllllrr -->
<g id="node40" class="node">
<title>mllllllllllllllrr</title>
<ellipse fill="#000000" stroke="#000000" cx="3450.6172" cy="-408" rx="1.8" ry="1.8"/>
</g>
<!-- mllllllllllllllrr&#45;&gt;a569c0d784d211e8af229f9e43491f2f -->
<g id="edge24" class="edge">
<title>mllllllllllllllrr&#45;&gt;a569c0d784d211e8af229f9e43491f2f</title>
<path fill="none" stroke="#000000" d="M3452.421,-407.7738C3460.3135,-406.7842 3492.7501,-402.717 3522.707,-398.9607"/>
<polygon fill="#000000" stroke="#000000" points="3523.2454,-402.4207 3532.7322,-397.7037 3522.3744,-395.4751 3523.2454,-402.4207"/>
</g>
<!-- mlllllllllllllll -->
<g id="node41" class="node">
<title>mlllllllllllllll</title>
<ellipse fill="#000000" stroke="#000000" cx="3334.1473" cy="-495" rx="1.8" ry="1.8"/>
</g>
<!-- mlllllllllllllll&#45;&gt;mllllllllllllllll -->
<g id="edge21" class="edge">
<title>mlllllllllllllll&#45;&gt;mllllllllllllllll</title>
<path fill="none" stroke="#000000" d="M3335.4553,-496.3252C3345.9573,-506.9652 3416.7951,-578.7336 3441.8544,-604.1221"/>
<polygon fill="#000000" stroke="#000000" points="3439.6499,-606.871 3449.1657,-611.5294 3444.6318,-601.9536 3439.6499,-606.871"/>
</g>
<!-- mlllllllllllllll&#45;&gt;mlllllllllllllllr -->
<g id="edge22" class="edge">
<title>mlllllllllllllll&#45;&gt;mlllllllllllllllr</title>
<path fill="none" stroke="#000000" d="M3336.1688,-495C3348.2625,-495 3411.4221,-495 3438.3908,-495"/>
<polygon fill="#000000" stroke="#000000" points="3438.54,-498.5001 3448.54,-495 3438.5399,-491.5001 3438.54,-498.5001"/>
</g>
<!-- mllllllllllllllr -->
<g id="node42" class="node">
<title>mllllllllllllllr</title>
<ellipse fill="#000000" stroke="#000000" cx="3334.1473" cy="-446" rx="1.8" ry="1.8"/>
</g>
<!-- mllllllllllllllr&#45;&gt;mllllllllllllllrl -->
<g id="edge25" class="edge">
<title>mllllllllllllllr&#45;&gt;mllllllllllllllrl</title>
<path fill="none" stroke="#000000" d="M3336.1688,-446C3348.2625,-446 3411.4221,-446 3438.3908,-446"/>
<polygon fill="#000000" stroke="#000000" points="3438.54,-449.5001 3448.54,-446 3438.5399,-442.5001 3438.54,-449.5001"/>
</g>
<!-- mllllllllllllllr&#45;&gt;mllllllllllllllrr -->
<g id="edge26" class="edge">
<title>mllllllllllllllr&#45;&gt;mllllllllllllllrr</title>
<path fill="none" stroke="#000000" d="M3336.1827,-446.0639C3345.4124,-446.2835 3384.1246,-446.4464 3412.8172,-435 3423.8144,-430.6129 3434.63,-422.3777 3441.8555,-416.151"/>
<polygon fill="#000000" stroke="#000000" points="3444.3209,-418.639 3449.3221,-409.2988 3439.5878,-413.4816 3444.3209,-418.639"/>
</g>
<!-- mllllllllllllll -->
<g id="node43" class="node">
<title>mllllllllllllll</title>
<ellipse fill="#000000" stroke="#000000" cx="3073.5359" cy="-446" rx="1.8" ry="1.8"/>
</g>
<!-- mllllllllllllll&#45;&gt;mlllllllllllllll -->
<g id="edge27" class="edge">
<title>mllllllllllllll&#45;&gt;mlllllllllllllll</title>
<path fill="none" stroke="#000000" d="M3075.4838,-446.3662C3096.0906,-450.2407 3274.2104,-483.7307 3322.2517,-492.7634"/>
<polygon fill="#000000" stroke="#000000" points="3321.6388,-496.2094 3332.1134,-494.6176 3322.9323,-489.33 3321.6388,-496.2094"/>
</g>
<!-- mllllllllllllll&#45;&gt;mllllllllllllllr -->
<g id="edge28" class="edge">
<title>mllllllllllllll&#45;&gt;mllllllllllllllr</title>
<path fill="none" stroke="#000000" d="M3075.4838,-446C3096.0466,-446 3273.4499,-446 3321.9419,-446"/>
<polygon fill="#000000" stroke="#000000" points="3322.1134,-449.5001 3332.1134,-446 3322.1133,-442.5001 3322.1134,-449.5001"/>
</g>
<!-- mlllllllllllllr -->
<g id="node44" class="node">
<title>mlllllllllllllr</title>
<ellipse fill="#000000" stroke="#000000" cx="3073.5359" cy="-416" rx="1.8" ry="1.8"/>
</g>
<!-- mlllllllllllllr&#45;&gt;a56e7bd884d211e8af229f9e43491f2f -->
<g id="edge29" class="edge">
<title>mlllllllllllllr&#45;&gt;a56e7bd884d211e8af229f9e43491f2f</title>
<path fill="none" stroke="#000000" d="M3075.4838,-415.9402C3089.4684,-415.5109 3175.9959,-412.8548 3245.1799,-410.731"/>
<polygon fill="#000000" stroke="#000000" points="3245.3629,-414.2272 3255.2508,-410.4219 3245.1481,-407.2305 3245.3629,-414.2272"/>
</g>
<!-- mlllllllllllll -->
<g id="node45" class="node">
<title>mlllllllllllll</title>
<ellipse fill="#000000" stroke="#000000" cx="2749.1336" cy="-416" rx="1.8" ry="1.8"/>
</g>
<!-- mlllllllllllll&#45;&gt;mllllllllllllll -->
<g id="edge30" class="edge">
<title>mlllllllllllll&#45;&gt;mllllllllllllll</title>
<path fill="none" stroke="#000000" d="M2751.2052,-416.1916C2775.4811,-418.4366 3005.9509,-439.7499 3061.5229,-444.8891"/>
<polygon fill="#000000" stroke="#000000" points="3061.3713,-448.3899 3071.6512,-445.8257 3062.016,-441.4196 3061.3713,-448.3899"/>
</g>
<!-- mlllllllllllll&#45;&gt;mlllllllllllllr -->
<g id="edge31" class="edge">
<title>mlllllllllllll&#45;&gt;mlllllllllllllr</title>
<path fill="none" stroke="#000000" d="M2751.2052,-416C2775.4811,-416 3005.9509,-416 3061.5229,-416"/>
<polygon fill="#000000" stroke="#000000" points="3061.6512,-419.5001 3071.6512,-416 3061.6511,-412.5001 3061.6512,-419.5001"/>
</g>
<!-- mllllllllllllr -->
<g id="node46" class="node">
<title>mllllllllllllr</title>
<ellipse fill="#000000" stroke="#000000" cx="2749.1336" cy="-386" rx="1.8" ry="1.8"/>
</g>
<!-- mllllllllllllr&#45;&gt;a56e552784d211e8af229f9e43491f2f -->
<g id="edge32" class="edge">
<title>mllllllllllllr&#45;&gt;a56e552784d211e8af229f9e43491f2f</title>
<path fill="none" stroke="#000000" d="M2751.2052,-385.9489C2764.684,-385.6165 2841.7288,-383.7165 2917.1087,-381.8576"/>
<polygon fill="#000000" stroke="#000000" points="2917.3354,-385.3532 2927.246,-381.6076 2917.1627,-378.3553 2917.3354,-385.3532"/>
</g>
<!-- mllllllllllll -->
<g id="node47" class="node">
<title>mllllllllllll</title>
<ellipse fill="#000000" stroke="#000000" cx="2439.3973" cy="-386" rx="1.8" ry="1.8"/>
</g>
<!-- mllllllllllll&#45;&gt;mlllllllllllll -->
<g id="edge33" class="edge">
<title>mllllllllllll&#45;&gt;mlllllllllllll</title>
<path fill="none" stroke="#000000" d="M2441.3752,-386.1916C2464.5046,-388.4318 2683.6725,-409.6597 2737.3242,-414.8562"/>
<polygon fill="#000000" stroke="#000000" points="2737.0432,-418.3453 2747.334,-415.8257 2737.7181,-411.3779 2737.0432,-418.3453"/>
</g>
<!-- mllllllllllll&#45;&gt;mllllllllllllr -->
<g id="edge34" class="edge">
<title>mllllllllllll&#45;&gt;mllllllllllllr</title>
<path fill="none" stroke="#000000" d="M2441.3752,-386C2464.4587,-386 2682.8036,-386 2737.0029,-386"/>
<polygon fill="#000000" stroke="#000000" points="2737.0271,-389.5001 2747.027,-386 2737.027,-382.5001 2737.0271,-389.5001"/>
</g>
<!-- mlllllllllllr -->
<g id="node48" class="node">
<title>mlllllllllllr</title>
<ellipse fill="#000000" stroke="#000000" cx="2439.3973" cy="-356" rx="1.8" ry="1.8"/>
</g>
<!-- mlllllllllllr&#45;&gt;a56b20b884d211e8af229f9e43491f2f -->
<g id="edge35" class="edge">
<title>mlllllllllllr&#45;&gt;a56b20b884d211e8af229f9e43491f2f</title>
<path fill="none" stroke="#000000" d="M2441.3752,-355.9489C2454.0202,-355.6223 2525.2594,-353.7823 2596.0124,-351.9549"/>
<polygon fill="#000000" stroke="#000000" points="2596.5345,-355.4427 2606.4408,-351.6855 2596.3537,-348.445 2596.5345,-355.4427"/>
</g>
<!-- mlllllllllll -->
<g id="node49" class="node">
<title>mlllllllllll</title>
<ellipse fill="#000000" stroke="#000000" cx="2154.3816" cy="-356" rx="1.8" ry="1.8"/>
</g>
<!-- mlllllllllll&#45;&gt;mllllllllllll -->
<g id="edge36" class="edge">
<title>mlllllllllll&#45;&gt;mllllllllllll</title>
<path fill="none" stroke="#000000" d="M2156.2017,-356.1916C2177.3078,-358.4132 2375.8145,-379.3074 2427.2656,-384.723"/>
<polygon fill="#000000" stroke="#000000" points="2427.1474,-388.2299 2437.4588,-385.796 2427.8802,-381.2683 2427.1474,-388.2299"/>
</g>
<!-- mlllllllllll&#45;&gt;mlllllllllllr -->
<g id="edge37" class="edge">
<title>mlllllllllll&#45;&gt;mlllllllllllr</title>
<path fill="none" stroke="#000000" d="M2156.2017,-356C2177.3078,-356 2375.8145,-356 2427.2656,-356"/>
<polygon fill="#000000" stroke="#000000" points="2427.4589,-359.5001 2437.4588,-356 2427.4588,-352.5001 2427.4589,-359.5001"/>
</g>
<!-- mllllllllllr -->
<g id="node50" class="node">
<title>mllllllllllr</title>
<ellipse fill="#000000" stroke="#000000" cx="2154.3816" cy="-326" rx="1.8" ry="1.8"/>
</g>
<!-- mllllllllllr&#45;&gt;a56e2ec184d211e8af229f9e43491f2f -->
<g id="edge38" class="edge">
<title>mllllllllllr&#45;&gt;a56e2ec184d211e8af229f9e43491f2f</title>
<path fill="none" stroke="#000000" d="M2156.2017,-325.9489C2167.8137,-325.623 2233.1225,-323.7899 2298.0967,-321.9661"/>
<polygon fill="#000000" stroke="#000000" points="2298.1952,-325.4648 2308.093,-321.6855 2297.9987,-318.4676 2298.1952,-325.4648"/>
</g>
<!-- mllllllllll -->
<g id="node51" class="node">
<title>mllllllllll</title>
<ellipse fill="#000000" stroke="#000000" cx="1882.9012" cy="-326" rx="1.8" ry="1.8"/>
</g>
<!-- mllllllllll&#45;&gt;mlllllllllll -->
<g id="edge39" class="edge">
<title>mllllllllll&#45;&gt;mlllllllllll</title>
<path fill="none" stroke="#000000" d="M1884.9303,-326.2242C1906.4852,-328.6062 2093.4813,-349.2702 2142.6033,-354.6984"/>
<polygon fill="#000000" stroke="#000000" points="2142.2262,-358.178 2152.5501,-355.7976 2142.9951,-351.2203 2142.2262,-358.178"/>
</g>
<!-- mllllllllll&#45;&gt;mllllllllllr -->
<g id="edge40" class="edge">
<title>mllllllllll&#45;&gt;mllllllllllr</title>
<path fill="none" stroke="#000000" d="M1884.9303,-326C1906.4392,-326 2092.6829,-326 2142.2866,-326"/>
<polygon fill="#000000" stroke="#000000" points="2142.5501,-329.5001 2152.5501,-326 2142.5501,-322.5001 2142.5501,-329.5001"/>
</g>
<!-- mlllllllllr -->
<g id="node52" class="node">
<title>mlllllllllr</title>
<ellipse fill="#000000" stroke="#000000" cx="1882.9012" cy="-296" rx="1.8" ry="1.8"/>
</g>
<!-- mlllllllllr&#45;&gt;a56c824f84d211e8af229f9e43491f2f -->
<g id="edge41" class="edge">
<title>mlllllllllr&#45;&gt;a56c824f84d211e8af229f9e43491f2f</title>
<path fill="none" stroke="#000000" d="M1884.9303,-295.9402C1897.1816,-295.5792 1962.8789,-293.6432 2026.3291,-291.7735"/>
<polygon fill="#000000" stroke="#000000" points="2026.5921,-295.2673 2036.4846,-291.4742 2026.3858,-288.2704 2026.5921,-295.2673"/>
</g>
<!-- mlllllllll -->
<g id="node53" class="node">
<title>mlllllllll</title>
<ellipse fill="#000000" stroke="#000000" cx="1604.7586" cy="-296" rx="1.8" ry="1.8"/>
</g>
<!-- mlllllllll&#45;&gt;mllllllllll -->
<g id="edge42" class="edge">
<title>mlllllllll&#45;&gt;mllllllllll</title>
<path fill="none" stroke="#000000" d="M1606.8375,-296.2242C1628.9214,-298.6062 1820.5063,-319.2702 1870.8338,-324.6984"/>
<polygon fill="#000000" stroke="#000000" points="1870.707,-328.205 1881.0247,-325.7976 1871.4577,-321.2453 1870.707,-328.205"/>
</g>
<!-- mlllllllll&#45;&gt;mlllllllllr -->
<g id="edge43" class="edge">
<title>mlllllllll&#45;&gt;mlllllllllr</title>
<path fill="none" stroke="#000000" d="M1606.8375,-296C1628.9214,-296 1820.5063,-296 1870.8338,-296"/>
<polygon fill="#000000" stroke="#000000" points="1871.0247,-299.5001 1881.0247,-296 1871.0247,-292.5001 1871.0247,-299.5001"/>
</g>
<!-- mllllllllr -->
<g id="node54" class="node">
<title>mllllllllr</title>
<ellipse fill="#000000" stroke="#000000" cx="1604.7586" cy="-266" rx="1.8" ry="1.8"/>
</g>
<!-- mllllllllr&#45;&gt;a56c5bca84d211e8af229f9e43491f2f -->
<g id="edge44" class="edge">
<title>mllllllllr&#45;&gt;a56c5bca84d211e8af229f9e43491f2f</title>
<path fill="none" stroke="#000000" d="M1606.8375,-265.9402C1619.5808,-265.5737 1688.7636,-263.5838 1754.677,-261.688"/>
<polygon fill="#000000" stroke="#000000" points="1754.8988,-265.1832 1764.794,-261.397 1754.6975,-258.1861 1754.8988,-265.1832"/>
</g>
<!-- mllllllll -->
<g id="node55" class="node">
<title>mllllllll</title>
<ellipse fill="#000000" stroke="#000000" cx="1315.7293" cy="-266" rx="1.8" ry="1.8"/>
</g>
<!-- mllllllll&#45;&gt;mlllllllll -->
<g id="edge45" class="edge">
<title>mllllllll&#45;&gt;mlllllllll</title>
<path fill="none" stroke="#000000" d="M1317.575,-266.1916C1339.024,-268.4179 1541.1396,-289.3966 1592.7877,-294.7575"/>
<polygon fill="#000000" stroke="#000000" points="1592.4849,-298.2448 1602.7929,-295.796 1593.2077,-291.2822 1592.4849,-298.2448"/>
</g>
<!-- mllllllll&#45;&gt;mllllllllr -->
<g id="edge46" class="edge">
<title>mllllllll&#45;&gt;mllllllllr</title>
<path fill="none" stroke="#000000" d="M1317.575,-266C1339.024,-266 1541.1396,-266 1592.7877,-266"/>
<polygon fill="#000000" stroke="#000000" points="1592.7929,-269.5001 1602.7929,-266 1592.7928,-262.5001 1592.7929,-269.5001"/>
</g>
<!-- mlllllllr -->
<g id="node56" class="node">
<title>mlllllllr</title>
<ellipse fill="#000000" stroke="#000000" cx="1315.7293" cy="-236" rx="1.8" ry="1.8"/>
</g>
<!-- mlllllllr&#45;&gt;a56c32b684d211e8af229f9e43491f2f -->
<g id="edge47" class="edge">
<title>mlllllllr&#45;&gt;a56c32b684d211e8af229f9e43491f2f</title>
<path fill="none" stroke="#000000" d="M1317.575,-235.9489C1329.8787,-235.6084 1401.6306,-233.6224 1470.3285,-231.7209"/>
<polygon fill="#000000" stroke="#000000" points="1470.5353,-235.2166 1480.4346,-231.4411 1470.3416,-228.2193 1470.5353,-235.2166"/>
</g>
<!-- mlllllll -->
<g id="node57" class="node">
<title>mlllllll</title>
<ellipse fill="#000000" stroke="#000000" cx="1067.7742" cy="-236" rx="1.8" ry="1.8"/>
</g>
<!-- mlllllll&#45;&gt;mllllllll -->
<g id="edge48" class="edge">
<title>mlllllll&#45;&gt;mllllllll</title>
<path fill="none" stroke="#000000" d="M1069.6275,-236.2242C1089.1498,-238.5862 1257.2575,-258.9255 1303.8186,-264.5589"/>
<polygon fill="#000000" stroke="#000000" points="1303.4461,-268.0393 1313.7942,-265.7659 1304.287,-261.09 1303.4461,-268.0393"/>
</g>
<!-- mlllllll&#45;&gt;mlllllllr -->
<g id="edge49" class="edge">
<title>mlllllll&#45;&gt;mlllllllr</title>
<path fill="none" stroke="#000000" d="M1069.6275,-236C1089.1079,-236 1256.5367,-236 1303.5172,-236"/>
<polygon fill="#000000" stroke="#000000" points="1303.7942,-239.5001 1313.7942,-236 1303.7941,-232.5001 1303.7942,-239.5001"/>
</g>
<!-- mllllllr -->
<g id="node58" class="node">
<title>mllllllr</title>
<ellipse fill="#000000" stroke="#000000" cx="1067.7742" cy="-206" rx="1.8" ry="1.8"/>
</g>
<!-- mllllllr&#45;&gt;a56c0cfb84d211e8af229f9e43491f2f -->
<g id="edge50" class="edge">
<title>mllllllr&#45;&gt;a56c0cfb84d211e8af229f9e43491f2f</title>
<path fill="none" stroke="#000000" d="M1069.6275,-205.9402C1079.4118,-205.6245 1126.5193,-204.1047 1176.9421,-202.4778"/>
<polygon fill="#000000" stroke="#000000" points="1177.1788,-205.9721 1187.0607,-202.1514 1176.953,-198.9757 1177.1788,-205.9721"/>
</g>
<!-- mllllll -->
<g id="node59" class="node">
<title>mllllll</title>
<ellipse fill="#000000" stroke="#000000" cx="861.116" cy="-206" rx="1.8" ry="1.8"/>
</g>
<!-- mllllll&#45;&gt;mlllllll -->
<g id="edge51" class="edge">
<title>mllllll&#45;&gt;mlllllll</title>
<path fill="none" stroke="#000000" d="M862.9026,-206.2594C879.9526,-208.7344 1014.1958,-228.2222 1055.6342,-234.2377"/>
<polygon fill="#000000" stroke="#000000" points="1055.2962,-237.7252 1065.6953,-235.6982 1056.3019,-230.7978 1055.2962,-237.7252"/>
</g>
<!-- mllllll&#45;&gt;mllllllr -->
<g id="edge52" class="edge">
<title>mllllll&#45;&gt;mllllllr</title>
<path fill="none" stroke="#000000" d="M863.4369,-206C882.5603,-206 1014.4349,-206 1055.5564,-206"/>
<polygon fill="#000000" stroke="#000000" points="1055.7289,-209.5001 1065.7288,-206 1055.7288,-202.5001 1055.7289,-209.5001"/>
</g>
<!-- mlllllr -->
<g id="node60" class="node">
<title>mlllllr</title>
<ellipse fill="#000000" stroke="#000000" cx="861.116" cy="-176" rx="1.8" ry="1.8"/>
</g>
<!-- mlllllr&#45;&gt;a56c337784d211e8af229f9e43491f2f -->
<g id="edge53" class="edge">
<title>mlllllr&#45;&gt;a56c337784d211e8af229f9e43491f2f</title>
<path fill="none" stroke="#000000" d="M863.4369,-175.9102C874.801,-175.4702 925.9817,-173.489 974.2731,-171.6195"/>
<polygon fill="#000000" stroke="#000000" points="974.6616,-175.1072 984.5187,-171.2229 974.3908,-168.1125 974.6616,-175.1072"/>
</g>
<!-- mlllll -->
<g id="node61" class="node">
<title>mlllll</title>
<ellipse fill="#000000" stroke="#000000" cx="663.8152" cy="-176" rx="1.8" ry="1.8"/>
</g>
<!-- mlllll&#45;&gt;mllllll -->
<g id="edge54" class="edge">
<title>mlllll&#45;&gt;mllllll</title>
<path fill="none" stroke="#000000" d="M666.031,-176.3369C684.2488,-179.107 809.645,-198.1737 849.1942,-204.1873"/>
<polygon fill="#000000" stroke="#000000" points="848.7507,-207.66 859.1633,-205.7031 849.8031,-200.7395 848.7507,-207.66"/>
</g>
<!-- mlllll&#45;&gt;mlllllr -->
<g id="edge55" class="edge">
<title>mlllll&#45;&gt;mlllllr</title>
<path fill="none" stroke="#000000" d="M666.031,-176C684.2091,-176 809.0991,-176 848.9345,-176"/>
<polygon fill="#000000" stroke="#000000" points="849.1633,-179.5001 859.1633,-176 849.1632,-172.5001 849.1633,-179.5001"/>
</g>
<!-- mllllr -->
<g id="node62" class="node">
<title>mllllr</title>
<ellipse fill="#000000" stroke="#000000" cx="663.8152" cy="-146" rx="1.8" ry="1.8"/>
</g>
<!-- mllllr&#45;&gt;a56c0c9984d211e8af229f9e43491f2f -->
<g id="edge56" class="edge">
<title>mllllr&#45;&gt;a56c0c9984d211e8af229f9e43491f2f</title>
<path fill="none" stroke="#000000" d="M666.031,-145.9102C676.243,-145.4961 720.1319,-143.7165 763.6998,-141.95"/>
<polygon fill="#000000" stroke="#000000" points="764.0091,-145.4404 773.8591,-141.538 763.7254,-138.4461 764.0091,-145.4404"/>
</g>
<!-- mllll -->
<g id="node63" class="node">
<title>mllll</title>
<ellipse fill="#000000" stroke="#000000" cx="469.1922" cy="-146" rx="1.8" ry="1.8"/>
</g>
<!-- mllll&#45;&gt;mlllll -->
<g id="edge57" class="edge">
<title>mllll&#45;&gt;mlllll</title>
<path fill="none" stroke="#000000" d="M471.3779,-146.3369C489.3093,-149.1009 612.5043,-168.0907 651.799,-174.1478"/>
<polygon fill="#000000" stroke="#000000" points="651.4725,-177.6387 661.889,-175.7031 652.5389,-170.7204 651.4725,-177.6387"/>
</g>
<!-- mllll&#45;&gt;mllllr -->
<g id="edge58" class="edge">
<title>mllll&#45;&gt;mllllr</title>
<path fill="none" stroke="#000000" d="M471.3779,-146C489.3093,-146 612.5043,-146 651.799,-146"/>
<polygon fill="#000000" stroke="#000000" points="651.889,-149.5001 661.889,-146 651.8889,-142.5001 651.889,-149.5001"/>
</g>
<!-- mlllr -->
<g id="node64" class="node">
<title>mlllr</title>
<ellipse fill="#000000" stroke="#000000" cx="469.1922" cy="-116" rx="1.8" ry="1.8"/>
</g>
<!-- mlllr&#45;&gt;a56be66b84d211e8af229f9e43491f2f -->
<g id="edge59" class="edge">
<title>mlllr&#45;&gt;a56be66b84d211e8af229f9e43491f2f</title>
<path fill="none" stroke="#000000" d="M471.3779,-115.9102C482.3885,-115.4576 533.0885,-113.3735 579.6822,-111.4583"/>
<polygon fill="#000000" stroke="#000000" points="580.0072,-114.948 589.855,-111.0401 579.7196,-107.9539 580.0072,-114.948"/>
</g>
<!-- mlll -->
<g id="node65" class="node">
<title>mlll</title>
<ellipse fill="#000000" stroke="#000000" cx="297.2039" cy="-116" rx="1.8" ry="1.8"/>
</g>
<!-- mlll&#45;&gt;mllll -->
<g id="edge60" class="edge">
<title>mlll&#45;&gt;mllll</title>
<path fill="none" stroke="#000000" d="M299.1354,-116.3369C314.7121,-119.054 420.1754,-137.45 456.7397,-143.8279"/>
<polygon fill="#000000" stroke="#000000" points="456.596,-147.3556 467.0488,-145.6261 457.7989,-140.4597 456.596,-147.3556"/>
</g>
<!-- mlll&#45;&gt;mlllr -->
<g id="edge61" class="edge">
<title>mlll&#45;&gt;mlllr</title>
<path fill="none" stroke="#000000" d="M299.1354,-116C314.7121,-116 420.1754,-116 456.7397,-116"/>
<polygon fill="#000000" stroke="#000000" points="457.0488,-119.5001 467.0488,-116 457.0487,-112.5001 457.0488,-119.5001"/>
</g>
<!-- mllr -->
<g id="node66" class="node">
<title>mllr</title>
<ellipse fill="#000000" stroke="#000000" cx="297.2039" cy="-86" rx="1.8" ry="1.8"/>
</g>
<!-- mllr&#45;&gt;a56be61284d211e8af229f9e43491f2f -->
<g id="edge62" class="edge">
<title>mllr&#45;&gt;a56be61284d211e8af229f9e43491f2f</title>
<path fill="none" stroke="#000000" d="M299.1354,-85.9102C307.2304,-85.5336 339.6012,-84.0279 373.962,-82.4296"/>
<polygon fill="#000000" stroke="#000000" points="374.3477,-85.9155 384.1743,-81.9546 374.0224,-78.9231 374.3477,-85.9155"/>
</g>
<!-- mll -->
<g id="node67" class="node">
<title>mll</title>
<ellipse fill="#000000" stroke="#000000" cx="144.534" cy="-86" rx="1.8" ry="1.8"/>
</g>
<!-- mll&#45;&gt;mlll -->
<g id="edge63" class="edge">
<title>mll&#45;&gt;mlll</title>
<path fill="none" stroke="#000000" d="M146.6922,-86.4241C161.8546,-89.4035 252.7299,-107.2607 285.4634,-113.693"/>
<polygon fill="#000000" stroke="#000000" points="284.8449,-117.1383 295.3321,-115.6322 286.1946,-110.2696 284.8449,-117.1383"/>
</g>
<!-- mll&#45;&gt;mllr -->
<g id="edge64" class="edge">
<title>mll&#45;&gt;mllr</title>
<path fill="none" stroke="#000000" d="M146.6922,-86C161.7872,-86 251.9236,-86 285.0235,-86"/>
<polygon fill="#000000" stroke="#000000" points="285.3321,-89.5001 295.3321,-86 285.3321,-82.5001 285.3321,-89.5001"/>
</g>
<!-- mlr -->
<g id="node68" class="node">
<title>mlr</title>
<ellipse fill="#000000" stroke="#000000" cx="144.534" cy="-56" rx="1.8" ry="1.8"/>
</g>
<!-- mlr&#45;&gt;a56afada84d211e8af229f9e43491f2f -->
<g id="edge65" class="edge">
<title>mlr&#45;&gt;a56afada84d211e8af229f9e43491f2f</title>
<path fill="none" stroke="#000000" d="M146.6922,-55.8869C156.5643,-55.3696 198.5328,-53.1704 235.652,-51.2254"/>
<polygon fill="#000000" stroke="#000000" points="236.1591,-54.7037 245.9622,-50.6851 235.7928,-47.7133 236.1591,-54.7037"/>
</g>
<!-- ml -->
<g id="node69" class="node">
<title>ml</title>
<ellipse fill="#000000" stroke="#000000" cx="41.4" cy="-56" rx="1.8" ry="1.8"/>
</g>
<!-- ml&#45;&gt;mll -->
<g id="edge66" class="edge">
<title>ml&#45;&gt;mll</title>
<path fill="none" stroke="#000000" d="M43.1901,-56.5207C53.8012,-59.6073 108.8091,-75.6082 133.0453,-82.6581"/>
<polygon fill="#000000" stroke="#000000" points="132.115,-86.0325 142.6946,-85.465 134.0702,-79.3111 132.115,-86.0325"/>
</g>
<!-- ml&#45;&gt;mlr -->
<g id="edge67" class="edge">
<title>ml&#45;&gt;mlr</title>
<path fill="none" stroke="#000000" d="M43.5541,-56C54.9236,-56 108.3462,-56 132.5559,-56"/>
<polygon fill="#000000" stroke="#000000" points="132.7248,-59.5001 142.7248,-56 132.7248,-52.5001 132.7248,-59.5001"/>
</g>
<!-- mr -->
<g id="node70" class="node">
<title>mr</title>
<ellipse fill="#000000" stroke="#000000" cx="41.4" cy="-26" rx="1.8" ry="1.8"/>
</g>
<!-- mr&#45;&gt;a56ea36684d211e8af229f9e43491f2f -->
<g id="edge68" class="edge">
<title>mr&#45;&gt;a56ea36684d211e8af229f9e43491f2f</title>
<path fill="none" stroke="#000000" d="M43.5541,-25.8329C47.6671,-25.5139 57.2835,-24.7679 69.0294,-23.8568"/>
<polygon fill="#000000" stroke="#000000" points="69.6234,-27.3213 79.3228,-23.0584 69.082,-20.3423 69.6234,-27.3213"/>
</g>
<!-- m -->
<g id="node71" class="node">
<title>m</title>
<ellipse fill="#000000" stroke="#000000" cx="1.8" cy="-37" rx="1.8" ry="1.8"/>
</g>
<!-- m&#45;&gt;ml -->
<g id="edge69" class="edge">
<title>m&#45;&gt;ml</title>
<path fill="none" stroke="#000000" d="M3.5016,-37.8164C8.0816,-40.0139 20.964,-46.1948 30.4431,-50.7429"/>
<polygon fill="#000000" stroke="#000000" points="29.2188,-54.0375 39.7489,-55.2078 32.247,-47.7263 29.2188,-54.0375"/>
</g>
<!-- m&#45;&gt;mr -->
<g id="edge70" class="edge">
<title>m&#45;&gt;mr</title>
<path fill="none" stroke="#000000" d="M3.9291,-36.4086C8.7004,-35.0832 20.5449,-31.7931 29.651,-29.2636"/>
<polygon fill="#000000" stroke="#000000" points="30.7513,-32.5906 39.4497,-26.5417 28.8778,-25.8459 30.7513,-32.5906"/>
</g>
</g>
</svg>
