<?xml version="1.0" encoding="UTF-8" standalone="no"?>
<!DOCTYPE svg PUBLIC "-//W3C//DTD SVG 1.1//EN"
 "http://www.w3.org/Graphics/SVG/1.1/DTD/svg11.dtd">
<!-- Generated by graphviz version 2.40.1 (20161225.0304)
 -->
<!-- Title: g Pages: 1 -->
<svg width="2106pt" height="338pt"
 viewBox="0.00 0.00 2105.70 338.00" xmlns="http://www.w3.org/2000/svg" xmlns:xlink="http://www.w3.org/1999/xlink">
<g id="graph0" class="graph" transform="scale(1 1) rotate(0) translate(4 334)">
<title>g</title>
<polygon fill="#ffffff" stroke="transparent" points="-4,4 -4,-334 2101.6984,-334 2101.6984,4 -4,4"/>
<!-- a061633d786e911e8b6e1f3c344c874eb -->
<g id="node1" class="node">
<title>a061633d786e911e8b6e1f3c344c874eb</title>
<polygon fill="none" stroke="#000000" points="1295.8023,-330 1121.4813,-330 1121.4813,-294 1295.8023,-294 1295.8023,-330"/>
<text text-anchor="middle" x="1208.6418" y="-304.8" font-family="Times,serif" font-size="24.00" fill="#000000">Anonymoustype</text>
</g>
<!-- a0619b54386e911e8b6e1f3c344c874eb -->
<g id="node2" class="node">
<title>a0619b54386e911e8b6e1f3c344c874eb</title>
<polygon fill="none" stroke="#000000" points="1282.6184,-276 1134.6652,-276 1134.6652,-240 1282.6184,-240 1282.6184,-276"/>
<text text-anchor="middle" x="1208.6418" y="-250.8" font-family="Times,serif" font-size="24.00" fill="#000000">RepoBrowser</text>
</g>
<!-- a061aed8686e911e8b6e1f3c344c874eb -->
<g id="node3" class="node">
<title>a061aed8686e911e8b6e1f3c344c874eb</title>
<polygon fill="none" stroke="#000000" points="1777.2883,-280 1597.257,-280 1597.257,-244 1777.2883,-244 1777.2883,-280"/>
<text text-anchor="middle" x="1687.2727" y="-254.8" font-family="Times,serif" font-size="24.00" fill="#000000">RootPopupMenu</text>
</g>
<!-- a0617920e86e911e8b6e1f3c344c874eb -->
<g id="node4" class="node">
<title>a0617920e86e911e8b6e1f3c344c874eb</title>
<polygon fill="none" stroke="#000000" points="2024.6617,-258 1886.3172,-258 1886.3172,-222 2024.6617,-222 2024.6617,-258"/>
<text text-anchor="middle" x="1955.4895" y="-232.8" font-family="Times,serif" font-size="24.00" fill="#000000">PopUpMenu</text>
</g>
<!-- a061aa04e86e911e8b6e1f3c344c874eb -->
<g id="node5" class="node">
<title>a061aa04e86e911e8b6e1f3c344c874eb</title>
<polygon fill="none" stroke="#000000" points="2064.263,-204 1846.7159,-204 1846.7159,-168 2064.263,-168 2064.263,-204"/>
<text text-anchor="middle" x="1955.4895" y="-178.8" font-family="Times,serif" font-size="24.00" fill="#000000">RepositoryTreePanel</text>
</g>
<!-- a0615e50086e911e8b6e1f3c344c874eb -->
<g id="node6" class="node">
<title>a0615e50086e911e8b6e1f3c344c874eb</title>
<polygon fill="none" stroke="#000000" points="1536.2243,-204 1357.0125,-204 1357.0125,-168 1536.2243,-168 1536.2243,-204"/>
<text text-anchor="middle" x="1446.6184" y="-178.8" font-family="Times,serif" font-size="24.00" fill="#000000">TableFilterDemo</text>
</g>
<!-- a061632e186e911e8b6e1f3c344c874eb -->
<g id="node7" class="node">
<title>a061632e186e911e8b6e1f3c344c874eb</title>
<polygon fill="none" stroke="#000000" points="1561.4115,-150 1331.8252,-150 1331.8252,-114 1561.4115,-114 1561.4115,-150"/>
<text text-anchor="middle" x="1446.6184" y="-124.8" font-family="Times,serif" font-size="24.00" fill="#000000">CheckBoxNodeEditor</text>
</g>
<!-- a06156f5786e911e8b6e1f3c344c874eb -->
<g id="node8" class="node">
<title>a06156f5786e911e8b6e1f3c344c874eb</title>
<polygon fill="none" stroke="#000000" points="1735.7347,-120 1638.8106,-120 1638.8106,-84 1735.7347,-84 1735.7347,-120"/>
<text text-anchor="middle" x="1687.2727" y="-94.8" font-family="Times,serif" font-size="24.00" fill="#000000">FileTree</text>
</g>
<!-- a06160e6a86e911e8b6e1f3c344c874eb -->
<g id="node9" class="node">
<title>a06160e6a86e911e8b6e1f3c344c874eb</title>
<polygon fill="none" stroke="#000000" points="2097.9077,-90 1813.0712,-90 1813.0712,-54 2097.9077,-54 2097.9077,-90"/>
<text text-anchor="middle" x="1955.4895" y="-64.8" font-family="Times,serif" font-size="24.00" fill="#000000">CheckBoxNodeTreeSample</text>
</g>
<!-- a061b151a86e911e8b6e1f3c344c874eb -->
<g id="node10" class="node">
<title>a061b151a86e911e8b6e1f3c344c874eb</title>
<polygon fill="none" stroke="#000000" points="2037.9432,-36 1873.0357,-36 1873.0357,0 2037.9432,0 2037.9432,-36"/>
<text text-anchor="middle" x="1955.4895" y="-10.8" font-family="Times,serif" font-size="24.00" fill="#000000">RepositoryTree</text>
</g>
<!-- a06160def86e911e8b6e1f3c344c874eb -->
<g id="node11" class="node">
<title>a06160def86e911e8b6e1f3c344c874eb</title>
<polygon fill="none" stroke="#000000" points="1045.6824,-185 897.7996,-185 897.7996,-149 1045.6824,-149 1045.6824,-185"/>
<text text-anchor="middle" x="971.741" y="-159.8" font-family="Times,serif" font-size="24.00" fill="#000000">NamedVector</text>
</g>
<!-- a06160d9686e911e8b6e1f3c344c874eb -->
<g id="node12" class="node">
<title>a06160d9686e911e8b6e1f3c344c874eb</title>
<polygon fill="none" stroke="#000000" points="861.9229,-155 692.313,-155 692.313,-119 861.9229,-119 861.9229,-155"/>
<text text-anchor="middle" x="777.118" y="-129.8" font-family="Times,serif" font-size="24.00" fill="#000000">CheckBoxNode</text>
</g>
<!-- a06123a8786e911e8b6e1f3c344c874eb -->
<g id="node13" class="node">
<title>a06123a8786e911e8b6e1f3c344c874eb</title>
<polygon fill="none" stroke="#000000" points="656.3022,-125 565.9572,-125 565.9572,-89 656.3022,-89 656.3022,-125"/>
<text text-anchor="middle" x="611.1297" y="-99.8" font-family="Times,serif" font-size="24.00" fill="#000000">FileList</text>
</g>
<!-- a0616343986e911e8b6e1f3c344c874eb -->
<g id="node14" class="node">
<title>a0616343986e911e8b6e1f3c344c874eb</title>
<polygon fill="none" stroke="#000000" points="529.9208,-95 272.4128,-95 272.4128,-59 529.9208,-59 529.9208,-95"/>
<text text-anchor="middle" x="401.1668" y="-69.8" font-family="Times,serif" font-size="24.00" fill="#000000">CheckBoxNodeRenderer</text>
</g>
<!-- a0616f65c86e911e8b6e1f3c344c874eb -->
<g id="node15" class="node">
<title>a0616f65c86e911e8b6e1f3c344c874eb</title>
<polygon fill="none" stroke="#000000" points="236.7101,-65 79.0297,-65 79.0297,-29 236.7101,-29 236.7101,-65"/>
<text text-anchor="middle" x="157.8699" y="-39.8" font-family="Times,serif" font-size="24.00" fill="#000000">SpringUtilities</text>
</g>
<!-- mlllllll -->
<g id="node16" class="node">
<title>mlllllll</title>
<ellipse fill="#000000" stroke="#000000" cx="1083.5117" cy="-296" rx="1.8" ry="1.8"/>
</g>
<!-- mlllllll&#45;&gt;a061633d786e911e8b6e1f3c344c874eb -->
<g id="edge1" class="edge">
<title>mlllllll&#45;&gt;a061633d786e911e8b6e1f3c344c874eb</title>
<path fill="none" stroke="#000000" d="M1085.6836,-296.2777C1089.7552,-296.7983 1099.2144,-298.0079 1111.1764,-299.5374"/>
<polygon fill="#000000" stroke="#000000" points="1110.8879,-303.0289 1121.2511,-300.8256 1111.7758,-296.0855 1110.8879,-303.0289"/>
</g>
<!-- mllllllr -->
<g id="node17" class="node">
<title>mllllllr</title>
<ellipse fill="#000000" stroke="#000000" cx="1083.5117" cy="-258" rx="1.8" ry="1.8"/>
</g>
<!-- mllllllr&#45;&gt;a0619b54386e911e8b6e1f3c344c874eb -->
<g id="edge2" class="edge">
<title>mllllllr&#45;&gt;a0619b54386e911e8b6e1f3c344c874eb</title>
<path fill="none" stroke="#000000" d="M1085.6836,-258C1091.16,-258 1106.3834,-258 1124.3338,-258"/>
<polygon fill="#000000" stroke="#000000" points="1124.5423,-261.5001 1134.5423,-258 1124.5422,-254.5001 1124.5423,-261.5001"/>
</g>
<!-- mlllllrllrl -->
<g id="node18" class="node">
<title>mlllllrllrl</title>
<ellipse fill="#000000" stroke="#000000" cx="1687.2727" cy="-224" rx="1.8" ry="1.8"/>
</g>
<!-- mlllllrllrl&#45;&gt;a0617920e86e911e8b6e1f3c344c874eb -->
<g id="edge6" class="edge">
<title>mlllllrllrl&#45;&gt;a0617920e86e911e8b6e1f3c344c874eb</title>
<path fill="none" stroke="#000000" d="M1689.2774,-224.1196C1704.5008,-225.0277 1803.2514,-230.9185 1876.0587,-235.2617"/>
<polygon fill="#000000" stroke="#000000" points="1875.9579,-238.7618 1886.1486,-235.8636 1876.3748,-231.7742 1875.9579,-238.7618"/>
</g>
<!-- mlllllrllrr -->
<g id="node19" class="node">
<title>mlllllrllrr</title>
<ellipse fill="#000000" stroke="#000000" cx="1687.2727" cy="-194" rx="1.8" ry="1.8"/>
</g>
<!-- mlllllrllrr&#45;&gt;a061aa04e86e911e8b6e1f3c344c874eb -->
<g id="edge7" class="edge">
<title>mlllllrllrr&#45;&gt;a061aa04e86e911e8b6e1f3c344c874eb</title>
<path fill="none" stroke="#000000" d="M1689.2774,-193.9402C1701.8365,-193.5656 1771.2438,-191.4954 1836.034,-189.563"/>
<polygon fill="#000000" stroke="#000000" points="1836.4922,-193.0509 1846.3833,-189.2543 1836.2834,-186.054 1836.4922,-193.0509"/>
</g>
<!-- mlllllrlll -->
<g id="node20" class="node">
<title>mlllllrlll</title>
<ellipse fill="#000000" stroke="#000000" cx="1446.6184" cy="-254" rx="1.8" ry="1.8"/>
</g>
<!-- mlllllrlll&#45;&gt;a061aed8686e911e8b6e1f3c344c874eb -->
<g id="edge5" class="edge">
<title>mlllllrlll&#45;&gt;a061aed8686e911e8b6e1f3c344c874eb</title>
<path fill="none" stroke="#000000" d="M1448.6988,-254.0692C1461.1626,-254.4835 1527.4055,-256.6856 1586.9337,-258.6645"/>
<polygon fill="#000000" stroke="#000000" points="1587.0751,-262.171 1597.1859,-259.0053 1587.3077,-255.1749 1587.0751,-262.171"/>
</g>
<!-- mlllllrllr -->
<g id="node21" class="node">
<title>mlllllrllr</title>
<ellipse fill="#000000" stroke="#000000" cx="1446.6184" cy="-224" rx="1.8" ry="1.8"/>
</g>
<!-- mlllllrllr&#45;&gt;mlllllrllrl -->
<g id="edge8" class="edge">
<title>mlllllrllr&#45;&gt;mlllllrllrl</title>
<path fill="none" stroke="#000000" d="M1448.6988,-224C1468.8493,-224 1629.5677,-224 1675.2192,-224"/>
<polygon fill="#000000" stroke="#000000" points="1675.4097,-227.5001 1685.4097,-224 1675.4096,-220.5001 1675.4097,-227.5001"/>
</g>
<!-- mlllllrllr&#45;&gt;mlllllrllrr -->
<g id="edge9" class="edge">
<title>mlllllrllr&#45;&gt;mlllllrllrr</title>
<path fill="none" stroke="#000000" d="M1448.5134,-223.8568C1459.452,-223.022 1515.6211,-218.6267 1561.2648,-213 1603.2842,-207.8201 1652.8952,-199.7673 1675.2676,-196.0312"/>
<polygon fill="#000000" stroke="#000000" points="1675.9218,-199.4704 1685.2002,-194.3555 1674.7572,-192.5679 1675.9218,-199.4704"/>
</g>
<!-- mlllllrll -->
<g id="node22" class="node">
<title>mlllllrll</title>
<ellipse fill="#000000" stroke="#000000" cx="1208.6418" cy="-220" rx="1.8" ry="1.8"/>
</g>
<!-- mlllllrll&#45;&gt;mlllllrlll -->
<g id="edge10" class="edge">
<title>mlllllrll&#45;&gt;mlllllrlll</title>
<path fill="none" stroke="#000000" d="M1210.8051,-220.2513C1220.6341,-221.3975 1262.0691,-226.2776 1295.9719,-231 1347.7084,-238.2065 1409.2486,-247.9778 1434.697,-252.0712"/>
<polygon fill="#000000" stroke="#000000" points="1434.4001,-255.5686 1444.8304,-253.7088 1435.5169,-248.6582 1434.4001,-255.5686"/>
</g>
<!-- mlllllrll&#45;&gt;mlllllrllr -->
<g id="edge11" class="edge">
<title>mlllllrll&#45;&gt;mlllllrllr</title>
<path fill="none" stroke="#000000" d="M1210.6991,-220.0346C1230.6254,-220.3695 1389.5555,-223.0409 1434.699,-223.7997"/>
<polygon fill="#000000" stroke="#000000" points="1434.7187,-227.3004 1444.7761,-223.969 1434.8364,-220.3014 1434.7187,-227.3004"/>
</g>
<!-- mlllllrlr -->
<g id="node23" class="node">
<title>mlllllrlr</title>
<ellipse fill="#000000" stroke="#000000" cx="1208.6418" cy="-190" rx="1.8" ry="1.8"/>
</g>
<!-- mlllllrlr&#45;&gt;a0615e50086e911e8b6e1f3c344c874eb -->
<g id="edge12" class="edge">
<title>mlllllrlr&#45;&gt;a0615e50086e911e8b6e1f3c344c874eb</title>
<path fill="none" stroke="#000000" d="M1210.6991,-189.9654C1222.9813,-189.759 1288.0742,-188.6649 1346.7803,-187.6781"/>
<polygon fill="#000000" stroke="#000000" points="1346.9536,-191.1758 1356.8934,-187.5081 1346.8359,-184.1768 1346.9536,-191.1758"/>
</g>
<!-- mlllllrrrrl -->
<g id="node24" class="node">
<title>mlllllrrrrl</title>
<ellipse fill="#000000" stroke="#000000" cx="1687.2727" cy="-64" rx="1.8" ry="1.8"/>
</g>
<!-- mlllllrrrrl&#45;&gt;a06160e6a86e911e8b6e1f3c344c874eb -->
<g id="edge17" class="edge">
<title>mlllllrrrrl&#45;&gt;a06160e6a86e911e8b6e1f3c344c874eb</title>
<path fill="none" stroke="#000000" d="M1689.2774,-64.0598C1699.7023,-64.3707 1749.2963,-65.85 1802.9058,-67.4489"/>
<polygon fill="#000000" stroke="#000000" points="1802.8541,-70.9489 1812.9541,-67.7487 1803.0629,-63.952 1802.8541,-70.9489"/>
</g>
<!-- mlllllrrrrr -->
<g id="node25" class="node">
<title>mlllllrrrrr</title>
<ellipse fill="#000000" stroke="#000000" cx="1687.2727" cy="-34" rx="1.8" ry="1.8"/>
</g>
<!-- mlllllrrrrr&#45;&gt;a061b151a86e911e8b6e1f3c344c874eb -->
<g id="edge18" class="edge">
<title>mlllllrrrrr&#45;&gt;a061b151a86e911e8b6e1f3c344c874eb</title>
<path fill="none" stroke="#000000" d="M1689.2774,-33.8804C1703.6016,-33.0259 1791.8763,-27.7601 1862.9073,-23.5228"/>
<polygon fill="#000000" stroke="#000000" points="1863.4775,-26.9951 1873.2513,-22.9058 1863.0606,-20.0075 1863.4775,-26.9951"/>
</g>
<!-- mlllllrrrl -->
<g id="node26" class="node">
<title>mlllllrrrl</title>
<ellipse fill="#000000" stroke="#000000" cx="1446.6184" cy="-94" rx="1.8" ry="1.8"/>
</g>
<!-- mlllllrrrl&#45;&gt;a06156f5786e911e8b6e1f3c344c874eb -->
<g id="edge16" class="edge">
<title>mlllllrrrl&#45;&gt;a06156f5786e911e8b6e1f3c344c874eb</title>
<path fill="none" stroke="#000000" d="M1448.6988,-94.0692C1464.223,-94.5852 1563.1791,-97.8748 1628.6739,-100.052"/>
<polygon fill="#000000" stroke="#000000" points="1628.7694,-103.557 1638.8802,-100.3913 1629.0021,-96.5609 1628.7694,-103.557"/>
</g>
<!-- mlllllrrrr -->
<g id="node27" class="node">
<title>mlllllrrrr</title>
<ellipse fill="#000000" stroke="#000000" cx="1446.6184" cy="-64" rx="1.8" ry="1.8"/>
</g>
<!-- mlllllrrrr&#45;&gt;mlllllrrrrl -->
<g id="edge19" class="edge">
<title>mlllllrrrr&#45;&gt;mlllllrrrrl</title>
<path fill="none" stroke="#000000" d="M1448.6988,-64C1468.8493,-64 1629.5677,-64 1675.2192,-64"/>
<polygon fill="#000000" stroke="#000000" points="1675.4097,-67.5001 1685.4097,-64 1675.4096,-60.5001 1675.4097,-67.5001"/>
</g>
<!-- mlllllrrrr&#45;&gt;mlllllrrrrr -->
<g id="edge20" class="edge">
<title>mlllllrrrr&#45;&gt;mlllllrrrrr</title>
<path fill="none" stroke="#000000" d="M1448.4171,-63.7758C1467.3239,-61.4188 1629.8229,-41.1617 1675.4201,-35.4775"/>
<polygon fill="#000000" stroke="#000000" points="1675.9043,-38.9444 1685.3945,-34.2341 1675.0383,-31.9981 1675.9043,-38.9444"/>
</g>
<!-- mlllllrrl -->
<g id="node28" class="node">
<title>mlllllrrl</title>
<ellipse fill="#000000" stroke="#000000" cx="1208.6418" cy="-132" rx="1.8" ry="1.8"/>
</g>
<!-- mlllllrrl&#45;&gt;a061632e186e911e8b6e1f3c344c874eb -->
<g id="edge15" class="edge">
<title>mlllllrrl&#45;&gt;a061632e186e911e8b6e1f3c344c874eb</title>
<path fill="none" stroke="#000000" d="M1210.6991,-132C1221.2401,-132 1270.6795,-132 1321.5961,-132"/>
<polygon fill="#000000" stroke="#000000" points="1321.788,-135.5001 1331.788,-132 1321.788,-128.5001 1321.788,-135.5001"/>
</g>
<!-- mlllllrrr -->
<g id="node29" class="node">
<title>mlllllrrr</title>
<ellipse fill="#000000" stroke="#000000" cx="1208.6418" cy="-94" rx="1.8" ry="1.8"/>
</g>
<!-- mlllllrrr&#45;&gt;mlllllrrrl -->
<g id="edge21" class="edge">
<title>mlllllrrr&#45;&gt;mlllllrrrl</title>
<path fill="none" stroke="#000000" d="M1210.6991,-94C1230.6254,-94 1389.5555,-94 1434.699,-94"/>
<polygon fill="#000000" stroke="#000000" points="1434.7761,-97.5001 1444.7761,-94 1434.7761,-90.5001 1434.7761,-97.5001"/>
</g>
<!-- mlllllrrr&#45;&gt;mlllllrrrr -->
<g id="edge22" class="edge">
<title>mlllllrrr&#45;&gt;mlllllrrrr</title>
<path fill="none" stroke="#000000" d="M1210.6991,-93.7406C1230.6254,-91.2287 1389.5555,-71.1935 1434.699,-65.5026"/>
<polygon fill="#000000" stroke="#000000" points="1435.2924,-68.9556 1444.7761,-64.2322 1434.4168,-62.0105 1435.2924,-68.9556"/>
</g>
<!-- mlllllrl -->
<g id="node30" class="node">
<title>mlllllrl</title>
<ellipse fill="#000000" stroke="#000000" cx="1083.5117" cy="-205" rx="1.8" ry="1.8"/>
</g>
<!-- mlllllrl&#45;&gt;mlllllrll -->
<g id="edge13" class="edge">
<title>mlllllrl&#45;&gt;mlllllrll</title>
<path fill="none" stroke="#000000" d="M1085.6836,-205.2604C1098.8474,-206.8384 1168.3268,-215.1672 1196.6292,-218.56"/>
<polygon fill="#000000" stroke="#000000" points="1196.4426,-222.0626 1206.7881,-219.7778 1197.2758,-215.1124 1196.4426,-222.0626"/>
</g>
<!-- mlllllrl&#45;&gt;mlllllrlr -->
<g id="edge14" class="edge">
<title>mlllllrl&#45;&gt;mlllllrlr</title>
<path fill="none" stroke="#000000" d="M1085.6836,-204.7396C1098.8474,-203.1616 1168.3268,-194.8328 1196.6292,-191.44"/>
<polygon fill="#000000" stroke="#000000" points="1197.2758,-194.8876 1206.7881,-190.2222 1196.4426,-187.9374 1197.2758,-194.8876"/>
</g>
<!-- mlllllrr -->
<g id="node31" class="node">
<title>mlllllrr</title>
<ellipse fill="#000000" stroke="#000000" cx="1083.5117" cy="-132" rx="1.8" ry="1.8"/>
</g>
<!-- mlllllrr&#45;&gt;mlllllrrl -->
<g id="edge23" class="edge">
<title>mlllllrr&#45;&gt;mlllllrrl</title>
<path fill="none" stroke="#000000" d="M1085.6836,-132C1098.8474,-132 1168.3268,-132 1196.6292,-132"/>
<polygon fill="#000000" stroke="#000000" points="1196.7881,-135.5001 1206.7881,-132 1196.7881,-128.5001 1196.7881,-135.5001"/>
</g>
<!-- mlllllrr&#45;&gt;mlllllrrr -->
<g id="edge24" class="edge">
<title>mlllllrr&#45;&gt;mlllllrrr</title>
<path fill="none" stroke="#000000" d="M1085.2806,-131.4628C1097.3844,-127.7871 1168.3546,-106.2346 1196.829,-97.5874"/>
<polygon fill="#000000" stroke="#000000" points="1198.2059,-100.8271 1206.7574,-94.5723 1196.1718,-94.1292 1198.2059,-100.8271"/>
</g>
<!-- mllllll -->
<g id="node32" class="node">
<title>mllllll</title>
<ellipse fill="#000000" stroke="#000000" cx="971.741" cy="-258" rx="1.8" ry="1.8"/>
</g>
<!-- mllllll&#45;&gt;mlllllll -->
<g id="edge3" class="edge">
<title>mllllll&#45;&gt;mlllllll</title>
<path fill="none" stroke="#000000" d="M973.681,-258.6596C985.2867,-262.6053 1045.8981,-283.212 1071.7787,-292.011"/>
<polygon fill="#000000" stroke="#000000" points="1070.9239,-295.4171 1081.5183,-295.3223 1073.1772,-288.7896 1070.9239,-295.4171"/>
</g>
<!-- mllllll&#45;&gt;mllllllr -->
<g id="edge4" class="edge">
<title>mllllll&#45;&gt;mllllllr</title>
<path fill="none" stroke="#000000" d="M973.681,-258C985.2337,-258 1045.3456,-258 1071.422,-258"/>
<polygon fill="#000000" stroke="#000000" points="1071.5184,-261.5001 1081.5183,-258 1071.5183,-254.5001 1071.5184,-261.5001"/>
</g>
<!-- mlllllr -->
<g id="node33" class="node">
<title>mlllllr</title>
<ellipse fill="#000000" stroke="#000000" cx="971.741" cy="-205" rx="1.8" ry="1.8"/>
</g>
<!-- mlllllr&#45;&gt;mlllllrl -->
<g id="edge25" class="edge">
<title>mlllllr&#45;&gt;mlllllrl</title>
<path fill="none" stroke="#000000" d="M973.681,-205C985.2337,-205 1045.3456,-205 1071.422,-205"/>
<polygon fill="#000000" stroke="#000000" points="1071.5184,-208.5001 1081.5183,-205 1071.5183,-201.5001 1071.5184,-208.5001"/>
</g>
<!-- mlllllr&#45;&gt;mlllllrr -->
<g id="edge26" class="edge">
<title>mlllllr&#45;&gt;mlllllrr</title>
<path fill="none" stroke="#000000" d="M973.7832,-205.2807C983.0181,-206.4395 1021.4725,-210.0706 1045.7117,-194 1063.9153,-181.931 1074.7925,-157.8015 1079.9224,-143.4632"/>
<polygon fill="#000000" stroke="#000000" points="1083.2577,-144.5241 1082.9907,-133.9326 1076.5945,-142.3789 1083.2577,-144.5241"/>
</g>
<!-- mlllll -->
<g id="node34" class="node">
<title>mlllll</title>
<ellipse fill="#000000" stroke="#000000" cx="777.118" cy="-205" rx="1.8" ry="1.8"/>
</g>
<!-- mlllll&#45;&gt;mllllll -->
<g id="edge27" class="edge">
<title>mlllll&#45;&gt;mllllll</title>
<path fill="none" stroke="#000000" d="M779.3037,-205.5952C797.2742,-210.489 920.9686,-244.1736 959.981,-254.7975"/>
<polygon fill="#000000" stroke="#000000" points="959.2465,-258.2249 969.8148,-257.4754 961.0858,-251.4708 959.2465,-258.2249"/>
</g>
<!-- mlllll&#45;&gt;mlllllr -->
<g id="edge28" class="edge">
<title>mlllll&#45;&gt;mlllllr</title>
<path fill="none" stroke="#000000" d="M779.3037,-205C797.2351,-205 920.4301,-205 959.7248,-205"/>
<polygon fill="#000000" stroke="#000000" points="959.8148,-208.5001 969.8148,-205 959.8147,-201.5001 959.8148,-208.5001"/>
</g>
<!-- mllllr -->
<g id="node35" class="node">
<title>mllllr</title>
<ellipse fill="#000000" stroke="#000000" cx="777.118" cy="-175" rx="1.8" ry="1.8"/>
</g>
<!-- mllllr&#45;&gt;a06160def86e911e8b6e1f3c344c874eb -->
<g id="edge29" class="edge">
<title>mllllr&#45;&gt;a06160def86e911e8b6e1f3c344c874eb</title>
<path fill="none" stroke="#000000" d="M779.3037,-174.9102C790.3143,-174.4576 841.0143,-172.3735 887.6079,-170.4583"/>
<polygon fill="#000000" stroke="#000000" points="887.933,-173.948 897.7808,-170.0401 887.6454,-166.9539 887.933,-173.948"/>
</g>
<!-- mllll -->
<g id="node36" class="node">
<title>mllll</title>
<ellipse fill="#000000" stroke="#000000" cx="611.1297" cy="-175" rx="1.8" ry="1.8"/>
</g>
<!-- mllll&#45;&gt;mlllll -->
<g id="edge30" class="edge">
<title>mllll&#45;&gt;mlllll</title>
<path fill="none" stroke="#000000" d="M612.9938,-175.3369C628.0271,-178.054 729.8112,-196.45 765.0999,-202.8279"/>
<polygon fill="#000000" stroke="#000000" points="764.5862,-206.2917 775.0493,-204.6261 765.8313,-199.4033 764.5862,-206.2917"/>
</g>
<!-- mllll&#45;&gt;mllllr -->
<g id="edge31" class="edge">
<title>mllll&#45;&gt;mllllr</title>
<path fill="none" stroke="#000000" d="M612.9938,-175C627.9608,-175 728.9161,-175 764.6297,-175"/>
<polygon fill="#000000" stroke="#000000" points="765.0493,-178.5001 775.0493,-175 765.0493,-171.5001 765.0493,-178.5001"/>
</g>
<!-- mlllr -->
<g id="node37" class="node">
<title>mlllr</title>
<ellipse fill="#000000" stroke="#000000" cx="611.1297" cy="-145" rx="1.8" ry="1.8"/>
</g>
<!-- mlllr&#45;&gt;a06160d9686e911e8b6e1f3c344c874eb -->
<g id="edge32" class="edge">
<title>mlllr&#45;&gt;a06160d9686e911e8b6e1f3c344c874eb</title>
<path fill="none" stroke="#000000" d="M612.9938,-144.9102C620.5792,-144.5446 650.2507,-143.1145 682.3222,-141.5688"/>
<polygon fill="#000000" stroke="#000000" points="682.5109,-145.0639 692.3307,-141.0864 682.1738,-138.072 682.5109,-145.0639"/>
</g>
<!-- mlll -->
<g id="node38" class="node">
<title>mlll</title>
<ellipse fill="#000000" stroke="#000000" cx="401.1668" cy="-145" rx="1.8" ry="1.8"/>
</g>
<!-- mlll&#45;&gt;mllll -->
<g id="edge33" class="edge">
<title>mlll&#45;&gt;mllll</title>
<path fill="none" stroke="#000000" d="M402.9819,-145.2594C420.3421,-147.7398 557.2868,-167.3068 599.0682,-173.2766"/>
<polygon fill="#000000" stroke="#000000" points="598.623,-176.7485 609.0175,-174.6982 599.6132,-169.8189 598.623,-176.7485"/>
</g>
<!-- mlll&#45;&gt;mlllr -->
<g id="edge34" class="edge">
<title>mlll&#45;&gt;mlllr</title>
<path fill="none" stroke="#000000" d="M402.9819,-145C420.3046,-145 556.6945,-145 598.7956,-145"/>
<polygon fill="#000000" stroke="#000000" points="599.0176,-148.5001 609.0175,-145 599.0175,-141.5001 599.0176,-148.5001"/>
</g>
<!-- mllr -->
<g id="node39" class="node">
<title>mllr</title>
<ellipse fill="#000000" stroke="#000000" cx="401.1668" cy="-115" rx="1.8" ry="1.8"/>
</g>
<!-- mllr&#45;&gt;a06123a8786e911e8b6e1f3c344c874eb -->
<g id="edge35" class="edge">
<title>mllr&#45;&gt;a06123a8786e911e8b6e1f3c344c874eb</title>
<path fill="none" stroke="#000000" d="M402.9819,-114.9308C416.1507,-114.4291 498.1297,-111.3055 555.1851,-109.1316"/>
<polygon fill="#000000" stroke="#000000" points="555.6669,-112.6159 565.5264,-108.7376 555.4003,-105.6209 555.6669,-112.6159"/>
</g>
<!-- mll -->
<g id="node40" class="node">
<title>mll</title>
<ellipse fill="#000000" stroke="#000000" cx="157.8699" cy="-115" rx="1.8" ry="1.8"/>
</g>
<!-- mll&#45;&gt;mlll -->
<g id="edge36" class="edge">
<title>mll&#45;&gt;mlll</title>
<path fill="none" stroke="#000000" d="M159.6884,-115.2242C178.8028,-117.5812 343.0862,-137.8383 389.1841,-143.5225"/>
<polygon fill="#000000" stroke="#000000" points="388.9148,-147.0157 399.268,-144.7659 389.7716,-140.0683 388.9148,-147.0157"/>
</g>
<!-- mll&#45;&gt;mllr -->
<g id="edge37" class="edge">
<title>mll&#45;&gt;mllr</title>
<path fill="none" stroke="#000000" d="M159.6884,-115C178.8028,-115 343.0862,-115 389.1841,-115"/>
<polygon fill="#000000" stroke="#000000" points="389.2681,-118.5001 399.268,-115 389.268,-111.5001 389.2681,-118.5001"/>
</g>
<!-- mlr -->
<g id="node41" class="node">
<title>mlr</title>
<ellipse fill="#000000" stroke="#000000" cx="157.8699" cy="-85" rx="1.8" ry="1.8"/>
</g>
<!-- mlr&#45;&gt;a0616343986e911e8b6e1f3c344c874eb -->
<g id="edge38" class="edge">
<title>mlr&#45;&gt;a0616343986e911e8b6e1f3c344c874eb</title>
<path fill="none" stroke="#000000" d="M159.6884,-84.9402C169.1062,-84.6305 213.7651,-83.1621 262.1656,-81.5706"/>
<polygon fill="#000000" stroke="#000000" points="262.3325,-85.0671 272.2121,-81.2402 262.1024,-78.0709 262.3325,-85.0671"/>
</g>
<!-- ml -->
<g id="node42" class="node">
<title>ml</title>
<ellipse fill="#000000" stroke="#000000" cx="41.4" cy="-85" rx="1.8" ry="1.8"/>
</g>
<!-- ml&#45;&gt;mll -->
<g id="edge39" class="edge">
<title>ml&#45;&gt;mll</title>
<path fill="none" stroke="#000000" d="M43.1252,-85.5329C48.4638,-87.1754 65.1977,-92.2739 79.2,-96 102.7241,-102.26 130.4389,-108.749 145.8981,-112.29"/>
<polygon fill="#000000" stroke="#000000" points="145.3887,-115.7633 155.9153,-114.563 146.9377,-108.9368 145.3887,-115.7633"/>
</g>
<!-- ml&#45;&gt;mlr -->
<g id="edge40" class="edge">
<title>ml&#45;&gt;mlr</title>
<path fill="none" stroke="#000000" d="M43.4216,-85C55.5152,-85 118.6749,-85 145.6436,-85"/>
<polygon fill="#000000" stroke="#000000" points="145.7928,-88.5001 155.7927,-85 145.7927,-81.5001 145.7928,-88.5001"/>
</g>
<!-- mr -->
<g id="node43" class="node">
<title>mr</title>
<ellipse fill="#000000" stroke="#000000" cx="41.4" cy="-55" rx="1.8" ry="1.8"/>
</g>
<!-- mr&#45;&gt;a0616f65c86e911e8b6e1f3c344c874eb -->
<g id="edge41" class="edge">
<title>mr&#45;&gt;a0616f65c86e911e8b6e1f3c344c874eb</title>
<path fill="none" stroke="#000000" d="M43.4216,-54.8611C47.4259,-54.5861 57.0287,-53.9265 69.0626,-53.0999"/>
<polygon fill="#000000" stroke="#000000" points="69.4376,-56.5825 79.1742,-52.4054 68.9579,-49.599 69.4376,-56.5825"/>
</g>
<!-- m -->
<g id="node44" class="node">
<title>m</title>
<ellipse fill="#000000" stroke="#000000" cx="1.8" cy="-66" rx="1.8" ry="1.8"/>
</g>
<!-- m&#45;&gt;ml -->
<g id="edge42" class="edge">
<title>m&#45;&gt;ml</title>
<path fill="none" stroke="#000000" d="M3.5016,-66.8164C8.0816,-69.0139 20.964,-75.1948 30.4431,-79.7429"/>
<polygon fill="#000000" stroke="#000000" points="29.2188,-83.0375 39.7489,-84.2078 32.247,-76.7263 29.2188,-83.0375"/>
</g>
<!-- m&#45;&gt;mr -->
<g id="edge43" class="edge">
<title>m&#45;&gt;mr</title>
<path fill="none" stroke="#000000" d="M3.9291,-65.4086C8.7004,-64.0832 20.5449,-60.7931 29.651,-58.2636"/>
<polygon fill="#000000" stroke="#000000" points="30.7513,-61.5906 39.4497,-55.5417 28.8778,-54.8459 30.7513,-61.5906"/>
</g>
</g>
</svg>
