<?xml version="1.0" encoding="UTF-8" standalone="no"?>
<!DOCTYPE svg PUBLIC "-//W3C//DTD SVG 1.1//EN"
 "http://www.w3.org/Graphics/SVG/1.1/DTD/svg11.dtd">
<!-- Generated by graphviz version 2.40.1 (20161225.0304)
 -->
<!-- Title: g Pages: 1 -->
<svg width="1661pt" height="494pt"
 viewBox="0.00 0.00 1660.55 494.00" xmlns="http://www.w3.org/2000/svg" xmlns:xlink="http://www.w3.org/1999/xlink">
<g id="graph0" class="graph" transform="scale(1 1) rotate(0) translate(4 490)">
<title>g</title>
<polygon fill="#ffffff" stroke="transparent" points="-4,4 -4,-490 1656.5469,-490 1656.5469,4 -4,4"/>
<!-- RepoBrowser_main -->
<g id="node1" class="node">
<title>RepoBrowser_main</title>
<path fill="#ff0000" stroke="#000000" d="M268.1699,-36C268.1699,-36 84.2402,-36 84.2402,-36 78.2402,-36 72.2402,-30 72.2402,-24 72.2402,-24 72.2402,-12 72.2402,-12 72.2402,-6 78.2402,0 84.2402,0 84.2402,0 268.1699,0 268.1699,0 274.1699,0 280.1699,-6 280.1699,-12 280.1699,-12 280.1699,-24 280.1699,-24 280.1699,-30 274.1699,-36 268.1699,-36"/>
<text text-anchor="middle" x="176.2051" y="-10.8" font-family="Times,serif" font-size="24.00" fill="#000000">RepoBrowser_main</text>
</g>
<!-- RepositoryTreePanel_newFilter -->
<g id="node2" class="node">
<title>RepositoryTreePanel_newFilter</title>
<polygon fill="none" stroke="#000000" points="336.9591,-90 15.4511,-90 15.4511,-54 336.9591,-54 336.9591,-90"/>
<text text-anchor="middle" x="176.2051" y="-64.8" font-family="Times,serif" font-size="24.00" fill="#000000">RepositoryTreePanel_newFilter</text>
</g>
<!-- RepositoryTreePanel_main -->
<g id="node3" class="node">
<title>RepositoryTreePanel_main</title>
<path fill="#ff0000" stroke="#000000" d="M302.9669,-144C302.9669,-144 49.4433,-144 49.4433,-144 43.4433,-144 37.4433,-138 37.4433,-132 37.4433,-132 37.4433,-120 37.4433,-120 37.4433,-114 43.4433,-108 49.4433,-108 49.4433,-108 302.9669,-108 302.9669,-108 308.9669,-108 314.9669,-114 314.9669,-120 314.9669,-120 314.9669,-132 314.9669,-132 314.9669,-138 308.9669,-144 302.9669,-144"/>
<text text-anchor="middle" x="176.2051" y="-118.8" font-family="Times,serif" font-size="24.00" fill="#000000">RepositoryTreePanel_main</text>
</g>
<!-- FileList_main -->
<g id="node4" class="node">
<title>FileList_main</title>
<path fill="#ff0000" stroke="#000000" d="M239.3656,-198C239.3656,-198 113.0445,-198 113.0445,-198 107.0445,-198 101.0445,-192 101.0445,-186 101.0445,-186 101.0445,-174 101.0445,-174 101.0445,-168 107.0445,-162 113.0445,-162 113.0445,-162 239.3656,-162 239.3656,-162 245.3656,-162 251.3656,-168 251.3656,-174 251.3656,-174 251.3656,-186 251.3656,-186 251.3656,-192 245.3656,-198 239.3656,-198"/>
<text text-anchor="middle" x="176.2051" y="-172.8" font-family="Times,serif" font-size="24.00" fill="#000000">FileList_main</text>
</g>
<!-- TableFilterDemo_newFilter -->
<g id="node5" class="node">
<title>TableFilterDemo_newFilter</title>
<polygon fill="none" stroke="#000000" points="317.7913,-252 34.6188,-252 34.6188,-216 317.7913,-216 317.7913,-252"/>
<text text-anchor="middle" x="176.2051" y="-226.8" font-family="Times,serif" font-size="24.00" fill="#000000">TableFilterDemo_newFilter</text>
</g>
<!-- TableFilterDemo_main -->
<g id="node6" class="node">
<title>TableFilterDemo_main</title>
<path fill="#ff0000" stroke="#000000" d="M283.7992,-306C283.7992,-306 68.611,-306 68.611,-306 62.611,-306 56.611,-300 56.611,-294 56.611,-294 56.611,-282 56.611,-282 56.611,-276 62.611,-270 68.611,-270 68.611,-270 283.7992,-270 283.7992,-270 289.7992,-270 295.7992,-276 295.7992,-282 295.7992,-282 295.7992,-294 295.7992,-294 295.7992,-300 289.7992,-306 283.7992,-306"/>
<text text-anchor="middle" x="176.2051" y="-280.8" font-family="Times,serif" font-size="24.00" fill="#000000">TableFilterDemo_main</text>
</g>
<!-- RepositoryTree_isCellEditable -->
<g id="node7" class="node">
<title>RepositoryTree_isCellEditable</title>
<path fill="#ff0000" stroke="#000000" d="M320.6311,-360C320.6311,-360 31.779,-360 31.779,-360 25.779,-360 19.779,-354 19.779,-348 19.779,-348 19.779,-336 19.779,-336 19.779,-330 25.779,-324 31.779,-324 31.779,-324 320.6311,-324 320.6311,-324 326.6311,-324 332.6311,-330 332.6311,-336 332.6311,-336 332.6311,-348 332.6311,-348 332.6311,-354 326.6311,-360 320.6311,-360"/>
<text text-anchor="middle" x="176.2051" y="-334.8" font-family="Times,serif" font-size="24.00" fill="#000000">RepositoryTree_isCellEditable</text>
</g>
<!-- RepositoryTree_itemStateChanged -->
<g id="node8" class="node">
<title>RepositoryTree_itemStateChanged</title>
<path fill="#ff0000" stroke="#000000" d="M340.6155,-414C340.6155,-414 11.7947,-414 11.7947,-414 5.7947,-414 -.2053,-408 -.2053,-402 -.2053,-402 -.2053,-390 -.2053,-390 -.2053,-384 5.7947,-378 11.7947,-378 11.7947,-378 340.6155,-378 340.6155,-378 346.6155,-378 352.6155,-384 352.6155,-390 352.6155,-390 352.6155,-402 352.6155,-402 352.6155,-408 346.6155,-414 340.6155,-414"/>
<text text-anchor="middle" x="176.2051" y="-388.8" font-family="Times,serif" font-size="24.00" fill="#000000">RepositoryTree_itemStateChanged</text>
</g>
<!-- RepositoryTree_main -->
<g id="node9" class="node">
<title>RepositoryTree_main</title>
<path fill="#ff0000" stroke="#000000" d="M276.6469,-468C276.6469,-468 75.7632,-468 75.7632,-468 69.7632,-468 63.7632,-462 63.7632,-456 63.7632,-456 63.7632,-444 63.7632,-444 63.7632,-438 69.7632,-432 75.7632,-432 75.7632,-432 276.6469,-432 276.6469,-432 282.6469,-432 288.6469,-438 288.6469,-444 288.6469,-444 288.6469,-456 288.6469,-456 288.6469,-462 282.6469,-468 276.6469,-468"/>
<text text-anchor="middle" x="176.2051" y="-442.8" font-family="Times,serif" font-size="24.00" fill="#000000">RepositoryTree_main</text>
</g>
<!-- NamedVector_NamedVector -->
<g id="node10" class="node">
<title>NamedVector_NamedVector</title>
<polygon fill="none" stroke="#000000" points="680.2344,-468 388.4687,-468 388.4687,-432 680.2344,-432 680.2344,-468"/>
<text text-anchor="middle" x="534.3516" y="-442.8" font-family="Times,serif" font-size="24.00" fill="#000000">NamedVector_NamedVector</text>
</g>
<!-- RepositoryTree_main&#45;&gt;NamedVector_NamedVector -->
<g id="edge1" class="edge">
<title>RepositoryTree_main&#45;&gt;NamedVector_NamedVector</title>
<path fill="none" stroke="#000000" d="M288.5422,-450C316.9255,-450 347.9191,-450 378.0394,-450"/>
<polygon fill="#000000" stroke="#000000" points="378.2156,-453.5001 388.2156,-450 378.2156,-446.5001 378.2156,-453.5001"/>
</g>
<!-- NamedVector_NamedVector&#45;&gt;NamedVector_NamedVector -->
<g id="edge2" class="edge">
<title>NamedVector_NamedVector&#45;&gt;NamedVector_NamedVector</title>
<path fill="none" stroke="#000000" d="M469.5864,-468.1527C459.6226,-477.5391 481.2109,-486 534.3516,-486 567.1493,-486 587.9281,-482.7771 596.6881,-478.1028"/>
<polygon fill="#000000" stroke="#000000" points="600.1456,-478.6975 599.1167,-468.1527 593.3452,-477.0376 600.1456,-478.6975"/>
</g>
<!-- CheckBoxNodeRenderer_CheckBoxNodeRenderer -->
<g id="node11" class="node">
<title>CheckBoxNodeRenderer_CheckBoxNodeRenderer</title>
<polygon fill="none" stroke="#000000" points="1226.5549,-468 716.5388,-468 716.5388,-432 1226.5549,-432 1226.5549,-468"/>
<text text-anchor="middle" x="971.5469" y="-442.8" font-family="Times,serif" font-size="24.00" fill="#000000">CheckBoxNodeRenderer_CheckBoxNodeRenderer</text>
</g>
<!-- NamedVector_NamedVector&#45;&gt;CheckBoxNodeRenderer_CheckBoxNodeRenderer -->
<g id="edge3" class="edge">
<title>NamedVector_NamedVector&#45;&gt;CheckBoxNodeRenderer_CheckBoxNodeRenderer</title>
<path fill="none" stroke="#000000" d="M680.2351,-450C688.805,-450 697.5431,-450 706.3878,-450"/>
<polygon fill="#000000" stroke="#000000" points="706.4159,-453.5001 716.4159,-450 706.4159,-446.5001 706.4159,-453.5001"/>
</g>
<!-- RepositoryTree_CheckBoxNodeEditor -->
<g id="node12" class="node">
<title>RepositoryTree_CheckBoxNodeEditor</title>
<polygon fill="none" stroke="#000000" points="1652.42,-468 1262.9277,-468 1262.9277,-432 1652.42,-432 1652.42,-468"/>
<text text-anchor="middle" x="1457.6738" y="-442.8" font-family="Times,serif" font-size="24.00" fill="#000000">RepositoryTree_CheckBoxNodeEditor</text>
</g>
<!-- CheckBoxNodeRenderer_CheckBoxNodeRenderer&#45;&gt;RepositoryTree_CheckBoxNodeEditor -->
<g id="edge4" class="edge">
<title>CheckBoxNodeRenderer_CheckBoxNodeRenderer&#45;&gt;RepositoryTree_CheckBoxNodeEditor</title>
<path fill="none" stroke="#000000" d="M1226.7116,-450C1235.4439,-450 1244.1554,-450 1252.8007,-450"/>
<polygon fill="#000000" stroke="#000000" points="1252.9165,-453.5001 1262.9165,-450 1252.9164,-446.5001 1252.9165,-453.5001"/>
</g>
</g>
</svg>
