<?xml version="1.0" encoding="UTF-8" standalone="no"?>
<!DOCTYPE svg PUBLIC "-//W3C//DTD SVG 1.1//EN"
 "http://www.w3.org/Graphics/SVG/1.1/DTD/svg11.dtd">
<!-- Generated by graphviz version 2.40.1 (20161225.0304)
 -->
<!-- Title: g Pages: 1 -->
<svg width="2084pt" height="730pt"
 viewBox="0.00 0.00 2084.06 730.00" xmlns="http://www.w3.org/2000/svg" xmlns:xlink="http://www.w3.org/1999/xlink">
<g id="graph0" class="graph" transform="scale(1 1) rotate(0) translate(4 726)">
<title>g</title>
<polygon fill="#ffffff" stroke="transparent" points="-4,4 -4,-726 2080.0586,-726 2080.0586,4 -4,4"/>
<!-- 7718c5d0&#45;8e20&#45;11e8&#45;bb07&#45;b70bbb09a47a:RepoBrowser -->
<g id="node1" class="node">
<title>7718c5d0&#45;8e20&#45;11e8&#45;bb07&#45;b70bbb09a47a:RepoBrowser</title>
<polygon fill="none" stroke="#000000" points="639.8926,-171 76.9004,-171 76.9004,-135 639.8926,-135 639.8926,-171"/>
<text text-anchor="middle" x="358.3965" y="-145.8" font-family="Times,serif" font-size="24.00" fill="#000000">7718c5d0&#45;8e20&#45;11e8&#45;bb07&#45;b70bbb09a47a:RepoBrowser</text>
</g>
<!-- 772548f0&#45;8e20&#45;11e8&#45;bb07&#45;b70bbb09a47a:RepositoryTreePanel -->
<g id="node2" class="node">
<title>772548f0&#45;8e20&#45;11e8&#45;bb07&#45;b70bbb09a47a:RepositoryTreePanel</title>
<polygon fill="none" stroke="#000000" points="1404.7422,-144 774.4765,-144 774.4765,-108 1404.7422,-108 1404.7422,-144"/>
<text text-anchor="middle" x="1089.6094" y="-118.8" font-family="Times,serif" font-size="24.00" fill="#000000">772548f0&#45;8e20&#45;11e8&#45;bb07&#45;b70bbb09a47a:RepositoryTreePanel</text>
</g>
<!-- 7718c5d0&#45;8e20&#45;11e8&#45;bb07&#45;b70bbb09a47a:RepoBrowser&#45;&gt;772548f0&#45;8e20&#45;11e8&#45;bb07&#45;b70bbb09a47a:RepositoryTreePanel -->
<g id="edge1" class="edge">
<title>7718c5d0&#45;8e20&#45;11e8&#45;bb07&#45;b70bbb09a47a:RepoBrowser&#45;&gt;772548f0&#45;8e20&#45;11e8&#45;bb07&#45;b70bbb09a47a:RepositoryTreePanel</title>
<path fill="none" stroke="#000000" d="M640.0565,-142.5997C680.6615,-141.1004 722.7269,-139.5471 764.099,-138.0195"/>
<polygon fill="#000000" stroke="#000000" points="764.4534,-141.5088 774.3174,-137.6421 764.195,-134.5136 764.4534,-141.5088"/>
</g>
<!-- 772548f0&#45;8e20&#45;11e8&#45;bb07&#45;b70bbb09a47a:getPreferredSize -->
<g id="node3" class="node">
<title>772548f0&#45;8e20&#45;11e8&#45;bb07&#45;b70bbb09a47a:getPreferredSize</title>
<polygon fill="none" stroke="#000000" points="1383.8829,-198 795.3359,-198 795.3359,-162 1383.8829,-162 1383.8829,-198"/>
<text text-anchor="middle" x="1089.6094" y="-172.8" font-family="Times,serif" font-size="24.00" fill="#000000">772548f0&#45;8e20&#45;11e8&#45;bb07&#45;b70bbb09a47a:getPreferredSize</text>
</g>
<!-- 7718c5d0&#45;8e20&#45;11e8&#45;bb07&#45;b70bbb09a47a:RepoBrowser&#45;&gt;772548f0&#45;8e20&#45;11e8&#45;bb07&#45;b70bbb09a47a:getPreferredSize -->
<g id="edge2" class="edge">
<title>7718c5d0&#45;8e20&#45;11e8&#45;bb07&#45;b70bbb09a47a:RepoBrowser&#45;&gt;772548f0&#45;8e20&#45;11e8&#45;bb07&#45;b70bbb09a47a:getPreferredSize</title>
<path fill="none" stroke="#000000" d="M640.0565,-163.4003C687.5699,-165.1547 737.0827,-166.983 785.1447,-168.7577"/>
<polygon fill="#000000" stroke="#000000" points="785.255,-172.264 795.3774,-169.1355 785.5134,-165.2688 785.255,-172.264"/>
</g>
<!-- 77862da0&#45;8e20&#45;11e8&#45;bb07&#45;b70bbb09a47a:makeCompactGrid -->
<g id="node4" class="node">
<title>77862da0&#45;8e20&#45;11e8&#45;bb07&#45;b70bbb09a47a:makeCompactGrid</title>
<polygon fill="none" stroke="#000000" points="2075.8751,-90 1462.6093,-90 1462.6093,-54 2075.8751,-54 2075.8751,-90"/>
<text text-anchor="middle" x="1769.2422" y="-64.8" font-family="Times,serif" font-size="24.00" fill="#000000">77862da0&#45;8e20&#45;11e8&#45;bb07&#45;b70bbb09a47a:makeCompactGrid</text>
</g>
<!-- 772548f0&#45;8e20&#45;11e8&#45;bb07&#45;b70bbb09a47a:RepositoryTreePanel&#45;&gt;77862da0&#45;8e20&#45;11e8&#45;bb07&#45;b70bbb09a47a:makeCompactGrid -->
<g id="edge3" class="edge">
<title>772548f0&#45;8e20&#45;11e8&#45;bb07&#45;b70bbb09a47a:RepositoryTreePanel&#45;&gt;77862da0&#45;8e20&#45;11e8&#45;bb07&#45;b70bbb09a47a:makeCompactGrid</title>
<path fill="none" stroke="#000000" d="M1316.3896,-107.9813C1385.7428,-102.4708 1462.1851,-96.3971 1532.2016,-90.834"/>
<polygon fill="#000000" stroke="#000000" points="1532.7923,-94.2982 1542.4836,-90.017 1532.2378,-87.3202 1532.7923,-94.2982"/>
</g>
<!-- 7738a9e0&#45;8e20&#45;11e8&#45;bb07&#45;b70bbb09a47a:getPreferredSize -->
<g id="node5" class="node">
<title>7738a9e0&#45;8e20&#45;11e8&#45;bb07&#45;b70bbb09a47a:getPreferredSize</title>
<polygon fill="none" stroke="#000000" points="2063.8283,-198 1474.6561,-198 1474.6561,-162 2063.8283,-162 2063.8283,-198"/>
<text text-anchor="middle" x="1769.2422" y="-172.8" font-family="Times,serif" font-size="24.00" fill="#000000">7738a9e0&#45;8e20&#45;11e8&#45;bb07&#45;b70bbb09a47a:getPreferredSize</text>
</g>
<!-- 772548f0&#45;8e20&#45;11e8&#45;bb07&#45;b70bbb09a47a:getPreferredSize&#45;&gt;7738a9e0&#45;8e20&#45;11e8&#45;bb07&#45;b70bbb09a47a:getPreferredSize -->
<g id="edge4" class="edge">
<title>772548f0&#45;8e20&#45;11e8&#45;bb07&#45;b70bbb09a47a:getPreferredSize&#45;&gt;7738a9e0&#45;8e20&#45;11e8&#45;bb07&#45;b70bbb09a47a:getPreferredSize</title>
<path fill="none" stroke="#000000" d="M1383.7534,-180C1410.4745,-180 1437.5793,-180 1464.3907,-180"/>
<polygon fill="#000000" stroke="#000000" points="1464.6507,-183.5001 1474.6506,-180 1464.6506,-176.5001 1464.6507,-183.5001"/>
</g>
<!-- 772548f0&#45;8e20&#45;11e8&#45;bb07&#45;b70bbb09a47a:dumpSelectedPaths -->
<g id="node6" class="node">
<title>772548f0&#45;8e20&#45;11e8&#45;bb07&#45;b70bbb09a47a:dumpSelectedPaths</title>
<polygon fill="none" stroke="#000000" points="666.7247,-252 50.0683,-252 50.0683,-216 666.7247,-216 666.7247,-252"/>
<text text-anchor="middle" x="358.3965" y="-226.8" font-family="Times,serif" font-size="24.00" fill="#000000">772548f0&#45;8e20&#45;11e8&#45;bb07&#45;b70bbb09a47a:dumpSelectedPaths</text>
</g>
<!-- 7738a9e0&#45;8e20&#45;11e8&#45;bb07&#45;b70bbb09a47a:dumpSelectedPaths -->
<g id="node7" class="node">
<title>7738a9e0&#45;8e20&#45;11e8&#45;bb07&#45;b70bbb09a47a:dumpSelectedPaths</title>
<polygon fill="none" stroke="#000000" points="1398.2501,-252 780.9686,-252 780.9686,-216 1398.2501,-216 1398.2501,-252"/>
<text text-anchor="middle" x="1089.6094" y="-226.8" font-family="Times,serif" font-size="24.00" fill="#000000">7738a9e0&#45;8e20&#45;11e8&#45;bb07&#45;b70bbb09a47a:dumpSelectedPaths</text>
</g>
<!-- 772548f0&#45;8e20&#45;11e8&#45;bb07&#45;b70bbb09a47a:dumpSelectedPaths&#45;&gt;7738a9e0&#45;8e20&#45;11e8&#45;bb07&#45;b70bbb09a47a:dumpSelectedPaths -->
<g id="edge5" class="edge">
<title>772548f0&#45;8e20&#45;11e8&#45;bb07&#45;b70bbb09a47a:dumpSelectedPaths&#45;&gt;7738a9e0&#45;8e20&#45;11e8&#45;bb07&#45;b70bbb09a47a:dumpSelectedPaths</title>
<path fill="none" stroke="#000000" d="M666.6421,-234C700.9997,-234 736.0504,-234 770.5395,-234"/>
<polygon fill="#000000" stroke="#000000" points="770.7354,-237.5001 780.7353,-234 770.7353,-230.5001 770.7354,-237.5001"/>
</g>
<!-- 77298eb0&#45;8e20&#45;11e8&#45;bb07&#45;b70bbb09a47a:RootPopupMenu -->
<g id="node8" class="node">
<title>77298eb0&#45;8e20&#45;11e8&#45;bb07&#45;b70bbb09a47a:RootPopupMenu</title>
<polygon fill="none" stroke="#000000" points="1387.1445,-506 792.0742,-506 792.0742,-470 1387.1445,-470 1387.1445,-506"/>
<text text-anchor="middle" x="1089.6094" y="-480.8" font-family="Times,serif" font-size="24.00" fill="#000000">77298eb0&#45;8e20&#45;11e8&#45;bb07&#45;b70bbb09a47a:RootPopupMenu</text>
</g>
<!-- 7701e270&#45;8e20&#45;11e8&#45;bb07&#45;b70bbb09a47a:PopUpMenu -->
<g id="node9" class="node">
<title>7701e270&#45;8e20&#45;11e8&#45;bb07&#45;b70bbb09a47a:PopUpMenu</title>
<polygon fill="none" stroke="#000000" points="2045.9337,-483 1492.5507,-483 1492.5507,-447 2045.9337,-447 2045.9337,-483"/>
<text text-anchor="middle" x="1769.2422" y="-457.8" font-family="Times,serif" font-size="24.00" fill="#000000">7701e270&#45;8e20&#45;11e8&#45;bb07&#45;b70bbb09a47a:PopUpMenu</text>
</g>
<!-- 77298eb0&#45;8e20&#45;11e8&#45;bb07&#45;b70bbb09a47a:RootPopupMenu&#45;&gt;7701e270&#45;8e20&#45;11e8&#45;bb07&#45;b70bbb09a47a:PopUpMenu -->
<g id="edge6" class="edge">
<title>77298eb0&#45;8e20&#45;11e8&#45;bb07&#45;b70bbb09a47a:RootPopupMenu&#45;&gt;7701e270&#45;8e20&#45;11e8&#45;bb07&#45;b70bbb09a47a:PopUpMenu</title>
<path fill="none" stroke="#000000" d="M1387.2118,-477.9286C1418.7743,-476.8605 1450.8303,-475.7756 1482.2677,-474.7117"/>
<polygon fill="#000000" stroke="#000000" points="1482.5757,-478.2034 1492.4515,-474.3671 1482.3389,-471.2074 1482.5757,-478.2034"/>
</g>
<!-- 7738a9e0&#45;8e20&#45;11e8&#45;bb07&#45;b70bbb09a47a:RepositoryTree -->
<g id="node10" class="node">
<title>7738a9e0&#45;8e20&#45;11e8&#45;bb07&#45;b70bbb09a47a:RepositoryTree</title>
<polygon fill="none" stroke="#000000" points="647.5215,-460 69.2715,-460 69.2715,-424 647.5215,-424 647.5215,-460"/>
<text text-anchor="middle" x="358.3965" y="-434.8" font-family="Times,serif" font-size="24.00" fill="#000000">7738a9e0&#45;8e20&#45;11e8&#45;bb07&#45;b70bbb09a47a:RepositoryTree</text>
</g>
<!-- 7738a9e0&#45;8e20&#45;11e8&#45;bb07&#45;b70bbb09a47a:RepositoryTree&#45;&gt;77298eb0&#45;8e20&#45;11e8&#45;bb07&#45;b70bbb09a47a:RootPopupMenu -->
<g id="edge10" class="edge">
<title>7738a9e0&#45;8e20&#45;11e8&#45;bb07&#45;b70bbb09a47a:RepositoryTree&#45;&gt;77298eb0&#45;8e20&#45;11e8&#45;bb07&#45;b70bbb09a47a:RootPopupMenu</title>
<path fill="none" stroke="#000000" d="M644.7682,-460.0154C693.5504,-463.0843 744.3096,-466.2775 793.3417,-469.362"/>
<polygon fill="#000000" stroke="#000000" points="793.2498,-472.8631 803.4498,-469.9979 793.6893,-465.8769 793.2498,-472.8631"/>
</g>
<!-- 7738a9e0&#45;8e20&#45;11e8&#45;bb07&#45;b70bbb09a47a:RepositoryTree&#45;&gt;7701e270&#45;8e20&#45;11e8&#45;bb07&#45;b70bbb09a47a:PopUpMenu -->
<g id="edge9" class="edge">
<title>7738a9e0&#45;8e20&#45;11e8&#45;bb07&#45;b70bbb09a47a:RepositoryTree&#45;&gt;7701e270&#45;8e20&#45;11e8&#45;bb07&#45;b70bbb09a47a:PopUpMenu</title>
<path fill="none" stroke="#000000" d="M647.7332,-446.7168C891.6828,-450.6938 1238.9471,-456.355 1482.2358,-460.3211"/>
<polygon fill="#000000" stroke="#000000" points="1482.2366,-463.8215 1492.2923,-460.4851 1482.3507,-456.8225 1482.2366,-463.8215"/>
</g>
<!-- 77776090&#45;8e20&#45;11e8&#45;bb07&#45;b70bbb09a47a:CheckBoxNodeRenderer -->
<g id="node11" class="node">
<title>77776090&#45;8e20&#45;11e8&#45;bb07&#45;b70bbb09a47a:CheckBoxNodeRenderer</title>
<polygon fill="none" stroke="#000000" points="1426.2306,-360 752.9882,-360 752.9882,-324 1426.2306,-324 1426.2306,-360"/>
<text text-anchor="middle" x="1089.6094" y="-334.8" font-family="Times,serif" font-size="24.00" fill="#000000">77776090&#45;8e20&#45;11e8&#45;bb07&#45;b70bbb09a47a:CheckBoxNodeRenderer</text>
</g>
<!-- 7738a9e0&#45;8e20&#45;11e8&#45;bb07&#45;b70bbb09a47a:RepositoryTree&#45;&gt;77776090&#45;8e20&#45;11e8&#45;bb07&#45;b70bbb09a47a:CheckBoxNodeRenderer -->
<g id="edge7" class="edge">
<title>7738a9e0&#45;8e20&#45;11e8&#45;bb07&#45;b70bbb09a47a:RepositoryTree&#45;&gt;77776090&#45;8e20&#45;11e8&#45;bb07&#45;b70bbb09a47a:CheckBoxNodeRenderer</title>
<path fill="none" stroke="#000000" d="M647.6528,-441.5428C671.7946,-435.1882 695.1948,-426.5472 716.793,-415 739.6874,-402.7598 729.928,-381.2951 752.793,-369 755.7638,-367.4025 758.7711,-365.8632 761.8117,-364.3801"/>
<polygon fill="#000000" stroke="#000000" points="763.4354,-367.4852 771.0305,-360.0983 760.4866,-361.1365 763.4354,-367.4852"/>
</g>
<!-- 77740530&#45;8e20&#45;11e8&#45;bb07&#45;b70bbb09a47a:CheckBoxNodeEditor -->
<g id="node12" class="node">
<title>77740530&#45;8e20&#45;11e8&#45;bb07&#45;b70bbb09a47a:CheckBoxNodeEditor</title>
<polygon fill="none" stroke="#000000" points="1412.2696,-414 766.9491,-414 766.9491,-378 1412.2696,-378 1412.2696,-414"/>
<text text-anchor="middle" x="1089.6094" y="-388.8" font-family="Times,serif" font-size="24.00" fill="#000000">77740530&#45;8e20&#45;11e8&#45;bb07&#45;b70bbb09a47a:CheckBoxNodeEditor</text>
</g>
<!-- 7738a9e0&#45;8e20&#45;11e8&#45;bb07&#45;b70bbb09a47a:RepositoryTree&#45;&gt;77740530&#45;8e20&#45;11e8&#45;bb07&#45;b70bbb09a47a:CheckBoxNodeEditor -->
<g id="edge8" class="edge">
<title>7738a9e0&#45;8e20&#45;11e8&#45;bb07&#45;b70bbb09a47a:RepositoryTree&#45;&gt;77740530&#45;8e20&#45;11e8&#45;bb07&#45;b70bbb09a47a:CheckBoxNodeEditor</title>
<path fill="none" stroke="#000000" d="M644.7682,-423.9846C693.5504,-420.9157 744.3096,-417.7225 793.3417,-414.638"/>
<polygon fill="#000000" stroke="#000000" points="793.6893,-418.1231 803.4498,-414.0021 793.2498,-411.1369 793.6893,-418.1231"/>
</g>
<!-- 7738a9e0&#45;8e20&#45;11e8&#45;bb07&#45;b70bbb09a47a:getPaths -->
<g id="node13" class="node">
<title>7738a9e0&#45;8e20&#45;11e8&#45;bb07&#45;b70bbb09a47a:getPaths</title>
<polygon fill="none" stroke="#000000" points="613.8965,-560 102.8965,-560 102.8965,-524 613.8965,-524 613.8965,-560"/>
<text text-anchor="middle" x="358.3965" y="-534.8" font-family="Times,serif" font-size="24.00" fill="#000000">7738a9e0&#45;8e20&#45;11e8&#45;bb07&#45;b70bbb09a47a:getPaths</text>
</g>
<!-- 776beee0&#45;8e20&#45;11e8&#45;bb07&#45;b70bbb09a47a:isSelected -->
<g id="node14" class="node">
<title>776beee0&#45;8e20&#45;11e8&#45;bb07&#45;b70bbb09a47a:isSelected</title>
<polygon fill="none" stroke="#000000" points="1352.2345,-560 826.9842,-560 826.9842,-524 1352.2345,-524 1352.2345,-560"/>
<text text-anchor="middle" x="1089.6094" y="-534.8" font-family="Times,serif" font-size="24.00" fill="#000000">776beee0&#45;8e20&#45;11e8&#45;bb07&#45;b70bbb09a47a:isSelected</text>
</g>
<!-- 7738a9e0&#45;8e20&#45;11e8&#45;bb07&#45;b70bbb09a47a:getPaths&#45;&gt;776beee0&#45;8e20&#45;11e8&#45;bb07&#45;b70bbb09a47a:isSelected -->
<g id="edge11" class="edge">
<title>7738a9e0&#45;8e20&#45;11e8&#45;bb07&#45;b70bbb09a47a:getPaths&#45;&gt;776beee0&#45;8e20&#45;11e8&#45;bb07&#45;b70bbb09a47a:isSelected</title>
<path fill="none" stroke="#000000" d="M614.1393,-542C679.6558,-542 750.3612,-542 816.7061,-542"/>
<polygon fill="#000000" stroke="#000000" points="816.8877,-545.5001 826.8877,-542 816.8877,-538.5001 816.8877,-545.5001"/>
</g>
<!-- 7738a9e0&#45;8e20&#45;11e8&#45;bb07&#45;b70bbb09a47a:checkUncheckNode -->
<g id="node15" class="node">
<title>7738a9e0&#45;8e20&#45;11e8&#45;bb07&#45;b70bbb09a47a:checkUncheckNode</title>
<polygon fill="none" stroke="#000000" points="669.7988,-614 46.9941,-614 46.9941,-578 669.7988,-578 669.7988,-614"/>
<text text-anchor="middle" x="358.3965" y="-588.8" font-family="Times,serif" font-size="24.00" fill="#000000">7738a9e0&#45;8e20&#45;11e8&#45;bb07&#45;b70bbb09a47a:checkUncheckNode</text>
</g>
<!-- 776beee0&#45;8e20&#45;11e8&#45;bb07&#45;b70bbb09a47a:setSelected -->
<g id="node16" class="node">
<title>776beee0&#45;8e20&#45;11e8&#45;bb07&#45;b70bbb09a47a:setSelected</title>
<polygon fill="none" stroke="#000000" points="1357.8868,-614 821.332,-614 821.332,-578 1357.8868,-578 1357.8868,-614"/>
<text text-anchor="middle" x="1089.6094" y="-588.8" font-family="Times,serif" font-size="24.00" fill="#000000">776beee0&#45;8e20&#45;11e8&#45;bb07&#45;b70bbb09a47a:setSelected</text>
</g>
<!-- 7738a9e0&#45;8e20&#45;11e8&#45;bb07&#45;b70bbb09a47a:checkUncheckNode&#45;&gt;776beee0&#45;8e20&#45;11e8&#45;bb07&#45;b70bbb09a47a:setSelected -->
<g id="edge12" class="edge">
<title>7738a9e0&#45;8e20&#45;11e8&#45;bb07&#45;b70bbb09a47a:checkUncheckNode&#45;&gt;776beee0&#45;8e20&#45;11e8&#45;bb07&#45;b70bbb09a47a:setSelected</title>
<path fill="none" stroke="#000000" d="M669.822,-596C716.7927,-596 764.9836,-596 811.2003,-596"/>
<polygon fill="#000000" stroke="#000000" points="811.3406,-599.5001 821.3406,-596 811.3406,-592.5001 811.3406,-599.5001"/>
</g>
<!-- 7745c940&#45;8e20&#45;11e8&#45;bb07&#45;b70bbb09a47a:FileList -->
<g id="node17" class="node">
<title>7745c940&#45;8e20&#45;11e8&#45;bb07&#45;b70bbb09a47a:FileList</title>
<polygon fill="none" stroke="#000000" points="611.088,-63 105.705,-63 105.705,-27 611.088,-27 611.088,-63"/>
<text text-anchor="middle" x="358.3965" y="-37.8" font-family="Times,serif" font-size="24.00" fill="#000000">7745c940&#45;8e20&#45;11e8&#45;bb07&#45;b70bbb09a47a:FileList</text>
</g>
<!-- 776add70&#45;8e20&#45;11e8&#45;bb07&#45;b70bbb09a47a:TableFilterDemo -->
<g id="node18" class="node">
<title>776add70&#45;8e20&#45;11e8&#45;bb07&#45;b70bbb09a47a:TableFilterDemo</title>
<polygon fill="none" stroke="#000000" points="1386.7345,-36 792.4843,-36 792.4843,0 1386.7345,0 1386.7345,-36"/>
<text text-anchor="middle" x="1089.6094" y="-10.8" font-family="Times,serif" font-size="24.00" fill="#000000">776add70&#45;8e20&#45;11e8&#45;bb07&#45;b70bbb09a47a:TableFilterDemo</text>
</g>
<!-- 7745c940&#45;8e20&#45;11e8&#45;bb07&#45;b70bbb09a47a:FileList&#45;&gt;776add70&#45;8e20&#45;11e8&#45;bb07&#45;b70bbb09a47a:TableFilterDemo -->
<g id="edge13" class="edge">
<title>7745c940&#45;8e20&#45;11e8&#45;bb07&#45;b70bbb09a47a:FileList&#45;&gt;776add70&#45;8e20&#45;11e8&#45;bb07&#45;b70bbb09a47a:TableFilterDemo</title>
<path fill="none" stroke="#000000" d="M611.3185,-35.6609C666.4108,-33.6266 725.2867,-31.4526 782.2285,-29.35"/>
<polygon fill="#000000" stroke="#000000" points="782.599,-32.8388 792.463,-28.9721 782.3406,-25.8436 782.599,-32.8388"/>
</g>
<!-- 776add70&#45;8e20&#45;11e8&#45;bb07&#45;b70bbb09a47a:addOperationComponent -->
<g id="node19" class="node">
<title>776add70&#45;8e20&#45;11e8&#45;bb07&#45;b70bbb09a47a:addOperationComponent</title>
<polygon fill="none" stroke="#000000" points="1426.2423,-90 752.9765,-90 752.9765,-54 1426.2423,-54 1426.2423,-90"/>
<text text-anchor="middle" x="1089.6094" y="-64.8" font-family="Times,serif" font-size="24.00" fill="#000000">776add70&#45;8e20&#45;11e8&#45;bb07&#45;b70bbb09a47a:addOperationComponent</text>
</g>
<!-- 7745c940&#45;8e20&#45;11e8&#45;bb07&#45;b70bbb09a47a:FileList&#45;&gt;776add70&#45;8e20&#45;11e8&#45;bb07&#45;b70bbb09a47a:addOperationComponent -->
<g id="edge14" class="edge">
<title>7745c940&#45;8e20&#45;11e8&#45;bb07&#45;b70bbb09a47a:FileList&#45;&gt;776add70&#45;8e20&#45;11e8&#45;bb07&#45;b70bbb09a47a:addOperationComponent</title>
<path fill="none" stroke="#000000" d="M611.3185,-54.3391C653.7176,-55.9047 698.3576,-57.553 742.6324,-59.1879"/>
<polygon fill="#000000" stroke="#000000" points="742.5482,-62.6871 752.6706,-59.5586 742.8066,-55.6918 742.5482,-62.6871"/>
</g>
<!-- 776add70&#45;8e20&#45;11e8&#45;bb07&#45;b70bbb09a47a:TableFilterDemo&#45;&gt;77862da0&#45;8e20&#45;11e8&#45;bb07&#45;b70bbb09a47a:makeCompactGrid -->
<g id="edge17" class="edge">
<title>776add70&#45;8e20&#45;11e8&#45;bb07&#45;b70bbb09a47a:TableFilterDemo&#45;&gt;77862da0&#45;8e20&#45;11e8&#45;bb07&#45;b70bbb09a47a:makeCompactGrid</title>
<path fill="none" stroke="#000000" d="M1316.3896,-36.0187C1385.7428,-41.5292 1462.1851,-47.6029 1532.2016,-53.166"/>
<polygon fill="#000000" stroke="#000000" points="1532.2378,-56.6798 1542.4836,-53.983 1532.7923,-49.7018 1532.2378,-56.6798"/>
</g>
<!-- 774b6e90&#45;8e20&#45;11e8&#45;bb07&#45;b70bbb09a47a:FileTree -->
<g id="node20" class="node">
<title>774b6e90&#45;8e20&#45;11e8&#45;bb07&#45;b70bbb09a47a:FileTree</title>
<polygon fill="none" stroke="#000000" points="614.3772,-406 102.4158,-406 102.4158,-370 614.3772,-370 614.3772,-406"/>
<text text-anchor="middle" x="358.3965" y="-380.8" font-family="Times,serif" font-size="24.00" fill="#000000">774b6e90&#45;8e20&#45;11e8&#45;bb07&#45;b70bbb09a47a:FileTree</text>
</g>
<!-- 774b6e90&#45;8e20&#45;11e8&#45;bb07&#45;b70bbb09a47a:FileTree&#45;&gt;77776090&#45;8e20&#45;11e8&#45;bb07&#45;b70bbb09a47a:CheckBoxNodeRenderer -->
<g id="edge15" class="edge">
<title>774b6e90&#45;8e20&#45;11e8&#45;bb07&#45;b70bbb09a47a:FileTree&#45;&gt;77776090&#45;8e20&#45;11e8&#45;bb07&#45;b70bbb09a47a:CheckBoxNodeRenderer</title>
<path fill="none" stroke="#000000" d="M614.1393,-371.9114C671.9525,-368.2744 733.8063,-364.3833 793.1388,-360.6507"/>
<polygon fill="#000000" stroke="#000000" points="793.6492,-364.1256 803.4096,-360.0046 793.2096,-357.1394 793.6492,-364.1256"/>
</g>
<!-- 774b6e90&#45;8e20&#45;11e8&#45;bb07&#45;b70bbb09a47a:FileTree&#45;&gt;77740530&#45;8e20&#45;11e8&#45;bb07&#45;b70bbb09a47a:CheckBoxNodeEditor -->
<g id="edge16" class="edge">
<title>774b6e90&#45;8e20&#45;11e8&#45;bb07&#45;b70bbb09a47a:FileTree&#45;&gt;77740530&#45;8e20&#45;11e8&#45;bb07&#45;b70bbb09a47a:CheckBoxNodeEditor</title>
<path fill="none" stroke="#000000" d="M614.1393,-390.798C660.1818,-391.3018 708.787,-391.8335 756.6405,-392.3571"/>
<polygon fill="#000000" stroke="#000000" points="756.8016,-395.859 766.8393,-392.4687 756.8782,-388.8594 756.8016,-395.859"/>
</g>
<!-- 7770a9d0&#45;8e20&#45;11e8&#45;bb07&#45;b70bbb09a47a:main -->
<g id="node21" class="node">
<title>7770a9d0&#45;8e20&#45;11e8&#45;bb07&#45;b70bbb09a47a:main</title>
<polygon fill="none" stroke="#000000" points="597.9043,-352 118.8887,-352 118.8887,-316 597.9043,-316 597.9043,-352"/>
<text text-anchor="middle" x="358.3965" y="-326.8" font-family="Times,serif" font-size="24.00" fill="#000000">7770a9d0&#45;8e20&#45;11e8&#45;bb07&#45;b70bbb09a47a:main</text>
</g>
<!-- 7770a9d0&#45;8e20&#45;11e8&#45;bb07&#45;b70bbb09a47a:main&#45;&gt;77776090&#45;8e20&#45;11e8&#45;bb07&#45;b70bbb09a47a:CheckBoxNodeRenderer -->
<g id="edge19" class="edge">
<title>7770a9d0&#45;8e20&#45;11e8&#45;bb07&#45;b70bbb09a47a:main&#45;&gt;77776090&#45;8e20&#45;11e8&#45;bb07&#45;b70bbb09a47a:CheckBoxNodeRenderer</title>
<path fill="none" stroke="#000000" d="M598.076,-336.6223C644.4389,-337.1295 693.8794,-337.6704 742.8671,-338.2064"/>
<polygon fill="#000000" stroke="#000000" points="742.9466,-341.7074 752.9843,-338.3171 743.0232,-334.7078 742.9466,-341.7074"/>
</g>
<!-- 7770a9d0&#45;8e20&#45;11e8&#45;bb07&#45;b70bbb09a47a:main&#45;&gt;77740530&#45;8e20&#45;11e8&#45;bb07&#45;b70bbb09a47a:CheckBoxNodeEditor -->
<g id="edge20" class="edge">
<title>7770a9d0&#45;8e20&#45;11e8&#45;bb07&#45;b70bbb09a47a:main&#45;&gt;77740530&#45;8e20&#45;11e8&#45;bb07&#45;b70bbb09a47a:CheckBoxNodeEditor</title>
<path fill="none" stroke="#000000" d="M597.9775,-347.2581C637.7685,-350.832 678.5231,-355.3361 716.793,-361 733.0067,-363.3996 736.5851,-366.5615 752.793,-369 772.0229,-371.8931 791.9202,-374.4897 811.9898,-376.8181"/>
<polygon fill="#000000" stroke="#000000" points="811.8431,-380.3239 822.1743,-377.9754 812.6335,-373.3686 811.8431,-380.3239"/>
</g>
<!-- 776d7580&#45;8e20&#45;11e8&#45;bb07&#45;b70bbb09a47a:NamedVector -->
<g id="node22" class="node">
<title>776d7580&#45;8e20&#45;11e8&#45;bb07&#45;b70bbb09a47a:NamedVector</title>
<polygon fill="none" stroke="#000000" points="1371.9181,-306 807.3007,-306 807.3007,-270 1371.9181,-270 1371.9181,-306"/>
<text text-anchor="middle" x="1089.6094" y="-280.8" font-family="Times,serif" font-size="24.00" fill="#000000">776d7580&#45;8e20&#45;11e8&#45;bb07&#45;b70bbb09a47a:NamedVector</text>
</g>
<!-- 7770a9d0&#45;8e20&#45;11e8&#45;bb07&#45;b70bbb09a47a:main&#45;&gt;776d7580&#45;8e20&#45;11e8&#45;bb07&#45;b70bbb09a47a:NamedVector -->
<g id="edge18" class="edge">
<title>7770a9d0&#45;8e20&#45;11e8&#45;bb07&#45;b70bbb09a47a:main&#45;&gt;776d7580&#45;8e20&#45;11e8&#45;bb07&#45;b70bbb09a47a:NamedVector</title>
<path fill="none" stroke="#000000" d="M598.076,-318.922C661.6518,-314.9225 731.0147,-310.5589 797.0615,-306.4039"/>
<polygon fill="#000000" stroke="#000000" points="797.445,-309.8868 807.2055,-305.7658 797.0055,-302.9006 797.445,-309.8868"/>
</g>
<!-- 77740530&#45;8e20&#45;11e8&#45;bb07&#45;b70bbb09a47a:getCellEditorValue -->
<g id="node23" class="node">
<title>77740530&#45;8e20&#45;11e8&#45;bb07&#45;b70bbb09a47a:getCellEditorValue</title>
<polygon fill="none" stroke="#000000" points="666.713,-668 50.08,-668 50.08,-632 666.713,-632 666.713,-668"/>
<text text-anchor="middle" x="358.3965" y="-642.8" font-family="Times,serif" font-size="24.00" fill="#000000">77740530&#45;8e20&#45;11e8&#45;bb07&#45;b70bbb09a47a:getCellEditorValue</text>
</g>
<!-- 776beee0&#45;8e20&#45;11e8&#45;bb07&#45;b70bbb09a47a:CheckBoxNode -->
<g id="node24" class="node">
<title>776beee0&#45;8e20&#45;11e8&#45;bb07&#45;b70bbb09a47a:CheckBoxNode</title>
<polygon fill="none" stroke="#000000" points="1380.2384,-668 798.9804,-668 798.9804,-632 1380.2384,-632 1380.2384,-668"/>
<text text-anchor="middle" x="1089.6094" y="-642.8" font-family="Times,serif" font-size="24.00" fill="#000000">776beee0&#45;8e20&#45;11e8&#45;bb07&#45;b70bbb09a47a:CheckBoxNode</text>
</g>
<!-- 77740530&#45;8e20&#45;11e8&#45;bb07&#45;b70bbb09a47a:getCellEditorValue&#45;&gt;776beee0&#45;8e20&#45;11e8&#45;bb07&#45;b70bbb09a47a:CheckBoxNode -->
<g id="edge21" class="edge">
<title>77740530&#45;8e20&#45;11e8&#45;bb07&#45;b70bbb09a47a:getCellEditorValue&#45;&gt;776beee0&#45;8e20&#45;11e8&#45;bb07&#45;b70bbb09a47a:CheckBoxNode</title>
<path fill="none" stroke="#000000" d="M666.6421,-650C707.0173,-650 748.3495,-650 788.6028,-650"/>
<polygon fill="#000000" stroke="#000000" points="788.8122,-653.5001 798.8122,-650 788.8122,-646.5001 788.8122,-653.5001"/>
</g>
<!-- 77740530&#45;8e20&#45;11e8&#45;bb07&#45;b70bbb09a47a:getTreeCellEditorComponent -->
<g id="node25" class="node">
<title>77740530&#45;8e20&#45;11e8&#45;bb07&#45;b70bbb09a47a:getTreeCellEditorComponent</title>
<polygon fill="none" stroke="#000000" points="716.6895,-722 .1035,-722 .1035,-686 716.6895,-686 716.6895,-722"/>
<text text-anchor="middle" x="358.3965" y="-696.8" font-family="Times,serif" font-size="24.00" fill="#000000">77740530&#45;8e20&#45;11e8&#45;bb07&#45;b70bbb09a47a:getTreeCellEditorComponent</text>
</g>
<!-- 77740530&#45;8e20&#45;11e8&#45;bb07&#45;b70bbb09a47a: -->
<g id="node26" class="node">
<title>77740530&#45;8e20&#45;11e8&#45;bb07&#45;b70bbb09a47a:</title>
<polygon fill="none" stroke="#000000" points="1305.9767,-722 873.242,-722 873.242,-686 1305.9767,-686 1305.9767,-722"/>
<text text-anchor="middle" x="1089.6094" y="-696.8" font-family="Times,serif" font-size="24.00" fill="#000000">77740530&#45;8e20&#45;11e8&#45;bb07&#45;b70bbb09a47a:</text>
</g>
<!-- 77740530&#45;8e20&#45;11e8&#45;bb07&#45;b70bbb09a47a:getTreeCellEditorComponent&#45;&gt;77740530&#45;8e20&#45;11e8&#45;bb07&#45;b70bbb09a47a: -->
<g id="edge22" class="edge">
<title>77740530&#45;8e20&#45;11e8&#45;bb07&#45;b70bbb09a47a:getTreeCellEditorComponent&#45;&gt;77740530&#45;8e20&#45;11e8&#45;bb07&#45;b70bbb09a47a:</title>
<path fill="none" stroke="#000000" d="M716.7733,-704C766.643,-704 816.6921,-704 863.2073,-704"/>
<polygon fill="#000000" stroke="#000000" points="863.388,-707.5001 873.3879,-704 863.3879,-700.5001 863.388,-707.5001"/>
</g>
</g>
</svg>
