<?xml version="1.0" encoding="UTF-8" standalone="no"?>
<!DOCTYPE svg PUBLIC "-//W3C//DTD SVG 1.1//EN"
 "http://www.w3.org/Graphics/SVG/1.1/DTD/svg11.dtd">
<!-- Generated by graphviz version 2.40.1 (20161225.0304)
 -->
<!-- Title: g Pages: 1 -->
<svg width="986pt" height="800pt"
 viewBox="0.00 0.00 985.75 800.00" xmlns="http://www.w3.org/2000/svg" xmlns:xlink="http://www.w3.org/1999/xlink">
<g id="graph0" class="graph" transform="scale(1 1) rotate(0) translate(4 796)">
<title>g</title>
<polygon fill="#ffffff" stroke="transparent" points="-4,4 -4,-796 981.75,-796 981.75,4 -4,4"/>
<!-- PopUpMenu:PopUpMenu:tree -->
<g id="node1" class="node">
<title>PopUpMenu:PopUpMenu:tree</title>
<polygon fill="none" stroke="#000000" points="483.5588,-90 173.2693,-90 173.2693,-54 483.5588,-54 483.5588,-90"/>
<text text-anchor="middle" x="328.4141" y="-64.8" font-family="Times,serif" font-size="24.00" fill="#000000">PopUpMenu:PopUpMenu:tree</text>
</g>
<!-- RepositoryTree -->
<g id="node2" class="node">
<title>RepositoryTree</title>
<polygon fill="none" stroke="#000000" points="917.7428,-63 752.8353,-63 752.8353,-27 917.7428,-27 917.7428,-63"/>
<text text-anchor="middle" x="835.2891" y="-37.8" font-family="Times,serif" font-size="24.00" fill="#000000">RepositoryTree</text>
</g>
<!-- PopUpMenu:PopUpMenu:tree&#45;&gt;RepositoryTree -->
<g id="edge1" class="edge">
<title>PopUpMenu:PopUpMenu:tree&#45;&gt;RepositoryTree</title>
<path fill="none" stroke="#000000" d="M483.5926,-63.734C568.3826,-59.2175 670.534,-53.7761 742.8453,-49.9243"/>
<polygon fill="#000000" stroke="#000000" points="743.0462,-53.4186 752.8458,-49.3916 742.6738,-46.4285 743.0462,-53.4186"/>
</g>
<!-- RepositoryTreePanel:createAndShowGUI:newContentPane -->
<g id="node3" class="node">
<title>RepositoryTreePanel:createAndShowGUI:newContentPane</title>
<polygon fill="none" stroke="#000000" points="623.0938,-144 33.7343,-144 33.7343,-108 623.0938,-108 623.0938,-144"/>
<text text-anchor="middle" x="328.4141" y="-118.8" font-family="Times,serif" font-size="24.00" fill="#000000">RepositoryTreePanel:createAndShowGUI:newContentPane</text>
</g>
<!-- RepositoryTreePanel -->
<g id="node4" class="node">
<title>RepositoryTreePanel</title>
<polygon fill="none" stroke="#000000" points="944.0626,-144 726.5155,-144 726.5155,-108 944.0626,-108 944.0626,-144"/>
<text text-anchor="middle" x="835.2891" y="-118.8" font-family="Times,serif" font-size="24.00" fill="#000000">RepositoryTreePanel</text>
</g>
<!-- RepositoryTreePanel:createAndShowGUI:newContentPane&#45;&gt;RepositoryTreePanel -->
<g id="edge2" class="edge">
<title>RepositoryTreePanel:createAndShowGUI:newContentPane&#45;&gt;RepositoryTreePanel</title>
<path fill="none" stroke="#000000" d="M623.2653,-126C655.8523,-126 687.5003,-126 715.9752,-126"/>
<polygon fill="#000000" stroke="#000000" points="716.3182,-129.5001 726.3182,-126 716.3182,-122.5001 716.3182,-129.5001"/>
</g>
<!-- RootPopupMenu:RootPopupMenu:tree -->
<g id="node5" class="node">
<title>RootPopupMenu:RootPopupMenu:tree</title>
<polygon fill="none" stroke="#000000" points="525.2462,-36 131.5819,-36 131.5819,0 525.2462,0 525.2462,-36"/>
<text text-anchor="middle" x="328.4141" y="-10.8" font-family="Times,serif" font-size="24.00" fill="#000000">RootPopupMenu:RootPopupMenu:tree</text>
</g>
<!-- RootPopupMenu:RootPopupMenu:tree&#45;&gt;RepositoryTree -->
<g id="edge3" class="edge">
<title>RootPopupMenu:RootPopupMenu:tree&#45;&gt;RepositoryTree</title>
<path fill="none" stroke="#000000" d="M525.1107,-28.4775C599.9515,-32.4641 681.751,-36.8214 742.549,-40.06"/>
<polygon fill="#000000" stroke="#000000" points="742.7124,-43.5735 752.8845,-40.6105 743.0848,-36.5834 742.7124,-43.5735"/>
</g>
<!-- RepositoryTree:RepositoryTree:renderer -->
<g id="node6" class="node">
<title>RepositoryTree:RepositoryTree:renderer</title>
<polygon fill="none" stroke="#000000" points="531.5899,-630 125.2382,-630 125.2382,-594 531.5899,-594 531.5899,-630"/>
<text text-anchor="middle" x="328.4141" y="-604.8" font-family="Times,serif" font-size="24.00" fill="#000000">RepositoryTree:RepositoryTree:renderer</text>
</g>
<!-- CheckBoxNodeRenderer -->
<g id="node7" class="node">
<title>CheckBoxNodeRenderer</title>
<polygon fill="none" stroke="#000000" points="964.0431,-576 706.535,-576 706.535,-540 964.0431,-540 964.0431,-576"/>
<text text-anchor="middle" x="835.2891" y="-550.8" font-family="Times,serif" font-size="24.00" fill="#000000">CheckBoxNodeRenderer</text>
</g>
<!-- RepositoryTree:RepositoryTree:renderer&#45;&gt;CheckBoxNodeRenderer -->
<g id="edge4" class="edge">
<title>RepositoryTree:RepositoryTree:renderer&#45;&gt;CheckBoxNodeRenderer</title>
<path fill="none" stroke="#000000" d="M531.848,-597.4496C573.2559,-593.8768 616.4834,-589.7049 656.8281,-585 675.3812,-582.8364 694.9701,-580.2165 714.1065,-577.4701"/>
<polygon fill="#000000" stroke="#000000" points="714.6712,-580.9249 724.0644,-576.0241 713.6652,-573.9975 714.6712,-580.9249"/>
</g>
<!-- RepositoryTree:saveRepo:repo -->
<g id="node8" class="node">
<title>RepositoryTree:saveRepo:repo</title>
<polygon fill="none" stroke="#000000" points="485.1525,-468 171.6757,-468 171.6757,-432 485.1525,-432 485.1525,-468"/>
<text text-anchor="middle" x="328.4141" y="-442.8" font-family="Times,serif" font-size="24.00" fill="#000000">RepositoryTree:saveRepo:repo</text>
</g>
<!-- CheckBoxNode -->
<g id="node9" class="node">
<title>CheckBoxNode</title>
<polygon fill="none" stroke="#000000" points="920.094,-360 750.4841,-360 750.4841,-324 920.094,-324 920.094,-360"/>
<text text-anchor="middle" x="835.2891" y="-334.8" font-family="Times,serif" font-size="24.00" fill="#000000">CheckBoxNode</text>
</g>
<!-- RepositoryTree:saveRepo:repo&#45;&gt;CheckBoxNode -->
<g id="edge5" class="edge">
<title>RepositoryTree:saveRepo:repo&#45;&gt;CheckBoxNode</title>
<path fill="none" stroke="#000000" d="M485.2013,-448.0787C540.164,-444.5339 601.871,-437.2703 656.8281,-423 706.7096,-410.0476 760.0376,-384.0671 795.2722,-365.009"/>
<polygon fill="#000000" stroke="#000000" points="797.1808,-367.9542 804.2692,-360.0799 793.8175,-361.8152 797.1808,-367.9542"/>
</g>
<!-- RepositoryTree:saveRepoTo:repo -->
<g id="node10" class="node">
<title>RepositoryTree:saveRepoTo:repo</title>
<polygon fill="none" stroke="#000000" points="497.6368,-414 159.1913,-414 159.1913,-378 497.6368,-378 497.6368,-414"/>
<text text-anchor="middle" x="328.4141" y="-388.8" font-family="Times,serif" font-size="24.00" fill="#000000">RepositoryTree:saveRepoTo:repo</text>
</g>
<!-- RepositoryTree:saveRepoTo:repo&#45;&gt;CheckBoxNode -->
<g id="edge6" class="edge">
<title>RepositoryTree:saveRepoTo:repo&#45;&gt;CheckBoxNode</title>
<path fill="none" stroke="#000000" d="M497.8164,-384.2905C548.9837,-380.1566 605.2607,-375.0136 656.8281,-369 684.0128,-365.8298 713.4212,-361.68 740.3716,-357.5879"/>
<polygon fill="#000000" stroke="#000000" points="741.2162,-360.9994 750.5704,-356.0246 740.1556,-354.0802 741.2162,-360.9994"/>
</g>
<!-- RepositoryTree:getPaths:node -->
<g id="node11" class="node">
<title>RepositoryTree:getPaths:node</title>
<polygon fill="none" stroke="#000000" points="481.1837,-360 175.6444,-360 175.6444,-324 481.1837,-324 481.1837,-360"/>
<text text-anchor="middle" x="328.4141" y="-334.8" font-family="Times,serif" font-size="24.00" fill="#000000">RepositoryTree:getPaths:node</text>
</g>
<!-- RepositoryTree:getPaths:node&#45;&gt;CheckBoxNode -->
<g id="edge7" class="edge">
<title>RepositoryTree:getPaths:node&#45;&gt;CheckBoxNode</title>
<path fill="none" stroke="#000000" d="M481.5246,-342C565.7243,-342 667.5423,-342 740.2852,-342"/>
<polygon fill="#000000" stroke="#000000" points="740.3517,-345.5001 750.3517,-342 740.3517,-338.5001 740.3517,-345.5001"/>
</g>
<!-- RepositoryTree:checkUncheckNode:node -->
<g id="node12" class="node">
<title>RepositoryTree:checkUncheckNode:node</title>
<polygon fill="none" stroke="#000000" points="537.0861,-306 119.7421,-306 119.7421,-270 537.0861,-270 537.0861,-306"/>
<text text-anchor="middle" x="328.4141" y="-280.8" font-family="Times,serif" font-size="24.00" fill="#000000">RepositoryTree:checkUncheckNode:node</text>
</g>
<!-- RepositoryTree:checkUncheckNode:node&#45;&gt;CheckBoxNode -->
<g id="edge8" class="edge">
<title>RepositoryTree:checkUncheckNode:node&#45;&gt;CheckBoxNode</title>
<path fill="none" stroke="#000000" d="M537.1062,-303.0065C576.9037,-306.4767 618.1881,-310.4939 656.8281,-315 684.0128,-318.1702 713.4212,-322.32 740.3716,-326.4121"/>
<polygon fill="#000000" stroke="#000000" points="740.1556,-329.9198 750.5704,-327.9754 741.2162,-323.0006 740.1556,-329.9198"/>
</g>
<!-- RepositoryTree:checkUncheckSubtree:node -->
<g id="node13" class="node">
<title>RepositoryTree:checkUncheckSubtree:node</title>
<polygon fill="none" stroke="#000000" points="547.9141,-252 108.9141,-252 108.9141,-216 547.9141,-216 547.9141,-252"/>
<text text-anchor="middle" x="328.4141" y="-226.8" font-family="Times,serif" font-size="24.00" fill="#000000">RepositoryTree:checkUncheckSubtree:node</text>
</g>
<!-- RepositoryTree:checkUncheckSubtree:node&#45;&gt;CheckBoxNode -->
<g id="edge9" class="edge">
<title>RepositoryTree:checkUncheckSubtree:node&#45;&gt;CheckBoxNode</title>
<path fill="none" stroke="#000000" d="M548.3446,-241.5555C584.9359,-245.8058 622.2204,-252.0136 656.8281,-261 706.7096,-273.9524 760.0376,-299.9329 795.2722,-318.991"/>
<polygon fill="#000000" stroke="#000000" points="793.8175,-322.1848 804.2692,-323.9201 797.1808,-316.0458 793.8175,-322.1848"/>
</g>
<!-- FileList:FileList:newContentPane -->
<g id="node14" class="node">
<title>FileList:FileList:newContentPane</title>
<polygon fill="none" stroke="#000000" points="499.2267,-738 157.6014,-738 157.6014,-702 499.2267,-702 499.2267,-738"/>
<text text-anchor="middle" x="328.4141" y="-712.8" font-family="Times,serif" font-size="24.00" fill="#000000">FileList:FileList:newContentPane</text>
</g>
<!-- TableFilterDemo -->
<g id="node15" class="node">
<title>TableFilterDemo</title>
<polygon fill="none" stroke="#000000" points="924.895,-711 745.6832,-711 745.6832,-675 924.895,-675 924.895,-711"/>
<text text-anchor="middle" x="835.2891" y="-685.8" font-family="Times,serif" font-size="24.00" fill="#000000">TableFilterDemo</text>
</g>
<!-- FileList:FileList:newContentPane&#45;&gt;TableFilterDemo -->
<g id="edge10" class="edge">
<title>FileList:FileList:newContentPane&#45;&gt;TableFilterDemo</title>
<path fill="none" stroke="#000000" d="M499.3122,-710.8967C577.7697,-706.7174 668.0744,-701.9071 735.2893,-698.3267"/>
<polygon fill="#000000" stroke="#000000" points="735.6537,-701.8124 745.4534,-697.7853 735.2813,-694.8223 735.6537,-701.8124"/>
</g>
<!-- FileTree:FileTree:renderer -->
<g id="node16" class="node">
<title>FileTree:FileTree:renderer</title>
<polygon fill="none" stroke="#000000" points="463.6055,-576 193.2226,-576 193.2226,-540 463.6055,-540 463.6055,-576"/>
<text text-anchor="middle" x="328.4141" y="-550.8" font-family="Times,serif" font-size="24.00" fill="#000000">FileTree:FileTree:renderer</text>
</g>
<!-- FileTree:FileTree:renderer&#45;&gt;CheckBoxNodeRenderer -->
<g id="edge11" class="edge">
<title>FileTree:FileTree:renderer&#45;&gt;CheckBoxNodeRenderer</title>
<path fill="none" stroke="#000000" d="M463.5814,-558C535.5661,-558 623.9602,-558 696.4862,-558"/>
<polygon fill="#000000" stroke="#000000" points="696.6113,-561.5001 706.6113,-558 696.6112,-554.5001 696.6113,-561.5001"/>
</g>
<!-- SimpleTableSelectionDemo:createAndShowGUI:newContentPane -->
<g id="node17" class="node">
<title>SimpleTableSelectionDemo:createAndShowGUI:newContentPane</title>
<polygon fill="none" stroke="#000000" points="656.7422,-792 .0859,-792 .0859,-756 656.7422,-756 656.7422,-792"/>
<text text-anchor="middle" x="328.4141" y="-766.8" font-family="Times,serif" font-size="24.00" fill="#000000">SimpleTableSelectionDemo:createAndShowGUI:newContentPane</text>
</g>
<!-- SimpleTableSelectionDemo -->
<g id="node18" class="node">
<title>SimpleTableSelectionDemo</title>
<polygon fill="none" stroke="#000000" points="977.7109,-792 692.8672,-792 692.8672,-756 977.7109,-756 977.7109,-792"/>
<text text-anchor="middle" x="835.2891" y="-766.8" font-family="Times,serif" font-size="24.00" fill="#000000">SimpleTableSelectionDemo</text>
</g>
<!-- SimpleTableSelectionDemo:createAndShowGUI:newContentPane&#45;&gt;SimpleTableSelectionDemo -->
<g id="edge12" class="edge">
<title>SimpleTableSelectionDemo:createAndShowGUI:newContentPane&#45;&gt;SimpleTableSelectionDemo</title>
<path fill="none" stroke="#000000" d="M656.9403,-774C665.6536,-774 674.2367,-774 682.6431,-774"/>
<polygon fill="#000000" stroke="#000000" points="682.8063,-777.5001 692.8063,-774 682.8062,-770.5001 682.8063,-777.5001"/>
</g>
<!-- TableFilterDemo:createAndShowGUI:newContentPane -->
<g id="node19" class="node">
<title>TableFilterDemo:createAndShowGUI:newContentPane</title>
<polygon fill="none" stroke="#000000" points="603.926,-684 52.9021,-684 52.9021,-648 603.926,-648 603.926,-684"/>
<text text-anchor="middle" x="328.4141" y="-658.8" font-family="Times,serif" font-size="24.00" fill="#000000">TableFilterDemo:createAndShowGUI:newContentPane</text>
</g>
<!-- TableFilterDemo:createAndShowGUI:newContentPane&#45;&gt;TableFilterDemo -->
<g id="edge13" class="edge">
<title>TableFilterDemo:createAndShowGUI:newContentPane&#45;&gt;TableFilterDemo</title>
<path fill="none" stroke="#000000" d="M604.1009,-680.6852C651.1001,-683.1887 697.0709,-685.6375 735.4809,-687.6835"/>
<polygon fill="#000000" stroke="#000000" points="735.4202,-691.1851 745.5922,-688.2221 735.7926,-684.195 735.4202,-691.1851"/>
</g>
<!-- CheckBoxNodeTreeSample:main:accessibilityOptions -->
<g id="node20" class="node">
<title>CheckBoxNodeTreeSample:main:accessibilityOptions</title>
<polygon fill="none" stroke="#000000" points="598.7931,-522 58.035,-522 58.035,-486 598.7931,-486 598.7931,-522"/>
<text text-anchor="middle" x="328.4141" y="-496.8" font-family="Times,serif" font-size="24.00" fill="#000000">CheckBoxNodeTreeSample:main:accessibilityOptions</text>
</g>
<!-- CheckBoxNodeTreeSample:main:accessibilityOptions&#45;&gt;CheckBoxNodeRenderer -->
<g id="edge15" class="edge">
<title>CheckBoxNodeTreeSample:main:accessibilityOptions&#45;&gt;CheckBoxNodeRenderer</title>
<path fill="none" stroke="#000000" d="M570.2795,-522.0006C599.4698,-524.7293 628.8425,-527.7364 656.8281,-531 675.3812,-533.1636 694.9701,-535.7835 714.1065,-538.5299"/>
<polygon fill="#000000" stroke="#000000" points="713.6652,-542.0025 724.0644,-539.9759 714.6712,-535.0751 713.6652,-542.0025"/>
</g>
<!-- CheckBoxNodeTreeSample:main:accessibilityOptions&#45;&gt;CheckBoxNode -->
<g id="edge14" class="edge">
<title>CheckBoxNodeTreeSample:main:accessibilityOptions&#45;&gt;CheckBoxNode</title>
<path fill="none" stroke="#000000" d="M598.7012,-494.2515C618.6755,-489.7578 638.2565,-484.093 656.8281,-477 719.6576,-453.0038 779.1234,-399.7245 811.0418,-367.7417"/>
<polygon fill="#000000" stroke="#000000" points="813.6599,-370.071 818.1747,-360.4863 808.6682,-365.1635 813.6599,-370.071"/>
</g>
<!-- CheckBoxNodeEditor:getCellEditorValue:checkBoxNode -->
<g id="node21" class="node">
<title>CheckBoxNodeEditor:getCellEditorValue:checkBoxNode</title>
<polygon fill="none" stroke="#000000" points="615.4416,-198 41.3865,-198 41.3865,-162 615.4416,-162 615.4416,-198"/>
<text text-anchor="middle" x="328.4141" y="-172.8" font-family="Times,serif" font-size="24.00" fill="#000000">CheckBoxNodeEditor:getCellEditorValue:checkBoxNode</text>
</g>
<!-- CheckBoxNodeEditor:getCellEditorValue:checkBoxNode&#45;&gt;CheckBoxNode -->
<g id="edge16" class="edge">
<title>CheckBoxNodeEditor:getCellEditorValue:checkBoxNode&#45;&gt;CheckBoxNode</title>
<path fill="none" stroke="#000000" d="M615.8328,-193.925C629.8615,-197.6208 643.6009,-201.9482 656.8281,-207 719.6576,-230.9962 779.1234,-284.2755 811.0418,-316.2583"/>
<polygon fill="#000000" stroke="#000000" points="808.6682,-318.8365 818.1747,-323.5137 813.6599,-313.929 808.6682,-318.8365"/>
</g>
</g>
</svg>
