<?xml version="1.0" encoding="UTF-8" standalone="no"?>
<!DOCTYPE svg PUBLIC "-//W3C//DTD SVG 1.1//EN"
 "http://www.w3.org/Graphics/SVG/1.1/DTD/svg11.dtd">
<!-- Generated by graphviz version 2.40.1 (20161225.0304)
 -->
<!-- Title: g Pages: 1 -->
<svg width="1241pt" height="638pt"
 viewBox="0.00 0.00 1240.63 638.00" xmlns="http://www.w3.org/2000/svg" xmlns:xlink="http://www.w3.org/1999/xlink">
<g id="graph0" class="graph" transform="scale(1 1) rotate(0) translate(4 634)">
<title>g</title>
<polygon fill="#ffffff" stroke="transparent" points="-4,4 -4,-634 1236.6328,-634 1236.6328,4 -4,4"/>
<!-- 7701e270&#45;8e20&#45;11e8&#45;bb07&#45;b70bbb09a47a:PopUpMenu:tree -->
<g id="node1" class="node">
<title>7701e270&#45;8e20&#45;11e8&#45;bb07&#45;b70bbb09a47a:PopUpMenu:tree</title>
<polygon fill="none" stroke="#000000" points="683.7911,-90 87.1425,-90 87.1425,-54 683.7911,-54 683.7911,-90"/>
<text text-anchor="middle" x="385.4668" y="-64.8" font-family="Times,serif" font-size="24.00" fill="#000000">7701e270&#45;8e20&#45;11e8&#45;bb07&#45;b70bbb09a47a:PopUpMenu:tree</text>
</g>
<!-- 7738a9e0&#45;8e20&#45;11e8&#45;bb07&#45;b70bbb09a47a -->
<g id="node2" class="node">
<title>7738a9e0&#45;8e20&#45;11e8&#45;bb07&#45;b70bbb09a47a</title>
<polygon fill="none" stroke="#000000" points="1231.2871,-63 808.2793,-63 808.2793,-27 1231.2871,-27 1231.2871,-63"/>
<text text-anchor="middle" x="1019.7832" y="-37.8" font-family="Times,serif" font-size="24.00" fill="#000000">7738a9e0&#45;8e20&#45;11e8&#45;bb07&#45;b70bbb09a47a</text>
</g>
<!-- 7701e270&#45;8e20&#45;11e8&#45;bb07&#45;b70bbb09a47a:PopUpMenu:tree&#45;&gt;7738a9e0&#45;8e20&#45;11e8&#45;bb07&#45;b70bbb09a47a -->
<g id="edge1" class="edge">
<title>7701e270&#45;8e20&#45;11e8&#45;bb07&#45;b70bbb09a47a:PopUpMenu:tree&#45;&gt;7738a9e0&#45;8e20&#45;11e8&#45;bb07&#45;b70bbb09a47a</title>
<path fill="none" stroke="#000000" d="M684.051,-59.2906C722.3811,-57.6591 761.0743,-56.0121 797.8809,-54.4454"/>
<polygon fill="#000000" stroke="#000000" points="798.3682,-57.9279 808.2103,-54.0057 798.0705,-50.9342 798.3682,-57.9279"/>
</g>
<!-- 77298eb0&#45;8e20&#45;11e8&#45;bb07&#45;b70bbb09a47a:RootPopupMenu:tree -->
<g id="node3" class="node">
<title>77298eb0&#45;8e20&#45;11e8&#45;bb07&#45;b70bbb09a47a:RootPopupMenu:tree</title>
<polygon fill="none" stroke="#000000" points="704.1349,-36 66.7987,-36 66.7987,0 704.1349,0 704.1349,-36"/>
<text text-anchor="middle" x="385.4668" y="-10.8" font-family="Times,serif" font-size="24.00" fill="#000000">77298eb0&#45;8e20&#45;11e8&#45;bb07&#45;b70bbb09a47a:RootPopupMenu:tree</text>
</g>
<!-- 77298eb0&#45;8e20&#45;11e8&#45;bb07&#45;b70bbb09a47a:RootPopupMenu:tree&#45;&gt;7738a9e0&#45;8e20&#45;11e8&#45;bb07&#45;b70bbb09a47a -->
<g id="edge2" class="edge">
<title>77298eb0&#45;8e20&#45;11e8&#45;bb07&#45;b70bbb09a47a:RootPopupMenu:tree&#45;&gt;7738a9e0&#45;8e20&#45;11e8&#45;bb07&#45;b70bbb09a47a</title>
<path fill="none" stroke="#000000" d="M704.4833,-31.5791C736.0815,-32.9241 767.6551,-34.268 797.9495,-35.5575"/>
<polygon fill="#000000" stroke="#000000" points="798.0326,-39.0641 808.1724,-35.9927 798.3303,-32.0705 798.0326,-39.0641"/>
</g>
<!-- 7738a9e0&#45;8e20&#45;11e8&#45;bb07&#45;b70bbb09a47a:RepositoryTree:renderer -->
<g id="node4" class="node">
<title>7738a9e0&#45;8e20&#45;11e8&#45;bb07&#45;b70bbb09a47a:RepositoryTree:renderer</title>
<polygon fill="none" stroke="#000000" points="717.6934,-576 53.2402,-576 53.2402,-540 717.6934,-540 717.6934,-576"/>
<text text-anchor="middle" x="385.4668" y="-550.8" font-family="Times,serif" font-size="24.00" fill="#000000">7738a9e0&#45;8e20&#45;11e8&#45;bb07&#45;b70bbb09a47a:RepositoryTree:renderer</text>
</g>
<!-- 77776090&#45;8e20&#45;11e8&#45;bb07&#45;b70bbb09a47a -->
<g id="node5" class="node">
<title>77776090&#45;8e20&#45;11e8&#45;bb07&#45;b70bbb09a47a</title>
<polygon fill="none" stroke="#000000" points="1232.4825,-522 807.0839,-522 807.0839,-486 1232.4825,-486 1232.4825,-522"/>
<text text-anchor="middle" x="1019.7832" y="-496.8" font-family="Times,serif" font-size="24.00" fill="#000000">77776090&#45;8e20&#45;11e8&#45;bb07&#45;b70bbb09a47a</text>
</g>
<!-- 7738a9e0&#45;8e20&#45;11e8&#45;bb07&#45;b70bbb09a47a:RepositoryTree:renderer&#45;&gt;77776090&#45;8e20&#45;11e8&#45;bb07&#45;b70bbb09a47a -->
<g id="edge3" class="edge">
<title>7738a9e0&#45;8e20&#45;11e8&#45;bb07&#45;b70bbb09a47a:RepositoryTree:renderer&#45;&gt;77776090&#45;8e20&#45;11e8&#45;bb07&#45;b70bbb09a47a</title>
<path fill="none" stroke="#000000" d="M660.882,-539.9937C697.8949,-537.1978 735.3521,-534.1753 770.9336,-531 797.2442,-528.6521 825.0901,-525.8969 852.259,-523.0603"/>
<polygon fill="#000000" stroke="#000000" points="852.6543,-526.5381 862.2338,-522.0121 851.9227,-519.5764 852.6543,-526.5381"/>
</g>
<!-- 7738a9e0&#45;8e20&#45;11e8&#45;bb07&#45;b70bbb09a47a:saveRepo:repo -->
<g id="node6" class="node">
<title>7738a9e0&#45;8e20&#45;11e8&#45;bb07&#45;b70bbb09a47a:saveRepo:repo</title>
<polygon fill="none" stroke="#000000" points="671.7559,-414 99.1777,-414 99.1777,-378 671.7559,-378 671.7559,-414"/>
<text text-anchor="middle" x="385.4668" y="-388.8" font-family="Times,serif" font-size="24.00" fill="#000000">7738a9e0&#45;8e20&#45;11e8&#45;bb07&#45;b70bbb09a47a:saveRepo:repo</text>
</g>
<!-- 776beee0&#45;8e20&#45;11e8&#45;bb07&#45;b70bbb09a47a -->
<g id="node7" class="node">
<title>776beee0&#45;8e20&#45;11e8&#45;bb07&#45;b70bbb09a47a</title>
<polygon fill="none" stroke="#000000" points="1230.4396,-306 809.1268,-306 809.1268,-270 1230.4396,-270 1230.4396,-306"/>
<text text-anchor="middle" x="1019.7832" y="-280.8" font-family="Times,serif" font-size="24.00" fill="#000000">776beee0&#45;8e20&#45;11e8&#45;bb07&#45;b70bbb09a47a</text>
</g>
<!-- 7738a9e0&#45;8e20&#45;11e8&#45;bb07&#45;b70bbb09a47a:saveRepo:repo&#45;&gt;776beee0&#45;8e20&#45;11e8&#45;bb07&#45;b70bbb09a47a -->
<g id="edge4" class="edge">
<title>7738a9e0&#45;8e20&#45;11e8&#45;bb07&#45;b70bbb09a47a:saveRepo:repo&#45;&gt;776beee0&#45;8e20&#45;11e8&#45;bb07&#45;b70bbb09a47a</title>
<path fill="none" stroke="#000000" d="M671.7241,-383.7964C705.326,-380.0498 738.997,-375.2185 770.9336,-369 839.7099,-355.6084 915.9312,-328.956 965.6682,-309.8798"/>
<polygon fill="#000000" stroke="#000000" points="967.189,-313.0443 975.2525,-306.1718 964.6632,-306.5159 967.189,-313.0443"/>
</g>
<!-- 7738a9e0&#45;8e20&#45;11e8&#45;bb07&#45;b70bbb09a47a:saveRepoTo:repo -->
<g id="node8" class="node">
<title>7738a9e0&#45;8e20&#45;11e8&#45;bb07&#45;b70bbb09a47a:saveRepoTo:repo</title>
<polygon fill="none" stroke="#000000" points="684.2403,-360 86.6933,-360 86.6933,-324 684.2403,-324 684.2403,-360"/>
<text text-anchor="middle" x="385.4668" y="-334.8" font-family="Times,serif" font-size="24.00" fill="#000000">7738a9e0&#45;8e20&#45;11e8&#45;bb07&#45;b70bbb09a47a:saveRepoTo:repo</text>
</g>
<!-- 7738a9e0&#45;8e20&#45;11e8&#45;bb07&#45;b70bbb09a47a:saveRepoTo:repo&#45;&gt;776beee0&#45;8e20&#45;11e8&#45;bb07&#45;b70bbb09a47a -->
<g id="edge5" class="edge">
<title>7738a9e0&#45;8e20&#45;11e8&#45;bb07&#45;b70bbb09a47a:saveRepoTo:repo&#45;&gt;776beee0&#45;8e20&#45;11e8&#45;bb07&#45;b70bbb09a47a</title>
<path fill="none" stroke="#000000" d="M660.882,-323.9937C697.8949,-321.1978 735.3521,-318.1753 770.9336,-315 797.2442,-312.6521 825.0901,-309.8969 852.259,-307.0603"/>
<polygon fill="#000000" stroke="#000000" points="852.6543,-310.5381 862.2338,-306.0121 851.9227,-303.5764 852.6543,-310.5381"/>
</g>
<!-- 7738a9e0&#45;8e20&#45;11e8&#45;bb07&#45;b70bbb09a47a:getPaths:node -->
<g id="node9" class="node">
<title>7738a9e0&#45;8e20&#45;11e8&#45;bb07&#45;b70bbb09a47a:getPaths:node</title>
<polygon fill="none" stroke="#000000" points="667.7872,-306 103.1464,-306 103.1464,-270 667.7872,-270 667.7872,-306"/>
<text text-anchor="middle" x="385.4668" y="-280.8" font-family="Times,serif" font-size="24.00" fill="#000000">7738a9e0&#45;8e20&#45;11e8&#45;bb07&#45;b70bbb09a47a:getPaths:node</text>
</g>
<!-- 7738a9e0&#45;8e20&#45;11e8&#45;bb07&#45;b70bbb09a47a:getPaths:node&#45;&gt;776beee0&#45;8e20&#45;11e8&#45;bb07&#45;b70bbb09a47a -->
<g id="edge6" class="edge">
<title>7738a9e0&#45;8e20&#45;11e8&#45;bb07&#45;b70bbb09a47a:getPaths:node&#45;&gt;776beee0&#45;8e20&#45;11e8&#45;bb07&#45;b70bbb09a47a</title>
<path fill="none" stroke="#000000" d="M667.8433,-288C711.7669,-288 756.5912,-288 798.8916,-288"/>
<polygon fill="#000000" stroke="#000000" points="799.0147,-291.5001 809.0147,-288 799.0147,-284.5001 799.0147,-291.5001"/>
</g>
<!-- 7738a9e0&#45;8e20&#45;11e8&#45;bb07&#45;b70bbb09a47a:checkUncheckNode:node -->
<g id="node10" class="node">
<title>7738a9e0&#45;8e20&#45;11e8&#45;bb07&#45;b70bbb09a47a:checkUncheckNode:node</title>
<polygon fill="none" stroke="#000000" points="723.6895,-252 47.2441,-252 47.2441,-216 723.6895,-216 723.6895,-252"/>
<text text-anchor="middle" x="385.4668" y="-226.8" font-family="Times,serif" font-size="24.00" fill="#000000">7738a9e0&#45;8e20&#45;11e8&#45;bb07&#45;b70bbb09a47a:checkUncheckNode:node</text>
</g>
<!-- 7738a9e0&#45;8e20&#45;11e8&#45;bb07&#45;b70bbb09a47a:checkUncheckNode:node&#45;&gt;776beee0&#45;8e20&#45;11e8&#45;bb07&#45;b70bbb09a47a -->
<g id="edge7" class="edge">
<title>7738a9e0&#45;8e20&#45;11e8&#45;bb07&#45;b70bbb09a47a:checkUncheckNode:node&#45;&gt;776beee0&#45;8e20&#45;11e8&#45;bb07&#45;b70bbb09a47a</title>
<path fill="none" stroke="#000000" d="M660.882,-252.0063C697.8949,-254.8022 735.3521,-257.8247 770.9336,-261 797.2442,-263.3479 825.0901,-266.1031 852.259,-268.9397"/>
<polygon fill="#000000" stroke="#000000" points="851.9227,-272.4236 862.2338,-269.9879 852.6543,-265.4619 851.9227,-272.4236"/>
</g>
<!-- 7738a9e0&#45;8e20&#45;11e8&#45;bb07&#45;b70bbb09a47a:checkUncheckSubtree:node -->
<g id="node11" class="node">
<title>7738a9e0&#45;8e20&#45;11e8&#45;bb07&#45;b70bbb09a47a:checkUncheckSubtree:node</title>
<polygon fill="none" stroke="#000000" points="734.0177,-198 36.9159,-198 36.9159,-162 734.0177,-162 734.0177,-198"/>
<text text-anchor="middle" x="385.4668" y="-172.8" font-family="Times,serif" font-size="24.00" fill="#000000">7738a9e0&#45;8e20&#45;11e8&#45;bb07&#45;b70bbb09a47a:checkUncheckSubtree:node</text>
</g>
<!-- 7738a9e0&#45;8e20&#45;11e8&#45;bb07&#45;b70bbb09a47a:checkUncheckSubtree:node&#45;&gt;776beee0&#45;8e20&#45;11e8&#45;bb07&#45;b70bbb09a47a -->
<g id="edge8" class="edge">
<title>7738a9e0&#45;8e20&#45;11e8&#45;bb07&#45;b70bbb09a47a:checkUncheckSubtree:node&#45;&gt;776beee0&#45;8e20&#45;11e8&#45;bb07&#45;b70bbb09a47a</title>
<path fill="none" stroke="#000000" d="M717.5821,-198.037C735.6855,-200.6468 753.566,-203.6183 770.9336,-207 839.7099,-220.3916 915.9312,-247.044 965.6682,-266.1202"/>
<polygon fill="#000000" stroke="#000000" points="964.6632,-269.4841 975.2525,-269.8282 967.189,-262.9557 964.6632,-269.4841"/>
</g>
<!-- 7745c940&#45;8e20&#45;11e8&#45;bb07&#45;b70bbb09a47a:FileList:newContentPane -->
<g id="node12" class="node">
<title>7745c940&#45;8e20&#45;11e8&#45;bb07&#45;b70bbb09a47a:FileList:newContentPane</title>
<polygon fill="none" stroke="#000000" points="722.959,-630 47.9746,-630 47.9746,-594 722.959,-594 722.959,-630"/>
<text text-anchor="middle" x="385.4668" y="-604.8" font-family="Times,serif" font-size="24.00" fill="#000000">7745c940&#45;8e20&#45;11e8&#45;bb07&#45;b70bbb09a47a:FileList:newContentPane</text>
</g>
<!-- 776add70&#45;8e20&#45;11e8&#45;bb07&#45;b70bbb09a47a -->
<g id="node13" class="node">
<title>776add70&#45;8e20&#45;11e8&#45;bb07&#45;b70bbb09a47a</title>
<polygon fill="none" stroke="#000000" points="1232.1349,-630 807.4315,-630 807.4315,-594 1232.1349,-594 1232.1349,-630"/>
<text text-anchor="middle" x="1019.7832" y="-604.8" font-family="Times,serif" font-size="24.00" fill="#000000">776add70&#45;8e20&#45;11e8&#45;bb07&#45;b70bbb09a47a</text>
</g>
<!-- 7745c940&#45;8e20&#45;11e8&#45;bb07&#45;b70bbb09a47a:FileList:newContentPane&#45;&gt;776add70&#45;8e20&#45;11e8&#45;bb07&#45;b70bbb09a47a -->
<g id="edge9" class="edge">
<title>7745c940&#45;8e20&#45;11e8&#45;bb07&#45;b70bbb09a47a:FileList:newContentPane&#45;&gt;776add70&#45;8e20&#45;11e8&#45;bb07&#45;b70bbb09a47a</title>
<path fill="none" stroke="#000000" d="M723.0543,-612C748.1661,-612 773.1065,-612 797.2422,-612"/>
<polygon fill="#000000" stroke="#000000" points="797.535,-615.5001 807.5349,-612 797.5349,-608.5001 797.535,-615.5001"/>
</g>
<!-- 774b6e90&#45;8e20&#45;11e8&#45;bb07&#45;b70bbb09a47a:FileTree:renderer -->
<g id="node14" class="node">
<title>774b6e90&#45;8e20&#45;11e8&#45;bb07&#45;b70bbb09a47a:FileTree:renderer</title>
<polygon fill="none" stroke="#000000" points="684.5488,-522 86.3848,-522 86.3848,-486 684.5488,-486 684.5488,-522"/>
<text text-anchor="middle" x="385.4668" y="-496.8" font-family="Times,serif" font-size="24.00" fill="#000000">774b6e90&#45;8e20&#45;11e8&#45;bb07&#45;b70bbb09a47a:FileTree:renderer</text>
</g>
<!-- 774b6e90&#45;8e20&#45;11e8&#45;bb07&#45;b70bbb09a47a:FileTree:renderer&#45;&gt;77776090&#45;8e20&#45;11e8&#45;bb07&#45;b70bbb09a47a -->
<g id="edge10" class="edge">
<title>774b6e90&#45;8e20&#45;11e8&#45;bb07&#45;b70bbb09a47a:FileTree:renderer&#45;&gt;77776090&#45;8e20&#45;11e8&#45;bb07&#45;b70bbb09a47a</title>
<path fill="none" stroke="#000000" d="M684.5149,-504C722.225,-504 760.2776,-504 796.531,-504"/>
<polygon fill="#000000" stroke="#000000" points="796.7069,-507.5001 806.7069,-504 796.7068,-500.5001 796.7069,-507.5001"/>
</g>
<!-- 7770a9d0&#45;8e20&#45;11e8&#45;bb07&#45;b70bbb09a47a:main:accessibilityOptions -->
<g id="node15" class="node">
<title>7770a9d0&#45;8e20&#45;11e8&#45;bb07&#45;b70bbb09a47a:main:accessibilityOptions</title>
<polygon fill="none" stroke="#000000" points="725.7794,-468 45.1542,-468 45.1542,-432 725.7794,-432 725.7794,-468"/>
<text text-anchor="middle" x="385.4668" y="-442.8" font-family="Times,serif" font-size="24.00" fill="#000000">7770a9d0&#45;8e20&#45;11e8&#45;bb07&#45;b70bbb09a47a:main:accessibilityOptions</text>
</g>
<!-- 7770a9d0&#45;8e20&#45;11e8&#45;bb07&#45;b70bbb09a47a:main:accessibilityOptions&#45;&gt;77776090&#45;8e20&#45;11e8&#45;bb07&#45;b70bbb09a47a -->
<g id="edge12" class="edge">
<title>7770a9d0&#45;8e20&#45;11e8&#45;bb07&#45;b70bbb09a47a:main:accessibilityOptions&#45;&gt;77776090&#45;8e20&#45;11e8&#45;bb07&#45;b70bbb09a47a</title>
<path fill="none" stroke="#000000" d="M660.882,-468.0063C697.8949,-470.8022 735.3521,-473.8247 770.9336,-477 797.2442,-479.3479 825.0901,-482.1031 852.259,-484.9397"/>
<polygon fill="#000000" stroke="#000000" points="851.9227,-488.4236 862.2338,-485.9879 852.6543,-481.4619 851.9227,-488.4236"/>
</g>
<!-- 7770a9d0&#45;8e20&#45;11e8&#45;bb07&#45;b70bbb09a47a:main:accessibilityOptions&#45;&gt;776beee0&#45;8e20&#45;11e8&#45;bb07&#45;b70bbb09a47a -->
<g id="edge11" class="edge">
<title>7770a9d0&#45;8e20&#45;11e8&#45;bb07&#45;b70bbb09a47a:main:accessibilityOptions&#45;&gt;776beee0&#45;8e20&#45;11e8&#45;bb07&#45;b70bbb09a47a</title>
<path fill="none" stroke="#000000" d="M725.8497,-434.2336C741.1883,-430.9925 756.2809,-427.269 770.9336,-423 854.2775,-398.7182 941.0684,-343.684 986.8802,-311.8879"/>
<polygon fill="#000000" stroke="#000000" points="989.0364,-314.6508 995.2153,-306.0442 985.0179,-308.9191 989.0364,-314.6508"/>
</g>
<!-- 77740530&#45;8e20&#45;11e8&#45;bb07&#45;b70bbb09a47a:getCellEditorValue:checkBoxNode -->
<g id="node16" class="node">
<title>77740530&#45;8e20&#45;11e8&#45;bb07&#45;b70bbb09a47a:getCellEditorValue:checkBoxNode</title>
<polygon fill="none" stroke="#000000" points="770.9004,-144 .0332,-144 .0332,-108 770.9004,-108 770.9004,-144"/>
<text text-anchor="middle" x="385.4668" y="-118.8" font-family="Times,serif" font-size="24.00" fill="#000000">77740530&#45;8e20&#45;11e8&#45;bb07&#45;b70bbb09a47a:getCellEditorValue:checkBoxNode</text>
</g>
<!-- 77740530&#45;8e20&#45;11e8&#45;bb07&#45;b70bbb09a47a:getCellEditorValue:checkBoxNode&#45;&gt;776beee0&#45;8e20&#45;11e8&#45;bb07&#45;b70bbb09a47a -->
<g id="edge13" class="edge">
<title>77740530&#45;8e20&#45;11e8&#45;bb07&#45;b70bbb09a47a:getCellEditorValue:checkBoxNode&#45;&gt;776beee0&#45;8e20&#45;11e8&#45;bb07&#45;b70bbb09a47a</title>
<path fill="none" stroke="#000000" d="M736.1763,-144.031C747.9659,-146.7128 759.5818,-149.6927 770.9336,-153 854.2775,-177.2818 941.0684,-232.316 986.8802,-264.1121"/>
<polygon fill="#000000" stroke="#000000" points="985.0179,-267.0809 995.2153,-269.9558 989.0364,-261.3492 985.0179,-267.0809"/>
</g>
</g>
</svg>
