<?xml version="1.0" encoding="UTF-8" standalone="no"?>
<!DOCTYPE svg PUBLIC "-//W3C//DTD SVG 1.1//EN"
 "http://www.w3.org/Graphics/SVG/1.1/DTD/svg11.dtd">
<!-- Generated by graphviz version 2.40.1 (20161225.0304)
 -->
<!-- Title: g Pages: 1 -->
<svg width="2045pt" height="730pt"
 viewBox="0.00 0.00 2045.21 730.00" xmlns="http://www.w3.org/2000/svg" xmlns:xlink="http://www.w3.org/1999/xlink">
<g id="graph0" class="graph" transform="scale(1 1) rotate(0) translate(4 726)">
<title>g</title>
<polygon fill="#ffffff" stroke="transparent" points="-4,4 -4,-726 2041.2109,-726 2041.2109,4 -4,4"/>
<!-- 7b8aef20&#45;8ef3&#45;11e8&#45;80ef&#45;29bb372a954a:RepoBrowser -->
<g id="node1" class="node">
<title>7b8aef20&#45;8ef3&#45;11e8&#45;80ef&#45;29bb372a954a:RepoBrowser</title>
<polygon fill="none" stroke="#000000" points="625.3145,-171 76.7597,-171 76.7597,-135 625.3145,-135 625.3145,-171"/>
<text text-anchor="middle" x="351.0371" y="-145.8" font-family="Times,serif" font-size="24.00" fill="#000000">7b8aef20&#45;8ef3&#45;11e8&#45;80ef&#45;29bb372a954a:RepoBrowser</text>
</g>
<!-- 7ba30b00&#45;8ef3&#45;11e8&#45;80ef&#45;29bb372a954a:RepositoryTreePanel -->
<g id="node2" class="node">
<title>7ba30b00&#45;8ef3&#45;11e8&#45;80ef&#45;29bb372a954a:RepositoryTreePanel</title>
<polygon fill="none" stroke="#000000" points="1380.7853,-144 756.9256,-144 756.9256,-108 1380.7853,-108 1380.7853,-144"/>
<text text-anchor="middle" x="1068.8555" y="-118.8" font-family="Times,serif" font-size="24.00" fill="#000000">7ba30b00&#45;8ef3&#45;11e8&#45;80ef&#45;29bb372a954a:RepositoryTreePanel</text>
</g>
<!-- 7b8aef20&#45;8ef3&#45;11e8&#45;80ef&#45;29bb372a954a:RepoBrowser&#45;&gt;7ba30b00&#45;8ef3&#45;11e8&#45;80ef&#45;29bb372a954a:RepositoryTreePanel -->
<g id="edge1" class="edge">
<title>7b8aef20&#45;8ef3&#45;11e8&#45;80ef&#45;29bb372a954a:RepoBrowser&#45;&gt;7ba30b00&#45;8ef3&#45;11e8&#45;80ef&#45;29bb372a954a:RepositoryTreePanel</title>
<path fill="none" stroke="#000000" d="M625.2297,-142.6865C665.0034,-141.1905 706.2493,-139.6391 746.858,-138.1116"/>
<polygon fill="#000000" stroke="#000000" points="747.0274,-141.6078 756.8888,-137.7343 746.7642,-134.6128 747.0274,-141.6078"/>
</g>
<!-- 7ba30b00&#45;8ef3&#45;11e8&#45;80ef&#45;29bb372a954a:getPreferredSize -->
<g id="node3" class="node">
<title>7ba30b00&#45;8ef3&#45;11e8&#45;80ef&#45;29bb372a954a:getPreferredSize</title>
<polygon fill="none" stroke="#000000" points="1359.4259,-198 778.285,-198 778.285,-162 1359.4259,-162 1359.4259,-198"/>
<text text-anchor="middle" x="1068.8555" y="-172.8" font-family="Times,serif" font-size="24.00" fill="#000000">7ba30b00&#45;8ef3&#45;11e8&#45;80ef&#45;29bb372a954a:getPreferredSize</text>
</g>
<!-- 7b8aef20&#45;8ef3&#45;11e8&#45;80ef&#45;29bb372a954a:RepoBrowser&#45;&gt;7ba30b00&#45;8ef3&#45;11e8&#45;80ef&#45;29bb372a954a:getPreferredSize -->
<g id="edge2" class="edge">
<title>7b8aef20&#45;8ef3&#45;11e8&#45;80ef&#45;29bb372a954a:RepoBrowser&#45;&gt;7ba30b00&#45;8ef3&#45;11e8&#45;80ef&#45;29bb372a954a:getPreferredSize</title>
<path fill="none" stroke="#000000" d="M625.2297,-163.3135C671.9843,-165.0721 720.7731,-166.9072 768.1701,-168.69"/>
<polygon fill="#000000" stroke="#000000" points="768.1372,-172.1912 778.2617,-169.0696 768.4004,-165.1961 768.1372,-172.1912"/>
</g>
<!-- 7c0ec520&#45;8ef3&#45;11e8&#45;80ef&#45;29bb372a954a:makeCompactGrid -->
<g id="node4" class="node">
<title>7c0ec520&#45;8ef3&#45;11e8&#45;80ef&#45;29bb372a954a:makeCompactGrid</title>
<polygon fill="none" stroke="#000000" points="2036.9982,-90 1435.8495,-90 1435.8495,-54 2036.9982,-54 2036.9982,-90"/>
<text text-anchor="middle" x="1736.4238" y="-64.8" font-family="Times,serif" font-size="24.00" fill="#000000">7c0ec520&#45;8ef3&#45;11e8&#45;80ef&#45;29bb372a954a:makeCompactGrid</text>
</g>
<!-- 7ba30b00&#45;8ef3&#45;11e8&#45;80ef&#45;29bb372a954a:RepositoryTreePanel&#45;&gt;7c0ec520&#45;8ef3&#45;11e8&#45;80ef&#45;29bb372a954a:makeCompactGrid -->
<g id="edge3" class="edge">
<title>7ba30b00&#45;8ef3&#45;11e8&#45;80ef&#45;29bb372a954a:RepositoryTreePanel&#45;&gt;7c0ec520&#45;8ef3&#45;11e8&#45;80ef&#45;29bb372a954a:makeCompactGrid</title>
<path fill="none" stroke="#000000" d="M1291.61,-107.9813C1359.7321,-102.4708 1434.8175,-96.3971 1503.591,-90.834"/>
<polygon fill="#000000" stroke="#000000" points="1504.0054,-94.312 1513.6906,-90.017 1503.4409,-87.3348 1504.0054,-94.312"/>
</g>
<!-- 7bc11a50&#45;8ef3&#45;11e8&#45;80ef&#45;29bb372a954a:getPreferredSize -->
<g id="node5" class="node">
<title>7bc11a50&#45;8ef3&#45;11e8&#45;80ef&#45;29bb372a954a:getPreferredSize</title>
<polygon fill="none" stroke="#000000" points="2026.2677,-198 1446.58,-198 1446.58,-162 2026.2677,-162 2026.2677,-198"/>
<text text-anchor="middle" x="1736.4238" y="-172.8" font-family="Times,serif" font-size="24.00" fill="#000000">7bc11a50&#45;8ef3&#45;11e8&#45;80ef&#45;29bb372a954a:getPreferredSize</text>
</g>
<!-- 7ba30b00&#45;8ef3&#45;11e8&#45;80ef&#45;29bb372a954a:getPreferredSize&#45;&gt;7bc11a50&#45;8ef3&#45;11e8&#45;80ef&#45;29bb372a954a:getPreferredSize -->
<g id="edge4" class="edge">
<title>7ba30b00&#45;8ef3&#45;11e8&#45;80ef&#45;29bb372a954a:getPreferredSize&#45;&gt;7bc11a50&#45;8ef3&#45;11e8&#45;80ef&#45;29bb372a954a:getPreferredSize</title>
<path fill="none" stroke="#000000" d="M1359.7187,-180C1385.1538,-180 1410.927,-180 1436.4343,-180"/>
<polygon fill="#000000" stroke="#000000" points="1436.5766,-183.5001 1446.5766,-180 1436.5765,-176.5001 1436.5766,-183.5001"/>
</g>
<!-- 7ba30b00&#45;8ef3&#45;11e8&#45;80ef&#45;29bb372a954a:dumpSelectedPaths -->
<g id="node6" class="node">
<title>7ba30b00&#45;8ef3&#45;11e8&#45;80ef&#45;29bb372a954a:dumpSelectedPaths</title>
<polygon fill="none" stroke="#000000" points="655.6622,-252 46.412,-252 46.412,-216 655.6622,-216 655.6622,-252"/>
<text text-anchor="middle" x="351.0371" y="-226.8" font-family="Times,serif" font-size="24.00" fill="#000000">7ba30b00&#45;8ef3&#45;11e8&#45;80ef&#45;29bb372a954a:dumpSelectedPaths</text>
</g>
<!-- 7bc11a50&#45;8ef3&#45;11e8&#45;80ef&#45;29bb372a954a:dumpSelectedPaths -->
<g id="node7" class="node">
<title>7bc11a50&#45;8ef3&#45;11e8&#45;80ef&#45;29bb372a954a:dumpSelectedPaths</title>
<polygon fill="none" stroke="#000000" points="1372.754,-252 764.9569,-252 764.9569,-216 1372.754,-216 1372.754,-252"/>
<text text-anchor="middle" x="1068.8555" y="-226.8" font-family="Times,serif" font-size="24.00" fill="#000000">7bc11a50&#45;8ef3&#45;11e8&#45;80ef&#45;29bb372a954a:dumpSelectedPaths</text>
</g>
<!-- 7ba30b00&#45;8ef3&#45;11e8&#45;80ef&#45;29bb372a954a:dumpSelectedPaths&#45;&gt;7bc11a50&#45;8ef3&#45;11e8&#45;80ef&#45;29bb372a954a:dumpSelectedPaths -->
<g id="edge5" class="edge">
<title>7ba30b00&#45;8ef3&#45;11e8&#45;80ef&#45;29bb372a954a:dumpSelectedPaths&#45;&gt;7bc11a50&#45;8ef3&#45;11e8&#45;80ef&#45;29bb372a954a:dumpSelectedPaths</title>
<path fill="none" stroke="#000000" d="M655.7169,-234C688.5165,-234 721.9346,-234 754.8413,-234"/>
<polygon fill="#000000" stroke="#000000" points="755.0361,-237.5001 765.036,-234 755.036,-230.5001 755.0361,-237.5001"/>
</g>
<!-- 7ba9e8d0&#45;8ef3&#45;11e8&#45;80ef&#45;29bb372a954a:RootPopupMenu -->
<g id="node8" class="node">
<title>7ba9e8d0&#45;8ef3&#45;11e8&#45;80ef&#45;29bb372a954a:RootPopupMenu</title>
<polygon fill="none" stroke="#000000" points="1361.1798,-506 776.5312,-506 776.5312,-470 1361.1798,-470 1361.1798,-506"/>
<text text-anchor="middle" x="1068.8555" y="-480.8" font-family="Times,serif" font-size="24.00" fill="#000000">7ba9e8d0&#45;8ef3&#45;11e8&#45;80ef&#45;29bb372a954a:RootPopupMenu</text>
</g>
<!-- 7b708950&#45;8ef3&#45;11e8&#45;80ef&#45;29bb372a954a:PopUpMenu -->
<g id="node9" class="node">
<title>7b708950&#45;8ef3&#45;11e8&#45;80ef&#45;29bb372a954a:PopUpMenu</title>
<polygon fill="none" stroke="#000000" points="2009.0997,-483 1463.748,-483 1463.748,-447 2009.0997,-447 2009.0997,-483"/>
<text text-anchor="middle" x="1736.4238" y="-457.8" font-family="Times,serif" font-size="24.00" fill="#000000">7b708950&#45;8ef3&#45;11e8&#45;80ef&#45;29bb372a954a:PopUpMenu</text>
</g>
<!-- 7ba9e8d0&#45;8ef3&#45;11e8&#45;80ef&#45;29bb372a954a:RootPopupMenu&#45;&gt;7b708950&#45;8ef3&#45;11e8&#45;80ef&#45;29bb372a954a:PopUpMenu -->
<g id="edge6" class="edge">
<title>7ba9e8d0&#45;8ef3&#45;11e8&#45;80ef&#45;29bb372a954a:RootPopupMenu&#45;&gt;7b708950&#45;8ef3&#45;11e8&#45;80ef&#45;29bb372a954a:PopUpMenu</title>
<path fill="none" stroke="#000000" d="M1361.1751,-477.9286C1391.7281,-476.8759 1422.7519,-475.8071 1453.201,-474.758"/>
<polygon fill="#000000" stroke="#000000" points="1453.6301,-478.2454 1463.5036,-474.403 1453.389,-471.2495 1453.6301,-478.2454"/>
</g>
<!-- 7bc11a50&#45;8ef3&#45;11e8&#45;80ef&#45;29bb372a954a:RepositoryTree -->
<g id="node10" class="node">
<title>7bc11a50&#45;8ef3&#45;11e8&#45;80ef&#45;29bb372a954a:RepositoryTree</title>
<polygon fill="none" stroke="#000000" points="634.9199,-460 67.1543,-460 67.1543,-424 634.9199,-424 634.9199,-460"/>
<text text-anchor="middle" x="351.0371" y="-434.8" font-family="Times,serif" font-size="24.00" fill="#000000">7bc11a50&#45;8ef3&#45;11e8&#45;80ef&#45;29bb372a954a:RepositoryTree</text>
</g>
<!-- 7bc11a50&#45;8ef3&#45;11e8&#45;80ef&#45;29bb372a954a:RepositoryTree&#45;&gt;7ba9e8d0&#45;8ef3&#45;11e8&#45;80ef&#45;29bb372a954a:RootPopupMenu -->
<g id="edge10" class="edge">
<title>7bc11a50&#45;8ef3&#45;11e8&#45;80ef&#45;29bb372a954a:RepositoryTree&#45;&gt;7ba9e8d0&#45;8ef3&#45;11e8&#45;80ef&#45;29bb372a954a:RootPopupMenu</title>
<path fill="none" stroke="#000000" d="M632.163,-460.0154C679.9516,-463.0779 729.673,-466.2641 777.7134,-469.3427"/>
<polygon fill="#000000" stroke="#000000" points="777.7345,-472.8512 787.9379,-469.9979 778.1822,-465.8655 777.7345,-472.8512"/>
</g>
<!-- 7bc11a50&#45;8ef3&#45;11e8&#45;80ef&#45;29bb372a954a:RepositoryTree&#45;&gt;7b708950&#45;8ef3&#45;11e8&#45;80ef&#45;29bb372a954a:PopUpMenu -->
<g id="edge9" class="edge">
<title>7bc11a50&#45;8ef3&#45;11e8&#45;80ef&#45;29bb372a954a:RepositoryTree&#45;&gt;7b708950&#45;8ef3&#45;11e8&#45;80ef&#45;29bb372a954a:PopUpMenu</title>
<path fill="none" stroke="#000000" d="M635.1526,-446.7168C874.2889,-450.687 1214.5274,-456.3355 1453.3651,-460.3007"/>
<polygon fill="#000000" stroke="#000000" points="1453.5367,-463.8039 1463.5935,-460.4705 1453.653,-456.8049 1453.5367,-463.8039"/>
</g>
<!-- 7c0157a0&#45;8ef3&#45;11e8&#45;80ef&#45;29bb372a954a:CheckBoxNodeRenderer -->
<g id="node11" class="node">
<title>7c0157a0&#45;8ef3&#45;11e8&#45;80ef&#45;29bb372a954a:CheckBoxNodeRenderer</title>
<polygon fill="none" stroke="#000000" points="1399.4181,-360 738.2928,-360 738.2928,-324 1399.4181,-324 1399.4181,-360"/>
<text text-anchor="middle" x="1068.8555" y="-334.8" font-family="Times,serif" font-size="24.00" fill="#000000">7c0157a0&#45;8ef3&#45;11e8&#45;80ef&#45;29bb372a954a:CheckBoxNodeRenderer</text>
</g>
<!-- 7bc11a50&#45;8ef3&#45;11e8&#45;80ef&#45;29bb372a954a:RepositoryTree&#45;&gt;7c0157a0&#45;8ef3&#45;11e8&#45;80ef&#45;29bb372a954a:CheckBoxNodeRenderer -->
<g id="edge7" class="edge">
<title>7bc11a50&#45;8ef3&#45;11e8&#45;80ef&#45;29bb372a954a:RepositoryTree&#45;&gt;7c0157a0&#45;8ef3&#45;11e8&#45;80ef&#45;29bb372a954a:CheckBoxNodeRenderer</title>
<path fill="none" stroke="#000000" d="M635.2706,-440.8314C658.5942,-434.6004 681.1953,-426.1837 702.0742,-415 724.959,-402.7418 715.2182,-381.3117 738.0742,-369 741.0544,-367.3947 744.0721,-365.8488 747.1238,-364.3605"/>
<polygon fill="#000000" stroke="#000000" points="748.7803,-367.4504 756.3783,-360.0665 745.834,-361.1006 748.7803,-367.4504"/>
</g>
<!-- 7bfe9880&#45;8ef3&#45;11e8&#45;80ef&#45;29bb372a954a:CheckBoxNodeEditor -->
<g id="node12" class="node">
<title>7bfe9880&#45;8ef3&#45;11e8&#45;80ef&#45;29bb372a954a:CheckBoxNodeEditor</title>
<polygon fill="none" stroke="#000000" points="1384.2969,-414 753.4141,-414 753.4141,-378 1384.2969,-378 1384.2969,-414"/>
<text text-anchor="middle" x="1068.8555" y="-388.8" font-family="Times,serif" font-size="24.00" fill="#000000">7bfe9880&#45;8ef3&#45;11e8&#45;80ef&#45;29bb372a954a:CheckBoxNodeEditor</text>
</g>
<!-- 7bc11a50&#45;8ef3&#45;11e8&#45;80ef&#45;29bb372a954a:RepositoryTree&#45;&gt;7bfe9880&#45;8ef3&#45;11e8&#45;80ef&#45;29bb372a954a:CheckBoxNodeEditor -->
<g id="edge8" class="edge">
<title>7bc11a50&#45;8ef3&#45;11e8&#45;80ef&#45;29bb372a954a:RepositoryTree&#45;&gt;7bfe9880&#45;8ef3&#45;11e8&#45;80ef&#45;29bb372a954a:CheckBoxNodeEditor</title>
<path fill="none" stroke="#000000" d="M632.163,-423.9846C679.9516,-420.9221 729.673,-417.7359 777.7134,-414.6573"/>
<polygon fill="#000000" stroke="#000000" points="778.1822,-418.1345 787.9379,-414.0021 777.7345,-411.1488 778.1822,-418.1345"/>
</g>
<!-- 7bc11a50&#45;8ef3&#45;11e8&#45;80ef&#45;29bb372a954a:getPaths -->
<g id="node13" class="node">
<title>7bc11a50&#45;8ef3&#45;11e8&#45;80ef&#45;29bb372a954a:getPaths</title>
<polygon fill="none" stroke="#000000" points="601.295,-560 100.7792,-560 100.7792,-524 601.295,-524 601.295,-560"/>
<text text-anchor="middle" x="351.0371" y="-534.8" font-family="Times,serif" font-size="24.00" fill="#000000">7bc11a50&#45;8ef3&#45;11e8&#45;80ef&#45;29bb372a954a:getPaths</text>
</g>
<!-- 7bf68230&#45;8ef3&#45;11e8&#45;80ef&#45;29bb372a954a:isSelected -->
<g id="node14" class="node">
<title>7bf68230&#45;8ef3&#45;11e8&#45;80ef&#45;29bb372a954a:isSelected</title>
<polygon fill="none" stroke="#000000" points="1327.1524,-560 810.5585,-560 810.5585,-524 1327.1524,-524 1327.1524,-560"/>
<text text-anchor="middle" x="1068.8555" y="-534.8" font-family="Times,serif" font-size="24.00" fill="#000000">7bf68230&#45;8ef3&#45;11e8&#45;80ef&#45;29bb372a954a:isSelected</text>
</g>
<!-- 7bc11a50&#45;8ef3&#45;11e8&#45;80ef&#45;29bb372a954a:getPaths&#45;&gt;7bf68230&#45;8ef3&#45;11e8&#45;80ef&#45;29bb372a954a:isSelected -->
<g id="edge11" class="edge">
<title>7bc11a50&#45;8ef3&#45;11e8&#45;80ef&#45;29bb372a954a:getPaths&#45;&gt;7bf68230&#45;8ef3&#45;11e8&#45;80ef&#45;29bb372a954a:isSelected</title>
<path fill="none" stroke="#000000" d="M601.3393,-542C665.6938,-542 735.1915,-542 800.4235,-542"/>
<polygon fill="#000000" stroke="#000000" points="800.4345,-545.5001 810.4344,-542 800.4344,-538.5001 800.4345,-545.5001"/>
</g>
<!-- 7bc11a50&#45;8ef3&#45;11e8&#45;80ef&#45;29bb372a954a:checkUncheckNode -->
<g id="node15" class="node">
<title>7bc11a50&#45;8ef3&#45;11e8&#45;80ef&#45;29bb372a954a:checkUncheckNode</title>
<polygon fill="none" stroke="#000000" points="657.1974,-614 44.8769,-614 44.8769,-578 657.1974,-578 657.1974,-614"/>
<text text-anchor="middle" x="351.0371" y="-588.8" font-family="Times,serif" font-size="24.00" fill="#000000">7bc11a50&#45;8ef3&#45;11e8&#45;80ef&#45;29bb372a954a:checkUncheckNode</text>
</g>
<!-- 7bf68230&#45;8ef3&#45;11e8&#45;80ef&#45;29bb372a954a:setSelected -->
<g id="node16" class="node">
<title>7bf68230&#45;8ef3&#45;11e8&#45;80ef&#45;29bb372a954a:setSelected</title>
<polygon fill="none" stroke="#000000" points="1332.3047,-614 805.4062,-614 805.4062,-578 1332.3047,-578 1332.3047,-614"/>
<text text-anchor="middle" x="1068.8555" y="-588.8" font-family="Times,serif" font-size="24.00" fill="#000000">7bf68230&#45;8ef3&#45;11e8&#45;80ef&#45;29bb372a954a:setSelected</text>
</g>
<!-- 7bc11a50&#45;8ef3&#45;11e8&#45;80ef&#45;29bb372a954a:checkUncheckNode&#45;&gt;7bf68230&#45;8ef3&#45;11e8&#45;80ef&#45;29bb372a954a:setSelected -->
<g id="edge12" class="edge">
<title>7bc11a50&#45;8ef3&#45;11e8&#45;80ef&#45;29bb372a954a:checkUncheckNode&#45;&gt;7bf68230&#45;8ef3&#45;11e8&#45;80ef&#45;29bb372a954a:setSelected</title>
<path fill="none" stroke="#000000" d="M657.2785,-596C703.083,-596 750.0573,-596 795.1295,-596"/>
<polygon fill="#000000" stroke="#000000" points="795.322,-599.5001 805.322,-596 795.322,-592.5001 795.322,-599.5001"/>
</g>
<!-- 7bcdeb90&#45;8ef3&#45;11e8&#45;80ef&#45;29bb372a954a:FileList -->
<g id="node17" class="node">
<title>7bcdeb90&#45;8ef3&#45;11e8&#45;80ef&#45;29bb372a954a:FileList</title>
<polygon fill="none" stroke="#000000" points="598.5176,-63 103.5566,-63 103.5566,-27 598.5176,-27 598.5176,-63"/>
<text text-anchor="middle" x="351.0371" y="-37.8" font-family="Times,serif" font-size="24.00" fill="#000000">7bcdeb90&#45;8ef3&#45;11e8&#45;80ef&#45;29bb372a954a:FileList</text>
</g>
<!-- 7bf5bee0&#45;8ef3&#45;11e8&#45;80ef&#45;29bb372a954a:TableFilterDemo -->
<g id="node18" class="node">
<title>7bf5bee0&#45;8ef3&#45;11e8&#45;80ef&#45;29bb372a954a:TableFilterDemo</title>
<polygon fill="none" stroke="#000000" points="1358.7617,-36 778.9492,-36 778.9492,0 1358.7617,0 1358.7617,-36"/>
<text text-anchor="middle" x="1068.8555" y="-10.8" font-family="Times,serif" font-size="24.00" fill="#000000">7bf5bee0&#45;8ef3&#45;11e8&#45;80ef&#45;29bb372a954a:TableFilterDemo</text>
</g>
<!-- 7bcdeb90&#45;8ef3&#45;11e8&#45;80ef&#45;29bb372a954a:FileList&#45;&gt;7bf5bee0&#45;8ef3&#45;11e8&#45;80ef&#45;29bb372a954a:TableFilterDemo -->
<g id="edge13" class="edge">
<title>7bcdeb90&#45;8ef3&#45;11e8&#45;80ef&#45;29bb372a954a:FileList&#45;&gt;7bf5bee0&#45;8ef3&#45;11e8&#45;80ef&#45;29bb372a954a:TableFilterDemo</title>
<path fill="none" stroke="#000000" d="M598.5719,-35.6892C653.3552,-33.6286 711.9811,-31.4235 768.605,-29.2936"/>
<polygon fill="#000000" stroke="#000000" points="768.92,-32.7843 778.7814,-28.9108 768.6568,-25.7893 768.92,-32.7843"/>
</g>
<!-- 7bf5bee0&#45;8ef3&#45;11e8&#45;80ef&#45;29bb372a954a:addOperationComponent -->
<g id="node19" class="node">
<title>7bf5bee0&#45;8ef3&#45;11e8&#45;80ef&#45;29bb372a954a:addOperationComponent</title>
<polygon fill="none" stroke="#000000" points="1398.2695,-90 739.4414,-90 739.4414,-54 1398.2695,-54 1398.2695,-90"/>
<text text-anchor="middle" x="1068.8555" y="-64.8" font-family="Times,serif" font-size="24.00" fill="#000000">7bf5bee0&#45;8ef3&#45;11e8&#45;80ef&#45;29bb372a954a:addOperationComponent</text>
</g>
<!-- 7bcdeb90&#45;8ef3&#45;11e8&#45;80ef&#45;29bb372a954a:FileList&#45;&gt;7bf5bee0&#45;8ef3&#45;11e8&#45;80ef&#45;29bb372a954a:addOperationComponent -->
<g id="edge14" class="edge">
<title>7bcdeb90&#45;8ef3&#45;11e8&#45;80ef&#45;29bb372a954a:FileList&#45;&gt;7bf5bee0&#45;8ef3&#45;11e8&#45;80ef&#45;29bb372a954a:addOperationComponent</title>
<path fill="none" stroke="#000000" d="M598.5719,-54.3108C640.7834,-55.8985 685.2764,-57.5721 729.377,-59.2309"/>
<polygon fill="#000000" stroke="#000000" points="729.2506,-62.7285 739.3751,-59.6069 729.5137,-55.7334 729.2506,-62.7285"/>
</g>
<!-- 7bf5bee0&#45;8ef3&#45;11e8&#45;80ef&#45;29bb372a954a:TableFilterDemo&#45;&gt;7c0ec520&#45;8ef3&#45;11e8&#45;80ef&#45;29bb372a954a:makeCompactGrid -->
<g id="edge17" class="edge">
<title>7bf5bee0&#45;8ef3&#45;11e8&#45;80ef&#45;29bb372a954a:TableFilterDemo&#45;&gt;7c0ec520&#45;8ef3&#45;11e8&#45;80ef&#45;29bb372a954a:makeCompactGrid</title>
<path fill="none" stroke="#000000" d="M1291.61,-36.0187C1359.7321,-41.5292 1434.8175,-47.6029 1503.591,-53.166"/>
<polygon fill="#000000" stroke="#000000" points="1503.4409,-56.6652 1513.6906,-53.983 1504.0054,-49.688 1503.4409,-56.6652"/>
</g>
<!-- 7bd4c960&#45;8ef3&#45;11e8&#45;80ef&#45;29bb372a954a:FileTree -->
<g id="node20" class="node">
<title>7bd4c960&#45;8ef3&#45;11e8&#45;80ef&#45;29bb372a954a:FileTree</title>
<polygon fill="none" stroke="#000000" points="602.1543,-406 99.9199,-406 99.9199,-370 602.1543,-370 602.1543,-406"/>
<text text-anchor="middle" x="351.0371" y="-380.8" font-family="Times,serif" font-size="24.00" fill="#000000">7bd4c960&#45;8ef3&#45;11e8&#45;80ef&#45;29bb372a954a:FileTree</text>
</g>
<!-- 7bd4c960&#45;8ef3&#45;11e8&#45;80ef&#45;29bb372a954a:FileTree&#45;&gt;7c0157a0&#45;8ef3&#45;11e8&#45;80ef&#45;29bb372a954a:CheckBoxNodeRenderer -->
<g id="edge15" class="edge">
<title>7bd4c960&#45;8ef3&#45;11e8&#45;80ef&#45;29bb372a954a:FileTree&#45;&gt;7c0157a0&#45;8ef3&#45;11e8&#45;80ef&#45;29bb372a954a:CheckBoxNodeRenderer</title>
<path fill="none" stroke="#000000" d="M602.3472,-371.8953C658.9946,-368.2651 719.5824,-364.3825 777.7094,-360.6575"/>
<polygon fill="#000000" stroke="#000000" points="778.016,-364.1452 787.7717,-360.0127 777.5683,-357.1595 778.016,-364.1452"/>
</g>
<!-- 7bd4c960&#45;8ef3&#45;11e8&#45;80ef&#45;29bb372a954a:FileTree&#45;&gt;7bfe9880&#45;8ef3&#45;11e8&#45;80ef&#45;29bb372a954a:CheckBoxNodeEditor -->
<g id="edge16" class="edge">
<title>7bd4c960&#45;8ef3&#45;11e8&#45;80ef&#45;29bb372a954a:FileTree&#45;&gt;7bfe9880&#45;8ef3&#45;11e8&#45;80ef&#45;29bb372a954a:CheckBoxNodeEditor</title>
<path fill="none" stroke="#000000" d="M602.3472,-390.8008C647.8203,-391.3076 695.8326,-391.8427 743.0729,-392.3692"/>
<polygon fill="#000000" stroke="#000000" points="743.1021,-395.8696 753.1405,-392.4814 743.1802,-388.8701 743.1021,-395.8696"/>
</g>
<!-- 7bfb1610&#45;8ef3&#45;11e8&#45;80ef&#45;29bb372a954a:main -->
<g id="node21" class="node">
<title>7bfb1610&#45;8ef3&#45;11e8&#45;80ef&#45;29bb372a954a:main</title>
<polygon fill="none" stroke="#000000" points="584.5215,-352 117.5527,-352 117.5527,-316 584.5215,-316 584.5215,-352"/>
<text text-anchor="middle" x="351.0371" y="-326.8" font-family="Times,serif" font-size="24.00" fill="#000000">7bfb1610&#45;8ef3&#45;11e8&#45;80ef&#45;29bb372a954a:main</text>
</g>
<!-- 7bfb1610&#45;8ef3&#45;11e8&#45;80ef&#45;29bb372a954a:main&#45;&gt;7c0157a0&#45;8ef3&#45;11e8&#45;80ef&#45;29bb372a954a:CheckBoxNodeRenderer -->
<g id="edge19" class="edge">
<title>7bfb1610&#45;8ef3&#45;11e8&#45;80ef&#45;29bb372a954a:main&#45;&gt;7c0157a0&#45;8ef3&#45;11e8&#45;80ef&#45;29bb372a954a:CheckBoxNodeRenderer</title>
<path fill="none" stroke="#000000" d="M584.5882,-336.6029C630.5329,-337.1149 679.6122,-337.6619 728.2423,-338.2039"/>
<polygon fill="#000000" stroke="#000000" points="728.2473,-341.7041 738.2857,-338.3158 728.3253,-334.7045 728.2473,-341.7041"/>
</g>
<!-- 7bfb1610&#45;8ef3&#45;11e8&#45;80ef&#45;29bb372a954a:main&#45;&gt;7bfe9880&#45;8ef3&#45;11e8&#45;80ef&#45;29bb372a954a:CheckBoxNodeEditor -->
<g id="edge20" class="edge">
<title>7bfb1610&#45;8ef3&#45;11e8&#45;80ef&#45;29bb372a954a:main&#45;&gt;7bfe9880&#45;8ef3&#45;11e8&#45;80ef&#45;29bb372a954a:CheckBoxNodeEditor</title>
<path fill="none" stroke="#000000" d="M584.7556,-347.3208C624.0283,-350.8908 664.2878,-355.3774 702.0742,-361 718.286,-363.4123 721.8681,-366.5497 738.0742,-369 757.2034,-371.8922 777.005,-374.4902 796.9737,-376.8214"/>
<polygon fill="#000000" stroke="#000000" points="796.7737,-380.3213 807.1067,-377.9803 797.5691,-373.3666 796.7737,-380.3213"/>
</g>
<!-- 7bf808d0&#45;8ef3&#45;11e8&#45;80ef&#45;29bb372a954a:NamedVector -->
<g id="node22" class="node">
<title>7bf808d0&#45;8ef3&#45;11e8&#45;80ef&#45;29bb372a954a:NamedVector</title>
<polygon fill="none" stroke="#000000" points="1344.293,-306 793.418,-306 793.418,-270 1344.293,-270 1344.293,-306"/>
<text text-anchor="middle" x="1068.8555" y="-280.8" font-family="Times,serif" font-size="24.00" fill="#000000">7bf808d0&#45;8ef3&#45;11e8&#45;80ef&#45;29bb372a954a:NamedVector</text>
</g>
<!-- 7bfb1610&#45;8ef3&#45;11e8&#45;80ef&#45;29bb372a954a:main&#45;&gt;7bf808d0&#45;8ef3&#45;11e8&#45;80ef&#45;29bb372a954a:NamedVector -->
<g id="edge18" class="edge">
<title>7bfb1610&#45;8ef3&#45;11e8&#45;80ef&#45;29bb372a954a:main&#45;&gt;7bf808d0&#45;8ef3&#45;11e8&#45;80ef&#45;29bb372a954a:NamedVector</title>
<path fill="none" stroke="#000000" d="M584.5882,-319.0333C647.9414,-314.9735 717.2545,-310.5317 783.1321,-306.31"/>
<polygon fill="#000000" stroke="#000000" points="783.4934,-309.7941 793.2491,-305.6617 783.0457,-302.8085 783.4934,-309.7941"/>
</g>
<!-- 7bfe9880&#45;8ef3&#45;11e8&#45;80ef&#45;29bb372a954a:getCellEditorValue -->
<g id="node23" class="node">
<title>7bfe9880&#45;8ef3&#45;11e8&#45;80ef&#45;29bb372a954a:getCellEditorValue</title>
<polygon fill="none" stroke="#000000" points="651.6349,-668 50.4393,-668 50.4393,-632 651.6349,-632 651.6349,-668"/>
<text text-anchor="middle" x="351.0371" y="-642.8" font-family="Times,serif" font-size="24.00" fill="#000000">7bfe9880&#45;8ef3&#45;11e8&#45;80ef&#45;29bb372a954a:getCellEditorValue</text>
</g>
<!-- 7bf68230&#45;8ef3&#45;11e8&#45;80ef&#45;29bb372a954a:CheckBoxNode -->
<g id="node24" class="node">
<title>7bf68230&#45;8ef3&#45;11e8&#45;80ef&#45;29bb372a954a:CheckBoxNode</title>
<polygon fill="none" stroke="#000000" points="1355.1563,-668 782.5546,-668 782.5546,-632 1355.1563,-632 1355.1563,-668"/>
<text text-anchor="middle" x="1068.8555" y="-642.8" font-family="Times,serif" font-size="24.00" fill="#000000">7bf68230&#45;8ef3&#45;11e8&#45;80ef&#45;29bb372a954a:CheckBoxNode</text>
</g>
<!-- 7bfe9880&#45;8ef3&#45;11e8&#45;80ef&#45;29bb372a954a:getCellEditorValue&#45;&gt;7bf68230&#45;8ef3&#45;11e8&#45;80ef&#45;29bb372a954a:CheckBoxNode -->
<g id="edge21" class="edge">
<title>7bfe9880&#45;8ef3&#45;11e8&#45;80ef&#45;29bb372a954a:getCellEditorValue&#45;&gt;7bf68230&#45;8ef3&#45;11e8&#45;80ef&#45;29bb372a954a:CheckBoxNode</title>
<path fill="none" stroke="#000000" d="M651.8171,-650C691.7229,-650 732.6136,-650 772.4447,-650"/>
<polygon fill="#000000" stroke="#000000" points="772.5472,-653.5001 782.5471,-650 772.5471,-646.5001 772.5472,-653.5001"/>
</g>
<!-- 7bfe9880&#45;8ef3&#45;11e8&#45;80ef&#45;29bb372a954a:getTreeCellEditorComponent -->
<g id="node25" class="node">
<title>7bfe9880&#45;8ef3&#45;11e8&#45;80ef&#45;29bb372a954a:getTreeCellEditorComponent</title>
<polygon fill="none" stroke="#000000" points="702.1113,-722 -.0371,-722 -.0371,-686 702.1113,-686 702.1113,-722"/>
<text text-anchor="middle" x="351.0371" y="-696.8" font-family="Times,serif" font-size="24.00" fill="#000000">7bfe9880&#45;8ef3&#45;11e8&#45;80ef&#45;29bb372a954a:getTreeCellEditorComponent</text>
</g>
<!-- 7bfe9880&#45;8ef3&#45;11e8&#45;80ef&#45;29bb372a954a: -->
<g id="node26" class="node">
<title>7bfe9880&#45;8ef3&#45;11e8&#45;80ef&#45;29bb372a954a:</title>
<polygon fill="none" stroke="#000000" points="1277.5041,-722 860.2069,-722 860.2069,-686 1277.5041,-686 1277.5041,-722"/>
<text text-anchor="middle" x="1068.8555" y="-696.8" font-family="Times,serif" font-size="24.00" fill="#000000">7bfe9880&#45;8ef3&#45;11e8&#45;80ef&#45;29bb372a954a:</text>
</g>
<!-- 7bfe9880&#45;8ef3&#45;11e8&#45;80ef&#45;29bb372a954a:getTreeCellEditorComponent&#45;&gt;7bfe9880&#45;8ef3&#45;11e8&#45;80ef&#45;29bb372a954a: -->
<g id="edge22" class="edge">
<title>7bfe9880&#45;8ef3&#45;11e8&#45;80ef&#45;29bb372a954a:getTreeCellEditorComponent&#45;&gt;7bfe9880&#45;8ef3&#45;11e8&#45;80ef&#45;29bb372a954a:</title>
<path fill="none" stroke="#000000" d="M702.3235,-704C752.6499,-704 803.1763,-704 849.9421,-704"/>
<polygon fill="#000000" stroke="#000000" points="850.1742,-707.5001 860.1742,-704 850.1742,-700.5001 850.1742,-707.5001"/>
</g>
</g>
</svg>
