<?xml version="1.0" encoding="UTF-8" standalone="no"?>
<!DOCTYPE svg PUBLIC "-//W3C//DTD SVG 1.1//EN"
 "http://www.w3.org/Graphics/SVG/1.1/DTD/svg11.dtd">
<!-- Generated by graphviz version 2.40.1 (20161225.0304)
 -->
<!-- Title: g Pages: 1 -->
<svg width="986pt" height="435pt"
 viewBox="0.00 0.00 985.75 435.00" xmlns="http://www.w3.org/2000/svg" xmlns:xlink="http://www.w3.org/1999/xlink">
<g id="graph0" class="graph" transform="scale(1 1) rotate(0) translate(4 431)">
<title>g</title>
<polygon fill="#ffffff" stroke="transparent" points="-4,4 -4,-431 981.75,-431 981.75,4 -4,4"/>
<!-- RepositoryTreePanel:createAndShowGUI:newContentPane -->
<g id="node1" class="node">
<title>RepositoryTreePanel:createAndShowGUI:newContentPane</title>
<polygon fill="none" stroke="#000000" points="623.0938,-36 33.7343,-36 33.7343,0 623.0938,0 623.0938,-36"/>
<text text-anchor="middle" x="328.4141" y="-10.8" font-family="Times,serif" font-size="24.00" fill="#000000">RepositoryTreePanel:createAndShowGUI:newContentPane</text>
</g>
<!-- RepositoryTreePanel -->
<g id="node2" class="node">
<title>RepositoryTreePanel</title>
<polygon fill="none" stroke="#000000" points="944.0626,-36 726.5155,-36 726.5155,0 944.0626,0 944.0626,-36"/>
<text text-anchor="middle" x="835.2891" y="-10.8" font-family="Times,serif" font-size="24.00" fill="#000000">RepositoryTreePanel</text>
</g>
<!-- RepositoryTreePanel:createAndShowGUI:newContentPane&#45;&gt;RepositoryTreePanel -->
<g id="edge1" class="edge">
<title>RepositoryTreePanel:createAndShowGUI:newContentPane&#45;&gt;RepositoryTreePanel</title>
<path fill="none" stroke="#000000" d="M623.2653,-18C655.8523,-18 687.5003,-18 715.9752,-18"/>
<polygon fill="#000000" stroke="#000000" points="716.3182,-21.5001 726.3182,-18 716.3182,-14.5001 716.3182,-21.5001"/>
</g>
<!-- RepositoryTree:RepositoryTree:renderer -->
<g id="node3" class="node">
<title>RepositoryTree:RepositoryTree:renderer</title>
<polygon fill="none" stroke="#000000" points="531.5899,-265 125.2382,-265 125.2382,-229 531.5899,-229 531.5899,-265"/>
<text text-anchor="middle" x="328.4141" y="-239.8" font-family="Times,serif" font-size="24.00" fill="#000000">RepositoryTree:RepositoryTree:renderer</text>
</g>
<!-- CheckBoxNodeRenderer -->
<g id="node4" class="node">
<title>CheckBoxNodeRenderer</title>
<polygon fill="none" stroke="#000000" points="964.0431,-211 706.535,-211 706.535,-175 964.0431,-175 964.0431,-211"/>
<text text-anchor="middle" x="835.2891" y="-185.8" font-family="Times,serif" font-size="24.00" fill="#000000">CheckBoxNodeRenderer</text>
</g>
<!-- RepositoryTree:RepositoryTree:renderer&#45;&gt;CheckBoxNodeRenderer -->
<g id="edge2" class="edge">
<title>RepositoryTree:RepositoryTree:renderer&#45;&gt;CheckBoxNodeRenderer</title>
<path fill="none" stroke="#000000" d="M531.848,-232.4496C573.2559,-228.8768 616.4834,-224.7049 656.8281,-220 675.3812,-217.8364 694.9701,-215.2165 714.1065,-212.4701"/>
<polygon fill="#000000" stroke="#000000" points="714.6712,-215.9249 724.0644,-211.0241 713.6652,-208.9975 714.6712,-215.9249"/>
</g>
<!-- FileList:FileList:newContentPane -->
<g id="node5" class="node">
<title>FileList:FileList:newContentPane</title>
<polygon fill="none" stroke="#000000" points="499.2267,-373 157.6014,-373 157.6014,-337 499.2267,-337 499.2267,-373"/>
<text text-anchor="middle" x="328.4141" y="-347.8" font-family="Times,serif" font-size="24.00" fill="#000000">FileList:FileList:newContentPane</text>
</g>
<!-- TableFilterDemo -->
<g id="node6" class="node">
<title>TableFilterDemo</title>
<polygon fill="none" stroke="#000000" points="924.895,-346 745.6832,-346 745.6832,-310 924.895,-310 924.895,-346"/>
<text text-anchor="middle" x="835.2891" y="-320.8" font-family="Times,serif" font-size="24.00" fill="#000000">TableFilterDemo</text>
</g>
<!-- FileList:FileList:newContentPane&#45;&gt;TableFilterDemo -->
<g id="edge3" class="edge">
<title>FileList:FileList:newContentPane&#45;&gt;TableFilterDemo</title>
<path fill="none" stroke="#000000" d="M499.3122,-345.8967C577.7697,-341.7174 668.0744,-336.9071 735.2893,-333.3267"/>
<polygon fill="#000000" stroke="#000000" points="735.6537,-336.8124 745.4534,-332.7853 735.2813,-329.8223 735.6537,-336.8124"/>
</g>
<!-- FileTree:FileTree:renderer -->
<g id="node7" class="node">
<title>FileTree:FileTree:renderer</title>
<polygon fill="none" stroke="#000000" points="463.6055,-211 193.2226,-211 193.2226,-175 463.6055,-175 463.6055,-211"/>
<text text-anchor="middle" x="328.4141" y="-185.8" font-family="Times,serif" font-size="24.00" fill="#000000">FileTree:FileTree:renderer</text>
</g>
<!-- FileTree:FileTree:renderer&#45;&gt;CheckBoxNodeRenderer -->
<g id="edge4" class="edge">
<title>FileTree:FileTree:renderer&#45;&gt;CheckBoxNodeRenderer</title>
<path fill="none" stroke="#000000" d="M463.5814,-193C535.5661,-193 623.9602,-193 696.4862,-193"/>
<polygon fill="#000000" stroke="#000000" points="696.6113,-196.5001 706.6113,-193 696.6112,-189.5001 696.6113,-196.5001"/>
</g>
<!-- SimpleTableSelectionDemo:createAndShowGUI:newContentPane -->
<g id="node8" class="node">
<title>SimpleTableSelectionDemo:createAndShowGUI:newContentPane</title>
<polygon fill="none" stroke="#000000" points="656.7422,-427 .0859,-427 .0859,-391 656.7422,-391 656.7422,-427"/>
<text text-anchor="middle" x="328.4141" y="-401.8" font-family="Times,serif" font-size="24.00" fill="#000000">SimpleTableSelectionDemo:createAndShowGUI:newContentPane</text>
</g>
<!-- SimpleTableSelectionDemo -->
<g id="node9" class="node">
<title>SimpleTableSelectionDemo</title>
<polygon fill="none" stroke="#000000" points="977.7109,-427 692.8672,-427 692.8672,-391 977.7109,-391 977.7109,-427"/>
<text text-anchor="middle" x="835.2891" y="-401.8" font-family="Times,serif" font-size="24.00" fill="#000000">SimpleTableSelectionDemo</text>
</g>
<!-- SimpleTableSelectionDemo:createAndShowGUI:newContentPane&#45;&gt;SimpleTableSelectionDemo -->
<g id="edge5" class="edge">
<title>SimpleTableSelectionDemo:createAndShowGUI:newContentPane&#45;&gt;SimpleTableSelectionDemo</title>
<path fill="none" stroke="#000000" d="M656.9403,-409C665.6536,-409 674.2367,-409 682.6431,-409"/>
<polygon fill="#000000" stroke="#000000" points="682.8063,-412.5001 692.8063,-409 682.8062,-405.5001 682.8063,-412.5001"/>
</g>
<!-- TableFilterDemo:createAndShowGUI:newContentPane -->
<g id="node10" class="node">
<title>TableFilterDemo:createAndShowGUI:newContentPane</title>
<polygon fill="none" stroke="#000000" points="603.926,-319 52.9021,-319 52.9021,-283 603.926,-283 603.926,-319"/>
<text text-anchor="middle" x="328.4141" y="-293.8" font-family="Times,serif" font-size="24.00" fill="#000000">TableFilterDemo:createAndShowGUI:newContentPane</text>
</g>
<!-- TableFilterDemo:createAndShowGUI:newContentPane&#45;&gt;TableFilterDemo -->
<g id="edge6" class="edge">
<title>TableFilterDemo:createAndShowGUI:newContentPane&#45;&gt;TableFilterDemo</title>
<path fill="none" stroke="#000000" d="M604.1009,-315.6852C651.1001,-318.1887 697.0709,-320.6375 735.4809,-322.6835"/>
<polygon fill="#000000" stroke="#000000" points="735.4202,-326.1851 745.5922,-323.2221 735.7926,-319.195 735.4202,-326.1851"/>
</g>
<!-- CheckBoxNodeTreeSample:main:accessibilityOptions -->
<g id="node11" class="node">
<title>CheckBoxNodeTreeSample:main:accessibilityOptions</title>
<polygon fill="none" stroke="#000000" points="598.7931,-157 58.035,-157 58.035,-121 598.7931,-121 598.7931,-157"/>
<text text-anchor="middle" x="328.4141" y="-131.8" font-family="Times,serif" font-size="24.00" fill="#000000">CheckBoxNodeTreeSample:main:accessibilityOptions</text>
</g>
<!-- CheckBoxNodeTreeSample:main:accessibilityOptions&#45;&gt;CheckBoxNodeRenderer -->
<g id="edge8" class="edge">
<title>CheckBoxNodeTreeSample:main:accessibilityOptions&#45;&gt;CheckBoxNodeRenderer</title>
<path fill="none" stroke="#000000" d="M570.2795,-157.0006C599.4698,-159.7293 628.8425,-162.7364 656.8281,-166 675.3812,-168.1636 694.9701,-170.7835 714.1065,-173.5299"/>
<polygon fill="#000000" stroke="#000000" points="713.6652,-177.0025 724.0644,-174.9759 714.6712,-170.0751 713.6652,-177.0025"/>
</g>
<!-- CheckBoxNode -->
<g id="node12" class="node">
<title>CheckBoxNode</title>
<polygon fill="none" stroke="#000000" points="920.094,-117 750.4841,-117 750.4841,-81 920.094,-81 920.094,-117"/>
<text text-anchor="middle" x="835.2891" y="-91.8" font-family="Times,serif" font-size="24.00" fill="#000000">CheckBoxNode</text>
</g>
<!-- CheckBoxNodeTreeSample:main:accessibilityOptions&#45;&gt;CheckBoxNode -->
<g id="edge7" class="edge">
<title>CheckBoxNodeTreeSample:main:accessibilityOptions&#45;&gt;CheckBoxNode</title>
<path fill="none" stroke="#000000" d="M556.6439,-120.9893C621.3097,-115.8862 688.1864,-110.6086 740.2091,-106.5032"/>
<polygon fill="#000000" stroke="#000000" points="740.7169,-109.9741 750.4105,-105.6982 740.1662,-102.9958 740.7169,-109.9741"/>
</g>
<!-- CheckBoxNodeEditor:getCellEditorValue:checkBoxNode -->
<g id="node13" class="node">
<title>CheckBoxNodeEditor:getCellEditorValue:checkBoxNode</title>
<polygon fill="none" stroke="#000000" points="615.4416,-103 41.3865,-103 41.3865,-67 615.4416,-67 615.4416,-103"/>
<text text-anchor="middle" x="328.4141" y="-77.8" font-family="Times,serif" font-size="24.00" fill="#000000">CheckBoxNodeEditor:getCellEditorValue:checkBoxNode</text>
</g>
<!-- CheckBoxNodeEditor:getCellEditorValue:checkBoxNode&#45;&gt;CheckBoxNode -->
<g id="edge9" class="edge">
<title>CheckBoxNodeEditor:getCellEditorValue:checkBoxNode&#45;&gt;CheckBoxNode</title>
<path fill="none" stroke="#000000" d="M615.546,-92.9306C660.5352,-94.1733 704.0822,-95.376 740.3799,-96.3786"/>
<polygon fill="#000000" stroke="#000000" points="740.3277,-99.8784 750.4206,-96.6559 740.5211,-92.8811 740.3277,-99.8784"/>
</g>
</g>
</svg>
