<?xml version="1.0" encoding="UTF-8" standalone="no"?>
<!DOCTYPE svg PUBLIC "-//W3C//DTD SVG 1.1//EN"
 "http://www.w3.org/Graphics/SVG/1.1/DTD/svg11.dtd">
<!-- Generated by graphviz version 2.40.1 (20161225.0304)
 -->
<!-- Title: g Pages: 1 -->
<svg width="652pt" height="368pt"
 viewBox="0.00 0.00 652.30 368.00" xmlns="http://www.w3.org/2000/svg" xmlns:xlink="http://www.w3.org/1999/xlink">
<g id="graph0" class="graph" transform="scale(1 1) rotate(0) translate(4 364)">
<title>g</title>
<polygon fill="#ffffff" stroke="transparent" points="-4,4 -4,-364 648.3047,-364 648.3047,4 -4,4"/>
<!-- PopUpMenu:PopUpMenu:tree -->
<g id="node1" class="node">
<title>PopUpMenu:PopUpMenu:tree</title>
<polygon fill="none" stroke="#000000" points="374.6447,-90 64.3553,-90 64.3553,-54 374.6447,-54 374.6447,-90"/>
<text text-anchor="middle" x="219.5" y="-64.8" font-family="Times,serif" font-size="24.00" fill="#000000">PopUpMenu:PopUpMenu:tree</text>
</g>
<!-- RepositoryTree -->
<g id="node2" class="node">
<title>RepositoryTree</title>
<polygon fill="none" stroke="#000000" points="642.1061,-63 477.1986,-63 477.1986,-27 642.1061,-27 642.1061,-63"/>
<text text-anchor="middle" x="559.6523" y="-37.8" font-family="Times,serif" font-size="24.00" fill="#000000">RepositoryTree</text>
</g>
<!-- PopUpMenu:PopUpMenu:tree&#45;&gt;RepositoryTree -->
<g id="edge1" class="edge">
<title>PopUpMenu:PopUpMenu:tree&#45;&gt;RepositoryTree</title>
<path fill="none" stroke="#000000" d="M374.6452,-59.6852C406.168,-57.183 438.3803,-54.6261 466.9054,-52.3619"/>
<polygon fill="#000000" stroke="#000000" points="467.5481,-55.822 477.2398,-51.5416 466.9941,-48.8439 467.5481,-55.822"/>
</g>
<!-- RootPopupMenu:RootPopupMenu:tree -->
<g id="node3" class="node">
<title>RootPopupMenu:RootPopupMenu:tree</title>
<polygon fill="none" stroke="#000000" points="416.3322,-36 22.6678,-36 22.6678,0 416.3322,0 416.3322,-36"/>
<text text-anchor="middle" x="219.5" y="-10.8" font-family="Times,serif" font-size="24.00" fill="#000000">RootPopupMenu:RootPopupMenu:tree</text>
</g>
<!-- RootPopupMenu:RootPopupMenu:tree&#45;&gt;RepositoryTree -->
<g id="edge2" class="edge">
<title>RootPopupMenu:RootPopupMenu:tree&#45;&gt;RepositoryTree</title>
<path fill="none" stroke="#000000" d="M416.383,-33.6278C433.8584,-35.015 450.9466,-36.3713 466.8842,-37.6364"/>
<polygon fill="#000000" stroke="#000000" points="466.9382,-41.1516 477.1838,-38.454 467.4921,-34.1736 466.9382,-41.1516"/>
</g>
<!-- RepositoryTree:saveRepo:repo -->
<g id="node4" class="node">
<title>RepositoryTree:saveRepo:repo</title>
<polygon fill="none" stroke="#000000" points="376.2384,-360 62.7616,-360 62.7616,-324 376.2384,-324 376.2384,-360"/>
<text text-anchor="middle" x="219.5" y="-334.8" font-family="Times,serif" font-size="24.00" fill="#000000">RepositoryTree:saveRepo:repo</text>
</g>
<!-- CheckBoxNode -->
<g id="node5" class="node">
<title>CheckBoxNode</title>
<polygon fill="none" stroke="#000000" points="644.4573,-252 474.8474,-252 474.8474,-216 644.4573,-216 644.4573,-252"/>
<text text-anchor="middle" x="559.6523" y="-226.8" font-family="Times,serif" font-size="24.00" fill="#000000">CheckBoxNode</text>
</g>
<!-- RepositoryTree:saveRepo:repo&#45;&gt;CheckBoxNode -->
<g id="edge3" class="edge">
<title>RepositoryTree:saveRepo:repo&#45;&gt;CheckBoxNode</title>
<path fill="none" stroke="#000000" d="M376.3641,-331.8446C397.7964,-327.829 419.2129,-322.3761 439,-315 473.5294,-302.1285 507.9334,-277.5765 531.1145,-258.8629"/>
<polygon fill="#000000" stroke="#000000" points="533.6321,-261.3238 539.1266,-252.265 529.1822,-255.9201 533.6321,-261.3238"/>
</g>
<!-- RepositoryTree:saveRepoTo:repo -->
<g id="node6" class="node">
<title>RepositoryTree:saveRepoTo:repo</title>
<polygon fill="none" stroke="#000000" points="388.7228,-306 50.2772,-306 50.2772,-270 388.7228,-270 388.7228,-306"/>
<text text-anchor="middle" x="219.5" y="-280.8" font-family="Times,serif" font-size="24.00" fill="#000000">RepositoryTree:saveRepoTo:repo</text>
</g>
<!-- RepositoryTree:saveRepoTo:repo&#45;&gt;CheckBoxNode -->
<g id="edge4" class="edge">
<title>RepositoryTree:saveRepoTo:repo&#45;&gt;CheckBoxNode</title>
<path fill="none" stroke="#000000" d="M380.9978,-269.9611C400.5808,-267.2353 420.2726,-264.2393 439,-261 450.4841,-259.0136 462.5243,-256.6552 474.3681,-254.172"/>
<polygon fill="#000000" stroke="#000000" points="475.2049,-257.5723 484.2541,-252.0622 473.7438,-250.7265 475.2049,-257.5723"/>
</g>
<!-- RepositoryTree:getPaths:node -->
<g id="node7" class="node">
<title>RepositoryTree:getPaths:node</title>
<polygon fill="none" stroke="#000000" points="372.2696,-252 66.7304,-252 66.7304,-216 372.2696,-216 372.2696,-252"/>
<text text-anchor="middle" x="219.5" y="-226.8" font-family="Times,serif" font-size="24.00" fill="#000000">RepositoryTree:getPaths:node</text>
</g>
<!-- RepositoryTree:getPaths:node&#45;&gt;CheckBoxNode -->
<g id="edge5" class="edge">
<title>RepositoryTree:getPaths:node&#45;&gt;CheckBoxNode</title>
<path fill="none" stroke="#000000" d="M372.6599,-234C403.9131,-234 435.9359,-234 464.4504,-234"/>
<polygon fill="#000000" stroke="#000000" points="464.7891,-237.5001 474.7891,-234 464.789,-230.5001 464.7891,-237.5001"/>
</g>
<!-- RepositoryTree:checkUncheckNode:node -->
<g id="node8" class="node">
<title>RepositoryTree:checkUncheckNode:node</title>
<polygon fill="none" stroke="#000000" points="428.172,-198 10.828,-198 10.828,-162 428.172,-162 428.172,-198"/>
<text text-anchor="middle" x="219.5" y="-172.8" font-family="Times,serif" font-size="24.00" fill="#000000">RepositoryTree:checkUncheckNode:node</text>
</g>
<!-- RepositoryTree:checkUncheckNode:node&#45;&gt;CheckBoxNode -->
<g id="edge6" class="edge">
<title>RepositoryTree:checkUncheckNode:node&#45;&gt;CheckBoxNode</title>
<path fill="none" stroke="#000000" d="M380.9978,-198.0389C400.5808,-200.7647 420.2726,-203.7607 439,-207 450.4841,-208.9864 462.5243,-211.3448 474.3681,-213.828"/>
<polygon fill="#000000" stroke="#000000" points="473.7438,-217.2735 484.2541,-215.9378 475.2049,-210.4277 473.7438,-217.2735"/>
</g>
<!-- RepositoryTree:checkUncheckSubtree:node -->
<g id="node9" class="node">
<title>RepositoryTree:checkUncheckSubtree:node</title>
<polygon fill="none" stroke="#000000" points="439,-144 0,-144 0,-108 439,-108 439,-144"/>
<text text-anchor="middle" x="219.5" y="-118.8" font-family="Times,serif" font-size="24.00" fill="#000000">RepositoryTree:checkUncheckSubtree:node</text>
</g>
<!-- RepositoryTree:checkUncheckSubtree:node&#45;&gt;CheckBoxNode -->
<g id="edge7" class="edge">
<title>RepositoryTree:checkUncheckSubtree:node&#45;&gt;CheckBoxNode</title>
<path fill="none" stroke="#000000" d="M410.8737,-144.0101C420.4884,-146.6328 429.9159,-149.6137 439,-153 473.5294,-165.8715 507.9334,-190.4235 531.1145,-209.1371"/>
<polygon fill="#000000" stroke="#000000" points="529.1822,-212.0799 539.1266,-215.735 533.6321,-206.6762 529.1822,-212.0799"/>
</g>
</g>
</svg>
