<?xml version="1.0" encoding="UTF-8" standalone="no"?>
<!DOCTYPE svg PUBLIC "-//W3C//DTD SVG 1.1//EN"
 "http://www.w3.org/Graphics/SVG/1.1/DTD/svg11.dtd">
<!-- Generated by graphviz version 2.38.0 (20140413.2041)
 -->
<!-- Title: g Pages: 1 -->
<svg width="1813pt" height="406pt"
 viewBox="0.00 0.00 1813.00 406.46" xmlns="http://www.w3.org/2000/svg" xmlns:xlink="http://www.w3.org/1999/xlink">
<g id="graph0" class="graph" transform="scale(1 1) rotate(0) translate(4 402.464)">
<title>g</title>
<polygon fill="white" stroke="none" points="-4,4 -4,-402.464 1809,-402.464 1809,4 -4,4"/>
<!-- EAID_6D3041CC_0531_42e3_8B21_AC705E699A10 -->
<g id="node1" class="node"><title>EAID_6D3041CC_0531_42e3_8B21_AC705E699A10</title>
<image xlink:href="img/actor1.png" width="61px" height="90px" preserveAspectRatio="xMinYMin meet" x="10.5" y="-247.5"/>
<text text-anchor="start" x="19" y="-134.3" font-family="Times New Roman,serif" font-size="24.00">User</text>
</g>
<!-- EAID_A574BC64_B6A3_4583_93AE_BF690DAB62AD -->
<g id="node2" class="node"><title>EAID_A574BC64_B6A3_4583_93AE_BF690DAB62AD</title>
<image xlink:href="img/boundary3.png" width="115px" height="67px" preserveAspectRatio="xMinYMin meet" x="1111.5" y="-367.5"/>
<text text-anchor="start" x="1041" y="-277.3" font-family="Times New Roman,serif" font-size="24.00">Save confirmation message</text>
</g>
<!-- EAID_6D3041CC_0531_42e3_8B21_AC705E699A10&#45;&gt;EAID_A574BC64_B6A3_4583_93AE_BF690DAB62AD -->
<g id="edge1" class="edge"><title>EAID_6D3041CC_0531_42e3_8B21_AC705E699A10&#45;&gt;EAID_A574BC64_B6A3_4583_93AE_BF690DAB62AD</title>
<path fill="none" stroke="black" d="M74.4622,-253.59C85.6894,-269.431 99.8404,-284.384 117,-293.5 406.574,-447.327 807.301,-398.061 1020.57,-354.991"/>
<polygon fill="black" stroke="black" points="1021.49,-358.376 1030.59,-352.946 1020.09,-351.518 1021.49,-358.376"/>
</g>
<!-- EAID_C74A4486_A921_4321_8037_D4D4E09FC14D -->
<g id="node3" class="node"><title>EAID_C74A4486_A921_4321_8037_D4D4E09FC14D</title>
<image xlink:href="img/boundary3.png" width="115px" height="67px" preserveAspectRatio="xMinYMin meet" x="1112" y="-110.5"/>
<text text-anchor="start" x="1102" y="-20.3" font-family="Times New Roman,serif" font-size="24.00">Error message</text>
</g>
<!-- EAID_6D3041CC_0531_42e3_8B21_AC705E699A10&#45;&gt;EAID_C74A4486_A921_4321_8037_D4D4E09FC14D -->
<g id="edge2" class="edge"><title>EAID_6D3041CC_0531_42e3_8B21_AC705E699A10&#45;&gt;EAID_C74A4486_A921_4321_8037_D4D4E09FC14D</title>
<path fill="none" stroke="black" d="M81.3133,-151.448C92.1769,-143.515 104.438,-136.112 117,-131.5 455.834,-7.09746 897.007,-33.5168 1081.25,-52.1332"/>
<polygon fill="black" stroke="black" points="1081.11,-55.6378 1091.42,-53.1797 1081.83,-48.6746 1081.11,-55.6378"/>
</g>
<!-- EAID_5797E098_AB91_4a5d_BF7A_BD54ABDDA309 -->
<g id="node4" class="node"><title>EAID_5797E098_AB91_4a5d_BF7A_BD54ABDDA309</title>
<image xlink:href="img/boundary3.png" width="115px" height="67px" preserveAspectRatio="xMinYMin meet" x="1667.5" y="-149.5"/>
<text text-anchor="start" x="1654.5" y="-59.3" font-family="Times New Roman,serif" font-size="24.00">invitation page</text>
</g>
<!-- EAID_6D3041CC_0531_42e3_8B21_AC705E699A10&#45;&gt;EAID_5797E098_AB91_4a5d_BF7A_BD54ABDDA309 -->
<g id="edge3" class="edge"><title>EAID_6D3041CC_0531_42e3_8B21_AC705E699A10&#45;&gt;EAID_5797E098_AB91_4a5d_BF7A_BD54ABDDA309</title>
<path fill="none" stroke="black" d="M81.084,-174.612C92.5507,-171.393 105.169,-168.337 117,-166.5 367.283,-127.63 433.217,-145.5 686.5,-145.5 686.5,-145.5 686.5,-145.5 1170,-145.5 1364.87,-145.5 1414.66,-149.844 1608,-125.5 1616.49,-124.431 1625.28,-123.072 1634.06,-121.546"/>
<polygon fill="black" stroke="black" points="1634.72,-124.983 1643.94,-119.758 1633.47,-118.094 1634.72,-124.983"/>
</g>
<!-- EAID_5095BB41_D0F5_474b_B78B_DE4A8322D2B0 -->
<g id="node5" class="node"><title>EAID_5095BB41_D0F5_474b_B78B_DE4A8322D2B0</title>
<image xlink:href="img/boundary3.png" width="115px" height="67px" preserveAspectRatio="xMinYMin meet" x="276.5" y="-278.5"/>
<text text-anchor="start" x="127" y="-188.3" font-family="Times New Roman,serif" font-size="24.00">downloadable template page for filling data</text>
</g>
<!-- EAID_6D3041CC_0531_42e3_8B21_AC705E699A10&#45;&gt;EAID_5095BB41_D0F5_474b_B78B_DE4A8322D2B0 -->
<g id="edge4" class="edge"><title>EAID_6D3041CC_0531_42e3_8B21_AC705E699A10&#45;&gt;EAID_5095BB41_D0F5_474b_B78B_DE4A8322D2B0</title>
<path fill="none" stroke="black" d="M81.1164,-193.344C88.9149,-194.494 97.5989,-195.775 106.92,-197.15"/>
<polygon fill="black" stroke="black" points="106.451,-200.619 116.855,-198.616 107.472,-193.694 106.451,-200.619"/>
</g>
<!-- EAID_99978083_E2D5_4320_A02F_53348F6F3BB4 -->
<g id="node6" class="node"><title>EAID_99978083_E2D5_4320_A02F_53348F6F3BB4</title>
<image xlink:href="img/control1.png" width="106px" height="75px" preserveAspectRatio="xMinYMin meet" x="1423" y="-110.5"/>
<text text-anchor="start" x="1353.5" y="-12.3" font-family="Times New Roman,serif" font-size="24.00">redirect to invitation page</text>
</g>
<!-- EAID_C74A4486_A921_4321_8037_D4D4E09FC14D&#45;&gt;EAID_99978083_E2D5_4320_A02F_53348F6F3BB4 -->
<g id="edge5" class="edge"><title>EAID_C74A4486_A921_4321_8037_D4D4E09FC14D&#45;&gt;EAID_99978083_E2D5_4320_A02F_53348F6F3BB4</title>
<path fill="none" stroke="black" d="M1246.84,-61.4906C1273.04,-61.1465 1303.22,-60.75 1332.86,-60.3606"/>
<polygon fill="black" stroke="black" points="1332.93,-63.8601 1342.89,-60.2289 1332.84,-56.8607 1332.93,-63.8601"/>
</g>
<!-- EAID_2737FF15_8DED_422f_BF31_A65735F98533 -->
<g id="node8" class="node"><title>EAID_2737FF15_8DED_422f_BF31_A65735F98533</title>
<image xlink:href="img/control1.png" width="106px" height="75px" preserveAspectRatio="xMinYMin meet" x="635" y="-284.5"/>
<text text-anchor="start" x="597.5" y="-186.3" font-family="Times New Roman,serif" font-size="24.00">parse uploaded file</text>
</g>
<!-- EAID_5095BB41_D0F5_474b_B78B_DE4A8322D2B0&#45;&gt;EAID_2737FF15_8DED_422f_BF31_A65735F98533 -->
<g id="edge8" class="edge"><title>EAID_5095BB41_D0F5_474b_B78B_DE4A8322D2B0&#45;&gt;EAID_2737FF15_8DED_422f_BF31_A65735F98533</title>
<path fill="none" stroke="black" d="M551.104,-231.73C559.868,-231.779 568.49,-231.829 576.877,-231.876"/>
<polygon fill="black" stroke="black" points="576.965,-235.377 586.985,-231.934 577.005,-228.377 576.965,-235.377"/>
</g>
<!-- EAID_99978083_E2D5_4320_A02F_53348F6F3BB4&#45;&gt;EAID_5797E098_AB91_4a5d_BF7A_BD54ABDDA309 -->
<g id="edge10" class="edge"><title>EAID_99978083_E2D5_4320_A02F_53348F6F3BB4&#45;&gt;EAID_5797E098_AB91_4a5d_BF7A_BD54ABDDA309</title>
<path fill="none" stroke="black" d="M1608.32,-81.4478C1616.9,-82.9417 1625.42,-84.4262 1633.73,-85.8723"/>
<polygon fill="black" stroke="black" points="1633.29,-89.3483 1643.74,-87.6153 1634.49,-82.452 1633.29,-89.3483"/>
</g>
<!-- EAID_EA693FC9_0B2D_4f80_B0EA_B3F277F85E3C -->
<g id="node7" class="node"><title>EAID_EA693FC9_0B2D_4f80_B0EA_B3F277F85E3C</title>
<image xlink:href="img/control1.png" width="106px" height="75px" preserveAspectRatio="xMinYMin meet" x="857" y="-284.5"/>
<text text-anchor="start" x="834.5" y="-186.3" font-family="Times New Roman,serif" font-size="24.00">save file into db</text>
</g>
<!-- EAID_EA693FC9_0B2D_4f80_B0EA_B3F277F85E3C&#45;&gt;EAID_A574BC64_B6A3_4583_93AE_BF690DAB62AD -->
<g id="edge7" class="edge"><title>EAID_EA693FC9_0B2D_4f80_B0EA_B3F277F85E3C&#45;&gt;EAID_A574BC64_B6A3_4583_93AE_BF690DAB62AD</title>
<path fill="none" stroke="black" d="M995.172,-261.108C1003.57,-263.944 1012.25,-266.877 1021.05,-269.85"/>
<polygon fill="black" stroke="black" points="1020.03,-273.202 1030.63,-273.087 1022.28,-266.57 1020.03,-273.202"/>
</g>
<!-- EAID_EA693FC9_0B2D_4f80_B0EA_B3F277F85E3C&#45;&gt;EAID_C74A4486_A921_4321_8037_D4D4E09FC14D -->
<g id="edge6" class="edge"><title>EAID_EA693FC9_0B2D_4f80_B0EA_B3F277F85E3C&#45;&gt;EAID_C74A4486_A921_4321_8037_D4D4E09FC14D</title>
<path fill="none" stroke="black" d="M995.172,-176.6C1023.2,-158.095 1054.4,-137.497 1082.49,-118.951"/>
<polygon fill="black" stroke="black" points="1084.69,-121.696 1091.1,-113.266 1080.83,-115.855 1084.69,-121.696"/>
</g>
<!-- EAID_1952CDF2_EE8D_475b_B185_96600D4B3FB8 -->
<g id="node9" class="node"><title>EAID_1952CDF2_EE8D_475b_B185_96600D4B3FB8</title>
<image xlink:href="img/activity_icon.png" width="30px" height="20px" preserveAspectRatio="xMinYMin meet" x="1154.5" y="-240.5"/>
<text text-anchor="start" x="1136" y="-198.3" font-family="Times New Roman,serif" font-weight="bold" font-size="24.00">file db</text>
</g>
<!-- EAID_EA693FC9_0B2D_4f80_B0EA_B3F277F85E3C&#45;&gt;EAID_1952CDF2_EE8D_475b_B185_96600D4B3FB8 -->
<g id="edge9" class="edge"><title>EAID_EA693FC9_0B2D_4f80_B0EA_B3F277F85E3C&#45;&gt;EAID_1952CDF2_EE8D_475b_B185_96600D4B3FB8</title>
<path fill="none" stroke="black" d="M995.172,-226.91C1034.63,-224.305 1080.36,-221.286 1114.87,-219.008"/>
<polygon fill="black" stroke="black" points="1115.45,-222.477 1125.2,-218.326 1114.99,-215.492 1115.45,-222.477"/>
</g>
<!-- EAID_2737FF15_8DED_422f_BF31_A65735F98533&#45;&gt;EAID_EA693FC9_0B2D_4f80_B0EA_B3F277F85E3C -->
<g id="edge11" class="edge"><title>EAID_2737FF15_8DED_422f_BF31_A65735F98533&#45;&gt;EAID_EA693FC9_0B2D_4f80_B0EA_B3F277F85E3C</title>
<path fill="none" stroke="black" d="M788.201,-232.5C796.688,-232.5 805.257,-232.5 813.704,-232.5"/>
<polygon fill="black" stroke="black" points="813.934,-236 823.934,-232.5 813.934,-229 813.934,-236"/>
</g>
</g>
</svg>
