<?xml version="1.0" encoding="UTF-8" standalone="no"?>
<!DOCTYPE svg PUBLIC "-//W3C//DTD SVG 1.1//EN"
 "http://www.w3.org/Graphics/SVG/1.1/DTD/svg11.dtd">
<!-- Generated by graphviz version 2.38.0 (20140413.2041)
 -->
<!-- Title: g Pages: 1 -->
<svg width="439pt" height="548pt"
 viewBox="0.00 0.00 439.03 548.00" xmlns="http://www.w3.org/2000/svg" xmlns:xlink="http://www.w3.org/1999/xlink">
<g id="graph0" class="graph" transform="scale(1 1) rotate(0) translate(4 544)">
<title>g</title>
<polygon fill="white" stroke="none" points="-4,4 -4,-544 435.029,-544 435.029,4 -4,4"/>
<!-- check input information -->
<g id="node1" class="node"><title>check input information</title>
<ellipse fill="none" stroke="black" cx="265.441" cy="-234" rx="96.6831" ry="18"/>
<text text-anchor="middle" x="265.441" y="-230.3" font-family="Times New Roman,serif" font-size="14.00">check input information</text>
</g>
<!-- save setting changes -->
<g id="node2" class="node"><title>save setting changes</title>
<ellipse fill="none" stroke="black" cx="301.441" cy="-162" rx="84.485" ry="18"/>
<text text-anchor="middle" x="301.441" y="-158.3" font-family="Times New Roman,serif" font-size="14.00">save setting changes</text>
</g>
<!-- check input information&#45;&gt;save setting changes -->
<g id="edge1" class="edge"><title>check input information&#45;&gt;save setting changes</title>
<path fill="none" stroke="black" d="M274.156,-216.055C278.295,-208.007 283.336,-198.205 287.954,-189.226"/>
<polygon fill="black" stroke="black" points="291.096,-190.769 292.557,-180.275 284.871,-187.567 291.096,-190.769"/>
</g>
<!-- Invalid input information -->
<g id="node3" class="node"><title>Invalid input information</title>
<ellipse fill="none" stroke="black" cx="99.4412" cy="-162" rx="99.3824" ry="18"/>
<text text-anchor="middle" x="99.4412" y="-158.3" font-family="Times New Roman,serif" font-size="14.00">Invalid input information</text>
</g>
<!-- check input information&#45;&gt;Invalid input information -->
<g id="edge2" class="edge"><title>check input information&#45;&gt;Invalid input information</title>
<path fill="none" stroke="black" d="M228.188,-217.291C203.924,-207.059 172.075,-193.629 146.126,-182.686"/>
<polygon fill="black" stroke="black" points="147.432,-179.438 136.857,-178.778 144.712,-185.888 147.432,-179.438"/>
</g>
<!-- notify user -->
<g id="node4" class="node"><title>notify user</title>
<ellipse fill="none" stroke="black" cx="250.441" cy="-90" rx="49.2915" ry="18"/>
<text text-anchor="middle" x="250.441" y="-86.3" font-family="Times New Roman,serif" font-size="14.00">notify user</text>
</g>
<!-- save setting changes&#45;&gt;notify user -->
<g id="edge5" class="edge"><title>save setting changes&#45;&gt;notify user</title>
<path fill="none" stroke="black" d="M289.095,-144.055C282.956,-135.629 275.416,-125.28 268.631,-115.966"/>
<polygon fill="black" stroke="black" points="271.391,-113.81 262.673,-107.789 265.733,-117.932 271.391,-113.81"/>
</g>
<!-- setting -->
<g id="node6" class="node"><title>setting</title>
<ellipse fill="none" stroke="black" cx="352.441" cy="-90" rx="34.394" ry="18"/>
<text text-anchor="middle" x="352.441" y="-86.3" font-family="Times New Roman,serif" font-size="14.00">setting</text>
</g>
<!-- save setting changes&#45;&gt;setting -->
<g id="edge4" class="edge"><title>save setting changes&#45;&gt;setting</title>
<path fill="none" stroke="black" d="M313.787,-144.055C320.016,-135.505 327.688,-124.975 334.55,-115.556"/>
<polygon fill="black" stroke="black" points="337.501,-117.45 340.56,-107.307 331.843,-113.328 337.501,-117.45"/>
</g>
<!-- Notification -->
<g id="node5" class="node"><title>Notification</title>
<ellipse fill="none" stroke="black" cx="250.441" cy="-18" rx="53.0913" ry="18"/>
<text text-anchor="middle" x="250.441" y="-14.3" font-family="Times New Roman,serif" font-size="14.00">Notification</text>
</g>
<!-- notify user&#45;&gt;Notification -->
<g id="edge3" class="edge"><title>notify user&#45;&gt;Notification</title>
<path fill="none" stroke="black" d="M250.441,-71.6966C250.441,-63.9827 250.441,-54.7125 250.441,-46.1124"/>
<polygon fill="black" stroke="black" points="253.941,-46.1043 250.441,-36.1043 246.941,-46.1044 253.941,-46.1043"/>
</g>
<!-- Account information page -->
<g id="node7" class="node"><title>Account information page</title>
<ellipse fill="none" stroke="black" cx="265.441" cy="-306" rx="105.082" ry="18"/>
<text text-anchor="middle" x="265.441" y="-302.3" font-family="Times New Roman,serif" font-size="14.00">Account information page</text>
</g>
<!-- Account information page&#45;&gt;check input information -->
<g id="edge6" class="edge"><title>Account information page&#45;&gt;check input information</title>
<path fill="none" stroke="black" d="M265.441,-287.697C265.441,-279.983 265.441,-270.712 265.441,-262.112"/>
<polygon fill="black" stroke="black" points="268.941,-262.104 265.441,-252.104 261.941,-262.104 268.941,-262.104"/>
</g>
<!-- redirect account information page -->
<g id="node8" class="node"><title>redirect account information page</title>
<ellipse fill="none" stroke="black" cx="298.441" cy="-378" rx="132.677" ry="18"/>
<text text-anchor="middle" x="298.441" y="-374.3" font-family="Times New Roman,serif" font-size="14.00">redirect account information page</text>
</g>
<!-- redirect account information page&#45;&gt;Account information page -->
<g id="edge7" class="edge"><title>redirect account information page&#45;&gt;Account information page</title>
<path fill="none" stroke="black" d="M290.284,-359.697C286.527,-351.728 281.988,-342.1 277.823,-333.264"/>
<polygon fill="black" stroke="black" points="280.935,-331.657 273.505,-324.104 274.603,-334.642 280.935,-331.657"/>
</g>
<!-- Edit setting button -->
<g id="node9" class="node"><title>Edit setting button</title>
<ellipse fill="none" stroke="black" cx="270.441" cy="-450" rx="77.1866" ry="18"/>
<text text-anchor="middle" x="270.441" y="-446.3" font-family="Times New Roman,serif" font-size="14.00">Edit setting button</text>
</g>
<!-- Edit setting button&#45;&gt;redirect account information page -->
<g id="edge8" class="edge"><title>Edit setting button&#45;&gt;redirect account information page</title>
<path fill="none" stroke="black" d="M277.219,-432.055C280.371,-424.176 284.195,-414.617 287.724,-405.794"/>
<polygon fill="black" stroke="black" points="291.067,-406.86 291.531,-396.275 284.567,-404.26 291.067,-406.86"/>
</g>
<!-- Admin -->
<g id="node10" class="node"><title>Admin</title>
<ellipse fill="none" stroke="black" cx="137.441" cy="-522" rx="35.194" ry="18"/>
<text text-anchor="middle" x="137.441" y="-518.3" font-family="Times New Roman,serif" font-size="14.00">Admin</text>
</g>
<!-- Admin&#45;&gt;Invalid input information -->
<g id="edge10" class="edge"><title>Admin&#45;&gt;Invalid input information</title>
<path fill="none" stroke="black" d="M129.934,-504.338C118.859,-478.197 99.4412,-425.702 99.4412,-379 99.4412,-379 99.4412,-379 99.4412,-305 99.4412,-264.996 99.4412,-218.653 99.4412,-190.08"/>
<polygon fill="black" stroke="black" points="102.941,-190.049 99.4412,-180.049 95.9413,-190.049 102.941,-190.049"/>
</g>
<!-- Admin&#45;&gt;Account information page -->
<g id="edge11" class="edge"><title>Admin&#45;&gt;Account information page</title>
<path fill="none" stroke="black" d="M134.506,-503.856C130.076,-472.23 125.219,-403.934 156.441,-360 167.394,-344.587 184.088,-333.465 201.143,-325.519"/>
<polygon fill="black" stroke="black" points="202.828,-328.604 210.62,-321.425 200.052,-322.178 202.828,-328.604"/>
</g>
<!-- Admin&#45;&gt;Edit setting button -->
<g id="edge9" class="edge"><title>Admin&#45;&gt;Edit setting button</title>
<path fill="none" stroke="black" d="M161.219,-508.485C180.657,-498.255 208.541,-483.579 231.269,-471.617"/>
<polygon fill="black" stroke="black" points="233.115,-474.601 240.334,-466.846 229.855,-468.406 233.115,-474.601"/>
</g>
</g>
</svg>
