<?xml version="1.0" encoding="UTF-8" standalone="no"?>
<!DOCTYPE svg PUBLIC "-//W3C//DTD SVG 1.1//EN"
 "http://www.w3.org/Graphics/SVG/1.1/DTD/svg11.dtd">
<!-- Generated by graphviz version 2.38.0 (20140413.2041)
 -->
<!-- Title: g Pages: 1 -->
<svg width="698pt" height="476pt"
 viewBox="0.00 0.00 698.28 476.00" xmlns="http://www.w3.org/2000/svg" xmlns:xlink="http://www.w3.org/1999/xlink">
<g id="graph0" class="graph" transform="scale(1 1) rotate(0) translate(4 472)">
<title>g</title>
<polygon fill="white" stroke="none" points="-4,4 -4,-472 694.279,-472 694.279,4 -4,4"/>
<!-- Display reset password dialog -->
<g id="node1" class="node"><title>Display reset password dialog</title>
<ellipse fill="none" stroke="black" cx="204.445" cy="-306" rx="120.479" ry="18"/>
<text text-anchor="middle" x="204.445" y="-302.3" font-family="Times New Roman,serif" font-size="14.00">Display reset password dialog</text>
</g>
<!-- Query database with username and password -->
<g id="node2" class="node"><title>Query database with username and password</title>
<ellipse fill="none" stroke="black" cx="259.445" cy="-234" rx="174.669" ry="18"/>
<text text-anchor="middle" x="259.445" y="-230.3" font-family="Times New Roman,serif" font-size="14.00">Query database with username and password</text>
</g>
<!-- Display reset password dialog&#45;&gt;Query database with username and password -->
<g id="edge1" class="edge"><title>Display reset password dialog&#45;&gt;Query database with username and password</title>
<path fill="none" stroke="black" d="M217.759,-288.055C224.282,-279.753 232.272,-269.584 239.505,-260.378"/>
<polygon fill="black" stroke="black" points="242.445,-262.301 245.871,-252.275 236.941,-257.976 242.445,-262.301"/>
</g>
<!-- System Database -->
<g id="node3" class="node"><title>System Database</title>
<ellipse fill="none" stroke="black" cx="256.445" cy="-162" rx="73.387" ry="18"/>
<text text-anchor="middle" x="256.445" y="-158.3" font-family="Times New Roman,serif" font-size="14.00">System Database</text>
</g>
<!-- Query database with username and password&#45;&gt;System Database -->
<g id="edge3" class="edge"><title>Query database with username and password&#45;&gt;System Database</title>
<path fill="none" stroke="black" d="M258.703,-215.697C258.372,-207.983 257.975,-198.712 257.607,-190.112"/>
<polygon fill="black" stroke="black" points="261.103,-189.945 257.178,-180.104 254.109,-190.245 261.103,-189.945"/>
</g>
<!-- Is a match found? -->
<g id="node4" class="node"><title>Is a match found?</title>
<ellipse fill="none" stroke="black" cx="239.445" cy="-90" rx="76.0865" ry="18"/>
<text text-anchor="middle" x="239.445" y="-86.3" font-family="Times New Roman,serif" font-size="14.00">Is a match found?</text>
</g>
<!-- System Database&#45;&gt;Is a match found? -->
<g id="edge2" class="edge"><title>System Database&#45;&gt;Is a match found?</title>
<path fill="none" stroke="black" d="M252.242,-143.697C250.348,-135.898 248.068,-126.509 245.96,-117.829"/>
<polygon fill="black" stroke="black" points="249.36,-116.996 243.599,-108.104 242.557,-118.648 249.36,-116.996"/>
</g>
<!-- Partner Portal -->
<g id="node5" class="node"><title>Partner Portal</title>
<ellipse fill="none" stroke="black" cx="60.4446" cy="-18" rx="60.3893" ry="18"/>
<text text-anchor="middle" x="60.4446" y="-14.3" font-family="Times New Roman,serif" font-size="14.00">Partner Portal</text>
</g>
<!-- Is a match found?&#45;&gt;Partner Portal -->
<g id="edge4" class="edge"><title>Is a match found?&#45;&gt;Partner Portal</title>
<path fill="none" stroke="black" d="M201.92,-74.3257C173.614,-63.2561 134.692,-48.0353 104.837,-36.3602"/>
<polygon fill="black" stroke="black" points="106.075,-33.0864 95.4874,-32.7039 103.526,-39.6056 106.075,-33.0864"/>
</g>
<!-- Display error message -->
<g id="node6" class="node"><title>Display error message</title>
<ellipse fill="none" stroke="black" cx="231.445" cy="-18" rx="90.9839" ry="18"/>
<text text-anchor="middle" x="231.445" y="-14.3" font-family="Times New Roman,serif" font-size="14.00">Display error message</text>
</g>
<!-- Is a match found?&#45;&gt;Display error message -->
<g id="edge5" class="edge"><title>Is a match found?&#45;&gt;Display error message</title>
<path fill="none" stroke="black" d="M237.467,-71.6966C236.586,-63.9827 235.526,-54.7125 234.543,-46.1124"/>
<polygon fill="black" stroke="black" points="238.012,-45.6422 233.399,-36.1043 231.058,-46.4371 238.012,-45.6422"/>
</g>
<!-- Email user reset password confirmation email -->
<g id="node7" class="node"><title>Email user reset password confirmation email</title>
<ellipse fill="none" stroke="black" cx="515.445" cy="-18" rx="174.669" ry="18"/>
<text text-anchor="middle" x="515.445" y="-14.3" font-family="Times New Roman,serif" font-size="14.00">Email user reset password confirmation email</text>
</g>
<!-- Is a match found?&#45;&gt;Email user reset password confirmation email -->
<g id="edge6" class="edge"><title>Is a match found?&#45;&gt;Email user reset password confirmation email</title>
<path fill="none" stroke="black" d="M289.426,-76.3235C332.371,-65.4316 394.835,-49.5895 443.218,-37.3183"/>
<polygon fill="black" stroke="black" points="444.174,-40.6868 453.007,-34.8357 442.453,-33.9016 444.174,-40.6868"/>
</g>
<!-- Enter username and password -->
<g id="node8" class="node"><title>Enter username and password</title>
<ellipse fill="none" stroke="black" cx="462.445" cy="-306" rx="120.479" ry="18"/>
<text text-anchor="middle" x="462.445" y="-302.3" font-family="Times New Roman,serif" font-size="14.00">Enter username and password</text>
</g>
<!-- Enter username and password&#45;&gt;Query database with username and password -->
<g id="edge7" class="edge"><title>Enter username and password&#45;&gt;Query database with username and password</title>
<path fill="none" stroke="black" d="M416.887,-289.291C387.225,-279.062 348.292,-265.637 316.564,-254.696"/>
<polygon fill="black" stroke="black" points="317.562,-251.338 306.967,-251.387 315.28,-257.956 317.562,-251.338"/>
</g>
<!-- Display Partner Login -->
<g id="node9" class="node"><title>Display Partner Login</title>
<ellipse fill="none" stroke="black" cx="204.445" cy="-450" rx="89.8845" ry="18"/>
<text text-anchor="middle" x="204.445" y="-446.3" font-family="Times New Roman,serif" font-size="14.00">Display Partner Login</text>
</g>
<!-- Partner Login -->
<g id="node10" class="node"><title>Partner Login</title>
<ellipse fill="none" stroke="black" cx="204.445" cy="-378" rx="59.5901" ry="18"/>
<text text-anchor="middle" x="204.445" y="-374.3" font-family="Times New Roman,serif" font-size="14.00">Partner Login</text>
</g>
<!-- Display Partner Login&#45;&gt;Partner Login -->
<g id="edge8" class="edge"><title>Display Partner Login&#45;&gt;Partner Login</title>
<path fill="none" stroke="black" d="M204.445,-431.697C204.445,-423.983 204.445,-414.712 204.445,-406.112"/>
<polygon fill="black" stroke="black" points="207.945,-406.104 204.445,-396.104 200.945,-406.104 207.945,-406.104"/>
</g>
<!-- Partner Login&#45;&gt;Display reset password dialog -->
<g id="edge10" class="edge"><title>Partner Login&#45;&gt;Display reset password dialog</title>
<path fill="none" stroke="black" d="M204.445,-359.697C204.445,-351.983 204.445,-342.712 204.445,-334.112"/>
<polygon fill="black" stroke="black" points="207.945,-334.104 204.445,-324.104 200.945,-334.104 207.945,-334.104"/>
</g>
<!-- Partner Login&#45;&gt;Enter username and password -->
<g id="edge9" class="edge"><title>Partner Login&#45;&gt;Enter username and password</title>
<path fill="none" stroke="black" d="M247.338,-365.362C288.138,-354.292 350.089,-337.484 397.045,-324.744"/>
<polygon fill="black" stroke="black" points="398.09,-328.087 406.824,-322.091 396.257,-321.332 398.09,-328.087"/>
</g>
<!-- User -->
<g id="node11" class="node"><title>User</title>
<ellipse fill="none" stroke="black" cx="62.4446" cy="-450" rx="27.8951" ry="18"/>
<text text-anchor="middle" x="62.4446" y="-446.3" font-family="Times New Roman,serif" font-size="14.00">User</text>
</g>
<!-- User&#45;&gt;Partner Portal -->
<g id="edge11" class="edge"><title>User&#45;&gt;Partner Portal</title>
<path fill="none" stroke="black" d="M61.2592,-431.961C59.5106,-405.315 56.4446,-352.155 56.4446,-307 56.4446,-307 56.4446,-307 56.4446,-161 56.4446,-120.98 58.0518,-74.6412 59.2286,-46.0734"/>
<polygon fill="black" stroke="black" points="62.727,-46.1844 59.6544,-36.0449 55.7333,-45.8874 62.727,-46.1844"/>
</g>
<!-- User&#45;&gt;Partner Login -->
<g id="edge12" class="edge"><title>User&#45;&gt;Partner Login</title>
<path fill="none" stroke="black" d="M84.0114,-438.369C105.571,-427.741 139.202,-411.162 165.452,-398.222"/>
<polygon fill="black" stroke="black" points="167.331,-401.198 174.752,-393.637 164.235,-394.919 167.331,-401.198"/>
</g>
</g>
</svg>
