<?xml version="1.0" encoding="UTF-8" standalone="no"?>
<!DOCTYPE svg PUBLIC "-//W3C//DTD SVG 1.1//EN"
 "http://www.w3.org/Graphics/SVG/1.1/DTD/svg11.dtd">
<!-- Generated by graphviz version 2.38.0 (20140413.2041)
 -->
<!-- Title: g Pages: 1 -->
<svg width="441pt" height="332pt"
 viewBox="0.00 0.00 440.59 332.00" xmlns="http://www.w3.org/2000/svg" xmlns:xlink="http://www.w3.org/1999/xlink">
<g id="graph0" class="graph" transform="scale(1 1) rotate(0) translate(4 328)">
<title>g</title>
<polygon fill="white" stroke="none" points="-4,4 -4,-328 436.586,-328 436.586,4 -4,4"/>
<!-- check db if available -->
<g id="node1" class="node"><title>check db if available</title>
<ellipse fill="none" stroke="black" cx="260.54" cy="-162" rx="85.2851" ry="18"/>
<text text-anchor="middle" x="260.54" y="-158.3" font-family="Times New Roman,serif" font-size="14.00">check db if available</text>
</g>
<!-- product -->
<g id="node2" class="node"><title>product</title>
<ellipse fill="none" stroke="black" cx="274.54" cy="-90" rx="39.7935" ry="18"/>
<text text-anchor="middle" x="274.54" y="-86.3" font-family="Times New Roman,serif" font-size="14.00">product</text>
</g>
<!-- check db if available&#45;&gt;product -->
<g id="edge1" class="edge"><title>check db if available&#45;&gt;product</title>
<path fill="none" stroke="black" d="M264.001,-143.697C265.544,-135.983 267.398,-126.712 269.118,-118.112"/>
<polygon fill="black" stroke="black" points="272.59,-118.597 271.12,-108.104 265.726,-117.224 272.59,-118.597"/>
</g>
<!-- add to cart -->
<g id="node3" class="node"><title>add to cart</title>
<ellipse fill="none" stroke="black" cx="382.54" cy="-90" rx="50.0912" ry="18"/>
<text text-anchor="middle" x="382.54" y="-86.3" font-family="Times New Roman,serif" font-size="14.00">add to cart</text>
</g>
<!-- check db if available&#45;&gt;add to cart -->
<g id="edge2" class="edge"><title>check db if available&#45;&gt;add to cart</title>
<path fill="none" stroke="black" d="M288.53,-144.941C306.304,-134.742 329.429,-121.474 348.295,-110.649"/>
<polygon fill="black" stroke="black" points="350.241,-113.568 357.173,-105.555 346.757,-107.496 350.241,-113.568"/>
</g>
<!-- not available error message -->
<g id="node4" class="node"><title>not available error message</title>
<ellipse fill="none" stroke="black" cx="108.54" cy="-90" rx="108.581" ry="18"/>
<text text-anchor="middle" x="108.54" y="-86.3" font-family="Times New Roman,serif" font-size="14.00">not available error message</text>
</g>
<!-- check db if available&#45;&gt;not available error message -->
<g id="edge3" class="edge"><title>check db if available&#45;&gt;not available error message</title>
<path fill="none" stroke="black" d="M226.807,-145.465C204.956,-135.402 176.27,-122.191 152.622,-111.301"/>
<polygon fill="black" stroke="black" points="154.046,-108.103 143.499,-107.099 151.118,-114.461 154.046,-108.103"/>
</g>
<!-- cart -->
<g id="node5" class="node"><title>cart</title>
<ellipse fill="none" stroke="black" cx="382.54" cy="-18" rx="27" ry="18"/>
<text text-anchor="middle" x="382.54" y="-14.3" font-family="Times New Roman,serif" font-size="14.00">cart</text>
</g>
<!-- add to cart&#45;&gt;cart -->
<g id="edge4" class="edge"><title>add to cart&#45;&gt;cart</title>
<path fill="none" stroke="black" d="M382.54,-71.6966C382.54,-63.9827 382.54,-54.7125 382.54,-46.1124"/>
<polygon fill="black" stroke="black" points="386.04,-46.1043 382.54,-36.1043 379.04,-46.1044 386.04,-46.1043"/>
</g>
<!-- add to cart button -->
<g id="node6" class="node"><title>add to cart button</title>
<ellipse fill="none" stroke="black" cx="229.54" cy="-234" rx="76.0865" ry="18"/>
<text text-anchor="middle" x="229.54" y="-230.3" font-family="Times New Roman,serif" font-size="14.00">add to cart button</text>
</g>
<!-- add to cart button&#45;&gt;check db if available -->
<g id="edge5" class="edge"><title>add to cart button&#45;&gt;check db if available</title>
<path fill="none" stroke="black" d="M237.045,-216.055C240.571,-208.091 244.858,-198.411 248.8,-189.51"/>
<polygon fill="black" stroke="black" points="252.041,-190.836 252.89,-180.275 245.64,-188.002 252.041,-190.836"/>
</g>
<!-- User -->
<g id="node7" class="node"><title>User</title>
<ellipse fill="none" stroke="black" cx="175.54" cy="-306" rx="27.8951" ry="18"/>
<text text-anchor="middle" x="175.54" y="-302.3" font-family="Times New Roman,serif" font-size="14.00">User</text>
</g>
<!-- User&#45;&gt;not available error message -->
<g id="edge6" class="edge"><title>User&#45;&gt;not available error message</title>
<path fill="none" stroke="black" d="M164.391,-288.959C157.77,-278.777 149.689,-265.095 144.54,-252 126.838,-206.978 116.824,-151.279 112.059,-118.591"/>
<polygon fill="black" stroke="black" points="115.49,-117.857 110.641,-108.437 108.558,-118.825 115.49,-117.857"/>
</g>
<!-- User&#45;&gt;add to cart button -->
<g id="edge7" class="edge"><title>User&#45;&gt;add to cart button</title>
<path fill="none" stroke="black" d="M187.525,-289.465C194.225,-280.78 202.733,-269.75 210.339,-259.891"/>
<polygon fill="black" stroke="black" points="213.119,-262.017 216.456,-251.962 207.576,-257.742 213.119,-262.017"/>
</g>
</g>
</svg>
