<?xml version="1.0" encoding="UTF-8" standalone="no"?>
<!DOCTYPE svg PUBLIC "-//W3C//DTD SVG 1.1//EN"
 "http://www.w3.org/Graphics/SVG/1.1/DTD/svg11.dtd">
<!-- Generated by graphviz version 2.38.0 (20140413.2041)
 -->
<!-- Title: g Pages: 1 -->
<svg width="2353pt" height="443pt"
 viewBox="0.00 0.00 2353.00 442.87" xmlns="http://www.w3.org/2000/svg" xmlns:xlink="http://www.w3.org/1999/xlink">
<g id="graph0" class="graph" transform="scale(1 1) rotate(0) translate(4 438.874)">
<title>g</title>
<polygon fill="white" stroke="none" points="-4,4 -4,-438.874 2349,-438.874 2349,4 -4,4"/>
<!-- EAID_749B400A_A718_4d82_ABA9_7343743210C9 -->
<g id="node1" class="node"><title>EAID_749B400A_A718_4d82_ABA9_7343743210C9</title>
<image xlink:href="img/actor1.png" width="61px" height="90px" preserveAspectRatio="xMinYMin meet" x="10.5" y="-275.789"/>
<text text-anchor="start" x="19" y="-162.589" font-family="Times New Roman,serif" font-size="24.00">User</text>
</g>
<!-- EAID_E91E89C4_8EBB_46e4_8FB8_E15F52063A2A -->
<g id="node2" class="node"><title>EAID_E91E89C4_8EBB_46e4_8FB8_E15F52063A2A</title>
<image xlink:href="img/boundary3.png" width="115px" height="67px" preserveAspectRatio="xMinYMin meet" x="741" y="-393.789"/>
<text text-anchor="start" x="692.5" y="-303.589" font-family="Times New Roman,serif" font-size="24.00">user management page</text>
</g>
<!-- EAID_749B400A_A718_4d82_ABA9_7343743210C9&#45;&gt;EAID_E91E89C4_8EBB_46e4_8FB8_E15F52063A2A -->
<g id="edge1" class="edge"><title>EAID_749B400A_A718_4d82_ABA9_7343743210C9&#45;&gt;EAID_E91E89C4_8EBB_46e4_8FB8_E15F52063A2A</title>
<path fill="none" stroke="black" d="M81.228,-256.367C92.0047,-265.176 104.246,-273.445 117,-278.789 298.858,-354.985 531.189,-360.512 671.947,-354.996"/>
<polygon fill="black" stroke="black" points="672.495,-358.476 682.34,-354.562 672.203,-351.482 672.495,-358.476"/>
</g>
<!-- EAID_012A35EB_640C_4be2_99C8_8D04D2D5730F -->
<g id="node3" class="node"><title>EAID_012A35EB_640C_4be2_99C8_8D04D2D5730F</title>
<image xlink:href="img/boundary3.png" width="115px" height="67px" preserveAspectRatio="xMinYMin meet" x="190.5" y="-263.789"/>
<text text-anchor="start" x="127.5" y="-173.589" font-family="Times New Roman,serif" font-size="24.00">User Management Button</text>
</g>
<!-- EAID_749B400A_A718_4d82_ABA9_7343743210C9&#45;&gt;EAID_012A35EB_640C_4be2_99C8_8D04D2D5730F -->
<g id="edge2" class="edge"><title>EAID_749B400A_A718_4d82_ABA9_7343743210C9&#45;&gt;EAID_012A35EB_640C_4be2_99C8_8D04D2D5730F</title>
<path fill="none" stroke="black" d="M81.0261,-215.789C88.8869,-215.789 97.5545,-215.789 106.679,-215.789"/>
<polygon fill="black" stroke="black" points="106.743,-219.289 116.743,-215.789 106.743,-212.289 106.743,-219.289"/>
</g>
<!-- EAID_00AFB5C1_FEC0_4235_9F8B_ECA187C092F5 -->
<g id="node4" class="node"><title>EAID_00AFB5C1_FEC0_4235_9F8B_ECA187C092F5</title>
<image xlink:href="img/boundary3.png" width="115px" height="67px" preserveAspectRatio="xMinYMin meet" x="2009.5" y="-154.789"/>
<text text-anchor="start" x="1934.5" y="-64.5888" font-family="Times New Roman,serif" font-size="24.00">information invalid message</text>
</g>
<!-- EAID_749B400A_A718_4d82_ABA9_7343743210C9&#45;&gt;EAID_00AFB5C1_FEC0_4235_9F8B_ECA187C092F5 -->
<g id="edge3" class="edge"><title>EAID_749B400A_A718_4d82_ABA9_7343743210C9&#45;&gt;EAID_00AFB5C1_FEC0_4235_9F8B_ECA187C092F5</title>
<path fill="none" stroke="black" d="M65.6882,-149.472C77.6274,-125.379 94.4192,-100.094 117,-83.7888 264.232,22.5259 335.896,-2.78882 517.5,-2.78882 517.5,-2.78882 517.5,-2.78882 1443,-2.78882 1605.42,-2.78882 1788.47,-37.6593 1913.79,-67.0172"/>
<polygon fill="black" stroke="black" points="1913.31,-70.4992 1923.84,-69.3894 1914.91,-63.6863 1913.31,-70.4992"/>
</g>
<!-- EAID_781350D4_E69B_4a4b_99E3_FFC7ADD081B7 -->
<g id="node5" class="node"><title>EAID_781350D4_E69B_4a4b_99E3_FFC7ADD081B7</title>
<image xlink:href="img/boundary3.png" width="115px" height="67px" preserveAspectRatio="xMinYMin meet" x="1384.5" y="-389.789"/>
<text text-anchor="start" x="1308" y="-299.589" font-family="Times New Roman,serif" font-size="24.00">create user information page</text>
</g>
<!-- EAID_749B400A_A718_4d82_ABA9_7343743210C9&#45;&gt;EAID_781350D4_E69B_4a4b_99E3_FFC7ADD081B7 -->
<g id="edge4" class="edge"><title>EAID_749B400A_A718_4d82_ABA9_7343743210C9&#45;&gt;EAID_781350D4_E69B_4a4b_99E3_FFC7ADD081B7</title>
<path fill="none" stroke="black" d="M75.7669,-282.067C86.9638,-298.396 100.773,-314.436 117,-325.789 267.592,-431.153 333.708,-428.789 517.5,-428.789 517.5,-428.789 517.5,-428.789 799.5,-428.789 1005.23,-428.789 1060.46,-451.075 1262,-409.789 1275.23,-407.078 1288.78,-403.514 1302.2,-399.437"/>
<polygon fill="black" stroke="black" points="1303.45,-402.713 1311.94,-396.382 1301.35,-396.034 1303.45,-402.713"/>
</g>
<!-- EAID_D95BC7A5_9A8E_4681_AC0A_D02783956293 -->
<g id="node6" class="node"><title>EAID_D95BC7A5_9A8E_4681_AC0A_D02783956293</title>
<image xlink:href="img/boundary3.png" width="115px" height="67px" preserveAspectRatio="xMinYMin meet" x="741.5" y="-133.789"/>
<text text-anchor="start" x="669.5" y="-43.5888" font-family="Times New Roman,serif" font-size="24.00">unauthorized error message</text>
</g>
<!-- EAID_749B400A_A718_4d82_ABA9_7343743210C9&#45;&gt;EAID_D95BC7A5_9A8E_4681_AC0A_D02783956293 -->
<g id="edge5" class="edge"><title>EAID_749B400A_A718_4d82_ABA9_7343743210C9&#45;&gt;EAID_D95BC7A5_9A8E_4681_AC0A_D02783956293</title>
<path fill="none" stroke="black" d="M81.1348,-174.553C91.9138,-165.605 104.18,-157.208 117,-151.789 289.031,-79.0725 506.67,-70.8115 648.861,-75.243"/>
<polygon fill="black" stroke="black" points="648.854,-78.7446 658.967,-75.5832 649.09,-71.7486 648.854,-78.7446"/>
</g>
<!-- EAID_8D4D3311_A0F6_40ec_A086_ABC7CA683E50 -->
<g id="node11" class="node"><title>EAID_8D4D3311_A0F6_40ec_A086_ABC7CA683E50</title>
<image xlink:href="img/control1.png" width="106px" height="75px" preserveAspectRatio="xMinYMin meet" x="1065" y="-393.789"/>
<text text-anchor="start" x="984" y="-295.589" font-family="Times New Roman,serif" font-size="24.00">create user information page</text>
</g>
<!-- EAID_E91E89C4_8EBB_46e4_8FB8_E15F52063A2A&#45;&gt;EAID_8D4D3311_A0F6_40ec_A086_ABC7CA683E50 -->
<g id="edge10" class="edge"><title>EAID_E91E89C4_8EBB_46e4_8FB8_E15F52063A2A&#45;&gt;EAID_8D4D3311_A0F6_40ec_A086_ABC7CA683E50</title>
<path fill="none" stroke="black" d="M914.574,-344.339C930.519,-344.138 947.103,-343.929 963.608,-343.721"/>
<polygon fill="black" stroke="black" points="963.914,-347.218 973.869,-343.592 963.826,-340.218 963.914,-347.218"/>
</g>
<!-- EAID_799044D4_34DF_4ea2_942C_3A49040A786E -->
<g id="node9" class="node"><title>EAID_799044D4_34DF_4ea2_942C_3A49040A786E</title>
<image xlink:href="img/control1.png" width="106px" height="75px" preserveAspectRatio="xMinYMin meet" x="466" y="-267.789"/>
<text text-anchor="start" x="424.5" y="-169.589" font-family="Times New Roman,serif" font-size="24.00">validate role of user</text>
</g>
<!-- EAID_012A35EB_640C_4be2_99C8_8D04D2D5730F&#45;&gt;EAID_799044D4_34DF_4ea2_942C_3A49040A786E -->
<g id="edge7" class="edge"><title>EAID_012A35EB_640C_4be2_99C8_8D04D2D5730F&#45;&gt;EAID_799044D4_34DF_4ea2_942C_3A49040A786E</title>
<path fill="none" stroke="black" d="M378.272,-215.789C386.773,-215.789 395.299,-215.789 403.715,-215.789"/>
<polygon fill="black" stroke="black" points="403.915,-219.289 413.915,-215.789 403.915,-212.289 403.915,-219.289"/>
</g>
<!-- EAID_34A6A14E_CD15_42b4_99E6_5BCDA8D071DA -->
<g id="node10" class="node"><title>EAID_34A6A14E_CD15_42b4_99E6_5BCDA8D071DA</title>
<image xlink:href="img/control1.png" width="106px" height="75px" preserveAspectRatio="xMinYMin meet" x="1702" y="-341.789"/>
<text text-anchor="start" x="1632" y="-243.589" font-family="Times New Roman,serif" font-size="24.00">validate input information</text>
</g>
<!-- EAID_781350D4_E69B_4a4b_99E3_FFC7ADD081B7&#45;&gt;EAID_34A6A14E_CD15_42b4_99E6_5BCDA8D071DA -->
<g id="edge8" class="edge"><title>EAID_781350D4_E69B_4a4b_99E3_FFC7ADD081B7&#45;&gt;EAID_34A6A14E_CD15_42b4_99E6_5BCDA8D071DA</title>
<path fill="none" stroke="black" d="M1586.21,-317.844C1594.69,-316.426 1603.22,-315 1611.69,-313.583"/>
<polygon fill="black" stroke="black" points="1612.33,-317.026 1621.61,-311.924 1611.17,-310.121 1612.33,-317.026"/>
</g>
<!-- EAID_AF27DDF7_5952_4532_8606_4A944F25DABF -->
<g id="node7" class="node"><title>EAID_AF27DDF7_5952_4532_8606_4A944F25DABF</title>
<image xlink:href="img/control1.png" width="106px" height="75px" preserveAspectRatio="xMinYMin meet" x="2013.5" y="-341.789"/>
<text text-anchor="start" x="1996.5" y="-243.589" font-family="Times New Roman,serif" font-size="24.00">insert user info</text>
</g>
<!-- EAID_87B4A270_3E5C_4747_9935_B7CF7A7B193E -->
<g id="node8" class="node"><title>EAID_87B4A270_3E5C_4747_9935_B7CF7A7B193E</title>
<image xlink:href="img/entity1.png" width="80px" height="72px" preserveAspectRatio="xMinYMin meet" x="2255" y="-340.789"/>
<text text-anchor="start" x="2273" y="-245.589" font-family="Times New Roman,serif" font-size="24.00">User</text>
</g>
<!-- EAID_AF27DDF7_5952_4532_8606_4A944F25DABF&#45;&gt;EAID_87B4A270_3E5C_4747_9935_B7CF7A7B193E -->
<g id="edge6" class="edge"><title>EAID_AF27DDF7_5952_4532_8606_4A944F25DABF&#45;&gt;EAID_87B4A270_3E5C_4747_9935_B7CF7A7B193E</title>
<path fill="none" stroke="black" d="M2146.72,-289.789C2175.68,-289.789 2207.91,-289.789 2234.82,-289.789"/>
<polygon fill="black" stroke="black" points="2234.85,-293.289 2244.85,-289.789 2234.85,-286.289 2234.85,-293.289"/>
</g>
<!-- EAID_799044D4_34DF_4ea2_942C_3A49040A786E&#45;&gt;EAID_E91E89C4_8EBB_46e4_8FB8_E15F52063A2A -->
<g id="edge15" class="edge"><title>EAID_799044D4_34DF_4ea2_942C_3A49040A786E&#45;&gt;EAID_E91E89C4_8EBB_46e4_8FB8_E15F52063A2A</title>
<path fill="none" stroke="black" d="M623.054,-264.91C635.165,-270.617 647.35,-276.341 659,-281.789 663.606,-283.942 668.3,-286.133 673.042,-288.343"/>
<polygon fill="black" stroke="black" points="671.67,-291.564 682.213,-292.611 674.624,-285.218 671.67,-291.564"/>
</g>
<!-- EAID_799044D4_34DF_4ea2_942C_3A49040A786E&#45;&gt;EAID_D95BC7A5_9A8E_4681_AC0A_D02783956293 -->
<g id="edge14" class="edge"><title>EAID_799044D4_34DF_4ea2_942C_3A49040A786E&#45;&gt;EAID_D95BC7A5_9A8E_4681_AC0A_D02783956293</title>
<path fill="none" stroke="black" d="M623.054,-166.668C635.165,-160.961 647.35,-155.236 659,-149.789 662.609,-148.101 666.271,-146.392 669.969,-144.667"/>
<polygon fill="black" stroke="black" points="671.635,-147.752 679.222,-140.357 668.68,-141.407 671.635,-147.752"/>
</g>
<!-- EAID_8835115E_96A6_44c0_A1E2_D6740D67D738 -->
<g id="node12" class="node"><title>EAID_8835115E_96A6_44c0_A1E2_D6740D67D738</title>
<image xlink:href="img/entity1.png" width="80px" height="72px" preserveAspectRatio="xMinYMin meet" x="758.5" y="-266.789"/>
<text text-anchor="start" x="779.5" y="-171.589" font-family="Times New Roman,serif" font-size="24.00">role</text>
</g>
<!-- EAID_799044D4_34DF_4ea2_942C_3A49040A786E&#45;&gt;EAID_8835115E_96A6_44c0_A1E2_D6740D67D738 -->
<g id="edge13" class="edge"><title>EAID_799044D4_34DF_4ea2_942C_3A49040A786E&#45;&gt;EAID_8835115E_96A6_44c0_A1E2_D6740D67D738</title>
<path fill="none" stroke="black" d="M623.017,-215.789C661.909,-215.789 704.774,-215.789 738.284,-215.789"/>
<polygon fill="black" stroke="black" points="738.369,-219.289 748.369,-215.789 738.369,-212.289 738.369,-219.289"/>
</g>
<!-- EAID_34A6A14E_CD15_42b4_99E6_5BCDA8D071DA&#45;&gt;EAID_00AFB5C1_FEC0_4235_9F8B_ECA187C092F5 -->
<g id="edge11" class="edge"><title>EAID_34A6A14E_CD15_42b4_99E6_5BCDA8D071DA&#45;&gt;EAID_00AFB5C1_FEC0_4235_9F8B_ECA187C092F5</title>
<path fill="none" stroke="black" d="M1855.2,-231.131C1890.09,-210.507 1929.31,-187.315 1964.35,-166.597"/>
<polygon fill="black" stroke="black" points="1966.34,-169.488 1973.16,-161.386 1962.77,-163.463 1966.34,-169.488"/>
</g>
<!-- EAID_34A6A14E_CD15_42b4_99E6_5BCDA8D071DA&#45;&gt;EAID_AF27DDF7_5952_4532_8606_4A944F25DABF -->
<g id="edge12" class="edge"><title>EAID_34A6A14E_CD15_42b4_99E6_5BCDA8D071DA&#45;&gt;EAID_AF27DDF7_5952_4532_8606_4A944F25DABF</title>
<path fill="none" stroke="black" d="M1888.15,-289.789C1917.73,-289.789 1948.43,-289.789 1975.81,-289.789"/>
<polygon fill="black" stroke="black" points="1976.13,-293.289 1986.13,-289.789 1976.13,-286.289 1976.13,-293.289"/>
</g>
<!-- EAID_8D4D3311_A0F6_40ec_A086_ABC7CA683E50&#45;&gt;EAID_781350D4_E69B_4a4b_99E3_FFC7ADD081B7 -->
<g id="edge9" class="edge"><title>EAID_8D4D3311_A0F6_40ec_A086_ABC7CA683E50&#45;&gt;EAID_781350D4_E69B_4a4b_99E3_FFC7ADD081B7</title>
<path fill="none" stroke="black" d="M1262.11,-341.789C1270.62,-341.789 1279.2,-341.789 1287.75,-341.789"/>
<polygon fill="black" stroke="black" points="1287.77,-345.289 1297.77,-341.789 1287.77,-338.289 1287.77,-345.289"/>
</g>
</g>
</svg>
