<?xml version="1.0" encoding="UTF-8" standalone="no"?>
<!DOCTYPE svg PUBLIC "-//W3C//DTD SVG 1.1//EN"
 "http://www.w3.org/Graphics/SVG/1.1/DTD/svg11.dtd">
<!-- Generated by graphviz version 2.38.0 (20140413.2041)
 -->
<!-- Title: g Pages: 1 -->
<svg width="1315pt" height="653pt"
 viewBox="0.00 0.00 1315.00 653.10" xmlns="http://www.w3.org/2000/svg" xmlns:xlink="http://www.w3.org/1999/xlink">
<g id="graph0" class="graph" transform="scale(1 1) rotate(0) translate(4 649.105)">
<title>g</title>
<polygon fill="white" stroke="none" points="-4,4 -4,-649.105 1311,-649.105 1311,4 -4,4"/>
<!-- EAID_524CC8A7_F48C_4c24_90C8_B2CCE84C927E -->
<g id="node1" class="node"><title>EAID_524CC8A7_F48C_4c24_90C8_B2CCE84C927E</title>
<image xlink:href="img/actor1.png" width="61px" height="90px" preserveAspectRatio="xMinYMin meet" x="10.5" y="-330"/>
<text text-anchor="start" x="12" y="-216.8" font-family="Times New Roman,serif" font-size="24.00">Timer</text>
</g>
<!-- EAID_CDE3CDED_601D_47c3_BC21_6546DE90DC9B -->
<g id="node2" class="node"><title>EAID_CDE3CDED_601D_47c3_BC21_6546DE90DC9B</title>
<image xlink:href="img/control1.png" width="106px" height="75px" preserveAspectRatio="xMinYMin meet" x="204" y="-322"/>
<text text-anchor="start" x="127.5" y="-223.8" font-family="Times New Roman,serif" font-size="24.00">idle for 30 or more minutes</text>
</g>
<!-- EAID_524CC8A7_F48C_4c24_90C8_B2CCE84C927E&#45;&gt;EAID_CDE3CDED_601D_47c3_BC21_6546DE90DC9B -->
<g id="edge1" class="edge"><title>EAID_524CC8A7_F48C_4c24_90C8_B2CCE84C927E&#45;&gt;EAID_CDE3CDED_601D_47c3_BC21_6546DE90DC9B</title>
<path fill="none" stroke="black" d="M81.0003,-270C88.8937,-270 97.6155,-270 106.825,-270"/>
<polygon fill="black" stroke="black" points="106.995,-273.5 116.995,-270 106.995,-266.5 106.995,-273.5"/>
</g>
<!-- EAID_24A605E0_688F_4575_AC56_C4DE0108EE54 -->
<g id="node8" class="node"><title>EAID_24A605E0_688F_4575_AC56_C4DE0108EE54</title>
<image xlink:href="img/control1.png" width="106px" height="75px" preserveAspectRatio="xMinYMin meet" x="519" y="-322"/>
<text text-anchor="start" x="442.5" y="-223.8" font-family="Times New Roman,serif" font-size="24.00">deactivate the user&#39;s session</text>
</g>
<!-- EAID_CDE3CDED_601D_47c3_BC21_6546DE90DC9B&#45;&gt;EAID_24A605E0_688F_4575_AC56_C4DE0108EE54 -->
<g id="edge13" class="edge"><title>EAID_CDE3CDED_601D_47c3_BC21_6546DE90DC9B&#45;&gt;EAID_24A605E0_688F_4575_AC56_C4DE0108EE54</title>
<path fill="none" stroke="black" d="M396.153,-270C404.523,-270 412.963,-270 421.373,-270"/>
<polygon fill="black" stroke="black" points="421.612,-273.5 431.612,-270 421.612,-266.5 421.612,-273.5"/>
</g>
<!-- EAID_2270F06C_B36C_4a3d_AD0F_DDA42821B3C4 -->
<g id="node3" class="node"><title>EAID_2270F06C_B36C_4a3d_AD0F_DDA42821B3C4</title>
<image xlink:href="img/actor1.png" width="61px" height="90px" preserveAspectRatio="xMinYMin meet" x="541.5" y="-528"/>
<text text-anchor="start" x="550" y="-414.8" font-family="Times New Roman,serif" font-size="24.00">User</text>
</g>
<!-- EAID_19F073F8_48E3_4c71_AD38_AA20C32843D3 -->
<g id="node4" class="node"><title>EAID_19F073F8_48E3_4c71_AD38_AA20C32843D3</title>
<image xlink:href="img/boundary3.png" width="106px" height="67px" preserveAspectRatio="xMinYMin meet" x="1191" y="-421"/>
<text text-anchor="start" x="1191" y="-330.8" font-family="Times New Roman,serif" font-size="24.00">Login page</text>
</g>
<!-- EAID_2270F06C_B36C_4a3d_AD0F_DDA42821B3C4&#45;&gt;EAID_19F073F8_48E3_4c71_AD38_AA20C32843D3 -->
<g id="edge2" class="edge"><title>EAID_2270F06C_B36C_4a3d_AD0F_DDA42821B3C4&#45;&gt;EAID_19F073F8_48E3_4c71_AD38_AA20C32843D3</title>
<path fill="none" stroke="black" d="M612.057,-505.725C645.17,-534.525 695.21,-571.911 747,-588 915.925,-640.478 996.226,-683.687 1145,-588 1196.1,-555.131 1220.88,-488.318 1232.68,-437.847"/>
<polygon fill="black" stroke="black" points="1236.12,-438.506 1234.88,-427.985 1229.29,-436.988 1236.12,-438.506"/>
</g>
<!-- EAID_D49D571A_38D2_479b_AB2B_03C85378BDC8 -->
<g id="node5" class="node"><title>EAID_D49D571A_38D2_479b_AB2B_03C85378BDC8</title>
<image xlink:href="img/boundary3.png" width="115px" height="67px" preserveAspectRatio="xMinYMin meet" x="888.5" y="-572"/>
<text text-anchor="start" x="757" y="-481.8" font-family="Times New Roman,serif" font-size="24.00">Invalid username and password message</text>
</g>
<!-- EAID_2270F06C_B36C_4a3d_AD0F_DDA42821B3C4&#45;&gt;EAID_D49D571A_38D2_479b_AB2B_03C85378BDC8 -->
<g id="edge3" class="edge"><title>EAID_2270F06C_B36C_4a3d_AD0F_DDA42821B3C4&#45;&gt;EAID_D49D571A_38D2_479b_AB2B_03C85378BDC8</title>
<path fill="none" stroke="black" d="M612.011,-473.94C643.105,-478.614 689.057,-485.523 736.958,-492.724"/>
<polygon fill="black" stroke="black" points="736.473,-496.19 746.882,-494.216 737.514,-489.268 736.473,-496.19"/>
</g>
<!-- EAID_8B3E0388_227F_405f_83F4_84B654B7A393 -->
<g id="node6" class="node"><title>EAID_8B3E0388_227F_405f_83F4_84B654B7A393</title>
<image xlink:href="img/boundary3.png" width="115px" height="67px" preserveAspectRatio="xMinYMin meet" x="888.5" y="-318"/>
<text text-anchor="start" x="877" y="-227.8" font-family="Times New Roman,serif" font-size="24.00">Logout Button</text>
</g>
<!-- EAID_2270F06C_B36C_4a3d_AD0F_DDA42821B3C4&#45;&gt;EAID_8B3E0388_227F_405f_83F4_84B654B7A393 -->
<g id="edge4" class="edge"><title>EAID_2270F06C_B36C_4a3d_AD0F_DDA42821B3C4&#45;&gt;EAID_8B3E0388_227F_405f_83F4_84B654B7A393</title>
<path fill="none" stroke="black" d="M612.066,-431.213C645.769,-401.522 696.617,-360.47 747,-334 781.348,-315.954 821.726,-301.785 857.029,-291.417"/>
<polygon fill="black" stroke="black" points="858.2,-294.722 866.842,-288.593 856.264,-287.995 858.2,-294.722"/>
</g>
<!-- EAID_D5015DA6_E576_47d9_BFB1_90BC93976B7F -->
<g id="node7" class="node"><title>EAID_D5015DA6_E576_47d9_BFB1_90BC93976B7F</title>
<image xlink:href="img/boundary3.png" width="115px" height="67px" preserveAspectRatio="xMinYMin meet" x="888.5" y="-445"/>
<text text-anchor="start" x="784" y="-354.8" font-family="Times New Roman,serif" font-size="24.00">User&#39;session is alreayd deactivated</text>
</g>
<!-- EAID_2270F06C_B36C_4a3d_AD0F_DDA42821B3C4&#45;&gt;EAID_D5015DA6_E576_47d9_BFB1_90BC93976B7F -->
<g id="edge5" class="edge"><title>EAID_2270F06C_B36C_4a3d_AD0F_DDA42821B3C4&#45;&gt;EAID_D5015DA6_E576_47d9_BFB1_90BC93976B7F</title>
<path fill="none" stroke="black" d="M612.011,-460.469C648.916,-453.435 706.753,-442.411 763.938,-431.511"/>
<polygon fill="black" stroke="black" points="764.684,-434.932 773.852,-429.621 763.374,-428.056 764.684,-434.932"/>
</g>
<!-- EAID_8B3E0388_227F_405f_83F4_84B654B7A393&#45;&gt;EAID_24A605E0_688F_4575_AC56_C4DE0108EE54 -->
<g id="edge8" class="edge"><title>EAID_8B3E0388_227F_405f_83F4_84B654B7A393&#45;&gt;EAID_24A605E0_688F_4575_AC56_C4DE0108EE54</title>
<path fill="none" stroke="black" d="M866.756,-275.618C824.599,-276.62 771.162,-276.957 721.427,-276.628"/>
<polygon fill="black" stroke="black" points="721.232,-273.127 711.205,-276.551 721.178,-280.126 721.232,-273.127"/>
</g>
<!-- EAID_24A605E0_688F_4575_AC56_C4DE0108EE54&#45;&gt;EAID_D49D571A_38D2_479b_AB2B_03C85378BDC8 -->
<g id="edge6" class="edge"><title>EAID_24A605E0_688F_4575_AC56_C4DE0108EE54&#45;&gt;EAID_D49D571A_38D2_479b_AB2B_03C85378BDC8</title>
<path fill="none" stroke="black" d="M648.414,-328.741C670.2,-347.79 692.925,-369.985 711,-393 732.121,-419.894 720.757,-439.076 747,-461 747.865,-461.723 748.739,-462.437 749.62,-463.144"/>
<polygon fill="black" stroke="black" points="747.671,-466.057 757.762,-469.283 751.885,-460.468 747.671,-466.057"/>
</g>
<!-- EAID_24A605E0_688F_4575_AC56_C4DE0108EE54&#45;&gt;EAID_8B3E0388_227F_405f_83F4_84B654B7A393 -->
<g id="edge9" class="edge"><title>EAID_24A605E0_688F_4575_AC56_C4DE0108EE54&#45;&gt;EAID_8B3E0388_227F_405f_83F4_84B654B7A393</title>
<path fill="none" stroke="black" d="M711.205,-263.449C759.846,-263.033 813.122,-263.269 856.517,-264.156"/>
<polygon fill="black" stroke="black" points="856.681,-267.66 866.756,-264.382 856.835,-260.662 856.681,-267.66"/>
</g>
<!-- EAID_24A605E0_688F_4575_AC56_C4DE0108EE54&#45;&gt;EAID_D5015DA6_E576_47d9_BFB1_90BC93976B7F -->
<g id="edge12" class="edge"><title>EAID_24A605E0_688F_4575_AC56_C4DE0108EE54&#45;&gt;EAID_D5015DA6_E576_47d9_BFB1_90BC93976B7F</title>
<path fill="none" stroke="black" d="M711.369,-321.549C723.397,-325.827 735.399,-330.029 747,-334 752.63,-335.927 758.357,-337.867 764.144,-339.811"/>
<polygon fill="black" stroke="black" points="763.341,-343.233 773.934,-343.084 765.56,-336.594 763.341,-343.233"/>
</g>
<!-- EAID_B9380326_EC38_4703_8625_0D293B784401 -->
<g id="node9" class="node"><title>EAID_B9380326_EC38_4703_8625_0D293B784401</title>
<image xlink:href="img/control1.png" width="106px" height="75px" preserveAspectRatio="xMinYMin meet" x="893" y="-191"/>
<text text-anchor="start" x="784" y="-92.8" font-family="Times New Roman,serif" font-size="24.00">Redirect the user to the login page</text>
</g>
<!-- EAID_24A605E0_688F_4575_AC56_C4DE0108EE54&#45;&gt;EAID_B9380326_EC38_4703_8625_0D293B784401 -->
<g id="edge10" class="edge"><title>EAID_24A605E0_688F_4575_AC56_C4DE0108EE54&#45;&gt;EAID_B9380326_EC38_4703_8625_0D293B784401</title>
<path fill="none" stroke="black" d="M711.019,-219.767C723.179,-215.425 735.304,-211.12 747,-207 752.655,-205.008 758.404,-202.991 764.21,-200.959"/>
<polygon fill="black" stroke="black" points="765.743,-204.131 774.03,-197.529 763.435,-197.523 765.743,-204.131"/>
</g>
<!-- EAID_9A82EBC2_6A1E_4e41_93C6_6876547D4CF9 -->
<g id="node10" class="node"><title>EAID_9A82EBC2_6A1E_4e41_93C6_6876547D4CF9</title>
<image xlink:href="img/activity_icon.png" width="30px" height="20px" preserveAspectRatio="xMinYMin meet" x="931.5" y="-56"/>
<text text-anchor="start" x="898" y="-13.8" font-family="Times New Roman,serif" font-weight="bold" font-size="24.00">User Info</text>
</g>
<!-- EAID_24A605E0_688F_4575_AC56_C4DE0108EE54&#45;&gt;EAID_9A82EBC2_6A1E_4e41_93C6_6876547D4CF9 -->
<g id="edge11" class="edge"><title>EAID_24A605E0_688F_4575_AC56_C4DE0108EE54&#45;&gt;EAID_9A82EBC2_6A1E_4e41_93C6_6876547D4CF9</title>
<path fill="none" stroke="black" d="M608.363,-211.371C639.36,-165.864 688.356,-104.977 747,-71 786.583,-48.0666 837.236,-38.119 877.4,-33.8778"/>
<polygon fill="black" stroke="black" points="877.754,-37.36 887.372,-32.918 877.083,-30.3922 877.754,-37.36"/>
</g>
<!-- EAID_B9380326_EC38_4703_8625_0D293B784401&#45;&gt;EAID_19F073F8_48E3_4c71_AD38_AA20C32843D3 -->
<g id="edge7" class="edge"><title>EAID_B9380326_EC38_4703_8625_0D293B784401&#45;&gt;EAID_19F073F8_48E3_4c71_AD38_AA20C32843D3</title>
<path fill="none" stroke="black" d="M1118.21,-188.585C1127.67,-194.106 1136.69,-200.224 1145,-207 1177.71,-233.681 1201.98,-274.371 1218.19,-308.788"/>
<polygon fill="black" stroke="black" points="1215.2,-310.674 1222.54,-318.312 1221.57,-307.762 1215.2,-310.674"/>
</g>
</g>
</svg>
