<?xml version="1.0" encoding="UTF-8" standalone="no"?>
<!DOCTYPE svg PUBLIC "-//W3C//DTD SVG 1.1//EN"
 "http://www.w3.org/Graphics/SVG/1.1/DTD/svg11.dtd">
<!-- Generated by graphviz version 2.38.0 (20140413.2041)
 -->
<!-- Title: g Pages: 1 -->
<svg width="2151pt" height="952pt"
 viewBox="0.00 0.00 2151.00 952.00" xmlns="http://www.w3.org/2000/svg" xmlns:xlink="http://www.w3.org/1999/xlink">
<g id="graph0" class="graph" transform="scale(1 1) rotate(0) translate(4 948)">
<title>g</title>
<polygon fill="white" stroke="none" points="-4,4 -4,-948 2147,-948 2147,4 -4,4"/>
<g id="clust1" class="cluster"><title>cluster0</title>
<polygon fill="none" stroke="black" stroke-width="2" points="704,-380 704,-825 1136,-825 1136,-380 704,-380"/>
<text text-anchor="start" x="898" y="-810.8" font-family="Times New Roman,serif" font-weight="bold" font-size="14.00">System</text>
</g>
<g id="clust3" class="cluster"><title>cluster1000</title>
<polygon fill="none" stroke="black" stroke-width="2" points="8,-8 8,-372 2135,-372 2135,-8 8,-8"/>
<text text-anchor="start" x="1026" y="-357.8" font-family="Times New Roman,serif" font-weight="bold" font-size="14.00">Domain Model</text>
</g>
<g id="clust2" class="cluster"><title>cluster1</title>
<polygon fill="none" stroke="black" stroke-width="2" points="824,-833 824,-936 1158,-936 1158,-833 824,-833"/>
<text text-anchor="start" x="976.5" y="-921.8" font-family="Times New Roman,serif" font-weight="bold" font-size="14.00">User</text>
</g>
<!-- EAID_60BE3BB4_4F80_4333_9A22_48724B898B3D___EAID_803DB011_6E50_4a78_9429_30EE85BF03B4 -->
<g id="node1" class="node"><title>EAID_60BE3BB4_4F80_4333_9A22_48724B898B3D___EAID_803DB011_6E50_4a78_9429_30EE85BF03B4</title>
<image xlink:href="img/activity_icon.png" width="30px" height="20px" preserveAspectRatio="xMinYMin meet" x="1054" y="-781"/>
<text text-anchor="start" x="1020" y="-746.8" font-family="Times New Roman,serif" font-weight="bold" font-size="14.00">User:Homepage</text>
</g>
<!-- EAID_CD1037A4_A732_409d_8526_F8718FE718AC -->
<g id="node15" class="node"><title>EAID_CD1037A4_A732_409d_8526_F8718FE718AC</title>
<polygon fill="none" stroke="black" points="1020,-241.5 1020,-262.5 1201,-262.5 1201,-241.5 1020,-241.5"/>
<text text-anchor="start" x="1077.5" y="-249.3" font-family="Times New Roman,serif" font-weight="bold" font-size="14.00">Homepage</text>
<polygon fill="none" stroke="black" points="1020,-220.5 1020,-241.5 1201,-241.5 1201,-220.5 1020,-220.5"/>
<text text-anchor="start" x="1073" y="-228.3" font-family="Times New Roman,serif" font-weight="bold" font-size="14.00">Homepage()</text>
<polygon fill="none" stroke="black" points="1020,-199.5 1020,-220.5 1201,-220.5 1201,-199.5 1020,-199.5"/>
<text text-anchor="start" x="1061.5" y="-207.3" font-family="Times New Roman,serif" font-weight="bold" font-size="14.00">Checkoutpage()</text>
<polygon fill="none" stroke="black" points="1020,-178.5 1020,-199.5 1201,-199.5 1201,-178.5 1020,-178.5"/>
<text text-anchor="start" x="1023" y="-186.3" font-family="Times New Roman,serif" font-weight="bold" font-size="14.00">CustomizeDataserivcepage()</text>
<polygon fill="none" stroke="black" points="1020,-157.5 1020,-178.5 1201,-178.5 1201,-157.5 1020,-157.5"/>
<text text-anchor="start" x="1073.5" y="-165.3" font-family="Times New Roman,serif" font-weight="bold" font-size="14.00">Loginpage()</text>
<polygon fill="none" stroke="black" points="1020,-136.5 1020,-157.5 1201,-157.5 1201,-136.5 1020,-136.5"/>
<text text-anchor="start" x="1052.5" y="-144.3" font-family="Times New Roman,serif" font-weight="bold" font-size="14.00">Managedatapage()</text>
<polygon fill="none" stroke="black" points="1020,-115.5 1020,-136.5 1201,-136.5 1201,-115.5 1020,-115.5"/>
<text text-anchor="start" x="1052" y="-123.3" font-family="Times New Roman,serif" font-weight="bold" font-size="14.00">ReceiveDatapage()</text>
<polygon fill="none" stroke="black" points="1020,-94.5 1020,-115.5 1201,-115.5 1201,-94.5 1020,-94.5"/>
<text text-anchor="start" x="1047" y="-102.3" font-family="Times New Roman,serif" font-weight="bold" font-size="14.00">Updatecontentpage()</text>
<polygon fill="none" stroke="black" points="1018.5,-93.5 1018.5,-263.5 1201.5,-263.5 1201.5,-93.5 1018.5,-93.5"/>
</g>
<!-- EAID_60BE3BB4_4F80_4333_9A22_48724B898B3D___EAID_803DB011_6E50_4a78_9429_30EE85BF03B4&#45;&gt;EAID_CD1037A4_A732_409d_8526_F8718FE718AC -->
<g id="edge8" class="edge"><title>EAID_60BE3BB4_4F80_4333_9A22_48724B898B3D___EAID_803DB011_6E50_4a78_9429_30EE85BF03B4&#45;&gt;EAID_CD1037A4_A732_409d_8526_F8718FE718AC</title>
<path fill="none" stroke="black" stroke-dasharray="5,2" d="M1128.02,-748.25C1157.43,-738.594 1190.4,-722.017 1208,-694 1288.56,-565.743 1222.8,-386.574 1167.02,-277.043"/>
<polygon fill="black" stroke="black" points="1170.04,-275.257 1162.34,-267.973 1163.81,-278.465 1170.04,-275.257"/>
</g>
<!-- EAID_60BE3BB4_4F80_4333_9A22_48724B898B3D___EAID_FC83E363_C601_42df_B29D_D39E1A7DDE99 -->
<g id="node2" class="node"><title>EAID_60BE3BB4_4F80_4333_9A22_48724B898B3D___EAID_FC83E363_C601_42df_B29D_D39E1A7DDE99</title>
<image xlink:href="img/activity_icon.png" width="30px" height="20px" preserveAspectRatio="xMinYMin meet" x="908" y="-788"/>
<text text-anchor="start" x="864" y="-753.8" font-family="Times New Roman,serif" font-weight="bold" font-size="14.00">User:Manage &#160;data</text>
<text text-anchor="start" x="908" y="-739.8" font-family="Times New Roman,serif" font-weight="bold" font-size="14.00">page</text>
</g>
<!-- EAID_FC83E363_C601_42df_B29D_D39E1A7DDE99___EAID_B1DDD2AC_9223_4802_AB3C_B05A9D66378D -->
<g id="node6" class="node"><title>EAID_FC83E363_C601_42df_B29D_D39E1A7DDE99___EAID_B1DDD2AC_9223_4802_AB3C_B05A9D66378D</title>
<image xlink:href="img/activity_icon.png" width="30px" height="20px" preserveAspectRatio="xMinYMin meet" x="934.5" y="-688"/>
<text text-anchor="start" x="907" y="-653.8" font-family="Times New Roman,serif" font-weight="bold" font-size="14.00">Manage &#160;data</text>
<text text-anchor="start" x="883" y="-639.8" font-family="Times New Roman,serif" font-weight="bold" font-size="14.00">page:chooses the type</text>
<text text-anchor="start" x="891.5" y="-625.8" font-family="Times New Roman,serif" font-weight="bold" font-size="14.00">of management for</text>
<text text-anchor="start" x="935.5" y="-611.8" font-family="Times New Roman,serif" font-weight="bold" font-size="14.00">data</text>
</g>
<!-- EAID_60BE3BB4_4F80_4333_9A22_48724B898B3D___EAID_FC83E363_C601_42df_B29D_D39E1A7DDE99&#45;&gt;EAID_FC83E363_C601_42df_B29D_D39E1A7DDE99___EAID_B1DDD2AC_9223_4802_AB3C_B05A9D66378D -->
<g id="edge2" class="edge"><title>EAID_60BE3BB4_4F80_4333_9A22_48724B898B3D___EAID_FC83E363_C601_42df_B29D_D39E1A7DDE99&#45;&gt;EAID_FC83E363_C601_42df_B29D_D39E1A7DDE99___EAID_B1DDD2AC_9223_4802_AB3C_B05A9D66378D</title>
<path fill="none" stroke="black" d="M930.242,-729.802C932.098,-721.807 934.15,-712.967 936.196,-704.155"/>
<polygon fill="black" stroke="black" points="939.64,-704.797 938.492,-694.265 932.821,-703.214 939.64,-704.797"/>
</g>
<!-- EAID_60BE3BB4_4F80_4333_9A22_48724B898B3D___EAID_FC83E363_C601_42df_B29D_D39E1A7DDE99&#45;&gt;EAID_CD1037A4_A732_409d_8526_F8718FE718AC -->
<g id="edge9" class="edge"><title>EAID_60BE3BB4_4F80_4333_9A22_48724B898B3D___EAID_FC83E363_C601_42df_B29D_D39E1A7DDE99&#45;&gt;EAID_CD1037A4_A732_409d_8526_F8718FE718AC</title>
<path fill="none" stroke="black" stroke-dasharray="5,2" d="M988.858,-729.925C1005.29,-720.053 1021.94,-707.996 1035,-694 1117.33,-605.8 1129.89,-569.331 1158,-452 1171.72,-394.727 1161.29,-329.814 1146.69,-277.713"/>
<polygon fill="black" stroke="black" points="1149.97,-276.437 1143.83,-267.804 1143.25,-278.383 1149.97,-276.437"/>
</g>
<!-- EAID_AFABA0B5_A2EC_4232_A8D6_260626BA68DE___EAID_803DB011_6E50_4a78_9429_30EE85BF03B4 -->
<g id="node3" class="node"><title>EAID_AFABA0B5_A2EC_4232_A8D6_260626BA68DE___EAID_803DB011_6E50_4a78_9429_30EE85BF03B4</title>
<image xlink:href="img/activity_icon.png" width="30px" height="20px" preserveAspectRatio="xMinYMin meet" x="1011" y="-439"/>
<text text-anchor="start" x="934" y="-404.8" font-family="Times New Roman,serif" font-weight="bold" font-size="14.00">Confirmation page:Homepage</text>
</g>
<!-- EAID_AFABA0B5_A2EC_4232_A8D6_260626BA68DE___EAID_803DB011_6E50_4a78_9429_30EE85BF03B4&#45;&gt;EAID_CD1037A4_A732_409d_8526_F8718FE718AC -->
<g id="edge10" class="edge"><title>EAID_AFABA0B5_A2EC_4232_A8D6_260626BA68DE___EAID_803DB011_6E50_4a78_9429_30EE85BF03B4&#45;&gt;EAID_CD1037A4_A732_409d_8526_F8718FE718AC</title>
<path fill="none" stroke="black" stroke-dasharray="5,2" d="M1034.67,-394.271C1044.38,-366.605 1060.7,-320.051 1075.68,-277.346"/>
<polygon fill="black" stroke="black" points="1079.05,-278.327 1079.05,-267.732 1072.44,-276.01 1079.05,-278.327"/>
</g>
<!-- EAID_AFABA0B5_A2EC_4232_A8D6_260626BA68DE___EAID_FC83E363_C601_42df_B29D_D39E1A7DDE99 -->
<g id="node4" class="node"><title>EAID_AFABA0B5_A2EC_4232_A8D6_260626BA68DE___EAID_FC83E363_C601_42df_B29D_D39E1A7DDE99</title>
<image xlink:href="img/activity_icon.png" width="30px" height="20px" preserveAspectRatio="xMinYMin meet" x="794.5" y="-446"/>
<text text-anchor="start" x="723" y="-411.8" font-family="Times New Roman,serif" font-weight="bold" font-size="14.00">Confirmation page:Manage </text>
<text text-anchor="start" x="779" y="-397.8" font-family="Times New Roman,serif" font-weight="bold" font-size="14.00">data page</text>
</g>
<!-- EAID_AFABA0B5_A2EC_4232_A8D6_260626BA68DE___EAID_FC83E363_C601_42df_B29D_D39E1A7DDE99&#45;&gt;EAID_FC83E363_C601_42df_B29D_D39E1A7DDE99___EAID_B1DDD2AC_9223_4802_AB3C_B05A9D66378D -->
<g id="edge4" class="edge"><title>EAID_AFABA0B5_A2EC_4232_A8D6_260626BA68DE___EAID_FC83E363_C601_42df_B29D_D39E1A7DDE99&#45;&gt;EAID_FC83E363_C601_42df_B29D_D39E1A7DDE99___EAID_B1DDD2AC_9223_4802_AB3C_B05A9D66378D</title>
<path fill="none" stroke="black" d="M828.397,-452.313C850.928,-488.684 888.482,-549.306 915.706,-593.254"/>
<polygon fill="black" stroke="black" points="912.764,-595.151 921.005,-601.809 918.715,-591.464 912.764,-595.151"/>
</g>
<!-- EAID_AFABA0B5_A2EC_4232_A8D6_260626BA68DE___EAID_FC83E363_C601_42df_B29D_D39E1A7DDE99&#45;&gt;EAID_CD1037A4_A732_409d_8526_F8718FE718AC -->
<g id="edge11" class="edge"><title>EAID_AFABA0B5_A2EC_4232_A8D6_260626BA68DE___EAID_FC83E363_C601_42df_B29D_D39E1A7DDE99&#45;&gt;EAID_CD1037A4_A732_409d_8526_F8718FE718AC</title>
<path fill="none" stroke="black" stroke-dasharray="5,2" d="M886.164,-387.994C895.764,-384.916 905.533,-382.143 915,-380 933.72,-375.762 984.884,-382.425 1001,-372 1035.34,-349.788 1059.97,-312.748 1077.03,-277.059"/>
<polygon fill="black" stroke="black" points="1080.41,-278.082 1081.42,-267.535 1074.05,-275.15 1080.41,-278.082"/>
</g>
<!-- EAID_B1DDD2AC_9223_4802_AB3C_B05A9D66378D___EAID_AFABA0B5_A2EC_4232_A8D6_260626BA68DE -->
<g id="node5" class="node"><title>EAID_B1DDD2AC_9223_4802_AB3C_B05A9D66378D___EAID_AFABA0B5_A2EC_4232_A8D6_260626BA68DE</title>
<image xlink:href="img/activity_icon.png" width="30px" height="20px" preserveAspectRatio="xMinYMin meet" x="985" y="-560"/>
<text text-anchor="start" x="950" y="-525.8" font-family="Times New Roman,serif" font-weight="bold" font-size="14.00">chooses the type</text>
<text text-anchor="start" x="942" y="-511.8" font-family="Times New Roman,serif" font-weight="bold" font-size="14.00">of management for</text>
<text text-anchor="start" x="927" y="-497.8" font-family="Times New Roman,serif" font-weight="bold" font-size="14.00">data:Confirmation page</text>
</g>
<!-- EAID_B1DDD2AC_9223_4802_AB3C_B05A9D66378D___EAID_AFABA0B5_A2EC_4232_A8D6_260626BA68DE&#45;&gt;EAID_AFABA0B5_A2EC_4232_A8D6_260626BA68DE___EAID_803DB011_6E50_4a78_9429_30EE85BF03B4 -->
<g id="edge5" class="edge"><title>EAID_B1DDD2AC_9223_4802_AB3C_B05A9D66378D___EAID_AFABA0B5_A2EC_4232_A8D6_260626BA68DE&#45;&gt;EAID_AFABA0B5_A2EC_4232_A8D6_260626BA68DE___EAID_803DB011_6E50_4a78_9429_30EE85BF03B4</title>
<path fill="none" stroke="black" d="M1009.46,-487.796C1012.07,-477.241 1014.89,-465.852 1017.45,-455.52"/>
<polygon fill="black" stroke="black" points="1020.9,-456.158 1019.91,-445.61 1014.11,-454.475 1020.9,-456.158"/>
</g>
<!-- EAID_B1DDD2AC_9223_4802_AB3C_B05A9D66378D___EAID_AFABA0B5_A2EC_4232_A8D6_260626BA68DE&#45;&gt;EAID_AFABA0B5_A2EC_4232_A8D6_260626BA68DE___EAID_FC83E363_C601_42df_B29D_D39E1A7DDE99 -->
<g id="edge6" class="edge"><title>EAID_B1DDD2AC_9223_4802_AB3C_B05A9D66378D___EAID_AFABA0B5_A2EC_4232_A8D6_260626BA68DE&#45;&gt;EAID_AFABA0B5_A2EC_4232_A8D6_260626BA68DE___EAID_FC83E363_C601_42df_B29D_D39E1A7DDE99</title>
<path fill="none" stroke="black" d="M930.775,-487.944C912.334,-477.806 892.475,-466.889 874.255,-456.873"/>
<polygon fill="black" stroke="black" points="875.904,-453.786 865.455,-452.035 872.532,-459.92 875.904,-453.786"/>
</g>
<!-- EAID_6F6CAE60_486A_4184_9817_225FE07C2163 -->
<g id="node11" class="node"><title>EAID_6F6CAE60_486A_4184_9817_225FE07C2163</title>
<polygon fill="none" stroke="black" points="25,-251.5 25,-272.5 257,-272.5 257,-251.5 25,-251.5"/>
<text text-anchor="start" x="71.5" y="-259.3" font-family="Times New Roman,serif" font-weight="bold" font-size="14.00">Product Configuration</text>
<polygon fill="none" stroke="black" points="25,-230.5 25,-251.5 257,-251.5 257,-230.5 25,-230.5"/>
<text text-anchor="start" x="83" y="-238.3" font-family="Times New Roman,serif" font-weight="bold" font-size="14.00">EAJava_date Date</text>
<polygon fill="none" stroke="black" points="25,-209.5 25,-230.5 257,-230.5 257,-209.5 25,-209.5"/>
<text text-anchor="start" x="78" y="-217.3" font-family="Times New Roman,serif" font-weight="bold" font-size="14.00">EAJava_int FormID</text>
<polygon fill="none" stroke="black" points="25,-188.5 25,-209.5 257,-209.5 257,-188.5 25,-188.5"/>
<text text-anchor="start" x="28" y="-196.3" font-family="Times New Roman,serif" font-weight="bold" font-size="14.00">EAJava_int ProductConfigurationID</text>
<polygon fill="none" stroke="black" points="25,-167.5 25,-188.5 257,-188.5 257,-167.5 25,-167.5"/>
<text text-anchor="start" x="43" y="-175.3" font-family="Times New Roman,serif" font-weight="bold" font-size="14.00">EAJava_string PurchasingType</text>
<polygon fill="none" stroke="black" points="25,-146.5 25,-167.5 257,-167.5 257,-146.5 25,-146.5"/>
<text text-anchor="start" x="69" y="-154.3" font-family="Times New Roman,serif" font-weight="bold" font-size="14.00">EAJava_float TotalFee</text>
<polygon fill="none" stroke="black" points="25,-125.5 25,-146.5 257,-146.5 257,-125.5 25,-125.5"/>
<text text-anchor="start" x="80.5" y="-133.3" font-family="Times New Roman,serif" font-weight="bold" font-size="14.00">EAJava_int UserID</text>
<polygon fill="none" stroke="black" points="25,-104.5 25,-125.5 257,-125.5 257,-104.5 25,-104.5"/>
<text text-anchor="start" x="69" y="-112.3" font-family="Times New Roman,serif" font-weight="bold" font-size="14.00">ProductConfiguration()</text>
<polygon fill="none" stroke="black" points="25,-83.5 25,-104.5 257,-104.5 257,-83.5 25,-83.5"/>
<text text-anchor="start" x="80.5" y="-91.3" font-family="Times New Roman,serif" font-weight="bold" font-size="14.00">Confirmationpage()</text>
<polygon fill="none" stroke="black" points="24,-83 24,-274 258,-274 258,-83 24,-83"/>
</g>
<!-- EAID_B1DDD2AC_9223_4802_AB3C_B05A9D66378D___EAID_AFABA0B5_A2EC_4232_A8D6_260626BA68DE&#45;&gt;EAID_6F6CAE60_486A_4184_9817_225FE07C2163 -->
<g id="edge12" class="edge"><title>EAID_B1DDD2AC_9223_4802_AB3C_B05A9D66378D___EAID_AFABA0B5_A2EC_4232_A8D6_260626BA68DE&#45;&gt;EAID_6F6CAE60_486A_4184_9817_225FE07C2163</title>
<path fill="none" stroke="black" stroke-dasharray="5,2" d="M1083.1,-498.993C1104.36,-487.903 1124.68,-472.663 1137,-452 1153.39,-424.517 1159.52,-402.732 1137,-380 1120.15,-362.99 296.173,-383.184 275,-372 239.469,-353.231 211.42,-320.329 190.364,-286.977"/>
<polygon fill="black" stroke="black" points="193.094,-284.734 184.886,-278.035 187.125,-288.391 193.094,-284.734"/>
</g>
<!-- EAID_FC83E363_C601_42df_B29D_D39E1A7DDE99___EAID_B1DDD2AC_9223_4802_AB3C_B05A9D66378D&#45;&gt;EAID_B1DDD2AC_9223_4802_AB3C_B05A9D66378D___EAID_AFABA0B5_A2EC_4232_A8D6_260626BA68DE -->
<g id="edge7" class="edge"><title>EAID_FC83E363_C601_42df_B29D_D39E1A7DDE99___EAID_B1DDD2AC_9223_4802_AB3C_B05A9D66378D&#45;&gt;EAID_B1DDD2AC_9223_4802_AB3C_B05A9D66378D___EAID_AFABA0B5_A2EC_4232_A8D6_260626BA68DE</title>
<path fill="none" stroke="black" d="M968.426,-601.672C972.106,-593.086 975.965,-584.082 979.672,-575.433"/>
<polygon fill="black" stroke="black" points="982.896,-576.794 983.618,-566.224 976.462,-574.037 982.896,-576.794"/>
</g>
<!-- EAID_EA3F3F51_274B_48c6_96D3_BF666BE5299E -->
<g id="node12" class="node"><title>EAID_EA3F3F51_274B_48c6_96D3_BF666BE5299E</title>
<polygon fill="none" stroke="black" points="1237,-314.5 1237,-335.5 1480,-335.5 1480,-314.5 1237,-314.5"/>
<text text-anchor="start" x="1284" y="-322.3" font-family="Times New Roman,serif" font-weight="bold" font-size="14.00">Sensor Data Export File</text>
<polygon fill="none" stroke="black" points="1237,-293.5 1237,-314.5 1480,-314.5 1480,-293.5 1237,-293.5"/>
<text text-anchor="start" x="1280.5" y="-301.3" font-family="Times New Roman,serif" font-weight="bold" font-size="14.00">EAJava_float SignalDate</text>
<polygon fill="none" stroke="black" points="1237,-272.5 1237,-293.5 1480,-293.5 1480,-272.5 1237,-272.5"/>
<text text-anchor="start" x="1306" y="-280.3" font-family="Times New Roman,serif" font-weight="bold" font-size="14.00">EAJava_int Tick</text>
<polygon fill="none" stroke="black" points="1237,-251.5 1237,-272.5 1480,-272.5 1480,-251.5 1237,-251.5"/>
<text text-anchor="start" x="1271" y="-259.3" font-family="Times New Roman,serif" font-weight="bold" font-size="14.00">EAJava_float TimeDuration</text>
<polygon fill="none" stroke="black" points="1237,-230.5 1237,-251.5 1480,-251.5 1480,-230.5 1237,-230.5"/>
<text text-anchor="start" x="1298" y="-238.3" font-family="Times New Roman,serif" font-weight="bold" font-size="14.00">EAJava_int UserID</text>
<polygon fill="none" stroke="black" points="1237,-209.5 1237,-230.5 1480,-230.5 1480,-209.5 1237,-209.5"/>
<text text-anchor="start" x="1285" y="-217.3" font-family="Times New Roman,serif" font-weight="bold" font-size="14.00">SensorDataExportFile()</text>
<polygon fill="none" stroke="black" points="1237,-188.5 1237,-209.5 1480,-209.5 1480,-188.5 1237,-188.5"/>
<text text-anchor="start" x="1310.5" y="-196.3" font-family="Times New Roman,serif" font-weight="bold" font-size="14.00">Checkoutdata()</text>
<polygon fill="none" stroke="black" points="1237,-167.5 1237,-188.5 1480,-188.5 1480,-167.5 1237,-167.5"/>
<text text-anchor="start" x="1308.5" y="-175.3" font-family="Times New Roman,serif" font-weight="bold" font-size="14.00">Customizedata()</text>
<polygon fill="none" stroke="black" points="1237,-146.5 1237,-167.5 1480,-167.5 1480,-146.5 1237,-146.5"/>
<text text-anchor="start" x="1240.5" y="-154.3" font-family="Times New Roman,serif" font-weight="bold" font-size="14.00">sourceofinformationexportedintoafile()</text>
<polygon fill="none" stroke="black" points="1237,-125.5 1237,-146.5 1480,-146.5 1480,-125.5 1237,-125.5"/>
<text text-anchor="start" x="1261" y="-133.3" font-family="Times New Roman,serif" font-weight="bold" font-size="14.00">Validateusenameandpassword()</text>
<polygon fill="none" stroke="black" points="1237,-104.5 1237,-125.5 1480,-125.5 1480,-104.5 1237,-104.5"/>
<text text-anchor="start" x="1240" y="-112.3" font-family="Times New Roman,serif" font-weight="bold" font-size="14.00">choosesthetypeofmanagementfordata()</text>
<polygon fill="none" stroke="black" points="1237,-83.5 1237,-104.5 1480,-104.5 1480,-83.5 1237,-83.5"/>
<text text-anchor="start" x="1309" y="-91.3" font-family="Times New Roman,serif" font-weight="bold" font-size="14.00">SendDatapage()</text>
<polygon fill="none" stroke="black" points="1237,-62.5 1237,-83.5 1480,-83.5 1480,-62.5 1237,-62.5"/>
<text text-anchor="start" x="1324" y="-70.3" font-family="Times New Roman,serif" font-weight="bold" font-size="14.00">Inputdata()</text>
<polygon fill="none" stroke="black" points="1237,-41.5 1237,-62.5 1480,-62.5 1480,-41.5 1237,-41.5"/>
<text text-anchor="start" x="1310" y="-49.3" font-family="Times New Roman,serif" font-weight="bold" font-size="14.00">Subscribedata()</text>
<polygon fill="none" stroke="black" points="1237,-20.5 1237,-41.5 1480,-41.5 1480,-20.5 1237,-20.5"/>
<text text-anchor="start" x="1317.5" y="-28.3" font-family="Times New Roman,serif" font-weight="bold" font-size="14.00">Choosedata()</text>
<polygon fill="none" stroke="black" points="1235.5,-20 1235.5,-337 1480.5,-337 1480.5,-20 1235.5,-20"/>
</g>
<!-- EAID_FC83E363_C601_42df_B29D_D39E1A7DDE99___EAID_B1DDD2AC_9223_4802_AB3C_B05A9D66378D&#45;&gt;EAID_EA3F3F51_274B_48c6_96D3_BF666BE5299E -->
<g id="edge13" class="edge"><title>EAID_FC83E363_C601_42df_B29D_D39E1A7DDE99___EAID_B1DDD2AC_9223_4802_AB3C_B05A9D66378D&#45;&gt;EAID_EA3F3F51_274B_48c6_96D3_BF666BE5299E</title>
<path fill="none" stroke="black" stroke-dasharray="5,2" d="M1025.67,-611.901C1048.47,-599.349 1072.54,-583.829 1092,-566 1159.38,-504.266 1218.79,-422.411 1264.27,-349.928"/>
<polygon fill="black" stroke="black" points="1267.43,-351.475 1269.75,-341.137 1261.49,-347.773 1267.43,-351.475"/>
</g>
<!-- EAID_60BE3BB4_4F80_4333_9A22_48724B898B3D___EAID_803DB011_6E50_4a78_9429_30EE85BF03B4_STL -->
<g id="node7" class="node"><title>EAID_60BE3BB4_4F80_4333_9A22_48724B898B3D___EAID_803DB011_6E50_4a78_9429_30EE85BF03B4_STL</title>
<image xlink:href="img/stimulus_icon.png" width="30px" height="20px" preserveAspectRatio="xMinYMin meet" x="1065" y="-892"/>
<text text-anchor="start" x="1020" y="-857.8" font-family="Times New Roman,serif" font-weight="bold" font-size="14.00">stl#User:Homepage</text>
</g>
<!-- EAID_60BE3BB4_4F80_4333_9A22_48724B898B3D___EAID_803DB011_6E50_4a78_9429_30EE85BF03B4_STL&#45;&gt;EAID_60BE3BB4_4F80_4333_9A22_48724B898B3D___EAID_803DB011_6E50_4a78_9429_30EE85BF03B4 -->
<g id="edge1" class="edge"><title>EAID_60BE3BB4_4F80_4333_9A22_48724B898B3D___EAID_803DB011_6E50_4a78_9429_30EE85BF03B4_STL&#45;&gt;EAID_60BE3BB4_4F80_4333_9A22_48724B898B3D___EAID_803DB011_6E50_4a78_9429_30EE85BF03B4</title>
<path fill="none" stroke="black" d="M1077.5,-847.266C1076.03,-832.633 1074.13,-813.87 1072.51,-797.765"/>
<polygon fill="black" stroke="black" points="1075.97,-797.234 1071.49,-787.636 1069.01,-797.937 1075.97,-797.234"/>
</g>
<!-- EAID_60BE3BB4_4F80_4333_9A22_48724B898B3D___EAID_FC83E363_C601_42df_B29D_D39E1A7DDE99_STL -->
<g id="node8" class="node"><title>EAID_60BE3BB4_4F80_4333_9A22_48724B898B3D___EAID_FC83E363_C601_42df_B29D_D39E1A7DDE99_STL</title>
<image xlink:href="img/stimulus_icon.png" width="30px" height="20px" preserveAspectRatio="xMinYMin meet" x="897.5" y="-899"/>
<text text-anchor="start" x="843" y="-864.8" font-family="Times New Roman,serif" font-weight="bold" font-size="14.00">stl#User:Manage &#160;data</text>
<text text-anchor="start" x="897.5" y="-850.8" font-family="Times New Roman,serif" font-weight="bold" font-size="14.00">page</text>
</g>
<!-- EAID_60BE3BB4_4F80_4333_9A22_48724B898B3D___EAID_FC83E363_C601_42df_B29D_D39E1A7DDE99_STL&#45;&gt;EAID_60BE3BB4_4F80_4333_9A22_48724B898B3D___EAID_FC83E363_C601_42df_B29D_D39E1A7DDE99 -->
<g id="edge3" class="edge"><title>EAID_60BE3BB4_4F80_4333_9A22_48724B898B3D___EAID_FC83E363_C601_42df_B29D_D39E1A7DDE99_STL&#45;&gt;EAID_60BE3BB4_4F80_4333_9A22_48724B898B3D___EAID_FC83E363_C601_42df_B29D_D39E1A7DDE99</title>
<path fill="none" stroke="black" d="M915.152,-840.765C916.291,-829.477 917.596,-816.549 918.81,-804.518"/>
<polygon fill="black" stroke="black" points="922.326,-804.541 919.847,-794.24 915.361,-803.838 922.326,-804.541"/>
</g>
<!-- EAID_1FE114CC_7F6B_47c8_B31C_F0526CF1B3B3 -->
<g id="node9" class="node"><title>EAID_1FE114CC_7F6B_47c8_B31C_F0526CF1B3B3</title>
<polygon fill="none" stroke="black" points="1764,-209.5 1764,-230.5 2118,-230.5 2118,-209.5 1764,-209.5"/>
<text text-anchor="start" x="1767" y="-217.3" font-family="Times New Roman,serif" font-weight="bold" font-size="14.00">Web based product configurator and data service system</text>
<polygon fill="none" stroke="black" points="1764,-188.5 1764,-209.5 2118,-209.5 2118,-188.5 1764,-188.5"/>
<text text-anchor="start" x="1775.5" y="-196.3" font-family="Times New Roman,serif" font-weight="bold" font-size="14.00">Webbasedproductconfiguratoranddataservicesystem()</text>
<polygon fill="none" stroke="black" points="1764,-167.5 1764,-188.5 2118,-188.5 2118,-167.5 1764,-167.5"/>
<text text-anchor="start" x="1846.5" y="-175.3" font-family="Times New Roman,serif" font-weight="bold" font-size="14.00">storesthedataintothedatabase()</text>
<polygon fill="none" stroke="black" points="1764,-146.5 1764,-167.5 2118,-167.5 2118,-146.5 1764,-146.5"/>
<text text-anchor="start" x="1786" y="-154.3" font-family="Times New Roman,serif" font-weight="bold" font-size="14.00">selectsthewaytoreceivenotificationanemailoratext()</text>
<polygon fill="none" stroke="black" points="1764,-125.5 1764,-146.5 2118,-146.5 2118,-125.5 1764,-125.5"/>
<text text-anchor="start" x="1864" y="-133.3" font-family="Times New Roman,serif" font-weight="bold" font-size="14.00">Choosecontenttoupdate()</text>
<polygon fill="none" stroke="black" points="1763,-125 1763,-232 2119,-232 2119,-125 1763,-125"/>
</g>
<!-- EAID_F13FE8AE_A9DC_4bea_97DF_463D13956F56 -->
<g id="node10" class="node"><title>EAID_F13FE8AE_A9DC_4bea_97DF_463D13956F56</title>
<polygon fill="none" stroke="black" points="1516,-262.5 1516,-283.5 1728,-283.5 1728,-262.5 1516,-262.5"/>
<text text-anchor="start" x="1519" y="-270.3" font-family="Times New Roman,serif" font-weight="bold" font-size="14.00">Data Service Configuration Form</text>
<polygon fill="none" stroke="black" points="1516,-241.5 1516,-262.5 1728,-262.5 1728,-241.5 1516,-241.5"/>
<text text-anchor="start" x="1521" y="-249.3" font-family="Times New Roman,serif" font-weight="bold" font-size="14.00">EAJava_string ConfigParameter</text>
<polygon fill="none" stroke="black" points="1516,-220.5 1516,-241.5 1728,-241.5 1728,-220.5 1516,-220.5"/>
<text text-anchor="start" x="1564" y="-228.3" font-family="Times New Roman,serif" font-weight="bold" font-size="14.00">EAJava_date Date</text>
<polygon fill="none" stroke="black" points="1516,-199.5 1516,-220.5 1728,-220.5 1728,-199.5 1516,-199.5"/>
<text text-anchor="start" x="1558.5" y="-207.3" font-family="Times New Roman,serif" font-weight="bold" font-size="14.00">EAJava_string Type</text>
<polygon fill="none" stroke="black" points="1516,-178.5 1516,-199.5 1728,-199.5 1728,-178.5 1516,-178.5"/>
<text text-anchor="start" x="1561.5" y="-186.3" font-family="Times New Roman,serif" font-weight="bold" font-size="14.00">EAJava_int UserID</text>
<polygon fill="none" stroke="black" points="1516,-157.5 1516,-178.5 1728,-178.5 1728,-157.5 1516,-157.5"/>
<text text-anchor="start" x="1520" y="-165.3" font-family="Times New Roman,serif" font-weight="bold" font-size="14.00">DataServiceConfigurationForm()</text>
<polygon fill="none" stroke="black" points="1516,-136.5 1516,-157.5 1728,-157.5 1728,-136.5 1516,-136.5"/>
<text text-anchor="start" x="1533.5" y="-144.3" font-family="Times New Roman,serif" font-weight="bold" font-size="14.00">validateaccountinformation()</text>
<polygon fill="none" stroke="black" points="1516,-115.5 1516,-136.5 1728,-136.5 1728,-115.5 1516,-115.5"/>
<text text-anchor="start" x="1544" y="-123.3" font-family="Times New Roman,serif" font-weight="bold" font-size="14.00">Receivenotificationpage()</text>
<polygon fill="none" stroke="black" points="1516,-94.5 1516,-115.5 1728,-115.5 1728,-94.5 1516,-94.5"/>
<text text-anchor="start" x="1572" y="-102.3" font-family="Times New Roman,serif" font-weight="bold" font-size="14.00">dataservicesdb()</text>
<polygon fill="none" stroke="black" points="1516,-73.5 1516,-94.5 1728,-94.5 1728,-73.5 1516,-73.5"/>
<text text-anchor="start" x="1536" y="-81.3" font-family="Times New Roman,serif" font-weight="bold" font-size="14.00">SubscribeDataserivcepage()</text>
<polygon fill="none" stroke="black" points="1515,-72.5 1515,-284.5 1729,-284.5 1729,-72.5 1515,-72.5"/>
</g>
<!-- EAID_C6CA01B0_6B98_4097_8318_1B3A172EC54D -->
<g id="node13" class="node"><title>EAID_C6CA01B0_6B98_4097_8318_1B3A172EC54D</title>
<polygon fill="none" stroke="black" points="547,-251.5 547,-272.5 983,-272.5 983,-251.5 547,-251.5"/>
<text text-anchor="start" x="654" y="-259.3" font-family="Times New Roman,serif" font-weight="bold" font-size="14.00">Sensor Product Configuration Form</text>
<polygon fill="none" stroke="black" points="547,-230.5 547,-251.5 983,-251.5 983,-230.5 547,-230.5"/>
<text text-anchor="start" x="696.5" y="-238.3" font-family="Times New Roman,serif" font-weight="bold" font-size="14.00">EAJava_string Config</text>
<polygon fill="none" stroke="black" points="547,-209.5 547,-230.5 983,-230.5 983,-209.5 547,-209.5"/>
<text text-anchor="start" x="707" y="-217.3" font-family="Times New Roman,serif" font-weight="bold" font-size="14.00">EAJava_date Date</text>
<polygon fill="none" stroke="black" points="547,-188.5 547,-209.5 983,-209.5 983,-188.5 547,-188.5"/>
<text text-anchor="start" x="704.5" y="-196.3" font-family="Times New Roman,serif" font-weight="bold" font-size="14.00">EAJava_float Price</text>
<polygon fill="none" stroke="black" points="547,-167.5 547,-188.5 983,-188.5 983,-167.5 547,-167.5"/>
<text text-anchor="start" x="700" y="-175.3" font-family="Times New Roman,serif" font-weight="bold" font-size="14.00">EAJava_int Quantity</text>
<polygon fill="none" stroke="black" points="547,-146.5 547,-167.5 983,-167.5 983,-146.5 547,-146.5"/>
<text text-anchor="start" x="673.5" y="-154.3" font-family="Times New Roman,serif" font-weight="bold" font-size="14.00">EAJava_int SensorProductID</text>
<polygon fill="none" stroke="black" points="547,-125.5 547,-146.5 983,-146.5 983,-125.5 547,-125.5"/>
<text text-anchor="start" x="704.5" y="-133.3" font-family="Times New Roman,serif" font-weight="bold" font-size="14.00">EAJava_int UserID</text>
<polygon fill="none" stroke="black" points="547,-104.5 547,-125.5 983,-125.5 983,-104.5 547,-104.5"/>
<text text-anchor="start" x="655" y="-112.3" font-family="Times New Roman,serif" font-weight="bold" font-size="14.00">SensorProductConfigurationForm()</text>
<polygon fill="none" stroke="black" points="547,-83.5 547,-104.5 983,-104.5 983,-83.5 547,-83.5"/>
<text text-anchor="start" x="550" y="-91.3" font-family="Times New Roman,serif" font-weight="bold" font-size="14.00">validateauthenticationinformationandchecksthevalidationofthesensor()</text>
<polygon fill="none" stroke="black" points="546,-83 546,-274 984,-274 984,-83 546,-83"/>
</g>
<!-- EAID_A1F4873A_C405_42a7_85F0_0AFD7AF6FD35 -->
<g id="node14" class="node"><title>EAID_A1F4873A_C405_42a7_85F0_0AFD7AF6FD35</title>
<polygon fill="none" stroke="black" points="294,-251.5 294,-272.5 511,-272.5 511,-251.5 294,-251.5"/>
<text text-anchor="start" x="361" y="-259.3" font-family="Times New Roman,serif" font-weight="bold" font-size="14.00">User Account</text>
<polygon fill="none" stroke="black" points="294,-230.5 294,-251.5 511,-251.5 511,-230.5 294,-230.5"/>
<text text-anchor="start" x="322.5" y="-238.3" font-family="Times New Roman,serif" font-weight="bold" font-size="14.00">EAJava_string UserEmail</text>
<polygon fill="none" stroke="black" points="294,-209.5 294,-230.5 511,-230.5 511,-209.5 294,-209.5"/>
<text text-anchor="start" x="322.5" y="-217.3" font-family="Times New Roman,serif" font-weight="bold" font-size="14.00">EAJava_string UserName</text>
<polygon fill="none" stroke="black" points="294,-188.5 294,-209.5 511,-209.5 511,-188.5 294,-188.5"/>
<text text-anchor="start" x="310.5" y="-196.3" font-family="Times New Roman,serif" font-weight="bold" font-size="14.00">EAJava_string UserPassword</text>
<polygon fill="none" stroke="black" points="294,-167.5 294,-188.5 511,-188.5 511,-167.5 294,-167.5"/>
<text text-anchor="start" x="297" y="-175.3" font-family="Times New Roman,serif" font-weight="bold" font-size="14.00">EAJava_date UserRegisteredDate</text>
<polygon fill="none" stroke="black" points="294,-146.5 294,-167.5 511,-167.5 511,-146.5 294,-146.5"/>
<text text-anchor="start" x="325" y="-154.3" font-family="Times New Roman,serif" font-weight="bold" font-size="14.00">EAJava_string UserType</text>
<polygon fill="none" stroke="black" points="294,-125.5 294,-146.5 511,-146.5 511,-125.5 294,-125.5"/>
<text text-anchor="start" x="358.5" y="-133.3" font-family="Times New Roman,serif" font-weight="bold" font-size="14.00">UserAccount()</text>
<polygon fill="none" stroke="black" points="294,-104.5 294,-125.5 511,-125.5 511,-104.5 294,-104.5"/>
<text text-anchor="start" x="338" y="-112.3" font-family="Times New Roman,serif" font-weight="bold" font-size="14.00">Createaccountpage()</text>
<polygon fill="none" stroke="black" points="294,-83.5 294,-104.5 511,-104.5 511,-83.5 294,-83.5"/>
<text text-anchor="start" x="367.5" y="-91.3" font-family="Times New Roman,serif" font-weight="bold" font-size="14.00">contentdb()</text>
<polygon fill="none" stroke="black" points="292.5,-83 292.5,-274 511.5,-274 511.5,-83 292.5,-83"/>
</g>
</g>
</svg>
