<?xml version="1.0" encoding="UTF-8" standalone="no"?>
<!DOCTYPE svg PUBLIC "-//W3C//DTD SVG 1.1//EN"
 "http://www.w3.org/Graphics/SVG/1.1/DTD/svg11.dtd">
<!-- Generated by graphviz version 2.38.0 (20140413.2041)
 -->
<!-- Title: g Pages: 1 -->
<svg width="702pt" height="165pt"
 viewBox="0.00 0.00 701.50 165.00" xmlns="http://www.w3.org/2000/svg" xmlns:xlink="http://www.w3.org/1999/xlink">
<g id="graph0" class="graph" transform="scale(1 1) rotate(0) translate(4 161)">
<title>g</title>
<polygon fill="white" stroke="none" points="-4,4 -4,-161 697.5,-161 697.5,4 -4,4"/>
<!-- cf19d93e7_afec_4fc9_81b2_a30eb58181d2 -->
<g id="node1" class="node"><title>cf19d93e7_afec_4fc9_81b2_a30eb58181d2</title>
<polygon fill="none" stroke="black" points="9.5,-130.5 9.5,-151.5 100.5,-151.5 100.5,-130.5 9.5,-130.5"/>
<text text-anchor="start" x="40.5" y="-138.3" font-family="Times New Roman,serif" font-weight="bold" font-size="14.00">Xlog</text>
<polygon fill="none" stroke="black" points="9.5,-109.5 9.5,-130.5 100.5,-130.5 100.5,-109.5 9.5,-109.5"/>
<text text-anchor="start" x="26" y="-117.3" font-family="Times New Roman,serif" font-weight="bold" font-size="14.00">onClick()</text>
<polygon fill="none" stroke="black" points="9.5,-88.5 9.5,-109.5 100.5,-109.5 100.5,-88.5 9.5,-88.5"/>
<text text-anchor="start" x="12.5" y="-96.3" font-family="Times New Roman,serif" font-weight="bold" font-size="14.00">createTread()</text>
<polygon fill="none" stroke="black" points="9.5,-67.5 9.5,-88.5 100.5,-88.5 100.5,-67.5 9.5,-67.5"/>
<text text-anchor="start" x="39.5" y="-75.3" font-family="Times New Roman,serif" font-weight="bold" font-size="14.00">run()</text>
<polygon fill="none" stroke="black" points="9.5,-46.5 9.5,-67.5 100.5,-67.5 100.5,-46.5 9.5,-46.5"/>
<text text-anchor="start" x="40.5" y="-54.3" font-family="Times New Roman,serif" font-weight="bold" font-size="14.00">init()</text>
<polygon fill="none" stroke="black" points="9.5,-25.5 9.5,-46.5 100.5,-46.5 100.5,-25.5 9.5,-25.5"/>
<text text-anchor="start" x="18.5" y="-33.3" font-family="Times New Roman,serif" font-weight="bold" font-size="14.00">toastClick()</text>
<polygon fill="none" stroke="black" points="9.5,-4.5 9.5,-25.5 100.5,-25.5 100.5,-4.5 9.5,-4.5"/>
<text text-anchor="start" x="21.5" y="-12.3" font-family="Times New Roman,serif" font-weight="bold" font-size="14.00">saveData()</text>
<polygon fill="none" stroke="black" points="8,-4 8,-153 101,-153 101,-4 8,-4"/>
</g>
<!-- c8307bf98_4b56_4ff8_bbf3_809f405c6397 -->
<g id="node2" class="node"><title>c8307bf98_4b56_4ff8_bbf3_809f405c6397</title>
<polygon fill="none" stroke="black" points="136.5,-67.5 136.5,-88.5 241.5,-88.5 241.5,-67.5 136.5,-67.5"/>
<text text-anchor="start" x="139.5" y="-75.3" font-family="Times New Roman,serif" font-weight="bold" font-size="14.00">ContentHandler</text>
<polygon fill="none" stroke="black" points="135,-67 135,-90 242,-90 242,-67 135,-67"/>
</g>
<!-- c6fa30b71_1d45_4719_b7d0_03c887b01ffd -->
<g id="node3" class="node"><title>c6fa30b71_1d45_4719_b7d0_03c887b01ffd</title>
<polygon fill="none" stroke="black" points="277.5,-67.5 277.5,-88.5 404.5,-88.5 404.5,-67.5 277.5,-67.5"/>
<text text-anchor="start" x="280.5" y="-75.3" font-family="Times New Roman,serif" font-weight="bold" font-size="14.00">NewProcessService</text>
<polygon fill="none" stroke="black" points="276,-67 276,-90 405,-90 405,-67 276,-67"/>
</g>
<!-- c285ed66d_0833_4778_82c5_8f45eb389fe0 -->
<g id="node4" class="node"><title>c285ed66d_0833_4778_82c5_8f45eb389fe0</title>
<polygon fill="none" stroke="black" points="440.5,-67.5 440.5,-88.5 684.5,-88.5 684.5,-67.5 440.5,-67.5"/>
<text text-anchor="start" x="443.5" y="-75.3" font-family="Times New Roman,serif" font-weight="bold" font-size="14.00">NewProcessServiceNewProcessBinder</text>
<polygon fill="none" stroke="black" points="439.5,-67 439.5,-90 685.5,-90 685.5,-67 439.5,-67"/>
</g>
</g>
</svg>
