<?xml version="1.0" encoding="UTF-8" standalone="no"?>
<!DOCTYPE svg PUBLIC "-//W3C//DTD SVG 1.1//EN"
 "http://www.w3.org/Graphics/SVG/1.1/DTD/svg11.dtd">
<!-- Generated by graphviz version 2.38.0 (20140413.2041)
 -->
<!-- Title: class_diagram Pages: 1 -->
<svg width="423pt" height="45pt"
 viewBox="0.00 0.00 422.50 45.00" xmlns="http://www.w3.org/2000/svg" xmlns:xlink="http://www.w3.org/1999/xlink">
<g id="graph0" class="graph" transform="scale(1 1) rotate(0) translate(4 41)">
<title>class_diagram</title>
<polygon fill="white" stroke="none" points="-4,4 -4,-41 418.5,-41 418.5,4 -4,4"/>
<!-- cf19d93e7_afec_4fc9_81b2_a30eb58181d2 -->
<g id="cf19d93e7_afec_4fc9_81b2_a30eb58181d2" class="node"><title>cf19d93e7_afec_4fc9_81b2_a30eb58181d2</title>
<polygon fill="none" stroke="black" points="0,-0.5 0,-36.5 54,-36.5 54,-0.5 0,-0.5"/>
<text text-anchor="middle" x="27" y="-21.6" font-family="Times New Roman,serif" font-size="8.00">Xlog</text>
<polyline fill="none" stroke="black" points="0,-10.5 54,-10.5 "/>
</g>
<!-- c8307bf98_4b56_4ff8_bbf3_809f405c6397 -->
<g id="c8307bf98_4b56_4ff8_bbf3_809f405c6397" class="node"><title>c8307bf98_4b56_4ff8_bbf3_809f405c6397</title>
<polygon fill="none" stroke="black" points="72,-0.5 72,-36.5 144,-36.5 144,-0.5 72,-0.5"/>
<text text-anchor="middle" x="108" y="-16.6" font-family="Times New Roman,serif" font-size="8.00">ContentHandler</text>
</g>
<!-- c6fa30b71_1d45_4719_b7d0_03c887b01ffd -->
<g id="c6fa30b71_1d45_4719_b7d0_03c887b01ffd" class="node"><title>c6fa30b71_1d45_4719_b7d0_03c887b01ffd</title>
<polygon fill="none" stroke="black" points="162.5,-0.5 162.5,-36.5 245.5,-36.5 245.5,-0.5 162.5,-0.5"/>
<text text-anchor="middle" x="204" y="-16.6" font-family="Times New Roman,serif" font-size="8.00">NewProcessService</text>
</g>
<!-- c285ed66d_0833_4778_82c5_8f45eb389fe0 -->
<g id="c285ed66d_0833_4778_82c5_8f45eb389fe0" class="node"><title>c285ed66d_0833_4778_82c5_8f45eb389fe0</title>
<polygon fill="none" stroke="black" points="263.5,-0.5 263.5,-36.5 414.5,-36.5 414.5,-0.5 263.5,-0.5"/>
<text text-anchor="middle" x="339" y="-16.6" font-family="Times New Roman,serif" font-size="8.00">NewProcessService$NewProcessBinder</text>
</g>
</g>
</svg>
