<?xml version="1.0" encoding="UTF-8" standalone="no"?>
<!DOCTYPE svg PUBLIC "-//W3C//DTD SVG 1.1//EN"
 "http://www.w3.org/Graphics/SVG/1.1/DTD/svg11.dtd">
<!-- Generated by graphviz version 2.38.0 (20140413.2041)
 -->
<!-- Title: g Pages: 1 -->
<svg width="1497pt" height="1223pt"
 viewBox="0.00 0.00 1497.00 1223.00" xmlns="http://www.w3.org/2000/svg" xmlns:xlink="http://www.w3.org/1999/xlink">
<g id="graph0" class="graph" transform="scale(1 1) rotate(0) translate(4 1219)">
<title>g</title>
<polygon fill="white" stroke="none" points="-4,4 -4,-1219 1493,-1219 1493,4 -4,4"/>
<g id="clust1" class="cluster"><title>cluster0</title>
<polygon fill="none" stroke="black" stroke-width="2" points="466,-64 466,-1096 975,-1096 975,-64 466,-64"/>
<text text-anchor="start" x="698.5" y="-1081.8" font-family="Times New Roman,serif" font-weight="bold" font-size="14.00">System</text>
</g>
<g id="clust2" class="cluster"><title>cluster1</title>
<polygon fill="none" stroke="black" stroke-width="2" points="8,-1104 8,-1207 1039,-1207 1039,-1104 8,-1104"/>
<text text-anchor="start" x="475" y="-1192.8" font-family="Times New Roman,serif" font-weight="bold" font-size="14.00">Business Parter</text>
</g>
<!-- EAID_72094780_D1D8_4e2b_901F_7D0D4D156E52___EAID_673A45CC_66D6_4725_A09C_98C105DD593F -->
<g id="node1" class="node"><title>EAID_72094780_D1D8_4e2b_901F_7D0D4D156E52___EAID_673A45CC_66D6_4725_A09C_98C105DD593F</title>
<image xlink:href="img/activity_icon.png" width="30px" height="20px" preserveAspectRatio="xMinYMin meet" x="572.5" y="-652"/>
<text text-anchor="start" x="485" y="-617.8" font-family="Times New Roman,serif" font-weight="bold" font-size="14.00">Business Parter:Buy Subscription</text>
<text text-anchor="start" x="527" y="-603.8" font-family="Times New Roman,serif" font-weight="bold" font-size="14.00">Comfirmation Page</text>
</g>
<!-- EAID_673A45CC_66D6_4725_A09C_98C105DD593F___EAID_78877F71_A878_4bbc_A85F_700C53609FFA -->
<g id="node5" class="node"><title>EAID_673A45CC_66D6_4725_A09C_98C105DD593F___EAID_78877F71_A878_4bbc_A85F_700C53609FFA</title>
<image xlink:href="img/activity_icon.png" width="30px" height="20px" preserveAspectRatio="xMinYMin meet" x="827" y="-545"/>
<text text-anchor="start" x="745" y="-510.8" font-family="Times New Roman,serif" font-weight="bold" font-size="14.00">Buy Subscription Comfirmation</text>
<text text-anchor="start" x="753" y="-496.8" font-family="Times New Roman,serif" font-weight="bold" font-size="14.00">Page:Marked as Subscirpted</text>
</g>
<!-- EAID_72094780_D1D8_4e2b_901F_7D0D4D156E52___EAID_673A45CC_66D6_4725_A09C_98C105DD593F&#45;&gt;EAID_673A45CC_66D6_4725_A09C_98C105DD593F___EAID_78877F71_A878_4bbc_A85F_700C53609FFA -->
<g id="edge1" class="edge"><title>EAID_72094780_D1D8_4e2b_901F_7D0D4D156E52___EAID_673A45CC_66D6_4725_A09C_98C105DD593F&#45;&gt;EAID_673A45CC_66D6_4725_A09C_98C105DD593F___EAID_78877F71_A878_4bbc_A85F_700C53609FFA</title>
<path fill="none" stroke="black" d="M662.473,-593.923C692.153,-581.702 726.373,-567.611 756.925,-555.031"/>
<polygon fill="black" stroke="black" points="758.365,-558.223 766.28,-551.179 755.7,-551.75 758.365,-558.223"/>
</g>
<!-- EAID_93A0D65A_E9F5_4e29_9293_3F4A442BBD74 -->
<g id="node18" class="node"><title>EAID_93A0D65A_E9F5_4e29_9293_3F4A442BBD74</title>
<text text-anchor="middle" x="1146" y="-515.3" font-family="Times New Roman,serif" font-size="14.00">EAID_93A0D65A_E9F5_4e29_9293_3F4A442BBD74</text>
</g>
<!-- EAID_72094780_D1D8_4e2b_901F_7D0D4D156E52___EAID_673A45CC_66D6_4725_A09C_98C105DD593F&#45;&gt;EAID_93A0D65A_E9F5_4e29_9293_3F4A442BBD74 -->
<g id="edge17" class="edge"><title>EAID_72094780_D1D8_4e2b_901F_7D0D4D156E52___EAID_673A45CC_66D6_4725_A09C_98C105DD593F&#45;&gt;EAID_93A0D65A_E9F5_4e29_9293_3F4A442BBD74</title>
<path fill="none" stroke="black" stroke-dasharray="5,2" d="M681.153,-593.943C690.505,-591.38 699.902,-589.008 709,-587 827.216,-560.906 859.447,-570.054 979,-551 1001.7,-547.382 1026.07,-543.092 1048.97,-538.876"/>
<polygon fill="black" stroke="black" points="1049.84,-542.274 1059.04,-537.011 1048.57,-535.391 1049.84,-542.274"/>
</g>
<!-- EAID_72094780_D1D8_4e2b_901F_7D0D4D156E52___EAID_12E5F34A_7160_4bea_ABDF_B56F7B43107D -->
<g id="node2" class="node"><title>EAID_72094780_D1D8_4e2b_901F_7D0D4D156E52___EAID_12E5F34A_7160_4bea_ABDF_B56F7B43107D</title>
<image xlink:href="img/activity_icon.png" width="30px" height="20px" preserveAspectRatio="xMinYMin meet" x="558.5" y="-251"/>
<text text-anchor="start" x="485" y="-216.8" font-family="Times New Roman,serif" font-weight="bold" font-size="14.00">Business Parter:Buy Success</text>
<text text-anchor="start" x="558" y="-202.8" font-family="Times New Roman,serif" font-weight="bold" font-size="14.00">Page</text>
</g>
<!-- EAID_12E5F34A_7160_4bea_ABDF_B56F7B43107D___EAID_2B4B190F_6919_476d_A06E_4FA813FC6CAE -->
<g id="node10" class="node"><title>EAID_12E5F34A_7160_4bea_ABDF_B56F7B43107D___EAID_2B4B190F_6919_476d_A06E_4FA813FC6CAE</title>
<image xlink:href="img/activity_icon.png" width="30px" height="20px" preserveAspectRatio="xMinYMin meet" x="780" y="-144"/>
<text text-anchor="start" x="715" y="-109.8" font-family="Times New Roman,serif" font-weight="bold" font-size="14.00">Buy Success Page:Display</text>
<text text-anchor="start" x="720" y="-95.8" font-family="Times New Roman,serif" font-weight="bold" font-size="14.00">Home Page(Designed by</text>
<text text-anchor="start" x="761.5" y="-81.8" font-family="Times New Roman,serif" font-weight="bold" font-size="14.00">other part)</text>
</g>
<!-- EAID_72094780_D1D8_4e2b_901F_7D0D4D156E52___EAID_12E5F34A_7160_4bea_ABDF_B56F7B43107D&#45;&gt;EAID_12E5F34A_7160_4bea_ABDF_B56F7B43107D___EAID_2B4B190F_6919_476d_A06E_4FA813FC6CAE -->
<g id="edge3" class="edge"><title>EAID_72094780_D1D8_4e2b_901F_7D0D4D156E52___EAID_12E5F34A_7160_4bea_ABDF_B56F7B43107D&#45;&gt;EAID_12E5F34A_7160_4bea_ABDF_B56F7B43107D___EAID_2B4B190F_6919_476d_A06E_4FA813FC6CAE</title>
<path fill="none" stroke="black" d="M634.545,-192.95C657.973,-181.131 685.096,-167.447 710.3,-154.732"/>
<polygon fill="black" stroke="black" points="712.137,-157.725 719.488,-150.096 708.984,-151.476 712.137,-157.725"/>
</g>
<!-- EAID_CEA5660E_BD2E_44b6_9FF1_650F138632BD -->
<g id="node19" class="node"><title>EAID_CEA5660E_BD2E_44b6_9FF1_650F138632BD</title>
<text text-anchor="middle" x="1160" y="-107.3" font-family="Times New Roman,serif" font-size="14.00">EAID_CEA5660E_BD2E_44b6_9FF1_650F138632BD</text>
</g>
<!-- EAID_72094780_D1D8_4e2b_901F_7D0D4D156E52___EAID_12E5F34A_7160_4bea_ABDF_B56F7B43107D&#45;&gt;EAID_CEA5660E_BD2E_44b6_9FF1_650F138632BD -->
<g id="edge18" class="edge"><title>EAID_72094780_D1D8_4e2b_901F_7D0D4D156E52___EAID_12E5F34A_7160_4bea_ABDF_B56F7B43107D&#45;&gt;EAID_CEA5660E_BD2E_44b6_9FF1_650F138632BD</title>
<path fill="none" stroke="black" stroke-dasharray="5,2" d="M654.525,-192.969C663.051,-190.35 671.652,-187.959 680,-186 810.308,-155.416 846.934,-171.771 979,-150 1010.74,-144.768 1045.35,-137.812 1075.73,-131.282"/>
<polygon fill="black" stroke="black" points="1076.83,-134.626 1085.86,-129.087 1075.35,-127.785 1076.83,-134.626"/>
</g>
<!-- EAID_72094780_D1D8_4e2b_901F_7D0D4D156E52___EAID_A9ED6F57_AE4D_4755_800C_C23AC0702A50 -->
<g id="node3" class="node"><title>EAID_72094780_D1D8_4e2b_901F_7D0D4D156E52___EAID_A9ED6F57_AE4D_4755_800C_C23AC0702A50</title>
<image xlink:href="img/activity_icon.png" width="30px" height="20px" preserveAspectRatio="xMinYMin meet" x="596.5" y="-859"/>
<text text-anchor="start" x="509" y="-824.8" font-family="Times New Roman,serif" font-weight="bold" font-size="14.00">Business Parter:Buy Subscription</text>
<text text-anchor="start" x="587.5" y="-810.8" font-family="Times New Roman,serif" font-weight="bold" font-size="14.00">Page(1)</text>
</g>
<!-- EAID_A9ED6F57_AE4D_4755_800C_C23AC0702A50___EAID_143A503B_5198_48e3_9655_B677B7C8956E -->
<g id="node7" class="node"><title>EAID_A9ED6F57_AE4D_4755_800C_C23AC0702A50___EAID_143A503B_5198_48e3_9655_B677B7C8956E</title>
<image xlink:href="img/activity_icon.png" width="30px" height="20px" preserveAspectRatio="xMinYMin meet" x="833.5" y="-759"/>
<text text-anchor="start" x="746" y="-724.8" font-family="Times New Roman,serif" font-weight="bold" font-size="14.00">Buy Subscription Page(1):Display</text>
<text text-anchor="start" x="748" y="-710.8" font-family="Times New Roman,serif" font-weight="bold" font-size="14.00">Subscription Comfirmation Page</text>
</g>
<!-- EAID_72094780_D1D8_4e2b_901F_7D0D4D156E52___EAID_A9ED6F57_AE4D_4755_800C_C23AC0702A50&#45;&gt;EAID_A9ED6F57_AE4D_4755_800C_C23AC0702A50___EAID_143A503B_5198_48e3_9655_B677B7C8956E -->
<g id="edge5" class="edge"><title>EAID_72094780_D1D8_4e2b_901F_7D0D4D156E52___EAID_A9ED6F57_AE4D_4755_800C_C23AC0702A50&#45;&gt;EAID_A9ED6F57_AE4D_4755_800C_C23AC0702A50___EAID_143A503B_5198_48e3_9655_B677B7C8956E</title>
<path fill="none" stroke="black" d="M685.988,-800.992C710.519,-790.849 737.939,-779.51 763.145,-769.088"/>
<polygon fill="black" stroke="black" points="764.782,-772.198 772.686,-765.142 762.108,-765.729 764.782,-772.198"/>
</g>
<!-- EAID_72094780_D1D8_4e2b_901F_7D0D4D156E52___EAID_A9ED6F57_AE4D_4755_800C_C23AC0702A50&#45;&gt;EAID_CEA5660E_BD2E_44b6_9FF1_650F138632BD -->
<g id="edge19" class="edge"><title>EAID_72094780_D1D8_4e2b_901F_7D0D4D156E52___EAID_A9ED6F57_AE4D_4755_800C_C23AC0702A50&#45;&gt;EAID_CEA5660E_BD2E_44b6_9FF1_650F138632BD</title>
<path fill="none" stroke="black" stroke-dasharray="5,2" d="M723.578,-802.966C726.749,-802.286 729.894,-801.629 733,-801 877.873,-771.664 1375,-774.814 1375,-627 1375,-627 1375,-627 1375,-331 1375,-235.781 1270.22,-166.78 1206.96,-133.795"/>
<polygon fill="black" stroke="black" points="1208.44,-130.622 1197.94,-129.19 1205.26,-136.856 1208.44,-130.622"/>
</g>
<!-- EAID_72094780_D1D8_4e2b_901F_7D0D4D156E52___EAID_9B6DABB6_AB77_42d7_9631_92901B69FB54 -->
<g id="node4" class="node"><title>EAID_72094780_D1D8_4e2b_901F_7D0D4D156E52___EAID_9B6DABB6_AB77_42d7_9631_92901B69FB54</title>
<image xlink:href="img/activity_icon.png" width="30px" height="20px" preserveAspectRatio="xMinYMin meet" x="839.5" y="-1059"/>
<text text-anchor="start" x="752" y="-1024.8" font-family="Times New Roman,serif" font-weight="bold" font-size="14.00">Business Parter:Buy Subscription</text>
<text text-anchor="start" x="830.5" y="-1010.8" font-family="Times New Roman,serif" font-weight="bold" font-size="14.00">Page(1)</text>
</g>
<!-- EAID_9B6DABB6_AB77_42d7_9631_92901B69FB54___EAID_F7D1E62B_3F7B_4c43_BE67_7E12BC6EFD94 -->
<g id="node9" class="node"><title>EAID_9B6DABB6_AB77_42d7_9631_92901B69FB54___EAID_F7D1E62B_3F7B_4c43_BE67_7E12BC6EFD94</title>
<image xlink:href="img/activity_icon.png" width="30px" height="20px" preserveAspectRatio="xMinYMin meet" x="839.5" y="-959"/>
<text text-anchor="start" x="752" y="-924.8" font-family="Times New Roman,serif" font-weight="bold" font-size="14.00">Buy Subscription Page(1):Display</text>
<text text-anchor="start" x="790.5" y="-910.8" font-family="Times New Roman,serif" font-weight="bold" font-size="14.00">Subscription Page(2)</text>
</g>
<!-- EAID_72094780_D1D8_4e2b_901F_7D0D4D156E52___EAID_9B6DABB6_AB77_42d7_9631_92901B69FB54&#45;&gt;EAID_9B6DABB6_AB77_42d7_9631_92901B69FB54___EAID_F7D1E62B_3F7B_4c43_BE67_7E12BC6EFD94 -->
<g id="edge7" class="edge"><title>EAID_72094780_D1D8_4e2b_901F_7D0D4D156E52___EAID_9B6DABB6_AB77_42d7_9631_92901B69FB54&#45;&gt;EAID_9B6DABB6_AB77_42d7_9631_92901B69FB54___EAID_F7D1E62B_3F7B_4c43_BE67_7E12BC6EFD94</title>
<path fill="none" stroke="black" d="M854,-1000.99C854,-992.859 854,-983.959 854,-975.378"/>
<polygon fill="black" stroke="black" points="857.5,-975.142 854,-965.142 850.5,-975.142 857.5,-975.142"/>
</g>
<!-- EAID_72094780_D1D8_4e2b_901F_7D0D4D156E52___EAID_9B6DABB6_AB77_42d7_9631_92901B69FB54&#45;&gt;EAID_CEA5660E_BD2E_44b6_9FF1_650F138632BD -->
<g id="edge20" class="edge"><title>EAID_72094780_D1D8_4e2b_901F_7D0D4D156E52___EAID_9B6DABB6_AB77_42d7_9631_92901B69FB54&#45;&gt;EAID_CEA5660E_BD2E_44b6_9FF1_650F138632BD</title>
<path fill="none" stroke="black" stroke-dasharray="5,2" d="M966.794,-1020.22C1149.27,-998.003 1489,-942.116 1489,-834 1489,-834 1489,-834 1489,-331 1489,-259.048 1472.26,-232.084 1417,-186 1385.29,-159.557 1344.61,-142.556 1305.01,-131.627"/>
<polygon fill="black" stroke="black" points="1305.8,-128.217 1295.24,-129.046 1304.01,-134.985 1305.8,-128.217"/>
</g>
<!-- EAID_78877F71_A878_4bbc_A85F_700C53609FFA___EAID_1A4E7527_4905_45c0_A87A_A6094D00AAF2 -->
<g id="node13" class="node"><title>EAID_78877F71_A878_4bbc_A85F_700C53609FFA___EAID_1A4E7527_4905_45c0_A87A_A6094D00AAF2</title>
<image xlink:href="img/activity_icon.png" width="30px" height="20px" preserveAspectRatio="xMinYMin meet" x="827.5" y="-444.5"/>
<text text-anchor="start" x="731" y="-410.3" font-family="Times New Roman,serif" font-weight="bold" font-size="14.00">Marked as Subscirpted:Subscription</text>
</g>
<!-- EAID_673A45CC_66D6_4725_A09C_98C105DD593F___EAID_78877F71_A878_4bbc_A85F_700C53609FFA&#45;&gt;EAID_78877F71_A878_4bbc_A85F_700C53609FFA___EAID_1A4E7527_4905_45c0_A87A_A6094D00AAF2 -->
<g id="edge9" class="edge"><title>EAID_673A45CC_66D6_4725_A09C_98C105DD593F___EAID_78877F71_A878_4bbc_A85F_700C53609FFA&#45;&gt;EAID_78877F71_A878_4bbc_A85F_700C53609FFA___EAID_1A4E7527_4905_45c0_A87A_A6094D00AAF2</title>
<path fill="none" stroke="black" d="M842,-486.767C842,-478.613 842,-469.773 842,-461.44"/>
<polygon fill="black" stroke="black" points="845.5,-461.246 842,-451.246 838.5,-461.246 845.5,-461.246"/>
</g>
<!-- EAID_673A45CC_66D6_4725_A09C_98C105DD593F___EAID_78877F71_A878_4bbc_A85F_700C53609FFA&#45;&gt;EAID_CEA5660E_BD2E_44b6_9FF1_650F138632BD -->
<g id="edge21" class="edge"><title>EAID_673A45CC_66D6_4725_A09C_98C105DD593F___EAID_78877F71_A878_4bbc_A85F_700C53609FFA&#45;&gt;EAID_CEA5660E_BD2E_44b6_9FF1_650F138632BD</title>
<path fill="none" stroke="black" stroke-dasharray="5,2" d="M921.466,-486.886C939.8,-477.247 958.233,-465.311 973,-451 1070.19,-356.812 1130.18,-201.072 1151.36,-138.873"/>
<polygon fill="black" stroke="black" points="1154.79,-139.641 1154.65,-129.047 1148.15,-137.42 1154.79,-139.641"/>
</g>
<!-- EAID_143A503B_5198_48e3_9655_B677B7C8956E___EAID_673A45CC_66D6_4725_A09C_98C105DD593F -->
<g id="node6" class="node"><title>EAID_143A503B_5198_48e3_9655_B677B7C8956E___EAID_673A45CC_66D6_4725_A09C_98C105DD593F</title>
<image xlink:href="img/activity_icon.png" width="30px" height="20px" preserveAspectRatio="xMinYMin meet" x="827.5" y="-659"/>
<text text-anchor="start" x="734.5" y="-624.8" font-family="Times New Roman,serif" font-weight="bold" font-size="14.00">Display Subscription Comfirmation</text>
<text text-anchor="start" x="728" y="-610.8" font-family="Times New Roman,serif" font-weight="bold" font-size="14.00">Page:Buy Subscription Comfirmation</text>
<text text-anchor="start" x="827" y="-596.8" font-family="Times New Roman,serif" font-weight="bold" font-size="14.00">Page</text>
</g>
<!-- EAID_143A503B_5198_48e3_9655_B677B7C8956E___EAID_673A45CC_66D6_4725_A09C_98C105DD593F&#45;&gt;EAID_673A45CC_66D6_4725_A09C_98C105DD593F___EAID_78877F71_A878_4bbc_A85F_700C53609FFA -->
<g id="edge10" class="edge"><title>EAID_143A503B_5198_48e3_9655_B677B7C8956E___EAID_673A45CC_66D6_4725_A09C_98C105DD593F&#45;&gt;EAID_673A45CC_66D6_4725_A09C_98C105DD593F___EAID_78877F71_A878_4bbc_A85F_700C53609FFA</title>
<path fill="none" stroke="black" d="M842,-586.796C842,-578.458 842,-569.6 842,-561.153"/>
<polygon fill="black" stroke="black" points="845.5,-561.117 842,-551.117 838.5,-561.117 845.5,-561.117"/>
</g>
<!-- EAID_143A503B_5198_48e3_9655_B677B7C8956E___EAID_673A45CC_66D6_4725_A09C_98C105DD593F&#45;&gt;EAID_93A0D65A_E9F5_4e29_9293_3F4A442BBD74 -->
<g id="edge22" class="edge"><title>EAID_143A503B_5198_48e3_9655_B677B7C8956E___EAID_673A45CC_66D6_4725_A09C_98C105DD593F&#45;&gt;EAID_93A0D65A_E9F5_4e29_9293_3F4A442BBD74</title>
<path fill="none" stroke="black" stroke-dasharray="5,2" d="M952.181,-586.944C997.572,-571.266 1048.36,-553.725 1086.55,-540.533"/>
<polygon fill="black" stroke="black" points="1088.17,-543.677 1096.48,-537.104 1085.88,-537.061 1088.17,-543.677"/>
</g>
<!-- EAID_A9ED6F57_AE4D_4755_800C_C23AC0702A50___EAID_143A503B_5198_48e3_9655_B677B7C8956E&#45;&gt;EAID_143A503B_5198_48e3_9655_B677B7C8956E___EAID_673A45CC_66D6_4725_A09C_98C105DD593F -->
<g id="edge11" class="edge"><title>EAID_A9ED6F57_AE4D_4755_800C_C23AC0702A50___EAID_143A503B_5198_48e3_9655_B677B7C8956E&#45;&gt;EAID_143A503B_5198_48e3_9655_B677B7C8956E___EAID_673A45CC_66D6_4725_A09C_98C105DD593F</title>
<path fill="none" stroke="black" d="M846.216,-700.781C845.759,-692.786 845.257,-683.999 844.764,-675.362"/>
<polygon fill="black" stroke="black" points="848.256,-675.132 844.191,-665.348 841.268,-675.532 848.256,-675.132"/>
</g>
<!-- EAID_02074B64_AFA1_48ec_BCA5_328787D1DBA8 -->
<g id="node20" class="node"><title>EAID_02074B64_AFA1_48ec_BCA5_328787D1DBA8</title>
<text text-anchor="middle" x="967" y="-14.3" font-family="Times New Roman,serif" font-size="14.00">EAID_02074B64_AFA1_48ec_BCA5_328787D1DBA8</text>
</g>
<!-- EAID_A9ED6F57_AE4D_4755_800C_C23AC0702A50___EAID_143A503B_5198_48e3_9655_B677B7C8956E&#45;&gt;EAID_02074B64_AFA1_48ec_BCA5_328787D1DBA8 -->
<g id="edge23" class="edge"><title>EAID_A9ED6F57_AE4D_4755_800C_C23AC0702A50___EAID_143A503B_5198_48e3_9655_B677B7C8956E&#45;&gt;EAID_02074B64_AFA1_48ec_BCA5_328787D1DBA8</title>
<path fill="none" stroke="black" stroke-dasharray="5,2" d="M960.8,-730.578C1105.21,-722.098 1337,-683.086 1337,-520 1337,-520 1337,-520 1337,-331 1337,-212.326 1413.14,-152.432 1334,-64 1320.44,-48.8437 1230.35,-37.6649 1142.83,-30.2401"/>
<polygon fill="black" stroke="black" points="1142.99,-26.7408 1132.73,-29.3983 1142.41,-33.7167 1142.99,-26.7408"/>
</g>
<!-- EAID_F7D1E62B_3F7B_4c43_BE67_7E12BC6EFD94___EAID_A9ED6F57_AE4D_4755_800C_C23AC0702A50 -->
<g id="node8" class="node"><title>EAID_F7D1E62B_3F7B_4c43_BE67_7E12BC6EFD94___EAID_A9ED6F57_AE4D_4755_800C_C23AC0702A50</title>
<image xlink:href="img/activity_icon.png" width="30px" height="20px" preserveAspectRatio="xMinYMin meet" x="839.5" y="-859"/>
<text text-anchor="start" x="752" y="-824.8" font-family="Times New Roman,serif" font-weight="bold" font-size="14.00">Display Subscription Page(2):Buy</text>
<text text-anchor="start" x="790.5" y="-810.8" font-family="Times New Roman,serif" font-weight="bold" font-size="14.00">Subscription Page(1)</text>
</g>
<!-- EAID_F7D1E62B_3F7B_4c43_BE67_7E12BC6EFD94___EAID_A9ED6F57_AE4D_4755_800C_C23AC0702A50&#45;&gt;EAID_A9ED6F57_AE4D_4755_800C_C23AC0702A50___EAID_143A503B_5198_48e3_9655_B677B7C8956E -->
<g id="edge12" class="edge"><title>EAID_F7D1E62B_3F7B_4c43_BE67_7E12BC6EFD94___EAID_A9ED6F57_AE4D_4755_800C_C23AC0702A50&#45;&gt;EAID_A9ED6F57_AE4D_4755_800C_C23AC0702A50___EAID_143A503B_5198_48e3_9655_B677B7C8956E</title>
<path fill="none" stroke="black" d="M852.102,-800.992C851.604,-792.859 851.059,-783.959 850.533,-775.378"/>
<polygon fill="black" stroke="black" points="854.011,-774.91 849.907,-765.142 847.024,-775.338 854.011,-774.91"/>
</g>
<!-- EAID_F7D1E62B_3F7B_4c43_BE67_7E12BC6EFD94___EAID_A9ED6F57_AE4D_4755_800C_C23AC0702A50&#45;&gt;EAID_CEA5660E_BD2E_44b6_9FF1_650F138632BD -->
<g id="edge24" class="edge"><title>EAID_F7D1E62B_3F7B_4c43_BE67_7E12BC6EFD94___EAID_A9ED6F57_AE4D_4755_800C_C23AC0702A50&#45;&gt;EAID_CEA5660E_BD2E_44b6_9FF1_650F138632BD</title>
<path fill="none" stroke="black" stroke-dasharray="5,2" d="M966.522,-824.985C1114.4,-814.7 1359,-793.604 1389,-765 1434.06,-722.04 1413,-689.254 1413,-627 1413,-627 1413,-627 1413,-331 1413,-265.679 1431.63,-235.489 1389,-186 1366.66,-160.071 1335.17,-143.158 1302.68,-132.148"/>
<polygon fill="black" stroke="black" points="1303.62,-128.775 1293.03,-129.056 1301.49,-135.441 1303.62,-128.775"/>
</g>
<!-- EAID_9B6DABB6_AB77_42d7_9631_92901B69FB54___EAID_F7D1E62B_3F7B_4c43_BE67_7E12BC6EFD94&#45;&gt;EAID_F7D1E62B_3F7B_4c43_BE67_7E12BC6EFD94___EAID_A9ED6F57_AE4D_4755_800C_C23AC0702A50 -->
<g id="edge13" class="edge"><title>EAID_9B6DABB6_AB77_42d7_9631_92901B69FB54___EAID_F7D1E62B_3F7B_4c43_BE67_7E12BC6EFD94&#45;&gt;EAID_F7D1E62B_3F7B_4c43_BE67_7E12BC6EFD94___EAID_A9ED6F57_AE4D_4755_800C_C23AC0702A50</title>
<path fill="none" stroke="black" d="M854,-900.992C854,-892.859 854,-883.959 854,-875.378"/>
<polygon fill="black" stroke="black" points="857.5,-875.142 854,-865.142 850.5,-875.142 857.5,-875.142"/>
</g>
<!-- EAID_9B6DABB6_AB77_42d7_9631_92901B69FB54___EAID_F7D1E62B_3F7B_4c43_BE67_7E12BC6EFD94&#45;&gt;EAID_02074B64_AFA1_48ec_BCA5_328787D1DBA8 -->
<g id="edge25" class="edge"><title>EAID_9B6DABB6_AB77_42d7_9631_92901B69FB54___EAID_F7D1E62B_3F7B_4c43_BE67_7E12BC6EFD94&#45;&gt;EAID_02074B64_AFA1_48ec_BCA5_328787D1DBA8</title>
<path fill="none" stroke="black" stroke-dasharray="5,2" d="M966.642,-918.016C1139.65,-893.351 1451,-834.939 1451,-734 1451,-734 1451,-734 1451,-224 1451,-143.268 1431.85,-109.258 1365,-64 1328.71,-39.4365 1231.7,-28.152 1142.54,-23.0252"/>
<polygon fill="black" stroke="black" points="1142.73,-19.5303 1132.55,-22.4742 1142.35,-26.5197 1142.73,-19.5303"/>
</g>
<!-- EAID_12E5F34A_7160_4bea_ABDF_B56F7B43107D___EAID_2B4B190F_6919_476d_A06E_4FA813FC6CAE&#45;&gt;EAID_02074B64_AFA1_48ec_BCA5_328787D1DBA8 -->
<g id="edge26" class="edge"><title>EAID_12E5F34A_7160_4bea_ABDF_B56F7B43107D___EAID_2B4B190F_6919_476d_A06E_4FA813FC6CAE&#45;&gt;EAID_02074B64_AFA1_48ec_BCA5_328787D1DBA8</title>
<path fill="none" stroke="black" stroke-dasharray="5,2" d="M866.947,-71.9351C887.015,-61.3176 908.132,-50.145 925.768,-40.8148"/>
<polygon fill="black" stroke="black" points="927.446,-43.8867 934.648,-36.1164 924.172,-37.6993 927.446,-43.8867"/>
</g>
<!-- EAID_2761F49E_37B9_4bb9_99E8_FDF4E0E97349___EAID_12E5F34A_7160_4bea_ABDF_B56F7B43107D -->
<g id="node11" class="node"><title>EAID_2761F49E_37B9_4bb9_99E8_FDF4E0E97349___EAID_12E5F34A_7160_4bea_ABDF_B56F7B43107D</title>
<image xlink:href="img/activity_icon.png" width="30px" height="20px" preserveAspectRatio="xMinYMin meet" x="780.5" y="-258"/>
<text text-anchor="start" x="746.5" y="-223.8" font-family="Times New Roman,serif" font-weight="bold" font-size="14.00">Display Buy My</text>
<text text-anchor="start" x="700" y="-209.8" font-family="Times New Roman,serif" font-weight="bold" font-size="14.00">Subscription Success Page:Buy</text>
<text text-anchor="start" x="754" y="-195.8" font-family="Times New Roman,serif" font-weight="bold" font-size="14.00">Success Page</text>
</g>
<!-- EAID_2761F49E_37B9_4bb9_99E8_FDF4E0E97349___EAID_12E5F34A_7160_4bea_ABDF_B56F7B43107D&#45;&gt;EAID_12E5F34A_7160_4bea_ABDF_B56F7B43107D___EAID_2B4B190F_6919_476d_A06E_4FA813FC6CAE -->
<g id="edge14" class="edge"><title>EAID_2761F49E_37B9_4bb9_99E8_FDF4E0E97349___EAID_12E5F34A_7160_4bea_ABDF_B56F7B43107D&#45;&gt;EAID_12E5F34A_7160_4bea_ABDF_B56F7B43107D___EAID_2B4B190F_6919_476d_A06E_4FA813FC6CAE</title>
<path fill="none" stroke="black" d="M795,-185.769C795,-177.57 795,-168.803 795,-160.28"/>
<polygon fill="black" stroke="black" points="798.5,-160.058 795,-150.058 791.5,-160.059 798.5,-160.058"/>
</g>
<!-- EAID_2761F49E_37B9_4bb9_99E8_FDF4E0E97349___EAID_12E5F34A_7160_4bea_ABDF_B56F7B43107D&#45;&gt;EAID_CEA5660E_BD2E_44b6_9FF1_650F138632BD -->
<g id="edge27" class="edge"><title>EAID_2761F49E_37B9_4bb9_99E8_FDF4E0E97349___EAID_12E5F34A_7160_4bea_ABDF_B56F7B43107D&#45;&gt;EAID_CEA5660E_BD2E_44b6_9FF1_650F138632BD</title>
<path fill="none" stroke="black" stroke-dasharray="5,2" d="M900.573,-191.605C963.306,-172.356 1040.88,-148.551 1094.78,-132.013"/>
<polygon fill="black" stroke="black" points="1096.03,-135.291 1104.56,-129.012 1093.97,-128.599 1096.03,-135.291"/>
</g>
<!-- EAID_1A4E7527_4905_45c0_A87A_A6094D00AAF2___EAID_2761F49E_37B9_4bb9_99E8_FDF4E0E97349 -->
<g id="node12" class="node"><title>EAID_1A4E7527_4905_45c0_A87A_A6094D00AAF2___EAID_2761F49E_37B9_4bb9_99E8_FDF4E0E97349</title>
<image xlink:href="img/activity_icon.png" width="30px" height="20px" preserveAspectRatio="xMinYMin meet" x="825" y="-358"/>
<text text-anchor="start" x="751" y="-323.8" font-family="Times New Roman,serif" font-weight="bold" font-size="14.00">Subscription:Display Buy My</text>
<text text-anchor="start" x="758.5" y="-309.8" font-family="Times New Roman,serif" font-weight="bold" font-size="14.00">Subscription Success Page</text>
</g>
<!-- EAID_1A4E7527_4905_45c0_A87A_A6094D00AAF2___EAID_2761F49E_37B9_4bb9_99E8_FDF4E0E97349&#45;&gt;EAID_2761F49E_37B9_4bb9_99E8_FDF4E0E97349___EAID_12E5F34A_7160_4bea_ABDF_B56F7B43107D -->
<g id="edge15" class="edge"><title>EAID_1A4E7527_4905_45c0_A87A_A6094D00AAF2___EAID_2761F49E_37B9_4bb9_99E8_FDF4E0E97349&#45;&gt;EAID_2761F49E_37B9_4bb9_99E8_FDF4E0E97349___EAID_12E5F34A_7160_4bea_ABDF_B56F7B43107D</title>
<path fill="none" stroke="black" d="M826.62,-299.781C823.12,-291.612 819.264,-282.616 815.485,-273.799"/>
<polygon fill="black" stroke="black" points="818.591,-272.161 811.435,-264.348 812.157,-274.919 818.591,-272.161"/>
</g>
<!-- EAID_1A4E7527_4905_45c0_A87A_A6094D00AAF2___EAID_2761F49E_37B9_4bb9_99E8_FDF4E0E97349&#45;&gt;EAID_02074B64_AFA1_48ec_BCA5_328787D1DBA8 -->
<g id="edge28" class="edge"><title>EAID_1A4E7527_4905_45c0_A87A_A6094D00AAF2___EAID_2761F49E_37B9_4bb9_99E8_FDF4E0E97349&#45;&gt;EAID_02074B64_AFA1_48ec_BCA5_328787D1DBA8</title>
<path fill="none" stroke="black" stroke-dasharray="5,2" d="M880.813,-299.692C891.771,-289.422 902.615,-277.217 910,-264 954.348,-184.629 929.916,-151.941 953,-64 954.506,-58.2625 956.282,-52.1656 958.054,-46.373"/>
<polygon fill="black" stroke="black" points="961.523,-47.0077 961.18,-36.4184 954.845,-44.9101 961.523,-47.0077"/>
</g>
<!-- EAID_78877F71_A878_4bbc_A85F_700C53609FFA___EAID_1A4E7527_4905_45c0_A87A_A6094D00AAF2&#45;&gt;EAID_1A4E7527_4905_45c0_A87A_A6094D00AAF2___EAID_2761F49E_37B9_4bb9_99E8_FDF4E0E97349 -->
<g id="edge16" class="edge"><title>EAID_78877F71_A878_4bbc_A85F_700C53609FFA___EAID_1A4E7527_4905_45c0_A87A_A6094D00AAF2&#45;&gt;EAID_1A4E7527_4905_45c0_A87A_A6094D00AAF2___EAID_2761F49E_37B9_4bb9_99E8_FDF4E0E97349</title>
<path fill="none" stroke="black" d="M841.464,-399.98C841.291,-392.066 841.094,-383.063 840.902,-374.281"/>
<polygon fill="black" stroke="black" points="844.399,-374.074 840.681,-364.153 837.4,-374.227 844.399,-374.074"/>
</g>
<!-- EAID_78877F71_A878_4bbc_A85F_700C53609FFA___EAID_1A4E7527_4905_45c0_A87A_A6094D00AAF2&#45;&gt;EAID_02074B64_AFA1_48ec_BCA5_328787D1DBA8 -->
<g id="edge29" class="edge"><title>EAID_78877F71_A878_4bbc_A85F_700C53609FFA___EAID_1A4E7527_4905_45c0_A87A_A6094D00AAF2&#45;&gt;EAID_02074B64_AFA1_48ec_BCA5_328787D1DBA8</title>
<path fill="none" stroke="black" stroke-dasharray="5,2" d="M908.303,-399.93C923.839,-390.998 938.587,-379.231 948,-364 980.622,-311.217 972.927,-118.437 968.773,-46.4008"/>
<polygon fill="black" stroke="black" points="972.26,-46.0693 968.167,-36.2967 965.272,-46.4883 972.26,-46.0693"/>
</g>
<!-- EAID_72094780_D1D8_4e2b_901F_7D0D4D156E52___EAID_673A45CC_66D6_4725_A09C_98C105DD593F_STL -->
<g id="node14" class="node"><title>EAID_72094780_D1D8_4e2b_901F_7D0D4D156E52___EAID_673A45CC_66D6_4725_A09C_98C105DD593F_STL</title>
<image xlink:href="img/stimulus_icon.png" width="30px" height="20px" preserveAspectRatio="xMinYMin meet" x="362.5" y="-1170"/>
<text text-anchor="start" x="264" y="-1135.8" font-family="Times New Roman,serif" font-weight="bold" font-size="14.00">stl#Business Parter:Buy Subscription</text>
<text text-anchor="start" x="317" y="-1121.8" font-family="Times New Roman,serif" font-weight="bold" font-size="14.00">Comfirmation Page</text>
</g>
<!-- EAID_72094780_D1D8_4e2b_901F_7D0D4D156E52___EAID_673A45CC_66D6_4725_A09C_98C105DD593F_STL&#45;&gt;EAID_72094780_D1D8_4e2b_901F_7D0D4D156E52___EAID_673A45CC_66D6_4725_A09C_98C105DD593F -->
<g id="edge2" class="edge"><title>EAID_72094780_D1D8_4e2b_901F_7D0D4D156E52___EAID_673A45CC_66D6_4725_A09C_98C105DD593F_STL&#45;&gt;EAID_72094780_D1D8_4e2b_901F_7D0D4D156E52___EAID_673A45CC_66D6_4725_A09C_98C105DD593F</title>
<path fill="none" stroke="black" d="M384.583,-1111.7C393.761,-1071.02 408,-997.643 408,-934 408,-934 408,-934 408,-832 408,-759.046 473.117,-699.521 524.801,-663.764"/>
<polygon fill="black" stroke="black" points="526.975,-666.519 533.294,-658.015 523.051,-660.722 526.975,-666.519"/>
</g>
<!-- EAID_72094780_D1D8_4e2b_901F_7D0D4D156E52___EAID_12E5F34A_7160_4bea_ABDF_B56F7B43107D_STL -->
<g id="node15" class="node"><title>EAID_72094780_D1D8_4e2b_901F_7D0D4D156E52___EAID_12E5F34A_7160_4bea_ABDF_B56F7B43107D_STL</title>
<image xlink:href="img/stimulus_icon.png" width="30px" height="20px" preserveAspectRatio="xMinYMin meet" x="111.5" y="-1170"/>
<text text-anchor="start" x="27" y="-1135.8" font-family="Times New Roman,serif" font-weight="bold" font-size="14.00">stl#Business Parter:Buy Success</text>
<text text-anchor="start" x="111" y="-1121.8" font-family="Times New Roman,serif" font-weight="bold" font-size="14.00">Page</text>
</g>
<!-- EAID_72094780_D1D8_4e2b_901F_7D0D4D156E52___EAID_12E5F34A_7160_4bea_ABDF_B56F7B43107D_STL&#45;&gt;EAID_72094780_D1D8_4e2b_901F_7D0D4D156E52___EAID_12E5F34A_7160_4bea_ABDF_B56F7B43107D -->
<g id="edge4" class="edge"><title>EAID_72094780_D1D8_4e2b_901F_7D0D4D156E52___EAID_12E5F34A_7160_4bea_ABDF_B56F7B43107D_STL&#45;&gt;EAID_72094780_D1D8_4e2b_901F_7D0D4D156E52___EAID_12E5F34A_7160_4bea_ABDF_B56F7B43107D</title>
<path fill="none" stroke="black" d="M163.709,-1111.78C204.568,-1074.23 264,-1007.05 264,-934 264,-934 264,-934 264,-424.5 264,-326.376 375.664,-274.493 464.74,-248.715"/>
<polygon fill="black" stroke="black" points="465.704,-252.08 474.381,-246 463.807,-245.342 465.704,-252.08"/>
</g>
<!-- EAID_72094780_D1D8_4e2b_901F_7D0D4D156E52___EAID_A9ED6F57_AE4D_4755_800C_C23AC0702A50_STL -->
<g id="node16" class="node"><title>EAID_72094780_D1D8_4e2b_901F_7D0D4D156E52___EAID_A9ED6F57_AE4D_4755_800C_C23AC0702A50_STL</title>
<image xlink:href="img/stimulus_icon.png" width="30px" height="20px" preserveAspectRatio="xMinYMin meet" x="627.5" y="-1170"/>
<text text-anchor="start" x="529" y="-1135.8" font-family="Times New Roman,serif" font-weight="bold" font-size="14.00">stl#Business Parter:Buy Subscription</text>
<text text-anchor="start" x="618.5" y="-1121.8" font-family="Times New Roman,serif" font-weight="bold" font-size="14.00">Page(1)</text>
</g>
<!-- EAID_72094780_D1D8_4e2b_901F_7D0D4D156E52___EAID_A9ED6F57_AE4D_4755_800C_C23AC0702A50_STL&#45;&gt;EAID_72094780_D1D8_4e2b_901F_7D0D4D156E52___EAID_A9ED6F57_AE4D_4755_800C_C23AC0702A50 -->
<g id="edge6" class="edge"><title>EAID_72094780_D1D8_4e2b_901F_7D0D4D156E52___EAID_A9ED6F57_AE4D_4755_800C_C23AC0702A50_STL&#45;&gt;EAID_72094780_D1D8_4e2b_901F_7D0D4D156E52___EAID_A9ED6F57_AE4D_4755_800C_C23AC0702A50</title>
<path fill="none" stroke="black" d="M638.886,-1111.96C633.269,-1055.97 621.442,-938.081 615.147,-875.336"/>
<polygon fill="black" stroke="black" points="618.593,-874.623 614.112,-865.022 611.628,-875.322 618.593,-874.623"/>
</g>
<!-- EAID_72094780_D1D8_4e2b_901F_7D0D4D156E52___EAID_9B6DABB6_AB77_42d7_9631_92901B69FB54_STL -->
<g id="node17" class="node"><title>EAID_72094780_D1D8_4e2b_901F_7D0D4D156E52___EAID_9B6DABB6_AB77_42d7_9631_92901B69FB54_STL</title>
<image xlink:href="img/stimulus_icon.png" width="30px" height="20px" preserveAspectRatio="xMinYMin meet" x="892.5" y="-1170"/>
<text text-anchor="start" x="794" y="-1135.8" font-family="Times New Roman,serif" font-weight="bold" font-size="14.00">stl#Business Parter:Buy Subscription</text>
<text text-anchor="start" x="883.5" y="-1121.8" font-family="Times New Roman,serif" font-weight="bold" font-size="14.00">Page(1)</text>
</g>
<!-- EAID_72094780_D1D8_4e2b_901F_7D0D4D156E52___EAID_9B6DABB6_AB77_42d7_9631_92901B69FB54_STL&#45;&gt;EAID_72094780_D1D8_4e2b_901F_7D0D4D156E52___EAID_9B6DABB6_AB77_42d7_9631_92901B69FB54 -->
<g id="edge8" class="edge"><title>EAID_72094780_D1D8_4e2b_901F_7D0D4D156E52___EAID_9B6DABB6_AB77_42d7_9631_92901B69FB54_STL&#45;&gt;EAID_72094780_D1D8_4e2b_901F_7D0D4D156E52___EAID_9B6DABB6_AB77_42d7_9631_92901B69FB54</title>
<path fill="none" stroke="black" d="M891.812,-1111.76C886.157,-1100.13 879.656,-1086.76 873.657,-1074.43"/>
<polygon fill="black" stroke="black" points="876.71,-1072.7 869.19,-1065.24 870.415,-1075.76 876.71,-1072.7"/>
</g>
</g>
</svg>
