<?xml version="1.0" encoding="UTF-8" standalone="no"?>
<!DOCTYPE svg PUBLIC "-//W3C//DTD SVG 1.1//EN"
 "http://www.w3.org/Graphics/SVG/1.1/DTD/svg11.dtd">
<!-- Generated by graphviz version 2.38.0 (20140413.2041)
 -->
<!-- Title: g Pages: 1 -->
<svg width="1881pt" height="463pt"
 viewBox="0.00 0.00 1881.00 462.50" xmlns="http://www.w3.org/2000/svg" xmlns:xlink="http://www.w3.org/1999/xlink">
<g id="graph0" class="graph" transform="scale(1 1) rotate(0) translate(4 458.5)">
<title>g</title>
<polygon fill="white" stroke="none" points="-4,4 -4,-458.5 1877,-458.5 1877,4 -4,4"/>
<!-- EAID_8DFBE632_F30F_4ec5_B2D4_CFF3BB621955 -->
<g id="node1" class="node"><title>EAID_8DFBE632_F30F_4ec5_B2D4_CFF3BB621955</title>
<image xlink:href="img/actor1.png" width="61px" height="90px" preserveAspectRatio="xMinYMin meet" x="97.5" y="-261.5"/>
<text text-anchor="start" x="100.5" y="-148.3" font-family="Times New Roman,serif" font-size="24.00">Actor</text>
</g>
<!-- EAID_CE4B2D20_9887_47b1_8E74_5AB1E205FE29 -->
<g id="node2" class="node"><title>EAID_CE4B2D20_9887_47b1_8E74_5AB1E205FE29</title>
<image xlink:href="img/boundary3.png" width="115px" height="67px" preserveAspectRatio="xMinYMin meet" x="306.5" y="-249.5"/>
<text text-anchor="start" x="301" y="-159.3" font-family="Times New Roman,serif" font-size="24.00">Event Screen</text>
</g>
<!-- EAID_8DFBE632_F30F_4ec5_B2D4_CFF3BB621955&#45;&gt;EAID_CE4B2D20_9887_47b1_8E74_5AB1E205FE29 -->
<g id="edge1" class="edge"><title>EAID_8DFBE632_F30F_4ec5_B2D4_CFF3BB621955&#45;&gt;EAID_CE4B2D20_9887_47b1_8E74_5AB1E205FE29</title>
<path fill="none" stroke="black" d="M168.015,-201.5C198.689,-201.5 242.282,-201.5 280.473,-201.5"/>
<polygon fill="black" stroke="black" points="280.569,-205 290.569,-201.5 280.569,-198 280.569,-205"/>
</g>
<!-- EAID_FAFC33C6_99EB_4141_A41D_444BA246672E -->
<g id="node3" class="node"><title>EAID_FAFC33C6_99EB_4141_A41D_444BA246672E</title>
<image xlink:href="img/boundary3.png" width="115px" height="67px" preserveAspectRatio="xMinYMin meet" x="1112.5" y="-299.5"/>
<text text-anchor="start" x="1073.5" y="-209.3" font-family="Times New Roman,serif" font-size="24.00">Delete Photo Model</text>
</g>
<!-- EAID_8DFBE632_F30F_4ec5_B2D4_CFF3BB621955&#45;&gt;EAID_FAFC33C6_99EB_4141_A41D_444BA246672E -->
<g id="edge2" class="edge"><title>EAID_8DFBE632_F30F_4ec5_B2D4_CFF3BB621955&#45;&gt;EAID_FAFC33C6_99EB_4141_A41D_444BA246672E</title>
<path fill="none" stroke="black" d="M168.173,-220.81C200.438,-235.541 247.572,-254.887 291,-264.5 457.174,-301.284 868.149,-290.425 1027,-276.5 1035.49,-275.756 1044.23,-274.766 1053,-273.608"/>
<polygon fill="black" stroke="black" points="1053.49,-277.074 1062.91,-272.234 1052.53,-270.141 1053.49,-277.074"/>
</g>
<!-- EAID_BEF0BCD7_01B6_4634_88D4_F4F4ACE37E6B -->
<g id="node5" class="node"><title>EAID_BEF0BCD7_01B6_4634_88D4_F4F4ACE37E6B</title>
<image xlink:href="img/control1.png" width="106px" height="75px" preserveAspectRatio="xMinYMin meet" x="1405" y="-194.5"/>
<text text-anchor="start" x="1322.5" y="-96.3" font-family="Times New Roman,serif" font-size="24.00">Dismiss Delete Photo Model</text>
</g>
<!-- EAID_CE4B2D20_9887_47b1_8E74_5AB1E205FE29&#45;&gt;EAID_BEF0BCD7_01B6_4634_88D4_F4F4ACE37E6B -->
<g id="edge8" class="edge"><title>EAID_CE4B2D20_9887_47b1_8E74_5AB1E205FE29&#45;&gt;EAID_BEF0BCD7_01B6_4634_88D4_F4F4ACE37E6B</title>
<path fill="none" stroke="black" d="M437.203,-154.174C448.771,-148.543 460.921,-143.676 473,-140.5 757.861,-65.613 1105.38,-92.5565 1301.78,-118.1"/>
<polygon fill="black" stroke="black" points="1301.51,-121.595 1311.88,-119.43 1302.43,-114.655 1301.51,-121.595"/>
</g>
<!-- EAID_B604AC3B_9271_437a_974C_28524C4ECFDF -->
<g id="node9" class="node"><title>EAID_B604AC3B_9271_437a_974C_28524C4ECFDF</title>
<image xlink:href="img/control1.png" width="106px" height="75px" preserveAspectRatio="xMinYMin meet" x="528" y="-260.5"/>
<text text-anchor="start" x="483" y="-162.3" font-family="Times New Roman,serif" font-size="24.00">Toggle Delete Mode</text>
</g>
<!-- EAID_CE4B2D20_9887_47b1_8E74_5AB1E205FE29&#45;&gt;EAID_B604AC3B_9271_437a_974C_28524C4ECFDF -->
<g id="edge11" class="edge"><title>EAID_CE4B2D20_9887_47b1_8E74_5AB1E205FE29&#45;&gt;EAID_B604AC3B_9271_437a_974C_28524C4ECFDF</title>
<path fill="none" stroke="black" d="M437.19,-203.85C445.432,-204.119 453.986,-204.397 462.625,-204.678"/>
<polygon fill="black" stroke="black" points="462.684,-208.182 472.793,-205.01 462.912,-201.186 462.684,-208.182"/>
</g>
<!-- EAID_F68C4F68_0629_4c4d_AE5B_78009AEB70DE -->
<g id="node4" class="node"><title>EAID_F68C4F68_0629_4c4d_AE5B_78009AEB70DE</title>
<image xlink:href="img/control1.png" width="106px" height="75px" preserveAspectRatio="xMinYMin meet" x="1404.5" y="-389.5"/>
<text text-anchor="start" x="1348.5" y="-291.3" font-family="Times New Roman,serif" font-size="24.00">Handle Photo Deletion</text>
</g>
<!-- EAID_FAFC33C6_99EB_4141_A41D_444BA246672E&#45;&gt;EAID_F68C4F68_0629_4c4d_AE5B_78009AEB70DE -->
<g id="edge3" class="edge"><title>EAID_FAFC33C6_99EB_4141_A41D_444BA246672E&#45;&gt;EAID_F68C4F68_0629_4c4d_AE5B_78009AEB70DE</title>
<path fill="none" stroke="black" d="M1276.18,-283.279C1293.23,-288.406 1311.05,-293.762 1328.55,-299.027"/>
<polygon fill="black" stroke="black" points="1327.66,-302.412 1338.24,-301.94 1329.67,-295.709 1327.66,-302.412"/>
</g>
<!-- EAID_FAFC33C6_99EB_4141_A41D_444BA246672E&#45;&gt;EAID_BEF0BCD7_01B6_4634_88D4_F4F4ACE37E6B -->
<g id="edge4" class="edge"><title>EAID_FAFC33C6_99EB_4141_A41D_444BA246672E&#45;&gt;EAID_BEF0BCD7_01B6_4634_88D4_F4F4ACE37E6B</title>
<path fill="none" stroke="black" d="M1276.18,-211.222C1284.71,-207.971 1293.43,-204.647 1302.21,-201.302"/>
<polygon fill="black" stroke="black" points="1303.66,-204.497 1311.75,-197.665 1301.16,-197.956 1303.66,-204.497"/>
</g>
<!-- EAID_F6AC656F_DA39_4f8f_B7EA_D3389D3E0A00 -->
<g id="node6" class="node"><title>EAID_F6AC656F_DA39_4f8f_B7EA_D3389D3E0A00</title>
<image xlink:href="img/control1.png" width="106px" height="75px" preserveAspectRatio="xMinYMin meet" x="1703" y="-287.5"/>
<text text-anchor="start" x="1649" y="-189.3" font-family="Times New Roman,serif" font-size="24.00">Handle Deletion Error</text>
</g>
<!-- EAID_F68C4F68_0629_4c4d_AE5B_78009AEB70DE&#45;&gt;EAID_F6AC656F_DA39_4f8f_B7EA_D3389D3E0A00 -->
<g id="edge14" class="edge"><title>EAID_F68C4F68_0629_4c4d_AE5B_78009AEB70DE&#45;&gt;EAID_F6AC656F_DA39_4f8f_B7EA_D3389D3E0A00</title>
<path fill="none" stroke="black" d="M1576.54,-296.894C1593.84,-290.941 1611.72,-284.79 1629.17,-278.786"/>
<polygon fill="black" stroke="black" points="1630.5,-282.03 1638.82,-275.467 1628.23,-275.411 1630.5,-282.03"/>
</g>
<!-- EAID_52C4FEB6_5ED2_4e04_91C2_AD8D3BC44810 -->
<g id="node10" class="node"><title>EAID_52C4FEB6_5ED2_4e04_91C2_AD8D3BC44810</title>
<image xlink:href="img/activity_icon.png" width="30px" height="20px" preserveAspectRatio="xMinYMin meet" x="1741.5" y="-448.5"/>
<text text-anchor="start" x="1726" y="-406.3" font-family="Times New Roman,serif" font-weight="bold" font-size="24.00">Event</text>
</g>
<!-- EAID_F68C4F68_0629_4c4d_AE5B_78009AEB70DE&#45;&gt;EAID_52C4FEB6_5ED2_4e04_91C2_AD8D3BC44810 -->
<g id="edge10" class="edge"><title>EAID_F68C4F68_0629_4c4d_AE5B_78009AEB70DE&#45;&gt;EAID_52C4FEB6_5ED2_4e04_91C2_AD8D3BC44810</title>
<path fill="none" stroke="black" d="M1576.54,-371.737C1621.37,-384.74 1670.05,-398.859 1705.22,-409.062"/>
<polygon fill="black" stroke="black" points="1704.65,-412.54 1715.23,-411.964 1706.6,-405.817 1704.65,-412.54"/>
</g>
<!-- EAID_68EB92E9_00C5_41da_B1F2_DD4D9DC156CA -->
<g id="node12" class="node"><title>EAID_68EB92E9_00C5_41da_B1F2_DD4D9DC156CA</title>
<image xlink:href="img/activity_icon.png" width="30px" height="20px" preserveAspectRatio="xMinYMin meet" x="1741" y="-368.5"/>
<text text-anchor="start" x="1670" y="-326.3" font-family="Times New Roman,serif" font-weight="bold" font-size="24.00">Photo Collection</text>
</g>
<!-- EAID_F68C4F68_0629_4c4d_AE5B_78009AEB70DE&#45;&gt;EAID_68EB92E9_00C5_41da_B1F2_DD4D9DC156CA -->
<g id="edge15" class="edge"><title>EAID_F68C4F68_0629_4c4d_AE5B_78009AEB70DE&#45;&gt;EAID_68EB92E9_00C5_41da_B1F2_DD4D9DC156CA</title>
<path fill="none" stroke="black" d="M1576.54,-339.889C1600.7,-340.378 1625.98,-340.889 1649.66,-341.368"/>
<polygon fill="black" stroke="black" points="1649.64,-344.869 1659.71,-341.572 1649.78,-337.87 1649.64,-344.869"/>
</g>
<!-- EAID_F6AC656F_DA39_4f8f_B7EA_D3389D3E0A00&#45;&gt;EAID_FAFC33C6_99EB_4141_A41D_444BA246672E -->
<g id="edge5" class="edge"><title>EAID_F6AC656F_DA39_4f8f_B7EA_D3389D3E0A00&#45;&gt;EAID_FAFC33C6_99EB_4141_A41D_444BA246672E</title>
<path fill="none" stroke="black" d="M1638.78,-238.681C1536.44,-241.483 1388.2,-245.541 1286.06,-248.337"/>
<polygon fill="black" stroke="black" points="1285.91,-244.839 1276.01,-248.612 1286.1,-251.837 1285.91,-244.839"/>
</g>
<!-- EAID_C12EB1CC_0086_4c02_832E_8D77F3AE6755 -->
<g id="node7" class="node"><title>EAID_C12EB1CC_0086_4c02_832E_8D77F3AE6755</title>
<image xlink:href="img/actor1.png" width="61px" height="90px" preserveAspectRatio="xMinYMin meet" x="97.5" y="-411.5"/>
<text text-anchor="start" x="106" y="-298.3" font-family="Times New Roman,serif" font-size="24.00">User</text>
</g>
<!-- EAID_C12EB1CC_0086_4c02_832E_8D77F3AE6755&#45;&gt;EAID_CE4B2D20_9887_47b1_8E74_5AB1E205FE29 -->
<g id="edge12" class="edge"><title>EAID_C12EB1CC_0086_4c02_832E_8D77F3AE6755&#45;&gt;EAID_CE4B2D20_9887_47b1_8E74_5AB1E205FE29</title>
<path fill="none" stroke="black" d="M168.261,-328.908C193.403,-314.382 226.431,-294.855 255,-276.5 263.97,-270.737 273.261,-264.581 282.458,-258.366"/>
<polygon fill="black" stroke="black" points="284.562,-261.168 290.866,-252.653 280.628,-255.378 284.562,-261.168"/>
</g>
<!-- EAID_C12EB1CC_0086_4c02_832E_8D77F3AE6755&#45;&gt;EAID_FAFC33C6_99EB_4141_A41D_444BA246672E -->
<g id="edge6" class="edge"><title>EAID_C12EB1CC_0086_4c02_832E_8D77F3AE6755&#45;&gt;EAID_FAFC33C6_99EB_4141_A41D_444BA246672E</title>
<path fill="none" stroke="black" d="M168.337,-352.536C295.062,-355.093 699.771,-357.576 1027,-296.5 1035.56,-294.902 1044.33,-292.942 1053.1,-290.744"/>
<polygon fill="black" stroke="black" points="1054.19,-294.075 1062.98,-288.167 1052.42,-287.301 1054.19,-294.075"/>
</g>
<!-- EAID_BE749E53_4105_4cc6_BC69_AD1DA3925A67 -->
<g id="node8" class="node"><title>EAID_BE749E53_4105_4cc6_BC69_AD1DA3925A67</title>
<image xlink:href="img/control1.png" width="106px" height="75px" preserveAspectRatio="xMinYMin meet" x="823" y="-260.5"/>
<text text-anchor="start" x="735" y="-162.3" font-family="Times New Roman,serif" font-size="24.00">Display Deelete Photo Model</text>
</g>
<!-- EAID_BE749E53_4105_4cc6_BC69_AD1DA3925A67&#45;&gt;EAID_FAFC33C6_99EB_4141_A41D_444BA246672E -->
<g id="edge7" class="edge"><title>EAID_BE749E53_4105_4cc6_BC69_AD1DA3925A67&#45;&gt;EAID_FAFC33C6_99EB_4141_A41D_444BA246672E</title>
<path fill="none" stroke="black" d="M1027.02,-230.63C1035.74,-231.917 1044.45,-233.2 1053,-234.463"/>
<polygon fill="black" stroke="black" points="1052.57,-237.937 1062.97,-235.934 1053.59,-231.012 1052.57,-237.937"/>
</g>
<!-- EAID_B604AC3B_9271_437a_974C_28524C4ECFDF&#45;&gt;EAID_BE749E53_4105_4cc6_BC69_AD1DA3925A67 -->
<g id="edge9" class="edge"><title>EAID_B604AC3B_9271_437a_974C_28524C4ECFDF&#45;&gt;EAID_BE749E53_4105_4cc6_BC69_AD1DA3925A67</title>
<path fill="none" stroke="black" d="M689.023,-208.5C697.425,-208.5 706.013,-208.5 714.666,-208.5"/>
<polygon fill="black" stroke="black" points="714.847,-212 724.847,-208.5 714.847,-205 714.847,-212"/>
</g>
<!-- EAID_8FD50CEF_7A59_48cc_AF68_08443FE5B809 -->
<g id="node11" class="node"><title>EAID_8FD50CEF_7A59_48cc_AF68_08443FE5B809</title>
<image xlink:href="img/control1.png" width="106px" height="75px" preserveAspectRatio="xMinYMin meet" x="75" y="-110.5"/>
<text text-anchor="start" x="10.5" y="-12.3" font-family="Times New Roman,serif" font-size="24.00">Toggle Off Delete Mode</text>
</g>
<!-- EAID_8FD50CEF_7A59_48cc_AF68_08443FE5B809&#45;&gt;EAID_CE4B2D20_9887_47b1_8E74_5AB1E205FE29 -->
<g id="edge13" class="edge"><title>EAID_8FD50CEF_7A59_48cc_AF68_08443FE5B809&#45;&gt;EAID_CE4B2D20_9887_47b1_8E74_5AB1E205FE29</title>
<path fill="none" stroke="black" d="M239.304,-117.111C244.642,-120.232 249.899,-123.372 255,-126.5 264.014,-132.028 273.302,-138.011 282.469,-144.103"/>
<polygon fill="black" stroke="black" points="280.588,-147.056 290.843,-149.719 284.487,-141.242 280.588,-147.056"/>
</g>
</g>
</svg>
