<?xml version="1.0" encoding="UTF-8" standalone="no"?>
<!DOCTYPE svg PUBLIC "-//W3C//DTD SVG 1.1//EN"
 "http://www.w3.org/Graphics/SVG/1.1/DTD/svg11.dtd">
<!-- Generated by graphviz version 2.38.0 (20140413.2041)
 -->
<!-- Title: g Pages: 1 -->
<svg width="2205pt" height="749pt"
 viewBox="0.00 0.00 2204.50 749.00" xmlns="http://www.w3.org/2000/svg" xmlns:xlink="http://www.w3.org/1999/xlink">
<g id="graph0" class="graph" transform="scale(1 1) rotate(0) translate(4 745)">
<title>g</title>
<polygon fill="white" stroke="none" points="-4,4 -4,-745 2200.5,-745 2200.5,4 -4,4"/>
<g id="clust1" class="cluster"><title>cluster0</title>
<polygon fill="none" stroke="black" stroke-width="2" points="1182.5,-191 1182.5,-622 1555.5,-622 1555.5,-191 1182.5,-191"/>
<text text-anchor="start" x="1347" y="-607.8" font-family="Times New Roman,serif" font-weight="bold" font-size="14.00">System</text>
</g>
<g id="clust2" class="cluster"><title>cluster1</title>
<polygon fill="none" stroke="black" stroke-width="2" points="1190.5,-630 1190.5,-733 1528.5,-733 1528.5,-630 1190.5,-630"/>
<text text-anchor="start" x="1345" y="-718.8" font-family="Times New Roman,serif" font-weight="bold" font-size="14.00">User</text>
</g>
<g id="clust3" class="cluster"><title>cluster1000</title>
<polygon fill="none" stroke="black" stroke-width="2" points="330.5,-8 330.5,-183 2188.5,-183 2188.5,-8 330.5,-8"/>
<text text-anchor="start" x="1214" y="-168.8" font-family="Times New Roman,serif" font-weight="bold" font-size="14.00">Domain Model</text>
</g>
<!-- EAID_1B113233_1E96_4d0b_88AF_C46FA6F3DBCB___EAID_CE99E394_A00E_4fd6_A088_23D21F56635A -->
<g id="node1" class="node"><title>EAID_1B113233_1E96_4d0b_88AF_C46FA6F3DBCB___EAID_CE99E394_A00E_4fd6_A088_23D21F56635A</title>
<image xlink:href="img/activity_icon.png" width="30px" height="20px" preserveAspectRatio="xMinYMin meet" x="1248.5" y="-578"/>
<text text-anchor="start" x="1214.5" y="-543.8" font-family="Times New Roman,serif" font-weight="bold" font-size="14.00">User:Homepage</text>
</g>
<!-- EAID_0F8C8CEE_40FF_4c5c_8304_8B422505D272 -->
<g id="node19" class="node"><title>EAID_0F8C8CEE_40FF_4c5c_8304_8B422505D272</title>
<text text-anchor="middle" x="160.5" y="-80.3" font-family="Times New Roman,serif" font-size="14.00">EAID_0F8C8CEE_40FF_4c5c_8304_8B422505D272</text>
</g>
<!-- EAID_1B113233_1E96_4d0b_88AF_C46FA6F3DBCB___EAID_CE99E394_A00E_4fd6_A088_23D21F56635A&#45;&gt;EAID_0F8C8CEE_40FF_4c5c_8304_8B422505D272 -->
<g id="edge9" class="edge"><title>EAID_1B113233_1E96_4d0b_88AF_C46FA6F3DBCB___EAID_CE99E394_A00E_4fd6_A088_23D21F56635A&#45;&gt;EAID_0F8C8CEE_40FF_4c5c_8304_8B422505D272</title>
<path fill="none" stroke="black" stroke-dasharray="5,2" d="M1204.32,-545.412C1062.37,-513.753 693.686,-422.776 415.5,-277 324.005,-229.055 230.559,-149.139 186.509,-109.228"/>
<polygon fill="black" stroke="black" points="188.617,-106.413 178.87,-102.258 183.898,-111.584 188.617,-106.413"/>
</g>
<!-- EAID_1B113233_1E96_4d0b_88AF_C46FA6F3DBCB___EAID_D6E3196C_B841_44f8_BEF3_FCCBB2A90A11 -->
<g id="node2" class="node"><title>EAID_1B113233_1E96_4d0b_88AF_C46FA6F3DBCB___EAID_D6E3196C_B841_44f8_BEF3_FCCBB2A90A11</title>
<image xlink:href="img/activity_icon.png" width="30px" height="20px" preserveAspectRatio="xMinYMin meet" x="1438.5" y="-585"/>
<text text-anchor="start" x="1392.5" y="-550.8" font-family="Times New Roman,serif" font-weight="bold" font-size="14.00">User:Maintain &#160;blog</text>
<text text-anchor="start" x="1435" y="-536.8" font-family="Times New Roman,serif" font-weight="bold" font-size="14.00"> &#160;page</text>
</g>
<!-- EAID_D6E3196C_B841_44f8_BEF3_FCCBB2A90A11___EAID_CF012D34_2828_4e42_9330_21409C5ABF70 -->
<g id="node5" class="node"><title>EAID_D6E3196C_B841_44f8_BEF3_FCCBB2A90A11___EAID_CF012D34_2828_4e42_9330_21409C5ABF70</title>
<image xlink:href="img/activity_icon.png" width="30px" height="20px" preserveAspectRatio="xMinYMin meet" x="1439" y="-485"/>
<text text-anchor="start" x="1409" y="-450.8" font-family="Times New Roman,serif" font-weight="bold" font-size="14.00">Maintain &#160;blog</text>
<text text-anchor="start" x="1408.5" y="-436.8" font-family="Times New Roman,serif" font-weight="bold" font-size="14.00"> &#160;page:Manage</text>
<text text-anchor="start" x="1433" y="-422.8" font-family="Times New Roman,serif" font-weight="bold" font-size="14.00">a &#160;blog</text>
</g>
<!-- EAID_1B113233_1E96_4d0b_88AF_C46FA6F3DBCB___EAID_D6E3196C_B841_44f8_BEF3_FCCBB2A90A11&#45;&gt;EAID_D6E3196C_B841_44f8_BEF3_FCCBB2A90A11___EAID_CF012D34_2828_4e42_9330_21409C5ABF70 -->
<g id="edge2" class="edge"><title>EAID_1B113233_1E96_4d0b_88AF_C46FA6F3DBCB___EAID_D6E3196C_B841_44f8_BEF3_FCCBB2A90A11&#45;&gt;EAID_D6E3196C_B841_44f8_BEF3_FCCBB2A90A11___EAID_CF012D34_2828_4e42_9330_21409C5ABF70</title>
<path fill="none" stroke="black" d="M1453.5,-526.781C1453.5,-518.786 1453.5,-509.999 1453.5,-501.362"/>
<polygon fill="black" stroke="black" points="1457,-501.348 1453.5,-491.348 1450,-501.349 1457,-501.348"/>
</g>
<!-- EAID_75AD05DD_686A_4489_98D8_1F55C5932981 -->
<g id="node12" class="node"><title>EAID_75AD05DD_686A_4489_98D8_1F55C5932981</title>
<polygon fill="none" stroke="black" points="1570.5,-126 1570.5,-147 1733.5,-147 1733.5,-126 1570.5,-126"/>
<text text-anchor="start" x="1618.5" y="-133.8" font-family="Times New Roman,serif" font-weight="bold" font-size="14.00">Blog Entry</text>
<polygon fill="none" stroke="black" points="1570.5,-105 1570.5,-126 1733.5,-126 1733.5,-105 1570.5,-105"/>
<text text-anchor="start" x="1573.5" y="-112.8" font-family="Times New Roman,serif" font-weight="bold" font-size="14.00">EAJava_String Approved</text>
<polygon fill="none" stroke="black" points="1570.5,-84 1570.5,-105 1733.5,-105 1733.5,-84 1570.5,-84"/>
<text text-anchor="start" x="1585.5" y="-91.8" font-family="Times New Roman,serif" font-weight="bold" font-size="14.00">EAJava_String Entry</text>
<polygon fill="none" stroke="black" points="1570.5,-63 1570.5,-84 1733.5,-84 1733.5,-63 1570.5,-63"/>
<text text-anchor="start" x="1615.5" y="-70.8" font-family="Times New Roman,serif" font-weight="bold" font-size="14.00">BlogEntry()</text>
<polygon fill="none" stroke="black" points="1570.5,-42 1570.5,-63 1733.5,-63 1733.5,-42 1570.5,-42"/>
<text text-anchor="start" x="1591.5" y="-49.8" font-family="Times New Roman,serif" font-weight="bold" font-size="14.00">Maintainblogpage()</text>
<polygon fill="none" stroke="black" points="1570.5,-21 1570.5,-42 1733.5,-42 1733.5,-21 1570.5,-21"/>
<text text-anchor="start" x="1625.5" y="-28.8" font-family="Times New Roman,serif" font-weight="bold" font-size="14.00">Blogdb()</text>
<polygon fill="none" stroke="black" points="1569,-20 1569,-148 1734,-148 1734,-20 1569,-20"/>
</g>
<!-- EAID_1B113233_1E96_4d0b_88AF_C46FA6F3DBCB___EAID_D6E3196C_B841_44f8_BEF3_FCCBB2A90A11&#45;&gt;EAID_75AD05DD_686A_4489_98D8_1F55C5932981 -->
<g id="edge10" class="edge"><title>EAID_1B113233_1E96_4d0b_88AF_C46FA6F3DBCB___EAID_D6E3196C_B841_44f8_BEF3_FCCBB2A90A11&#45;&gt;EAID_75AD05DD_686A_4489_98D8_1F55C5932981</title>
<path fill="none" stroke="black" stroke-dasharray="5,2" d="M1486.42,-526.935C1497.19,-516.04 1508.86,-503.414 1518.5,-491 1584.87,-405.565 1606.72,-381.557 1634.5,-277 1644.32,-240.058 1648.76,-197.858 1650.67,-162.447"/>
<polygon fill="black" stroke="black" points="1654.18,-162.327 1651.16,-152.17 1647.18,-161.991 1654.18,-162.327"/>
</g>
<!-- EAID_CF012D34_2828_4e42_9330_21409C5ABF70___EAID_AE8BFE6B_6090_4b5e_A717_891D94A03AEE -->
<g id="node3" class="node"><title>EAID_CF012D34_2828_4e42_9330_21409C5ABF70___EAID_AE8BFE6B_6090_4b5e_A717_891D94A03AEE</title>
<image xlink:href="img/activity_icon.png" width="30px" height="20px" preserveAspectRatio="xMinYMin meet" x="1483.5" y="-371"/>
<text text-anchor="start" x="1465.5" y="-336.8" font-family="Times New Roman,serif" font-weight="bold" font-size="14.00">Manage a </text>
<text text-anchor="start" x="1459.5" y="-322.8" font-family="Times New Roman,serif" font-weight="bold" font-size="14.00">blog:Blog db</text>
</g>
<!-- EAID_CF012D34_2828_4e42_9330_21409C5ABF70___EAID_AE8BFE6B_6090_4b5e_A717_891D94A03AEE&#45;&gt;EAID_75AD05DD_686A_4489_98D8_1F55C5932981 -->
<g id="edge11" class="edge"><title>EAID_CF012D34_2828_4e42_9330_21409C5ABF70___EAID_AE8BFE6B_6090_4b5e_A717_891D94A03AEE&#45;&gt;EAID_75AD05DD_686A_4489_98D8_1F55C5932981</title>
<path fill="none" stroke="black" stroke-dasharray="5,2" d="M1528.27,-312.952C1537.91,-302.059 1548.24,-289.429 1556.5,-277 1558.36,-274.205 1588.34,-213.478 1614.14,-161.061"/>
<polygon fill="black" stroke="black" points="1617.29,-162.578 1618.56,-152.06 1611.01,-159.488 1617.29,-162.578"/>
</g>
<!-- EAID_229B994A_9BC8_4567_9327_9E6BBF81BC22___EAID_CE99E394_A00E_4fd6_A088_23D21F56635A -->
<g id="node4" class="node"><title>EAID_229B994A_9BC8_4567_9327_9E6BBF81BC22___EAID_CE99E394_A00E_4fd6_A088_23D21F56635A</title>
<image xlink:href="img/activity_icon.png" width="30px" height="20px" preserveAspectRatio="xMinYMin meet" x="1261" y="-264"/>
<text text-anchor="start" x="1201.5" y="-229.8" font-family="Times New Roman,serif" font-weight="bold" font-size="14.00">Show confirmation page</text>
<text text-anchor="start" x="1241" y="-215.8" font-family="Times New Roman,serif" font-weight="bold" font-size="14.00">:Homepage</text>
</g>
<!-- EAID_229B994A_9BC8_4567_9327_9E6BBF81BC22___EAID_CE99E394_A00E_4fd6_A088_23D21F56635A&#45;&gt;EAID_0F8C8CEE_40FF_4c5c_8304_8B422505D272 -->
<g id="edge12" class="edge"><title>EAID_229B994A_9BC8_4567_9327_9E6BBF81BC22___EAID_CE99E394_A00E_4fd6_A088_23D21F56635A&#45;&gt;EAID_0F8C8CEE_40FF_4c5c_8304_8B422505D272</title>
<path fill="none" stroke="black" stroke-dasharray="5,2" d="M1190.92,-222.651C1122.31,-211.714 1022.97,-197.468 935.5,-191 901.756,-188.505 359.081,-192.13 326.5,-183 273.921,-168.266 220.933,-132.505 189.416,-108.505"/>
<polygon fill="black" stroke="black" points="191.163,-105.431 181.114,-102.075 186.877,-110.965 191.163,-105.431"/>
</g>
<!-- EAID_D6E3196C_B841_44f8_BEF3_FCCBB2A90A11___EAID_CF012D34_2828_4e42_9330_21409C5ABF70&#45;&gt;EAID_CF012D34_2828_4e42_9330_21409C5ABF70___EAID_AE8BFE6B_6090_4b5e_A717_891D94A03AEE -->
<g id="edge4" class="edge"><title>EAID_D6E3196C_B841_44f8_BEF3_FCCBB2A90A11___EAID_CF012D34_2828_4e42_9330_21409C5ABF70&#45;&gt;EAID_CF012D34_2828_4e42_9330_21409C5ABF70___EAID_AE8BFE6B_6090_4b5e_A717_891D94A03AEE</title>
<path fill="none" stroke="black" d="M1469.87,-412.796C1473.56,-404.183 1477.49,-395.015 1481.22,-386.319"/>
<polygon fill="black" stroke="black" points="1484.44,-387.687 1485.16,-377.117 1478.01,-384.93 1484.44,-387.687"/>
</g>
<!-- EAID_CF012D34_2828_4e42_9330_21409C5ABF70___EAID_229B994A_9BC8_4567_9327_9E6BBF81BC22 -->
<g id="node7" class="node"><title>EAID_CF012D34_2828_4e42_9330_21409C5ABF70___EAID_229B994A_9BC8_4567_9327_9E6BBF81BC22</title>
<image xlink:href="img/activity_icon.png" width="30px" height="20px" preserveAspectRatio="xMinYMin meet" x="1287" y="-371"/>
<text text-anchor="start" x="1269" y="-336.8" font-family="Times New Roman,serif" font-weight="bold" font-size="14.00">Manage a </text>
<text text-anchor="start" x="1212.5" y="-322.8" font-family="Times New Roman,serif" font-weight="bold" font-size="14.00">blog:Show confirmation page</text>
</g>
<!-- EAID_D6E3196C_B841_44f8_BEF3_FCCBB2A90A11___EAID_CF012D34_2828_4e42_9330_21409C5ABF70&#45;&gt;EAID_CF012D34_2828_4e42_9330_21409C5ABF70___EAID_229B994A_9BC8_4567_9327_9E6BBF81BC22 -->
<g id="edge5" class="edge"><title>EAID_D6E3196C_B841_44f8_BEF3_FCCBB2A90A11___EAID_CF012D34_2828_4e42_9330_21409C5ABF70&#45;&gt;EAID_CF012D34_2828_4e42_9330_21409C5ABF70___EAID_229B994A_9BC8_4567_9327_9E6BBF81BC22</title>
<path fill="none" stroke="black" d="M1398.19,-412.796C1384.14,-403.084 1369.05,-392.666 1355.08,-383.014"/>
<polygon fill="black" stroke="black" points="1356.76,-379.921 1346.55,-377.117 1352.78,-385.681 1356.76,-379.921"/>
</g>
<!-- EAID_D6E3196C_B841_44f8_BEF3_FCCBB2A90A11___EAID_CF012D34_2828_4e42_9330_21409C5ABF70&#45;&gt;EAID_75AD05DD_686A_4489_98D8_1F55C5932981 -->
<g id="edge13" class="edge"><title>EAID_D6E3196C_B841_44f8_BEF3_FCCBB2A90A11___EAID_CF012D34_2828_4e42_9330_21409C5ABF70&#45;&gt;EAID_75AD05DD_686A_4489_98D8_1F55C5932981</title>
<path fill="none" stroke="black" stroke-dasharray="5,2" d="M1509.16,-420.316C1526.28,-408.635 1543.91,-393.983 1556.5,-377 1603.8,-313.171 1628.23,-224.702 1640.38,-161.912"/>
<polygon fill="black" stroke="black" points="1643.82,-162.536 1642.22,-152.062 1636.94,-161.246 1643.82,-162.536"/>
</g>
<!-- EAID_229B994A_9BC8_4567_9327_9E6BBF81BC22___EAID_D6E3196C_B841_44f8_BEF3_FCCBB2A90A11 -->
<g id="node6" class="node"><title>EAID_229B994A_9BC8_4567_9327_9E6BBF81BC22___EAID_D6E3196C_B841_44f8_BEF3_FCCBB2A90A11</title>
<image xlink:href="img/activity_icon.png" width="30px" height="20px" preserveAspectRatio="xMinYMin meet" x="1448" y="-271"/>
<text text-anchor="start" x="1388.5" y="-236.8" font-family="Times New Roman,serif" font-weight="bold" font-size="14.00">Show confirmation page</text>
<text text-anchor="start" x="1416" y="-222.8" font-family="Times New Roman,serif" font-weight="bold" font-size="14.00">:Maintain &#160;blog</text>
<text text-anchor="start" x="1444.5" y="-208.8" font-family="Times New Roman,serif" font-weight="bold" font-size="14.00"> &#160;page</text>
</g>
<!-- EAID_229B994A_9BC8_4567_9327_9E6BBF81BC22___EAID_D6E3196C_B841_44f8_BEF3_FCCBB2A90A11&#45;&gt;EAID_D6E3196C_B841_44f8_BEF3_FCCBB2A90A11___EAID_CF012D34_2828_4e42_9330_21409C5ABF70 -->
<g id="edge6" class="edge"><title>EAID_229B994A_9BC8_4567_9327_9E6BBF81BC22___EAID_D6E3196C_B841_44f8_BEF3_FCCBB2A90A11&#45;&gt;EAID_D6E3196C_B841_44f8_BEF3_FCCBB2A90A11___EAID_CF012D34_2828_4e42_9330_21409C5ABF70</title>
<path fill="none" stroke="black" d="M1448.82,-277.317C1445.4,-288.655 1442.22,-301.196 1440.5,-313 1436.19,-342.642 1439.14,-376.085 1443.32,-402.624"/>
<polygon fill="black" stroke="black" points="1439.92,-403.522 1445.03,-412.803 1446.82,-402.361 1439.92,-403.522"/>
</g>
<!-- EAID_229B994A_9BC8_4567_9327_9E6BBF81BC22___EAID_D6E3196C_B841_44f8_BEF3_FCCBB2A90A11&#45;&gt;EAID_75AD05DD_686A_4489_98D8_1F55C5932981 -->
<g id="edge14" class="edge"><title>EAID_229B994A_9BC8_4567_9327_9E6BBF81BC22___EAID_D6E3196C_B841_44f8_BEF3_FCCBB2A90A11&#45;&gt;EAID_75AD05DD_686A_4489_98D8_1F55C5932981</title>
<path fill="none" stroke="black" stroke-dasharray="5,2" d="M1530.04,-198.921C1537.8,-193.836 1545.45,-188.477 1552.5,-183 1561.9,-175.698 1571.35,-167.582 1580.47,-159.234"/>
<polygon fill="black" stroke="black" points="1583.12,-161.554 1588.05,-152.18 1578.35,-156.429 1583.12,-161.554"/>
</g>
<!-- EAID_CF012D34_2828_4e42_9330_21409C5ABF70___EAID_229B994A_9BC8_4567_9327_9E6BBF81BC22&#45;&gt;EAID_229B994A_9BC8_4567_9327_9E6BBF81BC22___EAID_CE99E394_A00E_4fd6_A088_23D21F56635A -->
<g id="edge7" class="edge"><title>EAID_CF012D34_2828_4e42_9330_21409C5ABF70___EAID_229B994A_9BC8_4567_9327_9E6BBF81BC22&#45;&gt;EAID_229B994A_9BC8_4567_9327_9E6BBF81BC22___EAID_CE99E394_A00E_4fd6_A088_23D21F56635A</title>
<path fill="none" stroke="black" d="M1293.77,-312.781C1291.23,-302.506 1288.36,-290.922 1285.66,-280.031"/>
<polygon fill="black" stroke="black" points="1289.05,-279.146 1283.25,-270.28 1282.25,-280.828 1289.05,-279.146"/>
</g>
<!-- EAID_CF012D34_2828_4e42_9330_21409C5ABF70___EAID_229B994A_9BC8_4567_9327_9E6BBF81BC22&#45;&gt;EAID_229B994A_9BC8_4567_9327_9E6BBF81BC22___EAID_D6E3196C_B841_44f8_BEF3_FCCBB2A90A11 -->
<g id="edge8" class="edge"><title>EAID_CF012D34_2828_4e42_9330_21409C5ABF70___EAID_229B994A_9BC8_4567_9327_9E6BBF81BC22&#45;&gt;EAID_229B994A_9BC8_4567_9327_9E6BBF81BC22___EAID_D6E3196C_B841_44f8_BEF3_FCCBB2A90A11</title>
<path fill="none" stroke="black" d="M1349.37,-312.781C1363.84,-303.345 1380,-292.805 1395.48,-282.711"/>
<polygon fill="black" stroke="black" points="1397.53,-285.553 1403.99,-277.159 1393.7,-279.69 1397.53,-285.553"/>
</g>
<!-- EAID_CF012D34_2828_4e42_9330_21409C5ABF70___EAID_229B994A_9BC8_4567_9327_9E6BBF81BC22&#45;&gt;EAID_0F8C8CEE_40FF_4c5c_8304_8B422505D272 -->
<g id="edge15" class="edge"><title>EAID_CF012D34_2828_4e42_9330_21409C5ABF70___EAID_229B994A_9BC8_4567_9327_9E6BBF81BC22&#45;&gt;EAID_0F8C8CEE_40FF_4c5c_8304_8B422505D272</title>
<path fill="none" stroke="black" stroke-dasharray="5,2" d="M1201.92,-324.077C1038.38,-291.974 702.409,-228.604 415.5,-191 376.122,-185.839 364.304,-195.171 326.5,-183 274.96,-166.406 222.263,-131.645 190.458,-108.306"/>
<polygon fill="black" stroke="black" points="192.17,-105.218 182.059,-102.051 187.988,-110.832 192.17,-105.218"/>
</g>
<!-- EAID_1B113233_1E96_4d0b_88AF_C46FA6F3DBCB___EAID_CE99E394_A00E_4fd6_A088_23D21F56635A_STL -->
<g id="node8" class="node"><title>EAID_1B113233_1E96_4d0b_88AF_C46FA6F3DBCB___EAID_CE99E394_A00E_4fd6_A088_23D21F56635A_STL</title>
<image xlink:href="img/stimulus_icon.png" width="30px" height="20px" preserveAspectRatio="xMinYMin meet" x="1253.5" y="-689"/>
<text text-anchor="start" x="1208.5" y="-654.8" font-family="Times New Roman,serif" font-weight="bold" font-size="14.00">stl#User:Homepage</text>
</g>
<!-- EAID_1B113233_1E96_4d0b_88AF_C46FA6F3DBCB___EAID_CE99E394_A00E_4fd6_A088_23D21F56635A_STL&#45;&gt;EAID_1B113233_1E96_4d0b_88AF_C46FA6F3DBCB___EAID_CE99E394_A00E_4fd6_A088_23D21F56635A -->
<g id="edge1" class="edge"><title>EAID_1B113233_1E96_4d0b_88AF_C46FA6F3DBCB___EAID_CE99E394_A00E_4fd6_A088_23D21F56635A_STL&#45;&gt;EAID_1B113233_1E96_4d0b_88AF_C46FA6F3DBCB___EAID_CE99E394_A00E_4fd6_A088_23D21F56635A</title>
<path fill="none" stroke="black" d="M1267.37,-644.266C1266.69,-629.633 1265.83,-610.87 1265.09,-594.765"/>
<polygon fill="black" stroke="black" points="1268.58,-594.465 1264.63,-584.636 1261.59,-594.786 1268.58,-594.465"/>
</g>
<!-- EAID_1B113233_1E96_4d0b_88AF_C46FA6F3DBCB___EAID_D6E3196C_B841_44f8_BEF3_FCCBB2A90A11_STL -->
<g id="node9" class="node"><title>EAID_1B113233_1E96_4d0b_88AF_C46FA6F3DBCB___EAID_D6E3196C_B841_44f8_BEF3_FCCBB2A90A11_STL</title>
<image xlink:href="img/stimulus_icon.png" width="30px" height="20px" preserveAspectRatio="xMinYMin meet" x="1423.5" y="-696"/>
<text text-anchor="start" x="1366.5" y="-661.8" font-family="Times New Roman,serif" font-weight="bold" font-size="14.00">stl#User:Maintain &#160;blog</text>
<text text-anchor="start" x="1420" y="-647.8" font-family="Times New Roman,serif" font-weight="bold" font-size="14.00"> &#160;page</text>
</g>
<!-- EAID_1B113233_1E96_4d0b_88AF_C46FA6F3DBCB___EAID_D6E3196C_B841_44f8_BEF3_FCCBB2A90A11_STL&#45;&gt;EAID_1B113233_1E96_4d0b_88AF_C46FA6F3DBCB___EAID_D6E3196C_B841_44f8_BEF3_FCCBB2A90A11 -->
<g id="edge3" class="edge"><title>EAID_1B113233_1E96_4d0b_88AF_C46FA6F3DBCB___EAID_D6E3196C_B841_44f8_BEF3_FCCBB2A90A11_STL&#45;&gt;EAID_1B113233_1E96_4d0b_88AF_C46FA6F3DBCB___EAID_D6E3196C_B841_44f8_BEF3_FCCBB2A90A11</title>
<path fill="none" stroke="black" d="M1442.8,-637.765C1444.37,-626.363 1446.17,-613.288 1447.84,-601.154"/>
<polygon fill="black" stroke="black" points="1451.3,-601.623 1449.2,-591.24 1444.37,-600.669 1451.3,-601.623"/>
</g>
<!-- EAID_A9DB05F2_0162_4d0b_B6B5_DC56D829CCFF -->
<g id="node10" class="node"><title>EAID_A9DB05F2_0162_4d0b_B6B5_DC56D829CCFF</title>
<polygon fill="none" stroke="black" points="2005.5,-126 2005.5,-147 2171.5,-147 2171.5,-126 2005.5,-126"/>
<text text-anchor="start" x="2045.5" y="-133.8" font-family="Times New Roman,serif" font-weight="bold" font-size="14.00">Administrator</text>
<polygon fill="none" stroke="black" points="2005.5,-105 2005.5,-126 2171.5,-126 2171.5,-105 2005.5,-105"/>
<text text-anchor="start" x="2010" y="-112.8" font-family="Times New Roman,serif" font-weight="bold" font-size="14.00">EAJava_String password</text>
<polygon fill="none" stroke="black" points="2005.5,-84 2005.5,-105 2171.5,-105 2171.5,-84 2005.5,-84"/>
<text text-anchor="start" x="2008.5" y="-91.8" font-family="Times New Roman,serif" font-weight="bold" font-size="14.00">EAJava_String userName</text>
<polygon fill="none" stroke="black" points="2005.5,-63 2005.5,-84 2171.5,-84 2171.5,-63 2005.5,-63"/>
<text text-anchor="start" x="2041" y="-70.8" font-family="Times New Roman,serif" font-weight="bold" font-size="14.00">Administrator()</text>
<polygon fill="none" stroke="black" points="2005.5,-42 2005.5,-63 2171.5,-63 2171.5,-42 2005.5,-42"/>
<text text-anchor="start" x="2016.5" y="-49.8" font-family="Times New Roman,serif" font-weight="bold" font-size="14.00">Contacttheadminpage()</text>
<polygon fill="none" stroke="black" points="2005.5,-21 2005.5,-42 2171.5,-42 2171.5,-21 2005.5,-21"/>
<text text-anchor="start" x="2056.5" y="-28.8" font-family="Times New Roman,serif" font-weight="bold" font-size="14.00">Admindb()</text>
<polygon fill="none" stroke="black" points="2004.5,-20 2004.5,-148 2172.5,-148 2172.5,-20 2004.5,-20"/>
</g>
<!-- EAID_6BD1D387_42BA_4f65_9A6D_BA7064710607 -->
<g id="node11" class="node"><title>EAID_6BD1D387_42BA_4f65_9A6D_BA7064710607</title>
<polygon fill="none" stroke="black" points="1769.5,-115 1769.5,-136 1969.5,-136 1969.5,-115 1769.5,-115"/>
<text text-anchor="start" x="1823.5" y="-122.8" font-family="Times New Roman,serif" font-weight="bold" font-size="14.00">Blog Comment</text>
<polygon fill="none" stroke="black" points="1769.5,-94 1769.5,-115 1969.5,-115 1969.5,-94 1769.5,-94"/>
<text text-anchor="start" x="1791" y="-101.8" font-family="Times New Roman,serif" font-weight="bold" font-size="14.00">EAJava_String Comment</text>
<polygon fill="none" stroke="black" points="1769.5,-73 1769.5,-94 1969.5,-94 1969.5,-73 1769.5,-73"/>
<text text-anchor="start" x="1821" y="-80.8" font-family="Times New Roman,serif" font-weight="bold" font-size="14.00">BlogComment()</text>
<polygon fill="none" stroke="black" points="1769.5,-52 1769.5,-73 1969.5,-73 1969.5,-52 1769.5,-52"/>
<text text-anchor="start" x="1788" y="-59.8" font-family="Times New Roman,serif" font-weight="bold" font-size="14.00">Writeablogcommnetpage()</text>
<polygon fill="none" stroke="black" points="1769.5,-31 1769.5,-52 1969.5,-52 1969.5,-31 1769.5,-31"/>
<text text-anchor="start" x="1772.5" y="-38.8" font-family="Times New Roman,serif" font-weight="bold" font-size="14.00">Entersnameemailandcomment()</text>
<polygon fill="none" stroke="black" points="1768.5,-30.5 1768.5,-137.5 1970.5,-137.5 1970.5,-30.5 1768.5,-30.5"/>
</g>
<!-- EAID_E8A23790_1BE7_4f00_85BA_4D8F795D81A9 -->
<g id="node13" class="node"><title>EAID_E8A23790_1BE7_4f00_85BA_4D8F795D81A9</title>
<polygon fill="none" stroke="black" points="1341.5,-115 1341.5,-136 1534.5,-136 1534.5,-115 1341.5,-115"/>
<text text-anchor="start" x="1407.5" y="-122.8" font-family="Times New Roman,serif" font-weight="bold" font-size="14.00">Customer</text>
<polygon fill="none" stroke="black" points="1341.5,-94 1341.5,-115 1534.5,-115 1534.5,-94 1341.5,-94"/>
<text text-anchor="start" x="1344.5" y="-101.8" font-family="Times New Roman,serif" font-weight="bold" font-size="14.00">EAJava_String Email Address</text>
<polygon fill="none" stroke="black" points="1341.5,-73 1341.5,-94 1534.5,-94 1534.5,-73 1341.5,-73"/>
<text text-anchor="start" x="1371" y="-80.8" font-family="Times New Roman,serif" font-weight="bold" font-size="14.00">EAJava_String Name</text>
<polygon fill="none" stroke="black" points="1341.5,-52 1341.5,-73 1534.5,-73 1534.5,-52 1341.5,-52"/>
<text text-anchor="start" x="1403" y="-59.8" font-family="Times New Roman,serif" font-weight="bold" font-size="14.00">Customer()</text>
<polygon fill="none" stroke="black" points="1341.5,-31 1341.5,-52 1534.5,-52 1534.5,-31 1341.5,-31"/>
<text text-anchor="start" x="1400.5" y="-38.8" font-family="Times New Roman,serif" font-weight="bold" font-size="14.00">Homepage()</text>
<polygon fill="none" stroke="black" points="1340,-30.5 1340,-137.5 1535,-137.5 1535,-30.5 1340,-30.5"/>
</g>
<!-- EAID_E3AE050F_24EA_4c8c_A85C_886787CAA0D5 -->
<g id="node14" class="node"><title>EAID_E3AE050F_24EA_4c8c_A85C_886787CAA0D5</title>
<polygon fill="none" stroke="black" points="1094.5,-126 1094.5,-147 1305.5,-147 1305.5,-126 1094.5,-126"/>
<text text-anchor="start" x="1175.5" y="-133.8" font-family="Times New Roman,serif" font-weight="bold" font-size="14.00">Product</text>
<polygon fill="none" stroke="black" points="1094.5,-105 1094.5,-126 1305.5,-126 1305.5,-105 1094.5,-105"/>
<text text-anchor="start" x="1115.5" y="-112.8" font-family="Times New Roman,serif" font-weight="bold" font-size="14.00">EAJava_String Description</text>
<polygon fill="none" stroke="black" points="1094.5,-84 1094.5,-105 1305.5,-105 1305.5,-84 1094.5,-84"/>
<text text-anchor="start" x="1130.5" y="-91.8" font-family="Times New Roman,serif" font-weight="bold" font-size="14.00">EAJava_String Fabric</text>
<polygon fill="none" stroke="black" points="1094.5,-63 1094.5,-84 1305.5,-84 1305.5,-63 1094.5,-63"/>
<text text-anchor="start" x="1138.5" y="-70.8" font-family="Times New Roman,serif" font-weight="bold" font-size="14.00">EAJava_String Size</text>
<polygon fill="none" stroke="black" points="1094.5,-42 1094.5,-63 1305.5,-63 1305.5,-42 1094.5,-42"/>
<text text-anchor="start" x="1171" y="-49.8" font-family="Times New Roman,serif" font-weight="bold" font-size="14.00">Product()</text>
<polygon fill="none" stroke="black" points="1094.5,-21 1094.5,-42 1305.5,-42 1305.5,-21 1094.5,-21"/>
<text text-anchor="start" x="1097.5" y="-28.8" font-family="Times New Roman,serif" font-weight="bold" font-size="14.00">AddRemoveUpdateProductpage()</text>
<polygon fill="none" stroke="black" points="1093,-20 1093,-148 1306,-148 1306,-20 1093,-20"/>
</g>
<!-- EAID_B3E23F8D_28BB_4878_912E_121A3018D27A -->
<g id="node15" class="node"><title>EAID_B3E23F8D_28BB_4878_912E_121A3018D27A</title>
<polygon fill="none" stroke="black" points="927.5,-84 927.5,-105 1058.5,-105 1058.5,-84 927.5,-84"/>
<text text-anchor="start" x="935" y="-91.8" font-family="Times New Roman,serif" font-weight="bold" font-size="14.00">Updatesocialmedia</text>
<polygon fill="none" stroke="black" points="927.5,-63 927.5,-84 1058.5,-84 1058.5,-63 927.5,-63"/>
<text text-anchor="start" x="930.5" y="-70.8" font-family="Times New Roman,serif" font-weight="bold" font-size="14.00">Updatesocialmedia()</text>
<polygon fill="none" stroke="black" points="926,-62 926,-106 1059,-106 1059,-62 926,-62"/>
</g>
<!-- EAID_64E1EEFD_46E3_4555_AC5D_287F459D0D30 -->
<g id="node16" class="node"><title>EAID_64E1EEFD_46E3_4555_AC5D_287F459D0D30</title>
<polygon fill="none" stroke="black" points="708.5,-105 708.5,-126 891.5,-126 891.5,-105 708.5,-105"/>
<text text-anchor="start" x="742.5" y="-112.8" font-family="Times New Roman,serif" font-weight="bold" font-size="14.00">Addnewpagespage</text>
<polygon fill="none" stroke="black" points="708.5,-84 708.5,-105 891.5,-105 891.5,-84 708.5,-84"/>
<text text-anchor="start" x="738" y="-91.8" font-family="Times New Roman,serif" font-weight="bold" font-size="14.00">Addnewpagespage()</text>
<polygon fill="none" stroke="black" points="708.5,-63 708.5,-84 891.5,-84 891.5,-63 708.5,-63"/>
<text text-anchor="start" x="769.5" y="-70.8" font-family="Times New Roman,serif" font-weight="bold" font-size="14.00">Pagesdb()</text>
<polygon fill="none" stroke="black" points="708.5,-42 708.5,-63 891.5,-63 891.5,-42 708.5,-42"/>
<text text-anchor="start" x="711.5" y="-49.8" font-family="Times New Roman,serif" font-weight="bold" font-size="14.00">Changewebsitedesignspage()</text>
<polygon fill="none" stroke="black" points="707,-41 707,-127 892,-127 892,-41 707,-41"/>
</g>
<!-- EAID_FDC7EC6D_D925_4dd4_AF6A_B20D267DB846 -->
<g id="node17" class="node"><title>EAID_FDC7EC6D_D925_4dd4_AF6A_B20D267DB846</title>
<polygon fill="none" stroke="black" points="541.5,-84 541.5,-105 672.5,-105 672.5,-84 541.5,-84"/>
<text text-anchor="start" x="549" y="-91.8" font-family="Times New Roman,serif" font-weight="bold" font-size="14.00">Websitesdesignsdb</text>
<polygon fill="none" stroke="black" points="541.5,-63 541.5,-84 672.5,-84 672.5,-63 541.5,-63"/>
<text text-anchor="start" x="544.5" y="-70.8" font-family="Times New Roman,serif" font-weight="bold" font-size="14.00">Websitesdesignsdb()</text>
<polygon fill="none" stroke="black" points="540,-62 540,-106 673,-106 673,-62 540,-62"/>
</g>
<!-- EAID_859F41CD_28BC_46e8_A057_36C030F223DB -->
<g id="node18" class="node"><title>EAID_859F41CD_28BC_46e8_A057_36C030F223DB</title>
<polygon fill="none" stroke="black" points="348.5,-94 348.5,-115 505.5,-115 505.5,-94 348.5,-94"/>
<text text-anchor="start" x="356" y="-101.8" font-family="Times New Roman,serif" font-weight="bold" font-size="14.00">Showconfirmationpage</text>
<polygon fill="none" stroke="black" points="348.5,-73 348.5,-94 505.5,-94 505.5,-73 348.5,-73"/>
<text text-anchor="start" x="351.5" y="-80.8" font-family="Times New Roman,serif" font-weight="bold" font-size="14.00">Showconfirmationpage()</text>
<polygon fill="none" stroke="black" points="348.5,-52 348.5,-73 505.5,-73 505.5,-52 348.5,-52"/>
<text text-anchor="start" x="389.5" y="-59.8" font-family="Times New Roman,serif" font-weight="bold" font-size="14.00">Homepage()</text>
<polygon fill="none" stroke="black" points="347,-51.5 347,-116.5 506,-116.5 506,-51.5 347,-51.5"/>
</g>
</g>
</svg>
