<?xml version="1.0" encoding="UTF-8" standalone="no"?>
<!DOCTYPE svg PUBLIC "-//W3C//DTD SVG 1.1//EN"
 "http://www.w3.org/Graphics/SVG/1.1/DTD/svg11.dtd">
<!-- Generated by graphviz version 2.38.0 (20140413.2041)
 -->
<!-- Title: g Pages: 1 -->
<svg width="1825pt" height="527pt"
 viewBox="0.00 0.00 1825.00 526.67" xmlns="http://www.w3.org/2000/svg" xmlns:xlink="http://www.w3.org/1999/xlink">
<g id="graph0" class="graph" transform="scale(1 1) rotate(0) translate(4 522.674)">
<title>g</title>
<polygon fill="white" stroke="none" points="-4,4 -4,-522.674 1821,-522.674 1821,4 -4,4"/>
<!-- EAID_28716257_719A_4bce_B439_763D05830402 -->
<g id="node1" class="node"><title>EAID_28716257_719A_4bce_B439_763D05830402</title>
<image xlink:href="img/actor1.png" width="61px" height="90px" preserveAspectRatio="xMinYMin meet" x="10.5" y="-183.174"/>
<text text-anchor="start" x="19" y="-69.9739" font-family="Times New Roman,serif" font-size="24.00">User</text>
</g>
<!-- EAID_6D3E22E1_0F84_40b1_B828_D80BD8E57586 -->
<g id="node2" class="node"><title>EAID_6D3E22E1_0F84_40b1_B828_D80BD8E57586</title>
<image xlink:href="img/boundary3.png" width="115px" height="67px" preserveAspectRatio="xMinYMin meet" x="352.5" y="-298.174"/>
<text text-anchor="start" x="127" y="-207.974" font-family="Times New Roman,serif" font-size="24.00">marks the user as either qualified, unqualified, or processing</text>
</g>
<!-- EAID_28716257_719A_4bce_B439_763D05830402&#45;&gt;EAID_6D3E22E1_0F84_40b1_B828_D80BD8E57586 -->
<g id="edge1" class="edge"><title>EAID_28716257_719A_4bce_B439_763D05830402&#45;&gt;EAID_6D3E22E1_0F84_40b1_B828_D80BD8E57586</title>
<path fill="none" stroke="black" d="M81.3012,-162.387C92.1651,-171.337 104.429,-180.015 117,-186.174 120.801,-188.036 124.657,-189.845 128.559,-191.602"/>
<polygon fill="black" stroke="black" points="127.18,-194.819 137.746,-195.606 129.977,-188.402 127.18,-194.819"/>
</g>
<!-- EAID_7835DF45_755A_4ccb_91CC_C56C9DA5B03B -->
<g id="node3" class="node"><title>EAID_7835DF45_755A_4ccb_91CC_C56C9DA5B03B</title>
<image xlink:href="img/boundary3.png" width="102px" height="67px" preserveAspectRatio="xMinYMin meet" x="1679" y="-132.174"/>
<text text-anchor="start" x="1679" y="-41.9739" font-family="Times New Roman,serif" font-size="24.00">Homepage</text>
</g>
<!-- EAID_28716257_719A_4bce_B439_763D05830402&#45;&gt;EAID_7835DF45_755A_4ccb_91CC_C56C9DA5B03B -->
<g id="edge2" class="edge"><title>EAID_28716257_719A_4bce_B439_763D05830402&#45;&gt;EAID_7835DF45_755A_4ccb_91CC_C56C9DA5B03B</title>
<path fill="none" stroke="black" d="M81.189,-80.7303C91.8815,-71.9332 104.094,-63.9079 117,-59.1739 427.858,54.8526 1277.58,-25.7688 1607,-59.1739 1623.99,-60.897 1642.11,-63.9372 1659.05,-67.3176"/>
<polygon fill="black" stroke="black" points="1658.37,-70.7503 1668.87,-69.3398 1659.78,-63.8943 1658.37,-70.7503"/>
</g>
<!-- EAID_0D813A30_4E5C_4447_80F8_A8126144B9A1 -->
<g id="node4" class="node"><title>EAID_0D813A30_4E5C_4447_80F8_A8126144B9A1</title>
<image xlink:href="img/boundary3.png" width="115px" height="67px" preserveAspectRatio="xMinYMin meet" x="353" y="-171.174"/>
<text text-anchor="start" x="188" y="-80.9739" font-family="Times New Roman,serif" font-size="24.00">select the appropriate posting and view &#160;profile</text>
</g>
<!-- EAID_28716257_719A_4bce_B439_763D05830402&#45;&gt;EAID_0D813A30_4E5C_4447_80F8_A8126144B9A1 -->
<g id="edge3" class="edge"><title>EAID_28716257_719A_4bce_B439_763D05830402&#45;&gt;EAID_0D813A30_4E5C_4447_80F8_A8126144B9A1</title>
<path fill="none" stroke="black" d="M81.1781,-123.174C103.717,-123.174 134.006,-123.174 167.101,-123.174"/>
<polygon fill="black" stroke="black" points="167.456,-126.674 177.456,-123.174 167.456,-119.674 167.456,-126.674"/>
</g>
<!-- EAID_2DB4CABA_C6B7_41b0_8244_5DE9A03682C2 -->
<g id="node12" class="node"><title>EAID_2DB4CABA_C6B7_41b0_8244_5DE9A03682C2</title>
<image xlink:href="img/control1.png" width="106px" height="75px" preserveAspectRatio="xMinYMin meet" x="838" y="-179.174"/>
<text text-anchor="start" x="758.5" y="-80.9739" font-family="Times New Roman,serif" font-size="24.00">returns the correct applicant</text>
</g>
<!-- EAID_6D3E22E1_0F84_40b1_B828_D80BD8E57586&#45;&gt;EAID_2DB4CABA_C6B7_41b0_8244_5DE9A03682C2 -->
<g id="edge12" class="edge"><title>EAID_6D3E22E1_0F84_40b1_B828_D80BD8E57586&#45;&gt;EAID_2DB4CABA_C6B7_41b0_8244_5DE9A03682C2</title>
<path fill="none" stroke="black" d="M666.524,-195.58C678.88,-192.498 691.092,-189.355 703,-186.174 714.406,-183.126 726.154,-179.818 737.94,-176.377"/>
<polygon fill="black" stroke="black" points="739.241,-179.643 747.843,-173.458 737.262,-172.928 739.241,-179.643"/>
</g>
<!-- EAID_0D813A30_4E5C_4447_80F8_A8126144B9A1&#45;&gt;EAID_2DB4CABA_C6B7_41b0_8244_5DE9A03682C2 -->
<g id="edge14" class="edge"><title>EAID_0D813A30_4E5C_4447_80F8_A8126144B9A1&#45;&gt;EAID_2DB4CABA_C6B7_41b0_8244_5DE9A03682C2</title>
<path fill="none" stroke="black" d="M642.541,-125.109C674.797,-125.379 707.24,-125.65 737.521,-125.903"/>
<polygon fill="black" stroke="black" points="737.675,-129.405 747.704,-125.989 737.734,-122.405 737.675,-129.405"/>
</g>
<!-- EAID_F7AD41AC_6DD5_4b43_A52E_068EFDCB5789 -->
<g id="node5" class="node"><title>EAID_F7AD41AC_6DD5_4b43_A52E_068EFDCB5789</title>
<image xlink:href="img/actor1.png" width="61px" height="90px" preserveAspectRatio="xMinYMin meet" x="10.5" y="-480.174"/>
<text text-anchor="start" x="19" y="-366.974" font-family="Times New Roman,serif" font-size="24.00">User</text>
</g>
<!-- EAID_8B8FF407_4C99_44ae_9086_F6D242D72AB0 -->
<g id="node6" class="node"><title>EAID_8B8FF407_4C99_44ae_9086_F6D242D72AB0</title>
<image xlink:href="img/boundary3.png" width="102px" height="67px" preserveAspectRatio="xMinYMin meet" x="1679" y="-512.174"/>
<text text-anchor="start" x="1679" y="-421.974" font-family="Times New Roman,serif" font-size="24.00">Homepage</text>
</g>
<!-- EAID_F7AD41AC_6DD5_4b43_A52E_068EFDCB5789&#45;&gt;EAID_8B8FF407_4C99_44ae_9086_F6D242D72AB0 -->
<g id="edge4" class="edge"><title>EAID_F7AD41AC_6DD5_4b43_A52E_068EFDCB5789&#45;&gt;EAID_8B8FF407_4C99_44ae_9086_F6D242D72AB0</title>
<path fill="none" stroke="black" d="M81.0968,-432.605C92.5637,-435.673 105.179,-438.545 117,-440.174 708.55,-521.679 1433.7,-484.003 1658.93,-469.185"/>
<polygon fill="black" stroke="black" points="1659.21,-472.674 1668.95,-468.519 1658.74,-465.69 1659.21,-472.674"/>
</g>
<!-- EAID_61605494_DD16_4a07_B1BD_AA102E46BFAA -->
<g id="node7" class="node"><title>EAID_61605494_DD16_4a07_B1BD_AA102E46BFAA</title>
<image xlink:href="img/boundary3.png" width="115px" height="67px" preserveAspectRatio="xMinYMin meet" x="352.5" y="-425.174"/>
<text text-anchor="start" x="273" y="-334.974" font-family="Times New Roman,serif" font-size="24.00">Edit Application Status Page</text>
</g>
<!-- EAID_F7AD41AC_6DD5_4b43_A52E_068EFDCB5789&#45;&gt;EAID_61605494_DD16_4a07_B1BD_AA102E46BFAA -->
<g id="edge5" class="edge"><title>EAID_F7AD41AC_6DD5_4b43_A52E_068EFDCB5789&#45;&gt;EAID_61605494_DD16_4a07_B1BD_AA102E46BFAA</title>
<path fill="none" stroke="black" d="M81.1781,-415.531C122.491,-410.697 189.843,-402.817 252.785,-395.452"/>
<polygon fill="black" stroke="black" points="253.319,-398.914 262.844,-394.275 252.505,-391.961 253.319,-398.914"/>
</g>
<!-- EAID_BBA3B377_90D7_4022_BFE1_2CDFE58D19B7 -->
<g id="node10" class="node"><title>EAID_BBA3B377_90D7_4022_BFE1_2CDFE58D19B7</title>
<image xlink:href="img/control1.png" width="106px" height="75px" preserveAspectRatio="xMinYMin meet" x="838" y="-429.174"/>
<text text-anchor="start" x="749.5" y="-330.974" font-family="Times New Roman,serif" font-size="24.00">Edit Applications information</text>
</g>
<!-- EAID_61605494_DD16_4a07_B1BD_AA102E46BFAA&#45;&gt;EAID_BBA3B377_90D7_4022_BFE1_2CDFE58D19B7 -->
<g id="edge7" class="edge"><title>EAID_61605494_DD16_4a07_B1BD_AA102E46BFAA&#45;&gt;EAID_BBA3B377_90D7_4022_BFE1_2CDFE58D19B7</title>
<path fill="none" stroke="black" d="M557.166,-377.174C611.371,-377.174 673.129,-377.174 728.577,-377.174"/>
<polygon fill="black" stroke="black" points="728.854,-380.674 738.854,-377.174 728.854,-373.674 728.854,-380.674"/>
</g>
<!-- EAID_C7744E7E_E5A4_4512_8DBB_DD5ABC26D0E0 -->
<g id="node8" class="node"><title>EAID_C7744E7E_E5A4_4512_8DBB_DD5ABC26D0E0</title>
<image xlink:href="img/control1.png" width="106px" height="75px" preserveAspectRatio="xMinYMin meet" x="1289.5" y="-420.174"/>
<text text-anchor="start" x="1226.5" y="-321.974" font-family="Times New Roman,serif" font-size="24.00">Show confirmation page</text>
</g>
<!-- EAID_C7744E7E_E5A4_4512_8DBB_DD5ABC26D0E0&#45;&gt;EAID_8B8FF407_4C99_44ae_9086_F6D242D72AB0 -->
<g id="edge11" class="edge"><title>EAID_C7744E7E_E5A4_4512_8DBB_DD5ABC26D0E0&#45;&gt;EAID_8B8FF407_4C99_44ae_9086_F6D242D72AB0</title>
<path fill="none" stroke="black" d="M1468.66,-399.342C1531.76,-415.055 1605.92,-433.524 1658.92,-446.721"/>
<polygon fill="black" stroke="black" points="1658.34,-450.185 1668.89,-449.205 1660.03,-443.392 1658.34,-450.185"/>
</g>
<!-- EAID_C7744E7E_E5A4_4512_8DBB_DD5ABC26D0E0&#45;&gt;EAID_61605494_DD16_4a07_B1BD_AA102E46BFAA -->
<g id="edge8" class="edge"><title>EAID_C7744E7E_E5A4_4512_8DBB_DD5ABC26D0E0&#45;&gt;EAID_61605494_DD16_4a07_B1BD_AA102E46BFAA</title>
<path fill="none" stroke="black" d="M1216.25,-337.859C1162.9,-326.417 1099.76,-314.809 1042,-309.174 907.97,-296.098 872.964,-295.433 739,-309.174 682.496,-314.969 621.363,-326.241 567.358,-337.966"/>
<polygon fill="black" stroke="black" points="566.377,-334.598 557.359,-340.16 567.877,-341.436 566.377,-334.598"/>
</g>
<!-- EAID_826D98F1_B903_4829_9E00_55FB1BA27F62 -->
<g id="node9" class="node"><title>EAID_826D98F1_B903_4829_9E00_55FB1BA27F62</title>
<image xlink:href="img/activity_icon.png" width="30px" height="20px" preserveAspectRatio="xMinYMin meet" x="1715" y="-385.174"/>
<text text-anchor="start" x="1653" y="-342.974" font-family="Times New Roman,serif" font-weight="bold" font-size="24.00">Application db</text>
</g>
<!-- EAID_C7744E7E_E5A4_4512_8DBB_DD5ABC26D0E0&#45;&gt;EAID_826D98F1_B903_4829_9E00_55FB1BA27F62 -->
<g id="edge6" class="edge"><title>EAID_C7744E7E_E5A4_4512_8DBB_DD5ABC26D0E0&#45;&gt;EAID_826D98F1_B903_4829_9E00_55FB1BA27F62</title>
<path fill="none" stroke="black" d="M1468.66,-365.577C1521.93,-364.471 1583.09,-363.202 1632.74,-362.172"/>
<polygon fill="black" stroke="black" points="1632.9,-365.669 1642.83,-361.962 1632.76,-358.67 1632.9,-365.669"/>
</g>
<!-- EAID_BBA3B377_90D7_4022_BFE1_2CDFE58D19B7&#45;&gt;EAID_C7744E7E_E5A4_4512_8DBB_DD5ABC26D0E0 -->
<g id="edge9" class="edge"><title>EAID_BBA3B377_90D7_4022_BFE1_2CDFE58D19B7&#45;&gt;EAID_C7744E7E_E5A4_4512_8DBB_DD5ABC26D0E0</title>
<path fill="none" stroke="black" d="M1042.28,-374.158C1095.32,-373.097 1154.56,-371.913 1206.24,-370.879"/>
<polygon fill="black" stroke="black" points="1206.54,-374.374 1216.47,-370.675 1206.4,-367.375 1206.54,-374.374"/>
</g>
<!-- EAID_AD0E8AFC_5A60_4c01_841C_8CFE2D74D10D -->
<g id="node11" class="node"><title>EAID_AD0E8AFC_5A60_4c01_841C_8CFE2D74D10D</title>
<image xlink:href="img/control1.png" width="106px" height="75px" preserveAspectRatio="xMinYMin meet" x="1290" y="-179.174"/>
<text text-anchor="start" x="1088.5" y="-80.9739" font-family="Times New Roman,serif" font-size="24.00">modifies the Applicant profile to reflect User&#39;s change</text>
</g>
<!-- EAID_AD0E8AFC_5A60_4c01_841C_8CFE2D74D10D&#45;&gt;EAID_7835DF45_755A_4ccb_91CC_C56C9DA5B03B -->
<g id="edge10" class="edge"><title>EAID_AD0E8AFC_5A60_4c01_841C_8CFE2D74D10D&#45;&gt;EAID_7835DF45_755A_4ccb_91CC_C56C9DA5B03B</title>
<path fill="none" stroke="black" d="M1607.03,-97.7794C1625.59,-95.7085 1643.14,-93.7512 1658.83,-92.0005"/>
<polygon fill="black" stroke="black" points="1659.32,-95.4679 1668.87,-90.8808 1658.55,-88.5111 1659.32,-95.4679"/>
</g>
<!-- EAID_2DB4CABA_C6B7_41b0_8244_5DE9A03682C2&#45;&gt;EAID_AD0E8AFC_5A60_4c01_841C_8CFE2D74D10D -->
<g id="edge13" class="edge"><title>EAID_2DB4CABA_C6B7_41b0_8244_5DE9A03682C2&#45;&gt;EAID_AD0E8AFC_5A60_4c01_841C_8CFE2D74D10D</title>
<path fill="none" stroke="black" d="M1033.27,-127.174C1044.42,-127.174 1055.9,-127.174 1067.56,-127.174"/>
<polygon fill="black" stroke="black" points="1067.85,-130.674 1077.85,-127.174 1067.85,-123.674 1067.85,-130.674"/>
</g>
</g>
</svg>
