<?xml version="1.0" encoding="UTF-8" standalone="no"?>
<!DOCTYPE svg PUBLIC "-//W3C//DTD SVG 1.1//EN"
 "http://www.w3.org/Graphics/SVG/1.1/DTD/svg11.dtd">
<!-- Generated by graphviz version 2.38.0 (20140413.2041)
 -->
<!-- Title: g Pages: 1 -->
<svg width="1933pt" height="342pt"
 viewBox="0.00 0.00 1933.00 341.51" xmlns="http://www.w3.org/2000/svg" xmlns:xlink="http://www.w3.org/1999/xlink">
<g id="graph0" class="graph" transform="scale(1 1) rotate(0) translate(4 337.514)">
<title>g</title>
<polygon fill="white" stroke="none" points="-4,4 -4,-337.514 1929,-337.514 1929,4 -4,4"/>
<!-- EAID_16BFE24A_E683_4afa_9411_1711D90E1A90 -->
<g id="node1" class="node"><title>EAID_16BFE24A_E683_4afa_9411_1711D90E1A90</title>
<image xlink:href="img/actor1.png" width="61px" height="90px" preserveAspectRatio="xMinYMin meet" x="10.5" y="-214.014"/>
<text text-anchor="start" x="19" y="-100.814" font-family="Times New Roman,serif" font-size="24.00">User</text>
</g>
<!-- EAID_0F2B16D0_1812_4edc_9F77_BDD83306EBA6 -->
<g id="node2" class="node"><title>EAID_0F2B16D0_1812_4edc_9F77_BDD83306EBA6</title>
<image xlink:href="img/boundary3.png" width="115px" height="67px" preserveAspectRatio="xMinYMin meet" x="522.5" y="-244.014"/>
<text text-anchor="start" x="513" y="-153.814" font-family="Times New Roman,serif" font-size="24.00">Clicks Submit</text>
</g>
<!-- EAID_16BFE24A_E683_4afa_9411_1711D90E1A90&#45;&gt;EAID_0F2B16D0_1812_4edc_9F77_BDD83306EBA6 -->
<g id="edge1" class="edge"><title>EAID_16BFE24A_E683_4afa_9411_1711D90E1A90&#45;&gt;EAID_0F2B16D0_1812_4edc_9F77_BDD83306EBA6</title>
<path fill="none" stroke="black" d="M81.0535,-167.477C92.5197,-170.849 105.146,-174.059 117,-176.014 246.607,-197.382 399.263,-199.606 492.563,-198.428"/>
<polygon fill="black" stroke="black" points="492.852,-201.925 502.801,-198.282 492.752,-194.925 492.852,-201.925"/>
</g>
<!-- EAID_A59F1678_E6B5_46e0_A95C_C2FD3090EA8D -->
<g id="node3" class="node"><title>EAID_A59F1678_E6B5_46e0_A95C_C2FD3090EA8D</title>
<image xlink:href="img/boundary3.png" width="115px" height="67px" preserveAspectRatio="xMinYMin meet" x="211" y="-161.014"/>
<text text-anchor="start" x="156.5" y="-70.8139" font-family="Times New Roman,serif" font-size="24.00">Click on register button</text>
</g>
<!-- EAID_16BFE24A_E683_4afa_9411_1711D90E1A90&#45;&gt;EAID_A59F1678_E6B5_46e0_A95C_C2FD3090EA8D -->
<g id="edge2" class="edge"><title>EAID_16BFE24A_E683_4afa_9411_1711D90E1A90&#45;&gt;EAID_A59F1678_E6B5_46e0_A95C_C2FD3090EA8D</title>
<path fill="none" stroke="black" d="M81.1248,-146.825C97.0083,-143.944 116.299,-140.444 136.374,-136.802"/>
<polygon fill="black" stroke="black" points="137.066,-140.234 146.281,-135.005 135.816,-133.346 137.066,-140.234"/>
</g>
<!-- EAID_289C2618_CB31_452d_837D_623B054B0BA4 -->
<g id="node4" class="node"><title>EAID_289C2618_CB31_452d_837D_623B054B0BA4</title>
<image xlink:href="img/boundary3.png" width="102px" height="67px" preserveAspectRatio="xMinYMin meet" x="1813" y="-121.014"/>
<text text-anchor="start" x="1813" y="-30.8139" font-family="Times New Roman,serif" font-size="24.00">Homepage</text>
</g>
<!-- EAID_16BFE24A_E683_4afa_9411_1711D90E1A90&#45;&gt;EAID_289C2618_CB31_452d_837D_623B054B0BA4 -->
<g id="edge3" class="edge"><title>EAID_16BFE24A_E683_4afa_9411_1711D90E1A90&#45;&gt;EAID_289C2618_CB31_452d_837D_623B054B0BA4</title>
<path fill="none" stroke="black" d="M75.2658,-87.8989C86.3964,-72.5124 100.298,-58.0139 117,-49.0139 297.913,48.473 373.493,-30.0139 579,-30.0139 579,-30.0139 579,-30.0139 1056.5,-30.0139 1372.39,-30.0139 1454.02,-6.22984 1767,-49.0139 1775.53,-50.1804 1784.41,-51.8104 1793.16,-53.6777"/>
<polygon fill="black" stroke="black" points="1792.44,-57.1035 1802.96,-55.8746 1793.97,-50.2729 1792.44,-57.1035"/>
</g>
<!-- EAID_6E19CE22_3223_4a7f_996F_169838BA56F6 -->
<g id="node5" class="node"><title>EAID_6E19CE22_3223_4a7f_996F_169838BA56F6</title>
<image xlink:href="img/boundary3.png" width="115px" height="67px" preserveAspectRatio="xMinYMin meet" x="211.5" y="-327.014"/>
<text text-anchor="start" x="127.5" y="-236.814" font-family="Times New Roman,serif" font-size="24.00">Fills out the registration form </text>
</g>
<!-- EAID_16BFE24A_E683_4afa_9411_1711D90E1A90&#45;&gt;EAID_6E19CE22_3223_4a7f_996F_169838BA56F6 -->
<g id="edge4" class="edge"><title>EAID_16BFE24A_E683_4afa_9411_1711D90E1A90&#45;&gt;EAID_6E19CE22_3223_4a7f_996F_169838BA56F6</title>
<path fill="none" stroke="black" d="M81.1812,-185.85C92.4348,-194.206 104.919,-202.87 117,-210.014 122.439,-213.23 128.054,-216.403 133.775,-219.516"/>
<polygon fill="black" stroke="black" points="132.37,-222.734 142.84,-224.357 135.667,-216.559 132.37,-222.734"/>
</g>
<!-- EAID_3DD6AC56_A207_4ba6_90A3_5CDA72F6DED5 -->
<g id="node7" class="node"><title>EAID_3DD6AC56_A207_4ba6_90A3_5CDA72F6DED5</title>
<image xlink:href="img/boundary3.png" width="115px" height="67px" preserveAspectRatio="xMinYMin meet" x="780.5" y="-244.014"/>
<text text-anchor="start" x="750.5" y="-153.814" font-family="Times New Roman,serif" font-size="24.00">Validates the form</text>
</g>
<!-- EAID_0F2B16D0_1812_4edc_9F77_BDD83306EBA6&#45;&gt;EAID_3DD6AC56_A207_4ba6_90A3_5CDA72F6DED5 -->
<g id="edge6" class="edge"><title>EAID_0F2B16D0_1812_4edc_9F77_BDD83306EBA6&#45;&gt;EAID_3DD6AC56_A207_4ba6_90A3_5CDA72F6DED5</title>
<path fill="none" stroke="black" d="M657.312,-196.014C679.957,-196.014 705.191,-196.014 729.407,-196.014"/>
<polygon fill="black" stroke="black" points="729.713,-199.514 739.713,-196.014 729.713,-192.514 729.713,-199.514"/>
</g>
<!-- EAID_B746C0B0_317C_4cd2_B239_E9452B343BFC -->
<g id="node6" class="node"><title>EAID_B746C0B0_317C_4cd2_B239_E9452B343BFC</title>
<image xlink:href="img/activity_icon.png" width="30px" height="20px" preserveAspectRatio="xMinYMin meet" x="565" y="-117.014"/>
<text text-anchor="start" x="466" y="-74.8139" font-family="Times New Roman,serif" font-weight="bold" font-size="24.00">Register &#160;&#160;information</text>
</g>
<!-- EAID_A59F1678_E6B5_46e0_A95C_C2FD3090EA8D&#45;&gt;EAID_B746C0B0_317C_4cd2_B239_E9452B343BFC -->
<g id="edge5" class="edge"><title>EAID_A59F1678_E6B5_46e0_A95C_C2FD3090EA8D&#45;&gt;EAID_B746C0B0_317C_4cd2_B239_E9452B343BFC</title>
<path fill="none" stroke="black" d="M390.934,-104.774C408.939,-103.553 427.574,-102.288 445.803,-101.051"/>
<polygon fill="black" stroke="black" points="446.142,-104.537 455.882,-100.368 445.668,-97.5527 446.142,-104.537"/>
</g>
<!-- EAID_6E19CE22_3223_4a7f_996F_169838BA56F6&#45;&gt;EAID_3DD6AC56_A207_4ba6_90A3_5CDA72F6DED5 -->
<g id="edge7" class="edge"><title>EAID_6E19CE22_3223_4a7f_996F_169838BA56F6&#45;&gt;EAID_3DD6AC56_A207_4ba6_90A3_5CDA72F6DED5</title>
<path fill="none" stroke="black" d="M420.178,-286.626C504.781,-287.3 611.6,-282.108 704,-259.014 712.711,-256.837 721.535,-254.065 730.276,-250.903"/>
<polygon fill="black" stroke="black" points="731.605,-254.142 739.719,-247.329 729.127,-247.595 731.605,-254.142"/>
</g>
<!-- EAID_B746C0B0_317C_4cd2_B239_E9452B343BFC&#45;&gt;EAID_3DD6AC56_A207_4ba6_90A3_5CDA72F6DED5 -->
<g id="edge11" class="edge"><title>EAID_B746C0B0_317C_4cd2_B239_E9452B343BFC&#45;&gt;EAID_3DD6AC56_A207_4ba6_90A3_5CDA72F6DED5</title>
<path fill="none" stroke="black" d="M680.439,-123.065C688.459,-125.959 696.395,-128.957 704,-132.014 712.708,-135.514 721.646,-139.328 730.567,-143.293"/>
<polygon fill="black" stroke="black" points="729.294,-146.558 739.849,-147.473 732.168,-140.175 729.294,-146.558"/>
</g>
<!-- EAID_D2E7FF62_DF6A_4a82_8CE7_E42BE0B2F79B -->
<g id="node9" class="node"><title>EAID_D2E7FF62_DF6A_4a82_8CE7_E42BE0B2F79B</title>
<image xlink:href="img/control1.png" width="106px" height="75px" preserveAspectRatio="xMinYMin meet" x="1003" y="-169.014"/>
<text text-anchor="start" x="981.5" y="-70.8139" font-family="Times New Roman,serif" font-size="24.00">Logs in the user</text>
</g>
<!-- EAID_3DD6AC56_A207_4ba6_90A3_5CDA72F6DED5&#45;&gt;EAID_D2E7FF62_DF6A_4a82_8CE7_E42BE0B2F79B -->
<g id="edge10" class="edge"><title>EAID_3DD6AC56_A207_4ba6_90A3_5CDA72F6DED5&#45;&gt;EAID_D2E7FF62_DF6A_4a82_8CE7_E42BE0B2F79B</title>
<path fill="none" stroke="black" d="M935.128,-160.673C943.779,-157.509 952.528,-154.309 961.151,-151.156"/>
<polygon fill="black" stroke="black" points="962.63,-154.341 970.82,-147.619 960.226,-147.767 962.63,-154.341"/>
</g>
<!-- EAID_98BEFF6F_D091_425f_B9D8_74D0F9FE974C -->
<g id="node10" class="node"><title>EAID_98BEFF6F_D091_425f_B9D8_74D0F9FE974C</title>
<image xlink:href="img/activity_icon.png" width="30px" height="20px" preserveAspectRatio="xMinYMin meet" x="1040.5" y="-250.014"/>
<text text-anchor="start" x="996.5" y="-207.814" font-family="Times New Roman,serif" font-weight="bold" font-size="24.00">Register db</text>
</g>
<!-- EAID_3DD6AC56_A207_4ba6_90A3_5CDA72F6DED5&#45;&gt;EAID_98BEFF6F_D091_425f_B9D8_74D0F9FE974C -->
<g id="edge12" class="edge"><title>EAID_3DD6AC56_A207_4ba6_90A3_5CDA72F6DED5&#45;&gt;EAID_98BEFF6F_D091_425f_B9D8_74D0F9FE974C</title>
<path fill="none" stroke="black" d="M935.128,-208.987C948.913,-210.838 962.947,-212.722 976.32,-214.517"/>
<polygon fill="black" stroke="black" points="976.025,-218.009 986.402,-215.871 976.956,-211.071 976.025,-218.009"/>
</g>
<!-- EAID_CF19B3F5_D072_40af_9EDE_19080D85352A -->
<g id="node8" class="node"><title>EAID_CF19B3F5_D072_40af_9EDE_19080D85352A</title>
<image xlink:href="img/control1.png" width="106px" height="75px" preserveAspectRatio="xMinYMin meet" x="1419" y="-169.014"/>
<text text-anchor="start" x="1186.5" y="-70.8139" font-family="Times New Roman,serif" font-size="24.00">Sends and email notification of the new user account created</text>
</g>
<!-- EAID_CF19B3F5_D072_40af_9EDE_19080D85352A&#45;&gt;EAID_289C2618_CB31_452d_837D_623B054B0BA4 -->
<g id="edge8" class="edge"><title>EAID_CF19B3F5_D072_40af_9EDE_19080D85352A&#45;&gt;EAID_289C2618_CB31_452d_837D_623B054B0BA4</title>
<path fill="none" stroke="black" d="M1767.22,-83.8057C1776.23,-82.7911 1784.85,-81.8199 1792.97,-80.9051"/>
<polygon fill="black" stroke="black" points="1793.43,-84.3751 1802.97,-79.7773 1792.65,-77.4191 1793.43,-84.3751"/>
</g>
<!-- EAID_D2E7FF62_DF6A_4a82_8CE7_E42BE0B2F79B&#45;&gt;EAID_CF19B3F5_D072_40af_9EDE_19080D85352A -->
<g id="edge9" class="edge"><title>EAID_D2E7FF62_DF6A_4a82_8CE7_E42BE0B2F79B&#45;&gt;EAID_CF19B3F5_D072_40af_9EDE_19080D85352A</title>
<path fill="none" stroke="black" d="M1140.28,-117.014C1148.43,-117.014 1156.99,-117.014 1165.85,-117.014"/>
<polygon fill="black" stroke="black" points="1165.99,-120.514 1175.99,-117.014 1165.99,-113.514 1165.99,-120.514"/>
</g>
</g>
</svg>
