<?xml version="1.0" encoding="UTF-8" standalone="no"?>
<!DOCTYPE svg PUBLIC "-//W3C//DTD SVG 1.1//EN"
 "http://www.w3.org/Graphics/SVG/1.1/DTD/svg11.dtd">
<!-- Generated by graphviz version 2.38.0 (20140413.2041)
 -->
<!-- Title: g Pages: 1 -->
<svg width="567pt" height="332pt"
 viewBox="0.00 0.00 566.99 332.00" xmlns="http://www.w3.org/2000/svg" xmlns:xlink="http://www.w3.org/1999/xlink">
<g id="graph0" class="graph" transform="scale(1 1) rotate(0) translate(4 328)">
<title>g</title>
<polygon fill="white" stroke="none" points="-4,4 -4,-328 562.986,-328 562.986,4 -4,4"/>
<!-- verify course information -->
<g id="node1" class="node"><title>verify course information</title>
<ellipse fill="none" stroke="black" cx="235.941" cy="-162" rx="102.082" ry="18"/>
<text text-anchor="middle" x="235.941" y="-158.3" font-family="Times New Roman,serif" font-size="14.00">verify course information</text>
</g>
<!-- Invalid course information -->
<g id="node2" class="node"><title>Invalid course information</title>
<ellipse fill="none" stroke="black" cx="105.941" cy="-90" rx="105.881" ry="18"/>
<text text-anchor="middle" x="105.941" y="-86.3" font-family="Times New Roman,serif" font-size="14.00">Invalid course information</text>
</g>
<!-- verify course information&#45;&gt;Invalid course information -->
<g id="edge1" class="edge"><title>verify course information&#45;&gt;Invalid course information</title>
<path fill="none" stroke="black" d="M205.789,-144.765C187.788,-135.072 164.725,-122.653 145.3,-112.193"/>
<polygon fill="black" stroke="black" points="146.843,-109.049 136.379,-107.39 143.524,-115.212 146.843,-109.049"/>
</g>
<!-- save course info -->
<g id="node3" class="node"><title>save course info</title>
<ellipse fill="none" stroke="black" cx="299.941" cy="-90" rx="70.3881" ry="18"/>
<text text-anchor="middle" x="299.941" y="-86.3" font-family="Times New Roman,serif" font-size="14.00">save course info</text>
</g>
<!-- verify course information&#45;&gt;save course info -->
<g id="edge2" class="edge"><title>verify course information&#45;&gt;save course info</title>
<path fill="none" stroke="black" d="M251.433,-144.055C259.294,-135.457 268.986,-124.857 277.634,-115.397"/>
<polygon fill="black" stroke="black" points="280.426,-117.531 284.591,-107.789 275.26,-112.808 280.426,-117.531"/>
</g>
<!-- course -->
<g id="node6" class="node"><title>course</title>
<ellipse fill="none" stroke="black" cx="299.941" cy="-18" rx="35.194" ry="18"/>
<text text-anchor="middle" x="299.941" y="-14.3" font-family="Times New Roman,serif" font-size="14.00">course</text>
</g>
<!-- save course info&#45;&gt;course -->
<g id="edge4" class="edge"><title>save course info&#45;&gt;course</title>
<path fill="none" stroke="black" d="M299.941,-71.6966C299.941,-63.9827 299.941,-54.7125 299.941,-46.1124"/>
<polygon fill="black" stroke="black" points="303.441,-46.1043 299.941,-36.1043 296.441,-46.1044 303.441,-46.1043"/>
</g>
<!-- Redirect to home page -->
<g id="node4" class="node"><title>Redirect to home page</title>
<ellipse fill="none" stroke="black" cx="448.941" cy="-162" rx="92.8835" ry="18"/>
<text text-anchor="middle" x="448.941" y="-158.3" font-family="Times New Roman,serif" font-size="14.00">Redirect to home page</text>
</g>
<!-- home page -->
<g id="node5" class="node"><title>home page</title>
<ellipse fill="none" stroke="black" cx="508.941" cy="-90" rx="50.0912" ry="18"/>
<text text-anchor="middle" x="508.941" y="-86.3" font-family="Times New Roman,serif" font-size="14.00">home page</text>
</g>
<!-- Redirect to home page&#45;&gt;home page -->
<g id="edge3" class="edge"><title>Redirect to home page&#45;&gt;home page</title>
<path fill="none" stroke="black" d="M463.465,-144.055C470.943,-135.33 480.188,-124.544 488.386,-114.981"/>
<polygon fill="black" stroke="black" points="491.113,-117.177 494.963,-107.307 485.798,-112.622 491.113,-117.177"/>
</g>
<!-- Course management page -->
<g id="node7" class="node"><title>Course management page</title>
<ellipse fill="none" stroke="black" cx="337.941" cy="-234" rx="103.982" ry="18"/>
<text text-anchor="middle" x="337.941" y="-230.3" font-family="Times New Roman,serif" font-size="14.00">Course management page</text>
</g>
<!-- Course management page&#45;&gt;verify course information -->
<g id="edge6" class="edge"><title>Course management page&#45;&gt;verify course information</title>
<path fill="none" stroke="black" d="M313.768,-216.411C300.274,-207.151 283.278,-195.487 268.614,-185.423"/>
<polygon fill="black" stroke="black" points="270.519,-182.485 260.293,-179.713 266.558,-188.257 270.519,-182.485"/>
</g>
<!-- Course management page&#45;&gt;Redirect to home page -->
<g id="edge5" class="edge"><title>Course management page&#45;&gt;Redirect to home page</title>
<path fill="none" stroke="black" d="M364.246,-216.411C379.176,-206.996 398.045,-195.096 414.182,-184.92"/>
<polygon fill="black" stroke="black" points="416.232,-187.765 422.824,-179.47 412.498,-181.844 416.232,-187.765"/>
</g>
<!-- Admin -->
<g id="node8" class="node"><title>Admin</title>
<ellipse fill="none" stroke="black" cx="337.941" cy="-306" rx="35.194" ry="18"/>
<text text-anchor="middle" x="337.941" y="-302.3" font-family="Times New Roman,serif" font-size="14.00">Admin</text>
</g>
<!-- Admin&#45;&gt;Invalid course information -->
<g id="edge7" class="edge"><title>Admin&#45;&gt;Invalid course information</title>
<path fill="none" stroke="black" d="M307.499,-296.694C259.739,-281.924 168.197,-246.233 124.941,-180 112.952,-161.644 108.378,-137.037 106.702,-118.35"/>
<polygon fill="black" stroke="black" points="110.178,-117.867 106.017,-108.124 103.194,-118.335 110.178,-117.867"/>
</g>
<!-- Admin&#45;&gt;home page -->
<g id="edge8" class="edge"><title>Admin&#45;&gt;home page</title>
<path fill="none" stroke="black" d="M369.659,-297.78C419.646,-284.439 514.778,-250.599 550.941,-180 558.235,-165.76 556.202,-159.11 550.941,-144 547.254,-133.413 540.475,-123.351 533.423,-114.894"/>
<polygon fill="black" stroke="black" points="535.935,-112.452 526.67,-107.313 530.708,-117.108 535.935,-112.452"/>
</g>
<!-- Admin&#45;&gt;Course management page -->
<g id="edge9" class="edge"><title>Admin&#45;&gt;Course management page</title>
<path fill="none" stroke="black" d="M337.941,-287.697C337.941,-279.983 337.941,-270.712 337.941,-262.112"/>
<polygon fill="black" stroke="black" points="341.441,-262.104 337.941,-252.104 334.441,-262.104 341.441,-262.104"/>
</g>
</g>
</svg>
