<?xml version="1.0" encoding="UTF-8" standalone="no"?>
<!DOCTYPE svg PUBLIC "-//W3C//DTD SVG 1.1//EN"
 "http://www.w3.org/Graphics/SVG/1.1/DTD/svg11.dtd">
<!-- Generated by graphviz version 2.38.0 (20140413.2041)
 -->
<!-- Title: g Pages: 1 -->
<svg width="546pt" height="102pt"
 viewBox="0.00 0.00 546.00 102.00" xmlns="http://www.w3.org/2000/svg" xmlns:xlink="http://www.w3.org/1999/xlink">
<g id="graph0" class="graph" transform="scale(1 1) rotate(0) translate(4 98)">
<title>g</title>
<polygon fill="white" stroke="none" points="-4,4 -4,-98 542,-98 542,4 -4,4"/>
<!-- EAID_319F5EF2_F05D_4b20_81FC_2BFF618EC75F -->
<g id="node1" class="node"><title>EAID_319F5EF2_F05D_4b20_81FC_2BFF618EC75F</title>
<polygon fill="none" stroke="black" points="9,-68 9,-89 141,-89 141,-68 9,-68"/>
<text text-anchor="start" x="31" y="-75.8" font-family="Times New Roman,serif" font-weight="bold" font-size="14.00">Listofswitches</text>
<polygon fill="none" stroke="black" points="9,-47 9,-68 141,-68 141,-47 9,-47"/>
<text text-anchor="start" x="26.5" y="-54.8" font-family="Times New Roman,serif" font-weight="bold" font-size="14.00">Listofswitches()</text>
<polygon fill="none" stroke="black" points="9,-26 9,-47 141,-47 141,-26 9,-26"/>
<text text-anchor="start" x="19" y="-33.8" font-family="Times New Roman,serif" font-weight="bold" font-size="14.00">switchdetailpage()</text>
<polygon fill="none" stroke="black" points="9,-5 9,-26 141,-26 141,-5 9,-5"/>
<text text-anchor="start" x="12" y="-12.8" font-family="Times New Roman,serif" font-weight="bold" font-size="14.00">updateswitchstatus()</text>
<polygon fill="none" stroke="black" points="8,-4 8,-90 142,-90 142,-4 8,-4"/>
</g>
<!-- EAID_F032BE92_09EA_408a_BC77_271DC2ECDDC2 -->
<g id="node2" class="node"><title>EAID_F032BE92_09EA_408a_BC77_271DC2ECDDC2</title>
<polygon fill="none" stroke="black" points="178,-57 178,-78 305,-78 305,-57 178,-57"/>
<text text-anchor="start" x="185.5" y="-64.8" font-family="Times New Roman,serif" font-weight="bold" font-size="14.00">Addfavoritescreen</text>
<polygon fill="none" stroke="black" points="178,-36 178,-57 305,-57 305,-36 178,-36"/>
<text text-anchor="start" x="181" y="-43.8" font-family="Times New Roman,serif" font-weight="bold" font-size="14.00">Addfavoritescreen()</text>
<polygon fill="none" stroke="black" points="178,-15 178,-36 305,-36 305,-15 178,-15"/>
<text text-anchor="start" x="207" y="-22.8" font-family="Times New Roman,serif" font-weight="bold" font-size="14.00">Favoriate()</text>
<polygon fill="none" stroke="black" points="176.5,-14.5 176.5,-79.5 305.5,-79.5 305.5,-14.5 176.5,-14.5"/>
</g>
<!-- EAID_B60E5A8F_04B1_4773_B072_D854476E87F2 -->
<g id="node3" class="node"><title>EAID_B60E5A8F_04B1_4773_B072_D854476E87F2</title>
<polygon fill="none" stroke="black" points="341,-47 341,-68 529,-68 529,-47 341,-47"/>
<text text-anchor="start" x="348.5" y="-54.8" font-family="Times New Roman,serif" font-weight="bold" font-size="14.00">Errormessagewhenupdating</text>
<polygon fill="none" stroke="black" points="341,-26 341,-47 529,-47 529,-26 341,-26"/>
<text text-anchor="start" x="344" y="-33.8" font-family="Times New Roman,serif" font-weight="bold" font-size="14.00">Errormessagewhenupdating()</text>
<polygon fill="none" stroke="black" points="340,-25 340,-69 530,-69 530,-25 340,-25"/>
</g>
</g>
</svg>
