<?xml version="1.0" encoding="UTF-8" standalone="no"?>
<!DOCTYPE svg PUBLIC "-//W3C//DTD SVG 1.1//EN"
 "http://www.w3.org/Graphics/SVG/1.1/DTD/svg11.dtd">
<!-- Generated by graphviz version 2.38.0 (20140413.2041)
 -->
<!-- Title: g Pages: 1 -->
<svg width="1165pt" height="374pt"
 viewBox="0.00 0.00 1165.00 374.00" xmlns="http://www.w3.org/2000/svg" xmlns:xlink="http://www.w3.org/1999/xlink">
<g id="graph0" class="graph" transform="scale(1 1) rotate(0) translate(4 370)">
<title>g</title>
<polygon fill="white" stroke="none" points="-4,4 -4,-370 1161,-370 1161,4 -4,4"/>
<!-- EAID_47CA5B9B_5D5E_4aae_A1B1_52C22221824C -->
<g id="node1" class="node"><title>EAID_47CA5B9B_5D5E_4aae_A1B1_52C22221824C</title>
<image xlink:href="img/actor1.png" width="61px" height="90px" preserveAspectRatio="xMinYMin meet" x="10.5" y="-222.5"/>
<text text-anchor="start" x="19" y="-109.3" font-family="Times New Roman,serif" font-size="24.00">User</text>
</g>
<!-- EAID_CB7234A1_3CF1_4e82_8376_439F344D4789 -->
<g id="node2" class="node"><title>EAID_CB7234A1_3CF1_4e82_8376_439F344D4789</title>
<image xlink:href="img/boundary3.png" width="115px" height="67px" preserveAspectRatio="xMinYMin meet" x="655.5" y="-359.5"/>
<text text-anchor="start" x="581" y="-269.3" font-family="Times New Roman,serif" font-size="24.00">user profile and search page</text>
</g>
<!-- EAID_47CA5B9B_5D5E_4aae_A1B1_52C22221824C&#45;&gt;EAID_CB7234A1_3CF1_4e82_8376_439F344D4789 -->
<g id="edge1" class="edge"><title>EAID_47CA5B9B_5D5E_4aae_A1B1_52C22221824C&#45;&gt;EAID_CB7234A1_3CF1_4e82_8376_439F344D4789</title>
<path fill="none" stroke="black" d="M81.0044,-202.348C91.8739,-211.286 104.215,-219.799 117,-225.5 258.625,-288.655 436.272,-307.471 560.426,-312.142"/>
<polygon fill="black" stroke="black" points="560.652,-315.652 570.768,-312.503 560.896,-308.656 560.652,-315.652"/>
</g>
<!-- EAID_F96428D9_912D_4cd9_96AC_6ED974B0D241 -->
<g id="node3" class="node"><title>EAID_F96428D9_912D_4cd9_96AC_6ED974B0D241</title>
<image xlink:href="img/boundary3.png" width="106px" height="67px" preserveAspectRatio="xMinYMin meet" x="127" y="-210.5"/>
<text text-anchor="start" x="127" y="-120.3" font-family="Times New Roman,serif" font-size="24.00">Login page</text>
</g>
<!-- EAID_47CA5B9B_5D5E_4aae_A1B1_52C22221824C&#45;&gt;EAID_F96428D9_912D_4cd9_96AC_6ED974B0D241 -->
<g id="edge2" class="edge"><title>EAID_47CA5B9B_5D5E_4aae_A1B1_52C22221824C&#45;&gt;EAID_F96428D9_912D_4cd9_96AC_6ED974B0D241</title>
<path fill="none" stroke="black" d="M81.2707,-162.5C89.2517,-162.5 97.8705,-162.5 106.568,-162.5"/>
<polygon fill="black" stroke="black" points="106.781,-166 116.781,-162.5 106.781,-159 106.781,-166"/>
</g>
<!-- EAID_AECF4A53_4DCC_4f8d_A628_E9E1351C3528 -->
<g id="node4" class="node"><title>EAID_AECF4A53_4DCC_4f8d_A628_E9E1351C3528</title>
<image xlink:href="img/boundary3.png" width="115px" height="67px" preserveAspectRatio="xMinYMin meet" x="966.5" y="-102.5"/>
<text text-anchor="start" x="901" y="-12.3" font-family="Times New Roman,serif" font-size="24.00">incorrect user information</text>
</g>
<!-- EAID_47CA5B9B_5D5E_4aae_A1B1_52C22221824C&#45;&gt;EAID_AECF4A53_4DCC_4f8d_A628_E9E1351C3528 -->
<g id="edge3" class="edge"><title>EAID_47CA5B9B_5D5E_4aae_A1B1_52C22221824C&#45;&gt;EAID_AECF4A53_4DCC_4f8d_A628_E9E1351C3528</title>
<path fill="none" stroke="black" d="M81.2608,-121.556C92.0367,-112.6 104.27,-104.127 117,-98.5 417.958,34.5263 526.28,-24.8541 855,-39.5 863.305,-39.87 871.835,-40.3425 880.436,-40.8901"/>
<polygon fill="black" stroke="black" points="880.347,-44.3918 890.558,-41.5658 880.813,-37.4074 880.347,-44.3918"/>
</g>
<!-- EAID_243EE590_45BF_485f_AFDE_2E5FCD9863D2 -->
<g id="node5" class="node"><title>EAID_243EE590_45BF_485f_AFDE_2E5FCD9863D2</title>
<image xlink:href="img/control1.png" width="106px" height="75px" preserveAspectRatio="xMinYMin meet" x="354" y="-214.5"/>
<text text-anchor="start" x="289" y="-116.3" font-family="Times New Roman,serif" font-size="24.00">validate user information</text>
</g>
<!-- EAID_F96428D9_912D_4cd9_96AC_6ED974B0D241&#45;&gt;EAID_243EE590_45BF_485f_AFDE_2E5FCD9863D2 -->
<g id="edge4" class="edge"><title>EAID_F96428D9_912D_4cd9_96AC_6ED974B0D241&#45;&gt;EAID_243EE590_45BF_485f_AFDE_2E5FCD9863D2</title>
<path fill="none" stroke="black" d="M243.078,-162.5C251.3,-162.5 259.975,-162.5 268.866,-162.5"/>
<polygon fill="black" stroke="black" points="268.984,-166 278.984,-162.5 268.984,-159 268.984,-166"/>
</g>
<!-- EAID_243EE590_45BF_485f_AFDE_2E5FCD9863D2&#45;&gt;EAID_CB7234A1_3CF1_4e82_8376_439F344D4789 -->
<g id="edge10" class="edge"><title>EAID_243EE590_45BF_485f_AFDE_2E5FCD9863D2&#45;&gt;EAID_CB7234A1_3CF1_4e82_8376_439F344D4789</title>
<path fill="none" stroke="black" d="M527.281,-221.063C542.004,-228.285 556.847,-235.564 571,-242.5 577.562,-245.716 584.295,-249.015 591.094,-252.344"/>
<polygon fill="black" stroke="black" points="589.873,-255.644 600.393,-256.899 592.952,-249.357 589.873,-255.644"/>
</g>
<!-- EAID_243EE590_45BF_485f_AFDE_2E5FCD9863D2&#45;&gt;EAID_AECF4A53_4DCC_4f8d_A628_E9E1351C3528 -->
<g id="edge8" class="edge"><title>EAID_243EE590_45BF_485f_AFDE_2E5FCD9863D2&#45;&gt;EAID_AECF4A53_4DCC_4f8d_A628_E9E1351C3528</title>
<path fill="none" stroke="black" d="M497.954,-103.929C520.909,-91.6819 546.147,-80.4022 571,-73.5 672.026,-45.4431 790.6,-41.481 880.949,-44.114"/>
<polygon fill="black" stroke="black" points="880.881,-47.6135 890.988,-44.437 881.106,-40.6171 880.881,-47.6135"/>
</g>
<!-- EAID_041C69AA_817C_461e_BF0F_E78FBF0024C1 -->
<g id="node6" class="node"><title>EAID_041C69AA_817C_461e_BF0F_E78FBF0024C1</title>
<image xlink:href="img/activity_icon.png" width="30px" height="20px" preserveAspectRatio="xMinYMin meet" x="1009.5" y="-218.5"/>
<text text-anchor="start" x="984" y="-176.3" font-family="Times New Roman,serif" font-weight="bold" font-size="24.00">account</text>
</g>
<!-- EAID_243EE590_45BF_485f_AFDE_2E5FCD9863D2&#45;&gt;EAID_041C69AA_817C_461e_BF0F_E78FBF0024C1 -->
<g id="edge5" class="edge"><title>EAID_243EE590_45BF_485f_AFDE_2E5FCD9863D2&#45;&gt;EAID_041C69AA_817C_461e_BF0F_E78FBF0024C1</title>
<path fill="none" stroke="black" d="M535.423,-202.038C547.36,-204.656 559.349,-206.888 571,-208.5 710.524,-227.81 876.467,-212.69 963.284,-201.913"/>
<polygon fill="black" stroke="black" points="963.737,-205.383 973.218,-200.655 962.858,-198.439 963.737,-205.383"/>
</g>
<!-- EAID_44516412_6807_433a_BF4D_5CB83FCFC831 -->
<g id="node7" class="node"><title>EAID_44516412_6807_433a_BF4D_5CB83FCFC831</title>
<image xlink:href="img/control1.png" width="106px" height="75px" preserveAspectRatio="xMinYMin meet" x="660" y="-193.5"/>
<text text-anchor="start" x="631" y="-95.3" font-family="Times New Roman,serif" font-size="24.00">save user account</text>
</g>
<!-- EAID_243EE590_45BF_485f_AFDE_2E5FCD9863D2&#45;&gt;EAID_44516412_6807_433a_BF4D_5CB83FCFC831 -->
<g id="edge9" class="edge"><title>EAID_243EE590_45BF_485f_AFDE_2E5FCD9863D2&#45;&gt;EAID_44516412_6807_433a_BF4D_5CB83FCFC831</title>
<path fill="none" stroke="black" d="M535.162,-153.716C560.361,-151.975 586.495,-150.17 610.694,-148.498"/>
<polygon fill="black" stroke="black" points="611.203,-151.971 620.938,-147.79 610.721,-144.988 611.203,-151.971"/>
</g>
<!-- EAID_44516412_6807_433a_BF4D_5CB83FCFC831&#45;&gt;EAID_AECF4A53_4DCC_4f8d_A628_E9E1351C3528 -->
<g id="edge7" class="edge"><title>EAID_44516412_6807_433a_BF4D_5CB83FCFC831&#45;&gt;EAID_AECF4A53_4DCC_4f8d_A628_E9E1351C3528</title>
<path fill="none" stroke="black" d="M805.039,-115.868C828.875,-109.157 855.15,-101.759 880.959,-94.4921"/>
<polygon fill="black" stroke="black" points="882.145,-97.7945 890.822,-91.7153 880.247,-91.0565 882.145,-97.7945"/>
</g>
<!-- EAID_44516412_6807_433a_BF4D_5CB83FCFC831&#45;&gt;EAID_041C69AA_817C_461e_BF0F_E78FBF0024C1 -->
<g id="edge6" class="edge"><title>EAID_44516412_6807_433a_BF4D_5CB83FCFC831&#45;&gt;EAID_041C69AA_817C_461e_BF0F_E78FBF0024C1</title>
<path fill="none" stroke="black" d="M805.039,-156.82C856.18,-165.427 918.549,-175.923 963.447,-183.478"/>
<polygon fill="black" stroke="black" points="962.879,-186.932 973.322,-185.14 964.041,-180.029 962.879,-186.932"/>
</g>
</g>
</svg>
