<?xml version="1.0" encoding="UTF-8" standalone="no"?>
<!DOCTYPE svg PUBLIC "-//W3C//DTD SVG 1.1//EN"
 "http://www.w3.org/Graphics/SVG/1.1/DTD/svg11.dtd">
<!-- Generated by graphviz version 2.38.0 (20140413.2041)
 -->
<!-- Title: g Pages: 1 -->
<svg width="1663pt" height="369pt"
 viewBox="0.00 0.00 1663.00 368.60" xmlns="http://www.w3.org/2000/svg" xmlns:xlink="http://www.w3.org/1999/xlink">
<g id="graph0" class="graph" transform="scale(1 1) rotate(0) translate(4 364.605)">
<title>g</title>
<polygon fill="white" stroke="none" points="-4,4 -4,-364.605 1659,-364.605 1659,4 -4,4"/>
<!-- EAID_4F49924E_5A6E_41c6_B2B5_49F54CC85F7C -->
<g id="node1" class="node"><title>EAID_4F49924E_5A6E_41c6_B2B5_49F54CC85F7C</title>
<image xlink:href="img/actor1.png" width="61px" height="90px" preserveAspectRatio="xMinYMin meet" x="10.5" y="-324.018"/>
<text text-anchor="start" x="19" y="-210.818" font-family="Times New Roman,serif" font-size="24.00">User</text>
</g>
<!-- EAID_4345CC84_E65F_4af5_A292_0256F9673435 -->
<g id="node2" class="node"><title>EAID_4345CC84_E65F_4af5_A292_0256F9673435</title>
<image xlink:href="img/boundary3.png" width="115px" height="67px" preserveAspectRatio="xMinYMin meet" x="129.5" y="-312.018"/>
<text text-anchor="start" x="127" y="-221.818" font-family="Times New Roman,serif" font-size="24.00">invite button</text>
</g>
<!-- EAID_4F49924E_5A6E_41c6_B2B5_49F54CC85F7C&#45;&gt;EAID_4345CC84_E65F_4af5_A292_0256F9673435 -->
<g id="edge1" class="edge"><title>EAID_4F49924E_5A6E_41c6_B2B5_49F54CC85F7C&#45;&gt;EAID_4345CC84_E65F_4af5_A292_0256F9673435</title>
<path fill="none" stroke="black" d="M81.3678,-264.018C89.2934,-264.018 97.8745,-264.018 106.596,-264.018"/>
<polygon fill="black" stroke="black" points="106.868,-267.518 116.868,-264.018 106.868,-260.518 106.868,-267.518"/>
</g>
<!-- EAID_50F3EE67_DD70_446e_9042_4B4AF6108FE9 -->
<g id="node3" class="node"><title>EAID_50F3EE67_DD70_446e_9042_4B4AF6108FE9</title>
<image xlink:href="img/boundary3.png" width="115px" height="67px" preserveAspectRatio="xMinYMin meet" x="1506.5" y="-317.018"/>
<text text-anchor="start" x="1482.5" y="-226.818" font-family="Times New Roman,serif" font-size="24.00">group home page</text>
</g>
<!-- EAID_4F49924E_5A6E_41c6_B2B5_49F54CC85F7C&#45;&gt;EAID_50F3EE67_DD70_446e_9042_4B4AF6108FE9 -->
<g id="edge2" class="edge"><title>EAID_4F49924E_5A6E_41c6_B2B5_49F54CC85F7C&#45;&gt;EAID_50F3EE67_DD70_446e_9042_4B4AF6108FE9</title>
<path fill="none" stroke="black" d="M81.125,-304.848C91.9042,-313.65 104.173,-321.854 117,-327.018 258.141,-383.847 306.348,-351.018 458.5,-351.018 458.5,-351.018 458.5,-351.018 990,-351.018 1188.8,-351.018 1241.97,-360.281 1436,-317.018 1444.67,-315.085 1453.54,-312.675 1462.36,-309.972"/>
<polygon fill="black" stroke="black" points="1463.44,-313.303 1471.9,-306.932 1461.31,-306.633 1463.44,-313.303"/>
</g>
<!-- EAID_95983F96_25AC_4276_9474_00832CAF91BF -->
<g id="node4" class="node"><title>EAID_95983F96_25AC_4276_9474_00832CAF91BF</title>
<image xlink:href="img/boundary3.png" width="115px" height="67px" preserveAspectRatio="xMinYMin meet" x="681.5" y="-225.018"/>
<text text-anchor="start" x="672.5" y="-134.818" font-family="Times New Roman,serif" font-size="24.00">List of friends</text>
</g>
<!-- EAID_4F49924E_5A6E_41c6_B2B5_49F54CC85F7C&#45;&gt;EAID_95983F96_25AC_4276_9474_00832CAF91BF -->
<g id="edge3" class="edge"><title>EAID_4F49924E_5A6E_41c6_B2B5_49F54CC85F7C&#45;&gt;EAID_95983F96_25AC_4276_9474_00832CAF91BF</title>
<path fill="none" stroke="black" d="M81.3165,-221.913C92.0051,-213.105 104.184,-204.991 117,-200.018 296.865,-130.235 528.505,-146.781 651.622,-163.057"/>
<polygon fill="black" stroke="black" points="651.365,-166.555 661.744,-164.428 652.304,-159.618 651.365,-166.555"/>
</g>
<!-- EAID_A1C401F8_A845_438d_95CD_E96216F1756F -->
<g id="node8" class="node"><title>EAID_A1C401F8_A845_438d_95CD_E96216F1756F</title>
<image xlink:href="img/control1.png" width="106px" height="75px" preserveAspectRatio="xMinYMin meet" x="407" y="-316.018"/>
<text text-anchor="start" x="303.5" y="-217.818" font-family="Times New Roman,serif" font-size="24.00">query friends who is not in group</text>
</g>
<!-- EAID_4345CC84_E65F_4af5_A292_0256F9673435&#45;&gt;EAID_A1C401F8_A845_438d_95CD_E96216F1756F -->
<g id="edge14" class="edge"><title>EAID_4345CC84_E65F_4af5_A292_0256F9673435&#45;&gt;EAID_A1C401F8_A845_438d_95CD_E96216F1756F</title>
<path fill="none" stroke="black" d="M257.309,-264.018C265.441,-264.018 273.994,-264.018 282.799,-264.018"/>
<polygon fill="black" stroke="black" points="282.838,-267.518 292.838,-264.018 282.838,-260.518 282.838,-267.518"/>
</g>
<!-- EAID_B515F405_FB04_4b45_B2B6_8BBC1FE473D9 -->
<g id="node7" class="node"><title>EAID_B515F405_FB04_4b45_B2B6_8BBC1FE473D9</title>
<image xlink:href="img/control1.png" width="106px" height="75px" preserveAspectRatio="xMinYMin meet" x="936" y="-229.018"/>
<text text-anchor="start" x="861" y="-130.818" font-family="Times New Roman,serif" font-size="24.00">check invitation sent or not</text>
</g>
<!-- EAID_95983F96_25AC_4276_9474_00832CAF91BF&#45;&gt;EAID_B515F405_FB04_4b45_B2B6_8BBC1FE473D9 -->
<g id="edge6" class="edge"><title>EAID_95983F96_25AC_4276_9474_00832CAF91BF&#45;&gt;EAID_B515F405_FB04_4b45_B2B6_8BBC1FE473D9</title>
<path fill="none" stroke="black" d="M815.07,-177.018C823.281,-177.018 831.828,-177.018 840.534,-177.018"/>
<polygon fill="black" stroke="black" points="840.814,-180.518 850.814,-177.018 840.814,-173.518 840.814,-180.518"/>
</g>
<!-- EAID_5BFDB2AC_75A6_452a_9AAD_7E5FDE992D17 -->
<g id="node5" class="node"><title>EAID_5BFDB2AC_75A6_452a_9AAD_7E5FDE992D17</title>
<image xlink:href="img/control1.png" width="106px" height="75px" preserveAspectRatio="xMinYMin meet" x="1246.5" y="-143.018"/>
<text text-anchor="start" x="1196.5" y="-44.8183" font-family="Times New Roman,serif" font-size="24.00">Send friend invitation</text>
</g>
<!-- EAID_5BFDB2AC_75A6_452a_9AAD_7E5FDE992D17&#45;&gt;EAID_50F3EE67_DD70_446e_9042_4B4AF6108FE9 -->
<g id="edge8" class="edge"><title>EAID_5BFDB2AC_75A6_452a_9AAD_7E5FDE992D17&#45;&gt;EAID_50F3EE67_DD70_446e_9042_4B4AF6108FE9</title>
<path fill="none" stroke="black" d="M1412.73,-143.592C1420.75,-148.23 1428.58,-153.056 1436,-158.018 1457.65,-172.506 1479.57,-190.368 1498.94,-207.495"/>
<polygon fill="black" stroke="black" points="1496.72,-210.209 1506.51,-214.267 1501.39,-204.992 1496.72,-210.209"/>
</g>
<!-- EAID_943B0CBD_B4BD_4508_98B1_A1BF1013E923 -->
<g id="node6" class="node"><title>EAID_943B0CBD_B4BD_4508_98B1_A1BF1013E923</title>
<image xlink:href="img/activity_icon.png" width="30px" height="20px" preserveAspectRatio="xMinYMin meet" x="1548.5" y="-73.0183"/>
<text text-anchor="start" x="1512.5" y="-30.8183" font-family="Times New Roman,serif" font-weight="bold" font-size="24.00">Invitation</text>
</g>
<!-- EAID_5BFDB2AC_75A6_452a_9AAD_7E5FDE992D17&#45;&gt;EAID_943B0CBD_B4BD_4508_98B1_A1BF1013E923 -->
<g id="edge4" class="edge"><title>EAID_5BFDB2AC_75A6_452a_9AAD_7E5FDE992D17&#45;&gt;EAID_943B0CBD_B4BD_4508_98B1_A1BF1013E923</title>
<path fill="none" stroke="black" d="M1412.75,-72.5953C1439.85,-68.1477 1468.04,-63.5207 1492.56,-59.4969"/>
<polygon fill="black" stroke="black" points="1493.17,-62.9436 1502.47,-57.8701 1492.04,-56.036 1493.17,-62.9436"/>
</g>
<!-- EAID_B515F405_FB04_4b45_B2B6_8BBC1FE473D9&#45;&gt;EAID_50F3EE67_DD70_446e_9042_4B4AF6108FE9 -->
<g id="edge12" class="edge"><title>EAID_B515F405_FB04_4b45_B2B6_8BBC1FE473D9&#45;&gt;EAID_50F3EE67_DD70_446e_9042_4B4AF6108FE9</title>
<path fill="none" stroke="black" d="M1057.08,-235.568C1087.31,-258.186 1124.77,-281.388 1163,-293.018 1261.53,-322.995 1379.89,-310.212 1462.09,-294.137"/>
<polygon fill="black" stroke="black" points="1462.81,-297.561 1471.93,-292.163 1461.44,-290.698 1462.81,-297.561"/>
</g>
<!-- EAID_B515F405_FB04_4b45_B2B6_8BBC1FE473D9&#45;&gt;EAID_5BFDB2AC_75A6_452a_9AAD_7E5FDE992D17 -->
<g id="edge9" class="edge"><title>EAID_B515F405_FB04_4b45_B2B6_8BBC1FE473D9&#45;&gt;EAID_5BFDB2AC_75A6_452a_9AAD_7E5FDE992D17</title>
<path fill="none" stroke="black" d="M1127.11,-138.797C1143.5,-134.227 1160.15,-129.585 1176.32,-125.08"/>
<polygon fill="black" stroke="black" points="1177.62,-128.351 1186.31,-122.294 1175.74,-121.608 1177.62,-128.351"/>
</g>
<!-- EAID_B515F405_FB04_4b45_B2B6_8BBC1FE473D9&#45;&gt;EAID_943B0CBD_B4BD_4508_98B1_A1BF1013E923 -->
<g id="edge5" class="edge"><title>EAID_B515F405_FB04_4b45_B2B6_8BBC1FE473D9&#45;&gt;EAID_943B0CBD_B4BD_4508_98B1_A1BF1013E923</title>
<path fill="none" stroke="black" d="M1036.11,-118.487C1067.6,-83.4807 1112.64,-42.1852 1163,-23.0183 1272.38,18.611 1410.73,-5.34817 1492.61,-26.6184"/>
<polygon fill="black" stroke="black" points="1491.74,-30.0101 1502.3,-29.1944 1493.54,-23.2447 1491.74,-30.0101"/>
</g>
<!-- EAID_4EB997B6_B9E3_452d_BB28_2419D32E0A1F -->
<g id="node9" class="node"><title>EAID_4EB997B6_B9E3_452d_BB28_2419D32E0A1F</title>
<image xlink:href="img/control1.png" width="106px" height="75px" preserveAspectRatio="xMinYMin meet" x="1247" y="-278.018"/>
<text text-anchor="start" x="1173.5" y="-179.818" font-family="Times New Roman,serif" font-size="24.00">Show corresponding status</text>
</g>
<!-- EAID_B515F405_FB04_4b45_B2B6_8BBC1FE473D9&#45;&gt;EAID_4EB997B6_B9E3_452d_BB28_2419D32E0A1F -->
<g id="edge11" class="edge"><title>EAID_B515F405_FB04_4b45_B2B6_8BBC1FE473D9&#45;&gt;EAID_4EB997B6_B9E3_452d_BB28_2419D32E0A1F</title>
<path fill="none" stroke="black" d="M1127.11,-198.796C1135.67,-200.155 1144.3,-201.526 1152.89,-202.891"/>
<polygon fill="black" stroke="black" points="1152.53,-206.378 1162.96,-204.49 1153.63,-199.465 1152.53,-206.378"/>
</g>
<!-- EAID_A1C401F8_A845_438d_95CD_E96216F1756F&#45;&gt;EAID_95983F96_25AC_4276_9474_00832CAF91BF -->
<g id="edge7" class="edge"><title>EAID_A1C401F8_A845_438d_95CD_E96216F1756F&#45;&gt;EAID_95983F96_25AC_4276_9474_00832CAF91BF</title>
<path fill="none" stroke="black" d="M626.031,-212.029C634.917,-209.238 643.648,-206.495 652.071,-203.85"/>
<polygon fill="black" stroke="black" points="653.316,-207.127 661.808,-200.792 651.219,-200.449 653.316,-207.127"/>
</g>
<!-- EAID_BFE17259_9E75_4456_B160_B572E7427C30 -->
<g id="node10" class="node"><title>EAID_BFE17259_9E75_4456_B160_B572E7427C30</title>
<image xlink:href="img/activity_icon.png" width="30px" height="20px" preserveAspectRatio="xMinYMin meet" x="724" y="-306.018"/>
<text text-anchor="start" x="702.5" y="-263.818" font-family="Times New Roman,serif" font-weight="bold" font-size="24.00">friends</text>
</g>
<!-- EAID_A1C401F8_A845_438d_95CD_E96216F1756F&#45;&gt;EAID_BFE17259_9E75_4456_B160_B572E7427C30 -->
<g id="edge13" class="edge"><title>EAID_A1C401F8_A845_438d_95CD_E96216F1756F&#45;&gt;EAID_BFE17259_9E75_4456_B160_B572E7427C30</title>
<path fill="none" stroke="black" d="M626.031,-274.177C646.029,-275.405 665.244,-276.584 681.921,-277.607"/>
<polygon fill="black" stroke="black" points="681.765,-281.104 691.961,-278.224 682.194,-274.117 681.765,-281.104"/>
</g>
<!-- EAID_4EB997B6_B9E3_452d_BB28_2419D32E0A1F&#45;&gt;EAID_50F3EE67_DD70_446e_9042_4B4AF6108FE9 -->
<g id="edge10" class="edge"><title>EAID_4EB997B6_B9E3_452d_BB28_2419D32E0A1F&#45;&gt;EAID_50F3EE67_DD70_446e_9042_4B4AF6108FE9</title>
<path fill="none" stroke="black" d="M1436.1,-248.274C1444.81,-249.703 1453.49,-251.127 1461.98,-252.522"/>
<polygon fill="black" stroke="black" points="1461.43,-255.978 1471.87,-254.144 1462.57,-249.07 1461.43,-255.978"/>
</g>
</g>
</svg>
