<?xml version="1.0" encoding="UTF-8" standalone="no"?>
<!DOCTYPE svg PUBLIC "-//W3C//DTD SVG 1.1//EN"
 "http://www.w3.org/Graphics/SVG/1.1/DTD/svg11.dtd">
<!-- Generated by graphviz version 2.38.0 (20140413.2041)
 -->
<!-- Title: g Pages: 1 -->
<svg width="876pt" height="213pt"
 viewBox="0.00 0.00 876.00 213.00" xmlns="http://www.w3.org/2000/svg" xmlns:xlink="http://www.w3.org/1999/xlink">
<g id="graph0" class="graph" transform="scale(1 1) rotate(0) translate(4 209)">
<title>g</title>
<polygon fill="white" stroke="none" points="-4,4 -4,-209 872,-209 872,4 -4,4"/>
<!-- EAID_093238E9_4A9A_46b9_85C0_2121428F3527 -->
<g id="node1" class="node"><title>EAID_093238E9_4A9A_46b9_85C0_2121428F3527</title>
<image xlink:href="img/actor1.png" width="64px" height="90px" preserveAspectRatio="xMinYMin meet" x="10" y="-145"/>
<text text-anchor="start" x="10" y="-31.8" font-family="Times New Roman,serif" font-size="24.00">Admin</text>
</g>
<!-- EAID_08912170_5EF3_4d55_B5F9_70CD2F7B3E7F -->
<g id="node2" class="node"><title>EAID_08912170_5EF3_4d55_B5F9_70CD2F7B3E7F</title>
<image xlink:href="img/boundary3.png" width="115px" height="67px" preserveAspectRatio="xMinYMin meet" x="139.5" y="-133"/>
<text text-anchor="start" x="130" y="-42.8" font-family="Times New Roman,serif" font-size="24.00">list of vendors</text>
</g>
<!-- EAID_093238E9_4A9A_46b9_85C0_2121428F3527&#45;&gt;EAID_08912170_5EF3_4d55_B5F9_70CD2F7B3E7F -->
<g id="edge1" class="edge"><title>EAID_093238E9_4A9A_46b9_85C0_2121428F3527&#45;&gt;EAID_08912170_5EF3_4d55_B5F9_70CD2F7B3E7F</title>
<path fill="none" stroke="black" d="M84.0012,-85C92.0403,-85 100.751,-85 109.643,-85"/>
<polygon fill="black" stroke="black" points="109.733,-88.5001 119.733,-85 109.733,-81.5001 109.733,-88.5001"/>
</g>
<!-- EAID_C18FD4F9_0513_40cf_BD4C_5A8290612C10 -->
<g id="node5" class="node"><title>EAID_C18FD4F9_0513_40cf_BD4C_5A8290612C10</title>
<image xlink:href="img/control1.png" width="106px" height="75px" preserveAspectRatio="xMinYMin meet" x="359" y="-137"/>
<text text-anchor="start" x="320.5" y="-38.8" font-family="Times New Roman,serif" font-size="24.00">query vendor email</text>
</g>
<!-- EAID_08912170_5EF3_4d55_B5F9_70CD2F7B3E7F&#45;&gt;EAID_C18FD4F9_0513_40cf_BD4C_5A8290612C10 -->
<g id="edge3" class="edge"><title>EAID_08912170_5EF3_4d55_B5F9_70CD2F7B3E7F&#45;&gt;EAID_C18FD4F9_0513_40cf_BD4C_5A8290612C10</title>
<path fill="none" stroke="black" d="M274.117,-85C282.42,-85 290.991,-85 299.602,-85"/>
<polygon fill="black" stroke="black" points="299.716,-88.5001 309.716,-85 299.716,-81.5001 299.716,-88.5001"/>
</g>
<!-- EAID_C62D4428_AF00_4e6e_BE0C_F6B080C6A8DF -->
<g id="node3" class="node"><title>EAID_C62D4428_AF00_4e6e_BE0C_F6B080C6A8DF</title>
<image xlink:href="img/control1.png" width="100px" height="75px" preserveAspectRatio="xMinYMin meet" x="559" y="-191"/>
<text text-anchor="start" x="559" y="-92.8" font-family="Times New Roman,serif" font-size="24.00">send email</text>
</g>
<!-- EAID_D801CB3B_AA02_40a0_80A4_D86C71177870 -->
<g id="node4" class="node"><title>EAID_D801CB3B_AA02_40a0_80A4_D86C71177870</title>
<image xlink:href="img/actor1.png" width="82px" height="90px" preserveAspectRatio="xMinYMin meet" x="746" y="-199"/>
<text text-anchor="start" x="715.5" y="-85.8" font-family="Times New Roman,serif" font-size="24.00">Email protocol</text>
</g>
<!-- EAID_C62D4428_AF00_4e6e_BE0C_F6B080C6A8DF&#45;&gt;EAID_D801CB3B_AA02_40a0_80A4_D86C71177870 -->
<g id="edge2" class="edge"><title>EAID_C62D4428_AF00_4e6e_BE0C_F6B080C6A8DF&#45;&gt;EAID_D801CB3B_AA02_40a0_80A4_D86C71177870</title>
<path fill="none" stroke="black" d="M669.416,-139C677.636,-139 686.227,-139 694.855,-139"/>
<polygon fill="black" stroke="black" points="694.981,-142.5 704.981,-139 694.981,-135.5 694.981,-142.5"/>
</g>
<!-- EAID_C18FD4F9_0513_40cf_BD4C_5A8290612C10&#45;&gt;EAID_C62D4428_AF00_4e6e_BE0C_F6B080C6A8DF -->
<g id="edge4" class="edge"><title>EAID_C18FD4F9_0513_40cf_BD4C_5A8290612C10&#45;&gt;EAID_C62D4428_AF00_4e6e_BE0C_F6B080C6A8DF</title>
<path fill="none" stroke="black" d="M513.113,-112.791C521.923,-115.224 530.701,-117.649 539.161,-119.986"/>
<polygon fill="black" stroke="black" points="538.359,-123.395 548.93,-122.684 540.223,-116.648 538.359,-123.395"/>
</g>
<!-- EAID_57839694_0062_4c3e_93CB_76E55DF8811D -->
<g id="node6" class="node"><title>EAID_57839694_0062_4c3e_93CB_76E55DF8811D</title>
<image xlink:href="img/activity_icon.png" width="30px" height="20px" preserveAspectRatio="xMinYMin meet" x="594.5" y="-56"/>
<text text-anchor="start" x="573" y="-13.8" font-family="Times New Roman,serif" font-weight="bold" font-size="24.00">vendor</text>
</g>
<!-- EAID_C18FD4F9_0513_40cf_BD4C_5A8290612C10&#45;&gt;EAID_57839694_0062_4c3e_93CB_76E55DF8811D -->
<g id="edge5" class="edge"><title>EAID_C18FD4F9_0513_40cf_BD4C_5A8290612C10&#45;&gt;EAID_57839694_0062_4c3e_93CB_76E55DF8811D</title>
<path fill="none" stroke="black" d="M513.113,-57.2091C526.697,-53.4571 540.207,-49.7255 552.592,-46.3044"/>
<polygon fill="black" stroke="black" points="553.557,-49.6691 562.264,-43.6329 551.693,-42.9218 553.557,-49.6691"/>
</g>
</g>
</svg>
