<?xml version="1.0" encoding="UTF-8" standalone="no"?>
<!DOCTYPE svg PUBLIC "-//W3C//DTD SVG 1.1//EN"
 "http://www.w3.org/Graphics/SVG/1.1/DTD/svg11.dtd">
<!-- Generated by graphviz version 2.38.0 (20140413.2041)
 -->
<!-- Title: g Pages: 1 -->
<svg width="2258pt" height="959pt"
 viewBox="0.00 0.00 2258.00 958.57" xmlns="http://www.w3.org/2000/svg" xmlns:xlink="http://www.w3.org/1999/xlink">
<g id="graph0" class="graph" transform="scale(1 1) rotate(0) translate(4 954.574)">
<title>g</title>
<polygon fill="white" stroke="none" points="-4,4 -4,-954.574 2254,-954.574 2254,4 -4,4"/>
<!-- EAID_8629B568_64A7_485e_9F19_2E1A98A8E16C -->
<g id="node1" class="node"><title>EAID_8629B568_64A7_485e_9F19_2E1A98A8E16C</title>
<image xlink:href="img/actor1.png" width="61px" height="90px" preserveAspectRatio="xMinYMin meet" x="10.5" y="-570.074"/>
<text text-anchor="start" x="19" y="-456.874" font-family="Times New Roman,serif" font-size="24.00">User</text>
</g>
<!-- EAID_503A784B_1FAF_47d8_AB86_46412385B368 -->
<g id="node2" class="node"><title>EAID_503A784B_1FAF_47d8_AB86_46412385B368</title>
<image xlink:href="img/boundary3.png" width="115px" height="67px" preserveAspectRatio="xMinYMin meet" x="147" y="-436.074"/>
<text text-anchor="start" x="144.5" y="-345.874" font-family="Times New Roman,serif" font-size="24.00">Ad add page</text>
</g>
<!-- EAID_8629B568_64A7_485e_9F19_2E1A98A8E16C&#45;&gt;EAID_503A784B_1FAF_47d8_AB86_46412385B368 -->
<g id="edge1" class="edge"><title>EAID_8629B568_64A7_485e_9F19_2E1A98A8E16C&#45;&gt;EAID_503A784B_1FAF_47d8_AB86_46412385B368</title>
<path fill="none" stroke="black" d="M81.1297,-480.229C94.7699,-469.957 110.55,-458.074 126.149,-446.326"/>
<polygon fill="black" stroke="black" points="128.394,-449.017 134.277,-440.205 124.183,-443.425 128.394,-449.017"/>
</g>
<!-- EAID_326B7B7C_BAB3_4381_BBB0_196DA22C1B5A -->
<g id="node3" class="node"><title>EAID_326B7B7C_BAB3_4381_BBB0_196DA22C1B5A</title>
<image xlink:href="img/boundary3.png" width="115px" height="67px" preserveAspectRatio="xMinYMin meet" x="980" y="-558.074"/>
<text text-anchor="start" x="933" y="-467.874" font-family="Times New Roman,serif" font-size="24.00">Ad management panel</text>
</g>
<!-- EAID_8629B568_64A7_485e_9F19_2E1A98A8E16C&#45;&gt;EAID_326B7B7C_BAB3_4381_BBB0_196DA22C1B5A -->
<g id="edge2" class="edge"><title>EAID_8629B568_64A7_485e_9F19_2E1A98A8E16C&#45;&gt;EAID_326B7B7C_BAB3_4381_BBB0_196DA22C1B5A</title>
<path fill="none" stroke="black" d="M81.0993,-510.074C219.68,-510.074 686.629,-510.074 912.11,-510.074"/>
<polygon fill="black" stroke="black" points="912.334,-513.574 922.334,-510.074 912.334,-506.574 912.334,-513.574"/>
</g>
<!-- EAID_A0801780_09CD_417e_B87C_6B78FE16A45B -->
<g id="node4" class="node"><title>EAID_A0801780_09CD_417e_B87C_6B78FE16A45B</title>
<image xlink:href="img/boundary3.png" width="115px" height="67px" preserveAspectRatio="xMinYMin meet" x="1667.5" y="-320.074"/>
<text text-anchor="start" x="1597.5" y="-229.874" font-family="Times New Roman,serif" font-size="24.00">Delete confirmation dialog</text>
</g>
<!-- EAID_8629B568_64A7_485e_9F19_2E1A98A8E16C&#45;&gt;EAID_A0801780_09CD_417e_B87C_6B78FE16A45B -->
<g id="edge3" class="edge"><title>EAID_8629B568_64A7_485e_9F19_2E1A98A8E16C&#45;&gt;EAID_A0801780_09CD_417e_B87C_6B78FE16A45B</title>
<path fill="none" stroke="black" d="M41.4036,-444.05C44.5714,-373.733 59.3397,-262.523 117,-188.074 220.104,-54.9486 284.117,-12.074 452.5,-12.074 452.5,-12.074 452.5,-12.074 1038,-12.074 1267.4,-12.074 1348.43,38.5957 1551,-69.074 1610.4,-100.646 1657.98,-161.87 1688.01,-208.862"/>
<polygon fill="black" stroke="black" points="1685.13,-210.853 1693.41,-217.46 1691.05,-207.13 1685.13,-210.853"/>
</g>
<!-- EAID_0103644C_3683_4b5e_AEBB_38C0A85D2A26 -->
<g id="node5" class="node"><title>EAID_0103644C_3683_4b5e_AEBB_38C0A85D2A26</title>
<image xlink:href="img/boundary3.png" width="115px" height="67px" preserveAspectRatio="xMinYMin meet" x="147.5" y="-937.074"/>
<text text-anchor="start" x="127.5" y="-846.874" font-family="Times New Roman,serif" font-size="24.00">Manage ads link</text>
</g>
<!-- EAID_8629B568_64A7_485e_9F19_2E1A98A8E16C&#45;&gt;EAID_0103644C_3683_4b5e_AEBB_38C0A85D2A26 -->
<g id="edge4" class="edge"><title>EAID_8629B568_64A7_485e_9F19_2E1A98A8E16C&#45;&gt;EAID_0103644C_3683_4b5e_AEBB_38C0A85D2A26</title>
<path fill="none" stroke="black" d="M45.4291,-576.361C52.0242,-642.402 69.6885,-744.449 117,-819.074 118.6,-821.598 120.323,-824.072 122.147,-826.494"/>
<polygon fill="black" stroke="black" points="119.672,-828.996 128.712,-834.52 125.09,-824.564 119.672,-828.996"/>
</g>
<!-- EAID_BBC65E8C_2EA5_42ff_8325_AE2BC1D6B465 -->
<g id="node6" class="node"><title>EAID_BBC65E8C_2EA5_42ff_8325_AE2BC1D6B465</title>
<image xlink:href="img/boundary3.png" width="115px" height="67px" preserveAspectRatio="xMinYMin meet" x="979.5" y="-219.074"/>
<text text-anchor="start" x="918" y="-128.874" font-family="Times New Roman,serif" font-size="24.00">Invalid input information</text>
</g>
<!-- EAID_8629B568_64A7_485e_9F19_2E1A98A8E16C&#45;&gt;EAID_BBC65E8C_2EA5_42ff_8325_AE2BC1D6B465 -->
<g id="edge5" class="edge"><title>EAID_8629B568_64A7_485e_9F19_2E1A98A8E16C&#45;&gt;EAID_BBC65E8C_2EA5_42ff_8325_AE2BC1D6B465</title>
<path fill="none" stroke="black" d="M55.1273,-443.724C66.106,-404.702 85.1292,-356.763 117,-324.074 285.542,-151.206 378.645,-156.332 615,-107.074 724.209,-84.3139 756.247,-87.099 866,-107.074 876.571,-108.998 887.339,-111.543 898.065,-114.511"/>
<polygon fill="black" stroke="black" points="897.318,-117.938 907.896,-117.349 899.259,-111.212 897.318,-117.938"/>
</g>
<!-- EAID_BA7EAF07_4A80_457c_AB93_3CA07ED5CA4E -->
<g id="node7" class="node"><title>EAID_BA7EAF07_4A80_457c_AB93_3CA07ED5CA4E</title>
<image xlink:href="img/boundary3.png" width="115px" height="67px" preserveAspectRatio="xMinYMin meet" x="1667.5" y="-822.074"/>
<text text-anchor="start" x="1650.5" y="-731.874" font-family="Times New Roman,serif" font-size="24.00">Existing ads list</text>
</g>
<!-- EAID_8629B568_64A7_485e_9F19_2E1A98A8E16C&#45;&gt;EAID_BA7EAF07_4A80_457c_AB93_3CA07ED5CA4E -->
<g id="edge6" class="edge"><title>EAID_8629B568_64A7_485e_9F19_2E1A98A8E16C&#45;&gt;EAID_BA7EAF07_4A80_457c_AB93_3CA07ED5CA4E</title>
<path fill="none" stroke="black" d="M81.0414,-565.215C147.348,-650.599 289.792,-805.074 452.5,-805.074 452.5,-805.074 452.5,-805.074 1038,-805.074 1249.75,-805.074 1497.92,-790.13 1629.85,-780.993"/>
<polygon fill="black" stroke="black" points="1630.19,-784.478 1639.93,-780.291 1629.71,-777.495 1630.19,-784.478"/>
</g>
<!-- EAID_AF38AD30_941E_4b31_8631_B8846A53D645 -->
<g id="node8" class="node"><title>EAID_AF38AD30_941E_4b31_8631_B8846A53D645</title>
<image xlink:href="img/boundary3.png" width="115px" height="67px" preserveAspectRatio="xMinYMin meet" x="1667.5" y="-664.074"/>
<text text-anchor="start" x="1655.5" y="-573.874" font-family="Times New Roman,serif" font-size="24.00">Ad detail page</text>
</g>
<!-- EAID_8629B568_64A7_485e_9F19_2E1A98A8E16C&#45;&gt;EAID_AF38AD30_941E_4b31_8631_B8846A53D645 -->
<g id="edge7" class="edge"><title>EAID_8629B568_64A7_485e_9F19_2E1A98A8E16C&#45;&gt;EAID_AF38AD30_941E_4b31_8631_B8846A53D645</title>
<path fill="none" stroke="black" d="M81.1876,-530.055C153.233,-564.422 311.174,-631.074 452.5,-631.074 452.5,-631.074 452.5,-631.074 1038,-631.074 1252.13,-631.074 1503.78,-623.668 1634.51,-619.264"/>
<polygon fill="black" stroke="black" points="1634.99,-622.75 1644.86,-618.913 1634.75,-615.754 1634.99,-622.75"/>
</g>
<!-- EAID_8F17A286_42F2_4a97_B4CF_24FD3788C3BC -->
<g id="node9" class="node"><title>EAID_8F17A286_42F2_4a97_B4CF_24FD3788C3BC</title>
<image xlink:href="img/control1.png" width="106px" height="75px" preserveAspectRatio="xMinYMin meet" x="401" y="-401.074"/>
<text text-anchor="start" x="338.5" y="-302.874" font-family="Times New Roman,serif" font-size="24.00">Check input information</text>
</g>
<!-- EAID_503A784B_1FAF_47d8_AB86_46412385B368&#45;&gt;EAID_8F17A286_42F2_4a97_B4CF_24FD3788C3BC -->
<g id="edge8" class="edge"><title>EAID_503A784B_1FAF_47d8_AB86_46412385B368&#45;&gt;EAID_8F17A286_42F2_4a97_B4CF_24FD3788C3BC</title>
<path fill="none" stroke="black" d="M274.632,-377.158C288.083,-375.035 302.609,-372.741 317.359,-370.412"/>
<polygon fill="black" stroke="black" points="318.263,-373.813 327.595,-368.796 317.172,-366.898 318.263,-373.813"/>
</g>
<!-- EAID_410B50A4_955B_469d_B01B_674450B3A426 -->
<g id="node10" class="node"><title>EAID_410B50A4_955B_469d_B01B_674450B3A426</title>
<image xlink:href="img/control1.png" width="106px" height="75px" preserveAspectRatio="xMinYMin meet" x="1326.5" y="-189.074"/>
<text text-anchor="start" x="1286.5" y="-90.874" font-family="Times New Roman,serif" font-size="24.00">Show Ad Add page</text>
</g>
<!-- EAID_326B7B7C_BAB3_4381_BBB0_196DA22C1B5A&#45;&gt;EAID_410B50A4_955B_469d_B01B_674450B3A426 -->
<g id="edge14" class="edge"><title>EAID_326B7B7C_BAB3_4381_BBB0_196DA22C1B5A&#45;&gt;EAID_410B50A4_955B_469d_B01B_674450B3A426</title>
<path fill="none" stroke="black" d="M1151.66,-466.784C1159.32,-460.719 1166.25,-453.849 1172,-446.074 1236.63,-358.625 1140.3,-289.169 1208,-204.074 1223.14,-185.043 1244.45,-171.403 1266.89,-161.632"/>
<polygon fill="black" stroke="black" points="1268.29,-164.84 1276.21,-157.809 1265.63,-158.363 1268.29,-164.84"/>
</g>
<!-- EAID_2D007D20_0892_4f85_B653_2743CFDA08A8 -->
<g id="node12" class="node"><title>EAID_2D007D20_0892_4f85_B653_2743CFDA08A8</title>
<image xlink:href="img/control1.png" width="106px" height="75px" preserveAspectRatio="xMinYMin meet" x="1327" y="-558.074"/>
<text text-anchor="start" x="1280.5" y="-459.874" font-family="Times New Roman,serif" font-size="24.00">Show Ad detail page</text>
</g>
<!-- EAID_326B7B7C_BAB3_4381_BBB0_196DA22C1B5A&#45;&gt;EAID_2D007D20_0892_4f85_B653_2743CFDA08A8 -->
<g id="edge13" class="edge"><title>EAID_326B7B7C_BAB3_4381_BBB0_196DA22C1B5A&#45;&gt;EAID_2D007D20_0892_4f85_B653_2743CFDA08A8</title>
<path fill="none" stroke="black" d="M1151.85,-508.736C1186.52,-508.329 1224.7,-507.881 1259.68,-507.47"/>
<polygon fill="black" stroke="black" points="1259.99,-510.967 1269.94,-507.349 1259.9,-503.967 1259.99,-510.967"/>
</g>
<!-- EAID_7BAA0099_838D_4160_A40A_B1419062159A -->
<g id="node13" class="node"><title>EAID_7BAA0099_838D_4160_A40A_B1419062159A</title>
<image xlink:href="img/control1.png" width="106px" height="75px" preserveAspectRatio="xMinYMin meet" x="1326.5" y="-770.074"/>
<text text-anchor="start" x="1227.5" y="-671.874" font-family="Times New Roman,serif" font-size="24.00">Cancel updating and redirect to </text>
</g>
<!-- EAID_326B7B7C_BAB3_4381_BBB0_196DA22C1B5A&#45;&gt;EAID_7BAA0099_838D_4160_A40A_B1419062159A -->
<g id="edge15" class="edge"><title>EAID_326B7B7C_BAB3_4381_BBB0_196DA22C1B5A&#45;&gt;EAID_7BAA0099_838D_4160_A40A_B1419062159A</title>
<path fill="none" stroke="black" d="M1127.46,-564.724C1172.35,-592.145 1227,-625.526 1273.83,-654.133"/>
<polygon fill="black" stroke="black" points="1272.12,-657.19 1282.48,-659.416 1275.77,-651.216 1272.12,-657.19"/>
</g>
<!-- EAID_8272AD83_EEEA_49a4_BEF8_E66D382F224A -->
<g id="node14" class="node"><title>EAID_8272AD83_EEEA_49a4_BEF8_E66D382F224A</title>
<image xlink:href="img/control1.png" width="106px" height="75px" preserveAspectRatio="xMinYMin meet" x="1327" y="-324.074"/>
<text text-anchor="start" x="1218.5" y="-225.874" font-family="Times New Roman,serif" font-size="24.00">display delete confirmation dialog</text>
</g>
<!-- EAID_326B7B7C_BAB3_4381_BBB0_196DA22C1B5A&#45;&gt;EAID_8272AD83_EEEA_49a4_BEF8_E66D382F224A -->
<g id="edge16" class="edge"><title>EAID_326B7B7C_BAB3_4381_BBB0_196DA22C1B5A&#45;&gt;EAID_8272AD83_EEEA_49a4_BEF8_E66D382F224A</title>
<path fill="none" stroke="black" d="M1151.81,-459.84C1158.83,-455.491 1165.63,-450.897 1172,-446.074 1191.34,-431.439 1190.36,-421.716 1208,-405.074 1232.99,-381.492 1261.91,-357.771 1288.75,-337.025"/>
<polygon fill="black" stroke="black" points="1291.21,-339.551 1297.01,-330.685 1286.94,-333.999 1291.21,-339.551"/>
</g>
<!-- EAID_F3D2846C_A84E_4825_9709_C346CC75B98E -->
<g id="node19" class="node"><title>EAID_F3D2846C_A84E_4825_9709_C346CC75B98E</title>
<image xlink:href="img/control1.png" width="97px" height="75px" preserveAspectRatio="xMinYMin meet" x="1980.5" y="-324.074"/>
<text text-anchor="start" x="1980.5" y="-225.874" font-family="Times New Roman,serif" font-size="24.00">Delete Ad</text>
</g>
<!-- EAID_A0801780_09CD_417e_B87C_6B78FE16A45B&#45;&gt;EAID_F3D2846C_A84E_4825_9709_C346CC75B98E -->
<g id="edge25" class="edge"><title>EAID_A0801780_09CD_417e_B87C_6B78FE16A45B&#45;&gt;EAID_F3D2846C_A84E_4825_9709_C346CC75B98E</title>
<path fill="none" stroke="black" d="M1862.36,-272.074C1896,-272.074 1930.58,-272.074 1959.35,-272.074"/>
<polygon fill="black" stroke="black" points="1959.67,-275.574 1969.67,-272.074 1959.67,-268.574 1959.67,-275.574"/>
</g>
<!-- EAID_E01507D7_273A_4c9c_81E8_130803A95928 -->
<g id="node21" class="node"><title>EAID_E01507D7_273A_4c9c_81E8_130803A95928</title>
<image xlink:href="img/control1.png" width="106px" height="75px" preserveAspectRatio="xMinYMin meet" x="1326.5" y="-944.074"/>
<text text-anchor="start" x="1257.5" y="-845.874" font-family="Times New Roman,serif" font-size="24.00">show up existing ads page</text>
</g>
<!-- EAID_0103644C_3683_4b5e_AEBB_38C0A85D2A26&#45;&gt;EAID_E01507D7_273A_4c9c_81E8_130803A95928 -->
<g id="edge29" class="edge"><title>EAID_0103644C_3683_4b5e_AEBB_38C0A85D2A26&#45;&gt;EAID_E01507D7_273A_4c9c_81E8_130803A95928</title>
<path fill="none" stroke="black" d="M292.23,-889.296C493.104,-889.81 991.801,-891.085 1237.34,-891.713"/>
<polygon fill="black" stroke="black" points="1237.39,-895.213 1247.4,-891.739 1237.41,-888.213 1237.39,-895.213"/>
</g>
<!-- EAID_19B95223_D1E9_4340_B960_7F66ABB95B4D -->
<g id="node16" class="node"><title>EAID_19B95223_D1E9_4340_B960_7F66ABB95B4D</title>
<image xlink:href="img/control1.png" width="106px" height="75px" preserveAspectRatio="xMinYMin meet" x="1976" y="-498.074"/>
<text text-anchor="start" x="1908.5" y="-399.874" font-family="Times New Roman,serif" font-size="24.00">Popup management panel</text>
</g>
<!-- EAID_BA7EAF07_4A80_457c_AB93_3CA07ED5CA4E&#45;&gt;EAID_19B95223_D1E9_4340_B960_7F66ABB95B4D -->
<g id="edge27" class="edge"><title>EAID_BA7EAF07_4A80_457c_AB93_3CA07ED5CA4E&#45;&gt;EAID_19B95223_D1E9_4340_B960_7F66ABB95B4D</title>
<path fill="none" stroke="black" d="M1809.26,-723.304C1827.61,-710.349 1846.24,-695.642 1862,-680.074 1912.6,-630.104 1958.28,-562.997 1988.77,-513.461"/>
<polygon fill="black" stroke="black" points="1991.87,-515.095 1994.1,-504.736 1985.9,-511.449 1991.87,-515.095"/>
</g>
<!-- EAID_AF38AD30_941E_4b31_8631_B8846A53D645&#45;&gt;EAID_8F17A286_42F2_4a97_B4CF_24FD3788C3BC -->
<g id="edge11" class="edge"><title>EAID_AF38AD30_941E_4b31_8631_B8846A53D645&#45;&gt;EAID_8F17A286_42F2_4a97_B4CF_24FD3788C3BC</title>
<path fill="none" stroke="black" d="M1644.92,-616.046C1467.53,-615.323 1040.69,-609.7 902,-573.074 774.166,-539.314 640.177,-466.534 552.525,-413.056"/>
<polygon fill="black" stroke="black" points="554.279,-410.026 543.925,-407.78 550.619,-415.992 554.279,-410.026"/>
</g>
<!-- EAID_8034F8EB_DACE_4b51_BD99_618EF7EA2F14 -->
<g id="node15" class="node"><title>EAID_8034F8EB_DACE_4b51_BD99_618EF7EA2F14</title>
<image xlink:href="img/control1.png" width="106px" height="75px" preserveAspectRatio="xMinYMin meet" x="687.5" y="-401.074"/>
<text text-anchor="start" x="636.5" y="-302.874" font-family="Times New Roman,serif" font-size="24.00">Update ad description</text>
</g>
<!-- EAID_8F17A286_42F2_4a97_B4CF_24FD3788C3BC&#45;&gt;EAID_8034F8EB_DACE_4b51_BD99_618EF7EA2F14 -->
<g id="edge23" class="edge"><title>EAID_8F17A286_42F2_4a97_B4CF_24FD3788C3BC&#45;&gt;EAID_8034F8EB_DACE_4b51_BD99_618EF7EA2F14</title>
<path fill="none" stroke="black" d="M579.091,-349.074C591.377,-349.074 603.845,-349.074 616.12,-349.074"/>
<polygon fill="black" stroke="black" points="616.377,-352.574 626.377,-349.074 616.377,-345.574 616.377,-352.574"/>
</g>
<!-- EAID_F4052191_A24C_40b3_9583_C60930CB16B4 -->
<g id="node17" class="node"><title>EAID_F4052191_A24C_40b3_9583_C60930CB16B4</title>
<image xlink:href="img/control1.png" width="106px" height="75px" preserveAspectRatio="xMinYMin meet" x="688" y="-227.074"/>
<text text-anchor="start" x="625.5" y="-128.874" font-family="Times New Roman,serif" font-size="24.00">Check input information</text>
</g>
<!-- EAID_8F17A286_42F2_4a97_B4CF_24FD3788C3BC&#45;&gt;EAID_F4052191_A24C_40b3_9583_C60930CB16B4 -->
<g id="edge21" class="edge"><title>EAID_8F17A286_42F2_4a97_B4CF_24FD3788C3BC&#45;&gt;EAID_F4052191_A24C_40b3_9583_C60930CB16B4</title>
<path fill="none" stroke="black" d="M546.703,-290.361C568.979,-276.368 592.773,-261.58 615,-248.074 619.938,-245.073 624.997,-242.021 630.115,-238.95"/>
<polygon fill="black" stroke="black" points="631.988,-241.909 638.773,-233.772 628.394,-235.901 631.988,-241.909"/>
</g>
<!-- EAID_F8049323_E989_46f8_A151_2630E9C9E8AC -->
<g id="node18" class="node"><title>EAID_F8049323_E989_46f8_A151_2630E9C9E8AC</title>
<image xlink:href="img/control1.png" width="106px" height="75px" preserveAspectRatio="xMinYMin meet" x="1975.5" y="-146.074"/>
<text text-anchor="start" x="1956.5" y="-47.874" font-family="Times New Roman,serif" font-size="24.00">Save added Ad</text>
</g>
<!-- EAID_8F17A286_42F2_4a97_B4CF_24FD3788C3BC&#45;&gt;EAID_F8049323_E989_46f8_A151_2630E9C9E8AC -->
<g id="edge22" class="edge"><title>EAID_8F17A286_42F2_4a97_B4CF_24FD3788C3BC&#45;&gt;EAID_F8049323_E989_46f8_A151_2630E9C9E8AC</title>
<path fill="none" stroke="black" d="M579.372,-291.743C591.252,-287.639 603.249,-283.98 615,-281.074 735.584,-251.25 1078.62,-315.989 1172,-234.074 1228.43,-184.577 1149.54,-116.153 1208,-69.074 1326.73,26.5437 1398.61,-65.079 1551,-69.074 1685.03,-72.5876 1840.05,-81.6514 1935.95,-87.8429"/>
<polygon fill="black" stroke="black" points="1935.98,-91.3526 1946.19,-88.5078 1936.44,-84.3673 1935.98,-91.3526"/>
</g>
<!-- EAID_410B50A4_955B_469d_B01B_674450B3A426&#45;&gt;EAID_503A784B_1FAF_47d8_AB86_46412385B368 -->
<g id="edge9" class="edge"><title>EAID_410B50A4_955B_469d_B01B_674450B3A426&#45;&gt;EAID_503A784B_1FAF_47d8_AB86_46412385B368</title>
<path fill="none" stroke="black" d="M1276.46,-113.532C1127.82,-83.577 844.488,-42.9411 615,-107.074 474.705,-146.281 341.234,-256.124 266.683,-326.295"/>
<polygon fill="black" stroke="black" points="264.06,-323.959 259.213,-333.38 268.877,-329.038 264.06,-323.959"/>
</g>
<!-- EAID_2AE3C912_7969_4245_9AF3_C37ACC9E97A9 -->
<g id="node11" class="node"><title>EAID_2AE3C912_7969_4245_9AF3_C37ACC9E97A9</title>
<image xlink:href="img/control1.png" width="106px" height="75px" preserveAspectRatio="xMinYMin meet" x="984" y="-431.074"/>
<text text-anchor="start" x="912" y="-332.874" font-family="Times New Roman,serif" font-size="24.00">Redirect to connection list</text>
</g>
<!-- EAID_2AE3C912_7969_4245_9AF3_C37ACC9E97A9&#45;&gt;EAID_503A784B_1FAF_47d8_AB86_46412385B368 -->
<g id="edge10" class="edge"><title>EAID_2AE3C912_7969_4245_9AF3_C37ACC9E97A9&#45;&gt;EAID_503A784B_1FAF_47d8_AB86_46412385B368</title>
<path fill="none" stroke="black" d="M901.881,-411.044C889.802,-413.079 877.712,-414.814 866,-416.074 628.26,-441.646 565.603,-442.883 328,-416.074 313.821,-414.474 298.891,-411.864 284.519,-408.864"/>
<polygon fill="black" stroke="black" points="285.189,-405.428 274.675,-406.733 283.708,-412.27 285.189,-405.428"/>
</g>
<!-- EAID_2D007D20_0892_4f85_B653_2743CFDA08A8&#45;&gt;EAID_AF38AD30_941E_4b31_8631_B8846A53D645 -->
<g id="edge12" class="edge"><title>EAID_2D007D20_0892_4f85_B653_2743CFDA08A8&#45;&gt;EAID_AF38AD30_941E_4b31_8631_B8846A53D645</title>
<path fill="none" stroke="black" d="M1489.03,-540.879C1536.11,-555.978 1590.55,-573.436 1635.11,-587.728"/>
<polygon fill="black" stroke="black" points="1634.16,-591.099 1644.76,-590.82 1636.3,-584.434 1634.16,-591.099"/>
</g>
<!-- EAID_5CEEA7CA_0072_4075_B4EC_C1F510CC5F61 -->
<g id="node20" class="node"><title>EAID_5CEEA7CA_0072_4075_B4EC_C1F510CC5F61</title>
<image xlink:href="img/activity_icon.png" width="30px" height="20px" preserveAspectRatio="xMinYMin meet" x="2208" y="-384.074"/>
<text text-anchor="start" x="2205.5" y="-341.874" font-family="Times New Roman,serif" font-weight="bold" font-size="24.00">ads</text>
</g>
<!-- EAID_2D007D20_0892_4f85_B653_2743CFDA08A8&#45;&gt;EAID_5CEEA7CA_0072_4075_B4EC_C1F510CC5F61 -->
<g id="edge32" class="edge"><title>EAID_2D007D20_0892_4f85_B653_2743CFDA08A8&#45;&gt;EAID_5CEEA7CA_0072_4075_B4EC_C1F510CC5F61</title>
<path fill="none" stroke="black" d="M1489.3,-513.781C1690.43,-527.053 2104.94,-549.476 2159,-513.074 2196.03,-488.138 2211.13,-437.088 2217.28,-400.6"/>
<polygon fill="black" stroke="black" points="2220.81,-400.672 2218.85,-390.26 2213.89,-399.62 2220.81,-400.672"/>
</g>
<!-- EAID_7BAA0099_838D_4160_A40A_B1419062159A&#45;&gt;EAID_BA7EAF07_4A80_457c_AB93_3CA07ED5CA4E -->
<g id="edge19" class="edge"><title>EAID_7BAA0099_838D_4160_A40A_B1419062159A&#45;&gt;EAID_BA7EAF07_4A80_457c_AB93_3CA07ED5CA4E</title>
<path fill="none" stroke="black" d="M1541.71,-744.393C1571.91,-749.324 1602.54,-754.325 1629.83,-758.781"/>
<polygon fill="black" stroke="black" points="1629.29,-762.24 1639.73,-760.397 1630.42,-755.331 1629.29,-762.24"/>
</g>
<!-- EAID_8272AD83_EEEA_49a4_BEF8_E66D382F224A&#45;&gt;EAID_A0801780_09CD_417e_B87C_6B78FE16A45B -->
<g id="edge26" class="edge"><title>EAID_8272AD83_EEEA_49a4_BEF8_E66D382F224A&#45;&gt;EAID_A0801780_09CD_417e_B87C_6B78FE16A45B</title>
<path fill="none" stroke="black" d="M1551.25,-272.074C1559.72,-272.074 1568.21,-272.074 1576.61,-272.074"/>
<polygon fill="black" stroke="black" points="1576.81,-275.574 1586.81,-272.074 1576.81,-268.574 1576.81,-275.574"/>
</g>
<!-- EAID_8034F8EB_DACE_4b51_BD99_618EF7EA2F14&#45;&gt;EAID_326B7B7C_BAB3_4381_BBB0_196DA22C1B5A -->
<g id="edge17" class="edge"><title>EAID_8034F8EB_DACE_4b51_BD99_618EF7EA2F14&#45;&gt;EAID_326B7B7C_BAB3_4381_BBB0_196DA22C1B5A</title>
<path fill="none" stroke="black" d="M835.235,-407.827C856.925,-420.832 880.078,-434.251 902,-446.074 905.702,-448.07 909.475,-450.072 913.297,-452.07"/>
<polygon fill="black" stroke="black" points="911.801,-455.237 922.291,-456.723 915.018,-449.02 911.801,-455.237"/>
</g>
<!-- EAID_8034F8EB_DACE_4b51_BD99_618EF7EA2F14&#45;&gt;EAID_2AE3C912_7969_4245_9AF3_C37ACC9E97A9 -->
<g id="edge30" class="edge"><title>EAID_8034F8EB_DACE_4b51_BD99_618EF7EA2F14&#45;&gt;EAID_2AE3C912_7969_4245_9AF3_C37ACC9E97A9</title>
<path fill="none" stroke="black" d="M854.519,-360.587C866.678,-361.826 879.167,-363.098 891.629,-364.367"/>
<polygon fill="black" stroke="black" points="891.307,-367.852 901.61,-365.384 892.016,-360.888 891.307,-367.852"/>
</g>
<!-- EAID_8034F8EB_DACE_4b51_BD99_618EF7EA2F14&#45;&gt;EAID_5CEEA7CA_0072_4075_B4EC_C1F510CC5F61 -->
<g id="edge33" class="edge"><title>EAID_8034F8EB_DACE_4b51_BD99_618EF7EA2F14&#45;&gt;EAID_5CEEA7CA_0072_4075_B4EC_C1F510CC5F61</title>
<path fill="none" stroke="black" d="M854.709,-314.254C943.363,-292.823 1068.56,-275.584 1172,-311.074 1191.17,-317.652 1188.89,-332.307 1208,-339.074 1392.87,-404.549 2024.05,-371.176 2184.28,-361.444"/>
<polygon fill="black" stroke="black" points="2184.8,-364.919 2194.57,-360.812 2184.37,-357.932 2184.8,-364.919"/>
</g>
<!-- EAID_19B95223_D1E9_4340_B960_7F66ABB95B4D&#45;&gt;EAID_326B7B7C_BAB3_4381_BBB0_196DA22C1B5A -->
<g id="edge18" class="edge"><title>EAID_19B95223_D1E9_4340_B960_7F66ABB95B4D&#45;&gt;EAID_326B7B7C_BAB3_4381_BBB0_196DA22C1B5A</title>
<path fill="none" stroke="black" d="M1897.81,-428.287C1734.91,-409.7 1447.66,-389.415 1208,-438.074 1191.72,-441.379 1175.06,-446.297 1158.85,-452.04"/>
<polygon fill="black" stroke="black" points="1157.55,-448.788 1149.36,-455.51 1159.96,-455.362 1157.55,-448.788"/>
</g>
<!-- EAID_F4052191_A24C_40b3_9583_C60930CB16B4&#45;&gt;EAID_BBC65E8C_2EA5_42ff_8325_AE2BC1D6B465 -->
<g id="edge20" class="edge"><title>EAID_F4052191_A24C_40b3_9583_C60930CB16B4&#45;&gt;EAID_BBC65E8C_2EA5_42ff_8325_AE2BC1D6B465</title>
<path fill="none" stroke="black" d="M866.395,-173.378C876.624,-173.239 887,-173.098 897.321,-172.958"/>
<polygon fill="black" stroke="black" points="897.663,-176.453 907.614,-172.818 897.568,-169.454 897.663,-176.453"/>
</g>
<!-- EAID_F8049323_E989_46f8_A151_2630E9C9E8AC&#45;&gt;EAID_5CEEA7CA_0072_4075_B4EC_C1F510CC5F61 -->
<g id="edge31" class="edge"><title>EAID_F8049323_E989_46f8_A151_2630E9C9E8AC&#45;&gt;EAID_5CEEA7CA_0072_4075_B4EC_C1F510CC5F61</title>
<path fill="none" stroke="black" d="M2110.74,-152.597C2128.26,-167.913 2145.54,-185.414 2159,-204.074 2184.15,-238.94 2201.13,-285.371 2210.96,-318.299"/>
<polygon fill="black" stroke="black" points="2207.65,-319.425 2213.79,-328.057 2214.37,-317.478 2207.65,-319.425"/>
</g>
<!-- EAID_F3D2846C_A84E_4825_9709_C346CC75B98E&#45;&gt;EAID_5CEEA7CA_0072_4075_B4EC_C1F510CC5F61 -->
<g id="edge24" class="edge"><title>EAID_F3D2846C_A84E_4825_9709_C346CC75B98E&#45;&gt;EAID_5CEEA7CA_0072_4075_B4EC_C1F510CC5F61</title>
<path fill="none" stroke="black" d="M2087.11,-298.177C2119.12,-312.683 2157.95,-330.28 2185.63,-342.82"/>
<polygon fill="black" stroke="black" points="2184.37,-346.092 2194.92,-347.031 2187.26,-339.716 2184.37,-346.092"/>
</g>
<!-- EAID_E01507D7_273A_4c9c_81E8_130803A95928&#45;&gt;EAID_BA7EAF07_4A80_457c_AB93_3CA07ED5CA4E -->
<g id="edge28" class="edge"><title>EAID_E01507D7_273A_4c9c_81E8_130803A95928&#45;&gt;EAID_BA7EAF07_4A80_457c_AB93_3CA07ED5CA4E</title>
<path fill="none" stroke="black" d="M1511.64,-846.958C1551.14,-833.371 1593.66,-818.742 1630.17,-806.181"/>
<polygon fill="black" stroke="black" points="1631.49,-809.429 1639.81,-802.866 1629.21,-802.809 1631.49,-809.429"/>
</g>
<!-- EAID_E01507D7_273A_4c9c_81E8_130803A95928&#45;&gt;EAID_5CEEA7CA_0072_4075_B4EC_C1F510CC5F61 -->
<g id="edge34" class="edge"><title>EAID_E01507D7_273A_4c9c_81E8_130803A95928&#45;&gt;EAID_5CEEA7CA_0072_4075_B4EC_C1F510CC5F61</title>
<path fill="none" stroke="black" d="M1511.68,-900.46C1612.37,-901.584 1752.27,-891.334 1862,-838.074 2031.07,-756.009 2059.46,-696.485 2159,-537.074 2185.88,-494.032 2203.11,-437.891 2212.53,-400.272"/>
<polygon fill="black" stroke="black" points="2216.03,-400.723 2214.99,-390.179 2209.22,-399.07 2216.03,-400.723"/>
</g>
</g>
</svg>
