<?xml version="1.0" encoding="UTF-8" standalone="no"?>
<!DOCTYPE svg PUBLIC "-//W3C//DTD SVG 1.1//EN"
 "http://www.w3.org/Graphics/SVG/1.1/DTD/svg11.dtd">
<!-- Generated by graphviz version 2.38.0 (20140413.2041)
 -->
<!-- Title: g Pages: 1 -->
<svg width="304pt" height="332pt"
 viewBox="0.00 0.00 303.68 332.00" xmlns="http://www.w3.org/2000/svg" xmlns:xlink="http://www.w3.org/1999/xlink">
<g id="graph0" class="graph" transform="scale(1 1) rotate(0) translate(4 328)">
<title>g</title>
<polygon fill="white" stroke="none" points="-4,4 -4,-328 299.683,-328 299.683,4 -4,4"/>
<!-- display scenario -->
<g id="node1" class="node"><title>display scenario</title>
<ellipse fill="none" stroke="black" cx="119.844" cy="-90" rx="69.5877" ry="18"/>
<text text-anchor="middle" x="119.844" y="-86.3" font-family="Times New Roman,serif" font-size="14.00">display scenario</text>
</g>
<!-- Scenario display -->
<g id="node2" class="node"><title>Scenario display</title>
<ellipse fill="none" stroke="black" cx="70.8437" cy="-18" rx="70.6878" ry="18"/>
<text text-anchor="middle" x="70.8437" y="-14.3" font-family="Times New Roman,serif" font-size="14.00">Scenario display</text>
</g>
<!-- display scenario&#45;&gt;Scenario display -->
<g id="edge1" class="edge"><title>display scenario&#45;&gt;Scenario display</title>
<path fill="none" stroke="black" d="M107.982,-72.055C102.144,-63.7147 94.9873,-53.4908 88.5199,-44.2517"/>
<polygon fill="black" stroke="black" points="91.198,-41.9742 82.596,-35.789 85.4634,-45.9885 91.198,-41.9742"/>
</g>
<!-- load first scenario -->
<g id="node3" class="node"><title>load first scenario</title>
<ellipse fill="none" stroke="black" cx="172.844" cy="-162" rx="75.2868" ry="18"/>
<text text-anchor="middle" x="172.844" y="-158.3" font-family="Times New Roman,serif" font-size="14.00">load first scenario</text>
</g>
<!-- load first scenario&#45;&gt;display scenario -->
<g id="edge2" class="edge"><title>load first scenario&#45;&gt;display scenario</title>
<path fill="none" stroke="black" d="M160.014,-144.055C153.634,-135.629 145.798,-125.28 138.747,-115.966"/>
<polygon fill="black" stroke="black" points="141.382,-113.649 132.555,-107.789 135.801,-117.874 141.382,-113.649"/>
</g>
<!-- Scenario -->
<g id="node4" class="node"><title>Scenario</title>
<ellipse fill="none" stroke="black" cx="249.844" cy="-90" rx="42.4939" ry="18"/>
<text text-anchor="middle" x="249.844" y="-86.3" font-family="Times New Roman,serif" font-size="14.00">Scenario</text>
</g>
<!-- load first scenario&#45;&gt;Scenario -->
<g id="edge3" class="edge"><title>load first scenario&#45;&gt;Scenario</title>
<path fill="none" stroke="black" d="M191.092,-144.411C201.255,-135.172 214.051,-123.539 225.104,-113.491"/>
<polygon fill="black" stroke="black" points="227.737,-115.827 232.782,-106.511 223.028,-110.648 227.737,-115.827"/>
</g>
<!-- Civilian or veteran radio button -->
<g id="node5" class="node"><title>Civilian or veteran radio button</title>
<ellipse fill="none" stroke="black" cx="172.844" cy="-234" rx="122.678" ry="18"/>
<text text-anchor="middle" x="172.844" y="-230.3" font-family="Times New Roman,serif" font-size="14.00">Civilian or veteran radio button</text>
</g>
<!-- Civilian or veteran radio button&#45;&gt;load first scenario -->
<g id="edge4" class="edge"><title>Civilian or veteran radio button&#45;&gt;load first scenario</title>
<path fill="none" stroke="black" d="M172.844,-215.697C172.844,-207.983 172.844,-198.712 172.844,-190.112"/>
<polygon fill="black" stroke="black" points="176.344,-190.104 172.844,-180.104 169.344,-190.104 176.344,-190.104"/>
</g>
<!-- User -->
<g id="node6" class="node"><title>User</title>
<ellipse fill="none" stroke="black" cx="96.8437" cy="-306" rx="27.8951" ry="18"/>
<text text-anchor="middle" x="96.8437" y="-302.3" font-family="Times New Roman,serif" font-size="14.00">User</text>
</g>
<!-- User&#45;&gt;Scenario display -->
<g id="edge5" class="edge"><title>User&#45;&gt;Scenario display</title>
<path fill="none" stroke="black" d="M77.3335,-292.819C64.3064,-283.451 48.2529,-269.214 40.8437,-252 9.21511,-178.518 20.4678,-149.362 40.8437,-72 43.3356,-62.5392 47.9454,-52.9933 52.8167,-44.6599"/>
<polygon fill="black" stroke="black" points="55.7985,-46.4926 58.1172,-36.1546 49.8577,-42.7903 55.7985,-46.4926"/>
</g>
<!-- User&#45;&gt;Civilian or veteran radio button -->
<g id="edge6" class="edge"><title>User&#45;&gt;Civilian or veteran radio button</title>
<path fill="none" stroke="black" d="M112.223,-290.834C122.161,-281.681 135.345,-269.538 146.879,-258.915"/>
<polygon fill="black" stroke="black" points="149.556,-261.208 154.54,-251.859 144.813,-256.059 149.556,-261.208"/>
</g>
</g>
</svg>
