<?xml version="1.0" encoding="UTF-8" standalone="no"?>
<!DOCTYPE svg PUBLIC "-//W3C//DTD SVG 1.1//EN"
 "http://www.w3.org/Graphics/SVG/1.1/DTD/svg11.dtd">
<!-- Generated by graphviz version 2.38.0 (20140413.2041)
 -->
<!-- Title: g Pages: 1 -->
<svg width="1116pt" height="332pt"
 viewBox="0.00 0.00 1115.99 332.00" xmlns="http://www.w3.org/2000/svg" xmlns:xlink="http://www.w3.org/1999/xlink">
<g id="graph0" class="graph" transform="scale(1 1) rotate(0) translate(4 328)">
<title>g</title>
<polygon fill="white" stroke="none" points="-4,4 -4,-328 1111.99,-328 1111.99,4 -4,4"/>
<!-- confirm LP# -->
<g id="node1" class="node"><title>confirm LP#</title>
<ellipse fill="none" stroke="black" cx="512.39" cy="-306" rx="57.3905" ry="18"/>
<text text-anchor="middle" x="512.39" y="-302.3" font-family="Times New Roman,serif" font-size="14.00">confirm LP#</text>
</g>
<!-- Finish -->
<g id="node2" class="node"><title>Finish</title>
<ellipse fill="none" stroke="black" cx="372.39" cy="-234" rx="32.4942" ry="18"/>
<text text-anchor="middle" x="372.39" y="-230.3" font-family="Times New Roman,serif" font-size="14.00">Finish</text>
</g>
<!-- confirm LP#&#45;&gt;Finish -->
<g id="edge1" class="edge"><title>confirm LP#&#45;&gt;Finish</title>
<path fill="none" stroke="black" d="M483.041,-290.326C460.209,-278.909 428.545,-263.078 404.937,-251.274"/>
<polygon fill="black" stroke="black" points="406.192,-247.988 395.682,-246.646 403.061,-254.249 406.192,-247.988"/>
</g>
<!-- return LP# and image -->
<g id="node3" class="node"><title>return LP# and image</title>
<ellipse fill="none" stroke="black" cx="512.39" cy="-234" rx="89.0842" ry="18"/>
<text text-anchor="middle" x="512.39" y="-230.3" font-family="Times New Roman,serif" font-size="14.00">return LP# and image</text>
</g>
<!-- confirm LP#&#45;&gt;return LP# and image -->
<g id="edge2" class="edge"><title>confirm LP#&#45;&gt;return LP# and image</title>
<path fill="none" stroke="black" d="M512.39,-287.697C512.39,-279.983 512.39,-270.712 512.39,-262.112"/>
<polygon fill="black" stroke="black" points="515.89,-262.104 512.39,-252.104 508.89,-262.104 515.89,-262.104"/>
</g>
<!-- Capture frame from video and extract LP# -->
<g id="node4" class="node"><title>Capture frame from video and extract LP#</title>
<ellipse fill="none" stroke="black" cx="629.39" cy="-162" rx="165.171" ry="18"/>
<text text-anchor="middle" x="629.39" y="-158.3" font-family="Times New Roman,serif" font-size="14.00">Capture frame from video and extract LP#</text>
</g>
<!-- confirm LP#&#45;&gt;Capture frame from video and extract LP# -->
<g id="edge3" class="edge"><title>confirm LP#&#45;&gt;Capture frame from video and extract LP#</title>
<path fill="none" stroke="black" d="M551.728,-292.773C572.194,-284.444 595.899,-271.355 610.39,-252 623.671,-234.261 628.103,-209.246 629.395,-190.251"/>
<polygon fill="black" stroke="black" points="632.897,-190.275 629.831,-180.133 625.903,-189.973 632.897,-190.275"/>
</g>
<!-- Finish&#45;&gt;Capture frame from video and extract LP# -->
<g id="edge5" class="edge"><title>Finish&#45;&gt;Capture frame from video and extract LP#</title>
<path fill="none" stroke="black" d="M397.493,-222.159C403.006,-219.97 408.852,-217.793 414.39,-216 457.47,-202.051 506.423,-189.718 546.724,-180.467"/>
<polygon fill="black" stroke="black" points="547.533,-183.872 556.508,-178.242 545.981,-177.046 547.533,-183.872"/>
</g>
<!-- Zoom and crop functionality -->
<g id="node5" class="node"><title>Zoom and crop functionality</title>
<ellipse fill="none" stroke="black" cx="114.39" cy="-90" rx="114.28" ry="18"/>
<text text-anchor="middle" x="114.39" y="-86.3" font-family="Times New Roman,serif" font-size="14.00">Zoom and crop functionality</text>
</g>
<!-- Capture frame from video and extract LP#&#45;&gt;Zoom and crop functionality -->
<g id="edge8" class="edge"><title>Capture frame from video and extract LP#&#45;&gt;Zoom and crop functionality</title>
<path fill="none" stroke="black" d="M529.892,-147.63C450.651,-136.962 336.901,-121.604 237.39,-108 227.618,-106.664 217.411,-105.263 207.236,-103.862"/>
<polygon fill="black" stroke="black" points="207.473,-100.362 197.089,-102.464 206.517,-107.296 207.473,-100.362"/>
</g>
<!-- Display video with media controls -->
<g id="node7" class="node"><title>Display video with media controls</title>
<ellipse fill="none" stroke="black" cx="380.39" cy="-90" rx="133.776" ry="18"/>
<text text-anchor="middle" x="380.39" y="-86.3" font-family="Times New Roman,serif" font-size="14.00">Display video with media controls</text>
</g>
<!-- Capture frame from video and extract LP#&#45;&gt;Display video with media controls -->
<g id="edge10" class="edge"><title>Capture frame from video and extract LP#&#45;&gt;Display video with media controls</title>
<path fill="none" stroke="black" d="M572.576,-145.028C534.6,-134.352 484.552,-120.283 445.05,-109.177"/>
<polygon fill="black" stroke="black" points="445.822,-105.759 435.248,-106.422 443.927,-112.498 445.822,-105.759"/>
</g>
<!-- Displlay captured frame -->
<g id="node9" class="node"><title>Displlay captured frame</title>
<ellipse fill="none" stroke="black" cx="629.39" cy="-90" rx="96.6831" ry="18"/>
<text text-anchor="middle" x="629.39" y="-86.3" font-family="Times New Roman,serif" font-size="14.00">Displlay captured frame</text>
</g>
<!-- Capture frame from video and extract LP#&#45;&gt;Displlay captured frame -->
<g id="edge7" class="edge"><title>Capture frame from video and extract LP#&#45;&gt;Displlay captured frame</title>
<path fill="none" stroke="black" d="M629.39,-143.697C629.39,-135.983 629.39,-126.712 629.39,-118.112"/>
<polygon fill="black" stroke="black" points="632.89,-118.104 629.39,-108.104 625.89,-118.104 632.89,-118.104"/>
</g>
<!-- Describe LP# in editable field -->
<g id="node10" class="node"><title>Describe LP# in editable field</title>
<ellipse fill="none" stroke="black" cx="862.39" cy="-90" rx="118.079" ry="18"/>
<text text-anchor="middle" x="862.39" y="-86.3" font-family="Times New Roman,serif" font-size="14.00">Describe LP# in editable field</text>
</g>
<!-- Capture frame from video and extract LP#&#45;&gt;Describe LP# in editable field -->
<g id="edge9" class="edge"><title>Capture frame from video and extract LP#&#45;&gt;Describe LP# in editable field</title>
<path fill="none" stroke="black" d="M682.845,-144.941C718.365,-134.269 765.074,-120.237 801.947,-109.159"/>
<polygon fill="black" stroke="black" points="803.011,-112.494 811.581,-106.264 800.997,-105.79 803.011,-112.494"/>
</g>
<!-- Extract LP# -->
<g id="node11" class="node"><title>Extract LP#</title>
<ellipse fill="none" stroke="black" cx="1053.39" cy="-90" rx="54.6905" ry="18"/>
<text text-anchor="middle" x="1053.39" y="-86.3" font-family="Times New Roman,serif" font-size="14.00">Extract LP#</text>
</g>
<!-- Capture frame from video and extract LP#&#45;&gt;Extract LP# -->
<g id="edge11" class="edge"><title>Capture frame from video and extract LP#&#45;&gt;Extract LP#</title>
<path fill="none" stroke="black" d="M737.461,-148.343C809.248,-139.138 905.391,-125.281 989.39,-108 994.003,-107.051 998.779,-105.97 1003.55,-104.824"/>
<polygon fill="black" stroke="black" points="1004.41,-108.216 1013.27,-102.402 1002.72,-101.424 1004.41,-108.216"/>
</g>
<!-- Display cropped image -->
<g id="node6" class="node"><title>Display cropped image</title>
<ellipse fill="none" stroke="black" cx="114.39" cy="-18" rx="94.7833" ry="18"/>
<text text-anchor="middle" x="114.39" y="-14.3" font-family="Times New Roman,serif" font-size="14.00">Display cropped image</text>
</g>
<!-- Zoom and crop functionality&#45;&gt;Display cropped image -->
<g id="edge4" class="edge"><title>Zoom and crop functionality&#45;&gt;Display cropped image</title>
<path fill="none" stroke="black" d="M114.39,-71.6966C114.39,-63.9827 114.39,-54.7125 114.39,-46.1124"/>
<polygon fill="black" stroke="black" points="117.89,-46.1043 114.39,-36.1043 110.89,-46.1044 117.89,-46.1043"/>
</g>
<!-- video -->
<g id="node8" class="node"><title>video</title>
<ellipse fill="none" stroke="black" cx="380.39" cy="-18" rx="30.5947" ry="18"/>
<text text-anchor="middle" x="380.39" y="-14.3" font-family="Times New Roman,serif" font-size="14.00">video</text>
</g>
<!-- Display video with media controls&#45;&gt;video -->
<g id="edge6" class="edge"><title>Display video with media controls&#45;&gt;video</title>
<path fill="none" stroke="black" d="M380.39,-71.6966C380.39,-63.9827 380.39,-54.7125 380.39,-46.1124"/>
<polygon fill="black" stroke="black" points="383.89,-46.1043 380.39,-36.1043 376.89,-46.1044 383.89,-46.1043"/>
</g>
<!-- Report Poster -->
<g id="node12" class="node"><title>Report Poster</title>
<ellipse fill="none" stroke="black" cx="719.39" cy="-234" rx="61.99" ry="18"/>
<text text-anchor="middle" x="719.39" y="-230.3" font-family="Times New Roman,serif" font-size="14.00">Report Poster</text>
</g>
<!-- Report Poster&#45;&gt;Capture frame from video and extract LP# -->
<g id="edge12" class="edge"><title>Report Poster&#45;&gt;Capture frame from video and extract LP#</title>
<path fill="none" stroke="black" d="M698.516,-216.765C686.844,-207.687 672.099,-196.218 659.227,-186.207"/>
<polygon fill="black" stroke="black" points="661.133,-183.255 651.09,-179.878 656.835,-188.78 661.133,-183.255"/>
</g>
</g>
</svg>
