<?xml version="1.0" encoding="UTF-8" standalone="no"?>
<!DOCTYPE svg PUBLIC "-//W3C//DTD SVG 1.1//EN"
 "http://www.w3.org/Graphics/SVG/1.1/DTD/svg11.dtd">
<!-- Generated by graphviz version 2.38.0 (20140413.2041)
 -->
<!-- Title: g Pages: 1 -->
<svg width="2353pt" height="1050pt"
 viewBox="0.00 0.00 2353.00 1050.00" xmlns="http://www.w3.org/2000/svg" xmlns:xlink="http://www.w3.org/1999/xlink">
<g id="graph0" class="graph" transform="scale(1 1) rotate(0) translate(4 1046)">
<title>g</title>
<polygon fill="white" stroke="none" points="-4,4 -4,-1046 2349,-1046 2349,4 -4,4"/>
<g id="clust1" class="cluster"><title>cluster0</title>
<polygon fill="none" stroke="black" stroke-width="2" points="1342,-375 1342,-492 1558,-492 1558,-375 1342,-375"/>
<text text-anchor="start" x="1350" y="-477.8" font-family="Times New Roman,serif" font-weight="bold" font-size="14.00">calculate tips based on input info</text>
</g>
<g id="clust4" class="cluster"><title>cluster1000</title>
<polygon fill="none" stroke="black" stroke-width="2" points="8,-8 8,-267 2337,-267 2337,-8 8,-8"/>
<text text-anchor="start" x="1127" y="-252.8" font-family="Times New Roman,serif" font-weight="bold" font-size="14.00">Domain Model</text>
</g>
<g id="clust3" class="cluster"><title>cluster2</title>
<polygon fill="none" stroke="black" stroke-width="2" points="1564,-931 1564,-1034 1947,-1034 1947,-931 1564,-931"/>
<text text-anchor="start" x="1741" y="-1019.8" font-family="Times New Roman,serif" font-weight="bold" font-size="14.00">User</text>
</g>
<g id="clust2" class="cluster"><title>cluster1</title>
<polygon fill="none" stroke="black" stroke-width="2" points="1566,-275 1566,-923 1936,-923 1936,-275 1566,-275"/>
<text text-anchor="start" x="1729" y="-908.8" font-family="Times New Roman,serif" font-weight="bold" font-size="14.00">System</text>
</g>
<!-- EAID_5324F0B2_4E10_4b7f_97C0_D28F7A631A27___EAID_4E74860F_60B4_4a0a_84CE_CA1384F5E85B -->
<g id="node1" class="node"><title>EAID_5324F0B2_4E10_4b7f_97C0_D28F7A631A27___EAID_4E74860F_60B4_4a0a_84CE_CA1384F5E85B</title>
<image xlink:href="img/activity_icon.png" width="30px" height="20px" preserveAspectRatio="xMinYMin meet" x="1436" y="-455"/>
<text text-anchor="start" x="1391" y="-420.8" font-family="Times New Roman,serif" font-weight="bold" font-size="14.00">calculate tips based</text>
<text text-anchor="start" x="1386" y="-406.8" font-family="Times New Roman,serif" font-weight="bold" font-size="14.00">on input info:Internet</text>
<text text-anchor="start" x="1425.5" y="-392.8" font-family="Times New Roman,serif" font-weight="bold" font-size="14.00">browser</text>
</g>
<!-- EAID_4776B453_9239_47bf_B549_DE9E5EE6C20B -->
<g id="node13" class="node"><title>EAID_4776B453_9239_47bf_B549_DE9E5EE6C20B</title>
<polygon fill="none" stroke="black" points="1295,-147 1295,-168 1547,-168 1547,-147 1295,-147"/>
<text text-anchor="start" x="1348.5" y="-154.8" font-family="Times New Roman,serif" font-weight="bold" font-size="14.00">Business Owner Profile</text>
<polygon fill="none" stroke="black" points="1295,-126 1295,-147 1547,-147 1547,-126 1295,-126"/>
<text text-anchor="start" x="1348" y="-133.8" font-family="Times New Roman,serif" font-weight="bold" font-size="14.00">BusinessOwnerProfile()</text>
<polygon fill="none" stroke="black" points="1295,-105 1295,-126 1547,-126 1547,-105 1295,-105"/>
<text text-anchor="start" x="1298" y="-112.8" font-family="Times New Roman,serif" font-weight="bold" font-size="14.00">savebusinessinformationforverification()</text>
<polygon fill="none" stroke="black" points="1295,-84 1295,-105 1547,-105 1547,-84 1295,-84"/>
<text text-anchor="start" x="1366.5" y="-91.8" font-family="Times New Roman,serif" font-weight="bold" font-size="14.00">Internetbrowser()</text>
<polygon fill="none" stroke="black" points="1294,-83 1294,-169 1548,-169 1548,-83 1294,-83"/>
</g>
<!-- EAID_5324F0B2_4E10_4b7f_97C0_D28F7A631A27___EAID_4E74860F_60B4_4a0a_84CE_CA1384F5E85B&#45;&gt;EAID_4776B453_9239_47bf_B549_DE9E5EE6C20B -->
<g id="edge10" class="edge"><title>EAID_5324F0B2_4E10_4b7f_97C0_D28F7A631A27___EAID_4E74860F_60B4_4a0a_84CE_CA1384F5E85B&#45;&gt;EAID_4776B453_9239_47bf_B549_DE9E5EE6C20B</title>
<path fill="none" stroke="black" stroke-dasharray="5,2" d="M1447.11,-382.866C1441.93,-332.08 1432.72,-241.852 1426.74,-183.244"/>
<polygon fill="black" stroke="black" points="1430.2,-182.637 1425.7,-173.044 1423.23,-183.348 1430.2,-182.637"/>
</g>
<!-- EAID_0DE41573_A39D_424f_82E9_5D2C6E94FBDC___EAID_C4632D3B_4583_499d_A3F7_776721FD786E -->
<g id="node2" class="node"><title>EAID_0DE41573_A39D_424f_82E9_5D2C6E94FBDC___EAID_C4632D3B_4583_499d_A3F7_776721FD786E</title>
<image xlink:href="img/activity_icon.png" width="30px" height="20px" preserveAspectRatio="xMinYMin meet" x="1829.5" y="-665"/>
<text text-anchor="start" x="1771" y="-630.8" font-family="Times New Roman,serif" font-weight="bold" font-size="14.00">User:tip calculator page</text>
</g>
<!-- EAID_C4632D3B_4583_499d_A3F7_776721FD786E___EAID_5324F0B2_4E10_4b7f_97C0_D28F7A631A27 -->
<g id="node5" class="node"><title>EAID_C4632D3B_4583_499d_A3F7_776721FD786E___EAID_5324F0B2_4E10_4b7f_97C0_D28F7A631A27</title>
<image xlink:href="img/activity_icon.png" width="30px" height="20px" preserveAspectRatio="xMinYMin meet" x="1656.5" y="-572"/>
<text text-anchor="start" x="1585" y="-537.8" font-family="Times New Roman,serif" font-weight="bold" font-size="14.00">tip calculator page:calculate</text>
<text text-anchor="start" x="1631.5" y="-523.8" font-family="Times New Roman,serif" font-weight="bold" font-size="14.00">tips based on</text>
<text text-anchor="start" x="1642.5" y="-509.8" font-family="Times New Roman,serif" font-weight="bold" font-size="14.00">input info</text>
</g>
<!-- EAID_0DE41573_A39D_424f_82E9_5D2C6E94FBDC___EAID_C4632D3B_4583_499d_A3F7_776721FD786E&#45;&gt;EAID_C4632D3B_4583_499d_A3F7_776721FD786E___EAID_5324F0B2_4E10_4b7f_97C0_D28F7A631A27 -->
<g id="edge1" class="edge"><title>EAID_0DE41573_A39D_424f_82E9_5D2C6E94FBDC___EAID_C4632D3B_4583_499d_A3F7_776721FD786E&#45;&gt;EAID_C4632D3B_4583_499d_A3F7_776721FD786E___EAID_5324F0B2_4E10_4b7f_97C0_D28F7A631A27</title>
<path fill="none" stroke="black" d="M1803.44,-620.382C1785.26,-609.35 1763.27,-596.004 1742.48,-583.384"/>
<polygon fill="black" stroke="black" points="1744.02,-580.225 1733.66,-578.028 1740.39,-586.209 1744.02,-580.225"/>
</g>
<!-- EAID_C4632D3B_4583_499d_A3F7_776721FD786E -->
<g id="node21" class="node"><title>EAID_C4632D3B_4583_499d_A3F7_776721FD786E</title>
<text text-anchor="middle" x="1173" y="-418.3" font-family="Times New Roman,serif" font-size="14.00">EAID_C4632D3B_4583_499d_A3F7_776721FD786E</text>
</g>
<!-- EAID_0DE41573_A39D_424f_82E9_5D2C6E94FBDC___EAID_C4632D3B_4583_499d_A3F7_776721FD786E&#45;&gt;EAID_C4632D3B_4583_499d_A3F7_776721FD786E -->
<g id="edge11" class="edge"><title>EAID_0DE41573_A39D_424f_82E9_5D2C6E94FBDC___EAID_C4632D3B_4583_499d_A3F7_776721FD786E&#45;&gt;EAID_C4632D3B_4583_499d_A3F7_776721FD786E</title>
<path fill="none" stroke="black" stroke-dasharray="5,2" d="M1773.45,-620.426C1765.91,-618.117 1758.32,-615.925 1751,-614 1669.99,-592.711 1643,-610.966 1566,-578 1510.9,-554.413 1512.46,-520.114 1456,-500 1406.48,-482.359 1389.16,-504.08 1338,-492 1293.99,-481.609 1246.66,-460.712 1214.03,-444.624"/>
<polygon fill="black" stroke="black" points="1215.32,-441.357 1204.81,-440.015 1212.19,-447.618 1215.32,-441.357"/>
</g>
<!-- EAID_0DE41573_A39D_424f_82E9_5D2C6E94FBDC___EAID_97D0AFAE_1CF3_4591_9771_364C706CA413 -->
<g id="node3" class="node"><title>EAID_0DE41573_A39D_424f_82E9_5D2C6E94FBDC___EAID_97D0AFAE_1CF3_4591_9771_364C706CA413</title>
<image xlink:href="img/activity_icon.png" width="30px" height="20px" preserveAspectRatio="xMinYMin meet" x="1637" y="-886"/>
<text text-anchor="start" x="1593" y="-851.8" font-family="Times New Roman,serif" font-weight="bold" font-size="14.00">User:tip calculator </text>
<text text-anchor="start" x="1632" y="-837.8" font-family="Times New Roman,serif" font-weight="bold" font-size="14.00">button</text>
</g>
<!-- EAID_97D0AFAE_1CF3_4591_9771_364C706CA413___EAID_6400E35F_7024_427c_88C2_6F72DADB98A3 -->
<g id="node8" class="node"><title>EAID_97D0AFAE_1CF3_4591_9771_364C706CA413___EAID_6400E35F_7024_427c_88C2_6F72DADB98A3</title>
<image xlink:href="img/activity_icon.png" width="30px" height="20px" preserveAspectRatio="xMinYMin meet" x="1655.5" y="-786"/>
<text text-anchor="start" x="1628" y="-751.8" font-family="Times New Roman,serif" font-weight="bold" font-size="14.00">tip calculator </text>
<text text-anchor="start" x="1585" y="-737.8" font-family="Times New Roman,serif" font-weight="bold" font-size="14.00">button:display tip calculator</text>
<text text-anchor="start" x="1655.5" y="-723.8" font-family="Times New Roman,serif" font-weight="bold" font-size="14.00">page</text>
</g>
<!-- EAID_0DE41573_A39D_424f_82E9_5D2C6E94FBDC___EAID_97D0AFAE_1CF3_4591_9771_364C706CA413&#45;&gt;EAID_97D0AFAE_1CF3_4591_9771_364C706CA413___EAID_6400E35F_7024_427c_88C2_6F72DADB98A3 -->
<g id="edge3" class="edge"><title>EAID_0DE41573_A39D_424f_82E9_5D2C6E94FBDC___EAID_97D0AFAE_1CF3_4591_9771_364C706CA413&#45;&gt;EAID_97D0AFAE_1CF3_4591_9771_364C706CA413___EAID_6400E35F_7024_427c_88C2_6F72DADB98A3</title>
<path fill="none" stroke="black" d="M1657.35,-827.781C1658.72,-819.786 1660.23,-810.999 1661.71,-802.362"/>
<polygon fill="black" stroke="black" points="1665.19,-802.796 1663.43,-792.348 1658.29,-801.613 1665.19,-802.796"/>
</g>
<!-- EAID_0DE41573_A39D_424f_82E9_5D2C6E94FBDC___EAID_97D0AFAE_1CF3_4591_9771_364C706CA413&#45;&gt;EAID_C4632D3B_4583_499d_A3F7_776721FD786E -->
<g id="edge12" class="edge"><title>EAID_0DE41573_A39D_424f_82E9_5D2C6E94FBDC___EAID_97D0AFAE_1CF3_4591_9771_364C706CA413&#45;&gt;EAID_C4632D3B_4583_499d_A3F7_776721FD786E</title>
<path fill="none" stroke="black" stroke-dasharray="5,2" d="M1606.09,-827.688C1556.5,-793.121 1476.01,-734.819 1412,-678 1365.93,-637.099 1358.22,-622.866 1316,-578 1273.16,-532.477 1223.85,-478.728 1195.76,-447.977"/>
<polygon fill="black" stroke="black" points="1198.09,-445.332 1188.76,-440.306 1192.92,-450.051 1198.09,-445.332"/>
</g>
<!-- EAID_5324F0B2_4E10_4b7f_97C0_D28F7A631A27___EAID_2212801D_3295_42f7_BDA7_7DC7CACCC977 -->
<g id="node4" class="node"><title>EAID_5324F0B2_4E10_4b7f_97C0_D28F7A631A27___EAID_2212801D_3295_42f7_BDA7_7DC7CACCC977</title>
<image xlink:href="img/activity_icon.png" width="30px" height="20px" preserveAspectRatio="xMinYMin meet" x="1666.5" y="-455"/>
<text text-anchor="start" x="1621.5" y="-420.8" font-family="Times New Roman,serif" font-weight="bold" font-size="14.00">calculate tips based</text>
<text text-anchor="start" x="1619.5" y="-406.8" font-family="Times New Roman,serif" font-weight="bold" font-size="14.00">on input info:display</text>
<text text-anchor="start" x="1619" y="-392.8" font-family="Times New Roman,serif" font-weight="bold" font-size="14.00">added business page</text>
</g>
<!-- EAID_2212801D_3295_42f7_BDA7_7DC7CACCC977___EAID_A6722494_FA00_42e8_84B3_87F7CED20703 -->
<g id="node6" class="node"><title>EAID_2212801D_3295_42f7_BDA7_7DC7CACCC977___EAID_A6722494_FA00_42e8_84B3_87F7CED20703</title>
<image xlink:href="img/activity_icon.png" width="30px" height="20px" preserveAspectRatio="xMinYMin meet" x="1798.5" y="-341"/>
<text text-anchor="start" x="1744" y="-306.8" font-family="Times New Roman,serif" font-weight="bold" font-size="14.00">display added business</text>
<text text-anchor="start" x="1775.5" y="-292.8" font-family="Times New Roman,serif" font-weight="bold" font-size="14.00">page:pdf file</text>
</g>
<!-- EAID_5324F0B2_4E10_4b7f_97C0_D28F7A631A27___EAID_2212801D_3295_42f7_BDA7_7DC7CACCC977&#45;&gt;EAID_2212801D_3295_42f7_BDA7_7DC7CACCC977___EAID_A6722494_FA00_42e8_84B3_87F7CED20703 -->
<g id="edge5" class="edge"><title>EAID_5324F0B2_4E10_4b7f_97C0_D28F7A631A27___EAID_2212801D_3295_42f7_BDA7_7DC7CACCC977&#45;&gt;EAID_2212801D_3295_42f7_BDA7_7DC7CACCC977___EAID_A6722494_FA00_42e8_84B3_87F7CED20703</title>
<path fill="none" stroke="black" d="M1729.03,-382.796C1741.01,-373.267 1753.84,-363.058 1765.78,-353.561"/>
<polygon fill="black" stroke="black" points="1768.23,-356.082 1773.88,-347.117 1763.88,-350.603 1768.23,-356.082"/>
</g>
<!-- EAID_C9431B28_09BF_4766_AA35_31DCF2AD19E6 -->
<g id="node12" class="node"><title>EAID_C9431B28_09BF_4766_AA35_31DCF2AD19E6</title>
<polygon fill="none" stroke="black" points="1583,-210 1583,-231 1779,-231 1779,-210 1583,-210"/>
<text text-anchor="start" x="1634" y="-217.8" font-family="Times New Roman,serif" font-weight="bold" font-size="14.00">Business Claim</text>
<polygon fill="none" stroke="black" points="1583,-189 1583,-210 1779,-210 1779,-189 1583,-189"/>
<text text-anchor="start" x="1631" y="-196.8" font-family="Times New Roman,serif" font-weight="bold" font-size="14.00">BusinessClaim()</text>
<polygon fill="none" stroke="black" points="1583,-168 1583,-189 1779,-189 1779,-168 1583,-168"/>
<text text-anchor="start" x="1613" y="-175.8" font-family="Times New Roman,serif" font-weight="bold" font-size="14.00">addedbusinessbutton()</text>
<polygon fill="none" stroke="black" points="1583,-147 1583,-168 1779,-168 1779,-147 1583,-147"/>
<text text-anchor="start" x="1641.5" y="-154.8" font-family="Times New Roman,serif" font-weight="bold" font-size="14.00">listofclaims()</text>
<polygon fill="none" stroke="black" points="1583,-126 1583,-147 1779,-147 1779,-126 1583,-126"/>
<text text-anchor="start" x="1639.5" y="-133.8" font-family="Times New Roman,serif" font-weight="bold" font-size="14.00">ClaimDetail()</text>
<polygon fill="none" stroke="black" points="1583,-105 1583,-126 1779,-126 1779,-105 1583,-105"/>
<text text-anchor="start" x="1624" y="-112.8" font-family="Times New Roman,serif" font-weight="bold" font-size="14.00">loadclaimsbutton()</text>
<polygon fill="none" stroke="black" points="1583,-84 1583,-105 1779,-105 1779,-84 1583,-84"/>
<text text-anchor="start" x="1645" y="-91.8" font-family="Times New Roman,serif" font-weight="bold" font-size="14.00">claimpage()</text>
<polygon fill="none" stroke="black" points="1583,-63 1583,-84 1779,-84 1779,-63 1583,-63"/>
<text text-anchor="start" x="1586" y="-70.8" font-family="Times New Roman,serif" font-weight="bold" font-size="14.00">savetheapprovalstatusofclaim()</text>
<polygon fill="none" stroke="black" points="1583,-42 1583,-63 1779,-63 1779,-42 1583,-42"/>
<text text-anchor="start" x="1610" y="-49.8" font-family="Times New Roman,serif" font-weight="bold" font-size="14.00">displayclaimsrequests()</text>
<polygon fill="none" stroke="black" points="1583,-21 1583,-42 1779,-42 1779,-21 1583,-21"/>
<text text-anchor="start" x="1602.5" y="-28.8" font-family="Times New Roman,serif" font-weight="bold" font-size="14.00">Querybusinessbyoptions()</text>
<polygon fill="none" stroke="black" points="1582,-20 1582,-232 1780,-232 1780,-20 1582,-20"/>
</g>
<!-- EAID_5324F0B2_4E10_4b7f_97C0_D28F7A631A27___EAID_2212801D_3295_42f7_BDA7_7DC7CACCC977&#45;&gt;EAID_C9431B28_09BF_4766_AA35_31DCF2AD19E6 -->
<g id="edge13" class="edge"><title>EAID_5324F0B2_4E10_4b7f_97C0_D28F7A631A27___EAID_2212801D_3295_42f7_BDA7_7DC7CACCC977&#45;&gt;EAID_C9431B28_09BF_4766_AA35_31DCF2AD19E6</title>
<path fill="none" stroke="black" stroke-dasharray="5,2" d="M1681,-382.866C1681,-348.199 1681,-295.153 1681,-246.332"/>
<polygon fill="black" stroke="black" points="1684.5,-246.309 1681,-236.309 1677.5,-246.31 1684.5,-246.309"/>
</g>
<!-- EAID_C4632D3B_4583_499d_A3F7_776721FD786E___EAID_5324F0B2_4E10_4b7f_97C0_D28F7A631A27&#45;&gt;EAID_5324F0B2_4E10_4b7f_97C0_D28F7A631A27___EAID_4E74860F_60B4_4a0a_84CE_CA1384F5E85B -->
<g id="edge6" class="edge"><title>EAID_C4632D3B_4583_499d_A3F7_776721FD786E___EAID_5324F0B2_4E10_4b7f_97C0_D28F7A631A27&#45;&gt;EAID_5324F0B2_4E10_4b7f_97C0_D28F7A631A27___EAID_4E74860F_60B4_4a0a_84CE_CA1384F5E85B</title>
<path fill="none" stroke="black" d="M1578.07,-499.96C1572.59,-497.354 1567.2,-494.692 1562,-492 1547.23,-484.354 1531.82,-475.43 1517.35,-466.588"/>
<polygon fill="black" stroke="black" points="1518.82,-463.382 1508.47,-461.105 1515.14,-469.338 1518.82,-463.382"/>
</g>
<!-- EAID_C4632D3B_4583_499d_A3F7_776721FD786E___EAID_5324F0B2_4E10_4b7f_97C0_D28F7A631A27&#45;&gt;EAID_5324F0B2_4E10_4b7f_97C0_D28F7A631A27___EAID_2212801D_3295_42f7_BDA7_7DC7CACCC977 -->
<g id="edge7" class="edge"><title>EAID_C4632D3B_4583_499d_A3F7_776721FD786E___EAID_5324F0B2_4E10_4b7f_97C0_D28F7A631A27&#45;&gt;EAID_5324F0B2_4E10_4b7f_97C0_D28F7A631A27___EAID_2212801D_3295_42f7_BDA7_7DC7CACCC977</title>
<path fill="none" stroke="black" d="M1674.33,-499.707C1675.12,-490.59 1675.98,-480.745 1676.8,-471.247"/>
<polygon fill="black" stroke="black" points="1680.31,-471.392 1677.68,-461.126 1673.33,-470.785 1680.31,-471.392"/>
</g>
<!-- EAID_C4632D3B_4583_499d_A3F7_776721FD786E___EAID_5324F0B2_4E10_4b7f_97C0_D28F7A631A27&#45;&gt;EAID_C4632D3B_4583_499d_A3F7_776721FD786E -->
<g id="edge14" class="edge"><title>EAID_C4632D3B_4583_499d_A3F7_776721FD786E___EAID_5324F0B2_4E10_4b7f_97C0_D28F7A631A27&#45;&gt;EAID_C4632D3B_4583_499d_A3F7_776721FD786E</title>
<path fill="none" stroke="black" stroke-dasharray="5,2" d="M1574.45,-506.576C1563.92,-503.978 1553.29,-501.701 1543,-500 1453.04,-485.132 1427.03,-511.68 1338,-492 1293.71,-482.21 1246.24,-461.126 1213.64,-444.824"/>
<polygon fill="black" stroke="black" points="1214.94,-441.559 1204.44,-440.152 1211.77,-447.8 1214.94,-441.559"/>
</g>
<!-- EAID_844875F7_184D_4f9a_85C7_9BB8B2EE694A -->
<g id="node14" class="node"><title>EAID_844875F7_184D_4f9a_85C7_9BB8B2EE694A</title>
<polygon fill="none" stroke="black" points="1816,-147 1816,-168 2049,-168 2049,-147 1816,-147"/>
<text text-anchor="start" x="1883" y="-154.8" font-family="Times New Roman,serif" font-weight="bold" font-size="14.00">Business Profile</text>
<polygon fill="none" stroke="black" points="1816,-126 1816,-147 2049,-147 2049,-126 1816,-126"/>
<text text-anchor="start" x="1880.5" y="-133.8" font-family="Times New Roman,serif" font-weight="bold" font-size="14.00">BusinessProfile()</text>
<polygon fill="none" stroke="black" points="1816,-105 1816,-126 2049,-126 2049,-105 1816,-105"/>
<text text-anchor="start" x="1819" y="-112.8" font-family="Times New Roman,serif" font-weight="bold" font-size="14.00">savetheapprovalstatusofthebusiness()</text>
<polygon fill="none" stroke="black" points="1816,-84 1816,-105 2049,-105 2049,-84 1816,-84"/>
<text text-anchor="start" x="1908.5" y="-91.8" font-family="Times New Roman,serif" font-weight="bold" font-size="14.00">pdffile()</text>
<polygon fill="none" stroke="black" points="1814.5,-83 1814.5,-169 2049.5,-169 2049.5,-83 1814.5,-83"/>
</g>
<!-- EAID_2212801D_3295_42f7_BDA7_7DC7CACCC977___EAID_A6722494_FA00_42e8_84B3_87F7CED20703&#45;&gt;EAID_844875F7_184D_4f9a_85C7_9BB8B2EE694A -->
<g id="edge15" class="edge"><title>EAID_2212801D_3295_42f7_BDA7_7DC7CACCC977___EAID_A6722494_FA00_42e8_84B3_87F7CED20703&#45;&gt;EAID_844875F7_184D_4f9a_85C7_9BB8B2EE694A</title>
<path fill="none" stroke="black" stroke-dasharray="5,2" d="M1832.92,-282.7C1850.41,-255.212 1876.26,-214.598 1897.16,-181.742"/>
<polygon fill="black" stroke="black" points="1900.23,-183.45 1902.64,-173.135 1894.32,-179.692 1900.23,-183.45"/>
</g>
<!-- EAID_6400E35F_7024_427c_88C2_6F72DADB98A3___EAID_C4632D3B_4583_499d_A3F7_776721FD786E -->
<g id="node7" class="node"><title>EAID_6400E35F_7024_427c_88C2_6F72DADB98A3___EAID_C4632D3B_4583_499d_A3F7_776721FD786E</title>
<image xlink:href="img/activity_icon.png" width="30px" height="20px" preserveAspectRatio="xMinYMin meet" x="1643" y="-672"/>
<text text-anchor="start" x="1594" y="-637.8" font-family="Times New Roman,serif" font-weight="bold" font-size="14.00">display tip calculator</text>
<text text-anchor="start" x="1584" y="-623.8" font-family="Times New Roman,serif" font-weight="bold" font-size="14.00">page:tip calculator page</text>
</g>
<!-- EAID_6400E35F_7024_427c_88C2_6F72DADB98A3___EAID_C4632D3B_4583_499d_A3F7_776721FD786E&#45;&gt;EAID_C4632D3B_4583_499d_A3F7_776721FD786E___EAID_5324F0B2_4E10_4b7f_97C0_D28F7A631A27 -->
<g id="edge8" class="edge"><title>EAID_6400E35F_7024_427c_88C2_6F72DADB98A3___EAID_C4632D3B_4583_499d_A3F7_776721FD786E&#45;&gt;EAID_C4632D3B_4583_499d_A3F7_776721FD786E___EAID_5324F0B2_4E10_4b7f_97C0_D28F7A631A27</title>
<path fill="none" stroke="black" d="M1661.87,-613.781C1662.86,-605.786 1663.94,-596.999 1665.01,-588.362"/>
<polygon fill="black" stroke="black" points="1668.5,-588.703 1666.25,-578.348 1661.55,-587.843 1668.5,-588.703"/>
</g>
<!-- EAID_6400E35F_7024_427c_88C2_6F72DADB98A3___EAID_C4632D3B_4583_499d_A3F7_776721FD786E&#45;&gt;EAID_C4632D3B_4583_499d_A3F7_776721FD786E -->
<g id="edge16" class="edge"><title>EAID_6400E35F_7024_427c_88C2_6F72DADB98A3___EAID_C4632D3B_4583_499d_A3F7_776721FD786E&#45;&gt;EAID_C4632D3B_4583_499d_A3F7_776721FD786E</title>
<path fill="none" stroke="black" stroke-dasharray="5,2" d="M1589.62,-613.898C1565.86,-602.845 1539.13,-590.13 1515,-578 1449.62,-545.131 1438.24,-526.411 1370,-500 1356.33,-494.709 1351.91,-496.619 1338,-492 1296.83,-478.333 1251.45,-459.032 1218.72,-444.318"/>
<polygon fill="black" stroke="black" points="1219.97,-441.041 1209.42,-440.105 1217.08,-447.418 1219.97,-441.041"/>
</g>
<!-- EAID_97D0AFAE_1CF3_4591_9771_364C706CA413___EAID_6400E35F_7024_427c_88C2_6F72DADB98A3&#45;&gt;EAID_6400E35F_7024_427c_88C2_6F72DADB98A3___EAID_C4632D3B_4583_499d_A3F7_776721FD786E -->
<g id="edge9" class="edge"><title>EAID_97D0AFAE_1CF3_4591_9771_364C706CA413___EAID_6400E35F_7024_427c_88C2_6F72DADB98A3&#45;&gt;EAID_6400E35F_7024_427c_88C2_6F72DADB98A3___EAID_C4632D3B_4583_499d_A3F7_776721FD786E</title>
<path fill="none" stroke="black" d="M1665.63,-713.796C1664.68,-705.458 1663.67,-696.6 1662.7,-688.153"/>
<polygon fill="black" stroke="black" points="1666.17,-687.655 1661.56,-678.117 1659.21,-688.45 1666.17,-687.655"/>
</g>
<!-- EAID_97D0AFAE_1CF3_4591_9771_364C706CA413___EAID_6400E35F_7024_427c_88C2_6F72DADB98A3&#45;&gt;EAID_C4632D3B_4583_499d_A3F7_776721FD786E -->
<g id="edge17" class="edge"><title>EAID_97D0AFAE_1CF3_4591_9771_364C706CA413___EAID_6400E35F_7024_427c_88C2_6F72DADB98A3&#45;&gt;EAID_C4632D3B_4583_499d_A3F7_776721FD786E</title>
<path fill="none" stroke="black" stroke-dasharray="5,2" d="M1582.22,-713.877C1518.56,-683.351 1432.93,-636.093 1370,-578 1339.02,-549.401 1347.43,-528.105 1316,-500 1289.66,-476.444 1254.83,-457.497 1226.15,-444.292"/>
<polygon fill="black" stroke="black" points="1227.23,-440.942 1216.67,-440.036 1224.36,-447.327 1227.23,-440.942"/>
</g>
<!-- EAID_0DE41573_A39D_424f_82E9_5D2C6E94FBDC___EAID_C4632D3B_4583_499d_A3F7_776721FD786E_STL -->
<g id="node9" class="node"><title>EAID_0DE41573_A39D_424f_82E9_5D2C6E94FBDC___EAID_C4632D3B_4583_499d_A3F7_776721FD786E_STL</title>
<image xlink:href="img/stimulus_icon.png" width="30px" height="20px" preserveAspectRatio="xMinYMin meet" x="1829.5" y="-990"/>
<text text-anchor="start" x="1760" y="-955.8" font-family="Times New Roman,serif" font-weight="bold" font-size="14.00">stl#User:tip calculator page</text>
</g>
<!-- EAID_0DE41573_A39D_424f_82E9_5D2C6E94FBDC___EAID_C4632D3B_4583_499d_A3F7_776721FD786E_STL&#45;&gt;EAID_0DE41573_A39D_424f_82E9_5D2C6E94FBDC___EAID_C4632D3B_4583_499d_A3F7_776721FD786E -->
<g id="edge2" class="edge"><title>EAID_0DE41573_A39D_424f_82E9_5D2C6E94FBDC___EAID_C4632D3B_4583_499d_A3F7_776721FD786E_STL&#45;&gt;EAID_0DE41573_A39D_424f_82E9_5D2C6E94FBDC___EAID_C4632D3B_4583_499d_A3F7_776721FD786E</title>
<path fill="none" stroke="black" d="M1844,-945.457C1844,-888.559 1844,-747.499 1844,-681.757"/>
<polygon fill="black" stroke="black" points="1847.5,-681.505 1844,-671.505 1840.5,-681.505 1847.5,-681.505"/>
</g>
<!-- EAID_0DE41573_A39D_424f_82E9_5D2C6E94FBDC___EAID_97D0AFAE_1CF3_4591_9771_364C706CA413_STL -->
<g id="node10" class="node"><title>EAID_0DE41573_A39D_424f_82E9_5D2C6E94FBDC___EAID_97D0AFAE_1CF3_4591_9771_364C706CA413_STL</title>
<image xlink:href="img/stimulus_icon.png" width="30px" height="20px" preserveAspectRatio="xMinYMin meet" x="1637.5" y="-997"/>
<text text-anchor="start" x="1583" y="-962.8" font-family="Times New Roman,serif" font-weight="bold" font-size="14.00">stl#User:tip calculator </text>
<text text-anchor="start" x="1632.5" y="-948.8" font-family="Times New Roman,serif" font-weight="bold" font-size="14.00">button</text>
</g>
<!-- EAID_0DE41573_A39D_424f_82E9_5D2C6E94FBDC___EAID_97D0AFAE_1CF3_4591_9771_364C706CA413_STL&#45;&gt;EAID_0DE41573_A39D_424f_82E9_5D2C6E94FBDC___EAID_97D0AFAE_1CF3_4591_9771_364C706CA413 -->
<g id="edge4" class="edge"><title>EAID_0DE41573_A39D_424f_82E9_5D2C6E94FBDC___EAID_97D0AFAE_1CF3_4591_9771_364C706CA413_STL&#45;&gt;EAID_0DE41573_A39D_424f_82E9_5D2C6E94FBDC___EAID_97D0AFAE_1CF3_4591_9771_364C706CA413</title>
<path fill="none" stroke="black" d="M1652,-938.765C1652,-927.477 1652,-914.549 1652,-902.518"/>
<polygon fill="black" stroke="black" points="1655.5,-902.24 1652,-892.24 1648.5,-902.24 1655.5,-902.24"/>
</g>
<!-- EAID_9D1C0B84_7B29_45bd_AE26_92C9E4FB1D42 -->
<g id="node11" class="node"><title>EAID_9D1C0B84_7B29_45bd_AE26_92C9E4FB1D42</title>
<polygon fill="none" stroke="black" points="2085,-136 2085,-157 2320,-157 2320,-136 2085,-136"/>
<text text-anchor="start" x="2137" y="-143.8" font-family="Times New Roman,serif" font-weight="bold" font-size="14.00">Administrator Profile</text>
<polygon fill="none" stroke="black" points="2085,-115 2085,-136 2320,-136 2320,-115 2085,-115"/>
<text text-anchor="start" x="2134.5" y="-122.8" font-family="Times New Roman,serif" font-weight="bold" font-size="14.00">AdministratorProfile()</text>
<polygon fill="none" stroke="black" points="2085,-94 2085,-115 2320,-115 2320,-94 2085,-94"/>
<text text-anchor="start" x="2088" y="-101.8" font-family="Times New Roman,serif" font-weight="bold" font-size="14.00">savetheapprovalstatusofregistration()</text>
<polygon fill="none" stroke="black" points="2083.5,-93.5 2083.5,-158.5 2320.5,-158.5 2320.5,-93.5 2083.5,-93.5"/>
</g>
<!-- EAID_648B096C_8A07_451e_A1D0_6634EAE8C62E -->
<g id="node15" class="node"><title>EAID_648B096C_8A07_451e_A1D0_6634EAE8C62E</title>
<polygon fill="none" stroke="black" points="1059,-168 1059,-189 1259,-189 1259,-168 1059,-168"/>
<text text-anchor="start" x="1126" y="-175.8" font-family="Times New Roman,serif" font-weight="bold" font-size="14.00">Comments</text>
<polygon fill="none" stroke="black" points="1059,-147 1059,-168 1259,-168 1259,-147 1059,-147"/>
<text text-anchor="start" x="1121.5" y="-154.8" font-family="Times New Roman,serif" font-weight="bold" font-size="14.00">Comments()</text>
<polygon fill="none" stroke="black" points="1059,-126 1059,-147 1259,-147 1259,-126 1059,-126"/>
<text text-anchor="start" x="1121.5" y="-133.8" font-family="Times New Roman,serif" font-weight="bold" font-size="14.00">Homepage()</text>
<polygon fill="none" stroke="black" points="1059,-105 1059,-126 1259,-126 1259,-105 1059,-105"/>
<text text-anchor="start" x="1085.5" y="-112.8" font-family="Times New Roman,serif" font-weight="bold" font-size="14.00">commentsectionbutton()</text>
<polygon fill="none" stroke="black" points="1059,-84 1059,-105 1259,-105 1259,-84 1059,-84"/>
<text text-anchor="start" x="1062" y="-91.8" font-family="Times New Roman,serif" font-weight="bold" font-size="14.00">saveapprovalstatusofcomment()</text>
<polygon fill="none" stroke="black" points="1059,-63 1059,-84 1259,-84 1259,-63 1059,-63"/>
<text text-anchor="start" x="1088" y="-70.8" font-family="Times New Roman,serif" font-weight="bold" font-size="14.00">displaycommentdetail()</text>
<polygon fill="none" stroke="black" points="1058,-62 1058,-190 1260,-190 1260,-62 1058,-62"/>
</g>
<!-- EAID_8B961FEE_74EB_4039_AC08_BDBD8ED0D704 -->
<g id="node16" class="node"><title>EAID_8B961FEE_74EB_4039_AC08_BDBD8ED0D704</title>
<polygon fill="none" stroke="black" points="779,-199 779,-220 1023,-220 1023,-199 779,-199"/>
<text text-anchor="start" x="854.5" y="-206.8" font-family="Times New Roman,serif" font-weight="bold" font-size="14.00">Question Form</text>
<polygon fill="none" stroke="black" points="779,-178 779,-199 1023,-199 1023,-178 779,-178"/>
<text text-anchor="start" x="852" y="-185.8" font-family="Times New Roman,serif" font-weight="bold" font-size="14.00">QuestionForm()</text>
<polygon fill="none" stroke="black" points="779,-157 779,-178 1023,-178 1023,-157 779,-157"/>
<text text-anchor="start" x="819.5" y="-164.8" font-family="Times New Roman,serif" font-weight="bold" font-size="14.00">businessinputinformation()</text>
<polygon fill="none" stroke="black" points="779,-136 779,-157 1023,-157 1023,-136 779,-136"/>
<text text-anchor="start" x="787" y="-143.8" font-family="Times New Roman,serif" font-weight="bold" font-size="14.00">saveclaiminformationforverification()</text>
<polygon fill="none" stroke="black" points="779,-115 779,-136 1023,-136 1023,-115 779,-115"/>
<text text-anchor="start" x="812" y="-122.8" font-family="Times New Roman,serif" font-weight="bold" font-size="14.00">displayregistratiionrequests()</text>
<polygon fill="none" stroke="black" points="779,-94 779,-115 1023,-115 1023,-94 779,-94"/>
<text text-anchor="start" x="831.5" y="-101.8" font-family="Times New Roman,serif" font-weight="bold" font-size="14.00">displayselectionpanel()</text>
<polygon fill="none" stroke="black" points="779,-73 779,-94 1023,-94 1023,-73 779,-73"/>
<text text-anchor="start" x="861.5" y="-80.8" font-family="Times New Roman,serif" font-weight="bold" font-size="14.00">notification()</text>
<polygon fill="none" stroke="black" points="779,-52 779,-73 1023,-73 1023,-52 779,-52"/>
<text text-anchor="start" x="782" y="-59.8" font-family="Times New Roman,serif" font-weight="bold" font-size="14.00">checkifthequestionisalreadyanswered()</text>
<polygon fill="none" stroke="black" points="779,-31 779,-52 1023,-52 1023,-31 779,-31"/>
<text text-anchor="start" x="788" y="-38.8" font-family="Times New Roman,serif" font-weight="bold" font-size="14.00">searchforrelevantinformationonline()</text>
<polygon fill="none" stroke="black" points="778,-30.5 778,-221.5 1024,-221.5 1024,-30.5 778,-30.5"/>
</g>
<!-- EAID_E299D6D1_4D86_4d1a_8B97_C235E5C7A58A -->
<g id="node17" class="node"><title>EAID_E299D6D1_4D86_4d1a_8B97_C235E5C7A58A</title>
<polygon fill="none" stroke="black" points="589,-136 589,-157 743,-157 743,-136 589,-136"/>
<text text-anchor="start" x="617.5" y="-143.8" font-family="Times New Roman,serif" font-weight="bold" font-size="14.00">Response Form</text>
<polygon fill="none" stroke="black" points="589,-115 589,-136 743,-136 743,-115 589,-115"/>
<text text-anchor="start" x="615" y="-122.8" font-family="Times New Roman,serif" font-weight="bold" font-size="14.00">ResponseForm()</text>
<polygon fill="none" stroke="black" points="589,-94 589,-115 743,-115 743,-94 589,-94"/>
<text text-anchor="start" x="592" y="-101.8" font-family="Times New Roman,serif" font-weight="bold" font-size="14.00">createaresponsebutton()</text>
<polygon fill="none" stroke="black" points="588,-93.5 588,-158.5 744,-158.5 744,-93.5 588,-93.5"/>
</g>
<!-- EAID_7F7B41B5_E72C_4551_BE34_D1F73B801B7C -->
<g id="node18" class="node"><title>EAID_7F7B41B5_E72C_4551_BE34_D1F73B801B7C</title>
<polygon fill="none" stroke="black" points="399,-147 399,-168 553,-168 553,-147 399,-147"/>
<text text-anchor="start" x="430" y="-154.8" font-family="Times New Roman,serif" font-weight="bold" font-size="14.00">Search Results</text>
<polygon fill="none" stroke="black" points="399,-126 399,-147 553,-147 553,-126 399,-126"/>
<text text-anchor="start" x="427.5" y="-133.8" font-family="Times New Roman,serif" font-weight="bold" font-size="14.00">SearchResults()</text>
<polygon fill="none" stroke="black" points="399,-105 399,-126 553,-126 553,-105 399,-105"/>
<text text-anchor="start" x="404.5" y="-112.8" font-family="Times New Roman,serif" font-weight="bold" font-size="14.00">redirecttosearchpanel()</text>
<polygon fill="none" stroke="black" points="399,-84 399,-105 553,-105 553,-84 399,-84"/>
<text text-anchor="start" x="402" y="-91.8" font-family="Times New Roman,serif" font-weight="bold" font-size="14.00">Noresultfoundmessage()</text>
<polygon fill="none" stroke="black" points="398,-83 398,-169 554,-169 554,-83 398,-83"/>
</g>
<!-- EAID_45884821_2FCD_4e14_8A09_DAA9F46289F5 -->
<g id="node19" class="node"><title>EAID_45884821_2FCD_4e14_8A09_DAA9F46289F5</title>
<polygon fill="none" stroke="black" points="257,-126 257,-147 363,-147 363,-126 257,-126"/>
<text text-anchor="start" x="263" y="-133.8" font-family="Times New Roman,serif" font-weight="bold" font-size="14.00">Tipping Guides</text>
<polygon fill="none" stroke="black" points="257,-105 257,-126 363,-126 363,-105 257,-105"/>
<text text-anchor="start" x="260" y="-112.8" font-family="Times New Roman,serif" font-weight="bold" font-size="14.00">TippingGuides()</text>
<polygon fill="none" stroke="black" points="256,-104 256,-148 364,-148 364,-104 256,-104"/>
</g>
<!-- EAID_96C56FF8_F2E7_4ce3_AC1B_A6B8EC78DBBE -->
<g id="node20" class="node"><title>EAID_96C56FF8_F2E7_4ce3_AC1B_A6B8EC78DBBE</title>
<polygon fill="none" stroke="black" points="25,-136 25,-157 221,-157 221,-136 25,-136"/>
<text text-anchor="start" x="32.5" y="-143.8" font-family="Times New Roman,serif" font-weight="bold" font-size="14.00">calculatetipsbasedoninputinfo</text>
<polygon fill="none" stroke="black" points="25,-115 25,-136 221,-136 221,-115 25,-115"/>
<text text-anchor="start" x="28" y="-122.8" font-family="Times New Roman,serif" font-weight="bold" font-size="14.00">calculatetipsbasedoninputinfo()</text>
<polygon fill="none" stroke="black" points="25,-94 25,-115 221,-115 221,-94 25,-94"/>
<text text-anchor="start" x="65" y="-101.8" font-family="Times New Roman,serif" font-weight="bold" font-size="14.00">tipcalculatorpage()</text>
<polygon fill="none" stroke="black" points="24,-93.5 24,-158.5 222,-158.5 222,-93.5 24,-93.5"/>
</g>
</g>
</svg>
