<?xml version="1.0" encoding="UTF-8" standalone="no"?>
<!DOCTYPE svg PUBLIC "-//W3C//DTD SVG 1.1//EN"
 "http://www.w3.org/Graphics/SVG/1.1/DTD/svg11.dtd">
<!-- Generated by graphviz version 2.40.1 (20161225.0304)
 -->
<!-- Title: class_diagram Pages: 1 -->
<svg width="3281pt" height="73pt"
 viewBox="0.00 0.00 3281.36 73.00" xmlns="http://www.w3.org/2000/svg" xmlns:xlink="http://www.w3.org/1999/xlink">
<g id="graph0" class="graph" transform="scale(1 1) rotate(0) translate(4 69)">
<title>class_diagram</title>
<polygon fill="#ffffff" stroke="transparent" points="-4,4 -4,-69 3277.3594,-69 3277.3594,4 -4,4"/>
<!-- c5b082966_e5d2_44ac_93dc_cf111cecc12a -->
<g id="c5b082966_e5d2_44ac_93dc_cf111cecc12a" class="node">
<title>c5b082966_e5d2_44ac_93dc_cf111cecc12a</title>
<polygon fill="none" stroke="#000000" points="0,-12.5 0,-52.5 116.7188,-52.5 116.7188,-12.5 0,-12.5"/>
<text text-anchor="middle" x="58.3594" y="-42.1" font-family="Times,serif" font-size="8.00" fill="#000000">AndroidProcesses</text>
<polyline fill="none" stroke="#000000" points="0,-36.5 116.7188,-36.5 "/>
<text text-anchor="start" x="8" y="-26.1" font-family="Times,serif" font-size="8.00" fill="#000000">+ log()</text>
<text text-anchor="start" x="8" y="-18.1" font-family="Times,serif" font-size="8.00" fill="#000000">+ getRunningAppProcessInfo()</text>
</g>
<!-- c8353a7b6_00a1_49cc_8836_b35f33c53439 -->
<g id="c8353a7b6_00a1_49cc_8836_b35f33c53439" class="node">
<title>c8353a7b6_00a1_49cc_8836_b35f33c53439</title>
<polygon fill="none" stroke="#000000" points="134.6973,-14.5 134.6973,-50.5 208.0215,-50.5 208.0215,-14.5 134.6973,-14.5"/>
<text text-anchor="middle" x="171.3594" y="-30.1" font-family="Times,serif" font-size="8.00" fill="#000000">ActivityProcesses</text>
</g>
<!-- c51db2637_6a99_462b_9e61_0824c212e734 -->
<g id="c51db2637_6a99_462b_9e61_0824c212e734" class="node">
<title>c51db2637_6a99_462b_9e61_0824c212e734</title>
<polygon fill="none" stroke="#000000" points="225.8105,-14.5 225.8105,-50.5 292.9082,-50.5 292.9082,-14.5 225.8105,-14.5"/>
<text text-anchor="middle" x="259.3594" y="-30.1" font-family="Times,serif" font-size="8.00" fill="#000000">ContentHandler</text>
</g>
<!-- ccbdde6b0_3745_4a7a_8a18_a6d7ba1793f8 -->
<g id="ccbdde6b0_3745_4a7a_8a18_a6d7ba1793f8" class="node">
<title>ccbdde6b0_3745_4a7a_8a18_a6d7ba1793f8</title>
<polygon fill="none" stroke="#000000" points="310.918,-14.5 310.918,-50.5 391.8008,-50.5 391.8008,-14.5 310.918,-14.5"/>
<text text-anchor="middle" x="351.3594" y="-39.6" font-family="Times,serif" font-size="8.00" fill="#000000">AndroidAppProcess</text>
<polyline fill="none" stroke="#000000" points="310.918,-33.5 391.8008,-33.5 "/>
<text text-anchor="start" x="318.918" y="-22.6" font-family="Times,serif" font-size="8.00" fill="#000000">&#45; uid:int</text>
<polyline fill="none" stroke="#000000" points="310.918,-16.5 391.8008,-16.5 "/>
</g>
<!-- caaedc1d4_987a_4484_af1b_a11594f83a9a -->
<g id="caaedc1d4_987a_4484_af1b_a11594f83a9a" class="node">
<title>caaedc1d4_987a_4484_af1b_a11594f83a9a</title>
<polygon fill="none" stroke="#000000" points="410.2559,-14.5 410.2559,-50.5 468.4629,-50.5 468.4629,-14.5 410.2559,-14.5"/>
<text text-anchor="middle" x="439.3594" y="-30.1" font-family="Times,serif" font-size="8.00" fill="#000000">DTDHandler</text>
</g>
<!-- ceeaf8e2a_a128_4985_b9ba_d1050c81b1e1 -->
<g id="ceeaf8e2a_a128_4985_b9ba_d1050c81b1e1" class="node">
<title>ceeaf8e2a_a128_4985_b9ba_d1050c81b1e1</title>
<polygon fill="none" stroke="#000000" points="486.3359,-14.5 486.3359,-50.5 642.3828,-50.5 642.3828,-14.5 486.3359,-14.5"/>
<text text-anchor="middle" x="564.3594" y="-39.6" font-family="Times,serif" font-size="8.00" fill="#000000">ControlGroup$1</text>
<polyline fill="none" stroke="#000000" points="486.3359,-33.5 642.3828,-33.5 "/>
<text text-anchor="start" x="494.3359" y="-22.6" font-family="Times,serif" font-size="8.00" fill="#000000">&#45; CREATOR:android.os.Parcelable$Creator</text>
<polyline fill="none" stroke="#000000" points="486.3359,-16.5 642.3828,-16.5 "/>
</g>
<!-- cfe1797a9_3fd3_4aa7_996e_6978768f9601 -->
<g id="cfe1797a9_3fd3_4aa7_996e_6978768f9601" class="node">
<title>cfe1797a9_3fd3_4aa7_996e_6978768f9601</title>
<polygon fill="none" stroke="#000000" points="660.332,-12.5 660.332,-52.5 718.3867,-52.5 718.3867,-12.5 660.332,-12.5"/>
<text text-anchor="middle" x="689.3594" y="-42.1" font-family="Times,serif" font-size="8.00" fill="#000000">Cgroup$1</text>
<polyline fill="none" stroke="#000000" points="660.332,-36.5 718.3867,-36.5 "/>
<text text-anchor="start" x="668.332" y="-26.1" font-family="Times,serif" font-size="8.00" fill="#000000">+ getGroup()</text>
<text text-anchor="start" x="668.332" y="-18.1" font-family="Times,serif" font-size="8.00" fill="#000000">+ get()</text>
</g>
<!-- cafdf22d8_db99_4fe1_8dea_19de4c61aa96 -->
<g id="cafdf22d8_db99_4fe1_8dea_19de4c61aa96" class="node">
<title>cafdf22d8_db99_4fe1_8dea_19de4c61aa96</title>
<polygon fill="none" stroke="#000000" points="736.3594,-14.5 736.3594,-50.5 790.3594,-50.5 790.3594,-14.5 736.3594,-14.5"/>
<text text-anchor="middle" x="763.082" y="-35.1" font-family="Times,serif" font-size="8.00" fill="#000000">Stat</text>
<polyline fill="none" stroke="#000000" points="736.3594,-24.5 789.8047,-24.5 "/>
</g>
<!-- c9d2a1720_9790_45d0_85bb_caaeca00ea8f -->
<g id="c9d2a1720_9790_45d0_85bb_caaeca00ea8f" class="node">
<title>c9d2a1720_9790_45d0_85bb_caaeca00ea8f</title>
<polygon fill="none" stroke="#000000" points="808.3594,-14.5 808.3594,-50.5 862.3594,-50.5 862.3594,-14.5 808.3594,-14.5"/>
<text text-anchor="middle" x="835.1387" y="-35.1" font-family="Times,serif" font-size="8.00" fill="#000000">Status$1</text>
<polyline fill="none" stroke="#000000" points="808.3594,-24.5 861.918,-24.5 "/>
</g>
<!-- ca74d4c57_a639_4362_aac6_7050f88de6bc -->
<g id="ca74d4c57_a639_4362_aac6_7050f88de6bc" class="node">
<title>ca74d4c57_a639_4362_aac6_7050f88de6bc</title>
<polygon fill="none" stroke="#000000" points="880.3594,-14.5 880.3594,-50.5 934.3594,-50.5 934.3594,-14.5 880.3594,-14.5"/>
<text text-anchor="middle" x="906.9141" y="-35.1" font-family="Times,serif" font-size="8.00" fill="#000000">ProcFile</text>
<polyline fill="none" stroke="#000000" points="880.3594,-24.5 933.4688,-24.5 "/>
</g>
<!-- c56026c07_492a_4c9d_bc2a_37fa0c6c56aa -->
<g id="c56026c07_492a_4c9d_bc2a_37fa0c6c56aa" class="node">
<title>c56026c07_492a_4c9d_bc2a_37fa0c6c56aa</title>
<polygon fill="none" stroke="#000000" points="951.9258,-.5 951.9258,-64.5 1042.793,-64.5 1042.793,-.5 951.9258,-.5"/>
<text text-anchor="middle" x="997.3594" y="-54.1" font-family="Times,serif" font-size="8.00" fill="#000000">AndroidProcess</text>
<polyline fill="none" stroke="#000000" points="951.9258,-48.5 1042.793,-48.5 "/>
<text text-anchor="start" x="959.9258" y="-38.1" font-family="Times,serif" font-size="8.00" fill="#000000">&#45; name:java.lang.String</text>
<polyline fill="none" stroke="#000000" points="951.9258,-32.5 1042.793,-32.5 "/>
<text text-anchor="start" x="959.9258" y="-22.1" font-family="Times,serif" font-size="8.00" fill="#000000">+ status()</text>
<text text-anchor="start" x="959.9258" y="-14.1" font-family="Times,serif" font-size="8.00" fill="#000000">+ cgroup()</text>
<text text-anchor="start" x="959.9258" y="-6.1" font-family="Times,serif" font-size="8.00" fill="#000000">+ stat()</text>
</g>
<!-- cdcdbdcc7_c344_4a97_9c32_09cb7305cb01 -->
<g id="cdcdbdcc7_c344_4a97_9c32_09cb7305cb01" class="node">
<title>cdcdbdcc7_c344_4a97_9c32_09cb7305cb01</title>
<polygon fill="none" stroke="#000000" points="1061.2598,-14.5 1061.2598,-50.5 1175.459,-50.5 1175.459,-14.5 1061.2598,-14.5"/>
<text text-anchor="middle" x="1118.3594" y="-30.1" font-family="Times,serif" font-size="8.00" fill="#000000">SAXNotRecognizedException</text>
</g>
<!-- c4f8a0750_8c82_497b_9a1c_864a0306c3fd -->
<g id="c4f8a0750_8c82_497b_9a1c_864a0306c3fd" class="node">
<title>c4f8a0750_8c82_497b_9a1c_864a0306c3fd</title>
<polygon fill="none" stroke="#000000" points="1193.0371,-14.5 1193.0371,-50.5 1251.6816,-50.5 1251.6816,-14.5 1193.0371,-14.5"/>
<text text-anchor="middle" x="1222.3594" y="-30.1" font-family="Times,serif" font-size="8.00" fill="#000000">ErrorHandler</text>
</g>
<!-- c3f01ce52_3e8e_4384_9405_ba185a6b38d7 -->
<g id="c3f01ce52_3e8e_4384_9405_ba185a6b38d7" class="node">
<title>c3f01ce52_3e8e_4384_9405_ba185a6b38d7</title>
<polygon fill="none" stroke="#000000" points="1269.3594,-14.5 1269.3594,-50.5 1323.3594,-50.5 1323.3594,-14.5 1269.3594,-14.5"/>
<text text-anchor="middle" x="1296.2969" y="-30.1" font-family="Times,serif" font-size="8.00" fill="#000000">Locator</text>
</g>
<!-- cf4d7e166_4d4b_45f8_a01f_dafad652ec2c -->
<g id="cf4d7e166_4d4b_45f8_a01f_dafad652ec2c" class="node">
<title>cf4d7e166_4d4b_45f8_a01f_dafad652ec2c</title>
<polygon fill="none" stroke="#000000" points="1341.0391,-14.5 1341.0391,-50.5 1411.6797,-50.5 1411.6797,-14.5 1341.0391,-14.5"/>
<text text-anchor="middle" x="1376.3594" y="-30.1" font-family="Times,serif" font-size="8.00" fill="#000000">ServiceReader$4</text>
</g>
<!-- ca6eb136c_25fb_4082_82e9_e88d1ee50c70 -->
<g id="ca6eb136c_25fb_4082_82e9_e88d1ee50c70" class="node">
<title>ca6eb136c_25fb_4082_82e9_e88d1ee50c70</title>
<polygon fill="none" stroke="#000000" points="1429.9238,-14.5 1429.9238,-50.5 1498.7949,-50.5 1498.7949,-14.5 1429.9238,-14.5"/>
<text text-anchor="middle" x="1464.3594" y="-30.1" font-family="Times,serif" font-size="8.00" fill="#000000">ProcessManager</text>
</g>
<!-- c97f0618c_7336_4c37_a56a_3e7d3b3ff67e -->
<g id="c97f0618c_7336_4c37_a56a_3e7d3b3ff67e" class="node">
<title>c97f0618c_7336_4c37_a56a_3e7d3b3ff67e</title>
<polygon fill="none" stroke="#000000" points="1516.3594,-14.5 1516.3594,-50.5 1570.3594,-50.5 1570.3594,-14.5 1516.3594,-14.5"/>
<text text-anchor="middle" x="1543.0273" y="-30.1" font-family="Times,serif" font-size="8.00" fill="#000000">C</text>
</g>
<!-- ce898ed99_f4a6_4744_9646_85c09f39e0d0 -->
<g id="ce898ed99_f4a6_4744_9646_85c09f39e0d0" class="node">
<title>ce898ed99_f4a6_4744_9646_85c09f39e0d0</title>
<polygon fill="none" stroke="#000000" points="1588.3594,-14.5 1588.3594,-50.5 1642.3594,-50.5 1642.3594,-14.5 1588.3594,-14.5"/>
<text text-anchor="middle" x="1615.1934" y="-30.1" font-family="Times,serif" font-size="8.00" fill="#000000">Statm</text>
</g>
<!-- c24703304_db83_435a_8ac7_7cf736625a25 -->
<g id="c24703304_db83_435a_8ac7_7cf736625a25" class="node">
<title>c24703304_db83_435a_8ac7_7cf736625a25</title>
<polygon fill="none" stroke="#000000" points="1660.6973,-14.5 1660.6973,-50.5 1770.0215,-50.5 1770.0215,-14.5 1660.6973,-14.5"/>
<text text-anchor="middle" x="1715.3594" y="-30.1" font-family="Times,serif" font-size="8.00" fill="#000000">SAXNotSupportedException</text>
</g>
<!-- c36508f10_41cc_416b_93db_2fa8b4f89069 -->
<g id="c36508f10_41cc_416b_93db_2fa8b4f89069" class="node">
<title>c36508f10_41cc_416b_93db_2fa8b4f89069</title>
<polygon fill="none" stroke="#000000" points="1788.1445,-14.5 1788.1445,-50.5 1844.5742,-50.5 1844.5742,-14.5 1788.1445,-14.5"/>
<text text-anchor="middle" x="1816.3594" y="-30.1" font-family="Times,serif" font-size="8.00" fill="#000000">XMLReader</text>
</g>
<!-- cf978f315_a6ec_4a62_83e4_4857c356f221 -->
<g id="cf978f315_a6ec_4a62_83e4_4857c356f221" class="node">
<title>cf978f315_a6ec_4a62_83e4_4857c356f221</title>
<polygon fill="none" stroke="#000000" points="1863.0508,-14.5 1863.0508,-50.5 1921.668,-50.5 1921.668,-14.5 1863.0508,-14.5"/>
<text text-anchor="middle" x="1892.3594" y="-30.1" font-family="Times,serif" font-size="8.00" fill="#000000">ViewGraphic</text>
</g>
<!-- cdaa39523_e0ba_46e5_808a_74e74e19803c -->
<g id="cdaa39523_e0ba_46e5_808a_74e74e19803c" class="node">
<title>cdaa39523_e0ba_46e5_808a_74e74e19803c</title>
<polygon fill="none" stroke="#000000" points="1939.8047,-14.5 1939.8047,-50.5 2002.9141,-50.5 2002.9141,-14.5 1939.8047,-14.5"/>
<text text-anchor="middle" x="1971.3594" y="-30.1" font-family="Times,serif" font-size="8.00" fill="#000000">XmlPullParser</text>
</g>
<!-- c4af40129_b8cd_478d_b62c_5ea8d04aea32 -->
<g id="c4af40129_b8cd_478d_b62c_5ea8d04aea32" class="node">
<title>c4af40129_b8cd_478d_b62c_5ea8d04aea32</title>
<polygon fill="none" stroke="#000000" points="2020.4766,-14.5 2020.4766,-50.5 2102.2422,-50.5 2102.2422,-14.5 2020.4766,-14.5"/>
<text text-anchor="middle" x="2061.3594" y="-30.1" font-family="Times,serif" font-size="8.00" fill="#000000">SAXParseException</text>
</g>
<!-- c3c276285_ed37_4f54_b16c_9485f1a8becd -->
<g id="c3c276285_ed37_4f54_b16c_9485f1a8becd" class="node">
<title>c3c276285_ed37_4f54_b16c_9485f1a8becd</title>
<polygon fill="none" stroke="#000000" points="2120.5762,-14.5 2120.5762,-50.5 2176.1426,-50.5 2176.1426,-14.5 2120.5762,-14.5"/>
<text text-anchor="middle" x="2148.3594" y="-30.1" font-family="Times,serif" font-size="8.00" fill="#000000">BuildConfig</text>
</g>
<!-- c1aaca8dd_472f_42cb_869e_3bd914ed2bc5 -->
<g id="c1aaca8dd_472f_42cb_869e_3bd914ed2bc5" class="node">
<title>c1aaca8dd_472f_42cb_869e_3bd914ed2bc5</title>
<polygon fill="none" stroke="#000000" points="2193.8066,-14.5 2193.8066,-50.5 2264.9121,-50.5 2264.9121,-14.5 2193.8066,-14.5"/>
<text text-anchor="middle" x="2229.3594" y="-30.1" font-family="Times,serif" font-size="8.00" fill="#000000">ActivityMain$19</text>
</g>
<!-- cbfa6ece2_1ee4_4be9_9b2a_7d75d009b789 -->
<g id="cbfa6ece2_1ee4_4be9_9b2a_7d75d009b789" class="node">
<title>cbfa6ece2_1ee4_4be9_9b2a_7d75d009b789</title>
<polygon fill="none" stroke="#000000" points="2283.3633,-14.5 2283.3633,-50.5 2347.3555,-50.5 2347.3555,-14.5 2283.3633,-14.5"/>
<text text-anchor="middle" x="2315.3594" y="-30.1" font-family="Times,serif" font-size="8.00" fill="#000000">EntityResolver</text>
</g>
<!-- cbda5767d_b5e5_4d2d_944f_ed724608648a -->
<g id="cbda5767d_b5e5_4d2d_944f_ed724608648a" class="node">
<title>cbda5767d_b5e5_4d2d_944f_ed724608648a</title>
<polygon fill="none" stroke="#000000" points="2365.3594,-14.5 2365.3594,-50.5 2419.3594,-50.5 2419.3594,-14.5 2365.3594,-14.5"/>
<text text-anchor="middle" x="2392.0273" y="-30.1" font-family="Times,serif" font-size="8.00" fill="#000000">R</text>
</g>
<!-- cec179b4e_118e_4f1d_acde_119cfa1cc901 -->
<g id="cec179b4e_118e_4f1d_acde_119cfa1cc901" class="node">
<title>cec179b4e_118e_4f1d_acde_119cfa1cc901</title>
<polygon fill="none" stroke="#000000" points="2437.1406,-14.5 2437.1406,-50.5 2501.5781,-50.5 2501.5781,-14.5 2437.1406,-14.5"/>
<text text-anchor="middle" x="2469.3594" y="-30.1" font-family="Times,serif" font-size="8.00" fill="#000000">SAXException</text>
</g>
<!-- c45a87319_2ad8_4417_9234_2763fb94f2ad -->
<g id="c45a87319_2ad8_4417_9234_2763fb94f2ad" class="node">
<title>c45a87319_2ad8_4417_9234_2763fb94f2ad</title>
<polygon fill="none" stroke="#000000" points="2519.8086,-14.5 2519.8086,-50.5 2574.9102,-50.5 2574.9102,-14.5 2519.8086,-14.5"/>
<text text-anchor="middle" x="2547.3594" y="-30.1" font-family="Times,serif" font-size="8.00" fill="#000000">InputSource</text>
</g>
<!-- c23dd9a31_4b30_42be_8d52_2aefb619a727 -->
<g id="c23dd9a31_4b30_42be_8d52_2aefb619a727" class="node">
<title>c23dd9a31_4b30_42be_8d52_2aefb619a727</title>
<polygon fill="none" stroke="#000000" points="2593.3594,-14.5 2593.3594,-50.5 2647.3594,-50.5 2647.3594,-14.5 2593.3594,-14.5"/>
<text text-anchor="middle" x="2620.0254" y="-30.1" font-family="Times,serif" font-size="8.00" fill="#000000">R$layout</text>
</g>
<!-- cf86134a8_98f2_4af0_97f0_ff2b1c3ded4e -->
<g id="cf86134a8_98f2_4af0_97f0_ff2b1c3ded4e" class="node">
<title>cf86134a8_98f2_4af0_97f0_ff2b1c3ded4e</title>
<polygon fill="none" stroke="#000000" points="2665.5879,-14.5 2665.5879,-50.5 2761.1309,-50.5 2761.1309,-14.5 2665.5879,-14.5"/>
<text text-anchor="middle" x="2713.3594" y="-30.1" font-family="Times,serif" font-size="8.00" fill="#000000">XmlPullParserException</text>
</g>
<!-- c676c130b_b564_4534_9d1f_c851518cc73c -->
<g id="c676c130b_b564_4534_9d1f_c851518cc73c" class="node">
<title>c676c130b_b564_4534_9d1f_c851518cc73c</title>
<polygon fill="none" stroke="#000000" points="2778.7012,-14.5 2778.7012,-50.5 2876.0176,-50.5 2876.0176,-14.5 2778.7012,-14.5"/>
<text text-anchor="middle" x="2827.3594" y="-30.1" font-family="Times,serif" font-size="8.00" fill="#000000">LinearLayoutCustomised</text>
</g>
<!-- c40b23235_b391_47c9_ace8_b9c2afbccfc7 -->
<g id="c40b23235_b391_47c9_ace8_b9c2afbccfc7" class="node">
<title>c40b23235_b391_47c9_ace8_b9c2afbccfc7</title>
<polygon fill="none" stroke="#000000" points="2894.4746,-14.5 2894.4746,-50.5 2960.2441,-50.5 2960.2441,-14.5 2894.4746,-14.5"/>
<text text-anchor="middle" x="2927.3594" y="-30.1" font-family="Times,serif" font-size="8.00" fill="#000000">ActivityHelp$1</text>
</g>
<!-- cb2289f05_252e_4b06_b7ee_0dfdb9990421 -->
<g id="cb2289f05_252e_4b06_b7ee_0dfdb9990421" class="node">
<title>cb2289f05_252e_4b06_b7ee_0dfdb9990421</title>
<polygon fill="none" stroke="#000000" points="2978.25,-14.5 2978.25,-50.5 3048.4688,-50.5 3048.4688,-14.5 2978.25,-14.5"/>
<text text-anchor="middle" x="3013.3594" y="-30.1" font-family="Times,serif" font-size="8.00" fill="#000000">ActivityAbout$2</text>
</g>
<!-- c0c3adc1e_c8bb_403e_a132_cb9bea6ec8b3 -->
<g id="c0c3adc1e_c8bb_403e_a132_cb9bea6ec8b3" class="node">
<title>c0c3adc1e_c8bb_403e_a132_cb9bea6ec8b3</title>
<polygon fill="none" stroke="#000000" points="3066.9238,-14.5 3066.9238,-50.5 3127.7949,-50.5 3127.7949,-14.5 3066.9238,-14.5"/>
<text text-anchor="middle" x="3097.3594" y="-30.1" font-family="Times,serif" font-size="8.00" fill="#000000">XmlSerializer</text>
</g>
<!-- ce86e3b97_1d0c_4b93_a9a4_2cd80599e1d4 -->
<g id="ce86e3b97_1d0c_4b93_a9a4_2cd80599e1d4" class="node">
<title>ce86e3b97_1d0c_4b93_a9a4_2cd80599e1d4</title>
<polygon fill="none" stroke="#000000" points="3145.5762,-14.5 3145.5762,-50.5 3201.1426,-50.5 3201.1426,-14.5 3145.5762,-14.5"/>
<text text-anchor="middle" x="3173.3594" y="-30.1" font-family="Times,serif" font-size="8.00" fill="#000000">BuildConfig</text>
</g>
<!-- c97f75267_3994_4b6e_a209_6cecf41c1aae -->
<g id="c97f75267_3994_4b6e_a209_6cecf41c1aae" class="node">
<title>c97f75267_3994_4b6e_a209_6cecf41c1aae</title>
<polygon fill="none" stroke="#000000" points="3219.3594,-14.5 3219.3594,-50.5 3273.3594,-50.5 3273.3594,-14.5 3219.3594,-14.5"/>
<text text-anchor="middle" x="3246.3574" y="-30.1" font-family="Times,serif" font-size="8.00" fill="#000000">Attributes</text>
</g>
</g>
</svg>
