<?xml version="1.0" encoding="UTF-8" standalone="no"?>
<!DOCTYPE svg PUBLIC "-//W3C//DTD SVG 1.1//EN"
 "http://www.w3.org/Graphics/SVG/1.1/DTD/svg11.dtd">
<!-- Generated by graphviz version 2.38.0 (20140413.2041)
 -->
<!-- Title: g Pages: 1 -->
<svg width="1365pt" height="123pt"
 viewBox="0.00 0.00 1365.00 123.00" xmlns="http://www.w3.org/2000/svg" xmlns:xlink="http://www.w3.org/1999/xlink">
<g id="graph0" class="graph" transform="scale(1 1) rotate(0) translate(4 119)">
<title>g</title>
<polygon fill="white" stroke="none" points="-4,4 -4,-119 1361,-119 1361,4 -4,4"/>
<!-- EAID_1E0BA8D7_742B_4848_89A2_14B083ECA484 -->
<g id="node1" class="node"><title>EAID_1E0BA8D7_742B_4848_89A2_14B083ECA484</title>
<polygon fill="none" stroke="black" points="9,-67.5 9,-88.5 413,-88.5 413,-67.5 9,-67.5"/>
<text text-anchor="start" x="190" y="-75.3" font-family="Times New Roman,serif" font-weight="bold" font-size="14.00">Class1</text>
<polygon fill="none" stroke="black" points="9,-46.5 9,-67.5 413,-67.5 413,-46.5 9,-46.5"/>
<text text-anchor="start" x="12" y="-54.3" font-family="Times New Roman,serif" font-weight="bold" font-size="14.00">EAID_94114C7D_FEF8_48dc_A08F_7389C3F560C0 undefined</text>
<polygon fill="none" stroke="black" points="9,-25.5 9,-46.5 413,-46.5 413,-25.5 9,-25.5"/>
<text text-anchor="start" x="185.5" y="-33.3" font-family="Times New Roman,serif" font-weight="bold" font-size="14.00">Class1()</text>
<polygon fill="none" stroke="black" points="8,-25 8,-90 414,-90 414,-25 8,-25"/>
</g>
<!-- EAID_94114C7D_FEF8_48dc_A08F_7389C3F560C0 -->
<g id="node2" class="node"><title>EAID_94114C7D_FEF8_48dc_A08F_7389C3F560C0</title>
<polygon fill="none" stroke="black" points="450,-57.5 450,-78.5 507,-78.5 507,-57.5 450,-57.5"/>
<text text-anchor="start" x="457.5" y="-65.3" font-family="Times New Roman,serif" font-weight="bold" font-size="14.00">Class2</text>
<polygon fill="none" stroke="black" points="450,-36.5 450,-57.5 507,-57.5 507,-36.5 450,-36.5"/>
<text text-anchor="start" x="453" y="-44.3" font-family="Times New Roman,serif" font-weight="bold" font-size="14.00">Class2()</text>
<polygon fill="none" stroke="black" points="448.5,-35.5 448.5,-79.5 507.5,-79.5 507.5,-35.5 448.5,-35.5"/>
</g>
<!-- EAID_049F1F1F_4AAE_456c_8F08_30AACEB177E4 -->
<g id="node3" class="node"><title>EAID_049F1F1F_4AAE_456c_8F08_30AACEB177E4</title>
<polygon fill="none" stroke="black" points="543,-57.5 543,-78.5 600,-78.5 600,-57.5 543,-57.5"/>
<text text-anchor="start" x="550.5" y="-65.3" font-family="Times New Roman,serif" font-weight="bold" font-size="14.00">Class3</text>
<polygon fill="none" stroke="black" points="543,-36.5 543,-57.5 600,-57.5 600,-36.5 543,-36.5"/>
<text text-anchor="start" x="546" y="-44.3" font-family="Times New Roman,serif" font-weight="bold" font-size="14.00">Class3()</text>
<polygon fill="none" stroke="black" points="541.5,-35.5 541.5,-79.5 600.5,-79.5 600.5,-35.5 541.5,-35.5"/>
</g>
<!-- EAID_C04F91BC_68DC_471f_BA9D_FCFC1579E760 -->
<g id="node4" class="node"><title>EAID_C04F91BC_68DC_471f_BA9D_FCFC1579E760</title>
<polygon fill="none" stroke="black" points="636,-57.5 636,-78.5 736,-78.5 736,-57.5 636,-57.5"/>
<text text-anchor="start" x="643.5" y="-65.3" font-family="Times New Roman,serif" font-weight="bold" font-size="14.00">confirmdialog</text>
<polygon fill="none" stroke="black" points="636,-36.5 636,-57.5 736,-57.5 736,-36.5 636,-36.5"/>
<text text-anchor="start" x="639" y="-44.3" font-family="Times New Roman,serif" font-weight="bold" font-size="14.00">confirmdialog()</text>
<polygon fill="none" stroke="black" points="635,-35.5 635,-79.5 737,-79.5 737,-35.5 635,-35.5"/>
</g>
<!-- EAID_71814A07_16E4_4de9_9A55_B4E535C2C335 -->
<g id="node5" class="node"><title>EAID_71814A07_16E4_4de9_9A55_B4E535C2C335</title>
<polygon fill="none" stroke="black" points="772,-57.5 772,-78.5 924,-78.5 924,-57.5 772,-57.5"/>
<text text-anchor="start" x="779.5" y="-65.3" font-family="Times New Roman,serif" font-weight="bold" font-size="14.00">verifyinputinformation</text>
<polygon fill="none" stroke="black" points="772,-36.5 772,-57.5 924,-57.5 924,-36.5 772,-36.5"/>
<text text-anchor="start" x="775" y="-44.3" font-family="Times New Roman,serif" font-weight="bold" font-size="14.00">verifyinputinformation()</text>
<polygon fill="none" stroke="black" points="771,-35.5 771,-79.5 925,-79.5 925,-35.5 771,-35.5"/>
</g>
<!-- EAID_7B3C0AEE_2C29_4c6c_A706_0D2D4140CE8A -->
<g id="node6" class="node"><title>EAID_7B3C0AEE_2C29_4c6c_A706_0D2D4140CE8A</title>
<polygon fill="none" stroke="black" points="961,-88.5 961,-109.5 1146,-109.5 1146,-88.5 961,-88.5"/>
<text text-anchor="start" x="1027.5" y="-96.3" font-family="Times New Roman,serif" font-weight="bold" font-size="14.00">websites</text>
<polygon fill="none" stroke="black" points="961,-67.5 961,-88.5 1146,-88.5 1146,-67.5 961,-67.5"/>
<text text-anchor="start" x="1023" y="-75.3" font-family="Times New Roman,serif" font-weight="bold" font-size="14.00">websites()</text>
<polygon fill="none" stroke="black" points="961,-46.5 961,-67.5 1146,-67.5 1146,-46.5 961,-46.5"/>
<text text-anchor="start" x="983.5" y="-54.3" font-family="Times New Roman,serif" font-weight="bold" font-size="14.00">Attributelistofwebsite()</text>
<polygon fill="none" stroke="black" points="961,-25.5 961,-46.5 1146,-46.5 1146,-25.5 961,-25.5"/>
<text text-anchor="start" x="1008" y="-33.3" font-family="Times New Roman,serif" font-weight="bold" font-size="14.00">addattributes()</text>
<polygon fill="none" stroke="black" points="961,-4.5 961,-25.5 1146,-25.5 1146,-4.5 961,-4.5"/>
<text text-anchor="start" x="964" y="-12.3" font-family="Times New Roman,serif" font-weight="bold" font-size="14.00">querycrawlinglistofwebsites()</text>
<polygon fill="none" stroke="black" points="959.5,-4 959.5,-111 1146.5,-111 1146.5,-4 959.5,-4"/>
</g>
<!-- EAID_C2295090_B10A_47ae_9279_59D3C62ABA31 -->
<g id="node7" class="node"><title>EAID_C2295090_B10A_47ae_9279_59D3C62ABA31</title>
<polygon fill="none" stroke="black" points="1182,-67.5 1182,-88.5 1348,-88.5 1348,-67.5 1182,-67.5"/>
<text text-anchor="start" x="1189.5" y="-75.3" font-family="Times New Roman,serif" font-weight="bold" font-size="14.00">schedulesuccessmessage</text>
<polygon fill="none" stroke="black" points="1182,-46.5 1182,-67.5 1348,-67.5 1348,-46.5 1182,-46.5"/>
<text text-anchor="start" x="1185" y="-54.3" font-family="Times New Roman,serif" font-weight="bold" font-size="14.00">schedulesuccessmessage()</text>
<polygon fill="none" stroke="black" points="1182,-25.5 1182,-46.5 1348,-46.5 1348,-25.5 1182,-25.5"/>
<text text-anchor="start" x="1234" y="-33.3" font-family="Times New Roman,serif" font-weight="bold" font-size="14.00">schedule()</text>
<polygon fill="none" stroke="black" points="1181,-25 1181,-90 1349,-90 1349,-25 1181,-25"/>
</g>
</g>
</svg>
