<?xml version="1.0" encoding="UTF-8" standalone="no"?>
<!DOCTYPE svg PUBLIC "-//W3C//DTD SVG 1.1//EN"
 "http://www.w3.org/Graphics/SVG/1.1/DTD/svg11.dtd">
<!-- Generated by graphviz version 2.38.0 (20140413.2041)
 -->
<!-- Title: g Pages: 1 -->
<svg width="405pt" height="260pt"
 viewBox="0.00 0.00 405.34 260.00" xmlns="http://www.w3.org/2000/svg" xmlns:xlink="http://www.w3.org/1999/xlink">
<g id="graph0" class="graph" transform="scale(1 1) rotate(0) translate(4 256)">
<title>g</title>
<polygon fill="white" stroke="none" points="-4,4 -4,-256 401.337,-256 401.337,4 -4,4"/>
<!-- Query meetings by user -->
<g id="node1" class="node"><title>Query meetings by user</title>
<ellipse fill="none" stroke="black" cx="214.493" cy="-90" rx="96.6831" ry="18"/>
<text text-anchor="middle" x="214.493" y="-86.3" font-family="Times New Roman,serif" font-size="14.00">Query meetings by user</text>
</g>
<!-- list with no meetings -->
<g id="node2" class="node"><title>list with no meetings</title>
<ellipse fill="none" stroke="black" cx="84.4925" cy="-18" rx="84.485" ry="18"/>
<text text-anchor="middle" x="84.4925" y="-14.3" font-family="Times New Roman,serif" font-size="14.00">list with no meetings</text>
</g>
<!-- Query meetings by user&#45;&gt;list with no meetings -->
<g id="edge1" class="edge"><title>Query meetings by user&#45;&gt;list with no meetings</title>
<path fill="none" stroke="black" d="M184.341,-72.7646C166.081,-62.9324 142.612,-50.295 123.015,-39.743"/>
<polygon fill="black" stroke="black" points="124.496,-36.5654 114.032,-34.906 121.178,-42.7287 124.496,-36.5654"/>
</g>
<!-- meeting -->
<g id="node3" class="node"><title>meeting</title>
<ellipse fill="none" stroke="black" cx="225.493" cy="-18" rx="38.1938" ry="18"/>
<text text-anchor="middle" x="225.493" y="-14.3" font-family="Times New Roman,serif" font-size="14.00">meeting</text>
</g>
<!-- Query meetings by user&#45;&gt;meeting -->
<g id="edge2" class="edge"><title>Query meetings by user&#45;&gt;meeting</title>
<path fill="none" stroke="black" d="M217.212,-71.6966C218.424,-63.9827 219.881,-54.7125 221.232,-46.1124"/>
<polygon fill="black" stroke="black" points="224.71,-46.5265 222.805,-36.1043 217.795,-45.4397 224.71,-46.5265"/>
</g>
<!-- meeting view -->
<g id="node4" class="node"><title>meeting view</title>
<ellipse fill="none" stroke="black" cx="339.493" cy="-18" rx="57.6901" ry="18"/>
<text text-anchor="middle" x="339.493" y="-14.3" font-family="Times New Roman,serif" font-size="14.00">meeting view</text>
</g>
<!-- Query meetings by user&#45;&gt;meeting view -->
<g id="edge3" class="edge"><title>Query meetings by user&#45;&gt;meeting view</title>
<path fill="none" stroke="black" d="M243.484,-72.7646C261.334,-62.7686 284.362,-49.8733 303.39,-39.2175"/>
<polygon fill="black" stroke="black" points="305.354,-42.1288 312.369,-34.189 301.934,-36.0213 305.354,-42.1288"/>
</g>
<!-- view meeting option -->
<g id="node5" class="node"><title>view meeting option</title>
<ellipse fill="none" stroke="black" cx="214.493" cy="-162" rx="83.3857" ry="18"/>
<text text-anchor="middle" x="214.493" y="-158.3" font-family="Times New Roman,serif" font-size="14.00">view meeting option</text>
</g>
<!-- view meeting option&#45;&gt;Query meetings by user -->
<g id="edge4" class="edge"><title>view meeting option&#45;&gt;Query meetings by user</title>
<path fill="none" stroke="black" d="M214.493,-143.697C214.493,-135.983 214.493,-126.712 214.493,-118.112"/>
<polygon fill="black" stroke="black" points="217.993,-118.104 214.493,-108.104 210.993,-118.104 217.993,-118.104"/>
</g>
<!-- User -->
<g id="node6" class="node"><title>User</title>
<ellipse fill="none" stroke="black" cx="214.493" cy="-234" rx="27.8951" ry="18"/>
<text text-anchor="middle" x="214.493" y="-230.3" font-family="Times New Roman,serif" font-size="14.00">User</text>
</g>
<!-- User&#45;&gt;list with no meetings -->
<g id="edge7" class="edge"><title>User&#45;&gt;list with no meetings</title>
<path fill="none" stroke="black" d="M189.977,-225.151C168.907,-217.135 139.334,-202.622 122.493,-180 92.857,-140.194 85.9157,-80.7708 84.534,-46.3502"/>
<polygon fill="black" stroke="black" points="88.0263,-46.0121 84.2591,-36.1097 81.0288,-46.2001 88.0263,-46.0121"/>
</g>
<!-- User&#45;&gt;meeting view -->
<g id="edge5" class="edge"><title>User&#45;&gt;meeting view</title>
<path fill="none" stroke="black" d="M239.172,-225.271C260.35,-217.333 289.988,-202.869 306.493,-180 335.271,-140.125 340.257,-80.9685 340.443,-46.5651"/>
<polygon fill="black" stroke="black" points="343.941,-46.2917 340.359,-36.3208 336.941,-46.3493 343.941,-46.2917"/>
</g>
<!-- User&#45;&gt;view meeting option -->
<g id="edge6" class="edge"><title>User&#45;&gt;view meeting option</title>
<path fill="none" stroke="black" d="M214.493,-215.697C214.493,-207.983 214.493,-198.712 214.493,-190.112"/>
<polygon fill="black" stroke="black" points="217.993,-190.104 214.493,-180.104 210.993,-190.104 217.993,-190.104"/>
</g>
</g>
</svg>
