<?xml version="1.0" encoding="UTF-8" standalone="no"?>
<!DOCTYPE svg PUBLIC "-//W3C//DTD SVG 1.1//EN"
 "http://www.w3.org/Graphics/SVG/1.1/DTD/svg11.dtd">
<!-- Generated by graphviz version 2.38.0 (20140413.2041)
 -->
<!-- Title: g Pages: 1 -->
<svg width="2759pt" height="1168pt"
 viewBox="0.00 0.00 2759.00 1168.00" xmlns="http://www.w3.org/2000/svg" xmlns:xlink="http://www.w3.org/1999/xlink">
<g id="graph0" class="graph" transform="scale(1 1) rotate(0) translate(4 1164)">
<title>g</title>
<polygon fill="white" stroke="none" points="-4,4 -4,-1164 2755,-1164 2755,4 -4,4"/>
<g id="clust1" class="cluster"><title>cluster0</title>
<polygon fill="none" stroke="black" stroke-width="2" points="1753,-254 1753,-1041 2327,-1041 2327,-254 1753,-254"/>
<text text-anchor="start" x="2018" y="-1026.8" font-family="Times New Roman,serif" font-weight="bold" font-size="14.00">System</text>
</g>
<g id="clust2" class="cluster"><title>cluster1</title>
<polygon fill="none" stroke="black" stroke-width="2" points="1745,-1049 1745,-1152 2743,-1152 2743,-1049 1745,-1049"/>
<text text-anchor="start" x="2223" y="-1137.8" font-family="Times New Roman,serif" font-weight="bold" font-size="14.00">Visitor</text>
</g>
<g id="clust3" class="cluster"><title>cluster1000</title>
<polygon fill="none" stroke="black" stroke-width="2" points="8,-8 8,-246 2171,-246 2171,-8 8,-8"/>
<text text-anchor="start" x="1044" y="-231.8" font-family="Times New Roman,serif" font-weight="bold" font-size="14.00">Domain Model</text>
</g>
<!-- EAID_4172C017_2E3E_4d09_A6C5_E7EDDC7D26E9___EAID_27A023F6_F29A_4d21_940B_FF8136BEF61F -->
<g id="node1" class="node"><title>EAID_4172C017_2E3E_4d09_A6C5_E7EDDC7D26E9___EAID_27A023F6_F29A_4d21_940B_FF8136BEF61F</title>
<image xlink:href="img/activity_icon.png" width="30px" height="20px" preserveAspectRatio="xMinYMin meet" x="2221" y="-1004"/>
<text text-anchor="start" x="2180" y="-969.8" font-family="Times New Roman,serif" font-weight="bold" font-size="14.00">Visitor:404 or 500</text>
<text text-anchor="start" x="2203" y="-955.8" font-family="Times New Roman,serif" font-weight="bold" font-size="14.00">error page</text>
</g>
<!-- EAID_F4BDFF6A_0A54_47c3_86DA_13F47DE5E679 -->
<g id="node28" class="node"><title>EAID_F4BDFF6A_0A54_47c3_86DA_13F47DE5E679</title>
<text text-anchor="middle" x="2347" y="-111.8" font-family="Times New Roman,serif" font-size="14.00">EAID_F4BDFF6A_0A54_47c3_86DA_13F47DE5E679</text>
</g>
<!-- EAID_4172C017_2E3E_4d09_A6C5_E7EDDC7D26E9___EAID_27A023F6_F29A_4d21_940B_FF8136BEF61F&#45;&gt;EAID_F4BDFF6A_0A54_47c3_86DA_13F47DE5E679 -->
<g id="edge16" class="edge"><title>EAID_4172C017_2E3E_4d09_A6C5_E7EDDC7D26E9___EAID_27A023F6_F29A_4d21_940B_FF8136BEF61F&#45;&gt;EAID_F4BDFF6A_0A54_47c3_86DA_13F47DE5E679</title>
<path fill="none" stroke="black" stroke-dasharray="5,2" d="M2293.12,-945.945C2348.12,-911.404 2423,-850.041 2423,-772 2423,-772 2423,-772 2423,-435 2423,-354.159 2424.93,-332.345 2405,-254 2394.76,-213.748 2374.6,-169.988 2360.96,-142.899"/>
<polygon fill="black" stroke="black" points="2363.93,-141.02 2356.26,-133.71 2357.7,-144.207 2363.93,-141.02"/>
</g>
<!-- EAID_CE3A3EB5_EC2E_49a5_8DE9_77B3270EBB7E___EAID_27A023F6_F29A_4d21_940B_FF8136BEF61F -->
<g id="node2" class="node"><title>EAID_CE3A3EB5_EC2E_49a5_8DE9_77B3270EBB7E___EAID_27A023F6_F29A_4d21_940B_FF8136BEF61F</title>
<image xlink:href="img/activity_icon.png" width="30px" height="20px" preserveAspectRatio="xMinYMin meet" x="2233.5" y="-348"/>
<text text-anchor="start" x="2199.5" y="-313.8" font-family="Times New Roman,serif" font-weight="bold" font-size="14.00">validate the link</text>
<text text-anchor="start" x="2189.5" y="-299.8" font-family="Times New Roman,serif" font-weight="bold" font-size="14.00">request and display</text>
<text text-anchor="start" x="2188" y="-285.8" font-family="Times New Roman,serif" font-weight="bold" font-size="14.00">project page:404 or</text>
<text text-anchor="start" x="2202.5" y="-271.8" font-family="Times New Roman,serif" font-weight="bold" font-size="14.00">500 error page</text>
</g>
<!-- EAID_CE3A3EB5_EC2E_49a5_8DE9_77B3270EBB7E___EAID_27A023F6_F29A_4d21_940B_FF8136BEF61F&#45;&gt;EAID_F4BDFF6A_0A54_47c3_86DA_13F47DE5E679 -->
<g id="edge17" class="edge"><title>EAID_CE3A3EB5_EC2E_49a5_8DE9_77B3270EBB7E___EAID_27A023F6_F29A_4d21_940B_FF8136BEF61F&#45;&gt;EAID_F4BDFF6A_0A54_47c3_86DA_13F47DE5E679</title>
<path fill="none" stroke="black" stroke-dasharray="5,2" d="M2271.46,-261.854C2290.76,-224.723 2317.43,-173.39 2333.38,-142.71"/>
<polygon fill="black" stroke="black" points="2336.65,-144.005 2338.16,-133.518 2330.44,-140.778 2336.65,-144.005"/>
</g>
<!-- EAID_F4BDFF6A_0A54_47c3_86DA_13F47DE5E679___EAID_CE3A3EB5_EC2E_49a5_8DE9_77B3270EBB7E -->
<g id="node3" class="node"><title>EAID_F4BDFF6A_0A54_47c3_86DA_13F47DE5E679___EAID_CE3A3EB5_EC2E_49a5_8DE9_77B3270EBB7E</title>
<image xlink:href="img/activity_icon.png" width="30px" height="20px" preserveAspectRatio="xMinYMin meet" x="2029" y="-476"/>
<text text-anchor="start" x="1954" y="-441.8" font-family="Times New Roman,serif" font-weight="bold" font-size="14.00">community arts page:validate</text>
<text text-anchor="start" x="1996.5" y="-427.8" font-family="Times New Roman,serif" font-weight="bold" font-size="14.00">the link request</text>
<text text-anchor="start" x="1985.5" y="-413.8" font-family="Times New Roman,serif" font-weight="bold" font-size="14.00">and display project</text>
<text text-anchor="start" x="2029" y="-399.8" font-family="Times New Roman,serif" font-weight="bold" font-size="14.00">page</text>
</g>
<!-- EAID_F4BDFF6A_0A54_47c3_86DA_13F47DE5E679___EAID_CE3A3EB5_EC2E_49a5_8DE9_77B3270EBB7E&#45;&gt;EAID_CE3A3EB5_EC2E_49a5_8DE9_77B3270EBB7E___EAID_27A023F6_F29A_4d21_940B_FF8136BEF61F -->
<g id="edge2" class="edge"><title>EAID_F4BDFF6A_0A54_47c3_86DA_13F47DE5E679___EAID_CE3A3EB5_EC2E_49a5_8DE9_77B3270EBB7E&#45;&gt;EAID_CE3A3EB5_EC2E_49a5_8DE9_77B3270EBB7E___EAID_27A023F6_F29A_4d21_940B_FF8136BEF61F</title>
<path fill="none" stroke="black" d="M2117.07,-389.867C2133.82,-379.524 2151.7,-368.481 2168.69,-357.985"/>
<polygon fill="black" stroke="black" points="2170.82,-360.785 2177.49,-352.552 2167.14,-354.829 2170.82,-360.785"/>
</g>
<!-- EAID_CE3A3EB5_EC2E_49a5_8DE9_77B3270EBB7E___EAID_48F69935_5530_4214_8F94_5B6FCC186190 -->
<g id="node11" class="node"><title>EAID_CE3A3EB5_EC2E_49a5_8DE9_77B3270EBB7E___EAID_48F69935_5530_4214_8F94_5B6FCC186190</title>
<image xlink:href="img/activity_icon.png" width="30px" height="20px" preserveAspectRatio="xMinYMin meet" x="1848.5" y="-341"/>
<text text-anchor="start" x="1814.5" y="-306.8" font-family="Times New Roman,serif" font-weight="bold" font-size="14.00">validate the link</text>
<text text-anchor="start" x="1804.5" y="-292.8" font-family="Times New Roman,serif" font-weight="bold" font-size="14.00">request and display</text>
<text text-anchor="start" x="1772" y="-278.8" font-family="Times New Roman,serif" font-weight="bold" font-size="14.00">project page:project database</text>
</g>
<!-- EAID_F4BDFF6A_0A54_47c3_86DA_13F47DE5E679___EAID_CE3A3EB5_EC2E_49a5_8DE9_77B3270EBB7E&#45;&gt;EAID_CE3A3EB5_EC2E_49a5_8DE9_77B3270EBB7E___EAID_48F69935_5530_4214_8F94_5B6FCC186190 -->
<g id="edge3" class="edge"><title>EAID_F4BDFF6A_0A54_47c3_86DA_13F47DE5E679___EAID_CE3A3EB5_EC2E_49a5_8DE9_77B3270EBB7E&#45;&gt;EAID_CE3A3EB5_EC2E_49a5_8DE9_77B3270EBB7E___EAID_48F69935_5530_4214_8F94_5B6FCC186190</title>
<path fill="none" stroke="black" d="M1979.17,-389.867C1961.91,-377.852 1943.29,-364.891 1926.12,-352.94"/>
<polygon fill="black" stroke="black" points="1928.03,-350.004 1917.82,-347.163 1924.03,-355.749 1928.03,-350.004"/>
</g>
<!-- EAID_CE3A3EB5_EC2E_49a5_8DE9_77B3270EBB7E___EAID_7C70A418_5D0D_4c6d_B1FB_94AA7C79E080 -->
<g id="node13" class="node"><title>EAID_CE3A3EB5_EC2E_49a5_8DE9_77B3270EBB7E___EAID_7C70A418_5D0D_4c6d_B1FB_94AA7C79E080</title>
<image xlink:href="img/activity_icon.png" width="30px" height="20px" preserveAspectRatio="xMinYMin meet" x="2056.5" y="-341"/>
<text text-anchor="start" x="2022.5" y="-306.8" font-family="Times New Roman,serif" font-weight="bold" font-size="14.00">validate the link</text>
<text text-anchor="start" x="2012.5" y="-292.8" font-family="Times New Roman,serif" font-weight="bold" font-size="14.00">request and display</text>
<text text-anchor="start" x="1993" y="-278.8" font-family="Times New Roman,serif" font-weight="bold" font-size="14.00">project page:project page</text>
</g>
<!-- EAID_F4BDFF6A_0A54_47c3_86DA_13F47DE5E679___EAID_CE3A3EB5_EC2E_49a5_8DE9_77B3270EBB7E&#45;&gt;EAID_CE3A3EB5_EC2E_49a5_8DE9_77B3270EBB7E___EAID_7C70A418_5D0D_4c6d_B1FB_94AA7C79E080 -->
<g id="edge4" class="edge"><title>EAID_F4BDFF6A_0A54_47c3_86DA_13F47DE5E679___EAID_CE3A3EB5_EC2E_49a5_8DE9_77B3270EBB7E&#45;&gt;EAID_CE3A3EB5_EC2E_49a5_8DE9_77B3270EBB7E___EAID_7C70A418_5D0D_4c6d_B1FB_94AA7C79E080</title>
<path fill="none" stroke="black" d="M2053.67,-389.867C2055.94,-379.272 2058.37,-367.941 2060.67,-357.217"/>
<polygon fill="black" stroke="black" points="2064.15,-357.675 2062.82,-347.163 2057.3,-356.208 2064.15,-357.675"/>
</g>
<!-- EAID_62418552_4AC1_4a69_935B_9CE2580347B2 -->
<g id="node22" class="node"><title>EAID_62418552_4AC1_4a69_935B_9CE2580347B2</title>
<polygon fill="none" stroke="black" points="1054,-188.5 1054,-209.5 1343,-209.5 1343,-188.5 1054,-188.5"/>
<text text-anchor="start" x="1129" y="-196.3" font-family="Times New Roman,serif" font-weight="bold" font-size="14.00">validatethelinkofimage</text>
<polygon fill="none" stroke="black" points="1054,-167.5 1054,-188.5 1343,-188.5 1343,-167.5 1054,-167.5"/>
<text text-anchor="start" x="1124.5" y="-175.3" font-family="Times New Roman,serif" font-weight="bold" font-size="14.00">validatethelinkofimage()</text>
<polygon fill="none" stroke="black" points="1054,-146.5 1054,-167.5 1343,-167.5 1343,-146.5 1054,-146.5"/>
<text text-anchor="start" x="1095.5" y="-154.3" font-family="Times New Roman,serif" font-weight="bold" font-size="14.00">checkiftheuserisalreadyloggedin()</text>
<polygon fill="none" stroke="black" points="1054,-125.5 1054,-146.5 1343,-146.5 1343,-125.5 1054,-125.5"/>
<text text-anchor="start" x="1100.5" y="-133.3" font-family="Times New Roman,serif" font-weight="bold" font-size="14.00">Invlidnameandpasswordmatch()</text>
<polygon fill="none" stroke="black" points="1054,-104.5 1054,-125.5 1343,-125.5 1343,-104.5 1054,-104.5"/>
<text text-anchor="start" x="1057" y="-112.3" font-family="Times New Roman,serif" font-weight="bold" font-size="14.00">validatethelinkrequestanddisplayprojectpage()</text>
<polygon fill="none" stroke="black" points="1054,-83.5 1054,-104.5 1343,-104.5 1343,-83.5 1054,-83.5"/>
<text text-anchor="start" x="1156" y="-91.3" font-family="Times New Roman,serif" font-weight="bold" font-size="14.00">linkinthebox()</text>
<polygon fill="none" stroke="black" points="1054,-62.5 1054,-83.5 1343,-83.5 1343,-62.5 1054,-62.5"/>
<text text-anchor="start" x="1057" y="-70.3" font-family="Times New Roman,serif" font-weight="bold" font-size="14.00">displaythecorrespondingimageofthenumbnail()</text>
<polygon fill="none" stroke="black" points="1054,-41.5 1054,-62.5 1343,-62.5 1343,-41.5 1054,-41.5"/>
<text text-anchor="start" x="1130" y="-49.3" font-family="Times New Roman,serif" font-weight="bold" font-size="14.00">previousornextimage()</text>
<polygon fill="none" stroke="black" points="1054,-20.5 1054,-41.5 1343,-41.5 1343,-20.5 1054,-20.5"/>
<text text-anchor="start" x="1139.5" y="-28.3" font-family="Times New Roman,serif" font-weight="bold" font-size="14.00">imagesandtextsdb()</text>
<polygon fill="none" stroke="black" points="1052.5,-20 1052.5,-211 1343.5,-211 1343.5,-20 1052.5,-20"/>
</g>
<!-- EAID_F4BDFF6A_0A54_47c3_86DA_13F47DE5E679___EAID_CE3A3EB5_EC2E_49a5_8DE9_77B3270EBB7E&#45;&gt;EAID_62418552_4AC1_4a69_935B_9CE2580347B2 -->
<g id="edge18" class="edge"><title>EAID_F4BDFF6A_0A54_47c3_86DA_13F47DE5E679___EAID_CE3A3EB5_EC2E_49a5_8DE9_77B3270EBB7E&#45;&gt;EAID_62418552_4AC1_4a69_935B_9CE2580347B2</title>
<path fill="none" stroke="black" stroke-dasharray="5,2" d="M1943.99,-420.388C1806.5,-397.465 1554.09,-345.072 1360,-246 1345.92,-238.815 1331.91,-230.287 1318.36,-221.088"/>
<polygon fill="black" stroke="black" points="1320.19,-218.101 1309.98,-215.279 1316.2,-223.854 1320.19,-218.101"/>
</g>
<!-- EAID_9B4DA85B_A6E1_49d0_9906_3C3FF32A4F08___EAID_F4BDFF6A_0A54_47c3_86DA_13F47DE5E679 -->
<g id="node4" class="node"><title>EAID_9B4DA85B_A6E1_49d0_9906_3C3FF32A4F08___EAID_F4BDFF6A_0A54_47c3_86DA_13F47DE5E679</title>
<image xlink:href="img/activity_icon.png" width="30px" height="20px" preserveAspectRatio="xMinYMin meet" x="2002.5" y="-576"/>
<text text-anchor="start" x="1946.5" y="-541.8" font-family="Times New Roman,serif" font-weight="bold" font-size="14.00">display community arts</text>
<text text-anchor="start" x="1937" y="-527.8" font-family="Times New Roman,serif" font-weight="bold" font-size="14.00">page:community arts page</text>
</g>
<!-- EAID_9B4DA85B_A6E1_49d0_9906_3C3FF32A4F08___EAID_F4BDFF6A_0A54_47c3_86DA_13F47DE5E679&#45;&gt;EAID_F4BDFF6A_0A54_47c3_86DA_13F47DE5E679___EAID_CE3A3EB5_EC2E_49a5_8DE9_77B3270EBB7E -->
<g id="edge5" class="edge"><title>EAID_9B4DA85B_A6E1_49d0_9906_3C3FF32A4F08___EAID_F4BDFF6A_0A54_47c3_86DA_13F47DE5E679&#45;&gt;EAID_F4BDFF6A_0A54_47c3_86DA_13F47DE5E679___EAID_CE3A3EB5_EC2E_49a5_8DE9_77B3270EBB7E</title>
<path fill="none" stroke="black" d="M2024.52,-517.802C2026.45,-509.807 2028.58,-500.967 2030.7,-492.155"/>
<polygon fill="black" stroke="black" points="2034.15,-492.806 2033.09,-482.265 2027.34,-491.166 2034.15,-492.806"/>
</g>
<!-- EAID_9B4DA85B_A6E1_49d0_9906_3C3FF32A4F08___EAID_F4BDFF6A_0A54_47c3_86DA_13F47DE5E679&#45;&gt;EAID_F4BDFF6A_0A54_47c3_86DA_13F47DE5E679 -->
<g id="edge19" class="edge"><title>EAID_9B4DA85B_A6E1_49d0_9906_3C3FF32A4F08___EAID_F4BDFF6A_0A54_47c3_86DA_13F47DE5E679&#45;&gt;EAID_F4BDFF6A_0A54_47c3_86DA_13F47DE5E679</title>
<path fill="none" stroke="black" stroke-dasharray="5,2" d="M2107.72,-519.748C2181.62,-490.579 2281.14,-437.866 2328,-354 2365.91,-286.163 2358.41,-189.987 2351.73,-143.599"/>
<polygon fill="black" stroke="black" points="2355.19,-143.053 2350.21,-133.702 2348.27,-144.118 2355.19,-143.053"/>
</g>
<!-- EAID_4172C017_2E3E_4d09_A6C5_E7EDDC7D26E9___EAID_F4BDFF6A_0A54_47c3_86DA_13F47DE5E679 -->
<g id="node5" class="node"><title>EAID_4172C017_2E3E_4d09_A6C5_E7EDDC7D26E9___EAID_F4BDFF6A_0A54_47c3_86DA_13F47DE5E679</title>
<image xlink:href="img/activity_icon.png" width="30px" height="20px" preserveAspectRatio="xMinYMin meet" x="2207.5" y="-569"/>
<text text-anchor="start" x="2136" y="-534.8" font-family="Times New Roman,serif" font-weight="bold" font-size="14.00">Visitor:community arts page</text>
</g>
<!-- EAID_4172C017_2E3E_4d09_A6C5_E7EDDC7D26E9___EAID_F4BDFF6A_0A54_47c3_86DA_13F47DE5E679&#45;&gt;EAID_F4BDFF6A_0A54_47c3_86DA_13F47DE5E679___EAID_CE3A3EB5_EC2E_49a5_8DE9_77B3270EBB7E -->
<g id="edge6" class="edge"><title>EAID_4172C017_2E3E_4d09_A6C5_E7EDDC7D26E9___EAID_F4BDFF6A_0A54_47c3_86DA_13F47DE5E679&#45;&gt;EAID_F4BDFF6A_0A54_47c3_86DA_13F47DE5E679___EAID_CE3A3EB5_EC2E_49a5_8DE9_77B3270EBB7E</title>
<path fill="none" stroke="black" d="M2182.94,-524.421C2165.65,-513.547 2144.66,-500.335 2124.28,-487.512"/>
<polygon fill="black" stroke="black" points="2125.92,-484.411 2115.59,-482.047 2122.19,-490.335 2125.92,-484.411"/>
</g>
<!-- EAID_4172C017_2E3E_4d09_A6C5_E7EDDC7D26E9___EAID_F4BDFF6A_0A54_47c3_86DA_13F47DE5E679&#45;&gt;EAID_F4BDFF6A_0A54_47c3_86DA_13F47DE5E679 -->
<g id="edge20" class="edge"><title>EAID_4172C017_2E3E_4d09_A6C5_E7EDDC7D26E9___EAID_F4BDFF6A_0A54_47c3_86DA_13F47DE5E679&#45;&gt;EAID_F4BDFF6A_0A54_47c3_86DA_13F47DE5E679</title>
<path fill="none" stroke="black" stroke-dasharray="5,2" d="M2310.44,-524.358C2330.4,-514.491 2349.17,-500.829 2361,-482 2429.45,-373.022 2380.75,-207.532 2357.49,-143.299"/>
<polygon fill="black" stroke="black" points="2360.75,-142.041 2353.99,-133.883 2354.19,-144.476 2360.75,-142.041"/>
</g>
<!-- EAID_1EDFAAAC_4F7A_4c43_B2C1_6C30064486E2___EAID_25D758EB_9865_4886_89E1_2AA499AD8384 -->
<g id="node6" class="node"><title>EAID_1EDFAAAC_4F7A_4c43_B2C1_6C30064486E2___EAID_25D758EB_9865_4886_89E1_2AA499AD8384</title>
<image xlink:href="img/activity_icon.png" width="30px" height="20px" preserveAspectRatio="xMinYMin meet" x="1826.5" y="-804"/>
<text text-anchor="start" x="1781.5" y="-769.8" font-family="Times New Roman,serif" font-weight="bold" font-size="14.00">display a dropdown</text>
<text text-anchor="start" x="1781" y="-755.8" font-family="Times New Roman,serif" font-weight="bold" font-size="14.00">list:dropdown list of</text>
<text text-anchor="start" x="1794" y="-741.8" font-family="Times New Roman,serif" font-weight="bold" font-size="14.00">community arts</text>
</g>
<!-- EAID_25D758EB_9865_4886_89E1_2AA499AD8384___EAID_9B4DA85B_A6E1_49d0_9906_3C3FF32A4F08 -->
<g id="node8" class="node"><title>EAID_25D758EB_9865_4886_89E1_2AA499AD8384___EAID_9B4DA85B_A6E1_49d0_9906_3C3FF32A4F08</title>
<image xlink:href="img/activity_icon.png" width="30px" height="20px" preserveAspectRatio="xMinYMin meet" x="1929" y="-690"/>
<text text-anchor="start" x="1894" y="-655.8" font-family="Times New Roman,serif" font-weight="bold" font-size="14.00">dropdown list of</text>
<text text-anchor="start" x="1838" y="-641.8" font-family="Times New Roman,serif" font-weight="bold" font-size="14.00">community arts:display community</text>
<text text-anchor="start" x="1915" y="-627.8" font-family="Times New Roman,serif" font-weight="bold" font-size="14.00">arts page</text>
</g>
<!-- EAID_1EDFAAAC_4F7A_4c43_B2C1_6C30064486E2___EAID_25D758EB_9865_4886_89E1_2AA499AD8384&#45;&gt;EAID_25D758EB_9865_4886_89E1_2AA499AD8384___EAID_9B4DA85B_A6E1_49d0_9906_3C3FF32A4F08 -->
<g id="edge8" class="edge"><title>EAID_1EDFAAAC_4F7A_4c43_B2C1_6C30064486E2___EAID_25D758EB_9865_4886_89E1_2AA499AD8384&#45;&gt;EAID_25D758EB_9865_4886_89E1_2AA499AD8384___EAID_9B4DA85B_A6E1_49d0_9906_3C3FF32A4F08</title>
<path fill="none" stroke="black" d="M1876.16,-731.769C1884.53,-722.669 1893.54,-712.87 1902.17,-703.48"/>
<polygon fill="black" stroke="black" points="1904.81,-705.788 1909,-696.058 1899.65,-701.05 1904.81,-705.788"/>
</g>
<!-- EAID_1EDFAAAC_4F7A_4c43_B2C1_6C30064486E2___EAID_25D758EB_9865_4886_89E1_2AA499AD8384&#45;&gt;EAID_F4BDFF6A_0A54_47c3_86DA_13F47DE5E679 -->
<g id="edge21" class="edge"><title>EAID_1EDFAAAC_4F7A_4c43_B2C1_6C30064486E2___EAID_25D758EB_9865_4886_89E1_2AA499AD8384&#45;&gt;EAID_F4BDFF6A_0A54_47c3_86DA_13F47DE5E679</title>
<path fill="none" stroke="black" stroke-dasharray="5,2" d="M1770.19,-754.617C1734.92,-743.649 1694.13,-725.461 1667,-696 1621.02,-646.062 1619,-618.884 1619,-551 1619,-551 1619,-551 1619,-435 1619,-353.149 1590.41,-306.744 1653,-254 1664.09,-244.655 2161.28,-250.704 2175,-246 2236.6,-224.875 2294.03,-172.519 2324.42,-141.228"/>
<polygon fill="black" stroke="black" points="2327.18,-143.409 2331.55,-133.759 2322.12,-138.575 2327.18,-143.409"/>
</g>
<!-- EAID_2C3289BE_0FBA_4158_99FD_E61347D062E6___EAID_1EDFAAAC_4F7A_4c43_B2C1_6C30064486E2 -->
<g id="node7" class="node"><title>EAID_2C3289BE_0FBA_4158_99FD_E61347D062E6___EAID_1EDFAAAC_4F7A_4c43_B2C1_6C30064486E2</title>
<image xlink:href="img/activity_icon.png" width="30px" height="20px" preserveAspectRatio="xMinYMin meet" x="1836" y="-904"/>
<text text-anchor="start" x="1771" y="-869.8" font-family="Times New Roman,serif" font-weight="bold" font-size="14.00">programs button:display a</text>
<text text-anchor="start" x="1809" y="-855.8" font-family="Times New Roman,serif" font-weight="bold" font-size="14.00">dropdown list</text>
</g>
<!-- EAID_2C3289BE_0FBA_4158_99FD_E61347D062E6___EAID_1EDFAAAC_4F7A_4c43_B2C1_6C30064486E2&#45;&gt;EAID_1EDFAAAC_4F7A_4c43_B2C1_6C30064486E2___EAID_25D758EB_9865_4886_89E1_2AA499AD8384 -->
<g id="edge9" class="edge"><title>EAID_2C3289BE_0FBA_4158_99FD_E61347D062E6___EAID_1EDFAAAC_4F7A_4c43_B2C1_6C30064486E2&#45;&gt;EAID_1EDFAAAC_4F7A_4c43_B2C1_6C30064486E2___EAID_25D758EB_9865_4886_89E1_2AA499AD8384</title>
<path fill="none" stroke="black" d="M1848.03,-845.781C1847.27,-837.786 1846.43,-828.999 1845.61,-820.362"/>
<polygon fill="black" stroke="black" points="1849.08,-819.972 1844.65,-810.348 1842.12,-820.635 1849.08,-819.972"/>
</g>
<!-- EAID_B2874277_22ED_428c_A8F7_099695839728 -->
<g id="node25" class="node"><title>EAID_B2874277_22ED_428c_A8F7_099695839728</title>
<polygon fill="none" stroke="black" points="1379,-188.5 1379,-209.5 1650,-209.5 1650,-188.5 1379,-188.5"/>
<text text-anchor="start" x="1415.5" y="-196.3" font-family="Times New Roman,serif" font-weight="bold" font-size="14.00">displayanewsectionondashboard</text>
<polygon fill="none" stroke="black" points="1379,-167.5 1379,-188.5 1650,-188.5 1650,-167.5 1379,-167.5"/>
<text text-anchor="start" x="1411" y="-175.3" font-family="Times New Roman,serif" font-weight="bold" font-size="14.00">displayanewsectionondashboard()</text>
<polygon fill="none" stroke="black" points="1379,-146.5 1379,-167.5 1650,-167.5 1650,-146.5 1379,-146.5"/>
<text text-anchor="start" x="1425" y="-154.3" font-family="Times New Roman,serif" font-weight="bold" font-size="14.00">Dashboardforaddingimages()</text>
<polygon fill="none" stroke="black" points="1379,-125.5 1379,-146.5 1650,-146.5 1650,-125.5 1379,-125.5"/>
<text text-anchor="start" x="1445" y="-133.3" font-family="Times New Roman,serif" font-weight="bold" font-size="14.00">displayadropdownlist()</text>
<polygon fill="none" stroke="black" points="1379,-104.5 1379,-125.5 1650,-125.5 1650,-104.5 1379,-104.5"/>
<text text-anchor="start" x="1460.5" y="-112.3" font-family="Times New Roman,serif" font-weight="bold" font-size="14.00">projectdatabase()</text>
<polygon fill="none" stroke="black" points="1379,-83.5 1379,-104.5 1650,-104.5 1650,-83.5 1379,-83.5"/>
<text text-anchor="start" x="1430" y="-91.3" font-family="Times New Roman,serif" font-weight="bold" font-size="14.00">displaycorrespondingpage()</text>
<polygon fill="none" stroke="black" points="1379,-62.5 1379,-83.5 1650,-83.5 1650,-62.5 1379,-62.5"/>
<text text-anchor="start" x="1439" y="-70.3" font-family="Times New Roman,serif" font-weight="bold" font-size="14.00">displayaninterativemap()</text>
<polygon fill="none" stroke="black" points="1379,-41.5 1379,-62.5 1650,-62.5 1650,-41.5 1379,-41.5"/>
<text text-anchor="start" x="1382" y="-49.3" font-family="Times New Roman,serif" font-weight="bold" font-size="14.00">displayimagegalleryandprojectdescription()</text>
<polygon fill="none" stroke="black" points="1379,-20.5 1379,-41.5 1650,-41.5 1650,-20.5 1379,-20.5"/>
<text text-anchor="start" x="1424.5" y="-28.3" font-family="Times New Roman,serif" font-weight="bold" font-size="14.00">displaypreviousornextimage()</text>
<polygon fill="none" stroke="black" points="1377.5,-20 1377.5,-211 1650.5,-211 1650.5,-20 1377.5,-20"/>
</g>
<!-- EAID_2C3289BE_0FBA_4158_99FD_E61347D062E6___EAID_1EDFAAAC_4F7A_4c43_B2C1_6C30064486E2&#45;&gt;EAID_B2874277_22ED_428c_A8F7_099695839728 -->
<g id="edge22" class="edge"><title>EAID_2C3289BE_0FBA_4158_99FD_E61347D062E6___EAID_1EDFAAAC_4F7A_4c43_B2C1_6C30064486E2&#45;&gt;EAID_B2874277_22ED_428c_A8F7_099695839728</title>
<path fill="none" stroke="black" stroke-dasharray="5,2" d="M1760.72,-846.433C1682.23,-813.465 1581,-752.608 1581,-658 1581,-658 1581,-658 1581,-435 1581,-363.932 1564.83,-285.819 1548.37,-224.736"/>
<polygon fill="black" stroke="black" points="1551.75,-223.804 1545.73,-215.082 1545,-225.651 1551.75,-223.804"/>
</g>
<!-- EAID_25D758EB_9865_4886_89E1_2AA499AD8384___EAID_9B4DA85B_A6E1_49d0_9906_3C3FF32A4F08&#45;&gt;EAID_9B4DA85B_A6E1_49d0_9906_3C3FF32A4F08___EAID_F4BDFF6A_0A54_47c3_86DA_13F47DE5E679 -->
<g id="edge10" class="edge"><title>EAID_25D758EB_9865_4886_89E1_2AA499AD8384___EAID_9B4DA85B_A6E1_49d0_9906_3C3FF32A4F08&#45;&gt;EAID_9B4DA85B_A6E1_49d0_9906_3C3FF32A4F08___EAID_F4BDFF6A_0A54_47c3_86DA_13F47DE5E679</title>
<path fill="none" stroke="black" d="M1970.56,-617.796C1976.74,-608.908 1983.33,-599.43 1989.55,-590.488"/>
<polygon fill="black" stroke="black" points="1992.53,-592.326 1995.37,-582.117 1986.78,-588.33 1992.53,-592.326"/>
</g>
<!-- EAID_25D758EB_9865_4886_89E1_2AA499AD8384___EAID_9B4DA85B_A6E1_49d0_9906_3C3FF32A4F08&#45;&gt;EAID_F4BDFF6A_0A54_47c3_86DA_13F47DE5E679 -->
<g id="edge23" class="edge"><title>EAID_25D758EB_9865_4886_89E1_2AA499AD8384___EAID_9B4DA85B_A6E1_49d0_9906_3C3FF32A4F08&#45;&gt;EAID_F4BDFF6A_0A54_47c3_86DA_13F47DE5E679</title>
<path fill="none" stroke="black" stroke-dasharray="5,2" d="M1899.96,-617.918C1815.24,-540.316 1646.93,-362.099 1753,-254 1769.42,-237.263 2152.83,-253.646 2175,-246 2236.57,-224.763 2294,-172.447 2324.41,-141.194"/>
<polygon fill="black" stroke="black" points="2327.16,-143.38 2331.55,-133.734 2322.1,-138.542 2327.16,-143.38"/>
</g>
<!-- EAID_4172C017_2E3E_4d09_A6C5_E7EDDC7D26E9___EAID_25D758EB_9865_4886_89E1_2AA499AD8384 -->
<g id="node9" class="node"><title>EAID_4172C017_2E3E_4d09_A6C5_E7EDDC7D26E9___EAID_25D758EB_9865_4886_89E1_2AA499AD8384</title>
<image xlink:href="img/activity_icon.png" width="30px" height="20px" preserveAspectRatio="xMinYMin meet" x="1997.5" y="-797"/>
<text text-anchor="start" x="1940" y="-762.8" font-family="Times New Roman,serif" font-weight="bold" font-size="14.00">Visitor:dropdown list of</text>
<text text-anchor="start" x="1965" y="-748.8" font-family="Times New Roman,serif" font-weight="bold" font-size="14.00">community arts</text>
</g>
<!-- EAID_4172C017_2E3E_4d09_A6C5_E7EDDC7D26E9___EAID_25D758EB_9865_4886_89E1_2AA499AD8384&#45;&gt;EAID_25D758EB_9865_4886_89E1_2AA499AD8384___EAID_9B4DA85B_A6E1_49d0_9906_3C3FF32A4F08 -->
<g id="edge11" class="edge"><title>EAID_4172C017_2E3E_4d09_A6C5_E7EDDC7D26E9___EAID_25D758EB_9865_4886_89E1_2AA499AD8384&#45;&gt;EAID_25D758EB_9865_4886_89E1_2AA499AD8384___EAID_9B4DA85B_A6E1_49d0_9906_3C3FF32A4F08</title>
<path fill="none" stroke="black" d="M1993.06,-738.802C1986.67,-728.28 1979.39,-716.294 1972.43,-704.834"/>
<polygon fill="black" stroke="black" points="1975.38,-702.938 1967.2,-696.206 1969.39,-706.571 1975.38,-702.938"/>
</g>
<!-- EAID_4172C017_2E3E_4d09_A6C5_E7EDDC7D26E9___EAID_25D758EB_9865_4886_89E1_2AA499AD8384&#45;&gt;EAID_F4BDFF6A_0A54_47c3_86DA_13F47DE5E679 -->
<g id="edge24" class="edge"><title>EAID_4172C017_2E3E_4d09_A6C5_E7EDDC7D26E9___EAID_25D758EB_9865_4886_89E1_2AA499AD8384&#45;&gt;EAID_F4BDFF6A_0A54_47c3_86DA_13F47DE5E679</title>
<path fill="none" stroke="black" stroke-dasharray="5,2" d="M1938.64,-738.948C1932.69,-736.557 1926.75,-734.214 1921,-732 1788.23,-680.897 1657,-693.262 1657,-551 1657,-551 1657,-551 1657,-435 1657,-350.526 1647.2,-304.382 1715,-254 1735.52,-238.756 2150.83,-254.316 2175,-246 2236.58,-224.812 2294.01,-172.478 2324.42,-141.209"/>
<polygon fill="black" stroke="black" points="2327.17,-143.393 2331.55,-133.745 2322.11,-138.556 2327.17,-143.393"/>
</g>
<!-- EAID_4172C017_2E3E_4d09_A6C5_E7EDDC7D26E9___EAID_2C3289BE_0FBA_4158_99FD_E61347D062E6 -->
<g id="node10" class="node"><title>EAID_4172C017_2E3E_4d09_A6C5_E7EDDC7D26E9___EAID_2C3289BE_0FBA_4158_99FD_E61347D062E6</title>
<image xlink:href="img/activity_icon.png" width="30px" height="20px" preserveAspectRatio="xMinYMin meet" x="1833" y="-997"/>
<text text-anchor="start" x="1774" y="-962.8" font-family="Times New Roman,serif" font-weight="bold" font-size="14.00">Visitor:programs button</text>
</g>
<!-- EAID_4172C017_2E3E_4d09_A6C5_E7EDDC7D26E9___EAID_2C3289BE_0FBA_4158_99FD_E61347D062E6&#45;&gt;EAID_2C3289BE_0FBA_4158_99FD_E61347D062E6___EAID_1EDFAAAC_4F7A_4c43_B2C1_6C30064486E2 -->
<g id="edge13" class="edge"><title>EAID_4172C017_2E3E_4d09_A6C5_E7EDDC7D26E9___EAID_2C3289BE_0FBA_4158_99FD_E61347D062E6&#45;&gt;EAID_2C3289BE_0FBA_4158_99FD_E61347D062E6___EAID_1EDFAAAC_4F7A_4c43_B2C1_6C30064486E2</title>
<path fill="none" stroke="black" d="M1848.76,-952.27C1849.05,-942.559 1849.4,-931.147 1849.74,-920.257"/>
<polygon fill="black" stroke="black" points="1853.24,-920.152 1850.05,-910.05 1846.25,-919.938 1853.24,-920.152"/>
</g>
<!-- EAID_643B475B_2BDD_4bd2_AE34_987F7CC2ABB7 -->
<g id="node21" class="node"><title>EAID_643B475B_2BDD_4bd2_AE34_987F7CC2ABB7</title>
<polygon fill="none" stroke="black" points="318,-136.5 318,-157.5 445,-157.5 445,-136.5 318,-136.5"/>
<text text-anchor="start" x="333" y="-144.3" font-family="Times New Roman,serif" font-weight="bold" font-size="14.00">NewPostButton</text>
<polygon fill="none" stroke="black" points="318,-115.5 318,-136.5 445,-136.5 445,-115.5 318,-115.5"/>
<text text-anchor="start" x="328.5" y="-123.3" font-family="Times New Roman,serif" font-weight="bold" font-size="14.00">NewPostButton()</text>
<polygon fill="none" stroke="black" points="318,-94.5 318,-115.5 445,-115.5 445,-94.5 318,-94.5"/>
<text text-anchor="start" x="327.5" y="-102.3" font-family="Times New Roman,serif" font-weight="bold" font-size="14.00">programsbutton()</text>
<polygon fill="none" stroke="black" points="318,-73.5 318,-94.5 445,-94.5 445,-73.5 318,-73.5"/>
<text text-anchor="start" x="321" y="-81.3" font-family="Times New Roman,serif" font-weight="bold" font-size="14.00">rightbottombutton()</text>
<polygon fill="none" stroke="black" points="316.5,-72.5 316.5,-158.5 445.5,-158.5 445.5,-72.5 316.5,-72.5"/>
</g>
<!-- EAID_4172C017_2E3E_4d09_A6C5_E7EDDC7D26E9___EAID_2C3289BE_0FBA_4158_99FD_E61347D062E6&#45;&gt;EAID_643B475B_2BDD_4bd2_AE34_987F7CC2ABB7 -->
<g id="edge25" class="edge"><title>EAID_4172C017_2E3E_4d09_A6C5_E7EDDC7D26E9___EAID_2C3289BE_0FBA_4158_99FD_E61347D062E6&#45;&gt;EAID_643B475B_2BDD_4bd2_AE34_987F7CC2ABB7</title>
<path fill="none" stroke="black" stroke-dasharray="5,2" d="M1763.67,-975.732C1539.01,-970.087 943,-939.341 943,-772 943,-772 943,-772 943,-435 943,-205.725 639.723,-392.068 463,-246 438.978,-226.145 419.773,-197.353 406.006,-171.956"/>
<polygon fill="black" stroke="black" points="408.931,-170 401.181,-162.776 402.735,-173.257 408.931,-170"/>
</g>
<!-- EAID_CE3A3EB5_EC2E_49a5_8DE9_77B3270EBB7E___EAID_48F69935_5530_4214_8F94_5B6FCC186190&#45;&gt;EAID_B2874277_22ED_428c_A8F7_099695839728 -->
<g id="edge26" class="edge"><title>EAID_CE3A3EB5_EC2E_49a5_8DE9_77B3270EBB7E___EAID_48F69935_5530_4214_8F94_5B6FCC186190&#45;&gt;EAID_B2874277_22ED_428c_A8F7_099695839728</title>
<path fill="none" stroke="black" stroke-dasharray="5,2" d="M1789.15,-268.937C1775.43,-263.117 1761,-257.795 1747,-254 1712.94,-244.766 1700.5,-259.745 1668,-246 1652.53,-239.46 1637.45,-230.811 1623.14,-221.075"/>
<polygon fill="black" stroke="black" points="1625.01,-218.109 1614.81,-215.225 1620.99,-223.837 1625.01,-218.109"/>
</g>
<!-- EAID_4172C017_2E3E_4d09_A6C5_E7EDDC7D26E9___EAID_7C70A418_5D0D_4c6d_B1FB_94AA7C79E080 -->
<g id="node12" class="node"><title>EAID_4172C017_2E3E_4d09_A6C5_E7EDDC7D26E9___EAID_7C70A418_5D0D_4c6d_B1FB_94AA7C79E080</title>
<image xlink:href="img/activity_icon.png" width="30px" height="20px" preserveAspectRatio="xMinYMin meet" x="2017" y="-997"/>
<text text-anchor="start" x="1971" y="-962.8" font-family="Times New Roman,serif" font-weight="bold" font-size="14.00">Visitor:project page</text>
</g>
<!-- EAID_4172C017_2E3E_4d09_A6C5_E7EDDC7D26E9___EAID_7C70A418_5D0D_4c6d_B1FB_94AA7C79E080&#45;&gt;EAID_F4BDFF6A_0A54_47c3_86DA_13F47DE5E679 -->
<g id="edge27" class="edge"><title>EAID_4172C017_2E3E_4d09_A6C5_E7EDDC7D26E9___EAID_7C70A418_5D0D_4c6d_B1FB_94AA7C79E080&#45;&gt;EAID_F4BDFF6A_0A54_47c3_86DA_13F47DE5E679</title>
<path fill="none" stroke="black" stroke-dasharray="5,2" d="M1963.25,-952.446C1955.78,-950.12 1948.26,-947.918 1941,-946 1754.35,-896.691 1543,-965.055 1543,-772 1543,-772 1543,-772 1543,-435 1543,-349.526 1538.44,-303.668 1608,-254 1633.64,-235.694 2145.19,-256.2 2175,-246 2236.62,-224.913 2294.04,-172.543 2324.43,-141.24"/>
<polygon fill="black" stroke="black" points="2327.19,-143.418 2331.56,-133.767 2322.12,-138.586 2327.19,-143.418"/>
</g>
<!-- EAID_CE3A3EB5_EC2E_49a5_8DE9_77B3270EBB7E___EAID_7C70A418_5D0D_4c6d_B1FB_94AA7C79E080&#45;&gt;EAID_F4BDFF6A_0A54_47c3_86DA_13F47DE5E679 -->
<g id="edge28" class="edge"><title>EAID_CE3A3EB5_EC2E_49a5_8DE9_77B3270EBB7E___EAID_7C70A418_5D0D_4c6d_B1FB_94AA7C79E080&#45;&gt;EAID_F4BDFF6A_0A54_47c3_86DA_13F47DE5E679</title>
<path fill="none" stroke="black" stroke-dasharray="5,2" d="M2138.55,-268.901C2150.83,-261.546 2163.42,-253.72 2175,-246 2226.9,-211.408 2284.21,-166.894 2317.84,-140.087"/>
<polygon fill="black" stroke="black" points="2320.24,-142.651 2325.86,-133.671 2315.86,-137.185 2320.24,-142.651"/>
</g>
<!-- EAID_4172C017_2E3E_4d09_A6C5_E7EDDC7D26E9___EAID_27A023F6_F29A_4d21_940B_FF8136BEF61F_STL -->
<g id="node14" class="node"><title>EAID_4172C017_2E3E_4d09_A6C5_E7EDDC7D26E9___EAID_27A023F6_F29A_4d21_940B_FF8136BEF61F_STL</title>
<image xlink:href="img/stimulus_icon.png" width="30px" height="20px" preserveAspectRatio="xMinYMin meet" x="2205.5" y="-1115"/>
<text text-anchor="start" x="2154" y="-1080.8" font-family="Times New Roman,serif" font-weight="bold" font-size="14.00">stl#Visitor:404 or 500</text>
<text text-anchor="start" x="2187.5" y="-1066.8" font-family="Times New Roman,serif" font-weight="bold" font-size="14.00">error page</text>
</g>
<!-- EAID_4172C017_2E3E_4d09_A6C5_E7EDDC7D26E9___EAID_27A023F6_F29A_4d21_940B_FF8136BEF61F_STL&#45;&gt;EAID_4172C017_2E3E_4d09_A6C5_E7EDDC7D26E9___EAID_27A023F6_F29A_4d21_940B_FF8136BEF61F -->
<g id="edge1" class="edge"><title>EAID_4172C017_2E3E_4d09_A6C5_E7EDDC7D26E9___EAID_27A023F6_F29A_4d21_940B_FF8136BEF61F_STL&#45;&gt;EAID_4172C017_2E3E_4d09_A6C5_E7EDDC7D26E9___EAID_27A023F6_F29A_4d21_940B_FF8136BEF61F</title>
<path fill="none" stroke="black" d="M2224.58,-1056.76C2226.26,-1045.36 2228.18,-1032.29 2229.96,-1020.15"/>
<polygon fill="black" stroke="black" points="2233.42,-1020.64 2231.41,-1010.24 2226.5,-1019.63 2233.42,-1020.64"/>
</g>
<!-- EAID_4172C017_2E3E_4d09_A6C5_E7EDDC7D26E9___EAID_F4BDFF6A_0A54_47c3_86DA_13F47DE5E679_STL -->
<g id="node15" class="node"><title>EAID_4172C017_2E3E_4d09_A6C5_E7EDDC7D26E9___EAID_F4BDFF6A_0A54_47c3_86DA_13F47DE5E679_STL</title>
<image xlink:href="img/stimulus_icon.png" width="30px" height="20px" preserveAspectRatio="xMinYMin meet" x="2612.5" y="-1108"/>
<text text-anchor="start" x="2530" y="-1073.8" font-family="Times New Roman,serif" font-weight="bold" font-size="14.00">stl#Visitor:community arts page</text>
</g>
<!-- EAID_4172C017_2E3E_4d09_A6C5_E7EDDC7D26E9___EAID_F4BDFF6A_0A54_47c3_86DA_13F47DE5E679_STL&#45;&gt;EAID_4172C017_2E3E_4d09_A6C5_E7EDDC7D26E9___EAID_F4BDFF6A_0A54_47c3_86DA_13F47DE5E679 -->
<g id="edge7" class="edge"><title>EAID_4172C017_2E3E_4d09_A6C5_E7EDDC7D26E9___EAID_F4BDFF6A_0A54_47c3_86DA_13F47DE5E679_STL&#45;&gt;EAID_4172C017_2E3E_4d09_A6C5_E7EDDC7D26E9___EAID_F4BDFF6A_0A54_47c3_86DA_13F47DE5E679</title>
<path fill="none" stroke="black" d="M2614.2,-1063.33C2595.53,-1024.98 2563,-948.255 2563,-879 2563,-879 2563,-879 2563,-770 2563,-656.968 2428.71,-599.557 2328.68,-572.47"/>
<polygon fill="black" stroke="black" points="2329.37,-569.032 2318.8,-569.864 2327.58,-575.8 2329.37,-569.032"/>
</g>
<!-- EAID_4172C017_2E3E_4d09_A6C5_E7EDDC7D26E9___EAID_25D758EB_9865_4886_89E1_2AA499AD8384_STL -->
<g id="node16" class="node"><title>EAID_4172C017_2E3E_4d09_A6C5_E7EDDC7D26E9___EAID_25D758EB_9865_4886_89E1_2AA499AD8384_STL</title>
<image xlink:href="img/stimulus_icon.png" width="30px" height="20px" preserveAspectRatio="xMinYMin meet" x="2393" y="-1115"/>
<text text-anchor="start" x="2325" y="-1080.8" font-family="Times New Roman,serif" font-weight="bold" font-size="14.00">stl#Visitor:dropdown list of</text>
<text text-anchor="start" x="2360.5" y="-1066.8" font-family="Times New Roman,serif" font-weight="bold" font-size="14.00">community arts</text>
</g>
<!-- EAID_4172C017_2E3E_4d09_A6C5_E7EDDC7D26E9___EAID_25D758EB_9865_4886_89E1_2AA499AD8384_STL&#45;&gt;EAID_4172C017_2E3E_4d09_A6C5_E7EDDC7D26E9___EAID_25D758EB_9865_4886_89E1_2AA499AD8384 -->
<g id="edge12" class="edge"><title>EAID_4172C017_2E3E_4d09_A6C5_E7EDDC7D26E9___EAID_25D758EB_9865_4886_89E1_2AA499AD8384_STL&#45;&gt;EAID_4172C017_2E3E_4d09_A6C5_E7EDDC7D26E9___EAID_25D758EB_9865_4886_89E1_2AA499AD8384</title>
<path fill="none" stroke="black" d="M2392.06,-1056.8C2375.12,-1025.87 2345.98,-978.536 2311,-946 2246.56,-886.054 2157.92,-837.722 2093.9,-807.35"/>
<polygon fill="black" stroke="black" points="2095.18,-804.084 2084.64,-803 2092.2,-810.42 2095.18,-804.084"/>
</g>
<!-- EAID_4172C017_2E3E_4d09_A6C5_E7EDDC7D26E9___EAID_2C3289BE_0FBA_4158_99FD_E61347D062E6_STL -->
<g id="node17" class="node"><title>EAID_4172C017_2E3E_4d09_A6C5_E7EDDC7D26E9___EAID_2C3289BE_0FBA_4158_99FD_E61347D062E6_STL</title>
<image xlink:href="img/stimulus_icon.png" width="30px" height="20px" preserveAspectRatio="xMinYMin meet" x="1833.5" y="-1108"/>
<text text-anchor="start" x="1764" y="-1073.8" font-family="Times New Roman,serif" font-weight="bold" font-size="14.00">stl#Visitor:programs button</text>
</g>
<!-- EAID_4172C017_2E3E_4d09_A6C5_E7EDDC7D26E9___EAID_2C3289BE_0FBA_4158_99FD_E61347D062E6_STL&#45;&gt;EAID_4172C017_2E3E_4d09_A6C5_E7EDDC7D26E9___EAID_2C3289BE_0FBA_4158_99FD_E61347D062E6 -->
<g id="edge14" class="edge"><title>EAID_4172C017_2E3E_4d09_A6C5_E7EDDC7D26E9___EAID_2C3289BE_0FBA_4158_99FD_E61347D062E6_STL&#45;&gt;EAID_4172C017_2E3E_4d09_A6C5_E7EDDC7D26E9___EAID_2C3289BE_0FBA_4158_99FD_E61347D062E6</title>
<path fill="none" stroke="black" d="M1848,-1063.27C1848,-1048.63 1848,-1029.87 1848,-1013.77"/>
<polygon fill="black" stroke="black" points="1851.5,-1013.64 1848,-1003.64 1844.5,-1013.64 1851.5,-1013.64"/>
</g>
<!-- EAID_4172C017_2E3E_4d09_A6C5_E7EDDC7D26E9___EAID_7C70A418_5D0D_4c6d_B1FB_94AA7C79E080_STL -->
<g id="node18" class="node"><title>EAID_4172C017_2E3E_4d09_A6C5_E7EDDC7D26E9___EAID_7C70A418_5D0D_4c6d_B1FB_94AA7C79E080_STL</title>
<image xlink:href="img/stimulus_icon.png" width="30px" height="20px" preserveAspectRatio="xMinYMin meet" x="2028" y="-1108"/>
<text text-anchor="start" x="1971" y="-1073.8" font-family="Times New Roman,serif" font-weight="bold" font-size="14.00">stl#Visitor:project page</text>
</g>
<!-- EAID_4172C017_2E3E_4d09_A6C5_E7EDDC7D26E9___EAID_7C70A418_5D0D_4c6d_B1FB_94AA7C79E080_STL&#45;&gt;EAID_4172C017_2E3E_4d09_A6C5_E7EDDC7D26E9___EAID_7C70A418_5D0D_4c6d_B1FB_94AA7C79E080 -->
<g id="edge15" class="edge"><title>EAID_4172C017_2E3E_4d09_A6C5_E7EDDC7D26E9___EAID_7C70A418_5D0D_4c6d_B1FB_94AA7C79E080_STL&#45;&gt;EAID_4172C017_2E3E_4d09_A6C5_E7EDDC7D26E9___EAID_7C70A418_5D0D_4c6d_B1FB_94AA7C79E080</title>
<path fill="none" stroke="black" d="M2040.5,-1063.27C2039.03,-1048.63 2037.13,-1029.87 2035.51,-1013.77"/>
<polygon fill="black" stroke="black" points="2038.97,-1013.23 2034.49,-1003.64 2032.01,-1013.94 2038.97,-1013.23"/>
</g>
<!-- EAID_55429B46_A22C_4698_BD31_62B669446C39 -->
<g id="node19" class="node"><title>EAID_55429B46_A22C_4698_BD31_62B669446C39</title>
<polygon fill="none" stroke="black" points="1960,-136.5 1960,-157.5 2154,-157.5 2154,-136.5 1960,-136.5"/>
<text text-anchor="start" x="1967.5" y="-144.3" font-family="Times New Roman,serif" font-weight="bold" font-size="14.00">listofprogramsfortrekkingLA</text>
<polygon fill="none" stroke="black" points="1960,-115.5 1960,-136.5 2154,-136.5 2154,-115.5 1960,-115.5"/>
<text text-anchor="start" x="1963" y="-123.3" font-family="Times New Roman,serif" font-weight="bold" font-size="14.00">listofprogramsfortrekkingLA()</text>
<polygon fill="none" stroke="black" points="1960,-94.5 1960,-115.5 2154,-115.5 2154,-94.5 1960,-94.5"/>
<text text-anchor="start" x="2002" y="-102.3" font-family="Times New Roman,serif" font-weight="bold" font-size="14.00">trekkingLApage()</text>
<polygon fill="none" stroke="black" points="1960,-73.5 1960,-94.5 2154,-94.5 2154,-73.5 1960,-73.5"/>
<text text-anchor="start" x="2003" y="-81.3" font-family="Times New Roman,serif" font-weight="bold" font-size="14.00">programsbutton()</text>
<polygon fill="none" stroke="black" points="1959,-72.5 1959,-158.5 2155,-158.5 2155,-72.5 1959,-72.5"/>
</g>
<!-- EAID_85AC0EDD_D484_4bd7_924B_A66E36E0BEDE -->
<g id="node20" class="node"><title>EAID_85AC0EDD_D484_4bd7_924B_A66E36E0BEDE</title>
<polygon fill="none" stroke="black" points="1686,-136.5 1686,-157.5 1924,-157.5 1924,-136.5 1686,-136.5"/>
<text text-anchor="start" x="1762" y="-144.3" font-family="Times New Roman,serif" font-weight="bold" font-size="14.00">publicpictures</text>
<polygon fill="none" stroke="black" points="1686,-115.5 1686,-136.5 1924,-136.5 1924,-115.5 1686,-115.5"/>
<text text-anchor="start" x="1757.5" y="-123.3" font-family="Times New Roman,serif" font-weight="bold" font-size="14.00">publicpictures()</text>
<polygon fill="none" stroke="black" points="1686,-94.5 1686,-115.5 1924,-115.5 1924,-94.5 1686,-94.5"/>
<text text-anchor="start" x="1689" y="-102.3" font-family="Times New Roman,serif" font-weight="bold" font-size="14.00">Dashboardforaddingfilesandpictures()</text>
<polygon fill="none" stroke="black" points="1686,-73.5 1686,-94.5 1924,-94.5 1924,-73.5 1686,-73.5"/>
<text text-anchor="start" x="1729.5" y="-81.3" font-family="Times New Roman,serif" font-weight="bold" font-size="14.00">Errorinreadingpictures()</text>
<polygon fill="none" stroke="black" points="1685,-72.5 1685,-158.5 1925,-158.5 1925,-72.5 1685,-72.5"/>
</g>
<!-- EAID_F1255745_68BE_41d1_AC61_C754D55BB3D2 -->
<g id="node23" class="node"><title>EAID_F1255745_68BE_41d1_AC61_C754D55BB3D2</title>
<polygon fill="none" stroke="black" points="793,-146.5 793,-167.5 1017,-167.5 1017,-146.5 793,-146.5"/>
<text text-anchor="start" x="882" y="-154.3" font-family="Times New Roman,serif" font-weight="bold" font-size="14.00">Gallery</text>
<polygon fill="none" stroke="black" points="793,-125.5 793,-146.5 1017,-146.5 1017,-125.5 793,-125.5"/>
<text text-anchor="start" x="877.5" y="-133.3" font-family="Times New Roman,serif" font-weight="bold" font-size="14.00">Gallery()</text>
<polygon fill="none" stroke="black" points="793,-104.5 793,-125.5 1017,-125.5 1017,-104.5 793,-104.5"/>
<text text-anchor="start" x="796" y="-112.3" font-family="Times New Roman,serif" font-weight="bold" font-size="14.00">displayanewpageofgalleryartwork()</text>
<polygon fill="none" stroke="black" points="793,-83.5 793,-104.5 1017,-104.5 1017,-83.5 793,-83.5"/>
<text text-anchor="start" x="813" y="-91.3" font-family="Times New Roman,serif" font-weight="bold" font-size="14.00">failinaddingpicturestogallery()</text>
<polygon fill="none" stroke="black" points="793,-62.5 793,-83.5 1017,-83.5 1017,-62.5 793,-62.5"/>
<text text-anchor="start" x="834" y="-70.3" font-family="Times New Roman,serif" font-weight="bold" font-size="14.00">readgaleryfromplugin()</text>
<polygon fill="none" stroke="black" points="792,-62 792,-169 1018,-169 1018,-62 792,-62"/>
</g>
<!-- EAID_6DCB8B9C_CCBD_49a2_88FD_3E778288239B -->
<g id="node24" class="node"><title>EAID_6DCB8B9C_CCBD_49a2_88FD_3E778288239B</title>
<polygon fill="none" stroke="black" points="481,-146.5 481,-167.5 757,-167.5 757,-146.5 481,-146.5"/>
<text text-anchor="start" x="588.5" y="-154.3" font-family="Times New Roman,serif" font-weight="bold" font-size="14.00">Facebook</text>
<polygon fill="none" stroke="black" points="481,-125.5 481,-146.5 757,-146.5 757,-125.5 481,-125.5"/>
<text text-anchor="start" x="584" y="-133.3" font-family="Times New Roman,serif" font-weight="bold" font-size="14.00">Facebook()</text>
<polygon fill="none" stroke="black" points="481,-104.5 481,-125.5 757,-125.5 757,-104.5 481,-104.5"/>
<text text-anchor="start" x="484" y="-112.3" font-family="Times New Roman,serif" font-weight="bold" font-size="14.00">DisplayanewwindowforlogginginFacebook()</text>
<polygon fill="none" stroke="black" points="481,-83.5 481,-104.5 757,-104.5 757,-83.5 481,-83.5"/>
<text text-anchor="start" x="484" y="-91.3" font-family="Times New Roman,serif" font-weight="bold" font-size="14.00">PostpostsaboutprojectonFacebooktimeline()</text>
<polygon fill="none" stroke="black" points="481,-62.5 481,-83.5 757,-83.5 757,-62.5 481,-62.5"/>
<text text-anchor="start" x="494" y="-70.3" font-family="Times New Roman,serif" font-weight="bold" font-size="14.00">sendusernameandpasswordtoFacebook()</text>
<polygon fill="none" stroke="black" points="480,-62 480,-169 758,-169 758,-62 480,-62"/>
</g>
<!-- EAID_344C5563_6B55_41e9_B06F_839BABD96347 -->
<g id="node26" class="node"><title>EAID_344C5563_6B55_41e9_B06F_839BABD96347</title>
<polygon fill="none" stroke="black" points="197,-115.5 197,-136.5 281,-136.5 281,-115.5 197,-115.5"/>
<text text-anchor="start" x="204.5" y="-123.3" font-family="Times New Roman,serif" font-weight="bold" font-size="14.00">choosemap</text>
<polygon fill="none" stroke="black" points="197,-94.5 197,-115.5 281,-115.5 281,-94.5 197,-94.5"/>
<text text-anchor="start" x="200" y="-102.3" font-family="Times New Roman,serif" font-weight="bold" font-size="14.00">choosemap()</text>
<polygon fill="none" stroke="black" points="196,-93.5 196,-137.5 282,-137.5 282,-93.5 196,-93.5"/>
</g>
<!-- EAID_B9B325A5_5546_4005_A086_2C8BBFC07838 -->
<g id="node27" class="node"><title>EAID_B9B325A5_5546_4005_A086_2C8BBFC07838</title>
<polygon fill="none" stroke="black" points="25,-115.5 25,-136.5 161,-136.5 161,-115.5 25,-115.5"/>
<text text-anchor="start" x="32.5" y="-123.3" font-family="Times New Roman,serif" font-weight="bold" font-size="14.00">400or500erorrpage</text>
<polygon fill="none" stroke="black" points="25,-94.5 25,-115.5 161,-115.5 161,-94.5 25,-94.5"/>
<text text-anchor="start" x="28" y="-102.3" font-family="Times New Roman,serif" font-weight="bold" font-size="14.00">400or500erorrpage()</text>
<polygon fill="none" stroke="black" points="24,-93.5 24,-137.5 162,-137.5 162,-93.5 24,-93.5"/>
</g>
</g>
</svg>
