<?xml version="1.0" encoding="UTF-8" standalone="no"?>
<!DOCTYPE svg PUBLIC "-//W3C//DTD SVG 1.1//EN"
 "http://www.w3.org/Graphics/SVG/1.1/DTD/svg11.dtd">
<!-- Generated by graphviz version 2.38.0 (20140413.2041)
 -->
<!-- Title: g Pages: 1 -->
<svg width="396pt" height="332pt"
 viewBox="0.00 0.00 396.32 332.00" xmlns="http://www.w3.org/2000/svg" xmlns:xlink="http://www.w3.org/1999/xlink">
<g id="graph0" class="graph" transform="scale(1 1) rotate(0) translate(4 328)">
<title>g</title>
<polygon fill="white" stroke="none" points="-4,4 -4,-328 392.317,-328 392.317,4 -4,4"/>
<!-- save user account -->
<g id="node1" class="node"><title>save user account</title>
<ellipse fill="none" stroke="black" cx="312.923" cy="-90" rx="75.2868" ry="18"/>
<text text-anchor="middle" x="312.923" y="-86.3" font-family="Times New Roman,serif" font-size="14.00">save user account</text>
</g>
<!-- user profile page -->
<g id="node2" class="node"><title>user profile page</title>
<ellipse fill="none" stroke="black" cx="88.9233" cy="-18" rx="71.4873" ry="18"/>
<text text-anchor="middle" x="88.9233" y="-14.3" font-family="Times New Roman,serif" font-size="14.00">user profile page</text>
</g>
<!-- save user account&#45;&gt;user profile page -->
<g id="edge1" class="edge"><title>save user account&#45;&gt;user profile page</title>
<path fill="none" stroke="black" d="M268.935,-75.2538C232.406,-63.8384 180.342,-47.5684 141.595,-35.46"/>
<polygon fill="black" stroke="black" points="142.638,-32.1189 132.049,-32.4768 140.55,-38.8003 142.638,-32.1189"/>
</g>
<!-- account -->
<g id="node3" class="node"><title>account</title>
<ellipse fill="none" stroke="black" cx="312.923" cy="-18" rx="39.7935" ry="18"/>
<text text-anchor="middle" x="312.923" y="-14.3" font-family="Times New Roman,serif" font-size="14.00">account</text>
</g>
<!-- save user account&#45;&gt;account -->
<g id="edge2" class="edge"><title>save user account&#45;&gt;account</title>
<path fill="none" stroke="black" d="M312.923,-71.6966C312.923,-63.9827 312.923,-54.7125 312.923,-46.1124"/>
<polygon fill="black" stroke="black" points="316.423,-46.1043 312.923,-36.1043 309.423,-46.1044 316.423,-46.1043"/>
</g>
<!-- validate input information -->
<g id="node4" class="node"><title>validate input information</title>
<ellipse fill="none" stroke="black" cx="206.923" cy="-162" rx="102.882" ry="18"/>
<text text-anchor="middle" x="206.923" y="-158.3" font-family="Times New Roman,serif" font-size="14.00">validate input information</text>
</g>
<!-- validate input information&#45;&gt;save user account -->
<g id="edge4" class="edge"><title>validate input information&#45;&gt;save user account</title>
<path fill="none" stroke="black" d="M232.044,-144.411C246.271,-135.016 264.246,-123.146 279.635,-112.983"/>
<polygon fill="black" stroke="black" points="281.933,-115.66 288.349,-107.228 278.075,-109.818 281.933,-115.66"/>
</g>
<!-- invalid input information -->
<g id="node5" class="node"><title>invalid input information</title>
<ellipse fill="none" stroke="black" cx="120.923" cy="-90" rx="98.5829" ry="18"/>
<text text-anchor="middle" x="120.923" y="-86.3" font-family="Times New Roman,serif" font-size="14.00">invalid input information</text>
</g>
<!-- validate input information&#45;&gt;invalid input information -->
<g id="edge3" class="edge"><title>validate input information&#45;&gt;invalid input information</title>
<path fill="none" stroke="black" d="M186.105,-144.055C175.119,-135.113 161.473,-124.005 149.51,-114.268"/>
<polygon fill="black" stroke="black" points="151.515,-111.387 141.55,-107.789 147.096,-116.816 151.515,-111.387"/>
</g>
<!-- Account create page -->
<g id="node6" class="node"><title>Account create page</title>
<ellipse fill="none" stroke="black" cx="197.923" cy="-234" rx="85.2851" ry="18"/>
<text text-anchor="middle" x="197.923" y="-230.3" font-family="Times New Roman,serif" font-size="14.00">Account create page</text>
</g>
<!-- Account create page&#45;&gt;validate input information -->
<g id="edge5" class="edge"><title>Account create page&#45;&gt;validate input information</title>
<path fill="none" stroke="black" d="M200.148,-215.697C201.14,-207.983 202.332,-198.712 203.437,-190.112"/>
<polygon fill="black" stroke="black" points="206.92,-190.469 204.724,-180.104 199.977,-189.576 206.92,-190.469"/>
</g>
<!-- User -->
<g id="node7" class="node"><title>User</title>
<ellipse fill="none" stroke="black" cx="75.9233" cy="-306" rx="27.8951" ry="18"/>
<text text-anchor="middle" x="75.9233" y="-302.3" font-family="Times New Roman,serif" font-size="14.00">User</text>
</g>
<!-- User&#45;&gt;user profile page -->
<g id="edge8" class="edge"><title>User&#45;&gt;user profile page</title>
<path fill="none" stroke="black" d="M64.2864,-289.446C36.8639,-250.746 -26.6212,-147.788 12.9233,-72 20.0576,-58.3269 32.5078,-47.4616 45.2916,-39.2187"/>
<polygon fill="black" stroke="black" points="47.3492,-42.0662 54.1339,-33.9287 43.7555,-36.0592 47.3492,-42.0662"/>
</g>
<!-- User&#45;&gt;invalid input information -->
<g id="edge7" class="edge"><title>User&#45;&gt;invalid input information</title>
<path fill="none" stroke="black" d="M76.0648,-287.699C76.7253,-257.791 79.9564,-194.752 94.9233,-144 97.6193,-134.858 101.788,-125.363 106.003,-116.979"/>
<polygon fill="black" stroke="black" points="109.136,-118.541 110.706,-108.063 102.945,-115.275 109.136,-118.541"/>
</g>
<!-- User&#45;&gt;Account create page -->
<g id="edge6" class="edge"><title>User&#45;&gt;Account create page</title>
<path fill="none" stroke="black" d="M96.0691,-293.441C113.716,-283.315 139.806,-268.346 161.162,-256.092"/>
<polygon fill="black" stroke="black" points="163.055,-259.042 169.987,-251.029 159.571,-252.97 163.055,-259.042"/>
</g>
</g>
</svg>
