<?xml version="1.0" encoding="UTF-8" standalone="no"?>
<!DOCTYPE svg PUBLIC "-//W3C//DTD SVG 1.1//EN"
 "http://www.w3.org/Graphics/SVG/1.1/DTD/svg11.dtd">
<!-- Generated by graphviz version 2.38.0 (20140413.2041)
 -->
<!-- Title: g Pages: 1 -->
<svg width="3649pt" height="389pt"
 viewBox="0.00 0.00 3649.00 389.44" xmlns="http://www.w3.org/2000/svg" xmlns:xlink="http://www.w3.org/1999/xlink">
<g id="graph0" class="graph" transform="scale(1 1) rotate(0) translate(4 385.442)">
<title>g</title>
<polygon fill="white" stroke="none" points="-4,4 -4,-385.442 3645,-385.442 3645,4 -4,4"/>
<!-- EAID_05D22B5E_5E39_46b5_A934_62D816B5EC33 -->
<g id="node1" class="node"><title>EAID_05D22B5E_5E39_46b5_A934_62D816B5EC33</title>
<image xlink:href="img/actor1.png" width="61px" height="90px" preserveAspectRatio="xMinYMin meet" x="10.5" y="-252.156"/>
<text text-anchor="start" x="19" y="-138.956" font-family="Times New Roman,serif" font-size="24.00">User</text>
</g>
<!-- EAID_5B081FBB_04D9_4adb_B481_B2FA80955739 -->
<g id="node2" class="node"><title>EAID_5B081FBB_04D9_4adb_B481_B2FA80955739</title>
<image xlink:href="img/boundary3.png" width="115px" height="67px" preserveAspectRatio="xMinYMin meet" x="1401" y="-335.156"/>
<text text-anchor="start" x="1386" y="-244.956" font-family="Times New Roman,serif" font-size="24.00">Options to post</text>
</g>
<!-- EAID_05D22B5E_5E39_46b5_A934_62D816B5EC33&#45;&gt;EAID_5B081FBB_04D9_4adb_B481_B2FA80955739 -->
<g id="edge1" class="edge"><title>EAID_05D22B5E_5E39_46b5_A934_62D816B5EC33&#45;&gt;EAID_5B081FBB_04D9_4adb_B481_B2FA80955739</title>
<path fill="none" stroke="black" d="M81.2469,-223.063C149.653,-273.064 295.833,-366.156 436,-366.156 436,-366.156 436,-366.156 687,-366.156 969.793,-366.156 1047.36,-410.367 1323,-347.156 1337.23,-343.893 1351.8,-339.086 1365.85,-333.589"/>
<polygon fill="black" stroke="black" points="1367.53,-336.685 1375.48,-329.684 1364.9,-330.198 1367.53,-336.685"/>
</g>
<!-- EAID_199005EE_B70F_4f8d_9D57_715E35B57DCA -->
<g id="node3" class="node"><title>EAID_199005EE_B70F_4f8d_9D57_715E35B57DCA</title>
<image xlink:href="img/boundary3.png" width="115px" height="67px" preserveAspectRatio="xMinYMin meet" x="130.5" y="-198.156"/>
<text text-anchor="start" x="127.5" y="-107.956" font-family="Times New Roman,serif" font-size="24.00">Camera Icon</text>
</g>
<!-- EAID_05D22B5E_5E39_46b5_A934_62D816B5EC33&#45;&gt;EAID_199005EE_B70F_4f8d_9D57_715E35B57DCA -->
<g id="edge2" class="edge"><title>EAID_05D22B5E_5E39_46b5_A934_62D816B5EC33&#45;&gt;EAID_199005EE_B70F_4f8d_9D57_715E35B57DCA</title>
<path fill="none" stroke="black" d="M81.1219,-180.68C89.2502,-178.325 98.0781,-175.768 107.049,-173.17"/>
<polygon fill="black" stroke="black" points="108.182,-176.485 116.814,-170.341 106.235,-169.762 108.182,-176.485"/>
</g>
<!-- EAID_C3A18DC0_2B3C_448e_9CF0_1AFC390718B3 -->
<g id="node4" class="node"><title>EAID_C3A18DC0_2B3C_448e_9CF0_1AFC390718B3</title>
<image xlink:href="img/boundary3.png" width="115px" height="67px" preserveAspectRatio="xMinYMin meet" x="1400.5" y="-153.156"/>
<text text-anchor="start" x="1369" y="-62.9562" font-family="Times New Roman,serif" font-size="24.00">gallery application</text>
</g>
<!-- EAID_05D22B5E_5E39_46b5_A934_62D816B5EC33&#45;&gt;EAID_C3A18DC0_2B3C_448e_9CF0_1AFC390718B3 -->
<g id="edge3" class="edge"><title>EAID_05D22B5E_5E39_46b5_A934_62D816B5EC33&#45;&gt;EAID_C3A18DC0_2B3C_448e_9CF0_1AFC390718B3</title>
<path fill="none" stroke="black" d="M77.2594,-125.908C88.2007,-110.854 101.513,-96.3241 117,-86.1562 238.18,-6.59718 291.037,-18.1562 436,-18.1562 436,-18.1562 436,-18.1562 687,-18.1562 969.793,-18.1562 1048.98,32.7346 1323,-37.1562 1332.77,-39.6481 1342.64,-42.9374 1352.37,-46.7266"/>
<polygon fill="black" stroke="black" points="1351.06,-49.9711 1361.64,-50.503 1353.7,-43.4885 1351.06,-49.9711"/>
</g>
<!-- EAID_359B03EF_8350_49ac_8692_61341F144E1A -->
<g id="node5" class="node"><title>EAID_359B03EF_8350_49ac_8692_61341F144E1A</title>
<image xlink:href="img/boundary3.png" width="115px" height="67px" preserveAspectRatio="xMinYMin meet" x="628.5" y="-240.156"/>
<text text-anchor="start" x="626" y="-149.956" font-family="Times New Roman,serif" font-size="24.00">Camera App</text>
</g>
<!-- EAID_05D22B5E_5E39_46b5_A934_62D816B5EC33&#45;&gt;EAID_359B03EF_8350_49ac_8692_61341F144E1A -->
<g id="edge4" class="edge"><title>EAID_05D22B5E_5E39_46b5_A934_62D816B5EC33&#45;&gt;EAID_359B03EF_8350_49ac_8692_61341F144E1A</title>
<path fill="none" stroke="black" d="M81.0549,-205.24C92.5212,-208.462 105.147,-211.47 117,-213.156 167.257,-220.305 534.535,-220.077 580,-215.156 588.401,-214.247 597.115,-212.94 605.769,-211.404"/>
<polygon fill="black" stroke="black" points="606.695,-214.791 615.877,-209.506 605.403,-207.911 606.695,-214.791"/>
</g>
<!-- EAID_9F240CC7_C239_454c_8E0E_FD2E58546755 -->
<g id="node13" class="node"><title>EAID_9F240CC7_C239_454c_8E0E_FD2E58546755</title>
<image xlink:href="img/control1.png" width="106px" height="75px" preserveAspectRatio="xMinYMin meet" x="1804" y="-339.156"/>
<text text-anchor="start" x="1603.5" y="-240.956" font-family="Times New Roman,serif" font-size="24.00">retrive user&#39;s location and posts the picture at location</text>
</g>
<!-- EAID_5B081FBB_04D9_4adb_B481_B2FA80955739&#45;&gt;EAID_9F240CC7_C239_454c_8E0E_FD2E58546755 -->
<g id="edge13" class="edge"><title>EAID_5B081FBB_04D9_4adb_B481_B2FA80955739&#45;&gt;EAID_9F240CC7_C239_454c_8E0E_FD2E58546755</title>
<path fill="none" stroke="black" d="M1540.67,-287.156C1553.75,-287.156 1567.88,-287.156 1582.65,-287.156"/>
<polygon fill="black" stroke="black" points="1582.98,-290.656 1592.98,-287.156 1582.98,-283.656 1582.98,-290.656"/>
</g>
<!-- EAID_B0171170_639E_41bc_B1C7_1FBD3ECCB43E -->
<g id="node9" class="node"><title>EAID_B0171170_639E_41bc_B1C7_1FBD3ECCB43E</title>
<image xlink:href="img/control1.png" width="106px" height="75px" preserveAspectRatio="xMinYMin meet" x="384" y="-200.156"/>
<text text-anchor="start" x="304" y="-101.956" font-family="Times New Roman,serif" font-size="24.00">Launch Camera Application</text>
</g>
<!-- EAID_199005EE_B70F_4f8d_9D57_715E35B57DCA&#45;&gt;EAID_B0171170_639E_41bc_B1C7_1FBD3ECCB43E -->
<g id="edge9" class="edge"><title>EAID_199005EE_B70F_4f8d_9D57_715E35B57DCA&#45;&gt;EAID_B0171170_639E_41bc_B1C7_1FBD3ECCB43E</title>
<path fill="none" stroke="black" d="M258.101,-149.594C266.308,-149.527 274.91,-149.458 283.717,-149.387"/>
<polygon fill="black" stroke="black" points="283.764,-152.887 293.736,-149.306 283.708,-145.887 283.764,-152.887"/>
</g>
<!-- EAID_7F859566_4C18_49b6_A519_C85A236966E6 -->
<g id="node12" class="node"><title>EAID_7F859566_4C18_49b6_A519_C85A236966E6</title>
<image xlink:href="img/control1.png" width="106px" height="75px" preserveAspectRatio="xMinYMin meet" x="1803.5" y="-157.156"/>
<text text-anchor="start" x="1658.5" y="-58.9562" font-family="Times New Roman,serif" font-size="24.00">shows the picture and text box for caption</text>
</g>
<!-- EAID_C3A18DC0_2B3C_448e_9CF0_1AFC390718B3&#45;&gt;EAID_7F859566_4C18_49b6_A519_C85A236966E6 -->
<g id="edge17" class="edge"><title>EAID_C3A18DC0_2B3C_448e_9CF0_1AFC390718B3&#45;&gt;EAID_7F859566_4C18_49b6_A519_C85A236966E6</title>
<path fill="none" stroke="black" d="M1557.01,-105.156C1582.04,-105.156 1609.96,-105.156 1638.4,-105.156"/>
<polygon fill="black" stroke="black" points="1638.48,-108.656 1648.48,-105.156 1638.48,-101.656 1638.48,-108.656"/>
</g>
<!-- EAID_E4CFEA2B_B423_4a6e_9447_4319CB039B96 -->
<g id="node6" class="node"><title>EAID_E4CFEA2B_B423_4a6e_9447_4319CB039B96</title>
<image xlink:href="img/control1.png" width="106px" height="75px" preserveAspectRatio="xMinYMin meet" x="1005" y="-157.156"/>
<text text-anchor="start" x="907.5" y="-58.9562" font-family="Times New Roman,serif" font-size="24.00">opens up the gallery application</text>
</g>
<!-- EAID_359B03EF_8350_49ac_8692_61341F144E1A&#45;&gt;EAID_E4CFEA2B_B423_4a6e_9447_4319CB039B96 -->
<g id="edge5" class="edge"><title>EAID_359B03EF_8350_49ac_8692_61341F144E1A&#45;&gt;EAID_E4CFEA2B_B423_4a6e_9447_4319CB039B96</title>
<path fill="none" stroke="black" d="M756.067,-175.894C793.216,-167.147 840.807,-155.942 887.104,-145.041"/>
<polygon fill="black" stroke="black" points="888.027,-148.419 896.959,-142.721 886.423,-141.606 888.027,-148.419"/>
</g>
<!-- EAID_DD364112_8A67_4d6b_A1DE_B5FC12D3DED4 -->
<g id="node7" class="node"><title>EAID_DD364112_8A67_4d6b_A1DE_B5FC12D3DED4</title>
<image xlink:href="img/boundary3.png" width="115px" height="67px" preserveAspectRatio="xMinYMin meet" x="2221.5" y="-192.156"/>
<text text-anchor="start" x="2166" y="-101.956" font-family="Times New Roman,serif" font-size="24.00">Event and caption Input</text>
</g>
<!-- EAID_359B03EF_8350_49ac_8692_61341F144E1A&#45;&gt;EAID_DD364112_8A67_4d6b_A1DE_B5FC12D3DED4 -->
<g id="edge6" class="edge"><title>EAID_359B03EF_8350_49ac_8692_61341F144E1A&#45;&gt;EAID_DD364112_8A67_4d6b_A1DE_B5FC12D3DED4</title>
<path fill="none" stroke="black" d="M756.19,-195.134C963.523,-203.213 1597.67,-221.756 2120,-172.156 2128.37,-171.361 2136.97,-170.364 2145.61,-169.224"/>
<polygon fill="black" stroke="black" points="2146.35,-172.656 2155.78,-167.824 2145.4,-165.721 2146.35,-172.656"/>
</g>
<!-- EAID_0FF7670F_A868_4bab_894E_01E9C61AAB41 -->
<g id="node8" class="node"><title>EAID_0FF7670F_A868_4bab_894E_01E9C61AAB41</title>
<image xlink:href="img/control1.png" width="106px" height="75px" preserveAspectRatio="xMinYMin meet" x="1005" y="-331.156"/>
<text text-anchor="start" x="802.5" y="-232.956" font-family="Times New Roman,serif" font-size="24.00">show picture and options to post nearby or to an event</text>
</g>
<!-- EAID_359B03EF_8350_49ac_8692_61341F144E1A&#45;&gt;EAID_0FF7670F_A868_4bab_894E_01E9C61AAB41 -->
<g id="edge7" class="edge"><title>EAID_359B03EF_8350_49ac_8692_61341F144E1A&#45;&gt;EAID_0FF7670F_A868_4bab_894E_01E9C61AAB41</title>
<path fill="none" stroke="black" d="M756.067,-208.418C768.918,-211.444 783.018,-214.764 797.883,-218.264"/>
<polygon fill="black" stroke="black" points="797.219,-221.703 807.755,-220.588 798.824,-214.89 797.219,-221.703"/>
</g>
<!-- EAID_E4CFEA2B_B423_4a6e_9447_4319CB039B96&#45;&gt;EAID_C3A18DC0_2B3C_448e_9CF0_1AFC390718B3 -->
<g id="edge18" class="edge"><title>EAID_E4CFEA2B_B423_4a6e_9447_4319CB039B96&#45;&gt;EAID_C3A18DC0_2B3C_448e_9CF0_1AFC390718B3</title>
<path fill="none" stroke="black" d="M1218,-105.156C1261.94,-105.156 1308.58,-105.156 1348.87,-105.156"/>
<polygon fill="black" stroke="black" points="1348.97,-108.656 1358.97,-105.156 1348.97,-101.656 1348.97,-108.656"/>
</g>
<!-- EAID_40AD25CC_7B83_456e_8814_B5186F8CECF6 -->
<g id="node10" class="node"><title>EAID_40AD25CC_7B83_456e_8814_B5186F8CECF6</title>
<image xlink:href="img/control1.png" width="106px" height="75px" preserveAspectRatio="xMinYMin meet" x="2604" y="-153.156"/>
<text text-anchor="start" x="2448.5" y="-54.9562" font-family="Times New Roman,serif" font-size="24.00">show a text box for user to input event name</text>
</g>
<!-- EAID_DD364112_8A67_4d6b_A1DE_B5FC12D3DED4&#45;&gt;EAID_40AD25CC_7B83_456e_8814_B5186F8CECF6 -->
<g id="edge10" class="edge"><title>EAID_DD364112_8A67_4d6b_A1DE_B5FC12D3DED4&#45;&gt;EAID_40AD25CC_7B83_456e_8814_B5186F8CECF6</title>
<path fill="none" stroke="black" d="M2402.17,-130.166C2410.48,-129.214 2418.99,-128.24 2427.61,-127.253"/>
<polygon fill="black" stroke="black" points="2428.25,-130.703 2437.78,-126.088 2427.45,-123.748 2428.25,-130.703"/>
</g>
<!-- EAID_8E6CD97E_69E3_4339_861C_97A792A870F6 -->
<g id="node11" class="node"><title>EAID_8E6CD97E_69E3_4339_861C_97A792A870F6</title>
<image xlink:href="img/control1.png" width="106px" height="75px" preserveAspectRatio="xMinYMin meet" x="3330" y="-197.156"/>
<text text-anchor="start" x="3266.5" y="-98.9562" font-family="Times New Roman,serif" font-size="24.00">store picture in the event</text>
</g>
<!-- EAID_DD364112_8A67_4d6b_A1DE_B5FC12D3DED4&#45;&gt;EAID_8E6CD97E_69E3_4339_861C_97A792A870F6 -->
<g id="edge11" class="edge"><title>EAID_DD364112_8A67_4d6b_A1DE_B5FC12D3DED4&#45;&gt;EAID_8E6CD97E_69E3_4339_861C_97A792A870F6</title>
<path fill="none" stroke="black" d="M2402.28,-164.591C2414.32,-166.043 2426.38,-167.279 2438,-168.156 2784.57,-194.328 2873.24,-189.616 3220,-166.156 3228.31,-165.594 3236.85,-164.883 3245.46,-164.064"/>
<polygon fill="black" stroke="black" points="3245.97,-167.53 3255.57,-163.057 3245.28,-160.565 3245.97,-167.53"/>
</g>
<!-- EAID_0FF7670F_A868_4bab_894E_01E9C61AAB41&#45;&gt;EAID_5B081FBB_04D9_4adb_B481_B2FA80955739 -->
<g id="edge14" class="edge"><title>EAID_0FF7670F_A868_4bab_894E_01E9C61AAB41&#45;&gt;EAID_5B081FBB_04D9_4adb_B481_B2FA80955739</title>
<path fill="none" stroke="black" d="M1323.2,-284.47C1337.72,-284.762 1351.71,-285.043 1364.83,-285.306"/>
<polygon fill="black" stroke="black" points="1365.09,-288.812 1375.15,-285.513 1365.23,-281.813 1365.09,-288.812"/>
</g>
<!-- EAID_B0171170_639E_41bc_B1C7_1FBD3ECCB43E&#45;&gt;EAID_359B03EF_8350_49ac_8692_61341F144E1A -->
<g id="edge8" class="edge"><title>EAID_B0171170_639E_41bc_B1C7_1FBD3ECCB43E&#45;&gt;EAID_359B03EF_8350_49ac_8692_61341F144E1A</title>
<path fill="none" stroke="black" d="M580.25,-173.496C589.017,-175.058 597.656,-176.597 605.983,-178.08"/>
<polygon fill="black" stroke="black" points="605.515,-181.552 615.974,-179.86 606.742,-174.66 605.515,-181.552"/>
</g>
<!-- EAID_9BA9AD09_6820_4838_B4FF_77B6282164E3 -->
<g id="node16" class="node"><title>EAID_9BA9AD09_6820_4838_B4FF_77B6282164E3</title>
<image xlink:href="img/boundary3.png" width="115px" height="67px" preserveAspectRatio="xMinYMin meet" x="3008.5" y="-151.156"/>
<text text-anchor="start" x="2921.5" y="-60.9562" font-family="Times New Roman,serif" font-size="24.00">text box for user to input name</text>
</g>
<!-- EAID_40AD25CC_7B83_456e_8814_B5186F8CECF6&#45;&gt;EAID_9BA9AD09_6820_4838_B4FF_77B6282164E3 -->
<g id="edge19" class="edge"><title>EAID_40AD25CC_7B83_456e_8814_B5186F8CECF6&#45;&gt;EAID_9BA9AD09_6820_4838_B4FF_77B6282164E3</title>
<path fill="none" stroke="black" d="M2875,-102.225C2883.7,-102.268 2892.37,-102.31 2900.94,-102.352"/>
<polygon fill="black" stroke="black" points="2900.94,-105.852 2910.96,-102.402 2900.97,-98.8525 2900.94,-105.852"/>
</g>
<!-- EAID_E6CB08DD_466B_4c82_8332_5E005F8B4F04 -->
<g id="node14" class="node"><title>EAID_E6CB08DD_466B_4c82_8332_5E005F8B4F04</title>
<image xlink:href="img/activity_icon.png" width="30px" height="20px" preserveAspectRatio="xMinYMin meet" x="3578" y="-170.156"/>
<text text-anchor="start" x="3555" y="-127.956" font-family="Times New Roman,serif" font-weight="bold" font-size="24.00">Picture</text>
</g>
<!-- EAID_8E6CD97E_69E3_4339_861C_97A792A870F6&#45;&gt;EAID_E6CB08DD_466B_4c82_8332_5E005F8B4F04 -->
<g id="edge15" class="edge"><title>EAID_8E6CD97E_69E3_4339_861C_97A792A870F6&#45;&gt;EAID_E6CB08DD_466B_4c82_8332_5E005F8B4F04</title>
<path fill="none" stroke="black" d="M3509.3,-145.156C3518.12,-145.156 3526.74,-145.156 3534.87,-145.156"/>
<polygon fill="black" stroke="black" points="3534.88,-148.656 3544.88,-145.156 3534.88,-141.656 3534.88,-148.656"/>
</g>
<!-- EAID_7F859566_4C18_49b6_A519_C85A236966E6&#45;&gt;EAID_DD364112_8A67_4d6b_A1DE_B5FC12D3DED4 -->
<g id="edge12" class="edge"><title>EAID_7F859566_4C18_49b6_A519_C85A236966E6&#45;&gt;EAID_DD364112_8A67_4d6b_A1DE_B5FC12D3DED4</title>
<path fill="none" stroke="black" d="M2064.67,-124.371C2092.21,-126.925 2119.83,-129.486 2145.62,-131.878"/>
<polygon fill="black" stroke="black" points="2145.51,-135.383 2155.79,-132.822 2146.16,-128.413 2145.51,-135.383"/>
</g>
<!-- EAID_A612D9D0_36E3_4b07_B504_137B70FC7F67 -->
<g id="node15" class="node"><title>EAID_A612D9D0_36E3_4b07_B504_137B70FC7F67</title>
<image xlink:href="img/activity_icon.png" width="30px" height="20px" preserveAspectRatio="xMinYMin meet" x="2264" y="-312.156"/>
<text text-anchor="start" x="2241" y="-269.956" font-family="Times New Roman,serif" font-weight="bold" font-size="24.00">Picture</text>
</g>
<!-- EAID_9F240CC7_C239_454c_8E0E_FD2E58546755&#45;&gt;EAID_A612D9D0_36E3_4b07_B504_137B70FC7F67 -->
<g id="edge16" class="edge"><title>EAID_9F240CC7_C239_454c_8E0E_FD2E58546755&#45;&gt;EAID_A612D9D0_36E3_4b07_B504_137B70FC7F67</title>
<path fill="none" stroke="black" d="M2120.22,-287.156C2157.91,-287.156 2193.19,-287.156 2220.8,-287.156"/>
<polygon fill="black" stroke="black" points="2220.99,-290.656 2230.99,-287.156 2220.99,-283.656 2220.99,-290.656"/>
</g>
<!-- EAID_9BA9AD09_6820_4838_B4FF_77B6282164E3&#45;&gt;EAID_8E6CD97E_69E3_4339_861C_97A792A870F6 -->
<g id="edge20" class="edge"><title>EAID_9BA9AD09_6820_4838_B4FF_77B6282164E3&#45;&gt;EAID_8E6CD97E_69E3_4339_861C_97A792A870F6</title>
<path fill="none" stroke="black" d="M3220.31,-123.664C3228.75,-124.789 3237.2,-125.916 3245.57,-127.032"/>
<polygon fill="black" stroke="black" points="3245.36,-130.535 3255.73,-128.387 3246.28,-123.596 3245.36,-130.535"/>
</g>
</g>
</svg>
