<?xml version="1.0" encoding="UTF-8" standalone="no"?>
<!DOCTYPE svg PUBLIC "-//W3C//DTD SVG 1.1//EN"
 "http://www.w3.org/Graphics/SVG/1.1/DTD/svg11.dtd">
<!-- Generated by graphviz version 2.38.0 (20140413.2041)
 -->
<!-- Title: g Pages: 1 -->
<svg width="980pt" height="670pt"
 viewBox="0.00 0.00 980.00 670.36" xmlns="http://www.w3.org/2000/svg" xmlns:xlink="http://www.w3.org/1999/xlink">
<g id="graph0" class="graph" transform="scale(1 1) rotate(0) translate(4 666.36)">
<title>g</title>
<polygon fill="white" stroke="none" points="-4,4 -4,-666.36 976,-666.36 976,4 -4,4"/>
<!-- EAID_832EEA09_ECA1_4783_AFD6_AD20E0499C0C -->
<g id="node1" class="node"><title>EAID_832EEA09_ECA1_4783_AFD6_AD20E0499C0C</title>
<image xlink:href="img/actor1.png" width="61px" height="90px" preserveAspectRatio="xMinYMin meet" x="10.5" y="-478.86"/>
<text text-anchor="start" x="13.5" y="-365.66" font-family="Times New Roman,serif" font-size="24.00">Actor</text>
</g>
<!-- EAID_2BF60D87_5909_4839_BEB0_C93E15BD7B65 -->
<g id="node2" class="node"><title>EAID_2BF60D87_5909_4839_BEB0_C93E15BD7B65</title>
<image xlink:href="img/boundary3.png" width="115px" height="67px" preserveAspectRatio="xMinYMin meet" x="132.5" y="-391.86"/>
<text text-anchor="start" x="127" y="-301.66" font-family="Times New Roman,serif" font-size="24.00">Event Screen</text>
</g>
<!-- EAID_832EEA09_ECA1_4783_AFD6_AD20E0499C0C&#45;&gt;EAID_2BF60D87_5909_4839_BEB0_C93E15BD7B65 -->
<g id="edge1" class="edge"><title>EAID_832EEA09_ECA1_4783_AFD6_AD20E0499C0C&#45;&gt;EAID_2BF60D87_5909_4839_BEB0_C93E15BD7B65</title>
<path fill="none" stroke="black" d="M81.0273,-398.762C89.4341,-394.487 98.6032,-389.825 107.93,-385.082"/>
<polygon fill="black" stroke="black" points="109.573,-388.173 116.901,-380.521 106.401,-381.934 109.573,-388.173"/>
</g>
<!-- EAID_47C4259D_72DA_486e_86B2_8B3871254FC9 -->
<g id="node3" class="node"><title>EAID_47C4259D_72DA_486e_86B2_8B3871254FC9</title>
<image xlink:href="img/control1.png" width="106px" height="75px" preserveAspectRatio="xMinYMin meet" x="421" y="-520.86"/>
<text text-anchor="start" x="320.5" y="-422.66" font-family="Times New Roman,serif" font-size="24.00">Determine if user is event owner</text>
</g>
<!-- EAID_2BF60D87_5909_4839_BEB0_C93E15BD7B65&#45;&gt;EAID_47C4259D_72DA_486e_86B2_8B3871254FC9 -->
<g id="edge4" class="edge"><title>EAID_2BF60D87_5909_4839_BEB0_C93E15BD7B65&#45;&gt;EAID_47C4259D_72DA_486e_86B2_8B3871254FC9</title>
<path fill="none" stroke="black" d="M263.091,-379.191C275.038,-384.868 287.332,-390.601 299,-395.86 306.602,-399.287 314.412,-402.756 322.313,-406.224"/>
<polygon fill="black" stroke="black" points="321.058,-409.496 331.623,-410.293 323.861,-403.081 321.058,-409.496"/>
</g>
<!-- EAID_AB65307C_7E69_485b_88A9_BDBF747AD57F -->
<g id="node6" class="node"><title>EAID_AB65307C_7E69_485b_88A9_BDBF747AD57F</title>
<image xlink:href="img/control1.png" width="106px" height="75px" preserveAspectRatio="xMinYMin meet" x="420.5" y="-655.86"/>
<text text-anchor="start" x="325.5" y="-557.66" font-family="Times New Roman,serif" font-size="24.00">Display Remaining Event Time</text>
</g>
<!-- EAID_2BF60D87_5909_4839_BEB0_C93E15BD7B65&#45;&gt;EAID_AB65307C_7E69_485b_88A9_BDBF747AD57F -->
<g id="edge6" class="edge"><title>EAID_2BF60D87_5909_4839_BEB0_C93E15BD7B65&#45;&gt;EAID_AB65307C_7E69_485b_88A9_BDBF747AD57F</title>
<path fill="none" stroke="black" d="M209.996,-398.574C227.27,-441.13 256.584,-498.961 299,-535.86 301.643,-538.16 304.373,-540.386 307.177,-542.542"/>
<polygon fill="black" stroke="black" points="305.124,-545.376 315.269,-548.431 309.243,-539.717 305.124,-545.376"/>
</g>
<!-- EAID_24FFCAFE_0AB3_4a9d_8292_D34FE54E5FCD -->
<g id="node7" class="node"><title>EAID_24FFCAFE_0AB3_4a9d_8292_D34FE54E5FCD</title>
<image xlink:href="img/activity_icon.png" width="30px" height="20px" preserveAspectRatio="xMinYMin meet" x="813" y="-283.86"/>
<text text-anchor="start" x="742" y="-241.66" font-family="Times New Roman,serif" font-weight="bold" font-size="24.00">Photo Collection</text>
</g>
<!-- EAID_2BF60D87_5909_4839_BEB0_C93E15BD7B65&#45;&gt;EAID_24FFCAFE_0AB3_4a9d_8292_D34FE54E5FCD -->
<g id="edge7" class="edge"><title>EAID_2BF60D87_5909_4839_BEB0_C93E15BD7B65&#45;&gt;EAID_24FFCAFE_0AB3_4a9d_8292_D34FE54E5FCD</title>
<path fill="none" stroke="black" d="M263.045,-347.407C353.779,-350.349 514.02,-350.466 648,-323.86 681.503,-317.207 717.117,-305.338 747.683,-293.546"/>
<polygon fill="black" stroke="black" points="748.965,-296.803 756.998,-289.895 746.411,-290.286 748.965,-296.803"/>
</g>
<!-- EAID_83E19EDE_3EEA_440d_853B_3FFBD285E1AE -->
<g id="node8" class="node"><title>EAID_83E19EDE_3EEA_440d_853B_3FFBD285E1AE</title>
<image xlink:href="img/control1.png" width="106px" height="75px" preserveAspectRatio="xMinYMin meet" x="421" y="-173.86"/>
<text text-anchor="start" x="351.5" y="-75.6604" font-family="Times New Roman,serif" font-size="24.00">Retrieve Photos for Event</text>
</g>
<!-- EAID_2BF60D87_5909_4839_BEB0_C93E15BD7B65&#45;&gt;EAID_83E19EDE_3EEA_440d_853B_3FFBD285E1AE -->
<g id="edge8" class="edge"><title>EAID_2BF60D87_5909_4839_BEB0_C93E15BD7B65&#45;&gt;EAID_83E19EDE_3EEA_440d_853B_3FFBD285E1AE</title>
<path fill="none" stroke="black" d="M218.284,-289.177C237.083,-256.268 264.813,-215.689 299,-188.86 309.121,-180.918 320.294,-173.825 331.947,-167.509"/>
<polygon fill="black" stroke="black" points="333.686,-170.55 340.942,-162.83 330.456,-164.34 333.686,-170.55"/>
</g>
<!-- EAID_9AA25CDE_67D4_4c10_9EAA_A9DEC39D1432 -->
<g id="node9" class="node"><title>EAID_9AA25CDE_67D4_4c10_9EAA_A9DEC39D1432</title>
<image xlink:href="img/control1.png" width="106px" height="75px" preserveAspectRatio="xMinYMin meet" x="421" y="-308.86"/>
<text text-anchor="start" x="309.5" y="-210.66" font-family="Times New Roman,serif" font-size="24.00">Navigate to Photo Selected Screen</text>
</g>
<!-- EAID_2BF60D87_5909_4839_BEB0_C93E15BD7B65&#45;&gt;EAID_9AA25CDE_67D4_4c10_9EAA_A9DEC39D1432 -->
<g id="edge9" class="edge"><title>EAID_2BF60D87_5909_4839_BEB0_C93E15BD7B65&#45;&gt;EAID_9AA25CDE_67D4_4c10_9EAA_A9DEC39D1432</title>
<path fill="none" stroke="black" d="M263.128,-321.569C271.382,-319.018 280.053,-316.338 288.978,-313.579"/>
<polygon fill="black" stroke="black" points="290.234,-316.855 298.754,-310.558 288.167,-310.167 290.234,-316.855"/>
</g>
<!-- EAID_31B1BF97_309A_4686_9EC9_BD6437BA5C0F -->
<g id="node4" class="node"><title>EAID_31B1BF97_309A_4686_9EC9_BD6437BA5C0F</title>
<image xlink:href="img/activity_icon.png" width="30px" height="20px" preserveAspectRatio="xMinYMin meet" x="813.5" y="-599.86"/>
<text text-anchor="start" x="798" y="-557.66" font-family="Times New Roman,serif" font-weight="bold" font-size="24.00">Event</text>
</g>
<!-- EAID_47C4259D_72DA_486e_86B2_8B3871254FC9&#45;&gt;EAID_31B1BF97_309A_4686_9EC9_BD6437BA5C0F -->
<g id="edge2" class="edge"><title>EAID_47C4259D_72DA_486e_86B2_8B3871254FC9&#45;&gt;EAID_31B1BF97_309A_4686_9EC9_BD6437BA5C0F</title>
<path fill="none" stroke="black" d="M637.079,-517.749C688.072,-533.084 740.601,-548.879 777.453,-559.961"/>
<polygon fill="black" stroke="black" points="776.833,-563.43 787.417,-562.958 778.849,-556.726 776.833,-563.43"/>
</g>
<!-- EAID_E591ECCF_D532_4bd0_9D13_6F1CFCD2C39A -->
<g id="node5" class="node"><title>EAID_E591ECCF_D532_4bd0_9D13_6F1CFCD2C39A</title>
<image xlink:href="img/control1.png" width="106px" height="75px" preserveAspectRatio="xMinYMin meet" x="775.5" y="-461.86"/>
<text text-anchor="start" x="747" y="-363.66" font-family="Times New Roman,serif" font-size="24.00">Hide Edit Button</text>
</g>
<!-- EAID_47C4259D_72DA_486e_86B2_8B3871254FC9&#45;&gt;EAID_E591ECCF_D532_4bd0_9D13_6F1CFCD2C39A -->
<g id="edge3" class="edge"><title>EAID_47C4259D_72DA_486e_86B2_8B3871254FC9&#45;&gt;EAID_E591ECCF_D532_4bd0_9D13_6F1CFCD2C39A</title>
<path fill="none" stroke="black" d="M637.079,-441.649C667.469,-436.562 698.405,-431.384 726.243,-426.725"/>
<polygon fill="black" stroke="black" points="727.067,-430.136 736.352,-425.033 725.911,-423.232 727.067,-430.136"/>
</g>
<!-- EAID_E591ECCF_D532_4bd0_9D13_6F1CFCD2C39A&#45;&gt;EAID_2BF60D87_5909_4839_BEB0_C93E15BD7B65 -->
<g id="edge12" class="edge"><title>EAID_E591ECCF_D532_4bd0_9D13_6F1CFCD2C39A&#45;&gt;EAID_2BF60D87_5909_4839_BEB0_C93E15BD7B65</title>
<path fill="none" stroke="black" d="M736.284,-401.781C631.026,-392.208 452.291,-375.34 299,-357.86 290.696,-356.914 282.04,-355.876 273.401,-354.808"/>
<polygon fill="black" stroke="black" points="273.647,-351.312 263.289,-353.543 272.778,-358.257 273.647,-351.312"/>
</g>
<!-- EAID_AB65307C_7E69_485b_88A9_BDBF747AD57F&#45;&gt;EAID_31B1BF97_309A_4686_9EC9_BD6437BA5C0F -->
<g id="edge5" class="edge"><title>EAID_AB65307C_7E69_485b_88A9_BDBF747AD57F&#45;&gt;EAID_31B1BF97_309A_4686_9EC9_BD6437BA5C0F</title>
<path fill="none" stroke="black" d="M631.678,-590.929C684.204,-586.608 739.017,-582.099 777.16,-578.961"/>
<polygon fill="black" stroke="black" points="777.781,-582.422 787.46,-578.113 777.207,-575.445 777.781,-582.422"/>
</g>
<!-- EAID_83E19EDE_3EEA_440d_853B_3FFBD285E1AE&#45;&gt;EAID_24FFCAFE_0AB3_4a9d_8292_D34FE54E5FCD -->
<g id="edge14" class="edge"><title>EAID_83E19EDE_3EEA_440d_853B_3FFBD285E1AE&#45;&gt;EAID_24FFCAFE_0AB3_4a9d_8292_D34FE54E5FCD</title>
<path fill="none" stroke="black" d="M606.2,-172.651C620.313,-178.114 634.456,-183.597 648,-188.86 677.341,-200.263 709.364,-212.767 738.109,-224.012"/>
<polygon fill="black" stroke="black" points="737.135,-227.39 747.722,-227.775 739.686,-220.871 737.135,-227.39"/>
</g>
<!-- EAID_48854C3E_97AC_41ce_978F_7641887BE8F8 -->
<g id="node10" class="node"><title>EAID_48854C3E_97AC_41ce_978F_7641887BE8F8</title>
<image xlink:href="img/control1.png" width="106px" height="75px" preserveAspectRatio="xMinYMin meet" x="775" y="-130.86"/>
<text text-anchor="start" x="694" y="-32.6604" font-family="Times New Roman,serif" font-size="24.00">Handle photo retrieval error</text>
</g>
<!-- EAID_83E19EDE_3EEA_440d_853B_3FFBD285E1AE&#45;&gt;EAID_48854C3E_97AC_41ce_978F_7641887BE8F8 -->
<g id="edge13" class="edge"><title>EAID_83E19EDE_3EEA_440d_853B_3FFBD285E1AE&#45;&gt;EAID_48854C3E_97AC_41ce_978F_7641887BE8F8</title>
<path fill="none" stroke="black" d="M606.009,-105.818C628.164,-103.116 651.33,-100.29 673.975,-97.5273"/>
<polygon fill="black" stroke="black" points="674.486,-100.991 683.989,-96.3058 673.639,-94.0425 674.486,-100.991"/>
</g>
<!-- EAID_48854C3E_97AC_41ce_978F_7641887BE8F8&#45;&gt;EAID_2BF60D87_5909_4839_BEB0_C93E15BD7B65 -->
<g id="edge10" class="edge"><title>EAID_48854C3E_97AC_41ce_978F_7641887BE8F8&#45;&gt;EAID_2BF60D87_5909_4839_BEB0_C93E15BD7B65</title>
<path fill="none" stroke="black" d="M683.929,-27.8926C569.589,3.16452 410.545,23.6278 299,-53.8604 226.289,-104.372 202.436,-210.02 194.67,-278.89"/>
<polygon fill="black" stroke="black" points="191.151,-278.884 193.596,-289.193 198.114,-279.609 191.151,-278.884"/>
</g>
<!-- EAID_C12EB1CC_0086_4c02_832E_8D77F3AE6755 -->
<g id="node11" class="node"><title>EAID_C12EB1CC_0086_4c02_832E_8D77F3AE6755</title>
<image xlink:href="img/actor1.png" width="61px" height="90px" preserveAspectRatio="xMinYMin meet" x="10.5" y="-328.86"/>
<text text-anchor="start" x="19" y="-215.66" font-family="Times New Roman,serif" font-size="24.00">User</text>
</g>
<!-- EAID_C12EB1CC_0086_4c02_832E_8D77F3AE6755&#45;&gt;EAID_2BF60D87_5909_4839_BEB0_C93E15BD7B65 -->
<g id="edge11" class="edge"><title>EAID_C12EB1CC_0086_4c02_832E_8D77F3AE6755&#45;&gt;EAID_2BF60D87_5909_4839_BEB0_C93E15BD7B65</title>
<path fill="none" stroke="black" d="M81.0273,-288.959C89.4341,-293.234 98.6032,-297.896 107.93,-302.638"/>
<polygon fill="black" stroke="black" points="106.401,-305.787 116.901,-307.2 109.573,-299.547 106.401,-305.787"/>
</g>
</g>
</svg>
