<?xml version="1.0" encoding="UTF-8" standalone="no"?>
<!DOCTYPE svg PUBLIC "-//W3C//DTD SVG 1.1//EN"
 "http://www.w3.org/Graphics/SVG/1.1/DTD/svg11.dtd">
<!-- Generated by graphviz version 2.38.0 (20140413.2041)
 -->
<!-- Title: g Pages: 1 -->
<svg width="4482pt" height="369pt"
 viewBox="0.00 0.00 4482.00 368.57" xmlns="http://www.w3.org/2000/svg" xmlns:xlink="http://www.w3.org/1999/xlink">
<g id="graph0" class="graph" transform="scale(1 1) rotate(0) translate(4 364.567)">
<title>g</title>
<polygon fill="white" stroke="none" points="-4,4 -4,-364.567 4478,-364.567 4478,4 -4,4"/>
<!-- EAID_04C09410_B42E_474a_B2AA_15B1AB0423AE -->
<g id="node1" class="node"><title>EAID_04C09410_B42E_474a_B2AA_15B1AB0423AE</title>
<image xlink:href="img/actor1.png" width="82px" height="90px" preserveAspectRatio="xMinYMin meet" x="76" y="-181"/>
<text text-anchor="start" x="10" y="-67.8" font-family="Times New Roman,serif" font-size="24.00">Transport Coordinator</text>
</g>
<!-- EAID_11290E27_714F_4eb9_BCAE_4017C04744A7 -->
<g id="node2" class="node"><title>EAID_11290E27_714F_4eb9_BCAE_4017C04744A7</title>
<image xlink:href="img/boundary3.png" width="115px" height="67px" preserveAspectRatio="xMinYMin meet" x="417.5" y="-254"/>
<text text-anchor="start" x="280.5" y="-163.8" font-family="Times New Roman,serif" font-size="24.00">&quot;Manage buildings/hubs/disasters&quot; button</text>
</g>
<!-- EAID_04C09410_B42E_474a_B2AA_15B1AB0423AE&#45;&gt;EAID_11290E27_714F_4eb9_BCAE_4017C04744A7 -->
<g id="edge1" class="edge"><title>EAID_04C09410_B42E_474a_B2AA_15B1AB0423AE&#45;&gt;EAID_11290E27_714F_4eb9_BCAE_4017C04744A7</title>
<path fill="none" stroke="black" d="M234.404,-148.832C242.79,-150.837 251.384,-152.892 260.097,-154.975"/>
<polygon fill="black" stroke="black" points="259.441,-158.417 269.981,-157.339 261.069,-151.609 259.441,-158.417"/>
</g>
<!-- EAID_04E784B4_2235_4233_A007_D20D4EDF1D0F -->
<g id="node3" class="node"><title>EAID_04E784B4_2235_4233_A007_D20D4EDF1D0F</title>
<image xlink:href="img/boundary3.png" width="115px" height="67px" preserveAspectRatio="xMinYMin meet" x="1469.5" y="-302"/>
<text text-anchor="start" x="1331.5" y="-211.8" font-family="Times New Roman,serif" font-size="24.00">Management buildings/hub/disasters page</text>
</g>
<!-- EAID_04C09410_B42E_474a_B2AA_15B1AB0423AE&#45;&gt;EAID_04E784B4_2235_4233_A007_D20D4EDF1D0F -->
<g id="edge2" class="edge"><title>EAID_04C09410_B42E_474a_B2AA_15B1AB0423AE&#45;&gt;EAID_04E784B4_2235_4233_A007_D20D4EDF1D0F</title>
<path fill="none" stroke="black" d="M166.211,-187.219C192.918,-218.226 228.997,-252.013 270,-269 612.109,-410.736 1053.04,-357.759 1310.99,-306.073"/>
<polygon fill="black" stroke="black" points="1311.74,-309.492 1320.84,-304.081 1310.35,-302.631 1311.74,-309.492"/>
</g>
<!-- EAID_1AEA2E6E_AE68_4961_BE54_BB257A37E07D -->
<g id="node4" class="node"><title>EAID_1AEA2E6E_AE68_4961_BE54_BB257A37E07D</title>
<image xlink:href="img/boundary3.png" width="115px" height="67px" preserveAspectRatio="xMinYMin meet" x="4235.5" y="-118"/>
<text text-anchor="start" x="4121.5" y="-27.8" font-family="Times New Roman,serif" font-size="24.00">Manage bildings/hubs/disasters page</text>
</g>
<!-- EAID_04C09410_B42E_474a_B2AA_15B1AB0423AE&#45;&gt;EAID_1AEA2E6E_AE68_4961_BE54_BB257A37E07D -->
<g id="edge3" class="edge"><title>EAID_04C09410_B42E_474a_B2AA_15B1AB0423AE&#45;&gt;EAID_1AEA2E6E_AE68_4961_BE54_BB257A37E07D</title>
<path fill="none" stroke="black" d="M234.358,-93.7112C246.363,-91.2744 258.406,-88.9833 270,-87 591.627,-31.9822 672.701,-0 999,-0 999,-0 999,-0 3281,-0 3566.99,-0 3897.43,-28.2499 4100.42,-48.857"/>
<polygon fill="black" stroke="black" points="4100.29,-52.3615 4110.59,-49.8939 4101,-45.3976 4100.29,-52.3615"/>
</g>
<!-- EAID_FBF2BB5C_47C6_45f3_88BF_FFB19FA319CE -->
<g id="node5" class="node"><title>EAID_FBF2BB5C_47C6_45f3_88BF_FFB19FA319CE</title>
<image xlink:href="img/boundary3.png" width="115px" height="67px" preserveAspectRatio="xMinYMin meet" x="3222.5" y="-131"/>
<text text-anchor="start" x="3150" y="-40.8" font-family="Times New Roman,serif" font-size="24.00">null input informaiton error</text>
</g>
<!-- EAID_04C09410_B42E_474a_B2AA_15B1AB0423AE&#45;&gt;EAID_FBF2BB5C_47C6_45f3_88BF_FFB19FA319CE -->
<g id="edge4" class="edge"><title>EAID_04C09410_B42E_474a_B2AA_15B1AB0423AE&#45;&gt;EAID_FBF2BB5C_47C6_45f3_88BF_FFB19FA319CE</title>
<path fill="none" stroke="black" d="M234.082,-112.801C402.524,-101.63 724.58,-83 999,-83 999,-83 999,-83 2507,-83 2723.56,-83 2974.29,-83 3129.78,-83"/>
<polygon fill="black" stroke="black" points="3129.89,-86.5001 3139.89,-83 3129.89,-79.5001 3129.89,-86.5001"/>
</g>
<!-- EAID_904D6466_7D12_475f_9348_31DA930CC69C -->
<g id="node6" class="node"><title>EAID_904D6466_7D12_475f_9348_31DA930CC69C</title>
<image xlink:href="img/boundary3.png" width="115px" height="67px" preserveAspectRatio="xMinYMin meet" x="2448.5" y="-218"/>
<text text-anchor="start" x="2322" y="-127.8" font-family="Times New Roman,serif" font-size="24.00">update building/hub/disaster form page</text>
</g>
<!-- EAID_04C09410_B42E_474a_B2AA_15B1AB0423AE&#45;&gt;EAID_904D6466_7D12_475f_9348_31DA930CC69C -->
<g id="edge5" class="edge"><title>EAID_04C09410_B42E_474a_B2AA_15B1AB0423AE&#45;&gt;EAID_904D6466_7D12_475f_9348_31DA930CC69C</title>
<path fill="none" stroke="black" d="M234.151,-121C402.677,-121 724.835,-121 999,-121 999,-121 999,-121 1527.5,-121 1860.31,-121 1944.09,-118.603 2276,-143 2284.39,-143.617 2292.95,-144.315 2301.59,-145.076"/>
<polygon fill="black" stroke="black" points="2301.5,-148.581 2311.77,-145.997 2302.13,-141.61 2301.5,-148.581"/>
</g>
<!-- EAID_30167AB3_5505_4c2a_BB34_5BFCDF0FB366 -->
<g id="node7" class="node"><title>EAID_30167AB3_5505_4c2a_BB34_5BFCDF0FB366</title>
<image xlink:href="img/control1.png" width="106px" height="75px" preserveAspectRatio="xMinYMin meet" x="947" y="-260"/>
<text text-anchor="start" x="725" y="-161.8" font-family="Times New Roman,serif" font-size="24.00">Redirects to the management buildings/hubs/disasters page</text>
</g>
<!-- EAID_11290E27_714F_4eb9_BCAE_4017C04744A7&#45;&gt;EAID_30167AB3_5505_4c2a_BB34_5BFCDF0FB366 -->
<g id="edge6" class="edge"><title>EAID_11290E27_714F_4eb9_BCAE_4017C04744A7&#45;&gt;EAID_30167AB3_5505_4c2a_BB34_5BFCDF0FB366</title>
<path fill="none" stroke="black" d="M679.023,-206.778C687.488,-206.81 696.038,-206.843 704.636,-206.875"/>
<polygon fill="black" stroke="black" points="704.736,-210.376 714.749,-206.914 704.763,-203.376 704.736,-210.376"/>
</g>
<!-- EAID_E692E562_AC9A_49d2_8721_3E5C65E85A56 -->
<g id="node8" class="node"><title>EAID_E692E562_AC9A_49d2_8721_3E5C65E85A56</title>
<image xlink:href="img/control1.png" width="106px" height="75px" preserveAspectRatio="xMinYMin meet" x="2453.5" y="-353"/>
<text text-anchor="start" x="2351" y="-254.8" font-family="Times New Roman,serif" font-size="24.00">Delete records from the database</text>
</g>
<!-- EAID_04E784B4_2235_4233_A007_D20D4EDF1D0F&#45;&gt;EAID_E692E562_AC9A_49d2_8721_3E5C65E85A56 -->
<g id="edge8" class="edge"><title>EAID_04E784B4_2235_4233_A007_D20D4EDF1D0F&#45;&gt;EAID_E692E562_AC9A_49d2_8721_3E5C65E85A56</title>
<path fill="none" stroke="black" d="M1732.1,-275.376C1744.24,-276.347 1756.28,-277.233 1768,-278 1959.99,-290.561 2180.58,-296.3 2330.01,-298.899"/>
<polygon fill="black" stroke="black" points="2330.14,-302.401 2340.19,-299.073 2330.26,-295.402 2330.14,-302.401"/>
</g>
<!-- EAID_71585D1E_1CC9_4fc5_B055_3AF6D60DD303 -->
<g id="node11" class="node"><title>EAID_71585D1E_1CC9_4fc5_B055_3AF6D60DD303</title>
<image xlink:href="img/control1.png" width="106px" height="75px" preserveAspectRatio="xMinYMin meet" x="1969" y="-263"/>
<text text-anchor="start" x="1778" y="-164.8" font-family="Times New Roman,serif" font-size="24.00">Redirects to update building/hub/disaster form page</text>
</g>
<!-- EAID_04E784B4_2235_4233_A007_D20D4EDF1D0F&#45;&gt;EAID_71585D1E_1CC9_4fc5_B055_3AF6D60DD303 -->
<g id="edge10" class="edge"><title>EAID_04E784B4_2235_4233_A007_D20D4EDF1D0F&#45;&gt;EAID_71585D1E_1CC9_4fc5_B055_3AF6D60DD303</title>
<path fill="none" stroke="black" d="M1732.14,-236.169C1740.62,-235.43 1749.16,-234.686 1757.73,-233.939"/>
<polygon fill="black" stroke="black" points="1758.15,-237.416 1767.81,-233.062 1757.54,-230.443 1758.15,-237.416"/>
</g>
<!-- EAID_15A00C31_1BAD_4a9c_A0B4_1E2350367816 -->
<g id="node13" class="node"><title>EAID_15A00C31_1BAD_4a9c_A0B4_1E2350367816</title>
<image xlink:href="img/control1.png" width="106px" height="75px" preserveAspectRatio="xMinYMin meet" x="2843" y="-222"/>
<text text-anchor="start" x="2746.5" y="-123.8" font-family="Times New Roman,serif" font-size="24.00">Validates input as being correct</text>
</g>
<!-- EAID_904D6466_7D12_475f_9348_31DA930CC69C&#45;&gt;EAID_15A00C31_1BAD_4a9c_A0B4_1E2350367816 -->
<g id="edge17" class="edge"><title>EAID_904D6466_7D12_475f_9348_31DA930CC69C&#45;&gt;EAID_15A00C31_1BAD_4a9c_A0B4_1E2350367816</title>
<path fill="none" stroke="black" d="M2700.18,-170C2708.67,-170 2717.17,-170 2725.59,-170"/>
<polygon fill="black" stroke="black" points="2725.84,-173.5 2735.84,-170 2725.84,-166.5 2725.84,-173.5"/>
</g>
<!-- EAID_30167AB3_5505_4c2a_BB34_5BFCDF0FB366&#45;&gt;EAID_04E784B4_2235_4233_A007_D20D4EDF1D0F -->
<g id="edge11" class="edge"><title>EAID_30167AB3_5505_4c2a_BB34_5BFCDF0FB366&#45;&gt;EAID_04E784B4_2235_4233_A007_D20D4EDF1D0F</title>
<path fill="none" stroke="black" d="M1285.12,-232.918C1293.79,-233.678 1302.42,-234.435 1310.98,-235.186"/>
<polygon fill="black" stroke="black" points="1310.73,-238.678 1321,-236.065 1311.34,-231.704 1310.73,-238.678"/>
</g>
<!-- EAID_50473B2C_F176_4501_9926_F86720F0FF38 -->
<g id="node9" class="node"><title>EAID_50473B2C_F176_4501_9926_F86720F0FF38</title>
<image xlink:href="img/activity_icon.png" width="30px" height="20px" preserveAspectRatio="xMinYMin meet" x="3775.5" y="-282"/>
<text text-anchor="start" x="3671" y="-239.8" font-family="Times New Roman,serif" font-weight="bold" font-size="24.00">builds/hubs/diasters db</text>
</g>
<!-- EAID_E692E562_AC9A_49d2_8721_3E5C65E85A56&#45;&gt;EAID_50473B2C_F176_4501_9926_F86720F0FF38 -->
<g id="edge7" class="edge"><title>EAID_E692E562_AC9A_49d2_8721_3E5C65E85A56&#45;&gt;EAID_50473B2C_F176_4501_9926_F86720F0FF38</title>
<path fill="none" stroke="black" d="M2671.78,-300.281C2863.44,-298.817 3189.3,-294.386 3469,-281 3528.45,-278.155 3594.01,-273.504 3650.23,-269.051"/>
<polygon fill="black" stroke="black" points="3650.56,-272.536 3660.25,-268.252 3650.01,-265.558 3650.56,-272.536"/>
</g>
<!-- EAID_CF8F5163_2478_4db7_AD2D_329824978486 -->
<g id="node10" class="node"><title>EAID_CF8F5163_2478_4db7_AD2D_329824978486</title>
<image xlink:href="img/control1.png" width="106px" height="75px" preserveAspectRatio="xMinYMin meet" x="3737" y="-192"/>
<text text-anchor="start" x="3515" y="-93.8" font-family="Times New Roman,serif" font-size="24.00">Redirects to the management buildings/hubs/disasters page</text>
</g>
<!-- EAID_CF8F5163_2478_4db7_AD2D_329824978486&#45;&gt;EAID_1AEA2E6E_AE68_4961_BE54_BB257A37E07D -->
<g id="edge9" class="edge"><title>EAID_CF8F5163_2478_4db7_AD2D_329824978486&#45;&gt;EAID_1AEA2E6E_AE68_4961_BE54_BB257A37E07D</title>
<path fill="none" stroke="black" d="M4075.25,-100.245C4083.88,-99.0378 4092.46,-97.8382 4100.94,-96.6523"/>
<polygon fill="black" stroke="black" points="4101.42,-100.118 4110.84,-95.2666 4100.46,-93.1856 4101.42,-100.118"/>
</g>
<!-- EAID_71585D1E_1CC9_4fc5_B055_3AF6D60DD303&#45;&gt;EAID_904D6466_7D12_475f_9348_31DA930CC69C -->
<g id="edge13" class="edge"><title>EAID_71585D1E_1CC9_4fc5_B055_3AF6D60DD303&#45;&gt;EAID_904D6466_7D12_475f_9348_31DA930CC69C</title>
<path fill="none" stroke="black" d="M2276.35,-189.449C2284.83,-188.729 2293.28,-188.009 2301.67,-187.296"/>
<polygon fill="black" stroke="black" points="2302.2,-190.763 2311.87,-186.428 2301.61,-183.788 2302.2,-190.763"/>
</g>
<!-- EAID_3CB258DE_182C_4071_B1CF_62121B32F5A8 -->
<g id="node12" class="node"><title>EAID_3CB258DE_182C_4071_B1CF_62121B32F5A8</title>
<image xlink:href="img/control1.png" width="106px" height="75px" preserveAspectRatio="xMinYMin meet" x="3227" y="-266"/>
<text text-anchor="start" x="3101" y="-167.8" font-family="Times New Roman,serif" font-size="24.00">System updates record in the database</text>
</g>
<!-- EAID_3CB258DE_182C_4071_B1CF_62121B32F5A8&#45;&gt;EAID_50473B2C_F176_4501_9926_F86720F0FF38 -->
<g id="edge14" class="edge"><title>EAID_3CB258DE_182C_4071_B1CF_62121B32F5A8&#45;&gt;EAID_50473B2C_F176_4501_9926_F86720F0FF38</title>
<path fill="none" stroke="black" d="M3469.08,-229.92C3529.05,-234.996 3594.29,-240.518 3650.12,-245.244"/>
<polygon fill="black" stroke="black" points="3650.17,-248.761 3660.43,-246.117 3650.76,-241.786 3650.17,-248.761"/>
</g>
<!-- EAID_3CB258DE_182C_4071_B1CF_62121B32F5A8&#45;&gt;EAID_CF8F5163_2478_4db7_AD2D_329824978486 -->
<g id="edge12" class="edge"><title>EAID_3CB258DE_182C_4071_B1CF_62121B32F5A8&#45;&gt;EAID_CF8F5163_2478_4db7_AD2D_329824978486</title>
<path fill="none" stroke="black" d="M3469.08,-186.603C3477.5,-185.375 3486.03,-184.133 3494.63,-182.881"/>
<polygon fill="black" stroke="black" points="3495.35,-186.312 3504.74,-181.407 3494.34,-179.386 3495.35,-186.312"/>
</g>
<!-- EAID_15A00C31_1BAD_4a9c_A0B4_1E2350367816&#45;&gt;EAID_FBF2BB5C_47C6_45f3_88BF_FFB19FA319CE -->
<g id="edge16" class="edge"><title>EAID_15A00C31_1BAD_4a9c_A0B4_1E2350367816&#45;&gt;EAID_FBF2BB5C_47C6_45f3_88BF_FFB19FA319CE</title>
<path fill="none" stroke="black" d="M3055.11,-133.923C3079.85,-128.298 3105.33,-122.502 3129.84,-116.927"/>
<polygon fill="black" stroke="black" points="3130.94,-120.267 3139.91,-114.636 3129.38,-113.441 3130.94,-120.267"/>
</g>
<!-- EAID_15A00C31_1BAD_4a9c_A0B4_1E2350367816&#45;&gt;EAID_3CB258DE_182C_4071_B1CF_62121B32F5A8 -->
<g id="edge15" class="edge"><title>EAID_15A00C31_1BAD_4a9c_A0B4_1E2350367816&#45;&gt;EAID_3CB258DE_182C_4071_B1CF_62121B32F5A8</title>
<path fill="none" stroke="black" d="M3055.11,-188.246C3063.6,-189.222 3072.18,-190.209 3080.78,-191.198"/>
<polygon fill="black" stroke="black" points="3080.54,-194.693 3090.87,-192.359 3081.34,-187.739 3080.54,-194.693"/>
</g>
</g>
</svg>
