<?xml version="1.0" encoding="UTF-8" standalone="no"?>
<!DOCTYPE svg PUBLIC "-//W3C//DTD SVG 1.1//EN"
 "http://www.w3.org/Graphics/SVG/1.1/DTD/svg11.dtd">
<!-- Generated by graphviz version 2.38.0 (20140413.2041)
 -->
<!-- Title: g Pages: 1 -->
<svg width="658pt" height="375pt"
 viewBox="0.00 0.00 658.00 375.00" xmlns="http://www.w3.org/2000/svg" xmlns:xlink="http://www.w3.org/1999/xlink">
<g id="graph0" class="graph" transform="scale(1 1) rotate(0) translate(4 371)">
<title>g</title>
<polygon fill="white" stroke="none" points="-4,4 -4,-371 654,-371 654,4 -4,4"/>
<g id="clust1" class="cluster"><title>cluster0</title>
<polygon fill="none" stroke="black" points="8,-182 8,-359 192,-359 192,-182 8,-182"/>
<text text-anchor="middle" x="100" y="-343.8" font-family="Times New Roman,serif" font-size="14.00">transaction_0</text>
</g>
<g id="clust4" class="cluster"><title>cluster3</title>
<polygon fill="none" stroke="black" points="550,-269 550,-359 642,-359 642,-269 550,-269"/>
<text text-anchor="middle" x="596" y="-343.8" font-family="Times New Roman,serif" font-size="14.00">transaction_3</text>
</g>
<g id="clust2" class="cluster"><title>cluster1</title>
<polygon fill="none" stroke="black" points="200,-8 200,-359 350,-359 350,-8 200,-8"/>
<text text-anchor="middle" x="275" y="-343.8" font-family="Times New Roman,serif" font-size="14.00">transaction_1</text>
</g>
<g id="clust3" class="cluster"><title>cluster2</title>
<polygon fill="none" stroke="black" points="358,-8 358,-359 542,-359 542,-8 358,-8"/>
<text text-anchor="middle" x="450" y="-343.8" font-family="Times New Roman,serif" font-size="14.00">transaction_2</text>
</g>
<!-- EAID_8C9379DB_BC70_4e53_B7F0_E202C165F77B_0 -->
<g id="node1" class="node"><title>EAID_8C9379DB_BC70_4e53_B7F0_E202C165F77B_0</title>
<image xlink:href="stimulus_icon.png" width="27px" height="20px" preserveAspectRatio="xMinYMin meet" x="86.5" y="-321.5"/>
<text text-anchor="start" x="80" y="-286.3" font-family="Times New Roman,serif" font-size="14.00">Actor1</text>
</g>
<!-- EAID_1A829F8F_037D_4396_9248_AB80B239B2AE_0 -->
<g id="node2" class="node"><title>EAID_1A829F8F_037D_4396_9248_AB80B239B2AE_0</title>
<image xlink:href="internal_activity_icon.png" width="27px" height="20px" preserveAspectRatio="xMinYMin meet" x="87" y="-234.5"/>
<text text-anchor="start" x="27" y="-199.3" font-family="Times New Roman,serif" font-size="14.00">payment success message</text>
</g>
<!-- EAID_8C9379DB_BC70_4e53_B7F0_E202C165F77B_0&#45;&gt;EAID_1A829F8F_037D_4396_9248_AB80B239B2AE_0 -->
<g id="edge1" class="edge"><title>EAID_8C9379DB_BC70_4e53_B7F0_E202C165F77B_0&#45;&gt;EAID_1A829F8F_037D_4396_9248_AB80B239B2AE_0</title>
<path fill="none" stroke="black" d="M100,-276.914C100,-268.897 100,-259.839 100,-251.222"/>
<polygon fill="black" stroke="black" points="103.5,-251.03 100,-241.03 96.5001,-251.03 103.5,-251.03"/>
</g>
<!-- EAID_8C9379DB_BC70_4e53_B7F0_E202C165F77B_1 -->
<g id="node3" class="node"><title>EAID_8C9379DB_BC70_4e53_B7F0_E202C165F77B_1</title>
<image xlink:href="stimulus_icon.png" width="27px" height="20px" preserveAspectRatio="xMinYMin meet" x="261.5" y="-321.5"/>
<text text-anchor="start" x="255" y="-286.3" font-family="Times New Roman,serif" font-size="14.00">Actor1</text>
</g>
<!-- EAID_D74B2E4B_A09B_490c_8A63_FD182DD29007_1 -->
<g id="node4" class="node"><title>EAID_D74B2E4B_A09B_490c_8A63_FD182DD29007_1</title>
<image xlink:href="internal_activity_icon.png" width="27px" height="20px" preserveAspectRatio="xMinYMin meet" x="261.5" y="-234.5"/>
<text text-anchor="start" x="218" y="-199.3" font-family="Times New Roman,serif" font-size="14.00">Buy tickets interface</text>
</g>
<!-- EAID_8C9379DB_BC70_4e53_B7F0_E202C165F77B_1&#45;&gt;EAID_D74B2E4B_A09B_490c_8A63_FD182DD29007_1 -->
<g id="edge2" class="edge"><title>EAID_8C9379DB_BC70_4e53_B7F0_E202C165F77B_1&#45;&gt;EAID_D74B2E4B_A09B_490c_8A63_FD182DD29007_1</title>
<path fill="none" stroke="black" d="M275,-276.914C275,-268.897 275,-259.839 275,-251.222"/>
<polygon fill="black" stroke="black" points="278.5,-251.03 275,-241.03 271.5,-251.03 278.5,-251.03"/>
</g>
<!-- EAID_4016A4E4_FD98_4efd_A851_B7B01AC79427_1 -->
<g id="node5" class="node"><title>EAID_4016A4E4_FD98_4efd_A851_B7B01AC79427_1</title>
<image xlink:href="internal_activity_icon.png" width="27px" height="20px" preserveAspectRatio="xMinYMin meet" x="262" y="-147.5"/>
<text text-anchor="start" x="245" y="-112.3" font-family="Times New Roman,serif" font-size="14.00">pay the bill</text>
</g>
<!-- EAID_D74B2E4B_A09B_490c_8A63_FD182DD29007_1&#45;&gt;EAID_4016A4E4_FD98_4efd_A851_B7B01AC79427_1 -->
<g id="edge3" class="edge"><title>EAID_D74B2E4B_A09B_490c_8A63_FD182DD29007_1&#45;&gt;EAID_4016A4E4_FD98_4efd_A851_B7B01AC79427_1</title>
<path fill="none" stroke="black" d="M275,-189.914C275,-181.897 275,-172.839 275,-164.222"/>
<polygon fill="black" stroke="black" points="278.5,-164.03 275,-154.03 271.5,-164.03 278.5,-164.03"/>
</g>
<!-- EAID_FB752BC8_2742_4b54_A120_66A641D914CC_1 -->
<g id="node6" class="node"><title>EAID_FB752BC8_2742_4b54_A120_66A641D914CC_1</title>
<image xlink:href="internal_activity_icon.png" width="27px" height="20px" preserveAspectRatio="xMinYMin meet" x="261.5" y="-60.5"/>
<text text-anchor="start" x="229" y="-25.3" font-family="Times New Roman,serif" font-size="14.00">save bill records</text>
</g>
<!-- EAID_4016A4E4_FD98_4efd_A851_B7B01AC79427_1&#45;&gt;EAID_FB752BC8_2742_4b54_A120_66A641D914CC_1 -->
<g id="edge4" class="edge"><title>EAID_4016A4E4_FD98_4efd_A851_B7B01AC79427_1&#45;&gt;EAID_FB752BC8_2742_4b54_A120_66A641D914CC_1</title>
<path fill="none" stroke="black" d="M275,-102.914C275,-94.8972 275,-85.8388 275,-77.2221"/>
<polygon fill="black" stroke="black" points="278.5,-77.0302 275,-67.0303 271.5,-77.0303 278.5,-77.0302"/>
</g>
<!-- EAID_8C9379DB_BC70_4e53_B7F0_E202C165F77B_2 -->
<g id="node7" class="node"><title>EAID_8C9379DB_BC70_4e53_B7F0_E202C165F77B_2</title>
<image xlink:href="stimulus_icon.png" width="27px" height="20px" preserveAspectRatio="xMinYMin meet" x="436.5" y="-321.5"/>
<text text-anchor="start" x="430" y="-286.3" font-family="Times New Roman,serif" font-size="14.00">Actor1</text>
</g>
<!-- EAID_D74B2E4B_A09B_490c_8A63_FD182DD29007_2 -->
<g id="node8" class="node"><title>EAID_D74B2E4B_A09B_490c_8A63_FD182DD29007_2</title>
<image xlink:href="internal_activity_icon.png" width="27px" height="20px" preserveAspectRatio="xMinYMin meet" x="436.5" y="-234.5"/>
<text text-anchor="start" x="393" y="-199.3" font-family="Times New Roman,serif" font-size="14.00">Buy tickets interface</text>
</g>
<!-- EAID_8C9379DB_BC70_4e53_B7F0_E202C165F77B_2&#45;&gt;EAID_D74B2E4B_A09B_490c_8A63_FD182DD29007_2 -->
<g id="edge5" class="edge"><title>EAID_8C9379DB_BC70_4e53_B7F0_E202C165F77B_2&#45;&gt;EAID_D74B2E4B_A09B_490c_8A63_FD182DD29007_2</title>
<path fill="none" stroke="black" d="M450,-276.914C450,-268.897 450,-259.839 450,-251.222"/>
<polygon fill="black" stroke="black" points="453.5,-251.03 450,-241.03 446.5,-251.03 453.5,-251.03"/>
</g>
<!-- EAID_4016A4E4_FD98_4efd_A851_B7B01AC79427_2 -->
<g id="node9" class="node"><title>EAID_4016A4E4_FD98_4efd_A851_B7B01AC79427_2</title>
<image xlink:href="internal_activity_icon.png" width="27px" height="20px" preserveAspectRatio="xMinYMin meet" x="437" y="-147.5"/>
<text text-anchor="start" x="420" y="-112.3" font-family="Times New Roman,serif" font-size="14.00">pay the bill</text>
</g>
<!-- EAID_D74B2E4B_A09B_490c_8A63_FD182DD29007_2&#45;&gt;EAID_4016A4E4_FD98_4efd_A851_B7B01AC79427_2 -->
<g id="edge6" class="edge"><title>EAID_D74B2E4B_A09B_490c_8A63_FD182DD29007_2&#45;&gt;EAID_4016A4E4_FD98_4efd_A851_B7B01AC79427_2</title>
<path fill="none" stroke="black" d="M450,-189.914C450,-181.897 450,-172.839 450,-164.222"/>
<polygon fill="black" stroke="black" points="453.5,-164.03 450,-154.03 446.5,-164.03 453.5,-164.03"/>
</g>
<!-- EAID_1A829F8F_037D_4396_9248_AB80B239B2AE_2 -->
<g id="node10" class="node"><title>EAID_1A829F8F_037D_4396_9248_AB80B239B2AE_2</title>
<image xlink:href="internal_activity_icon.png" width="27px" height="20px" preserveAspectRatio="xMinYMin meet" x="437" y="-60.5"/>
<text text-anchor="start" x="377" y="-25.3" font-family="Times New Roman,serif" font-size="14.00">payment success message</text>
</g>
<!-- EAID_4016A4E4_FD98_4efd_A851_B7B01AC79427_2&#45;&gt;EAID_1A829F8F_037D_4396_9248_AB80B239B2AE_2 -->
<g id="edge7" class="edge"><title>EAID_4016A4E4_FD98_4efd_A851_B7B01AC79427_2&#45;&gt;EAID_1A829F8F_037D_4396_9248_AB80B239B2AE_2</title>
<path fill="none" stroke="black" d="M450,-102.914C450,-94.8972 450,-85.8388 450,-77.2221"/>
<polygon fill="black" stroke="black" points="453.5,-77.0302 450,-67.0303 446.5,-77.0303 453.5,-77.0302"/>
</g>
<!-- EAID_0BC8C2F9_2B60_42fb_9A53_3CAE4412A2F9_3 -->
<g id="node11" class="node"><title>EAID_0BC8C2F9_2B60_42fb_9A53_3CAE4412A2F9_3</title>
<image xlink:href="stimulus_icon.png" width="27px" height="20px" preserveAspectRatio="xMinYMin meet" x="583" y="-321.5"/>
<text text-anchor="start" x="583" y="-286.3" font-family="Times New Roman,serif" font-size="14.00">User</text>
</g>
</g>
</svg>
