<?xml version="1.0" encoding="UTF-8" standalone="no"?>
<!DOCTYPE svg PUBLIC "-//W3C//DTD SVG 1.1//EN"
 "http://www.w3.org/Graphics/SVG/1.1/DTD/svg11.dtd">
<!-- Generated by graphviz version 2.38.0 (20140413.2041)
 -->
<!-- Title: g Pages: 1 -->
<svg width="904pt" height="528pt"
 viewBox="0.00 0.00 904.00 528.00" xmlns="http://www.w3.org/2000/svg" xmlns:xlink="http://www.w3.org/1999/xlink">
<g id="graph0" class="graph" transform="scale(1 1) rotate(0) translate(4 524)">
<title>g</title>
<polygon fill="white" stroke="none" points="-4,4 -4,-524 900,-524 900,4 -4,4"/>
<g id="clust2" class="cluster"><title>cluster1</title>
<polygon fill="none" stroke="black" stroke-width="2" points="300,-8 300,-512 582,-512 582,-8 300,-8"/>
<text text-anchor="start" x="367" y="-489.8" font-family="Times New Roman,serif" font-weight="bold" font-size="24.00">Transaction#2</text>
</g>
<g id="clust3" class="cluster"><title>cluster2</title>
<polygon fill="none" stroke="black" stroke-width="2" points="590,-106 590,-512 888,-512 888,-106 590,-106"/>
<text text-anchor="start" x="665" y="-489.8" font-family="Times New Roman,serif" font-weight="bold" font-size="24.00">Transaction#3</text>
</g>
<g id="clust1" class="cluster"><title>cluster0</title>
<polygon fill="#ebebeb" stroke="black" stroke-width="2" points="8,-8.5 8,-512 292,-512 292,-8.5 8,-8.5"/>
<text text-anchor="start" x="76" y="-489.8" font-family="Times New Roman,serif" font-weight="bold" font-size="24.00">Transaction#1</text>
</g>
<!-- EAID_5AFF5212_D7A0_41bd_BFBA_3FD0A111293F_STL1 -->
<g id="node1" class="node"><title>EAID_5AFF5212_D7A0_41bd_BFBA_3FD0A111293F_STL1</title>
<image xlink:href="Stimulus_icon.png" width="30px" height="20px" preserveAspectRatio="xMinYMin meet" x="135.5" y="-464"/>
<text text-anchor="start" x="84" y="-421.8" font-family="Times New Roman,serif" font-weight="bold" font-size="24.00">stl#onSearch</text>
</g>
<!-- EAID_5AFF5212_D7A0_41bd_BFBA_3FD0A111293F1 -->
<g id="node2" class="node"><title>EAID_5AFF5212_D7A0_41bd_BFBA_3FD0A111293F1</title>
<image xlink:href="activity_icon.png" width="30px" height="20px" preserveAspectRatio="xMinYMin meet" x="135.5" y="-366"/>
<text text-anchor="start" x="102" y="-323.8" font-family="Times New Roman,serif" font-weight="bold" font-size="24.00">onSearch</text>
</g>
<!-- EAID_5AFF5212_D7A0_41bd_BFBA_3FD0A111293F_STL1&#45;&gt;EAID_5AFF5212_D7A0_41bd_BFBA_3FD0A111293F1 -->
<g id="edge1" class="edge"><title>EAID_5AFF5212_D7A0_41bd_BFBA_3FD0A111293F_STL1&#45;&gt;EAID_5AFF5212_D7A0_41bd_BFBA_3FD0A111293F1</title>
<path fill="none" stroke="black" d="M150,-407.888C150,-399.757 150,-390.827 150,-382.237"/>
<polygon fill="black" stroke="black" points="153.5,-382.005 150,-372.005 146.5,-382.005 153.5,-382.005"/>
</g>
<!-- EAID_16B7023E_6AAB_4a2f_B199_F6EADF40E6E41 -->
<g id="node3" class="node"><title>EAID_16B7023E_6AAB_4a2f_B199_F6EADF40E6E41</title>
<image xlink:href="activity_icon.png" width="30px" height="20px" preserveAspectRatio="xMinYMin meet" x="135.5" y="-268"/>
<text text-anchor="start" x="28" y="-225.8" font-family="Times New Roman,serif" font-weight="bold" font-size="24.00">searchItemByKeywords</text>
</g>
<!-- EAID_5AFF5212_D7A0_41bd_BFBA_3FD0A111293F1&#45;&gt;EAID_16B7023E_6AAB_4a2f_B199_F6EADF40E6E41 -->
<g id="edge2" class="edge"><title>EAID_5AFF5212_D7A0_41bd_BFBA_3FD0A111293F1&#45;&gt;EAID_16B7023E_6AAB_4a2f_B199_F6EADF40E6E41</title>
<path fill="none" stroke="black" d="M150,-309.888C150,-301.757 150,-292.827 150,-284.237"/>
<polygon fill="black" stroke="black" points="153.5,-284.005 150,-274.005 146.5,-284.005 153.5,-284.005"/>
</g>
<!-- EAID_051F05EC_D785_41de_B088_775A722963C31 -->
<g id="node4" class="node"><title>EAID_051F05EC_D785_41de_B088_775A722963C31</title>
<image xlink:href="activity_icon.png" width="30px" height="20px" preserveAspectRatio="xMinYMin meet" x="135" y="-170"/>
<text text-anchor="start" x="80" y="-127.8" font-family="Times New Roman,serif" font-weight="bold" font-size="24.00">queryCatalog</text>
</g>
<!-- EAID_16B7023E_6AAB_4a2f_B199_F6EADF40E6E41&#45;&gt;EAID_051F05EC_D785_41de_B088_775A722963C31 -->
<g id="edge3" class="edge"><title>EAID_16B7023E_6AAB_4a2f_B199_F6EADF40E6E41&#45;&gt;EAID_051F05EC_D785_41de_B088_775A722963C31</title>
<path fill="none" stroke="black" d="M150,-211.888C150,-203.757 150,-194.827 150,-186.237"/>
<polygon fill="black" stroke="black" points="153.5,-186.005 150,-176.005 146.5,-186.005 153.5,-186.005"/>
</g>
<!-- EAID_AB51EFD8_6E60_4c81_96A9_7F5849659A411 -->
<g id="node5" class="node"><title>EAID_AB51EFD8_6E60_4c81_96A9_7F5849659A411</title>
<image xlink:href="out_of_scope_activity_icon.png" width="30px" height="19px" preserveAspectRatio="xMinYMin meet" x="135.5" y="-71"/>
<text text-anchor="start" x="27" y="-29.8" font-family="Times New Roman,serif" font-weight="bold" font-size="24.00">displayEmptyListNotice</text>
</g>
<!-- EAID_051F05EC_D785_41de_B088_775A722963C31&#45;&gt;EAID_AB51EFD8_6E60_4c81_96A9_7F5849659A411 -->
<g id="edge4" class="edge"><title>EAID_051F05EC_D785_41de_B088_775A722963C31&#45;&gt;EAID_AB51EFD8_6E60_4c81_96A9_7F5849659A411</title>
<path fill="none" stroke="black" d="M150,-113.888C150,-105.589 150,-96.4563 150,-87.7036"/>
<polygon fill="black" stroke="black" points="153.5,-87.6755 150,-77.6756 146.5,-87.6756 153.5,-87.6755"/>
</g>
<!-- EAID_5AFF5212_D7A0_41bd_BFBA_3FD0A111293F_STL2 -->
<g id="node6" class="node"><title>EAID_5AFF5212_D7A0_41bd_BFBA_3FD0A111293F_STL2</title>
<image xlink:href="Stimulus_icon.png" width="30px" height="20px" preserveAspectRatio="xMinYMin meet" x="426.5" y="-464"/>
<text text-anchor="start" x="375" y="-421.8" font-family="Times New Roman,serif" font-weight="bold" font-size="24.00">stl#onSearch</text>
</g>
<!-- EAID_5AFF5212_D7A0_41bd_BFBA_3FD0A111293F2 -->
<g id="node7" class="node"><title>EAID_5AFF5212_D7A0_41bd_BFBA_3FD0A111293F2</title>
<image xlink:href="activity_icon.png" width="30px" height="20px" preserveAspectRatio="xMinYMin meet" x="426.5" y="-366"/>
<text text-anchor="start" x="393" y="-323.8" font-family="Times New Roman,serif" font-weight="bold" font-size="24.00">onSearch</text>
</g>
<!-- EAID_5AFF5212_D7A0_41bd_BFBA_3FD0A111293F_STL2&#45;&gt;EAID_5AFF5212_D7A0_41bd_BFBA_3FD0A111293F2 -->
<g id="edge5" class="edge"><title>EAID_5AFF5212_D7A0_41bd_BFBA_3FD0A111293F_STL2&#45;&gt;EAID_5AFF5212_D7A0_41bd_BFBA_3FD0A111293F2</title>
<path fill="none" stroke="black" d="M441,-407.888C441,-399.757 441,-390.827 441,-382.237"/>
<polygon fill="black" stroke="black" points="444.5,-382.005 441,-372.005 437.5,-382.005 444.5,-382.005"/>
</g>
<!-- EAID_16B7023E_6AAB_4a2f_B199_F6EADF40E6E42 -->
<g id="node8" class="node"><title>EAID_16B7023E_6AAB_4a2f_B199_F6EADF40E6E42</title>
<image xlink:href="activity_icon.png" width="30px" height="20px" preserveAspectRatio="xMinYMin meet" x="426.5" y="-268"/>
<text text-anchor="start" x="319" y="-225.8" font-family="Times New Roman,serif" font-weight="bold" font-size="24.00">searchItemByKeywords</text>
</g>
<!-- EAID_5AFF5212_D7A0_41bd_BFBA_3FD0A111293F2&#45;&gt;EAID_16B7023E_6AAB_4a2f_B199_F6EADF40E6E42 -->
<g id="edge6" class="edge"><title>EAID_5AFF5212_D7A0_41bd_BFBA_3FD0A111293F2&#45;&gt;EAID_16B7023E_6AAB_4a2f_B199_F6EADF40E6E42</title>
<path fill="none" stroke="black" d="M441,-309.888C441,-301.757 441,-292.827 441,-284.237"/>
<polygon fill="black" stroke="black" points="444.5,-284.005 441,-274.005 437.5,-284.005 444.5,-284.005"/>
</g>
<!-- EAID_051F05EC_D785_41de_B088_775A722963C32 -->
<g id="node9" class="node"><title>EAID_051F05EC_D785_41de_B088_775A722963C32</title>
<image xlink:href="activity_icon.png" width="30px" height="20px" preserveAspectRatio="xMinYMin meet" x="426" y="-170"/>
<text text-anchor="start" x="371" y="-127.8" font-family="Times New Roman,serif" font-weight="bold" font-size="24.00">queryCatalog</text>
</g>
<!-- EAID_16B7023E_6AAB_4a2f_B199_F6EADF40E6E42&#45;&gt;EAID_051F05EC_D785_41de_B088_775A722963C32 -->
<g id="edge7" class="edge"><title>EAID_16B7023E_6AAB_4a2f_B199_F6EADF40E6E42&#45;&gt;EAID_051F05EC_D785_41de_B088_775A722963C32</title>
<path fill="none" stroke="black" d="M441,-211.888C441,-203.757 441,-194.827 441,-186.237"/>
<polygon fill="black" stroke="black" points="444.5,-186.005 441,-176.005 437.5,-186.005 444.5,-186.005"/>
</g>
<!-- EAID_B891C645_35D8_4041_B74E_938604A9AE962 -->
<g id="node10" class="node"><title>EAID_B891C645_35D8_4041_B74E_938604A9AE962</title>
<image xlink:href="activity_icon.png" width="30px" height="20px" preserveAspectRatio="xMinYMin meet" x="426" y="-72"/>
<text text-anchor="start" x="361" y="-29.8" font-family="Times New Roman,serif" font-weight="bold" font-size="24.00">displayItemList</text>
</g>
<!-- EAID_051F05EC_D785_41de_B088_775A722963C32&#45;&gt;EAID_B891C645_35D8_4041_B74E_938604A9AE962 -->
<g id="edge8" class="edge"><title>EAID_051F05EC_D785_41de_B088_775A722963C32&#45;&gt;EAID_B891C645_35D8_4041_B74E_938604A9AE962</title>
<path fill="none" stroke="black" d="M441,-113.888C441,-105.757 441,-96.8266 441,-88.2368"/>
<polygon fill="black" stroke="black" points="444.5,-88.0047 441,-78.0048 437.5,-88.0048 444.5,-88.0047"/>
</g>
<!-- EAID_5AFF5212_D7A0_41bd_BFBA_3FD0A111293F_STL3 -->
<g id="node11" class="node"><title>EAID_5AFF5212_D7A0_41bd_BFBA_3FD0A111293F_STL3</title>
<image xlink:href="Stimulus_icon.png" width="30px" height="20px" preserveAspectRatio="xMinYMin meet" x="724.5" y="-464"/>
<text text-anchor="start" x="673" y="-421.8" font-family="Times New Roman,serif" font-weight="bold" font-size="24.00">stl#onSearch</text>
</g>
<!-- EAID_5AFF5212_D7A0_41bd_BFBA_3FD0A111293F3 -->
<g id="node12" class="node"><title>EAID_5AFF5212_D7A0_41bd_BFBA_3FD0A111293F3</title>
<image xlink:href="activity_icon.png" width="30px" height="20px" preserveAspectRatio="xMinYMin meet" x="724.5" y="-366"/>
<text text-anchor="start" x="691" y="-323.8" font-family="Times New Roman,serif" font-weight="bold" font-size="24.00">onSearch</text>
</g>
<!-- EAID_5AFF5212_D7A0_41bd_BFBA_3FD0A111293F_STL3&#45;&gt;EAID_5AFF5212_D7A0_41bd_BFBA_3FD0A111293F3 -->
<g id="edge9" class="edge"><title>EAID_5AFF5212_D7A0_41bd_BFBA_3FD0A111293F_STL3&#45;&gt;EAID_5AFF5212_D7A0_41bd_BFBA_3FD0A111293F3</title>
<path fill="none" stroke="black" d="M739,-407.888C739,-399.757 739,-390.827 739,-382.237"/>
<polygon fill="black" stroke="black" points="742.5,-382.005 739,-372.005 735.5,-382.005 742.5,-382.005"/>
</g>
<!-- EAID_16B7023E_6AAB_4a2f_B199_F6EADF40E6E43 -->
<g id="node13" class="node"><title>EAID_16B7023E_6AAB_4a2f_B199_F6EADF40E6E43</title>
<image xlink:href="activity_icon.png" width="30px" height="20px" preserveAspectRatio="xMinYMin meet" x="724.5" y="-268"/>
<text text-anchor="start" x="617" y="-225.8" font-family="Times New Roman,serif" font-weight="bold" font-size="24.00">searchItemByKeywords</text>
</g>
<!-- EAID_5AFF5212_D7A0_41bd_BFBA_3FD0A111293F3&#45;&gt;EAID_16B7023E_6AAB_4a2f_B199_F6EADF40E6E43 -->
<g id="edge10" class="edge"><title>EAID_5AFF5212_D7A0_41bd_BFBA_3FD0A111293F3&#45;&gt;EAID_16B7023E_6AAB_4a2f_B199_F6EADF40E6E43</title>
<path fill="none" stroke="black" d="M739,-309.888C739,-301.757 739,-292.827 739,-284.237"/>
<polygon fill="black" stroke="black" points="742.5,-284.005 739,-274.005 735.5,-284.005 742.5,-284.005"/>
</g>
<!-- EAID_46BEFB5E_3E95_41ab_9C5A_47F9E14FA8CE3 -->
<g id="node14" class="node"><title>EAID_46BEFB5E_3E95_41ab_9C5A_47F9E14FA8CE3</title>
<image xlink:href="activity_icon.png" width="30px" height="20px" preserveAspectRatio="xMinYMin meet" x="724.5" y="-170"/>
<text text-anchor="start" x="609" y="-127.8" font-family="Times New Roman,serif" font-weight="bold" font-size="24.00">displaySearchInvalidMsg</text>
</g>
<!-- EAID_16B7023E_6AAB_4a2f_B199_F6EADF40E6E43&#45;&gt;EAID_46BEFB5E_3E95_41ab_9C5A_47F9E14FA8CE3 -->
<g id="edge11" class="edge"><title>EAID_16B7023E_6AAB_4a2f_B199_F6EADF40E6E43&#45;&gt;EAID_46BEFB5E_3E95_41ab_9C5A_47F9E14FA8CE3</title>
<path fill="none" stroke="black" d="M739,-211.888C739,-203.757 739,-194.827 739,-186.237"/>
<polygon fill="black" stroke="black" points="742.5,-186.005 739,-176.005 735.5,-186.005 742.5,-186.005"/>
</g>
</g>
</svg>
