<?xml version="1.0" encoding="UTF-8" standalone="no"?>
<!DOCTYPE svg PUBLIC "-//W3C//DTD SVG 1.1//EN"
 "http://www.w3.org/Graphics/SVG/1.1/DTD/svg11.dtd">
<!-- Generated by graphviz version 2.38.0 (20140413.2041)
 -->
<!-- Title: g Pages: 1 -->
<svg width="856pt" height="677pt"
 viewBox="0.00 0.00 856.00 677.00" xmlns="http://www.w3.org/2000/svg" xmlns:xlink="http://www.w3.org/1999/xlink">
<g id="graph0" class="graph" transform="scale(1 1) rotate(0) translate(4 673)">
<title>g</title>
<polygon fill="white" stroke="none" points="-4,4 -4,-673 852,-673 852,4 -4,4"/>
<g id="clust1" class="cluster"><title>cluster0</title>
<polygon fill="none" stroke="black" stroke-width="2" points="20,-212 20,-563 334,-563 334,-212 20,-212"/>
<text text-anchor="start" x="155" y="-548.8" font-family="Times New Roman,serif" font-weight="bold" font-size="14.00">System</text>
</g>
<g id="clust2" class="cluster"><title>cluster1</title>
<polygon fill="none" stroke="black" stroke-width="2" points="206,-571 206,-661 322,-661 322,-571 206,-571"/>
<text text-anchor="start" x="249.5" y="-646.8" font-family="Times New Roman,serif" font-weight="bold" font-size="14.00">User</text>
</g>
<g id="clust3" class="cluster"><title>cluster1000</title>
<polygon fill="none" stroke="black" stroke-width="2" points="8,-8 8,-204 840,-204 840,-8 8,-8"/>
<text text-anchor="start" x="378.5" y="-189.8" font-family="Times New Roman,serif" font-weight="bold" font-size="14.00">Domain Model</text>
</g>
<!-- EAID_5AFF5212_D7A0_41bd_BFBA_3FD0A111293F -->
<g id="node1" class="node"><title>EAID_5AFF5212_D7A0_41bd_BFBA_3FD0A111293F</title>
<image xlink:href="img/activity_icon.png" width="30px" height="20px" preserveAspectRatio="xMinYMin meet" x="249" y="-525.5"/>
<text text-anchor="start" x="235" y="-491.3" font-family="Times New Roman,serif" font-weight="bold" font-size="14.00">onSearch</text>
</g>
<!-- EAID_16B7023E_6AAB_4a2f_B199_F6EADF40E6E4 -->
<g id="node2" class="node"><title>EAID_16B7023E_6AAB_4a2f_B199_F6EADF40E6E4</title>
<image xlink:href="img/activity_icon.png" width="30px" height="20px" preserveAspectRatio="xMinYMin meet" x="225.5" y="-438.5"/>
<text text-anchor="start" x="167" y="-404.3" font-family="Times New Roman,serif" font-weight="bold" font-size="14.00">searchItemByKeywords</text>
</g>
<!-- EAID_5AFF5212_D7A0_41bd_BFBA_3FD0A111293F&#45;&gt;EAID_16B7023E_6AAB_4a2f_B199_F6EADF40E6E4 -->
<g id="edge1" class="edge"><title>EAID_5AFF5212_D7A0_41bd_BFBA_3FD0A111293F&#45;&gt;EAID_16B7023E_6AAB_4a2f_B199_F6EADF40E6E4</title>
<path fill="none" stroke="black" d="M257.058,-480.914C254.745,-472.721 252.124,-463.44 249.644,-454.655"/>
<polygon fill="black" stroke="black" points="253.012,-453.703 246.926,-445.03 246.275,-455.605 253.012,-453.703"/>
</g>
<!-- EAID_CC8035CD_7CA2_4fcc_806D_98507CF458CD -->
<g id="node10" class="node"><title>EAID_CC8035CD_7CA2_4fcc_806D_98507CF458CD</title>
<polygon fill="none" stroke="black" points="685,-125.5 685,-146.5 823,-146.5 823,-125.5 685,-125.5"/>
<text text-anchor="start" x="703" y="-133.3" font-family="Times New Roman,serif" font-weight="bold" font-size="14.00">ItemSearchPage</text>
<polygon fill="none" stroke="black" points="685,-104.5 685,-125.5 823,-125.5 823,-104.5 685,-104.5"/>
<text text-anchor="start" x="721.5" y="-112.3" font-family="Times New Roman,serif" font-weight="bold" font-size="14.00">int pageID</text>
<polygon fill="none" stroke="black" points="685,-83.5 685,-104.5 823,-104.5 823,-83.5 685,-83.5"/>
<text text-anchor="start" x="688" y="-91.3" font-family="Times New Roman,serif" font-weight="bold" font-size="14.00">InputField searchBox</text>
<polygon fill="none" stroke="black" points="685,-62.5 685,-83.5 823,-83.5 823,-62.5 685,-62.5"/>
<text text-anchor="start" x="690.5" y="-70.3" font-family="Times New Roman,serif" font-weight="bold" font-size="14.00">Button searchButton</text>
<polygon fill="none" stroke="black" points="685,-41.5 685,-62.5 823,-62.5 823,-41.5 685,-41.5"/>
<text text-anchor="start" x="705.5" y="-49.3" font-family="Times New Roman,serif" font-weight="bold" font-size="14.00">void onSearch()</text>
<polygon fill="none" stroke="black" points="684,-41 684,-148 824,-148 824,-41 684,-41"/>
</g>
<!-- EAID_5AFF5212_D7A0_41bd_BFBA_3FD0A111293F&#45;&gt;EAID_CC8035CD_7CA2_4fcc_806D_98507CF458CD -->
<g id="edge7" class="edge"><title>EAID_5AFF5212_D7A0_41bd_BFBA_3FD0A111293F&#45;&gt;EAID_CC8035CD_7CA2_4fcc_806D_98507CF458CD</title>
<path fill="none" stroke="black" stroke-dasharray="5,2" d="M303.181,-481.008C378.277,-433.064 545.769,-321.23 667,-204 680.82,-190.636 694.459,-175.09 706.693,-160.011"/>
<polygon fill="black" stroke="black" points="709.442,-162.178 712.956,-152.183 703.976,-157.805 709.442,-162.178"/>
</g>
<!-- EAID_46BEFB5E_3E95_41ab_9C5A_47F9E14FA8CE -->
<g id="node3" class="node"><title>EAID_46BEFB5E_3E95_41ab_9C5A_47F9E14FA8CE</title>
<image xlink:href="img/activity_icon.png" width="30px" height="20px" preserveAspectRatio="xMinYMin meet" x="223.5" y="-351.5"/>
<text text-anchor="start" x="161" y="-317.3" font-family="Times New Roman,serif" font-weight="bold" font-size="14.00">displaySearchInvalidMsg</text>
</g>
<!-- EAID_16B7023E_6AAB_4a2f_B199_F6EADF40E6E4&#45;&gt;EAID_46BEFB5E_3E95_41ab_9C5A_47F9E14FA8CE -->
<g id="edge4" class="edge"><title>EAID_16B7023E_6AAB_4a2f_B199_F6EADF40E6E4&#45;&gt;EAID_46BEFB5E_3E95_41ab_9C5A_47F9E14FA8CE</title>
<path fill="none" stroke="black" d="M239.422,-393.914C239.233,-385.897 239.02,-376.839 238.817,-368.222"/>
<polygon fill="black" stroke="black" points="242.312,-367.945 238.577,-358.03 235.313,-368.11 242.312,-367.945"/>
</g>
<!-- EAID_051F05EC_D785_41de_B088_775A722963C3 -->
<g id="node4" class="node"><title>EAID_051F05EC_D785_41de_B088_775A722963C3</title>
<image xlink:href="img/activity_icon.png" width="30px" height="20px" preserveAspectRatio="xMinYMin meet" x="65" y="-351.5"/>
<text text-anchor="start" x="38" y="-317.3" font-family="Times New Roman,serif" font-weight="bold" font-size="14.00">queryCatalog</text>
</g>
<!-- EAID_16B7023E_6AAB_4a2f_B199_F6EADF40E6E4&#45;&gt;EAID_051F05EC_D785_41de_B088_775A722963C3 -->
<g id="edge5" class="edge"><title>EAID_16B7023E_6AAB_4a2f_B199_F6EADF40E6E4&#45;&gt;EAID_051F05EC_D785_41de_B088_775A722963C3</title>
<path fill="none" stroke="black" d="M193.721,-393.914C175.396,-384.179 154.181,-372.909 135.074,-362.758"/>
<polygon fill="black" stroke="black" points="136.648,-359.631 126.175,-358.03 133.364,-365.813 136.648,-359.631"/>
</g>
<!-- EAID_6F0ED3B7_B3EB_4f6d_94C9_17E9B1FE25DA -->
<g id="node9" class="node"><title>EAID_6F0ED3B7_B3EB_4f6d_94C9_17E9B1FE25DA</title>
<polygon fill="none" stroke="black" points="452,-94.5 452,-115.5 649,-115.5 649,-94.5 452,-94.5"/>
<text text-anchor="start" x="508" y="-102.3" font-family="Times New Roman,serif" font-weight="bold" font-size="14.00">ItemManager</text>
<polygon fill="none" stroke="black" points="452,-73.5 452,-94.5 649,-94.5 649,-73.5 452,-73.5"/>
<text text-anchor="start" x="455" y="-81.3" font-family="Times New Roman,serif" font-weight="bold" font-size="14.00">void searchItemsByKeywords()</text>
<polygon fill="none" stroke="black" points="450.5,-72.5 450.5,-116.5 649.5,-116.5 649.5,-72.5 450.5,-72.5"/>
</g>
<!-- EAID_16B7023E_6AAB_4a2f_B199_F6EADF40E6E4&#45;&gt;EAID_6F0ED3B7_B3EB_4f6d_94C9_17E9B1FE25DA -->
<g id="edge8" class="edge"><title>EAID_16B7023E_6AAB_4a2f_B199_F6EADF40E6E4&#45;&gt;EAID_6F0ED3B7_B3EB_4f6d_94C9_17E9B1FE25DA</title>
<path fill="none" stroke="black" stroke-dasharray="5,2" d="M284.591,-393.738C300.932,-383.676 319.065,-371.287 334,-358 415.031,-285.91 491.032,-182.051 527.469,-129.183"/>
<polygon fill="black" stroke="black" points="530.419,-131.07 533.181,-120.841 524.643,-127.115 530.419,-131.07"/>
</g>
<!-- EAID_95C25856_C5F6_475d_B9C2_27FA161F4E34 -->
<g id="node11" class="node"><title>EAID_95C25856_C5F6_475d_B9C2_27FA161F4E34</title>
<polygon fill="none" stroke="black" points="26,-146.5 26,-167.5 225,-167.5 225,-146.5 26,-146.5"/>
<text text-anchor="start" x="66" y="-154.3" font-family="Times New Roman,serif" font-weight="bold" font-size="14.00">SearchResultsPage</text>
<polygon fill="none" stroke="black" points="26,-125.5 26,-146.5 225,-146.5 225,-125.5 26,-125.5"/>
<text text-anchor="start" x="82" y="-133.3" font-family="Times New Roman,serif" font-weight="bold" font-size="14.00">String pageID</text>
<polygon fill="none" stroke="black" points="26,-104.5 26,-125.5 225,-125.5 225,-104.5 26,-104.5"/>
<text text-anchor="start" x="93" y="-112.3" font-family="Times New Roman,serif" font-weight="bold" font-size="14.00">String title</text>
<polygon fill="none" stroke="black" points="26,-83.5 26,-104.5 225,-104.5 225,-83.5 26,-83.5"/>
<text text-anchor="start" x="45" y="-91.3" font-family="Times New Roman,serif" font-weight="bold" font-size="14.00">ListView searchResultList</text>
<polygon fill="none" stroke="black" points="26,-62.5 26,-83.5 225,-83.5 225,-62.5 26,-62.5"/>
<text text-anchor="start" x="29" y="-70.3" font-family="Times New Roman,serif" font-weight="bold" font-size="14.00">void displaySearchInvalidMsg()</text>
<polygon fill="none" stroke="black" points="26,-41.5 26,-62.5 225,-62.5 225,-41.5 26,-41.5"/>
<text text-anchor="start" x="59" y="-49.3" font-family="Times New Roman,serif" font-weight="bold" font-size="14.00">void displayItemList()</text>
<polygon fill="none" stroke="black" points="26,-20.5 26,-41.5 225,-41.5 225,-20.5 26,-20.5"/>
<text text-anchor="start" x="33.5" y="-28.3" font-family="Times New Roman,serif" font-weight="bold" font-size="14.00">void displayEmptyListNotice()</text>
<polygon fill="none" stroke="black" points="24.5,-20 24.5,-169 225.5,-169 225.5,-20 24.5,-20"/>
</g>
<!-- EAID_46BEFB5E_3E95_41ab_9C5A_47F9E14FA8CE&#45;&gt;EAID_95C25856_C5F6_475d_B9C2_27FA161F4E34 -->
<g id="edge9" class="edge"><title>EAID_46BEFB5E_3E95_41ab_9C5A_47F9E14FA8CE&#45;&gt;EAID_95C25856_C5F6_475d_B9C2_27FA161F4E34</title>
<path fill="none" stroke="black" stroke-dasharray="5,2" d="M298.053,-306.953C312.736,-297.922 326.622,-286.099 335,-271 347.722,-248.071 352.721,-231.328 335,-212 321.132,-196.874 261.779,-212.276 243,-204 228.899,-197.785 215.377,-189.183 202.845,-179.517"/>
<polygon fill="black" stroke="black" points="204.745,-176.555 194.755,-173.026 200.364,-182.014 204.745,-176.555"/>
</g>
<!-- EAID_AB51EFD8_6E60_4c81_96A9_7F5849659A41 -->
<g id="node5" class="node"><title>EAID_AB51EFD8_6E60_4c81_96A9_7F5849659A41</title>
<image xlink:href="img/out_of_scope_activity_icon.png" width="30px" height="19px" preserveAspectRatio="xMinYMin meet" x="96" y="-264.5"/>
<text text-anchor="start" x="38" y="-231.3" font-family="Times New Roman,serif" font-weight="bold" font-size="14.00">displayEmptyListNotice</text>
</g>
<!-- EAID_051F05EC_D785_41de_B088_775A722963C3&#45;&gt;EAID_AB51EFD8_6E60_4c81_96A9_7F5849659A41 -->
<g id="edge3" class="edge"><title>EAID_051F05EC_D785_41de_B088_775A722963C3&#45;&gt;EAID_AB51EFD8_6E60_4c81_96A9_7F5849659A41</title>
<path fill="none" stroke="black" d="M88.9665,-306.914C92.0131,-298.561 95.4719,-289.077 98.7312,-280.14"/>
<polygon fill="black" stroke="black" points="102.023,-281.331 102.161,-270.737 95.4462,-278.932 102.023,-281.331"/>
</g>
<!-- EAID_B891C645_35D8_4041_B74E_938604A9AE96 -->
<g id="node6" class="node"><title>EAID_B891C645_35D8_4041_B74E_938604A9AE96</title>
<image xlink:href="img/activity_icon.png" width="30px" height="20px" preserveAspectRatio="xMinYMin meet" x="254" y="-264.5"/>
<text text-anchor="start" x="222" y="-230.3" font-family="Times New Roman,serif" font-weight="bold" font-size="14.00">displayItemList</text>
</g>
<!-- EAID_051F05EC_D785_41de_B088_775A722963C3&#45;&gt;EAID_B891C645_35D8_4041_B74E_938604A9AE96 -->
<g id="edge2" class="edge"><title>EAID_051F05EC_D785_41de_B088_775A722963C3&#45;&gt;EAID_B891C645_35D8_4041_B74E_938604A9AE96</title>
<path fill="none" stroke="black" d="M132.145,-308.048C154.717,-297.897 181.353,-285.918 205.099,-275.238"/>
<polygon fill="black" stroke="black" points="206.702,-278.355 214.387,-271.061 203.831,-271.971 206.702,-278.355"/>
</g>
<!-- EAID_BD32CCE3_9A4B_4aac_B926_D0CC90123FBB -->
<g id="node8" class="node"><title>EAID_BD32CCE3_9A4B_4aac_B926_D0CC90123FBB</title>
<polygon fill="none" stroke="black" points="261,-94.5 261,-115.5 415,-115.5 415,-94.5 261,-94.5"/>
<text text-anchor="start" x="313.5" y="-102.3" font-family="Times New Roman,serif" font-weight="bold" font-size="14.00">Catalog</text>
<polygon fill="none" stroke="black" points="261,-73.5 261,-94.5 415,-94.5 415,-73.5 261,-73.5"/>
<text text-anchor="start" x="264" y="-81.3" font-family="Times New Roman,serif" font-weight="bold" font-size="14.00">ItemList queryCatalog()</text>
<polygon fill="none" stroke="black" points="260,-72.5 260,-116.5 416,-116.5 416,-72.5 260,-72.5"/>
</g>
<!-- EAID_051F05EC_D785_41de_B088_775A722963C3&#45;&gt;EAID_BD32CCE3_9A4B_4aac_B926_D0CC90123FBB -->
<g id="edge10" class="edge"><title>EAID_051F05EC_D785_41de_B088_775A722963C3&#45;&gt;EAID_BD32CCE3_9A4B_4aac_B926_D0CC90123FBB</title>
<path fill="none" stroke="black" stroke-dasharray="5,2" d="M132.004,-309.823C135.027,-308.81 138.041,-307.86 141,-307 225.213,-282.538 278.358,-337.948 335,-271 367.794,-232.24 359.172,-169.595 349.153,-130.572"/>
<polygon fill="black" stroke="black" points="352.471,-129.437 346.462,-120.711 345.718,-131.279 352.471,-129.437"/>
</g>
<!-- EAID_AB51EFD8_6E60_4c81_96A9_7F5849659A41&#45;&gt;EAID_95C25856_C5F6_475d_B9C2_27FA161F4E34 -->
<g id="edge11" class="edge"><title>EAID_AB51EFD8_6E60_4c81_96A9_7F5849659A41&#45;&gt;EAID_95C25856_C5F6_475d_B9C2_27FA161F4E34</title>
<path fill="none" stroke="black" stroke-dasharray="5,2" d="M113.281,-220.229C114.266,-209.745 115.484,-196.776 116.759,-183.203"/>
<polygon fill="black" stroke="black" points="120.245,-183.524 117.696,-173.241 113.275,-182.869 120.245,-183.524"/>
</g>
<!-- EAID_B891C645_35D8_4041_B74E_938604A9AE96&#45;&gt;EAID_95C25856_C5F6_475d_B9C2_27FA161F4E34 -->
<g id="edge12" class="edge"><title>EAID_B891C645_35D8_4041_B74E_938604A9AE96&#45;&gt;EAID_95C25856_C5F6_475d_B9C2_27FA161F4E34</title>
<path fill="none" stroke="black" stroke-dasharray="5,2" d="M245.221,-219.896C234.541,-208.845 221.242,-195.083 207.418,-180.78"/>
<polygon fill="black" stroke="black" points="209.619,-178.021 200.153,-173.263 204.586,-182.886 209.619,-178.021"/>
</g>
<!-- EAID_5AFF5212_D7A0_41bd_BFBA_3FD0A111293F_STL -->
<g id="node7" class="node"><title>EAID_5AFF5212_D7A0_41bd_BFBA_3FD0A111293F_STL</title>
<image xlink:href="img/stimulus_icon.png" width="30px" height="20px" preserveAspectRatio="xMinYMin meet" x="249" y="-623.5"/>
<text text-anchor="start" x="224" y="-589.3" font-family="Times New Roman,serif" font-weight="bold" font-size="14.00">stl#onSearch</text>
</g>
<!-- EAID_5AFF5212_D7A0_41bd_BFBA_3FD0A111293F_STL&#45;&gt;EAID_5AFF5212_D7A0_41bd_BFBA_3FD0A111293F -->
<g id="edge6" class="edge"><title>EAID_5AFF5212_D7A0_41bd_BFBA_3FD0A111293F_STL&#45;&gt;EAID_5AFF5212_D7A0_41bd_BFBA_3FD0A111293F</title>
<path fill="none" stroke="black" d="M264,-578.778C264,-567.692 264,-554.42 264,-542.351"/>
<polygon fill="black" stroke="black" points="267.5,-542.139 264,-532.139 260.5,-542.139 267.5,-542.139"/>
</g>
</g>
</svg>
