<?xml version="1.0" encoding="UTF-8" standalone="no"?>
<!DOCTYPE svg PUBLIC "-//W3C//DTD SVG 1.1//EN"
 "http://www.w3.org/Graphics/SVG/1.1/DTD/svg11.dtd">
<!-- Generated by graphviz version 2.38.0 (20140413.2041)
 -->
<!-- Title: g Pages: 1 -->
<svg width="962pt" height="584pt"
 viewBox="0.00 0.00 962.00 584.00" xmlns="http://www.w3.org/2000/svg" xmlns:xlink="http://www.w3.org/1999/xlink">
<g id="graph0" class="graph" transform="scale(1 1) rotate(0) translate(4 580)">
<title>g</title>
<polygon fill="white" stroke="none" points="-4,4 -4,-580 958,-580 958,4 -4,4"/>
<g id="clust3" class="cluster"><title>cluster1000</title>
<polygon fill="none" stroke="black" points="200,-367 200,-568 946,-568 946,-367 200,-367"/>
<text text-anchor="middle" x="573" y="-552.8" font-family="Times New Roman,serif" font-size="14.00">Domain Model</text>
</g>
<g id="clust1" class="cluster"><title>cluster0</title>
<polygon fill="none" stroke="black" stroke-width="2" points="8,-8 8,-359 304,-359 304,-8 8,-8"/>
<text text-anchor="middle" x="156" y="-343.8" font-family="Times New Roman,serif" font-size="14.00">System</text>
</g>
<g id="clust2" class="cluster"><title>cluster1</title>
<polygon fill="none" stroke="black" points="122,-422.5 122,-512.5 192,-512.5 192,-422.5 122,-422.5"/>
<text text-anchor="middle" x="157" y="-497.3" font-family="Times New Roman,serif" font-size="14.00">User</text>
</g>
<!-- EAID_5AFF5212_D7A0_41bd_BFBA_3FD0A111293F -->
<g id="node1" class="node"><title>EAID_5AFF5212_D7A0_41bd_BFBA_3FD0A111293F</title>
<image xlink:href="img/activity_icon.png" width="30px" height="20px" preserveAspectRatio="xMinYMin meet" x="142.5" y="-321.5"/>
<text text-anchor="start" x="131" y="-286.3" font-family="Times New Roman,serif" font-size="14.00">onSearch</text>
</g>
<!-- EAID_16B7023E_6AAB_4a2f_B199_F6EADF40E6E4 -->
<g id="node2" class="node"><title>EAID_16B7023E_6AAB_4a2f_B199_F6EADF40E6E4</title>
<image xlink:href="img/activity_icon.png" width="30px" height="20px" preserveAspectRatio="xMinYMin meet" x="142.5" y="-234.5"/>
<text text-anchor="start" x="90" y="-199.3" font-family="Times New Roman,serif" font-size="14.00">searchItemByKeywords</text>
</g>
<!-- EAID_5AFF5212_D7A0_41bd_BFBA_3FD0A111293F&#45;&gt;EAID_16B7023E_6AAB_4a2f_B199_F6EADF40E6E4 -->
<g id="edge1" class="edge"><title>EAID_5AFF5212_D7A0_41bd_BFBA_3FD0A111293F&#45;&gt;EAID_16B7023E_6AAB_4a2f_B199_F6EADF40E6E4</title>
<path fill="none" stroke="black" d="M157,-276.914C157,-268.897 157,-259.839 157,-251.222"/>
<polygon fill="black" stroke="black" points="160.5,-251.03 157,-241.03 153.5,-251.03 160.5,-251.03"/>
</g>
<!-- EAID_46BEFB5E_3E95_41ab_9C5A_47F9E14FA8CE -->
<g id="node3" class="node"><title>EAID_46BEFB5E_3E95_41ab_9C5A_47F9E14FA8CE</title>
<image xlink:href="img/activity_icon.png" width="30px" height="20px" preserveAspectRatio="xMinYMin meet" x="82.5" y="-147.5"/>
<text text-anchor="start" x="27" y="-112.3" font-family="Times New Roman,serif" font-size="14.00">displaySearchInvalidMsg</text>
</g>
<!-- EAID_16B7023E_6AAB_4a2f_B199_F6EADF40E6E4&#45;&gt;EAID_46BEFB5E_3E95_41ab_9C5A_47F9E14FA8CE -->
<g id="edge4" class="edge"><title>EAID_16B7023E_6AAB_4a2f_B199_F6EADF40E6E4&#45;&gt;EAID_46BEFB5E_3E95_41ab_9C5A_47F9E14FA8CE</title>
<path fill="none" stroke="black" d="M139.646,-189.914C133.551,-181.28 126.604,-171.439 120.112,-162.242"/>
<polygon fill="black" stroke="black" points="122.942,-160.182 114.315,-154.03 117.223,-164.218 122.942,-160.182"/>
</g>
<!-- EAID_051F05EC_D785_41de_B088_775A722963C3 -->
<g id="node4" class="node"><title>EAID_051F05EC_D785_41de_B088_775A722963C3</title>
<image xlink:href="img/activity_icon.png" width="30px" height="20px" preserveAspectRatio="xMinYMin meet" x="228.5" y="-147.5"/>
<text text-anchor="start" x="206" y="-112.3" font-family="Times New Roman,serif" font-size="14.00">queryCatalog</text>
</g>
<!-- EAID_16B7023E_6AAB_4a2f_B199_F6EADF40E6E4&#45;&gt;EAID_051F05EC_D785_41de_B088_775A722963C3 -->
<g id="edge5" class="edge"><title>EAID_16B7023E_6AAB_4a2f_B199_F6EADF40E6E4&#45;&gt;EAID_051F05EC_D785_41de_B088_775A722963C3</title>
<path fill="none" stroke="black" d="M181.875,-189.914C190.967,-180.928 201.382,-170.634 211.009,-161.119"/>
<polygon fill="black" stroke="black" points="213.529,-163.549 218.181,-154.03 208.608,-158.571 213.529,-163.549"/>
</g>
<!-- EAID_AB51EFD8_6E60_4c81_96A9_7F5849659A41 -->
<g id="node5" class="node"><title>EAID_AB51EFD8_6E60_4c81_96A9_7F5849659A41</title>
<image xlink:href="img/out_of_scope_activity_icon.png" width="30px" height="19px" preserveAspectRatio="xMinYMin meet" x="79.5" y="-60.5"/>
<text text-anchor="start" x="27" y="-26.3" font-family="Times New Roman,serif" font-size="14.00">displayEmptyListNotice</text>
</g>
<!-- EAID_051F05EC_D785_41de_B088_775A722963C3&#45;&gt;EAID_AB51EFD8_6E60_4c81_96A9_7F5849659A41 -->
<g id="edge3" class="edge"><title>EAID_051F05EC_D785_41de_B088_775A722963C3&#45;&gt;EAID_AB51EFD8_6E60_4c81_96A9_7F5849659A41</title>
<path fill="none" stroke="black" d="M199.903,-102.914C182.85,-93.1861 163.109,-81.9248 145.326,-71.7798"/>
<polygon fill="black" stroke="black" points="146.649,-68.5054 136.229,-66.5903 143.181,-74.5856 146.649,-68.5054"/>
</g>
<!-- EAID_B891C645_35D8_4041_B74E_938604A9AE96 -->
<g id="node6" class="node"><title>EAID_B891C645_35D8_4041_B74E_938604A9AE96</title>
<image xlink:href="img/activity_icon.png" width="30px" height="20px" preserveAspectRatio="xMinYMin meet" x="228" y="-60.5"/>
<text text-anchor="start" x="200" y="-25.3" font-family="Times New Roman,serif" font-size="14.00">displayItemList</text>
</g>
<!-- EAID_051F05EC_D785_41de_B088_775A722963C3&#45;&gt;EAID_B891C645_35D8_4041_B74E_938604A9AE96 -->
<g id="edge2" class="edge"><title>EAID_051F05EC_D785_41de_B088_775A722963C3&#45;&gt;EAID_B891C645_35D8_4041_B74E_938604A9AE96</title>
<path fill="none" stroke="black" d="M243,-102.914C243,-94.8972 243,-85.8388 243,-77.2221"/>
<polygon fill="black" stroke="black" points="246.5,-77.0302 243,-67.0303 239.5,-77.0303 246.5,-77.0302"/>
</g>
<!-- 12345678 -->
<g id="node7" class="node"><title>12345678</title>
<image xlink:href="img/stimulus_icon.png" width="28px" height="20px" preserveAspectRatio="xMinYMin meet" x="143" y="-475"/>
<text text-anchor="start" x="143" y="-439.8" font-family="Times New Roman,serif" font-size="14.00">stl#1</text>
</g>
<!-- 12345678&#45;&gt;EAID_5AFF5212_D7A0_41bd_BFBA_3FD0A111293F -->
<g id="edge6" class="edge"><title>12345678&#45;&gt;EAID_5AFF5212_D7A0_41bd_BFBA_3FD0A111293F</title>
<path fill="none" stroke="black" d="M157,-430.322C157,-405.341 157,-366.489 157,-338.368"/>
<polygon fill="black" stroke="black" points="160.5,-338.168 157,-328.168 153.5,-338.168 160.5,-338.168"/>
</g>
<!-- EAID_BD32CCE3_9A4B_4aac_B926_D0CC90123FBB -->
<g id="node8" class="node"><title>EAID_BD32CCE3_9A4B_4aac_B926_D0CC90123FBB</title>
<path fill="none" stroke="black" d="M800.5,-433C800.5,-433 925.5,-433 925.5,-433 931.5,-433 937.5,-439 937.5,-445 937.5,-445 937.5,-467 937.5,-467 937.5,-473 931.5,-479 925.5,-479 925.5,-479 800.5,-479 800.5,-479 794.5,-479 788.5,-473 788.5,-467 788.5,-467 788.5,-445 788.5,-445 788.5,-439 794.5,-433 800.5,-433"/>
<text text-anchor="middle" x="863" y="-463.8" font-family="Times New Roman,serif" font-size="14.00">Catalog</text>
<polyline fill="none" stroke="black" points="788.5,-456 937.5,-456 "/>
<text text-anchor="middle" x="863" y="-440.8" font-family="Times New Roman,serif" font-size="14.00">ItemList queryCatalog()</text>
</g>
<!-- EAID_6F0ED3B7_B3EB_4f6d_94C9_17E9B1FE25DA -->
<g id="node9" class="node"><title>EAID_6F0ED3B7_B3EB_4f6d_94C9_17E9B1FE25DA</title>
<path fill="none" stroke="black" d="M588,-433C588,-433 758,-433 758,-433 764,-433 770,-439 770,-445 770,-445 770,-467 770,-467 770,-473 764,-479 758,-479 758,-479 588,-479 588,-479 582,-479 576,-473 576,-467 576,-467 576,-445 576,-445 576,-439 582,-433 588,-433"/>
<text text-anchor="middle" x="673" y="-463.8" font-family="Times New Roman,serif" font-size="14.00">ItemManager</text>
<polyline fill="none" stroke="black" points="576,-456 770,-456 "/>
<text text-anchor="middle" x="673" y="-440.8" font-family="Times New Roman,serif" font-size="14.00">void searchItemsByKeywords()</text>
</g>
<!-- EAID_CC8035CD_7CA2_4fcc_806D_98507CF458CD -->
<g id="node10" class="node"><title>EAID_CC8035CD_7CA2_4fcc_806D_98507CF458CD</title>
<path fill="none" stroke="black" d="M432.5,-398.5C432.5,-398.5 545.5,-398.5 545.5,-398.5 551.5,-398.5 557.5,-404.5 557.5,-410.5 557.5,-410.5 557.5,-501.5 557.5,-501.5 557.5,-507.5 551.5,-513.5 545.5,-513.5 545.5,-513.5 432.5,-513.5 432.5,-513.5 426.5,-513.5 420.5,-507.5 420.5,-501.5 420.5,-501.5 420.5,-410.5 420.5,-410.5 420.5,-404.5 426.5,-398.5 432.5,-398.5"/>
<text text-anchor="middle" x="489" y="-498.3" font-family="Times New Roman,serif" font-size="14.00">ItemSearchPage</text>
<polyline fill="none" stroke="black" points="420.5,-490.5 557.5,-490.5 "/>
<text text-anchor="middle" x="489" y="-475.3" font-family="Times New Roman,serif" font-size="14.00">int pageID</text>
<polyline fill="none" stroke="black" points="420.5,-467.5 557.5,-467.5 "/>
<text text-anchor="middle" x="489" y="-452.3" font-family="Times New Roman,serif" font-size="14.00">InputField searchBox</text>
<polyline fill="none" stroke="black" points="420.5,-444.5 557.5,-444.5 "/>
<text text-anchor="middle" x="489" y="-429.3" font-family="Times New Roman,serif" font-size="14.00">Button searchButton</text>
<polyline fill="none" stroke="black" points="420.5,-421.5 557.5,-421.5 "/>
<text text-anchor="middle" x="489" y="-406.3" font-family="Times New Roman,serif" font-size="14.00">void onSearch()</text>
</g>
<!-- EAID_95C25856_C5F6_475d_B9C2_27FA161F4E34 -->
<g id="node11" class="node"><title>EAID_95C25856_C5F6_475d_B9C2_27FA161F4E34</title>
<path fill="none" stroke="black" d="M220,-375.5C220,-375.5 390,-375.5 390,-375.5 396,-375.5 402,-381.5 402,-387.5 402,-387.5 402,-524.5 402,-524.5 402,-530.5 396,-536.5 390,-536.5 390,-536.5 220,-536.5 220,-536.5 214,-536.5 208,-530.5 208,-524.5 208,-524.5 208,-387.5 208,-387.5 208,-381.5 214,-375.5 220,-375.5"/>
<text text-anchor="middle" x="305" y="-521.3" font-family="Times New Roman,serif" font-size="14.00">SearchResultsPage</text>
<polyline fill="none" stroke="black" points="208,-513.5 402,-513.5 "/>
<text text-anchor="middle" x="305" y="-498.3" font-family="Times New Roman,serif" font-size="14.00">String pageID</text>
<polyline fill="none" stroke="black" points="208,-490.5 402,-490.5 "/>
<text text-anchor="middle" x="305" y="-475.3" font-family="Times New Roman,serif" font-size="14.00">String title</text>
<polyline fill="none" stroke="black" points="208,-467.5 402,-467.5 "/>
<text text-anchor="middle" x="305" y="-452.3" font-family="Times New Roman,serif" font-size="14.00">ListView searchResultList</text>
<polyline fill="none" stroke="black" points="208,-444.5 402,-444.5 "/>
<text text-anchor="middle" x="305" y="-429.3" font-family="Times New Roman,serif" font-size="14.00">void displaySearchInvalidMsg()</text>
<polyline fill="none" stroke="black" points="208,-421.5 402,-421.5 "/>
<text text-anchor="middle" x="305" y="-406.3" font-family="Times New Roman,serif" font-size="14.00">void displayItemList()</text>
<polyline fill="none" stroke="black" points="208,-398.5 402,-398.5 "/>
<text text-anchor="middle" x="305" y="-383.3" font-family="Times New Roman,serif" font-size="14.00">void displayEmptyListNotice()</text>
</g>
</g>
</svg>
