<?xml version="1.0" encoding="UTF-8" standalone="no"?>
<!DOCTYPE svg PUBLIC "-//W3C//DTD SVG 1.1//EN"
 "http://www.w3.org/Graphics/SVG/1.1/DTD/svg11.dtd">
<!-- Generated by graphviz version 2.38.0 (20140413.2041)
 -->
<!-- Title: g Pages: 1 -->
<svg width="3664pt" height="812pt"
 viewBox="0.00 0.00 3664.00 812.00" xmlns="http://www.w3.org/2000/svg" xmlns:xlink="http://www.w3.org/1999/xlink">
<g id="graph0" class="graph" transform="scale(1 1) rotate(0) translate(4 808)">
<title>g</title>
<polygon fill="white" stroke="none" points="-4,4 -4,-808 3660,-808 3660,4 -4,4"/>
<g id="clust1" class="cluster"><title>cluster0</title>
<polygon fill="none" stroke="black" stroke-width="2" points="1689,-254 1689,-685 2169,-685 2169,-254 1689,-254"/>
<text text-anchor="start" x="1907" y="-670.8" font-family="Times New Roman,serif" font-weight="bold" font-size="14.00">System</text>
</g>
<g id="clust3" class="cluster"><title>cluster1000</title>
<polygon fill="none" stroke="black" stroke-width="2" points="8,-8 8,-246 3648,-246 3648,-8 8,-8"/>
<text text-anchor="start" x="1782.5" y="-231.8" font-family="Times New Roman,serif" font-weight="bold" font-size="14.00">Domain Model</text>
</g>
<g id="clust2" class="cluster"><title>cluster1</title>
<polygon fill="none" stroke="black" stroke-width="2" points="1855,-693 1855,-796 2191,-796 2191,-693 1855,-693"/>
<text text-anchor="start" x="2008.5" y="-781.8" font-family="Times New Roman,serif" font-weight="bold" font-size="14.00">User</text>
</g>
<!-- EAID_0180545D_7AF5_4f7e_AD40_615E47E49A4A___EAID_8DB10B0B_B519_4591_B957_2B153841CAB7 -->
<g id="node1" class="node"><title>EAID_0180545D_7AF5_4f7e_AD40_615E47E49A4A___EAID_8DB10B0B_B519_4591_B957_2B153841CAB7</title>
<image xlink:href="img/activity_icon.png" width="30px" height="20px" preserveAspectRatio="xMinYMin meet" x="2087" y="-641"/>
<text text-anchor="start" x="2053" y="-606.8" font-family="Times New Roman,serif" font-weight="bold" font-size="14.00">User:Homepage</text>
</g>
<!-- EAID_D2A5D2D3_54BB_4fb8_AA8D_054280797500 -->
<g id="node9" class="node"><title>EAID_D2A5D2D3_54BB_4fb8_AA8D_054280797500</title>
<polygon fill="none" stroke="black" points="3436,-167.5 3436,-188.5 3631,-188.5 3631,-167.5 3436,-167.5"/>
<text text-anchor="start" x="3494.5" y="-175.3" font-family="Times New Roman,serif" font-weight="bold" font-size="14.00">Event Image</text>
<polygon fill="none" stroke="black" points="3436,-146.5 3436,-167.5 3631,-167.5 3631,-146.5 3436,-146.5"/>
<text text-anchor="start" x="3441.5" y="-154.3" font-family="Times New Roman,serif" font-weight="bold" font-size="14.00">EAJava_void BMP JPG PNG</text>
<polygon fill="none" stroke="black" points="3436,-125.5 3436,-146.5 3631,-146.5 3631,-125.5 3436,-125.5"/>
<text text-anchor="start" x="3492" y="-133.3" font-family="Times New Roman,serif" font-weight="bold" font-size="14.00">EventImage()</text>
<polygon fill="none" stroke="black" points="3436,-104.5 3436,-125.5 3631,-125.5 3631,-104.5 3436,-104.5"/>
<text text-anchor="start" x="3496" y="-112.3" font-family="Times New Roman,serif" font-weight="bold" font-size="14.00">Homepage()</text>
<polygon fill="none" stroke="black" points="3436,-83.5 3436,-104.5 3631,-104.5 3631,-83.5 3436,-83.5"/>
<text text-anchor="start" x="3443" y="-91.3" font-family="Times New Roman,serif" font-weight="bold" font-size="14.00">Maintainsocialnetworkpage()</text>
<polygon fill="none" stroke="black" points="3436,-62.5 3436,-83.5 3631,-83.5 3631,-62.5 3436,-62.5"/>
<text text-anchor="start" x="3440.5" y="-70.3" font-family="Times New Roman,serif" font-weight="bold" font-size="14.00">ViewandRSVPforeventspage()</text>
<polygon fill="none" stroke="black" points="3436,-41.5 3436,-62.5 3631,-62.5 3631,-41.5 3436,-41.5"/>
<text text-anchor="start" x="3439" y="-49.3" font-family="Times New Roman,serif" font-weight="bold" font-size="14.00">selectpagesofupcomingevents()</text>
<polygon fill="none" stroke="black" points="3434.5,-41 3434.5,-190 3631.5,-190 3631.5,-41 3434.5,-41"/>
</g>
<!-- EAID_0180545D_7AF5_4f7e_AD40_615E47E49A4A___EAID_8DB10B0B_B519_4591_B957_2B153841CAB7&#45;&gt;EAID_D2A5D2D3_54BB_4fb8_AA8D_054280797500 -->
<g id="edge8" class="edge"><title>EAID_0180545D_7AF5_4f7e_AD40_615E47E49A4A___EAID_8DB10B0B_B519_4591_B957_2B153841CAB7&#45;&gt;EAID_D2A5D2D3_54BB_4fb8_AA8D_054280797500</title>
<path fill="none" stroke="black" stroke-dasharray="5,2" d="M2161.11,-615.857C2355.3,-596.652 2985.81,-515.774 3417,-246 3435.97,-234.13 3453.69,-218.273 3469.28,-201.734"/>
<polygon fill="black" stroke="black" points="3472.1,-203.832 3476.29,-194.099 3466.95,-199.097 3472.1,-203.832"/>
</g>
<!-- EAID_0180545D_7AF5_4f7e_AD40_615E47E49A4A___EAID_33CF9CCF_F2A5_4650_99BF_50664301FDE8 -->
<g id="node2" class="node"><title>EAID_0180545D_7AF5_4f7e_AD40_615E47E49A4A___EAID_33CF9CCF_F2A5_4650_99BF_50664301FDE8</title>
<image xlink:href="img/activity_icon.png" width="30px" height="20px" preserveAspectRatio="xMinYMin meet" x="1940.5" y="-648"/>
<text text-anchor="start" x="1896" y="-613.8" font-family="Times New Roman,serif" font-weight="bold" font-size="14.00">User:Apply for jobs</text>
<text text-anchor="start" x="1940.5" y="-599.8" font-family="Times New Roman,serif" font-weight="bold" font-size="14.00">page</text>
</g>
<!-- EAID_33CF9CCF_F2A5_4650_99BF_50664301FDE8___EAID_73002DBE_3271_434d_A581_13DBD81A9563 -->
<g id="node3" class="node"><title>EAID_33CF9CCF_F2A5_4650_99BF_50664301FDE8___EAID_73002DBE_3271_434d_A581_13DBD81A9563</title>
<image xlink:href="img/activity_icon.png" width="30px" height="20px" preserveAspectRatio="xMinYMin meet" x="1962.5" y="-548"/>
<text text-anchor="start" x="1934" y="-513.8" font-family="Times New Roman,serif" font-weight="bold" font-size="14.00">Apply for jobs</text>
<text text-anchor="start" x="1900" y="-499.8" font-family="Times New Roman,serif" font-weight="bold" font-size="14.00">page:Fill information and</text>
<text text-anchor="start" x="1943.5" y="-485.8" font-family="Times New Roman,serif" font-weight="bold" font-size="14.00">apply a job</text>
</g>
<!-- EAID_0180545D_7AF5_4f7e_AD40_615E47E49A4A___EAID_33CF9CCF_F2A5_4650_99BF_50664301FDE8&#45;&gt;EAID_33CF9CCF_F2A5_4650_99BF_50664301FDE8___EAID_73002DBE_3271_434d_A581_13DBD81A9563 -->
<g id="edge2" class="edge"><title>EAID_0180545D_7AF5_4f7e_AD40_615E47E49A4A___EAID_33CF9CCF_F2A5_4650_99BF_50664301FDE8&#45;&gt;EAID_33CF9CCF_F2A5_4650_99BF_50664301FDE8___EAID_73002DBE_3271_434d_A581_13DBD81A9563</title>
<path fill="none" stroke="black" d="M1961.54,-589.781C1963.22,-581.786 1965.06,-572.999 1966.87,-564.362"/>
<polygon fill="black" stroke="black" points="1970.34,-564.854 1968.97,-554.348 1963.49,-563.418 1970.34,-564.854"/>
</g>
<!-- EAID_F36D014D_3944_46ba_AF40_81E9DA847A29 -->
<g id="node13" class="node"><title>EAID_F36D014D_3944_46ba_AF40_81E9DA847A29</title>
<polygon fill="none" stroke="black" points="1908,-188.5 1908,-209.5 2082,-209.5 2082,-188.5 1908,-188.5"/>
<text text-anchor="start" x="1926" y="-196.3" font-family="Times New Roman,serif" font-weight="bold" font-size="14.00">Job Application Form </text>
<polygon fill="none" stroke="black" points="1908,-167.5 1908,-188.5 2082,-188.5 2082,-167.5 1908,-167.5"/>
<text text-anchor="start" x="1921.5" y="-175.3" font-family="Times New Roman,serif" font-weight="bold" font-size="14.00">EAJava_void Hyperlink</text>
<polygon fill="none" stroke="black" points="1908,-146.5 1908,-167.5 2082,-167.5 2082,-146.5 1908,-146.5"/>
<text text-anchor="start" x="1933" y="-154.3" font-family="Times New Roman,serif" font-weight="bold" font-size="14.00">EAJava_void String</text>
<polygon fill="none" stroke="black" points="1908,-125.5 1908,-146.5 2082,-146.5 2082,-125.5 1908,-125.5"/>
<text text-anchor="start" x="1927" y="-133.3" font-family="Times New Roman,serif" font-weight="bold" font-size="14.00">JobApplicationForm()</text>
<polygon fill="none" stroke="black" points="1908,-104.5 1908,-125.5 2082,-125.5 2082,-104.5 1908,-104.5"/>
<text text-anchor="start" x="1936" y="-112.3" font-family="Times New Roman,serif" font-weight="bold" font-size="14.00">Applyforjobspage()</text>
<polygon fill="none" stroke="black" points="1908,-83.5 1908,-104.5 2082,-104.5 2082,-83.5 1908,-83.5"/>
<text text-anchor="start" x="1919.5" y="-91.3" font-family="Times New Roman,serif" font-weight="bold" font-size="14.00">Showconfirmationpage()</text>
<polygon fill="none" stroke="black" points="1908,-62.5 1908,-83.5 2082,-83.5 2082,-62.5 1908,-62.5"/>
<text text-anchor="start" x="1923.5" y="-70.3" font-family="Times New Roman,serif" font-weight="bold" font-size="14.00">Applyfovolunteerpage()</text>
<polygon fill="none" stroke="black" points="1908,-41.5 1908,-62.5 2082,-62.5 2082,-41.5 1908,-41.5"/>
<text text-anchor="start" x="1927.5" y="-49.3" font-family="Times New Roman,serif" font-weight="bold" font-size="14.00">Donatingmoneypage()</text>
<polygon fill="none" stroke="black" points="1908,-20.5 1908,-41.5 2082,-41.5 2082,-20.5 1908,-20.5"/>
<text text-anchor="start" x="1911" y="-28.3" font-family="Times New Roman,serif" font-weight="bold" font-size="14.00">choosemethodfordonation()</text>
<polygon fill="none" stroke="black" points="1907,-20 1907,-211 2083,-211 2083,-20 1907,-20"/>
</g>
<!-- EAID_0180545D_7AF5_4f7e_AD40_615E47E49A4A___EAID_33CF9CCF_F2A5_4650_99BF_50664301FDE8&#45;&gt;EAID_F36D014D_3944_46ba_AF40_81E9DA847A29 -->
<g id="edge9" class="edge"><title>EAID_0180545D_7AF5_4f7e_AD40_615E47E49A4A___EAID_33CF9CCF_F2A5_4650_99BF_50664301FDE8&#45;&gt;EAID_F36D014D_3944_46ba_AF40_81E9DA847A29</title>
<path fill="none" stroke="black" stroke-dasharray="5,2" d="M2022.85,-589.827C2040.6,-579.856 2058.97,-567.775 2074,-554 2161.16,-474.132 2183.04,-440.865 2211,-326 2218.57,-294.908 2232.79,-277.434 2211,-254 2194.31,-236.052 2122.75,-257.29 2101,-246 2088.96,-239.754 2077.79,-231.48 2067.57,-222.127"/>
<polygon fill="black" stroke="black" points="2069.94,-219.544 2060.3,-215.139 2065.09,-224.592 2069.94,-219.544"/>
</g>
<!-- EAID_73002DBE_3271_434d_A581_13DBD81A9563___EAID_F988C819_C46D_4b85_9939_F8244A3E6737 -->
<g id="node5" class="node"><title>EAID_73002DBE_3271_434d_A581_13DBD81A9563___EAID_F988C819_C46D_4b85_9939_F8244A3E6737</title>
<image xlink:href="img/activity_icon.png" width="30px" height="20px" preserveAspectRatio="xMinYMin meet" x="2005" y="-434"/>
<text text-anchor="start" x="1959" y="-399.8" font-family="Times New Roman,serif" font-weight="bold" font-size="14.00">Fill information and</text>
<text text-anchor="start" x="1967" y="-385.8" font-family="Times New Roman,serif" font-weight="bold" font-size="14.00">apply a job:Show</text>
<text text-anchor="start" x="1964" y="-371.8" font-family="Times New Roman,serif" font-weight="bold" font-size="14.00">confirmation page</text>
</g>
<!-- EAID_33CF9CCF_F2A5_4650_99BF_50664301FDE8___EAID_73002DBE_3271_434d_A581_13DBD81A9563&#45;&gt;EAID_73002DBE_3271_434d_A581_13DBD81A9563___EAID_F988C819_C46D_4b85_9939_F8244A3E6737 -->
<g id="edge4" class="edge"><title>EAID_33CF9CCF_F2A5_4650_99BF_50664301FDE8___EAID_73002DBE_3271_434d_A581_13DBD81A9563&#45;&gt;EAID_73002DBE_3271_434d_A581_13DBD81A9563___EAID_F988C819_C46D_4b85_9939_F8244A3E6737</title>
<path fill="none" stroke="black" d="M1991.68,-475.769C1994.93,-467.299 1998.41,-458.225 2001.79,-449.438"/>
<polygon fill="black" stroke="black" points="2005.07,-450.649 2005.39,-440.058 1998.54,-448.14 2005.07,-450.649"/>
</g>
<!-- EAID_33CF9CCF_F2A5_4650_99BF_50664301FDE8___EAID_73002DBE_3271_434d_A581_13DBD81A9563&#45;&gt;EAID_F36D014D_3944_46ba_AF40_81E9DA847A29 -->
<g id="edge10" class="edge"><title>EAID_33CF9CCF_F2A5_4650_99BF_50664301FDE8___EAID_73002DBE_3271_434d_A581_13DBD81A9563&#45;&gt;EAID_F36D014D_3944_46ba_AF40_81E9DA847A29</title>
<path fill="none" stroke="black" stroke-dasharray="5,2" d="M2050.8,-475.961C2102.92,-444.117 2167.5,-393.094 2191,-326 2201.58,-295.798 2212.6,-277.608 2191,-254 2177.45,-239.187 2118.75,-255.392 2101,-246 2089.12,-239.712 2078.07,-231.466 2067.94,-222.176"/>
<polygon fill="black" stroke="black" points="2070.36,-219.649 2060.73,-215.24 2065.51,-224.695 2070.36,-219.649"/>
</g>
<!-- EAID_F988C819_C46D_4b85_9939_F8244A3E6737___EAID_33CF9CCF_F2A5_4650_99BF_50664301FDE8 -->
<g id="node4" class="node"><title>EAID_F988C819_C46D_4b85_9939_F8244A3E6737___EAID_33CF9CCF_F2A5_4650_99BF_50664301FDE8</title>
<image xlink:href="img/activity_icon.png" width="30px" height="20px" preserveAspectRatio="xMinYMin meet" x="1786" y="-320"/>
<text text-anchor="start" x="1707" y="-285.8" font-family="Times New Roman,serif" font-weight="bold" font-size="14.00">Show confirmation page:Apply</text>
<text text-anchor="start" x="1760.5" y="-271.8" font-family="Times New Roman,serif" font-weight="bold" font-size="14.00">for jobs page</text>
</g>
<!-- EAID_F988C819_C46D_4b85_9939_F8244A3E6737___EAID_33CF9CCF_F2A5_4650_99BF_50664301FDE8&#45;&gt;EAID_33CF9CCF_F2A5_4650_99BF_50664301FDE8___EAID_73002DBE_3271_434d_A581_13DBD81A9563 -->
<g id="edge5" class="edge"><title>EAID_F988C819_C46D_4b85_9939_F8244A3E6737___EAID_33CF9CCF_F2A5_4650_99BF_50664301FDE8&#45;&gt;EAID_33CF9CCF_F2A5_4650_99BF_50664301FDE8___EAID_73002DBE_3271_434d_A581_13DBD81A9563</title>
<path fill="none" stroke="black" d="M1826.18,-326.334C1855.95,-363.379 1905.76,-425.359 1939.94,-467.885"/>
<polygon fill="black" stroke="black" points="1937.35,-470.251 1946.34,-475.853 1942.81,-465.866 1937.35,-470.251"/>
</g>
<!-- EAID_F988C819_C46D_4b85_9939_F8244A3E6737___EAID_33CF9CCF_F2A5_4650_99BF_50664301FDE8&#45;&gt;EAID_F36D014D_3944_46ba_AF40_81E9DA847A29 -->
<g id="edge11" class="edge"><title>EAID_F988C819_C46D_4b85_9939_F8244A3E6737___EAID_33CF9CCF_F2A5_4650_99BF_50664301FDE8&#45;&gt;EAID_F36D014D_3944_46ba_AF40_81E9DA847A29</title>
<path fill="none" stroke="black" stroke-dasharray="5,2" d="M1867.56,-261.735C1875.44,-256.925 1883.11,-251.657 1890,-246 1898.65,-238.895 1907.08,-230.982 1915.16,-222.666"/>
<polygon fill="black" stroke="black" points="1917.84,-224.932 1922.18,-215.265 1912.76,-220.118 1917.84,-224.932"/>
</g>
<!-- EAID_73002DBE_3271_434d_A581_13DBD81A9563___EAID_F988C819_C46D_4b85_9939_F8244A3E6737&#45;&gt;EAID_F988C819_C46D_4b85_9939_F8244A3E6737___EAID_33CF9CCF_F2A5_4650_99BF_50664301FDE8 -->
<g id="edge6" class="edge"><title>EAID_73002DBE_3271_434d_A581_13DBD81A9563___EAID_F988C819_C46D_4b85_9939_F8244A3E6737&#45;&gt;EAID_F988C819_C46D_4b85_9939_F8244A3E6737___EAID_33CF9CCF_F2A5_4650_99BF_50664301FDE8</title>
<path fill="none" stroke="black" d="M1948.9,-365.91C1925.2,-354.547 1898.75,-341.866 1874.85,-330.406"/>
<polygon fill="black" stroke="black" points="1876.35,-327.246 1865.82,-326.078 1873.32,-333.558 1876.35,-327.246"/>
</g>
<!-- EAID_F988C819_C46D_4b85_9939_F8244A3E6737___EAID_8DB10B0B_B519_4591_B957_2B153841CAB7 -->
<g id="node6" class="node"><title>EAID_F988C819_C46D_4b85_9939_F8244A3E6737___EAID_8DB10B0B_B519_4591_B957_2B153841CAB7</title>
<image xlink:href="img/activity_icon.png" width="30px" height="20px" preserveAspectRatio="xMinYMin meet" x="2027" y="-313"/>
<text text-anchor="start" x="1933" y="-278.8" font-family="Times New Roman,serif" font-weight="bold" font-size="14.00">Show confirmation page:Homepage</text>
</g>
<!-- EAID_73002DBE_3271_434d_A581_13DBD81A9563___EAID_F988C819_C46D_4b85_9939_F8244A3E6737&#45;&gt;EAID_F988C819_C46D_4b85_9939_F8244A3E6737___EAID_8DB10B0B_B519_4591_B957_2B153841CAB7 -->
<g id="edge7" class="edge"><title>EAID_73002DBE_3271_434d_A581_13DBD81A9563___EAID_F988C819_C46D_4b85_9939_F8244A3E6737&#45;&gt;EAID_F988C819_C46D_4b85_9939_F8244A3E6737___EAID_8DB10B0B_B519_4591_B957_2B153841CAB7</title>
<path fill="none" stroke="black" d="M2028,-361.796C2030.22,-351.241 2032.6,-339.852 2034.77,-329.52"/>
<polygon fill="black" stroke="black" points="2038.22,-330.115 2036.84,-319.61 2031.37,-328.679 2038.22,-330.115"/>
</g>
<!-- EAID_73002DBE_3271_434d_A581_13DBD81A9563___EAID_F988C819_C46D_4b85_9939_F8244A3E6737&#45;&gt;EAID_F36D014D_3944_46ba_AF40_81E9DA847A29 -->
<g id="edge12" class="edge"><title>EAID_73002DBE_3271_434d_A581_13DBD81A9563___EAID_F988C819_C46D_4b85_9939_F8244A3E6737&#45;&gt;EAID_F36D014D_3944_46ba_AF40_81E9DA847A29</title>
<path fill="none" stroke="black" stroke-dasharray="5,2" d="M2091.12,-382.903C2120.86,-371.862 2152.52,-354.113 2170,-326 2186.9,-298.824 2191.28,-277.895 2170,-254 2159.73,-242.474 2114.55,-253.402 2101,-246 2089.42,-239.671 2078.61,-231.512 2068.67,-222.37"/>
<polygon fill="black" stroke="black" points="2070.86,-219.623 2061.23,-215.202 2066,-224.662 2070.86,-219.623"/>
</g>
<!-- EAID_F988C819_C46D_4b85_9939_F8244A3E6737___EAID_8DB10B0B_B519_4591_B957_2B153841CAB7&#45;&gt;EAID_D2A5D2D3_54BB_4fb8_AA8D_054280797500 -->
<g id="edge13" class="edge"><title>EAID_F988C819_C46D_4b85_9939_F8244A3E6737___EAID_8DB10B0B_B519_4591_B957_2B153841CAB7&#45;&gt;EAID_D2A5D2D3_54BB_4fb8_AA8D_054280797500</title>
<path fill="none" stroke="black" stroke-dasharray="5,2" d="M2161.2,-287.331C2342.51,-278.894 2698.49,-263.059 3001,-254 3024.11,-253.308 3395.99,-255.632 3417,-246 3438.85,-235.986 3458.33,-219.673 3474.8,-201.949"/>
<polygon fill="black" stroke="black" points="3477.6,-204.063 3481.67,-194.28 3472.39,-199.391 3477.6,-204.063"/>
</g>
<!-- EAID_0180545D_7AF5_4f7e_AD40_615E47E49A4A___EAID_8DB10B0B_B519_4591_B957_2B153841CAB7_STL -->
<g id="node7" class="node"><title>EAID_0180545D_7AF5_4f7e_AD40_615E47E49A4A___EAID_8DB10B0B_B519_4591_B957_2B153841CAB7_STL</title>
<image xlink:href="img/stimulus_icon.png" width="30px" height="20px" preserveAspectRatio="xMinYMin meet" x="2098" y="-752"/>
<text text-anchor="start" x="2053" y="-717.8" font-family="Times New Roman,serif" font-weight="bold" font-size="14.00">stl#User:Homepage</text>
</g>
<!-- EAID_0180545D_7AF5_4f7e_AD40_615E47E49A4A___EAID_8DB10B0B_B519_4591_B957_2B153841CAB7_STL&#45;&gt;EAID_0180545D_7AF5_4f7e_AD40_615E47E49A4A___EAID_8DB10B0B_B519_4591_B957_2B153841CAB7 -->
<g id="edge1" class="edge"><title>EAID_0180545D_7AF5_4f7e_AD40_615E47E49A4A___EAID_8DB10B0B_B519_4591_B957_2B153841CAB7_STL&#45;&gt;EAID_0180545D_7AF5_4f7e_AD40_615E47E49A4A___EAID_8DB10B0B_B519_4591_B957_2B153841CAB7</title>
<path fill="none" stroke="black" d="M2110.5,-707.266C2109.03,-692.633 2107.13,-673.87 2105.51,-657.765"/>
<polygon fill="black" stroke="black" points="2108.97,-657.234 2104.49,-647.636 2102.01,-657.937 2108.97,-657.234"/>
</g>
<!-- EAID_0180545D_7AF5_4f7e_AD40_615E47E49A4A___EAID_33CF9CCF_F2A5_4650_99BF_50664301FDE8_STL -->
<g id="node8" class="node"><title>EAID_0180545D_7AF5_4f7e_AD40_615E47E49A4A___EAID_33CF9CCF_F2A5_4650_99BF_50664301FDE8_STL</title>
<image xlink:href="img/stimulus_icon.png" width="30px" height="20px" preserveAspectRatio="xMinYMin meet" x="1929.5" y="-759"/>
<text text-anchor="start" x="1874" y="-724.8" font-family="Times New Roman,serif" font-weight="bold" font-size="14.00">stl#User:Apply for jobs</text>
<text text-anchor="start" x="1929.5" y="-710.8" font-family="Times New Roman,serif" font-weight="bold" font-size="14.00">page</text>
</g>
<!-- EAID_0180545D_7AF5_4f7e_AD40_615E47E49A4A___EAID_33CF9CCF_F2A5_4650_99BF_50664301FDE8_STL&#45;&gt;EAID_0180545D_7AF5_4f7e_AD40_615E47E49A4A___EAID_33CF9CCF_F2A5_4650_99BF_50664301FDE8 -->
<g id="edge3" class="edge"><title>EAID_0180545D_7AF5_4f7e_AD40_615E47E49A4A___EAID_33CF9CCF_F2A5_4650_99BF_50664301FDE8_STL&#45;&gt;EAID_0180545D_7AF5_4f7e_AD40_615E47E49A4A___EAID_33CF9CCF_F2A5_4650_99BF_50664301FDE8</title>
<path fill="none" stroke="black" d="M1947.15,-700.765C1948.29,-689.477 1949.6,-676.549 1950.81,-664.518"/>
<polygon fill="black" stroke="black" points="1954.33,-664.541 1951.85,-654.24 1947.36,-663.838 1954.33,-664.541"/>
</g>
<!-- EAID_DC4366CA_A307_4230_86FE_A9B27A20E5A8 -->
<g id="node10" class="node"><title>EAID_DC4366CA_A307_4230_86FE_A9B27A20E5A8</title>
<polygon fill="none" stroke="black" points="3005,-146.5 3005,-167.5 3399,-167.5 3399,-146.5 3005,-146.5"/>
<text text-anchor="start" x="3170" y="-154.3" font-family="Times New Roman,serif" font-weight="bold" font-size="14.00">Event LIst</text>
<polygon fill="none" stroke="black" points="3005,-125.5 3005,-146.5 3399,-146.5 3399,-125.5 3005,-125.5"/>
<text text-anchor="start" x="3128.5" y="-133.3" font-family="Times New Roman,serif" font-weight="bold" font-size="14.00">EAJava_void Hyperlink</text>
<polygon fill="none" stroke="black" points="3005,-104.5 3005,-125.5 3399,-125.5 3399,-104.5 3005,-104.5"/>
<text text-anchor="start" x="3140" y="-112.3" font-family="Times New Roman,serif" font-weight="bold" font-size="14.00">EAJava_void String</text>
<polygon fill="none" stroke="black" points="3005,-83.5 3005,-104.5 3399,-104.5 3399,-83.5 3005,-83.5"/>
<text text-anchor="start" x="3008" y="-91.3" font-family="Times New Roman,serif" font-weight="bold" font-size="14.00">EAID_55249C51_8176_4809_A8D0_33641B1F9301 undefined</text>
<polygon fill="none" stroke="black" points="3005,-62.5 3005,-83.5 3399,-83.5 3399,-62.5 3005,-62.5"/>
<text text-anchor="start" x="3167" y="-70.3" font-family="Times New Roman,serif" font-weight="bold" font-size="14.00">EventLIst()</text>
<polygon fill="none" stroke="black" points="3004,-62 3004,-169 3400,-169 3400,-62 3004,-62"/>
</g>
<!-- EAID_7A3494C3_720A_454b_95CE_252053DF6EB6 -->
<g id="node11" class="node"><title>EAID_7A3494C3_720A_454b_95CE_252053DF6EB6</title>
<polygon fill="none" stroke="black" points="2558,-136.5 2558,-157.5 2969,-157.5 2969,-136.5 2558,-136.5"/>
<text text-anchor="start" x="2723" y="-144.3" font-family="Times New Roman,serif" font-weight="bold" font-size="14.00">Event Profile</text>
<polygon fill="none" stroke="black" points="2558,-115.5 2558,-136.5 2969,-136.5 2969,-115.5 2558,-115.5"/>
<text text-anchor="start" x="2706" y="-123.3" font-family="Times New Roman,serif" font-weight="bold" font-size="14.00">EAJava_void PDF</text>
<polygon fill="none" stroke="black" points="2558,-94.5 2558,-115.5 2969,-115.5 2969,-94.5 2558,-94.5"/>
<text text-anchor="start" x="2561" y="-102.3" font-family="Times New Roman,serif" font-weight="bold" font-size="14.00">EAID_DC4366CA_A307_4230_86FE_A9B27A20E5A8 undefined</text>
<polygon fill="none" stroke="black" points="2558,-73.5 2558,-94.5 2969,-94.5 2969,-73.5 2558,-73.5"/>
<text text-anchor="start" x="2720.5" y="-81.3" font-family="Times New Roman,serif" font-weight="bold" font-size="14.00">EventProfile()</text>
<polygon fill="none" stroke="black" points="2556.5,-72.5 2556.5,-158.5 2969.5,-158.5 2969.5,-72.5 2556.5,-72.5"/>
</g>
<!-- EAID_C0DBA96F_0C4E_487e_A638_9727DADDEC58 -->
<g id="node12" class="node"><title>EAID_C0DBA96F_0C4E_487e_A638_9727DADDEC58</title>
<polygon fill="none" stroke="black" points="2119,-146.5 2119,-167.5 2522,-167.5 2522,-146.5 2119,-146.5"/>
<text text-anchor="start" x="2276.5" y="-154.3" font-family="Times New Roman,serif" font-weight="bold" font-size="14.00">Image Gallery</text>
<polygon fill="none" stroke="black" points="2119,-125.5 2119,-146.5 2522,-146.5 2522,-125.5 2119,-125.5"/>
<text text-anchor="start" x="2228.5" y="-133.3" font-family="Times New Roman,serif" font-weight="bold" font-size="14.00">EAJava_void BMP JPG PNG</text>
<polygon fill="none" stroke="black" points="2119,-104.5 2119,-125.5 2522,-125.5 2522,-104.5 2119,-104.5"/>
<text text-anchor="start" x="2122" y="-112.3" font-family="Times New Roman,serif" font-weight="bold" font-size="14.00">EAID_D2A5D2D3_54BB_4fb8_AA8D_054280797500 undefined</text>
<polygon fill="none" stroke="black" points="2119,-83.5 2119,-104.5 2522,-104.5 2522,-83.5 2119,-83.5"/>
<text text-anchor="start" x="2126.5" y="-91.3" font-family="Times New Roman,serif" font-weight="bold" font-size="14.00">EAID_55249C51_8176_4809_A8D0_33641B1F9301 undefined</text>
<polygon fill="none" stroke="black" points="2119,-62.5 2119,-83.5 2522,-83.5 2522,-62.5 2119,-62.5"/>
<text text-anchor="start" x="2273.5" y="-70.3" font-family="Times New Roman,serif" font-weight="bold" font-size="14.00">ImageGallery()</text>
<polygon fill="none" stroke="black" points="2117.5,-62 2117.5,-169 2522.5,-169 2522.5,-62 2117.5,-62"/>
</g>
<!-- EAID_F2442EDC_2B50_447d_B2CB_A592CFDF2245 -->
<g id="node14" class="node"><title>EAID_F2442EDC_2B50_447d_B2CB_A592CFDF2245</title>
<polygon fill="none" stroke="black" points="1469,-178.5 1469,-199.5 1872,-199.5 1872,-178.5 1469,-178.5"/>
<text text-anchor="start" x="1617.5" y="-186.3" font-family="Times New Roman,serif" font-weight="bold" font-size="14.00">Job Opening List</text>
<polygon fill="none" stroke="black" points="1469,-157.5 1469,-178.5 1872,-178.5 1872,-157.5 1469,-157.5"/>
<text text-anchor="start" x="1597" y="-165.3" font-family="Times New Roman,serif" font-weight="bold" font-size="14.00">EAJava_void Hyperlink</text>
<polygon fill="none" stroke="black" points="1469,-136.5 1469,-157.5 1872,-157.5 1872,-136.5 1469,-136.5"/>
<text text-anchor="start" x="1608.5" y="-144.3" font-family="Times New Roman,serif" font-weight="bold" font-size="14.00">EAJava_void String</text>
<polygon fill="none" stroke="black" points="1469,-115.5 1469,-136.5 1872,-136.5 1872,-115.5 1469,-115.5"/>
<text text-anchor="start" x="1476.5" y="-123.3" font-family="Times New Roman,serif" font-weight="bold" font-size="14.00">EAID_55249C51_8176_4809_A8D0_33641B1F9301 undefined</text>
<polygon fill="none" stroke="black" points="1469,-94.5 1469,-115.5 1872,-115.5 1872,-94.5 1469,-94.5"/>
<text text-anchor="start" x="1472" y="-102.3" font-family="Times New Roman,serif" font-weight="bold" font-size="14.00">EAID_46E22B70_ABA4_415a_A547_470E2B60375D undefined</text>
<polygon fill="none" stroke="black" points="1469,-73.5 1469,-94.5 1872,-94.5 1872,-73.5 1469,-73.5"/>
<text text-anchor="start" x="1617" y="-81.3" font-family="Times New Roman,serif" font-weight="bold" font-size="14.00">JobOpeningList()</text>
<polygon fill="none" stroke="black" points="1469,-52.5 1469,-73.5 1872,-73.5 1872,-52.5 1469,-52.5"/>
<text text-anchor="start" x="1617" y="-60.3" font-family="Times New Roman,serif" font-weight="bold" font-size="14.00">Viewjoblistpage()</text>
<polygon fill="none" stroke="black" points="1469,-31.5 1469,-52.5 1872,-52.5 1872,-31.5 1469,-31.5"/>
<text text-anchor="start" x="1626" y="-39.3" font-family="Times New Roman,serif" font-weight="bold" font-size="14.00">selectajoblist()</text>
<polygon fill="none" stroke="black" points="1467.5,-30.5 1467.5,-200.5 1872.5,-200.5 1872.5,-30.5 1467.5,-30.5"/>
</g>
<!-- EAID_46E22B70_ABA4_415a_A547_470E2B60375D -->
<g id="node15" class="node"><title>EAID_46E22B70_ABA4_415a_A547_470E2B60375D</title>
<polygon fill="none" stroke="black" points="1030,-136.5 1030,-157.5 1433,-157.5 1433,-136.5 1030,-136.5"/>
<text text-anchor="start" x="1197.5" y="-144.3" font-family="Times New Roman,serif" font-weight="bold" font-size="14.00">Job Profile</text>
<polygon fill="none" stroke="black" points="1030,-115.5 1030,-136.5 1433,-136.5 1433,-115.5 1030,-115.5"/>
<text text-anchor="start" x="1174" y="-123.3" font-family="Times New Roman,serif" font-weight="bold" font-size="14.00">EAJava_void PDF</text>
<polygon fill="none" stroke="black" points="1030,-94.5 1030,-115.5 1433,-115.5 1433,-94.5 1030,-94.5"/>
<text text-anchor="start" x="1033" y="-102.3" font-family="Times New Roman,serif" font-weight="bold" font-size="14.00">EAID_F36D014D_3944_46ba_AF40_81E9DA847A29 undefined</text>
<polygon fill="none" stroke="black" points="1030,-73.5 1030,-94.5 1433,-94.5 1433,-73.5 1030,-73.5"/>
<text text-anchor="start" x="1195" y="-81.3" font-family="Times New Roman,serif" font-weight="bold" font-size="14.00">JobProfile()</text>
<polygon fill="none" stroke="black" points="1028.5,-72.5 1028.5,-158.5 1433.5,-158.5 1433.5,-72.5 1028.5,-72.5"/>
</g>
<!-- EAID_55249C51_8176_4809_A8D0_33641B1F9301 -->
<g id="node16" class="node"><title>EAID_55249C51_8176_4809_A8D0_33641B1F9301</title>
<polygon fill="none" stroke="black" points="803,-157.5 803,-178.5 993,-178.5 993,-157.5 803,-157.5"/>
<text text-anchor="start" x="816.5" y="-165.3" font-family="Times New Roman,serif" font-weight="bold" font-size="14.00">Social Media Update Item </text>
<polygon fill="none" stroke="black" points="803,-136.5 803,-157.5 993,-157.5 993,-136.5 803,-136.5"/>
<text text-anchor="start" x="806" y="-144.3" font-family="Times New Roman,serif" font-weight="bold" font-size="14.00">EAJava_void BMP JPG PNG</text>
<polygon fill="none" stroke="black" points="803,-115.5 803,-136.5 993,-136.5 993,-115.5 803,-115.5"/>
<text text-anchor="start" x="824.5" y="-123.3" font-family="Times New Roman,serif" font-weight="bold" font-size="14.00">EAJava_void Hyperlink</text>
<polygon fill="none" stroke="black" points="803,-94.5 803,-115.5 993,-115.5 993,-94.5 803,-94.5"/>
<text text-anchor="start" x="819.5" y="-102.3" font-family="Times New Roman,serif" font-weight="bold" font-size="14.00">SocialMediaUpdateItem()</text>
<polygon fill="none" stroke="black" points="803,-73.5 803,-94.5 993,-94.5 993,-73.5 803,-73.5"/>
<text text-anchor="start" x="822.5" y="-81.3" font-family="Times New Roman,serif" font-weight="bold" font-size="14.00">Maintainsocialnetwork()</text>
<polygon fill="none" stroke="black" points="803,-52.5 803,-73.5 993,-73.5 993,-52.5 803,-52.5"/>
<text text-anchor="start" x="811.5" y="-60.3" font-family="Times New Roman,serif" font-weight="bold" font-size="14.00">Postonsocialnewworkpage()</text>
<polygon fill="none" stroke="black" points="802,-51.5 802,-179.5 994,-179.5 994,-51.5 802,-51.5"/>
</g>
<!-- EAID_FF1A0C3C_A533_485e_B628_04A1DE5B8AA8 -->
<g id="node17" class="node"><title>EAID_FF1A0C3C_A533_485e_B628_04A1DE5B8AA8</title>
<polygon fill="none" stroke="black" points="355,-157.5 355,-178.5 767,-178.5 767,-157.5 355,-157.5"/>
<text text-anchor="start" x="536" y="-165.3" font-family="Times New Roman,serif" font-weight="bold" font-size="14.00">Wishlist</text>
<polygon fill="none" stroke="black" points="355,-136.5 355,-157.5 767,-157.5 767,-136.5 355,-136.5"/>
<text text-anchor="start" x="487.5" y="-144.3" font-family="Times New Roman,serif" font-weight="bold" font-size="14.00">EAJava_void Hyperlink</text>
<polygon fill="none" stroke="black" points="355,-115.5 355,-136.5 767,-136.5 767,-115.5 355,-115.5"/>
<text text-anchor="start" x="502" y="-123.3" font-family="Times New Roman,serif" font-weight="bold" font-size="14.00">EAJava_void Sting</text>
<polygon fill="none" stroke="black" points="355,-94.5 355,-115.5 767,-115.5 767,-94.5 355,-94.5"/>
<text text-anchor="start" x="367" y="-102.3" font-family="Times New Roman,serif" font-weight="bold" font-size="14.00">EAID_55249C51_8176_4809_A8D0_33641B1F9301 undefined</text>
<polygon fill="none" stroke="black" points="355,-73.5 355,-94.5 767,-94.5 767,-73.5 355,-73.5"/>
<text text-anchor="start" x="358" y="-81.3" font-family="Times New Roman,serif" font-weight="bold" font-size="14.00">EAID_D6B0D9D2_1862_49a5_BE85_5EE6A22B9AD8 undefined</text>
<polygon fill="none" stroke="black" points="355,-52.5 355,-73.5 767,-73.5 767,-52.5 355,-52.5"/>
<text text-anchor="start" x="531.5" y="-60.3" font-family="Times New Roman,serif" font-weight="bold" font-size="14.00">Wishlist()</text>
<polygon fill="none" stroke="black" points="354,-51.5 354,-179.5 768,-179.5 768,-51.5 354,-51.5"/>
</g>
<!-- EAID_D6B0D9D2_1862_49a5_BE85_5EE6A22B9AD8 -->
<g id="node18" class="node"><title>EAID_D6B0D9D2_1862_49a5_BE85_5EE6A22B9AD8</title>
<polygon fill="none" stroke="black" points="198,-125.5 198,-146.5 319,-146.5 319,-125.5 198,-125.5"/>
<text text-anchor="start" x="217.5" y="-133.3" font-family="Times New Roman,serif" font-weight="bold" font-size="14.00">Wishlist Item</text>
<polygon fill="none" stroke="black" points="198,-104.5 198,-125.5 319,-125.5 319,-104.5 198,-104.5"/>
<text text-anchor="start" x="201" y="-112.3" font-family="Times New Roman,serif" font-weight="bold" font-size="14.00">EAJava_void PDF</text>
<polygon fill="none" stroke="black" points="198,-83.5 198,-104.5 319,-104.5 319,-83.5 198,-83.5"/>
<text text-anchor="start" x="215" y="-91.3" font-family="Times New Roman,serif" font-weight="bold" font-size="14.00">WishlistItem()</text>
<polygon fill="none" stroke="black" points="196.5,-83 196.5,-148 319.5,-148 319.5,-83 196.5,-83"/>
</g>
<!-- EAID_4B32D1E8_A216_4fa5_AE4A_7578CC49944E -->
<g id="node19" class="node"><title>EAID_4B32D1E8_A216_4fa5_AE4A_7578CC49944E</title>
<polygon fill="none" stroke="black" points="117,-115.5 117,-136.5 161,-136.5 161,-115.5 117,-115.5"/>
<text text-anchor="start" x="124.5" y="-123.3" font-family="Times New Roman,serif" font-weight="bold" font-size="14.00">User</text>
<polygon fill="none" stroke="black" points="117,-94.5 117,-115.5 161,-115.5 161,-94.5 117,-94.5"/>
<text text-anchor="start" x="120" y="-102.3" font-family="Times New Roman,serif" font-weight="bold" font-size="14.00">User()</text>
<polygon fill="none" stroke="black" points="116,-93.5 116,-137.5 162,-137.5 162,-93.5 116,-93.5"/>
</g>
<!-- EAID_C7F0F7CC_027C_44dc_BA58_5A25912A9FE3 -->
<g id="node20" class="node"><title>EAID_C7F0F7CC_027C_44dc_BA58_5A25912A9FE3</title>
<polygon fill="none" stroke="black" points="26,-104.5 26,-125.5 81,-125.5 81,-104.5 26,-104.5"/>
<text text-anchor="start" x="29" y="-112.3" font-family="Times New Roman,serif" font-weight="bold" font-size="14.00">Object1</text>
<polygon fill="none" stroke="black" points="24.5,-104 24.5,-127 81.5,-127 81.5,-104 24.5,-104"/>
</g>
</g>
</svg>
