<?xml version="1.0" encoding="UTF-8" standalone="no"?>
<!DOCTYPE svg PUBLIC "-//W3C//DTD SVG 1.1//EN"
 "http://www.w3.org/Graphics/SVG/1.1/DTD/svg11.dtd">
<!-- Generated by graphviz version 2.38.0 (20140413.2041)
 -->
<!-- Title: g Pages: 1 -->
<svg width="1370pt" height="408pt"
 viewBox="0.00 0.00 1370.11 408.06" xmlns="http://www.w3.org/2000/svg" xmlns:xlink="http://www.w3.org/1999/xlink">
<g id="graph0" class="graph" transform="scale(1 1) rotate(0) translate(4 404.057)">
<title>g</title>
<polygon fill="white" stroke="none" points="-4,4 -4,-404.057 1366.11,-404.057 1366.11,4 -4,4"/>
<!-- MainProgram:main -->
<g id="node1" class="node"><title>MainProgram:main</title>
<polygon fill="none" stroke="black" points="200,-206 0,-206 0,-170 200,-170 200,-206"/>
<text text-anchor="middle" x="100" y="-181.8" font-family="Times New Roman,serif" font-size="24.00">MainProgram:main</text>
</g>
<!-- Example1:Example1 -->
<g id="node2" class="node"><title>Example1:Example1</title>
<polygon fill="none" stroke="black" points="450,-298 236,-298 236,-262 450,-262 450,-298"/>
<text text-anchor="middle" x="343" y="-273.8" font-family="Times New Roman,serif" font-size="24.00">Example1:Example1</text>
</g>
<!-- MainProgram:main&#45;&gt;Example1:Example1 -->
<g id="edge1" class="edge"><title>MainProgram:main&#45;&gt;Example1:Example1</title>
<path fill="none" stroke="black" d="M138.302,-206.091C165.121,-218.723 202.34,-235.495 236,-248 246.209,-251.793 257.092,-255.474 267.849,-258.908"/>
<polygon fill="black" stroke="black" points="267.081,-262.335 277.67,-261.987 269.175,-255.656 267.081,-262.335"/>
</g>
<!-- Example1:print1 -->
<g id="node3" class="node"><title>Example1:print1</title>
<polygon fill="none" stroke="black" points="662,-252 486,-252 486,-216 662,-216 662,-252"/>
<text text-anchor="middle" x="574" y="-227.8" font-family="Times New Roman,serif" font-size="24.00">Example1:print1</text>
</g>
<!-- MainProgram:main&#45;&gt;Example1:print1 -->
<g id="edge2" class="edge"><title>MainProgram:main&#45;&gt;Example1:print1</title>
<path fill="none" stroke="black" d="M181.36,-206.004C199.268,-209.475 218.218,-212.732 236,-215 316.31,-225.243 408.089,-229.964 475.567,-232.14"/>
<polygon fill="black" stroke="black" points="475.659,-235.644 485.762,-232.455 475.875,-228.648 475.659,-235.644"/>
</g>
<!-- Example1:print2 -->
<g id="node4" class="node"><title>Example1:print2</title>
<polygon fill="none" stroke="black" points="431,-206 255,-206 255,-170 431,-170 431,-206"/>
<text text-anchor="middle" x="343" y="-181.8" font-family="Times New Roman,serif" font-size="24.00">Example1:print2</text>
</g>
<!-- MainProgram:main&#45;&gt;Example1:print2 -->
<g id="edge3" class="edge"><title>MainProgram:main&#45;&gt;Example1:print2</title>
<path fill="none" stroke="black" d="M200.067,-188C214.835,-188 230.046,-188 244.776,-188"/>
<polygon fill="black" stroke="black" points="244.884,-191.5 254.884,-188 244.884,-184.5 244.884,-191.5"/>
</g>
<!-- Example2:Example2 -->
<g id="node5" class="node"><title>Example2:Example2</title>
<polygon fill="none" stroke="black" points="450,-152 236,-152 236,-116 450,-116 450,-152"/>
<text text-anchor="middle" x="343" y="-127.8" font-family="Times New Roman,serif" font-size="24.00">Example2:Example2</text>
</g>
<!-- MainProgram:main&#45;&gt;Example2:Example2 -->
<g id="edge4" class="edge"><title>MainProgram:main&#45;&gt;Example2:Example2</title>
<path fill="none" stroke="black" d="M181.585,-169.944C204.094,-164.9 228.699,-159.387 251.729,-154.227"/>
<polygon fill="black" stroke="black" points="252.499,-157.641 261.491,-152.039 250.968,-150.81 252.499,-157.641"/>
</g>
<!-- Example2:print3 -->
<g id="node6" class="node"><title>Example2:print3</title>
<polygon fill="none" stroke="black" points="662,-144 486,-144 486,-108 662,-108 662,-144"/>
<text text-anchor="middle" x="574" y="-119.8" font-family="Times New Roman,serif" font-size="24.00">Example2:print3</text>
</g>
<!-- MainProgram:main&#45;&gt;Example2:print3 -->
<g id="edge5" class="edge"><title>MainProgram:main&#45;&gt;Example2:print3</title>
<path fill="none" stroke="black" d="M122.655,-169.855C147.964,-149.942 192.011,-119.184 236,-107 319.027,-84.0028 417.838,-93.6864 486.919,-106.099"/>
<polygon fill="black" stroke="black" points="486.42,-109.566 496.891,-107.946 487.696,-102.683 486.42,-109.566"/>
</g>
<!-- PrintStream:println -->
<g id="node10" class="node"><title>PrintStream:println</title>
<polygon fill="none" stroke="black" points="977,-252 777,-252 777,-216 977,-216 977,-252"/>
<text text-anchor="middle" x="877" y="-227.8" font-family="Times New Roman,serif" font-size="24.00">PrintStream:println</text>
</g>
<!-- Example1:print1&#45;&gt;PrintStream:println -->
<g id="edge13" class="edge"><title>Example1:print1&#45;&gt;PrintStream:println</title>
<path fill="none" stroke="black" d="M662.062,-234C694.773,-234 732.379,-234 766.848,-234"/>
<polygon fill="black" stroke="black" points="766.956,-237.5 776.956,-234 766.956,-230.5 766.956,-237.5"/>
</g>
<!-- Example1:print2&#45;&gt;Example2:print3 -->
<g id="edge14" class="edge"><title>Example1:print2&#45;&gt;Example2:print3</title>
<path fill="none" stroke="black" d="M415.915,-169.97C427.331,-167.024 438.999,-163.966 450,-161 466.576,-156.532 484.36,-151.569 501.11,-146.819"/>
<polygon fill="black" stroke="black" points="502.175,-150.155 510.836,-144.052 500.26,-143.422 502.175,-150.155"/>
</g>
<!-- InterfaceExample:triggerListener -->
<g id="node7" class="node"><title>InterfaceExample:triggerListener</title>
<polygon fill="none" stroke="black" points="1042,-198 712,-198 712,-162 1042,-162 1042,-198"/>
<text text-anchor="middle" x="877" y="-173.8" font-family="Times New Roman,serif" font-size="24.00">InterfaceExample:triggerListener</text>
</g>
<!-- Example2:print3&#45;&gt;InterfaceExample:triggerListener -->
<g id="edge12" class="edge"><title>Example2:print3&#45;&gt;InterfaceExample:triggerListener</title>
<path fill="none" stroke="black" d="M653.584,-144.054C668.309,-147.208 683.597,-150.33 698,-153 711.734,-155.546 726.096,-158.026 740.45,-160.385"/>
<polygon fill="black" stroke="black" points="739.946,-163.849 750.378,-161.999 741.069,-156.94 739.946,-163.849"/>
</g>
<!-- Example2:print3&#45;&gt;PrintStream:println -->
<g id="edge8" class="edge"><title>Example2:print3&#45;&gt;PrintStream:println</title>
<path fill="none" stroke="black" d="M596.071,-144.043C619.383,-162.959 658.851,-191.976 698,-207 719.576,-215.28 743.537,-221.03 766.705,-225.02"/>
<polygon fill="black" stroke="black" points="766.145,-228.475 776.577,-226.624 767.268,-221.565 766.145,-228.475"/>
</g>
<!-- InterfaceExample:InterfaceExample -->
<g id="node11" class="node"><title>InterfaceExample:InterfaceExample</title>
<polygon fill="none" stroke="black" points="1056,-144 698,-144 698,-108 1056,-108 1056,-144"/>
<text text-anchor="middle" x="877" y="-119.8" font-family="Times New Roman,serif" font-size="24.00">InterfaceExample:InterfaceExample</text>
</g>
<!-- Example2:print3&#45;&gt;InterfaceExample:InterfaceExample -->
<g id="edge9" class="edge"><title>Example2:print3&#45;&gt;InterfaceExample:InterfaceExample</title>
<path fill="none" stroke="black" d="M662.062,-126C670.388,-126 679.031,-126 687.858,-126"/>
<polygon fill="black" stroke="black" points="687.896,-129.5 697.896,-126 687.896,-122.5 687.896,-129.5"/>
</g>
<!-- InterfaceExample:setListener -->
<g id="node12" class="node"><title>InterfaceExample:setListener</title>
<polygon fill="none" stroke="black" points="1023.5,-90 730.5,-90 730.5,-54 1023.5,-54 1023.5,-90"/>
<text text-anchor="middle" x="877" y="-65.8" font-family="Times New Roman,serif" font-size="24.00">InterfaceExample:setListener</text>
</g>
<!-- Example2:print3&#45;&gt;InterfaceExample:setListener -->
<g id="edge10" class="edge"><title>Example2:print3&#45;&gt;InterfaceExample:setListener</title>
<path fill="none" stroke="black" d="M653.584,-107.946C668.309,-104.792 683.597,-101.67 698,-99 711.734,-96.4539 726.096,-93.9739 740.45,-91.6147"/>
<polygon fill="black" stroke="black" points="741.069,-95.0601 750.378,-90.0013 739.946,-88.1507 741.069,-95.0601"/>
</g>
<!-- Anonymous type: -->
<g id="node13" class="node"><title>Anonymous type:</title>
<polygon fill="none" stroke="black" points="967.5,-36 786.5,-36 786.5,-0 967.5,-0 967.5,-36"/>
<text text-anchor="middle" x="877" y="-11.8" font-family="Times New Roman,serif" font-size="24.00">Anonymous type:</text>
</g>
<!-- Example2:print3&#45;&gt;Anonymous type: -->
<g id="edge11" class="edge"><title>Example2:print3&#45;&gt;Anonymous type:</title>
<path fill="none" stroke="black" d="M596.071,-107.957C619.383,-89.0412 658.851,-60.0244 698,-45 722.582,-35.5661 750.259,-29.4172 776.334,-25.413"/>
<polygon fill="black" stroke="black" points="776.842,-28.8759 786.239,-23.981 775.841,-21.948 776.842,-28.8759"/>
</g>
<!-- undefined:onClick -->
<g id="node8" class="node"><title>undefined:onClick</title>
<ellipse fill="none" stroke="black" cx="1227.06" cy="-265" rx="135.115" ry="135.115"/>
<text text-anchor="middle" x="1227.06" y="-258.8" font-family="Times New Roman,serif" font-size="24.00">undefined:onClick</text>
</g>
<!-- InterfaceExample:triggerListener&#45;&gt;undefined:onClick -->
<g id="edge6" class="edge"><title>InterfaceExample:triggerListener&#45;&gt;undefined:onClick</title>
<path fill="none" stroke="black" d="M1014.07,-198.077C1028.3,-200.73 1042.49,-203.699 1056,-207 1067.13,-209.718 1078.56,-212.85 1089.98,-216.221"/>
<polygon fill="black" stroke="black" points="1088.99,-219.575 1099.57,-219.105 1091,-212.872 1088.99,-219.575"/>
</g>
<!-- Event:Event -->
<g id="node9" class="node"><title>Event:Event</title>
<polygon fill="none" stroke="black" points="1293.56,-112 1160.56,-112 1160.56,-76 1293.56,-76 1293.56,-112"/>
<text text-anchor="middle" x="1227.06" y="-87.8" font-family="Times New Roman,serif" font-size="24.00">Event:Event</text>
</g>
<!-- InterfaceExample:triggerListener&#45;&gt;Event:Event -->
<g id="edge7" class="edge"><title>InterfaceExample:triggerListener&#45;&gt;Event:Event</title>
<path fill="none" stroke="black" d="M1033.5,-161.982C1041.24,-159.363 1048.78,-156.385 1056,-153 1075.38,-143.909 1072.84,-130.555 1092,-121 1109.99,-112.025 1130.75,-106.033 1150.48,-102.033"/>
<polygon fill="black" stroke="black" points="1151.19,-105.461 1160.37,-100.172 1149.9,-98.5818 1151.19,-105.461"/>
</g>
</g>
</svg>
