<?xml version="1.0" encoding="UTF-8" standalone="no"?>
<!DOCTYPE svg PUBLIC "-//W3C//DTD SVG 1.1//EN"
 "http://www.w3.org/Graphics/SVG/1.1/DTD/svg11.dtd">
<!-- Generated by graphviz version 2.38.0 (20140413.2041)
 -->
<!-- Title: g Pages: 1 -->
<svg width="622pt" height="902pt"
 viewBox="0.00 0.00 622.41 902.04" xmlns="http://www.w3.org/2000/svg" xmlns:xlink="http://www.w3.org/1999/xlink">
<g id="graph0" class="graph" transform="scale(1 1) rotate(0) translate(4 898.042)">
<title>g</title>
<polygon fill="white" stroke="none" points="-4,4 -4,-898.042 618.413,-898.042 618.413,4 -4,4"/>
<!-- class instance creation -->
<g id="node1" class="node"><title>class instance creation</title>
<ellipse fill="none" stroke="black" cx="159.099" cy="-177" rx="159.198" ry="24.0833"/>
<text text-anchor="middle" x="159.099" y="-170.8" font-family="Times New Roman,serif" font-size="24.00">class instance creation</text>
</g>
<!-- Example1 -->
<g id="node2" class="node"><title>Example1</title>
<ellipse fill="none" stroke="black" cx="484.306" cy="-276" rx="79.3924" ry="24.0833"/>
<text text-anchor="middle" x="484.306" y="-269.8" font-family="Times New Roman,serif" font-size="24.00">Example1</text>
</g>
<!-- class instance creation&#45;&gt;Example1 -->
<g id="edge1" class="edge"><title>class instance creation&#45;&gt;Example1</title>
<path fill="none" stroke="black" d="M221.337,-199.182C259.347,-212.611 309.335,-229.661 354.198,-243 372.799,-248.531 393.071,-253.98 411.922,-258.807"/>
<polygon fill="black" stroke="black" points="411.08,-262.204 421.634,-261.272 412.802,-255.419 411.08,-262.204"/>
</g>
<!-- Example2 -->
<g id="node6" class="node"><title>Example2</title>
<ellipse fill="none" stroke="black" cx="484.306" cy="-210" rx="79.3924" ry="24.0833"/>
<text text-anchor="middle" x="484.306" y="-203.8" font-family="Times New Roman,serif" font-size="24.00">Example2</text>
</g>
<!-- class instance creation&#45;&gt;Example2 -->
<g id="edge4" class="edge"><title>class instance creation&#45;&gt;Example2</title>
<path fill="none" stroke="black" d="M308.459,-185.418C342.156,-188.756 376.627,-192.566 405.957,-196.245"/>
<polygon fill="black" stroke="black" points="405.745,-199.746 416.107,-197.54 406.63,-192.802 405.745,-199.746"/>
</g>
<!-- class instance creation&#45;&gt;Example2 -->
<g id="edge17" class="edge"><title>class instance creation&#45;&gt;Example2</title>
<path fill="none" stroke="black" d="M268.621,-194.496C309.697,-199.226 355.921,-203.837 394.926,-207.068"/>
<polygon fill="black" stroke="black" points="394.952,-210.582 405.202,-207.901 395.517,-203.605 394.952,-210.582"/>
</g>
<!-- Event -->
<g id="node9" class="node"><title>Event</title>
<ellipse fill="none" stroke="black" cx="484.306" cy="-144" rx="50.41" ry="24.0833"/>
<text text-anchor="middle" x="484.306" y="-137.8" font-family="Times New Roman,serif" font-size="24.00">Event</text>
</g>
<!-- class instance creation&#45;&gt;Event -->
<g id="edge7" class="edge"><title>class instance creation&#45;&gt;Event</title>
<path fill="none" stroke="black" d="M291.56,-163.578C337.887,-158.848 387.641,-153.768 424.855,-149.968"/>
<polygon fill="black" stroke="black" points="425.413,-153.429 435.006,-148.932 424.702,-146.465 425.413,-153.429"/>
</g>
<!-- InterfaceExample -->
<g id="node11" class="node"><title>InterfaceExample</title>
<ellipse fill="none" stroke="black" cx="484.306" cy="-78" rx="130.215" ry="24.0833"/>
<text text-anchor="middle" x="484.306" y="-71.8" font-family="Times New Roman,serif" font-size="24.00">InterfaceExample</text>
</g>
<!-- class instance creation&#45;&gt;InterfaceExample -->
<g id="edge9" class="edge"><title>class instance creation&#45;&gt;InterfaceExample</title>
<path fill="none" stroke="black" d="M221.337,-154.818C259.347,-141.389 309.335,-124.339 354.198,-111 367.225,-107.127 381.071,-103.294 394.675,-99.686"/>
<polygon fill="black" stroke="black" points="395.738,-103.025 404.522,-97.1015 393.961,-96.2547 395.738,-103.025"/>
</g>
<g id="node13" class="node"><title></title>
<ellipse fill="none" stroke="black" cx="484.306" cy="-18" rx="27" ry="18"/>
</g>
<!-- class instance creation&#45;&gt; -->
<g id="edge11" class="edge"><title>class instance creation&#45;&gt;</title>
<path fill="none" stroke="black" d="M187.305,-153.322C223.1,-123.448 289.122,-72.6436 354.198,-45 384.155,-32.2748 420.645,-25.3569 447.18,-21.7205"/>
<polygon fill="black" stroke="black" points="447.707,-25.1816 457.182,-20.4399 446.818,-18.2383 447.707,-25.1816"/>
</g>
<!-- method invocation -->
<g id="node3" class="node"><title>method invocation</title>
<ellipse fill="none" stroke="black" cx="159.099" cy="-606" rx="135.115" ry="24.0833"/>
<text text-anchor="middle" x="159.099" y="-599.8" font-family="Times New Roman,serif" font-size="24.00">method invocation</text>
</g>
<!-- print1 -->
<g id="node4" class="node"><title>print1</title>
<ellipse fill="none" stroke="black" cx="484.306" cy="-870" rx="52.1524" ry="24.0833"/>
<text text-anchor="middle" x="484.306" y="-863.8" font-family="Times New Roman,serif" font-size="24.00">print1</text>
</g>
<!-- method invocation&#45;&gt;print1 -->
<g id="edge2" class="edge"><title>method invocation&#45;&gt;print1</title>
<path fill="none" stroke="black" d="M173.388,-630.203C200.71,-677.608 267.937,-782.785 354.198,-837 374.844,-849.976 400.375,-857.861 423.269,-862.647"/>
<polygon fill="black" stroke="black" points="422.752,-866.112 433.235,-864.575 424.082,-859.24 422.752,-866.112"/>
</g>
<!-- print2 -->
<g id="node5" class="node"><title>print2</title>
<ellipse fill="none" stroke="black" cx="484.306" cy="-804" rx="52.1524" ry="24.0833"/>
<text text-anchor="middle" x="484.306" y="-797.8" font-family="Times New Roman,serif" font-size="24.00">print2</text>
</g>
<!-- method invocation&#45;&gt;print2 -->
<g id="edge3" class="edge"><title>method invocation&#45;&gt;print2</title>
<path fill="none" stroke="black" d="M181.182,-629.822C214.388,-665.849 282.506,-733.914 354.198,-771 375.857,-782.204 401.567,-789.776 424.32,-794.808"/>
<polygon fill="black" stroke="black" points="423.7,-798.254 434.205,-796.878 425.135,-791.402 423.7,-798.254"/>
</g>
<!-- print3 -->
<g id="node7" class="node"><title>print3</title>
<ellipse fill="none" stroke="black" cx="484.306" cy="-738" rx="52.1524" ry="24.0833"/>
<text text-anchor="middle" x="484.306" y="-731.8" font-family="Times New Roman,serif" font-size="24.00">print3</text>
</g>
<!-- method invocation&#45;&gt;print3 -->
<g id="edge5" class="edge"><title>method invocation&#45;&gt;print3</title>
<path fill="none" stroke="black" d="M210.586,-628.241C248.956,-648.244 303.59,-676.896 354.198,-696 379.975,-705.73 409.709,-713.549 434.141,-720.035"/>
<polygon fill="black" stroke="black" points="433.349,-723.446 443.913,-722.642 435.153,-716.683 433.349,-723.446"/>
</g>
<!-- method invocation&#45;&gt;print3 -->
<g id="edge16" class="edge"><title>method invocation&#45;&gt;print3</title>
<path fill="none" stroke="black" d="M189.093,-629.618C226.244,-654.016 293.15,-690.955 354.198,-714 375.779,-722.147 400.135,-728.953 421.83,-733.696"/>
<polygon fill="black" stroke="black" points="421.413,-737.184 431.916,-735.792 422.837,-730.331 421.413,-737.184"/>
</g>
<!-- onClick -->
<g id="node8" class="node"><title>onClick</title>
<ellipse fill="none" stroke="black" cx="484.306" cy="-672" rx="65.1077" ry="24.0833"/>
<text text-anchor="middle" x="484.306" y="-665.8" font-family="Times New Roman,serif" font-size="24.00">onClick</text>
</g>
<!-- method invocation&#45;&gt;onClick -->
<g id="edge6" class="edge"><title>method invocation&#45;&gt;onClick</title>
<path fill="none" stroke="black" d="M248.417,-624.035C301.749,-634.925 368.591,-648.575 417.32,-658.525"/>
<polygon fill="black" stroke="black" points="416.625,-661.956 427.123,-660.527 418.025,-655.097 416.625,-661.956"/>
</g>
<!-- println -->
<g id="node10" class="node"><title>println</title>
<ellipse fill="none" stroke="black" cx="484.306" cy="-606" rx="56.6372" ry="24.0833"/>
<text text-anchor="middle" x="484.306" y="-599.8" font-family="Times New Roman,serif" font-size="24.00">println</text>
</g>
<!-- method invocation&#45;&gt;println -->
<g id="edge8" class="edge"><title>method invocation&#45;&gt;println</title>
<path fill="none" stroke="black" d="M289.232,-599.373C333.752,-599.032 381.701,-599.401 418.8,-600.477"/>
<polygon fill="black" stroke="black" points="418.858,-603.981 428.964,-600.8 419.08,-596.984 418.858,-603.981"/>
</g>
<!-- method invocation&#45;&gt;println -->
<g id="edge15" class="edge"><title>method invocation&#45;&gt;println</title>
<path fill="none" stroke="black" d="M289.232,-612.627C333.752,-612.968 381.701,-612.599 418.8,-611.523"/>
<polygon fill="black" stroke="black" points="419.08,-615.016 428.964,-611.2 418.858,-608.019 419.08,-615.016"/>
</g>
<!-- setListener -->
<g id="node12" class="node"><title>setListener</title>
<ellipse fill="none" stroke="black" cx="484.306" cy="-540" rx="84.2917" ry="24.0833"/>
<text text-anchor="middle" x="484.306" y="-533.8" font-family="Times New Roman,serif" font-size="24.00">setListener</text>
</g>
<!-- method invocation&#45;&gt;setListener -->
<g id="edge10" class="edge"><title>method invocation&#45;&gt;setListener</title>
<path fill="none" stroke="black" d="M248.417,-587.965C297.537,-577.935 358.117,-565.564 405.451,-555.898"/>
<polygon fill="black" stroke="black" points="406.244,-559.309 415.342,-553.879 404.844,-552.45 406.244,-559.309"/>
</g>
<!-- print -->
<g id="node14" class="node"><title>print</title>
<ellipse fill="none" stroke="black" cx="484.306" cy="-474" rx="43.6818" ry="24.0833"/>
<text text-anchor="middle" x="484.306" y="-467.8" font-family="Times New Roman,serif" font-size="24.00">print</text>
</g>
<!-- method invocation&#45;&gt;print -->
<g id="edge12" class="edge"><title>method invocation&#45;&gt;print</title>
<path fill="none" stroke="black" d="M199.071,-582.863C237.451,-560.872 298.281,-528.108 354.198,-507 379.481,-497.456 408.573,-489.751 432.732,-484.194"/>
<polygon fill="black" stroke="black" points="433.768,-487.548 442.759,-481.944 432.235,-480.718 433.768,-487.548"/>
</g>
<!-- toString -->
<g id="node15" class="node"><title>toString</title>
<ellipse fill="none" stroke="black" cx="484.306" cy="-408" rx="65.5227" ry="24.0833"/>
<text text-anchor="middle" x="484.306" y="-401.8" font-family="Times New Roman,serif" font-size="24.00">toString</text>
</g>
<!-- method invocation&#45;&gt;toString -->
<g id="edge13" class="edge"><title>method invocation&#45;&gt;toString</title>
<path fill="none" stroke="black" d="M181.182,-582.178C214.388,-546.151 282.506,-478.086 354.198,-441 372.48,-431.543 393.648,-424.673 413.489,-419.735"/>
<polygon fill="black" stroke="black" points="414.481,-423.097 423.411,-417.394 412.874,-416.284 414.481,-423.097"/>
</g>
<!-- triggerListener -->
<g id="node16" class="node"><title>triggerListener</title>
<ellipse fill="none" stroke="black" cx="484.306" cy="-342" rx="110.118" ry="24.0833"/>
<text text-anchor="middle" x="484.306" y="-335.8" font-family="Times New Roman,serif" font-size="24.00">triggerListener</text>
</g>
<!-- method invocation&#45;&gt;triggerListener -->
<g id="edge14" class="edge"><title>method invocation&#45;&gt;triggerListener</title>
<path fill="none" stroke="black" d="M173.388,-581.797C200.71,-534.392 267.937,-429.215 354.198,-375 364.068,-368.796 375.055,-363.757 386.337,-359.662"/>
<polygon fill="black" stroke="black" points="387.512,-362.96 395.865,-356.441 385.27,-356.328 387.512,-362.96"/>
</g>
</g>
</svg>
