<?xml version="1.0" encoding="UTF-8" standalone="no"?>
<!DOCTYPE svg PUBLIC "-//W3C//DTD SVG 1.1//EN"
 "http://www.w3.org/Graphics/SVG/1.1/DTD/svg11.dtd">
<!-- Generated by graphviz version 2.38.0 (20140413.2041)
 -->
<!-- Title: g Pages: 1 -->
<svg width="3017pt" height="754pt"
 viewBox="0.00 0.00 3017.00 754.16" xmlns="http://www.w3.org/2000/svg" xmlns:xlink="http://www.w3.org/1999/xlink">
<g id="graph0" class="graph" transform="scale(1 1) rotate(0) translate(4 750.162)">
<title>g</title>
<polygon fill="white" stroke="none" points="-4,4 -4,-750.162 3013,-750.162 3013,4 -4,4"/>
<!-- EAID_1DC3FDF9_A85D_41ce_9B77_C351FFD2AEDD -->
<g id="node1" class="node"><title>EAID_1DC3FDF9_A85D_41ce_9B77_C351FFD2AEDD</title>
<image xlink:href="img/actor1.png" width="61px" height="90px" preserveAspectRatio="xMinYMin meet" x="10.5" y="-379.662"/>
<text text-anchor="start" x="19" y="-266.462" font-family="Times New Roman,serif" font-size="24.00">User</text>
</g>
<!-- EAID_108D43A0_29C4_4008_B44C_8E48C2F3BC66 -->
<g id="node2" class="node"><title>EAID_108D43A0_29C4_4008_B44C_8E48C2F3BC66</title>
<image xlink:href="img/boundary3.png" width="115px" height="67px" preserveAspectRatio="xMinYMin meet" x="1295.5" y="-411.662"/>
<text text-anchor="start" x="1177" y="-321.462" font-family="Times New Roman,serif" font-size="24.00">Girls/Teams/Volunteers manage page</text>
</g>
<!-- EAID_1DC3FDF9_A85D_41ce_9B77_C351FFD2AEDD&#45;&gt;EAID_108D43A0_29C4_4008_B44C_8E48C2F3BC66 -->
<g id="edge1" class="edge"><title>EAID_1DC3FDF9_A85D_41ce_9B77_C351FFD2AEDD&#45;&gt;EAID_108D43A0_29C4_4008_B44C_8E48C2F3BC66</title>
<path fill="none" stroke="black" d="M81.2429,-319.662C170.797,-319.662 395.214,-319.662 583,-319.662 583,-319.662 583,-319.662 787.5,-319.662 910.469,-319.662 1048.05,-330.168 1156.6,-340.913"/>
<polygon fill="black" stroke="black" points="1156.38,-344.409 1166.68,-341.92 1157.08,-337.443 1156.38,-344.409"/>
</g>
<!-- EAID_61B0A13B_323E_4a02_88D6_7504DD2B3861 -->
<g id="node3" class="node"><title>EAID_61B0A13B_323E_4a02_88D6_7504DD2B3861</title>
<image xlink:href="img/boundary3.png" width="115px" height="67px" preserveAspectRatio="xMinYMin meet" x="236.5" y="-452.662"/>
<text text-anchor="start" x="127.5" y="-362.462" font-family="Times New Roman,serif" font-size="24.00">manage girls/teams/volunteers page</text>
</g>
<!-- EAID_1DC3FDF9_A85D_41ce_9B77_C351FFD2AEDD&#45;&gt;EAID_61B0A13B_323E_4a02_88D6_7504DD2B3861 -->
<g id="edge2" class="edge"><title>EAID_1DC3FDF9_A85D_41ce_9B77_C351FFD2AEDD&#45;&gt;EAID_61B0A13B_323E_4a02_88D6_7504DD2B3861</title>
<path fill="none" stroke="black" d="M81.2717,-333.131C93.1214,-337.144 106.924,-341.818 121.694,-346.82"/>
<polygon fill="black" stroke="black" points="120.935,-350.258 131.529,-350.15 123.18,-343.627 120.935,-350.258"/>
</g>
<!-- EAID_3D0F8623_EDC9_4f2a_9280_D78AEA15C528 -->
<g id="node4" class="node"><title>EAID_3D0F8623_EDC9_4f2a_9280_D78AEA15C528</title>
<image xlink:href="img/boundary3.png" width="115px" height="67px" preserveAspectRatio="xMinYMin meet" x="2737" y="-739.662"/>
<text text-anchor="start" x="2646.5" y="-649.462" font-family="Times New Roman,serif" font-size="24.00">Delete information successfully</text>
</g>
<!-- EAID_1DC3FDF9_A85D_41ce_9B77_C351FFD2AEDD&#45;&gt;EAID_3D0F8623_EDC9_4f2a_9280_D78AEA15C528 -->
<g id="edge3" class="edge"><title>EAID_1DC3FDF9_A85D_41ce_9B77_C351FFD2AEDD&#45;&gt;EAID_3D0F8623_EDC9_4f2a_9280_D78AEA15C528</title>
<path fill="none" stroke="black" d="M64.2883,-385.922C76.5101,-414.072 93.8892,-445.635 117,-468.662 281.174,-632.24 351.244,-702.662 583,-702.662 583,-702.662 583,-702.662 1825,-702.662 2106.04,-702.662 2432.93,-697.974 2626.01,-694.718"/>
<polygon fill="black" stroke="black" points="2626.3,-698.214 2636.24,-694.545 2626.18,-691.215 2626.3,-698.214"/>
</g>
<!-- EAID_28AF61B8_275F_436d_BB3E_FC4B0F801AAF -->
<g id="node5" class="node"><title>EAID_28AF61B8_275F_436d_BB3E_FC4B0F801AAF</title>
<image xlink:href="img/boundary3.png" width="115px" height="67px" preserveAspectRatio="xMinYMin meet" x="2737.5" y="-146.662"/>
<text text-anchor="start" x="2590.5" y="-56.4622" font-family="Times New Roman,serif" font-size="24.00">Save modified information success message</text>
</g>
<!-- EAID_1DC3FDF9_A85D_41ce_9B77_C351FFD2AEDD&#45;&gt;EAID_28AF61B8_275F_436d_BB3E_FC4B0F801AAF -->
<g id="edge4" class="edge"><title>EAID_1DC3FDF9_A85D_41ce_9B77_C351FFD2AEDD&#45;&gt;EAID_28AF61B8_275F_436d_BB3E_FC4B0F801AAF</title>
<path fill="none" stroke="black" d="M43.0723,-253.657C48.2063,-197.583 65.056,-119.563 117,-76.6622 277.68,56.0447 374.603,-24.6622 583,-24.6622 583,-24.6622 583,-24.6622 1825,-24.6622 2144.8,-24.6622 2226.16,-17.3575 2544,-52.6622 2552.42,-53.5971 2560.98,-54.651 2569.61,-55.8008"/>
<polygon fill="black" stroke="black" points="2569.39,-59.3037 2579.78,-57.1933 2570.34,-52.3684 2569.39,-59.3037"/>
</g>
<!-- EAID_98A10D73_6839_49b9_8A59_81071569144E -->
<g id="node6" class="node"><title>EAID_98A10D73_6839_49b9_8A59_81071569144E</title>
<image xlink:href="img/boundary3.png" width="115px" height="67px" preserveAspectRatio="xMinYMin meet" x="2269" y="-193.662"/>
<text text-anchor="start" x="2189.5" y="-103.462" font-family="Times New Roman,serif" font-size="24.00">Invalid modified information</text>
</g>
<!-- EAID_1DC3FDF9_A85D_41ce_9B77_C351FFD2AEDD&#45;&gt;EAID_98A10D73_6839_49b9_8A59_81071569144E -->
<g id="edge5" class="edge"><title>EAID_1DC3FDF9_A85D_41ce_9B77_C351FFD2AEDD&#45;&gt;EAID_98A10D73_6839_49b9_8A59_81071569144E</title>
<path fill="none" stroke="black" d="M81.2105,-285.535C166.776,-215.626 377.479,-62.6622 583,-62.6622 583,-62.6622 583,-62.6622 1354,-62.6622 1642.53,-62.6622 1977.53,-99.4575 2169.2,-124.05"/>
<polygon fill="black" stroke="black" points="2168.98,-127.551 2179.35,-125.358 2169.88,-120.609 2168.98,-127.551"/>
</g>
<!-- EAID_1C39D181_D89F_4e08_81AA_2CCF3000EA04 -->
<g id="node7" class="node"><title>EAID_1C39D181_D89F_4e08_81AA_2CCF3000EA04</title>
<image xlink:href="img/control1.png" width="106px" height="75px" preserveAspectRatio="xMinYMin meet" x="2273.5" y="-629.662"/>
<text text-anchor="start" x="2189.5" y="-531.462" font-family="Times New Roman,serif" font-size="24.00">Delete girls/volunteers/teams</text>
</g>
<!-- EAID_108D43A0_29C4_4008_B44C_8E48C2F3BC66&#45;&gt;EAID_1C39D181_D89F_4e08_81AA_2CCF3000EA04 -->
<g id="edge10" class="edge"><title>EAID_108D43A0_29C4_4008_B44C_8E48C2F3BC66&#45;&gt;EAID_1C39D181_D89F_4e08_81AA_2CCF3000EA04</title>
<path fill="none" stroke="black" d="M1539.02,-404.418C1721.55,-444.626 1997.5,-505.411 2169.32,-543.26"/>
<polygon fill="black" stroke="black" points="2168.69,-546.705 2179.21,-545.438 2170.2,-539.868 2168.69,-546.705"/>
</g>
<!-- EAID_90051A64_B9FA_4916_8233_CD5BC63ACE03 -->
<g id="node13" class="node"><title>EAID_90051A64_B9FA_4916_8233_CD5BC63ACE03</title>
<image xlink:href="img/control1.png" width="106px" height="75px" preserveAspectRatio="xMinYMin meet" x="1771" y="-350.662"/>
<text text-anchor="start" x="1585" y="-252.462" font-family="Times New Roman,serif" font-size="24.00">process input information for girs/teams/volunteers</text>
</g>
<!-- EAID_108D43A0_29C4_4008_B44C_8E48C2F3BC66&#45;&gt;EAID_90051A64_B9FA_4916_8233_CD5BC63ACE03 -->
<g id="edge13" class="edge"><title>EAID_108D43A0_29C4_4008_B44C_8E48C2F3BC66&#45;&gt;EAID_90051A64_B9FA_4916_8233_CD5BC63ACE03</title>
<path fill="none" stroke="black" d="M1539.02,-338.019C1547.49,-336.845 1556.06,-335.659 1564.66,-334.466"/>
<polygon fill="black" stroke="black" points="1565.35,-337.904 1574.78,-333.064 1564.39,-330.97 1565.35,-337.904"/>
</g>
<!-- EAID_7CAC4AD1_F594_4e14_B7A4_4416A83C47BC -->
<g id="node11" class="node"><title>EAID_7CAC4AD1_F594_4e14_B7A4_4416A83C47BC</title>
<image xlink:href="img/control1.png" width="106px" height="75px" preserveAspectRatio="xMinYMin meet" x="531" y="-458.662"/>
<text text-anchor="start" x="516" y="-360.462" font-family="Times New Roman,serif" font-size="24.00">query girl info</text>
</g>
<!-- EAID_61B0A13B_323E_4a02_88D6_7504DD2B3861&#45;&gt;EAID_7CAC4AD1_F594_4e14_B7A4_4416A83C47BC -->
<g id="edge23" class="edge"><title>EAID_61B0A13B_323E_4a02_88D6_7504DD2B3861&#45;&gt;EAID_7CAC4AD1_F594_4e14_B7A4_4416A83C47BC</title>
<path fill="none" stroke="black" d="M470.219,-405.88C478.905,-405.941 487.431,-406 495.663,-406.057"/>
<polygon fill="black" stroke="black" points="495.898,-409.558 505.922,-406.128 495.947,-402.558 495.898,-409.558"/>
</g>
<!-- EAID_1C39D181_D89F_4e08_81AA_2CCF3000EA04&#45;&gt;EAID_3D0F8623_EDC9_4f2a_9280_D78AEA15C528 -->
<g id="edge9" class="edge"><title>EAID_1C39D181_D89F_4e08_81AA_2CCF3000EA04&#45;&gt;EAID_3D0F8623_EDC9_4f2a_9280_D78AEA15C528</title>
<path fill="none" stroke="black" d="M2473.67,-613.42C2522.09,-625.265 2576.35,-638.539 2626.23,-650.742"/>
<polygon fill="black" stroke="black" points="2625.6,-654.191 2636.14,-653.167 2627.26,-647.391 2625.6,-654.191"/>
</g>
<!-- EAID_8765353A_FB18_495e_BB71_D6304D5F9830 -->
<g id="node8" class="node"><title>EAID_8765353A_FB18_495e_BB71_D6304D5F9830</title>
<image xlink:href="img/activity_icon.png" width="30px" height="20px" preserveAspectRatio="xMinYMin meet" x="2779.5" y="-301.662"/>
<text text-anchor="start" x="2760.5" y="-259.462" font-family="Times New Roman,serif" font-weight="bold" font-size="24.00">Teams</text>
</g>
<!-- EAID_1C39D181_D89F_4e08_81AA_2CCF3000EA04&#45;&gt;EAID_8765353A_FB18_495e_BB71_D6304D5F9830 -->
<g id="edge6" class="edge"><title>EAID_1C39D181_D89F_4e08_81AA_2CCF3000EA04&#45;&gt;EAID_8765353A_FB18_495e_BB71_D6304D5F9830</title>
<path fill="none" stroke="black" d="M2458.39,-519.031C2487.21,-504.632 2517.13,-488.484 2544,-471.662 2621.03,-423.441 2702.6,-356.193 2750.74,-314.593"/>
<polygon fill="black" stroke="black" points="2753.2,-317.089 2758.46,-307.891 2748.62,-311.802 2753.2,-317.089"/>
</g>
<!-- EAID_A56EDAB8_90D7_4bf9_835B_B7B001A040D6 -->
<g id="node9" class="node"><title>EAID_A56EDAB8_90D7_4bf9_835B_B7B001A040D6</title>
<image xlink:href="img/activity_icon.png" width="30px" height="20px" preserveAspectRatio="xMinYMin meet" x="2780" y="-602.662"/>
<text text-anchor="start" x="2773.5" y="-560.462" font-family="Times New Roman,serif" font-weight="bold" font-size="24.00">Girl</text>
</g>
<!-- EAID_1C39D181_D89F_4e08_81AA_2CCF3000EA04&#45;&gt;EAID_A56EDAB8_90D7_4bf9_835B_B7B001A040D6 -->
<g id="edge7" class="edge"><title>EAID_1C39D181_D89F_4e08_81AA_2CCF3000EA04&#45;&gt;EAID_A56EDAB8_90D7_4bf9_835B_B7B001A040D6</title>
<path fill="none" stroke="black" d="M2473.67,-577.662C2570.56,-577.662 2690.83,-577.662 2752.62,-577.662"/>
<polygon fill="black" stroke="black" points="2752.74,-581.162 2762.74,-577.662 2752.74,-574.162 2752.74,-581.162"/>
</g>
<!-- EAID_42BDC26F_ECCD_460f_A01B_081498D498B1 -->
<g id="node10" class="node"><title>EAID_42BDC26F_ECCD_460f_A01B_081498D498B1</title>
<image xlink:href="img/activity_icon.png" width="30px" height="20px" preserveAspectRatio="xMinYMin meet" x="2779.5" y="-515.662"/>
<text text-anchor="start" x="2738.5" y="-473.462" font-family="Times New Roman,serif" font-weight="bold" font-size="24.00">Volunteers</text>
</g>
<!-- EAID_1C39D181_D89F_4e08_81AA_2CCF3000EA04&#45;&gt;EAID_42BDC26F_ECCD_460f_A01B_081498D498B1 -->
<g id="edge8" class="edge"><title>EAID_1C39D181_D89F_4e08_81AA_2CCF3000EA04&#45;&gt;EAID_42BDC26F_ECCD_460f_A01B_081498D498B1</title>
<path fill="none" stroke="black" d="M2473.67,-550.374C2554.91,-535.206 2652.59,-516.969 2718.45,-504.673"/>
<polygon fill="black" stroke="black" points="2719.15,-508.104 2728.34,-502.828 2717.86,-501.223 2719.15,-508.104"/>
</g>
<!-- EAID_7CAC4AD1_F594_4e14_B7A4_4416A83C47BC&#45;&gt;EAID_A56EDAB8_90D7_4bf9_835B_B7B001A040D6 -->
<g id="edge11" class="edge"><title>EAID_7CAC4AD1_F594_4e14_B7A4_4416A83C47BC&#45;&gt;EAID_A56EDAB8_90D7_4bf9_835B_B7B001A040D6</title>
<path fill="none" stroke="black" d="M639.308,-465.206C716.132,-541.327 864.585,-664.662 1020,-664.662 1020,-664.662 1020,-664.662 1825,-664.662 2144.67,-664.662 2233.03,-719.721 2544,-645.662 2561.21,-641.563 2563.31,-634.527 2580,-628.662 2638.75,-608.023 2709.48,-592.954 2752.97,-584.752"/>
<polygon fill="black" stroke="black" points="2753.69,-588.179 2762.88,-582.913 2752.41,-581.296 2753.69,-588.179"/>
</g>
<!-- EAID_2226A26A_5AAD_495d_AC13_0F27596CD292 -->
<g id="node16" class="node"><title>EAID_2226A26A_5AAD_495d_AC13_0F27596CD292</title>
<image xlink:href="img/control1.png" width="106px" height="75px" preserveAspectRatio="xMinYMin meet" x="734" y="-458.662"/>
<text text-anchor="start" x="708.5" y="-360.462" font-family="Times New Roman,serif" font-size="24.00">query teams info</text>
</g>
<!-- EAID_7CAC4AD1_F594_4e14_B7A4_4416A83C47BC&#45;&gt;EAID_2226A26A_5AAD_495d_AC13_0F27596CD292 -->
<g id="edge24" class="edge"><title>EAID_7CAC4AD1_F594_4e14_B7A4_4416A83C47BC&#45;&gt;EAID_2226A26A_5AAD_495d_AC13_0F27596CD292</title>
<path fill="none" stroke="black" d="M662.232,-406.662C670.636,-406.662 679.269,-406.662 687.876,-406.662"/>
<polygon fill="black" stroke="black" points="687.953,-410.162 697.953,-406.662 687.953,-403.162 687.953,-410.162"/>
</g>
<!-- EAID_92A85EFD_2AA4_42f0_9A7C_D413A05B06F4 -->
<g id="node12" class="node"><title>EAID_92A85EFD_2AA4_42f0_9A7C_D413A05B06F4</title>
<image xlink:href="img/control1.png" width="106px" height="75px" preserveAspectRatio="xMinYMin meet" x="2274" y="-328.662"/>
<text text-anchor="start" x="2200.5" y="-230.462" font-family="Times New Roman,serif" font-size="24.00">Save modified information</text>
</g>
<!-- EAID_92A85EFD_2AA4_42f0_9A7C_D413A05B06F4&#45;&gt;EAID_28AF61B8_275F_436d_BB3E_FC4B0F801AAF -->
<g id="edge17" class="edge"><title>EAID_92A85EFD_2AA4_42f0_9A7C_D413A05B06F4&#45;&gt;EAID_28AF61B8_275F_436d_BB3E_FC4B0F801AAF</title>
<path fill="none" stroke="black" d="M2463.12,-236.604C2490.11,-227.923 2518.1,-218.406 2544,-208.662 2584.71,-193.348 2628.34,-174.856 2667.55,-157.441"/>
<polygon fill="black" stroke="black" points="2669.18,-160.545 2676.89,-153.275 2666.33,-154.152 2669.18,-160.545"/>
</g>
<!-- EAID_92A85EFD_2AA4_42f0_9A7C_D413A05B06F4&#45;&gt;EAID_8765353A_FB18_495e_BB71_D6304D5F9830 -->
<g id="edge18" class="edge"><title>EAID_92A85EFD_2AA4_42f0_9A7C_D413A05B06F4&#45;&gt;EAID_8765353A_FB18_495e_BB71_D6304D5F9830</title>
<path fill="none" stroke="black" d="M2463.23,-276.662C2555.68,-276.662 2673.04,-276.662 2740.07,-276.662"/>
<polygon fill="black" stroke="black" points="2740.38,-280.162 2750.38,-276.662 2740.38,-273.162 2740.38,-280.162"/>
</g>
<!-- EAID_92A85EFD_2AA4_42f0_9A7C_D413A05B06F4&#45;&gt;EAID_A56EDAB8_90D7_4bf9_835B_B7B001A040D6 -->
<g id="edge12" class="edge"><title>EAID_92A85EFD_2AA4_42f0_9A7C_D413A05B06F4&#45;&gt;EAID_A56EDAB8_90D7_4bf9_835B_B7B001A040D6</title>
<path fill="none" stroke="black" d="M2463.16,-294.596C2493.44,-304.594 2522.8,-319.996 2544,-343.662 2600.47,-406.707 2520.95,-470.027 2580,-530.662 2625.02,-576.892 2704.42,-582.446 2752.67,-580.962"/>
<polygon fill="black" stroke="black" points="2752.92,-584.455 2762.76,-580.535 2752.62,-577.461 2752.92,-584.455"/>
</g>
<!-- EAID_92A85EFD_2AA4_42f0_9A7C_D413A05B06F4&#45;&gt;EAID_42BDC26F_ECCD_460f_A01B_081498D498B1 -->
<g id="edge19" class="edge"><title>EAID_92A85EFD_2AA4_42f0_9A7C_D413A05B06F4&#45;&gt;EAID_42BDC26F_ECCD_460f_A01B_081498D498B1</title>
<path fill="none" stroke="black" d="M2463.25,-313.363C2490.42,-322.183 2518.45,-332.366 2544,-343.662 2614.49,-374.826 2690.02,-421.378 2739.28,-453.714"/>
<polygon fill="black" stroke="black" points="2737.59,-456.791 2747.87,-459.378 2741.45,-450.949 2737.59,-456.791"/>
</g>
<!-- EAID_90051A64_B9FA_4916_8233_CD5BC63ACE03&#45;&gt;EAID_98A10D73_6839_49b9_8A59_81071569144E -->
<g id="edge15" class="edge"><title>EAID_90051A64_B9FA_4916_8233_CD5BC63ACE03&#45;&gt;EAID_98A10D73_6839_49b9_8A59_81071569144E</title>
<path fill="none" stroke="black" d="M2007.75,-240.047C2041.38,-229.46 2076.21,-218.626 2109,-208.662 2128.64,-202.693 2149.32,-196.525 2169.79,-190.491"/>
<polygon fill="black" stroke="black" points="2170.89,-193.816 2179.5,-187.636 2168.92,-187.101 2170.89,-193.816"/>
</g>
<!-- EAID_90051A64_B9FA_4916_8233_CD5BC63ACE03&#45;&gt;EAID_92A85EFD_2AA4_42f0_9A7C_D413A05B06F4 -->
<g id="edge20" class="edge"><title>EAID_90051A64_B9FA_4916_8233_CD5BC63ACE03&#45;&gt;EAID_92A85EFD_2AA4_42f0_9A7C_D413A05B06F4</title>
<path fill="none" stroke="black" d="M2073.05,-287.759C2109.47,-286.158 2145.96,-284.554 2179.42,-283.083"/>
<polygon fill="black" stroke="black" points="2179.86,-286.567 2189.7,-282.631 2179.56,-279.574 2179.86,-286.567"/>
</g>
<!-- EAID_BFB5435D_B399_4d10_9134_E307BA5CD2DB -->
<g id="node15" class="node"><title>EAID_BFB5435D_B399_4d10_9134_E307BA5CD2DB</title>
<image xlink:href="img/boundary3.png" width="115px" height="67px" preserveAspectRatio="xMinYMin meet" x="2269.5" y="-455.662"/>
<text text-anchor="start" x="2119.5" y="-365.462" font-family="Times New Roman,serif" font-size="24.00">Required information missing error message</text>
</g>
<!-- EAID_90051A64_B9FA_4916_8233_CD5BC63ACE03&#45;&gt;EAID_BFB5435D_B399_4d10_9134_E307BA5CD2DB -->
<g id="edge16" class="edge"><title>EAID_90051A64_B9FA_4916_8233_CD5BC63ACE03&#45;&gt;EAID_BFB5435D_B399_4d10_9134_E307BA5CD2DB</title>
<path fill="none" stroke="black" d="M2073.05,-352.683C2081.62,-354.549 2090.19,-356.416 2098.73,-358.275"/>
<polygon fill="black" stroke="black" points="2098.21,-361.745 2108.73,-360.453 2099.7,-354.905 2098.21,-361.745"/>
</g>
<!-- EAID_7C1C59BE_008C_4fd0_8D9A_5146CEFC8D40 -->
<g id="node14" class="node"><title>EAID_7C1C59BE_008C_4fd0_8D9A_5146CEFC8D40</title>
<image xlink:href="img/control1.png" width="106px" height="75px" preserveAspectRatio="xMinYMin meet" x="968" y="-458.662"/>
<text text-anchor="start" x="921" y="-360.462" font-family="Times New Roman,serif" font-size="24.00">query volunteers info</text>
</g>
<!-- EAID_7C1C59BE_008C_4fd0_8D9A_5146CEFC8D40&#45;&gt;EAID_108D43A0_29C4_4008_B44C_8E48C2F3BC66 -->
<g id="edge14" class="edge"><title>EAID_7C1C59BE_008C_4fd0_8D9A_5146CEFC8D40&#45;&gt;EAID_108D43A0_29C4_4008_B44C_8E48C2F3BC66</title>
<path fill="none" stroke="black" d="M1131.43,-392.404C1139.65,-391.332 1148.09,-390.233 1156.63,-389.119"/>
<polygon fill="black" stroke="black" points="1157.25,-392.568 1166.71,-387.806 1156.35,-385.627 1157.25,-392.568"/>
</g>
<!-- EAID_7C1C59BE_008C_4fd0_8D9A_5146CEFC8D40&#45;&gt;EAID_42BDC26F_ECCD_460f_A01B_081498D498B1 -->
<g id="edge22" class="edge"><title>EAID_7C1C59BE_008C_4fd0_8D9A_5146CEFC8D40&#45;&gt;EAID_42BDC26F_ECCD_460f_A01B_081498D498B1</title>
<path fill="none" stroke="black" d="M1131.12,-423.625C1143.21,-425.158 1155.35,-426.549 1167,-427.662 1762.96,-484.6 2486.42,-490.445 2718.23,-490.768"/>
<polygon fill="black" stroke="black" points="2718.24,-494.267 2728.24,-490.778 2718.25,-487.267 2718.24,-494.267"/>
</g>
<!-- EAID_2226A26A_5AAD_495d_AC13_0F27596CD292&#45;&gt;EAID_8765353A_FB18_495e_BB71_D6304D5F9830 -->
<g id="edge21" class="edge"><title>EAID_2226A26A_5AAD_495d_AC13_0F27596CD292&#45;&gt;EAID_8765353A_FB18_495e_BB71_D6304D5F9830</title>
<path fill="none" stroke="black" d="M875.068,-354.42C886.901,-348.563 899.076,-343.114 911,-338.662 1421.16,-148.197 1567.48,-139.094 2109,-81.6622 2205.13,-71.4673 2462.82,-29.175 2544,-81.6622 2576.74,-102.832 2553.43,-133.128 2580,-161.662 2624.42,-209.368 2693.21,-241.435 2740.64,-259.329"/>
<polygon fill="black" stroke="black" points="2739.53,-262.65 2750.12,-262.826 2741.95,-256.082 2739.53,-262.65"/>
</g>
<!-- EAID_2226A26A_5AAD_495d_AC13_0F27596CD292&#45;&gt;EAID_7C1C59BE_008C_4fd0_8D9A_5146CEFC8D40 -->
<g id="edge25" class="edge"><title>EAID_2226A26A_5AAD_495d_AC13_0F27596CD292&#45;&gt;EAID_7C1C59BE_008C_4fd0_8D9A_5146CEFC8D40</title>
<path fill="none" stroke="black" d="M875.067,-406.662C883.486,-406.662 892.12,-406.662 900.775,-406.662"/>
<polygon fill="black" stroke="black" points="900.935,-410.162 910.935,-406.662 900.935,-403.162 900.935,-410.162"/>
</g>
</g>
</svg>
