<?xml version="1.0" encoding="UTF-8" standalone="no"?>
<!DOCTYPE svg PUBLIC "-//W3C//DTD SVG 1.1//EN"
 "http://www.w3.org/Graphics/SVG/1.1/DTD/svg11.dtd">
<!-- Generated by graphviz version 2.38.0 (20140413.2041)
 -->
<!-- Title: g Pages: 1 -->
<svg width="458pt" height="512pt"
 viewBox="0.00 0.00 458.00 512.00" xmlns="http://www.w3.org/2000/svg" xmlns:xlink="http://www.w3.org/1999/xlink">
<g id="graph0" class="graph" transform="scale(1 1) rotate(0) translate(4 508)">
<title>g</title>
<polygon fill="white" stroke="none" points="-4,4 -4,-508 454,-508 454,4 -4,4"/>
<!-- EAID_AEEA277E_69FF_47c2_A9CD_376A0E639E01 -->
<g id="node1" class="node"><title>EAID_AEEA277E_69FF_47c2_A9CD_376A0E639E01</title>
<image xlink:href="img/actor1.png" width="61px" height="90px" preserveAspectRatio="xMinYMin meet" x="68.5" y="-480.5"/>
<text text-anchor="start" x="77" y="-367.3" font-family="Times New Roman,serif" font-size="24.00">User</text>
</g>
<!-- EAID_4DD41B17_9B81_4dce_A227_999219CC82AB -->
<g id="node2" class="node"><title>EAID_4DD41B17_9B81_4dce_A227_999219CC82AB</title>
<image xlink:href="img/boundary3.png" width="91px" height="67px" preserveAspectRatio="xMinYMin meet" x="296.5" y="-497.5"/>
<text text-anchor="start" x="296.5" y="-407.3" font-family="Times New Roman,serif" font-size="24.00">AR mode</text>
</g>
<!-- EAID_AEEA277E_69FF_47c2_A9CD_376A0E639E01&#45;&gt;EAID_4DD41B17_9B81_4dce_A227_999219CC82AB -->
<g id="edge1" class="edge"><title>EAID_AEEA277E_69FF_47c2_A9CD_376A0E639E01&#45;&gt;EAID_4DD41B17_9B81_4dce_A227_999219CC82AB</title>
<path fill="none" stroke="black" d="M139.026,-425.256C176.069,-429.714 232.111,-436.457 275.693,-441.702"/>
<polygon fill="black" stroke="black" points="275.29,-445.178 285.636,-442.898 276.126,-438.228 275.29,-445.178"/>
</g>
<!-- EAID_C516DCEB_2D4B_445c_BE6C_A9B2022A3DE9 -->
<g id="node3" class="node"><title>EAID_C516DCEB_2D4B_445c_BE6C_A9B2022A3DE9</title>
<image xlink:href="img/boundary3.png" width="115px" height="67px" preserveAspectRatio="xMinYMin meet" x="284.5" y="-370.5"/>
<text text-anchor="start" x="243.5" y="-280.3" font-family="Times New Roman,serif" font-size="24.00">Not in Hawaii Mode</text>
</g>
<!-- EAID_AEEA277E_69FF_47c2_A9CD_376A0E639E01&#45;&gt;EAID_C516DCEB_2D4B_445c_BE6C_A9B2022A3DE9 -->
<g id="edge2" class="edge"><title>EAID_AEEA277E_69FF_47c2_A9CD_376A0E639E01&#45;&gt;EAID_C516DCEB_2D4B_445c_BE6C_A9B2022A3DE9</title>
<path fill="none" stroke="black" d="M139.026,-404.427C162.262,-394.979 192.973,-382.49 223.396,-370.119"/>
<polygon fill="black" stroke="black" points="224.875,-373.296 232.82,-366.287 222.238,-366.812 224.875,-373.296"/>
</g>
<!-- EAID_7A828811_6F7E_4a72_83BE_7EB1729B48B0 -->
<g id="node4" class="node"><title>EAID_7A828811_6F7E_4a72_83BE_7EB1729B48B0</title>
<image xlink:href="img/control1.png" width="106px" height="75px" preserveAspectRatio="xMinYMin meet" x="46" y="-272.5"/>
<text text-anchor="start" x="10.5" y="-174.3" font-family="Times New Roman,serif" font-size="24.00">Check If In hawaii</text>
</g>
<!-- EAID_7A828811_6F7E_4a72_83BE_7EB1729B48B0&#45;&gt;EAID_4DD41B17_9B81_4dce_A227_999219CC82AB -->
<g id="edge3" class="edge"><title>EAID_7A828811_6F7E_4a72_83BE_7EB1729B48B0&#45;&gt;EAID_4DD41B17_9B81_4dce_A227_999219CC82AB</title>
<path fill="none" stroke="black" d="M145.201,-279.433C179.638,-323.477 222.639,-377.562 233,-386.5 246.282,-397.957 261.934,-408.477 277.124,-417.504"/>
<polygon fill="black" stroke="black" points="275.585,-420.657 285.992,-422.642 279.094,-414.6 275.585,-420.657"/>
</g>
<!-- EAID_7A828811_6F7E_4a72_83BE_7EB1729B48B0&#45;&gt;EAID_C516DCEB_2D4B_445c_BE6C_A9B2022A3DE9 -->
<g id="edge5" class="edge"><title>EAID_7A828811_6F7E_4a72_83BE_7EB1729B48B0&#45;&gt;EAID_C516DCEB_2D4B_445c_BE6C_A9B2022A3DE9</title>
<path fill="none" stroke="black" d="M197.177,-261.84C205.892,-265.529 214.773,-269.288 223.628,-273.035"/>
<polygon fill="black" stroke="black" points="222.264,-276.259 232.838,-276.933 224.993,-269.812 222.264,-276.259"/>
</g>
<!-- EAID_4998CE95_6BF0_42b7_8984_BA5E8944C781 -->
<g id="node5" class="node"><title>EAID_4998CE95_6BF0_42b7_8984_BA5E8944C781</title>
<image xlink:href="img/entity1.png" width="85px" height="72px" preserveAspectRatio="xMinYMin meet" x="299.5" y="-243.5"/>
<text text-anchor="start" x="299.5" y="-148.3" font-family="Times New Roman,serif" font-size="24.00">Location</text>
</g>
<!-- EAID_7A828811_6F7E_4a72_83BE_7EB1729B48B0&#45;&gt;EAID_4998CE95_6BF0_42b7_8984_BA5E8944C781 -->
<g id="edge4" class="edge"><title>EAID_7A828811_6F7E_4a72_83BE_7EB1729B48B0&#45;&gt;EAID_4998CE95_6BF0_42b7_8984_BA5E8944C781</title>
<path fill="none" stroke="black" d="M197.177,-209.152C224.814,-205.941 254.114,-202.537 278.97,-199.649"/>
<polygon fill="black" stroke="black" points="279.446,-203.117 288.976,-198.486 278.638,-196.164 279.446,-203.117"/>
</g>
<!-- EAID_A4ED9F85_A0C6_4a99_AA18_46FCB3A6017A -->
<g id="node6" class="node"><title>EAID_A4ED9F85_A0C6_4a99_AA18_46FCB3A6017A</title>
<image xlink:href="img/control1.png" width="106px" height="75px" preserveAspectRatio="xMinYMin meet" x="288.5" y="-110.5"/>
<text text-anchor="start" x="276.5" y="-12.3" font-family="Times New Roman,serif" font-size="24.00">Render Mode</text>
</g>
<!-- EAID_7A828811_6F7E_4a72_83BE_7EB1729B48B0&#45;&gt;EAID_A4ED9F85_A0C6_4a99_AA18_46FCB3A6017A -->
<g id="edge6" class="edge"><title>EAID_7A828811_6F7E_4a72_83BE_7EB1729B48B0&#45;&gt;EAID_A4ED9F85_A0C6_4a99_AA18_46FCB3A6017A</title>
<path fill="none" stroke="black" d="M181.311,-161.94C198.291,-150.056 216.145,-137.755 233,-126.5 241.058,-121.119 249.511,-115.586 257.988,-110.109"/>
<polygon fill="black" stroke="black" points="259.942,-113.014 266.459,-104.66 256.155,-107.127 259.942,-113.014"/>
</g>
</g>
</svg>
