<?xml version="1.0" encoding="UTF-8" standalone="no"?>
<!DOCTYPE svg PUBLIC "-//W3C//DTD SVG 1.1//EN"
 "http://www.w3.org/Graphics/SVG/1.1/DTD/svg11.dtd">
<!-- Generated by graphviz version 2.38.0 (20140413.2041)
 -->
<!-- Title: g Pages: 1 -->
<svg width="2971pt" height="1105pt"
 viewBox="0.00 0.00 2971.00 1105.00" xmlns="http://www.w3.org/2000/svg" xmlns:xlink="http://www.w3.org/1999/xlink">
<g id="graph0" class="graph" transform="scale(1 1) rotate(0) translate(4 1101)">
<title>g</title>
<polygon fill="white" stroke="none" points="-4,4 -4,-1101 2967,-1101 2967,4 -4,4"/>
<g id="clust1" class="cluster"><title>cluster0</title>
<polygon fill="none" stroke="black" stroke-width="2" points="438,-275 438,-978 1128,-978 1128,-275 438,-275"/>
<text text-anchor="start" x="761" y="-963.8" font-family="Times New Roman,serif" font-weight="bold" font-size="14.00">System</text>
</g>
<g id="clust3" class="cluster"><title>cluster1000</title>
<polygon fill="none" stroke="black" stroke-width="2" points="92,-8 92,-267 2955,-267 2955,-8 92,-8"/>
<text text-anchor="start" x="1478" y="-252.8" font-family="Times New Roman,serif" font-weight="bold" font-size="14.00">Domain Model</text>
</g>
<g id="clust2" class="cluster"><title>cluster1</title>
<polygon fill="none" stroke="black" stroke-width="2" points="556,-986 556,-1089 1082,-1089 1082,-986 556,-986"/>
<text text-anchor="start" x="776" y="-1074.8" font-family="Times New Roman,serif" font-weight="bold" font-size="14.00">Administrator</text>
</g>
<!-- EAID_12821403_434B_45e8_96A2_5098AB17E7C8___EAID_69E671CF_1CBB_46ad_81AE_28DBEF452C35 -->
<g id="node1" class="node"><title>EAID_12821403_434B_45e8_96A2_5098AB17E7C8___EAID_69E671CF_1CBB_46ad_81AE_28DBEF452C35</title>
<image xlink:href="img/activity_icon.png" width="30px" height="20px" preserveAspectRatio="xMinYMin meet" x="663.5" y="-941"/>
<text text-anchor="start" x="585" y="-906.8" font-family="Times New Roman,serif" font-weight="bold" font-size="14.00">Administrator:approve sign up</text>
<text text-anchor="start" x="658.5" y="-892.8" font-family="Times New Roman,serif" font-weight="bold" font-size="14.00">screen</text>
</g>
<!-- EAID_69E671CF_1CBB_46ad_81AE_28DBEF452C35___EAID_8E7F1892_218B_4ed2_9AFC_2D8D0B916E60 -->
<g id="node3" class="node"><title>EAID_69E671CF_1CBB_46ad_81AE_28DBEF452C35___EAID_8E7F1892_218B_4ed2_9AFC_2D8D0B916E60</title>
<image xlink:href="img/activity_icon.png" width="30px" height="20px" preserveAspectRatio="xMinYMin meet" x="769" y="-641"/>
<text text-anchor="start" x="735.5" y="-606.8" font-family="Times New Roman,serif" font-weight="bold" font-size="14.00">approve sign up</text>
<text text-anchor="start" x="695" y="-592.8" font-family="Times New Roman,serif" font-weight="bold" font-size="14.00">screen:retrieve request detail</text>
</g>
<!-- EAID_12821403_434B_45e8_96A2_5098AB17E7C8___EAID_69E671CF_1CBB_46ad_81AE_28DBEF452C35&#45;&gt;EAID_69E671CF_1CBB_46ad_81AE_28DBEF452C35___EAID_8E7F1892_218B_4ed2_9AFC_2D8D0B916E60 -->
<g id="edge1" class="edge"><title>EAID_12821403_434B_45e8_96A2_5098AB17E7C8___EAID_69E671CF_1CBB_46ad_81AE_28DBEF452C35&#45;&gt;EAID_69E671CF_1CBB_46ad_81AE_28DBEF452C35___EAID_8E7F1892_218B_4ed2_9AFC_2D8D0B916E60</title>
<path fill="none" stroke="black" d="M752.881,-882.964C806.651,-855.994 874.467,-811.11 903,-747 914.566,-721.013 917.355,-707.556 903,-683 896.019,-671.059 886.04,-661.081 874.792,-652.791"/>
<polygon fill="black" stroke="black" points="876.631,-649.808 866.402,-647.049 872.678,-655.585 876.631,-649.808"/>
</g>
<!-- EAID_69E671CF_1CBB_46ad_81AE_28DBEF452C35___EAID_059FB28B_A406_45ad_AD8D_B562A3FD4F0B -->
<g id="node4" class="node"><title>EAID_69E671CF_1CBB_46ad_81AE_28DBEF452C35___EAID_059FB28B_A406_45ad_AD8D_B562A3FD4F0B</title>
<image xlink:href="img/activity_icon.png" width="30px" height="20px" preserveAspectRatio="xMinYMin meet" x="663" y="-841"/>
<text text-anchor="start" x="629.5" y="-806.8" font-family="Times New Roman,serif" font-weight="bold" font-size="14.00">approve sign up</text>
<text text-anchor="start" x="583" y="-792.8" font-family="Times New Roman,serif" font-weight="bold" font-size="14.00">screen:retrieve signup requests</text>
</g>
<!-- EAID_12821403_434B_45e8_96A2_5098AB17E7C8___EAID_69E671CF_1CBB_46ad_81AE_28DBEF452C35&#45;&gt;EAID_69E671CF_1CBB_46ad_81AE_28DBEF452C35___EAID_059FB28B_A406_45ad_AD8D_B562A3FD4F0B -->
<g id="edge2" class="edge"><title>EAID_12821403_434B_45e8_96A2_5098AB17E7C8___EAID_69E671CF_1CBB_46ad_81AE_28DBEF452C35&#45;&gt;EAID_69E671CF_1CBB_46ad_81AE_28DBEF452C35___EAID_059FB28B_A406_45ad_AD8D_B562A3FD4F0B</title>
<path fill="none" stroke="black" d="M678,-882.992C678,-874.859 678,-865.959 678,-857.378"/>
<polygon fill="black" stroke="black" points="681.5,-857.142 678,-847.142 674.5,-857.142 681.5,-857.142"/>
</g>
<!-- EAID_69E671CF_1CBB_46ad_81AE_28DBEF452C35 -->
<g id="node21" class="node"><title>EAID_69E671CF_1CBB_46ad_81AE_28DBEF452C35</title>
<polygon fill="none" stroke="black" points="110,-168 110,-189 273,-189 273,-168 110,-168"/>
<text text-anchor="start" x="126.5" y="-175.8" font-family="Times New Roman,serif" font-weight="bold" font-size="14.00">approvesignupscreen</text>
<polygon fill="none" stroke="black" points="110,-147 110,-168 273,-168 273,-147 110,-147"/>
<text text-anchor="start" x="122" y="-154.8" font-family="Times New Roman,serif" font-weight="bold" font-size="14.00">approvesignupscreen()</text>
<polygon fill="none" stroke="black" points="110,-126 110,-147 273,-147 273,-126 110,-126"/>
<text text-anchor="start" x="144.5" y="-133.8" font-family="Times New Roman,serif" font-weight="bold" font-size="14.00">signuprequest()</text>
<polygon fill="none" stroke="black" points="110,-105 110,-126 273,-126 273,-105 110,-105"/>
<text text-anchor="start" x="152" y="-112.8" font-family="Times New Roman,serif" font-weight="bold" font-size="14.00">signuppage()</text>
<polygon fill="none" stroke="black" points="110,-84 110,-105 273,-105 273,-84 110,-84"/>
<text text-anchor="start" x="113" y="-91.8" font-family="Times New Roman,serif" font-weight="bold" font-size="14.00">approveuserregistration()</text>
<polygon fill="none" stroke="black" points="110,-63 110,-84 273,-84 273,-63 110,-63"/>
<text text-anchor="start" x="159.5" y="-70.8" font-family="Times New Roman,serif" font-weight="bold" font-size="14.00">Assignee()</text>
<polygon fill="none" stroke="black" points="108.5,-62 108.5,-190 273.5,-190 273.5,-62 108.5,-62"/>
</g>
<!-- EAID_12821403_434B_45e8_96A2_5098AB17E7C8___EAID_69E671CF_1CBB_46ad_81AE_28DBEF452C35&#45;&gt;EAID_69E671CF_1CBB_46ad_81AE_28DBEF452C35 -->
<g id="edge14" class="edge"><title>EAID_12821403_434B_45e8_96A2_5098AB17E7C8___EAID_69E671CF_1CBB_46ad_81AE_28DBEF452C35&#45;&gt;EAID_69E671CF_1CBB_46ad_81AE_28DBEF452C35</title>
<path fill="none" stroke="black" stroke-dasharray="5,2" d="M574.288,-905.355C384.36,-886.644 0,-834.18 0,-716 0,-716 0,-716 0,-414 0,-350.184 3.68597,-330.03 36,-275 51.8102,-248.076 73.9107,-222.9 96.4787,-201.219"/>
<polygon fill="black" stroke="black" points="98.9381,-203.711 103.815,-194.305 94.1371,-198.616 98.9381,-203.711"/>
</g>
<!-- EAID_12821403_434B_45e8_96A2_5098AB17E7C8___EAID_6A35A319_2110_4995_B38B_6F6A9FF9FF91 -->
<g id="node2" class="node"><title>EAID_12821403_434B_45e8_96A2_5098AB17E7C8___EAID_6A35A319_2110_4995_B38B_6F6A9FF9FF91</title>
<image xlink:href="img/activity_icon.png" width="30px" height="20px" preserveAspectRatio="xMinYMin meet" x="768" y="-534"/>
<text text-anchor="start" x="672" y="-499.8" font-family="Times New Roman,serif" font-weight="bold" font-size="14.00">Administrator:signup request details</text>
</g>
<!-- EAID_6A35A319_2110_4995_B38B_6F6A9FF9FF91___EAID_665CD2E5_561F_4cbe_93E2_4E2C0A1DA97B -->
<g id="node9" class="node"><title>EAID_6A35A319_2110_4995_B38B_6F6A9FF9FF91___EAID_665CD2E5_561F_4cbe_93E2_4E2C0A1DA97B</title>
<image xlink:href="img/activity_icon.png" width="30px" height="20px" preserveAspectRatio="xMinYMin meet" x="570" y="-441"/>
<text text-anchor="start" x="496" y="-406.8" font-family="Times New Roman,serif" font-weight="bold" font-size="14.00">signup request details:update</text>
<text text-anchor="start" x="558" y="-392.8" font-family="Times New Roman,serif" font-weight="bold" font-size="14.00">user info</text>
</g>
<!-- EAID_12821403_434B_45e8_96A2_5098AB17E7C8___EAID_6A35A319_2110_4995_B38B_6F6A9FF9FF91&#45;&gt;EAID_6A35A319_2110_4995_B38B_6F6A9FF9FF91___EAID_665CD2E5_561F_4cbe_93E2_4E2C0A1DA97B -->
<g id="edge4" class="edge"><title>EAID_12821403_434B_45e8_96A2_5098AB17E7C8___EAID_6A35A319_2110_4995_B38B_6F6A9FF9FF91&#45;&gt;EAID_6A35A319_2110_4995_B38B_6F6A9FF9FF91___EAID_665CD2E5_561F_4cbe_93E2_4E2C0A1DA97B</title>
<path fill="none" stroke="black" d="M733.292,-489.397C710.234,-477.985 682.388,-464.202 657.081,-451.676"/>
<polygon fill="black" stroke="black" points="658.4,-448.424 647.885,-447.125 655.295,-454.698 658.4,-448.424"/>
</g>
<!-- EAID_8E7F1892_218B_4ed2_9AFC_2D8D0B916E60 -->
<g id="node22" class="node"><title>EAID_8E7F1892_218B_4ed2_9AFC_2D8D0B916E60</title>
<text text-anchor="middle" x="267" y="-411.3" font-family="Times New Roman,serif" font-size="14.00">EAID_8E7F1892_218B_4ed2_9AFC_2D8D0B916E60</text>
</g>
<!-- EAID_12821403_434B_45e8_96A2_5098AB17E7C8___EAID_6A35A319_2110_4995_B38B_6F6A9FF9FF91&#45;&gt;EAID_8E7F1892_218B_4ed2_9AFC_2D8D0B916E60 -->
<g id="edge15" class="edge"><title>EAID_12821403_434B_45e8_96A2_5098AB17E7C8___EAID_6A35A319_2110_4995_B38B_6F6A9FF9FF91&#45;&gt;EAID_8E7F1892_218B_4ed2_9AFC_2D8D0B916E60</title>
<path fill="none" stroke="black" stroke-dasharray="5,2" d="M683.438,-489.495C673.18,-487.199 662.895,-484.99 653,-483 556.297,-463.548 531.163,-464.002 434,-447 412.337,-443.209 389.123,-438.996 367.1,-434.929"/>
<polygon fill="black" stroke="black" points="367.545,-431.452 357.075,-433.072 366.271,-438.335 367.545,-431.452"/>
</g>
<!-- EAID_8E7F1892_218B_4ed2_9AFC_2D8D0B916E60___EAID_1E722D7C_8058_456b_85A8_490A65CD49BA -->
<g id="node6" class="node"><title>EAID_8E7F1892_218B_4ed2_9AFC_2D8D0B916E60___EAID_1E722D7C_8058_456b_85A8_490A65CD49BA</title>
<image xlink:href="img/activity_icon.png" width="30px" height="20px" preserveAspectRatio="xMinYMin meet" x="1006" y="-541"/>
<text text-anchor="start" x="932" y="-506.8" font-family="Times New Roman,serif" font-weight="bold" font-size="14.00">retrieve request detail:signup</text>
<text text-anchor="start" x="998" y="-492.8" font-family="Times New Roman,serif" font-weight="bold" font-size="14.00">request</text>
</g>
<!-- EAID_69E671CF_1CBB_46ad_81AE_28DBEF452C35___EAID_8E7F1892_218B_4ed2_9AFC_2D8D0B916E60&#45;&gt;EAID_8E7F1892_218B_4ed2_9AFC_2D8D0B916E60___EAID_1E722D7C_8058_456b_85A8_490A65CD49BA -->
<g id="edge6" class="edge"><title>EAID_69E671CF_1CBB_46ad_81AE_28DBEF452C35___EAID_8E7F1892_218B_4ed2_9AFC_2D8D0B916E60&#45;&gt;EAID_8E7F1892_218B_4ed2_9AFC_2D8D0B916E60___EAID_1E722D7C_8058_456b_85A8_490A65CD49BA</title>
<path fill="none" stroke="black" d="M858.988,-582.992C883.519,-572.849 910.939,-561.51 936.145,-551.088"/>
<polygon fill="black" stroke="black" points="937.782,-554.198 945.686,-547.142 935.108,-547.729 937.782,-554.198"/>
</g>
<!-- EAID_8E7F1892_218B_4ed2_9AFC_2D8D0B916E60___EAID_6A35A319_2110_4995_B38B_6F6A9FF9FF91 -->
<g id="node7" class="node"><title>EAID_8E7F1892_218B_4ed2_9AFC_2D8D0B916E60___EAID_6A35A319_2110_4995_B38B_6F6A9FF9FF91</title>
<image xlink:href="img/activity_icon.png" width="30px" height="20px" preserveAspectRatio="xMinYMin meet" x="530" y="-541"/>
<text text-anchor="start" x="456" y="-506.8" font-family="Times New Roman,serif" font-weight="bold" font-size="14.00">retrieve request detail:signup</text>
<text text-anchor="start" x="500.5" y="-492.8" font-family="Times New Roman,serif" font-weight="bold" font-size="14.00">request details</text>
</g>
<!-- EAID_69E671CF_1CBB_46ad_81AE_28DBEF452C35___EAID_8E7F1892_218B_4ed2_9AFC_2D8D0B916E60&#45;&gt;EAID_8E7F1892_218B_4ed2_9AFC_2D8D0B916E60___EAID_6A35A319_2110_4995_B38B_6F6A9FF9FF91 -->
<g id="edge7" class="edge"><title>EAID_69E671CF_1CBB_46ad_81AE_28DBEF452C35___EAID_8E7F1892_218B_4ed2_9AFC_2D8D0B916E60&#45;&gt;EAID_8E7F1892_218B_4ed2_9AFC_2D8D0B916E60___EAID_6A35A319_2110_4995_B38B_6F6A9FF9FF91</title>
<path fill="none" stroke="black" d="M708.379,-582.992C683.532,-572.804 655.746,-561.41 630.235,-550.95"/>
<polygon fill="black" stroke="black" points="631.53,-547.698 620.949,-547.142 628.874,-554.175 631.53,-547.698"/>
</g>
<!-- EAID_69E671CF_1CBB_46ad_81AE_28DBEF452C35___EAID_8E7F1892_218B_4ed2_9AFC_2D8D0B916E60&#45;&gt;EAID_8E7F1892_218B_4ed2_9AFC_2D8D0B916E60 -->
<g id="edge16" class="edge"><title>EAID_69E671CF_1CBB_46ad_81AE_28DBEF452C35___EAID_8E7F1892_218B_4ed2_9AFC_2D8D0B916E60&#45;&gt;EAID_8E7F1892_218B_4ed2_9AFC_2D8D0B916E60</title>
<path fill="none" stroke="black" stroke-dasharray="5,2" d="M684.964,-607.157C613.465,-599.336 516.004,-582.627 437,-547 378.445,-520.595 321.663,-470.348 290.818,-440.343"/>
<polygon fill="black" stroke="black" points="293.128,-437.706 283.55,-433.178 288.214,-442.691 293.128,-437.706"/>
</g>
<!-- EAID_059FB28B_A406_45ad_AD8D_B562A3FD4F0B___EAID_69E671CF_1CBB_46ad_81AE_28DBEF452C35 -->
<g id="node5" class="node"><title>EAID_059FB28B_A406_45ad_AD8D_B562A3FD4F0B___EAID_69E671CF_1CBB_46ad_81AE_28DBEF452C35</title>
<image xlink:href="img/activity_icon.png" width="30px" height="20px" preserveAspectRatio="xMinYMin meet" x="769.5" y="-741"/>
<text text-anchor="start" x="685" y="-706.8" font-family="Times New Roman,serif" font-weight="bold" font-size="14.00">retrieve signup requests:approve</text>
<text text-anchor="start" x="740.5" y="-692.8" font-family="Times New Roman,serif" font-weight="bold" font-size="14.00">sign up screen</text>
</g>
<!-- EAID_69E671CF_1CBB_46ad_81AE_28DBEF452C35___EAID_059FB28B_A406_45ad_AD8D_B562A3FD4F0B&#45;&gt;EAID_059FB28B_A406_45ad_AD8D_B562A3FD4F0B___EAID_69E671CF_1CBB_46ad_81AE_28DBEF452C35 -->
<g id="edge8" class="edge"><title>EAID_69E671CF_1CBB_46ad_81AE_28DBEF452C35___EAID_059FB28B_A406_45ad_AD8D_B562A3FD4F0B&#45;&gt;EAID_059FB28B_A406_45ad_AD8D_B562A3FD4F0B___EAID_69E671CF_1CBB_46ad_81AE_28DBEF452C35</title>
<path fill="none" stroke="black" d="M705.211,-782.992C714.717,-773.787 725.648,-763.598 736.299,-754.002"/>
<polygon fill="black" stroke="black" points="738.853,-756.414 743.981,-747.142 734.19,-751.193 738.853,-756.414"/>
</g>
<!-- EAID_059FB28B_A406_45ad_AD8D_B562A3FD4F0B___EAID_1E722D7C_8058_456b_85A8_490A65CD49BA -->
<g id="node8" class="node"><title>EAID_059FB28B_A406_45ad_AD8D_B562A3FD4F0B___EAID_1E722D7C_8058_456b_85A8_490A65CD49BA</title>
<image xlink:href="img/activity_icon.png" width="30px" height="20px" preserveAspectRatio="xMinYMin meet" x="536" y="-741"/>
<text text-anchor="start" x="456" y="-706.8" font-family="Times New Roman,serif" font-weight="bold" font-size="14.00">retrieve signup requests:signup</text>
<text text-anchor="start" x="528" y="-692.8" font-family="Times New Roman,serif" font-weight="bold" font-size="14.00">request</text>
</g>
<!-- EAID_69E671CF_1CBB_46ad_81AE_28DBEF452C35___EAID_059FB28B_A406_45ad_AD8D_B562A3FD4F0B&#45;&gt;EAID_059FB28B_A406_45ad_AD8D_B562A3FD4F0B___EAID_1E722D7C_8058_456b_85A8_490A65CD49BA -->
<g id="edge9" class="edge"><title>EAID_69E671CF_1CBB_46ad_81AE_28DBEF452C35___EAID_059FB28B_A406_45ad_AD8D_B562A3FD4F0B&#45;&gt;EAID_059FB28B_A406_45ad_AD8D_B562A3FD4F0B___EAID_1E722D7C_8058_456b_85A8_490A65CD49BA</title>
<path fill="none" stroke="black" d="M637.816,-782.992C625.656,-773.608 612.17,-763.202 599.524,-753.444"/>
<polygon fill="black" stroke="black" points="601.413,-750.481 591.358,-747.142 597.137,-756.023 601.413,-750.481"/>
</g>
<!-- EAID_69E671CF_1CBB_46ad_81AE_28DBEF452C35___EAID_059FB28B_A406_45ad_AD8D_B562A3FD4F0B&#45;&gt;EAID_8E7F1892_218B_4ed2_9AFC_2D8D0B916E60 -->
<g id="edge17" class="edge"><title>EAID_69E671CF_1CBB_46ad_81AE_28DBEF452C35___EAID_059FB28B_A406_45ad_AD8D_B562A3FD4F0B&#45;&gt;EAID_8E7F1892_218B_4ed2_9AFC_2D8D0B916E60</title>
<path fill="none" stroke="black" stroke-dasharray="5,2" d="M572.932,-803.834C527.139,-794.907 475.294,-778.205 437,-747 335.927,-664.638 288.56,-506.412 273.038,-443.131"/>
<polygon fill="black" stroke="black" points="276.38,-442.054 270.66,-433.135 269.57,-443.674 276.38,-442.054"/>
</g>
<!-- EAID_059FB28B_A406_45ad_AD8D_B562A3FD4F0B___EAID_69E671CF_1CBB_46ad_81AE_28DBEF452C35&#45;&gt;EAID_69E671CF_1CBB_46ad_81AE_28DBEF452C35___EAID_8E7F1892_218B_4ed2_9AFC_2D8D0B916E60 -->
<g id="edge10" class="edge"><title>EAID_059FB28B_A406_45ad_AD8D_B562A3FD4F0B___EAID_69E671CF_1CBB_46ad_81AE_28DBEF452C35&#45;&gt;EAID_69E671CF_1CBB_46ad_81AE_28DBEF452C35___EAID_8E7F1892_218B_4ed2_9AFC_2D8D0B916E60</title>
<path fill="none" stroke="black" d="M784,-682.992C784,-674.859 784,-665.959 784,-657.378"/>
<polygon fill="black" stroke="black" points="787.5,-657.142 784,-647.142 780.5,-657.142 787.5,-657.142"/>
</g>
<!-- EAID_059FB28B_A406_45ad_AD8D_B562A3FD4F0B___EAID_69E671CF_1CBB_46ad_81AE_28DBEF452C35&#45;&gt;EAID_69E671CF_1CBB_46ad_81AE_28DBEF452C35___EAID_059FB28B_A406_45ad_AD8D_B562A3FD4F0B -->
<g id="edge11" class="edge"><title>EAID_059FB28B_A406_45ad_AD8D_B562A3FD4F0B___EAID_69E671CF_1CBB_46ad_81AE_28DBEF452C35&#45;&gt;EAID_69E671CF_1CBB_46ad_81AE_28DBEF452C35___EAID_059FB28B_A406_45ad_AD8D_B562A3FD4F0B</title>
<path fill="none" stroke="black" d="M756.65,-747.142C747.13,-756.357 736.193,-766.548 725.545,-776.138"/>
<polygon fill="black" stroke="black" points="722.996,-773.722 717.867,-782.992 727.658,-778.944 722.996,-773.722"/>
</g>
<!-- EAID_059FB28B_A406_45ad_AD8D_B562A3FD4F0B___EAID_69E671CF_1CBB_46ad_81AE_28DBEF452C35&#45;&gt;EAID_69E671CF_1CBB_46ad_81AE_28DBEF452C35 -->
<g id="edge18" class="edge"><title>EAID_059FB28B_A406_45ad_AD8D_B562A3FD4F0B___EAID_69E671CF_1CBB_46ad_81AE_28DBEF452C35&#45;&gt;EAID_69E671CF_1CBB_46ad_81AE_28DBEF452C35</title>
<path fill="none" stroke="black" stroke-dasharray="5,2" d="M685.954,-682.915C504.013,-624.255 129.395,-498.51 95,-447 45.193,-372.409 90.5855,-271.171 134.341,-202.695"/>
<polygon fill="black" stroke="black" points="137.417,-204.384 139.938,-194.093 131.55,-200.566 137.417,-204.384"/>
</g>
<!-- EAID_8E7F1892_218B_4ed2_9AFC_2D8D0B916E60___EAID_1E722D7C_8058_456b_85A8_490A65CD49BA&#45;&gt;EAID_69E671CF_1CBB_46ad_81AE_28DBEF452C35 -->
<g id="edge19" class="edge"><title>EAID_8E7F1892_218B_4ed2_9AFC_2D8D0B916E60___EAID_1E722D7C_8058_456b_85A8_490A65CD49BA&#45;&gt;EAID_69E671CF_1CBB_46ad_81AE_28DBEF452C35</title>
<path fill="none" stroke="black" stroke-dasharray="5,2" d="M982.307,-482.841C912.014,-428.397 756.472,-317.683 604,-275 570.392,-265.592 320.787,-283.437 290,-267 263.338,-252.766 242.252,-227.801 226.514,-202.857"/>
<polygon fill="black" stroke="black" points="229.35,-200.785 221.169,-194.052 223.366,-204.417 229.35,-200.785"/>
</g>
<!-- EAID_8E7F1892_218B_4ed2_9AFC_2D8D0B916E60___EAID_6A35A319_2110_4995_B38B_6F6A9FF9FF91&#45;&gt;EAID_6A35A319_2110_4995_B38B_6F6A9FF9FF91___EAID_665CD2E5_561F_4cbe_93E2_4E2C0A1DA97B -->
<g id="edge12" class="edge"><title>EAID_8E7F1892_218B_4ed2_9AFC_2D8D0B916E60___EAID_6A35A319_2110_4995_B38B_6F6A9FF9FF91&#45;&gt;EAID_6A35A319_2110_4995_B38B_6F6A9FF9FF91___EAID_665CD2E5_561F_4cbe_93E2_4E2C0A1DA97B</title>
<path fill="none" stroke="black" d="M557.656,-482.992C561.085,-474.591 564.849,-465.371 568.457,-456.53"/>
<polygon fill="black" stroke="black" points="571.75,-457.724 572.289,-447.142 565.269,-455.078 571.75,-457.724"/>
</g>
<!-- EAID_8E7F1892_218B_4ed2_9AFC_2D8D0B916E60___EAID_6A35A319_2110_4995_B38B_6F6A9FF9FF91&#45;&gt;EAID_8E7F1892_218B_4ed2_9AFC_2D8D0B916E60 -->
<g id="edge20" class="edge"><title>EAID_8E7F1892_218B_4ed2_9AFC_2D8D0B916E60___EAID_6A35A319_2110_4995_B38B_6F6A9FF9FF91&#45;&gt;EAID_8E7F1892_218B_4ed2_9AFC_2D8D0B916E60</title>
<path fill="none" stroke="black" stroke-dasharray="5,2" d="M457.039,-482.992C414.108,-467.858 363.634,-450.065 325.497,-436.621"/>
<polygon fill="black" stroke="black" points="326.178,-433.15 315.583,-433.126 323.85,-439.752 326.178,-433.15"/>
</g>
<!-- EAID_059FB28B_A406_45ad_AD8D_B562A3FD4F0B___EAID_1E722D7C_8058_456b_85A8_490A65CD49BA&#45;&gt;EAID_69E671CF_1CBB_46ad_81AE_28DBEF452C35 -->
<g id="edge21" class="edge"><title>EAID_059FB28B_A406_45ad_AD8D_B562A3FD4F0B___EAID_1E722D7C_8058_456b_85A8_490A65CD49BA&#45;&gt;EAID_69E671CF_1CBB_46ad_81AE_28DBEF452C35</title>
<path fill="none" stroke="black" stroke-dasharray="5,2" d="M445.919,-709.688C330.156,-703.012 153.289,-686.52 100,-647 48.2616,-608.63 38,-580.414 38,-516 38,-516 38,-516 38,-414 38,-351.308 35.0735,-331.615 62,-275 74.4408,-248.842 92.8371,-223.742 111.864,-201.88"/>
<polygon fill="black" stroke="black" points="114.586,-204.086 118.612,-194.286 109.353,-199.437 114.586,-204.086"/>
</g>
<!-- EAID_665CD2E5_561F_4cbe_93E2_4E2C0A1DA97B___EAID_55AA079A_4557_4758_A129_560A1DE1B632 -->
<g id="node10" class="node"><title>EAID_665CD2E5_561F_4cbe_93E2_4E2C0A1DA97B___EAID_55AA079A_4557_4758_A129_560A1DE1B632</title>
<image xlink:href="img/activity_icon.png" width="30px" height="20px" preserveAspectRatio="xMinYMin meet" x="506.5" y="-341"/>
<text text-anchor="start" x="457" y="-306.8" font-family="Times New Roman,serif" font-weight="bold" font-size="14.00">update user info:user</text>
<text text-anchor="start" x="509.5" y="-292.8" font-family="Times New Roman,serif" font-weight="bold" font-size="14.00">info</text>
</g>
<!-- EAID_6A35A319_2110_4995_B38B_6F6A9FF9FF91___EAID_665CD2E5_561F_4cbe_93E2_4E2C0A1DA97B&#45;&gt;EAID_665CD2E5_561F_4cbe_93E2_4E2C0A1DA97B___EAID_55AA079A_4557_4758_A129_560A1DE1B632 -->
<g id="edge13" class="edge"><title>EAID_6A35A319_2110_4995_B38B_6F6A9FF9FF91___EAID_665CD2E5_561F_4cbe_93E2_4E2C0A1DA97B&#45;&gt;EAID_665CD2E5_561F_4cbe_93E2_4E2C0A1DA97B___EAID_55AA079A_4557_4758_A129_560A1DE1B632</title>
<path fill="none" stroke="black" d="M564.75,-382.992C559.089,-374.323 552.857,-364.782 546.917,-355.685"/>
<polygon fill="black" stroke="black" points="549.736,-353.601 541.338,-347.142 543.875,-357.429 549.736,-353.601"/>
</g>
<!-- EAID_8CC61336_05C9_4a1f_A743_BF79C67F0640 -->
<g id="node20" class="node"><title>EAID_8CC61336_05C9_4a1f_A743_BF79C67F0640</title>
<polygon fill="none" stroke="black" points="309,-210 309,-231 504,-231 504,-210 309,-210"/>
<text text-anchor="start" x="379.5" y="-217.8" font-family="Times New Roman,serif" font-weight="bold" font-size="14.00">UserInfo</text>
<polygon fill="none" stroke="black" points="309,-189 309,-210 504,-210 504,-189 309,-189"/>
<text text-anchor="start" x="375" y="-196.8" font-family="Times New Roman,serif" font-weight="bold" font-size="14.00">UserInfo()</text>
<polygon fill="none" stroke="black" points="309,-168 309,-189 504,-189 504,-168 309,-168"/>
<text text-anchor="start" x="312" y="-175.8" font-family="Times New Roman,serif" font-weight="bold" font-size="14.00">Retrievecommentanduserinfo()</text>
<polygon fill="none" stroke="black" points="309,-147 309,-168 504,-168 504,-147 309,-147"/>
<text text-anchor="start" x="323" y="-154.8" font-family="Times New Roman,serif" font-weight="bold" font-size="14.00">verifyattendeeinformation()</text>
<polygon fill="none" stroke="black" points="309,-126 309,-147 504,-147 504,-126 309,-126"/>
<text text-anchor="start" x="331" y="-133.8" font-family="Times New Roman,serif" font-weight="bold" font-size="14.00">useralreadyexiststoasts()</text>
<polygon fill="none" stroke="black" points="309,-105 309,-126 504,-126 504,-105 309,-105"/>
<text text-anchor="start" x="342" y="-112.8" font-family="Times New Roman,serif" font-weight="bold" font-size="14.00">accountinformation()</text>
<polygon fill="none" stroke="black" points="309,-84 309,-105 504,-105 504,-84 309,-84"/>
<text text-anchor="start" x="340" y="-91.8" font-family="Times New Roman,serif" font-weight="bold" font-size="14.00">Verifydefaultuserlist()</text>
<polygon fill="none" stroke="black" points="309,-63 309,-84 504,-84 504,-63 309,-63"/>
<text text-anchor="start" x="333.5" y="-70.8" font-family="Times New Roman,serif" font-weight="bold" font-size="14.00">generaluserdashboard()</text>
<polygon fill="none" stroke="black" points="309,-42 309,-63 504,-63 504,-42 309,-42"/>
<text text-anchor="start" x="326" y="-49.8" font-family="Times New Roman,serif" font-weight="bold" font-size="14.00">Viewuserregistrationinfo()</text>
<polygon fill="none" stroke="black" points="309,-21 309,-42 504,-42 504,-21 309,-21"/>
<text text-anchor="start" x="330" y="-28.8" font-family="Times New Roman,serif" font-weight="bold" font-size="14.00">Userinfoalreadycreated()</text>
<polygon fill="none" stroke="black" points="307.5,-20 307.5,-232 504.5,-232 504.5,-20 307.5,-20"/>
</g>
<!-- EAID_6A35A319_2110_4995_B38B_6F6A9FF9FF91___EAID_665CD2E5_561F_4cbe_93E2_4E2C0A1DA97B&#45;&gt;EAID_8CC61336_05C9_4a1f_A743_BF79C67F0640 -->
<g id="edge22" class="edge"><title>EAID_6A35A319_2110_4995_B38B_6F6A9FF9FF91___EAID_665CD2E5_561F_4cbe_93E2_4E2C0A1DA97B&#45;&gt;EAID_8CC61336_05C9_4a1f_A743_BF79C67F0640</title>
<path fill="none" stroke="black" stroke-dasharray="5,2" d="M601.793,-382.78C616.04,-351.533 630.348,-304.043 604,-275 591.698,-261.44 538.171,-275.585 522,-267 509.886,-260.568 498.542,-252.287 488.056,-242.968"/>
<polygon fill="black" stroke="black" points="490.28,-240.257 480.573,-236.011 485.513,-245.384 490.28,-240.257"/>
</g>
<!-- EAID_665CD2E5_561F_4cbe_93E2_4E2C0A1DA97B___EAID_55AA079A_4557_4758_A129_560A1DE1B632&#45;&gt;EAID_8CC61336_05C9_4a1f_A743_BF79C67F0640 -->
<g id="edge23" class="edge"><title>EAID_665CD2E5_561F_4cbe_93E2_4E2C0A1DA97B___EAID_55AA079A_4557_4758_A129_560A1DE1B632&#45;&gt;EAID_8CC61336_05C9_4a1f_A743_BF79C67F0640</title>
<path fill="none" stroke="black" stroke-dasharray="5,2" d="M501.752,-282.7C495.027,-271.765 487.025,-258.753 478.553,-244.978"/>
<polygon fill="black" stroke="black" points="481.445,-242.999 473.225,-236.314 475.483,-246.666 481.445,-242.999"/>
</g>
<!-- EAID_12821403_434B_45e8_96A2_5098AB17E7C8___EAID_69E671CF_1CBB_46ad_81AE_28DBEF452C35_STL -->
<g id="node11" class="node"><title>EAID_12821403_434B_45e8_96A2_5098AB17E7C8___EAID_69E671CF_1CBB_46ad_81AE_28DBEF452C35_STL</title>
<image xlink:href="img/stimulus_icon.png" width="30px" height="20px" preserveAspectRatio="xMinYMin meet" x="663" y="-1052"/>
<text text-anchor="start" x="574" y="-1017.8" font-family="Times New Roman,serif" font-weight="bold" font-size="14.00">stl#Administrator:approve sign up</text>
<text text-anchor="start" x="658" y="-1003.8" font-family="Times New Roman,serif" font-weight="bold" font-size="14.00">screen</text>
</g>
<!-- EAID_12821403_434B_45e8_96A2_5098AB17E7C8___EAID_69E671CF_1CBB_46ad_81AE_28DBEF452C35_STL&#45;&gt;EAID_12821403_434B_45e8_96A2_5098AB17E7C8___EAID_69E671CF_1CBB_46ad_81AE_28DBEF452C35 -->
<g id="edge3" class="edge"><title>EAID_12821403_434B_45e8_96A2_5098AB17E7C8___EAID_69E671CF_1CBB_46ad_81AE_28DBEF452C35_STL&#45;&gt;EAID_12821403_434B_45e8_96A2_5098AB17E7C8___EAID_69E671CF_1CBB_46ad_81AE_28DBEF452C35</title>
<path fill="none" stroke="black" d="M678,-993.765C678,-982.477 678,-969.549 678,-957.518"/>
<polygon fill="black" stroke="black" points="681.5,-957.24 678,-947.24 674.5,-957.24 681.5,-957.24"/>
</g>
<!-- EAID_12821403_434B_45e8_96A2_5098AB17E7C8___EAID_6A35A319_2110_4995_B38B_6F6A9FF9FF91_STL -->
<g id="node12" class="node"><title>EAID_12821403_434B_45e8_96A2_5098AB17E7C8___EAID_6A35A319_2110_4995_B38B_6F6A9FF9FF91_STL</title>
<image xlink:href="img/stimulus_icon.png" width="30px" height="20px" preserveAspectRatio="xMinYMin meet" x="927" y="-1045"/>
<text text-anchor="start" x="820" y="-1010.8" font-family="Times New Roman,serif" font-weight="bold" font-size="14.00">stl#Administrator:signup request details</text>
</g>
<!-- EAID_12821403_434B_45e8_96A2_5098AB17E7C8___EAID_6A35A319_2110_4995_B38B_6F6A9FF9FF91_STL&#45;&gt;EAID_12821403_434B_45e8_96A2_5098AB17E7C8___EAID_6A35A319_2110_4995_B38B_6F6A9FF9FF91 -->
<g id="edge5" class="edge"><title>EAID_12821403_434B_45e8_96A2_5098AB17E7C8___EAID_6A35A319_2110_4995_B38B_6F6A9FF9FF91_STL&#45;&gt;EAID_12821403_434B_45e8_96A2_5098AB17E7C8___EAID_6A35A319_2110_4995_B38B_6F6A9FF9FF91</title>
<path fill="none" stroke="black" d="M942,-1000.23C942,-961.096 942,-882.582 942,-816 942,-816 942,-816 942,-714 942,-651.681 931.771,-630.979 892,-583 879.8,-568.282 863.484,-555.888 847.198,-545.918"/>
<polygon fill="black" stroke="black" points="848.576,-542.669 838.18,-540.63 845.035,-548.707 848.576,-542.669"/>
</g>
<!-- EAID_FDF84386_392A_47b9_AEB0_B17152B69BCF -->
<g id="node13" class="node"><title>EAID_FDF84386_392A_47b9_AEB0_B17152B69BCF</title>
<polygon fill="none" stroke="black" points="2530,-189 2530,-210 2938,-210 2938,-189 2530,-189"/>
<text text-anchor="start" x="2708.5" y="-196.8" font-family="Times New Roman,serif" font-weight="bold" font-size="14.00">Meeting</text>
<polygon fill="none" stroke="black" points="2530,-168 2530,-189 2938,-189 2938,-168 2530,-168"/>
<text text-anchor="start" x="2533" y="-175.8" font-family="Times New Roman,serif" font-weight="bold" font-size="14.00">EAID_A248345F_D11A_4400_BE20_A97C53DEF375 undefined</text>
<polygon fill="none" stroke="black" points="2530,-147 2530,-168 2938,-168 2938,-147 2530,-147"/>
<text text-anchor="start" x="2704" y="-154.8" font-family="Times New Roman,serif" font-weight="bold" font-size="14.00">Meeting()</text>
<polygon fill="none" stroke="black" points="2530,-126 2530,-147 2938,-147 2938,-126 2530,-126"/>
<text text-anchor="start" x="2658.5" y="-133.8" font-family="Times New Roman,serif" font-weight="bold" font-size="14.00">dropdownsettingsmenu()</text>
<polygon fill="none" stroke="black" points="2530,-105 2530,-126 2938,-126 2938,-105 2530,-105"/>
<text text-anchor="start" x="2635.5" y="-112.8" font-family="Times New Roman,serif" font-weight="bold" font-size="14.00">displaythecreatemeetingscreen()</text>
<polygon fill="none" stroke="black" points="2530,-84 2530,-105 2938,-105 2938,-84 2530,-84"/>
<text text-anchor="start" x="2649.5" y="-91.8" font-family="Times New Roman,serif" font-weight="bold" font-size="14.00">meetinginformationscreen()</text>
<polygon fill="none" stroke="black" points="2530,-63 2530,-84 2938,-84 2938,-63 2530,-63"/>
<text text-anchor="start" x="2656" y="-70.8" font-family="Times New Roman,serif" font-weight="bold" font-size="14.00">querymeetingsbyproject()</text>
<polygon fill="none" stroke="black" points="2530,-42 2530,-63 2938,-63 2938,-42 2530,-42"/>
<text text-anchor="start" x="2638" y="-49.8" font-family="Times New Roman,serif" font-weight="bold" font-size="14.00">meetinglistandpushlishoptions()</text>
<polygon fill="none" stroke="black" points="2529,-41 2529,-211 2939,-211 2939,-41 2529,-41"/>
</g>
<!-- EAID_7E65FF88_83D9_4e72_9255_EA0E5A41D0B2 -->
<g id="node14" class="node"><title>EAID_7E65FF88_83D9_4e72_9255_EA0E5A41D0B2</title>
<polygon fill="none" stroke="black" points="2085,-147 2085,-168 2494,-168 2494,-147 2085,-147"/>
<text text-anchor="start" x="2250" y="-154.8" font-family="Times New Roman,serif" font-weight="bold" font-size="14.00">Meeting Log</text>
<polygon fill="none" stroke="black" points="2085,-126 2085,-147 2494,-147 2494,-126 2085,-126"/>
<text text-anchor="start" x="2088" y="-133.8" font-family="Times New Roman,serif" font-weight="bold" font-size="14.00">EAID_FDF84386_392A_47b9_AEB0_B17152B69BCF undefined</text>
<polygon fill="none" stroke="black" points="2085,-105 2085,-126 2494,-126 2494,-105 2085,-105"/>
<text text-anchor="start" x="2247.5" y="-112.8" font-family="Times New Roman,serif" font-weight="bold" font-size="14.00">MeetingLog()</text>
<polygon fill="none" stroke="black" points="2085,-84 2085,-105 2494,-105 2494,-84 2085,-84"/>
<text text-anchor="start" x="2252.5" y="-91.8" font-family="Times New Roman,serif" font-weight="bold" font-size="14.00">Loginpage()</text>
<polygon fill="none" stroke="black" points="2083.5,-83 2083.5,-169 2494.5,-169 2494.5,-83 2083.5,-83"/>
</g>
<!-- EAID_A248345F_D11A_4400_BE20_A97C53DEF375 -->
<g id="node15" class="node"><title>EAID_A248345F_D11A_4400_BE20_A97C53DEF375</title>
<polygon fill="none" stroke="black" points="1630,-178 1630,-199 2049,-199 2049,-178 1630,-178"/>
<text text-anchor="start" x="1790.5" y="-185.8" font-family="Times New Roman,serif" font-weight="bold" font-size="14.00">Meeting Minute</text>
<polygon fill="none" stroke="black" points="1630,-157 1630,-178 2049,-178 2049,-157 1630,-157"/>
<text text-anchor="start" x="1641.5" y="-164.8" font-family="Times New Roman,serif" font-weight="bold" font-size="14.00">EAID_905D5DC7_566F_40c2_A927_E23E83C27975 undefined</text>
<polygon fill="none" stroke="black" points="1630,-136 1630,-157 2049,-157 2049,-136 1630,-136"/>
<text text-anchor="start" x="1633" y="-143.8" font-family="Times New Roman,serif" font-weight="bold" font-size="14.00">EAID_8AA0F4D1_CAA1_4d34_A2BD_4250BA9CCB27 undefined</text>
<polygon fill="none" stroke="black" points="1630,-115 1630,-136 2049,-136 2049,-115 1630,-115"/>
<text text-anchor="start" x="1788" y="-122.8" font-family="Times New Roman,serif" font-weight="bold" font-size="14.00">MeetingMinute()</text>
<polygon fill="none" stroke="black" points="1630,-94 1630,-115 2049,-115 2049,-94 1630,-94"/>
<text text-anchor="start" x="1764" y="-101.8" font-family="Times New Roman,serif" font-weight="bold" font-size="14.00">Selectingsettingsbutton()</text>
<polygon fill="none" stroke="black" points="1630,-73 1630,-94 2049,-94 2049,-73 1630,-73"/>
<text text-anchor="start" x="1741.5" y="-80.8" font-family="Times New Roman,serif" font-weight="bold" font-size="14.00">Displaydropdownsettingsmenu()</text>
<polygon fill="none" stroke="black" points="1630,-52 1630,-73 2049,-73 2049,-52 1630,-52"/>
<text text-anchor="start" x="1779.5" y="-59.8" font-family="Times New Roman,serif" font-weight="bold" font-size="14.00">selectadminoption()</text>
<polygon fill="none" stroke="black" points="1628.5,-51.5 1628.5,-200.5 2049.5,-200.5 2049.5,-51.5 1628.5,-51.5"/>
</g>
<!-- EAID_8AA0F4D1_CAA1_4d34_A2BD_4250BA9CCB27 -->
<g id="node16" class="node"><title>EAID_8AA0F4D1_CAA1_4d34_A2BD_4250BA9CCB27</title>
<polygon fill="none" stroke="black" points="1417,-189 1417,-210 1593,-210 1593,-189 1417,-189"/>
<text text-anchor="start" x="1424.5" y="-196.8" font-family="Times New Roman,serif" font-weight="bold" font-size="14.00">Meeting Minute Comment</text>
<polygon fill="none" stroke="black" points="1417,-168 1417,-189 1593,-189 1593,-168 1417,-168"/>
<text text-anchor="start" x="1423.5" y="-175.8" font-family="Times New Roman,serif" font-weight="bold" font-size="14.00">MeetingMinuteComment()</text>
<polygon fill="none" stroke="black" points="1417,-147 1417,-168 1593,-168 1593,-147 1417,-147"/>
<text text-anchor="start" x="1420" y="-154.8" font-family="Times New Roman,serif" font-weight="bold" font-size="14.00">submittedcommentsscreen()</text>
<polygon fill="none" stroke="black" points="1417,-126 1417,-147 1593,-147 1593,-126 1417,-126"/>
<text text-anchor="start" x="1455" y="-133.8" font-family="Times New Roman,serif" font-weight="bold" font-size="14.00">CommentView()</text>
<polygon fill="none" stroke="black" points="1417,-105 1417,-126 1593,-126 1593,-105 1417,-105"/>
<text text-anchor="start" x="1423.5" y="-112.8" font-family="Times New Roman,serif" font-weight="bold" font-size="14.00">Tasklistwithcommentbox()</text>
<polygon fill="none" stroke="black" points="1417,-84 1417,-105 1593,-105 1593,-84 1417,-84"/>
<text text-anchor="start" x="1424.5" y="-91.8" font-family="Times New Roman,serif" font-weight="bold" font-size="14.00">errorfortoolongcomment()</text>
<polygon fill="none" stroke="black" points="1417,-63 1417,-84 1593,-84 1593,-63 1417,-63"/>
<text text-anchor="start" x="1428" y="-70.8" font-family="Times New Roman,serif" font-weight="bold" font-size="14.00">opencommentinputpage()</text>
<polygon fill="none" stroke="black" points="1417,-42 1417,-63 1593,-63 1593,-42 1417,-42"/>
<text text-anchor="start" x="1434.5" y="-49.8" font-family="Times New Roman,serif" font-weight="bold" font-size="14.00">noavailablecomments()</text>
<polygon fill="none" stroke="black" points="1416,-41 1416,-211 1594,-211 1594,-41 1416,-41"/>
</g>
<!-- EAID_80445D8E_0ED8_4028_8CF3_60CA7E370CB9 -->
<g id="node17" class="node"><title>EAID_80445D8E_0ED8_4028_8CF3_60CA7E370CB9</title>
<polygon fill="none" stroke="black" points="972,-168 972,-189 1381,-189 1381,-168 972,-168"/>
<text text-anchor="start" x="1153.5" y="-175.8" font-family="Times New Roman,serif" font-weight="bold" font-size="14.00">Project</text>
<polygon fill="none" stroke="black" points="972,-147 972,-168 1381,-168 1381,-147 972,-147"/>
<text text-anchor="start" x="975" y="-154.8" font-family="Times New Roman,serif" font-weight="bold" font-size="14.00">EAID_FDF84386_392A_47b9_AEB0_B17152B69BCF undefined</text>
<polygon fill="none" stroke="black" points="972,-126 972,-147 1381,-147 1381,-126 972,-126"/>
<text text-anchor="start" x="1149" y="-133.8" font-family="Times New Roman,serif" font-weight="bold" font-size="14.00">Project()</text>
<polygon fill="none" stroke="black" points="972,-105 972,-126 1381,-126 1381,-105 972,-105"/>
<text text-anchor="start" x="1097.5" y="-112.8" font-family="Times New Roman,serif" font-weight="bold" font-size="14.00">Projectinformationerror()</text>
<polygon fill="none" stroke="black" points="972,-84 972,-105 1381,-105 1381,-84 972,-84"/>
<text text-anchor="start" x="1123" y="-91.8" font-family="Times New Roman,serif" font-weight="bold" font-size="14.00">EditProfilePage()</text>
<polygon fill="none" stroke="black" points="972,-63 972,-84 1381,-84 1381,-63 972,-63"/>
<text text-anchor="start" x="1097.5" y="-70.8" font-family="Times New Roman,serif" font-weight="bold" font-size="14.00">displayeditprojectscreen()</text>
<polygon fill="none" stroke="black" points="970.5,-62 970.5,-190 1381.5,-190 1381.5,-62 970.5,-62"/>
</g>
<!-- EAID_905D5DC7_566F_40c2_A927_E23E83C27975 -->
<g id="node18" class="node"><title>EAID_905D5DC7_566F_40c2_A927_E23E83C27975</title>
<polygon fill="none" stroke="black" points="773,-147 773,-168 936,-168 936,-147 773,-147"/>
<text text-anchor="start" x="797" y="-154.8" font-family="Times New Roman,serif" font-weight="bold" font-size="14.00">Status Notification</text>
<polygon fill="none" stroke="black" points="773,-126 773,-147 936,-147 936,-126 773,-126"/>
<text text-anchor="start" x="794.5" y="-133.8" font-family="Times New Roman,serif" font-weight="bold" font-size="14.00">StatusNotification()</text>
<polygon fill="none" stroke="black" points="773,-105 773,-126 936,-126 936,-105 773,-105"/>
<text text-anchor="start" x="776" y="-112.8" font-family="Times New Roman,serif" font-weight="bold" font-size="14.00">Updateacceptancestatus()</text>
<polygon fill="none" stroke="black" points="773,-84 773,-105 936,-105 936,-84 773,-84"/>
<text text-anchor="start" x="791" y="-91.8" font-family="Times New Roman,serif" font-weight="bold" font-size="14.00">Verifiesattendeelist()</text>
<polygon fill="none" stroke="black" points="771.5,-83 771.5,-169 936.5,-169 936.5,-83 771.5,-83"/>
</g>
<!-- EAID_EFF02F8D_2245_4876_8959_46CD3B88BAB0 -->
<g id="node19" class="node"><title>EAID_EFF02F8D_2245_4876_8959_46CD3B88BAB0</title>
<polygon fill="none" stroke="black" points="540,-168 540,-189 736,-189 736,-168 540,-168"/>
<text text-anchor="start" x="622" y="-175.8" font-family="Times New Roman,serif" font-weight="bold" font-size="14.00">Task</text>
<polygon fill="none" stroke="black" points="540,-147 540,-168 736,-168 736,-147 540,-147"/>
<text text-anchor="start" x="617.5" y="-154.8" font-family="Times New Roman,serif" font-weight="bold" font-size="14.00">Task()</text>
<polygon fill="none" stroke="black" points="540,-126 540,-147 736,-147 736,-126 540,-126"/>
<text text-anchor="start" x="573" y="-133.8" font-family="Times New Roman,serif" font-weight="bold" font-size="14.00">pendingtasksscreen()</text>
<polygon fill="none" stroke="black" points="540,-105 540,-126 736,-126 736,-105 540,-105"/>
<text text-anchor="start" x="592" y="-112.8" font-family="Times New Roman,serif" font-weight="bold" font-size="14.00">Querytasklist()</text>
<polygon fill="none" stroke="black" points="540,-84 540,-105 736,-105 736,-84 540,-84"/>
<text text-anchor="start" x="543" y="-91.8" font-family="Times New Roman,serif" font-weight="bold" font-size="14.00">querydetailoftaskandassignee()</text>
<polygon fill="none" stroke="black" points="540,-63 540,-84 736,-84 736,-63 540,-63"/>
<text text-anchor="start" x="558" y="-70.8" font-family="Times New Roman,serif" font-weight="bold" font-size="14.00">viewassignedtasksoption()</text>
<polygon fill="none" stroke="black" points="539,-62 539,-190 737,-190 737,-62 539,-62"/>
</g>
</g>
</svg>
