<?xml version="1.0" encoding="UTF-8" standalone="no"?>
<!DOCTYPE svg PUBLIC "-//W3C//DTD SVG 1.1//EN"
 "http://www.w3.org/Graphics/SVG/1.1/DTD/svg11.dtd">
<!-- Generated by graphviz version 2.38.0 (20140413.2041)
 -->
<!-- Title: g Pages: 1 -->
<svg width="5034pt" height="1167pt"
 viewBox="0.00 0.00 5034.00 1167.00" xmlns="http://www.w3.org/2000/svg" xmlns:xlink="http://www.w3.org/1999/xlink">
<g id="graph0" class="graph" transform="scale(1 1) rotate(0) translate(4 1163)">
<title>g</title>
<polygon fill="white" stroke="none" points="-4,4 -4,-1163 5030,-1163 5030,4 -4,4"/>
<g id="clust1" class="cluster"><title>cluster0</title>
<polygon fill="none" stroke="black" stroke-width="2" points="8,-8 8,-1040 517,-1040 517,-8 8,-8"/>
<text text-anchor="start" x="240.5" y="-1025.8" font-family="Times New Roman,serif" font-weight="bold" font-size="14.00">System</text>
</g>
<g id="clust3" class="cluster"><title>cluster1000</title>
<polygon fill="none" stroke="black" stroke-width="2" points="525,-29 525,-104 5018,-104 5018,-29 525,-29"/>
<text text-anchor="start" x="2726" y="-89.8" font-family="Times New Roman,serif" font-weight="bold" font-size="14.00">Domain Model</text>
</g>
<g id="clust2" class="cluster"><title>cluster1</title>
<polygon fill="none" stroke="black" stroke-width="2" points="158,-1048 158,-1151 1189,-1151 1189,-1048 158,-1048"/>
<text text-anchor="start" x="625" y="-1136.8" font-family="Times New Roman,serif" font-weight="bold" font-size="14.00">Business Parter</text>
</g>
<!-- EAID_72094780_D1D8_4e2b_901F_7D0D4D156E52___EAID_673A45CC_66D6_4725_A09C_98C105DD593F -->
<g id="node1" class="node"><title>EAID_72094780_D1D8_4e2b_901F_7D0D4D156E52___EAID_673A45CC_66D6_4725_A09C_98C105DD593F</title>
<image xlink:href="img/activity_icon.png" width="30px" height="20px" preserveAspectRatio="xMinYMin meet" x="381.5" y="-596"/>
<text text-anchor="start" x="294" y="-561.8" font-family="Times New Roman,serif" font-weight="bold" font-size="14.00">Business Parter:Buy Subscription</text>
<text text-anchor="start" x="336" y="-547.8" font-family="Times New Roman,serif" font-weight="bold" font-size="14.00">Comfirmation Page</text>
</g>
<!-- EAID_673A45CC_66D6_4725_A09C_98C105DD593F___EAID_78877F71_A878_4bbc_A85F_700C53609FFA -->
<g id="node5" class="node"><title>EAID_673A45CC_66D6_4725_A09C_98C105DD593F___EAID_78877F71_A878_4bbc_A85F_700C53609FFA</title>
<image xlink:href="img/activity_icon.png" width="30px" height="20px" preserveAspectRatio="xMinYMin meet" x="376" y="-489"/>
<text text-anchor="start" x="294" y="-454.8" font-family="Times New Roman,serif" font-weight="bold" font-size="14.00">Buy Subscription Comfirmation</text>
<text text-anchor="start" x="302" y="-440.8" font-family="Times New Roman,serif" font-weight="bold" font-size="14.00">Page:Marked as Subscirpted</text>
</g>
<!-- EAID_72094780_D1D8_4e2b_901F_7D0D4D156E52___EAID_673A45CC_66D6_4725_A09C_98C105DD593F&#45;&gt;EAID_673A45CC_66D6_4725_A09C_98C105DD593F___EAID_78877F71_A878_4bbc_A85F_700C53609FFA -->
<g id="edge1" class="edge"><title>EAID_72094780_D1D8_4e2b_901F_7D0D4D156E52___EAID_673A45CC_66D6_4725_A09C_98C105DD593F&#45;&gt;EAID_673A45CC_66D6_4725_A09C_98C105DD593F___EAID_78877F71_A878_4bbc_A85F_700C53609FFA</title>
<path fill="none" stroke="black" d="M394.513,-537.781C394.029,-527.611 393.484,-516.158 392.97,-505.364"/>
<polygon fill="black" stroke="black" points="396.461,-505.102 392.49,-495.28 389.469,-505.435 396.461,-505.102"/>
</g>
<!-- EAID_1E2A037D_67C6_4b69_AEDC_5B45349BFAC2 -->
<g id="node30" class="node"><title>EAID_1E2A037D_67C6_4b69_AEDC_5B45349BFAC2</title>
<polygon fill="none" stroke="black" points="3392,-44 3392,-65 3570,-65 3570,-44 3392,-44"/>
<text text-anchor="start" x="3395" y="-51.8" font-family="Times New Roman,serif" font-weight="bold" font-size="14.00">EmailNotificationController</text>
<polygon fill="none" stroke="black" points="3391,-43.5 3391,-66.5 3571,-66.5 3571,-43.5 3391,-43.5"/>
</g>
<!-- EAID_72094780_D1D8_4e2b_901F_7D0D4D156E52___EAID_673A45CC_66D6_4725_A09C_98C105DD593F&#45;&gt;EAID_1E2A037D_67C6_4b69_AEDC_5B45349BFAC2 -->
<g id="edge17" class="edge"><title>EAID_72094780_D1D8_4e2b_901F_7D0D4D156E52___EAID_673A45CC_66D6_4725_A09C_98C105DD593F&#45;&gt;EAID_1E2A037D_67C6_4b69_AEDC_5B45349BFAC2</title>
<path fill="none" stroke="black" stroke-dasharray="5,2" d="M508.685,-557.374C551.415,-547.339 596.959,-528.866 627,-495 664.395,-452.843 651,-426.852 651,-370.5 651,-370.5 651,-370.5 651,-275 651,-209.679 625.386,-172.489 675,-130 731.947,-81.2308 3300.76,-120.044 3374,-104 3397.87,-98.7719 3422.87,-87.8988 3442.7,-77.8214"/>
<polygon fill="black" stroke="black" points="3444.46,-80.8498 3451.7,-73.1189 3441.22,-74.6446 3444.46,-80.8498"/>
</g>
<!-- EAID_72094780_D1D8_4e2b_901F_7D0D4D156E52___EAID_12E5F34A_7160_4bea_ABDF_B56F7B43107D -->
<g id="node2" class="node"><title>EAID_72094780_D1D8_4e2b_901F_7D0D4D156E52___EAID_12E5F34A_7160_4bea_ABDF_B56F7B43107D</title>
<image xlink:href="img/activity_icon.png" width="30px" height="20px" preserveAspectRatio="xMinYMin meet" x="395.5" y="-195"/>
<text text-anchor="start" x="322" y="-160.8" font-family="Times New Roman,serif" font-weight="bold" font-size="14.00">Business Parter:Buy Success</text>
<text text-anchor="start" x="395" y="-146.8" font-family="Times New Roman,serif" font-weight="bold" font-size="14.00">Page</text>
</g>
<!-- EAID_12E5F34A_7160_4bea_ABDF_B56F7B43107D___EAID_2B4B190F_6919_476d_A06E_4FA813FC6CAE -->
<g id="node10" class="node"><title>EAID_12E5F34A_7160_4bea_ABDF_B56F7B43107D___EAID_2B4B190F_6919_476d_A06E_4FA813FC6CAE</title>
<image xlink:href="img/activity_icon.png" width="30px" height="20px" preserveAspectRatio="xMinYMin meet" x="395" y="-88"/>
<text text-anchor="start" x="330" y="-53.8" font-family="Times New Roman,serif" font-weight="bold" font-size="14.00">Buy Success Page:Display</text>
<text text-anchor="start" x="335" y="-39.8" font-family="Times New Roman,serif" font-weight="bold" font-size="14.00">Home Page(Designed by</text>
<text text-anchor="start" x="376.5" y="-25.8" font-family="Times New Roman,serif" font-weight="bold" font-size="14.00">other part)</text>
</g>
<!-- EAID_72094780_D1D8_4e2b_901F_7D0D4D156E52___EAID_12E5F34A_7160_4bea_ABDF_B56F7B43107D&#45;&gt;EAID_12E5F34A_7160_4bea_ABDF_B56F7B43107D___EAID_2B4B190F_6919_476d_A06E_4FA813FC6CAE -->
<g id="edge3" class="edge"><title>EAID_72094780_D1D8_4e2b_901F_7D0D4D156E52___EAID_12E5F34A_7160_4bea_ABDF_B56F7B43107D&#45;&gt;EAID_12E5F34A_7160_4bea_ABDF_B56F7B43107D___EAID_2B4B190F_6919_476d_A06E_4FA813FC6CAE</title>
<path fill="none" stroke="black" d="M410,-136.802C410,-126.795 410,-115.465 410,-104.523"/>
<polygon fill="black" stroke="black" points="413.5,-104.206 410,-94.2063 406.5,-104.206 413.5,-104.206"/>
</g>
<!-- EAID_8283C94A_102D_4101_8F63_B7CC9683C235 -->
<g id="node28" class="node"><title>EAID_8283C94A_102D_4101_8F63_B7CC9683C235</title>
<polygon fill="none" stroke="black" points="1645,-44 1645,-65 1946,-65 1946,-44 1645,-44"/>
<text text-anchor="start" x="1648" y="-51.8" font-family="Times New Roman,serif" font-weight="bold" font-size="14.00">Coupon Successfully Redeemed Popup Message</text>
<polygon fill="none" stroke="black" points="1643.5,-43.5 1643.5,-66.5 1946.5,-66.5 1946.5,-43.5 1643.5,-43.5"/>
</g>
<!-- EAID_72094780_D1D8_4e2b_901F_7D0D4D156E52___EAID_12E5F34A_7160_4bea_ABDF_B56F7B43107D&#45;&gt;EAID_8283C94A_102D_4101_8F63_B7CC9683C235 -->
<g id="edge18" class="edge"><title>EAID_72094780_D1D8_4e2b_901F_7D0D4D156E52___EAID_12E5F34A_7160_4bea_ABDF_B56F7B43107D&#45;&gt;EAID_8283C94A_102D_4101_8F63_B7CC9683C235</title>
<path fill="none" stroke="black" stroke-dasharray="5,2" d="M492.883,-137C502.917,-134.181 513.113,-131.738 523,-130 764.697,-87.5214 1384.39,-140.896 1627,-104 1664.64,-98.2756 1705.76,-86.6258 1737.89,-76.2371"/>
<polygon fill="black" stroke="black" points="1739.15,-79.5066 1747.56,-73.0614 1736.97,-72.856 1739.15,-79.5066"/>
</g>
<!-- EAID_72094780_D1D8_4e2b_901F_7D0D4D156E52___EAID_A9ED6F57_AE4D_4755_800C_C23AC0702A50 -->
<g id="node3" class="node"><title>EAID_72094780_D1D8_4e2b_901F_7D0D4D156E52___EAID_A9ED6F57_AE4D_4755_800C_C23AC0702A50</title>
<image xlink:href="img/activity_icon.png" width="30px" height="20px" preserveAspectRatio="xMinYMin meet" x="381.5" y="-803"/>
<text text-anchor="start" x="294" y="-768.8" font-family="Times New Roman,serif" font-weight="bold" font-size="14.00">Business Parter:Buy Subscription</text>
<text text-anchor="start" x="372.5" y="-754.8" font-family="Times New Roman,serif" font-weight="bold" font-size="14.00">Page(1)</text>
</g>
<!-- EAID_A9ED6F57_AE4D_4755_800C_C23AC0702A50___EAID_143A503B_5198_48e3_9655_B677B7C8956E -->
<g id="node7" class="node"><title>EAID_A9ED6F57_AE4D_4755_800C_C23AC0702A50___EAID_143A503B_5198_48e3_9655_B677B7C8956E</title>
<image xlink:href="img/activity_icon.png" width="30px" height="20px" preserveAspectRatio="xMinYMin meet" x="260.5" y="-703"/>
<text text-anchor="start" x="173" y="-668.8" font-family="Times New Roman,serif" font-weight="bold" font-size="14.00">Buy Subscription Page(1):Display</text>
<text text-anchor="start" x="175" y="-654.8" font-family="Times New Roman,serif" font-weight="bold" font-size="14.00">Subscription Comfirmation Page</text>
</g>
<!-- EAID_72094780_D1D8_4e2b_901F_7D0D4D156E52___EAID_A9ED6F57_AE4D_4755_800C_C23AC0702A50&#45;&gt;EAID_A9ED6F57_AE4D_4755_800C_C23AC0702A50___EAID_143A503B_5198_48e3_9655_B677B7C8956E -->
<g id="edge5" class="edge"><title>EAID_72094780_D1D8_4e2b_901F_7D0D4D156E52___EAID_A9ED6F57_AE4D_4755_800C_C23AC0702A50&#45;&gt;EAID_A9ED6F57_AE4D_4755_800C_C23AC0702A50___EAID_143A503B_5198_48e3_9655_B677B7C8956E</title>
<path fill="none" stroke="black" d="M357.715,-744.992C346.129,-735.608 333.28,-725.202 321.232,-715.444"/>
<polygon fill="black" stroke="black" points="323.425,-712.716 313.451,-709.142 319.02,-718.156 323.425,-712.716"/>
</g>
<!-- EAID_203589E9_F431_4893_9BF9_EBE65748645B -->
<g id="node19" class="node"><title>EAID_203589E9_F431_4893_9BF9_EBE65748645B</title>
<polygon fill="none" stroke="black" points="4730,-44 4730,-65 4873,-65 4873,-44 4730,-44"/>
<text text-anchor="start" x="4733" y="-51.8" font-family="Times New Roman,serif" font-weight="bold" font-size="14.00">Transaction Log Page</text>
<polygon fill="none" stroke="black" points="4728.5,-43.5 4728.5,-66.5 4873.5,-66.5 4873.5,-43.5 4728.5,-43.5"/>
</g>
<!-- EAID_72094780_D1D8_4e2b_901F_7D0D4D156E52___EAID_A9ED6F57_AE4D_4755_800C_C23AC0702A50&#45;&gt;EAID_203589E9_F431_4893_9BF9_EBE65748645B -->
<g id="edge19" class="edge"><title>EAID_72094780_D1D8_4e2b_901F_7D0D4D156E52___EAID_A9ED6F57_AE4D_4755_800C_C23AC0702A50&#45;&gt;EAID_203589E9_F431_4893_9BF9_EBE65748645B</title>
<path fill="none" stroke="black" stroke-dasharray="5,2" d="M508.632,-770.368C607.706,-762.981 741.788,-746.249 779,-709 822.998,-664.958 803,-633.254 803,-571 803,-571 803,-571 803,-368.5 803,-241.595 848.495,-190.594 960,-130 1051.58,-80.2356 4611.04,-129.863 4712,-104 4731.95,-98.8908 4752.29,-88.3886 4768.49,-78.5071"/>
<polygon fill="black" stroke="black" points="4770.44,-81.4144 4777.03,-73.1194 4766.71,-75.4936 4770.44,-81.4144"/>
</g>
<!-- EAID_72094780_D1D8_4e2b_901F_7D0D4D156E52___EAID_9B6DABB6_AB77_42d7_9631_92901B69FB54 -->
<g id="node4" class="node"><title>EAID_72094780_D1D8_4e2b_901F_7D0D4D156E52___EAID_9B6DABB6_AB77_42d7_9631_92901B69FB54</title>
<image xlink:href="img/activity_icon.png" width="30px" height="20px" preserveAspectRatio="xMinYMin meet" x="306.5" y="-1003"/>
<text text-anchor="start" x="219" y="-968.8" font-family="Times New Roman,serif" font-weight="bold" font-size="14.00">Business Parter:Buy Subscription</text>
<text text-anchor="start" x="297.5" y="-954.8" font-family="Times New Roman,serif" font-weight="bold" font-size="14.00">Page(1)</text>
</g>
<!-- EAID_9B6DABB6_AB77_42d7_9631_92901B69FB54___EAID_F7D1E62B_3F7B_4c43_BE67_7E12BC6EFD94 -->
<g id="node9" class="node"><title>EAID_9B6DABB6_AB77_42d7_9631_92901B69FB54___EAID_F7D1E62B_3F7B_4c43_BE67_7E12BC6EFD94</title>
<image xlink:href="img/activity_icon.png" width="30px" height="20px" preserveAspectRatio="xMinYMin meet" x="306.5" y="-903"/>
<text text-anchor="start" x="219" y="-868.8" font-family="Times New Roman,serif" font-weight="bold" font-size="14.00">Buy Subscription Page(1):Display</text>
<text text-anchor="start" x="257.5" y="-854.8" font-family="Times New Roman,serif" font-weight="bold" font-size="14.00">Subscription Page(2)</text>
</g>
<!-- EAID_72094780_D1D8_4e2b_901F_7D0D4D156E52___EAID_9B6DABB6_AB77_42d7_9631_92901B69FB54&#45;&gt;EAID_9B6DABB6_AB77_42d7_9631_92901B69FB54___EAID_F7D1E62B_3F7B_4c43_BE67_7E12BC6EFD94 -->
<g id="edge7" class="edge"><title>EAID_72094780_D1D8_4e2b_901F_7D0D4D156E52___EAID_9B6DABB6_AB77_42d7_9631_92901B69FB54&#45;&gt;EAID_9B6DABB6_AB77_42d7_9631_92901B69FB54___EAID_F7D1E62B_3F7B_4c43_BE67_7E12BC6EFD94</title>
<path fill="none" stroke="black" d="M321,-944.992C321,-936.859 321,-927.959 321,-919.378"/>
<polygon fill="black" stroke="black" points="324.5,-919.142 321,-909.142 317.5,-919.142 324.5,-919.142"/>
</g>
<!-- EAID_72094780_D1D8_4e2b_901F_7D0D4D156E52___EAID_9B6DABB6_AB77_42d7_9631_92901B69FB54&#45;&gt;EAID_203589E9_F431_4893_9BF9_EBE65748645B -->
<g id="edge20" class="edge"><title>EAID_72094780_D1D8_4e2b_901F_7D0D4D156E52___EAID_9B6DABB6_AB77_42d7_9631_92901B69FB54&#45;&gt;EAID_203589E9_F431_4893_9BF9_EBE65748645B</title>
<path fill="none" stroke="black" stroke-dasharray="5,2" d="M433.8,-955.054C611.346,-914.837 936,-808.788 936,-571 936,-571 936,-571 936,-462 936,-40.563 4308.72,-226.355 4712,-104 4731.1,-98.2056 4750.79,-88.0912 4766.77,-78.6366"/>
<polygon fill="black" stroke="black" points="4769.01,-81.3747 4775.73,-73.1837 4765.37,-75.3963 4769.01,-81.3747"/>
</g>
<!-- EAID_78877F71_A878_4bbc_A85F_700C53609FFA___EAID_1A4E7527_4905_45c0_A87A_A6094D00AAF2 -->
<g id="node13" class="node"><title>EAID_78877F71_A878_4bbc_A85F_700C53609FFA___EAID_1A4E7527_4905_45c0_A87A_A6094D00AAF2</title>
<image xlink:href="img/activity_icon.png" width="30px" height="20px" preserveAspectRatio="xMinYMin meet" x="372.5" y="-388.5"/>
<text text-anchor="start" x="276" y="-354.3" font-family="Times New Roman,serif" font-weight="bold" font-size="14.00">Marked as Subscirpted:Subscription</text>
</g>
<!-- EAID_673A45CC_66D6_4725_A09C_98C105DD593F___EAID_78877F71_A878_4bbc_A85F_700C53609FFA&#45;&gt;EAID_78877F71_A878_4bbc_A85F_700C53609FFA___EAID_1A4E7527_4905_45c0_A87A_A6094D00AAF2 -->
<g id="edge9" class="edge"><title>EAID_673A45CC_66D6_4725_A09C_98C105DD593F___EAID_78877F71_A878_4bbc_A85F_700C53609FFA&#45;&gt;EAID_78877F71_A878_4bbc_A85F_700C53609FFA___EAID_1A4E7527_4905_45c0_A87A_A6094D00AAF2</title>
<path fill="none" stroke="black" d="M389.635,-430.767C389.278,-422.613 388.892,-413.773 388.527,-405.44"/>
<polygon fill="black" stroke="black" points="392.015,-405.084 388.082,-395.246 385.022,-405.389 392.015,-405.084"/>
</g>
<!-- EAID_78877F71_A878_4bbc_A85F_700C53609FFA -->
<g id="node39" class="node"><title>EAID_78877F71_A878_4bbc_A85F_700C53609FFA</title>
<polygon fill="none" stroke="black" points="3122,-44 3122,-65 3271,-65 3271,-44 3122,-44"/>
<text text-anchor="start" x="3125" y="-51.8" font-family="Times New Roman,serif" font-weight="bold" font-size="14.00">Marked as Subscirpted</text>
<polygon fill="none" stroke="black" points="3120.5,-43.5 3120.5,-66.5 3271.5,-66.5 3271.5,-43.5 3120.5,-43.5"/>
</g>
<!-- EAID_673A45CC_66D6_4725_A09C_98C105DD593F___EAID_78877F71_A878_4bbc_A85F_700C53609FFA&#45;&gt;EAID_78877F71_A878_4bbc_A85F_700C53609FFA -->
<g id="edge21" class="edge"><title>EAID_673A45CC_66D6_4725_A09C_98C105DD593F___EAID_78877F71_A878_4bbc_A85F_700C53609FFA&#45;&gt;EAID_78877F71_A878_4bbc_A85F_700C53609FFA</title>
<path fill="none" stroke="black" stroke-dasharray="5,2" d="M472.152,-430.914C488.808,-421.463 504.92,-409.604 517,-395 556.29,-347.5 549.576,-166.84 599,-130 654.771,-88.4291 3035.49,-120.766 3103,-104 3123.68,-98.8638 3144.93,-88.3593 3161.89,-78.4833"/>
<polygon fill="black" stroke="black" points="3164.07,-81.2538 3170.84,-73.0993 3160.47,-75.2557 3164.07,-81.2538"/>
</g>
<!-- EAID_143A503B_5198_48e3_9655_B677B7C8956E___EAID_673A45CC_66D6_4725_A09C_98C105DD593F -->
<g id="node6" class="node"><title>EAID_143A503B_5198_48e3_9655_B677B7C8956E___EAID_673A45CC_66D6_4725_A09C_98C105DD593F</title>
<image xlink:href="img/activity_icon.png" width="30px" height="20px" preserveAspectRatio="xMinYMin meet" x="126.5" y="-603"/>
<text text-anchor="start" x="33.5" y="-568.8" font-family="Times New Roman,serif" font-weight="bold" font-size="14.00">Display Subscription Comfirmation</text>
<text text-anchor="start" x="27" y="-554.8" font-family="Times New Roman,serif" font-weight="bold" font-size="14.00">Page:Buy Subscription Comfirmation</text>
<text text-anchor="start" x="126" y="-540.8" font-family="Times New Roman,serif" font-weight="bold" font-size="14.00">Page</text>
</g>
<!-- EAID_143A503B_5198_48e3_9655_B677B7C8956E___EAID_673A45CC_66D6_4725_A09C_98C105DD593F&#45;&gt;EAID_673A45CC_66D6_4725_A09C_98C105DD593F___EAID_78877F71_A878_4bbc_A85F_700C53609FFA -->
<g id="edge10" class="edge"><title>EAID_143A503B_5198_48e3_9655_B677B7C8956E___EAID_673A45CC_66D6_4725_A09C_98C105DD593F&#45;&gt;EAID_673A45CC_66D6_4725_A09C_98C105DD593F___EAID_78877F71_A878_4bbc_A85F_700C53609FFA</title>
<path fill="none" stroke="black" d="M231.609,-530.944C256.515,-520.484 283.395,-509.194 307.858,-498.92"/>
<polygon fill="black" stroke="black" points="309.242,-502.135 317.106,-495.035 306.531,-495.681 309.242,-502.135"/>
</g>
<!-- EAID_143A503B_5198_48e3_9655_B677B7C8956E___EAID_673A45CC_66D6_4725_A09C_98C105DD593F&#45;&gt;EAID_1E2A037D_67C6_4b69_AEDC_5B45349BFAC2 -->
<g id="edge22" class="edge"><title>EAID_143A503B_5198_48e3_9655_B677B7C8956E___EAID_673A45CC_66D6_4725_A09C_98C105DD593F&#45;&gt;EAID_1E2A037D_67C6_4b69_AEDC_5B45349BFAC2</title>
<path fill="none" stroke="black" stroke-dasharray="5,2" d="M265.837,-532.841C268.579,-532.206 271.302,-531.591 274,-531 436.834,-495.305 613,-537.2 613,-370.5 613,-370.5 613,-370.5 613,-275 613,-209.365 590.579,-172.02 641,-130 699.322,-81.3949 3299.84,-120.242 3374,-104 3397.87,-98.7734 3422.87,-87.9003 3442.7,-77.8226"/>
<polygon fill="black" stroke="black" points="3444.46,-80.8509 3451.7,-73.12 3441.22,-74.6458 3444.46,-80.8509"/>
</g>
<!-- EAID_A9ED6F57_AE4D_4755_800C_C23AC0702A50___EAID_143A503B_5198_48e3_9655_B677B7C8956E&#45;&gt;EAID_143A503B_5198_48e3_9655_B677B7C8956E___EAID_673A45CC_66D6_4725_A09C_98C105DD593F -->
<g id="edge11" class="edge"><title>EAID_A9ED6F57_AE4D_4755_800C_C23AC0702A50___EAID_143A503B_5198_48e3_9655_B677B7C8956E&#45;&gt;EAID_143A503B_5198_48e3_9655_B677B7C8956E___EAID_673A45CC_66D6_4725_A09C_98C105DD593F</title>
<path fill="none" stroke="black" d="M235.158,-644.781C223.514,-635.656 210.552,-625.5 198.061,-615.712"/>
<polygon fill="black" stroke="black" points="199.97,-612.761 189.94,-609.348 195.653,-618.271 199.97,-612.761"/>
</g>
<!-- EAID_A9ED6F57_AE4D_4755_800C_C23AC0702A50___EAID_143A503B_5198_48e3_9655_B677B7C8956E&#45;&gt;EAID_1E2A037D_67C6_4b69_AEDC_5B45349BFAC2 -->
<g id="edge23" class="edge"><title>EAID_A9ED6F57_AE4D_4755_800C_C23AC0702A50___EAID_143A503B_5198_48e3_9655_B677B7C8956E&#45;&gt;EAID_1E2A037D_67C6_4b69_AEDC_5B45349BFAC2</title>
<path fill="none" stroke="black" stroke-dasharray="5,2" d="M387.58,-666.239C510.174,-648.713 689,-599.863 689,-464 689,-464 689,-464 689,-275 689,-204.912 692.695,-168.897 751,-130 811.614,-89.5624 3302.83,-119.602 3374,-104 3397.86,-98.7686 3422.87,-87.8953 3442.7,-77.8186"/>
<polygon fill="black" stroke="black" points="3444.46,-80.8471 3451.7,-73.1165 3441.22,-74.6418 3444.46,-80.8471"/>
</g>
<!-- EAID_F7D1E62B_3F7B_4c43_BE67_7E12BC6EFD94___EAID_A9ED6F57_AE4D_4755_800C_C23AC0702A50 -->
<g id="node8" class="node"><title>EAID_F7D1E62B_3F7B_4c43_BE67_7E12BC6EFD94___EAID_A9ED6F57_AE4D_4755_800C_C23AC0702A50</title>
<image xlink:href="img/activity_icon.png" width="30px" height="20px" preserveAspectRatio="xMinYMin meet" x="138.5" y="-803"/>
<text text-anchor="start" x="51" y="-768.8" font-family="Times New Roman,serif" font-weight="bold" font-size="14.00">Display Subscription Page(2):Buy</text>
<text text-anchor="start" x="89.5" y="-754.8" font-family="Times New Roman,serif" font-weight="bold" font-size="14.00">Subscription Page(1)</text>
</g>
<!-- EAID_F7D1E62B_3F7B_4c43_BE67_7E12BC6EFD94___EAID_A9ED6F57_AE4D_4755_800C_C23AC0702A50&#45;&gt;EAID_A9ED6F57_AE4D_4755_800C_C23AC0702A50___EAID_143A503B_5198_48e3_9655_B677B7C8956E -->
<g id="edge12" class="edge"><title>EAID_F7D1E62B_3F7B_4c43_BE67_7E12BC6EFD94___EAID_A9ED6F57_AE4D_4755_800C_C23AC0702A50&#45;&gt;EAID_A9ED6F57_AE4D_4755_800C_C23AC0702A50___EAID_143A503B_5198_48e3_9655_B677B7C8956E</title>
<path fill="none" stroke="black" d="M191.602,-744.992C203.284,-735.608 216.238,-725.202 228.386,-715.444"/>
<polygon fill="black" stroke="black" points="230.626,-718.134 236.231,-709.142 226.243,-712.676 230.626,-718.134"/>
</g>
<!-- EAID_F7D1E62B_3F7B_4c43_BE67_7E12BC6EFD94___EAID_A9ED6F57_AE4D_4755_800C_C23AC0702A50&#45;&gt;EAID_203589E9_F431_4893_9BF9_EBE65748645B -->
<g id="edge24" class="edge"><title>EAID_F7D1E62B_3F7B_4c43_BE67_7E12BC6EFD94___EAID_A9ED6F57_AE4D_4755_800C_C23AC0702A50&#45;&gt;EAID_203589E9_F431_4893_9BF9_EBE65748645B</title>
<path fill="none" stroke="black" stroke-dasharray="5,2" d="M265.522,-747.211C306.799,-736.064 353.746,-722.696 396,-709 562.562,-655.01 765,-746.094 765,-571 765,-571 765,-571 765,-275 765,-200.523 784.599,-167.408 849,-130 941.79,-76.1017 4608.05,-130.618 4712,-104 4731.95,-98.8928 4752.3,-88.3907 4768.49,-78.5088"/>
<polygon fill="black" stroke="black" points="4770.44,-81.416 4777.04,-73.1209 4766.71,-75.4953 4770.44,-81.416"/>
</g>
<!-- EAID_9B6DABB6_AB77_42d7_9631_92901B69FB54___EAID_F7D1E62B_3F7B_4c43_BE67_7E12BC6EFD94&#45;&gt;EAID_F7D1E62B_3F7B_4c43_BE67_7E12BC6EFD94___EAID_A9ED6F57_AE4D_4755_800C_C23AC0702A50 -->
<g id="edge13" class="edge"><title>EAID_9B6DABB6_AB77_42d7_9631_92901B69FB54___EAID_F7D1E62B_3F7B_4c43_BE67_7E12BC6EFD94&#45;&gt;EAID_F7D1E62B_3F7B_4c43_BE67_7E12BC6EFD94___EAID_A9ED6F57_AE4D_4755_800C_C23AC0702A50</title>
<path fill="none" stroke="black" d="M267.844,-844.992C251.144,-835.251 232.556,-824.408 215.283,-814.332"/>
<polygon fill="black" stroke="black" points="216.788,-811.158 206.387,-809.142 213.261,-817.204 216.788,-811.158"/>
</g>
<!-- EAID_963024D3_8B26_429f_B514_62E3D25E05F0 -->
<g id="node21" class="node"><title>EAID_963024D3_8B26_429f_B514_62E3D25E05F0</title>
<polygon fill="none" stroke="black" points="4344,-44 4344,-65 4465,-65 4465,-44 4344,-44"/>
<text text-anchor="start" x="4347" y="-51.8" font-family="Times New Roman,serif" font-weight="bold" font-size="14.00">display partner list</text>
<polygon fill="none" stroke="black" points="4342.5,-43.5 4342.5,-66.5 4465.5,-66.5 4465.5,-43.5 4342.5,-43.5"/>
</g>
<!-- EAID_9B6DABB6_AB77_42d7_9631_92901B69FB54___EAID_F7D1E62B_3F7B_4c43_BE67_7E12BC6EFD94&#45;&gt;EAID_963024D3_8B26_429f_B514_62E3D25E05F0 -->
<g id="edge25" class="edge"><title>EAID_9B6DABB6_AB77_42d7_9631_92901B69FB54___EAID_F7D1E62B_3F7B_4c43_BE67_7E12BC6EFD94&#45;&gt;EAID_963024D3_8B26_429f_B514_62E3D25E05F0</title>
<path fill="none" stroke="black" stroke-dasharray="5,2" d="M433.512,-856.564C586.413,-826.9 841,-764.518 841,-678 841,-678 841,-678 841,-275 841,-191.631 884.774,-165.935 960,-130 1044.35,-89.7084 4235.08,-129.55 4325,-104 4342.77,-98.9506 4360.53,-88.7374 4374.7,-79.025"/>
<polygon fill="black" stroke="black" points="4376.91,-81.7464 4383.03,-73.0931 4372.85,-76.0455 4376.91,-81.7464"/>
</g>
<!-- EAID_12E5F34A_7160_4bea_ABDF_B56F7B43107D___EAID_2B4B190F_6919_476d_A06E_4FA813FC6CAE&#45;&gt;EAID_963024D3_8B26_429f_B514_62E3D25E05F0 -->
<g id="edge26" class="edge"><title>EAID_12E5F34A_7160_4bea_ABDF_B56F7B43107D___EAID_2B4B190F_6919_476d_A06E_4FA813FC6CAE&#45;&gt;EAID_963024D3_8B26_429f_B514_62E3D25E05F0</title>
<path fill="none" stroke="black" stroke-dasharray="5,2" d="M471.924,-94.0852C489.967,-103.477 510.176,-112.181 530,-117 581.096,-129.42 4265.87,-132.885 4316,-117 4339.27,-109.625 4361.71,-93.6343 4378.1,-79.74"/>
<polygon fill="black" stroke="black" points="4380.42,-82.3571 4385.64,-73.1346 4375.81,-77.0921 4380.42,-82.3571"/>
</g>
<!-- EAID_2761F49E_37B9_4bb9_99E8_FDF4E0E97349___EAID_12E5F34A_7160_4bea_ABDF_B56F7B43107D -->
<g id="node11" class="node"><title>EAID_2761F49E_37B9_4bb9_99E8_FDF4E0E97349___EAID_12E5F34A_7160_4bea_ABDF_B56F7B43107D</title>
<image xlink:href="img/activity_icon.png" width="30px" height="20px" preserveAspectRatio="xMinYMin meet" x="173.5" y="-202"/>
<text text-anchor="start" x="139.5" y="-167.8" font-family="Times New Roman,serif" font-weight="bold" font-size="14.00">Display Buy My</text>
<text text-anchor="start" x="93" y="-153.8" font-family="Times New Roman,serif" font-weight="bold" font-size="14.00">Subscription Success Page:Buy</text>
<text text-anchor="start" x="147" y="-139.8" font-family="Times New Roman,serif" font-weight="bold" font-size="14.00">Success Page</text>
</g>
<!-- EAID_2761F49E_37B9_4bb9_99E8_FDF4E0E97349___EAID_12E5F34A_7160_4bea_ABDF_B56F7B43107D&#45;&gt;EAID_12E5F34A_7160_4bea_ABDF_B56F7B43107D___EAID_2B4B190F_6919_476d_A06E_4FA813FC6CAE -->
<g id="edge14" class="edge"><title>EAID_2761F49E_37B9_4bb9_99E8_FDF4E0E97349___EAID_12E5F34A_7160_4bea_ABDF_B56F7B43107D&#45;&gt;EAID_12E5F34A_7160_4bea_ABDF_B56F7B43107D___EAID_2B4B190F_6919_476d_A06E_4FA813FC6CAE</title>
<path fill="none" stroke="black" d="M263.469,-129.926C283.397,-119.872 305.034,-108.956 325.409,-98.6763"/>
<polygon fill="black" stroke="black" points="327.011,-101.788 334.363,-94.1593 323.858,-95.5388 327.011,-101.788"/>
</g>
<!-- EAID_2761F49E_37B9_4bb9_99E8_FDF4E0E97349___EAID_12E5F34A_7160_4bea_ABDF_B56F7B43107D&#45;&gt;EAID_8283C94A_102D_4101_8F63_B7CC9683C235 -->
<g id="edge27" class="edge"><title>EAID_2761F49E_37B9_4bb9_99E8_FDF4E0E97349___EAID_12E5F34A_7160_4bea_ABDF_B56F7B43107D&#45;&gt;EAID_8283C94A_102D_4101_8F63_B7CC9683C235</title>
<path fill="none" stroke="black" stroke-dasharray="5,2" d="M293.611,-131.594C296.425,-131.012 299.225,-130.478 302,-130 592.222,-79.9767 1335.76,-147.707 1627,-104 1664.65,-98.3495 1705.77,-86.7011 1737.9,-76.2947"/>
<polygon fill="black" stroke="black" points="1739.17,-79.5632 1747.57,-73.113 1736.98,-72.9139 1739.17,-79.5632"/>
</g>
<!-- EAID_1A4E7527_4905_45c0_A87A_A6094D00AAF2___EAID_2761F49E_37B9_4bb9_99E8_FDF4E0E97349 -->
<g id="node12" class="node"><title>EAID_1A4E7527_4905_45c0_A87A_A6094D00AAF2___EAID_2761F49E_37B9_4bb9_99E8_FDF4E0E97349</title>
<image xlink:href="img/activity_icon.png" width="30px" height="20px" preserveAspectRatio="xMinYMin meet" x="372" y="-302"/>
<text text-anchor="start" x="298" y="-267.8" font-family="Times New Roman,serif" font-weight="bold" font-size="14.00">Subscription:Display Buy My</text>
<text text-anchor="start" x="305.5" y="-253.8" font-family="Times New Roman,serif" font-weight="bold" font-size="14.00">Subscription Success Page</text>
</g>
<!-- EAID_1A4E7527_4905_45c0_A87A_A6094D00AAF2___EAID_2761F49E_37B9_4bb9_99E8_FDF4E0E97349&#45;&gt;EAID_2761F49E_37B9_4bb9_99E8_FDF4E0E97349___EAID_12E5F34A_7160_4bea_ABDF_B56F7B43107D -->
<g id="edge15" class="edge"><title>EAID_1A4E7527_4905_45c0_A87A_A6094D00AAF2___EAID_2761F49E_37B9_4bb9_99E8_FDF4E0E97349&#45;&gt;EAID_2761F49E_37B9_4bb9_99E8_FDF4E0E97349___EAID_12E5F34A_7160_4bea_ABDF_B56F7B43107D</title>
<path fill="none" stroke="black" d="M328.101,-243.923C309.615,-234.169 288.872,-223.224 269.128,-212.806"/>
<polygon fill="black" stroke="black" points="270.617,-209.635 260.139,-208.063 267.35,-215.826 270.617,-209.635"/>
</g>
<!-- EAID_1A4E7527_4905_45c0_A87A_A6094D00AAF2___EAID_2761F49E_37B9_4bb9_99E8_FDF4E0E97349&#45;&gt;EAID_963024D3_8B26_429f_B514_62E3D25E05F0 -->
<g id="edge28" class="edge"><title>EAID_1A4E7527_4905_45c0_A87A_A6094D00AAF2___EAID_2761F49E_37B9_4bb9_99E8_FDF4E0E97349&#45;&gt;EAID_963024D3_8B26_429f_B514_62E3D25E05F0</title>
<path fill="none" stroke="black" stroke-dasharray="5,2" d="M445.143,-243.947C515.32,-208.359 638.011,-152.103 751,-130 945.867,-91.8802 4133.99,-158.23 4325,-104 4342.77,-98.9547 4360.53,-88.7418 4374.7,-79.0287"/>
<polygon fill="black" stroke="black" points="4376.91,-81.7498 4383.03,-73.0961 4372.85,-76.0491 4376.91,-81.7498"/>
</g>
<!-- EAID_78877F71_A878_4bbc_A85F_700C53609FFA___EAID_1A4E7527_4905_45c0_A87A_A6094D00AAF2&#45;&gt;EAID_1A4E7527_4905_45c0_A87A_A6094D00AAF2___EAID_2761F49E_37B9_4bb9_99E8_FDF4E0E97349 -->
<g id="edge16" class="edge"><title>EAID_78877F71_A878_4bbc_A85F_700C53609FFA___EAID_1A4E7527_4905_45c0_A87A_A6094D00AAF2&#45;&gt;EAID_1A4E7527_4905_45c0_A87A_A6094D00AAF2___EAID_2761F49E_37B9_4bb9_99E8_FDF4E0E97349</title>
<path fill="none" stroke="black" d="M387,-343.98C387,-336.066 387,-327.063 387,-318.281"/>
<polygon fill="black" stroke="black" points="390.5,-318.153 387,-308.153 383.5,-318.153 390.5,-318.153"/>
</g>
<!-- EAID_78877F71_A878_4bbc_A85F_700C53609FFA___EAID_1A4E7527_4905_45c0_A87A_A6094D00AAF2&#45;&gt;EAID_78877F71_A878_4bbc_A85F_700C53609FFA -->
<g id="edge29" class="edge"><title>EAID_78877F71_A878_4bbc_A85F_700C53609FFA___EAID_1A4E7527_4905_45c0_A87A_A6094D00AAF2&#45;&gt;EAID_78877F71_A878_4bbc_A85F_700C53609FFA</title>
<path fill="none" stroke="black" stroke-dasharray="5,2" d="M448.2,-343.869C465.156,-334.671 482.357,-322.78 495,-308 549.845,-243.883 491.987,-178.541 561,-130 618.759,-89.375 3034.47,-121.015 3103,-104 3123.68,-98.8654 3144.93,-88.3611 3161.89,-78.4847"/>
<polygon fill="black" stroke="black" points="3164.08,-81.2551 3170.84,-73.1005 3160.47,-75.2571 3164.08,-81.2551"/>
</g>
<!-- EAID_72094780_D1D8_4e2b_901F_7D0D4D156E52___EAID_673A45CC_66D6_4725_A09C_98C105DD593F_STL -->
<g id="node14" class="node"><title>EAID_72094780_D1D8_4e2b_901F_7D0D4D156E52___EAID_673A45CC_66D6_4725_A09C_98C105DD593F_STL</title>
<image xlink:href="img/stimulus_icon.png" width="30px" height="20px" preserveAspectRatio="xMinYMin meet" x="805.5" y="-1114"/>
<text text-anchor="start" x="707" y="-1079.8" font-family="Times New Roman,serif" font-weight="bold" font-size="14.00">stl#Business Parter:Buy Subscription</text>
<text text-anchor="start" x="760" y="-1065.8" font-family="Times New Roman,serif" font-weight="bold" font-size="14.00">Comfirmation Page</text>
</g>
<!-- EAID_72094780_D1D8_4e2b_901F_7D0D4D156E52___EAID_673A45CC_66D6_4725_A09C_98C105DD593F_STL&#45;&gt;EAID_72094780_D1D8_4e2b_901F_7D0D4D156E52___EAID_673A45CC_66D6_4725_A09C_98C105DD593F -->
<g id="edge2" class="edge"><title>EAID_72094780_D1D8_4e2b_901F_7D0D4D156E52___EAID_673A45CC_66D6_4725_A09C_98C105DD593F_STL&#45;&gt;EAID_72094780_D1D8_4e2b_901F_7D0D4D156E52___EAID_673A45CC_66D6_4725_A09C_98C105DD593F</title>
<path fill="none" stroke="black" d="M794.432,-1055.88C720.942,-966.449 509.214,-708.779 428.125,-610.095"/>
<polygon fill="black" stroke="black" points="430.654,-607.661 421.602,-602.157 425.246,-612.105 430.654,-607.661"/>
</g>
<!-- EAID_72094780_D1D8_4e2b_901F_7D0D4D156E52___EAID_12E5F34A_7160_4bea_ABDF_B56F7B43107D_STL -->
<g id="node15" class="node"><title>EAID_72094780_D1D8_4e2b_901F_7D0D4D156E52___EAID_12E5F34A_7160_4bea_ABDF_B56F7B43107D_STL</title>
<image xlink:href="img/stimulus_icon.png" width="30px" height="20px" preserveAspectRatio="xMinYMin meet" x="1056.5" y="-1114"/>
<text text-anchor="start" x="972" y="-1079.8" font-family="Times New Roman,serif" font-weight="bold" font-size="14.00">stl#Business Parter:Buy Success</text>
<text text-anchor="start" x="1056" y="-1065.8" font-family="Times New Roman,serif" font-weight="bold" font-size="14.00">Page</text>
</g>
<!-- EAID_72094780_D1D8_4e2b_901F_7D0D4D156E52___EAID_12E5F34A_7160_4bea_ABDF_B56F7B43107D_STL&#45;&gt;EAID_72094780_D1D8_4e2b_901F_7D0D4D156E52___EAID_12E5F34A_7160_4bea_ABDF_B56F7B43107D -->
<g id="edge4" class="edge"><title>EAID_72094780_D1D8_4e2b_901F_7D0D4D156E52___EAID_12E5F34A_7160_4bea_ABDF_B56F7B43107D_STL&#45;&gt;EAID_72094780_D1D8_4e2b_901F_7D0D4D156E52___EAID_12E5F34A_7160_4bea_ABDF_B56F7B43107D</title>
<path fill="none" stroke="black" d="M1046.02,-1055.8C1017.28,-1016.68 974,-946.404 974,-878 974,-878 974,-878 974,-462 974,-259.094 682.567,-197.017 518.686,-178.149"/>
<polygon fill="black" stroke="black" points="518.89,-174.65 508.564,-177.02 518.114,-181.607 518.89,-174.65"/>
</g>
<!-- EAID_72094780_D1D8_4e2b_901F_7D0D4D156E52___EAID_A9ED6F57_AE4D_4755_800C_C23AC0702A50_STL -->
<g id="node16" class="node"><title>EAID_72094780_D1D8_4e2b_901F_7D0D4D156E52___EAID_A9ED6F57_AE4D_4755_800C_C23AC0702A50_STL</title>
<image xlink:href="img/stimulus_icon.png" width="30px" height="20px" preserveAspectRatio="xMinYMin meet" x="540.5" y="-1114"/>
<text text-anchor="start" x="442" y="-1079.8" font-family="Times New Roman,serif" font-weight="bold" font-size="14.00">stl#Business Parter:Buy Subscription</text>
<text text-anchor="start" x="531.5" y="-1065.8" font-family="Times New Roman,serif" font-weight="bold" font-size="14.00">Page(1)</text>
</g>
<!-- EAID_72094780_D1D8_4e2b_901F_7D0D4D156E52___EAID_A9ED6F57_AE4D_4755_800C_C23AC0702A50_STL&#45;&gt;EAID_72094780_D1D8_4e2b_901F_7D0D4D156E52___EAID_A9ED6F57_AE4D_4755_800C_C23AC0702A50 -->
<g id="edge6" class="edge"><title>EAID_72094780_D1D8_4e2b_901F_7D0D4D156E52___EAID_A9ED6F57_AE4D_4755_800C_C23AC0702A50_STL&#45;&gt;EAID_72094780_D1D8_4e2b_901F_7D0D4D156E52___EAID_A9ED6F57_AE4D_4755_800C_C23AC0702A50</title>
<path fill="none" stroke="black" d="M542.31,-1055.62C522.891,-1008.67 483.647,-917.865 442,-845 436.747,-835.81 430.622,-826.252 424.588,-817.331"/>
<polygon fill="black" stroke="black" points="427.413,-815.262 418.861,-809.006 421.645,-819.229 427.413,-815.262"/>
</g>
<!-- EAID_72094780_D1D8_4e2b_901F_7D0D4D156E52___EAID_9B6DABB6_AB77_42d7_9631_92901B69FB54_STL -->
<g id="node17" class="node"><title>EAID_72094780_D1D8_4e2b_901F_7D0D4D156E52___EAID_9B6DABB6_AB77_42d7_9631_92901B69FB54_STL</title>
<image xlink:href="img/stimulus_icon.png" width="30px" height="20px" preserveAspectRatio="xMinYMin meet" x="275.5" y="-1114"/>
<text text-anchor="start" x="177" y="-1079.8" font-family="Times New Roman,serif" font-weight="bold" font-size="14.00">stl#Business Parter:Buy Subscription</text>
<text text-anchor="start" x="266.5" y="-1065.8" font-family="Times New Roman,serif" font-weight="bold" font-size="14.00">Page(1)</text>
</g>
<!-- EAID_72094780_D1D8_4e2b_901F_7D0D4D156E52___EAID_9B6DABB6_AB77_42d7_9631_92901B69FB54_STL&#45;&gt;EAID_72094780_D1D8_4e2b_901F_7D0D4D156E52___EAID_9B6DABB6_AB77_42d7_9631_92901B69FB54 -->
<g id="edge8" class="edge"><title>EAID_72094780_D1D8_4e2b_901F_7D0D4D156E52___EAID_9B6DABB6_AB77_42d7_9631_92901B69FB54_STL&#45;&gt;EAID_72094780_D1D8_4e2b_901F_7D0D4D156E52___EAID_9B6DABB6_AB77_42d7_9631_92901B69FB54</title>
<path fill="none" stroke="black" d="M298.883,-1055.76C302.126,-1044.36 305.845,-1031.29 309.296,-1019.15"/>
<polygon fill="black" stroke="black" points="312.746,-1019.82 312.115,-1009.24 306.013,-1017.9 312.746,-1019.82"/>
</g>
<!-- EAID_3FB61F91_1358_4ea9_B760_8E437DFC6DFE -->
<g id="node18" class="node"><title>EAID_3FB61F91_1358_4ea9_B760_8E437DFC6DFE</title>
<polygon fill="none" stroke="black" points="4909,-44 4909,-65 5001,-65 5001,-44 4909,-44"/>
<text text-anchor="start" x="4912" y="-51.8" font-family="Times New Roman,serif" font-weight="bold" font-size="14.00">Administrator</text>
<polygon fill="none" stroke="black" points="4908,-43.5 4908,-66.5 5002,-66.5 5002,-43.5 4908,-43.5"/>
</g>
<!-- EAID_456E301B_558A_4606_86F5_F4E13C55015B -->
<g id="node20" class="node"><title>EAID_456E301B_558A_4606_86F5_F4E13C55015B</title>
<polygon fill="none" stroke="black" points="4501,-44 4501,-65 4694,-65 4694,-44 4501,-44"/>
<text text-anchor="start" x="4504" y="-51.8" font-family="Times New Roman,serif" font-weight="bold" font-size="14.00">Enter username and password</text>
<polygon fill="none" stroke="black" points="4499.5,-43.5 4499.5,-66.5 4694.5,-66.5 4694.5,-43.5 4499.5,-43.5"/>
</g>
<!-- EAID_B3569612_E0E4_4135_92F9_6C661977C326 -->
<g id="node22" class="node"><title>EAID_B3569612_E0E4_4135_92F9_6C661977C326</title>
<polygon fill="none" stroke="black" points="4201,-44 4201,-65 4307,-65 4307,-44 4201,-44"/>
<text text-anchor="start" x="4204" y="-51.8" font-family="Times New Roman,serif" font-weight="bold" font-size="14.00">Direct to modify</text>
<polygon fill="none" stroke="black" points="4200,-43.5 4200,-66.5 4308,-66.5 4308,-43.5 4200,-43.5"/>
</g>
<!-- EAID_4368C098_7FC9_4c05_9CA6_E585C4317E5E -->
<g id="node23" class="node"><title>EAID_4368C098_7FC9_4c05_9CA6_E585C4317E5E</title>
<polygon fill="none" stroke="black" points="4047,-44 4047,-65 4165,-65 4165,-44 4047,-44"/>
<text text-anchor="start" x="4050" y="-51.8" font-family="Times New Roman,serif" font-weight="bold" font-size="14.00">Retrieve and print</text>
<polygon fill="none" stroke="black" points="4046,-43.5 4046,-66.5 4166,-66.5 4166,-43.5 4046,-43.5"/>
</g>
<!-- EAID_89FA625B_DDE8_4b40_8497_572902E8AD0D -->
<g id="node24" class="node"><title>EAID_89FA625B_DDE8_4b40_8497_572902E8AD0D</title>
<polygon fill="none" stroke="black" points="3944,-44 3944,-65 4011,-65 4011,-44 3944,-44"/>
<text text-anchor="start" x="3947" y="-51.8" font-family="Times New Roman,serif" font-weight="bold" font-size="14.00">Employee</text>
<polygon fill="none" stroke="black" points="3942.5,-43.5 3942.5,-66.5 4011.5,-66.5 4011.5,-43.5 3942.5,-43.5"/>
</g>
<!-- EAID_60D180E9_820F_43a1_A0E5_F68051113F17 -->
<g id="node25" class="node"><title>EAID_60D180E9_820F_43a1_A0E5_F68051113F17</title>
<polygon fill="none" stroke="black" points="3859,-44 3859,-65 3908,-65 3908,-44 3859,-44"/>
<text text-anchor="start" x="3862" y="-51.8" font-family="Times New Roman,serif" font-weight="bold" font-size="14.00">Invoke</text>
<polygon fill="none" stroke="black" points="3857.5,-43.5 3857.5,-66.5 3908.5,-66.5 3908.5,-43.5 3857.5,-43.5"/>
</g>
<!-- EAID_1F31CA6B_1735_49e6_96F8_D53069B77FF0 -->
<g id="node26" class="node"><title>EAID_1F31CA6B_1735_49e6_96F8_D53069B77FF0</title>
<polygon fill="none" stroke="black" points="3768,-44 3768,-65 3823,-65 3823,-44 3768,-44"/>
<text text-anchor="start" x="3771" y="-51.8" font-family="Times New Roman,serif" font-weight="bold" font-size="14.00">account</text>
<polygon fill="none" stroke="black" points="3766.5,-43.5 3766.5,-66.5 3823.5,-66.5 3823.5,-43.5 3766.5,-43.5"/>
</g>
<!-- EAID_9F435887_A548_4ec1_BBA9_A54067F42CD6 -->
<g id="node27" class="node"><title>EAID_9F435887_A548_4ec1_BBA9_A54067F42CD6</title>
<polygon fill="none" stroke="black" points="3607,-44 3607,-65 3732,-65 3732,-44 3607,-44"/>
<text text-anchor="start" x="3610" y="-51.8" font-family="Times New Roman,serif" font-weight="bold" font-size="14.00">Click cancel button</text>
<polygon fill="none" stroke="black" points="3605.5,-43.5 3605.5,-66.5 3732.5,-66.5 3732.5,-43.5 3605.5,-43.5"/>
</g>
<!-- EAID_771E150D_7083_47c4_9F8B_477734B9B5D3 -->
<g id="node29" class="node"><title>EAID_771E150D_7083_47c4_9F8B_477734B9B5D3</title>
<polygon fill="none" stroke="black" points="3307,-44 3307,-65 3356,-65 3356,-44 3307,-44"/>
<text text-anchor="start" x="3310" y="-51.8" font-family="Times New Roman,serif" font-weight="bold" font-size="14.00">Search</text>
<polygon fill="none" stroke="black" points="3305.5,-43.5 3305.5,-66.5 3356.5,-66.5 3356.5,-43.5 3305.5,-43.5"/>
</g>
<!-- EAID_D21BB805_A3FC_4e33_B592_FDCF42E93EF6 -->
<g id="node31" class="node"><title>EAID_D21BB805_A3FC_4e33_B592_FDCF42E93EF6</title>
<polygon fill="none" stroke="black" points="3050,-44 3050,-65 3084,-65 3084,-44 3050,-44"/>
<text text-anchor="start" x="3053" y="-51.8" font-family="Times New Roman,serif" font-weight="bold" font-size="14.00">Bills</text>
<polygon fill="none" stroke="black" points="3049,-43.5 3049,-66.5 3085,-66.5 3085,-43.5 3049,-43.5"/>
</g>
<!-- EAID_3D0E881B_8CE1_45b2_9DF0_3508DC1B6953 -->
<g id="node32" class="node"><title>EAID_3D0E881B_8CE1_45b2_9DF0_3508DC1B6953</title>
<polygon fill="none" stroke="black" points="2851,-44 2851,-65 3013,-65 3013,-44 2851,-44"/>
<text text-anchor="start" x="2854" y="-51.8" font-family="Times New Roman,serif" font-weight="bold" font-size="14.00">Trip plans database table</text>
<polygon fill="none" stroke="black" points="2850,-43.5 2850,-66.5 3014,-66.5 3014,-43.5 2850,-43.5"/>
</g>
<!-- EAID_09CE27D1_4B61_433e_A7A5_7CC89CCA63F7 -->
<g id="node33" class="node"><title>EAID_09CE27D1_4B61_433e_A7A5_7CC89CCA63F7</title>
<polygon fill="none" stroke="black" points="2718,-44 2718,-65 2815,-65 2815,-44 2718,-44"/>
<text text-anchor="start" x="2721" y="-51.8" font-family="Times New Roman,serif" font-weight="bold" font-size="14.00">Validate/check</text>
<polygon fill="none" stroke="black" points="2716.5,-43.5 2716.5,-66.5 2815.5,-66.5 2815.5,-43.5 2716.5,-43.5"/>
</g>
<!-- EAID_13550E6A_4789_4323_8D14_C43C60F524BF -->
<g id="node34" class="node"><title>EAID_13550E6A_4789_4323_8D14_C43C60F524BF</title>
<polygon fill="none" stroke="black" points="2613,-44 2613,-65 2681,-65 2681,-44 2613,-44"/>
<text text-anchor="start" x="2616" y="-51.8" font-family="Times New Roman,serif" font-weight="bold" font-size="14.00">Geo fence</text>
<polygon fill="none" stroke="black" points="2612,-43.5 2612,-66.5 2682,-66.5 2682,-43.5 2612,-43.5"/>
</g>
<!-- EAID_E942A9FC_56CA_4dcb_8A30_5166F0C7E96D -->
<g id="node35" class="node"><title>EAID_E942A9FC_56CA_4dcb_8A30_5166F0C7E96D</title>
<polygon fill="none" stroke="black" points="2497,-44 2497,-65 2577,-65 2577,-44 2497,-44"/>
<text text-anchor="start" x="2500" y="-51.8" font-family="Times New Roman,serif" font-weight="bold" font-size="14.00">Save it later</text>
<polygon fill="none" stroke="black" points="2496,-43.5 2496,-66.5 2578,-66.5 2578,-43.5 2496,-43.5"/>
</g>
<!-- EAID_D96DCF18_B051_4a74_B994_4AA72F2F6980 -->
<g id="node36" class="node"><title>EAID_D96DCF18_B051_4a74_B994_4AA72F2F6980</title>
<polygon fill="none" stroke="black" points="2363,-44 2363,-65 2461,-65 2461,-44 2363,-44"/>
<text text-anchor="start" x="2366" y="-51.8" font-family="Times New Roman,serif" font-weight="bold" font-size="14.00">Scan QR Code</text>
<polygon fill="none" stroke="black" points="2362,-43.5 2362,-66.5 2462,-66.5 2462,-43.5 2362,-43.5"/>
</g>
<!-- EAID_89DA77E9_17AA_4f66_B6A0_31552C8E1C6C -->
<g id="node37" class="node"><title>EAID_89DA77E9_17AA_4f66_B6A0_31552C8E1C6C</title>
<polygon fill="none" stroke="black" points="2135,-44 2135,-65 2327,-65 2327,-44 2135,-44"/>
<text text-anchor="start" x="2138" y="-51.8" font-family="Times New Roman,serif" font-weight="bold" font-size="14.00">Sort coupons from far to close</text>
<polygon fill="none" stroke="black" points="2134,-43.5 2134,-66.5 2328,-66.5 2328,-43.5 2134,-43.5"/>
</g>
<!-- EAID_DDC2D790_6648_4fb3_A728_801B88D6B7F0 -->
<g id="node38" class="node"><title>EAID_DDC2D790_6648_4fb3_A728_801B88D6B7F0</title>
<polygon fill="none" stroke="black" points="1982,-44 1982,-65 2099,-65 2099,-44 1982,-44"/>
<text text-anchor="start" x="1985" y="-51.8" font-family="Times New Roman,serif" font-weight="bold" font-size="14.00">Create a category</text>
<polygon fill="none" stroke="black" points="1980.5,-43.5 1980.5,-66.5 2099.5,-66.5 2099.5,-43.5 1980.5,-43.5"/>
</g>
<!-- EAID_056A8261_9F7D_4b14_B74D_AC2096049B58 -->
<g id="node40" class="node"><title>EAID_056A8261_9F7D_4b14_B74D_AC2096049B58</title>
<polygon fill="none" stroke="black" points="1552,-44 1552,-65 1609,-65 1609,-44 1552,-44"/>
<text text-anchor="start" x="1555" y="-51.8" font-family="Times New Roman,serif" font-weight="bold" font-size="14.00">Proceed</text>
<polygon fill="none" stroke="black" points="1550.5,-43.5 1550.5,-66.5 1609.5,-66.5 1609.5,-43.5 1550.5,-43.5"/>
</g>
<!-- EAID_4DFEC0D0_44CA_4667_930E_613F9322AF54 -->
<g id="node41" class="node"><title>EAID_4DFEC0D0_44CA_4667_930E_613F9322AF54</title>
<polygon fill="none" stroke="black" points="1433,-44 1433,-65 1516,-65 1516,-44 1433,-44"/>
<text text-anchor="start" x="1436" y="-51.8" font-family="Times New Roman,serif" font-weight="bold" font-size="14.00">FT sales rep</text>
<polygon fill="none" stroke="black" points="1431.5,-43.5 1431.5,-66.5 1516.5,-66.5 1516.5,-43.5 1431.5,-43.5"/>
</g>
<!-- EAID_DE595F52_8253_48e5_AC8D_C8D8A5749F8F -->
<g id="node42" class="node"><title>EAID_DE595F52_8253_48e5_AC8D_C8D8A5749F8F</title>
<polygon fill="none" stroke="black" points="1322,-44 1322,-65 1396,-65 1396,-44 1322,-44"/>
<text text-anchor="start" x="1325" y="-51.8" font-family="Times New Roman,serif" font-weight="bold" font-size="14.00">Link offers</text>
<polygon fill="none" stroke="black" points="1321,-43.5 1321,-66.5 1397,-66.5 1397,-43.5 1321,-43.5"/>
</g>
<!-- EAID_3E574FE1_159B_463c_A19A_654D4DF17D10 -->
<g id="node43" class="node"><title>EAID_3E574FE1_159B_463c_A19A_654D4DF17D10</title>
<polygon fill="none" stroke="black" points="1251,-44 1251,-65 1285,-65 1285,-44 1251,-44"/>
<text text-anchor="start" x="1254" y="-51.8" font-family="Times New Roman,serif" font-weight="bold" font-size="14.00">Test</text>
<polygon fill="none" stroke="black" points="1250,-43.5 1250,-66.5 1286,-66.5 1286,-43.5 1250,-43.5"/>
</g>
<!-- EAID_2CD69C18_D4DC_4a28_A371_8B25822D6360 -->
<g id="node44" class="node"><title>EAID_2CD69C18_D4DC_4a28_A371_8B25822D6360</title>
<polygon fill="none" stroke="black" points="1170,-44 1170,-65 1214,-65 1214,-44 1170,-44"/>
<text text-anchor="start" x="1173" y="-51.8" font-family="Times New Roman,serif" font-weight="bold" font-size="14.00">FTSR</text>
<polygon fill="none" stroke="black" points="1169,-43.5 1169,-66.5 1215,-66.5 1215,-43.5 1169,-43.5"/>
</g>
<!-- EAID_EAC17841_42BB_49cc_A531_7748B498C14A -->
<g id="node45" class="node"><title>EAID_EAC17841_42BB_49cc_A531_7748B498C14A</title>
<polygon fill="none" stroke="black" points="988,-44 988,-65 1134,-65 1134,-44 988,-44"/>
<text text-anchor="start" x="991" y="-51.8" font-family="Times New Roman,serif" font-weight="bold" font-size="14.00">File Chooser Windows</text>
<polygon fill="none" stroke="black" points="987,-43.5 987,-66.5 1135,-66.5 1135,-43.5 987,-43.5"/>
</g>
<!-- EAID_3667E19B_801A_439e_9B2B_12F9CC100B96 -->
<g id="node46" class="node"><title>EAID_3667E19B_801A_439e_9B2B_12F9CC100B96</title>
<polygon fill="none" stroke="black" points="903,-44 903,-65 952,-65 952,-44 903,-44"/>
<text text-anchor="start" x="906" y="-51.8" font-family="Times New Roman,serif" font-weight="bold" font-size="14.00">Photos</text>
<polygon fill="none" stroke="black" points="901.5,-43.5 901.5,-66.5 952.5,-66.5 952.5,-43.5 901.5,-43.5"/>
</g>
<!-- EAID_249E1B94_A628_4095_A30B_9F334D8C1C13 -->
<g id="node47" class="node"><title>EAID_249E1B94_A628_4095_A30B_9F334D8C1C13</title>
<polygon fill="none" stroke="black" points="784,-44 784,-65 866,-65 866,-44 784,-44"/>
<text text-anchor="start" x="787" y="-51.8" font-family="Times New Roman,serif" font-weight="bold" font-size="14.00">Main screen</text>
<polygon fill="none" stroke="black" points="783,-43.5 783,-66.5 867,-66.5 867,-43.5 783,-43.5"/>
</g>
<!-- EAID_52DB47A2_7596_4d57_813D_E26192FF0980 -->
<g id="node48" class="node"><title>EAID_52DB47A2_7596_4d57_813D_E26192FF0980</title>
<polygon fill="none" stroke="black" points="614,-44 614,-65 748,-65 748,-44 614,-44"/>
<text text-anchor="start" x="617" y="-51.8" font-family="Times New Roman,serif" font-weight="bold" font-size="14.00">Error prompting box</text>
<polygon fill="none" stroke="black" points="613,-43.5 613,-66.5 749,-66.5 749,-43.5 613,-43.5"/>
</g>
<!-- EAID_9E1297B3_D53B_4da9_9B1B_6CBDED4B1EEB -->
<g id="node49" class="node"><title>EAID_9E1297B3_D53B_4da9_9B1B_6CBDED4B1EEB</title>
<polygon fill="none" stroke="black" points="543,-44 543,-65 578,-65 578,-44 543,-44"/>
<text text-anchor="start" x="546" y="-51.8" font-family="Times New Roman,serif" font-weight="bold" font-size="14.00">Map</text>
<polygon fill="none" stroke="black" points="541.5,-43.5 541.5,-66.5 578.5,-66.5 578.5,-43.5 541.5,-43.5"/>
</g>
</g>
</svg>
