<?xml version="1.0" encoding="UTF-8" standalone="no"?>
<!DOCTYPE svg PUBLIC "-//W3C//DTD SVG 1.1//EN"
 "http://www.w3.org/Graphics/SVG/1.1/DTD/svg11.dtd">
<!-- Generated by graphviz version 2.38.0 (20140413.2041)
 -->
<!-- Title: g Pages: 1 -->
<svg width="965pt" height="325pt"
 viewBox="0.00 0.00 965.00 325.00" xmlns="http://www.w3.org/2000/svg" xmlns:xlink="http://www.w3.org/1999/xlink">
<g id="graph0" class="graph" transform="scale(1 1) rotate(0) translate(4 321)">
<title>g</title>
<polygon fill="white" stroke="none" points="-4,4 -4,-321 961,-321 961,4 -4,4"/>
<!-- EAID_498E8937_3498_45a4_A421_1AFAEFEEAD87 -->
<g id="node1" class="node"><title>EAID_498E8937_3498_45a4_A421_1AFAEFEEAD87</title>
<image xlink:href="img/actor1.png" width="61px" height="90px" preserveAspectRatio="xMinYMin meet" x="10.5" y="-218.5"/>
<text text-anchor="start" x="12.5" y="-105.3" font-family="Times New Roman,serif" font-size="24.00">florist</text>
</g>
<!-- EAID_8BAFF4A9_3606_4628_AE50_A0BFDD13F117 -->
<g id="node2" class="node"><title>EAID_8BAFF4A9_3606_4628_AE50_A0BFDD13F117</title>
<image xlink:href="img/boundary3.png" width="115px" height="67px" preserveAspectRatio="xMinYMin meet" x="789" y="-310.5"/>
<text text-anchor="start" x="768" y="-220.3" font-family="Times New Roman,serif" font-size="24.00">order history list</text>
</g>
<!-- EAID_498E8937_3498_45a4_A421_1AFAEFEEAD87&#45;&gt;EAID_8BAFF4A9_3606_4628_AE50_A0BFDD13F117 -->
<g id="edge1" class="edge"><title>EAID_498E8937_3498_45a4_A421_1AFAEFEEAD87&#45;&gt;EAID_8BAFF4A9_3606_4628_AE50_A0BFDD13F117</title>
<path fill="none" stroke="black" d="M81.0751,-199.455C91.8555,-208.254 104.137,-216.425 117,-221.5 329.308,-305.272 603.668,-291.382 747.366,-275.841"/>
<polygon fill="black" stroke="black" points="747.929,-279.3 757.483,-274.721 747.159,-272.343 747.929,-279.3"/>
</g>
<!-- EAID_3E836F20_2FE5_4dc9_9B37_C475060E3548 -->
<g id="node3" class="node"><title>EAID_3E836F20_2FE5_4dc9_9B37_C475060E3548</title>
<image xlink:href="img/boundary3.png" width="115px" height="67px" preserveAspectRatio="xMinYMin meet" x="788.5" y="-102.5"/>
<text text-anchor="start" x="745" y="-12.3" font-family="Times New Roman,serif" font-size="24.00">no order history page</text>
</g>
<!-- EAID_498E8937_3498_45a4_A421_1AFAEFEEAD87&#45;&gt;EAID_3E836F20_2FE5_4dc9_9B37_C475060E3548 -->
<g id="edge2" class="edge"><title>EAID_498E8937_3498_45a4_A421_1AFAEFEEAD87&#45;&gt;EAID_3E836F20_2FE5_4dc9_9B37_C475060E3548</title>
<path fill="none" stroke="black" d="M81.3801,-116.556C92.0668,-107.744 104.229,-99.5864 117,-94.5 318.458,-14.2643 576.301,-23.5023 724.846,-38.3947"/>
<polygon fill="black" stroke="black" points="724.605,-41.8882 734.91,-39.4291 725.321,-34.9249 724.605,-41.8882"/>
</g>
<!-- EAID_AF0D07CF_613A_4214_8D96_11FDAB4539EC -->
<g id="node4" class="node"><title>EAID_AF0D07CF_613A_4214_8D96_11FDAB4539EC</title>
<image xlink:href="img/boundary3.png" width="115px" height="67px" preserveAspectRatio="xMinYMin meet" x="166.5" y="-206.5"/>
<text text-anchor="start" x="127.5" y="-116.3" font-family="Times New Roman,serif" font-size="24.00">Order history button</text>
</g>
<!-- EAID_498E8937_3498_45a4_A421_1AFAEFEEAD87&#45;&gt;EAID_AF0D07CF_613A_4214_8D96_11FDAB4539EC -->
<g id="edge3" class="edge"><title>EAID_498E8937_3498_45a4_A421_1AFAEFEEAD87&#45;&gt;EAID_AF0D07CF_613A_4214_8D96_11FDAB4539EC</title>
<path fill="none" stroke="black" d="M81.2212,-158.5C89.0845,-158.5 97.7039,-158.5 106.685,-158.5"/>
<polygon fill="black" stroke="black" points="106.958,-162 116.958,-158.5 106.958,-155 106.958,-162"/>
</g>
<!-- EAID_60CA30F2_CBF0_43fb_8BB1_A8D9B96F6A30 -->
<g id="node5" class="node"><title>EAID_60CA30F2_CBF0_43fb_8BB1_A8D9B96F6A30</title>
<image xlink:href="img/control1.png" width="106px" height="75px" preserveAspectRatio="xMinYMin meet" x="480" y="-210.5"/>
<text text-anchor="start" x="376.5" y="-112.3" font-family="Times New Roman,serif" font-size="24.00">retrieve order history for a florist</text>
</g>
<!-- EAID_AF0D07CF_613A_4214_8D96_11FDAB4539EC&#45;&gt;EAID_60CA30F2_CBF0_43fb_8BB1_A8D9B96F6A30 -->
<g id="edge4" class="edge"><title>EAID_AF0D07CF_613A_4214_8D96_11FDAB4539EC&#45;&gt;EAID_60CA30F2_CBF0_43fb_8BB1_A8D9B96F6A30</title>
<path fill="none" stroke="black" d="M330.152,-158.5C338.504,-158.5 347.067,-158.5 355.726,-158.5"/>
<polygon fill="black" stroke="black" points="355.929,-162 365.929,-158.5 355.929,-155 355.929,-162"/>
</g>
<!-- EAID_60CA30F2_CBF0_43fb_8BB1_A8D9B96F6A30&#45;&gt;EAID_8BAFF4A9_3606_4628_AE50_A0BFDD13F117 -->
<g id="edge7" class="edge"><title>EAID_60CA30F2_CBF0_43fb_8BB1_A8D9B96F6A30&#45;&gt;EAID_8BAFF4A9_3606_4628_AE50_A0BFDD13F117</title>
<path fill="none" stroke="black" d="M699.282,-213.849C715.887,-219.393 732.339,-224.886 747.879,-230.074"/>
<polygon fill="black" stroke="black" points="746.836,-233.416 757.43,-233.263 749.053,-226.776 746.836,-233.416"/>
</g>
<!-- EAID_60CA30F2_CBF0_43fb_8BB1_A8D9B96F6A30&#45;&gt;EAID_3E836F20_2FE5_4dc9_9B37_C475060E3548 -->
<g id="edge5" class="edge"><title>EAID_60CA30F2_CBF0_43fb_8BB1_A8D9B96F6A30&#45;&gt;EAID_3E836F20_2FE5_4dc9_9B37_C475060E3548</title>
<path fill="none" stroke="black" d="M699.282,-103.151C708.044,-100.225 716.764,-97.314 725.329,-94.4543"/>
<polygon fill="black" stroke="black" points="726.552,-97.7362 734.929,-91.2494 724.335,-91.0964 726.552,-97.7362"/>
</g>
<!-- EAID_DFCA7BCF_CDA4_4d96_9587_0B3654B4FA28 -->
<g id="node6" class="node"><title>EAID_DFCA7BCF_CDA4_4d96_9587_0B3654B4FA28</title>
<image xlink:href="img/activity_icon.png" width="30px" height="20px" preserveAspectRatio="xMinYMin meet" x="831" y="-183.5"/>
<text text-anchor="start" x="817" y="-141.3" font-family="Times New Roman,serif" font-weight="bold" font-size="24.00">order</text>
</g>
<!-- EAID_60CA30F2_CBF0_43fb_8BB1_A8D9B96F6A30&#45;&gt;EAID_DFCA7BCF_CDA4_4d96_9587_0B3654B4FA28 -->
<g id="edge6" class="edge"><title>EAID_60CA30F2_CBF0_43fb_8BB1_A8D9B96F6A30&#45;&gt;EAID_DFCA7BCF_CDA4_4d96_9587_0B3654B4FA28</title>
<path fill="none" stroke="black" d="M699.282,-158.5C734.941,-158.5 769.896,-158.5 796.628,-158.5"/>
<polygon fill="black" stroke="black" points="796.821,-162 806.821,-158.5 796.821,-155 796.821,-162"/>
</g>
</g>
</svg>
