<?xml version="1.0" encoding="UTF-8" standalone="no"?>
<!DOCTYPE svg PUBLIC "-//W3C//DTD SVG 1.1//EN"
 "http://www.w3.org/Graphics/SVG/1.1/DTD/svg11.dtd">
<!-- Generated by graphviz version 2.38.0 (20140413.2041)
 -->
<!-- Title: g Pages: 1 -->
<svg width="2254pt" height="439pt"
 viewBox="0.00 0.00 2254.00 439.00" xmlns="http://www.w3.org/2000/svg" xmlns:xlink="http://www.w3.org/1999/xlink">
<g id="graph0" class="graph" transform="scale(1 1) rotate(0) translate(4 435)">
<title>g</title>
<polygon fill="white" stroke="none" points="-4,4 -4,-435 2250,-435 2250,4 -4,4"/>
<!-- EAID_869E5088_1250_4ae5_AE26_B6EDE282ABC0 -->
<g id="node1" class="node"><title>EAID_869E5088_1250_4ae5_AE26_B6EDE282ABC0</title>
<image xlink:href="img/actor1.png" width="82px" height="90px" preserveAspectRatio="xMinYMin meet" x="30" y="-315.5"/>
<text text-anchor="start" x="10.5" y="-202.3" font-family="Times New Roman,serif" font-size="24.00">Weight loser</text>
</g>
<!-- EAID_78AC448F_69FA_4d71_96CB_970E9A8794A4 -->
<g id="node2" class="node"><title>EAID_78AC448F_69FA_4d71_96CB_970E9A8794A4</title>
<image xlink:href="img/boundary3.png" width="115px" height="67px" preserveAspectRatio="xMinYMin meet" x="2066.5" y="-424.5"/>
<text text-anchor="start" x="2012" y="-334.3" font-family="Times New Roman,serif" font-size="24.00">display success message</text>
</g>
<!-- EAID_869E5088_1250_4ae5_AE26_B6EDE282ABC0&#45;&gt;EAID_78AC448F_69FA_4d71_96CB_970E9A8794A4 -->
<g id="edge1" class="edge"><title>EAID_869E5088_1250_4ae5_AE26_B6EDE282ABC0&#45;&gt;EAID_78AC448F_69FA_4d71_96CB_970E9A8794A4</title>
<path fill="none" stroke="black" d="M141.218,-286.015C153.028,-290.576 165.266,-294.936 177,-298.5 341.761,-348.542 384.308,-376.5 556.5,-376.5 556.5,-376.5 556.5,-376.5 1524,-376.5 1685.08,-376.5 1870.53,-376.5 1991.88,-376.5"/>
<polygon fill="black" stroke="black" points="1991.96,-380 2001.96,-376.5 1991.96,-373 1991.96,-380"/>
</g>
<!-- EAID_D62708E3_1F57_4a3c_9F2F_63DBA2CA3DE4 -->
<g id="node3" class="node"><title>EAID_D62708E3_1F57_4a3c_9F2F_63DBA2CA3DE4</title>
<image xlink:href="img/boundary3.png" width="100px" height="67px" preserveAspectRatio="xMinYMin meet" x="1135.5" y="-341.5"/>
<text text-anchor="start" x="1135.5" y="-251.3" font-family="Times New Roman,serif" font-size="24.00">charity list</text>
</g>
<!-- EAID_869E5088_1250_4ae5_AE26_B6EDE282ABC0&#45;&gt;EAID_D62708E3_1F57_4a3c_9F2F_63DBA2CA3DE4 -->
<g id="edge2" class="edge"><title>EAID_869E5088_1250_4ae5_AE26_B6EDE282ABC0&#45;&gt;EAID_D62708E3_1F57_4a3c_9F2F_63DBA2CA3DE4</title>
<path fill="none" stroke="black" d="M141.019,-266.421C290.924,-288.648 655.799,-335.648 962,-318.5 1013.49,-315.616 1071.37,-309.008 1115.18,-303.309"/>
<polygon fill="black" stroke="black" points="1115.7,-306.771 1125.16,-301.996 1114.79,-299.831 1115.7,-306.771"/>
</g>
<!-- EAID_4A74D43C_5366_408c_B6B4_6597E31D819E -->
<g id="node4" class="node"><title>EAID_4A74D43C_5366_408c_B6B4_6597E31D819E</title>
<image xlink:href="img/boundary3.png" width="115px" height="67px" preserveAspectRatio="xMinYMin meet" x="217.5" y="-210.5"/>
<text text-anchor="start" x="187" y="-120.3" font-family="Times New Roman,serif" font-size="24.00">update weight link</text>
</g>
<!-- EAID_869E5088_1250_4ae5_AE26_B6EDE282ABC0&#45;&gt;EAID_4A74D43C_5366_408c_B6B4_6597E31D819E -->
<g id="edge3" class="edge"><title>EAID_869E5088_1250_4ae5_AE26_B6EDE282ABC0&#45;&gt;EAID_4A74D43C_5366_408c_B6B4_6597E31D819E</title>
<path fill="none" stroke="black" d="M141.189,-223.495C149.765,-219.556 158.677,-215.463 167.642,-211.346"/>
<polygon fill="black" stroke="black" points="169.365,-214.406 176.992,-207.052 166.444,-208.045 169.365,-214.406"/>
</g>
<!-- EAID_FA604655_8F2F_4132_836A_22F9BD2C2460 -->
<g id="node5" class="node"><title>EAID_FA604655_8F2F_4132_836A_22F9BD2C2460</title>
<image xlink:href="img/boundary3.png" width="115px" height="67px" preserveAspectRatio="xMinYMin meet" x="1465.5" y="-102.5"/>
<text text-anchor="start" x="1422" y="-12.3" font-family="Times New Roman,serif" font-size="24.00">invalid error message</text>
</g>
<!-- EAID_869E5088_1250_4ae5_AE26_B6EDE282ABC0&#45;&gt;EAID_FA604655_8F2F_4132_836A_22F9BD2C2460 -->
<g id="edge4" class="edge"><title>EAID_869E5088_1250_4ae5_AE26_B6EDE282ABC0&#45;&gt;EAID_FA604655_8F2F_4132_836A_22F9BD2C2460</title>
<path fill="none" stroke="black" d="M99.4091,-189.422C116.805,-156.583 142.507,-119.519 177,-98.5 321.997,-10.144 386.703,-54.5 556.5,-54.5 556.5,-54.5 556.5,-54.5 853,-54.5 1044.87,-54.5 1267.69,-54.5 1401.62,-54.5"/>
<polygon fill="black" stroke="black" points="1401.91,-58.0001 1411.91,-54.5 1401.91,-51.0001 1401.91,-58.0001"/>
</g>
<!-- EAID_61D562F0_36C3_4198_B24E_56D0218EE67A -->
<g id="node6" class="node"><title>EAID_61D562F0_36C3_4198_B24E_56D0218EE67A</title>
<image xlink:href="img/boundary3.png" width="115px" height="67px" preserveAspectRatio="xMinYMin meet" x="794.5" y="-303.5"/>
<text text-anchor="start" x="752" y="-213.3" font-family="Times New Roman,serif" font-size="24.00">add new weight page</text>
</g>
<!-- EAID_869E5088_1250_4ae5_AE26_B6EDE282ABC0&#45;&gt;EAID_61D562F0_36C3_4198_B24E_56D0218EE67A -->
<g id="edge5" class="edge"><title>EAID_869E5088_1250_4ae5_AE26_B6EDE282ABC0&#45;&gt;EAID_61D562F0_36C3_4198_B24E_56D0218EE67A</title>
<path fill="none" stroke="black" d="M141.018,-255.5C274.15,-255.5 566.493,-255.5 731.513,-255.5"/>
<polygon fill="black" stroke="black" points="731.708,-259 741.708,-255.5 731.708,-252 731.708,-259"/>
</g>
<!-- EAID_F4878B5E_51EF_4336_BF49_ED2C17D0F97A -->
<g id="node7" class="node"><title>EAID_F4878B5E_51EF_4336_BF49_ED2C17D0F97A</title>
<image xlink:href="img/control1.png" width="106px" height="75px" preserveAspectRatio="xMinYMin meet" x="505" y="-208.5"/>
<text text-anchor="start" x="419.5" y="-110.3" font-family="Times New Roman,serif" font-size="24.00">The system open weight page</text>
</g>
<!-- EAID_4A74D43C_5366_408c_B6B4_6597E31D819E&#45;&gt;EAID_F4878B5E_51EF_4336_BF49_ED2C17D0F97A -->
<g id="edge9" class="edge"><title>EAID_4A74D43C_5366_408c_B6B4_6597E31D819E&#45;&gt;EAID_F4878B5E_51EF_4336_BF49_ED2C17D0F97A</title>
<path fill="none" stroke="black" d="M373.318,-160.418C381.62,-160.241 390.145,-160.058 398.759,-159.874"/>
<polygon fill="black" stroke="black" points="398.981,-163.37 408.904,-159.657 398.831,-156.372 398.981,-163.37"/>
</g>
<!-- EAID_61D562F0_36C3_4198_B24E_56D0218EE67A&#45;&gt;EAID_D62708E3_1F57_4a3c_9F2F_63DBA2CA3DE4 -->
<g id="edge10" class="edge"><title>EAID_61D562F0_36C3_4198_B24E_56D0218EE67A&#45;&gt;EAID_D62708E3_1F57_4a3c_9F2F_63DBA2CA3DE4</title>
<path fill="none" stroke="black" d="M962.005,-267.995C1012.43,-273.775 1070.81,-280.468 1115.12,-285.547"/>
<polygon fill="black" stroke="black" points="1114.88,-289.042 1125.21,-286.704 1115.67,-282.087 1114.88,-289.042"/>
</g>
<!-- EAID_19E92430_18B9_4c07_B190_55C99EE0F1CD -->
<g id="node8" class="node"><title>EAID_19E92430_18B9_4c07_B190_55C99EE0F1CD</title>
<image xlink:href="img/control1.png" width="106px" height="75px" preserveAspectRatio="xMinYMin meet" x="1133" y="-214.5"/>
<text text-anchor="start" x="1008.5" y="-116.3" font-family="Times New Roman,serif" font-size="24.00">check the weight less than benchmark</text>
</g>
<!-- EAID_61D562F0_36C3_4198_B24E_56D0218EE67A&#45;&gt;EAID_19E92430_18B9_4c07_B190_55C99EE0F1CD -->
<g id="edge11" class="edge"><title>EAID_61D562F0_36C3_4198_B24E_56D0218EE67A&#45;&gt;EAID_19E92430_18B9_4c07_B190_55C99EE0F1CD</title>
<path fill="none" stroke="black" d="M962.005,-224.92C970.528,-222.528 979.278,-220.074 988.15,-217.585"/>
<polygon fill="black" stroke="black" points="989.136,-220.943 997.819,-214.872 987.245,-214.203 989.136,-220.943"/>
</g>
<!-- EAID_F4878B5E_51EF_4336_BF49_ED2C17D0F97A&#45;&gt;EAID_61D562F0_36C3_4198_B24E_56D0218EE67A -->
<g id="edge8" class="edge"><title>EAID_F4878B5E_51EF_4336_BF49_ED2C17D0F97A&#45;&gt;EAID_61D562F0_36C3_4198_B24E_56D0218EE67A</title>
<path fill="none" stroke="black" d="M706.035,-206.435C714.804,-209.403 723.566,-212.369 732.196,-215.289"/>
<polygon fill="black" stroke="black" points="731.282,-218.675 741.877,-218.566 733.527,-212.045 731.282,-218.675"/>
</g>
<!-- EAID_F4878B5E_51EF_4336_BF49_ED2C17D0F97A&#45;&gt;EAID_19E92430_18B9_4c07_B190_55C99EE0F1CD -->
<g id="edge6" class="edge"><title>EAID_F4878B5E_51EF_4336_BF49_ED2C17D0F97A&#45;&gt;EAID_19E92430_18B9_4c07_B190_55C99EE0F1CD</title>
<path fill="none" stroke="black" d="M706.16,-117.058C718.222,-114.824 730.277,-112.916 742,-111.5 839.072,-99.7712 864.842,-100.508 962,-111.5 970.42,-112.453 978.986,-113.602 987.615,-114.909"/>
<polygon fill="black" stroke="black" points="987.344,-118.409 997.768,-116.512 988.436,-111.495 987.344,-118.409"/>
</g>
<!-- EAID_7196C080_6871_4bb7_8DCF_F07ACEAC4632 -->
<g id="node9" class="node"><title>EAID_7196C080_6871_4bb7_8DCF_F07ACEAC4632</title>
<image xlink:href="img/activity_icon.png" width="30px" height="20px" preserveAspectRatio="xMinYMin meet" x="837" y="-176.5"/>
<text text-anchor="start" x="797" y="-134.3" font-family="Times New Roman,serif" font-weight="bold" font-size="24.00">charity list</text>
</g>
<!-- EAID_F4878B5E_51EF_4336_BF49_ED2C17D0F97A&#45;&gt;EAID_7196C080_6871_4bb7_8DCF_F07ACEAC4632 -->
<g id="edge7" class="edge"><title>EAID_F4878B5E_51EF_4336_BF49_ED2C17D0F97A&#45;&gt;EAID_7196C080_6871_4bb7_8DCF_F07ACEAC4632</title>
<path fill="none" stroke="black" d="M706.035,-153.978C730.549,-153.559 755.015,-153.141 776.677,-152.77"/>
<polygon fill="black" stroke="black" points="776.809,-156.269 786.747,-152.598 776.689,-149.27 776.809,-156.269"/>
</g>
<!-- EAID_19E92430_18B9_4c07_B190_55C99EE0F1CD&#45;&gt;EAID_FA604655_8F2F_4132_836A_22F9BD2C2460 -->
<g id="edge13" class="edge"><title>EAID_19E92430_18B9_4c07_B190_55C99EE0F1CD&#45;&gt;EAID_FA604655_8F2F_4132_836A_22F9BD2C2460</title>
<path fill="none" stroke="black" d="M1368.49,-103.917C1379.92,-100.235 1391.27,-96.5818 1402.32,-93.0263"/>
<polygon fill="black" stroke="black" points="1403.5,-96.3246 1411.94,-89.9287 1401.35,-89.6613 1403.5,-96.3246"/>
</g>
<!-- EAID_C2312015_E3DB_42f5_81EF_800E8C5A10CA -->
<g id="node10" class="node"><title>EAID_C2312015_E3DB_42f5_81EF_800E8C5A10CA</title>
<image xlink:href="img/control1.png" width="106px" height="75px" preserveAspectRatio="xMinYMin meet" x="1767" y="-324.5"/>
<text text-anchor="start" x="1683.5" y="-226.3" font-family="Times New Roman,serif" font-size="24.00">update goal with new weight</text>
</g>
<!-- EAID_19E92430_18B9_4c07_B190_55C99EE0F1CD&#45;&gt;EAID_C2312015_E3DB_42f5_81EF_800E8C5A10CA -->
<g id="edge12" class="edge"><title>EAID_19E92430_18B9_4c07_B190_55C99EE0F1CD&#45;&gt;EAID_C2312015_E3DB_42f5_81EF_800E8C5A10CA</title>
<path fill="none" stroke="black" d="M1354.99,-221.035C1361.11,-223.793 1367.13,-226.617 1373,-229.5 1390.04,-237.873 1390.91,-246.732 1409,-252.5 1489.96,-278.316 1584.48,-284.402 1662.29,-283.547"/>
<polygon fill="black" stroke="black" points="1662.72,-287.041 1672.67,-283.391 1662.61,-280.041 1662.72,-287.041"/>
</g>
<!-- EAID_6923C4D1_D9AE_4f98_92D9_74852F899562 -->
<g id="node11" class="node"><title>EAID_6923C4D1_D9AE_4f98_92D9_74852F899562</title>
<image xlink:href="img/control1.png" width="106px" height="75px" preserveAspectRatio="xMinYMin meet" x="1470" y="-237.5"/>
<text text-anchor="start" x="1419" y="-139.3" font-family="Times New Roman,serif" font-size="24.00">update the benchmark</text>
</g>
<!-- EAID_19E92430_18B9_4c07_B190_55C99EE0F1CD&#45;&gt;EAID_6923C4D1_D9AE_4f98_92D9_74852F899562 -->
<g id="edge14" class="edge"><title>EAID_19E92430_18B9_4c07_B190_55C99EE0F1CD&#45;&gt;EAID_6923C4D1_D9AE_4f98_92D9_74852F899562</title>
<path fill="none" stroke="black" d="M1373.38,-175.311C1381.94,-175.898 1390.43,-176.48 1398.76,-177.051"/>
<polygon fill="black" stroke="black" points="1398.62,-180.55 1408.84,-177.742 1399.1,-173.566 1398.62,-180.55"/>
</g>
<!-- EAID_C2312015_E3DB_42f5_81EF_800E8C5A10CA&#45;&gt;EAID_78AC448F_69FA_4d71_96CB_970E9A8794A4 -->
<g id="edge15" class="edge"><title>EAID_C2312015_E3DB_42f5_81EF_800E8C5A10CA&#45;&gt;EAID_78AC448F_69FA_4d71_96CB_970E9A8794A4</title>
<path fill="none" stroke="black" d="M1966.43,-322.672C1975,-325.616 1983.58,-328.567 1992.08,-331.489"/>
<polygon fill="black" stroke="black" points="1991.04,-334.831 2001.63,-334.773 1993.31,-328.212 1991.04,-334.831"/>
</g>
<!-- EAID_E4A268D8_0420_464e_9C04_7822CA75C439 -->
<g id="node12" class="node"><title>EAID_E4A268D8_0420_464e_9C04_7822CA75C439</title>
<image xlink:href="img/activity_icon.png" width="30px" height="20px" preserveAspectRatio="xMinYMin meet" x="2109.5" y="-297.5"/>
<text text-anchor="start" x="2103" y="-255.3" font-family="Times New Roman,serif" font-weight="bold" font-size="24.00">goal</text>
</g>
<!-- EAID_C2312015_E3DB_42f5_81EF_800E8C5A10CA&#45;&gt;EAID_E4A268D8_0420_464e_9C04_7822CA75C439 -->
<g id="edge16" class="edge"><title>EAID_C2312015_E3DB_42f5_81EF_800E8C5A10CA&#45;&gt;EAID_E4A268D8_0420_464e_9C04_7822CA75C439</title>
<path fill="none" stroke="black" d="M1966.43,-272.5C2009.01,-272.5 2052.14,-272.5 2082.32,-272.5"/>
<polygon fill="black" stroke="black" points="2082.44,-276 2092.44,-272.5 2082.44,-269 2082.44,-276"/>
</g>
<!-- EAID_6923C4D1_D9AE_4f98_92D9_74852F899562&#45;&gt;EAID_C2312015_E3DB_42f5_81EF_800E8C5A10CA -->
<g id="edge17" class="edge"><title>EAID_6923C4D1_D9AE_4f98_92D9_74852F899562&#45;&gt;EAID_C2312015_E3DB_42f5_81EF_800E8C5A10CA</title>
<path fill="none" stroke="black" d="M1637.02,-218.888C1645.5,-221.394 1654.15,-223.949 1662.84,-226.514"/>
<polygon fill="black" stroke="black" points="1662.07,-229.938 1672.65,-229.414 1664.05,-223.224 1662.07,-229.938"/>
</g>
<!-- EAID_0A4ECD22_57CC_4697_A597_4FB197A95BE6 -->
<g id="node13" class="node"><title>EAID_0A4ECD22_57CC_4697_A597_4FB197A95BE6</title>
<image xlink:href="img/activity_icon.png" width="30px" height="20px" preserveAspectRatio="xMinYMin meet" x="1805" y="-189.5"/>
<text text-anchor="start" x="1785.5" y="-147.3" font-family="Times New Roman,serif" font-weight="bold" font-size="24.00">weight</text>
</g>
<!-- EAID_6923C4D1_D9AE_4f98_92D9_74852F899562&#45;&gt;EAID_0A4ECD22_57CC_4697_A597_4FB197A95BE6 -->
<g id="edge18" class="edge"><title>EAID_6923C4D1_D9AE_4f98_92D9_74852F899562&#45;&gt;EAID_0A4ECD22_57CC_4697_A597_4FB197A95BE6</title>
<path fill="none" stroke="black" d="M1637.02,-177.441C1680.87,-174.314 1729,-170.882 1764.67,-168.338"/>
<polygon fill="black" stroke="black" points="1765.13,-171.815 1774.86,-167.612 1764.63,-164.832 1765.13,-171.815"/>
</g>
</g>
</svg>
