<?xml version="1.0" encoding="UTF-8" standalone="no"?>
<!DOCTYPE svg PUBLIC "-//W3C//DTD SVG 1.1//EN"
 "http://www.w3.org/Graphics/SVG/1.1/DTD/svg11.dtd">
<!-- Generated by graphviz version 2.38.0 (20140413.2041)
 -->
<!-- Title: g Pages: 1 -->
<svg width="1668pt" height="311pt"
 viewBox="0.00 0.00 1668.00 310.50" xmlns="http://www.w3.org/2000/svg" xmlns:xlink="http://www.w3.org/1999/xlink">
<g id="graph0" class="graph" transform="scale(1 1) rotate(0) translate(4 306.5)">
<title>g</title>
<polygon fill="white" stroke="none" points="-4,4 -4,-306.5 1664,-306.5 1664,4 -4,4"/>
<!-- EAID_9B02827C_3066_4eb4_A249_7A55B747E674 -->
<g id="node1" class="node"><title>EAID_9B02827C_3066_4eb4_A249_7A55B747E674</title>
<image xlink:href="img/actor1.png" width="61px" height="90px" preserveAspectRatio="xMinYMin meet" x="10.5" y="-289"/>
<text text-anchor="start" x="19" y="-175.8" font-family="Times New Roman,serif" font-size="24.00">User</text>
</g>
<!-- EAID_0E4624DA_6A6B_49e8_BDC5_712D2A2D9D0B -->
<g id="node2" class="node"><title>EAID_0E4624DA_6A6B_49e8_BDC5_712D2A2D9D0B</title>
<image xlink:href="img/boundary3.png" width="115px" height="67px" preserveAspectRatio="xMinYMin meet" x="540.5" y="-253"/>
<text text-anchor="start" x="539" y="-162.8" font-family="Times New Roman,serif" font-size="24.00">File selector</text>
</g>
<!-- EAID_9B02827C_3066_4eb4_A249_7A55B747E674&#45;&gt;EAID_0E4624DA_6A6B_49e8_BDC5_712D2A2D9D0B -->
<g id="edge1" class="edge"><title>EAID_9B02827C_3066_4eb4_A249_7A55B747E674&#45;&gt;EAID_0E4624DA_6A6B_49e8_BDC5_712D2A2D9D0B</title>
<path fill="none" stroke="black" d="M81.0049,-227.293C172.046,-223.36 398.01,-213.597 518.464,-208.393"/>
<polygon fill="black" stroke="black" points="518.882,-211.878 528.722,-207.95 518.58,-204.885 518.882,-211.878"/>
</g>
<!-- EAID_3E30F43E_6982_4a4b_BFE6_C7D2A058FB5D -->
<g id="node3" class="node"><title>EAID_3E30F43E_6982_4a4b_BFE6_C7D2A058FB5D</title>
<image xlink:href="img/boundary3.png" width="115px" height="67px" preserveAspectRatio="xMinYMin meet" x="1464.5" y="-296"/>
<text text-anchor="start" x="1394" y="-205.8" font-family="Times New Roman,serif" font-size="24.00">Compiling success message</text>
</g>
<!-- EAID_9B02827C_3066_4eb4_A249_7A55B747E674&#45;&gt;EAID_3E30F43E_6982_4a4b_BFE6_C7D2A058FB5D -->
<g id="edge2" class="edge"><title>EAID_9B02827C_3066_4eb4_A249_7A55B747E674&#45;&gt;EAID_3E30F43E_6982_4a4b_BFE6_C7D2A058FB5D</title>
<path fill="none" stroke="black" d="M81.0047,-240.924C145.112,-259.188 276.066,-292 389.5,-292 389.5,-292 389.5,-292 870.5,-292 1082.91,-292 1136.45,-291.06 1348,-272 1356.36,-271.247 1364.93,-270.376 1373.57,-269.422"/>
<polygon fill="black" stroke="black" points="1374.2,-272.874 1383.74,-268.266 1373.41,-265.918 1374.2,-272.874"/>
</g>
<!-- EAID_F2374772_912E_40fc_8FA1_FE419EC965E8 -->
<g id="node4" class="node"><title>EAID_F2374772_912E_40fc_8FA1_FE419EC965E8</title>
<image xlink:href="img/boundary3.png" width="115px" height="67px" preserveAspectRatio="xMinYMin meet" x="127.5" y="-192"/>
<text text-anchor="start" x="127.5" y="-101.8" font-family="Times New Roman,serif" font-size="24.00">Load button</text>
</g>
<!-- EAID_9B02827C_3066_4eb4_A249_7A55B747E674&#45;&gt;EAID_F2374772_912E_40fc_8FA1_FE419EC965E8 -->
<g id="edge3" class="edge"><title>EAID_9B02827C_3066_4eb4_A249_7A55B747E674&#45;&gt;EAID_F2374772_912E_40fc_8FA1_FE419EC965E8</title>
<path fill="none" stroke="black" d="M81.0549,-205.323C89.5998,-200.208 98.9062,-194.637 108.311,-189.008"/>
<polygon fill="black" stroke="black" points="110.174,-191.972 116.957,-183.832 106.579,-185.965 110.174,-191.972"/>
</g>
<!-- EAID_97D61E2D_243D_4fca_91FD_3E7925F11841 -->
<g id="node8" class="node"><title>EAID_97D61E2D_243D_4fca_91FD_3E7925F11841</title>
<image xlink:href="img/control1.png" width="106px" height="75px" preserveAspectRatio="xMinYMin meet" x="817" y="-257"/>
<text text-anchor="start" x="713.5" y="-158.8" font-family="Times New Roman,serif" font-size="24.00">Load program to microcontroller</text>
</g>
<!-- EAID_0E4624DA_6A6B_49e8_BDC5_712D2A2D9D0B&#45;&gt;EAID_97D61E2D_243D_4fca_91FD_3E7925F11841 -->
<g id="edge8" class="edge"><title>EAID_0E4624DA_6A6B_49e8_BDC5_712D2A2D9D0B&#45;&gt;EAID_97D61E2D_243D_4fca_91FD_3E7925F11841</title>
<path fill="none" stroke="black" d="M667.006,-205C675.22,-205 683.877,-205 692.798,-205"/>
<polygon fill="black" stroke="black" points="692.973,-208.5 702.973,-205 692.973,-201.5 692.973,-208.5"/>
</g>
<!-- EAID_680487D4_CE76_4e21_854C_319D9D7A48B0 -->
<g id="node9" class="node"><title>EAID_680487D4_CE76_4e21_854C_319D9D7A48B0</title>
<image xlink:href="img/activity_icon.png" width="30px" height="20px" preserveAspectRatio="xMinYMin meet" x="854.5" y="-122"/>
<text text-anchor="start" x="849.5" y="-79.8" font-family="Times New Roman,serif" font-weight="bold" font-size="24.00">File</text>
</g>
<!-- EAID_0E4624DA_6A6B_49e8_BDC5_712D2A2D9D0B&#45;&gt;EAID_680487D4_CE76_4e21_854C_319D9D7A48B0 -->
<g id="edge7" class="edge"><title>EAID_0E4624DA_6A6B_49e8_BDC5_712D2A2D9D0B&#45;&gt;EAID_680487D4_CE76_4e21_854C_319D9D7A48B0</title>
<path fill="none" stroke="black" d="M667.075,-155.833C678.694,-148.817 690.921,-142.223 703,-137 744.309,-119.139 795.02,-108.375 829.339,-102.583"/>
<polygon fill="black" stroke="black" points="830.126,-106.002 839.435,-100.943 829.003,-99.0922 830.126,-106.002"/>
</g>
<!-- EAID_6F4000F2_8BF0_4d09_B794_33607EA968D1 -->
<g id="node5" class="node"><title>EAID_6F4000F2_8BF0_4d09_B794_33607EA968D1</title>
<image xlink:href="img/control1.png" width="106px" height="75px" preserveAspectRatio="xMinYMin meet" x="338" y="-194"/>
<text text-anchor="start" x="298.5" y="-95.8" font-family="Times New Roman,serif" font-size="24.00">display file selector</text>
</g>
<!-- EAID_F2374772_912E_40fc_8FA1_FE419EC965E8&#45;&gt;EAID_6F4000F2_8BF0_4d09_B794_33607EA968D1 -->
<g id="edge10" class="edge"><title>EAID_F2374772_912E_40fc_8FA1_FE419EC965E8&#45;&gt;EAID_6F4000F2_8BF0_4d09_B794_33607EA968D1</title>
<path fill="none" stroke="black" d="M252.015,-143.348C260.288,-143.267 268.918,-143.182 277.644,-143.097"/>
<polygon fill="black" stroke="black" points="277.952,-146.594 287.917,-142.996 277.883,-139.594 277.952,-146.594"/>
</g>
<!-- EAID_6F4000F2_8BF0_4d09_B794_33607EA968D1&#45;&gt;EAID_0E4624DA_6A6B_49e8_BDC5_712D2A2D9D0B -->
<g id="edge9" class="edge"><title>EAID_6F4000F2_8BF0_4d09_B794_33607EA968D1&#45;&gt;EAID_0E4624DA_6A6B_49e8_BDC5_712D2A2D9D0B</title>
<path fill="none" stroke="black" d="M493.046,-173.131C501.862,-175.834 510.69,-178.54 519.271,-181.171"/>
<polygon fill="black" stroke="black" points="518.252,-184.519 528.839,-184.104 520.304,-177.827 518.252,-184.519"/>
</g>
<!-- EAID_59C156EE_E3A1_4461_B55D_98A8099876BC -->
<g id="node6" class="node"><title>EAID_59C156EE_E3A1_4461_B55D_98A8099876BC</title>
<image xlink:href="img/actor1.png" width="82px" height="90px" preserveAspectRatio="xMinYMin meet" x="557" y="-126"/>
<text text-anchor="start" x="553" y="-12.8" font-family="Times New Roman,serif" font-size="24.00">WinAVR</text>
</g>
<!-- EAID_6F4000F2_8BF0_4d09_B794_33607EA968D1&#45;&gt;EAID_59C156EE_E3A1_4461_B55D_98A8099876BC -->
<g id="edge4" class="edge"><title>EAID_6F4000F2_8BF0_4d09_B794_33607EA968D1&#45;&gt;EAID_59C156EE_E3A1_4461_B55D_98A8099876BC</title>
<path fill="none" stroke="black" d="M493.046,-104.445C506.744,-99.3792 520.472,-94.3025 533.253,-89.5755"/>
<polygon fill="black" stroke="black" points="534.662,-92.7863 542.827,-86.0349 532.234,-86.2209 534.662,-92.7863"/>
</g>
<!-- EAID_7515EBA4_1102_4fbe_81FF_34FF0B670DC8 -->
<g id="node7" class="node"><title>EAID_7515EBA4_1102_4fbe_81FF_34FF0B670DC8</title>
<image xlink:href="img/control1.png" width="106px" height="75px" preserveAspectRatio="xMinYMin meet" x="1157" y="-257"/>
<text text-anchor="start" x="1082" y="-158.8" font-family="Times New Roman,serif" font-size="24.00">Display compiling message</text>
</g>
<!-- EAID_7515EBA4_1102_4fbe_81FF_34FF0B670DC8&#45;&gt;EAID_3E30F43E_6982_4a4b_BFE6_C7D2A058FB5D -->
<g id="edge5" class="edge"><title>EAID_7515EBA4_1102_4fbe_81FF_34FF0B670DC8&#45;&gt;EAID_3E30F43E_6982_4a4b_BFE6_C7D2A058FB5D</title>
<path fill="none" stroke="black" d="M1348.32,-224.048C1356.82,-225.227 1365.39,-226.416 1373.93,-227.6"/>
<polygon fill="black" stroke="black" points="1373.54,-231.08 1383.93,-228.987 1374.5,-224.146 1373.54,-231.08"/>
</g>
<!-- EAID_97D61E2D_243D_4fca_91FD_3E7925F11841&#45;&gt;EAID_7515EBA4_1102_4fbe_81FF_34FF0B670DC8 -->
<g id="edge6" class="edge"><title>EAID_97D61E2D_243D_4fca_91FD_3E7925F11841&#45;&gt;EAID_7515EBA4_1102_4fbe_81FF_34FF0B670DC8</title>
<path fill="none" stroke="black" d="M1036.28,-205C1044.73,-205 1053.2,-205 1061.6,-205"/>
<polygon fill="black" stroke="black" points="1061.79,-208.5 1071.79,-205 1061.79,-201.5 1061.79,-208.5"/>
</g>
</g>
</svg>
