<?xml version="1.0" encoding="UTF-8" standalone="no"?>
<!DOCTYPE svg PUBLIC "-//W3C//DTD SVG 1.1//EN"
 "http://www.w3.org/Graphics/SVG/1.1/DTD/svg11.dtd">
<!-- Generated by graphviz version 2.40.1 (20161225.0304)
 -->
<!-- Title: class_diagram Pages: 1 -->
<svg width="3281pt" height="73pt"
 viewBox="0.00 0.00 3281.36 73.00" xmlns="http://www.w3.org/2000/svg" xmlns:xlink="http://www.w3.org/1999/xlink">
<g id="graph0" class="graph" transform="scale(1 1) rotate(0) translate(4 69)">
<title>class_diagram</title>
<polygon fill="#ffffff" stroke="transparent" points="-4,4 -4,-69 3277.3594,-69 3277.3594,4 -4,4"/>
<!-- ca4119acd_ddb0_4824_b963_d071dcff2ae1 -->
<g id="ca4119acd_ddb0_4824_b963_d071dcff2ae1" class="node">
<title>ca4119acd_ddb0_4824_b963_d071dcff2ae1</title>
<polygon fill="none" stroke="#000000" points="0,-12.5 0,-52.5 116.7188,-52.5 116.7188,-12.5 0,-12.5"/>
<text text-anchor="middle" x="58.3594" y="-42.1" font-family="Times,serif" font-size="8.00" fill="#000000">AndroidProcesses</text>
<polyline fill="none" stroke="#000000" points="0,-36.5 116.7188,-36.5 "/>
<text text-anchor="start" x="8" y="-26.1" font-family="Times,serif" font-size="8.00" fill="#000000">+ log()</text>
<text text-anchor="start" x="8" y="-18.1" font-family="Times,serif" font-size="8.00" fill="#000000">+ getRunningAppProcessInfo()</text>
</g>
<!-- c5944e5f3_ac15_4a1b_abe6_3c0704971bed -->
<g id="c5944e5f3_ac15_4a1b_abe6_3c0704971bed" class="node">
<title>c5944e5f3_ac15_4a1b_abe6_3c0704971bed</title>
<polygon fill="none" stroke="#000000" points="134.6973,-14.5 134.6973,-50.5 208.0215,-50.5 208.0215,-14.5 134.6973,-14.5"/>
<text text-anchor="middle" x="171.3594" y="-30.1" font-family="Times,serif" font-size="8.00" fill="#000000">ActivityProcesses</text>
</g>
<!-- c75f1af42_2beb_4ef1_8d6b_874d9d0acdb8 -->
<g id="c75f1af42_2beb_4ef1_8d6b_874d9d0acdb8" class="node">
<title>c75f1af42_2beb_4ef1_8d6b_874d9d0acdb8</title>
<polygon fill="none" stroke="#000000" points="225.8105,-14.5 225.8105,-50.5 292.9082,-50.5 292.9082,-14.5 225.8105,-14.5"/>
<text text-anchor="middle" x="259.3594" y="-30.1" font-family="Times,serif" font-size="8.00" fill="#000000">ContentHandler</text>
</g>
<!-- c0ba66d2e_447a_4750_8275_56fc6b548b4f -->
<g id="c0ba66d2e_447a_4750_8275_56fc6b548b4f" class="node">
<title>c0ba66d2e_447a_4750_8275_56fc6b548b4f</title>
<polygon fill="none" stroke="#000000" points="310.918,-14.5 310.918,-50.5 391.8008,-50.5 391.8008,-14.5 310.918,-14.5"/>
<text text-anchor="middle" x="351.3594" y="-39.6" font-family="Times,serif" font-size="8.00" fill="#000000">AndroidAppProcess</text>
<polyline fill="none" stroke="#000000" points="310.918,-33.5 391.8008,-33.5 "/>
<text text-anchor="start" x="318.918" y="-22.6" font-family="Times,serif" font-size="8.00" fill="#000000">&#45; uid:int</text>
<polyline fill="none" stroke="#000000" points="310.918,-16.5 391.8008,-16.5 "/>
</g>
<!-- ccb479992_cf7d_494a_90c7_1cae8692419a -->
<g id="ccb479992_cf7d_494a_90c7_1cae8692419a" class="node">
<title>ccb479992_cf7d_494a_90c7_1cae8692419a</title>
<polygon fill="none" stroke="#000000" points="410.2559,-14.5 410.2559,-50.5 468.4629,-50.5 468.4629,-14.5 410.2559,-14.5"/>
<text text-anchor="middle" x="439.3594" y="-30.1" font-family="Times,serif" font-size="8.00" fill="#000000">DTDHandler</text>
</g>
<!-- c2ad35fab_72fb_48f5_9c6e_5603a7704adc -->
<g id="c2ad35fab_72fb_48f5_9c6e_5603a7704adc" class="node">
<title>c2ad35fab_72fb_48f5_9c6e_5603a7704adc</title>
<polygon fill="none" stroke="#000000" points="486.3359,-14.5 486.3359,-50.5 642.3828,-50.5 642.3828,-14.5 486.3359,-14.5"/>
<text text-anchor="middle" x="564.3594" y="-39.6" font-family="Times,serif" font-size="8.00" fill="#000000">ControlGroup$1</text>
<polyline fill="none" stroke="#000000" points="486.3359,-33.5 642.3828,-33.5 "/>
<text text-anchor="start" x="494.3359" y="-22.6" font-family="Times,serif" font-size="8.00" fill="#000000">&#45; CREATOR:android.os.Parcelable$Creator</text>
<polyline fill="none" stroke="#000000" points="486.3359,-16.5 642.3828,-16.5 "/>
</g>
<!-- c749e0392_b943_4563_b4bd_e6a21d4ea79b -->
<g id="c749e0392_b943_4563_b4bd_e6a21d4ea79b" class="node">
<title>c749e0392_b943_4563_b4bd_e6a21d4ea79b</title>
<polygon fill="none" stroke="#000000" points="660.332,-12.5 660.332,-52.5 718.3867,-52.5 718.3867,-12.5 660.332,-12.5"/>
<text text-anchor="middle" x="689.3594" y="-42.1" font-family="Times,serif" font-size="8.00" fill="#000000">Cgroup$1</text>
<polyline fill="none" stroke="#000000" points="660.332,-36.5 718.3867,-36.5 "/>
<text text-anchor="start" x="668.332" y="-26.1" font-family="Times,serif" font-size="8.00" fill="#000000">+ getGroup()</text>
<text text-anchor="start" x="668.332" y="-18.1" font-family="Times,serif" font-size="8.00" fill="#000000">+ get()</text>
</g>
<!-- c750eebb3_4ed3_4e07_8004_cdfd27668b7e -->
<g id="c750eebb3_4ed3_4e07_8004_cdfd27668b7e" class="node">
<title>c750eebb3_4ed3_4e07_8004_cdfd27668b7e</title>
<polygon fill="none" stroke="#000000" points="736.3594,-14.5 736.3594,-50.5 790.3594,-50.5 790.3594,-14.5 736.3594,-14.5"/>
<text text-anchor="middle" x="763.082" y="-35.1" font-family="Times,serif" font-size="8.00" fill="#000000">Stat</text>
<polyline fill="none" stroke="#000000" points="736.3594,-24.5 789.8047,-24.5 "/>
</g>
<!-- caf1e006a_456a_4ead_99ab_2e866de35e73 -->
<g id="caf1e006a_456a_4ead_99ab_2e866de35e73" class="node">
<title>caf1e006a_456a_4ead_99ab_2e866de35e73</title>
<polygon fill="none" stroke="#000000" points="808.3594,-14.5 808.3594,-50.5 862.3594,-50.5 862.3594,-14.5 808.3594,-14.5"/>
<text text-anchor="middle" x="835.1387" y="-35.1" font-family="Times,serif" font-size="8.00" fill="#000000">Status$1</text>
<polyline fill="none" stroke="#000000" points="808.3594,-24.5 861.918,-24.5 "/>
</g>
<!-- ca1e5bac6_c0cf_4cff_ac26_b686776d20af -->
<g id="ca1e5bac6_c0cf_4cff_ac26_b686776d20af" class="node">
<title>ca1e5bac6_c0cf_4cff_ac26_b686776d20af</title>
<polygon fill="none" stroke="#000000" points="880.3594,-14.5 880.3594,-50.5 934.3594,-50.5 934.3594,-14.5 880.3594,-14.5"/>
<text text-anchor="middle" x="906.9141" y="-35.1" font-family="Times,serif" font-size="8.00" fill="#000000">ProcFile</text>
<polyline fill="none" stroke="#000000" points="880.3594,-24.5 933.4688,-24.5 "/>
</g>
<!-- c8ea5493f_336a_4bfe_806b_b0d96bdf830b -->
<g id="c8ea5493f_336a_4bfe_806b_b0d96bdf830b" class="node">
<title>c8ea5493f_336a_4bfe_806b_b0d96bdf830b</title>
<polygon fill="none" stroke="#000000" points="951.9258,-.5 951.9258,-64.5 1042.793,-64.5 1042.793,-.5 951.9258,-.5"/>
<text text-anchor="middle" x="997.3594" y="-54.1" font-family="Times,serif" font-size="8.00" fill="#000000">AndroidProcess</text>
<polyline fill="none" stroke="#000000" points="951.9258,-48.5 1042.793,-48.5 "/>
<text text-anchor="start" x="959.9258" y="-38.1" font-family="Times,serif" font-size="8.00" fill="#000000">&#45; name:java.lang.String</text>
<polyline fill="none" stroke="#000000" points="951.9258,-32.5 1042.793,-32.5 "/>
<text text-anchor="start" x="959.9258" y="-22.1" font-family="Times,serif" font-size="8.00" fill="#000000">+ status()</text>
<text text-anchor="start" x="959.9258" y="-14.1" font-family="Times,serif" font-size="8.00" fill="#000000">+ cgroup()</text>
<text text-anchor="start" x="959.9258" y="-6.1" font-family="Times,serif" font-size="8.00" fill="#000000">+ stat()</text>
</g>
<!-- c0280c3c0_b4f5_4461_949a_77c2bfdd39de -->
<g id="c0280c3c0_b4f5_4461_949a_77c2bfdd39de" class="node">
<title>c0280c3c0_b4f5_4461_949a_77c2bfdd39de</title>
<polygon fill="none" stroke="#000000" points="1061.2598,-14.5 1061.2598,-50.5 1175.459,-50.5 1175.459,-14.5 1061.2598,-14.5"/>
<text text-anchor="middle" x="1118.3594" y="-30.1" font-family="Times,serif" font-size="8.00" fill="#000000">SAXNotRecognizedException</text>
</g>
<!-- c7747b11c_c680_4c4c_9518_481b6d2771f3 -->
<g id="c7747b11c_c680_4c4c_9518_481b6d2771f3" class="node">
<title>c7747b11c_c680_4c4c_9518_481b6d2771f3</title>
<polygon fill="none" stroke="#000000" points="1193.0371,-14.5 1193.0371,-50.5 1251.6816,-50.5 1251.6816,-14.5 1193.0371,-14.5"/>
<text text-anchor="middle" x="1222.3594" y="-30.1" font-family="Times,serif" font-size="8.00" fill="#000000">ErrorHandler</text>
</g>
<!-- cdf62e997_5049_4fd2_8b8c_17eb871f5621 -->
<g id="cdf62e997_5049_4fd2_8b8c_17eb871f5621" class="node">
<title>cdf62e997_5049_4fd2_8b8c_17eb871f5621</title>
<polygon fill="none" stroke="#000000" points="1269.3594,-14.5 1269.3594,-50.5 1323.3594,-50.5 1323.3594,-14.5 1269.3594,-14.5"/>
<text text-anchor="middle" x="1296.2969" y="-30.1" font-family="Times,serif" font-size="8.00" fill="#000000">Locator</text>
</g>
<!-- c5eeeae63_6163_4b88_ac56_fda37f78a108 -->
<g id="c5eeeae63_6163_4b88_ac56_fda37f78a108" class="node">
<title>c5eeeae63_6163_4b88_ac56_fda37f78a108</title>
<polygon fill="none" stroke="#000000" points="1341.0391,-14.5 1341.0391,-50.5 1411.6797,-50.5 1411.6797,-14.5 1341.0391,-14.5"/>
<text text-anchor="middle" x="1376.3594" y="-30.1" font-family="Times,serif" font-size="8.00" fill="#000000">ServiceReader$4</text>
</g>
<!-- c4ef72405_9ab5_43b0_9770_3212638c63e1 -->
<g id="c4ef72405_9ab5_43b0_9770_3212638c63e1" class="node">
<title>c4ef72405_9ab5_43b0_9770_3212638c63e1</title>
<polygon fill="none" stroke="#000000" points="1429.9238,-14.5 1429.9238,-50.5 1498.7949,-50.5 1498.7949,-14.5 1429.9238,-14.5"/>
<text text-anchor="middle" x="1464.3594" y="-30.1" font-family="Times,serif" font-size="8.00" fill="#000000">ProcessManager</text>
</g>
<!-- c99e6f709_3bda_4023_bc90_3ea624bc377f -->
<g id="c99e6f709_3bda_4023_bc90_3ea624bc377f" class="node">
<title>c99e6f709_3bda_4023_bc90_3ea624bc377f</title>
<polygon fill="none" stroke="#000000" points="1516.3594,-14.5 1516.3594,-50.5 1570.3594,-50.5 1570.3594,-14.5 1516.3594,-14.5"/>
<text text-anchor="middle" x="1543.0273" y="-30.1" font-family="Times,serif" font-size="8.00" fill="#000000">C</text>
</g>
<!-- c036a2e46_d2db_46e9_a9f3_08466734797d -->
<g id="c036a2e46_d2db_46e9_a9f3_08466734797d" class="node">
<title>c036a2e46_d2db_46e9_a9f3_08466734797d</title>
<polygon fill="none" stroke="#000000" points="1588.3594,-14.5 1588.3594,-50.5 1642.3594,-50.5 1642.3594,-14.5 1588.3594,-14.5"/>
<text text-anchor="middle" x="1615.1934" y="-30.1" font-family="Times,serif" font-size="8.00" fill="#000000">Statm</text>
</g>
<!-- c14f338bc_6695_4ef1_9ee9_1014546dbc2d -->
<g id="c14f338bc_6695_4ef1_9ee9_1014546dbc2d" class="node">
<title>c14f338bc_6695_4ef1_9ee9_1014546dbc2d</title>
<polygon fill="none" stroke="#000000" points="1660.6973,-14.5 1660.6973,-50.5 1770.0215,-50.5 1770.0215,-14.5 1660.6973,-14.5"/>
<text text-anchor="middle" x="1715.3594" y="-30.1" font-family="Times,serif" font-size="8.00" fill="#000000">SAXNotSupportedException</text>
</g>
<!-- ca1e199d2_24bb_46d1_9955_26f52ee167bb -->
<g id="ca1e199d2_24bb_46d1_9955_26f52ee167bb" class="node">
<title>ca1e199d2_24bb_46d1_9955_26f52ee167bb</title>
<polygon fill="none" stroke="#000000" points="1788.1445,-14.5 1788.1445,-50.5 1844.5742,-50.5 1844.5742,-14.5 1788.1445,-14.5"/>
<text text-anchor="middle" x="1816.3594" y="-30.1" font-family="Times,serif" font-size="8.00" fill="#000000">XMLReader</text>
</g>
<!-- c9cc15bdc_ccec_401c_bbf1_a65c7307aece -->
<g id="c9cc15bdc_ccec_401c_bbf1_a65c7307aece" class="node">
<title>c9cc15bdc_ccec_401c_bbf1_a65c7307aece</title>
<polygon fill="none" stroke="#000000" points="1863.0508,-14.5 1863.0508,-50.5 1921.668,-50.5 1921.668,-14.5 1863.0508,-14.5"/>
<text text-anchor="middle" x="1892.3594" y="-30.1" font-family="Times,serif" font-size="8.00" fill="#000000">ViewGraphic</text>
</g>
<!-- c1fc8a73c_4da8_4565_8b3d_bf101f5c974e -->
<g id="c1fc8a73c_4da8_4565_8b3d_bf101f5c974e" class="node">
<title>c1fc8a73c_4da8_4565_8b3d_bf101f5c974e</title>
<polygon fill="none" stroke="#000000" points="1939.8047,-14.5 1939.8047,-50.5 2002.9141,-50.5 2002.9141,-14.5 1939.8047,-14.5"/>
<text text-anchor="middle" x="1971.3594" y="-30.1" font-family="Times,serif" font-size="8.00" fill="#000000">XmlPullParser</text>
</g>
<!-- c3a24a347_5475_4791_b5e2_aa2782191697 -->
<g id="c3a24a347_5475_4791_b5e2_aa2782191697" class="node">
<title>c3a24a347_5475_4791_b5e2_aa2782191697</title>
<polygon fill="none" stroke="#000000" points="2020.4766,-14.5 2020.4766,-50.5 2102.2422,-50.5 2102.2422,-14.5 2020.4766,-14.5"/>
<text text-anchor="middle" x="2061.3594" y="-30.1" font-family="Times,serif" font-size="8.00" fill="#000000">SAXParseException</text>
</g>
<!-- ccf407314_901d_4f4b_bcec_ead109d800ec -->
<g id="ccf407314_901d_4f4b_bcec_ead109d800ec" class="node">
<title>ccf407314_901d_4f4b_bcec_ead109d800ec</title>
<polygon fill="none" stroke="#000000" points="2120.5762,-14.5 2120.5762,-50.5 2176.1426,-50.5 2176.1426,-14.5 2120.5762,-14.5"/>
<text text-anchor="middle" x="2148.3594" y="-30.1" font-family="Times,serif" font-size="8.00" fill="#000000">BuildConfig</text>
</g>
<!-- c2821211f_d3c3_4009_8ec2_de31495035cf -->
<g id="c2821211f_d3c3_4009_8ec2_de31495035cf" class="node">
<title>c2821211f_d3c3_4009_8ec2_de31495035cf</title>
<polygon fill="none" stroke="#000000" points="2193.8066,-14.5 2193.8066,-50.5 2264.9121,-50.5 2264.9121,-14.5 2193.8066,-14.5"/>
<text text-anchor="middle" x="2229.3594" y="-30.1" font-family="Times,serif" font-size="8.00" fill="#000000">ActivityMain$19</text>
</g>
<!-- cece57d49_2761_4c44_8a16_61949503b717 -->
<g id="cece57d49_2761_4c44_8a16_61949503b717" class="node">
<title>cece57d49_2761_4c44_8a16_61949503b717</title>
<polygon fill="none" stroke="#000000" points="2283.3633,-14.5 2283.3633,-50.5 2347.3555,-50.5 2347.3555,-14.5 2283.3633,-14.5"/>
<text text-anchor="middle" x="2315.3594" y="-30.1" font-family="Times,serif" font-size="8.00" fill="#000000">EntityResolver</text>
</g>
<!-- c6f533aa3_c54d_4c51_bdb5_3a983991254c -->
<g id="c6f533aa3_c54d_4c51_bdb5_3a983991254c" class="node">
<title>c6f533aa3_c54d_4c51_bdb5_3a983991254c</title>
<polygon fill="none" stroke="#000000" points="2365.3594,-14.5 2365.3594,-50.5 2419.3594,-50.5 2419.3594,-14.5 2365.3594,-14.5"/>
<text text-anchor="middle" x="2392.0273" y="-30.1" font-family="Times,serif" font-size="8.00" fill="#000000">R</text>
</g>
<!-- ca6db3fa8_f28a_4881_a2f3_109677f2b57c -->
<g id="ca6db3fa8_f28a_4881_a2f3_109677f2b57c" class="node">
<title>ca6db3fa8_f28a_4881_a2f3_109677f2b57c</title>
<polygon fill="none" stroke="#000000" points="2437.1406,-14.5 2437.1406,-50.5 2501.5781,-50.5 2501.5781,-14.5 2437.1406,-14.5"/>
<text text-anchor="middle" x="2469.3594" y="-30.1" font-family="Times,serif" font-size="8.00" fill="#000000">SAXException</text>
</g>
<!-- cdfb0652e_1048_47bc_b0c4_8007a8eb24e7 -->
<g id="cdfb0652e_1048_47bc_b0c4_8007a8eb24e7" class="node">
<title>cdfb0652e_1048_47bc_b0c4_8007a8eb24e7</title>
<polygon fill="none" stroke="#000000" points="2519.8086,-14.5 2519.8086,-50.5 2574.9102,-50.5 2574.9102,-14.5 2519.8086,-14.5"/>
<text text-anchor="middle" x="2547.3594" y="-30.1" font-family="Times,serif" font-size="8.00" fill="#000000">InputSource</text>
</g>
<!-- cf3a45164_6ee3_40bb_99ff_5504913af6db -->
<g id="cf3a45164_6ee3_40bb_99ff_5504913af6db" class="node">
<title>cf3a45164_6ee3_40bb_99ff_5504913af6db</title>
<polygon fill="none" stroke="#000000" points="2593.3594,-14.5 2593.3594,-50.5 2647.3594,-50.5 2647.3594,-14.5 2593.3594,-14.5"/>
<text text-anchor="middle" x="2620.0254" y="-30.1" font-family="Times,serif" font-size="8.00" fill="#000000">R$layout</text>
</g>
<!-- c5be69394_a8b6_49c5_9590_ef7afe269eb9 -->
<g id="c5be69394_a8b6_49c5_9590_ef7afe269eb9" class="node">
<title>c5be69394_a8b6_49c5_9590_ef7afe269eb9</title>
<polygon fill="none" stroke="#000000" points="2665.5879,-14.5 2665.5879,-50.5 2761.1309,-50.5 2761.1309,-14.5 2665.5879,-14.5"/>
<text text-anchor="middle" x="2713.3594" y="-30.1" font-family="Times,serif" font-size="8.00" fill="#000000">XmlPullParserException</text>
</g>
<!-- c9c53de98_a8ba_4be2_b132_739e48d93cf9 -->
<g id="c9c53de98_a8ba_4be2_b132_739e48d93cf9" class="node">
<title>c9c53de98_a8ba_4be2_b132_739e48d93cf9</title>
<polygon fill="none" stroke="#000000" points="2778.7012,-14.5 2778.7012,-50.5 2876.0176,-50.5 2876.0176,-14.5 2778.7012,-14.5"/>
<text text-anchor="middle" x="2827.3594" y="-30.1" font-family="Times,serif" font-size="8.00" fill="#000000">LinearLayoutCustomised</text>
</g>
<!-- ca55855cf_ce20_4177_a35e_cd91c98e7adf -->
<g id="ca55855cf_ce20_4177_a35e_cd91c98e7adf" class="node">
<title>ca55855cf_ce20_4177_a35e_cd91c98e7adf</title>
<polygon fill="none" stroke="#000000" points="2894.4746,-14.5 2894.4746,-50.5 2960.2441,-50.5 2960.2441,-14.5 2894.4746,-14.5"/>
<text text-anchor="middle" x="2927.3594" y="-30.1" font-family="Times,serif" font-size="8.00" fill="#000000">ActivityHelp$1</text>
</g>
<!-- ca98223ec_ce0d_41e0_b280_4169479c4381 -->
<g id="ca98223ec_ce0d_41e0_b280_4169479c4381" class="node">
<title>ca98223ec_ce0d_41e0_b280_4169479c4381</title>
<polygon fill="none" stroke="#000000" points="2978.25,-14.5 2978.25,-50.5 3048.4688,-50.5 3048.4688,-14.5 2978.25,-14.5"/>
<text text-anchor="middle" x="3013.3594" y="-30.1" font-family="Times,serif" font-size="8.00" fill="#000000">ActivityAbout$2</text>
</g>
<!-- c68529eb5_5fad_4f0b_94b5_2055ca41e08c -->
<g id="c68529eb5_5fad_4f0b_94b5_2055ca41e08c" class="node">
<title>c68529eb5_5fad_4f0b_94b5_2055ca41e08c</title>
<polygon fill="none" stroke="#000000" points="3066.9238,-14.5 3066.9238,-50.5 3127.7949,-50.5 3127.7949,-14.5 3066.9238,-14.5"/>
<text text-anchor="middle" x="3097.3594" y="-30.1" font-family="Times,serif" font-size="8.00" fill="#000000">XmlSerializer</text>
</g>
<!-- c5c0ce7aa_e28a_4016_aa5d_1d6a2e5205aa -->
<g id="c5c0ce7aa_e28a_4016_aa5d_1d6a2e5205aa" class="node">
<title>c5c0ce7aa_e28a_4016_aa5d_1d6a2e5205aa</title>
<polygon fill="none" stroke="#000000" points="3145.5762,-14.5 3145.5762,-50.5 3201.1426,-50.5 3201.1426,-14.5 3145.5762,-14.5"/>
<text text-anchor="middle" x="3173.3594" y="-30.1" font-family="Times,serif" font-size="8.00" fill="#000000">BuildConfig</text>
</g>
<!-- c568c1ecc_ed8e_477e_9a87_d343e23a531d -->
<g id="c568c1ecc_ed8e_477e_9a87_d343e23a531d" class="node">
<title>c568c1ecc_ed8e_477e_9a87_d343e23a531d</title>
<polygon fill="none" stroke="#000000" points="3219.3594,-14.5 3219.3594,-50.5 3273.3594,-50.5 3273.3594,-14.5 3219.3594,-14.5"/>
<text text-anchor="middle" x="3246.3574" y="-30.1" font-family="Times,serif" font-size="8.00" fill="#000000">Attributes</text>
</g>
</g>
</svg>
