<?xml version="1.0" encoding="UTF-8" standalone="no"?>
<!DOCTYPE svg PUBLIC "-//W3C//DTD SVG 1.1//EN"
 "http://www.w3.org/Graphics/SVG/1.1/DTD/svg11.dtd">
<!-- Generated by graphviz version 2.38.0 (20140413.2041)
 -->
<!-- Title: g Pages: 1 -->
<svg width="2228pt" height="326pt"
 viewBox="0.00 0.00 2228.00 326.00" xmlns="http://www.w3.org/2000/svg" xmlns:xlink="http://www.w3.org/1999/xlink">
<g id="graph0" class="graph" transform="scale(1 1) rotate(0) translate(4 322)">
<title>g</title>
<polygon fill="white" stroke="none" points="-4,4 -4,-322 2224,-322 2224,4 -4,4"/>
<!-- EAID_8244BD9F_2A7D_447b_BEEC_359F96390991 -->
<g id="node1" class="node"><title>EAID_8244BD9F_2A7D_447b_BEEC_359F96390991</title>
<image xlink:href="img/boundary3.png" width="115px" height="67px" preserveAspectRatio="xMinYMin meet" x="711.5" y="-207.5"/>
<text text-anchor="start" x="583" y="-117.3" font-family="Times New Roman,serif" font-size="24.00">Dashboard for adding files and pictures</text>
</g>
<!-- EAID_85AC0EDD_D484_4bd7_924B_A66E36E0BEDE -->
<g id="node2" class="node"><title>EAID_85AC0EDD_D484_4bd7_924B_A66E36E0BEDE</title>
<image xlink:href="img/control1.png" width="106px" height="75px" preserveAspectRatio="xMinYMin meet" x="1028" y="-211.5"/>
<text text-anchor="start" x="1011" y="-113.3" font-family="Times New Roman,serif" font-size="24.00">public pictures</text>
</g>
<!-- EAID_8244BD9F_2A7D_447b_BEEC_359F96390991&#45;&gt;EAID_85AC0EDD_D484_4bd7_924B_A66E36E0BEDE -->
<g id="edge1" class="edge"><title>EAID_8244BD9F_2A7D_447b_BEEC_359F96390991&#45;&gt;EAID_85AC0EDD_D484_4bd7_924B_A66E36E0BEDE</title>
<path fill="none" stroke="black" d="M965.008,-159.5C973.706,-159.5 982.223,-159.5 990.44,-159.5"/>
<polygon fill="black" stroke="black" points="990.678,-163 1000.68,-159.5 990.678,-156 990.678,-163"/>
</g>
<!-- EAID_627711E6_E224_46ca_A02A_80903A010EB1 -->
<g id="node5" class="node"><title>EAID_627711E6_E224_46ca_A02A_80903A010EB1</title>
<image xlink:href="img/control1.png" width="106px" height="75px" preserveAspectRatio="xMinYMin meet" x="1452" y="-211.5"/>
<text text-anchor="start" x="1207.5" y="-113.3" font-family="Times New Roman,serif" font-size="24.00">read neighborhood and add new pictures to neiborhood section</text>
</g>
<!-- EAID_85AC0EDD_D484_4bd7_924B_A66E36E0BEDE&#45;&gt;EAID_627711E6_E224_46ca_A02A_80903A010EB1 -->
<g id="edge11" class="edge"><title>EAID_85AC0EDD_D484_4bd7_924B_A66E36E0BEDE&#45;&gt;EAID_627711E6_E224_46ca_A02A_80903A010EB1</title>
<path fill="none" stroke="black" d="M1161.28,-159.5C1169.34,-159.5 1177.82,-159.5 1186.64,-159.5"/>
<polygon fill="black" stroke="black" points="1186.74,-163 1196.74,-159.5 1186.74,-156 1186.74,-163"/>
</g>
<!-- EAID_4172C017_2E3E_4d09_A6C5_E7EDDC7D26E9 -->
<g id="node3" class="node"><title>EAID_4172C017_2E3E_4d09_A6C5_E7EDDC7D26E9</title>
<image xlink:href="img/actor1.png" width="67px" height="90px" preserveAspectRatio="xMinYMin meet" x="10.5" y="-192.5"/>
<text text-anchor="start" x="10.5" y="-79.3" font-family="Times New Roman,serif" font-size="24.00">Visitor</text>
</g>
<!-- EAID_4172C017_2E3E_4d09_A6C5_E7EDDC7D26E9&#45;&gt;EAID_8244BD9F_2A7D_447b_BEEC_359F96390991 -->
<g id="edge2" class="edge"><title>EAID_4172C017_2E3E_4d09_A6C5_E7EDDC7D26E9&#45;&gt;EAID_8244BD9F_2A7D_447b_BEEC_359F96390991</title>
<path fill="none" stroke="black" d="M87.2893,-118.964C98.7696,-115.909 111.258,-113.098 123,-111.5 305.321,-86.6832 354.042,-89.926 537,-109.5 545.431,-110.402 554.006,-111.484 562.647,-112.712"/>
<polygon fill="black" stroke="black" points="562.411,-116.215 572.816,-114.217 563.436,-109.29 562.411,-116.215"/>
</g>
<!-- EAID_BBFCC100_CC49_4548_B35E_BAC976C0EB58 -->
<g id="node6" class="node"><title>EAID_BBFCC100_CC49_4548_B35E_BAC976C0EB58</title>
<image xlink:href="img/boundary3.png" width="115px" height="67px" preserveAspectRatio="xMinYMin meet" x="1976.5" y="-311.5"/>
<text text-anchor="start" x="1858" y="-221.3" font-family="Times New Roman,serif" font-size="24.00">Dashboard for neighborhood display.</text>
</g>
<!-- EAID_4172C017_2E3E_4d09_A6C5_E7EDDC7D26E9&#45;&gt;EAID_BBFCC100_CC49_4548_B35E_BAC976C0EB58 -->
<g id="edge5" class="edge"><title>EAID_4172C017_2E3E_4d09_A6C5_E7EDDC7D26E9&#45;&gt;EAID_BBFCC100_CC49_4548_B35E_BAC976C0EB58</title>
<path fill="none" stroke="black" d="M80.0182,-198.532C91.624,-214.168 105.992,-229.034 123,-238.5 245.746,-306.814 297.524,-264.5 438,-264.5 438,-264.5 438,-264.5 1082,-264.5 1343.35,-264.5 1645.1,-264.118 1837.36,-263.826"/>
<polygon fill="black" stroke="black" points="1837.58,-267.326 1847.57,-263.81 1837.57,-260.326 1837.58,-267.326"/>
</g>
<!-- EAID_643B475B_2BDD_4bd2_AE34_987F7CC2ABB7 -->
<g id="node7" class="node"><title>EAID_643B475B_2BDD_4bd2_AE34_987F7CC2ABB7</title>
<image xlink:href="img/boundary3.png" width="115px" height="67px" preserveAspectRatio="xMinYMin meet" x="156.5" y="-223.5"/>
<text text-anchor="start" x="133" y="-133.3" font-family="Times New Roman,serif" font-size="24.00">New Post Button</text>
</g>
<!-- EAID_4172C017_2E3E_4d09_A6C5_E7EDDC7D26E9&#45;&gt;EAID_643B475B_2BDD_4bd2_AE34_987F7CC2ABB7 -->
<g id="edge9" class="edge"><title>EAID_4172C017_2E3E_4d09_A6C5_E7EDDC7D26E9&#45;&gt;EAID_643B475B_2BDD_4bd2_AE34_987F7CC2ABB7</title>
<path fill="none" stroke="black" d="M87.0197,-143.351C95.1101,-145.415 103.887,-147.655 112.916,-149.959"/>
<polygon fill="black" stroke="black" points="112.237,-153.398 122.792,-152.48 113.968,-146.615 112.237,-153.398"/>
</g>
<!-- EAID_41D34773_FFDA_4770_ABC4_AA6A34675E0B -->
<g id="node8" class="node"><title>EAID_41D34773_FFDA_4770_ABC4_AA6A34675E0B</title>
<image xlink:href="img/boundary3.png" width="115px" height="67px" preserveAspectRatio="xMinYMin meet" x="1977" y="-102.5"/>
<text text-anchor="start" x="1918" y="-12.3" font-family="Times New Roman,serif" font-size="24.00">Error in reading pictures</text>
</g>
<!-- EAID_4172C017_2E3E_4d09_A6C5_E7EDDC7D26E9&#45;&gt;EAID_41D34773_FFDA_4770_ABC4_AA6A34675E0B -->
<g id="edge8" class="edge"><title>EAID_4172C017_2E3E_4d09_A6C5_E7EDDC7D26E9&#45;&gt;EAID_41D34773_FFDA_4770_ABC4_AA6A34675E0B</title>
<path fill="none" stroke="black" d="M87.2459,-105.953C98.5153,-99.994 110.913,-94.3141 123,-90.5 257.478,-48.0645 296.985,-52.5 438,-52.5 438,-52.5 438,-52.5 1082,-52.5 1372.4,-52.5 1712.68,-53.4441 1897.21,-54.035"/>
<polygon fill="black" stroke="black" points="1897.23,-57.535 1907.24,-54.0673 1897.25,-50.535 1897.23,-57.535"/>
</g>
<!-- EAID_55B53CB3_DB32_4c15_8994_4526FDBED78C -->
<g id="node4" class="node"><title>EAID_55B53CB3_DB32_4c15_8994_4526FDBED78C</title>
<image xlink:href="img/control1.png" width="106px" height="75px" preserveAspectRatio="xMinYMin meet" x="386" y="-229.5"/>
<text text-anchor="start" x="351" y="-131.3" font-family="Times New Roman,serif" font-size="24.00">Display dashboard</text>
</g>
<!-- EAID_55B53CB3_DB32_4c15_8994_4526FDBED78C&#45;&gt;EAID_8244BD9F_2A7D_447b_BEEC_359F96390991 -->
<g id="edge3" class="edge"><title>EAID_55B53CB3_DB32_4c15_8994_4526FDBED78C&#45;&gt;EAID_8244BD9F_2A7D_447b_BEEC_359F96390991</title>
<path fill="none" stroke="black" d="M537.08,-172.172C545.452,-171.713 554.105,-171.238 562.928,-170.754"/>
<polygon fill="black" stroke="black" points="563.162,-174.246 572.955,-170.204 562.778,-167.257 563.162,-174.246"/>
</g>
<!-- EAID_627711E6_E224_46ca_A02A_80903A010EB1&#45;&gt;EAID_BBFCC100_CC49_4548_B35E_BAC976C0EB58 -->
<g id="edge4" class="edge"><title>EAID_627711E6_E224_46ca_A02A_80903A010EB1&#45;&gt;EAID_BBFCC100_CC49_4548_B35E_BAC976C0EB58</title>
<path fill="none" stroke="black" d="M1802.4,-218.035C1814.27,-220.375 1826.04,-222.697 1837.63,-224.982"/>
<polygon fill="black" stroke="black" points="1837.28,-228.479 1847.76,-226.98 1838.63,-221.611 1837.28,-228.479"/>
</g>
<!-- EAID_627711E6_E224_46ca_A02A_80903A010EB1&#45;&gt;EAID_41D34773_FFDA_4770_ABC4_AA6A34675E0B -->
<g id="edge7" class="edge"><title>EAID_627711E6_E224_46ca_A02A_80903A010EB1&#45;&gt;EAID_41D34773_FFDA_4770_ABC4_AA6A34675E0B</title>
<path fill="none" stroke="black" d="M1799.71,-100.937C1833.68,-94.1757 1866.96,-87.5507 1897.27,-81.5183"/>
<polygon fill="black" stroke="black" points="1898.3,-84.8808 1907.43,-79.4959 1896.93,-78.0155 1898.3,-84.8808"/>
</g>
<!-- EAID_2DD78922_F43F_4774_BC69_D1D3DDED79FD -->
<g id="node9" class="node"><title>EAID_2DD78922_F43F_4774_BC69_D1D3DDED79FD</title>
<image xlink:href="img/activity_icon.png" width="30px" height="20px" preserveAspectRatio="xMinYMin meet" x="2019.5" y="-184.5"/>
<text text-anchor="start" x="1914" y="-142.3" font-family="Times New Roman,serif" font-weight="bold" font-size="24.00">neighborhood database</text>
</g>
<!-- EAID_627711E6_E224_46ca_A02A_80903A010EB1&#45;&gt;EAID_2DD78922_F43F_4774_BC69_D1D3DDED79FD -->
<g id="edge10" class="edge"><title>EAID_627711E6_E224_46ca_A02A_80903A010EB1&#45;&gt;EAID_2DD78922_F43F_4774_BC69_D1D3DDED79FD</title>
<path fill="none" stroke="black" d="M1812.35,-159.5C1840.46,-159.5 1867.9,-159.5 1893.35,-159.5"/>
<polygon fill="black" stroke="black" points="1893.37,-163 1903.37,-159.5 1893.37,-156 1893.37,-163"/>
</g>
<!-- EAID_643B475B_2BDD_4bd2_AE34_987F7CC2ABB7&#45;&gt;EAID_55B53CB3_DB32_4c15_8994_4526FDBED78C -->
<g id="edge6" class="edge"><title>EAID_643B475B_2BDD_4bd2_AE34_987F7CC2ABB7&#45;&gt;EAID_55B53CB3_DB32_4c15_8994_4526FDBED78C</title>
<path fill="none" stroke="black" d="M305.06,-176.308C313.487,-176.383 322.085,-176.46 330.65,-176.537"/>
<polygon fill="black" stroke="black" points="330.646,-180.037 340.677,-176.627 330.709,-173.038 330.646,-180.037"/>
</g>
</g>
</svg>
