<?xml version="1.0" encoding="UTF-8" standalone="no"?>
<!DOCTYPE svg PUBLIC "-//W3C//DTD SVG 1.1//EN"
 "http://www.w3.org/Graphics/SVG/1.1/DTD/svg11.dtd">
<!-- Generated by graphviz version 2.38.0 (20140413.2041)
 -->
<!-- Title: g Pages: 1 -->
<svg width="1152pt" height="367pt"
 viewBox="0.00 0.00 1152.00 367.00" xmlns="http://www.w3.org/2000/svg" xmlns:xlink="http://www.w3.org/1999/xlink">
<g id="graph0" class="graph" transform="scale(1 1) rotate(0) translate(4 363)">
<title>g</title>
<polygon fill="white" stroke="none" points="-4,4 -4,-363 1148,-363 1148,4 -4,4"/>
<!-- EAID_AA49219F_31B1_438b_A3B7_E18F1B5E413B -->
<g id="node1" class="node"><title>EAID_AA49219F_31B1_438b_A3B7_E18F1B5E413B</title>
<image xlink:href="img/actor1.png" width="61px" height="90px" preserveAspectRatio="xMinYMin meet" x="10.5" y="-291.5"/>
<text text-anchor="start" x="19" y="-178.3" font-family="Times New Roman,serif" font-size="24.00">User</text>
</g>
<!-- EAID_D14A3AFF_5948_435f_8A25_53437A85F71F -->
<g id="node2" class="node"><title>EAID_D14A3AFF_5948_435f_8A25_53437A85F71F</title>
<image xlink:href="img/boundary3.png" width="115px" height="67px" preserveAspectRatio="xMinYMin meet" x="489" y="-323.5"/>
<text text-anchor="start" x="475.5" y="-233.3" font-family="Times New Roman,serif" font-size="24.00">close resources</text>
</g>
<!-- EAID_AA49219F_31B1_438b_A3B7_E18F1B5E413B&#45;&gt;EAID_D14A3AFF_5948_435f_8A25_53437A85F71F -->
<g id="edge1" class="edge"><title>EAID_AA49219F_31B1_438b_A3B7_E18F1B5E413B&#45;&gt;EAID_D14A3AFF_5948_435f_8A25_53437A85F71F</title>
<path fill="none" stroke="black" d="M81.0638,-244.902C92.5301,-248.273 105.154,-251.498 117,-253.5 232.515,-273.022 367.823,-276.861 455.006,-276.918"/>
<polygon fill="black" stroke="black" points="455.135,-280.418 465.132,-276.908 455.128,-273.418 455.135,-280.418"/>
</g>
<!-- EAID_31FECA62_9781_4b20_80F1_6AF72B1AB134 -->
<g id="node3" class="node"><title>EAID_31FECA62_9781_4b20_80F1_6AF72B1AB134</title>
<image xlink:href="img/boundary3.png" width="102px" height="67px" preserveAspectRatio="xMinYMin meet" x="1032" y="-352.5"/>
<text text-anchor="start" x="1032" y="-262.3" font-family="Times New Roman,serif" font-size="24.00">Homepage</text>
</g>
<!-- EAID_AA49219F_31B1_438b_A3B7_E18F1B5E413B&#45;&gt;EAID_31FECA62_9781_4b20_80F1_6AF72B1AB134 -->
<g id="edge2" class="edge"><title>EAID_AA49219F_31B1_438b_A3B7_E18F1B5E413B&#45;&gt;EAID_31FECA62_9781_4b20_80F1_6AF72B1AB134</title>
<path fill="none" stroke="black" d="M81.1351,-260.609C92.2868,-267.692 104.732,-274.622 117,-279.5 247.81,-331.511 287.868,-326.106 428,-339.5 639.992,-359.763 891.847,-331.643 1011.77,-315.089"/>
<polygon fill="black" stroke="black" points="1012.49,-318.522 1021.91,-313.673 1011.53,-311.589 1012.49,-318.522"/>
</g>
<!-- EAID_78D68E24_7A58_407f_9BAD_1BB37C3ECE9A -->
<g id="node4" class="node"><title>EAID_78D68E24_7A58_407f_9BAD_1BB37C3ECE9A</title>
<image xlink:href="img/control1.png" width="106px" height="75px" preserveAspectRatio="xMinYMin meet" x="201.5" y="-110.5"/>
<text text-anchor="start" x="178.5" y="-12.3" font-family="Times New Roman,serif" font-size="24.00">Chose resources</text>
</g>
<!-- EAID_AA49219F_31B1_438b_A3B7_E18F1B5E413B&#45;&gt;EAID_78D68E24_7A58_407f_9BAD_1BB37C3ECE9A -->
<g id="edge3" class="edge"><title>EAID_AA49219F_31B1_438b_A3B7_E18F1B5E413B&#45;&gt;EAID_78D68E24_7A58_407f_9BAD_1BB37C3ECE9A</title>
<path fill="none" stroke="black" d="M81.0984,-165.985C91.5962,-151.844 103.745,-137.773 117,-126.5 129.729,-115.674 144.477,-106.053 159.477,-97.7011"/>
<polygon fill="black" stroke="black" points="161.183,-100.758 168.324,-92.9306 157.861,-94.5962 161.183,-100.758"/>
</g>
<!-- EAID_00162686_7696_4f1a_82E9_377C69407D99 -->
<g id="node5" class="node"><title>EAID_00162686_7696_4f1a_82E9_377C69407D99</title>
<image xlink:href="img/boundary3.png" width="115px" height="67px" preserveAspectRatio="xMinYMin meet" x="197.5" y="-238.5"/>
<text text-anchor="start" x="127.5" y="-148.3" font-family="Times New Roman,serif" font-size="24.00">Access all resources button</text>
</g>
<!-- EAID_AA49219F_31B1_438b_A3B7_E18F1B5E413B&#45;&gt;EAID_00162686_7696_4f1a_82E9_377C69407D99 -->
<g id="edge4" class="edge"><title>EAID_AA49219F_31B1_438b_A3B7_E18F1B5E413B&#45;&gt;EAID_00162686_7696_4f1a_82E9_377C69407D99</title>
<path fill="none" stroke="black" d="M81.3756,-223.788C89.1269,-222.289 97.6638,-220.638 106.664,-218.897"/>
<polygon fill="black" stroke="black" points="107.444,-222.312 116.598,-216.976 106.115,-215.439 107.444,-222.312"/>
</g>
<!-- EAID_0D5CF80D_EA63_4431_BE74_17A3C7990200 -->
<g id="node7" class="node"><title>EAID_0D5CF80D_EA63_4431_BE74_17A3C7990200</title>
<image xlink:href="img/control1.png" width="106px" height="75px" preserveAspectRatio="xMinYMin meet" x="791" y="-249.5"/>
<text text-anchor="start" x="711.5" y="-151.3" font-family="Times New Roman,serif" font-size="24.00">Show resources information</text>
</g>
<!-- EAID_D14A3AFF_5948_435f_8A25_53437A85F71F&#45;&gt;EAID_0D5CF80D_EA63_4431_BE74_17A3C7990200 -->
<g id="edge9" class="edge"><title>EAID_D14A3AFF_5948_435f_8A25_53437A85F71F&#45;&gt;EAID_0D5CF80D_EA63_4431_BE74_17A3C7990200</title>
<path fill="none" stroke="black" d="M627.72,-254.289C647.487,-249.063 669.306,-243.294 691.235,-237.495"/>
<polygon fill="black" stroke="black" points="692.198,-240.861 700.972,-234.921 690.409,-234.094 692.198,-240.861"/>
</g>
<!-- EAID_78D68E24_7A58_407f_9BAD_1BB37C3ECE9A&#45;&gt;EAID_0D5CF80D_EA63_4431_BE74_17A3C7990200 -->
<g id="edge6" class="edge"><title>EAID_78D68E24_7A58_407f_9BAD_1BB37C3ECE9A&#45;&gt;EAID_0D5CF80D_EA63_4431_BE74_17A3C7990200</title>
<path fill="none" stroke="black" d="M340.681,-48.9424C425.255,-42.4973 557.467,-40.7299 665,-76.5 701.552,-88.6589 737.504,-110.704 767.39,-132.678"/>
<polygon fill="black" stroke="black" points="765.551,-135.674 775.654,-138.866 769.747,-130.07 765.551,-135.674"/>
</g>
<!-- EAID_FCD2AE80_6800_4292_B4BD_A5E5BCC5DA9B -->
<g id="node6" class="node"><title>EAID_FCD2AE80_6800_4292_B4BD_A5E5BCC5DA9B</title>
<image xlink:href="img/control1.png" width="106px" height="75px" preserveAspectRatio="xMinYMin meet" x="494" y="-196.5"/>
<text text-anchor="start" x="438.5" y="-98.3" font-family="Times New Roman,serif" font-size="24.00">Show lists of resources</text>
</g>
<!-- EAID_00162686_7696_4f1a_82E9_377C69407D99&#45;&gt;EAID_FCD2AE80_6800_4292_B4BD_A5E5BCC5DA9B -->
<g id="edge5" class="edge"><title>EAID_00162686_7696_4f1a_82E9_377C69407D99&#45;&gt;EAID_FCD2AE80_6800_4292_B4BD_A5E5BCC5DA9B</title>
<path fill="none" stroke="black" d="M392.008,-168.847C400.561,-167.49 409.153,-166.127 417.666,-164.777"/>
<polygon fill="black" stroke="black" points="418.286,-168.223 427.615,-163.199 417.19,-161.309 418.286,-168.223"/>
</g>
<!-- EAID_FCD2AE80_6800_4292_B4BD_A5E5BCC5DA9B&#45;&gt;EAID_0D5CF80D_EA63_4431_BE74_17A3C7990200 -->
<g id="edge8" class="edge"><title>EAID_FCD2AE80_6800_4292_B4BD_A5E5BCC5DA9B&#45;&gt;EAID_0D5CF80D_EA63_4431_BE74_17A3C7990200</title>
<path fill="none" stroke="black" d="M665.364,-165.675C673.784,-167.188 682.339,-168.725 690.912,-170.266"/>
<polygon fill="black" stroke="black" points="690.517,-173.751 700.978,-172.074 691.755,-166.861 690.517,-173.751"/>
</g>
<!-- EAID_0D5CF80D_EA63_4431_BE74_17A3C7990200&#45;&gt;EAID_31FECA62_9781_4b20_80F1_6AF72B1AB134 -->
<g id="edge7" class="edge"><title>EAID_0D5CF80D_EA63_4431_BE74_17A3C7990200&#45;&gt;EAID_31FECA62_9781_4b20_80F1_6AF72B1AB134</title>
<path fill="none" stroke="black" d="M974.368,-256.009C987.572,-261.958 1000.59,-267.823 1012.76,-273.307"/>
<polygon fill="black" stroke="black" points="1011.34,-276.505 1021.9,-277.422 1014.22,-270.123 1011.34,-276.505"/>
</g>
</g>
</svg>
