<?xml version="1.0" encoding="UTF-8" standalone="no"?>
<!DOCTYPE svg PUBLIC "-//W3C//DTD SVG 1.1//EN"
 "http://www.w3.org/Graphics/SVG/1.1/DTD/svg11.dtd">
<!-- Generated by graphviz version 2.38.0 (20140413.2041)
 -->
<!-- Title: g Pages: 1 -->
<svg width="2661pt" height="1111pt"
 viewBox="0.00 0.00 2660.50 1111.00" xmlns="http://www.w3.org/2000/svg" xmlns:xlink="http://www.w3.org/1999/xlink">
<g id="graph0" class="graph" transform="scale(1 1) rotate(0) translate(4 1107)">
<title>g</title>
<polygon fill="white" stroke="none" points="-4,4 -4,-1107 2656.5,-1107 2656.5,4 -4,4"/>
<g id="clust1" class="cluster"><title>cluster0</title>
<polygon fill="none" stroke="black" stroke-width="2" points="1568,-664 1568,-767 1773,-767 1773,-664 1568,-664"/>
<text text-anchor="start" x="1576" y="-752.8" font-family="Times New Roman,serif" font-weight="bold" font-size="14.00">send email including credential</text>
</g>
<g id="clust4" class="cluster"><title>cluster1000</title>
<polygon fill="none" stroke="black" stroke-width="2" points="8,-8 8,-456 2286,-456 2286,-8 8,-8"/>
<text text-anchor="start" x="1101.5" y="-441.8" font-family="Times New Roman,serif" font-weight="bold" font-size="14.00">Domain Model</text>
</g>
<g id="clust2" class="cluster"><title>cluster1</title>
<polygon fill="none" stroke="black" stroke-width="2" points="1796,-464 1796,-984 2428,-984 2428,-464 1796,-464"/>
<text text-anchor="start" x="2090" y="-969.8" font-family="Times New Roman,serif" font-weight="bold" font-size="14.00">System</text>
</g>
<g id="clust3" class="cluster"><title>cluster2</title>
<polygon fill="none" stroke="black" stroke-width="2" points="1763,-992 1763,-1095 2601,-1095 2601,-992 1763,-992"/>
<text text-anchor="start" x="2167.5" y="-1080.8" font-family="Times New Roman,serif" font-weight="bold" font-size="14.00">User</text>
</g>
<!-- EAID_1C604466_9E70_4b90_996B_7092482FD6A1___EAID_182D96B3_1676_4629_B652_97F15CED10C2 -->
<g id="node1" class="node"><title>EAID_1C604466_9E70_4b90_996B_7092482FD6A1___EAID_182D96B3_1676_4629_B652_97F15CED10C2</title>
<image xlink:href="img/activity_icon.png" width="30px" height="20px" preserveAspectRatio="xMinYMin meet" x="1655.5" y="-730"/>
<text text-anchor="start" x="1608.5" y="-695.8" font-family="Times New Roman,serif" font-weight="bold" font-size="14.00">send email including</text>
<text text-anchor="start" x="1592" y="-681.8" font-family="Times New Roman,serif" font-weight="bold" font-size="14.00">credential:Email Protocol</text>
</g>
<!-- EAID_4F9F00FB_6302_4d9c_807D_89439E271ACA -->
<g id="node17" class="node"><title>EAID_4F9F00FB_6302_4d9c_807D_89439E271ACA</title>
<polygon fill="none" stroke="black" points="981,-346.5 981,-367.5 1389,-367.5 1389,-346.5 981,-346.5"/>
<text text-anchor="start" x="1130.5" y="-354.3" font-family="Times New Roman,serif" font-weight="bold" font-size="14.00">Consumer Profile</text>
<polygon fill="none" stroke="black" points="981,-325.5 981,-346.5 1389,-346.5 1389,-325.5 981,-325.5"/>
<text text-anchor="start" x="1130" y="-333.3" font-family="Times New Roman,serif" font-weight="bold" font-size="14.00">EAJava_char city</text>
<polygon fill="none" stroke="black" points="981,-304.5 981,-325.5 1389,-325.5 1389,-304.5 981,-304.5"/>
<text text-anchor="start" x="1124.5" y="-312.3" font-family="Times New Roman,serif" font-weight="bold" font-size="14.00">EAJava_char email</text>
<polygon fill="none" stroke="black" points="981,-283.5 981,-304.5 1389,-304.5 1389,-283.5 981,-283.5"/>
<text text-anchor="start" x="1123" y="-291.3" font-family="Times New Roman,serif" font-weight="bold" font-size="14.00">EAJava_char Name</text>
<polygon fill="none" stroke="black" points="981,-262.5 981,-283.5 1389,-283.5 1389,-262.5 981,-262.5"/>
<text text-anchor="start" x="1111.5" y="-270.3" font-family="Times New Roman,serif" font-weight="bold" font-size="14.00">EAJava_char password</text>
<polygon fill="none" stroke="black" points="981,-241.5 981,-262.5 1389,-262.5 1389,-241.5 981,-241.5"/>
<text text-anchor="start" x="1081.5" y="-249.3" font-family="Times New Roman,serif" font-weight="bold" font-size="14.00">EAJava_char specialityInterested</text>
<polygon fill="none" stroke="black" points="981,-220.5 981,-241.5 1389,-241.5 1389,-220.5 981,-220.5"/>
<text text-anchor="start" x="1126" y="-228.3" font-family="Times New Roman,serif" font-weight="bold" font-size="14.00">EAJava_char state</text>
<polygon fill="none" stroke="black" points="981,-199.5 981,-220.5 1389,-220.5 1389,-199.5 981,-199.5"/>
<text text-anchor="start" x="1110" y="-207.3" font-family="Times New Roman,serif" font-weight="bold" font-size="14.00">EAJava_char Username</text>
<polygon fill="none" stroke="black" points="981,-178.5 981,-199.5 1389,-199.5 1389,-178.5 981,-178.5"/>
<text text-anchor="start" x="1124" y="-186.3" font-family="Times New Roman,serif" font-weight="bold" font-size="14.00">EAJava_int zipcode</text>
<polygon fill="none" stroke="black" points="981,-157.5 981,-178.5 1389,-178.5 1389,-157.5 981,-157.5"/>
<text text-anchor="start" x="984" y="-165.3" font-family="Times New Roman,serif" font-weight="bold" font-size="14.00">EAID_2D8A89EC_8E9E_4221_A322_670FAA646E76 undefined</text>
<polygon fill="none" stroke="black" points="981,-136.5 981,-157.5 1389,-157.5 1389,-136.5 981,-136.5"/>
<text text-anchor="start" x="1128" y="-144.3" font-family="Times New Roman,serif" font-weight="bold" font-size="14.00">ConsumerProfile()</text>
<polygon fill="none" stroke="black" points="981,-115.5 981,-136.5 1389,-136.5 1389,-115.5 981,-115.5"/>
<text text-anchor="start" x="1122.5" y="-123.3" font-family="Times New Roman,serif" font-weight="bold" font-size="14.00">saveudpatedprofile()</text>
<polygon fill="none" stroke="black" points="981,-94.5 981,-115.5 1389,-115.5 1389,-94.5 981,-94.5"/>
<text text-anchor="start" x="1136" y="-102.3" font-family="Times New Roman,serif" font-weight="bold" font-size="14.00">Confirmdialog()</text>
<polygon fill="none" stroke="black" points="981,-73.5 981,-94.5 1389,-94.5 1389,-73.5 981,-73.5"/>
<text text-anchor="start" x="1136" y="-81.3" font-family="Times New Roman,serif" font-weight="bold" font-size="14.00">EmailProtocol()</text>
<polygon fill="none" stroke="black" points="980,-72.5 980,-368.5 1390,-368.5 1390,-72.5 980,-72.5"/>
</g>
<!-- EAID_1C604466_9E70_4b90_996B_7092482FD6A1___EAID_182D96B3_1676_4629_B652_97F15CED10C2&#45;&gt;EAID_4F9F00FB_6302_4d9c_807D_89439E271ACA -->
<g id="edge15" class="edge"><title>EAID_1C604466_9E70_4b90_996B_7092482FD6A1___EAID_182D96B3_1676_4629_B652_97F15CED10C2&#45;&gt;EAID_4F9F00FB_6302_4d9c_807D_89439E271ACA</title>
<path fill="none" stroke="black" stroke-dasharray="5,2" d="M1635.35,-671.656C1584.46,-625.356 1486.89,-535.568 1407,-456 1382.58,-431.681 1357.09,-405.52 1332.45,-379.804"/>
<polygon fill="black" stroke="black" points="1334.97,-377.371 1325.53,-372.564 1329.91,-382.21 1334.97,-377.371"/>
</g>
<!-- EAID_0C04C435_FB6F_4cc0_B897_4059F303FD5E___EAID_966E6955_D6CD_45d6_AD87_7CE00FB192B7 -->
<g id="node2" class="node"><title>EAID_0C04C435_FB6F_4cc0_B897_4059F303FD5E___EAID_966E6955_D6CD_45d6_AD87_7CE00FB192B7</title>
<image xlink:href="img/activity_icon.png" width="30px" height="20px" preserveAspectRatio="xMinYMin meet" x="1886" y="-947"/>
<text text-anchor="start" x="1814" y="-912.8" font-family="Times New Roman,serif" font-weight="bold" font-size="14.00">User:Forgotten username or</text>
<text text-anchor="start" x="1858" y="-898.8" font-family="Times New Roman,serif" font-weight="bold" font-size="14.00">password link</text>
</g>
<!-- EAID_966E6955_D6CD_45d6_AD87_7CE00FB192B7___EAID_1C604466_9E70_4b90_996B_7092482FD6A1 -->
<g id="node6" class="node"><title>EAID_966E6955_D6CD_45d6_AD87_7CE00FB192B7___EAID_1C604466_9E70_4b90_996B_7092482FD6A1</title>
<image xlink:href="img/activity_icon.png" width="30px" height="20px" preserveAspectRatio="xMinYMin meet" x="1876" y="-847"/>
<text text-anchor="start" x="1820" y="-812.8" font-family="Times New Roman,serif" font-weight="bold" font-size="14.00">Forgotten username or</text>
<text text-anchor="start" x="1814" y="-798.8" font-family="Times New Roman,serif" font-weight="bold" font-size="14.00">password link:send email</text>
<text text-anchor="start" x="1830.5" y="-784.8" font-family="Times New Roman,serif" font-weight="bold" font-size="14.00">including credential</text>
</g>
<!-- EAID_0C04C435_FB6F_4cc0_B897_4059F303FD5E___EAID_966E6955_D6CD_45d6_AD87_7CE00FB192B7&#45;&gt;EAID_966E6955_D6CD_45d6_AD87_7CE00FB192B7___EAID_1C604466_9E70_4b90_996B_7092482FD6A1 -->
<g id="edge1" class="edge"><title>EAID_0C04C435_FB6F_4cc0_B897_4059F303FD5E___EAID_966E6955_D6CD_45d6_AD87_7CE00FB192B7&#45;&gt;EAID_966E6955_D6CD_45d6_AD87_7CE00FB192B7___EAID_1C604466_9E70_4b90_996B_7092482FD6A1</title>
<path fill="none" stroke="black" d="M1898.03,-888.781C1897.27,-880.786 1896.43,-871.999 1895.61,-863.362"/>
<polygon fill="black" stroke="black" points="1899.08,-862.972 1894.65,-853.348 1892.12,-863.635 1899.08,-862.972"/>
</g>
<!-- EAID_9DBFBE31_5330_4c4e_856A_31709DE2EDC0 -->
<g id="node23" class="node"><title>EAID_9DBFBE31_5330_4c4e_856A_31709DE2EDC0</title>
<text text-anchor="middle" x="1358" y="-810.3" font-family="Times New Roman,serif" font-size="14.00">EAID_9DBFBE31_5330_4c4e_856A_31709DE2EDC0</text>
</g>
<!-- EAID_0C04C435_FB6F_4cc0_B897_4059F303FD5E___EAID_966E6955_D6CD_45d6_AD87_7CE00FB192B7&#45;&gt;EAID_9DBFBE31_5330_4c4e_856A_31709DE2EDC0 -->
<g id="edge16" class="edge"><title>EAID_0C04C435_FB6F_4cc0_B897_4059F303FD5E___EAID_966E6955_D6CD_45d6_AD87_7CE00FB192B7&#45;&gt;EAID_9DBFBE31_5330_4c4e_856A_31709DE2EDC0</title>
<path fill="none" stroke="black" stroke-dasharray="5,2" d="M1803.64,-902.914C1730.03,-889.806 1626.53,-870.967 1536,-853 1506.47,-847.139 1474.27,-840.378 1445.47,-834.198"/>
<polygon fill="black" stroke="black" points="1445.95,-830.721 1435.44,-832.039 1444.48,-837.565 1445.95,-830.721"/>
</g>
<!-- EAID_0C04C435_FB6F_4cc0_B897_4059F303FD5E___EAID_12627FF6_1E22_4930_B02E_3364B763E320 -->
<g id="node3" class="node"><title>EAID_0C04C435_FB6F_4cc0_B897_4059F303FD5E___EAID_12627FF6_1E22_4930_B02E_3364B763E320</title>
<image xlink:href="img/activity_icon.png" width="30px" height="20px" preserveAspectRatio="xMinYMin meet" x="2104" y="-947"/>
<text text-anchor="start" x="2026" y="-912.8" font-family="Times New Roman,serif" font-weight="bold" font-size="14.00">User:Invalid information error</text>
<text text-anchor="start" x="2093" y="-898.8" font-family="Times New Roman,serif" font-weight="bold" font-size="14.00">message</text>
</g>
<!-- EAID_12627FF6_1E22_4930_B02E_3364B763E320___EAID_94C67730_6635_4b6f_AE73_3FF547DCE317 -->
<g id="node7" class="node"><title>EAID_12627FF6_1E22_4930_B02E_3364B763E320___EAID_94C67730_6635_4b6f_AE73_3FF547DCE317</title>
<image xlink:href="img/activity_icon.png" width="30px" height="20px" preserveAspectRatio="xMinYMin meet" x="2106" y="-847"/>
<text text-anchor="start" x="2044" y="-812.8" font-family="Times New Roman,serif" font-weight="bold" font-size="14.00">Invalid information error</text>
<text text-anchor="start" x="2044" y="-798.8" font-family="Times New Roman,serif" font-weight="bold" font-size="14.00">message:redirect to login</text>
<text text-anchor="start" x="2106" y="-784.8" font-family="Times New Roman,serif" font-weight="bold" font-size="14.00">page</text>
</g>
<!-- EAID_0C04C435_FB6F_4cc0_B897_4059F303FD5E___EAID_12627FF6_1E22_4930_B02E_3364B763E320&#45;&gt;EAID_12627FF6_1E22_4930_B02E_3364B763E320___EAID_94C67730_6635_4b6f_AE73_3FF547DCE317 -->
<g id="edge3" class="edge"><title>EAID_0C04C435_FB6F_4cc0_B897_4059F303FD5E___EAID_12627FF6_1E22_4930_B02E_3364B763E320&#45;&gt;EAID_12627FF6_1E22_4930_B02E_3364B763E320___EAID_94C67730_6635_4b6f_AE73_3FF547DCE317</title>
<path fill="none" stroke="black" d="M2119.59,-888.781C2119.75,-880.786 2119.91,-871.999 2120.08,-863.362"/>
<polygon fill="black" stroke="black" points="2123.58,-863.413 2120.27,-853.348 2116.58,-863.28 2123.58,-863.413"/>
</g>
<!-- EAID_2D8A89EC_8E9E_4221_A322_670FAA646E76 -->
<g id="node18" class="node"><title>EAID_2D8A89EC_8E9E_4221_A322_670FAA646E76</title>
<polygon fill="none" stroke="black" points="1863,-398.5 1863,-419.5 2269,-419.5 2269,-398.5 1863,-398.5"/>
<text text-anchor="start" x="1954" y="-406.3" font-family="Times New Roman,serif" font-weight="bold" font-size="14.00">Medical services pricing information</text>
<polygon fill="none" stroke="black" points="1863,-377.5 1863,-398.5 2269,-398.5 2269,-377.5 1863,-377.5"/>
<text text-anchor="start" x="2007.5" y="-385.3" font-family="Times New Roman,serif" font-weight="bold" font-size="14.00">EAJava_char code</text>
<polygon fill="none" stroke="black" points="1863,-356.5 1863,-377.5 2269,-377.5 2269,-356.5 1863,-356.5"/>
<text text-anchor="start" x="1988" y="-364.3" font-family="Times New Roman,serif" font-weight="bold" font-size="14.00">EAJava_char description</text>
<polygon fill="none" stroke="black" points="1863,-335.5 1863,-356.5 2269,-356.5 2269,-335.5 1863,-335.5"/>
<text text-anchor="start" x="2013" y="-343.3" font-family="Times New Roman,serif" font-weight="bold" font-size="14.00">EAJava_blob file</text>
<polygon fill="none" stroke="black" points="1863,-314.5 1863,-335.5 2269,-335.5 2269,-314.5 1863,-314.5"/>
<text text-anchor="start" x="1977" y="-322.3" font-family="Times New Roman,serif" font-weight="bold" font-size="14.00">EAJava_blob medicalInvoice</text>
<polygon fill="none" stroke="black" points="1863,-293.5 1863,-314.5 2269,-314.5 2269,-293.5 1863,-293.5"/>
<text text-anchor="start" x="2001" y="-301.3" font-family="Times New Roman,serif" font-weight="bold" font-size="14.00">EAJava_blob picture</text>
<polygon fill="none" stroke="black" points="1863,-272.5 1863,-293.5 2269,-293.5 2269,-272.5 1863,-272.5"/>
<text text-anchor="start" x="2012.5" y="-280.3" font-family="Times New Roman,serif" font-weight="bold" font-size="14.00">EAJava_int price</text>
<polygon fill="none" stroke="black" points="1863,-251.5 1863,-272.5 2269,-272.5 2269,-251.5 1863,-251.5"/>
<text text-anchor="start" x="1964.5" y="-259.3" font-family="Times New Roman,serif" font-weight="bold" font-size="14.00">EAJava_char ProviderUsername</text>
<polygon fill="none" stroke="black" points="1863,-230.5 1863,-251.5 2269,-251.5 2269,-230.5 1863,-230.5"/>
<text text-anchor="start" x="1993.5" y="-238.3" font-family="Times New Roman,serif" font-weight="bold" font-size="14.00">EAJava_char speciality</text>
<polygon fill="none" stroke="black" points="1863,-209.5 1863,-230.5 2269,-230.5 2269,-209.5 1863,-209.5"/>
<text text-anchor="start" x="1866" y="-217.3" font-family="Times New Roman,serif" font-weight="bold" font-size="14.00">EAID_58EF6445_FBA8_43b1_9DB2_02C672C5035B undefined</text>
<polygon fill="none" stroke="black" points="1863,-188.5 1863,-209.5 2269,-209.5 2269,-188.5 1863,-188.5"/>
<text text-anchor="start" x="1955" y="-196.3" font-family="Times New Roman,serif" font-weight="bold" font-size="14.00">Medicalservicespricinginformation()</text>
<polygon fill="none" stroke="black" points="1863,-167.5 1863,-188.5 2269,-188.5 2269,-167.5 1863,-167.5"/>
<text text-anchor="start" x="1969.5" y="-175.3" font-family="Times New Roman,serif" font-weight="bold" font-size="14.00">providerinformationinputpage()</text>
<polygon fill="none" stroke="black" points="1863,-146.5 1863,-167.5 2269,-167.5 2269,-146.5 1863,-146.5"/>
<text text-anchor="start" x="1968" y="-154.3" font-family="Times New Roman,serif" font-weight="bold" font-size="14.00">Errormessageforupdatefailure()</text>
<polygon fill="none" stroke="black" points="1863,-125.5 1863,-146.5 2269,-146.5 2269,-125.5 1863,-125.5"/>
<text text-anchor="start" x="2002.5" y="-133.3" font-family="Times New Roman,serif" font-weight="bold" font-size="14.00">verifyinputmessage()</text>
<polygon fill="none" stroke="black" points="1863,-104.5 1863,-125.5 2269,-125.5 2269,-104.5 1863,-104.5"/>
<text text-anchor="start" x="1972.5" y="-112.3" font-family="Times New Roman,serif" font-weight="bold" font-size="14.00">sendemailincludingcredential()</text>
<polygon fill="none" stroke="black" points="1863,-83.5 1863,-104.5 2269,-104.5 2269,-83.5 1863,-83.5"/>
<text text-anchor="start" x="2036.5" y="-91.3" font-family="Times New Roman,serif" font-weight="bold" font-size="14.00">userinfo()</text>
<polygon fill="none" stroke="black" points="1863,-62.5 1863,-83.5 2269,-83.5 2269,-62.5 1863,-62.5"/>
<text text-anchor="start" x="1939.5" y="-70.3" font-family="Times New Roman,serif" font-weight="bold" font-size="14.00">Sharepricethroughpicturecapturebutton()</text>
<polygon fill="none" stroke="black" points="1863,-41.5 1863,-62.5 2269,-62.5 2269,-41.5 1863,-41.5"/>
<text text-anchor="start" x="2045" y="-49.3" font-family="Times New Roman,serif" font-weight="bold" font-size="14.00">Price()</text>
<polygon fill="none" stroke="black" points="1863,-20.5 1863,-41.5 2269,-41.5 2269,-20.5 1863,-20.5"/>
<text text-anchor="start" x="1999" y="-28.3" font-family="Times New Roman,serif" font-weight="bold" font-size="14.00">pricedetailinputpage()</text>
<polygon fill="none" stroke="black" points="1862,-20 1862,-421 2270,-421 2270,-20 1862,-20"/>
</g>
<!-- EAID_0C04C435_FB6F_4cc0_B897_4059F303FD5E___EAID_12627FF6_1E22_4930_B02E_3364B763E320&#45;&gt;EAID_2D8A89EC_8E9E_4221_A322_670FAA646E76 -->
<g id="edge17" class="edge"><title>EAID_0C04C435_FB6F_4cc0_B897_4059F303FD5E___EAID_12627FF6_1E22_4930_B02E_3364B763E320&#45;&gt;EAID_2D8A89EC_8E9E_4221_A322_670FAA646E76</title>
<path fill="none" stroke="black" stroke-dasharray="5,2" d="M2015.96,-891.056C2012.95,-890.345 2009.95,-889.658 2007,-889 1807.66,-844.61 1680.52,-934.714 1564,-767 1537.88,-729.405 1546.64,-706.359 1564,-664 1611.31,-548.549 1648.33,-517.59 1761,-464 1794.87,-447.892 1811.31,-472.48 1845,-456 1859.46,-448.925 1873.46,-440.478 1886.93,-431.056"/>
<polygon fill="black" stroke="black" points="1889.17,-433.752 1895.24,-425.067 1885.08,-428.073 1889.17,-433.752"/>
</g>
<!-- EAID_0C04C435_FB6F_4cc0_B897_4059F303FD5E___EAID_B17B14EA_C03D_426e_A771_0A5C5C4F68D2 -->
<g id="node4" class="node"><title>EAID_0C04C435_FB6F_4cc0_B897_4059F303FD5E___EAID_B17B14EA_C03D_426e_A771_0A5C5C4F68D2</title>
<image xlink:href="img/activity_icon.png" width="30px" height="20px" preserveAspectRatio="xMinYMin meet" x="2326" y="-940"/>
<text text-anchor="start" x="2272" y="-905.8" font-family="Times New Roman,serif" font-weight="bold" font-size="14.00">User:My account page</text>
</g>
<!-- EAID_B17B14EA_C03D_426e_A771_0A5C5C4F68D2 -->
<g id="node24" class="node"><title>EAID_B17B14EA_C03D_426e_A771_0A5C5C4F68D2</title>
<text text-anchor="middle" x="2486" y="-216.8" font-family="Times New Roman,serif" font-size="14.00">EAID_B17B14EA_C03D_426e_A771_0A5C5C4F68D2</text>
</g>
<!-- EAID_0C04C435_FB6F_4cc0_B897_4059F303FD5E___EAID_B17B14EA_C03D_426e_A771_0A5C5C4F68D2&#45;&gt;EAID_B17B14EA_C03D_426e_A771_0A5C5C4F68D2 -->
<g id="edge18" class="edge"><title>EAID_0C04C435_FB6F_4cc0_B897_4059F303FD5E___EAID_B17B14EA_C03D_426e_A771_0A5C5C4F68D2&#45;&gt;EAID_B17B14EA_C03D_426e_A771_0A5C5C4F68D2</title>
<path fill="none" stroke="black" stroke-dasharray="5,2" d="M2396.77,-895.485C2462.24,-862.475 2562,-797.07 2562,-705 2562,-705 2562,-705 2562,-603 2562,-467.657 2515.42,-310.421 2495.2,-248.512"/>
<polygon fill="black" stroke="black" points="2498.43,-247.141 2491.96,-238.747 2491.78,-249.341 2498.43,-247.141"/>
</g>
<!-- EAID_0C04C435_FB6F_4cc0_B897_4059F303FD5E___EAID_5D630928_30E5_4e67_9FD4_7C33F145E639 -->
<g id="node5" class="node"><title>EAID_0C04C435_FB6F_4cc0_B897_4059F303FD5E___EAID_5D630928_30E5_4e67_9FD4_7C33F145E639</title>
<image xlink:href="img/activity_icon.png" width="30px" height="20px" preserveAspectRatio="xMinYMin meet" x="2344.5" y="-723"/>
<text text-anchor="start" x="2309" y="-688.8" font-family="Times New Roman,serif" font-weight="bold" font-size="14.00">User:Login page</text>
</g>
<!-- EAID_5D630928_30E5_4e67_9FD4_7C33F145E639___EAID_A6507BCC_100D_4259_A7C7_0AA2D74B1D24 -->
<g id="node9" class="node"><title>EAID_5D630928_30E5_4e67_9FD4_7C33F145E639___EAID_A6507BCC_100D_4259_A7C7_0AA2D74B1D24</title>
<image xlink:href="img/activity_icon.png" width="30px" height="20px" preserveAspectRatio="xMinYMin meet" x="2108.5" y="-630"/>
<text text-anchor="start" x="2055" y="-595.8" font-family="Times New Roman,serif" font-weight="bold" font-size="14.00">Login page:verify user</text>
<text text-anchor="start" x="2087.5" y="-581.8" font-family="Times New Roman,serif" font-weight="bold" font-size="14.00">information</text>
</g>
<!-- EAID_0C04C435_FB6F_4cc0_B897_4059F303FD5E___EAID_5D630928_30E5_4e67_9FD4_7C33F145E639&#45;&gt;EAID_5D630928_30E5_4e67_9FD4_7C33F145E639___EAID_A6507BCC_100D_4259_A7C7_0AA2D74B1D24 -->
<g id="edge6" class="edge"><title>EAID_0C04C435_FB6F_4cc0_B897_4059F303FD5E___EAID_5D630928_30E5_4e67_9FD4_7C33F145E639&#45;&gt;EAID_5D630928_30E5_4e67_9FD4_7C33F145E639___EAID_A6507BCC_100D_4259_A7C7_0AA2D74B1D24</title>
<path fill="none" stroke="black" d="M2299.75,-678.397C2271.79,-666.784 2237.91,-652.718 2207.33,-640.018"/>
<polygon fill="black" stroke="black" points="2208.53,-636.728 2197.95,-636.125 2205.85,-643.193 2208.53,-636.728"/>
</g>
<!-- EAID_0C04C435_FB6F_4cc0_B897_4059F303FD5E___EAID_5D630928_30E5_4e67_9FD4_7C33F145E639&#45;&gt;EAID_B17B14EA_C03D_426e_A771_0A5C5C4F68D2 -->
<g id="edge19" class="edge"><title>EAID_0C04C435_FB6F_4cc0_B897_4059F303FD5E___EAID_5D630928_30E5_4e67_9FD4_7C33F145E639&#45;&gt;EAID_B17B14EA_C03D_426e_A771_0A5C5C4F68D2</title>
<path fill="none" stroke="black" stroke-dasharray="5,2" d="M2416.55,-678.439C2434.13,-667.993 2451.56,-653.988 2462,-636 2536.35,-507.921 2506.82,-318.447 2492.26,-248.618"/>
<polygon fill="black" stroke="black" points="2495.68,-247.873 2490.15,-238.834 2488.84,-249.347 2495.68,-247.873"/>
</g>
<!-- EAID_966E6955_D6CD_45d6_AD87_7CE00FB192B7___EAID_1C604466_9E70_4b90_996B_7092482FD6A1&#45;&gt;EAID_1C604466_9E70_4b90_996B_7092482FD6A1___EAID_182D96B3_1676_4629_B652_97F15CED10C2 -->
<g id="edge8" class="edge"><title>EAID_966E6955_D6CD_45d6_AD87_7CE00FB192B7___EAID_1C604466_9E70_4b90_996B_7092482FD6A1&#45;&gt;EAID_1C604466_9E70_4b90_996B_7092482FD6A1___EAID_182D96B3_1676_4629_B652_97F15CED10C2</title>
<path fill="none" stroke="black" d="M1803.92,-779.354C1794.75,-775.369 1785.63,-771.215 1777,-767 1761.2,-759.281 1744.55,-750.153 1729.22,-741.309"/>
<polygon fill="black" stroke="black" points="1730.76,-738.157 1720.36,-736.147 1727.24,-744.205 1730.76,-738.157"/>
</g>
<!-- EAID_966E6955_D6CD_45d6_AD87_7CE00FB192B7___EAID_1C604466_9E70_4b90_996B_7092482FD6A1&#45;&gt;EAID_2D8A89EC_8E9E_4221_A322_670FAA646E76 -->
<g id="edge20" class="edge"><title>EAID_966E6955_D6CD_45d6_AD87_7CE00FB192B7___EAID_1C604466_9E70_4b90_996B_7092482FD6A1&#45;&gt;EAID_2D8A89EC_8E9E_4221_A322_670FAA646E76</title>
<path fill="none" stroke="black" stroke-dasharray="5,2" d="M1860.72,-774.865C1809.13,-705.042 1717.02,-555.449 1795,-464 1809.6,-446.876 1825.11,-466.529 1845,-456 1858.59,-448.808 1871.8,-440.458 1884.57,-431.281"/>
<polygon fill="black" stroke="black" points="1886.93,-433.89 1892.9,-425.135 1882.77,-428.258 1886.93,-433.89"/>
</g>
<!-- EAID_94C67730_6635_4b6f_AE73_3FF547DCE317___EAID_5D630928_30E5_4e67_9FD4_7C33F145E639 -->
<g id="node10" class="node"><title>EAID_94C67730_6635_4b6f_AE73_3FF547DCE317___EAID_5D630928_30E5_4e67_9FD4_7C33F145E639</title>
<image xlink:href="img/activity_icon.png" width="30px" height="20px" preserveAspectRatio="xMinYMin meet" x="2108" y="-730"/>
<text text-anchor="start" x="2074" y="-695.8" font-family="Times New Roman,serif" font-weight="bold" font-size="14.00">redirect to login</text>
<text text-anchor="start" x="2072" y="-681.8" font-family="Times New Roman,serif" font-weight="bold" font-size="14.00">page:Login page</text>
</g>
<!-- EAID_12627FF6_1E22_4930_B02E_3364B763E320___EAID_94C67730_6635_4b6f_AE73_3FF547DCE317&#45;&gt;EAID_94C67730_6635_4b6f_AE73_3FF547DCE317___EAID_5D630928_30E5_4e67_9FD4_7C33F145E639 -->
<g id="edge9" class="edge"><title>EAID_12627FF6_1E22_4930_B02E_3364B763E320___EAID_94C67730_6635_4b6f_AE73_3FF547DCE317&#45;&gt;EAID_94C67730_6635_4b6f_AE73_3FF547DCE317___EAID_5D630928_30E5_4e67_9FD4_7C33F145E639</title>
<path fill="none" stroke="black" d="M2121.71,-774.923C2121.88,-765.745 2122.06,-755.894 2122.23,-746.565"/>
<polygon fill="black" stroke="black" points="2125.73,-746.383 2122.42,-736.32 2118.74,-746.253 2125.73,-746.383"/>
</g>
<!-- EAID_12627FF6_1E22_4930_B02E_3364B763E320___EAID_94C67730_6635_4b6f_AE73_3FF547DCE317&#45;&gt;EAID_B17B14EA_C03D_426e_A771_0A5C5C4F68D2 -->
<g id="edge21" class="edge"><title>EAID_12627FF6_1E22_4930_B02E_3364B763E320___EAID_94C67730_6635_4b6f_AE73_3FF547DCE317&#45;&gt;EAID_B17B14EA_C03D_426e_A771_0A5C5C4F68D2</title>
<path fill="none" stroke="black" stroke-dasharray="5,2" d="M2208,-809.199C2286.64,-804.15 2395.11,-792.656 2429,-767 2592.94,-642.906 2520.87,-340.06 2494.3,-248.291"/>
<polygon fill="black" stroke="black" points="2497.64,-247.24 2491.44,-238.644 2490.92,-249.226 2497.64,-247.24"/>
</g>
<!-- EAID_A6507BCC_100D_4259_A7C7_0AA2D74B1D24___EAID_12627FF6_1E22_4930_B02E_3364B763E320 -->
<g id="node8" class="node"><title>EAID_A6507BCC_100D_4259_A7C7_0AA2D74B1D24___EAID_12627FF6_1E22_4930_B02E_3364B763E320</title>
<image xlink:href="img/activity_icon.png" width="30px" height="20px" preserveAspectRatio="xMinYMin meet" x="1892" y="-530"/>
<text text-anchor="start" x="1814" y="-495.8" font-family="Times New Roman,serif" font-weight="bold" font-size="14.00">verify user information:Invalid</text>
<text text-anchor="start" x="1825.5" y="-481.8" font-family="Times New Roman,serif" font-weight="bold" font-size="14.00">information error message</text>
</g>
<!-- EAID_A6507BCC_100D_4259_A7C7_0AA2D74B1D24___EAID_12627FF6_1E22_4930_B02E_3364B763E320&#45;&gt;EAID_12627FF6_1E22_4930_B02E_3364B763E320___EAID_94C67730_6635_4b6f_AE73_3FF547DCE317 -->
<g id="edge10" class="edge"><title>EAID_A6507BCC_100D_4259_A7C7_0AA2D74B1D24___EAID_12627FF6_1E22_4930_B02E_3364B763E320&#45;&gt;EAID_12627FF6_1E22_4930_B02E_3364B763E320___EAID_94C67730_6635_4b6f_AE73_3FF547DCE317</title>
<path fill="none" stroke="black" d="M1918.76,-536.2C1939.62,-588.517 1987.18,-695.238 2053,-767 2053.23,-767.256 2053.47,-767.511 2053.71,-767.766"/>
<polygon fill="black" stroke="black" points="2051.44,-770.439 2061.03,-774.941 2056.34,-765.44 2051.44,-770.439"/>
</g>
<!-- EAID_A6507BCC_100D_4259_A7C7_0AA2D74B1D24___EAID_12627FF6_1E22_4930_B02E_3364B763E320&#45;&gt;EAID_2D8A89EC_8E9E_4221_A322_670FAA646E76 -->
<g id="edge22" class="edge"><title>EAID_A6507BCC_100D_4259_A7C7_0AA2D74B1D24___EAID_12627FF6_1E22_4930_B02E_3364B763E320&#45;&gt;EAID_2D8A89EC_8E9E_4221_A322_670FAA646E76</title>
<path fill="none" stroke="black" stroke-dasharray="5,2" d="M1924.62,-471.799C1930.65,-461.13 1937.92,-448.263 1945.94,-434.065"/>
<polygon fill="black" stroke="black" points="1949.15,-435.488 1951.02,-425.06 1943.06,-432.045 1949.15,-435.488"/>
</g>
<!-- EAID_5D630928_30E5_4e67_9FD4_7C33F145E639___EAID_A6507BCC_100D_4259_A7C7_0AA2D74B1D24&#45;&gt;EAID_A6507BCC_100D_4259_A7C7_0AA2D74B1D24___EAID_12627FF6_1E22_4930_B02E_3364B763E320 -->
<g id="edge11" class="edge"><title>EAID_5D630928_30E5_4e67_9FD4_7C33F145E639___EAID_A6507BCC_100D_4259_A7C7_0AA2D74B1D24&#45;&gt;EAID_A6507BCC_100D_4259_A7C7_0AA2D74B1D24___EAID_12627FF6_1E22_4930_B02E_3364B763E320</title>
<path fill="none" stroke="black" d="M2054.66,-571.992C2032.5,-561.938 2007.75,-550.71 1984.94,-540.363"/>
<polygon fill="black" stroke="black" points="1986.19,-537.087 1975.64,-536.142 1983.3,-543.461 1986.19,-537.087"/>
</g>
<!-- EAID_A6507BCC_100D_4259_A7C7_0AA2D74B1D24___EAID_B17B14EA_C03D_426e_A771_0A5C5C4F68D2 -->
<g id="node11" class="node"><title>EAID_A6507BCC_100D_4259_A7C7_0AA2D74B1D24___EAID_B17B14EA_C03D_426e_A771_0A5C5C4F68D2</title>
<image xlink:href="img/activity_icon.png" width="30px" height="20px" preserveAspectRatio="xMinYMin meet" x="2313" y="-530"/>
<text text-anchor="start" x="2246" y="-495.8" font-family="Times New Roman,serif" font-weight="bold" font-size="14.00">verify user information:My</text>
<text text-anchor="start" x="2287" y="-481.8" font-family="Times New Roman,serif" font-weight="bold" font-size="14.00">account page</text>
</g>
<!-- EAID_5D630928_30E5_4e67_9FD4_7C33F145E639___EAID_A6507BCC_100D_4259_A7C7_0AA2D74B1D24&#45;&gt;EAID_A6507BCC_100D_4259_A7C7_0AA2D74B1D24___EAID_B17B14EA_C03D_426e_A771_0A5C5C4F68D2 -->
<g id="edge12" class="edge"><title>EAID_5D630928_30E5_4e67_9FD4_7C33F145E639___EAID_A6507BCC_100D_4259_A7C7_0AA2D74B1D24&#45;&gt;EAID_A6507BCC_100D_4259_A7C7_0AA2D74B1D24___EAID_B17B14EA_C03D_426e_A771_0A5C5C4F68D2</title>
<path fill="none" stroke="black" d="M2187.86,-571.992C2208.8,-561.983 2232.17,-550.81 2253.74,-540.501"/>
<polygon fill="black" stroke="black" points="2255.34,-543.613 2262.86,-536.142 2252.32,-537.298 2255.34,-543.613"/>
</g>
<!-- EAID_A6507BCC_100D_4259_A7C7_0AA2D74B1D24___EAID_215B8272_D1A2_45b7_8378_0145E5F60024 -->
<g id="node12" class="node"><title>EAID_A6507BCC_100D_4259_A7C7_0AA2D74B1D24___EAID_215B8272_D1A2_45b7_8378_0145E5F60024</title>
<image xlink:href="img/activity_icon.png" width="30px" height="20px" preserveAspectRatio="xMinYMin meet" x="2108" y="-530"/>
<text text-anchor="start" x="2038" y="-495.8" font-family="Times New Roman,serif" font-weight="bold" font-size="14.00">verify user information:user</text>
<text text-anchor="start" x="2111" y="-481.8" font-family="Times New Roman,serif" font-weight="bold" font-size="14.00">info</text>
</g>
<!-- EAID_5D630928_30E5_4e67_9FD4_7C33F145E639___EAID_A6507BCC_100D_4259_A7C7_0AA2D74B1D24&#45;&gt;EAID_A6507BCC_100D_4259_A7C7_0AA2D74B1D24___EAID_215B8272_D1A2_45b7_8378_0145E5F60024 -->
<g id="edge13" class="edge"><title>EAID_5D630928_30E5_4e67_9FD4_7C33F145E639___EAID_A6507BCC_100D_4259_A7C7_0AA2D74B1D24&#45;&gt;EAID_A6507BCC_100D_4259_A7C7_0AA2D74B1D24___EAID_215B8272_D1A2_45b7_8378_0145E5F60024</title>
<path fill="none" stroke="black" d="M2123,-571.992C2123,-563.859 2123,-554.959 2123,-546.378"/>
<polygon fill="black" stroke="black" points="2126.5,-546.142 2123,-536.142 2119.5,-546.142 2126.5,-546.142"/>
</g>
<!-- EAID_D3112094_48FE_4973_99B8_CAA2B2ABCA4F -->
<g id="node19" class="node"><title>EAID_D3112094_48FE_4973_99B8_CAA2B2ABCA4F</title>
<polygon fill="none" stroke="black" points="1425,-272.5 1425,-293.5 1827,-293.5 1827,-272.5 1425,-272.5"/>
<text text-anchor="start" x="1560.5" y="-280.3" font-family="Times New Roman,serif" font-weight="bold" font-size="14.00">Network Information</text>
<polygon fill="none" stroke="black" points="1425,-251.5 1425,-272.5 1827,-272.5 1827,-251.5 1425,-251.5"/>
<text text-anchor="start" x="1521.5" y="-259.3" font-family="Times New Roman,serif" font-weight="bold" font-size="14.00">EAJava_char consumerUsername</text>
<polygon fill="none" stroke="black" points="1425,-230.5 1425,-251.5 1827,-251.5 1827,-230.5 1425,-230.5"/>
<text text-anchor="start" x="1534" y="-238.3" font-family="Times New Roman,serif" font-weight="bold" font-size="14.00">EAJava_int notifyByMailFlag</text>
<polygon fill="none" stroke="black" points="1425,-209.5 1425,-230.5 1827,-230.5 1827,-209.5 1425,-209.5"/>
<text text-anchor="start" x="1525" y="-217.3" font-family="Times New Roman,serif" font-weight="bold" font-size="14.00">EAJava_char providerUsername</text>
<polygon fill="none" stroke="black" points="1425,-188.5 1425,-209.5 1827,-209.5 1827,-188.5 1425,-188.5"/>
<text text-anchor="start" x="1428" y="-196.3" font-family="Times New Roman,serif" font-weight="bold" font-size="14.00">EAID_E3A9CD90_CE83_4fef_AB57_3192129D90C0 undefined</text>
<polygon fill="none" stroke="black" points="1425,-167.5 1425,-188.5 1827,-188.5 1827,-167.5 1425,-167.5"/>
<text text-anchor="start" x="1558" y="-175.3" font-family="Times New Roman,serif" font-weight="bold" font-size="14.00">NetworkInformation()</text>
<polygon fill="none" stroke="black" points="1425,-146.5 1425,-167.5 1827,-167.5 1827,-146.5 1425,-146.5"/>
<text text-anchor="start" x="1583" y="-154.3" font-family="Times New Roman,serif" font-weight="bold" font-size="14.00">Subscription()</text>
<polygon fill="none" stroke="black" points="1424,-146 1424,-295 1828,-295 1828,-146 1424,-146"/>
</g>
<!-- EAID_5D630928_30E5_4e67_9FD4_7C33F145E639___EAID_A6507BCC_100D_4259_A7C7_0AA2D74B1D24&#45;&gt;EAID_D3112094_48FE_4973_99B8_CAA2B2ABCA4F -->
<g id="edge23" class="edge"><title>EAID_5D630928_30E5_4e67_9FD4_7C33F145E639___EAID_A6507BCC_100D_4259_A7C7_0AA2D74B1D24&#45;&gt;EAID_D3112094_48FE_4973_99B8_CAA2B2ABCA4F</title>
<path fill="none" stroke="black" stroke-dasharray="5,2" d="M2044.24,-594.656C1960.13,-584.417 1833.7,-564.793 1795,-536 1719.92,-480.145 1674.62,-380.79 1650.08,-308.668"/>
<polygon fill="black" stroke="black" points="1653.39,-307.506 1646.9,-299.125 1646.74,-309.719 1653.39,-307.506"/>
</g>
<!-- EAID_94C67730_6635_4b6f_AE73_3FF547DCE317___EAID_5D630928_30E5_4e67_9FD4_7C33F145E639&#45;&gt;EAID_5D630928_30E5_4e67_9FD4_7C33F145E639___EAID_A6507BCC_100D_4259_A7C7_0AA2D74B1D24 -->
<g id="edge14" class="edge"><title>EAID_94C67730_6635_4b6f_AE73_3FF547DCE317___EAID_5D630928_30E5_4e67_9FD4_7C33F145E639&#45;&gt;EAID_5D630928_30E5_4e67_9FD4_7C33F145E639___EAID_A6507BCC_100D_4259_A7C7_0AA2D74B1D24</title>
<path fill="none" stroke="black" d="M2123,-671.992C2123,-663.859 2123,-654.959 2123,-646.378"/>
<polygon fill="black" stroke="black" points="2126.5,-646.142 2123,-636.142 2119.5,-646.142 2126.5,-646.142"/>
</g>
<!-- EAID_94C67730_6635_4b6f_AE73_3FF547DCE317___EAID_5D630928_30E5_4e67_9FD4_7C33F145E639&#45;&gt;EAID_B17B14EA_C03D_426e_A771_0A5C5C4F68D2 -->
<g id="edge24" class="edge"><title>EAID_94C67730_6635_4b6f_AE73_3FF547DCE317___EAID_5D630928_30E5_4e67_9FD4_7C33F145E639&#45;&gt;EAID_B17B14EA_C03D_426e_A771_0A5C5C4F68D2</title>
<path fill="none" stroke="black" stroke-dasharray="5,2" d="M2184.26,-686.981C2254.95,-665.147 2369.13,-618.931 2429,-536 2493.23,-447.026 2492.24,-307.843 2488.47,-249.115"/>
<polygon fill="black" stroke="black" points="2491.93,-248.519 2487.72,-238.798 2484.95,-249.025 2491.93,-248.519"/>
</g>
<!-- EAID_A6507BCC_100D_4259_A7C7_0AA2D74B1D24___EAID_B17B14EA_C03D_426e_A771_0A5C5C4F68D2&#45;&gt;EAID_B17B14EA_C03D_426e_A771_0A5C5C4F68D2 -->
<g id="edge25" class="edge"><title>EAID_A6507BCC_100D_4259_A7C7_0AA2D74B1D24___EAID_B17B14EA_C03D_426e_A771_0A5C5C4F68D2&#45;&gt;EAID_B17B14EA_C03D_426e_A771_0A5C5C4F68D2</title>
<path fill="none" stroke="black" stroke-dasharray="5,2" d="M2345.51,-471.799C2376.9,-415.873 2442.19,-299.559 2471.36,-247.579"/>
<polygon fill="black" stroke="black" points="2474.53,-249.084 2476.37,-238.651 2468.43,-245.658 2474.53,-249.084"/>
</g>
<!-- EAID_A6507BCC_100D_4259_A7C7_0AA2D74B1D24___EAID_215B8272_D1A2_45b7_8378_0145E5F60024&#45;&gt;EAID_2D8A89EC_8E9E_4221_A322_670FAA646E76 -->
<g id="edge26" class="edge"><title>EAID_A6507BCC_100D_4259_A7C7_0AA2D74B1D24___EAID_215B8272_D1A2_45b7_8378_0145E5F60024&#45;&gt;EAID_2D8A89EC_8E9E_4221_A322_670FAA646E76</title>
<path fill="none" stroke="black" stroke-dasharray="5,2" d="M2116.68,-471.799C2114.56,-461.331 2112.01,-448.748 2109.2,-434.867"/>
<polygon fill="black" stroke="black" points="2112.63,-434.166 2107.22,-425.06 2105.77,-435.555 2112.63,-434.166"/>
</g>
<!-- EAID_0C04C435_FB6F_4cc0_B897_4059F303FD5E___EAID_966E6955_D6CD_45d6_AD87_7CE00FB192B7_STL -->
<g id="node13" class="node"><title>EAID_0C04C435_FB6F_4cc0_B897_4059F303FD5E___EAID_966E6955_D6CD_45d6_AD87_7CE00FB192B7_STL</title>
<image xlink:href="img/stimulus_icon.png" width="30px" height="20px" preserveAspectRatio="xMinYMin meet" x="1864" y="-1058"/>
<text text-anchor="start" x="1781" y="-1023.8" font-family="Times New Roman,serif" font-weight="bold" font-size="14.00">stl#User:Forgotten username or</text>
<text text-anchor="start" x="1836" y="-1009.8" font-family="Times New Roman,serif" font-weight="bold" font-size="14.00">password link</text>
</g>
<!-- EAID_0C04C435_FB6F_4cc0_B897_4059F303FD5E___EAID_966E6955_D6CD_45d6_AD87_7CE00FB192B7_STL&#45;&gt;EAID_0C04C435_FB6F_4cc0_B897_4059F303FD5E___EAID_966E6955_D6CD_45d6_AD87_7CE00FB192B7 -->
<g id="edge2" class="edge"><title>EAID_0C04C435_FB6F_4cc0_B897_4059F303FD5E___EAID_966E6955_D6CD_45d6_AD87_7CE00FB192B7_STL&#45;&gt;EAID_0C04C435_FB6F_4cc0_B897_4059F303FD5E___EAID_966E6955_D6CD_45d6_AD87_7CE00FB192B7</title>
<path fill="none" stroke="black" d="M1885.3,-999.765C1887.61,-988.363 1890.24,-975.288 1892.69,-963.154"/>
<polygon fill="black" stroke="black" points="1896.15,-963.734 1894.69,-953.24 1889.29,-962.349 1896.15,-963.734"/>
</g>
<!-- EAID_0C04C435_FB6F_4cc0_B897_4059F303FD5E___EAID_12627FF6_1E22_4930_B02E_3364B763E320_STL -->
<g id="node14" class="node"><title>EAID_0C04C435_FB6F_4cc0_B897_4059F303FD5E___EAID_12627FF6_1E22_4930_B02E_3364B763E320_STL</title>
<image xlink:href="img/stimulus_icon.png" width="30px" height="20px" preserveAspectRatio="xMinYMin meet" x="2104" y="-1058"/>
<text text-anchor="start" x="2015" y="-1023.8" font-family="Times New Roman,serif" font-weight="bold" font-size="14.00">stl#User:Invalid information error</text>
<text text-anchor="start" x="2093" y="-1009.8" font-family="Times New Roman,serif" font-weight="bold" font-size="14.00">message</text>
</g>
<!-- EAID_0C04C435_FB6F_4cc0_B897_4059F303FD5E___EAID_12627FF6_1E22_4930_B02E_3364B763E320_STL&#45;&gt;EAID_0C04C435_FB6F_4cc0_B897_4059F303FD5E___EAID_12627FF6_1E22_4930_B02E_3364B763E320 -->
<g id="edge4" class="edge"><title>EAID_0C04C435_FB6F_4cc0_B897_4059F303FD5E___EAID_12627FF6_1E22_4930_B02E_3364B763E320_STL&#45;&gt;EAID_0C04C435_FB6F_4cc0_B897_4059F303FD5E___EAID_12627FF6_1E22_4930_B02E_3364B763E320</title>
<path fill="none" stroke="black" d="M2119,-999.765C2119,-988.477 2119,-975.549 2119,-963.518"/>
<polygon fill="black" stroke="black" points="2122.5,-963.24 2119,-953.24 2115.5,-963.24 2122.5,-963.24"/>
</g>
<!-- EAID_0C04C435_FB6F_4cc0_B897_4059F303FD5E___EAID_B17B14EA_C03D_426e_A771_0A5C5C4F68D2_STL -->
<g id="node15" class="node"><title>EAID_0C04C435_FB6F_4cc0_B897_4059F303FD5E___EAID_B17B14EA_C03D_426e_A771_0A5C5C4F68D2_STL</title>
<image xlink:href="img/stimulus_icon.png" width="30px" height="20px" preserveAspectRatio="xMinYMin meet" x="2326" y="-1051"/>
<text text-anchor="start" x="2261" y="-1016.8" font-family="Times New Roman,serif" font-weight="bold" font-size="14.00">stl#User:My account page</text>
</g>
<!-- EAID_0C04C435_FB6F_4cc0_B897_4059F303FD5E___EAID_B17B14EA_C03D_426e_A771_0A5C5C4F68D2_STL&#45;&gt;EAID_0C04C435_FB6F_4cc0_B897_4059F303FD5E___EAID_B17B14EA_C03D_426e_A771_0A5C5C4F68D2 -->
<g id="edge5" class="edge"><title>EAID_0C04C435_FB6F_4cc0_B897_4059F303FD5E___EAID_B17B14EA_C03D_426e_A771_0A5C5C4F68D2_STL&#45;&gt;EAID_0C04C435_FB6F_4cc0_B897_4059F303FD5E___EAID_B17B14EA_C03D_426e_A771_0A5C5C4F68D2</title>
<path fill="none" stroke="black" d="M2341,-1006.27C2341,-991.633 2341,-972.87 2341,-956.765"/>
<polygon fill="black" stroke="black" points="2344.5,-956.636 2341,-946.636 2337.5,-956.636 2344.5,-956.636"/>
</g>
<!-- EAID_0C04C435_FB6F_4cc0_B897_4059F303FD5E___EAID_5D630928_30E5_4e67_9FD4_7C33F145E639_STL -->
<g id="node16" class="node"><title>EAID_0C04C435_FB6F_4cc0_B897_4059F303FD5E___EAID_5D630928_30E5_4e67_9FD4_7C33F145E639_STL</title>
<image xlink:href="img/stimulus_icon.png" width="30px" height="20px" preserveAspectRatio="xMinYMin meet" x="2506.5" y="-1051"/>
<text text-anchor="start" x="2460" y="-1016.8" font-family="Times New Roman,serif" font-weight="bold" font-size="14.00">stl#User:Login page</text>
</g>
<!-- EAID_0C04C435_FB6F_4cc0_B897_4059F303FD5E___EAID_5D630928_30E5_4e67_9FD4_7C33F145E639_STL&#45;&gt;EAID_0C04C435_FB6F_4cc0_B897_4059F303FD5E___EAID_5D630928_30E5_4e67_9FD4_7C33F145E639 -->
<g id="edge7" class="edge"><title>EAID_0C04C435_FB6F_4cc0_B897_4059F303FD5E___EAID_5D630928_30E5_4e67_9FD4_7C33F145E639_STL&#45;&gt;EAID_0C04C435_FB6F_4cc0_B897_4059F303FD5E___EAID_5D630928_30E5_4e67_9FD4_7C33F145E639</title>
<path fill="none" stroke="black" d="M2508.82,-1006.5C2480.21,-948.914 2408.63,-804.877 2375.86,-738.931"/>
<polygon fill="black" stroke="black" points="2378.9,-737.185 2371.32,-729.787 2372.63,-740.3 2378.9,-737.185"/>
</g>
<!-- EAID_E3A9CD90_CE83_4fef_AB57_3192129D90C0 -->
<g id="node20" class="node"><title>EAID_E3A9CD90_CE83_4fef_AB57_3192129D90C0</title>
<polygon fill="none" stroke="black" points="537,-367.5 537,-388.5 945,-388.5 945,-367.5 537,-367.5"/>
<text text-anchor="start" x="691.5" y="-375.3" font-family="Times New Roman,serif" font-weight="bold" font-size="14.00">Provider Profile</text>
<polygon fill="none" stroke="black" points="537,-346.5 537,-367.5 945,-367.5 945,-346.5 537,-346.5"/>
<text text-anchor="start" x="686" y="-354.3" font-family="Times New Roman,serif" font-weight="bold" font-size="14.00">EAJava_char city</text>
<polygon fill="none" stroke="black" points="537,-325.5 537,-346.5 945,-346.5 945,-325.5 537,-325.5"/>
<text text-anchor="start" x="680.5" y="-333.3" font-family="Times New Roman,serif" font-weight="bold" font-size="14.00">EAJava_char email</text>
<polygon fill="none" stroke="black" points="537,-304.5 537,-325.5 945,-325.5 945,-304.5 537,-304.5"/>
<text text-anchor="start" x="671" y="-312.3" font-family="Times New Roman,serif" font-weight="bold" font-size="14.00">EAJava_char Lifestyle</text>
<polygon fill="none" stroke="black" points="537,-283.5 537,-304.5 945,-304.5 945,-283.5 537,-283.5"/>
<text text-anchor="start" x="679" y="-291.3" font-family="Times New Roman,serif" font-weight="bold" font-size="14.00">EAJava_char Name</text>
<polygon fill="none" stroke="black" points="537,-262.5 537,-283.5 945,-283.5 945,-262.5 537,-262.5"/>
<text text-anchor="start" x="667" y="-270.3" font-family="Times New Roman,serif" font-weight="bold" font-size="14.00">EAJava_char Password</text>
<polygon fill="none" stroke="black" points="537,-241.5 537,-262.5 945,-262.5 945,-241.5 537,-241.5"/>
<text text-anchor="start" x="668.5" y="-249.3" font-family="Times New Roman,serif" font-weight="bold" font-size="14.00">EAJava_char speciality</text>
<polygon fill="none" stroke="black" points="537,-220.5 537,-241.5 945,-241.5 945,-220.5 537,-220.5"/>
<text text-anchor="start" x="682" y="-228.3" font-family="Times New Roman,serif" font-weight="bold" font-size="14.00">EAJava_char state</text>
<polygon fill="none" stroke="black" points="537,-199.5 537,-220.5 945,-220.5 945,-199.5 537,-199.5"/>
<text text-anchor="start" x="666" y="-207.3" font-family="Times New Roman,serif" font-weight="bold" font-size="14.00">EAJava_char Username</text>
<polygon fill="none" stroke="black" points="537,-178.5 537,-199.5 945,-199.5 945,-178.5 537,-178.5"/>
<text text-anchor="start" x="680" y="-186.3" font-family="Times New Roman,serif" font-weight="bold" font-size="14.00">EAJava_int zipcode</text>
<polygon fill="none" stroke="black" points="537,-157.5 537,-178.5 945,-178.5 945,-157.5 537,-157.5"/>
<text text-anchor="start" x="540" y="-165.3" font-family="Times New Roman,serif" font-weight="bold" font-size="14.00">EAID_2D8A89EC_8E9E_4221_A322_670FAA646E76 undefined</text>
<polygon fill="none" stroke="black" points="537,-136.5 537,-157.5 945,-157.5 945,-136.5 537,-136.5"/>
<text text-anchor="start" x="689" y="-144.3" font-family="Times New Roman,serif" font-weight="bold" font-size="14.00">ProviderProfile()</text>
<polygon fill="none" stroke="black" points="537,-115.5 537,-136.5 945,-136.5 945,-115.5 537,-115.5"/>
<text text-anchor="start" x="678.5" y="-123.3" font-family="Times New Roman,serif" font-weight="bold" font-size="14.00">Addproviderbutton()</text>
<polygon fill="none" stroke="black" points="537,-94.5 537,-115.5 945,-115.5 945,-94.5 537,-94.5"/>
<text text-anchor="start" x="638" y="-102.3" font-family="Times New Roman,serif" font-weight="bold" font-size="14.00">Providercreatedsuccessmessage()</text>
<polygon fill="none" stroke="black" points="537,-73.5 537,-94.5 945,-94.5 945,-73.5 537,-73.5"/>
<text text-anchor="start" x="677.5" y="-81.3" font-family="Times New Roman,serif" font-weight="bold" font-size="14.00">Searchprovidepage()</text>
<polygon fill="none" stroke="black" points="537,-52.5 537,-73.5 945,-73.5 945,-52.5 537,-52.5"/>
<text text-anchor="start" x="632.5" y="-60.3" font-family="Times New Roman,serif" font-weight="bold" font-size="14.00">Displayallproviderbasedoncriteria()</text>
<polygon fill="none" stroke="black" points="536,-51.5 536,-389.5 946,-389.5 946,-51.5 536,-51.5"/>
</g>
<!-- EAID_58EF6445_FBA8_43b1_9DB2_02C672C5035B -->
<g id="node21" class="node"><title>EAID_58EF6445_FBA8_43b1_9DB2_02C672C5035B</title>
<polygon fill="none" stroke="black" points="210,-304.5 210,-325.5 501,-325.5 501,-304.5 210,-304.5"/>
<text text-anchor="start" x="262" y="-312.3" font-family="Times New Roman,serif" font-weight="bold" font-size="14.00">Rating and review information</text>
<polygon fill="none" stroke="black" points="210,-283.5 210,-304.5 501,-304.5 501,-283.5 210,-283.5"/>
<text text-anchor="start" x="297.5" y="-291.3" font-family="Times New Roman,serif" font-weight="bold" font-size="14.00">EAJava_Date date</text>
<polygon fill="none" stroke="black" points="210,-262.5 210,-283.5 501,-283.5 501,-262.5 210,-262.5"/>
<text text-anchor="start" x="299" y="-270.3" font-family="Times New Roman,serif" font-weight="bold" font-size="14.00">EAJava_int rating</text>
<polygon fill="none" stroke="black" points="210,-241.5 210,-262.5 501,-262.5 501,-241.5 210,-241.5"/>
<text text-anchor="start" x="291" y="-249.3" font-family="Times New Roman,serif" font-weight="bold" font-size="14.00">EAJava_char review</text>
<polygon fill="none" stroke="black" points="210,-220.5 210,-241.5 501,-241.5 501,-220.5 210,-220.5"/>
<text text-anchor="start" x="263" y="-228.3" font-family="Times New Roman,serif" font-weight="bold" font-size="14.00">Ratingandreviewinformation()</text>
<polygon fill="none" stroke="black" points="210,-199.5 210,-220.5 501,-220.5 501,-199.5 210,-199.5"/>
<text text-anchor="start" x="330" y="-207.3" font-family="Times New Roman,serif" font-weight="bold" font-size="14.00">Rating()</text>
<polygon fill="none" stroke="black" points="210,-178.5 210,-199.5 501,-199.5 501,-178.5 210,-178.5"/>
<text text-anchor="start" x="256" y="-186.3" font-family="Times New Roman,serif" font-weight="bold" font-size="14.00">Updatesubscriptioninformation()</text>
<polygon fill="none" stroke="black" points="210,-157.5 210,-178.5 501,-178.5 501,-157.5 210,-157.5"/>
<text text-anchor="start" x="279.5" y="-165.3" font-family="Times New Roman,serif" font-weight="bold" font-size="14.00">Displayratinginputpage()</text>
<polygon fill="none" stroke="black" points="210,-136.5 210,-157.5 501,-157.5 501,-136.5 210,-136.5"/>
<text text-anchor="start" x="213" y="-144.3" font-family="Times New Roman,serif" font-weight="bold" font-size="14.00">updatetherecognizedinformationintodatabase()</text>
<polygon fill="none" stroke="black" points="210,-115.5 210,-136.5 501,-136.5 501,-115.5 210,-115.5"/>
<text text-anchor="start" x="256" y="-123.3" font-family="Times New Roman,serif" font-weight="bold" font-size="14.00">retrievematcheddoctorsfromdb()</text>
<polygon fill="none" stroke="black" points="208.5,-114.5 208.5,-326.5 501.5,-326.5 501.5,-114.5 208.5,-114.5"/>
</g>
<!-- EAID_7CDF4B18_D159_4400_8D59_C27718800C59 -->
<g id="node22" class="node"><title>EAID_7CDF4B18_D159_4400_8D59_C27718800C59</title>
<polygon fill="none" stroke="black" points="25,-241.5 25,-262.5 173,-262.5 173,-241.5 25,-241.5"/>
<text text-anchor="start" x="63" y="-249.3" font-family="Times New Roman,serif" font-weight="bold" font-size="14.00">FeatureList</text>
<polygon fill="none" stroke="black" points="25,-220.5 25,-241.5 173,-241.5 173,-220.5 25,-220.5"/>
<text text-anchor="start" x="58.5" y="-228.3" font-family="Times New Roman,serif" font-weight="bold" font-size="14.00">FeatureList()</text>
<polygon fill="none" stroke="black" points="25,-199.5 25,-220.5 173,-220.5 173,-199.5 25,-199.5"/>
<text text-anchor="start" x="28" y="-207.3" font-family="Times New Roman,serif" font-weight="bold" font-size="14.00">redirecttofeaturepage()</text>
<polygon fill="none" stroke="black" points="25,-178.5 25,-199.5 173,-199.5 173,-178.5 25,-178.5"/>
<text text-anchor="start" x="35" y="-186.3" font-family="Times New Roman,serif" font-weight="bold" font-size="14.00">updatefeaturedetail()</text>
<polygon fill="none" stroke="black" points="24,-177.5 24,-263.5 174,-263.5 174,-177.5 24,-177.5"/>
</g>
</g>
</svg>
