<?xml version="1.0" encoding="UTF-8" standalone="no"?>
<!DOCTYPE svg PUBLIC "-//W3C//DTD SVG 1.1//EN"
 "http://www.w3.org/Graphics/SVG/1.1/DTD/svg11.dtd">
<!-- Generated by graphviz version 2.38.0 (20140413.2041)
 -->
<!-- Title: g Pages: 1 -->
<svg width="814pt" height="140pt"
 viewBox="0.00 0.00 814.00 140.00" xmlns="http://www.w3.org/2000/svg" xmlns:xlink="http://www.w3.org/1999/xlink">
<g id="graph0" class="graph" transform="scale(1 1) rotate(0) translate(4 136)">
<title>g</title>
<polygon fill="white" stroke="none" points="-4,4 -4,-136 810,-136 810,4 -4,4"/>
<!-- EAID_A84B7F47_FB03_4768_9216_2D1631352C99 -->
<g id="node1" class="node"><title>EAID_A84B7F47_FB03_4768_9216_2D1631352C99</title>
<image xlink:href="img/actor1.png" width="61px" height="90px" preserveAspectRatio="xMinYMin meet" x="10.5" y="-126"/>
<text text-anchor="start" x="19" y="-12.8" font-family="Times New Roman,serif" font-size="24.00">User</text>
</g>
<!-- EAID_A244913F_7CC6_4a0c_9CAC_F88D33EA80B8 -->
<g id="node2" class="node"><title>EAID_A244913F_7CC6_4a0c_9CAC_F88D33EA80B8</title>
<image xlink:href="img/boundary3.png" width="115px" height="67px" preserveAspectRatio="xMinYMin meet" x="138.5" y="-114"/>
<text text-anchor="start" x="127" y="-23.8" font-family="Times New Roman,serif" font-size="24.00">Logout Button</text>
</g>
<!-- EAID_A84B7F47_FB03_4768_9216_2D1631352C99&#45;&gt;EAID_A244913F_7CC6_4a0c_9CAC_F88D33EA80B8 -->
<g id="edge1" class="edge"><title>EAID_A84B7F47_FB03_4768_9216_2D1631352C99&#45;&gt;EAID_A244913F_7CC6_4a0c_9CAC_F88D33EA80B8</title>
<path fill="none" stroke="black" d="M81.0301,-66C89.0331,-66 97.7485,-66 106.678,-66"/>
<polygon fill="black" stroke="black" points="106.824,-69.5001 116.824,-66 106.824,-62.5001 106.824,-69.5001"/>
</g>
<!-- EAID_73CA8CEE_601A_4619_A3C1_900CC5B2819F -->
<g id="node3" class="node"><title>EAID_73CA8CEE_601A_4619_A3C1_900CC5B2819F</title>
<image xlink:href="img/control1.png" width="106px" height="75px" preserveAspectRatio="xMinYMin meet" x="407" y="-118"/>
<text text-anchor="start" x="321.5" y="-19.8" font-family="Times New Roman,serif" font-size="24.00">Clear Local Storage and Exit</text>
</g>
<!-- EAID_A244913F_7CC6_4a0c_9CAC_F88D33EA80B8&#45;&gt;EAID_73CA8CEE_601A_4619_A3C1_900CC5B2819F -->
<g id="edge3" class="edge"><title>EAID_A244913F_7CC6_4a0c_9CAC_F88D33EA80B8&#45;&gt;EAID_73CA8CEE_601A_4619_A3C1_900CC5B2819F</title>
<path fill="none" stroke="black" d="M275.104,-66C283.415,-66 292.066,-66 300.887,-66"/>
<polygon fill="black" stroke="black" points="300.91,-69.5001 310.91,-66 300.91,-62.5001 300.91,-69.5001"/>
</g>
<!-- EAID_9EE3E5D0_D725_4829_A660_845EBDD2634E -->
<g id="node4" class="node"><title>EAID_9EE3E5D0_D725_4829_A660_845EBDD2634E</title>
<image xlink:href="img/activity_icon.png" width="30px" height="20px" preserveAspectRatio="xMinYMin meet" x="710" y="-91"/>
<text text-anchor="start" x="654" y="-48.8" font-family="Times New Roman,serif" font-weight="bold" font-size="24.00">Local Storage</text>
</g>
<!-- EAID_73CA8CEE_601A_4619_A3C1_900CC5B2819F&#45;&gt;EAID_9EE3E5D0_D725_4829_A660_845EBDD2634E -->
<g id="edge2" class="edge"><title>EAID_73CA8CEE_601A_4619_A3C1_900CC5B2819F&#45;&gt;EAID_9EE3E5D0_D725_4829_A660_845EBDD2634E</title>
<path fill="none" stroke="black" d="M608.042,-66C616.737,-66 625.339,-66 633.693,-66"/>
<polygon fill="black" stroke="black" points="633.751,-69.5001 643.75,-66 633.75,-62.5001 633.751,-69.5001"/>
</g>
</g>
</svg>
