<?xml version="1.0" encoding="UTF-8" standalone="no"?>
<!DOCTYPE svg PUBLIC "-//W3C//DTD SVG 1.1//EN"
 "http://www.w3.org/Graphics/SVG/1.1/DTD/svg11.dtd">
<!-- Generated by graphviz version 2.38.0 (20140413.2041)
 -->
<!-- Title: g Pages: 1 -->
<svg width="1040pt" height="260pt"
 viewBox="0.00 0.00 1040.00 260.00" xmlns="http://www.w3.org/2000/svg" xmlns:xlink="http://www.w3.org/1999/xlink">
<g id="graph0" class="graph" transform="scale(1 1) rotate(0) translate(4 256)">
<title>g</title>
<polygon fill="white" stroke="none" points="-4,4 -4,-256 1036,-256 1036,4 -4,4"/>
<!-- EAID_7CDF2B71_56EC_4d76_86B3_EE42C61EF759 -->
<g id="node1" class="node"><title>EAID_7CDF2B71_56EC_4d76_86B3_EE42C61EF759</title>
<image xlink:href="img/actor1.png" width="61px" height="90px" preserveAspectRatio="xMinYMin meet" x="10.5" y="-185.5"/>
<text text-anchor="start" x="19" y="-72.3" font-family="Times New Roman,serif" font-size="24.00">User</text>
</g>
<!-- EAID_C7EAC280_7454_4a4f_A15E_6E7A94D684D2 -->
<g id="node2" class="node"><title>EAID_C7EAC280_7454_4a4f_A15E_6E7A94D684D2</title>
<image xlink:href="img/boundary3.png" width="115px" height="67px" preserveAspectRatio="xMinYMin meet" x="145.5" y="-173.5"/>
<text text-anchor="start" x="127.5" y="-83.3" font-family="Times New Roman,serif" font-size="24.00">Single Weapon </text>
</g>
<!-- EAID_7CDF2B71_56EC_4d76_86B3_EE42C61EF759&#45;&gt;EAID_C7EAC280_7454_4a4f_A15E_6E7A94D684D2 -->
<g id="edge1" class="edge"><title>EAID_7CDF2B71_56EC_4d76_86B3_EE42C61EF759&#45;&gt;EAID_C7EAC280_7454_4a4f_A15E_6E7A94D684D2</title>
<path fill="none" stroke="black" d="M81.0506,-125.5C88.9844,-125.5 97.6386,-125.5 106.549,-125.5"/>
<polygon fill="black" stroke="black" points="106.694,-129 116.694,-125.5 106.694,-122 106.694,-129"/>
</g>
<!-- EAID_6A0DCF31_849B_48fa_8B1C_7390390C2E24 -->
<g id="node5" class="node"><title>EAID_6A0DCF31_849B_48fa_8B1C_7390390C2E24</title>
<image xlink:href="img/control1.png" width="106px" height="75px" preserveAspectRatio="xMinYMin meet" x="348" y="-177.5"/>
<text text-anchor="start" x="334" y="-79.3" font-family="Times New Roman,serif" font-size="24.00">Flick Weapon</text>
</g>
<!-- EAID_C7EAC280_7454_4a4f_A15E_6E7A94D684D2&#45;&gt;EAID_6A0DCF31_849B_48fa_8B1C_7390390C2E24 -->
<g id="edge6" class="edge"><title>EAID_C7EAC280_7454_4a4f_A15E_6E7A94D684D2&#45;&gt;EAID_6A0DCF31_849B_48fa_8B1C_7390390C2E24</title>
<path fill="none" stroke="black" d="M288.259,-125.5C296.678,-125.5 305.231,-125.5 313.665,-125.5"/>
<polygon fill="black" stroke="black" points="313.878,-129 323.877,-125.5 313.877,-122 313.878,-129"/>
</g>
<!-- EAID_A7C96F88_1384_4667_AD09_9FE4BA383E91 -->
<g id="node3" class="node"><title>EAID_A7C96F88_1384_4667_AD09_9FE4BA383E91</title>
<image xlink:href="img/control1.png" width="106px" height="75px" preserveAspectRatio="xMinYMin meet" x="592" y="-245.5"/>
<text text-anchor="start" x="524.5" y="-147.3" font-family="Times New Roman,serif" font-size="24.00">Check if weapon availble</text>
</g>
<!-- EAID_071C5A68_A3E8_4996_8404_29CD781D3980 -->
<g id="node4" class="node"><title>EAID_071C5A68_A3E8_4996_8404_29CD781D3980</title>
<image xlink:href="img/activity_icon.png" width="30px" height="20px" preserveAspectRatio="xMinYMin meet" x="907" y="-150.5"/>
<text text-anchor="start" x="821.5" y="-108.3" font-family="Times New Roman,serif" font-weight="bold" font-size="24.00">Weapons Inventory</text>
</g>
<!-- EAID_A7C96F88_1384_4667_AD09_9FE4BA383E91&#45;&gt;EAID_071C5A68_A3E8_4996_8404_29CD781D3980 -->
<g id="edge2" class="edge"><title>EAID_A7C96F88_1384_4667_AD09_9FE4BA383E91&#45;&gt;EAID_071C5A68_A3E8_4996_8404_29CD781D3980</title>
<path fill="none" stroke="black" d="M775.35,-161.392C783.846,-159.291 792.381,-157.18 800.825,-155.092"/>
<polygon fill="black" stroke="black" points="801.821,-158.452 810.688,-152.653 800.14,-151.656 801.821,-158.452"/>
</g>
<!-- EAID_6A0DCF31_849B_48fa_8B1C_7390390C2E24&#45;&gt;EAID_A7C96F88_1384_4667_AD09_9FE4BA383E91 -->
<g id="edge3" class="edge"><title>EAID_6A0DCF31_849B_48fa_8B1C_7390390C2E24&#45;&gt;EAID_A7C96F88_1384_4667_AD09_9FE4BA383E91</title>
<path fill="none" stroke="black" d="M478.081,-146.922C486.508,-149.295 495.273,-151.763 504.176,-154.27"/>
<polygon fill="black" stroke="black" points="503.308,-157.662 513.882,-157.003 505.205,-150.924 503.308,-157.662"/>
</g>
<!-- EAID_C26D31BA_8EB5_4151_92CC_1AC738DCC02F -->
<g id="node6" class="node"><title>EAID_C26D31BA_8EB5_4151_92CC_1AC738DCC02F</title>
<image xlink:href="img/control1.png" width="106px" height="75px" preserveAspectRatio="xMinYMin meet" x="591.5" y="-110.5"/>
<text text-anchor="start" x="524.5" y="-12.3" font-family="Times New Roman,serif" font-size="24.00">Decrease inventory count</text>
</g>
<!-- EAID_6A0DCF31_849B_48fa_8B1C_7390390C2E24&#45;&gt;EAID_C26D31BA_8EB5_4151_92CC_1AC738DCC02F -->
<g id="edge5" class="edge"><title>EAID_6A0DCF31_849B_48fa_8B1C_7390390C2E24&#45;&gt;EAID_C26D31BA_8EB5_4151_92CC_1AC738DCC02F</title>
<path fill="none" stroke="black" d="M478.081,-104.393C486.609,-102.027 495.484,-99.5644 504.498,-97.0636"/>
<polygon fill="black" stroke="black" points="505.624,-100.384 514.324,-94.3377 503.752,-93.6385 505.624,-100.384"/>
</g>
<!-- EAID_C26D31BA_8EB5_4151_92CC_1AC738DCC02F&#45;&gt;EAID_071C5A68_A3E8_4996_8404_29CD781D3980 -->
<g id="edge4" class="edge"><title>EAID_C26D31BA_8EB5_4151_92CC_1AC738DCC02F&#45;&gt;EAID_071C5A68_A3E8_4996_8404_29CD781D3980</title>
<path fill="none" stroke="black" d="M774.545,-89.9401C783.366,-92.0893 792.234,-94.2497 801.002,-96.386"/>
<polygon fill="black" stroke="black" points="800.308,-99.8191 810.852,-98.7857 801.965,-93.018 800.308,-99.8191"/>
</g>
</g>
</svg>
