<?xml version="1.0" encoding="UTF-8" standalone="no"?>
<!DOCTYPE svg PUBLIC "-//W3C//DTD SVG 1.1//EN"
 "http://www.w3.org/Graphics/SVG/1.1/DTD/svg11.dtd">
<!-- Generated by graphviz version 2.38.0 (20140413.2041)
 -->
<!-- Title: g Pages: 1 -->
<svg width="1828pt" height="947pt"
 viewBox="0.00 0.00 1828.00 947.00" xmlns="http://www.w3.org/2000/svg" xmlns:xlink="http://www.w3.org/1999/xlink">
<g id="graph0" class="graph" transform="scale(1 1) rotate(0) translate(4 943)">
<title>g</title>
<polygon fill="white" stroke="none" points="-4,4 -4,-943 1824,-943 1824,4 -4,4"/>
<g id="clust1" class="cluster"><title>cluster0</title>
<polygon fill="none" stroke="black" stroke-width="2" points="421,-275 421,-820 929,-820 929,-275 421,-275"/>
<text text-anchor="start" x="653" y="-805.8" font-family="Times New Roman,serif" font-weight="bold" font-size="14.00">System</text>
</g>
<g id="clust3" class="cluster"><title>cluster1000</title>
<polygon fill="none" stroke="black" stroke-width="2" points="8,-8 8,-267 1812,-267 1812,-8 8,-8"/>
<text text-anchor="start" x="864.5" y="-252.8" font-family="Times New Roman,serif" font-weight="bold" font-size="14.00">Domain Model</text>
</g>
<g id="clust2" class="cluster"><title>cluster1</title>
<polygon fill="none" stroke="black" stroke-width="2" points="389,-828 389,-931 989,-931 989,-828 389,-828"/>
<text text-anchor="start" x="674.5" y="-916.8" font-family="Times New Roman,serif" font-weight="bold" font-size="14.00">User</text>
</g>
<!-- EAID_457D5525_3CA3_4282_9AAD_1417F399BAA3___EAID_57974DE0_4FF8_4fd1_A360_3CB092D338EA -->
<g id="node1" class="node"><title>EAID_457D5525_3CA3_4282_9AAD_1417F399BAA3___EAID_57974DE0_4FF8_4fd1_A360_3CB092D338EA</title>
<image xlink:href="img/activity_icon.png" width="30px" height="20px" preserveAspectRatio="xMinYMin meet" x="489" y="-783"/>
<text text-anchor="start" x="439" y="-748.8" font-family="Times New Roman,serif" font-weight="bold" font-size="14.00">User:survey has been</text>
<text text-anchor="start" x="453" y="-734.8" font-family="Times New Roman,serif" font-weight="bold" font-size="14.00">created message</text>
</g>
<!-- EAID_E7A3FC56_83D3_46d3_B8CE_409BCF3C618D -->
<g id="node18" class="node"><title>EAID_E7A3FC56_83D3_46d3_B8CE_409BCF3C618D</title>
<polygon fill="none" stroke="black" points="177,-136 177,-157 383,-157 383,-136 177,-136"/>
<text text-anchor="start" x="231" y="-143.8" font-family="Times New Roman,serif" font-weight="bold" font-size="14.00">successmessage</text>
<polygon fill="none" stroke="black" points="177,-115 177,-136 383,-136 383,-115 177,-115"/>
<text text-anchor="start" x="226.5" y="-122.8" font-family="Times New Roman,serif" font-weight="bold" font-size="14.00">successmessage()</text>
<polygon fill="none" stroke="black" points="177,-94 177,-115 383,-115 383,-94 177,-94"/>
<text text-anchor="start" x="180" y="-101.8" font-family="Times New Roman,serif" font-weight="bold" font-size="14.00">projecthasbeencreatedmessage()</text>
<polygon fill="none" stroke="black" points="176,-93.5 176,-158.5 384,-158.5 384,-93.5 176,-93.5"/>
</g>
<!-- EAID_457D5525_3CA3_4282_9AAD_1417F399BAA3___EAID_57974DE0_4FF8_4fd1_A360_3CB092D338EA&#45;&gt;EAID_E7A3FC56_83D3_46d3_B8CE_409BCF3C618D -->
<g id="edge10" class="edge"><title>EAID_457D5525_3CA3_4282_9AAD_1417F399BAA3___EAID_57974DE0_4FF8_4fd1_A360_3CB092D338EA&#45;&gt;EAID_E7A3FC56_83D3_46d3_B8CE_409BCF3C618D</title>
<path fill="none" stroke="black" stroke-dasharray="5,2" d="M428.767,-753.722C300.45,-745.392 53,-708.059 53,-544 53,-544 53,-544 53,-435 53,-363.389 20.7236,-324.988 72,-275 85.7435,-261.602 140.917,-275.75 158,-267 199.618,-245.683 233.238,-203.582 254.565,-171.09"/>
<polygon fill="black" stroke="black" points="257.536,-172.94 259.984,-162.632 251.642,-169.164 257.536,-172.94"/>
</g>
<!-- EAID_457D5525_3CA3_4282_9AAD_1417F399BAA3___EAID_A7984493_920A_49d5_BA20_B82E67D26369 -->
<g id="node2" class="node"><title>EAID_457D5525_3CA3_4282_9AAD_1417F399BAA3___EAID_A7984493_920A_49d5_BA20_B82E67D26369</title>
<image xlink:href="img/activity_icon.png" width="30px" height="20px" preserveAspectRatio="xMinYMin meet" x="823.5" y="-562"/>
<text text-anchor="start" x="766" y="-527.8" font-family="Times New Roman,serif" font-weight="bold" font-size="14.00">User:Survey detail page</text>
</g>
<!-- EAID_A7984493_920A_49d5_BA20_B82E67D26369___EAID_7EDF75F1_E5DE_4090_9613_B640CE543ABC -->
<g id="node7" class="node"><title>EAID_A7984493_920A_49d5_BA20_B82E67D26369___EAID_7EDF75F1_E5DE_4090_9613_B640CE543ABC</title>
<image xlink:href="img/activity_icon.png" width="30px" height="20px" preserveAspectRatio="xMinYMin meet" x="568.5" y="-469"/>
<text text-anchor="start" x="514" y="-434.8" font-family="Times New Roman,serif" font-weight="bold" font-size="14.00">Survey detail page:add</text>
<text text-anchor="start" x="531" y="-420.8" font-family="Times New Roman,serif" font-weight="bold" font-size="14.00">survey detail into</text>
<text text-anchor="start" x="575.5" y="-406.8" font-family="Times New Roman,serif" font-weight="bold" font-size="14.00">db</text>
</g>
<!-- EAID_457D5525_3CA3_4282_9AAD_1417F399BAA3___EAID_A7984493_920A_49d5_BA20_B82E67D26369&#45;&gt;EAID_A7984493_920A_49d5_BA20_B82E67D26369___EAID_7EDF75F1_E5DE_4090_9613_B640CE543ABC -->
<g id="edge2" class="edge"><title>EAID_457D5525_3CA3_4282_9AAD_1417F399BAA3___EAID_A7984493_920A_49d5_BA20_B82E67D26369&#45;&gt;EAID_A7984493_920A_49d5_BA20_B82E67D26369___EAID_7EDF75F1_E5DE_4090_9613_B640CE543ABC</title>
<path fill="none" stroke="black" d="M778.214,-517.382C746.593,-504.362 707.144,-488.118 672.001,-473.648"/>
<polygon fill="black" stroke="black" points="673.271,-470.386 662.692,-469.814 670.606,-476.858 673.271,-470.386"/>
</g>
<!-- EAID_AEACD2F4_1F64_4d78_9455_CF760D2EB4F5 -->
<g id="node20" class="node"><title>EAID_AEACD2F4_1F64_4d78_9455_CF760D2EB4F5</title>
<text text-anchor="middle" x="247" y="-318.3" font-family="Times New Roman,serif" font-size="14.00">EAID_AEACD2F4_1F64_4d78_9455_CF760D2EB4F5</text>
</g>
<!-- EAID_457D5525_3CA3_4282_9AAD_1417F399BAA3___EAID_A7984493_920A_49d5_BA20_B82E67D26369&#45;&gt;EAID_AEACD2F4_1F64_4d78_9455_CF760D2EB4F5 -->
<g id="edge11" class="edge"><title>EAID_457D5525_3CA3_4282_9AAD_1417F399BAA3___EAID_A7984493_920A_49d5_BA20_B82E67D26369&#45;&gt;EAID_AEACD2F4_1F64_4d78_9455_CF760D2EB4F5</title>
<path fill="none" stroke="black" stroke-dasharray="5,2" d="M769.826,-517.491C761.854,-515.084 753.789,-512.852 746,-511 635.932,-484.827 590.495,-534.065 494,-475 457.821,-452.855 472.451,-423.083 439,-397 406.933,-371.996 365.423,-354.598 329.207,-342.985"/>
<polygon fill="black" stroke="black" points="330.224,-339.635 319.636,-340.009 328.146,-346.32 330.224,-339.635"/>
</g>
<!-- EAID_457D5525_3CA3_4282_9AAD_1417F399BAA3___EAID_7EE2E4E9_8136_458f_83A3_9D5C9CA4864D -->
<g id="node3" class="node"><title>EAID_457D5525_3CA3_4282_9AAD_1417F399BAA3___EAID_7EE2E4E9_8136_458f_83A3_9D5C9CA4864D</title>
<image xlink:href="img/activity_icon.png" width="30px" height="20px" preserveAspectRatio="xMinYMin meet" x="666.5" y="-783"/>
<text text-anchor="start" x="608" y="-748.8" font-family="Times New Roman,serif" font-weight="bold" font-size="14.00">User:Survey detail input</text>
<text text-anchor="start" x="666.5" y="-734.8" font-family="Times New Roman,serif" font-weight="bold" font-size="14.00">page</text>
</g>
<!-- EAID_7EE2E4E9_8136_458f_83A3_9D5C9CA4864D___EAID_771D7FB0_2B67_4d3b_A228_6F95E900E1DC -->
<g id="node6" class="node"><title>EAID_7EE2E4E9_8136_458f_83A3_9D5C9CA4864D___EAID_771D7FB0_2B67_4d3b_A228_6F95E900E1DC</title>
<image xlink:href="img/activity_icon.png" width="30px" height="20px" preserveAspectRatio="xMinYMin meet" x="569" y="-683"/>
<text text-anchor="start" x="526.5" y="-648.8" font-family="Times New Roman,serif" font-weight="bold" font-size="14.00">Survey detail input</text>
<text text-anchor="start" x="513" y="-634.8" font-family="Times New Roman,serif" font-weight="bold" font-size="14.00">page:Input survey brief</text>
<text text-anchor="start" x="572" y="-620.8" font-family="Times New Roman,serif" font-weight="bold" font-size="14.00">info</text>
</g>
<!-- EAID_457D5525_3CA3_4282_9AAD_1417F399BAA3___EAID_7EE2E4E9_8136_458f_83A3_9D5C9CA4864D&#45;&gt;EAID_7EE2E4E9_8136_458f_83A3_9D5C9CA4864D___EAID_771D7FB0_2B67_4d3b_A228_6F95E900E1DC -->
<g id="edge4" class="edge"><title>EAID_457D5525_3CA3_4282_9AAD_1417F399BAA3___EAID_7EE2E4E9_8136_458f_83A3_9D5C9CA4864D&#45;&gt;EAID_7EE2E4E9_8136_458f_83A3_9D5C9CA4864D___EAID_771D7FB0_2B67_4d3b_A228_6F95E900E1DC</title>
<path fill="none" stroke="black" d="M652.159,-724.781C644.051,-716.004 635.061,-706.272 626.34,-696.832"/>
<polygon fill="black" stroke="black" points="628.783,-694.319 619.427,-689.348 623.642,-699.069 628.783,-694.319"/>
</g>
<!-- EAID_457D5525_3CA3_4282_9AAD_1417F399BAA3___EAID_7EE2E4E9_8136_458f_83A3_9D5C9CA4864D&#45;&gt;EAID_AEACD2F4_1F64_4d78_9455_CF760D2EB4F5 -->
<g id="edge12" class="edge"><title>EAID_457D5525_3CA3_4282_9AAD_1417F399BAA3___EAID_7EE2E4E9_8136_458f_83A3_9D5C9CA4864D&#45;&gt;EAID_AEACD2F4_1F64_4d78_9455_CF760D2EB4F5</title>
<path fill="none" stroke="black" stroke-dasharray="5,2" d="M597.311,-727.455C552.211,-711.815 503.808,-694.512 494,-689 423.746,-649.521 408.561,-633.371 353,-575 315.062,-535.142 302.547,-525.195 280,-475 261.491,-433.795 253.081,-381.54 249.474,-350.269"/>
<polygon fill="black" stroke="black" points="252.934,-349.706 248.39,-340.136 245.974,-350.451 252.934,-349.706"/>
</g>
<!-- EAID_771D7FB0_2B67_4d3b_A228_6F95E900E1DC___EAID_A7984493_920A_49d5_BA20_B82E67D26369 -->
<g id="node4" class="node"><title>EAID_771D7FB0_2B67_4d3b_A228_6F95E900E1DC___EAID_A7984493_920A_49d5_BA20_B82E67D26369</title>
<image xlink:href="img/activity_icon.png" width="30px" height="20px" preserveAspectRatio="xMinYMin meet" x="642" y="-569"/>
<text text-anchor="start" x="602.5" y="-534.8" font-family="Times New Roman,serif" font-weight="bold" font-size="14.00">Input survey brief</text>
<text text-anchor="start" x="587" y="-520.8" font-family="Times New Roman,serif" font-weight="bold" font-size="14.00">info:Survey detail page</text>
</g>
<!-- EAID_771D7FB0_2B67_4d3b_A228_6F95E900E1DC___EAID_A7984493_920A_49d5_BA20_B82E67D26369&#45;&gt;EAID_A7984493_920A_49d5_BA20_B82E67D26369___EAID_7EDF75F1_E5DE_4090_9613_B640CE543ABC -->
<g id="edge6" class="edge"><title>EAID_771D7FB0_2B67_4d3b_A228_6F95E900E1DC___EAID_A7984493_920A_49d5_BA20_B82E67D26369&#45;&gt;EAID_A7984493_920A_49d5_BA20_B82E67D26369___EAID_7EDF75F1_E5DE_4090_9613_B640CE543ABC</title>
<path fill="none" stroke="black" d="M634.998,-510.781C628.996,-502.265 622.36,-492.849 615.894,-483.674"/>
<polygon fill="black" stroke="black" points="618.648,-481.506 610.027,-475.348 612.926,-485.539 618.648,-481.506"/>
</g>
<!-- EAID_771D7FB0_2B67_4d3b_A228_6F95E900E1DC___EAID_A7984493_920A_49d5_BA20_B82E67D26369&#45;&gt;EAID_AEACD2F4_1F64_4d78_9455_CF760D2EB4F5 -->
<g id="edge13" class="edge"><title>EAID_771D7FB0_2B67_4d3b_A228_6F95E900E1DC___EAID_A7984493_920A_49d5_BA20_B82E67D26369&#45;&gt;EAID_AEACD2F4_1F64_4d78_9455_CF760D2EB4F5</title>
<path fill="none" stroke="black" stroke-dasharray="5,2" d="M576.547,-514.232C573.324,-513.137 570.132,-512.056 567,-511 518.658,-494.692 500.392,-503.387 458,-475 420.027,-449.572 426.88,-425.304 391,-397 363.441,-375.26 328.502,-357.121 299.941,-344.242"/>
<polygon fill="black" stroke="black" points="301.081,-340.92 290.52,-340.079 298.252,-347.322 301.081,-340.92"/>
</g>
<!-- EAID_771D7FB0_2B67_4d3b_A228_6F95E900E1DC___EAID_AEACD2F4_1F64_4d78_9455_CF760D2EB4F5 -->
<g id="node5" class="node"><title>EAID_771D7FB0_2B67_4d3b_A228_6F95E900E1DC___EAID_AEACD2F4_1F64_4d78_9455_CF760D2EB4F5</title>
<image xlink:href="img/activity_icon.png" width="30px" height="20px" preserveAspectRatio="xMinYMin meet" x="479.5" y="-569"/>
<text text-anchor="start" x="440" y="-534.8" font-family="Times New Roman,serif" font-weight="bold" font-size="14.00">Input survey brief</text>
<text text-anchor="start" x="450.5" y="-520.8" font-family="Times New Roman,serif" font-weight="bold" font-size="14.00">info:Survey db</text>
</g>
<!-- EAID_771D7FB0_2B67_4d3b_A228_6F95E900E1DC___EAID_AEACD2F4_1F64_4d78_9455_CF760D2EB4F5&#45;&gt;EAID_AEACD2F4_1F64_4d78_9455_CF760D2EB4F5 -->
<g id="edge14" class="edge"><title>EAID_771D7FB0_2B67_4d3b_A228_6F95E900E1DC___EAID_AEACD2F4_1F64_4d78_9455_CF760D2EB4F5&#45;&gt;EAID_AEACD2F4_1F64_4d78_9455_CF760D2EB4F5</title>
<path fill="none" stroke="black" stroke-dasharray="5,2" d="M455.592,-510.68C442.481,-499.661 427.885,-487.025 415,-475 379.614,-441.976 374.812,-429.561 339,-397 319.404,-379.183 296.152,-360.499 277.927,-346.364"/>
<polygon fill="black" stroke="black" points="279.996,-343.539 269.938,-340.208 275.723,-349.084 279.996,-343.539"/>
</g>
<!-- EAID_7EE2E4E9_8136_458f_83A3_9D5C9CA4864D___EAID_771D7FB0_2B67_4d3b_A228_6F95E900E1DC&#45;&gt;EAID_771D7FB0_2B67_4d3b_A228_6F95E900E1DC___EAID_A7984493_920A_49d5_BA20_B82E67D26369 -->
<g id="edge7" class="edge"><title>EAID_7EE2E4E9_8136_458f_83A3_9D5C9CA4864D___EAID_771D7FB0_2B67_4d3b_A228_6F95E900E1DC&#45;&gt;EAID_771D7FB0_2B67_4d3b_A228_6F95E900E1DC___EAID_A7984493_920A_49d5_BA20_B82E67D26369</title>
<path fill="none" stroke="black" d="M610.561,-610.796C616.74,-601.908 623.33,-592.43 629.546,-583.488"/>
<polygon fill="black" stroke="black" points="632.531,-585.326 635.366,-575.117 626.784,-581.33 632.531,-585.326"/>
</g>
<!-- EAID_7EE2E4E9_8136_458f_83A3_9D5C9CA4864D___EAID_771D7FB0_2B67_4d3b_A228_6F95E900E1DC&#45;&gt;EAID_771D7FB0_2B67_4d3b_A228_6F95E900E1DC___EAID_AEACD2F4_1F64_4d78_9455_CF760D2EB4F5 -->
<g id="edge8" class="edge"><title>EAID_7EE2E4E9_8136_458f_83A3_9D5C9CA4864D___EAID_771D7FB0_2B67_4d3b_A228_6F95E900E1DC&#45;&gt;EAID_771D7FB0_2B67_4d3b_A228_6F95E900E1DC___EAID_AEACD2F4_1F64_4d78_9455_CF760D2EB4F5</title>
<path fill="none" stroke="black" d="M551.253,-610.796C543.479,-601.725 535.176,-592.039 527.374,-582.936"/>
<polygon fill="black" stroke="black" points="529.837,-580.432 520.672,-575.117 524.522,-584.988 529.837,-580.432"/>
</g>
<!-- EAID_7EE2E4E9_8136_458f_83A3_9D5C9CA4864D___EAID_771D7FB0_2B67_4d3b_A228_6F95E900E1DC&#45;&gt;EAID_AEACD2F4_1F64_4d78_9455_CF760D2EB4F5 -->
<g id="edge15" class="edge"><title>EAID_7EE2E4E9_8136_458f_83A3_9D5C9CA4864D___EAID_771D7FB0_2B67_4d3b_A228_6F95E900E1DC&#45;&gt;EAID_AEACD2F4_1F64_4d78_9455_CF760D2EB4F5</title>
<path fill="none" stroke="black" stroke-dasharray="5,2" d="M502.66,-621.127C474.866,-609.385 444.612,-593.98 420,-575 338.647,-512.261 281.402,-400.299 258.326,-349.44"/>
<polygon fill="black" stroke="black" points="261.438,-347.824 254.17,-340.115 255.045,-350.674 261.438,-347.824"/>
</g>
<!-- EAID_7EDF75F1_E5DE_4090_9613_B640CE543ABC___EAID_57974DE0_4FF8_4fd1_A360_3CB092D338EA -->
<g id="node8" class="node"><title>EAID_7EDF75F1_E5DE_4090_9613_B640CE543ABC___EAID_57974DE0_4FF8_4fd1_A360_3CB092D338EA</title>
<image xlink:href="img/activity_icon.png" width="30px" height="20px" preserveAspectRatio="xMinYMin meet" x="493" y="-355"/>
<text text-anchor="start" x="456" y="-320.8" font-family="Times New Roman,serif" font-weight="bold" font-size="14.00">add survey detail</text>
<text text-anchor="start" x="452.5" y="-306.8" font-family="Times New Roman,serif" font-weight="bold" font-size="14.00">into db:survey has</text>
<text text-anchor="start" x="441" y="-292.8" font-family="Times New Roman,serif" font-weight="bold" font-size="14.00">been created message</text>
</g>
<!-- EAID_A7984493_920A_49d5_BA20_B82E67D26369___EAID_7EDF75F1_E5DE_4090_9613_B640CE543ABC&#45;&gt;EAID_7EDF75F1_E5DE_4090_9613_B640CE543ABC___EAID_57974DE0_4FF8_4fd1_A360_3CB092D338EA -->
<g id="edge9" class="edge"><title>EAID_A7984493_920A_49d5_BA20_B82E67D26369___EAID_7EDF75F1_E5DE_4090_9613_B640CE543ABC&#45;&gt;EAID_7EDF75F1_E5DE_4090_9613_B640CE543ABC___EAID_57974DE0_4FF8_4fd1_A360_3CB092D338EA</title>
<path fill="none" stroke="black" d="M557.399,-396.769C551.546,-388.029 545.262,-378.645 539.204,-369.597"/>
<polygon fill="black" stroke="black" points="541.958,-367.42 533.486,-361.058 536.142,-371.315 541.958,-367.42"/>
</g>
<!-- EAID_A7984493_920A_49d5_BA20_B82E67D26369___EAID_7EDF75F1_E5DE_4090_9613_B640CE543ABC&#45;&gt;EAID_AEACD2F4_1F64_4d78_9455_CF760D2EB4F5 -->
<g id="edge16" class="edge"><title>EAID_A7984493_920A_49d5_BA20_B82E67D26369___EAID_7EDF75F1_E5DE_4090_9613_B640CE543ABC&#45;&gt;EAID_AEACD2F4_1F64_4d78_9455_CF760D2EB4F5</title>
<path fill="none" stroke="black" stroke-dasharray="5,2" d="M503.243,-403.222C497.426,-401.068 491.633,-398.973 486,-397 429.237,-377.124 363.961,-357.101 315.985,-342.904"/>
<polygon fill="black" stroke="black" points="316.906,-339.527 306.324,-340.055 314.926,-346.241 316.906,-339.527"/>
</g>
<!-- EAID_7EDF75F1_E5DE_4090_9613_B640CE543ABC___EAID_57974DE0_4FF8_4fd1_A360_3CB092D338EA&#45;&gt;EAID_E7A3FC56_83D3_46d3_B8CE_409BCF3C618D -->
<g id="edge17" class="edge"><title>EAID_7EDF75F1_E5DE_4090_9613_B640CE543ABC___EAID_57974DE0_4FF8_4fd1_A360_3CB092D338EA&#45;&gt;EAID_E7A3FC56_83D3_46d3_B8CE_409BCF3C618D</title>
<path fill="none" stroke="black" stroke-dasharray="5,2" d="M438.44,-282.839C432.918,-280.103 427.393,-277.457 422,-275 412.911,-270.859 409.18,-272.73 401,-267 364.081,-241.14 331.284,-201.572 309.18,-171.09"/>
<polygon fill="black" stroke="black" points="311.89,-168.863 303.235,-162.753 306.191,-172.927 311.89,-168.863"/>
</g>
<!-- EAID_457D5525_3CA3_4282_9AAD_1417F399BAA3___EAID_57974DE0_4FF8_4fd1_A360_3CB092D338EA_STL -->
<g id="node9" class="node"><title>EAID_457D5525_3CA3_4282_9AAD_1417F399BAA3___EAID_57974DE0_4FF8_4fd1_A360_3CB092D338EA_STL</title>
<image xlink:href="img/stimulus_icon.png" width="30px" height="20px" preserveAspectRatio="xMinYMin meet" x="468.5" y="-894"/>
<text text-anchor="start" x="408" y="-859.8" font-family="Times New Roman,serif" font-weight="bold" font-size="14.00">stl#User:survey has been</text>
<text text-anchor="start" x="432.5" y="-845.8" font-family="Times New Roman,serif" font-weight="bold" font-size="14.00">created message</text>
</g>
<!-- EAID_457D5525_3CA3_4282_9AAD_1417F399BAA3___EAID_57974DE0_4FF8_4fd1_A360_3CB092D338EA_STL&#45;&gt;EAID_457D5525_3CA3_4282_9AAD_1417F399BAA3___EAID_57974DE0_4FF8_4fd1_A360_3CB092D338EA -->
<g id="edge1" class="edge"><title>EAID_457D5525_3CA3_4282_9AAD_1417F399BAA3___EAID_57974DE0_4FF8_4fd1_A360_3CB092D338EA_STL&#45;&gt;EAID_457D5525_3CA3_4282_9AAD_1417F399BAA3___EAID_57974DE0_4FF8_4fd1_A360_3CB092D338EA</title>
<path fill="none" stroke="black" d="M489.018,-835.765C491.215,-824.363 493.734,-811.288 496.071,-799.154"/>
<polygon fill="black" stroke="black" points="499.526,-799.721 497.981,-789.24 492.653,-798.397 499.526,-799.721"/>
</g>
<!-- EAID_457D5525_3CA3_4282_9AAD_1417F399BAA3___EAID_A7984493_920A_49d5_BA20_B82E67D26369_STL -->
<g id="node10" class="node"><title>EAID_457D5525_3CA3_4282_9AAD_1417F399BAA3___EAID_A7984493_920A_49d5_BA20_B82E67D26369_STL</title>
<image xlink:href="img/stimulus_icon.png" width="30px" height="20px" preserveAspectRatio="xMinYMin meet" x="872.5" y="-887"/>
<text text-anchor="start" x="804" y="-852.8" font-family="Times New Roman,serif" font-weight="bold" font-size="14.00">stl#User:Survey detail page</text>
</g>
<!-- EAID_457D5525_3CA3_4282_9AAD_1417F399BAA3___EAID_A7984493_920A_49d5_BA20_B82E67D26369_STL&#45;&gt;EAID_457D5525_3CA3_4282_9AAD_1417F399BAA3___EAID_A7984493_920A_49d5_BA20_B82E67D26369 -->
<g id="edge3" class="edge"><title>EAID_457D5525_3CA3_4282_9AAD_1417F399BAA3___EAID_A7984493_920A_49d5_BA20_B82E67D26369_STL&#45;&gt;EAID_457D5525_3CA3_4282_9AAD_1417F399BAA3___EAID_A7984493_920A_49d5_BA20_B82E67D26369</title>
<path fill="none" stroke="black" d="M883.277,-842.457C874.645,-785.559 853.246,-644.499 843.273,-578.757"/>
<polygon fill="black" stroke="black" points="846.678,-577.867 841.718,-568.505 839.757,-578.917 846.678,-577.867"/>
</g>
<!-- EAID_457D5525_3CA3_4282_9AAD_1417F399BAA3___EAID_7EE2E4E9_8136_458f_83A3_9D5C9CA4864D_STL -->
<g id="node11" class="node"><title>EAID_457D5525_3CA3_4282_9AAD_1417F399BAA3___EAID_7EE2E4E9_8136_458f_83A3_9D5C9CA4864D_STL</title>
<image xlink:href="img/stimulus_icon.png" width="30px" height="20px" preserveAspectRatio="xMinYMin meet" x="666.5" y="-894"/>
<text text-anchor="start" x="597" y="-859.8" font-family="Times New Roman,serif" font-weight="bold" font-size="14.00">stl#User:Survey detail input</text>
<text text-anchor="start" x="666.5" y="-845.8" font-family="Times New Roman,serif" font-weight="bold" font-size="14.00">page</text>
</g>
<!-- EAID_457D5525_3CA3_4282_9AAD_1417F399BAA3___EAID_7EE2E4E9_8136_458f_83A3_9D5C9CA4864D_STL&#45;&gt;EAID_457D5525_3CA3_4282_9AAD_1417F399BAA3___EAID_7EE2E4E9_8136_458f_83A3_9D5C9CA4864D -->
<g id="edge5" class="edge"><title>EAID_457D5525_3CA3_4282_9AAD_1417F399BAA3___EAID_7EE2E4E9_8136_458f_83A3_9D5C9CA4864D_STL&#45;&gt;EAID_457D5525_3CA3_4282_9AAD_1417F399BAA3___EAID_7EE2E4E9_8136_458f_83A3_9D5C9CA4864D</title>
<path fill="none" stroke="black" d="M681,-835.765C681,-824.477 681,-811.549 681,-799.518"/>
<polygon fill="black" stroke="black" points="684.5,-799.24 681,-789.24 677.5,-799.24 684.5,-799.24"/>
</g>
<!-- EAID_0158E22A_3B0C_443b_A627_10A9EADBA8AF -->
<g id="node12" class="node"><title>EAID_0158E22A_3B0C_443b_A627_10A9EADBA8AF</title>
<polygon fill="none" stroke="black" points="1583,-168 1583,-189 1795,-189 1795,-168 1583,-168"/>
<text text-anchor="start" x="1586" y="-175.8" font-family="Times New Roman,serif" font-weight="bold" font-size="14.00">Data Service Configuration Form</text>
<polygon fill="none" stroke="black" points="1583,-147 1583,-168 1795,-168 1795,-147 1583,-147"/>
<text text-anchor="start" x="1631" y="-154.8" font-family="Times New Roman,serif" font-weight="bold" font-size="14.00">EAJava_date Date</text>
<polygon fill="none" stroke="black" points="1583,-126 1583,-147 1795,-147 1795,-126 1583,-126"/>
<text text-anchor="start" x="1628.5" y="-133.8" font-family="Times New Roman,serif" font-weight="bold" font-size="14.00">EAJava_int UserID</text>
<polygon fill="none" stroke="black" points="1583,-105 1583,-126 1795,-126 1795,-105 1583,-105"/>
<text text-anchor="start" x="1624.5" y="-112.8" font-family="Times New Roman,serif" font-weight="bold" font-size="14.00">EAJava_String Type</text>
<polygon fill="none" stroke="black" points="1583,-84 1583,-105 1795,-105 1795,-84 1583,-84"/>
<text text-anchor="start" x="1586.5" y="-91.8" font-family="Times New Roman,serif" font-weight="bold" font-size="14.00">EAJava_String ConfigParameter</text>
<polygon fill="none" stroke="black" points="1583,-63 1583,-84 1795,-84 1795,-63 1583,-63"/>
<text text-anchor="start" x="1587" y="-70.8" font-family="Times New Roman,serif" font-weight="bold" font-size="14.00">DataServiceConfigurationForm()</text>
<polygon fill="none" stroke="black" points="1582,-62 1582,-190 1796,-190 1796,-62 1582,-62"/>
</g>
<!-- EAID_97376CA8_FE65_4f28_88ED_3CCCEC8D46FB -->
<g id="node13" class="node"><title>EAID_97376CA8_FE65_4f28_88ED_3CCCEC8D46FB</title>
<polygon fill="none" stroke="black" points="1315,-210 1315,-231 1547,-231 1547,-210 1315,-210"/>
<text text-anchor="start" x="1361.5" y="-217.8" font-family="Times New Roman,serif" font-weight="bold" font-size="14.00">Product Configuration</text>
<polygon fill="none" stroke="black" points="1315,-189 1315,-210 1547,-210 1547,-189 1315,-189"/>
<text text-anchor="start" x="1359" y="-196.8" font-family="Times New Roman,serif" font-weight="bold" font-size="14.00">EAJava_float TotalFee</text>
<polygon fill="none" stroke="black" points="1315,-168 1315,-189 1547,-189 1547,-168 1315,-168"/>
<text text-anchor="start" x="1373" y="-175.8" font-family="Times New Roman,serif" font-weight="bold" font-size="14.00">EAJava_date Date</text>
<polygon fill="none" stroke="black" points="1315,-147 1315,-168 1547,-168 1547,-147 1315,-147"/>
<text text-anchor="start" x="1370.5" y="-154.8" font-family="Times New Roman,serif" font-weight="bold" font-size="14.00">EAJava_int UserID</text>
<polygon fill="none" stroke="black" points="1315,-126 1315,-147 1547,-147 1547,-126 1315,-126"/>
<text text-anchor="start" x="1318" y="-133.8" font-family="Times New Roman,serif" font-weight="bold" font-size="14.00">EAJava_int ProductConfigurationID</text>
<polygon fill="none" stroke="black" points="1315,-105 1315,-126 1547,-126 1547,-105 1315,-105"/>
<text text-anchor="start" x="1331.5" y="-112.8" font-family="Times New Roman,serif" font-weight="bold" font-size="14.00">EAJava_string Purchasing Type</text>
<polygon fill="none" stroke="black" points="1315,-84 1315,-105 1547,-105 1547,-84 1315,-84"/>
<text text-anchor="start" x="1368" y="-91.8" font-family="Times New Roman,serif" font-weight="bold" font-size="14.00">EAJava_int FormID</text>
<polygon fill="none" stroke="black" points="1315,-63 1315,-84 1547,-84 1547,-63 1315,-63"/>
<text text-anchor="start" x="1359" y="-70.8" font-family="Times New Roman,serif" font-weight="bold" font-size="14.00">ProductConfiguration()</text>
<polygon fill="none" stroke="black" points="1315,-42 1315,-63 1547,-63 1547,-42 1315,-42"/>
<text text-anchor="start" x="1356" y="-49.8" font-family="Times New Roman,serif" font-weight="bold" font-size="14.00">projectdescriptionpage()</text>
<polygon fill="none" stroke="black" points="1315,-21 1315,-42 1547,-42 1547,-21 1315,-21"/>
<text text-anchor="start" x="1392" y="-28.8" font-family="Times New Roman,serif" font-weight="bold" font-size="14.00">Projectinfo()</text>
<polygon fill="none" stroke="black" points="1314,-20 1314,-232 1548,-232 1548,-20 1314,-20"/>
</g>
<!-- EAID_E156122F_A92B_48f5_9FA3_D801C10BB233 -->
<g id="node14" class="node"><title>EAID_E156122F_A92B_48f5_9FA3_D801C10BB233</title>
<polygon fill="none" stroke="black" points="1098,-168 1098,-189 1279,-189 1279,-168 1098,-168"/>
<text text-anchor="start" x="1114" y="-175.8" font-family="Times New Roman,serif" font-weight="bold" font-size="14.00">Sensor Data Export File</text>
<polygon fill="none" stroke="black" points="1098,-147 1098,-168 1279,-168 1279,-147 1098,-147"/>
<text text-anchor="start" x="1111.5" y="-154.8" font-family="Times New Roman,serif" font-weight="bold" font-size="14.00">EAJava_float signalDate</text>
<polygon fill="none" stroke="black" points="1098,-126 1098,-147 1279,-147 1279,-126 1098,-126"/>
<text text-anchor="start" x="1101" y="-133.8" font-family="Times New Roman,serif" font-weight="bold" font-size="14.00">EAJava_float TimeDuration</text>
<polygon fill="none" stroke="black" points="1098,-105 1098,-126 1279,-126 1279,-105 1098,-105"/>
<text text-anchor="start" x="1136" y="-112.8" font-family="Times New Roman,serif" font-weight="bold" font-size="14.00">EAJava_int Tick</text>
<polygon fill="none" stroke="black" points="1098,-84 1098,-105 1279,-105 1279,-84 1098,-84"/>
<text text-anchor="start" x="1128" y="-91.8" font-family="Times New Roman,serif" font-weight="bold" font-size="14.00">EAJava_int UserID</text>
<polygon fill="none" stroke="black" points="1098,-63 1098,-84 1279,-84 1279,-63 1098,-63"/>
<text text-anchor="start" x="1115" y="-70.8" font-family="Times New Roman,serif" font-weight="bold" font-size="14.00">SensorDataExportFile()</text>
<polygon fill="none" stroke="black" points="1096.5,-62 1096.5,-190 1279.5,-190 1279.5,-62 1096.5,-62"/>
</g>
<!-- EAID_12187F8D_3E52_4e10_81B4_1E694225150C -->
<g id="node15" class="node"><title>EAID_12187F8D_3E52_4e10_81B4_1E694225150C</title>
<polygon fill="none" stroke="black" points="833,-189 833,-210 1061,-210 1061,-189 833,-189"/>
<text text-anchor="start" x="836" y="-196.8" font-family="Times New Roman,serif" font-weight="bold" font-size="14.00">Sensor Product Configuration Form</text>
<polygon fill="none" stroke="black" points="833,-168 833,-189 1061,-189 1061,-168 833,-168"/>
<text text-anchor="start" x="886.5" y="-175.8" font-family="Times New Roman,serif" font-weight="bold" font-size="14.00">EAJava_float Price</text>
<polygon fill="none" stroke="black" points="833,-147 833,-168 1061,-168 1061,-147 833,-147"/>
<text text-anchor="start" x="882" y="-154.8" font-family="Times New Roman,serif" font-weight="bold" font-size="14.00">EAJava_int Quantity</text>
<polygon fill="none" stroke="black" points="833,-126 833,-147 1061,-147 1061,-126 833,-126"/>
<text text-anchor="start" x="889" y="-133.8" font-family="Times New Roman,serif" font-weight="bold" font-size="14.00">EAJava_date Date</text>
<polygon fill="none" stroke="black" points="833,-105 833,-126 1061,-126 1061,-105 833,-105"/>
<text text-anchor="start" x="886.5" y="-112.8" font-family="Times New Roman,serif" font-weight="bold" font-size="14.00">EAJava_int UserID</text>
<polygon fill="none" stroke="black" points="833,-84 833,-105 1061,-105 1061,-84 833,-84"/>
<text text-anchor="start" x="878.5" y="-91.8" font-family="Times New Roman,serif" font-weight="bold" font-size="14.00">EAJava_string Config</text>
<polygon fill="none" stroke="black" points="833,-63 833,-84 1061,-84 1061,-63 833,-63"/>
<text text-anchor="start" x="855.5" y="-70.8" font-family="Times New Roman,serif" font-weight="bold" font-size="14.00">EAJava_int SensorProductID</text>
<polygon fill="none" stroke="black" points="833,-42 833,-63 1061,-63 1061,-42 833,-42"/>
<text text-anchor="start" x="837" y="-49.8" font-family="Times New Roman,serif" font-weight="bold" font-size="14.00">SensorProductConfigurationForm()</text>
<polygon fill="none" stroke="black" points="832,-41 832,-211 1062,-211 1062,-41 832,-41"/>
</g>
<!-- EAID_9F2FB75A_C326_4873_90BB_46005702BA79 -->
<g id="node16" class="node"><title>EAID_9F2FB75A_C326_4873_90BB_46005702BA79</title>
<polygon fill="none" stroke="black" points="571,-178 571,-199 797,-199 797,-178 571,-178"/>
<text text-anchor="start" x="642.5" y="-185.8" font-family="Times New Roman,serif" font-weight="bold" font-size="14.00">User Account</text>
<polygon fill="none" stroke="black" points="571,-157 571,-178 797,-178 797,-157 571,-157"/>
<text text-anchor="start" x="604" y="-164.8" font-family="Times New Roman,serif" font-weight="bold" font-size="14.00">EAJava_string UserName</text>
<polygon fill="none" stroke="black" points="571,-136 571,-157 797,-157 797,-136 571,-136"/>
<text text-anchor="start" x="592" y="-143.8" font-family="Times New Roman,serif" font-weight="bold" font-size="14.00">EAJava_string UserPassword</text>
<polygon fill="none" stroke="black" points="571,-115 571,-136 797,-136 797,-115 571,-115"/>
<text text-anchor="start" x="574" y="-122.8" font-family="Times New Roman,serif" font-weight="bold" font-size="14.00">EAJava_date UserRegistrationDate</text>
<polygon fill="none" stroke="black" points="571,-94 571,-115 797,-115 797,-94 571,-94"/>
<text text-anchor="start" x="604" y="-101.8" font-family="Times New Roman,serif" font-weight="bold" font-size="14.00">EAJava_string UserEmail</text>
<polygon fill="none" stroke="black" points="571,-73 571,-94 797,-94 797,-73 571,-73"/>
<text text-anchor="start" x="606.5" y="-80.8" font-family="Times New Roman,serif" font-weight="bold" font-size="14.00">EAJava_string UserType</text>
<polygon fill="none" stroke="black" points="571,-52 571,-73 797,-73 797,-52 571,-52"/>
<text text-anchor="start" x="640" y="-59.8" font-family="Times New Roman,serif" font-weight="bold" font-size="14.00">UserAccount()</text>
<polygon fill="none" stroke="black" points="570,-51.5 570,-200.5 798,-200.5 798,-51.5 570,-51.5"/>
</g>
<!-- EAID_C9FD8C03_E3AF_4a74_B70A_BB5F54C1C6E3 -->
<g id="node17" class="node"><title>EAID_C9FD8C03_E3AF_4a74_B70A_BB5F54C1C6E3</title>
<polygon fill="none" stroke="black" points="420,-126 420,-147 535,-147 535,-126 420,-126"/>
<text text-anchor="start" x="427.5" y="-133.8" font-family="Times New Roman,serif" font-weight="bold" font-size="14.00">Studentinfopage</text>
<polygon fill="none" stroke="black" points="420,-105 420,-126 535,-126 535,-105 420,-105"/>
<text text-anchor="start" x="423" y="-112.8" font-family="Times New Roman,serif" font-weight="bold" font-size="14.00">Studentinfopage()</text>
<polygon fill="none" stroke="black" points="418.5,-104 418.5,-148 535.5,-148 535.5,-104 418.5,-104"/>
</g>
<!-- EAID_DA382B0E_A02E_4d59_97F8_8B4C257F12C5 -->
<g id="node19" class="node"><title>EAID_DA382B0E_A02E_4d59_97F8_8B4C257F12C5</title>
<polygon fill="none" stroke="black" points="26,-126 26,-147 141,-147 141,-126 26,-126"/>
<text text-anchor="start" x="33.5" y="-133.8" font-family="Times New Roman,serif" font-weight="bold" font-size="14.00">searchresultslist</text>
<polygon fill="none" stroke="black" points="26,-105 26,-126 141,-126 141,-105 26,-105"/>
<text text-anchor="start" x="29" y="-112.8" font-family="Times New Roman,serif" font-weight="bold" font-size="14.00">searchresultslist()</text>
<polygon fill="none" stroke="black" points="24.5,-104 24.5,-148 141.5,-148 141.5,-104 24.5,-104"/>
</g>
</g>
</svg>
