<?xml version="1.0" encoding="UTF-8" standalone="no"?>
<!DOCTYPE svg PUBLIC "-//W3C//DTD SVG 1.1//EN"
 "http://www.w3.org/Graphics/SVG/1.1/DTD/svg11.dtd">
<!-- Generated by graphviz version 2.38.0 (20140413.2041)
 -->
<!-- Title: g Pages: 1 -->
<svg width="4517pt" height="683pt"
 viewBox="0.00 0.00 4517.00 683.00" xmlns="http://www.w3.org/2000/svg" xmlns:xlink="http://www.w3.org/1999/xlink">
<g id="graph0" class="graph" transform="scale(1 1) rotate(0) translate(4 679)">
<title>g</title>
<polygon fill="white" stroke="none" points="-4,4 -4,-679 4513,-679 4513,4 -4,4"/>
<g id="clust1" class="cluster"><title>cluster0</title>
<polygon fill="none" stroke="black" stroke-width="2" points="2871,-91 2871,-569 3445,-569 3445,-91 2871,-91"/>
<text text-anchor="start" x="3136" y="-554.8" font-family="Times New Roman,serif" font-weight="bold" font-size="14.00">System</text>
</g>
<g id="clust2" class="cluster"><title>cluster1</title>
<polygon fill="none" stroke="black" stroke-width="2" points="3276,-577 3276,-667 3450,-667 3450,-577 3276,-577"/>
<text text-anchor="start" x="3344" y="-652.8" font-family="Times New Roman,serif" font-weight="bold" font-size="14.00">FTSR</text>
</g>
<g id="clust3" class="cluster"><title>cluster1000</title>
<polygon fill="none" stroke="black" stroke-width="2" points="8,-8 8,-83 4501,-83 4501,-8 8,-8"/>
<text text-anchor="start" x="2209" y="-68.8" font-family="Times New Roman,serif" font-weight="bold" font-size="14.00">Domain Model</text>
</g>
<!-- EAID_2CD69C18_D4DC_4a28_A371_8B25822D6360___EAID_18A44CBE_F6D7_4ec1_9225_33677EF7AC86 -->
<g id="node1" class="node"><title>EAID_2CD69C18_D4DC_4a28_A371_8B25822D6360___EAID_18A44CBE_F6D7_4ec1_9225_33677EF7AC86</title>
<image xlink:href="img/activity_icon.png" width="30px" height="20px" preserveAspectRatio="xMinYMin meet" x="3348.5" y="-531.5"/>
<text text-anchor="start" x="3306" y="-497.3" font-family="Times New Roman,serif" font-weight="bold" font-size="14.00">FTSR:Offers Page</text>
</g>
<!-- EAID_18A44CBE_F6D7_4ec1_9225_33677EF7AC86___EAID_E17C4C0F_969B_4e51_86D2_DAD3A616F13A -->
<g id="node3" class="node"><title>EAID_18A44CBE_F6D7_4ec1_9225_33677EF7AC86___EAID_E17C4C0F_969B_4e51_86D2_DAD3A616F13A</title>
<image xlink:href="img/activity_icon.png" width="30px" height="20px" preserveAspectRatio="xMinYMin meet" x="3342" y="-444.5"/>
<text text-anchor="start" x="3287" y="-410.3" font-family="Times New Roman,serif" font-weight="bold" font-size="14.00">Offers Page:Edit Offer</text>
</g>
<!-- EAID_2CD69C18_D4DC_4a28_A371_8B25822D6360___EAID_18A44CBE_F6D7_4ec1_9225_33677EF7AC86&#45;&gt;EAID_18A44CBE_F6D7_4ec1_9225_33677EF7AC86___EAID_E17C4C0F_969B_4e51_86D2_DAD3A616F13A -->
<g id="edge1" class="edge"><title>EAID_2CD69C18_D4DC_4a28_A371_8B25822D6360___EAID_18A44CBE_F6D7_4ec1_9225_33677EF7AC86&#45;&gt;EAID_18A44CBE_F6D7_4ec1_9225_33677EF7AC86___EAID_E17C4C0F_969B_4e51_86D2_DAD3A616F13A</title>
<path fill="none" stroke="black" d="M3361.26,-486.914C3360.7,-478.897 3360.06,-469.839 3359.45,-461.222"/>
<polygon fill="black" stroke="black" points="3362.93,-460.759 3358.73,-451.03 3355.94,-461.252 3362.93,-460.759"/>
</g>
<!-- EAID_DE595F52_8253_48e5_AC8D_C8D8A5749F8F -->
<g id="node33" class="node"><title>EAID_DE595F52_8253_48e5_AC8D_C8D8A5749F8F</title>
<polygon fill="none" stroke="black" points="3316,-23 3316,-44 3390,-44 3390,-23 3316,-23"/>
<text text-anchor="start" x="3319" y="-30.8" font-family="Times New Roman,serif" font-weight="bold" font-size="14.00">Link offers</text>
<polygon fill="none" stroke="black" points="3315,-22.5 3315,-45.5 3391,-45.5 3391,-22.5 3315,-22.5"/>
</g>
<!-- EAID_2CD69C18_D4DC_4a28_A371_8B25822D6360___EAID_18A44CBE_F6D7_4ec1_9225_33677EF7AC86&#45;&gt;EAID_DE595F52_8253_48e5_AC8D_C8D8A5749F8F -->
<g id="edge8" class="edge"><title>EAID_2CD69C18_D4DC_4a28_A371_8B25822D6360___EAID_18A44CBE_F6D7_4ec1_9225_33677EF7AC86&#45;&gt;EAID_DE595F52_8253_48e5_AC8D_C8D8A5749F8F</title>
<path fill="none" stroke="black" stroke-dasharray="5,2" d="M3414.96,-486.982C3467.5,-458.167 3541,-404.993 3541,-333 3541,-333 3541,-333 3541,-224 3541,-146.722 3491.64,-136.26 3429,-91 3421.24,-85.393 3417.19,-87.9596 3409,-83 3397.88,-76.2628 3386.76,-67.3164 3377.41,-58.9741"/>
<polygon fill="black" stroke="black" points="3379.73,-56.3554 3370,-52.1704 3375,-61.5117 3379.73,-56.3554"/>
</g>
<!-- EAID_E17C4C0F_969B_4e51_86D2_DAD3A616F13A___EAID_139CD69D_4879_4a19_A81E_BCF32C6CBC83 -->
<g id="node2" class="node"><title>EAID_E17C4C0F_969B_4e51_86D2_DAD3A616F13A___EAID_139CD69D_4879_4a19_A81E_BCF32C6CBC83</title>
<image xlink:href="img/activity_icon.png" width="30px" height="20px" preserveAspectRatio="xMinYMin meet" x="3338.5" y="-358"/>
<text text-anchor="start" x="3282" y="-323.8" font-family="Times New Roman,serif" font-weight="bold" font-size="14.00">Edit Offer:Modify offer</text>
<text text-anchor="start" x="3338.5" y="-309.8" font-family="Times New Roman,serif" font-weight="bold" font-size="14.00">page</text>
</g>
<!-- EAID_139CD69D_4879_4a19_A81E_BCF32C6CBC83___EAID_C109DE94_398E_4ed7_B0F0_313467018631 -->
<g id="node4" class="node"><title>EAID_139CD69D_4879_4a19_A81E_BCF32C6CBC83___EAID_C109DE94_398E_4ed7_B0F0_313467018631</title>
<image xlink:href="img/activity_icon.png" width="30px" height="20px" preserveAspectRatio="xMinYMin meet" x="3338" y="-251"/>
<text text-anchor="start" x="3279" y="-216.8" font-family="Times New Roman,serif" font-weight="bold" font-size="14.00">Modify offer page:Enter</text>
<text text-anchor="start" x="3298" y="-202.8" font-family="Times New Roman,serif" font-weight="bold" font-size="14.00">offer&#39;s new values</text>
</g>
<!-- EAID_E17C4C0F_969B_4e51_86D2_DAD3A616F13A___EAID_139CD69D_4879_4a19_A81E_BCF32C6CBC83&#45;&gt;EAID_139CD69D_4879_4a19_A81E_BCF32C6CBC83___EAID_C109DE94_398E_4ed7_B0F0_313467018631 -->
<g id="edge3" class="edge"><title>EAID_E17C4C0F_969B_4e51_86D2_DAD3A616F13A___EAID_139CD69D_4879_4a19_A81E_BCF32C6CBC83&#45;&gt;EAID_139CD69D_4879_4a19_A81E_BCF32C6CBC83___EAID_C109DE94_398E_4ed7_B0F0_313467018631</title>
<path fill="none" stroke="black" d="M3353,-299.781C3353,-289.611 3353,-278.158 3353,-267.364"/>
<polygon fill="black" stroke="black" points="3356.5,-267.28 3353,-257.28 3349.5,-267.28 3356.5,-267.28"/>
</g>
<!-- EAID_139CD69D_4879_4a19_A81E_BCF32C6CBC83___EAID_EBDE283C_C7FB_4353_BE15_3D1B9491D6B1 -->
<g id="node5" class="node"><title>EAID_139CD69D_4879_4a19_A81E_BCF32C6CBC83___EAID_EBDE283C_C7FB_4353_BE15_3D1B9491D6B1</title>
<image xlink:href="img/activity_icon.png" width="30px" height="20px" preserveAspectRatio="xMinYMin meet" x="3148" y="-258"/>
<text text-anchor="start" x="3085" y="-223.8" font-family="Times New Roman,serif" font-weight="bold" font-size="14.00">Modify offer page:Invoke</text>
<text text-anchor="start" x="3107" y="-209.8" font-family="Times New Roman,serif" font-weight="bold" font-size="14.00">design coupon use</text>
<text text-anchor="start" x="3149" y="-195.8" font-family="Times New Roman,serif" font-weight="bold" font-size="14.00">case</text>
</g>
<!-- EAID_E17C4C0F_969B_4e51_86D2_DAD3A616F13A___EAID_139CD69D_4879_4a19_A81E_BCF32C6CBC83&#45;&gt;EAID_139CD69D_4879_4a19_A81E_BCF32C6CBC83___EAID_EBDE283C_C7FB_4353_BE15_3D1B9491D6B1 -->
<g id="edge4" class="edge"><title>EAID_E17C4C0F_969B_4e51_86D2_DAD3A616F13A___EAID_139CD69D_4879_4a19_A81E_BCF32C6CBC83&#45;&gt;EAID_139CD69D_4879_4a19_A81E_BCF32C6CBC83___EAID_EBDE283C_C7FB_4353_BE15_3D1B9491D6B1</title>
<path fill="none" stroke="black" d="M3296.76,-299.923C3279.19,-290.213 3259.49,-279.322 3240.71,-268.947"/>
<polygon fill="black" stroke="black" points="3242.32,-265.837 3231.88,-264.063 3238.94,-271.964 3242.32,-265.837"/>
</g>
<!-- EAID_139CD69D_4879_4a19_A81E_BCF32C6CBC83___EAID_2825C50F_9EBB_49c4_B91D_EB875209B3AD -->
<g id="node7" class="node"><title>EAID_139CD69D_4879_4a19_A81E_BCF32C6CBC83___EAID_2825C50F_9EBB_49c4_B91D_EB875209B3AD</title>
<image xlink:href="img/activity_icon.png" width="30px" height="20px" preserveAspectRatio="xMinYMin meet" x="2953.5" y="-251"/>
<text text-anchor="start" x="2890" y="-216.8" font-family="Times New Roman,serif" font-weight="bold" font-size="14.00">Modify offer page:Modify</text>
<text text-anchor="start" x="2951.5" y="-202.8" font-family="Times New Roman,serif" font-weight="bold" font-size="14.00">Offer</text>
</g>
<!-- EAID_E17C4C0F_969B_4e51_86D2_DAD3A616F13A___EAID_139CD69D_4879_4a19_A81E_BCF32C6CBC83&#45;&gt;EAID_139CD69D_4879_4a19_A81E_BCF32C6CBC83___EAID_2825C50F_9EBB_49c4_B91D_EB875209B3AD -->
<g id="edge5" class="edge"><title>EAID_E17C4C0F_969B_4e51_86D2_DAD3A616F13A___EAID_139CD69D_4879_4a19_A81E_BCF32C6CBC83&#45;&gt;EAID_139CD69D_4879_4a19_A81E_BCF32C6CBC83___EAID_2825C50F_9EBB_49c4_B91D_EB875209B3AD</title>
<path fill="none" stroke="black" d="M3271.47,-315.156C3213.57,-303.134 3134.32,-285.105 3066,-264 3062.23,-262.837 3058.41,-261.599 3054.55,-260.308"/>
<polygon fill="black" stroke="black" points="3055.54,-256.946 3044.94,-257 3053.26,-263.565 3055.54,-256.946"/>
</g>
<!-- EAID_B3569612_E0E4_4135_92F9_6C661977C326 -->
<g id="node13" class="node"><title>EAID_B3569612_E0E4_4135_92F9_6C661977C326</title>
<polygon fill="none" stroke="black" points="3684,-23 3684,-44 3790,-44 3790,-23 3684,-23"/>
<text text-anchor="start" x="3687" y="-30.8" font-family="Times New Roman,serif" font-weight="bold" font-size="14.00">Direct to modify</text>
<polygon fill="none" stroke="black" points="3683,-22.5 3683,-45.5 3791,-45.5 3791,-22.5 3683,-22.5"/>
</g>
<!-- EAID_E17C4C0F_969B_4e51_86D2_DAD3A616F13A___EAID_139CD69D_4879_4a19_A81E_BCF32C6CBC83&#45;&gt;EAID_B3569612_E0E4_4135_92F9_6C661977C326 -->
<g id="edge9" class="edge"><title>EAID_E17C4C0F_969B_4e51_86D2_DAD3A616F13A___EAID_139CD69D_4879_4a19_A81E_BCF32C6CBC83&#45;&gt;EAID_B3569612_E0E4_4135_92F9_6C661977C326</title>
<path fill="none" stroke="black" stroke-dasharray="5,2" d="M3397.28,-299.683C3412.79,-288.557 3430.26,-275.852 3446,-264 3543.25,-190.759 3655.85,-100.567 3707.88,-58.5796"/>
<polygon fill="black" stroke="black" points="3710.12,-61.2708 3715.7,-52.2647 3705.73,-55.825 3710.12,-61.2708"/>
</g>
<!-- EAID_18A44CBE_F6D7_4ec1_9225_33677EF7AC86___EAID_E17C4C0F_969B_4e51_86D2_DAD3A616F13A&#45;&gt;EAID_E17C4C0F_969B_4e51_86D2_DAD3A616F13A___EAID_139CD69D_4879_4a19_A81E_BCF32C6CBC83 -->
<g id="edge6" class="edge"><title>EAID_18A44CBE_F6D7_4ec1_9225_33677EF7AC86___EAID_E17C4C0F_969B_4e51_86D2_DAD3A616F13A&#45;&gt;EAID_E17C4C0F_969B_4e51_86D2_DAD3A616F13A___EAID_139CD69D_4879_4a19_A81E_BCF32C6CBC83</title>
<path fill="none" stroke="black" d="M3355.93,-399.98C3355.58,-392.066 3355.19,-383.063 3354.8,-374.281"/>
<polygon fill="black" stroke="black" points="3358.3,-373.991 3354.36,-364.153 3351.3,-374.297 3358.3,-373.991"/>
</g>
<!-- EAID_18A44CBE_F6D7_4ec1_9225_33677EF7AC86___EAID_E17C4C0F_969B_4e51_86D2_DAD3A616F13A&#45;&gt;EAID_DE595F52_8253_48e5_AC8D_C8D8A5749F8F -->
<g id="edge10" class="edge"><title>EAID_18A44CBE_F6D7_4ec1_9225_33677EF7AC86___EAID_E17C4C0F_969B_4e51_86D2_DAD3A616F13A&#45;&gt;EAID_DE595F52_8253_48e5_AC8D_C8D8A5749F8F</title>
<path fill="none" stroke="black" stroke-dasharray="5,2" d="M3408.99,-399.893C3422.82,-390.67 3436.1,-378.759 3444,-364 3481.34,-294.252 3467.56,-262.122 3446,-186 3432.1,-136.93 3397.25,-88.1402 3374.38,-59.8134"/>
<polygon fill="black" stroke="black" points="3377.05,-57.5432 3367.99,-52.0424 3371.64,-61.9893 3377.05,-57.5432"/>
</g>
<!-- EAID_139CD69D_4879_4a19_A81E_BCF32C6CBC83___EAID_C109DE94_398E_4ed7_B0F0_313467018631&#45;&gt;EAID_DE595F52_8253_48e5_AC8D_C8D8A5749F8F -->
<g id="edge11" class="edge"><title>EAID_139CD69D_4879_4a19_A81E_BCF32C6CBC83___EAID_C109DE94_398E_4ed7_B0F0_313467018631&#45;&gt;EAID_DE595F52_8253_48e5_AC8D_C8D8A5749F8F</title>
<path fill="none" stroke="black" stroke-dasharray="5,2" d="M3353,-192.79C3353,-156.461 3353,-97.036 3353,-62.4144"/>
<polygon fill="black" stroke="black" points="3356.5,-62.1058 3353,-52.1058 3349.5,-62.1059 3356.5,-62.1058"/>
</g>
<!-- EAID_60D180E9_820F_43a1_A0E5_F68051113F17 -->
<g id="node16" class="node"><title>EAID_60D180E9_820F_43a1_A0E5_F68051113F17</title>
<polygon fill="none" stroke="black" points="806,-23 806,-44 855,-44 855,-23 806,-23"/>
<text text-anchor="start" x="809" y="-30.8" font-family="Times New Roman,serif" font-weight="bold" font-size="14.00">Invoke</text>
<polygon fill="none" stroke="black" points="804.5,-22.5 804.5,-45.5 855.5,-45.5 855.5,-22.5 804.5,-22.5"/>
</g>
<!-- EAID_139CD69D_4879_4a19_A81E_BCF32C6CBC83___EAID_EBDE283C_C7FB_4353_BE15_3D1B9491D6B1&#45;&gt;EAID_60D180E9_820F_43a1_A0E5_F68051113F17 -->
<g id="edge12" class="edge"><title>EAID_139CD69D_4879_4a19_A81E_BCF32C6CBC83___EAID_EBDE283C_C7FB_4353_BE15_3D1B9491D6B1&#45;&gt;EAID_60D180E9_820F_43a1_A0E5_F68051113F17</title>
<path fill="none" stroke="black" stroke-dasharray="5,2" d="M3143.86,-185.939C3125.44,-153.992 3094.31,-110.535 3053,-91 3025.63,-78.0564 900.622,-95.4008 873,-83 862.326,-78.2079 853.197,-69.3209 846.132,-60.4842"/>
<polygon fill="black" stroke="black" points="848.754,-58.142 840.008,-52.1626 843.116,-62.2912 848.754,-58.142"/>
</g>
<!-- EAID_2825C50F_9EBB_49c4_B91D_EB875209B3AD___EAID_785EAA5E_8E3A_4dff_9837_82B6E9E49506 -->
<g id="node6" class="node"><title>EAID_2825C50F_9EBB_49c4_B91D_EB875209B3AD___EAID_785EAA5E_8E3A_4dff_9837_82B6E9E49506</title>
<image xlink:href="img/activity_icon.png" width="30px" height="20px" preserveAspectRatio="xMinYMin meet" x="2960" y="-143.5"/>
<text text-anchor="start" x="2916" y="-109.3" font-family="Times New Roman,serif" font-weight="bold" font-size="14.00">Modify Offer:Offer</text>
</g>
<!-- EAID_2825C50F_9EBB_49c4_B91D_EB875209B3AD___EAID_785EAA5E_8E3A_4dff_9837_82B6E9E49506&#45;&gt;EAID_DE595F52_8253_48e5_AC8D_C8D8A5749F8F -->
<g id="edge13" class="edge"><title>EAID_2825C50F_9EBB_49c4_B91D_EB875209B3AD___EAID_785EAA5E_8E3A_4dff_9837_82B6E9E49506&#45;&gt;EAID_DE595F52_8253_48e5_AC8D_C8D8A5749F8F</title>
<path fill="none" stroke="black" stroke-dasharray="5,2" d="M3044.02,-100.792C3058.41,-96.8675 3073.59,-93.3119 3088,-91 3111.06,-87.3014 3276.3,-91.6136 3298,-83 3310.83,-77.9092 3322.69,-68.4648 3332.09,-59.2914"/>
<polygon fill="black" stroke="black" points="3334.63,-61.6994 3339.08,-52.081 3329.61,-56.8296 3334.63,-61.6994"/>
</g>
<!-- EAID_139CD69D_4879_4a19_A81E_BCF32C6CBC83___EAID_2825C50F_9EBB_49c4_B91D_EB875209B3AD&#45;&gt;EAID_2825C50F_9EBB_49c4_B91D_EB875209B3AD___EAID_785EAA5E_8E3A_4dff_9837_82B6E9E49506 -->
<g id="edge7" class="edge"><title>EAID_139CD69D_4879_4a19_A81E_BCF32C6CBC83___EAID_2825C50F_9EBB_49c4_B91D_EB875209B3AD&#45;&gt;EAID_2825C50F_9EBB_49c4_B91D_EB875209B3AD___EAID_785EAA5E_8E3A_4dff_9837_82B6E9E49506</title>
<path fill="none" stroke="black" d="M2970.21,-192.834C2970.95,-182.52 2971.77,-170.977 2972.52,-160.401"/>
<polygon fill="black" stroke="black" points="2976.02,-160.452 2973.24,-150.229 2969.04,-159.955 2976.02,-160.452"/>
</g>
<!-- EAID_139CD69D_4879_4a19_A81E_BCF32C6CBC83___EAID_2825C50F_9EBB_49c4_B91D_EB875209B3AD&#45;&gt;EAID_B3569612_E0E4_4135_92F9_6C661977C326 -->
<g id="edge14" class="edge"><title>EAID_139CD69D_4879_4a19_A81E_BCF32C6CBC83___EAID_2825C50F_9EBB_49c4_B91D_EB875209B3AD&#45;&gt;EAID_B3569612_E0E4_4135_92F9_6C661977C326</title>
<path fill="none" stroke="black" stroke-dasharray="5,2" d="M3044.04,-192.972C3051.41,-190.436 3058.81,-188.061 3066,-186 3283.03,-123.823 3341.25,-121.069 3565,-91 3609.63,-85.0026 3623.5,-97.8791 3666,-83 3681.63,-77.5274 3697.09,-67.7388 3709.58,-58.4223"/>
<polygon fill="black" stroke="black" points="3711.96,-61.0046 3717.71,-52.1067 3707.66,-55.476 3711.96,-61.0046"/>
</g>
<!-- EAID_2CD69C18_D4DC_4a28_A371_8B25822D6360___EAID_18A44CBE_F6D7_4ec1_9225_33677EF7AC86_STL -->
<g id="node8" class="node"><title>EAID_2CD69C18_D4DC_4a28_A371_8B25822D6360___EAID_18A44CBE_F6D7_4ec1_9225_33677EF7AC86_STL</title>
<image xlink:href="img/stimulus_icon.png" width="30px" height="20px" preserveAspectRatio="xMinYMin meet" x="3348.5" y="-629.5"/>
<text text-anchor="start" x="3295" y="-595.3" font-family="Times New Roman,serif" font-weight="bold" font-size="14.00">stl#FTSR:Offers Page</text>
</g>
<!-- EAID_2CD69C18_D4DC_4a28_A371_8B25822D6360___EAID_18A44CBE_F6D7_4ec1_9225_33677EF7AC86_STL&#45;&gt;EAID_2CD69C18_D4DC_4a28_A371_8B25822D6360___EAID_18A44CBE_F6D7_4ec1_9225_33677EF7AC86 -->
<g id="edge2" class="edge"><title>EAID_2CD69C18_D4DC_4a28_A371_8B25822D6360___EAID_18A44CBE_F6D7_4ec1_9225_33677EF7AC86_STL&#45;&gt;EAID_2CD69C18_D4DC_4a28_A371_8B25822D6360___EAID_18A44CBE_F6D7_4ec1_9225_33677EF7AC86</title>
<path fill="none" stroke="black" d="M3363,-584.778C3363,-573.692 3363,-560.42 3363,-548.351"/>
<polygon fill="black" stroke="black" points="3366.5,-548.139 3363,-538.139 3359.5,-548.139 3366.5,-548.139"/>
</g>
<!-- EAID_3FB61F91_1358_4ea9_B760_8E437DFC6DFE -->
<g id="node9" class="node"><title>EAID_3FB61F91_1358_4ea9_B760_8E437DFC6DFE</title>
<polygon fill="none" stroke="black" points="4392,-23 4392,-44 4484,-44 4484,-23 4392,-23"/>
<text text-anchor="start" x="4395" y="-30.8" font-family="Times New Roman,serif" font-weight="bold" font-size="14.00">Administrator</text>
<polygon fill="none" stroke="black" points="4391,-22.5 4391,-45.5 4485,-45.5 4485,-22.5 4391,-22.5"/>
</g>
<!-- EAID_203589E9_F431_4893_9BF9_EBE65748645B -->
<g id="node10" class="node"><title>EAID_203589E9_F431_4893_9BF9_EBE65748645B</title>
<polygon fill="none" stroke="black" points="4213,-23 4213,-44 4356,-44 4356,-23 4213,-23"/>
<text text-anchor="start" x="4216" y="-30.8" font-family="Times New Roman,serif" font-weight="bold" font-size="14.00">Transaction Log Page</text>
<polygon fill="none" stroke="black" points="4211.5,-22.5 4211.5,-45.5 4356.5,-45.5 4356.5,-22.5 4211.5,-22.5"/>
</g>
<!-- EAID_456E301B_558A_4606_86F5_F4E13C55015B -->
<g id="node11" class="node"><title>EAID_456E301B_558A_4606_86F5_F4E13C55015B</title>
<polygon fill="none" stroke="black" points="3984,-23 3984,-44 4177,-44 4177,-23 3984,-23"/>
<text text-anchor="start" x="3987" y="-30.8" font-family="Times New Roman,serif" font-weight="bold" font-size="14.00">Enter username and password</text>
<polygon fill="none" stroke="black" points="3982.5,-22.5 3982.5,-45.5 4177.5,-45.5 4177.5,-22.5 3982.5,-22.5"/>
</g>
<!-- EAID_963024D3_8B26_429f_B514_62E3D25E05F0 -->
<g id="node12" class="node"><title>EAID_963024D3_8B26_429f_B514_62E3D25E05F0</title>
<polygon fill="none" stroke="black" points="3827,-23 3827,-44 3948,-44 3948,-23 3827,-23"/>
<text text-anchor="start" x="3830" y="-30.8" font-family="Times New Roman,serif" font-weight="bold" font-size="14.00">display partner list</text>
<polygon fill="none" stroke="black" points="3825.5,-22.5 3825.5,-45.5 3948.5,-45.5 3948.5,-22.5 3825.5,-22.5"/>
</g>
<!-- EAID_4368C098_7FC9_4c05_9CA6_E585C4317E5E -->
<g id="node14" class="node"><title>EAID_4368C098_7FC9_4c05_9CA6_E585C4317E5E</title>
<polygon fill="none" stroke="black" points="3530,-23 3530,-44 3648,-44 3648,-23 3530,-23"/>
<text text-anchor="start" x="3533" y="-30.8" font-family="Times New Roman,serif" font-weight="bold" font-size="14.00">Retrieve and print</text>
<polygon fill="none" stroke="black" points="3529,-22.5 3529,-45.5 3649,-45.5 3649,-22.5 3529,-22.5"/>
</g>
<!-- EAID_89FA625B_DDE8_4b40_8497_572902E8AD0D -->
<g id="node15" class="node"><title>EAID_89FA625B_DDE8_4b40_8497_572902E8AD0D</title>
<polygon fill="none" stroke="black" points="3427,-23 3427,-44 3494,-44 3494,-23 3427,-23"/>
<text text-anchor="start" x="3430" y="-30.8" font-family="Times New Roman,serif" font-weight="bold" font-size="14.00">Employee</text>
<polygon fill="none" stroke="black" points="3425.5,-22.5 3425.5,-45.5 3494.5,-45.5 3494.5,-22.5 3425.5,-22.5"/>
</g>
<!-- EAID_1F31CA6B_1735_49e6_96F8_D53069B77FF0 -->
<g id="node17" class="node"><title>EAID_1F31CA6B_1735_49e6_96F8_D53069B77FF0</title>
<polygon fill="none" stroke="black" points="3225,-23 3225,-44 3280,-44 3280,-23 3225,-23"/>
<text text-anchor="start" x="3228" y="-30.8" font-family="Times New Roman,serif" font-weight="bold" font-size="14.00">account</text>
<polygon fill="none" stroke="black" points="3223.5,-22.5 3223.5,-45.5 3280.5,-45.5 3280.5,-22.5 3223.5,-22.5"/>
</g>
<!-- EAID_9F435887_A548_4ec1_BBA9_A54067F42CD6 -->
<g id="node18" class="node"><title>EAID_9F435887_A548_4ec1_BBA9_A54067F42CD6</title>
<polygon fill="none" stroke="black" points="3064,-23 3064,-44 3189,-44 3189,-23 3064,-23"/>
<text text-anchor="start" x="3067" y="-30.8" font-family="Times New Roman,serif" font-weight="bold" font-size="14.00">Click cancel button</text>
<polygon fill="none" stroke="black" points="3062.5,-22.5 3062.5,-45.5 3189.5,-45.5 3189.5,-22.5 3062.5,-22.5"/>
</g>
<!-- EAID_8283C94A_102D_4101_8F63_B7CC9683C235 -->
<g id="node19" class="node"><title>EAID_8283C94A_102D_4101_8F63_B7CC9683C235</title>
<polygon fill="none" stroke="black" points="2727,-23 2727,-44 3028,-44 3028,-23 2727,-23"/>
<text text-anchor="start" x="2730" y="-30.8" font-family="Times New Roman,serif" font-weight="bold" font-size="14.00">Coupon Successfully Redeemed Popup Message</text>
<polygon fill="none" stroke="black" points="2725.5,-22.5 2725.5,-45.5 3028.5,-45.5 3028.5,-22.5 2725.5,-22.5"/>
</g>
<!-- EAID_771E150D_7083_47c4_9F8B_477734B9B5D3 -->
<g id="node20" class="node"><title>EAID_771E150D_7083_47c4_9F8B_477734B9B5D3</title>
<polygon fill="none" stroke="black" points="2642,-23 2642,-44 2691,-44 2691,-23 2642,-23"/>
<text text-anchor="start" x="2645" y="-30.8" font-family="Times New Roman,serif" font-weight="bold" font-size="14.00">Search</text>
<polygon fill="none" stroke="black" points="2640.5,-22.5 2640.5,-45.5 2691.5,-45.5 2691.5,-22.5 2640.5,-22.5"/>
</g>
<!-- EAID_1E2A037D_67C6_4b69_AEDC_5B45349BFAC2 -->
<g id="node21" class="node"><title>EAID_1E2A037D_67C6_4b69_AEDC_5B45349BFAC2</title>
<polygon fill="none" stroke="black" points="2427,-23 2427,-44 2605,-44 2605,-23 2427,-23"/>
<text text-anchor="start" x="2430" y="-30.8" font-family="Times New Roman,serif" font-weight="bold" font-size="14.00">EmailNotificationController</text>
<polygon fill="none" stroke="black" points="2426,-22.5 2426,-45.5 2606,-45.5 2606,-22.5 2426,-22.5"/>
</g>
<!-- EAID_D21BB805_A3FC_4e33_B592_FDCF42E93EF6 -->
<g id="node22" class="node"><title>EAID_D21BB805_A3FC_4e33_B592_FDCF42E93EF6</title>
<polygon fill="none" stroke="black" points="2356,-23 2356,-44 2390,-44 2390,-23 2356,-23"/>
<text text-anchor="start" x="2359" y="-30.8" font-family="Times New Roman,serif" font-weight="bold" font-size="14.00">Bills</text>
<polygon fill="none" stroke="black" points="2355,-22.5 2355,-45.5 2391,-45.5 2391,-22.5 2355,-22.5"/>
</g>
<!-- EAID_3D0E881B_8CE1_45b2_9DF0_3508DC1B6953 -->
<g id="node23" class="node"><title>EAID_3D0E881B_8CE1_45b2_9DF0_3508DC1B6953</title>
<polygon fill="none" stroke="black" points="2157,-23 2157,-44 2319,-44 2319,-23 2157,-23"/>
<text text-anchor="start" x="2160" y="-30.8" font-family="Times New Roman,serif" font-weight="bold" font-size="14.00">Trip plans database table</text>
<polygon fill="none" stroke="black" points="2156,-22.5 2156,-45.5 2320,-45.5 2320,-22.5 2156,-22.5"/>
</g>
<!-- EAID_09CE27D1_4B61_433e_A7A5_7CC89CCA63F7 -->
<g id="node24" class="node"><title>EAID_09CE27D1_4B61_433e_A7A5_7CC89CCA63F7</title>
<polygon fill="none" stroke="black" points="2024,-23 2024,-44 2121,-44 2121,-23 2024,-23"/>
<text text-anchor="start" x="2027" y="-30.8" font-family="Times New Roman,serif" font-weight="bold" font-size="14.00">Validate/check</text>
<polygon fill="none" stroke="black" points="2022.5,-22.5 2022.5,-45.5 2121.5,-45.5 2121.5,-22.5 2022.5,-22.5"/>
</g>
<!-- EAID_13550E6A_4789_4323_8D14_C43C60F524BF -->
<g id="node25" class="node"><title>EAID_13550E6A_4789_4323_8D14_C43C60F524BF</title>
<polygon fill="none" stroke="black" points="1919,-23 1919,-44 1987,-44 1987,-23 1919,-23"/>
<text text-anchor="start" x="1922" y="-30.8" font-family="Times New Roman,serif" font-weight="bold" font-size="14.00">Geo fence</text>
<polygon fill="none" stroke="black" points="1918,-22.5 1918,-45.5 1988,-45.5 1988,-22.5 1918,-22.5"/>
</g>
<!-- EAID_E942A9FC_56CA_4dcb_8A30_5166F0C7E96D -->
<g id="node26" class="node"><title>EAID_E942A9FC_56CA_4dcb_8A30_5166F0C7E96D</title>
<polygon fill="none" stroke="black" points="1803,-23 1803,-44 1883,-44 1883,-23 1803,-23"/>
<text text-anchor="start" x="1806" y="-30.8" font-family="Times New Roman,serif" font-weight="bold" font-size="14.00">Save it later</text>
<polygon fill="none" stroke="black" points="1802,-22.5 1802,-45.5 1884,-45.5 1884,-22.5 1802,-22.5"/>
</g>
<!-- EAID_D96DCF18_B051_4a74_B994_4AA72F2F6980 -->
<g id="node27" class="node"><title>EAID_D96DCF18_B051_4a74_B994_4AA72F2F6980</title>
<polygon fill="none" stroke="black" points="1669,-23 1669,-44 1767,-44 1767,-23 1669,-23"/>
<text text-anchor="start" x="1672" y="-30.8" font-family="Times New Roman,serif" font-weight="bold" font-size="14.00">Scan QR Code</text>
<polygon fill="none" stroke="black" points="1668,-22.5 1668,-45.5 1768,-45.5 1768,-22.5 1668,-22.5"/>
</g>
<!-- EAID_89DA77E9_17AA_4f66_B6A0_31552C8E1C6C -->
<g id="node28" class="node"><title>EAID_89DA77E9_17AA_4f66_B6A0_31552C8E1C6C</title>
<polygon fill="none" stroke="black" points="1441,-23 1441,-44 1633,-44 1633,-23 1441,-23"/>
<text text-anchor="start" x="1444" y="-30.8" font-family="Times New Roman,serif" font-weight="bold" font-size="14.00">Sort coupons from far to close</text>
<polygon fill="none" stroke="black" points="1440,-22.5 1440,-45.5 1634,-45.5 1634,-22.5 1440,-22.5"/>
</g>
<!-- EAID_DDC2D790_6648_4fb3_A728_801B88D6B7F0 -->
<g id="node29" class="node"><title>EAID_DDC2D790_6648_4fb3_A728_801B88D6B7F0</title>
<polygon fill="none" stroke="black" points="1288,-23 1288,-44 1405,-44 1405,-23 1288,-23"/>
<text text-anchor="start" x="1291" y="-30.8" font-family="Times New Roman,serif" font-weight="bold" font-size="14.00">Create a category</text>
<polygon fill="none" stroke="black" points="1286.5,-22.5 1286.5,-45.5 1405.5,-45.5 1405.5,-22.5 1286.5,-22.5"/>
</g>
<!-- EAID_78877F71_A878_4bbc_A85F_700C53609FFA -->
<g id="node30" class="node"><title>EAID_78877F71_A878_4bbc_A85F_700C53609FFA</title>
<polygon fill="none" stroke="black" points="1103,-23 1103,-44 1252,-44 1252,-23 1103,-23"/>
<text text-anchor="start" x="1106" y="-30.8" font-family="Times New Roman,serif" font-weight="bold" font-size="14.00">Marked as Subscirpted</text>
<polygon fill="none" stroke="black" points="1101.5,-22.5 1101.5,-45.5 1252.5,-45.5 1252.5,-22.5 1101.5,-22.5"/>
</g>
<!-- EAID_056A8261_9F7D_4b14_B74D_AC2096049B58 -->
<g id="node31" class="node"><title>EAID_056A8261_9F7D_4b14_B74D_AC2096049B58</title>
<polygon fill="none" stroke="black" points="1010,-23 1010,-44 1067,-44 1067,-23 1010,-23"/>
<text text-anchor="start" x="1013" y="-30.8" font-family="Times New Roman,serif" font-weight="bold" font-size="14.00">Proceed</text>
<polygon fill="none" stroke="black" points="1008.5,-22.5 1008.5,-45.5 1067.5,-45.5 1067.5,-22.5 1008.5,-22.5"/>
</g>
<!-- EAID_4DFEC0D0_44CA_4667_930E_613F9322AF54 -->
<g id="node32" class="node"><title>EAID_4DFEC0D0_44CA_4667_930E_613F9322AF54</title>
<polygon fill="none" stroke="black" points="891,-23 891,-44 974,-44 974,-23 891,-23"/>
<text text-anchor="start" x="894" y="-30.8" font-family="Times New Roman,serif" font-weight="bold" font-size="14.00">FT sales rep</text>
<polygon fill="none" stroke="black" points="889.5,-22.5 889.5,-45.5 974.5,-45.5 974.5,-22.5 889.5,-22.5"/>
</g>
<!-- EAID_3E574FE1_159B_463c_A19A_654D4DF17D10 -->
<g id="node34" class="node"><title>EAID_3E574FE1_159B_463c_A19A_654D4DF17D10</title>
<polygon fill="none" stroke="black" points="734,-23 734,-44 768,-44 768,-23 734,-23"/>
<text text-anchor="start" x="737" y="-30.8" font-family="Times New Roman,serif" font-weight="bold" font-size="14.00">Test</text>
<polygon fill="none" stroke="black" points="733,-22.5 733,-45.5 769,-45.5 769,-22.5 733,-22.5"/>
</g>
<!-- EAID_2CD69C18_D4DC_4a28_A371_8B25822D6360 -->
<g id="node35" class="node"><title>EAID_2CD69C18_D4DC_4a28_A371_8B25822D6360</title>
<polygon fill="none" stroke="black" points="653,-23 653,-44 697,-44 697,-23 653,-23"/>
<text text-anchor="start" x="656" y="-30.8" font-family="Times New Roman,serif" font-weight="bold" font-size="14.00">FTSR</text>
<polygon fill="none" stroke="black" points="652,-22.5 652,-45.5 698,-45.5 698,-22.5 652,-22.5"/>
</g>
<!-- EAID_EAC17841_42BB_49cc_A531_7748B498C14A -->
<g id="node36" class="node"><title>EAID_EAC17841_42BB_49cc_A531_7748B498C14A</title>
<polygon fill="none" stroke="black" points="471,-23 471,-44 617,-44 617,-23 471,-23"/>
<text text-anchor="start" x="474" y="-30.8" font-family="Times New Roman,serif" font-weight="bold" font-size="14.00">File Chooser Windows</text>
<polygon fill="none" stroke="black" points="470,-22.5 470,-45.5 618,-45.5 618,-22.5 470,-22.5"/>
</g>
<!-- EAID_3667E19B_801A_439e_9B2B_12F9CC100B96 -->
<g id="node37" class="node"><title>EAID_3667E19B_801A_439e_9B2B_12F9CC100B96</title>
<polygon fill="none" stroke="black" points="386,-23 386,-44 435,-44 435,-23 386,-23"/>
<text text-anchor="start" x="389" y="-30.8" font-family="Times New Roman,serif" font-weight="bold" font-size="14.00">Photos</text>
<polygon fill="none" stroke="black" points="384.5,-22.5 384.5,-45.5 435.5,-45.5 435.5,-22.5 384.5,-22.5"/>
</g>
<!-- EAID_249E1B94_A628_4095_A30B_9F334D8C1C13 -->
<g id="node38" class="node"><title>EAID_249E1B94_A628_4095_A30B_9F334D8C1C13</title>
<polygon fill="none" stroke="black" points="267,-23 267,-44 349,-44 349,-23 267,-23"/>
<text text-anchor="start" x="270" y="-30.8" font-family="Times New Roman,serif" font-weight="bold" font-size="14.00">Main screen</text>
<polygon fill="none" stroke="black" points="266,-22.5 266,-45.5 350,-45.5 350,-22.5 266,-22.5"/>
</g>
<!-- EAID_52DB47A2_7596_4d57_813D_E26192FF0980 -->
<g id="node39" class="node"><title>EAID_52DB47A2_7596_4d57_813D_E26192FF0980</title>
<polygon fill="none" stroke="black" points="97,-23 97,-44 231,-44 231,-23 97,-23"/>
<text text-anchor="start" x="100" y="-30.8" font-family="Times New Roman,serif" font-weight="bold" font-size="14.00">Error prompting box</text>
<polygon fill="none" stroke="black" points="96,-22.5 96,-45.5 232,-45.5 232,-22.5 96,-22.5"/>
</g>
<!-- EAID_9E1297B3_D53B_4da9_9B1B_6CBDED4B1EEB -->
<g id="node40" class="node"><title>EAID_9E1297B3_D53B_4da9_9B1B_6CBDED4B1EEB</title>
<polygon fill="none" stroke="black" points="26,-23 26,-44 61,-44 61,-23 26,-23"/>
<text text-anchor="start" x="29" y="-30.8" font-family="Times New Roman,serif" font-weight="bold" font-size="14.00">Map</text>
<polygon fill="none" stroke="black" points="24.5,-22.5 24.5,-45.5 61.5,-45.5 61.5,-22.5 24.5,-22.5"/>
</g>
</g>
</svg>
