<?xml version="1.0" encoding="UTF-8" standalone="no"?>
<!DOCTYPE svg PUBLIC "-//W3C//DTD SVG 1.1//EN"
 "http://www.w3.org/Graphics/SVG/1.1/DTD/svg11.dtd">
<!-- Generated by graphviz version 2.38.0 (20140413.2041)
 -->
<!-- Title: g Pages: 1 -->
<svg width="1942pt" height="478pt"
 viewBox="0.00 0.00 1942.00 478.00" xmlns="http://www.w3.org/2000/svg" xmlns:xlink="http://www.w3.org/1999/xlink">
<g id="graph0" class="graph" transform="scale(1 1) rotate(0) translate(4 474)">
<title>g</title>
<polygon fill="white" stroke="none" points="-4,4 -4,-474 1938,-474 1938,4 -4,4"/>
<!-- EAID_32588A88_5BF7_4686_A569_4B64982860B6 -->
<g id="node1" class="node"><title>EAID_32588A88_5BF7_4686_A569_4B64982860B6</title>
<image xlink:href="img/actor1.png" width="82px" height="90px" preserveAspectRatio="xMinYMin meet" x="35" y="-215.5"/>
<text text-anchor="start" x="10" y="-102.3" font-family="Times New Roman,serif" font-size="24.00">Administrator</text>
</g>
<!-- EAID_24825519_C476_490f_A273_55D3A1AC58F2 -->
<g id="node2" class="node"><title>EAID_24825519_C476_490f_A273_55D3A1AC58F2</title>
<image xlink:href="img/boundary3.png" width="115px" height="67px" preserveAspectRatio="xMinYMin meet" x="257.5" y="-309.5"/>
<text text-anchor="start" x="198.5" y="-219.3" font-family="Times New Roman,serif" font-size="24.00">User management button</text>
</g>
<!-- EAID_32588A88_5BF7_4686_A569_4B64982860B6&#45;&gt;EAID_24825519_C476_490f_A273_55D3A1AC58F2 -->
<g id="edge1" class="edge"><title>EAID_32588A88_5BF7_4686_A569_4B64982860B6&#45;&gt;EAID_24825519_C476_490f_A273_55D3A1AC58F2</title>
<path fill="none" stroke="black" d="M152.155,-189.185C161.989,-193.592 172.283,-198.206 182.708,-202.879"/>
<polygon fill="black" stroke="black" points="181.339,-206.1 191.896,-206.997 184.202,-199.713 181.339,-206.1"/>
</g>
<!-- EAID_D5782C3C_7E12_43b9_874C_A110960174E0 -->
<g id="node3" class="node"><title>EAID_D5782C3C_7E12_43b9_874C_A110960174E0</title>
<image xlink:href="img/boundary3.png" width="115px" height="67px" preserveAspectRatio="xMinYMin meet" x="804.5" y="-463.5"/>
<text text-anchor="start" x="732.5" y="-373.3" font-family="Times New Roman,serif" font-size="24.00">unauthorized error message</text>
</g>
<!-- EAID_32588A88_5BF7_4686_A569_4B64982860B6&#45;&gt;EAID_D5782C3C_7E12_43b9_874C_A110960174E0 -->
<g id="edge2" class="edge"><title>EAID_32588A88_5BF7_4686_A569_4B64982860B6&#45;&gt;EAID_D5782C3C_7E12_43b9_874C_A110960174E0</title>
<path fill="none" stroke="black" d="M103.772,-221.616C122.014,-257.974 149.832,-300.46 188,-324.5 346.202,-424.143 566.684,-435.218 711.443,-429.242"/>
<polygon fill="black" stroke="black" points="711.899,-432.725 721.733,-428.783 711.587,-425.732 711.899,-432.725"/>
</g>
<!-- EAID_C13BFA33_163B_4b69_8BC8_2F4BB1004B10 -->
<g id="node4" class="node"><title>EAID_C13BFA33_163B_4b69_8BC8_2F4BB1004B10</title>
<image xlink:href="img/boundary3.png" width="115px" height="67px" preserveAspectRatio="xMinYMin meet" x="1411.5" y="-143.5"/>
<text text-anchor="start" x="1320" y="-53.3" font-family="Times New Roman,serif" font-size="24.00">user is already inactivated error</text>
</g>
<!-- EAID_32588A88_5BF7_4686_A569_4B64982860B6&#45;&gt;EAID_C13BFA33_163B_4b69_8BC8_2F4BB1004B10 -->
<g id="edge3" class="edge"><title>EAID_32588A88_5BF7_4686_A569_4B64982860B6&#45;&gt;EAID_C13BFA33_163B_4b69_8BC8_2F4BB1004B10</title>
<path fill="none" stroke="black" d="M152.28,-135.196C250.16,-110.624 426.791,-72.5 580.5,-72.5 580.5,-72.5 580.5,-72.5 862.5,-72.5 1010.35,-72.5 1178.37,-79.4327 1299.84,-85.6857"/>
<polygon fill="black" stroke="black" points="1299.81,-89.1885 1309.97,-86.2113 1300.17,-82.1979 1299.81,-89.1885"/>
</g>
<!-- EAID_C5C9B85F_CB1F_483d_BCF2_66E1C8348C5F -->
<g id="node5" class="node"><title>EAID_C5C9B85F_CB1F_483d_BCF2_66E1C8348C5F</title>
<image xlink:href="img/boundary3.png" width="115px" height="67px" preserveAspectRatio="xMinYMin meet" x="1741.5" y="-102.5"/>
<text text-anchor="start" x="1674" y="-12.3" font-family="Times New Roman,serif" font-size="24.00">activation success message</text>
</g>
<!-- EAID_32588A88_5BF7_4686_A569_4B64982860B6&#45;&gt;EAID_C5C9B85F_CB1F_483d_BCF2_66E1C8348C5F -->
<g id="edge4" class="edge"><title>EAID_32588A88_5BF7_4686_A569_4B64982860B6&#45;&gt;EAID_C5C9B85F_CB1F_483d_BCF2_66E1C8348C5F</title>
<path fill="none" stroke="black" d="M152.192,-97.8068C163.747,-90.8063 175.877,-84.4085 188,-79.5 352.032,-13.0837 403.532,-12.5 580.5,-12.5 580.5,-12.5 580.5,-12.5 1156.5,-12.5 1366.23,-12.5 1419.07,-13.1982 1628,-31.5 1636.32,-32.2285 1644.85,-33.0733 1653.45,-34.0001"/>
<polygon fill="black" stroke="black" points="1653.25,-37.499 1663.58,-35.1237 1654.02,-30.5417 1653.25,-37.499"/>
</g>
<!-- EAID_637A520B_0D31_4ff0_A48D_E82D2E9BDC24 -->
<g id="node6" class="node"><title>EAID_637A520B_0D31_4ff0_A48D_E82D2E9BDC24</title>
<image xlink:href="img/boundary3.png" width="115px" height="67px" preserveAspectRatio="xMinYMin meet" x="804" y="-203.5"/>
<text text-anchor="start" x="755.5" y="-113.3" font-family="Times New Roman,serif" font-size="24.00">user management page</text>
</g>
<!-- EAID_32588A88_5BF7_4686_A569_4B64982860B6&#45;&gt;EAID_637A520B_0D31_4ff0_A48D_E82D2E9BDC24 -->
<g id="edge5" class="edge"><title>EAID_32588A88_5BF7_4686_A569_4B64982860B6&#45;&gt;EAID_637A520B_0D31_4ff0_A48D_E82D2E9BDC24</title>
<path fill="none" stroke="black" d="M152.125,-155.5C286.808,-155.5 570.621,-155.5 735.194,-155.5"/>
<polygon fill="black" stroke="black" points="735.372,-159 745.372,-155.5 735.372,-152 735.372,-159"/>
</g>
<!-- EAID_BCEF4056_1731_46c2_8085_9D1DD5E5E0BF -->
<g id="node9" class="node"><title>EAID_BCEF4056_1731_46c2_8085_9D1DD5E5E0BF</title>
<image xlink:href="img/control1.png" width="106px" height="75px" preserveAspectRatio="xMinYMin meet" x="529" y="-315.5"/>
<text text-anchor="start" x="487.5" y="-217.3" font-family="Times New Roman,serif" font-size="24.00">validate role of user</text>
</g>
<!-- EAID_24825519_C476_490f_A273_55D3A1AC58F2&#45;&gt;EAID_BCEF4056_1731_46c2_8085_9D1DD5E5E0BF -->
<g id="edge7" class="edge"><title>EAID_24825519_C476_490f_A273_55D3A1AC58F2&#45;&gt;EAID_BCEF4056_1731_46c2_8085_9D1DD5E5E0BF</title>
<path fill="none" stroke="black" d="M441.016,-262.447C449.669,-262.513 458.363,-262.578 466.948,-262.643"/>
<polygon fill="black" stroke="black" points="466.942,-266.143 476.968,-262.719 466.995,-259.143 466.942,-266.143"/>
</g>
<!-- EAID_29D3C418_1DA1_47c3_9A9B_20D9042AA763 -->
<g id="node10" class="node"><title>EAID_29D3C418_1DA1_47c3_9A9B_20D9042AA763</title>
<image xlink:href="img/control1.png" width="106px" height="75px" preserveAspectRatio="xMinYMin meet" x="1103" y="-211.5"/>
<text text-anchor="start" x="1047.5" y="-113.3" font-family="Times New Roman,serif" font-size="24.00">check the status of user</text>
</g>
<!-- EAID_637A520B_0D31_4ff0_A48D_E82D2E9BDC24&#45;&gt;EAID_29D3C418_1DA1_47c3_9A9B_20D9042AA763 -->
<g id="edge11" class="edge"><title>EAID_637A520B_0D31_4ff0_A48D_E82D2E9BDC24&#45;&gt;EAID_29D3C418_1DA1_47c3_9A9B_20D9042AA763</title>
<path fill="none" stroke="black" d="M977.906,-157.081C993.88,-157.3 1010.36,-157.526 1026.55,-157.747"/>
<polygon fill="black" stroke="black" points="1026.53,-161.247 1036.58,-157.885 1026.63,-154.248 1026.53,-161.247"/>
</g>
<!-- EAID_1FE841E0_9879_4b5b_B1FE_2D904CA8A656 -->
<g id="node7" class="node"><title>EAID_1FE841E0_9879_4b5b_B1FE_2D904CA8A656</title>
<image xlink:href="img/control1.png" width="106px" height="75px" preserveAspectRatio="xMinYMin meet" x="1416" y="-278.5"/>
<text text-anchor="start" x="1380" y="-180.3" font-family="Times New Roman,serif" font-size="24.00">inactivtate the user</text>
</g>
<!-- EAID_1FE841E0_9879_4b5b_B1FE_2D904CA8A656&#45;&gt;EAID_C5C9B85F_CB1F_483d_BCF2_66E1C8348C5F -->
<g id="edge8" class="edge"><title>EAID_1FE841E0_9879_4b5b_B1FE_2D904CA8A656&#45;&gt;EAID_C5C9B85F_CB1F_483d_BCF2_66E1C8348C5F</title>
<path fill="none" stroke="black" d="M1568.36,-186.747C1588.34,-177.954 1609.04,-168.317 1628,-158.5 1653.7,-145.196 1680.75,-129.483 1705.53,-114.357"/>
<polygon fill="black" stroke="black" points="1707.5,-117.252 1714.19,-109.036 1703.84,-111.287 1707.5,-117.252"/>
</g>
<!-- EAID_9250EB68_12C9_425f_93EB_86D7D71F3BF9 -->
<g id="node8" class="node"><title>EAID_9250EB68_12C9_425f_93EB_86D7D71F3BF9</title>
<image xlink:href="img/entity1.png" width="80px" height="72px" preserveAspectRatio="xMinYMin meet" x="1759" y="-277.5"/>
<text text-anchor="start" x="1777" y="-182.3" font-family="Times New Roman,serif" font-size="24.00">User</text>
</g>
<!-- EAID_1FE841E0_9879_4b5b_B1FE_2D904CA8A656&#45;&gt;EAID_9250EB68_12C9_425f_93EB_86D7D71F3BF9 -->
<g id="edge6" class="edge"><title>EAID_1FE841E0_9879_4b5b_B1FE_2D904CA8A656&#45;&gt;EAID_9250EB68_12C9_425f_93EB_86D7D71F3BF9</title>
<path fill="none" stroke="black" d="M1568.41,-226.5C1623.79,-226.5 1691.11,-226.5 1738.49,-226.5"/>
<polygon fill="black" stroke="black" points="1738.59,-230 1748.59,-226.5 1738.59,-223 1738.59,-230"/>
</g>
<!-- EAID_BCEF4056_1731_46c2_8085_9D1DD5E5E0BF&#45;&gt;EAID_D5782C3C_7E12_43b9_874C_A110960174E0 -->
<g id="edge13" class="edge"><title>EAID_BCEF4056_1731_46c2_8085_9D1DD5E5E0BF&#45;&gt;EAID_D5782C3C_7E12_43b9_874C_A110960174E0</title>
<path fill="none" stroke="black" d="M671.524,-322.055C688.08,-332.255 705.395,-342.475 722,-351.5 724.909,-353.081 727.864,-354.66 730.854,-356.234"/>
<polygon fill="black" stroke="black" points="729.428,-359.437 739.917,-360.936 732.652,-353.224 729.428,-359.437"/>
</g>
<!-- EAID_BCEF4056_1731_46c2_8085_9D1DD5E5E0BF&#45;&gt;EAID_637A520B_0D31_4ff0_A48D_E82D2E9BDC24 -->
<g id="edge14" class="edge"><title>EAID_BCEF4056_1731_46c2_8085_9D1DD5E5E0BF&#45;&gt;EAID_637A520B_0D31_4ff0_A48D_E82D2E9BDC24</title>
<path fill="none" stroke="black" d="M686.017,-223.285C702.148,-217.018 718.962,-210.486 735.509,-204.058"/>
<polygon fill="black" stroke="black" points="737.159,-207.172 745.213,-200.288 734.624,-200.647 737.159,-207.172"/>
</g>
<!-- EAID_EF70585F_703A_4867_910D_5DA127CAF33D -->
<g id="node11" class="node"><title>EAID_EF70585F_703A_4867_910D_5DA127CAF33D</title>
<image xlink:href="img/entity1.png" width="80px" height="72px" preserveAspectRatio="xMinYMin meet" x="821.5" y="-336.5"/>
<text text-anchor="start" x="842.5" y="-241.3" font-family="Times New Roman,serif" font-size="24.00">role</text>
</g>
<!-- EAID_BCEF4056_1731_46c2_8085_9D1DD5E5E0BF&#45;&gt;EAID_EF70585F_703A_4867_910D_5DA127CAF33D -->
<g id="edge12" class="edge"><title>EAID_BCEF4056_1731_46c2_8085_9D1DD5E5E0BF&#45;&gt;EAID_EF70585F_703A_4867_910D_5DA127CAF33D</title>
<path fill="none" stroke="black" d="M686.017,-271.692C724.909,-274.77 767.774,-278.162 801.284,-280.814"/>
<polygon fill="black" stroke="black" points="801.124,-284.312 811.369,-281.612 801.677,-277.334 801.124,-284.312"/>
</g>
<!-- EAID_29D3C418_1DA1_47c3_9A9B_20D9042AA763&#45;&gt;EAID_C13BFA33_163B_4b69_8BC8_2F4BB1004B10 -->
<g id="edge10" class="edge"><title>EAID_29D3C418_1DA1_47c3_9A9B_20D9042AA763&#45;&gt;EAID_C13BFA33_163B_4b69_8BC8_2F4BB1004B10</title>
<path fill="none" stroke="black" d="M1274.26,-135.304C1282.62,-133.587 1291.14,-131.838 1299.7,-130.078"/>
<polygon fill="black" stroke="black" points="1300.68,-133.45 1309.77,-128.009 1299.27,-126.593 1300.68,-133.45"/>
</g>
<!-- EAID_29D3C418_1DA1_47c3_9A9B_20D9042AA763&#45;&gt;EAID_1FE841E0_9879_4b5b_B1FE_2D904CA8A656 -->
<g id="edge9" class="edge"><title>EAID_29D3C418_1DA1_47c3_9A9B_20D9042AA763&#45;&gt;EAID_1FE841E0_9879_4b5b_B1FE_2D904CA8A656</title>
<path fill="none" stroke="black" d="M1274.26,-184.83C1302.35,-190.87 1332.18,-197.287 1359.81,-203.229"/>
<polygon fill="black" stroke="black" points="1359.36,-206.714 1369.88,-205.395 1360.84,-199.87 1359.36,-206.714"/>
</g>
</g>
</svg>
