<?xml version="1.0" encoding="UTF-8" standalone="no"?>
<!DOCTYPE svg PUBLIC "-//W3C//DTD SVG 1.1//EN"
 "http://www.w3.org/Graphics/SVG/1.1/DTD/svg11.dtd">
<!-- Generated by graphviz version 2.38.0 (20140413.2041)
 -->
<!-- Title: g Pages: 1 -->
<svg width="816pt" height="289pt"
 viewBox="0.00 0.00 816.00 288.50" xmlns="http://www.w3.org/2000/svg" xmlns:xlink="http://www.w3.org/1999/xlink">
<g id="graph0" class="graph" transform="scale(1 1) rotate(0) translate(4 284.5)">
<title>g</title>
<polygon fill="white" stroke="none" points="-4,4 -4,-284.5 812,-284.5 812,4 -4,4"/>
<!-- EAID_020D5F55_C16A_47a2_B240_3EFF16D7C504 -->
<g id="node1" class="node"><title>EAID_020D5F55_C16A_47a2_B240_3EFF16D7C504</title>
<image xlink:href="img/actor1.png" width="61px" height="90px" preserveAspectRatio="xMinYMin meet" x="10.5" y="-243"/>
<text text-anchor="start" x="19" y="-129.8" font-family="Times New Roman,serif" font-size="24.00">User</text>
</g>
<!-- EAID_990363C3_CAD5_4a07_830C_3085D061676A -->
<g id="node2" class="node"><title>EAID_990363C3_CAD5_4a07_830C_3085D061676A</title>
<image xlink:href="img/boundary3.png" width="91px" height="67px" preserveAspectRatio="xMinYMin meet" x="470.5" y="-274"/>
<text text-anchor="start" x="470.5" y="-183.8" font-family="Times New Roman,serif" font-size="24.00">VR mode</text>
</g>
<!-- EAID_020D5F55_C16A_47a2_B240_3EFF16D7C504&#45;&gt;EAID_990363C3_CAD5_4a07_830C_3085D061676A -->
<g id="edge1" class="edge"><title>EAID_020D5F55_C16A_47a2_B240_3EFF16D7C504&#45;&gt;EAID_990363C3_CAD5_4a07_830C_3085D061676A</title>
<path fill="none" stroke="black" d="M81.1065,-195.747C92.5736,-198.964 105.187,-202.054 117,-204 233.011,-223.113 370.364,-226.539 449.469,-226.687"/>
<polygon fill="black" stroke="black" points="449.764,-230.187 459.765,-226.688 449.765,-223.187 449.764,-230.187"/>
</g>
<!-- EAID_0C4634F8_621E_4652_B303_A89683A6212C -->
<g id="node3" class="node"><title>EAID_0C4634F8_621E_4652_B303_A89683A6212C</title>
<image xlink:href="img/boundary3.png" width="87px" height="67px" preserveAspectRatio="xMinYMin meet" x="127.5" y="-189"/>
<text text-anchor="start" x="127.5" y="-98.8" font-family="Times New Roman,serif" font-size="24.00">Ar Mode</text>
</g>
<!-- EAID_020D5F55_C16A_47a2_B240_3EFF16D7C504&#45;&gt;EAID_0C4634F8_621E_4652_B303_A89683A6212C -->
<g id="edge2" class="edge"><title>EAID_020D5F55_C16A_47a2_B240_3EFF16D7C504&#45;&gt;EAID_0C4634F8_621E_4652_B303_A89683A6212C</title>
<path fill="none" stroke="black" d="M81.2984,-169.941C89.4032,-167.282 98.1152,-164.423 106.795,-161.575"/>
<polygon fill="black" stroke="black" points="108.138,-164.818 116.548,-158.375 105.955,-158.167 108.138,-164.818"/>
</g>
<!-- EAID_B2D6F5CE_B362_40ad_9D09_E70387BA04D5 -->
<g id="node6" class="node"><title>EAID_B2D6F5CE_B362_40ad_9D09_E70387BA04D5</title>
<image xlink:href="img/control1.png" width="106px" height="75px" preserveAspectRatio="xMinYMin meet" x="670" y="-212"/>
<text text-anchor="start" x="647.5" y="-113.8" font-family="Times New Roman,serif" font-size="24.00">If not in Hawaii</text>
</g>
<!-- EAID_990363C3_CAD5_4a07_830C_3085D061676A&#45;&gt;EAID_B2D6F5CE_B362_40ad_9D09_E70387BA04D5 -->
<g id="edge7" class="edge"><title>EAID_990363C3_CAD5_4a07_830C_3085D061676A&#45;&gt;EAID_B2D6F5CE_B362_40ad_9D09_E70387BA04D5</title>
<path fill="none" stroke="black" d="M571.167,-208.4C588.416,-202.846 607.995,-196.543 627.189,-190.363"/>
<polygon fill="black" stroke="black" points="628.425,-193.643 636.871,-187.246 626.28,-186.979 628.425,-193.643"/>
</g>
<!-- EAID_EF32C35B_857E_42e0_BFCA_CEFD99C67258 -->
<g id="node4" class="node"><title>EAID_EF32C35B_857E_42e0_BFCA_CEFD99C67258</title>
<image xlink:href="img/control1.png" width="106px" height="75px" preserveAspectRatio="xMinYMin meet" x="274" y="-191"/>
<text text-anchor="start" x="270" y="-92.8" font-family="Times New Roman,serif" font-size="24.00">if in Hawaii</text>
</g>
<!-- EAID_0C4634F8_621E_4652_B303_A89683A6212C&#45;&gt;EAID_EF32C35B_857E_42e0_BFCA_CEFD99C67258 -->
<g id="edge3" class="edge"><title>EAID_0C4634F8_621E_4652_B303_A89683A6212C&#45;&gt;EAID_EF32C35B_857E_42e0_BFCA_CEFD99C67258</title>
<path fill="none" stroke="black" d="M224.238,-140.317C232.469,-140.211 241.114,-140.099 249.742,-139.987"/>
<polygon fill="black" stroke="black" points="249.884,-143.486 259.838,-139.856 249.794,-136.486 249.884,-143.486"/>
</g>
<!-- EAID_4F4B280D_AEB9_4a52_90D9_99A740F5FA54 -->
<g id="node5" class="node"><title>EAID_4F4B280D_AEB9_4a52_90D9_99A740F5FA54</title>
<image xlink:href="img/control1.png" width="106px" height="75px" preserveAspectRatio="xMinYMin meet" x="463" y="-147"/>
<text text-anchor="start" x="440.5" y="-48.8" font-family="Times New Roman,serif" font-size="24.00">Check Location</text>
</g>
<!-- EAID_EF32C35B_857E_42e0_BFCA_CEFD99C67258&#45;&gt;EAID_4F4B280D_AEB9_4a52_90D9_99A740F5FA54 -->
<g id="edge6" class="edge"><title>EAID_EF32C35B_857E_42e0_BFCA_CEFD99C67258&#45;&gt;EAID_4F4B280D_AEB9_4a52_90D9_99A740F5FA54</title>
<path fill="none" stroke="black" d="M394.015,-123.425C402.466,-121.432 411.244,-119.361 420.036,-117.286"/>
<polygon fill="black" stroke="black" points="421.024,-120.65 429.953,-114.947 419.416,-113.837 421.024,-120.65"/>
</g>
<!-- EAID_4F4B280D_AEB9_4a52_90D9_99A740F5FA54&#45;&gt;EAID_B2D6F5CE_B362_40ad_9D09_E70387BA04D5 -->
<g id="edge4" class="edge"><title>EAID_4F4B280D_AEB9_4a52_90D9_99A740F5FA54&#45;&gt;EAID_B2D6F5CE_B362_40ad_9D09_E70387BA04D5</title>
<path fill="none" stroke="black" d="M601.065,-121.813C609.639,-124.532 618.386,-127.305 627.056,-130.054"/>
<polygon fill="black" stroke="black" points="626.208,-133.457 636.799,-133.143 628.324,-126.785 626.208,-133.457"/>
</g>
<!-- EAID_08111734_68BB_419b_8F1E_F45F0DFFE07F -->
<g id="node7" class="node"><title>EAID_08111734_68BB_419b_8F1E_F45F0DFFE07F</title>
<image xlink:href="img/activity_icon.png" width="30px" height="20px" preserveAspectRatio="xMinYMin meet" x="312.5" y="-56"/>
<text text-anchor="start" x="282" y="-13.8" font-family="Times New Roman,serif" font-weight="bold" font-size="24.00">Location</text>
</g>
<!-- EAID_08111734_68BB_419b_8F1E_F45F0DFFE07F&#45;&gt;EAID_4F4B280D_AEB9_4a52_90D9_99A740F5FA54 -->
<g id="edge5" class="edge"><title>EAID_08111734_68BB_419b_8F1E_F45F0DFFE07F&#45;&gt;EAID_4F4B280D_AEB9_4a52_90D9_99A740F5FA54</title>
<path fill="none" stroke="black" d="M382.696,-49.7697C394.43,-53.7964 407.153,-58.1623 419.909,-62.5397"/>
<polygon fill="black" stroke="black" points="419.059,-65.9485 429.654,-65.8839 421.331,-59.3275 419.059,-65.9485"/>
</g>
</g>
</svg>
