<?xml version="1.0" encoding="UTF-8" standalone="no"?>
<!DOCTYPE svg PUBLIC "-//W3C//DTD SVG 1.1//EN"
 "http://www.w3.org/Graphics/SVG/1.1/DTD/svg11.dtd">
<!-- Generated by graphviz version 2.38.0 (20140413.2041)
 -->
<!-- Title: g Pages: 1 -->
<svg width="3202pt" height="976pt"
 viewBox="0.00 0.00 3202.00 975.78" xmlns="http://www.w3.org/2000/svg" xmlns:xlink="http://www.w3.org/1999/xlink">
<g id="graph0" class="graph" transform="scale(1 1) rotate(0) translate(4 971.777)">
<title>g</title>
<polygon fill="white" stroke="none" points="-4,4 -4,-971.777 3198,-971.777 3198,4 -4,4"/>
<!-- EAID_B54FE9C2_BEF2_4807_AA60_681516667892 -->
<g id="node1" class="node"><title>EAID_B54FE9C2_BEF2_4807_AA60_681516667892</title>
<image xlink:href="img/actor1.png" width="82px" height="90px" preserveAspectRatio="xMinYMin meet" x="30" y="-395"/>
<text text-anchor="start" x="10.5" y="-281.8" font-family="Times New Roman,serif" font-size="24.00">Weight loser</text>
</g>
<!-- EAID_62FD7865_31D8_4a5d_AA6A_942160C55CCA -->
<g id="node2" class="node"><title>EAID_62FD7865_31D8_4a5d_AA6A_942160C55CCA</title>
<image xlink:href="img/control1.png" width="106px" height="75px" preserveAspectRatio="xMinYMin meet" x="3030" y="-306"/>
<text text-anchor="start" x="2981.5" y="-207.8" font-family="Times New Roman,serif" font-size="24.00">redirect to login page</text>
</g>
<!-- EAID_B54FE9C2_BEF2_4807_AA60_681516667892&#45;&gt;EAID_62FD7865_31D8_4a5d_AA6A_942160C55CCA -->
<g id="edge1" class="edge"><title>EAID_B54FE9C2_BEF2_4807_AA60_681516667892&#45;&gt;EAID_62FD7865_31D8_4a5d_AA6A_942160C55CCA</title>
<path fill="none" stroke="black" d="M88.4481,-268.788C104.199,-218.681 132.113,-151.029 177,-106 282.029,-0.640151 345.732,-0 494.5,-0 494.5,-0 494.5,-0 2495.5,-0 2685.97,-0 2884.67,-114.36 2994.8,-189.609"/>
<polygon fill="black" stroke="black" points="2993,-192.622 3003.22,-195.408 2996.97,-186.856 2993,-192.622"/>
</g>
<!-- EAID_E8BCFAAE_A8B4_4379_BF78_A2CB9CB389DC -->
<g id="node3" class="node"><title>EAID_E8BCFAAE_A8B4_4379_BF78_A2CB9CB389DC</title>
<image xlink:href="img/boundary3.png" width="115px" height="67px" preserveAspectRatio="xMinYMin meet" x="1531" y="-917"/>
<text text-anchor="start" x="1478.5" y="-826.8" font-family="Times New Roman,serif" font-size="24.00">credential already exist</text>
</g>
<!-- EAID_B54FE9C2_BEF2_4807_AA60_681516667892&#45;&gt;EAID_E8BCFAAE_A8B4_4379_BF78_A2CB9CB389DC -->
<g id="edge2" class="edge"><title>EAID_B54FE9C2_BEF2_4807_AA60_681516667892&#45;&gt;EAID_E8BCFAAE_A8B4_4379_BF78_A2CB9CB389DC</title>
<path fill="none" stroke="black" d="M85.7664,-401.024C123.246,-554.631 239.691,-923 494.5,-923 494.5,-923 494.5,-923 862.5,-923 1102.89,-923 1164.06,-929.296 1403,-903 1420.98,-901.022 1439.83,-898.302 1458.34,-895.256"/>
<polygon fill="black" stroke="black" points="1459,-898.695 1468.28,-893.585 1457.84,-891.792 1459,-898.695"/>
</g>
<!-- EAID_6EB1ADD1_C576_4810_97B2_8019C183E8E7 -->
<g id="node4" class="node"><title>EAID_6EB1ADD1_C576_4810_97B2_8019C183E8E7</title>
<image xlink:href="img/boundary3.png" width="108px" height="67px" preserveAspectRatio="xMinYMin meet" x="1874.5" y="-888"/>
<text text-anchor="start" x="1874.5" y="-797.8" font-family="Times New Roman,serif" font-size="24.00">Home page</text>
</g>
<!-- EAID_B54FE9C2_BEF2_4807_AA60_681516667892&#45;&gt;EAID_6EB1ADD1_C576_4810_97B2_8019C183E8E7 -->
<g id="edge3" class="edge"><title>EAID_B54FE9C2_BEF2_4807_AA60_681516667892&#45;&gt;EAID_6EB1ADD1_C576_4810_97B2_8019C183E8E7</title>
<path fill="none" stroke="black" d="M76.8054,-401.214C86.1865,-488.321 111.379,-643.825 177,-759 259.795,-904.318 327.251,-961 494.5,-961 494.5,-961 494.5,-961 1234.5,-961 1458.65,-961 1521.09,-988.487 1738,-932 1778.61,-921.425 1820.89,-901.846 1855.18,-883.46"/>
<polygon fill="black" stroke="black" points="1857.06,-886.42 1864.17,-878.567 1853.72,-880.271 1857.06,-886.42"/>
</g>
<!-- EAID_F5A5527F_1994_4901_8044_7581A77832F4 -->
<g id="node5" class="node"><title>EAID_F5A5527F_1994_4901_8044_7581A77832F4</title>
<image xlink:href="img/boundary3.png" width="115px" height="67px" preserveAspectRatio="xMinYMin meet" x="1176" y="-888"/>
<text text-anchor="start" x="1129.5" y="-797.8" font-family="Times New Roman,serif" font-size="24.00">exceed the time limite</text>
</g>
<!-- EAID_B54FE9C2_BEF2_4807_AA60_681516667892&#45;&gt;EAID_F5A5527F_1994_4901_8044_7581A77832F4 -->
<g id="edge4" class="edge"><title>EAID_B54FE9C2_BEF2_4807_AA60_681516667892&#45;&gt;EAID_F5A5527F_1994_4901_8044_7581A77832F4</title>
<path fill="none" stroke="black" d="M93.8162,-401.091C111.634,-447.721 139.776,-510 177,-557 231.773,-626.158 253.622,-640.505 332,-681 586.184,-812.326 928.761,-837.549 1109.31,-840.974"/>
<polygon fill="black" stroke="black" points="1109.32,-844.474 1119.37,-841.145 1109.43,-837.475 1109.32,-844.474"/>
</g>
<!-- EAID_0DF1B9DA_7A57_4dc3_A1EB_EC4D6F1107BE -->
<g id="node6" class="node"><title>EAID_0DF1B9DA_7A57_4dc3_A1EB_EC4D6F1107BE</title>
<image xlink:href="img/boundary3.png" width="115px" height="67px" preserveAspectRatio="xMinYMin meet" x="1871" y="-296"/>
<text text-anchor="start" x="1815.5" y="-205.8" font-family="Times New Roman,serif" font-size="24.00">&quot;URL expired&quot; message</text>
</g>
<!-- EAID_B54FE9C2_BEF2_4807_AA60_681516667892&#45;&gt;EAID_0DF1B9DA_7A57_4dc3_A1EB_EC4D6F1107BE -->
<g id="edge5" class="edge"><title>EAID_B54FE9C2_BEF2_4807_AA60_681516667892&#45;&gt;EAID_0DF1B9DA_7A57_4dc3_A1EB_EC4D6F1107BE</title>
<path fill="none" stroke="black" d="M141.119,-320.63C153.051,-318.504 165.354,-316.521 177,-315 317.29,-296.683 353.019,-292 494.5,-292 494.5,-292 494.5,-292 1234.5,-292 1429.88,-292 1655.63,-274.365 1794.98,-261.424"/>
<polygon fill="black" stroke="black" points="1795.65,-264.877 1805.28,-260.462 1795,-257.907 1795.65,-264.877"/>
</g>
<!-- EAID_3CB79146_401A_4d4e_BE61_B9B962AA8ACD -->
<g id="node7" class="node"><title>EAID_3CB79146_401A_4d4e_BE61_B9B962AA8ACD</title>
<image xlink:href="img/boundary3.png" width="115px" height="67px" preserveAspectRatio="xMinYMin meet" x="804.5" y="-770"/>
<text text-anchor="start" x="798.5" y="-679.8" font-family="Times New Roman,serif" font-size="24.00">invlid pattern</text>
</g>
<!-- EAID_B54FE9C2_BEF2_4807_AA60_681516667892&#45;&gt;EAID_3CB79146_401A_4d4e_BE61_B9B962AA8ACD -->
<g id="edge6" class="edge"><title>EAID_B54FE9C2_BEF2_4807_AA60_681516667892&#45;&gt;EAID_3CB79146_401A_4d4e_BE61_B9B962AA8ACD</title>
<path fill="none" stroke="black" d="M113.17,-401.212C158.588,-467.524 237.542,-567.106 332,-620 474.372,-699.724 668.409,-718.145 777.391,-721.8"/>
<polygon fill="black" stroke="black" points="777.567,-725.307 787.667,-722.11 777.777,-718.31 777.567,-725.307"/>
</g>
<!-- EAID_5AC7C8C5_8142_4d83_9445_13051461B706 -->
<g id="node8" class="node"><title>EAID_5AC7C8C5_8142_4d83_9445_13051461B706</title>
<image xlink:href="img/boundary3.png" width="99px" height="67px" preserveAspectRatio="xMinYMin meet" x="187.5" y="-427"/>
<text text-anchor="start" x="187.5" y="-336.8" font-family="Times New Roman,serif" font-size="24.00">login page</text>
</g>
<!-- EAID_B54FE9C2_BEF2_4807_AA60_681516667892&#45;&gt;EAID_5AC7C8C5_8142_4d83_9445_13051461B706 -->
<g id="edge7" class="edge"><title>EAID_B54FE9C2_BEF2_4807_AA60_681516667892&#45;&gt;EAID_5AC7C8C5_8142_4d83_9445_13051461B706</title>
<path fill="none" stroke="black" d="M141.051,-353.66C149.741,-355.991 158.621,-358.374 167.291,-360.7"/>
<polygon fill="black" stroke="black" points="166.402,-364.085 176.967,-363.296 168.215,-357.324 166.402,-364.085"/>
</g>
<!-- EAID_FE5E9986_CEC2_4b94_89CE_31864A3A6F8E -->
<g id="node9" class="node"><title>EAID_FE5E9986_CEC2_4b94_89CE_31864A3A6F8E</title>
<image xlink:href="img/boundary3.png" width="115px" height="67px" preserveAspectRatio="xMinYMin meet" x="2163.5" y="-389"/>
<text text-anchor="start" x="2129" y="-298.8" font-family="Times New Roman,serif" font-size="24.00">new password page</text>
</g>
<!-- EAID_B54FE9C2_BEF2_4807_AA60_681516667892&#45;&gt;EAID_FE5E9986_CEC2_4b94_89CE_31864A3A6F8E -->
<g id="edge8" class="edge"><title>EAID_B54FE9C2_BEF2_4807_AA60_681516667892&#45;&gt;EAID_FE5E9986_CEC2_4b94_89CE_31864A3A6F8E</title>
<path fill="none" stroke="black" d="M121.197,-268.717C193.065,-181.184 335.002,-38 494.5,-38 494.5,-38 494.5,-38 1589.5,-38 1699.25,-38 1991.19,3.13593 2083,-57 2158.03,-106.145 2193.13,-208.71 2208.69,-276.188"/>
<polygon fill="black" stroke="black" points="2205.35,-277.288 2210.93,-286.291 2212.18,-275.77 2205.35,-277.288"/>
</g>
<!-- EAID_A4134AF0_13BA_49aa_84A8_6144ED376C8F -->
<g id="node10" class="node"><title>EAID_A4134AF0_13BA_49aa_84A8_6144ED376C8F</title>
<image xlink:href="img/boundary3.png" width="115px" height="67px" preserveAspectRatio="xMinYMin meet" x="1871" y="-169"/>
<text text-anchor="start" x="1842.5" y="-78.8" font-family="Times New Roman,serif" font-size="24.00">email doesn&#39;t exist</text>
</g>
<!-- EAID_B54FE9C2_BEF2_4807_AA60_681516667892&#45;&gt;EAID_A4134AF0_13BA_49aa_84A8_6144ED376C8F -->
<g id="edge9" class="edge"><title>EAID_B54FE9C2_BEF2_4807_AA60_681516667892&#45;&gt;EAID_A4134AF0_13BA_49aa_84A8_6144ED376C8F</title>
<path fill="none" stroke="black" d="M141.155,-288.703C222.394,-239.28 362.45,-168 494.5,-168 494.5,-168 494.5,-168 1234.5,-168 1443.32,-168 1686.72,-146.495 1822.38,-132.578"/>
<polygon fill="black" stroke="black" points="1822.77,-136.056 1832.36,-131.548 1822.05,-129.093 1822.77,-136.056"/>
</g>
<!-- EAID_E1C7439E_C9EE_4c3d_9016_6E56FA8703A3 -->
<g id="node11" class="node"><title>EAID_E1C7439E_C9EE_4c3d_9016_6E56FA8703A3</title>
<image xlink:href="img/boundary3.png" width="115px" height="67px" preserveAspectRatio="xMinYMin meet" x="1176.5" y="-427"/>
<text text-anchor="start" x="1132.5" y="-336.8" font-family="Times New Roman,serif" font-size="24.00">forgot password page</text>
</g>
<!-- EAID_B54FE9C2_BEF2_4807_AA60_681516667892&#45;&gt;EAID_E1C7439E_C9EE_4c3d_9016_6E56FA8703A3 -->
<g id="edge10" class="edge"><title>EAID_B54FE9C2_BEF2_4807_AA60_681516667892&#45;&gt;EAID_E1C7439E_C9EE_4c3d_9016_6E56FA8703A3</title>
<path fill="none" stroke="black" d="M141.035,-291.311C152.662,-285.82 164.89,-281.062 177,-278 228.275,-265.034 243.125,-276.809 296,-278 621.581,-285.335 707.776,-251.725 1028,-311 1055.81,-316.148 1085.02,-324.184 1112.39,-332.954"/>
<polygon fill="black" stroke="black" points="1111.4,-336.311 1121.99,-336.083 1113.57,-329.656 1111.4,-336.311"/>
</g>
<!-- EAID_13CCCBB0_D386_42c1_B235_BFB0E9DD04FA -->
<g id="node14" class="node"><title>EAID_13CCCBB0_D386_42c1_B235_BFB0E9DD04FA</title>
<image xlink:href="img/control1.png" width="106px" height="75px" preserveAspectRatio="xMinYMin meet" x="443" y="-605"/>
<text text-anchor="start" x="345.5" y="-506.8" font-family="Times New Roman,serif" font-size="24.00">check email and password valid</text>
</g>
<!-- EAID_5AC7C8C5_8142_4d83_9445_13051461B706&#45;&gt;EAID_13CCCBB0_D386_42c1_B235_BFB0E9DD04FA -->
<g id="edge16" class="edge"><title>EAID_5AC7C8C5_8142_4d83_9445_13051461B706&#45;&gt;EAID_13CCCBB0_D386_42c1_B235_BFB0E9DD04FA</title>
<path fill="none" stroke="black" d="M296.008,-420.953C307.869,-429.325 320.294,-438 332,-446 352.557,-460.05 374.749,-474.88 395.93,-488.876"/>
<polygon fill="black" stroke="black" points="394.031,-491.816 404.305,-494.402 397.886,-485.974 394.031,-491.816"/>
</g>
<!-- EAID_60EBEFE1_9F34_4129_BB29_E6F46FA01159 -->
<g id="node23" class="node"><title>EAID_60EBEFE1_9F34_4129_BB29_E6F46FA01159</title>
<image xlink:href="img/control1.png" width="106px" height="75px" preserveAspectRatio="xMinYMin meet" x="443" y="-431"/>
<text text-anchor="start" x="342.5" y="-332.8" font-family="Times New Roman,serif" font-size="24.00">redirect to forgot password page</text>
</g>
<!-- EAID_5AC7C8C5_8142_4d83_9445_13051461B706&#45;&gt;EAID_60EBEFE1_9F34_4129_BB29_E6F46FA01159 -->
<g id="edge34" class="edge"><title>EAID_5AC7C8C5_8142_4d83_9445_13051461B706&#45;&gt;EAID_60EBEFE1_9F34_4129_BB29_E6F46FA01159</title>
<path fill="none" stroke="black" d="M296.139,-379C304.212,-379 312.813,-379 321.739,-379"/>
<polygon fill="black" stroke="black" points="321.944,-382.5 331.944,-379 321.944,-375.5 321.944,-382.5"/>
</g>
<!-- EAID_C34254FF_1D2C_41d6_966B_71E5A364DDB8 -->
<g id="node17" class="node"><title>EAID_C34254FF_1D2C_41d6_966B_71E5A364DDB8</title>
<image xlink:href="img/control1.png" width="106px" height="75px" preserveAspectRatio="xMinYMin meet" x="2442" y="-393"/>
<text text-anchor="start" x="2369.5" y="-294.8" font-family="Times New Roman,serif" font-size="24.00">check if password matches</text>
</g>
<!-- EAID_FE5E9986_CEC2_4b94_89CE_31864A3A6F8E&#45;&gt;EAID_C34254FF_1D2C_41d6_966B_71E5A364DDB8 -->
<g id="edge20" class="edge"><title>EAID_FE5E9986_CEC2_4b94_89CE_31864A3A6F8E&#45;&gt;EAID_C34254FF_1D2C_41d6_966B_71E5A364DDB8</title>
<path fill="none" stroke="black" d="M2323.1,-341C2331.44,-341 2339.97,-341 2348.55,-341"/>
<polygon fill="black" stroke="black" points="2348.64,-344.5 2358.64,-341 2348.64,-337.5 2348.64,-344.5"/>
</g>
<!-- EAID_B4C2ACED_C7C7_4eb6_BCF9_E0E89B379ED8 -->
<g id="node12" class="node"><title>EAID_B4C2ACED_C7C7_4eb6_BCF9_E0E89B379ED8</title>
<image xlink:href="img/control1.png" width="106px" height="75px" preserveAspectRatio="xMinYMin meet" x="1535.5" y="-431"/>
<text text-anchor="start" x="1505.5" y="-332.8" font-family="Times New Roman,serif" font-size="24.00">check url validity</text>
</g>
<!-- EAID_E1C7439E_C9EE_4c3d_9016_6E56FA8703A3&#45;&gt;EAID_B4C2ACED_C7C7_4eb6_BCF9_E0E89B379ED8 -->
<g id="edge31" class="edge"><title>EAID_E1C7439E_C9EE_4c3d_9016_6E56FA8703A3&#45;&gt;EAID_B4C2ACED_C7C7_4eb6_BCF9_E0E89B379ED8</title>
<path fill="none" stroke="black" d="M1345.22,-379C1389.96,-379 1441.28,-379 1485.13,-379"/>
<polygon fill="black" stroke="black" points="1485.24,-382.5 1495.24,-379 1485.24,-375.5 1485.24,-382.5"/>
</g>
<!-- EAID_B4C2ACED_C7C7_4eb6_BCF9_E0E89B379ED8&#45;&gt;EAID_0DF1B9DA_7A57_4dc3_A1EB_EC4D6F1107BE -->
<g id="edge11" class="edge"><title>EAID_B4C2ACED_C7C7_4eb6_BCF9_E0E89B379ED8&#45;&gt;EAID_0DF1B9DA_7A57_4dc3_A1EB_EC4D6F1107BE</title>
<path fill="none" stroke="black" d="M1681.86,-343.204C1717,-329.585 1757.74,-313.794 1795.82,-299.034"/>
<polygon fill="black" stroke="black" points="1797.39,-302.183 1805.44,-295.306 1794.86,-295.656 1797.39,-302.183"/>
</g>
<!-- EAID_B4C2ACED_C7C7_4eb6_BCF9_E0E89B379ED8&#45;&gt;EAID_A4134AF0_13BA_49aa_84A8_6144ED376C8F -->
<g id="edge28" class="edge"><title>EAID_B4C2ACED_C7C7_4eb6_BCF9_E0E89B379ED8&#45;&gt;EAID_A4134AF0_13BA_49aa_84A8_6144ED376C8F</title>
<path fill="none" stroke="black" d="M1633.85,-320.151C1668.27,-277.733 1719.23,-221.569 1774,-184 1788.93,-173.757 1805.79,-164.746 1822.72,-156.979"/>
<polygon fill="black" stroke="black" points="1824.41,-160.057 1832.12,-152.792 1821.56,-153.662 1824.41,-160.057"/>
</g>
<!-- EAID_ECEA2F3F_5649_44f2_B7F3_F4A4BC45CD16 -->
<g id="node16" class="node"><title>EAID_ECEA2F3F_5649_44f2_B7F3_F4A4BC45CD16</title>
<image xlink:href="img/activity_icon.png" width="30px" height="20px" preserveAspectRatio="xMinYMin meet" x="3068" y="-510"/>
<text text-anchor="start" x="3037.5" y="-467.8" font-family="Times New Roman,serif" font-weight="bold" font-size="24.00">user info</text>
</g>
<!-- EAID_B4C2ACED_C7C7_4eb6_BCF9_E0E89B379ED8&#45;&gt;EAID_ECEA2F3F_5649_44f2_B7F3_F4A4BC45CD16 -->
<g id="edge30" class="edge"><title>EAID_B4C2ACED_C7C7_4eb6_BCF9_E0E89B379ED8&#45;&gt;EAID_ECEA2F3F_5649_44f2_B7F3_F4A4BC45CD16</title>
<path fill="none" stroke="black" d="M1681.78,-418.721C1710.78,-429.501 1743.25,-439.877 1774,-446 1968.6,-484.754 2021.58,-466 2220,-466 2220,-466 2220,-466 2495.5,-466 2685.08,-466 2908.97,-476.056 3016.91,-481.537"/>
<polygon fill="black" stroke="black" points="3016.82,-485.037 3026.99,-482.052 3017.18,-478.046 3016.82,-485.037"/>
</g>
<!-- EAID_35484F97_B43E_43dd_BDEE_781F6463CCE5 -->
<g id="node21" class="node"><title>EAID_35484F97_B43E_43dd_BDEE_781F6463CCE5</title>
<image xlink:href="img/control1.png" width="106px" height="75px" preserveAspectRatio="xMinYMin meet" x="1876" y="-431"/>
<text text-anchor="start" x="1784.5" y="-332.8" font-family="Times New Roman,serif" font-size="24.00">redirect to new password page</text>
</g>
<!-- EAID_B4C2ACED_C7C7_4eb6_BCF9_E0E89B379ED8&#45;&gt;EAID_35484F97_B43E_43dd_BDEE_781F6463CCE5 -->
<g id="edge29" class="edge"><title>EAID_B4C2ACED_C7C7_4eb6_BCF9_E0E89B379ED8&#45;&gt;EAID_35484F97_B43E_43dd_BDEE_781F6463CCE5</title>
<path fill="none" stroke="black" d="M1681.86,-379C1707.19,-379 1735.43,-379 1763.49,-379"/>
<polygon fill="black" stroke="black" points="1763.81,-382.5 1773.81,-379 1763.81,-375.5 1763.81,-382.5"/>
</g>
<!-- EAID_69D62903_802A_4692_85BB_C911859A9E2A -->
<g id="node13" class="node"><title>EAID_69D62903_802A_4692_85BB_C911859A9E2A</title>
<image xlink:href="img/control1.png" width="106px" height="75px" preserveAspectRatio="xMinYMin meet" x="1536" y="-771"/>
<text text-anchor="start" x="1449.5" y="-672.8" font-family="Times New Roman,serif" font-size="24.00">redirect the user to homepage</text>
</g>
<!-- EAID_69D62903_802A_4692_85BB_C911859A9E2A&#45;&gt;EAID_6EB1ADD1_C576_4810_97B2_8019C183E8E7 -->
<g id="edge12" class="edge"><title>EAID_69D62903_802A_4692_85BB_C911859A9E2A&#45;&gt;EAID_6EB1ADD1_C576_4810_97B2_8019C183E8E7</title>
<path fill="none" stroke="black" d="M1738.24,-772.248C1778.72,-786.737 1820.76,-801.789 1854.91,-814.015"/>
<polygon fill="black" stroke="black" points="1853.73,-817.31 1864.33,-817.386 1856.09,-810.72 1853.73,-817.31"/>
</g>
<!-- EAID_13CCCBB0_D386_42c1_B235_BFB0E9DD04FA&#45;&gt;EAID_3CB79146_401A_4d4e_BE61_B9B962AA8ACD -->
<g id="edge13" class="edge"><title>EAID_13CCCBB0_D386_42c1_B235_BFB0E9DD04FA&#45;&gt;EAID_3CB79146_401A_4d4e_BE61_B9B962AA8ACD</title>
<path fill="none" stroke="black" d="M601.714,-611.602C631.516,-627.391 664.227,-643.97 695,-658 721.704,-670.175 751.452,-682.152 778.281,-692.391"/>
<polygon fill="black" stroke="black" points="777.048,-695.667 787.639,-695.938 779.529,-689.121 777.048,-695.667"/>
</g>
<!-- EAID_29CC3977_2EEC_4780_86C7_DBB9D26F3F13 -->
<g id="node15" class="node"><title>EAID_29CC3977_2EEC_4780_86C7_DBB9D26F3F13</title>
<image xlink:href="img/control1.png" width="106px" height="75px" preserveAspectRatio="xMinYMin meet" x="809" y="-643"/>
<text text-anchor="start" x="785.5" y="-544.8" font-family="Times New Roman,serif" font-size="24.00">check time limit</text>
</g>
<!-- EAID_13CCCBB0_D386_42c1_B235_BFB0E9DD04FA&#45;&gt;EAID_29CC3977_2EEC_4780_86C7_DBB9D26F3F13 -->
<g id="edge14" class="edge"><title>EAID_13CCCBB0_D386_42c1_B235_BFB0E9DD04FA&#45;&gt;EAID_29CC3977_2EEC_4780_86C7_DBB9D26F3F13</title>
<path fill="none" stroke="black" d="M656.156,-569.667C693.202,-573.535 731.502,-577.533 764.79,-581.008"/>
<polygon fill="black" stroke="black" points="764.644,-584.512 774.953,-582.069 765.371,-577.55 764.644,-584.512"/>
</g>
<!-- EAID_13CCCBB0_D386_42c1_B235_BFB0E9DD04FA&#45;&gt;EAID_ECEA2F3F_5649_44f2_B7F3_F4A4BC45CD16 -->
<g id="edge15" class="edge"><title>EAID_13CCCBB0_D386_42c1_B235_BFB0E9DD04FA&#45;&gt;EAID_ECEA2F3F_5649_44f2_B7F3_F4A4BC45CD16</title>
<path fill="none" stroke="black" d="M656.108,-527.252C669.243,-525.628 682.333,-524.177 695,-523 933.013,-500.881 993.462,-504 1232.5,-504 1232.5,-504 1232.5,-504 2495.5,-504 2685.08,-504 2908.97,-493.944 3016.91,-488.463"/>
<polygon fill="black" stroke="black" points="3017.18,-491.954 3026.99,-487.948 3016.82,-484.963 3017.18,-491.954"/>
</g>
<!-- EAID_29CC3977_2EEC_4780_86C7_DBB9D26F3F13&#45;&gt;EAID_F5A5527F_1994_4901_8044_7581A77832F4 -->
<g id="edge25" class="edge"><title>EAID_29CC3977_2EEC_4780_86C7_DBB9D26F3F13&#45;&gt;EAID_F5A5527F_1994_4901_8044_7581A77832F4</title>
<path fill="none" stroke="black" d="M948.227,-609.692C976.943,-619.755 1006.97,-635.018 1028,-658 1065.02,-698.449 1026.55,-735.954 1064,-776 1076.92,-789.818 1093.14,-800.679 1110.38,-809.209"/>
<polygon fill="black" stroke="black" points="1108.93,-812.396 1119.47,-813.46 1111.89,-806.054 1108.93,-812.396"/>
</g>
<!-- EAID_29CC3977_2EEC_4780_86C7_DBB9D26F3F13&#45;&gt;EAID_ECEA2F3F_5649_44f2_B7F3_F4A4BC45CD16 -->
<g id="edge26" class="edge"><title>EAID_29CC3977_2EEC_4780_86C7_DBB9D26F3F13&#45;&gt;EAID_ECEA2F3F_5649_44f2_B7F3_F4A4BC45CD16</title>
<path fill="none" stroke="black" d="M948.039,-576.111C983.771,-570.453 1025.79,-564.527 1064,-561 1295.83,-539.602 1354.68,-542 1587.5,-542 1587.5,-542 1587.5,-542 2495.5,-542 2691.12,-542 2741.24,-544.921 2935,-518 2962.13,-514.231 2991.66,-507.998 3017.06,-501.958"/>
<polygon fill="black" stroke="black" points="3018.04,-505.321 3026.94,-499.569 3016.4,-498.517 3018.04,-505.321"/>
</g>
<!-- EAID_A1105463_9C8E_41cd_A5A3_E3D6D0CE725F -->
<g id="node19" class="node"><title>EAID_A1105463_9C8E_41cd_A5A3_E3D6D0CE725F</title>
<image xlink:href="img/control1.png" width="106px" height="75px" preserveAspectRatio="xMinYMin meet" x="1181" y="-761"/>
<text text-anchor="start" x="1074.5" y="-662.8" font-family="Times New Roman,serif" font-size="24.00">check if supplied credentials exist</text>
</g>
<!-- EAID_29CC3977_2EEC_4780_86C7_DBB9D26F3F13&#45;&gt;EAID_A1105463_9C8E_41cd_A5A3_E3D6D0CE725F -->
<g id="edge24" class="edge"><title>EAID_29CC3977_2EEC_4780_86C7_DBB9D26F3F13&#45;&gt;EAID_A1105463_9C8E_41cd_A5A3_E3D6D0CE725F</title>
<path fill="none" stroke="black" d="M948.315,-618.368C979.964,-628.462 1017.11,-640.309 1053.92,-652.047"/>
<polygon fill="black" stroke="black" points="1053.18,-655.486 1063.77,-655.19 1055.31,-648.817 1053.18,-655.486"/>
</g>
<!-- EAID_29F7DF05_F867_46f9_AA0A_C3094B0C5A27 -->
<g id="node20" class="node"><title>EAID_29F7DF05_F867_46f9_AA0A_C3094B0C5A27</title>
<image xlink:href="img/activity_icon.png" width="30px" height="20px" preserveAspectRatio="xMinYMin meet" x="1219" y="-626"/>
<text text-anchor="start" x="1212.5" y="-583.8" font-family="Times New Roman,serif" font-weight="bold" font-size="24.00">goal</text>
</g>
<!-- EAID_29CC3977_2EEC_4780_86C7_DBB9D26F3F13&#45;&gt;EAID_29F7DF05_F867_46f9_AA0A_C3094B0C5A27 -->
<g id="edge27" class="edge"><title>EAID_29CC3977_2EEC_4780_86C7_DBB9D26F3F13&#45;&gt;EAID_29F7DF05_F867_46f9_AA0A_C3094B0C5A27</title>
<path fill="none" stroke="black" d="M948.315,-593.319C1024.68,-595.383 1133.07,-598.313 1191.45,-599.891"/>
<polygon fill="black" stroke="black" points="1191.66,-603.397 1201.75,-600.169 1191.85,-596.4 1191.66,-603.397"/>
</g>
<!-- EAID_C34254FF_1D2C_41d6_966B_71E5A364DDB8&#45;&gt;EAID_62FD7865_31D8_4a5d_AA6A_942160C55CCA -->
<g id="edge19" class="edge"><title>EAID_C34254FF_1D2C_41d6_966B_71E5A364DDB8&#45;&gt;EAID_62FD7865_31D8_4a5d_AA6A_942160C55CCA</title>
<path fill="none" stroke="black" d="M2630.09,-282.609C2642.08,-278.85 2654.16,-275.555 2666,-273 2763.67,-251.917 2877.15,-248.074 2960.81,-248.995"/>
<polygon fill="black" stroke="black" points="2960.82,-252.495 2970.87,-249.13 2960.91,-245.495 2960.82,-252.495"/>
</g>
<!-- EAID_C34254FF_1D2C_41d6_966B_71E5A364DDB8&#45;&gt;EAID_ECEA2F3F_5649_44f2_B7F3_F4A4BC45CD16 -->
<g id="edge18" class="edge"><title>EAID_C34254FF_1D2C_41d6_966B_71E5A364DDB8&#45;&gt;EAID_ECEA2F3F_5649_44f2_B7F3_F4A4BC45CD16</title>
<path fill="none" stroke="black" d="M2630.02,-396.881C2642.08,-400.969 2654.19,-404.754 2666,-408 2782.81,-440.112 2816.08,-428.901 2935,-452 2961.89,-457.222 2991.38,-463.716 3016.81,-469.558"/>
<polygon fill="black" stroke="black" points="3016.17,-473.003 3026.7,-471.845 3017.75,-466.183 3016.17,-473.003"/>
</g>
<!-- EAID_CA217050_8B07_4187_8308_72A91978C66A -->
<g id="node18" class="node"><title>EAID_CA217050_8B07_4187_8308_72A91978C66A</title>
<image xlink:href="img/control1.png" width="106px" height="75px" preserveAspectRatio="xMinYMin meet" x="2748" y="-393"/>
<text text-anchor="start" x="2676.5" y="-294.8" font-family="Times New Roman,serif" font-size="24.00">update the user&#39;s password</text>
</g>
<!-- EAID_C34254FF_1D2C_41d6_966B_71E5A364DDB8&#45;&gt;EAID_CA217050_8B07_4187_8308_72A91978C66A -->
<g id="edge17" class="edge"><title>EAID_C34254FF_1D2C_41d6_966B_71E5A364DDB8&#45;&gt;EAID_CA217050_8B07_4187_8308_72A91978C66A</title>
<path fill="none" stroke="black" d="M2630.17,-341C2638.52,-341 2646.95,-341 2655.34,-341"/>
<polygon fill="black" stroke="black" points="2655.56,-344.5 2665.56,-341 2655.56,-337.5 2655.56,-344.5"/>
</g>
<!-- EAID_CA217050_8B07_4187_8308_72A91978C66A&#45;&gt;EAID_62FD7865_31D8_4a5d_AA6A_942160C55CCA -->
<g id="edge36" class="edge"><title>EAID_CA217050_8B07_4187_8308_72A91978C66A&#45;&gt;EAID_62FD7865_31D8_4a5d_AA6A_942160C55CCA</title>
<path fill="none" stroke="black" d="M2935.35,-299.411C2943.93,-296.745 2952.54,-294.069 2961.06,-291.424"/>
<polygon fill="black" stroke="black" points="2962.11,-294.762 2970.62,-288.452 2960.03,-288.077 2962.11,-294.762"/>
</g>
<!-- EAID_CA217050_8B07_4187_8308_72A91978C66A&#45;&gt;EAID_ECEA2F3F_5649_44f2_B7F3_F4A4BC45CD16 -->
<g id="edge37" class="edge"><title>EAID_CA217050_8B07_4187_8308_72A91978C66A&#45;&gt;EAID_ECEA2F3F_5649_44f2_B7F3_F4A4BC45CD16</title>
<path fill="none" stroke="black" d="M2915.39,-399.57C2950.24,-417.494 2987.33,-436.569 3017.6,-452.137"/>
<polygon fill="black" stroke="black" points="3016.27,-455.39 3026.77,-456.851 3019.47,-449.165 3016.27,-455.39"/>
</g>
<!-- EAID_A1105463_9C8E_41cd_A5A3_E3D6D0CE725F&#45;&gt;EAID_E8BCFAAE_A8B4_4379_BF78_A2CB9CB389DC -->
<g id="edge23" class="edge"><title>EAID_A1105463_9C8E_41cd_A5A3_E3D6D0CE725F&#45;&gt;EAID_E8BCFAAE_A8B4_4379_BF78_A2CB9CB389DC</title>
<path fill="none" stroke="black" d="M1384.1,-767.673C1390.5,-770.441 1396.83,-773.224 1403,-776 1426.1,-786.392 1450.5,-798.128 1473.72,-809.676"/>
<polygon fill="black" stroke="black" points="1472.39,-812.923 1482.9,-814.261 1475.52,-806.661 1472.39,-812.923"/>
</g>
<!-- EAID_A1105463_9C8E_41cd_A5A3_E3D6D0CE725F&#45;&gt;EAID_69D62903_802A_4692_85BB_C911859A9E2A -->
<g id="edge22" class="edge"><title>EAID_A1105463_9C8E_41cd_A5A3_E3D6D0CE725F&#45;&gt;EAID_69D62903_802A_4692_85BB_C911859A9E2A</title>
<path fill="none" stroke="black" d="M1403.25,-713.78C1411.69,-714.02 1420.16,-714.259 1428.57,-714.498"/>
<polygon fill="black" stroke="black" points="1428.71,-718.003 1438.8,-714.788 1428.9,-711.006 1428.71,-718.003"/>
</g>
<!-- EAID_A1105463_9C8E_41cd_A5A3_E3D6D0CE725F&#45;&gt;EAID_ECEA2F3F_5649_44f2_B7F3_F4A4BC45CD16 -->
<g id="edge21" class="edge"><title>EAID_A1105463_9C8E_41cd_A5A3_E3D6D0CE725F&#45;&gt;EAID_ECEA2F3F_5649_44f2_B7F3_F4A4BC45CD16</title>
<path fill="none" stroke="black" d="M1403.06,-658.969C1415.17,-656.06 1427.24,-653.363 1439,-651 1653.4,-607.922 1708.81,-592 1927.5,-592 1927.5,-592 1927.5,-592 2495.5,-592 2691.49,-592 2745.93,-607.616 2935,-556 2964.39,-547.976 2995,-534.122 3020.6,-520.77"/>
<polygon fill="black" stroke="black" points="3022.24,-523.86 3029.43,-516.078 3018.96,-517.677 3022.24,-523.86"/>
</g>
<!-- EAID_35484F97_B43E_43dd_BDEE_781F6463CCE5&#45;&gt;EAID_FE5E9986_CEC2_4b94_89CE_31864A3A6F8E -->
<g id="edge35" class="edge"><title>EAID_35484F97_B43E_43dd_BDEE_781F6463CCE5&#45;&gt;EAID_FE5E9986_CEC2_4b94_89CE_31864A3A6F8E</title>
<path fill="none" stroke="black" d="M2083.26,-358.887C2091.77,-357.774 2100.25,-356.665 2108.57,-355.577"/>
<polygon fill="black" stroke="black" points="2109.17,-359.028 2118.63,-354.261 2108.26,-352.087 2109.17,-359.028"/>
</g>
<!-- EAID_CB51C24D_5A58_4748_B3AF_2E4757176CDD -->
<g id="node22" class="node"><title>EAID_CB51C24D_5A58_4748_B3AF_2E4757176CDD</title>
<image xlink:href="img/control1.png" width="106px" height="75px" preserveAspectRatio="xMinYMin meet" x="809" y="-431"/>
<text text-anchor="start" x="705.5" y="-332.8" font-family="Times New Roman,serif" font-size="24.00">generate a url with random token</text>
</g>
<!-- EAID_CB51C24D_5A58_4748_B3AF_2E4757176CDD&#45;&gt;EAID_E1C7439E_C9EE_4c3d_9016_6E56FA8703A3 -->
<g id="edge32" class="edge"><title>EAID_CB51C24D_5A58_4748_B3AF_2E4757176CDD&#45;&gt;EAID_E1C7439E_C9EE_4c3d_9016_6E56FA8703A3</title>
<path fill="none" stroke="black" d="M1028.02,-379C1056.17,-379 1084.93,-379 1111.65,-379"/>
<polygon fill="black" stroke="black" points="1111.79,-382.5 1121.79,-379 1111.79,-375.5 1111.79,-382.5"/>
</g>
<!-- EAID_60EBEFE1_9F34_4129_BB29_E6F46FA01159&#45;&gt;EAID_CB51C24D_5A58_4748_B3AF_2E4757176CDD -->
<g id="edge33" class="edge"><title>EAID_60EBEFE1_9F34_4129_BB29_E6F46FA01159&#45;&gt;EAID_CB51C24D_5A58_4748_B3AF_2E4757176CDD</title>
<path fill="none" stroke="black" d="M659.071,-379C667.581,-379 676.148,-379 684.697,-379"/>
<polygon fill="black" stroke="black" points="684.72,-382.5 694.72,-379 684.72,-375.5 684.72,-382.5"/>
</g>
</g>
</svg>
