<?xml version="1.0" encoding="UTF-8" standalone="no"?>
<!DOCTYPE svg PUBLIC "-//W3C//DTD SVG 1.1//EN"
 "http://www.w3.org/Graphics/SVG/1.1/DTD/svg11.dtd">
<!-- Generated by graphviz version 2.38.0 (20140413.2041)
 -->
<!-- Title: g Pages: 1 -->
<svg width="301pt" height="260pt"
 viewBox="0.00 0.00 300.73 260.00" xmlns="http://www.w3.org/2000/svg" xmlns:xlink="http://www.w3.org/1999/xlink">
<g id="graph0" class="graph" transform="scale(1 1) rotate(0) translate(4 256)">
<title>g</title>
<polygon fill="white" stroke="none" points="-4,4 -4,-256 296.731,-256 296.731,4 -4,4"/>
<!-- Actor -->
<g id="node1" class="node"><title>Actor</title>
<ellipse fill="none" stroke="black" cx="196.539" cy="-234" rx="31.6951" ry="18"/>
<text text-anchor="middle" x="196.539" y="-230.3" font-family="Times New Roman,serif" font-size="14.00">Actor</text>
</g>
<!-- Set Password Screen -->
<g id="node2" class="node"><title>Set Password Screen</title>
<ellipse fill="none" stroke="black" cx="196.539" cy="-162" rx="88.2844" ry="18"/>
<text text-anchor="middle" x="196.539" y="-158.3" font-family="Times New Roman,serif" font-size="14.00">Set Password Screen</text>
</g>
<!-- Actor&#45;&gt;Set Password Screen -->
<g id="edge1" class="edge"><title>Actor&#45;&gt;Set Password Screen</title>
<path fill="none" stroke="black" d="M196.539,-215.697C196.539,-207.983 196.539,-198.712 196.539,-190.112"/>
<polygon fill="black" stroke="black" points="200.039,-190.104 196.539,-180.104 193.039,-190.104 200.039,-190.104"/>
</g>
<!-- Validates non&#45;block password -->
<g id="node4" class="node"><title>Validates non&#45;block password</title>
<ellipse fill="none" stroke="black" cx="121.539" cy="-90" rx="121.578" ry="18"/>
<text text-anchor="middle" x="121.539" y="-86.3" font-family="Times New Roman,serif" font-size="14.00">Validates non&#45;block password</text>
</g>
<!-- Set Password Screen&#45;&gt;Validates non&#45;block password -->
<g id="edge4" class="edge"><title>Set Password Screen&#45;&gt;Validates non&#45;block password</title>
<path fill="none" stroke="black" d="M178.384,-144.055C169.056,-135.349 157.53,-124.591 147.3,-115.043"/>
<polygon fill="black" stroke="black" points="149.486,-112.296 139.787,-108.032 144.71,-117.414 149.486,-112.296"/>
</g>
<!-- Handle Password Error -->
<g id="node3" class="node"><title>Handle Password Error</title>
<ellipse fill="none" stroke="black" cx="196.539" cy="-18" rx="96.3833" ry="18"/>
<text text-anchor="middle" x="196.539" y="-14.3" font-family="Times New Roman,serif" font-size="14.00">Handle Password Error</text>
</g>
<!-- Handle Password Error&#45;&gt;Set Password Screen -->
<g id="edge2" class="edge"><title>Handle Password Error&#45;&gt;Set Password Screen</title>
<path fill="none" stroke="black" d="M221.784,-35.4887C233.487,-44.6778 246.188,-57.2454 252.539,-72 258.865,-86.6964 258.865,-93.3036 252.539,-108 247.578,-119.527 238.74,-129.719 229.53,-138.008"/>
<polygon fill="black" stroke="black" points="227.193,-135.401 221.784,-144.511 231.693,-140.762 227.193,-135.401"/>
</g>
<!-- Validates non&#45;block password&#45;&gt;Handle Password Error -->
<g id="edge3" class="edge"><title>Validates non&#45;block password&#45;&gt;Handle Password Error</title>
<path fill="none" stroke="black" d="M139.695,-72.055C149.091,-63.2847 160.719,-52.4318 171.006,-42.8312"/>
<polygon fill="black" stroke="black" points="173.629,-45.1709 178.551,-35.789 168.852,-40.0535 173.629,-45.1709"/>
</g>
</g>
</svg>
