<?xml version="1.0" encoding="UTF-8" standalone="no"?>
<!DOCTYPE svg PUBLIC "-//W3C//DTD SVG 1.1//EN"
 "http://www.w3.org/Graphics/SVG/1.1/DTD/svg11.dtd">
<!-- Generated by graphviz version 2.38.0 (20140413.2041)
 -->
<!-- Title: g Pages: 1 -->
<svg width="1181pt" height="452pt"
 viewBox="0.00 0.00 1181.00 452.00" xmlns="http://www.w3.org/2000/svg" xmlns:xlink="http://www.w3.org/1999/xlink">
<g id="graph0" class="graph" transform="scale(1 1) rotate(0) translate(4 448)">
<title>g</title>
<polygon fill="white" stroke="none" points="-4,4 -4,-448 1177,-448 1177,4 -4,4"/>
<!-- EAID_B1636B12_8124_4e9d_BE67_509C4A398FC6 -->
<g id="node1" class="node"><title>EAID_B1636B12_8124_4e9d_BE67_509C4A398FC6</title>
<image xlink:href="img/actor1.png" width="82px" height="90px" preserveAspectRatio="xMinYMin meet" x="12" y="-332.5"/>
<text text-anchor="start" x="10.5" y="-219.3" font-family="Times New Roman,serif" font-size="24.00">App user</text>
</g>
<!-- EAID_265385DE_97B5_4ab2_A0B7_DDFB6519AA1E -->
<g id="node2" class="node"><title>EAID_265385DE_97B5_4ab2_A0B7_DDFB6519AA1E</title>
<image xlink:href="img/control1.png" width="106px" height="75px" preserveAspectRatio="xMinYMin meet" x="474" y="-302.5"/>
<text text-anchor="start" x="418" y="-204.3" font-family="Times New Roman,serif" font-size="24.00">display failure message</text>
</g>
<!-- EAID_B1636B12_8124_4e9d_BE67_509C4A398FC6&#45;&gt;EAID_265385DE_97B5_4ab2_A0B7_DDFB6519AA1E -->
<g id="edge1" class="edge"><title>EAID_B1636B12_8124_4e9d_BE67_509C4A398FC6&#45;&gt;EAID_265385DE_97B5_4ab2_A0B7_DDFB6519AA1E</title>
<path fill="none" stroke="black" d="M105.417,-270.083C175.226,-266.832 301.673,-260.945 397.752,-256.471"/>
<polygon fill="black" stroke="black" points="398.008,-259.963 407.834,-256.002 397.682,-252.971 398.008,-259.963"/>
</g>
<!-- EAID_92C9B6EC_F355_4217_96C2_17AAB69A422E -->
<g id="node3" class="node"><title>EAID_92C9B6EC_F355_4217_96C2_17AAB69A422E</title>
<image xlink:href="img/boundary3.png" width="115px" height="67px" preserveAspectRatio="xMinYMin meet" x="199.5" y="-102.5"/>
<text text-anchor="start" x="151.5" y="-12.3" font-family="Times New Roman,serif" font-size="24.00">Registered user popup</text>
</g>
<!-- EAID_B1636B12_8124_4e9d_BE67_509C4A398FC6&#45;&gt;EAID_92C9B6EC_F355_4217_96C2_17AAB69A422E -->
<g id="edge2" class="edge"><title>EAID_B1636B12_8124_4e9d_BE67_509C4A398FC6&#45;&gt;EAID_92C9B6EC_F355_4217_96C2_17AAB69A422E</title>
<path fill="none" stroke="black" d="M80.7088,-206.364C95.3361,-176.602 115.625,-142.599 141,-117.5 141.544,-116.961 142.094,-116.426 142.65,-115.894"/>
<polygon fill="black" stroke="black" points="145.045,-118.448 150.147,-109.162 140.368,-113.239 145.045,-118.448"/>
</g>
<!-- EAID_0E723912_B847_4f0d_8C8A_8EC4E3B3C261 -->
<g id="node4" class="node"><title>EAID_0E723912_B847_4f0d_8C8A_8EC4E3B3C261</title>
<image xlink:href="img/boundary3.png" width="115px" height="67px" preserveAspectRatio="xMinYMin meet" x="199.5" y="-407.5"/>
<text text-anchor="start" x="188.5" y="-317.3" font-family="Times New Roman,serif" font-size="24.00">Signup Screen</text>
</g>
<!-- EAID_B1636B12_8124_4e9d_BE67_509C4A398FC6&#45;&gt;EAID_0E723912_B847_4f0d_8C8A_8EC4E3B3C261 -->
<g id="edge3" class="edge"><title>EAID_B1636B12_8124_4e9d_BE67_509C4A398FC6&#45;&gt;EAID_0E723912_B847_4f0d_8C8A_8EC4E3B3C261</title>
<path fill="none" stroke="black" d="M105.258,-294.792C124.589,-303.118 147.107,-312.816 168.736,-322.131"/>
<polygon fill="black" stroke="black" points="167.37,-325.354 177.939,-326.095 170.139,-318.925 167.37,-325.354"/>
</g>
<!-- EAID_80FF783A_49B3_46fa_B8EC_9C4869690730 -->
<g id="node9" class="node"><title>EAID_80FF783A_49B3_46fa_B8EC_9C4869690730</title>
<image xlink:href="img/control1.png" width="106px" height="75px" preserveAspectRatio="xMinYMin meet" x="474" y="-128.5"/>
<text text-anchor="start" x="430" y="-30.3" font-family="Times New Roman,serif" font-size="24.00">Registered user alert</text>
</g>
<!-- EAID_92C9B6EC_F355_4217_96C2_17AAB69A422E&#45;&gt;EAID_80FF783A_49B3_46fa_B8EC_9C4869690730 -->
<g id="edge8" class="edge"><title>EAID_92C9B6EC_F355_4217_96C2_17AAB69A422E&#45;&gt;EAID_80FF783A_49B3_46fa_B8EC_9C4869690730</title>
<path fill="none" stroke="black" d="M372.147,-63.8938C384.631,-64.9167 397.346,-65.9585 409.848,-66.9829"/>
<polygon fill="black" stroke="black" points="409.567,-70.4715 419.82,-67.8 410.139,-63.4949 409.567,-70.4715"/>
</g>
<!-- EAID_F341E2A8_3624_40e7_8A80_81B2AC896934 -->
<g id="node8" class="node"><title>EAID_F341E2A8_3624_40e7_8A80_81B2AC896934</title>
<image xlink:href="img/control1.png" width="106px" height="75px" preserveAspectRatio="xMinYMin meet" x="474" y="-437.5"/>
<text text-anchor="start" x="432" y="-339.3" font-family="Times New Roman,serif" font-size="24.00">check first time user</text>
</g>
<!-- EAID_0E723912_B847_4f0d_8C8A_8EC4E3B3C261&#45;&gt;EAID_F341E2A8_3624_40e7_8A80_81B2AC896934 -->
<g id="edge10" class="edge"><title>EAID_0E723912_B847_4f0d_8C8A_8EC4E3B3C261&#45;&gt;EAID_F341E2A8_3624_40e7_8A80_81B2AC896934</title>
<path fill="none" stroke="black" d="M335.161,-367.02C358.952,-369.324 385.645,-371.909 411.358,-374.399"/>
<polygon fill="black" stroke="black" points="411.245,-377.904 421.536,-375.384 411.92,-370.937 411.245,-377.904"/>
</g>
<!-- EAID_23CF8016_4C4C_46e6_B4FD_84E288E2FEC7 -->
<g id="node5" class="node"><title>EAID_23CF8016_4C4C_46e6_B4FD_84E288E2FEC7</title>
<image xlink:href="img/control1.png" width="106px" height="75px" preserveAspectRatio="xMinYMin meet" x="757" y="-215.5"/>
<text text-anchor="start" x="692" y="-117.3" font-family="Times New Roman,serif" font-size="24.00">Query for first time users</text>
</g>
<!-- EAID_63C9FF09_6946_4f93_B689_2513C0FD295F -->
<g id="node6" class="node"><title>EAID_63C9FF09_6946_4f93_B689_2513C0FD295F</title>
<image xlink:href="img/entity1.png" width="107px" height="72px" preserveAspectRatio="xMinYMin meet" x="1020.5" y="-214.5"/>
<text text-anchor="start" x="984.5" y="-119.3" font-family="Times New Roman,serif" font-size="24.00">Account collection</text>
</g>
<!-- EAID_23CF8016_4C4C_46e6_B4FD_84E288E2FEC7&#45;&gt;EAID_63C9FF09_6946_4f93_B689_2513C0FD295F -->
<g id="edge4" class="edge"><title>EAID_23CF8016_4C4C_46e6_B4FD_84E288E2FEC7&#45;&gt;EAID_63C9FF09_6946_4f93_B689_2513C0FD295F</title>
<path fill="none" stroke="black" d="M938.303,-163.5C946.798,-163.5 955.313,-163.5 963.704,-163.5"/>
<polygon fill="black" stroke="black" points="963.868,-167 973.868,-163.5 963.868,-160 963.868,-167"/>
</g>
<!-- EAID_57588212_E614_48e0_8F4A_81BEF06B8020 -->
<g id="node7" class="node"><title>EAID_57588212_E614_48e0_8F4A_81BEF06B8020</title>
<image xlink:href="img/control1.png" width="106px" height="75px" preserveAspectRatio="xMinYMin meet" x="203.5" y="-237.5"/>
<text text-anchor="start" x="178.5" y="-139.3" font-family="Times New Roman,serif" font-size="24.00">receive response</text>
</g>
<!-- EAID_57588212_E614_48e0_8F4A_81BEF06B8020&#45;&gt;EAID_265385DE_97B5_4ab2_A0B7_DDFB6519AA1E -->
<g id="edge12" class="edge"><title>EAID_57588212_E614_48e0_8F4A_81BEF06B8020&#45;&gt;EAID_265385DE_97B5_4ab2_A0B7_DDFB6519AA1E</title>
<path fill="none" stroke="black" d="M344.674,-206.604C361.599,-210.701 379.668,-215.075 397.596,-219.415"/>
<polygon fill="black" stroke="black" points="396.992,-222.87 407.534,-221.821 398.639,-216.066 396.992,-222.87"/>
</g>
<!-- EAID_57588212_E614_48e0_8F4A_81BEF06B8020&#45;&gt;EAID_23CF8016_4C4C_46e6_B4FD_84E288E2FEC7 -->
<g id="edge5" class="edge"><title>EAID_57588212_E614_48e0_8F4A_81BEF06B8020&#45;&gt;EAID_23CF8016_4C4C_46e6_B4FD_84E288E2FEC7</title>
<path fill="none" stroke="black" d="M344.582,-182.026C432.414,-178.522 569.307,-173.062 671.752,-168.975"/>
<polygon fill="black" stroke="black" points="672.016,-172.467 681.868,-168.571 671.737,-165.473 672.016,-172.467"/>
</g>
<!-- EAID_57588212_E614_48e0_8F4A_81BEF06B8020&#45;&gt;EAID_80FF783A_49B3_46fa_B8EC_9C4869690730 -->
<g id="edge9" class="edge"><title>EAID_57588212_E614_48e0_8F4A_81BEF06B8020&#45;&gt;EAID_80FF783A_49B3_46fa_B8EC_9C4869690730</title>
<path fill="none" stroke="black" d="M344.674,-150.111C365.576,-141.626 388.221,-132.433 410.194,-123.513"/>
<polygon fill="black" stroke="black" points="411.613,-126.714 419.562,-119.709 408.98,-120.228 411.613,-126.714"/>
</g>
<!-- EAID_F341E2A8_3624_40e7_8A80_81B2AC896934&#45;&gt;EAID_23CF8016_4C4C_46e6_B4FD_84E288E2FEC7 -->
<g id="edge6" class="edge"><title>EAID_F341E2A8_3624_40e7_8A80_81B2AC896934&#45;&gt;EAID_23CF8016_4C4C_46e6_B4FD_84E288E2FEC7</title>
<path fill="none" stroke="black" d="M632.17,-327.324C636.91,-324.1 641.543,-320.818 646,-317.5 681.267,-291.248 717.138,-258.189 746.218,-229.438"/>
<polygon fill="black" stroke="black" points="748.843,-231.763 753.46,-222.227 743.904,-226.802 748.843,-231.763"/>
</g>
<!-- EAID_0D114C3E_828A_486d_A027_BD8F30AD08AA -->
<g id="node10" class="node"><title>EAID_0D114C3E_828A_486d_A027_BD8F30AD08AA</title>
<image xlink:href="img/boundary3.png" width="115px" height="67px" preserveAspectRatio="xMinYMin meet" x="752.5" y="-433.5"/>
<text text-anchor="start" x="714" y="-343.3" font-family="Times New Roman,serif" font-size="24.00">Video record screen</text>
</g>
<!-- EAID_F341E2A8_3624_40e7_8A80_81B2AC896934&#45;&gt;EAID_0D114C3E_828A_486d_A027_BD8F30AD08AA -->
<g id="edge11" class="edge"><title>EAID_F341E2A8_3624_40e7_8A80_81B2AC896934&#45;&gt;EAID_0D114C3E_828A_486d_A027_BD8F30AD08AA</title>
<path fill="none" stroke="black" d="M632.235,-385.5C652.277,-385.5 673.377,-385.5 693.744,-385.5"/>
<polygon fill="black" stroke="black" points="693.996,-389 703.996,-385.5 693.996,-382 693.996,-389"/>
</g>
<!-- EAID_80FF783A_49B3_46fa_B8EC_9C4869690730&#45;&gt;EAID_23CF8016_4C4C_46e6_B4FD_84E288E2FEC7 -->
<g id="edge7" class="edge"><title>EAID_80FF783A_49B3_46fa_B8EC_9C4869690730&#45;&gt;EAID_23CF8016_4C4C_46e6_B4FD_84E288E2FEC7</title>
<path fill="none" stroke="black" d="M634.234,-109.391C646.619,-113.225 659.382,-117.177 672.106,-121.116"/>
<polygon fill="black" stroke="black" points="671.233,-124.51 681.821,-124.124 673.304,-117.823 671.233,-124.51"/>
</g>
</g>
</svg>
