<?xml version="1.0" encoding="UTF-8" standalone="no"?>
<!DOCTYPE svg PUBLIC "-//W3C//DTD SVG 1.1//EN"
 "http://www.w3.org/Graphics/SVG/1.1/DTD/svg11.dtd">
<!-- Generated by graphviz version 2.38.0 (20140413.2041)
 -->
<!-- Title: g Pages: 1 -->
<svg width="1048pt" height="552pt"
 viewBox="0.00 0.00 1047.79 552.00" xmlns="http://www.w3.org/2000/svg" xmlns:xlink="http://www.w3.org/1999/xlink">
<g id="graph0" class="graph" transform="scale(1 1) rotate(0) translate(4 548)">
<title>g</title>
<polygon fill="white" stroke="none" points="-4,4 -4,-548 1043.79,-548 1043.79,4 -4,4"/>
<g id="clust1" class="cluster"><title>cluster0</title>
<polygon fill="none" stroke="black" stroke-width="2" points="19,-8 19,-425 810,-425 810,-8 19,-8"/>
<text text-anchor="start" x="392.5" y="-410.8" font-family="Times New Roman,serif" font-weight="bold" font-size="14.00">System</text>
</g>
<g id="clust2" class="cluster"><title>cluster1</title>
<polygon fill="none" stroke="black" stroke-width="2" points="8,-433 8,-536 634,-536 634,-433 8,-433"/>
<text text-anchor="start" x="293.5" y="-521.8" font-family="Times New Roman,serif" font-weight="bold" font-size="14.00">App user</text>
</g>
<!-- EAID_B1636B12_8124_4e9d_BE67_509C4A398FC6___EAID_265385DE_97B5_4ab2_A0B7_DDFB6519AA1E -->
<g id="node1" class="node"><title>EAID_B1636B12_8124_4e9d_BE67_509C4A398FC6___EAID_265385DE_97B5_4ab2_A0B7_DDFB6519AA1E</title>
<image xlink:href="img/activity_icon.png" width="30px" height="20px" preserveAspectRatio="xMinYMin meet" x="704.5" y="-388"/>
<text text-anchor="start" x="647" y="-353.8" font-family="Times New Roman,serif" font-weight="bold" font-size="14.00">App user:display failure</text>
<text text-anchor="start" x="693.5" y="-339.8" font-family="Times New Roman,serif" font-weight="bold" font-size="14.00">message</text>
</g>
<!-- undefined -->
<g id="node16" class="node"><title>undefined</title>
<text text-anchor="middle" x="854" y="-44.3" font-family="Times New Roman,serif" font-size="14.00">undefined</text>
</g>
<!-- EAID_B1636B12_8124_4e9d_BE67_509C4A398FC6___EAID_265385DE_97B5_4ab2_A0B7_DDFB6519AA1E&#45;&gt;undefined -->
<g id="edge13" class="edge"><title>EAID_B1636B12_8124_4e9d_BE67_509C4A398FC6___EAID_265385DE_97B5_4ab2_A0B7_DDFB6519AA1E&#45;&gt;undefined</title>
<path fill="none" stroke="black" stroke-dasharray="5,2" d="M801.644,-352.941C876.894,-343.692 979.971,-325.57 1005,-294 1054.15,-232.008 1048.13,-182.321 1005,-116 981.875,-80.4401 935.07,-63.6055 899.665,-55.7287"/>
<polygon fill="black" stroke="black" points="900.047,-52.2342 889.547,-53.6486 898.637,-59.0908 900.047,-52.2342"/>
</g>
<!-- EAID_B1636B12_8124_4e9d_BE67_509C4A398FC6___EAID_92C9B6EC_F355_4217_96C2_17AAB69A422E -->
<g id="node2" class="node"><title>EAID_B1636B12_8124_4e9d_BE67_509C4A398FC6___EAID_92C9B6EC_F355_4217_96C2_17AAB69A422E</title>
<image xlink:href="img/activity_icon.png" width="30px" height="20px" preserveAspectRatio="xMinYMin meet" x="285.5" y="-388"/>
<text text-anchor="start" x="223" y="-353.8" font-family="Times New Roman,serif" font-weight="bold" font-size="14.00">App user:Registered user</text>
<text text-anchor="start" x="281.5" y="-339.8" font-family="Times New Roman,serif" font-weight="bold" font-size="14.00">popup</text>
</g>
<!-- EAID_92C9B6EC_F355_4217_96C2_17AAB69A422E___EAID_80FF783A_49B3_46fa_B8EC_9C4869690730 -->
<g id="node8" class="node"><title>EAID_92C9B6EC_F355_4217_96C2_17AAB69A422E___EAID_80FF783A_49B3_46fa_B8EC_9C4869690730</title>
<image xlink:href="img/activity_icon.png" width="30px" height="20px" preserveAspectRatio="xMinYMin meet" x="433" y="-288"/>
<text text-anchor="start" x="344" y="-253.8" font-family="Times New Roman,serif" font-weight="bold" font-size="14.00">Registered user popup:Registered</text>
<text text-anchor="start" x="418.5" y="-239.8" font-family="Times New Roman,serif" font-weight="bold" font-size="14.00">user alert</text>
</g>
<!-- EAID_B1636B12_8124_4e9d_BE67_509C4A398FC6___EAID_92C9B6EC_F355_4217_96C2_17AAB69A422E&#45;&gt;EAID_92C9B6EC_F355_4217_96C2_17AAB69A422E___EAID_80FF783A_49B3_46fa_B8EC_9C4869690730 -->
<g id="edge2" class="edge"><title>EAID_B1636B12_8124_4e9d_BE67_509C4A398FC6___EAID_92C9B6EC_F355_4217_96C2_17AAB69A422E&#45;&gt;EAID_92C9B6EC_F355_4217_96C2_17AAB69A422E___EAID_80FF783A_49B3_46fa_B8EC_9C4869690730</title>
<path fill="none" stroke="black" d="M346.828,-329.992C361.27,-320.429 377.315,-309.805 392.293,-299.887"/>
<polygon fill="black" stroke="black" points="394.563,-302.582 400.969,-294.142 390.698,-296.745 394.563,-302.582"/>
</g>
<!-- EAID_B1636B12_8124_4e9d_BE67_509C4A398FC6___EAID_92C9B6EC_F355_4217_96C2_17AAB69A422E&#45;&gt;undefined -->
<g id="edge14" class="edge"><title>EAID_B1636B12_8124_4e9d_BE67_509C4A398FC6___EAID_92C9B6EC_F355_4217_96C2_17AAB69A422E&#45;&gt;undefined</title>
<path fill="none" stroke="black" stroke-dasharray="5,2" d="M387.523,-331.984C390.708,-331.262 393.874,-330.596 397,-330 455.197,-318.901 888.545,-337.285 929,-294 983.019,-236.202 961.319,-188.208 929,-116 921.129,-98.4152 906.11,-83.5418 891.566,-72.3095"/>
<polygon fill="black" stroke="black" points="893.252,-69.2063 883.116,-66.1239 889.118,-74.8547 893.252,-69.2063"/>
</g>
<!-- EAID_B1636B12_8124_4e9d_BE67_509C4A398FC6___EAID_0E723912_B847_4f0d_8C8A_8EC4E3B3C261 -->
<g id="node3" class="node"><title>EAID_B1636B12_8124_4e9d_BE67_509C4A398FC6___EAID_0E723912_B847_4f0d_8C8A_8EC4E3B3C261</title>
<image xlink:href="img/activity_icon.png" width="30px" height="20px" preserveAspectRatio="xMinYMin meet" x="96.5" y="-381"/>
<text text-anchor="start" x="38" y="-346.8" font-family="Times New Roman,serif" font-weight="bold" font-size="14.00">App user:Signup Screen</text>
</g>
<!-- EAID_0E723912_B847_4f0d_8C8A_8EC4E3B3C261___EAID_F341E2A8_3624_40e7_8A80_81B2AC896934 -->
<g id="node10" class="node"><title>EAID_0E723912_B847_4f0d_8C8A_8EC4E3B3C261___EAID_F341E2A8_3624_40e7_8A80_81B2AC896934</title>
<image xlink:href="img/activity_icon.png" width="30px" height="20px" preserveAspectRatio="xMinYMin meet" x="157.5" y="-288"/>
<text text-anchor="start" x="94" y="-253.8" font-family="Times New Roman,serif" font-weight="bold" font-size="14.00">Signup Screen:check first</text>
<text text-anchor="start" x="144" y="-239.8" font-family="Times New Roman,serif" font-weight="bold" font-size="14.00">time user</text>
</g>
<!-- EAID_B1636B12_8124_4e9d_BE67_509C4A398FC6___EAID_0E723912_B847_4f0d_8C8A_8EC4E3B3C261&#45;&gt;EAID_0E723912_B847_4f0d_8C8A_8EC4E3B3C261___EAID_F341E2A8_3624_40e7_8A80_81B2AC896934 -->
<g id="edge4" class="edge"><title>EAID_B1636B12_8124_4e9d_BE67_509C4A398FC6___EAID_0E723912_B847_4f0d_8C8A_8EC4E3B3C261&#45;&gt;EAID_0E723912_B847_4f0d_8C8A_8EC4E3B3C261___EAID_F341E2A8_3624_40e7_8A80_81B2AC896934</title>
<path fill="none" stroke="black" d="M126.393,-336.27C132.749,-326.059 140.277,-313.965 147.365,-302.578"/>
<polygon fill="black" stroke="black" points="150.36,-304.389 152.673,-294.05 144.417,-300.69 150.36,-304.389"/>
</g>
<!-- EAID_B1636B12_8124_4e9d_BE67_509C4A398FC6___EAID_0E723912_B847_4f0d_8C8A_8EC4E3B3C261&#45;&gt;undefined -->
<g id="edge15" class="edge"><title>EAID_B1636B12_8124_4e9d_BE67_509C4A398FC6___EAID_0E723912_B847_4f0d_8C8A_8EC4E3B3C261&#45;&gt;undefined</title>
<path fill="none" stroke="black" stroke-dasharray="5,2" d="M177.017,-336.431C185.664,-333.902 194.48,-331.657 203,-330 335.859,-304.163 694.242,-362.459 811,-294 856.52,-267.31 860.181,-244.644 875,-194 886.757,-153.818 874.715,-105.366 864.617,-75.8885"/>
<polygon fill="black" stroke="black" points="867.845,-74.5237 861.168,-66.2979 861.258,-76.8924 867.845,-74.5237"/>
</g>
<!-- EAID_23CF8016_4C4C_46e6_B4FD_84E288E2FEC7___EAID_63C9FF09_6946_4f93_B689_2513C0FD295F -->
<g id="node4" class="node"><title>EAID_23CF8016_4C4C_46e6_B4FD_84E288E2FEC7___EAID_63C9FF09_6946_4f93_B689_2513C0FD295F</title>
<image xlink:href="img/activity_icon.png" width="30px" height="20px" preserveAspectRatio="xMinYMin meet" x="462.5" y="-74"/>
<text text-anchor="start" x="433" y="-39.8" font-family="Times New Roman,serif" font-weight="bold" font-size="14.00">Query for first</text>
<text text-anchor="start" x="388" y="-25.8" font-family="Times New Roman,serif" font-weight="bold" font-size="14.00">time users:Account collection</text>
</g>
<!-- EAID_23CF8016_4C4C_46e6_B4FD_84E288E2FEC7___EAID_63C9FF09_6946_4f93_B689_2513C0FD295F&#45;&gt;undefined -->
<g id="edge16" class="edge"><title>EAID_23CF8016_4C4C_46e6_B4FD_84E288E2FEC7___EAID_63C9FF09_6946_4f93_B689_2513C0FD295F&#45;&gt;undefined</title>
<path fill="none" stroke="black" stroke-dasharray="5,2" d="M576.772,-48C653.811,-48 730.849,-48 807.887,-48"/>
<polygon fill="black" stroke="black" points="808.264,-51.5001 818.264,-48 808.264,-44.5001 808.264,-51.5001"/>
</g>
<!-- EAID_57588212_E614_48e0_8F4A_81BEF06B8020___EAID_23CF8016_4C4C_46e6_B4FD_84E288E2FEC7 -->
<g id="node5" class="node"><title>EAID_57588212_E614_48e0_8F4A_81BEF06B8020___EAID_23CF8016_4C4C_46e6_B4FD_84E288E2FEC7</title>
<image xlink:href="img/activity_icon.png" width="30px" height="20px" preserveAspectRatio="xMinYMin meet" x="263" y="-181"/>
<text text-anchor="start" x="195" y="-146.8" font-family="Times New Roman,serif" font-weight="bold" font-size="14.00">receive response:Query for</text>
<text text-anchor="start" x="232.5" y="-132.8" font-family="Times New Roman,serif" font-weight="bold" font-size="14.00">first time users</text>
</g>
<!-- EAID_57588212_E614_48e0_8F4A_81BEF06B8020___EAID_23CF8016_4C4C_46e6_B4FD_84E288E2FEC7&#45;&gt;EAID_23CF8016_4C4C_46e6_B4FD_84E288E2FEC7___EAID_63C9FF09_6946_4f93_B689_2513C0FD295F -->
<g id="edge6" class="edge"><title>EAID_57588212_E614_48e0_8F4A_81BEF06B8020___EAID_23CF8016_4C4C_46e6_B4FD_84E288E2FEC7&#45;&gt;EAID_23CF8016_4C4C_46e6_B4FD_84E288E2FEC7___EAID_63C9FF09_6946_4f93_B689_2513C0FD295F</title>
<path fill="none" stroke="black" d="M336.899,-122.923C359.562,-110.965 385.616,-97.2175 409.063,-84.8464"/>
<polygon fill="black" stroke="black" points="410.697,-87.9412 417.908,-80.179 407.431,-81.7501 410.697,-87.9412"/>
</g>
<!-- EAID_57588212_E614_48e0_8F4A_81BEF06B8020___EAID_23CF8016_4C4C_46e6_B4FD_84E288E2FEC7&#45;&gt;undefined -->
<g id="edge17" class="edge"><title>EAID_57588212_E614_48e0_8F4A_81BEF06B8020___EAID_23CF8016_4C4C_46e6_B4FD_84E288E2FEC7&#45;&gt;undefined</title>
<path fill="none" stroke="black" stroke-dasharray="5,2" d="M354.458,-122.975C362.978,-120.282 371.608,-117.874 380,-116 568.899,-73.8199 633.619,-150.178 814,-80 818.89,-78.0976 823.675,-75.3958 828.138,-72.3712"/>
<polygon fill="black" stroke="black" points="830.362,-75.0784 836.267,-66.2819 826.165,-69.4759 830.362,-75.0784"/>
</g>
<!-- EAID_F341E2A8_3624_40e7_8A80_81B2AC896934___EAID_23CF8016_4C4C_46e6_B4FD_84E288E2FEC7 -->
<g id="node6" class="node"><title>EAID_F341E2A8_3624_40e7_8A80_81B2AC896934___EAID_23CF8016_4C4C_46e6_B4FD_84E288E2FEC7</title>
<image xlink:href="img/activity_icon.png" width="30px" height="20px" preserveAspectRatio="xMinYMin meet" x="82.5" y="-188"/>
<text text-anchor="start" x="50" y="-153.8" font-family="Times New Roman,serif" font-weight="bold" font-size="14.00">check first time</text>
<text text-anchor="start" x="38" y="-139.8" font-family="Times New Roman,serif" font-weight="bold" font-size="14.00">user:Query for first</text>
<text text-anchor="start" x="66" y="-125.8" font-family="Times New Roman,serif" font-weight="bold" font-size="14.00">time users</text>
</g>
<!-- EAID_F341E2A8_3624_40e7_8A80_81B2AC896934___EAID_23CF8016_4C4C_46e6_B4FD_84E288E2FEC7&#45;&gt;EAID_23CF8016_4C4C_46e6_B4FD_84E288E2FEC7___EAID_63C9FF09_6946_4f93_B689_2513C0FD295F -->
<g id="edge7" class="edge"><title>EAID_F341E2A8_3624_40e7_8A80_81B2AC896934___EAID_23CF8016_4C4C_46e6_B4FD_84E288E2FEC7&#45;&gt;EAID_23CF8016_4C4C_46e6_B4FD_84E288E2FEC7___EAID_63C9FF09_6946_4f93_B689_2513C0FD295F</title>
<path fill="none" stroke="black" d="M166.858,-119.371C169.924,-118.178 172.98,-117.047 176,-116 238.042,-94.4935 309.729,-78.2151 367.577,-67.0921"/>
<polygon fill="black" stroke="black" points="368.301,-70.5171 377.473,-65.2134 366.996,-63.64 368.301,-70.5171"/>
</g>
<!-- EAID_F341E2A8_3624_40e7_8A80_81B2AC896934___EAID_23CF8016_4C4C_46e6_B4FD_84E288E2FEC7&#45;&gt;undefined -->
<g id="edge18" class="edge"><title>EAID_F341E2A8_3624_40e7_8A80_81B2AC896934___EAID_23CF8016_4C4C_46e6_B4FD_84E288E2FEC7&#45;&gt;undefined</title>
<path fill="none" stroke="black" stroke-dasharray="5,2" d="M166.669,-118.743C169.786,-117.721 172.905,-116.798 176,-116 313.506,-80.5439 680.992,-129.737 814,-80 819.015,-78.1248 823.909,-75.3858 828.455,-72.3006"/>
<polygon fill="black" stroke="black" points="830.832,-74.8917 836.71,-66.0767 826.618,-69.3023 830.832,-74.8917"/>
</g>
<!-- EAID_80FF783A_49B3_46fa_B8EC_9C4869690730___EAID_23CF8016_4C4C_46e6_B4FD_84E288E2FEC7 -->
<g id="node7" class="node"><title>EAID_80FF783A_49B3_46fa_B8EC_9C4869690730___EAID_23CF8016_4C4C_46e6_B4FD_84E288E2FEC7</title>
<image xlink:href="img/activity_icon.png" width="30px" height="20px" preserveAspectRatio="xMinYMin meet" x="662.5" y="-188"/>
<text text-anchor="start" x="592" y="-153.8" font-family="Times New Roman,serif" font-weight="bold" font-size="14.00">Registered user alert:Query</text>
<text text-anchor="start" x="639" y="-139.8" font-family="Times New Roman,serif" font-weight="bold" font-size="14.00">for first time</text>
<text text-anchor="start" x="661" y="-125.8" font-family="Times New Roman,serif" font-weight="bold" font-size="14.00">users</text>
</g>
<!-- EAID_80FF783A_49B3_46fa_B8EC_9C4869690730___EAID_23CF8016_4C4C_46e6_B4FD_84E288E2FEC7&#45;&gt;EAID_23CF8016_4C4C_46e6_B4FD_84E288E2FEC7___EAID_63C9FF09_6946_4f93_B689_2513C0FD295F -->
<g id="edge8" class="edge"><title>EAID_80FF783A_49B3_46fa_B8EC_9C4869690730___EAID_23CF8016_4C4C_46e6_B4FD_84E288E2FEC7&#45;&gt;EAID_23CF8016_4C4C_46e6_B4FD_84E288E2FEC7___EAID_63C9FF09_6946_4f93_B689_2513C0FD295F</title>
<path fill="none" stroke="black" d="M604.513,-115.944C585.115,-105.76 564.219,-94.7902 545.069,-84.7364"/>
<polygon fill="black" stroke="black" points="546.596,-81.585 536.115,-80.0355 543.342,-87.7828 546.596,-81.585"/>
</g>
<!-- EAID_80FF783A_49B3_46fa_B8EC_9C4869690730___EAID_23CF8016_4C4C_46e6_B4FD_84E288E2FEC7&#45;&gt;undefined -->
<g id="edge19" class="edge"><title>EAID_80FF783A_49B3_46fa_B8EC_9C4869690730___EAID_23CF8016_4C4C_46e6_B4FD_84E288E2FEC7&#45;&gt;undefined</title>
<path fill="none" stroke="black" stroke-dasharray="5,2" d="M752.946,-115.842C773.174,-104.911 794.746,-92.54 814,-80 817.745,-77.5606 821.582,-74.8665 825.325,-72.1152"/>
<polygon fill="black" stroke="black" points="827.44,-74.9042 833.301,-66.0776 823.215,-69.3231 827.44,-74.9042"/>
</g>
<!-- EAID_92C9B6EC_F355_4217_96C2_17AAB69A422E___EAID_80FF783A_49B3_46fa_B8EC_9C4869690730&#45;&gt;EAID_80FF783A_49B3_46fa_B8EC_9C4869690730___EAID_23CF8016_4C4C_46e6_B4FD_84E288E2FEC7 -->
<g id="edge9" class="edge"><title>EAID_92C9B6EC_F355_4217_96C2_17AAB69A422E___EAID_80FF783A_49B3_46fa_B8EC_9C4869690730&#45;&gt;EAID_80FF783A_49B3_46fa_B8EC_9C4869690730___EAID_23CF8016_4C4C_46e6_B4FD_84E288E2FEC7</title>
<path fill="none" stroke="black" d="M515.778,-229.923C537.434,-219.993 561.782,-208.829 584.868,-198.244"/>
<polygon fill="black" stroke="black" points="586.354,-201.413 593.986,-194.063 583.437,-195.05 586.354,-201.413"/>
</g>
<!-- EAID_92C9B6EC_F355_4217_96C2_17AAB69A422E___EAID_80FF783A_49B3_46fa_B8EC_9C4869690730&#45;&gt;undefined -->
<g id="edge20" class="edge"><title>EAID_92C9B6EC_F355_4217_96C2_17AAB69A422E___EAID_80FF783A_49B3_46fa_B8EC_9C4869690730&#45;&gt;undefined</title>
<path fill="none" stroke="black" stroke-dasharray="5,2" d="M562.161,-231.813C565.134,-231.187 568.084,-230.581 571,-230 624.752,-219.289 774.058,-230.439 815,-194 848.241,-164.415 854.492,-109.813 854.967,-76.712"/>
<polygon fill="black" stroke="black" points="858.466,-76.3676 854.937,-66.3777 851.466,-76.3877 858.466,-76.3676"/>
</g>
<!-- EAID_57588212_E614_48e0_8F4A_81BEF06B8020___EAID_80FF783A_49B3_46fa_B8EC_9C4869690730 -->
<g id="node9" class="node"><title>EAID_57588212_E614_48e0_8F4A_81BEF06B8020___EAID_80FF783A_49B3_46fa_B8EC_9C4869690730</title>
<image xlink:href="img/activity_icon.png" width="30px" height="20px" preserveAspectRatio="xMinYMin meet" x="676" y="-288"/>
<text text-anchor="start" x="590" y="-253.8" font-family="Times New Roman,serif" font-weight="bold" font-size="14.00">receive response:Registered user</text>
<text text-anchor="start" x="676.5" y="-239.8" font-family="Times New Roman,serif" font-weight="bold" font-size="14.00">alert</text>
</g>
<!-- EAID_57588212_E614_48e0_8F4A_81BEF06B8020___EAID_80FF783A_49B3_46fa_B8EC_9C4869690730&#45;&gt;EAID_80FF783A_49B3_46fa_B8EC_9C4869690730___EAID_23CF8016_4C4C_46e6_B4FD_84E288E2FEC7 -->
<g id="edge10" class="edge"><title>EAID_57588212_E614_48e0_8F4A_81BEF06B8020___EAID_80FF783A_49B3_46fa_B8EC_9C4869690730&#45;&gt;EAID_80FF783A_49B3_46fa_B8EC_9C4869690730___EAID_23CF8016_4C4C_46e6_B4FD_84E288E2FEC7</title>
<path fill="none" stroke="black" d="M686.837,-229.781C685.771,-221.786 684.6,-212.999 683.448,-204.362"/>
<polygon fill="black" stroke="black" points="686.904,-203.798 682.113,-194.348 679.966,-204.723 686.904,-203.798"/>
</g>
<!-- EAID_57588212_E614_48e0_8F4A_81BEF06B8020___EAID_80FF783A_49B3_46fa_B8EC_9C4869690730&#45;&gt;undefined -->
<g id="edge21" class="edge"><title>EAID_57588212_E614_48e0_8F4A_81BEF06B8020___EAID_80FF783A_49B3_46fa_B8EC_9C4869690730&#45;&gt;undefined</title>
<path fill="none" stroke="black" stroke-dasharray="5,2" d="M802.379,-235.287C822.335,-225.61 840.673,-212.301 853,-194 876.628,-158.921 869.674,-107.433 862.101,-76.1828"/>
<polygon fill="black" stroke="black" points="865.464,-75.2064 859.553,-66.4137 858.69,-76.9733 865.464,-75.2064"/>
</g>
<!-- EAID_0E723912_B847_4f0d_8C8A_8EC4E3B3C261___EAID_F341E2A8_3624_40e7_8A80_81B2AC896934&#45;&gt;EAID_F341E2A8_3624_40e7_8A80_81B2AC896934___EAID_23CF8016_4C4C_46e6_B4FD_84E288E2FEC7 -->
<g id="edge11" class="edge"><title>EAID_0E723912_B847_4f0d_8C8A_8EC4E3B3C261___EAID_F341E2A8_3624_40e7_8A80_81B2AC896934&#45;&gt;EAID_F341E2A8_3624_40e7_8A80_81B2AC896934___EAID_23CF8016_4C4C_46e6_B4FD_84E288E2FEC7</title>
<path fill="none" stroke="black" d="M149.701,-229.781C143.618,-221.265 136.892,-211.849 130.339,-202.674"/>
<polygon fill="black" stroke="black" points="133.052,-200.451 124.392,-194.348 127.356,-204.52 133.052,-200.451"/>
</g>
<!-- EAID_F341E2A8_3624_40e7_8A80_81B2AC896934___EAID_0D114C3E_828A_486d_A027_BD8F30AD08AA -->
<g id="node11" class="node"><title>EAID_F341E2A8_3624_40e7_8A80_81B2AC896934___EAID_0D114C3E_828A_486d_A027_BD8F30AD08AA</title>
<image xlink:href="img/activity_icon.png" width="30px" height="20px" preserveAspectRatio="xMinYMin meet" x="461" y="-181"/>
<text text-anchor="start" x="428.5" y="-146.8" font-family="Times New Roman,serif" font-weight="bold" font-size="14.00">check first time</text>
<text text-anchor="start" x="399" y="-132.8" font-family="Times New Roman,serif" font-weight="bold" font-size="14.00">user:Video record screen</text>
</g>
<!-- EAID_0E723912_B847_4f0d_8C8A_8EC4E3B3C261___EAID_F341E2A8_3624_40e7_8A80_81B2AC896934&#45;&gt;EAID_F341E2A8_3624_40e7_8A80_81B2AC896934___EAID_0D114C3E_828A_486d_A027_BD8F30AD08AA -->
<g id="edge12" class="edge"><title>EAID_0E723912_B847_4f0d_8C8A_8EC4E3B3C261___EAID_F341E2A8_3624_40e7_8A80_81B2AC896934&#45;&gt;EAID_F341E2A8_3624_40e7_8A80_81B2AC896934___EAID_0D114C3E_828A_486d_A027_BD8F30AD08AA</title>
<path fill="none" stroke="black" d="M260.736,-233.821C297.787,-222.11 341.163,-207.925 380,-194 383.079,-192.896 386.208,-191.756 389.362,-190.591"/>
<polygon fill="black" stroke="black" points="390.74,-193.813 398.881,-187.033 388.289,-187.256 390.74,-193.813"/>
</g>
<!-- EAID_0E723912_B847_4f0d_8C8A_8EC4E3B3C261___EAID_F341E2A8_3624_40e7_8A80_81B2AC896934&#45;&gt;undefined -->
<g id="edge22" class="edge"><title>EAID_0E723912_B847_4f0d_8C8A_8EC4E3B3C261___EAID_F341E2A8_3624_40e7_8A80_81B2AC896934&#45;&gt;undefined</title>
<path fill="none" stroke="black" stroke-dasharray="5,2" d="M260.681,-241.139C281.684,-236.961 304.065,-232.936 325,-230 425.663,-215.881 698.227,-253 781,-194 811.795,-172.05 797.903,-149.732 815,-116 822.031,-102.128 830.66,-87.1296 838.012,-74.8469"/>
<polygon fill="black" stroke="black" points="841.154,-76.4148 843.338,-66.0474 835.166,-72.7902 841.154,-76.4148"/>
</g>
<!-- EAID_F341E2A8_3624_40e7_8A80_81B2AC896934___EAID_0D114C3E_828A_486d_A027_BD8F30AD08AA&#45;&gt;undefined -->
<g id="edge23" class="edge"><title>EAID_F341E2A8_3624_40e7_8A80_81B2AC896934___EAID_0D114C3E_828A_486d_A027_BD8F30AD08AA&#45;&gt;undefined</title>
<path fill="none" stroke="black" stroke-dasharray="5,2" d="M549.589,-122.916C557.082,-120.342 564.642,-117.975 572,-116 677.02,-87.8044 713.993,-122.695 814,-80 818.606,-78.0337 823.144,-75.4062 827.415,-72.5094"/>
<polygon fill="black" stroke="black" points="829.813,-75.088 835.747,-66.3106 825.634,-69.472 829.813,-75.088"/>
</g>
<!-- EAID_57588212_E614_48e0_8F4A_81BEF06B8020___EAID_265385DE_97B5_4ab2_A0B7_DDFB6519AA1E -->
<g id="node12" class="node"><title>EAID_57588212_E614_48e0_8F4A_81BEF06B8020___EAID_265385DE_97B5_4ab2_A0B7_DDFB6519AA1E</title>
<image xlink:href="img/activity_icon.png" width="30px" height="20px" preserveAspectRatio="xMinYMin meet" x="497" y="-388"/>
<text text-anchor="start" x="416" y="-353.8" font-family="Times New Roman,serif" font-weight="bold" font-size="14.00">receive response:display failure</text>
<text text-anchor="start" x="486" y="-339.8" font-family="Times New Roman,serif" font-weight="bold" font-size="14.00">message</text>
</g>
<!-- EAID_57588212_E614_48e0_8F4A_81BEF06B8020___EAID_265385DE_97B5_4ab2_A0B7_DDFB6519AA1E&#45;&gt;undefined -->
<g id="edge24" class="edge"><title>EAID_57588212_E614_48e0_8F4A_81BEF06B8020___EAID_265385DE_97B5_4ab2_A0B7_DDFB6519AA1E&#45;&gt;undefined</title>
<path fill="none" stroke="black" stroke-dasharray="5,2" d="M618.066,-331.755C621.07,-331.137 624.053,-330.55 627,-330 701.69,-316.069 916.183,-350.482 967,-294 1019.91,-235.189 1006.16,-184.74 967,-116 952.45,-90.4572 923.906,-73.651 899.149,-63.2589"/>
<polygon fill="black" stroke="black" points="900.118,-59.8783 889.531,-59.4541 897.543,-66.3874 900.118,-59.8783"/>
</g>
<!-- EAID_B1636B12_8124_4e9d_BE67_509C4A398FC6___EAID_265385DE_97B5_4ab2_A0B7_DDFB6519AA1E_STL -->
<g id="node13" class="node"><title>EAID_B1636B12_8124_4e9d_BE67_509C4A398FC6___EAID_265385DE_97B5_4ab2_A0B7_DDFB6519AA1E_STL</title>
<image xlink:href="img/stimulus_icon.png" width="30px" height="20px" preserveAspectRatio="xMinYMin meet" x="517.5" y="-499"/>
<text text-anchor="start" x="449" y="-464.8" font-family="Times New Roman,serif" font-weight="bold" font-size="14.00">stl#App user:display failure</text>
<text text-anchor="start" x="506.5" y="-450.8" font-family="Times New Roman,serif" font-weight="bold" font-size="14.00">message</text>
</g>
<!-- EAID_B1636B12_8124_4e9d_BE67_509C4A398FC6___EAID_265385DE_97B5_4ab2_A0B7_DDFB6519AA1E_STL&#45;&gt;EAID_B1636B12_8124_4e9d_BE67_509C4A398FC6___EAID_265385DE_97B5_4ab2_A0B7_DDFB6519AA1E -->
<g id="edge1" class="edge"><title>EAID_B1636B12_8124_4e9d_BE67_509C4A398FC6___EAID_265385DE_97B5_4ab2_A0B7_DDFB6519AA1E_STL&#45;&gt;EAID_B1636B12_8124_4e9d_BE67_509C4A398FC6___EAID_265385DE_97B5_4ab2_A0B7_DDFB6519AA1E</title>
<path fill="none" stroke="black" d="M597.764,-440.895C607.677,-435.797 617.692,-430.407 627,-425 640.252,-417.302 654.155,-408.4 667.022,-399.786"/>
<polygon fill="black" stroke="black" points="668.987,-402.682 675.312,-394.182 665.067,-396.883 668.987,-402.682"/>
</g>
<!-- EAID_B1636B12_8124_4e9d_BE67_509C4A398FC6___EAID_92C9B6EC_F355_4217_96C2_17AAB69A422E_STL -->
<g id="node14" class="node"><title>EAID_B1636B12_8124_4e9d_BE67_509C4A398FC6___EAID_92C9B6EC_F355_4217_96C2_17AAB69A422E_STL</title>
<image xlink:href="img/stimulus_icon.png" width="30px" height="20px" preserveAspectRatio="xMinYMin meet" x="307.5" y="-499"/>
<text text-anchor="start" x="234" y="-464.8" font-family="Times New Roman,serif" font-weight="bold" font-size="14.00">stl#App user:Registered user</text>
<text text-anchor="start" x="303.5" y="-450.8" font-family="Times New Roman,serif" font-weight="bold" font-size="14.00">popup</text>
</g>
<!-- EAID_B1636B12_8124_4e9d_BE67_509C4A398FC6___EAID_92C9B6EC_F355_4217_96C2_17AAB69A422E_STL&#45;&gt;EAID_B1636B12_8124_4e9d_BE67_509C4A398FC6___EAID_92C9B6EC_F355_4217_96C2_17AAB69A422E -->
<g id="edge3" class="edge"><title>EAID_B1636B12_8124_4e9d_BE67_509C4A398FC6___EAID_92C9B6EC_F355_4217_96C2_17AAB69A422E_STL&#45;&gt;EAID_B1636B12_8124_4e9d_BE67_509C4A398FC6___EAID_92C9B6EC_F355_4217_96C2_17AAB69A422E</title>
<path fill="none" stroke="black" d="M315.696,-440.765C313.394,-429.363 310.755,-416.288 308.306,-404.154"/>
<polygon fill="black" stroke="black" points="311.715,-403.349 306.305,-394.24 304.853,-404.734 311.715,-403.349"/>
</g>
<!-- EAID_B1636B12_8124_4e9d_BE67_509C4A398FC6___EAID_0E723912_B847_4f0d_8C8A_8EC4E3B3C261_STL -->
<g id="node15" class="node"><title>EAID_B1636B12_8124_4e9d_BE67_509C4A398FC6___EAID_0E723912_B847_4f0d_8C8A_8EC4E3B3C261_STL</title>
<image xlink:href="img/stimulus_icon.png" width="30px" height="20px" preserveAspectRatio="xMinYMin meet" x="96.5" y="-492"/>
<text text-anchor="start" x="27" y="-457.8" font-family="Times New Roman,serif" font-weight="bold" font-size="14.00">stl#App user:Signup Screen</text>
</g>
<!-- EAID_B1636B12_8124_4e9d_BE67_509C4A398FC6___EAID_0E723912_B847_4f0d_8C8A_8EC4E3B3C261_STL&#45;&gt;EAID_B1636B12_8124_4e9d_BE67_509C4A398FC6___EAID_0E723912_B847_4f0d_8C8A_8EC4E3B3C261 -->
<g id="edge5" class="edge"><title>EAID_B1636B12_8124_4e9d_BE67_509C4A398FC6___EAID_0E723912_B847_4f0d_8C8A_8EC4E3B3C261_STL&#45;&gt;EAID_B1636B12_8124_4e9d_BE67_509C4A398FC6___EAID_0E723912_B847_4f0d_8C8A_8EC4E3B3C261</title>
<path fill="none" stroke="black" d="M111,-447.266C111,-432.633 111,-413.87 111,-397.765"/>
<polygon fill="black" stroke="black" points="114.5,-397.636 111,-387.636 107.5,-397.636 114.5,-397.636"/>
</g>
</g>
</svg>
