<?xml version="1.0" encoding="UTF-8" standalone="no"?>
<!DOCTYPE svg PUBLIC "-//W3C//DTD SVG 1.1//EN"
 "http://www.w3.org/Graphics/SVG/1.1/DTD/svg11.dtd">
<!-- Generated by graphviz version 2.38.0 (20140413.2041)
 -->
<!-- Title: g Pages: 1 -->
<svg width="2204pt" height="491pt"
 viewBox="0.00 0.00 2204.00 491.05" xmlns="http://www.w3.org/2000/svg" xmlns:xlink="http://www.w3.org/1999/xlink">
<g id="graph0" class="graph" transform="scale(1 1) rotate(0) translate(4 487.055)">
<title>g</title>
<polygon fill="white" stroke="none" points="-4,4 -4,-487.055 2200,-487.055 2200,4 -4,4"/>
<!-- EAID_9E1F7FD9_D7CD_4656_A20A_35CEE04EA637 -->
<g id="node1" class="node"><title>EAID_9E1F7FD9_D7CD_4656_A20A_35CEE04EA637</title>
<text text-anchor="start" x="10" y="-396.327" font-family="Times New Roman,serif" font-size="24.00">Administrator</text>
</g>
<!-- EAID_262EE896_03FD_4494_ACA1_EB6F48FA0EFA -->
<g id="node2" class="node"><title>EAID_262EE896_03FD_4494_ACA1_EB6F48FA0EFA</title>
<text text-anchor="start" x="1938" y="-331.327" font-family="Times New Roman,serif" font-size="24.00">unauthorized access error</text>
</g>
<!-- EAID_9E1F7FD9_D7CD_4656_A20A_35CEE04EA637&#45;&gt;EAID_262EE896_03FD_4494_ACA1_EB6F48FA0EFA -->
<g id="edge1" class="edge"><title>EAID_9E1F7FD9_D7CD_4656_A20A_35CEE04EA637&#45;&gt;EAID_262EE896_03FD_4494_ACA1_EB6F48FA0EFA</title>
<path fill="none" stroke="black" d="M113.25,-425.556C134.354,-436.749 161.876,-449.601 188,-456.527 316.65,-490.636 353.405,-480.527 486.5,-480.527 486.5,-480.527 486.5,-480.527 1567,-480.527 1732.27,-480.527 1917.09,-405.535 2005.05,-364.932"/>
<polygon fill="black" stroke="black" points="2006.68,-368.031 2014.27,-360.636 2003.73,-361.686 2006.68,-368.031"/>
</g>
<!-- EAID_0748BE0E_272D_4f45_B99C_342256497675 -->
<g id="node3" class="node"><title>EAID_0748BE0E_272D_4f45_B99C_342256497675</title>
<text text-anchor="start" x="1930" y="-135.327" font-family="Times New Roman,serif" font-size="24.00">Email sent success message</text>
</g>
<!-- EAID_9E1F7FD9_D7CD_4656_A20A_35CEE04EA637&#45;&gt;EAID_0748BE0E_272D_4f45_B99C_342256497675 -->
<g id="edge2" class="edge"><title>EAID_9E1F7FD9_D7CD_4656_A20A_35CEE04EA637&#45;&gt;EAID_0748BE0E_272D_4f45_B99C_342256497675</title>
<path fill="none" stroke="black" d="M152.094,-405.517C206.281,-405.922 281.181,-405.847 347,-403.527 847.162,-385.897 1045.26,-585.23 1470,-320.527 1496.39,-304.079 1480.96,-278.966 1506,-260.527 1563.46,-218.217 1592.33,-237.973 1662,-222.527 1753.34,-202.278 1857.08,-181.619 1935.32,-166.507"/>
<polygon fill="black" stroke="black" points="1936.06,-169.929 1945.22,-164.6 1934.74,-163.056 1936.06,-169.929"/>
</g>
<!-- EAID_988D513E_10AD_438e_A4C7_B31CC63743DF -->
<g id="node4" class="node"><title>EAID_988D513E_10AD_438e_A4C7_B31CC63743DF</title>
<text text-anchor="start" x="1309.5" y="-282.327" font-family="Times New Roman,serif" font-size="24.00">send email page</text>
</g>
<!-- EAID_9E1F7FD9_D7CD_4656_A20A_35CEE04EA637&#45;&gt;EAID_988D513E_10AD_438e_A4C7_B31CC63743DF -->
<g id="edge3" class="edge"><title>EAID_9E1F7FD9_D7CD_4656_A20A_35CEE04EA637&#45;&gt;EAID_988D513E_10AD_438e_A4C7_B31CC63743DF</title>
<path fill="none" stroke="black" d="M152.006,-399.029C339.485,-385.106 843.569,-346.565 1263,-304.527 1271.36,-303.689 1280.04,-302.773 1288.74,-301.822"/>
<polygon fill="black" stroke="black" points="1289.38,-305.272 1298.94,-300.693 1288.61,-298.315 1289.38,-305.272"/>
</g>
<!-- EAID_F77573E3_340E_4068_82D2_8144D250D569 -->
<g id="node5" class="node"><title>EAID_F77573E3_340E_4068_82D2_8144D250D569</title>
<text text-anchor="start" x="198.5" y="-195.327" font-family="Times New Roman,serif" font-size="24.00">User group list</text>
</g>
<!-- EAID_9E1F7FD9_D7CD_4656_A20A_35CEE04EA637&#45;&gt;EAID_F77573E3_340E_4068_82D2_8144D250D569 -->
<g id="edge4" class="edge"><title>EAID_9E1F7FD9_D7CD_4656_A20A_35CEE04EA637&#45;&gt;EAID_F77573E3_340E_4068_82D2_8144D250D569</title>
<path fill="none" stroke="black" d="M96.9217,-383.397C131.113,-347.13 200.997,-273.006 239.521,-232.143"/>
<polygon fill="black" stroke="black" points="242.248,-234.353 246.561,-224.676 237.154,-229.552 242.248,-234.353"/>
</g>
<!-- EAID_79735C6F_6817_412e_AC54_EF5122A1F0E8 -->
<g id="node6" class="node"><title>EAID_79735C6F_6817_412e_AC54_EF5122A1F0E8</title>
<text text-anchor="start" x="695" y="-233.327" font-family="Times New Roman,serif" font-size="24.00">unauthorized error message</text>
</g>
<!-- EAID_9E1F7FD9_D7CD_4656_A20A_35CEE04EA637&#45;&gt;EAID_79735C6F_6817_412e_AC54_EF5122A1F0E8 -->
<g id="edge5" class="edge"><title>EAID_9E1F7FD9_D7CD_4656_A20A_35CEE04EA637&#45;&gt;EAID_79735C6F_6817_412e_AC54_EF5122A1F0E8</title>
<path fill="none" stroke="black" d="M152.29,-388.076C285.689,-358.929 563.855,-298.15 716.716,-264.75"/>
<polygon fill="black" stroke="black" points="717.578,-268.144 726.601,-262.59 716.084,-261.306 717.578,-268.144"/>
</g>
<!-- EAID_EEBBE545_7611_4fe9_A1F1_FE8E2B41A2E5 -->
<g id="node11" class="node"><title>EAID_EEBBE545_7611_4fe9_A1F1_FE8E2B41A2E5</title>
<text text-anchor="start" x="1516" y="-282.327" font-family="Times New Roman,serif" font-size="24.00">send email</text>
</g>
<!-- EAID_988D513E_10AD_438e_A4C7_B31CC63743DF&#45;&gt;EAID_EEBBE545_7611_4fe9_A1F1_FE8E2B41A2E5 -->
<g id="edge26" class="edge"><title>EAID_988D513E_10AD_438e_A4C7_B31CC63743DF&#45;&gt;EAID_EEBBE545_7611_4fe9_A1F1_FE8E2B41A2E5</title>
<path fill="none" stroke="black" d="M1470.26,-290.527C1478.84,-290.527 1487.48,-290.527 1495.87,-290.527"/>
<polygon fill="black" stroke="black" points="1495.96,-294.027 1505.96,-290.527 1495.96,-287.027 1495.96,-294.027"/>
</g>
<!-- EAID_D99FB3E7_43D9_4f08_A6E7_F921A6477658 -->
<g id="node12" class="node"><title>EAID_D99FB3E7_43D9_4f08_A6E7_F921A6477658</title>
<text text-anchor="start" x="393.5" y="-195.327" font-family="Times New Roman,serif" font-size="24.00">validate role of user</text>
</g>
<!-- EAID_F77573E3_340E_4068_82D2_8144D250D569&#45;&gt;EAID_D99FB3E7_43D9_4f08_A6E7_F921A6477658 -->
<g id="edge20" class="edge"><title>EAID_F77573E3_340E_4068_82D2_8144D250D569&#45;&gt;EAID_D99FB3E7_43D9_4f08_A6E7_F921A6477658</title>
<path fill="none" stroke="black" d="M347.203,-203.527C355.531,-203.527 364.114,-203.527 372.738,-203.527"/>
<polygon fill="black" stroke="black" points="372.867,-207.027 382.867,-203.527 372.867,-200.027 372.867,-207.027"/>
</g>
<!-- EAID_6B2036CC_661E_4adf_BDFA_2F9B9C4887C8 -->
<g id="node7" class="node"><title>EAID_6B2036CC_661E_4adf_BDFA_2F9B9C4887C8</title>
<text text-anchor="start" x="11" y="-70.3273" font-family="Times New Roman,serif" font-size="24.00">Case manager</text>
</g>
<!-- EAID_6B2036CC_661E_4adf_BDFA_2F9B9C4887C8&#45;&gt;EAID_262EE896_03FD_4494_ACA1_EB6F48FA0EFA -->
<g id="edge6" class="edge"><title>EAID_6B2036CC_661E_4adf_BDFA_2F9B9C4887C8&#45;&gt;EAID_262EE896_03FD_4494_ACA1_EB6F48FA0EFA</title>
<path fill="none" stroke="black" d="M151.861,-77.6328C257.85,-76.4153 457.72,-74.2998 628,-73.5273 910.262,-72.2466 989.395,-15.1466 1263,-84.5273 1436.8,-128.598 1468.65,-174.568 1626,-260.527 1642.46,-269.517 1644.36,-276.169 1662,-282.527 1743.56,-311.925 1839.77,-326.202 1916.81,-333.117"/>
<polygon fill="black" stroke="black" points="1916.8,-336.629 1927.07,-334.004 1917.4,-329.655 1916.8,-336.629"/>
</g>
<!-- EAID_6B2036CC_661E_4adf_BDFA_2F9B9C4887C8&#45;&gt;EAID_0748BE0E_272D_4f45_B99C_342256497675 -->
<g id="edge9" class="edge"><title>EAID_6B2036CC_661E_4adf_BDFA_2F9B9C4887C8&#45;&gt;EAID_0748BE0E_272D_4f45_B99C_342256497675</title>
<path fill="none" stroke="black" d="M113.25,-57.4987C134.354,-46.3053 161.876,-33.4535 188,-26.5273 316.65,7.58175 353.405,-2.52725 486.5,-2.52725 486.5,-2.52725 486.5,-2.52725 1567,-2.52725 1732.27,-2.52725 1917.09,-77.5193 2005.05,-118.122"/>
<polygon fill="black" stroke="black" points="2003.73,-121.368 2014.27,-122.418 2006.68,-115.023 2003.73,-121.368"/>
</g>
<!-- EAID_6B2036CC_661E_4adf_BDFA_2F9B9C4887C8&#45;&gt;EAID_988D513E_10AD_438e_A4C7_B31CC63743DF -->
<g id="edge8" class="edge"><title>EAID_6B2036CC_661E_4adf_BDFA_2F9B9C4887C8&#45;&gt;EAID_988D513E_10AD_438e_A4C7_B31CC63743DF</title>
<path fill="none" stroke="black" d="M151.505,-82.1394C205.732,-84.8296 280.929,-88.6866 347,-92.5273 550.634,-104.364 1101.62,-26.778 1263,-151.527 1303.36,-182.729 1263.33,-224.055 1299,-260.527 1299.92,-261.466 1300.87,-262.376 1301.85,-263.257"/>
<polygon fill="black" stroke="black" points="1299.8,-266.1 1309.84,-269.473 1304.1,-260.573 1299.8,-266.1"/>
</g>
<!-- EAID_6B2036CC_661E_4adf_BDFA_2F9B9C4887C8&#45;&gt;EAID_F77573E3_340E_4068_82D2_8144D250D569 -->
<g id="edge10" class="edge"><title>EAID_6B2036CC_661E_4adf_BDFA_2F9B9C4887C8&#45;&gt;EAID_F77573E3_340E_4068_82D2_8144D250D569</title>
<path fill="none" stroke="black" d="M109.146,-99.7318C141.368,-120.986 191.073,-153.773 225.978,-176.797"/>
<polygon fill="black" stroke="black" points="224.238,-179.843 234.513,-182.428 228.093,-174 224.238,-179.843"/>
</g>
<!-- EAID_6B2036CC_661E_4adf_BDFA_2F9B9C4887C8&#45;&gt;EAID_79735C6F_6817_412e_AC54_EF5122A1F0E8 -->
<g id="edge7" class="edge"><title>EAID_6B2036CC_661E_4adf_BDFA_2F9B9C4887C8&#45;&gt;EAID_79735C6F_6817_412e_AC54_EF5122A1F0E8</title>
<path fill="none" stroke="black" d="M151.58,-89.6647C284.895,-109.958 553.773,-152.772 592,-173.527 612.445,-184.628 607.392,-200.732 628,-211.527 642.385,-219.063 658.13,-224.836 674.238,-229.241"/>
<polygon fill="black" stroke="black" points="673.75,-232.729 684.305,-231.811 675.481,-225.946 673.75,-232.729"/>
</g>
<!-- EAID_FC035C79_824A_424c_9BE7_571A439F3F4E -->
<g id="node8" class="node"><title>EAID_FC035C79_824A_424c_9BE7_571A439F3F4E</title>
<text text-anchor="start" x="15" y="-244.327" font-family="Times New Roman,serif" font-size="24.00">General staff</text>
</g>
<!-- EAID_FC035C79_824A_424c_9BE7_571A439F3F4E&#45;&gt;EAID_262EE896_03FD_4494_ACA1_EB6F48FA0EFA -->
<g id="edge15" class="edge"><title>EAID_FC035C79_824A_424c_9BE7_571A439F3F4E&#45;&gt;EAID_262EE896_03FD_4494_ACA1_EB6F48FA0EFA</title>
<path fill="none" stroke="black" d="M131.103,-273.601C148.986,-279.876 169.135,-286.22 188,-290.527 465.105,-353.797 538.764,-366.527 823,-366.527 823,-366.527 823,-366.527 1567,-366.527 1685.18,-366.527 1819.16,-358.6 1917.11,-351.336"/>
<polygon fill="black" stroke="black" points="1917.66,-354.805 1927.37,-350.568 1917.14,-347.824 1917.66,-354.805"/>
</g>
<!-- EAID_FC035C79_824A_424c_9BE7_571A439F3F4E&#45;&gt;EAID_0748BE0E_272D_4f45_B99C_342256497675 -->
<g id="edge13" class="edge"><title>EAID_FC035C79_824A_424c_9BE7_571A439F3F4E&#45;&gt;EAID_0748BE0E_272D_4f45_B99C_342256497675</title>
<path fill="none" stroke="black" d="M99.1171,-231.208C120.132,-212.405 153.559,-186.095 188,-173.527 594.54,-25.1825 725.74,-94.5273 1158.5,-94.5273 1158.5,-94.5273 1158.5,-94.5273 1567,-94.5273 1682.7,-94.5273 1813.02,-108.222 1910.15,-121.131"/>
<polygon fill="black" stroke="black" points="1909.96,-124.637 1920.34,-122.498 1910.89,-117.699 1909.96,-124.637"/>
</g>
<!-- EAID_FC035C79_824A_424c_9BE7_571A439F3F4E&#45;&gt;EAID_988D513E_10AD_438e_A4C7_B31CC63743DF -->
<g id="edge11" class="edge"><title>EAID_FC035C79_824A_424c_9BE7_571A439F3F4E&#45;&gt;EAID_988D513E_10AD_438e_A4C7_B31CC63743DF</title>
<path fill="none" stroke="black" d="M147.104,-263.012C228.503,-274.259 366.906,-290.527 486.5,-290.527 486.5,-290.527 486.5,-290.527 825,-290.527 987.901,-290.527 1177.53,-290.527 1288.64,-290.527"/>
<polygon fill="black" stroke="black" points="1288.82,-294.027 1298.82,-290.527 1288.82,-287.027 1288.82,-294.027"/>
</g>
<!-- EAID_FC035C79_824A_424c_9BE7_571A439F3F4E&#45;&gt;EAID_F77573E3_340E_4068_82D2_8144D250D569 -->
<g id="edge12" class="edge"><title>EAID_FC035C79_824A_424c_9BE7_571A439F3F4E&#45;&gt;EAID_F77573E3_340E_4068_82D2_8144D250D569</title>
<path fill="none" stroke="black" d="M147.024,-234.421C157.092,-231.818 167.559,-229.111 177.928,-226.43"/>
<polygon fill="black" stroke="black" points="179.017,-229.763 187.822,-223.871 177.264,-222.986 179.017,-229.763"/>
</g>
<!-- EAID_FC035C79_824A_424c_9BE7_571A439F3F4E&#45;&gt;EAID_79735C6F_6817_412e_AC54_EF5122A1F0E8 -->
<g id="edge14" class="edge"><title>EAID_FC035C79_824A_424c_9BE7_571A439F3F4E&#45;&gt;EAID_79735C6F_6817_412e_AC54_EF5122A1F0E8</title>
<path fill="none" stroke="black" d="M147.182,-251.492C267.143,-249.724 514.127,-246.082 673.97,-243.725"/>
<polygon fill="black" stroke="black" points="674.423,-247.219 684.37,-243.571 674.32,-240.219 674.423,-247.219"/>
</g>
<!-- EAID_59301303_5606_48e4_B48F_B6DC242164A4 -->
<g id="node9" class="node"><title>EAID_59301303_5606_48e4_B48F_B6DC242164A4</title>
<text text-anchor="start" x="1672" y="-244.327" font-family="Times New Roman,serif" font-size="24.00">Add activities to case</text>
</g>
<!-- EAID_59301303_5606_48e4_B48F_B6DC242164A4&#45;&gt;EAID_262EE896_03FD_4494_ACA1_EB6F48FA0EFA -->
<g id="edge18" class="edge"><title>EAID_59301303_5606_48e4_B48F_B6DC242164A4&#45;&gt;EAID_262EE896_03FD_4494_ACA1_EB6F48FA0EFA</title>
<path fill="none" stroke="black" d="M1842.51,-273.588C1883.63,-286.231 1936.09,-302.357 1978.83,-315.497"/>
<polygon fill="black" stroke="black" points="1978.05,-318.917 1988.63,-318.51 1980.1,-312.226 1978.05,-318.917"/>
</g>
<!-- EAID_59301303_5606_48e4_B48F_B6DC242164A4&#45;&gt;EAID_0748BE0E_272D_4f45_B99C_342256497675 -->
<g id="edge17" class="edge"><title>EAID_59301303_5606_48e4_B48F_B6DC242164A4&#45;&gt;EAID_0748BE0E_272D_4f45_B99C_342256497675</title>
<path fill="none" stroke="black" d="M1843.59,-231.502C1857.07,-227.113 1871.04,-222.348 1884,-217.527 1924.02,-202.64 1968.27,-183.664 2002,-168.655"/>
<polygon fill="black" stroke="black" points="2003.53,-171.809 2011.23,-164.533 2000.67,-165.418 2003.53,-171.809"/>
</g>
<!-- EAID_F6704D73_9572_4a13_BBEF_5314CD0427BB -->
<g id="node10" class="node"><title>EAID_F6704D73_9572_4a13_BBEF_5314CD0427BB</title>
<text text-anchor="start" x="2035" y="-244.327" font-family="Times New Roman,serif" font-size="24.00">Case</text>
</g>
<!-- EAID_59301303_5606_48e4_B48F_B6DC242164A4&#45;&gt;EAID_F6704D73_9572_4a13_BBEF_5314CD0427BB -->
<g id="edge16" class="edge"><title>EAID_59301303_5606_48e4_B48F_B6DC242164A4&#45;&gt;EAID_F6704D73_9572_4a13_BBEF_5314CD0427BB</title>
<path fill="none" stroke="black" d="M1884.23,-252.527C1929.94,-252.527 1980.23,-252.527 2014.71,-252.527"/>
<polygon fill="black" stroke="black" points="2014.88,-256.027 2024.88,-252.527 2014.88,-249.027 2014.88,-256.027"/>
</g>
<!-- EAID_EEBBE545_7611_4fe9_A1F1_FE8E2B41A2E5&#45;&gt;EAID_59301303_5606_48e4_B48F_B6DC242164A4 -->
<g id="edge19" class="edge"><title>EAID_EEBBE545_7611_4fe9_A1F1_FE8E2B41A2E5&#45;&gt;EAID_59301303_5606_48e4_B48F_B6DC242164A4</title>
<path fill="none" stroke="black" d="M1626.02,-279.587C1634.27,-278.058 1642.98,-276.443 1651.88,-274.794"/>
<polygon fill="black" stroke="black" points="1652.79,-278.185 1661.98,-272.921 1651.51,-271.303 1652.79,-278.185"/>
</g>
<!-- EAID_D99FB3E7_43D9_4f08_A6E7_F921A6477658&#45;&gt;EAID_79735C6F_6817_412e_AC54_EF5122A1F0E8 -->
<g id="edge27" class="edge"><title>EAID_D99FB3E7_43D9_4f08_A6E7_F921A6477658&#45;&gt;EAID_79735C6F_6817_412e_AC54_EF5122A1F0E8</title>
<path fill="none" stroke="black" d="M592.047,-215.29C618.022,-218.241 646.407,-221.466 674.112,-224.613"/>
<polygon fill="black" stroke="black" points="673.951,-228.117 684.282,-225.769 674.741,-221.162 673.951,-228.117"/>
</g>
<!-- EAID_866B3812_0010_4a74_BE77_A249B3B57456 -->
<g id="node15" class="node"><title>EAID_866B3812_0010_4a74_BE77_A249B3B57456</title>
<text text-anchor="start" x="638" y="-173.327" font-family="Times New Roman,serif" font-size="24.00">find email address of the selected youth</text>
</g>
<!-- EAID_D99FB3E7_43D9_4f08_A6E7_F921A6477658&#45;&gt;EAID_866B3812_0010_4a74_BE77_A249B3B57456 -->
<g id="edge24" class="edge"><title>EAID_D99FB3E7_43D9_4f08_A6E7_F921A6477658&#45;&gt;EAID_866B3812_0010_4a74_BE77_A249B3B57456</title>
<path fill="none" stroke="black" d="M592.047,-196.717C600.322,-196.173 608.841,-195.612 617.505,-195.043"/>
<polygon fill="black" stroke="black" points="617.987,-198.519 627.736,-194.37 617.527,-191.534 617.987,-198.519"/>
</g>
<!-- EAID_B73F5CD4_3A98_4fe3_B8F4_9210C35942A3 -->
<g id="node13" class="node"><title>EAID_B73F5CD4_3A98_4fe3_B8F4_9210C35942A3</title>
<text text-anchor="start" x="1066.5" y="-233.327" font-family="Times New Roman,serif" font-size="24.00">load email template</text>
</g>
<!-- EAID_B73F5CD4_3A98_4fe3_B8F4_9210C35942A3&#45;&gt;EAID_988D513E_10AD_438e_A4C7_B31CC63743DF -->
<g id="edge25" class="edge"><title>EAID_B73F5CD4_3A98_4fe3_B8F4_9210C35942A3&#45;&gt;EAID_988D513E_10AD_438e_A4C7_B31CC63743DF</title>
<path fill="none" stroke="black" d="M1256.37,-262.592C1267.21,-264.975 1278.26,-267.403 1289.09,-269.782"/>
<polygon fill="black" stroke="black" points="1288.44,-273.222 1298.95,-271.95 1289.94,-266.385 1288.44,-273.222"/>
</g>
<!-- EAID_776049A0_B3F3_4d42_B1FE_E20F089C6FDB -->
<g id="node14" class="node"><title>EAID_776049A0_B3F3_4d42_B1FE_E20F089C6FDB</title>
<text text-anchor="start" x="1315.5" y="-222.327" font-family="Times New Roman,serif" font-size="24.00">email template</text>
</g>
<!-- EAID_B73F5CD4_3A98_4fe3_B8F4_9210C35942A3&#45;&gt;EAID_776049A0_B3F3_4d42_B1FE_E20F089C6FDB -->
<g id="edge21" class="edge"><title>EAID_B73F5CD4_3A98_4fe3_B8F4_9210C35942A3&#45;&gt;EAID_776049A0_B3F3_4d42_B1FE_E20F089C6FDB</title>
<path fill="none" stroke="black" d="M1263.19,-236.462C1273.65,-235.946 1284.21,-235.425 1294.51,-234.917"/>
<polygon fill="black" stroke="black" points="1294.89,-238.403 1304.7,-234.414 1294.54,-231.411 1294.89,-238.403"/>
</g>
<!-- EAID_866B3812_0010_4a74_BE77_A249B3B57456&#45;&gt;EAID_B73F5CD4_3A98_4fe3_B8F4_9210C35942A3 -->
<g id="edge23" class="edge"><title>EAID_866B3812_0010_4a74_BE77_A249B3B57456&#45;&gt;EAID_B73F5CD4_3A98_4fe3_B8F4_9210C35942A3</title>
<path fill="none" stroke="black" d="M968.14,-202.531C985.636,-205.398 1003.24,-208.427 1020,-211.527 1031.43,-213.643 1043.37,-216 1055.23,-218.438"/>
<polygon fill="black" stroke="black" points="1054.65,-221.894 1065.16,-220.501 1056.08,-215.04 1054.65,-221.894"/>
</g>
<!-- EAID_4E9B7CD8_888F_4c31_AC9B_D079019F07A2 -->
<g id="node16" class="node"><title>EAID_4E9B7CD8_888F_4c31_AC9B_D079019F07A2</title>
<text text-anchor="start" x="1140.5" y="-173.327" font-family="Times New Roman,serif" font-size="24.00">user</text>
</g>
<!-- EAID_866B3812_0010_4a74_BE77_A249B3B57456&#45;&gt;EAID_4E9B7CD8_888F_4c31_AC9B_D079019F07A2 -->
<g id="edge22" class="edge"><title>EAID_866B3812_0010_4a74_BE77_A249B3B57456&#45;&gt;EAID_4E9B7CD8_888F_4c31_AC9B_D079019F07A2</title>
<path fill="none" stroke="black" d="M1020.45,-181.527C1058.3,-181.527 1094.13,-181.527 1119.79,-181.527"/>
<polygon fill="black" stroke="black" points="1119.8,-185.027 1129.8,-181.527 1119.8,-178.027 1119.8,-185.027"/>
</g>
</g>
</svg>
