<?xml version="1.0" encoding="UTF-8" standalone="no"?>
<!DOCTYPE svg PUBLIC "-//W3C//DTD SVG 1.1//EN"
 "http://www.w3.org/Graphics/SVG/1.1/DTD/svg11.dtd">
<!-- Generated by graphviz version 2.40.1 (20161225.0304)
 -->
<!-- Title: class_diagram Pages: 1 -->
<svg width="3281pt" height="73pt"
 viewBox="0.00 0.00 3281.36 73.00" xmlns="http://www.w3.org/2000/svg" xmlns:xlink="http://www.w3.org/1999/xlink">
<g id="graph0" class="graph" transform="scale(1 1) rotate(0) translate(4 69)">
<title>class_diagram</title>
<polygon fill="#ffffff" stroke="transparent" points="-4,4 -4,-69 3277.3594,-69 3277.3594,4 -4,4"/>
<!-- cef26b52a_c9ce_4a31_b9b6_add7bec51e28 -->
<g id="cef26b52a_c9ce_4a31_b9b6_add7bec51e28" class="node">
<title>cef26b52a_c9ce_4a31_b9b6_add7bec51e28</title>
<polygon fill="none" stroke="#000000" points="0,-12.5 0,-52.5 116.7188,-52.5 116.7188,-12.5 0,-12.5"/>
<text text-anchor="middle" x="58.3594" y="-42.1" font-family="Times,serif" font-size="8.00" fill="#000000">AndroidProcesses</text>
<polyline fill="none" stroke="#000000" points="0,-36.5 116.7188,-36.5 "/>
<text text-anchor="start" x="8" y="-26.1" font-family="Times,serif" font-size="8.00" fill="#000000">+ log()</text>
<text text-anchor="start" x="8" y="-18.1" font-family="Times,serif" font-size="8.00" fill="#000000">+ getRunningAppProcessInfo()</text>
</g>
<!-- cf9e81df5_22c9_46da_82b3_f1b96b200a13 -->
<g id="cf9e81df5_22c9_46da_82b3_f1b96b200a13" class="node">
<title>cf9e81df5_22c9_46da_82b3_f1b96b200a13</title>
<polygon fill="none" stroke="#000000" points="134.6973,-14.5 134.6973,-50.5 208.0215,-50.5 208.0215,-14.5 134.6973,-14.5"/>
<text text-anchor="middle" x="171.3594" y="-30.1" font-family="Times,serif" font-size="8.00" fill="#000000">ActivityProcesses</text>
</g>
<!-- c28cb8f4d_fbf1_4d6b_be63_b5a4977af784 -->
<g id="c28cb8f4d_fbf1_4d6b_be63_b5a4977af784" class="node">
<title>c28cb8f4d_fbf1_4d6b_be63_b5a4977af784</title>
<polygon fill="none" stroke="#000000" points="225.8105,-14.5 225.8105,-50.5 292.9082,-50.5 292.9082,-14.5 225.8105,-14.5"/>
<text text-anchor="middle" x="259.3594" y="-30.1" font-family="Times,serif" font-size="8.00" fill="#000000">ContentHandler</text>
</g>
<!-- cd5b2c41b_0e3d_4d26_88f8_7b6091e5859b -->
<g id="cd5b2c41b_0e3d_4d26_88f8_7b6091e5859b" class="node">
<title>cd5b2c41b_0e3d_4d26_88f8_7b6091e5859b</title>
<polygon fill="none" stroke="#000000" points="310.918,-14.5 310.918,-50.5 391.8008,-50.5 391.8008,-14.5 310.918,-14.5"/>
<text text-anchor="middle" x="351.3594" y="-39.6" font-family="Times,serif" font-size="8.00" fill="#000000">AndroidAppProcess</text>
<polyline fill="none" stroke="#000000" points="310.918,-33.5 391.8008,-33.5 "/>
<text text-anchor="start" x="318.918" y="-22.6" font-family="Times,serif" font-size="8.00" fill="#000000">&#45; uid:int</text>
<polyline fill="none" stroke="#000000" points="310.918,-16.5 391.8008,-16.5 "/>
</g>
<!-- c1b500a78_8148_42f7_b77b_20cce83da952 -->
<g id="c1b500a78_8148_42f7_b77b_20cce83da952" class="node">
<title>c1b500a78_8148_42f7_b77b_20cce83da952</title>
<polygon fill="none" stroke="#000000" points="410.2559,-14.5 410.2559,-50.5 468.4629,-50.5 468.4629,-14.5 410.2559,-14.5"/>
<text text-anchor="middle" x="439.3594" y="-30.1" font-family="Times,serif" font-size="8.00" fill="#000000">DTDHandler</text>
</g>
<!-- c79276270_7a9a_407d_b3a6_5f1ff829f7e4 -->
<g id="c79276270_7a9a_407d_b3a6_5f1ff829f7e4" class="node">
<title>c79276270_7a9a_407d_b3a6_5f1ff829f7e4</title>
<polygon fill="none" stroke="#000000" points="486.3359,-14.5 486.3359,-50.5 642.3828,-50.5 642.3828,-14.5 486.3359,-14.5"/>
<text text-anchor="middle" x="564.3594" y="-39.6" font-family="Times,serif" font-size="8.00" fill="#000000">ControlGroup$1</text>
<polyline fill="none" stroke="#000000" points="486.3359,-33.5 642.3828,-33.5 "/>
<text text-anchor="start" x="494.3359" y="-22.6" font-family="Times,serif" font-size="8.00" fill="#000000">&#45; CREATOR:android.os.Parcelable$Creator</text>
<polyline fill="none" stroke="#000000" points="486.3359,-16.5 642.3828,-16.5 "/>
</g>
<!-- c9f05a18d_92dc_4e7a_b42b_340345ae9bdc -->
<g id="c9f05a18d_92dc_4e7a_b42b_340345ae9bdc" class="node">
<title>c9f05a18d_92dc_4e7a_b42b_340345ae9bdc</title>
<polygon fill="none" stroke="#000000" points="660.332,-12.5 660.332,-52.5 718.3867,-52.5 718.3867,-12.5 660.332,-12.5"/>
<text text-anchor="middle" x="689.3594" y="-42.1" font-family="Times,serif" font-size="8.00" fill="#000000">Cgroup$1</text>
<polyline fill="none" stroke="#000000" points="660.332,-36.5 718.3867,-36.5 "/>
<text text-anchor="start" x="668.332" y="-26.1" font-family="Times,serif" font-size="8.00" fill="#000000">+ getGroup()</text>
<text text-anchor="start" x="668.332" y="-18.1" font-family="Times,serif" font-size="8.00" fill="#000000">+ get()</text>
</g>
<!-- c03511836_5b62_40e8_96c4_6562718c34cb -->
<g id="c03511836_5b62_40e8_96c4_6562718c34cb" class="node">
<title>c03511836_5b62_40e8_96c4_6562718c34cb</title>
<polygon fill="none" stroke="#000000" points="736.3594,-14.5 736.3594,-50.5 790.3594,-50.5 790.3594,-14.5 736.3594,-14.5"/>
<text text-anchor="middle" x="763.082" y="-35.1" font-family="Times,serif" font-size="8.00" fill="#000000">Stat</text>
<polyline fill="none" stroke="#000000" points="736.3594,-24.5 789.8047,-24.5 "/>
</g>
<!-- c2fd41b1c_6cbd_41f2_998a_17f830381d1c -->
<g id="c2fd41b1c_6cbd_41f2_998a_17f830381d1c" class="node">
<title>c2fd41b1c_6cbd_41f2_998a_17f830381d1c</title>
<polygon fill="none" stroke="#000000" points="808.3594,-14.5 808.3594,-50.5 862.3594,-50.5 862.3594,-14.5 808.3594,-14.5"/>
<text text-anchor="middle" x="835.1387" y="-35.1" font-family="Times,serif" font-size="8.00" fill="#000000">Status$1</text>
<polyline fill="none" stroke="#000000" points="808.3594,-24.5 861.918,-24.5 "/>
</g>
<!-- cab171651_b4ac_478a_b23b_a257757297e7 -->
<g id="cab171651_b4ac_478a_b23b_a257757297e7" class="node">
<title>cab171651_b4ac_478a_b23b_a257757297e7</title>
<polygon fill="none" stroke="#000000" points="880.3594,-14.5 880.3594,-50.5 934.3594,-50.5 934.3594,-14.5 880.3594,-14.5"/>
<text text-anchor="middle" x="906.9141" y="-35.1" font-family="Times,serif" font-size="8.00" fill="#000000">ProcFile</text>
<polyline fill="none" stroke="#000000" points="880.3594,-24.5 933.4688,-24.5 "/>
</g>
<!-- c0ce91f61_df25_45b3_b11e_d6c09c6023e8 -->
<g id="c0ce91f61_df25_45b3_b11e_d6c09c6023e8" class="node">
<title>c0ce91f61_df25_45b3_b11e_d6c09c6023e8</title>
<polygon fill="none" stroke="#000000" points="951.9258,-.5 951.9258,-64.5 1042.793,-64.5 1042.793,-.5 951.9258,-.5"/>
<text text-anchor="middle" x="997.3594" y="-54.1" font-family="Times,serif" font-size="8.00" fill="#000000">AndroidProcess</text>
<polyline fill="none" stroke="#000000" points="951.9258,-48.5 1042.793,-48.5 "/>
<text text-anchor="start" x="959.9258" y="-38.1" font-family="Times,serif" font-size="8.00" fill="#000000">&#45; name:java.lang.String</text>
<polyline fill="none" stroke="#000000" points="951.9258,-32.5 1042.793,-32.5 "/>
<text text-anchor="start" x="959.9258" y="-22.1" font-family="Times,serif" font-size="8.00" fill="#000000">+ status()</text>
<text text-anchor="start" x="959.9258" y="-14.1" font-family="Times,serif" font-size="8.00" fill="#000000">+ cgroup()</text>
<text text-anchor="start" x="959.9258" y="-6.1" font-family="Times,serif" font-size="8.00" fill="#000000">+ stat()</text>
</g>
<!-- ca7d02697_cbb1_413e_a42f_506702f3fb86 -->
<g id="ca7d02697_cbb1_413e_a42f_506702f3fb86" class="node">
<title>ca7d02697_cbb1_413e_a42f_506702f3fb86</title>
<polygon fill="none" stroke="#000000" points="1061.2598,-14.5 1061.2598,-50.5 1175.459,-50.5 1175.459,-14.5 1061.2598,-14.5"/>
<text text-anchor="middle" x="1118.3594" y="-30.1" font-family="Times,serif" font-size="8.00" fill="#000000">SAXNotRecognizedException</text>
</g>
<!-- c3dcf41e2_0903_4d5c_b05b_38352be1cb80 -->
<g id="c3dcf41e2_0903_4d5c_b05b_38352be1cb80" class="node">
<title>c3dcf41e2_0903_4d5c_b05b_38352be1cb80</title>
<polygon fill="none" stroke="#000000" points="1193.0371,-14.5 1193.0371,-50.5 1251.6816,-50.5 1251.6816,-14.5 1193.0371,-14.5"/>
<text text-anchor="middle" x="1222.3594" y="-30.1" font-family="Times,serif" font-size="8.00" fill="#000000">ErrorHandler</text>
</g>
<!-- cf4ad550c_97ae_4401_a0a6_e46676cec4e0 -->
<g id="cf4ad550c_97ae_4401_a0a6_e46676cec4e0" class="node">
<title>cf4ad550c_97ae_4401_a0a6_e46676cec4e0</title>
<polygon fill="none" stroke="#000000" points="1269.3594,-14.5 1269.3594,-50.5 1323.3594,-50.5 1323.3594,-14.5 1269.3594,-14.5"/>
<text text-anchor="middle" x="1296.2969" y="-30.1" font-family="Times,serif" font-size="8.00" fill="#000000">Locator</text>
</g>
<!-- c7144f034_b1ed_4031_8bd8_4cd57176b093 -->
<g id="c7144f034_b1ed_4031_8bd8_4cd57176b093" class="node">
<title>c7144f034_b1ed_4031_8bd8_4cd57176b093</title>
<polygon fill="none" stroke="#000000" points="1341.0391,-14.5 1341.0391,-50.5 1411.6797,-50.5 1411.6797,-14.5 1341.0391,-14.5"/>
<text text-anchor="middle" x="1376.3594" y="-30.1" font-family="Times,serif" font-size="8.00" fill="#000000">ServiceReader$4</text>
</g>
<!-- c139ca724_a66a_4134_8a3b_dc2de4863b6b -->
<g id="c139ca724_a66a_4134_8a3b_dc2de4863b6b" class="node">
<title>c139ca724_a66a_4134_8a3b_dc2de4863b6b</title>
<polygon fill="none" stroke="#000000" points="1429.9238,-14.5 1429.9238,-50.5 1498.7949,-50.5 1498.7949,-14.5 1429.9238,-14.5"/>
<text text-anchor="middle" x="1464.3594" y="-30.1" font-family="Times,serif" font-size="8.00" fill="#000000">ProcessManager</text>
</g>
<!-- c95e9646c_71fa_4318_8ff8_85a19f634c0d -->
<g id="c95e9646c_71fa_4318_8ff8_85a19f634c0d" class="node">
<title>c95e9646c_71fa_4318_8ff8_85a19f634c0d</title>
<polygon fill="none" stroke="#000000" points="1516.3594,-14.5 1516.3594,-50.5 1570.3594,-50.5 1570.3594,-14.5 1516.3594,-14.5"/>
<text text-anchor="middle" x="1543.0273" y="-30.1" font-family="Times,serif" font-size="8.00" fill="#000000">C</text>
</g>
<!-- c25d6aa0a_e060_4051_a817_5e06aebb1ed3 -->
<g id="c25d6aa0a_e060_4051_a817_5e06aebb1ed3" class="node">
<title>c25d6aa0a_e060_4051_a817_5e06aebb1ed3</title>
<polygon fill="none" stroke="#000000" points="1588.3594,-14.5 1588.3594,-50.5 1642.3594,-50.5 1642.3594,-14.5 1588.3594,-14.5"/>
<text text-anchor="middle" x="1615.1934" y="-30.1" font-family="Times,serif" font-size="8.00" fill="#000000">Statm</text>
</g>
<!-- c0ff41519_5db7_4f70_b74e_e9cec06ff3a3 -->
<g id="c0ff41519_5db7_4f70_b74e_e9cec06ff3a3" class="node">
<title>c0ff41519_5db7_4f70_b74e_e9cec06ff3a3</title>
<polygon fill="none" stroke="#000000" points="1660.6973,-14.5 1660.6973,-50.5 1770.0215,-50.5 1770.0215,-14.5 1660.6973,-14.5"/>
<text text-anchor="middle" x="1715.3594" y="-30.1" font-family="Times,serif" font-size="8.00" fill="#000000">SAXNotSupportedException</text>
</g>
<!-- c8578587c_b2a2_403e_919d_5d6d7f945e48 -->
<g id="c8578587c_b2a2_403e_919d_5d6d7f945e48" class="node">
<title>c8578587c_b2a2_403e_919d_5d6d7f945e48</title>
<polygon fill="none" stroke="#000000" points="1788.1445,-14.5 1788.1445,-50.5 1844.5742,-50.5 1844.5742,-14.5 1788.1445,-14.5"/>
<text text-anchor="middle" x="1816.3594" y="-30.1" font-family="Times,serif" font-size="8.00" fill="#000000">XMLReader</text>
</g>
<!-- c9115b432_ca63_4b4a_8199_5b3543af8bbd -->
<g id="c9115b432_ca63_4b4a_8199_5b3543af8bbd" class="node">
<title>c9115b432_ca63_4b4a_8199_5b3543af8bbd</title>
<polygon fill="none" stroke="#000000" points="1863.0508,-14.5 1863.0508,-50.5 1921.668,-50.5 1921.668,-14.5 1863.0508,-14.5"/>
<text text-anchor="middle" x="1892.3594" y="-30.1" font-family="Times,serif" font-size="8.00" fill="#000000">ViewGraphic</text>
</g>
<!-- ce787c6ed_2362_4271_9a97_e7f865b45318 -->
<g id="ce787c6ed_2362_4271_9a97_e7f865b45318" class="node">
<title>ce787c6ed_2362_4271_9a97_e7f865b45318</title>
<polygon fill="none" stroke="#000000" points="1939.8047,-14.5 1939.8047,-50.5 2002.9141,-50.5 2002.9141,-14.5 1939.8047,-14.5"/>
<text text-anchor="middle" x="1971.3594" y="-30.1" font-family="Times,serif" font-size="8.00" fill="#000000">XmlPullParser</text>
</g>
<!-- c78ca9b31_7cfb_4a31_888f_0394c3c9484e -->
<g id="c78ca9b31_7cfb_4a31_888f_0394c3c9484e" class="node">
<title>c78ca9b31_7cfb_4a31_888f_0394c3c9484e</title>
<polygon fill="none" stroke="#000000" points="2020.4766,-14.5 2020.4766,-50.5 2102.2422,-50.5 2102.2422,-14.5 2020.4766,-14.5"/>
<text text-anchor="middle" x="2061.3594" y="-30.1" font-family="Times,serif" font-size="8.00" fill="#000000">SAXParseException</text>
</g>
<!-- cb1c276fe_6ac9_4d9b_9ffd_b6b44e3d5ea5 -->
<g id="cb1c276fe_6ac9_4d9b_9ffd_b6b44e3d5ea5" class="node">
<title>cb1c276fe_6ac9_4d9b_9ffd_b6b44e3d5ea5</title>
<polygon fill="none" stroke="#000000" points="2120.5762,-14.5 2120.5762,-50.5 2176.1426,-50.5 2176.1426,-14.5 2120.5762,-14.5"/>
<text text-anchor="middle" x="2148.3594" y="-30.1" font-family="Times,serif" font-size="8.00" fill="#000000">BuildConfig</text>
</g>
<!-- cb126bf33_2575_47c2_b0be_f358e1e57113 -->
<g id="cb126bf33_2575_47c2_b0be_f358e1e57113" class="node">
<title>cb126bf33_2575_47c2_b0be_f358e1e57113</title>
<polygon fill="none" stroke="#000000" points="2193.8066,-14.5 2193.8066,-50.5 2264.9121,-50.5 2264.9121,-14.5 2193.8066,-14.5"/>
<text text-anchor="middle" x="2229.3594" y="-30.1" font-family="Times,serif" font-size="8.00" fill="#000000">ActivityMain$19</text>
</g>
<!-- c41451c8c_304c_4588_84ff_048f37004556 -->
<g id="c41451c8c_304c_4588_84ff_048f37004556" class="node">
<title>c41451c8c_304c_4588_84ff_048f37004556</title>
<polygon fill="none" stroke="#000000" points="2283.3633,-14.5 2283.3633,-50.5 2347.3555,-50.5 2347.3555,-14.5 2283.3633,-14.5"/>
<text text-anchor="middle" x="2315.3594" y="-30.1" font-family="Times,serif" font-size="8.00" fill="#000000">EntityResolver</text>
</g>
<!-- cf8942994_2d4a_4599_b282_c37701378db0 -->
<g id="cf8942994_2d4a_4599_b282_c37701378db0" class="node">
<title>cf8942994_2d4a_4599_b282_c37701378db0</title>
<polygon fill="none" stroke="#000000" points="2365.3594,-14.5 2365.3594,-50.5 2419.3594,-50.5 2419.3594,-14.5 2365.3594,-14.5"/>
<text text-anchor="middle" x="2392.0273" y="-30.1" font-family="Times,serif" font-size="8.00" fill="#000000">R</text>
</g>
<!-- c30e875a0_aa19_4543_b494_a6d61f5364ea -->
<g id="c30e875a0_aa19_4543_b494_a6d61f5364ea" class="node">
<title>c30e875a0_aa19_4543_b494_a6d61f5364ea</title>
<polygon fill="none" stroke="#000000" points="2437.1406,-14.5 2437.1406,-50.5 2501.5781,-50.5 2501.5781,-14.5 2437.1406,-14.5"/>
<text text-anchor="middle" x="2469.3594" y="-30.1" font-family="Times,serif" font-size="8.00" fill="#000000">SAXException</text>
</g>
<!-- c38608c21_e8a9_4c0f_91db_e83396a07fad -->
<g id="c38608c21_e8a9_4c0f_91db_e83396a07fad" class="node">
<title>c38608c21_e8a9_4c0f_91db_e83396a07fad</title>
<polygon fill="none" stroke="#000000" points="2519.8086,-14.5 2519.8086,-50.5 2574.9102,-50.5 2574.9102,-14.5 2519.8086,-14.5"/>
<text text-anchor="middle" x="2547.3594" y="-30.1" font-family="Times,serif" font-size="8.00" fill="#000000">InputSource</text>
</g>
<!-- cef491058_21be_4463_b7e1_55881702a0d1 -->
<g id="cef491058_21be_4463_b7e1_55881702a0d1" class="node">
<title>cef491058_21be_4463_b7e1_55881702a0d1</title>
<polygon fill="none" stroke="#000000" points="2593.3594,-14.5 2593.3594,-50.5 2647.3594,-50.5 2647.3594,-14.5 2593.3594,-14.5"/>
<text text-anchor="middle" x="2620.0254" y="-30.1" font-family="Times,serif" font-size="8.00" fill="#000000">R$layout</text>
</g>
<!-- c92674194_08b3_4c86_ac91_3ecaf2824e0c -->
<g id="c92674194_08b3_4c86_ac91_3ecaf2824e0c" class="node">
<title>c92674194_08b3_4c86_ac91_3ecaf2824e0c</title>
<polygon fill="none" stroke="#000000" points="2665.5879,-14.5 2665.5879,-50.5 2761.1309,-50.5 2761.1309,-14.5 2665.5879,-14.5"/>
<text text-anchor="middle" x="2713.3594" y="-30.1" font-family="Times,serif" font-size="8.00" fill="#000000">XmlPullParserException</text>
</g>
<!-- c5749dcb5_368c_4a94_8213_dc9c471e7c88 -->
<g id="c5749dcb5_368c_4a94_8213_dc9c471e7c88" class="node">
<title>c5749dcb5_368c_4a94_8213_dc9c471e7c88</title>
<polygon fill="none" stroke="#000000" points="2778.7012,-14.5 2778.7012,-50.5 2876.0176,-50.5 2876.0176,-14.5 2778.7012,-14.5"/>
<text text-anchor="middle" x="2827.3594" y="-30.1" font-family="Times,serif" font-size="8.00" fill="#000000">LinearLayoutCustomised</text>
</g>
<!-- ccb77b822_ffad_41a6_ae66_5d69b62bf8a7 -->
<g id="ccb77b822_ffad_41a6_ae66_5d69b62bf8a7" class="node">
<title>ccb77b822_ffad_41a6_ae66_5d69b62bf8a7</title>
<polygon fill="none" stroke="#000000" points="2894.4746,-14.5 2894.4746,-50.5 2960.2441,-50.5 2960.2441,-14.5 2894.4746,-14.5"/>
<text text-anchor="middle" x="2927.3594" y="-30.1" font-family="Times,serif" font-size="8.00" fill="#000000">ActivityHelp$1</text>
</g>
<!-- c343480b4_9764_474c_9274_f8cd2d2160c3 -->
<g id="c343480b4_9764_474c_9274_f8cd2d2160c3" class="node">
<title>c343480b4_9764_474c_9274_f8cd2d2160c3</title>
<polygon fill="none" stroke="#000000" points="2978.25,-14.5 2978.25,-50.5 3048.4688,-50.5 3048.4688,-14.5 2978.25,-14.5"/>
<text text-anchor="middle" x="3013.3594" y="-30.1" font-family="Times,serif" font-size="8.00" fill="#000000">ActivityAbout$2</text>
</g>
<!-- c4584f487_72ed_44bd_819e_fb66c797b7fc -->
<g id="c4584f487_72ed_44bd_819e_fb66c797b7fc" class="node">
<title>c4584f487_72ed_44bd_819e_fb66c797b7fc</title>
<polygon fill="none" stroke="#000000" points="3066.9238,-14.5 3066.9238,-50.5 3127.7949,-50.5 3127.7949,-14.5 3066.9238,-14.5"/>
<text text-anchor="middle" x="3097.3594" y="-30.1" font-family="Times,serif" font-size="8.00" fill="#000000">XmlSerializer</text>
</g>
<!-- cd3bfce98_9400_437e_ac94_b7b8b5a7758a -->
<g id="cd3bfce98_9400_437e_ac94_b7b8b5a7758a" class="node">
<title>cd3bfce98_9400_437e_ac94_b7b8b5a7758a</title>
<polygon fill="none" stroke="#000000" points="3145.5762,-14.5 3145.5762,-50.5 3201.1426,-50.5 3201.1426,-14.5 3145.5762,-14.5"/>
<text text-anchor="middle" x="3173.3594" y="-30.1" font-family="Times,serif" font-size="8.00" fill="#000000">BuildConfig</text>
</g>
<!-- c06af9429_28fa_4313_a8de_83d34010cf58 -->
<g id="c06af9429_28fa_4313_a8de_83d34010cf58" class="node">
<title>c06af9429_28fa_4313_a8de_83d34010cf58</title>
<polygon fill="none" stroke="#000000" points="3219.3594,-14.5 3219.3594,-50.5 3273.3594,-50.5 3273.3594,-14.5 3219.3594,-14.5"/>
<text text-anchor="middle" x="3246.3574" y="-30.1" font-family="Times,serif" font-size="8.00" fill="#000000">Attributes</text>
</g>
</g>
</svg>
