<?xml version="1.0" encoding="UTF-8" standalone="no"?>
<!DOCTYPE svg PUBLIC "-//W3C//DTD SVG 1.1//EN"
 "http://www.w3.org/Graphics/SVG/1.1/DTD/svg11.dtd">
<!-- Generated by graphviz version 2.38.0 (20140413.2041)
 -->
<!-- Title: g Pages: 1 -->
<svg width="2314pt" height="384pt"
 viewBox="0.00 0.00 2314.00 383.96" xmlns="http://www.w3.org/2000/svg" xmlns:xlink="http://www.w3.org/1999/xlink">
<g id="graph0" class="graph" transform="scale(1 1) rotate(0) translate(4 379.962)">
<title>g</title>
<polygon fill="white" stroke="none" points="-4,4 -4,-379.962 2310,-379.962 2310,4 -4,4"/>
<!-- EAID_D39FA06A_B6E7_47cc_9DA4_A77859D1EBBF -->
<g id="node1" class="node"><title>EAID_D39FA06A_B6E7_47cc_9DA4_A77859D1EBBF</title>
<image xlink:href="img/actor1.png" width="82px" height="90px" preserveAspectRatio="xMinYMin meet" x="46" y="-305.462"/>
<text text-anchor="start" x="10.5" y="-192.262" font-family="Times New Roman,serif" font-size="24.00">Insurance Agent</text>
</g>
<!-- EAID_53B874F1_B193_4cea_9A29_C974D6D7837F -->
<g id="node2" class="node"><title>EAID_53B874F1_B193_4cea_9A29_C974D6D7837F</title>
<image xlink:href="img/boundary3.png" width="115px" height="67px" preserveAspectRatio="xMinYMin meet" x="2130" y="-369.462"/>
<text text-anchor="start" x="2115.5" y="-279.262" font-family="Times New Roman,serif" font-size="24.00">Review Report</text>
</g>
<!-- EAID_D39FA06A_B6E7_47cc_9DA4_A77859D1EBBF&#45;&gt;EAID_53B874F1_B193_4cea_9A29_C974D6D7837F -->
<g id="edge1" class="edge"><title>EAID_D39FA06A_B6E7_47cc_9DA4_A77859D1EBBF&#45;&gt;EAID_53B874F1_B193_4cea_9A29_C974D6D7837F</title>
<path fill="none" stroke="black" d="M173.143,-296.656C184.867,-301.838 197.003,-306.335 209,-309.462 534.887,-394.394 629.727,-328.462 966.5,-328.462 966.5,-328.462 966.5,-328.462 1701.5,-328.462 1838.75,-328.462 1997.82,-325.624 2095.3,-323.563"/>
<polygon fill="black" stroke="black" points="2095.49,-327.059 2105.41,-323.347 2095.34,-320.061 2095.49,-327.059"/>
</g>
<!-- EAID_A2E84A05_257D_44bb_80A3_390099216154 -->
<g id="node3" class="node"><title>EAID_A2E84A05_257D_44bb_80A3_390099216154</title>
<image xlink:href="img/boundary3.png" width="115px" height="67px" preserveAspectRatio="xMinYMin meet" x="426.5" y="-293.462"/>
<text text-anchor="start" x="350.5" y="-203.262" font-family="Times New Roman,serif" font-size="24.00">Enter License Plate# Screen</text>
</g>
<!-- EAID_D39FA06A_B6E7_47cc_9DA4_A77859D1EBBF&#45;&gt;EAID_A2E84A05_257D_44bb_80A3_390099216154 -->
<g id="edge2" class="edge"><title>EAID_D39FA06A_B6E7_47cc_9DA4_A77859D1EBBF&#45;&gt;EAID_A2E84A05_257D_44bb_80A3_390099216154</title>
<path fill="none" stroke="black" d="M173.209,-245.462C218.932,-245.462 276.575,-245.462 329.671,-245.462"/>
<polygon fill="black" stroke="black" points="329.876,-248.962 339.876,-245.462 329.876,-241.962 329.876,-248.962"/>
</g>
<!-- EAID_025C8A6A_2B45_43c7_9C63_8DAB3A6D4152 -->
<g id="node4" class="node"><title>EAID_025C8A6A_2B45_43c7_9C63_8DAB3A6D4152</title>
<image xlink:href="img/boundary3.png" width="115px" height="67px" preserveAspectRatio="xMinYMin meet" x="1229.5" y="-219.462"/>
<text text-anchor="start" x="1187.5" y="-129.262" font-family="Times New Roman,serif" font-size="24.00">List of reports screen</text>
</g>
<!-- EAID_D39FA06A_B6E7_47cc_9DA4_A77859D1EBBF&#45;&gt;EAID_025C8A6A_2B45_43c7_9C63_8DAB3A6D4152 -->
<g id="edge3" class="edge"><title>EAID_D39FA06A_B6E7_47cc_9DA4_A77859D1EBBF&#45;&gt;EAID_025C8A6A_2B45_43c7_9C63_8DAB3A6D4152</title>
<path fill="none" stroke="black" d="M124.84,-179.22C145.447,-149.592 173.996,-117.726 209,-101.462 584.652,73.0853 736.991,-12.0426 1141,-103.462 1151.98,-105.946 1163.11,-109.354 1174.07,-113.328"/>
<polygon fill="black" stroke="black" points="1173.06,-116.688 1183.65,-116.958 1175.54,-110.142 1173.06,-116.688"/>
</g>
<!-- EAID_AE73B6F6_8063_42fd_9C62_D4B64D9748BA -->
<g id="node9" class="node"><title>EAID_AE73B6F6_8063_42fd_9C62_D4B64D9748BA</title>
<image xlink:href="img/control1.png" width="106px" height="75px" preserveAspectRatio="xMinYMin meet" x="915" y="-223.462"/>
<text text-anchor="start" x="804.5" y="-125.262" font-family="Times New Roman,serif" font-size="24.00">Query for report by license plate #</text>
</g>
<!-- EAID_A2E84A05_257D_44bb_80A3_390099216154&#45;&gt;EAID_AE73B6F6_8063_42fd_9C62_D4B64D9748BA -->
<g id="edge8" class="edge"><title>EAID_A2E84A05_257D_44bb_80A3_390099216154&#45;&gt;EAID_AE73B6F6_8063_42fd_9C62_D4B64D9748BA</title>
<path fill="none" stroke="black" d="M627.16,-223.56C676.318,-216.012 732.067,-207.454 783.965,-199.486"/>
<polygon fill="black" stroke="black" points="784.596,-202.93 793.949,-197.953 783.533,-196.011 784.596,-202.93"/>
</g>
<!-- EAID_F48CD93E_8EB5_4b99_93F8_13446D37D58F -->
<g id="node8" class="node"><title>EAID_F48CD93E_8EB5_4b99_93F8_13446D37D58F</title>
<image xlink:href="img/control1.png" width="106px" height="75px" preserveAspectRatio="xMinYMin meet" x="1454" y="-250.462"/>
<text text-anchor="start" x="1442" y="-152.262" font-family="Times New Roman,serif" font-size="24.00">Select Report</text>
</g>
<!-- EAID_025C8A6A_2B45_43c7_9C63_8DAB3A6D4152&#45;&gt;EAID_F48CD93E_8EB5_4b99_93F8_13446D37D58F -->
<g id="edge10" class="edge"><title>EAID_025C8A6A_2B45_43c7_9C63_8DAB3A6D4152&#45;&gt;EAID_F48CD93E_8EB5_4b99_93F8_13446D37D58F</title>
<path fill="none" stroke="black" d="M1396.11,-184.883C1404.71,-185.946 1413.32,-187.01 1421.73,-188.048"/>
<polygon fill="black" stroke="black" points="1421.5,-191.547 1431.86,-189.3 1422.36,-184.6 1421.5,-191.547"/>
</g>
<!-- EAID_19E8E14C_817E_41de_AA48_C36A0B5EC55C -->
<g id="node5" class="node"><title>EAID_19E8E14C_817E_41de_AA48_C36A0B5EC55C</title>
<image xlink:href="img/activity_icon.png" width="30px" height="20px" preserveAspectRatio="xMinYMin meet" x="1911" y="-239.462"/>
<text text-anchor="start" x="1829" y="-197.262" font-family="Times New Roman,serif" font-weight="bold" font-size="24.00">Bad Dirver Report</text>
</g>
<!-- EAID_19E8E14C_817E_41de_AA48_C36A0B5EC55C&#45;&gt;EAID_53B874F1_B193_4cea_9A29_C974D6D7837F -->
<g id="edge5" class="edge"><title>EAID_19E8E14C_817E_41de_AA48_C36A0B5EC55C&#45;&gt;EAID_53B874F1_B193_4cea_9A29_C974D6D7837F</title>
<path fill="none" stroke="black" d="M2002.41,-245.554C2031.7,-257.633 2065.5,-271.571 2096.09,-284.181"/>
<polygon fill="black" stroke="black" points="2094.89,-287.472 2105.47,-288.049 2097.55,-281.001 2094.89,-287.472"/>
</g>
<!-- EAID_99FDA2CB_4056_4ddb_9A75_A95D039A8423 -->
<g id="node6" class="node"><title>EAID_99FDA2CB_4056_4ddb_9A75_A95D039A8423</title>
<image xlink:href="img/activity_icon.png" width="30px" height="20px" preserveAspectRatio="xMinYMin meet" x="2173" y="-239.462"/>
<text text-anchor="start" x="2079.5" y="-197.262" font-family="Times New Roman,serif" font-weight="bold" font-size="24.00">Bad Driver Database</text>
</g>
<!-- EAID_19E8E14C_817E_41de_AA48_C36A0B5EC55C&#45;&gt;EAID_99FDA2CB_4056_4ddb_9A75_A95D039A8423 -->
<g id="edge4" class="edge"><title>EAID_19E8E14C_817E_41de_AA48_C36A0B5EC55C&#45;&gt;EAID_99FDA2CB_4056_4ddb_9A75_A95D039A8423</title>
<path fill="none" stroke="black" d="M2033.3,-214.462C2041.75,-214.462 2050.34,-214.462 2058.91,-214.462"/>
<polygon fill="black" stroke="black" points="2058.96,-217.962 2068.96,-214.462 2058.96,-210.962 2058.96,-217.962"/>
</g>
<!-- EAID_046FFB4E_39DF_49eb_81D0_E52F4E65ED6B -->
<g id="node7" class="node"><title>EAID_046FFB4E_39DF_49eb_81D0_E52F4E65ED6B</title>
<image xlink:href="img/control1.png" width="106px" height="75px" preserveAspectRatio="xMinYMin meet" x="1648" y="-252.462"/>
<text text-anchor="start" x="1628.5" y="-154.262" font-family="Times New Roman,serif" font-size="24.00">Display Report</text>
</g>
<!-- EAID_046FFB4E_39DF_49eb_81D0_E52F4E65ED6B&#45;&gt;EAID_19E8E14C_817E_41de_AA48_C36A0B5EC55C -->
<g id="edge6" class="edge"><title>EAID_046FFB4E_39DF_49eb_81D0_E52F4E65ED6B&#45;&gt;EAID_19E8E14C_817E_41de_AA48_C36A0B5EC55C</title>
<path fill="none" stroke="black" d="M1783.14,-205.576C1791.47,-206.098 1800.05,-206.635 1808.66,-207.174"/>
<polygon fill="black" stroke="black" points="1808.58,-210.676 1818.78,-207.808 1809.02,-203.69 1808.58,-210.676"/>
</g>
<!-- EAID_F48CD93E_8EB5_4b99_93F8_13446D37D58F&#45;&gt;EAID_046FFB4E_39DF_49eb_81D0_E52F4E65ED6B -->
<g id="edge7" class="edge"><title>EAID_F48CD93E_8EB5_4b99_93F8_13446D37D58F&#45;&gt;EAID_046FFB4E_39DF_49eb_81D0_E52F4E65ED6B</title>
<path fill="none" stroke="black" d="M1582.04,-199.235C1590.44,-199.323 1599.07,-199.413 1607.66,-199.503"/>
<polygon fill="black" stroke="black" points="1607.67,-203.003 1617.71,-199.608 1607.74,-196.003 1607.67,-203.003"/>
</g>
<!-- EAID_AE73B6F6_8063_42fd_9C62_D4B64D9748BA&#45;&gt;EAID_025C8A6A_2B45_43c7_9C63_8DAB3A6D4152 -->
<g id="edge11" class="edge"><title>EAID_AE73B6F6_8063_42fd_9C62_D4B64D9748BA&#45;&gt;EAID_025C8A6A_2B45_43c7_9C63_8DAB3A6D4152</title>
<path fill="none" stroke="black" d="M1141.38,-171.462C1149.93,-171.462 1158.42,-171.462 1166.76,-171.462"/>
<polygon fill="black" stroke="black" points="1166.84,-174.962 1176.84,-171.462 1166.84,-167.962 1166.84,-174.962"/>
</g>
<!-- EAID_3028E9DE_A9DC_404c_8717_E227F4AD007E -->
<g id="node10" class="node"><title>EAID_3028E9DE_A9DC_404c_8717_E227F4AD007E</title>
<image xlink:href="img/activity_icon.png" width="30px" height="20px" preserveAspectRatio="xMinYMin meet" x="469" y="-166.462"/>
<text text-anchor="start" x="219.5" y="-124.262" font-family="Times New Roman,serif" font-weight="bold" font-size="24.00">License lace # database associated with Bad Drivers</text>
</g>
<!-- EAID_3028E9DE_A9DC_404c_8717_E227F4AD007E&#45;&gt;EAID_AE73B6F6_8063_42fd_9C62_D4B64D9748BA -->
<g id="edge9" class="edge"><title>EAID_3028E9DE_A9DC_404c_8717_E227F4AD007E&#45;&gt;EAID_AE73B6F6_8063_42fd_9C62_D4B64D9748BA</title>
<path fill="none" stroke="black" d="M758.241,-158.5C766.765,-159.03 775.234,-159.557 783.603,-160.078"/>
<polygon fill="black" stroke="black" points="783.561,-163.582 793.759,-160.71 783.996,-156.596 783.561,-163.582"/>
</g>
</g>
</svg>
