<?xml version="1.0" encoding="UTF-8" standalone="no"?>
<!DOCTYPE svg PUBLIC "-//W3C//DTD SVG 1.1//EN"
 "http://www.w3.org/Graphics/SVG/1.1/DTD/svg11.dtd">
<!-- Generated by graphviz version 2.40.1 (20161225.0304)
 -->
<!-- Title: class_diagram Pages: 1 -->
<svg width="3281pt" height="73pt"
 viewBox="0.00 0.00 3281.36 73.00" xmlns="http://www.w3.org/2000/svg" xmlns:xlink="http://www.w3.org/1999/xlink">
<g id="graph0" class="graph" transform="scale(1 1) rotate(0) translate(4 69)">
<title>class_diagram</title>
<polygon fill="#ffffff" stroke="transparent" points="-4,4 -4,-69 3277.3594,-69 3277.3594,4 -4,4"/>
<!-- c7d5a5333_e5a9_47d0_bacb_c0c9e69d213d -->
<g id="c7d5a5333_e5a9_47d0_bacb_c0c9e69d213d" class="node">
<title>c7d5a5333_e5a9_47d0_bacb_c0c9e69d213d</title>
<polygon fill="none" stroke="#000000" points="0,-12.5 0,-52.5 116.7188,-52.5 116.7188,-12.5 0,-12.5"/>
<text text-anchor="middle" x="58.3594" y="-42.1" font-family="Times,serif" font-size="8.00" fill="#000000">AndroidProcesses</text>
<polyline fill="none" stroke="#000000" points="0,-36.5 116.7188,-36.5 "/>
<text text-anchor="start" x="8" y="-26.1" font-family="Times,serif" font-size="8.00" fill="#000000">+ log()</text>
<text text-anchor="start" x="8" y="-18.1" font-family="Times,serif" font-size="8.00" fill="#000000">+ getRunningAppProcessInfo()</text>
</g>
<!-- c8110f734_1602_4f8d_8f40_a115d88a8f5d -->
<g id="c8110f734_1602_4f8d_8f40_a115d88a8f5d" class="node">
<title>c8110f734_1602_4f8d_8f40_a115d88a8f5d</title>
<polygon fill="none" stroke="#000000" points="134.6973,-14.5 134.6973,-50.5 208.0215,-50.5 208.0215,-14.5 134.6973,-14.5"/>
<text text-anchor="middle" x="171.3594" y="-30.1" font-family="Times,serif" font-size="8.00" fill="#000000">ActivityProcesses</text>
</g>
<!-- c70748ce6_f00d_48eb_b424_76d48490a646 -->
<g id="c70748ce6_f00d_48eb_b424_76d48490a646" class="node">
<title>c70748ce6_f00d_48eb_b424_76d48490a646</title>
<polygon fill="none" stroke="#000000" points="225.8105,-14.5 225.8105,-50.5 292.9082,-50.5 292.9082,-14.5 225.8105,-14.5"/>
<text text-anchor="middle" x="259.3594" y="-30.1" font-family="Times,serif" font-size="8.00" fill="#000000">ContentHandler</text>
</g>
<!-- c818f2ae7_78b7_4982_ac70_e536d5c91cbe -->
<g id="c818f2ae7_78b7_4982_ac70_e536d5c91cbe" class="node">
<title>c818f2ae7_78b7_4982_ac70_e536d5c91cbe</title>
<polygon fill="none" stroke="#000000" points="310.918,-14.5 310.918,-50.5 391.8008,-50.5 391.8008,-14.5 310.918,-14.5"/>
<text text-anchor="middle" x="351.3594" y="-39.6" font-family="Times,serif" font-size="8.00" fill="#000000">AndroidAppProcess</text>
<polyline fill="none" stroke="#000000" points="310.918,-33.5 391.8008,-33.5 "/>
<text text-anchor="start" x="318.918" y="-22.6" font-family="Times,serif" font-size="8.00" fill="#000000">&#45; uid:int</text>
<polyline fill="none" stroke="#000000" points="310.918,-16.5 391.8008,-16.5 "/>
</g>
<!-- c6819bf5c_c458_4a8d_81b2_e84dc2f99e08 -->
<g id="c6819bf5c_c458_4a8d_81b2_e84dc2f99e08" class="node">
<title>c6819bf5c_c458_4a8d_81b2_e84dc2f99e08</title>
<polygon fill="none" stroke="#000000" points="410.2559,-14.5 410.2559,-50.5 468.4629,-50.5 468.4629,-14.5 410.2559,-14.5"/>
<text text-anchor="middle" x="439.3594" y="-30.1" font-family="Times,serif" font-size="8.00" fill="#000000">DTDHandler</text>
</g>
<!-- c8eb697d2_e36a_4175_9730_837f08b6e3ef -->
<g id="c8eb697d2_e36a_4175_9730_837f08b6e3ef" class="node">
<title>c8eb697d2_e36a_4175_9730_837f08b6e3ef</title>
<polygon fill="none" stroke="#000000" points="486.3359,-14.5 486.3359,-50.5 642.3828,-50.5 642.3828,-14.5 486.3359,-14.5"/>
<text text-anchor="middle" x="564.3594" y="-39.6" font-family="Times,serif" font-size="8.00" fill="#000000">ControlGroup$1</text>
<polyline fill="none" stroke="#000000" points="486.3359,-33.5 642.3828,-33.5 "/>
<text text-anchor="start" x="494.3359" y="-22.6" font-family="Times,serif" font-size="8.00" fill="#000000">&#45; CREATOR:android.os.Parcelable$Creator</text>
<polyline fill="none" stroke="#000000" points="486.3359,-16.5 642.3828,-16.5 "/>
</g>
<!-- cd7b29ed6_f57f_4582_8869_a5c5813f4dd0 -->
<g id="cd7b29ed6_f57f_4582_8869_a5c5813f4dd0" class="node">
<title>cd7b29ed6_f57f_4582_8869_a5c5813f4dd0</title>
<polygon fill="none" stroke="#000000" points="660.332,-12.5 660.332,-52.5 718.3867,-52.5 718.3867,-12.5 660.332,-12.5"/>
<text text-anchor="middle" x="689.3594" y="-42.1" font-family="Times,serif" font-size="8.00" fill="#000000">Cgroup$1</text>
<polyline fill="none" stroke="#000000" points="660.332,-36.5 718.3867,-36.5 "/>
<text text-anchor="start" x="668.332" y="-26.1" font-family="Times,serif" font-size="8.00" fill="#000000">+ getGroup()</text>
<text text-anchor="start" x="668.332" y="-18.1" font-family="Times,serif" font-size="8.00" fill="#000000">+ get()</text>
</g>
<!-- c9acf04cd_3d55_40b3_ae66_869328a11423 -->
<g id="c9acf04cd_3d55_40b3_ae66_869328a11423" class="node">
<title>c9acf04cd_3d55_40b3_ae66_869328a11423</title>
<polygon fill="none" stroke="#000000" points="736.3594,-14.5 736.3594,-50.5 790.3594,-50.5 790.3594,-14.5 736.3594,-14.5"/>
<text text-anchor="middle" x="763.082" y="-35.1" font-family="Times,serif" font-size="8.00" fill="#000000">Stat</text>
<polyline fill="none" stroke="#000000" points="736.3594,-24.5 789.8047,-24.5 "/>
</g>
<!-- cf25c4f1c_3903_40ae_9885_2ad9c9e96ced -->
<g id="cf25c4f1c_3903_40ae_9885_2ad9c9e96ced" class="node">
<title>cf25c4f1c_3903_40ae_9885_2ad9c9e96ced</title>
<polygon fill="none" stroke="#000000" points="808.3594,-14.5 808.3594,-50.5 862.3594,-50.5 862.3594,-14.5 808.3594,-14.5"/>
<text text-anchor="middle" x="835.1387" y="-35.1" font-family="Times,serif" font-size="8.00" fill="#000000">Status$1</text>
<polyline fill="none" stroke="#000000" points="808.3594,-24.5 861.918,-24.5 "/>
</g>
<!-- c4784e3c2_e703_4c2e_88f8_6466bb51fca3 -->
<g id="c4784e3c2_e703_4c2e_88f8_6466bb51fca3" class="node">
<title>c4784e3c2_e703_4c2e_88f8_6466bb51fca3</title>
<polygon fill="none" stroke="#000000" points="880.3594,-14.5 880.3594,-50.5 934.3594,-50.5 934.3594,-14.5 880.3594,-14.5"/>
<text text-anchor="middle" x="906.9141" y="-35.1" font-family="Times,serif" font-size="8.00" fill="#000000">ProcFile</text>
<polyline fill="none" stroke="#000000" points="880.3594,-24.5 933.4688,-24.5 "/>
</g>
<!-- c8aa43528_2fad_4038_972f_ba11b57ebf1a -->
<g id="c8aa43528_2fad_4038_972f_ba11b57ebf1a" class="node">
<title>c8aa43528_2fad_4038_972f_ba11b57ebf1a</title>
<polygon fill="none" stroke="#000000" points="951.9258,-.5 951.9258,-64.5 1042.793,-64.5 1042.793,-.5 951.9258,-.5"/>
<text text-anchor="middle" x="997.3594" y="-54.1" font-family="Times,serif" font-size="8.00" fill="#000000">AndroidProcess</text>
<polyline fill="none" stroke="#000000" points="951.9258,-48.5 1042.793,-48.5 "/>
<text text-anchor="start" x="959.9258" y="-38.1" font-family="Times,serif" font-size="8.00" fill="#000000">&#45; name:java.lang.String</text>
<polyline fill="none" stroke="#000000" points="951.9258,-32.5 1042.793,-32.5 "/>
<text text-anchor="start" x="959.9258" y="-22.1" font-family="Times,serif" font-size="8.00" fill="#000000">+ status()</text>
<text text-anchor="start" x="959.9258" y="-14.1" font-family="Times,serif" font-size="8.00" fill="#000000">+ cgroup()</text>
<text text-anchor="start" x="959.9258" y="-6.1" font-family="Times,serif" font-size="8.00" fill="#000000">+ stat()</text>
</g>
<!-- cce36c550_f733_422c_920c_ab41ae9c069c -->
<g id="cce36c550_f733_422c_920c_ab41ae9c069c" class="node">
<title>cce36c550_f733_422c_920c_ab41ae9c069c</title>
<polygon fill="none" stroke="#000000" points="1061.2598,-14.5 1061.2598,-50.5 1175.459,-50.5 1175.459,-14.5 1061.2598,-14.5"/>
<text text-anchor="middle" x="1118.3594" y="-30.1" font-family="Times,serif" font-size="8.00" fill="#000000">SAXNotRecognizedException</text>
</g>
<!-- c64d35ece_a932_4e5b_b3a0_166efb024f8a -->
<g id="c64d35ece_a932_4e5b_b3a0_166efb024f8a" class="node">
<title>c64d35ece_a932_4e5b_b3a0_166efb024f8a</title>
<polygon fill="none" stroke="#000000" points="1193.0371,-14.5 1193.0371,-50.5 1251.6816,-50.5 1251.6816,-14.5 1193.0371,-14.5"/>
<text text-anchor="middle" x="1222.3594" y="-30.1" font-family="Times,serif" font-size="8.00" fill="#000000">ErrorHandler</text>
</g>
<!-- cdb8fb71c_4487_41ce_8a9b_4c8e20c1dc04 -->
<g id="cdb8fb71c_4487_41ce_8a9b_4c8e20c1dc04" class="node">
<title>cdb8fb71c_4487_41ce_8a9b_4c8e20c1dc04</title>
<polygon fill="none" stroke="#000000" points="1269.3594,-14.5 1269.3594,-50.5 1323.3594,-50.5 1323.3594,-14.5 1269.3594,-14.5"/>
<text text-anchor="middle" x="1296.2969" y="-30.1" font-family="Times,serif" font-size="8.00" fill="#000000">Locator</text>
</g>
<!-- c2137bfa0_51d1_40ec_abab_66ce9baa46fb -->
<g id="c2137bfa0_51d1_40ec_abab_66ce9baa46fb" class="node">
<title>c2137bfa0_51d1_40ec_abab_66ce9baa46fb</title>
<polygon fill="none" stroke="#000000" points="1341.0391,-14.5 1341.0391,-50.5 1411.6797,-50.5 1411.6797,-14.5 1341.0391,-14.5"/>
<text text-anchor="middle" x="1376.3594" y="-30.1" font-family="Times,serif" font-size="8.00" fill="#000000">ServiceReader$4</text>
</g>
<!-- ce0d0f157_bc71_48a6_a659_9b0b944087e0 -->
<g id="ce0d0f157_bc71_48a6_a659_9b0b944087e0" class="node">
<title>ce0d0f157_bc71_48a6_a659_9b0b944087e0</title>
<polygon fill="none" stroke="#000000" points="1429.9238,-14.5 1429.9238,-50.5 1498.7949,-50.5 1498.7949,-14.5 1429.9238,-14.5"/>
<text text-anchor="middle" x="1464.3594" y="-30.1" font-family="Times,serif" font-size="8.00" fill="#000000">ProcessManager</text>
</g>
<!-- cff7e08fb_9a3a_44de_be1d_b0a271c70650 -->
<g id="cff7e08fb_9a3a_44de_be1d_b0a271c70650" class="node">
<title>cff7e08fb_9a3a_44de_be1d_b0a271c70650</title>
<polygon fill="none" stroke="#000000" points="1516.3594,-14.5 1516.3594,-50.5 1570.3594,-50.5 1570.3594,-14.5 1516.3594,-14.5"/>
<text text-anchor="middle" x="1543.0273" y="-30.1" font-family="Times,serif" font-size="8.00" fill="#000000">C</text>
</g>
<!-- cf66e4412_fbc8_43c6_9a6b_a6b3dbd94da1 -->
<g id="cf66e4412_fbc8_43c6_9a6b_a6b3dbd94da1" class="node">
<title>cf66e4412_fbc8_43c6_9a6b_a6b3dbd94da1</title>
<polygon fill="none" stroke="#000000" points="1588.3594,-14.5 1588.3594,-50.5 1642.3594,-50.5 1642.3594,-14.5 1588.3594,-14.5"/>
<text text-anchor="middle" x="1615.1934" y="-30.1" font-family="Times,serif" font-size="8.00" fill="#000000">Statm</text>
</g>
<!-- c61ffec51_5400_4a90_b892_efcfc7c91521 -->
<g id="c61ffec51_5400_4a90_b892_efcfc7c91521" class="node">
<title>c61ffec51_5400_4a90_b892_efcfc7c91521</title>
<polygon fill="none" stroke="#000000" points="1660.6973,-14.5 1660.6973,-50.5 1770.0215,-50.5 1770.0215,-14.5 1660.6973,-14.5"/>
<text text-anchor="middle" x="1715.3594" y="-30.1" font-family="Times,serif" font-size="8.00" fill="#000000">SAXNotSupportedException</text>
</g>
<!-- cd47cd5c3_d0e9_422c_a9bc_878d063f1f63 -->
<g id="cd47cd5c3_d0e9_422c_a9bc_878d063f1f63" class="node">
<title>cd47cd5c3_d0e9_422c_a9bc_878d063f1f63</title>
<polygon fill="none" stroke="#000000" points="1788.1445,-14.5 1788.1445,-50.5 1844.5742,-50.5 1844.5742,-14.5 1788.1445,-14.5"/>
<text text-anchor="middle" x="1816.3594" y="-30.1" font-family="Times,serif" font-size="8.00" fill="#000000">XMLReader</text>
</g>
<!-- c09d1e151_8214_410e_8962_7c65853a8d81 -->
<g id="c09d1e151_8214_410e_8962_7c65853a8d81" class="node">
<title>c09d1e151_8214_410e_8962_7c65853a8d81</title>
<polygon fill="none" stroke="#000000" points="1863.0508,-14.5 1863.0508,-50.5 1921.668,-50.5 1921.668,-14.5 1863.0508,-14.5"/>
<text text-anchor="middle" x="1892.3594" y="-30.1" font-family="Times,serif" font-size="8.00" fill="#000000">ViewGraphic</text>
</g>
<!-- c52aca477_9c73_4524_b592_8fb42dbfd749 -->
<g id="c52aca477_9c73_4524_b592_8fb42dbfd749" class="node">
<title>c52aca477_9c73_4524_b592_8fb42dbfd749</title>
<polygon fill="none" stroke="#000000" points="1939.8047,-14.5 1939.8047,-50.5 2002.9141,-50.5 2002.9141,-14.5 1939.8047,-14.5"/>
<text text-anchor="middle" x="1971.3594" y="-30.1" font-family="Times,serif" font-size="8.00" fill="#000000">XmlPullParser</text>
</g>
<!-- cd09cf6fa_71ca_42c6_96ec_3e8eccdafa4a -->
<g id="cd09cf6fa_71ca_42c6_96ec_3e8eccdafa4a" class="node">
<title>cd09cf6fa_71ca_42c6_96ec_3e8eccdafa4a</title>
<polygon fill="none" stroke="#000000" points="2020.4766,-14.5 2020.4766,-50.5 2102.2422,-50.5 2102.2422,-14.5 2020.4766,-14.5"/>
<text text-anchor="middle" x="2061.3594" y="-30.1" font-family="Times,serif" font-size="8.00" fill="#000000">SAXParseException</text>
</g>
<!-- ce2c42a43_89af_40bb_b8a6_da69aee914a8 -->
<g id="ce2c42a43_89af_40bb_b8a6_da69aee914a8" class="node">
<title>ce2c42a43_89af_40bb_b8a6_da69aee914a8</title>
<polygon fill="none" stroke="#000000" points="2120.5762,-14.5 2120.5762,-50.5 2176.1426,-50.5 2176.1426,-14.5 2120.5762,-14.5"/>
<text text-anchor="middle" x="2148.3594" y="-30.1" font-family="Times,serif" font-size="8.00" fill="#000000">BuildConfig</text>
</g>
<!-- c2a58ddf5_6e38_42fe_95e6_e01ba999625b -->
<g id="c2a58ddf5_6e38_42fe_95e6_e01ba999625b" class="node">
<title>c2a58ddf5_6e38_42fe_95e6_e01ba999625b</title>
<polygon fill="none" stroke="#000000" points="2193.8066,-14.5 2193.8066,-50.5 2264.9121,-50.5 2264.9121,-14.5 2193.8066,-14.5"/>
<text text-anchor="middle" x="2229.3594" y="-30.1" font-family="Times,serif" font-size="8.00" fill="#000000">ActivityMain$19</text>
</g>
<!-- c6a5b9548_02ea_4efc_bbd5_6d709cac8c77 -->
<g id="c6a5b9548_02ea_4efc_bbd5_6d709cac8c77" class="node">
<title>c6a5b9548_02ea_4efc_bbd5_6d709cac8c77</title>
<polygon fill="none" stroke="#000000" points="2283.3633,-14.5 2283.3633,-50.5 2347.3555,-50.5 2347.3555,-14.5 2283.3633,-14.5"/>
<text text-anchor="middle" x="2315.3594" y="-30.1" font-family="Times,serif" font-size="8.00" fill="#000000">EntityResolver</text>
</g>
<!-- c1a7fa0e7_73b9_43c6_84dc_699bdcde1459 -->
<g id="c1a7fa0e7_73b9_43c6_84dc_699bdcde1459" class="node">
<title>c1a7fa0e7_73b9_43c6_84dc_699bdcde1459</title>
<polygon fill="none" stroke="#000000" points="2365.3594,-14.5 2365.3594,-50.5 2419.3594,-50.5 2419.3594,-14.5 2365.3594,-14.5"/>
<text text-anchor="middle" x="2392.0273" y="-30.1" font-family="Times,serif" font-size="8.00" fill="#000000">R</text>
</g>
<!-- c0bec4518_006c_4f0b_b1cf_6cda40d143d2 -->
<g id="c0bec4518_006c_4f0b_b1cf_6cda40d143d2" class="node">
<title>c0bec4518_006c_4f0b_b1cf_6cda40d143d2</title>
<polygon fill="none" stroke="#000000" points="2437.1406,-14.5 2437.1406,-50.5 2501.5781,-50.5 2501.5781,-14.5 2437.1406,-14.5"/>
<text text-anchor="middle" x="2469.3594" y="-30.1" font-family="Times,serif" font-size="8.00" fill="#000000">SAXException</text>
</g>
<!-- c14a46788_502b_4289_a6fc_7b00b4d2a094 -->
<g id="c14a46788_502b_4289_a6fc_7b00b4d2a094" class="node">
<title>c14a46788_502b_4289_a6fc_7b00b4d2a094</title>
<polygon fill="none" stroke="#000000" points="2519.8086,-14.5 2519.8086,-50.5 2574.9102,-50.5 2574.9102,-14.5 2519.8086,-14.5"/>
<text text-anchor="middle" x="2547.3594" y="-30.1" font-family="Times,serif" font-size="8.00" fill="#000000">InputSource</text>
</g>
<!-- cacc6a72e_89fd_4d33_8575_bbcd6a872647 -->
<g id="cacc6a72e_89fd_4d33_8575_bbcd6a872647" class="node">
<title>cacc6a72e_89fd_4d33_8575_bbcd6a872647</title>
<polygon fill="none" stroke="#000000" points="2593.3594,-14.5 2593.3594,-50.5 2647.3594,-50.5 2647.3594,-14.5 2593.3594,-14.5"/>
<text text-anchor="middle" x="2620.0254" y="-30.1" font-family="Times,serif" font-size="8.00" fill="#000000">R$layout</text>
</g>
<!-- c52c6f200_2b84_48b1_9f87_e29c41f90c1c -->
<g id="c52c6f200_2b84_48b1_9f87_e29c41f90c1c" class="node">
<title>c52c6f200_2b84_48b1_9f87_e29c41f90c1c</title>
<polygon fill="none" stroke="#000000" points="2665.5879,-14.5 2665.5879,-50.5 2761.1309,-50.5 2761.1309,-14.5 2665.5879,-14.5"/>
<text text-anchor="middle" x="2713.3594" y="-30.1" font-family="Times,serif" font-size="8.00" fill="#000000">XmlPullParserException</text>
</g>
<!-- cbdbe1e7a_b356_4d07_b871_fa1daec51148 -->
<g id="cbdbe1e7a_b356_4d07_b871_fa1daec51148" class="node">
<title>cbdbe1e7a_b356_4d07_b871_fa1daec51148</title>
<polygon fill="none" stroke="#000000" points="2778.7012,-14.5 2778.7012,-50.5 2876.0176,-50.5 2876.0176,-14.5 2778.7012,-14.5"/>
<text text-anchor="middle" x="2827.3594" y="-30.1" font-family="Times,serif" font-size="8.00" fill="#000000">LinearLayoutCustomised</text>
</g>
<!-- c5c10a202_3ff5_4a4c_b559_a58af7c54399 -->
<g id="c5c10a202_3ff5_4a4c_b559_a58af7c54399" class="node">
<title>c5c10a202_3ff5_4a4c_b559_a58af7c54399</title>
<polygon fill="none" stroke="#000000" points="2894.4746,-14.5 2894.4746,-50.5 2960.2441,-50.5 2960.2441,-14.5 2894.4746,-14.5"/>
<text text-anchor="middle" x="2927.3594" y="-30.1" font-family="Times,serif" font-size="8.00" fill="#000000">ActivityHelp$1</text>
</g>
<!-- c339816ce_02e2_4910_b095_b9827b893752 -->
<g id="c339816ce_02e2_4910_b095_b9827b893752" class="node">
<title>c339816ce_02e2_4910_b095_b9827b893752</title>
<polygon fill="none" stroke="#000000" points="2978.25,-14.5 2978.25,-50.5 3048.4688,-50.5 3048.4688,-14.5 2978.25,-14.5"/>
<text text-anchor="middle" x="3013.3594" y="-30.1" font-family="Times,serif" font-size="8.00" fill="#000000">ActivityAbout$2</text>
</g>
<!-- c052abbc6_c2e4_4a4e_8643_e730d84c615f -->
<g id="c052abbc6_c2e4_4a4e_8643_e730d84c615f" class="node">
<title>c052abbc6_c2e4_4a4e_8643_e730d84c615f</title>
<polygon fill="none" stroke="#000000" points="3066.9238,-14.5 3066.9238,-50.5 3127.7949,-50.5 3127.7949,-14.5 3066.9238,-14.5"/>
<text text-anchor="middle" x="3097.3594" y="-30.1" font-family="Times,serif" font-size="8.00" fill="#000000">XmlSerializer</text>
</g>
<!-- c23395629_981a_45eb_becf_e7e329a599de -->
<g id="c23395629_981a_45eb_becf_e7e329a599de" class="node">
<title>c23395629_981a_45eb_becf_e7e329a599de</title>
<polygon fill="none" stroke="#000000" points="3145.5762,-14.5 3145.5762,-50.5 3201.1426,-50.5 3201.1426,-14.5 3145.5762,-14.5"/>
<text text-anchor="middle" x="3173.3594" y="-30.1" font-family="Times,serif" font-size="8.00" fill="#000000">BuildConfig</text>
</g>
<!-- c936f56ad_ac90_4540_b191_7d73d4c6790b -->
<g id="c936f56ad_ac90_4540_b191_7d73d4c6790b" class="node">
<title>c936f56ad_ac90_4540_b191_7d73d4c6790b</title>
<polygon fill="none" stroke="#000000" points="3219.3594,-14.5 3219.3594,-50.5 3273.3594,-50.5 3273.3594,-14.5 3219.3594,-14.5"/>
<text text-anchor="middle" x="3246.3574" y="-30.1" font-family="Times,serif" font-size="8.00" fill="#000000">Attributes</text>
</g>
</g>
</svg>
