<?xml version="1.0" encoding="UTF-8" standalone="no"?>
<!DOCTYPE svg PUBLIC "-//W3C//DTD SVG 1.1//EN"
 "http://www.w3.org/Graphics/SVG/1.1/DTD/svg11.dtd">
<!-- Generated by graphviz version 2.38.0 (20140413.2041)
 -->
<!-- Title: g Pages: 1 -->
<svg width="397pt" height="837pt"
 viewBox="0.00 0.00 396.50 837.00" xmlns="http://www.w3.org/2000/svg" xmlns:xlink="http://www.w3.org/1999/xlink">
<g id="graph0" class="graph" transform="scale(1 1) rotate(0) translate(4 833)">
<title>g</title>
<polygon fill="white" stroke="none" points="-4,4 -4,-833 392.5,-833 392.5,4 -4,4"/>
<!-- EAID_5AFF5212_D7A0_41bd_BFBA_3FD0A111293F -->
<g id="node1" class="node"><title>EAID_5AFF5212_D7A0_41bd_BFBA_3FD0A111293F</title>
<image xlink:href="Stimulus_icon.png" width="27px" height="20px" preserveAspectRatio="xMinYMin meet" x="132.5" y="-822.5"/>
<text text-anchor="start" x="119.5" y="-787.3" font-family="Times New Roman,serif" font-size="14.00">onSearch</text>
</g>
<!-- EAID_16B7023E_6AAB_4a2f_B199_F6EADF40E6E4 -->
<g id="node2" class="node"><title>EAID_16B7023E_6AAB_4a2f_B199_F6EADF40E6E4</title>
<image xlink:href="activity_icon.png" width="27px" height="20px" preserveAspectRatio="xMinYMin meet" x="132.5" y="-735.5"/>
<text text-anchor="start" x="78.5" y="-700.3" font-family="Times New Roman,serif" font-size="14.00">searchItemByKeywords</text>
</g>
<!-- EAID_5AFF5212_D7A0_41bd_BFBA_3FD0A111293F&#45;&gt;EAID_16B7023E_6AAB_4a2f_B199_F6EADF40E6E4 -->
<g id="edge1" class="edge"><title>EAID_5AFF5212_D7A0_41bd_BFBA_3FD0A111293F&#45;&gt;EAID_16B7023E_6AAB_4a2f_B199_F6EADF40E6E4</title>
<path fill="none" stroke="black" d="M145.5,-777.914C145.5,-769.897 145.5,-760.839 145.5,-752.222"/>
<polygon fill="black" stroke="black" points="149,-752.03 145.5,-742.03 142,-752.03 149,-752.03"/>
</g>
<!-- EAID_FB5936C9_7F7D_4e4e_9BDB_9281387780A0_start -->
<g id="node11" class="node"><title>EAID_FB5936C9_7F7D_4e4e_9BDB_9281387780A0_start</title>
<image xlink:href="fragment_node_icon.png" width="27px" height="19px" preserveAspectRatio="xMinYMin meet" x="132.5" y="-649"/>
<text text-anchor="start" x="123.5" y="-614.8" font-family="Times New Roman,serif" font-size="14.00">alt_start</text>
</g>
<!-- EAID_16B7023E_6AAB_4a2f_B199_F6EADF40E6E4&#45;&gt;EAID_FB5936C9_7F7D_4e4e_9BDB_9281387780A0_start -->
<g id="edge2" class="edge"><title>EAID_16B7023E_6AAB_4a2f_B199_F6EADF40E6E4&#45;&gt;EAID_FB5936C9_7F7D_4e4e_9BDB_9281387780A0_start</title>
<path fill="none" stroke="black" d="M145.5,-690.604C145.5,-682.644 145.5,-673.689 145.5,-665.186"/>
<polygon fill="black" stroke="black" points="149,-665.137 145.5,-655.137 142,-665.137 149,-665.137"/>
</g>
<!-- EAID_46BEFB5E_3E95_41ab_9C5A_47F9E14FA8CE -->
<g id="node3" class="node"><title>EAID_46BEFB5E_3E95_41ab_9C5A_47F9E14FA8CE</title>
<image xlink:href="activity_icon.png" width="27px" height="20px" preserveAspectRatio="xMinYMin meet" x="67.5" y="-475.5"/>
<text text-anchor="start" x="10.5" y="-440.3" font-family="Times New Roman,serif" font-size="14.00">displaySearchInvalidMsg</text>
</g>
<!-- EAID_FB5936C9_7F7D_4e4e_9BDB_9281387780A0_end -->
<g id="node12" class="node"><title>EAID_FB5936C9_7F7D_4e4e_9BDB_9281387780A0_end</title>
<image xlink:href="fragment_node_icon.png" width="27px" height="19px" preserveAspectRatio="xMinYMin meet" x="120.5" y="-44"/>
<text text-anchor="start" x="113.5" y="-9.8" font-family="Times New Roman,serif" font-size="14.00">alt_end</text>
</g>
<!-- EAID_46BEFB5E_3E95_41ab_9C5A_47F9E14FA8CE&#45;&gt;EAID_FB5936C9_7F7D_4e4e_9BDB_9281387780A0_end -->
<g id="edge4" class="edge"><title>EAID_46BEFB5E_3E95_41ab_9C5A_47F9E14FA8CE&#45;&gt;EAID_FB5936C9_7F7D_4e4e_9BDB_9281387780A0_end</title>
<path fill="none" stroke="black" d="M80.5,-430.864C80.5,-397.633 80.5,-336.602 80.5,-284.5 80.5,-284.5 80.5,-284.5 80.5,-196 80.5,-146.759 101.017,-92.9839 116.52,-59.3776"/>
<polygon fill="black" stroke="black" points="119.825,-60.575 120.94,-50.0389 113.498,-57.5804 119.825,-60.575"/>
</g>
<!-- EAID_051F05EC_D785_41de_B088_775A722963C3 -->
<g id="node4" class="node"><title>EAID_051F05EC_D785_41de_B088_775A722963C3</title>
<image xlink:href="activity_icon.png" width="27px" height="20px" preserveAspectRatio="xMinYMin meet" x="184.5" y="-562.5"/>
<text text-anchor="start" x="160.5" y="-527.3" font-family="Times New Roman,serif" font-size="14.00">queryCatalog</text>
</g>
<!-- EAID_588F2C6A_A8EC_44bd_93BC_B87F944A906D_start -->
<g id="node9" class="node"><title>EAID_588F2C6A_A8EC_44bd_93BC_B87F944A906D_start</title>
<image xlink:href="fragment_node_icon.png" width="27px" height="19px" preserveAspectRatio="xMinYMin meet" x="198.5" y="-475.5"/>
<text text-anchor="start" x="189.5" y="-441.3" font-family="Times New Roman,serif" font-size="14.00">alt_start</text>
</g>
<!-- EAID_051F05EC_D785_41de_B088_775A722963C3&#45;&gt;EAID_588F2C6A_A8EC_44bd_93BC_B87F944A906D_start -->
<g id="edge6" class="edge"><title>EAID_051F05EC_D785_41de_B088_775A722963C3&#45;&gt;EAID_588F2C6A_A8EC_44bd_93BC_B87F944A906D_start</title>
<path fill="none" stroke="black" d="M201.549,-517.914C202.896,-509.739 204.421,-500.48 205.865,-491.711"/>
<polygon fill="black" stroke="black" points="209.336,-492.173 207.508,-481.737 202.429,-491.035 209.336,-492.173"/>
</g>
<!-- EAID_D6B4FECC_741D_4e68_9941_D42E3A82B881 -->
<g id="node5" class="node"><title>EAID_D6B4FECC_741D_4e68_9941_D42E3A82B881</title>
<image xlink:href="out_of_scope_activity_icon.png" width="27px" height="19px" preserveAspectRatio="xMinYMin meet" x="173.5" y="-302.5"/>
<text text-anchor="start" x="119.5" y="-268.3" font-family="Times New Roman,serif" font-size="14.00">displayEmptyListNotice</text>
</g>
<!-- EAID_906FB2D6_3274_435b_B4C3_848FCF910AFF_end -->
<g id="node7" class="node"><title>EAID_906FB2D6_3274_435b_B4C3_848FCF910AFF_end</title>
<image xlink:href="fragment_node_icon.png" width="27px" height="19px" preserveAspectRatio="xMinYMin meet" x="173.5" y="-216"/>
<text text-anchor="start" x="155.5" y="-181.8" font-family="Times New Roman,serif" font-size="14.00">ignore_end</text>
</g>
<!-- EAID_D6B4FECC_741D_4e68_9941_D42E3A82B881&#45;&gt;EAID_906FB2D6_3274_435b_B4C3_848FCF910AFF_end -->
<g id="edge9" class="edge"><title>EAID_D6B4FECC_741D_4e68_9941_D42E3A82B881&#45;&gt;EAID_906FB2D6_3274_435b_B4C3_848FCF910AFF_end</title>
<path fill="none" stroke="black" d="M186.5,-258.059C186.5,-250.02 186.5,-240.927 186.5,-232.294"/>
<polygon fill="black" stroke="black" points="190,-232.094 186.5,-222.094 183,-232.094 190,-232.094"/>
</g>
<!-- EAID_906FB2D6_3274_435b_B4C3_848FCF910AFF_start -->
<g id="node6" class="node"><title>EAID_906FB2D6_3274_435b_B4C3_848FCF910AFF_start</title>
<image xlink:href="fragment_node_icon.png" width="27px" height="19px" preserveAspectRatio="xMinYMin meet" x="185.5" y="-389"/>
<text text-anchor="start" x="165.5" y="-354.8" font-family="Times New Roman,serif" font-size="14.00">ignore_start</text>
</g>
<!-- EAID_906FB2D6_3274_435b_B4C3_848FCF910AFF_start&#45;&gt;EAID_D6B4FECC_741D_4e68_9941_D42E3A82B881 -->
<g id="edge8" class="edge"><title>EAID_906FB2D6_3274_435b_B4C3_848FCF910AFF_start&#45;&gt;EAID_D6B4FECC_741D_4e68_9941_D42E3A82B881</title>
<path fill="none" stroke="black" d="M195.029,-344.559C193.875,-336.431 192.568,-327.227 191.33,-318.51"/>
<polygon fill="black" stroke="black" points="194.793,-318.003 189.922,-308.594 187.863,-318.987 194.793,-318.003"/>
</g>
<!-- EAID_588F2C6A_A8EC_44bd_93BC_B87F944A906D_end -->
<g id="node10" class="node"><title>EAID_588F2C6A_A8EC_44bd_93BC_B87F944A906D_end</title>
<image xlink:href="fragment_node_icon.png" width="27px" height="19px" preserveAspectRatio="xMinYMin meet" x="173.5" y="-130"/>
<text text-anchor="start" x="166.5" y="-95.8" font-family="Times New Roman,serif" font-size="14.00">alt_end</text>
</g>
<!-- EAID_906FB2D6_3274_435b_B4C3_848FCF910AFF_end&#45;&gt;EAID_588F2C6A_A8EC_44bd_93BC_B87F944A906D_end -->
<g id="edge10" class="edge"><title>EAID_906FB2D6_3274_435b_B4C3_848FCF910AFF_end&#45;&gt;EAID_588F2C6A_A8EC_44bd_93BC_B87F944A906D_end</title>
<path fill="none" stroke="black" d="M186.5,-171.704C186.5,-163.781 186.5,-154.829 186.5,-146.314"/>
<polygon fill="black" stroke="black" points="190,-146.242 186.5,-136.242 183,-146.242 190,-146.242"/>
</g>
<!-- EAID_AB77A551_C977_43f0_896E_CA4D0E56E12D -->
<g id="node8" class="node"><title>EAID_AB77A551_C977_43f0_896E_CA4D0E56E12D</title>
<image xlink:href="activity_icon.png" width="27px" height="20px" preserveAspectRatio="xMinYMin meet" x="322" y="-302.5"/>
<text text-anchor="start" x="292.5" y="-267.3" font-family="Times New Roman,serif" font-size="14.00">displayItemList</text>
</g>
<!-- EAID_AB77A551_C977_43f0_896E_CA4D0E56E12D&#45;&gt;EAID_588F2C6A_A8EC_44bd_93BC_B87F944A906D_end -->
<g id="edge12" class="edge"><title>EAID_AB77A551_C977_43f0_896E_CA4D0E56E12D&#45;&gt;EAID_588F2C6A_A8EC_44bd_93BC_B87F944A906D_end</title>
<path fill="none" stroke="black" d="M313.834,-257.708C287.532,-227.61 243.128,-176.799 214.32,-143.834"/>
<polygon fill="black" stroke="black" points="216.925,-141.497 207.71,-136.27 211.655,-146.103 216.925,-141.497"/>
</g>
<!-- EAID_588F2C6A_A8EC_44bd_93BC_B87F944A906D_start&#45;&gt;EAID_906FB2D6_3274_435b_B4C3_848FCF910AFF_start -->
<g id="edge7" class="edge"><title>EAID_588F2C6A_A8EC_44bd_93BC_B87F944A906D_start&#45;&gt;EAID_906FB2D6_3274_435b_B4C3_848FCF910AFF_start</title>
<path fill="none" stroke="black" d="M207.74,-431.059C206.489,-422.931 205.073,-413.727 203.732,-405.01"/>
<polygon fill="black" stroke="black" points="207.187,-404.446 202.207,-395.094 200.268,-405.51 207.187,-404.446"/>
</g>
<!-- EAID_588F2C6A_A8EC_44bd_93BC_B87F944A906D_start&#45;&gt;EAID_AB77A551_C977_43f0_896E_CA4D0E56E12D -->
<g id="edge11" class="edge"><title>EAID_588F2C6A_A8EC_44bd_93BC_B87F944A906D_start&#45;&gt;EAID_AB77A551_C977_43f0_896E_CA4D0E56E12D</title>
<path fill="none" stroke="black" d="M229.003,-431.363C250.575,-401.615 287.335,-350.921 311.521,-317.567"/>
<polygon fill="black" stroke="black" points="314.647,-319.219 317.684,-309.068 308.98,-315.109 314.647,-319.219"/>
</g>
<!-- EAID_588F2C6A_A8EC_44bd_93BC_B87F944A906D_end&#45;&gt;EAID_FB5936C9_7F7D_4e4e_9BDB_9281387780A0_end -->
<g id="edge13" class="edge"><title>EAID_588F2C6A_A8EC_44bd_93BC_B87F944A906D_end&#45;&gt;EAID_FB5936C9_7F7D_4e4e_9BDB_9281387780A0_end</title>
<path fill="none" stroke="black" d="M171.17,-85.7037C165.897,-77.3454 159.9,-67.8421 154.267,-58.9142"/>
<polygon fill="black" stroke="black" points="157.092,-56.8313 148.795,-50.2417 151.171,-60.5666 157.092,-56.8313"/>
</g>
<!-- EAID_FB5936C9_7F7D_4e4e_9BDB_9281387780A0_start&#45;&gt;EAID_46BEFB5E_3E95_41ab_9C5A_47F9E14FA8CE -->
<g id="edge3" class="edge"><title>EAID_FB5936C9_7F7D_4e4e_9BDB_9281387780A0_start&#45;&gt;EAID_46BEFB5E_3E95_41ab_9C5A_47F9E14FA8CE</title>
<path fill="none" stroke="black" d="M136.325,-604.792C125.114,-575.211 106.075,-524.979 93.3945,-491.522"/>
<polygon fill="black" stroke="black" points="96.6558,-490.251 89.8389,-482.14 90.1102,-492.732 96.6558,-490.251"/>
</g>
<!-- EAID_FB5936C9_7F7D_4e4e_9BDB_9281387780A0_start&#45;&gt;EAID_051F05EC_D785_41de_B088_775A722963C3 -->
<g id="edge5" class="edge"><title>EAID_FB5936C9_7F7D_4e4e_9BDB_9281387780A0_start&#45;&gt;EAID_051F05EC_D785_41de_B088_775A722963C3</title>
<path fill="none" stroke="black" d="M160.541,-604.559C165.67,-596.224 171.495,-586.757 176.98,-577.845"/>
<polygon fill="black" stroke="black" points="180.053,-579.53 182.313,-569.179 174.091,-575.861 180.053,-579.53"/>
</g>
</g>
</svg>
