<?xml version="1.0" encoding="UTF-8" standalone="no"?>
<!DOCTYPE svg PUBLIC "-//W3C//DTD SVG 1.1//EN"
 "http://www.w3.org/Graphics/SVG/1.1/DTD/svg11.dtd">
<!-- Generated by graphviz version 2.38.0 (20140413.2041)
 -->
<!-- Title: g Pages: 1 -->
<svg width="562pt" height="891pt"
 viewBox="0.00 0.00 562.00 891.00" xmlns="http://www.w3.org/2000/svg" xmlns:xlink="http://www.w3.org/1999/xlink">
<g id="graph0" class="graph" transform="scale(1 1) rotate(0) translate(4 887)">
<title>g</title>
<polygon fill="white" stroke="none" points="-4,4 -4,-887 558,-887 558,4 -4,4"/>
<g id="clust1" class="cluster"><title>cluster0</title>
<polygon fill="none" stroke="black" points="8,-180 8,-875 180,-875 180,-180 8,-180"/>
<text text-anchor="middle" x="94" y="-859.8" font-family="Times New Roman,serif" font-size="14.00">Transaction#1</text>
</g>
<g id="clust3" class="cluster"><title>cluster2</title>
<polygon fill="none" stroke="black" points="368,-439 368,-875 546,-875 546,-439 368,-439"/>
<text text-anchor="middle" x="457" y="-859.8" font-family="Times New Roman,serif" font-size="14.00">Transaction#3</text>
</g>
<g id="clust2" class="cluster"><title>cluster1</title>
<polygon fill="gray" stroke="black" points="188,-8 188,-875 360,-875 360,-8 188,-8"/>
<text text-anchor="middle" x="274" y="-859.8" font-family="Times New Roman,serif" font-size="14.00">Transaction#2</text>
</g>
<!-- EAID_5AFF5212_D7A0_41bd_BFBA_3FD0A111293F1 -->
<g id="node1" class="node"><title>EAID_5AFF5212_D7A0_41bd_BFBA_3FD0A111293F1</title>
<image xlink:href="Stimulus_icon.png" width="27px" height="20px" preserveAspectRatio="xMinYMin meet" x="81" y="-837.5"/>
<text text-anchor="start" x="68" y="-802.3" font-family="Times New Roman,serif" font-size="14.00">onSearch</text>
</g>
<!-- EAID_16B7023E_6AAB_4a2f_B199_F6EADF40E6E41 -->
<g id="node2" class="node"><title>EAID_16B7023E_6AAB_4a2f_B199_F6EADF40E6E41</title>
<image xlink:href="activity_icon.png" width="27px" height="20px" preserveAspectRatio="xMinYMin meet" x="81" y="-750.5"/>
<text text-anchor="start" x="27" y="-715.3" font-family="Times New Roman,serif" font-size="14.00">searchItemByKeywords</text>
</g>
<!-- EAID_5AFF5212_D7A0_41bd_BFBA_3FD0A111293F1&#45;&gt;EAID_16B7023E_6AAB_4a2f_B199_F6EADF40E6E41 -->
<g id="edge1" class="edge"><title>EAID_5AFF5212_D7A0_41bd_BFBA_3FD0A111293F1&#45;&gt;EAID_16B7023E_6AAB_4a2f_B199_F6EADF40E6E41</title>
<path fill="none" stroke="black" d="M94,-792.914C94,-784.897 94,-775.839 94,-767.222"/>
<polygon fill="black" stroke="black" points="97.5001,-767.03 94,-757.03 90.5001,-767.03 97.5001,-767.03"/>
</g>
<!-- EAID_FB5936C9_7F7D_4e4e_9BDB_9281387780A0_start1 -->
<g id="node3" class="node"><title>EAID_FB5936C9_7F7D_4e4e_9BDB_9281387780A0_start1</title>
<image xlink:href="fragment_node_icon.png" width="27px" height="19px" preserveAspectRatio="xMinYMin meet" x="81" y="-664"/>
<text text-anchor="start" x="72" y="-629.8" font-family="Times New Roman,serif" font-size="14.00">alt_start</text>
</g>
<!-- EAID_16B7023E_6AAB_4a2f_B199_F6EADF40E6E41&#45;&gt;EAID_FB5936C9_7F7D_4e4e_9BDB_9281387780A0_start1 -->
<g id="edge2" class="edge"><title>EAID_16B7023E_6AAB_4a2f_B199_F6EADF40E6E41&#45;&gt;EAID_FB5936C9_7F7D_4e4e_9BDB_9281387780A0_start1</title>
<path fill="none" stroke="black" d="M94,-705.604C94,-697.644 94,-688.689 94,-680.186"/>
<polygon fill="black" stroke="black" points="97.5001,-680.137 94,-670.137 90.5001,-680.137 97.5001,-680.137"/>
</g>
<!-- EAID_051F05EC_D785_41de_B088_775A722963C31 -->
<g id="node4" class="node"><title>EAID_051F05EC_D785_41de_B088_775A722963C31</title>
<image xlink:href="activity_icon.png" width="27px" height="20px" preserveAspectRatio="xMinYMin meet" x="81" y="-577.5"/>
<text text-anchor="start" x="57" y="-542.3" font-family="Times New Roman,serif" font-size="14.00">queryCatalog</text>
</g>
<!-- EAID_FB5936C9_7F7D_4e4e_9BDB_9281387780A0_start1&#45;&gt;EAID_051F05EC_D785_41de_B088_775A722963C31 -->
<g id="edge3" class="edge"><title>EAID_FB5936C9_7F7D_4e4e_9BDB_9281387780A0_start1&#45;&gt;EAID_051F05EC_D785_41de_B088_775A722963C31</title>
<path fill="none" stroke="black" d="M94,-619.559C94,-611.658 94,-602.74 94,-594.241"/>
<polygon fill="black" stroke="black" points="97.5001,-594.179 94,-584.179 90.5001,-594.179 97.5001,-594.179"/>
</g>
<!-- EAID_588F2C6A_A8EC_44bd_93BC_B87F944A906D_start1 -->
<g id="node5" class="node"><title>EAID_588F2C6A_A8EC_44bd_93BC_B87F944A906D_start1</title>
<image xlink:href="fragment_node_icon.png" width="27px" height="19px" preserveAspectRatio="xMinYMin meet" x="81" y="-491"/>
<text text-anchor="start" x="72" y="-456.8" font-family="Times New Roman,serif" font-size="14.00">alt_start</text>
</g>
<!-- EAID_051F05EC_D785_41de_B088_775A722963C31&#45;&gt;EAID_588F2C6A_A8EC_44bd_93BC_B87F944A906D_start1 -->
<g id="edge4" class="edge"><title>EAID_051F05EC_D785_41de_B088_775A722963C31&#45;&gt;EAID_588F2C6A_A8EC_44bd_93BC_B87F944A906D_start1</title>
<path fill="none" stroke="black" d="M94,-532.604C94,-524.644 94,-515.689 94,-507.186"/>
<polygon fill="black" stroke="black" points="97.5001,-507.137 94,-497.137 90.5001,-507.137 97.5001,-507.137"/>
</g>
<!-- EAID_AB77A551_C977_43f0_896E_CA4D0E56E12D1 -->
<g id="node6" class="node"><title>EAID_AB77A551_C977_43f0_896E_CA4D0E56E12D1</title>
<image xlink:href="activity_icon.png" width="27px" height="20px" preserveAspectRatio="xMinYMin meet" x="80.5" y="-404.5"/>
<text text-anchor="start" x="51" y="-369.3" font-family="Times New Roman,serif" font-size="14.00">displayItemList</text>
</g>
<!-- EAID_588F2C6A_A8EC_44bd_93BC_B87F944A906D_start1&#45;&gt;EAID_AB77A551_C977_43f0_896E_CA4D0E56E12D1 -->
<g id="edge5" class="edge"><title>EAID_588F2C6A_A8EC_44bd_93BC_B87F944A906D_start1&#45;&gt;EAID_AB77A551_C977_43f0_896E_CA4D0E56E12D1</title>
<path fill="none" stroke="black" d="M94,-446.559C94,-438.658 94,-429.74 94,-421.241"/>
<polygon fill="black" stroke="black" points="97.5001,-421.179 94,-411.179 90.5001,-421.179 97.5001,-421.179"/>
</g>
<!-- EAID_588F2C6A_A8EC_44bd_93BC_B87F944A906D_end1 -->
<g id="node7" class="node"><title>EAID_588F2C6A_A8EC_44bd_93BC_B87F944A906D_end1</title>
<image xlink:href="fragment_node_icon.png" width="27px" height="19px" preserveAspectRatio="xMinYMin meet" x="81" y="-318"/>
<text text-anchor="start" x="74" y="-283.8" font-family="Times New Roman,serif" font-size="14.00">alt_end</text>
</g>
<!-- EAID_AB77A551_C977_43f0_896E_CA4D0E56E12D1&#45;&gt;EAID_588F2C6A_A8EC_44bd_93BC_B87F944A906D_end1 -->
<g id="edge6" class="edge"><title>EAID_AB77A551_C977_43f0_896E_CA4D0E56E12D1&#45;&gt;EAID_588F2C6A_A8EC_44bd_93BC_B87F944A906D_end1</title>
<path fill="none" stroke="black" d="M94,-359.604C94,-351.644 94,-342.689 94,-334.186"/>
<polygon fill="black" stroke="black" points="97.5001,-334.137 94,-324.137 90.5001,-334.137 97.5001,-334.137"/>
</g>
<!-- EAID_FB5936C9_7F7D_4e4e_9BDB_9281387780A0_end1 -->
<g id="node8" class="node"><title>EAID_FB5936C9_7F7D_4e4e_9BDB_9281387780A0_end1</title>
<image xlink:href="fragment_node_icon.png" width="27px" height="19px" preserveAspectRatio="xMinYMin meet" x="81" y="-232"/>
<text text-anchor="start" x="74" y="-197.8" font-family="Times New Roman,serif" font-size="14.00">alt_end</text>
</g>
<!-- EAID_588F2C6A_A8EC_44bd_93BC_B87F944A906D_end1&#45;&gt;EAID_FB5936C9_7F7D_4e4e_9BDB_9281387780A0_end1 -->
<g id="edge7" class="edge"><title>EAID_588F2C6A_A8EC_44bd_93BC_B87F944A906D_end1&#45;&gt;EAID_FB5936C9_7F7D_4e4e_9BDB_9281387780A0_end1</title>
<path fill="none" stroke="black" d="M94,-273.704C94,-265.781 94,-256.829 94,-248.314"/>
<polygon fill="black" stroke="black" points="97.5001,-248.242 94,-238.242 90.5001,-248.242 97.5001,-248.242"/>
</g>
<!-- EAID_5AFF5212_D7A0_41bd_BFBA_3FD0A111293F2 -->
<g id="node9" class="node"><title>EAID_5AFF5212_D7A0_41bd_BFBA_3FD0A111293F2</title>
<image xlink:href="Stimulus_icon.png" width="27px" height="20px" preserveAspectRatio="xMinYMin meet" x="261" y="-837.5"/>
<text text-anchor="start" x="248" y="-802.3" font-family="Times New Roman,serif" font-size="14.00">onSearch</text>
</g>
<!-- EAID_16B7023E_6AAB_4a2f_B199_F6EADF40E6E42 -->
<g id="node10" class="node"><title>EAID_16B7023E_6AAB_4a2f_B199_F6EADF40E6E42</title>
<image xlink:href="activity_icon.png" width="27px" height="20px" preserveAspectRatio="xMinYMin meet" x="261" y="-750.5"/>
<text text-anchor="start" x="207" y="-715.3" font-family="Times New Roman,serif" font-size="14.00">searchItemByKeywords</text>
</g>
<!-- EAID_5AFF5212_D7A0_41bd_BFBA_3FD0A111293F2&#45;&gt;EAID_16B7023E_6AAB_4a2f_B199_F6EADF40E6E42 -->
<g id="edge8" class="edge"><title>EAID_5AFF5212_D7A0_41bd_BFBA_3FD0A111293F2&#45;&gt;EAID_16B7023E_6AAB_4a2f_B199_F6EADF40E6E42</title>
<path fill="none" stroke="black" d="M274,-792.914C274,-784.897 274,-775.839 274,-767.222"/>
<polygon fill="black" stroke="black" points="277.5,-767.03 274,-757.03 270.5,-767.03 277.5,-767.03"/>
</g>
<!-- EAID_FB5936C9_7F7D_4e4e_9BDB_9281387780A0_start2 -->
<g id="node11" class="node"><title>EAID_FB5936C9_7F7D_4e4e_9BDB_9281387780A0_start2</title>
<image xlink:href="fragment_node_icon.png" width="27px" height="19px" preserveAspectRatio="xMinYMin meet" x="261" y="-664"/>
<text text-anchor="start" x="252" y="-629.8" font-family="Times New Roman,serif" font-size="14.00">alt_start</text>
</g>
<!-- EAID_16B7023E_6AAB_4a2f_B199_F6EADF40E6E42&#45;&gt;EAID_FB5936C9_7F7D_4e4e_9BDB_9281387780A0_start2 -->
<g id="edge9" class="edge"><title>EAID_16B7023E_6AAB_4a2f_B199_F6EADF40E6E42&#45;&gt;EAID_FB5936C9_7F7D_4e4e_9BDB_9281387780A0_start2</title>
<path fill="none" stroke="black" d="M274,-705.604C274,-697.644 274,-688.689 274,-680.186"/>
<polygon fill="black" stroke="black" points="277.5,-680.137 274,-670.137 270.5,-680.137 277.5,-680.137"/>
</g>
<!-- EAID_051F05EC_D785_41de_B088_775A722963C32 -->
<g id="node12" class="node"><title>EAID_051F05EC_D785_41de_B088_775A722963C32</title>
<image xlink:href="activity_icon.png" width="27px" height="20px" preserveAspectRatio="xMinYMin meet" x="261" y="-577.5"/>
<text text-anchor="start" x="237" y="-542.3" font-family="Times New Roman,serif" font-size="14.00">queryCatalog</text>
</g>
<!-- EAID_FB5936C9_7F7D_4e4e_9BDB_9281387780A0_start2&#45;&gt;EAID_051F05EC_D785_41de_B088_775A722963C32 -->
<g id="edge10" class="edge"><title>EAID_FB5936C9_7F7D_4e4e_9BDB_9281387780A0_start2&#45;&gt;EAID_051F05EC_D785_41de_B088_775A722963C32</title>
<path fill="none" stroke="black" d="M274,-619.559C274,-611.658 274,-602.74 274,-594.241"/>
<polygon fill="black" stroke="black" points="277.5,-594.179 274,-584.179 270.5,-594.179 277.5,-594.179"/>
</g>
<!-- EAID_588F2C6A_A8EC_44bd_93BC_B87F944A906D_start2 -->
<g id="node13" class="node"><title>EAID_588F2C6A_A8EC_44bd_93BC_B87F944A906D_start2</title>
<image xlink:href="fragment_node_icon.png" width="27px" height="19px" preserveAspectRatio="xMinYMin meet" x="261" y="-491"/>
<text text-anchor="start" x="252" y="-456.8" font-family="Times New Roman,serif" font-size="14.00">alt_start</text>
</g>
<!-- EAID_051F05EC_D785_41de_B088_775A722963C32&#45;&gt;EAID_588F2C6A_A8EC_44bd_93BC_B87F944A906D_start2 -->
<g id="edge11" class="edge"><title>EAID_051F05EC_D785_41de_B088_775A722963C32&#45;&gt;EAID_588F2C6A_A8EC_44bd_93BC_B87F944A906D_start2</title>
<path fill="none" stroke="black" d="M274,-532.604C274,-524.644 274,-515.689 274,-507.186"/>
<polygon fill="black" stroke="black" points="277.5,-507.137 274,-497.137 270.5,-507.137 277.5,-507.137"/>
</g>
<!-- EAID_906FB2D6_3274_435b_B4C3_848FCF910AFF_start2 -->
<g id="node14" class="node"><title>EAID_906FB2D6_3274_435b_B4C3_848FCF910AFF_start2</title>
<image xlink:href="fragment_node_icon.png" width="27px" height="19px" preserveAspectRatio="xMinYMin meet" x="261" y="-404.5"/>
<text text-anchor="start" x="241" y="-370.3" font-family="Times New Roman,serif" font-size="14.00">ignore_start</text>
</g>
<!-- EAID_588F2C6A_A8EC_44bd_93BC_B87F944A906D_start2&#45;&gt;EAID_906FB2D6_3274_435b_B4C3_848FCF910AFF_start2 -->
<g id="edge12" class="edge"><title>EAID_588F2C6A_A8EC_44bd_93BC_B87F944A906D_start2&#45;&gt;EAID_906FB2D6_3274_435b_B4C3_848FCF910AFF_start2</title>
<path fill="none" stroke="black" d="M274,-446.559C274,-438.52 274,-429.427 274,-420.794"/>
<polygon fill="black" stroke="black" points="277.5,-420.594 274,-410.594 270.5,-420.594 277.5,-420.594"/>
</g>
<!-- EAID_D6B4FECC_741D_4e68_9941_D42E3A82B8812 -->
<g id="node15" class="node"><title>EAID_D6B4FECC_741D_4e68_9941_D42E3A82B8812</title>
<image xlink:href="out_of_scope_activity_icon.png" width="27px" height="19px" preserveAspectRatio="xMinYMin meet" x="261" y="-318"/>
<text text-anchor="start" x="207" y="-283.8" font-family="Times New Roman,serif" font-size="14.00">displayEmptyListNotice</text>
</g>
<!-- EAID_906FB2D6_3274_435b_B4C3_848FCF910AFF_start2&#45;&gt;EAID_D6B4FECC_741D_4e68_9941_D42E3A82B8812 -->
<g id="edge13" class="edge"><title>EAID_906FB2D6_3274_435b_B4C3_848FCF910AFF_start2&#45;&gt;EAID_D6B4FECC_741D_4e68_9941_D42E3A82B8812</title>
<path fill="none" stroke="black" d="M274,-360.059C274,-352.02 274,-342.927 274,-334.294"/>
<polygon fill="black" stroke="black" points="277.5,-334.094 274,-324.094 270.5,-334.094 277.5,-334.094"/>
</g>
<!-- EAID_906FB2D6_3274_435b_B4C3_848FCF910AFF_end2 -->
<g id="node16" class="node"><title>EAID_906FB2D6_3274_435b_B4C3_848FCF910AFF_end2</title>
<image xlink:href="fragment_node_icon.png" width="27px" height="19px" preserveAspectRatio="xMinYMin meet" x="261" y="-232"/>
<text text-anchor="start" x="243" y="-197.8" font-family="Times New Roman,serif" font-size="14.00">ignore_end</text>
</g>
<!-- EAID_D6B4FECC_741D_4e68_9941_D42E3A82B8812&#45;&gt;EAID_906FB2D6_3274_435b_B4C3_848FCF910AFF_end2 -->
<g id="edge14" class="edge"><title>EAID_D6B4FECC_741D_4e68_9941_D42E3A82B8812&#45;&gt;EAID_906FB2D6_3274_435b_B4C3_848FCF910AFF_end2</title>
<path fill="none" stroke="black" d="M274,-273.704C274,-265.781 274,-256.829 274,-248.314"/>
<polygon fill="black" stroke="black" points="277.5,-248.242 274,-238.242 270.5,-248.242 277.5,-248.242"/>
</g>
<!-- EAID_588F2C6A_A8EC_44bd_93BC_B87F944A906D_end2 -->
<g id="node17" class="node"><title>EAID_588F2C6A_A8EC_44bd_93BC_B87F944A906D_end2</title>
<image xlink:href="fragment_node_icon.png" width="27px" height="19px" preserveAspectRatio="xMinYMin meet" x="261" y="-146"/>
<text text-anchor="start" x="254" y="-111.8" font-family="Times New Roman,serif" font-size="14.00">alt_end</text>
</g>
<!-- EAID_906FB2D6_3274_435b_B4C3_848FCF910AFF_end2&#45;&gt;EAID_588F2C6A_A8EC_44bd_93BC_B87F944A906D_end2 -->
<g id="edge15" class="edge"><title>EAID_906FB2D6_3274_435b_B4C3_848FCF910AFF_end2&#45;&gt;EAID_588F2C6A_A8EC_44bd_93BC_B87F944A906D_end2</title>
<path fill="none" stroke="black" d="M274,-187.704C274,-179.781 274,-170.829 274,-162.314"/>
<polygon fill="black" stroke="black" points="277.5,-162.242 274,-152.242 270.5,-162.242 277.5,-162.242"/>
</g>
<!-- EAID_FB5936C9_7F7D_4e4e_9BDB_9281387780A0_end2 -->
<g id="node18" class="node"><title>EAID_FB5936C9_7F7D_4e4e_9BDB_9281387780A0_end2</title>
<image xlink:href="fragment_node_icon.png" width="27px" height="19px" preserveAspectRatio="xMinYMin meet" x="261" y="-60"/>
<text text-anchor="start" x="254" y="-25.8" font-family="Times New Roman,serif" font-size="14.00">alt_end</text>
</g>
<!-- EAID_588F2C6A_A8EC_44bd_93BC_B87F944A906D_end2&#45;&gt;EAID_FB5936C9_7F7D_4e4e_9BDB_9281387780A0_end2 -->
<g id="edge16" class="edge"><title>EAID_588F2C6A_A8EC_44bd_93BC_B87F944A906D_end2&#45;&gt;EAID_FB5936C9_7F7D_4e4e_9BDB_9281387780A0_end2</title>
<path fill="none" stroke="black" d="M274,-101.704C274,-93.7808 274,-84.829 274,-76.3136"/>
<polygon fill="black" stroke="black" points="277.5,-76.2416 274,-66.2417 270.5,-76.2417 277.5,-76.2416"/>
</g>
<!-- EAID_5AFF5212_D7A0_41bd_BFBA_3FD0A111293F3 -->
<g id="node19" class="node"><title>EAID_5AFF5212_D7A0_41bd_BFBA_3FD0A111293F3</title>
<image xlink:href="Stimulus_icon.png" width="27px" height="20px" preserveAspectRatio="xMinYMin meet" x="444" y="-837.5"/>
<text text-anchor="start" x="431" y="-802.3" font-family="Times New Roman,serif" font-size="14.00">onSearch</text>
</g>
<!-- EAID_16B7023E_6AAB_4a2f_B199_F6EADF40E6E43 -->
<g id="node20" class="node"><title>EAID_16B7023E_6AAB_4a2f_B199_F6EADF40E6E43</title>
<image xlink:href="activity_icon.png" width="27px" height="20px" preserveAspectRatio="xMinYMin meet" x="444" y="-750.5"/>
<text text-anchor="start" x="390" y="-715.3" font-family="Times New Roman,serif" font-size="14.00">searchItemByKeywords</text>
</g>
<!-- EAID_5AFF5212_D7A0_41bd_BFBA_3FD0A111293F3&#45;&gt;EAID_16B7023E_6AAB_4a2f_B199_F6EADF40E6E43 -->
<g id="edge17" class="edge"><title>EAID_5AFF5212_D7A0_41bd_BFBA_3FD0A111293F3&#45;&gt;EAID_16B7023E_6AAB_4a2f_B199_F6EADF40E6E43</title>
<path fill="none" stroke="black" d="M457,-792.914C457,-784.897 457,-775.839 457,-767.222"/>
<polygon fill="black" stroke="black" points="460.5,-767.03 457,-757.03 453.5,-767.03 460.5,-767.03"/>
</g>
<!-- EAID_FB5936C9_7F7D_4e4e_9BDB_9281387780A0_start3 -->
<g id="node21" class="node"><title>EAID_FB5936C9_7F7D_4e4e_9BDB_9281387780A0_start3</title>
<image xlink:href="fragment_node_icon.png" width="27px" height="19px" preserveAspectRatio="xMinYMin meet" x="444" y="-664"/>
<text text-anchor="start" x="435" y="-629.8" font-family="Times New Roman,serif" font-size="14.00">alt_start</text>
</g>
<!-- EAID_16B7023E_6AAB_4a2f_B199_F6EADF40E6E43&#45;&gt;EAID_FB5936C9_7F7D_4e4e_9BDB_9281387780A0_start3 -->
<g id="edge18" class="edge"><title>EAID_16B7023E_6AAB_4a2f_B199_F6EADF40E6E43&#45;&gt;EAID_FB5936C9_7F7D_4e4e_9BDB_9281387780A0_start3</title>
<path fill="none" stroke="black" d="M457,-705.604C457,-697.644 457,-688.689 457,-680.186"/>
<polygon fill="black" stroke="black" points="460.5,-680.137 457,-670.137 453.5,-680.137 460.5,-680.137"/>
</g>
<!-- EAID_46BEFB5E_3E95_41ab_9C5A_47F9E14FA8CE3 -->
<g id="node22" class="node"><title>EAID_46BEFB5E_3E95_41ab_9C5A_47F9E14FA8CE3</title>
<image xlink:href="activity_icon.png" width="27px" height="20px" preserveAspectRatio="xMinYMin meet" x="444" y="-577.5"/>
<text text-anchor="start" x="387" y="-542.3" font-family="Times New Roman,serif" font-size="14.00">displaySearchInvalidMsg</text>
</g>
<!-- EAID_FB5936C9_7F7D_4e4e_9BDB_9281387780A0_start3&#45;&gt;EAID_46BEFB5E_3E95_41ab_9C5A_47F9E14FA8CE3 -->
<g id="edge19" class="edge"><title>EAID_FB5936C9_7F7D_4e4e_9BDB_9281387780A0_start3&#45;&gt;EAID_46BEFB5E_3E95_41ab_9C5A_47F9E14FA8CE3</title>
<path fill="none" stroke="black" d="M457,-619.559C457,-611.658 457,-602.74 457,-594.241"/>
<polygon fill="black" stroke="black" points="460.5,-594.179 457,-584.179 453.5,-594.179 460.5,-594.179"/>
</g>
<!-- EAID_FB5936C9_7F7D_4e4e_9BDB_9281387780A0_end3 -->
<g id="node23" class="node"><title>EAID_FB5936C9_7F7D_4e4e_9BDB_9281387780A0_end3</title>
<image xlink:href="fragment_node_icon.png" width="27px" height="19px" preserveAspectRatio="xMinYMin meet" x="444" y="-491"/>
<text text-anchor="start" x="437" y="-456.8" font-family="Times New Roman,serif" font-size="14.00">alt_end</text>
</g>
<!-- EAID_46BEFB5E_3E95_41ab_9C5A_47F9E14FA8CE3&#45;&gt;EAID_FB5936C9_7F7D_4e4e_9BDB_9281387780A0_end3 -->
<g id="edge20" class="edge"><title>EAID_46BEFB5E_3E95_41ab_9C5A_47F9E14FA8CE3&#45;&gt;EAID_FB5936C9_7F7D_4e4e_9BDB_9281387780A0_end3</title>
<path fill="none" stroke="black" d="M457,-532.604C457,-524.644 457,-515.689 457,-507.186"/>
<polygon fill="black" stroke="black" points="460.5,-507.137 457,-497.137 453.5,-507.137 460.5,-507.137"/>
</g>
</g>
</svg>
