<?xml version="1.0" encoding="UTF-8" standalone="no"?>
<!DOCTYPE svg PUBLIC "-//W3C//DTD SVG 1.1//EN"
 "http://www.w3.org/Graphics/SVG/1.1/DTD/svg11.dtd">
<!-- Generated by graphviz version 2.38.0 (20140413.2041)
 -->
<!-- Title: g Pages: 1 -->
<svg width="240pt" height="952pt"
 viewBox="0.00 0.00 240.00 952.00" xmlns="http://www.w3.org/2000/svg" xmlns:xlink="http://www.w3.org/1999/xlink">
<g id="graph0" class="graph" transform="scale(1 1) rotate(0) translate(4 948)">
<title>g</title>
<polygon fill="white" stroke="none" points="-4,4 -4,-948 236,-948 236,4 -4,4"/>
<!-- b708aa30_2f23_11e9_a74e_a3634428f1ec -->
<g id="node1" class="node"><title>b708aa30_2f23_11e9_a74e_a3634428f1ec</title>
<image xlink:href="img/stimulus_icon.png" width="30px" height="20px" preserveAspectRatio="xMinYMin meet" x="101" y="-938"/>
<text text-anchor="start" x="76" y="-895.8" font-family="Times New Roman,serif" font-weight="bold" font-size="24.00">onClick</text>
</g>
<!-- b70af420_2f23_11e9_a74e_a3634428f1ec -->
<g id="node2" class="node"><title>b70af420_2f23_11e9_a74e_a3634428f1ec</title>
<image xlink:href="img/activity_icon.png" width="30px" height="20px" preserveAspectRatio="xMinYMin meet" x="101" y="-840"/>
<text text-anchor="start" x="73" y="-797.8" font-family="Times New Roman,serif" font-weight="bold" font-size="24.00">onPause</text>
</g>
<!-- b708aa30_2f23_11e9_a74e_a3634428f1ec&#45;&gt;b70af420_2f23_11e9_a74e_a3634428f1ec -->
<g id="edge1" class="edge"><title>b708aa30_2f23_11e9_a74e_a3634428f1ec&#45;&gt;b70af420_2f23_11e9_a74e_a3634428f1ec</title>
<path fill="none" stroke="black" d="M116,-881.888C116,-873.757 116,-864.827 116,-856.237"/>
<polygon fill="black" stroke="black" points="119.5,-856.005 116,-846.005 112.5,-856.005 119.5,-856.005"/>
</g>
<!-- b70eebc0_2f23_11e9_a74e_a3634428f1ec -->
<g id="node3" class="node"><title>b70eebc0_2f23_11e9_a74e_a3634428f1ec</title>
<image xlink:href="img/activity_icon.png" width="30px" height="20px" preserveAspectRatio="xMinYMin meet" x="101.5" y="-742"/>
<text text-anchor="start" x="69" y="-699.8" font-family="Times New Roman,serif" font-weight="bold" font-size="24.00">onCreate</text>
</g>
<!-- b70af420_2f23_11e9_a74e_a3634428f1ec&#45;&gt;b70eebc0_2f23_11e9_a74e_a3634428f1ec -->
<g id="edge2" class="edge"><title>b70af420_2f23_11e9_a74e_a3634428f1ec&#45;&gt;b70eebc0_2f23_11e9_a74e_a3634428f1ec</title>
<path fill="none" stroke="black" d="M116,-783.888C116,-775.757 116,-766.827 116,-758.237"/>
<polygon fill="black" stroke="black" points="119.5,-758.005 116,-748.005 112.5,-758.005 119.5,-758.005"/>
</g>
<!-- b71183d0_2f23_11e9_a74e_a3634428f1ec -->
<g id="node4" class="node"><title>b71183d0_2f23_11e9_a74e_a3634428f1ec</title>
<image xlink:href="img/activity_icon.png" width="30px" height="20px" preserveAspectRatio="xMinYMin meet" x="101.5" y="-644"/>
<text text-anchor="start" x="93" y="-601.8" font-family="Times New Roman,serif" font-weight="bold" font-size="24.00">read</text>
</g>
<!-- b70eebc0_2f23_11e9_a74e_a3634428f1ec&#45;&gt;b71183d0_2f23_11e9_a74e_a3634428f1ec -->
<g id="edge3" class="edge"><title>b70eebc0_2f23_11e9_a74e_a3634428f1ec&#45;&gt;b71183d0_2f23_11e9_a74e_a3634428f1ec</title>
<path fill="none" stroke="black" d="M116,-685.888C116,-677.757 116,-668.827 116,-660.237"/>
<polygon fill="black" stroke="black" points="119.5,-660.005 116,-650.005 112.5,-660.005 119.5,-660.005"/>
</g>
<!-- b7133180_2f23_11e9_a74e_a3634428f1ec -->
<g id="node5" class="node"><title>b7133180_2f23_11e9_a74e_a3634428f1ec</title>
<image xlink:href="img/activity_icon.png" width="30px" height="20px" preserveAspectRatio="xMinYMin meet" x="101.5" y="-546"/>
<text text-anchor="start" x="77" y="-503.8" font-family="Times New Roman,serif" font-weight="bold" font-size="24.00">onStart</text>
</g>
<!-- b71183d0_2f23_11e9_a74e_a3634428f1ec&#45;&gt;b7133180_2f23_11e9_a74e_a3634428f1ec -->
<g id="edge4" class="edge"><title>b71183d0_2f23_11e9_a74e_a3634428f1ec&#45;&gt;b7133180_2f23_11e9_a74e_a3634428f1ec</title>
<path fill="none" stroke="black" d="M116,-587.888C116,-579.757 116,-570.827 116,-562.237"/>
<polygon fill="black" stroke="black" points="119.5,-562.005 116,-552.005 112.5,-562.005 119.5,-562.005"/>
</g>
<!-- b717ec70_2f23_11e9_a74e_a3634428f1ec -->
<g id="node6" class="node"><title>b717ec70_2f23_11e9_a74e_a3634428f1ec</title>
<image xlink:href="img/activity_icon.png" width="30px" height="20px" preserveAspectRatio="xMinYMin meet" x="101" y="-448"/>
<text text-anchor="start" x="22" y="-405.8" font-family="Times New Roman,serif" font-weight="bold" font-size="24.00">restrictPercentage</text>
</g>
<!-- b7133180_2f23_11e9_a74e_a3634428f1ec&#45;&gt;b717ec70_2f23_11e9_a74e_a3634428f1ec -->
<g id="edge5" class="edge"><title>b7133180_2f23_11e9_a74e_a3634428f1ec&#45;&gt;b717ec70_2f23_11e9_a74e_a3634428f1ec</title>
<path fill="none" stroke="black" d="M116,-489.888C116,-481.757 116,-472.827 116,-464.237"/>
<polygon fill="black" stroke="black" points="119.5,-464.005 116,-454.005 112.5,-464.005 119.5,-464.005"/>
</g>
<!-- b71a5d70_2f23_11e9_a74e_a3634428f1ec -->
<g id="node7" class="node"><title>b71a5d70_2f23_11e9_a74e_a3634428f1ec</title>
<image xlink:href="img/activity_icon.png" width="30px" height="20px" preserveAspectRatio="xMinYMin meet" x="101" y="-350"/>
<text text-anchor="start" x="10" y="-307.8" font-family="Times New Roman,serif" font-weight="bold" font-size="24.00">onSaveInstanceState</text>
</g>
<!-- b717ec70_2f23_11e9_a74e_a3634428f1ec&#45;&gt;b71a5d70_2f23_11e9_a74e_a3634428f1ec -->
<g id="edge6" class="edge"><title>b717ec70_2f23_11e9_a74e_a3634428f1ec&#45;&gt;b71a5d70_2f23_11e9_a74e_a3634428f1ec</title>
<path fill="none" stroke="black" d="M116,-391.888C116,-383.757 116,-374.827 116,-366.237"/>
<polygon fill="black" stroke="black" points="119.5,-366.005 116,-356.005 112.5,-366.005 119.5,-366.005"/>
</g>
<!-- b71f3f70_2f23_11e9_a74e_a3634428f1ec -->
<g id="node8" class="node"><title>b71f3f70_2f23_11e9_a74e_a3634428f1ec</title>
<image xlink:href="img/activity_icon.png" width="30px" height="20px" preserveAspectRatio="xMinYMin meet" x="101" y="-252"/>
<text text-anchor="start" x="22" y="-209.8" font-family="Times New Roman,serif" font-weight="bold" font-size="24.00">restrictPercentage</text>
</g>
<!-- b71a5d70_2f23_11e9_a74e_a3634428f1ec&#45;&gt;b71f3f70_2f23_11e9_a74e_a3634428f1ec -->
<g id="edge7" class="edge"><title>b71a5d70_2f23_11e9_a74e_a3634428f1ec&#45;&gt;b71f3f70_2f23_11e9_a74e_a3634428f1ec</title>
<path fill="none" stroke="black" d="M116,-293.888C116,-285.757 116,-276.827 116,-268.237"/>
<polygon fill="black" stroke="black" points="119.5,-268.005 116,-258.005 112.5,-268.005 119.5,-268.005"/>
</g>
<!-- b7246f90_2f23_11e9_a74e_a3634428f1ec -->
<g id="node9" class="node"><title>b7246f90_2f23_11e9_a74e_a3634428f1ec</title>
<image xlink:href="img/activity_icon.png" width="30px" height="20px" preserveAspectRatio="xMinYMin meet" x="101.5" y="-154"/>
<text text-anchor="start" x="80" y="-111.8" font-family="Times New Roman,serif" font-weight="bold" font-size="24.00">onStop</text>
</g>
<!-- b71f3f70_2f23_11e9_a74e_a3634428f1ec&#45;&gt;b7246f90_2f23_11e9_a74e_a3634428f1ec -->
<g id="edge8" class="edge"><title>b71f3f70_2f23_11e9_a74e_a3634428f1ec&#45;&gt;b7246f90_2f23_11e9_a74e_a3634428f1ec</title>
<path fill="none" stroke="black" d="M116,-195.888C116,-187.757 116,-178.827 116,-170.237"/>
<polygon fill="black" stroke="black" points="119.5,-170.005 116,-160.005 112.5,-170.005 119.5,-170.005"/>
</g>
<!-- b72755c0_2f23_11e9_a74e_a3634428f1ec -->
<g id="node10" class="node"><title>b72755c0_2f23_11e9_a74e_a3634428f1ec</title>
<image xlink:href="img/activity_icon.png" width="30px" height="20px" preserveAspectRatio="xMinYMin meet" x="101" y="-56"/>
<text text-anchor="start" x="22" y="-13.8" font-family="Times New Roman,serif" font-weight="bold" font-size="24.00">restrictPercentage</text>
</g>
<!-- b7246f90_2f23_11e9_a74e_a3634428f1ec&#45;&gt;b72755c0_2f23_11e9_a74e_a3634428f1ec -->
<g id="edge9" class="edge"><title>b7246f90_2f23_11e9_a74e_a3634428f1ec&#45;&gt;b72755c0_2f23_11e9_a74e_a3634428f1ec</title>
<path fill="none" stroke="black" d="M116,-97.8884C116,-89.7571 116,-80.8266 116,-72.2368"/>
<polygon fill="black" stroke="black" points="119.5,-72.0047 116,-62.0048 112.5,-72.0048 119.5,-72.0047"/>
</g>
</g>
</svg>
