<?xml version="1.0" encoding="UTF-8" standalone="no"?>
<!DOCTYPE svg PUBLIC "-//W3C//DTD SVG 1.1//EN"
 "http://www.w3.org/Graphics/SVG/1.1/DTD/svg11.dtd">
<!-- Generated by graphviz version 2.38.0 (20140413.2041)
 -->
<!-- Title: g Pages: 1 -->
<svg width="2997pt" height="385pt"
 viewBox="0.00 0.00 2997.00 384.94" xmlns="http://www.w3.org/2000/svg" xmlns:xlink="http://www.w3.org/1999/xlink">
<g id="graph0" class="graph" transform="scale(1 1) rotate(0) translate(4 380.945)">
<title>g</title>
<polygon fill="white" stroke="none" points="-4,4 -4,-380.945 2993,-380.945 2993,4 -4,4"/>
<!-- EAID_D26CC072_B9C0_4c3c_B541_C18522B0C713 -->
<g id="node1" class="node"><title>EAID_D26CC072_B9C0_4c3c_B541_C18522B0C713</title>
<image xlink:href="img/actor1.png" width="61px" height="90px" preserveAspectRatio="xMinYMin meet" x="10.5" y="-155.945"/>
<text text-anchor="start" x="19" y="-42.7449" font-family="Times New Roman,serif" font-size="24.00">User</text>
</g>
<!-- EAID_8C9B33E6_214D_4837_86DA_70B65E354E48 -->
<g id="node2" class="node"><title>EAID_8C9B33E6_214D_4837_86DA_70B65E354E48</title>
<image xlink:href="img/boundary3.png" width="86px" height="67px" preserveAspectRatio="xMinYMin meet" x="127" y="-266.945"/>
<text text-anchor="start" x="132.5" y="-176.745" font-family="Times New Roman,serif" font-size="24.00">case list</text>
</g>
<!-- EAID_D26CC072_B9C0_4c3c_B541_C18522B0C713&#45;&gt;EAID_8C9B33E6_214D_4837_86DA_70B65E354E48 -->
<g id="edge1" class="edge"><title>EAID_D26CC072_B9C0_4c3c_B541_C18522B0C713&#45;&gt;EAID_8C9B33E6_214D_4837_86DA_70B65E354E48</title>
<path fill="none" stroke="black" d="M81.1429,-134.189C90.1138,-142.843 99.8316,-152.218 109.423,-161.471"/>
<polygon fill="black" stroke="black" points="107.091,-164.084 116.718,-168.509 111.951,-159.047 107.091,-164.084"/>
</g>
<!-- EAID_8CDDD6F6_6467_44fa_9E5E_0A4BE8A666B4 -->
<g id="node3" class="node"><title>EAID_8CDDD6F6_6467_44fa_9E5E_0A4BE8A666B4</title>
<image xlink:href="img/boundary3.png" width="115px" height="67px" preserveAspectRatio="xMinYMin meet" x="1016.5" y="-249.945"/>
<text text-anchor="start" x="970.5" y="-159.745" font-family="Times New Roman,serif" font-size="24.00">case information page</text>
</g>
<!-- EAID_D26CC072_B9C0_4c3c_B541_C18522B0C713&#45;&gt;EAID_8CDDD6F6_6467_44fa_9E5E_0A4BE8A666B4 -->
<g id="edge2" class="edge"><title>EAID_D26CC072_B9C0_4c3c_B541_C18522B0C713&#45;&gt;EAID_8CDDD6F6_6467_44fa_9E5E_0A4BE8A666B4</title>
<path fill="none" stroke="black" d="M81.3184,-104.331C92.7888,-106.474 105.351,-108.56 117,-109.945 473.665,-152.333 571.018,-86.5315 924,-152.945 932.529,-154.55 941.244,-156.518 949.965,-158.734"/>
<polygon fill="black" stroke="black" points="949.242,-162.163 959.805,-161.334 951.031,-155.395 949.242,-162.163"/>
</g>
<!-- EAID_C5850483_2927_499d_B25A_DA84A006F612 -->
<g id="node4" class="node"><title>EAID_C5850483_2927_499d_B25A_DA84A006F612</title>
<image xlink:href="img/boundary3.png" width="115px" height="67px" preserveAspectRatio="xMinYMin meet" x="2596.5" y="-150.945"/>
<text text-anchor="start" x="2518.5" y="-60.7449" font-family="Times New Roman,serif" font-size="24.00">invalid &#160;ifnormation message</text>
</g>
<!-- EAID_D26CC072_B9C0_4c3c_B541_C18522B0C713&#45;&gt;EAID_C5850483_2927_499d_B25A_DA84A006F612 -->
<g id="edge3" class="edge"><title>EAID_D26CC072_B9C0_4c3c_B541_C18522B0C713&#45;&gt;EAID_C5850483_2927_499d_B25A_DA84A006F612</title>
<path fill="none" stroke="black" d="M81.1614,-89.0634C147.824,-78.1129 286.663,-57.9449 405,-57.9449 405,-57.9449 405,-57.9449 1992.5,-57.9449 2165.72,-57.9449 2363.91,-73.564 2497.54,-86.3984"/>
<polygon fill="black" stroke="black" points="2497.56,-89.9165 2507.85,-87.3955 2498.23,-82.949 2497.56,-89.9165"/>
</g>
<!-- EAID_F7E8F2D9_150A_4ab9_9E52_C8BE7EA81799 -->
<g id="node5" class="node"><title>EAID_F7E8F2D9_150A_4ab9_9E52_C8BE7EA81799</title>
<image xlink:href="img/boundary3.png" width="115px" height="67px" preserveAspectRatio="xMinYMin meet" x="2854.5" y="-174.945"/>
<text text-anchor="start" x="2845" y="-84.7449" font-family="Times New Roman,serif" font-size="24.00">case info page</text>
</g>
<!-- EAID_D26CC072_B9C0_4c3c_B541_C18522B0C713&#45;&gt;EAID_F7E8F2D9_150A_4ab9_9E52_C8BE7EA81799 -->
<g id="edge4" class="edge"><title>EAID_D26CC072_B9C0_4c3c_B541_C18522B0C713&#45;&gt;EAID_F7E8F2D9_150A_4ab9_9E52_C8BE7EA81799</title>
<path fill="none" stroke="black" d="M81.3504,-78.8879C92.7112,-74.5069 105.208,-70.1355 117,-66.9449 242.191,-33.071 275.307,-19.9449 405,-19.9449 405,-19.9449 405,-19.9449 2317,-19.9449 2531.39,-19.9449 2597.81,35.1087 2799,-38.9449 2816.03,-45.215 2832.51,-55.1248 2847.34,-66.0714"/>
<polygon fill="black" stroke="black" points="2845.34,-68.946 2855.41,-72.243 2849.6,-63.3867 2845.34,-68.946"/>
</g>
<!-- EAID_9E02AC73_3A3F_42e3_AD5E_D02697D91919 -->
<g id="node6" class="node"><title>EAID_9E02AC73_3A3F_42e3_AD5E_D02697D91919</title>
<image xlink:href="img/boundary3.png" width="115px" height="67px" preserveAspectRatio="xMinYMin meet" x="1934.5" y="-281.945"/>
<text text-anchor="start" x="1869.5" y="-191.745" font-family="Times New Roman,serif" font-size="24.00"> case info page for editing</text>
</g>
<!-- EAID_D26CC072_B9C0_4c3c_B541_C18522B0C713&#45;&gt;EAID_9E02AC73_3A3F_42e3_AD5E_D02697D91919 -->
<g id="edge5" class="edge"><title>EAID_D26CC072_B9C0_4c3c_B541_C18522B0C713&#45;&gt;EAID_9E02AC73_3A3F_42e3_AD5E_D02697D91919</title>
<path fill="none" stroke="black" d="M81.0347,-95.9449C147.8,-95.9449 287.146,-95.9449 405,-95.9449 405,-95.9449 405,-95.9449 1345.5,-95.9449 1557.89,-95.9449 1621.98,-46.3753 1823,-114.945 1859.41,-127.367 1894.88,-150.445 1923.73,-172.996"/>
<polygon fill="black" stroke="black" points="1921.68,-175.841 1931.69,-179.333 1926.04,-170.366 1921.68,-175.841"/>
</g>
<!-- EAID_02C2948E_6684_49fa_9A9F_E4970CFAAB42 -->
<g id="node12" class="node"><title>EAID_02C2948E_6684_49fa_9A9F_E4970CFAAB42</title>
<image xlink:href="img/boundary3.png" width="115px" height="67px" preserveAspectRatio="xMinYMin meet" x="348.5" y="-268.945"/>
<text text-anchor="start" x="269" y="-178.745" font-family="Times New Roman,serif" font-size="24.00">send request to case database</text>
</g>
<!-- EAID_8C9B33E6_214D_4837_86DA_70B65E354E48&#45;&gt;EAID_02C2948E_6684_49fa_9A9F_E4970CFAAB42 -->
<g id="edge14" class="edge"><title>EAID_8C9B33E6_214D_4837_86DA_70B65E354E48&#45;&gt;EAID_02C2948E_6684_49fa_9A9F_E4970CFAAB42</title>
<path fill="none" stroke="black" d="M223.223,-219.391C231.15,-219.459 239.657,-219.532 248.504,-219.607"/>
<polygon fill="black" stroke="black" points="248.597,-223.108 258.626,-219.694 248.657,-216.108 248.597,-223.108"/>
</g>
<!-- EAID_A43C11EF_F4E5_4e70_8144_BEE9EE519759 -->
<g id="node9" class="node"><title>EAID_A43C11EF_F4E5_4e70_8144_BEE9EE519759</title>
<image xlink:href="img/control1.png" width="106px" height="75px" preserveAspectRatio="xMinYMin meet" x="1292" y="-253.945"/>
<text text-anchor="start" x="1233.5" y="-155.745" font-family="Times New Roman,serif" font-size="24.00">validate the role of user</text>
</g>
<!-- EAID_8CDDD6F6_6467_44fa_9E5E_0A4BE8A666B4&#45;&gt;EAID_A43C11EF_F4E5_4e70_8144_BEE9EE519759 -->
<g id="edge12" class="edge"><title>EAID_8CDDD6F6_6467_44fa_9E5E_0A4BE8A666B4&#45;&gt;EAID_A43C11EF_F4E5_4e70_8144_BEE9EE519759</title>
<path fill="none" stroke="black" d="M1187.02,-201.945C1195.51,-201.945 1204.11,-201.945 1212.7,-201.945"/>
<polygon fill="black" stroke="black" points="1212.76,-205.445 1222.76,-201.945 1212.76,-198.445 1212.76,-205.445"/>
</g>
<!-- EAID_01E9390B_DAFE_4024_A614_2032EBA6F58B -->
<g id="node7" class="node"><title>EAID_01E9390B_DAFE_4024_A614_2032EBA6F58B</title>
<image xlink:href="img/control1.png" width="106px" height="75px" preserveAspectRatio="xMinYMin meet" x="2263" y="-285.945"/>
<text text-anchor="start" x="2170" y="-187.745" font-family="Times New Roman,serif" font-size="24.00">validate case input information</text>
</g>
<!-- EAID_9E02AC73_3A3F_42e3_AD5E_D02697D91919&#45;&gt;EAID_01E9390B_DAFE_4024_A614_2032EBA6F58B -->
<g id="edge6" class="edge"><title>EAID_9E02AC73_3A3F_42e3_AD5E_D02697D91919&#45;&gt;EAID_01E9390B_DAFE_4024_A614_2032EBA6F58B</title>
<path fill="none" stroke="black" d="M2124.14,-233.945C2132.59,-233.945 2141.15,-233.945 2149.73,-233.945"/>
<polygon fill="black" stroke="black" points="2149.8,-237.445 2159.8,-233.945 2149.8,-230.445 2149.8,-237.445"/>
</g>
<!-- EAID_01E9390B_DAFE_4024_A614_2032EBA6F58B&#45;&gt;EAID_C5850483_2927_499d_B25A_DA84A006F612 -->
<g id="edge16" class="edge"><title>EAID_01E9390B_DAFE_4024_A614_2032EBA6F58B&#45;&gt;EAID_C5850483_2927_499d_B25A_DA84A006F612</title>
<path fill="none" stroke="black" d="M2467.09,-175.342C2479.06,-170.665 2491.16,-165.941 2503.13,-161.266"/>
<polygon fill="black" stroke="black" points="2504.66,-164.427 2512.7,-157.53 2502.12,-157.907 2504.66,-164.427"/>
</g>
<!-- EAID_0C58D363_4B9E_483a_AD1F_DC7491896878 -->
<g id="node11" class="node"><title>EAID_0C58D363_4B9E_483a_AD1F_DC7491896878</title>
<image xlink:href="img/control1.png" width="106px" height="75px" preserveAspectRatio="xMinYMin meet" x="2600.5" y="-285.945"/>
<text text-anchor="start" x="2533.5" y="-187.745" font-family="Times New Roman,serif" font-size="24.00">redirect to new case page</text>
</g>
<!-- EAID_01E9390B_DAFE_4024_A614_2032EBA6F58B&#45;&gt;EAID_0C58D363_4B9E_483a_AD1F_DC7491896878 -->
<g id="edge17" class="edge"><title>EAID_01E9390B_DAFE_4024_A614_2032EBA6F58B&#45;&gt;EAID_0C58D363_4B9E_483a_AD1F_DC7491896878</title>
<path fill="none" stroke="black" d="M2472.47,-233.945C2486.06,-233.945 2499.76,-233.945 2513.21,-233.945"/>
<polygon fill="black" stroke="black" points="2513.44,-237.445 2523.44,-233.945 2513.44,-230.445 2513.44,-237.445"/>
</g>
<!-- EAID_441A9F39_26A0_49af_9FFD_C65AAE360A63 -->
<g id="node13" class="node"><title>EAID_441A9F39_26A0_49af_9FFD_C65AAE360A63</title>
<image xlink:href="img/activity_icon.png" width="30px" height="20px" preserveAspectRatio="xMinYMin meet" x="2638.5" y="-370.945"/>
<text text-anchor="start" x="2518.5" y="-328.745" font-family="Times New Roman,serif" font-weight="bold" font-size="24.00">case information database</text>
</g>
<!-- EAID_01E9390B_DAFE_4024_A614_2032EBA6F58B&#45;&gt;EAID_441A9F39_26A0_49af_9FFD_C65AAE360A63 -->
<g id="edge11" class="edge"><title>EAID_01E9390B_DAFE_4024_A614_2032EBA6F58B&#45;&gt;EAID_441A9F39_26A0_49af_9FFD_C65AAE360A63</title>
<path fill="none" stroke="black" d="M2472.11,-289.846C2484.23,-294.007 2496.3,-298.084 2508,-301.945 2518.01,-305.249 2528.44,-308.6 2538.91,-311.902"/>
<polygon fill="black" stroke="black" points="2537.93,-315.264 2548.52,-314.918 2540.03,-308.585 2537.93,-315.264"/>
</g>
<!-- EAID_AF5636E5_0545_48dd_B857_BB106263FDD6 -->
<g id="node8" class="node"><title>EAID_AF5636E5_0545_48dd_B857_BB106263FDD6</title>
<image xlink:href="img/control1.png" width="106px" height="75px" preserveAspectRatio="xMinYMin meet" x="1610" y="-314.945"/>
<text text-anchor="start" x="1512.5" y="-216.745" font-family="Times New Roman,serif" font-size="24.00">return case info page for editing</text>
</g>
<!-- EAID_AF5636E5_0545_48dd_B857_BB106263FDD6&#45;&gt;EAID_9E02AC73_3A3F_42e3_AD5E_D02697D91919 -->
<g id="edge7" class="edge"><title>EAID_AF5636E5_0545_48dd_B857_BB106263FDD6&#45;&gt;EAID_9E02AC73_3A3F_42e3_AD5E_D02697D91919</title>
<path fill="none" stroke="black" d="M1823.17,-248.785C1831.79,-248.02 1840.43,-247.254 1848.98,-246.495"/>
<polygon fill="black" stroke="black" points="1849.33,-249.978 1858.98,-245.608 1848.71,-243.006 1849.33,-249.978"/>
</g>
<!-- EAID_A43C11EF_F4E5_4e70_8144_BEE9EE519759&#45;&gt;EAID_AF5636E5_0545_48dd_B857_BB106263FDD6 -->
<g id="edge18" class="edge"><title>EAID_A43C11EF_F4E5_4e70_8144_BEE9EE519759&#45;&gt;EAID_AF5636E5_0545_48dd_B857_BB106263FDD6</title>
<path fill="none" stroke="black" d="M1466.32,-225.268C1474.71,-226.887 1483.25,-228.536 1491.83,-230.193"/>
<polygon fill="black" stroke="black" points="1491.44,-233.682 1501.93,-232.141 1492.77,-226.809 1491.44,-233.682"/>
</g>
<!-- EAID_72381D4D_7B65_48ed_B7C6_3152DC83B8E0 -->
<g id="node10" class="node"><title>EAID_72381D4D_7B65_48ed_B7C6_3152DC83B8E0</title>
<image xlink:href="img/activity_icon.png" width="30px" height="20px" preserveAspectRatio="xMinYMin meet" x="1648" y="-179.945"/>
<text text-anchor="start" x="1615.5" y="-137.745" font-family="Times New Roman,serif" font-weight="bold" font-size="24.00">User info</text>
</g>
<!-- EAID_A43C11EF_F4E5_4e70_8144_BEE9EE519759&#45;&gt;EAID_72381D4D_7B65_48ed_B7C6_3152DC83B8E0 -->
<g id="edge8" class="edge"><title>EAID_A43C11EF_F4E5_4e70_8144_BEE9EE519759&#45;&gt;EAID_72381D4D_7B65_48ed_B7C6_3152DC83B8E0</title>
<path fill="none" stroke="black" d="M1466.32,-183.975C1509.8,-177.508 1557.26,-170.449 1594.49,-164.911"/>
<polygon fill="black" stroke="black" points="1595.33,-168.325 1604.71,-163.392 1594.3,-161.401 1595.33,-168.325"/>
</g>
<!-- EAID_0C58D363_4B9E_483a_AD1F_DC7491896878&#45;&gt;EAID_F7E8F2D9_150A_4ab9_9E52_C8BE7EA81799 -->
<g id="edge9" class="edge"><title>EAID_0C58D363_4B9E_483a_AD1F_DC7491896878&#45;&gt;EAID_F7E8F2D9_150A_4ab9_9E52_C8BE7EA81799</title>
<path fill="none" stroke="black" d="M2783.5,-180.131C2797.79,-174.169 2812.07,-168.213 2825.63,-162.557"/>
<polygon fill="black" stroke="black" points="2827.01,-165.774 2834.89,-158.694 2824.32,-159.314 2827.01,-165.774"/>
</g>
<!-- EAID_02C2948E_6684_49fa_9A9F_E4970CFAAB42&#45;&gt;EAID_441A9F39_26A0_49af_9FFD_C65AAE360A63 -->
<g id="edge10" class="edge"><title>EAID_02C2948E_6684_49fa_9A9F_E4970CFAAB42&#45;&gt;EAID_441A9F39_26A0_49af_9FFD_C65AAE360A63</title>
<path fill="none" stroke="black" d="M545.364,-275.518C559.959,-280.179 574.692,-284.441 589,-287.945 799.432,-339.471 855.852,-349.945 1072.5,-349.945 1072.5,-349.945 1072.5,-349.945 1992.5,-349.945 2165.6,-349.945 2364.23,-348.552 2497.98,-347.41"/>
<polygon fill="black" stroke="black" points="2498.33,-350.907 2508.3,-347.321 2498.27,-343.908 2498.33,-350.907"/>
</g>
<!-- EAID_C8727AB8_47E5_49e2_88C4_C6B25E2B16CB -->
<g id="node14" class="node"><title>EAID_C8727AB8_47E5_49e2_88C4_C6B25E2B16CB</title>
<image xlink:href="img/control1.png" width="106px" height="75px" preserveAspectRatio="xMinYMin meet" x="704" y="-272.945"/>
<text text-anchor="start" x="599.5" y="-174.745" font-family="Times New Roman,serif" font-size="24.00">display case information list page</text>
</g>
<!-- EAID_02C2948E_6684_49fa_9A9F_E4970CFAAB42&#45;&gt;EAID_C8727AB8_47E5_49e2_88C4_C6B25E2B16CB -->
<g id="edge15" class="edge"><title>EAID_02C2948E_6684_49fa_9A9F_E4970CFAAB42&#45;&gt;EAID_C8727AB8_47E5_49e2_88C4_C6B25E2B16CB</title>
<path fill="none" stroke="black" d="M553.028,-220.945C561.536,-220.945 570.135,-220.945 578.743,-220.945"/>
<polygon fill="black" stroke="black" points="578.846,-224.445 588.846,-220.945 578.846,-217.445 578.846,-224.445"/>
</g>
<!-- EAID_C8727AB8_47E5_49e2_88C4_C6B25E2B16CB&#45;&gt;EAID_8CDDD6F6_6467_44fa_9E5E_0A4BE8A666B4 -->
<g id="edge13" class="edge"><title>EAID_C8727AB8_47E5_49e2_88C4_C6B25E2B16CB&#45;&gt;EAID_8CDDD6F6_6467_44fa_9E5E_0A4BE8A666B4</title>
<path fill="none" stroke="black" d="M924.224,-210.889C932.722,-210.376 941.184,-209.866 949.511,-209.363"/>
<polygon fill="black" stroke="black" points="949.823,-212.851 959.595,-208.755 949.402,-205.864 949.823,-212.851"/>
</g>
</g>
</svg>
