<?xml version="1.0" encoding="UTF-8" standalone="no"?>
<!DOCTYPE svg PUBLIC "-//W3C//DTD SVG 1.1//EN"
 "http://www.w3.org/Graphics/SVG/1.1/DTD/svg11.dtd">
<!-- Generated by graphviz version 2.38.0 (20140413.2041)
 -->
<!-- Title: g Pages: 1 -->
<svg width="1793pt" height="1142pt"
 viewBox="0.00 0.00 1793.00 1142.00" xmlns="http://www.w3.org/2000/svg" xmlns:xlink="http://www.w3.org/1999/xlink">
<g id="graph0" class="graph" transform="scale(1 1) rotate(0) translate(4 1138)">
<title>g</title>
<polygon fill="white" stroke="none" points="-4,4 -4,-1138 1789,-1138 1789,4 -4,4"/>
<!-- 8d1519c0&#45;c22c&#45;11e8&#45;85d4&#45;8d5fd32403be -->
<g id="node1" class="node"><title>8d1519c0&#45;c22c&#45;11e8&#45;85d4&#45;8d5fd32403be</title>
<polygon fill="none" stroke="black" points="419,-486 0,-486 0,-450 419,-450 419,-486"/>
<text text-anchor="middle" x="209.5" y="-461.8" font-family="Times New Roman,serif" font-size="24.00">8d1519c0&#45;c22c&#45;11e8&#45;85d4&#45;8d5fd32403be</text>
</g>
<!-- a8eacd70&#45;c22c&#45;11e8&#45;85d4&#45;8d5fd32403be -->
<g id="node2" class="node"><title>a8eacd70&#45;c22c&#45;11e8&#45;85d4&#45;8d5fd32403be</title>
<polygon fill="none" stroke="black" points="872,-486 458,-486 458,-450 872,-450 872,-486"/>
<text text-anchor="middle" x="665" y="-461.8" font-family="Times New Roman,serif" font-size="24.00">a8eacd70&#45;c22c&#45;11e8&#45;85d4&#45;8d5fd32403be</text>
</g>
<!-- 8d1519c0&#45;c22c&#45;11e8&#45;85d4&#45;8d5fd32403be&#45;&gt;a8eacd70&#45;c22c&#45;11e8&#45;85d4&#45;8d5fd32403be -->
<g id="edge1" class="edge"><title>8d1519c0&#45;c22c&#45;11e8&#45;85d4&#45;8d5fd32403be&#45;&gt;a8eacd70&#45;c22c&#45;11e8&#45;85d4&#45;8d5fd32403be</title>
<path fill="none" stroke="black" d="M419.33,-468C428.72,-468 438.15,-468 447.557,-468"/>
<polygon fill="black" stroke="black" points="447.752,-471.5 457.752,-468 447.752,-464.5 447.752,-471.5"/>
</g>
<!-- a8eacd70&#45;c22c&#45;11e8&#45;85d4&#45;8d5fd32403be&#45;&gt;a8eacd70&#45;c22c&#45;11e8&#45;85d4&#45;8d5fd32403be -->
<g id="edge7" class="edge"><title>a8eacd70&#45;c22c&#45;11e8&#45;85d4&#45;8d5fd32403be&#45;&gt;a8eacd70&#45;c22c&#45;11e8&#45;85d4&#45;8d5fd32403be</title>
<path fill="none" stroke="black" d="M582.868,-486.153C570.232,-495.539 597.609,-504 665,-504 707.119,-504 733.608,-500.695 744.467,-495.925"/>
<polygon fill="black" stroke="black" points="747.877,-496.721 747.132,-486.153 741.124,-494.879 747.877,-496.721"/>
</g>
<!-- b00ef540&#45;c22c&#45;11e8&#45;85d4&#45;8d5fd32403be -->
<g id="node5" class="node"><title>b00ef540&#45;c22c&#45;11e8&#45;85d4&#45;8d5fd32403be</title>
<polygon fill="none" stroke="black" points="1327.5,-288 913.5,-288 913.5,-252 1327.5,-252 1327.5,-288"/>
<text text-anchor="middle" x="1120.5" y="-263.8" font-family="Times New Roman,serif" font-size="24.00">b00ef540&#45;c22c&#45;11e8&#45;85d4&#45;8d5fd32403be</text>
</g>
<!-- a8eacd70&#45;c22c&#45;11e8&#45;85d4&#45;8d5fd32403be&#45;&gt;b00ef540&#45;c22c&#45;11e8&#45;85d4&#45;8d5fd32403be -->
<g id="edge8" class="edge"><title>a8eacd70&#45;c22c&#45;11e8&#45;85d4&#45;8d5fd32403be&#45;&gt;b00ef540&#45;c22c&#45;11e8&#45;85d4&#45;8d5fd32403be</title>
<path fill="none" stroke="black" d="M848.032,-449.943C857.259,-447.334 866.3,-444.368 875,-441 963.719,-406.651 1050.98,-333.573 1093.22,-295.016"/>
<polygon fill="black" stroke="black" points="1095.83,-297.365 1100.81,-288.011 1091.09,-292.22 1095.83,-297.365"/>
</g>
<!-- a6fb5980&#45;c22c&#45;11e8&#45;85d4&#45;8d5fd32403be -->
<g id="node3" class="node"><title>a6fb5980&#45;c22c&#45;11e8&#45;85d4&#45;8d5fd32403be</title>
<polygon fill="none" stroke="black" points="872,-558 458,-558 458,-522 872,-522 872,-558"/>
<text text-anchor="middle" x="665" y="-533.8" font-family="Times New Roman,serif" font-size="24.00">a6fb5980&#45;c22c&#45;11e8&#45;85d4&#45;8d5fd32403be</text>
</g>
<!-- a6fb5980&#45;c22c&#45;11e8&#45;85d4&#45;8d5fd32403be&#45;&gt;a6fb5980&#45;c22c&#45;11e8&#45;85d4&#45;8d5fd32403be -->
<g id="edge3" class="edge"><title>a6fb5980&#45;c22c&#45;11e8&#45;85d4&#45;8d5fd32403be&#45;&gt;a6fb5980&#45;c22c&#45;11e8&#45;85d4&#45;8d5fd32403be</title>
<path fill="none" stroke="black" d="M582.868,-558.153C570.232,-567.539 597.609,-576 665,-576 707.119,-576 733.608,-572.695 744.467,-567.925"/>
<polygon fill="black" stroke="black" points="747.877,-568.721 747.132,-558.153 741.124,-566.879 747.877,-568.721"/>
</g>
<!-- b25cb5d0&#45;c22c&#45;11e8&#45;85d4&#45;8d5fd32403be -->
<g id="node4" class="node"><title>b25cb5d0&#45;c22c&#45;11e8&#45;85d4&#45;8d5fd32403be</title>
<polygon fill="none" stroke="black" points="1330,-594 911,-594 911,-558 1330,-558 1330,-594"/>
<text text-anchor="middle" x="1120.5" y="-569.8" font-family="Times New Roman,serif" font-size="24.00">b25cb5d0&#45;c22c&#45;11e8&#45;85d4&#45;8d5fd32403be</text>
</g>
<!-- a6fb5980&#45;c22c&#45;11e8&#45;85d4&#45;8d5fd32403be&#45;&gt;b25cb5d0&#45;c22c&#45;11e8&#45;85d4&#45;8d5fd32403be -->
<g id="edge2" class="edge"><title>a6fb5980&#45;c22c&#45;11e8&#45;85d4&#45;8d5fd32403be&#45;&gt;b25cb5d0&#45;c22c&#45;11e8&#45;85d4&#45;8d5fd32403be</title>
<path fill="none" stroke="black" d="M872.182,-556.367C881.733,-557.125 891.333,-557.888 900.914,-558.648"/>
<polygon fill="black" stroke="black" points="900.643,-562.137 910.888,-559.44 901.197,-555.159 900.643,-562.137"/>
</g>
<!-- a6fb5980&#45;c22c&#45;11e8&#45;85d4&#45;8d5fd32403be&#45;&gt;b00ef540&#45;c22c&#45;11e8&#45;85d4&#45;8d5fd32403be -->
<g id="edge4" class="edge"><title>a6fb5980&#45;c22c&#45;11e8&#45;85d4&#45;8d5fd32403be&#45;&gt;b00ef540&#45;c22c&#45;11e8&#45;85d4&#45;8d5fd32403be</title>
<path fill="none" stroke="black" d="M853.831,-521.962C861.096,-519.314 868.182,-516.339 875,-513 979.411,-461.867 1066.15,-348.41 1101.92,-296.661"/>
<polygon fill="black" stroke="black" points="1104.86,-298.556 1107.6,-288.323 1099.08,-294.611 1104.86,-298.556"/>
</g>
<!-- a61650b0&#45;c22c&#45;11e8&#45;85d4&#45;8d5fd32403be -->
<g id="node20" class="node"><title>a61650b0&#45;c22c&#45;11e8&#45;85d4&#45;8d5fd32403be</title>
<polygon fill="none" stroke="black" points="1785,-288 1366,-288 1366,-252 1785,-252 1785,-288"/>
<text text-anchor="middle" x="1575.5" y="-263.8" font-family="Times New Roman,serif" font-size="24.00">a61650b0&#45;c22c&#45;11e8&#45;85d4&#45;8d5fd32403be</text>
</g>
<!-- b00ef540&#45;c22c&#45;11e8&#45;85d4&#45;8d5fd32403be&#45;&gt;a61650b0&#45;c22c&#45;11e8&#45;85d4&#45;8d5fd32403be -->
<g id="edge24" class="edge"><title>b00ef540&#45;c22c&#45;11e8&#45;85d4&#45;8d5fd32403be&#45;&gt;a61650b0&#45;c22c&#45;11e8&#45;85d4&#45;8d5fd32403be</title>
<path fill="none" stroke="black" d="M1327.78,-270C1337.05,-270 1346.35,-270 1355.64,-270"/>
<polygon fill="black" stroke="black" points="1355.71,-273.5 1365.71,-270 1355.71,-266.5 1355.71,-273.5"/>
</g>
<!-- a799e370&#45;c22c&#45;11e8&#45;85d4&#45;8d5fd32403be -->
<g id="node6" class="node"><title>a799e370&#45;c22c&#45;11e8&#45;85d4&#45;8d5fd32403be</title>
<polygon fill="none" stroke="black" points="873.5,-414 456.5,-414 456.5,-378 873.5,-378 873.5,-414"/>
<text text-anchor="middle" x="665" y="-389.8" font-family="Times New Roman,serif" font-size="24.00">a799e370&#45;c22c&#45;11e8&#45;85d4&#45;8d5fd32403be</text>
</g>
<!-- a799e370&#45;c22c&#45;11e8&#45;85d4&#45;8d5fd32403be&#45;&gt;b00ef540&#45;c22c&#45;11e8&#45;85d4&#45;8d5fd32403be -->
<g id="edge6" class="edge"><title>a799e370&#45;c22c&#45;11e8&#45;85d4&#45;8d5fd32403be&#45;&gt;b00ef540&#45;c22c&#45;11e8&#45;85d4&#45;8d5fd32403be</title>
<path fill="none" stroke="black" d="M834.977,-377.965C848.601,-375.361 862.083,-372.389 875,-369 946.843,-350.149 1025.79,-315.448 1074.01,-292.546"/>
<polygon fill="black" stroke="black" points="1075.72,-295.606 1083.23,-288.131 1072.7,-289.292 1075.72,-295.606"/>
</g>
<!-- a799e370&#45;c22c&#45;11e8&#45;85d4&#45;8d5fd32403be&#45;&gt;a799e370&#45;c22c&#45;11e8&#45;85d4&#45;8d5fd32403be -->
<g id="edge5" class="edge"><title>a799e370&#45;c22c&#45;11e8&#45;85d4&#45;8d5fd32403be&#45;&gt;a799e370&#45;c22c&#45;11e8&#45;85d4&#45;8d5fd32403be</title>
<path fill="none" stroke="black" d="M582.868,-414.153C570.232,-423.539 597.609,-432 665,-432 707.119,-432 733.608,-428.695 744.467,-423.925"/>
<polygon fill="black" stroke="black" points="747.877,-424.721 747.132,-414.153 741.124,-422.879 747.877,-424.721"/>
</g>
<!-- a957e720&#45;c22c&#45;11e8&#45;85d4&#45;8d5fd32403be -->
<g id="node7" class="node"><title>a957e720&#45;c22c&#45;11e8&#45;85d4&#45;8d5fd32403be</title>
<polygon fill="none" stroke="black" points="418,-702 1,-702 1,-666 418,-666 418,-702"/>
<text text-anchor="middle" x="209.5" y="-677.8" font-family="Times New Roman,serif" font-size="24.00">a957e720&#45;c22c&#45;11e8&#45;85d4&#45;8d5fd32403be</text>
</g>
<!-- acb2aae0&#45;c22c&#45;11e8&#45;85d4&#45;8d5fd32403be -->
<g id="node8" class="node"><title>acb2aae0&#45;c22c&#45;11e8&#45;85d4&#45;8d5fd32403be</title>
<polygon fill="none" stroke="black" points="871.5,-702 458.5,-702 458.5,-666 871.5,-666 871.5,-702"/>
<text text-anchor="middle" x="665" y="-677.8" font-family="Times New Roman,serif" font-size="24.00">acb2aae0&#45;c22c&#45;11e8&#45;85d4&#45;8d5fd32403be</text>
</g>
<!-- a957e720&#45;c22c&#45;11e8&#45;85d4&#45;8d5fd32403be&#45;&gt;acb2aae0&#45;c22c&#45;11e8&#45;85d4&#45;8d5fd32403be -->
<g id="edge9" class="edge"><title>a957e720&#45;c22c&#45;11e8&#45;85d4&#45;8d5fd32403be&#45;&gt;acb2aae0&#45;c22c&#45;11e8&#45;85d4&#45;8d5fd32403be</title>
<path fill="none" stroke="black" d="M418.006,-684C428.064,-684 438.172,-684 448.252,-684"/>
<polygon fill="black" stroke="black" points="448.319,-687.5 458.319,-684 448.319,-680.5 448.319,-687.5"/>
</g>
<!-- aa25e580&#45;c22c&#45;11e8&#45;85d4&#45;8d5fd32403be -->
<g id="node9" class="node"><title>aa25e580&#45;c22c&#45;11e8&#45;85d4&#45;8d5fd32403be</title>
<polygon fill="none" stroke="black" points="873,-342 457,-342 457,-306 873,-306 873,-342"/>
<text text-anchor="middle" x="665" y="-317.8" font-family="Times New Roman,serif" font-size="24.00">aa25e580&#45;c22c&#45;11e8&#45;85d4&#45;8d5fd32403be</text>
</g>
<!-- aa25e580&#45;c22c&#45;11e8&#45;85d4&#45;8d5fd32403be&#45;&gt;b00ef540&#45;c22c&#45;11e8&#45;85d4&#45;8d5fd32403be -->
<g id="edge11" class="edge"><title>aa25e580&#45;c22c&#45;11e8&#45;85d4&#45;8d5fd32403be&#45;&gt;b00ef540&#45;c22c&#45;11e8&#45;85d4&#45;8d5fd32403be</title>
<path fill="none" stroke="black" d="M817.324,-305.981C862.558,-300.595 912.312,-294.671 958.164,-289.211"/>
<polygon fill="black" stroke="black" points="958.674,-292.675 968.19,-288.017 957.847,-285.724 958.674,-292.675"/>
</g>
<!-- aa25e580&#45;c22c&#45;11e8&#45;85d4&#45;8d5fd32403be&#45;&gt;aa25e580&#45;c22c&#45;11e8&#45;85d4&#45;8d5fd32403be -->
<g id="edge10" class="edge"><title>aa25e580&#45;c22c&#45;11e8&#45;85d4&#45;8d5fd32403be&#45;&gt;aa25e580&#45;c22c&#45;11e8&#45;85d4&#45;8d5fd32403be</title>
<path fill="none" stroke="black" d="M582.868,-342.153C570.232,-351.539 597.609,-360 665,-360 707.119,-360 733.608,-356.695 744.467,-351.925"/>
<polygon fill="black" stroke="black" points="747.877,-352.721 747.132,-342.153 741.124,-350.879 747.877,-352.721"/>
</g>
<!-- aa33ef40&#45;c22c&#45;11e8&#45;85d4&#45;8d5fd32403be -->
<g id="node10" class="node"><title>aa33ef40&#45;c22c&#45;11e8&#45;85d4&#45;8d5fd32403be</title>
<polygon fill="none" stroke="black" points="870.5,-288 459.5,-288 459.5,-252 870.5,-252 870.5,-288"/>
<text text-anchor="middle" x="665" y="-263.8" font-family="Times New Roman,serif" font-size="24.00">aa33ef40&#45;c22c&#45;11e8&#45;85d4&#45;8d5fd32403be</text>
</g>
<!-- aa33ef40&#45;c22c&#45;11e8&#45;85d4&#45;8d5fd32403be&#45;&gt;b00ef540&#45;c22c&#45;11e8&#45;85d4&#45;8d5fd32403be -->
<g id="edge12" class="edge"><title>aa33ef40&#45;c22c&#45;11e8&#45;85d4&#45;8d5fd32403be&#45;&gt;b00ef540&#45;c22c&#45;11e8&#45;85d4&#45;8d5fd32403be</title>
<path fill="none" stroke="black" d="M870.527,-270C881.409,-270 892.359,-270 903.277,-270"/>
<polygon fill="black" stroke="black" points="903.291,-273.5 913.291,-270 903.291,-266.5 903.291,-273.5"/>
</g>
<!-- aaa8aa10&#45;c22c&#45;11e8&#45;85d4&#45;8d5fd32403be -->
<g id="node11" class="node"><title>aaa8aa10&#45;c22c&#45;11e8&#45;85d4&#45;8d5fd32403be</title>
<polygon fill="none" stroke="black" points="416,-756 3,-756 3,-720 416,-720 416,-756"/>
<text text-anchor="middle" x="209.5" y="-731.8" font-family="Times New Roman,serif" font-size="24.00">aaa8aa10&#45;c22c&#45;11e8&#45;85d4&#45;8d5fd32403be</text>
</g>
<!-- aaa8aa10&#45;c22c&#45;11e8&#45;85d4&#45;8d5fd32403be&#45;&gt;aaa8aa10&#45;c22c&#45;11e8&#45;85d4&#45;8d5fd32403be -->
<g id="edge13" class="edge"><title>aaa8aa10&#45;c22c&#45;11e8&#45;85d4&#45;8d5fd32403be&#45;&gt;aaa8aa10&#45;c22c&#45;11e8&#45;85d4&#45;8d5fd32403be</title>
<path fill="none" stroke="black" d="M127.368,-756.153C114.732,-765.539 142.109,-774 209.5,-774 251.619,-774 278.108,-770.695 288.967,-765.925"/>
<polygon fill="black" stroke="black" points="292.377,-766.721 291.632,-756.153 285.624,-764.879 292.377,-766.721"/>
</g>
<!-- ab399f70&#45;c22c&#45;11e8&#45;85d4&#45;8d5fd32403be -->
<g id="node12" class="node"><title>ab399f70&#45;c22c&#45;11e8&#45;85d4&#45;8d5fd32403be</title>
<polygon fill="none" stroke="black" points="872,-630 458,-630 458,-594 872,-594 872,-630"/>
<text text-anchor="middle" x="665" y="-605.8" font-family="Times New Roman,serif" font-size="24.00">ab399f70&#45;c22c&#45;11e8&#45;85d4&#45;8d5fd32403be</text>
</g>
<!-- ab399f70&#45;c22c&#45;11e8&#45;85d4&#45;8d5fd32403be&#45;&gt;b25cb5d0&#45;c22c&#45;11e8&#45;85d4&#45;8d5fd32403be -->
<g id="edge14" class="edge"><title>ab399f70&#45;c22c&#45;11e8&#45;85d4&#45;8d5fd32403be&#45;&gt;b25cb5d0&#45;c22c&#45;11e8&#45;85d4&#45;8d5fd32403be</title>
<path fill="none" stroke="black" d="M872.182,-595.633C881.733,-594.875 891.333,-594.112 900.914,-593.352"/>
<polygon fill="black" stroke="black" points="901.197,-596.841 910.888,-592.56 900.643,-589.863 901.197,-596.841"/>
</g>
<!-- ab399f70&#45;c22c&#45;11e8&#45;85d4&#45;8d5fd32403be&#45;&gt;ab399f70&#45;c22c&#45;11e8&#45;85d4&#45;8d5fd32403be -->
<g id="edge15" class="edge"><title>ab399f70&#45;c22c&#45;11e8&#45;85d4&#45;8d5fd32403be&#45;&gt;ab399f70&#45;c22c&#45;11e8&#45;85d4&#45;8d5fd32403be</title>
<path fill="none" stroke="black" d="M582.868,-630.153C570.232,-639.539 597.609,-648 665,-648 707.119,-648 733.608,-644.695 744.467,-639.925"/>
<polygon fill="black" stroke="black" points="747.877,-640.721 747.132,-630.153 741.124,-638.879 747.877,-640.721"/>
</g>
<!-- ac2fe650&#45;c22c&#45;11e8&#45;85d4&#45;8d5fd32403be -->
<g id="node13" class="node"><title>ac2fe650&#45;c22c&#45;11e8&#45;85d4&#45;8d5fd32403be</title>
<polygon fill="none" stroke="black" points="870.5,-216 459.5,-216 459.5,-180 870.5,-180 870.5,-216"/>
<text text-anchor="middle" x="665" y="-191.8" font-family="Times New Roman,serif" font-size="24.00">ac2fe650&#45;c22c&#45;11e8&#45;85d4&#45;8d5fd32403be</text>
</g>
<!-- ac2fe650&#45;c22c&#45;11e8&#45;85d4&#45;8d5fd32403be&#45;&gt;b00ef540&#45;c22c&#45;11e8&#45;85d4&#45;8d5fd32403be -->
<g id="edge17" class="edge"><title>ac2fe650&#45;c22c&#45;11e8&#45;85d4&#45;8d5fd32403be&#45;&gt;b00ef540&#45;c22c&#45;11e8&#45;85d4&#45;8d5fd32403be</title>
<path fill="none" stroke="black" d="M779.559,-216.029C845.316,-226.469 928.154,-239.621 995.593,-250.328"/>
<polygon fill="black" stroke="black" points="995.428,-253.845 1005.85,-251.957 996.525,-246.932 995.428,-253.845"/>
</g>
<!-- ac2fe650&#45;c22c&#45;11e8&#45;85d4&#45;8d5fd32403be&#45;&gt;ac2fe650&#45;c22c&#45;11e8&#45;85d4&#45;8d5fd32403be -->
<g id="edge16" class="edge"><title>ac2fe650&#45;c22c&#45;11e8&#45;85d4&#45;8d5fd32403be&#45;&gt;ac2fe650&#45;c22c&#45;11e8&#45;85d4&#45;8d5fd32403be</title>
<path fill="none" stroke="black" d="M582.868,-216.153C570.232,-225.539 597.609,-234 665,-234 707.119,-234 733.608,-230.695 744.467,-225.925"/>
<polygon fill="black" stroke="black" points="747.877,-226.721 747.132,-216.153 741.124,-224.879 747.877,-226.721"/>
</g>
<!-- acf7f140&#45;c22c&#45;11e8&#45;85d4&#45;8d5fd32403be -->
<g id="node14" class="node"><title>acf7f140&#45;c22c&#45;11e8&#45;85d4&#45;8d5fd32403be</title>
<polygon fill="none" stroke="black" points="413.5,-828 5.5,-828 5.5,-792 413.5,-792 413.5,-828"/>
<text text-anchor="middle" x="209.5" y="-803.8" font-family="Times New Roman,serif" font-size="24.00">acf7f140&#45;c22c&#45;11e8&#45;85d4&#45;8d5fd32403be</text>
</g>
<!-- acf7f140&#45;c22c&#45;11e8&#45;85d4&#45;8d5fd32403be&#45;&gt;acf7f140&#45;c22c&#45;11e8&#45;85d4&#45;8d5fd32403be -->
<g id="edge18" class="edge"><title>acf7f140&#45;c22c&#45;11e8&#45;85d4&#45;8d5fd32403be&#45;&gt;acf7f140&#45;c22c&#45;11e8&#45;85d4&#45;8d5fd32403be</title>
<path fill="none" stroke="black" d="M127.368,-828.153C114.732,-837.539 142.109,-846 209.5,-846 251.619,-846 278.108,-842.695 288.967,-837.925"/>
<polygon fill="black" stroke="black" points="292.377,-838.721 291.632,-828.153 285.624,-836.879 292.377,-838.721"/>
</g>
<!-- ad7d4de0&#45;c22c&#45;11e8&#45;85d4&#45;8d5fd32403be -->
<g id="node15" class="node"><title>ad7d4de0&#45;c22c&#45;11e8&#45;85d4&#45;8d5fd32403be</title>
<polygon fill="none" stroke="black" points="873.5,-162 456.5,-162 456.5,-126 873.5,-126 873.5,-162"/>
<text text-anchor="middle" x="665" y="-137.8" font-family="Times New Roman,serif" font-size="24.00">ad7d4de0&#45;c22c&#45;11e8&#45;85d4&#45;8d5fd32403be</text>
</g>
<!-- ad7d4de0&#45;c22c&#45;11e8&#45;85d4&#45;8d5fd32403be&#45;&gt;b00ef540&#45;c22c&#45;11e8&#45;85d4&#45;8d5fd32403be -->
<g id="edge19" class="edge"><title>ad7d4de0&#45;c22c&#45;11e8&#45;85d4&#45;8d5fd32403be&#45;&gt;b00ef540&#45;c22c&#45;11e8&#45;85d4&#45;8d5fd32403be</title>
<path fill="none" stroke="black" d="M834.977,-162.035C848.601,-164.639 862.083,-167.611 875,-171 946.843,-189.851 1025.79,-224.552 1074.01,-247.454"/>
<polygon fill="black" stroke="black" points="1072.7,-250.708 1083.23,-251.869 1075.72,-244.394 1072.7,-250.708"/>
</g>
<!-- adc26d30&#45;c22c&#45;11e8&#45;85d4&#45;8d5fd32403be -->
<g id="node16" class="node"><title>adc26d30&#45;c22c&#45;11e8&#45;85d4&#45;8d5fd32403be</title>
<polygon fill="none" stroke="black" points="418,-900 1,-900 1,-864 418,-864 418,-900"/>
<text text-anchor="middle" x="209.5" y="-875.8" font-family="Times New Roman,serif" font-size="24.00">adc26d30&#45;c22c&#45;11e8&#45;85d4&#45;8d5fd32403be</text>
</g>
<!-- adc26d30&#45;c22c&#45;11e8&#45;85d4&#45;8d5fd32403be&#45;&gt;adc26d30&#45;c22c&#45;11e8&#45;85d4&#45;8d5fd32403be -->
<g id="edge20" class="edge"><title>adc26d30&#45;c22c&#45;11e8&#45;85d4&#45;8d5fd32403be&#45;&gt;adc26d30&#45;c22c&#45;11e8&#45;85d4&#45;8d5fd32403be</title>
<path fill="none" stroke="black" d="M127.368,-900.153C114.732,-909.539 142.109,-918 209.5,-918 251.619,-918 278.108,-914.695 288.967,-909.925"/>
<polygon fill="black" stroke="black" points="292.377,-910.721 291.632,-900.153 285.624,-908.879 292.377,-910.721"/>
</g>
<!-- ae518dd0&#45;c22c&#45;11e8&#45;85d4&#45;8d5fd32403be -->
<g id="node17" class="node"><title>ae518dd0&#45;c22c&#45;11e8&#45;85d4&#45;8d5fd32403be</title>
<polygon fill="none" stroke="black" points="418,-972 1,-972 1,-936 418,-936 418,-972"/>
<text text-anchor="middle" x="209.5" y="-947.8" font-family="Times New Roman,serif" font-size="24.00">ae518dd0&#45;c22c&#45;11e8&#45;85d4&#45;8d5fd32403be</text>
</g>
<!-- ae518dd0&#45;c22c&#45;11e8&#45;85d4&#45;8d5fd32403be&#45;&gt;ae518dd0&#45;c22c&#45;11e8&#45;85d4&#45;8d5fd32403be -->
<g id="edge21" class="edge"><title>ae518dd0&#45;c22c&#45;11e8&#45;85d4&#45;8d5fd32403be&#45;&gt;ae518dd0&#45;c22c&#45;11e8&#45;85d4&#45;8d5fd32403be</title>
<path fill="none" stroke="black" d="M127.368,-972.153C114.732,-981.539 142.109,-990 209.5,-990 251.619,-990 278.108,-986.695 288.967,-981.925"/>
<polygon fill="black" stroke="black" points="292.377,-982.721 291.632,-972.153 285.624,-980.879 292.377,-982.721"/>
</g>
<!-- ae80b420&#45;c22c&#45;11e8&#45;85d4&#45;8d5fd32403be -->
<g id="node18" class="node"><title>ae80b420&#45;c22c&#45;11e8&#45;85d4&#45;8d5fd32403be</title>
<polygon fill="none" stroke="black" points="418,-1044 1,-1044 1,-1008 418,-1008 418,-1044"/>
<text text-anchor="middle" x="209.5" y="-1019.8" font-family="Times New Roman,serif" font-size="24.00">ae80b420&#45;c22c&#45;11e8&#45;85d4&#45;8d5fd32403be</text>
</g>
<!-- ae80b420&#45;c22c&#45;11e8&#45;85d4&#45;8d5fd32403be&#45;&gt;ae80b420&#45;c22c&#45;11e8&#45;85d4&#45;8d5fd32403be -->
<g id="edge22" class="edge"><title>ae80b420&#45;c22c&#45;11e8&#45;85d4&#45;8d5fd32403be&#45;&gt;ae80b420&#45;c22c&#45;11e8&#45;85d4&#45;8d5fd32403be</title>
<path fill="none" stroke="black" d="M127.368,-1044.15C114.732,-1053.54 142.109,-1062 209.5,-1062 251.619,-1062 278.108,-1058.69 288.967,-1053.92"/>
<polygon fill="black" stroke="black" points="292.377,-1054.72 291.632,-1044.15 285.624,-1052.88 292.377,-1054.72"/>
</g>
<!-- ae9a7db0&#45;c22c&#45;11e8&#45;85d4&#45;8d5fd32403be -->
<g id="node19" class="node"><title>ae9a7db0&#45;c22c&#45;11e8&#45;85d4&#45;8d5fd32403be</title>
<polygon fill="none" stroke="black" points="873,-108 457,-108 457,-72 873,-72 873,-108"/>
<text text-anchor="middle" x="665" y="-83.8" font-family="Times New Roman,serif" font-size="24.00">ae9a7db0&#45;c22c&#45;11e8&#45;85d4&#45;8d5fd32403be</text>
</g>
<!-- ae9a7db0&#45;c22c&#45;11e8&#45;85d4&#45;8d5fd32403be&#45;&gt;b00ef540&#45;c22c&#45;11e8&#45;85d4&#45;8d5fd32403be -->
<g id="edge23" class="edge"><title>ae9a7db0&#45;c22c&#45;11e8&#45;85d4&#45;8d5fd32403be&#45;&gt;b00ef540&#45;c22c&#45;11e8&#45;85d4&#45;8d5fd32403be</title>
<path fill="none" stroke="black" d="M845.643,-108.026C855.679,-110.634 865.528,-113.609 875,-117 959.813,-147.366 1046.17,-210.614 1090.02,-245.531"/>
<polygon fill="black" stroke="black" points="1087.96,-248.373 1097.95,-251.912 1092.35,-242.918 1087.96,-248.373"/>
</g>
<!-- b17032f0&#45;c22c&#45;11e8&#45;85d4&#45;8d5fd32403be -->
<g id="node21" class="node"><title>b17032f0&#45;c22c&#45;11e8&#45;85d4&#45;8d5fd32403be</title>
<polygon fill="none" stroke="black" points="417.5,-1116 1.5,-1116 1.5,-1080 417.5,-1080 417.5,-1116"/>
<text text-anchor="middle" x="209.5" y="-1091.8" font-family="Times New Roman,serif" font-size="24.00">b17032f0&#45;c22c&#45;11e8&#45;85d4&#45;8d5fd32403be</text>
</g>
<!-- b17032f0&#45;c22c&#45;11e8&#45;85d4&#45;8d5fd32403be&#45;&gt;b17032f0&#45;c22c&#45;11e8&#45;85d4&#45;8d5fd32403be -->
<g id="edge25" class="edge"><title>b17032f0&#45;c22c&#45;11e8&#45;85d4&#45;8d5fd32403be&#45;&gt;b17032f0&#45;c22c&#45;11e8&#45;85d4&#45;8d5fd32403be</title>
<path fill="none" stroke="black" d="M127.368,-1116.15C114.732,-1125.54 142.109,-1134 209.5,-1134 251.619,-1134 278.108,-1130.69 288.967,-1125.92"/>
<polygon fill="black" stroke="black" points="292.377,-1126.72 291.632,-1116.15 285.624,-1124.88 292.377,-1126.72"/>
</g>
<!-- ae0cbca0&#45;c22c&#45;11e8&#45;85d4&#45;8d5fd32403be -->
<g id="node22" class="node"><title>ae0cbca0&#45;c22c&#45;11e8&#45;85d4&#45;8d5fd32403be</title>
<polygon fill="none" stroke="black" points="871.5,-1116 458.5,-1116 458.5,-1080 871.5,-1080 871.5,-1116"/>
<text text-anchor="middle" x="665" y="-1091.8" font-family="Times New Roman,serif" font-size="24.00">ae0cbca0&#45;c22c&#45;11e8&#45;85d4&#45;8d5fd32403be</text>
</g>
<!-- b17032f0&#45;c22c&#45;11e8&#45;85d4&#45;8d5fd32403be&#45;&gt;ae0cbca0&#45;c22c&#45;11e8&#45;85d4&#45;8d5fd32403be -->
<g id="edge26" class="edge"><title>b17032f0&#45;c22c&#45;11e8&#45;85d4&#45;8d5fd32403be&#45;&gt;ae0cbca0&#45;c22c&#45;11e8&#45;85d4&#45;8d5fd32403be</title>
<path fill="none" stroke="black" d="M417.675,-1098C427.828,-1098 438.035,-1098 448.211,-1098"/>
<polygon fill="black" stroke="black" points="448.375,-1101.5 458.375,-1098 448.375,-1094.5 448.375,-1101.5"/>
</g>
<!-- b2598180&#45;c22c&#45;11e8&#45;85d4&#45;8d5fd32403be -->
<g id="node23" class="node"><title>b2598180&#45;c22c&#45;11e8&#45;85d4&#45;8d5fd32403be</title>
<polygon fill="none" stroke="black" points="875,-36 455,-36 455,-0 875,-0 875,-36"/>
<text text-anchor="middle" x="665" y="-11.8" font-family="Times New Roman,serif" font-size="24.00">b2598180&#45;c22c&#45;11e8&#45;85d4&#45;8d5fd32403be</text>
</g>
<!-- b2598180&#45;c22c&#45;11e8&#45;85d4&#45;8d5fd32403be&#45;&gt;b00ef540&#45;c22c&#45;11e8&#45;85d4&#45;8d5fd32403be -->
<g id="edge29" class="edge"><title>b2598180&#45;c22c&#45;11e8&#45;85d4&#45;8d5fd32403be&#45;&gt;b00ef540&#45;c22c&#45;11e8&#45;85d4&#45;8d5fd32403be</title>
<path fill="none" stroke="black" d="M797.542,-36.0369C824,-42.4789 851.022,-51.2007 875,-63 969.193,-109.352 1057.4,-199.883 1097.25,-244.248"/>
<polygon fill="black" stroke="black" points="1094.86,-246.825 1104.12,-251.973 1100.09,-242.174 1094.86,-246.825"/>
</g>
<!-- b2598180&#45;c22c&#45;11e8&#45;85d4&#45;8d5fd32403be&#45;&gt;b2598180&#45;c22c&#45;11e8&#45;85d4&#45;8d5fd32403be -->
<g id="edge28" class="edge"><title>b2598180&#45;c22c&#45;11e8&#45;85d4&#45;8d5fd32403be&#45;&gt;b2598180&#45;c22c&#45;11e8&#45;85d4&#45;8d5fd32403be</title>
<path fill="none" stroke="black" d="M582.868,-36.1527C570.232,-45.5391 597.609,-54 665,-54 707.119,-54 733.608,-50.6949 744.467,-45.9246"/>
<polygon fill="black" stroke="black" points="747.877,-46.7213 747.132,-36.1527 741.124,-44.8792 747.877,-46.7213"/>
</g>
<!-- addf4400&#45;c22c&#45;11e8&#45;85d4&#45;8d5fd32403be -->
<g id="node24" class="node"><title>addf4400&#45;c22c&#45;11e8&#45;85d4&#45;8d5fd32403be</title>
<polygon fill="none" stroke="black" points="1327.5,-36 913.5,-36 913.5,-0 1327.5,-0 1327.5,-36"/>
<text text-anchor="middle" x="1120.5" y="-11.8" font-family="Times New Roman,serif" font-size="24.00">addf4400&#45;c22c&#45;11e8&#45;85d4&#45;8d5fd32403be</text>
</g>
<!-- b2598180&#45;c22c&#45;11e8&#45;85d4&#45;8d5fd32403be&#45;&gt;addf4400&#45;c22c&#45;11e8&#45;85d4&#45;8d5fd32403be -->
<g id="edge27" class="edge"><title>b2598180&#45;c22c&#45;11e8&#45;85d4&#45;8d5fd32403be&#45;&gt;addf4400&#45;c22c&#45;11e8&#45;85d4&#45;8d5fd32403be</title>
<path fill="none" stroke="black" d="M875.162,-18C884.458,-18 893.794,-18 903.107,-18"/>
<polygon fill="black" stroke="black" points="903.2,-21.5001 913.2,-18 903.2,-14.5001 903.2,-21.5001"/>
</g>
</g>
</svg>
