<?xml version="1.0" encoding="UTF-8" standalone="no"?>
<!DOCTYPE svg PUBLIC "-//W3C//DTD SVG 1.1//EN"
 "http://www.w3.org/Graphics/SVG/1.1/DTD/svg11.dtd">
<!-- Generated by graphviz version 2.38.0 (20140413.2041)
 -->
<!-- Title: g Pages: 1 -->
<svg width="1250pt" height="177pt"
 viewBox="0.00 0.00 1250.00 176.50" xmlns="http://www.w3.org/2000/svg" xmlns:xlink="http://www.w3.org/1999/xlink">
<g id="graph0" class="graph" transform="scale(1 1) rotate(0) translate(4 172.5)">
<title>g</title>
<polygon fill="white" stroke="none" points="-4,4 -4,-172.5 1246,-172.5 1246,4 -4,4"/>
<!-- EAID_FE5C09ED_BC3A_4ded_8916_A47737D5A246 -->
<g id="node1" class="node"><title>EAID_FE5C09ED_BC3A_4ded_8916_A47737D5A246</title>
<image xlink:href="img/actor1.png" width="61px" height="90px" preserveAspectRatio="xMinYMin meet" x="10.5" y="-162.5"/>
<text text-anchor="start" x="19" y="-49.3" font-family="Times New Roman,serif" font-size="24.00">User</text>
</g>
<!-- EAID_5FC80F30_A0D5_4434_A5AB_BA3C1BC66F38 -->
<g id="node2" class="node"><title>EAID_5FC80F30_A0D5_4434_A5AB_BA3C1BC66F38</title>
<image xlink:href="img/boundary3.png" width="102px" height="67px" preserveAspectRatio="xMinYMin meet" x="1130" y="-149.5"/>
<text text-anchor="start" x="1130" y="-59.3" font-family="Times New Roman,serif" font-size="24.00">Homepage</text>
</g>
<!-- EAID_FE5C09ED_BC3A_4ded_8916_A47737D5A246&#45;&gt;EAID_5FC80F30_A0D5_4434_A5AB_BA3C1BC66F38 -->
<g id="edge1" class="edge"><title>EAID_FE5C09ED_BC3A_4ded_8916_A47737D5A246&#45;&gt;EAID_5FC80F30_A0D5_4434_A5AB_BA3C1BC66F38</title>
<path fill="none" stroke="black" d="M81.0458,-115.649C92.5119,-118.872 105.14,-121.865 117,-123.5 434.442,-167.274 517.555,-125.056 838,-125.5 947.333,-125.652 975.486,-138.859 1084,-125.5 1092.55,-124.448 1101.43,-122.887 1110.19,-121.058"/>
<polygon fill="black" stroke="black" points="1110.99,-124.466 1120,-118.891 1109.48,-117.63 1110.99,-124.466"/>
</g>
<!-- EAID_7CC65512_3ECE_43b8_B52B_FB6015C0BDBD -->
<g id="node3" class="node"><title>EAID_7CC65512_3ECE_43b8_B52B_FB6015C0BDBD</title>
<image xlink:href="img/boundary3.png" width="115px" height="67px" preserveAspectRatio="xMinYMin meet" x="402.5" y="-108.5"/>
<text text-anchor="start" x="127.5" y="-18.3" font-family="Times New Roman,serif" font-size="24.00">Check email information for the customer and send the email manually</text>
</g>
<!-- EAID_FE5C09ED_BC3A_4ded_8916_A47737D5A246&#45;&gt;EAID_7CC65512_3ECE_43b8_B52B_FB6015C0BDBD -->
<g id="edge2" class="edge"><title>EAID_FE5C09ED_BC3A_4ded_8916_A47737D5A246&#45;&gt;EAID_7CC65512_3ECE_43b8_B52B_FB6015C0BDBD</title>
<path fill="none" stroke="black" d="M81.1063,-98.5109C88.8016,-97.7358 97.4217,-96.8676 106.788,-95.9243"/>
<polygon fill="black" stroke="black" points="107.212,-99.3993 116.811,-94.9147 106.51,-92.4346 107.212,-99.3993"/>
</g>
<!-- EAID_D9767D48_A64D_40e9_9162_6C641582A4B9 -->
<g id="node4" class="node"><title>EAID_D9767D48_A64D_40e9_9162_6C641582A4B9</title>
<image xlink:href="img/control1.png" width="106px" height="75px" preserveAspectRatio="xMinYMin meet" x="908" y="-110.5"/>
<text text-anchor="start" x="848" y="-12.3" font-family="Times New Roman,serif" font-size="24.00">show confirmation page</text>
</g>
<!-- EAID_7CC65512_3ECE_43b8_B52B_FB6015C0BDBD&#45;&gt;EAID_D9767D48_A64D_40e9_9162_6C641582A4B9 -->
<g id="edge3" class="edge"><title>EAID_7CC65512_3ECE_43b8_B52B_FB6015C0BDBD&#45;&gt;EAID_D9767D48_A64D_40e9_9162_6C641582A4B9</title>
<path fill="none" stroke="black" d="M802.298,-59.1314C810.843,-59.0972 819.222,-59.0637 827.384,-59.031"/>
<polygon fill="black" stroke="black" points="827.618,-62.5302 837.604,-58.9901 827.59,-55.5302 827.618,-62.5302"/>
</g>
<!-- EAID_D9767D48_A64D_40e9_9162_6C641582A4B9&#45;&gt;EAID_5FC80F30_A0D5_4434_A5AB_BA3C1BC66F38 -->
<g id="edge4" class="edge"><title>EAID_D9767D48_A64D_40e9_9162_6C641582A4B9&#45;&gt;EAID_5FC80F30_A0D5_4434_A5AB_BA3C1BC66F38</title>
<path fill="none" stroke="black" d="M1084.06,-82.577C1092.85,-84.3097 1101.52,-86.0198 1109.84,-87.6613"/>
<polygon fill="black" stroke="black" points="1109.32,-91.1251 1119.8,-89.6265 1110.67,-84.2574 1109.32,-91.1251"/>
</g>
</g>
</svg>
