<?xml version="1.0" encoding="UTF-8" standalone="no"?>
<!DOCTYPE svg PUBLIC "-//W3C//DTD SVG 1.1//EN"
 "http://www.w3.org/Graphics/SVG/1.1/DTD/svg11.dtd">
<!-- Generated by graphviz version 2.38.0 (20140413.2041)
 -->
<!-- Title: g Pages: 1 -->
<svg width="3678pt" height="458pt"
 viewBox="0.00 0.00 3678.00 458.00" xmlns="http://www.w3.org/2000/svg" xmlns:xlink="http://www.w3.org/1999/xlink">
<g id="graph0" class="graph" transform="scale(1 1) rotate(0) translate(4 454)">
<title>g</title>
<polygon fill="white" stroke="none" points="-4,4 -4,-454 3674,-454 3674,4 -4,4"/>
<g id="clust1" class="cluster"><title>cluster0</title>
<polygon fill="none" stroke="black" stroke-width="2" points="19,-254 19,-344 115,-344 115,-254 19,-254"/>
<text text-anchor="start" x="45" y="-329.8" font-family="Times New Roman,serif" font-weight="bold" font-size="14.00">System</text>
</g>
<g id="clust2" class="cluster"><title>cluster1</title>
<polygon fill="none" stroke="black" stroke-width="2" points="8,-352 8,-442 126,-442 126,-352 8,-352"/>
<text text-anchor="start" x="52.5" y="-427.8" font-family="Times New Roman,serif" font-weight="bold" font-size="14.00">User</text>
</g>
<g id="clust3" class="cluster"><title>cluster1000</title>
<polygon fill="none" stroke="black" stroke-width="2" points="22,-8 22,-246 3662,-246 3662,-8 22,-8"/>
<text text-anchor="start" x="1796.5" y="-231.8" font-family="Times New Roman,serif" font-weight="bold" font-size="14.00">Domain Model</text>
</g>
<!-- EAID_CE36C4D4_270D_4d00_9168_9C38A25A9015 -->
<g id="node1" class="node"><title>EAID_CE36C4D4_270D_4d00_9168_9C38A25A9015</title>
<image xlink:href="img/activity_icon.png" width="30px" height="20px" preserveAspectRatio="xMinYMin meet" x="52" y="-306.5"/>
<text text-anchor="start" x="37" y="-272.3" font-family="Times New Roman,serif" font-weight="bold" font-size="14.00">undefined</text>
</g>
<!-- EAID_C7F0F7CC_027C_44dc_BA58_5A25912A9FE3 -->
<g id="node14" class="node"><title>EAID_C7F0F7CC_027C_44dc_BA58_5A25912A9FE3</title>
<polygon fill="none" stroke="black" points="40,-104.5 40,-125.5 95,-125.5 95,-104.5 40,-104.5"/>
<text text-anchor="start" x="43" y="-112.3" font-family="Times New Roman,serif" font-weight="bold" font-size="14.00">Object1</text>
<polygon fill="none" stroke="black" points="38.5,-104 38.5,-127 95.5,-127 95.5,-104 38.5,-104"/>
</g>
<!-- EAID_CE36C4D4_270D_4d00_9168_9C38A25A9015&#45;&gt;EAID_C7F0F7CC_027C_44dc_BA58_5A25912A9FE3 -->
<g id="edge2" class="edge"><title>EAID_CE36C4D4_270D_4d00_9168_9C38A25A9015&#45;&gt;EAID_C7F0F7CC_027C_44dc_BA58_5A25912A9FE3</title>
<path fill="none" stroke="black" stroke-dasharray="5,2" d="M67,-261.781C67,-230.341 67,-176.233 67,-143.667"/>
<polygon fill="black" stroke="black" points="70.5001,-143.512 67,-133.512 63.5001,-143.512 70.5001,-143.512"/>
</g>
<!-- EAID_CE36C4D4_270D_4d00_9168_9C38A25A9015_STL -->
<g id="node2" class="node"><title>EAID_CE36C4D4_270D_4d00_9168_9C38A25A9015_STL</title>
<image xlink:href="img/stimulus_icon.png" width="30px" height="20px" preserveAspectRatio="xMinYMin meet" x="52" y="-404.5"/>
<text text-anchor="start" x="26" y="-370.3" font-family="Times New Roman,serif" font-weight="bold" font-size="14.00">stl#undefined</text>
</g>
<!-- EAID_CE36C4D4_270D_4d00_9168_9C38A25A9015_STL&#45;&gt;EAID_CE36C4D4_270D_4d00_9168_9C38A25A9015 -->
<g id="edge1" class="edge"><title>EAID_CE36C4D4_270D_4d00_9168_9C38A25A9015_STL&#45;&gt;EAID_CE36C4D4_270D_4d00_9168_9C38A25A9015</title>
<path fill="none" stroke="black" d="M67,-359.778C67,-348.692 67,-335.42 67,-323.351"/>
<polygon fill="black" stroke="black" points="70.5001,-323.139 67,-313.139 63.5001,-323.139 70.5001,-323.139"/>
</g>
<!-- EAID_D2A5D2D3_54BB_4fb8_AA8D_054280797500 -->
<g id="node3" class="node"><title>EAID_D2A5D2D3_54BB_4fb8_AA8D_054280797500</title>
<polygon fill="none" stroke="black" points="3450,-167.5 3450,-188.5 3645,-188.5 3645,-167.5 3450,-167.5"/>
<text text-anchor="start" x="3508.5" y="-175.3" font-family="Times New Roman,serif" font-weight="bold" font-size="14.00">Event Image</text>
<polygon fill="none" stroke="black" points="3450,-146.5 3450,-167.5 3645,-167.5 3645,-146.5 3450,-146.5"/>
<text text-anchor="start" x="3455.5" y="-154.3" font-family="Times New Roman,serif" font-weight="bold" font-size="14.00">EAJava_void BMP JPG PNG</text>
<polygon fill="none" stroke="black" points="3450,-125.5 3450,-146.5 3645,-146.5 3645,-125.5 3450,-125.5"/>
<text text-anchor="start" x="3506" y="-133.3" font-family="Times New Roman,serif" font-weight="bold" font-size="14.00">EventImage()</text>
<polygon fill="none" stroke="black" points="3450,-104.5 3450,-125.5 3645,-125.5 3645,-104.5 3450,-104.5"/>
<text text-anchor="start" x="3510" y="-112.3" font-family="Times New Roman,serif" font-weight="bold" font-size="14.00">Homepage()</text>
<polygon fill="none" stroke="black" points="3450,-83.5 3450,-104.5 3645,-104.5 3645,-83.5 3450,-83.5"/>
<text text-anchor="start" x="3457" y="-91.3" font-family="Times New Roman,serif" font-weight="bold" font-size="14.00">Maintainsocialnetworkpage()</text>
<polygon fill="none" stroke="black" points="3450,-62.5 3450,-83.5 3645,-83.5 3645,-62.5 3450,-62.5"/>
<text text-anchor="start" x="3454.5" y="-70.3" font-family="Times New Roman,serif" font-weight="bold" font-size="14.00">ViewandRSVPforeventspage()</text>
<polygon fill="none" stroke="black" points="3450,-41.5 3450,-62.5 3645,-62.5 3645,-41.5 3450,-41.5"/>
<text text-anchor="start" x="3453" y="-49.3" font-family="Times New Roman,serif" font-weight="bold" font-size="14.00">selectpagesofupcomingevents()</text>
<polygon fill="none" stroke="black" points="3448.5,-41 3448.5,-190 3645.5,-190 3645.5,-41 3448.5,-41"/>
</g>
<!-- EAID_DC4366CA_A307_4230_86FE_A9B27A20E5A8 -->
<g id="node4" class="node"><title>EAID_DC4366CA_A307_4230_86FE_A9B27A20E5A8</title>
<polygon fill="none" stroke="black" points="3019,-146.5 3019,-167.5 3413,-167.5 3413,-146.5 3019,-146.5"/>
<text text-anchor="start" x="3184" y="-154.3" font-family="Times New Roman,serif" font-weight="bold" font-size="14.00">Event LIst</text>
<polygon fill="none" stroke="black" points="3019,-125.5 3019,-146.5 3413,-146.5 3413,-125.5 3019,-125.5"/>
<text text-anchor="start" x="3142.5" y="-133.3" font-family="Times New Roman,serif" font-weight="bold" font-size="14.00">EAJava_void Hyperlink</text>
<polygon fill="none" stroke="black" points="3019,-104.5 3019,-125.5 3413,-125.5 3413,-104.5 3019,-104.5"/>
<text text-anchor="start" x="3154" y="-112.3" font-family="Times New Roman,serif" font-weight="bold" font-size="14.00">EAJava_void String</text>
<polygon fill="none" stroke="black" points="3019,-83.5 3019,-104.5 3413,-104.5 3413,-83.5 3019,-83.5"/>
<text text-anchor="start" x="3022" y="-91.3" font-family="Times New Roman,serif" font-weight="bold" font-size="14.00">EAID_55249C51_8176_4809_A8D0_33641B1F9301 undefined</text>
<polygon fill="none" stroke="black" points="3019,-62.5 3019,-83.5 3413,-83.5 3413,-62.5 3019,-62.5"/>
<text text-anchor="start" x="3181" y="-70.3" font-family="Times New Roman,serif" font-weight="bold" font-size="14.00">EventLIst()</text>
<polygon fill="none" stroke="black" points="3018,-62 3018,-169 3414,-169 3414,-62 3018,-62"/>
</g>
<!-- EAID_7A3494C3_720A_454b_95CE_252053DF6EB6 -->
<g id="node5" class="node"><title>EAID_7A3494C3_720A_454b_95CE_252053DF6EB6</title>
<polygon fill="none" stroke="black" points="2572,-136.5 2572,-157.5 2983,-157.5 2983,-136.5 2572,-136.5"/>
<text text-anchor="start" x="2737" y="-144.3" font-family="Times New Roman,serif" font-weight="bold" font-size="14.00">Event Profile</text>
<polygon fill="none" stroke="black" points="2572,-115.5 2572,-136.5 2983,-136.5 2983,-115.5 2572,-115.5"/>
<text text-anchor="start" x="2720" y="-123.3" font-family="Times New Roman,serif" font-weight="bold" font-size="14.00">EAJava_void PDF</text>
<polygon fill="none" stroke="black" points="2572,-94.5 2572,-115.5 2983,-115.5 2983,-94.5 2572,-94.5"/>
<text text-anchor="start" x="2575" y="-102.3" font-family="Times New Roman,serif" font-weight="bold" font-size="14.00">EAID_DC4366CA_A307_4230_86FE_A9B27A20E5A8 undefined</text>
<polygon fill="none" stroke="black" points="2572,-73.5 2572,-94.5 2983,-94.5 2983,-73.5 2572,-73.5"/>
<text text-anchor="start" x="2734.5" y="-81.3" font-family="Times New Roman,serif" font-weight="bold" font-size="14.00">EventProfile()</text>
<polygon fill="none" stroke="black" points="2570.5,-72.5 2570.5,-158.5 2983.5,-158.5 2983.5,-72.5 2570.5,-72.5"/>
</g>
<!-- EAID_C0DBA96F_0C4E_487e_A638_9727DADDEC58 -->
<g id="node6" class="node"><title>EAID_C0DBA96F_0C4E_487e_A638_9727DADDEC58</title>
<polygon fill="none" stroke="black" points="2133,-146.5 2133,-167.5 2536,-167.5 2536,-146.5 2133,-146.5"/>
<text text-anchor="start" x="2290.5" y="-154.3" font-family="Times New Roman,serif" font-weight="bold" font-size="14.00">Image Gallery</text>
<polygon fill="none" stroke="black" points="2133,-125.5 2133,-146.5 2536,-146.5 2536,-125.5 2133,-125.5"/>
<text text-anchor="start" x="2242.5" y="-133.3" font-family="Times New Roman,serif" font-weight="bold" font-size="14.00">EAJava_void BMP JPG PNG</text>
<polygon fill="none" stroke="black" points="2133,-104.5 2133,-125.5 2536,-125.5 2536,-104.5 2133,-104.5"/>
<text text-anchor="start" x="2136" y="-112.3" font-family="Times New Roman,serif" font-weight="bold" font-size="14.00">EAID_D2A5D2D3_54BB_4fb8_AA8D_054280797500 undefined</text>
<polygon fill="none" stroke="black" points="2133,-83.5 2133,-104.5 2536,-104.5 2536,-83.5 2133,-83.5"/>
<text text-anchor="start" x="2140.5" y="-91.3" font-family="Times New Roman,serif" font-weight="bold" font-size="14.00">EAID_55249C51_8176_4809_A8D0_33641B1F9301 undefined</text>
<polygon fill="none" stroke="black" points="2133,-62.5 2133,-83.5 2536,-83.5 2536,-62.5 2133,-62.5"/>
<text text-anchor="start" x="2287.5" y="-70.3" font-family="Times New Roman,serif" font-weight="bold" font-size="14.00">ImageGallery()</text>
<polygon fill="none" stroke="black" points="2131.5,-62 2131.5,-169 2536.5,-169 2536.5,-62 2131.5,-62"/>
</g>
<!-- EAID_F36D014D_3944_46ba_AF40_81E9DA847A29 -->
<g id="node7" class="node"><title>EAID_F36D014D_3944_46ba_AF40_81E9DA847A29</title>
<polygon fill="none" stroke="black" points="1922,-188.5 1922,-209.5 2096,-209.5 2096,-188.5 1922,-188.5"/>
<text text-anchor="start" x="1940" y="-196.3" font-family="Times New Roman,serif" font-weight="bold" font-size="14.00">Job Application Form </text>
<polygon fill="none" stroke="black" points="1922,-167.5 1922,-188.5 2096,-188.5 2096,-167.5 1922,-167.5"/>
<text text-anchor="start" x="1935.5" y="-175.3" font-family="Times New Roman,serif" font-weight="bold" font-size="14.00">EAJava_void Hyperlink</text>
<polygon fill="none" stroke="black" points="1922,-146.5 1922,-167.5 2096,-167.5 2096,-146.5 1922,-146.5"/>
<text text-anchor="start" x="1947" y="-154.3" font-family="Times New Roman,serif" font-weight="bold" font-size="14.00">EAJava_void String</text>
<polygon fill="none" stroke="black" points="1922,-125.5 1922,-146.5 2096,-146.5 2096,-125.5 1922,-125.5"/>
<text text-anchor="start" x="1941" y="-133.3" font-family="Times New Roman,serif" font-weight="bold" font-size="14.00">JobApplicationForm()</text>
<polygon fill="none" stroke="black" points="1922,-104.5 1922,-125.5 2096,-125.5 2096,-104.5 1922,-104.5"/>
<text text-anchor="start" x="1950" y="-112.3" font-family="Times New Roman,serif" font-weight="bold" font-size="14.00">Applyforjobspage()</text>
<polygon fill="none" stroke="black" points="1922,-83.5 1922,-104.5 2096,-104.5 2096,-83.5 1922,-83.5"/>
<text text-anchor="start" x="1933.5" y="-91.3" font-family="Times New Roman,serif" font-weight="bold" font-size="14.00">Showconfirmationpage()</text>
<polygon fill="none" stroke="black" points="1922,-62.5 1922,-83.5 2096,-83.5 2096,-62.5 1922,-62.5"/>
<text text-anchor="start" x="1937.5" y="-70.3" font-family="Times New Roman,serif" font-weight="bold" font-size="14.00">Applyfovolunteerpage()</text>
<polygon fill="none" stroke="black" points="1922,-41.5 1922,-62.5 2096,-62.5 2096,-41.5 1922,-41.5"/>
<text text-anchor="start" x="1941.5" y="-49.3" font-family="Times New Roman,serif" font-weight="bold" font-size="14.00">Donatingmoneypage()</text>
<polygon fill="none" stroke="black" points="1922,-20.5 1922,-41.5 2096,-41.5 2096,-20.5 1922,-20.5"/>
<text text-anchor="start" x="1925" y="-28.3" font-family="Times New Roman,serif" font-weight="bold" font-size="14.00">choosemethodfordonation()</text>
<polygon fill="none" stroke="black" points="1921,-20 1921,-211 2097,-211 2097,-20 1921,-20"/>
</g>
<!-- EAID_F2442EDC_2B50_447d_B2CB_A592CFDF2245 -->
<g id="node8" class="node"><title>EAID_F2442EDC_2B50_447d_B2CB_A592CFDF2245</title>
<polygon fill="none" stroke="black" points="1483,-178.5 1483,-199.5 1886,-199.5 1886,-178.5 1483,-178.5"/>
<text text-anchor="start" x="1631.5" y="-186.3" font-family="Times New Roman,serif" font-weight="bold" font-size="14.00">Job Opening List</text>
<polygon fill="none" stroke="black" points="1483,-157.5 1483,-178.5 1886,-178.5 1886,-157.5 1483,-157.5"/>
<text text-anchor="start" x="1611" y="-165.3" font-family="Times New Roman,serif" font-weight="bold" font-size="14.00">EAJava_void Hyperlink</text>
<polygon fill="none" stroke="black" points="1483,-136.5 1483,-157.5 1886,-157.5 1886,-136.5 1483,-136.5"/>
<text text-anchor="start" x="1622.5" y="-144.3" font-family="Times New Roman,serif" font-weight="bold" font-size="14.00">EAJava_void String</text>
<polygon fill="none" stroke="black" points="1483,-115.5 1483,-136.5 1886,-136.5 1886,-115.5 1483,-115.5"/>
<text text-anchor="start" x="1490.5" y="-123.3" font-family="Times New Roman,serif" font-weight="bold" font-size="14.00">EAID_55249C51_8176_4809_A8D0_33641B1F9301 undefined</text>
<polygon fill="none" stroke="black" points="1483,-94.5 1483,-115.5 1886,-115.5 1886,-94.5 1483,-94.5"/>
<text text-anchor="start" x="1486" y="-102.3" font-family="Times New Roman,serif" font-weight="bold" font-size="14.00">EAID_46E22B70_ABA4_415a_A547_470E2B60375D undefined</text>
<polygon fill="none" stroke="black" points="1483,-73.5 1483,-94.5 1886,-94.5 1886,-73.5 1483,-73.5"/>
<text text-anchor="start" x="1631" y="-81.3" font-family="Times New Roman,serif" font-weight="bold" font-size="14.00">JobOpeningList()</text>
<polygon fill="none" stroke="black" points="1483,-52.5 1483,-73.5 1886,-73.5 1886,-52.5 1483,-52.5"/>
<text text-anchor="start" x="1631" y="-60.3" font-family="Times New Roman,serif" font-weight="bold" font-size="14.00">Viewjoblistpage()</text>
<polygon fill="none" stroke="black" points="1483,-31.5 1483,-52.5 1886,-52.5 1886,-31.5 1483,-31.5"/>
<text text-anchor="start" x="1640" y="-39.3" font-family="Times New Roman,serif" font-weight="bold" font-size="14.00">selectajoblist()</text>
<polygon fill="none" stroke="black" points="1481.5,-30.5 1481.5,-200.5 1886.5,-200.5 1886.5,-30.5 1481.5,-30.5"/>
</g>
<!-- EAID_46E22B70_ABA4_415a_A547_470E2B60375D -->
<g id="node9" class="node"><title>EAID_46E22B70_ABA4_415a_A547_470E2B60375D</title>
<polygon fill="none" stroke="black" points="1044,-136.5 1044,-157.5 1447,-157.5 1447,-136.5 1044,-136.5"/>
<text text-anchor="start" x="1211.5" y="-144.3" font-family="Times New Roman,serif" font-weight="bold" font-size="14.00">Job Profile</text>
<polygon fill="none" stroke="black" points="1044,-115.5 1044,-136.5 1447,-136.5 1447,-115.5 1044,-115.5"/>
<text text-anchor="start" x="1188" y="-123.3" font-family="Times New Roman,serif" font-weight="bold" font-size="14.00">EAJava_void PDF</text>
<polygon fill="none" stroke="black" points="1044,-94.5 1044,-115.5 1447,-115.5 1447,-94.5 1044,-94.5"/>
<text text-anchor="start" x="1047" y="-102.3" font-family="Times New Roman,serif" font-weight="bold" font-size="14.00">EAID_F36D014D_3944_46ba_AF40_81E9DA847A29 undefined</text>
<polygon fill="none" stroke="black" points="1044,-73.5 1044,-94.5 1447,-94.5 1447,-73.5 1044,-73.5"/>
<text text-anchor="start" x="1209" y="-81.3" font-family="Times New Roman,serif" font-weight="bold" font-size="14.00">JobProfile()</text>
<polygon fill="none" stroke="black" points="1042.5,-72.5 1042.5,-158.5 1447.5,-158.5 1447.5,-72.5 1042.5,-72.5"/>
</g>
<!-- EAID_55249C51_8176_4809_A8D0_33641B1F9301 -->
<g id="node10" class="node"><title>EAID_55249C51_8176_4809_A8D0_33641B1F9301</title>
<polygon fill="none" stroke="black" points="817,-157.5 817,-178.5 1007,-178.5 1007,-157.5 817,-157.5"/>
<text text-anchor="start" x="830.5" y="-165.3" font-family="Times New Roman,serif" font-weight="bold" font-size="14.00">Social Media Update Item </text>
<polygon fill="none" stroke="black" points="817,-136.5 817,-157.5 1007,-157.5 1007,-136.5 817,-136.5"/>
<text text-anchor="start" x="820" y="-144.3" font-family="Times New Roman,serif" font-weight="bold" font-size="14.00">EAJava_void BMP JPG PNG</text>
<polygon fill="none" stroke="black" points="817,-115.5 817,-136.5 1007,-136.5 1007,-115.5 817,-115.5"/>
<text text-anchor="start" x="838.5" y="-123.3" font-family="Times New Roman,serif" font-weight="bold" font-size="14.00">EAJava_void Hyperlink</text>
<polygon fill="none" stroke="black" points="817,-94.5 817,-115.5 1007,-115.5 1007,-94.5 817,-94.5"/>
<text text-anchor="start" x="833.5" y="-102.3" font-family="Times New Roman,serif" font-weight="bold" font-size="14.00">SocialMediaUpdateItem()</text>
<polygon fill="none" stroke="black" points="817,-73.5 817,-94.5 1007,-94.5 1007,-73.5 817,-73.5"/>
<text text-anchor="start" x="836.5" y="-81.3" font-family="Times New Roman,serif" font-weight="bold" font-size="14.00">Maintainsocialnetwork()</text>
<polygon fill="none" stroke="black" points="817,-52.5 817,-73.5 1007,-73.5 1007,-52.5 817,-52.5"/>
<text text-anchor="start" x="825.5" y="-60.3" font-family="Times New Roman,serif" font-weight="bold" font-size="14.00">Postonsocialnewworkpage()</text>
<polygon fill="none" stroke="black" points="816,-51.5 816,-179.5 1008,-179.5 1008,-51.5 816,-51.5"/>
</g>
<!-- EAID_FF1A0C3C_A533_485e_B628_04A1DE5B8AA8 -->
<g id="node11" class="node"><title>EAID_FF1A0C3C_A533_485e_B628_04A1DE5B8AA8</title>
<polygon fill="none" stroke="black" points="369,-157.5 369,-178.5 781,-178.5 781,-157.5 369,-157.5"/>
<text text-anchor="start" x="550" y="-165.3" font-family="Times New Roman,serif" font-weight="bold" font-size="14.00">Wishlist</text>
<polygon fill="none" stroke="black" points="369,-136.5 369,-157.5 781,-157.5 781,-136.5 369,-136.5"/>
<text text-anchor="start" x="501.5" y="-144.3" font-family="Times New Roman,serif" font-weight="bold" font-size="14.00">EAJava_void Hyperlink</text>
<polygon fill="none" stroke="black" points="369,-115.5 369,-136.5 781,-136.5 781,-115.5 369,-115.5"/>
<text text-anchor="start" x="516" y="-123.3" font-family="Times New Roman,serif" font-weight="bold" font-size="14.00">EAJava_void Sting</text>
<polygon fill="none" stroke="black" points="369,-94.5 369,-115.5 781,-115.5 781,-94.5 369,-94.5"/>
<text text-anchor="start" x="381" y="-102.3" font-family="Times New Roman,serif" font-weight="bold" font-size="14.00">EAID_55249C51_8176_4809_A8D0_33641B1F9301 undefined</text>
<polygon fill="none" stroke="black" points="369,-73.5 369,-94.5 781,-94.5 781,-73.5 369,-73.5"/>
<text text-anchor="start" x="372" y="-81.3" font-family="Times New Roman,serif" font-weight="bold" font-size="14.00">EAID_D6B0D9D2_1862_49a5_BE85_5EE6A22B9AD8 undefined</text>
<polygon fill="none" stroke="black" points="369,-52.5 369,-73.5 781,-73.5 781,-52.5 369,-52.5"/>
<text text-anchor="start" x="545.5" y="-60.3" font-family="Times New Roman,serif" font-weight="bold" font-size="14.00">Wishlist()</text>
<polygon fill="none" stroke="black" points="368,-51.5 368,-179.5 782,-179.5 782,-51.5 368,-51.5"/>
</g>
<!-- EAID_D6B0D9D2_1862_49a5_BE85_5EE6A22B9AD8 -->
<g id="node12" class="node"><title>EAID_D6B0D9D2_1862_49a5_BE85_5EE6A22B9AD8</title>
<polygon fill="none" stroke="black" points="212,-125.5 212,-146.5 333,-146.5 333,-125.5 212,-125.5"/>
<text text-anchor="start" x="231.5" y="-133.3" font-family="Times New Roman,serif" font-weight="bold" font-size="14.00">Wishlist Item</text>
<polygon fill="none" stroke="black" points="212,-104.5 212,-125.5 333,-125.5 333,-104.5 212,-104.5"/>
<text text-anchor="start" x="215" y="-112.3" font-family="Times New Roman,serif" font-weight="bold" font-size="14.00">EAJava_void PDF</text>
<polygon fill="none" stroke="black" points="212,-83.5 212,-104.5 333,-104.5 333,-83.5 212,-83.5"/>
<text text-anchor="start" x="229" y="-91.3" font-family="Times New Roman,serif" font-weight="bold" font-size="14.00">WishlistItem()</text>
<polygon fill="none" stroke="black" points="210.5,-83 210.5,-148 333.5,-148 333.5,-83 210.5,-83"/>
</g>
<!-- EAID_4B32D1E8_A216_4fa5_AE4A_7578CC49944E -->
<g id="node13" class="node"><title>EAID_4B32D1E8_A216_4fa5_AE4A_7578CC49944E</title>
<polygon fill="none" stroke="black" points="131,-115.5 131,-136.5 175,-136.5 175,-115.5 131,-115.5"/>
<text text-anchor="start" x="138.5" y="-123.3" font-family="Times New Roman,serif" font-weight="bold" font-size="14.00">User</text>
<polygon fill="none" stroke="black" points="131,-94.5 131,-115.5 175,-115.5 175,-94.5 131,-94.5"/>
<text text-anchor="start" x="134" y="-102.3" font-family="Times New Roman,serif" font-weight="bold" font-size="14.00">User()</text>
<polygon fill="none" stroke="black" points="130,-93.5 130,-137.5 176,-137.5 176,-93.5 130,-93.5"/>
</g>
</g>
</svg>
