<?xml version="1.0" encoding="UTF-8" standalone="no"?>
<!DOCTYPE svg PUBLIC "-//W3C//DTD SVG 1.1//EN"
 "http://www.w3.org/Graphics/SVG/1.1/DTD/svg11.dtd">
<!-- Generated by graphviz version 2.38.0 (20140413.2041)
 -->
<!-- Title: g Pages: 1 -->
<svg width="947pt" height="404pt"
 viewBox="0.00 0.00 947.48 404.00" xmlns="http://www.w3.org/2000/svg" xmlns:xlink="http://www.w3.org/1999/xlink">
<g id="graph0" class="graph" transform="scale(1 1) rotate(0) translate(4 400)">
<title>g</title>
<polygon fill="white" stroke="none" points="-4,4 -4,-400 943.484,-400 943.484,4 -4,4"/>
<!-- display &#160;log in screen -->
<g id="node1" class="node"><title>display &#160;log in screen</title>
<ellipse fill="none" stroke="black" cx="87.0923" cy="-90" rx="87.1846" ry="18"/>
<text text-anchor="middle" x="87.0923" y="-86.3" font-family="Times New Roman,serif" font-size="14.00">display &#160;log in screen</text>
</g>
<!-- Log in screen -->
<g id="node2" class="node"><title>Log in screen</title>
<ellipse fill="none" stroke="black" cx="87.0923" cy="-18" rx="59.5901" ry="18"/>
<text text-anchor="middle" x="87.0923" y="-14.3" font-family="Times New Roman,serif" font-size="14.00">Log in screen</text>
</g>
<!-- display &#160;log in screen&#45;&gt;Log in screen -->
<g id="edge1" class="edge"><title>display &#160;log in screen&#45;&gt;Log in screen</title>
<path fill="none" stroke="black" d="M87.0923,-71.6966C87.0923,-63.9827 87.0923,-54.7125 87.0923,-46.1124"/>
<polygon fill="black" stroke="black" points="90.5924,-46.1043 87.0923,-36.1043 83.5924,-46.1044 90.5924,-46.1043"/>
</g>
<!-- is &#160;user logged in? -->
<g id="node3" class="node"><title>is &#160;user logged in?</title>
<ellipse fill="none" stroke="black" cx="473.092" cy="-162" rx="76.0865" ry="18"/>
<text text-anchor="middle" x="473.092" y="-158.3" font-family="Times New Roman,serif" font-size="14.00">is &#160;user logged in?</text>
</g>
<!-- is &#160;user logged in?&#45;&gt;display &#160;log in screen -->
<g id="edge4" class="edge"><title>is &#160;user logged in?&#45;&gt;display &#160;log in screen</title>
<path fill="none" stroke="black" d="M414.467,-150.369C346.384,-138.022 234.012,-117.644 160.265,-104.27"/>
<polygon fill="black" stroke="black" points="160.588,-100.771 150.124,-102.431 159.339,-107.659 160.588,-100.771"/>
</g>
<!-- display profile screen -->
<g id="node4" class="node"><title>display profile screen</title>
<ellipse fill="none" stroke="black" cx="280.092" cy="-90" rx="88.2844" ry="18"/>
<text text-anchor="middle" x="280.092" y="-86.3" font-family="Times New Roman,serif" font-size="14.00">display profile screen</text>
</g>
<!-- is &#160;user logged in?&#45;&gt;display profile screen -->
<g id="edge2" class="edge"><title>is &#160;user logged in?&#45;&gt;display profile screen</title>
<path fill="none" stroke="black" d="M433.103,-146.496C403.485,-135.754 362.901,-121.034 330.972,-109.454"/>
<polygon fill="black" stroke="black" points="331.957,-106.088 321.362,-105.968 329.57,-112.668 331.957,-106.088"/>
</g>
<!-- display photo screen -->
<g id="node5" class="node"><title>display photo screen</title>
<ellipse fill="none" stroke="black" cx="473.092" cy="-90" rx="86.3847" ry="18"/>
<text text-anchor="middle" x="473.092" y="-86.3" font-family="Times New Roman,serif" font-size="14.00">display photo screen</text>
</g>
<!-- is &#160;user logged in?&#45;&gt;display photo screen -->
<g id="edge3" class="edge"><title>is &#160;user logged in?&#45;&gt;display photo screen</title>
<path fill="none" stroke="black" d="M473.092,-143.697C473.092,-135.983 473.092,-126.712 473.092,-118.112"/>
<polygon fill="black" stroke="black" points="476.592,-118.104 473.092,-108.104 469.592,-118.104 476.592,-118.104"/>
</g>
<!-- display event screen -->
<g id="node6" class="node"><title>display event screen</title>
<ellipse fill="none" stroke="black" cx="661.092" cy="-90" rx="83.6854" ry="18"/>
<text text-anchor="middle" x="661.092" y="-86.3" font-family="Times New Roman,serif" font-size="14.00">display event screen</text>
</g>
<!-- is &#160;user logged in?&#45;&gt;display event screen -->
<g id="edge5" class="edge"><title>is &#160;user logged in?&#45;&gt;display event screen</title>
<path fill="none" stroke="black" d="M512.046,-146.496C540.869,-135.764 580.354,-121.062 611.443,-109.487"/>
<polygon fill="black" stroke="black" points="613.067,-112.617 621.217,-105.847 610.624,-106.057 613.067,-112.617"/>
</g>
<!-- display search screen -->
<g id="node7" class="node"><title>display search screen</title>
<ellipse fill="none" stroke="black" cx="851.092" cy="-90" rx="88.2844" ry="18"/>
<text text-anchor="middle" x="851.092" y="-86.3" font-family="Times New Roman,serif" font-size="14.00">display search screen</text>
</g>
<!-- is &#160;user logged in?&#45;&gt;display search screen -->
<g id="edge6" class="edge"><title>is &#160;user logged in?&#45;&gt;display search screen</title>
<path fill="none" stroke="black" d="M530.914,-150.292C597.183,-138.02 705.91,-117.886 777.995,-104.536"/>
<polygon fill="black" stroke="black" points="778.72,-107.962 787.915,-102.699 777.445,-101.079 778.72,-107.962"/>
</g>
<!-- profile screen -->
<g id="node8" class="node"><title>profile screen</title>
<ellipse fill="none" stroke="black" cx="280.092" cy="-18" rx="59.5901" ry="18"/>
<text text-anchor="middle" x="280.092" y="-14.3" font-family="Times New Roman,serif" font-size="14.00">profile screen</text>
</g>
<!-- display profile screen&#45;&gt;profile screen -->
<g id="edge7" class="edge"><title>display profile screen&#45;&gt;profile screen</title>
<path fill="none" stroke="black" d="M280.092,-71.6966C280.092,-63.9827 280.092,-54.7125 280.092,-46.1124"/>
<polygon fill="black" stroke="black" points="283.592,-46.1043 280.092,-36.1043 276.592,-46.1044 283.592,-46.1043"/>
</g>
<!-- Photo screen -->
<g id="node11" class="node"><title>Photo screen</title>
<ellipse fill="none" stroke="black" cx="473.092" cy="-18" rx="58.4896" ry="18"/>
<text text-anchor="middle" x="473.092" y="-14.3" font-family="Times New Roman,serif" font-size="14.00">Photo screen</text>
</g>
<!-- display photo screen&#45;&gt;Photo screen -->
<g id="edge10" class="edge"><title>display photo screen&#45;&gt;Photo screen</title>
<path fill="none" stroke="black" d="M473.092,-71.6966C473.092,-63.9827 473.092,-54.7125 473.092,-46.1124"/>
<polygon fill="black" stroke="black" points="476.592,-46.1043 473.092,-36.1043 469.592,-46.1044 476.592,-46.1043"/>
</g>
<!-- event screen -->
<g id="node10" class="node"><title>event screen</title>
<ellipse fill="none" stroke="black" cx="661.092" cy="-18" rx="55.7903" ry="18"/>
<text text-anchor="middle" x="661.092" y="-14.3" font-family="Times New Roman,serif" font-size="14.00">event screen</text>
</g>
<!-- display event screen&#45;&gt;event screen -->
<g id="edge9" class="edge"><title>display event screen&#45;&gt;event screen</title>
<path fill="none" stroke="black" d="M661.092,-71.6966C661.092,-63.9827 661.092,-54.7125 661.092,-46.1124"/>
<polygon fill="black" stroke="black" points="664.592,-46.1043 661.092,-36.1043 657.592,-46.1044 664.592,-46.1043"/>
</g>
<!-- search screen -->
<g id="node9" class="node"><title>search screen</title>
<ellipse fill="none" stroke="black" cx="851.092" cy="-18" rx="59.5901" ry="18"/>
<text text-anchor="middle" x="851.092" y="-14.3" font-family="Times New Roman,serif" font-size="14.00">search screen</text>
</g>
<!-- display search screen&#45;&gt;search screen -->
<g id="edge8" class="edge"><title>display search screen&#45;&gt;search screen</title>
<path fill="none" stroke="black" d="M851.092,-71.6966C851.092,-63.9827 851.092,-54.7125 851.092,-46.1124"/>
<polygon fill="black" stroke="black" points="854.592,-46.1043 851.092,-36.1043 847.592,-46.1044 854.592,-46.1043"/>
</g>
<!-- Tap a icon on navigation bar -->
<g id="node12" class="node"><title>Tap a icon on navigation bar</title>
<ellipse fill="none" stroke="black" cx="473.092" cy="-234" rx="114.28" ry="18"/>
<text text-anchor="middle" x="473.092" y="-230.3" font-family="Times New Roman,serif" font-size="14.00">Tap a icon on navigation bar</text>
</g>
<!-- Tap a icon on navigation bar&#45;&gt;is &#160;user logged in? -->
<g id="edge11" class="edge"><title>Tap a icon on navigation bar&#45;&gt;is &#160;user logged in?</title>
<path fill="none" stroke="black" d="M473.092,-215.697C473.092,-207.983 473.092,-198.712 473.092,-190.112"/>
<polygon fill="black" stroke="black" points="476.592,-190.104 473.092,-180.104 469.592,-190.104 476.592,-190.104"/>
</g>
<!-- Display navigation bar -->
<g id="node13" class="node"><title>Display navigation bar</title>
<ellipse fill="none" stroke="black" cx="405.092" cy="-378" rx="90.9839" ry="18"/>
<text text-anchor="middle" x="405.092" y="-374.3" font-family="Times New Roman,serif" font-size="14.00">Display navigation bar</text>
</g>
<!-- Navigation bar -->
<g id="node14" class="node"><title>Navigation bar</title>
<ellipse fill="none" stroke="black" cx="473.092" cy="-306" rx="63.8893" ry="18"/>
<text text-anchor="middle" x="473.092" y="-302.3" font-family="Times New Roman,serif" font-size="14.00">Navigation bar</text>
</g>
<!-- Display navigation bar&#45;&gt;Navigation bar -->
<g id="edge12" class="edge"><title>Display navigation bar&#45;&gt;Navigation bar</title>
<path fill="none" stroke="black" d="M421.553,-360.055C429.989,-351.371 440.409,-340.644 449.667,-331.114"/>
<polygon fill="black" stroke="black" points="452.326,-333.401 456.783,-323.789 447.305,-328.523 452.326,-333.401"/>
</g>
<!-- Navigation bar&#45;&gt;Tap a icon on navigation bar -->
<g id="edge13" class="edge"><title>Navigation bar&#45;&gt;Tap a icon on navigation bar</title>
<path fill="none" stroke="black" d="M473.092,-287.697C473.092,-279.983 473.092,-270.712 473.092,-262.112"/>
<polygon fill="black" stroke="black" points="476.592,-262.104 473.092,-252.104 469.592,-262.104 476.592,-262.104"/>
</g>
<!-- User -->
<g id="node15" class="node"><title>User</title>
<ellipse fill="none" stroke="black" cx="542.092" cy="-378" rx="27.8951" ry="18"/>
<text text-anchor="middle" x="542.092" y="-374.3" font-family="Times New Roman,serif" font-size="14.00">User</text>
</g>
<!-- User&#45;&gt;Navigation bar -->
<g id="edge14" class="edge"><title>User&#45;&gt;Navigation bar</title>
<path fill="none" stroke="black" d="M527.795,-362.496C518.774,-353.344 506.908,-341.306 496.534,-330.781"/>
<polygon fill="black" stroke="black" points="498.818,-328.113 489.305,-323.448 493.833,-333.027 498.818,-328.113"/>
</g>
</g>
</svg>
