<?xml version="1.0" encoding="UTF-8" standalone="no"?>
<!DOCTYPE svg PUBLIC "-//W3C//DTD SVG 1.1//EN"
 "http://www.w3.org/Graphics/SVG/1.1/DTD/svg11.dtd">
<!-- Generated by graphviz version 2.40.1 (20161225.0304)
 -->
<!-- Title: class_diagram Pages: 1 -->
<svg width="3281pt" height="73pt"
 viewBox="0.00 0.00 3281.36 73.00" xmlns="http://www.w3.org/2000/svg" xmlns:xlink="http://www.w3.org/1999/xlink">
<g id="graph0" class="graph" transform="scale(1 1) rotate(0) translate(4 69)">
<title>class_diagram</title>
<polygon fill="#ffffff" stroke="transparent" points="-4,4 -4,-69 3277.3594,-69 3277.3594,4 -4,4"/>
<!-- ce29471a9_5c2a_42d5_8021_28743a9dbd36 -->
<g id="ce29471a9_5c2a_42d5_8021_28743a9dbd36" class="node">
<title>ce29471a9_5c2a_42d5_8021_28743a9dbd36</title>
<polygon fill="none" stroke="#000000" points="0,-12.5 0,-52.5 116.7188,-52.5 116.7188,-12.5 0,-12.5"/>
<text text-anchor="middle" x="58.3594" y="-42.1" font-family="Times,serif" font-size="8.00" fill="#000000">AndroidProcesses</text>
<polyline fill="none" stroke="#000000" points="0,-36.5 116.7188,-36.5 "/>
<text text-anchor="start" x="8" y="-26.1" font-family="Times,serif" font-size="8.00" fill="#000000">+ log()</text>
<text text-anchor="start" x="8" y="-18.1" font-family="Times,serif" font-size="8.00" fill="#000000">+ getRunningAppProcessInfo()</text>
</g>
<!-- cd776c3c5_ebf6_4e39_b2fc_6e5f73a5ec25 -->
<g id="cd776c3c5_ebf6_4e39_b2fc_6e5f73a5ec25" class="node">
<title>cd776c3c5_ebf6_4e39_b2fc_6e5f73a5ec25</title>
<polygon fill="none" stroke="#000000" points="134.6973,-14.5 134.6973,-50.5 208.0215,-50.5 208.0215,-14.5 134.6973,-14.5"/>
<text text-anchor="middle" x="171.3594" y="-30.1" font-family="Times,serif" font-size="8.00" fill="#000000">ActivityProcesses</text>
</g>
<!-- c131ed08c_9c1d_4bd1_9439_c8f005d80ca8 -->
<g id="c131ed08c_9c1d_4bd1_9439_c8f005d80ca8" class="node">
<title>c131ed08c_9c1d_4bd1_9439_c8f005d80ca8</title>
<polygon fill="none" stroke="#000000" points="225.8105,-14.5 225.8105,-50.5 292.9082,-50.5 292.9082,-14.5 225.8105,-14.5"/>
<text text-anchor="middle" x="259.3594" y="-30.1" font-family="Times,serif" font-size="8.00" fill="#000000">ContentHandler</text>
</g>
<!-- cb5629eb1_0b50_4713_8564_3486543fa163 -->
<g id="cb5629eb1_0b50_4713_8564_3486543fa163" class="node">
<title>cb5629eb1_0b50_4713_8564_3486543fa163</title>
<polygon fill="none" stroke="#000000" points="310.918,-14.5 310.918,-50.5 391.8008,-50.5 391.8008,-14.5 310.918,-14.5"/>
<text text-anchor="middle" x="351.3594" y="-39.6" font-family="Times,serif" font-size="8.00" fill="#000000">AndroidAppProcess</text>
<polyline fill="none" stroke="#000000" points="310.918,-33.5 391.8008,-33.5 "/>
<text text-anchor="start" x="318.918" y="-22.6" font-family="Times,serif" font-size="8.00" fill="#000000">&#45; uid:int</text>
<polyline fill="none" stroke="#000000" points="310.918,-16.5 391.8008,-16.5 "/>
</g>
<!-- c82ceb796_4988_4432_8837_a7a40bc0d2f9 -->
<g id="c82ceb796_4988_4432_8837_a7a40bc0d2f9" class="node">
<title>c82ceb796_4988_4432_8837_a7a40bc0d2f9</title>
<polygon fill="none" stroke="#000000" points="410.2559,-14.5 410.2559,-50.5 468.4629,-50.5 468.4629,-14.5 410.2559,-14.5"/>
<text text-anchor="middle" x="439.3594" y="-30.1" font-family="Times,serif" font-size="8.00" fill="#000000">DTDHandler</text>
</g>
<!-- c8388dcda_be5b_4e37_b929_0b5240fa37a1 -->
<g id="c8388dcda_be5b_4e37_b929_0b5240fa37a1" class="node">
<title>c8388dcda_be5b_4e37_b929_0b5240fa37a1</title>
<polygon fill="none" stroke="#000000" points="486.3359,-14.5 486.3359,-50.5 642.3828,-50.5 642.3828,-14.5 486.3359,-14.5"/>
<text text-anchor="middle" x="564.3594" y="-39.6" font-family="Times,serif" font-size="8.00" fill="#000000">ControlGroup$1</text>
<polyline fill="none" stroke="#000000" points="486.3359,-33.5 642.3828,-33.5 "/>
<text text-anchor="start" x="494.3359" y="-22.6" font-family="Times,serif" font-size="8.00" fill="#000000">&#45; CREATOR:android.os.Parcelable$Creator</text>
<polyline fill="none" stroke="#000000" points="486.3359,-16.5 642.3828,-16.5 "/>
</g>
<!-- ca570a18c_2f4f_4dc2_9b19_37dd6fa15101 -->
<g id="ca570a18c_2f4f_4dc2_9b19_37dd6fa15101" class="node">
<title>ca570a18c_2f4f_4dc2_9b19_37dd6fa15101</title>
<polygon fill="none" stroke="#000000" points="660.332,-12.5 660.332,-52.5 718.3867,-52.5 718.3867,-12.5 660.332,-12.5"/>
<text text-anchor="middle" x="689.3594" y="-42.1" font-family="Times,serif" font-size="8.00" fill="#000000">Cgroup$1</text>
<polyline fill="none" stroke="#000000" points="660.332,-36.5 718.3867,-36.5 "/>
<text text-anchor="start" x="668.332" y="-26.1" font-family="Times,serif" font-size="8.00" fill="#000000">+ getGroup()</text>
<text text-anchor="start" x="668.332" y="-18.1" font-family="Times,serif" font-size="8.00" fill="#000000">+ get()</text>
</g>
<!-- cb057d250_eb31_460a_9401_d2e016f97123 -->
<g id="cb057d250_eb31_460a_9401_d2e016f97123" class="node">
<title>cb057d250_eb31_460a_9401_d2e016f97123</title>
<polygon fill="none" stroke="#000000" points="736.3594,-14.5 736.3594,-50.5 790.3594,-50.5 790.3594,-14.5 736.3594,-14.5"/>
<text text-anchor="middle" x="763.082" y="-35.1" font-family="Times,serif" font-size="8.00" fill="#000000">Stat</text>
<polyline fill="none" stroke="#000000" points="736.3594,-24.5 789.8047,-24.5 "/>
</g>
<!-- ca3990fd5_ed93_405b_833a_c8eae56138bc -->
<g id="ca3990fd5_ed93_405b_833a_c8eae56138bc" class="node">
<title>ca3990fd5_ed93_405b_833a_c8eae56138bc</title>
<polygon fill="none" stroke="#000000" points="808.3594,-14.5 808.3594,-50.5 862.3594,-50.5 862.3594,-14.5 808.3594,-14.5"/>
<text text-anchor="middle" x="835.1387" y="-35.1" font-family="Times,serif" font-size="8.00" fill="#000000">Status$1</text>
<polyline fill="none" stroke="#000000" points="808.3594,-24.5 861.918,-24.5 "/>
</g>
<!-- c2d25f886_e1bd_4374_b001_84f3efdda9f5 -->
<g id="c2d25f886_e1bd_4374_b001_84f3efdda9f5" class="node">
<title>c2d25f886_e1bd_4374_b001_84f3efdda9f5</title>
<polygon fill="none" stroke="#000000" points="880.3594,-14.5 880.3594,-50.5 934.3594,-50.5 934.3594,-14.5 880.3594,-14.5"/>
<text text-anchor="middle" x="906.9141" y="-35.1" font-family="Times,serif" font-size="8.00" fill="#000000">ProcFile</text>
<polyline fill="none" stroke="#000000" points="880.3594,-24.5 933.4688,-24.5 "/>
</g>
<!-- c35d9fe52_76c7_498d_bbe0_15942e46b910 -->
<g id="c35d9fe52_76c7_498d_bbe0_15942e46b910" class="node">
<title>c35d9fe52_76c7_498d_bbe0_15942e46b910</title>
<polygon fill="none" stroke="#000000" points="951.9258,-.5 951.9258,-64.5 1042.793,-64.5 1042.793,-.5 951.9258,-.5"/>
<text text-anchor="middle" x="997.3594" y="-54.1" font-family="Times,serif" font-size="8.00" fill="#000000">AndroidProcess</text>
<polyline fill="none" stroke="#000000" points="951.9258,-48.5 1042.793,-48.5 "/>
<text text-anchor="start" x="959.9258" y="-38.1" font-family="Times,serif" font-size="8.00" fill="#000000">&#45; name:java.lang.String</text>
<polyline fill="none" stroke="#000000" points="951.9258,-32.5 1042.793,-32.5 "/>
<text text-anchor="start" x="959.9258" y="-22.1" font-family="Times,serif" font-size="8.00" fill="#000000">+ status()</text>
<text text-anchor="start" x="959.9258" y="-14.1" font-family="Times,serif" font-size="8.00" fill="#000000">+ cgroup()</text>
<text text-anchor="start" x="959.9258" y="-6.1" font-family="Times,serif" font-size="8.00" fill="#000000">+ stat()</text>
</g>
<!-- c4aa55eee_6bbf_4693_b33c_9acab09a800d -->
<g id="c4aa55eee_6bbf_4693_b33c_9acab09a800d" class="node">
<title>c4aa55eee_6bbf_4693_b33c_9acab09a800d</title>
<polygon fill="none" stroke="#000000" points="1061.2598,-14.5 1061.2598,-50.5 1175.459,-50.5 1175.459,-14.5 1061.2598,-14.5"/>
<text text-anchor="middle" x="1118.3594" y="-30.1" font-family="Times,serif" font-size="8.00" fill="#000000">SAXNotRecognizedException</text>
</g>
<!-- cb3e6c4d0_4ccb_4162_9904_f3de96a00485 -->
<g id="cb3e6c4d0_4ccb_4162_9904_f3de96a00485" class="node">
<title>cb3e6c4d0_4ccb_4162_9904_f3de96a00485</title>
<polygon fill="none" stroke="#000000" points="1193.0371,-14.5 1193.0371,-50.5 1251.6816,-50.5 1251.6816,-14.5 1193.0371,-14.5"/>
<text text-anchor="middle" x="1222.3594" y="-30.1" font-family="Times,serif" font-size="8.00" fill="#000000">ErrorHandler</text>
</g>
<!-- cd6e5ff6d_5ccb_4a3f_81da_c0c27994ae3e -->
<g id="cd6e5ff6d_5ccb_4a3f_81da_c0c27994ae3e" class="node">
<title>cd6e5ff6d_5ccb_4a3f_81da_c0c27994ae3e</title>
<polygon fill="none" stroke="#000000" points="1269.3594,-14.5 1269.3594,-50.5 1323.3594,-50.5 1323.3594,-14.5 1269.3594,-14.5"/>
<text text-anchor="middle" x="1296.2969" y="-30.1" font-family="Times,serif" font-size="8.00" fill="#000000">Locator</text>
</g>
<!-- c1e0943d5_5bec_4f2d_b26c_145ec51d2d1b -->
<g id="c1e0943d5_5bec_4f2d_b26c_145ec51d2d1b" class="node">
<title>c1e0943d5_5bec_4f2d_b26c_145ec51d2d1b</title>
<polygon fill="none" stroke="#000000" points="1341.0391,-14.5 1341.0391,-50.5 1411.6797,-50.5 1411.6797,-14.5 1341.0391,-14.5"/>
<text text-anchor="middle" x="1376.3594" y="-30.1" font-family="Times,serif" font-size="8.00" fill="#000000">ServiceReader$4</text>
</g>
<!-- c6d7a2f81_244f_4ddc_a863_402309ad4032 -->
<g id="c6d7a2f81_244f_4ddc_a863_402309ad4032" class="node">
<title>c6d7a2f81_244f_4ddc_a863_402309ad4032</title>
<polygon fill="none" stroke="#000000" points="1429.9238,-14.5 1429.9238,-50.5 1498.7949,-50.5 1498.7949,-14.5 1429.9238,-14.5"/>
<text text-anchor="middle" x="1464.3594" y="-30.1" font-family="Times,serif" font-size="8.00" fill="#000000">ProcessManager</text>
</g>
<!-- c62676e69_cdec_4ef2_8d8c_b0f98a3da2d0 -->
<g id="c62676e69_cdec_4ef2_8d8c_b0f98a3da2d0" class="node">
<title>c62676e69_cdec_4ef2_8d8c_b0f98a3da2d0</title>
<polygon fill="none" stroke="#000000" points="1516.3594,-14.5 1516.3594,-50.5 1570.3594,-50.5 1570.3594,-14.5 1516.3594,-14.5"/>
<text text-anchor="middle" x="1543.0273" y="-30.1" font-family="Times,serif" font-size="8.00" fill="#000000">C</text>
</g>
<!-- c6a6a8f62_0b83_4a02_a462_b05b8372051f -->
<g id="c6a6a8f62_0b83_4a02_a462_b05b8372051f" class="node">
<title>c6a6a8f62_0b83_4a02_a462_b05b8372051f</title>
<polygon fill="none" stroke="#000000" points="1588.3594,-14.5 1588.3594,-50.5 1642.3594,-50.5 1642.3594,-14.5 1588.3594,-14.5"/>
<text text-anchor="middle" x="1615.1934" y="-30.1" font-family="Times,serif" font-size="8.00" fill="#000000">Statm</text>
</g>
<!-- cacbdfa8e_6fcd_4d90_9822_8d0b058db300 -->
<g id="cacbdfa8e_6fcd_4d90_9822_8d0b058db300" class="node">
<title>cacbdfa8e_6fcd_4d90_9822_8d0b058db300</title>
<polygon fill="none" stroke="#000000" points="1660.6973,-14.5 1660.6973,-50.5 1770.0215,-50.5 1770.0215,-14.5 1660.6973,-14.5"/>
<text text-anchor="middle" x="1715.3594" y="-30.1" font-family="Times,serif" font-size="8.00" fill="#000000">SAXNotSupportedException</text>
</g>
<!-- c03c49b63_dd6d_40c8_8e34_6c8f07811d65 -->
<g id="c03c49b63_dd6d_40c8_8e34_6c8f07811d65" class="node">
<title>c03c49b63_dd6d_40c8_8e34_6c8f07811d65</title>
<polygon fill="none" stroke="#000000" points="1788.1445,-14.5 1788.1445,-50.5 1844.5742,-50.5 1844.5742,-14.5 1788.1445,-14.5"/>
<text text-anchor="middle" x="1816.3594" y="-30.1" font-family="Times,serif" font-size="8.00" fill="#000000">XMLReader</text>
</g>
<!-- cc112007b_63d3_4d95_9d79_087ad2cfba19 -->
<g id="cc112007b_63d3_4d95_9d79_087ad2cfba19" class="node">
<title>cc112007b_63d3_4d95_9d79_087ad2cfba19</title>
<polygon fill="none" stroke="#000000" points="1863.0508,-14.5 1863.0508,-50.5 1921.668,-50.5 1921.668,-14.5 1863.0508,-14.5"/>
<text text-anchor="middle" x="1892.3594" y="-30.1" font-family="Times,serif" font-size="8.00" fill="#000000">ViewGraphic</text>
</g>
<!-- c6d98f6d8_29f7_4bcc_86f7_ee1481dbc971 -->
<g id="c6d98f6d8_29f7_4bcc_86f7_ee1481dbc971" class="node">
<title>c6d98f6d8_29f7_4bcc_86f7_ee1481dbc971</title>
<polygon fill="none" stroke="#000000" points="1939.8047,-14.5 1939.8047,-50.5 2002.9141,-50.5 2002.9141,-14.5 1939.8047,-14.5"/>
<text text-anchor="middle" x="1971.3594" y="-30.1" font-family="Times,serif" font-size="8.00" fill="#000000">XmlPullParser</text>
</g>
<!-- c0b275736_7a30_4498_a3b5_ddcbad0775e2 -->
<g id="c0b275736_7a30_4498_a3b5_ddcbad0775e2" class="node">
<title>c0b275736_7a30_4498_a3b5_ddcbad0775e2</title>
<polygon fill="none" stroke="#000000" points="2020.4766,-14.5 2020.4766,-50.5 2102.2422,-50.5 2102.2422,-14.5 2020.4766,-14.5"/>
<text text-anchor="middle" x="2061.3594" y="-30.1" font-family="Times,serif" font-size="8.00" fill="#000000">SAXParseException</text>
</g>
<!-- cb2d5d19b_4f7f_475c_9df8_27c025c8c0d0 -->
<g id="cb2d5d19b_4f7f_475c_9df8_27c025c8c0d0" class="node">
<title>cb2d5d19b_4f7f_475c_9df8_27c025c8c0d0</title>
<polygon fill="none" stroke="#000000" points="2120.5762,-14.5 2120.5762,-50.5 2176.1426,-50.5 2176.1426,-14.5 2120.5762,-14.5"/>
<text text-anchor="middle" x="2148.3594" y="-30.1" font-family="Times,serif" font-size="8.00" fill="#000000">BuildConfig</text>
</g>
<!-- ccc3bfd30_4de6_46d3_8e74_d824bc5b5e96 -->
<g id="ccc3bfd30_4de6_46d3_8e74_d824bc5b5e96" class="node">
<title>ccc3bfd30_4de6_46d3_8e74_d824bc5b5e96</title>
<polygon fill="none" stroke="#000000" points="2193.8066,-14.5 2193.8066,-50.5 2264.9121,-50.5 2264.9121,-14.5 2193.8066,-14.5"/>
<text text-anchor="middle" x="2229.3594" y="-30.1" font-family="Times,serif" font-size="8.00" fill="#000000">ActivityMain$19</text>
</g>
<!-- cf8340a4d_b9bf_456b_9a1f_f8105f1b9ced -->
<g id="cf8340a4d_b9bf_456b_9a1f_f8105f1b9ced" class="node">
<title>cf8340a4d_b9bf_456b_9a1f_f8105f1b9ced</title>
<polygon fill="none" stroke="#000000" points="2283.3633,-14.5 2283.3633,-50.5 2347.3555,-50.5 2347.3555,-14.5 2283.3633,-14.5"/>
<text text-anchor="middle" x="2315.3594" y="-30.1" font-family="Times,serif" font-size="8.00" fill="#000000">EntityResolver</text>
</g>
<!-- cd093acf2_d566_4643_9711_65c3c7d8aec0 -->
<g id="cd093acf2_d566_4643_9711_65c3c7d8aec0" class="node">
<title>cd093acf2_d566_4643_9711_65c3c7d8aec0</title>
<polygon fill="none" stroke="#000000" points="2365.3594,-14.5 2365.3594,-50.5 2419.3594,-50.5 2419.3594,-14.5 2365.3594,-14.5"/>
<text text-anchor="middle" x="2392.0273" y="-30.1" font-family="Times,serif" font-size="8.00" fill="#000000">R</text>
</g>
<!-- c65275ca2_92b8_419a_a2c2_2ac934e6d627 -->
<g id="c65275ca2_92b8_419a_a2c2_2ac934e6d627" class="node">
<title>c65275ca2_92b8_419a_a2c2_2ac934e6d627</title>
<polygon fill="none" stroke="#000000" points="2437.1406,-14.5 2437.1406,-50.5 2501.5781,-50.5 2501.5781,-14.5 2437.1406,-14.5"/>
<text text-anchor="middle" x="2469.3594" y="-30.1" font-family="Times,serif" font-size="8.00" fill="#000000">SAXException</text>
</g>
<!-- ce306cf3d_7604_4eb8_84f9_f5cb0bd88657 -->
<g id="ce306cf3d_7604_4eb8_84f9_f5cb0bd88657" class="node">
<title>ce306cf3d_7604_4eb8_84f9_f5cb0bd88657</title>
<polygon fill="none" stroke="#000000" points="2519.8086,-14.5 2519.8086,-50.5 2574.9102,-50.5 2574.9102,-14.5 2519.8086,-14.5"/>
<text text-anchor="middle" x="2547.3594" y="-30.1" font-family="Times,serif" font-size="8.00" fill="#000000">InputSource</text>
</g>
<!-- c606ea890_f31a_4b63_9e14_53cc587c9f58 -->
<g id="c606ea890_f31a_4b63_9e14_53cc587c9f58" class="node">
<title>c606ea890_f31a_4b63_9e14_53cc587c9f58</title>
<polygon fill="none" stroke="#000000" points="2593.3594,-14.5 2593.3594,-50.5 2647.3594,-50.5 2647.3594,-14.5 2593.3594,-14.5"/>
<text text-anchor="middle" x="2620.0254" y="-30.1" font-family="Times,serif" font-size="8.00" fill="#000000">R$layout</text>
</g>
<!-- c6dbaa286_b2b8_453d_8f69_356470d7e5bc -->
<g id="c6dbaa286_b2b8_453d_8f69_356470d7e5bc" class="node">
<title>c6dbaa286_b2b8_453d_8f69_356470d7e5bc</title>
<polygon fill="none" stroke="#000000" points="2665.5879,-14.5 2665.5879,-50.5 2761.1309,-50.5 2761.1309,-14.5 2665.5879,-14.5"/>
<text text-anchor="middle" x="2713.3594" y="-30.1" font-family="Times,serif" font-size="8.00" fill="#000000">XmlPullParserException</text>
</g>
<!-- c988303a9_a2b9_44a1_848e_ab6af4c0f5bd -->
<g id="c988303a9_a2b9_44a1_848e_ab6af4c0f5bd" class="node">
<title>c988303a9_a2b9_44a1_848e_ab6af4c0f5bd</title>
<polygon fill="none" stroke="#000000" points="2778.7012,-14.5 2778.7012,-50.5 2876.0176,-50.5 2876.0176,-14.5 2778.7012,-14.5"/>
<text text-anchor="middle" x="2827.3594" y="-30.1" font-family="Times,serif" font-size="8.00" fill="#000000">LinearLayoutCustomised</text>
</g>
<!-- c9cc05bab_f2f0_413d_bedf_2e1f3052c78b -->
<g id="c9cc05bab_f2f0_413d_bedf_2e1f3052c78b" class="node">
<title>c9cc05bab_f2f0_413d_bedf_2e1f3052c78b</title>
<polygon fill="none" stroke="#000000" points="2894.4746,-14.5 2894.4746,-50.5 2960.2441,-50.5 2960.2441,-14.5 2894.4746,-14.5"/>
<text text-anchor="middle" x="2927.3594" y="-30.1" font-family="Times,serif" font-size="8.00" fill="#000000">ActivityHelp$1</text>
</g>
<!-- ca2bff68f_6360_447d_8c50_feceaecfc337 -->
<g id="ca2bff68f_6360_447d_8c50_feceaecfc337" class="node">
<title>ca2bff68f_6360_447d_8c50_feceaecfc337</title>
<polygon fill="none" stroke="#000000" points="2978.25,-14.5 2978.25,-50.5 3048.4688,-50.5 3048.4688,-14.5 2978.25,-14.5"/>
<text text-anchor="middle" x="3013.3594" y="-30.1" font-family="Times,serif" font-size="8.00" fill="#000000">ActivityAbout$2</text>
</g>
<!-- c11b5ec68_76c6_4c41_bb8c_fd8ad5629fc6 -->
<g id="c11b5ec68_76c6_4c41_bb8c_fd8ad5629fc6" class="node">
<title>c11b5ec68_76c6_4c41_bb8c_fd8ad5629fc6</title>
<polygon fill="none" stroke="#000000" points="3066.9238,-14.5 3066.9238,-50.5 3127.7949,-50.5 3127.7949,-14.5 3066.9238,-14.5"/>
<text text-anchor="middle" x="3097.3594" y="-30.1" font-family="Times,serif" font-size="8.00" fill="#000000">XmlSerializer</text>
</g>
<!-- c87867410_353d_46df_8cac_947e540c050a -->
<g id="c87867410_353d_46df_8cac_947e540c050a" class="node">
<title>c87867410_353d_46df_8cac_947e540c050a</title>
<polygon fill="none" stroke="#000000" points="3145.5762,-14.5 3145.5762,-50.5 3201.1426,-50.5 3201.1426,-14.5 3145.5762,-14.5"/>
<text text-anchor="middle" x="3173.3594" y="-30.1" font-family="Times,serif" font-size="8.00" fill="#000000">BuildConfig</text>
</g>
<!-- c6040a99c_1df3_4c81_a0a3_7874d9662406 -->
<g id="c6040a99c_1df3_4c81_a0a3_7874d9662406" class="node">
<title>c6040a99c_1df3_4c81_a0a3_7874d9662406</title>
<polygon fill="none" stroke="#000000" points="3219.3594,-14.5 3219.3594,-50.5 3273.3594,-50.5 3273.3594,-14.5 3219.3594,-14.5"/>
<text text-anchor="middle" x="3246.3574" y="-30.1" font-family="Times,serif" font-size="8.00" fill="#000000">Attributes</text>
</g>
</g>
</svg>
