<?xml version="1.0" encoding="UTF-8" standalone="no"?>
<!DOCTYPE svg PUBLIC "-//W3C//DTD SVG 1.1//EN"
 "http://www.w3.org/Graphics/SVG/1.1/DTD/svg11.dtd">
<!-- Generated by graphviz version 2.38.0 (20140413.2041)
 -->
<!-- Title: g Pages: 1 -->
<svg width="661pt" height="260pt"
 viewBox="0.00 0.00 661.23 260.00" xmlns="http://www.w3.org/2000/svg" xmlns:xlink="http://www.w3.org/1999/xlink">
<g id="graph0" class="graph" transform="scale(1 1) rotate(0) translate(4 256)">
<title>g</title>
<polygon fill="white" stroke="none" points="-4,4 -4,-256 657.231,-256 657.231,4 -4,4"/>
<!-- display weapons bar -->
<g id="node1" class="node"><title>display weapons bar</title>
<ellipse fill="none" stroke="black" cx="568.089" cy="-234" rx="85.2851" ry="18"/>
<text text-anchor="middle" x="568.089" y="-230.3" font-family="Times New Roman,serif" font-size="14.00">display weapons bar</text>
</g>
<!-- weapon available? -->
<g id="node2" class="node"><title>weapon available?</title>
<ellipse fill="none" stroke="black" cx="426.089" cy="-162" rx="76.0865" ry="18"/>
<text text-anchor="middle" x="426.089" y="-158.3" font-family="Times New Roman,serif" font-size="14.00">weapon available?</text>
</g>
<!-- display weapons bar&#45;&gt;weapon available? -->
<g id="edge1" class="edge"><title>display weapons bar&#45;&gt;weapon available?</title>
<path fill="none" stroke="black" d="M536.221,-217.291C515.615,-207.133 488.614,-193.822 466.504,-182.923"/>
<polygon fill="black" stroke="black" points="467.878,-179.698 457.361,-178.416 464.783,-185.977 467.878,-179.698"/>
</g>
<!-- display greyed out weapon icon -->
<g id="node3" class="node"><title>display greyed out weapon icon</title>
<ellipse fill="none" stroke="black" cx="126.089" cy="-90" rx="126.178" ry="18"/>
<text text-anchor="middle" x="126.089" y="-86.3" font-family="Times New Roman,serif" font-size="14.00">display greyed out weapon icon</text>
</g>
<!-- weapon available?&#45;&gt;display greyed out weapon icon -->
<g id="edge6" class="edge"><title>weapon available?&#45;&gt;display greyed out weapon icon</title>
<path fill="none" stroke="black" d="M373.833,-148.807C325.394,-137.505 252.869,-120.582 198.789,-107.963"/>
<polygon fill="black" stroke="black" points="199.45,-104.524 188.916,-105.66 197.859,-111.34 199.45,-104.524"/>
</g>
<!-- display weapon icon -->
<g id="node5" class="node"><title>display weapon icon</title>
<ellipse fill="none" stroke="black" cx="355.089" cy="-90" rx="85.2851" ry="18"/>
<text text-anchor="middle" x="355.089" y="-86.3" font-family="Times New Roman,serif" font-size="14.00">display weapon icon</text>
</g>
<!-- weapon available?&#45;&gt;display weapon icon -->
<g id="edge5" class="edge"><title>weapon available?&#45;&gt;display weapon icon</title>
<path fill="none" stroke="black" d="M409.263,-144.411C400.375,-135.648 389.303,-124.732 379.489,-115.057"/>
<polygon fill="black" stroke="black" points="381.866,-112.485 372.287,-107.956 376.951,-117.469 381.866,-112.485"/>
</g>
<!-- Weapon inventory -->
<g id="node6" class="node"><title>Weapon inventory</title>
<ellipse fill="none" stroke="black" cx="535.089" cy="-90" rx="77.1866" ry="18"/>
<text text-anchor="middle" x="535.089" y="-86.3" font-family="Times New Roman,serif" font-size="14.00">Weapon inventory</text>
</g>
<!-- weapon available?&#45;&gt;Weapon inventory -->
<g id="edge4" class="edge"><title>weapon available?&#45;&gt;Weapon inventory</title>
<path fill="none" stroke="black" d="M451.096,-144.941C465.945,-135.405 484.973,-123.184 501.163,-112.787"/>
<polygon fill="black" stroke="black" points="503.298,-115.576 509.821,-107.227 499.515,-109.686 503.298,-115.576"/>
</g>
<!-- Weapons Bar -->
<g id="node4" class="node"><title>Weapons Bar</title>
<ellipse fill="none" stroke="black" cx="355.089" cy="-18" rx="60.3893" ry="18"/>
<text text-anchor="middle" x="355.089" y="-14.3" font-family="Times New Roman,serif" font-size="14.00">Weapons Bar</text>
</g>
<!-- display greyed out weapon icon&#45;&gt;Weapons Bar -->
<g id="edge2" class="edge"><title>display greyed out weapon icon&#45;&gt;Weapons Bar</title>
<path fill="none" stroke="black" d="M176.911,-73.4647C214.892,-61.8548 266.58,-46.055 304.504,-34.4626"/>
<polygon fill="black" stroke="black" points="305.781,-37.7321 314.321,-31.4616 303.735,-31.0378 305.781,-37.7321"/>
</g>
<!-- Weapons Bar&#45;&gt;display weapons bar -->
<g id="edge7" class="edge"><title>Weapons Bar&#45;&gt;display weapons bar</title>
<path fill="none" stroke="black" d="M413.916,-22.2617C484.156,-27.5291 595.404,-40.6921 621.089,-72 654.125,-112.268 616.142,-173.818 589.553,-207.971"/>
<polygon fill="black" stroke="black" points="586.614,-206.042 583.089,-216.034 592.075,-210.421 586.614,-206.042"/>
</g>
<!-- display weapon icon&#45;&gt;Weapons Bar -->
<g id="edge3" class="edge"><title>display weapon icon&#45;&gt;Weapons Bar</title>
<path fill="none" stroke="black" d="M355.089,-71.6966C355.089,-63.9827 355.089,-54.7125 355.089,-46.1124"/>
<polygon fill="black" stroke="black" points="358.589,-46.1043 355.089,-36.1043 351.589,-46.1044 358.589,-46.1043"/>
</g>
</g>
</svg>
