<?xml version="1.0" encoding="UTF-8" standalone="no"?>
<!DOCTYPE svg PUBLIC "-//W3C//DTD SVG 1.1//EN"
 "http://www.w3.org/Graphics/SVG/1.1/DTD/svg11.dtd">
<!-- Generated by graphviz version 2.38.0 (20140413.2041)
 -->
<!-- Title: g Pages: 1 -->
<svg width="1130pt" height="333pt"
 viewBox="0.00 0.00 1130.00 332.50" xmlns="http://www.w3.org/2000/svg" xmlns:xlink="http://www.w3.org/1999/xlink">
<g id="graph0" class="graph" transform="scale(1 1) rotate(0) translate(4 328.5)">
<title>g</title>
<polygon fill="white" stroke="none" points="-4,4 -4,-328.5 1126,-328.5 1126,4 -4,4"/>
<!-- EAID_6B55938F_DEE3_4edf_A306_16EB6390AFD1 -->
<g id="node1" class="node"><title>EAID_6B55938F_DEE3_4edf_A306_16EB6390AFD1</title>
<image xlink:href="img/actor1.png" width="64px" height="90px" preserveAspectRatio="xMinYMin meet" x="10" y="-271"/>
<text text-anchor="start" x="10" y="-157.8" font-family="Times New Roman,serif" font-size="24.00">Admin</text>
</g>
<!-- EAID_A7BED4FC_4263_4774_9A3A_D72B086F8F78 -->
<g id="node2" class="node"><title>EAID_A7BED4FC_4263_4774_9A3A_D72B086F8F78</title>
<image xlink:href="img/boundary3.png" width="115px" height="67px" preserveAspectRatio="xMinYMin meet" x="175.5" y="-211"/>
<text text-anchor="start" x="130.5" y="-120.8" font-family="Times New Roman,serif" font-size="24.00">Vendor approve page</text>
</g>
<!-- EAID_6B55938F_DEE3_4edf_A306_16EB6390AFD1&#45;&gt;EAID_A7BED4FC_4263_4774_9A3A_D72B086F8F78 -->
<g id="edge1" class="edge"><title>EAID_6B55938F_DEE3_4edf_A306_16EB6390AFD1&#45;&gt;EAID_A7BED4FC_4263_4774_9A3A_D72B086F8F78</title>
<path fill="none" stroke="black" d="M84.3671,-200.466C92.2463,-198.46 100.855,-196.268 109.826,-193.983"/>
<polygon fill="black" stroke="black" points="110.859,-197.332 119.686,-191.473 109.132,-190.548 110.859,-197.332"/>
</g>
<!-- EAID_8AF37A4E_8571_459b_8A88_42F3080B91C8 -->
<g id="node3" class="node"><title>EAID_8AF37A4E_8571_459b_8A88_42F3080B91C8</title>
<image xlink:href="img/boundary3.png" width="115px" height="67px" preserveAspectRatio="xMinYMin meet" x="714.5" y="-318"/>
<text text-anchor="start" x="631" y="-227.8" font-family="Times New Roman,serif" font-size="24.00">vendor already exists message</text>
</g>
<!-- EAID_6B55938F_DEE3_4edf_A306_16EB6390AFD1&#45;&gt;EAID_8AF37A4E_8571_459b_8A88_42F3080B91C8 -->
<g id="edge2" class="edge"><title>EAID_6B55938F_DEE3_4edf_A306_16EB6390AFD1&#45;&gt;EAID_8AF37A4E_8571_459b_8A88_42F3080B91C8</title>
<path fill="none" stroke="black" d="M84.3773,-220.699C95.858,-223.089 108.365,-225.415 120,-227 286.395,-249.671 478.41,-260.505 610.558,-265.609"/>
<polygon fill="black" stroke="black" points="610.637,-269.114 620.762,-265.996 610.902,-262.119 610.637,-269.114"/>
</g>
<!-- EAID_C993FC69_786F_4bec_9398_AAC1B55784D3 -->
<g id="node6" class="node"><title>EAID_C993FC69_786F_4bec_9398_AAC1B55784D3</title>
<image xlink:href="img/control1.png" width="106px" height="75px" preserveAspectRatio="xMinYMin meet" x="430" y="-202"/>
<text text-anchor="start" x="391" y="-103.8" font-family="Times New Roman,serif" font-size="24.00">add vendor into list</text>
</g>
<!-- EAID_A7BED4FC_4263_4774_9A3A_D72B086F8F78&#45;&gt;EAID_C993FC69_786F_4bec_9398_AAC1B55784D3 -->
<g id="edge4" class="edge"><title>EAID_A7BED4FC_4263_4774_9A3A_D72B086F8F78&#45;&gt;EAID_C993FC69_786F_4bec_9398_AAC1B55784D3</title>
<path fill="none" stroke="black" d="M345.029,-157.165C353.469,-156.724 361.987,-156.278 370.426,-155.837"/>
<polygon fill="black" stroke="black" points="370.867,-159.319 380.671,-155.301 370.502,-152.328 370.867,-159.319"/>
</g>
<!-- EAID_7693229E_37FB_408d_AC26_3DD41FD56BD6 -->
<g id="node4" class="node"><title>EAID_7693229E_37FB_408d_AC26_3DD41FD56BD6</title>
<image xlink:href="img/control1.png" width="106px" height="75px" preserveAspectRatio="xMinYMin meet" x="719" y="-191"/>
<text text-anchor="start" x="638" y="-92.8" font-family="Times New Roman,serif" font-size="24.00">send email with unique code</text>
</g>
<!-- EAID_25151DD5_E4A6_42d8_9CE0_660CAA6C215E -->
<g id="node5" class="node"><title>EAID_25151DD5_E4A6_42d8_9CE0_660CAA6C215E</title>
<image xlink:href="img/actor1.png" width="82px" height="90px" preserveAspectRatio="xMinYMin meet" x="1000" y="-199"/>
<text text-anchor="start" x="969.5" y="-85.8" font-family="Times New Roman,serif" font-size="24.00">Email protocol</text>
</g>
<!-- EAID_7693229E_37FB_408d_AC26_3DD41FD56BD6&#45;&gt;EAID_25151DD5_E4A6_42d8_9CE0_660CAA6C215E -->
<g id="edge3" class="edge"><title>EAID_7693229E_37FB_408d_AC26_3DD41FD56BD6&#45;&gt;EAID_25151DD5_E4A6_42d8_9CE0_660CAA6C215E</title>
<path fill="none" stroke="black" d="M916.002,-139C927.137,-139 938.181,-139 948.82,-139"/>
<polygon fill="black" stroke="black" points="948.887,-142.5 958.887,-139 948.887,-135.5 948.887,-142.5"/>
</g>
<!-- EAID_C993FC69_786F_4bec_9398_AAC1B55784D3&#45;&gt;EAID_8AF37A4E_8571_459b_8A88_42F3080B91C8 -->
<g id="edge5" class="edge"><title>EAID_C993FC69_786F_4bec_9398_AAC1B55784D3&#45;&gt;EAID_8AF37A4E_8571_459b_8A88_42F3080B91C8</title>
<path fill="none" stroke="black" d="M585.185,-192.308C600.02,-198.51 615.518,-204.99 630.962,-211.447"/>
<polygon fill="black" stroke="black" points="629.988,-214.834 640.564,-215.462 632.688,-208.376 629.988,-214.834"/>
</g>
<!-- EAID_C993FC69_786F_4bec_9398_AAC1B55784D3&#45;&gt;EAID_7693229E_37FB_408d_AC26_3DD41FD56BD6 -->
<g id="edge7" class="edge"><title>EAID_C993FC69_786F_4bec_9398_AAC1B55784D3&#45;&gt;EAID_7693229E_37FB_408d_AC26_3DD41FD56BD6</title>
<path fill="none" stroke="black" d="M585.185,-146.122C595.812,-145.715 606.778,-145.294 617.821,-144.871"/>
<polygon fill="black" stroke="black" points="618.118,-148.362 627.976,-144.482 617.85,-141.367 618.118,-148.362"/>
</g>
<!-- EAID_23BFD83A_9E11_4814_BBF3_260EBCFC42BA -->
<g id="node7" class="node"><title>EAID_23BFD83A_9E11_4814_BBF3_260EBCFC42BA</title>
<image xlink:href="img/activity_icon.png" width="30px" height="20px" preserveAspectRatio="xMinYMin meet" x="757.5" y="-56"/>
<text text-anchor="start" x="736" y="-13.8" font-family="Times New Roman,serif" font-weight="bold" font-size="24.00">vendor</text>
</g>
<!-- EAID_C993FC69_786F_4bec_9398_AAC1B55784D3&#45;&gt;EAID_23BFD83A_9E11_4814_BBF3_260EBCFC42BA -->
<g id="edge6" class="edge"><title>EAID_C993FC69_786F_4bec_9398_AAC1B55784D3&#45;&gt;EAID_23BFD83A_9E11_4814_BBF3_260EBCFC42BA</title>
<path fill="none" stroke="black" d="M578.182,-91.4381C592.241,-83.9546 606.79,-76.8716 621,-71 651.303,-58.4786 686.68,-48.8247 715.465,-42.1406"/>
<polygon fill="black" stroke="black" points="716.373,-45.5237 725.353,-39.9004 714.826,-38.6967 716.373,-45.5237"/>
</g>
</g>
</svg>
