<?xml version="1.0" encoding="UTF-8" standalone="no"?>
<!DOCTYPE svg PUBLIC "-//W3C//DTD SVG 1.1//EN"
 "http://www.w3.org/Graphics/SVG/1.1/DTD/svg11.dtd">
<!-- Generated by graphviz version 2.38.0 (20140413.2041)
 -->
<!-- Title: g Pages: 1 -->
<svg width="404pt" height="188pt"
 viewBox="0.00 0.00 404.29 188.00" xmlns="http://www.w3.org/2000/svg" xmlns:xlink="http://www.w3.org/1999/xlink">
<g id="graph0" class="graph" transform="scale(1 1) rotate(0) translate(4 184)">
<title>g</title>
<polygon fill="white" stroke="none" points="-4,4 -4,-184 400.287,-184 400.287,4 -4,4"/>
<!-- Check username and password -->
<g id="node1" class="node"><title>Check username and password</title>
<ellipse fill="none" stroke="black" cx="205.594" cy="-162" rx="124.278" ry="18"/>
<text text-anchor="middle" x="205.594" y="-158.3" font-family="Times New Roman,serif" font-size="14.00">Check username and password</text>
</g>
<!-- User -->
<g id="node2" class="node"><title>User</title>
<ellipse fill="none" stroke="black" cx="140.594" cy="-90" rx="27.8951" ry="18"/>
<text text-anchor="middle" x="140.594" y="-86.3" font-family="Times New Roman,serif" font-size="14.00">User</text>
</g>
<!-- Check username and password&#45;&gt;User -->
<g id="edge1" class="edge"><title>Check username and password&#45;&gt;User</title>
<path fill="none" stroke="black" d="M189.859,-144.055C181.321,-134.86 170.657,-123.375 161.436,-113.445"/>
<polygon fill="black" stroke="black" points="163.788,-110.834 154.419,-105.888 158.658,-115.598 163.788,-110.834"/>
</g>
<!-- App Main Page -->
<g id="node3" class="node"><title>App Main Page</title>
<ellipse fill="none" stroke="black" cx="67.594" cy="-18" rx="67.6881" ry="18"/>
<text text-anchor="middle" x="67.594" y="-14.3" font-family="Times New Roman,serif" font-size="14.00">App Main Page</text>
</g>
<!-- Check username and password&#45;&gt;App Main Page -->
<g id="edge2" class="edge"><title>Check username and password&#45;&gt;App Main Page</title>
<path fill="none" stroke="black" d="M159.355,-145.253C140.035,-136.747 118.632,-124.536 103.594,-108 87.793,-90.6246 78.4798,-65.4134 73.2994,-46.2563"/>
<polygon fill="black" stroke="black" points="76.6398,-45.1855 70.8316,-36.3245 69.8464,-46.8735 76.6398,-45.1855"/>
</g>
<!-- Login Page -->
<g id="node4" class="node"><title>Login Page</title>
<ellipse fill="none" stroke="black" cx="205.594" cy="-18" rx="51.9908" ry="18"/>
<text text-anchor="middle" x="205.594" y="-14.3" font-family="Times New Roman,serif" font-size="14.00">Login Page</text>
</g>
<!-- Check username and password&#45;&gt;Login Page -->
<g id="edge3" class="edge"><title>Check username and password&#45;&gt;Login Page</title>
<path fill="none" stroke="black" d="M201.01,-143.871C198.451,-119.67 198.16,-75.2108 200.135,-46.3932"/>
<polygon fill="black" stroke="black" points="203.643,-46.45 201.003,-36.1893 196.668,-45.8566 203.643,-46.45"/>
</g>
<!-- Facebook Service -->
<g id="node5" class="node"><title>Facebook Service</title>
<ellipse fill="none" stroke="black" cx="319.594" cy="-90" rx="76.8869" ry="18"/>
<text text-anchor="middle" x="319.594" y="-86.3" font-family="Times New Roman,serif" font-size="14.00">Facebook Service</text>
</g>
<!-- Check username and password&#45;&gt;Facebook Service -->
<g id="edge4" class="edge"><title>Check username and password&#45;&gt;Facebook Service</title>
<path fill="none" stroke="black" d="M232.61,-144.411C248.166,-134.859 267.886,-122.751 284.615,-112.478"/>
<polygon fill="black" stroke="black" points="286.866,-115.203 293.556,-106.988 283.203,-109.238 286.866,-115.203"/>
</g>
<!-- User&#45;&gt;App Main Page -->
<g id="edge6" class="edge"><title>User&#45;&gt;App Main Page</title>
<path fill="none" stroke="black" d="M125.468,-74.496C115.832,-65.2554 103.126,-53.0719 92.0751,-42.475"/>
<polygon fill="black" stroke="black" points="94.387,-39.8428 84.7467,-35.4478 89.5422,-44.8953 94.387,-39.8428"/>
</g>
<!-- User&#45;&gt;Login Page -->
<g id="edge7" class="edge"><title>User&#45;&gt;Login Page</title>
<path fill="none" stroke="black" d="M154.379,-74.1548C162.813,-65.0723 173.797,-53.243 183.429,-42.8696"/>
<polygon fill="black" stroke="black" points="186.227,-45 190.467,-35.2905 181.098,-40.2368 186.227,-45"/>
</g>
<!-- Login Page&#45;&gt;Check username and password -->
<g id="edge5" class="edge"><title>Login Page&#45;&gt;Check username and password</title>
<path fill="none" stroke="black" d="M210.185,-36.1893C212.739,-60.4244 213.027,-104.888 211.048,-133.679"/>
<polygon fill="black" stroke="black" points="207.541,-133.61 210.178,-143.871 214.516,-134.205 207.541,-133.61"/>
</g>
</g>
</svg>
