<?xml version="1.0" encoding="UTF-8" standalone="no"?>
<!DOCTYPE svg PUBLIC "-//W3C//DTD SVG 1.1//EN"
 "http://www.w3.org/Graphics/SVG/1.1/DTD/svg11.dtd">
<!-- Generated by graphviz version 2.38.0 (20140413.2041)
 -->
<!-- Title: g Pages: 1 -->
<svg width="2955pt" height="889pt"
 viewBox="0.00 0.00 2955.00 889.00" xmlns="http://www.w3.org/2000/svg" xmlns:xlink="http://www.w3.org/1999/xlink">
<g id="graph0" class="graph" transform="scale(1 1) rotate(0) translate(4 885)">
<title>g</title>
<polygon fill="white" stroke="none" points="-4,4 -4,-885 2951,-885 2951,4 -4,4"/>
<g id="clust1" class="cluster"><title>cluster0</title>
<polygon fill="none" stroke="black" stroke-width="2" points="336,-359 336,-762 1046,-762 1046,-359 336,-359"/>
<text text-anchor="start" x="669" y="-747.8" font-family="Times New Roman,serif" font-weight="bold" font-size="14.00">System</text>
</g>
<g id="clust2" class="cluster"><title>cluster1</title>
<polygon fill="none" stroke="black" stroke-width="2" points="441,-770 441,-873 1045,-873 1045,-770 441,-770"/>
<text text-anchor="start" x="728.5" y="-858.8" font-family="Times New Roman,serif" font-weight="bold" font-size="14.00">User</text>
</g>
<g id="clust3" class="cluster"><title>cluster1000</title>
<polygon fill="none" stroke="black" stroke-width="2" points="194,-8 194,-351 2939,-351 2939,-8 194,-8"/>
<text text-anchor="start" x="1521" y="-336.8" font-family="Times New Roman,serif" font-weight="bold" font-size="14.00">Domain Model</text>
</g>
<!-- EAID_FFBD69FD_A9FB_47ac_8AA7_B2191D484456___EAID_0E1391CB_ADDA_4de7_8B73_25B32686CBDC -->
<g id="node1" class="node"><title>EAID_FFBD69FD_A9FB_47ac_8AA7_B2191D484456___EAID_0E1391CB_ADDA_4de7_8B73_25B32686CBDC</title>
<image xlink:href="img/activity_icon.png" width="30px" height="20px" preserveAspectRatio="xMinYMin meet" x="934.5" y="-725"/>
<text text-anchor="start" x="877" y="-690.8" font-family="Times New Roman,serif" font-weight="bold" font-size="14.00">User:Error message for</text>
<text text-anchor="start" x="894.5" y="-676.8" font-family="Times New Roman,serif" font-weight="bold" font-size="14.00">wrong credentials</text>
</g>
<!-- EAID_03E7E934_9DA7_46ff_8625_966F72DE2941 -->
<g id="node21" class="node"><title>EAID_03E7E934_9DA7_46ff_8625_966F72DE2941</title>
<polygon fill="none" stroke="black" points="510,-231 510,-252 751,-252 751,-231 510,-231"/>
<text text-anchor="start" x="581.5" y="-238.8" font-family="Times New Roman,serif" font-weight="bold" font-size="14.00">successmessage</text>
<polygon fill="none" stroke="black" points="510,-210 510,-231 751,-231 751,-210 510,-210"/>
<text text-anchor="start" x="577" y="-217.8" font-family="Times New Roman,serif" font-weight="bold" font-size="14.00">successmessage()</text>
<polygon fill="none" stroke="black" points="510,-189 510,-210 751,-210 751,-189 510,-189"/>
<text text-anchor="start" x="572.5" y="-196.8" font-family="Times New Roman,serif" font-weight="bold" font-size="14.00">emptylistmessage()</text>
<polygon fill="none" stroke="black" points="510,-168 510,-189 751,-189 751,-168 510,-168"/>
<text text-anchor="start" x="536" y="-175.8" font-family="Times New Roman,serif" font-weight="bold" font-size="14.00">accountalreadyexistsmessage()</text>
<polygon fill="none" stroke="black" points="510,-147 510,-168 751,-168 751,-147 510,-147"/>
<text text-anchor="start" x="520.5" y="-154.8" font-family="Times New Roman,serif" font-weight="bold" font-size="14.00">Errormessageforwrongcredentials()</text>
<polygon fill="none" stroke="black" points="510,-126 510,-147 751,-147 751,-126 510,-126"/>
<text text-anchor="start" x="513" y="-133.8" font-family="Times New Roman,serif" font-weight="bold" font-size="14.00">errormessagenoinvitessendmessaage()</text>
<polygon fill="none" stroke="black" points="510,-105 510,-126 751,-126 751,-105 510,-105"/>
<text text-anchor="start" x="561" y="-112.8" font-family="Times New Roman,serif" font-weight="bold" font-size="14.00">confirmationmessage()</text>
<polygon fill="none" stroke="black" points="510,-84 510,-105 751,-105 751,-84 510,-84"/>
<text text-anchor="start" x="565.5" y="-91.8" font-family="Times New Roman,serif" font-weight="bold" font-size="14.00">deleteerrormessage()</text>
<polygon fill="none" stroke="black" points="508.5,-83 508.5,-253 751.5,-253 751.5,-83 508.5,-83"/>
</g>
<!-- EAID_FFBD69FD_A9FB_47ac_8AA7_B2191D484456___EAID_0E1391CB_ADDA_4de7_8B73_25B32686CBDC&#45;&gt;EAID_03E7E934_9DA7_46ff_8625_966F72DE2941 -->
<g id="edge10" class="edge"><title>EAID_FFBD69FD_A9FB_47ac_8AA7_B2191D484456___EAID_0E1391CB_ADDA_4de7_8B73_25B32686CBDC&#45;&gt;EAID_03E7E934_9DA7_46ff_8625_966F72DE2941</title>
<path fill="none" stroke="black" stroke-dasharray="5,2" d="M1031.78,-672.696C1050.85,-662.81 1068.8,-649.304 1080,-631 1119.41,-566.579 1128.23,-430.394 1047,-359 1035.35,-348.763 781.787,-358.097 768,-351 731.435,-332.179 701.847,-298.737 679.585,-265.61"/>
<polygon fill="black" stroke="black" points="682.488,-263.654 674.083,-257.204 676.631,-267.488 682.488,-263.654"/>
</g>
<!-- EAID_FFBD69FD_A9FB_47ac_8AA7_B2191D484456___EAID_6A5D6994_D62A_4198_A5AD_626D2CF5FEFB -->
<g id="node2" class="node"><title>EAID_FFBD69FD_A9FB_47ac_8AA7_B2191D484456___EAID_6A5D6994_D62A_4198_A5AD_626D2CF5FEFB</title>
<image xlink:href="img/activity_icon.png" width="30px" height="20px" preserveAspectRatio="xMinYMin meet" x="711" y="-718"/>
<text text-anchor="start" x="642" y="-683.8" font-family="Times New Roman,serif" font-weight="bold" font-size="14.00">User:enter credentials page</text>
</g>
<!-- EAID_6A5D6994_D62A_4198_A5AD_626D2CF5FEFB___EAID_7464DDB3_42D0_486f_9FD7_0746D1C543FB -->
<g id="node7" class="node"><title>EAID_6A5D6994_D62A_4198_A5AD_626D2CF5FEFB___EAID_7464DDB3_42D0_486f_9FD7_0746D1C543FB</title>
<image xlink:href="img/activity_icon.png" width="30px" height="20px" preserveAspectRatio="xMinYMin meet" x="689.5" y="-625"/>
<text text-anchor="start" x="617" y="-590.8" font-family="Times New Roman,serif" font-weight="bold" font-size="14.00">enter credentials page:check</text>
<text text-anchor="start" x="671" y="-576.8" font-family="Times New Roman,serif" font-weight="bold" font-size="14.00">credentials</text>
</g>
<!-- EAID_FFBD69FD_A9FB_47ac_8AA7_B2191D484456___EAID_6A5D6994_D62A_4198_A5AD_626D2CF5FEFB&#45;&gt;EAID_6A5D6994_D62A_4198_A5AD_626D2CF5FEFB___EAID_7464DDB3_42D0_486f_9FD7_0746D1C543FB -->
<g id="edge2" class="edge"><title>EAID_FFBD69FD_A9FB_47ac_8AA7_B2191D484456___EAID_6A5D6994_D62A_4198_A5AD_626D2CF5FEFB&#45;&gt;EAID_6A5D6994_D62A_4198_A5AD_626D2CF5FEFB___EAID_7464DDB3_42D0_486f_9FD7_0746D1C543FB</title>
<path fill="none" stroke="black" d="M720.448,-673.27C718.246,-663.459 715.653,-651.911 713.186,-640.921"/>
<polygon fill="black" stroke="black" points="716.576,-640.04 710.97,-631.05 709.746,-641.574 716.576,-640.04"/>
</g>
<!-- EAID_D1C8AE0E_5893_488d_AA7F_7890F9D79735 -->
<g id="node19" class="node"><title>EAID_D1C8AE0E_5893_488d_AA7F_7890F9D79735</title>
<polygon fill="none" stroke="black" points="1002,-231 1002,-252 1174,-252 1174,-231 1002,-231"/>
<text text-anchor="start" x="1025" y="-238.8" font-family="Times New Roman,serif" font-weight="bold" font-size="14.00">UserSpecificContent</text>
<polygon fill="none" stroke="black" points="1002,-210 1002,-231 1174,-231 1174,-210 1002,-210"/>
<text text-anchor="start" x="1005" y="-217.8" font-family="Times New Roman,serif" font-weight="bold" font-size="14.00">EAJava_int user_image_id</text>
<polygon fill="none" stroke="black" points="1002,-189 1002,-210 1174,-210 1174,-189 1002,-189"/>
<text text-anchor="start" x="1017" y="-196.8" font-family="Times New Roman,serif" font-weight="bold" font-size="14.00">EAJava_varchar name</text>
<polygon fill="none" stroke="black" points="1002,-168 1002,-189 1174,-189 1174,-168 1002,-168"/>
<text text-anchor="start" x="1020" y="-175.8" font-family="Times New Roman,serif" font-weight="bold" font-size="14.00">EAJava_varchar path</text>
<polygon fill="none" stroke="black" points="1002,-147 1002,-168 1174,-168 1174,-147 1002,-147"/>
<text text-anchor="start" x="1037" y="-154.8" font-family="Times New Roman,serif" font-weight="bold" font-size="14.00">EAJava_int c_id</text>
<polygon fill="none" stroke="black" points="1002,-126 1002,-147 1174,-147 1174,-126 1002,-126"/>
<text text-anchor="start" x="1020.5" y="-133.8" font-family="Times New Roman,serif" font-weight="bold" font-size="14.00">UserSpecificContent()</text>
<polygon fill="none" stroke="black" points="1002,-105 1002,-126 1174,-126 1174,-105 1002,-105"/>
<text text-anchor="start" x="1010" y="-112.8" font-family="Times New Roman,serif" font-weight="bold" font-size="14.00">Positionsandcontentinfo()</text>
<polygon fill="none" stroke="black" points="1002,-84 1002,-105 1174,-105 1174,-84 1002,-84"/>
<text text-anchor="start" x="1019.5" y="-91.8" font-family="Times New Roman,serif" font-weight="bold" font-size="14.00">entercredentialspage()</text>
<polygon fill="none" stroke="black" points="1001,-83 1001,-253 1175,-253 1175,-83 1001,-83"/>
</g>
<!-- EAID_FFBD69FD_A9FB_47ac_8AA7_B2191D484456___EAID_6A5D6994_D62A_4198_A5AD_626D2CF5FEFB&#45;&gt;EAID_D1C8AE0E_5893_488d_AA7F_7890F9D79735 -->
<g id="edge11" class="edge"><title>EAID_FFBD69FD_A9FB_47ac_8AA7_B2191D484456___EAID_6A5D6994_D62A_4198_A5AD_626D2CF5FEFB&#45;&gt;EAID_D1C8AE0E_5893_488d_AA7F_7890F9D79735</title>
<path fill="none" stroke="black" stroke-dasharray="5,2" d="M818.375,-673.389C889.924,-649.289 985.291,-605.145 1037,-531 1090.6,-454.151 1099.34,-345.558 1097.13,-267.385"/>
<polygon fill="black" stroke="black" points="1100.62,-266.918 1096.77,-257.046 1093.62,-267.161 1100.62,-266.918"/>
</g>
<!-- EAID_FFBD69FD_A9FB_47ac_8AA7_B2191D484456___EAID_F1C8E4CB_E4D7_420c_8389_0B17F8BB882E -->
<g id="node3" class="node"><title>EAID_FFBD69FD_A9FB_47ac_8AA7_B2191D484456___EAID_F1C8E4CB_E4D7_420c_8389_0B17F8BB882E</title>
<image xlink:href="img/activity_icon.png" width="30px" height="20px" preserveAspectRatio="xMinYMin meet" x="436" y="-718"/>
<text text-anchor="start" x="395" y="-683.8" font-family="Times New Roman,serif" font-weight="bold" font-size="14.00">User:Login screen</text>
</g>
<!-- EAID_F1C8E4CB_E4D7_420c_8389_0B17F8BB882E -->
<g id="node23" class="node"><title>EAID_F1C8E4CB_E4D7_420c_8389_0B17F8BB882E</title>
<text text-anchor="middle" x="164" y="-395.3" font-family="Times New Roman,serif" font-size="14.00">EAID_F1C8E4CB_E4D7_420c_8389_0B17F8BB882E</text>
</g>
<!-- EAID_FFBD69FD_A9FB_47ac_8AA7_B2191D484456___EAID_F1C8E4CB_E4D7_420c_8389_0B17F8BB882E&#45;&gt;EAID_F1C8E4CB_E4D7_420c_8389_0B17F8BB882E -->
<g id="edge12" class="edge"><title>EAID_FFBD69FD_A9FB_47ac_8AA7_B2191D484456___EAID_F1C8E4CB_E4D7_420c_8389_0B17F8BB882E&#45;&gt;EAID_F1C8E4CB_E4D7_420c_8389_0B17F8BB882E</title>
<path fill="none" stroke="black" stroke-dasharray="5,2" d="M409.425,-673.348C362.573,-643.999 286.277,-591.306 235,-531 207.689,-498.88 186.375,-454.56 174.492,-426.594"/>
<polygon fill="black" stroke="black" points="177.611,-424.98 170.547,-417.084 171.145,-427.662 177.611,-424.98"/>
</g>
<!-- EAID_7464DDB3_42D0_486f_9FD7_0746D1C543FB___EAID_0E1391CB_ADDA_4de7_8B73_25B32686CBDC -->
<g id="node4" class="node"><title>EAID_7464DDB3_42D0_486f_9FD7_0746D1C543FB___EAID_0E1391CB_ADDA_4de7_8B73_25B32686CBDC</title>
<image xlink:href="img/activity_icon.png" width="30px" height="20px" preserveAspectRatio="xMinYMin meet" x="678" y="-525"/>
<text text-anchor="start" x="592" y="-490.8" font-family="Times New Roman,serif" font-weight="bold" font-size="14.00">check credentials:Error message</text>
<text text-anchor="start" x="627" y="-476.8" font-family="Times New Roman,serif" font-weight="bold" font-size="14.00">for wrong credentials</text>
</g>
<!-- EAID_7464DDB3_42D0_486f_9FD7_0746D1C543FB___EAID_0E1391CB_ADDA_4de7_8B73_25B32686CBDC&#45;&gt;EAID_03E7E934_9DA7_46ff_8625_966F72DE2941 -->
<g id="edge13" class="edge"><title>EAID_7464DDB3_42D0_486f_9FD7_0746D1C543FB___EAID_0E1391CB_ADDA_4de7_8B73_25B32686CBDC&#45;&gt;EAID_03E7E934_9DA7_46ff_8625_966F72DE2941</title>
<path fill="none" stroke="black" stroke-dasharray="5,2" d="M687.016,-466.752C678.322,-421.347 661.812,-335.131 648.787,-267.112"/>
<polygon fill="black" stroke="black" points="652.211,-266.379 646.892,-257.216 645.336,-267.696 652.211,-266.379"/>
</g>
<!-- EAID_7464DDB3_42D0_486f_9FD7_0746D1C543FB___EAID_5D315091_D717_44df_8D89_FE8A56E8A82E -->
<g id="node5" class="node"><title>EAID_7464DDB3_42D0_486f_9FD7_0746D1C543FB___EAID_5D315091_D717_44df_8D89_FE8A56E8A82E</title>
<image xlink:href="img/activity_icon.png" width="30px" height="20px" preserveAspectRatio="xMinYMin meet" x="905.5" y="-525"/>
<text text-anchor="start" x="833" y="-490.8" font-family="Times New Roman,serif" font-weight="bold" font-size="14.00">check credentials:redirect to</text>
<text text-anchor="start" x="883.5" y="-476.8" font-family="Times New Roman,serif" font-weight="bold" font-size="14.00">login screen</text>
</g>
<!-- EAID_5D315091_D717_44df_8D89_FE8A56E8A82E___EAID_6A5D6994_D62A_4198_A5AD_626D2CF5FEFB -->
<g id="node8" class="node"><title>EAID_5D315091_D717_44df_8D89_FE8A56E8A82E___EAID_6A5D6994_D62A_4198_A5AD_626D2CF5FEFB</title>
<image xlink:href="img/activity_icon.png" width="30px" height="20px" preserveAspectRatio="xMinYMin meet" x="923.5" y="-425"/>
<text text-anchor="start" x="889.5" y="-390.8" font-family="Times New Roman,serif" font-weight="bold" font-size="14.00">redirect to login</text>
<text text-anchor="start" x="849" y="-376.8" font-family="Times New Roman,serif" font-weight="bold" font-size="14.00">screen:enter credentials page</text>
</g>
<!-- EAID_7464DDB3_42D0_486f_9FD7_0746D1C543FB___EAID_5D315091_D717_44df_8D89_FE8A56E8A82E&#45;&gt;EAID_5D315091_D717_44df_8D89_FE8A56E8A82E___EAID_6A5D6994_D62A_4198_A5AD_626D2CF5FEFB -->
<g id="edge5" class="edge"><title>EAID_7464DDB3_42D0_486f_9FD7_0746D1C543FB___EAID_5D315091_D717_44df_8D89_FE8A56E8A82E&#45;&gt;EAID_5D315091_D717_44df_8D89_FE8A56E8A82E___EAID_6A5D6994_D62A_4198_A5AD_626D2CF5FEFB</title>
<path fill="none" stroke="black" d="M925.695,-466.992C927.206,-458.77 928.86,-449.763 930.452,-441.095"/>
<polygon fill="black" stroke="black" points="933.916,-441.61 932.28,-431.142 927.031,-440.346 933.916,-441.61"/>
</g>
<!-- EAID_7464DDB3_42D0_486f_9FD7_0746D1C543FB___EAID_5D315091_D717_44df_8D89_FE8A56E8A82E&#45;&gt;EAID_F1C8E4CB_E4D7_420c_8389_0B17F8BB882E -->
<g id="edge14" class="edge"><title>EAID_7464DDB3_42D0_486f_9FD7_0746D1C543FB___EAID_5D315091_D717_44df_8D89_FE8A56E8A82E&#45;&gt;EAID_F1C8E4CB_E4D7_420c_8389_0B17F8BB882E</title>
<path fill="none" stroke="black" stroke-dasharray="5,2" d="M822.231,-468.796C819.128,-468.15 816.045,-467.549 813,-467 602.025,-428.968 544.606,-458.49 332,-431 307.44,-427.824 281.03,-423.423 256.588,-418.932"/>
<polygon fill="black" stroke="black" points="257.079,-415.464 246.608,-417.074 255.798,-422.345 257.079,-415.464"/>
</g>
<!-- EAID_7464DDB3_42D0_486f_9FD7_0746D1C543FB___EAID_7CB17F53_B31B_46bb_9300_F338ABDA4E19 -->
<g id="node6" class="node"><title>EAID_7464DDB3_42D0_486f_9FD7_0746D1C543FB___EAID_7CB17F53_B31B_46bb_9300_F338ABDA4E19</title>
<image xlink:href="img/activity_icon.png" width="30px" height="20px" preserveAspectRatio="xMinYMin meet" x="439.5" y="-518"/>
<text text-anchor="start" x="355" y="-483.8" font-family="Times New Roman,serif" font-weight="bold" font-size="14.00">check credentials:credential info</text>
</g>
<!-- EAID_7464DDB3_42D0_486f_9FD7_0746D1C543FB___EAID_7CB17F53_B31B_46bb_9300_F338ABDA4E19&#45;&gt;EAID_F1C8E4CB_E4D7_420c_8389_0B17F8BB882E -->
<g id="edge15" class="edge"><title>EAID_7464DDB3_42D0_486f_9FD7_0746D1C543FB___EAID_7CB17F53_B31B_46bb_9300_F338ABDA4E19&#45;&gt;EAID_F1C8E4CB_E4D7_420c_8389_0B17F8BB882E</title>
<path fill="none" stroke="black" stroke-dasharray="5,2" d="M381.195,-473.397C332.739,-457.022 269.84,-435.767 224.211,-420.347"/>
<polygon fill="black" stroke="black" points="225.053,-416.937 214.458,-417.051 222.812,-423.569 225.053,-416.937"/>
</g>
<!-- EAID_6A5D6994_D62A_4198_A5AD_626D2CF5FEFB___EAID_7464DDB3_42D0_486f_9FD7_0746D1C543FB&#45;&gt;EAID_7464DDB3_42D0_486f_9FD7_0746D1C543FB___EAID_0E1391CB_ADDA_4de7_8B73_25B32686CBDC -->
<g id="edge6" class="edge"><title>EAID_6A5D6994_D62A_4198_A5AD_626D2CF5FEFB___EAID_7464DDB3_42D0_486f_9FD7_0746D1C543FB&#45;&gt;EAID_7464DDB3_42D0_486f_9FD7_0746D1C543FB___EAID_0E1391CB_ADDA_4de7_8B73_25B32686CBDC</title>
<path fill="none" stroke="black" d="M700.52,-566.992C699.597,-558.77 698.586,-549.763 697.613,-541.095"/>
<polygon fill="black" stroke="black" points="701.089,-540.69 696.496,-531.142 694.133,-541.47 701.089,-540.69"/>
</g>
<!-- EAID_6A5D6994_D62A_4198_A5AD_626D2CF5FEFB___EAID_7464DDB3_42D0_486f_9FD7_0746D1C543FB&#45;&gt;EAID_7464DDB3_42D0_486f_9FD7_0746D1C543FB___EAID_5D315091_D717_44df_8D89_FE8A56E8A82E -->
<g id="edge7" class="edge"><title>EAID_6A5D6994_D62A_4198_A5AD_626D2CF5FEFB___EAID_7464DDB3_42D0_486f_9FD7_0746D1C543FB&#45;&gt;EAID_7464DDB3_42D0_486f_9FD7_0746D1C543FB___EAID_5D315091_D717_44df_8D89_FE8A56E8A82E</title>
<path fill="none" stroke="black" d="M772.344,-566.992C794.504,-556.938 819.251,-545.71 842.056,-535.363"/>
<polygon fill="black" stroke="black" points="843.699,-538.461 851.359,-531.142 840.807,-532.087 843.699,-538.461"/>
</g>
<!-- EAID_6A5D6994_D62A_4198_A5AD_626D2CF5FEFB___EAID_7464DDB3_42D0_486f_9FD7_0746D1C543FB&#45;&gt;EAID_7464DDB3_42D0_486f_9FD7_0746D1C543FB___EAID_7CB17F53_B31B_46bb_9300_F338ABDA4E19 -->
<g id="edge8" class="edge"><title>EAID_6A5D6994_D62A_4198_A5AD_626D2CF5FEFB___EAID_7464DDB3_42D0_486f_9FD7_0746D1C543FB&#45;&gt;EAID_7464DDB3_42D0_486f_9FD7_0746D1C543FB___EAID_7CB17F53_B31B_46bb_9300_F338ABDA4E19</title>
<path fill="none" stroke="black" d="M624.898,-566.992C593.266,-554.592 557.08,-540.407 526.174,-528.292"/>
<polygon fill="black" stroke="black" points="527.35,-524.994 516.763,-524.603 524.796,-531.511 527.35,-524.994"/>
</g>
<!-- EAID_6A5D6994_D62A_4198_A5AD_626D2CF5FEFB___EAID_7464DDB3_42D0_486f_9FD7_0746D1C543FB&#45;&gt;EAID_F1C8E4CB_E4D7_420c_8389_0B17F8BB882E -->
<g id="edge16" class="edge"><title>EAID_6A5D6994_D62A_4198_A5AD_626D2CF5FEFB___EAID_7464DDB3_42D0_486f_9FD7_0746D1C543FB&#45;&gt;EAID_F1C8E4CB_E4D7_420c_8389_0B17F8BB882E</title>
<path fill="none" stroke="black" stroke-dasharray="5,2" d="M606.31,-592.829C529.723,-585.854 421.928,-569.472 335,-531 276.046,-504.908 218.948,-454.552 187.94,-424.443"/>
<polygon fill="black" stroke="black" points="190.216,-421.772 180.634,-417.252 185.306,-426.761 190.216,-421.772"/>
</g>
<!-- EAID_5D315091_D717_44df_8D89_FE8A56E8A82E___EAID_6A5D6994_D62A_4198_A5AD_626D2CF5FEFB&#45;&gt;EAID_6A5D6994_D62A_4198_A5AD_626D2CF5FEFB___EAID_7464DDB3_42D0_486f_9FD7_0746D1C543FB -->
<g id="edge9" class="edge"><title>EAID_5D315091_D717_44df_8D89_FE8A56E8A82E___EAID_6A5D6994_D62A_4198_A5AD_626D2CF5FEFB&#45;&gt;EAID_6A5D6994_D62A_4198_A5AD_626D2CF5FEFB___EAID_7464DDB3_42D0_486f_9FD7_0746D1C543FB</title>
<path fill="none" stroke="black" d="M995.644,-431.113C1008.24,-440.835 1019.92,-452.809 1027,-467 1039.7,-492.453 1044.95,-508.939 1027,-531 1000.03,-564.133 894.805,-581.403 811.687,-590.046"/>
<polygon fill="black" stroke="black" points="811.265,-586.57 801.667,-591.057 811.968,-593.535 811.265,-586.57"/>
</g>
<!-- EAID_5D315091_D717_44df_8D89_FE8A56E8A82E___EAID_6A5D6994_D62A_4198_A5AD_626D2CF5FEFB&#45;&gt;EAID_D1C8AE0E_5893_488d_AA7F_7890F9D79735 -->
<g id="edge17" class="edge"><title>EAID_5D315091_D717_44df_8D89_FE8A56E8A82E___EAID_6A5D6994_D62A_4198_A5AD_626D2CF5FEFB&#45;&gt;EAID_D1C8AE0E_5893_488d_AA7F_7890F9D79735</title>
<path fill="none" stroke="black" stroke-dasharray="5,2" d="M970.583,-366.888C975.308,-361.769 979.94,-356.375 984,-351 1003.88,-324.683 1022.71,-294.191 1038.76,-265.777"/>
<polygon fill="black" stroke="black" points="1041.82,-267.47 1043.64,-257.033 1035.71,-264.055 1041.82,-267.47"/>
</g>
<!-- EAID_FFBD69FD_A9FB_47ac_8AA7_B2191D484456___EAID_0E1391CB_ADDA_4de7_8B73_25B32686CBDC_STL -->
<g id="node9" class="node"><title>EAID_FFBD69FD_A9FB_47ac_8AA7_B2191D484456___EAID_0E1391CB_ADDA_4de7_8B73_25B32686CBDC_STL</title>
<image xlink:href="img/stimulus_icon.png" width="30px" height="20px" preserveAspectRatio="xMinYMin meet" x="928.5" y="-836"/>
<text text-anchor="start" x="860" y="-801.8" font-family="Times New Roman,serif" font-weight="bold" font-size="14.00">stl#User:Error message for</text>
<text text-anchor="start" x="888.5" y="-787.8" font-family="Times New Roman,serif" font-weight="bold" font-size="14.00">wrong credentials</text>
</g>
<!-- EAID_FFBD69FD_A9FB_47ac_8AA7_B2191D484456___EAID_0E1391CB_ADDA_4de7_8B73_25B32686CBDC_STL&#45;&gt;EAID_FFBD69FD_A9FB_47ac_8AA7_B2191D484456___EAID_0E1391CB_ADDA_4de7_8B73_25B32686CBDC -->
<g id="edge1" class="edge"><title>EAID_FFBD69FD_A9FB_47ac_8AA7_B2191D484456___EAID_0E1391CB_ADDA_4de7_8B73_25B32686CBDC_STL&#45;&gt;EAID_FFBD69FD_A9FB_47ac_8AA7_B2191D484456___EAID_0E1391CB_ADDA_4de7_8B73_25B32686CBDC</title>
<path fill="none" stroke="black" d="M944.719,-777.765C945.341,-766.477 946.052,-753.549 946.715,-741.518"/>
<polygon fill="black" stroke="black" points="950.225,-741.417 947.28,-731.24 943.236,-741.032 950.225,-741.417"/>
</g>
<!-- EAID_FFBD69FD_A9FB_47ac_8AA7_B2191D484456___EAID_6A5D6994_D62A_4198_A5AD_626D2CF5FEFB_STL -->
<g id="node10" class="node"><title>EAID_FFBD69FD_A9FB_47ac_8AA7_B2191D484456___EAID_6A5D6994_D62A_4198_A5AD_626D2CF5FEFB_STL</title>
<image xlink:href="img/stimulus_icon.png" width="30px" height="20px" preserveAspectRatio="xMinYMin meet" x="711" y="-829"/>
<text text-anchor="start" x="631" y="-794.8" font-family="Times New Roman,serif" font-weight="bold" font-size="14.00">stl#User:enter credentials page</text>
</g>
<!-- EAID_FFBD69FD_A9FB_47ac_8AA7_B2191D484456___EAID_6A5D6994_D62A_4198_A5AD_626D2CF5FEFB_STL&#45;&gt;EAID_FFBD69FD_A9FB_47ac_8AA7_B2191D484456___EAID_6A5D6994_D62A_4198_A5AD_626D2CF5FEFB -->
<g id="edge3" class="edge"><title>EAID_FFBD69FD_A9FB_47ac_8AA7_B2191D484456___EAID_6A5D6994_D62A_4198_A5AD_626D2CF5FEFB_STL&#45;&gt;EAID_FFBD69FD_A9FB_47ac_8AA7_B2191D484456___EAID_6A5D6994_D62A_4198_A5AD_626D2CF5FEFB</title>
<path fill="none" stroke="black" d="M726,-784.266C726,-769.633 726,-750.87 726,-734.765"/>
<polygon fill="black" stroke="black" points="729.5,-734.636 726,-724.636 722.5,-734.636 729.5,-734.636"/>
</g>
<!-- EAID_FFBD69FD_A9FB_47ac_8AA7_B2191D484456___EAID_F1C8E4CB_E4D7_420c_8389_0B17F8BB882E_STL -->
<g id="node11" class="node"><title>EAID_FFBD69FD_A9FB_47ac_8AA7_B2191D484456___EAID_F1C8E4CB_E4D7_420c_8389_0B17F8BB882E_STL</title>
<image xlink:href="img/stimulus_icon.png" width="30px" height="20px" preserveAspectRatio="xMinYMin meet" x="511.5" y="-829"/>
<text text-anchor="start" x="460" y="-794.8" font-family="Times New Roman,serif" font-weight="bold" font-size="14.00">stl#User:Login screen</text>
</g>
<!-- EAID_FFBD69FD_A9FB_47ac_8AA7_B2191D484456___EAID_F1C8E4CB_E4D7_420c_8389_0B17F8BB882E_STL&#45;&gt;EAID_FFBD69FD_A9FB_47ac_8AA7_B2191D484456___EAID_F1C8E4CB_E4D7_420c_8389_0B17F8BB882E -->
<g id="edge4" class="edge"><title>EAID_FFBD69FD_A9FB_47ac_8AA7_B2191D484456___EAID_F1C8E4CB_E4D7_420c_8389_0B17F8BB882E_STL&#45;&gt;EAID_FFBD69FD_A9FB_47ac_8AA7_B2191D484456___EAID_F1C8E4CB_E4D7_420c_8389_0B17F8BB882E</title>
<path fill="none" stroke="black" d="M508.981,-784.266C498.529,-769.076 485.015,-749.434 473.663,-732.937"/>
<polygon fill="black" stroke="black" points="476.503,-730.89 467.951,-724.636 470.736,-734.858 476.503,-730.89"/>
</g>
<!-- EAID_06065AE2_07F7_480e_8F95_569BB90FD4F8 -->
<g id="node12" class="node"><title>EAID_06065AE2_07F7_480e_8F95_569BB90FD4F8</title>
<polygon fill="none" stroke="black" points="2702,-231 2702,-252 2922,-252 2922,-231 2702,-231"/>
<text text-anchor="start" x="2795" y="-238.8" font-family="Times New Roman,serif" font-weight="bold" font-size="14.00">Bride</text>
<polygon fill="none" stroke="black" points="2702,-210 2702,-231 2922,-231 2922,-210 2702,-210"/>
<text text-anchor="start" x="2760.5" y="-217.8" font-family="Times New Roman,serif" font-weight="bold" font-size="14.00">EAJava_int b_id</text>
<polygon fill="none" stroke="black" points="2702,-189 2702,-210 2922,-210 2922,-189 2702,-189"/>
<text text-anchor="start" x="2721.5" y="-196.8" font-family="Times New Roman,serif" font-weight="bold" font-size="14.00">EAJava_varchar b_firstname</text>
<polygon fill="none" stroke="black" points="2702,-168 2702,-189 2922,-189 2922,-168 2702,-168"/>
<text text-anchor="start" x="2713.5" y="-175.8" font-family="Times New Roman,serif" font-weight="bold" font-size="14.00">EAJava_varchar b_middlename</text>
<polygon fill="none" stroke="black" points="2702,-147 2702,-168 2922,-168 2922,-147 2702,-147"/>
<text text-anchor="start" x="2723" y="-154.8" font-family="Times New Roman,serif" font-weight="bold" font-size="14.00">EAJava_varchar b_lastname</text>
<polygon fill="none" stroke="black" points="2702,-126 2702,-147 2922,-147 2922,-126 2702,-126"/>
<text text-anchor="start" x="2708.5" y="-133.8" font-family="Times New Roman,serif" font-weight="bold" font-size="14.00">EAJava_varchar b_fathers_name</text>
<polygon fill="none" stroke="black" points="2702,-105 2702,-126 2922,-126 2922,-105 2702,-105"/>
<text text-anchor="start" x="2705" y="-112.8" font-family="Times New Roman,serif" font-weight="bold" font-size="14.00">EAJava_varchar b_mothers_name</text>
<polygon fill="none" stroke="black" points="2702,-84 2702,-105 2922,-105 2922,-84 2702,-84"/>
<text text-anchor="start" x="2790.5" y="-91.8" font-family="Times New Roman,serif" font-weight="bold" font-size="14.00">Bride()</text>
<polygon fill="none" stroke="black" points="2701,-83 2701,-253 2923,-253 2923,-83 2701,-83"/>
</g>
<!-- EAID_ED0232AD_054B_4e08_9D09_3BFD194F28E6 -->
<g id="node13" class="node"><title>EAID_ED0232AD_054B_4e08_9D09_3BFD194F28E6</title>
<polygon fill="none" stroke="black" points="2307,-262 2307,-283 2666,-283 2666,-262 2307,-262"/>
<text text-anchor="start" x="2464.5" y="-269.8" font-family="Times New Roman,serif" font-weight="bold" font-size="14.00">Couple</text>
<polygon fill="none" stroke="black" points="2307,-241 2307,-262 2666,-262 2666,-241 2307,-241"/>
<text text-anchor="start" x="2419" y="-248.8" font-family="Times New Roman,serif" font-weight="bold" font-size="14.00">EAJava_int couple_id</text>
<polygon fill="none" stroke="black" points="2307,-220 2307,-241 2666,-241 2666,-220 2307,-220"/>
<text text-anchor="start" x="2442" y="-227.8" font-family="Times New Roman,serif" font-weight="bold" font-size="14.00">design_invite()</text>
<polygon fill="none" stroke="black" points="2307,-199 2307,-220 2666,-220 2666,-199 2307,-199"/>
<text text-anchor="start" x="2448" y="-206.8" font-family="Times New Roman,serif" font-weight="bold" font-size="14.00">save_invite()</text>
<polygon fill="none" stroke="black" points="2307,-178 2307,-199 2666,-199 2666,-178 2307,-178"/>
<text text-anchor="start" x="2428.5" y="-185.8" font-family="Times New Roman,serif" font-weight="bold" font-size="14.00">update_guest_list()</text>
<polygon fill="none" stroke="black" points="2307,-157 2307,-178 2666,-178 2666,-157 2307,-157"/>
<text text-anchor="start" x="2447.5" y="-164.8" font-family="Times New Roman,serif" font-weight="bold" font-size="14.00">send_invite()</text>
<polygon fill="none" stroke="black" points="2307,-136 2307,-157 2666,-157 2666,-136 2307,-136"/>
<text text-anchor="start" x="2436.5" y="-143.8" font-family="Times New Roman,serif" font-weight="bold" font-size="14.00">view_guestList()</text>
<polygon fill="none" stroke="black" points="2307,-115 2307,-136 2666,-136 2666,-115 2307,-115"/>
<text text-anchor="start" x="2447" y="-122.8" font-family="Times New Roman,serif" font-weight="bold" font-size="14.00">takeSurvey()</text>
<polygon fill="none" stroke="black" points="2307,-94 2307,-115 2666,-115 2666,-94 2307,-94"/>
<text text-anchor="start" x="2427.5" y="-101.8" font-family="Times New Roman,serif" font-weight="bold" font-size="14.00">parseuploadedfile()</text>
<polygon fill="none" stroke="black" points="2307,-73 2307,-94 2666,-94 2666,-73 2307,-73"/>
<text text-anchor="start" x="2465" y="-80.8" font-family="Times New Roman,serif" font-weight="bold" font-size="14.00">filedb()</text>
<polygon fill="none" stroke="black" points="2307,-52 2307,-73 2666,-73 2666,-52 2307,-52"/>
<text text-anchor="start" x="2310" y="-59.8" font-family="Times New Roman,serif" font-weight="bold" font-size="14.00">RedirecttocoupleswebsitewitheventdetailsandRSVPform()</text>
<polygon fill="none" stroke="black" points="2305.5,-51.5 2305.5,-284.5 2666.5,-284.5 2666.5,-51.5 2305.5,-51.5"/>
</g>
<!-- EAID_2496E82F_C8C6_43bf_B644_27CAA1BC3686 -->
<g id="node14" class="node"><title>EAID_2496E82F_C8C6_43bf_B644_27CAA1BC3686</title>
<polygon fill="none" stroke="black" points="2080,-231 2080,-252 2271,-252 2271,-231 2080,-231"/>
<text text-anchor="start" x="2143" y="-238.8" font-family="Times New Roman,serif" font-weight="bold" font-size="14.00">Draggable</text>
<polygon fill="none" stroke="black" points="2080,-210 2080,-231 2271,-231 2271,-210 2080,-210"/>
<text text-anchor="start" x="2097" y="-217.8" font-family="Times New Roman,serif" font-weight="bold" font-size="14.00">EAJava_int draggable_id</text>
<polygon fill="none" stroke="black" points="2080,-189 2080,-210 2271,-210 2271,-189 2080,-189"/>
<text text-anchor="start" x="2124.5" y="-196.8" font-family="Times New Roman,serif" font-weight="bold" font-size="14.00">EAJava_int c_id</text>
<polygon fill="none" stroke="black" points="2080,-168 2080,-189 2271,-189 2271,-168 2080,-168"/>
<text text-anchor="start" x="2115.5" y="-175.8" font-family="Times New Roman,serif" font-weight="bold" font-size="14.00">EAJava_varchar id</text>
<polygon fill="none" stroke="black" points="2080,-147 2080,-168 2271,-168 2271,-147 2080,-147"/>
<text text-anchor="start" x="2087.5" y="-154.8" font-family="Times New Roman,serif" font-weight="bold" font-size="14.00">EAJava_double position_top</text>
<polygon fill="none" stroke="black" points="2080,-126 2080,-147 2271,-147 2271,-126 2080,-126"/>
<text text-anchor="start" x="2087.5" y="-133.8" font-family="Times New Roman,serif" font-weight="bold" font-size="14.00">EAJava_double position_left</text>
<polygon fill="none" stroke="black" points="2080,-105 2080,-126 2271,-126 2271,-105 2080,-105"/>
<text text-anchor="start" x="2083" y="-112.8" font-family="Times New Roman,serif" font-weight="bold" font-size="14.00">EAJava_varchar all_positions</text>
<polygon fill="none" stroke="black" points="2080,-84 2080,-105 2271,-105 2271,-84 2080,-84"/>
<text text-anchor="start" x="2138.5" y="-91.8" font-family="Times New Roman,serif" font-weight="bold" font-size="14.00">Draggable()</text>
<polygon fill="none" stroke="black" points="2078.5,-83 2078.5,-253 2271.5,-253 2271.5,-83 2078.5,-83"/>
</g>
<!-- EAID_58900266_B514_4ff3_96FB_7FAEFE8EA12F -->
<g id="node15" class="node"><title>EAID_58900266_B514_4ff3_96FB_7FAEFE8EA12F</title>
<polygon fill="none" stroke="black" points="1839,-294 1839,-315 2044,-315 2044,-294 1839,-294"/>
<text text-anchor="start" x="1923.5" y="-301.8" font-family="Times New Roman,serif" font-weight="bold" font-size="14.00">Event</text>
<polygon fill="none" stroke="black" points="1839,-273 1839,-294 2044,-294 2044,-273 1839,-273"/>
<text text-anchor="start" x="1890.5" y="-280.8" font-family="Times New Roman,serif" font-weight="bold" font-size="14.00">EAJava_int e_id</text>
<polygon fill="none" stroke="black" points="1839,-252 1839,-273 2044,-273 2044,-252 1839,-252"/>
<text text-anchor="start" x="1849.5" y="-259.8" font-family="Times New Roman,serif" font-weight="bold" font-size="14.00">EAJava_varchar venue_name</text>
<polygon fill="none" stroke="black" points="1839,-231 1839,-252 2044,-252 2044,-231 1839,-231"/>
<text text-anchor="start" x="1842" y="-238.8" font-family="Times New Roman,serif" font-weight="bold" font-size="14.00">EAJava_varchar venue_address</text>
<polygon fill="none" stroke="black" points="1839,-210 1839,-231 2044,-231 2044,-210 1839,-210"/>
<text text-anchor="start" x="1851" y="-217.8" font-family="Times New Roman,serif" font-weight="bold" font-size="14.00">EAJava_varchar event_name</text>
<polygon fill="none" stroke="black" points="1839,-189 1839,-210 2044,-210 2044,-189 1839,-189"/>
<text text-anchor="start" x="1885" y="-196.8" font-family="Times New Roman,serif" font-weight="bold" font-size="14.00">EAJava_date date</text>
<polygon fill="none" stroke="black" points="1839,-168 1839,-189 2044,-189 2044,-168 1839,-168"/>
<text text-anchor="start" x="1847.5" y="-175.8" font-family="Times New Roman,serif" font-weight="bold" font-size="14.00">EAJava_varchar venue_phone</text>
<polygon fill="none" stroke="black" points="1839,-147 1839,-168 2044,-168 2044,-147 1839,-147"/>
<text text-anchor="start" x="1870.5" y="-154.8" font-family="Times New Roman,serif" font-weight="bold" font-size="14.00">EAJava_varchar attire</text>
<polygon fill="none" stroke="black" points="1839,-126 1839,-147 2044,-147 2044,-126 1839,-126"/>
<text text-anchor="start" x="1890.5" y="-133.8" font-family="Times New Roman,serif" font-weight="bold" font-size="14.00">EAJava_int c_id</text>
<polygon fill="none" stroke="black" points="1839,-105 1839,-126 2044,-126 2044,-105 1839,-105"/>
<text text-anchor="start" x="1919" y="-112.8" font-family="Times New Roman,serif" font-weight="bold" font-size="14.00">Event()</text>
<polygon fill="none" stroke="black" points="1839,-84 1839,-105 2044,-105 2044,-84 1839,-84"/>
<text text-anchor="start" x="1879.5" y="-91.8" font-family="Times New Roman,serif" font-weight="bold" font-size="14.00">Requirementspage()</text>
<polygon fill="none" stroke="black" points="1839,-63 1839,-84 2044,-84 2044,-63 1839,-63"/>
<text text-anchor="start" x="1852" y="-70.8" font-family="Times New Roman,serif" font-weight="bold" font-size="14.00">Saveallpoisitionsandcotnent()</text>
<polygon fill="none" stroke="black" points="1839,-42 1839,-63 2044,-63 2044,-42 1839,-42"/>
<text text-anchor="start" x="1884" y="-49.8" font-family="Times New Roman,serif" font-weight="bold" font-size="14.00">SaveRSVPintodb()</text>
<polygon fill="none" stroke="black" points="1839,-21 1839,-42 2044,-42 2044,-21 1839,-21"/>
<text text-anchor="start" x="1870.5" y="-28.8" font-family="Times New Roman,serif" font-weight="bold" font-size="14.00">eventdetailsandRSVP()</text>
<polygon fill="none" stroke="black" points="1837.5,-20 1837.5,-316 2044.5,-316 2044.5,-20 1837.5,-20"/>
</g>
<!-- EAID_B2A52A24_D9AD_4417_9372_F503F79FEB3F -->
<g id="node16" class="node"><title>EAID_B2A52A24_D9AD_4417_9372_F503F79FEB3F</title>
<polygon fill="none" stroke="black" points="1582,-241 1582,-262 1802,-262 1802,-241 1582,-241"/>
<text text-anchor="start" x="1670" y="-248.8" font-family="Times New Roman,serif" font-weight="bold" font-size="14.00">Groom</text>
<polygon fill="none" stroke="black" points="1582,-220 1582,-241 1802,-241 1802,-220 1582,-220"/>
<text text-anchor="start" x="1640.5" y="-227.8" font-family="Times New Roman,serif" font-weight="bold" font-size="14.00">EAJava_int g_id</text>
<polygon fill="none" stroke="black" points="1582,-199 1582,-220 1802,-220 1802,-199 1582,-199"/>
<text text-anchor="start" x="1601.5" y="-206.8" font-family="Times New Roman,serif" font-weight="bold" font-size="14.00">EAJava_varchar g_firstname</text>
<polygon fill="none" stroke="black" points="1582,-178 1582,-199 1802,-199 1802,-178 1582,-178"/>
<text text-anchor="start" x="1593.5" y="-185.8" font-family="Times New Roman,serif" font-weight="bold" font-size="14.00">EAJava_varchar g_middlename</text>
<polygon fill="none" stroke="black" points="1582,-157 1582,-178 1802,-178 1802,-157 1582,-157"/>
<text text-anchor="start" x="1603" y="-164.8" font-family="Times New Roman,serif" font-weight="bold" font-size="14.00">EAJava_varchar g_lastname</text>
<polygon fill="none" stroke="black" points="1582,-136 1582,-157 1802,-157 1802,-136 1582,-136"/>
<text text-anchor="start" x="1588.5" y="-143.8" font-family="Times New Roman,serif" font-weight="bold" font-size="14.00">EAJava_varchar g_fathers_name</text>
<polygon fill="none" stroke="black" points="1582,-115 1582,-136 1802,-136 1802,-115 1582,-115"/>
<text text-anchor="start" x="1585" y="-122.8" font-family="Times New Roman,serif" font-weight="bold" font-size="14.00">EAJava_varchar g_mothers_name</text>
<polygon fill="none" stroke="black" points="1582,-94 1582,-115 1802,-115 1802,-94 1582,-94"/>
<text text-anchor="start" x="1665.5" y="-101.8" font-family="Times New Roman,serif" font-weight="bold" font-size="14.00">Groom()</text>
<polygon fill="none" stroke="black" points="1582,-73 1582,-94 1802,-94 1802,-73 1582,-73"/>
<text text-anchor="start" x="1639" y="-80.8" font-family="Times New Roman,serif" font-weight="bold" font-size="14.00">backgroundinfo()</text>
<polygon fill="none" stroke="black" points="1581,-72.5 1581,-263.5 1803,-263.5 1803,-72.5 1581,-72.5"/>
</g>
<!-- EAID_0E8A158C_AFB5_48c3_9694_950F863C8CCE -->
<g id="node17" class="node"><title>EAID_0E8A158C_AFB5_48c3_9694_950F863C8CCE</title>
<polygon fill="none" stroke="black" points="1374,-252 1374,-273 1546,-273 1546,-252 1374,-252"/>
<text text-anchor="start" x="1441.5" y="-259.8" font-family="Times New Roman,serif" font-weight="bold" font-size="14.00">Guest</text>
<polygon fill="none" stroke="black" points="1374,-231 1374,-252 1546,-252 1546,-231 1374,-231"/>
<text text-anchor="start" x="1396.5" y="-238.8" font-family="Times New Roman,serif" font-weight="bold" font-size="14.00">EAJava_int guest_id</text>
<polygon fill="none" stroke="black" points="1374,-210 1374,-231 1546,-231 1546,-210 1374,-210"/>
<text text-anchor="start" x="1409" y="-217.8" font-family="Times New Roman,serif" font-weight="bold" font-size="14.00">EAJava_int c_id</text>
<polygon fill="none" stroke="black" points="1374,-189 1374,-210 1546,-210 1546,-189 1374,-189"/>
<text text-anchor="start" x="1389" y="-196.8" font-family="Times New Roman,serif" font-weight="bold" font-size="14.00">EAJava_varchar email</text>
<polygon fill="none" stroke="black" points="1374,-168 1374,-189 1546,-189 1546,-168 1374,-168"/>
<text text-anchor="start" x="1377" y="-175.8" font-family="Times New Roman,serif" font-weight="bold" font-size="14.00">EAJava_varchar firstname</text>
<polygon fill="none" stroke="black" points="1374,-147 1374,-168 1546,-168 1546,-147 1374,-147"/>
<text text-anchor="start" x="1378.5" y="-154.8" font-family="Times New Roman,serif" font-weight="bold" font-size="14.00">EAJava_varchar lastname</text>
<polygon fill="none" stroke="black" points="1374,-126 1374,-147 1546,-147 1546,-126 1374,-126"/>
<text text-anchor="start" x="1442" y="-133.8" font-family="Times New Roman,serif" font-weight="bold" font-size="14.00">rsvp()</text>
<polygon fill="none" stroke="black" points="1374,-105 1374,-126 1546,-126 1546,-105 1374,-105"/>
<text text-anchor="start" x="1402" y="-112.8" font-family="Times New Roman,serif" font-weight="bold" font-size="14.00">emptylistmessage()</text>
<polygon fill="none" stroke="black" points="1374,-84 1374,-105 1546,-105 1546,-84 1374,-84"/>
<text text-anchor="start" x="1415.5" y="-91.8" font-family="Times New Roman,serif" font-weight="bold" font-size="14.00">guestlistpage()</text>
<polygon fill="none" stroke="black" points="1374,-63 1374,-84 1546,-84 1546,-63 1374,-63"/>
<text text-anchor="start" x="1427.5" y="-70.8" font-family="Times New Roman,serif" font-weight="bold" font-size="14.00">guestinfo()</text>
<polygon fill="none" stroke="black" points="1373,-62 1373,-274 1547,-274 1547,-62 1373,-62"/>
</g>
<!-- EAID_B6742B1F_458D_4315_ACE4_FB89C38921FB -->
<g id="node18" class="node"><title>EAID_B6742B1F_458D_4315_ACE4_FB89C38921FB</title>
<polygon fill="none" stroke="black" points="1211,-178 1211,-199 1338,-199 1338,-178 1211,-178"/>
<text text-anchor="start" x="1260" y="-185.8" font-family="Times New Roman,serif" font-weight="bold" font-size="14.00">User</text>
<polygon fill="none" stroke="black" points="1211,-157 1211,-178 1338,-178 1338,-157 1211,-157"/>
<text text-anchor="start" x="1214" y="-164.8" font-family="Times New Roman,serif" font-weight="bold" font-size="14.00">EAJava_int user_id</text>
<polygon fill="none" stroke="black" points="1211,-136 1211,-157 1338,-157 1338,-136 1211,-136"/>
<text text-anchor="start" x="1255.5" y="-143.8" font-family="Times New Roman,serif" font-weight="bold" font-size="14.00">User()</text>
<polygon fill="none" stroke="black" points="1209.5,-135.5 1209.5,-200.5 1338.5,-200.5 1338.5,-135.5 1209.5,-135.5"/>
</g>
<!-- EAID_D9BEBC01_330F_40c6_9784_A42C7DEAE548 -->
<g id="node20" class="node"><title>EAID_D9BEBC01_330F_40c6_9784_A42C7DEAE548</title>
<polygon fill="none" stroke="black" points="787,-178 787,-199 966,-199 966,-178 787,-178"/>
<text text-anchor="start" x="794.5" y="-185.8" font-family="Times New Roman,serif" font-weight="bold" font-size="14.00">weddingwebsiteisdisplayed</text>
<polygon fill="none" stroke="black" points="787,-157 787,-178 966,-178 966,-157 787,-157"/>
<text text-anchor="start" x="790" y="-164.8" font-family="Times New Roman,serif" font-weight="bold" font-size="14.00">weddingwebsiteisdisplayed()</text>
<polygon fill="none" stroke="black" points="787,-136 787,-157 966,-157 966,-136 787,-136"/>
<text text-anchor="start" x="815" y="-143.8" font-family="Times New Roman,serif" font-weight="bold" font-size="14.00">websitelinkinemail()</text>
<polygon fill="none" stroke="black" points="785.5,-135.5 785.5,-200.5 966.5,-200.5 966.5,-135.5 785.5,-135.5"/>
</g>
<!-- EAID_FAF5AA51_D7F2_4dc9_8D43_4D2E5A835D01 -->
<g id="node22" class="node"><title>EAID_FAF5AA51_D7F2_4dc9_8D43_4D2E5A835D01</title>
<polygon fill="none" stroke="black" points="211,-231 211,-252 473,-252 473,-231 211,-231"/>
<text text-anchor="start" x="301.5" y="-238.8" font-family="Times New Roman,serif" font-weight="bold" font-size="14.00">invitationlink</text>
<polygon fill="none" stroke="black" points="211,-210 211,-231 473,-231 473,-210 211,-210"/>
<text text-anchor="start" x="297" y="-217.8" font-family="Times New Roman,serif" font-weight="bold" font-size="14.00">invitationlink()</text>
<polygon fill="none" stroke="black" points="211,-189 211,-210 473,-210 473,-189 211,-189"/>
<text text-anchor="start" x="257" y="-196.8" font-family="Times New Roman,serif" font-weight="bold" font-size="14.00">sendregistrationlinktouser()</text>
<polygon fill="none" stroke="black" points="211,-168 211,-189 473,-189 473,-168 211,-168"/>
<text text-anchor="start" x="237" y="-175.8" font-family="Times New Roman,serif" font-weight="bold" font-size="14.00">selectsinvitationbackgroundpage()</text>
<polygon fill="none" stroke="black" points="211,-147 211,-168 473,-168 473,-147 211,-147"/>
<text text-anchor="start" x="283.5" y="-154.8" font-family="Times New Roman,serif" font-weight="bold" font-size="14.00">confirmationpage()</text>
<polygon fill="none" stroke="black" points="211,-126 211,-147 473,-147 473,-126 211,-126"/>
<text text-anchor="start" x="284.5" y="-133.8" font-family="Times New Roman,serif" font-weight="bold" font-size="14.00">sendinvitesbutton()</text>
<polygon fill="none" stroke="black" points="211,-105 211,-126 473,-126 473,-105 211,-105"/>
<text text-anchor="start" x="249" y="-112.8" font-family="Times New Roman,serif" font-weight="bold" font-size="14.00">saveinformationintodatabase()</text>
<polygon fill="none" stroke="black" points="211,-84 211,-105 473,-105 473,-84 211,-84"/>
<text text-anchor="start" x="214" y="-91.8" font-family="Times New Roman,serif" font-weight="bold" font-size="14.00">downloadabletemplatepageforfillingdata()</text>
<polygon fill="none" stroke="black" points="210,-83 210,-253 474,-253 474,-83 210,-83"/>
</g>
</g>
</svg>
