<?xml version="1.0" encoding="UTF-8" standalone="no"?>
<!DOCTYPE svg PUBLIC "-//W3C//DTD SVG 1.1//EN"
 "http://www.w3.org/Graphics/SVG/1.1/DTD/svg11.dtd">
<!-- Generated by graphviz version 2.38.0 (20140413.2041)
 -->
<!-- Title: g Pages: 1 -->
<svg width="2346pt" height="312pt"
 viewBox="0.00 0.00 2346.00 311.75" xmlns="http://www.w3.org/2000/svg" xmlns:xlink="http://www.w3.org/1999/xlink">
<g id="graph0" class="graph" transform="scale(1 1) rotate(0) translate(4 307.754)">
<title>g</title>
<polygon fill="white" stroke="none" points="-4,4 -4,-307.754 2342,-307.754 2342,4 -4,4"/>
<!-- EAID_21B871D2_65B4_49b1_9B3D_B067935E297E -->
<g id="node1" class="node"><title>EAID_21B871D2_65B4_49b1_9B3D_B067935E297E</title>
<image xlink:href="img/actor1.png" width="61px" height="90px" preserveAspectRatio="xMinYMin meet" x="10.5" y="-276.5"/>
<text text-anchor="start" x="19" y="-163.3" font-family="Times New Roman,serif" font-size="24.00">User</text>
</g>
<!-- EAID_49DD4B82_923E_4213_A311_4C1431C83251 -->
<g id="node2" class="node"><title>EAID_49DD4B82_923E_4213_A311_4C1431C83251</title>
<image xlink:href="img/boundary3.png" width="115px" height="67px" preserveAspectRatio="xMinYMin meet" x="2121.5" y="-253.5"/>
<text text-anchor="start" x="2051" y="-163.3" font-family="Times New Roman,serif" font-size="24.00">2D view of selected sphere</text>
</g>
<!-- EAID_21B871D2_65B4_49b1_9B3D_B067935E297E&#45;&gt;EAID_49DD4B82_923E_4213_A311_4C1431C83251 -->
<g id="edge1" class="edge"><title>EAID_21B871D2_65B4_49b1_9B3D_B067935E297E&#45;&gt;EAID_49DD4B82_923E_4213_A311_4C1431C83251</title>
<path fill="none" stroke="black" d="M81.3371,-241.535C92.4883,-247.435 104.883,-253.015 117,-256.5 357.687,-325.714 428.558,-297.5 679,-297.5 679,-297.5 679,-297.5 1449,-297.5 1687.62,-297.5 1748.46,-290.705 1984,-252.5 1999.3,-250.019 2015.17,-246.97 2030.95,-243.628"/>
<polygon fill="black" stroke="black" points="2031.72,-247.043 2040.76,-241.512 2030.24,-240.2 2031.72,-247.043"/>
</g>
<!-- EAID_AFA5D863_0346_46bc_97F7_8DAD7A7AB7EE -->
<g id="node3" class="node"><title>EAID_AFA5D863_0346_46bc_97F7_8DAD7A7AB7EE</title>
<image xlink:href="img/boundary3.png" width="115px" height="67px" preserveAspectRatio="xMinYMin meet" x="2121.5" y="-102.5"/>
<text text-anchor="start" x="2030" y="-12.3" font-family="Times New Roman,serif" font-size="24.00">&quot;create sectors and nodes&quot; page</text>
</g>
<!-- EAID_21B871D2_65B4_49b1_9B3D_B067935E297E&#45;&gt;EAID_AFA5D863_0346_46bc_97F7_8DAD7A7AB7EE -->
<g id="edge2" class="edge"><title>EAID_21B871D2_65B4_49b1_9B3D_B067935E297E&#45;&gt;EAID_AFA5D863_0346_46bc_97F7_8DAD7A7AB7EE</title>
<path fill="none" stroke="black" d="M76.8828,-150.254C87.8646,-135.106 101.29,-120.532 117,-110.5 331.16,26.2555 424.9,-5.5 679,-5.5 679,-5.5 679,-5.5 1449,-5.5 1641.51,-5.5 1861.97,-22.7206 2009.59,-36.7442"/>
<polygon fill="black" stroke="black" points="2009.36,-40.2382 2019.64,-37.7055 2010.02,-33.2699 2009.36,-40.2382"/>
</g>
<!-- EAID_CD8DE849_2F47_477c_ABA4_297269B87EBC -->
<g id="node4" class="node"><title>EAID_CD8DE849_2F47_477c_ABA4_297269B87EBC</title>
<image xlink:href="img/boundary3.png" width="115px" height="67px" preserveAspectRatio="xMinYMin meet" x="209.5" y="-222.5"/>
<text text-anchor="start" x="127.5" y="-132.3" font-family="Times New Roman,serif" font-size="24.00">&quot;Open a saved sphere&quot; button</text>
</g>
<!-- EAID_21B871D2_65B4_49b1_9B3D_B067935E297E&#45;&gt;EAID_CD8DE849_2F47_477c_ABA4_297269B87EBC -->
<g id="edge3" class="edge"><title>EAID_21B871D2_65B4_49b1_9B3D_B067935E297E&#45;&gt;EAID_CD8DE849_2F47_477c_ABA4_297269B87EBC</title>
<path fill="none" stroke="black" d="M81.0311,-209.088C88.9545,-207.602 97.726,-205.958 107.016,-204.216"/>
<polygon fill="black" stroke="black" points="107.688,-207.651 116.872,-202.368 106.398,-200.771 107.688,-207.651"/>
</g>
<!-- EAID_9B07AE5A_5EF0_4ce2_AE66_A0F069B11393 -->
<g id="node5" class="node"><title>EAID_9B07AE5A_5EF0_4ce2_AE66_A0F069B11393</title>
<image xlink:href="img/boundary3.png" width="115px" height="67px" preserveAspectRatio="xMinYMin meet" x="1390.5" y="-233.5"/>
<text text-anchor="start" x="1302" y="-143.3" font-family="Times New Roman,serif" font-size="24.00">Displays a list of saved spheres</text>
</g>
<!-- EAID_21B871D2_65B4_49b1_9B3D_B067935E297E&#45;&gt;EAID_9B07AE5A_5EF0_4ce2_AE66_A0F069B11393 -->
<g id="edge4" class="edge"><title>EAID_21B871D2_65B4_49b1_9B3D_B067935E297E&#45;&gt;EAID_9B07AE5A_5EF0_4ce2_AE66_A0F069B11393</title>
<path fill="none" stroke="black" d="M81.0492,-229.624C92.5153,-232.847 105.142,-235.846 117,-237.5 264.463,-258.075 303.11,-238.904 452,-239.5 809.331,-240.93 902.172,-290.429 1256,-240.5 1264.56,-239.291 1273.28,-237.792 1282.04,-236.071"/>
<polygon fill="black" stroke="black" points="1282.86,-239.477 1291.95,-234.037 1281.45,-232.62 1282.86,-239.477"/>
</g>
<!-- EAID_3EEDD61E_E494_453a_8EEB_C068DA8406B5 -->
<g id="node6" class="node"><title>EAID_3EEDD61E_E494_453a_8EEB_C068DA8406B5</title>
<image xlink:href="img/control1.png" width="106px" height="75px" preserveAspectRatio="xMinYMin meet" x="627" y="-224.5"/>
<text text-anchor="start" x="462" y="-126.3" font-family="Times New Roman,serif" font-size="24.00">Requests a sphere list o the user from database</text>
</g>
<!-- EAID_CD8DE849_2F47_477c_ABA4_297269B87EBC&#45;&gt;EAID_3EEDD61E_E494_453a_8EEB_C068DA8406B5 -->
<g id="edge5" class="edge"><title>EAID_CD8DE849_2F47_477c_ABA4_297269B87EBC&#45;&gt;EAID_3EEDD61E_E494_453a_8EEB_C068DA8406B5</title>
<path fill="none" stroke="black" d="M416.061,-173.778C424.5,-173.737 433.078,-173.695 441.732,-173.653"/>
<polygon fill="black" stroke="black" points="441.94,-177.152 451.923,-173.604 441.906,-170.152 441.94,-177.152"/>
</g>
<!-- EAID_636B1BD1_BA1E_4316_970E_0B07FEFE8C6C -->
<g id="node7" class="node"><title>EAID_636B1BD1_BA1E_4316_970E_0B07FEFE8C6C</title>
<image xlink:href="img/control1.png" width="106px" height="75px" preserveAspectRatio="xMinYMin meet" x="1759" y="-237.5"/>
<text text-anchor="start" x="1650" y="-139.3" font-family="Times New Roman,serif" font-size="24.00">display 2d view of selected sphere</text>
</g>
<!-- EAID_9B07AE5A_5EF0_4ce2_AE66_A0F069B11393&#45;&gt;EAID_636B1BD1_BA1E_4316_970E_0B07FEFE8C6C -->
<g id="edge10" class="edge"><title>EAID_9B07AE5A_5EF0_4ce2_AE66_A0F069B11393&#45;&gt;EAID_636B1BD1_BA1E_4316_970E_0B07FEFE8C6C</title>
<path fill="none" stroke="black" d="M1604.1,-185.5C1612.58,-185.5 1621.14,-185.5 1629.7,-185.5"/>
<polygon fill="black" stroke="black" points="1629.75,-189 1639.75,-185.5 1629.75,-182 1629.75,-189"/>
</g>
<!-- EAID_7F61C9E6_6C0D_4233_986E_709AED86B14C -->
<g id="node8" class="node"><title>EAID_7F61C9E6_6C0D_4233_986E_709AED86B14C</title>
<image xlink:href="img/control1.png" width="106px" height="75px" preserveAspectRatio="xMinYMin meet" x="1047" y="-144.5"/>
<text text-anchor="start" x="954" y="-46.3" font-family="Times New Roman,serif" font-size="24.00">Displays a list of saved spheres</text>
</g>
<!-- EAID_3EEDD61E_E494_453a_8EEB_C068DA8406B5&#45;&gt;EAID_7F61C9E6_6C0D_4233_986E_709AED86B14C -->
<g id="edge9" class="edge"><title>EAID_3EEDD61E_E494_453a_8EEB_C068DA8406B5&#45;&gt;EAID_7F61C9E6_6C0D_4233_986E_709AED86B14C</title>
<path fill="none" stroke="black" d="M908.043,-129.047C916.724,-127.385 925.362,-125.732 933.899,-124.098"/>
<polygon fill="black" stroke="black" points="934.705,-127.508 943.869,-122.19 933.389,-120.632 934.705,-127.508"/>
</g>
<!-- EAID_4B675011_299B_49b9_B8DA_55182ABBD569 -->
<g id="node9" class="node"><title>EAID_4B675011_299B_49b9_B8DA_55182ABBD569</title>
<image xlink:href="img/activity_icon.png" width="30px" height="20px" preserveAspectRatio="xMinYMin meet" x="1085" y="-225.5"/>
<text text-anchor="start" x="1066" y="-183.3" font-family="Times New Roman,serif" font-weight="bold" font-size="24.00">sphere</text>
</g>
<!-- EAID_3EEDD61E_E494_453a_8EEB_C068DA8406B5&#45;&gt;EAID_4B675011_299B_49b9_B8DA_55182ABBD569 -->
<g id="edge11" class="edge"><title>EAID_3EEDD61E_E494_453a_8EEB_C068DA8406B5&#45;&gt;EAID_4B675011_299B_49b9_B8DA_55182ABBD569</title>
<path fill="none" stroke="black" d="M908.043,-187.709C959.515,-191.156 1009.52,-194.506 1045.43,-196.912"/>
<polygon fill="black" stroke="black" points="1045.44,-200.42 1055.65,-197.596 1045.9,-193.435 1045.44,-200.42"/>
</g>
<!-- EAID_636B1BD1_BA1E_4316_970E_0B07FEFE8C6C&#45;&gt;EAID_49DD4B82_923E_4213_A311_4C1431C83251 -->
<g id="edge7" class="edge"><title>EAID_636B1BD1_BA1E_4316_970E_0B07FEFE8C6C&#45;&gt;EAID_49DD4B82_923E_4213_A311_4C1431C83251</title>
<path fill="none" stroke="black" d="M1984.01,-194.87C1999.67,-195.729 2015.45,-196.593 2030.88,-197.438"/>
<polygon fill="black" stroke="black" points="2030.78,-200.938 2040.96,-197.991 2031.16,-193.949 2030.78,-200.938"/>
</g>
<!-- EAID_636B1BD1_BA1E_4316_970E_0B07FEFE8C6C&#45;&gt;EAID_AFA5D863_0346_46bc_97F7_8DAD7A7AB7EE -->
<g id="edge6" class="edge"><title>EAID_636B1BD1_BA1E_4316_970E_0B07FEFE8C6C&#45;&gt;EAID_AFA5D863_0346_46bc_97F7_8DAD7A7AB7EE</title>
<path fill="none" stroke="black" d="M1976.02,-126.992C1989.39,-122.192 2002.91,-117.341 2016.27,-112.544"/>
<polygon fill="black" stroke="black" points="2017.75,-115.735 2025.98,-109.062 2015.38,-109.146 2017.75,-115.735"/>
</g>
<!-- EAID_7F61C9E6_6C0D_4233_986E_709AED86B14C&#45;&gt;EAID_9B07AE5A_5EF0_4ce2_AE66_A0F069B11393 -->
<g id="edge8" class="edge"><title>EAID_7F61C9E6_6C0D_4233_986E_709AED86B14C&#45;&gt;EAID_9B07AE5A_5EF0_4ce2_AE66_A0F069B11393</title>
<path fill="none" stroke="black" d="M1256.04,-134.172C1264.66,-136.489 1273.34,-138.822 1281.99,-141.149"/>
<polygon fill="black" stroke="black" points="1281.18,-144.555 1291.75,-143.771 1283,-137.795 1281.18,-144.555"/>
</g>
</g>
</svg>
