<?xml version="1.0" encoding="UTF-8" standalone="no"?>
<!DOCTYPE svg PUBLIC "-//W3C//DTD SVG 1.1//EN"
 "http://www.w3.org/Graphics/SVG/1.1/DTD/svg11.dtd">
<!-- Generated by graphviz version 2.38.0 (20140413.2041)
 -->
<!-- Title: g Pages: 1 -->
<svg width="2079pt" height="417pt"
 viewBox="0.00 0.00 2078.50 417.00" xmlns="http://www.w3.org/2000/svg" xmlns:xlink="http://www.w3.org/1999/xlink">
<g id="graph0" class="graph" transform="scale(1 1) rotate(0) translate(4 413)">
<title>g</title>
<polygon fill="white" stroke="none" points="-4,4 -4,-413 2074.5,-413 2074.5,4 -4,4"/>
<!-- EAID_0C96BC89_6B52_4608_B7A5_C4BD74CC0082 -->
<g id="node1" class="node"><title>EAID_0C96BC89_6B52_4608_B7A5_C4BD74CC0082</title>
<polygon fill="none" stroke="black" points="9,-288.5 9,-309.5 193,-309.5 193,-288.5 9,-288.5"/>
<text text-anchor="start" x="58" y="-296.3" font-family="Times New Roman,serif" font-weight="bold" font-size="14.00">Administrator</text>
<polygon fill="none" stroke="black" points="9,-267.5 9,-288.5 193,-288.5 193,-267.5 9,-267.5"/>
<text text-anchor="start" x="26" y="-275.3" font-family="Times New Roman,serif" font-weight="bold" font-size="14.00">EAJava_void Client List</text>
<polygon fill="none" stroke="black" points="9,-246.5 9,-267.5 193,-267.5 193,-246.5 9,-246.5"/>
<text text-anchor="start" x="40" y="-254.3" font-family="Times New Roman,serif" font-weight="bold" font-size="14.00">EAJava_void Email</text>
<polygon fill="none" stroke="black" points="9,-225.5 9,-246.5 193,-246.5 193,-225.5 9,-225.5"/>
<text text-anchor="start" x="40" y="-233.3" font-family="Times New Roman,serif" font-weight="bold" font-size="14.00">EAJava_void Name</text>
<polygon fill="none" stroke="black" points="9,-204.5 9,-225.5 193,-225.5 193,-204.5 9,-204.5"/>
<text text-anchor="start" x="39" y="-212.3" font-family="Times New Roman,serif" font-weight="bold" font-size="14.00">EAJava_void Phone</text>
<polygon fill="none" stroke="black" points="9,-183.5 9,-204.5 193,-204.5 193,-183.5 9,-183.5"/>
<text text-anchor="start" x="42.5" y="-191.3" font-family="Times New Roman,serif" font-weight="bold" font-size="14.00">EAJava_void Type</text>
<polygon fill="none" stroke="black" points="9,-162.5 9,-183.5 193,-183.5 193,-162.5 9,-162.5"/>
<text text-anchor="start" x="24" y="-170.3" font-family="Times New Roman,serif" font-weight="bold" font-size="14.00">EAJava_void User Name</text>
<polygon fill="none" stroke="black" points="9,-141.5 9,-162.5 193,-162.5 193,-141.5 9,-141.5"/>
<text text-anchor="start" x="12" y="-149.3" font-family="Times New Roman,serif" font-weight="bold" font-size="14.00">EAJava_void User Password</text>
<polygon fill="none" stroke="black" points="9,-120.5 9,-141.5 193,-141.5 193,-120.5 9,-120.5"/>
<text text-anchor="start" x="14.5" y="-128.3" font-family="Times New Roman,serif" font-weight="bold" font-size="14.00">EAJava_void Volunteer List</text>
<polygon fill="none" stroke="black" points="9,-99.5 9,-120.5 193,-120.5 193,-99.5 9,-99.5"/>
<text text-anchor="start" x="53.5" y="-107.3" font-family="Times New Roman,serif" font-weight="bold" font-size="14.00">Administrator()</text>
<polygon fill="none" stroke="black" points="8,-98.5 8,-310.5 194,-310.5 194,-98.5 8,-98.5"/>
</g>
<!-- EAID_A78B4FEE_2FFD_4e9a_A9A3_681411A9167B -->
<g id="node2" class="node"><title>EAID_A78B4FEE_2FFD_4e9a_A9A3_681411A9167B</title>
<polygon fill="none" stroke="black" points="230,-267.5 230,-288.5 507,-288.5 507,-267.5 230,-267.5"/>
<text text-anchor="start" x="329" y="-275.3" font-family="Times New Roman,serif" font-weight="bold" font-size="14.00">Appointment</text>
<polygon fill="none" stroke="black" points="230,-246.5 230,-267.5 507,-267.5 507,-246.5 230,-246.5"/>
<text text-anchor="start" x="287" y="-254.3" font-family="Times New Roman,serif" font-weight="bold" font-size="14.00">EAJava_void Client Name</text>
<polygon fill="none" stroke="black" points="230,-225.5 230,-246.5 507,-246.5 507,-225.5 230,-225.5"/>
<text text-anchor="start" x="311" y="-233.3" font-family="Times New Roman,serif" font-weight="bold" font-size="14.00">EAJava_void Date</text>
<polygon fill="none" stroke="black" points="230,-204.5 230,-225.5 507,-225.5 507,-204.5 230,-204.5"/>
<text text-anchor="start" x="298" y="-212.3" font-family="Times New Roman,serif" font-weight="bold" font-size="14.00">EAJava_void End time</text>
<polygon fill="none" stroke="black" points="230,-183.5 230,-204.5 507,-204.5 507,-183.5 230,-183.5"/>
<text text-anchor="start" x="295" y="-191.3" font-family="Times New Roman,serif" font-weight="bold" font-size="14.00">EAJava_void Start time</text>
<polygon fill="none" stroke="black" points="230,-162.5 230,-183.5 507,-183.5 507,-162.5 230,-162.5"/>
<text text-anchor="start" x="275" y="-170.3" font-family="Times New Roman,serif" font-weight="bold" font-size="14.00">EAJava_void Volunteer String</text>
<polygon fill="none" stroke="black" points="230,-141.5 230,-162.5 507,-162.5 507,-141.5 230,-141.5"/>
<text text-anchor="start" x="324.5" y="-149.3" font-family="Times New Roman,serif" font-weight="bold" font-size="14.00">Appointment()</text>
<polygon fill="none" stroke="black" points="230,-120.5 230,-141.5 507,-141.5 507,-120.5 230,-120.5"/>
<text text-anchor="start" x="233" y="-128.3" font-family="Times New Roman,serif" font-weight="bold" font-size="14.00">Chooseoneofclientappointmentspreadsheet()</text>
<polygon fill="none" stroke="black" points="228.5,-119.5 228.5,-289.5 507.5,-289.5 507.5,-119.5 228.5,-119.5"/>
</g>
<!-- EAID_831A4B1C_BF7D_4b2c_A867_80745A40D54F -->
<g id="node3" class="node"><title>EAID_831A4B1C_BF7D_4b2c_A867_80745A40D54F</title>
<polygon fill="none" stroke="black" points="543,-204.5 543,-225.5 600,-225.5 600,-204.5 543,-204.5"/>
<text text-anchor="start" x="550.5" y="-212.3" font-family="Times New Roman,serif" font-weight="bold" font-size="14.00">Class1</text>
<polygon fill="none" stroke="black" points="543,-183.5 543,-204.5 600,-204.5 600,-183.5 543,-183.5"/>
<text text-anchor="start" x="546" y="-191.3" font-family="Times New Roman,serif" font-weight="bold" font-size="14.00">Class1()</text>
<polygon fill="none" stroke="black" points="541.5,-182.5 541.5,-226.5 600.5,-226.5 600.5,-182.5 541.5,-182.5"/>
</g>
<!-- EAID_ECBA4629_6F17_47dd_9D33_DACFDEB6D318 -->
<g id="node4" class="node"><title>EAID_ECBA4629_6F17_47dd_9D33_DACFDEB6D318</title>
<polygon fill="none" stroke="black" points="636,-256.5 636,-277.5 855,-277.5 855,-256.5 636,-256.5"/>
<text text-anchor="start" x="727" y="-264.3" font-family="Times New Roman,serif" font-weight="bold" font-size="14.00">Client</text>
<polygon fill="none" stroke="black" points="636,-235.5 636,-256.5 855,-256.5 855,-235.5 636,-235.5"/>
<text text-anchor="start" x="684.5" y="-243.3" font-family="Times New Roman,serif" font-weight="bold" font-size="14.00">EAJava_void Email</text>
<polygon fill="none" stroke="black" points="636,-214.5 636,-235.5 855,-235.5 855,-214.5 636,-214.5"/>
<text text-anchor="start" x="639" y="-222.3" font-family="Times New Roman,serif" font-weight="bold" font-size="14.00">EAJava_void List of Appointments</text>
<polygon fill="none" stroke="black" points="636,-193.5 636,-214.5 855,-214.5 855,-193.5 636,-193.5"/>
<text text-anchor="start" x="684.5" y="-201.3" font-family="Times New Roman,serif" font-weight="bold" font-size="14.00">EAJava_void Name</text>
<polygon fill="none" stroke="black" points="636,-172.5 636,-193.5 855,-193.5 855,-172.5 636,-172.5"/>
<text text-anchor="start" x="683.5" y="-180.3" font-family="Times New Roman,serif" font-weight="bold" font-size="14.00">EAJava_void Phone</text>
<polygon fill="none" stroke="black" points="636,-151.5 636,-172.5 855,-172.5 855,-151.5 636,-151.5"/>
<text text-anchor="start" x="722.5" y="-159.3" font-family="Times New Roman,serif" font-weight="bold" font-size="14.00">Client()</text>
<polygon fill="none" stroke="black" points="636,-130.5 636,-151.5 855,-151.5 855,-130.5 636,-130.5"/>
<text text-anchor="start" x="664" y="-138.3" font-family="Times New Roman,serif" font-weight="bold" font-size="14.00">ViewClientSchedulePage()</text>
<polygon fill="none" stroke="black" points="634.5,-130 634.5,-279 855.5,-279 855.5,-130 634.5,-130"/>
</g>
<!-- EAID_60C7CCC6_FFF7_4ada_88A6_09E32F88DCF2 -->
<g id="node5" class="node"><title>EAID_60C7CCC6_FFF7_4ada_88A6_09E32F88DCF2</title>
<polygon fill="none" stroke="black" points="891,-382.5 891,-403.5 1153,-403.5 1153,-382.5 891,-382.5"/>
<text text-anchor="start" x="988.5" y="-390.3" font-family="Times New Roman,serif" font-weight="bold" font-size="14.00">USC VITA</text>
<polygon fill="none" stroke="black" points="891,-361.5 891,-382.5 1153,-382.5 1153,-361.5 891,-361.5"/>
<text text-anchor="start" x="906.5" y="-369.3" font-family="Times New Roman,serif" font-weight="bold" font-size="14.00">EAJava_void Apply to volunteer page</text>
<polygon fill="none" stroke="black" points="891,-340.5 891,-361.5 1153,-361.5 1153,-340.5 891,-340.5"/>
<text text-anchor="start" x="903.5" y="-348.3" font-family="Times New Roman,serif" font-weight="bold" font-size="14.00">EAJava_void Before you come in page</text>
<polygon fill="none" stroke="black" points="891,-319.5 891,-340.5 1153,-340.5 1153,-319.5 891,-319.5"/>
<text text-anchor="start" x="936" y="-327.3" font-family="Times New Roman,serif" font-weight="bold" font-size="14.00">EAJava_void Email us page</text>
<polygon fill="none" stroke="black" points="891,-298.5 891,-319.5 1153,-319.5 1153,-298.5 891,-298.5"/>
<text text-anchor="start" x="916.5" y="-306.3" font-family="Times New Roman,serif" font-weight="bold" font-size="14.00">EAJava_void Event calendar page</text>
<polygon fill="none" stroke="black" points="891,-277.5 891,-298.5 1153,-298.5 1153,-277.5 891,-277.5"/>
<text text-anchor="start" x="915" y="-285.3" font-family="Times New Roman,serif" font-weight="bold" font-size="14.00">EAJava_void FAQs for client page</text>
<polygon fill="none" stroke="black" points="891,-256.5 891,-277.5 1153,-277.5 1153,-256.5 891,-256.5"/>
<text text-anchor="start" x="903" y="-264.3" font-family="Times New Roman,serif" font-weight="bold" font-size="14.00">EAJava_void FAQs for volunteer page</text>
<polygon fill="none" stroke="black" points="891,-235.5 891,-256.5 1153,-256.5 1153,-235.5 891,-235.5"/>
<text text-anchor="start" x="918" y="-243.3" font-family="Times New Roman,serif" font-weight="bold" font-size="14.00">EAJava_void General FAQs page</text>
<polygon fill="none" stroke="black" points="891,-214.5 891,-235.5 1153,-235.5 1153,-214.5 891,-214.5"/>
<text text-anchor="start" x="897" y="-222.3" font-family="Times New Roman,serif" font-weight="bold" font-size="14.00">EAJava_void History of USC VITA page</text>
<polygon fill="none" stroke="black" points="891,-193.5 891,-214.5 1153,-214.5 1153,-193.5 891,-193.5"/>
<text text-anchor="start" x="943.5" y="-201.3" font-family="Times New Roman,serif" font-weight="bold" font-size="14.00">EAJava_void Hours page</text>
<polygon fill="none" stroke="black" points="891,-172.5 891,-193.5 1153,-193.5 1153,-172.5 891,-172.5"/>
<text text-anchor="start" x="935.5" y="-180.3" font-family="Times New Roman,serif" font-weight="bold" font-size="14.00">EAJava_void Location page</text>
<polygon fill="none" stroke="black" points="891,-151.5 891,-172.5 1153,-172.5 1153,-151.5 891,-151.5"/>
<text text-anchor="start" x="895.5" y="-159.3" font-family="Times New Roman,serif" font-weight="bold" font-size="14.00">EAJava_void Make an appointment page</text>
<polygon fill="none" stroke="black" points="891,-130.5 891,-151.5 1153,-151.5 1153,-130.5 891,-130.5"/>
<text text-anchor="start" x="937.5" y="-138.3" font-family="Times New Roman,serif" font-weight="bold" font-size="14.00">EAJava_void Sponsor page</text>
<polygon fill="none" stroke="black" points="891,-109.5 891,-130.5 1153,-130.5 1153,-109.5 891,-109.5"/>
<text text-anchor="start" x="912" y="-117.3" font-family="Times New Roman,serif" font-weight="bold" font-size="14.00">EAJava_void Training session page</text>
<polygon fill="none" stroke="black" points="891,-88.5 891,-109.5 1153,-109.5 1153,-88.5 891,-88.5"/>
<text text-anchor="start" x="894" y="-96.3" font-family="Times New Roman,serif" font-weight="bold" font-size="14.00">EAJava_void USC VITA Committee page</text>
<polygon fill="none" stroke="black" points="891,-67.5 891,-88.5 1153,-88.5 1153,-67.5 891,-67.5"/>
<text text-anchor="start" x="904.5" y="-75.3" font-family="Times New Roman,serif" font-weight="bold" font-size="14.00">EAJava_void Volunteer schedule page</text>
<polygon fill="none" stroke="black" points="891,-46.5 891,-67.5 1153,-67.5 1153,-46.5 891,-46.5"/>
<text text-anchor="start" x="934" y="-54.3" font-family="Times New Roman,serif" font-weight="bold" font-size="14.00">EAJava_void Welcome page</text>
<polygon fill="none" stroke="black" points="891,-25.5 891,-46.5 1153,-46.5 1153,-25.5 891,-25.5"/>
<text text-anchor="start" x="918" y="-33.3" font-family="Times New Roman,serif" font-weight="bold" font-size="14.00">EAJava_void Why volunteer page</text>
<polygon fill="none" stroke="black" points="891,-4.5 891,-25.5 1153,-25.5 1153,-4.5 891,-4.5"/>
<text text-anchor="start" x="985.5" y="-12.3" font-family="Times New Roman,serif" font-weight="bold" font-size="14.00">USCVITA()</text>
<polygon fill="none" stroke="black" points="890,-4 890,-405 1154,-405 1154,-4 890,-4"/>
</g>
<!-- EAID_9B870FC5_46DF_4fdf_8BB2_5FA6FE1CEEF7 -->
<g id="node6" class="node"><title>EAID_9B870FC5_46DF_4fdf_8BB2_5FA6FE1CEEF7</title>
<polygon fill="none" stroke="black" points="1190,-246.5 1190,-267.5 1409,-267.5 1409,-246.5 1190,-246.5"/>
<text text-anchor="start" x="1269" y="-254.3" font-family="Times New Roman,serif" font-weight="bold" font-size="14.00">Volunteer</text>
<polygon fill="none" stroke="black" points="1190,-225.5 1190,-246.5 1409,-246.5 1409,-225.5 1190,-225.5"/>
<text text-anchor="start" x="1238.5" y="-233.3" font-family="Times New Roman,serif" font-weight="bold" font-size="14.00">EAJava_void Email</text>
<polygon fill="none" stroke="black" points="1190,-204.5 1190,-225.5 1409,-225.5 1409,-204.5 1190,-204.5"/>
<text text-anchor="start" x="1193" y="-212.3" font-family="Times New Roman,serif" font-weight="bold" font-size="14.00">EAJava_void List of Appointments</text>
<polygon fill="none" stroke="black" points="1190,-183.5 1190,-204.5 1409,-204.5 1409,-183.5 1190,-183.5"/>
<text text-anchor="start" x="1238.5" y="-191.3" font-family="Times New Roman,serif" font-weight="bold" font-size="14.00">EAJava_void Name</text>
<polygon fill="none" stroke="black" points="1190,-162.5 1190,-183.5 1409,-183.5 1409,-162.5 1190,-162.5"/>
<text text-anchor="start" x="1237.5" y="-170.3" font-family="Times New Roman,serif" font-weight="bold" font-size="14.00">EAJava_void Phone</text>
<polygon fill="none" stroke="black" points="1190,-141.5 1190,-162.5 1409,-162.5 1409,-141.5 1190,-141.5"/>
<text text-anchor="start" x="1264.5" y="-149.3" font-family="Times New Roman,serif" font-weight="bold" font-size="14.00">Volunteer()</text>
<polygon fill="none" stroke="black" points="1188.5,-140.5 1188.5,-268.5 1409.5,-268.5 1409.5,-140.5 1188.5,-140.5"/>
</g>
<!-- EAID_592DC096_1167_44d2_99F7_64B7108A3BF6 -->
<g id="node7" class="node"><title>EAID_592DC096_1167_44d2_99F7_64B7108A3BF6</title>
<polygon fill="none" stroke="black" points="1445,-256.5 1445,-277.5 1639,-277.5 1639,-256.5 1445,-256.5"/>
<text text-anchor="start" x="1475" y="-264.3" font-family="Times New Roman,serif" font-weight="bold" font-size="14.00">Volunteer Application</text>
<polygon fill="none" stroke="black" points="1445,-235.5 1445,-256.5 1639,-256.5 1639,-235.5 1445,-235.5"/>
<text text-anchor="start" x="1471.5" y="-243.3" font-family="Times New Roman,serif" font-weight="bold" font-size="14.00">EAJava_void Contents</text>
<polygon fill="none" stroke="black" points="1445,-214.5 1445,-235.5 1639,-235.5 1639,-214.5 1445,-214.5"/>
<text text-anchor="start" x="1459" y="-222.3" font-family="Times New Roman,serif" font-weight="bold" font-size="14.00">EAJava_void Service Time</text>
<polygon fill="none" stroke="black" points="1445,-193.5 1445,-214.5 1639,-214.5 1639,-193.5 1445,-193.5"/>
<text text-anchor="start" x="1449" y="-201.3" font-family="Times New Roman,serif" font-weight="bold" font-size="14.00">EAJava_void Volunteer Email</text>
<polygon fill="none" stroke="black" points="1445,-172.5 1445,-193.5 1639,-193.5 1639,-172.5 1445,-172.5"/>
<text text-anchor="start" x="1449" y="-180.3" font-family="Times New Roman,serif" font-weight="bold" font-size="14.00">EAJava_void Volunteer Name</text>
<polygon fill="none" stroke="black" points="1445,-151.5 1445,-172.5 1639,-172.5 1639,-151.5 1445,-151.5"/>
<text text-anchor="start" x="1448" y="-159.3" font-family="Times New Roman,serif" font-weight="bold" font-size="14.00">EAJava_void Volunteer Phone</text>
<polygon fill="none" stroke="black" points="1445,-130.5 1445,-151.5 1639,-151.5 1639,-130.5 1445,-130.5"/>
<text text-anchor="start" x="1472.5" y="-138.3" font-family="Times New Roman,serif" font-weight="bold" font-size="14.00">VolunteerApplication()</text>
<polygon fill="none" stroke="black" points="1444,-130 1444,-279 1640,-279 1640,-130 1444,-130"/>
</g>
<!-- EAID_DA6BD147_8E8D_418b_BD8C_0825DD9D7A63 -->
<g id="node8" class="node"><title>EAID_DA6BD147_8E8D_418b_BD8C_0825DD9D7A63</title>
<polygon fill="none" stroke="black" points="1676,-214.5 1676,-235.5 1869,-235.5 1869,-214.5 1676,-214.5"/>
<text text-anchor="start" x="1683.5" y="-222.3" font-family="Times New Roman,serif" font-weight="bold" font-size="14.00">Checkallrequiredinformation</text>
<polygon fill="none" stroke="black" points="1676,-193.5 1676,-214.5 1869,-214.5 1869,-193.5 1676,-193.5"/>
<text text-anchor="start" x="1679" y="-201.3" font-family="Times New Roman,serif" font-weight="bold" font-size="14.00">Checkallrequiredinformation()</text>
<polygon fill="none" stroke="black" points="1676,-172.5 1676,-193.5 1869,-193.5 1869,-172.5 1676,-172.5"/>
<text text-anchor="start" x="1697" y="-180.3" font-family="Times New Roman,serif" font-weight="bold" font-size="14.00">Showconfirmationpage()</text>
<polygon fill="none" stroke="black" points="1674.5,-172 1674.5,-237 1869.5,-237 1869.5,-172 1674.5,-172"/>
</g>
<!-- EAID_32226C82_3719_4a32_9589_722D9C8649E1 -->
<g id="node9" class="node"><title>EAID_32226C82_3719_4a32_9589_722D9C8649E1</title>
<polygon fill="none" stroke="black" points="1905,-214.5 1905,-235.5 2062,-235.5 2062,-214.5 1905,-214.5"/>
<text text-anchor="start" x="1950.5" y="-222.3" font-family="Times New Roman,serif" font-weight="bold" font-size="14.00">Homepage</text>
<polygon fill="none" stroke="black" points="1905,-193.5 1905,-214.5 2062,-214.5 2062,-193.5 1905,-193.5"/>
<text text-anchor="start" x="1946" y="-201.3" font-family="Times New Roman,serif" font-weight="bold" font-size="14.00">Homepage()</text>
<polygon fill="none" stroke="black" points="1905,-172.5 1905,-193.5 2062,-193.5 2062,-172.5 1905,-172.5"/>
<text text-anchor="start" x="1908" y="-180.3" font-family="Times New Roman,serif" font-weight="bold" font-size="14.00">Showconfirmationpage()</text>
<polygon fill="none" stroke="black" points="1903.5,-172 1903.5,-237 2062.5,-237 2062.5,-172 1903.5,-172"/>
</g>
</g>
</svg>
