<?xml version="1.0" encoding="UTF-8" standalone="no"?>
<!DOCTYPE svg PUBLIC "-//W3C//DTD SVG 1.1//EN"
 "http://www.w3.org/Graphics/SVG/1.1/DTD/svg11.dtd">
<!-- Generated by graphviz version 2.38.0 (20140413.2041)
 -->
<!-- Title: g Pages: 1 -->
<svg width="1022pt" height="178pt"
 viewBox="0.00 0.00 1022.00 177.50" xmlns="http://www.w3.org/2000/svg" xmlns:xlink="http://www.w3.org/1999/xlink">
<g id="graph0" class="graph" transform="scale(1 1) rotate(0) translate(4 173.5)">
<title>g</title>
<polygon fill="white" stroke="none" points="-4,4 -4,-173.5 1018,-173.5 1018,4 -4,4"/>
<!-- EAID_29978A23_E108_49bf_98E8_18F78DF4A098 -->
<g id="node1" class="node"><title>EAID_29978A23_E108_49bf_98E8_18F78DF4A098</title>
<image xlink:href="img/actor1.png" width="61px" height="90px" preserveAspectRatio="xMinYMin meet" x="10.5" y="-126"/>
<text text-anchor="start" x="12.5" y="-12.8" font-family="Times New Roman,serif" font-size="24.00">guests</text>
</g>
<!-- EAID_3BC249C2_1FFC_4f39_9351_373661441EE1 -->
<g id="node2" class="node"><title>EAID_3BC249C2_1FFC_4f39_9351_373661441EE1</title>
<image xlink:href="img/boundary3.png" width="115px" height="67px" preserveAspectRatio="xMinYMin meet" x="178.5" y="-157"/>
<text text-anchor="start" x="127.5" y="-66.8" font-family="Times New Roman,serif" font-size="24.00">&quot;website link&quot; in email</text>
</g>
<!-- EAID_29978A23_E108_49bf_98E8_18F78DF4A098&#45;&gt;EAID_3BC249C2_1FFC_4f39_9351_373661441EE1 -->
<g id="edge1" class="edge"><title>EAID_29978A23_E108_49bf_98E8_18F78DF4A098&#45;&gt;EAID_3BC249C2_1FFC_4f39_9351_373661441EE1</title>
<path fill="none" stroke="black" d="M81.0222,-74.8055C89.0435,-76.5926 97.8831,-78.562 107.147,-80.6259"/>
<polygon fill="black" stroke="black" points="106.415,-84.0488 116.937,-82.8073 107.938,-77.2163 106.415,-84.0488"/>
</g>
<!-- EAID_D9BEBC01_330F_40c6_9784_A42C7DEAE548 -->
<g id="node3" class="node"><title>EAID_D9BEBC01_330F_40c6_9784_A42C7DEAE548</title>
<image xlink:href="img/boundary3.png" width="115px" height="67px" preserveAspectRatio="xMinYMin meet" x="808.5" y="-115"/>
<text text-anchor="start" x="727.5" y="-24.8" font-family="Times New Roman,serif" font-size="24.00">wedding website is displayed</text>
</g>
<!-- EAID_29978A23_E108_49bf_98E8_18F78DF4A098&#45;&gt;EAID_D9BEBC01_330F_40c6_9784_A42C7DEAE548 -->
<g id="edge2" class="edge"><title>EAID_29978A23_E108_49bf_98E8_18F78DF4A098&#45;&gt;EAID_D9BEBC01_330F_40c6_9784_A42C7DEAE548</title>
<path fill="none" stroke="black" d="M81.0506,-52.8863C92.5168,-49.6634 105.143,-46.6625 117,-45 365.24,-10.193 430.862,-26.7115 681,-43 689.411,-43.5477 698.025,-44.2352 706.713,-45.0281"/>
<polygon fill="black" stroke="black" points="706.649,-48.5379 716.937,-46.0052 707.315,-41.5696 706.649,-48.5379"/>
</g>
<!-- EAID_D857CA3C_8B04_41b7_A474_AB9A93600173 -->
<g id="node4" class="node"><title>EAID_D857CA3C_8B04_41b7_A474_AB9A93600173</title>
<image xlink:href="img/control1.png" width="106px" height="75px" preserveAspectRatio="xMinYMin meet" x="483" y="-163"/>
<text text-anchor="start" x="400.5" y="-64.8" font-family="Times New Roman,serif" font-size="24.00">redirect to weddting website</text>
</g>
<!-- EAID_3BC249C2_1FFC_4f39_9351_373661441EE1&#45;&gt;EAID_D857CA3C_8B04_41b7_A474_AB9A93600173 -->
<g id="edge3" class="edge"><title>EAID_3BC249C2_1FFC_4f39_9351_373661441EE1&#45;&gt;EAID_D857CA3C_8B04_41b7_A474_AB9A93600173</title>
<path fill="none" stroke="black" d="M354.277,-109.79C362.697,-109.847 371.255,-109.904 379.838,-109.962"/>
<polygon fill="black" stroke="black" points="379.896,-113.462 389.919,-110.03 379.943,-106.463 379.896,-113.462"/>
</g>
<!-- EAID_D857CA3C_8B04_41b7_A474_AB9A93600173&#45;&gt;EAID_D9BEBC01_330F_40c6_9784_A42C7DEAE548 -->
<g id="edge4" class="edge"><title>EAID_D857CA3C_8B04_41b7_A474_AB9A93600173&#45;&gt;EAID_D9BEBC01_330F_40c6_9784_A42C7DEAE548</title>
<path fill="none" stroke="black" d="M681.32,-91.5729C689.831,-90.4312 698.412,-89.2801 706.97,-88.1321"/>
<polygon fill="black" stroke="black" points="707.553,-91.5853 716.999,-86.7868 706.622,-84.6475 707.553,-91.5853"/>
</g>
</g>
</svg>
