<?xml version="1.0" encoding="UTF-8" standalone="no"?>
<!DOCTYPE svg PUBLIC "-//W3C//DTD SVG 1.1//EN"
 "http://www.w3.org/Graphics/SVG/1.1/DTD/svg11.dtd">
<!-- Generated by graphviz version 2.38.0 (20140413.2041)
 -->
<!-- Title: g Pages: 1 -->
<svg width="1351pt" height="587pt"
 viewBox="0.00 0.00 1351.00 587.00" xmlns="http://www.w3.org/2000/svg" xmlns:xlink="http://www.w3.org/1999/xlink">
<g id="graph0" class="graph" transform="scale(1 1) rotate(0) translate(4 583)">
<title>g</title>
<polygon fill="white" stroke="none" points="-4,4 -4,-583 1347,-583 1347,4 -4,4"/>
<!-- EAID_166D5841_54BE_4316_B307_7D3381135C8A -->
<g id="node1" class="node"><title>EAID_166D5841_54BE_4316_B307_7D3381135C8A</title>
<image xlink:href="img/actor1.png" width="72px" height="90px" preserveAspectRatio="xMinYMin meet" x="10" y="-279.5"/>
<text text-anchor="start" x="10" y="-166.3" font-family="Times New Roman,serif" font-size="24.00">Vendor</text>
</g>
<!-- EAID_4CEA6336_4AE9_42a0_A7B0_04044E3B954E -->
<g id="node2" class="node"><title>EAID_4CEA6336_4AE9_42a0_A7B0_04044E3B954E</title>
<image xlink:href="img/boundary3.png" width="115px" height="67px" preserveAspectRatio="xMinYMin meet" x="1131.5" y="-572.5"/>
<text text-anchor="start" x="1071.5" y="-482.3" font-family="Times New Roman,serif" font-size="24.00">invalid information error</text>
</g>
<!-- EAID_166D5841_54BE_4316_B307_7D3381135C8A&#45;&gt;EAID_4CEA6336_4AE9_42a0_A7B0_04044E3B954E -->
<g id="edge1" class="edge"><title>EAID_166D5841_54BE_4316_B307_7D3381135C8A&#45;&gt;EAID_4CEA6336_4AE9_42a0_A7B0_04044E3B954E</title>
<path fill="none" stroke="black" d="M69.5023,-285.848C82.4275,-314.773 101.468,-346.747 128,-367.5 253.076,-465.332 314.707,-458.5 473.5,-458.5 473.5,-458.5 473.5,-458.5 697.5,-458.5 817.728,-458.5 953.077,-478.257 1051.01,-496.152"/>
<polygon fill="black" stroke="black" points="1050.5,-499.616 1060.97,-497.988 1051.77,-492.732 1050.5,-499.616"/>
</g>
<!-- EAID_8426CF71_0EE0_4b1b_A7B4_B35CAFD08F72 -->
<g id="node3" class="node"><title>EAID_8426CF71_0EE0_4b1b_A7B4_B35CAFD08F72</title>
<image xlink:href="img/boundary3.png" width="115px" height="67px" preserveAspectRatio="xMinYMin meet" x="1131" y="-229.5"/>
<text text-anchor="start" x="1082.5" y="-139.3" font-family="Times New Roman,serif" font-size="24.00">change unsaved dialog</text>
</g>
<!-- EAID_166D5841_54BE_4316_B307_7D3381135C8A&#45;&gt;EAID_8426CF71_0EE0_4b1b_A7B4_B35CAFD08F72 -->
<g id="edge2" class="edge"><title>EAID_166D5841_54BE_4316_B307_7D3381135C8A&#45;&gt;EAID_8426CF71_0EE0_4b1b_A7B4_B35CAFD08F72</title>
<path fill="none" stroke="black" d="M92.0182,-212.837C169.678,-201.939 333.93,-181.5 473.5,-181.5 473.5,-181.5 473.5,-181.5 697.5,-181.5 821.484,-181.5 963.115,-181.5 1062.11,-181.5"/>
<polygon fill="black" stroke="black" points="1062.16,-185 1072.16,-181.5 1062.16,-178 1062.16,-185"/>
</g>
<!-- EAID_E4B54CD1_CD9A_4cfb_9087_2D84BCF82547 -->
<g id="node4" class="node"><title>EAID_E4B54CD1_CD9A_4cfb_9087_2D84BCF82547</title>
<image xlink:href="img/boundary3.png" width="115px" height="67px" preserveAspectRatio="xMinYMin meet" x="1131.5" y="-102.5"/>
<text text-anchor="start" x="1044.5" y="-12.3" font-family="Times New Roman,serif" font-size="24.00">display &quot;create success&quot; dialog</text>
</g>
<!-- EAID_166D5841_54BE_4316_B307_7D3381135C8A&#45;&gt;EAID_E4B54CD1_CD9A_4cfb_9087_2D84BCF82547 -->
<g id="edge3" class="edge"><title>EAID_166D5841_54BE_4316_B307_7D3381135C8A&#45;&gt;EAID_E4B54CD1_CD9A_4cfb_9087_2D84BCF82547</title>
<path fill="none" stroke="black" d="M92.1887,-197.728C168.771,-162.891 329.763,-98.5 473.5,-98.5 473.5,-98.5 473.5,-98.5 697.5,-98.5 806.596,-98.5 928.81,-87.5464 1023.89,-76.5697"/>
<polygon fill="black" stroke="black" points="1024.36,-80.0394 1033.88,-75.4047 1023.54,-73.0865 1024.36,-80.0394"/>
</g>
<!-- EAID_34AB6938_4535_49ee_8033_BBB42130D37E -->
<g id="node5" class="node"><title>EAID_34AB6938_4535_49ee_8033_BBB42130D37E</title>
<image xlink:href="img/boundary3.png" width="115px" height="67px" preserveAspectRatio="xMinYMin meet" x="184.5" y="-352.5"/>
<text text-anchor="start" x="138" y="-262.3" font-family="Times New Roman,serif" font-size="24.00">Create product button</text>
</g>
<!-- EAID_166D5841_54BE_4316_B307_7D3381135C8A&#45;&gt;EAID_34AB6938_4535_49ee_8033_BBB42130D37E -->
<g id="edge4" class="edge"><title>EAID_166D5841_54BE_4316_B307_7D3381135C8A&#45;&gt;EAID_34AB6938_4535_49ee_8033_BBB42130D37E</title>
<path fill="none" stroke="black" d="M92.4844,-239.429C100.632,-242.999 109.463,-246.868 118.618,-250.879"/>
<polygon fill="black" stroke="black" points="117.304,-254.124 127.868,-254.932 120.113,-247.713 117.304,-254.124"/>
</g>
<!-- EAID_CB3284F9_6C94_4ef0_9FBD_31367372C2F0 -->
<g id="node6" class="node"><title>EAID_CB3284F9_6C94_4ef0_9FBD_31367372C2F0</title>
<image xlink:href="img/boundary3.png" width="115px" height="67px" preserveAspectRatio="xMinYMin meet" x="639.5" y="-333.5"/>
<text text-anchor="start" x="603.5" y="-243.3" font-family="Times New Roman,serif" font-size="24.00">product create page</text>
</g>
<!-- EAID_166D5841_54BE_4316_B307_7D3381135C8A&#45;&gt;EAID_CB3284F9_6C94_4ef0_9FBD_31367372C2F0 -->
<g id="edge5" class="edge"><title>EAID_166D5841_54BE_4316_B307_7D3381135C8A&#45;&gt;EAID_CB3284F9_6C94_4ef0_9FBD_31367372C2F0</title>
<path fill="none" stroke="black" d="M92.1601,-216.84C181.706,-212.516 387.737,-207.315 557,-238.5 565.527,-240.071 574.244,-242.059 582.948,-244.325"/>
<polygon fill="black" stroke="black" points="582.191,-247.747 592.759,-246.995 584.029,-240.992 582.191,-247.747"/>
</g>
<!-- EAID_F44E6A68_EE0A_47f6_8D9C_1874EC1A4810 -->
<g id="node7" class="node"><title>EAID_F44E6A68_EE0A_47f6_8D9C_1874EC1A4810</title>
<image xlink:href="img/control1.png" width="106px" height="75px" preserveAspectRatio="xMinYMin meet" x="422" y="-358.5"/>
<text text-anchor="start" x="402.5" y="-260.3" font-family="Times New Roman,serif" font-size="24.00">redirect vendor</text>
</g>
<!-- EAID_34AB6938_4535_49ee_8033_BBB42130D37E&#45;&gt;EAID_F44E6A68_EE0A_47f6_8D9C_1874EC1A4810 -->
<g id="edge6" class="edge"><title>EAID_34AB6938_4535_49ee_8033_BBB42130D37E&#45;&gt;EAID_F44E6A68_EE0A_47f6_8D9C_1874EC1A4810</title>
<path fill="none" stroke="black" d="M356.224,-305.482C364.804,-305.557 373.399,-305.631 381.818,-305.704"/>
<polygon fill="black" stroke="black" points="381.959,-309.206 391.989,-305.793 382.019,-302.206 381.959,-309.206"/>
</g>
<!-- EAID_F3CE7268_78B4_4b3e_A27A_4D206D7491DE -->
<g id="node8" class="node"><title>EAID_F3CE7268_78B4_4b3e_A27A_4D206D7491DE</title>
<image xlink:href="img/control1.png" width="106px" height="75px" preserveAspectRatio="xMinYMin meet" x="864" y="-337.5"/>
<text text-anchor="start" x="846" y="-239.3" font-family="Times New Roman,serif" font-size="24.00">update product</text>
</g>
<!-- EAID_CB3284F9_6C94_4ef0_9FBD_31367372C2F0&#45;&gt;EAID_F3CE7268_78B4_4b3e_A27A_4D206D7491DE -->
<g id="edge11" class="edge"><title>EAID_CB3284F9_6C94_4ef0_9FBD_31367372C2F0&#45;&gt;EAID_F3CE7268_78B4_4b3e_A27A_4D206D7491DE</title>
<path fill="none" stroke="black" d="M800.032,-285.5C808.546,-285.5 817.114,-285.5 825.528,-285.5"/>
<polygon fill="black" stroke="black" points="825.703,-289 835.703,-285.5 825.703,-282 825.703,-289"/>
</g>
<!-- EAID_F44E6A68_EE0A_47f6_8D9C_1874EC1A4810&#45;&gt;EAID_CB3284F9_6C94_4ef0_9FBD_31367372C2F0 -->
<g id="edge12" class="edge"><title>EAID_F44E6A68_EE0A_47f6_8D9C_1874EC1A4810&#45;&gt;EAID_CB3284F9_6C94_4ef0_9FBD_31367372C2F0</title>
<path fill="none" stroke="black" d="M557.107,-298.71C565.457,-297.913 574.041,-297.094 582.648,-296.272"/>
<polygon fill="black" stroke="black" points="583.129,-299.742 592.751,-295.308 582.463,-292.774 583.129,-299.742"/>
</g>
<!-- EAID_F3CE7268_78B4_4b3e_A27A_4D206D7491DE&#45;&gt;EAID_4CEA6336_4AE9_42a0_A7B0_04044E3B954E -->
<g id="edge9" class="edge"><title>EAID_F3CE7268_78B4_4b3e_A27A_4D206D7491DE&#45;&gt;EAID_4CEA6336_4AE9_42a0_A7B0_04044E3B954E</title>
<path fill="none" stroke="black" d="M945.241,-344.409C965.239,-382.173 995.576,-429.867 1034,-461.5 1039.66,-466.157 1045.71,-470.511 1052.01,-474.576"/>
<polygon fill="black" stroke="black" points="1050.4,-477.695 1060.76,-479.94 1054.06,-471.728 1050.4,-477.695"/>
</g>
<!-- EAID_F3CE7268_78B4_4b3e_A27A_4D206D7491DE&#45;&gt;EAID_8426CF71_0EE0_4b1b_A7B4_B35CAFD08F72 -->
<g id="edge7" class="edge"><title>EAID_F3CE7268_78B4_4b3e_A27A_4D206D7491DE&#45;&gt;EAID_8426CF71_0EE0_4b1b_A7B4_B35CAFD08F72</title>
<path fill="none" stroke="black" d="M998.129,-254.578C1018.49,-246.719 1040.86,-238.088 1062.87,-229.595"/>
<polygon fill="black" stroke="black" points="1064.2,-232.833 1072.27,-225.967 1061.68,-226.302 1064.2,-232.833"/>
</g>
<!-- EAID_F3CE7268_78B4_4b3e_A27A_4D206D7491DE&#45;&gt;EAID_E4B54CD1_CD9A_4cfb_9087_2D84BCF82547 -->
<g id="edge8" class="edge"><title>EAID_F3CE7268_78B4_4b3e_A27A_4D206D7491DE&#45;&gt;EAID_E4B54CD1_CD9A_4cfb_9087_2D84BCF82547</title>
<path fill="none" stroke="black" d="M947.176,-226.896C967.409,-191.258 997.285,-147.067 1034,-117.5 1035.01,-116.687 1036.03,-115.883 1037.06,-115.088"/>
<polygon fill="black" stroke="black" points="1039.17,-117.887 1045.19,-109.17 1035.05,-112.229 1039.17,-117.887"/>
</g>
<!-- EAID_2BD50DE1_DE37_41aa_951B_7DDBA575C8F4 -->
<g id="node9" class="node"><title>EAID_2BD50DE1_DE37_41aa_951B_7DDBA575C8F4</title>
<image xlink:href="img/activity_icon.png" width="30px" height="20px" preserveAspectRatio="xMinYMin meet" x="1173.5" y="-310.5"/>
<text text-anchor="start" x="1147.5" y="-268.3" font-family="Times New Roman,serif" font-weight="bold" font-size="24.00">product</text>
</g>
<!-- EAID_F3CE7268_78B4_4b3e_A27A_4D206D7491DE&#45;&gt;EAID_2BD50DE1_DE37_41aa_951B_7DDBA575C8F4 -->
<g id="edge10" class="edge"><title>EAID_F3CE7268_78B4_4b3e_A27A_4D206D7491DE&#45;&gt;EAID_2BD50DE1_DE37_41aa_951B_7DDBA575C8F4</title>
<path fill="none" stroke="black" d="M998.129,-285.5C1039.4,-285.5 1088.9,-285.5 1126.94,-285.5"/>
<polygon fill="black" stroke="black" points="1127.35,-289 1137.35,-285.5 1127.35,-282 1127.35,-289"/>
</g>
<!-- EAID_31ECCEA4_B579_40c3_B4CF_9AF42897842B -->
<g id="node10" class="node"><title>EAID_31ECCEA4_B579_40c3_B4CF_9AF42897842B</title>
<image xlink:href="img/control1.png" width="106px" height="75px" preserveAspectRatio="xMinYMin meet" x="1135.5" y="-445.5"/>
<text text-anchor="start" x="1056.5" y="-347.3" font-family="Times New Roman,serif" font-size="24.00">send &quot;create success&quot; dialog</text>
</g>
<!-- EAID_F3CE7268_78B4_4b3e_A27A_4D206D7491DE&#45;&gt;EAID_31ECCEA4_B579_40c3_B4CF_9AF42897842B -->
<g id="edge13" class="edge"><title>EAID_F3CE7268_78B4_4b3e_A27A_4D206D7491DE&#45;&gt;EAID_31ECCEA4_B579_40c3_B4CF_9AF42897842B</title>
<path fill="none" stroke="black" d="M998.129,-317.611C1010.55,-322.587 1023.71,-327.862 1037.08,-333.221"/>
<polygon fill="black" stroke="black" points="1035.78,-336.47 1046.36,-336.941 1038.38,-329.972 1035.78,-336.47"/>
</g>
</g>
</svg>
