<?xml version="1.0" encoding="UTF-8" standalone="no"?>
<!DOCTYPE svg PUBLIC "-//W3C//DTD SVG 1.1//EN"
 "http://www.w3.org/Graphics/SVG/1.1/DTD/svg11.dtd">
<!-- Generated by graphviz version 2.40.1 (20161225.0304)
 -->
<!-- Title: class_diagram Pages: 1 -->
<svg width="3281pt" height="73pt"
 viewBox="0.00 0.00 3281.36 73.00" xmlns="http://www.w3.org/2000/svg" xmlns:xlink="http://www.w3.org/1999/xlink">
<g id="graph0" class="graph" transform="scale(1 1) rotate(0) translate(4 69)">
<title>class_diagram</title>
<polygon fill="#ffffff" stroke="transparent" points="-4,4 -4,-69 3277.3594,-69 3277.3594,4 -4,4"/>
<!-- c3cf55f67_762d_4442_b28b_7e2717b58293 -->
<g id="c3cf55f67_762d_4442_b28b_7e2717b58293" class="node">
<title>c3cf55f67_762d_4442_b28b_7e2717b58293</title>
<polygon fill="none" stroke="#000000" points="0,-12.5 0,-52.5 116.7188,-52.5 116.7188,-12.5 0,-12.5"/>
<text text-anchor="middle" x="58.3594" y="-42.1" font-family="Times,serif" font-size="8.00" fill="#000000">AndroidProcesses</text>
<polyline fill="none" stroke="#000000" points="0,-36.5 116.7188,-36.5 "/>
<text text-anchor="start" x="8" y="-26.1" font-family="Times,serif" font-size="8.00" fill="#000000">+ log()</text>
<text text-anchor="start" x="8" y="-18.1" font-family="Times,serif" font-size="8.00" fill="#000000">+ getRunningAppProcessInfo()</text>
</g>
<!-- cf75c54ad_b813_4af6_9479_f8c10ce27198 -->
<g id="cf75c54ad_b813_4af6_9479_f8c10ce27198" class="node">
<title>cf75c54ad_b813_4af6_9479_f8c10ce27198</title>
<polygon fill="none" stroke="#000000" points="134.6973,-14.5 134.6973,-50.5 208.0215,-50.5 208.0215,-14.5 134.6973,-14.5"/>
<text text-anchor="middle" x="171.3594" y="-30.1" font-family="Times,serif" font-size="8.00" fill="#000000">ActivityProcesses</text>
</g>
<!-- c8e0229e2_4455_4b2b_9b2b_f2f8976d0fbd -->
<g id="c8e0229e2_4455_4b2b_9b2b_f2f8976d0fbd" class="node">
<title>c8e0229e2_4455_4b2b_9b2b_f2f8976d0fbd</title>
<polygon fill="none" stroke="#000000" points="225.8105,-14.5 225.8105,-50.5 292.9082,-50.5 292.9082,-14.5 225.8105,-14.5"/>
<text text-anchor="middle" x="259.3594" y="-30.1" font-family="Times,serif" font-size="8.00" fill="#000000">ContentHandler</text>
</g>
<!-- c1f54ab4d_235d_4025_b2eb_806d7b1109ee -->
<g id="c1f54ab4d_235d_4025_b2eb_806d7b1109ee" class="node">
<title>c1f54ab4d_235d_4025_b2eb_806d7b1109ee</title>
<polygon fill="none" stroke="#000000" points="310.918,-14.5 310.918,-50.5 391.8008,-50.5 391.8008,-14.5 310.918,-14.5"/>
<text text-anchor="middle" x="351.3594" y="-39.6" font-family="Times,serif" font-size="8.00" fill="#000000">AndroidAppProcess</text>
<polyline fill="none" stroke="#000000" points="310.918,-33.5 391.8008,-33.5 "/>
<text text-anchor="start" x="318.918" y="-22.6" font-family="Times,serif" font-size="8.00" fill="#000000">&#45; uid:int</text>
<polyline fill="none" stroke="#000000" points="310.918,-16.5 391.8008,-16.5 "/>
</g>
<!-- c5a1a8009_b6ee_4bb6_941d_720c255d74d1 -->
<g id="c5a1a8009_b6ee_4bb6_941d_720c255d74d1" class="node">
<title>c5a1a8009_b6ee_4bb6_941d_720c255d74d1</title>
<polygon fill="none" stroke="#000000" points="410.2559,-14.5 410.2559,-50.5 468.4629,-50.5 468.4629,-14.5 410.2559,-14.5"/>
<text text-anchor="middle" x="439.3594" y="-30.1" font-family="Times,serif" font-size="8.00" fill="#000000">DTDHandler</text>
</g>
<!-- ca2c6dede_6921_47a6_a116_ea7b58a634fa -->
<g id="ca2c6dede_6921_47a6_a116_ea7b58a634fa" class="node">
<title>ca2c6dede_6921_47a6_a116_ea7b58a634fa</title>
<polygon fill="none" stroke="#000000" points="486.3359,-14.5 486.3359,-50.5 642.3828,-50.5 642.3828,-14.5 486.3359,-14.5"/>
<text text-anchor="middle" x="564.3594" y="-39.6" font-family="Times,serif" font-size="8.00" fill="#000000">ControlGroup$1</text>
<polyline fill="none" stroke="#000000" points="486.3359,-33.5 642.3828,-33.5 "/>
<text text-anchor="start" x="494.3359" y="-22.6" font-family="Times,serif" font-size="8.00" fill="#000000">&#45; CREATOR:android.os.Parcelable$Creator</text>
<polyline fill="none" stroke="#000000" points="486.3359,-16.5 642.3828,-16.5 "/>
</g>
<!-- c3a45b801_4dda_4cb8_9d68_cc583c9920f8 -->
<g id="c3a45b801_4dda_4cb8_9d68_cc583c9920f8" class="node">
<title>c3a45b801_4dda_4cb8_9d68_cc583c9920f8</title>
<polygon fill="none" stroke="#000000" points="660.332,-12.5 660.332,-52.5 718.3867,-52.5 718.3867,-12.5 660.332,-12.5"/>
<text text-anchor="middle" x="689.3594" y="-42.1" font-family="Times,serif" font-size="8.00" fill="#000000">Cgroup$1</text>
<polyline fill="none" stroke="#000000" points="660.332,-36.5 718.3867,-36.5 "/>
<text text-anchor="start" x="668.332" y="-26.1" font-family="Times,serif" font-size="8.00" fill="#000000">+ getGroup()</text>
<text text-anchor="start" x="668.332" y="-18.1" font-family="Times,serif" font-size="8.00" fill="#000000">+ get()</text>
</g>
<!-- cd5e356d4_502c_474e_86f8_ae261307f2fb -->
<g id="cd5e356d4_502c_474e_86f8_ae261307f2fb" class="node">
<title>cd5e356d4_502c_474e_86f8_ae261307f2fb</title>
<polygon fill="none" stroke="#000000" points="736.3594,-14.5 736.3594,-50.5 790.3594,-50.5 790.3594,-14.5 736.3594,-14.5"/>
<text text-anchor="middle" x="763.082" y="-35.1" font-family="Times,serif" font-size="8.00" fill="#000000">Stat</text>
<polyline fill="none" stroke="#000000" points="736.3594,-24.5 789.8047,-24.5 "/>
</g>
<!-- ce5b0177c_66ac_4b46_bc6a_00d229246ece -->
<g id="ce5b0177c_66ac_4b46_bc6a_00d229246ece" class="node">
<title>ce5b0177c_66ac_4b46_bc6a_00d229246ece</title>
<polygon fill="none" stroke="#000000" points="808.3594,-14.5 808.3594,-50.5 862.3594,-50.5 862.3594,-14.5 808.3594,-14.5"/>
<text text-anchor="middle" x="835.1387" y="-35.1" font-family="Times,serif" font-size="8.00" fill="#000000">Status$1</text>
<polyline fill="none" stroke="#000000" points="808.3594,-24.5 861.918,-24.5 "/>
</g>
<!-- cf2cebf2b_0a56_4663_b0a7_6ef46dde02d0 -->
<g id="cf2cebf2b_0a56_4663_b0a7_6ef46dde02d0" class="node">
<title>cf2cebf2b_0a56_4663_b0a7_6ef46dde02d0</title>
<polygon fill="none" stroke="#000000" points="880.3594,-14.5 880.3594,-50.5 934.3594,-50.5 934.3594,-14.5 880.3594,-14.5"/>
<text text-anchor="middle" x="906.9141" y="-35.1" font-family="Times,serif" font-size="8.00" fill="#000000">ProcFile</text>
<polyline fill="none" stroke="#000000" points="880.3594,-24.5 933.4688,-24.5 "/>
</g>
<!-- c86fc57be_dd44_40c0_b742_5bb1d0c1c728 -->
<g id="c86fc57be_dd44_40c0_b742_5bb1d0c1c728" class="node">
<title>c86fc57be_dd44_40c0_b742_5bb1d0c1c728</title>
<polygon fill="none" stroke="#000000" points="951.9258,-.5 951.9258,-64.5 1042.793,-64.5 1042.793,-.5 951.9258,-.5"/>
<text text-anchor="middle" x="997.3594" y="-54.1" font-family="Times,serif" font-size="8.00" fill="#000000">AndroidProcess</text>
<polyline fill="none" stroke="#000000" points="951.9258,-48.5 1042.793,-48.5 "/>
<text text-anchor="start" x="959.9258" y="-38.1" font-family="Times,serif" font-size="8.00" fill="#000000">&#45; name:java.lang.String</text>
<polyline fill="none" stroke="#000000" points="951.9258,-32.5 1042.793,-32.5 "/>
<text text-anchor="start" x="959.9258" y="-22.1" font-family="Times,serif" font-size="8.00" fill="#000000">+ status()</text>
<text text-anchor="start" x="959.9258" y="-14.1" font-family="Times,serif" font-size="8.00" fill="#000000">+ cgroup()</text>
<text text-anchor="start" x="959.9258" y="-6.1" font-family="Times,serif" font-size="8.00" fill="#000000">+ stat()</text>
</g>
<!-- c74b2fa21_fb01_4b6b_a52e_e69e9786f3c3 -->
<g id="c74b2fa21_fb01_4b6b_a52e_e69e9786f3c3" class="node">
<title>c74b2fa21_fb01_4b6b_a52e_e69e9786f3c3</title>
<polygon fill="none" stroke="#000000" points="1061.2598,-14.5 1061.2598,-50.5 1175.459,-50.5 1175.459,-14.5 1061.2598,-14.5"/>
<text text-anchor="middle" x="1118.3594" y="-30.1" font-family="Times,serif" font-size="8.00" fill="#000000">SAXNotRecognizedException</text>
</g>
<!-- c6dc77473_24f4_4355_89d4_7c0eb7f45f69 -->
<g id="c6dc77473_24f4_4355_89d4_7c0eb7f45f69" class="node">
<title>c6dc77473_24f4_4355_89d4_7c0eb7f45f69</title>
<polygon fill="none" stroke="#000000" points="1193.0371,-14.5 1193.0371,-50.5 1251.6816,-50.5 1251.6816,-14.5 1193.0371,-14.5"/>
<text text-anchor="middle" x="1222.3594" y="-30.1" font-family="Times,serif" font-size="8.00" fill="#000000">ErrorHandler</text>
</g>
<!-- cec44cfa7_e05a_4bd9_bce4_8a48c64aa11b -->
<g id="cec44cfa7_e05a_4bd9_bce4_8a48c64aa11b" class="node">
<title>cec44cfa7_e05a_4bd9_bce4_8a48c64aa11b</title>
<polygon fill="none" stroke="#000000" points="1269.3594,-14.5 1269.3594,-50.5 1323.3594,-50.5 1323.3594,-14.5 1269.3594,-14.5"/>
<text text-anchor="middle" x="1296.2969" y="-30.1" font-family="Times,serif" font-size="8.00" fill="#000000">Locator</text>
</g>
<!-- ce67a2643_e404_488a_bb2c_c657a4aa9e84 -->
<g id="ce67a2643_e404_488a_bb2c_c657a4aa9e84" class="node">
<title>ce67a2643_e404_488a_bb2c_c657a4aa9e84</title>
<polygon fill="none" stroke="#000000" points="1341.0391,-14.5 1341.0391,-50.5 1411.6797,-50.5 1411.6797,-14.5 1341.0391,-14.5"/>
<text text-anchor="middle" x="1376.3594" y="-30.1" font-family="Times,serif" font-size="8.00" fill="#000000">ServiceReader$4</text>
</g>
<!-- c01c237dc_ef0c_41a8_9533_68dc07268248 -->
<g id="c01c237dc_ef0c_41a8_9533_68dc07268248" class="node">
<title>c01c237dc_ef0c_41a8_9533_68dc07268248</title>
<polygon fill="none" stroke="#000000" points="1429.9238,-14.5 1429.9238,-50.5 1498.7949,-50.5 1498.7949,-14.5 1429.9238,-14.5"/>
<text text-anchor="middle" x="1464.3594" y="-30.1" font-family="Times,serif" font-size="8.00" fill="#000000">ProcessManager</text>
</g>
<!-- c241ca455_3cd6_47f8_b9a5_48be28ec5655 -->
<g id="c241ca455_3cd6_47f8_b9a5_48be28ec5655" class="node">
<title>c241ca455_3cd6_47f8_b9a5_48be28ec5655</title>
<polygon fill="none" stroke="#000000" points="1516.3594,-14.5 1516.3594,-50.5 1570.3594,-50.5 1570.3594,-14.5 1516.3594,-14.5"/>
<text text-anchor="middle" x="1543.0273" y="-30.1" font-family="Times,serif" font-size="8.00" fill="#000000">C</text>
</g>
<!-- c241caf08_bbc2_4bf3_a3a1_ef3df99ab141 -->
<g id="c241caf08_bbc2_4bf3_a3a1_ef3df99ab141" class="node">
<title>c241caf08_bbc2_4bf3_a3a1_ef3df99ab141</title>
<polygon fill="none" stroke="#000000" points="1588.3594,-14.5 1588.3594,-50.5 1642.3594,-50.5 1642.3594,-14.5 1588.3594,-14.5"/>
<text text-anchor="middle" x="1615.1934" y="-30.1" font-family="Times,serif" font-size="8.00" fill="#000000">Statm</text>
</g>
<!-- c3b4ad8b7_1029_441d_80fe_acb2918f981e -->
<g id="c3b4ad8b7_1029_441d_80fe_acb2918f981e" class="node">
<title>c3b4ad8b7_1029_441d_80fe_acb2918f981e</title>
<polygon fill="none" stroke="#000000" points="1660.6973,-14.5 1660.6973,-50.5 1770.0215,-50.5 1770.0215,-14.5 1660.6973,-14.5"/>
<text text-anchor="middle" x="1715.3594" y="-30.1" font-family="Times,serif" font-size="8.00" fill="#000000">SAXNotSupportedException</text>
</g>
<!-- ca9a58673_7a8d_4d10_a1cd_7d1b18e62a2f -->
<g id="ca9a58673_7a8d_4d10_a1cd_7d1b18e62a2f" class="node">
<title>ca9a58673_7a8d_4d10_a1cd_7d1b18e62a2f</title>
<polygon fill="none" stroke="#000000" points="1788.1445,-14.5 1788.1445,-50.5 1844.5742,-50.5 1844.5742,-14.5 1788.1445,-14.5"/>
<text text-anchor="middle" x="1816.3594" y="-30.1" font-family="Times,serif" font-size="8.00" fill="#000000">XMLReader</text>
</g>
<!-- c2f7e617b_e96e_411c_ba2b_8f0b37884aa8 -->
<g id="c2f7e617b_e96e_411c_ba2b_8f0b37884aa8" class="node">
<title>c2f7e617b_e96e_411c_ba2b_8f0b37884aa8</title>
<polygon fill="none" stroke="#000000" points="1863.0508,-14.5 1863.0508,-50.5 1921.668,-50.5 1921.668,-14.5 1863.0508,-14.5"/>
<text text-anchor="middle" x="1892.3594" y="-30.1" font-family="Times,serif" font-size="8.00" fill="#000000">ViewGraphic</text>
</g>
<!-- cd29dd847_c90f_409a_b5ea_b26654979c2b -->
<g id="cd29dd847_c90f_409a_b5ea_b26654979c2b" class="node">
<title>cd29dd847_c90f_409a_b5ea_b26654979c2b</title>
<polygon fill="none" stroke="#000000" points="1939.8047,-14.5 1939.8047,-50.5 2002.9141,-50.5 2002.9141,-14.5 1939.8047,-14.5"/>
<text text-anchor="middle" x="1971.3594" y="-30.1" font-family="Times,serif" font-size="8.00" fill="#000000">XmlPullParser</text>
</g>
<!-- ccf9276b5_7e1f_4cbe_8978_c441d529d71d -->
<g id="ccf9276b5_7e1f_4cbe_8978_c441d529d71d" class="node">
<title>ccf9276b5_7e1f_4cbe_8978_c441d529d71d</title>
<polygon fill="none" stroke="#000000" points="2020.4766,-14.5 2020.4766,-50.5 2102.2422,-50.5 2102.2422,-14.5 2020.4766,-14.5"/>
<text text-anchor="middle" x="2061.3594" y="-30.1" font-family="Times,serif" font-size="8.00" fill="#000000">SAXParseException</text>
</g>
<!-- c781a0702_5f87_4ba2_95e4_5a1ae7b74ecb -->
<g id="c781a0702_5f87_4ba2_95e4_5a1ae7b74ecb" class="node">
<title>c781a0702_5f87_4ba2_95e4_5a1ae7b74ecb</title>
<polygon fill="none" stroke="#000000" points="2120.5762,-14.5 2120.5762,-50.5 2176.1426,-50.5 2176.1426,-14.5 2120.5762,-14.5"/>
<text text-anchor="middle" x="2148.3594" y="-30.1" font-family="Times,serif" font-size="8.00" fill="#000000">BuildConfig</text>
</g>
<!-- c1ad0c3e3_2d85_4701_b33f_350df16c7bd7 -->
<g id="c1ad0c3e3_2d85_4701_b33f_350df16c7bd7" class="node">
<title>c1ad0c3e3_2d85_4701_b33f_350df16c7bd7</title>
<polygon fill="none" stroke="#000000" points="2193.8066,-14.5 2193.8066,-50.5 2264.9121,-50.5 2264.9121,-14.5 2193.8066,-14.5"/>
<text text-anchor="middle" x="2229.3594" y="-30.1" font-family="Times,serif" font-size="8.00" fill="#000000">ActivityMain$19</text>
</g>
<!-- c1173a9e2_a196_4551_b6b5_ea89cbcd1ad0 -->
<g id="c1173a9e2_a196_4551_b6b5_ea89cbcd1ad0" class="node">
<title>c1173a9e2_a196_4551_b6b5_ea89cbcd1ad0</title>
<polygon fill="none" stroke="#000000" points="2283.3633,-14.5 2283.3633,-50.5 2347.3555,-50.5 2347.3555,-14.5 2283.3633,-14.5"/>
<text text-anchor="middle" x="2315.3594" y="-30.1" font-family="Times,serif" font-size="8.00" fill="#000000">EntityResolver</text>
</g>
<!-- c197cc0fa_5a2c_400b_8070_e0fa35c202ce -->
<g id="c197cc0fa_5a2c_400b_8070_e0fa35c202ce" class="node">
<title>c197cc0fa_5a2c_400b_8070_e0fa35c202ce</title>
<polygon fill="none" stroke="#000000" points="2365.3594,-14.5 2365.3594,-50.5 2419.3594,-50.5 2419.3594,-14.5 2365.3594,-14.5"/>
<text text-anchor="middle" x="2392.0273" y="-30.1" font-family="Times,serif" font-size="8.00" fill="#000000">R</text>
</g>
<!-- c47cbffaa_1e27_4c42_bb1b_efe20d6dc257 -->
<g id="c47cbffaa_1e27_4c42_bb1b_efe20d6dc257" class="node">
<title>c47cbffaa_1e27_4c42_bb1b_efe20d6dc257</title>
<polygon fill="none" stroke="#000000" points="2437.1406,-14.5 2437.1406,-50.5 2501.5781,-50.5 2501.5781,-14.5 2437.1406,-14.5"/>
<text text-anchor="middle" x="2469.3594" y="-30.1" font-family="Times,serif" font-size="8.00" fill="#000000">SAXException</text>
</g>
<!-- c6579bce3_285b_478e_bf45_2833255cf06f -->
<g id="c6579bce3_285b_478e_bf45_2833255cf06f" class="node">
<title>c6579bce3_285b_478e_bf45_2833255cf06f</title>
<polygon fill="none" stroke="#000000" points="2519.8086,-14.5 2519.8086,-50.5 2574.9102,-50.5 2574.9102,-14.5 2519.8086,-14.5"/>
<text text-anchor="middle" x="2547.3594" y="-30.1" font-family="Times,serif" font-size="8.00" fill="#000000">InputSource</text>
</g>
<!-- cb02a526f_db21_4030_8301_e169afe8025a -->
<g id="cb02a526f_db21_4030_8301_e169afe8025a" class="node">
<title>cb02a526f_db21_4030_8301_e169afe8025a</title>
<polygon fill="none" stroke="#000000" points="2593.3594,-14.5 2593.3594,-50.5 2647.3594,-50.5 2647.3594,-14.5 2593.3594,-14.5"/>
<text text-anchor="middle" x="2620.0254" y="-30.1" font-family="Times,serif" font-size="8.00" fill="#000000">R$layout</text>
</g>
<!-- cbd0bee32_55e2_4019_bf9e_b70ff731dccb -->
<g id="cbd0bee32_55e2_4019_bf9e_b70ff731dccb" class="node">
<title>cbd0bee32_55e2_4019_bf9e_b70ff731dccb</title>
<polygon fill="none" stroke="#000000" points="2665.5879,-14.5 2665.5879,-50.5 2761.1309,-50.5 2761.1309,-14.5 2665.5879,-14.5"/>
<text text-anchor="middle" x="2713.3594" y="-30.1" font-family="Times,serif" font-size="8.00" fill="#000000">XmlPullParserException</text>
</g>
<!-- c1cf1ed8c_f4a6_468a_a9d9_f69e7505602d -->
<g id="c1cf1ed8c_f4a6_468a_a9d9_f69e7505602d" class="node">
<title>c1cf1ed8c_f4a6_468a_a9d9_f69e7505602d</title>
<polygon fill="none" stroke="#000000" points="2778.7012,-14.5 2778.7012,-50.5 2876.0176,-50.5 2876.0176,-14.5 2778.7012,-14.5"/>
<text text-anchor="middle" x="2827.3594" y="-30.1" font-family="Times,serif" font-size="8.00" fill="#000000">LinearLayoutCustomised</text>
</g>
<!-- c46f81d5f_eeac_4088_b6cf_35914a5f1e67 -->
<g id="c46f81d5f_eeac_4088_b6cf_35914a5f1e67" class="node">
<title>c46f81d5f_eeac_4088_b6cf_35914a5f1e67</title>
<polygon fill="none" stroke="#000000" points="2894.4746,-14.5 2894.4746,-50.5 2960.2441,-50.5 2960.2441,-14.5 2894.4746,-14.5"/>
<text text-anchor="middle" x="2927.3594" y="-30.1" font-family="Times,serif" font-size="8.00" fill="#000000">ActivityHelp$1</text>
</g>
<!-- c1b1c1c5d_e46c_48b8_a3e4_1683253d53ed -->
<g id="c1b1c1c5d_e46c_48b8_a3e4_1683253d53ed" class="node">
<title>c1b1c1c5d_e46c_48b8_a3e4_1683253d53ed</title>
<polygon fill="none" stroke="#000000" points="2978.25,-14.5 2978.25,-50.5 3048.4688,-50.5 3048.4688,-14.5 2978.25,-14.5"/>
<text text-anchor="middle" x="3013.3594" y="-30.1" font-family="Times,serif" font-size="8.00" fill="#000000">ActivityAbout$2</text>
</g>
<!-- c1ea6e3bb_390e_4eec_a769_bc7256a5792e -->
<g id="c1ea6e3bb_390e_4eec_a769_bc7256a5792e" class="node">
<title>c1ea6e3bb_390e_4eec_a769_bc7256a5792e</title>
<polygon fill="none" stroke="#000000" points="3066.9238,-14.5 3066.9238,-50.5 3127.7949,-50.5 3127.7949,-14.5 3066.9238,-14.5"/>
<text text-anchor="middle" x="3097.3594" y="-30.1" font-family="Times,serif" font-size="8.00" fill="#000000">XmlSerializer</text>
</g>
<!-- c47f7aed6_c7af_4b99_a7d4_5e0c97d0ca60 -->
<g id="c47f7aed6_c7af_4b99_a7d4_5e0c97d0ca60" class="node">
<title>c47f7aed6_c7af_4b99_a7d4_5e0c97d0ca60</title>
<polygon fill="none" stroke="#000000" points="3145.5762,-14.5 3145.5762,-50.5 3201.1426,-50.5 3201.1426,-14.5 3145.5762,-14.5"/>
<text text-anchor="middle" x="3173.3594" y="-30.1" font-family="Times,serif" font-size="8.00" fill="#000000">BuildConfig</text>
</g>
<!-- c20357f3b_ce2b_40e9_8f94_3ae6e5a3746b -->
<g id="c20357f3b_ce2b_40e9_8f94_3ae6e5a3746b" class="node">
<title>c20357f3b_ce2b_40e9_8f94_3ae6e5a3746b</title>
<polygon fill="none" stroke="#000000" points="3219.3594,-14.5 3219.3594,-50.5 3273.3594,-50.5 3273.3594,-14.5 3219.3594,-14.5"/>
<text text-anchor="middle" x="3246.3574" y="-30.1" font-family="Times,serif" font-size="8.00" fill="#000000">Attributes</text>
</g>
</g>
</svg>
