<?xml version="1.0" encoding="UTF-8" standalone="no"?>
<!DOCTYPE svg PUBLIC "-//W3C//DTD SVG 1.1//EN"
 "http://www.w3.org/Graphics/SVG/1.1/DTD/svg11.dtd">
<!-- Generated by graphviz version 2.40.1 (20161225.0304)
 -->
<!-- Title: class_diagram Pages: 1 -->
<svg width="3281pt" height="73pt"
 viewBox="0.00 0.00 3281.36 73.00" xmlns="http://www.w3.org/2000/svg" xmlns:xlink="http://www.w3.org/1999/xlink">
<g id="graph0" class="graph" transform="scale(1 1) rotate(0) translate(4 69)">
<title>class_diagram</title>
<polygon fill="#ffffff" stroke="transparent" points="-4,4 -4,-69 3277.3594,-69 3277.3594,4 -4,4"/>
<!-- c940dd6f5_55cf_4203_a333_eecece4000af -->
<g id="c940dd6f5_55cf_4203_a333_eecece4000af" class="node">
<title>c940dd6f5_55cf_4203_a333_eecece4000af</title>
<polygon fill="none" stroke="#000000" points="0,-12.5 0,-52.5 116.7188,-52.5 116.7188,-12.5 0,-12.5"/>
<text text-anchor="middle" x="58.3594" y="-42.1" font-family="Times,serif" font-size="8.00" fill="#000000">AndroidProcesses</text>
<polyline fill="none" stroke="#000000" points="0,-36.5 116.7188,-36.5 "/>
<text text-anchor="start" x="8" y="-26.1" font-family="Times,serif" font-size="8.00" fill="#000000">+ log()</text>
<text text-anchor="start" x="8" y="-18.1" font-family="Times,serif" font-size="8.00" fill="#000000">+ getRunningAppProcessInfo()</text>
</g>
<!-- ccbe55223_884f_4577_9c5d_4401e3d89a4f -->
<g id="ccbe55223_884f_4577_9c5d_4401e3d89a4f" class="node">
<title>ccbe55223_884f_4577_9c5d_4401e3d89a4f</title>
<polygon fill="none" stroke="#000000" points="134.6973,-14.5 134.6973,-50.5 208.0215,-50.5 208.0215,-14.5 134.6973,-14.5"/>
<text text-anchor="middle" x="171.3594" y="-30.1" font-family="Times,serif" font-size="8.00" fill="#000000">ActivityProcesses</text>
</g>
<!-- c8293571a_a639_48f4_9919_89c539c12709 -->
<g id="c8293571a_a639_48f4_9919_89c539c12709" class="node">
<title>c8293571a_a639_48f4_9919_89c539c12709</title>
<polygon fill="none" stroke="#000000" points="225.8105,-14.5 225.8105,-50.5 292.9082,-50.5 292.9082,-14.5 225.8105,-14.5"/>
<text text-anchor="middle" x="259.3594" y="-30.1" font-family="Times,serif" font-size="8.00" fill="#000000">ContentHandler</text>
</g>
<!-- c36884022_1724_41c5_85b4_c60b1c36968d -->
<g id="c36884022_1724_41c5_85b4_c60b1c36968d" class="node">
<title>c36884022_1724_41c5_85b4_c60b1c36968d</title>
<polygon fill="none" stroke="#000000" points="310.918,-14.5 310.918,-50.5 391.8008,-50.5 391.8008,-14.5 310.918,-14.5"/>
<text text-anchor="middle" x="351.3594" y="-39.6" font-family="Times,serif" font-size="8.00" fill="#000000">AndroidAppProcess</text>
<polyline fill="none" stroke="#000000" points="310.918,-33.5 391.8008,-33.5 "/>
<text text-anchor="start" x="318.918" y="-22.6" font-family="Times,serif" font-size="8.00" fill="#000000">&#45; uid:int</text>
<polyline fill="none" stroke="#000000" points="310.918,-16.5 391.8008,-16.5 "/>
</g>
<!-- c1d037647_ee50_4e8a_aa7b_ed8ffceb5a04 -->
<g id="c1d037647_ee50_4e8a_aa7b_ed8ffceb5a04" class="node">
<title>c1d037647_ee50_4e8a_aa7b_ed8ffceb5a04</title>
<polygon fill="none" stroke="#000000" points="410.2559,-14.5 410.2559,-50.5 468.4629,-50.5 468.4629,-14.5 410.2559,-14.5"/>
<text text-anchor="middle" x="439.3594" y="-30.1" font-family="Times,serif" font-size="8.00" fill="#000000">DTDHandler</text>
</g>
<!-- c90cce82d_4229_4765_b8e6_9f89fe7c6fbe -->
<g id="c90cce82d_4229_4765_b8e6_9f89fe7c6fbe" class="node">
<title>c90cce82d_4229_4765_b8e6_9f89fe7c6fbe</title>
<polygon fill="none" stroke="#000000" points="486.3359,-14.5 486.3359,-50.5 642.3828,-50.5 642.3828,-14.5 486.3359,-14.5"/>
<text text-anchor="middle" x="564.3594" y="-39.6" font-family="Times,serif" font-size="8.00" fill="#000000">ControlGroup$1</text>
<polyline fill="none" stroke="#000000" points="486.3359,-33.5 642.3828,-33.5 "/>
<text text-anchor="start" x="494.3359" y="-22.6" font-family="Times,serif" font-size="8.00" fill="#000000">&#45; CREATOR:android.os.Parcelable$Creator</text>
<polyline fill="none" stroke="#000000" points="486.3359,-16.5 642.3828,-16.5 "/>
</g>
<!-- ce0a63b64_0a2d_4707_a5c4_799cd6d893b8 -->
<g id="ce0a63b64_0a2d_4707_a5c4_799cd6d893b8" class="node">
<title>ce0a63b64_0a2d_4707_a5c4_799cd6d893b8</title>
<polygon fill="none" stroke="#000000" points="660.332,-12.5 660.332,-52.5 718.3867,-52.5 718.3867,-12.5 660.332,-12.5"/>
<text text-anchor="middle" x="689.3594" y="-42.1" font-family="Times,serif" font-size="8.00" fill="#000000">Cgroup$1</text>
<polyline fill="none" stroke="#000000" points="660.332,-36.5 718.3867,-36.5 "/>
<text text-anchor="start" x="668.332" y="-26.1" font-family="Times,serif" font-size="8.00" fill="#000000">+ getGroup()</text>
<text text-anchor="start" x="668.332" y="-18.1" font-family="Times,serif" font-size="8.00" fill="#000000">+ get()</text>
</g>
<!-- c7f777af1_7a2f_4470_a6e3_8adc8e362b80 -->
<g id="c7f777af1_7a2f_4470_a6e3_8adc8e362b80" class="node">
<title>c7f777af1_7a2f_4470_a6e3_8adc8e362b80</title>
<polygon fill="none" stroke="#000000" points="736.3594,-14.5 736.3594,-50.5 790.3594,-50.5 790.3594,-14.5 736.3594,-14.5"/>
<text text-anchor="middle" x="763.082" y="-35.1" font-family="Times,serif" font-size="8.00" fill="#000000">Stat</text>
<polyline fill="none" stroke="#000000" points="736.3594,-24.5 789.8047,-24.5 "/>
</g>
<!-- c92a5331c_e567_4b96_9165_742b80507822 -->
<g id="c92a5331c_e567_4b96_9165_742b80507822" class="node">
<title>c92a5331c_e567_4b96_9165_742b80507822</title>
<polygon fill="none" stroke="#000000" points="808.3594,-14.5 808.3594,-50.5 862.3594,-50.5 862.3594,-14.5 808.3594,-14.5"/>
<text text-anchor="middle" x="835.1387" y="-35.1" font-family="Times,serif" font-size="8.00" fill="#000000">Status$1</text>
<polyline fill="none" stroke="#000000" points="808.3594,-24.5 861.918,-24.5 "/>
</g>
<!-- c1fb1421d_0ed7_44f4_a0f3_f33ae317e141 -->
<g id="c1fb1421d_0ed7_44f4_a0f3_f33ae317e141" class="node">
<title>c1fb1421d_0ed7_44f4_a0f3_f33ae317e141</title>
<polygon fill="none" stroke="#000000" points="880.3594,-14.5 880.3594,-50.5 934.3594,-50.5 934.3594,-14.5 880.3594,-14.5"/>
<text text-anchor="middle" x="906.9141" y="-35.1" font-family="Times,serif" font-size="8.00" fill="#000000">ProcFile</text>
<polyline fill="none" stroke="#000000" points="880.3594,-24.5 933.4688,-24.5 "/>
</g>
<!-- c25bfb9b9_5148_4600_998d_d89780d7e6c9 -->
<g id="c25bfb9b9_5148_4600_998d_d89780d7e6c9" class="node">
<title>c25bfb9b9_5148_4600_998d_d89780d7e6c9</title>
<polygon fill="none" stroke="#000000" points="951.9258,-.5 951.9258,-64.5 1042.793,-64.5 1042.793,-.5 951.9258,-.5"/>
<text text-anchor="middle" x="997.3594" y="-54.1" font-family="Times,serif" font-size="8.00" fill="#000000">AndroidProcess</text>
<polyline fill="none" stroke="#000000" points="951.9258,-48.5 1042.793,-48.5 "/>
<text text-anchor="start" x="959.9258" y="-38.1" font-family="Times,serif" font-size="8.00" fill="#000000">&#45; name:java.lang.String</text>
<polyline fill="none" stroke="#000000" points="951.9258,-32.5 1042.793,-32.5 "/>
<text text-anchor="start" x="959.9258" y="-22.1" font-family="Times,serif" font-size="8.00" fill="#000000">+ status()</text>
<text text-anchor="start" x="959.9258" y="-14.1" font-family="Times,serif" font-size="8.00" fill="#000000">+ cgroup()</text>
<text text-anchor="start" x="959.9258" y="-6.1" font-family="Times,serif" font-size="8.00" fill="#000000">+ stat()</text>
</g>
<!-- c78fa547e_bdd2_4cce_a759_2282f758b4c8 -->
<g id="c78fa547e_bdd2_4cce_a759_2282f758b4c8" class="node">
<title>c78fa547e_bdd2_4cce_a759_2282f758b4c8</title>
<polygon fill="none" stroke="#000000" points="1061.2598,-14.5 1061.2598,-50.5 1175.459,-50.5 1175.459,-14.5 1061.2598,-14.5"/>
<text text-anchor="middle" x="1118.3594" y="-30.1" font-family="Times,serif" font-size="8.00" fill="#000000">SAXNotRecognizedException</text>
</g>
<!-- c841df9ed_63f8_4ca4_aceb_3d8979db687e -->
<g id="c841df9ed_63f8_4ca4_aceb_3d8979db687e" class="node">
<title>c841df9ed_63f8_4ca4_aceb_3d8979db687e</title>
<polygon fill="none" stroke="#000000" points="1193.0371,-14.5 1193.0371,-50.5 1251.6816,-50.5 1251.6816,-14.5 1193.0371,-14.5"/>
<text text-anchor="middle" x="1222.3594" y="-30.1" font-family="Times,serif" font-size="8.00" fill="#000000">ErrorHandler</text>
</g>
<!-- c172d3f01_ceae_4214_b60b_30233a8b0b63 -->
<g id="c172d3f01_ceae_4214_b60b_30233a8b0b63" class="node">
<title>c172d3f01_ceae_4214_b60b_30233a8b0b63</title>
<polygon fill="none" stroke="#000000" points="1269.3594,-14.5 1269.3594,-50.5 1323.3594,-50.5 1323.3594,-14.5 1269.3594,-14.5"/>
<text text-anchor="middle" x="1296.2969" y="-30.1" font-family="Times,serif" font-size="8.00" fill="#000000">Locator</text>
</g>
<!-- c995c4f21_e95b_4e2b_a681_8d026bb0033d -->
<g id="c995c4f21_e95b_4e2b_a681_8d026bb0033d" class="node">
<title>c995c4f21_e95b_4e2b_a681_8d026bb0033d</title>
<polygon fill="none" stroke="#000000" points="1341.0391,-14.5 1341.0391,-50.5 1411.6797,-50.5 1411.6797,-14.5 1341.0391,-14.5"/>
<text text-anchor="middle" x="1376.3594" y="-30.1" font-family="Times,serif" font-size="8.00" fill="#000000">ServiceReader$4</text>
</g>
<!-- c0dc20f9c_2617_4074_9995_457ddf233dc3 -->
<g id="c0dc20f9c_2617_4074_9995_457ddf233dc3" class="node">
<title>c0dc20f9c_2617_4074_9995_457ddf233dc3</title>
<polygon fill="none" stroke="#000000" points="1429.9238,-14.5 1429.9238,-50.5 1498.7949,-50.5 1498.7949,-14.5 1429.9238,-14.5"/>
<text text-anchor="middle" x="1464.3594" y="-30.1" font-family="Times,serif" font-size="8.00" fill="#000000">ProcessManager</text>
</g>
<!-- cb0c97e40_098b_4266_8e51_2e9fc8f3ea3a -->
<g id="cb0c97e40_098b_4266_8e51_2e9fc8f3ea3a" class="node">
<title>cb0c97e40_098b_4266_8e51_2e9fc8f3ea3a</title>
<polygon fill="none" stroke="#000000" points="1516.3594,-14.5 1516.3594,-50.5 1570.3594,-50.5 1570.3594,-14.5 1516.3594,-14.5"/>
<text text-anchor="middle" x="1543.0273" y="-30.1" font-family="Times,serif" font-size="8.00" fill="#000000">C</text>
</g>
<!-- c82359928_1663_4257_9181_e787da27ea07 -->
<g id="c82359928_1663_4257_9181_e787da27ea07" class="node">
<title>c82359928_1663_4257_9181_e787da27ea07</title>
<polygon fill="none" stroke="#000000" points="1588.3594,-14.5 1588.3594,-50.5 1642.3594,-50.5 1642.3594,-14.5 1588.3594,-14.5"/>
<text text-anchor="middle" x="1615.1934" y="-30.1" font-family="Times,serif" font-size="8.00" fill="#000000">Statm</text>
</g>
<!-- c096d67d4_df6c_4092_bcd3_e9a29b1b0df4 -->
<g id="c096d67d4_df6c_4092_bcd3_e9a29b1b0df4" class="node">
<title>c096d67d4_df6c_4092_bcd3_e9a29b1b0df4</title>
<polygon fill="none" stroke="#000000" points="1660.6973,-14.5 1660.6973,-50.5 1770.0215,-50.5 1770.0215,-14.5 1660.6973,-14.5"/>
<text text-anchor="middle" x="1715.3594" y="-30.1" font-family="Times,serif" font-size="8.00" fill="#000000">SAXNotSupportedException</text>
</g>
<!-- c9c2b1672_169d_4fee_970e_688f4873bfff -->
<g id="c9c2b1672_169d_4fee_970e_688f4873bfff" class="node">
<title>c9c2b1672_169d_4fee_970e_688f4873bfff</title>
<polygon fill="none" stroke="#000000" points="1788.1445,-14.5 1788.1445,-50.5 1844.5742,-50.5 1844.5742,-14.5 1788.1445,-14.5"/>
<text text-anchor="middle" x="1816.3594" y="-30.1" font-family="Times,serif" font-size="8.00" fill="#000000">XMLReader</text>
</g>
<!-- cf7e82461_23a9_4bd7_a018_c3a19f319851 -->
<g id="cf7e82461_23a9_4bd7_a018_c3a19f319851" class="node">
<title>cf7e82461_23a9_4bd7_a018_c3a19f319851</title>
<polygon fill="none" stroke="#000000" points="1863.0508,-14.5 1863.0508,-50.5 1921.668,-50.5 1921.668,-14.5 1863.0508,-14.5"/>
<text text-anchor="middle" x="1892.3594" y="-30.1" font-family="Times,serif" font-size="8.00" fill="#000000">ViewGraphic</text>
</g>
<!-- c75d73a76_b646_4105_90f8_ecc68ef7415e -->
<g id="c75d73a76_b646_4105_90f8_ecc68ef7415e" class="node">
<title>c75d73a76_b646_4105_90f8_ecc68ef7415e</title>
<polygon fill="none" stroke="#000000" points="1939.8047,-14.5 1939.8047,-50.5 2002.9141,-50.5 2002.9141,-14.5 1939.8047,-14.5"/>
<text text-anchor="middle" x="1971.3594" y="-30.1" font-family="Times,serif" font-size="8.00" fill="#000000">XmlPullParser</text>
</g>
<!-- cb6e4dbe8_bee0_4703_a216_1b40eeebd69a -->
<g id="cb6e4dbe8_bee0_4703_a216_1b40eeebd69a" class="node">
<title>cb6e4dbe8_bee0_4703_a216_1b40eeebd69a</title>
<polygon fill="none" stroke="#000000" points="2020.4766,-14.5 2020.4766,-50.5 2102.2422,-50.5 2102.2422,-14.5 2020.4766,-14.5"/>
<text text-anchor="middle" x="2061.3594" y="-30.1" font-family="Times,serif" font-size="8.00" fill="#000000">SAXParseException</text>
</g>
<!-- ce2c7ad0d_9d48_4abc_8629_4a7dffbae897 -->
<g id="ce2c7ad0d_9d48_4abc_8629_4a7dffbae897" class="node">
<title>ce2c7ad0d_9d48_4abc_8629_4a7dffbae897</title>
<polygon fill="none" stroke="#000000" points="2120.5762,-14.5 2120.5762,-50.5 2176.1426,-50.5 2176.1426,-14.5 2120.5762,-14.5"/>
<text text-anchor="middle" x="2148.3594" y="-30.1" font-family="Times,serif" font-size="8.00" fill="#000000">BuildConfig</text>
</g>
<!-- cf1d51ccd_1108_44d0_b644_b5c669dcdc03 -->
<g id="cf1d51ccd_1108_44d0_b644_b5c669dcdc03" class="node">
<title>cf1d51ccd_1108_44d0_b644_b5c669dcdc03</title>
<polygon fill="none" stroke="#000000" points="2193.8066,-14.5 2193.8066,-50.5 2264.9121,-50.5 2264.9121,-14.5 2193.8066,-14.5"/>
<text text-anchor="middle" x="2229.3594" y="-30.1" font-family="Times,serif" font-size="8.00" fill="#000000">ActivityMain$19</text>
</g>
<!-- c8211e298_4207_4eaa_89a0_cf4d28c80cc5 -->
<g id="c8211e298_4207_4eaa_89a0_cf4d28c80cc5" class="node">
<title>c8211e298_4207_4eaa_89a0_cf4d28c80cc5</title>
<polygon fill="none" stroke="#000000" points="2283.3633,-14.5 2283.3633,-50.5 2347.3555,-50.5 2347.3555,-14.5 2283.3633,-14.5"/>
<text text-anchor="middle" x="2315.3594" y="-30.1" font-family="Times,serif" font-size="8.00" fill="#000000">EntityResolver</text>
</g>
<!-- c2d31fabc_bb08_4119_bd4a_1abcf2338a63 -->
<g id="c2d31fabc_bb08_4119_bd4a_1abcf2338a63" class="node">
<title>c2d31fabc_bb08_4119_bd4a_1abcf2338a63</title>
<polygon fill="none" stroke="#000000" points="2365.3594,-14.5 2365.3594,-50.5 2419.3594,-50.5 2419.3594,-14.5 2365.3594,-14.5"/>
<text text-anchor="middle" x="2392.0273" y="-30.1" font-family="Times,serif" font-size="8.00" fill="#000000">R</text>
</g>
<!-- c57a11a1b_8e6f_4e0d_9b6b_0e501d4f14af -->
<g id="c57a11a1b_8e6f_4e0d_9b6b_0e501d4f14af" class="node">
<title>c57a11a1b_8e6f_4e0d_9b6b_0e501d4f14af</title>
<polygon fill="none" stroke="#000000" points="2437.1406,-14.5 2437.1406,-50.5 2501.5781,-50.5 2501.5781,-14.5 2437.1406,-14.5"/>
<text text-anchor="middle" x="2469.3594" y="-30.1" font-family="Times,serif" font-size="8.00" fill="#000000">SAXException</text>
</g>
<!-- c1d72188a_d79b_4580_9a2b_060366ca913e -->
<g id="c1d72188a_d79b_4580_9a2b_060366ca913e" class="node">
<title>c1d72188a_d79b_4580_9a2b_060366ca913e</title>
<polygon fill="none" stroke="#000000" points="2519.8086,-14.5 2519.8086,-50.5 2574.9102,-50.5 2574.9102,-14.5 2519.8086,-14.5"/>
<text text-anchor="middle" x="2547.3594" y="-30.1" font-family="Times,serif" font-size="8.00" fill="#000000">InputSource</text>
</g>
<!-- c03268374_fc09_4893_aa43_810aca843e16 -->
<g id="c03268374_fc09_4893_aa43_810aca843e16" class="node">
<title>c03268374_fc09_4893_aa43_810aca843e16</title>
<polygon fill="none" stroke="#000000" points="2593.3594,-14.5 2593.3594,-50.5 2647.3594,-50.5 2647.3594,-14.5 2593.3594,-14.5"/>
<text text-anchor="middle" x="2620.0254" y="-30.1" font-family="Times,serif" font-size="8.00" fill="#000000">R$layout</text>
</g>
<!-- c59b7d747_ca0f_4a55_ba7e_04cc831b4f2f -->
<g id="c59b7d747_ca0f_4a55_ba7e_04cc831b4f2f" class="node">
<title>c59b7d747_ca0f_4a55_ba7e_04cc831b4f2f</title>
<polygon fill="none" stroke="#000000" points="2665.5879,-14.5 2665.5879,-50.5 2761.1309,-50.5 2761.1309,-14.5 2665.5879,-14.5"/>
<text text-anchor="middle" x="2713.3594" y="-30.1" font-family="Times,serif" font-size="8.00" fill="#000000">XmlPullParserException</text>
</g>
<!-- ca5ea2df6_a36f_4849_8367_47d133407abd -->
<g id="ca5ea2df6_a36f_4849_8367_47d133407abd" class="node">
<title>ca5ea2df6_a36f_4849_8367_47d133407abd</title>
<polygon fill="none" stroke="#000000" points="2778.7012,-14.5 2778.7012,-50.5 2876.0176,-50.5 2876.0176,-14.5 2778.7012,-14.5"/>
<text text-anchor="middle" x="2827.3594" y="-30.1" font-family="Times,serif" font-size="8.00" fill="#000000">LinearLayoutCustomised</text>
</g>
<!-- c42e81816_4b48_47ca_b280_ec23887a203a -->
<g id="c42e81816_4b48_47ca_b280_ec23887a203a" class="node">
<title>c42e81816_4b48_47ca_b280_ec23887a203a</title>
<polygon fill="none" stroke="#000000" points="2894.4746,-14.5 2894.4746,-50.5 2960.2441,-50.5 2960.2441,-14.5 2894.4746,-14.5"/>
<text text-anchor="middle" x="2927.3594" y="-30.1" font-family="Times,serif" font-size="8.00" fill="#000000">ActivityHelp$1</text>
</g>
<!-- c1ec67853_735f_4c17_849f_5f42c4220d3a -->
<g id="c1ec67853_735f_4c17_849f_5f42c4220d3a" class="node">
<title>c1ec67853_735f_4c17_849f_5f42c4220d3a</title>
<polygon fill="none" stroke="#000000" points="2978.25,-14.5 2978.25,-50.5 3048.4688,-50.5 3048.4688,-14.5 2978.25,-14.5"/>
<text text-anchor="middle" x="3013.3594" y="-30.1" font-family="Times,serif" font-size="8.00" fill="#000000">ActivityAbout$2</text>
</g>
<!-- cf65029be_e9f7_4185_b752_a0739827342e -->
<g id="cf65029be_e9f7_4185_b752_a0739827342e" class="node">
<title>cf65029be_e9f7_4185_b752_a0739827342e</title>
<polygon fill="none" stroke="#000000" points="3066.9238,-14.5 3066.9238,-50.5 3127.7949,-50.5 3127.7949,-14.5 3066.9238,-14.5"/>
<text text-anchor="middle" x="3097.3594" y="-30.1" font-family="Times,serif" font-size="8.00" fill="#000000">XmlSerializer</text>
</g>
<!-- c729d98bb_3be4_42a6_b352_2fffa5db1cb3 -->
<g id="c729d98bb_3be4_42a6_b352_2fffa5db1cb3" class="node">
<title>c729d98bb_3be4_42a6_b352_2fffa5db1cb3</title>
<polygon fill="none" stroke="#000000" points="3145.5762,-14.5 3145.5762,-50.5 3201.1426,-50.5 3201.1426,-14.5 3145.5762,-14.5"/>
<text text-anchor="middle" x="3173.3594" y="-30.1" font-family="Times,serif" font-size="8.00" fill="#000000">BuildConfig</text>
</g>
<!-- c15ced6bc_992d_4f4b_8506_2d668a516e95 -->
<g id="c15ced6bc_992d_4f4b_8506_2d668a516e95" class="node">
<title>c15ced6bc_992d_4f4b_8506_2d668a516e95</title>
<polygon fill="none" stroke="#000000" points="3219.3594,-14.5 3219.3594,-50.5 3273.3594,-50.5 3273.3594,-14.5 3219.3594,-14.5"/>
<text text-anchor="middle" x="3246.3574" y="-30.1" font-family="Times,serif" font-size="8.00" fill="#000000">Attributes</text>
</g>
</g>
</svg>
