<?xml version="1.0" encoding="UTF-8" standalone="no"?>
<!DOCTYPE svg PUBLIC "-//W3C//DTD SVG 1.1//EN"
 "http://www.w3.org/Graphics/SVG/1.1/DTD/svg11.dtd">
<!-- Generated by graphviz version 2.38.0 (20140413.2041)
 -->
<!-- Title: g Pages: 1 -->
<svg width="326pt" height="260pt"
 viewBox="0.00 0.00 326.14 260.00" xmlns="http://www.w3.org/2000/svg" xmlns:xlink="http://www.w3.org/1999/xlink">
<g id="graph0" class="graph" transform="scale(1 1) rotate(0) translate(4 256)">
<title>g</title>
<polygon fill="white" stroke="none" points="-4,4 -4,-256 322.137,-256 322.137,4 -4,4"/>
<!-- Select Weapon available -->
<g id="node1" class="node"><title>Select Weapon available</title>
<ellipse fill="none" stroke="black" cx="188.641" cy="-90" rx="98.5829" ry="18"/>
<text text-anchor="middle" x="188.641" y="-86.3" font-family="Times New Roman,serif" font-size="14.00">Select Weapon available</text>
</g>
<!-- Check Weapon Inventory -->
<g id="node2" class="node"><title>Check Weapon Inventory</title>
<ellipse fill="none" stroke="black" cx="104.641" cy="-18" rx="104.782" ry="18"/>
<text text-anchor="middle" x="104.641" y="-14.3" font-family="Times New Roman,serif" font-size="14.00">Check Weapon Inventory</text>
</g>
<!-- Select Weapon available&#45;&gt;Check Weapon Inventory -->
<g id="edge1" class="edge"><title>Select Weapon available&#45;&gt;Check Weapon Inventory</title>
<path fill="none" stroke="black" d="M168.307,-72.055C157.576,-63.1128 144.247,-52.0054 132.562,-42.268"/>
<polygon fill="black" stroke="black" points="134.71,-39.5021 124.788,-35.789 130.229,-44.8797 134.71,-39.5021"/>
</g>
<!-- Weapons -->
<g id="node3" class="node"><title>Weapons</title>
<ellipse fill="none" stroke="black" cx="272.641" cy="-18" rx="45.4919" ry="18"/>
<text text-anchor="middle" x="272.641" y="-14.3" font-family="Times New Roman,serif" font-size="14.00">Weapons</text>
</g>
<!-- Select Weapon available&#45;&gt;Weapons -->
<g id="edge2" class="edge"><title>Select Weapon available&#45;&gt;Weapons</title>
<path fill="none" stroke="black" d="M208.975,-72.055C220.1,-62.784 234.018,-51.1857 246.001,-41.1997"/>
<polygon fill="black" stroke="black" points="248.488,-43.683 253.93,-34.5923 244.007,-38.3054 248.488,-43.683"/>
</g>
<!-- Weapons Bar -->
<g id="node4" class="node"><title>Weapons Bar</title>
<ellipse fill="none" stroke="black" cx="188.641" cy="-162" rx="60.3893" ry="18"/>
<text text-anchor="middle" x="188.641" y="-158.3" font-family="Times New Roman,serif" font-size="14.00">Weapons Bar</text>
</g>
<!-- Weapons Bar&#45;&gt;Select Weapon available -->
<g id="edge3" class="edge"><title>Weapons Bar&#45;&gt;Select Weapon available</title>
<path fill="none" stroke="black" d="M188.641,-143.697C188.641,-135.983 188.641,-126.712 188.641,-118.112"/>
<polygon fill="black" stroke="black" points="192.141,-118.104 188.641,-108.104 185.141,-118.104 192.141,-118.104"/>
</g>
<!-- User -->
<g id="node5" class="node"><title>User</title>
<ellipse fill="none" stroke="black" cx="188.641" cy="-234" rx="27.8951" ry="18"/>
<text text-anchor="middle" x="188.641" y="-230.3" font-family="Times New Roman,serif" font-size="14.00">User</text>
</g>
<!-- User&#45;&gt;Weapons Bar -->
<g id="edge4" class="edge"><title>User&#45;&gt;Weapons Bar</title>
<path fill="none" stroke="black" d="M188.641,-215.697C188.641,-207.983 188.641,-198.712 188.641,-190.112"/>
<polygon fill="black" stroke="black" points="192.141,-190.104 188.641,-180.104 185.141,-190.104 192.141,-190.104"/>
</g>
</g>
</svg>
