<?xml version="1.0" encoding="UTF-8" standalone="no"?>
<!DOCTYPE svg PUBLIC "-//W3C//DTD SVG 1.1//EN"
 "http://www.w3.org/Graphics/SVG/1.1/DTD/svg11.dtd">
<!-- Generated by graphviz version 2.38.0 (20140413.2041)
 -->
<!-- Title: g Pages: 1 -->
<svg width="1311pt" height="240pt"
 viewBox="0.00 0.00 1311.00 239.92" xmlns="http://www.w3.org/2000/svg" xmlns:xlink="http://www.w3.org/1999/xlink">
<g id="graph0" class="graph" transform="scale(1 1) rotate(0) translate(4 235.916)">
<title>g</title>
<polygon fill="white" stroke="none" points="-4,4 -4,-235.916 1307,-235.916 1307,4 -4,4"/>
<!-- EAID_BBCA0215_A216_4cd4_9B39_BF10D8CD90B8 -->
<g id="node1" class="node"><title>EAID_BBCA0215_A216_4cd4_9B39_BF10D8CD90B8</title>
<image xlink:href="img/actor1.png" width="61px" height="90px" preserveAspectRatio="xMinYMin meet" x="10.5" y="-127.416"/>
<text text-anchor="start" x="19" y="-14.2156" font-family="Times New Roman,serif" font-size="24.00">User</text>
</g>
<!-- EAID_7F66C64A_57DC_43b1_89B1_9DA4DACFC574 -->
<g id="node2" class="node"><title>EAID_7F66C64A_57DC_43b1_89B1_9DA4DACFC574</title>
<image xlink:href="img/boundary3.png" width="115px" height="67px" preserveAspectRatio="xMinYMin meet" x="227.5" y="-157.416"/>
<text text-anchor="start" x="127" y="-67.2156" font-family="Times New Roman,serif" font-size="24.00">View volunteer application &#160;Page</text>
</g>
<!-- EAID_BBCA0215_A216_4cd4_9B39_BF10D8CD90B8&#45;&gt;EAID_7F66C64A_57DC_43b1_89B1_9DA4DACFC574 -->
<g id="edge1" class="edge"><title>EAID_BBCA0215_A216_4cd4_9B39_BF10D8CD90B8&#45;&gt;EAID_7F66C64A_57DC_43b1_89B1_9DA4DACFC574</title>
<path fill="none" stroke="black" d="M81.0015,-74.2571C88.8706,-75.62 97.5996,-77.1318 106.888,-78.7405"/>
<polygon fill="black" stroke="black" points="106.307,-82.192 116.758,-80.45 107.502,-75.2947 106.307,-82.192"/>
</g>
<!-- EAID_CD061C46_A3A2_424f_BF29_FDBD66313AA5 -->
<g id="node3" class="node"><title>EAID_CD061C46_A3A2_424f_BF29_FDBD66313AA5</title>
<image xlink:href="img/boundary3.png" width="102px" height="67px" preserveAspectRatio="xMinYMin meet" x="1191" y="-117.416"/>
<text text-anchor="start" x="1191" y="-27.2156" font-family="Times New Roman,serif" font-size="24.00">Homepage</text>
</g>
<!-- EAID_BBCA0215_A216_4cd4_9B39_BF10D8CD90B8&#45;&gt;EAID_CD061C46_A3A2_424f_BF29_FDBD66313AA5 -->
<g id="edge2" class="edge"><title>EAID_BBCA0215_A216_4cd4_9B39_BF10D8CD90B8&#45;&gt;EAID_CD061C46_A3A2_424f_BF29_FDBD66313AA5</title>
<path fill="none" stroke="black" d="M81.0025,-53.6204C92.4679,-50.2433 105.106,-47.1132 117,-45.4156 569.305,19.1408 691.534,10.4086 1145,-45.4156 1153.55,-46.4679 1162.43,-48.0284 1171.19,-49.8578"/>
<polygon fill="black" stroke="black" points="1170.48,-53.2852 1181,-52.0247 1171.99,-46.45 1170.48,-53.2852"/>
</g>
<!-- EAID_DFE955D7_BB7B_43a8_90ED_26114E31B831 -->
<g id="node4" class="node"><title>EAID_DFE955D7_BB7B_43a8_90ED_26114E31B831</title>
<image xlink:href="img/control1.png" width="106px" height="75px" preserveAspectRatio="xMinYMin meet" x="620" y="-225.416"/>
<text text-anchor="start" x="499" y="-127.216" font-family="Times New Roman,serif" font-size="24.00">Choose one of &#160;volunteer application</text>
</g>
<!-- EAID_7F66C64A_57DC_43b1_89B1_9DA4DACFC574&#45;&gt;EAID_DFE955D7_BB7B_43a8_90ED_26114E31B831 -->
<g id="edge4" class="edge"><title>EAID_7F66C64A_57DC_43b1_89B1_9DA4DACFC574&#45;&gt;EAID_DFE955D7_BB7B_43a8_90ED_26114E31B831</title>
<path fill="none" stroke="black" d="M453.06,-137.115C461.554,-138.523 470.116,-139.943 478.679,-141.362"/>
<polygon fill="black" stroke="black" points="478.29,-144.846 488.728,-143.028 479.435,-137.94 478.29,-144.846"/>
</g>
<!-- EAID_48FAC262_13E2_45ef_A2C7_10C950AB561F -->
<g id="node5" class="node"><title>EAID_48FAC262_13E2_45ef_A2C7_10C950AB561F</title>
<image xlink:href="img/control1.png" width="106px" height="75px" preserveAspectRatio="xMinYMin meet" x="966" y="-165.416"/>
<text text-anchor="start" x="903" y="-67.2156" font-family="Times New Roman,serif" font-size="24.00">Show confirmation page</text>
</g>
<!-- EAID_DFE955D7_BB7B_43a8_90ED_26114E31B831&#45;&gt;EAID_48FAC262_13E2_45ef_A2C7_10C950AB561F -->
<g id="edge3" class="edge"><title>EAID_DFE955D7_BB7B_43a8_90ED_26114E31B831&#45;&gt;EAID_48FAC262_13E2_45ef_A2C7_10C950AB561F</title>
<path fill="none" stroke="black" d="M857.079,-141.483C865.729,-139.975 874.341,-138.472 882.827,-136.992"/>
<polygon fill="black" stroke="black" points="883.477,-140.432 892.727,-135.266 882.274,-133.536 883.477,-140.432"/>
</g>
<!-- EAID_48FAC262_13E2_45ef_A2C7_10C950AB561F&#45;&gt;EAID_7F66C64A_57DC_43b1_89B1_9DA4DACFC574 -->
<g id="edge6" class="edge"><title>EAID_48FAC262_13E2_45ef_A2C7_10C950AB561F&#45;&gt;EAID_7F66C64A_57DC_43b1_89B1_9DA4DACFC574</title>
<path fill="none" stroke="black" d="M892.775,-106.585C880.688,-106.109 868.611,-105.704 857,-105.416 725.085,-102.14 575.979,-103.352 463.223,-105.271"/>
<polygon fill="black" stroke="black" points="463.052,-101.773 453.114,-105.446 463.173,-108.772 463.052,-101.773"/>
</g>
<!-- EAID_48FAC262_13E2_45ef_A2C7_10C950AB561F&#45;&gt;EAID_CD061C46_A3A2_424f_BF29_FDBD66313AA5 -->
<g id="edge5" class="edge"><title>EAID_48FAC262_13E2_45ef_A2C7_10C950AB561F&#45;&gt;EAID_CD061C46_A3A2_424f_BF29_FDBD66313AA5</title>
<path fill="none" stroke="black" d="M1145.03,-88.5226C1153.85,-86.767 1162.54,-85.0364 1170.88,-83.3765"/>
<polygon fill="black" stroke="black" points="1171.73,-86.7754 1180.86,-81.3901 1170.36,-79.9101 1171.73,-86.7754"/>
</g>
</g>
</svg>
