<?xml version="1.0" encoding="UTF-8" standalone="no"?>
<!DOCTYPE svg PUBLIC "-//W3C//DTD SVG 1.1//EN"
 "http://www.w3.org/Graphics/SVG/1.1/DTD/svg11.dtd">
<!-- Generated by graphviz version 2.38.0 (20140413.2041)
 -->
<!-- Title: g Pages: 1 -->
<svg width="2267pt" height="1050pt"
 viewBox="0.00 0.00 2267.00 1050.00" xmlns="http://www.w3.org/2000/svg" xmlns:xlink="http://www.w3.org/1999/xlink">
<g id="graph0" class="graph" transform="scale(1 1) rotate(0) translate(4 1046)">
<title>g</title>
<polygon fill="white" stroke="none" points="-4,4 -4,-1046 2263,-1046 2263,4 -4,4"/>
<g id="clust1" class="cluster"><title>cluster0</title>
<polygon fill="none" stroke="black" stroke-width="2" points="8,-464 8,-923 484,-923 484,-464 8,-464"/>
<text text-anchor="start" x="224" y="-908.8" font-family="Times New Roman,serif" font-weight="bold" font-size="14.00">System</text>
</g>
<g id="clust3" class="cluster"><title>cluster1000</title>
<polygon fill="none" stroke="black" stroke-width="2" points="164,-8 164,-456 2251,-456 2251,-8 164,-8"/>
<text text-anchor="start" x="1162" y="-441.8" font-family="Times New Roman,serif" font-weight="bold" font-size="14.00">Domain Model</text>
</g>
<g id="clust2" class="cluster"><title>cluster1</title>
<polygon fill="none" stroke="black" stroke-width="2" points="94,-931 94,-1034 506,-1034 506,-931 94,-931"/>
<text text-anchor="start" x="285.5" y="-1019.8" font-family="Times New Roman,serif" font-weight="bold" font-size="14.00">User</text>
</g>
<!-- EAID_BBCA0215_A216_4cd4_9B39_BF10D8CD90B8___EAID_7F66C64A_57DC_43b1_89B1_9DA4DACFC574 -->
<g id="node1" class="node"><title>EAID_BBCA0215_A216_4cd4_9B39_BF10D8CD90B8___EAID_7F66C64A_57DC_43b1_89B1_9DA4DACFC574</title>
<image xlink:href="img/activity_icon.png" width="30px" height="20px" preserveAspectRatio="xMinYMin meet" x="217" y="-886"/>
<text text-anchor="start" x="134" y="-851.8" font-family="Times New Roman,serif" font-weight="bold" font-size="14.00">User:View volunteer application</text>
<text text-anchor="start" x="214.5" y="-837.8" font-family="Times New Roman,serif" font-weight="bold" font-size="14.00"> Page</text>
</g>
<!-- EAID_7F66C64A_57DC_43b1_89B1_9DA4DACFC574___EAID_DFE955D7_BB7B_43a8_90ED_26114E31B831 -->
<g id="node4" class="node"><title>EAID_7F66C64A_57DC_43b1_89B1_9DA4DACFC574___EAID_DFE955D7_BB7B_43a8_90ED_26114E31B831</title>
<image xlink:href="img/activity_icon.png" width="30px" height="20px" preserveAspectRatio="xMinYMin meet" x="249.5" y="-786"/>
<text text-anchor="start" x="183" y="-751.8" font-family="Times New Roman,serif" font-weight="bold" font-size="14.00">View volunteer application</text>
<text text-anchor="start" x="209.5" y="-737.8" font-family="Times New Roman,serif" font-weight="bold" font-size="14.00"> Page:Choose one</text>
<text text-anchor="start" x="226" y="-723.8" font-family="Times New Roman,serif" font-weight="bold" font-size="14.00">of &#160;volunteer</text>
<text text-anchor="start" x="230.5" y="-709.8" font-family="Times New Roman,serif" font-weight="bold" font-size="14.00">application</text>
</g>
<!-- EAID_BBCA0215_A216_4cd4_9B39_BF10D8CD90B8___EAID_7F66C64A_57DC_43b1_89B1_9DA4DACFC574&#45;&gt;EAID_7F66C64A_57DC_43b1_89B1_9DA4DACFC574___EAID_DFE955D7_BB7B_43a8_90ED_26114E31B831 -->
<g id="edge1" class="edge"><title>EAID_BBCA0215_A216_4cd4_9B39_BF10D8CD90B8___EAID_7F66C64A_57DC_43b1_89B1_9DA4DACFC574&#45;&gt;EAID_7F66C64A_57DC_43b1_89B1_9DA4DACFC574___EAID_DFE955D7_BB7B_43a8_90ED_26114E31B831</title>
<path fill="none" stroke="black" d="M240.914,-827.802C243.198,-819.807 245.724,-810.967 248.241,-802.155"/>
<polygon fill="black" stroke="black" points="251.685,-802.841 251.067,-792.265 244.955,-800.918 251.685,-802.841"/>
</g>
<!-- EAID_592DC096_1167_44d2_99F7_64B7108A3BF6 -->
<g id="node15" class="node"><title>EAID_592DC096_1167_44d2_99F7_64B7108A3BF6</title>
<polygon fill="none" stroke="black" points="411,-272.5 411,-293.5 605,-293.5 605,-272.5 411,-272.5"/>
<text text-anchor="start" x="441" y="-280.3" font-family="Times New Roman,serif" font-weight="bold" font-size="14.00">Volunteer Application</text>
<polygon fill="none" stroke="black" points="411,-251.5 411,-272.5 605,-272.5 605,-251.5 411,-251.5"/>
<text text-anchor="start" x="437.5" y="-259.3" font-family="Times New Roman,serif" font-weight="bold" font-size="14.00">EAJava_void Contents</text>
<polygon fill="none" stroke="black" points="411,-230.5 411,-251.5 605,-251.5 605,-230.5 411,-230.5"/>
<text text-anchor="start" x="425" y="-238.3" font-family="Times New Roman,serif" font-weight="bold" font-size="14.00">EAJava_void Service Time</text>
<polygon fill="none" stroke="black" points="411,-209.5 411,-230.5 605,-230.5 605,-209.5 411,-209.5"/>
<text text-anchor="start" x="415" y="-217.3" font-family="Times New Roman,serif" font-weight="bold" font-size="14.00">EAJava_void Volunteer Email</text>
<polygon fill="none" stroke="black" points="411,-188.5 411,-209.5 605,-209.5 605,-188.5 411,-188.5"/>
<text text-anchor="start" x="415" y="-196.3" font-family="Times New Roman,serif" font-weight="bold" font-size="14.00">EAJava_void Volunteer Name</text>
<polygon fill="none" stroke="black" points="411,-167.5 411,-188.5 605,-188.5 605,-167.5 411,-167.5"/>
<text text-anchor="start" x="414" y="-175.3" font-family="Times New Roman,serif" font-weight="bold" font-size="14.00">EAJava_void Volunteer Phone</text>
<polygon fill="none" stroke="black" points="411,-146.5 411,-167.5 605,-167.5 605,-146.5 411,-146.5"/>
<text text-anchor="start" x="438.5" y="-154.3" font-family="Times New Roman,serif" font-weight="bold" font-size="14.00">VolunteerApplication()</text>
<polygon fill="none" stroke="black" points="410,-146 410,-295 606,-295 606,-146 410,-146"/>
</g>
<!-- EAID_BBCA0215_A216_4cd4_9B39_BF10D8CD90B8___EAID_7F66C64A_57DC_43b1_89B1_9DA4DACFC574&#45;&gt;EAID_592DC096_1167_44d2_99F7_64B7108A3BF6 -->
<g id="edge8" class="edge"><title>EAID_BBCA0215_A216_4cd4_9B39_BF10D8CD90B8___EAID_7F66C64A_57DC_43b1_89B1_9DA4DACFC574&#45;&gt;EAID_592DC096_1167_44d2_99F7_64B7108A3BF6</title>
<path fill="none" stroke="black" stroke-dasharray="5,2" d="M305.509,-827.846C325.409,-817.806 346.318,-805.684 364,-792 467.147,-712.174 501.843,-677.352 530,-550 547.752,-469.707 538.604,-375.915 527.184,-309.153"/>
<polygon fill="black" stroke="black" points="530.593,-308.331 525.41,-299.09 523.699,-309.546 530.593,-308.331"/>
</g>
<!-- EAID_BBCA0215_A216_4cd4_9B39_BF10D8CD90B8___EAID_CD061C46_A3A2_424f_BF29_FDBD66313AA5 -->
<g id="node2" class="node"><title>EAID_BBCA0215_A216_4cd4_9B39_BF10D8CD90B8___EAID_CD061C46_A3A2_424f_BF29_FDBD66313AA5</title>
<image xlink:href="img/activity_icon.png" width="30px" height="20px" preserveAspectRatio="xMinYMin meet" x="402" y="-879"/>
<text text-anchor="start" x="368" y="-844.8" font-family="Times New Roman,serif" font-weight="bold" font-size="14.00">User:Homepage</text>
</g>
<!-- EAID_32226C82_3719_4a32_9589_722D9C8649E1 -->
<g id="node17" class="node"><title>EAID_32226C82_3719_4a32_9589_722D9C8649E1</title>
<polygon fill="none" stroke="black" points="642,-230.5 642,-251.5 799,-251.5 799,-230.5 642,-230.5"/>
<text text-anchor="start" x="687.5" y="-238.3" font-family="Times New Roman,serif" font-weight="bold" font-size="14.00">Homepage</text>
<polygon fill="none" stroke="black" points="642,-209.5 642,-230.5 799,-230.5 799,-209.5 642,-209.5"/>
<text text-anchor="start" x="683" y="-217.3" font-family="Times New Roman,serif" font-weight="bold" font-size="14.00">Homepage()</text>
<polygon fill="none" stroke="black" points="642,-188.5 642,-209.5 799,-209.5 799,-188.5 642,-188.5"/>
<text text-anchor="start" x="645" y="-196.3" font-family="Times New Roman,serif" font-weight="bold" font-size="14.00">Showconfirmationpage()</text>
<polygon fill="none" stroke="black" points="640.5,-188 640.5,-253 799.5,-253 799.5,-188 640.5,-188"/>
</g>
<!-- EAID_BBCA0215_A216_4cd4_9B39_BF10D8CD90B8___EAID_CD061C46_A3A2_424f_BF29_FDBD66313AA5&#45;&gt;EAID_32226C82_3719_4a32_9589_722D9C8649E1 -->
<g id="edge9" class="edge"><title>EAID_BBCA0215_A216_4cd4_9B39_BF10D8CD90B8___EAID_CD061C46_A3A2_424f_BF29_FDBD66313AA5&#45;&gt;EAID_32226C82_3719_4a32_9589_722D9C8649E1</title>
<path fill="none" stroke="black" stroke-dasharray="5,2" d="M430.57,-834.209C450.691,-797.307 489.454,-725.652 521,-664 567.9,-572.34 580.634,-549.841 623,-456 652.426,-390.822 683.533,-314.022 702.359,-266.541"/>
<polygon fill="black" stroke="black" points="705.647,-267.745 706.071,-257.159 699.138,-265.17 705.647,-267.745"/>
</g>
<!-- EAID_DFE955D7_BB7B_43a8_90ED_26114E31B831___EAID_48FAC262_13E2_45ef_A2C7_10C950AB561F -->
<g id="node3" class="node"><title>EAID_DFE955D7_BB7B_43a8_90ED_26114E31B831___EAID_48FAC262_13E2_45ef_A2C7_10C950AB561F</title>
<image xlink:href="img/activity_icon.png" width="30px" height="20px" preserveAspectRatio="xMinYMin meet" x="311" y="-658"/>
<text text-anchor="start" x="282" y="-623.8" font-family="Times New Roman,serif" font-weight="bold" font-size="14.00">Choose one of</text>
<text text-anchor="start" x="241" y="-609.8" font-family="Times New Roman,serif" font-weight="bold" font-size="14.00"> volunteer application:Show</text>
<text text-anchor="start" x="270" y="-595.8" font-family="Times New Roman,serif" font-weight="bold" font-size="14.00">confirmation page</text>
</g>
<!-- EAID_48FAC262_13E2_45ef_A2C7_10C950AB561F___EAID_CD061C46_A3A2_424f_BF29_FDBD66313AA5 -->
<g id="node5" class="node"><title>EAID_48FAC262_13E2_45ef_A2C7_10C950AB561F___EAID_CD061C46_A3A2_424f_BF29_FDBD66313AA5</title>
<image xlink:href="img/activity_icon.png" width="30px" height="20px" preserveAspectRatio="xMinYMin meet" x="342" y="-530"/>
<text text-anchor="start" x="248" y="-495.8" font-family="Times New Roman,serif" font-weight="bold" font-size="14.00">Show confirmation page:Homepage</text>
</g>
<!-- EAID_DFE955D7_BB7B_43a8_90ED_26114E31B831___EAID_48FAC262_13E2_45ef_A2C7_10C950AB561F&#45;&gt;EAID_48FAC262_13E2_45ef_A2C7_10C950AB561F___EAID_CD061C46_A3A2_424f_BF29_FDBD66313AA5 -->
<g id="edge4" class="edge"><title>EAID_DFE955D7_BB7B_43a8_90ED_26114E31B831___EAID_48FAC262_13E2_45ef_A2C7_10C950AB561F&#45;&gt;EAID_48FAC262_13E2_45ef_A2C7_10C950AB561F___EAID_CD061C46_A3A2_424f_BF29_FDBD66313AA5</title>
<path fill="none" stroke="black" d="M336.582,-585.769C340.09,-573.095 343.973,-559.066 347.402,-546.675"/>
<polygon fill="black" stroke="black" points="350.864,-547.289 350.159,-536.718 344.118,-545.421 350.864,-547.289"/>
</g>
<!-- EAID_48FAC262_13E2_45ef_A2C7_10C950AB561F___EAID_7F66C64A_57DC_43b1_89B1_9DA4DACFC574 -->
<g id="node6" class="node"><title>EAID_48FAC262_13E2_45ef_A2C7_10C950AB561F___EAID_7F66C64A_57DC_43b1_89B1_9DA4DACFC574</title>
<image xlink:href="img/activity_icon.png" width="30px" height="20px" preserveAspectRatio="xMinYMin meet" x="103" y="-544"/>
<text text-anchor="start" x="26" y="-509.8" font-family="Times New Roman,serif" font-weight="bold" font-size="14.00">Show confirmation page:View</text>
<text text-anchor="start" x="51.5" y="-495.8" font-family="Times New Roman,serif" font-weight="bold" font-size="14.00">volunteer application </text>
<text text-anchor="start" x="102.5" y="-481.8" font-family="Times New Roman,serif" font-weight="bold" font-size="14.00">Page</text>
</g>
<!-- EAID_DFE955D7_BB7B_43a8_90ED_26114E31B831___EAID_48FAC262_13E2_45ef_A2C7_10C950AB561F&#45;&gt;EAID_48FAC262_13E2_45ef_A2C7_10C950AB561F___EAID_7F66C64A_57DC_43b1_89B1_9DA4DACFC574 -->
<g id="edge5" class="edge"><title>EAID_DFE955D7_BB7B_43a8_90ED_26114E31B831___EAID_48FAC262_13E2_45ef_A2C7_10C950AB561F&#45;&gt;EAID_48FAC262_13E2_45ef_A2C7_10C950AB561F___EAID_7F66C64A_57DC_43b1_89B1_9DA4DACFC574</title>
<path fill="none" stroke="black" d="M255.29,-585.926C236.786,-575.962 216.71,-565.152 197.77,-554.953"/>
<polygon fill="black" stroke="black" points="199.331,-551.819 188.867,-550.159 196.013,-557.982 199.331,-551.819"/>
</g>
<!-- EAID_DA6BD147_8E8D_418b_BD8C_0825DD9D7A63 -->
<g id="node16" class="node"><title>EAID_DA6BD147_8E8D_418b_BD8C_0825DD9D7A63</title>
<polygon fill="none" stroke="black" points="182,-230.5 182,-251.5 375,-251.5 375,-230.5 182,-230.5"/>
<text text-anchor="start" x="189.5" y="-238.3" font-family="Times New Roman,serif" font-weight="bold" font-size="14.00">Checkallrequiredinformation</text>
<polygon fill="none" stroke="black" points="182,-209.5 182,-230.5 375,-230.5 375,-209.5 182,-209.5"/>
<text text-anchor="start" x="185" y="-217.3" font-family="Times New Roman,serif" font-weight="bold" font-size="14.00">Checkallrequiredinformation()</text>
<polygon fill="none" stroke="black" points="182,-188.5 182,-209.5 375,-209.5 375,-188.5 182,-188.5"/>
<text text-anchor="start" x="203" y="-196.3" font-family="Times New Roman,serif" font-weight="bold" font-size="14.00">Showconfirmationpage()</text>
<polygon fill="none" stroke="black" points="180.5,-188 180.5,-253 375.5,-253 375.5,-188 180.5,-188"/>
</g>
<!-- EAID_DFE955D7_BB7B_43a8_90ED_26114E31B831___EAID_48FAC262_13E2_45ef_A2C7_10C950AB561F&#45;&gt;EAID_DA6BD147_8E8D_418b_BD8C_0825DD9D7A63 -->
<g id="edge10" class="edge"><title>EAID_DFE955D7_BB7B_43a8_90ED_26114E31B831___EAID_48FAC262_13E2_45ef_A2C7_10C950AB561F&#45;&gt;EAID_DA6BD147_8E8D_418b_BD8C_0825DD9D7A63</title>
<path fill="none" stroke="black" stroke-dasharray="5,2" d="M421.279,-600.153C446.243,-589.111 470.268,-573.106 485,-550 505.549,-517.771 510.83,-492.174 485,-464 471.132,-448.874 409.928,-467.601 393,-456 328.914,-412.082 299.099,-321.91 286.387,-267.07"/>
<polygon fill="black" stroke="black" points="289.793,-266.263 284.208,-257.26 282.959,-267.781 289.793,-266.263"/>
</g>
<!-- EAID_7F66C64A_57DC_43b1_89B1_9DA4DACFC574___EAID_DFE955D7_BB7B_43a8_90ED_26114E31B831&#45;&gt;EAID_DFE955D7_BB7B_43a8_90ED_26114E31B831___EAID_48FAC262_13E2_45ef_A2C7_10C950AB561F -->
<g id="edge6" class="edge"><title>EAID_7F66C64A_57DC_43b1_89B1_9DA4DACFC574___EAID_DFE955D7_BB7B_43a8_90ED_26114E31B831&#45;&gt;EAID_DFE955D7_BB7B_43a8_90ED_26114E31B831___EAID_48FAC262_13E2_45ef_A2C7_10C950AB561F</title>
<path fill="none" stroke="black" d="M287.616,-699.672C292.137,-690.994 296.881,-681.89 301.431,-673.157"/>
<polygon fill="black" stroke="black" points="304.568,-674.71 306.085,-664.224 298.36,-671.475 304.568,-674.71"/>
</g>
<!-- EAID_7F66C64A_57DC_43b1_89B1_9DA4DACFC574___EAID_DFE955D7_BB7B_43a8_90ED_26114E31B831&#45;&gt;EAID_592DC096_1167_44d2_99F7_64B7108A3BF6 -->
<g id="edge11" class="edge"><title>EAID_7F66C64A_57DC_43b1_89B1_9DA4DACFC574___EAID_DFE955D7_BB7B_43a8_90ED_26114E31B831&#45;&gt;EAID_592DC096_1167_44d2_99F7_64B7108A3BF6</title>
<path fill="none" stroke="black" stroke-dasharray="5,2" d="M355.753,-710.584C381.456,-698.302 408.279,-682.759 430,-664 476.462,-623.874 489.856,-608.649 508,-550 532.369,-471.229 529.213,-376.655 521.849,-309.253"/>
<polygon fill="black" stroke="black" points="525.301,-308.629 520.685,-299.093 518.346,-309.426 525.301,-308.629"/>
</g>
<!-- EAID_48FAC262_13E2_45ef_A2C7_10C950AB561F___EAID_CD061C46_A3A2_424f_BF29_FDBD66313AA5&#45;&gt;EAID_32226C82_3719_4a32_9589_722D9C8649E1 -->
<g id="edge12" class="edge"><title>EAID_48FAC262_13E2_45ef_A2C7_10C950AB561F___EAID_CD061C46_A3A2_424f_BF29_FDBD66313AA5&#45;&gt;EAID_32226C82_3719_4a32_9589_722D9C8649E1</title>
<path fill="none" stroke="black" stroke-dasharray="5,2" d="M476.109,-496.872C535.811,-488.154 600.184,-474.809 623,-456 680.805,-408.346 704.615,-320.538 714.087,-266.943"/>
<polygon fill="black" stroke="black" points="717.548,-267.468 715.745,-257.027 710.644,-266.313 717.548,-267.468"/>
</g>
<!-- EAID_48FAC262_13E2_45ef_A2C7_10C950AB561F___EAID_7F66C64A_57DC_43b1_89B1_9DA4DACFC574&#45;&gt;EAID_7F66C64A_57DC_43b1_89B1_9DA4DACFC574___EAID_DFE955D7_BB7B_43a8_90ED_26114E31B831 -->
<g id="edge7" class="edge"><title>EAID_48FAC262_13E2_45ef_A2C7_10C950AB561F___EAID_7F66C64A_57DC_43b1_89B1_9DA4DACFC574&#45;&gt;EAID_7F66C64A_57DC_43b1_89B1_9DA4DACFC574___EAID_DFE955D7_BB7B_43a8_90ED_26114E31B831</title>
<path fill="none" stroke="black" d="M141.897,-550.137C165.929,-588.489 203.196,-647.964 230.24,-691.123"/>
<polygon fill="black" stroke="black" points="227.401,-693.184 235.677,-699.799 233.333,-689.467 227.401,-693.184"/>
</g>
<!-- EAID_48FAC262_13E2_45ef_A2C7_10C950AB561F___EAID_7F66C64A_57DC_43b1_89B1_9DA4DACFC574&#45;&gt;EAID_592DC096_1167_44d2_99F7_64B7108A3BF6 -->
<g id="edge13" class="edge"><title>EAID_48FAC262_13E2_45ef_A2C7_10C950AB561F___EAID_7F66C64A_57DC_43b1_89B1_9DA4DACFC574&#45;&gt;EAID_592DC096_1167_44d2_99F7_64B7108A3BF6</title>
<path fill="none" stroke="black" stroke-dasharray="5,2" d="M201.251,-471.957C210.472,-468.813 219.841,-466.057 229,-464 246.692,-460.026 376.835,-465.941 392,-456 442.602,-422.831 471.951,-360.687 488.464,-308.703"/>
<polygon fill="black" stroke="black" points="491.816,-309.711 491.4,-299.124 485.123,-307.659 491.816,-309.711"/>
</g>
<!-- EAID_BBCA0215_A216_4cd4_9B39_BF10D8CD90B8___EAID_7F66C64A_57DC_43b1_89B1_9DA4DACFC574_STL -->
<g id="node7" class="node"><title>EAID_BBCA0215_A216_4cd4_9B39_BF10D8CD90B8___EAID_7F66C64A_57DC_43b1_89B1_9DA4DACFC574_STL</title>
<image xlink:href="img/stimulus_icon.png" width="30px" height="20px" preserveAspectRatio="xMinYMin meet" x="206.5" y="-997"/>
<text text-anchor="start" x="113" y="-962.8" font-family="Times New Roman,serif" font-weight="bold" font-size="14.00">stl#User:View volunteer application</text>
<text text-anchor="start" x="204" y="-948.8" font-family="Times New Roman,serif" font-weight="bold" font-size="14.00"> Page</text>
</g>
<!-- EAID_BBCA0215_A216_4cd4_9B39_BF10D8CD90B8___EAID_7F66C64A_57DC_43b1_89B1_9DA4DACFC574_STL&#45;&gt;EAID_BBCA0215_A216_4cd4_9B39_BF10D8CD90B8___EAID_7F66C64A_57DC_43b1_89B1_9DA4DACFC574 -->
<g id="edge2" class="edge"><title>EAID_BBCA0215_A216_4cd4_9B39_BF10D8CD90B8___EAID_7F66C64A_57DC_43b1_89B1_9DA4DACFC574_STL&#45;&gt;EAID_BBCA0215_A216_4cd4_9B39_BF10D8CD90B8___EAID_7F66C64A_57DC_43b1_89B1_9DA4DACFC574</title>
<path fill="none" stroke="black" d="M224.152,-938.765C225.291,-927.477 226.596,-914.549 227.81,-902.518"/>
<polygon fill="black" stroke="black" points="231.326,-902.541 228.847,-892.24 224.361,-901.838 231.326,-902.541"/>
</g>
<!-- EAID_BBCA0215_A216_4cd4_9B39_BF10D8CD90B8___EAID_CD061C46_A3A2_424f_BF29_FDBD66313AA5_STL -->
<g id="node8" class="node"><title>EAID_BBCA0215_A216_4cd4_9B39_BF10D8CD90B8___EAID_CD061C46_A3A2_424f_BF29_FDBD66313AA5_STL</title>
<image xlink:href="img/stimulus_icon.png" width="30px" height="20px" preserveAspectRatio="xMinYMin meet" x="413" y="-990"/>
<text text-anchor="start" x="368" y="-955.8" font-family="Times New Roman,serif" font-weight="bold" font-size="14.00">stl#User:Homepage</text>
</g>
<!-- EAID_BBCA0215_A216_4cd4_9B39_BF10D8CD90B8___EAID_CD061C46_A3A2_424f_BF29_FDBD66313AA5_STL&#45;&gt;EAID_BBCA0215_A216_4cd4_9B39_BF10D8CD90B8___EAID_CD061C46_A3A2_424f_BF29_FDBD66313AA5 -->
<g id="edge3" class="edge"><title>EAID_BBCA0215_A216_4cd4_9B39_BF10D8CD90B8___EAID_CD061C46_A3A2_424f_BF29_FDBD66313AA5_STL&#45;&gt;EAID_BBCA0215_A216_4cd4_9B39_BF10D8CD90B8___EAID_CD061C46_A3A2_424f_BF29_FDBD66313AA5</title>
<path fill="none" stroke="black" d="M425.504,-945.266C424.027,-930.633 422.134,-911.87 420.508,-895.765"/>
<polygon fill="black" stroke="black" points="423.973,-895.234 419.486,-885.636 417.008,-895.937 423.973,-895.234"/>
</g>
<!-- EAID_0C96BC89_6B52_4608_B7A5_C4BD74CC0082 -->
<g id="node9" class="node"><title>EAID_0C96BC89_6B52_4608_B7A5_C4BD74CC0082</title>
<polygon fill="none" stroke="black" points="2050,-304.5 2050,-325.5 2234,-325.5 2234,-304.5 2050,-304.5"/>
<text text-anchor="start" x="2099" y="-312.3" font-family="Times New Roman,serif" font-weight="bold" font-size="14.00">Administrator</text>
<polygon fill="none" stroke="black" points="2050,-283.5 2050,-304.5 2234,-304.5 2234,-283.5 2050,-283.5"/>
<text text-anchor="start" x="2067" y="-291.3" font-family="Times New Roman,serif" font-weight="bold" font-size="14.00">EAJava_void Client List</text>
<polygon fill="none" stroke="black" points="2050,-262.5 2050,-283.5 2234,-283.5 2234,-262.5 2050,-262.5"/>
<text text-anchor="start" x="2081" y="-270.3" font-family="Times New Roman,serif" font-weight="bold" font-size="14.00">EAJava_void Email</text>
<polygon fill="none" stroke="black" points="2050,-241.5 2050,-262.5 2234,-262.5 2234,-241.5 2050,-241.5"/>
<text text-anchor="start" x="2081" y="-249.3" font-family="Times New Roman,serif" font-weight="bold" font-size="14.00">EAJava_void Name</text>
<polygon fill="none" stroke="black" points="2050,-220.5 2050,-241.5 2234,-241.5 2234,-220.5 2050,-220.5"/>
<text text-anchor="start" x="2080" y="-228.3" font-family="Times New Roman,serif" font-weight="bold" font-size="14.00">EAJava_void Phone</text>
<polygon fill="none" stroke="black" points="2050,-199.5 2050,-220.5 2234,-220.5 2234,-199.5 2050,-199.5"/>
<text text-anchor="start" x="2083.5" y="-207.3" font-family="Times New Roman,serif" font-weight="bold" font-size="14.00">EAJava_void Type</text>
<polygon fill="none" stroke="black" points="2050,-178.5 2050,-199.5 2234,-199.5 2234,-178.5 2050,-178.5"/>
<text text-anchor="start" x="2065" y="-186.3" font-family="Times New Roman,serif" font-weight="bold" font-size="14.00">EAJava_void User Name</text>
<polygon fill="none" stroke="black" points="2050,-157.5 2050,-178.5 2234,-178.5 2234,-157.5 2050,-157.5"/>
<text text-anchor="start" x="2053" y="-165.3" font-family="Times New Roman,serif" font-weight="bold" font-size="14.00">EAJava_void User Password</text>
<polygon fill="none" stroke="black" points="2050,-136.5 2050,-157.5 2234,-157.5 2234,-136.5 2050,-136.5"/>
<text text-anchor="start" x="2055.5" y="-144.3" font-family="Times New Roman,serif" font-weight="bold" font-size="14.00">EAJava_void Volunteer List</text>
<polygon fill="none" stroke="black" points="2050,-115.5 2050,-136.5 2234,-136.5 2234,-115.5 2050,-115.5"/>
<text text-anchor="start" x="2094.5" y="-123.3" font-family="Times New Roman,serif" font-weight="bold" font-size="14.00">Administrator()</text>
<polygon fill="none" stroke="black" points="2049,-114.5 2049,-326.5 2235,-326.5 2235,-114.5 2049,-114.5"/>
</g>
<!-- EAID_A78B4FEE_2FFD_4e9a_A9A3_681411A9167B -->
<g id="node10" class="node"><title>EAID_A78B4FEE_2FFD_4e9a_A9A3_681411A9167B</title>
<polygon fill="none" stroke="black" points="1737,-283.5 1737,-304.5 2014,-304.5 2014,-283.5 1737,-283.5"/>
<text text-anchor="start" x="1836" y="-291.3" font-family="Times New Roman,serif" font-weight="bold" font-size="14.00">Appointment</text>
<polygon fill="none" stroke="black" points="1737,-262.5 1737,-283.5 2014,-283.5 2014,-262.5 1737,-262.5"/>
<text text-anchor="start" x="1794" y="-270.3" font-family="Times New Roman,serif" font-weight="bold" font-size="14.00">EAJava_void Client Name</text>
<polygon fill="none" stroke="black" points="1737,-241.5 1737,-262.5 2014,-262.5 2014,-241.5 1737,-241.5"/>
<text text-anchor="start" x="1818" y="-249.3" font-family="Times New Roman,serif" font-weight="bold" font-size="14.00">EAJava_void Date</text>
<polygon fill="none" stroke="black" points="1737,-220.5 1737,-241.5 2014,-241.5 2014,-220.5 1737,-220.5"/>
<text text-anchor="start" x="1805" y="-228.3" font-family="Times New Roman,serif" font-weight="bold" font-size="14.00">EAJava_void End time</text>
<polygon fill="none" stroke="black" points="1737,-199.5 1737,-220.5 2014,-220.5 2014,-199.5 1737,-199.5"/>
<text text-anchor="start" x="1802" y="-207.3" font-family="Times New Roman,serif" font-weight="bold" font-size="14.00">EAJava_void Start time</text>
<polygon fill="none" stroke="black" points="1737,-178.5 1737,-199.5 2014,-199.5 2014,-178.5 1737,-178.5"/>
<text text-anchor="start" x="1782" y="-186.3" font-family="Times New Roman,serif" font-weight="bold" font-size="14.00">EAJava_void Volunteer String</text>
<polygon fill="none" stroke="black" points="1737,-157.5 1737,-178.5 2014,-178.5 2014,-157.5 1737,-157.5"/>
<text text-anchor="start" x="1831.5" y="-165.3" font-family="Times New Roman,serif" font-weight="bold" font-size="14.00">Appointment()</text>
<polygon fill="none" stroke="black" points="1737,-136.5 1737,-157.5 2014,-157.5 2014,-136.5 1737,-136.5"/>
<text text-anchor="start" x="1740" y="-144.3" font-family="Times New Roman,serif" font-weight="bold" font-size="14.00">Chooseoneofclientappointmentspreadsheet()</text>
<polygon fill="none" stroke="black" points="1735.5,-135.5 1735.5,-305.5 2014.5,-305.5 2014.5,-135.5 1735.5,-135.5"/>
</g>
<!-- EAID_831A4B1C_BF7D_4b2c_A867_80745A40D54F -->
<g id="node11" class="node"><title>EAID_831A4B1C_BF7D_4b2c_A867_80745A40D54F</title>
<polygon fill="none" stroke="black" points="1644,-220.5 1644,-241.5 1701,-241.5 1701,-220.5 1644,-220.5"/>
<text text-anchor="start" x="1651.5" y="-228.3" font-family="Times New Roman,serif" font-weight="bold" font-size="14.00">Class1</text>
<polygon fill="none" stroke="black" points="1644,-199.5 1644,-220.5 1701,-220.5 1701,-199.5 1644,-199.5"/>
<text text-anchor="start" x="1647" y="-207.3" font-family="Times New Roman,serif" font-weight="bold" font-size="14.00">Class1()</text>
<polygon fill="none" stroke="black" points="1642.5,-198.5 1642.5,-242.5 1701.5,-242.5 1701.5,-198.5 1642.5,-198.5"/>
</g>
<!-- EAID_ECBA4629_6F17_47dd_9D33_DACFDEB6D318 -->
<g id="node12" class="node"><title>EAID_ECBA4629_6F17_47dd_9D33_DACFDEB6D318</title>
<polygon fill="none" stroke="black" points="1389,-272.5 1389,-293.5 1608,-293.5 1608,-272.5 1389,-272.5"/>
<text text-anchor="start" x="1480" y="-280.3" font-family="Times New Roman,serif" font-weight="bold" font-size="14.00">Client</text>
<polygon fill="none" stroke="black" points="1389,-251.5 1389,-272.5 1608,-272.5 1608,-251.5 1389,-251.5"/>
<text text-anchor="start" x="1437.5" y="-259.3" font-family="Times New Roman,serif" font-weight="bold" font-size="14.00">EAJava_void Email</text>
<polygon fill="none" stroke="black" points="1389,-230.5 1389,-251.5 1608,-251.5 1608,-230.5 1389,-230.5"/>
<text text-anchor="start" x="1392" y="-238.3" font-family="Times New Roman,serif" font-weight="bold" font-size="14.00">EAJava_void List of Appointments</text>
<polygon fill="none" stroke="black" points="1389,-209.5 1389,-230.5 1608,-230.5 1608,-209.5 1389,-209.5"/>
<text text-anchor="start" x="1437.5" y="-217.3" font-family="Times New Roman,serif" font-weight="bold" font-size="14.00">EAJava_void Name</text>
<polygon fill="none" stroke="black" points="1389,-188.5 1389,-209.5 1608,-209.5 1608,-188.5 1389,-188.5"/>
<text text-anchor="start" x="1436.5" y="-196.3" font-family="Times New Roman,serif" font-weight="bold" font-size="14.00">EAJava_void Phone</text>
<polygon fill="none" stroke="black" points="1389,-167.5 1389,-188.5 1608,-188.5 1608,-167.5 1389,-167.5"/>
<text text-anchor="start" x="1475.5" y="-175.3" font-family="Times New Roman,serif" font-weight="bold" font-size="14.00">Client()</text>
<polygon fill="none" stroke="black" points="1389,-146.5 1389,-167.5 1608,-167.5 1608,-146.5 1389,-146.5"/>
<text text-anchor="start" x="1417" y="-154.3" font-family="Times New Roman,serif" font-weight="bold" font-size="14.00">ViewClientSchedulePage()</text>
<polygon fill="none" stroke="black" points="1387.5,-146 1387.5,-295 1608.5,-295 1608.5,-146 1387.5,-146"/>
</g>
<!-- EAID_60C7CCC6_FFF7_4ada_88A6_09E32F88DCF2 -->
<g id="node13" class="node"><title>EAID_60C7CCC6_FFF7_4ada_88A6_09E32F88DCF2</title>
<polygon fill="none" stroke="black" points="1090,-398.5 1090,-419.5 1352,-419.5 1352,-398.5 1090,-398.5"/>
<text text-anchor="start" x="1187.5" y="-406.3" font-family="Times New Roman,serif" font-weight="bold" font-size="14.00">USC VITA</text>
<polygon fill="none" stroke="black" points="1090,-377.5 1090,-398.5 1352,-398.5 1352,-377.5 1090,-377.5"/>
<text text-anchor="start" x="1105.5" y="-385.3" font-family="Times New Roman,serif" font-weight="bold" font-size="14.00">EAJava_void Apply to volunteer page</text>
<polygon fill="none" stroke="black" points="1090,-356.5 1090,-377.5 1352,-377.5 1352,-356.5 1090,-356.5"/>
<text text-anchor="start" x="1102.5" y="-364.3" font-family="Times New Roman,serif" font-weight="bold" font-size="14.00">EAJava_void Before you come in page</text>
<polygon fill="none" stroke="black" points="1090,-335.5 1090,-356.5 1352,-356.5 1352,-335.5 1090,-335.5"/>
<text text-anchor="start" x="1135" y="-343.3" font-family="Times New Roman,serif" font-weight="bold" font-size="14.00">EAJava_void Email us page</text>
<polygon fill="none" stroke="black" points="1090,-314.5 1090,-335.5 1352,-335.5 1352,-314.5 1090,-314.5"/>
<text text-anchor="start" x="1115.5" y="-322.3" font-family="Times New Roman,serif" font-weight="bold" font-size="14.00">EAJava_void Event calendar page</text>
<polygon fill="none" stroke="black" points="1090,-293.5 1090,-314.5 1352,-314.5 1352,-293.5 1090,-293.5"/>
<text text-anchor="start" x="1114" y="-301.3" font-family="Times New Roman,serif" font-weight="bold" font-size="14.00">EAJava_void FAQs for client page</text>
<polygon fill="none" stroke="black" points="1090,-272.5 1090,-293.5 1352,-293.5 1352,-272.5 1090,-272.5"/>
<text text-anchor="start" x="1102" y="-280.3" font-family="Times New Roman,serif" font-weight="bold" font-size="14.00">EAJava_void FAQs for volunteer page</text>
<polygon fill="none" stroke="black" points="1090,-251.5 1090,-272.5 1352,-272.5 1352,-251.5 1090,-251.5"/>
<text text-anchor="start" x="1117" y="-259.3" font-family="Times New Roman,serif" font-weight="bold" font-size="14.00">EAJava_void General FAQs page</text>
<polygon fill="none" stroke="black" points="1090,-230.5 1090,-251.5 1352,-251.5 1352,-230.5 1090,-230.5"/>
<text text-anchor="start" x="1096" y="-238.3" font-family="Times New Roman,serif" font-weight="bold" font-size="14.00">EAJava_void History of USC VITA page</text>
<polygon fill="none" stroke="black" points="1090,-209.5 1090,-230.5 1352,-230.5 1352,-209.5 1090,-209.5"/>
<text text-anchor="start" x="1142.5" y="-217.3" font-family="Times New Roman,serif" font-weight="bold" font-size="14.00">EAJava_void Hours page</text>
<polygon fill="none" stroke="black" points="1090,-188.5 1090,-209.5 1352,-209.5 1352,-188.5 1090,-188.5"/>
<text text-anchor="start" x="1134.5" y="-196.3" font-family="Times New Roman,serif" font-weight="bold" font-size="14.00">EAJava_void Location page</text>
<polygon fill="none" stroke="black" points="1090,-167.5 1090,-188.5 1352,-188.5 1352,-167.5 1090,-167.5"/>
<text text-anchor="start" x="1094.5" y="-175.3" font-family="Times New Roman,serif" font-weight="bold" font-size="14.00">EAJava_void Make an appointment page</text>
<polygon fill="none" stroke="black" points="1090,-146.5 1090,-167.5 1352,-167.5 1352,-146.5 1090,-146.5"/>
<text text-anchor="start" x="1136.5" y="-154.3" font-family="Times New Roman,serif" font-weight="bold" font-size="14.00">EAJava_void Sponsor page</text>
<polygon fill="none" stroke="black" points="1090,-125.5 1090,-146.5 1352,-146.5 1352,-125.5 1090,-125.5"/>
<text text-anchor="start" x="1111" y="-133.3" font-family="Times New Roman,serif" font-weight="bold" font-size="14.00">EAJava_void Training session page</text>
<polygon fill="none" stroke="black" points="1090,-104.5 1090,-125.5 1352,-125.5 1352,-104.5 1090,-104.5"/>
<text text-anchor="start" x="1093" y="-112.3" font-family="Times New Roman,serif" font-weight="bold" font-size="14.00">EAJava_void USC VITA Committee page</text>
<polygon fill="none" stroke="black" points="1090,-83.5 1090,-104.5 1352,-104.5 1352,-83.5 1090,-83.5"/>
<text text-anchor="start" x="1103.5" y="-91.3" font-family="Times New Roman,serif" font-weight="bold" font-size="14.00">EAJava_void Volunteer schedule page</text>
<polygon fill="none" stroke="black" points="1090,-62.5 1090,-83.5 1352,-83.5 1352,-62.5 1090,-62.5"/>
<text text-anchor="start" x="1133" y="-70.3" font-family="Times New Roman,serif" font-weight="bold" font-size="14.00">EAJava_void Welcome page</text>
<polygon fill="none" stroke="black" points="1090,-41.5 1090,-62.5 1352,-62.5 1352,-41.5 1090,-41.5"/>
<text text-anchor="start" x="1117" y="-49.3" font-family="Times New Roman,serif" font-weight="bold" font-size="14.00">EAJava_void Why volunteer page</text>
<polygon fill="none" stroke="black" points="1090,-20.5 1090,-41.5 1352,-41.5 1352,-20.5 1090,-20.5"/>
<text text-anchor="start" x="1184.5" y="-28.3" font-family="Times New Roman,serif" font-weight="bold" font-size="14.00">USCVITA()</text>
<polygon fill="none" stroke="black" points="1089,-20 1089,-421 1353,-421 1353,-20 1089,-20"/>
</g>
<!-- EAID_9B870FC5_46DF_4fdf_8BB2_5FA6FE1CEEF7 -->
<g id="node14" class="node"><title>EAID_9B870FC5_46DF_4fdf_8BB2_5FA6FE1CEEF7</title>
<polygon fill="none" stroke="black" points="835,-262.5 835,-283.5 1054,-283.5 1054,-262.5 835,-262.5"/>
<text text-anchor="start" x="914" y="-270.3" font-family="Times New Roman,serif" font-weight="bold" font-size="14.00">Volunteer</text>
<polygon fill="none" stroke="black" points="835,-241.5 835,-262.5 1054,-262.5 1054,-241.5 835,-241.5"/>
<text text-anchor="start" x="883.5" y="-249.3" font-family="Times New Roman,serif" font-weight="bold" font-size="14.00">EAJava_void Email</text>
<polygon fill="none" stroke="black" points="835,-220.5 835,-241.5 1054,-241.5 1054,-220.5 835,-220.5"/>
<text text-anchor="start" x="838" y="-228.3" font-family="Times New Roman,serif" font-weight="bold" font-size="14.00">EAJava_void List of Appointments</text>
<polygon fill="none" stroke="black" points="835,-199.5 835,-220.5 1054,-220.5 1054,-199.5 835,-199.5"/>
<text text-anchor="start" x="883.5" y="-207.3" font-family="Times New Roman,serif" font-weight="bold" font-size="14.00">EAJava_void Name</text>
<polygon fill="none" stroke="black" points="835,-178.5 835,-199.5 1054,-199.5 1054,-178.5 835,-178.5"/>
<text text-anchor="start" x="882.5" y="-186.3" font-family="Times New Roman,serif" font-weight="bold" font-size="14.00">EAJava_void Phone</text>
<polygon fill="none" stroke="black" points="835,-157.5 835,-178.5 1054,-178.5 1054,-157.5 835,-157.5"/>
<text text-anchor="start" x="909.5" y="-165.3" font-family="Times New Roman,serif" font-weight="bold" font-size="14.00">Volunteer()</text>
<polygon fill="none" stroke="black" points="833.5,-156.5 833.5,-284.5 1054.5,-284.5 1054.5,-156.5 833.5,-156.5"/>
</g>
</g>
</svg>
