<?xml version="1.0" encoding="UTF-8" standalone="no"?>
<!DOCTYPE svg PUBLIC "-//W3C//DTD SVG 1.1//EN"
 "http://www.w3.org/Graphics/SVG/1.1/DTD/svg11.dtd">
<!-- Generated by graphviz version 2.38.0 (20140413.2041)
 -->
<!-- Title: g Pages: 1 -->
<svg width="716pt" height="620pt"
 viewBox="0.00 0.00 715.92 620.00" xmlns="http://www.w3.org/2000/svg" xmlns:xlink="http://www.w3.org/1999/xlink">
<g id="graph0" class="graph" transform="scale(1 1) rotate(0) translate(4 616)">
<title>g</title>
<polygon fill="white" stroke="none" points="-4,4 -4,-616 711.924,-616 711.924,4 -4,4"/>
<!-- Buy Success Page -->
<g id="node1" class="node"><title>Buy Success Page</title>
<ellipse fill="none" stroke="black" cx="170.935" cy="-90" rx="77.9862" ry="18"/>
<text text-anchor="middle" x="170.935" y="-86.3" font-family="Times New Roman,serif" font-size="14.00">Buy Success Page</text>
</g>
<!-- Display Home Page(Designed by other part) -->
<g id="node2" class="node"><title>Display Home Page(Designed by other part)</title>
<ellipse fill="none" stroke="black" cx="170.935" cy="-18" rx="170.87" ry="18"/>
<text text-anchor="middle" x="170.935" y="-14.3" font-family="Times New Roman,serif" font-size="14.00">Display Home Page(Designed by other part)</text>
</g>
<!-- Buy Success Page&#45;&gt;Display Home Page(Designed by other part) -->
<g id="edge1" class="edge"><title>Buy Success Page&#45;&gt;Display Home Page(Designed by other part)</title>
<path fill="none" stroke="black" d="M170.935,-71.6966C170.935,-63.9827 170.935,-54.7125 170.935,-46.1124"/>
<polygon fill="black" stroke="black" points="174.435,-46.1043 170.935,-36.1043 167.435,-46.1044 174.435,-46.1043"/>
</g>
<!-- Display Buy My Subscription Success Page -->
<g id="node3" class="node"><title>Display Buy My Subscription Success Page</title>
<ellipse fill="none" stroke="black" cx="270.935" cy="-162" rx="170.87" ry="18"/>
<text text-anchor="middle" x="270.935" y="-158.3" font-family="Times New Roman,serif" font-size="14.00">Display Buy My Subscription Success Page</text>
</g>
<!-- Display Buy My Subscription Success Page&#45;&gt;Buy Success Page -->
<g id="edge2" class="edge"><title>Display Buy My Subscription Success Page&#45;&gt;Buy Success Page</title>
<path fill="none" stroke="black" d="M246.728,-144.055C233.516,-134.807 216.996,-123.243 202.754,-113.273"/>
<polygon fill="black" stroke="black" points="204.43,-110.174 194.231,-107.307 200.416,-115.909 204.43,-110.174"/>
</g>
<!-- Subscription -->
<g id="node4" class="node"><title>Subscription</title>
<ellipse fill="none" stroke="black" cx="270.935" cy="-234" rx="57.3905" ry="18"/>
<text text-anchor="middle" x="270.935" y="-230.3" font-family="Times New Roman,serif" font-size="14.00">Subscription</text>
</g>
<!-- Subscription&#45;&gt;Display Buy My Subscription Success Page -->
<g id="edge3" class="edge"><title>Subscription&#45;&gt;Display Buy My Subscription Success Page</title>
<path fill="none" stroke="black" d="M270.935,-215.697C270.935,-207.983 270.935,-198.712 270.935,-190.112"/>
<polygon fill="black" stroke="black" points="274.435,-190.104 270.935,-180.104 267.435,-190.104 274.435,-190.104"/>
</g>
<!-- Marked as Subscirpted -->
<g id="node5" class="node"><title>Marked as Subscirpted</title>
<ellipse fill="none" stroke="black" cx="270.935" cy="-306" rx="94.7833" ry="18"/>
<text text-anchor="middle" x="270.935" y="-302.3" font-family="Times New Roman,serif" font-size="14.00">Marked as Subscirpted</text>
</g>
<!-- Marked as Subscirpted&#45;&gt;Subscription -->
<g id="edge4" class="edge"><title>Marked as Subscirpted&#45;&gt;Subscription</title>
<path fill="none" stroke="black" d="M270.935,-287.697C270.935,-279.983 270.935,-270.712 270.935,-262.112"/>
<polygon fill="black" stroke="black" points="274.435,-262.104 270.935,-252.104 267.435,-262.104 274.435,-262.104"/>
</g>
<!-- Buy Subscription Comfirmation Page -->
<g id="node6" class="node"><title>Buy Subscription Comfirmation Page</title>
<ellipse fill="none" stroke="black" cx="270.935" cy="-378" rx="146.774" ry="18"/>
<text text-anchor="middle" x="270.935" y="-374.3" font-family="Times New Roman,serif" font-size="14.00">Buy Subscription Comfirmation Page</text>
</g>
<!-- Buy Subscription Comfirmation Page&#45;&gt;Marked as Subscirpted -->
<g id="edge5" class="edge"><title>Buy Subscription Comfirmation Page&#45;&gt;Marked as Subscirpted</title>
<path fill="none" stroke="black" d="M270.935,-359.697C270.935,-351.983 270.935,-342.712 270.935,-334.112"/>
<polygon fill="black" stroke="black" points="274.435,-334.104 270.935,-324.104 267.435,-334.104 274.435,-334.104"/>
</g>
<!-- Display Subscription Comfirmation Page -->
<g id="node7" class="node"><title>Display Subscription Comfirmation Page</title>
<ellipse fill="none" stroke="black" cx="296.935" cy="-450" rx="159.472" ry="18"/>
<text text-anchor="middle" x="296.935" y="-446.3" font-family="Times New Roman,serif" font-size="14.00">Display Subscription Comfirmation Page</text>
</g>
<!-- Display Subscription Comfirmation Page&#45;&gt;Buy Subscription Comfirmation Page -->
<g id="edge6" class="edge"><title>Display Subscription Comfirmation Page&#45;&gt;Buy Subscription Comfirmation Page</title>
<path fill="none" stroke="black" d="M290.508,-431.697C287.58,-423.813 284.048,-414.304 280.795,-405.546"/>
<polygon fill="black" stroke="black" points="284.051,-404.26 277.288,-396.104 277.489,-406.697 284.051,-404.26"/>
</g>
<!-- Buy Subscription Page(1) -->
<g id="node8" class="node"><title>Buy Subscription Page(1)</title>
<ellipse fill="none" stroke="black" cx="296.935" cy="-522" rx="104.782" ry="18"/>
<text text-anchor="middle" x="296.935" y="-518.3" font-family="Times New Roman,serif" font-size="14.00">Buy Subscription Page(1)</text>
</g>
<!-- Buy Subscription Page(1)&#45;&gt;Display Subscription Comfirmation Page -->
<g id="edge7" class="edge"><title>Buy Subscription Page(1)&#45;&gt;Display Subscription Comfirmation Page</title>
<path fill="none" stroke="black" d="M296.935,-503.697C296.935,-495.983 296.935,-486.712 296.935,-478.112"/>
<polygon fill="black" stroke="black" points="300.435,-478.104 296.935,-468.104 293.435,-478.104 300.435,-478.104"/>
</g>
<!-- Display Subscription Page(2) -->
<g id="node9" class="node"><title>Display Subscription Page(2)</title>
<ellipse fill="none" stroke="black" cx="590.935" cy="-450" rx="116.979" ry="18"/>
<text text-anchor="middle" x="590.935" y="-446.3" font-family="Times New Roman,serif" font-size="14.00">Display Subscription Page(2)</text>
</g>
<!-- Buy Subscription Page(1)&#45;&gt;Display Subscription Page(2) -->
<g id="edge9" class="edge"><title>Buy Subscription Page(1)&#45;&gt;Display Subscription Page(2)</title>
<path fill="none" stroke="black" d="M351.914,-506.581C398.345,-495.174 465.171,-479.245 516.399,-467.362"/>
<polygon fill="black" stroke="black" points="517.473,-470.706 526.426,-465.042 515.895,-463.886 517.473,-470.706"/>
</g>
<!-- Display Subscription Page(2)&#45;&gt;Buy Subscription Page(1) -->
<g id="edge8" class="edge"><title>Display Subscription Page(2)&#45;&gt;Buy Subscription Page(1)</title>
<path fill="none" stroke="black" d="M534.461,-465.786C487.356,-477.348 420.034,-493.387 369.048,-505.2"/>
<polygon fill="black" stroke="black" points="368.034,-501.841 359.079,-507.503 369.61,-508.662 368.034,-501.841"/>
</g>
<!-- Business Parter -->
<g id="node10" class="node"><title>Business Parter</title>
<ellipse fill="none" stroke="black" cx="202.935" cy="-594" rx="66.8882" ry="18"/>
<text text-anchor="middle" x="202.935" y="-590.3" font-family="Times New Roman,serif" font-size="14.00">Business Parter</text>
</g>
<!-- Business Parter&#45;&gt;Buy Success Page -->
<g id="edge11" class="edge"><title>Business Parter&#45;&gt;Buy Success Page</title>
<path fill="none" stroke="black" d="M173.209,-577.739C134.558,-555.523 71.9348,-510.368 71.9348,-451 71.9348,-451 71.9348,-451 71.9348,-233 71.9348,-192.553 68.1634,-177.428 90.9348,-144 100.091,-130.559 113.897,-119.662 127.474,-111.324"/>
<polygon fill="black" stroke="black" points="129.408,-114.248 136.313,-106.213 125.904,-108.189 129.408,-114.248"/>
</g>
<!-- Business Parter&#45;&gt;Buy Subscription Comfirmation Page -->
<g id="edge10" class="edge"><title>Business Parter&#45;&gt;Buy Subscription Comfirmation Page</title>
<path fill="none" stroke="black" d="M184.565,-576.468C153.113,-546.132 95.4302,-480.268 128.935,-432 140.359,-415.542 157.548,-404.185 176.063,-396.352"/>
<polygon fill="black" stroke="black" points="177.482,-399.555 185.539,-392.675 174.95,-393.029 177.482,-399.555"/>
</g>
<!-- Business Parter&#45;&gt;Buy Subscription Page(1) -->
<g id="edge12" class="edge"><title>Business Parter&#45;&gt;Buy Subscription Page(1)</title>
<path fill="none" stroke="black" d="M219.372,-576.411C230.88,-567.083 246.517,-555.316 260.788,-545.203"/>
<polygon fill="black" stroke="black" points="262.799,-548.067 268.991,-539.47 258.789,-542.329 262.799,-548.067"/>
</g>
<!-- Business Parter&#45;&gt;Buy Subscription Page(1) -->
<g id="edge13" class="edge"><title>Business Parter&#45;&gt;Buy Subscription Page(1)</title>
<path fill="none" stroke="black" d="M229.517,-577.465C242.843,-568.345 258.791,-556.641 271.894,-546.421"/>
<polygon fill="black" stroke="black" points="274.378,-548.918 280.038,-539.962 270.028,-543.434 274.378,-548.918"/>
</g>
</g>
</svg>
