<?xml version="1.0" encoding="UTF-8" standalone="no"?>
<!DOCTYPE svg PUBLIC "-//W3C//DTD SVG 1.1//EN"
 "http://www.w3.org/Graphics/SVG/1.1/DTD/svg11.dtd">
<!-- Generated by graphviz version 2.38.0 (20140413.2041)
 -->
<!-- Title: g Pages: 1 -->
<svg width="2579pt" height="833pt"
 viewBox="0.00 0.00 2579.00 833.25" xmlns="http://www.w3.org/2000/svg" xmlns:xlink="http://www.w3.org/1999/xlink">
<g id="graph0" class="graph" transform="scale(1 1) rotate(0) translate(4 829.247)">
<title>g</title>
<polygon fill="white" stroke="none" points="-4,4 -4,-829.247 2575,-829.247 2575,4 -4,4"/>
<!-- EAID_26012B68_E0B8_42ac_899E_D5C1C7096AAA -->
<g id="node1" class="node"><title>EAID_26012B68_E0B8_42ac_899E_D5C1C7096AAA</title>
<image xlink:href="img/actor1.png" width="61px" height="90px" preserveAspectRatio="xMinYMin meet" x="10.5" y="-270.747"/>
<text text-anchor="start" x="19" y="-157.547" font-family="Times New Roman,serif" font-size="24.00">User</text>
</g>
<!-- EAID_99087B65_4070_4670_8BAA_F95418C66401 -->
<g id="node2" class="node"><title>EAID_99087B65_4070_4670_8BAA_F95418C66401</title>
<image xlink:href="img/boundary3.png" width="115px" height="67px" preserveAspectRatio="xMinYMin meet" x="188.5" y="-258.747"/>
<text text-anchor="start" x="127" y="-168.547" font-family="Times New Roman,serif" font-size="24.00">specific document record</text>
</g>
<!-- EAID_26012B68_E0B8_42ac_899E_D5C1C7096AAA&#45;&gt;EAID_99087B65_4070_4670_8BAA_F95418C66401 -->
<g id="edge1" class="edge"><title>EAID_26012B68_E0B8_42ac_899E_D5C1C7096AAA&#45;&gt;EAID_99087B65_4070_4670_8BAA_F95418C66401</title>
<path fill="none" stroke="black" d="M81.2199,-210.747C88.9516,-210.747 97.4561,-210.747 106.4,-210.747"/>
<polygon fill="black" stroke="black" points="106.666,-214.247 116.666,-210.747 106.666,-207.247 106.666,-214.247"/>
</g>
<!-- EAID_696BFAA6_F3D7_4fbf_BDE3_5239CB8E1B86 -->
<g id="node3" class="node"><title>EAID_696BFAA6_F3D7_4fbf_BDE3_5239CB8E1B86</title>
<image xlink:href="img/boundary3.png" width="115px" height="67px" preserveAspectRatio="xMinYMin meet" x="866.5" y="-389.747"/>
<text text-anchor="start" x="805" y="-299.547" font-family="Times New Roman,serif" font-size="24.00">validation failed message</text>
</g>
<!-- EAID_26012B68_E0B8_42ac_899E_D5C1C7096AAA&#45;&gt;EAID_696BFAA6_F3D7_4fbf_BDE3_5239CB8E1B86 -->
<g id="edge2" class="edge"><title>EAID_26012B68_E0B8_42ac_899E_D5C1C7096AAA&#45;&gt;EAID_696BFAA6_F3D7_4fbf_BDE3_5239CB8E1B86</title>
<path fill="none" stroke="black" d="M81.1761,-251.451C91.9541,-260.256 104.209,-268.493 117,-273.747 337.268,-364.232 619.377,-364.679 784.752,-354.668"/>
<polygon fill="black" stroke="black" points="785.223,-358.145 794.984,-354.026 784.785,-351.159 785.223,-358.145"/>
</g>
<!-- EAID_835433BA_3980_40a4_A5F9_53BB166D3998 -->
<g id="node4" class="node"><title>EAID_835433BA_3980_40a4_A5F9_53BB166D3998</title>
<image xlink:href="img/boundary3.png" width="115px" height="67px" preserveAspectRatio="xMinYMin meet" x="1256.5" y="-175.747"/>
<text text-anchor="start" x="1204" y="-85.5469" font-family="Times New Roman,serif" font-size="24.00">file download interface</text>
</g>
<!-- EAID_26012B68_E0B8_42ac_899E_D5C1C7096AAA&#45;&gt;EAID_835433BA_3980_40a4_A5F9_53BB166D3998 -->
<g id="edge3" class="edge"><title>EAID_26012B68_E0B8_42ac_899E_D5C1C7096AAA&#45;&gt;EAID_835433BA_3980_40a4_A5F9_53BB166D3998</title>
<path fill="none" stroke="black" d="M81.3169,-169.928C92.0914,-160.97 104.31,-152.464 117,-146.747 536.578,42.2596 696.983,23.5636 1149,-62.7469 1160.52,-64.9459 1172.26,-67.9407 1183.89,-71.4442"/>
<polygon fill="black" stroke="black" points="1183.05,-74.8475 1193.64,-74.5004 1185.14,-68.1682 1183.05,-74.8475"/>
</g>
<!-- EAID_E0D8713F_8870_4c44_9B41_2D0A0474D13C -->
<g id="node13" class="node"><title>EAID_E0D8713F_8870_4c44_9B41_2D0A0474D13C</title>
<image xlink:href="img/control1.png" width="106px" height="75px" preserveAspectRatio="xMinYMin meet" x="484" y="-262.747"/>
<text text-anchor="start" x="421" y="-164.547" font-family="Times New Roman,serif" font-size="24.00">validate the role of users</text>
</g>
<!-- EAID_99087B65_4070_4670_8BAA_F95418C66401&#45;&gt;EAID_E0D8713F_8870_4c44_9B41_2D0A0474D13C -->
<g id="edge21" class="edge"><title>EAID_99087B65_4070_4670_8BAA_F95418C66401&#45;&gt;EAID_E0D8713F_8870_4c44_9B41_2D0A0474D13C</title>
<path fill="none" stroke="black" d="M375.022,-210.747C383.595,-210.747 392.246,-210.747 400.853,-210.747"/>
<polygon fill="black" stroke="black" points="400.929,-214.247 410.929,-210.747 400.929,-207.247 400.929,-214.247"/>
</g>
<!-- EAID_E4F69B82_7DD5_4623_88B8_B4087DA28C7B -->
<g id="node5" class="node"><title>EAID_E4F69B82_7DD5_4623_88B8_B4087DA28C7B</title>
<image xlink:href="img/actor1.png" width="61px" height="90px" preserveAspectRatio="xMinYMin meet" x="10.5" y="-706.747"/>
<text text-anchor="start" x="19" y="-593.547" font-family="Times New Roman,serif" font-size="24.00">User</text>
</g>
<!-- EAID_7E3F323F_89ED_414b_B2EA_42DD9D5431E1 -->
<g id="node6" class="node"><title>EAID_7E3F323F_89ED_414b_B2EA_42DD9D5431E1</title>
<image xlink:href="img/boundary3.png" width="115px" height="67px" preserveAspectRatio="xMinYMin meet" x="189" y="-611.747"/>
<text text-anchor="start" x="153" y="-521.547" font-family="Times New Roman,serif" font-size="24.00">&quot;create user&quot; button</text>
</g>
<!-- EAID_E4F69B82_7DD5_4623_88B8_B4087DA28C7B&#45;&gt;EAID_7E3F323F_89ED_414b_B2EA_42DD9D5431E1 -->
<g id="edge4" class="edge"><title>EAID_E4F69B82_7DD5_4623_88B8_B4087DA28C7B&#45;&gt;EAID_7E3F323F_89ED_414b_B2EA_42DD9D5431E1</title>
<path fill="none" stroke="black" d="M81.2199,-630.547C96.3594,-624.372 114.462,-616.989 133.022,-609.418"/>
<polygon fill="black" stroke="black" points="134.519,-612.588 142.457,-605.57 131.876,-606.106 134.519,-612.588"/>
</g>
<!-- EAID_5EBEBA19_0DA1_4dd1_B51E_61F63C61B93B -->
<g id="node7" class="node"><title>EAID_5EBEBA19_0DA1_4dd1_B51E_61F63C61B93B</title>
<image xlink:href="img/boundary3.png" width="115px" height="67px" preserveAspectRatio="xMinYMin meet" x="1256.5" y="-818.747"/>
<text text-anchor="start" x="1195" y="-728.547" font-family="Times New Roman,serif" font-size="24.00">validation failed message</text>
</g>
<!-- EAID_E4F69B82_7DD5_4623_88B8_B4087DA28C7B&#45;&gt;EAID_5EBEBA19_0DA1_4dd1_B51E_61F63C61B93B -->
<g id="edge5" class="edge"><title>EAID_E4F69B82_7DD5_4623_88B8_B4087DA28C7B&#45;&gt;EAID_5EBEBA19_0DA1_4dd1_B51E_61F63C61B93B</title>
<path fill="none" stroke="black" d="M81.0927,-671.971C92.3459,-678.244 104.852,-684.408 117,-688.747 551.167,-843.832 689.084,-825.84 1149,-793.747 1157.35,-793.164 1165.92,-792.417 1174.55,-791.55"/>
<polygon fill="black" stroke="black" points="1175.13,-795.008 1184.71,-790.479 1174.4,-788.047 1175.13,-795.008"/>
</g>
<!-- EAID_AC6681DB_AAC2_4029_98A6_CDEFE35F1E88 -->
<g id="node8" class="node"><title>EAID_AC6681DB_AAC2_4029_98A6_CDEFE35F1E88</title>
<image xlink:href="img/boundary3.png" width="115px" height="67px" preserveAspectRatio="xMinYMin meet" x="1257" y="-476.747"/>
<text text-anchor="start" x="1212" y="-386.547" font-family="Times New Roman,serif" font-size="24.00">user information page</text>
</g>
<!-- EAID_E4F69B82_7DD5_4623_88B8_B4087DA28C7B&#45;&gt;EAID_AC6681DB_AAC2_4029_98A6_CDEFE35F1E88 -->
<g id="edge6" class="edge"><title>EAID_E4F69B82_7DD5_4623_88B8_B4087DA28C7B&#45;&gt;EAID_AC6681DB_AAC2_4029_98A6_CDEFE35F1E88</title>
<path fill="none" stroke="black" d="M59.5364,-580.464C71.0649,-550.918 89.2223,-518.593 117,-499.747 289.173,-382.934 922.619,-405.332 1191.27,-420.7"/>
<polygon fill="black" stroke="black" points="1191.26,-424.206 1201.45,-421.29 1191.67,-417.218 1191.26,-424.206"/>
</g>
<!-- EAID_9B997A77_3804_44cc_BEF7_4FBFF5C96985 -->
<g id="node9" class="node"><title>EAID_9B997A77_3804_44cc_BEF7_4FBFF5C96985</title>
<image xlink:href="img/boundary3.png" width="115px" height="67px" preserveAspectRatio="xMinYMin meet" x="867" y="-777.747"/>
<text text-anchor="start" x="784" y="-687.547" font-family="Times New Roman,serif" font-size="24.00">role validation failed message</text>
</g>
<!-- EAID_E4F69B82_7DD5_4623_88B8_B4087DA28C7B&#45;&gt;EAID_9B997A77_3804_44cc_BEF7_4FBFF5C96985 -->
<g id="edge7" class="edge"><title>EAID_E4F69B82_7DD5_4623_88B8_B4087DA28C7B&#45;&gt;EAID_9B997A77_3804_44cc_BEF7_4FBFF5C96985</title>
<path fill="none" stroke="black" d="M81.3491,-654.891C92.82,-657.03 105.374,-659.175 117,-660.747 340.228,-690.925 600.125,-710.373 763.117,-720.691"/>
<polygon fill="black" stroke="black" points="763.026,-724.192 773.226,-721.327 763.466,-717.206 763.026,-724.192"/>
</g>
<!-- EAID_DFF633E3_73E1_4aa9_AD55_8FEF887EFB14 -->
<g id="node10" class="node"><title>EAID_DFF633E3_73E1_4aa9_AD55_8FEF887EFB14</title>
<image xlink:href="img/boundary3.png" width="115px" height="67px" preserveAspectRatio="xMinYMin meet" x="2428.5" y="-610.747"/>
<text text-anchor="start" x="2410.5" y="-520.547" font-family="Times New Roman,serif" font-size="24.00">success message</text>
</g>
<!-- EAID_E4F69B82_7DD5_4623_88B8_B4087DA28C7B&#45;&gt;EAID_DFF633E3_73E1_4aa9_AD55_8FEF887EFB14 -->
<g id="edge8" class="edge"><title>EAID_E4F69B82_7DD5_4623_88B8_B4087DA28C7B&#45;&gt;EAID_DFF633E3_73E1_4aa9_AD55_8FEF887EFB14</title>
<path fill="none" stroke="black" d="M81.2407,-646.747C165.211,-646.747 366.874,-646.747 536,-646.747 536,-646.747 536,-646.747 1745.5,-646.747 2020.52,-646.747 2098.42,-699.165 2364,-627.747 2372.85,-625.367 2381.77,-622.23 2390.53,-618.617"/>
<polygon fill="black" stroke="black" points="2392.19,-621.714 2399.97,-614.524 2389.4,-615.291 2392.19,-621.714"/>
</g>
<!-- EAID_02529E6C_D16D_45bf_8A13_16AA26A573B0 -->
<g id="node11" class="node"><title>EAID_02529E6C_D16D_45bf_8A13_16AA26A573B0</title>
<image xlink:href="img/boundary3.png" width="115px" height="67px" preserveAspectRatio="xMinYMin meet" x="480" y="-611.747"/>
<text text-anchor="start" x="426" y="-521.547" font-family="Times New Roman,serif" font-size="24.00">validate the role of user</text>
</g>
<!-- EAID_7E3F323F_89ED_414b_B2EA_42DD9D5431E1&#45;&gt;EAID_02529E6C_D16D_45bf_8A13_16AA26A573B0 -->
<g id="edge9" class="edge"><title>EAID_7E3F323F_89ED_414b_B2EA_42DD9D5431E1&#45;&gt;EAID_02529E6C_D16D_45bf_8A13_16AA26A573B0</title>
<path fill="none" stroke="black" d="M349.704,-563.747C367.72,-563.747 386.684,-563.747 405.337,-563.747"/>
<polygon fill="black" stroke="black" points="405.358,-567.247 415.358,-563.747 405.358,-560.247 405.358,-567.247"/>
</g>
<!-- EAID_9EE967D5_D4D8_4d54_AEDA_492A9A77E6BB -->
<g id="node15" class="node"><title>EAID_9EE967D5_D4D8_4d54_AEDA_492A9A77E6BB</title>
<image xlink:href="img/control1.png" width="106px" height="75px" preserveAspectRatio="xMinYMin meet" x="1692" y="-547.747"/>
<text text-anchor="start" x="1489.5" y="-449.547" font-family="Times New Roman,serif" font-size="24.00">insert the new username and password into the user db</text>
</g>
<!-- EAID_AC6681DB_AAC2_4029_98A6_CDEFE35F1E88&#45;&gt;EAID_9EE967D5_D4D8_4d54_AEDA_492A9A77E6BB -->
<g id="edge17" class="edge"><title>EAID_AC6681DB_AAC2_4029_98A6_CDEFE35F1E88&#45;&gt;EAID_9EE967D5_D4D8_4d54_AEDA_492A9A77E6BB</title>
<path fill="none" stroke="black" d="M1426.74,-446.219C1440.14,-448.314 1454.24,-450.518 1468.74,-452.786"/>
<polygon fill="black" stroke="black" points="1468.42,-456.278 1478.84,-454.365 1469.5,-449.362 1468.42,-456.278"/>
</g>
<!-- EAID_9B997A77_3804_44cc_BEF7_4FBFF5C96985&#45;&gt;EAID_5EBEBA19_0DA1_4dd1_B51E_61F63C61B93B -->
<g id="edge19" class="edge"><title>EAID_9B997A77_3804_44cc_BEF7_4FBFF5C96985&#45;&gt;EAID_5EBEBA19_0DA1_4dd1_B51E_61F63C61B93B</title>
<path fill="none" stroke="black" d="M1074.73,-745.569C1107.7,-749.053 1142.47,-752.727 1174.95,-756.159"/>
<polygon fill="black" stroke="black" points="1174.64,-759.646 1184.95,-757.216 1175.38,-752.685 1174.64,-759.646"/>
</g>
<!-- EAID_02529E6C_D16D_45bf_8A13_16AA26A573B0&#45;&gt;EAID_9B997A77_3804_44cc_BEF7_4FBFF5C96985 -->
<g id="edge20" class="edge"><title>EAID_02529E6C_D16D_45bf_8A13_16AA26A573B0&#45;&gt;EAID_9B997A77_3804_44cc_BEF7_4FBFF5C96985</title>
<path fill="none" stroke="black" d="M658.76,-615.815C699.456,-633.362 745.144,-653.061 786.938,-671.081"/>
<polygon fill="black" stroke="black" points="785.782,-674.394 796.35,-675.139 788.553,-667.966 785.782,-674.394"/>
</g>
<!-- EAID_091600E6_F659_45c2_8BC2_9A1D777899A0 -->
<g id="node14" class="node"><title>EAID_091600E6_F659_45c2_8BC2_9A1D777899A0</title>
<image xlink:href="img/control1.png" width="106px" height="75px" preserveAspectRatio="xMinYMin meet" x="871" y="-563.747"/>
<text text-anchor="start" x="709" y="-465.547" font-family="Times New Roman,serif" font-size="24.00">generate a random password for the username</text>
</g>
<!-- EAID_02529E6C_D16D_45bf_8A13_16AA26A573B0&#45;&gt;EAID_091600E6_F659_45c2_8BC2_9A1D777899A0 -->
<g id="edge14" class="edge"><title>EAID_02529E6C_D16D_45bf_8A13_16AA26A573B0&#45;&gt;EAID_091600E6_F659_45c2_8BC2_9A1D777899A0</title>
<path fill="none" stroke="black" d="M658.76,-547.436C668.436,-546.13 678.393,-544.785 688.514,-543.418"/>
<polygon fill="black" stroke="black" points="689.242,-546.851 698.684,-542.044 688.305,-539.914 689.242,-546.851"/>
</g>
<!-- EAID_24A228CA_158C_4eb7_8CA2_C3135E922DF1 -->
<g id="node17" class="node"><title>EAID_24A228CA_158C_4eb7_8CA2_C3135E922DF1</title>
<image xlink:href="img/activity_icon.png" width="30px" height="20px" preserveAspectRatio="xMinYMin meet" x="2190.5" y="-612.747"/>
<text text-anchor="start" x="2160" y="-570.547" font-family="Times New Roman,serif" font-weight="bold" font-size="24.00">user info</text>
</g>
<!-- EAID_02529E6C_D16D_45bf_8A13_16AA26A573B0&#45;&gt;EAID_24A228CA_158C_4eb7_8CA2_C3135E922DF1 -->
<g id="edge23" class="edge"><title>EAID_02529E6C_D16D_45bf_8A13_16AA26A573B0&#45;&gt;EAID_24A228CA_158C_4eb7_8CA2_C3135E922DF1</title>
<path fill="none" stroke="black" d="M658.799,-576.146C672.349,-577.196 685.962,-578.102 699,-578.747 1255.9,-606.303 1930.12,-594.172 2139.1,-589.372"/>
<polygon fill="black" stroke="black" points="2139.37,-592.866 2149.28,-589.135 2139.21,-585.868 2139.37,-592.866"/>
</g>
<!-- EAID_F543007E_DC5B_48a4_8742_587AB802A4AF -->
<g id="node12" class="node"><title>EAID_F543007E_DC5B_48a4_8742_587AB802A4AF</title>
<image xlink:href="img/control1.png" width="106px" height="75px" preserveAspectRatio="xMinYMin meet" x="871" y="-262.747"/>
<text text-anchor="start" x="811" y="-164.547" font-family="Times New Roman,serif" font-size="24.00">download the document</text>
</g>
<!-- EAID_F543007E_DC5B_48a4_8742_587AB802A4AF&#45;&gt;EAID_835433BA_3980_40a4_A5F9_53BB166D3998 -->
<g id="edge10" class="edge"><title>EAID_F543007E_DC5B_48a4_8742_587AB802A4AF&#45;&gt;EAID_835433BA_3980_40a4_A5F9_53BB166D3998</title>
<path fill="none" stroke="black" d="M1047.23,-184.599C1090.7,-175.3 1139.77,-164.804 1183.8,-155.384"/>
<polygon fill="black" stroke="black" points="1184.66,-158.781 1193.71,-153.266 1183.19,-151.936 1184.66,-158.781"/>
</g>
<!-- EAID_E0D8713F_8870_4c44_9B41_2D0A0474D13C&#45;&gt;EAID_696BFAA6_F3D7_4fbf_BDE3_5239CB8E1B86 -->
<g id="edge24" class="edge"><title>EAID_E0D8713F_8870_4c44_9B41_2D0A0474D13C&#45;&gt;EAID_696BFAA6_F3D7_4fbf_BDE3_5239CB8E1B86</title>
<path fill="none" stroke="black" d="M663.14,-264.474C675.189,-269.148 687.283,-273.65 699,-277.747 726.613,-287.401 756.502,-296.708 785.178,-305.094"/>
<polygon fill="black" stroke="black" points="784.272,-308.475 794.851,-307.902 786.223,-301.753 784.272,-308.475"/>
</g>
<!-- EAID_E0D8713F_8870_4c44_9B41_2D0A0474D13C&#45;&gt;EAID_F543007E_DC5B_48a4_8742_587AB802A4AF -->
<g id="edge11" class="edge"><title>EAID_E0D8713F_8870_4c44_9B41_2D0A0474D13C&#45;&gt;EAID_F543007E_DC5B_48a4_8742_587AB802A4AF</title>
<path fill="none" stroke="black" d="M663.265,-210.747C704.023,-210.747 749.382,-210.747 790.642,-210.747"/>
<polygon fill="black" stroke="black" points="790.76,-214.247 800.76,-210.747 790.759,-207.247 790.76,-214.247"/>
</g>
<!-- EAID_4E6C8A69_A487_4de9_A488_625ADEC0B6A2 -->
<g id="node18" class="node"><title>EAID_4E6C8A69_A487_4de9_A488_625ADEC0B6A2</title>
<image xlink:href="img/activity_icon.png" width="30px" height="20px" preserveAspectRatio="xMinYMin meet" x="909" y="-127.747"/>
<text text-anchor="start" x="902" y="-85.5469" font-family="Times New Roman,serif" font-weight="bold" font-size="24.00">user</text>
</g>
<!-- EAID_E0D8713F_8870_4c44_9B41_2D0A0474D13C&#45;&gt;EAID_4E6C8A69_A487_4de9_A488_625ADEC0B6A2 -->
<g id="edge22" class="edge"><title>EAID_E0D8713F_8870_4c44_9B41_2D0A0474D13C&#45;&gt;EAID_4E6C8A69_A487_4de9_A488_625ADEC0B6A2</title>
<path fill="none" stroke="black" d="M663.14,-154.739C675.135,-150.329 687.218,-146.239 699,-142.747 761.37,-124.259 836.186,-113.005 881.629,-107.328"/>
<polygon fill="black" stroke="black" points="882.191,-110.786 891.694,-106.102 881.344,-103.837 882.191,-110.786"/>
</g>
<!-- EAID_091600E6_F659_45c2_8BC2_9A1D777899A0&#45;&gt;EAID_AC6681DB_AAC2_4029_98A6_CDEFE35F1E88 -->
<g id="edge13" class="edge"><title>EAID_091600E6_F659_45c2_8BC2_9A1D777899A0&#45;&gt;EAID_AC6681DB_AAC2_4029_98A6_CDEFE35F1E88</title>
<path fill="none" stroke="black" d="M1149.02,-463.826C1163.48,-460.731 1177.72,-457.685 1191.4,-454.759"/>
<polygon fill="black" stroke="black" points="1192.21,-458.166 1201.26,-452.651 1190.74,-451.32 1192.21,-458.166"/>
</g>
<!-- EAID_091600E6_F659_45c2_8BC2_9A1D777899A0&#45;&gt;EAID_9EE967D5_D4D8_4d54_AEDA_492A9A77E6BB -->
<g id="edge12" class="edge"><title>EAID_091600E6_F659_45c2_8BC2_9A1D777899A0&#45;&gt;EAID_9EE967D5_D4D8_4d54_AEDA_492A9A77E6BB</title>
<path fill="none" stroke="black" d="M1149.2,-507.364C1247.89,-505.435 1364.77,-503.15 1468.66,-501.12"/>
<polygon fill="black" stroke="black" points="1468.74,-504.619 1478.67,-500.924 1468.6,-497.62 1468.74,-504.619"/>
</g>
<!-- EAID_73109476_1150_48df_BA10_B32DE5C904C7 -->
<g id="node16" class="node"><title>EAID_73109476_1150_48df_BA10_B32DE5C904C7</title>
<image xlink:href="img/control1.png" width="106px" height="75px" preserveAspectRatio="xMinYMin meet" x="2152" y="-531.747"/>
<text text-anchor="start" x="2056" y="-433.547" font-family="Times New Roman,serif" font-size="24.00">return generate success message</text>
</g>
<!-- EAID_9EE967D5_D4D8_4d54_AEDA_492A9A77E6BB&#45;&gt;EAID_73109476_1150_48df_BA10_B32DE5C904C7 -->
<g id="edge15" class="edge"><title>EAID_9EE967D5_D4D8_4d54_AEDA_492A9A77E6BB&#45;&gt;EAID_73109476_1150_48df_BA10_B32DE5C904C7</title>
<path fill="none" stroke="black" d="M2010.22,-486.509C2018.76,-486.211 2027.23,-485.915 2035.59,-485.624"/>
<polygon fill="black" stroke="black" points="2035.85,-489.117 2045.72,-485.27 2035.6,-482.121 2035.85,-489.117"/>
</g>
<!-- EAID_9EE967D5_D4D8_4d54_AEDA_492A9A77E6BB&#45;&gt;EAID_24A228CA_158C_4eb7_8CA2_C3135E922DF1 -->
<g id="edge16" class="edge"><title>EAID_9EE967D5_D4D8_4d54_AEDA_492A9A77E6BB&#45;&gt;EAID_24A228CA_158C_4eb7_8CA2_C3135E922DF1</title>
<path fill="none" stroke="black" d="M2010.22,-548.864C2058.29,-558.509 2104.23,-567.727 2139.3,-574.765"/>
<polygon fill="black" stroke="black" points="2138.87,-578.248 2149.36,-576.783 2140.24,-571.384 2138.87,-578.248"/>
</g>
<!-- EAID_73109476_1150_48df_BA10_B32DE5C904C7&#45;&gt;EAID_DFF633E3_73E1_4aa9_AD55_8FEF887EFB14 -->
<g id="edge18" class="edge"><title>EAID_73109476_1150_48df_BA10_B32DE5C904C7&#45;&gt;EAID_DFF633E3_73E1_4aa9_AD55_8FEF887EFB14</title>
<path fill="none" stroke="black" d="M2364.37,-526.945C2373.08,-529.542 2381.7,-532.109 2390.07,-534.603"/>
<polygon fill="black" stroke="black" points="2389.19,-537.994 2399.77,-537.496 2391.19,-531.286 2389.19,-537.994"/>
</g>
</g>
</svg>
