<?xml version="1.0" encoding="UTF-8" standalone="no"?>
<!DOCTYPE svg PUBLIC "-//W3C//DTD SVG 1.1//EN"
 "http://www.w3.org/Graphics/SVG/1.1/DTD/svg11.dtd">
<!-- Generated by graphviz version 2.38.0 (20140413.2041)
 -->
<!-- Title: g Pages: 1 -->
<svg width="653pt" height="258pt"
 viewBox="0.00 0.00 653.00 257.50" xmlns="http://www.w3.org/2000/svg" xmlns:xlink="http://www.w3.org/1999/xlink">
<g id="graph0" class="graph" transform="scale(1 1) rotate(0) translate(4 253.5)">
<title>g</title>
<polygon fill="white" stroke="none" points="-4,4 -4,-253.5 649,-253.5 649,4 -4,4"/>
<!-- EAID_6D85512D_21C7_4d24_B185_2E8EB2D98DDC -->
<g id="node1" class="node"><title>EAID_6D85512D_21C7_4d24_B185_2E8EB2D98DDC</title>
<image xlink:href="img/actor1.png" width="61px" height="90px" preserveAspectRatio="xMinYMin meet" x="10.5" y="-185.5"/>
<text text-anchor="start" x="19" y="-72.3" font-family="Times New Roman,serif" font-size="24.00">User</text>
</g>
<!-- EAID_5F6420DF_7B22_457c_ADA4_D9D9D55CB879 -->
<g id="node2" class="node"><title>EAID_5F6420DF_7B22_457c_ADA4_D9D9D55CB879</title>
<image xlink:href="img/boundary3.png" width="115px" height="67px" preserveAspectRatio="xMinYMin meet" x="133.5" y="-173.5"/>
<text text-anchor="start" x="127" y="-83.3" font-family="Times New Roman,serif" font-size="24.00">Avatar&#39;s Page</text>
</g>
<!-- EAID_6D85512D_21C7_4d24_B185_2E8EB2D98DDC&#45;&gt;EAID_5F6420DF_7B22_457c_ADA4_D9D9D55CB879 -->
<g id="edge1" class="edge"><title>EAID_6D85512D_21C7_4d24_B185_2E8EB2D98DDC&#45;&gt;EAID_5F6420DF_7B22_457c_ADA4_D9D9D55CB879</title>
<path fill="none" stroke="black" d="M81.2953,-125.5C89.2852,-125.5 97.959,-125.5 106.805,-125.5"/>
<polygon fill="black" stroke="black" points="106.838,-129 116.838,-125.5 106.838,-122 106.838,-129"/>
</g>
<!-- EAID_150C5FC1_2C91_443f_983F_666B158B05AC -->
<g id="node3" class="node"><title>EAID_150C5FC1_2C91_443f_983F_666B158B05AC</title>
<image xlink:href="img/control1.png" width="106px" height="75px" preserveAspectRatio="xMinYMin meet" x="323" y="-177.5"/>
<text text-anchor="start" x="311.5" y="-79.3" font-family="Times New Roman,serif" font-size="24.00">Select Avatar</text>
</g>
<!-- EAID_5F6420DF_7B22_457c_ADA4_D9D9D55CB879&#45;&gt;EAID_150C5FC1_2C91_443f_983F_666B158B05AC -->
<g id="edge2" class="edge"><title>EAID_5F6420DF_7B22_457c_ADA4_D9D9D55CB879&#45;&gt;EAID_150C5FC1_2C91_443f_983F_666B158B05AC</title>
<path fill="none" stroke="black" d="M265.178,-125.5C273.497,-125.5 282.025,-125.5 290.47,-125.5"/>
<polygon fill="black" stroke="black" points="290.71,-129 300.71,-125.5 290.71,-122 290.71,-129"/>
</g>
<!-- EAID_4FEB3057_F4ED_45c7_9B80_80A297FDA96E -->
<g id="node4" class="node"><title>EAID_4FEB3057_F4ED_45c7_9B80_80A297FDA96E</title>
<image xlink:href="img/entity1.png" width="80px" height="72px" preserveAspectRatio="xMinYMin meet" x="525.5" y="-243.5"/>
<text text-anchor="start" x="529" y="-148.3" font-family="Times New Roman,serif" font-size="24.00">Avatars</text>
</g>
<!-- EAID_150C5FC1_2C91_443f_983F_666B158B05AC&#45;&gt;EAID_4FEB3057_F4ED_45c7_9B80_80A297FDA96E -->
<g id="edge3" class="edge"><title>EAID_150C5FC1_2C91_443f_983F_666B158B05AC&#45;&gt;EAID_4FEB3057_F4ED_45c7_9B80_80A297FDA96E</title>
<path fill="none" stroke="black" d="M450.263,-151.788C468.664,-158.346 488.151,-165.29 505.719,-171.551"/>
<polygon fill="black" stroke="black" points="504.668,-174.892 515.263,-174.953 507.018,-168.299 504.668,-174.892"/>
</g>
<!-- EAID_815B6503_525D_4a8e_93D8_2A28354CD2AE -->
<g id="node5" class="node"><title>EAID_815B6503_525D_4a8e_93D8_2A28354CD2AE</title>
<image xlink:href="img/control1.png" width="106px" height="75px" preserveAspectRatio="xMinYMin meet" x="513" y="-110.5"/>
<text text-anchor="start" x="496.5" y="-12.3" font-family="Times New Roman,serif" font-size="24.00">Render Avatar</text>
</g>
<!-- EAID_150C5FC1_2C91_443f_983F_666B158B05AC&#45;&gt;EAID_815B6503_525D_4a8e_93D8_2A28354CD2AE -->
<g id="edge4" class="edge"><title>EAID_150C5FC1_2C91_443f_983F_666B158B05AC&#45;&gt;EAID_815B6503_525D_4a8e_93D8_2A28354CD2AE</title>
<path fill="none" stroke="black" d="M450.263,-99.2121C458.875,-96.1429 467.725,-92.9889 476.505,-89.8599"/>
<polygon fill="black" stroke="black" points="477.745,-93.1336 485.99,-86.4796 475.395,-86.5398 477.745,-93.1336"/>
</g>
</g>
</svg>
