<?xml version="1.0" encoding="UTF-8" standalone="no"?>
<!DOCTYPE svg PUBLIC "-//W3C//DTD SVG 1.1//EN"
 "http://www.w3.org/Graphics/SVG/1.1/DTD/svg11.dtd">
<!-- Generated by graphviz version 2.38.0 (20140413.2041)
 -->
<!-- Title: g Pages: 1 -->
<svg width="1475pt" height="343pt"
 viewBox="0.00 0.00 1475.00 343.00" xmlns="http://www.w3.org/2000/svg" xmlns:xlink="http://www.w3.org/1999/xlink">
<g id="graph0" class="graph" transform="scale(1 1) rotate(0) translate(4 339)">
<title>g</title>
<polygon fill="white" stroke="none" points="-4,4 -4,-339 1471,-339 1471,4 -4,4"/>
<!-- EAID_99979ABF_2169_48dd_8D4B_EB8001FA0AFF -->
<g id="node1" class="node"><title>EAID_99979ABF_2169_48dd_8D4B_EB8001FA0AFF</title>
<image xlink:href="img/actor1.png" width="61px" height="90px" preserveAspectRatio="xMinYMin meet" x="10.5" y="-282.5"/>
<text text-anchor="start" x="19" y="-169.3" font-family="Times New Roman,serif" font-size="24.00">User</text>
</g>
<!-- EAID_F499FE83_54A5_44c2_BD4A_71413D7D49BA -->
<g id="node2" class="node"><title>EAID_F499FE83_54A5_44c2_BD4A_71413D7D49BA</title>
<image xlink:href="img/boundary3.png" width="102px" height="67px" preserveAspectRatio="xMinYMin meet" x="1355" y="-328.5"/>
<text text-anchor="start" x="1355" y="-238.3" font-family="Times New Roman,serif" font-size="24.00">Homepage</text>
</g>
<!-- EAID_99979ABF_2169_48dd_8D4B_EB8001FA0AFF&#45;&gt;EAID_F499FE83_54A5_44c2_BD4A_71413D7D49BA -->
<g id="edge1" class="edge"><title>EAID_99979ABF_2169_48dd_8D4B_EB8001FA0AFF&#45;&gt;EAID_F499FE83_54A5_44c2_BD4A_71413D7D49BA</title>
<path fill="none" stroke="black" d="M81.1046,-250.367C92.2563,-257.005 104.709,-263.358 117,-267.5 259.415,-315.495 302.953,-297.042 453,-305.5 832.841,-326.911 931.638,-353.83 1309,-305.5 1317.41,-304.423 1326.14,-302.835 1334.75,-300.974"/>
<polygon fill="black" stroke="black" points="1335.81,-304.321 1344.77,-298.676 1334.24,-297.498 1335.81,-304.321"/>
</g>
<!-- EAID_D47E5C9C_055E_4cd9_98D6_6ED80043F37B -->
<g id="node3" class="node"><title>EAID_D47E5C9C_055E_4cd9_98D6_6ED80043F37B</title>
<image xlink:href="img/boundary3.png" width="115px" height="67px" preserveAspectRatio="xMinYMin meet" x="682.5" y="-289.5"/>
<text text-anchor="start" x="566" y="-199.3" font-family="Times New Roman,serif" font-size="24.00">Receive verification and session data</text>
</g>
<!-- EAID_99979ABF_2169_48dd_8D4B_EB8001FA0AFF&#45;&gt;EAID_D47E5C9C_055E_4cd9_98D6_6ED80043F37B -->
<g id="edge2" class="edge"><title>EAID_99979ABF_2169_48dd_8D4B_EB8001FA0AFF&#45;&gt;EAID_D47E5C9C_055E_4cd9_98D6_6ED80043F37B</title>
<path fill="none" stroke="black" d="M81.0025,-236.295C92.4679,-239.672 105.106,-242.802 117,-244.5 259.454,-264.832 422.134,-263.185 545.387,-256.931"/>
<polygon fill="black" stroke="black" points="545.883,-260.41 555.687,-256.393 545.518,-253.419 545.883,-260.41"/>
</g>
<!-- EAID_E83E1EF4_D8CC_487f_88BD_542A55E47D28 -->
<g id="node4" class="node"><title>EAID_E83E1EF4_D8CC_487f_88BD_542A55E47D28</title>
<image xlink:href="img/boundary3.png" width="115px" height="67px" preserveAspectRatio="xMinYMin meet" x="209.5" y="-229.5"/>
<text text-anchor="start" x="127" y="-139.3" font-family="Times New Roman,serif" font-size="24.00">Enter username and password</text>
</g>
<!-- EAID_99979ABF_2169_48dd_8D4B_EB8001FA0AFF&#45;&gt;EAID_E83E1EF4_D8CC_487f_88BD_542A55E47D28 -->
<g id="edge3" class="edge"><title>EAID_99979ABF_2169_48dd_8D4B_EB8001FA0AFF&#45;&gt;EAID_E83E1EF4_D8CC_487f_88BD_542A55E47D28</title>
<path fill="none" stroke="black" d="M81.1193,-215.264C88.8844,-213.846 97.4621,-212.28 106.544,-210.621"/>
<polygon fill="black" stroke="black" points="107.374,-214.028 116.582,-208.788 106.116,-207.142 107.374,-214.028"/>
</g>
<!-- EAID_34A66291_39DF_43c0_B640_82863FE9DD79 -->
<g id="node5" class="node"><title>EAID_34A66291_39DF_43c0_B640_82863FE9DD79</title>
<image xlink:href="img/boundary3.png" width="106px" height="67px" preserveAspectRatio="xMinYMin meet" x="214" y="-102.5"/>
<text text-anchor="start" x="214" y="-12.3" font-family="Times New Roman,serif" font-size="24.00">Click login</text>
</g>
<!-- EAID_99979ABF_2169_48dd_8D4B_EB8001FA0AFF&#45;&gt;EAID_34A66291_39DF_43c0_B640_82863FE9DD79 -->
<g id="edge4" class="edge"><title>EAID_99979ABF_2169_48dd_8D4B_EB8001FA0AFF&#45;&gt;EAID_34A66291_39DF_43c0_B640_82863FE9DD79</title>
<path fill="none" stroke="black" d="M80.5968,-156.377C91.1166,-142.262 103.401,-128.356 117,-117.5 139.676,-99.3974 168.316,-85.6455 194.414,-75.681"/>
<polygon fill="black" stroke="black" points="195.729,-78.9265 203.898,-72.1801 193.305,-72.3596 195.729,-78.9265"/>
</g>
<!-- EAID_A3718B48_D801_47ec_9000_34AEDF149B59 -->
<g id="node7" class="node"><title>EAID_A3718B48_D801_47ec_9000_34AEDF149B59</title>
<image xlink:href="img/control1.png" width="106px" height="75px" preserveAspectRatio="xMinYMin meet" x="1133" y="-289.5"/>
<text text-anchor="start" x="1073" y="-191.3" font-family="Times New Roman,serif" font-size="24.00">show confirmation page</text>
</g>
<!-- EAID_D47E5C9C_055E_4cd9_98D6_6ED80043F37B&#45;&gt;EAID_A3718B48_D801_47ec_9000_34AEDF149B59 -->
<g id="edge8" class="edge"><title>EAID_D47E5C9C_055E_4cd9_98D6_6ED80043F37B&#45;&gt;EAID_A3718B48_D801_47ec_9000_34AEDF149B59</title>
<path fill="none" stroke="black" d="M924.155,-239.85C967.207,-239.462 1012.27,-239.056 1052.6,-238.693"/>
<polygon fill="black" stroke="black" points="1052.77,-242.191 1062.74,-238.601 1052.71,-235.192 1052.77,-242.191"/>
</g>
<!-- EAID_D5BECBE1_20CF_4dea_B66A_EFC6B91D3AD3 -->
<g id="node6" class="node"><title>EAID_D5BECBE1_20CF_4dea_B66A_EFC6B91D3AD3</title>
<image xlink:href="img/control1.png" width="106px" height="75px" preserveAspectRatio="xMinYMin meet" x="687" y="-162.5"/>
<text text-anchor="start" x="463" y="-64.3" font-family="Times New Roman,serif" font-size="24.00">Send the form to Authentication backend to check its valid</text>
</g>
<!-- EAID_E83E1EF4_D8CC_487f_88BD_542A55E47D28&#45;&gt;EAID_D5BECBE1_20CF_4dea_B66A_EFC6B91D3AD3 -->
<g id="edge6" class="edge"><title>EAID_E83E1EF4_D8CC_487f_88BD_542A55E47D28&#45;&gt;EAID_D5BECBE1_20CF_4dea_B66A_EFC6B91D3AD3</title>
<path fill="none" stroke="black" d="M417.027,-159.035C425.357,-157.78 433.854,-156.499 442.468,-155.2"/>
<polygon fill="black" stroke="black" points="443.264,-158.62 452.631,-153.668 442.221,-151.698 443.264,-158.62"/>
</g>
<!-- EAID_34A66291_39DF_43c0_B640_82863FE9DD79&#45;&gt;EAID_D5BECBE1_20CF_4dea_B66A_EFC6B91D3AD3 -->
<g id="edge5" class="edge"><title>EAID_34A66291_39DF_43c0_B640_82863FE9DD79&#45;&gt;EAID_D5BECBE1_20CF_4dea_B66A_EFC6B91D3AD3</title>
<path fill="none" stroke="black" d="M330.059,-61.8786C360.824,-65.5364 400.449,-70.2477 442.893,-75.294"/>
<polygon fill="black" stroke="black" points="442.516,-78.7738 452.86,-76.4791 443.343,-71.8228 442.516,-78.7738"/>
</g>
<!-- EAID_D5BECBE1_20CF_4dea_B66A_EFC6B91D3AD3&#45;&gt;EAID_A3718B48_D801_47ec_9000_34AEDF149B59 -->
<g id="edge9" class="edge"><title>EAID_D5BECBE1_20CF_4dea_B66A_EFC6B91D3AD3&#45;&gt;EAID_A3718B48_D801_47ec_9000_34AEDF149B59</title>
<path fill="none" stroke="black" d="M998.303,-169.061C1008.02,-171.816 1017.61,-174.632 1027,-177.5 1035.55,-180.113 1044.31,-182.954 1053.1,-185.932"/>
<polygon fill="black" stroke="black" points="1052.04,-189.271 1062.64,-189.213 1054.32,-182.651 1052.04,-189.271"/>
</g>
<!-- EAID_A3718B48_D801_47ec_9000_34AEDF149B59&#45;&gt;EAID_F499FE83_54A5_44c2_BD4A_71413D7D49BA -->
<g id="edge7" class="edge"><title>EAID_A3718B48_D801_47ec_9000_34AEDF149B59&#45;&gt;EAID_F499FE83_54A5_44c2_BD4A_71413D7D49BA</title>
<path fill="none" stroke="black" d="M1309.06,-261.577C1317.85,-263.31 1326.52,-265.02 1334.84,-266.661"/>
<polygon fill="black" stroke="black" points="1334.32,-270.125 1344.8,-268.627 1335.67,-263.257 1334.32,-270.125"/>
</g>
</g>
</svg>
