<?xml version="1.0" encoding="UTF-8" standalone="no"?>
<!DOCTYPE svg PUBLIC "-//W3C//DTD SVG 1.1//EN"
 "http://www.w3.org/Graphics/SVG/1.1/DTD/svg11.dtd">
<!-- Generated by graphviz version 2.38.0 (20140413.2041)
 -->
<!-- Title: g Pages: 1 -->
<svg width="3662pt" height="784pt"
 viewBox="0.00 0.00 3662.00 784.00" xmlns="http://www.w3.org/2000/svg" xmlns:xlink="http://www.w3.org/1999/xlink">
<g id="graph0" class="graph" transform="scale(1 1) rotate(0) translate(4 780)">
<title>g</title>
<polygon fill="white" stroke="none" points="-4,4 -4,-780 3658,-780 3658,4 -4,4"/>
<g id="clust1" class="cluster"><title>cluster0</title>
<polygon fill="none" stroke="black" stroke-width="2" points="1523,-254 1523,-657 2023,-657 2023,-254 1523,-254"/>
<text text-anchor="start" x="1751" y="-642.8" font-family="Times New Roman,serif" font-weight="bold" font-size="14.00">System</text>
</g>
<g id="clust3" class="cluster"><title>cluster1000</title>
<polygon fill="none" stroke="black" stroke-width="2" points="8,-8 8,-246 3646,-246 3646,-8 8,-8"/>
<text text-anchor="start" x="1781.5" y="-231.8" font-family="Times New Roman,serif" font-weight="bold" font-size="14.00">Domain Model</text>
</g>
<g id="clust2" class="cluster"><title>cluster1</title>
<polygon fill="none" stroke="black" stroke-width="2" points="1647,-665 1647,-768 2045,-768 2045,-665 1647,-665"/>
<text text-anchor="start" x="1831.5" y="-753.8" font-family="Times New Roman,serif" font-weight="bold" font-size="14.00">User</text>
</g>
<!-- EAID_C549145D_DF58_4fcb_A745_A2E9B7F3C588___EAID_7226900B_62A2_412e_8194_ABBF21578C36 -->
<g id="node1" class="node"><title>EAID_C549145D_DF58_4fcb_A745_A2E9B7F3C588___EAID_7226900B_62A2_412e_8194_ABBF21578C36</title>
<image xlink:href="img/activity_icon.png" width="30px" height="20px" preserveAspectRatio="xMinYMin meet" x="1763" y="-620"/>
<text text-anchor="start" x="1687" y="-585.8" font-family="Times New Roman,serif" font-weight="bold" font-size="14.00">User:Maintain social network</text>
<text text-anchor="start" x="1763" y="-571.8" font-family="Times New Roman,serif" font-weight="bold" font-size="14.00">page</text>
</g>
<!-- EAID_7226900B_62A2_412e_8194_ABBF21578C36___EAID_D81FE5CB_47FD_4424_B73C_20CFBA2541FA -->
<g id="node5" class="node"><title>EAID_7226900B_62A2_412e_8194_ABBF21578C36___EAID_D81FE5CB_47FD_4424_B73C_20CFBA2541FA</title>
<image xlink:href="img/activity_icon.png" width="30px" height="20px" preserveAspectRatio="xMinYMin meet" x="1793.5" y="-520"/>
<text text-anchor="start" x="1733.5" y="-485.8" font-family="Times New Roman,serif" font-weight="bold" font-size="14.00">Maintain social network</text>
<text text-anchor="start" x="1717" y="-471.8" font-family="Times New Roman,serif" font-weight="bold" font-size="14.00">page:Maintain social network</text>
</g>
<!-- EAID_C549145D_DF58_4fcb_A745_A2E9B7F3C588___EAID_7226900B_62A2_412e_8194_ABBF21578C36&#45;&gt;EAID_7226900B_62A2_412e_8194_ABBF21578C36___EAID_D81FE5CB_47FD_4424_B73C_20CFBA2541FA -->
<g id="edge1" class="edge"><title>EAID_C549145D_DF58_4fcb_A745_A2E9B7F3C588___EAID_7226900B_62A2_412e_8194_ABBF21578C36&#45;&gt;EAID_7226900B_62A2_412e_8194_ABBF21578C36___EAID_D81FE5CB_47FD_4424_B73C_20CFBA2541FA</title>
<path fill="none" stroke="black" d="M1787.49,-561.992C1790.04,-553.681 1792.83,-544.567 1795.51,-535.812"/>
<polygon fill="black" stroke="black" points="1798.89,-536.729 1798.47,-526.142 1792.19,-534.68 1798.89,-536.729"/>
</g>
<!-- EAID_D2A5D2D3_54BB_4fb8_AA8D_054280797500 -->
<g id="node9" class="node"><title>EAID_D2A5D2D3_54BB_4fb8_AA8D_054280797500</title>
<polygon fill="none" stroke="black" points="1892,-167.5 1892,-188.5 2087,-188.5 2087,-167.5 1892,-167.5"/>
<text text-anchor="start" x="1950.5" y="-175.3" font-family="Times New Roman,serif" font-weight="bold" font-size="14.00">Event Image</text>
<polygon fill="none" stroke="black" points="1892,-146.5 1892,-167.5 2087,-167.5 2087,-146.5 1892,-146.5"/>
<text text-anchor="start" x="1897.5" y="-154.3" font-family="Times New Roman,serif" font-weight="bold" font-size="14.00">EAJava_void BMP JPG PNG</text>
<polygon fill="none" stroke="black" points="1892,-125.5 1892,-146.5 2087,-146.5 2087,-125.5 1892,-125.5"/>
<text text-anchor="start" x="1948" y="-133.3" font-family="Times New Roman,serif" font-weight="bold" font-size="14.00">EventImage()</text>
<polygon fill="none" stroke="black" points="1892,-104.5 1892,-125.5 2087,-125.5 2087,-104.5 1892,-104.5"/>
<text text-anchor="start" x="1952" y="-112.3" font-family="Times New Roman,serif" font-weight="bold" font-size="14.00">Homepage()</text>
<polygon fill="none" stroke="black" points="1892,-83.5 1892,-104.5 2087,-104.5 2087,-83.5 1892,-83.5"/>
<text text-anchor="start" x="1899" y="-91.3" font-family="Times New Roman,serif" font-weight="bold" font-size="14.00">Maintainsocialnetworkpage()</text>
<polygon fill="none" stroke="black" points="1892,-62.5 1892,-83.5 2087,-83.5 2087,-62.5 1892,-62.5"/>
<text text-anchor="start" x="1896.5" y="-70.3" font-family="Times New Roman,serif" font-weight="bold" font-size="14.00">ViewandRSVPforeventspage()</text>
<polygon fill="none" stroke="black" points="1892,-41.5 1892,-62.5 2087,-62.5 2087,-41.5 1892,-41.5"/>
<text text-anchor="start" x="1895" y="-49.3" font-family="Times New Roman,serif" font-weight="bold" font-size="14.00">selectpagesofupcomingevents()</text>
<polygon fill="none" stroke="black" points="1890.5,-41 1890.5,-190 2087.5,-190 2087.5,-41 1890.5,-41"/>
</g>
<!-- EAID_C549145D_DF58_4fcb_A745_A2E9B7F3C588___EAID_7226900B_62A2_412e_8194_ABBF21578C36&#45;&gt;EAID_D2A5D2D3_54BB_4fb8_AA8D_054280797500 -->
<g id="edge8" class="edge"><title>EAID_C549145D_DF58_4fcb_A745_A2E9B7F3C588___EAID_7226900B_62A2_412e_8194_ABBF21578C36&#45;&gt;EAID_D2A5D2D3_54BB_4fb8_AA8D_054280797500</title>
<path fill="none" stroke="black" stroke-dasharray="5,2" d="M1863.31,-561.952C1882.94,-552.337 1902.79,-540.396 1919,-526 1997.56,-456.246 2015.86,-426.935 2045,-326 2056.55,-285.986 2047.66,-241.433 2033.84,-203.737"/>
<polygon fill="black" stroke="black" points="2037.08,-202.394 2030.23,-194.307 2030.54,-204.898 2037.08,-202.394"/>
</g>
<!-- EAID_C549145D_DF58_4fcb_A745_A2E9B7F3C588___EAID_3439F9D6_214E_46c7_82BF_CD2A3999E5A0 -->
<g id="node2" class="node"><title>EAID_C549145D_DF58_4fcb_A745_A2E9B7F3C588___EAID_3439F9D6_214E_46c7_82BF_CD2A3999E5A0</title>
<image xlink:href="img/activity_icon.png" width="30px" height="20px" preserveAspectRatio="xMinYMin meet" x="1941" y="-613"/>
<text text-anchor="start" x="1907" y="-578.8" font-family="Times New Roman,serif" font-weight="bold" font-size="14.00">User:Homepage</text>
</g>
<!-- EAID_C549145D_DF58_4fcb_A745_A2E9B7F3C588___EAID_3439F9D6_214E_46c7_82BF_CD2A3999E5A0&#45;&gt;EAID_D2A5D2D3_54BB_4fb8_AA8D_054280797500 -->
<g id="edge9" class="edge"><title>EAID_C549145D_DF58_4fcb_A745_A2E9B7F3C588___EAID_3439F9D6_214E_46c7_82BF_CD2A3999E5A0&#45;&gt;EAID_D2A5D2D3_54BB_4fb8_AA8D_054280797500</title>
<path fill="none" stroke="black" stroke-dasharray="5,2" d="M2015.02,-580.25C2044.43,-570.594 2077.4,-554.017 2095,-526 2159.3,-423.629 2133.99,-368.43 2095,-254 2088.87,-236.021 2079.34,-218.562 2068.45,-202.456"/>
<polygon fill="black" stroke="black" points="2071.25,-200.345 2062.64,-194.161 2065.51,-204.36 2071.25,-200.345"/>
</g>
<!-- EAID_E8AA9620_FE8C_4d89_8EC3_6C29820ED6DB___EAID_3439F9D6_214E_46c7_82BF_CD2A3999E5A0 -->
<g id="node3" class="node"><title>EAID_E8AA9620_FE8C_4d89_8EC3_6C29820ED6DB___EAID_3439F9D6_214E_46c7_82BF_CD2A3999E5A0</title>
<image xlink:href="img/activity_icon.png" width="30px" height="20px" preserveAspectRatio="xMinYMin meet" x="1881" y="-313"/>
<text text-anchor="start" x="1787" y="-278.8" font-family="Times New Roman,serif" font-weight="bold" font-size="14.00">Show confirmation page:Homepage</text>
</g>
<!-- EAID_E8AA9620_FE8C_4d89_8EC3_6C29820ED6DB___EAID_3439F9D6_214E_46c7_82BF_CD2A3999E5A0&#45;&gt;EAID_D2A5D2D3_54BB_4fb8_AA8D_054280797500 -->
<g id="edge10" class="edge"><title>EAID_E8AA9620_FE8C_4d89_8EC3_6C29820ED6DB___EAID_3439F9D6_214E_46c7_82BF_CD2A3999E5A0&#45;&gt;EAID_D2A5D2D3_54BB_4fb8_AA8D_054280797500</title>
<path fill="none" stroke="black" stroke-dasharray="5,2" d="M1908.93,-268.458C1917.96,-251.324 1930.6,-227.329 1943.18,-203.46"/>
<polygon fill="black" stroke="black" points="1946.42,-204.811 1947.99,-194.333 1940.23,-201.548 1946.42,-204.811"/>
</g>
<!-- EAID_D81FE5CB_47FD_4424_B73C_20CFBA2541FA___EAID_E8AA9620_FE8C_4d89_8EC3_6C29820ED6DB -->
<g id="node4" class="node"><title>EAID_D81FE5CB_47FD_4424_B73C_20CFBA2541FA___EAID_E8AA9620_FE8C_4d89_8EC3_6C29820ED6DB</title>
<image xlink:href="img/activity_icon.png" width="30px" height="20px" preserveAspectRatio="xMinYMin meet" x="1852.5" y="-420"/>
<text text-anchor="start" x="1774" y="-385.8" font-family="Times New Roman,serif" font-weight="bold" font-size="14.00">Maintain social network:Show</text>
<text text-anchor="start" x="1811.5" y="-371.8" font-family="Times New Roman,serif" font-weight="bold" font-size="14.00">confirmation page</text>
</g>
<!-- EAID_D81FE5CB_47FD_4424_B73C_20CFBA2541FA___EAID_E8AA9620_FE8C_4d89_8EC3_6C29820ED6DB&#45;&gt;EAID_E8AA9620_FE8C_4d89_8EC3_6C29820ED6DB___EAID_3439F9D6_214E_46c7_82BF_CD2A3999E5A0 -->
<g id="edge4" class="edge"><title>EAID_D81FE5CB_47FD_4424_B73C_20CFBA2541FA___EAID_E8AA9620_FE8C_4d89_8EC3_6C29820ED6DB&#45;&gt;EAID_E8AA9620_FE8C_4d89_8EC3_6C29820ED6DB___EAID_3439F9D6_214E_46c7_82BF_CD2A3999E5A0</title>
<path fill="none" stroke="black" d="M1876.18,-361.992C1879.24,-351.623 1882.68,-340.006 1885.82,-329.395"/>
<polygon fill="black" stroke="black" points="1889.24,-330.185 1888.72,-319.603 1882.53,-328.199 1889.24,-330.185"/>
</g>
<!-- EAID_E8AA9620_FE8C_4d89_8EC3_6C29820ED6DB___EAID_7226900B_62A2_412e_8194_ABBF21578C36 -->
<g id="node6" class="node"><title>EAID_E8AA9620_FE8C_4d89_8EC3_6C29820ED6DB___EAID_7226900B_62A2_412e_8194_ABBF21578C36</title>
<image xlink:href="img/activity_icon.png" width="30px" height="20px" preserveAspectRatio="xMinYMin meet" x="1630" y="-320"/>
<text text-anchor="start" x="1541" y="-285.8" font-family="Times New Roman,serif" font-weight="bold" font-size="14.00">Show confirmation page:Maintain</text>
<text text-anchor="start" x="1583" y="-271.8" font-family="Times New Roman,serif" font-weight="bold" font-size="14.00">social network page</text>
</g>
<!-- EAID_D81FE5CB_47FD_4424_B73C_20CFBA2541FA___EAID_E8AA9620_FE8C_4d89_8EC3_6C29820ED6DB&#45;&gt;EAID_E8AA9620_FE8C_4d89_8EC3_6C29820ED6DB___EAID_7226900B_62A2_412e_8194_ABBF21578C36 -->
<g id="edge5" class="edge"><title>EAID_D81FE5CB_47FD_4424_B73C_20CFBA2541FA___EAID_E8AA9620_FE8C_4d89_8EC3_6C29820ED6DB&#45;&gt;EAID_E8AA9620_FE8C_4d89_8EC3_6C29820ED6DB___EAID_7226900B_62A2_412e_8194_ABBF21578C36</title>
<path fill="none" stroke="black" d="M1796.76,-361.992C1773.88,-351.893 1748.32,-340.61 1724.8,-330.226"/>
<polygon fill="black" stroke="black" points="1726.11,-326.979 1715.55,-326.142 1723.28,-333.383 1726.11,-326.979"/>
</g>
<!-- EAID_F36D014D_3944_46ba_AF40_81E9DA847A29 -->
<g id="node13" class="node"><title>EAID_F36D014D_3944_46ba_AF40_81E9DA847A29</title>
<polygon fill="none" stroke="black" points="803,-188.5 803,-209.5 977,-209.5 977,-188.5 803,-188.5"/>
<text text-anchor="start" x="821" y="-196.3" font-family="Times New Roman,serif" font-weight="bold" font-size="14.00">Job Application Form </text>
<polygon fill="none" stroke="black" points="803,-167.5 803,-188.5 977,-188.5 977,-167.5 803,-167.5"/>
<text text-anchor="start" x="816.5" y="-175.3" font-family="Times New Roman,serif" font-weight="bold" font-size="14.00">EAJava_void Hyperlink</text>
<polygon fill="none" stroke="black" points="803,-146.5 803,-167.5 977,-167.5 977,-146.5 803,-146.5"/>
<text text-anchor="start" x="828" y="-154.3" font-family="Times New Roman,serif" font-weight="bold" font-size="14.00">EAJava_void String</text>
<polygon fill="none" stroke="black" points="803,-125.5 803,-146.5 977,-146.5 977,-125.5 803,-125.5"/>
<text text-anchor="start" x="822" y="-133.3" font-family="Times New Roman,serif" font-weight="bold" font-size="14.00">JobApplicationForm()</text>
<polygon fill="none" stroke="black" points="803,-104.5 803,-125.5 977,-125.5 977,-104.5 803,-104.5"/>
<text text-anchor="start" x="831" y="-112.3" font-family="Times New Roman,serif" font-weight="bold" font-size="14.00">Applyforjobspage()</text>
<polygon fill="none" stroke="black" points="803,-83.5 803,-104.5 977,-104.5 977,-83.5 803,-83.5"/>
<text text-anchor="start" x="814.5" y="-91.3" font-family="Times New Roman,serif" font-weight="bold" font-size="14.00">Showconfirmationpage()</text>
<polygon fill="none" stroke="black" points="803,-62.5 803,-83.5 977,-83.5 977,-62.5 803,-62.5"/>
<text text-anchor="start" x="818.5" y="-70.3" font-family="Times New Roman,serif" font-weight="bold" font-size="14.00">Applyfovolunteerpage()</text>
<polygon fill="none" stroke="black" points="803,-41.5 803,-62.5 977,-62.5 977,-41.5 803,-41.5"/>
<text text-anchor="start" x="822.5" y="-49.3" font-family="Times New Roman,serif" font-weight="bold" font-size="14.00">Donatingmoneypage()</text>
<polygon fill="none" stroke="black" points="803,-20.5 803,-41.5 977,-41.5 977,-20.5 803,-20.5"/>
<text text-anchor="start" x="806" y="-28.3" font-family="Times New Roman,serif" font-weight="bold" font-size="14.00">choosemethodfordonation()</text>
<polygon fill="none" stroke="black" points="802,-20 802,-211 978,-211 978,-20 802,-20"/>
</g>
<!-- EAID_D81FE5CB_47FD_4424_B73C_20CFBA2541FA___EAID_E8AA9620_FE8C_4d89_8EC3_6C29820ED6DB&#45;&gt;EAID_F36D014D_3944_46ba_AF40_81E9DA847A29 -->
<g id="edge11" class="edge"><title>EAID_D81FE5CB_47FD_4424_B73C_20CFBA2541FA___EAID_E8AA9620_FE8C_4d89_8EC3_6C29820ED6DB&#45;&gt;EAID_F36D014D_3944_46ba_AF40_81E9DA847A29</title>
<path fill="none" stroke="black" stroke-dasharray="5,2" d="M1970.68,-368.844C1991.71,-359.042 2011.26,-345.288 2024,-326 2041.64,-299.299 2046.54,-276.715 2024,-254 2013.94,-243.865 1008.88,-252.163 996,-246 983.452,-239.995 971.89,-231.707 961.384,-222.199"/>
<polygon fill="black" stroke="black" points="963.571,-219.449 953.921,-215.076 958.738,-224.513 963.571,-219.449"/>
</g>
<!-- EAID_7226900B_62A2_412e_8194_ABBF21578C36___EAID_D81FE5CB_47FD_4424_B73C_20CFBA2541FA&#45;&gt;EAID_D81FE5CB_47FD_4424_B73C_20CFBA2541FA___EAID_E8AA9620_FE8C_4d89_8EC3_6C29820ED6DB -->
<g id="edge6" class="edge"><title>EAID_7226900B_62A2_412e_8194_ABBF21578C36___EAID_D81FE5CB_47FD_4424_B73C_20CFBA2541FA&#45;&gt;EAID_D81FE5CB_47FD_4424_B73C_20CFBA2541FA___EAID_E8AA9620_FE8C_4d89_8EC3_6C29820ED6DB</title>
<path fill="none" stroke="black" d="M1826.67,-461.992C1831.83,-453.413 1837.51,-443.978 1842.94,-434.966"/>
<polygon fill="black" stroke="black" points="1846.09,-436.515 1848.25,-426.142 1840.09,-432.904 1846.09,-436.515"/>
</g>
<!-- EAID_55249C51_8176_4809_A8D0_33641B1F9301 -->
<g id="node16" class="node"><title>EAID_55249C51_8176_4809_A8D0_33641B1F9301</title>
<polygon fill="none" stroke="black" points="3439,-157.5 3439,-178.5 3629,-178.5 3629,-157.5 3439,-157.5"/>
<text text-anchor="start" x="3452.5" y="-165.3" font-family="Times New Roman,serif" font-weight="bold" font-size="14.00">Social Media Update Item </text>
<polygon fill="none" stroke="black" points="3439,-136.5 3439,-157.5 3629,-157.5 3629,-136.5 3439,-136.5"/>
<text text-anchor="start" x="3442" y="-144.3" font-family="Times New Roman,serif" font-weight="bold" font-size="14.00">EAJava_void BMP JPG PNG</text>
<polygon fill="none" stroke="black" points="3439,-115.5 3439,-136.5 3629,-136.5 3629,-115.5 3439,-115.5"/>
<text text-anchor="start" x="3460.5" y="-123.3" font-family="Times New Roman,serif" font-weight="bold" font-size="14.00">EAJava_void Hyperlink</text>
<polygon fill="none" stroke="black" points="3439,-94.5 3439,-115.5 3629,-115.5 3629,-94.5 3439,-94.5"/>
<text text-anchor="start" x="3455.5" y="-102.3" font-family="Times New Roman,serif" font-weight="bold" font-size="14.00">SocialMediaUpdateItem()</text>
<polygon fill="none" stroke="black" points="3439,-73.5 3439,-94.5 3629,-94.5 3629,-73.5 3439,-73.5"/>
<text text-anchor="start" x="3458.5" y="-81.3" font-family="Times New Roman,serif" font-weight="bold" font-size="14.00">Maintainsocialnetwork()</text>
<polygon fill="none" stroke="black" points="3439,-52.5 3439,-73.5 3629,-73.5 3629,-52.5 3439,-52.5"/>
<text text-anchor="start" x="3447.5" y="-60.3" font-family="Times New Roman,serif" font-weight="bold" font-size="14.00">Postonsocialnewworkpage()</text>
<polygon fill="none" stroke="black" points="3438,-51.5 3438,-179.5 3630,-179.5 3630,-51.5 3438,-51.5"/>
</g>
<!-- EAID_7226900B_62A2_412e_8194_ABBF21578C36___EAID_D81FE5CB_47FD_4424_B73C_20CFBA2541FA&#45;&gt;EAID_55249C51_8176_4809_A8D0_33641B1F9301 -->
<g id="edge12" class="edge"><title>EAID_7226900B_62A2_412e_8194_ABBF21578C36___EAID_D81FE5CB_47FD_4424_B73C_20CFBA2541FA&#45;&gt;EAID_55249C51_8176_4809_A8D0_33641B1F9301</title>
<path fill="none" stroke="black" stroke-dasharray="5,2" d="M1909.76,-481.535C2242.98,-443.426 3287.72,-319.271 3421,-246 3445,-232.808 3466.31,-212.431 3483.78,-191.716"/>
<polygon fill="black" stroke="black" points="3486.66,-193.729 3490.29,-183.775 3481.24,-189.293 3486.66,-193.729"/>
</g>
<!-- EAID_E8AA9620_FE8C_4d89_8EC3_6C29820ED6DB___EAID_7226900B_62A2_412e_8194_ABBF21578C36&#45;&gt;EAID_7226900B_62A2_412e_8194_ABBF21578C36___EAID_D81FE5CB_47FD_4424_B73C_20CFBA2541FA -->
<g id="edge7" class="edge"><title>EAID_E8AA9620_FE8C_4d89_8EC3_6C29820ED6DB___EAID_7226900B_62A2_412e_8194_ABBF21578C36&#45;&gt;EAID_7226900B_62A2_412e_8194_ABBF21578C36___EAID_D81FE5CB_47FD_4424_B73C_20CFBA2541FA</title>
<path fill="none" stroke="black" d="M1670.71,-326.227C1699.03,-360.635 1744.65,-416.049 1775.45,-453.463"/>
<polygon fill="black" stroke="black" points="1773.11,-456.13 1782.17,-461.626 1778.52,-451.681 1773.11,-456.13"/>
</g>
<!-- EAID_E8AA9620_FE8C_4d89_8EC3_6C29820ED6DB___EAID_7226900B_62A2_412e_8194_ABBF21578C36&#45;&gt;EAID_D2A5D2D3_54BB_4fb8_AA8D_054280797500 -->
<g id="edge13" class="edge"><title>EAID_E8AA9620_FE8C_4d89_8EC3_6C29820ED6DB___EAID_7226900B_62A2_412e_8194_ABBF21578C36&#45;&gt;EAID_D2A5D2D3_54BB_4fb8_AA8D_054280797500</title>
<path fill="none" stroke="black" stroke-dasharray="5,2" d="M1734.73,-261.924C1745.84,-258.858 1757.11,-256.107 1768,-254 1791.19,-249.511 1852.83,-256.487 1874,-246 1895.22,-235.488 1914.26,-219.189 1930.47,-201.659"/>
<polygon fill="black" stroke="black" points="1933.18,-203.872 1937.23,-194.083 1927.96,-199.209 1933.18,-203.872"/>
</g>
<!-- EAID_C549145D_DF58_4fcb_A745_A2E9B7F3C588___EAID_7226900B_62A2_412e_8194_ABBF21578C36_STL -->
<g id="node7" class="node"><title>EAID_C549145D_DF58_4fcb_A745_A2E9B7F3C588___EAID_7226900B_62A2_412e_8194_ABBF21578C36_STL</title>
<image xlink:href="img/stimulus_icon.png" width="30px" height="20px" preserveAspectRatio="xMinYMin meet" x="1752" y="-731"/>
<text text-anchor="start" x="1665" y="-696.8" font-family="Times New Roman,serif" font-weight="bold" font-size="14.00">stl#User:Maintain social network</text>
<text text-anchor="start" x="1752" y="-682.8" font-family="Times New Roman,serif" font-weight="bold" font-size="14.00">page</text>
</g>
<!-- EAID_C549145D_DF58_4fcb_A745_A2E9B7F3C588___EAID_7226900B_62A2_412e_8194_ABBF21578C36_STL&#45;&gt;EAID_C549145D_DF58_4fcb_A745_A2E9B7F3C588___EAID_7226900B_62A2_412e_8194_ABBF21578C36 -->
<g id="edge2" class="edge"><title>EAID_C549145D_DF58_4fcb_A745_A2E9B7F3C588___EAID_7226900B_62A2_412e_8194_ABBF21578C36_STL&#45;&gt;EAID_C549145D_DF58_4fcb_A745_A2E9B7F3C588___EAID_7226900B_62A2_412e_8194_ABBF21578C36</title>
<path fill="none" stroke="black" d="M1770.15,-672.765C1771.29,-661.477 1772.6,-648.549 1773.81,-636.518"/>
<polygon fill="black" stroke="black" points="1777.33,-636.541 1774.85,-626.24 1770.36,-635.838 1777.33,-636.541"/>
</g>
<!-- EAID_C549145D_DF58_4fcb_A745_A2E9B7F3C588___EAID_3439F9D6_214E_46c7_82BF_CD2A3999E5A0_STL -->
<g id="node8" class="node"><title>EAID_C549145D_DF58_4fcb_A745_A2E9B7F3C588___EAID_3439F9D6_214E_46c7_82BF_CD2A3999E5A0_STL</title>
<image xlink:href="img/stimulus_icon.png" width="30px" height="20px" preserveAspectRatio="xMinYMin meet" x="1952" y="-724"/>
<text text-anchor="start" x="1907" y="-689.8" font-family="Times New Roman,serif" font-weight="bold" font-size="14.00">stl#User:Homepage</text>
</g>
<!-- EAID_C549145D_DF58_4fcb_A745_A2E9B7F3C588___EAID_3439F9D6_214E_46c7_82BF_CD2A3999E5A0_STL&#45;&gt;EAID_C549145D_DF58_4fcb_A745_A2E9B7F3C588___EAID_3439F9D6_214E_46c7_82BF_CD2A3999E5A0 -->
<g id="edge3" class="edge"><title>EAID_C549145D_DF58_4fcb_A745_A2E9B7F3C588___EAID_3439F9D6_214E_46c7_82BF_CD2A3999E5A0_STL&#45;&gt;EAID_C549145D_DF58_4fcb_A745_A2E9B7F3C588___EAID_3439F9D6_214E_46c7_82BF_CD2A3999E5A0</title>
<path fill="none" stroke="black" d="M1964.5,-679.266C1963.03,-664.633 1961.13,-645.87 1959.51,-629.765"/>
<polygon fill="black" stroke="black" points="1962.97,-629.234 1958.49,-619.636 1956.01,-629.937 1962.97,-629.234"/>
</g>
<!-- EAID_DC4366CA_A307_4230_86FE_A9B27A20E5A8 -->
<g id="node10" class="node"><title>EAID_DC4366CA_A307_4230_86FE_A9B27A20E5A8</title>
<polygon fill="none" stroke="black" points="3009,-146.5 3009,-167.5 3403,-167.5 3403,-146.5 3009,-146.5"/>
<text text-anchor="start" x="3174" y="-154.3" font-family="Times New Roman,serif" font-weight="bold" font-size="14.00">Event LIst</text>
<polygon fill="none" stroke="black" points="3009,-125.5 3009,-146.5 3403,-146.5 3403,-125.5 3009,-125.5"/>
<text text-anchor="start" x="3132.5" y="-133.3" font-family="Times New Roman,serif" font-weight="bold" font-size="14.00">EAJava_void Hyperlink</text>
<polygon fill="none" stroke="black" points="3009,-104.5 3009,-125.5 3403,-125.5 3403,-104.5 3009,-104.5"/>
<text text-anchor="start" x="3144" y="-112.3" font-family="Times New Roman,serif" font-weight="bold" font-size="14.00">EAJava_void String</text>
<polygon fill="none" stroke="black" points="3009,-83.5 3009,-104.5 3403,-104.5 3403,-83.5 3009,-83.5"/>
<text text-anchor="start" x="3012" y="-91.3" font-family="Times New Roman,serif" font-weight="bold" font-size="14.00">EAID_55249C51_8176_4809_A8D0_33641B1F9301 undefined</text>
<polygon fill="none" stroke="black" points="3009,-62.5 3009,-83.5 3403,-83.5 3403,-62.5 3009,-62.5"/>
<text text-anchor="start" x="3171" y="-70.3" font-family="Times New Roman,serif" font-weight="bold" font-size="14.00">EventLIst()</text>
<polygon fill="none" stroke="black" points="3008,-62 3008,-169 3404,-169 3404,-62 3008,-62"/>
</g>
<!-- EAID_7A3494C3_720A_454b_95CE_252053DF6EB6 -->
<g id="node11" class="node"><title>EAID_7A3494C3_720A_454b_95CE_252053DF6EB6</title>
<polygon fill="none" stroke="black" points="2562,-136.5 2562,-157.5 2973,-157.5 2973,-136.5 2562,-136.5"/>
<text text-anchor="start" x="2727" y="-144.3" font-family="Times New Roman,serif" font-weight="bold" font-size="14.00">Event Profile</text>
<polygon fill="none" stroke="black" points="2562,-115.5 2562,-136.5 2973,-136.5 2973,-115.5 2562,-115.5"/>
<text text-anchor="start" x="2710" y="-123.3" font-family="Times New Roman,serif" font-weight="bold" font-size="14.00">EAJava_void PDF</text>
<polygon fill="none" stroke="black" points="2562,-94.5 2562,-115.5 2973,-115.5 2973,-94.5 2562,-94.5"/>
<text text-anchor="start" x="2565" y="-102.3" font-family="Times New Roman,serif" font-weight="bold" font-size="14.00">EAID_DC4366CA_A307_4230_86FE_A9B27A20E5A8 undefined</text>
<polygon fill="none" stroke="black" points="2562,-73.5 2562,-94.5 2973,-94.5 2973,-73.5 2562,-73.5"/>
<text text-anchor="start" x="2724.5" y="-81.3" font-family="Times New Roman,serif" font-weight="bold" font-size="14.00">EventProfile()</text>
<polygon fill="none" stroke="black" points="2560.5,-72.5 2560.5,-158.5 2973.5,-158.5 2973.5,-72.5 2560.5,-72.5"/>
</g>
<!-- EAID_C0DBA96F_0C4E_487e_A638_9727DADDEC58 -->
<g id="node12" class="node"><title>EAID_C0DBA96F_0C4E_487e_A638_9727DADDEC58</title>
<polygon fill="none" stroke="black" points="2123,-146.5 2123,-167.5 2526,-167.5 2526,-146.5 2123,-146.5"/>
<text text-anchor="start" x="2280.5" y="-154.3" font-family="Times New Roman,serif" font-weight="bold" font-size="14.00">Image Gallery</text>
<polygon fill="none" stroke="black" points="2123,-125.5 2123,-146.5 2526,-146.5 2526,-125.5 2123,-125.5"/>
<text text-anchor="start" x="2232.5" y="-133.3" font-family="Times New Roman,serif" font-weight="bold" font-size="14.00">EAJava_void BMP JPG PNG</text>
<polygon fill="none" stroke="black" points="2123,-104.5 2123,-125.5 2526,-125.5 2526,-104.5 2123,-104.5"/>
<text text-anchor="start" x="2126" y="-112.3" font-family="Times New Roman,serif" font-weight="bold" font-size="14.00">EAID_D2A5D2D3_54BB_4fb8_AA8D_054280797500 undefined</text>
<polygon fill="none" stroke="black" points="2123,-83.5 2123,-104.5 2526,-104.5 2526,-83.5 2123,-83.5"/>
<text text-anchor="start" x="2130.5" y="-91.3" font-family="Times New Roman,serif" font-weight="bold" font-size="14.00">EAID_55249C51_8176_4809_A8D0_33641B1F9301 undefined</text>
<polygon fill="none" stroke="black" points="2123,-62.5 2123,-83.5 2526,-83.5 2526,-62.5 2123,-62.5"/>
<text text-anchor="start" x="2277.5" y="-70.3" font-family="Times New Roman,serif" font-weight="bold" font-size="14.00">ImageGallery()</text>
<polygon fill="none" stroke="black" points="2121.5,-62 2121.5,-169 2526.5,-169 2526.5,-62 2121.5,-62"/>
</g>
<!-- EAID_F2442EDC_2B50_447d_B2CB_A592CFDF2245 -->
<g id="node14" class="node"><title>EAID_F2442EDC_2B50_447d_B2CB_A592CFDF2245</title>
<polygon fill="none" stroke="black" points="1453,-178.5 1453,-199.5 1856,-199.5 1856,-178.5 1453,-178.5"/>
<text text-anchor="start" x="1601.5" y="-186.3" font-family="Times New Roman,serif" font-weight="bold" font-size="14.00">Job Opening List</text>
<polygon fill="none" stroke="black" points="1453,-157.5 1453,-178.5 1856,-178.5 1856,-157.5 1453,-157.5"/>
<text text-anchor="start" x="1581" y="-165.3" font-family="Times New Roman,serif" font-weight="bold" font-size="14.00">EAJava_void Hyperlink</text>
<polygon fill="none" stroke="black" points="1453,-136.5 1453,-157.5 1856,-157.5 1856,-136.5 1453,-136.5"/>
<text text-anchor="start" x="1592.5" y="-144.3" font-family="Times New Roman,serif" font-weight="bold" font-size="14.00">EAJava_void String</text>
<polygon fill="none" stroke="black" points="1453,-115.5 1453,-136.5 1856,-136.5 1856,-115.5 1453,-115.5"/>
<text text-anchor="start" x="1460.5" y="-123.3" font-family="Times New Roman,serif" font-weight="bold" font-size="14.00">EAID_55249C51_8176_4809_A8D0_33641B1F9301 undefined</text>
<polygon fill="none" stroke="black" points="1453,-94.5 1453,-115.5 1856,-115.5 1856,-94.5 1453,-94.5"/>
<text text-anchor="start" x="1456" y="-102.3" font-family="Times New Roman,serif" font-weight="bold" font-size="14.00">EAID_46E22B70_ABA4_415a_A547_470E2B60375D undefined</text>
<polygon fill="none" stroke="black" points="1453,-73.5 1453,-94.5 1856,-94.5 1856,-73.5 1453,-73.5"/>
<text text-anchor="start" x="1601" y="-81.3" font-family="Times New Roman,serif" font-weight="bold" font-size="14.00">JobOpeningList()</text>
<polygon fill="none" stroke="black" points="1453,-52.5 1453,-73.5 1856,-73.5 1856,-52.5 1453,-52.5"/>
<text text-anchor="start" x="1601" y="-60.3" font-family="Times New Roman,serif" font-weight="bold" font-size="14.00">Viewjoblistpage()</text>
<polygon fill="none" stroke="black" points="1453,-31.5 1453,-52.5 1856,-52.5 1856,-31.5 1453,-31.5"/>
<text text-anchor="start" x="1610" y="-39.3" font-family="Times New Roman,serif" font-weight="bold" font-size="14.00">selectajoblist()</text>
<polygon fill="none" stroke="black" points="1451.5,-30.5 1451.5,-200.5 1856.5,-200.5 1856.5,-30.5 1451.5,-30.5"/>
</g>
<!-- EAID_46E22B70_ABA4_415a_A547_470E2B60375D -->
<g id="node15" class="node"><title>EAID_46E22B70_ABA4_415a_A547_470E2B60375D</title>
<polygon fill="none" stroke="black" points="1014,-136.5 1014,-157.5 1417,-157.5 1417,-136.5 1014,-136.5"/>
<text text-anchor="start" x="1181.5" y="-144.3" font-family="Times New Roman,serif" font-weight="bold" font-size="14.00">Job Profile</text>
<polygon fill="none" stroke="black" points="1014,-115.5 1014,-136.5 1417,-136.5 1417,-115.5 1014,-115.5"/>
<text text-anchor="start" x="1158" y="-123.3" font-family="Times New Roman,serif" font-weight="bold" font-size="14.00">EAJava_void PDF</text>
<polygon fill="none" stroke="black" points="1014,-94.5 1014,-115.5 1417,-115.5 1417,-94.5 1014,-94.5"/>
<text text-anchor="start" x="1017" y="-102.3" font-family="Times New Roman,serif" font-weight="bold" font-size="14.00">EAID_F36D014D_3944_46ba_AF40_81E9DA847A29 undefined</text>
<polygon fill="none" stroke="black" points="1014,-73.5 1014,-94.5 1417,-94.5 1417,-73.5 1014,-73.5"/>
<text text-anchor="start" x="1179" y="-81.3" font-family="Times New Roman,serif" font-weight="bold" font-size="14.00">JobProfile()</text>
<polygon fill="none" stroke="black" points="1012.5,-72.5 1012.5,-158.5 1417.5,-158.5 1417.5,-72.5 1012.5,-72.5"/>
</g>
<!-- EAID_FF1A0C3C_A533_485e_B628_04A1DE5B8AA8 -->
<g id="node17" class="node"><title>EAID_FF1A0C3C_A533_485e_B628_04A1DE5B8AA8</title>
<polygon fill="none" stroke="black" points="355,-157.5 355,-178.5 767,-178.5 767,-157.5 355,-157.5"/>
<text text-anchor="start" x="536" y="-165.3" font-family="Times New Roman,serif" font-weight="bold" font-size="14.00">Wishlist</text>
<polygon fill="none" stroke="black" points="355,-136.5 355,-157.5 767,-157.5 767,-136.5 355,-136.5"/>
<text text-anchor="start" x="487.5" y="-144.3" font-family="Times New Roman,serif" font-weight="bold" font-size="14.00">EAJava_void Hyperlink</text>
<polygon fill="none" stroke="black" points="355,-115.5 355,-136.5 767,-136.5 767,-115.5 355,-115.5"/>
<text text-anchor="start" x="502" y="-123.3" font-family="Times New Roman,serif" font-weight="bold" font-size="14.00">EAJava_void Sting</text>
<polygon fill="none" stroke="black" points="355,-94.5 355,-115.5 767,-115.5 767,-94.5 355,-94.5"/>
<text text-anchor="start" x="367" y="-102.3" font-family="Times New Roman,serif" font-weight="bold" font-size="14.00">EAID_55249C51_8176_4809_A8D0_33641B1F9301 undefined</text>
<polygon fill="none" stroke="black" points="355,-73.5 355,-94.5 767,-94.5 767,-73.5 355,-73.5"/>
<text text-anchor="start" x="358" y="-81.3" font-family="Times New Roman,serif" font-weight="bold" font-size="14.00">EAID_D6B0D9D2_1862_49a5_BE85_5EE6A22B9AD8 undefined</text>
<polygon fill="none" stroke="black" points="355,-52.5 355,-73.5 767,-73.5 767,-52.5 355,-52.5"/>
<text text-anchor="start" x="531.5" y="-60.3" font-family="Times New Roman,serif" font-weight="bold" font-size="14.00">Wishlist()</text>
<polygon fill="none" stroke="black" points="354,-51.5 354,-179.5 768,-179.5 768,-51.5 354,-51.5"/>
</g>
<!-- EAID_D6B0D9D2_1862_49a5_BE85_5EE6A22B9AD8 -->
<g id="node18" class="node"><title>EAID_D6B0D9D2_1862_49a5_BE85_5EE6A22B9AD8</title>
<polygon fill="none" stroke="black" points="198,-125.5 198,-146.5 319,-146.5 319,-125.5 198,-125.5"/>
<text text-anchor="start" x="217.5" y="-133.3" font-family="Times New Roman,serif" font-weight="bold" font-size="14.00">Wishlist Item</text>
<polygon fill="none" stroke="black" points="198,-104.5 198,-125.5 319,-125.5 319,-104.5 198,-104.5"/>
<text text-anchor="start" x="201" y="-112.3" font-family="Times New Roman,serif" font-weight="bold" font-size="14.00">EAJava_void PDF</text>
<polygon fill="none" stroke="black" points="198,-83.5 198,-104.5 319,-104.5 319,-83.5 198,-83.5"/>
<text text-anchor="start" x="215" y="-91.3" font-family="Times New Roman,serif" font-weight="bold" font-size="14.00">WishlistItem()</text>
<polygon fill="none" stroke="black" points="196.5,-83 196.5,-148 319.5,-148 319.5,-83 196.5,-83"/>
</g>
<!-- EAID_4B32D1E8_A216_4fa5_AE4A_7578CC49944E -->
<g id="node19" class="node"><title>EAID_4B32D1E8_A216_4fa5_AE4A_7578CC49944E</title>
<polygon fill="none" stroke="black" points="117,-115.5 117,-136.5 161,-136.5 161,-115.5 117,-115.5"/>
<text text-anchor="start" x="124.5" y="-123.3" font-family="Times New Roman,serif" font-weight="bold" font-size="14.00">User</text>
<polygon fill="none" stroke="black" points="117,-94.5 117,-115.5 161,-115.5 161,-94.5 117,-94.5"/>
<text text-anchor="start" x="120" y="-102.3" font-family="Times New Roman,serif" font-weight="bold" font-size="14.00">User()</text>
<polygon fill="none" stroke="black" points="116,-93.5 116,-137.5 162,-137.5 162,-93.5 116,-93.5"/>
</g>
<!-- EAID_C7F0F7CC_027C_44dc_BA58_5A25912A9FE3 -->
<g id="node20" class="node"><title>EAID_C7F0F7CC_027C_44dc_BA58_5A25912A9FE3</title>
<polygon fill="none" stroke="black" points="26,-104.5 26,-125.5 81,-125.5 81,-104.5 26,-104.5"/>
<text text-anchor="start" x="29" y="-112.3" font-family="Times New Roman,serif" font-weight="bold" font-size="14.00">Object1</text>
<polygon fill="none" stroke="black" points="24.5,-104 24.5,-127 81.5,-127 81.5,-104 24.5,-104"/>
</g>
</g>
</svg>
