<?xml version="1.0" encoding="UTF-8" standalone="no"?>
<!DOCTYPE svg PUBLIC "-//W3C//DTD SVG 1.1//EN"
 "http://www.w3.org/Graphics/SVG/1.1/DTD/svg11.dtd">
<!-- Generated by graphviz version 2.38.0 (20140413.2041)
 -->
<!-- Title: g Pages: 1 -->
<svg width="2519pt" height="1040pt"
 viewBox="0.00 0.00 2519.00 1040.00" xmlns="http://www.w3.org/2000/svg" xmlns:xlink="http://www.w3.org/1999/xlink">
<g id="graph0" class="graph" transform="scale(1 1) rotate(0) translate(4 1036)">
<title>g</title>
<polygon fill="white" stroke="none" points="-4,4 -4,-1036 2515,-1036 2515,4 -4,4"/>
<g id="clust1" class="cluster"><title>cluster0</title>
<polygon fill="none" stroke="black" stroke-width="2" points="617,-254 617,-913 1247,-913 1247,-254 617,-254"/>
<text text-anchor="start" x="910" y="-898.8" font-family="Times New Roman,serif" font-weight="bold" font-size="14.00">System</text>
</g>
<g id="clust2" class="cluster"><title>cluster1</title>
<polygon fill="none" stroke="black" stroke-width="2" points="563,-921 563,-1024 1432,-1024 1432,-921 563,-921"/>
<text text-anchor="start" x="976.5" y="-1009.8" font-family="Times New Roman,serif" font-weight="bold" font-size="14.00">Visitor</text>
</g>
<g id="clust3" class="cluster"><title>cluster1000</title>
<polygon fill="none" stroke="black" stroke-width="2" points="340,-8 340,-246 2503,-246 2503,-8 340,-8"/>
<text text-anchor="start" x="1376" y="-231.8" font-family="Times New Roman,serif" font-weight="bold" font-size="14.00">Domain Model</text>
</g>
<!-- EAID_4172C017_2E3E_4d09_A6C5_E7EDDC7D26E9___EAID_0D0A5BD4_8ED5_4e85_80A8_9CFB97FB4AFE -->
<g id="node1" class="node"><title>EAID_4172C017_2E3E_4d09_A6C5_E7EDDC7D26E9___EAID_0D0A5BD4_8ED5_4e85_80A8_9CFB97FB4AFE</title>
<image xlink:href="img/activity_icon.png" width="30px" height="20px" preserveAspectRatio="xMinYMin meet" x="836" y="-876"/>
<text text-anchor="start" x="795" y="-841.8" font-family="Times New Roman,serif" font-weight="bold" font-size="14.00">Visitor:400 or 500</text>
<text text-anchor="start" x="818" y="-827.8" font-family="Times New Roman,serif" font-weight="bold" font-size="14.00">error page</text>
</g>
<!-- EAID_97DEE34C_DC74_474c_A17C_27BC86F06463 -->
<g id="node28" class="node"><title>EAID_97DEE34C_DC74_474c_A17C_27BC86F06463</title>
<text text-anchor="middle" x="165" y="-111.8" font-family="Times New Roman,serif" font-size="14.00">EAID_97DEE34C_DC74_474c_A17C_27BC86F06463</text>
</g>
<!-- EAID_4172C017_2E3E_4d09_A6C5_E7EDDC7D26E9___EAID_0D0A5BD4_8ED5_4e85_80A8_9CFB97FB4AFE&#45;&gt;EAID_97DEE34C_DC74_474c_A17C_27BC86F06463 -->
<g id="edge15" class="edge"><title>EAID_4172C017_2E3E_4d09_A6C5_E7EDDC7D26E9___EAID_0D0A5BD4_8ED5_4e85_80A8_9CFB97FB4AFE&#45;&gt;EAID_97DEE34C_DC74_474c_A17C_27BC86F06463</title>
<path fill="none" stroke="black" stroke-dasharray="5,2" d="M784.633,-820.613C781.735,-819.676 778.849,-818.799 776,-818 676.382,-790.043 635.388,-834.107 546,-782 474.94,-740.577 431,-719.252 431,-637 431,-637 431,-637 431,-407 431,-337.674 264.138,-195.933 194.731,-139.974"/>
<polygon fill="black" stroke="black" points="196.758,-137.113 186.768,-133.585 192.378,-142.573 196.758,-137.113"/>
</g>
<!-- EAID_62418552_4AC1_4a69_935B_9CE2580347B2___EAID_0D0A5BD4_8ED5_4e85_80A8_9CFB97FB4AFE -->
<g id="node2" class="node"><title>EAID_62418552_4AC1_4a69_935B_9CE2580347B2___EAID_0D0A5BD4_8ED5_4e85_80A8_9CFB97FB4AFE</title>
<image xlink:href="img/activity_icon.png" width="30px" height="20px" preserveAspectRatio="xMinYMin meet" x="791" y="-334"/>
<text text-anchor="start" x="757" y="-299.8" font-family="Times New Roman,serif" font-weight="bold" font-size="14.00">validate the link</text>
<text text-anchor="start" x="757.5" y="-285.8" font-family="Times New Roman,serif" font-weight="bold" font-size="14.00">of image:400 or</text>
<text text-anchor="start" x="760" y="-271.8" font-family="Times New Roman,serif" font-weight="bold" font-size="14.00">500 error page</text>
</g>
<!-- EAID_62418552_4AC1_4a69_935B_9CE2580347B2___EAID_0D0A5BD4_8ED5_4e85_80A8_9CFB97FB4AFE&#45;&gt;EAID_97DEE34C_DC74_474c_A17C_27BC86F06463 -->
<g id="edge16" class="edge"><title>EAID_62418552_4AC1_4a69_935B_9CE2580347B2___EAID_0D0A5BD4_8ED5_4e85_80A8_9CFB97FB4AFE&#45;&gt;EAID_97DEE34C_DC74_474c_A17C_27BC86F06463</title>
<path fill="none" stroke="black" stroke-dasharray="5,2" d="M752.549,-261.916C746.186,-258.731 739.601,-255.978 733,-254 690.738,-241.332 377.68,-260.47 336,-246 274.704,-224.72 217.634,-172.419 187.431,-141.181"/>
<polygon fill="black" stroke="black" points="189.771,-138.562 180.345,-133.724 184.696,-143.384 189.771,-138.562"/>
</g>
<!-- EAID_2F9A2CC1_BBB8_4214_8539_8EE5CB6E7112___EAID_14F6C64F_81E6_4e0f_A644_A95FEE3ABD8D -->
<g id="node3" class="node"><title>EAID_2F9A2CC1_BBB8_4214_8539_8EE5CB6E7112___EAID_14F6C64F_81E6_4e0f_A644_A95FEE3ABD8D</title>
<image xlink:href="img/activity_icon.png" width="30px" height="20px" preserveAspectRatio="xMinYMin meet" x="819.5" y="-669"/>
<text text-anchor="start" x="777" y="-634.8" font-family="Times New Roman,serif" font-weight="bold" font-size="14.00">REad gallery from</text>
<text text-anchor="start" x="780.5" y="-620.8" font-family="Times New Roman,serif" font-weight="bold" font-size="14.00">plugin:404 or 500</text>
<text text-anchor="start" x="801.5" y="-606.8" font-family="Times New Roman,serif" font-weight="bold" font-size="14.00">error page</text>
</g>
<!-- EAID_2F9A2CC1_BBB8_4214_8539_8EE5CB6E7112___EAID_14F6C64F_81E6_4e0f_A644_A95FEE3ABD8D&#45;&gt;EAID_97DEE34C_DC74_474c_A17C_27BC86F06463 -->
<g id="edge17" class="edge"><title>EAID_2F9A2CC1_BBB8_4214_8539_8EE5CB6E7112___EAID_14F6C64F_81E6_4e0f_A644_A95FEE3ABD8D&#45;&gt;EAID_97DEE34C_DC74_474c_A17C_27BC86F06463</title>
<path fill="none" stroke="black" stroke-dasharray="5,2" d="M821.404,-596.957C792.489,-516.537 712.936,-330.404 574,-254 550.815,-241.25 360.937,-254.846 336,-246 274.849,-224.308 217.726,-172.156 187.475,-141.055"/>
<polygon fill="black" stroke="black" points="189.818,-138.441 180.377,-133.633 184.759,-143.279 189.818,-138.441"/>
</g>
<!-- EAID_4172C017_2E3E_4d09_A6C5_E7EDDC7D26E9___EAID_14F6C64F_81E6_4e0f_A644_A95FEE3ABD8D -->
<g id="node4" class="node"><title>EAID_4172C017_2E3E_4d09_A6C5_E7EDDC7D26E9___EAID_14F6C64F_81E6_4e0f_A644_A95FEE3ABD8D</title>
<image xlink:href="img/activity_icon.png" width="30px" height="20px" preserveAspectRatio="xMinYMin meet" x="986" y="-876"/>
<text text-anchor="start" x="945" y="-841.8" font-family="Times New Roman,serif" font-weight="bold" font-size="14.00">Visitor:404 or 500</text>
<text text-anchor="start" x="968" y="-827.8" font-family="Times New Roman,serif" font-weight="bold" font-size="14.00">error page</text>
</g>
<!-- EAID_4172C017_2E3E_4d09_A6C5_E7EDDC7D26E9___EAID_14F6C64F_81E6_4e0f_A644_A95FEE3ABD8D&#45;&gt;EAID_97DEE34C_DC74_474c_A17C_27BC86F06463 -->
<g id="edge18" class="edge"><title>EAID_4172C017_2E3E_4d09_A6C5_E7EDDC7D26E9___EAID_14F6C64F_81E6_4e0f_A644_A95FEE3ABD8D&#45;&gt;EAID_97DEE34C_DC74_474c_A17C_27BC86F06463</title>
<path fill="none" stroke="black" stroke-dasharray="5,2" d="M934.653,-820.538C931.75,-819.622 928.857,-818.77 926,-818 810.809,-786.958 761.657,-844.436 660,-782 593.293,-741.03 560,-715.284 560,-637 560,-637 560,-637 560,-407 560,-301.326 473.445,-299.358 378,-254 360.837,-245.844 353.365,-253.717 336,-246 277.648,-220.068 220.748,-170.777 189.534,-141.052"/>
<polygon fill="black" stroke="black" points="191.793,-138.368 182.166,-133.943 186.932,-143.405 191.793,-138.368"/>
</g>
<!-- EAID_F1255745_68BE_41d1_AC61_C754D55BB3D2___EAID_62418552_4AC1_4a69_935B_9CE2580347B2 -->
<g id="node5" class="node"><title>EAID_F1255745_68BE_41d1_AC61_C754D55BB3D2___EAID_62418552_4AC1_4a69_935B_9CE2580347B2</title>
<image xlink:href="img/activity_icon.png" width="30px" height="20px" preserveAspectRatio="xMinYMin meet" x="1083" y="-434"/>
<text text-anchor="start" x="1024" y="-399.8" font-family="Times New Roman,serif" font-weight="bold" font-size="14.00">Gallery:validate the link</text>
<text text-anchor="start" x="1071.5" y="-385.8" font-family="Times New Roman,serif" font-weight="bold" font-size="14.00">of image</text>
</g>
<!-- EAID_F1255745_68BE_41d1_AC61_C754D55BB3D2___EAID_62418552_4AC1_4a69_935B_9CE2580347B2&#45;&gt;EAID_62418552_4AC1_4a69_935B_9CE2580347B2___EAID_0D0A5BD4_8ED5_4e85_80A8_9CFB97FB4AFE -->
<g id="edge3" class="edge"><title>EAID_F1255745_68BE_41d1_AC61_C754D55BB3D2___EAID_62418552_4AC1_4a69_935B_9CE2580347B2&#45;&gt;EAID_62418552_4AC1_4a69_935B_9CE2580347B2___EAID_0D0A5BD4_8ED5_4e85_80A8_9CFB97FB4AFE</title>
<path fill="none" stroke="black" d="M1013.76,-386.5C973.601,-375.624 925.034,-360.865 874.742,-340.076"/>
<polygon fill="black" stroke="black" points="875.908,-336.77 865.332,-336.124 873.197,-343.224 875.908,-336.77"/>
</g>
<!-- EAID_62418552_4AC1_4a69_935B_9CE2580347B2___EAID_AF81DB91_A6FD_44bf_AFE5_0328EC2CE46B -->
<g id="node8" class="node"><title>EAID_62418552_4AC1_4a69_935B_9CE2580347B2___EAID_AF81DB91_A6FD_44bf_AFE5_0328EC2CE46B</title>
<image xlink:href="img/activity_icon.png" width="30px" height="20px" preserveAspectRatio="xMinYMin meet" x="1132" y="-327"/>
<text text-anchor="start" x="1098" y="-292.8" font-family="Times New Roman,serif" font-weight="bold" font-size="14.00">validate the link</text>
<text text-anchor="start" x="1065" y="-278.8" font-family="Times New Roman,serif" font-weight="bold" font-size="14.00">of image:Gallery Database</text>
</g>
<!-- EAID_F1255745_68BE_41d1_AC61_C754D55BB3D2___EAID_62418552_4AC1_4a69_935B_9CE2580347B2&#45;&gt;EAID_62418552_4AC1_4a69_935B_9CE2580347B2___EAID_AF81DB91_A6FD_44bf_AFE5_0328EC2CE46B -->
<g id="edge4" class="edge"><title>EAID_F1255745_68BE_41d1_AC61_C754D55BB3D2___EAID_62418552_4AC1_4a69_935B_9CE2580347B2&#45;&gt;EAID_62418552_4AC1_4a69_935B_9CE2580347B2___EAID_AF81DB91_A6FD_44bf_AFE5_0328EC2CE46B</title>
<path fill="none" stroke="black" d="M1112.57,-375.781C1117.46,-365.296 1122.99,-353.449 1128.16,-342.365"/>
<polygon fill="black" stroke="black" points="1131.35,-343.822 1132.4,-333.28 1125,-340.862 1131.35,-343.822"/>
</g>
<!-- EAID_62418552_4AC1_4a69_935B_9CE2580347B2___EAID_97DEE34C_DC74_474c_A17C_27BC86F06463 -->
<g id="node13" class="node"><title>EAID_62418552_4AC1_4a69_935B_9CE2580347B2___EAID_97DEE34C_DC74_474c_A17C_27BC86F06463</title>
<image xlink:href="img/activity_icon.png" width="30px" height="20px" preserveAspectRatio="xMinYMin meet" x="945.5" y="-327"/>
<text text-anchor="start" x="911.5" y="-292.8" font-family="Times New Roman,serif" font-weight="bold" font-size="14.00">validate the link</text>
<text text-anchor="start" x="894" y="-278.8" font-family="Times New Roman,serif" font-weight="bold" font-size="14.00">of image:project page</text>
</g>
<!-- EAID_F1255745_68BE_41d1_AC61_C754D55BB3D2___EAID_62418552_4AC1_4a69_935B_9CE2580347B2&#45;&gt;EAID_62418552_4AC1_4a69_935B_9CE2580347B2___EAID_97DEE34C_DC74_474c_A17C_27BC86F06463 -->
<g id="edge5" class="edge"><title>EAID_F1255745_68BE_41d1_AC61_C754D55BB3D2___EAID_62418552_4AC1_4a69_935B_9CE2580347B2&#45;&gt;EAID_62418552_4AC1_4a69_935B_9CE2580347B2___EAID_97DEE34C_DC74_474c_A17C_27BC86F06463</title>
<path fill="none" stroke="black" d="M1056.97,-375.781C1041.95,-364.353 1024.8,-351.305 1009.14,-339.392"/>
<polygon fill="black" stroke="black" points="1011.19,-336.55 1001.11,-333.28 1006.95,-342.121 1011.19,-336.55"/>
</g>
<!-- EAID_62418552_4AC1_4a69_935B_9CE2580347B2 -->
<g id="node22" class="node"><title>EAID_62418552_4AC1_4a69_935B_9CE2580347B2</title>
<polygon fill="none" stroke="black" points="1530,-188.5 1530,-209.5 1819,-209.5 1819,-188.5 1530,-188.5"/>
<text text-anchor="start" x="1605" y="-196.3" font-family="Times New Roman,serif" font-weight="bold" font-size="14.00">validatethelinkofimage</text>
<polygon fill="none" stroke="black" points="1530,-167.5 1530,-188.5 1819,-188.5 1819,-167.5 1530,-167.5"/>
<text text-anchor="start" x="1600.5" y="-175.3" font-family="Times New Roman,serif" font-weight="bold" font-size="14.00">validatethelinkofimage()</text>
<polygon fill="none" stroke="black" points="1530,-146.5 1530,-167.5 1819,-167.5 1819,-146.5 1530,-146.5"/>
<text text-anchor="start" x="1571.5" y="-154.3" font-family="Times New Roman,serif" font-weight="bold" font-size="14.00">checkiftheuserisalreadyloggedin()</text>
<polygon fill="none" stroke="black" points="1530,-125.5 1530,-146.5 1819,-146.5 1819,-125.5 1530,-125.5"/>
<text text-anchor="start" x="1576.5" y="-133.3" font-family="Times New Roman,serif" font-weight="bold" font-size="14.00">Invlidnameandpasswordmatch()</text>
<polygon fill="none" stroke="black" points="1530,-104.5 1530,-125.5 1819,-125.5 1819,-104.5 1530,-104.5"/>
<text text-anchor="start" x="1533" y="-112.3" font-family="Times New Roman,serif" font-weight="bold" font-size="14.00">validatethelinkrequestanddisplayprojectpage()</text>
<polygon fill="none" stroke="black" points="1530,-83.5 1530,-104.5 1819,-104.5 1819,-83.5 1530,-83.5"/>
<text text-anchor="start" x="1632" y="-91.3" font-family="Times New Roman,serif" font-weight="bold" font-size="14.00">linkinthebox()</text>
<polygon fill="none" stroke="black" points="1530,-62.5 1530,-83.5 1819,-83.5 1819,-62.5 1530,-62.5"/>
<text text-anchor="start" x="1533" y="-70.3" font-family="Times New Roman,serif" font-weight="bold" font-size="14.00">displaythecorrespondingimageofthenumbnail()</text>
<polygon fill="none" stroke="black" points="1530,-41.5 1530,-62.5 1819,-62.5 1819,-41.5 1530,-41.5"/>
<text text-anchor="start" x="1606" y="-49.3" font-family="Times New Roman,serif" font-weight="bold" font-size="14.00">previousornextimage()</text>
<polygon fill="none" stroke="black" points="1530,-20.5 1530,-41.5 1819,-41.5 1819,-20.5 1530,-20.5"/>
<text text-anchor="start" x="1615.5" y="-28.3" font-family="Times New Roman,serif" font-weight="bold" font-size="14.00">imagesandtextsdb()</text>
<polygon fill="none" stroke="black" points="1528.5,-20 1528.5,-211 1819.5,-211 1819.5,-20 1528.5,-20"/>
</g>
<!-- EAID_F1255745_68BE_41d1_AC61_C754D55BB3D2___EAID_62418552_4AC1_4a69_935B_9CE2580347B2&#45;&gt;EAID_62418552_4AC1_4a69_935B_9CE2580347B2 -->
<g id="edge19" class="edge"><title>EAID_F1255745_68BE_41d1_AC61_C754D55BB3D2___EAID_62418552_4AC1_4a69_935B_9CE2580347B2&#45;&gt;EAID_62418552_4AC1_4a69_935B_9CE2580347B2</title>
<path fill="none" stroke="black" stroke-dasharray="5,2" d="M1182.03,-382.443C1267.92,-355.494 1403.57,-307.729 1511,-246 1523.98,-238.541 1537.03,-230.104 1549.78,-221.203"/>
<polygon fill="black" stroke="black" points="1551.99,-223.931 1558.12,-215.291 1547.94,-218.221 1551.99,-223.931"/>
</g>
<!-- EAID_322499B7_AE85_4d8f_836A_809A0CFB63B7___EAID_F1255745_68BE_41d1_AC61_C754D55BB3D2 -->
<g id="node6" class="node"><title>EAID_322499B7_AE85_4d8f_836A_809A0CFB63B7___EAID_F1255745_68BE_41d1_AC61_C754D55BB3D2</title>
<image xlink:href="img/activity_icon.png" width="30px" height="20px" preserveAspectRatio="xMinYMin meet" x="1034" y="-548"/>
<text text-anchor="start" x="1007.5" y="-513.8" font-family="Times New Roman,serif" font-weight="bold" font-size="14.00">display a new</text>
<text text-anchor="start" x="1003.5" y="-499.8" font-family="Times New Roman,serif" font-weight="bold" font-size="14.00">page of gallery</text>
<text text-anchor="start" x="999" y="-485.8" font-family="Times New Roman,serif" font-weight="bold" font-size="14.00">artwork:Gallery</text>
</g>
<!-- EAID_322499B7_AE85_4d8f_836A_809A0CFB63B7___EAID_F1255745_68BE_41d1_AC61_C754D55BB3D2&#45;&gt;EAID_F1255745_68BE_41d1_AC61_C754D55BB3D2___EAID_62418552_4AC1_4a69_935B_9CE2580347B2 -->
<g id="edge6" class="edge"><title>EAID_322499B7_AE85_4d8f_836A_809A0CFB63B7___EAID_F1255745_68BE_41d1_AC61_C754D55BB3D2&#45;&gt;EAID_F1255745_68BE_41d1_AC61_C754D55BB3D2___EAID_62418552_4AC1_4a69_935B_9CE2580347B2</title>
<path fill="none" stroke="black" d="M1066.83,-475.796C1070.85,-467.183 1075.13,-458.015 1079.18,-449.319"/>
<polygon fill="black" stroke="black" points="1082.42,-450.659 1083.48,-440.117 1076.08,-447.699 1082.42,-450.659"/>
</g>
<!-- EAID_F1255745_68BE_41d1_AC61_C754D55BB3D2 -->
<g id="node23" class="node"><title>EAID_F1255745_68BE_41d1_AC61_C754D55BB3D2</title>
<polygon fill="none" stroke="black" points="1269,-146.5 1269,-167.5 1493,-167.5 1493,-146.5 1269,-146.5"/>
<text text-anchor="start" x="1358" y="-154.3" font-family="Times New Roman,serif" font-weight="bold" font-size="14.00">Gallery</text>
<polygon fill="none" stroke="black" points="1269,-125.5 1269,-146.5 1493,-146.5 1493,-125.5 1269,-125.5"/>
<text text-anchor="start" x="1353.5" y="-133.3" font-family="Times New Roman,serif" font-weight="bold" font-size="14.00">Gallery()</text>
<polygon fill="none" stroke="black" points="1269,-104.5 1269,-125.5 1493,-125.5 1493,-104.5 1269,-104.5"/>
<text text-anchor="start" x="1272" y="-112.3" font-family="Times New Roman,serif" font-weight="bold" font-size="14.00">displayanewpageofgalleryartwork()</text>
<polygon fill="none" stroke="black" points="1269,-83.5 1269,-104.5 1493,-104.5 1493,-83.5 1269,-83.5"/>
<text text-anchor="start" x="1289" y="-91.3" font-family="Times New Roman,serif" font-weight="bold" font-size="14.00">failinaddingpicturestogallery()</text>
<polygon fill="none" stroke="black" points="1269,-62.5 1269,-83.5 1493,-83.5 1493,-62.5 1269,-62.5"/>
<text text-anchor="start" x="1310" y="-70.3" font-family="Times New Roman,serif" font-weight="bold" font-size="14.00">readgaleryfromplugin()</text>
<polygon fill="none" stroke="black" points="1268,-62 1268,-169 1494,-169 1494,-62 1268,-62"/>
</g>
<!-- EAID_322499B7_AE85_4d8f_836A_809A0CFB63B7___EAID_F1255745_68BE_41d1_AC61_C754D55BB3D2&#45;&gt;EAID_F1255745_68BE_41d1_AC61_C754D55BB3D2 -->
<g id="edge20" class="edge"><title>EAID_322499B7_AE85_4d8f_836A_809A0CFB63B7___EAID_F1255745_68BE_41d1_AC61_C754D55BB3D2&#45;&gt;EAID_F1255745_68BE_41d1_AC61_C754D55BB3D2</title>
<path fill="none" stroke="black" stroke-dasharray="5,2" d="M1109.26,-481.12C1112.55,-479.378 1115.81,-477.662 1119,-476 1150.73,-459.463 1164.86,-464.431 1191,-440 1269.44,-366.678 1325.64,-253.644 1355.72,-182.446"/>
<polygon fill="black" stroke="black" points="1358.99,-183.693 1359.62,-173.116 1352.53,-180.997 1358.99,-183.693"/>
</g>
<!-- EAID_4172C017_2E3E_4d09_A6C5_E7EDDC7D26E9___EAID_F1255745_68BE_41d1_AC61_C754D55BB3D2 -->
<g id="node7" class="node"><title>EAID_4172C017_2E3E_4d09_A6C5_E7EDDC7D26E9___EAID_F1255745_68BE_41d1_AC61_C754D55BB3D2</title>
<image xlink:href="img/activity_icon.png" width="30px" height="20px" preserveAspectRatio="xMinYMin meet" x="1168.5" y="-534"/>
<text text-anchor="start" x="1138" y="-499.8" font-family="Times New Roman,serif" font-weight="bold" font-size="14.00">Visitor:Gallery</text>
</g>
<!-- EAID_4172C017_2E3E_4d09_A6C5_E7EDDC7D26E9___EAID_F1255745_68BE_41d1_AC61_C754D55BB3D2&#45;&gt;EAID_F1255745_68BE_41d1_AC61_C754D55BB3D2___EAID_62418552_4AC1_4a69_935B_9CE2580347B2 -->
<g id="edge7" class="edge"><title>EAID_4172C017_2E3E_4d09_A6C5_E7EDDC7D26E9___EAID_F1255745_68BE_41d1_AC61_C754D55BB3D2&#45;&gt;EAID_F1255745_68BE_41d1_AC61_C754D55BB3D2___EAID_62418552_4AC1_4a69_935B_9CE2580347B2</title>
<path fill="none" stroke="black" d="M1163.07,-489.382C1153.14,-477.12 1140.9,-461.999 1129.73,-448.192"/>
<polygon fill="black" stroke="black" points="1132.31,-445.817 1123.3,-440.247 1126.87,-450.222 1132.31,-445.817"/>
</g>
<!-- EAID_4172C017_2E3E_4d09_A6C5_E7EDDC7D26E9___EAID_F1255745_68BE_41d1_AC61_C754D55BB3D2&#45;&gt;EAID_F1255745_68BE_41d1_AC61_C754D55BB3D2 -->
<g id="edge21" class="edge"><title>EAID_4172C017_2E3E_4d09_A6C5_E7EDDC7D26E9___EAID_F1255745_68BE_41d1_AC61_C754D55BB3D2&#45;&gt;EAID_F1255745_68BE_41d1_AC61_C754D55BB3D2</title>
<path fill="none" stroke="black" stroke-dasharray="5,2" d="M1227.12,-489.317C1246.08,-476.745 1267.04,-459.894 1281,-440 1335.88,-361.804 1361.38,-252.525 1372.69,-183.137"/>
<polygon fill="black" stroke="black" points="1376.15,-183.62 1374.25,-173.197 1369.24,-182.53 1376.15,-183.62"/>
</g>
<!-- EAID_62418552_4AC1_4a69_935B_9CE2580347B2___EAID_AF81DB91_A6FD_44bf_AFE5_0328EC2CE46B&#45;&gt;EAID_F1255745_68BE_41d1_AC61_C754D55BB3D2 -->
<g id="edge22" class="edge"><title>EAID_62418552_4AC1_4a69_935B_9CE2580347B2___EAID_AF81DB91_A6FD_44bf_AFE5_0328EC2CE46B&#45;&gt;EAID_F1255745_68BE_41d1_AC61_C754D55BB3D2</title>
<path fill="none" stroke="black" stroke-dasharray="5,2" d="M1214.27,-268.914C1226.89,-262.025 1239.67,-254.284 1251,-246 1276.99,-226.999 1302.73,-202.815 1324.35,-180.503"/>
<polygon fill="black" stroke="black" points="1327.13,-182.66 1331.52,-173.018 1322.08,-177.818 1327.13,-182.66"/>
</g>
<!-- EAID_968D8E7D_CFD8_4a54_B646_BBC93CF15B32___EAID_2F9A2CC1_BBB8_4214_8539_8EE5CB6E7112 -->
<g id="node9" class="node"><title>EAID_968D8E7D_CFD8_4a54_B646_BBC93CF15B32___EAID_2F9A2CC1_BBB8_4214_8539_8EE5CB6E7112</title>
<image xlink:href="img/activity_icon.png" width="30px" height="20px" preserveAspectRatio="xMinYMin meet" x="926" y="-776"/>
<text text-anchor="start" x="854" y="-741.8" font-family="Times New Roman,serif" font-weight="bold" font-size="14.00">Gallery button:REad gallery</text>
<text text-anchor="start" x="905.5" y="-727.8" font-family="Times New Roman,serif" font-weight="bold" font-size="14.00">from plugin</text>
</g>
<!-- EAID_968D8E7D_CFD8_4a54_B646_BBC93CF15B32___EAID_2F9A2CC1_BBB8_4214_8539_8EE5CB6E7112&#45;&gt;EAID_2F9A2CC1_BBB8_4214_8539_8EE5CB6E7112___EAID_14F6C64F_81E6_4e0f_A644_A95FEE3ABD8D -->
<g id="edge9" class="edge"><title>EAID_968D8E7D_CFD8_4a54_B646_BBC93CF15B32___EAID_2F9A2CC1_BBB8_4214_8539_8EE5CB6E7112&#45;&gt;EAID_2F9A2CC1_BBB8_4214_8539_8EE5CB6E7112___EAID_14F6C64F_81E6_4e0f_A644_A95FEE3ABD8D</title>
<path fill="none" stroke="black" d="M911.195,-717.802C900.748,-706.867 888.791,-694.351 877.458,-682.488"/>
<polygon fill="black" stroke="black" points="879.939,-680.019 870.501,-675.206 874.878,-684.855 879.939,-680.019"/>
</g>
<!-- EAID_2F9A2CC1_BBB8_4214_8539_8EE5CB6E7112___EAID_322499B7_AE85_4d8f_836A_809A0CFB63B7 -->
<g id="node11" class="node"><title>EAID_2F9A2CC1_BBB8_4214_8539_8EE5CB6E7112___EAID_322499B7_AE85_4d8f_836A_809A0CFB63B7</title>
<image xlink:href="img/activity_icon.png" width="30px" height="20px" preserveAspectRatio="xMinYMin meet" x="1034" y="-676"/>
<text text-anchor="start" x="991.5" y="-641.8" font-family="Times New Roman,serif" font-weight="bold" font-size="14.00">REad gallery from</text>
<text text-anchor="start" x="987" y="-627.8" font-family="Times New Roman,serif" font-weight="bold" font-size="14.00">plugin:display a new</text>
<text text-anchor="start" x="1003.5" y="-613.8" font-family="Times New Roman,serif" font-weight="bold" font-size="14.00">page of gallery</text>
<text text-anchor="start" x="1023.5" y="-599.8" font-family="Times New Roman,serif" font-weight="bold" font-size="14.00">artwork</text>
</g>
<!-- EAID_968D8E7D_CFD8_4a54_B646_BBC93CF15B32___EAID_2F9A2CC1_BBB8_4214_8539_8EE5CB6E7112&#45;&gt;EAID_2F9A2CC1_BBB8_4214_8539_8EE5CB6E7112___EAID_322499B7_AE85_4d8f_836A_809A0CFB63B7 -->
<g id="edge10" class="edge"><title>EAID_968D8E7D_CFD8_4a54_B646_BBC93CF15B32___EAID_2F9A2CC1_BBB8_4214_8539_8EE5CB6E7112&#45;&gt;EAID_2F9A2CC1_BBB8_4214_8539_8EE5CB6E7112___EAID_322499B7_AE85_4d8f_836A_809A0CFB63B7</title>
<path fill="none" stroke="black" d="M971.084,-717.802C979.539,-709.033 988.975,-699.248 998.28,-689.598"/>
<polygon fill="black" stroke="black" points="1000.93,-691.893 1005.35,-682.265 995.891,-687.034 1000.93,-691.893"/>
</g>
<!-- EAID_968D8E7D_CFD8_4a54_B646_BBC93CF15B32___EAID_2F9A2CC1_BBB8_4214_8539_8EE5CB6E7112&#45;&gt;EAID_F1255745_68BE_41d1_AC61_C754D55BB3D2 -->
<g id="edge23" class="edge"><title>EAID_968D8E7D_CFD8_4a54_B646_BBC93CF15B32___EAID_2F9A2CC1_BBB8_4214_8539_8EE5CB6E7112&#45;&gt;EAID_F1255745_68BE_41d1_AC61_C754D55BB3D2</title>
<path fill="none" stroke="black" stroke-dasharray="5,2" d="M843.8,-729.295C813.186,-719.246 781.108,-704.25 757,-682 697.371,-626.968 681,-597.142 681,-516 681,-516 681,-516 681,-407 681,-334.434 678.725,-295.861 738,-254 761.283,-237.557 1224.74,-257.087 1251,-246 1283.58,-232.243 1312.35,-206.064 1334.49,-180.824"/>
<polygon fill="black" stroke="black" points="1337.31,-182.913 1341.14,-173.036 1331.99,-178.366 1337.31,-182.913"/>
</g>
<!-- EAID_4172C017_2E3E_4d09_A6C5_E7EDDC7D26E9___EAID_968D8E7D_CFD8_4a54_B646_BBC93CF15B32 -->
<g id="node10" class="node"><title>EAID_4172C017_2E3E_4d09_A6C5_E7EDDC7D26E9___EAID_968D8E7D_CFD8_4a54_B646_BBC93CF15B32</title>
<image xlink:href="img/activity_icon.png" width="30px" height="20px" preserveAspectRatio="xMinYMin meet" x="1147" y="-869"/>
<text text-anchor="start" x="1095" y="-834.8" font-family="Times New Roman,serif" font-weight="bold" font-size="14.00">Visitor:Gallery button</text>
</g>
<!-- EAID_4172C017_2E3E_4d09_A6C5_E7EDDC7D26E9___EAID_968D8E7D_CFD8_4a54_B646_BBC93CF15B32&#45;&gt;EAID_968D8E7D_CFD8_4a54_B646_BBC93CF15B32___EAID_2F9A2CC1_BBB8_4214_8539_8EE5CB6E7112 -->
<g id="edge11" class="edge"><title>EAID_4172C017_2E3E_4d09_A6C5_E7EDDC7D26E9___EAID_968D8E7D_CFD8_4a54_B646_BBC93CF15B32&#45;&gt;EAID_968D8E7D_CFD8_4a54_B646_BBC93CF15B32___EAID_2F9A2CC1_BBB8_4214_8539_8EE5CB6E7112</title>
<path fill="none" stroke="black" d="M1106.52,-824.397C1080.44,-812.835 1048.88,-798.839 1020.34,-786.182"/>
<polygon fill="black" stroke="black" points="1021.75,-782.979 1011.19,-782.125 1018.91,-789.378 1021.75,-782.979"/>
</g>
<!-- EAID_4172C017_2E3E_4d09_A6C5_E7EDDC7D26E9___EAID_968D8E7D_CFD8_4a54_B646_BBC93CF15B32&#45;&gt;EAID_F1255745_68BE_41d1_AC61_C754D55BB3D2 -->
<g id="edge24" class="edge"><title>EAID_4172C017_2E3E_4d09_A6C5_E7EDDC7D26E9___EAID_968D8E7D_CFD8_4a54_B646_BBC93CF15B32&#45;&gt;EAID_F1255745_68BE_41d1_AC61_C754D55BB3D2</title>
<path fill="none" stroke="black" stroke-dasharray="5,2" d="M1098.09,-824.4C1090.71,-822.024 1083.23,-819.825 1076,-818 873.755,-766.978 643,-845.581 643,-637 643,-637 643,-637 643,-407 643,-337.04 625.328,-297.65 680,-254 692.396,-244.103 1236.38,-252.159 1251,-246 1283.59,-232.269 1312.36,-206.094 1334.5,-180.849"/>
<polygon fill="black" stroke="black" points="1337.32,-182.937 1341.15,-173.06 1332,-178.39 1337.32,-182.937"/>
</g>
<!-- EAID_2F9A2CC1_BBB8_4214_8539_8EE5CB6E7112___EAID_322499B7_AE85_4d8f_836A_809A0CFB63B7&#45;&gt;EAID_322499B7_AE85_4d8f_836A_809A0CFB63B7___EAID_F1255745_68BE_41d1_AC61_C754D55BB3D2 -->
<g id="edge13" class="edge"><title>EAID_2F9A2CC1_BBB8_4214_8539_8EE5CB6E7112___EAID_322499B7_AE85_4d8f_836A_809A0CFB63B7&#45;&gt;EAID_322499B7_AE85_4d8f_836A_809A0CFB63B7___EAID_F1255745_68BE_41d1_AC61_C754D55BB3D2</title>
<path fill="none" stroke="black" d="M1049,-589.672C1049,-581.36 1049,-572.656 1049,-564.262"/>
<polygon fill="black" stroke="black" points="1052.5,-564.224 1049,-554.224 1045.5,-564.224 1052.5,-564.224"/>
</g>
<!-- EAID_2F9A2CC1_BBB8_4214_8539_8EE5CB6E7112___EAID_322499B7_AE85_4d8f_836A_809A0CFB63B7&#45;&gt;EAID_F1255745_68BE_41d1_AC61_C754D55BB3D2 -->
<g id="edge25" class="edge"><title>EAID_2F9A2CC1_BBB8_4214_8539_8EE5CB6E7112___EAID_322499B7_AE85_4d8f_836A_809A0CFB63B7&#45;&gt;EAID_F1255745_68BE_41d1_AC61_C754D55BB3D2</title>
<path fill="none" stroke="black" stroke-dasharray="5,2" d="M1121.17,-618.334C1162.06,-605.994 1212.06,-585.71 1248,-554 1355.41,-459.242 1377.48,-280.735 1381.15,-183.598"/>
<polygon fill="black" stroke="black" points="1384.66,-183.419 1381.48,-173.312 1377.66,-183.194 1384.66,-183.419"/>
</g>
<!-- EAID_4172C017_2E3E_4d09_A6C5_E7EDDC7D26E9___EAID_97DEE34C_DC74_474c_A17C_27BC86F06463 -->
<g id="node12" class="node"><title>EAID_4172C017_2E3E_4d09_A6C5_E7EDDC7D26E9___EAID_97DEE34C_DC74_474c_A17C_27BC86F06463</title>
<image xlink:href="img/activity_icon.png" width="30px" height="20px" preserveAspectRatio="xMinYMin meet" x="681" y="-869"/>
<text text-anchor="start" x="635" y="-834.8" font-family="Times New Roman,serif" font-weight="bold" font-size="14.00">Visitor:project page</text>
</g>
<!-- EAID_4172C017_2E3E_4d09_A6C5_E7EDDC7D26E9___EAID_97DEE34C_DC74_474c_A17C_27BC86F06463&#45;&gt;EAID_97DEE34C_DC74_474c_A17C_27BC86F06463 -->
<g id="edge26" class="edge"><title>EAID_4172C017_2E3E_4d09_A6C5_E7EDDC7D26E9___EAID_97DEE34C_DC74_474c_A17C_27BC86F06463&#45;&gt;EAID_97DEE34C_DC74_474c_A17C_27BC86F06463</title>
<path fill="none" stroke="black" stroke-dasharray="5,2" d="M624.957,-849.104C490.244,-845.176 211,-815.504 211,-637 211,-637 211,-637 211,-407 211,-309.035 185.164,-194.748 172.217,-143.625"/>
<polygon fill="black" stroke="black" points="175.546,-142.516 169.664,-133.703 168.767,-144.26 175.546,-142.516"/>
</g>
<!-- EAID_62418552_4AC1_4a69_935B_9CE2580347B2___EAID_97DEE34C_DC74_474c_A17C_27BC86F06463&#45;&gt;EAID_97DEE34C_DC74_474c_A17C_27BC86F06463 -->
<g id="edge27" class="edge"><title>EAID_62418552_4AC1_4a69_935B_9CE2580347B2___EAID_97DEE34C_DC74_474c_A17C_27BC86F06463&#45;&gt;EAID_97DEE34C_DC74_474c_A17C_27BC86F06463</title>
<path fill="none" stroke="black" stroke-dasharray="5,2" d="M911.175,-268.768C899.432,-262.726 886.623,-257.264 874,-254 816.119,-239.034 392.529,-265.458 336,-246 274.648,-224.881 217.598,-172.523 187.414,-141.23"/>
<polygon fill="black" stroke="black" points="189.752,-138.61 180.332,-133.76 184.672,-143.426 189.752,-138.61"/>
</g>
<!-- EAID_4172C017_2E3E_4d09_A6C5_E7EDDC7D26E9___EAID_0D0A5BD4_8ED5_4e85_80A8_9CFB97FB4AFE_STL -->
<g id="node14" class="node"><title>EAID_4172C017_2E3E_4d09_A6C5_E7EDDC7D26E9___EAID_0D0A5BD4_8ED5_4e85_80A8_9CFB97FB4AFE_STL</title>
<image xlink:href="img/stimulus_icon.png" width="30px" height="20px" preserveAspectRatio="xMinYMin meet" x="815.5" y="-987"/>
<text text-anchor="start" x="764" y="-952.8" font-family="Times New Roman,serif" font-weight="bold" font-size="14.00">stl#Visitor:400 or 500</text>
<text text-anchor="start" x="797.5" y="-938.8" font-family="Times New Roman,serif" font-weight="bold" font-size="14.00">error page</text>
</g>
<!-- EAID_4172C017_2E3E_4d09_A6C5_E7EDDC7D26E9___EAID_0D0A5BD4_8ED5_4e85_80A8_9CFB97FB4AFE_STL&#45;&gt;EAID_4172C017_2E3E_4d09_A6C5_E7EDDC7D26E9___EAID_0D0A5BD4_8ED5_4e85_80A8_9CFB97FB4AFE -->
<g id="edge1" class="edge"><title>EAID_4172C017_2E3E_4d09_A6C5_E7EDDC7D26E9___EAID_0D0A5BD4_8ED5_4e85_80A8_9CFB97FB4AFE_STL&#45;&gt;EAID_4172C017_2E3E_4d09_A6C5_E7EDDC7D26E9___EAID_0D0A5BD4_8ED5_4e85_80A8_9CFB97FB4AFE</title>
<path fill="none" stroke="black" d="M836.018,-928.765C838.215,-917.363 840.734,-904.288 843.071,-892.154"/>
<polygon fill="black" stroke="black" points="846.526,-892.721 844.981,-882.24 839.653,-891.397 846.526,-892.721"/>
</g>
<!-- EAID_4172C017_2E3E_4d09_A6C5_E7EDDC7D26E9___EAID_14F6C64F_81E6_4e0f_A644_A95FEE3ABD8D_STL -->
<g id="node15" class="node"><title>EAID_4172C017_2E3E_4d09_A6C5_E7EDDC7D26E9___EAID_14F6C64F_81E6_4e0f_A644_A95FEE3ABD8D_STL</title>
<image xlink:href="img/stimulus_icon.png" width="30px" height="20px" preserveAspectRatio="xMinYMin meet" x="986.5" y="-987"/>
<text text-anchor="start" x="935" y="-952.8" font-family="Times New Roman,serif" font-weight="bold" font-size="14.00">stl#Visitor:404 or 500</text>
<text text-anchor="start" x="968.5" y="-938.8" font-family="Times New Roman,serif" font-weight="bold" font-size="14.00">error page</text>
</g>
<!-- EAID_4172C017_2E3E_4d09_A6C5_E7EDDC7D26E9___EAID_14F6C64F_81E6_4e0f_A644_A95FEE3ABD8D_STL&#45;&gt;EAID_4172C017_2E3E_4d09_A6C5_E7EDDC7D26E9___EAID_14F6C64F_81E6_4e0f_A644_A95FEE3ABD8D -->
<g id="edge2" class="edge"><title>EAID_4172C017_2E3E_4d09_A6C5_E7EDDC7D26E9___EAID_14F6C64F_81E6_4e0f_A644_A95FEE3ABD8D_STL&#45;&gt;EAID_4172C017_2E3E_4d09_A6C5_E7EDDC7D26E9___EAID_14F6C64F_81E6_4e0f_A644_A95FEE3ABD8D</title>
<path fill="none" stroke="black" d="M1001,-928.765C1001,-917.477 1001,-904.549 1001,-892.518"/>
<polygon fill="black" stroke="black" points="1004.5,-892.24 1001,-882.24 997.5,-892.24 1004.5,-892.24"/>
</g>
<!-- EAID_4172C017_2E3E_4d09_A6C5_E7EDDC7D26E9___EAID_F1255745_68BE_41d1_AC61_C754D55BB3D2_STL -->
<g id="node16" class="node"><title>EAID_4172C017_2E3E_4d09_A6C5_E7EDDC7D26E9___EAID_F1255745_68BE_41d1_AC61_C754D55BB3D2_STL</title>
<image xlink:href="img/stimulus_icon.png" width="30px" height="20px" preserveAspectRatio="xMinYMin meet" x="1342.5" y="-980"/>
<text text-anchor="start" x="1301" y="-945.8" font-family="Times New Roman,serif" font-weight="bold" font-size="14.00">stl#Visitor:Gallery</text>
</g>
<!-- EAID_4172C017_2E3E_4d09_A6C5_E7EDDC7D26E9___EAID_F1255745_68BE_41d1_AC61_C754D55BB3D2_STL&#45;&gt;EAID_4172C017_2E3E_4d09_A6C5_E7EDDC7D26E9___EAID_F1255745_68BE_41d1_AC61_C754D55BB3D2 -->
<g id="edge8" class="edge"><title>EAID_4172C017_2E3E_4d09_A6C5_E7EDDC7D26E9___EAID_F1255745_68BE_41d1_AC61_C754D55BB3D2_STL&#45;&gt;EAID_4172C017_2E3E_4d09_A6C5_E7EDDC7D26E9___EAID_F1255745_68BE_41d1_AC61_C754D55BB3D2</title>
<path fill="none" stroke="black" d="M1347.4,-935.496C1318.14,-860.837 1230.05,-636.06 1196.33,-550.015"/>
<polygon fill="black" stroke="black" points="1199.59,-548.735 1192.68,-540.701 1193.07,-551.289 1199.59,-548.735"/>
</g>
<!-- EAID_4172C017_2E3E_4d09_A6C5_E7EDDC7D26E9___EAID_968D8E7D_CFD8_4a54_B646_BBC93CF15B32_STL -->
<g id="node17" class="node"><title>EAID_4172C017_2E3E_4d09_A6C5_E7EDDC7D26E9___EAID_968D8E7D_CFD8_4a54_B646_BBC93CF15B32_STL</title>
<image xlink:href="img/stimulus_icon.png" width="30px" height="20px" preserveAspectRatio="xMinYMin meet" x="1169" y="-980"/>
<text text-anchor="start" x="1106" y="-945.8" font-family="Times New Roman,serif" font-weight="bold" font-size="14.00">stl#Visitor:Gallery button</text>
</g>
<!-- EAID_4172C017_2E3E_4d09_A6C5_E7EDDC7D26E9___EAID_968D8E7D_CFD8_4a54_B646_BBC93CF15B32_STL&#45;&gt;EAID_4172C017_2E3E_4d09_A6C5_E7EDDC7D26E9___EAID_968D8E7D_CFD8_4a54_B646_BBC93CF15B32 -->
<g id="edge12" class="edge"><title>EAID_4172C017_2E3E_4d09_A6C5_E7EDDC7D26E9___EAID_968D8E7D_CFD8_4a54_B646_BBC93CF15B32_STL&#45;&gt;EAID_4172C017_2E3E_4d09_A6C5_E7EDDC7D26E9___EAID_968D8E7D_CFD8_4a54_B646_BBC93CF15B32</title>
<path fill="none" stroke="black" d="M1179.01,-935.266C1176.05,-920.633 1172.27,-901.87 1169.02,-885.765"/>
<polygon fill="black" stroke="black" points="1172.38,-884.746 1166.97,-875.636 1165.52,-886.131 1172.38,-884.746"/>
</g>
<!-- EAID_4172C017_2E3E_4d09_A6C5_E7EDDC7D26E9___EAID_97DEE34C_DC74_474c_A17C_27BC86F06463_STL -->
<g id="node18" class="node"><title>EAID_4172C017_2E3E_4d09_A6C5_E7EDDC7D26E9___EAID_97DEE34C_DC74_474c_A17C_27BC86F06463_STL</title>
<image xlink:href="img/stimulus_icon.png" width="30px" height="20px" preserveAspectRatio="xMinYMin meet" x="638" y="-980"/>
<text text-anchor="start" x="581" y="-945.8" font-family="Times New Roman,serif" font-weight="bold" font-size="14.00">stl#Visitor:project page</text>
</g>
<!-- EAID_4172C017_2E3E_4d09_A6C5_E7EDDC7D26E9___EAID_97DEE34C_DC74_474c_A17C_27BC86F06463_STL&#45;&gt;EAID_4172C017_2E3E_4d09_A6C5_E7EDDC7D26E9___EAID_97DEE34C_DC74_474c_A17C_27BC86F06463 -->
<g id="edge14" class="edge"><title>EAID_4172C017_2E3E_4d09_A6C5_E7EDDC7D26E9___EAID_97DEE34C_DC74_474c_A17C_27BC86F06463_STL&#45;&gt;EAID_4172C017_2E3E_4d09_A6C5_E7EDDC7D26E9___EAID_97DEE34C_DC74_474c_A17C_27BC86F06463</title>
<path fill="none" stroke="black" d="M662.757,-935.266C668.585,-920.494 676.073,-901.512 682.467,-885.306"/>
<polygon fill="black" stroke="black" points="685.867,-886.223 686.281,-875.636 679.356,-883.654 685.867,-886.223"/>
</g>
<!-- EAID_55429B46_A22C_4698_BD31_62B669446C39 -->
<g id="node19" class="node"><title>EAID_55429B46_A22C_4698_BD31_62B669446C39</title>
<polygon fill="none" stroke="black" points="2292,-136.5 2292,-157.5 2486,-157.5 2486,-136.5 2292,-136.5"/>
<text text-anchor="start" x="2299.5" y="-144.3" font-family="Times New Roman,serif" font-weight="bold" font-size="14.00">listofprogramsfortrekkingLA</text>
<polygon fill="none" stroke="black" points="2292,-115.5 2292,-136.5 2486,-136.5 2486,-115.5 2292,-115.5"/>
<text text-anchor="start" x="2295" y="-123.3" font-family="Times New Roman,serif" font-weight="bold" font-size="14.00">listofprogramsfortrekkingLA()</text>
<polygon fill="none" stroke="black" points="2292,-94.5 2292,-115.5 2486,-115.5 2486,-94.5 2292,-94.5"/>
<text text-anchor="start" x="2334" y="-102.3" font-family="Times New Roman,serif" font-weight="bold" font-size="14.00">trekkingLApage()</text>
<polygon fill="none" stroke="black" points="2292,-73.5 2292,-94.5 2486,-94.5 2486,-73.5 2292,-73.5"/>
<text text-anchor="start" x="2335" y="-81.3" font-family="Times New Roman,serif" font-weight="bold" font-size="14.00">programsbutton()</text>
<polygon fill="none" stroke="black" points="2291,-72.5 2291,-158.5 2487,-158.5 2487,-72.5 2291,-72.5"/>
</g>
<!-- EAID_85AC0EDD_D484_4bd7_924B_A66E36E0BEDE -->
<g id="node20" class="node"><title>EAID_85AC0EDD_D484_4bd7_924B_A66E36E0BEDE</title>
<polygon fill="none" stroke="black" points="2018,-136.5 2018,-157.5 2256,-157.5 2256,-136.5 2018,-136.5"/>
<text text-anchor="start" x="2094" y="-144.3" font-family="Times New Roman,serif" font-weight="bold" font-size="14.00">publicpictures</text>
<polygon fill="none" stroke="black" points="2018,-115.5 2018,-136.5 2256,-136.5 2256,-115.5 2018,-115.5"/>
<text text-anchor="start" x="2089.5" y="-123.3" font-family="Times New Roman,serif" font-weight="bold" font-size="14.00">publicpictures()</text>
<polygon fill="none" stroke="black" points="2018,-94.5 2018,-115.5 2256,-115.5 2256,-94.5 2018,-94.5"/>
<text text-anchor="start" x="2021" y="-102.3" font-family="Times New Roman,serif" font-weight="bold" font-size="14.00">Dashboardforaddingfilesandpictures()</text>
<polygon fill="none" stroke="black" points="2018,-73.5 2018,-94.5 2256,-94.5 2256,-73.5 2018,-73.5"/>
<text text-anchor="start" x="2061.5" y="-81.3" font-family="Times New Roman,serif" font-weight="bold" font-size="14.00">Errorinreadingpictures()</text>
<polygon fill="none" stroke="black" points="2017,-72.5 2017,-158.5 2257,-158.5 2257,-72.5 2017,-72.5"/>
</g>
<!-- EAID_643B475B_2BDD_4bd2_AE34_987F7CC2ABB7 -->
<g id="node21" class="node"><title>EAID_643B475B_2BDD_4bd2_AE34_987F7CC2ABB7</title>
<polygon fill="none" stroke="black" points="1855,-136.5 1855,-157.5 1982,-157.5 1982,-136.5 1855,-136.5"/>
<text text-anchor="start" x="1870" y="-144.3" font-family="Times New Roman,serif" font-weight="bold" font-size="14.00">NewPostButton</text>
<polygon fill="none" stroke="black" points="1855,-115.5 1855,-136.5 1982,-136.5 1982,-115.5 1855,-115.5"/>
<text text-anchor="start" x="1865.5" y="-123.3" font-family="Times New Roman,serif" font-weight="bold" font-size="14.00">NewPostButton()</text>
<polygon fill="none" stroke="black" points="1855,-94.5 1855,-115.5 1982,-115.5 1982,-94.5 1855,-94.5"/>
<text text-anchor="start" x="1864.5" y="-102.3" font-family="Times New Roman,serif" font-weight="bold" font-size="14.00">programsbutton()</text>
<polygon fill="none" stroke="black" points="1855,-73.5 1855,-94.5 1982,-94.5 1982,-73.5 1855,-73.5"/>
<text text-anchor="start" x="1858" y="-81.3" font-family="Times New Roman,serif" font-weight="bold" font-size="14.00">rightbottombutton()</text>
<polygon fill="none" stroke="black" points="1853.5,-72.5 1853.5,-158.5 1982.5,-158.5 1982.5,-72.5 1853.5,-72.5"/>
</g>
<!-- EAID_6DCB8B9C_CCBD_49a2_88FD_3E778288239B -->
<g id="node24" class="node"><title>EAID_6DCB8B9C_CCBD_49a2_88FD_3E778288239B</title>
<polygon fill="none" stroke="black" points="957,-146.5 957,-167.5 1233,-167.5 1233,-146.5 957,-146.5"/>
<text text-anchor="start" x="1064.5" y="-154.3" font-family="Times New Roman,serif" font-weight="bold" font-size="14.00">Facebook</text>
<polygon fill="none" stroke="black" points="957,-125.5 957,-146.5 1233,-146.5 1233,-125.5 957,-125.5"/>
<text text-anchor="start" x="1060" y="-133.3" font-family="Times New Roman,serif" font-weight="bold" font-size="14.00">Facebook()</text>
<polygon fill="none" stroke="black" points="957,-104.5 957,-125.5 1233,-125.5 1233,-104.5 957,-104.5"/>
<text text-anchor="start" x="960" y="-112.3" font-family="Times New Roman,serif" font-weight="bold" font-size="14.00">DisplayanewwindowforlogginginFacebook()</text>
<polygon fill="none" stroke="black" points="957,-83.5 957,-104.5 1233,-104.5 1233,-83.5 957,-83.5"/>
<text text-anchor="start" x="960" y="-91.3" font-family="Times New Roman,serif" font-weight="bold" font-size="14.00">PostpostsaboutprojectonFacebooktimeline()</text>
<polygon fill="none" stroke="black" points="957,-62.5 957,-83.5 1233,-83.5 1233,-62.5 957,-62.5"/>
<text text-anchor="start" x="970" y="-70.3" font-family="Times New Roman,serif" font-weight="bold" font-size="14.00">sendusernameandpasswordtoFacebook()</text>
<polygon fill="none" stroke="black" points="956,-62 956,-169 1234,-169 1234,-62 956,-62"/>
</g>
<!-- EAID_B2874277_22ED_428c_A8F7_099695839728 -->
<g id="node25" class="node"><title>EAID_B2874277_22ED_428c_A8F7_099695839728</title>
<polygon fill="none" stroke="black" points="650,-188.5 650,-209.5 921,-209.5 921,-188.5 650,-188.5"/>
<text text-anchor="start" x="686.5" y="-196.3" font-family="Times New Roman,serif" font-weight="bold" font-size="14.00">displayanewsectionondashboard</text>
<polygon fill="none" stroke="black" points="650,-167.5 650,-188.5 921,-188.5 921,-167.5 650,-167.5"/>
<text text-anchor="start" x="682" y="-175.3" font-family="Times New Roman,serif" font-weight="bold" font-size="14.00">displayanewsectionondashboard()</text>
<polygon fill="none" stroke="black" points="650,-146.5 650,-167.5 921,-167.5 921,-146.5 650,-146.5"/>
<text text-anchor="start" x="696" y="-154.3" font-family="Times New Roman,serif" font-weight="bold" font-size="14.00">Dashboardforaddingimages()</text>
<polygon fill="none" stroke="black" points="650,-125.5 650,-146.5 921,-146.5 921,-125.5 650,-125.5"/>
<text text-anchor="start" x="716" y="-133.3" font-family="Times New Roman,serif" font-weight="bold" font-size="14.00">displayadropdownlist()</text>
<polygon fill="none" stroke="black" points="650,-104.5 650,-125.5 921,-125.5 921,-104.5 650,-104.5"/>
<text text-anchor="start" x="731.5" y="-112.3" font-family="Times New Roman,serif" font-weight="bold" font-size="14.00">projectdatabase()</text>
<polygon fill="none" stroke="black" points="650,-83.5 650,-104.5 921,-104.5 921,-83.5 650,-83.5"/>
<text text-anchor="start" x="701" y="-91.3" font-family="Times New Roman,serif" font-weight="bold" font-size="14.00">displaycorrespondingpage()</text>
<polygon fill="none" stroke="black" points="650,-62.5 650,-83.5 921,-83.5 921,-62.5 650,-62.5"/>
<text text-anchor="start" x="710" y="-70.3" font-family="Times New Roman,serif" font-weight="bold" font-size="14.00">displayaninterativemap()</text>
<polygon fill="none" stroke="black" points="650,-41.5 650,-62.5 921,-62.5 921,-41.5 650,-41.5"/>
<text text-anchor="start" x="653" y="-49.3" font-family="Times New Roman,serif" font-weight="bold" font-size="14.00">displayimagegalleryandprojectdescription()</text>
<polygon fill="none" stroke="black" points="650,-20.5 650,-41.5 921,-41.5 921,-20.5 650,-20.5"/>
<text text-anchor="start" x="695.5" y="-28.3" font-family="Times New Roman,serif" font-weight="bold" font-size="14.00">displaypreviousornextimage()</text>
<polygon fill="none" stroke="black" points="648.5,-20 648.5,-211 921.5,-211 921.5,-20 648.5,-20"/>
</g>
<!-- EAID_344C5563_6B55_41e9_B06F_839BABD96347 -->
<g id="node26" class="node"><title>EAID_344C5563_6B55_41e9_B06F_839BABD96347</title>
<polygon fill="none" stroke="black" points="529,-115.5 529,-136.5 613,-136.5 613,-115.5 529,-115.5"/>
<text text-anchor="start" x="536.5" y="-123.3" font-family="Times New Roman,serif" font-weight="bold" font-size="14.00">choosemap</text>
<polygon fill="none" stroke="black" points="529,-94.5 529,-115.5 613,-115.5 613,-94.5 529,-94.5"/>
<text text-anchor="start" x="532" y="-102.3" font-family="Times New Roman,serif" font-weight="bold" font-size="14.00">choosemap()</text>
<polygon fill="none" stroke="black" points="528,-93.5 528,-137.5 614,-137.5 614,-93.5 528,-93.5"/>
</g>
<!-- EAID_B9B325A5_5546_4005_A086_2C8BBFC07838 -->
<g id="node27" class="node"><title>EAID_B9B325A5_5546_4005_A086_2C8BBFC07838</title>
<polygon fill="none" stroke="black" points="357,-115.5 357,-136.5 493,-136.5 493,-115.5 357,-115.5"/>
<text text-anchor="start" x="364.5" y="-123.3" font-family="Times New Roman,serif" font-weight="bold" font-size="14.00">400or500erorrpage</text>
<polygon fill="none" stroke="black" points="357,-94.5 357,-115.5 493,-115.5 493,-94.5 357,-94.5"/>
<text text-anchor="start" x="360" y="-102.3" font-family="Times New Roman,serif" font-weight="bold" font-size="14.00">400or500erorrpage()</text>
<polygon fill="none" stroke="black" points="356,-93.5 356,-137.5 494,-137.5 494,-93.5 356,-93.5"/>
</g>
</g>
</svg>
