<?xml version="1.0" encoding="UTF-8" standalone="no"?>
<!DOCTYPE svg PUBLIC "-//W3C//DTD SVG 1.1//EN"
 "http://www.w3.org/Graphics/SVG/1.1/DTD/svg11.dtd">
<!-- Generated by graphviz version 2.38.0 (20140413.2041)
 -->
<!-- Title: g Pages: 1 -->
<svg width="1095pt" height="268pt"
 viewBox="0.00 0.00 1095.00 268.00" xmlns="http://www.w3.org/2000/svg" xmlns:xlink="http://www.w3.org/1999/xlink">
<g id="graph0" class="graph" transform="scale(1 1) rotate(0) translate(4 264)">
<title>g</title>
<polygon fill="white" stroke="none" points="-4,4 -4,-264 1091,-264 1091,4 -4,4"/>
<!-- EAID_BCC609EB_9762_4d6d_8CC0_90C8084C2F20 -->
<g id="node1" class="node"><title>EAID_BCC609EB_9762_4d6d_8CC0_90C8084C2F20</title>
<image xlink:href="img/actor1.png" width="61px" height="90px" preserveAspectRatio="xMinYMin meet" x="10.5" y="-155.5"/>
<text text-anchor="start" x="19" y="-42.3" font-family="Times New Roman,serif" font-size="24.00">User</text>
</g>
<!-- EAID_15FDBAB4_C3FC_490e_A69E_1F28E546FF0E -->
<g id="node2" class="node"><title>EAID_15FDBAB4_C3FC_490e_A69E_1F28E546FF0E</title>
<image xlink:href="img/boundary3.png" width="115px" height="67px" preserveAspectRatio="xMinYMin meet" x="159.5" y="-185.5"/>
<text text-anchor="start" x="127" y="-95.3" font-family="Times New Roman,serif" font-size="24.00"> Student course list</text>
</g>
<!-- EAID_BCC609EB_9762_4d6d_8CC0_90C8084C2F20&#45;&gt;EAID_15FDBAB4_C3FC_490e_A69E_1F28E546FF0E -->
<g id="edge1" class="edge"><title>EAID_BCC609EB_9762_4d6d_8CC0_90C8084C2F20&#45;&gt;EAID_15FDBAB4_C3FC_490e_A69E_1F28E546FF0E</title>
<path fill="none" stroke="black" d="M81.0968,-105.03C89.0721,-106.95 97.8138,-109.054 106.893,-111.239"/>
<polygon fill="black" stroke="black" points="106.316,-114.7 116.857,-113.637 107.954,-107.895 106.316,-114.7"/>
</g>
<!-- EAID_512A6792_0F19_4765_A4AC_E5D794B71E95 -->
<g id="node3" class="node"><title>EAID_512A6792_0F19_4765_A4AC_E5D794B71E95</title>
<image xlink:href="img/boundary3.png" width="102px" height="67px" preserveAspectRatio="xMinYMin meet" x="975" y="-102.5"/>
<text text-anchor="start" x="975" y="-12.3" font-family="Times New Roman,serif" font-size="24.00">Homepage</text>
</g>
<!-- EAID_BCC609EB_9762_4d6d_8CC0_90C8084C2F20&#45;&gt;EAID_512A6792_0F19_4765_A4AC_E5D794B71E95 -->
<g id="edge2" class="edge"><title>EAID_BCC609EB_9762_4d6d_8CC0_90C8084C2F20&#45;&gt;EAID_512A6792_0F19_4765_A4AC_E5D794B71E95</title>
<path fill="none" stroke="black" d="M81.0262,-81.8655C92.492,-78.4909 105.124,-75.3219 117,-73.5 426.079,-26.0818 801.201,-40.729 954.554,-49.737"/>
<polygon fill="black" stroke="black" points="954.579,-53.2447 964.77,-50.3482 954.997,-46.2572 954.579,-53.2447"/>
</g>
<!-- EAID_B29602EA_3D0F_4e58_8E07_918A980771A6 -->
<g id="node4" class="node"><title>EAID_B29602EA_3D0F_4e58_8E07_918A980771A6</title>
<image xlink:href="img/control1.png" width="106px" height="75px" preserveAspectRatio="xMinYMin meet" x="441" y="-253.5"/>
<text text-anchor="start" x="363" y="-155.3" font-family="Times New Roman,serif" font-size="24.00">Review course and approve</text>
</g>
<!-- EAID_15FDBAB4_C3FC_490e_A69E_1F28E546FF0E&#45;&gt;EAID_B29602EA_3D0F_4e58_8E07_918A980771A6 -->
<g id="edge3" class="edge"><title>EAID_15FDBAB4_C3FC_490e_A69E_1F28E546FF0E&#45;&gt;EAID_B29602EA_3D0F_4e58_8E07_918A980771A6</title>
<path fill="none" stroke="black" d="M317.281,-160.605C325.665,-162.557 334.254,-164.556 342.911,-166.57"/>
<polygon fill="black" stroke="black" points="342.172,-169.992 352.706,-168.85 343.759,-163.174 342.172,-169.992"/>
</g>
<!-- EAID_88C3EE1A_C253_430d_9226_CE0A369C3EB0 -->
<g id="node5" class="node"><title>EAID_88C3EE1A_C253_430d_9226_CE0A369C3EB0</title>
<image xlink:href="img/control1.png" width="106px" height="75px" preserveAspectRatio="xMinYMin meet" x="747" y="-201.5"/>
<text text-anchor="start" x="681" y="-103.3" font-family="Times New Roman,serif" font-size="24.00">Update status in database</text>
</g>
<!-- EAID_B29602EA_3D0F_4e58_8E07_918A980771A6&#45;&gt;EAID_88C3EE1A_C253_430d_9226_CE0A369C3EB0 -->
<g id="edge7" class="edge"><title>EAID_B29602EA_3D0F_4e58_8E07_918A980771A6&#45;&gt;EAID_88C3EE1A_C253_430d_9226_CE0A369C3EB0</title>
<path fill="none" stroke="black" d="M635.432,-177.479C643.93,-176.025 652.477,-174.563 660.965,-173.111"/>
<polygon fill="black" stroke="black" points="661.629,-176.549 670.896,-171.413 660.449,-169.649 661.629,-176.549"/>
</g>
<!-- EAID_88C3EE1A_C253_430d_9226_CE0A369C3EB0&#45;&gt;EAID_15FDBAB4_C3FC_490e_A69E_1F28E546FF0E -->
<g id="edge4" class="edge"><title>EAID_88C3EE1A_C253_430d_9226_CE0A369C3EB0&#45;&gt;EAID_15FDBAB4_C3FC_490e_A69E_1F28E546FF0E</title>
<path fill="none" stroke="black" d="M670.616,-135.772C658.588,-134.849 646.572,-134.063 635,-133.5 509.815,-127.408 478.32,-131.644 353,-133.5 344.659,-133.624 336.028,-133.79 327.35,-133.985"/>
<polygon fill="black" stroke="black" points="327.07,-130.491 317.156,-134.226 327.236,-137.489 327.07,-130.491"/>
</g>
<!-- EAID_88C3EE1A_C253_430d_9226_CE0A369C3EB0&#45;&gt;EAID_512A6792_0F19_4765_A4AC_E5D794B71E95 -->
<g id="edge6" class="edge"><title>EAID_88C3EE1A_C253_430d_9226_CE0A369C3EB0&#45;&gt;EAID_512A6792_0F19_4765_A4AC_E5D794B71E95</title>
<path fill="none" stroke="black" d="M929.029,-95.202C938.072,-91.3668 946.973,-87.592 955.488,-83.9804"/>
<polygon fill="black" stroke="black" points="957.087,-87.1042 964.927,-79.9775 954.354,-80.6598 957.087,-87.1042"/>
</g>
<!-- EAID_AE0B30E9_4F5E_48ba_BFD9_781E424AC450 -->
<g id="node6" class="node"><title>EAID_AE0B30E9_4F5E_48ba_BFD9_781E424AC450</title>
<image xlink:href="img/activity_icon.png" width="30px" height="20px" preserveAspectRatio="xMinYMin meet" x="1011.5" y="-183.5"/>
<text text-anchor="start" x="979" y="-141.3" font-family="Times New Roman,serif" font-weight="bold" font-size="24.00">Database</text>
</g>
<!-- EAID_88C3EE1A_C253_430d_9226_CE0A369C3EB0&#45;&gt;EAID_AE0B30E9_4F5E_48ba_BFD9_781E424AC450 -->
<g id="edge5" class="edge"><title>EAID_88C3EE1A_C253_430d_9226_CE0A369C3EB0&#45;&gt;EAID_AE0B30E9_4F5E_48ba_BFD9_781E424AC450</title>
<path fill="none" stroke="black" d="M929.029,-154.644C938.998,-155.045 948.793,-155.438 958.091,-155.812"/>
<polygon fill="black" stroke="black" points="958.228,-159.32 968.36,-156.224 958.509,-152.326 958.228,-159.32"/>
</g>
</g>
</svg>
