<?xml version="1.0" encoding="UTF-8" standalone="no"?>
<!DOCTYPE svg PUBLIC "-//W3C//DTD SVG 1.1//EN"
 "http://www.w3.org/Graphics/SVG/1.1/DTD/svg11.dtd">
<!-- Generated by graphviz version 2.38.0 (20140413.2041)
 -->
<!-- Title: g Pages: 1 -->
<svg width="939pt" height="332pt"
 viewBox="0.00 0.00 938.93 332.00" xmlns="http://www.w3.org/2000/svg" xmlns:xlink="http://www.w3.org/1999/xlink">
<g id="graph0" class="graph" transform="scale(1 1) rotate(0) translate(4 328)">
<title>g</title>
<polygon fill="white" stroke="none" points="-4,4 -4,-328 934.926,-328 934.926,4 -4,4"/>
<!-- Display redemption statistics screen -->
<g id="node1" class="node"><title>Display redemption statistics screen</title>
<ellipse fill="none" stroke="black" cx="789.888" cy="-306" rx="141.075" ry="18"/>
<text text-anchor="middle" x="789.888" y="-302.3" font-family="Times New Roman,serif" font-size="14.00">Display redemption statistics screen</text>
</g>
<!-- Redemption statistics screen -->
<g id="node2" class="node"><title>Redemption statistics screen</title>
<ellipse fill="none" stroke="black" cx="506.888" cy="-234" rx="114.28" ry="18"/>
<text text-anchor="middle" x="506.888" y="-230.3" font-family="Times New Roman,serif" font-size="14.00">Redemption statistics screen</text>
</g>
<!-- Display redemption statistics screen&#45;&gt;Redemption statistics screen -->
<g id="edge1" class="edge"><title>Display redemption statistics screen&#45;&gt;Redemption statistics screen</title>
<path fill="none" stroke="black" d="M728.132,-289.725C683.037,-278.57 621.898,-263.448 575.317,-251.926"/>
<polygon fill="black" stroke="black" points="576.158,-248.528 565.61,-249.525 574.477,-255.324 576.158,-248.528"/>
</g>
<!-- Chooses filtering or sorting option -->
<g id="node3" class="node"><title>Chooses filtering or sorting option</title>
<ellipse fill="none" stroke="black" cx="753.888" cy="-162" rx="135.676" ry="18"/>
<text text-anchor="middle" x="753.888" y="-158.3" font-family="Times New Roman,serif" font-size="14.00">Chooses filtering or sorting option</text>
</g>
<!-- Redemption statistics screen&#45;&gt;Chooses filtering or sorting option -->
<g id="edge13" class="edge"><title>Redemption statistics screen&#45;&gt;Chooses filtering or sorting option</title>
<path fill="none" stroke="black" d="M559.876,-217.983C597.722,-207.258 648.853,-192.767 689.123,-181.354"/>
<polygon fill="black" stroke="black" points="690.182,-184.692 698.849,-178.598 688.274,-177.957 690.182,-184.692"/>
</g>
<!-- Query Transaction Log and Partner Info -->
<g id="node5" class="node"><title>Query Transaction Log and Partner Info</title>
<ellipse fill="none" stroke="black" cx="442.888" cy="-162" rx="157.072" ry="18"/>
<text text-anchor="middle" x="442.888" y="-158.3" font-family="Times New Roman,serif" font-size="14.00">Query Transaction Log and Partner Info</text>
</g>
<!-- Redemption statistics screen&#45;&gt;Query Transaction Log and Partner Info -->
<g id="edge11" class="edge"><title>Redemption statistics screen&#45;&gt;Query Transaction Log and Partner Info</title>
<path fill="none" stroke="black" d="M491.396,-216.055C483.65,-207.583 474.127,-197.168 465.577,-187.815"/>
<polygon fill="black" stroke="black" points="468.014,-185.294 458.683,-180.275 462.847,-190.017 468.014,-185.294"/>
</g>
<!-- Leave Reemption statistics screen -->
<g id="node9" class="node"><title>Leave Reemption statistics screen</title>
<ellipse fill="none" stroke="black" cx="133.888" cy="-162" rx="133.776" ry="18"/>
<text text-anchor="middle" x="133.888" y="-158.3" font-family="Times New Roman,serif" font-size="14.00">Leave Reemption statistics screen</text>
</g>
<!-- Redemption statistics screen&#45;&gt;Leave Reemption statistics screen -->
<g id="edge12" class="edge"><title>Redemption statistics screen&#45;&gt;Leave Reemption statistics screen</title>
<path fill="none" stroke="black" d="M436.291,-219.751C374.316,-208.121 284.05,-191.181 218.279,-178.837"/>
<polygon fill="black" stroke="black" points="218.824,-175.379 208.35,-176.974 217.533,-182.259 218.824,-175.379"/>
</g>
<!-- Filter and sort result -->
<g id="node4" class="node"><title>Filter and sort result</title>
<ellipse fill="none" stroke="black" cx="694.888" cy="-90" rx="83.3857" ry="18"/>
<text text-anchor="middle" x="694.888" y="-86.3" font-family="Times New Roman,serif" font-size="14.00">Filter and sort result</text>
</g>
<!-- Chooses filtering or sorting option&#45;&gt;Filter and sort result -->
<g id="edge2" class="edge"><title>Chooses filtering or sorting option&#45;&gt;Filter and sort result</title>
<path fill="none" stroke="black" d="M739.606,-144.055C732.431,-135.543 723.603,-125.068 715.691,-115.681"/>
<polygon fill="black" stroke="black" points="718.16,-113.18 709.039,-107.789 712.807,-117.691 718.16,-113.18"/>
</g>
<!-- Filter and sort result&#45;&gt;Display redemption statistics screen -->
<g id="edge8" class="edge"><title>Filter and sort result&#45;&gt;Display redemption statistics screen</title>
<path fill="none" stroke="black" d="M764.597,-99.945C816.949,-108.261 882.35,-122.616 898.888,-144 935.651,-191.535 868.57,-250.817 824.296,-282.52"/>
<polygon fill="black" stroke="black" points="822.235,-279.69 816.054,-288.295 826.252,-285.423 822.235,-279.69"/>
</g>
<!-- Temporary storage -->
<g id="node6" class="node"><title>Temporary storage</title>
<ellipse fill="none" stroke="black" cx="524.888" cy="-18" rx="79.8859" ry="18"/>
<text text-anchor="middle" x="524.888" y="-14.3" font-family="Times New Roman,serif" font-size="14.00">Temporary storage</text>
</g>
<!-- Filter and sort result&#45;&gt;Temporary storage -->
<g id="edge7" class="edge"><title>Filter and sort result&#45;&gt;Temporary storage</title>
<path fill="none" stroke="black" d="M658.001,-73.811C632.406,-63.2721 598.133,-49.1598 570.774,-37.8944"/>
<polygon fill="black" stroke="black" points="571.991,-34.6101 561.411,-34.0389 569.325,-41.0829 571.991,-34.6101"/>
</g>
<!-- Query Transaction Log and Partner Info&#45;&gt;Filter and sort result -->
<g id="edge6" class="edge"><title>Query Transaction Log and Partner Info&#45;&gt;Filter and sort result</title>
<path fill="none" stroke="black" d="M499.756,-145.203C540.391,-133.916 594.919,-118.769 636.004,-107.357"/>
<polygon fill="black" stroke="black" points="637.178,-110.663 645.877,-104.614 635.305,-103.918 637.178,-110.663"/>
</g>
<!-- Query Transaction Log and Partner Info&#45;&gt;Temporary storage -->
<g id="edge3" class="edge"><title>Query Transaction Log and Partner Info&#45;&gt;Temporary storage</title>
<path fill="none" stroke="black" d="M470.181,-144.237C482.902,-135.059 497.131,-122.581 505.888,-108 517.108,-89.3182 521.754,-64.9314 523.652,-46.4104"/>
<polygon fill="black" stroke="black" points="527.154,-46.5228 524.481,-36.2708 520.177,-45.9523 527.154,-46.5228"/>
</g>
<!-- Transaction Log -->
<g id="node7" class="node"><title>Transaction Log</title>
<ellipse fill="none" stroke="black" cx="299.888" cy="-90" rx="70.6878" ry="18"/>
<text text-anchor="middle" x="299.888" y="-86.3" font-family="Times New Roman,serif" font-size="14.00">Transaction Log</text>
</g>
<!-- Query Transaction Log and Partner Info&#45;&gt;Transaction Log -->
<g id="edge4" class="edge"><title>Query Transaction Log and Partner Info&#45;&gt;Transaction Log</title>
<path fill="none" stroke="black" d="M408.999,-144.411C388.331,-134.293 361.8,-121.307 340.076,-110.672"/>
<polygon fill="black" stroke="black" points="341.611,-107.527 331.091,-106.274 338.533,-113.814 341.611,-107.527"/>
</g>
<!-- Partner Info -->
<g id="node8" class="node"><title>Partner Info</title>
<ellipse fill="none" stroke="black" cx="442.888" cy="-90" rx="53.8905" ry="18"/>
<text text-anchor="middle" x="442.888" y="-86.3" font-family="Times New Roman,serif" font-size="14.00">Partner Info</text>
</g>
<!-- Query Transaction Log and Partner Info&#45;&gt;Partner Info -->
<g id="edge5" class="edge"><title>Query Transaction Log and Partner Info&#45;&gt;Partner Info</title>
<path fill="none" stroke="black" d="M442.888,-143.697C442.888,-135.983 442.888,-126.712 442.888,-118.112"/>
<polygon fill="black" stroke="black" points="446.388,-118.104 442.888,-108.104 439.388,-118.104 446.388,-118.104"/>
</g>
<!-- Leave Reemption statistics screen&#45;&gt;Temporary storage -->
<g id="edge9" class="edge"><title>Leave Reemption statistics screen&#45;&gt;Temporary storage</title>
<path fill="none" stroke="black" d="M145.298,-143.77C159.958,-123.135 187.423,-89.2039 219.888,-72 286.353,-36.7789 371.307,-24.228 434.667,-20.0865"/>
<polygon fill="black" stroke="black" points="435.266,-23.5572 445.041,-19.4706 434.851,-16.5695 435.266,-23.5572"/>
</g>
<!-- Administrator -->
<g id="node10" class="node"><title>Administrator</title>
<ellipse fill="none" stroke="black" cx="506.888" cy="-306" rx="60.3893" ry="18"/>
<text text-anchor="middle" x="506.888" y="-302.3" font-family="Times New Roman,serif" font-size="14.00">Administrator</text>
</g>
<!-- Administrator&#45;&gt;Redemption statistics screen -->
<g id="edge10" class="edge"><title>Administrator&#45;&gt;Redemption statistics screen</title>
<path fill="none" stroke="black" d="M506.888,-287.697C506.888,-279.983 506.888,-270.712 506.888,-262.112"/>
<polygon fill="black" stroke="black" points="510.388,-262.104 506.888,-252.104 503.388,-262.104 510.388,-262.104"/>
</g>
</g>
</svg>
