<?xml version="1.0" encoding="UTF-8" standalone="no"?>
<!DOCTYPE svg PUBLIC "-//W3C//DTD SVG 1.1//EN"
 "http://www.w3.org/Graphics/SVG/1.1/DTD/svg11.dtd">
<!-- Generated by graphviz version 2.38.0 (20140413.2041)
 -->
<!-- Title: g Pages: 1 -->
<svg width="1616pt" height="344pt"
 viewBox="0.00 0.00 1616.00 344.25" xmlns="http://www.w3.org/2000/svg" xmlns:xlink="http://www.w3.org/1999/xlink">
<g id="graph0" class="graph" transform="scale(1 1) rotate(0) translate(4 340.252)">
<title>g</title>
<polygon fill="white" stroke="none" points="-4,4 -4,-340.252 1612,-340.252 1612,4 -4,4"/>
<!-- EAID_F50B1138_97EA_4fab_8E7D_2D20E19A92FF -->
<g id="node1" class="node"><title>EAID_F50B1138_97EA_4fab_8E7D_2D20E19A92FF</title>
<image xlink:href="img/actor1.png" width="61px" height="90px" preserveAspectRatio="xMinYMin meet" x="10.5" y="-282.5"/>
<text text-anchor="start" x="19" y="-169.3" font-family="Times New Roman,serif" font-size="24.00">User</text>
</g>
<!-- EAID_9C540344_D0C2_4737_89CA_A52219D725BB -->
<g id="node2" class="node"><title>EAID_9C540344_D0C2_4737_89CA_A52219D725BB</title>
<image xlink:href="img/boundary3.png" width="102px" height="67px" preserveAspectRatio="xMinYMin meet" x="1496" y="-328.5"/>
<text text-anchor="start" x="1496" y="-238.3" font-family="Times New Roman,serif" font-size="24.00">Homepage</text>
</g>
<!-- EAID_F50B1138_97EA_4fab_8E7D_2D20E19A92FF&#45;&gt;EAID_9C540344_D0C2_4737_89CA_A52219D725BB -->
<g id="edge1" class="edge"><title>EAID_F50B1138_97EA_4fab_8E7D_2D20E19A92FF&#45;&gt;EAID_9C540344_D0C2_4737_89CA_A52219D725BB</title>
<path fill="none" stroke="black" d="M81.0131,-251.062C92.165,-257.847 104.64,-264.322 117,-268.5 266.023,-318.874 311.909,-297.266 469,-305.5 904.402,-328.321 1017.53,-360.887 1450,-305.5 1458.41,-304.423 1467.14,-302.835 1475.75,-300.974"/>
<polygon fill="black" stroke="black" points="1476.81,-304.321 1485.77,-298.676 1475.24,-297.498 1476.81,-304.321"/>
</g>
<!-- EAID_89AB145E_3541_459f_80E5_F72C3C7236FB -->
<g id="node3" class="node"><title>EAID_89AB145E_3541_459f_80E5_F72C3C7236FB</title>
<image xlink:href="img/boundary3.png" width="115px" height="67px" preserveAspectRatio="xMinYMin meet" x="776" y="-289.5"/>
<text text-anchor="start" x="739.5" y="-199.3" font-family="Times New Roman,serif" font-size="24.00">Receive results data</text>
</g>
<!-- EAID_F50B1138_97EA_4fab_8E7D_2D20E19A92FF&#45;&gt;EAID_89AB145E_3541_459f_80E5_F72C3C7236FB -->
<g id="edge2" class="edge"><title>EAID_F50B1138_97EA_4fab_8E7D_2D20E19A92FF&#45;&gt;EAID_89AB145E_3541_459f_80E5_F72C3C7236FB</title>
<path fill="none" stroke="black" d="M81.0025,-236.295C92.4679,-239.672 105.106,-242.802 117,-244.5 328.061,-274.624 577.721,-263.007 719.356,-252.078"/>
<polygon fill="black" stroke="black" points="719.669,-255.565 729.365,-251.293 719.121,-248.586 719.669,-255.565"/>
</g>
<!-- EAID_D662FC5B_F812_4489_954C_B30740ED9342 -->
<g id="node4" class="node"><title>EAID_D662FC5B_F812_4489_954C_B30740ED9342</title>
<image xlink:href="img/boundary3.png" width="115px" height="67px" preserveAspectRatio="xMinYMin meet" x="218" y="-229.5"/>
<text text-anchor="start" x="179" y="-139.3" font-family="Times New Roman,serif" font-size="24.00">Click Search Button</text>
</g>
<!-- EAID_F50B1138_97EA_4fab_8E7D_2D20E19A92FF&#45;&gt;EAID_D662FC5B_F812_4489_954C_B30740ED9342 -->
<g id="edge3" class="edge"><title>EAID_F50B1138_97EA_4fab_8E7D_2D20E19A92FF&#45;&gt;EAID_D662FC5B_F812_4489_954C_B30740ED9342</title>
<path fill="none" stroke="black" d="M81.204,-215.498C102.689,-211.71 130.454,-206.814 158.185,-201.923"/>
<polygon fill="black" stroke="black" points="159.149,-205.307 168.389,-200.124 157.933,-198.414 159.149,-205.307"/>
</g>
<!-- EAID_E1FD0415_E5F7_44da_87F5_1FB8A933D500 -->
<g id="node5" class="node"><title>EAID_E1FD0415_E5F7_44da_87F5_1FB8A933D500</title>
<image xlink:href="img/boundary3.png" width="115px" height="67px" preserveAspectRatio="xMinYMin meet" x="217.5" y="-102.5"/>
<text text-anchor="start" x="127" y="-12.3" font-family="Times New Roman,serif" font-size="24.00">Enter key requirements in filter</text>
</g>
<!-- EAID_F50B1138_97EA_4fab_8E7D_2D20E19A92FF&#45;&gt;EAID_E1FD0415_E5F7_44da_87F5_1FB8A933D500 -->
<g id="edge4" class="edge"><title>EAID_F50B1138_97EA_4fab_8E7D_2D20E19A92FF&#45;&gt;EAID_E1FD0415_E5F7_44da_87F5_1FB8A933D500</title>
<path fill="none" stroke="black" d="M80.2483,-156.466C90.819,-142.266 103.213,-128.3 117,-117.5 118.04,-116.685 119.093,-115.879 120.156,-115.082"/>
<polygon fill="black" stroke="black" points="122.386,-117.792 128.517,-109.152 118.336,-112.083 122.386,-117.792"/>
</g>
<!-- EAID_08281B5A_C69B_40a7_A578_86A898019BB9 -->
<g id="node6" class="node"><title>EAID_08281B5A_C69B_40a7_A578_86A898019BB9</title>
<image xlink:href="img/control1.png" width="106px" height="75px" preserveAspectRatio="xMinYMin meet" x="1289" y="-289.5"/>
<text text-anchor="start" x="1244" y="-191.3" font-family="Times New Roman,serif" font-size="24.00">Call Display Process</text>
</g>
<!-- EAID_89AB145E_3541_459f_80E5_F72C3C7236FB&#45;&gt;EAID_08281B5A_C69B_40a7_A578_86A898019BB9 -->
<g id="edge7" class="edge"><title>EAID_89AB145E_3541_459f_80E5_F72C3C7236FB&#45;&gt;EAID_08281B5A_C69B_40a7_A578_86A898019BB9</title>
<path fill="none" stroke="black" d="M937.608,-240.686C1020.52,-240.031 1137.04,-239.111 1223.54,-238.428"/>
<polygon fill="black" stroke="black" points="1223.7,-241.927 1233.67,-238.348 1223.64,-234.927 1223.7,-241.927"/>
</g>
<!-- EAID_B7B7DF8E_FCAA_44a8_9480_529D63A4E1F3 -->
<g id="node7" class="node"><title>EAID_B7B7DF8E_FCAA_44a8_9480_529D63A4E1F3</title>
<image xlink:href="img/control1.png" width="106px" height="75px" preserveAspectRatio="xMinYMin meet" x="781" y="-162.5"/>
<text text-anchor="start" x="479.5" y="-64.3" font-family="Times New Roman,serif" font-size="24.00">Send the form to backend, and call the function to fetch the suitable results.</text>
</g>
<!-- EAID_D662FC5B_F812_4489_954C_B30740ED9342&#45;&gt;EAID_B7B7DF8E_FCAA_44a8_9480_529D63A4E1F3 -->
<g id="edge8" class="edge"><title>EAID_D662FC5B_F812_4489_954C_B30740ED9342&#45;&gt;EAID_B7B7DF8E_FCAA_44a8_9480_529D63A4E1F3</title>
<path fill="none" stroke="black" d="M381.655,-168.02C405.028,-165.038 431.086,-161.714 458.562,-158.208"/>
<polygon fill="black" stroke="black" points="459.269,-161.646 468.746,-156.909 458.383,-154.703 459.269,-161.646"/>
</g>
<!-- EAID_E1FD0415_E5F7_44da_87F5_1FB8A933D500&#45;&gt;EAID_B7B7DF8E_FCAA_44a8_9480_529D63A4E1F3 -->
<g id="edge9" class="edge"><title>EAID_E1FD0415_E5F7_44da_87F5_1FB8A933D500&#45;&gt;EAID_B7B7DF8E_FCAA_44a8_9480_529D63A4E1F3</title>
<path fill="none" stroke="black" d="M433.239,-70.3228C441.556,-71.1597 450.051,-72.0146 458.687,-72.8836"/>
<polygon fill="black" stroke="black" points="458.586,-76.391 468.886,-73.9099 459.287,-69.4262 458.586,-76.391"/>
</g>
<!-- EAID_08281B5A_C69B_40a7_A578_86A898019BB9&#45;&gt;EAID_9C540344_D0C2_4737_89CA_A52219D725BB -->
<g id="edge5" class="edge"><title>EAID_08281B5A_C69B_40a7_A578_86A898019BB9&#45;&gt;EAID_9C540344_D0C2_4737_89CA_A52219D725BB</title>
<path fill="none" stroke="black" d="M1450.15,-260.196C1458.89,-262.048 1467.57,-263.887 1475.94,-265.66"/>
<polygon fill="black" stroke="black" points="1475.47,-269.137 1485.98,-267.785 1476.92,-262.289 1475.47,-269.137"/>
</g>
<!-- EAID_B7B7DF8E_FCAA_44a8_9480_529D63A4E1F3&#45;&gt;EAID_08281B5A_C69B_40a7_A578_86A898019BB9 -->
<g id="edge6" class="edge"><title>EAID_B7B7DF8E_FCAA_44a8_9480_529D63A4E1F3&#45;&gt;EAID_08281B5A_C69B_40a7_A578_86A898019BB9</title>
<path fill="none" stroke="black" d="M1167.97,-169.012C1178.13,-171.738 1188.16,-174.566 1198,-177.5 1206.62,-180.07 1215.43,-182.992 1224.22,-186.13"/>
<polygon fill="black" stroke="black" points="1223.16,-189.468 1233.76,-189.612 1225.57,-182.893 1223.16,-189.468"/>
</g>
</g>
</svg>
