<?xml version="1.0" encoding="UTF-8" standalone="no"?>
<!DOCTYPE svg PUBLIC "-//W3C//DTD SVG 1.1//EN"
 "http://www.w3.org/Graphics/SVG/1.1/DTD/svg11.dtd">
<!-- Generated by graphviz version 2.38.0 (20140413.2041)
 -->
<!-- Title: g Pages: 1 -->
<svg width="1733pt" height="302pt"
 viewBox="0.00 0.00 1733.00 301.89" xmlns="http://www.w3.org/2000/svg" xmlns:xlink="http://www.w3.org/1999/xlink">
<g id="graph0" class="graph" transform="scale(1 1) rotate(0) translate(4 297.885)">
<title>g</title>
<polygon fill="white" stroke="none" points="-4,4 -4,-297.885 1729,-297.885 1729,4 -4,4"/>
<!-- EAID_0756DA85_A64B_4852_ADF9_96DDEA3EA7A1 -->
<g id="node1" class="node"><title>EAID_0756DA85_A64B_4852_ADF9_96DDEA3EA7A1</title>
<image xlink:href="img/actor1.png" width="61px" height="90px" preserveAspectRatio="xMinYMin meet" x="10.5" y="-168.385"/>
<text text-anchor="start" x="19" y="-55.1851" font-family="Times New Roman,serif" font-size="24.00">User</text>
</g>
<!-- EAID_C8E645B1_2AE2_4032_92E4_9085E2DA7DD9 -->
<g id="node2" class="node"><title>EAID_C8E645B1_2AE2_4032_92E4_9085E2DA7DD9</title>
<image xlink:href="img/boundary3.png" width="115px" height="67px" preserveAspectRatio="xMinYMin meet" x="165.5" y="-156.385"/>
<text text-anchor="start" x="127" y="-66.1851" font-family="Times New Roman,serif" font-size="24.00">Publishes a meeting </text>
</g>
<!-- EAID_0756DA85_A64B_4852_ADF9_96DDEA3EA7A1&#45;&gt;EAID_C8E645B1_2AE2_4032_92E4_9085E2DA7DD9 -->
<g id="edge1" class="edge"><title>EAID_0756DA85_A64B_4852_ADF9_96DDEA3EA7A1&#45;&gt;EAID_C8E645B1_2AE2_4032_92E4_9085E2DA7DD9</title>
<path fill="none" stroke="black" d="M81.1115,-108.385C88.953,-108.385 97.5487,-108.385 106.505,-108.385"/>
<polygon fill="black" stroke="black" points="106.749,-111.885 116.749,-108.385 106.749,-104.885 106.749,-111.885"/>
</g>
<!-- EAID_DA181C68_E4F6_4971_ABEE_B0B35138778C -->
<g id="node3" class="node"><title>EAID_DA181C68_E4F6_4971_ABEE_B0B35138778C</title>
<image xlink:href="img/boundary3.png" width="91px" height="67px" preserveAspectRatio="xMinYMin meet" x="1624.5" y="-112.385"/>
<text text-anchor="start" x="1624.5" y="-22.1851" font-family="Times New Roman,serif" font-size="24.00">Hompage</text>
</g>
<!-- EAID_0756DA85_A64B_4852_ADF9_96DDEA3EA7A1&#45;&gt;EAID_DA181C68_E4F6_4971_ABEE_B0B35138778C -->
<g id="edge2" class="edge"><title>EAID_0756DA85_A64B_4852_ADF9_96DDEA3EA7A1&#45;&gt;EAID_DA181C68_E4F6_4971_ABEE_B0B35138778C</title>
<path fill="none" stroke="black" d="M81.3442,-66.3506C92.032,-57.541 104.204,-49.4076 117,-44.3851 329.037,38.8384 401.215,-21.3851 629,-21.3851 629,-21.3851 629,-21.3851 1080,-21.3851 1301.49,-21.3851 1358.95,-7.57445 1578,-40.3851 1586.53,-41.6622 1595.4,-43.4403 1604.12,-45.4571"/>
<polygon fill="black" stroke="black" points="1603.33,-48.8655 1613.87,-47.8214 1604.98,-42.0627 1603.33,-48.8655"/>
</g>
<!-- EAID_947B6050_65A9_4206_807B_F643D13AF493 -->
<g id="node4" class="node"><title>EAID_947B6050_65A9_4206_807B_F643D13AF493</title>
<image xlink:href="img/boundary3.png" width="115px" height="67px" preserveAspectRatio="xMinYMin meet" x="573" y="-287.385"/>
<text text-anchor="start" x="448" y="-197.185" font-family="Times New Roman,serif" font-size="24.00">Submits a comment to an assigned task</text>
</g>
<!-- EAID_0756DA85_A64B_4852_ADF9_96DDEA3EA7A1&#45;&gt;EAID_947B6050_65A9_4206_807B_F643D13AF493 -->
<g id="edge3" class="edge"><title>EAID_0756DA85_A64B_4852_ADF9_96DDEA3EA7A1&#45;&gt;EAID_947B6050_65A9_4206_807B_F643D13AF493</title>
<path fill="none" stroke="black" d="M81.3576,-148.662C92.131,-157.478 104.339,-165.826 117,-171.385 213.744,-213.861 329.898,-231.642 427.1,-238.462"/>
<polygon fill="black" stroke="black" points="427.136,-241.972 437.347,-239.145 427.602,-234.987 427.136,-241.972"/>
</g>
<!-- EAID_48F8F973_AD65_4931_AF78_5171D196BB65 -->
<g id="node7" class="node"><title>EAID_48F8F973_AD65_4931_AF78_5171D196BB65</title>
<image xlink:href="img/control1.png" width="106px" height="75px" preserveAspectRatio="xMinYMin meet" x="577" y="-160.385"/>
<text text-anchor="start" x="375" y="-62.1851" font-family="Times New Roman,serif" font-size="24.00">Publishes meeting and sends a Parse Push notification </text>
</g>
<!-- EAID_C8E645B1_2AE2_4032_92E4_9085E2DA7DD9&#45;&gt;EAID_48F8F973_AD65_4931_AF78_5171D196BB65 -->
<g id="edge8" class="edge"><title>EAID_C8E645B1_2AE2_4032_92E4_9085E2DA7DD9&#45;&gt;EAID_48F8F973_AD65_4931_AF78_5171D196BB65</title>
<path fill="none" stroke="black" d="M329.088,-108.385C337.432,-108.385 346.066,-108.385 354.909,-108.385"/>
<polygon fill="black" stroke="black" points="354.977,-111.885 364.977,-108.385 354.977,-104.885 354.977,-111.885"/>
</g>
<!-- EAID_79EDD747_E163_4276_A02A_626DFDD4FE84 -->
<g id="node5" class="node"><title>EAID_79EDD747_E163_4276_A02A_626DFDD4FE84</title>
<image xlink:href="img/control1.png" width="106px" height="75px" preserveAspectRatio="xMinYMin meet" x="1026" y="-160.385"/>
<text text-anchor="start" x="941" y="-62.1851" font-family="Times New Roman,serif" font-size="24.00">Adds comment to the minute </text>
</g>
<!-- EAID_947B6050_65A9_4206_807B_F643D13AF493&#45;&gt;EAID_79EDD747_E163_4276_A02A_626DFDD4FE84 -->
<g id="edge6" class="edge"><title>EAID_947B6050_65A9_4206_807B_F643D13AF493&#45;&gt;EAID_79EDD747_E163_4276_A02A_626DFDD4FE84</title>
<path fill="none" stroke="black" d="M822.751,-195.605C847.182,-189.235 871.757,-182.433 895,-175.385 903.619,-172.772 912.425,-169.977 921.285,-167.068"/>
<polygon fill="black" stroke="black" points="922.527,-170.343 930.914,-163.869 920.32,-163.7 922.527,-170.343"/>
</g>
<!-- EAID_30078535_CBEA_4d20_8D1E_5DED186F3957 -->
<g id="node6" class="node"><title>EAID_30078535_CBEA_4d20_8D1E_5DED186F3957</title>
<image xlink:href="img/control1.png" width="106px" height="75px" preserveAspectRatio="xMinYMin meet" x="1368" y="-160.385"/>
<text text-anchor="start" x="1273.5" y="-62.1851" font-family="Times New Roman,serif" font-size="24.00">sends a Parse Push notification </text>
</g>
<!-- EAID_79EDD747_E163_4276_A02A_626DFDD4FE84&#45;&gt;EAID_30078535_CBEA_4d20_8D1E_5DED186F3957 -->
<g id="edge4" class="edge"><title>EAID_79EDD747_E163_4276_A02A_626DFDD4FE84&#45;&gt;EAID_30078535_CBEA_4d20_8D1E_5DED186F3957</title>
<path fill="none" stroke="black" d="M1227.43,-108.385C1235.76,-108.385 1244.17,-108.385 1252.56,-108.385"/>
<polygon fill="black" stroke="black" points="1252.8,-111.885 1262.8,-108.385 1252.8,-104.885 1252.8,-111.885"/>
</g>
<!-- EAID_30078535_CBEA_4d20_8D1E_5DED186F3957&#45;&gt;EAID_DA181C68_E4F6_4971_ABEE_B0B35138778C -->
<g id="edge7" class="edge"><title>EAID_30078535_CBEA_4d20_8D1E_5DED186F3957&#45;&gt;EAID_DA181C68_E4F6_4971_ABEE_B0B35138778C</title>
<path fill="none" stroke="black" d="M1578.28,-80.4569C1587.14,-78.8789 1595.75,-77.3449 1603.91,-75.8907"/>
<polygon fill="black" stroke="black" points="1604.77,-79.2939 1614,-74.0943 1603.54,-72.4024 1604.77,-79.2939"/>
</g>
<!-- EAID_48F8F973_AD65_4931_AF78_5171D196BB65&#45;&gt;EAID_79EDD747_E163_4276_A02A_626DFDD4FE84 -->
<g id="edge5" class="edge"><title>EAID_48F8F973_AD65_4931_AF78_5171D196BB65&#45;&gt;EAID_79EDD747_E163_4276_A02A_626DFDD4FE84</title>
<path fill="none" stroke="black" d="M895.221,-108.385C903.81,-108.385 912.315,-108.385 920.685,-108.385"/>
<polygon fill="black" stroke="black" points="920.823,-111.885 930.823,-108.385 920.823,-104.885 920.823,-111.885"/>
</g>
</g>
</svg>
