<?xml version="1.0" encoding="UTF-8" standalone="no"?>
<!DOCTYPE svg PUBLIC "-//W3C//DTD SVG 1.1//EN"
 "http://www.w3.org/Graphics/SVG/1.1/DTD/svg11.dtd">
<!-- Generated by graphviz version 2.40.1 (20161225.0304)
 -->
<!-- Title: class_diagram Pages: 1 -->
<svg width="3281pt" height="73pt"
 viewBox="0.00 0.00 3281.36 73.00" xmlns="http://www.w3.org/2000/svg" xmlns:xlink="http://www.w3.org/1999/xlink">
<g id="graph0" class="graph" transform="scale(1 1) rotate(0) translate(4 69)">
<title>class_diagram</title>
<polygon fill="#ffffff" stroke="transparent" points="-4,4 -4,-69 3277.3594,-69 3277.3594,4 -4,4"/>
<!-- cfed473f3_af40_46f5_b1be_c2e39b9e591e -->
<g id="cfed473f3_af40_46f5_b1be_c2e39b9e591e" class="node">
<title>cfed473f3_af40_46f5_b1be_c2e39b9e591e</title>
<polygon fill="none" stroke="#000000" points="0,-12.5 0,-52.5 116.7188,-52.5 116.7188,-12.5 0,-12.5"/>
<text text-anchor="middle" x="58.3594" y="-42.1" font-family="Times,serif" font-size="8.00" fill="#000000">AndroidProcesses</text>
<polyline fill="none" stroke="#000000" points="0,-36.5 116.7188,-36.5 "/>
<text text-anchor="start" x="8" y="-26.1" font-family="Times,serif" font-size="8.00" fill="#000000">+ log()</text>
<text text-anchor="start" x="8" y="-18.1" font-family="Times,serif" font-size="8.00" fill="#000000">+ getRunningAppProcessInfo()</text>
</g>
<!-- c7400a252_50c5_4532_90fa_0ea671ef2e59 -->
<g id="c7400a252_50c5_4532_90fa_0ea671ef2e59" class="node">
<title>c7400a252_50c5_4532_90fa_0ea671ef2e59</title>
<polygon fill="none" stroke="#000000" points="134.6973,-14.5 134.6973,-50.5 208.0215,-50.5 208.0215,-14.5 134.6973,-14.5"/>
<text text-anchor="middle" x="171.3594" y="-30.1" font-family="Times,serif" font-size="8.00" fill="#000000">ActivityProcesses</text>
</g>
<!-- cb05c20dc_794e_4c43_b093_3805c30e2bce -->
<g id="cb05c20dc_794e_4c43_b093_3805c30e2bce" class="node">
<title>cb05c20dc_794e_4c43_b093_3805c30e2bce</title>
<polygon fill="none" stroke="#000000" points="225.8105,-14.5 225.8105,-50.5 292.9082,-50.5 292.9082,-14.5 225.8105,-14.5"/>
<text text-anchor="middle" x="259.3594" y="-30.1" font-family="Times,serif" font-size="8.00" fill="#000000">ContentHandler</text>
</g>
<!-- c2f802822_655e_4832_a0b6_01df3481e2df -->
<g id="c2f802822_655e_4832_a0b6_01df3481e2df" class="node">
<title>c2f802822_655e_4832_a0b6_01df3481e2df</title>
<polygon fill="none" stroke="#000000" points="310.918,-14.5 310.918,-50.5 391.8008,-50.5 391.8008,-14.5 310.918,-14.5"/>
<text text-anchor="middle" x="351.3594" y="-39.6" font-family="Times,serif" font-size="8.00" fill="#000000">AndroidAppProcess</text>
<polyline fill="none" stroke="#000000" points="310.918,-33.5 391.8008,-33.5 "/>
<text text-anchor="start" x="318.918" y="-22.6" font-family="Times,serif" font-size="8.00" fill="#000000">&#45; uid:int</text>
<polyline fill="none" stroke="#000000" points="310.918,-16.5 391.8008,-16.5 "/>
</g>
<!-- cd669c934_8ab2_43ec_b4ac_590e13339174 -->
<g id="cd669c934_8ab2_43ec_b4ac_590e13339174" class="node">
<title>cd669c934_8ab2_43ec_b4ac_590e13339174</title>
<polygon fill="none" stroke="#000000" points="410.2559,-14.5 410.2559,-50.5 468.4629,-50.5 468.4629,-14.5 410.2559,-14.5"/>
<text text-anchor="middle" x="439.3594" y="-30.1" font-family="Times,serif" font-size="8.00" fill="#000000">DTDHandler</text>
</g>
<!-- c0c0f964e_9d85_4be4_ad92_449f5d8c9b3a -->
<g id="c0c0f964e_9d85_4be4_ad92_449f5d8c9b3a" class="node">
<title>c0c0f964e_9d85_4be4_ad92_449f5d8c9b3a</title>
<polygon fill="none" stroke="#000000" points="486.3359,-14.5 486.3359,-50.5 642.3828,-50.5 642.3828,-14.5 486.3359,-14.5"/>
<text text-anchor="middle" x="564.3594" y="-39.6" font-family="Times,serif" font-size="8.00" fill="#000000">ControlGroup$1</text>
<polyline fill="none" stroke="#000000" points="486.3359,-33.5 642.3828,-33.5 "/>
<text text-anchor="start" x="494.3359" y="-22.6" font-family="Times,serif" font-size="8.00" fill="#000000">&#45; CREATOR:android.os.Parcelable$Creator</text>
<polyline fill="none" stroke="#000000" points="486.3359,-16.5 642.3828,-16.5 "/>
</g>
<!-- c79bc5693_46b0_4faf_96f7_f0669c22b1f8 -->
<g id="c79bc5693_46b0_4faf_96f7_f0669c22b1f8" class="node">
<title>c79bc5693_46b0_4faf_96f7_f0669c22b1f8</title>
<polygon fill="none" stroke="#000000" points="660.332,-12.5 660.332,-52.5 718.3867,-52.5 718.3867,-12.5 660.332,-12.5"/>
<text text-anchor="middle" x="689.3594" y="-42.1" font-family="Times,serif" font-size="8.00" fill="#000000">Cgroup$1</text>
<polyline fill="none" stroke="#000000" points="660.332,-36.5 718.3867,-36.5 "/>
<text text-anchor="start" x="668.332" y="-26.1" font-family="Times,serif" font-size="8.00" fill="#000000">+ getGroup()</text>
<text text-anchor="start" x="668.332" y="-18.1" font-family="Times,serif" font-size="8.00" fill="#000000">+ get()</text>
</g>
<!-- c301f3760_2cda_416a_a121_9ddae09a5c4e -->
<g id="c301f3760_2cda_416a_a121_9ddae09a5c4e" class="node">
<title>c301f3760_2cda_416a_a121_9ddae09a5c4e</title>
<polygon fill="none" stroke="#000000" points="736.3594,-14.5 736.3594,-50.5 790.3594,-50.5 790.3594,-14.5 736.3594,-14.5"/>
<text text-anchor="middle" x="763.082" y="-35.1" font-family="Times,serif" font-size="8.00" fill="#000000">Stat</text>
<polyline fill="none" stroke="#000000" points="736.3594,-24.5 789.8047,-24.5 "/>
</g>
<!-- c73a6e925_dbac_43c1_8814_e0449e143003 -->
<g id="c73a6e925_dbac_43c1_8814_e0449e143003" class="node">
<title>c73a6e925_dbac_43c1_8814_e0449e143003</title>
<polygon fill="none" stroke="#000000" points="808.3594,-14.5 808.3594,-50.5 862.3594,-50.5 862.3594,-14.5 808.3594,-14.5"/>
<text text-anchor="middle" x="835.1387" y="-35.1" font-family="Times,serif" font-size="8.00" fill="#000000">Status$1</text>
<polyline fill="none" stroke="#000000" points="808.3594,-24.5 861.918,-24.5 "/>
</g>
<!-- c7f4bc52f_a7d1_4b26_9de6_404571bcba7b -->
<g id="c7f4bc52f_a7d1_4b26_9de6_404571bcba7b" class="node">
<title>c7f4bc52f_a7d1_4b26_9de6_404571bcba7b</title>
<polygon fill="none" stroke="#000000" points="880.3594,-14.5 880.3594,-50.5 934.3594,-50.5 934.3594,-14.5 880.3594,-14.5"/>
<text text-anchor="middle" x="906.9141" y="-35.1" font-family="Times,serif" font-size="8.00" fill="#000000">ProcFile</text>
<polyline fill="none" stroke="#000000" points="880.3594,-24.5 933.4688,-24.5 "/>
</g>
<!-- c2c41ae01_3a62_461b_b35d_98f72813ae23 -->
<g id="c2c41ae01_3a62_461b_b35d_98f72813ae23" class="node">
<title>c2c41ae01_3a62_461b_b35d_98f72813ae23</title>
<polygon fill="none" stroke="#000000" points="951.9258,-.5 951.9258,-64.5 1042.793,-64.5 1042.793,-.5 951.9258,-.5"/>
<text text-anchor="middle" x="997.3594" y="-54.1" font-family="Times,serif" font-size="8.00" fill="#000000">AndroidProcess</text>
<polyline fill="none" stroke="#000000" points="951.9258,-48.5 1042.793,-48.5 "/>
<text text-anchor="start" x="959.9258" y="-38.1" font-family="Times,serif" font-size="8.00" fill="#000000">&#45; name:java.lang.String</text>
<polyline fill="none" stroke="#000000" points="951.9258,-32.5 1042.793,-32.5 "/>
<text text-anchor="start" x="959.9258" y="-22.1" font-family="Times,serif" font-size="8.00" fill="#000000">+ status()</text>
<text text-anchor="start" x="959.9258" y="-14.1" font-family="Times,serif" font-size="8.00" fill="#000000">+ cgroup()</text>
<text text-anchor="start" x="959.9258" y="-6.1" font-family="Times,serif" font-size="8.00" fill="#000000">+ stat()</text>
</g>
<!-- c936cd9ad_364b_482c_a477_4d881d0397c9 -->
<g id="c936cd9ad_364b_482c_a477_4d881d0397c9" class="node">
<title>c936cd9ad_364b_482c_a477_4d881d0397c9</title>
<polygon fill="none" stroke="#000000" points="1061.2598,-14.5 1061.2598,-50.5 1175.459,-50.5 1175.459,-14.5 1061.2598,-14.5"/>
<text text-anchor="middle" x="1118.3594" y="-30.1" font-family="Times,serif" font-size="8.00" fill="#000000">SAXNotRecognizedException</text>
</g>
<!-- c4fb3147e_cfbb_4211_8c49_9bb30d147673 -->
<g id="c4fb3147e_cfbb_4211_8c49_9bb30d147673" class="node">
<title>c4fb3147e_cfbb_4211_8c49_9bb30d147673</title>
<polygon fill="none" stroke="#000000" points="1193.0371,-14.5 1193.0371,-50.5 1251.6816,-50.5 1251.6816,-14.5 1193.0371,-14.5"/>
<text text-anchor="middle" x="1222.3594" y="-30.1" font-family="Times,serif" font-size="8.00" fill="#000000">ErrorHandler</text>
</g>
<!-- cf33e03a7_ca86_422d_95de_7e8d8f5b128d -->
<g id="cf33e03a7_ca86_422d_95de_7e8d8f5b128d" class="node">
<title>cf33e03a7_ca86_422d_95de_7e8d8f5b128d</title>
<polygon fill="none" stroke="#000000" points="1269.3594,-14.5 1269.3594,-50.5 1323.3594,-50.5 1323.3594,-14.5 1269.3594,-14.5"/>
<text text-anchor="middle" x="1296.2969" y="-30.1" font-family="Times,serif" font-size="8.00" fill="#000000">Locator</text>
</g>
<!-- cf47e30a5_ea9a_41a3_a233_76d8a9fda8fa -->
<g id="cf47e30a5_ea9a_41a3_a233_76d8a9fda8fa" class="node">
<title>cf47e30a5_ea9a_41a3_a233_76d8a9fda8fa</title>
<polygon fill="none" stroke="#000000" points="1341.0391,-14.5 1341.0391,-50.5 1411.6797,-50.5 1411.6797,-14.5 1341.0391,-14.5"/>
<text text-anchor="middle" x="1376.3594" y="-30.1" font-family="Times,serif" font-size="8.00" fill="#000000">ServiceReader$4</text>
</g>
<!-- ca1ad0e96_4d00_4d27_8526_d60e564fd324 -->
<g id="ca1ad0e96_4d00_4d27_8526_d60e564fd324" class="node">
<title>ca1ad0e96_4d00_4d27_8526_d60e564fd324</title>
<polygon fill="none" stroke="#000000" points="1429.9238,-14.5 1429.9238,-50.5 1498.7949,-50.5 1498.7949,-14.5 1429.9238,-14.5"/>
<text text-anchor="middle" x="1464.3594" y="-30.1" font-family="Times,serif" font-size="8.00" fill="#000000">ProcessManager</text>
</g>
<!-- c1646d09e_9261_4d50_99a7_11d03b351006 -->
<g id="c1646d09e_9261_4d50_99a7_11d03b351006" class="node">
<title>c1646d09e_9261_4d50_99a7_11d03b351006</title>
<polygon fill="none" stroke="#000000" points="1516.3594,-14.5 1516.3594,-50.5 1570.3594,-50.5 1570.3594,-14.5 1516.3594,-14.5"/>
<text text-anchor="middle" x="1543.0273" y="-30.1" font-family="Times,serif" font-size="8.00" fill="#000000">C</text>
</g>
<!-- ce409d702_9418_47fa_93e2_d6c68c0a06e5 -->
<g id="ce409d702_9418_47fa_93e2_d6c68c0a06e5" class="node">
<title>ce409d702_9418_47fa_93e2_d6c68c0a06e5</title>
<polygon fill="none" stroke="#000000" points="1588.3594,-14.5 1588.3594,-50.5 1642.3594,-50.5 1642.3594,-14.5 1588.3594,-14.5"/>
<text text-anchor="middle" x="1615.1934" y="-30.1" font-family="Times,serif" font-size="8.00" fill="#000000">Statm</text>
</g>
<!-- c5e0c9f86_44d5_45fd_9ebf_4ecbc7c43768 -->
<g id="c5e0c9f86_44d5_45fd_9ebf_4ecbc7c43768" class="node">
<title>c5e0c9f86_44d5_45fd_9ebf_4ecbc7c43768</title>
<polygon fill="none" stroke="#000000" points="1660.6973,-14.5 1660.6973,-50.5 1770.0215,-50.5 1770.0215,-14.5 1660.6973,-14.5"/>
<text text-anchor="middle" x="1715.3594" y="-30.1" font-family="Times,serif" font-size="8.00" fill="#000000">SAXNotSupportedException</text>
</g>
<!-- cb8835c2f_661c_47e4_850b_eb5093611254 -->
<g id="cb8835c2f_661c_47e4_850b_eb5093611254" class="node">
<title>cb8835c2f_661c_47e4_850b_eb5093611254</title>
<polygon fill="none" stroke="#000000" points="1788.1445,-14.5 1788.1445,-50.5 1844.5742,-50.5 1844.5742,-14.5 1788.1445,-14.5"/>
<text text-anchor="middle" x="1816.3594" y="-30.1" font-family="Times,serif" font-size="8.00" fill="#000000">XMLReader</text>
</g>
<!-- ce1b5f7f8_6e3f_4100_91a6_84e8f4567446 -->
<g id="ce1b5f7f8_6e3f_4100_91a6_84e8f4567446" class="node">
<title>ce1b5f7f8_6e3f_4100_91a6_84e8f4567446</title>
<polygon fill="none" stroke="#000000" points="1863.0508,-14.5 1863.0508,-50.5 1921.668,-50.5 1921.668,-14.5 1863.0508,-14.5"/>
<text text-anchor="middle" x="1892.3594" y="-30.1" font-family="Times,serif" font-size="8.00" fill="#000000">ViewGraphic</text>
</g>
<!-- c17f0ad9d_76fd_4f8e_a96e_592450fe1fe7 -->
<g id="c17f0ad9d_76fd_4f8e_a96e_592450fe1fe7" class="node">
<title>c17f0ad9d_76fd_4f8e_a96e_592450fe1fe7</title>
<polygon fill="none" stroke="#000000" points="1939.8047,-14.5 1939.8047,-50.5 2002.9141,-50.5 2002.9141,-14.5 1939.8047,-14.5"/>
<text text-anchor="middle" x="1971.3594" y="-30.1" font-family="Times,serif" font-size="8.00" fill="#000000">XmlPullParser</text>
</g>
<!-- c7c2bf644_0b1f_4aae_866c_b4317c144ce7 -->
<g id="c7c2bf644_0b1f_4aae_866c_b4317c144ce7" class="node">
<title>c7c2bf644_0b1f_4aae_866c_b4317c144ce7</title>
<polygon fill="none" stroke="#000000" points="2020.4766,-14.5 2020.4766,-50.5 2102.2422,-50.5 2102.2422,-14.5 2020.4766,-14.5"/>
<text text-anchor="middle" x="2061.3594" y="-30.1" font-family="Times,serif" font-size="8.00" fill="#000000">SAXParseException</text>
</g>
<!-- c030e49d7_11fa_4b9a_99ea_123bde0f434d -->
<g id="c030e49d7_11fa_4b9a_99ea_123bde0f434d" class="node">
<title>c030e49d7_11fa_4b9a_99ea_123bde0f434d</title>
<polygon fill="none" stroke="#000000" points="2120.5762,-14.5 2120.5762,-50.5 2176.1426,-50.5 2176.1426,-14.5 2120.5762,-14.5"/>
<text text-anchor="middle" x="2148.3594" y="-30.1" font-family="Times,serif" font-size="8.00" fill="#000000">BuildConfig</text>
</g>
<!-- c7e7901d7_a2d7_45eb_9eaf_3b8e37e25a25 -->
<g id="c7e7901d7_a2d7_45eb_9eaf_3b8e37e25a25" class="node">
<title>c7e7901d7_a2d7_45eb_9eaf_3b8e37e25a25</title>
<polygon fill="none" stroke="#000000" points="2193.8066,-14.5 2193.8066,-50.5 2264.9121,-50.5 2264.9121,-14.5 2193.8066,-14.5"/>
<text text-anchor="middle" x="2229.3594" y="-30.1" font-family="Times,serif" font-size="8.00" fill="#000000">ActivityMain$19</text>
</g>
<!-- ca9bf288f_622c_45b8_9d52_11d096e0eadb -->
<g id="ca9bf288f_622c_45b8_9d52_11d096e0eadb" class="node">
<title>ca9bf288f_622c_45b8_9d52_11d096e0eadb</title>
<polygon fill="none" stroke="#000000" points="2283.3633,-14.5 2283.3633,-50.5 2347.3555,-50.5 2347.3555,-14.5 2283.3633,-14.5"/>
<text text-anchor="middle" x="2315.3594" y="-30.1" font-family="Times,serif" font-size="8.00" fill="#000000">EntityResolver</text>
</g>
<!-- c47303c82_4397_443b_b17a_005473a740f1 -->
<g id="c47303c82_4397_443b_b17a_005473a740f1" class="node">
<title>c47303c82_4397_443b_b17a_005473a740f1</title>
<polygon fill="none" stroke="#000000" points="2365.3594,-14.5 2365.3594,-50.5 2419.3594,-50.5 2419.3594,-14.5 2365.3594,-14.5"/>
<text text-anchor="middle" x="2392.0273" y="-30.1" font-family="Times,serif" font-size="8.00" fill="#000000">R</text>
</g>
<!-- c8f522542_2cc3_4357_b7dd_ee4a116960d6 -->
<g id="c8f522542_2cc3_4357_b7dd_ee4a116960d6" class="node">
<title>c8f522542_2cc3_4357_b7dd_ee4a116960d6</title>
<polygon fill="none" stroke="#000000" points="2437.1406,-14.5 2437.1406,-50.5 2501.5781,-50.5 2501.5781,-14.5 2437.1406,-14.5"/>
<text text-anchor="middle" x="2469.3594" y="-30.1" font-family="Times,serif" font-size="8.00" fill="#000000">SAXException</text>
</g>
<!-- cb5691c65_6418_429b_bcdc_904264aefd1c -->
<g id="cb5691c65_6418_429b_bcdc_904264aefd1c" class="node">
<title>cb5691c65_6418_429b_bcdc_904264aefd1c</title>
<polygon fill="none" stroke="#000000" points="2519.8086,-14.5 2519.8086,-50.5 2574.9102,-50.5 2574.9102,-14.5 2519.8086,-14.5"/>
<text text-anchor="middle" x="2547.3594" y="-30.1" font-family="Times,serif" font-size="8.00" fill="#000000">InputSource</text>
</g>
<!-- cf8034533_e405_4f0f_b130_180026e6e52b -->
<g id="cf8034533_e405_4f0f_b130_180026e6e52b" class="node">
<title>cf8034533_e405_4f0f_b130_180026e6e52b</title>
<polygon fill="none" stroke="#000000" points="2593.3594,-14.5 2593.3594,-50.5 2647.3594,-50.5 2647.3594,-14.5 2593.3594,-14.5"/>
<text text-anchor="middle" x="2620.0254" y="-30.1" font-family="Times,serif" font-size="8.00" fill="#000000">R$layout</text>
</g>
<!-- cd57f1897_2993_4b36_bd6b_8cc1c28c3fc2 -->
<g id="cd57f1897_2993_4b36_bd6b_8cc1c28c3fc2" class="node">
<title>cd57f1897_2993_4b36_bd6b_8cc1c28c3fc2</title>
<polygon fill="none" stroke="#000000" points="2665.5879,-14.5 2665.5879,-50.5 2761.1309,-50.5 2761.1309,-14.5 2665.5879,-14.5"/>
<text text-anchor="middle" x="2713.3594" y="-30.1" font-family="Times,serif" font-size="8.00" fill="#000000">XmlPullParserException</text>
</g>
<!-- cd4004408_d405_4807_a1b4_51b182ffe32e -->
<g id="cd4004408_d405_4807_a1b4_51b182ffe32e" class="node">
<title>cd4004408_d405_4807_a1b4_51b182ffe32e</title>
<polygon fill="none" stroke="#000000" points="2778.7012,-14.5 2778.7012,-50.5 2876.0176,-50.5 2876.0176,-14.5 2778.7012,-14.5"/>
<text text-anchor="middle" x="2827.3594" y="-30.1" font-family="Times,serif" font-size="8.00" fill="#000000">LinearLayoutCustomised</text>
</g>
<!-- c57d0d745_7959_4d24_be8d_fcadd67b65af -->
<g id="c57d0d745_7959_4d24_be8d_fcadd67b65af" class="node">
<title>c57d0d745_7959_4d24_be8d_fcadd67b65af</title>
<polygon fill="none" stroke="#000000" points="2894.4746,-14.5 2894.4746,-50.5 2960.2441,-50.5 2960.2441,-14.5 2894.4746,-14.5"/>
<text text-anchor="middle" x="2927.3594" y="-30.1" font-family="Times,serif" font-size="8.00" fill="#000000">ActivityHelp$1</text>
</g>
<!-- c0bf65e5d_97fd_4a2f_91a3_de19a351f20f -->
<g id="c0bf65e5d_97fd_4a2f_91a3_de19a351f20f" class="node">
<title>c0bf65e5d_97fd_4a2f_91a3_de19a351f20f</title>
<polygon fill="none" stroke="#000000" points="2978.25,-14.5 2978.25,-50.5 3048.4688,-50.5 3048.4688,-14.5 2978.25,-14.5"/>
<text text-anchor="middle" x="3013.3594" y="-30.1" font-family="Times,serif" font-size="8.00" fill="#000000">ActivityAbout$2</text>
</g>
<!-- cb3b66284_4131_4f16_979c_189411dcb1d6 -->
<g id="cb3b66284_4131_4f16_979c_189411dcb1d6" class="node">
<title>cb3b66284_4131_4f16_979c_189411dcb1d6</title>
<polygon fill="none" stroke="#000000" points="3066.9238,-14.5 3066.9238,-50.5 3127.7949,-50.5 3127.7949,-14.5 3066.9238,-14.5"/>
<text text-anchor="middle" x="3097.3594" y="-30.1" font-family="Times,serif" font-size="8.00" fill="#000000">XmlSerializer</text>
</g>
<!-- c83d958ae_d623_4dab_a51a_6f2975eb8297 -->
<g id="c83d958ae_d623_4dab_a51a_6f2975eb8297" class="node">
<title>c83d958ae_d623_4dab_a51a_6f2975eb8297</title>
<polygon fill="none" stroke="#000000" points="3145.5762,-14.5 3145.5762,-50.5 3201.1426,-50.5 3201.1426,-14.5 3145.5762,-14.5"/>
<text text-anchor="middle" x="3173.3594" y="-30.1" font-family="Times,serif" font-size="8.00" fill="#000000">BuildConfig</text>
</g>
<!-- cd439e74a_6f97_4cf4_a3f7_884b7a39d63a -->
<g id="cd439e74a_6f97_4cf4_a3f7_884b7a39d63a" class="node">
<title>cd439e74a_6f97_4cf4_a3f7_884b7a39d63a</title>
<polygon fill="none" stroke="#000000" points="3219.3594,-14.5 3219.3594,-50.5 3273.3594,-50.5 3273.3594,-14.5 3219.3594,-14.5"/>
<text text-anchor="middle" x="3246.3574" y="-30.1" font-family="Times,serif" font-size="8.00" fill="#000000">Attributes</text>
</g>
</g>
</svg>
