<?xml version="1.0" encoding="UTF-8" standalone="no"?>
<!DOCTYPE svg PUBLIC "-//W3C//DTD SVG 1.1//EN"
 "http://www.w3.org/Graphics/SVG/1.1/DTD/svg11.dtd">
<!-- Generated by graphviz version 2.38.0 (20140413.2041)
 -->
<!-- Title: g Pages: 1 -->
<svg width="2185pt" height="429pt"
 viewBox="0.00 0.00 2185.00 428.89" xmlns="http://www.w3.org/2000/svg" xmlns:xlink="http://www.w3.org/1999/xlink">
<g id="graph0" class="graph" transform="scale(1 1) rotate(0) translate(4 424.891)">
<title>g</title>
<polygon fill="white" stroke="none" points="-4,4 -4,-424.891 2181,-424.891 2181,4 -4,4"/>
<!-- EAID_AF73B28E_8625_4b64_B59F_424FF7195AF4 -->
<g id="node1" class="node"><title>EAID_AF73B28E_8625_4b64_B59F_424FF7195AF4</title>
<image xlink:href="img/actor1.png" width="61px" height="90px" preserveAspectRatio="xMinYMin meet" x="10.5" y="-370.5"/>
<text text-anchor="start" x="19" y="-257.3" font-family="Times New Roman,serif" font-size="24.00">User</text>
</g>
<!-- EAID_A43037C3_18F7_4477_900A_091558D33D18 -->
<g id="node2" class="node"><title>EAID_A43037C3_18F7_4477_900A_091558D33D18</title>
<image xlink:href="img/boundary3.png" width="115px" height="67px" preserveAspectRatio="xMinYMin meet" x="1999.5" y="-407.5"/>
<text text-anchor="start" x="1947" y="-317.3" font-family="Times New Roman,serif" font-size="24.00">success message to user</text>
</g>
<!-- EAID_AF73B28E_8625_4b64_B59F_424FF7195AF4&#45;&gt;EAID_A43037C3_18F7_4477_900A_091558D33D18 -->
<g id="edge1" class="edge"><title>EAID_AF73B28E_8625_4b64_B59F_424FF7195AF4&#45;&gt;EAID_A43037C3_18F7_4477_900A_091558D33D18</title>
<path fill="none" stroke="black" d="M81.2656,-350.99C92.0413,-359.8 104.273,-368.093 117,-373.5 276.235,-441.151 330.99,-415.5 504,-415.5 504,-415.5 504,-415.5 1342.5,-415.5 1547.26,-415.5 1784.07,-392.294 1926.81,-375.759"/>
<polygon fill="black" stroke="black" points="1927.4,-379.215 1936.92,-374.581 1926.59,-372.262 1927.4,-379.215"/>
</g>
<!-- EAID_04B6014C_5698_43a8_A60C_A33BA821D697 -->
<g id="node3" class="node"><title>EAID_04B6014C_5698_43a8_A60C_A33BA821D697</title>
<image xlink:href="img/boundary3.png" width="115px" height="67px" preserveAspectRatio="xMinYMin meet" x="130.5" y="-358.5"/>
<text text-anchor="start" x="127.5" y="-268.3" font-family="Times New Roman,serif" font-size="24.00">Share button</text>
</g>
<!-- EAID_AF73B28E_8625_4b64_B59F_424FF7195AF4&#45;&gt;EAID_04B6014C_5698_43a8_A60C_A33BA821D697 -->
<g id="edge2" class="edge"><title>EAID_AF73B28E_8625_4b64_B59F_424FF7195AF4&#45;&gt;EAID_04B6014C_5698_43a8_A60C_A33BA821D697</title>
<path fill="none" stroke="black" d="M81.1219,-310.5C89.1637,-310.5 97.8903,-310.5 106.763,-310.5"/>
<polygon fill="black" stroke="black" points="106.814,-314 116.814,-310.5 106.814,-307 106.814,-314"/>
</g>
<!-- EAID_19ECB375_AC31_4508_AB1C_E0C5DE7AA8CD -->
<g id="node4" class="node"><title>EAID_19ECB375_AC31_4508_AB1C_E0C5DE7AA8CD</title>
<image xlink:href="img/boundary3.png" width="115px" height="67px" preserveAspectRatio="xMinYMin meet" x="868.5" y="-259.5"/>
<text text-anchor="start" x="762" y="-169.3" font-family="Times New Roman,serif" font-size="24.00">List of users with their permissions</text>
</g>
<!-- EAID_AF73B28E_8625_4b64_B59F_424FF7195AF4&#45;&gt;EAID_19ECB375_AC31_4508_AB1C_E0C5DE7AA8CD -->
<g id="edge3" class="edge"><title>EAID_AF73B28E_8625_4b64_B59F_424FF7195AF4&#45;&gt;EAID_19ECB375_AC31_4508_AB1C_E0C5DE7AA8CD</title>
<path fill="none" stroke="black" d="M81.3385,-268.451C92.0265,-259.642 104.2,-251.512 117,-246.5 319.7,-167.129 573.232,-171.057 741.683,-186.501"/>
<polygon fill="black" stroke="black" points="741.364,-189.986 751.648,-187.437 742.019,-183.017 741.364,-189.986"/>
</g>
<!-- EAID_040A6B86_AF50_4364_9F46_8EB3E91AB416 -->
<g id="node9" class="node"><title>EAID_040A6B86_AF50_4364_9F46_8EB3E91AB416</title>
<image xlink:href="img/control1.png" width="106px" height="75px" preserveAspectRatio="xMinYMin meet" x="452" y="-362.5"/>
<text text-anchor="start" x="304" y="-264.3" font-family="Times New Roman,serif" font-size="24.00">display a list of users with their permission</text>
</g>
<!-- EAID_04B6014C_5698_43a8_A60C_A33BA821D697&#45;&gt;EAID_040A6B86_AF50_4364_9F46_8EB3E91AB416 -->
<g id="edge12" class="edge"><title>EAID_04B6014C_5698_43a8_A60C_A33BA821D697&#45;&gt;EAID_040A6B86_AF50_4364_9F46_8EB3E91AB416</title>
<path fill="none" stroke="black" d="M258.128,-310.5C266.237,-310.5 274.803,-310.5 283.685,-310.5"/>
<polygon fill="black" stroke="black" points="283.839,-314 293.839,-310.5 283.839,-307 283.839,-314"/>
</g>
<!-- EAID_128B9393_E328_4410_A218_A8ED087BD193 -->
<g id="node6" class="node"><title>EAID_128B9393_E328_4410_A218_A8ED087BD193</title>
<image xlink:href="img/control1.png" width="106px" height="75px" preserveAspectRatio="xMinYMin meet" x="1289" y="-380.5"/>
<text text-anchor="start" x="1146.5" y="-282.3" font-family="Times New Roman,serif" font-size="24.00">compute average of a given subset of user</text>
</g>
<!-- EAID_19ECB375_AC31_4508_AB1C_E0C5DE7AA8CD&#45;&gt;EAID_128B9393_E328_4410_A218_A8ED087BD193 -->
<g id="edge8" class="edge"><title>EAID_19ECB375_AC31_4508_AB1C_E0C5DE7AA8CD&#45;&gt;EAID_128B9393_E328_4410_A218_A8ED087BD193</title>
<path fill="none" stroke="black" d="M1100.26,-260.525C1108.78,-262.935 1117.38,-265.367 1125.99,-267.804"/>
<polygon fill="black" stroke="black" points="1125.14,-271.201 1135.72,-270.556 1127.05,-264.466 1125.14,-271.201"/>
</g>
<!-- EAID_9B91E653_8950_46d0_9A4B_DAA6AAA6EECA -->
<g id="node7" class="node"><title>EAID_9B91E653_8950_46d0_9A4B_DAA6AAA6EECA</title>
<image xlink:href="img/control1.png" width="106px" height="75px" preserveAspectRatio="xMinYMin meet" x="1288.5" y="-245.5"/>
<text text-anchor="start" x="1161.5" y="-147.3" font-family="Times New Roman,serif" font-size="24.00">Updates DB with new permission info</text>
</g>
<!-- EAID_19ECB375_AC31_4508_AB1C_E0C5DE7AA8CD&#45;&gt;EAID_9B91E653_8950_46d0_9A4B_DAA6AAA6EECA -->
<g id="edge10" class="edge"><title>EAID_19ECB375_AC31_4508_AB1C_E0C5DE7AA8CD&#45;&gt;EAID_9B91E653_8950_46d0_9A4B_DAA6AAA6EECA</title>
<path fill="none" stroke="black" d="M1100.26,-203.958C1113.88,-203.365 1127.69,-202.764 1141.46,-202.164"/>
<polygon fill="black" stroke="black" points="1141.64,-205.66 1151.47,-201.728 1141.33,-198.667 1141.64,-205.66"/>
</g>
<!-- EAID_F81A141A_4FAD_4ddf_9744_D5A38C6CA54F -->
<g id="node8" class="node"><title>EAID_F81A141A_4FAD_4ddf_9744_D5A38C6CA54F</title>
<image xlink:href="img/control1.png" width="106px" height="75px" preserveAspectRatio="xMinYMin meet" x="1289" y="-110.5"/>
<text text-anchor="start" x="1197.5" y="-12.3" font-family="Times New Roman,serif" font-size="24.00">remove permission in database</text>
</g>
<!-- EAID_19ECB375_AC31_4508_AB1C_E0C5DE7AA8CD&#45;&gt;EAID_F81A141A_4FAD_4ddf_9744_D5A38C6CA54F -->
<g id="edge9" class="edge"><title>EAID_19ECB375_AC31_4508_AB1C_E0C5DE7AA8CD&#45;&gt;EAID_F81A141A_4FAD_4ddf_9744_D5A38C6CA54F</title>
<path fill="none" stroke="black" d="M1055.46,-156.898C1081.95,-146.13 1109.77,-135.178 1136,-125.5 1149.31,-120.587 1163.18,-115.658 1177.14,-110.824"/>
<polygon fill="black" stroke="black" points="1178.5,-114.058 1186.81,-107.494 1176.22,-107.439 1178.5,-114.058"/>
</g>
<!-- EAID_831AF6D6_6BA7_4d32_AFD5_54D8FB12388D -->
<g id="node5" class="node"><title>EAID_831AF6D6_6BA7_4d32_AFD5_54D8FB12388D</title>
<image xlink:href="img/control1.png" width="106px" height="75px" preserveAspectRatio="xMinYMin meet" x="1689" y="-300.5"/>
<text text-anchor="start" x="1593" y="-202.3" font-family="Times New Roman,serif" font-size="24.00">Display success message to user</text>
</g>
<!-- EAID_831AF6D6_6BA7_4d32_AFD5_54D8FB12388D&#45;&gt;EAID_A43037C3_18F7_4477_900A_091558D33D18 -->
<g id="edge4" class="edge"><title>EAID_831AF6D6_6BA7_4d32_AFD5_54D8FB12388D&#45;&gt;EAID_A43037C3_18F7_4477_900A_091558D33D18</title>
<path fill="none" stroke="black" d="M1901.33,-304.65C1910.04,-307.737 1918.73,-310.821 1927.31,-313.864"/>
<polygon fill="black" stroke="black" points="1926.35,-317.236 1936.95,-317.28 1928.69,-310.638 1926.35,-317.236"/>
</g>
<!-- EAID_128B9393_E328_4410_A218_A8ED087BD193&#45;&gt;EAID_831AF6D6_6BA7_4d32_AFD5_54D8FB12388D -->
<g id="edge5" class="edge"><title>EAID_128B9393_E328_4410_A218_A8ED087BD193&#45;&gt;EAID_831AF6D6_6BA7_4d32_AFD5_54D8FB12388D</title>
<path fill="none" stroke="black" d="M1547,-287.445C1555.66,-285.708 1564.3,-283.974 1572.86,-282.255"/>
<polygon fill="black" stroke="black" points="1573.75,-285.645 1582.87,-280.245 1572.38,-278.782 1573.75,-285.645"/>
</g>
<!-- EAID_9B91E653_8950_46d0_9A4B_DAA6AAA6EECA&#45;&gt;EAID_831AF6D6_6BA7_4d32_AFD5_54D8FB12388D -->
<g id="edge6" class="edge"><title>EAID_9B91E653_8950_46d0_9A4B_DAA6AAA6EECA&#45;&gt;EAID_831AF6D6_6BA7_4d32_AFD5_54D8FB12388D</title>
<path fill="none" stroke="black" d="M1531.54,-219.591C1545.37,-221.499 1559.26,-223.417 1572.95,-225.307"/>
<polygon fill="black" stroke="black" points="1572.5,-228.777 1582.89,-226.677 1573.46,-221.843 1572.5,-228.777"/>
</g>
<!-- EAID_F81A141A_4FAD_4ddf_9744_D5A38C6CA54F&#45;&gt;EAID_831AF6D6_6BA7_4d32_AFD5_54D8FB12388D -->
<g id="edge7" class="edge"><title>EAID_F81A141A_4FAD_4ddf_9744_D5A38C6CA54F&#45;&gt;EAID_831AF6D6_6BA7_4d32_AFD5_54D8FB12388D</title>
<path fill="none" stroke="black" d="M1496.01,-104.163C1513.46,-110.71 1530.78,-117.848 1547,-125.5 1582.09,-142.058 1618.54,-163.799 1650.24,-184.39"/>
<polygon fill="black" stroke="black" points="1648.33,-187.327 1658.62,-189.879 1652.17,-181.472 1648.33,-187.327"/>
</g>
<!-- EAID_544869F7_A26D_435d_A29F_24C5F0959EEC -->
<g id="node11" class="node"><title>EAID_544869F7_A26D_435d_A29F_24C5F0959EEC</title>
<image xlink:href="img/activity_icon.png" width="28px" height="20px" preserveAspectRatio="xMinYMin meet" x="1728" y="-83.5"/>
<text text-anchor="start" x="1728" y="-41.3" font-family="Times New Roman,serif" font-weight="bold" font-size="24.00">db</text>
</g>
<!-- EAID_F81A141A_4FAD_4ddf_9744_D5A38C6CA54F&#45;&gt;EAID_544869F7_A26D_435d_A29F_24C5F0959EEC -->
<g id="edge14" class="edge"><title>EAID_F81A141A_4FAD_4ddf_9744_D5A38C6CA54F&#45;&gt;EAID_544869F7_A26D_435d_A29F_24C5F0959EEC</title>
<path fill="none" stroke="black" d="M1496,-58.5C1572.03,-58.5 1657.46,-58.5 1704.68,-58.5"/>
<polygon fill="black" stroke="black" points="1704.72,-62.0001 1714.72,-58.5 1704.72,-55.0001 1704.72,-62.0001"/>
</g>
<!-- EAID_040A6B86_AF50_4364_9F46_8EB3E91AB416&#45;&gt;EAID_19ECB375_AC31_4508_AB1C_E0C5DE7AA8CD -->
<g id="edge11" class="edge"><title>EAID_040A6B86_AF50_4364_9F46_8EB3E91AB416&#45;&gt;EAID_19ECB375_AC31_4508_AB1C_E0C5DE7AA8CD</title>
<path fill="none" stroke="black" d="M716.114,-260.855C724.699,-258.826 733.283,-256.798 741.809,-254.784"/>
<polygon fill="black" stroke="black" points="742.859,-258.132 751.786,-252.427 741.249,-251.32 742.859,-258.132"/>
</g>
<!-- EAID_DDA2AAE0_769B_4f37_80A8_D4F41D737919 -->
<g id="node10" class="node"><title>EAID_DDA2AAE0_769B_4f37_80A8_D4F41D737919</title>
<image xlink:href="img/activity_icon.png" width="30px" height="20px" preserveAspectRatio="xMinYMin meet" x="911" y="-340.5"/>
<text text-anchor="start" x="902" y="-298.3" font-family="Times New Roman,serif" font-weight="bold" font-size="24.00">User</text>
</g>
<!-- EAID_040A6B86_AF50_4364_9F46_8EB3E91AB416&#45;&gt;EAID_DDA2AAE0_769B_4f37_80A8_D4F41D737919 -->
<g id="edge13" class="edge"><title>EAID_040A6B86_AF50_4364_9F46_8EB3E91AB416&#45;&gt;EAID_DDA2AAE0_769B_4f37_80A8_D4F41D737919</title>
<path fill="none" stroke="black" d="M716.114,-313.007C778.906,-313.757 841.625,-314.505 881.706,-314.983"/>
<polygon fill="black" stroke="black" points="881.852,-318.485 891.893,-315.105 881.935,-311.486 881.852,-318.485"/>
</g>
</g>
</svg>
