<?xml version="1.0" encoding="UTF-8" standalone="no"?>
<!DOCTYPE svg PUBLIC "-//W3C//DTD SVG 1.1//EN"
 "http://www.w3.org/Graphics/SVG/1.1/DTD/svg11.dtd">
<!-- Generated by graphviz version 2.38.0 (20140413.2041)
 -->
<!-- Title: g Pages: 1 -->
<svg width="1601pt" height="408pt"
 viewBox="0.00 0.00 1601.00 407.68" xmlns="http://www.w3.org/2000/svg" xmlns:xlink="http://www.w3.org/1999/xlink">
<g id="graph0" class="graph" transform="scale(1 1) rotate(0) translate(4 403.675)">
<title>g</title>
<polygon fill="white" stroke="none" points="-4,4 -4,-403.675 1597,-403.675 1597,4 -4,4"/>
<!-- EAID_2FAD1738_E8B4_4463_B60E_9C6CC0787DDF -->
<g id="node1" class="node"><title>EAID_2FAD1738_E8B4_4463_B60E_9C6CC0787DDF</title>
<image xlink:href="img/control1.png" width="106px" height="75px" preserveAspectRatio="xMinYMin meet" x="627" y="-120"/>
<text text-anchor="start" x="533" y="-21.8" font-family="Times New Roman,serif" font-size="24.00">send email including credential</text>
</g>
<!-- EAID_DF642E42_4955_42ad_BC1D_BDB758FBDC1A -->
<g id="node2" class="node"><title>EAID_DF642E42_4955_42ad_BC1D_BDB758FBDC1A</title>
<image xlink:href="img/actor1.png" width="82px" height="90px" preserveAspectRatio="xMinYMin meet" x="1002" y="-126"/>
<text text-anchor="start" x="970.5" y="-12.8" font-family="Times New Roman,serif" font-size="24.00">Email Protocol</text>
</g>
<!-- EAID_2FAD1738_E8B4_4463_B60E_9C6CC0787DDF&#45;&gt;EAID_DF642E42_4955_42ad_BC1D_BDB758FBDC1A -->
<g id="edge1" class="edge"><title>EAID_2FAD1738_E8B4_4463_B60E_9C6CC0787DDF&#45;&gt;EAID_DF642E42_4955_42ad_BC1D_BDB758FBDC1A</title>
<path fill="none" stroke="black" d="M837.024,-67.1344C875.308,-66.922 915.077,-66.7014 949.253,-66.5118"/>
<polygon fill="black" stroke="black" points="949.692,-70.0095 959.672,-66.454 949.653,-63.0096 949.692,-70.0095"/>
</g>
<!-- EAID_9A975BE9_0F18_4be4_8D96_504954C5331F -->
<g id="node3" class="node"><title>EAID_9A975BE9_0F18_4be4_8D96_504954C5331F</title>
<image xlink:href="img/actor1.png" width="61px" height="90px" preserveAspectRatio="xMinYMin meet" x="10.5" y="-260"/>
<text text-anchor="start" x="19" y="-146.8" font-family="Times New Roman,serif" font-size="24.00">User</text>
</g>
<!-- EAID_7CDF4B18_D159_4400_8D59_C27718800C59 -->
<g id="node4" class="node"><title>EAID_7CDF4B18_D159_4400_8D59_C27718800C59</title>
<image xlink:href="img/boundary3.png" width="114px" height="67px" preserveAspectRatio="xMinYMin meet" x="245" y="-291"/>
<text text-anchor="start" x="245" y="-200.8" font-family="Times New Roman,serif" font-size="24.00">Feature List</text>
</g>
<!-- EAID_9A975BE9_0F18_4be4_8D96_504954C5331F&#45;&gt;EAID_7CDF4B18_D159_4400_8D59_C27718800C59 -->
<g id="edge2" class="edge"><title>EAID_9A975BE9_0F18_4be4_8D96_504954C5331F&#45;&gt;EAID_7CDF4B18_D159_4400_8D59_C27718800C59</title>
<path fill="none" stroke="black" d="M81.1949,-206.578C119.224,-212.879 177.619,-222.555 224.664,-230.351"/>
<polygon fill="black" stroke="black" points="224.386,-233.852 234.824,-232.034 225.53,-226.947 224.386,-233.852"/>
</g>
<!-- EAID_C977BAC8_37D2_40a6_A45E_987F5A9879E4 -->
<g id="node5" class="node"><title>EAID_C977BAC8_37D2_40a6_A45E_987F5A9879E4</title>
<image xlink:href="img/boundary3.png" width="115px" height="67px" preserveAspectRatio="xMinYMin meet" x="985.5" y="-253"/>
<text text-anchor="start" x="883.5" y="-162.8" font-family="Times New Roman,serif" font-size="24.00">Invalid information error message</text>
</g>
<!-- EAID_9A975BE9_0F18_4be4_8D96_504954C5331F&#45;&gt;EAID_C977BAC8_37D2_40a6_A45E_987F5A9879E4 -->
<g id="edge3" class="edge"><title>EAID_9A975BE9_0F18_4be4_8D96_504954C5331F&#45;&gt;EAID_C977BAC8_37D2_40a6_A45E_987F5A9879E4</title>
<path fill="none" stroke="black" d="M81.0481,-186.868C92.5142,-183.645 105.141,-180.648 117,-179 433.954,-134.946 517.739,-155.245 837,-177 845.416,-177.573 854.013,-178.278 862.686,-179.085"/>
<polygon fill="black" stroke="black" points="862.606,-182.594 872.898,-180.078 863.283,-175.627 862.606,-182.594"/>
</g>
<!-- EAID_37C24C30_8CD0_46d0_A682_593B2BB24548 -->
<g id="node6" class="node"><title>EAID_37C24C30_8CD0_46d0_A682_593B2BB24548</title>
<image xlink:href="img/boundary3.png" width="115px" height="67px" preserveAspectRatio="xMinYMin meet" x="244.5" y="-119"/>
<text text-anchor="start" x="127" y="-28.8" font-family="Times New Roman,serif" font-size="24.00">Forgotten username or password link</text>
</g>
<!-- EAID_9A975BE9_0F18_4be4_8D96_504954C5331F&#45;&gt;EAID_37C24C30_8CD0_46d0_A682_593B2BB24548 -->
<g id="edge4" class="edge"><title>EAID_9A975BE9_0F18_4be4_8D96_504954C5331F&#45;&gt;EAID_37C24C30_8CD0_46d0_A682_593B2BB24548</title>
<path fill="none" stroke="black" d="M81.3331,-167.452C92.4844,-159.187 104.88,-150.747 117,-144 125.671,-139.174 134.726,-134.507 143.969,-130.026"/>
<polygon fill="black" stroke="black" points="145.738,-133.061 153.268,-125.608 142.734,-126.738 145.738,-133.061"/>
</g>
<!-- EAID_3CA284C8_BB7D_4206_8042_5A0AAE3870A1 -->
<g id="node7" class="node"><title>EAID_3CA284C8_BB7D_4206_8042_5A0AAE3870A1</title>
<image xlink:href="img/boundary3.png" width="115px" height="67px" preserveAspectRatio="xMinYMin meet" x="985.5" y="-380"/>
<text text-anchor="start" x="980.5" y="-289.8" font-family="Times New Roman,serif" font-size="24.00">feature detail</text>
</g>
<!-- EAID_9A975BE9_0F18_4be4_8D96_504954C5331F&#45;&gt;EAID_3CA284C8_BB7D_4206_8042_5A0AAE3870A1 -->
<g id="edge5" class="edge"><title>EAID_9A975BE9_0F18_4be4_8D96_504954C5331F&#45;&gt;EAID_3CA284C8_BB7D_4206_8042_5A0AAE3870A1</title>
<path fill="none" stroke="black" d="M74.4826,-266.052C85.7099,-281.892 99.8558,-296.855 117,-306 395.334,-454.46 790.945,-390.368 959.907,-352.526"/>
<polygon fill="black" stroke="black" points="960.753,-355.923 969.731,-350.297 959.205,-349.096 960.753,-355.923"/>
</g>
<!-- EAID_F572FCDE_0297_43ad_9695_795D0DCBBFBF -->
<g id="node8" class="node"><title>EAID_F572FCDE_0297_43ad_9695_795D0DCBBFBF</title>
<image xlink:href="img/control1.png" width="106px" height="75px" preserveAspectRatio="xMinYMin meet" x="627" y="-297"/>
<text text-anchor="start" x="570" y="-198.8" font-family="Times New Roman,serif" font-size="24.00">redirect to feature page</text>
</g>
<!-- EAID_7CDF4B18_D159_4400_8D59_C27718800C59&#45;&gt;EAID_F572FCDE_0297_43ad_9695_795D0DCBBFBF -->
<g id="edge6" class="edge"><title>EAID_7CDF4B18_D159_4400_8D59_C27718800C59&#45;&gt;EAID_F572FCDE_0297_43ad_9695_795D0DCBBFBF</title>
<path fill="none" stroke="black" d="M369.356,-243.353C419.183,-243.618 488.988,-243.989 549.71,-244.312"/>
<polygon fill="black" stroke="black" points="549.743,-247.812 559.762,-244.366 549.781,-240.813 549.743,-247.812"/>
</g>
<!-- EAID_91340945_3ADF_47e2_9B65_519DBA6261BB -->
<g id="node9" class="node"><title>EAID_91340945_3ADF_47e2_9B65_519DBA6261BB</title>
<image xlink:href="img/control1.png" width="106px" height="75px" preserveAspectRatio="xMinYMin meet" x="1302" y="-320"/>
<text text-anchor="start" x="1258" y="-221.8" font-family="Times New Roman,serif" font-size="24.00">update feature detail</text>
</g>
<!-- EAID_C977BAC8_37D2_40a6_A45E_987F5A9879E4&#45;&gt;EAID_91340945_3ADF_47e2_9B65_519DBA6261BB -->
<g id="edge8" class="edge"><title>EAID_C977BAC8_37D2_40a6_A45E_987F5A9879E4&#45;&gt;EAID_91340945_3ADF_47e2_9B65_519DBA6261BB</title>
<path fill="none" stroke="black" d="M1212.38,-239.265C1220.87,-240.989 1229.31,-242.701 1237.59,-244.382"/>
<polygon fill="black" stroke="black" points="1237.12,-247.856 1247.61,-246.414 1238.51,-240.995 1237.12,-247.856"/>
</g>
<!-- EAID_37C24C30_8CD0_46d0_A682_593B2BB24548&#45;&gt;EAID_2FAD1738_E8B4_4463_B60E_9C6CC0787DDF -->
<g id="edge7" class="edge"><title>EAID_37C24C30_8CD0_46d0_A682_593B2BB24548&#45;&gt;EAID_2FAD1738_E8B4_4463_B60E_9C6CC0787DDF</title>
<path fill="none" stroke="black" d="M487.145,-69.5308C495.611,-69.4632 504.087,-69.3956 512.506,-69.3284"/>
<polygon fill="black" stroke="black" points="512.769,-72.8265 522.741,-69.2467 512.713,-65.8267 512.769,-72.8265"/>
</g>
<!-- EAID_3CA284C8_BB7D_4206_8042_5A0AAE3870A1&#45;&gt;EAID_91340945_3ADF_47e2_9B65_519DBA6261BB -->
<g id="edge11" class="edge"><title>EAID_3CA284C8_BB7D_4206_8042_5A0AAE3870A1&#45;&gt;EAID_91340945_3ADF_47e2_9B65_519DBA6261BB</title>
<path fill="none" stroke="black" d="M1115.12,-317.237C1151.6,-309.718 1196.86,-300.39 1238.14,-291.882"/>
<polygon fill="black" stroke="black" points="1238.89,-295.299 1247.98,-289.852 1237.48,-288.443 1238.89,-295.299"/>
</g>
<!-- EAID_F572FCDE_0297_43ad_9695_795D0DCBBFBF&#45;&gt;EAID_C977BAC8_37D2_40a6_A45E_987F5A9879E4 -->
<g id="edge9" class="edge"><title>EAID_F572FCDE_0297_43ad_9695_795D0DCBBFBF&#45;&gt;EAID_C977BAC8_37D2_40a6_A45E_987F5A9879E4</title>
<path fill="none" stroke="black" d="M800.04,-231.792C820.135,-229.562 841.382,-227.204 862.604,-224.85"/>
<polygon fill="black" stroke="black" points="863.127,-228.313 872.68,-223.732 862.355,-221.356 863.127,-228.313"/>
</g>
<!-- EAID_F572FCDE_0297_43ad_9695_795D0DCBBFBF&#45;&gt;EAID_3CA284C8_BB7D_4206_8042_5A0AAE3870A1 -->
<g id="edge12" class="edge"><title>EAID_F572FCDE_0297_43ad_9695_795D0DCBBFBF&#45;&gt;EAID_3CA284C8_BB7D_4206_8042_5A0AAE3870A1</title>
<path fill="none" stroke="black" d="M800.04,-273.728C852.503,-286.389 912.816,-300.944 960.039,-312.341"/>
<polygon fill="black" stroke="black" points="959.368,-315.779 969.91,-314.723 961.01,-308.975 959.368,-315.779"/>
</g>
<!-- EAID_6058DCA2_66A3_4ad8_BE6A_62DB85DDD781 -->
<g id="node10" class="node"><title>EAID_6058DCA2_66A3_4ad8_BE6A_62DB85DDD781</title>
<image xlink:href="img/activity_icon.png" width="30px" height="20px" preserveAspectRatio="xMinYMin meet" x="1531" y="-293"/>
<text text-anchor="start" x="1508.5" y="-250.8" font-family="Times New Roman,serif" font-weight="bold" font-size="24.00">feature</text>
</g>
<!-- EAID_91340945_3ADF_47e2_9B65_519DBA6261BB&#45;&gt;EAID_6058DCA2_66A3_4ad8_BE6A_62DB85DDD781 -->
<g id="edge10" class="edge"><title>EAID_91340945_3ADF_47e2_9B65_519DBA6261BB&#45;&gt;EAID_6058DCA2_66A3_4ad8_BE6A_62DB85DDD781</title>
<path fill="none" stroke="black" d="M1462.1,-268C1470.81,-268 1479.38,-268 1487.51,-268"/>
<polygon fill="black" stroke="black" points="1487.56,-271.5 1497.56,-268 1487.56,-264.5 1487.56,-271.5"/>
</g>
</g>
</svg>
