<?xml version="1.0" encoding="UTF-8" standalone="no"?>
<!DOCTYPE svg PUBLIC "-//W3C//DTD SVG 1.1//EN"
 "http://www.w3.org/Graphics/SVG/1.1/DTD/svg11.dtd">
<!-- Generated by graphviz version 2.38.0 (20140413.2041)
 -->
<!-- Title: g Pages: 1 -->
<svg width="549pt" height="476pt"
 viewBox="0.00 0.00 549.34 476.00" xmlns="http://www.w3.org/2000/svg" xmlns:xlink="http://www.w3.org/1999/xlink">
<g id="graph0" class="graph" transform="scale(1 1) rotate(0) translate(4 472)">
<title>g</title>
<polygon fill="white" stroke="none" points="-4,4 -4,-472 545.336,-472 545.336,4 -4,4"/>
<!-- General staff -->
<g id="node1" class="node"><title>General staff</title>
<ellipse fill="none" stroke="black" cx="92.9418" cy="-450" rx="57.3905" ry="18"/>
<text text-anchor="middle" x="92.9418" y="-446.3" font-family="Times New Roman,serif" font-size="14.00">General staff</text>
</g>
<!-- activity description page -->
<g id="node2" class="node"><title>activity description page</title>
<ellipse fill="none" stroke="black" cx="263.942" cy="-234" rx="98.5829" ry="18"/>
<text text-anchor="middle" x="263.942" y="-230.3" font-family="Times New Roman,serif" font-size="14.00">activity description page</text>
</g>
<!-- General staff&#45;&gt;activity description page -->
<g id="edge1" class="edge"><title>General staff&#45;&gt;activity description page</title>
<path fill="none" stroke="black" d="M98.2562,-431.862C108.76,-400.246 134.789,-331.967 175.942,-288 187.952,-275.168 203.756,-264.362 218.653,-255.923"/>
<polygon fill="black" stroke="black" points="220.648,-258.822 227.769,-250.978 217.311,-252.669 220.648,-258.822"/>
</g>
<!-- Add new button -->
<g id="node3" class="node"><title>Add new button</title>
<ellipse fill="none" stroke="black" cx="295.942" cy="-378" rx="69.5877" ry="18"/>
<text text-anchor="middle" x="295.942" y="-374.3" font-family="Times New Roman,serif" font-size="14.00">Add new button</text>
</g>
<!-- General staff&#45;&gt;Add new button -->
<g id="edge2" class="edge"><title>General staff&#45;&gt;Add new button</title>
<path fill="none" stroke="black" d="M130.175,-436.161C162.713,-424.941 210.221,-408.559 246.044,-396.206"/>
<polygon fill="black" stroke="black" points="247.504,-399.405 255.817,-392.836 245.222,-392.787 247.504,-399.405"/>
</g>
<!-- blank description error -->
<g id="node4" class="node"><title>blank description error</title>
<ellipse fill="none" stroke="black" cx="92.9418" cy="-90" rx="92.8835" ry="18"/>
<text text-anchor="middle" x="92.9418" y="-86.3" font-family="Times New Roman,serif" font-size="14.00">blank description error</text>
</g>
<!-- General staff&#45;&gt;blank description error -->
<g id="edge3" class="edge"><title>General staff&#45;&gt;blank description error</title>
<path fill="none" stroke="black" d="M85.2519,-431.907C74.1482,-405.623 54.9418,-353.447 54.9418,-307 54.9418,-307 54.9418,-307 54.9418,-233 54.9418,-191.633 70.1765,-145.722 81.3534,-117.605"/>
<polygon fill="black" stroke="black" points="84.6981,-118.673 85.2519,-108.093 78.221,-116.019 84.6981,-118.673"/>
</g>
<!-- validate activity description -->
<g id="node8" class="node"><title>validate activity description</title>
<ellipse fill="none" stroke="black" cx="263.942" cy="-162" rx="109.381" ry="18"/>
<text text-anchor="middle" x="263.942" y="-158.3" font-family="Times New Roman,serif" font-size="14.00">validate activity description</text>
</g>
<!-- activity description page&#45;&gt;validate activity description -->
<g id="edge10" class="edge"><title>activity description page&#45;&gt;validate activity description</title>
<path fill="none" stroke="black" d="M263.942,-215.697C263.942,-207.983 263.942,-198.712 263.942,-190.112"/>
<polygon fill="black" stroke="black" points="267.442,-190.104 263.942,-180.104 260.442,-190.104 267.442,-190.104"/>
</g>
<!-- display activity description page -->
<g id="node9" class="node"><title>display activity description page</title>
<ellipse fill="none" stroke="black" cx="323.942" cy="-306" rx="127.277" ry="18"/>
<text text-anchor="middle" x="323.942" y="-302.3" font-family="Times New Roman,serif" font-size="14.00">display activity description page</text>
</g>
<!-- Add new button&#45;&gt;display activity description page -->
<g id="edge12" class="edge"><title>Add new button&#45;&gt;display activity description page</title>
<path fill="none" stroke="black" d="M302.72,-360.055C305.871,-352.176 309.695,-342.617 313.224,-333.794"/>
<polygon fill="black" stroke="black" points="316.567,-334.86 317.032,-324.275 310.068,-332.26 316.567,-334.86"/>
</g>
<!-- Administrator -->
<g id="node5" class="node"><title>Administrator</title>
<ellipse fill="none" stroke="black" cx="228.942" cy="-450" rx="60.3893" ry="18"/>
<text text-anchor="middle" x="228.942" y="-446.3" font-family="Times New Roman,serif" font-size="14.00">Administrator</text>
</g>
<!-- Administrator&#45;&gt;activity description page -->
<g id="edge6" class="edge"><title>Administrator&#45;&gt;activity description page</title>
<path fill="none" stroke="black" d="M217.116,-432.102C197.454,-401.738 162.59,-336.586 187.942,-288 194.834,-274.79 206.688,-264.201 219.011,-256.066"/>
<polygon fill="black" stroke="black" points="220.866,-259.034 227.562,-250.824 217.208,-253.066 220.866,-259.034"/>
</g>
<!-- Administrator&#45;&gt;Add new button -->
<g id="edge4" class="edge"><title>Administrator&#45;&gt;Add new button</title>
<path fill="none" stroke="black" d="M244.82,-432.411C253.125,-423.734 263.451,-412.946 272.643,-403.342"/>
<polygon fill="black" stroke="black" points="275.326,-405.601 279.712,-395.956 270.269,-400.76 275.326,-405.601"/>
</g>
<!-- Administrator&#45;&gt;blank description error -->
<g id="edge5" class="edge"><title>Administrator&#45;&gt;blank description error</title>
<path fill="none" stroke="black" d="M198.421,-434.224C158.323,-412.425 92.9418,-367.591 92.9418,-307 92.9418,-307 92.9418,-307 92.9418,-233 92.9418,-192.996 92.9418,-146.653 92.9418,-118.08"/>
<polygon fill="black" stroke="black" points="96.4419,-118.049 92.9418,-108.049 89.4419,-118.049 96.4419,-118.049"/>
</g>
<!-- insert activity into case -->
<g id="node6" class="node"><title>insert activity into case</title>
<ellipse fill="none" stroke="black" cx="296.942" cy="-90" rx="92.8835" ry="18"/>
<text text-anchor="middle" x="296.942" y="-86.3" font-family="Times New Roman,serif" font-size="14.00">insert activity into case</text>
</g>
<!-- case information -->
<g id="node7" class="node"><title>case information</title>
<ellipse fill="none" stroke="black" cx="296.942" cy="-18" rx="70.6878" ry="18"/>
<text text-anchor="middle" x="296.942" y="-14.3" font-family="Times New Roman,serif" font-size="14.00">case information</text>
</g>
<!-- insert activity into case&#45;&gt;case information -->
<g id="edge7" class="edge"><title>insert activity into case&#45;&gt;case information</title>
<path fill="none" stroke="black" d="M296.942,-71.6966C296.942,-63.9827 296.942,-54.7125 296.942,-46.1124"/>
<polygon fill="black" stroke="black" points="300.442,-46.1043 296.942,-36.1043 293.442,-46.1044 300.442,-46.1043"/>
</g>
<!-- validate activity description&#45;&gt;blank description error -->
<g id="edge9" class="edge"><title>validate activity description&#45;&gt;blank description error</title>
<path fill="none" stroke="black" d="M225.139,-145.116C199.952,-134.805 166.965,-121.302 140.243,-110.363"/>
<polygon fill="black" stroke="black" points="141.289,-107.009 130.708,-106.46 138.637,-113.488 141.289,-107.009"/>
</g>
<!-- validate activity description&#45;&gt;insert activity into case -->
<g id="edge8" class="edge"><title>validate activity description&#45;&gt;insert activity into case</title>
<path fill="none" stroke="black" d="M272.099,-143.697C275.856,-135.728 280.395,-126.1 284.56,-117.264"/>
<polygon fill="black" stroke="black" points="287.78,-118.642 288.878,-108.104 281.448,-115.657 287.78,-118.642"/>
</g>
<!-- display activity description page&#45;&gt;activity description page -->
<g id="edge11" class="edge"><title>display activity description page&#45;&gt;activity description page</title>
<path fill="none" stroke="black" d="M309.417,-288.055C302.229,-279.668 293.407,-269.376 285.453,-260.096"/>
<polygon fill="black" stroke="black" points="287.915,-257.59 278.749,-252.275 282.6,-262.146 287.915,-257.59"/>
</g>
<!-- Case Manager -->
<g id="node10" class="node"><title>Case Manager</title>
<ellipse fill="none" stroke="black" cx="478.942" cy="-450" rx="62.2891" ry="18"/>
<text text-anchor="middle" x="478.942" y="-446.3" font-family="Times New Roman,serif" font-size="14.00">Case Manager</text>
</g>
<!-- Case Manager&#45;&gt;activity description page -->
<g id="edge13" class="edge"><title>Case Manager&#45;&gt;activity description page</title>
<path fill="none" stroke="black" d="M482.505,-432.019C488.21,-399.747 495.436,-329.121 459.942,-288 444.814,-270.474 393.604,-256.979 347.324,-247.993"/>
<polygon fill="black" stroke="black" points="347.709,-244.504 337.233,-246.088 346.41,-251.382 347.709,-244.504"/>
</g>
<!-- Case Manager&#45;&gt;Add new button -->
<g id="edge14" class="edge"><title>Case Manager&#45;&gt;Add new button</title>
<path fill="none" stroke="black" d="M442.787,-435.17C414.09,-424.193 373.759,-408.766 342.623,-396.856"/>
<polygon fill="black" stroke="black" points="343.868,-393.585 333.278,-393.282 341.368,-400.123 343.868,-393.585"/>
</g>
<!-- Case Manager&#45;&gt;blank description error -->
<g id="edge15" class="edge"><title>Case Manager&#45;&gt;blank description error</title>
<path fill="none" stroke="black" d="M486.632,-431.907C497.735,-405.623 516.942,-353.447 516.942,-307 516.942,-307 516.942,-307 516.942,-233 516.942,-161.135 448.624,-170.798 381.942,-144 372.059,-140.029 252.039,-118.676 169.813,-104.315"/>
<polygon fill="black" stroke="black" points="170.185,-100.827 159.732,-102.556 168.982,-107.723 170.185,-100.827"/>
</g>
</g>
</svg>
