<?xml version="1.0" encoding="UTF-8" standalone="no"?>
<!DOCTYPE svg PUBLIC "-//W3C//DTD SVG 1.1//EN"
 "http://www.w3.org/Graphics/SVG/1.1/DTD/svg11.dtd">
<!-- Generated by graphviz version 2.38.0 (20140413.2041)
 -->
<!-- Title: g Pages: 1 -->
<svg width="872pt" height="178pt"
 viewBox="0.00 0.00 872.00 177.50" xmlns="http://www.w3.org/2000/svg" xmlns:xlink="http://www.w3.org/1999/xlink">
<g id="graph0" class="graph" transform="scale(1 1) rotate(0) translate(4 173.5)">
<title>g</title>
<polygon fill="white" stroke="none" points="-4,4 -4,-173.5 868,-173.5 868,4 -4,4"/>
<!-- EAID_630586A4_5237_4355_9427_CC4F1406E312 -->
<g id="node1" class="node"><title>EAID_630586A4_5237_4355_9427_CC4F1406E312</title>
<image xlink:href="img/actor1.png" width="61px" height="90px" preserveAspectRatio="xMinYMin meet" x="10.5" y="-126"/>
<text text-anchor="start" x="19" y="-12.8" font-family="Times New Roman,serif" font-size="24.00">User</text>
</g>
<!-- EAID_E9BC8C32_0935_4d6c_A434_FB8201871D3A -->
<g id="node2" class="node"><title>EAID_E9BC8C32_0935_4d6c_A434_FB8201871D3A</title>
<image xlink:href="img/boundary3.png" width="115px" height="67px" preserveAspectRatio="xMinYMin meet" x="149.5" y="-157"/>
<text text-anchor="start" x="127.5" y="-66.8" font-family="Times New Roman,serif" font-size="24.00">Edit setting page</text>
</g>
<!-- EAID_630586A4_5237_4355_9427_CC4F1406E312&#45;&gt;EAID_E9BC8C32_0935_4d6c_A434_FB8201871D3A -->
<g id="edge1" class="edge"><title>EAID_630586A4_5237_4355_9427_CC4F1406E312&#45;&gt;EAID_E9BC8C32_0935_4d6c_A434_FB8201871D3A</title>
<path fill="none" stroke="black" d="M81.1998,-76.4091C89.2058,-78.5082 97.9525,-80.8016 106.978,-83.168"/>
<polygon fill="black" stroke="black" points="106.298,-86.608 116.859,-85.7587 108.073,-79.8368 106.298,-86.608"/>
</g>
<!-- EAID_EB209C3E_C304_4cdc_AD57_43F4A02BD3AB -->
<g id="node3" class="node"><title>EAID_EB209C3E_C304_4cdc_AD57_43F4A02BD3AB</title>
<image xlink:href="img/boundary3.png" width="102px" height="67px" preserveAspectRatio="xMinYMin meet" x="752" y="-115"/>
<text text-anchor="start" x="752" y="-24.8" font-family="Times New Roman,serif" font-size="24.00">Homepage</text>
</g>
<!-- EAID_630586A4_5237_4355_9427_CC4F1406E312&#45;&gt;EAID_EB209C3E_C304_4cdc_AD57_43F4A02BD3AB -->
<g id="edge2" class="edge"><title>EAID_630586A4_5237_4355_9427_CC4F1406E312&#45;&gt;EAID_EB209C3E_C304_4cdc_AD57_43F4A02BD3AB</title>
<path fill="none" stroke="black" d="M81.0528,-52.9014C92.519,-49.6788 105.145,-46.6742 117,-45 184.758,-35.431 630.319,-33.6832 706,-43 714.548,-44.0523 723.43,-45.6129 732.187,-47.4423"/>
<polygon fill="black" stroke="black" points="731.476,-50.8697 741.996,-49.6092 732.986,-44.0345 731.476,-50.8697"/>
</g>
<!-- EAID_0E636663_5E13_4283_8500_52E7E50DB776 -->
<g id="node4" class="node"><title>EAID_0E636663_5E13_4283_8500_52E7E50DB776</title>
<image xlink:href="img/control1.png" width="106px" height="75px" preserveAspectRatio="xMinYMin meet" x="348" y="-163"/>
<text text-anchor="start" x="342.5" y="-64.8" font-family="Times New Roman,serif" font-size="24.00">Edit settings</text>
</g>
<!-- EAID_E9BC8C32_0935_4d6c_A434_FB8201871D3A&#45;&gt;EAID_0E636663_5E13_4283_8500_52E7E50DB776 -->
<g id="edge3" class="edge"><title>EAID_E9BC8C32_0935_4d6c_A434_FB8201871D3A&#45;&gt;EAID_0E636663_5E13_4283_8500_52E7E50DB776</title>
<path fill="none" stroke="black" d="M296.194,-109.924C304.716,-110.013 313.315,-110.102 321.721,-110.19"/>
<polygon fill="black" stroke="black" points="321.825,-113.691 331.861,-110.295 321.898,-106.691 321.825,-113.691"/>
</g>
<!-- EAID_181C47AC_690E_44ee_8FAB_F59B5DF34D4D -->
<g id="node5" class="node"><title>EAID_181C47AC_690E_44ee_8FAB_F59B5DF34D4D</title>
<image xlink:href="img/control1.png" width="106px" height="75px" preserveAspectRatio="xMinYMin meet" x="553" y="-163"/>
<text text-anchor="start" x="515.5" y="-64.8" font-family="Times New Roman,serif" font-size="24.00">Show confirmation</text>
</g>
<!-- EAID_0E636663_5E13_4283_8500_52E7E50DB776&#45;&gt;EAID_181C47AC_690E_44ee_8FAB_F59B5DF34D4D -->
<g id="edge4" class="edge"><title>EAID_0E636663_5E13_4283_8500_52E7E50DB776&#45;&gt;EAID_181C47AC_690E_44ee_8FAB_F59B5DF34D4D</title>
<path fill="none" stroke="black" d="M469.096,-111C477.386,-111 486.017,-111 494.729,-111"/>
<polygon fill="black" stroke="black" points="494.979,-114.5 504.979,-111 494.979,-107.5 494.979,-114.5"/>
</g>
<!-- EAID_181C47AC_690E_44ee_8FAB_F59B5DF34D4D&#45;&gt;EAID_EB209C3E_C304_4cdc_AD57_43F4A02BD3AB -->
<g id="edge5" class="edge"><title>EAID_181C47AC_690E_44ee_8FAB_F59B5DF34D4D&#45;&gt;EAID_EB209C3E_C304_4cdc_AD57_43F4A02BD3AB</title>
<path fill="none" stroke="black" d="M706.255,-88.5489C714.888,-86.6058 723.5,-84.6674 731.822,-82.7944"/>
<polygon fill="black" stroke="black" points="732.824,-86.1567 741.811,-80.5463 731.287,-79.3275 732.824,-86.1567"/>
</g>
</g>
</svg>
