<?xml version="1.0" encoding="UTF-8" standalone="no"?>
<!DOCTYPE svg PUBLIC "-//W3C//DTD SVG 1.1//EN"
 "http://www.w3.org/Graphics/SVG/1.1/DTD/svg11.dtd">
<!-- Generated by graphviz version 2.38.0 (20140413.2041)
 -->
<!-- Title: g Pages: 1 -->
<svg width="1801pt" height="835pt"
 viewBox="0.00 0.00 1801.00 835.30" xmlns="http://www.w3.org/2000/svg" xmlns:xlink="http://www.w3.org/1999/xlink">
<g id="graph0" class="graph" transform="scale(1 1) rotate(0) translate(4 831.3)">
<title>g</title>
<polygon fill="white" stroke="none" points="-4,4 -4,-831.3 1797,-831.3 1797,4 -4,4"/>
<!-- EAID_4F60B539_B1CF_4f5e_A98B_A4220A028C0C -->
<g id="node1" class="node"><title>EAID_4F60B539_B1CF_4f5e_A98B_A4220A028C0C</title>
<image xlink:href="img/actor1.png" width="61px" height="90px" preserveAspectRatio="xMinYMin meet" x="10.5" y="-479.5"/>
<text text-anchor="start" x="19" y="-366.3" font-family="Times New Roman,serif" font-size="24.00">User</text>
</g>
<!-- EAID_A978C965_4337_41ee_B839_DEFB0CB6E5BB -->
<g id="node2" class="node"><title>EAID_A978C965_4337_41ee_B839_DEFB0CB6E5BB</title>
<image xlink:href="img/control1.png" width="106px" height="75px" preserveAspectRatio="xMinYMin meet" x="880" y="-772.5"/>
<text text-anchor="start" x="823.5" y="-674.3" font-family="Times New Roman,serif" font-size="24.00">Input users information</text>
</g>
<!-- EAID_4F60B539_B1CF_4f5e_A98B_A4220A028C0C&#45;&gt;EAID_A978C965_4337_41ee_B839_DEFB0CB6E5BB -->
<g id="edge1" class="edge"><title>EAID_4F60B539_B1CF_4f5e_A98B_A4220A028C0C&#45;&gt;EAID_A978C965_4337_41ee_B839_DEFB0CB6E5BB</title>
<path fill="none" stroke="black" d="M42.5116,-485.745C47.2502,-542.431 63.8344,-621.354 117,-663.5 313.55,-819.311 627.502,-786.967 802.671,-752.13"/>
<polygon fill="black" stroke="black" points="803.606,-755.512 812.714,-750.1 802.218,-748.651 803.606,-755.512"/>
</g>
<!-- EAID_1CC51748_AB8E_46db_9CA8_92C0F5601D34 -->
<g id="node3" class="node"><title>EAID_1CC51748_AB8E_46db_9CA8_92C0F5601D34</title>
<image xlink:href="img/boundary3.png" width="115px" height="67px" preserveAspectRatio="xMinYMin meet" x="875.5" y="-637.5"/>
<text text-anchor="start" x="825.5" y="-547.3" font-family="Times New Roman,serif" font-size="24.00">input user imformation</text>
</g>
<!-- EAID_4F60B539_B1CF_4f5e_A98B_A4220A028C0C&#45;&gt;EAID_1CC51748_AB8E_46db_9CA8_92C0F5601D34 -->
<g id="edge2" class="edge"><title>EAID_4F60B539_B1CF_4f5e_A98B_A4220A028C0C&#45;&gt;EAID_1CC51748_AB8E_46db_9CA8_92C0F5601D34</title>
<path fill="none" stroke="black" d="M48.7538,-485.55C57.3395,-530.297 76.0835,-586.845 117,-618.5 233.195,-708.395 633.154,-686.347 777,-656.5 788.07,-654.203 799.322,-651.071 810.447,-647.409"/>
<polygon fill="black" stroke="black" points="811.865,-650.623 820.184,-644.062 809.589,-644.003 811.865,-650.623"/>
</g>
<!-- EAID_73D62EA7_76E9_44fa_9035_C9315B006BC5 -->
<g id="node4" class="node"><title>EAID_73D62EA7_76E9_44fa_9035_C9315B006BC5</title>
<image xlink:href="img/boundary3.png" width="104px" height="67px" preserveAspectRatio="xMinYMin meet" x="569" y="-297.5"/>
<text text-anchor="start" x="569" y="-207.3" font-family="Times New Roman,serif" font-size="24.00">select class</text>
</g>
<!-- EAID_4F60B539_B1CF_4f5e_A98B_A4220A028C0C&#45;&gt;EAID_73D62EA7_76E9_44fa_9035_C9315B006BC5 -->
<g id="edge3" class="edge"><title>EAID_4F60B539_B1CF_4f5e_A98B_A4220A028C0C&#45;&gt;EAID_73D62EA7_76E9_44fa_9035_C9315B006BC5</title>
<path fill="none" stroke="black" d="M58.5619,-353.275C69.9376,-323.069 88.2487,-289.985 117,-271.5 249.527,-186.294 444.792,-210.168 548.748,-231.757"/>
<polygon fill="black" stroke="black" points="548.314,-235.243 558.824,-233.902 549.772,-228.396 548.314,-235.243"/>
</g>
<!-- EAID_01CB9E47_A25B_4a5d_A658_3A0A9139F2EE -->
<g id="node5" class="node"><title>EAID_01CB9E47_A25B_4a5d_A658_3A0A9139F2EE</title>
<image xlink:href="img/control1.png" width="106px" height="75px" preserveAspectRatio="xMinYMin meet" x="568" y="-471.5"/>
<text text-anchor="start" x="475" y="-373.3" font-family="Times New Roman,serif" font-size="24.00">Select attendance and semester</text>
</g>
<!-- EAID_4F60B539_B1CF_4f5e_A98B_A4220A028C0C&#45;&gt;EAID_01CB9E47_A25B_4a5d_A658_3A0A9139F2EE -->
<g id="edge4" class="edge"><title>EAID_4F60B539_B1CF_4f5e_A98B_A4220A028C0C&#45;&gt;EAID_01CB9E47_A25B_4a5d_A658_3A0A9139F2EE</title>
<path fill="none" stroke="black" d="M81.2626,-419.5C157.006,-419.5 325.891,-419.5 454.525,-419.5"/>
<polygon fill="black" stroke="black" points="454.885,-423 464.885,-419.5 454.885,-416 454.885,-423"/>
</g>
<!-- EAID_2BF37CD5_63D5_4b9f_82FF_8A57F2189E22 -->
<g id="node6" class="node"><title>EAID_2BF37CD5_63D5_4b9f_82FF_8A57F2189E22</title>
<image xlink:href="img/boundary3.png" width="102px" height="67px" preserveAspectRatio="xMinYMin meet" x="1681" y="-677.5"/>
<text text-anchor="start" x="1681" y="-587.3" font-family="Times New Roman,serif" font-size="24.00">Homepage</text>
</g>
<!-- EAID_4F60B539_B1CF_4f5e_A98B_A4220A028C0C&#45;&gt;EAID_2BF37CD5_63D5_4b9f_82FF_8A57F2189E22 -->
<g id="edge5" class="edge"><title>EAID_4F60B539_B1CF_4f5e_A98B_A4220A028C0C&#45;&gt;EAID_2BF37CD5_63D5_4b9f_82FF_8A57F2189E22</title>
<path fill="none" stroke="black" d="M48.778,-485.516C59.1995,-567.252 81.1731,-699.717 117,-732.5 283.752,-885.084 393.973,-807.5 620,-807.5 620,-807.5 620,-807.5 1216,-807.5 1408.53,-807.5 1460.52,-778.9 1635,-697.5 1644.19,-693.214 1653.42,-688.033 1662.34,-682.466"/>
<polygon fill="black" stroke="black" points="1664.27,-685.386 1670.78,-677.027 1660.48,-679.502 1664.27,-685.386"/>
</g>
<!-- EAID_4A17AD52_1F6F_46ee_A349_799F755A7E54 -->
<g id="node7" class="node"><title>EAID_4A17AD52_1F6F_46ee_A349_799F755A7E54</title>
<image xlink:href="img/control1.png" width="106px" height="75px" preserveAspectRatio="xMinYMin meet" x="568.5" y="-170.5"/>
<text text-anchor="start" x="567" y="-72.3" font-family="Times New Roman,serif" font-size="24.00">Select class</text>
</g>
<!-- EAID_4F60B539_B1CF_4f5e_A98B_A4220A028C0C&#45;&gt;EAID_4A17AD52_1F6F_46ee_A349_799F755A7E54 -->
<g id="edge6" class="edge"><title>EAID_4F60B539_B1CF_4f5e_A98B_A4220A028C0C&#45;&gt;EAID_4A17AD52_1F6F_46ee_A349_799F755A7E54</title>
<path fill="none" stroke="black" d="M47.7071,-353.133C55.7782,-305.496 74.3366,-243.573 117,-207.5 180.727,-153.616 422.626,-130.857 546.271,-122.582"/>
<polygon fill="black" stroke="black" points="546.662,-126.064 556.412,-121.918 546.204,-119.079 546.662,-126.064"/>
</g>
<!-- EAID_7DDDB276_4A10_4f25_804E_AEAA6E6E91E8 -->
<g id="node8" class="node"><title>EAID_7DDDB276_4A10_4f25_804E_AEAA6E6E91E8</title>
<image xlink:href="img/boundary3.png" width="115px" height="67px" preserveAspectRatio="xMinYMin meet" x="216" y="-602.5"/>
<text text-anchor="start" x="143" y="-512.3" font-family="Times New Roman,serif" font-size="24.00">Input user information page</text>
</g>
<!-- EAID_4F60B539_B1CF_4f5e_A98B_A4220A028C0C&#45;&gt;EAID_7DDDB276_4A10_4f25_804E_AEAA6E6E91E8 -->
<g id="edge7" class="edge"><title>EAID_4F60B539_B1CF_4f5e_A98B_A4220A028C0C&#45;&gt;EAID_7DDDB276_4A10_4f25_804E_AEAA6E6E91E8</title>
<path fill="none" stroke="black" d="M81.1244,-442.707C105.714,-457.109 138.528,-476.328 170.005,-494.763"/>
<polygon fill="black" stroke="black" points="168.442,-497.904 178.84,-499.938 171.98,-491.864 168.442,-497.904"/>
</g>
<!-- EAID_D40CF368_E5EB_4b41_80F0_DBA79358BDB9 -->
<g id="node9" class="node"><title>EAID_D40CF368_E5EB_4b41_80F0_DBA79358BDB9</title>
<image xlink:href="img/boundary3.png" width="115px" height="67px" preserveAspectRatio="xMinYMin meet" x="216" y="-102.5"/>
<text text-anchor="start" x="166" y="-12.3" font-family="Times New Roman,serif" font-size="24.00">input user imformation</text>
</g>
<!-- EAID_4F60B539_B1CF_4f5e_A98B_A4220A028C0C&#45;&gt;EAID_D40CF368_E5EB_4b41_80F0_DBA79358BDB9 -->
<g id="edge8" class="edge"><title>EAID_4F60B539_B1CF_4f5e_A98B_A4220A028C0C&#45;&gt;EAID_D40CF368_E5EB_4b41_80F0_DBA79358BDB9</title>
<path fill="none" stroke="black" d="M50.4868,-353.291C60.1449,-300.798 79.4817,-227.535 117,-173.5 132.098,-151.755 152.393,-132.21 173.314,-115.544"/>
<polygon fill="black" stroke="black" points="175.603,-118.198 181.353,-109.299 171.309,-112.67 175.603,-118.198"/>
</g>
<!-- EAID_D5EB384E_EA15_4554_9EA9_E5128746DE0B -->
<g id="node10" class="node"><title>EAID_D5EB384E_EA15_4554_9EA9_E5128746DE0B</title>
<image xlink:href="img/boundary3.png" width="115px" height="67px" preserveAspectRatio="xMinYMin meet" x="215.5" y="-383.5"/>
<text text-anchor="start" x="127" y="-293.3" font-family="Times New Roman,serif" font-size="24.00">Select attendance and semester</text>
</g>
<!-- EAID_4F60B539_B1CF_4f5e_A98B_A4220A028C0C&#45;&gt;EAID_D5EB384E_EA15_4554_9EA9_E5128746DE0B -->
<g id="edge9" class="edge"><title>EAID_4F60B539_B1CF_4f5e_A98B_A4220A028C0C&#45;&gt;EAID_D5EB384E_EA15_4554_9EA9_E5128746DE0B</title>
<path fill="none" stroke="black" d="M81.1244,-405.06C90.5771,-401.615 101.245,-397.727 112.585,-393.595"/>
<polygon fill="black" stroke="black" points="114.06,-396.783 122.257,-390.07 111.663,-390.206 114.06,-396.783"/>
</g>
<!-- EAID_FD5F3D57_A7F1_44bd_90C5_A3FF8BC40CF2 -->
<g id="node11" class="node"><title>EAID_FD5F3D57_A7F1_44bd_90C5_A3FF8BC40CF2</title>
<image xlink:href="img/control1.png" width="106px" height="75px" preserveAspectRatio="xMinYMin meet" x="1162" y="-556.5"/>
<text text-anchor="start" x="1098" y="-458.3" font-family="Times New Roman,serif" font-size="24.00">Display user information</text>
</g>
<!-- EAID_A978C965_4337_41ee_B839_DEFB0CB6E5BB&#45;&gt;EAID_FD5F3D57_A7F1_44bd_90C5_A3FF8BC40CF2 -->
<g id="edge14" class="edge"><title>EAID_A978C965_4337_41ee_B839_DEFB0CB6E5BB&#45;&gt;EAID_FD5F3D57_A7F1_44bd_90C5_A3FF8BC40CF2</title>
<path fill="none" stroke="black" d="M1039.9,-661.958C1044.03,-659.175 1048.08,-656.351 1052,-653.5 1086.03,-628.731 1120.77,-597.69 1149.31,-570.361"/>
<polygon fill="black" stroke="black" points="1152.04,-572.592 1156.81,-563.13 1147.18,-567.553 1152.04,-572.592"/>
</g>
<!-- EAID_147644E3_3B4B_46a9_A789_BC8F50BC5153 -->
<g id="node13" class="node"><title>EAID_147644E3_3B4B_46a9_A789_BC8F50BC5153</title>
<image xlink:href="img/control1.png" width="106px" height="75px" preserveAspectRatio="xMinYMin meet" x="1454" y="-681.5"/>
<text text-anchor="start" x="1388.5" y="-583.3" font-family="Times New Roman,serif" font-size="24.00">Save changes in database</text>
</g>
<!-- EAID_A978C965_4337_41ee_B839_DEFB0CB6E5BB&#45;&gt;EAID_147644E3_3B4B_46a9_A789_BC8F50BC5153 -->
<g id="edge23" class="edge"><title>EAID_A978C965_4337_41ee_B839_DEFB0CB6E5BB&#45;&gt;EAID_147644E3_3B4B_46a9_A789_BC8F50BC5153</title>
<path fill="none" stroke="black" d="M1052.02,-701.645C1143.91,-687.026 1271.41,-666.741 1367.83,-651.403"/>
<polygon fill="black" stroke="black" points="1368.62,-654.821 1377.94,-649.793 1367.52,-647.908 1368.62,-654.821"/>
</g>
<!-- EAID_1CC51748_AB8E_46db_9CA8_92C0F5601D34&#45;&gt;EAID_FD5F3D57_A7F1_44bd_90C5_A3FF8BC40CF2 -->
<g id="edge16" class="edge"><title>EAID_1CC51748_AB8E_46db_9CA8_92C0F5601D34&#45;&gt;EAID_FD5F3D57_A7F1_44bd_90C5_A3FF8BC40CF2</title>
<path fill="none" stroke="black" d="M1050.02,-554.191C1059.29,-551.381 1068.71,-548.528 1078.1,-545.683"/>
<polygon fill="black" stroke="black" points="1079.31,-548.973 1087.86,-542.723 1077.28,-542.274 1079.31,-548.973"/>
</g>
<!-- EAID_1CC51748_AB8E_46db_9CA8_92C0F5601D34&#45;&gt;EAID_147644E3_3B4B_46a9_A789_BC8F50BC5153 -->
<g id="edge24" class="edge"><title>EAID_1CC51748_AB8E_46db_9CA8_92C0F5601D34&#45;&gt;EAID_147644E3_3B4B_46a9_A789_BC8F50BC5153</title>
<path fill="none" stroke="black" d="M1050.29,-597.667C1142.28,-604.1 1270.74,-613.083 1367.75,-619.867"/>
<polygon fill="black" stroke="black" points="1367.71,-623.373 1377.93,-620.579 1368.2,-616.39 1367.71,-623.373"/>
</g>
<!-- EAID_73D62EA7_76E9_44fa_9035_C9315B006BC5&#45;&gt;EAID_FD5F3D57_A7F1_44bd_90C5_A3FF8BC40CF2 -->
<g id="edge19" class="edge"><title>EAID_73D62EA7_76E9_44fa_9035_C9315B006BC5&#45;&gt;EAID_FD5F3D57_A7F1_44bd_90C5_A3FF8BC40CF2</title>
<path fill="none" stroke="black" d="M683.228,-254.002C769.97,-262.529 931.477,-286.459 1052,-351.5 1092.17,-373.18 1129.73,-407.38 1158.55,-437.953"/>
<polygon fill="black" stroke="black" points="1156.31,-440.69 1165.68,-445.638 1161.44,-435.928 1156.31,-440.69"/>
</g>
<!-- EAID_639A8509_2658_45e0_B9C6_E81226DE00F5 -->
<g id="node14" class="node"><title>EAID_639A8509_2658_45e0_B9C6_E81226DE00F5</title>
<image xlink:href="img/control1.png" width="99px" height="75px" preserveAspectRatio="xMinYMin meet" x="883.5" y="-471.5"/>
<text text-anchor="start" x="883.5" y="-373.3" font-family="Times New Roman,serif" font-size="24.00">Show user</text>
</g>
<!-- EAID_01CB9E47_A25B_4a5d_A658_3A0A9139F2EE&#45;&gt;EAID_639A8509_2658_45e0_B9C6_E81226DE00F5 -->
<g id="edge26" class="edge"><title>EAID_01CB9E47_A25B_4a5d_A658_3A0A9139F2EE&#45;&gt;EAID_639A8509_2658_45e0_B9C6_E81226DE00F5</title>
<path fill="none" stroke="black" d="M777.203,-419.5C807.163,-419.5 837.099,-419.5 862.522,-419.5"/>
<polygon fill="black" stroke="black" points="862.761,-423 872.761,-419.5 862.761,-416 862.761,-423"/>
</g>
<!-- EAID_4A17AD52_1F6F_46ee_A349_799F755A7E54&#45;&gt;EAID_FD5F3D57_A7F1_44bd_90C5_A3FF8BC40CF2 -->
<g id="edge17" class="edge"><title>EAID_4A17AD52_1F6F_46ee_A349_799F755A7E54&#45;&gt;EAID_FD5F3D57_A7F1_44bd_90C5_A3FF8BC40CF2</title>
<path fill="none" stroke="black" d="M685.511,-128.061C774.997,-144.168 939.779,-183.75 1052,-269.5 1109.88,-313.726 1154.7,-384.645 1182.38,-437.02"/>
<polygon fill="black" stroke="black" points="1179.29,-438.661 1187.01,-445.915 1185.5,-435.428 1179.29,-438.661"/>
</g>
<!-- EAID_7DDDB276_4A10_4f25_804E_AEAA6E6E91E8&#45;&gt;EAID_FD5F3D57_A7F1_44bd_90C5_A3FF8BC40CF2 -->
<g id="edge15" class="edge"><title>EAID_7DDDB276_4A10_4f25_804E_AEAA6E6E91E8&#45;&gt;EAID_FD5F3D57_A7F1_44bd_90C5_A3FF8BC40CF2</title>
<path fill="none" stroke="black" d="M409.414,-609.053C427.838,-614.595 446.704,-619.34 465,-622.5 601.644,-646.099 663.161,-701.677 777,-622.5 814.751,-596.243 775.948,-552.735 813,-525.5 853.933,-495.412 978.23,-492.776 1077.7,-496.087"/>
<polygon fill="black" stroke="black" points="1077.74,-499.591 1087.86,-496.449 1077.99,-492.595 1077.74,-499.591"/>
</g>
<!-- EAID_AE2B17CA_6408_4f1e_9449_DE21E63CEE26 -->
<g id="node15" class="node"><title>EAID_AE2B17CA_6408_4f1e_9449_DE21E63CEE26</title>
<image xlink:href="img/control1.png" width="106px" height="75px" preserveAspectRatio="xMinYMin meet" x="568" y="-606.5"/>
<text text-anchor="start" x="556" y="-508.3" font-family="Times New Roman,serif" font-size="24.00">Show options</text>
</g>
<!-- EAID_7DDDB276_4A10_4f25_804E_AEAA6E6E91E8&#45;&gt;EAID_AE2B17CA_6408_4f1e_9449_DE21E63CEE26 -->
<g id="edge22" class="edge"><title>EAID_7DDDB276_4A10_4f25_804E_AEAA6E6E91E8&#45;&gt;EAID_AE2B17CA_6408_4f1e_9449_DE21E63CEE26</title>
<path fill="none" stroke="black" d="M413.734,-554.5C455.05,-554.5 498.997,-554.5 535.662,-554.5"/>
<polygon fill="black" stroke="black" points="535.803,-558 545.803,-554.5 535.802,-551 535.803,-558"/>
</g>
<!-- EAID_D40CF368_E5EB_4b41_80F0_DBA79358BDB9&#45;&gt;EAID_FD5F3D57_A7F1_44bd_90C5_A3FF8BC40CF2 -->
<g id="edge18" class="edge"><title>EAID_D40CF368_E5EB_4b41_80F0_DBA79358BDB9&#45;&gt;EAID_FD5F3D57_A7F1_44bd_90C5_A3FF8BC40CF2</title>
<path fill="none" stroke="black" d="M390.566,-32.0246C559.691,-6.74584 872.465,11.261 1052,-156.5 1133.72,-232.858 1177.91,-358.656 1198.67,-436.258"/>
<polygon fill="black" stroke="black" points="1195.28,-437.155 1201.2,-445.943 1202.05,-435.383 1195.28,-437.155"/>
</g>
<!-- EAID_D5EB384E_EA15_4554_9EA9_E5128746DE0B&#45;&gt;EAID_639A8509_2658_45e0_B9C6_E81226DE00F5 -->
<g id="edge25" class="edge"><title>EAID_D5EB384E_EA15_4554_9EA9_E5128746DE0B&#45;&gt;EAID_639A8509_2658_45e0_B9C6_E81226DE00F5</title>
<path fill="none" stroke="black" d="M429.198,-325.305C529.623,-322.398 662.508,-325.512 777,-351.5 806.527,-358.202 837.386,-370.571 863.693,-382.94"/>
<polygon fill="black" stroke="black" points="862.268,-386.138 872.798,-387.306 865.294,-379.826 862.268,-386.138"/>
</g>
<!-- EAID_FD5F3D57_A7F1_44bd_90C5_A3FF8BC40CF2&#45;&gt;EAID_2BF37CD5_63D5_4b9f_82FF_8A57F2189E22 -->
<g id="edge12" class="edge"><title>EAID_FD5F3D57_A7F1_44bd_90C5_A3FF8BC40CF2&#45;&gt;EAID_2BF37CD5_63D5_4b9f_82FF_8A57F2189E22</title>
<path fill="none" stroke="black" d="M1342.03,-520.919C1462.9,-536.773 1628.1,-558.779 1635,-561.5 1644.19,-565.126 1653.34,-569.809 1662.13,-575.022"/>
<polygon fill="black" stroke="black" points="1660.44,-578.095 1670.78,-580.39 1664.13,-572.146 1660.44,-578.095"/>
</g>
<!-- EAID_32853BE8_2FC2_4085_824F_7954DB1FD276 -->
<g id="node12" class="node"><title>EAID_32853BE8_2FC2_4085_824F_7954DB1FD276</title>
<image xlink:href="img/activity_icon.png" width="30px" height="20px" preserveAspectRatio="xMinYMin meet" x="1717.5" y="-540.5"/>
<text text-anchor="start" x="1685" y="-498.3" font-family="Times New Roman,serif" font-weight="bold" font-size="24.00">Database</text>
</g>
<!-- EAID_FD5F3D57_A7F1_44bd_90C5_A3FF8BC40CF2&#45;&gt;EAID_32853BE8_2FC2_4085_824F_7954DB1FD276 -->
<g id="edge10" class="edge"><title>EAID_FD5F3D57_A7F1_44bd_90C5_A3FF8BC40CF2&#45;&gt;EAID_32853BE8_2FC2_4085_824F_7954DB1FD276</title>
<path fill="none" stroke="black" d="M1342.31,-507.198C1443.98,-509.37 1582.88,-512.336 1664.16,-514.072"/>
<polygon fill="black" stroke="black" points="1664.19,-517.574 1674.26,-514.288 1664.34,-510.575 1664.19,-517.574"/>
</g>
<!-- EAID_FD5F3D57_A7F1_44bd_90C5_A3FF8BC40CF2&#45;&gt;EAID_147644E3_3B4B_46a9_A789_BC8F50BC5153 -->
<g id="edge13" class="edge"><title>EAID_FD5F3D57_A7F1_44bd_90C5_A3FF8BC40CF2&#45;&gt;EAID_147644E3_3B4B_46a9_A789_BC8F50BC5153</title>
<path fill="none" stroke="black" d="M1342.14,-558.963C1350.96,-562.772 1359.87,-566.621 1368.75,-570.453"/>
<polygon fill="black" stroke="black" points="1367.41,-573.686 1377.97,-574.437 1370.18,-567.26 1367.41,-573.686"/>
</g>
<!-- EAID_147644E3_3B4B_46a9_A789_BC8F50BC5153&#45;&gt;EAID_2BF37CD5_63D5_4b9f_82FF_8A57F2189E22 -->
<g id="edge21" class="edge"><title>EAID_147644E3_3B4B_46a9_A789_BC8F50BC5153&#45;&gt;EAID_2BF37CD5_63D5_4b9f_82FF_8A57F2189E22</title>
<path fill="none" stroke="black" d="M1635.24,-629.5C1643.91,-629.5 1652.44,-629.5 1660.63,-629.5"/>
<polygon fill="black" stroke="black" points="1660.79,-633 1670.79,-629.5 1660.79,-626 1660.79,-633"/>
</g>
<!-- EAID_147644E3_3B4B_46a9_A789_BC8F50BC5153&#45;&gt;EAID_32853BE8_2FC2_4085_824F_7954DB1FD276 -->
<g id="edge11" class="edge"><title>EAID_147644E3_3B4B_46a9_A789_BC8F50BC5153&#45;&gt;EAID_32853BE8_2FC2_4085_824F_7954DB1FD276</title>
<path fill="none" stroke="black" d="M1622.2,-570.997C1636.91,-563.491 1651.56,-556.019 1665.12,-549.103"/>
<polygon fill="black" stroke="black" points="1667,-552.072 1674.32,-544.41 1663.82,-545.836 1667,-552.072"/>
</g>
<!-- EAID_639A8509_2658_45e0_B9C6_E81226DE00F5&#45;&gt;EAID_FD5F3D57_A7F1_44bd_90C5_A3FF8BC40CF2 -->
<g id="edge20" class="edge"><title>EAID_639A8509_2658_45e0_B9C6_E81226DE00F5&#45;&gt;EAID_FD5F3D57_A7F1_44bd_90C5_A3FF8BC40CF2</title>
<path fill="none" stroke="black" d="M992.302,-437.319C1017.45,-444.94 1047.95,-454.182 1078.17,-463.341"/>
<polygon fill="black" stroke="black" points="1077.39,-466.759 1087.97,-466.309 1079.42,-460.06 1077.39,-466.759"/>
</g>
<!-- EAID_AE2B17CA_6408_4f1e_9449_DE21E63CEE26&#45;&gt;EAID_639A8509_2658_45e0_B9C6_E81226DE00F5 -->
<g id="edge27" class="edge"><title>EAID_AE2B17CA_6408_4f1e_9449_DE21E63CEE26&#45;&gt;EAID_639A8509_2658_45e0_B9C6_E81226DE00F5</title>
<path fill="none" stroke="black" d="M696.133,-522.164C747.039,-499.96 814.092,-470.712 863.603,-449.116"/>
<polygon fill="black" stroke="black" points="865.182,-452.246 872.949,-445.039 862.383,-445.829 865.182,-452.246"/>
</g>
</g>
</svg>
