<?xml version="1.0" encoding="UTF-8" standalone="no"?>
<!DOCTYPE svg PUBLIC "-//W3C//DTD SVG 1.1//EN"
 "http://www.w3.org/Graphics/SVG/1.1/DTD/svg11.dtd">
<!-- Generated by graphviz version 2.38.0 (20140413.2041)
 -->
<!-- Title: g Pages: 1 -->
<svg width="680pt" height="548pt"
 viewBox="0.00 0.00 679.63 548.00" xmlns="http://www.w3.org/2000/svg" xmlns:xlink="http://www.w3.org/1999/xlink">
<g id="graph0" class="graph" transform="scale(1 1) rotate(0) translate(4 544)">
<title>g</title>
<polygon fill="white" stroke="none" points="-4,4 -4,-544 675.626,-544 675.626,4 -4,4"/>
<!-- save comment -->
<g id="node1" class="node"><title>save comment</title>
<ellipse fill="none" stroke="black" cx="289.74" cy="-90" rx="63.0888" ry="18"/>
<text text-anchor="middle" x="289.74" y="-86.3" font-family="Times New Roman,serif" font-size="14.00">save comment</text>
</g>
<!-- error in the posted comment -->
<g id="node2" class="node"><title>error in the posted comment</title>
<ellipse fill="none" stroke="black" cx="113.74" cy="-18" rx="113.98" ry="18"/>
<text text-anchor="middle" x="113.74" y="-14.3" font-family="Times New Roman,serif" font-size="14.00">error in the posted comment</text>
</g>
<!-- save comment&#45;&gt;error in the posted comment -->
<g id="edge1" class="edge"><title>save comment&#45;&gt;error in the posted comment</title>
<path fill="none" stroke="black" d="M254.547,-75.0027C228.41,-64.6074 192.411,-50.2896 163.355,-38.7334"/>
<polygon fill="black" stroke="black" points="164.378,-35.3735 153.792,-34.9299 161.791,-41.8779 164.378,-35.3735"/>
</g>
<!-- comment is posted successfully message -->
<g id="node3" class="node"><title>comment is posted successfully message</title>
<ellipse fill="none" stroke="black" cx="511.74" cy="-18" rx="159.772" ry="18"/>
<text text-anchor="middle" x="511.74" y="-14.3" font-family="Times New Roman,serif" font-size="14.00">comment is posted successfully message</text>
</g>
<!-- save comment&#45;&gt;comment is posted successfully message -->
<g id="edge2" class="edge"><title>save comment&#45;&gt;comment is posted successfully message</title>
<path fill="none" stroke="black" d="M330.458,-76.1609C364.126,-65.545 412.448,-50.3083 450.737,-38.2353"/>
<polygon fill="black" stroke="black" points="452.259,-41.4253 460.743,-35.08 450.154,-34.7493 452.259,-41.4253"/>
</g>
<!-- comment -->
<g id="node4" class="node"><title>comment</title>
<ellipse fill="none" stroke="black" cx="289.74" cy="-18" rx="44.393" ry="18"/>
<text text-anchor="middle" x="289.74" y="-14.3" font-family="Times New Roman,serif" font-size="14.00">comment</text>
</g>
<!-- save comment&#45;&gt;comment -->
<g id="edge3" class="edge"><title>save comment&#45;&gt;comment</title>
<path fill="none" stroke="black" d="M289.74,-71.6966C289.74,-63.9827 289.74,-54.7125 289.74,-46.1124"/>
<polygon fill="black" stroke="black" points="293.24,-46.1043 289.74,-36.1043 286.24,-46.1044 293.24,-46.1043"/>
</g>
<!-- validate the posted comment -->
<g id="node5" class="node"><title>validate the posted comment</title>
<ellipse fill="none" stroke="black" cx="289.74" cy="-162" rx="114.28" ry="18"/>
<text text-anchor="middle" x="289.74" y="-158.3" font-family="Times New Roman,serif" font-size="14.00">validate the posted comment</text>
</g>
<!-- validate the posted comment&#45;&gt;save comment -->
<g id="edge4" class="edge"><title>validate the posted comment&#45;&gt;save comment</title>
<path fill="none" stroke="black" d="M289.74,-143.697C289.74,-135.983 289.74,-126.712 289.74,-118.112"/>
<polygon fill="black" stroke="black" points="293.24,-118.104 289.74,-108.104 286.24,-118.104 293.24,-118.104"/>
</g>
<!-- load comment input field -->
<g id="node6" class="node"><title>load comment input field</title>
<ellipse fill="none" stroke="black" cx="291.74" cy="-306" rx="100.983" ry="18"/>
<text text-anchor="middle" x="291.74" y="-302.3" font-family="Times New Roman,serif" font-size="14.00">load comment input field</text>
</g>
<!-- Post comment page -->
<g id="node7" class="node"><title>Post comment page</title>
<ellipse fill="none" stroke="black" cx="289.74" cy="-234" rx="83.3857" ry="18"/>
<text text-anchor="middle" x="289.74" y="-230.3" font-family="Times New Roman,serif" font-size="14.00">Post comment page</text>
</g>
<!-- load comment input field&#45;&gt;Post comment page -->
<g id="edge5" class="edge"><title>load comment input field&#45;&gt;Post comment page</title>
<path fill="none" stroke="black" d="M291.246,-287.697C291.025,-279.983 290.76,-270.712 290.515,-262.112"/>
<polygon fill="black" stroke="black" points="294.013,-262 290.229,-252.104 287.016,-262.2 294.013,-262"/>
</g>
<!-- Post comment page&#45;&gt;validate the posted comment -->
<g id="edge6" class="edge"><title>Post comment page&#45;&gt;validate the posted comment</title>
<path fill="none" stroke="black" d="M289.74,-215.697C289.74,-207.983 289.74,-198.712 289.74,-190.112"/>
<polygon fill="black" stroke="black" points="293.24,-190.104 289.74,-180.104 286.24,-190.104 293.24,-190.104"/>
</g>
<!-- query thread detail -->
<g id="node8" class="node"><title>query thread detail</title>
<ellipse fill="none" stroke="black" cx="291.74" cy="-378" rx="77.1866" ry="18"/>
<text text-anchor="middle" x="291.74" y="-374.3" font-family="Times New Roman,serif" font-size="14.00">query thread detail</text>
</g>
<!-- query thread detail&#45;&gt;load comment input field -->
<g id="edge7" class="edge"><title>query thread detail&#45;&gt;load comment input field</title>
<path fill="none" stroke="black" d="M291.74,-359.697C291.74,-351.983 291.74,-342.712 291.74,-334.112"/>
<polygon fill="black" stroke="black" points="295.24,-334.104 291.74,-324.104 288.24,-334.104 295.24,-334.104"/>
</g>
<!-- thread -->
<g id="node9" class="node"><title>thread</title>
<ellipse fill="none" stroke="black" cx="443.74" cy="-306" rx="33.2948" ry="18"/>
<text text-anchor="middle" x="443.74" y="-302.3" font-family="Times New Roman,serif" font-size="14.00">thread</text>
</g>
<!-- query thread detail&#45;&gt;thread -->
<g id="edge8" class="edge"><title>query thread detail&#45;&gt;thread</title>
<path fill="none" stroke="black" d="M325.097,-361.638C350.204,-350.076 384.491,-334.286 409.75,-322.653"/>
<polygon fill="black" stroke="black" points="411.332,-325.778 418.951,-318.416 408.404,-319.42 411.332,-325.778"/>
</g>
<!-- Forum page -->
<g id="node10" class="node"><title>Forum page</title>
<ellipse fill="none" stroke="black" cx="268.74" cy="-450" rx="54.6905" ry="18"/>
<text text-anchor="middle" x="268.74" y="-446.3" font-family="Times New Roman,serif" font-size="14.00">Forum page</text>
</g>
<!-- Forum page&#45;&gt;query thread detail -->
<g id="edge9" class="edge"><title>Forum page&#45;&gt;query thread detail</title>
<path fill="none" stroke="black" d="M274.308,-432.055C276.896,-424.176 280.037,-414.617 282.936,-405.794"/>
<polygon fill="black" stroke="black" points="286.267,-406.868 286.064,-396.275 279.617,-404.683 286.267,-406.868"/>
</g>
<!-- User -->
<g id="node11" class="node"><title>User</title>
<ellipse fill="none" stroke="black" cx="215.74" cy="-522" rx="27.8951" ry="18"/>
<text text-anchor="middle" x="215.74" y="-518.3" font-family="Times New Roman,serif" font-size="14.00">User</text>
</g>
<!-- User&#45;&gt;error in the posted comment -->
<g id="edge12" class="edge"><title>User&#45;&gt;error in the posted comment</title>
<path fill="none" stroke="black" d="M198.398,-507.781C170.498,-484.865 118.74,-434.83 118.74,-379 118.74,-379 118.74,-379 118.74,-161 118.74,-120.971 116.731,-74.6347 115.26,-46.0698"/>
<polygon fill="black" stroke="black" points="118.753,-45.8429 114.728,-36.0425 111.763,-46.2139 118.753,-45.8429"/>
</g>
<!-- User&#45;&gt;comment is posted successfully message -->
<g id="edge10" class="edge"><title>User&#45;&gt;comment is posted successfully message</title>
<path fill="none" stroke="black" d="M243.569,-520.258C316.707,-516.686 508.74,-496.153 508.74,-379 508.74,-379 508.74,-379 508.74,-161 508.74,-120.987 509.945,-74.6463 510.828,-46.0762"/>
<polygon fill="black" stroke="black" points="514.327,-46.1532 511.147,-36.0468 507.331,-45.9304 514.327,-46.1532"/>
</g>
<!-- User&#45;&gt;Post comment page -->
<g id="edge13" class="edge"><title>User&#45;&gt;Post comment page</title>
<path fill="none" stroke="black" d="M206.642,-504.826C185.412,-464.71 137.633,-358.776 181.74,-288 192.134,-271.32 209.479,-259.742 227.26,-251.768"/>
<polygon fill="black" stroke="black" points="228.661,-254.976 236.564,-247.919 225.985,-248.508 228.661,-254.976"/>
</g>
<!-- User&#45;&gt;Forum page -->
<g id="edge11" class="edge"><title>User&#45;&gt;Forum page</title>
<path fill="none" stroke="black" d="M227.502,-505.465C234.012,-496.867 242.262,-485.97 249.67,-476.187"/>
<polygon fill="black" stroke="black" points="252.651,-478.047 255.897,-467.962 247.071,-473.822 252.651,-478.047"/>
</g>
</g>
</svg>
