<?xml version="1.0" encoding="UTF-8" standalone="no"?>
<!DOCTYPE svg PUBLIC "-//W3C//DTD SVG 1.1//EN"
 "http://www.w3.org/Graphics/SVG/1.1/DTD/svg11.dtd">
<!-- Generated by graphviz version 2.38.0 (20140413.2041)
 -->
<!-- Title: g Pages: 1 -->
<svg width="1025pt" height="260pt"
 viewBox="0.00 0.00 1025.00 259.50" xmlns="http://www.w3.org/2000/svg" xmlns:xlink="http://www.w3.org/1999/xlink">
<g id="graph0" class="graph" transform="scale(1 1) rotate(0) translate(4 255.5)">
<title>g</title>
<polygon fill="white" stroke="none" points="-4,4 -4,-255.5 1021,-255.5 1021,4 -4,4"/>
<!-- EAID_003C2344_E7C0_40f8_AA7F_B81B2D3D3F9B -->
<g id="node1" class="node"><title>EAID_003C2344_E7C0_40f8_AA7F_B81B2D3D3F9B</title>
<image xlink:href="img/actor1.png" width="61px" height="90px" preserveAspectRatio="xMinYMin meet" x="10.5" y="-126"/>
<text text-anchor="start" x="19" y="-12.8" font-family="Times New Roman,serif" font-size="24.00">User</text>
</g>
<!-- EAID_E994481B_4D37_4d1a_82CE_F03DC0EBD324 -->
<g id="node2" class="node"><title>EAID_E994481B_4D37_4d1a_82CE_F03DC0EBD324</title>
<image xlink:href="img/boundary3.png" width="115px" height="67px" preserveAspectRatio="xMinYMin meet" x="166.5" y="-158"/>
<text text-anchor="start" x="127" y="-67.8" font-family="Times New Roman,serif" font-size="24.00">Update content page</text>
</g>
<!-- EAID_003C2344_E7C0_40f8_AA7F_B81B2D3D3F9B&#45;&gt;EAID_E994481B_4D37_4d1a_82CE_F03DC0EBD324 -->
<g id="edge1" class="edge"><title>EAID_003C2344_E7C0_40f8_AA7F_B81B2D3D3F9B&#45;&gt;EAID_E994481B_4D37_4d1a_82CE_F03DC0EBD324</title>
<path fill="none" stroke="black" d="M81.3309,-75.656C89.2241,-77.5695 97.8771,-79.6672 106.893,-81.8529"/>
<polygon fill="black" stroke="black" points="106.257,-85.3 116.8,-84.2546 107.906,-78.497 106.257,-85.3"/>
</g>
<!-- EAID_FBB9E656_38AE_4ce4_8505_CA8769BA536E -->
<g id="node3" class="node"><title>EAID_FBB9E656_38AE_4ce4_8505_CA8769BA536E</title>
<image xlink:href="img/boundary3.png" width="102px" height="67px" preserveAspectRatio="xMinYMin meet" x="905" y="-156"/>
<text text-anchor="start" x="905" y="-65.8" font-family="Times New Roman,serif" font-size="24.00">Homepage</text>
</g>
<!-- EAID_003C2344_E7C0_40f8_AA7F_B81B2D3D3F9B&#45;&gt;EAID_FBB9E656_38AE_4ce4_8505_CA8769BA536E -->
<g id="edge2" class="edge"><title>EAID_003C2344_E7C0_40f8_AA7F_B81B2D3D3F9B&#45;&gt;EAID_FBB9E656_38AE_4ce4_8505_CA8769BA536E</title>
<path fill="none" stroke="black" d="M81.098,-53.5779C92.5649,-50.5096 105.18,-47.6353 117,-46 227.077,-30.771 255.878,-42.8889 367,-42 585.664,-40.2508 649.891,18.9561 859,-45 868.126,-47.7911 877.196,-51.7414 885.911,-56.3196"/>
<polygon fill="black" stroke="black" points="884.413,-59.4912 894.853,-61.2957 887.817,-53.3746 884.413,-59.4912"/>
</g>
<!-- EAID_1AD42D2D_69C1_4363_9375_69AE3B4F64E9 -->
<g id="node4" class="node"><title>EAID_1AD42D2D_69C1_4363_9375_69AE3B4F64E9</title>
<image xlink:href="img/control1.png" width="106px" height="75px" preserveAspectRatio="xMinYMin meet" x="444" y="-162"/>
<text text-anchor="start" x="377.5" y="-63.8" font-family="Times New Roman,serif" font-size="24.00">Choose content to update</text>
</g>
<!-- EAID_E994481B_4D37_4d1a_82CE_F03DC0EBD324&#45;&gt;EAID_1AD42D2D_69C1_4363_9375_69AE3B4F64E9 -->
<g id="edge5" class="edge"><title>EAID_E994481B_4D37_4d1a_82CE_F03DC0EBD324&#45;&gt;EAID_1AD42D2D_69C1_4363_9375_69AE3B4F64E9</title>
<path fill="none" stroke="black" d="M331.132,-110C339.537,-110 348.098,-110 356.679,-110"/>
<polygon fill="black" stroke="black" points="356.753,-113.5 366.753,-110 356.753,-106.5 356.753,-113.5"/>
</g>
<!-- EAID_E9B0A196_BDF3_407b_9BE0_F2DA48965228 -->
<g id="node5" class="node"><title>EAID_E9B0A196_BDF3_407b_9BE0_F2DA48965228</title>
<image xlink:href="img/control1.png" width="106px" height="75px" preserveAspectRatio="xMinYMin meet" x="708" y="-245"/>
<text text-anchor="start" x="672.5" y="-146.8" font-family="Times New Roman,serif" font-size="24.00">Confirmation page</text>
</g>
<!-- EAID_1AD42D2D_69C1_4363_9375_69AE3B4F64E9&#45;&gt;EAID_E9B0A196_BDF3_407b_9BE0_F2DA48965228 -->
<g id="edge3" class="edge"><title>EAID_1AD42D2D_69C1_4363_9375_69AE3B4F64E9&#45;&gt;EAID_E9B0A196_BDF3_407b_9BE0_F2DA48965228</title>
<path fill="none" stroke="black" d="M626.197,-150.771C634.942,-153.541 643.7,-156.315 652.316,-159.045"/>
<polygon fill="black" stroke="black" points="651.384,-162.421 661.974,-162.104 653.498,-155.748 651.384,-162.421"/>
</g>
<!-- EAID_4A53EA7E_B95F_4a4f_8472_E30CD96A03F1 -->
<g id="node6" class="node"><title>EAID_4A53EA7E_B95F_4a4f_8472_E30CD96A03F1</title>
<image xlink:href="img/activity_icon.png" width="30px" height="20px" preserveAspectRatio="xMinYMin meet" x="745.5" y="-110"/>
<text text-anchor="start" x="705.5" y="-67.8" font-family="Times New Roman,serif" font-weight="bold" font-size="24.00">content db</text>
</g>
<!-- EAID_1AD42D2D_69C1_4363_9375_69AE3B4F64E9&#45;&gt;EAID_4A53EA7E_B95F_4a4f_8472_E30CD96A03F1 -->
<g id="edge4" class="edge"><title>EAID_1AD42D2D_69C1_4363_9375_69AE3B4F64E9&#45;&gt;EAID_4A53EA7E_B95F_4a4f_8472_E30CD96A03F1</title>
<path fill="none" stroke="black" d="M626.197,-97.7197C646.507,-95.7818 666.89,-93.8368 685.394,-92.0712"/>
<polygon fill="black" stroke="black" points="685.846,-95.5441 695.468,-91.1099 685.181,-88.5757 685.846,-95.5441"/>
</g>
<!-- EAID_E9B0A196_BDF3_407b_9BE0_F2DA48965228&#45;&gt;EAID_E994481B_4D37_4d1a_82CE_F03DC0EBD324 -->
<g id="edge7" class="edge"><title>EAID_E9B0A196_BDF3_407b_9BE0_F2DA48965228&#45;&gt;EAID_E994481B_4D37_4d1a_82CE_F03DC0EBD324</title>
<path fill="none" stroke="black" d="M661.616,-199.697C581.282,-202.663 465.188,-201.112 367,-177 357.47,-174.66 347.812,-171.653 338.251,-168.213"/>
<polygon fill="black" stroke="black" points="339.322,-164.876 328.73,-164.637 336.861,-171.43 339.322,-164.876"/>
</g>
<!-- EAID_E9B0A196_BDF3_407b_9BE0_F2DA48965228&#45;&gt;EAID_FBB9E656_38AE_4ce4_8505_CA8769BA536E -->
<g id="edge6" class="edge"><title>EAID_E9B0A196_BDF3_407b_9BE0_F2DA48965228&#45;&gt;EAID_FBB9E656_38AE_4ce4_8505_CA8769BA536E</title>
<path fill="none" stroke="black" d="M859.1,-150.126C868.067,-146.187 877.025,-142.253 885.664,-138.458"/>
<polygon fill="black" stroke="black" points="887.151,-141.627 894.899,-134.401 884.336,-135.218 887.151,-141.627"/>
</g>
</g>
</svg>
