<?xml version="1.0" encoding="UTF-8" standalone="no"?>
<!DOCTYPE svg PUBLIC "-//W3C//DTD SVG 1.1//EN"
 "http://www.w3.org/Graphics/SVG/1.1/DTD/svg11.dtd">
<!-- Generated by graphviz version 2.38.0 (20140413.2041)
 -->
<!-- Title: g Pages: 1 -->
<svg width="2126pt" height="645pt"
 viewBox="0.00 0.00 2126.00 645.00" xmlns="http://www.w3.org/2000/svg" xmlns:xlink="http://www.w3.org/1999/xlink">
<g id="graph0" class="graph" transform="scale(1 1) rotate(0) translate(4 641)">
<title>g</title>
<polygon fill="white" stroke="none" points="-4,4 -4,-641 2122,-641 2122,4 -4,4"/>
<g id="clust1" class="cluster"><title>cluster0</title>
<polygon fill="none" stroke="black" stroke-width="2" points="283,-254 283,-531 511,-531 511,-254 283,-254"/>
<text text-anchor="start" x="375" y="-516.8" font-family="Times New Roman,serif" font-weight="bold" font-size="14.00">System</text>
</g>
<g id="clust3" class="cluster"><title>cluster1000</title>
<polygon fill="none" stroke="black" stroke-width="2" points="8,-8 8,-246 2110,-246 2110,-8 8,-8"/>
<text text-anchor="start" x="1013.5" y="-231.8" font-family="Times New Roman,serif" font-weight="bold" font-size="14.00">Domain Model</text>
</g>
<g id="clust2" class="cluster"><title>cluster1</title>
<polygon fill="none" stroke="black" stroke-width="2" points="321,-539 321,-629 505,-629 505,-539 321,-539"/>
<text text-anchor="start" x="398.5" y="-614.8" font-family="Times New Roman,serif" font-weight="bold" font-size="14.00">User</text>
</g>
<!-- EAID_2131AFB0_4F0E_4197_AA82_EAC74180A520___EAID_E498C834_5E3B_4058_9B9F_CF7DCF3C385D -->
<g id="node1" class="node"><title>EAID_2131AFB0_4F0E_4197_AA82_EAC74180A520___EAID_E498C834_5E3B_4058_9B9F_CF7DCF3C385D</title>
<image xlink:href="img/activity_icon.png" width="30px" height="20px" preserveAspectRatio="xMinYMin meet" x="398.5" y="-493.5"/>
<text text-anchor="start" x="350" y="-459.3" font-family="Times New Roman,serif" font-weight="bold" font-size="14.00">User:Picture Gallery</text>
</g>
<!-- EAID_E498C834_5E3B_4058_9B9F_CF7DCF3C385D___EAID_D855C65B_EC1A_42e9_9D3F_A9CA1B48094C -->
<g id="node3" class="node"><title>EAID_E498C834_5E3B_4058_9B9F_CF7DCF3C385D___EAID_D855C65B_EC1A_42e9_9D3F_A9CA1B48094C</title>
<image xlink:href="img/activity_icon.png" width="30px" height="20px" preserveAspectRatio="xMinYMin meet" x="382" y="-407"/>
<text text-anchor="start" x="301" y="-372.8" font-family="Times New Roman,serif" font-weight="bold" font-size="14.00">Picture Gallery:retrieve picture</text>
<text text-anchor="start" x="377" y="-358.8" font-family="Times New Roman,serif" font-weight="bold" font-size="14.00">details</text>
</g>
<!-- EAID_2131AFB0_4F0E_4197_AA82_EAC74180A520___EAID_E498C834_5E3B_4058_9B9F_CF7DCF3C385D&#45;&gt;EAID_E498C834_5E3B_4058_9B9F_CF7DCF3C385D___EAID_D855C65B_EC1A_42e9_9D3F_A9CA1B48094C -->
<g id="edge1" class="edge"><title>EAID_2131AFB0_4F0E_4197_AA82_EAC74180A520___EAID_E498C834_5E3B_4058_9B9F_CF7DCF3C385D&#45;&gt;EAID_E498C834_5E3B_4058_9B9F_CF7DCF3C385D___EAID_D855C65B_EC1A_42e9_9D3F_A9CA1B48094C</title>
<path fill="none" stroke="black" d="M408.712,-448.98C407.328,-441.066 405.754,-432.063 404.219,-423.281"/>
<polygon fill="black" stroke="black" points="407.618,-422.401 402.448,-413.153 400.722,-423.607 407.618,-422.401"/>
</g>
<!-- EAID_E6CB08DD_466B_4c82_8332_5E005F8B4F04 -->
<g id="node12" class="node"><title>EAID_E6CB08DD_466B_4c82_8332_5E005F8B4F04</title>
<polygon fill="none" stroke="black" points="403,-157.5 403,-178.5 647,-178.5 647,-157.5 403,-157.5"/>
<text text-anchor="start" x="502.5" y="-165.3" font-family="Times New Roman,serif" font-weight="bold" font-size="14.00">Picture</text>
<polygon fill="none" stroke="black" points="403,-136.5 403,-157.5 647,-157.5 647,-136.5 403,-136.5"/>
<text text-anchor="start" x="498" y="-144.3" font-family="Times New Roman,serif" font-weight="bold" font-size="14.00">Picture()</text>
<polygon fill="none" stroke="black" points="403,-115.5 403,-136.5 647,-136.5 647,-115.5 403,-115.5"/>
<text text-anchor="start" x="406" y="-123.3" font-family="Times New Roman,serif" font-weight="bold" font-size="14.00">showsthepictureandtextboxforcaption()</text>
<polygon fill="none" stroke="black" points="403,-94.5 403,-115.5 647,-115.5 647,-94.5 403,-94.5"/>
<text text-anchor="start" x="448.5" y="-102.3" font-family="Times New Roman,serif" font-weight="bold" font-size="14.00">Restorereportedpicture()</text>
<polygon fill="none" stroke="black" points="403,-73.5 403,-94.5 647,-94.5 647,-73.5 403,-73.5"/>
<text text-anchor="start" x="454" y="-81.3" font-family="Times New Roman,serif" font-weight="bold" font-size="14.00">retrivethelistofpicture()</text>
<polygon fill="none" stroke="black" points="403,-52.5 403,-73.5 647,-73.5 647,-52.5 403,-52.5"/>
<text text-anchor="start" x="448" y="-60.3" font-family="Times New Roman,serif" font-weight="bold" font-size="14.00">Searchpicturesbyradius()</text>
<polygon fill="none" stroke="black" points="402,-51.5 402,-179.5 648,-179.5 648,-51.5 402,-51.5"/>
</g>
<!-- EAID_2131AFB0_4F0E_4197_AA82_EAC74180A520___EAID_E498C834_5E3B_4058_9B9F_CF7DCF3C385D&#45;&gt;EAID_E6CB08DD_466B_4c82_8332_5E005F8B4F04 -->
<g id="edge4" class="edge"><title>EAID_2131AFB0_4F0E_4197_AA82_EAC74180A520___EAID_E498C834_5E3B_4058_9B9F_CF7DCF3C385D&#45;&gt;EAID_E6CB08DD_466B_4c82_8332_5E005F8B4F04</title>
<path fill="none" stroke="black" stroke-dasharray="5,2" d="M471.239,-448.893C486.655,-439.747 501.818,-427.877 512,-413 555.713,-349.128 552.603,-258.127 542.568,-193.826"/>
<polygon fill="black" stroke="black" points="545.986,-193.04 540.904,-183.743 539.079,-194.18 545.986,-193.04"/>
</g>
<!-- EAID_D855C65B_EC1A_42e9_9D3F_A9CA1B48094C___EAID_FAD06F83_2124_4ea0_B3F2_11B46DDF9956 -->
<g id="node2" class="node"><title>EAID_D855C65B_EC1A_42e9_9D3F_A9CA1B48094C___EAID_FAD06F83_2124_4ea0_B3F2_11B46DDF9956</title>
<image xlink:href="img/activity_icon.png" width="30px" height="20px" preserveAspectRatio="xMinYMin meet" x="379" y="-306.5"/>
<text text-anchor="start" x="301" y="-272.3" font-family="Times New Roman,serif" font-weight="bold" font-size="14.00">retrieve picture details:Picture</text>
</g>
<!-- EAID_D855C65B_EC1A_42e9_9D3F_A9CA1B48094C___EAID_FAD06F83_2124_4ea0_B3F2_11B46DDF9956&#45;&gt;EAID_E6CB08DD_466B_4c82_8332_5E005F8B4F04 -->
<g id="edge5" class="edge"><title>EAID_D855C65B_EC1A_42e9_9D3F_A9CA1B48094C___EAID_FAD06F83_2124_4ea0_B3F2_11B46DDF9956&#45;&gt;EAID_E6CB08DD_466B_4c82_8332_5E005F8B4F04</title>
<path fill="none" stroke="black" stroke-dasharray="5,2" d="M413.049,-261.781C427.264,-243.333 447.493,-217.082 466.854,-191.957"/>
<polygon fill="black" stroke="black" points="469.769,-193.908 473.1,-183.851 464.224,-189.635 469.769,-193.908"/>
</g>
<!-- EAID_E498C834_5E3B_4058_9B9F_CF7DCF3C385D___EAID_D855C65B_EC1A_42e9_9D3F_A9CA1B48094C&#45;&gt;EAID_D855C65B_EC1A_42e9_9D3F_A9CA1B48094C___EAID_FAD06F83_2124_4ea0_B3F2_11B46DDF9956 -->
<g id="edge3" class="edge"><title>EAID_E498C834_5E3B_4058_9B9F_CF7DCF3C385D___EAID_D855C65B_EC1A_42e9_9D3F_A9CA1B48094C&#45;&gt;EAID_D855C65B_EC1A_42e9_9D3F_A9CA1B48094C___EAID_FAD06F83_2124_4ea0_B3F2_11B46DDF9956</title>
<path fill="none" stroke="black" d="M395.976,-348.767C395.709,-340.613 395.419,-331.773 395.146,-323.44"/>
<polygon fill="black" stroke="black" points="398.637,-323.126 394.811,-313.246 391.641,-323.355 398.637,-323.126"/>
</g>
<!-- EAID_E498C834_5E3B_4058_9B9F_CF7DCF3C385D___EAID_D855C65B_EC1A_42e9_9D3F_A9CA1B48094C&#45;&gt;EAID_E6CB08DD_466B_4c82_8332_5E005F8B4F04 -->
<g id="edge6" class="edge"><title>EAID_E498C834_5E3B_4058_9B9F_CF7DCF3C385D___EAID_D855C65B_EC1A_42e9_9D3F_A9CA1B48094C&#45;&gt;EAID_E6CB08DD_466B_4c82_8332_5E005F8B4F04</title>
<path fill="none" stroke="black" stroke-dasharray="5,2" d="M469.065,-348.819C483.474,-339.352 496.943,-327.509 506,-313 527.907,-277.903 533.379,-232.214 533.044,-193.726"/>
<polygon fill="black" stroke="black" points="536.54,-193.514 532.823,-183.593 529.542,-193.667 536.54,-193.514"/>
</g>
<!-- EAID_2131AFB0_4F0E_4197_AA82_EAC74180A520___EAID_E498C834_5E3B_4058_9B9F_CF7DCF3C385D_STL -->
<g id="node4" class="node"><title>EAID_2131AFB0_4F0E_4197_AA82_EAC74180A520___EAID_E498C834_5E3B_4058_9B9F_CF7DCF3C385D_STL</title>
<image xlink:href="img/stimulus_icon.png" width="30px" height="20px" preserveAspectRatio="xMinYMin meet" x="398" y="-591.5"/>
<text text-anchor="start" x="339" y="-557.3" font-family="Times New Roman,serif" font-weight="bold" font-size="14.00">stl#User:Picture Gallery</text>
</g>
<!-- EAID_2131AFB0_4F0E_4197_AA82_EAC74180A520___EAID_E498C834_5E3B_4058_9B9F_CF7DCF3C385D_STL&#45;&gt;EAID_2131AFB0_4F0E_4197_AA82_EAC74180A520___EAID_E498C834_5E3B_4058_9B9F_CF7DCF3C385D -->
<g id="edge2" class="edge"><title>EAID_2131AFB0_4F0E_4197_AA82_EAC74180A520___EAID_E498C834_5E3B_4058_9B9F_CF7DCF3C385D_STL&#45;&gt;EAID_2131AFB0_4F0E_4197_AA82_EAC74180A520___EAID_E498C834_5E3B_4058_9B9F_CF7DCF3C385D</title>
<path fill="none" stroke="black" d="M413,-546.778C413,-535.692 413,-522.42 413,-510.351"/>
<polygon fill="black" stroke="black" points="416.5,-510.139 413,-500.139 409.5,-510.139 416.5,-510.139"/>
</g>
<!-- EAID_7489B5D3_9809_4f87_AD26_41FE345759CA -->
<g id="node5" class="node"><title>EAID_7489B5D3_9809_4f87_AD26_41FE345759CA</title>
<polygon fill="none" stroke="black" points="2049,-115.5 2049,-136.5 2093,-136.5 2093,-115.5 2049,-115.5"/>
<text text-anchor="start" x="2056.5" y="-123.3" font-family="Times New Roman,serif" font-weight="bold" font-size="14.00">User</text>
<polygon fill="none" stroke="black" points="2049,-94.5 2049,-115.5 2093,-115.5 2093,-94.5 2049,-94.5"/>
<text text-anchor="start" x="2052" y="-102.3" font-family="Times New Roman,serif" font-weight="bold" font-size="14.00">User()</text>
<polygon fill="none" stroke="black" points="2048,-93.5 2048,-137.5 2094,-137.5 2094,-93.5 2048,-93.5"/>
</g>
<!-- EAID_7A60B82A_7E49_4a91_896C_88036575E0B9 -->
<g id="node6" class="node"><title>EAID_7A60B82A_7E49_4a91_896C_88036575E0B9</title>
<polygon fill="none" stroke="black" points="1862,-178.5 1862,-199.5 2013,-199.5 2013,-178.5 1862,-178.5"/>
<text text-anchor="start" x="1899" y="-186.3" font-family="Times New Roman,serif" font-weight="bold" font-size="14.00">Hashtagicon</text>
<polygon fill="none" stroke="black" points="1862,-157.5 1862,-178.5 2013,-178.5 2013,-157.5 1862,-157.5"/>
<text text-anchor="start" x="1894.5" y="-165.3" font-family="Times New Roman,serif" font-weight="bold" font-size="14.00">Hashtagicon()</text>
<polygon fill="none" stroke="black" points="1862,-136.5 1862,-157.5 2013,-157.5 2013,-136.5 1862,-136.5"/>
<text text-anchor="start" x="1865" y="-144.3" font-family="Times New Roman,serif" font-weight="bold" font-size="14.00">Showhashtagtextinput()</text>
<polygon fill="none" stroke="black" points="1862,-115.5 1862,-136.5 2013,-136.5 2013,-115.5 1862,-115.5"/>
<text text-anchor="start" x="1895" y="-123.3" font-family="Times New Roman,serif" font-weight="bold" font-size="14.00">ConfirmBox()</text>
<polygon fill="none" stroke="black" points="1862,-94.5 1862,-115.5 2013,-115.5 2013,-94.5 1862,-94.5"/>
<text text-anchor="start" x="1867" y="-102.3" font-family="Times New Roman,serif" font-weight="bold" font-size="14.00">Showsconfirmprompt()</text>
<polygon fill="none" stroke="black" points="1862,-73.5 1862,-94.5 2013,-94.5 2013,-73.5 1862,-73.5"/>
<text text-anchor="start" x="1869" y="-81.3" font-family="Times New Roman,serif" font-weight="bold" font-size="14.00">HeartIcononapicture()</text>
<polygon fill="none" stroke="black" points="1862,-52.5 1862,-73.5 2013,-73.5 2013,-52.5 1862,-52.5"/>
<text text-anchor="start" x="1894.5" y="-60.3" font-family="Times New Roman,serif" font-weight="bold" font-size="14.00">CameraIcon()</text>
<polygon fill="none" stroke="black" points="1862,-31.5 1862,-52.5 2013,-52.5 2013,-31.5 1862,-31.5"/>
<text text-anchor="start" x="1902.5" y="-39.3" font-family="Times New Roman,serif" font-weight="bold" font-size="14.00">FilterIcon()</text>
<polygon fill="none" stroke="black" points="1860.5,-30.5 1860.5,-200.5 2013.5,-200.5 2013.5,-30.5 1860.5,-30.5"/>
</g>
<!-- EAID_0C9775C5_EF89_47f8_97E3_A9DAFF21F116 -->
<g id="node7" class="node"><title>EAID_0C9775C5_EF89_47f8_97E3_A9DAFF21F116</title>
<polygon fill="none" stroke="black" points="1653,-136.5 1653,-157.5 1825,-157.5 1825,-136.5 1653,-136.5"/>
<text text-anchor="start" x="1698" y="-144.3" font-family="Times New Roman,serif" font-weight="bold" font-size="14.00">SearchResult</text>
<polygon fill="none" stroke="black" points="1653,-115.5 1653,-136.5 1825,-136.5 1825,-115.5 1653,-115.5"/>
<text text-anchor="start" x="1693.5" y="-123.3" font-family="Times New Roman,serif" font-weight="bold" font-size="14.00">SearchResult()</text>
<polygon fill="none" stroke="black" points="1653,-94.5 1653,-115.5 1825,-115.5 1825,-94.5 1653,-94.5"/>
<text text-anchor="start" x="1656" y="-102.3" font-family="Times New Roman,serif" font-weight="bold" font-size="14.00">Checkpresenceoftheevent()</text>
<polygon fill="none" stroke="black" points="1653,-73.5 1653,-94.5 1825,-94.5 1825,-73.5 1653,-73.5"/>
<text text-anchor="start" x="1677" y="-81.3" font-family="Times New Roman,serif" font-weight="bold" font-size="14.00">Searchboxofevents()</text>
<polygon fill="none" stroke="black" points="1652,-72.5 1652,-158.5 1826,-158.5 1826,-72.5 1652,-72.5"/>
</g>
<!-- EAID_80E4B179_2ACA_4847_95D3_EC956BEDFABF -->
<g id="node8" class="node"><title>EAID_80E4B179_2ACA_4847_95D3_EC956BEDFABF</title>
<polygon fill="none" stroke="black" points="1409,-146.5 1409,-167.5 1617,-167.5 1617,-146.5 1409,-146.5"/>
<text text-anchor="start" x="1416.5" y="-154.3" font-family="Times New Roman,serif" font-weight="bold" font-size="14.00">Warninginformationofduplicate</text>
<polygon fill="none" stroke="black" points="1409,-125.5 1409,-146.5 1617,-146.5 1617,-125.5 1409,-125.5"/>
<text text-anchor="start" x="1412" y="-133.3" font-family="Times New Roman,serif" font-weight="bold" font-size="14.00">Warninginformationofduplicate()</text>
<polygon fill="none" stroke="black" points="1409,-104.5 1409,-125.5 1617,-125.5 1617,-104.5 1409,-104.5"/>
<text text-anchor="start" x="1436" y="-112.3" font-family="Times New Roman,serif" font-weight="bold" font-size="14.00">Showwarningofdeletion()</text>
<polygon fill="none" stroke="black" points="1409,-83.5 1409,-104.5 1617,-104.5 1617,-83.5 1409,-83.5"/>
<text text-anchor="start" x="1435.5" y="-91.3" font-family="Times New Roman,serif" font-weight="bold" font-size="14.00">Storethelikeinformation()</text>
<polygon fill="none" stroke="black" points="1409,-62.5 1409,-83.5 1617,-83.5 1617,-62.5 1409,-62.5"/>
<text text-anchor="start" x="1453.5" y="-70.3" font-family="Times New Roman,serif" font-weight="bold" font-size="14.00">galleryapplication()</text>
<polygon fill="none" stroke="black" points="1408,-62 1408,-169 1618,-169 1618,-62 1408,-62"/>
</g>
<!-- EAID_0A50B7A2_18D1_49ad_914B_5E275B0DA079 -->
<g id="node9" class="node"><title>EAID_0A50B7A2_18D1_49ad_914B_5E275B0DA079</title>
<polygon fill="none" stroke="black" points="1182,-188.5 1182,-209.5 1373,-209.5 1373,-188.5 1182,-188.5"/>
<text text-anchor="start" x="1219.5" y="-196.3" font-family="Times New Roman,serif" font-weight="bold" font-size="14.00">DeleteEventButton</text>
<polygon fill="none" stroke="black" points="1182,-167.5 1182,-188.5 1373,-188.5 1373,-167.5 1182,-167.5"/>
<text text-anchor="start" x="1215" y="-175.3" font-family="Times New Roman,serif" font-weight="bold" font-size="14.00">DeleteEventButton()</text>
<polygon fill="none" stroke="black" points="1182,-146.5 1182,-167.5 1373,-167.5 1373,-146.5 1182,-146.5"/>
<text text-anchor="start" x="1255" y="-154.3" font-family="Times New Roman,serif" font-weight="bold" font-size="14.00">Event()</text>
<polygon fill="none" stroke="black" points="1182,-125.5 1182,-146.5 1373,-146.5 1373,-125.5 1182,-125.5"/>
<text text-anchor="start" x="1185" y="-133.3" font-family="Times New Roman,serif" font-weight="bold" font-size="14.00">Closewarninganddeleteevent()</text>
<polygon fill="none" stroke="black" points="1182,-104.5 1182,-125.5 1373,-125.5 1373,-104.5 1182,-104.5"/>
<text text-anchor="start" x="1230.5" y="-112.3" font-family="Times New Roman,serif" font-weight="bold" font-size="14.00">LogoutButton()</text>
<polygon fill="none" stroke="black" points="1182,-83.5 1182,-104.5 1373,-104.5 1373,-83.5 1182,-83.5"/>
<text text-anchor="start" x="1205" y="-91.3" font-family="Times New Roman,serif" font-weight="bold" font-size="14.00">EventandcaptionInput()</text>
<polygon fill="none" stroke="black" points="1182,-62.5 1182,-83.5 1373,-83.5 1373,-62.5 1182,-62.5"/>
<text text-anchor="start" x="1205" y="-70.3" font-family="Times New Roman,serif" font-weight="bold" font-size="14.00">storepictureintheevent()</text>
<polygon fill="none" stroke="black" points="1182,-41.5 1182,-62.5 1373,-62.5 1373,-41.5 1182,-41.5"/>
<text text-anchor="start" x="1230" y="-49.3" font-family="Times New Roman,serif" font-weight="bold" font-size="14.00">retrieveevents()</text>
<polygon fill="none" stroke="black" points="1182,-20.5 1182,-41.5 1373,-41.5 1373,-20.5 1182,-20.5"/>
<text text-anchor="start" x="1209.5" y="-28.3" font-family="Times New Roman,serif" font-weight="bold" font-size="14.00">RadiusSettingButton()</text>
<polygon fill="none" stroke="black" points="1180.5,-20 1180.5,-211 1373.5,-211 1373.5,-20 1180.5,-20"/>
</g>
<!-- EAID_C99981CE_38A8_458e_9DF6_3B6B8E57CBF1 -->
<g id="node10" class="node"><title>EAID_C99981CE_38A8_458e_9DF6_3B6B8E57CBF1</title>
<polygon fill="none" stroke="black" points="1033,-157.5 1033,-178.5 1145,-178.5 1145,-157.5 1033,-157.5"/>
<text text-anchor="start" x="1045" y="-165.3" font-family="Times New Roman,serif" font-weight="bold" font-size="14.00">AppMainPage</text>
<polygon fill="none" stroke="black" points="1033,-136.5 1033,-157.5 1145,-157.5 1145,-136.5 1033,-136.5"/>
<text text-anchor="start" x="1040.5" y="-144.3" font-family="Times New Roman,serif" font-weight="bold" font-size="14.00">AppMainPage()</text>
<polygon fill="none" stroke="black" points="1033,-115.5 1033,-136.5 1145,-136.5 1145,-115.5 1033,-115.5"/>
<text text-anchor="start" x="1051" y="-123.3" font-family="Times New Roman,serif" font-weight="bold" font-size="14.00">LoginPage()</text>
<polygon fill="none" stroke="black" points="1033,-94.5 1033,-115.5 1145,-115.5 1145,-94.5 1033,-94.5"/>
<text text-anchor="start" x="1047" y="-102.3" font-family="Times New Roman,serif" font-weight="bold" font-size="14.00">CameraApp()</text>
<polygon fill="none" stroke="black" points="1033,-73.5 1033,-94.5 1145,-94.5 1145,-73.5 1033,-73.5"/>
<text text-anchor="start" x="1043" y="-81.3" font-family="Times New Roman,serif" font-weight="bold" font-size="14.00">RegisterPage()</text>
<polygon fill="none" stroke="black" points="1033,-52.5 1033,-73.5 1145,-73.5 1145,-52.5 1033,-52.5"/>
<text text-anchor="start" x="1036" y="-60.3" font-family="Times New Roman,serif" font-weight="bold" font-size="14.00">ImageFilterBox()</text>
<polygon fill="none" stroke="black" points="1032,-51.5 1032,-179.5 1146,-179.5 1146,-51.5 1032,-51.5"/>
</g>
<!-- EAID_5B081FBB_04D9_4adb_B481_B2FA80955739 -->
<g id="node11" class="node"><title>EAID_5B081FBB_04D9_4adb_B481_B2FA80955739</title>
<polygon fill="none" stroke="black" points="684,-146.5 684,-167.5 997,-167.5 997,-146.5 684,-146.5"/>
<text text-anchor="start" x="797.5" y="-154.3" font-family="Times New Roman,serif" font-weight="bold" font-size="14.00">Optionstopost</text>
<polygon fill="none" stroke="black" points="684,-125.5 684,-146.5 997,-146.5 997,-125.5 684,-125.5"/>
<text text-anchor="start" x="793" y="-133.3" font-family="Times New Roman,serif" font-weight="bold" font-size="14.00">Optionstopost()</text>
<polygon fill="none" stroke="black" points="684,-104.5 684,-125.5 997,-125.5 997,-104.5 684,-104.5"/>
<text text-anchor="start" x="689" y="-112.3" font-family="Times New Roman,serif" font-weight="bold" font-size="14.00">showpictureandoptionstopostnearbyortoanevent()</text>
<polygon fill="none" stroke="black" points="684,-83.5 684,-104.5 997,-104.5 997,-83.5 684,-83.5"/>
<text text-anchor="start" x="687" y="-91.3" font-family="Times New Roman,serif" font-weight="bold" font-size="14.00">retriveuserslocationandpoststhepictureatlocation()</text>
<polygon fill="none" stroke="black" points="684,-62.5 684,-83.5 997,-83.5 997,-62.5 684,-62.5"/>
<text text-anchor="start" x="791" y="-70.3" font-family="Times New Roman,serif" font-weight="bold" font-size="14.00">Sortingoptions()</text>
<polygon fill="none" stroke="black" points="682.5,-62 682.5,-169 997.5,-169 997.5,-62 682.5,-62"/>
</g>
<!-- EAID_756FEF97_8317_4f5a_9774_168F735F5ADF -->
<g id="node13" class="node"><title>EAID_756FEF97_8317_4f5a_9774_168F735F5ADF</title>
<polygon fill="none" stroke="black" points="243,-115.5 243,-136.5 367,-136.5 367,-115.5 243,-115.5"/>
<text text-anchor="start" x="250.5" y="-123.3" font-family="Times New Roman,serif" font-weight="bold" font-size="14.00">downloadtophone</text>
<polygon fill="none" stroke="black" points="243,-94.5 243,-115.5 367,-115.5 367,-94.5 243,-94.5"/>
<text text-anchor="start" x="246" y="-102.3" font-family="Times New Roman,serif" font-weight="bold" font-size="14.00">downloadtophone()</text>
<polygon fill="none" stroke="black" points="242,-93.5 242,-137.5 368,-137.5 368,-93.5 242,-93.5"/>
</g>
<!-- EAID_A8B633A5_7376_4716_A0D1_05199BD4326A -->
<g id="node14" class="node"><title>EAID_A8B633A5_7376_4716_A0D1_05199BD4326A</title>
<polygon fill="none" stroke="black" points="26,-125.5 26,-146.5 207,-146.5 207,-125.5 26,-125.5"/>
<text text-anchor="start" x="70.5" y="-133.3" font-family="Times New Roman,serif" font-weight="bold" font-size="14.00">ConfirmDialog</text>
<polygon fill="none" stroke="black" points="26,-104.5 26,-125.5 207,-125.5 207,-104.5 26,-104.5"/>
<text text-anchor="start" x="66" y="-112.3" font-family="Times New Roman,serif" font-weight="bold" font-size="14.00">ConfirmDialog()</text>
<polygon fill="none" stroke="black" points="26,-83.5 26,-104.5 207,-104.5 207,-83.5 26,-83.5"/>
<text text-anchor="start" x="29" y="-91.3" font-family="Times New Roman,serif" font-weight="bold" font-size="14.00">PromptEventUpdateDialog()</text>
<polygon fill="none" stroke="black" points="24.5,-83 24.5,-148 207.5,-148 207.5,-83 24.5,-83"/>
</g>
</g>
</svg>
