<?xml version="1.0" encoding="UTF-8" standalone="no"?>
<!DOCTYPE svg PUBLIC "-//W3C//DTD SVG 1.1//EN"
 "http://www.w3.org/Graphics/SVG/1.1/DTD/svg11.dtd">
<!-- Generated by graphviz version 2.38.0 (20140413.2041)
 -->
<!-- Title: g Pages: 1 -->
<svg width="1344pt" height="1062pt"
 viewBox="0.00 0.00 1344.00 1062.00" xmlns="http://www.w3.org/2000/svg" xmlns:xlink="http://www.w3.org/1999/xlink">
<g id="graph0" class="graph" transform="scale(1 1) rotate(0) translate(4 1058)">
<title>g</title>
<polygon fill="white" stroke="none" points="-4,4 -4,-1058 1340,-1058 1340,4 -4,4"/>
<!-- EAID_7F562617_74A2_4e17_8FE1_FB57932CBBE9 -->
<g id="node1" class="node"><title>EAID_7F562617_74A2_4e17_8FE1_FB57932CBBE9</title>
<image xlink:href="img/actor1.png" width="82px" height="90px" preserveAspectRatio="xMinYMin meet" x="35" y="-400.5"/>
<text text-anchor="start" x="10" y="-287.3" font-family="Times New Roman,serif" font-size="24.00">Administrator</text>
</g>
<!-- EAID_8CBFDB9C_CE43_46d2_BAF0_EB59BA43C0F7 -->
<g id="node2" class="node"><title>EAID_8CBFDB9C_CE43_46d2_BAF0_EB59BA43C0F7</title>
<image xlink:href="img/boundary3.png" width="115px" height="67px" preserveAspectRatio="xMinYMin meet" x="243.5" y="-388.5"/>
<text text-anchor="start" x="198" y="-298.3" font-family="Times New Roman,serif" font-size="24.00">Transaction Log Page</text>
</g>
<!-- EAID_7F562617_74A2_4e17_8FE1_FB57932CBBE9&#45;&gt;EAID_8CBFDB9C_CE43_46d2_BAF0_EB59BA43C0F7 -->
<g id="edge1" class="edge"><title>EAID_7F562617_74A2_4e17_8FE1_FB57932CBBE9&#45;&gt;EAID_8CBFDB9C_CE43_46d2_BAF0_EB59BA43C0F7</title>
<path fill="none" stroke="black" d="M152.187,-340.5C160.457,-340.5 169.026,-340.5 177.684,-340.5"/>
<polygon fill="black" stroke="black" points="177.874,-344 187.874,-340.5 177.874,-337 177.874,-344"/>
</g>
<!-- EAID_D4074138_8981_4e9b_BDA0_E73BBB08FA24 -->
<g id="node6" class="node"><title>EAID_D4074138_8981_4e9b_BDA0_E73BBB08FA24</title>
<image xlink:href="img/control1.png" width="106px" height="75px" preserveAspectRatio="xMinYMin meet" x="502" y="-515.5"/>
<text text-anchor="start" x="460" y="-417.3" font-family="Times New Roman,serif" font-size="24.00">Display transactions</text>
</g>
<!-- EAID_8CBFDB9C_CE43_46d2_BAF0_EB59BA43C0F7&#45;&gt;EAID_D4074138_8981_4e9b_BDA0_E73BBB08FA24 -->
<g id="edge17" class="edge"><title>EAID_8CBFDB9C_CE43_46d2_BAF0_EB59BA43C0F7&#45;&gt;EAID_D4074138_8981_4e9b_BDA0_E73BBB08FA24</title>
<path fill="none" stroke="black" d="M413.998,-395.166C422.877,-399.499 431.848,-403.878 440.735,-408.216"/>
<polygon fill="black" stroke="black" points="439.436,-411.476 449.957,-412.717 442.506,-405.186 439.436,-411.476"/>
</g>
<!-- EAID_D46FE9DE_716D_42f0_8EC2_438AF5A1909F -->
<g id="node7" class="node"><title>EAID_D46FE9DE_716D_42f0_8EC2_438AF5A1909F</title>
<image xlink:href="img/control1.png" width="106px" height="75px" preserveAspectRatio="xMinYMin meet" x="812" y="-110.5"/>
<text text-anchor="start" x="706" y="-12.3" font-family="Times New Roman,serif" font-size="24.00">Display connection error message</text>
</g>
<!-- EAID_8CBFDB9C_CE43_46d2_BAF0_EB59BA43C0F7&#45;&gt;EAID_D46FE9DE_716D_42f0_8EC2_438AF5A1909F -->
<g id="edge8" class="edge"><title>EAID_8CBFDB9C_CE43_46d2_BAF0_EB59BA43C0F7&#45;&gt;EAID_D46FE9DE_716D_42f0_8EC2_438AF5A1909F</title>
<path fill="none" stroke="black" d="M394.699,-285.794C473.524,-240.283 590.398,-175.151 696,-125.5 698.984,-124.097 702.005,-122.697 705.057,-121.301"/>
<polygon fill="black" stroke="black" points="706.62,-124.435 714.292,-117.129 703.738,-118.056 706.62,-124.435"/>
</g>
<!-- EAID_A7B6B6D3_C6C8_439b_B580_D1DBCD39560A -->
<g id="node3" class="node"><title>EAID_A7B6B6D3_C6C8_439b_B580_D1DBCD39560A</title>
<image xlink:href="img/control1.png" width="106px" height="75px" preserveAspectRatio="xMinYMin meet" x="812" y="-920.5"/>
<text text-anchor="start" x="786" y="-822.3" font-family="Times New Roman,serif" font-size="24.00">Direct to modify</text>
</g>
<!-- EAID_78CFDC87_9A80_43bf_8C52_1909CEED6C0A -->
<g id="node4" class="node"><title>EAID_78CFDC87_9A80_43bf_8C52_1909CEED6C0A</title>
<image xlink:href="img/boundary3.png" width="115px" height="67px" preserveAspectRatio="xMinYMin meet" x="1145.5" y="-916.5"/>
<text text-anchor="start" x="1080" y="-826.3" font-family="Times New Roman,serif" font-size="24.00">Dispute Redemption Page</text>
</g>
<!-- EAID_A7B6B6D3_C6C8_439b_B580_D1DBCD39560A&#45;&gt;EAID_78CFDC87_9A80_43bf_8C52_1909CEED6C0A -->
<g id="edge2" class="edge"><title>EAID_A7B6B6D3_C6C8_439b_B580_D1DBCD39560A&#45;&gt;EAID_78CFDC87_9A80_43bf_8C52_1909CEED6C0A</title>
<path fill="none" stroke="black" d="M954.28,-868.5C986.537,-868.5 1023.9,-868.5 1059.67,-868.5"/>
<polygon fill="black" stroke="black" points="1059.71,-872 1069.71,-868.5 1059.71,-865 1059.71,-872"/>
</g>
<!-- EAID_B638B5A2_D222_4c89_9656_7FD8FEF885B6 -->
<g id="node5" class="node"><title>EAID_B638B5A2_D222_4c89_9656_7FD8FEF885B6</title>
<image xlink:href="img/activity_icon.png" width="30px" height="20px" preserveAspectRatio="xMinYMin meet" x="1188" y="-690.5"/>
<text text-anchor="start" x="1121" y="-648.3" font-family="Times New Roman,serif" font-weight="bold" font-size="24.00">Transaction DB</text>
</g>
<!-- EAID_A7B6B6D3_C6C8_439b_B580_D1DBCD39560A&#45;&gt;EAID_B638B5A2_D222_4c89_9656_7FD8FEF885B6 -->
<g id="edge3" class="edge"><title>EAID_A7B6B6D3_C6C8_439b_B580_D1DBCD39560A&#45;&gt;EAID_B638B5A2_D222_4c89_9656_7FD8FEF885B6</title>
<path fill="none" stroke="black" d="M954.248,-839.051C980.679,-828.726 1009.21,-816.025 1034,-801.5 1081.51,-773.663 1129.75,-733.056 1162.28,-703.463"/>
<polygon fill="black" stroke="black" points="1164.79,-705.911 1169.79,-696.571 1160.05,-700.753 1164.79,-705.911"/>
</g>
<!-- EAID_D4074138_8981_4e9b_BDA0_E73BBB08FA24&#45;&gt;EAID_A7B6B6D3_C6C8_439b_B580_D1DBCD39560A -->
<g id="edge4" class="edge"><title>EAID_D4074138_8981_4e9b_BDA0_E73BBB08FA24&#45;&gt;EAID_A7B6B6D3_C6C8_439b_B580_D1DBCD39560A</title>
<path fill="none" stroke="black" d="M565.81,-522.067C581.141,-596.358 617.565,-724.094 696,-801.5 715.322,-820.569 740.755,-834.4 765.966,-844.355"/>
<polygon fill="black" stroke="black" points="765.013,-847.736 775.605,-847.984 767.479,-841.185 765.013,-847.736"/>
</g>
<!-- EAID_D4074138_8981_4e9b_BDA0_E73BBB08FA24&#45;&gt;EAID_D46FE9DE_716D_42f0_8EC2_438AF5A1909F -->
<g id="edge7" class="edge"><title>EAID_D4074138_8981_4e9b_BDA0_E73BBB08FA24&#45;&gt;EAID_D46FE9DE_716D_42f0_8EC2_438AF5A1909F</title>
<path fill="none" stroke="black" d="M584.274,-404.551C606.128,-358.045 636.512,-291.274 660,-231.5 678.196,-185.193 661.747,-161.585 696,-125.5 696.338,-125.144 696.678,-124.79 697.02,-124.438"/>
<polygon fill="black" stroke="black" points="699.674,-126.743 704.497,-117.31 694.844,-121.677 699.674,-126.743"/>
</g>
<!-- EAID_17C857C7_3101_4a67_A4BD_5D31E1775C02 -->
<g id="node10" class="node"><title>EAID_17C857C7_3101_4a67_A4BD_5D31E1775C02</title>
<image xlink:href="img/control1.png" width="106px" height="75px" preserveAspectRatio="xMinYMin meet" x="812" y="-380.5"/>
<text text-anchor="start" x="714" y="-282.3" font-family="Times New Roman,serif" font-size="24.00">Display no transactions message</text>
</g>
<!-- EAID_D4074138_8981_4e9b_BDA0_E73BBB08FA24&#45;&gt;EAID_17C857C7_3101_4a67_A4BD_5D31E1775C02 -->
<g id="edge10" class="edge"><title>EAID_D4074138_8981_4e9b_BDA0_E73BBB08FA24&#45;&gt;EAID_17C857C7_3101_4a67_A4BD_5D31E1775C02</title>
<path fill="none" stroke="black" d="M660.026,-412.845C672.105,-407.222 684.29,-401.666 696,-396.5 700.078,-394.701 704.218,-392.893 708.403,-391.083"/>
<polygon fill="black" stroke="black" points="709.821,-394.283 717.625,-387.117 707.055,-387.852 709.821,-394.283"/>
</g>
<!-- EAID_945AD8D3_A53C_4855_BEAB_738A51AE81DD -->
<g id="node11" class="node"><title>EAID_945AD8D3_A53C_4855_BEAB_738A51AE81DD</title>
<image xlink:href="img/control1.png" width="106px" height="75px" preserveAspectRatio="xMinYMin meet" x="812.5" y="-245.5"/>
<text text-anchor="start" x="719" y="-147.3" font-family="Times New Roman,serif" font-size="24.00">Display pritner failure message</text>
</g>
<!-- EAID_D4074138_8981_4e9b_BDA0_E73BBB08FA24&#45;&gt;EAID_945AD8D3_A53C_4855_BEAB_738A51AE81DD -->
<g id="edge12" class="edge"><title>EAID_D4074138_8981_4e9b_BDA0_E73BBB08FA24&#45;&gt;EAID_945AD8D3_A53C_4855_BEAB_738A51AE81DD</title>
<path fill="none" stroke="black" d="M584.265,-404.857C608.47,-360.021 647.134,-299.474 696,-260.5 697.35,-259.423 698.72,-258.362 700.108,-257.315"/>
<polygon fill="black" stroke="black" points="702.152,-260.156 708.243,-251.487 698.076,-254.466 702.152,-260.156"/>
</g>
<!-- EAID_9AE1A71E_439E_43fc_8296_9C2FB171D2A5 -->
<g id="node12" class="node"><title>EAID_9AE1A71E_439E_43fc_8296_9C2FB171D2A5</title>
<image xlink:href="img/control1.png" width="106px" height="75px" preserveAspectRatio="xMinYMin meet" x="812" y="-785.5"/>
<text text-anchor="start" x="779" y="-687.3" font-family="Times New Roman,serif" font-size="24.00">Retrieve and print</text>
</g>
<!-- EAID_D4074138_8981_4e9b_BDA0_E73BBB08FA24&#45;&gt;EAID_9AE1A71E_439E_43fc_8296_9C2FB171D2A5 -->
<g id="edge13" class="edge"><title>EAID_D4074138_8981_4e9b_BDA0_E73BBB08FA24&#45;&gt;EAID_9AE1A71E_439E_43fc_8296_9C2FB171D2A5</title>
<path fill="none" stroke="black" d="M584.265,-522.143C608.47,-566.979 647.134,-627.526 696,-666.5 714.688,-681.405 737.117,-693.37 759.41,-702.826"/>
<polygon fill="black" stroke="black" points="758.363,-706.179 768.944,-706.726 761.013,-699.7 758.363,-706.179"/>
</g>
<!-- EAID_97448447_AE56_4f97_B898_03F8696C439A -->
<g id="node13" class="node"><title>EAID_97448447_AE56_4f97_B898_03F8696C439A</title>
<image xlink:href="img/boundary3.png" width="112px" height="67px" preserveAspectRatio="xMinYMin meet" x="809" y="-1047.5"/>
<text text-anchor="start" x="809" y="-957.3" font-family="Times New Roman,serif" font-size="24.00">Partner List</text>
</g>
<!-- EAID_D4074138_8981_4e9b_BDA0_E73BBB08FA24&#45;&gt;EAID_97448447_AE56_4f97_B898_03F8696C439A -->
<g id="edge14" class="edge"><title>EAID_D4074138_8981_4e9b_BDA0_E73BBB08FA24&#45;&gt;EAID_97448447_AE56_4f97_B898_03F8696C439A</title>
<path fill="none" stroke="black" d="M557.22,-522.129C562.395,-620.412 586.704,-819.155 696,-936.5 720.243,-962.528 756.283,-977.871 788.774,-986.883"/>
<polygon fill="black" stroke="black" points="788.166,-990.341 798.726,-989.481 789.935,-983.568 788.166,-990.341"/>
</g>
<!-- EAID_1862FC82_AF1E_4216_A1D8_E009FC9407AF -->
<g id="node14" class="node"><title>EAID_1862FC82_AF1E_4216_A1D8_E009FC9407AF</title>
<image xlink:href="img/control1.png" width="106px" height="75px" preserveAspectRatio="xMinYMin meet" x="812" y="-650.5"/>
<text text-anchor="start" x="725" y="-552.3" font-family="Times New Roman,serif" font-size="24.00">Retrieve selected transactions</text>
</g>
<!-- EAID_D4074138_8981_4e9b_BDA0_E73BBB08FA24&#45;&gt;EAID_1862FC82_AF1E_4216_A1D8_E009FC9407AF -->
<g id="edge15" class="edge"><title>EAID_D4074138_8981_4e9b_BDA0_E73BBB08FA24&#45;&gt;EAID_1862FC82_AF1E_4216_A1D8_E009FC9407AF</title>
<path fill="none" stroke="black" d="M660.346,-515.208C672.312,-520.832 684.382,-526.37 696,-531.5 699.258,-532.939 702.558,-534.382 705.889,-535.825"/>
<polygon fill="black" stroke="black" points="704.78,-539.158 715.349,-539.894 707.545,-532.728 704.78,-539.158"/>
</g>
<!-- EAID_8CEEB460_E967_45a7_8431_EEBBFAA0328F -->
<g id="node15" class="node"><title>EAID_8CEEB460_E967_45a7_8431_EEBBFAA0328F</title>
<image xlink:href="img/control1.png" width="106px" height="75px" preserveAspectRatio="xMinYMin meet" x="812" y="-515.5"/>
<text text-anchor="start" x="766" y="-417.3" font-family="Times New Roman,serif" font-size="24.00">Retrieve transactions</text>
</g>
<!-- EAID_D4074138_8981_4e9b_BDA0_E73BBB08FA24&#45;&gt;EAID_8CEEB460_E967_45a7_8431_EEBBFAA0328F -->
<g id="edge16" class="edge"><title>EAID_D4074138_8981_4e9b_BDA0_E73BBB08FA24&#45;&gt;EAID_8CEEB460_E967_45a7_8431_EEBBFAA0328F</title>
<path fill="none" stroke="black" d="M660.275,-463.5C687.708,-463.5 717.5,-463.5 745.616,-463.5"/>
<polygon fill="black" stroke="black" points="745.891,-467 755.891,-463.5 745.891,-460 745.891,-467"/>
</g>
<!-- EAID_66F85FA0_EB90_4596_BFB2_10BFC2480C1A -->
<g id="node8" class="node"><title>EAID_66F85FA0_EB90_4596_BFB2_10BFC2480C1A</title>
<image xlink:href="img/activity_icon.png" width="30px" height="20px" preserveAspectRatio="xMinYMin meet" x="1188" y="-83.5"/>
<text text-anchor="start" x="1138" y="-41.3" font-family="Times New Roman,serif" font-weight="bold" font-size="24.00">Partner Info</text>
</g>
<!-- EAID_D46FE9DE_716D_42f0_8EC2_438AF5A1909F&#45;&gt;EAID_66F85FA0_EB90_4596_BFB2_10BFC2480C1A -->
<g id="edge5" class="edge"><title>EAID_D46FE9DE_716D_42f0_8EC2_438AF5A1909F&#45;&gt;EAID_66F85FA0_EB90_4596_BFB2_10BFC2480C1A</title>
<path fill="none" stroke="black" d="M1034.49,-58.5C1063.27,-58.5 1092.04,-58.5 1117.4,-58.5"/>
<polygon fill="black" stroke="black" points="1117.68,-62.0001 1127.68,-58.5 1117.68,-55.0001 1117.68,-62.0001"/>
</g>
<!-- EAID_228FEF43_ECC4_4c6f_8DEE_21EF7CECA99D -->
<g id="node9" class="node"><title>EAID_228FEF43_ECC4_4c6f_8DEE_21EF7CECA99D</title>
<image xlink:href="img/boundary3.png" width="115px" height="67px" preserveAspectRatio="xMinYMin meet" x="1146" y="-241.5"/>
<text text-anchor="start" x="1103" y="-151.3" font-family="Times New Roman,serif" font-size="24.00">System message page</text>
</g>
<!-- EAID_D46FE9DE_716D_42f0_8EC2_438AF5A1909F&#45;&gt;EAID_228FEF43_ECC4_4c6f_8DEE_21EF7CECA99D -->
<g id="edge6" class="edge"><title>EAID_D46FE9DE_716D_42f0_8EC2_438AF5A1909F&#45;&gt;EAID_228FEF43_ECC4_4c6f_8DEE_21EF7CECA99D</title>
<path fill="none" stroke="black" d="M1013.07,-117.102C1020.15,-119.938 1027.15,-122.749 1034,-125.5 1049.74,-131.825 1066.31,-138.502 1082.65,-145.103"/>
<polygon fill="black" stroke="black" points="1081.65,-148.475 1092.23,-148.977 1084.27,-141.985 1081.65,-148.475"/>
</g>
<!-- EAID_17C857C7_3101_4a67_A4BD_5D31E1775C02&#45;&gt;EAID_228FEF43_ECC4_4c6f_8DEE_21EF7CECA99D -->
<g id="edge9" class="edge"><title>EAID_17C857C7_3101_4a67_A4BD_5D31E1775C02&#45;&gt;EAID_228FEF43_ECC4_4c6f_8DEE_21EF7CECA99D</title>
<path fill="none" stroke="black" d="M1011.91,-269.876C1035.65,-260.339 1059.98,-250.56 1082.98,-241.321"/>
<polygon fill="black" stroke="black" points="1084.43,-244.511 1092.4,-237.535 1081.82,-238.016 1084.43,-244.511"/>
</g>
<!-- EAID_945AD8D3_A53C_4855_BEAB_738A51AE81DD&#45;&gt;EAID_228FEF43_ECC4_4c6f_8DEE_21EF7CECA99D -->
<g id="edge11" class="edge"><title>EAID_945AD8D3_A53C_4855_BEAB_738A51AE81DD&#45;&gt;EAID_228FEF43_ECC4_4c6f_8DEE_21EF7CECA99D</title>
<path fill="none" stroke="black" d="M1021.71,-193.5C1042.02,-193.5 1062.58,-193.5 1082.19,-193.5"/>
<polygon fill="black" stroke="black" points="1082.35,-197 1092.35,-193.5 1082.35,-190 1082.35,-197"/>
</g>
<!-- EAID_9AE1A71E_439E_43fc_8296_9C2FB171D2A5&#45;&gt;EAID_B638B5A2_D222_4c89_9656_7FD8FEF885B6 -->
<g id="edge18" class="edge"><title>EAID_9AE1A71E_439E_43fc_8296_9C2FB171D2A5&#45;&gt;EAID_B638B5A2_D222_4c89_9656_7FD8FEF885B6</title>
<path fill="none" stroke="black" d="M961.385,-714.196C1004.95,-705.38 1056.57,-694.932 1100.81,-685.978"/>
<polygon fill="black" stroke="black" points="1101.61,-689.388 1110.72,-683.974 1100.22,-682.527 1101.61,-689.388"/>
</g>
<!-- EAID_1862FC82_AF1E_4216_A1D8_E009FC9407AF&#45;&gt;EAID_B638B5A2_D222_4c89_9656_7FD8FEF885B6 -->
<g id="edge19" class="edge"><title>EAID_1862FC82_AF1E_4216_A1D8_E009FC9407AF&#45;&gt;EAID_B638B5A2_D222_4c89_9656_7FD8FEF885B6</title>
<path fill="none" stroke="black" d="M1015.33,-628.277C1044.37,-634.067 1074.15,-640.007 1101.17,-645.393"/>
<polygon fill="black" stroke="black" points="1100.5,-648.828 1110.99,-647.352 1101.86,-641.964 1100.5,-648.828"/>
</g>
<!-- EAID_8CEEB460_E967_45a7_8431_EEBBFAA0328F&#45;&gt;EAID_B638B5A2_D222_4c89_9656_7FD8FEF885B6 -->
<g id="edge20" class="edge"><title>EAID_8CEEB460_E967_45a7_8431_EEBBFAA0328F&#45;&gt;EAID_B638B5A2_D222_4c89_9656_7FD8FEF885B6</title>
<path fill="none" stroke="black" d="M974.405,-501.996C994.713,-510.699 1015.39,-520.623 1034,-531.5 1080.97,-558.951 1128.93,-598.603 1161.52,-627.651"/>
<polygon fill="black" stroke="black" points="1159.28,-630.34 1169.06,-634.421 1163.96,-625.134 1159.28,-630.34"/>
</g>
</g>
</svg>
