<?xml version="1.0" encoding="UTF-8" standalone="no"?>
<!DOCTYPE svg PUBLIC "-//W3C//DTD SVG 1.1//EN"
 "http://www.w3.org/Graphics/SVG/1.1/DTD/svg11.dtd">
<!-- Generated by graphviz version 2.38.0 (20140413.2041)
 -->
<!-- Title: g Pages: 1 -->
<svg width="3087pt" height="652pt"
 viewBox="0.00 0.00 3087.00 651.65" xmlns="http://www.w3.org/2000/svg" xmlns:xlink="http://www.w3.org/1999/xlink">
<g id="graph0" class="graph" transform="scale(1 1) rotate(0) translate(4 647.654)">
<title>g</title>
<polygon fill="white" stroke="none" points="-4,4 -4,-647.654 3083,-647.654 3083,4 -4,4"/>
<!-- EAID_026FF8CE_8269_4a8a_9731_B50D2050C78B -->
<g id="node1" class="node"><title>EAID_026FF8CE_8269_4a8a_9731_B50D2050C78B</title>
<image xlink:href="img/actor1.png" width="82px" height="90px" preserveAspectRatio="xMinYMin meet" x="35" y="-335.324"/>
<text text-anchor="start" x="10" y="-222.124" font-family="Times New Roman,serif" font-size="24.00">Administrator</text>
</g>
<!-- EAID_4A69F56D_D019_4740_ACC2_A6ABB1570B52 -->
<g id="node2" class="node"><title>EAID_4A69F56D_D019_4740_ACC2_A6ABB1570B52</title>
<image xlink:href="img/boundary3.png" width="115px" height="67px" preserveAspectRatio="xMinYMin meet" x="257.5" y="-543.324"/>
<text text-anchor="start" x="198.5" y="-453.124" font-family="Times New Roman,serif" font-size="24.00">User management button</text>
</g>
<!-- EAID_026FF8CE_8269_4a8a_9731_B50D2050C78B&#45;&gt;EAID_4A69F56D_D019_4740_ACC2_A6ABB1570B52 -->
<g id="edge1" class="edge"><title>EAID_026FF8CE_8269_4a8a_9731_B50D2050C78B&#45;&gt;EAID_4A69F56D_D019_4740_ACC2_A6ABB1570B52</title>
<path fill="none" stroke="black" d="M117.388,-341.412C136.49,-369.204 161.024,-400.536 188,-424.324 192.049,-427.894 196.305,-431.367 200.707,-434.732"/>
<polygon fill="black" stroke="black" points="198.645,-437.56 208.772,-440.674 202.797,-431.925 198.645,-437.56"/>
</g>
<!-- EAID_B2F5D338_142D_4165_8321_8AC8AF286B09 -->
<g id="node3" class="node"><title>EAID_B2F5D338_142D_4165_8321_8AC8AF286B09</title>
<image xlink:href="img/boundary3.png" width="115px" height="67px" preserveAspectRatio="xMinYMin meet" x="1723.5" y="-344.324"/>
<text text-anchor="start" x="1656" y="-254.124" font-family="Times New Roman,serif" font-size="24.00">activation success message</text>
</g>
<!-- EAID_026FF8CE_8269_4a8a_9731_B50D2050C78B&#45;&gt;EAID_B2F5D338_142D_4165_8321_8AC8AF286B09 -->
<g id="edge2" class="edge"><title>EAID_026FF8CE_8269_4a8a_9731_B50D2050C78B&#45;&gt;EAID_B2F5D338_142D_4165_8321_8AC8AF286B09</title>
<path fill="none" stroke="black" d="M152.403,-267.78C250.784,-258.604 428.332,-244.324 580.5,-244.324 580.5,-244.324 580.5,-244.324 1156.5,-244.324 1358.23,-244.324 1409.64,-239.815 1610,-263.324 1618.37,-264.306 1626.95,-265.469 1635.58,-266.761"/>
<polygon fill="black" stroke="black" points="1635.32,-270.262 1645.74,-268.334 1636.39,-263.344 1635.32,-270.262"/>
</g>
<!-- EAID_36A8E9A3_8567_485b_988A_70A51F4B0C4D -->
<g id="node4" class="node"><title>EAID_36A8E9A3_8567_485b_988A_70A51F4B0C4D</title>
<image xlink:href="img/boundary3.png" width="115px" height="67px" preserveAspectRatio="xMinYMin meet" x="2582.5" y="-171.324"/>
<text text-anchor="start" x="2495.5" y="-81.124" font-family="Times New Roman,serif" font-size="24.00">invalid input information error</text>
</g>
<!-- EAID_026FF8CE_8269_4a8a_9731_B50D2050C78B&#45;&gt;EAID_36A8E9A3_8567_485b_988A_70A51F4B0C4D -->
<g id="edge3" class="edge"><title>EAID_026FF8CE_8269_4a8a_9731_B50D2050C78B&#45;&gt;EAID_36A8E9A3_8567_485b_988A_70A51F4B0C4D</title>
<path fill="none" stroke="black" d="M99.1196,-208.976C116.653,-166.622 145.381,-114.077 188,-83.324 332.442,20.9031 402.38,-2.324 580.5,-2.324 580.5,-2.324 580.5,-2.324 2028.5,-2.324 2181.97,-2.324 2353.09,-39.632 2474.93,-72.8155"/>
<polygon fill="black" stroke="black" points="2474.15,-76.2307 2484.72,-75.5016 2476.01,-69.4802 2474.15,-76.2307"/>
</g>
<!-- EAID_BAC4A4F3_20B9_4d66_841B_62901B89B548 -->
<g id="node5" class="node"><title>EAID_BAC4A4F3_20B9_4d66_841B_62901B89B548</title>
<image xlink:href="img/boundary3.png" width="115px" height="67px" preserveAspectRatio="xMinYMin meet" x="1402.5" y="-510.324"/>
<text text-anchor="start" x="1320" y="-420.124" font-family="Times New Roman,serif" font-size="24.00">user is already activated error</text>
</g>
<!-- EAID_026FF8CE_8269_4a8a_9731_B50D2050C78B&#45;&gt;EAID_BAC4A4F3_20B9_4d66_841B_62901B89B548 -->
<g id="edge4" class="edge"><title>EAID_026FF8CE_8269_4a8a_9731_B50D2050C78B&#45;&gt;EAID_BAC4A4F3_20B9_4d66_841B_62901B89B548</title>
<path fill="none" stroke="black" d="M152.254,-297.531C164.16,-300.7 176.376,-303.751 188,-306.324 582.273,-393.595 1056.92,-435.559 1299.39,-452.574"/>
<polygon fill="black" stroke="black" points="1299.47,-456.088 1309.69,-453.292 1299.96,-449.105 1299.47,-456.088"/>
</g>
<!-- EAID_65EE8D18_55DD_4b5d_98F0_307044E4211D -->
<g id="node6" class="node"><title>EAID_65EE8D18_55DD_4b5d_98F0_307044E4211D</title>
<image xlink:href="img/boundary3.png" width="115px" height="67px" preserveAspectRatio="xMinYMin meet" x="804.5" y="-632.324"/>
<text text-anchor="start" x="732.5" y="-542.124" font-family="Times New Roman,serif" font-size="24.00">unauthorized error message</text>
</g>
<!-- EAID_026FF8CE_8269_4a8a_9731_B50D2050C78B&#45;&gt;EAID_65EE8D18_55DD_4b5d_98F0_307044E4211D -->
<g id="edge5" class="edge"><title>EAID_026FF8CE_8269_4a8a_9731_B50D2050C78B&#45;&gt;EAID_65EE8D18_55DD_4b5d_98F0_307044E4211D</title>
<path fill="none" stroke="black" d="M82.5402,-341.366C92.0483,-408.5 117.871,-509.504 188,-559.324 340.346,-667.553 564.849,-650.297 711.869,-622.114"/>
<polygon fill="black" stroke="black" points="712.737,-625.51 721.879,-620.155 711.393,-618.641 712.737,-625.51"/>
</g>
<!-- EAID_7CB03095_643B_4e8e_9170_F50FAD746105 -->
<g id="node7" class="node"><title>EAID_7CB03095_643B_4e8e_9170_F50FAD746105</title>
<image xlink:href="img/boundary3.png" width="115px" height="67px" preserveAspectRatio="xMinYMin meet" x="1403" y="-209.324"/>
<text text-anchor="start" x="1358" y="-119.124" font-family="Times New Roman,serif" font-size="24.00">user information page</text>
</g>
<!-- EAID_026FF8CE_8269_4a8a_9731_B50D2050C78B&#45;&gt;EAID_7CB03095_643B_4e8e_9170_F50FAD746105 -->
<g id="edge6" class="edge"><title>EAID_026FF8CE_8269_4a8a_9731_B50D2050C78B&#45;&gt;EAID_7CB03095_643B_4e8e_9170_F50FAD746105</title>
<path fill="none" stroke="black" d="M152.219,-241.693C164.022,-237.334 176.216,-233.344 188,-230.324 358.139,-186.715 404.862,-184.324 580.5,-184.324 580.5,-184.324 580.5,-184.324 862.5,-184.324 1027.06,-184.324 1216.97,-175.475 1337.47,-168.755"/>
<polygon fill="black" stroke="black" points="1337.67,-172.249 1347.46,-168.194 1337.28,-165.26 1337.67,-172.249"/>
</g>
<!-- EAID_47F5863B_8A64_4b8b_AFF7_27CB7AA60127 -->
<g id="node8" class="node"><title>EAID_47F5863B_8A64_4b8b_AFF7_27CB7AA60127</title>
<image xlink:href="img/boundary3.png" width="115px" height="67px" preserveAspectRatio="xMinYMin meet" x="804" y="-379.324"/>
<text text-anchor="start" x="755.5" y="-289.124" font-family="Times New Roman,serif" font-size="24.00">user management page</text>
</g>
<!-- EAID_026FF8CE_8269_4a8a_9731_B50D2050C78B&#45;&gt;EAID_47F5863B_8A64_4b8b_AFF7_27CB7AA60127 -->
<g id="edge7" class="edge"><title>EAID_026FF8CE_8269_4a8a_9731_B50D2050C78B&#45;&gt;EAID_47F5863B_8A64_4b8b_AFF7_27CB7AA60127</title>
<path fill="none" stroke="black" d="M152.125,-280.694C286.808,-290.32 570.621,-310.605 735.194,-322.368"/>
<polygon fill="black" stroke="black" points="735.148,-325.873 745.372,-323.095 735.647,-318.891 735.148,-325.873"/>
</g>
<!-- EAID_99126C74_6A9D_4ed9_A489_AD158BD89CC7 -->
<g id="node9" class="node"><title>EAID_99126C74_6A9D_4ed9_A489_AD158BD89CC7</title>
<image xlink:href="img/boundary3.png" width="115px" height="67px" preserveAspectRatio="xMinYMin meet" x="1970.5" y="-194.324"/>
<text text-anchor="start" x="1962.5" y="-104.124" font-family="Times New Roman,serif" font-size="24.00">user edit page</text>
</g>
<!-- EAID_026FF8CE_8269_4a8a_9731_B50D2050C78B&#45;&gt;EAID_99126C74_6A9D_4ed9_A489_AD158BD89CC7 -->
<g id="edge8" class="edge"><title>EAID_026FF8CE_8269_4a8a_9731_B50D2050C78B&#45;&gt;EAID_99126C74_6A9D_4ed9_A489_AD158BD89CC7</title>
<path fill="none" stroke="black" d="M147.867,-209.167C160.592,-199.513 174.212,-190.445 188,-183.324 348.444,-100.46 399.921,-78.324 580.5,-78.324 580.5,-78.324 580.5,-78.324 1461,-78.324 1663.4,-78.324 1718.91,-51.2686 1916,-97.324 1924.7,-99.3579 1933.57,-102.072 1942.3,-105.182"/>
<polygon fill="black" stroke="black" points="1941.12,-108.477 1951.72,-108.7 1943.57,-101.92 1941.12,-108.477"/>
</g>
<!-- EAID_365ABC0C_FCA7_468b_9218_C283B4716F47 -->
<g id="node13" class="node"><title>EAID_365ABC0C_FCA7_468b_9218_C283B4716F47</title>
<image xlink:href="img/control1.png" width="106px" height="75px" preserveAspectRatio="xMinYMin meet" x="529" y="-549.324"/>
<text text-anchor="start" x="487.5" y="-451.124" font-family="Times New Roman,serif" font-size="24.00">validate role of user</text>
</g>
<!-- EAID_4A69F56D_D019_4740_ACC2_A6ABB1570B52&#45;&gt;EAID_365ABC0C_FCA7_468b_9218_C283B4716F47 -->
<g id="edge11" class="edge"><title>EAID_4A69F56D_D019_4740_ACC2_A6ABB1570B52&#45;&gt;EAID_365ABC0C_FCA7_468b_9218_C283B4716F47</title>
<path fill="none" stroke="black" d="M441.016,-496.271C449.669,-496.337 458.363,-496.402 466.948,-496.467"/>
<polygon fill="black" stroke="black" points="466.942,-499.967 476.968,-496.543 466.995,-492.967 466.942,-499.967"/>
</g>
<!-- EAID_D1FC55E2_E7E0_4177_BB97_7769D5368F41 -->
<g id="node15" class="node"><title>EAID_D1FC55E2_E7E0_4177_BB97_7769D5368F41</title>
<image xlink:href="img/control1.png" width="106px" height="75px" preserveAspectRatio="xMinYMin meet" x="1728.5" y="-217.324"/>
<text text-anchor="start" x="1679" y="-119.124" font-family="Times New Roman,serif" font-size="24.00">display user edit page</text>
</g>
<!-- EAID_7CB03095_643B_4e8e_9170_F50FAD746105&#45;&gt;EAID_D1FC55E2_E7E0_4177_BB97_7769D5368F41 -->
<g id="edge18" class="edge"><title>EAID_7CB03095_643B_4e8e_9170_F50FAD746105&#45;&gt;EAID_D1FC55E2_E7E0_4177_BB97_7769D5368F41</title>
<path fill="none" stroke="black" d="M1572.57,-162.723C1600.25,-163.07 1630.06,-163.444 1658.21,-163.797"/>
<polygon fill="black" stroke="black" points="1658.45,-167.3 1668.49,-163.926 1658.54,-160.301 1658.45,-167.3"/>
</g>
<!-- EAID_737D7C19_DED4_400c_9455_29100E8928B8 -->
<g id="node14" class="node"><title>EAID_737D7C19_DED4_400c_9455_29100E8928B8</title>
<image xlink:href="img/control1.png" width="106px" height="75px" preserveAspectRatio="xMinYMin meet" x="1103" y="-383.324"/>
<text text-anchor="start" x="1047.5" y="-285.124" font-family="Times New Roman,serif" font-size="24.00">check the status of user</text>
</g>
<!-- EAID_47F5863B_8A64_4b8b_AFF7_27CB7AA60127&#45;&gt;EAID_737D7C19_DED4_400c_9455_29100E8928B8 -->
<g id="edge16" class="edge"><title>EAID_47F5863B_8A64_4b8b_AFF7_27CB7AA60127&#45;&gt;EAID_737D7C19_DED4_400c_9455_29100E8928B8</title>
<path fill="none" stroke="black" d="M977.906,-331.324C993.88,-331.324 1010.36,-331.324 1026.55,-331.324"/>
<polygon fill="black" stroke="black" points="1026.58,-334.824 1036.58,-331.324 1026.58,-327.824 1026.58,-334.824"/>
</g>
<!-- EAID_6A21CFE6_084D_4394_9488_FB790A7C6B0C -->
<g id="node17" class="node"><title>EAID_6A21CFE6_084D_4394_9488_FB790A7C6B0C</title>
<image xlink:href="img/control1.png" width="106px" height="75px" preserveAspectRatio="xMinYMin meet" x="2241" y="-198.324"/>
<text text-anchor="start" x="2149" y="-100.124" font-family="Times New Roman,serif" font-size="24.00">validate input user information</text>
</g>
<!-- EAID_99126C74_6A9D_4ed9_A489_AD158BD89CC7&#45;&gt;EAID_6A21CFE6_084D_4394_9488_FB790A7C6B0C -->
<g id="edge25" class="edge"><title>EAID_99126C74_6A9D_4ed9_A489_AD158BD89CC7&#45;&gt;EAID_6A21CFE6_084D_4394_9488_FB790A7C6B0C</title>
<path fill="none" stroke="black" d="M2103.23,-146.324C2111.36,-146.324 2119.84,-146.324 2128.53,-146.324"/>
<polygon fill="black" stroke="black" points="2128.8,-149.824 2138.8,-146.324 2128.8,-142.824 2128.8,-149.824"/>
</g>
<!-- EAID_903E97FA_A102_42f7_AE5D_3A4E98634B1C -->
<g id="node10" class="node"><title>EAID_903E97FA_A102_42f7_AE5D_3A4E98634B1C</title>
<image xlink:href="img/control1.png" width="106px" height="75px" preserveAspectRatio="xMinYMin meet" x="1407" y="-383.324"/>
<text text-anchor="start" x="1380" y="-285.124" font-family="Times New Roman,serif" font-size="24.00">activtate the user</text>
</g>
<!-- EAID_903E97FA_A102_42f7_AE5D_3A4E98634B1C&#45;&gt;EAID_B2F5D338_142D_4165_8321_8AC8AF286B09 -->
<g id="edge12" class="edge"><title>EAID_903E97FA_A102_42f7_AE5D_3A4E98634B1C&#45;&gt;EAID_B2F5D338_142D_4165_8321_8AC8AF286B09</title>
<path fill="none" stroke="black" d="M1550.28,-321.528C1576.83,-318.615 1606.62,-315.347 1635.72,-312.154"/>
<polygon fill="black" stroke="black" points="1636.42,-315.598 1645.98,-311.028 1635.66,-308.64 1636.42,-315.598"/>
</g>
<!-- EAID_29BBEA33_CD65_4b58_8285_26A02846A663 -->
<g id="node11" class="node"><title>EAID_29BBEA33_CD65_4b58_8285_26A02846A663</title>
<image xlink:href="img/activity_icon.png" width="30px" height="20px" preserveAspectRatio="xMinYMin meet" x="2939.5" y="-341.324"/>
<text text-anchor="start" x="2930.5" y="-299.124" font-family="Times New Roman,serif" font-weight="bold" font-size="24.00">User</text>
</g>
<!-- EAID_903E97FA_A102_42f7_AE5D_3A4E98634B1C&#45;&gt;EAID_29BBEA33_CD65_4b58_8285_26A02846A663 -->
<g id="edge9" class="edge"><title>EAID_903E97FA_A102_42f7_AE5D_3A4E98634B1C&#45;&gt;EAID_29BBEA33_CD65_4b58_8285_26A02846A663</title>
<path fill="none" stroke="black" d="M1550.17,-346.621C1580.5,-351.343 1614.65,-356.136 1646,-359.324 1814.48,-376.46 1857.16,-379.324 2026.5,-379.324 2026.5,-379.324 2026.5,-379.324 2295,-379.324 2528.12,-379.324 2805.57,-339.713 2910.48,-323.309"/>
<polygon fill="black" stroke="black" points="2911.04,-326.763 2920.37,-321.75 2909.95,-319.849 2911.04,-326.763"/>
</g>
<!-- EAID_70D78273_8299_44d3_B2AB_D35D57753453 -->
<g id="node12" class="node"><title>EAID_70D78273_8299_44d3_B2AB_D35D57753453</title>
<image xlink:href="img/control1.png" width="106px" height="75px" preserveAspectRatio="xMinYMin meet" x="2586.5" y="-306.324"/>
<text text-anchor="start" x="2511.5" y="-208.124" font-family="Times New Roman,serif" font-size="24.00">save input user information</text>
</g>
<!-- EAID_70D78273_8299_44d3_B2AB_D35D57753453&#45;&gt;EAID_29BBEA33_CD65_4b58_8285_26A02846A663 -->
<g id="edge10" class="edge"><title>EAID_70D78273_8299_44d3_B2AB_D35D57753453&#45;&gt;EAID_29BBEA33_CD65_4b58_8285_26A02846A663</title>
<path fill="none" stroke="black" d="M2777.79,-281.518C2825.57,-290.983 2875.78,-300.929 2910.23,-307.753"/>
<polygon fill="black" stroke="black" points="2909.91,-311.257 2920.4,-309.767 2911.27,-304.391 2909.91,-311.257"/>
</g>
<!-- EAID_4D1D28DA_0DC9_4801_BCDE_F3825E21B235 -->
<g id="node16" class="node"><title>EAID_4D1D28DA_0DC9_4801_BCDE_F3825E21B235</title>
<image xlink:href="img/control1.png" width="106px" height="75px" preserveAspectRatio="xMinYMin meet" x="2902" y="-207.324"/>
<text text-anchor="start" x="2840.5" y="-109.124" font-family="Times New Roman,serif" font-size="24.00">display user information</text>
</g>
<!-- EAID_70D78273_8299_44d3_B2AB_D35D57753453&#45;&gt;EAID_4D1D28DA_0DC9_4801_BCDE_F3825E21B235 -->
<g id="edge20" class="edge"><title>EAID_70D78273_8299_44d3_B2AB_D35D57753453&#45;&gt;EAID_4D1D28DA_0DC9_4801_BCDE_F3825E21B235</title>
<path fill="none" stroke="black" d="M2777.79,-210.901C2791.8,-206.469 2806.02,-201.971 2819.99,-197.551"/>
<polygon fill="black" stroke="black" points="2821.14,-200.859 2829.62,-194.506 2819.03,-194.185 2821.14,-200.859"/>
</g>
<!-- EAID_365ABC0C_FCA7_468b_9218_C283B4716F47&#45;&gt;EAID_65EE8D18_55DD_4b5d_98F0_307044E4211D -->
<g id="edge24" class="edge"><title>EAID_365ABC0C_FCA7_468b_9218_C283B4716F47&#45;&gt;EAID_65EE8D18_55DD_4b5d_98F0_307044E4211D</title>
<path fill="none" stroke="black" d="M686.017,-529.72C694.633,-532.416 703.444,-535.173 712.305,-537.946"/>
<polygon fill="black" stroke="black" points="711.344,-541.313 721.933,-540.959 713.434,-534.632 711.344,-541.313"/>
</g>
<!-- EAID_365ABC0C_FCA7_468b_9218_C283B4716F47&#45;&gt;EAID_47F5863B_8A64_4b8b_AFF7_27CB7AA60127 -->
<g id="edge26" class="edge"><title>EAID_365ABC0C_FCA7_468b_9218_C283B4716F47&#45;&gt;EAID_47F5863B_8A64_4b8b_AFF7_27CB7AA60127</title>
<path fill="none" stroke="black" d="M680.512,-438.799C706.355,-423.368 734.273,-406.697 760.232,-391.196"/>
<polygon fill="black" stroke="black" points="762.163,-394.119 768.955,-385.988 758.575,-388.109 762.163,-394.119"/>
</g>
<!-- EAID_B5C3FCB9_9335_41ae_A0C6_90A1775B5AF4 -->
<g id="node18" class="node"><title>EAID_B5C3FCB9_9335_41ae_A0C6_90A1775B5AF4</title>
<image xlink:href="img/activity_icon.png" width="30px" height="20px" preserveAspectRatio="xMinYMin meet" x="846.5" y="-505.324"/>
<text text-anchor="start" x="841.5" y="-463.124" font-family="Times New Roman,serif" font-weight="bold" font-size="24.00">role</text>
</g>
<!-- EAID_365ABC0C_FCA7_468b_9218_C283B4716F47&#45;&gt;EAID_B5C3FCB9_9335_41ae_A0C6_90A1775B5AF4 -->
<g id="edge22" class="edge"><title>EAID_365ABC0C_FCA7_468b_9218_C283B4716F47&#45;&gt;EAID_B5C3FCB9_9335_41ae_A0C6_90A1775B5AF4</title>
<path fill="none" stroke="black" d="M686.017,-490.994C733.024,-488.119 785.833,-484.89 820.916,-482.745"/>
<polygon fill="black" stroke="black" points="821.441,-486.219 831.209,-482.115 821.014,-479.232 821.441,-486.219"/>
</g>
<!-- EAID_737D7C19_DED4_400c_9455_29100E8928B8&#45;&gt;EAID_BAC4A4F3_20B9_4d66_841B_62901B89B548 -->
<g id="edge15" class="edge"><title>EAID_737D7C19_DED4_400c_9455_29100E8928B8&#45;&gt;EAID_BAC4A4F3_20B9_4d66_841B_62901B89B548</title>
<path fill="none" stroke="black" d="M1274.22,-382.789C1286.3,-388.046 1298.39,-393.298 1310,-398.324 1314.11,-400.103 1318.28,-401.907 1322.49,-403.727"/>
<polygon fill="black" stroke="black" points="1321.2,-406.982 1331.77,-407.734 1323.98,-400.556 1321.2,-406.982"/>
</g>
<!-- EAID_737D7C19_DED4_400c_9455_29100E8928B8&#45;&gt;EAID_7CB03095_643B_4e8e_9170_F50FAD746105 -->
<g id="edge14" class="edge"><title>EAID_737D7C19_DED4_400c_9455_29100E8928B8&#45;&gt;EAID_7CB03095_643B_4e8e_9170_F50FAD746105</title>
<path fill="none" stroke="black" d="M1260.6,-272.82C1290.47,-256.036 1323.06,-237.721 1353.04,-220.875"/>
<polygon fill="black" stroke="black" points="1354.83,-223.882 1361.83,-215.932 1351.4,-217.78 1354.83,-223.882"/>
</g>
<!-- EAID_737D7C19_DED4_400c_9455_29100E8928B8&#45;&gt;EAID_903E97FA_A102_42f7_AE5D_3A4E98634B1C -->
<g id="edge13" class="edge"><title>EAID_737D7C19_DED4_400c_9455_29100E8928B8&#45;&gt;EAID_903E97FA_A102_42f7_AE5D_3A4E98634B1C</title>
<path fill="none" stroke="black" d="M1274.32,-331.324C1302.42,-331.324 1332.13,-331.324 1359.32,-331.324"/>
<polygon fill="black" stroke="black" points="1359.61,-334.824 1369.61,-331.324 1359.61,-327.824 1359.61,-334.824"/>
</g>
<!-- EAID_D1FC55E2_E7E0_4177_BB97_7769D5368F41&#45;&gt;EAID_99126C74_6A9D_4ed9_A489_AD158BD89CC7 -->
<g id="edge17" class="edge"><title>EAID_D1FC55E2_E7E0_4177_BB97_7769D5368F41&#45;&gt;EAID_99126C74_6A9D_4ed9_A489_AD158BD89CC7</title>
<path fill="none" stroke="black" d="M1893.52,-156.658C1909.74,-155.398 1926.21,-154.117 1941.79,-152.907"/>
<polygon fill="black" stroke="black" points="1942.18,-156.387 1951.88,-152.123 1941.64,-149.408 1942.18,-156.387"/>
</g>
<!-- EAID_4D1D28DA_0DC9_4801_BCDE_F3825E21B235&#45;&gt;EAID_7CB03095_643B_4e8e_9170_F50FAD746105 -->
<g id="edge19" class="edge"><title>EAID_4D1D28DA_0DC9_4801_BCDE_F3825E21B235&#45;&gt;EAID_7CB03095_643B_4e8e_9170_F50FAD746105</title>
<path fill="none" stroke="black" d="M2874.03,-96.8151C2849.55,-81.8146 2821.72,-67.5936 2794,-59.324 2581.32,4.12483 2516.94,-40.324 2295,-40.324 2026.5,-40.324 2026.5,-40.324 2026.5,-40.324 1855.5,-40.324 1812.06,-56.5315 1646,-97.324 1625.11,-102.456 1603.23,-108.964 1582.14,-115.853"/>
<polygon fill="black" stroke="black" points="1580.91,-112.575 1572.51,-119.041 1583.11,-119.22 1580.91,-112.575"/>
</g>
<!-- EAID_6A21CFE6_084D_4394_9488_FB790A7C6B0C&#45;&gt;EAID_36A8E9A3_8567_485b_988A_70A51F4B0C4D -->
<g id="edge21" class="edge"><title>EAID_6A21CFE6_084D_4394_9488_FB790A7C6B0C&#45;&gt;EAID_36A8E9A3_8567_485b_988A_70A51F4B0C4D</title>
<path fill="none" stroke="black" d="M2449.17,-136.001C2457.69,-135.431 2466.27,-134.856 2474.83,-134.283"/>
<polygon fill="black" stroke="black" points="2475.11,-137.772 2484.86,-133.612 2474.65,-130.788 2475.11,-137.772"/>
</g>
<!-- EAID_6A21CFE6_084D_4394_9488_FB790A7C6B0C&#45;&gt;EAID_70D78273_8299_44d3_B2AB_D35D57753453 -->
<g id="edge23" class="edge"><title>EAID_6A21CFE6_084D_4394_9488_FB790A7C6B0C&#45;&gt;EAID_70D78273_8299_44d3_B2AB_D35D57753453</title>
<path fill="none" stroke="black" d="M2449.17,-194.796C2463.3,-199.238 2477.58,-203.73 2491.65,-208.152"/>
<polygon fill="black" stroke="black" points="2490.75,-211.539 2501.34,-211.2 2492.85,-204.861 2490.75,-211.539"/>
</g>
</g>
</svg>
