<?xml version="1.0" encoding="UTF-8" standalone="no"?>
<!DOCTYPE svg PUBLIC "-//W3C//DTD SVG 1.1//EN"
 "http://www.w3.org/Graphics/SVG/1.1/DTD/svg11.dtd">
<!-- Generated by graphviz version 2.38.0 (20140413.2041)
 -->
<!-- Title: g Pages: 1 -->
<svg width="2151pt" height="250pt"
 viewBox="0.00 0.00 2151.00 250.00" xmlns="http://www.w3.org/2000/svg" xmlns:xlink="http://www.w3.org/1999/xlink">
<g id="graph0" class="graph" transform="scale(1 1) rotate(0) translate(4 246)">
<title>g</title>
<polygon fill="white" stroke="none" points="-4,4 -4,-246 2147,-246 2147,4 -4,4"/>
<!-- EAID_A7A8B86E_88E5_405b_B63E_65DA9FFC0DB9 -->
<g id="node1" class="node"><title>EAID_A7A8B86E_88E5_405b_B63E_65DA9FFC0DB9</title>
<image xlink:href="img/actor1.png" width="61px" height="90px" preserveAspectRatio="xMinYMin meet" x="10.5" y="-156.5"/>
<text text-anchor="start" x="19" y="-43.3" font-family="Times New Roman,serif" font-size="24.00">User</text>
</g>
<!-- EAID_89AB1235_B82B_4c71_88AC_B676C0D2F792 -->
<g id="node2" class="node"><title>EAID_89AB1235_B82B_4c71_88AC_B676C0D2F792</title>
<image xlink:href="img/boundary3.png" width="115px" height="67px" preserveAspectRatio="xMinYMin meet" x="166.5" y="-229.5"/>
<text text-anchor="start" x="127" y="-139.3" font-family="Times New Roman,serif" font-size="24.00">Add provider button</text>
</g>
<!-- EAID_A7A8B86E_88E5_405b_B63E_65DA9FFC0DB9&#45;&gt;EAID_89AB1235_B82B_4c71_88AC_B676C0D2F792 -->
<g id="edge1" class="edge"><title>EAID_A7A8B86E_88E5_405b_B63E_65DA9FFC0DB9&#45;&gt;EAID_89AB1235_B82B_4c71_88AC_B676C0D2F792</title>
<path fill="none" stroke="black" d="M81.3309,-115.154C89.392,-118.929 98.2456,-123.075 107.469,-127.395"/>
<polygon fill="black" stroke="black" points="106.26,-130.693 116.8,-131.765 109.229,-124.354 106.26,-130.693"/>
</g>
<!-- EAID_B3244434_86B9_485d_8372_26E68A059C85 -->
<g id="node3" class="node"><title>EAID_B3244434_86B9_485d_8372_26E68A059C85</title>
<image xlink:href="img/boundary3.png" width="115px" height="67px" preserveAspectRatio="xMinYMin meet" x="777.5" y="-201.5"/>
<text text-anchor="start" x="684" y="-111.3" font-family="Times New Roman,serif" font-size="24.00">provider information input page</text>
</g>
<!-- EAID_A7A8B86E_88E5_405b_B63E_65DA9FFC0DB9&#45;&gt;EAID_B3244434_86B9_485d_8372_26E68A059C85 -->
<g id="edge2" class="edge"><title>EAID_A7A8B86E_88E5_405b_B63E_65DA9FFC0DB9&#45;&gt;EAID_B3244434_86B9_485d_8372_26E68A059C85</title>
<path fill="none" stroke="black" d="M81.0919,-95.5855C176.995,-93.8431 429.236,-92.0896 638,-115.5 646.509,-116.454 655.201,-117.578 663.961,-118.83"/>
<polygon fill="black" stroke="black" points="663.471,-122.295 673.875,-120.296 664.495,-115.371 663.471,-122.295"/>
</g>
<!-- EAID_D66B65D3_583F_41fa_9536_E9649EAF03A2 -->
<g id="node4" class="node"><title>EAID_D66B65D3_583F_41fa_9536_E9649EAF03A2</title>
<image xlink:href="img/boundary3.png" width="115px" height="67px" preserveAspectRatio="xMinYMin meet" x="1403.5" y="-106.5"/>
<text text-anchor="start" x="1304" y="-16.3" font-family="Times New Roman,serif" font-size="24.00">Provider created success message</text>
</g>
<!-- EAID_A7A8B86E_88E5_405b_B63E_65DA9FFC0DB9&#45;&gt;EAID_D66B65D3_583F_41fa_9536_E9649EAF03A2 -->
<g id="edge3" class="edge"><title>EAID_A7A8B86E_88E5_405b_B63E_65DA9FFC0DB9&#45;&gt;EAID_D66B65D3_583F_41fa_9536_E9649EAF03A2</title>
<path fill="none" stroke="black" d="M81.0962,-91.0151C160.608,-80.4917 345.441,-58.5 501.5,-58.5 501.5,-58.5 501.5,-58.5 836,-58.5 987.096,-58.5 1158.77,-58.5 1283.75,-58.5"/>
<polygon fill="black" stroke="black" points="1283.8,-62.0001 1293.8,-58.5 1283.8,-55.0001 1283.8,-62.0001"/>
</g>
<!-- EAID_5DD17ABB_03D2_4009_A884_FF5C484340EA -->
<g id="node5" class="node"><title>EAID_5DD17ABB_03D2_4009_A884_FF5C484340EA</title>
<image xlink:href="img/control1.png" width="106px" height="75px" preserveAspectRatio="xMinYMin meet" x="450" y="-235.5"/>
<text text-anchor="start" x="377.5" y="-137.3" font-family="Times New Roman,serif" font-size="24.00">Display provider add page</text>
</g>
<!-- EAID_89AB1235_B82B_4c71_88AC_B676C0D2F792&#45;&gt;EAID_5DD17ABB_03D2_4009_A884_FF5C484340EA -->
<g id="edge4" class="edge"><title>EAID_89AB1235_B82B_4c71_88AC_B676C0D2F792&#45;&gt;EAID_5DD17ABB_03D2_4009_A884_FF5C484340EA</title>
<path fill="none" stroke="black" d="M331.111,-182.268C339.54,-182.328 348.137,-182.391 356.768,-182.453"/>
<polygon fill="black" stroke="black" points="356.882,-185.954 366.908,-182.526 356.933,-178.954 356.882,-185.954"/>
</g>
<!-- EAID_C455BF6C_7485_44eb_86A8_9D925E835508 -->
<g id="node6" class="node"><title>EAID_C455BF6C_7485_44eb_86A8_9D925E835508</title>
<image xlink:href="img/control1.png" width="106px" height="75px" preserveAspectRatio="xMinYMin meet" x="1092" y="-205.5"/>
<text text-anchor="start" x="1042" y="-107.3" font-family="Times New Roman,serif" font-size="24.00">create a new provider</text>
</g>
<!-- EAID_B3244434_86B9_485d_8372_26E68A059C85&#45;&gt;EAID_C455BF6C_7485_44eb_86A8_9D925E835508 -->
<g id="edge10" class="edge"><title>EAID_B3244434_86B9_485d_8372_26E68A059C85&#45;&gt;EAID_C455BF6C_7485_44eb_86A8_9D925E835508</title>
<path fill="none" stroke="black" d="M996.315,-153.5C1004.84,-153.5 1013.33,-153.5 1021.7,-153.5"/>
<polygon fill="black" stroke="black" points="1021.83,-157 1031.83,-153.5 1021.83,-150 1021.83,-157"/>
</g>
<!-- EAID_E6A3E4DC_E394_4ba9_83B1_5B1B43E868FF -->
<g id="node8" class="node"><title>EAID_E6A3E4DC_E394_4ba9_83B1_5B1B43E868FF</title>
<image xlink:href="img/control1.png" width="106px" height="75px" preserveAspectRatio="xMinYMin meet" x="1788" y="-110.5"/>
<text text-anchor="start" x="1674.5" y="-12.3" font-family="Times New Roman,serif" font-size="24.00">Update provider rating information</text>
</g>
<!-- EAID_D66B65D3_583F_41fa_9536_E9649EAF03A2&#45;&gt;EAID_E6A3E4DC_E394_4ba9_83B1_5B1B43E868FF -->
<g id="edge7" class="edge"><title>EAID_D66B65D3_583F_41fa_9536_E9649EAF03A2&#45;&gt;EAID_E6A3E4DC_E394_4ba9_83B1_5B1B43E868FF</title>
<path fill="none" stroke="black" d="M1628.13,-58.5C1636.66,-58.5 1645.25,-58.5 1653.83,-58.5"/>
<polygon fill="black" stroke="black" points="1653.9,-62.0001 1663.9,-58.5 1653.9,-55.0001 1653.9,-62.0001"/>
</g>
<!-- EAID_5DD17ABB_03D2_4009_A884_FF5C484340EA&#45;&gt;EAID_B3244434_86B9_485d_8372_26E68A059C85 -->
<g id="edge5" class="edge"><title>EAID_5DD17ABB_03D2_4009_A884_FF5C484340EA&#45;&gt;EAID_B3244434_86B9_485d_8372_26E68A059C85</title>
<path fill="none" stroke="black" d="M638.404,-171.255C646.807,-170.492 655.318,-169.719 663.847,-168.945"/>
<polygon fill="black" stroke="black" points="664.219,-172.426 673.861,-168.036 663.586,-165.454 664.219,-172.426"/>
</g>
<!-- EAID_C455BF6C_7485_44eb_86A8_9D925E835508&#45;&gt;EAID_D66B65D3_583F_41fa_9536_E9649EAF03A2 -->
<g id="edge8" class="edge"><title>EAID_C455BF6C_7485_44eb_86A8_9D925E835508&#45;&gt;EAID_D66B65D3_583F_41fa_9536_E9649EAF03A2</title>
<path fill="none" stroke="black" d="M1258.03,-119.605C1266.63,-117.003 1275.43,-114.341 1284.31,-111.655"/>
<polygon fill="black" stroke="black" points="1285.41,-114.978 1293.97,-108.732 1283.38,-108.278 1285.41,-114.978"/>
</g>
<!-- EAID_81AEBAC5_EE60_4b05_83D4_8C8A48184148 -->
<g id="node7" class="node"><title>EAID_81AEBAC5_EE60_4b05_83D4_8C8A48184148</title>
<image xlink:href="img/activity_icon.png" width="30px" height="20px" preserveAspectRatio="xMinYMin meet" x="1446.5" y="-187.5"/>
<text text-anchor="start" x="1416" y="-145.3" font-family="Times New Roman,serif" font-weight="bold" font-size="24.00">Provider</text>
</g>
<!-- EAID_C455BF6C_7485_44eb_86A8_9D925E835508&#45;&gt;EAID_81AEBAC5_EE60_4b05_83D4_8C8A48184148 -->
<g id="edge6" class="edge"><title>EAID_C455BF6C_7485_44eb_86A8_9D925E835508&#45;&gt;EAID_81AEBAC5_EE60_4b05_83D4_8C8A48184148</title>
<path fill="none" stroke="black" d="M1258.03,-156.711C1304.05,-158.03 1355.69,-159.51 1395.23,-160.644"/>
<polygon fill="black" stroke="black" points="1395.18,-164.143 1405.27,-160.931 1395.38,-157.146 1395.18,-164.143"/>
</g>
<!-- EAID_680C39BA_4D15_4be4_AE1F_480F5E36F1C5 -->
<g id="node9" class="node"><title>EAID_680C39BA_4D15_4be4_AE1F_480F5E36F1C5</title>
<image xlink:href="img/activity_icon.png" width="30px" height="20px" preserveAspectRatio="xMinYMin meet" x="2083" y="-83.5"/>
<text text-anchor="start" x="2063" y="-41.3" font-family="Times New Roman,serif" font-weight="bold" font-size="24.00">Rating</text>
</g>
<!-- EAID_E6A3E4DC_E394_4ba9_83B1_5B1B43E868FF&#45;&gt;EAID_680C39BA_4D15_4be4_AE1F_480F5E36F1C5 -->
<g id="edge9" class="edge"><title>EAID_E6A3E4DC_E394_4ba9_83B1_5B1B43E868FF&#45;&gt;EAID_680C39BA_4D15_4be4_AE1F_480F5E36F1C5</title>
<path fill="none" stroke="black" d="M2017.21,-58.5C2026.14,-58.5 2034.7,-58.5 2042.68,-58.5"/>
<polygon fill="black" stroke="black" points="2042.83,-62.0001 2052.83,-58.5 2042.83,-55.0001 2042.83,-62.0001"/>
</g>
</g>
</svg>
