<?xml version="1.0" encoding="UTF-8" standalone="no"?>
<!DOCTYPE svg PUBLIC "-//W3C//DTD SVG 1.1//EN"
 "http://www.w3.org/Graphics/SVG/1.1/DTD/svg11.dtd">
<!-- Generated by graphviz version 2.40.1 (20161225.0304)
 -->
<!-- Title: class_diagram Pages: 1 -->
<svg width="3281pt" height="73pt"
 viewBox="0.00 0.00 3281.36 73.00" xmlns="http://www.w3.org/2000/svg" xmlns:xlink="http://www.w3.org/1999/xlink">
<g id="graph0" class="graph" transform="scale(1 1) rotate(0) translate(4 69)">
<title>class_diagram</title>
<polygon fill="#ffffff" stroke="transparent" points="-4,4 -4,-69 3277.3594,-69 3277.3594,4 -4,4"/>
<!-- c9ff16f5e_797c_4d11_a486_518bb237d645 -->
<g id="c9ff16f5e_797c_4d11_a486_518bb237d645" class="node">
<title>c9ff16f5e_797c_4d11_a486_518bb237d645</title>
<polygon fill="none" stroke="#000000" points="0,-12.5 0,-52.5 116.7188,-52.5 116.7188,-12.5 0,-12.5"/>
<text text-anchor="middle" x="58.3594" y="-42.1" font-family="Times,serif" font-size="8.00" fill="#000000">AndroidProcesses</text>
<polyline fill="none" stroke="#000000" points="0,-36.5 116.7188,-36.5 "/>
<text text-anchor="start" x="8" y="-26.1" font-family="Times,serif" font-size="8.00" fill="#000000">+ log()</text>
<text text-anchor="start" x="8" y="-18.1" font-family="Times,serif" font-size="8.00" fill="#000000">+ getRunningAppProcessInfo()</text>
</g>
<!-- c80b762c4_6c46_4593_88d9_ee94fd857230 -->
<g id="c80b762c4_6c46_4593_88d9_ee94fd857230" class="node">
<title>c80b762c4_6c46_4593_88d9_ee94fd857230</title>
<polygon fill="none" stroke="#000000" points="134.6973,-14.5 134.6973,-50.5 208.0215,-50.5 208.0215,-14.5 134.6973,-14.5"/>
<text text-anchor="middle" x="171.3594" y="-30.1" font-family="Times,serif" font-size="8.00" fill="#000000">ActivityProcesses</text>
</g>
<!-- cbc2b993f_feed_4835_ae0b_80aea71c156d -->
<g id="cbc2b993f_feed_4835_ae0b_80aea71c156d" class="node">
<title>cbc2b993f_feed_4835_ae0b_80aea71c156d</title>
<polygon fill="none" stroke="#000000" points="225.8105,-14.5 225.8105,-50.5 292.9082,-50.5 292.9082,-14.5 225.8105,-14.5"/>
<text text-anchor="middle" x="259.3594" y="-30.1" font-family="Times,serif" font-size="8.00" fill="#000000">ContentHandler</text>
</g>
<!-- cc919bc78_4def_4da5_9d81_a0f8d1f5568d -->
<g id="cc919bc78_4def_4da5_9d81_a0f8d1f5568d" class="node">
<title>cc919bc78_4def_4da5_9d81_a0f8d1f5568d</title>
<polygon fill="none" stroke="#000000" points="310.918,-14.5 310.918,-50.5 391.8008,-50.5 391.8008,-14.5 310.918,-14.5"/>
<text text-anchor="middle" x="351.3594" y="-39.6" font-family="Times,serif" font-size="8.00" fill="#000000">AndroidAppProcess</text>
<polyline fill="none" stroke="#000000" points="310.918,-33.5 391.8008,-33.5 "/>
<text text-anchor="start" x="318.918" y="-22.6" font-family="Times,serif" font-size="8.00" fill="#000000">&#45; uid:int</text>
<polyline fill="none" stroke="#000000" points="310.918,-16.5 391.8008,-16.5 "/>
</g>
<!-- c1a340f21_60ab_4efd_b36a_57043abebebd -->
<g id="c1a340f21_60ab_4efd_b36a_57043abebebd" class="node">
<title>c1a340f21_60ab_4efd_b36a_57043abebebd</title>
<polygon fill="none" stroke="#000000" points="410.2559,-14.5 410.2559,-50.5 468.4629,-50.5 468.4629,-14.5 410.2559,-14.5"/>
<text text-anchor="middle" x="439.3594" y="-30.1" font-family="Times,serif" font-size="8.00" fill="#000000">DTDHandler</text>
</g>
<!-- c5b55f780_9abb_4e07_a380_ddfcf08648f5 -->
<g id="c5b55f780_9abb_4e07_a380_ddfcf08648f5" class="node">
<title>c5b55f780_9abb_4e07_a380_ddfcf08648f5</title>
<polygon fill="none" stroke="#000000" points="486.3359,-14.5 486.3359,-50.5 642.3828,-50.5 642.3828,-14.5 486.3359,-14.5"/>
<text text-anchor="middle" x="564.3594" y="-39.6" font-family="Times,serif" font-size="8.00" fill="#000000">ControlGroup$1</text>
<polyline fill="none" stroke="#000000" points="486.3359,-33.5 642.3828,-33.5 "/>
<text text-anchor="start" x="494.3359" y="-22.6" font-family="Times,serif" font-size="8.00" fill="#000000">&#45; CREATOR:android.os.Parcelable$Creator</text>
<polyline fill="none" stroke="#000000" points="486.3359,-16.5 642.3828,-16.5 "/>
</g>
<!-- cdf109004_8080_4460_af46_1a5c0c8254df -->
<g id="cdf109004_8080_4460_af46_1a5c0c8254df" class="node">
<title>cdf109004_8080_4460_af46_1a5c0c8254df</title>
<polygon fill="none" stroke="#000000" points="660.332,-12.5 660.332,-52.5 718.3867,-52.5 718.3867,-12.5 660.332,-12.5"/>
<text text-anchor="middle" x="689.3594" y="-42.1" font-family="Times,serif" font-size="8.00" fill="#000000">Cgroup$1</text>
<polyline fill="none" stroke="#000000" points="660.332,-36.5 718.3867,-36.5 "/>
<text text-anchor="start" x="668.332" y="-26.1" font-family="Times,serif" font-size="8.00" fill="#000000">+ getGroup()</text>
<text text-anchor="start" x="668.332" y="-18.1" font-family="Times,serif" font-size="8.00" fill="#000000">+ get()</text>
</g>
<!-- cb2a28fcf_52c8_4448_87d1_340ae50ff850 -->
<g id="cb2a28fcf_52c8_4448_87d1_340ae50ff850" class="node">
<title>cb2a28fcf_52c8_4448_87d1_340ae50ff850</title>
<polygon fill="none" stroke="#000000" points="736.3594,-14.5 736.3594,-50.5 790.3594,-50.5 790.3594,-14.5 736.3594,-14.5"/>
<text text-anchor="middle" x="763.082" y="-35.1" font-family="Times,serif" font-size="8.00" fill="#000000">Stat</text>
<polyline fill="none" stroke="#000000" points="736.3594,-24.5 789.8047,-24.5 "/>
</g>
<!-- c12f31aff_27e8_4ce2_a684_d9f5ba2733aa -->
<g id="c12f31aff_27e8_4ce2_a684_d9f5ba2733aa" class="node">
<title>c12f31aff_27e8_4ce2_a684_d9f5ba2733aa</title>
<polygon fill="none" stroke="#000000" points="808.3594,-14.5 808.3594,-50.5 862.3594,-50.5 862.3594,-14.5 808.3594,-14.5"/>
<text text-anchor="middle" x="835.1387" y="-35.1" font-family="Times,serif" font-size="8.00" fill="#000000">Status$1</text>
<polyline fill="none" stroke="#000000" points="808.3594,-24.5 861.918,-24.5 "/>
</g>
<!-- c4f93bb85_3050_4147_815f_a0c8e30b0187 -->
<g id="c4f93bb85_3050_4147_815f_a0c8e30b0187" class="node">
<title>c4f93bb85_3050_4147_815f_a0c8e30b0187</title>
<polygon fill="none" stroke="#000000" points="880.3594,-14.5 880.3594,-50.5 934.3594,-50.5 934.3594,-14.5 880.3594,-14.5"/>
<text text-anchor="middle" x="906.9141" y="-35.1" font-family="Times,serif" font-size="8.00" fill="#000000">ProcFile</text>
<polyline fill="none" stroke="#000000" points="880.3594,-24.5 933.4688,-24.5 "/>
</g>
<!-- c870c248b_d958_4373_bf8e_87f33c273982 -->
<g id="c870c248b_d958_4373_bf8e_87f33c273982" class="node">
<title>c870c248b_d958_4373_bf8e_87f33c273982</title>
<polygon fill="none" stroke="#000000" points="951.9258,-.5 951.9258,-64.5 1042.793,-64.5 1042.793,-.5 951.9258,-.5"/>
<text text-anchor="middle" x="997.3594" y="-54.1" font-family="Times,serif" font-size="8.00" fill="#000000">AndroidProcess</text>
<polyline fill="none" stroke="#000000" points="951.9258,-48.5 1042.793,-48.5 "/>
<text text-anchor="start" x="959.9258" y="-38.1" font-family="Times,serif" font-size="8.00" fill="#000000">&#45; name:java.lang.String</text>
<polyline fill="none" stroke="#000000" points="951.9258,-32.5 1042.793,-32.5 "/>
<text text-anchor="start" x="959.9258" y="-22.1" font-family="Times,serif" font-size="8.00" fill="#000000">+ status()</text>
<text text-anchor="start" x="959.9258" y="-14.1" font-family="Times,serif" font-size="8.00" fill="#000000">+ cgroup()</text>
<text text-anchor="start" x="959.9258" y="-6.1" font-family="Times,serif" font-size="8.00" fill="#000000">+ stat()</text>
</g>
<!-- c7062a97b_7c87_498f_9922_3781b2c863e4 -->
<g id="c7062a97b_7c87_498f_9922_3781b2c863e4" class="node">
<title>c7062a97b_7c87_498f_9922_3781b2c863e4</title>
<polygon fill="none" stroke="#000000" points="1061.2598,-14.5 1061.2598,-50.5 1175.459,-50.5 1175.459,-14.5 1061.2598,-14.5"/>
<text text-anchor="middle" x="1118.3594" y="-30.1" font-family="Times,serif" font-size="8.00" fill="#000000">SAXNotRecognizedException</text>
</g>
<!-- ca0565942_0165_4dc0_91f1_fdcdeb08a45b -->
<g id="ca0565942_0165_4dc0_91f1_fdcdeb08a45b" class="node">
<title>ca0565942_0165_4dc0_91f1_fdcdeb08a45b</title>
<polygon fill="none" stroke="#000000" points="1193.0371,-14.5 1193.0371,-50.5 1251.6816,-50.5 1251.6816,-14.5 1193.0371,-14.5"/>
<text text-anchor="middle" x="1222.3594" y="-30.1" font-family="Times,serif" font-size="8.00" fill="#000000">ErrorHandler</text>
</g>
<!-- c6c5d761d_6f60_4ed5_aef4_b21230a8e124 -->
<g id="c6c5d761d_6f60_4ed5_aef4_b21230a8e124" class="node">
<title>c6c5d761d_6f60_4ed5_aef4_b21230a8e124</title>
<polygon fill="none" stroke="#000000" points="1269.3594,-14.5 1269.3594,-50.5 1323.3594,-50.5 1323.3594,-14.5 1269.3594,-14.5"/>
<text text-anchor="middle" x="1296.2969" y="-30.1" font-family="Times,serif" font-size="8.00" fill="#000000">Locator</text>
</g>
<!-- c45ca2851_388d_4dad_8624_6cd8399a571b -->
<g id="c45ca2851_388d_4dad_8624_6cd8399a571b" class="node">
<title>c45ca2851_388d_4dad_8624_6cd8399a571b</title>
<polygon fill="none" stroke="#000000" points="1341.0391,-14.5 1341.0391,-50.5 1411.6797,-50.5 1411.6797,-14.5 1341.0391,-14.5"/>
<text text-anchor="middle" x="1376.3594" y="-30.1" font-family="Times,serif" font-size="8.00" fill="#000000">ServiceReader$4</text>
</g>
<!-- c65640b09_01a7_43cb_a344_2288c7d52f74 -->
<g id="c65640b09_01a7_43cb_a344_2288c7d52f74" class="node">
<title>c65640b09_01a7_43cb_a344_2288c7d52f74</title>
<polygon fill="none" stroke="#000000" points="1429.9238,-14.5 1429.9238,-50.5 1498.7949,-50.5 1498.7949,-14.5 1429.9238,-14.5"/>
<text text-anchor="middle" x="1464.3594" y="-30.1" font-family="Times,serif" font-size="8.00" fill="#000000">ProcessManager</text>
</g>
<!-- cd670b9b4_3ee0_4254_ae85_5349ecefb9c4 -->
<g id="cd670b9b4_3ee0_4254_ae85_5349ecefb9c4" class="node">
<title>cd670b9b4_3ee0_4254_ae85_5349ecefb9c4</title>
<polygon fill="none" stroke="#000000" points="1516.3594,-14.5 1516.3594,-50.5 1570.3594,-50.5 1570.3594,-14.5 1516.3594,-14.5"/>
<text text-anchor="middle" x="1543.0273" y="-30.1" font-family="Times,serif" font-size="8.00" fill="#000000">C</text>
</g>
<!-- c4ec85a20_8e8c_415e_973b_171cf6ccf111 -->
<g id="c4ec85a20_8e8c_415e_973b_171cf6ccf111" class="node">
<title>c4ec85a20_8e8c_415e_973b_171cf6ccf111</title>
<polygon fill="none" stroke="#000000" points="1588.3594,-14.5 1588.3594,-50.5 1642.3594,-50.5 1642.3594,-14.5 1588.3594,-14.5"/>
<text text-anchor="middle" x="1615.1934" y="-30.1" font-family="Times,serif" font-size="8.00" fill="#000000">Statm</text>
</g>
<!-- c0803b672_b88a_403f_8338_e90af8fdd89d -->
<g id="c0803b672_b88a_403f_8338_e90af8fdd89d" class="node">
<title>c0803b672_b88a_403f_8338_e90af8fdd89d</title>
<polygon fill="none" stroke="#000000" points="1660.6973,-14.5 1660.6973,-50.5 1770.0215,-50.5 1770.0215,-14.5 1660.6973,-14.5"/>
<text text-anchor="middle" x="1715.3594" y="-30.1" font-family="Times,serif" font-size="8.00" fill="#000000">SAXNotSupportedException</text>
</g>
<!-- c7339003d_c0bd_4e43_b6c2_870607218833 -->
<g id="c7339003d_c0bd_4e43_b6c2_870607218833" class="node">
<title>c7339003d_c0bd_4e43_b6c2_870607218833</title>
<polygon fill="none" stroke="#000000" points="1788.1445,-14.5 1788.1445,-50.5 1844.5742,-50.5 1844.5742,-14.5 1788.1445,-14.5"/>
<text text-anchor="middle" x="1816.3594" y="-30.1" font-family="Times,serif" font-size="8.00" fill="#000000">XMLReader</text>
</g>
<!-- c53a556ea_2888_48f7_bb8c_b053275cafa3 -->
<g id="c53a556ea_2888_48f7_bb8c_b053275cafa3" class="node">
<title>c53a556ea_2888_48f7_bb8c_b053275cafa3</title>
<polygon fill="none" stroke="#000000" points="1863.0508,-14.5 1863.0508,-50.5 1921.668,-50.5 1921.668,-14.5 1863.0508,-14.5"/>
<text text-anchor="middle" x="1892.3594" y="-30.1" font-family="Times,serif" font-size="8.00" fill="#000000">ViewGraphic</text>
</g>
<!-- cdf96deb1_e831_42c2_95fe_7bd88aece434 -->
<g id="cdf96deb1_e831_42c2_95fe_7bd88aece434" class="node">
<title>cdf96deb1_e831_42c2_95fe_7bd88aece434</title>
<polygon fill="none" stroke="#000000" points="1939.8047,-14.5 1939.8047,-50.5 2002.9141,-50.5 2002.9141,-14.5 1939.8047,-14.5"/>
<text text-anchor="middle" x="1971.3594" y="-30.1" font-family="Times,serif" font-size="8.00" fill="#000000">XmlPullParser</text>
</g>
<!-- c2ae5418c_48bb_4210_a431_c617b9f97989 -->
<g id="c2ae5418c_48bb_4210_a431_c617b9f97989" class="node">
<title>c2ae5418c_48bb_4210_a431_c617b9f97989</title>
<polygon fill="none" stroke="#000000" points="2020.4766,-14.5 2020.4766,-50.5 2102.2422,-50.5 2102.2422,-14.5 2020.4766,-14.5"/>
<text text-anchor="middle" x="2061.3594" y="-30.1" font-family="Times,serif" font-size="8.00" fill="#000000">SAXParseException</text>
</g>
<!-- c468648df_f090_4e92_80ee_621789f20774 -->
<g id="c468648df_f090_4e92_80ee_621789f20774" class="node">
<title>c468648df_f090_4e92_80ee_621789f20774</title>
<polygon fill="none" stroke="#000000" points="2120.5762,-14.5 2120.5762,-50.5 2176.1426,-50.5 2176.1426,-14.5 2120.5762,-14.5"/>
<text text-anchor="middle" x="2148.3594" y="-30.1" font-family="Times,serif" font-size="8.00" fill="#000000">BuildConfig</text>
</g>
<!-- cf62c48b0_45c2_4be6_b31c_444bd70edbfc -->
<g id="cf62c48b0_45c2_4be6_b31c_444bd70edbfc" class="node">
<title>cf62c48b0_45c2_4be6_b31c_444bd70edbfc</title>
<polygon fill="none" stroke="#000000" points="2193.8066,-14.5 2193.8066,-50.5 2264.9121,-50.5 2264.9121,-14.5 2193.8066,-14.5"/>
<text text-anchor="middle" x="2229.3594" y="-30.1" font-family="Times,serif" font-size="8.00" fill="#000000">ActivityMain$19</text>
</g>
<!-- c64d91e15_82fb_491a_8772_89828bc32d87 -->
<g id="c64d91e15_82fb_491a_8772_89828bc32d87" class="node">
<title>c64d91e15_82fb_491a_8772_89828bc32d87</title>
<polygon fill="none" stroke="#000000" points="2283.3633,-14.5 2283.3633,-50.5 2347.3555,-50.5 2347.3555,-14.5 2283.3633,-14.5"/>
<text text-anchor="middle" x="2315.3594" y="-30.1" font-family="Times,serif" font-size="8.00" fill="#000000">EntityResolver</text>
</g>
<!-- cecac7da3_0620_44d9_a5ef_d70f9525bd73 -->
<g id="cecac7da3_0620_44d9_a5ef_d70f9525bd73" class="node">
<title>cecac7da3_0620_44d9_a5ef_d70f9525bd73</title>
<polygon fill="none" stroke="#000000" points="2365.3594,-14.5 2365.3594,-50.5 2419.3594,-50.5 2419.3594,-14.5 2365.3594,-14.5"/>
<text text-anchor="middle" x="2392.0273" y="-30.1" font-family="Times,serif" font-size="8.00" fill="#000000">R</text>
</g>
<!-- ccef8055f_d046_4d28_893a_a2a8868b5d30 -->
<g id="ccef8055f_d046_4d28_893a_a2a8868b5d30" class="node">
<title>ccef8055f_d046_4d28_893a_a2a8868b5d30</title>
<polygon fill="none" stroke="#000000" points="2437.1406,-14.5 2437.1406,-50.5 2501.5781,-50.5 2501.5781,-14.5 2437.1406,-14.5"/>
<text text-anchor="middle" x="2469.3594" y="-30.1" font-family="Times,serif" font-size="8.00" fill="#000000">SAXException</text>
</g>
<!-- c480941e3_6e99_4132_8672_380778cfbabd -->
<g id="c480941e3_6e99_4132_8672_380778cfbabd" class="node">
<title>c480941e3_6e99_4132_8672_380778cfbabd</title>
<polygon fill="none" stroke="#000000" points="2519.8086,-14.5 2519.8086,-50.5 2574.9102,-50.5 2574.9102,-14.5 2519.8086,-14.5"/>
<text text-anchor="middle" x="2547.3594" y="-30.1" font-family="Times,serif" font-size="8.00" fill="#000000">InputSource</text>
</g>
<!-- c9a9f2f93_875f_4d0a_9abb_9bde16c0bcf9 -->
<g id="c9a9f2f93_875f_4d0a_9abb_9bde16c0bcf9" class="node">
<title>c9a9f2f93_875f_4d0a_9abb_9bde16c0bcf9</title>
<polygon fill="none" stroke="#000000" points="2593.3594,-14.5 2593.3594,-50.5 2647.3594,-50.5 2647.3594,-14.5 2593.3594,-14.5"/>
<text text-anchor="middle" x="2620.0254" y="-30.1" font-family="Times,serif" font-size="8.00" fill="#000000">R$layout</text>
</g>
<!-- c12ff79e7_42e6_4e7c_830f_829082f0d7b3 -->
<g id="c12ff79e7_42e6_4e7c_830f_829082f0d7b3" class="node">
<title>c12ff79e7_42e6_4e7c_830f_829082f0d7b3</title>
<polygon fill="none" stroke="#000000" points="2665.5879,-14.5 2665.5879,-50.5 2761.1309,-50.5 2761.1309,-14.5 2665.5879,-14.5"/>
<text text-anchor="middle" x="2713.3594" y="-30.1" font-family="Times,serif" font-size="8.00" fill="#000000">XmlPullParserException</text>
</g>
<!-- cd1140bfa_e24a_4da0_a66d_d2fa05318356 -->
<g id="cd1140bfa_e24a_4da0_a66d_d2fa05318356" class="node">
<title>cd1140bfa_e24a_4da0_a66d_d2fa05318356</title>
<polygon fill="none" stroke="#000000" points="2778.7012,-14.5 2778.7012,-50.5 2876.0176,-50.5 2876.0176,-14.5 2778.7012,-14.5"/>
<text text-anchor="middle" x="2827.3594" y="-30.1" font-family="Times,serif" font-size="8.00" fill="#000000">LinearLayoutCustomised</text>
</g>
<!-- caece4e40_3c8e_4c58_a2c0_fccd067c2f28 -->
<g id="caece4e40_3c8e_4c58_a2c0_fccd067c2f28" class="node">
<title>caece4e40_3c8e_4c58_a2c0_fccd067c2f28</title>
<polygon fill="none" stroke="#000000" points="2894.4746,-14.5 2894.4746,-50.5 2960.2441,-50.5 2960.2441,-14.5 2894.4746,-14.5"/>
<text text-anchor="middle" x="2927.3594" y="-30.1" font-family="Times,serif" font-size="8.00" fill="#000000">ActivityHelp$1</text>
</g>
<!-- c0b2c26ee_fb20_449c_84ab_3669e17f03d2 -->
<g id="c0b2c26ee_fb20_449c_84ab_3669e17f03d2" class="node">
<title>c0b2c26ee_fb20_449c_84ab_3669e17f03d2</title>
<polygon fill="none" stroke="#000000" points="2978.25,-14.5 2978.25,-50.5 3048.4688,-50.5 3048.4688,-14.5 2978.25,-14.5"/>
<text text-anchor="middle" x="3013.3594" y="-30.1" font-family="Times,serif" font-size="8.00" fill="#000000">ActivityAbout$2</text>
</g>
<!-- cd07865b0_9e7f_49b2_b4d1_e877d4e5c59a -->
<g id="cd07865b0_9e7f_49b2_b4d1_e877d4e5c59a" class="node">
<title>cd07865b0_9e7f_49b2_b4d1_e877d4e5c59a</title>
<polygon fill="none" stroke="#000000" points="3066.9238,-14.5 3066.9238,-50.5 3127.7949,-50.5 3127.7949,-14.5 3066.9238,-14.5"/>
<text text-anchor="middle" x="3097.3594" y="-30.1" font-family="Times,serif" font-size="8.00" fill="#000000">XmlSerializer</text>
</g>
<!-- c9993b417_c8ef_463f_b663_d3c6be860390 -->
<g id="c9993b417_c8ef_463f_b663_d3c6be860390" class="node">
<title>c9993b417_c8ef_463f_b663_d3c6be860390</title>
<polygon fill="none" stroke="#000000" points="3145.5762,-14.5 3145.5762,-50.5 3201.1426,-50.5 3201.1426,-14.5 3145.5762,-14.5"/>
<text text-anchor="middle" x="3173.3594" y="-30.1" font-family="Times,serif" font-size="8.00" fill="#000000">BuildConfig</text>
</g>
<!-- c23923aa6_458b_4e63_9d95_5de3cfa6b4a6 -->
<g id="c23923aa6_458b_4e63_9d95_5de3cfa6b4a6" class="node">
<title>c23923aa6_458b_4e63_9d95_5de3cfa6b4a6</title>
<polygon fill="none" stroke="#000000" points="3219.3594,-14.5 3219.3594,-50.5 3273.3594,-50.5 3273.3594,-14.5 3219.3594,-14.5"/>
<text text-anchor="middle" x="3246.3574" y="-30.1" font-family="Times,serif" font-size="8.00" fill="#000000">Attributes</text>
</g>
</g>
</svg>
