<?xml version="1.0" encoding="UTF-8" standalone="no"?>
<!DOCTYPE svg PUBLIC "-//W3C//DTD SVG 1.1//EN"
 "http://www.w3.org/Graphics/SVG/1.1/DTD/svg11.dtd">
<!-- Generated by graphviz version 2.38.0 (20140413.2041)
 -->
<!-- Title: g Pages: 1 -->
<svg width="1331pt" height="328pt"
 viewBox="0.00 0.00 1331.00 327.50" xmlns="http://www.w3.org/2000/svg" xmlns:xlink="http://www.w3.org/1999/xlink">
<g id="graph0" class="graph" transform="scale(1 1) rotate(0) translate(4 323.5)">
<title>g</title>
<polygon fill="white" stroke="none" points="-4,4 -4,-323.5 1327,-323.5 1327,4 -4,4"/>
<!-- EAID_475B8690_1735_4a7c_A098_53C489BC2ABE -->
<g id="node1" class="node"><title>EAID_475B8690_1735_4a7c_A098_53C489BC2ABE</title>
<image xlink:href="img/actor1.png" width="61px" height="90px" preserveAspectRatio="xMinYMin meet" x="10.5" y="-126"/>
<text text-anchor="start" x="19" y="-12.8" font-family="Times New Roman,serif" font-size="24.00">User</text>
</g>
<!-- EAID_59807C17_0947_4f66_8A15_91AA03B42A7E -->
<g id="node2" class="node"><title>EAID_59807C17_0947_4f66_8A15_91AA03B42A7E</title>
<image xlink:href="img/boundary3.png" width="114px" height="67px" preserveAspectRatio="xMinYMin meet" x="127" y="-218"/>
<text text-anchor="start" x="127" y="-127.8" font-family="Times New Roman,serif" font-size="24.00">update page</text>
</g>
<!-- EAID_475B8690_1735_4a7c_A098_53C489BC2ABE&#45;&gt;EAID_59807C17_0947_4f66_8A15_91AA03B42A7E -->
<g id="edge1" class="edge"><title>EAID_475B8690_1735_4a7c_A098_53C489BC2ABE&#45;&gt;EAID_59807C17_0947_4f66_8A15_91AA03B42A7E</title>
<path fill="none" stroke="black" d="M81.2922,-95.2466C89.8905,-101.566 99.2487,-108.444 108.692,-115.385"/>
<polygon fill="black" stroke="black" points="106.864,-118.385 116.995,-121.487 111.01,-112.745 106.864,-118.385"/>
</g>
<!-- EAID_3D69C581_E843_48bc_A127_326452F69C9A -->
<g id="node3" class="node"><title>EAID_3D69C581_E843_48bc_A127_326452F69C9A</title>
<image xlink:href="img/boundary3.png" width="115px" height="67px" preserveAspectRatio="xMinYMin meet" x="987.5" y="-140"/>
<text text-anchor="start" x="938.5" y="-49.8" font-family="Times New Roman,serif" font-size="24.00">updae success message</text>
</g>
<!-- EAID_475B8690_1735_4a7c_A098_53C489BC2ABE&#45;&gt;EAID_3D69C581_E843_48bc_A127_326452F69C9A -->
<g id="edge2" class="edge"><title>EAID_475B8690_1735_4a7c_A098_53C489BC2ABE&#45;&gt;EAID_3D69C581_E843_48bc_A127_326452F69C9A</title>
<path fill="none" stroke="black" d="M81.0748,-65.3772C92.6535,-65.2217 105.333,-65.0773 117,-65 176.554,-64.6056 191.444,-64.9535 251,-65 535.889,-65.2222 608.158,-41.5976 892,-66 900.5,-66.7308 909.24,-67.6845 918.027,-68.794"/>
<polygon fill="black" stroke="black" points="917.584,-72.2659 927.957,-70.1094 918.503,-65.3265 917.584,-72.2659"/>
</g>
<!-- EAID_DE50848C_0D36_4bfd_A42B_ED5E6BCF26B1 -->
<g id="node4" class="node"><title>EAID_DE50848C_0D36_4bfd_A42B_ED5E6BCF26B1</title>
<image xlink:href="img/boundary3.png" width="106px" height="67px" preserveAspectRatio="xMinYMin meet" x="1207" y="-112"/>
<text text-anchor="start" x="1207" y="-21.8" font-family="Times New Roman,serif" font-size="24.00">initial page</text>
</g>
<!-- EAID_475B8690_1735_4a7c_A098_53C489BC2ABE&#45;&gt;EAID_DE50848C_0D36_4bfd_A42B_ED5E6BCF26B1 -->
<g id="edge3" class="edge"><title>EAID_475B8690_1735_4a7c_A098_53C489BC2ABE&#45;&gt;EAID_DE50848C_0D36_4bfd_A42B_ED5E6BCF26B1</title>
<path fill="none" stroke="black" d="M81.2023,-56.7151C153.851,-40.5635 313.252,-9 449.5,-9 449.5,-9 449.5,-9 772,-9 945.095,-9 991.37,6.46065 1161,-28 1169.58,-29.7435 1178.42,-32.1113 1187.1,-34.8055"/>
<polygon fill="black" stroke="black" points="1186.23,-38.2023 1196.82,-37.9703 1188.4,-31.5462 1186.23,-38.2023"/>
</g>
<!-- EAID_6D515601_A7AD_490f_AC13_C131F7937FC1 -->
<g id="node5" class="node"><title>EAID_6D515601_A7AD_490f_AC13_C131F7937FC1</title>
<image xlink:href="img/boundary3.png" width="115px" height="67px" preserveAspectRatio="xMinYMin meet" x="713.5" y="-178"/>
<text text-anchor="start" x="660" y="-87.8" font-family="Times New Roman,serif" font-size="24.00">incorrect input message</text>
</g>
<!-- EAID_475B8690_1735_4a7c_A098_53C489BC2ABE&#45;&gt;EAID_6D515601_A7AD_490f_AC13_C131F7937FC1 -->
<g id="edge4" class="edge"><title>EAID_475B8690_1735_4a7c_A098_53C489BC2ABE&#45;&gt;EAID_6D515601_A7AD_490f_AC13_C131F7937FC1</title>
<path fill="none" stroke="black" d="M81.1851,-67.2826C174.423,-70.5905 414.626,-80.8262 614,-104 622.331,-104.968 630.895,-106.076 639.518,-107.275"/>
<polygon fill="black" stroke="black" points="639.263,-110.774 649.657,-108.723 640.252,-103.845 639.263,-110.774"/>
</g>
<!-- EAID_3A6F316A_0747_45b9_B390_EFC22BBA946B -->
<g id="node6" class="node"><title>EAID_3A6F316A_0747_45b9_B390_EFC22BBA946B</title>
<image xlink:href="img/control1.png" width="106px" height="75px" preserveAspectRatio="xMinYMin meet" x="398" y="-224"/>
<text text-anchor="start" x="297.5" y="-125.8" font-family="Times New Roman,serif" font-size="24.00">check the correctness of the data</text>
</g>
<!-- EAID_59807C17_0947_4f66_8A15_91AA03B42A7E&#45;&gt;EAID_3A6F316A_0747_45b9_B390_EFC22BBA946B -->
<g id="edge7" class="edge"><title>EAID_59807C17_0947_4f66_8A15_91AA03B42A7E&#45;&gt;EAID_3A6F316A_0747_45b9_B390_EFC22BBA946B</title>
<path fill="none" stroke="black" d="M251.062,-170.5C259.234,-170.561 267.859,-170.627 276.755,-170.694"/>
<polygon fill="black" stroke="black" points="276.878,-174.195 286.904,-170.771 276.931,-167.195 276.878,-174.195"/>
</g>
<!-- EAID_3A6F316A_0747_45b9_B390_EFC22BBA946B&#45;&gt;EAID_6D515601_A7AD_490f_AC13_C131F7937FC1 -->
<g id="edge5" class="edge"><title>EAID_3A6F316A_0747_45b9_B390_EFC22BBA946B&#45;&gt;EAID_6D515601_A7AD_490f_AC13_C131F7937FC1</title>
<path fill="none" stroke="black" d="M614.016,-150.569C622.52,-149.448 631.012,-148.328 639.395,-147.223"/>
<polygon fill="black" stroke="black" points="640.102,-150.66 649.559,-145.882 639.187,-143.72 640.102,-150.66"/>
</g>
<!-- EAID_4964E24C_73C8_43b2_A700_8B0FAA48FFAE -->
<g id="node7" class="node"><title>EAID_4964E24C_73C8_43b2_A700_8B0FAA48FFAE</title>
<image xlink:href="img/control1.png" width="106px" height="75px" preserveAspectRatio="xMinYMin meet" x="718" y="-313"/>
<text text-anchor="start" x="661" y="-214.8" font-family="Times New Roman,serif" font-size="24.00">update user to database</text>
</g>
<!-- EAID_3A6F316A_0747_45b9_B390_EFC22BBA946B&#45;&gt;EAID_4964E24C_73C8_43b2_A700_8B0FAA48FFAE -->
<g id="edge6" class="edge"><title>EAID_3A6F316A_0747_45b9_B390_EFC22BBA946B&#45;&gt;EAID_4964E24C_73C8_43b2_A700_8B0FAA48FFAE</title>
<path fill="none" stroke="black" d="M614.016,-217.413C623.138,-219.962 632.247,-222.507 641.221,-225.015"/>
<polygon fill="black" stroke="black" points="640.328,-228.399 650.901,-227.72 642.212,-221.657 640.328,-228.399"/>
</g>
<!-- EAID_4964E24C_73C8_43b2_A700_8B0FAA48FFAE&#45;&gt;EAID_3D69C581_E843_48bc_A127_326452F69C9A -->
<g id="edge11" class="edge"><title>EAID_4964E24C_73C8_43b2_A700_8B0FAA48FFAE&#45;&gt;EAID_3D69C581_E843_48bc_A127_326452F69C9A</title>
<path fill="none" stroke="black" d="M879.397,-202.345C883.726,-199.292 887.945,-196.173 892,-193 910.322,-178.663 909.563,-169.188 928,-155 929.044,-154.197 930.099,-153.398 931.165,-152.603"/>
<polygon fill="black" stroke="black" points="933.441,-155.278 939.524,-146.603 929.36,-149.591 933.441,-155.278"/>
</g>
<!-- EAID_37274387_109D_46d9_8E16_50A556933F31 -->
<g id="node8" class="node"><title>EAID_37274387_109D_46d9_8E16_50A556933F31</title>
<image xlink:href="img/control1.png" width="106px" height="75px" preserveAspectRatio="xMinYMin meet" x="992" y="-275"/>
<text text-anchor="start" x="939.5" y="-176.8" font-family="Times New Roman,serif" font-size="24.00">redirect to initial page</text>
</g>
<!-- EAID_4964E24C_73C8_43b2_A700_8B0FAA48FFAE&#45;&gt;EAID_37274387_109D_46d9_8E16_50A556933F31 -->
<g id="edge10" class="edge"><title>EAID_4964E24C_73C8_43b2_A700_8B0FAA48FFAE&#45;&gt;EAID_37274387_109D_46d9_8E16_50A556933F31</title>
<path fill="none" stroke="black" d="M891.084,-244.333C900.291,-243.044 909.603,-241.741 918.845,-240.447"/>
<polygon fill="black" stroke="black" points="919.421,-243.901 928.839,-239.048 918.451,-236.968 919.421,-243.901"/>
</g>
<!-- EAID_DD9272E9_352E_4c79_BBD3_D2144B420FE6 -->
<g id="node9" class="node"><title>EAID_DD9272E9_352E_4c79_BBD3_D2144B420FE6</title>
<image xlink:href="img/activity_icon.png" width="30px" height="20px" preserveAspectRatio="xMinYMin meet" x="1245.5" y="-291"/>
<text text-anchor="start" x="1215" y="-248.8" font-family="Times New Roman,serif" font-weight="bold" font-size="24.00">user info</text>
</g>
<!-- EAID_4964E24C_73C8_43b2_A700_8B0FAA48FFAE&#45;&gt;EAID_DD9272E9_352E_4c79_BBD3_D2144B420FE6 -->
<g id="edge12" class="edge"><title>EAID_4964E24C_73C8_43b2_A700_8B0FAA48FFAE&#45;&gt;EAID_DD9272E9_352E_4c79_BBD3_D2144B420FE6</title>
<path fill="none" stroke="black" d="M891.352,-285.499C903.686,-287.337 916.067,-288.9 928,-290 1031.12,-299.503 1058.19,-302.406 1161,-290 1171.92,-288.683 1183.37,-286.568 1194.45,-284.126"/>
<polygon fill="black" stroke="black" points="1195.53,-287.468 1204.49,-281.805 1193.96,-280.648 1195.53,-287.468"/>
</g>
<!-- EAID_37274387_109D_46d9_8E16_50A556933F31&#45;&gt;EAID_DE50848C_0D36_4bfd_A42B_ED5E6BCF26B1 -->
<g id="edge8" class="edge"><title>EAID_37274387_109D_46d9_8E16_50A556933F31&#45;&gt;EAID_DE50848C_0D36_4bfd_A42B_ED5E6BCF26B1</title>
<path fill="none" stroke="black" d="M1147.7,-164.494C1152.25,-161.369 1156.71,-158.197 1161,-155 1173.07,-146.012 1185.3,-135.742 1196.85,-125.417"/>
<polygon fill="black" stroke="black" points="1199.27,-127.946 1204.33,-118.636 1194.57,-122.759 1199.27,-127.946"/>
</g>
<!-- EAID_37274387_109D_46d9_8E16_50A556933F31&#45;&gt;EAID_DD9272E9_352E_4c79_BBD3_D2144B420FE6 -->
<g id="edge9" class="edge"><title>EAID_37274387_109D_46d9_8E16_50A556933F31&#45;&gt;EAID_DD9272E9_352E_4c79_BBD3_D2144B420FE6</title>
<path fill="none" stroke="black" d="M1160.06,-246.073C1171.88,-248.453 1183.56,-250.807 1194.54,-253.017"/>
<polygon fill="black" stroke="black" points="1193.91,-256.46 1204.4,-255.004 1195.29,-249.598 1193.91,-256.46"/>
</g>
</g>
</svg>
