<?xml version="1.0" encoding="UTF-8" standalone="no"?>
<!DOCTYPE svg PUBLIC "-//W3C//DTD SVG 1.1//EN"
 "http://www.w3.org/Graphics/SVG/1.1/DTD/svg11.dtd">
<!-- Generated by graphviz version 2.38.0 (20140413.2041)
 -->
<!-- Title: g Pages: 1 -->
<svg width="1017pt" height="213pt"
 viewBox="0.00 0.00 1017.00 212.78" xmlns="http://www.w3.org/2000/svg" xmlns:xlink="http://www.w3.org/1999/xlink">
<g id="graph0" class="graph" transform="scale(1 1) rotate(0) translate(4 208.78)">
<title>g</title>
<polygon fill="white" stroke="none" points="-4,4 -4,-208.78 1013,-208.78 1013,4 -4,4"/>
<!-- EAID_E7AE690F_88C6_4b3a_8BA4_D57BB9D88D3B -->
<g id="node1" class="node"><title>EAID_E7AE690F_88C6_4b3a_8BA4_D57BB9D88D3B</title>
<image xlink:href="img/actor1.png" width="61px" height="90px" preserveAspectRatio="xMinYMin meet" x="10.5" y="-198.78"/>
<text text-anchor="start" x="19" y="-85.5801" font-family="Times New Roman,serif" font-size="24.00">User</text>
</g>
<!-- EAID_FE52A748_8289_4f70_8859_3D3E667C43FB -->
<g id="node2" class="node"><title>EAID_FE52A748_8289_4f70_8859_3D3E667C43FB</title>
<image xlink:href="img/boundary3.png" width="102px" height="67px" preserveAspectRatio="xMinYMin meet" x="897" y="-186.78"/>
<text text-anchor="start" x="897" y="-96.5801" font-family="Times New Roman,serif" font-size="24.00">Homepage</text>
</g>
<!-- EAID_E7AE690F_88C6_4b3a_8BA4_D57BB9D88D3B&#45;&gt;EAID_FE52A748_8289_4f70_8859_3D3E667C43FB -->
<g id="edge1" class="edge"><title>EAID_E7AE690F_88C6_4b3a_8BA4_D57BB9D88D3B&#45;&gt;EAID_FE52A748_8289_4f70_8859_3D3E667C43FB</title>
<path fill="none" stroke="black" d="M81.1054,-151.149C92.5725,-154.216 105.186,-157.104 117,-158.78 193.586,-169.648 213.651,-161.891 291,-162.78 539.872,-165.64 603.976,-193.19 851,-162.78 859.548,-161.728 868.43,-160.167 877.187,-158.338"/>
<polygon fill="black" stroke="black" points="877.986,-161.746 886.996,-156.171 876.476,-154.91 877.986,-161.746"/>
</g>
<!-- EAID_5802BD24_B681_4804_8D8E_7240F06276DF -->
<g id="node3" class="node"><title>EAID_5802BD24_B681_4804_8D8E_7240F06276DF</title>
<image xlink:href="img/boundary3.png" width="115px" height="67px" preserveAspectRatio="xMinYMin meet" x="128.5" y="-143.78"/>
<text text-anchor="start" x="127" y="-53.5801" font-family="Times New Roman,serif" font-size="24.00">Logout page</text>
</g>
<!-- EAID_E7AE690F_88C6_4b3a_8BA4_D57BB9D88D3B&#45;&gt;EAID_5802BD24_B681_4804_8D8E_7240F06276DF -->
<g id="edge2" class="edge"><title>EAID_E7AE690F_88C6_4b3a_8BA4_D57BB9D88D3B&#45;&gt;EAID_5802BD24_B681_4804_8D8E_7240F06276DF</title>
<path fill="none" stroke="black" d="M81.0919,-126.916C89.2556,-124.47 98.1196,-121.814 107.113,-119.119"/>
<polygon fill="black" stroke="black" points="108.321,-122.411 116.896,-116.188 106.312,-115.705 108.321,-122.411"/>
</g>
<!-- EAID_9CD3A028_2944_4133_8DA5_87EB7047DCD2 -->
<g id="node5" class="node"><title>EAID_9CD3A028_2944_4133_8DA5_87EB7047DCD2</title>
<image xlink:href="img/control1.png" width="106px" height="75px" preserveAspectRatio="xMinYMin meet" x="399" y="-147.78"/>
<text text-anchor="start" x="301.5" y="-49.5801" font-family="Times New Roman,serif" font-size="24.00">Validate usename and password</text>
</g>
<!-- EAID_5802BD24_B681_4804_8D8E_7240F06276DF&#45;&gt;EAID_9CD3A028_2944_4133_8DA5_87EB7047DCD2 -->
<g id="edge6" class="edge"><title>EAID_5802BD24_B681_4804_8D8E_7240F06276DF&#45;&gt;EAID_9CD3A028_2944_4133_8DA5_87EB7047DCD2</title>
<path fill="none" stroke="black" d="M255.2,-95.7801C263.344,-95.7801 271.913,-95.7801 280.731,-95.7801"/>
<polygon fill="black" stroke="black" points="280.782,-99.2802 290.782,-95.7801 280.782,-92.2802 280.782,-99.2802"/>
</g>
<!-- EAID_9C1FAED3_195D_4ccd_9CF0_13D9ADDBB0B3 -->
<g id="node4" class="node"><title>EAID_9C1FAED3_195D_4ccd_9CF0_13D9ADDBB0B3</title>
<image xlink:href="img/control1.png" width="106px" height="75px" preserveAspectRatio="xMinYMin meet" x="697" y="-147.78"/>
<text text-anchor="start" x="658.5" y="-49.5801" font-family="Times New Roman,serif" font-size="24.00">Confirmation page </text>
</g>
<!-- EAID_9C1FAED3_195D_4ccd_9CF0_13D9ADDBB0B3&#45;&gt;EAID_FE52A748_8289_4f70_8859_3D3E667C43FB -->
<g id="edge4" class="edge"><title>EAID_9C1FAED3_195D_4ccd_9CF0_13D9ADDBB0B3&#45;&gt;EAID_FE52A748_8289_4f70_8859_3D3E667C43FB</title>
<path fill="none" stroke="black" d="M851.053,-117.784C859.875,-119.715 868.673,-121.64 877.162,-123.497"/>
<polygon fill="black" stroke="black" points="876.45,-126.924 886.967,-125.643 877.947,-120.086 876.45,-126.924"/>
</g>
<!-- EAID_9C1FAED3_195D_4ccd_9CF0_13D9ADDBB0B3&#45;&gt;EAID_5802BD24_B681_4804_8D8E_7240F06276DF -->
<g id="edge3" class="edge"><title>EAID_9C1FAED3_195D_4ccd_9CF0_13D9ADDBB0B3&#45;&gt;EAID_5802BD24_B681_4804_8D8E_7240F06276DF</title>
<path fill="none" stroke="black" d="M647.952,-39.3609C636.118,-34.6388 623.984,-30.5998 612,-27.7801 473.126,4.8962 427.728,12.9525 291,-27.7801 281.87,-30.5 272.795,-34.3049 264.028,-38.7397"/>
<polygon fill="black" stroke="black" points="262.175,-35.7617 255.014,-43.5701 265.482,-41.9317 262.175,-35.7617"/>
</g>
<!-- EAID_9CD3A028_2944_4133_8DA5_87EB7047DCD2&#45;&gt;EAID_9C1FAED3_195D_4ccd_9CF0_13D9ADDBB0B3 -->
<g id="edge5" class="edge"><title>EAID_9CD3A028_2944_4133_8DA5_87EB7047DCD2&#45;&gt;EAID_9C1FAED3_195D_4ccd_9CF0_13D9ADDBB0B3</title>
<path fill="none" stroke="black" d="M612.196,-95.7801C620.738,-95.7801 629.227,-95.7801 637.549,-95.7801"/>
<polygon fill="black" stroke="black" points="637.61,-99.2802 647.61,-95.7801 637.61,-92.2802 637.61,-99.2802"/>
</g>
</g>
</svg>
