<?xml version="1.0" encoding="UTF-8" standalone="no"?>
<!DOCTYPE svg PUBLIC "-//W3C//DTD SVG 1.1//EN"
 "http://www.w3.org/Graphics/SVG/1.1/DTD/svg11.dtd">
<!-- Generated by graphviz version 2.38.0 (20140413.2041)
 -->
<!-- Title: g Pages: 1 -->
<svg width="1475pt" height="379pt"
 viewBox="0.00 0.00 1475.00 379.31" xmlns="http://www.w3.org/2000/svg" xmlns:xlink="http://www.w3.org/1999/xlink">
<g id="graph0" class="graph" transform="scale(1 1) rotate(0) translate(4 375.306)">
<title>g</title>
<polygon fill="white" stroke="none" points="-4,4 -4,-375.306 1471,-375.306 1471,4 -4,4"/>
<!-- EAID_4EEA6E71_D671_436d_9724_572BD729B683 -->
<g id="node1" class="node"><title>EAID_4EEA6E71_D671_436d_9724_572BD729B683</title>
<image xlink:href="img/actor1.png" width="61px" height="90px" preserveAspectRatio="xMinYMin meet" x="10.5" y="-242.323"/>
<text text-anchor="start" x="19" y="-129.123" font-family="Times New Roman,serif" font-size="24.00">User</text>
</g>
<!-- EAID_FD172762_D58C_4592_B31E_58A2C54E138D -->
<g id="node2" class="node"><title>EAID_FD172762_D58C_4592_B31E_58A2C54E138D</title>
<image xlink:href="img/boundary3.png" width="115px" height="67px" preserveAspectRatio="xMinYMin meet" x="209.5" y="-167.323"/>
<text text-anchor="start" x="127" y="-77.1226" font-family="Times New Roman,serif" font-size="24.00">Enter username and password</text>
</g>
<!-- EAID_4EEA6E71_D671_436d_9724_572BD729B683&#45;&gt;EAID_FD172762_D58C_4592_B31E_58A2C54E138D -->
<g id="edge1" class="edge"><title>EAID_4EEA6E71_D671_436d_9724_572BD729B683&#45;&gt;EAID_FD172762_D58C_4592_B31E_58A2C54E138D</title>
<path fill="none" stroke="black" d="M81.1193,-171.204C88.967,-169.002 97.6447,-166.567 106.834,-163.988"/>
<polygon fill="black" stroke="black" points="107.9,-167.325 116.582,-161.253 106.008,-160.585 107.9,-167.325"/>
</g>
<!-- EAID_240B9D10_6D1F_4e24_944A_3FA28DD6B93D -->
<g id="node3" class="node"><title>EAID_240B9D10_6D1F_4e24_944A_3FA28DD6B93D</title>
<image xlink:href="img/boundary3.png" width="102px" height="67px" preserveAspectRatio="xMinYMin meet" x="1355" y="-137.323"/>
<text text-anchor="start" x="1355" y="-47.1226" font-family="Times New Roman,serif" font-size="24.00">Homepage</text>
</g>
<!-- EAID_4EEA6E71_D671_436d_9724_572BD729B683&#45;&gt;EAID_240B9D10_6D1F_4e24_944A_3FA28DD6B93D -->
<g id="edge2" class="edge"><title>EAID_4EEA6E71_D671_436d_9724_572BD729B683&#45;&gt;EAID_240B9D10_6D1F_4e24_944A_3FA28DD6B93D</title>
<path fill="none" stroke="black" d="M64.7128,-116.126C76.5212,-92.6245 93.4784,-68.7035 117,-55.3226 326.646,63.9402 1097.08,-41.8564 1334.73,-78.1676"/>
<polygon fill="black" stroke="black" points="1334.22,-81.6305 1344.63,-79.6884 1335.28,-74.7116 1334.22,-81.6305"/>
</g>
<!-- EAID_968E3D84_553E_4b9c_9A3A_03CB6EE0732D -->
<g id="node4" class="node"><title>EAID_968E3D84_553E_4b9c_9A3A_03CB6EE0732D</title>
<image xlink:href="img/boundary3.png" width="115px" height="67px" preserveAspectRatio="xMinYMin meet" x="209.5" y="-294.323"/>
<text text-anchor="start" x="199" y="-204.123" font-family="Times New Roman,serif" font-size="24.00">Click Register</text>
</g>
<!-- EAID_4EEA6E71_D671_436d_9724_572BD729B683&#45;&gt;EAID_968E3D84_553E_4b9c_9A3A_03CB6EE0732D -->
<g id="edge3" class="edge"><title>EAID_4EEA6E71_D671_436d_9724_572BD729B683&#45;&gt;EAID_968E3D84_553E_4b9c_9A3A_03CB6EE0732D</title>
<path fill="none" stroke="black" d="M81.1193,-193.617C108.158,-201.325 145.049,-211.842 178.767,-221.454"/>
<polygon fill="black" stroke="black" points="178.07,-224.895 188.647,-224.271 179.989,-218.163 178.07,-224.895"/>
</g>
<!-- EAID_2C5EBFB8_DA06_4152_A9BF_53FC249B675F -->
<g id="node5" class="node"><title>EAID_2C5EBFB8_DA06_4152_A9BF_53FC249B675F</title>
<image xlink:href="img/boundary3.png" width="115px" height="67px" preserveAspectRatio="xMinYMin meet" x="682.5" y="-358.323"/>
<text text-anchor="start" x="566" y="-268.123" font-family="Times New Roman,serif" font-size="24.00">Receive verification and session data</text>
</g>
<!-- EAID_4EEA6E71_D671_436d_9724_572BD729B683&#45;&gt;EAID_2C5EBFB8_DA06_4152_A9BF_53FC249B675F -->
<g id="edge4" class="edge"><title>EAID_4EEA6E71_D671_436d_9724_572BD729B683&#45;&gt;EAID_2C5EBFB8_DA06_4152_A9BF_53FC249B675F</title>
<path fill="none" stroke="black" d="M64.2608,-248.354C76.0661,-272.253 93.1405,-296.695 117,-310.323 246.086,-384.051 416.206,-378.484 545.9,-357.584"/>
<polygon fill="black" stroke="black" points="546.659,-361.007 555.953,-355.921 545.516,-354.101 546.659,-361.007"/>
</g>
<!-- EAID_0CB00F8B_9CC2_4785_95C3_F79C94EE64FA -->
<g id="node6" class="node"><title>EAID_0CB00F8B_9CC2_4785_95C3_F79C94EE64FA</title>
<image xlink:href="img/control1.png" width="106px" height="75px" preserveAspectRatio="xMinYMin meet" x="687" y="-194.323"/>
<text text-anchor="start" x="463" y="-96.1226" font-family="Times New Roman,serif" font-size="24.00">Send the form to Authentication backend to check its valid</text>
</g>
<!-- EAID_FD172762_D58C_4592_B31E_58A2C54E138D&#45;&gt;EAID_0CB00F8B_9CC2_4785_95C3_F79C94EE64FA -->
<g id="edge6" class="edge"><title>EAID_FD172762_D58C_4592_B31E_58A2C54E138D&#45;&gt;EAID_0CB00F8B_9CC2_4785_95C3_F79C94EE64FA</title>
<path fill="none" stroke="black" d="M417.027,-126.6C425.357,-127.007 433.854,-127.422 442.468,-127.842"/>
<polygon fill="black" stroke="black" points="442.472,-131.347 452.631,-128.339 442.814,-124.355 442.472,-131.347"/>
</g>
<!-- EAID_968E3D84_553E_4b9c_9A3A_03CB6EE0732D&#45;&gt;EAID_0CB00F8B_9CC2_4785_95C3_F79C94EE64FA -->
<g id="edge5" class="edge"><title>EAID_968E3D84_553E_4b9c_9A3A_03CB6EE0732D&#45;&gt;EAID_0CB00F8B_9CC2_4785_95C3_F79C94EE64FA</title>
<path fill="none" stroke="black" d="M345.249,-229.266C378.913,-221.832 420.608,-212.626 464.15,-203.011"/>
<polygon fill="black" stroke="black" points="465.048,-206.397 474.058,-200.823 463.539,-199.562 465.048,-206.397"/>
</g>
<!-- EAID_E374ED71_5F3A_403a_BE28_0CE494B4D0BE -->
<g id="node7" class="node"><title>EAID_E374ED71_5F3A_403a_BE28_0CE494B4D0BE</title>
<image xlink:href="img/control1.png" width="106px" height="75px" preserveAspectRatio="xMinYMin meet" x="1133" y="-194.323"/>
<text text-anchor="start" x="1073" y="-96.1226" font-family="Times New Roman,serif" font-size="24.00">show confirmation page</text>
</g>
<!-- EAID_2C5EBFB8_DA06_4152_A9BF_53FC249B675F&#45;&gt;EAID_E374ED71_5F3A_403a_BE28_0CE494B4D0BE -->
<g id="edge8" class="edge"><title>EAID_2C5EBFB8_DA06_4152_A9BF_53FC249B675F&#45;&gt;EAID_E374ED71_5F3A_403a_BE28_0CE494B4D0BE</title>
<path fill="none" stroke="black" d="M901.23,-255.692C942.403,-241.121 986.501,-225.043 1027,-209.323 1035.66,-205.962 1044.55,-202.426 1053.49,-198.808"/>
<polygon fill="black" stroke="black" points="1054.88,-202.023 1062.82,-195.011 1052.24,-195.539 1054.88,-202.023"/>
</g>
<!-- EAID_0CB00F8B_9CC2_4785_95C3_F79C94EE64FA&#45;&gt;EAID_E374ED71_5F3A_403a_BE28_0CE494B4D0BE -->
<g id="edge9" class="edge"><title>EAID_0CB00F8B_9CC2_4785_95C3_F79C94EE64FA&#45;&gt;EAID_E374ED71_5F3A_403a_BE28_0CE494B4D0BE</title>
<path fill="none" stroke="black" d="M1027.21,-142.323C1035.92,-142.323 1044.48,-142.323 1052.84,-142.323"/>
<polygon fill="black" stroke="black" points="1052.94,-145.823 1062.94,-142.323 1052.94,-138.823 1052.94,-145.823"/>
</g>
<!-- EAID_E374ED71_5F3A_403a_BE28_0CE494B4D0BE&#45;&gt;EAID_240B9D10_6D1F_4e24_944A_3FA28DD6B93D -->
<g id="edge7" class="edge"><title>EAID_E374ED71_5F3A_403a_BE28_0CE494B4D0BE&#45;&gt;EAID_240B9D10_6D1F_4e24_944A_3FA28DD6B93D</title>
<path fill="none" stroke="black" d="M1309.06,-112.646C1317.85,-110.511 1326.52,-108.403 1334.84,-106.38"/>
<polygon fill="black" stroke="black" points="1335.91,-109.721 1344.8,-103.957 1334.26,-102.919 1335.91,-109.721"/>
</g>
</g>
</svg>
