<?xml version="1.0" encoding="UTF-8" standalone="no"?>
<!DOCTYPE svg PUBLIC "-//W3C//DTD SVG 1.1//EN"
 "http://www.w3.org/Graphics/SVG/1.1/DTD/svg11.dtd">
<!-- Generated by graphviz version 2.38.0 (20140413.2041)
 -->
<!-- Title: g Pages: 1 -->
<svg width="213pt" height="260pt"
 viewBox="0.00 0.00 213.38 260.00" xmlns="http://www.w3.org/2000/svg" xmlns:xlink="http://www.w3.org/1999/xlink">
<g id="graph0" class="graph" transform="scale(1 1) rotate(0) translate(4 256)">
<title>g</title>
<polygon fill="white" stroke="none" points="-4,4 -4,-256 209.382,-256 209.382,4 -4,4"/>
<!-- Search pictures by radius -->
<g id="node1" class="node"><title>Search pictures by radius</title>
<ellipse fill="none" stroke="black" cx="102.691" cy="-90" rx="102.882" ry="18"/>
<text text-anchor="middle" x="102.691" y="-86.3" font-family="Times New Roman,serif" font-size="14.00">Search pictures by radius</text>
</g>
<!-- Pictures -->
<g id="node2" class="node"><title>Pictures</title>
<ellipse fill="none" stroke="black" cx="102.691" cy="-18" rx="40.0939" ry="18"/>
<text text-anchor="middle" x="102.691" y="-14.3" font-family="Times New Roman,serif" font-size="14.00">Pictures</text>
</g>
<!-- Search pictures by radius&#45;&gt;Pictures -->
<g id="edge1" class="edge"><title>Search pictures by radius&#45;&gt;Pictures</title>
<path fill="none" stroke="black" d="M102.691,-71.6966C102.691,-63.9827 102.691,-54.7125 102.691,-46.1124"/>
<polygon fill="black" stroke="black" points="106.191,-46.1043 102.691,-36.1043 99.191,-46.1044 106.191,-46.1043"/>
</g>
<!-- Radius Setting Button -->
<g id="node3" class="node"><title>Radius Setting Button</title>
<ellipse fill="none" stroke="black" cx="102.691" cy="-162" rx="90.1842" ry="18"/>
<text text-anchor="middle" x="102.691" y="-158.3" font-family="Times New Roman,serif" font-size="14.00">Radius Setting Button</text>
</g>
<!-- Radius Setting Button&#45;&gt;Search pictures by radius -->
<g id="edge2" class="edge"><title>Radius Setting Button&#45;&gt;Search pictures by radius</title>
<path fill="none" stroke="black" d="M102.691,-143.697C102.691,-135.983 102.691,-126.712 102.691,-118.112"/>
<polygon fill="black" stroke="black" points="106.191,-118.104 102.691,-108.104 99.191,-118.104 106.191,-118.104"/>
</g>
<!-- User -->
<g id="node4" class="node"><title>User</title>
<ellipse fill="none" stroke="black" cx="102.691" cy="-234" rx="27.8951" ry="18"/>
<text text-anchor="middle" x="102.691" y="-230.3" font-family="Times New Roman,serif" font-size="14.00">User</text>
</g>
<!-- User&#45;&gt;Radius Setting Button -->
<g id="edge3" class="edge"><title>User&#45;&gt;Radius Setting Button</title>
<path fill="none" stroke="black" d="M102.691,-215.697C102.691,-207.983 102.691,-198.712 102.691,-190.112"/>
<polygon fill="black" stroke="black" points="106.191,-190.104 102.691,-180.104 99.191,-190.104 106.191,-190.104"/>
</g>
</g>
</svg>
