<?xml version="1.0" encoding="UTF-8" standalone="no"?>
<!DOCTYPE svg PUBLIC "-//W3C//DTD SVG 1.1//EN"
 "http://www.w3.org/Graphics/SVG/1.1/DTD/svg11.dtd">
<!-- Generated by graphviz version 2.38.0 (20140413.2041)
 -->
<!-- Title: g Pages: 1 -->
<svg width="429pt" height="836pt"
 viewBox="0.00 0.00 429.00 836.00" xmlns="http://www.w3.org/2000/svg" xmlns:xlink="http://www.w3.org/1999/xlink">
<g id="graph0" class="graph" transform="scale(1 1) rotate(0) translate(4 832)">
<title>g</title>
<polygon fill="white" stroke="none" points="-4,4 -4,-832 425,-832 425,4 -4,4"/>
<!-- Actor -->
<g id="node1" class="node"><title>Actor</title>
<ellipse fill="none" stroke="black" cx="333" cy="-810" rx="31.6951" ry="18"/>
<text text-anchor="middle" x="333" y="-806.3" font-family="Times New Roman,serif" font-size="14.00">Actor</text>
</g>
<!-- result -->
<g id="node2" class="node"><title>result</title>
<ellipse fill="none" stroke="black" cx="127" cy="-18" rx="30.5947" ry="18"/>
<text text-anchor="middle" x="127" y="-14.3" font-family="Times New Roman,serif" font-size="14.00">result</text>
</g>
<!-- Actor&#45;&gt;result -->
<g id="edge1" class="edge"><title>Actor&#45;&gt;result</title>
<path fill="none" stroke="black" d="M301.071,-809.683C217.723,-809.646 0,-797.098 0,-667 0,-667 0,-667 0,-161 0,-103.678 58.2081,-58.8873 95.8103,-35.9328"/>
<polygon fill="black" stroke="black" points="98.0505,-38.6744 104.878,-30.573 94.4887,-32.6483 98.0505,-38.6744"/>
</g>
<!-- upload choice -->
<g id="node3" class="node"><title>upload choice</title>
<ellipse fill="none" stroke="black" cx="284" cy="-738" rx="61.99" ry="18"/>
<text text-anchor="middle" x="284" y="-734.3" font-family="Times New Roman,serif" font-size="14.00">upload choice</text>
</g>
<!-- Actor&#45;&gt;upload choice -->
<g id="edge2" class="edge"><title>Actor&#45;&gt;upload choice</title>
<path fill="none" stroke="black" d="M321.881,-793.116C315.914,-784.592 308.42,-773.886 301.676,-764.251"/>
<polygon fill="black" stroke="black" points="304.36,-761.983 295.758,-755.797 298.625,-765.997 304.36,-761.983"/>
</g>
<!-- my events -->
<g id="node4" class="node"><title>my events</title>
<ellipse fill="none" stroke="black" cx="117" cy="-450" rx="47.3916" ry="18"/>
<text text-anchor="middle" x="117" y="-446.3" font-family="Times New Roman,serif" font-size="14.00">my events</text>
</g>
<!-- Actor&#45;&gt;my events -->
<g id="edge3" class="edge"><title>Actor&#45;&gt;my events</title>
<path fill="none" stroke="black" d="M342.878,-792.613C357.45,-766.84 383,-714.83 383,-667 383,-667 383,-667 383,-593 383,-552.553 392.585,-532.615 364,-504 337.63,-477.603 237.202,-462.882 172.809,-455.978"/>
<polygon fill="black" stroke="black" points="173.109,-452.49 162.8,-454.936 172.384,-459.453 173.109,-452.49"/>
</g>
<!-- confirm -->
<g id="node5" class="node"><title>confirm</title>
<ellipse fill="none" stroke="black" cx="117" cy="-306" rx="38.9931" ry="18"/>
<text text-anchor="middle" x="117" y="-302.3" font-family="Times New Roman,serif" font-size="14.00">confirm</text>
</g>
<!-- Actor&#45;&gt;confirm -->
<g id="edge4" class="edge"><title>Actor&#45;&gt;confirm</title>
<path fill="none" stroke="black" d="M349.967,-794.285C375.539,-770.375 421,-720.365 421,-667 421,-667 421,-667 421,-449 421,-337.747 251.801,-313.459 165.861,-308.297"/>
<polygon fill="black" stroke="black" points="165.984,-304.799 155.811,-307.758 165.609,-311.789 165.984,-304.799"/>
</g>
<!-- upload to my event -->
<g id="node14" class="node"><title>upload to my event</title>
<ellipse fill="none" stroke="black" cx="175" cy="-666" rx="80.6858" ry="18"/>
<text text-anchor="middle" x="175" y="-662.3" font-family="Times New Roman,serif" font-size="14.00">upload to my event</text>
</g>
<!-- upload choice&#45;&gt;upload to my event -->
<g id="edge18" class="edge"><title>upload choice&#45;&gt;upload to my event</title>
<path fill="none" stroke="black" d="M259.538,-721.291C244.604,-711.7 225.292,-699.298 208.898,-688.769"/>
<polygon fill="black" stroke="black" points="210.442,-685.601 200.136,-683.142 206.659,-691.491 210.442,-685.601"/>
</g>
<!-- select an event -->
<g id="node6" class="node"><title>select an event</title>
<ellipse fill="none" stroke="black" cx="117" cy="-378" rx="63.8893" ry="18"/>
<text text-anchor="middle" x="117" y="-374.3" font-family="Times New Roman,serif" font-size="14.00">select an event</text>
</g>
<!-- my events&#45;&gt;select an event -->
<g id="edge5" class="edge"><title>my events&#45;&gt;select an event</title>
<path fill="none" stroke="black" d="M117,-431.697C117,-423.983 117,-414.712 117,-406.112"/>
<polygon fill="black" stroke="black" points="120.5,-406.104 117,-396.104 113.5,-406.104 120.5,-406.104"/>
</g>
<!-- confirm upload -->
<g id="node7" class="node"><title>confirm upload</title>
<ellipse fill="none" stroke="black" cx="113" cy="-234" rx="66.0889" ry="18"/>
<text text-anchor="middle" x="113" y="-230.3" font-family="Times New Roman,serif" font-size="14.00">confirm upload</text>
</g>
<!-- confirm&#45;&gt;confirm upload -->
<g id="edge15" class="edge"><title>confirm&#45;&gt;confirm upload</title>
<path fill="none" stroke="black" d="M116.011,-287.697C115.57,-279.983 115.041,-270.712 114.549,-262.112"/>
<polygon fill="black" stroke="black" points="118.042,-261.888 113.977,-252.104 111.054,-262.288 118.042,-261.888"/>
</g>
<!-- select an event&#45;&gt;confirm -->
<g id="edge7" class="edge"><title>select an event&#45;&gt;confirm</title>
<path fill="none" stroke="black" d="M117,-359.697C117,-351.983 117,-342.712 117,-334.112"/>
<polygon fill="black" stroke="black" points="120.5,-334.104 117,-324.104 113.5,-334.104 120.5,-334.104"/>
</g>
<!-- photos in the event -->
<g id="node8" class="node"><title>photos in the event</title>
<ellipse fill="none" stroke="black" cx="127" cy="-162" rx="79.0865" ry="18"/>
<text text-anchor="middle" x="127" y="-158.3" font-family="Times New Roman,serif" font-size="14.00">photos in the event</text>
</g>
<!-- confirm upload&#45;&gt;photos in the event -->
<g id="edge6" class="edge"><title>confirm upload&#45;&gt;photos in the event</title>
<path fill="none" stroke="black" d="M116.461,-215.697C118.003,-207.983 119.858,-198.712 121.578,-190.112"/>
<polygon fill="black" stroke="black" points="125.05,-190.597 123.579,-180.104 118.186,-189.224 125.05,-190.597"/>
</g>
<!-- failed to upload -->
<g id="node9" class="node"><title>failed to upload</title>
<ellipse fill="none" stroke="black" cx="127" cy="-90" rx="67.6881" ry="18"/>
<text text-anchor="middle" x="127" y="-86.3" font-family="Times New Roman,serif" font-size="14.00">failed to upload</text>
</g>
<!-- photos in the event&#45;&gt;failed to upload -->
<g id="edge8" class="edge"><title>photos in the event&#45;&gt;failed to upload</title>
<path fill="none" stroke="black" d="M127,-143.697C127,-135.983 127,-126.712 127,-118.112"/>
<polygon fill="black" stroke="black" points="130.5,-118.104 127,-108.104 123.5,-118.104 130.5,-118.104"/>
</g>
<!-- failed to upload&#45;&gt;result -->
<g id="edge9" class="edge"><title>failed to upload&#45;&gt;result</title>
<path fill="none" stroke="black" d="M127,-71.6966C127,-63.9827 127,-54.7125 127,-46.1124"/>
<polygon fill="black" stroke="black" points="130.5,-46.1043 127,-36.1043 123.5,-46.1044 130.5,-46.1043"/>
</g>
<!-- my event -->
<g id="node10" class="node"><title>my event</title>
<ellipse fill="none" stroke="black" cx="175" cy="-594" rx="43.5923" ry="18"/>
<text text-anchor="middle" x="175" y="-590.3" font-family="Times New Roman,serif" font-size="14.00">my event</text>
</g>
<!-- display my events -->
<g id="node11" class="node"><title>display my events</title>
<ellipse fill="none" stroke="black" cx="103" cy="-522" rx="75.2868" ry="18"/>
<text text-anchor="middle" x="103" y="-518.3" font-family="Times New Roman,serif" font-size="14.00">display my events</text>
</g>
<!-- my event&#45;&gt;display my events -->
<g id="edge10" class="edge"><title>my event&#45;&gt;display my events</title>
<path fill="none" stroke="black" d="M158.662,-577.116C149.381,-568.092 137.584,-556.623 127.241,-546.568"/>
<polygon fill="black" stroke="black" points="129.634,-544.013 120.025,-539.552 124.755,-549.032 129.634,-544.013"/>
</g>
<!-- can&#39;t access server -->
<g id="node12" class="node"><title>can&#39;t access server</title>
<ellipse fill="none" stroke="black" cx="276" cy="-522" rx="79.0865" ry="18"/>
<text text-anchor="middle" x="276" y="-518.3" font-family="Times New Roman,serif" font-size="14.00">can&#39;t access server</text>
</g>
<!-- my event&#45;&gt;can&#39;t access server -->
<g id="edge11" class="edge"><title>my event&#45;&gt;can&#39;t access server</title>
<path fill="none" stroke="black" d="M196.42,-578.155C210.295,-568.538 228.614,-555.842 244.178,-545.055"/>
<polygon fill="black" stroke="black" points="246.27,-547.863 252.495,-539.29 242.282,-542.11 246.27,-547.863"/>
</g>
<!-- display my events&#45;&gt;my events -->
<g id="edge14" class="edge"><title>display my events&#45;&gt;my events</title>
<path fill="none" stroke="black" d="M106.461,-503.697C108.003,-495.983 109.858,-486.712 111.578,-478.112"/>
<polygon fill="black" stroke="black" points="115.05,-478.597 113.579,-468.104 108.186,-477.224 115.05,-478.597"/>
</g>
<!-- can&#39;t access server&#45;&gt;upload choice -->
<g id="edge17" class="edge"><title>can&#39;t access server&#45;&gt;upload choice</title>
<path fill="none" stroke="black" d="M276.644,-540.232C278.031,-577.324 281.308,-664.981 282.98,-709.712"/>
<polygon fill="black" stroke="black" points="279.488,-709.987 283.359,-719.849 286.483,-709.725 279.488,-709.987"/>
</g>
<!-- upload finished -->
<g id="node13" class="node"><title>upload finished</title>
<ellipse fill="none" stroke="black" cx="264" cy="-234" rx="66.0889" ry="18"/>
<text text-anchor="middle" x="264" y="-230.3" font-family="Times New Roman,serif" font-size="14.00">upload finished</text>
</g>
<!-- upload finished&#45;&gt;result -->
<g id="edge12" class="edge"><title>upload finished&#45;&gt;result</title>
<path fill="none" stroke="black" d="M261.136,-215.822C255.192,-184.436 239.037,-116.927 204,-72 191.986,-56.5954 174.246,-43.9593 158.821,-34.8942"/>
<polygon fill="black" stroke="black" points="160.499,-31.8227 150.067,-29.9754 157.07,-37.9254 160.499,-31.8227"/>
</g>
<!-- upload finished&#45;&gt;photos in the event -->
<g id="edge13" class="edge"><title>upload finished&#45;&gt;photos in the event</title>
<path fill="none" stroke="black" d="M234.273,-217.811C214.441,-207.678 188.145,-194.242 166.551,-183.209"/>
<polygon fill="black" stroke="black" points="168.115,-180.077 157.618,-178.644 164.93,-186.311 168.115,-180.077"/>
</g>
<!-- upload to my event&#45;&gt;my event -->
<g id="edge16" class="edge"><title>upload to my event&#45;&gt;my event</title>
<path fill="none" stroke="black" d="M175,-647.697C175,-639.983 175,-630.712 175,-622.112"/>
<polygon fill="black" stroke="black" points="178.5,-622.104 175,-612.104 171.5,-622.104 178.5,-622.104"/>
</g>
</g>
</svg>
