<?xml version="1.0" encoding="UTF-8" standalone="no"?>
<!DOCTYPE svg PUBLIC "-//W3C//DTD SVG 1.1//EN"
 "http://www.w3.org/Graphics/SVG/1.1/DTD/svg11.dtd">
<!-- Generated by graphviz version 2.38.0 (20140413.2041)
 -->
<!-- Title: g Pages: 1 -->
<svg width="472pt" height="404pt"
 viewBox="0.00 0.00 472.18 404.00" xmlns="http://www.w3.org/2000/svg" xmlns:xlink="http://www.w3.org/1999/xlink">
<g id="graph0" class="graph" transform="scale(1 1) rotate(0) translate(4 400)">
<title>g</title>
<polygon fill="white" stroke="none" points="-4,4 -4,-400 468.185,-400 468.185,4 -4,4"/>
<!-- delete product -->
<g id="node1" class="node"><title>delete product</title>
<ellipse fill="none" stroke="black" cx="250.191" cy="-90" rx="63.0888" ry="18"/>
<text text-anchor="middle" x="250.191" y="-86.3" font-family="Times New Roman,serif" font-size="14.00">delete product</text>
</g>
<!-- product -->
<g id="node2" class="node"><title>product</title>
<ellipse fill="none" stroke="black" cx="250.191" cy="-18" rx="39.7935" ry="18"/>
<text text-anchor="middle" x="250.191" y="-14.3" font-family="Times New Roman,serif" font-size="14.00">product</text>
</g>
<!-- delete product&#45;&gt;product -->
<g id="edge1" class="edge"><title>delete product&#45;&gt;product</title>
<path fill="none" stroke="black" d="M250.191,-71.6966C250.191,-63.9827 250.191,-54.7125 250.191,-46.1124"/>
<polygon fill="black" stroke="black" points="253.692,-46.1043 250.191,-36.1043 246.692,-46.1044 253.692,-46.1043"/>
</g>
<!-- delete success message -->
<g id="node3" class="node"><title>delete success message</title>
<ellipse fill="none" stroke="black" cx="96.1915" cy="-18" rx="96.3833" ry="18"/>
<text text-anchor="middle" x="96.1915" y="-14.3" font-family="Times New Roman,serif" font-size="14.00">delete success message</text>
</g>
<!-- delete product&#45;&gt;delete success message -->
<g id="edge2" class="edge"><title>delete product&#45;&gt;delete success message</title>
<path fill="none" stroke="black" d="M217.908,-74.3257C195.384,-64.0876 165.049,-50.2987 140.297,-39.0481"/>
<polygon fill="black" stroke="black" points="141.664,-35.8249 131.112,-34.8731 138.768,-42.1975 141.664,-35.8249"/>
</g>
<!-- delete failed dialog -->
<g id="node4" class="node"><title>delete failed dialog</title>
<ellipse fill="none" stroke="black" cx="386.191" cy="-18" rx="77.9862" ry="18"/>
<text text-anchor="middle" x="386.191" y="-14.3" font-family="Times New Roman,serif" font-size="14.00">delete failed dialog</text>
</g>
<!-- delete product&#45;&gt;delete failed dialog -->
<g id="edge3" class="edge"><title>delete product&#45;&gt;delete failed dialog</title>
<path fill="none" stroke="black" d="M279.367,-73.9832C299.035,-63.8598 325.221,-50.382 346.743,-39.3042"/>
<polygon fill="black" stroke="black" points="348.36,-42.4087 355.649,-34.7203 345.156,-36.1848 348.36,-42.4087"/>
</g>
<!-- open confirm dialog -->
<g id="node5" class="node"><title>open confirm dialog</title>
<ellipse fill="none" stroke="black" cx="222.191" cy="-234" rx="83.6854" ry="18"/>
<text text-anchor="middle" x="222.191" y="-230.3" font-family="Times New Roman,serif" font-size="14.00">open confirm dialog</text>
</g>
<!-- Confirm dialog -->
<g id="node6" class="node"><title>Confirm dialog</title>
<ellipse fill="none" stroke="black" cx="250.191" cy="-162" rx="65.7887" ry="18"/>
<text text-anchor="middle" x="250.191" y="-158.3" font-family="Times New Roman,serif" font-size="14.00">Confirm dialog</text>
</g>
<!-- open confirm dialog&#45;&gt;Confirm dialog -->
<g id="edge4" class="edge"><title>open confirm dialog&#45;&gt;Confirm dialog</title>
<path fill="none" stroke="black" d="M228.969,-216.055C232.121,-208.176 235.945,-198.617 239.474,-189.794"/>
<polygon fill="black" stroke="black" points="242.817,-190.86 243.281,-180.275 236.318,-188.26 242.817,-190.86"/>
</g>
<!-- Confirm dialog&#45;&gt;delete product -->
<g id="edge5" class="edge"><title>Confirm dialog&#45;&gt;delete product</title>
<path fill="none" stroke="black" d="M250.191,-143.697C250.191,-135.983 250.191,-126.712 250.191,-118.112"/>
<polygon fill="black" stroke="black" points="253.692,-118.104 250.191,-108.104 246.692,-118.104 253.692,-118.104"/>
</g>
<!-- delete product button -->
<g id="node7" class="node"><title>delete product button</title>
<ellipse fill="none" stroke="black" cx="219.191" cy="-306" rx="89.0842" ry="18"/>
<text text-anchor="middle" x="219.191" y="-302.3" font-family="Times New Roman,serif" font-size="14.00">delete product button</text>
</g>
<!-- delete product button&#45;&gt;open confirm dialog -->
<g id="edge6" class="edge"><title>delete product button&#45;&gt;open confirm dialog</title>
<path fill="none" stroke="black" d="M219.933,-287.697C220.264,-279.983 220.661,-270.712 221.03,-262.112"/>
<polygon fill="black" stroke="black" points="224.527,-262.245 221.458,-252.104 217.533,-261.945 224.527,-262.245"/>
</g>
<!-- Vendor -->
<g id="node8" class="node"><title>Vendor</title>
<ellipse fill="none" stroke="black" cx="277.191" cy="-378" rx="38.1938" ry="18"/>
<text text-anchor="middle" x="277.191" y="-374.3" font-family="Times New Roman,serif" font-size="14.00">Vendor</text>
</g>
<!-- Vendor&#45;&gt;delete success message -->
<g id="edge8" class="edge"><title>Vendor&#45;&gt;delete success message</title>
<path fill="none" stroke="black" d="M239.472,-374.352C203.883,-369.799 151.582,-357.45 121.191,-324 93.8623,-293.919 100.191,-275.642 100.191,-235 100.191,-235 100.191,-235 100.191,-161 100.191,-120.98 98.5843,-74.6412 97.4075,-46.0734"/>
<polygon fill="black" stroke="black" points="100.903,-45.8874 96.9817,-36.0449 93.9091,-46.1844 100.903,-45.8874"/>
</g>
<!-- Vendor&#45;&gt;delete failed dialog -->
<g id="edge7" class="edge"><title>Vendor&#45;&gt;delete failed dialog</title>
<path fill="none" stroke="black" d="M298.134,-362.679C329.025,-339.67 383.191,-291.298 383.191,-235 383.191,-235 383.191,-235 383.191,-161 383.191,-120.987 384.397,-74.6463 385.279,-46.0762"/>
<polygon fill="black" stroke="black" points="388.779,-46.1532 385.599,-36.0468 381.782,-45.9304 388.779,-46.1532"/>
</g>
<!-- Vendor&#45;&gt;Confirm dialog -->
<g id="edge10" class="edge"><title>Vendor&#45;&gt;Confirm dialog</title>
<path fill="none" stroke="black" d="M293.263,-361.448C302.19,-351.655 312.431,-338.21 317.191,-324 322.612,-307.82 322.926,-231.719 315.191,-216 308.942,-203.299 298.065,-192.601 286.976,-184.216"/>
<polygon fill="black" stroke="black" points="288.718,-181.162 278.529,-178.261 284.685,-186.883 288.718,-181.162"/>
</g>
<!-- Vendor&#45;&gt;delete product button -->
<g id="edge9" class="edge"><title>Vendor&#45;&gt;delete product button</title>
<path fill="none" stroke="black" d="M263.739,-360.765C256.628,-352.182 247.746,-341.462 239.788,-331.858"/>
<polygon fill="black" stroke="black" points="242.455,-329.591 233.38,-324.124 237.065,-334.057 242.455,-329.591"/>
</g>
</g>
</svg>
