<?xml version="1.0" encoding="UTF-8" standalone="no"?>
<!DOCTYPE svg PUBLIC "-//W3C//DTD SVG 1.1//EN"
 "http://www.w3.org/Graphics/SVG/1.1/DTD/svg11.dtd">
<!-- Generated by graphviz version 2.38.0 (20140413.2041)
 -->
<!-- Title: g Pages: 1 -->
<svg width="2862pt" height="741pt"
 viewBox="0.00 0.00 2862.00 741.00" xmlns="http://www.w3.org/2000/svg" xmlns:xlink="http://www.w3.org/1999/xlink">
<g id="graph0" class="graph" transform="scale(1 1) rotate(0) translate(4 737)">
<title>g</title>
<polygon fill="white" stroke="none" points="-4,4 -4,-737 2858,-737 2858,4 -4,4"/>
<!-- EAID_9CA2F371_BCAB_4038_9940_DD582C4AE748 -->
<g id="node1" class="node"><title>EAID_9CA2F371_BCAB_4038_9940_DD582C4AE748</title>
<image xlink:href="img/actor1.png" width="64px" height="90px" preserveAspectRatio="xMinYMin meet" x="484.5" y="-488.5"/>
<text text-anchor="start" x="484.5" y="-375.3" font-family="Times New Roman,serif" font-size="24.00">Admin</text>
</g>
<!-- EAID_16BB2239_1D10_46f2_BE84_059BBEBDAD80 -->
<g id="node2" class="node"><title>EAID_16BB2239_1D10_46f2_BE84_059BBEBDAD80</title>
<image xlink:href="img/boundary3.png" width="115px" height="67px" preserveAspectRatio="xMinYMin meet" x="1205.5" y="-544.5"/>
<text text-anchor="start" x="1149.5" y="-454.3" font-family="Times New Roman,serif" font-size="24.00">create a response button</text>
</g>
<!-- EAID_9CA2F371_BCAB_4038_9940_DD582C4AE748&#45;&gt;EAID_16BB2239_1D10_46f2_BE84_059BBEBDAD80 -->
<g id="edge1" class="edge"><title>EAID_9CA2F371_BCAB_4038_9940_DD582C4AE748&#45;&gt;EAID_16BB2239_1D10_46f2_BE84_059BBEBDAD80</title>
<path fill="none" stroke="black" d="M558.56,-432.253C665.563,-442.033 956.589,-468.632 1128.78,-484.37"/>
<polygon fill="black" stroke="black" points="1128.65,-487.873 1138.93,-485.297 1129.29,-480.902 1128.65,-487.873"/>
</g>
<!-- EAID_72FA9292_34A9_403e_9CB5_5BA450CE4BA4 -->
<g id="node3" class="node"><title>EAID_72FA9292_34A9_403e_9CB5_5BA450CE4BA4</title>
<image xlink:href="img/boundary3.png" width="115px" height="67px" preserveAspectRatio="xMinYMin meet" x="2263.5" y="-483.5"/>
<text text-anchor="start" x="2215.5" y="-393.3" font-family="Times New Roman,serif" font-size="24.00">create a response page</text>
</g>
<!-- EAID_9CA2F371_BCAB_4038_9940_DD582C4AE748&#45;&gt;EAID_72FA9292_34A9_403e_9CB5_5BA450CE4BA4 -->
<g id="edge2" class="edge"><title>EAID_9CA2F371_BCAB_4038_9940_DD582C4AE748&#45;&gt;EAID_72FA9292_34A9_403e_9CB5_5BA450CE4BA4</title>
<path fill="none" stroke="black" d="M558.671,-428.334C744.891,-427.64 1527.15,-425.326 2169,-432.5 2177.36,-432.593 2185.98,-432.71 2194.66,-432.843"/>
<polygon fill="black" stroke="black" points="2194.82,-436.346 2204.87,-433.007 2194.93,-429.347 2194.82,-436.346"/>
</g>
<!-- EAID_BDED0E85_4AF5_4aea_8226_EE23FC56025C -->
<g id="node4" class="node"><title>EAID_BDED0E85_4AF5_4aea_8226_EE23FC56025C</title>
<image xlink:href="img/boundary3.png" width="115px" height="67px" preserveAspectRatio="xMinYMin meet" x="744.5" y="-389.5"/>
<text text-anchor="start" x="701.5" y="-299.3" font-family="Times New Roman,serif" font-size="24.00">load questions button</text>
</g>
<!-- EAID_9CA2F371_BCAB_4038_9940_DD582C4AE748&#45;&gt;EAID_BDED0E85_4AF5_4aea_8226_EE23FC56025C -->
<g id="edge3" class="edge"><title>EAID_9CA2F371_BCAB_4038_9940_DD582C4AE748&#45;&gt;EAID_BDED0E85_4AF5_4aea_8226_EE23FC56025C</title>
<path fill="none" stroke="black" d="M558.651,-415.849C590.928,-405.927 637.558,-391.592 681.278,-378.151"/>
<polygon fill="black" stroke="black" points="682.317,-381.493 690.848,-375.209 680.26,-374.802 682.317,-381.493"/>
</g>
<!-- EAID_A06866F6_B65D_4b39_991B_FC2A4865167D -->
<g id="node12" class="node"><title>EAID_A06866F6_B65D_4b39_991B_FC2A4865167D</title>
<image xlink:href="img/control1.png" width="106px" height="75px" preserveAspectRatio="xMinYMin meet" x="1572" y="-595.5"/>
<text text-anchor="start" x="1432" y="-497.3" font-family="Times New Roman,serif" font-size="24.00">check if the question is already answered</text>
</g>
<!-- EAID_16BB2239_1D10_46f2_BE84_059BBEBDAD80&#45;&gt;EAID_A06866F6_B65D_4b39_991B_FC2A4865167D -->
<g id="edge14" class="edge"><title>EAID_16BB2239_1D10_46f2_BE84_059BBEBDAD80&#45;&gt;EAID_A06866F6_B65D_4b39_991B_FC2A4865167D</title>
<path fill="none" stroke="black" d="M1386.05,-512.478C1394.41,-513.568 1402.96,-514.682 1411.61,-515.81"/>
<polygon fill="black" stroke="black" points="1411.44,-519.317 1421.81,-517.139 1412.34,-512.376 1411.44,-519.317"/>
</g>
<!-- EAID_0D9B84BD_7C63_4f5e_BE32_0AFDD9415594 -->
<g id="node16" class="node"><title>EAID_0D9B84BD_7C63_4f5e_BE32_0AFDD9415594</title>
<image xlink:href="img/control1.png" width="106px" height="75px" preserveAspectRatio="xMinYMin meet" x="2538" y="-509.5"/>
<text text-anchor="start" x="2482.5" y="-411.3" font-family="Times New Roman,serif" font-size="24.00">save the response to db</text>
</g>
<!-- EAID_72FA9292_34A9_403e_9CB5_5BA450CE4BA4&#45;&gt;EAID_0D9B84BD_7C63_4f5e_BE32_0AFDD9415594 -->
<g id="edge16" class="edge"><title>EAID_72FA9292_34A9_403e_9CB5_5BA450CE4BA4&#45;&gt;EAID_0D9B84BD_7C63_4f5e_BE32_0AFDD9415594</title>
<path fill="none" stroke="black" d="M2436.32,-444.926C2444.8,-445.621 2453.38,-446.326 2461.92,-447.027"/>
<polygon fill="black" stroke="black" points="2461.68,-450.519 2471.93,-447.849 2462.25,-443.542 2461.68,-450.519"/>
</g>
<!-- EAID_4020678C_7F43_4bd5_A6FA_BDE1BC28F927 -->
<g id="node15" class="node"><title>EAID_4020678C_7F43_4bd5_A6FA_BDE1BC28F927</title>
<image xlink:href="img/control1.png" width="106px" height="75px" preserveAspectRatio="xMinYMin meet" x="973" y="-393.5"/>
<text text-anchor="start" x="958.5" y="-295.3" font-family="Times New Roman,serif" font-size="24.00">load questions</text>
</g>
<!-- EAID_BDED0E85_4AF5_4aea_8226_EE23FC56025C&#45;&gt;EAID_4020678C_7F43_4bd5_A6FA_BDE1BC28F927 -->
<g id="edge20" class="edge"><title>EAID_BDED0E85_4AF5_4aea_8226_EE23FC56025C&#45;&gt;EAID_4020678C_7F43_4bd5_A6FA_BDE1BC28F927</title>
<path fill="none" stroke="black" d="M912.199,-341.5C920.742,-341.5 929.295,-341.5 937.656,-341.5"/>
<polygon fill="black" stroke="black" points="937.746,-345 947.746,-341.5 937.746,-338 937.746,-345"/>
</g>
<!-- EAID_76E82C76_CBBD_4d5b_8BC5_534F14F642CE -->
<g id="node5" class="node"><title>EAID_76E82C76_CBBD_4d5b_8BC5_534F14F642CE</title>
<image xlink:href="img/actor1.png" width="61px" height="90px" preserveAspectRatio="xMinYMin meet" x="486.5" y="-314.5"/>
<text text-anchor="start" x="488" y="-201.3" font-family="Times New Roman,serif" font-size="24.00">Client</text>
</g>
<!-- EAID_76E82C76_CBBD_4d5b_8BC5_534F14F642CE&#45;&gt;EAID_16BB2239_1D10_46f2_BE84_059BBEBDAD80 -->
<g id="edge5" class="edge"><title>EAID_76E82C76_CBBD_4d5b_8BC5_534F14F642CE&#45;&gt;EAID_16BB2239_1D10_46f2_BE84_059BBEBDAD80</title>
<path fill="none" stroke="black" d="M557.342,-250.244C674.634,-238.555 1015.92,-210.814 1103,-273.5 1140.32,-300.365 1114.44,-331.621 1139,-370.5 1153.45,-393.373 1172.58,-415.517 1191.43,-434.694"/>
<polygon fill="black" stroke="black" points="1189.08,-437.296 1198.62,-441.894 1194.03,-432.347 1189.08,-437.296"/>
</g>
<!-- EAID_76E82C76_CBBD_4d5b_8BC5_534F14F642CE&#45;&gt;EAID_72FA9292_34A9_403e_9CB5_5BA450CE4BA4 -->
<g id="edge4" class="edge"><title>EAID_76E82C76_CBBD_4d5b_8BC5_534F14F642CE&#45;&gt;EAID_72FA9292_34A9_403e_9CB5_5BA450CE4BA4</title>
<path fill="none" stroke="black" d="M557.345,-247.886C592.431,-242.325 644.965,-234.641 691,-230.5 838.756,-217.21 876.147,-216.5 1024.5,-216.5 1024.5,-216.5 1024.5,-216.5 1626,-216.5 1839.06,-216.5 2072.56,-311.657 2206.98,-376.521"/>
<polygon fill="black" stroke="black" points="2205.57,-379.724 2216.09,-380.943 2208.62,-373.427 2205.57,-379.724"/>
</g>
<!-- EAID_76E82C76_CBBD_4d5b_8BC5_534F14F642CE&#45;&gt;EAID_BDED0E85_4AF5_4aea_8226_EE23FC56025C -->
<g id="edge6" class="edge"><title>EAID_76E82C76_CBBD_4d5b_8BC5_534F14F642CE&#45;&gt;EAID_BDED0E85_4AF5_4aea_8226_EE23FC56025C</title>
<path fill="none" stroke="black" d="M557.148,-266.689C589.46,-276.622 636.847,-291.19 681.239,-304.837"/>
<polygon fill="black" stroke="black" points="680.368,-308.231 690.955,-307.824 682.425,-301.54 680.368,-308.231"/>
</g>
<!-- EAID_2D363BE8_8422_4464_994D_D43297A936E9 -->
<g id="node6" class="node"><title>EAID_2D363BE8_8422_4464_994D_D43297A936E9</title>
<image xlink:href="img/actor1.png" width="61px" height="90px" preserveAspectRatio="xMinYMin meet" x="10.5" y="-162.5"/>
<text text-anchor="start" x="19" y="-49.3" font-family="Times New Roman,serif" font-size="24.00">User</text>
</g>
<!-- EAID_DA77CD05_3975_4c20_BD61_B74441EEE4A4 -->
<g id="node7" class="node"><title>EAID_DA77CD05_3975_4c20_BD61_B74441EEE4A4</title>
<image xlink:href="img/boundary3.png" width="115px" height="67px" preserveAspectRatio="xMinYMin meet" x="744" y="-177.5"/>
<text text-anchor="start" x="736.5" y="-87.3" font-family="Times New Roman,serif" font-size="24.00">question form</text>
</g>
<!-- EAID_2D363BE8_8422_4464_994D_D43297A936E9&#45;&gt;EAID_DA77CD05_3975_4c20_BD61_B74441EEE4A4 -->
<g id="edge7" class="edge"><title>EAID_2D363BE8_8422_4464_994D_D43297A936E9&#45;&gt;EAID_DA77CD05_3975_4c20_BD61_B74441EEE4A4</title>
<path fill="none" stroke="black" d="M81.0522,-115.603C92.5184,-118.825 105.145,-121.829 117,-123.5 331.086,-153.677 586.637,-143.94 716.2,-135.817"/>
<polygon fill="black" stroke="black" points="716.69,-139.293 726.446,-135.161 716.243,-132.307 716.69,-139.293"/>
</g>
<!-- EAID_B10F9A5C_161E_4984_A272_B9ED1D867E22 -->
<g id="node8" class="node"><title>EAID_B10F9A5C_161E_4984_A272_B9ED1D867E22</title>
<image xlink:href="img/boundary3.png" width="115px" height="67px" preserveAspectRatio="xMinYMin meet" x="172.5" y="-108.5"/>
<text text-anchor="start" x="127.5" y="-18.3" font-family="Times New Roman,serif" font-size="24.00">Ask a question button</text>
</g>
<!-- EAID_2D363BE8_8422_4464_994D_D43297A936E9&#45;&gt;EAID_B10F9A5C_161E_4984_A272_B9ED1D867E22 -->
<g id="edge8" class="edge"><title>EAID_2D363BE8_8422_4464_994D_D43297A936E9&#45;&gt;EAID_B10F9A5C_161E_4984_A272_B9ED1D867E22</title>
<path fill="none" stroke="black" d="M81.1579,-93.5929C89.0312,-91.8245 97.6772,-89.8827 106.712,-87.8534"/>
<polygon fill="black" stroke="black" points="107.661,-91.2276 116.651,-85.6212 106.127,-84.3978 107.661,-91.2276"/>
</g>
<!-- EAID_7161A7D4_132D_491f_B75F_FC1595039924 -->
<g id="node18" class="node"><title>EAID_7161A7D4_132D_491f_B75F_FC1595039924</title>
<image xlink:href="img/control1.png" width="106px" height="75px" preserveAspectRatio="xMinYMin meet" x="972.5" y="-181.5"/>
<text text-anchor="start" x="958.5" y="-83.3" font-family="Times New Roman,serif" font-size="24.00">save questions</text>
</g>
<!-- EAID_DA77CD05_3975_4c20_BD61_B74441EEE4A4&#45;&gt;EAID_7161A7D4_132D_491f_B75F_FC1595039924 -->
<g id="edge21" class="edge"><title>EAID_DA77CD05_3975_4c20_BD61_B74441EEE4A4&#45;&gt;EAID_7161A7D4_132D_491f_B75F_FC1595039924</title>
<path fill="none" stroke="black" d="M876.731,-129.5C896.464,-129.5 917.945,-129.5 938.26,-129.5"/>
<polygon fill="black" stroke="black" points="938.443,-133 948.443,-129.5 938.443,-126 938.443,-133"/>
</g>
<!-- EAID_A8B9D1CF_F3FA_4c32_B06A_50FC0CBEB665 -->
<g id="node9" class="node"><title>EAID_A8B9D1CF_F3FA_4c32_B06A_50FC0CBEB665</title>
<image xlink:href="img/control1.png" width="106px" height="75px" preserveAspectRatio="xMinYMin meet" x="464" y="-110.5"/>
<text text-anchor="start" x="388.5" y="-12.3" font-family="Times New Roman,serif" font-size="24.00">display ask a question form</text>
</g>
<!-- EAID_B10F9A5C_161E_4984_A272_B9ED1D867E22&#45;&gt;EAID_A8B9D1CF_F3FA_4c32_B06A_50FC0CBEB665 -->
<g id="edge9" class="edge"><title>EAID_B10F9A5C_161E_4984_A272_B9ED1D867E22&#45;&gt;EAID_A8B9D1CF_F3FA_4c32_B06A_50FC0CBEB665</title>
<path fill="none" stroke="black" d="M342.322,-59.7153C350.728,-59.6563 359.284,-59.5963 367.865,-59.536"/>
<polygon fill="black" stroke="black" points="367.967,-63.0355 377.942,-59.4653 367.918,-56.0357 367.967,-63.0355"/>
</g>
<!-- EAID_A8B9D1CF_F3FA_4c32_B06A_50FC0CBEB665&#45;&gt;EAID_DA77CD05_3975_4c20_BD61_B74441EEE4A4 -->
<g id="edge18" class="edge"><title>EAID_A8B9D1CF_F3FA_4c32_B06A_50FC0CBEB665&#45;&gt;EAID_DA77CD05_3975_4c20_BD61_B74441EEE4A4</title>
<path fill="none" stroke="black" d="M655.269,-93.0641C676.098,-98.2896 697.034,-103.542 716.271,-108.368"/>
<polygon fill="black" stroke="black" points="715.616,-111.812 726.167,-110.851 717.319,-105.023 715.616,-111.812"/>
</g>
<!-- EAID_40BBD64B_D41F_4075_A801_4D4810F326DA -->
<g id="node10" class="node"><title>EAID_40BBD64B_D41F_4075_A801_4D4810F326DA</title>
<image xlink:href="img/control1.png" width="106px" height="75px" preserveAspectRatio="xMinYMin meet" x="1964" y="-726.5"/>
<text text-anchor="start" x="1935.5" y="-628.3" font-family="Times New Roman,serif" font-size="24.00">Send notification</text>
</g>
<!-- EAID_1A9F24C8_D0EB_4fae_8FE8_24F2D4E6F5C5 -->
<g id="node11" class="node"><title>EAID_1A9F24C8_D0EB_4fae_8FE8_24F2D4E6F5C5</title>
<image xlink:href="img/activity_icon.png" width="30px" height="20px" preserveAspectRatio="xMinYMin meet" x="2305.5" y="-699.5"/>
<text text-anchor="start" x="2260.5" y="-657.3" font-family="Times New Roman,serif" font-weight="bold" font-size="24.00">notification</text>
</g>
<!-- EAID_40BBD64B_D41F_4075_A801_4D4810F326DA&#45;&gt;EAID_1A9F24C8_D0EB_4fae_8FE8_24F2D4E6F5C5 -->
<g id="edge10" class="edge"><title>EAID_40BBD64B_D41F_4075_A801_4D4810F326DA&#45;&gt;EAID_1A9F24C8_D0EB_4fae_8FE8_24F2D4E6F5C5</title>
<path fill="none" stroke="black" d="M2108.11,-674.5C2150.07,-674.5 2199.49,-674.5 2239.99,-674.5"/>
<polygon fill="black" stroke="black" points="2240.08,-678 2250.08,-674.5 2240.08,-671 2240.08,-678"/>
</g>
<!-- EAID_A06866F6_B65D_4b39_991B_FC2A4865167D&#45;&gt;EAID_40BBD64B_D41F_4075_A801_4D4810F326DA -->
<g id="edge11" class="edge"><title>EAID_A06866F6_B65D_4b39_991B_FC2A4865167D&#45;&gt;EAID_40BBD64B_D41F_4075_A801_4D4810F326DA</title>
<path fill="none" stroke="black" d="M1799.96,-602.008C1839.33,-615.25 1879.85,-628.878 1914.98,-640.694"/>
<polygon fill="black" stroke="black" points="1914.15,-644.106 1924.74,-643.976 1916.38,-637.471 1914.15,-644.106"/>
</g>
<!-- EAID_B83C0959_8B78_40ff_8BD2_6EF5248F8EEB -->
<g id="node13" class="node"><title>EAID_B83C0959_8B78_40ff_8BD2_6EF5248F8EEB</title>
<image xlink:href="img/activity_icon.png" width="30px" height="20px" preserveAspectRatio="xMinYMin meet" x="2785" y="-547.5"/>
<text text-anchor="start" x="2755.5" y="-505.3" font-family="Times New Roman,serif" font-weight="bold" font-size="24.00">response</text>
</g>
<!-- EAID_A06866F6_B65D_4b39_991B_FC2A4865167D&#45;&gt;EAID_B83C0959_8B78_40ff_8BD2_6EF5248F8EEB -->
<g id="edge12" class="edge"><title>EAID_A06866F6_B65D_4b39_991B_FC2A4865167D&#45;&gt;EAID_B83C0959_8B78_40ff_8BD2_6EF5248F8EEB</title>
<path fill="none" stroke="black" d="M1828.12,-565.289C1840.25,-566.159 1852.28,-566.911 1864,-567.5 2191.47,-583.969 2583.55,-546.486 2734.73,-529.896"/>
<polygon fill="black" stroke="black" points="2735.21,-533.364 2744.77,-528.786 2734.44,-526.407 2735.21,-533.364"/>
</g>
<!-- EAID_A1DFBAE7_CF5A_4997_A2C0_2AC129B05AFA -->
<g id="node14" class="node"><title>EAID_A1DFBAE7_CF5A_4997_A2C0_2AC129B05AFA</title>
<image xlink:href="img/control1.png" width="106px" height="75px" preserveAspectRatio="xMinYMin meet" x="1964" y="-552.5"/>
<text text-anchor="start" x="1874.5" y="-454.3" font-family="Times New Roman,serif" font-size="24.00">display create a response page</text>
</g>
<!-- EAID_A06866F6_B65D_4b39_991B_FC2A4865167D&#45;&gt;EAID_A1DFBAE7_CF5A_4997_A2C0_2AC129B05AFA -->
<g id="edge13" class="edge"><title>EAID_A06866F6_B65D_4b39_991B_FC2A4865167D&#45;&gt;EAID_A1DFBAE7_CF5A_4997_A2C0_2AC129B05AFA</title>
<path fill="none" stroke="black" d="M1828.17,-521.181C1836.82,-520.226 1845.45,-519.273 1854,-518.329"/>
<polygon fill="black" stroke="black" points="1854.43,-521.803 1863.99,-517.227 1853.67,-514.845 1854.43,-521.803"/>
</g>
<!-- EAID_A1DFBAE7_CF5A_4997_A2C0_2AC129B05AFA&#45;&gt;EAID_72FA9292_34A9_403e_9CB5_5BA450CE4BA4 -->
<g id="edge17" class="edge"><title>EAID_A1DFBAE7_CF5A_4997_A2C0_2AC129B05AFA&#45;&gt;EAID_72FA9292_34A9_403e_9CB5_5BA450CE4BA4</title>
<path fill="none" stroke="black" d="M2169.38,-467.81C2177.94,-465.969 2186.48,-464.129 2194.92,-462.314"/>
<polygon fill="black" stroke="black" points="2195.72,-465.722 2204.76,-460.196 2194.25,-458.878 2195.72,-465.722"/>
</g>
<!-- EAID_4020678C_7F43_4bd5_A6FA_BDE1BC28F927&#45;&gt;EAID_16BB2239_1D10_46f2_BE84_059BBEBDAD80 -->
<g id="edge15" class="edge"><title>EAID_4020678C_7F43_4bd5_A6FA_BDE1BC28F927&#45;&gt;EAID_16BB2239_1D10_46f2_BE84_059BBEBDAD80</title>
<path fill="none" stroke="black" d="M1103.12,-392.038C1124.5,-406.139 1147.94,-421.6 1170.08,-436.202"/>
<polygon fill="black" stroke="black" points="1168.22,-439.168 1178.5,-441.752 1172.07,-433.325 1168.22,-439.168"/>
</g>
<!-- EAID_6832E855_806E_4af2_BF66_D215EFF91526 -->
<g id="node17" class="node"><title>EAID_6832E855_806E_4af2_BF66_D215EFF91526</title>
<image xlink:href="img/activity_icon.png" width="30px" height="20px" preserveAspectRatio="xMinYMin meet" x="1248" y="-355.5"/>
<text text-anchor="start" x="1214.5" y="-313.3" font-family="Times New Roman,serif" font-weight="bold" font-size="24.00">questions</text>
</g>
<!-- EAID_4020678C_7F43_4bd5_A6FA_BDE1BC28F927&#45;&gt;EAID_6832E855_806E_4af2_BF66_D215EFF91526 -->
<g id="edge19" class="edge"><title>EAID_4020678C_7F43_4bd5_A6FA_BDE1BC28F927&#45;&gt;EAID_6832E855_806E_4af2_BF66_D215EFF91526</title>
<path fill="none" stroke="black" d="M1103.12,-337.913C1132.35,-336.545 1165.43,-334.997 1193.77,-333.67"/>
<polygon fill="black" stroke="black" points="1194.16,-337.156 1203.98,-333.192 1193.83,-330.164 1194.16,-337.156"/>
</g>
<!-- EAID_0D9B84BD_7C63_4f5e_BE32_0AFDD9415594&#45;&gt;EAID_B83C0959_8B78_40ff_8BD2_6EF5248F8EEB -->
<g id="edge23" class="edge"><title>EAID_0D9B84BD_7C63_4f5e_BE32_0AFDD9415594&#45;&gt;EAID_B83C0959_8B78_40ff_8BD2_6EF5248F8EEB</title>
<path fill="none" stroke="black" d="M2709.21,-494.463C2718.11,-497.256 2726.86,-500.005 2735.21,-502.625"/>
<polygon fill="black" stroke="black" points="2734.2,-505.979 2744.79,-505.635 2736.3,-499.3 2734.2,-505.979"/>
</g>
<!-- EAID_7161A7D4_132D_491f_B75F_FC1595039924&#45;&gt;EAID_6832E855_806E_4af2_BF66_D215EFF91526 -->
<g id="edge22" class="edge"><title>EAID_7161A7D4_132D_491f_B75F_FC1595039924&#45;&gt;EAID_6832E855_806E_4af2_BF66_D215EFF91526</title>
<path fill="none" stroke="black" d="M1095.1,-188.178C1134.49,-221.862 1182.79,-263.175 1217.18,-292.596"/>
<polygon fill="black" stroke="black" points="1215.3,-295.593 1225.18,-299.433 1219.85,-290.273 1215.3,-295.593"/>
</g>
</g>
</svg>
