<?xml version="1.0" encoding="UTF-8" standalone="no"?>
<!DOCTYPE svg PUBLIC "-//W3C//DTD SVG 1.1//EN"
 "http://www.w3.org/Graphics/SVG/1.1/DTD/svg11.dtd">
<!-- Generated by graphviz version 2.38.0 (20140413.2041)
 -->
<!-- Title: g Pages: 1 -->
<svg width="604pt" height="908pt"
 viewBox="0.00 0.00 603.89 908.00" xmlns="http://www.w3.org/2000/svg" xmlns:xlink="http://www.w3.org/1999/xlink">
<g id="graph0" class="graph" transform="scale(1 1) rotate(0) translate(4 904)">
<title>g</title>
<polygon fill="white" stroke="none" points="-4,4 -4,-904 599.887,-904 599.887,4 -4,4"/>
<!-- Actor -->
<g id="node1" class="node"><title>Actor</title>
<ellipse fill="none" stroke="black" cx="159.594" cy="-882" rx="31.6951" ry="18"/>
<text text-anchor="middle" x="159.594" y="-878.3" font-family="Times New Roman,serif" font-size="14.00">Actor</text>
</g>
<!-- upload choice -->
<g id="node2" class="node"><title>upload choice</title>
<ellipse fill="none" stroke="black" cx="222.594" cy="-810" rx="61.99" ry="18"/>
<text text-anchor="middle" x="222.594" y="-806.3" font-family="Times New Roman,serif" font-size="14.00">upload choice</text>
</g>
<!-- Actor&#45;&gt;upload choice -->
<g id="edge1" class="edge"><title>Actor&#45;&gt;upload choice</title>
<path fill="none" stroke="black" d="M173.576,-865.465C181.47,-856.693 191.518,-845.529 200.458,-835.596"/>
<polygon fill="black" stroke="black" points="203.24,-837.736 207.328,-827.962 198.037,-833.053 203.24,-837.736"/>
</g>
<!-- Search Result Page -->
<g id="node3" class="node"><title>Search Result Page</title>
<ellipse fill="none" stroke="black" cx="203.594" cy="-450" rx="81.4863" ry="18"/>
<text text-anchor="middle" x="203.594" y="-446.3" font-family="Times New Roman,serif" font-size="14.00">Search Result Page</text>
</g>
<!-- Actor&#45;&gt;Search Result Page -->
<g id="edge2" class="edge"><title>Actor&#45;&gt;Search Result Page</title>
<path fill="none" stroke="black" d="M154.26,-864.148C146.391,-837.753 132.594,-784.923 132.594,-739 132.594,-739 132.594,-739 132.594,-593 132.594,-548.232 161.174,-503.111 182.069,-476.105"/>
<polygon fill="black" stroke="black" points="185.037,-477.997 188.537,-467.997 179.565,-473.632 185.037,-477.997"/>
</g>
<!-- confirm -->
<g id="node4" class="node"><title>confirm</title>
<ellipse fill="none" stroke="black" cx="144.594" cy="-306" rx="38.9931" ry="18"/>
<text text-anchor="middle" x="144.594" y="-302.3" font-family="Times New Roman,serif" font-size="14.00">confirm</text>
</g>
<!-- Actor&#45;&gt;confirm -->
<g id="edge3" class="edge"><title>Actor&#45;&gt;confirm</title>
<path fill="none" stroke="black" d="M146.752,-865.049C127.809,-839.859 94.594,-788.616 94.594,-739 94.594,-739 94.594,-739 94.594,-449 94.594,-406.449 114.816,-360.588 129.539,-332.837"/>
<polygon fill="black" stroke="black" points="132.748,-334.265 134.476,-323.812 126.606,-330.906 132.748,-334.265"/>
</g>
<!-- Search Event -->
<g id="node5" class="node"><title>Search Event</title>
<ellipse fill="none" stroke="black" cx="360.594" cy="-810" rx="58.4896" ry="18"/>
<text text-anchor="middle" x="360.594" y="-806.3" font-family="Times New Roman,serif" font-size="14.00">Search Event</text>
</g>
<!-- Actor&#45;&gt;Search Event -->
<g id="edge4" class="edge"><title>Actor&#45;&gt;Search Event</title>
<path fill="none" stroke="black" d="M186.285,-871.705C218.743,-860.401 274.091,-841.126 313.714,-827.326"/>
<polygon fill="black" stroke="black" points="314.881,-830.626 323.173,-824.032 312.578,-824.016 314.881,-830.626"/>
</g>
<!-- Select an event -->
<g id="node11" class="node"><title>Select an event</title>
<ellipse fill="none" stroke="black" cx="195.594" cy="-378" rx="64.9885" ry="18"/>
<text text-anchor="middle" x="195.594" y="-374.3" font-family="Times New Roman,serif" font-size="14.00">Select an event</text>
</g>
<!-- Search Result Page&#45;&gt;Select an event -->
<g id="edge18" class="edge"><title>Search Result Page&#45;&gt;Select an event</title>
<path fill="none" stroke="black" d="M201.616,-431.697C200.735,-423.983 199.675,-414.712 198.693,-406.112"/>
<polygon fill="black" stroke="black" points="202.162,-405.642 197.549,-396.104 195.207,-406.437 202.162,-405.642"/>
</g>
<!-- confirm upload -->
<g id="node10" class="node"><title>confirm upload</title>
<ellipse fill="none" stroke="black" cx="144.594" cy="-234" rx="66.0889" ry="18"/>
<text text-anchor="middle" x="144.594" y="-230.3" font-family="Times New Roman,serif" font-size="14.00">confirm upload</text>
</g>
<!-- confirm&#45;&gt;confirm upload -->
<g id="edge17" class="edge"><title>confirm&#45;&gt;confirm upload</title>
<path fill="none" stroke="black" d="M144.594,-287.697C144.594,-279.983 144.594,-270.712 144.594,-262.112"/>
<polygon fill="black" stroke="black" points="148.094,-262.104 144.594,-252.104 141.094,-262.104 148.094,-262.104"/>
</g>
<!-- enter search item and search -->
<g id="node13" class="node"><title>enter search item and search</title>
<ellipse fill="none" stroke="black" cx="364.594" cy="-738" rx="113.18" ry="18"/>
<text text-anchor="middle" x="364.594" y="-734.3" font-family="Times New Roman,serif" font-size="14.00">enter search item and search</text>
</g>
<!-- Search Event&#45;&gt;enter search item and search -->
<g id="edge12" class="edge"><title>Search Event&#45;&gt;enter search item and search</title>
<path fill="none" stroke="black" d="M361.583,-791.697C362.024,-783.983 362.553,-774.712 363.045,-766.112"/>
<polygon fill="black" stroke="black" points="366.54,-766.288 363.617,-756.104 359.552,-765.888 366.54,-766.288"/>
</g>
<!-- failed to upload -->
<g id="node6" class="node"><title>failed to upload</title>
<ellipse fill="none" stroke="black" cx="67.594" cy="-90" rx="67.6881" ry="18"/>
<text text-anchor="middle" x="67.594" y="-86.3" font-family="Times New Roman,serif" font-size="14.00">failed to upload</text>
</g>
<!-- result -->
<g id="node7" class="node"><title>result</title>
<ellipse fill="none" stroke="black" cx="144.594" cy="-18" rx="30.5947" ry="18"/>
<text text-anchor="middle" x="144.594" y="-14.3" font-family="Times New Roman,serif" font-size="14.00">result</text>
</g>
<!-- failed to upload&#45;&gt;result -->
<g id="edge5" class="edge"><title>failed to upload&#45;&gt;result</title>
<path fill="none" stroke="black" d="M85.8419,-72.411C96.393,-62.8191 109.781,-50.6481 121.111,-40.3479"/>
<polygon fill="black" stroke="black" points="123.521,-42.887 128.566,-33.5705 118.813,-37.7074 123.521,-42.887"/>
</g>
<!-- Upload finished -->
<g id="node8" class="node"><title>Upload finished</title>
<ellipse fill="none" stroke="black" cx="221.594" cy="-90" rx="68.4888" ry="18"/>
<text text-anchor="middle" x="221.594" y="-86.3" font-family="Times New Roman,serif" font-size="14.00">Upload finished</text>
</g>
<!-- Upload finished&#45;&gt;result -->
<g id="edge6" class="edge"><title>Upload finished&#45;&gt;result</title>
<path fill="none" stroke="black" d="M203.346,-72.411C192.795,-62.8191 179.407,-50.6481 168.077,-40.3479"/>
<polygon fill="black" stroke="black" points="170.375,-37.7074 160.622,-33.5705 165.667,-42.887 170.375,-37.7074"/>
</g>
<!-- Photos in the event -->
<g id="node9" class="node"><title>Photos in the event</title>
<ellipse fill="none" stroke="black" cx="144.594" cy="-162" rx="79.8859" ry="18"/>
<text text-anchor="middle" x="144.594" y="-158.3" font-family="Times New Roman,serif" font-size="14.00">Photos in the event</text>
</g>
<!-- Photos in the event&#45;&gt;failed to upload -->
<g id="edge8" class="edge"><title>Photos in the event&#45;&gt;failed to upload</title>
<path fill="none" stroke="black" d="M126.346,-144.411C116.469,-135.432 104.106,-124.193 93.272,-114.344"/>
<polygon fill="black" stroke="black" points="95.4647,-111.607 85.7109,-107.47 90.756,-116.787 95.4647,-111.607"/>
</g>
<!-- Photos in the event&#45;&gt;Upload finished -->
<g id="edge7" class="edge"><title>Photos in the event&#45;&gt;Upload finished</title>
<path fill="none" stroke="black" d="M162.842,-144.411C172.719,-135.432 185.082,-124.193 195.916,-114.344"/>
<polygon fill="black" stroke="black" points="198.432,-116.787 203.477,-107.47 193.723,-111.607 198.432,-116.787"/>
</g>
<!-- confirm upload&#45;&gt;Photos in the event -->
<g id="edge9" class="edge"><title>confirm upload&#45;&gt;Photos in the event</title>
<path fill="none" stroke="black" d="M144.594,-215.697C144.594,-207.983 144.594,-198.712 144.594,-190.112"/>
<polygon fill="black" stroke="black" points="148.094,-190.104 144.594,-180.104 141.094,-190.104 148.094,-190.104"/>
</g>
<!-- Select an event&#45;&gt;confirm -->
<g id="edge10" class="edge"><title>Select an event&#45;&gt;confirm</title>
<path fill="none" stroke="black" d="M183.248,-360.055C177.019,-351.505 169.347,-340.975 162.485,-331.556"/>
<polygon fill="black" stroke="black" points="165.192,-329.328 156.475,-323.307 159.535,-333.45 165.192,-329.328"/>
</g>
<!-- prepare resullt -->
<g id="node12" class="node"><title>prepare resullt</title>
<ellipse fill="none" stroke="black" cx="258.594" cy="-522" rx="61.99" ry="18"/>
<text text-anchor="middle" x="258.594" y="-518.3" font-family="Times New Roman,serif" font-size="14.00">prepare resullt</text>
</g>
<!-- prepare resullt&#45;&gt;Search Result Page -->
<g id="edge11" class="edge"><title>prepare resullt&#45;&gt;Search Result Page</title>
<path fill="none" stroke="black" d="M245.28,-504.055C238.592,-495.543 230.362,-485.068 222.987,-475.681"/>
<polygon fill="black" stroke="black" points="225.716,-473.49 216.785,-467.789 220.211,-477.815 225.716,-473.49"/>
</g>
<!-- Search(back&#45;end) -->
<g id="node14" class="node"><title>Search(back&#45;end)</title>
<ellipse fill="none" stroke="black" cx="364.594" cy="-666" rx="75.2868" ry="18"/>
<text text-anchor="middle" x="364.594" y="-662.3" font-family="Times New Roman,serif" font-size="14.00">Search(back&#45;end)</text>
</g>
<!-- enter search item and search&#45;&gt;Search(back&#45;end) -->
<g id="edge19" class="edge"><title>enter search item and search&#45;&gt;Search(back&#45;end)</title>
<path fill="none" stroke="black" d="M364.594,-719.697C364.594,-711.983 364.594,-702.712 364.594,-694.112"/>
<polygon fill="black" stroke="black" points="368.094,-694.104 364.594,-684.104 361.094,-694.104 368.094,-694.104"/>
</g>
<!-- Event Collection -->
<g id="node15" class="node"><title>Event Collection</title>
<ellipse fill="none" stroke="black" cx="295.594" cy="-594" rx="70.6878" ry="18"/>
<text text-anchor="middle" x="295.594" y="-590.3" font-family="Times New Roman,serif" font-size="14.00">Event Collection</text>
</g>
<!-- Search(back&#45;end)&#45;&gt;Event Collection -->
<g id="edge13" class="edge"><title>Search(back&#45;end)&#45;&gt;Event Collection</title>
<path fill="none" stroke="black" d="M348.242,-648.411C339.689,-639.734 329.055,-628.946 319.588,-619.342"/>
<polygon fill="black" stroke="black" points="321.821,-616.621 312.308,-611.956 316.835,-621.535 321.821,-616.621"/>
</g>
<!-- Event Collection&#45;&gt;prepare resullt -->
<g id="edge14" class="edge"><title>Event Collection&#45;&gt;prepare resullt</title>
<path fill="none" stroke="black" d="M286.637,-576.055C282.383,-568.007 277.202,-558.205 272.456,-549.226"/>
<polygon fill="black" stroke="black" points="275.493,-547.481 267.725,-540.275 269.304,-550.752 275.493,-547.481"/>
</g>
<!-- can&#39;t access server -->
<g id="node16" class="node"><title>can&#39;t access server</title>
<ellipse fill="none" stroke="black" cx="516.594" cy="-810" rx="79.0865" ry="18"/>
<text text-anchor="middle" x="516.594" y="-806.3" font-family="Times New Roman,serif" font-size="14.00">can&#39;t access server</text>
</g>
<!-- can&#39;t access server&#45;&gt;enter search item and search -->
<g id="edge15" class="edge"><title>can&#39;t access server&#45;&gt;enter search item and search</title>
<path fill="none" stroke="black" d="M483.237,-793.638C461.404,-783.583 432.629,-770.332 408.885,-759.397"/>
<polygon fill="black" stroke="black" points="410.27,-756.182 399.723,-755.178 407.342,-762.54 410.27,-756.182"/>
</g>
<!-- can&#39;t access server&#45;&gt;Search(back&#45;end) -->
<g id="edge16" class="edge"><title>can&#39;t access server&#45;&gt;Search(back&#45;end)</title>
<path fill="none" stroke="black" d="M514.966,-791.831C512.255,-772.198 505.127,-740.173 486.594,-720 470.535,-702.52 447.704,-690.532 426.127,-682.445"/>
<polygon fill="black" stroke="black" points="427.252,-679.13 416.657,-679.105 424.924,-685.732 427.252,-679.13"/>
</g>
<!-- search &amp; upload -->
<g id="node17" class="node"><title>search &amp; upload</title>
<ellipse fill="none" stroke="black" cx="333.594" cy="-882" rx="71.4873" ry="18"/>
<text text-anchor="middle" x="333.594" y="-878.3" font-family="Times New Roman,serif" font-size="14.00">search &amp; upload</text>
</g>
<!-- search &amp; upload&#45;&gt;upload choice -->
<g id="edge21" class="edge"><title>search &amp; upload&#45;&gt;upload choice</title>
<path fill="none" stroke="black" d="M308.406,-865.116C292.828,-855.292 272.654,-842.569 255.78,-831.928"/>
<polygon fill="black" stroke="black" points="257.625,-828.954 247.3,-826.58 253.891,-834.875 257.625,-828.954"/>
</g>
<!-- search &amp; upload&#45;&gt;Search Event -->
<g id="edge20" class="edge"><title>search &amp; upload&#45;&gt;Search Event</title>
<path fill="none" stroke="black" d="M340.13,-864.055C343.169,-856.176 346.856,-846.617 350.259,-837.794"/>
<polygon fill="black" stroke="black" points="353.597,-838.865 353.931,-828.275 347.066,-836.346 353.597,-838.865"/>
</g>
</g>
</svg>
