<?xml version="1.0" encoding="UTF-8" standalone="no"?>
<!DOCTYPE svg PUBLIC "-//W3C//DTD SVG 1.1//EN"
 "http://www.w3.org/Graphics/SVG/1.1/DTD/svg11.dtd">
<!-- Generated by graphviz version 2.38.0 (20140413.2041)
 -->
<!-- Title: g Pages: 1 -->
<svg width="1579pt" height="229pt"
 viewBox="0.00 0.00 1579.00 229.39" xmlns="http://www.w3.org/2000/svg" xmlns:xlink="http://www.w3.org/1999/xlink">
<g id="graph0" class="graph" transform="scale(1 1) rotate(0) translate(4 225.394)">
<title>g</title>
<polygon fill="white" stroke="none" points="-4,4 -4,-225.394 1575,-225.394 1575,4 -4,4"/>
<!-- EAID_465C05ED_F753_40de_BA30_22C529BB3C25 -->
<g id="node1" class="node"><title>EAID_465C05ED_F753_40de_BA30_22C529BB3C25</title>
<image xlink:href="img/actor1.png" width="61px" height="90px" preserveAspectRatio="xMinYMin meet" x="10.5" y="-215.394"/>
<text text-anchor="start" x="19" y="-102.194" font-family="Times New Roman,serif" font-size="24.00">User</text>
</g>
<!-- EAID_81FD120F_FCA8_4f26_A54A_5E6C09FE64D0 -->
<g id="node2" class="node"><title>EAID_81FD120F_FCA8_4f26_A54A_5E6C09FE64D0</title>
<image xlink:href="img/boundary3.png" width="102px" height="67px" preserveAspectRatio="xMinYMin meet" x="1459" y="-203.394"/>
<text text-anchor="start" x="1459" y="-113.194" font-family="Times New Roman,serif" font-size="24.00">Homepage</text>
</g>
<!-- EAID_465C05ED_F753_40de_BA30_22C529BB3C25&#45;&gt;EAID_81FD120F_FCA8_4f26_A54A_5E6C09FE64D0 -->
<g id="edge1" class="edge"><title>EAID_465C05ED_F753_40de_BA30_22C529BB3C25&#45;&gt;EAID_81FD120F_FCA8_4f26_A54A_5E6C09FE64D0</title>
<path fill="none" stroke="black" d="M81.134,-167.57C92.6015,-170.634 105.208,-173.568 117,-175.394 335.543,-209.229 392.854,-199.394 614,-199.394 614,-199.394 614,-199.394 980.5,-199.394 1172.93,-199.394 1222.61,-207.311 1413,-179.394 1421.52,-178.144 1430.39,-176.464 1439.14,-174.569"/>
<polygon fill="black" stroke="black" points="1439.96,-177.971 1448.94,-172.35 1438.41,-171.144 1439.96,-177.971"/>
</g>
<!-- EAID_C0BFA3B9_E820_4849_A750_0B4AD5DE0F5B -->
<g id="node3" class="node"><title>EAID_C0BFA3B9_E820_4849_A750_0B4AD5DE0F5B</title>
<image xlink:href="img/boundary3.png" width="115px" height="67px" preserveAspectRatio="xMinYMin meet" x="199.5" y="-160.394"/>
<text text-anchor="start" x="127.5" y="-70.1936" font-family="Times New Roman,serif" font-size="24.00">Cancel Client Appointment</text>
</g>
<!-- EAID_465C05ED_F753_40de_BA30_22C529BB3C25&#45;&gt;EAID_C0BFA3B9_E820_4849_A750_0B4AD5DE0F5B -->
<g id="edge2" class="edge"><title>EAID_465C05ED_F753_40de_BA30_22C529BB3C25&#45;&gt;EAID_C0BFA3B9_E820_4849_A750_0B4AD5DE0F5B</title>
<path fill="none" stroke="black" d="M81.0003,-147.457C88.9777,-145.854 97.8012,-144.081 107.12,-142.208"/>
<polygon fill="black" stroke="black" points="107.88,-145.626 116.995,-140.224 106.501,-138.763 107.88,-145.626"/>
</g>
<!-- EAID_42E39D0D_6C77_4729_94F3_CD6358450C9F -->
<g id="node4" class="node"><title>EAID_42E39D0D_6C77_4729_94F3_CD6358450C9F</title>
<image xlink:href="img/control1.png" width="106px" height="75px" preserveAspectRatio="xMinYMin meet" x="562" y="-164.394"/>
<text text-anchor="start" x="442" y="-66.1936" font-family="Times New Roman,serif" font-size="24.00">Choose one of existing appointments</text>
</g>
<!-- EAID_C0BFA3B9_E820_4849_A750_0B4AD5DE0F5B&#45;&gt;EAID_42E39D0D_6C77_4729_94F3_CD6358450C9F -->
<g id="edge3" class="edge"><title>EAID_C0BFA3B9_E820_4849_A750_0B4AD5DE0F5B&#45;&gt;EAID_42E39D0D_6C77_4729_94F3_CD6358450C9F</title>
<path fill="none" stroke="black" d="M396.098,-112.394C404.534,-112.394 413.094,-112.394 421.699,-112.394"/>
<polygon fill="black" stroke="black" points="421.815,-115.894 431.815,-112.394 421.815,-108.894 421.815,-115.894"/>
</g>
<!-- EAID_50ADA333_0392_426c_B00D_E5467DFB8B72 -->
<g id="node6" class="node"><title>EAID_50ADA333_0392_426c_B00D_E5467DFB8B72</title>
<image xlink:href="img/control1.png" width="106px" height="75px" preserveAspectRatio="xMinYMin meet" x="927" y="-164.394"/>
<text text-anchor="start" x="844.5" y="-66.1936" font-family="Times New Roman,serif" font-size="24.00">Remove chosen appointment</text>
</g>
<!-- EAID_42E39D0D_6C77_4729_94F3_CD6358450C9F&#45;&gt;EAID_50ADA333_0392_426c_B00D_E5467DFB8B72 -->
<g id="edge5" class="edge"><title>EAID_42E39D0D_6C77_4729_94F3_CD6358450C9F&#45;&gt;EAID_50ADA333_0392_426c_B00D_E5467DFB8B72</title>
<path fill="none" stroke="black" d="M798.047,-112.394C806.578,-112.394 815.108,-112.394 823.559,-112.394"/>
<polygon fill="black" stroke="black" points="823.824,-115.894 833.824,-112.394 823.824,-108.894 823.824,-115.894"/>
</g>
<!-- EAID_A8045BAE_456A_4b57_8585_8E86F1966C30 -->
<g id="node5" class="node"><title>EAID_A8045BAE_456A_4b57_8585_8E86F1966C30</title>
<image xlink:href="img/control1.png" width="106px" height="75px" preserveAspectRatio="xMinYMin meet" x="1234" y="-164.394"/>
<text text-anchor="start" x="1171" y="-66.1936" font-family="Times New Roman,serif" font-size="24.00">Show confirmation page</text>
</g>
<!-- EAID_A8045BAE_456A_4b57_8585_8E86F1966C30&#45;&gt;EAID_81FD120F_FCA8_4f26_A54A_5E6C09FE64D0 -->
<g id="edge6" class="edge"><title>EAID_A8045BAE_456A_4b57_8585_8E86F1966C30&#45;&gt;EAID_81FD120F_FCA8_4f26_A54A_5E6C09FE64D0</title>
<path fill="none" stroke="black" d="M1413.03,-136.721C1421.85,-138.437 1430.54,-140.128 1438.88,-141.75"/>
<polygon fill="black" stroke="black" points="1438.37,-145.217 1448.86,-143.691 1439.71,-138.346 1438.37,-145.217"/>
</g>
<!-- EAID_A8045BAE_456A_4b57_8585_8E86F1966C30&#45;&gt;EAID_C0BFA3B9_E820_4849_A750_0B4AD5DE0F5B -->
<g id="edge4" class="edge"><title>EAID_A8045BAE_456A_4b57_8585_8E86F1966C30&#45;&gt;EAID_C0BFA3B9_E820_4849_A750_0B4AD5DE0F5B</title>
<path fill="none" stroke="black" d="M1160.97,-54.0004C1149,-50.1191 1136.9,-46.8027 1125,-44.3936 823.128,16.7411 734.699,12.5014 432,-44.3936 418.5,-46.931 404.704,-50.4828 391.077,-54.645"/>
<polygon fill="black" stroke="black" points="389.666,-51.4204 381.191,-57.7779 391.781,-58.0934 389.666,-51.4204"/>
</g>
<!-- EAID_50ADA333_0392_426c_B00D_E5467DFB8B72&#45;&gt;EAID_A8045BAE_456A_4b57_8585_8E86F1966C30 -->
<g id="edge7" class="edge"><title>EAID_50ADA333_0392_426c_B00D_E5467DFB8B72&#45;&gt;EAID_A8045BAE_456A_4b57_8585_8E86F1966C30</title>
<path fill="none" stroke="black" d="M1125.2,-112.394C1133.64,-112.394 1142.12,-112.394 1150.52,-112.394"/>
<polygon fill="black" stroke="black" points="1150.73,-115.894 1160.73,-112.394 1150.73,-108.894 1150.73,-115.894"/>
</g>
</g>
</svg>
