<?xml version="1.0" encoding="UTF-8" standalone="no"?>
<!DOCTYPE svg PUBLIC "-//W3C//DTD SVG 1.1//EN"
 "http://www.w3.org/Graphics/SVG/1.1/DTD/svg11.dtd">
<!-- Generated by graphviz version 2.40.1 (20161225.0304)
 -->
<!-- Title: class_diagram Pages: 1 -->
<svg width="3281pt" height="73pt"
 viewBox="0.00 0.00 3281.36 73.00" xmlns="http://www.w3.org/2000/svg" xmlns:xlink="http://www.w3.org/1999/xlink">
<g id="graph0" class="graph" transform="scale(1 1) rotate(0) translate(4 69)">
<title>class_diagram</title>
<polygon fill="#ffffff" stroke="transparent" points="-4,4 -4,-69 3277.3594,-69 3277.3594,4 -4,4"/>
<!-- c48400ee7_9082_4dbb_9585_6b962f47b473 -->
<g id="c48400ee7_9082_4dbb_9585_6b962f47b473" class="node">
<title>c48400ee7_9082_4dbb_9585_6b962f47b473</title>
<polygon fill="none" stroke="#000000" points="0,-12.5 0,-52.5 116.7188,-52.5 116.7188,-12.5 0,-12.5"/>
<text text-anchor="middle" x="58.3594" y="-42.1" font-family="Times,serif" font-size="8.00" fill="#000000">AndroidProcesses</text>
<polyline fill="none" stroke="#000000" points="0,-36.5 116.7188,-36.5 "/>
<text text-anchor="start" x="8" y="-26.1" font-family="Times,serif" font-size="8.00" fill="#000000">+ log()</text>
<text text-anchor="start" x="8" y="-18.1" font-family="Times,serif" font-size="8.00" fill="#000000">+ getRunningAppProcessInfo()</text>
</g>
<!-- cb713b6ec_7874_43eb_a40f_ba0f66e8b180 -->
<g id="cb713b6ec_7874_43eb_a40f_ba0f66e8b180" class="node">
<title>cb713b6ec_7874_43eb_a40f_ba0f66e8b180</title>
<polygon fill="none" stroke="#000000" points="134.6973,-14.5 134.6973,-50.5 208.0215,-50.5 208.0215,-14.5 134.6973,-14.5"/>
<text text-anchor="middle" x="171.3594" y="-30.1" font-family="Times,serif" font-size="8.00" fill="#000000">ActivityProcesses</text>
</g>
<!-- c125c9e31_3bf3_438c_a500_dd4623f25d8e -->
<g id="c125c9e31_3bf3_438c_a500_dd4623f25d8e" class="node">
<title>c125c9e31_3bf3_438c_a500_dd4623f25d8e</title>
<polygon fill="none" stroke="#000000" points="225.8105,-14.5 225.8105,-50.5 292.9082,-50.5 292.9082,-14.5 225.8105,-14.5"/>
<text text-anchor="middle" x="259.3594" y="-30.1" font-family="Times,serif" font-size="8.00" fill="#000000">ContentHandler</text>
</g>
<!-- cf297a70f_bc97_4eba_a1d5_b9df6df11d50 -->
<g id="cf297a70f_bc97_4eba_a1d5_b9df6df11d50" class="node">
<title>cf297a70f_bc97_4eba_a1d5_b9df6df11d50</title>
<polygon fill="none" stroke="#000000" points="310.918,-14.5 310.918,-50.5 391.8008,-50.5 391.8008,-14.5 310.918,-14.5"/>
<text text-anchor="middle" x="351.3594" y="-39.6" font-family="Times,serif" font-size="8.00" fill="#000000">AndroidAppProcess</text>
<polyline fill="none" stroke="#000000" points="310.918,-33.5 391.8008,-33.5 "/>
<text text-anchor="start" x="318.918" y="-22.6" font-family="Times,serif" font-size="8.00" fill="#000000">&#45; uid:int</text>
<polyline fill="none" stroke="#000000" points="310.918,-16.5 391.8008,-16.5 "/>
</g>
<!-- cc20d2cb9_0ba3_45f8_9ad0_72522ea12026 -->
<g id="cc20d2cb9_0ba3_45f8_9ad0_72522ea12026" class="node">
<title>cc20d2cb9_0ba3_45f8_9ad0_72522ea12026</title>
<polygon fill="none" stroke="#000000" points="410.2559,-14.5 410.2559,-50.5 468.4629,-50.5 468.4629,-14.5 410.2559,-14.5"/>
<text text-anchor="middle" x="439.3594" y="-30.1" font-family="Times,serif" font-size="8.00" fill="#000000">DTDHandler</text>
</g>
<!-- c28704301_c5fb_4914_b71c_d85dd81eb576 -->
<g id="c28704301_c5fb_4914_b71c_d85dd81eb576" class="node">
<title>c28704301_c5fb_4914_b71c_d85dd81eb576</title>
<polygon fill="none" stroke="#000000" points="486.3359,-14.5 486.3359,-50.5 642.3828,-50.5 642.3828,-14.5 486.3359,-14.5"/>
<text text-anchor="middle" x="564.3594" y="-39.6" font-family="Times,serif" font-size="8.00" fill="#000000">ControlGroup$1</text>
<polyline fill="none" stroke="#000000" points="486.3359,-33.5 642.3828,-33.5 "/>
<text text-anchor="start" x="494.3359" y="-22.6" font-family="Times,serif" font-size="8.00" fill="#000000">&#45; CREATOR:android.os.Parcelable$Creator</text>
<polyline fill="none" stroke="#000000" points="486.3359,-16.5 642.3828,-16.5 "/>
</g>
<!-- c02c12dd6_3e76_4099_b40f_79b0040a9616 -->
<g id="c02c12dd6_3e76_4099_b40f_79b0040a9616" class="node">
<title>c02c12dd6_3e76_4099_b40f_79b0040a9616</title>
<polygon fill="none" stroke="#000000" points="660.332,-12.5 660.332,-52.5 718.3867,-52.5 718.3867,-12.5 660.332,-12.5"/>
<text text-anchor="middle" x="689.3594" y="-42.1" font-family="Times,serif" font-size="8.00" fill="#000000">Cgroup$1</text>
<polyline fill="none" stroke="#000000" points="660.332,-36.5 718.3867,-36.5 "/>
<text text-anchor="start" x="668.332" y="-26.1" font-family="Times,serif" font-size="8.00" fill="#000000">+ getGroup()</text>
<text text-anchor="start" x="668.332" y="-18.1" font-family="Times,serif" font-size="8.00" fill="#000000">+ get()</text>
</g>
<!-- cb634d0eb_30b8_41d6_8f66_9745d510336f -->
<g id="cb634d0eb_30b8_41d6_8f66_9745d510336f" class="node">
<title>cb634d0eb_30b8_41d6_8f66_9745d510336f</title>
<polygon fill="none" stroke="#000000" points="736.3594,-14.5 736.3594,-50.5 790.3594,-50.5 790.3594,-14.5 736.3594,-14.5"/>
<text text-anchor="middle" x="763.082" y="-35.1" font-family="Times,serif" font-size="8.00" fill="#000000">Stat</text>
<polyline fill="none" stroke="#000000" points="736.3594,-24.5 789.8047,-24.5 "/>
</g>
<!-- c295401ce_3b38_439f_a304_14c0828dc4bc -->
<g id="c295401ce_3b38_439f_a304_14c0828dc4bc" class="node">
<title>c295401ce_3b38_439f_a304_14c0828dc4bc</title>
<polygon fill="none" stroke="#000000" points="808.3594,-14.5 808.3594,-50.5 862.3594,-50.5 862.3594,-14.5 808.3594,-14.5"/>
<text text-anchor="middle" x="835.1387" y="-35.1" font-family="Times,serif" font-size="8.00" fill="#000000">Status$1</text>
<polyline fill="none" stroke="#000000" points="808.3594,-24.5 861.918,-24.5 "/>
</g>
<!-- c6bcc3420_d7f7_418e_89b0_e36d0031b7d5 -->
<g id="c6bcc3420_d7f7_418e_89b0_e36d0031b7d5" class="node">
<title>c6bcc3420_d7f7_418e_89b0_e36d0031b7d5</title>
<polygon fill="none" stroke="#000000" points="880.3594,-14.5 880.3594,-50.5 934.3594,-50.5 934.3594,-14.5 880.3594,-14.5"/>
<text text-anchor="middle" x="906.9141" y="-35.1" font-family="Times,serif" font-size="8.00" fill="#000000">ProcFile</text>
<polyline fill="none" stroke="#000000" points="880.3594,-24.5 933.4688,-24.5 "/>
</g>
<!-- c789b0107_4d78_44cc_957a_e316093d6ae5 -->
<g id="c789b0107_4d78_44cc_957a_e316093d6ae5" class="node">
<title>c789b0107_4d78_44cc_957a_e316093d6ae5</title>
<polygon fill="none" stroke="#000000" points="951.9258,-.5 951.9258,-64.5 1042.793,-64.5 1042.793,-.5 951.9258,-.5"/>
<text text-anchor="middle" x="997.3594" y="-54.1" font-family="Times,serif" font-size="8.00" fill="#000000">AndroidProcess</text>
<polyline fill="none" stroke="#000000" points="951.9258,-48.5 1042.793,-48.5 "/>
<text text-anchor="start" x="959.9258" y="-38.1" font-family="Times,serif" font-size="8.00" fill="#000000">&#45; name:java.lang.String</text>
<polyline fill="none" stroke="#000000" points="951.9258,-32.5 1042.793,-32.5 "/>
<text text-anchor="start" x="959.9258" y="-22.1" font-family="Times,serif" font-size="8.00" fill="#000000">+ status()</text>
<text text-anchor="start" x="959.9258" y="-14.1" font-family="Times,serif" font-size="8.00" fill="#000000">+ cgroup()</text>
<text text-anchor="start" x="959.9258" y="-6.1" font-family="Times,serif" font-size="8.00" fill="#000000">+ stat()</text>
</g>
<!-- ca1ab5176_d694_4413_8ac5_37e2a7467cb1 -->
<g id="ca1ab5176_d694_4413_8ac5_37e2a7467cb1" class="node">
<title>ca1ab5176_d694_4413_8ac5_37e2a7467cb1</title>
<polygon fill="none" stroke="#000000" points="1061.2598,-14.5 1061.2598,-50.5 1175.459,-50.5 1175.459,-14.5 1061.2598,-14.5"/>
<text text-anchor="middle" x="1118.3594" y="-30.1" font-family="Times,serif" font-size="8.00" fill="#000000">SAXNotRecognizedException</text>
</g>
<!-- cf1983415_e5d5_484f_ac44_b091f44d3a8a -->
<g id="cf1983415_e5d5_484f_ac44_b091f44d3a8a" class="node">
<title>cf1983415_e5d5_484f_ac44_b091f44d3a8a</title>
<polygon fill="none" stroke="#000000" points="1193.0371,-14.5 1193.0371,-50.5 1251.6816,-50.5 1251.6816,-14.5 1193.0371,-14.5"/>
<text text-anchor="middle" x="1222.3594" y="-30.1" font-family="Times,serif" font-size="8.00" fill="#000000">ErrorHandler</text>
</g>
<!-- c3df67207_95da_447e_aed6_1d0c98db7b99 -->
<g id="c3df67207_95da_447e_aed6_1d0c98db7b99" class="node">
<title>c3df67207_95da_447e_aed6_1d0c98db7b99</title>
<polygon fill="none" stroke="#000000" points="1269.3594,-14.5 1269.3594,-50.5 1323.3594,-50.5 1323.3594,-14.5 1269.3594,-14.5"/>
<text text-anchor="middle" x="1296.2969" y="-30.1" font-family="Times,serif" font-size="8.00" fill="#000000">Locator</text>
</g>
<!-- c68e96904_00b3_4aa8_b59e_3a8c5fc924e3 -->
<g id="c68e96904_00b3_4aa8_b59e_3a8c5fc924e3" class="node">
<title>c68e96904_00b3_4aa8_b59e_3a8c5fc924e3</title>
<polygon fill="none" stroke="#000000" points="1341.0391,-14.5 1341.0391,-50.5 1411.6797,-50.5 1411.6797,-14.5 1341.0391,-14.5"/>
<text text-anchor="middle" x="1376.3594" y="-30.1" font-family="Times,serif" font-size="8.00" fill="#000000">ServiceReader$4</text>
</g>
<!-- c9a571ef9_4dc6_4b2e_8239_11acac955130 -->
<g id="c9a571ef9_4dc6_4b2e_8239_11acac955130" class="node">
<title>c9a571ef9_4dc6_4b2e_8239_11acac955130</title>
<polygon fill="none" stroke="#000000" points="1429.9238,-14.5 1429.9238,-50.5 1498.7949,-50.5 1498.7949,-14.5 1429.9238,-14.5"/>
<text text-anchor="middle" x="1464.3594" y="-30.1" font-family="Times,serif" font-size="8.00" fill="#000000">ProcessManager</text>
</g>
<!-- cd6d8828f_5380_463f_8c16_e84608a99dc3 -->
<g id="cd6d8828f_5380_463f_8c16_e84608a99dc3" class="node">
<title>cd6d8828f_5380_463f_8c16_e84608a99dc3</title>
<polygon fill="none" stroke="#000000" points="1516.3594,-14.5 1516.3594,-50.5 1570.3594,-50.5 1570.3594,-14.5 1516.3594,-14.5"/>
<text text-anchor="middle" x="1543.0273" y="-30.1" font-family="Times,serif" font-size="8.00" fill="#000000">C</text>
</g>
<!-- c203c6731_15d0_46a5_82f0_6a44b1d4c51c -->
<g id="c203c6731_15d0_46a5_82f0_6a44b1d4c51c" class="node">
<title>c203c6731_15d0_46a5_82f0_6a44b1d4c51c</title>
<polygon fill="none" stroke="#000000" points="1588.3594,-14.5 1588.3594,-50.5 1642.3594,-50.5 1642.3594,-14.5 1588.3594,-14.5"/>
<text text-anchor="middle" x="1615.1934" y="-30.1" font-family="Times,serif" font-size="8.00" fill="#000000">Statm</text>
</g>
<!-- c44a8b504_ef40_4b98_b65f_f0cfcda1deaa -->
<g id="c44a8b504_ef40_4b98_b65f_f0cfcda1deaa" class="node">
<title>c44a8b504_ef40_4b98_b65f_f0cfcda1deaa</title>
<polygon fill="none" stroke="#000000" points="1660.6973,-14.5 1660.6973,-50.5 1770.0215,-50.5 1770.0215,-14.5 1660.6973,-14.5"/>
<text text-anchor="middle" x="1715.3594" y="-30.1" font-family="Times,serif" font-size="8.00" fill="#000000">SAXNotSupportedException</text>
</g>
<!-- c5a6bb5e5_bdbd_49a9_954a_5ef082e75cc3 -->
<g id="c5a6bb5e5_bdbd_49a9_954a_5ef082e75cc3" class="node">
<title>c5a6bb5e5_bdbd_49a9_954a_5ef082e75cc3</title>
<polygon fill="none" stroke="#000000" points="1788.1445,-14.5 1788.1445,-50.5 1844.5742,-50.5 1844.5742,-14.5 1788.1445,-14.5"/>
<text text-anchor="middle" x="1816.3594" y="-30.1" font-family="Times,serif" font-size="8.00" fill="#000000">XMLReader</text>
</g>
<!-- c4ea6910e_0741_431d_a590_33764f8ed24d -->
<g id="c4ea6910e_0741_431d_a590_33764f8ed24d" class="node">
<title>c4ea6910e_0741_431d_a590_33764f8ed24d</title>
<polygon fill="none" stroke="#000000" points="1863.0508,-14.5 1863.0508,-50.5 1921.668,-50.5 1921.668,-14.5 1863.0508,-14.5"/>
<text text-anchor="middle" x="1892.3594" y="-30.1" font-family="Times,serif" font-size="8.00" fill="#000000">ViewGraphic</text>
</g>
<!-- c0960b107_28f9_4c6d_a869_0126eca19810 -->
<g id="c0960b107_28f9_4c6d_a869_0126eca19810" class="node">
<title>c0960b107_28f9_4c6d_a869_0126eca19810</title>
<polygon fill="none" stroke="#000000" points="1939.8047,-14.5 1939.8047,-50.5 2002.9141,-50.5 2002.9141,-14.5 1939.8047,-14.5"/>
<text text-anchor="middle" x="1971.3594" y="-30.1" font-family="Times,serif" font-size="8.00" fill="#000000">XmlPullParser</text>
</g>
<!-- c0f9d95e2_6266_4a41_a7e6_6747a8907990 -->
<g id="c0f9d95e2_6266_4a41_a7e6_6747a8907990" class="node">
<title>c0f9d95e2_6266_4a41_a7e6_6747a8907990</title>
<polygon fill="none" stroke="#000000" points="2020.4766,-14.5 2020.4766,-50.5 2102.2422,-50.5 2102.2422,-14.5 2020.4766,-14.5"/>
<text text-anchor="middle" x="2061.3594" y="-30.1" font-family="Times,serif" font-size="8.00" fill="#000000">SAXParseException</text>
</g>
<!-- cae70089c_6686_450f_9f97_7924047b8758 -->
<g id="cae70089c_6686_450f_9f97_7924047b8758" class="node">
<title>cae70089c_6686_450f_9f97_7924047b8758</title>
<polygon fill="none" stroke="#000000" points="2120.5762,-14.5 2120.5762,-50.5 2176.1426,-50.5 2176.1426,-14.5 2120.5762,-14.5"/>
<text text-anchor="middle" x="2148.3594" y="-30.1" font-family="Times,serif" font-size="8.00" fill="#000000">BuildConfig</text>
</g>
<!-- c7db960af_0484_4648_a878_f1f3082f41a8 -->
<g id="c7db960af_0484_4648_a878_f1f3082f41a8" class="node">
<title>c7db960af_0484_4648_a878_f1f3082f41a8</title>
<polygon fill="none" stroke="#000000" points="2193.8066,-14.5 2193.8066,-50.5 2264.9121,-50.5 2264.9121,-14.5 2193.8066,-14.5"/>
<text text-anchor="middle" x="2229.3594" y="-30.1" font-family="Times,serif" font-size="8.00" fill="#000000">ActivityMain$19</text>
</g>
<!-- cbe9a945f_b1cb_430f_ad6b_2ca595ff1e0d -->
<g id="cbe9a945f_b1cb_430f_ad6b_2ca595ff1e0d" class="node">
<title>cbe9a945f_b1cb_430f_ad6b_2ca595ff1e0d</title>
<polygon fill="none" stroke="#000000" points="2283.3633,-14.5 2283.3633,-50.5 2347.3555,-50.5 2347.3555,-14.5 2283.3633,-14.5"/>
<text text-anchor="middle" x="2315.3594" y="-30.1" font-family="Times,serif" font-size="8.00" fill="#000000">EntityResolver</text>
</g>
<!-- c8074a6bc_81a6_4870_92a4_7e2e1fdfe683 -->
<g id="c8074a6bc_81a6_4870_92a4_7e2e1fdfe683" class="node">
<title>c8074a6bc_81a6_4870_92a4_7e2e1fdfe683</title>
<polygon fill="none" stroke="#000000" points="2365.3594,-14.5 2365.3594,-50.5 2419.3594,-50.5 2419.3594,-14.5 2365.3594,-14.5"/>
<text text-anchor="middle" x="2392.0273" y="-30.1" font-family="Times,serif" font-size="8.00" fill="#000000">R</text>
</g>
<!-- cee8fd2d2_5e5b_44ef_8ec1_7851a4c12446 -->
<g id="cee8fd2d2_5e5b_44ef_8ec1_7851a4c12446" class="node">
<title>cee8fd2d2_5e5b_44ef_8ec1_7851a4c12446</title>
<polygon fill="none" stroke="#000000" points="2437.1406,-14.5 2437.1406,-50.5 2501.5781,-50.5 2501.5781,-14.5 2437.1406,-14.5"/>
<text text-anchor="middle" x="2469.3594" y="-30.1" font-family="Times,serif" font-size="8.00" fill="#000000">SAXException</text>
</g>
<!-- c06733c26_3377_4228_a2f3_ef537bef98fb -->
<g id="c06733c26_3377_4228_a2f3_ef537bef98fb" class="node">
<title>c06733c26_3377_4228_a2f3_ef537bef98fb</title>
<polygon fill="none" stroke="#000000" points="2519.8086,-14.5 2519.8086,-50.5 2574.9102,-50.5 2574.9102,-14.5 2519.8086,-14.5"/>
<text text-anchor="middle" x="2547.3594" y="-30.1" font-family="Times,serif" font-size="8.00" fill="#000000">InputSource</text>
</g>
<!-- c8c365948_eda0_44d1_b1ed_229798e9c892 -->
<g id="c8c365948_eda0_44d1_b1ed_229798e9c892" class="node">
<title>c8c365948_eda0_44d1_b1ed_229798e9c892</title>
<polygon fill="none" stroke="#000000" points="2593.3594,-14.5 2593.3594,-50.5 2647.3594,-50.5 2647.3594,-14.5 2593.3594,-14.5"/>
<text text-anchor="middle" x="2620.0254" y="-30.1" font-family="Times,serif" font-size="8.00" fill="#000000">R$layout</text>
</g>
<!-- c2d5c9e6e_ec87_44cd_b43a_cd3c0fd3ee47 -->
<g id="c2d5c9e6e_ec87_44cd_b43a_cd3c0fd3ee47" class="node">
<title>c2d5c9e6e_ec87_44cd_b43a_cd3c0fd3ee47</title>
<polygon fill="none" stroke="#000000" points="2665.5879,-14.5 2665.5879,-50.5 2761.1309,-50.5 2761.1309,-14.5 2665.5879,-14.5"/>
<text text-anchor="middle" x="2713.3594" y="-30.1" font-family="Times,serif" font-size="8.00" fill="#000000">XmlPullParserException</text>
</g>
<!-- ca1552aed_de67_4dee_ac2d_edecc232d552 -->
<g id="ca1552aed_de67_4dee_ac2d_edecc232d552" class="node">
<title>ca1552aed_de67_4dee_ac2d_edecc232d552</title>
<polygon fill="none" stroke="#000000" points="2778.7012,-14.5 2778.7012,-50.5 2876.0176,-50.5 2876.0176,-14.5 2778.7012,-14.5"/>
<text text-anchor="middle" x="2827.3594" y="-30.1" font-family="Times,serif" font-size="8.00" fill="#000000">LinearLayoutCustomised</text>
</g>
<!-- cd1f067c5_7d79_4e56_8535_6766eb1fc246 -->
<g id="cd1f067c5_7d79_4e56_8535_6766eb1fc246" class="node">
<title>cd1f067c5_7d79_4e56_8535_6766eb1fc246</title>
<polygon fill="none" stroke="#000000" points="2894.4746,-14.5 2894.4746,-50.5 2960.2441,-50.5 2960.2441,-14.5 2894.4746,-14.5"/>
<text text-anchor="middle" x="2927.3594" y="-30.1" font-family="Times,serif" font-size="8.00" fill="#000000">ActivityHelp$1</text>
</g>
<!-- cfffb29ef_48a8_40a6_aeb3_ef2408113e84 -->
<g id="cfffb29ef_48a8_40a6_aeb3_ef2408113e84" class="node">
<title>cfffb29ef_48a8_40a6_aeb3_ef2408113e84</title>
<polygon fill="none" stroke="#000000" points="2978.25,-14.5 2978.25,-50.5 3048.4688,-50.5 3048.4688,-14.5 2978.25,-14.5"/>
<text text-anchor="middle" x="3013.3594" y="-30.1" font-family="Times,serif" font-size="8.00" fill="#000000">ActivityAbout$2</text>
</g>
<!-- cf9175331_c354_47e2_8450_ec83bc922ead -->
<g id="cf9175331_c354_47e2_8450_ec83bc922ead" class="node">
<title>cf9175331_c354_47e2_8450_ec83bc922ead</title>
<polygon fill="none" stroke="#000000" points="3066.9238,-14.5 3066.9238,-50.5 3127.7949,-50.5 3127.7949,-14.5 3066.9238,-14.5"/>
<text text-anchor="middle" x="3097.3594" y="-30.1" font-family="Times,serif" font-size="8.00" fill="#000000">XmlSerializer</text>
</g>
<!-- cf13659f5_31fa_4426_8a3b_8d6b9efb1b55 -->
<g id="cf13659f5_31fa_4426_8a3b_8d6b9efb1b55" class="node">
<title>cf13659f5_31fa_4426_8a3b_8d6b9efb1b55</title>
<polygon fill="none" stroke="#000000" points="3145.5762,-14.5 3145.5762,-50.5 3201.1426,-50.5 3201.1426,-14.5 3145.5762,-14.5"/>
<text text-anchor="middle" x="3173.3594" y="-30.1" font-family="Times,serif" font-size="8.00" fill="#000000">BuildConfig</text>
</g>
<!-- c3c085a3a_3169_4e66_8c1d_03cb75c63a7d -->
<g id="c3c085a3a_3169_4e66_8c1d_03cb75c63a7d" class="node">
<title>c3c085a3a_3169_4e66_8c1d_03cb75c63a7d</title>
<polygon fill="none" stroke="#000000" points="3219.3594,-14.5 3219.3594,-50.5 3273.3594,-50.5 3273.3594,-14.5 3219.3594,-14.5"/>
<text text-anchor="middle" x="3246.3574" y="-30.1" font-family="Times,serif" font-size="8.00" fill="#000000">Attributes</text>
</g>
</g>
</svg>
