<?xml version="1.0" encoding="UTF-8" standalone="no"?>
<!DOCTYPE svg PUBLIC "-//W3C//DTD SVG 1.1//EN"
 "http://www.w3.org/Graphics/SVG/1.1/DTD/svg11.dtd">
<!-- Generated by graphviz version 2.38.0 (20140413.2041)
 -->
<!-- Title: g Pages: 1 -->
<svg width="1208pt" height="416pt"
 viewBox="0.00 0.00 1208.00 416.00" xmlns="http://www.w3.org/2000/svg" xmlns:xlink="http://www.w3.org/1999/xlink">
<g id="graph0" class="graph" transform="scale(1 1) rotate(0) translate(4 412)">
<title>g</title>
<polygon fill="white" stroke="none" points="-4,4 -4,-412 1204,-412 1204,4 -4,4"/>
<g id="clust1" class="cluster"><title>cluster0</title>
<polygon fill="none" stroke="black" stroke-width="2" points="19,-212 19,-302 115,-302 115,-212 19,-212"/>
<text text-anchor="start" x="45" y="-287.8" font-family="Times New Roman,serif" font-weight="bold" font-size="14.00">System</text>
</g>
<g id="clust3" class="cluster"><title>cluster1000</title>
<polygon fill="none" stroke="black" stroke-width="2" points="22,-8 22,-204 1192,-204 1192,-8 22,-8"/>
<text text-anchor="start" x="561.5" y="-189.8" font-family="Times New Roman,serif" font-weight="bold" font-size="14.00">Domain Model</text>
</g>
<g id="clust2" class="cluster"><title>cluster1</title>
<polygon fill="none" stroke="black" stroke-width="2" points="8,-310 8,-400 126,-400 126,-310 8,-310"/>
<text text-anchor="start" x="52.5" y="-385.8" font-family="Times New Roman,serif" font-weight="bold" font-size="14.00">User</text>
</g>
<!-- EAID_1689F7FB_8598_46e5_BE7E_DC319DA2CB6D -->
<g id="node1" class="node"><title>EAID_1689F7FB_8598_46e5_BE7E_DC319DA2CB6D</title>
<image xlink:href="img/activity_icon.png" width="30px" height="20px" preserveAspectRatio="xMinYMin meet" x="52" y="-264.5"/>
<text text-anchor="start" x="37" y="-230.3" font-family="Times New Roman,serif" font-weight="bold" font-size="14.00">undefined</text>
</g>
<!-- EAID_C8470AAC_143F_4a5d_A42A_3711CA9236D3 -->
<g id="node9" class="node"><title>EAID_C8470AAC_143F_4a5d_A42A_3711CA9236D3</title>
<polygon fill="none" stroke="black" points="40,-83.5 40,-104.5 95,-104.5 95,-83.5 40,-83.5"/>
<text text-anchor="start" x="43" y="-91.3" font-family="Times New Roman,serif" font-weight="bold" font-size="14.00">Object1</text>
<polygon fill="none" stroke="black" points="38.5,-83 38.5,-106 95.5,-106 95.5,-83 38.5,-83"/>
</g>
<!-- EAID_1689F7FB_8598_46e5_BE7E_DC319DA2CB6D&#45;&gt;EAID_C8470AAC_143F_4a5d_A42A_3711CA9236D3 -->
<g id="edge2" class="edge"><title>EAID_1689F7FB_8598_46e5_BE7E_DC319DA2CB6D&#45;&gt;EAID_C8470AAC_143F_4a5d_A42A_3711CA9236D3</title>
<path fill="none" stroke="black" stroke-dasharray="5,2" d="M67,-219.896C67,-193.189 67,-150.649 67,-122.896"/>
<polygon fill="black" stroke="black" points="70.5001,-122.697 67,-112.697 63.5001,-122.697 70.5001,-122.697"/>
</g>
<!-- EAID_1689F7FB_8598_46e5_BE7E_DC319DA2CB6D_STL -->
<g id="node2" class="node"><title>EAID_1689F7FB_8598_46e5_BE7E_DC319DA2CB6D_STL</title>
<image xlink:href="img/stimulus_icon.png" width="30px" height="20px" preserveAspectRatio="xMinYMin meet" x="52" y="-362.5"/>
<text text-anchor="start" x="26" y="-328.3" font-family="Times New Roman,serif" font-weight="bold" font-size="14.00">stl#undefined</text>
</g>
<!-- EAID_1689F7FB_8598_46e5_BE7E_DC319DA2CB6D_STL&#45;&gt;EAID_1689F7FB_8598_46e5_BE7E_DC319DA2CB6D -->
<g id="edge1" class="edge"><title>EAID_1689F7FB_8598_46e5_BE7E_DC319DA2CB6D_STL&#45;&gt;EAID_1689F7FB_8598_46e5_BE7E_DC319DA2CB6D</title>
<path fill="none" stroke="black" d="M67,-317.778C67,-306.692 67,-293.42 67,-281.351"/>
<polygon fill="black" stroke="black" points="70.5001,-281.139 67,-271.139 63.5001,-281.139 70.5001,-281.139"/>
</g>
<!-- EAID_068ADAEC_3A78_4087_9E42_FCB4E979D673 -->
<g id="node3" class="node"><title>EAID_068ADAEC_3A78_4087_9E42_FCB4E979D673</title>
<polygon fill="none" stroke="black" points="957,-146.5 957,-167.5 1175,-167.5 1175,-146.5 957,-146.5"/>
<text text-anchor="start" x="1002.5" y="-154.3" font-family="Times New Roman,serif" font-weight="bold" font-size="14.00">Base_module_model</text>
<polygon fill="none" stroke="black" points="957,-125.5 957,-146.5 1175,-146.5 1175,-125.5 957,-125.5"/>
<text text-anchor="start" x="984" y="-133.3" font-family="Times New Roman,serif" font-weight="bold" font-size="14.00">EAJava_Db_active_rec db</text>
<polygon fill="none" stroke="black" points="957,-104.5 957,-125.5 1175,-125.5 1175,-104.5 957,-104.5"/>
<text text-anchor="start" x="986" y="-112.3" font-family="Times New Roman,serif" font-weight="bold" font-size="14.00">EAJava_void _construct()</text>
<polygon fill="none" stroke="black" points="957,-83.5 957,-104.5 1175,-104.5 1175,-83.5 957,-83.5"/>
<text text-anchor="start" x="989.5" y="-91.3" font-family="Times New Roman,serif" font-weight="bold" font-size="14.00">EAJava_void list_items()</text>
<polygon fill="none" stroke="black" points="957,-62.5 957,-83.5 1175,-83.5 1175,-62.5 957,-62.5"/>
<text text-anchor="start" x="984" y="-70.3" font-family="Times New Roman,serif" font-weight="bold" font-size="14.00">EAJava_void form_fields()</text>
<polygon fill="none" stroke="black" points="957,-41.5 957,-62.5 1175,-62.5 1175,-41.5 957,-41.5"/>
<text text-anchor="start" x="960" y="-49.3" font-family="Times New Roman,serif" font-weight="bold" font-size="14.00">EAJava_void on_before_validate()</text>
<polygon fill="none" stroke="black" points="957,-20.5 957,-41.5 1175,-41.5 1175,-20.5 957,-20.5"/>
<text text-anchor="start" x="976" y="-28.3" font-family="Times New Roman,serif" font-weight="bold" font-size="14.00">EAJava_void on_after_post()</text>
<polygon fill="none" stroke="black" points="956,-20 956,-169 1176,-169 1176,-20 956,-20"/>
</g>
<!-- EAID_54F7932F_45C9_4ede_90D6_BF7466C1253D -->
<g id="node4" class="node"><title>EAID_54F7932F_45C9_4ede_90D6_BF7466C1253D</title>
<polygon fill="none" stroke="black" points="793,-94.5 793,-115.5 921,-115.5 921,-94.5 793,-94.5"/>
<text text-anchor="start" x="796" y="-102.3" font-family="Times New Roman,serif" font-weight="bold" font-size="14.00">Udm_library_model</text>
<polygon fill="none" stroke="black" points="793,-73.5 793,-94.5 921,-94.5 921,-73.5 793,-73.5"/>
<text text-anchor="start" x="799" y="-81.3" font-family="Times New Roman,serif" font-weight="bold" font-size="14.00">Udmlibrarymodel()</text>
<polygon fill="none" stroke="black" points="792,-72.5 792,-116.5 922,-116.5 922,-72.5 792,-72.5"/>
</g>
<!-- EAID_B4CF4987_0466_4db7_B945_20CEE3E6CAA1 -->
<g id="node5" class="node"><title>EAID_B4CF4987_0466_4db7_B945_20CEE3E6CAA1</title>
<polygon fill="none" stroke="black" points="528,-94.5 528,-115.5 757,-115.5 757,-94.5 528,-94.5"/>
<text text-anchor="start" x="571" y="-102.3" font-family="Times New Roman,serif" font-weight="bold" font-size="14.00">Udm_microsites_model</text>
<polygon fill="none" stroke="black" points="528,-73.5 528,-94.5 757,-94.5 757,-73.5 528,-73.5"/>
<text text-anchor="start" x="531" y="-81.3" font-family="Times New Roman,serif" font-weight="bold" font-size="14.00">EAJava_void email_microsite_link()</text>
<polygon fill="none" stroke="black" points="526.5,-72.5 526.5,-116.5 757.5,-116.5 757.5,-72.5 526.5,-72.5"/>
</g>
<!-- EAID_A87C57B9_2DC3_4660_9705_CD3AFB8F7944 -->
<g id="node6" class="node"><title>EAID_A87C57B9_2DC3_4660_9705_CD3AFB8F7944</title>
<polygon fill="none" stroke="black" points="351,-94.5 351,-115.5 491,-115.5 491,-94.5 351,-94.5"/>
<text text-anchor="start" x="354" y="-102.3" font-family="Times New Roman,serif" font-weight="bold" font-size="14.00">Udm_statistics_model</text>
<polygon fill="none" stroke="black" points="351,-73.5 351,-94.5 491,-94.5 491,-73.5 351,-73.5"/>
<text text-anchor="start" x="357" y="-81.3" font-family="Times New Roman,serif" font-weight="bold" font-size="14.00">Udmstatisticsmodel()</text>
<polygon fill="none" stroke="black" points="350,-72.5 350,-116.5 492,-116.5 492,-72.5 350,-72.5"/>
</g>
<!-- EAID_BD878BBE_4E5D_4d79_B379_E0EA41428A58 -->
<g id="node7" class="node"><title>EAID_BD878BBE_4E5D_4d79_B379_E0EA41428A58</title>
<polygon fill="none" stroke="black" points="203,-94.5 203,-115.5 315,-115.5 315,-94.5 203,-94.5"/>
<text text-anchor="start" x="206.5" y="-102.3" font-family="Times New Roman,serif" font-weight="bold" font-size="14.00">Udm_subsciption</text>
<polygon fill="none" stroke="black" points="203,-73.5 203,-94.5 315,-94.5 315,-73.5 203,-73.5"/>
<text text-anchor="start" x="206" y="-81.3" font-family="Times New Roman,serif" font-weight="bold" font-size="14.00">Udmsubsciption()</text>
<polygon fill="none" stroke="black" points="202,-72.5 202,-116.5 316,-116.5 316,-72.5 202,-72.5"/>
</g>
<!-- EAID_LL000000_46F2_430d_8AC0_6BBA7C3823B5 -->
<g id="node8" class="node"><title>EAID_LL000000_46F2_430d_8AC0_6BBA7C3823B5</title>
<polygon fill="none" stroke="black" points="132,-83.5 132,-104.5 167,-104.5 167,-83.5 132,-83.5"/>
<text text-anchor="start" x="135" y="-91.3" font-family="Times New Roman,serif" font-weight="bold" font-size="14.00">User</text>
<polygon fill="none" stroke="black" points="130.5,-83 130.5,-106 167.5,-106 167.5,-83 130.5,-83"/>
</g>
</g>
</svg>
