<?xml version="1.0" encoding="UTF-8" standalone="no"?>
<!DOCTYPE svg PUBLIC "-//W3C//DTD SVG 1.1//EN"
 "http://www.w3.org/Graphics/SVG/1.1/DTD/svg11.dtd">
<!-- Generated by graphviz version 2.38.0 (20140413.2041)
 -->
<!-- Title: g Pages: 1 -->
<svg width="3042pt" height="429pt"
 viewBox="0.00 0.00 3042.00 428.82" xmlns="http://www.w3.org/2000/svg" xmlns:xlink="http://www.w3.org/1999/xlink">
<g id="graph0" class="graph" transform="scale(1 1) rotate(0) translate(4 424.822)">
<title>g</title>
<polygon fill="white" stroke="none" points="-4,4 -4,-424.822 3038,-424.822 3038,4 -4,4"/>
<!-- EAID_A0245CF7_CCA9_411c_B57A_B22496A758F3 -->
<g id="node1" class="node"><title>EAID_A0245CF7_CCA9_411c_B57A_B22496A758F3</title>
<image xlink:href="img/actor1.png" width="82px" height="90px" preserveAspectRatio="xMinYMin meet" x="2181" y="-272.5"/>
<text text-anchor="start" x="2150.5" y="-159.3" font-family="Times New Roman,serif" font-size="24.00">Email protocol</text>
</g>
<!-- EAID_73C6324B_1952_42ae_8CFB_C26E41AE7369 -->
<g id="node2" class="node"><title>EAID_73C6324B_1952_42ae_8CFB_C26E41AE7369</title>
<image xlink:href="img/control1.png" width="106px" height="75px" preserveAspectRatio="xMinYMin meet" x="2403" y="-264.5"/>
<text text-anchor="start" x="2349" y="-166.3" font-family="Times New Roman,serif" font-size="24.00">check email sent status</text>
</g>
<!-- EAID_A0245CF7_CCA9_411c_B57A_B22496A758F3&#45;&gt;EAID_73C6324B_1952_42ae_8CFB_C26E41AE7369 -->
<g id="edge1" class="edge"><title>EAID_A0245CF7_CCA9_411c_B57A_B22496A758F3&#45;&gt;EAID_73C6324B_1952_42ae_8CFB_C26E41AE7369</title>
<path fill="none" stroke="black" d="M2303.16,-212.5C2311.46,-212.5 2320.02,-212.5 2328.66,-212.5"/>
<polygon fill="black" stroke="black" points="2328.82,-216 2338.82,-212.5 2328.82,-209 2328.82,-216"/>
</g>
<!-- EAID_9013B0C0_69FE_4929_B9B5_27FB04E6481A -->
<g id="node11" class="node"><title>EAID_9013B0C0_69FE_4929_B9B5_27FB04E6481A</title>
<image xlink:href="img/activity_icon.png" width="30px" height="20px" preserveAspectRatio="xMinYMin meet" x="2702" y="-331.5"/>
<text text-anchor="start" x="2667" y="-289.3" font-family="Times New Roman,serif" font-weight="bold" font-size="24.00">invitation</text>
</g>
<!-- EAID_73C6324B_1952_42ae_8CFB_C26E41AE7369&#45;&gt;EAID_9013B0C0_69FE_4929_B9B5_27FB04E6481A -->
<g id="edge22" class="edge"><title>EAID_73C6324B_1952_42ae_8CFB_C26E41AE7369&#45;&gt;EAID_9013B0C0_69FE_4929_B9B5_27FB04E6481A</title>
<path fill="none" stroke="black" d="M2573.24,-254.688C2598.54,-263.87 2624.52,-273.299 2647.27,-281.555"/>
<polygon fill="black" stroke="black" points="2646.21,-284.895 2656.81,-285.017 2648.6,-278.315 2646.21,-284.895"/>
</g>
<!-- EAID_A72F9089_1BD7_48e1_80DF_B51F49C20C10 -->
<g id="node15" class="node"><title>EAID_A72F9089_1BD7_48e1_80DF_B51F49C20C10</title>
<image xlink:href="img/control1.png" width="106px" height="75px" preserveAspectRatio="xMinYMin meet" x="2664" y="-250.5"/>
<text text-anchor="start" x="2619" y="-152.3" font-family="Times New Roman,serif" font-size="24.00">show invitation page</text>
</g>
<!-- EAID_73C6324B_1952_42ae_8CFB_C26E41AE7369&#45;&gt;EAID_A72F9089_1BD7_48e1_80DF_B51F49C20C10 -->
<g id="edge21" class="edge"><title>EAID_73C6324B_1952_42ae_8CFB_C26E41AE7369&#45;&gt;EAID_A72F9089_1BD7_48e1_80DF_B51F49C20C10</title>
<path fill="none" stroke="black" d="M2573.24,-206.217C2581.66,-205.762 2590.14,-205.303 2598.56,-204.848"/>
<polygon fill="black" stroke="black" points="2598.99,-208.33 2608.79,-204.295 2598.62,-201.34 2598.99,-208.33"/>
</g>
<!-- EAID_ABCDC839_63E1_4b71_A5A2_A3793C943627 -->
<g id="node3" class="node"><title>EAID_ABCDC839_63E1_4b71_A5A2_A3793C943627</title>
<image xlink:href="img/control1.png" width="106px" height="75px" preserveAspectRatio="xMinYMin meet" x="1927" y="-268.5"/>
<text text-anchor="start" x="1865.5" y="-170.3" font-family="Times New Roman,serif" font-size="24.00">Send an invitation email</text>
</g>
<!-- EAID_ABCDC839_63E1_4b71_A5A2_A3793C943627&#45;&gt;EAID_A0245CF7_CCA9_411c_B57A_B22496A758F3 -->
<g id="edge2" class="edge"><title>EAID_ABCDC839_63E1_4b71_A5A2_A3793C943627&#45;&gt;EAID_A0245CF7_CCA9_411c_B57A_B22496A758F3</title>
<path fill="none" stroke="black" d="M2104.02,-214.441C2112.67,-214.297 2121.3,-214.153 2129.73,-214.013"/>
<polygon fill="black" stroke="black" points="2129.95,-217.51 2139.89,-213.843 2129.84,-210.511 2129.95,-217.51"/>
</g>
<!-- EAID_D92423F9_48BC_41a1_9D3D_1392F4A50838 -->
<g id="node4" class="node"><title>EAID_D92423F9_48BC_41a1_9D3D_1392F4A50838</title>
<image xlink:href="img/actor1.png" width="61px" height="90px" preserveAspectRatio="xMinYMin meet" x="10.5" y="-219.5"/>
<text text-anchor="start" x="19" y="-106.3" font-family="Times New Roman,serif" font-size="24.00">User</text>
</g>
<!-- EAID_3DB5207D_1AFA_47e7_B7B1_5BA5A4FCE690 -->
<g id="node5" class="node"><title>EAID_3DB5207D_1AFA_47e7_B7B1_5BA5A4FCE690</title>
<image xlink:href="img/boundary3.png" width="115px" height="67px" preserveAspectRatio="xMinYMin meet" x="229.5" y="-294.5"/>
<text text-anchor="start" x="127.5" y="-204.3" font-family="Times New Roman,serif" font-size="24.00">information input invalid message</text>
</g>
<!-- EAID_D92423F9_48BC_41a1_9D3D_1392F4A50838&#45;&gt;EAID_3DB5207D_1AFA_47e7_B7B1_5BA5A4FCE690 -->
<g id="edge3" class="edge"><title>EAID_D92423F9_48BC_41a1_9D3D_1392F4A50838&#45;&gt;EAID_3DB5207D_1AFA_47e7_B7B1_5BA5A4FCE690</title>
<path fill="none" stroke="black" d="M81.2459,-173.672C93.4353,-178.018 107.675,-183.095 122.864,-188.511"/>
<polygon fill="black" stroke="black" points="121.839,-191.861 132.434,-191.923 124.19,-185.268 121.839,-191.861"/>
</g>
<!-- EAID_6B3424BC_5485_4225_861B_8E4B1EA117DD -->
<g id="node6" class="node"><title>EAID_6B3424BC_5485_4225_861B_8E4B1EA117DD</title>
<image xlink:href="img/boundary3.png" width="115px" height="67px" preserveAspectRatio="xMinYMin meet" x="2890.5" y="-413.5"/>
<text text-anchor="start" x="2871.5" y="-323.3" font-family="Times New Roman,serif" font-size="24.00">Invitation paage</text>
</g>
<!-- EAID_D92423F9_48BC_41a1_9D3D_1392F4A50838&#45;&gt;EAID_6B3424BC_5485_4225_861B_8E4B1EA117DD -->
<g id="edge4" class="edge"><title>EAID_D92423F9_48BC_41a1_9D3D_1392F4A50838&#45;&gt;EAID_6B3424BC_5485_4225_861B_8E4B1EA117DD</title>
<path fill="none" stroke="black" d="M60.5868,-225.818C72.3241,-255.482 90.3538,-288.438 117,-309.5 282.931,-440.655 368.494,-419.5 580,-419.5 580,-419.5 580,-419.5 2457,-419.5 2594.42,-419.5 2752.24,-398.213 2850.68,-382.37"/>
<polygon fill="black" stroke="black" points="2851.29,-385.815 2860.6,-380.758 2850.17,-378.906 2851.29,-385.815"/>
</g>
<!-- EAID_18DAA74D_5615_44ca_AC7A_784BEB6BDEC7 -->
<g id="node7" class="node"><title>EAID_18DAA74D_5615_44ca_AC7A_784BEB6BDEC7</title>
<image xlink:href="img/boundary3.png" width="115px" height="67px" preserveAspectRatio="xMinYMin meet" x="742.5" y="-294.5"/>
<text text-anchor="start" x="716.5" y="-204.3" font-family="Times New Roman,serif" font-size="24.00">invite friend form</text>
</g>
<!-- EAID_D92423F9_48BC_41a1_9D3D_1392F4A50838&#45;&gt;EAID_18DAA74D_5615_44ca_AC7A_784BEB6BDEC7 -->
<g id="edge5" class="edge"><title>EAID_D92423F9_48BC_41a1_9D3D_1392F4A50838&#45;&gt;EAID_18DAA74D_5615_44ca_AC7A_784BEB6BDEC7</title>
<path fill="none" stroke="black" d="M81.0005,-154.61C181.436,-143.471 453.911,-121.369 670,-178.5 679.236,-180.942 688.551,-184.148 697.718,-187.84"/>
<polygon fill="black" stroke="black" points="696.635,-191.182 707.209,-191.851 699.36,-184.734 696.635,-191.182"/>
</g>
<!-- EAID_A2D0D355_987A_4590_83BA_A238953A1339 -->
<g id="node8" class="node"><title>EAID_A2D0D355_987A_4590_83BA_A238953A1339</title>
<image xlink:href="img/boundary3.png" width="115px" height="67px" preserveAspectRatio="xMinYMin meet" x="1616" y="-169.5"/>
<text text-anchor="start" x="1547" y="-79.3" font-family="Times New Roman,serif" font-size="24.00">fried already exist message</text>
</g>
<!-- EAID_D92423F9_48BC_41a1_9D3D_1392F4A50838&#45;&gt;EAID_A2D0D355_987A_4590_83BA_A238953A1339 -->
<g id="edge6" class="edge"><title>EAID_D92423F9_48BC_41a1_9D3D_1392F4A50838&#45;&gt;EAID_A2D0D355_987A_4590_83BA_A238953A1339</title>
<path fill="none" stroke="black" d="M81.0426,-145.97C92.5087,-142.597 105.137,-139.403 117,-137.5 320.302,-104.891 374.099,-121.5 580,-121.5 580,-121.5 580,-121.5 1044.5,-121.5 1209.57,-121.5 1399.06,-121.5 1526.24,-121.5"/>
<polygon fill="black" stroke="black" points="1526.44,-125 1536.44,-121.5 1526.44,-118 1526.44,-125"/>
</g>
<!-- EAID_1D677ECB_6C55_4fa0_84E8_75DB6840910D -->
<g id="node9" class="node"><title>EAID_1D677ECB_6C55_4fa0_84E8_75DB6840910D</title>
<image xlink:href="img/boundary3.png" width="115px" height="67px" preserveAspectRatio="xMinYMin meet" x="1922" y="-102.5"/>
<text text-anchor="start" x="1886.5" y="-12.3" font-family="Times New Roman,serif" font-size="24.00">email already exists</text>
</g>
<!-- EAID_D92423F9_48BC_41a1_9D3D_1392F4A50838&#45;&gt;EAID_1D677ECB_6C55_4fa0_84E8_75DB6840910D -->
<g id="edge7" class="edge"><title>EAID_D92423F9_48BC_41a1_9D3D_1392F4A50838&#45;&gt;EAID_1D677ECB_6C55_4fa0_84E8_75DB6840910D</title>
<path fill="none" stroke="black" d="M81.1757,-131.398C92.3273,-124.612 104.762,-118.021 117,-113.5 312.541,-41.2562 371.54,-38.5 580,-38.5 580,-38.5 580,-38.5 1343.5,-38.5 1526.57,-38.5 1739.23,-45.2279 1866.12,-49.9582"/>
<polygon fill="black" stroke="black" points="1866.11,-53.4604 1876.24,-50.338 1866.38,-46.4653 1866.11,-53.4604"/>
</g>
<!-- EAID_F7F876D7_2DEF_4649_AA95_35D8317B945C -->
<g id="node16" class="node"><title>EAID_F7F876D7_2DEF_4649_AA95_35D8317B945C</title>
<image xlink:href="img/control1.png" width="106px" height="75px" preserveAspectRatio="xMinYMin meet" x="528" y="-298.5"/>
<text text-anchor="start" x="502" y="-200.3" font-family="Times New Roman,serif" font-size="24.00">cancel selections</text>
</g>
<!-- EAID_3DB5207D_1AFA_47e7_B7B1_5BA5A4FCE690&#45;&gt;EAID_F7F876D7_2DEF_4649_AA95_35D8317B945C -->
<g id="edge20" class="edge"><title>EAID_3DB5207D_1AFA_47e7_B7B1_5BA5A4FCE690&#45;&gt;EAID_F7F876D7_2DEF_4649_AA95_35D8317B945C</title>
<path fill="none" stroke="black" d="M456.378,-246.5C465.023,-246.5 473.559,-246.5 481.863,-246.5"/>
<polygon fill="black" stroke="black" points="481.869,-250 491.869,-246.5 481.868,-243 481.869,-250"/>
</g>
<!-- EAID_3ADA9BD8_7F9F_4aec_943C_E1DF3683BC27 -->
<g id="node14" class="node"><title>EAID_3ADA9BD8_7F9F_4aec_943C_E1DF3683BC27</title>
<image xlink:href="img/control1.png" width="106px" height="75px" preserveAspectRatio="xMinYMin meet" x="991" y="-304.5"/>
<text text-anchor="start" x="939.5" y="-206.3" font-family="Times New Roman,serif" font-size="24.00">Check if input is valid</text>
</g>
<!-- EAID_18DAA74D_5615_44ca_AC7A_784BEB6BDEC7&#45;&gt;EAID_3ADA9BD8_7F9F_4aec_943C_E1DF3683BC27 -->
<g id="edge17" class="edge"><title>EAID_18DAA74D_5615_44ca_AC7A_784BEB6BDEC7&#45;&gt;EAID_3ADA9BD8_7F9F_4aec_943C_E1DF3683BC27</title>
<path fill="none" stroke="black" d="M893.026,-248.794C901.465,-249.003 910.101,-249.217 918.755,-249.432"/>
<polygon fill="black" stroke="black" points="918.829,-252.935 928.913,-249.684 919.002,-245.937 918.829,-252.935"/>
</g>
<!-- EAID_E2299DA9_AF08_4939_8AA3_2234591ED4B9 -->
<g id="node10" class="node"><title>EAID_E2299DA9_AF08_4939_8AA3_2234591ED4B9</title>
<image xlink:href="img/control1.png" width="106px" height="75px" preserveAspectRatio="xMinYMin meet" x="1620" y="-304.5"/>
<text text-anchor="start" x="1537" y="-206.3" font-family="Times New Roman,serif" font-size="24.00">Check if email already exists</text>
</g>
<!-- EAID_E2299DA9_AF08_4939_8AA3_2234591ED4B9&#45;&gt;EAID_ABCDC839_63E1_4b71_A5A2_A3793C943627 -->
<g id="edge9" class="edge"><title>EAID_E2299DA9_AF08_4939_8AA3_2234591ED4B9&#45;&gt;EAID_ABCDC839_63E1_4b71_A5A2_A3793C943627</title>
<path fill="none" stroke="black" d="M1819.12,-235.343C1827.7,-234.328 1836.32,-233.309 1844.86,-232.3"/>
<polygon fill="black" stroke="black" points="1845.32,-235.77 1854.84,-231.12 1844.5,-228.818 1845.32,-235.77"/>
</g>
<!-- EAID_E2299DA9_AF08_4939_8AA3_2234591ED4B9&#45;&gt;EAID_6B3424BC_5485_4225_861B_8E4B1EA117DD -->
<g id="edge8" class="edge"><title>EAID_E2299DA9_AF08_4939_8AA3_2234591ED4B9&#45;&gt;EAID_6B3424BC_5485_4225_861B_8E4B1EA117DD</title>
<path fill="none" stroke="black" d="M1819.03,-299.277C1928.21,-330.364 2082.2,-365.5 2220.5,-365.5 2220.5,-365.5 2220.5,-365.5 2457,-365.5 2593.66,-365.5 2751.78,-365.5 2850.48,-365.5"/>
<polygon fill="black" stroke="black" points="2850.73,-369 2860.73,-365.5 2850.73,-362 2850.73,-369"/>
</g>
<!-- EAID_E2299DA9_AF08_4939_8AA3_2234591ED4B9&#45;&gt;EAID_1D677ECB_6C55_4fa0_84E8_75DB6840910D -->
<g id="edge11" class="edge"><title>EAID_E2299DA9_AF08_4939_8AA3_2234591ED4B9&#45;&gt;EAID_1D677ECB_6C55_4fa0_84E8_75DB6840910D</title>
<path fill="none" stroke="black" d="M1804.88,-193.825C1809.72,-190.805 1814.45,-187.695 1819,-184.5 1837.52,-171.501 1837.96,-163.386 1855,-148.5 1867.72,-137.386 1881.62,-126.078 1895.36,-115.338"/>
<polygon fill="black" stroke="black" points="1897.66,-117.981 1903.41,-109.085 1893.37,-112.45 1897.66,-117.981"/>
</g>
<!-- EAID_E2299DA9_AF08_4939_8AA3_2234591ED4B9&#45;&gt;EAID_9013B0C0_69FE_4929_B9B5_27FB04E6481A -->
<g id="edge10" class="edge"><title>EAID_E2299DA9_AF08_4939_8AA3_2234591ED4B9&#45;&gt;EAID_9013B0C0_69FE_4929_B9B5_27FB04E6481A</title>
<path fill="none" stroke="black" d="M1819.47,-279.274C1831.46,-280.914 1843.42,-282.36 1855,-283.5 2148.19,-312.374 2500.07,-310.427 2646.64,-307.998"/>
<polygon fill="black" stroke="black" points="2646.9,-311.494 2656.84,-307.823 2646.78,-304.495 2646.9,-311.494"/>
</g>
<!-- EAID_A051DDE3_1392_44c1_8ACD_DBA4AF225EB3 -->
<g id="node12" class="node"><title>EAID_A051DDE3_1392_44c1_8ACD_DBA4AF225EB3</title>
<image xlink:href="img/control1.png" width="106px" height="75px" preserveAspectRatio="xMinYMin meet" x="1290" y="-304.5"/>
<text text-anchor="start" x="1204.5" y="-206.3" font-family="Times New Roman,serif" font-size="24.00">Check if friend already exists</text>
</g>
<!-- EAID_A051DDE3_1392_44c1_8ACD_DBA4AF225EB3&#45;&gt;EAID_A2D0D355_987A_4590_83BA_A238953A1339 -->
<g id="edge14" class="edge"><title>EAID_A051DDE3_1392_44c1_8ACD_DBA4AF225EB3&#45;&gt;EAID_A2D0D355_987A_4590_83BA_A238953A1339</title>
<path fill="none" stroke="black" d="M1490.46,-193.897C1502.52,-189.086 1514.71,-184.225 1526.76,-179.419"/>
<polygon fill="black" stroke="black" points="1528.4,-182.533 1536.39,-175.578 1525.81,-176.031 1528.4,-182.533"/>
</g>
<!-- EAID_A051DDE3_1392_44c1_8ACD_DBA4AF225EB3&#45;&gt;EAID_E2299DA9_AF08_4939_8AA3_2234591ED4B9 -->
<g id="edge12" class="edge"><title>EAID_A051DDE3_1392_44c1_8ACD_DBA4AF225EB3&#45;&gt;EAID_E2299DA9_AF08_4939_8AA3_2234591ED4B9</title>
<path fill="none" stroke="black" d="M1491.41,-252.5C1499.77,-252.5 1508.18,-252.5 1516.56,-252.5"/>
<polygon fill="black" stroke="black" points="1516.76,-256 1526.76,-252.5 1516.76,-249 1516.76,-256"/>
</g>
<!-- EAID_B89BC635_C073_465c_8957_C137CE5D99EF -->
<g id="node13" class="node"><title>EAID_B89BC635_C073_465c_8957_C137CE5D99EF</title>
<image xlink:href="img/activity_icon.png" width="30px" height="20px" preserveAspectRatio="xMinYMin meet" x="1658" y="-385.5"/>
<text text-anchor="start" x="1641" y="-343.3" font-family="Times New Roman,serif" font-weight="bold" font-size="24.00">friend</text>
</g>
<!-- EAID_A051DDE3_1392_44c1_8ACD_DBA4AF225EB3&#45;&gt;EAID_B89BC635_C073_465c_8957_C137CE5D99EF -->
<g id="edge13" class="edge"><title>EAID_A051DDE3_1392_44c1_8ACD_DBA4AF225EB3&#45;&gt;EAID_B89BC635_C073_465c_8957_C137CE5D99EF</title>
<path fill="none" stroke="black" d="M1491.15,-307.487C1503.24,-311.661 1515.3,-315.717 1527,-319.5 1557.93,-329.503 1592.99,-339.453 1620.88,-347.046"/>
<polygon fill="black" stroke="black" points="1620.25,-350.501 1630.82,-349.733 1622.08,-343.743 1620.25,-350.501"/>
</g>
<!-- EAID_3ADA9BD8_7F9F_4aec_943C_E1DF3683BC27&#45;&gt;EAID_3DB5207D_1AFA_47e7_B7B1_5BA5A4FCE690 -->
<g id="edge16" class="edge"><title>EAID_3ADA9BD8_7F9F_4aec_943C_E1DF3683BC27&#45;&gt;EAID_3DB5207D_1AFA_47e7_B7B1_5BA5A4FCE690</title>
<path fill="none" stroke="black" d="M928.591,-300.504C916.732,-304.117 904.727,-307.231 893,-309.5 891.707,-309.75 527.006,-319.088 492,-313.5 476.648,-311.049 460.883,-307.625 445.245,-303.608"/>
<polygon fill="black" stroke="black" points="446.093,-300.212 435.53,-301.034 444.3,-306.978 446.093,-300.212"/>
</g>
<!-- EAID_3ADA9BD8_7F9F_4aec_943C_E1DF3683BC27&#45;&gt;EAID_A051DDE3_1392_44c1_8ACD_DBA4AF225EB3 -->
<g id="edge15" class="edge"><title>EAID_3ADA9BD8_7F9F_4aec_943C_E1DF3683BC27&#45;&gt;EAID_A051DDE3_1392_44c1_8ACD_DBA4AF225EB3</title>
<path fill="none" stroke="black" d="M1158.05,-252.5C1166.47,-252.5 1175.04,-252.5 1183.66,-252.5"/>
<polygon fill="black" stroke="black" points="1183.79,-256 1193.79,-252.5 1183.79,-249 1183.79,-256"/>
</g>
<!-- EAID_A72F9089_1BD7_48e1_80DF_B51F49C20C10&#45;&gt;EAID_6B3424BC_5485_4225_861B_8E4B1EA117DD -->
<g id="edge18" class="edge"><title>EAID_A72F9089_1BD7_48e1_80DF_B51F49C20C10&#45;&gt;EAID_6B3424BC_5485_4225_861B_8E4B1EA117DD</title>
<path fill="none" stroke="black" d="M2811.52,-257.011C2816.11,-260.171 2820.63,-263.345 2825,-266.5 2841.4,-278.333 2858.53,-291.642 2874.57,-304.571"/>
<polygon fill="black" stroke="black" points="2872.37,-307.299 2882.34,-310.879 2876.78,-301.862 2872.37,-307.299"/>
</g>
<!-- EAID_F7F876D7_2DEF_4649_AA95_35D8317B945C&#45;&gt;EAID_18DAA74D_5615_44ca_AC7A_784BEB6BDEC7 -->
<g id="edge19" class="edge"><title>EAID_F7F876D7_2DEF_4649_AA95_35D8317B945C&#45;&gt;EAID_18DAA74D_5615_44ca_AC7A_784BEB6BDEC7</title>
<path fill="none" stroke="black" d="M670.059,-246.5C678.557,-246.5 687.228,-246.5 695.851,-246.5"/>
<polygon fill="black" stroke="black" points="695.939,-250 705.939,-246.5 695.939,-243 695.939,-250"/>
</g>
</g>
</svg>
