<?xml version="1.0" encoding="UTF-8" standalone="no"?>
<!DOCTYPE svg PUBLIC "-//W3C//DTD SVG 1.1//EN"
 "http://www.w3.org/Graphics/SVG/1.1/DTD/svg11.dtd">
<!-- Generated by graphviz version 2.38.0 (20140413.2041)
 -->
<!-- Title: g Pages: 1 -->
<svg width="2047pt" height="361pt"
 viewBox="0.00 0.00 2047.00 360.87" xmlns="http://www.w3.org/2000/svg" xmlns:xlink="http://www.w3.org/1999/xlink">
<g id="graph0" class="graph" transform="scale(1 1) rotate(0) translate(4 356.871)">
<title>g</title>
<polygon fill="white" stroke="none" points="-4,4 -4,-356.871 2043,-356.871 2043,4 -4,4"/>
<!-- EAID_DD108B99_0E4B_435d_A760_89212B55875A -->
<g id="node1" class="node"><title>EAID_DD108B99_0E4B_435d_A760_89212B55875A</title>
<text text-anchor="start" x="11.5" y="-241.8" font-family="Times New Roman,serif" font-size="24.00">Administrator</text>
</g>
<!-- EAID_8E11EA44_5B82_45ff_9999_668030F04C4B -->
<g id="node2" class="node"><title>EAID_8E11EA44_5B82_45ff_9999_668030F04C4B</title>
<text text-anchor="start" x="1423" y="-208.8" font-family="Times New Roman,serif" font-size="24.00">invalid answer for security question</text>
</g>
<!-- EAID_DD108B99_0E4B_435d_A760_89212B55875A&#45;&gt;EAID_8E11EA44_5B82_45ff_9999_668030F04C4B -->
<g id="edge1" class="edge"><title>EAID_DD108B99_0E4B_435d_A760_89212B55875A&#45;&gt;EAID_8E11EA44_5B82_45ff_9999_668030F04C4B</title>
<path fill="none" stroke="black" d="M153.507,-255.318C166.021,-256.018 178.873,-256.623 191,-257 543.274,-267.949 634.785,-304.601 984,-257 1000.45,-254.757 1003.61,-249.675 1020,-247 1146.62,-226.337 1290.96,-218.901 1402.7,-216.598"/>
<polygon fill="black" stroke="black" points="1402.8,-220.097 1412.73,-216.403 1402.66,-213.098 1402.8,-220.097"/>
</g>
<!-- EAID_8376DC71_6A4C_488e_9642_1C09CA56115C -->
<g id="node3" class="node"><title>EAID_8376DC71_6A4C_488e_9642_1C09CA56115C</title>
<text text-anchor="start" x="1815" y="-238.8" font-family="Times New Roman,serif" font-size="24.00">case management page</text>
</g>
<!-- EAID_DD108B99_0E4B_435d_A760_89212B55875A&#45;&gt;EAID_8376DC71_6A4C_488e_9642_1C09CA56115C -->
<g id="edge2" class="edge"><title>EAID_DD108B99_0E4B_435d_A760_89212B55875A&#45;&gt;EAID_8376DC71_6A4C_488e_9642_1C09CA56115C</title>
<path fill="none" stroke="black" d="M153.536,-269.178C248.361,-291.692 416.906,-326 563.5,-326 563.5,-326 563.5,-326 1199.5,-326 1452.75,-326 1532.35,-397.172 1769,-307 1788.46,-299.584 1786.47,-286.505 1805,-277 1808.54,-275.183 1812.2,-273.47 1815.95,-271.856"/>
<polygon fill="black" stroke="black" points="1817.43,-275.03 1825.4,-268.043 1814.81,-268.539 1817.43,-275.03"/>
</g>
<!-- EAID_6BEF8BD0_0C8F_43cb_933B_220C4CAB3517 -->
<g id="node4" class="node"><title>EAID_6BEF8BD0_0C8F_43cb_933B_220C4CAB3517</title>
<text text-anchor="start" x="797.5" y="-98.8" font-family="Times New Roman,serif" font-size="24.00">reset page</text>
</g>
<!-- EAID_DD108B99_0E4B_435d_A760_89212B55875A&#45;&gt;EAID_6BEF8BD0_0C8F_43cb_933B_220C4CAB3517 -->
<g id="edge3" class="edge"><title>EAID_DD108B99_0E4B_435d_A760_89212B55875A&#45;&gt;EAID_6BEF8BD0_0C8F_43cb_933B_220C4CAB3517</title>
<path fill="none" stroke="black" d="M91.3398,-228.821C109.554,-201.008 145.764,-153.332 191,-133 243.311,-109.488 620.596,-106.901 776.432,-106.849"/>
<polygon fill="black" stroke="black" points="776.817,-110.349 786.817,-106.849 776.817,-103.349 776.817,-110.349"/>
</g>
<!-- EAID_F3FB5324_A8CF_4048_8ED7_818510870C43 -->
<g id="node5" class="node"><title>EAID_F3FB5324_A8CF_4048_8ED7_818510870C43</title>
<text text-anchor="start" x="201.5" y="-154.8" font-family="Times New Roman,serif" font-size="24.00">Reset password button</text>
</g>
<!-- EAID_DD108B99_0E4B_435d_A760_89212B55875A&#45;&gt;EAID_F3FB5324_A8CF_4048_8ED7_818510870C43 -->
<g id="edge4" class="edge"><title>EAID_DD108B99_0E4B_435d_A760_89212B55875A&#45;&gt;EAID_F3FB5324_A8CF_4048_8ED7_818510870C43</title>
<path fill="none" stroke="black" d="M133.692,-228.94C166.339,-216.483 207.845,-200.645 241.997,-187.613"/>
<polygon fill="black" stroke="black" points="243.326,-190.852 251.421,-184.017 240.83,-184.312 243.326,-190.852"/>
</g>
<!-- EAID_FA4225A1_1E58_439e_88BE_B9C0376EFF09 -->
<g id="node6" class="node"><title>EAID_FA4225A1_1E58_439e_88BE_B9C0376EFF09</title>
<text text-anchor="start" x="715.5" y="-218.8" font-family="Times New Roman,serif" font-size="24.00">unauthorized error message</text>
</g>
<!-- EAID_DD108B99_0E4B_435d_A760_89212B55875A&#45;&gt;EAID_FA4225A1_1E58_439e_88BE_B9C0376EFF09 -->
<g id="edge5" class="edge"><title>EAID_DD108B99_0E4B_435d_A760_89212B55875A&#45;&gt;EAID_FA4225A1_1E58_439e_88BE_B9C0376EFF09</title>
<path fill="none" stroke="black" d="M153.594,-247.742C278.781,-243.978 532.379,-236.354 694.777,-231.471"/>
<polygon fill="black" stroke="black" points="694.965,-234.967 704.856,-231.168 694.755,-227.971 694.965,-234.967"/>
</g>
<!-- EAID_4BE39468_912C_4e4c_A8D9_355CB6044341 -->
<g id="node11" class="node"><title>EAID_4BE39468_912C_4e4c_A8D9_355CB6044341</title>
<text text-anchor="start" x="1030.5" y="-268.8" font-family="Times New Roman,serif" font-size="24.00">validate answer of security question</text>
</g>
<!-- EAID_6BEF8BD0_0C8F_43cb_933B_220C4CAB3517&#45;&gt;EAID_4BE39468_912C_4e4c_A8D9_355CB6044341 -->
<g id="edge16" class="edge"><title>EAID_6BEF8BD0_0C8F_43cb_933B_220C4CAB3517&#45;&gt;EAID_4BE39468_912C_4e4c_A8D9_355CB6044341</title>
<path fill="none" stroke="black" d="M902.19,-114.445C927.838,-119.024 958.133,-126.159 984,-137 1053.22,-166.011 1124.28,-217.897 1164.46,-249.703"/>
<polygon fill="black" stroke="black" points="1162.32,-252.47 1172.31,-255.977 1166.69,-247.001 1162.32,-252.47"/>
</g>
<!-- EAID_0093C280_0180_409f_A666_1CFE8E469DB8 -->
<g id="node8" class="node"><title>EAID_0093C280_0180_409f_A666_1CFE8E469DB8</title>
<text text-anchor="start" x="470.5" y="-154.8" font-family="Times New Roman,serif" font-size="24.00">validate role of user</text>
</g>
<!-- EAID_F3FB5324_A8CF_4048_8ED7_818510870C43&#45;&gt;EAID_0093C280_0180_409f_A666_1CFE8E469DB8 -->
<g id="edge11" class="edge"><title>EAID_F3FB5324_A8CF_4048_8ED7_818510870C43&#45;&gt;EAID_0093C280_0180_409f_A666_1CFE8E469DB8</title>
<path fill="none" stroke="black" d="M424.062,-163C432.494,-163 440.996,-163 449.419,-163"/>
<polygon fill="black" stroke="black" points="449.644,-166.5 459.644,-163 449.644,-159.5 449.644,-166.5"/>
</g>
<!-- EAID_F4BC1978_C269_4c8d_8F9F_1C7DD4B46292 -->
<g id="node7" class="node"><title>EAID_F4BC1978_C269_4c8d_8F9F_1C7DD4B46292</title>
<text text-anchor="start" x="10.5" y="-67.8" font-family="Times New Roman,serif" font-size="24.00">Case Manager</text>
</g>
<!-- EAID_F4BC1978_C269_4c8d_8F9F_1C7DD4B46292&#45;&gt;EAID_8E11EA44_5B82_45ff_9999_668030F04C4B -->
<g id="edge8" class="edge"><title>EAID_F4BC1978_C269_4c8d_8F9F_1C7DD4B46292&#45;&gt;EAID_8E11EA44_5B82_45ff_9999_668030F04C4B</title>
<path fill="none" stroke="black" d="M155.214,-66.2634C250.703,-55.0045 418.863,-38 563.5,-38 563.5,-38 563.5,-38 845.5,-38 1106.24,-38 1404.47,-143.077 1529.69,-192.216"/>
<polygon fill="black" stroke="black" points="1528.53,-195.523 1539.12,-195.94 1531.1,-189.012 1528.53,-195.523"/>
</g>
<!-- EAID_F4BC1978_C269_4c8d_8F9F_1C7DD4B46292&#45;&gt;EAID_8376DC71_6A4C_488e_9642_1C09CA56115C -->
<g id="edge9" class="edge"><title>EAID_F4BC1978_C269_4c8d_8F9F_1C7DD4B46292&#45;&gt;EAID_8376DC71_6A4C_488e_9642_1C09CA56115C</title>
<path fill="none" stroke="black" d="M132.74,-54.9421C151.004,-48.5903 171.659,-42.1972 191,-38 353.629,-2.70666 397.085,-1.019e-014 563.5,-0 563.5,-0 563.5,-0 1199.5,-0 1469.93,-2.76446e-014 1768.14,-157.244 1877.63,-220.808"/>
<polygon fill="black" stroke="black" points="1876.02,-223.917 1886.42,-225.941 1879.55,-217.873 1876.02,-223.917"/>
</g>
<!-- EAID_F4BC1978_C269_4c8d_8F9F_1C7DD4B46292&#45;&gt;EAID_6BEF8BD0_0C8F_43cb_933B_220C4CAB3517 -->
<g id="edge6" class="edge"><title>EAID_F4BC1978_C269_4c8d_8F9F_1C7DD4B46292&#45;&gt;EAID_6BEF8BD0_0C8F_43cb_933B_220C4CAB3517</title>
<path fill="none" stroke="black" d="M155,-79.1C304.884,-85.1737 634.912,-98.5474 776.661,-104.291"/>
<polygon fill="black" stroke="black" points="776.81,-107.8 786.943,-104.708 777.093,-100.806 776.81,-107.8"/>
</g>
<!-- EAID_F4BC1978_C269_4c8d_8F9F_1C7DD4B46292&#45;&gt;EAID_F3FB5324_A8CF_4048_8ED7_818510870C43 -->
<g id="edge7" class="edge"><title>EAID_F4BC1978_C269_4c8d_8F9F_1C7DD4B46292&#45;&gt;EAID_F3FB5324_A8CF_4048_8ED7_818510870C43</title>
<path fill="none" stroke="black" d="M133.692,-97.0603C166.339,-109.517 207.845,-125.355 241.997,-138.387"/>
<polygon fill="black" stroke="black" points="240.83,-141.688 251.421,-141.983 243.326,-135.148 240.83,-141.688"/>
</g>
<!-- EAID_F4BC1978_C269_4c8d_8F9F_1C7DD4B46292&#45;&gt;EAID_FA4225A1_1E58_439e_88BE_B9C0376EFF09 -->
<g id="edge10" class="edge"><title>EAID_F4BC1978_C269_4c8d_8F9F_1C7DD4B46292&#45;&gt;EAID_FA4225A1_1E58_439e_88BE_B9C0376EFF09</title>
<path fill="none" stroke="black" d="M91.3765,-97.0985C109.632,-124.819 145.889,-172.391 191,-193 235.493,-213.326 516.254,-221.697 694.697,-224.995"/>
<polygon fill="black" stroke="black" points="694.644,-228.495 704.706,-225.177 694.771,-221.496 694.644,-228.495"/>
</g>
<!-- EAID_0093C280_0180_409f_A666_1CFE8E469DB8&#45;&gt;EAID_6BEF8BD0_0C8F_43cb_933B_220C4CAB3517 -->
<g id="edge17" class="edge"><title>EAID_0093C280_0180_409f_A666_1CFE8E469DB8&#45;&gt;EAID_6BEF8BD0_0C8F_43cb_933B_220C4CAB3517</title>
<path fill="none" stroke="black" d="M669.017,-142.148C704.956,-134.908 744.286,-126.985 776.494,-120.498"/>
<polygon fill="black" stroke="black" points="777.575,-123.85 786.687,-118.444 776.193,-116.988 777.575,-123.85"/>
</g>
<!-- EAID_0093C280_0180_409f_A666_1CFE8E469DB8&#45;&gt;EAID_FA4225A1_1E58_439e_88BE_B9C0376EFF09 -->
<g id="edge19" class="edge"><title>EAID_0093C280_0180_409f_A666_1CFE8E469DB8&#45;&gt;EAID_FA4225A1_1E58_439e_88BE_B9C0376EFF09</title>
<path fill="none" stroke="black" d="M650.253,-184.026C668.303,-188.401 687.266,-192.919 705,-197 714.62,-199.214 724.628,-201.471 734.664,-203.703"/>
<polygon fill="black" stroke="black" points="734.176,-207.18 744.697,-205.924 735.69,-200.345 734.176,-207.18"/>
</g>
<!-- EAID_EFF31EC8_E490_47ce_A13D_4FD3730B0670 -->
<g id="node12" class="node"><title>EAID_EFF31EC8_E490_47ce_A13D_4FD3730B0670</title>
<text text-anchor="start" x="825.5" y="-158.8" font-family="Times New Roman,serif" font-size="24.00">role</text>
</g>
<!-- EAID_0093C280_0180_409f_A666_1CFE8E469DB8&#45;&gt;EAID_EFF31EC8_E490_47ce_A13D_4FD3730B0670 -->
<g id="edge18" class="edge"><title>EAID_0093C280_0180_409f_A666_1CFE8E469DB8&#45;&gt;EAID_EFF31EC8_E490_47ce_A13D_4FD3730B0670</title>
<path fill="none" stroke="black" d="M669.017,-164.489C716.583,-165.174 770.091,-165.944 805.162,-166.448"/>
<polygon fill="black" stroke="black" points="805.377,-169.952 815.427,-166.596 805.478,-162.952 805.377,-169.952"/>
</g>
<!-- EAID_60DA6F63_8A12_4763_9924_D79A7B6156D5 -->
<g id="node9" class="node"><title>EAID_60DA6F63_8A12_4763_9924_D79A7B6156D5</title>
<text text-anchor="start" x="1499" y="-268.8" font-family="Times New Roman,serif" font-size="24.00">reset new password</text>
</g>
<!-- EAID_60DA6F63_8A12_4763_9924_D79A7B6156D5&#45;&gt;EAID_8376DC71_6A4C_488e_9642_1C09CA56115C -->
<g id="edge13" class="edge"><title>EAID_60DA6F63_8A12_4763_9924_D79A7B6156D5&#45;&gt;EAID_8376DC71_6A4C_488e_9642_1C09CA56115C</title>
<path fill="none" stroke="black" d="M1693.4,-267.754C1725.39,-264.837 1761.14,-261.577 1794.66,-258.521"/>
<polygon fill="black" stroke="black" points="1795.34,-261.973 1804.98,-257.579 1794.7,-255.002 1795.34,-261.973"/>
</g>
<!-- EAID_9B8E8927_591B_4d88_90FA_AF50FFCDA1CA -->
<g id="node10" class="node"><title>EAID_9B8E8927_591B_4d88_90FA_AF50FFCDA1CA</title>
<text text-anchor="start" x="1900" y="-298.8" font-family="Times New Roman,serif" font-size="24.00">User</text>
</g>
<!-- EAID_60DA6F63_8A12_4763_9924_D79A7B6156D5&#45;&gt;EAID_9B8E8927_591B_4d88_90FA_AF50FFCDA1CA -->
<g id="edge12" class="edge"><title>EAID_60DA6F63_8A12_4763_9924_D79A7B6156D5&#45;&gt;EAID_9B8E8927_591B_4d88_90FA_AF50FFCDA1CA</title>
<path fill="none" stroke="black" d="M1693.4,-286.246C1756.23,-291.976 1833.56,-299.026 1879.98,-303.259"/>
<polygon fill="black" stroke="black" points="1879.68,-306.747 1889.96,-304.169 1880.32,-299.776 1879.68,-306.747"/>
</g>
<!-- EAID_4BE39468_912C_4e4c_A8D9_355CB6044341&#45;&gt;EAID_8E11EA44_5B82_45ff_9999_668030F04C4B -->
<g id="edge14" class="edge"><title>EAID_4BE39468_912C_4e4c_A8D9_355CB6044341&#45;&gt;EAID_8E11EA44_5B82_45ff_9999_668030F04C4B</title>
<path fill="none" stroke="black" d="M1336.35,-255.973C1370.77,-250.685 1407.85,-244.987 1442.75,-239.624"/>
<polygon fill="black" stroke="black" points="1443.67,-243.025 1453.02,-238.047 1442.61,-236.106 1443.67,-243.025"/>
</g>
<!-- EAID_4BE39468_912C_4e4c_A8D9_355CB6044341&#45;&gt;EAID_60DA6F63_8A12_4763_9924_D79A7B6156D5 -->
<g id="edge15" class="edge"><title>EAID_4BE39468_912C_4e4c_A8D9_355CB6044341&#45;&gt;EAID_60DA6F63_8A12_4763_9924_D79A7B6156D5</title>
<path fill="none" stroke="black" d="M1377.04,-277C1411.67,-277 1447.05,-277 1478.78,-277"/>
<polygon fill="black" stroke="black" points="1478.95,-280.5 1488.95,-277 1478.95,-273.5 1478.95,-280.5"/>
</g>
</g>
</svg>
