<?xml version="1.0" encoding="UTF-8" standalone="no"?>
<!DOCTYPE svg PUBLIC "-//W3C//DTD SVG 1.1//EN"
 "http://www.w3.org/Graphics/SVG/1.1/DTD/svg11.dtd">
<!-- Generated by graphviz version 2.38.0 (20140413.2041)
 -->
<!-- Title: g Pages: 1 -->
<svg width="629pt" height="476pt"
 viewBox="0.00 0.00 629.33 476.00" xmlns="http://www.w3.org/2000/svg" xmlns:xlink="http://www.w3.org/1999/xlink">
<g id="graph0" class="graph" transform="scale(1 1) rotate(0) translate(4 472)">
<title>g</title>
<polygon fill="white" stroke="none" points="-4,4 -4,-472 625.33,-472 625.33,4 -4,4"/>
<!-- inactivtate the user -->
<g id="node1" class="node"><title>inactivtate the user</title>
<ellipse fill="none" stroke="black" cx="372.84" cy="-90" rx="77.1866" ry="18"/>
<text text-anchor="middle" x="372.84" y="-86.3" font-family="Times New Roman,serif" font-size="14.00">inactivtate the user</text>
</g>
<!-- User -->
<g id="node2" class="node"><title>User</title>
<ellipse fill="none" stroke="black" cx="372.84" cy="-18" rx="27.8951" ry="18"/>
<text text-anchor="middle" x="372.84" y="-14.3" font-family="Times New Roman,serif" font-size="14.00">User</text>
</g>
<!-- inactivtate the user&#45;&gt;User -->
<g id="edge1" class="edge"><title>inactivtate the user&#45;&gt;User</title>
<path fill="none" stroke="black" d="M372.84,-71.6966C372.84,-63.9827 372.84,-54.7125 372.84,-46.1124"/>
<polygon fill="black" stroke="black" points="376.34,-46.1043 372.84,-36.1043 369.34,-46.1044 376.34,-46.1043"/>
</g>
<!-- activation success message -->
<g id="node3" class="node"><title>activation success message</title>
<ellipse fill="none" stroke="black" cx="109.84" cy="-18" rx="109.681" ry="18"/>
<text text-anchor="middle" x="109.84" y="-14.3" font-family="Times New Roman,serif" font-size="14.00">activation success message</text>
</g>
<!-- inactivtate the user&#45;&gt;activation success message -->
<g id="edge2" class="edge"><title>inactivtate the user&#45;&gt;activation success message</title>
<path fill="none" stroke="black" d="M323.988,-75.9976C281.916,-64.7997 220.863,-48.5497 174.701,-36.2633"/>
<polygon fill="black" stroke="black" points="175.357,-32.8162 164.794,-33.6263 173.557,-39.5807 175.357,-32.8162"/>
</g>
<!-- check the status of user -->
<g id="node4" class="node"><title>check the status of user</title>
<ellipse fill="none" stroke="black" cx="221.84" cy="-162" rx="96.6831" ry="18"/>
<text text-anchor="middle" x="221.84" y="-158.3" font-family="Times New Roman,serif" font-size="14.00">check the status of user</text>
</g>
<!-- check the status of user&#45;&gt;inactivtate the user -->
<g id="edge3" class="edge"><title>check the status of user&#45;&gt;inactivtate the user</title>
<path fill="none" stroke="black" d="M256.104,-145.116C278.13,-134.905 306.909,-121.564 330.381,-110.683"/>
<polygon fill="black" stroke="black" points="332.149,-113.721 339.749,-106.34 329.205,-107.371 332.149,-113.721"/>
</g>
<!-- user is already inactivated error -->
<g id="node5" class="node"><title>user is already inactivated error</title>
<ellipse fill="none" stroke="black" cx="153.84" cy="-90" rx="123.478" ry="18"/>
<text text-anchor="middle" x="153.84" y="-86.3" font-family="Times New Roman,serif" font-size="14.00">user is already inactivated error</text>
</g>
<!-- check the status of user&#45;&gt;user is already inactivated error -->
<g id="edge4" class="edge"><title>check the status of user&#45;&gt;user is already inactivated error</title>
<path fill="none" stroke="black" d="M205.379,-144.055C197.067,-135.498 186.829,-124.959 177.674,-115.535"/>
<polygon fill="black" stroke="black" points="180.1,-113.009 170.622,-108.275 175.079,-117.887 180.1,-113.009"/>
</g>
<!-- user management page -->
<g id="node6" class="node"><title>user management page</title>
<ellipse fill="none" stroke="black" cx="217.84" cy="-234" rx="92.8835" ry="18"/>
<text text-anchor="middle" x="217.84" y="-230.3" font-family="Times New Roman,serif" font-size="14.00">user management page</text>
</g>
<!-- user management page&#45;&gt;check the status of user -->
<g id="edge5" class="edge"><title>user management page&#45;&gt;check the status of user</title>
<path fill="none" stroke="black" d="M218.829,-215.697C219.27,-207.983 219.8,-198.712 220.291,-190.112"/>
<polygon fill="black" stroke="black" points="223.787,-190.288 220.863,-180.104 216.798,-189.888 223.787,-190.288"/>
</g>
<!-- validate role of user -->
<g id="node7" class="node"><title>validate role of user</title>
<ellipse fill="none" stroke="black" cx="352.84" cy="-306" rx="81.7856" ry="18"/>
<text text-anchor="middle" x="352.84" y="-302.3" font-family="Times New Roman,serif" font-size="14.00">validate role of user</text>
</g>
<!-- validate role of user&#45;&gt;user management page -->
<g id="edge7" class="edge"><title>validate role of user&#45;&gt;user management page</title>
<path fill="none" stroke="black" d="M322.207,-289.116C303.182,-279.251 278.522,-266.465 257.95,-255.797"/>
<polygon fill="black" stroke="black" points="259.309,-252.56 248.82,-251.064 256.086,-258.774 259.309,-252.56"/>
</g>
<!-- unauthorized error message -->
<g id="node8" class="node"><title>unauthorized error message</title>
<ellipse fill="none" stroke="black" cx="510.84" cy="-234" rx="110.48" ry="18"/>
<text text-anchor="middle" x="510.84" y="-230.3" font-family="Times New Roman,serif" font-size="14.00">unauthorized error message</text>
</g>
<!-- validate role of user&#45;&gt;unauthorized error message -->
<g id="edge6" class="edge"><title>validate role of user&#45;&gt;unauthorized error message</title>
<path fill="none" stroke="black" d="M387.514,-289.638C410.39,-279.503 440.598,-266.12 465.391,-255.136"/>
<polygon fill="black" stroke="black" points="466.876,-258.306 474.601,-251.055 464.041,-251.906 466.876,-258.306"/>
</g>
<!-- role -->
<g id="node9" class="node"><title>role</title>
<ellipse fill="none" stroke="black" cx="355.84" cy="-234" rx="27" ry="18"/>
<text text-anchor="middle" x="355.84" y="-230.3" font-family="Times New Roman,serif" font-size="14.00">role</text>
</g>
<!-- validate role of user&#45;&gt;role -->
<g id="edge8" class="edge"><title>validate role of user&#45;&gt;role</title>
<path fill="none" stroke="black" d="M353.582,-287.697C353.912,-279.983 354.31,-270.712 354.678,-262.112"/>
<polygon fill="black" stroke="black" points="358.176,-262.245 355.107,-252.104 351.182,-261.945 358.176,-262.245"/>
</g>
<!-- User management button -->
<g id="node10" class="node"><title>User management button</title>
<ellipse fill="none" stroke="black" cx="350.84" cy="-378" rx="100.983" ry="18"/>
<text text-anchor="middle" x="350.84" y="-374.3" font-family="Times New Roman,serif" font-size="14.00">User management button</text>
</g>
<!-- User management button&#45;&gt;validate role of user -->
<g id="edge9" class="edge"><title>User management button&#45;&gt;validate role of user</title>
<path fill="none" stroke="black" d="M351.335,-359.697C351.555,-351.983 351.82,-342.712 352.066,-334.112"/>
<polygon fill="black" stroke="black" points="355.564,-334.2 352.352,-324.104 348.567,-334 355.564,-334.2"/>
</g>
<!-- Administrator -->
<g id="node11" class="node"><title>Administrator</title>
<ellipse fill="none" stroke="black" cx="217.84" cy="-450" rx="60.3893" ry="18"/>
<text text-anchor="middle" x="217.84" y="-446.3" font-family="Times New Roman,serif" font-size="14.00">Administrator</text>
</g>
<!-- Administrator&#45;&gt;activation success message -->
<g id="edge13" class="edge"><title>Administrator&#45;&gt;activation success message</title>
<path fill="none" stroke="black" d="M168.784,-439.332C105.329,-423.643 2.84025,-386.065 2.84025,-307 2.84025,-307 2.84025,-307 2.84025,-161 2.84025,-120.553 -1.64489,-104.93 21.8403,-72 31.5308,-58.4122 45.8953,-47.6763 60.2218,-39.523"/>
<polygon fill="black" stroke="black" points="61.9274,-42.58 69.0951,-34.7777 58.6263,-36.4072 61.9274,-42.58"/>
</g>
<!-- Administrator&#45;&gt;user is already inactivated error -->
<g id="edge12" class="edge"><title>Administrator&#45;&gt;user is already inactivated error</title>
<path fill="none" stroke="black" d="M191.286,-433.733C155.668,-411.042 96.8403,-364.814 96.8403,-307 96.8403,-307 96.8403,-307 96.8403,-233 96.8403,-192.553 99.4889,-180.994 115.84,-144 120.166,-134.214 126.476,-124.431 132.716,-115.982"/>
<polygon fill="black" stroke="black" points="135.517,-118.081 138.857,-108.027 129.975,-113.804 135.517,-118.081"/>
</g>
<!-- Administrator&#45;&gt;user management page -->
<g id="edge14" class="edge"><title>Administrator&#45;&gt;user management page</title>
<path fill="none" stroke="black" d="M217.84,-431.849C217.84,-394.832 217.84,-307.181 217.84,-262.386"/>
<polygon fill="black" stroke="black" points="221.34,-262.232 217.84,-252.232 214.34,-262.232 221.34,-262.232"/>
</g>
<!-- Administrator&#45;&gt;unauthorized error message -->
<g id="edge11" class="edge"><title>Administrator&#45;&gt;unauthorized error message</title>
<path fill="none" stroke="black" d="M274.203,-443.275C337.238,-435.77 434.03,-420.589 460.84,-396 498.763,-361.219 508.18,-298.275 510.359,-262.256"/>
<polygon fill="black" stroke="black" points="513.867,-262.152 510.826,-252.003 506.874,-261.833 513.867,-262.152"/>
</g>
<!-- Administrator&#45;&gt;User management button -->
<g id="edge10" class="edge"><title>Administrator&#45;&gt;User management button</title>
<path fill="none" stroke="black" d="M246.372,-433.983C265.255,-424.045 290.28,-410.874 311.103,-399.914"/>
<polygon fill="black" stroke="black" points="312.818,-402.967 320.038,-395.212 309.558,-396.772 312.818,-402.967"/>
</g>
</g>
</svg>
