<?xml version="1.0" encoding="UTF-8" standalone="no"?>
<!DOCTYPE svg PUBLIC "-//W3C//DTD SVG 1.1//EN"
 "http://www.w3.org/Graphics/SVG/1.1/DTD/svg11.dtd">
<!-- Generated by graphviz version 2.38.0 (20140413.2041)
 -->
<!-- Title: g Pages: 1 -->
<svg width="617pt" height="548pt"
 viewBox="0.00 0.00 616.87 548.00" xmlns="http://www.w3.org/2000/svg" xmlns:xlink="http://www.w3.org/1999/xlink">
<g id="graph0" class="graph" transform="scale(1 1) rotate(0) translate(4 544)">
<title>g</title>
<polygon fill="white" stroke="none" points="-4,4 -4,-544 612.871,-544 612.871,4 -4,4"/>
<!-- save parameters -->
<g id="node1" class="node"><title>save parameters</title>
<ellipse fill="none" stroke="black" cx="296.04" cy="-90" rx="68.7879" ry="18"/>
<text text-anchor="middle" x="296.04" y="-86.3" font-family="Times New Roman,serif" font-size="14.00">save parameters</text>
</g>
<!-- Program is updated message -->
<g id="node2" class="node"><title>Program is updated message</title>
<ellipse fill="none" stroke="black" cx="115.04" cy="-18" rx="115.08" ry="18"/>
<text text-anchor="middle" x="115.04" y="-14.3" font-family="Times New Roman,serif" font-size="14.00">Program is updated message</text>
</g>
<!-- save parameters&#45;&gt;Program is updated message -->
<g id="edge1" class="edge"><title>save parameters&#45;&gt;Program is updated message</title>
<path fill="none" stroke="black" d="M258.975,-74.6655C232.004,-64.2347 195.168,-49.9888 165.513,-38.5199"/>
<polygon fill="black" stroke="black" points="166.748,-35.2449 156.158,-34.9022 164.223,-41.7737 166.748,-35.2449"/>
</g>
<!-- instructions -->
<g id="node3" class="node"><title>instructions</title>
<ellipse fill="none" stroke="black" cx="301.04" cy="-18" rx="52.7911" ry="18"/>
<text text-anchor="middle" x="301.04" y="-14.3" font-family="Times New Roman,serif" font-size="14.00">instructions</text>
</g>
<!-- save parameters&#45;&gt;instructions -->
<g id="edge2" class="edge"><title>save parameters&#45;&gt;instructions</title>
<path fill="none" stroke="black" d="M297.276,-71.6966C297.827,-63.9827 298.489,-54.7125 299.103,-46.1124"/>
<polygon fill="black" stroke="black" points="302.597,-46.3283 299.818,-36.1043 295.614,-45.8295 302.597,-46.3283"/>
</g>
<!-- change the parameters of the elements -->
<g id="node4" class="node"><title>change the parameters of the elements</title>
<ellipse fill="none" stroke="black" cx="296.04" cy="-162" rx="148.374" ry="18"/>
<text text-anchor="middle" x="296.04" y="-158.3" font-family="Times New Roman,serif" font-size="14.00">change the parameters of the elements</text>
</g>
<!-- change the parameters of the elements&#45;&gt;save parameters -->
<g id="edge3" class="edge"><title>change the parameters of the elements&#45;&gt;save parameters</title>
<path fill="none" stroke="black" d="M296.04,-143.697C296.04,-135.983 296.04,-126.712 296.04,-118.112"/>
<polygon fill="black" stroke="black" points="299.54,-118.104 296.04,-108.104 292.54,-118.104 299.54,-118.104"/>
</g>
<!-- parameter set dialog -->
<g id="node5" class="node"><title>parameter set dialog</title>
<ellipse fill="none" stroke="black" cx="296.04" cy="-234" rx="83.3857" ry="18"/>
<text text-anchor="middle" x="296.04" y="-230.3" font-family="Times New Roman,serif" font-size="14.00">parameter set dialog</text>
</g>
<!-- parameter set dialog&#45;&gt;change the parameters of the elements -->
<g id="edge4" class="edge"><title>parameter set dialog&#45;&gt;change the parameters of the elements</title>
<path fill="none" stroke="black" d="M296.04,-215.697C296.04,-207.983 296.04,-198.712 296.04,-190.112"/>
<polygon fill="black" stroke="black" points="299.54,-190.104 296.04,-180.104 292.54,-190.104 299.54,-190.104"/>
</g>
<!-- popup parameter change dialog -->
<g id="node6" class="node"><title>popup parameter change dialog</title>
<ellipse fill="none" stroke="black" cx="350.04" cy="-306" rx="124.578" ry="18"/>
<text text-anchor="middle" x="350.04" y="-302.3" font-family="Times New Roman,serif" font-size="14.00">popup parameter change dialog</text>
</g>
<!-- popup parameter change dialog&#45;&gt;parameter set dialog -->
<g id="edge5" class="edge"><title>popup parameter change dialog&#45;&gt;parameter set dialog</title>
<path fill="none" stroke="black" d="M336.968,-288.055C330.468,-279.629 322.484,-269.28 315.299,-259.966"/>
<polygon fill="black" stroke="black" points="317.871,-257.569 308.991,-251.789 312.328,-261.845 317.871,-257.569"/>
</g>
<!-- display the dragged and dropped navigation instructions -->
<g id="node7" class="node"><title>display the dragged and dropped navigation instructions</title>
<ellipse fill="none" stroke="black" cx="395.04" cy="-378" rx="213.662" ry="18"/>
<text text-anchor="middle" x="395.04" y="-374.3" font-family="Times New Roman,serif" font-size="14.00">display the dragged and dropped navigation instructions</text>
</g>
<!-- display the dragged and dropped navigation instructions&#45;&gt;popup parameter change dialog -->
<g id="edge6" class="edge"><title>display the dragged and dropped navigation instructions&#45;&gt;popup parameter change dialog</title>
<path fill="none" stroke="black" d="M383.916,-359.697C378.685,-351.559 372.34,-341.689 366.562,-332.701"/>
<polygon fill="black" stroke="black" points="369.387,-330.623 361.035,-324.104 363.499,-334.409 369.387,-330.623"/>
</g>
<!-- navigation instruction create panel -->
<g id="node8" class="node"><title>navigation instruction create panel</title>
<ellipse fill="none" stroke="black" cx="354.04" cy="-450" rx="133.477" ry="18"/>
<text text-anchor="middle" x="354.04" y="-446.3" font-family="Times New Roman,serif" font-size="14.00">navigation instruction create panel</text>
</g>
<!-- navigation instruction create panel&#45;&gt;display the dragged and dropped navigation instructions -->
<g id="edge7" class="edge"><title>navigation instruction create panel&#45;&gt;display the dragged and dropped navigation instructions</title>
<path fill="none" stroke="black" d="M364.175,-431.697C368.891,-423.644 374.602,-413.894 379.822,-404.982"/>
<polygon fill="black" stroke="black" points="382.988,-406.502 385.022,-396.104 376.947,-402.964 382.988,-406.502"/>
</g>
<!-- User -->
<g id="node9" class="node"><title>User</title>
<ellipse fill="none" stroke="black" cx="153.04" cy="-522" rx="27.8951" ry="18"/>
<text text-anchor="middle" x="153.04" y="-518.3" font-family="Times New Roman,serif" font-size="14.00">User</text>
</g>
<!-- User&#45;&gt;Program is updated message -->
<g id="edge9" class="edge"><title>User&#45;&gt;Program is updated message</title>
<path fill="none" stroke="black" d="M145.532,-504.338C134.458,-478.197 115.04,-425.702 115.04,-379 115.04,-379 115.04,-379 115.04,-161 115.04,-120.996 115.04,-74.6528 115.04,-46.0798"/>
<polygon fill="black" stroke="black" points="118.54,-46.0492 115.04,-36.0493 111.54,-46.0493 118.54,-46.0492"/>
</g>
<!-- User&#45;&gt;parameter set dialog -->
<g id="edge8" class="edge"><title>User&#45;&gt;parameter set dialog</title>
<path fill="none" stroke="black" d="M152.688,-503.541C152.604,-473.394 154.743,-410.006 172.04,-360 184.299,-324.558 190.011,-314.998 216.04,-288 227.802,-275.8 242.847,-264.927 256.71,-256.254"/>
<polygon fill="black" stroke="black" points="258.854,-259.047 265.602,-250.879 255.233,-253.056 258.854,-259.047"/>
</g>
<!-- User&#45;&gt;navigation instruction create panel -->
<g id="edge10" class="edge"><title>User&#45;&gt;navigation instruction create panel</title>
<path fill="none" stroke="black" d="M177.285,-512.556C207.188,-502.142 258.94,-484.119 298.743,-470.258"/>
<polygon fill="black" stroke="black" points="300.033,-473.515 308.326,-466.92 297.731,-466.904 300.033,-473.515"/>
</g>
</g>
</svg>
