<?xml version="1.0" encoding="UTF-8" standalone="no"?>
<!DOCTYPE svg PUBLIC "-//W3C//DTD SVG 1.1//EN"
 "http://www.w3.org/Graphics/SVG/1.1/DTD/svg11.dtd">
<!-- Generated by graphviz version 2.38.0 (20140413.2041)
 -->
<!-- Title: g Pages: 1 -->
<svg width="3606pt" height="953pt"
 viewBox="0.00 0.00 3606.00 953.00" xmlns="http://www.w3.org/2000/svg" xmlns:xlink="http://www.w3.org/1999/xlink">
<g id="graph0" class="graph" transform="scale(1 1) rotate(0) translate(4 949)">
<title>g</title>
<polygon fill="white" stroke="none" points="-4,4 -4,-949 3602,-949 3602,4 -4,4"/>
<g id="clust1" class="cluster"><title>cluster0</title>
<polygon fill="none" stroke="black" stroke-width="2" points="117,-64 117,-839 837,-839 837,-64 117,-64"/>
<text text-anchor="start" x="455" y="-824.8" font-family="Times New Roman,serif" font-weight="bold" font-size="14.00">System</text>
</g>
<g id="clust2" class="cluster"><title>cluster1</title>
<polygon fill="none" stroke="black" stroke-width="2" points="126,-847 126,-937 798,-937 798,-847 126,-847"/>
<text text-anchor="start" x="442.5" y="-922.8" font-family="Times New Roman,serif" font-weight="bold" font-size="14.00">guests</text>
</g>
<g id="clust3" class="cluster"><title>cluster1000</title>
<polygon fill="none" stroke="black" stroke-width="2" points="845,-178 845,-521 3590,-521 3590,-178 845,-178"/>
<text text-anchor="start" x="2172" y="-506.8" font-family="Times New Roman,serif" font-weight="bold" font-size="14.00">Domain Model</text>
</g>
<!-- EAID_2C61141A_C1F8_4e6e_8E3C_7818A6E9562F___EAID_7177B3E0_262E_4ed7_848A_9DD177277330 -->
<g id="node1" class="node"><title>EAID_2C61141A_C1F8_4e6e_8E3C_7818A6E9562F___EAID_7177B3E0_262E_4ed7_848A_9DD177277330</title>
<image xlink:href="img/activity_icon.png" width="30px" height="20px" preserveAspectRatio="xMinYMin meet" x="214" y="-801.5"/>
<text text-anchor="start" x="155" y="-767.3" font-family="Times New Roman,serif" font-weight="bold" font-size="14.00">guests:survey form page</text>
</g>
<!-- EAID_7177B3E0_262E_4ed7_848A_9DD177277330___EAID_CB73B711_4188_4df4_8594_3BC11775C45C -->
<g id="node9" class="node"><title>EAID_7177B3E0_262E_4ed7_848A_9DD177277330___EAID_CB73B711_4188_4df4_8594_3BC11775C45C</title>
<image xlink:href="img/activity_icon.png" width="30px" height="20px" preserveAspectRatio="xMinYMin meet" x="237.5" y="-715"/>
<text text-anchor="start" x="184" y="-680.8" font-family="Times New Roman,serif" font-weight="bold" font-size="14.00">survey form page:save</text>
<text text-anchor="start" x="211" y="-666.8" font-family="Times New Roman,serif" font-weight="bold" font-size="14.00">survey info to</text>
<text text-anchor="start" x="244.5" y="-652.8" font-family="Times New Roman,serif" font-weight="bold" font-size="14.00">db</text>
</g>
<!-- EAID_2C61141A_C1F8_4e6e_8E3C_7818A6E9562F___EAID_7177B3E0_262E_4ed7_848A_9DD177277330&#45;&gt;EAID_7177B3E0_262E_4ed7_848A_9DD177277330___EAID_CB73B711_4188_4df4_8594_3BC11775C45C -->
<g id="edge1" class="edge"><title>EAID_2C61141A_C1F8_4e6e_8E3C_7818A6E9562F___EAID_7177B3E0_262E_4ed7_848A_9DD177277330&#45;&gt;EAID_7177B3E0_262E_4ed7_848A_9DD177277330___EAID_CB73B711_4188_4df4_8594_3BC11775C45C</title>
<path fill="none" stroke="black" d="M234.745,-756.898C236.581,-749.032 238.682,-740.036 240.771,-731.09"/>
<polygon fill="black" stroke="black" points="244.244,-731.609 243.109,-721.075 237.427,-730.017 244.244,-731.609"/>
</g>
<!-- EAID_CB73B711_4188_4df4_8594_3BC11775C45C -->
<g id="node24" class="node"><title>EAID_CB73B711_4188_4df4_8594_3BC11775C45C</title>
<text text-anchor="middle" x="160" y="-14.3" font-family="Times New Roman,serif" font-size="14.00">EAID_CB73B711_4188_4df4_8594_3BC11775C45C</text>
</g>
<!-- EAID_2C61141A_C1F8_4e6e_8E3C_7818A6E9562F___EAID_7177B3E0_262E_4ed7_848A_9DD177277330&#45;&gt;EAID_CB73B711_4188_4df4_8594_3BC11775C45C -->
<g id="edge12" class="edge"><title>EAID_2C61141A_C1F8_4e6e_8E3C_7818A6E9562F___EAID_7177B3E0_262E_4ed7_848A_9DD177277330&#45;&gt;EAID_CB73B711_4188_4df4_8594_3BC11775C45C</title>
<path fill="none" stroke="black" stroke-dasharray="5,2" d="M189.999,-756.874C139.809,-721.803 59,-652.388 59,-569 59,-569 59,-569 59,-337 59,-211.63 74.4757,-176.404 130,-64 133.185,-57.552 137.15,-50.9342 141.142,-44.8253"/>
<polygon fill="black" stroke="black" points="144.198,-46.5563 146.925,-36.3184 138.409,-42.6213 144.198,-46.5563"/>
</g>
<!-- EAID_2C61141A_C1F8_4e6e_8E3C_7818A6E9562F___EAID_FE77FEF9_307C_48c6_940B_71ED05C201B4 -->
<g id="node2" class="node"><title>EAID_2C61141A_C1F8_4e6e_8E3C_7818A6E9562F___EAID_FE77FEF9_307C_48c6_940B_71ED05C201B4</title>
<image xlink:href="img/activity_icon.png" width="30px" height="20px" preserveAspectRatio="xMinYMin meet" x="463" y="-801.5"/>
<text text-anchor="start" x="390" y="-767.3" font-family="Times New Roman,serif" font-weight="bold" font-size="14.00">guests:confirmation message</text>
</g>
<!-- EAID_03E7E934_9DA7_46ff_8625_966F72DE2941 -->
<g id="node22" class="node"><title>EAID_03E7E934_9DA7_46ff_8625_966F72DE2941</title>
<polygon fill="none" stroke="black" points="1161,-401 1161,-422 1402,-422 1402,-401 1161,-401"/>
<text text-anchor="start" x="1232.5" y="-408.8" font-family="Times New Roman,serif" font-weight="bold" font-size="14.00">successmessage</text>
<polygon fill="none" stroke="black" points="1161,-380 1161,-401 1402,-401 1402,-380 1161,-380"/>
<text text-anchor="start" x="1228" y="-387.8" font-family="Times New Roman,serif" font-weight="bold" font-size="14.00">successmessage()</text>
<polygon fill="none" stroke="black" points="1161,-359 1161,-380 1402,-380 1402,-359 1161,-359"/>
<text text-anchor="start" x="1223.5" y="-366.8" font-family="Times New Roman,serif" font-weight="bold" font-size="14.00">emptylistmessage()</text>
<polygon fill="none" stroke="black" points="1161,-338 1161,-359 1402,-359 1402,-338 1161,-338"/>
<text text-anchor="start" x="1187" y="-345.8" font-family="Times New Roman,serif" font-weight="bold" font-size="14.00">accountalreadyexistsmessage()</text>
<polygon fill="none" stroke="black" points="1161,-317 1161,-338 1402,-338 1402,-317 1161,-317"/>
<text text-anchor="start" x="1171.5" y="-324.8" font-family="Times New Roman,serif" font-weight="bold" font-size="14.00">Errormessageforwrongcredentials()</text>
<polygon fill="none" stroke="black" points="1161,-296 1161,-317 1402,-317 1402,-296 1161,-296"/>
<text text-anchor="start" x="1164" y="-303.8" font-family="Times New Roman,serif" font-weight="bold" font-size="14.00">errormessagenoinvitessendmessaage()</text>
<polygon fill="none" stroke="black" points="1161,-275 1161,-296 1402,-296 1402,-275 1161,-275"/>
<text text-anchor="start" x="1212" y="-282.8" font-family="Times New Roman,serif" font-weight="bold" font-size="14.00">confirmationmessage()</text>
<polygon fill="none" stroke="black" points="1161,-254 1161,-275 1402,-275 1402,-254 1161,-254"/>
<text text-anchor="start" x="1216.5" y="-261.8" font-family="Times New Roman,serif" font-weight="bold" font-size="14.00">deleteerrormessage()</text>
<polygon fill="none" stroke="black" points="1159.5,-253 1159.5,-423 1402.5,-423 1402.5,-253 1159.5,-253"/>
</g>
<!-- EAID_2C61141A_C1F8_4e6e_8E3C_7818A6E9562F___EAID_FE77FEF9_307C_48c6_940B_71ED05C201B4&#45;&gt;EAID_03E7E934_9DA7_46ff_8625_966F72DE2941 -->
<g id="edge13" class="edge"><title>EAID_2C61141A_C1F8_4e6e_8E3C_7818A6E9562F___EAID_FE77FEF9_307C_48c6_940B_71ED05C201B4&#45;&gt;EAID_03E7E934_9DA7_46ff_8625_966F72DE2941</title>
<path fill="none" stroke="black" stroke-dasharray="5,2" d="M576.064,-760.722C713.393,-727.928 965.899,-653.824 1142,-521 1172.89,-497.704 1200.37,-465.823 1222.59,-435.25"/>
<polygon fill="black" stroke="black" points="1225.45,-437.263 1228.41,-427.092 1219.75,-433.195 1225.45,-437.263"/>
</g>
<!-- EAID_2C61141A_C1F8_4e6e_8E3C_7818A6E9562F___EAID_9620760F_A5F4_4c5a_8720_E69FD3C72581 -->
<g id="node3" class="node"><title>EAID_2C61141A_C1F8_4e6e_8E3C_7818A6E9562F___EAID_9620760F_A5F4_4c5a_8720_E69FD3C72581</title>
<image xlink:href="img/activity_icon.png" width="30px" height="20px" preserveAspectRatio="xMinYMin meet" x="511" y="-587"/>
<text text-anchor="start" x="441" y="-552.8" font-family="Times New Roman,serif" font-weight="bold" font-size="14.00">guests:delete error message</text>
</g>
<!-- EAID_9620760F_A5F4_4c5a_8720_E69FD3C72581___EAID_EA17899C_05C8_46fa_BE5F_FE25189E451F -->
<g id="node5" class="node"><title>EAID_9620760F_A5F4_4c5a_8720_E69FD3C72581___EAID_EA17899C_05C8_46fa_BE5F_FE25189E451F</title>
<image xlink:href="img/activity_icon.png" width="30px" height="20px" preserveAspectRatio="xMinYMin meet" x="370" y="-371"/>
<text text-anchor="start" x="295" y="-336.8" font-family="Times New Roman,serif" font-weight="bold" font-size="14.00">delete error message:redirect</text>
<text text-anchor="start" x="340.5" y="-322.8" font-family="Times New Roman,serif" font-weight="bold" font-size="14.00">to survey form</text>
<text text-anchor="start" x="370" y="-308.8" font-family="Times New Roman,serif" font-weight="bold" font-size="14.00">page</text>
</g>
<!-- EAID_2C61141A_C1F8_4e6e_8E3C_7818A6E9562F___EAID_9620760F_A5F4_4c5a_8720_E69FD3C72581&#45;&gt;EAID_9620760F_A5F4_4c5a_8720_E69FD3C72581___EAID_EA17899C_05C8_46fa_BE5F_FE25189E451F -->
<g id="edge4" class="edge"><title>EAID_2C61141A_C1F8_4e6e_8E3C_7818A6E9562F___EAID_9620760F_A5F4_4c5a_8720_E69FD3C72581&#45;&gt;EAID_9620760F_A5F4_4c5a_8720_E69FD3C72581___EAID_EA17899C_05C8_46fa_BE5F_FE25189E451F</title>
<path fill="none" stroke="black" d="M510.642,-542.166C487.461,-504.681 443.131,-433 413.813,-385.591"/>
<polygon fill="black" stroke="black" points="416.758,-383.699 408.521,-377.035 410.804,-387.381 416.758,-383.699"/>
</g>
<!-- EAID_2C61141A_C1F8_4e6e_8E3C_7818A6E9562F___EAID_9620760F_A5F4_4c5a_8720_E69FD3C72581&#45;&gt;EAID_03E7E934_9DA7_46ff_8625_966F72DE2941 -->
<g id="edge14" class="edge"><title>EAID_2C61141A_C1F8_4e6e_8E3C_7818A6E9562F___EAID_9620760F_A5F4_4c5a_8720_E69FD3C72581&#45;&gt;EAID_03E7E934_9DA7_46ff_8625_966F72DE2941</title>
<path fill="none" stroke="black" stroke-dasharray="5,2" d="M582.526,-542.469C597.665,-536.979 614.217,-531.921 630,-529 657.973,-523.824 1116.6,-533.81 1142,-521 1178.82,-502.433 1208.62,-469.039 1231.04,-435.879"/>
<polygon fill="black" stroke="black" points="1234.01,-437.74 1236.58,-427.463 1228.16,-433.89 1234.01,-437.74"/>
</g>
<!-- EAID_CB73B711_4188_4df4_8594_3BC11775C45C___EAID_FE77FEF9_307C_48c6_940B_71ED05C201B4 -->
<g id="node4" class="node"><title>EAID_CB73B711_4188_4df4_8594_3BC11775C45C___EAID_FE77FEF9_307C_48c6_940B_71ED05C201B4</title>
<image xlink:href="img/activity_icon.png" width="30px" height="20px" preserveAspectRatio="xMinYMin meet" x="719.5" y="-594"/>
<text text-anchor="start" x="685.5" y="-559.8" font-family="Times New Roman,serif" font-weight="bold" font-size="14.00">save survey info</text>
<text text-anchor="start" x="650" y="-545.8" font-family="Times New Roman,serif" font-weight="bold" font-size="14.00">to db:confirmation message</text>
</g>
<!-- EAID_CB73B711_4188_4df4_8594_3BC11775C45C___EAID_FE77FEF9_307C_48c6_940B_71ED05C201B4&#45;&gt;EAID_03E7E934_9DA7_46ff_8625_966F72DE2941 -->
<g id="edge15" class="edge"><title>EAID_CB73B711_4188_4df4_8594_3BC11775C45C___EAID_FE77FEF9_307C_48c6_940B_71ED05C201B4&#45;&gt;EAID_03E7E934_9DA7_46ff_8625_966F72DE2941</title>
<path fill="none" stroke="black" stroke-dasharray="5,2" d="M828.737,-555.126C892.615,-547.282 978.819,-537.01 1055,-529 1074.31,-526.97 1125.01,-530.395 1142,-521 1177.45,-501.396 1206.7,-468.564 1229.07,-436.141"/>
<polygon fill="black" stroke="black" points="1232.23,-437.719 1234.91,-427.468 1226.42,-433.813 1232.23,-437.719"/>
</g>
<!-- EAID_EA17899C_05C8_46fa_BE5F_FE25189E451F___EAID_7177B3E0_262E_4ed7_848A_9DD177277330 -->
<g id="node7" class="node"><title>EAID_EA17899C_05C8_46fa_BE5F_FE25189E451F___EAID_7177B3E0_262E_4ed7_848A_9DD177277330</title>
<image xlink:href="img/activity_icon.png" width="30px" height="20px" preserveAspectRatio="xMinYMin meet" x="291.5" y="-144"/>
<text text-anchor="start" x="252.5" y="-109.8" font-family="Times New Roman,serif" font-weight="bold" font-size="14.00">redirect to survey</text>
<text text-anchor="start" x="237" y="-95.8" font-family="Times New Roman,serif" font-weight="bold" font-size="14.00">form page:survey form</text>
<text text-anchor="start" x="291.5" y="-81.8" font-family="Times New Roman,serif" font-weight="bold" font-size="14.00">page</text>
</g>
<!-- EAID_9620760F_A5F4_4c5a_8720_E69FD3C72581___EAID_EA17899C_05C8_46fa_BE5F_FE25189E451F&#45;&gt;EAID_EA17899C_05C8_46fa_BE5F_FE25189E451F___EAID_7177B3E0_262E_4ed7_848A_9DD177277330 -->
<g id="edge6" class="edge"><title>EAID_9620760F_A5F4_4c5a_8720_E69FD3C72581___EAID_EA17899C_05C8_46fa_BE5F_FE25189E451F&#45;&gt;EAID_EA17899C_05C8_46fa_BE5F_FE25189E451F___EAID_7177B3E0_262E_4ed7_848A_9DD177277330</title>
<path fill="none" stroke="black" d="M371.599,-298.832C358.15,-260.528 337.395,-201.415 322.841,-159.964"/>
<polygon fill="black" stroke="black" points="326.082,-158.631 319.467,-150.355 319.478,-160.95 326.082,-158.631"/>
</g>
<!-- EAID_9620760F_A5F4_4c5a_8720_E69FD3C72581___EAID_EA17899C_05C8_46fa_BE5F_FE25189E451F&#45;&gt;EAID_CB73B711_4188_4df4_8594_3BC11775C45C -->
<g id="edge16" class="edge"><title>EAID_9620760F_A5F4_4c5a_8720_E69FD3C72581___EAID_EA17899C_05C8_46fa_BE5F_FE25189E451F&#45;&gt;EAID_CB73B711_4188_4df4_8594_3BC11775C45C</title>
<path fill="none" stroke="black" stroke-dasharray="5,2" d="M343.904,-298.873C307.097,-263.093 253.453,-206.725 217,-150 195.48,-116.511 178.539,-73.5235 168.895,-46.1102"/>
<polygon fill="black" stroke="black" points="172.123,-44.7364 165.561,-36.4186 165.504,-47.0132 172.123,-44.7364"/>
</g>
<!-- EAID_CB73B711_4188_4df4_8594_3BC11775C45C___EAID_9620760F_A5F4_4c5a_8720_E69FD3C72581 -->
<g id="node6" class="node"><title>EAID_CB73B711_4188_4df4_8594_3BC11775C45C___EAID_9620760F_A5F4_4c5a_8720_E69FD3C72581</title>
<image xlink:href="img/activity_icon.png" width="30px" height="20px" preserveAspectRatio="xMinYMin meet" x="334.5" y="-601"/>
<text text-anchor="start" x="300.5" y="-566.8" font-family="Times New Roman,serif" font-weight="bold" font-size="14.00">save survey info</text>
<text text-anchor="start" x="296" y="-552.8" font-family="Times New Roman,serif" font-weight="bold" font-size="14.00">to db:delete error</text>
<text text-anchor="start" x="323.5" y="-538.8" font-family="Times New Roman,serif" font-weight="bold" font-size="14.00">message</text>
</g>
<!-- EAID_CB73B711_4188_4df4_8594_3BC11775C45C___EAID_9620760F_A5F4_4c5a_8720_E69FD3C72581&#45;&gt;EAID_9620760F_A5F4_4c5a_8720_E69FD3C72581___EAID_EA17899C_05C8_46fa_BE5F_FE25189E451F -->
<g id="edge7" class="edge"><title>EAID_CB73B711_4188_4df4_8594_3BC11775C45C___EAID_9620760F_A5F4_4c5a_8720_E69FD3C72581&#45;&gt;EAID_9620760F_A5F4_4c5a_8720_E69FD3C72581___EAID_EA17899C_05C8_46fa_BE5F_FE25189E451F</title>
<path fill="none" stroke="black" d="M355.026,-528.838C361.165,-489.956 370.705,-429.534 377.369,-387.332"/>
<polygon fill="black" stroke="black" points="380.852,-387.71 378.955,-377.287 373.938,-386.618 380.852,-387.71"/>
</g>
<!-- EAID_CB73B711_4188_4df4_8594_3BC11775C45C___EAID_9620760F_A5F4_4c5a_8720_E69FD3C72581&#45;&gt;EAID_03E7E934_9DA7_46ff_8625_966F72DE2941 -->
<g id="edge17" class="edge"><title>EAID_CB73B711_4188_4df4_8594_3BC11775C45C___EAID_9620760F_A5F4_4c5a_8720_E69FD3C72581&#45;&gt;EAID_03E7E934_9DA7_46ff_8625_966F72DE2941</title>
<path fill="none" stroke="black" stroke-dasharray="5,2" d="M412.833,-531.709C415.887,-530.677 418.951,-529.764 422,-529 460.803,-519.277 1106.24,-538.932 1142,-521 1179.02,-502.434 1208.93,-468.841 1231.38,-435.525"/>
<polygon fill="black" stroke="black" points="1234.37,-437.351 1236.93,-427.07 1228.52,-433.511 1234.37,-437.351"/>
</g>
<!-- EAID_EA17899C_05C8_46fa_BE5F_FE25189E451F___EAID_7177B3E0_262E_4ed7_848A_9DD177277330&#45;&gt;EAID_7177B3E0_262E_4ed7_848A_9DD177277330___EAID_CB73B711_4188_4df4_8594_3BC11775C45C -->
<g id="edge8" class="edge"><title>EAID_EA17899C_05C8_46fa_BE5F_FE25189E451F___EAID_7177B3E0_262E_4ed7_848A_9DD177277330&#45;&gt;EAID_7177B3E0_262E_4ed7_848A_9DD177277330___EAID_CB73B711_4188_4df4_8594_3BC11775C45C</title>
<path fill="none" stroke="black" d="M285.688,-150.211C281.797,-159.106 278.242,-168.701 276,-178 231.258,-363.556 265.596,-416.368 256,-607 255.582,-615.313 255.119,-624.151 254.662,-632.716"/>
<polygon fill="black" stroke="black" points="251.152,-632.803 254.109,-642.977 258.142,-633.179 251.152,-632.803"/>
</g>
<!-- EAID_EA17899C_05C8_46fa_BE5F_FE25189E451F___EAID_7177B3E0_262E_4ed7_848A_9DD177277330&#45;&gt;EAID_CB73B711_4188_4df4_8594_3BC11775C45C -->
<g id="edge18" class="edge"><title>EAID_EA17899C_05C8_46fa_BE5F_FE25189E451F___EAID_7177B3E0_262E_4ed7_848A_9DD177277330&#45;&gt;EAID_CB73B711_4188_4df4_8594_3BC11775C45C</title>
<path fill="none" stroke="black" stroke-dasharray="5,2" d="M244.929,-71.9351C228.363,-61.6099 210.955,-50.7596 196.242,-41.5894"/>
<polygon fill="black" stroke="black" points="197.799,-38.4357 187.461,-36.1164 194.097,-44.3763 197.799,-38.4357"/>
</g>
<!-- EAID_CB73B711_4188_4df4_8594_3BC11775C45C___EAID_05E3933A_F3FD_4e24_9663_1310A0F63460 -->
<g id="node8" class="node"><title>EAID_CB73B711_4188_4df4_8594_3BC11775C45C___EAID_05E3933A_F3FD_4e24_9663_1310A0F63460</title>
<image xlink:href="img/activity_icon.png" width="30px" height="20px" preserveAspectRatio="xMinYMin meet" x="171" y="-601"/>
<text text-anchor="start" x="137" y="-566.8" font-family="Times New Roman,serif" font-weight="bold" font-size="14.00">save survey info</text>
<text text-anchor="start" x="135" y="-552.8" font-family="Times New Roman,serif" font-weight="bold" font-size="14.00">to db:survey info</text>
<text text-anchor="start" x="178" y="-538.8" font-family="Times New Roman,serif" font-weight="bold" font-size="14.00">db</text>
</g>
<!-- EAID_CB73B711_4188_4df4_8594_3BC11775C45C___EAID_05E3933A_F3FD_4e24_9663_1310A0F63460&#45;&gt;EAID_CB73B711_4188_4df4_8594_3BC11775C45C -->
<g id="edge19" class="edge"><title>EAID_CB73B711_4188_4df4_8594_3BC11775C45C___EAID_05E3933A_F3FD_4e24_9663_1310A0F63460&#45;&gt;EAID_CB73B711_4188_4df4_8594_3BC11775C45C</title>
<path fill="none" stroke="black" stroke-dasharray="5,2" d="M184.192,-528.901C179.245,-424.631 165.569,-136.378 161.294,-46.2783"/>
<polygon fill="black" stroke="black" points="164.78,-45.8892 160.81,-36.0663 157.788,-46.221 164.78,-45.8892"/>
</g>
<!-- EAID_7177B3E0_262E_4ed7_848A_9DD177277330___EAID_CB73B711_4188_4df4_8594_3BC11775C45C&#45;&gt;EAID_CB73B711_4188_4df4_8594_3BC11775C45C___EAID_FE77FEF9_307C_48c6_940B_71ED05C201B4 -->
<g id="edge9" class="edge"><title>EAID_7177B3E0_262E_4ed7_848A_9DD177277330___EAID_CB73B711_4188_4df4_8594_3BC11775C45C&#45;&gt;EAID_CB73B711_4188_4df4_8594_3BC11775C45C___EAID_FE77FEF9_307C_48c6_940B_71ED05C201B4</title>
<path fill="none" stroke="black" d="M330.661,-669.299C407.709,-656.975 528.062,-635.412 630,-607 634.336,-605.792 638.748,-604.486 643.187,-603.112"/>
<polygon fill="black" stroke="black" points="644.465,-606.378 652.928,-600.004 642.337,-599.709 644.465,-606.378"/>
</g>
<!-- EAID_7177B3E0_262E_4ed7_848A_9DD177277330___EAID_CB73B711_4188_4df4_8594_3BC11775C45C&#45;&gt;EAID_CB73B711_4188_4df4_8594_3BC11775C45C___EAID_9620760F_A5F4_4c5a_8720_E69FD3C72581 -->
<g id="edge10" class="edge"><title>EAID_7177B3E0_262E_4ed7_848A_9DD177277330___EAID_CB73B711_4188_4df4_8594_3BC11775C45C&#45;&gt;EAID_CB73B711_4188_4df4_8594_3BC11775C45C___EAID_9620760F_A5F4_4c5a_8720_E69FD3C72581</title>
<path fill="none" stroke="black" d="M285.111,-642.769C292.914,-633.759 301.311,-624.064 309.369,-614.759"/>
<polygon fill="black" stroke="black" points="312.138,-616.909 316.039,-607.058 306.846,-612.326 312.138,-616.909"/>
</g>
<!-- EAID_7177B3E0_262E_4ed7_848A_9DD177277330___EAID_CB73B711_4188_4df4_8594_3BC11775C45C&#45;&gt;EAID_CB73B711_4188_4df4_8594_3BC11775C45C___EAID_05E3933A_F3FD_4e24_9663_1310A0F63460 -->
<g id="edge11" class="edge"><title>EAID_7177B3E0_262E_4ed7_848A_9DD177277330___EAID_CB73B711_4188_4df4_8594_3BC11775C45C&#45;&gt;EAID_CB73B711_4188_4df4_8594_3BC11775C45C___EAID_05E3933A_F3FD_4e24_9663_1310A0F63460</title>
<path fill="none" stroke="black" d="M229.471,-642.769C224.374,-634.119 218.905,-624.838 213.624,-615.877"/>
<polygon fill="black" stroke="black" points="216.52,-613.897 208.427,-607.058 210.489,-617.451 216.52,-613.897"/>
</g>
<!-- EAID_7177B3E0_262E_4ed7_848A_9DD177277330___EAID_CB73B711_4188_4df4_8594_3BC11775C45C&#45;&gt;EAID_CB73B711_4188_4df4_8594_3BC11775C45C -->
<g id="edge20" class="edge"><title>EAID_7177B3E0_262E_4ed7_848A_9DD177277330___EAID_CB73B711_4188_4df4_8594_3BC11775C45C&#45;&gt;EAID_CB73B711_4188_4df4_8594_3BC11775C45C</title>
<path fill="none" stroke="black" stroke-dasharray="5,2" d="M173.409,-655.878C150.906,-644.635 128.978,-628.836 116,-607 58.6674,-510.534 131.807,-148.035 153.993,-45.9215"/>
<polygon fill="black" stroke="black" points="157.427,-46.5995 156.149,-36.0821 150.589,-45.1012 157.427,-46.5995"/>
</g>
<!-- EAID_2C61141A_C1F8_4e6e_8E3C_7818A6E9562F___EAID_7177B3E0_262E_4ed7_848A_9DD177277330_STL -->
<g id="node10" class="node"><title>EAID_2C61141A_C1F8_4e6e_8E3C_7818A6E9562F___EAID_7177B3E0_262E_4ed7_848A_9DD177277330_STL</title>
<image xlink:href="img/stimulus_icon.png" width="30px" height="20px" preserveAspectRatio="xMinYMin meet" x="214" y="-899.5"/>
<text text-anchor="start" x="144" y="-865.3" font-family="Times New Roman,serif" font-weight="bold" font-size="14.00">stl#guests:survey form page</text>
</g>
<!-- EAID_2C61141A_C1F8_4e6e_8E3C_7818A6E9562F___EAID_7177B3E0_262E_4ed7_848A_9DD177277330_STL&#45;&gt;EAID_2C61141A_C1F8_4e6e_8E3C_7818A6E9562F___EAID_7177B3E0_262E_4ed7_848A_9DD177277330 -->
<g id="edge2" class="edge"><title>EAID_2C61141A_C1F8_4e6e_8E3C_7818A6E9562F___EAID_7177B3E0_262E_4ed7_848A_9DD177277330_STL&#45;&gt;EAID_2C61141A_C1F8_4e6e_8E3C_7818A6E9562F___EAID_7177B3E0_262E_4ed7_848A_9DD177277330</title>
<path fill="none" stroke="black" d="M229,-854.778C229,-843.692 229,-830.42 229,-818.351"/>
<polygon fill="black" stroke="black" points="232.5,-818.139 229,-808.139 225.5,-818.139 232.5,-818.139"/>
</g>
<!-- EAID_2C61141A_C1F8_4e6e_8E3C_7818A6E9562F___EAID_FE77FEF9_307C_48c6_940B_71ED05C201B4_STL -->
<g id="node11" class="node"><title>EAID_2C61141A_C1F8_4e6e_8E3C_7818A6E9562F___EAID_FE77FEF9_307C_48c6_940B_71ED05C201B4_STL</title>
<image xlink:href="img/stimulus_icon.png" width="30px" height="20px" preserveAspectRatio="xMinYMin meet" x="436" y="-899.5"/>
<text text-anchor="start" x="352" y="-865.3" font-family="Times New Roman,serif" font-weight="bold" font-size="14.00">stl#guests:confirmation message</text>
</g>
<!-- EAID_2C61141A_C1F8_4e6e_8E3C_7818A6E9562F___EAID_FE77FEF9_307C_48c6_940B_71ED05C201B4_STL&#45;&gt;EAID_2C61141A_C1F8_4e6e_8E3C_7818A6E9562F___EAID_FE77FEF9_307C_48c6_940B_71ED05C201B4 -->
<g id="edge3" class="edge"><title>EAID_2C61141A_C1F8_4e6e_8E3C_7818A6E9562F___EAID_FE77FEF9_307C_48c6_940B_71ED05C201B4_STL&#45;&gt;EAID_2C61141A_C1F8_4e6e_8E3C_7818A6E9562F___EAID_FE77FEF9_307C_48c6_940B_71ED05C201B4</title>
<path fill="none" stroke="black" d="M457.953,-854.778C461.103,-843.58 464.879,-830.152 468.301,-817.985"/>
<polygon fill="black" stroke="black" points="471.732,-818.713 471.07,-808.139 464.994,-816.817 471.732,-818.713"/>
</g>
<!-- EAID_2C61141A_C1F8_4e6e_8E3C_7818A6E9562F___EAID_9620760F_A5F4_4c5a_8720_E69FD3C72581_STL -->
<g id="node12" class="node"><title>EAID_2C61141A_C1F8_4e6e_8E3C_7818A6E9562F___EAID_9620760F_A5F4_4c5a_8720_E69FD3C72581_STL</title>
<image xlink:href="img/stimulus_icon.png" width="30px" height="20px" preserveAspectRatio="xMinYMin meet" x="669" y="-899.5"/>
<text text-anchor="start" x="588" y="-865.3" font-family="Times New Roman,serif" font-weight="bold" font-size="14.00">stl#guests:delete error message</text>
</g>
<!-- EAID_2C61141A_C1F8_4e6e_8E3C_7818A6E9562F___EAID_9620760F_A5F4_4c5a_8720_E69FD3C72581_STL&#45;&gt;EAID_2C61141A_C1F8_4e6e_8E3C_7818A6E9562F___EAID_9620760F_A5F4_4c5a_8720_E69FD3C72581 -->
<g id="edge5" class="edge"><title>EAID_2C61141A_C1F8_4e6e_8E3C_7818A6E9562F___EAID_9620760F_A5F4_4c5a_8720_E69FD3C72581_STL&#45;&gt;EAID_2C61141A_C1F8_4e6e_8E3C_7818A6E9562F___EAID_9620760F_A5F4_4c5a_8720_E69FD3C72581</title>
<path fill="none" stroke="black" d="M671.47,-854.876C643.353,-799.621 575.196,-665.68 543.168,-602.738"/>
<polygon fill="black" stroke="black" points="546.186,-600.952 538.531,-593.626 539.947,-604.126 546.186,-600.952"/>
</g>
<!-- EAID_06065AE2_07F7_480e_8F95_569BB90FD4F8 -->
<g id="node13" class="node"><title>EAID_06065AE2_07F7_480e_8F95_569BB90FD4F8</title>
<polygon fill="none" stroke="black" points="3353,-401 3353,-422 3573,-422 3573,-401 3353,-401"/>
<text text-anchor="start" x="3446" y="-408.8" font-family="Times New Roman,serif" font-weight="bold" font-size="14.00">Bride</text>
<polygon fill="none" stroke="black" points="3353,-380 3353,-401 3573,-401 3573,-380 3353,-380"/>
<text text-anchor="start" x="3411.5" y="-387.8" font-family="Times New Roman,serif" font-weight="bold" font-size="14.00">EAJava_int b_id</text>
<polygon fill="none" stroke="black" points="3353,-359 3353,-380 3573,-380 3573,-359 3353,-359"/>
<text text-anchor="start" x="3372.5" y="-366.8" font-family="Times New Roman,serif" font-weight="bold" font-size="14.00">EAJava_varchar b_firstname</text>
<polygon fill="none" stroke="black" points="3353,-338 3353,-359 3573,-359 3573,-338 3353,-338"/>
<text text-anchor="start" x="3364.5" y="-345.8" font-family="Times New Roman,serif" font-weight="bold" font-size="14.00">EAJava_varchar b_middlename</text>
<polygon fill="none" stroke="black" points="3353,-317 3353,-338 3573,-338 3573,-317 3353,-317"/>
<text text-anchor="start" x="3374" y="-324.8" font-family="Times New Roman,serif" font-weight="bold" font-size="14.00">EAJava_varchar b_lastname</text>
<polygon fill="none" stroke="black" points="3353,-296 3353,-317 3573,-317 3573,-296 3353,-296"/>
<text text-anchor="start" x="3359.5" y="-303.8" font-family="Times New Roman,serif" font-weight="bold" font-size="14.00">EAJava_varchar b_fathers_name</text>
<polygon fill="none" stroke="black" points="3353,-275 3353,-296 3573,-296 3573,-275 3353,-275"/>
<text text-anchor="start" x="3356" y="-282.8" font-family="Times New Roman,serif" font-weight="bold" font-size="14.00">EAJava_varchar b_mothers_name</text>
<polygon fill="none" stroke="black" points="3353,-254 3353,-275 3573,-275 3573,-254 3353,-254"/>
<text text-anchor="start" x="3441.5" y="-261.8" font-family="Times New Roman,serif" font-weight="bold" font-size="14.00">Bride()</text>
<polygon fill="none" stroke="black" points="3352,-253 3352,-423 3574,-423 3574,-253 3352,-253"/>
</g>
<!-- EAID_ED0232AD_054B_4e08_9D09_3BFD194F28E6 -->
<g id="node14" class="node"><title>EAID_ED0232AD_054B_4e08_9D09_3BFD194F28E6</title>
<polygon fill="none" stroke="black" points="2958,-432 2958,-453 3317,-453 3317,-432 2958,-432"/>
<text text-anchor="start" x="3115.5" y="-439.8" font-family="Times New Roman,serif" font-weight="bold" font-size="14.00">Couple</text>
<polygon fill="none" stroke="black" points="2958,-411 2958,-432 3317,-432 3317,-411 2958,-411"/>
<text text-anchor="start" x="3070" y="-418.8" font-family="Times New Roman,serif" font-weight="bold" font-size="14.00">EAJava_int couple_id</text>
<polygon fill="none" stroke="black" points="2958,-390 2958,-411 3317,-411 3317,-390 2958,-390"/>
<text text-anchor="start" x="3093" y="-397.8" font-family="Times New Roman,serif" font-weight="bold" font-size="14.00">design_invite()</text>
<polygon fill="none" stroke="black" points="2958,-369 2958,-390 3317,-390 3317,-369 2958,-369"/>
<text text-anchor="start" x="3099" y="-376.8" font-family="Times New Roman,serif" font-weight="bold" font-size="14.00">save_invite()</text>
<polygon fill="none" stroke="black" points="2958,-348 2958,-369 3317,-369 3317,-348 2958,-348"/>
<text text-anchor="start" x="3079.5" y="-355.8" font-family="Times New Roman,serif" font-weight="bold" font-size="14.00">update_guest_list()</text>
<polygon fill="none" stroke="black" points="2958,-327 2958,-348 3317,-348 3317,-327 2958,-327"/>
<text text-anchor="start" x="3098.5" y="-334.8" font-family="Times New Roman,serif" font-weight="bold" font-size="14.00">send_invite()</text>
<polygon fill="none" stroke="black" points="2958,-306 2958,-327 3317,-327 3317,-306 2958,-306"/>
<text text-anchor="start" x="3087.5" y="-313.8" font-family="Times New Roman,serif" font-weight="bold" font-size="14.00">view_guestList()</text>
<polygon fill="none" stroke="black" points="2958,-285 2958,-306 3317,-306 3317,-285 2958,-285"/>
<text text-anchor="start" x="3098" y="-292.8" font-family="Times New Roman,serif" font-weight="bold" font-size="14.00">takeSurvey()</text>
<polygon fill="none" stroke="black" points="2958,-264 2958,-285 3317,-285 3317,-264 2958,-264"/>
<text text-anchor="start" x="3078.5" y="-271.8" font-family="Times New Roman,serif" font-weight="bold" font-size="14.00">parseuploadedfile()</text>
<polygon fill="none" stroke="black" points="2958,-243 2958,-264 3317,-264 3317,-243 2958,-243"/>
<text text-anchor="start" x="3116" y="-250.8" font-family="Times New Roman,serif" font-weight="bold" font-size="14.00">filedb()</text>
<polygon fill="none" stroke="black" points="2958,-222 2958,-243 3317,-243 3317,-222 2958,-222"/>
<text text-anchor="start" x="2961" y="-229.8" font-family="Times New Roman,serif" font-weight="bold" font-size="14.00">RedirecttocoupleswebsitewitheventdetailsandRSVPform()</text>
<polygon fill="none" stroke="black" points="2956.5,-221.5 2956.5,-454.5 3317.5,-454.5 3317.5,-221.5 2956.5,-221.5"/>
</g>
<!-- EAID_2496E82F_C8C6_43bf_B644_27CAA1BC3686 -->
<g id="node15" class="node"><title>EAID_2496E82F_C8C6_43bf_B644_27CAA1BC3686</title>
<polygon fill="none" stroke="black" points="2731,-401 2731,-422 2922,-422 2922,-401 2731,-401"/>
<text text-anchor="start" x="2794" y="-408.8" font-family="Times New Roman,serif" font-weight="bold" font-size="14.00">Draggable</text>
<polygon fill="none" stroke="black" points="2731,-380 2731,-401 2922,-401 2922,-380 2731,-380"/>
<text text-anchor="start" x="2748" y="-387.8" font-family="Times New Roman,serif" font-weight="bold" font-size="14.00">EAJava_int draggable_id</text>
<polygon fill="none" stroke="black" points="2731,-359 2731,-380 2922,-380 2922,-359 2731,-359"/>
<text text-anchor="start" x="2775.5" y="-366.8" font-family="Times New Roman,serif" font-weight="bold" font-size="14.00">EAJava_int c_id</text>
<polygon fill="none" stroke="black" points="2731,-338 2731,-359 2922,-359 2922,-338 2731,-338"/>
<text text-anchor="start" x="2766.5" y="-345.8" font-family="Times New Roman,serif" font-weight="bold" font-size="14.00">EAJava_varchar id</text>
<polygon fill="none" stroke="black" points="2731,-317 2731,-338 2922,-338 2922,-317 2731,-317"/>
<text text-anchor="start" x="2738.5" y="-324.8" font-family="Times New Roman,serif" font-weight="bold" font-size="14.00">EAJava_double position_top</text>
<polygon fill="none" stroke="black" points="2731,-296 2731,-317 2922,-317 2922,-296 2731,-296"/>
<text text-anchor="start" x="2738.5" y="-303.8" font-family="Times New Roman,serif" font-weight="bold" font-size="14.00">EAJava_double position_left</text>
<polygon fill="none" stroke="black" points="2731,-275 2731,-296 2922,-296 2922,-275 2731,-275"/>
<text text-anchor="start" x="2734" y="-282.8" font-family="Times New Roman,serif" font-weight="bold" font-size="14.00">EAJava_varchar all_positions</text>
<polygon fill="none" stroke="black" points="2731,-254 2731,-275 2922,-275 2922,-254 2731,-254"/>
<text text-anchor="start" x="2789.5" y="-261.8" font-family="Times New Roman,serif" font-weight="bold" font-size="14.00">Draggable()</text>
<polygon fill="none" stroke="black" points="2729.5,-253 2729.5,-423 2922.5,-423 2922.5,-253 2729.5,-253"/>
</g>
<!-- EAID_58900266_B514_4ff3_96FB_7FAEFE8EA12F -->
<g id="node16" class="node"><title>EAID_58900266_B514_4ff3_96FB_7FAEFE8EA12F</title>
<polygon fill="none" stroke="black" points="2490,-464 2490,-485 2695,-485 2695,-464 2490,-464"/>
<text text-anchor="start" x="2574.5" y="-471.8" font-family="Times New Roman,serif" font-weight="bold" font-size="14.00">Event</text>
<polygon fill="none" stroke="black" points="2490,-443 2490,-464 2695,-464 2695,-443 2490,-443"/>
<text text-anchor="start" x="2541.5" y="-450.8" font-family="Times New Roman,serif" font-weight="bold" font-size="14.00">EAJava_int e_id</text>
<polygon fill="none" stroke="black" points="2490,-422 2490,-443 2695,-443 2695,-422 2490,-422"/>
<text text-anchor="start" x="2500.5" y="-429.8" font-family="Times New Roman,serif" font-weight="bold" font-size="14.00">EAJava_varchar venue_name</text>
<polygon fill="none" stroke="black" points="2490,-401 2490,-422 2695,-422 2695,-401 2490,-401"/>
<text text-anchor="start" x="2493" y="-408.8" font-family="Times New Roman,serif" font-weight="bold" font-size="14.00">EAJava_varchar venue_address</text>
<polygon fill="none" stroke="black" points="2490,-380 2490,-401 2695,-401 2695,-380 2490,-380"/>
<text text-anchor="start" x="2502" y="-387.8" font-family="Times New Roman,serif" font-weight="bold" font-size="14.00">EAJava_varchar event_name</text>
<polygon fill="none" stroke="black" points="2490,-359 2490,-380 2695,-380 2695,-359 2490,-359"/>
<text text-anchor="start" x="2536" y="-366.8" font-family="Times New Roman,serif" font-weight="bold" font-size="14.00">EAJava_date date</text>
<polygon fill="none" stroke="black" points="2490,-338 2490,-359 2695,-359 2695,-338 2490,-338"/>
<text text-anchor="start" x="2498.5" y="-345.8" font-family="Times New Roman,serif" font-weight="bold" font-size="14.00">EAJava_varchar venue_phone</text>
<polygon fill="none" stroke="black" points="2490,-317 2490,-338 2695,-338 2695,-317 2490,-317"/>
<text text-anchor="start" x="2521.5" y="-324.8" font-family="Times New Roman,serif" font-weight="bold" font-size="14.00">EAJava_varchar attire</text>
<polygon fill="none" stroke="black" points="2490,-296 2490,-317 2695,-317 2695,-296 2490,-296"/>
<text text-anchor="start" x="2541.5" y="-303.8" font-family="Times New Roman,serif" font-weight="bold" font-size="14.00">EAJava_int c_id</text>
<polygon fill="none" stroke="black" points="2490,-275 2490,-296 2695,-296 2695,-275 2490,-275"/>
<text text-anchor="start" x="2570" y="-282.8" font-family="Times New Roman,serif" font-weight="bold" font-size="14.00">Event()</text>
<polygon fill="none" stroke="black" points="2490,-254 2490,-275 2695,-275 2695,-254 2490,-254"/>
<text text-anchor="start" x="2530.5" y="-261.8" font-family="Times New Roman,serif" font-weight="bold" font-size="14.00">Requirementspage()</text>
<polygon fill="none" stroke="black" points="2490,-233 2490,-254 2695,-254 2695,-233 2490,-233"/>
<text text-anchor="start" x="2503" y="-240.8" font-family="Times New Roman,serif" font-weight="bold" font-size="14.00">Saveallpoisitionsandcotnent()</text>
<polygon fill="none" stroke="black" points="2490,-212 2490,-233 2695,-233 2695,-212 2490,-212"/>
<text text-anchor="start" x="2535" y="-219.8" font-family="Times New Roman,serif" font-weight="bold" font-size="14.00">SaveRSVPintodb()</text>
<polygon fill="none" stroke="black" points="2490,-191 2490,-212 2695,-212 2695,-191 2490,-191"/>
<text text-anchor="start" x="2521.5" y="-198.8" font-family="Times New Roman,serif" font-weight="bold" font-size="14.00">eventdetailsandRSVP()</text>
<polygon fill="none" stroke="black" points="2488.5,-190 2488.5,-486 2695.5,-486 2695.5,-190 2488.5,-190"/>
</g>
<!-- EAID_B2A52A24_D9AD_4417_9372_F503F79FEB3F -->
<g id="node17" class="node"><title>EAID_B2A52A24_D9AD_4417_9372_F503F79FEB3F</title>
<polygon fill="none" stroke="black" points="2233,-411 2233,-432 2453,-432 2453,-411 2233,-411"/>
<text text-anchor="start" x="2321" y="-418.8" font-family="Times New Roman,serif" font-weight="bold" font-size="14.00">Groom</text>
<polygon fill="none" stroke="black" points="2233,-390 2233,-411 2453,-411 2453,-390 2233,-390"/>
<text text-anchor="start" x="2291.5" y="-397.8" font-family="Times New Roman,serif" font-weight="bold" font-size="14.00">EAJava_int g_id</text>
<polygon fill="none" stroke="black" points="2233,-369 2233,-390 2453,-390 2453,-369 2233,-369"/>
<text text-anchor="start" x="2252.5" y="-376.8" font-family="Times New Roman,serif" font-weight="bold" font-size="14.00">EAJava_varchar g_firstname</text>
<polygon fill="none" stroke="black" points="2233,-348 2233,-369 2453,-369 2453,-348 2233,-348"/>
<text text-anchor="start" x="2244.5" y="-355.8" font-family="Times New Roman,serif" font-weight="bold" font-size="14.00">EAJava_varchar g_middlename</text>
<polygon fill="none" stroke="black" points="2233,-327 2233,-348 2453,-348 2453,-327 2233,-327"/>
<text text-anchor="start" x="2254" y="-334.8" font-family="Times New Roman,serif" font-weight="bold" font-size="14.00">EAJava_varchar g_lastname</text>
<polygon fill="none" stroke="black" points="2233,-306 2233,-327 2453,-327 2453,-306 2233,-306"/>
<text text-anchor="start" x="2239.5" y="-313.8" font-family="Times New Roman,serif" font-weight="bold" font-size="14.00">EAJava_varchar g_fathers_name</text>
<polygon fill="none" stroke="black" points="2233,-285 2233,-306 2453,-306 2453,-285 2233,-285"/>
<text text-anchor="start" x="2236" y="-292.8" font-family="Times New Roman,serif" font-weight="bold" font-size="14.00">EAJava_varchar g_mothers_name</text>
<polygon fill="none" stroke="black" points="2233,-264 2233,-285 2453,-285 2453,-264 2233,-264"/>
<text text-anchor="start" x="2316.5" y="-271.8" font-family="Times New Roman,serif" font-weight="bold" font-size="14.00">Groom()</text>
<polygon fill="none" stroke="black" points="2233,-243 2233,-264 2453,-264 2453,-243 2233,-243"/>
<text text-anchor="start" x="2290" y="-250.8" font-family="Times New Roman,serif" font-weight="bold" font-size="14.00">backgroundinfo()</text>
<polygon fill="none" stroke="black" points="2232,-242.5 2232,-433.5 2454,-433.5 2454,-242.5 2232,-242.5"/>
</g>
<!-- EAID_0E8A158C_AFB5_48c3_9694_950F863C8CCE -->
<g id="node18" class="node"><title>EAID_0E8A158C_AFB5_48c3_9694_950F863C8CCE</title>
<polygon fill="none" stroke="black" points="2025,-422 2025,-443 2197,-443 2197,-422 2025,-422"/>
<text text-anchor="start" x="2092.5" y="-429.8" font-family="Times New Roman,serif" font-weight="bold" font-size="14.00">Guest</text>
<polygon fill="none" stroke="black" points="2025,-401 2025,-422 2197,-422 2197,-401 2025,-401"/>
<text text-anchor="start" x="2047.5" y="-408.8" font-family="Times New Roman,serif" font-weight="bold" font-size="14.00">EAJava_int guest_id</text>
<polygon fill="none" stroke="black" points="2025,-380 2025,-401 2197,-401 2197,-380 2025,-380"/>
<text text-anchor="start" x="2060" y="-387.8" font-family="Times New Roman,serif" font-weight="bold" font-size="14.00">EAJava_int c_id</text>
<polygon fill="none" stroke="black" points="2025,-359 2025,-380 2197,-380 2197,-359 2025,-359"/>
<text text-anchor="start" x="2040" y="-366.8" font-family="Times New Roman,serif" font-weight="bold" font-size="14.00">EAJava_varchar email</text>
<polygon fill="none" stroke="black" points="2025,-338 2025,-359 2197,-359 2197,-338 2025,-338"/>
<text text-anchor="start" x="2028" y="-345.8" font-family="Times New Roman,serif" font-weight="bold" font-size="14.00">EAJava_varchar firstname</text>
<polygon fill="none" stroke="black" points="2025,-317 2025,-338 2197,-338 2197,-317 2025,-317"/>
<text text-anchor="start" x="2029.5" y="-324.8" font-family="Times New Roman,serif" font-weight="bold" font-size="14.00">EAJava_varchar lastname</text>
<polygon fill="none" stroke="black" points="2025,-296 2025,-317 2197,-317 2197,-296 2025,-296"/>
<text text-anchor="start" x="2093" y="-303.8" font-family="Times New Roman,serif" font-weight="bold" font-size="14.00">rsvp()</text>
<polygon fill="none" stroke="black" points="2025,-275 2025,-296 2197,-296 2197,-275 2025,-275"/>
<text text-anchor="start" x="2053" y="-282.8" font-family="Times New Roman,serif" font-weight="bold" font-size="14.00">emptylistmessage()</text>
<polygon fill="none" stroke="black" points="2025,-254 2025,-275 2197,-275 2197,-254 2025,-254"/>
<text text-anchor="start" x="2066.5" y="-261.8" font-family="Times New Roman,serif" font-weight="bold" font-size="14.00">guestlistpage()</text>
<polygon fill="none" stroke="black" points="2025,-233 2025,-254 2197,-254 2197,-233 2025,-233"/>
<text text-anchor="start" x="2078.5" y="-240.8" font-family="Times New Roman,serif" font-weight="bold" font-size="14.00">guestinfo()</text>
<polygon fill="none" stroke="black" points="2024,-232 2024,-444 2198,-444 2198,-232 2024,-232"/>
</g>
<!-- EAID_B6742B1F_458D_4315_ACE4_FB89C38921FB -->
<g id="node19" class="node"><title>EAID_B6742B1F_458D_4315_ACE4_FB89C38921FB</title>
<polygon fill="none" stroke="black" points="1862,-348 1862,-369 1989,-369 1989,-348 1862,-348"/>
<text text-anchor="start" x="1911" y="-355.8" font-family="Times New Roman,serif" font-weight="bold" font-size="14.00">User</text>
<polygon fill="none" stroke="black" points="1862,-327 1862,-348 1989,-348 1989,-327 1862,-327"/>
<text text-anchor="start" x="1865" y="-334.8" font-family="Times New Roman,serif" font-weight="bold" font-size="14.00">EAJava_int user_id</text>
<polygon fill="none" stroke="black" points="1862,-306 1862,-327 1989,-327 1989,-306 1862,-306"/>
<text text-anchor="start" x="1906.5" y="-313.8" font-family="Times New Roman,serif" font-weight="bold" font-size="14.00">User()</text>
<polygon fill="none" stroke="black" points="1860.5,-305.5 1860.5,-370.5 1989.5,-370.5 1989.5,-305.5 1860.5,-305.5"/>
</g>
<!-- EAID_D1C8AE0E_5893_488d_AA7F_7890F9D79735 -->
<g id="node20" class="node"><title>EAID_D1C8AE0E_5893_488d_AA7F_7890F9D79735</title>
<polygon fill="none" stroke="black" points="1653,-401 1653,-422 1825,-422 1825,-401 1653,-401"/>
<text text-anchor="start" x="1676" y="-408.8" font-family="Times New Roman,serif" font-weight="bold" font-size="14.00">UserSpecificContent</text>
<polygon fill="none" stroke="black" points="1653,-380 1653,-401 1825,-401 1825,-380 1653,-380"/>
<text text-anchor="start" x="1656" y="-387.8" font-family="Times New Roman,serif" font-weight="bold" font-size="14.00">EAJava_int user_image_id</text>
<polygon fill="none" stroke="black" points="1653,-359 1653,-380 1825,-380 1825,-359 1653,-359"/>
<text text-anchor="start" x="1668" y="-366.8" font-family="Times New Roman,serif" font-weight="bold" font-size="14.00">EAJava_varchar name</text>
<polygon fill="none" stroke="black" points="1653,-338 1653,-359 1825,-359 1825,-338 1653,-338"/>
<text text-anchor="start" x="1671" y="-345.8" font-family="Times New Roman,serif" font-weight="bold" font-size="14.00">EAJava_varchar path</text>
<polygon fill="none" stroke="black" points="1653,-317 1653,-338 1825,-338 1825,-317 1653,-317"/>
<text text-anchor="start" x="1688" y="-324.8" font-family="Times New Roman,serif" font-weight="bold" font-size="14.00">EAJava_int c_id</text>
<polygon fill="none" stroke="black" points="1653,-296 1653,-317 1825,-317 1825,-296 1653,-296"/>
<text text-anchor="start" x="1671.5" y="-303.8" font-family="Times New Roman,serif" font-weight="bold" font-size="14.00">UserSpecificContent()</text>
<polygon fill="none" stroke="black" points="1653,-275 1653,-296 1825,-296 1825,-275 1653,-275"/>
<text text-anchor="start" x="1661" y="-282.8" font-family="Times New Roman,serif" font-weight="bold" font-size="14.00">Positionsandcontentinfo()</text>
<polygon fill="none" stroke="black" points="1653,-254 1653,-275 1825,-275 1825,-254 1653,-254"/>
<text text-anchor="start" x="1670.5" y="-261.8" font-family="Times New Roman,serif" font-weight="bold" font-size="14.00">entercredentialspage()</text>
<polygon fill="none" stroke="black" points="1652,-253 1652,-423 1826,-423 1826,-253 1652,-253"/>
</g>
<!-- EAID_D9BEBC01_330F_40c6_9784_A42C7DEAE548 -->
<g id="node21" class="node"><title>EAID_D9BEBC01_330F_40c6_9784_A42C7DEAE548</title>
<polygon fill="none" stroke="black" points="1438,-348 1438,-369 1617,-369 1617,-348 1438,-348"/>
<text text-anchor="start" x="1445.5" y="-355.8" font-family="Times New Roman,serif" font-weight="bold" font-size="14.00">weddingwebsiteisdisplayed</text>
<polygon fill="none" stroke="black" points="1438,-327 1438,-348 1617,-348 1617,-327 1438,-327"/>
<text text-anchor="start" x="1441" y="-334.8" font-family="Times New Roman,serif" font-weight="bold" font-size="14.00">weddingwebsiteisdisplayed()</text>
<polygon fill="none" stroke="black" points="1438,-306 1438,-327 1617,-327 1617,-306 1438,-306"/>
<text text-anchor="start" x="1466" y="-313.8" font-family="Times New Roman,serif" font-weight="bold" font-size="14.00">websitelinkinemail()</text>
<polygon fill="none" stroke="black" points="1436.5,-305.5 1436.5,-370.5 1617.5,-370.5 1617.5,-305.5 1436.5,-305.5"/>
</g>
<!-- EAID_FAF5AA51_D7F2_4dc9_8D43_4D2E5A835D01 -->
<g id="node23" class="node"><title>EAID_FAF5AA51_D7F2_4dc9_8D43_4D2E5A835D01</title>
<polygon fill="none" stroke="black" points="862,-401 862,-422 1124,-422 1124,-401 862,-401"/>
<text text-anchor="start" x="952.5" y="-408.8" font-family="Times New Roman,serif" font-weight="bold" font-size="14.00">invitationlink</text>
<polygon fill="none" stroke="black" points="862,-380 862,-401 1124,-401 1124,-380 862,-380"/>
<text text-anchor="start" x="948" y="-387.8" font-family="Times New Roman,serif" font-weight="bold" font-size="14.00">invitationlink()</text>
<polygon fill="none" stroke="black" points="862,-359 862,-380 1124,-380 1124,-359 862,-359"/>
<text text-anchor="start" x="908" y="-366.8" font-family="Times New Roman,serif" font-weight="bold" font-size="14.00">sendregistrationlinktouser()</text>
<polygon fill="none" stroke="black" points="862,-338 862,-359 1124,-359 1124,-338 862,-338"/>
<text text-anchor="start" x="888" y="-345.8" font-family="Times New Roman,serif" font-weight="bold" font-size="14.00">selectsinvitationbackgroundpage()</text>
<polygon fill="none" stroke="black" points="862,-317 862,-338 1124,-338 1124,-317 862,-317"/>
<text text-anchor="start" x="934.5" y="-324.8" font-family="Times New Roman,serif" font-weight="bold" font-size="14.00">confirmationpage()</text>
<polygon fill="none" stroke="black" points="862,-296 862,-317 1124,-317 1124,-296 862,-296"/>
<text text-anchor="start" x="935.5" y="-303.8" font-family="Times New Roman,serif" font-weight="bold" font-size="14.00">sendinvitesbutton()</text>
<polygon fill="none" stroke="black" points="862,-275 862,-296 1124,-296 1124,-275 862,-275"/>
<text text-anchor="start" x="900" y="-282.8" font-family="Times New Roman,serif" font-weight="bold" font-size="14.00">saveinformationintodatabase()</text>
<polygon fill="none" stroke="black" points="862,-254 862,-275 1124,-275 1124,-254 862,-254"/>
<text text-anchor="start" x="865" y="-261.8" font-family="Times New Roman,serif" font-weight="bold" font-size="14.00">downloadabletemplatepageforfillingdata()</text>
<polygon fill="none" stroke="black" points="861,-253 861,-423 1125,-423 1125,-253 861,-253"/>
</g>
</g>
</svg>
