<?xml version="1.0" encoding="UTF-8" standalone="no"?>
<!DOCTYPE svg PUBLIC "-//W3C//DTD SVG 1.1//EN"
 "http://www.w3.org/Graphics/SVG/1.1/DTD/svg11.dtd">
<!-- Generated by graphviz version 2.40.1 (20161225.0304)
 -->
<!-- Title: class_diagram Pages: 1 -->
<svg width="3281pt" height="73pt"
 viewBox="0.00 0.00 3281.36 73.00" xmlns="http://www.w3.org/2000/svg" xmlns:xlink="http://www.w3.org/1999/xlink">
<g id="graph0" class="graph" transform="scale(1 1) rotate(0) translate(4 69)">
<title>class_diagram</title>
<polygon fill="#ffffff" stroke="transparent" points="-4,4 -4,-69 3277.3594,-69 3277.3594,4 -4,4"/>
<!-- cbc9596a7_2a3a_4584_8393_d1034064aeab -->
<g id="cbc9596a7_2a3a_4584_8393_d1034064aeab" class="node">
<title>cbc9596a7_2a3a_4584_8393_d1034064aeab</title>
<polygon fill="none" stroke="#000000" points="0,-12.5 0,-52.5 116.7188,-52.5 116.7188,-12.5 0,-12.5"/>
<text text-anchor="middle" x="58.3594" y="-42.1" font-family="Times,serif" font-size="8.00" fill="#000000">AndroidProcesses</text>
<polyline fill="none" stroke="#000000" points="0,-36.5 116.7188,-36.5 "/>
<text text-anchor="start" x="8" y="-26.1" font-family="Times,serif" font-size="8.00" fill="#000000">+ log()</text>
<text text-anchor="start" x="8" y="-18.1" font-family="Times,serif" font-size="8.00" fill="#000000">+ getRunningAppProcessInfo()</text>
</g>
<!-- c7ed8fb70_51a7_4a5e_b3a5_01c3d7f8e61d -->
<g id="c7ed8fb70_51a7_4a5e_b3a5_01c3d7f8e61d" class="node">
<title>c7ed8fb70_51a7_4a5e_b3a5_01c3d7f8e61d</title>
<polygon fill="none" stroke="#000000" points="134.6973,-14.5 134.6973,-50.5 208.0215,-50.5 208.0215,-14.5 134.6973,-14.5"/>
<text text-anchor="middle" x="171.3594" y="-30.1" font-family="Times,serif" font-size="8.00" fill="#000000">ActivityProcesses</text>
</g>
<!-- c91bb10fa_71ef_44b1_a250_20021e29a435 -->
<g id="c91bb10fa_71ef_44b1_a250_20021e29a435" class="node">
<title>c91bb10fa_71ef_44b1_a250_20021e29a435</title>
<polygon fill="none" stroke="#000000" points="225.8105,-14.5 225.8105,-50.5 292.9082,-50.5 292.9082,-14.5 225.8105,-14.5"/>
<text text-anchor="middle" x="259.3594" y="-30.1" font-family="Times,serif" font-size="8.00" fill="#000000">ContentHandler</text>
</g>
<!-- c31fb963c_d706_4db5_9cfb_d2fdf9db3347 -->
<g id="c31fb963c_d706_4db5_9cfb_d2fdf9db3347" class="node">
<title>c31fb963c_d706_4db5_9cfb_d2fdf9db3347</title>
<polygon fill="none" stroke="#000000" points="310.918,-14.5 310.918,-50.5 391.8008,-50.5 391.8008,-14.5 310.918,-14.5"/>
<text text-anchor="middle" x="351.3594" y="-39.6" font-family="Times,serif" font-size="8.00" fill="#000000">AndroidAppProcess</text>
<polyline fill="none" stroke="#000000" points="310.918,-33.5 391.8008,-33.5 "/>
<text text-anchor="start" x="318.918" y="-22.6" font-family="Times,serif" font-size="8.00" fill="#000000">&#45; uid:int</text>
<polyline fill="none" stroke="#000000" points="310.918,-16.5 391.8008,-16.5 "/>
</g>
<!-- c8c5fa517_7854_446c_ad70_238bfee92b39 -->
<g id="c8c5fa517_7854_446c_ad70_238bfee92b39" class="node">
<title>c8c5fa517_7854_446c_ad70_238bfee92b39</title>
<polygon fill="none" stroke="#000000" points="410.2559,-14.5 410.2559,-50.5 468.4629,-50.5 468.4629,-14.5 410.2559,-14.5"/>
<text text-anchor="middle" x="439.3594" y="-30.1" font-family="Times,serif" font-size="8.00" fill="#000000">DTDHandler</text>
</g>
<!-- cd01bd56d_c6f2_4212_9979_63d83ea14a86 -->
<g id="cd01bd56d_c6f2_4212_9979_63d83ea14a86" class="node">
<title>cd01bd56d_c6f2_4212_9979_63d83ea14a86</title>
<polygon fill="none" stroke="#000000" points="486.3359,-14.5 486.3359,-50.5 642.3828,-50.5 642.3828,-14.5 486.3359,-14.5"/>
<text text-anchor="middle" x="564.3594" y="-39.6" font-family="Times,serif" font-size="8.00" fill="#000000">ControlGroup$1</text>
<polyline fill="none" stroke="#000000" points="486.3359,-33.5 642.3828,-33.5 "/>
<text text-anchor="start" x="494.3359" y="-22.6" font-family="Times,serif" font-size="8.00" fill="#000000">&#45; CREATOR:android.os.Parcelable$Creator</text>
<polyline fill="none" stroke="#000000" points="486.3359,-16.5 642.3828,-16.5 "/>
</g>
<!-- c99011b09_bc3e_4c43_9d9a_d64c65504306 -->
<g id="c99011b09_bc3e_4c43_9d9a_d64c65504306" class="node">
<title>c99011b09_bc3e_4c43_9d9a_d64c65504306</title>
<polygon fill="none" stroke="#000000" points="660.332,-12.5 660.332,-52.5 718.3867,-52.5 718.3867,-12.5 660.332,-12.5"/>
<text text-anchor="middle" x="689.3594" y="-42.1" font-family="Times,serif" font-size="8.00" fill="#000000">Cgroup$1</text>
<polyline fill="none" stroke="#000000" points="660.332,-36.5 718.3867,-36.5 "/>
<text text-anchor="start" x="668.332" y="-26.1" font-family="Times,serif" font-size="8.00" fill="#000000">+ getGroup()</text>
<text text-anchor="start" x="668.332" y="-18.1" font-family="Times,serif" font-size="8.00" fill="#000000">+ get()</text>
</g>
<!-- c246f84a3_caa7_4490_ac2c_893b24d0bd07 -->
<g id="c246f84a3_caa7_4490_ac2c_893b24d0bd07" class="node">
<title>c246f84a3_caa7_4490_ac2c_893b24d0bd07</title>
<polygon fill="none" stroke="#000000" points="736.3594,-14.5 736.3594,-50.5 790.3594,-50.5 790.3594,-14.5 736.3594,-14.5"/>
<text text-anchor="middle" x="763.082" y="-35.1" font-family="Times,serif" font-size="8.00" fill="#000000">Stat</text>
<polyline fill="none" stroke="#000000" points="736.3594,-24.5 789.8047,-24.5 "/>
</g>
<!-- cf03a745a_3cd1_4ed7_a0f3_112b699a37fc -->
<g id="cf03a745a_3cd1_4ed7_a0f3_112b699a37fc" class="node">
<title>cf03a745a_3cd1_4ed7_a0f3_112b699a37fc</title>
<polygon fill="none" stroke="#000000" points="808.3594,-14.5 808.3594,-50.5 862.3594,-50.5 862.3594,-14.5 808.3594,-14.5"/>
<text text-anchor="middle" x="835.1387" y="-35.1" font-family="Times,serif" font-size="8.00" fill="#000000">Status$1</text>
<polyline fill="none" stroke="#000000" points="808.3594,-24.5 861.918,-24.5 "/>
</g>
<!-- c70ed55ae_983a_4839_8cc8_06e14bc1ecc3 -->
<g id="c70ed55ae_983a_4839_8cc8_06e14bc1ecc3" class="node">
<title>c70ed55ae_983a_4839_8cc8_06e14bc1ecc3</title>
<polygon fill="none" stroke="#000000" points="880.3594,-14.5 880.3594,-50.5 934.3594,-50.5 934.3594,-14.5 880.3594,-14.5"/>
<text text-anchor="middle" x="906.9141" y="-35.1" font-family="Times,serif" font-size="8.00" fill="#000000">ProcFile</text>
<polyline fill="none" stroke="#000000" points="880.3594,-24.5 933.4688,-24.5 "/>
</g>
<!-- cd1dbfae2_9a95_4f72_8861_b637b8d4d1ca -->
<g id="cd1dbfae2_9a95_4f72_8861_b637b8d4d1ca" class="node">
<title>cd1dbfae2_9a95_4f72_8861_b637b8d4d1ca</title>
<polygon fill="none" stroke="#000000" points="951.9258,-.5 951.9258,-64.5 1042.793,-64.5 1042.793,-.5 951.9258,-.5"/>
<text text-anchor="middle" x="997.3594" y="-54.1" font-family="Times,serif" font-size="8.00" fill="#000000">AndroidProcess</text>
<polyline fill="none" stroke="#000000" points="951.9258,-48.5 1042.793,-48.5 "/>
<text text-anchor="start" x="959.9258" y="-38.1" font-family="Times,serif" font-size="8.00" fill="#000000">&#45; name:java.lang.String</text>
<polyline fill="none" stroke="#000000" points="951.9258,-32.5 1042.793,-32.5 "/>
<text text-anchor="start" x="959.9258" y="-22.1" font-family="Times,serif" font-size="8.00" fill="#000000">+ status()</text>
<text text-anchor="start" x="959.9258" y="-14.1" font-family="Times,serif" font-size="8.00" fill="#000000">+ cgroup()</text>
<text text-anchor="start" x="959.9258" y="-6.1" font-family="Times,serif" font-size="8.00" fill="#000000">+ stat()</text>
</g>
<!-- cafc4b2af_6350_4090_b8d2_1a1b9ff04f67 -->
<g id="cafc4b2af_6350_4090_b8d2_1a1b9ff04f67" class="node">
<title>cafc4b2af_6350_4090_b8d2_1a1b9ff04f67</title>
<polygon fill="none" stroke="#000000" points="1061.2598,-14.5 1061.2598,-50.5 1175.459,-50.5 1175.459,-14.5 1061.2598,-14.5"/>
<text text-anchor="middle" x="1118.3594" y="-30.1" font-family="Times,serif" font-size="8.00" fill="#000000">SAXNotRecognizedException</text>
</g>
<!-- c9b7e19ad_a21c_4a75_a565_2c7d1b879dec -->
<g id="c9b7e19ad_a21c_4a75_a565_2c7d1b879dec" class="node">
<title>c9b7e19ad_a21c_4a75_a565_2c7d1b879dec</title>
<polygon fill="none" stroke="#000000" points="1193.0371,-14.5 1193.0371,-50.5 1251.6816,-50.5 1251.6816,-14.5 1193.0371,-14.5"/>
<text text-anchor="middle" x="1222.3594" y="-30.1" font-family="Times,serif" font-size="8.00" fill="#000000">ErrorHandler</text>
</g>
<!-- c2e740c82_0893_4927_8ea8_d8c22a4a53f7 -->
<g id="c2e740c82_0893_4927_8ea8_d8c22a4a53f7" class="node">
<title>c2e740c82_0893_4927_8ea8_d8c22a4a53f7</title>
<polygon fill="none" stroke="#000000" points="1269.3594,-14.5 1269.3594,-50.5 1323.3594,-50.5 1323.3594,-14.5 1269.3594,-14.5"/>
<text text-anchor="middle" x="1296.2969" y="-30.1" font-family="Times,serif" font-size="8.00" fill="#000000">Locator</text>
</g>
<!-- c596b6f71_a482_450a_adb1_9be4748af75e -->
<g id="c596b6f71_a482_450a_adb1_9be4748af75e" class="node">
<title>c596b6f71_a482_450a_adb1_9be4748af75e</title>
<polygon fill="none" stroke="#000000" points="1341.0391,-14.5 1341.0391,-50.5 1411.6797,-50.5 1411.6797,-14.5 1341.0391,-14.5"/>
<text text-anchor="middle" x="1376.3594" y="-30.1" font-family="Times,serif" font-size="8.00" fill="#000000">ServiceReader$4</text>
</g>
<!-- ccb17881b_0b20_4c89_82ea_0ce700052029 -->
<g id="ccb17881b_0b20_4c89_82ea_0ce700052029" class="node">
<title>ccb17881b_0b20_4c89_82ea_0ce700052029</title>
<polygon fill="none" stroke="#000000" points="1429.9238,-14.5 1429.9238,-50.5 1498.7949,-50.5 1498.7949,-14.5 1429.9238,-14.5"/>
<text text-anchor="middle" x="1464.3594" y="-30.1" font-family="Times,serif" font-size="8.00" fill="#000000">ProcessManager</text>
</g>
<!-- c2aa04a4b_2d07_42ab_9aca_7001a37b2308 -->
<g id="c2aa04a4b_2d07_42ab_9aca_7001a37b2308" class="node">
<title>c2aa04a4b_2d07_42ab_9aca_7001a37b2308</title>
<polygon fill="none" stroke="#000000" points="1516.3594,-14.5 1516.3594,-50.5 1570.3594,-50.5 1570.3594,-14.5 1516.3594,-14.5"/>
<text text-anchor="middle" x="1543.0273" y="-30.1" font-family="Times,serif" font-size="8.00" fill="#000000">C</text>
</g>
<!-- c49223d0d_3ad4_4ca8_b7ed_1614062413da -->
<g id="c49223d0d_3ad4_4ca8_b7ed_1614062413da" class="node">
<title>c49223d0d_3ad4_4ca8_b7ed_1614062413da</title>
<polygon fill="none" stroke="#000000" points="1588.3594,-14.5 1588.3594,-50.5 1642.3594,-50.5 1642.3594,-14.5 1588.3594,-14.5"/>
<text text-anchor="middle" x="1615.1934" y="-30.1" font-family="Times,serif" font-size="8.00" fill="#000000">Statm</text>
</g>
<!-- ca4beae27_7768_44db_ade8_225586f82f89 -->
<g id="ca4beae27_7768_44db_ade8_225586f82f89" class="node">
<title>ca4beae27_7768_44db_ade8_225586f82f89</title>
<polygon fill="none" stroke="#000000" points="1660.6973,-14.5 1660.6973,-50.5 1770.0215,-50.5 1770.0215,-14.5 1660.6973,-14.5"/>
<text text-anchor="middle" x="1715.3594" y="-30.1" font-family="Times,serif" font-size="8.00" fill="#000000">SAXNotSupportedException</text>
</g>
<!-- c7752f19c_1aa9_4d2f_bd0a_3e2d887c964d -->
<g id="c7752f19c_1aa9_4d2f_bd0a_3e2d887c964d" class="node">
<title>c7752f19c_1aa9_4d2f_bd0a_3e2d887c964d</title>
<polygon fill="none" stroke="#000000" points="1788.1445,-14.5 1788.1445,-50.5 1844.5742,-50.5 1844.5742,-14.5 1788.1445,-14.5"/>
<text text-anchor="middle" x="1816.3594" y="-30.1" font-family="Times,serif" font-size="8.00" fill="#000000">XMLReader</text>
</g>
<!-- c5d313e04_3e4f_4b2b_a17f_ca341bd9aff6 -->
<g id="c5d313e04_3e4f_4b2b_a17f_ca341bd9aff6" class="node">
<title>c5d313e04_3e4f_4b2b_a17f_ca341bd9aff6</title>
<polygon fill="none" stroke="#000000" points="1863.0508,-14.5 1863.0508,-50.5 1921.668,-50.5 1921.668,-14.5 1863.0508,-14.5"/>
<text text-anchor="middle" x="1892.3594" y="-30.1" font-family="Times,serif" font-size="8.00" fill="#000000">ViewGraphic</text>
</g>
<!-- c13259dc9_a54d_4a58_b1ad_f3d35e25f399 -->
<g id="c13259dc9_a54d_4a58_b1ad_f3d35e25f399" class="node">
<title>c13259dc9_a54d_4a58_b1ad_f3d35e25f399</title>
<polygon fill="none" stroke="#000000" points="1939.8047,-14.5 1939.8047,-50.5 2002.9141,-50.5 2002.9141,-14.5 1939.8047,-14.5"/>
<text text-anchor="middle" x="1971.3594" y="-30.1" font-family="Times,serif" font-size="8.00" fill="#000000">XmlPullParser</text>
</g>
<!-- c26dcbc2b_13ea_4d0e_974a_c993200c1024 -->
<g id="c26dcbc2b_13ea_4d0e_974a_c993200c1024" class="node">
<title>c26dcbc2b_13ea_4d0e_974a_c993200c1024</title>
<polygon fill="none" stroke="#000000" points="2020.4766,-14.5 2020.4766,-50.5 2102.2422,-50.5 2102.2422,-14.5 2020.4766,-14.5"/>
<text text-anchor="middle" x="2061.3594" y="-30.1" font-family="Times,serif" font-size="8.00" fill="#000000">SAXParseException</text>
</g>
<!-- c1289018e_4158_4cbb_8e09_5eafc44f538f -->
<g id="c1289018e_4158_4cbb_8e09_5eafc44f538f" class="node">
<title>c1289018e_4158_4cbb_8e09_5eafc44f538f</title>
<polygon fill="none" stroke="#000000" points="2120.5762,-14.5 2120.5762,-50.5 2176.1426,-50.5 2176.1426,-14.5 2120.5762,-14.5"/>
<text text-anchor="middle" x="2148.3594" y="-30.1" font-family="Times,serif" font-size="8.00" fill="#000000">BuildConfig</text>
</g>
<!-- c21526067_3d32_40fb_b964_ad9f29183ae4 -->
<g id="c21526067_3d32_40fb_b964_ad9f29183ae4" class="node">
<title>c21526067_3d32_40fb_b964_ad9f29183ae4</title>
<polygon fill="none" stroke="#000000" points="2193.8066,-14.5 2193.8066,-50.5 2264.9121,-50.5 2264.9121,-14.5 2193.8066,-14.5"/>
<text text-anchor="middle" x="2229.3594" y="-30.1" font-family="Times,serif" font-size="8.00" fill="#000000">ActivityMain$19</text>
</g>
<!-- c0deaa072_55d6_4776_b545_abcb394da520 -->
<g id="c0deaa072_55d6_4776_b545_abcb394da520" class="node">
<title>c0deaa072_55d6_4776_b545_abcb394da520</title>
<polygon fill="none" stroke="#000000" points="2283.3633,-14.5 2283.3633,-50.5 2347.3555,-50.5 2347.3555,-14.5 2283.3633,-14.5"/>
<text text-anchor="middle" x="2315.3594" y="-30.1" font-family="Times,serif" font-size="8.00" fill="#000000">EntityResolver</text>
</g>
<!-- cf8418ffd_2c4e_4c26_90f6_56ed0b682977 -->
<g id="cf8418ffd_2c4e_4c26_90f6_56ed0b682977" class="node">
<title>cf8418ffd_2c4e_4c26_90f6_56ed0b682977</title>
<polygon fill="none" stroke="#000000" points="2365.3594,-14.5 2365.3594,-50.5 2419.3594,-50.5 2419.3594,-14.5 2365.3594,-14.5"/>
<text text-anchor="middle" x="2392.0273" y="-30.1" font-family="Times,serif" font-size="8.00" fill="#000000">R</text>
</g>
<!-- c38427b3c_75ed_4485_9b48_a77e3ae0f0a1 -->
<g id="c38427b3c_75ed_4485_9b48_a77e3ae0f0a1" class="node">
<title>c38427b3c_75ed_4485_9b48_a77e3ae0f0a1</title>
<polygon fill="none" stroke="#000000" points="2437.1406,-14.5 2437.1406,-50.5 2501.5781,-50.5 2501.5781,-14.5 2437.1406,-14.5"/>
<text text-anchor="middle" x="2469.3594" y="-30.1" font-family="Times,serif" font-size="8.00" fill="#000000">SAXException</text>
</g>
<!-- c37c0c903_5d2e_4c35_851e_2dc67613693a -->
<g id="c37c0c903_5d2e_4c35_851e_2dc67613693a" class="node">
<title>c37c0c903_5d2e_4c35_851e_2dc67613693a</title>
<polygon fill="none" stroke="#000000" points="2519.8086,-14.5 2519.8086,-50.5 2574.9102,-50.5 2574.9102,-14.5 2519.8086,-14.5"/>
<text text-anchor="middle" x="2547.3594" y="-30.1" font-family="Times,serif" font-size="8.00" fill="#000000">InputSource</text>
</g>
<!-- c1735c48c_c30d_49f1_a7fd_34736474943f -->
<g id="c1735c48c_c30d_49f1_a7fd_34736474943f" class="node">
<title>c1735c48c_c30d_49f1_a7fd_34736474943f</title>
<polygon fill="none" stroke="#000000" points="2593.3594,-14.5 2593.3594,-50.5 2647.3594,-50.5 2647.3594,-14.5 2593.3594,-14.5"/>
<text text-anchor="middle" x="2620.0254" y="-30.1" font-family="Times,serif" font-size="8.00" fill="#000000">R$layout</text>
</g>
<!-- cc6e995ed_6dd5_440a_9aec_ae69093791b5 -->
<g id="cc6e995ed_6dd5_440a_9aec_ae69093791b5" class="node">
<title>cc6e995ed_6dd5_440a_9aec_ae69093791b5</title>
<polygon fill="none" stroke="#000000" points="2665.5879,-14.5 2665.5879,-50.5 2761.1309,-50.5 2761.1309,-14.5 2665.5879,-14.5"/>
<text text-anchor="middle" x="2713.3594" y="-30.1" font-family="Times,serif" font-size="8.00" fill="#000000">XmlPullParserException</text>
</g>
<!-- cb2dddbd2_6a21_4f4f_bf0c_0ad540b4dd51 -->
<g id="cb2dddbd2_6a21_4f4f_bf0c_0ad540b4dd51" class="node">
<title>cb2dddbd2_6a21_4f4f_bf0c_0ad540b4dd51</title>
<polygon fill="none" stroke="#000000" points="2778.7012,-14.5 2778.7012,-50.5 2876.0176,-50.5 2876.0176,-14.5 2778.7012,-14.5"/>
<text text-anchor="middle" x="2827.3594" y="-30.1" font-family="Times,serif" font-size="8.00" fill="#000000">LinearLayoutCustomised</text>
</g>
<!-- c1f4f233b_63f5_45a2_86ae_8a0429196533 -->
<g id="c1f4f233b_63f5_45a2_86ae_8a0429196533" class="node">
<title>c1f4f233b_63f5_45a2_86ae_8a0429196533</title>
<polygon fill="none" stroke="#000000" points="2894.4746,-14.5 2894.4746,-50.5 2960.2441,-50.5 2960.2441,-14.5 2894.4746,-14.5"/>
<text text-anchor="middle" x="2927.3594" y="-30.1" font-family="Times,serif" font-size="8.00" fill="#000000">ActivityHelp$1</text>
</g>
<!-- cee663e81_222c_482a_ba64_7f0c27bec58f -->
<g id="cee663e81_222c_482a_ba64_7f0c27bec58f" class="node">
<title>cee663e81_222c_482a_ba64_7f0c27bec58f</title>
<polygon fill="none" stroke="#000000" points="2978.25,-14.5 2978.25,-50.5 3048.4688,-50.5 3048.4688,-14.5 2978.25,-14.5"/>
<text text-anchor="middle" x="3013.3594" y="-30.1" font-family="Times,serif" font-size="8.00" fill="#000000">ActivityAbout$2</text>
</g>
<!-- c5063858e_b388_492a_82bb_354c0c016e6e -->
<g id="c5063858e_b388_492a_82bb_354c0c016e6e" class="node">
<title>c5063858e_b388_492a_82bb_354c0c016e6e</title>
<polygon fill="none" stroke="#000000" points="3066.9238,-14.5 3066.9238,-50.5 3127.7949,-50.5 3127.7949,-14.5 3066.9238,-14.5"/>
<text text-anchor="middle" x="3097.3594" y="-30.1" font-family="Times,serif" font-size="8.00" fill="#000000">XmlSerializer</text>
</g>
<!-- c9f6bb33d_2f47_48bd_b09d_90fd5a151e0f -->
<g id="c9f6bb33d_2f47_48bd_b09d_90fd5a151e0f" class="node">
<title>c9f6bb33d_2f47_48bd_b09d_90fd5a151e0f</title>
<polygon fill="none" stroke="#000000" points="3145.5762,-14.5 3145.5762,-50.5 3201.1426,-50.5 3201.1426,-14.5 3145.5762,-14.5"/>
<text text-anchor="middle" x="3173.3594" y="-30.1" font-family="Times,serif" font-size="8.00" fill="#000000">BuildConfig</text>
</g>
<!-- ce69c0374_b4d2_442f_8428_557ede024604 -->
<g id="ce69c0374_b4d2_442f_8428_557ede024604" class="node">
<title>ce69c0374_b4d2_442f_8428_557ede024604</title>
<polygon fill="none" stroke="#000000" points="3219.3594,-14.5 3219.3594,-50.5 3273.3594,-50.5 3273.3594,-14.5 3219.3594,-14.5"/>
<text text-anchor="middle" x="3246.3574" y="-30.1" font-family="Times,serif" font-size="8.00" fill="#000000">Attributes</text>
</g>
</g>
</svg>
