<?xml version="1.0" encoding="UTF-8" standalone="no"?>
<!DOCTYPE svg PUBLIC "-//W3C//DTD SVG 1.1//EN"
 "http://www.w3.org/Graphics/SVG/1.1/DTD/svg11.dtd">
<!-- Generated by graphviz version 2.38.0 (20140413.2041)
 -->
<!-- Title: class_diagram Pages: 1 -->
<svg width="1086pt" height="78pt"
 viewBox="0.00 0.00 1085.50 78.00" xmlns="http://www.w3.org/2000/svg" xmlns:xlink="http://www.w3.org/1999/xlink">
<g id="graph0" class="graph" transform="scale(1 1) rotate(0) translate(4 74)">
<title>class_diagram</title>
<polygon fill="white" stroke="none" points="-4,4 -4,-74 1081.5,-74 1081.5,4 -4,4"/>
<!-- EAID_LL000000_1D74_4a6c_B5F7_BCC99B65A011 -->
<g id="EAID_LL000000_1D74_4a6c_B5F7_BCC99B65A011" class="node"><title>EAID_LL000000_1D74_4a6c_B5F7_BCC99B65A011</title>
<polygon fill="none" stroke="black" points="0,-17 0,-53 54,-53 54,-17 0,-17"/>
<text text-anchor="middle" x="27" y="-33.1" font-family="Times New Roman,serif" font-size="8.00">User</text>
</g>
<!-- EAID_3D39FCB9_3063_410b_8768_142EFC990321 -->
<g id="EAID_3D39FCB9_3063_410b_8768_142EFC990321" class="node"><title>EAID_3D39FCB9_3063_410b_8768_142EFC990321</title>
<polygon fill="none" stroke="black" points="72.5,-17 72.5,-53 197.5,-53 197.5,-17 72.5,-17"/>
<text text-anchor="middle" x="135" y="-42.1" font-family="Times New Roman,serif" font-size="8.00">BookTicketInterface</text>
<polyline fill="none" stroke="black" points="72.5,-35 197.5,-35 "/>
<text text-anchor="start" x="80.5" y="-24.1" font-family="Times New Roman,serif" font-size="8.00">&#45; BookTicketInput:EAJava_int</text>
</g>
<!-- EAID_23AC56E0_E407_40a4_BE5D_54A73236D361 -->
<g id="EAID_23AC56E0_E407_40a4_BE5D_54A73236D361" class="node"><title>EAID_23AC56E0_E407_40a4_BE5D_54A73236D361</title>
<polygon fill="none" stroke="black" points="215.5,-0.5 215.5,-69.5 466.5,-69.5 466.5,-0.5 215.5,-0.5"/>
<text text-anchor="middle" x="341" y="-59.1" font-family="Times New Roman,serif" font-size="8.00">BookTicketsManagement</text>
<polyline fill="none" stroke="black" points="215.5,-52.5 466.5,-52.5 "/>
<text text-anchor="start" x="223.5" y="-42.1" font-family="Times New Roman,serif" font-size="8.00">&#45; ticketName:EAJava_String</text>
<text text-anchor="start" x="223.5" y="-33.1" font-family="Times New Roman,serif" font-size="8.00">&#45; tiketId:EAJava_int</text>
<text text-anchor="start" x="223.5" y="-24.1" font-family="Times New Roman,serif" font-size="8.00">&#45; undefined:EAID_A2005B87_8BE7_4869_9CC6_2F5C7E80F893</text>
<polyline fill="none" stroke="black" points="215.5,-17.5 466.5,-17.5 "/>
<text text-anchor="start" x="223.5" y="-7.1" font-family="Times New Roman,serif" font-size="8.00">+ bookTicketsManagement(EAJava_int ticketId):EAJava_void</text>
</g>
<!-- EAID_FC3FF47A_7475_494a_BA4A_BE777480C1D4 -->
<g id="EAID_FC3FF47A_7475_494a_BA4A_BE777480C1D4" class="node"><title>EAID_FC3FF47A_7475_494a_BA4A_BE777480C1D4</title>
<polygon fill="none" stroke="black" points="484.5,-17 484.5,-53 611.5,-53 611.5,-17 484.5,-17"/>
<text text-anchor="middle" x="548" y="-42.1" font-family="Times New Roman,serif" font-size="8.00">BookTickets</text>
<polyline fill="none" stroke="black" points="484.5,-35 611.5,-35 "/>
<text text-anchor="start" x="492.5" y="-24.1" font-family="Times New Roman,serif" font-size="8.00">&#45; BookTicketName:EAJava_int</text>
</g>
<!-- EAID_8C9379DB_BC70_4e53_B7F0_E202C165F77B -->
<g id="EAID_8C9379DB_BC70_4e53_B7F0_E202C165F77B" class="node"><title>EAID_8C9379DB_BC70_4e53_B7F0_E202C165F77B</title>
<polygon fill="none" stroke="black" points="630,-17 630,-53 684,-53 684,-17 630,-17"/>
<text text-anchor="middle" x="657" y="-33.1" font-family="Times New Roman,serif" font-size="8.00">Actor1</text>
</g>
<!-- EAID_D74B2E4B_A09B_490c_8A63_FD182DD29007 -->
<g id="EAID_D74B2E4B_A09B_490c_8A63_FD182DD29007" class="node"><title>EAID_D74B2E4B_A09B_490c_8A63_FD182DD29007</title>
<polygon fill="none" stroke="black" points="702.5,-17 702.5,-53 791.5,-53 791.5,-17 702.5,-17"/>
<text text-anchor="middle" x="747" y="-33.1" font-family="Times New Roman,serif" font-size="8.00">Buy tickets interface</text>
</g>
<!-- EAID_1A829F8F_037D_4396_9248_AB80B239B2AE -->
<g id="EAID_1A829F8F_037D_4396_9248_AB80B239B2AE" class="node"><title>EAID_1A829F8F_037D_4396_9248_AB80B239B2AE</title>
<polygon fill="none" stroke="black" points="810,-17 810,-53 914,-53 914,-17 810,-17"/>
<text text-anchor="middle" x="862" y="-33.1" font-family="Times New Roman,serif" font-size="8.00">payment success message</text>
</g>
<!-- EAID_4016A4E4_FD98_4efd_A851_B7B01AC79427 -->
<g id="EAID_4016A4E4_FD98_4efd_A851_B7B01AC79427" class="node"><title>EAID_4016A4E4_FD98_4efd_A851_B7B01AC79427</title>
<polygon fill="none" stroke="black" points="932,-17 932,-53 988,-53 988,-17 932,-17"/>
<text text-anchor="middle" x="960" y="-33.1" font-family="Times New Roman,serif" font-size="8.00">pay the bill</text>
</g>
<!-- EAID_FB752BC8_2742_4b54_A120_66A641D914CC -->
<g id="EAID_FB752BC8_2742_4b54_A120_66A641D914CC" class="node"><title>EAID_FB752BC8_2742_4b54_A120_66A641D914CC</title>
<polygon fill="none" stroke="black" points="1006.5,-17 1006.5,-53 1077.5,-53 1077.5,-17 1006.5,-17"/>
<text text-anchor="middle" x="1042" y="-33.1" font-family="Times New Roman,serif" font-size="8.00">save bill records</text>
</g>
</g>
</svg>
