<?xml version="1.0" encoding="UTF-8" standalone="no"?>
<!DOCTYPE svg PUBLIC "-//W3C//DTD SVG 1.1//EN"
 "http://www.w3.org/Graphics/SVG/1.1/DTD/svg11.dtd">
<!-- Generated by graphviz version 2.38.0 (20140413.2041)
 -->
<!-- Title: g Pages: 1 -->
<svg width="1038pt" height="395pt"
 viewBox="0.00 0.00 1038.00 395.00" xmlns="http://www.w3.org/2000/svg" xmlns:xlink="http://www.w3.org/1999/xlink">
<g id="graph0" class="graph" transform="scale(1 1) rotate(0) translate(4 391)">
<title>g</title>
<polygon fill="white" stroke="none" points="-4,4 -4,-391 1034,-391 1034,4 -4,4"/>
<!-- EAID_972EF8EF_28A9_473b_B05D_DE962FECA515 -->
<g id="node1" class="node"><title>EAID_972EF8EF_28A9_473b_B05D_DE962FECA515</title>
<image xlink:href="img/actor1.png" width="73px" height="90px" preserveAspectRatio="xMinYMin meet" x="10.5" y="-253.5"/>
<text text-anchor="start" x="10.5" y="-140.3" font-family="Times New Roman,serif" font-size="24.00">Student</text>
</g>
<!-- EAID_7BD05230_67C6_49f1_987A_8B172BC5F835 -->
<g id="node2" class="node"><title>EAID_7BD05230_67C6_49f1_987A_8B172BC5F835</title>
<image xlink:href="img/boundary3.png" width="115px" height="67px" preserveAspectRatio="xMinYMin meet" x="872.5" y="-380.5"/>
<text text-anchor="start" x="839.5" y="-290.3" font-family="Times New Roman,serif" font-size="24.00">genealogy statistics</text>
</g>
<!-- EAID_972EF8EF_28A9_473b_B05D_DE962FECA515&#45;&gt;EAID_7BD05230_67C6_49f1_987A_8B172BC5F835 -->
<g id="edge1" class="edge"><title>EAID_972EF8EF_28A9_473b_B05D_DE962FECA515&#45;&gt;EAID_7BD05230_67C6_49f1_987A_8B172BC5F835</title>
<path fill="none" stroke="black" d="M93.4064,-236.052C104.366,-244.121 116.526,-251.57 129,-256.5 361.349,-348.34 660.141,-348.847 818.521,-340.883"/>
<polygon fill="black" stroke="black" points="818.945,-344.366 828.748,-340.347 818.578,-337.376 818.945,-344.366"/>
</g>
<!-- EAID_A3DD0382_52D6_41b1_ADDB_98D599708CFF -->
<g id="node3" class="node"><title>EAID_A3DD0382_52D6_41b1_ADDB_98D599708CFF</title>
<image xlink:href="img/boundary3.png" width="113px" height="67px" preserveAspectRatio="xMinYMin meet" x="873.5" y="-102.5"/>
<text text-anchor="start" x="873.5" y="-12.3" font-family="Times New Roman,serif" font-size="24.00">video frame</text>
</g>
<!-- EAID_972EF8EF_28A9_473b_B05D_DE962FECA515&#45;&gt;EAID_A3DD0382_52D6_41b1_ADDB_98D599708CFF -->
<g id="edge2" class="edge"><title>EAID_972EF8EF_28A9_473b_B05D_DE962FECA515&#45;&gt;EAID_A3DD0382_52D6_41b1_ADDB_98D599708CFF</title>
<path fill="none" stroke="black" d="M93.3187,-150.259C104.283,-142.063 116.468,-134.5 129,-129.5 379.058,-29.7349 706.809,-37.8077 852.74,-47.7936"/>
<polygon fill="black" stroke="black" points="852.707,-51.2999 862.929,-48.5144 853.201,-44.3174 852.707,-51.2999"/>
</g>
<!-- EAID_235D6B5C_351D_438c_A332_1F7CBEACC04D -->
<g id="node4" class="node"><title>EAID_235D6B5C_351D_438c_A332_1F7CBEACC04D</title>
<image xlink:href="img/boundary3.png" width="115px" height="67px" preserveAspectRatio="xMinYMin meet" x="279.5" y="-241.5"/>
<text text-anchor="start" x="139" y="-151.3" font-family="Times New Roman,serif" font-size="24.00">play, pause, resice buttons of video player</text>
</g>
<!-- EAID_972EF8EF_28A9_473b_B05D_DE962FECA515&#45;&gt;EAID_235D6B5C_351D_438c_A332_1F7CBEACC04D -->
<g id="edge3" class="edge"><title>EAID_972EF8EF_28A9_473b_B05D_DE962FECA515&#45;&gt;EAID_235D6B5C_351D_438c_A332_1F7CBEACC04D</title>
<path fill="none" stroke="black" d="M93.2137,-193.5C101.031,-193.5 109.589,-193.5 118.671,-193.5"/>
<polygon fill="black" stroke="black" points="118.723,-197 128.723,-193.5 118.723,-190 118.723,-197"/>
</g>
<!-- EAID_3FFBF942_376A_4b42_BE0A_72FDFD7ECE27 -->
<g id="node5" class="node"><title>EAID_3FFBF942_376A_4b42_BE0A_72FDFD7ECE27</title>
<image xlink:href="img/control1.png" width="106px" height="75px" preserveAspectRatio="xMinYMin meet" x="634" y="-245.5"/>
<text text-anchor="start" x="591" y="-147.3" font-family="Times New Roman,serif" font-size="24.00">control video player</text>
</g>
<!-- EAID_235D6B5C_351D_438c_A332_1F7CBEACC04D&#45;&gt;EAID_3FFBF942_376A_4b42_BE0A_72FDFD7ECE27 -->
<g id="edge7" class="edge"><title>EAID_235D6B5C_351D_438c_A332_1F7CBEACC04D&#45;&gt;EAID_3FFBF942_376A_4b42_BE0A_72FDFD7ECE27</title>
<path fill="none" stroke="black" d="M545.207,-193.5C553.808,-193.5 562.297,-193.5 570.585,-193.5"/>
<polygon fill="black" stroke="black" points="570.588,-197 580.588,-193.5 570.588,-190 570.588,-197"/>
</g>
<!-- EAID_3FFBF942_376A_4b42_BE0A_72FDFD7ECE27&#45;&gt;EAID_7BD05230_67C6_49f1_987A_8B172BC5F835 -->
<g id="edge5" class="edge"><title>EAID_3FFBF942_376A_4b42_BE0A_72FDFD7ECE27&#45;&gt;EAID_7BD05230_67C6_49f1_987A_8B172BC5F835</title>
<path fill="none" stroke="black" d="M789.297,-252.046C801.061,-258.845 813.073,-265.788 824.868,-272.605"/>
<polygon fill="black" stroke="black" points="823.428,-275.815 833.838,-277.789 826.931,-269.754 823.428,-275.815"/>
</g>
<!-- EAID_3FFBF942_376A_4b42_BE0A_72FDFD7ECE27&#45;&gt;EAID_A3DD0382_52D6_41b1_ADDB_98D599708CFF -->
<g id="edge6" class="edge"><title>EAID_3FFBF942_376A_4b42_BE0A_72FDFD7ECE27&#45;&gt;EAID_A3DD0382_52D6_41b1_ADDB_98D599708CFF</title>
<path fill="none" stroke="black" d="M789.297,-134.954C811.088,-122.36 833.731,-109.273 854.266,-97.4045"/>
<polygon fill="black" stroke="black" points="856.022,-100.432 862.929,-92.3977 852.519,-94.3714 856.022,-100.432"/>
</g>
<!-- EAID_8FB4C124_0ADC_4f93_A077_3FFE83E13F77 -->
<g id="node6" class="node"><title>EAID_8FB4C124_0ADC_4f93_A077_3FFE83E13F77</title>
<image xlink:href="img/actor1.png" width="82px" height="90px" preserveAspectRatio="xMinYMin meet" x="888.5" y="-253.5"/>
<text text-anchor="start" x="867.5" y="-140.3" font-family="Times New Roman,serif" font-size="24.00">Video player</text>
</g>
<!-- EAID_3FFBF942_376A_4b42_BE0A_72FDFD7ECE27&#45;&gt;EAID_8FB4C124_0ADC_4f93_A077_3FFE83E13F77 -->
<g id="edge4" class="edge"><title>EAID_3FFBF942_376A_4b42_BE0A_72FDFD7ECE27&#45;&gt;EAID_8FB4C124_0ADC_4f93_A077_3FFE83E13F77</title>
<path fill="none" stroke="black" d="M793.137,-193.5C811.31,-193.5 829.952,-193.5 847.365,-193.5"/>
<polygon fill="black" stroke="black" points="847.463,-197 857.463,-193.5 847.463,-190 847.463,-197"/>
</g>
</g>
</svg>
