<?xml version="1.0" encoding="UTF-8" standalone="no"?>
<!DOCTYPE svg PUBLIC "-//W3C//DTD SVG 1.1//EN"
 "http://www.w3.org/Graphics/SVG/1.1/DTD/svg11.dtd">
<!-- Generated by graphviz version 2.38.0 (20140413.2041)
 -->
<!-- Title: g Pages: 1 -->
<svg width="3345pt" height="510pt"
 viewBox="0.00 0.00 3345.00 510.49" xmlns="http://www.w3.org/2000/svg" xmlns:xlink="http://www.w3.org/1999/xlink">
<g id="graph0" class="graph" transform="scale(1 1) rotate(0) translate(4 506.487)">
<title>g</title>
<polygon fill="white" stroke="none" points="-4,4 -4,-506.487 3341,-506.487 3341,4 -4,4"/>
<!-- EAID_E0199804_3B84_4c45_A042_E6858A1F2471 -->
<g id="node1" class="node"><title>EAID_E0199804_3B84_4c45_A042_E6858A1F2471</title>
<image xlink:href="img/actor1.png" width="82px" height="90px" preserveAspectRatio="xMinYMin meet" x="30" y="-292.515"/>
<text text-anchor="start" x="10.5" y="-179.315" font-family="Times New Roman,serif" font-size="24.00">Weight loser</text>
</g>
<!-- EAID_9D192324_0DBA_405b_96DA_B69B60353645 -->
<g id="node2" class="node"><title>EAID_9D192324_0DBA_405b_96DA_B69B60353645</title>
<image xlink:href="img/boundary3.png" width="115px" height="67px" preserveAspectRatio="xMinYMin meet" x="1560.5" y="-365.515"/>
<text text-anchor="start" x="1427" y="-275.315" font-family="Times New Roman,serif" font-size="24.00">invalid information about added weights</text>
</g>
<!-- EAID_E0199804_3B84_4c45_A042_E6858A1F2471&#45;&gt;EAID_9D192324_0DBA_405b_96DA_B69B60353645 -->
<g id="edge1" class="edge"><title>EAID_E0199804_3B84_4c45_A042_E6858A1F2471&#45;&gt;EAID_9D192324_0DBA_405b_96DA_B69B60353645</title>
<path fill="none" stroke="black" d="M141.228,-242.405C153.147,-243.913 165.418,-245.352 177,-246.515 612.745,-290.293 1125.5,-307.395 1406.46,-313.836"/>
<polygon fill="black" stroke="black" points="1406.69,-317.342 1416.77,-314.07 1406.85,-310.344 1406.69,-317.342"/>
</g>
<!-- EAID_8C565E81_E188_4cf2_A741_E97255D41B36 -->
<g id="node3" class="node"><title>EAID_8C565E81_E188_4cf2_A741_E97255D41B36</title>
<image xlink:href="img/boundary3.png" width="115px" height="67px" preserveAspectRatio="xMinYMin meet" x="2447.5" y="-158.515"/>
<text text-anchor="start" x="2247" y="-68.3151" font-family="Times New Roman,serif" font-size="24.00">The weight loser add one sponsor successfully message</text>
</g>
<!-- EAID_E0199804_3B84_4c45_A042_E6858A1F2471&#45;&gt;EAID_8C565E81_E188_4cf2_A741_E97255D41B36 -->
<g id="edge2" class="edge"><title>EAID_E0199804_3B84_4c45_A042_E6858A1F2471&#45;&gt;EAID_8C565E81_E188_4cf2_A741_E97255D41B36</title>
<path fill="none" stroke="black" d="M141.153,-174.321C152.621,-166.752 164.77,-159.806 177,-154.515 386.582,-63.8387 454.143,-62.5151 682.5,-62.5151 682.5,-62.5151 682.5,-62.5151 1619,-62.5151 1877.8,-62.5151 1942.73,-64.956 2201,-81.5151 2209.43,-82.0558 2218,-82.6421 2226.64,-83.2663"/>
<polygon fill="black" stroke="black" points="2226.59,-86.7719 2236.82,-84.0159 2227.1,-79.7908 2226.59,-86.7719"/>
</g>
<!-- EAID_92CE83C8_1479_4777_A457_D94A5CEAF566 -->
<g id="node4" class="node"><title>EAID_92CE83C8_1479_4777_A457_D94A5CEAF566</title>
<image xlink:href="img/boundary3.png" width="115px" height="67px" preserveAspectRatio="xMinYMin meet" x="268.5" y="-424.515"/>
<text text-anchor="start" x="187.5" y="-334.315" font-family="Times New Roman,serif" font-size="24.00">create goal link on homepage</text>
</g>
<!-- EAID_E0199804_3B84_4c45_A042_E6858A1F2471&#45;&gt;EAID_92CE83C8_1479_4777_A457_D94A5CEAF566 -->
<g id="edge3" class="edge"><title>EAID_E0199804_3B84_4c45_A042_E6858A1F2471&#45;&gt;EAID_92CE83C8_1479_4777_A457_D94A5CEAF566</title>
<path fill="none" stroke="black" d="M141.156,-282.971C152.92,-290.834 165.16,-298.626 177,-305.515 183.736,-309.434 190.721,-313.329 197.825,-317.158"/>
<polygon fill="black" stroke="black" points="196.405,-320.367 206.877,-321.972 199.691,-314.186 196.405,-320.367"/>
</g>
<!-- EAID_9B24687C_7037_40a6_BAED_898424D94B2F -->
<g id="node5" class="node"><title>EAID_9B24687C_7037_40a6_BAED_898424D94B2F</title>
<image xlink:href="img/boundary3.png" width="115px" height="67px" preserveAspectRatio="xMinYMin meet" x="2448" y="-285.515"/>
<text text-anchor="start" x="2299" y="-195.315" font-family="Times New Roman,serif" font-size="24.00">error message in adding charity and sponsor</text>
</g>
<!-- EAID_E0199804_3B84_4c45_A042_E6858A1F2471&#45;&gt;EAID_9B24687C_7037_40a6_BAED_898424D94B2F -->
<g id="edge4" class="edge"><title>EAID_E0199804_3B84_4c45_A042_E6858A1F2471&#45;&gt;EAID_9B24687C_7037_40a6_BAED_898424D94B2F</title>
<path fill="none" stroke="black" d="M86.3216,-298.897C100.816,-346.94 128.083,-408.786 177,-440.515 365.719,-562.923 457.559,-465.515 682.5,-465.515 682.5,-465.515 682.5,-465.515 1619,-465.515 1890.86,-465.515 2195.27,-363.372 2366.87,-295.819"/>
<polygon fill="black" stroke="black" points="2368.19,-299.06 2376.2,-292.127 2365.62,-292.55 2368.19,-299.06"/>
</g>
<!-- EAID_93A64D98_FCAB_4007_9E18_3DF5EFC547C8 -->
<g id="node6" class="node"><title>EAID_93A64D98_FCAB_4007_9E18_3DF5EFC547C8</title>
<image xlink:href="img/boundary3.png" width="115px" height="67px" preserveAspectRatio="xMinYMin meet" x="3113.5" y="-115.515"/>
<text text-anchor="start" x="3014.5" y="-25.3151" font-family="Times New Roman,serif" font-size="24.00">create goal confirmation message</text>
</g>
<!-- EAID_E0199804_3B84_4c45_A042_E6858A1F2471&#45;&gt;EAID_93A64D98_FCAB_4007_9E18_3DF5EFC547C8 -->
<g id="edge5" class="edge"><title>EAID_E0199804_3B84_4c45_A042_E6858A1F2471&#45;&gt;EAID_93A64D98_FCAB_4007_9E18_3DF5EFC547C8</title>
<path fill="none" stroke="black" d="M95.8842,-166.481C112.863,-130.316 139.297,-88.3285 177,-65.5151 369.849,51.1746 457.096,-24.5151 682.5,-24.5151 682.5,-24.5151 682.5,-24.5151 2506,-24.5151 2711.51,-24.5151 2763.15,-27.1279 2968,-43.5151 2976.39,-44.1865 2984.97,-44.9416 2993.64,-45.7591"/>
<polygon fill="black" stroke="black" points="2993.55,-49.2665 3003.84,-46.7461 2994.22,-42.2991 2993.55,-49.2665"/>
</g>
<!-- EAID_32F5FBE1_E155_41bc_B0EF_CFE8F0EACE52 -->
<g id="node7" class="node"><title>EAID_32F5FBE1_E155_41bc_B0EF_CFE8F0EACE52</title>
<image xlink:href="img/boundary3.png" width="115px" height="67px" preserveAspectRatio="xMinYMin meet" x="922.5" y="-280.515"/>
<text text-anchor="start" x="903" y="-190.315" font-family="Times New Roman,serif" font-size="24.00">create goal page</text>
</g>
<!-- EAID_E0199804_3B84_4c45_A042_E6858A1F2471&#45;&gt;EAID_32F5FBE1_E155_41bc_B0EF_CFE8F0EACE52 -->
<g id="edge6" class="edge"><title>EAID_E0199804_3B84_4c45_A042_E6858A1F2471&#45;&gt;EAID_32F5FBE1_E155_41bc_B0EF_CFE8F0EACE52</title>
<path fill="none" stroke="black" d="M141.203,-232.515C301.9,-232.515 698.654,-232.515 882.552,-232.515"/>
<polygon fill="black" stroke="black" points="882.75,-236.015 892.75,-232.515 882.75,-229.015 882.75,-236.015"/>
</g>
<!-- EAID_26A52DEC_CAAD_4cfa_80E7_C172D8E2EB0C -->
<g id="node8" class="node"><title>EAID_26A52DEC_CAAD_4cfa_80E7_C172D8E2EB0C</title>
<image xlink:href="img/boundary3.png" width="115px" height="67px" preserveAspectRatio="xMinYMin meet" x="1560.5" y="-197.515"/>
<text text-anchor="start" x="1465" y="-107.315" font-family="Times New Roman,serif" font-size="24.00">add charity successfully message</text>
</g>
<!-- EAID_E0199804_3B84_4c45_A042_E6858A1F2471&#45;&gt;EAID_26A52DEC_CAAD_4cfa_80E7_C172D8E2EB0C -->
<g id="edge7" class="edge"><title>EAID_E0199804_3B84_4c45_A042_E6858A1F2471&#45;&gt;EAID_26A52DEC_CAAD_4cfa_80E7_C172D8E2EB0C</title>
<path fill="none" stroke="black" d="M141.12,-215.67C254.039,-189.868 484.456,-143.515 682.5,-143.515 682.5,-143.515 682.5,-143.515 981,-143.515 1137.96,-143.515 1316.71,-145.365 1444.65,-147.011"/>
<polygon fill="black" stroke="black" points="1444.89,-150.514 1454.93,-147.144 1444.98,-143.514 1444.89,-150.514"/>
</g>
<!-- EAID_22C4C00A_CA29_4694_95C3_E2DC2E5CB60B -->
<g id="node10" class="node"><title>EAID_22C4C00A_CA29_4694_95C3_E2DC2E5CB60B</title>
<image xlink:href="img/control1.png" width="106px" height="75px" preserveAspectRatio="xMinYMin meet" x="2836" y="-163.515"/>
<text text-anchor="start" x="2819.5" y="-65.3151" font-family="Times New Roman,serif" font-size="24.00">create the goal</text>
</g>
<!-- EAID_8C565E81_E188_4cf2_A741_E97255D41B36&#45;&gt;EAID_22C4C00A_CA29_4694_95C3_E2DC2E5CB60B -->
<g id="edge11" class="edge"><title>EAID_8C565E81_E188_4cf2_A741_E97255D41B36&#45;&gt;EAID_22C4C00A_CA29_4694_95C3_E2DC2E5CB60B</title>
<path fill="none" stroke="black" d="M2773.04,-111.215C2781.84,-111.238 2790.39,-111.261 2798.58,-111.282"/>
<polygon fill="black" stroke="black" points="2798.75,-114.782 2808.76,-111.309 2798.77,-107.782 2798.75,-114.782"/>
</g>
<!-- EAID_84C18C93_CC02_4ec6_AE19_66E6B2392039 -->
<g id="node12" class="node"><title>EAID_84C18C93_CC02_4ec6_AE19_66E6B2392039</title>
<image xlink:href="img/control1.png" width="106px" height="75px" preserveAspectRatio="xMinYMin meet" x="631" y="-430.515"/>
<text text-anchor="start" x="520.5" y="-332.315" font-family="Times New Roman,serif" font-size="24.00">redirect the user to creat goal page</text>
</g>
<!-- EAID_92CE83C8_1479_4777_A457_D94A5CEAF566&#45;&gt;EAID_84C18C93_CC02_4ec6_AE19_66E6B2392039 -->
<g id="edge14" class="edge"><title>EAID_92CE83C8_1479_4777_A457_D94A5CEAF566&#45;&gt;EAID_84C18C93_CC02_4ec6_AE19_66E6B2392039</title>
<path fill="none" stroke="black" d="M474.126,-377.344C482.576,-377.392 491.12,-377.44 499.679,-377.488"/>
<polygon fill="black" stroke="black" points="499.709,-380.988 509.728,-377.544 499.748,-373.988 499.709,-380.988"/>
</g>
<!-- EAID_F45FE137_8382_4bbb_9579_16A2915E52B1 -->
<g id="node11" class="node"><title>EAID_F45FE137_8382_4bbb_9579_16A2915E52B1</title>
<image xlink:href="img/control1.png" width="106px" height="75px" preserveAspectRatio="xMinYMin meet" x="1189" y="-282.515"/>
<text text-anchor="start" x="1113" y="-184.315" font-family="Times New Roman,serif" font-size="24.00">invoke add charity use case</text>
</g>
<!-- EAID_32F5FBE1_E155_41bc_B0EF_CFE8F0EACE52&#45;&gt;EAID_F45FE137_8382_4bbb_9579_16A2915E52B1 -->
<g id="edge15" class="edge"><title>EAID_32F5FBE1_E155_41bc_B0EF_CFE8F0EACE52&#45;&gt;EAID_F45FE137_8382_4bbb_9579_16A2915E52B1</title>
<path fill="none" stroke="black" d="M1067.22,-231.852C1075.5,-231.788 1084.06,-231.722 1092.72,-231.656"/>
<polygon fill="black" stroke="black" points="1092.97,-235.154 1102.94,-231.577 1092.91,-228.154 1092.97,-235.154"/>
</g>
<!-- EAID_49272D2A_4109_4291_993A_0068F966B7C6 -->
<g id="node9" class="node"><title>EAID_49272D2A_4109_4291_993A_0068F966B7C6</title>
<image xlink:href="img/control1.png" width="106px" height="75px" preserveAspectRatio="xMinYMin meet" x="1975" y="-201.515"/>
<text text-anchor="start" x="1865" y="-103.315" font-family="Times New Roman,serif" font-size="24.00">Invoke the inviite sponsor use case</text>
</g>
<!-- EAID_26A52DEC_CAAD_4cfa_80E7_C172D8E2EB0C&#45;&gt;EAID_49272D2A_4109_4291_993A_0068F966B7C6 -->
<g id="edge10" class="edge"><title>EAID_26A52DEC_CAAD_4cfa_80E7_C172D8E2EB0C&#45;&gt;EAID_49272D2A_4109_4291_993A_0068F966B7C6</title>
<path fill="none" stroke="black" d="M1781.13,-149.515C1802.05,-149.515 1823.59,-149.515 1844.81,-149.515"/>
<polygon fill="black" stroke="black" points="1844.86,-153.015 1854.86,-149.515 1844.86,-146.015 1844.86,-153.015"/>
</g>
<!-- EAID_49272D2A_4109_4291_993A_0068F966B7C6&#45;&gt;EAID_8C565E81_E188_4cf2_A741_E97255D41B36 -->
<g id="edge8" class="edge"><title>EAID_49272D2A_4109_4291_993A_0068F966B7C6&#45;&gt;EAID_8C565E81_E188_4cf2_A741_E97255D41B36</title>
<path fill="none" stroke="black" d="M2201.16,-135.38C2209.55,-134.691 2218.07,-133.992 2226.65,-133.287"/>
<polygon fill="black" stroke="black" points="2227.08,-136.763 2236.76,-132.457 2226.51,-129.787 2227.08,-136.763"/>
</g>
<!-- EAID_49272D2A_4109_4291_993A_0068F966B7C6&#45;&gt;EAID_9B24687C_7037_40a6_BAED_898424D94B2F -->
<g id="edge9" class="edge"><title>EAID_49272D2A_4109_4291_993A_0068F966B7C6&#45;&gt;EAID_9B24687C_7037_40a6_BAED_898424D94B2F</title>
<path fill="none" stroke="black" d="M2201.16,-181.41C2226.23,-186.055 2252.36,-190.895 2278.29,-195.7"/>
<polygon fill="black" stroke="black" points="2277.75,-199.16 2288.22,-197.54 2279.03,-192.277 2277.75,-199.16"/>
</g>
<!-- EAID_22C4C00A_CA29_4694_95C3_E2DC2E5CB60B&#45;&gt;EAID_93A64D98_FCAB_4007_9E18_3DF5EFC547C8 -->
<g id="edge13" class="edge"><title>EAID_22C4C00A_CA29_4694_95C3_E2DC2E5CB60B&#45;&gt;EAID_93A64D98_FCAB_4007_9E18_3DF5EFC547C8</title>
<path fill="none" stroke="black" d="M2968.24,-99.1415C2976.47,-97.8488 2985.05,-96.5008 2993.82,-95.1213"/>
<polygon fill="black" stroke="black" points="2994.48,-98.5617 3003.81,-93.5517 2993.39,-91.6466 2994.48,-98.5617"/>
</g>
<!-- EAID_848EC305_B4A5_4dac_8AC3_B5EBE4F92D02 -->
<g id="node13" class="node"><title>EAID_848EC305_B4A5_4dac_8AC3_B5EBE4F92D02</title>
<image xlink:href="img/activity_icon.png" width="30px" height="20px" preserveAspectRatio="xMinYMin meet" x="3156" y="-310.515"/>
<text text-anchor="start" x="3125.5" y="-268.315" font-family="Times New Roman,serif" font-weight="bold" font-size="24.00">goal info</text>
</g>
<!-- EAID_22C4C00A_CA29_4694_95C3_E2DC2E5CB60B&#45;&gt;EAID_848EC305_B4A5_4dac_8AC3_B5EBE4F92D02 -->
<g id="edge17" class="edge"><title>EAID_22C4C00A_CA29_4694_95C3_E2DC2E5CB60B&#45;&gt;EAID_848EC305_B4A5_4dac_8AC3_B5EBE4F92D02</title>
<path fill="none" stroke="black" d="M2968.24,-160.447C3013.54,-188.6 3069.51,-223.377 3110.91,-249.107"/>
<polygon fill="black" stroke="black" points="3109.18,-252.149 3119.52,-254.454 3112.87,-246.203 3109.18,-252.149"/>
</g>
<!-- EAID_F45FE137_8382_4bbb_9579_16A2915E52B1&#45;&gt;EAID_9D192324_0DBA_405b_96DA_B69B60353645 -->
<g id="edge20" class="edge"><title>EAID_F45FE137_8382_4bbb_9579_16A2915E52B1&#45;&gt;EAID_9D192324_0DBA_405b_96DA_B69B60353645</title>
<path fill="none" stroke="black" d="M1381.2,-262.664C1389.67,-264.633 1398.28,-266.636 1406.95,-268.654"/>
<polygon fill="black" stroke="black" points="1406.24,-272.082 1416.78,-270.939 1407.83,-265.264 1406.24,-272.082"/>
</g>
<!-- EAID_F45FE137_8382_4bbb_9579_16A2915E52B1&#45;&gt;EAID_9B24687C_7037_40a6_BAED_898424D94B2F -->
<g id="edge18" class="edge"><title>EAID_F45FE137_8382_4bbb_9579_16A2915E52B1&#45;&gt;EAID_9B24687C_7037_40a6_BAED_898424D94B2F</title>
<path fill="none" stroke="black" d="M1381.25,-231.283C1597.37,-232.482 2017.41,-234.814 2277.97,-236.26"/>
<polygon fill="black" stroke="black" points="2278.31,-239.762 2288.33,-236.318 2278.35,-232.762 2278.31,-239.762"/>
</g>
<!-- EAID_F45FE137_8382_4bbb_9579_16A2915E52B1&#45;&gt;EAID_26A52DEC_CAAD_4cfa_80E7_C172D8E2EB0C -->
<g id="edge12" class="edge"><title>EAID_F45FE137_8382_4bbb_9579_16A2915E52B1&#45;&gt;EAID_26A52DEC_CAAD_4cfa_80E7_C172D8E2EB0C</title>
<path fill="none" stroke="black" d="M1381.2,-200.584C1401.95,-196.09 1423.57,-191.409 1444.92,-186.784"/>
<polygon fill="black" stroke="black" points="1445.67,-190.202 1454.71,-184.664 1444.19,-183.36 1445.67,-190.202"/>
</g>
<!-- EAID_84C18C93_CC02_4ec6_AE19_66E6B2392039&#45;&gt;EAID_32F5FBE1_E155_41bc_B0EF_CFE8F0EACE52 -->
<g id="edge16" class="edge"><title>EAID_84C18C93_CC02_4ec6_AE19_66E6B2392039&#45;&gt;EAID_32F5FBE1_E155_41bc_B0EF_CFE8F0EACE52</title>
<path fill="none" stroke="black" d="M802.588,-319.973C829.499,-306.631 857.764,-292.618 883.591,-279.815"/>
<polygon fill="black" stroke="black" points="885.213,-282.917 892.618,-275.34 882.104,-276.645 885.213,-282.917"/>
</g>
<!-- EAID_84C18C93_CC02_4ec6_AE19_66E6B2392039&#45;&gt;EAID_848EC305_B4A5_4dac_8AC3_B5EBE4F92D02 -->
<g id="edge19" class="edge"><title>EAID_84C18C93_CC02_4ec6_AE19_66E6B2392039&#45;&gt;EAID_848EC305_B4A5_4dac_8AC3_B5EBE4F92D02</title>
<path fill="none" stroke="black" d="M857.085,-388.855C966.946,-394.566 1112.28,-400.515 1241,-400.515 1241,-400.515 1241,-400.515 2506,-400.515 2728.37,-400.515 2986.58,-337.031 3104.61,-304.399"/>
<polygon fill="black" stroke="black" points="3105.88,-307.68 3114.57,-301.626 3104,-300.936 3105.88,-307.68"/>
</g>
</g>
</svg>
