<?xml version="1.0" encoding="UTF-8" standalone="no"?>
<!DOCTYPE svg PUBLIC "-//W3C//DTD SVG 1.1//EN"
 "http://www.w3.org/Graphics/SVG/1.1/DTD/svg11.dtd">
<!-- Generated by graphviz version 2.38.0 (20140413.2041)
 -->
<!-- Title: g Pages: 1 -->
<svg width="1494pt" height="1232pt"
 viewBox="0.00 0.00 1494.00 1232.00" xmlns="http://www.w3.org/2000/svg" xmlns:xlink="http://www.w3.org/1999/xlink">
<g id="graph0" class="graph" transform="scale(1 1) rotate(0) translate(4 1228)">
<title>g</title>
<polygon fill="white" stroke="none" points="-4,4 -4,-1228 1490,-1228 1490,4 -4,4"/>
<!-- AllTheAppsActivity:layout -->
<g id="node1" class="node"><title>AllTheAppsActivity:layout</title>
<polygon fill="none" stroke="black" points="352,-684 79,-684 79,-648 352,-648 352,-684"/>
<text text-anchor="middle" x="215.5" y="-659.8" font-family="Times New Roman,serif" font-size="24.00">AllTheAppsActivity:layout</text>
</g>
<!-- TrackBrowserActivity -->
<g id="node2" class="node"><title>TrackBrowserActivity</title>
<polygon fill="none" stroke="black" points="767.5,-684 538.5,-684 538.5,-648 767.5,-648 767.5,-684"/>
<text text-anchor="middle" x="653" y="-659.8" font-family="Times New Roman,serif" font-size="24.00">TrackBrowserActivity</text>
</g>
<!-- AllTheAppsActivity:layout&#45;&gt;TrackBrowserActivity -->
<g id="edge1" class="edge"><title>AllTheAppsActivity:layout&#45;&gt;TrackBrowserActivity</title>
<path fill="none" stroke="black" d="M352.206,-666C408.489,-666 473.339,-666 528.295,-666"/>
<polygon fill="black" stroke="black" points="528.437,-669.5 538.437,-666 528.437,-662.5 528.437,-669.5"/>
</g>
<!-- ServiceToken -->
<g id="node6" class="node"><title>ServiceToken</title>
<polygon fill="none" stroke="black" points="1120,-360 972,-360 972,-324 1120,-324 1120,-360"/>
<text text-anchor="middle" x="1046" y="-335.8" font-family="Times New Roman,serif" font-size="24.00">ServiceToken</text>
</g>
<!-- TrackBrowserActivity&#45;&gt;ServiceToken -->
<g id="edge12" class="edge"><title>TrackBrowserActivity&#45;&gt;ServiceToken</title>
<path fill="none" stroke="black" d="M767.646,-652.272C793.957,-644.219 819.828,-631.626 839,-612 882.392,-567.58 840.963,-528.937 875,-477 907.13,-427.973 962.968,-388.689 1001.85,-365.405"/>
<polygon fill="black" stroke="black" points="1004,-368.199 1010.85,-360.117 1000.45,-362.164 1004,-368.199"/>
</g>
<!-- TrackListAdapter:mActivity -->
<g id="node9" class="node"><title>TrackListAdapter:mActivity</title>
<polygon fill="none" stroke="black" points="1188.5,-684 903.5,-684 903.5,-648 1188.5,-648 1188.5,-684"/>
<text text-anchor="middle" x="1046" y="-659.8" font-family="Times New Roman,serif" font-size="24.00">TrackListAdapter:mActivity</text>
</g>
<!-- TrackBrowserActivity&#45;&gt;TrackListAdapter:mActivity -->
<g id="edge11" class="edge"><title>TrackBrowserActivity&#45;&gt;TrackListAdapter:mActivity</title>
<path fill="none" stroke="black" d="M767.619,-659.806C806.779,-659.242 851.29,-659.107 893.015,-659.401"/>
<polygon fill="black" stroke="black" points="893.247,-662.903 903.274,-659.482 893.302,-655.903 893.247,-662.903"/>
</g>
<!-- ArtistAlbumListAdapter:mIndexer -->
<g id="node3" class="node"><title>ArtistAlbumListAdapter:mIndexer</title>
<polygon fill="none" stroke="black" points="1217,-522 875,-522 875,-486 1217,-486 1217,-522"/>
<text text-anchor="middle" x="1046" y="-497.8" font-family="Times New Roman,serif" font-size="24.00">ArtistAlbumListAdapter:mIndexer</text>
</g>
<!-- MusicAlphabetIndexer -->
<g id="node4" class="node"><title>MusicAlphabetIndexer</title>
<polygon fill="none" stroke="black" points="1486,-576 1253,-576 1253,-540 1486,-540 1486,-576"/>
<text text-anchor="middle" x="1369.5" y="-551.8" font-family="Times New Roman,serif" font-size="24.00">MusicAlphabetIndexer</text>
</g>
<!-- ArtistAlbumListAdapter:mIndexer&#45;&gt;MusicAlphabetIndexer -->
<g id="edge2" class="edge"><title>ArtistAlbumListAdapter:mIndexer&#45;&gt;MusicAlphabetIndexer</title>
<path fill="none" stroke="black" d="M1162.27,-522.006C1180.59,-524.955 1199.32,-528.021 1217,-531 1230.46,-533.268 1244.59,-535.707 1258.57,-538.157"/>
<polygon fill="black" stroke="black" points="1258.26,-541.657 1268.72,-539.941 1259.47,-534.763 1258.26,-541.657"/>
</g>
<!-- ArtistAlbumBrowserActivity -->
<g id="node5" class="node"><title>ArtistAlbumBrowserActivity</title>
<polygon fill="none" stroke="black" points="798,-522 508,-522 508,-486 798,-486 798,-522"/>
<text text-anchor="middle" x="653" y="-497.8" font-family="Times New Roman,serif" font-size="24.00">ArtistAlbumBrowserActivity</text>
</g>
<!-- ArtistAlbumListAdapter:mIndexer&#45;&gt;ArtistAlbumBrowserActivity -->
<g id="edge3" class="edge"><title>ArtistAlbumListAdapter:mIndexer&#45;&gt;ArtistAlbumBrowserActivity</title>
<path fill="none" stroke="black" d="M874.775,-510.7C852.734,-510.788 830.256,-510.76 808.489,-510.616"/>
<polygon fill="black" stroke="black" points="808.232,-507.114 798.206,-510.539 808.179,-514.114 808.232,-507.114"/>
</g>
<!-- ArtistAlbumBrowserActivity&#45;&gt;ArtistAlbumListAdapter:mIndexer -->
<g id="edge4" class="edge"><title>ArtistAlbumBrowserActivity&#45;&gt;ArtistAlbumListAdapter:mIndexer</title>
<path fill="none" stroke="black" d="M798.206,-497.461C819.816,-497.279 842.327,-497.215 864.575,-497.268"/>
<polygon fill="black" stroke="black" points="864.764,-500.768 874.775,-497.3 864.786,-493.768 864.764,-500.768"/>
</g>
<!-- ArtistAlbumBrowserActivity&#45;&gt;ServiceToken -->
<g id="edge5" class="edge"><title>ArtistAlbumBrowserActivity&#45;&gt;ServiceToken</title>
<path fill="none" stroke="black" d="M798.483,-489.193C812.387,-485.904 826.102,-481.892 839,-477 908.321,-450.708 978.238,-398.103 1016.14,-366.889"/>
<polygon fill="black" stroke="black" points="1018.74,-369.284 1024.18,-360.194 1014.26,-363.905 1018.74,-369.284"/>
</g>
<!-- QueryListAdapter:mActivity -->
<g id="node7" class="node"><title>QueryListAdapter:mActivity</title>
<polygon fill="none" stroke="black" points="1190,-306 902,-306 902,-270 1190,-270 1190,-306"/>
<text text-anchor="middle" x="1046" y="-281.8" font-family="Times New Roman,serif" font-size="24.00">QueryListAdapter:mActivity</text>
</g>
<!-- QueryBrowserActivity -->
<g id="node8" class="node"><title>QueryBrowserActivity</title>
<polygon fill="none" stroke="black" points="769,-306 537,-306 537,-270 769,-270 769,-306"/>
<text text-anchor="middle" x="653" y="-281.8" font-family="Times New Roman,serif" font-size="24.00">QueryBrowserActivity</text>
</g>
<!-- QueryListAdapter:mActivity&#45;&gt;QueryBrowserActivity -->
<g id="edge6" class="edge"><title>QueryListAdapter:mActivity&#45;&gt;QueryBrowserActivity</title>
<path fill="none" stroke="black" d="M901.843,-294.53C861.763,-294.874 818.514,-294.814 779.539,-294.35"/>
<polygon fill="black" stroke="black" points="779.243,-290.846 769.198,-294.216 779.152,-297.846 779.243,-290.846"/>
</g>
<!-- QueryBrowserActivity&#45;&gt;ServiceToken -->
<g id="edge8" class="edge"><title>QueryBrowserActivity&#45;&gt;ServiceToken</title>
<path fill="none" stroke="black" d="M769.198,-303.91C830.909,-312.432 905.541,-322.74 961.599,-330.482"/>
<polygon fill="black" stroke="black" points="961.458,-333.995 971.843,-331.896 962.416,-327.061 961.458,-333.995"/>
</g>
<!-- QueryBrowserActivity&#45;&gt;QueryListAdapter:mActivity -->
<g id="edge7" class="edge"><title>QueryBrowserActivity&#45;&gt;QueryListAdapter:mActivity</title>
<path fill="none" stroke="black" d="M769.198,-281.784C807.594,-281.244 850.991,-281.114 891.804,-281.392"/>
<polygon fill="black" stroke="black" points="891.816,-284.893 901.843,-281.47 891.87,-277.893 891.816,-284.893"/>
</g>
<!-- TrackListAdapter:mActivity&#45;&gt;TrackBrowserActivity -->
<g id="edge9" class="edge"><title>TrackListAdapter:mActivity&#45;&gt;TrackBrowserActivity</title>
<path fill="none" stroke="black" d="M903.274,-672.518C862.151,-672.881 817.586,-672.818 777.664,-672.327"/>
<polygon fill="black" stroke="black" points="777.664,-668.827 767.619,-672.194 777.571,-675.827 777.664,-668.827"/>
</g>
<!-- TrackQueryHandler -->
<g id="node10" class="node"><title>TrackQueryHandler</title>
<polygon fill="none" stroke="black" points="1473,-684 1266,-684 1266,-648 1473,-648 1473,-684"/>
<text text-anchor="middle" x="1369.5" y="-659.8" font-family="Times New Roman,serif" font-size="24.00">TrackQueryHandler</text>
</g>
<!-- TrackListAdapter:mActivity&#45;&gt;TrackQueryHandler -->
<g id="edge10" class="edge"><title>TrackListAdapter:mActivity&#45;&gt;TrackQueryHandler</title>
<path fill="none" stroke="black" d="M1188.95,-666C1211.31,-666 1234.17,-666 1255.75,-666"/>
<polygon fill="black" stroke="black" points="1255.91,-669.5 1265.91,-666 1255.91,-662.5 1255.91,-669.5"/>
</g>
<!-- WeekSelector:mWeeks -->
<g id="node11" class="node"><title>WeekSelector:mWeeks</title>
<polygon fill="none" stroke="black" points="334,-738 97,-738 97,-702 334,-702 334,-738"/>
<text text-anchor="middle" x="215.5" y="-713.8" font-family="Times New Roman,serif" font-size="24.00">WeekSelector:mWeeks</text>
</g>
<!-- VerticalTextSpinner -->
<g id="node12" class="node"><title>VerticalTextSpinner</title>
<polygon fill="none" stroke="black" points="758,-738 548,-738 548,-702 758,-702 758,-738"/>
<text text-anchor="middle" x="653" y="-713.8" font-family="Times New Roman,serif" font-size="24.00">VerticalTextSpinner</text>
</g>
<!-- WeekSelector:mWeeks&#45;&gt;VerticalTextSpinner -->
<g id="edge13" class="edge"><title>WeekSelector:mWeeks&#45;&gt;VerticalTextSpinner</title>
<path fill="none" stroke="black" d="M334.066,-720C397.184,-720 474.664,-720 537.334,-720"/>
<polygon fill="black" stroke="black" points="537.658,-723.5 547.658,-720 537.658,-716.5 537.658,-723.5"/>
</g>
<!-- AlbumListAdapter:mActivity -->
<g id="node13" class="node"><title>AlbumListAdapter:mActivity</title>
<polygon fill="none" stroke="black" points="1192.5,-252 899.5,-252 899.5,-216 1192.5,-216 1192.5,-252"/>
<text text-anchor="middle" x="1046" y="-227.8" font-family="Times New Roman,serif" font-size="24.00">AlbumListAdapter:mActivity</text>
</g>
<!-- AlbumBrowserActivity -->
<g id="node14" class="node"><title>AlbumBrowserActivity</title>
<polygon fill="none" stroke="black" points="771.5,-252 534.5,-252 534.5,-216 771.5,-216 771.5,-252"/>
<text text-anchor="middle" x="653" y="-227.8" font-family="Times New Roman,serif" font-size="24.00">AlbumBrowserActivity</text>
</g>
<!-- AlbumListAdapter:mActivity&#45;&gt;AlbumBrowserActivity -->
<g id="edge14" class="edge"><title>AlbumListAdapter:mActivity&#45;&gt;AlbumBrowserActivity</title>
<path fill="none" stroke="black" d="M899.203,-240.552C860.727,-240.865 819.499,-240.807 782.038,-240.379"/>
<polygon fill="black" stroke="black" points="781.621,-236.874 771.578,-240.249 781.533,-243.873 781.621,-236.874"/>
</g>
<!-- AlbumBrowserActivity&#45;&gt;ServiceToken -->
<g id="edge16" class="edge"><title>AlbumBrowserActivity&#45;&gt;ServiceToken</title>
<path fill="none" stroke="black" d="M771.749,-236.252C795.325,-240.7 818.973,-248.336 839,-261 863.379,-276.416 850.718,-299.431 875,-315 900.429,-331.305 932.281,-338.943 961.519,-342.217"/>
<polygon fill="black" stroke="black" points="961.448,-345.726 971.737,-343.2 962.118,-338.758 961.448,-345.726"/>
</g>
<!-- AlbumBrowserActivity&#45;&gt;AlbumListAdapter:mActivity -->
<g id="edge15" class="edge"><title>AlbumBrowserActivity&#45;&gt;AlbumListAdapter:mActivity</title>
<path fill="none" stroke="black" d="M771.578,-227.751C808.43,-227.252 849.698,-227.126 888.782,-227.373"/>
<polygon fill="black" stroke="black" points="889.178,-230.875 899.203,-227.448 889.228,-223.876 889.178,-230.875"/>
</g>
<!-- MusicBrowserActivity:mToken -->
<g id="node15" class="node"><title>MusicBrowserActivity:mToken</title>
<polygon fill="none" stroke="black" points="810.5,-360 495.5,-360 495.5,-324 810.5,-324 810.5,-360"/>
<text text-anchor="middle" x="653" y="-335.8" font-family="Times New Roman,serif" font-size="24.00">MusicBrowserActivity:mToken</text>
</g>
<!-- MusicBrowserActivity:mToken&#45;&gt;ServiceToken -->
<g id="edge17" class="edge"><title>MusicBrowserActivity:mToken&#45;&gt;ServiceToken</title>
<path fill="none" stroke="black" d="M810.5,-342C862.272,-342 917.846,-342 961.893,-342"/>
<polygon fill="black" stroke="black" points="961.969,-345.5 971.969,-342 961.969,-338.5 961.969,-345.5"/>
</g>
<!-- PreviewPlayer:mActivity -->
<g id="node16" class="node"><title>PreviewPlayer:mActivity</title>
<polygon fill="none" stroke="black" points="343.5,-792 87.5,-792 87.5,-756 343.5,-756 343.5,-792"/>
<text text-anchor="middle" x="215.5" y="-767.8" font-family="Times New Roman,serif" font-size="24.00">PreviewPlayer:mActivity</text>
</g>
<!-- AudioPreview -->
<g id="node17" class="node"><title>AudioPreview</title>
<polygon fill="none" stroke="black" points="729.5,-792 576.5,-792 576.5,-756 729.5,-756 729.5,-792"/>
<text text-anchor="middle" x="653" y="-767.8" font-family="Times New Roman,serif" font-size="24.00">AudioPreview</text>
</g>
<!-- PreviewPlayer:mActivity&#45;&gt;AudioPreview -->
<g id="edge18" class="edge"><title>PreviewPlayer:mActivity&#45;&gt;AudioPreview</title>
<path fill="none" stroke="black" d="M343.635,-767.799C415.101,-766.882 502.416,-767.114 565.868,-768.494"/>
<polygon fill="black" stroke="black" points="566.157,-772.002 576.236,-768.735 566.32,-765.004 566.157,-772.002"/>
</g>
<!-- AudioPreview&#45;&gt;PreviewPlayer:mActivity -->
<g id="edge19" class="edge"><title>AudioPreview&#45;&gt;PreviewPlayer:mActivity</title>
<path fill="none" stroke="black" d="M576.236,-779.265C515.064,-780.785 427.386,-781.138 353.905,-780.324"/>
<polygon fill="black" stroke="black" points="353.676,-776.821 343.635,-780.201 353.593,-783.82 353.676,-776.821"/>
</g>
<!-- TrackListAdapter:mIndexer -->
<g id="node18" class="node"><title>TrackListAdapter:mIndexer</title>
<polygon fill="none" stroke="black" points="1186.5,-630 905.5,-630 905.5,-594 1186.5,-594 1186.5,-630"/>
<text text-anchor="middle" x="1046" y="-605.8" font-family="Times New Roman,serif" font-size="24.00">TrackListAdapter:mIndexer</text>
</g>
<!-- TrackListAdapter:mIndexer&#45;&gt;MusicAlphabetIndexer -->
<g id="edge20" class="edge"><title>TrackListAdapter:mIndexer&#45;&gt;MusicAlphabetIndexer</title>
<path fill="none" stroke="black" d="M1162.27,-593.994C1180.59,-591.045 1199.32,-587.979 1217,-585 1230.46,-582.732 1244.59,-580.293 1258.57,-577.843"/>
<polygon fill="black" stroke="black" points="1259.47,-581.237 1268.72,-576.059 1258.26,-574.343 1259.47,-581.237"/>
</g>
<!-- MusicPicker:mAdapter -->
<g id="node19" class="node"><title>MusicPicker:mAdapter</title>
<polygon fill="none" stroke="black" points="771,-603 535,-603 535,-567 771,-567 771,-603"/>
<text text-anchor="middle" x="653" y="-578.8" font-family="Times New Roman,serif" font-size="24.00">MusicPicker:mAdapter</text>
</g>
<!-- MusicPicker:mAdapter&#45;&gt;TrackListAdapter:mIndexer -->
<g id="edge21" class="edge"><title>MusicPicker:mAdapter&#45;&gt;TrackListAdapter:mIndexer</title>
<path fill="none" stroke="black" d="M771.048,-593.083C810.02,-595.774 853.978,-598.809 895.088,-601.648"/>
<polygon fill="black" stroke="black" points="894.977,-605.149 905.194,-602.346 895.459,-598.165 894.977,-605.149"/>
</g>
<!-- QueryHandler -->
<g id="node20" class="node"><title>QueryHandler</title>
<polygon fill="none" stroke="black" points="1122,-576 970,-576 970,-540 1122,-540 1122,-576"/>
<text text-anchor="middle" x="1046" y="-551.8" font-family="Times New Roman,serif" font-size="24.00">QueryHandler</text>
</g>
<!-- MusicPicker:mAdapter&#45;&gt;QueryHandler -->
<g id="edge22" class="edge"><title>MusicPicker:mAdapter&#45;&gt;QueryHandler</title>
<path fill="none" stroke="black" d="M771.048,-576.917C831.73,-572.727 904.501,-567.702 959.786,-563.884"/>
<polygon fill="black" stroke="black" points="960.163,-567.367 969.898,-563.186 959.681,-560.383 960.163,-567.367"/>
</g>
<!-- PlaylistListAdapter:mActivity -->
<g id="node21" class="node"><title>PlaylistListAdapter:mActivity</title>
<polygon fill="none" stroke="black" points="1196,-198 896,-198 896,-162 1196,-162 1196,-198"/>
<text text-anchor="middle" x="1046" y="-173.8" font-family="Times New Roman,serif" font-size="24.00">PlaylistListAdapter:mActivity</text>
</g>
<!-- PlaylistBrowserActivity -->
<g id="node22" class="node"><title>PlaylistBrowserActivity</title>
<polygon fill="none" stroke="black" points="775,-198 531,-198 531,-162 775,-162 775,-198"/>
<text text-anchor="middle" x="653" y="-173.8" font-family="Times New Roman,serif" font-size="24.00">PlaylistBrowserActivity</text>
</g>
<!-- PlaylistListAdapter:mActivity&#45;&gt;PlaylistBrowserActivity -->
<g id="edge23" class="edge"><title>PlaylistListAdapter:mActivity&#45;&gt;PlaylistBrowserActivity</title>
<path fill="none" stroke="black" d="M895.947,-186.578C859.576,-186.852 820.929,-186.799 785.447,-186.417"/>
<polygon fill="black" stroke="black" points="785.078,-182.913 775.037,-186.295 784.995,-189.912 785.078,-182.913"/>
</g>
<!-- PlaylistBrowserActivity&#45;&gt;ServiceToken -->
<g id="edge25" class="edge"><title>PlaylistBrowserActivity&#45;&gt;ServiceToken</title>
<path fill="none" stroke="black" d="M775.078,-178.446C798.294,-183.179 820.956,-191.894 839,-207 877.796,-239.478 836.409,-282.278 875,-315 898.755,-335.142 931.343,-343.359 961.635,-346.022"/>
<polygon fill="black" stroke="black" points="961.588,-349.527 971.804,-346.722 962.068,-342.543 961.588,-349.527"/>
</g>
<!-- PlaylistBrowserActivity&#45;&gt;PlaylistListAdapter:mActivity -->
<g id="edge24" class="edge"><title>PlaylistBrowserActivity&#45;&gt;PlaylistListAdapter:mActivity</title>
<path fill="none" stroke="black" d="M775.037,-173.705C809.991,-173.257 848.679,-173.14 885.588,-173.353"/>
<polygon fill="black" stroke="black" points="885.924,-176.855 895.947,-173.422 885.971,-169.856 885.924,-176.855"/>
</g>
<!-- BluetoothAlbumBrowserActivity:mAdapter -->
<g id="node23" class="node"><title>BluetoothAlbumBrowserActivity:mAdapter</title>
<polygon fill="none" stroke="black" points="431,-846 0,-846 0,-810 431,-810 431,-846"/>
<text text-anchor="middle" x="215.5" y="-821.8" font-family="Times New Roman,serif" font-size="24.00">BluetoothAlbumBrowserActivity:mAdapter</text>
</g>
<!-- AlbumListAdapter -->
<g id="node24" class="node"><title>AlbumListAdapter</title>
<polygon fill="none" stroke="black" points="749.5,-846 556.5,-846 556.5,-810 749.5,-810 749.5,-846"/>
<text text-anchor="middle" x="653" y="-821.8" font-family="Times New Roman,serif" font-size="24.00">AlbumListAdapter</text>
</g>
<!-- BluetoothAlbumBrowserActivity:mAdapter&#45;&gt;AlbumListAdapter -->
<g id="edge26" class="edge"><title>BluetoothAlbumBrowserActivity:mAdapter&#45;&gt;AlbumListAdapter</title>
<path fill="none" stroke="black" d="M431.06,-828C471.12,-828 511.324,-828 546.246,-828"/>
<polygon fill="black" stroke="black" points="546.429,-831.5 556.429,-828 546.429,-824.5 546.429,-831.5"/>
</g>
<!-- MediaPickerActivity:mToken -->
<g id="node25" class="node"><title>MediaPickerActivity:mToken</title>
<polygon fill="none" stroke="black" points="802.5,-468 503.5,-468 503.5,-432 802.5,-432 802.5,-468"/>
<text text-anchor="middle" x="653" y="-443.8" font-family="Times New Roman,serif" font-size="24.00">MediaPickerActivity:mToken</text>
</g>
<!-- MediaPickerActivity:mToken&#45;&gt;ServiceToken -->
<g id="edge27" class="edge"><title>MediaPickerActivity:mToken&#45;&gt;ServiceToken</title>
<path fill="none" stroke="black" d="M799.566,-431.992C812.98,-429.361 826.295,-426.377 839,-423 894.991,-408.119 956.476,-382.674 997.568,-364.268"/>
<polygon fill="black" stroke="black" points="999.114,-367.41 1006.79,-360.103 996.232,-361.031 999.114,-367.41"/>
</g>
<!-- BluetoothPlaylistActivity:mAdapter -->
<g id="node26" class="node"><title>BluetoothPlaylistActivity:mAdapter</title>
<polygon fill="none" stroke="black" points="394,-900 37,-900 37,-864 394,-864 394,-900"/>
<text text-anchor="middle" x="215.5" y="-875.8" font-family="Times New Roman,serif" font-size="24.00">BluetoothPlaylistActivity:mAdapter</text>
</g>
<!-- PlaylistAdapter -->
<g id="node27" class="node"><title>PlaylistAdapter</title>
<polygon fill="none" stroke="black" points="735,-900 571,-900 571,-864 735,-864 735,-900"/>
<text text-anchor="middle" x="653" y="-875.8" font-family="Times New Roman,serif" font-size="24.00">PlaylistAdapter</text>
</g>
<!-- BluetoothPlaylistActivity:mAdapter&#45;&gt;PlaylistAdapter -->
<g id="edge28" class="edge"><title>BluetoothPlaylistActivity:mAdapter&#45;&gt;PlaylistAdapter</title>
<path fill="none" stroke="black" d="M394.263,-882C451.463,-882 512.475,-882 560.772,-882"/>
<polygon fill="black" stroke="black" points="560.879,-885.5 570.879,-882 560.879,-878.5 560.879,-885.5"/>
</g>
<!-- BluetoothArtistBrowserActivity:mAdapter -->
<g id="node28" class="node"><title>BluetoothArtistBrowserActivity:mAdapter</title>
<polygon fill="none" stroke="black" points="425.5,-954 5.5,-954 5.5,-918 425.5,-918 425.5,-954"/>
<text text-anchor="middle" x="215.5" y="-929.8" font-family="Times New Roman,serif" font-size="24.00">BluetoothArtistBrowserActivity:mAdapter</text>
</g>
<!-- ArtistListAdapter -->
<g id="node29" class="node"><title>ArtistListAdapter</title>
<polygon fill="none" stroke="black" points="744,-954 562,-954 562,-918 744,-918 744,-954"/>
<text text-anchor="middle" x="653" y="-929.8" font-family="Times New Roman,serif" font-size="24.00">ArtistListAdapter</text>
</g>
<!-- BluetoothArtistBrowserActivity:mAdapter&#45;&gt;ArtistListAdapter -->
<g id="edge29" class="edge"><title>BluetoothArtistBrowserActivity:mAdapter&#45;&gt;ArtistListAdapter</title>
<path fill="none" stroke="black" d="M425.64,-936C469.499,-936 513.824,-936 551.484,-936"/>
<polygon fill="black" stroke="black" points="551.923,-939.5 561.923,-936 551.923,-932.5 551.923,-939.5"/>
</g>
<!-- BluetoothTrackBrowserActivity:adapter -->
<g id="node30" class="node"><title>BluetoothTrackBrowserActivity:adapter</title>
<polygon fill="none" stroke="black" points="415,-1008 16,-1008 16,-972 415,-972 415,-1008"/>
<text text-anchor="middle" x="215.5" y="-983.8" font-family="Times New Roman,serif" font-size="24.00">BluetoothTrackBrowserActivity:adapter</text>
</g>
<!-- SongListAdapter -->
<g id="node31" class="node"><title>SongListAdapter</title>
<polygon fill="none" stroke="black" points="741.5,-1008 564.5,-1008 564.5,-972 741.5,-972 741.5,-1008"/>
<text text-anchor="middle" x="653" y="-983.8" font-family="Times New Roman,serif" font-size="24.00">SongListAdapter</text>
</g>
<!-- BluetoothTrackBrowserActivity:adapter&#45;&gt;SongListAdapter -->
<g id="edge30" class="edge"><title>BluetoothTrackBrowserActivity:adapter&#45;&gt;SongListAdapter</title>
<path fill="none" stroke="black" d="M415.134,-990C463.526,-990 513.186,-990 554.457,-990"/>
<polygon fill="black" stroke="black" points="554.489,-993.5 564.489,-990 554.489,-986.5 554.489,-993.5"/>
</g>
<!-- BluetoothSetupActivity:mToken -->
<g id="node32" class="node"><title>BluetoothSetupActivity:mToken</title>
<polygon fill="none" stroke="black" points="815,-414 491,-414 491,-378 815,-378 815,-414"/>
<text text-anchor="middle" x="653" y="-389.8" font-family="Times New Roman,serif" font-size="24.00">BluetoothSetupActivity:mToken</text>
</g>
<!-- BluetoothSetupActivity:mToken&#45;&gt;ServiceToken -->
<g id="edge31" class="edge"><title>BluetoothSetupActivity:mToken&#45;&gt;ServiceToken</title>
<path fill="none" stroke="black" d="M784.469,-377.981C842.973,-369.901 910.246,-360.611 961.775,-353.494"/>
<polygon fill="black" stroke="black" points="962.437,-356.936 971.864,-352.101 961.479,-350.002 962.437,-356.936"/>
</g>
<!-- MusicUtils:serviceManager -->
<g id="node33" class="node"><title>MusicUtils:serviceManager</title>
<polygon fill="none" stroke="black" points="353,-1062 78,-1062 78,-1026 353,-1026 353,-1062"/>
<text text-anchor="middle" x="215.5" y="-1037.8" font-family="Times New Roman,serif" font-size="24.00">MusicUtils:serviceManager</text>
</g>
<!-- ServiceManager -->
<g id="node34" class="node"><title>ServiceManager</title>
<polygon fill="none" stroke="black" points="738.5,-1062 567.5,-1062 567.5,-1026 738.5,-1026 738.5,-1062"/>
<text text-anchor="middle" x="653" y="-1037.8" font-family="Times New Roman,serif" font-size="24.00">ServiceManager</text>
</g>
<!-- MusicUtils:serviceManager&#45;&gt;ServiceManager -->
<g id="edge32" class="edge"><title>MusicUtils:serviceManager&#45;&gt;ServiceManager</title>
<path fill="none" stroke="black" d="M353.1,-1044C419.362,-1044 497.323,-1044 557.008,-1044"/>
<polygon fill="black" stroke="black" points="557.177,-1047.5 567.177,-1044 557.177,-1040.5 557.177,-1047.5"/>
</g>
<!-- MultiPlayer:mCurrentMediaPlayer -->
<g id="node35" class="node"><title>MultiPlayer:mCurrentMediaPlayer</title>
<polygon fill="none" stroke="black" points="826.5,-1224 479.5,-1224 479.5,-1188 826.5,-1188 826.5,-1224"/>
<text text-anchor="middle" x="653" y="-1199.8" font-family="Times New Roman,serif" font-size="24.00">MultiPlayer:mCurrentMediaPlayer</text>
</g>
<!-- CompatMediaPlayer -->
<g id="node36" class="node"><title>CompatMediaPlayer</title>
<polygon fill="none" stroke="black" points="1152,-1224 940,-1224 940,-1188 1152,-1188 1152,-1224"/>
<text text-anchor="middle" x="1046" y="-1199.8" font-family="Times New Roman,serif" font-size="24.00">CompatMediaPlayer</text>
</g>
<!-- MultiPlayer:mCurrentMediaPlayer&#45;&gt;CompatMediaPlayer -->
<g id="edge33" class="edge"><title>MultiPlayer:mCurrentMediaPlayer&#45;&gt;CompatMediaPlayer</title>
<path fill="none" stroke="black" d="M826.636,-1206C861.433,-1206 897.21,-1206 929.475,-1206"/>
<polygon fill="black" stroke="black" points="929.821,-1209.5 939.821,-1206 929.821,-1202.5 929.821,-1209.5"/>
</g>
<!-- MediaPlaybackService:mPlayer -->
<g id="node37" class="node"><title>MediaPlaybackService:mPlayer</title>
<polygon fill="none" stroke="black" points="375.5,-1170 55.5,-1170 55.5,-1134 375.5,-1134 375.5,-1170"/>
<text text-anchor="middle" x="215.5" y="-1145.8" font-family="Times New Roman,serif" font-size="24.00">MediaPlaybackService:mPlayer</text>
</g>
<!-- MediaPlaybackService:mPlayer&#45;&gt;MultiPlayer:mCurrentMediaPlayer -->
<g id="edge34" class="edge"><title>MediaPlaybackService:mPlayer&#45;&gt;MultiPlayer:mCurrentMediaPlayer</title>
<path fill="none" stroke="black" d="M361.818,-1170.02C405.075,-1175.38 452.635,-1181.28 496.513,-1186.72"/>
<polygon fill="black" stroke="black" points="496.341,-1190.23 506.696,-1187.98 497.203,-1183.28 496.341,-1190.23"/>
</g>
<!-- Shuffler -->
<g id="node38" class="node"><title>Shuffler</title>
<polygon fill="none" stroke="black" points="699.5,-1170 606.5,-1170 606.5,-1134 699.5,-1134 699.5,-1170"/>
<text text-anchor="middle" x="653" y="-1145.8" font-family="Times New Roman,serif" font-size="24.00">Shuffler</text>
</g>
<!-- MediaPlaybackService:mPlayer&#45;&gt;Shuffler -->
<g id="edge35" class="edge"><title>MediaPlaybackService:mPlayer&#45;&gt;Shuffler</title>
<path fill="none" stroke="black" d="M375.574,-1152C452.729,-1152 540.505,-1152 596.052,-1152"/>
<polygon fill="black" stroke="black" points="596.379,-1155.5 606.379,-1152 596.379,-1148.5 596.379,-1155.5"/>
</g>
<!-- MediaAppWidgetProvider -->
<g id="node39" class="node"><title>MediaAppWidgetProvider</title>
<polygon fill="none" stroke="black" points="787.5,-1116 518.5,-1116 518.5,-1080 787.5,-1080 787.5,-1116"/>
<text text-anchor="middle" x="653" y="-1091.8" font-family="Times New Roman,serif" font-size="24.00">MediaAppWidgetProvider</text>
</g>
<!-- MediaPlaybackService:mPlayer&#45;&gt;MediaAppWidgetProvider -->
<g id="edge36" class="edge"><title>MediaPlaybackService:mPlayer&#45;&gt;MediaAppWidgetProvider</title>
<path fill="none" stroke="black" d="M361.818,-1133.98C409.043,-1128.13 461.397,-1121.63 508.489,-1115.79"/>
<polygon fill="black" stroke="black" points="508.961,-1119.26 518.455,-1114.56 508.1,-1112.32 508.961,-1119.26"/>
</g>
<!-- MediaPlaybackActivity:mPrevButton -->
<g id="node40" class="node"><title>MediaPlaybackActivity:mPrevButton</title>
<polygon fill="none" stroke="black" points="839,-117 467,-117 467,-81 839,-81 839,-117"/>
<text text-anchor="middle" x="653" y="-92.8" font-family="Times New Roman,serif" font-size="24.00">MediaPlaybackActivity:mPrevButton</text>
</g>
<!-- MediaPlaybackActivity:mPrevButton&#45;&gt;ServiceToken -->
<g id="edge40" class="edge"><title>MediaPlaybackActivity:mPrevButton&#45;&gt;ServiceToken</title>
<path fill="none" stroke="black" d="M782.558,-117.087C803.7,-125.144 823.675,-136.639 839,-153 889.422,-206.829 821.276,-264.465 875,-315 897.881,-336.523 930.634,-344.923 961.294,-347.348"/>
<polygon fill="black" stroke="black" points="961.407,-350.86 971.595,-347.952 961.817,-343.872 961.407,-350.86"/>
</g>
<!-- RepeatingImageButton -->
<g id="node41" class="node"><title>RepeatingImageButton</title>
<polygon fill="none" stroke="black" points="1162.5,-144 929.5,-144 929.5,-108 1162.5,-108 1162.5,-144"/>
<text text-anchor="middle" x="1046" y="-119.8" font-family="Times New Roman,serif" font-size="24.00">RepeatingImageButton</text>
</g>
<!-- MediaPlaybackActivity:mPrevButton&#45;&gt;RepeatingImageButton -->
<g id="edge37" class="edge"><title>MediaPlaybackActivity:mPrevButton&#45;&gt;RepeatingImageButton</title>
<path fill="none" stroke="black" d="M839.195,-111.788C866.291,-113.659 893.653,-115.549 919.189,-117.312"/>
<polygon fill="black" stroke="black" points="919.039,-120.81 929.257,-118.007 919.521,-113.827 919.039,-120.81"/>
</g>
<!-- Worker -->
<g id="node42" class="node"><title>Worker</title>
<polygon fill="none" stroke="black" points="1090.5,-90 1001.5,-90 1001.5,-54 1090.5,-54 1090.5,-90"/>
<text text-anchor="middle" x="1046" y="-65.8" font-family="Times New Roman,serif" font-size="24.00">Worker</text>
</g>
<!-- MediaPlaybackActivity:mPrevButton&#45;&gt;Worker -->
<g id="edge38" class="edge"><title>MediaPlaybackActivity:mPrevButton&#45;&gt;Worker</title>
<path fill="none" stroke="black" d="M839.195,-86.2116C894.758,-82.3748 951.434,-78.4611 991.204,-75.7148"/>
<polygon fill="black" stroke="black" points="991.459,-79.2056 1001.19,-75.025 990.977,-72.2223 991.459,-79.2056"/>
</g>
<!-- AlbumArtHandler -->
<g id="node43" class="node"><title>AlbumArtHandler</title>
<polygon fill="none" stroke="black" points="1140,-36 952,-36 952,-0 1140,-0 1140,-36"/>
<text text-anchor="middle" x="1046" y="-11.8" font-family="Times New Roman,serif" font-size="24.00">AlbumArtHandler</text>
</g>
<!-- MediaPlaybackActivity:mPrevButton&#45;&gt;AlbumArtHandler -->
<g id="edge39" class="edge"><title>MediaPlaybackActivity:mPrevButton&#45;&gt;AlbumArtHandler</title>
<path fill="none" stroke="black" d="M721.873,-80.8846C765.429,-69.6401 823.308,-55.402 875,-45 896.468,-40.68 919.574,-36.621 941.622,-33.0274"/>
<polygon fill="black" stroke="black" points="942.352,-36.4551 951.669,-31.4098 941.239,-29.5441 942.352,-36.4551"/>
</g>
</g>
</svg>
