<?xml version="1.0" encoding="UTF-8" standalone="no"?>
<!DOCTYPE svg PUBLIC "-//W3C//DTD SVG 1.1//EN"
 "http://www.w3.org/Graphics/SVG/1.1/DTD/svg11.dtd">
<!-- Generated by graphviz version 2.38.0 (20140413.2041)
 -->
<!-- Title: g Pages: 1 -->
<svg width="2151pt" height="897pt"
 viewBox="0.00 0.00 2151.00 897.00" xmlns="http://www.w3.org/2000/svg" xmlns:xlink="http://www.w3.org/1999/xlink">
<g id="graph0" class="graph" transform="scale(1 1) rotate(0) translate(4 893)">
<title>g</title>
<polygon fill="white" stroke="none" points="-4,4 -4,-893 2147,-893 2147,4 -4,4"/>
<g id="clust1" class="cluster"><title>cluster0</title>
<polygon fill="none" stroke="black" stroke-width="2" points="721,-380 721,-770 1137,-770 1137,-380 721,-380"/>
<text text-anchor="start" x="907" y="-755.8" font-family="Times New Roman,serif" font-weight="bold" font-size="14.00">System</text>
</g>
<g id="clust2" class="cluster"><title>cluster1</title>
<polygon fill="none" stroke="black" stroke-width="2" points="845,-778 845,-881 1159,-881 1159,-778 845,-778"/>
<text text-anchor="start" x="987.5" y="-866.8" font-family="Times New Roman,serif" font-weight="bold" font-size="14.00">User</text>
</g>
<g id="clust3" class="cluster"><title>cluster1000</title>
<polygon fill="none" stroke="black" stroke-width="2" points="8,-8 8,-372 2135,-372 2135,-8 8,-8"/>
<text text-anchor="start" x="1026" y="-357.8" font-family="Times New Roman,serif" font-weight="bold" font-size="14.00">Domain Model</text>
</g>
<!-- EAID_93D4B445_2A6C_44c8_8877_D5CB2D118FEB___EAID_50CF99DE_FF4A_4337_A1CB_0899019E7629 -->
<g id="node1" class="node"><title>EAID_93D4B445_2A6C_44c8_8877_D5CB2D118FEB___EAID_50CF99DE_FF4A_4337_A1CB_0899019E7629</title>
<image xlink:href="img/activity_icon.png" width="30px" height="20px" preserveAspectRatio="xMinYMin meet" x="1055" y="-726"/>
<text text-anchor="start" x="1021" y="-691.8" font-family="Times New Roman,serif" font-weight="bold" font-size="14.00">User:Homepage</text>
</g>
<!-- EAID_CD1037A4_A732_409d_8526_F8718FE718AC -->
<g id="node15" class="node"><title>EAID_CD1037A4_A732_409d_8526_F8718FE718AC</title>
<polygon fill="none" stroke="black" points="1020,-241.5 1020,-262.5 1201,-262.5 1201,-241.5 1020,-241.5"/>
<text text-anchor="start" x="1077.5" y="-249.3" font-family="Times New Roman,serif" font-weight="bold" font-size="14.00">Homepage</text>
<polygon fill="none" stroke="black" points="1020,-220.5 1020,-241.5 1201,-241.5 1201,-220.5 1020,-220.5"/>
<text text-anchor="start" x="1073" y="-228.3" font-family="Times New Roman,serif" font-weight="bold" font-size="14.00">Homepage()</text>
<polygon fill="none" stroke="black" points="1020,-199.5 1020,-220.5 1201,-220.5 1201,-199.5 1020,-199.5"/>
<text text-anchor="start" x="1061.5" y="-207.3" font-family="Times New Roman,serif" font-weight="bold" font-size="14.00">Checkoutpage()</text>
<polygon fill="none" stroke="black" points="1020,-178.5 1020,-199.5 1201,-199.5 1201,-178.5 1020,-178.5"/>
<text text-anchor="start" x="1023" y="-186.3" font-family="Times New Roman,serif" font-weight="bold" font-size="14.00">CustomizeDataserivcepage()</text>
<polygon fill="none" stroke="black" points="1020,-157.5 1020,-178.5 1201,-178.5 1201,-157.5 1020,-157.5"/>
<text text-anchor="start" x="1073.5" y="-165.3" font-family="Times New Roman,serif" font-weight="bold" font-size="14.00">Loginpage()</text>
<polygon fill="none" stroke="black" points="1020,-136.5 1020,-157.5 1201,-157.5 1201,-136.5 1020,-136.5"/>
<text text-anchor="start" x="1052.5" y="-144.3" font-family="Times New Roman,serif" font-weight="bold" font-size="14.00">Managedatapage()</text>
<polygon fill="none" stroke="black" points="1020,-115.5 1020,-136.5 1201,-136.5 1201,-115.5 1020,-115.5"/>
<text text-anchor="start" x="1052" y="-123.3" font-family="Times New Roman,serif" font-weight="bold" font-size="14.00">ReceiveDatapage()</text>
<polygon fill="none" stroke="black" points="1020,-94.5 1020,-115.5 1201,-115.5 1201,-94.5 1020,-94.5"/>
<text text-anchor="start" x="1047" y="-102.3" font-family="Times New Roman,serif" font-weight="bold" font-size="14.00">Updatecontentpage()</text>
<polygon fill="none" stroke="black" points="1018.5,-93.5 1018.5,-263.5 1201.5,-263.5 1201.5,-93.5 1018.5,-93.5"/>
</g>
<!-- EAID_93D4B445_2A6C_44c8_8877_D5CB2D118FEB___EAID_50CF99DE_FF4A_4337_A1CB_0899019E7629&#45;&gt;EAID_CD1037A4_A732_409d_8526_F8718FE718AC -->
<g id="edge8" class="edge"><title>EAID_93D4B445_2A6C_44c8_8877_D5CB2D118FEB___EAID_50CF99DE_FF4A_4337_A1CB_0899019E7629&#45;&gt;EAID_CD1037A4_A732_409d_8526_F8718FE718AC</title>
<path fill="none" stroke="black" stroke-dasharray="5,2" d="M1129.02,-693.25C1158.43,-683.594 1191.4,-667.017 1209,-639 1278.76,-527.927 1221.9,-375.192 1169.91,-276.896"/>
<polygon fill="black" stroke="black" points="1172.87,-275.011 1165.06,-267.853 1166.7,-278.319 1172.87,-275.011"/>
</g>
<!-- EAID_93D4B445_2A6C_44c8_8877_D5CB2D118FEB___EAID_1312B04F_AD90_4638_B301_179BB8425EBD -->
<g id="node2" class="node"><title>EAID_93D4B445_2A6C_44c8_8877_D5CB2D118FEB___EAID_1312B04F_AD90_4638_B301_179BB8425EBD</title>
<image xlink:href="img/activity_icon.png" width="30px" height="20px" preserveAspectRatio="xMinYMin meet" x="919" y="-733"/>
<text text-anchor="start" x="885" y="-698.8" font-family="Times New Roman,serif" font-weight="bold" font-size="14.00">User:View data </text>
<text text-anchor="start" x="919" y="-684.8" font-family="Times New Roman,serif" font-weight="bold" font-size="14.00">page</text>
</g>
<!-- EAID_1312B04F_AD90_4638_B301_179BB8425EBD___EAID_A5099224_EEAD_4901_897B_F1C0731E9F74 -->
<g id="node4" class="node"><title>EAID_1312B04F_AD90_4638_B301_179BB8425EBD___EAID_A5099224_EEAD_4901_897B_F1C0731E9F74</title>
<image xlink:href="img/activity_icon.png" width="30px" height="20px" preserveAspectRatio="xMinYMin meet" x="941" y="-633"/>
<text text-anchor="start" x="923" y="-598.8" font-family="Times New Roman,serif" font-weight="bold" font-size="14.00">View data </text>
<text text-anchor="start" x="901" y="-584.8" font-family="Times New Roman,serif" font-weight="bold" font-size="14.00">page:Choose data</text>
</g>
<!-- EAID_93D4B445_2A6C_44c8_8877_D5CB2D118FEB___EAID_1312B04F_AD90_4638_B301_179BB8425EBD&#45;&gt;EAID_1312B04F_AD90_4638_B301_179BB8425EBD___EAID_A5099224_EEAD_4901_897B_F1C0731E9F74 -->
<g id="edge2" class="edge"><title>EAID_93D4B445_2A6C_44c8_8877_D5CB2D118FEB___EAID_1312B04F_AD90_4638_B301_179BB8425EBD&#45;&gt;EAID_1312B04F_AD90_4638_B301_179BB8425EBD___EAID_A5099224_EEAD_4901_897B_F1C0731E9F74</title>
<path fill="none" stroke="black" d="M940.961,-674.992C942.807,-666.77 944.829,-657.763 946.775,-649.095"/>
<polygon fill="black" stroke="black" points="950.233,-649.666 949.009,-639.142 943.403,-648.133 950.233,-649.666"/>
</g>
<!-- EAID_93D4B445_2A6C_44c8_8877_D5CB2D118FEB___EAID_1312B04F_AD90_4638_B301_179BB8425EBD&#45;&gt;EAID_CD1037A4_A732_409d_8526_F8718FE718AC -->
<g id="edge9" class="edge"><title>EAID_93D4B445_2A6C_44c8_8877_D5CB2D118FEB___EAID_1312B04F_AD90_4638_B301_179BB8425EBD&#45;&gt;EAID_CD1037A4_A732_409d_8526_F8718FE718AC</title>
<path fill="none" stroke="black" stroke-dasharray="5,2" d="M983.648,-674.856C999.118,-664.247 1015.83,-651.81 1030,-639 1104.91,-571.298 1136.03,-550.32 1159,-452 1172.41,-394.615 1161.74,-329.697 1146.97,-277.621"/>
<polygon fill="black" stroke="black" points="1150.24,-276.332 1144.07,-267.718 1143.52,-278.299 1150.24,-276.332"/>
</g>
<!-- EAID_A5099224_EEAD_4901_897B_F1C0731E9F74___EAID_42A353DF_9C4F_40de_BFF7_9E4B21EB1555 -->
<g id="node3" class="node"><title>EAID_A5099224_EEAD_4901_897B_F1C0731E9F74___EAID_42A353DF_9C4F_40de_BFF7_9E4B21EB1555</title>
<image xlink:href="img/activity_icon.png" width="30px" height="20px" preserveAspectRatio="xMinYMin meet" x="984" y="-532.5"/>
<text text-anchor="start" x="901" y="-498.3" font-family="Times New Roman,serif" font-weight="bold" font-size="14.00">Choose data:Confirmation page</text>
</g>
<!-- EAID_42A353DF_9C4F_40de_BFF7_9E4B21EB1555___EAID_50CF99DE_FF4A_4337_A1CB_0899019E7629 -->
<g id="node5" class="node"><title>EAID_42A353DF_9C4F_40de_BFF7_9E4B21EB1555___EAID_50CF99DE_FF4A_4337_A1CB_0899019E7629</title>
<image xlink:href="img/activity_icon.png" width="30px" height="20px" preserveAspectRatio="xMinYMin meet" x="1010" y="-439"/>
<text text-anchor="start" x="931" y="-404.8" font-family="Times New Roman,serif" font-weight="bold" font-size="14.00">Confirmation page :Homepage</text>
</g>
<!-- EAID_A5099224_EEAD_4901_897B_F1C0731E9F74___EAID_42A353DF_9C4F_40de_BFF7_9E4B21EB1555&#45;&gt;EAID_42A353DF_9C4F_40de_BFF7_9E4B21EB1555___EAID_50CF99DE_FF4A_4337_A1CB_0899019E7629 -->
<g id="edge4" class="edge"><title>EAID_A5099224_EEAD_4901_897B_F1C0731E9F74___EAID_42A353DF_9C4F_40de_BFF7_9E4B21EB1555&#45;&gt;EAID_42A353DF_9C4F_40de_BFF7_9E4B21EB1555___EAID_50CF99DE_FF4A_4337_A1CB_0899019E7629</title>
<path fill="none" stroke="black" d="M1005.97,-487.98C1008.82,-477.928 1012.18,-466.12 1015.27,-455.241"/>
<polygon fill="black" stroke="black" points="1018.65,-456.164 1018.01,-445.588 1011.91,-454.251 1018.65,-456.164"/>
</g>
<!-- EAID_42A353DF_9C4F_40de_BFF7_9E4B21EB1555___EAID_1312B04F_AD90_4638_B301_179BB8425EBD -->
<g id="node6" class="node"><title>EAID_42A353DF_9C4F_40de_BFF7_9E4B21EB1555___EAID_1312B04F_AD90_4638_B301_179BB8425EBD</title>
<image xlink:href="img/activity_icon.png" width="30px" height="20px" preserveAspectRatio="xMinYMin meet" x="801" y="-446"/>
<text text-anchor="start" x="739" y="-411.8" font-family="Times New Roman,serif" font-weight="bold" font-size="14.00">Confirmation page :View</text>
<text text-anchor="start" x="784" y="-397.8" font-family="Times New Roman,serif" font-weight="bold" font-size="14.00">data &#160;page</text>
</g>
<!-- EAID_A5099224_EEAD_4901_897B_F1C0731E9F74___EAID_42A353DF_9C4F_40de_BFF7_9E4B21EB1555&#45;&gt;EAID_42A353DF_9C4F_40de_BFF7_9E4B21EB1555___EAID_1312B04F_AD90_4638_B301_179BB8425EBD -->
<g id="edge5" class="edge"><title>EAID_A5099224_EEAD_4901_897B_F1C0731E9F74___EAID_42A353DF_9C4F_40de_BFF7_9E4B21EB1555&#45;&gt;EAID_42A353DF_9C4F_40de_BFF7_9E4B21EB1555___EAID_1312B04F_AD90_4638_B301_179BB8425EBD</title>
<path fill="none" stroke="black" d="M949.959,-487.98C930.777,-478.388 908.395,-467.197 887.48,-456.74"/>
<polygon fill="black" stroke="black" points="888.816,-453.495 878.307,-452.153 885.686,-459.756 888.816,-453.495"/>
</g>
<!-- EAID_6F6CAE60_486A_4184_9817_225FE07C2163 -->
<g id="node11" class="node"><title>EAID_6F6CAE60_486A_4184_9817_225FE07C2163</title>
<polygon fill="none" stroke="black" points="25,-251.5 25,-272.5 257,-272.5 257,-251.5 25,-251.5"/>
<text text-anchor="start" x="71.5" y="-259.3" font-family="Times New Roman,serif" font-weight="bold" font-size="14.00">Product Configuration</text>
<polygon fill="none" stroke="black" points="25,-230.5 25,-251.5 257,-251.5 257,-230.5 25,-230.5"/>
<text text-anchor="start" x="83" y="-238.3" font-family="Times New Roman,serif" font-weight="bold" font-size="14.00">EAJava_date Date</text>
<polygon fill="none" stroke="black" points="25,-209.5 25,-230.5 257,-230.5 257,-209.5 25,-209.5"/>
<text text-anchor="start" x="78" y="-217.3" font-family="Times New Roman,serif" font-weight="bold" font-size="14.00">EAJava_int FormID</text>
<polygon fill="none" stroke="black" points="25,-188.5 25,-209.5 257,-209.5 257,-188.5 25,-188.5"/>
<text text-anchor="start" x="28" y="-196.3" font-family="Times New Roman,serif" font-weight="bold" font-size="14.00">EAJava_int ProductConfigurationID</text>
<polygon fill="none" stroke="black" points="25,-167.5 25,-188.5 257,-188.5 257,-167.5 25,-167.5"/>
<text text-anchor="start" x="43" y="-175.3" font-family="Times New Roman,serif" font-weight="bold" font-size="14.00">EAJava_string PurchasingType</text>
<polygon fill="none" stroke="black" points="25,-146.5 25,-167.5 257,-167.5 257,-146.5 25,-146.5"/>
<text text-anchor="start" x="69" y="-154.3" font-family="Times New Roman,serif" font-weight="bold" font-size="14.00">EAJava_float TotalFee</text>
<polygon fill="none" stroke="black" points="25,-125.5 25,-146.5 257,-146.5 257,-125.5 25,-125.5"/>
<text text-anchor="start" x="80.5" y="-133.3" font-family="Times New Roman,serif" font-weight="bold" font-size="14.00">EAJava_int UserID</text>
<polygon fill="none" stroke="black" points="25,-104.5 25,-125.5 257,-125.5 257,-104.5 25,-104.5"/>
<text text-anchor="start" x="69" y="-112.3" font-family="Times New Roman,serif" font-weight="bold" font-size="14.00">ProductConfiguration()</text>
<polygon fill="none" stroke="black" points="25,-83.5 25,-104.5 257,-104.5 257,-83.5 25,-83.5"/>
<text text-anchor="start" x="80.5" y="-91.3" font-family="Times New Roman,serif" font-weight="bold" font-size="14.00">Confirmationpage()</text>
<polygon fill="none" stroke="black" points="24,-83 24,-274 258,-274 258,-83 24,-83"/>
</g>
<!-- EAID_A5099224_EEAD_4901_897B_F1C0731E9F74___EAID_42A353DF_9C4F_40de_BFF7_9E4B21EB1555&#45;&gt;EAID_6F6CAE60_486A_4184_9817_225FE07C2163 -->
<g id="edge10" class="edge"><title>EAID_A5099224_EEAD_4901_897B_F1C0731E9F74___EAID_42A353DF_9C4F_40de_BFF7_9E4B21EB1555&#45;&gt;EAID_6F6CAE60_486A_4184_9817_225FE07C2163</title>
<path fill="none" stroke="black" stroke-dasharray="5,2" d="M1095.81,-487.865C1112.5,-479.242 1127.76,-467.629 1138,-452 1155.54,-425.236 1160.52,-402.732 1138,-380 1121.13,-362.97 296.198,-383.197 275,-372 239.469,-353.231 211.42,-320.329 190.363,-286.977"/>
<polygon fill="black" stroke="black" points="193.094,-284.734 184.886,-278.035 187.125,-288.391 193.094,-284.734"/>
</g>
<!-- EAID_1312B04F_AD90_4638_B301_179BB8425EBD___EAID_A5099224_EEAD_4901_897B_F1C0731E9F74&#45;&gt;EAID_A5099224_EEAD_4901_897B_F1C0731E9F74___EAID_42A353DF_9C4F_40de_BFF7_9E4B21EB1555 -->
<g id="edge6" class="edge"><title>EAID_1312B04F_AD90_4638_B301_179BB8425EBD___EAID_A5099224_EEAD_4901_897B_F1C0731E9F74&#45;&gt;EAID_A5099224_EEAD_4901_897B_F1C0731E9F74___EAID_42A353DF_9C4F_40de_BFF7_9E4B21EB1555</title>
<path fill="none" stroke="black" d="M970.678,-574.767C974.68,-566.25 979.034,-556.985 983.101,-548.332"/>
<polygon fill="black" stroke="black" points="986.285,-549.785 987.371,-539.246 979.95,-546.808 986.285,-549.785"/>
</g>
<!-- EAID_EA3F3F51_274B_48c6_96D3_BF666BE5299E -->
<g id="node12" class="node"><title>EAID_EA3F3F51_274B_48c6_96D3_BF666BE5299E</title>
<polygon fill="none" stroke="black" points="1237,-314.5 1237,-335.5 1480,-335.5 1480,-314.5 1237,-314.5"/>
<text text-anchor="start" x="1284" y="-322.3" font-family="Times New Roman,serif" font-weight="bold" font-size="14.00">Sensor Data Export File</text>
<polygon fill="none" stroke="black" points="1237,-293.5 1237,-314.5 1480,-314.5 1480,-293.5 1237,-293.5"/>
<text text-anchor="start" x="1280.5" y="-301.3" font-family="Times New Roman,serif" font-weight="bold" font-size="14.00">EAJava_float SignalDate</text>
<polygon fill="none" stroke="black" points="1237,-272.5 1237,-293.5 1480,-293.5 1480,-272.5 1237,-272.5"/>
<text text-anchor="start" x="1306" y="-280.3" font-family="Times New Roman,serif" font-weight="bold" font-size="14.00">EAJava_int Tick</text>
<polygon fill="none" stroke="black" points="1237,-251.5 1237,-272.5 1480,-272.5 1480,-251.5 1237,-251.5"/>
<text text-anchor="start" x="1271" y="-259.3" font-family="Times New Roman,serif" font-weight="bold" font-size="14.00">EAJava_float TimeDuration</text>
<polygon fill="none" stroke="black" points="1237,-230.5 1237,-251.5 1480,-251.5 1480,-230.5 1237,-230.5"/>
<text text-anchor="start" x="1298" y="-238.3" font-family="Times New Roman,serif" font-weight="bold" font-size="14.00">EAJava_int UserID</text>
<polygon fill="none" stroke="black" points="1237,-209.5 1237,-230.5 1480,-230.5 1480,-209.5 1237,-209.5"/>
<text text-anchor="start" x="1285" y="-217.3" font-family="Times New Roman,serif" font-weight="bold" font-size="14.00">SensorDataExportFile()</text>
<polygon fill="none" stroke="black" points="1237,-188.5 1237,-209.5 1480,-209.5 1480,-188.5 1237,-188.5"/>
<text text-anchor="start" x="1310.5" y="-196.3" font-family="Times New Roman,serif" font-weight="bold" font-size="14.00">Checkoutdata()</text>
<polygon fill="none" stroke="black" points="1237,-167.5 1237,-188.5 1480,-188.5 1480,-167.5 1237,-167.5"/>
<text text-anchor="start" x="1308.5" y="-175.3" font-family="Times New Roman,serif" font-weight="bold" font-size="14.00">Customizedata()</text>
<polygon fill="none" stroke="black" points="1237,-146.5 1237,-167.5 1480,-167.5 1480,-146.5 1237,-146.5"/>
<text text-anchor="start" x="1240.5" y="-154.3" font-family="Times New Roman,serif" font-weight="bold" font-size="14.00">sourceofinformationexportedintoafile()</text>
<polygon fill="none" stroke="black" points="1237,-125.5 1237,-146.5 1480,-146.5 1480,-125.5 1237,-125.5"/>
<text text-anchor="start" x="1261" y="-133.3" font-family="Times New Roman,serif" font-weight="bold" font-size="14.00">Validateusenameandpassword()</text>
<polygon fill="none" stroke="black" points="1237,-104.5 1237,-125.5 1480,-125.5 1480,-104.5 1237,-104.5"/>
<text text-anchor="start" x="1240" y="-112.3" font-family="Times New Roman,serif" font-weight="bold" font-size="14.00">choosesthetypeofmanagementfordata()</text>
<polygon fill="none" stroke="black" points="1237,-83.5 1237,-104.5 1480,-104.5 1480,-83.5 1237,-83.5"/>
<text text-anchor="start" x="1309" y="-91.3" font-family="Times New Roman,serif" font-weight="bold" font-size="14.00">SendDatapage()</text>
<polygon fill="none" stroke="black" points="1237,-62.5 1237,-83.5 1480,-83.5 1480,-62.5 1237,-62.5"/>
<text text-anchor="start" x="1324" y="-70.3" font-family="Times New Roman,serif" font-weight="bold" font-size="14.00">Inputdata()</text>
<polygon fill="none" stroke="black" points="1237,-41.5 1237,-62.5 1480,-62.5 1480,-41.5 1237,-41.5"/>
<text text-anchor="start" x="1310" y="-49.3" font-family="Times New Roman,serif" font-weight="bold" font-size="14.00">Subscribedata()</text>
<polygon fill="none" stroke="black" points="1237,-20.5 1237,-41.5 1480,-41.5 1480,-20.5 1237,-20.5"/>
<text text-anchor="start" x="1317.5" y="-28.3" font-family="Times New Roman,serif" font-weight="bold" font-size="14.00">Choosedata()</text>
<polygon fill="none" stroke="black" points="1235.5,-20 1235.5,-337 1480.5,-337 1480.5,-20 1235.5,-20"/>
</g>
<!-- EAID_1312B04F_AD90_4638_B301_179BB8425EBD___EAID_A5099224_EEAD_4901_897B_F1C0731E9F74&#45;&gt;EAID_EA3F3F51_274B_48c6_96D3_BF666BE5299E -->
<g id="edge11" class="edge"><title>EAID_1312B04F_AD90_4638_B301_179BB8425EBD___EAID_A5099224_EEAD_4901_897B_F1C0731E9F74&#45;&gt;EAID_EA3F3F51_274B_48c6_96D3_BF666BE5299E</title>
<path fill="none" stroke="black" stroke-dasharray="5,2" d="M1021.02,-588.376C1052.09,-577.682 1088.42,-561.645 1116,-539 1178.61,-487.598 1231.36,-415.844 1271.47,-349.949"/>
<polygon fill="black" stroke="black" points="1274.63,-351.483 1276.79,-341.111 1268.63,-347.87 1274.63,-351.483"/>
</g>
<!-- EAID_42A353DF_9C4F_40de_BFF7_9E4B21EB1555___EAID_50CF99DE_FF4A_4337_A1CB_0899019E7629&#45;&gt;EAID_CD1037A4_A732_409d_8526_F8718FE718AC -->
<g id="edge12" class="edge"><title>EAID_42A353DF_9C4F_40de_BFF7_9E4B21EB1555___EAID_50CF99DE_FF4A_4337_A1CB_0899019E7629&#45;&gt;EAID_CD1037A4_A732_409d_8526_F8718FE718AC</title>
<path fill="none" stroke="black" stroke-dasharray="5,2" d="M1033.78,-394.271C1043.6,-366.605 1060.12,-320.051 1075.27,-277.346"/>
<polygon fill="black" stroke="black" points="1078.64,-278.327 1078.69,-267.732 1072.04,-275.986 1078.64,-278.327"/>
</g>
<!-- EAID_42A353DF_9C4F_40de_BFF7_9E4B21EB1555___EAID_1312B04F_AD90_4638_B301_179BB8425EBD&#45;&gt;EAID_1312B04F_AD90_4638_B301_179BB8425EBD___EAID_A5099224_EEAD_4901_897B_F1C0731E9F74 -->
<g id="edge7" class="edge"><title>EAID_42A353DF_9C4F_40de_BFF7_9E4B21EB1555___EAID_1312B04F_AD90_4638_B301_179BB8425EBD&#45;&gt;EAID_1312B04F_AD90_4638_B301_179BB8425EBD___EAID_A5099224_EEAD_4901_897B_F1C0731E9F74</title>
<path fill="none" stroke="black" d="M829.895,-452.026C841.808,-476.869 860.433,-511.916 882,-539 890.008,-549.056 899.587,-558.909 909.155,-567.833"/>
<polygon fill="black" stroke="black" points="907.041,-570.641 916.796,-574.776 911.749,-565.461 907.041,-570.641"/>
</g>
<!-- EAID_42A353DF_9C4F_40de_BFF7_9E4B21EB1555___EAID_1312B04F_AD90_4638_B301_179BB8425EBD&#45;&gt;EAID_CD1037A4_A732_409d_8526_F8718FE718AC -->
<g id="edge13" class="edge"><title>EAID_42A353DF_9C4F_40de_BFF7_9E4B21EB1555___EAID_1312B04F_AD90_4638_B301_179BB8425EBD&#45;&gt;EAID_CD1037A4_A732_409d_8526_F8718FE718AC</title>
<path fill="none" stroke="black" stroke-dasharray="5,2" d="M885.463,-387.997C894.269,-384.897 903.258,-382.119 912,-380 931.299,-375.323 984.31,-382.759 1001,-372 1035.37,-349.841 1060.01,-312.811 1077.06,-277.114"/>
<polygon fill="black" stroke="black" points="1080.45,-278.134 1081.45,-267.588 1074.09,-275.204 1080.45,-278.134"/>
</g>
<!-- EAID_93D4B445_2A6C_44c8_8877_D5CB2D118FEB___EAID_50CF99DE_FF4A_4337_A1CB_0899019E7629_STL -->
<g id="node7" class="node"><title>EAID_93D4B445_2A6C_44c8_8877_D5CB2D118FEB___EAID_50CF99DE_FF4A_4337_A1CB_0899019E7629_STL</title>
<image xlink:href="img/stimulus_icon.png" width="30px" height="20px" preserveAspectRatio="xMinYMin meet" x="1066" y="-837"/>
<text text-anchor="start" x="1021" y="-802.8" font-family="Times New Roman,serif" font-weight="bold" font-size="14.00">stl#User:Homepage</text>
</g>
<!-- EAID_93D4B445_2A6C_44c8_8877_D5CB2D118FEB___EAID_50CF99DE_FF4A_4337_A1CB_0899019E7629_STL&#45;&gt;EAID_93D4B445_2A6C_44c8_8877_D5CB2D118FEB___EAID_50CF99DE_FF4A_4337_A1CB_0899019E7629 -->
<g id="edge1" class="edge"><title>EAID_93D4B445_2A6C_44c8_8877_D5CB2D118FEB___EAID_50CF99DE_FF4A_4337_A1CB_0899019E7629_STL&#45;&gt;EAID_93D4B445_2A6C_44c8_8877_D5CB2D118FEB___EAID_50CF99DE_FF4A_4337_A1CB_0899019E7629</title>
<path fill="none" stroke="black" d="M1078.5,-792.266C1077.03,-777.633 1075.13,-758.87 1073.51,-742.765"/>
<polygon fill="black" stroke="black" points="1076.97,-742.234 1072.49,-732.636 1070.01,-742.937 1076.97,-742.234"/>
</g>
<!-- EAID_93D4B445_2A6C_44c8_8877_D5CB2D118FEB___EAID_1312B04F_AD90_4638_B301_179BB8425EBD_STL -->
<g id="node8" class="node"><title>EAID_93D4B445_2A6C_44c8_8877_D5CB2D118FEB___EAID_1312B04F_AD90_4638_B301_179BB8425EBD_STL</title>
<image xlink:href="img/stimulus_icon.png" width="30px" height="20px" preserveAspectRatio="xMinYMin meet" x="908" y="-844"/>
<text text-anchor="start" x="863" y="-809.8" font-family="Times New Roman,serif" font-weight="bold" font-size="14.00">stl#User:View data </text>
<text text-anchor="start" x="908" y="-795.8" font-family="Times New Roman,serif" font-weight="bold" font-size="14.00">page</text>
</g>
<!-- EAID_93D4B445_2A6C_44c8_8877_D5CB2D118FEB___EAID_1312B04F_AD90_4638_B301_179BB8425EBD_STL&#45;&gt;EAID_93D4B445_2A6C_44c8_8877_D5CB2D118FEB___EAID_1312B04F_AD90_4638_B301_179BB8425EBD -->
<g id="edge3" class="edge"><title>EAID_93D4B445_2A6C_44c8_8877_D5CB2D118FEB___EAID_1312B04F_AD90_4638_B301_179BB8425EBD_STL&#45;&gt;EAID_93D4B445_2A6C_44c8_8877_D5CB2D118FEB___EAID_1312B04F_AD90_4638_B301_179BB8425EBD</title>
<path fill="none" stroke="black" d="M926.152,-785.765C927.291,-774.477 928.596,-761.549 929.81,-749.518"/>
<polygon fill="black" stroke="black" points="933.326,-749.541 930.847,-739.24 926.361,-748.838 933.326,-749.541"/>
</g>
<!-- EAID_1FE114CC_7F6B_47c8_B31C_F0526CF1B3B3 -->
<g id="node9" class="node"><title>EAID_1FE114CC_7F6B_47c8_B31C_F0526CF1B3B3</title>
<polygon fill="none" stroke="black" points="1764,-209.5 1764,-230.5 2118,-230.5 2118,-209.5 1764,-209.5"/>
<text text-anchor="start" x="1767" y="-217.3" font-family="Times New Roman,serif" font-weight="bold" font-size="14.00">Web based product configurator and data service system</text>
<polygon fill="none" stroke="black" points="1764,-188.5 1764,-209.5 2118,-209.5 2118,-188.5 1764,-188.5"/>
<text text-anchor="start" x="1775.5" y="-196.3" font-family="Times New Roman,serif" font-weight="bold" font-size="14.00">Webbasedproductconfiguratoranddataservicesystem()</text>
<polygon fill="none" stroke="black" points="1764,-167.5 1764,-188.5 2118,-188.5 2118,-167.5 1764,-167.5"/>
<text text-anchor="start" x="1846.5" y="-175.3" font-family="Times New Roman,serif" font-weight="bold" font-size="14.00">storesthedataintothedatabase()</text>
<polygon fill="none" stroke="black" points="1764,-146.5 1764,-167.5 2118,-167.5 2118,-146.5 1764,-146.5"/>
<text text-anchor="start" x="1786" y="-154.3" font-family="Times New Roman,serif" font-weight="bold" font-size="14.00">selectsthewaytoreceivenotificationanemailoratext()</text>
<polygon fill="none" stroke="black" points="1764,-125.5 1764,-146.5 2118,-146.5 2118,-125.5 1764,-125.5"/>
<text text-anchor="start" x="1864" y="-133.3" font-family="Times New Roman,serif" font-weight="bold" font-size="14.00">Choosecontenttoupdate()</text>
<polygon fill="none" stroke="black" points="1763,-125 1763,-232 2119,-232 2119,-125 1763,-125"/>
</g>
<!-- EAID_F13FE8AE_A9DC_4bea_97DF_463D13956F56 -->
<g id="node10" class="node"><title>EAID_F13FE8AE_A9DC_4bea_97DF_463D13956F56</title>
<polygon fill="none" stroke="black" points="1516,-262.5 1516,-283.5 1728,-283.5 1728,-262.5 1516,-262.5"/>
<text text-anchor="start" x="1519" y="-270.3" font-family="Times New Roman,serif" font-weight="bold" font-size="14.00">Data Service Configuration Form</text>
<polygon fill="none" stroke="black" points="1516,-241.5 1516,-262.5 1728,-262.5 1728,-241.5 1516,-241.5"/>
<text text-anchor="start" x="1521" y="-249.3" font-family="Times New Roman,serif" font-weight="bold" font-size="14.00">EAJava_string ConfigParameter</text>
<polygon fill="none" stroke="black" points="1516,-220.5 1516,-241.5 1728,-241.5 1728,-220.5 1516,-220.5"/>
<text text-anchor="start" x="1564" y="-228.3" font-family="Times New Roman,serif" font-weight="bold" font-size="14.00">EAJava_date Date</text>
<polygon fill="none" stroke="black" points="1516,-199.5 1516,-220.5 1728,-220.5 1728,-199.5 1516,-199.5"/>
<text text-anchor="start" x="1558.5" y="-207.3" font-family="Times New Roman,serif" font-weight="bold" font-size="14.00">EAJava_string Type</text>
<polygon fill="none" stroke="black" points="1516,-178.5 1516,-199.5 1728,-199.5 1728,-178.5 1516,-178.5"/>
<text text-anchor="start" x="1561.5" y="-186.3" font-family="Times New Roman,serif" font-weight="bold" font-size="14.00">EAJava_int UserID</text>
<polygon fill="none" stroke="black" points="1516,-157.5 1516,-178.5 1728,-178.5 1728,-157.5 1516,-157.5"/>
<text text-anchor="start" x="1520" y="-165.3" font-family="Times New Roman,serif" font-weight="bold" font-size="14.00">DataServiceConfigurationForm()</text>
<polygon fill="none" stroke="black" points="1516,-136.5 1516,-157.5 1728,-157.5 1728,-136.5 1516,-136.5"/>
<text text-anchor="start" x="1533.5" y="-144.3" font-family="Times New Roman,serif" font-weight="bold" font-size="14.00">validateaccountinformation()</text>
<polygon fill="none" stroke="black" points="1516,-115.5 1516,-136.5 1728,-136.5 1728,-115.5 1516,-115.5"/>
<text text-anchor="start" x="1544" y="-123.3" font-family="Times New Roman,serif" font-weight="bold" font-size="14.00">Receivenotificationpage()</text>
<polygon fill="none" stroke="black" points="1516,-94.5 1516,-115.5 1728,-115.5 1728,-94.5 1516,-94.5"/>
<text text-anchor="start" x="1572" y="-102.3" font-family="Times New Roman,serif" font-weight="bold" font-size="14.00">dataservicesdb()</text>
<polygon fill="none" stroke="black" points="1516,-73.5 1516,-94.5 1728,-94.5 1728,-73.5 1516,-73.5"/>
<text text-anchor="start" x="1536" y="-81.3" font-family="Times New Roman,serif" font-weight="bold" font-size="14.00">SubscribeDataserivcepage()</text>
<polygon fill="none" stroke="black" points="1515,-72.5 1515,-284.5 1729,-284.5 1729,-72.5 1515,-72.5"/>
</g>
<!-- EAID_C6CA01B0_6B98_4097_8318_1B3A172EC54D -->
<g id="node13" class="node"><title>EAID_C6CA01B0_6B98_4097_8318_1B3A172EC54D</title>
<polygon fill="none" stroke="black" points="547,-251.5 547,-272.5 983,-272.5 983,-251.5 547,-251.5"/>
<text text-anchor="start" x="654" y="-259.3" font-family="Times New Roman,serif" font-weight="bold" font-size="14.00">Sensor Product Configuration Form</text>
<polygon fill="none" stroke="black" points="547,-230.5 547,-251.5 983,-251.5 983,-230.5 547,-230.5"/>
<text text-anchor="start" x="696.5" y="-238.3" font-family="Times New Roman,serif" font-weight="bold" font-size="14.00">EAJava_string Config</text>
<polygon fill="none" stroke="black" points="547,-209.5 547,-230.5 983,-230.5 983,-209.5 547,-209.5"/>
<text text-anchor="start" x="707" y="-217.3" font-family="Times New Roman,serif" font-weight="bold" font-size="14.00">EAJava_date Date</text>
<polygon fill="none" stroke="black" points="547,-188.5 547,-209.5 983,-209.5 983,-188.5 547,-188.5"/>
<text text-anchor="start" x="704.5" y="-196.3" font-family="Times New Roman,serif" font-weight="bold" font-size="14.00">EAJava_float Price</text>
<polygon fill="none" stroke="black" points="547,-167.5 547,-188.5 983,-188.5 983,-167.5 547,-167.5"/>
<text text-anchor="start" x="700" y="-175.3" font-family="Times New Roman,serif" font-weight="bold" font-size="14.00">EAJava_int Quantity</text>
<polygon fill="none" stroke="black" points="547,-146.5 547,-167.5 983,-167.5 983,-146.5 547,-146.5"/>
<text text-anchor="start" x="673.5" y="-154.3" font-family="Times New Roman,serif" font-weight="bold" font-size="14.00">EAJava_int SensorProductID</text>
<polygon fill="none" stroke="black" points="547,-125.5 547,-146.5 983,-146.5 983,-125.5 547,-125.5"/>
<text text-anchor="start" x="704.5" y="-133.3" font-family="Times New Roman,serif" font-weight="bold" font-size="14.00">EAJava_int UserID</text>
<polygon fill="none" stroke="black" points="547,-104.5 547,-125.5 983,-125.5 983,-104.5 547,-104.5"/>
<text text-anchor="start" x="655" y="-112.3" font-family="Times New Roman,serif" font-weight="bold" font-size="14.00">SensorProductConfigurationForm()</text>
<polygon fill="none" stroke="black" points="547,-83.5 547,-104.5 983,-104.5 983,-83.5 547,-83.5"/>
<text text-anchor="start" x="550" y="-91.3" font-family="Times New Roman,serif" font-weight="bold" font-size="14.00">validateauthenticationinformationandchecksthevalidationofthesensor()</text>
<polygon fill="none" stroke="black" points="546,-83 546,-274 984,-274 984,-83 546,-83"/>
</g>
<!-- EAID_A1F4873A_C405_42a7_85F0_0AFD7AF6FD35 -->
<g id="node14" class="node"><title>EAID_A1F4873A_C405_42a7_85F0_0AFD7AF6FD35</title>
<polygon fill="none" stroke="black" points="294,-251.5 294,-272.5 511,-272.5 511,-251.5 294,-251.5"/>
<text text-anchor="start" x="361" y="-259.3" font-family="Times New Roman,serif" font-weight="bold" font-size="14.00">User Account</text>
<polygon fill="none" stroke="black" points="294,-230.5 294,-251.5 511,-251.5 511,-230.5 294,-230.5"/>
<text text-anchor="start" x="322.5" y="-238.3" font-family="Times New Roman,serif" font-weight="bold" font-size="14.00">EAJava_string UserEmail</text>
<polygon fill="none" stroke="black" points="294,-209.5 294,-230.5 511,-230.5 511,-209.5 294,-209.5"/>
<text text-anchor="start" x="322.5" y="-217.3" font-family="Times New Roman,serif" font-weight="bold" font-size="14.00">EAJava_string UserName</text>
<polygon fill="none" stroke="black" points="294,-188.5 294,-209.5 511,-209.5 511,-188.5 294,-188.5"/>
<text text-anchor="start" x="310.5" y="-196.3" font-family="Times New Roman,serif" font-weight="bold" font-size="14.00">EAJava_string UserPassword</text>
<polygon fill="none" stroke="black" points="294,-167.5 294,-188.5 511,-188.5 511,-167.5 294,-167.5"/>
<text text-anchor="start" x="297" y="-175.3" font-family="Times New Roman,serif" font-weight="bold" font-size="14.00">EAJava_date UserRegisteredDate</text>
<polygon fill="none" stroke="black" points="294,-146.5 294,-167.5 511,-167.5 511,-146.5 294,-146.5"/>
<text text-anchor="start" x="325" y="-154.3" font-family="Times New Roman,serif" font-weight="bold" font-size="14.00">EAJava_string UserType</text>
<polygon fill="none" stroke="black" points="294,-125.5 294,-146.5 511,-146.5 511,-125.5 294,-125.5"/>
<text text-anchor="start" x="358.5" y="-133.3" font-family="Times New Roman,serif" font-weight="bold" font-size="14.00">UserAccount()</text>
<polygon fill="none" stroke="black" points="294,-104.5 294,-125.5 511,-125.5 511,-104.5 294,-104.5"/>
<text text-anchor="start" x="338" y="-112.3" font-family="Times New Roman,serif" font-weight="bold" font-size="14.00">Createaccountpage()</text>
<polygon fill="none" stroke="black" points="294,-83.5 294,-104.5 511,-104.5 511,-83.5 294,-83.5"/>
<text text-anchor="start" x="367.5" y="-91.3" font-family="Times New Roman,serif" font-weight="bold" font-size="14.00">contentdb()</text>
<polygon fill="none" stroke="black" points="292.5,-83 292.5,-274 511.5,-274 511.5,-83 292.5,-83"/>
</g>
</g>
</svg>
