<?xml version="1.0" encoding="UTF-8" standalone="no"?>
<!DOCTYPE svg PUBLIC "-//W3C//DTD SVG 1.1//EN"
 "http://www.w3.org/Graphics/SVG/1.1/DTD/svg11.dtd">
<!-- Generated by graphviz version 2.38.0 (20140413.2041)
 -->
<!-- Title: g Pages: 1 -->
<svg width="2254pt" height="961pt"
 viewBox="0.00 0.00 2254.27 961.00" xmlns="http://www.w3.org/2000/svg" xmlns:xlink="http://www.w3.org/1999/xlink">
<g id="graph0" class="graph" transform="scale(1 1) rotate(0) translate(4 957)">
<title>g</title>
<polygon fill="white" stroke="none" points="-4,4 -4,-957 2250.27,-957 2250.27,4 -4,4"/>
<g id="clust1" class="cluster"><title>cluster0</title>
<polygon fill="none" stroke="black" stroke-width="2" points="210.266,-64 210.266,-783 728.266,-783 728.266,-64 210.266,-64"/>
<text text-anchor="start" x="447.266" y="-768.8" font-family="Times New Roman,serif" font-weight="bold" font-size="14.00">System</text>
</g>
<g id="clust2" class="cluster"><title>cluster1</title>
<polygon fill="none" stroke="black" stroke-width="2" points="212.266,-823 212.266,-913 857.266,-913 857.266,-823 212.266,-823"/>
<text text-anchor="start" x="502.266" y="-898.8" font-family="Times New Roman,serif" font-weight="bold" font-size="14.00">contractor</text>
</g>
<g id="clust3" class="cluster"><title>cluster1000</title>
<polygon fill="none" stroke="black" stroke-width="2" points="865.266,-791 865.266,-945 2238.27,-945 2238.27,-791 865.266,-791"/>
<text text-anchor="start" x="1506.27" y="-930.8" font-family="Times New Roman,serif" font-weight="bold" font-size="14.00">Domain Model</text>
</g>
<!-- EAID_837BB166_D7D9_47d1_9A4B_0EBFC9A20C0D___EAID_9DEA81C7_9A96_470e_A189_B2DEAB8A2C2C -->
<g id="node1" class="node"><title>EAID_837BB166_D7D9_47d1_9A4B_0EBFC9A20C0D___EAID_9DEA81C7_9A96_470e_A189_B2DEAB8A2C2C</title>
<image xlink:href="img/activity_icon.png" width="30px" height="20px" preserveAspectRatio="xMinYMin meet" x="608.266" y="-545"/>
<text text-anchor="start" x="546.266" y="-510.8" font-family="Times New Roman,serif" font-weight="bold" font-size="14.00">contractor:all players list</text>
</g>
<!-- EAID_9DEA81C7_9A96_470e_A189_B2DEAB8A2C2C___EAID_F7D962F8_54EE_4284_A931_719089695313 -->
<g id="node6" class="node"><title>EAID_9DEA81C7_9A96_470e_A189_B2DEAB8A2C2C___EAID_F7D962F8_54EE_4284_A931_719089695313</title>
<image xlink:href="img/activity_icon.png" width="30px" height="20px" preserveAspectRatio="xMinYMin meet" x="429.266" y="-445"/>
<text text-anchor="start" x="382.266" y="-410.8" font-family="Times New Roman,serif" font-weight="bold" font-size="14.00">all players list:query</text>
<text text-anchor="start" x="398.766" y="-396.8" font-family="Times New Roman,serif" font-weight="bold" font-size="14.00">attribute list of</text>
<text text-anchor="start" x="419.266" y="-382.8" font-family="Times New Roman,serif" font-weight="bold" font-size="14.00">a player</text>
</g>
<!-- EAID_837BB166_D7D9_47d1_9A4B_0EBFC9A20C0D___EAID_9DEA81C7_9A96_470e_A189_B2DEAB8A2C2C&#45;&gt;EAID_9DEA81C7_9A96_470e_A189_B2DEAB8A2C2C___EAID_F7D962F8_54EE_4284_A931_719089695313 -->
<g id="edge1" class="edge"><title>EAID_837BB166_D7D9_47d1_9A4B_0EBFC9A20C0D___EAID_9DEA81C7_9A96_470e_A189_B2DEAB8A2C2C&#45;&gt;EAID_9DEA81C7_9A96_470e_A189_B2DEAB8A2C2C___EAID_F7D962F8_54EE_4284_A931_719089695313</title>
<path fill="none" stroke="black" d="M583.984,-500.421C563.453,-487.575 537.709,-471.467 513.931,-456.589"/>
<polygon fill="black" stroke="black" points="515.607,-453.509 505.274,-451.172 511.894,-459.443 515.607,-453.509"/>
</g>
<!-- EAID_9DEA81C7_9A96_470e_A189_B2DEAB8A2C2C -->
<g id="node22" class="node"><title>EAID_9DEA81C7_9A96_470e_A189_B2DEAB8A2C2C</title>
<text text-anchor="middle" x="190.266" y="-14.3" font-family="Times New Roman,serif" font-size="14.00">EAID_9DEA81C7_9A96_470e_A189_B2DEAB8A2C2C</text>
</g>
<!-- EAID_837BB166_D7D9_47d1_9A4B_0EBFC9A20C0D___EAID_9DEA81C7_9A96_470e_A189_B2DEAB8A2C2C&#45;&gt;EAID_9DEA81C7_9A96_470e_A189_B2DEAB8A2C2C -->
<g id="edge14" class="edge"><title>EAID_837BB166_D7D9_47d1_9A4B_0EBFC9A20C0D___EAID_9DEA81C7_9A96_470e_A189_B2DEAB8A2C2C&#45;&gt;EAID_9DEA81C7_9A96_470e_A189_B2DEAB8A2C2C</title>
<path fill="none" stroke="black" stroke-dasharray="5,2" d="M565.053,-500.498C552.395,-495.65 538.984,-490.87 526.266,-487 348.282,-432.844 152.266,-485.041 152.266,-299 152.266,-299 152.266,-299 152.266,-190 152.266,-137.91 169.277,-78.9754 180.536,-45.673"/>
<polygon fill="black" stroke="black" points="183.852,-46.7914 183.82,-36.1966 177.238,-44.4991 183.852,-46.7914"/>
</g>
<!-- EAID_837BB166_D7D9_47d1_9A4B_0EBFC9A20C0D___EAID_9A507B35_8EBF_443f_B690_ACEE45052067 -->
<g id="node2" class="node"><title>EAID_837BB166_D7D9_47d1_9A4B_0EBFC9A20C0D___EAID_9A507B35_8EBF_443f_B690_ACEE45052067</title>
<image xlink:href="img/activity_icon.png" width="30px" height="20px" preserveAspectRatio="xMinYMin meet" x="294.266" y="-745.5"/>
<text text-anchor="start" x="241.266" y="-711.3" font-family="Times New Roman,serif" font-weight="bold" font-size="14.00">contractor:players tab</text>
</g>
<!-- EAID_9A507B35_8EBF_443f_B690_ACEE45052067___EAID_431F536E_13D0_4c38_A2F1_CDB851540B28 -->
<g id="node11" class="node"><title>EAID_9A507B35_8EBF_443f_B690_ACEE45052067___EAID_431F536E_13D0_4c38_A2F1_CDB851540B28</title>
<image xlink:href="img/activity_icon.png" width="30px" height="20px" preserveAspectRatio="xMinYMin meet" x="295.766" y="-659"/>
<text text-anchor="start" x="229.266" y="-624.8" font-family="Times New Roman,serif" font-weight="bold" font-size="14.00">players tab:query crawling</text>
<text text-anchor="start" x="269.766" y="-610.8" font-family="Times New Roman,serif" font-weight="bold" font-size="14.00">list of players</text>
</g>
<!-- EAID_837BB166_D7D9_47d1_9A4B_0EBFC9A20C0D___EAID_9A507B35_8EBF_443f_B690_ACEE45052067&#45;&gt;EAID_9A507B35_8EBF_443f_B690_ACEE45052067___EAID_431F536E_13D0_4c38_A2F1_CDB851540B28 -->
<g id="edge3" class="edge"><title>EAID_837BB166_D7D9_47d1_9A4B_0EBFC9A20C0D___EAID_9A507B35_8EBF_443f_B690_ACEE45052067&#45;&gt;EAID_9A507B35_8EBF_443f_B690_ACEE45052067___EAID_431F536E_13D0_4c38_A2F1_CDB851540B28</title>
<path fill="none" stroke="black" d="M309.534,-700.98C309.621,-693.066 309.719,-684.063 309.815,-675.281"/>
<polygon fill="black" stroke="black" points="313.316,-675.191 309.926,-665.153 306.317,-675.114 313.316,-675.191"/>
</g>
<!-- EAID_837BB166_D7D9_47d1_9A4B_0EBFC9A20C0D___EAID_9A507B35_8EBF_443f_B690_ACEE45052067&#45;&gt;EAID_9DEA81C7_9A96_470e_A189_B2DEAB8A2C2C -->
<g id="edge15" class="edge"><title>EAID_837BB166_D7D9_47d1_9A4B_0EBFC9A20C0D___EAID_9A507B35_8EBF_443f_B690_ACEE45052067&#45;&gt;EAID_9DEA81C7_9A96_470e_A189_B2DEAB8A2C2C</title>
<path fill="none" stroke="black" stroke-dasharray="5,2" d="M230.893,-710.736C139.349,-688.426 0.266318,-636.51 0.266318,-527 0.266318,-527 0.266318,-527 0.266318,-190 0.266318,-131.635 -3.99478,-105.279 37.2663,-64 47.1893,-54.0727 59.1822,-46.3125 72.0361,-40.2504"/>
<polygon fill="black" stroke="black" points="73.7507,-43.3217 81.5305,-36.1296 70.9637,-36.9004 73.7507,-43.3217"/>
</g>
<!-- EAID_837BB166_D7D9_47d1_9A4B_0EBFC9A20C0D___EAID_D5914F5E_AB8C_4326_BD4B_10D1A0236E0D -->
<g id="node3" class="node"><title>EAID_837BB166_D7D9_47d1_9A4B_0EBFC9A20C0D___EAID_D5914F5E_AB8C_4326_BD4B_10D1A0236E0D</title>
<image xlink:href="img/activity_icon.png" width="30px" height="20px" preserveAspectRatio="xMinYMin meet" x="454.266" y="-317"/>
<text text-anchor="start" x="380.266" y="-282.8" font-family="Times New Roman,serif" font-weight="bold" font-size="14.00">contractor:player detail page</text>
</g>
<!-- EAID_D5914F5E_AB8C_4326_BD4B_10D1A0236E0D___EAID_6B2983D0_44B0_47d9_8172_9CFA9C69332F -->
<g id="node5" class="node"><title>EAID_D5914F5E_AB8C_4326_BD4B_10D1A0236E0D___EAID_6B2983D0_44B0_47d9_8172_9CFA9C69332F</title>
<image xlink:href="img/activity_icon.png" width="30px" height="20px" preserveAspectRatio="xMinYMin meet" x="398.266" y="-217"/>
<text text-anchor="start" x="345.266" y="-182.8" font-family="Times New Roman,serif" font-weight="bold" font-size="14.00">player detail page:add</text>
<text text-anchor="start" x="393.766" y="-168.8" font-family="Times New Roman,serif" font-weight="bold" font-size="14.00">player</text>
</g>
<!-- EAID_837BB166_D7D9_47d1_9A4B_0EBFC9A20C0D___EAID_D5914F5E_AB8C_4326_BD4B_10D1A0236E0D&#45;&gt;EAID_D5914F5E_AB8C_4326_BD4B_10D1A0236E0D___EAID_6B2983D0_44B0_47d9_8172_9CFA9C69332F -->
<g id="edge5" class="edge"><title>EAID_837BB166_D7D9_47d1_9A4B_0EBFC9A20C0D___EAID_D5914F5E_AB8C_4326_BD4B_10D1A0236E0D&#45;&gt;EAID_D5914F5E_AB8C_4326_BD4B_10D1A0236E0D___EAID_6B2983D0_44B0_47d9_8172_9CFA9C69332F</title>
<path fill="none" stroke="black" d="M456.137,-272.382C449.78,-260.464 441.983,-245.845 434.79,-232.357"/>
<polygon fill="black" stroke="black" points="437.726,-230.423 429.931,-223.247 431.549,-233.718 437.726,-230.423"/>
</g>
<!-- EAID_837BB166_D7D9_47d1_9A4B_0EBFC9A20C0D___EAID_D5914F5E_AB8C_4326_BD4B_10D1A0236E0D&#45;&gt;EAID_9DEA81C7_9A96_470e_A189_B2DEAB8A2C2C -->
<g id="edge16" class="edge"><title>EAID_837BB166_D7D9_47d1_9A4B_0EBFC9A20C0D___EAID_D5914F5E_AB8C_4326_BD4B_10D1A0236E0D&#45;&gt;EAID_9DEA81C7_9A96_470e_A189_B2DEAB8A2C2C</title>
<path fill="none" stroke="black" stroke-dasharray="5,2" d="M404.465,-272.438C378.165,-260.309 348.752,-243.768 326.266,-223 265.114,-166.518 275.806,-131.629 227.266,-64 222.456,-57.2981 216.955,-50.2988 211.692,-43.8719"/>
<polygon fill="black" stroke="black" points="214.311,-41.5475 205.222,-36.1029 208.932,-46.027 214.311,-41.5475"/>
</g>
<!-- EAID_6B2983D0_44B0_47d9_8172_9CFA9C69332F___EAID_2E62EF73_341F_4b07_9216_1835D503EB6A -->
<g id="node4" class="node"><title>EAID_6B2983D0_44B0_47d9_8172_9CFA9C69332F___EAID_2E62EF73_341F_4b07_9216_1835D503EB6A</title>
<image xlink:href="img/activity_icon.png" width="30px" height="20px" preserveAspectRatio="xMinYMin meet" x="343.766" y="-116.5"/>
<text text-anchor="start" x="305.266" y="-82.3" font-family="Times New Roman,serif" font-weight="bold" font-size="14.00">add player:player</text>
</g>
<!-- EAID_6B2983D0_44B0_47d9_8172_9CFA9C69332F___EAID_2E62EF73_341F_4b07_9216_1835D503EB6A&#45;&gt;EAID_9DEA81C7_9A96_470e_A189_B2DEAB8A2C2C -->
<g id="edge17" class="edge"><title>EAID_6B2983D0_44B0_47d9_8172_9CFA9C69332F___EAID_2E62EF73_341F_4b07_9216_1835D503EB6A&#45;&gt;EAID_9DEA81C7_9A96_470e_A189_B2DEAB8A2C2C</title>
<path fill="none" stroke="black" stroke-dasharray="5,2" d="M305.11,-71.9785C283.003,-61.7804 257.586,-50.0553 236.293,-40.2325"/>
<polygon fill="black" stroke="black" points="237.681,-37.0185 227.135,-36.0077 234.749,-43.3748 237.681,-37.0185"/>
</g>
<!-- EAID_D5914F5E_AB8C_4326_BD4B_10D1A0236E0D___EAID_6B2983D0_44B0_47d9_8172_9CFA9C69332F&#45;&gt;EAID_6B2983D0_44B0_47d9_8172_9CFA9C69332F___EAID_2E62EF73_341F_4b07_9216_1835D503EB6A -->
<g id="edge7" class="edge"><title>EAID_D5914F5E_AB8C_4326_BD4B_10D1A0236E0D___EAID_6B2983D0_44B0_47d9_8172_9CFA9C69332F&#45;&gt;EAID_6B2983D0_44B0_47d9_8172_9CFA9C69332F___EAID_2E62EF73_341F_4b07_9216_1835D503EB6A</title>
<path fill="none" stroke="black" d="M394.492,-158.767C389.319,-150.16 383.685,-140.788 378.436,-132.056"/>
<polygon fill="black" stroke="black" points="381.293,-130.014 373.141,-123.246 375.293,-133.62 381.293,-130.014"/>
</g>
<!-- EAID_D5914F5E_AB8C_4326_BD4B_10D1A0236E0D___EAID_6B2983D0_44B0_47d9_8172_9CFA9C69332F&#45;&gt;EAID_9DEA81C7_9A96_470e_A189_B2DEAB8A2C2C -->
<g id="edge18" class="edge"><title>EAID_D5914F5E_AB8C_4326_BD4B_10D1A0236E0D___EAID_6B2983D0_44B0_47d9_8172_9CFA9C69332F&#45;&gt;EAID_9DEA81C7_9A96_470e_A189_B2DEAB8A2C2C</title>
<path fill="none" stroke="black" stroke-dasharray="5,2" d="M429.32,-158.932C441.275,-130.965 452.116,-90.3276 430.266,-64 420.64,-52.4005 397.841,-43.773 369.931,-37.3613"/>
<polygon fill="black" stroke="black" points="370.373,-33.876 359.859,-35.1845 368.894,-40.718 370.373,-33.876"/>
</g>
<!-- EAID_F7D962F8_54EE_4284_A931_719089695313___EAID_2E62EF73_341F_4b07_9216_1835D503EB6A -->
<g id="node8" class="node"><title>EAID_F7D962F8_54EE_4284_A931_719089695313___EAID_2E62EF73_341F_4b07_9216_1835D503EB6A</title>
<image xlink:href="img/activity_icon.png" width="30px" height="20px" preserveAspectRatio="xMinYMin meet" x="638.766" y="-324"/>
<text text-anchor="start" x="597.266" y="-289.8" font-family="Times New Roman,serif" font-weight="bold" font-size="14.00">query attribute list</text>
<text text-anchor="start" x="599.766" y="-275.8" font-family="Times New Roman,serif" font-weight="bold" font-size="14.00">of a player:player</text>
</g>
<!-- EAID_9DEA81C7_9A96_470e_A189_B2DEAB8A2C2C___EAID_F7D962F8_54EE_4284_A931_719089695313&#45;&gt;EAID_F7D962F8_54EE_4284_A931_719089695313___EAID_2E62EF73_341F_4b07_9216_1835D503EB6A -->
<g id="edge8" class="edge"><title>EAID_9DEA81C7_9A96_470e_A189_B2DEAB8A2C2C___EAID_F7D962F8_54EE_4284_A931_719089695313&#45;&gt;EAID_F7D962F8_54EE_4284_A931_719089695313___EAID_2E62EF73_341F_4b07_9216_1835D503EB6A</title>
<path fill="none" stroke="black" d="M515.316,-372.926C538.299,-360.609 563.696,-346.999 586.369,-334.85"/>
<polygon fill="black" stroke="black" points="588.08,-337.903 595.241,-330.095 584.774,-331.733 588.08,-337.903"/>
</g>
<!-- EAID_F7D962F8_54EE_4284_A931_719089695313___EAID_D5914F5E_AB8C_4326_BD4B_10D1A0236E0D -->
<g id="node10" class="node"><title>EAID_F7D962F8_54EE_4284_A931_719089695313___EAID_D5914F5E_AB8C_4326_BD4B_10D1A0236E0D</title>
<image xlink:href="img/activity_icon.png" width="30px" height="20px" preserveAspectRatio="xMinYMin meet" x="270.766" y="-331"/>
<text text-anchor="start" x="229.266" y="-296.8" font-family="Times New Roman,serif" font-weight="bold" font-size="14.00">query attribute list</text>
<text text-anchor="start" x="231.766" y="-282.8" font-family="Times New Roman,serif" font-weight="bold" font-size="14.00">of a player:player</text>
<text text-anchor="start" x="252.266" y="-268.8" font-family="Times New Roman,serif" font-weight="bold" font-size="14.00">detail page</text>
</g>
<!-- EAID_9DEA81C7_9A96_470e_A189_B2DEAB8A2C2C___EAID_F7D962F8_54EE_4284_A931_719089695313&#45;&gt;EAID_F7D962F8_54EE_4284_A931_719089695313___EAID_D5914F5E_AB8C_4326_BD4B_10D1A0236E0D -->
<g id="edge9" class="edge"><title>EAID_9DEA81C7_9A96_470e_A189_B2DEAB8A2C2C___EAID_F7D962F8_54EE_4284_A931_719089695313&#45;&gt;EAID_F7D962F8_54EE_4284_A931_719089695313___EAID_D5914F5E_AB8C_4326_BD4B_10D1A0236E0D</title>
<path fill="none" stroke="black" d="M389.992,-372.769C376.433,-363.218 361.782,-352.898 347.856,-343.089"/>
<polygon fill="black" stroke="black" points="349.487,-339.956 339.296,-337.058 345.456,-345.679 349.487,-339.956"/>
</g>
<!-- EAID_9DEA81C7_9A96_470e_A189_B2DEAB8A2C2C___EAID_F7D962F8_54EE_4284_A931_719089695313&#45;&gt;EAID_9DEA81C7_9A96_470e_A189_B2DEAB8A2C2C -->
<g id="edge19" class="edge"><title>EAID_9DEA81C7_9A96_470e_A189_B2DEAB8A2C2C___EAID_F7D962F8_54EE_4284_A931_719089695313&#45;&gt;EAID_9DEA81C7_9A96_470e_A189_B2DEAB8A2C2C</title>
<path fill="none" stroke="black" stroke-dasharray="5,2" d="M372.115,-408.963C318.234,-403.259 247.557,-386.062 209.266,-337 174.302,-292.2 183.229,-114.402 188.111,-46.0058"/>
<polygon fill="black" stroke="black" points="191.604,-46.2366 188.853,-36.0051 184.623,-45.719 191.604,-46.2366"/>
</g>
<!-- EAID_431F536E_13D0_4c38_A2F1_CDB851540B28___EAID_9DEA81C7_9A96_470e_A189_B2DEAB8A2C2C -->
<g id="node7" class="node"><title>EAID_431F536E_13D0_4c38_A2F1_CDB851540B28___EAID_9DEA81C7_9A96_470e_A189_B2DEAB8A2C2C</title>
<image xlink:href="img/activity_icon.png" width="30px" height="20px" preserveAspectRatio="xMinYMin meet" x="429.766" y="-559"/>
<text text-anchor="start" x="387.766" y="-524.8" font-family="Times New Roman,serif" font-weight="bold" font-size="14.00">query crawling list</text>
<text text-anchor="start" x="381.266" y="-510.8" font-family="Times New Roman,serif" font-weight="bold" font-size="14.00">of players:all players</text>
<text text-anchor="start" x="435.266" y="-496.8" font-family="Times New Roman,serif" font-weight="bold" font-size="14.00">list</text>
</g>
<!-- EAID_431F536E_13D0_4c38_A2F1_CDB851540B28___EAID_9DEA81C7_9A96_470e_A189_B2DEAB8A2C2C&#45;&gt;EAID_9DEA81C7_9A96_470e_A189_B2DEAB8A2C2C___EAID_F7D962F8_54EE_4284_A931_719089695313 -->
<g id="edge10" class="edge"><title>EAID_431F536E_13D0_4c38_A2F1_CDB851540B28___EAID_9DEA81C7_9A96_470e_A189_B2DEAB8A2C2C&#45;&gt;EAID_9DEA81C7_9A96_470e_A189_B2DEAB8A2C2C___EAID_F7D962F8_54EE_4284_A931_719089695313</title>
<path fill="none" stroke="black" d="M444.266,-486.769C444.266,-478.57 444.266,-469.803 444.266,-461.28"/>
<polygon fill="black" stroke="black" points="447.766,-461.058 444.266,-451.058 440.766,-461.059 447.766,-461.058"/>
</g>
<!-- EAID_431F536E_13D0_4c38_A2F1_CDB851540B28___EAID_9DEA81C7_9A96_470e_A189_B2DEAB8A2C2C&#45;&gt;EAID_9DEA81C7_9A96_470e_A189_B2DEAB8A2C2C -->
<g id="edge20" class="edge"><title>EAID_431F536E_13D0_4c38_A2F1_CDB851540B28___EAID_9DEA81C7_9A96_470e_A189_B2DEAB8A2C2C&#45;&gt;EAID_9DEA81C7_9A96_470e_A189_B2DEAB8A2C2C</title>
<path fill="none" stroke="black" stroke-dasharray="5,2" d="M370.44,-490.007C367.365,-488.929 364.299,-487.921 361.266,-487 265.2,-457.84 209.133,-522.112 138.266,-451 89.9891,-402.556 114.266,-367.392 114.266,-299 114.266,-299 114.266,-299 114.266,-190 114.266,-132.993 109.801,-113.391 138.266,-64 142.765,-56.1936 149.131,-49.079 155.872,-42.9268"/>
<polygon fill="black" stroke="black" points="158.493,-45.2935 163.867,-36.1629 153.972,-39.9492 158.493,-45.2935"/>
</g>
<!-- EAID_F7D962F8_54EE_4284_A931_719089695313___EAID_2E62EF73_341F_4b07_9216_1835D503EB6A&#45;&gt;EAID_9DEA81C7_9A96_470e_A189_B2DEAB8A2C2C -->
<g id="edge21" class="edge"><title>EAID_F7D962F8_54EE_4284_A931_719089695313___EAID_2E62EF73_341F_4b07_9216_1835D503EB6A&#45;&gt;EAID_9DEA81C7_9A96_470e_A189_B2DEAB8A2C2C</title>
<path fill="none" stroke="black" stroke-dasharray="5,2" d="M635.914,-265.653C605.692,-214.299 538.228,-113.059 451.266,-64 432.55,-53.4414 392.708,-44.594 349.661,-37.616"/>
<polygon fill="black" stroke="black" points="349.975,-34.1223 339.551,-36.0194 348.883,-41.0366 349.975,-34.1223"/>
</g>
<!-- EAID_431F536E_13D0_4c38_A2F1_CDB851540B28___EAID_2E62EF73_341F_4b07_9216_1835D503EB6A -->
<g id="node9" class="node"><title>EAID_431F536E_13D0_4c38_A2F1_CDB851540B28___EAID_2E62EF73_341F_4b07_9216_1835D503EB6A</title>
<image xlink:href="img/activity_icon.png" width="30px" height="20px" preserveAspectRatio="xMinYMin meet" x="270.266" y="-552"/>
<text text-anchor="start" x="228.266" y="-517.8" font-family="Times New Roman,serif" font-weight="bold" font-size="14.00">query crawling list</text>
<text text-anchor="start" x="233.766" y="-503.8" font-family="Times New Roman,serif" font-weight="bold" font-size="14.00">of players:player</text>
</g>
<!-- EAID_431F536E_13D0_4c38_A2F1_CDB851540B28___EAID_2E62EF73_341F_4b07_9216_1835D503EB6A&#45;&gt;EAID_9DEA81C7_9A96_470e_A189_B2DEAB8A2C2C -->
<g id="edge22" class="edge"><title>EAID_431F536E_13D0_4c38_A2F1_CDB851540B28___EAID_2E62EF73_341F_4b07_9216_1835D503EB6A&#45;&gt;EAID_9DEA81C7_9A96_470e_A189_B2DEAB8A2C2C</title>
<path fill="none" stroke="black" stroke-dasharray="5,2" d="M218.056,-515.073C177.773,-505.532 128.961,-486.963 100.266,-451 57.6111,-397.539 76.2663,-367.392 76.2663,-299 76.2663,-299 76.2663,-299 76.2663,-190 76.2663,-132.993 65.8717,-109.462 100.266,-64 107.43,-54.531 117.134,-46.9179 127.525,-40.8428"/>
<polygon fill="black" stroke="black" points="129.217,-43.9069 136.373,-36.0944 125.907,-37.7389 129.217,-43.9069"/>
</g>
<!-- EAID_F7D962F8_54EE_4284_A931_719089695313___EAID_D5914F5E_AB8C_4326_BD4B_10D1A0236E0D&#45;&gt;EAID_D5914F5E_AB8C_4326_BD4B_10D1A0236E0D___EAID_6B2983D0_44B0_47d9_8172_9CFA9C69332F -->
<g id="edge11" class="edge"><title>EAID_F7D962F8_54EE_4284_A931_719089695313___EAID_D5914F5E_AB8C_4326_BD4B_10D1A0236E0D&#45;&gt;EAID_D5914F5E_AB8C_4326_BD4B_10D1A0236E0D___EAID_6B2983D0_44B0_47d9_8172_9CFA9C69332F</title>
<path fill="none" stroke="black" d="M331.839,-258.796C343.455,-249.267 355.9,-239.058 367.477,-229.561"/>
<polygon fill="black" stroke="black" points="369.821,-232.165 375.333,-223.117 365.382,-226.753 369.821,-232.165"/>
</g>
<!-- EAID_F7D962F8_54EE_4284_A931_719089695313___EAID_D5914F5E_AB8C_4326_BD4B_10D1A0236E0D&#45;&gt;EAID_9DEA81C7_9A96_470e_A189_B2DEAB8A2C2C -->
<g id="edge23" class="edge"><title>EAID_F7D962F8_54EE_4284_A931_719089695313___EAID_D5914F5E_AB8C_4326_BD4B_10D1A0236E0D&#45;&gt;EAID_9DEA81C7_9A96_470e_A189_B2DEAB8A2C2C</title>
<path fill="none" stroke="black" stroke-dasharray="5,2" d="M267.205,-258.974C262.072,-247.533 256.683,-234.865 252.266,-223 226.516,-153.82 225.897,-134.576 204.266,-64 202.454,-58.0865 200.491,-51.7417 198.625,-45.7358"/>
<polygon fill="black" stroke="black" points="201.934,-44.591 195.619,-36.0843 195.251,-46.6728 201.934,-44.591"/>
</g>
<!-- EAID_9A507B35_8EBF_443f_B690_ACEE45052067___EAID_431F536E_13D0_4c38_A2F1_CDB851540B28&#45;&gt;EAID_431F536E_13D0_4c38_A2F1_CDB851540B28___EAID_9DEA81C7_9A96_470e_A189_B2DEAB8A2C2C -->
<g id="edge12" class="edge"><title>EAID_9A507B35_8EBF_443f_B690_ACEE45052067___EAID_431F536E_13D0_4c38_A2F1_CDB851540B28&#45;&gt;EAID_431F536E_13D0_4c38_A2F1_CDB851540B28___EAID_9DEA81C7_9A96_470e_A189_B2DEAB8A2C2C</title>
<path fill="none" stroke="black" d="M350.108,-600.781C361.752,-591.656 374.714,-581.5 387.205,-571.712"/>
<polygon fill="black" stroke="black" points="389.614,-574.271 395.326,-565.348 385.296,-568.761 389.614,-574.271"/>
</g>
<!-- EAID_9A507B35_8EBF_443f_B690_ACEE45052067___EAID_431F536E_13D0_4c38_A2F1_CDB851540B28&#45;&gt;EAID_431F536E_13D0_4c38_A2F1_CDB851540B28___EAID_2E62EF73_341F_4b07_9216_1835D503EB6A -->
<g id="edge13" class="edge"><title>EAID_9A507B35_8EBF_443f_B690_ACEE45052067___EAID_431F536E_13D0_4c38_A2F1_CDB851540B28&#45;&gt;EAID_431F536E_13D0_4c38_A2F1_CDB851540B28___EAID_2E62EF73_341F_4b07_9216_1835D503EB6A</title>
<path fill="none" stroke="black" d="M302.833,-600.781C300.387,-590.506 297.629,-578.922 295.035,-568.031"/>
<polygon fill="black" stroke="black" points="298.435,-567.198 292.714,-558.28 291.625,-568.819 298.435,-567.198"/>
</g>
<!-- EAID_9A507B35_8EBF_443f_B690_ACEE45052067___EAID_431F536E_13D0_4c38_A2F1_CDB851540B28&#45;&gt;EAID_9DEA81C7_9A96_470e_A189_B2DEAB8A2C2C -->
<g id="edge24" class="edge"><title>EAID_9A507B35_8EBF_443f_B690_ACEE45052067___EAID_431F536E_13D0_4c38_A2F1_CDB851540B28&#45;&gt;EAID_9DEA81C7_9A96_470e_A189_B2DEAB8A2C2C</title>
<path fill="none" stroke="black" stroke-dasharray="5,2" d="M218.559,-601.309C139.594,-568.405 38.2663,-507.728 38.2663,-413 38.2663,-413 38.2663,-413 38.2663,-190 38.2663,-131.997 33.3696,-107.028 72.2663,-64 81.1708,-54.1498 92.4663,-46.4416 104.523,-40.4133"/>
<polygon fill="black" stroke="black" points="106.238,-43.4774 113.864,-36.1232 103.316,-37.1162 106.238,-43.4774"/>
</g>
<!-- EAID_837BB166_D7D9_47d1_9A4B_0EBFC9A20C0D___EAID_9DEA81C7_9A96_470e_A189_B2DEAB8A2C2C_STL -->
<g id="node12" class="node"><title>EAID_837BB166_D7D9_47d1_9A4B_0EBFC9A20C0D___EAID_9DEA81C7_9A96_470e_A189_B2DEAB8A2C2C_STL</title>
<image xlink:href="img/stimulus_icon.png" width="30px" height="20px" preserveAspectRatio="xMinYMin meet" x="499.766" y="-875.5"/>
<text text-anchor="start" x="427.266" y="-841.3" font-family="Times New Roman,serif" font-weight="bold" font-size="14.00">stl#contractor:all players list</text>
</g>
<!-- EAID_837BB166_D7D9_47d1_9A4B_0EBFC9A20C0D___EAID_9DEA81C7_9A96_470e_A189_B2DEAB8A2C2C_STL&#45;&gt;EAID_837BB166_D7D9_47d1_9A4B_0EBFC9A20C0D___EAID_9DEA81C7_9A96_470e_A189_B2DEAB8A2C2C -->
<g id="edge2" class="edge"><title>EAID_837BB166_D7D9_47d1_9A4B_0EBFC9A20C0D___EAID_9DEA81C7_9A96_470e_A189_B2DEAB8A2C2C_STL&#45;&gt;EAID_837BB166_D7D9_47d1_9A4B_0EBFC9A20C0D___EAID_9DEA81C7_9A96_470e_A189_B2DEAB8A2C2C</title>
<path fill="none" stroke="black" d="M522.459,-830.809C541.72,-772.761 589.91,-627.527 611.948,-561.112"/>
<polygon fill="black" stroke="black" points="615.3,-562.123 615.127,-551.529 608.656,-559.918 615.3,-562.123"/>
</g>
<!-- EAID_837BB166_D7D9_47d1_9A4B_0EBFC9A20C0D___EAID_9A507B35_8EBF_443f_B690_ACEE45052067_STL -->
<g id="node13" class="node"><title>EAID_837BB166_D7D9_47d1_9A4B_0EBFC9A20C0D___EAID_9A507B35_8EBF_443f_B690_ACEE45052067_STL</title>
<image xlink:href="img/stimulus_icon.png" width="30px" height="20px" preserveAspectRatio="xMinYMin meet" x="294.266" y="-875.5"/>
<text text-anchor="start" x="230.266" y="-841.3" font-family="Times New Roman,serif" font-weight="bold" font-size="14.00">stl#contractor:players tab</text>
</g>
<!-- EAID_837BB166_D7D9_47d1_9A4B_0EBFC9A20C0D___EAID_9A507B35_8EBF_443f_B690_ACEE45052067_STL&#45;&gt;EAID_837BB166_D7D9_47d1_9A4B_0EBFC9A20C0D___EAID_9A507B35_8EBF_443f_B690_ACEE45052067 -->
<g id="edge4" class="edge"><title>EAID_837BB166_D7D9_47d1_9A4B_0EBFC9A20C0D___EAID_9A507B35_8EBF_443f_B690_ACEE45052067_STL&#45;&gt;EAID_837BB166_D7D9_47d1_9A4B_0EBFC9A20C0D___EAID_9A507B35_8EBF_443f_B690_ACEE45052067</title>
<path fill="none" stroke="black" d="M309.266,-830.82C309.266,-811.342 309.266,-783.93 309.266,-762.235"/>
<polygon fill="black" stroke="black" points="312.766,-762.104 309.266,-752.104 305.766,-762.104 312.766,-762.104"/>
</g>
<!-- EAID_837BB166_D7D9_47d1_9A4B_0EBFC9A20C0D___EAID_D5914F5E_AB8C_4326_BD4B_10D1A0236E0D_STL -->
<g id="node14" class="node"><title>EAID_837BB166_D7D9_47d1_9A4B_0EBFC9A20C0D___EAID_D5914F5E_AB8C_4326_BD4B_10D1A0236E0D_STL</title>
<image xlink:href="img/stimulus_icon.png" width="30px" height="20px" preserveAspectRatio="xMinYMin meet" x="724.766" y="-875.5"/>
<text text-anchor="start" x="640.266" y="-841.3" font-family="Times New Roman,serif" font-weight="bold" font-size="14.00">stl#contractor:player detail page</text>
</g>
<!-- EAID_837BB166_D7D9_47d1_9A4B_0EBFC9A20C0D___EAID_D5914F5E_AB8C_4326_BD4B_10D1A0236E0D_STL&#45;&gt;EAID_837BB166_D7D9_47d1_9A4B_0EBFC9A20C0D___EAID_D5914F5E_AB8C_4326_BD4B_10D1A0236E0D -->
<g id="edge6" class="edge"><title>EAID_837BB166_D7D9_47d1_9A4B_0EBFC9A20C0D___EAID_D5914F5E_AB8C_4326_BD4B_10D1A0236E0D_STL&#45;&gt;EAID_837BB166_D7D9_47d1_9A4B_0EBFC9A20C0D___EAID_D5914F5E_AB8C_4326_BD4B_10D1A0236E0D</title>
<path fill="none" stroke="black" d="M739.083,-830.917C738.794,-790.045 738.266,-705.527 738.266,-634 738.266,-634 738.266,-634 738.266,-525 738.266,-425.651 629.373,-361.236 550.152,-327.519"/>
<polygon fill="black" stroke="black" points="551.224,-324.174 540.647,-323.559 548.532,-330.636 551.224,-324.174"/>
</g>
<!-- EAID_1E0BA8D7_742B_4848_89A2_14B083ECA484 -->
<g id="node15" class="node"><title>EAID_1E0BA8D7_742B_4848_89A2_14B083ECA484</title>
<polygon fill="none" stroke="black" points="1817.27,-866.5 1817.27,-887.5 2221.27,-887.5 2221.27,-866.5 1817.27,-866.5"/>
<text text-anchor="start" x="1998.27" y="-874.3" font-family="Times New Roman,serif" font-weight="bold" font-size="14.00">Class1</text>
<polygon fill="none" stroke="black" points="1817.27,-845.5 1817.27,-866.5 2221.27,-866.5 2221.27,-845.5 1817.27,-845.5"/>
<text text-anchor="start" x="1820.27" y="-853.3" font-family="Times New Roman,serif" font-weight="bold" font-size="14.00">EAID_94114C7D_FEF8_48dc_A08F_7389C3F560C0 undefined</text>
<polygon fill="none" stroke="black" points="1817.27,-824.5 1817.27,-845.5 2221.27,-845.5 2221.27,-824.5 1817.27,-824.5"/>
<text text-anchor="start" x="1993.77" y="-832.3" font-family="Times New Roman,serif" font-weight="bold" font-size="14.00">Class1()</text>
<polygon fill="none" stroke="black" points="1816.27,-824 1816.27,-889 2222.27,-889 2222.27,-824 1816.27,-824"/>
</g>
<!-- EAID_94114C7D_FEF8_48dc_A08F_7389C3F560C0 -->
<g id="node16" class="node"><title>EAID_94114C7D_FEF8_48dc_A08F_7389C3F560C0</title>
<polygon fill="none" stroke="black" points="1724.27,-856.5 1724.27,-877.5 1781.27,-877.5 1781.27,-856.5 1724.27,-856.5"/>
<text text-anchor="start" x="1731.77" y="-864.3" font-family="Times New Roman,serif" font-weight="bold" font-size="14.00">Class2</text>
<polygon fill="none" stroke="black" points="1724.27,-835.5 1724.27,-856.5 1781.27,-856.5 1781.27,-835.5 1724.27,-835.5"/>
<text text-anchor="start" x="1727.27" y="-843.3" font-family="Times New Roman,serif" font-weight="bold" font-size="14.00">Class2()</text>
<polygon fill="none" stroke="black" points="1722.77,-834.5 1722.77,-878.5 1781.77,-878.5 1781.77,-834.5 1722.77,-834.5"/>
</g>
<!-- EAID_049F1F1F_4AAE_456c_8F08_30AACEB177E4 -->
<g id="node17" class="node"><title>EAID_049F1F1F_4AAE_456c_8F08_30AACEB177E4</title>
<polygon fill="none" stroke="black" points="1631.27,-856.5 1631.27,-877.5 1688.27,-877.5 1688.27,-856.5 1631.27,-856.5"/>
<text text-anchor="start" x="1638.77" y="-864.3" font-family="Times New Roman,serif" font-weight="bold" font-size="14.00">Class3</text>
<polygon fill="none" stroke="black" points="1631.27,-835.5 1631.27,-856.5 1688.27,-856.5 1688.27,-835.5 1631.27,-835.5"/>
<text text-anchor="start" x="1634.27" y="-843.3" font-family="Times New Roman,serif" font-weight="bold" font-size="14.00">Class3()</text>
<polygon fill="none" stroke="black" points="1629.77,-834.5 1629.77,-878.5 1688.77,-878.5 1688.77,-834.5 1629.77,-834.5"/>
</g>
<!-- EAID_C04F91BC_68DC_471f_BA9D_FCFC1579E760 -->
<g id="node18" class="node"><title>EAID_C04F91BC_68DC_471f_BA9D_FCFC1579E760</title>
<polygon fill="none" stroke="black" points="1494.27,-856.5 1494.27,-877.5 1594.27,-877.5 1594.27,-856.5 1494.27,-856.5"/>
<text text-anchor="start" x="1501.77" y="-864.3" font-family="Times New Roman,serif" font-weight="bold" font-size="14.00">confirmdialog</text>
<polygon fill="none" stroke="black" points="1494.27,-835.5 1494.27,-856.5 1594.27,-856.5 1594.27,-835.5 1494.27,-835.5"/>
<text text-anchor="start" x="1497.27" y="-843.3" font-family="Times New Roman,serif" font-weight="bold" font-size="14.00">confirmdialog()</text>
<polygon fill="none" stroke="black" points="1493.27,-834.5 1493.27,-878.5 1595.27,-878.5 1595.27,-834.5 1493.27,-834.5"/>
</g>
<!-- EAID_71814A07_16E4_4de9_9A55_B4E535C2C335 -->
<g id="node19" class="node"><title>EAID_71814A07_16E4_4de9_9A55_B4E535C2C335</title>
<polygon fill="none" stroke="black" points="1306.27,-856.5 1306.27,-877.5 1458.27,-877.5 1458.27,-856.5 1306.27,-856.5"/>
<text text-anchor="start" x="1313.77" y="-864.3" font-family="Times New Roman,serif" font-weight="bold" font-size="14.00">verifyinputinformation</text>
<polygon fill="none" stroke="black" points="1306.27,-835.5 1306.27,-856.5 1458.27,-856.5 1458.27,-835.5 1306.27,-835.5"/>
<text text-anchor="start" x="1309.27" y="-843.3" font-family="Times New Roman,serif" font-weight="bold" font-size="14.00">verifyinputinformation()</text>
<polygon fill="none" stroke="black" points="1305.27,-834.5 1305.27,-878.5 1459.27,-878.5 1459.27,-834.5 1305.27,-834.5"/>
</g>
<!-- EAID_7B3C0AEE_2C29_4c6c_A706_0D2D4140CE8A -->
<g id="node20" class="node"><title>EAID_7B3C0AEE_2C29_4c6c_A706_0D2D4140CE8A</title>
<polygon fill="none" stroke="black" points="1085.27,-887.5 1085.27,-908.5 1270.27,-908.5 1270.27,-887.5 1085.27,-887.5"/>
<text text-anchor="start" x="1151.77" y="-895.3" font-family="Times New Roman,serif" font-weight="bold" font-size="14.00">websites</text>
<polygon fill="none" stroke="black" points="1085.27,-866.5 1085.27,-887.5 1270.27,-887.5 1270.27,-866.5 1085.27,-866.5"/>
<text text-anchor="start" x="1147.27" y="-874.3" font-family="Times New Roman,serif" font-weight="bold" font-size="14.00">websites()</text>
<polygon fill="none" stroke="black" points="1085.27,-845.5 1085.27,-866.5 1270.27,-866.5 1270.27,-845.5 1085.27,-845.5"/>
<text text-anchor="start" x="1107.77" y="-853.3" font-family="Times New Roman,serif" font-weight="bold" font-size="14.00">Attributelistofwebsite()</text>
<polygon fill="none" stroke="black" points="1085.27,-824.5 1085.27,-845.5 1270.27,-845.5 1270.27,-824.5 1085.27,-824.5"/>
<text text-anchor="start" x="1132.27" y="-832.3" font-family="Times New Roman,serif" font-weight="bold" font-size="14.00">addattributes()</text>
<polygon fill="none" stroke="black" points="1085.27,-803.5 1085.27,-824.5 1270.27,-824.5 1270.27,-803.5 1085.27,-803.5"/>
<text text-anchor="start" x="1088.27" y="-811.3" font-family="Times New Roman,serif" font-weight="bold" font-size="14.00">querycrawlinglistofwebsites()</text>
<polygon fill="none" stroke="black" points="1083.77,-803 1083.77,-910 1270.77,-910 1270.77,-803 1083.77,-803"/>
</g>
<!-- EAID_C2295090_B10A_47ae_9279_59D3C62ABA31 -->
<g id="node21" class="node"><title>EAID_C2295090_B10A_47ae_9279_59D3C62ABA31</title>
<polygon fill="none" stroke="black" points="882.266,-866.5 882.266,-887.5 1048.27,-887.5 1048.27,-866.5 882.266,-866.5"/>
<text text-anchor="start" x="889.766" y="-874.3" font-family="Times New Roman,serif" font-weight="bold" font-size="14.00">schedulesuccessmessage</text>
<polygon fill="none" stroke="black" points="882.266,-845.5 882.266,-866.5 1048.27,-866.5 1048.27,-845.5 882.266,-845.5"/>
<text text-anchor="start" x="885.266" y="-853.3" font-family="Times New Roman,serif" font-weight="bold" font-size="14.00">schedulesuccessmessage()</text>
<polygon fill="none" stroke="black" points="882.266,-824.5 882.266,-845.5 1048.27,-845.5 1048.27,-824.5 882.266,-824.5"/>
<text text-anchor="start" x="934.266" y="-832.3" font-family="Times New Roman,serif" font-weight="bold" font-size="14.00">schedule()</text>
<polygon fill="none" stroke="black" points="881.266,-824 881.266,-889 1049.27,-889 1049.27,-824 881.266,-824"/>
</g>
</g>
</svg>
