<?xml version="1.0" encoding="UTF-8" standalone="no"?>
<!DOCTYPE svg PUBLIC "-//W3C//DTD SVG 1.1//EN"
 "http://www.w3.org/Graphics/SVG/1.1/DTD/svg11.dtd">
<!-- Generated by graphviz version 2.38.0 (20140413.2041)
 -->
<!-- Title: g Pages: 1 -->
<svg width="5513pt" height="388pt"
 viewBox="0.00 0.00 5513.00 388.00" xmlns="http://www.w3.org/2000/svg" xmlns:xlink="http://www.w3.org/1999/xlink">
<g id="graph0" class="graph" transform="scale(1 1) rotate(0) translate(4 384)">
<title>g</title>
<polygon fill="white" stroke="none" points="-4,4 -4,-384 5509,-384 5509,4 -4,4"/>
<g id="clust1" class="cluster"><title>cluster1000</title>
<polygon fill="none" stroke="black" stroke-width="2" points="8,-8 8,-372 5497,-372 5497,-8 8,-8"/>
<text text-anchor="start" x="2707" y="-357.8" font-family="Times New Roman,serif" font-weight="bold" font-size="14.00">Domain Model</text>
</g>
<!-- EAID_644DE66F_7906_4706_9DED_CC21989960B3 -->
<g id="node1" class="node"><title>EAID_644DE66F_7906_4706_9DED_CC21989960B3</title>
<text text-anchor="middle" x="5327" y="-174.8" font-family="Times New Roman,serif" font-size="14.00">EAID_644DE66F_7906_4706_9DED_CC21989960B3</text>
</g>
<!-- EAID_D16B9A00_24A0_4b7a_930D_437301325888 -->
<g id="node2" class="node"><title>EAID_D16B9A00_24A0_4b7a_930D_437301325888</title>
<polygon fill="none" stroke="black" points="5081,-178.5 5081,-199.5 5138,-199.5 5138,-178.5 5081,-178.5"/>
<text text-anchor="start" x="5088.5" y="-186.3" font-family="Times New Roman,serif" font-weight="bold" font-size="14.00">Class1</text>
<polygon fill="none" stroke="black" points="5081,-157.5 5081,-178.5 5138,-178.5 5138,-157.5 5081,-157.5"/>
<text text-anchor="start" x="5084" y="-165.3" font-family="Times New Roman,serif" font-weight="bold" font-size="14.00">Class1()</text>
<polygon fill="none" stroke="black" points="5079.5,-156.5 5079.5,-200.5 5138.5,-200.5 5138.5,-156.5 5079.5,-156.5"/>
</g>
<!-- EAID_ACA54FE4_AADD_4d73_9308_703B013E1C9F -->
<g id="node3" class="node"><title>EAID_ACA54FE4_AADD_4d73_9308_703B013E1C9F</title>
<polygon fill="none" stroke="black" points="4896,-188.5 4896,-209.5 5044,-209.5 5044,-188.5 4896,-188.5"/>
<text text-anchor="start" x="4925.5" y="-196.3" font-family="Times New Roman,serif" font-weight="bold" font-size="14.00">Match Service</text>
<polygon fill="none" stroke="black" points="4896,-167.5 4896,-188.5 5044,-188.5 5044,-167.5 4896,-167.5"/>
<text text-anchor="start" x="4899" y="-175.3" font-family="Times New Roman,serif" font-weight="bold" font-size="14.00">EAJava_string match()</text>
<polygon fill="none" stroke="black" points="4896,-146.5 4896,-167.5 5044,-167.5 5044,-146.5 4896,-146.5"/>
<text text-anchor="start" x="4909.5" y="-154.3" font-family="Times New Roman,serif" font-weight="bold" font-size="14.00">clicksmatchbutton()</text>
<polygon fill="none" stroke="black" points="4895,-146 4895,-211 5045,-211 5045,-146 4895,-146"/>
</g>
<!-- EAID_6834B163_B717_4cc6_8D33_A5091545F20C -->
<g id="node4" class="node"><title>EAID_6834B163_B717_4cc6_8D33_A5091545F20C</title>
<polygon fill="none" stroke="black" points="4623,-314.5 4623,-335.5 4860,-335.5 4860,-314.5 4623,-314.5"/>
<text text-anchor="start" x="4714" y="-322.3" font-family="Times New Roman,serif" font-weight="bold" font-size="14.00">Message</text>
<polygon fill="none" stroke="black" points="4623,-293.5 4623,-314.5 4860,-314.5 4860,-293.5 4623,-293.5"/>
<text text-anchor="start" x="4667.5" y="-301.3" font-family="Times New Roman,serif" font-weight="bold" font-size="14.00">EAJava_string attribute</text>
<polygon fill="none" stroke="black" points="4623,-272.5 4623,-293.5 4860,-293.5 4860,-272.5 4623,-272.5"/>
<text text-anchor="start" x="4680.5" y="-280.3" font-family="Times New Roman,serif" font-weight="bold" font-size="14.00">EAJava_string date</text>
<polygon fill="none" stroke="black" points="4623,-251.5 4623,-272.5 4860,-272.5 4860,-251.5 4623,-251.5"/>
<text text-anchor="start" x="4649.5" y="-259.3" font-family="Times New Roman,serif" font-weight="bold" font-size="14.00">EAJava_string message_body</text>
<polygon fill="none" stroke="black" points="4623,-230.5 4623,-251.5 4860,-251.5 4860,-230.5 4623,-230.5"/>
<text text-anchor="start" x="4668" y="-238.3" font-family="Times New Roman,serif" font-weight="bold" font-size="14.00">EAJava_int message_id</text>
<polygon fill="none" stroke="black" points="4623,-209.5 4623,-230.5 4860,-230.5 4860,-209.5 4623,-209.5"/>
<text text-anchor="start" x="4648.5" y="-217.3" font-family="Times New Roman,serif" font-weight="bold" font-size="14.00">EAJava_string receiver_name</text>
<polygon fill="none" stroke="black" points="4623,-188.5 4623,-209.5 4860,-209.5 4860,-188.5 4623,-188.5"/>
<text text-anchor="start" x="4653" y="-196.3" font-family="Times New Roman,serif" font-weight="bold" font-size="14.00">EAJava_string sender_name</text>
<polygon fill="none" stroke="black" points="4623,-167.5 4623,-188.5 4860,-188.5 4860,-167.5 4623,-167.5"/>
<text text-anchor="start" x="4675.5" y="-175.3" font-family="Times New Roman,serif" font-weight="bold" font-size="14.00">EAJava_string status</text>
<polygon fill="none" stroke="black" points="4623,-146.5 4623,-167.5 4860,-167.5 4860,-146.5 4623,-146.5"/>
<text text-anchor="start" x="4647.5" y="-154.3" font-family="Times New Roman,serif" font-weight="bold" font-size="14.00">EAJava_void delete_receiver()</text>
<polygon fill="none" stroke="black" points="4623,-125.5 4623,-146.5 4860,-146.5 4860,-125.5 4623,-125.5"/>
<text text-anchor="start" x="4652" y="-133.3" font-family="Times New Roman,serif" font-weight="bold" font-size="14.00">EAJava_void delete_sender()</text>
<polygon fill="none" stroke="black" points="4623,-104.5 4623,-125.5 4860,-125.5 4860,-104.5 4623,-104.5"/>
<text text-anchor="start" x="4699" y="-112.3" font-family="Times New Roman,serif" font-weight="bold" font-size="14.00">Logininpage()</text>
<polygon fill="none" stroke="black" points="4623,-83.5 4623,-104.5 4860,-104.5 4860,-83.5 4623,-83.5"/>
<text text-anchor="start" x="4704" y="-91.3" font-family="Times New Roman,serif" font-weight="bold" font-size="14.00">Homepage()</text>
<polygon fill="none" stroke="black" points="4623,-62.5 4623,-83.5 4860,-83.5 4860,-62.5 4623,-62.5"/>
<text text-anchor="start" x="4673" y="-70.3" font-family="Times New Roman,serif" font-weight="bold" font-size="14.00">Typemessagecontent()</text>
<polygon fill="none" stroke="black" points="4623,-41.5 4623,-62.5 4860,-62.5 4860,-41.5 4623,-41.5"/>
<text text-anchor="start" x="4626" y="-49.3" font-family="Times New Roman,serif" font-weight="bold" font-size="14.00">Systemcheckthatmessageisnotempty()</text>
<polygon fill="none" stroke="black" points="4623,-20.5 4623,-41.5 4860,-41.5 4860,-20.5 4623,-20.5"/>
<text text-anchor="start" x="4703.5" y="-28.3" font-family="Times New Roman,serif" font-weight="bold" font-size="14.00">messagedb()</text>
<polygon fill="none" stroke="black" points="4621.5,-20 4621.5,-337 4860.5,-337 4860.5,-20 4621.5,-20"/>
</g>
<!-- EAID_5A994FE9_EF26_438b_A6E4_7E59E0931653 -->
<g id="node5" class="node"><title>EAID_5A994FE9_EF26_438b_A6E4_7E59E0931653</title>
<polygon fill="none" stroke="black" points="4302,-241.5 4302,-262.5 4587,-262.5 4587,-241.5 4302,-241.5"/>
<text text-anchor="start" x="4393" y="-249.3" font-family="Times New Roman,serif" font-weight="bold" font-size="14.00">Message Service</text>
<polygon fill="none" stroke="black" points="4302,-220.5 4302,-241.5 4587,-241.5 4587,-220.5 4302,-220.5"/>
<text text-anchor="start" x="4379" y="-228.3" font-family="Times New Roman,serif" font-weight="bold" font-size="14.00">EAJava_void delete()</text>
<polygon fill="none" stroke="black" points="4302,-199.5 4302,-220.5 4587,-220.5 4587,-199.5 4302,-199.5"/>
<text text-anchor="start" x="4346.5" y="-207.3" font-family="Times New Roman,serif" font-weight="bold" font-size="14.00">EAJava_void delete_by_group()</text>
<polygon fill="none" stroke="black" points="4302,-178.5 4302,-199.5 4587,-199.5 4587,-178.5 4302,-178.5"/>
<text text-anchor="start" x="4353.5" y="-186.3" font-family="Times New Roman,serif" font-weight="bold" font-size="14.00">EAJava_int get_contact_list()</text>
<polygon fill="none" stroke="black" points="4302,-157.5 4302,-178.5 4587,-178.5 4587,-157.5 4302,-157.5"/>
<text text-anchor="start" x="4353" y="-165.3" font-family="Times New Roman,serif" font-weight="bold" font-size="14.00">EAJava_string get_message()</text>
<polygon fill="none" stroke="black" points="4302,-136.5 4302,-157.5 4587,-157.5 4587,-136.5 4302,-136.5"/>
<text text-anchor="start" x="4383" y="-144.3" font-family="Times New Roman,serif" font-weight="bold" font-size="14.00">EAJava_void send()</text>
<polygon fill="none" stroke="black" points="4302,-115.5 4302,-136.5 4587,-136.5 4587,-115.5 4302,-115.5"/>
<text text-anchor="start" x="4364" y="-123.3" font-family="Times New Roman,serif" font-weight="bold" font-size="14.00">Clicksendmessagebutton()</text>
<polygon fill="none" stroke="black" points="4302,-94.5 4302,-115.5 4587,-115.5 4587,-94.5 4302,-94.5"/>
<text text-anchor="start" x="4305" y="-102.3" font-family="Times New Roman,serif" font-weight="bold" font-size="14.00">bringsLanguageLearnertosendmessagepage()</text>
<polygon fill="none" stroke="black" points="4300.5,-93.5 4300.5,-263.5 4587.5,-263.5 4587.5,-93.5 4300.5,-93.5"/>
</g>
<!-- EAID_B355DE57_3164_48a9_BACC_A040B14DAC70 -->
<g id="node6" class="node"><title>EAID_B355DE57_3164_48a9_BACC_A040B14DAC70</title>
<polygon fill="none" stroke="black" points="4013,-293.5 4013,-314.5 4265,-314.5 4265,-293.5 4013,-293.5"/>
<text text-anchor="start" x="4124.5" y="-301.3" font-family="Times New Roman,serif" font-weight="bold" font-size="14.00">User</text>
<polygon fill="none" stroke="black" points="4013,-272.5 4013,-293.5 4265,-293.5 4265,-272.5 4013,-272.5"/>
<text text-anchor="start" x="4074.5" y="-280.3" font-family="Times New Roman,serif" font-weight="bold" font-size="14.00">EAJava_string email</text>
<polygon fill="none" stroke="black" points="4013,-251.5 4013,-272.5 4265,-272.5 4265,-251.5 4013,-251.5"/>
<text text-anchor="start" x="4085.5" y="-259.3" font-family="Times New Roman,serif" font-weight="bold" font-size="14.00">EAJava_string id</text>
<polygon fill="none" stroke="black" points="4013,-230.5 4013,-251.5 4265,-251.5 4265,-230.5 4013,-230.5"/>
<text text-anchor="start" x="4074.5" y="-238.3" font-family="Times New Roman,serif" font-weight="bold" font-size="14.00">EAJava_string name</text>
<polygon fill="none" stroke="black" points="4013,-209.5 4013,-230.5 4265,-230.5 4265,-209.5 4013,-209.5"/>
<text text-anchor="start" x="4062" y="-217.3" font-family="Times New Roman,serif" font-weight="bold" font-size="14.00">EAJava_string password</text>
<polygon fill="none" stroke="black" points="4013,-188.5 4013,-209.5 4265,-209.5 4265,-188.5 4013,-188.5"/>
<text text-anchor="start" x="4060.5" y="-196.3" font-family="Times New Roman,serif" font-weight="bold" font-size="14.00">EAJava_string get_user()</text>
<polygon fill="none" stroke="black" points="4013,-167.5 4013,-188.5 4265,-188.5 4265,-167.5 4013,-167.5"/>
<text text-anchor="start" x="4052.5" y="-175.3" font-family="Times New Roman,serif" font-weight="bold" font-size="14.00">EAJava_string insert_user()</text>
<polygon fill="none" stroke="black" points="4013,-146.5 4013,-167.5 4265,-167.5 4265,-146.5 4013,-146.5"/>
<text text-anchor="start" x="4063" y="-154.3" font-family="Times New Roman,serif" font-weight="bold" font-size="14.00">EAJava_string register()</text>
<polygon fill="none" stroke="black" points="4013,-125.5 4013,-146.5 4265,-146.5 4265,-125.5 4013,-125.5"/>
<text text-anchor="start" x="4071" y="-133.3" font-family="Times New Roman,serif" font-weight="bold" font-size="14.00">EAJava_string show()</text>
<polygon fill="none" stroke="black" points="4013,-104.5 4013,-125.5 4265,-125.5 4265,-104.5 4013,-104.5"/>
<text text-anchor="start" x="4033.5" y="-112.3" font-family="Times New Roman,serif" font-weight="bold" font-size="14.00">EAJava_string show_user_email()</text>
<polygon fill="none" stroke="black" points="4013,-83.5 4013,-104.5 4265,-104.5 4265,-83.5 4013,-83.5"/>
<text text-anchor="start" x="4029" y="-91.3" font-family="Times New Roman,serif" font-weight="bold" font-size="14.00">EAJava_string update_user_email()</text>
<polygon fill="none" stroke="black" points="4013,-62.5 4013,-83.5 4265,-83.5 4265,-62.5 4013,-62.5"/>
<text text-anchor="start" x="4016" y="-70.3" font-family="Times New Roman,serif" font-weight="bold" font-size="14.00">EAJava_string update_user_password()</text>
<polygon fill="none" stroke="black" points="4013,-41.5 4013,-62.5 4265,-62.5 4265,-41.5 4013,-41.5"/>
<text text-anchor="start" x="4025.5" y="-49.3" font-family="Times New Roman,serif" font-weight="bold" font-size="14.00">EAJava_string validate_user_name()</text>
<polygon fill="none" stroke="black" points="4012,-41 4012,-316 4266,-316 4266,-41 4012,-41"/>
</g>
<!-- EAID_1A103213_2C14_4070_8069_2389E57215D4 -->
<g id="node7" class="node"><title>EAID_1A103213_2C14_4070_8069_2389E57215D4</title>
<polygon fill="none" stroke="black" points="3897,-178.5 3897,-199.5 3977,-199.5 3977,-178.5 3897,-178.5"/>
<text text-anchor="start" x="3902.5" y="-186.3" font-family="Times New Roman,serif" font-weight="bold" font-size="14.00">API Server</text>
<polygon fill="none" stroke="black" points="3897,-157.5 3897,-178.5 3977,-178.5 3977,-157.5 3897,-157.5"/>
<text text-anchor="start" x="3900" y="-165.3" font-family="Times New Roman,serif" font-weight="bold" font-size="14.00">APIServer()</text>
<polygon fill="none" stroke="black" points="3896,-156.5 3896,-200.5 3978,-200.5 3978,-156.5 3896,-156.5"/>
</g>
<!-- EAID_5C2B747F_D149_4d3b_BACF_E7E332E4BCF6 -->
<g id="node8" class="node"><title>EAID_5C2B747F_D149_4d3b_BACF_E7E332E4BCF6</title>
<polygon fill="none" stroke="black" points="3804,-178.5 3804,-199.5 3861,-199.5 3861,-178.5 3804,-178.5"/>
<text text-anchor="start" x="3811.5" y="-186.3" font-family="Times New Roman,serif" font-weight="bold" font-size="14.00">Class2</text>
<polygon fill="none" stroke="black" points="3804,-157.5 3804,-178.5 3861,-178.5 3861,-157.5 3804,-157.5"/>
<text text-anchor="start" x="3807" y="-165.3" font-family="Times New Roman,serif" font-weight="bold" font-size="14.00">Class2()</text>
<polygon fill="none" stroke="black" points="3802.5,-156.5 3802.5,-200.5 3861.5,-200.5 3861.5,-156.5 3802.5,-156.5"/>
</g>
<!-- EAID_1FD8AA1C_B927_4d74_AF52_465F1E0FD040 -->
<g id="node9" class="node"><title>EAID_1FD8AA1C_B927_4d74_AF52_465F1E0FD040</title>
<polygon fill="none" stroke="black" points="3711,-178.5 3711,-199.5 3768,-199.5 3768,-178.5 3711,-178.5"/>
<text text-anchor="start" x="3718.5" y="-186.3" font-family="Times New Roman,serif" font-weight="bold" font-size="14.00">Class3</text>
<polygon fill="none" stroke="black" points="3711,-157.5 3711,-178.5 3768,-178.5 3768,-157.5 3711,-157.5"/>
<text text-anchor="start" x="3714" y="-165.3" font-family="Times New Roman,serif" font-weight="bold" font-size="14.00">Class3()</text>
<polygon fill="none" stroke="black" points="3709.5,-156.5 3709.5,-200.5 3768.5,-200.5 3768.5,-156.5 3709.5,-156.5"/>
</g>
<!-- EAID_2FAF2584_5B99_4f7b_BD7D_9D324D0B361B -->
<g id="node10" class="node"><title>EAID_2FAF2584_5B99_4f7b_BD7D_9D324D0B361B</title>
<polygon fill="none" stroke="black" points="3560,-188.5 3560,-209.5 3675,-209.5 3675,-188.5 3560,-188.5"/>
<text text-anchor="start" x="3599" y="-196.3" font-family="Times New Roman,serif" font-weight="bold" font-size="14.00">Client</text>
<polygon fill="none" stroke="black" points="3560,-167.5 3560,-188.5 3675,-188.5 3675,-167.5 3560,-167.5"/>
<text text-anchor="start" x="3594.5" y="-175.3" font-family="Times New Roman,serif" font-weight="bold" font-size="14.00">Client()</text>
<polygon fill="none" stroke="black" points="3560,-146.5 3560,-167.5 3675,-167.5 3675,-146.5 3560,-146.5"/>
<text text-anchor="start" x="3563" y="-154.3" font-family="Times New Roman,serif" font-weight="bold" font-size="14.00">Clicksendbutton()</text>
<polygon fill="none" stroke="black" points="3558.5,-146 3558.5,-211 3675.5,-211 3675.5,-146 3558.5,-146"/>
</g>
<!-- EAID_D79E99B7_3B91_43e9_AAB1_686E0BB73949 -->
<g id="node11" class="node"><title>EAID_D79E99B7_3B91_43e9_AAB1_686E0BB73949</title>
<polygon fill="none" stroke="black" points="3405,-178.5 3405,-199.5 3523,-199.5 3523,-178.5 3405,-178.5"/>
<text text-anchor="start" x="3410.5" y="-186.3" font-family="Times New Roman,serif" font-weight="bold" font-size="14.00">Computer Device</text>
<polygon fill="none" stroke="black" points="3405,-157.5 3405,-178.5 3523,-178.5 3523,-157.5 3405,-157.5"/>
<text text-anchor="start" x="3408" y="-165.3" font-family="Times New Roman,serif" font-weight="bold" font-size="14.00">ComputerDevice()</text>
<polygon fill="none" stroke="black" points="3404,-156.5 3404,-200.5 3524,-200.5 3524,-156.5 3404,-156.5"/>
</g>
<!-- EAID_AB32676F_5233_4399_AEA5_982C42830824 -->
<g id="node12" class="node"><title>EAID_AB32676F_5233_4399_AEA5_982C42830824</title>
<polygon fill="none" stroke="black" points="3269,-178.5 3269,-199.5 3369,-199.5 3369,-178.5 3269,-178.5"/>
<text text-anchor="start" x="3275" y="-186.3" font-family="Times New Roman,serif" font-weight="bold" font-size="14.00">Mobile Device</text>
<polygon fill="none" stroke="black" points="3269,-157.5 3269,-178.5 3369,-178.5 3369,-157.5 3269,-157.5"/>
<text text-anchor="start" x="3272" y="-165.3" font-family="Times New Roman,serif" font-weight="bold" font-size="14.00">MobileDevice()</text>
<polygon fill="none" stroke="black" points="3268,-156.5 3268,-200.5 3370,-200.5 3370,-156.5 3268,-156.5"/>
</g>
<!-- EAID_10AF63D0_CA6B_4065_8164_92C35CA834F5 -->
<g id="node13" class="node"><title>EAID_10AF63D0_CA6B_4065_8164_92C35CA834F5</title>
<polygon fill="none" stroke="black" points="3088,-178.5 3088,-199.5 3233,-199.5 3233,-178.5 3088,-178.5"/>
<text text-anchor="start" x="3093.5" y="-186.3" font-family="Times New Roman,serif" font-weight="bold" font-size="14.00">Networked Computer</text>
<polygon fill="none" stroke="black" points="3088,-157.5 3088,-178.5 3233,-178.5 3233,-157.5 3088,-157.5"/>
<text text-anchor="start" x="3091" y="-165.3" font-family="Times New Roman,serif" font-weight="bold" font-size="14.00">NetworkedComputer()</text>
<polygon fill="none" stroke="black" points="3086.5,-156.5 3086.5,-200.5 3233.5,-200.5 3233.5,-156.5 3086.5,-156.5"/>
</g>
<!-- EAID_E85BB556_7C22_4b72_BD59_31BFC4FE32FA -->
<g id="node14" class="node"><title>EAID_E85BB556_7C22_4b72_BD59_31BFC4FE32FA</title>
<polygon fill="none" stroke="black" points="2995,-178.5 2995,-199.5 3051,-199.5 3051,-178.5 2995,-178.5"/>
<text text-anchor="start" x="3002.5" y="-186.3" font-family="Times New Roman,serif" font-weight="bold" font-size="14.00">Server</text>
<polygon fill="none" stroke="black" points="2995,-157.5 2995,-178.5 3051,-178.5 3051,-157.5 2995,-157.5"/>
<text text-anchor="start" x="2998" y="-165.3" font-family="Times New Roman,serif" font-weight="bold" font-size="14.00">Server()</text>
<polygon fill="none" stroke="black" points="2994,-156.5 2994,-200.5 3052,-200.5 3052,-156.5 2994,-156.5"/>
</g>
<!-- EAID_C0FD8292_2763_47ea_AB56_B0E7A5639B13 -->
<g id="node15" class="node"><title>EAID_C0FD8292_2763_47ea_AB56_B0E7A5639B13</title>
<polygon fill="none" stroke="black" points="2874,-178.5 2874,-199.5 2959,-199.5 2959,-178.5 2874,-178.5"/>
<text text-anchor="start" x="2880" y="-186.3" font-family="Times New Roman,serif" font-weight="bold" font-size="14.00">Web Server</text>
<polygon fill="none" stroke="black" points="2874,-157.5 2874,-178.5 2959,-178.5 2959,-157.5 2874,-157.5"/>
<text text-anchor="start" x="2877" y="-165.3" font-family="Times New Roman,serif" font-weight="bold" font-size="14.00">WebServer()</text>
<polygon fill="none" stroke="black" points="2872.5,-156.5 2872.5,-200.5 2959.5,-200.5 2959.5,-156.5 2872.5,-156.5"/>
</g>
<!-- EAID_D5B3B8F7_7C7F_487c_A960_446198D3BB26 -->
<g id="node16" class="node"><title>EAID_D5B3B8F7_7C7F_487c_A960_446198D3BB26</title>
<polygon fill="none" stroke="black" points="2651,-251.5 2651,-272.5 2837,-272.5 2837,-251.5 2651,-251.5"/>
<text text-anchor="start" x="2699" y="-259.3" font-family="Times New Roman,serif" font-weight="bold" font-size="14.00">Authentication</text>
<polygon fill="none" stroke="black" points="2651,-230.5 2651,-251.5 2837,-251.5 2837,-230.5 2651,-230.5"/>
<text text-anchor="start" x="2654" y="-238.3" font-family="Times New Roman,serif" font-weight="bold" font-size="14.00">EAJava_string Access_token</text>
<polygon fill="none" stroke="black" points="2651,-209.5 2651,-230.5 2837,-230.5 2837,-209.5 2651,-209.5"/>
<text text-anchor="start" x="2660.5" y="-217.3" font-family="Times New Roman,serif" font-weight="bold" font-size="14.00">EAJava_string expire_date</text>
<polygon fill="none" stroke="black" points="2651,-188.5 2651,-209.5 2837,-209.5 2837,-188.5 2651,-188.5"/>
<text text-anchor="start" x="2673.5" y="-196.3" font-family="Times New Roman,serif" font-weight="bold" font-size="14.00">EAJava_string user_id</text>
<polygon fill="none" stroke="black" points="2651,-167.5 2651,-188.5 2837,-188.5 2837,-167.5 2651,-167.5"/>
<text text-anchor="start" x="2663" y="-175.3" font-family="Times New Roman,serif" font-weight="bold" font-size="14.00">EAJava_string authorize()</text>
<polygon fill="none" stroke="black" points="2651,-146.5 2651,-167.5 2837,-167.5 2837,-146.5 2651,-146.5"/>
<text text-anchor="start" x="2662" y="-154.3" font-family="Times New Roman,serif" font-weight="bold" font-size="14.00">EAJava_string invalidate()</text>
<polygon fill="none" stroke="black" points="2651,-125.5 2651,-146.5 2837,-146.5 2837,-125.5 2651,-125.5"/>
<text text-anchor="start" x="2670" y="-133.3" font-family="Times New Roman,serif" font-weight="bold" font-size="14.00">EAJava_string refresh()</text>
<polygon fill="none" stroke="black" points="2651,-104.5 2651,-125.5 2837,-125.5 2837,-104.5 2651,-104.5"/>
<text text-anchor="start" x="2667.5" y="-112.3" font-family="Times New Roman,serif" font-weight="bold" font-size="14.00">EAJava_string validate()</text>
<polygon fill="none" stroke="black" points="2651,-83.5 2651,-104.5 2837,-104.5 2837,-83.5 2651,-83.5"/>
<text text-anchor="start" x="2684.5" y="-91.3" font-family="Times New Roman,serif" font-weight="bold" font-size="14.00">showconfirmation()</text>
<polygon fill="none" stroke="black" points="2650,-83 2650,-274 2838,-274 2838,-83 2650,-83"/>
</g>
<!-- EAID_5F174D61_A2D5_4cdd_8AA2_20BABC8C9EB0 -->
<g id="node17" class="node"><title>EAID_5F174D61_A2D5_4cdd_8AA2_20BABC8C9EB0</title>
<polygon fill="none" stroke="black" points="2425,-209.5 2425,-230.5 2615,-230.5 2615,-209.5 2425,-209.5"/>
<text text-anchor="start" x="2498.5" y="-217.3" font-family="Times New Roman,serif" font-weight="bold" font-size="14.00">Avatar</text>
<polygon fill="none" stroke="black" points="2425,-188.5 2425,-209.5 2615,-209.5 2615,-188.5 2425,-188.5"/>
<text text-anchor="start" x="2463.5" y="-196.3" font-family="Times New Roman,serif" font-weight="bold" font-size="14.00">EAJava_string url</text>
<polygon fill="none" stroke="black" points="2425,-167.5 2425,-188.5 2615,-188.5 2615,-167.5 2425,-167.5"/>
<text text-anchor="start" x="2449.5" y="-175.3" font-family="Times New Roman,serif" font-weight="bold" font-size="14.00">EAJava_string user_id</text>
<polygon fill="none" stroke="black" points="2425,-146.5 2425,-167.5 2615,-167.5 2615,-146.5 2425,-146.5"/>
<text text-anchor="start" x="2439.5" y="-154.3" font-family="Times New Roman,serif" font-weight="bold" font-size="14.00">EAJava_void get_avatar()</text>
<polygon fill="none" stroke="black" points="2425,-125.5 2425,-146.5 2615,-146.5 2615,-125.5 2425,-125.5"/>
<text text-anchor="start" x="2428" y="-133.3" font-family="Times New Roman,serif" font-weight="bold" font-size="14.00">EAJava_void update_avatar()</text>
<polygon fill="none" stroke="black" points="2424,-125 2424,-232 2616,-232 2616,-125 2424,-125"/>
</g>
<!-- EAID_61BECFFC_B607_49ff_8B46_0A0277514CEE -->
<g id="node18" class="node"><title>EAID_61BECFFC_B607_49ff_8B46_0A0277514CEE</title>
<polygon fill="none" stroke="black" points="1989,-241.5 1989,-262.5 2389,-262.5 2389,-241.5 1989,-241.5"/>
<text text-anchor="start" x="2163.5" y="-249.3" font-family="Times New Roman,serif" font-weight="bold" font-size="14.00">Country</text>
<polygon fill="none" stroke="black" points="1989,-220.5 1989,-241.5 2389,-241.5 2389,-220.5 1989,-220.5"/>
<text text-anchor="start" x="2103" y="-228.3" font-family="Times New Roman,serif" font-weight="bold" font-size="14.00">EAJava_string abbreviation</text>
<polygon fill="none" stroke="black" points="1989,-199.5 1989,-220.5 2389,-220.5 2389,-199.5 1989,-199.5"/>
<text text-anchor="start" x="2135.5" y="-207.3" font-family="Times New Roman,serif" font-weight="bold" font-size="14.00">EAJava_string id</text>
<polygon fill="none" stroke="black" points="1989,-178.5 1989,-199.5 2389,-199.5 2389,-178.5 1989,-178.5"/>
<text text-anchor="start" x="2124.5" y="-186.3" font-family="Times New Roman,serif" font-weight="bold" font-size="14.00">EAJava_string name</text>
<polygon fill="none" stroke="black" points="1989,-157.5 1989,-178.5 2389,-178.5 2389,-157.5 1989,-157.5"/>
<text text-anchor="start" x="1992" y="-165.3" font-family="Times New Roman,serif" font-weight="bold" font-size="14.00">EAID_61D17767_D768_4c1c_BB49_57AD454809D1 undefined</text>
<polygon fill="none" stroke="black" points="1989,-136.5 1989,-157.5 2389,-157.5 2389,-136.5 1989,-136.5"/>
<text text-anchor="start" x="2063" y="-144.3" font-family="Times New Roman,serif" font-weight="bold" font-size="14.00">EAJava_void get_country_abbreviation()</text>
<polygon fill="none" stroke="black" points="1989,-115.5 1989,-136.5 2389,-136.5 2389,-115.5 1989,-115.5"/>
<text text-anchor="start" x="2092.5" y="-123.3" font-family="Times New Roman,serif" font-weight="bold" font-size="14.00">EAJava_void get_country_list()</text>
<polygon fill="none" stroke="black" points="1989,-94.5 1989,-115.5 2389,-115.5 2389,-94.5 1989,-94.5"/>
<text text-anchor="start" x="2095.5" y="-102.3" font-family="Times New Roman,serif" font-weight="bold" font-size="14.00">EAJava_void get_id_country()</text>
<polygon fill="none" stroke="black" points="1988,-93.5 1988,-263.5 2390,-263.5 2390,-93.5 1988,-93.5"/>
</g>
<!-- EAID_C448369A_6524_4a01_BD8A_5C7367691CA3 -->
<g id="node19" class="node"><title>EAID_C448369A_6524_4a01_BD8A_5C7367691CA3</title>
<polygon fill="none" stroke="black" points="1733,-220.5 1733,-241.5 1953,-241.5 1953,-220.5 1733,-220.5"/>
<text text-anchor="start" x="1823" y="-228.3" font-family="Times New Roman,serif" font-weight="bold" font-size="14.00">Desire</text>
<polygon fill="none" stroke="black" points="1733,-199.5 1733,-220.5 1953,-220.5 1953,-199.5 1733,-199.5"/>
<text text-anchor="start" x="1759" y="-207.3" font-family="Times New Roman,serif" font-weight="bold" font-size="14.00">EAJava_string desiredlevel</text>
<polygon fill="none" stroke="black" points="1733,-178.5 1733,-199.5 1953,-199.5 1953,-178.5 1733,-178.5"/>
<text text-anchor="start" x="1759.5" y="-186.3" font-family="Times New Roman,serif" font-weight="bold" font-size="14.00">EAJava_string languageID</text>
<polygon fill="none" stroke="black" points="1733,-157.5 1733,-178.5 1953,-178.5 1953,-157.5 1733,-157.5"/>
<text text-anchor="start" x="1774" y="-165.3" font-family="Times New Roman,serif" font-weight="bold" font-size="14.00">EAJava_string userID</text>
<polygon fill="none" stroke="black" points="1733,-136.5 1733,-157.5 1953,-157.5 1953,-136.5 1733,-136.5"/>
<text text-anchor="start" x="1740.5" y="-144.3" font-family="Times New Roman,serif" font-weight="bold" font-size="14.00">EAJava_void show_user_desire()</text>
<polygon fill="none" stroke="black" points="1733,-115.5 1733,-136.5 1953,-136.5 1953,-115.5 1733,-115.5"/>
<text text-anchor="start" x="1736" y="-123.3" font-family="Times New Roman,serif" font-weight="bold" font-size="14.00">EAJava_void update_user_desire()</text>
<polygon fill="none" stroke="black" points="1732,-114.5 1732,-242.5 1954,-242.5 1954,-114.5 1732,-114.5"/>
</g>
<!-- EAID_61D17767_D768_4c1c_BB49_57AD454809D1 -->
<g id="node20" class="node"><title>EAID_61D17767_D768_4c1c_BB49_57AD454809D1</title>
<polygon fill="none" stroke="black" points="1480,-304.5 1480,-325.5 1697,-325.5 1697,-304.5 1480,-304.5"/>
<text text-anchor="start" x="1570" y="-312.3" font-family="Times New Roman,serif" font-weight="bold" font-size="14.00">Detail</text>
<polygon fill="none" stroke="black" points="1480,-283.5 1480,-304.5 1697,-304.5 1697,-283.5 1480,-283.5"/>
<text text-anchor="start" x="1508.5" y="-291.3" font-family="Times New Roman,serif" font-weight="bold" font-size="14.00">EAJava_string avatar_url</text>
<polygon fill="none" stroke="black" points="1480,-262.5 1480,-283.5 1697,-283.5 1697,-262.5 1480,-262.5"/>
<text text-anchor="start" x="1515" y="-270.3" font-family="Times New Roman,serif" font-weight="bold" font-size="14.00">EAJava_string birthday</text>
<polygon fill="none" stroke="black" points="1480,-241.5 1480,-262.5 1697,-262.5 1697,-241.5 1480,-241.5"/>
<text text-anchor="start" x="1529.5" y="-249.3" font-family="Times New Roman,serif" font-weight="bold" font-size="14.00">EAJava_string city</text>
<polygon fill="none" stroke="black" points="1480,-220.5 1480,-241.5 1697,-241.5 1697,-220.5 1480,-220.5"/>
<text text-anchor="start" x="1517.5" y="-228.3" font-family="Times New Roman,serif" font-weight="bold" font-size="14.00">EAJava_string country</text>
<polygon fill="none" stroke="black" points="1480,-199.5 1480,-220.5 1697,-220.5 1697,-199.5 1480,-199.5"/>
<text text-anchor="start" x="1522" y="-207.3" font-family="Times New Roman,serif" font-weight="bold" font-size="14.00">EAJava_string fname</text>
<polygon fill="none" stroke="black" points="1480,-178.5 1480,-199.5 1697,-199.5 1697,-178.5 1480,-178.5"/>
<text text-anchor="start" x="1503.5" y="-186.3" font-family="Times New Roman,serif" font-weight="bold" font-size="14.00">EAJava_string introduction</text>
<polygon fill="none" stroke="black" points="1480,-157.5 1480,-178.5 1697,-178.5 1697,-157.5 1480,-157.5"/>
<text text-anchor="start" x="1522" y="-165.3" font-family="Times New Roman,serif" font-weight="bold" font-size="14.00">EAJava_string lname</text>
<polygon fill="none" stroke="black" points="1480,-136.5 1480,-157.5 1697,-157.5 1697,-136.5 1480,-136.5"/>
<text text-anchor="start" x="1518.5" y="-144.3" font-family="Times New Roman,serif" font-weight="bold" font-size="14.00">EAJava_string mname</text>
<polygon fill="none" stroke="black" points="1480,-115.5 1480,-136.5 1697,-136.5 1697,-115.5 1480,-115.5"/>
<text text-anchor="start" x="1531" y="-123.3" font-family="Times New Roman,serif" font-weight="bold" font-size="14.00">EAJava_string sex</text>
<polygon fill="none" stroke="black" points="1480,-94.5 1480,-115.5 1697,-115.5 1697,-94.5 1480,-94.5"/>
<text text-anchor="start" x="1511" y="-102.3" font-family="Times New Roman,serif" font-weight="bold" font-size="14.00">EAJava_string university</text>
<polygon fill="none" stroke="black" points="1480,-73.5 1480,-94.5 1697,-94.5 1697,-73.5 1480,-73.5"/>
<text text-anchor="start" x="1518" y="-81.3" font-family="Times New Roman,serif" font-weight="bold" font-size="14.00">EAJava_string user_id</text>
<polygon fill="none" stroke="black" points="1480,-52.5 1480,-73.5 1697,-73.5 1697,-52.5 1480,-52.5"/>
<text text-anchor="start" x="1487.5" y="-60.3" font-family="Times New Roman,serif" font-weight="bold" font-size="14.00">EAJava_void show_user_detail()</text>
<polygon fill="none" stroke="black" points="1480,-31.5 1480,-52.5 1697,-52.5 1697,-31.5 1480,-31.5"/>
<text text-anchor="start" x="1483" y="-39.3" font-family="Times New Roman,serif" font-weight="bold" font-size="14.00">EAJava_void update_user_detail()</text>
<polygon fill="none" stroke="black" points="1478.5,-30.5 1478.5,-326.5 1697.5,-326.5 1697.5,-30.5 1478.5,-30.5"/>
</g>
<!-- EAID_24F4303E_677C_4a35_842B_9623F077F5BE -->
<g id="node21" class="node"><title>EAID_24F4303E_677C_4a35_842B_9623F077F5BE</title>
<polygon fill="none" stroke="black" points="1035,-283.5 1035,-304.5 1443,-304.5 1443,-283.5 1035,-283.5"/>
<text text-anchor="start" x="1208.5" y="-291.3" font-family="Times New Roman,serif" font-weight="bold" font-size="14.00">Language</text>
<polygon fill="none" stroke="black" points="1035,-262.5 1035,-283.5 1443,-283.5 1443,-262.5 1035,-262.5"/>
<text text-anchor="start" x="1153" y="-270.3" font-family="Times New Roman,serif" font-weight="bold" font-size="14.00">EAJava_string abbreviation</text>
<polygon fill="none" stroke="black" points="1035,-241.5 1035,-262.5 1443,-262.5 1443,-241.5 1035,-241.5"/>
<text text-anchor="start" x="1185.5" y="-249.3" font-family="Times New Roman,serif" font-weight="bold" font-size="14.00">EAJava_string id</text>
<polygon fill="none" stroke="black" points="1035,-220.5 1035,-241.5 1443,-241.5 1443,-220.5 1035,-220.5"/>
<text text-anchor="start" x="1174.5" y="-228.3" font-family="Times New Roman,serif" font-weight="bold" font-size="14.00">EAJava_string name</text>
<polygon fill="none" stroke="black" points="1035,-199.5 1035,-220.5 1443,-220.5 1443,-199.5 1035,-199.5"/>
<text text-anchor="start" x="1038" y="-207.3" font-family="Times New Roman,serif" font-weight="bold" font-size="14.00">EAID_5D480E4D_D6C2_441b_813D_534D05C673B9 undefined</text>
<polygon fill="none" stroke="black" points="1035,-178.5 1035,-199.5 1443,-199.5 1443,-178.5 1035,-178.5"/>
<text text-anchor="start" x="1118" y="-186.3" font-family="Times New Roman,serif" font-weight="bold" font-size="14.00">EAJava_int get_country_abbreviation()</text>
<polygon fill="none" stroke="black" points="1035,-157.5 1035,-178.5 1443,-178.5 1443,-157.5 1035,-157.5"/>
<text text-anchor="start" x="1136.5" y="-165.3" font-family="Times New Roman,serif" font-weight="bold" font-size="14.00">EAJava_string get_language_id()</text>
<polygon fill="none" stroke="black" points="1035,-136.5 1035,-157.5 1443,-157.5 1443,-136.5 1035,-136.5"/>
<text text-anchor="start" x="1138" y="-144.3" font-family="Times New Roman,serif" font-weight="bold" font-size="14.00">EAJava_void get_language_list()</text>
<polygon fill="none" stroke="black" points="1035,-115.5 1035,-136.5 1443,-136.5 1443,-115.5 1035,-115.5"/>
<text text-anchor="start" x="1138.5" y="-123.3" font-family="Times New Roman,serif" font-weight="bold" font-size="14.00">choosesdesiredtolearnlanguage()</text>
<polygon fill="none" stroke="black" points="1035,-94.5 1035,-115.5 1443,-115.5 1443,-94.5 1035,-94.5"/>
<text text-anchor="start" x="1065.5" y="-102.3" font-family="Times New Roman,serif" font-weight="bold" font-size="14.00">checkswhetherLanguageLearnerinputsallrequiredfields()</text>
<polygon fill="none" stroke="black" points="1035,-73.5 1035,-94.5 1443,-94.5 1443,-73.5 1035,-73.5"/>
<text text-anchor="start" x="1076.5" y="-81.3" font-family="Times New Roman,serif" font-weight="bold" font-size="14.00">checkslanguagepreferencesforeachlanguagelearner()</text>
<polygon fill="none" stroke="black" points="1035,-52.5 1035,-73.5 1443,-73.5 1443,-52.5 1035,-52.5"/>
<text text-anchor="start" x="1117.5" y="-60.3" font-family="Times New Roman,serif" font-weight="bold" font-size="14.00">Gototheprofileofotherlanguagelearner()</text>
<polygon fill="none" stroke="black" points="1034,-51.5 1034,-305.5 1444,-305.5 1444,-51.5 1034,-51.5"/>
</g>
<!-- EAID_5D480E4D_D6C2_441b_813D_534D05C673B9 -->
<g id="node22" class="node"><title>EAID_5D480E4D_D6C2_441b_813D_534D05C673B9</title>
<polygon fill="none" stroke="black" points="790,-220.5 790,-241.5 999,-241.5 999,-220.5 790,-220.5"/>
<text text-anchor="start" x="880.5" y="-228.3" font-family="Times New Roman,serif" font-weight="bold" font-size="14.00">Skill</text>
<polygon fill="none" stroke="black" points="790,-199.5 790,-220.5 999,-220.5 999,-199.5 790,-199.5"/>
<text text-anchor="start" x="811" y="-207.3" font-family="Times New Roman,serif" font-weight="bold" font-size="14.00">EAJava_string languageID</text>
<polygon fill="none" stroke="black" points="790,-178.5 790,-199.5 999,-199.5 999,-178.5 790,-178.5"/>
<text text-anchor="start" x="816" y="-186.3" font-family="Times New Roman,serif" font-weight="bold" font-size="14.00">EAJava_string skill_level</text>
<polygon fill="none" stroke="black" points="790,-157.5 790,-178.5 999,-178.5 999,-157.5 790,-157.5"/>
<text text-anchor="start" x="825.5" y="-165.3" font-family="Times New Roman,serif" font-weight="bold" font-size="14.00">EAJava_string userID</text>
<polygon fill="none" stroke="black" points="790,-136.5 790,-157.5 999,-157.5 999,-136.5 790,-136.5"/>
<text text-anchor="start" x="798" y="-144.3" font-family="Times New Roman,serif" font-weight="bold" font-size="14.00">EAJava_void show_user_skill()</text>
<polygon fill="none" stroke="black" points="790,-115.5 790,-136.5 999,-136.5 999,-115.5 790,-115.5"/>
<text text-anchor="start" x="793" y="-123.3" font-family="Times New Roman,serif" font-weight="bold" font-size="14.00">EAJava_void update_user_skill()</text>
<polygon fill="none" stroke="black" points="788.5,-114.5 788.5,-242.5 999.5,-242.5 999.5,-114.5 788.5,-114.5"/>
</g>
<!-- EAID_50359BC6_E5ED_4642_99AA_4052D441D825 -->
<g id="node23" class="node"><title>EAID_50359BC6_E5ED_4642_99AA_4052D441D825</title>
<polygon fill="none" stroke="black" points="481,-178.5 481,-199.5 754,-199.5 754,-178.5 481,-178.5"/>
<text text-anchor="start" x="488.5" y="-186.3" font-family="Times New Roman,serif" font-weight="bold" font-size="14.00">checkswhetherusernameemailalreadyexist</text>
<polygon fill="none" stroke="black" points="481,-157.5 481,-178.5 754,-178.5 754,-157.5 481,-157.5"/>
<text text-anchor="start" x="484" y="-165.3" font-family="Times New Roman,serif" font-weight="bold" font-size="14.00">checkswhetherusernameemailalreadyexist()</text>
<polygon fill="none" stroke="black" points="479.5,-156.5 479.5,-200.5 754.5,-200.5 754.5,-156.5 479.5,-156.5"/>
</g>
<!-- EAID_86A9A7A1_72A7_43e6_B38B_F5CDBEBC083B -->
<g id="node24" class="node"><title>EAID_86A9A7A1_72A7_43e6_B38B_F5CDBEBC083B</title>
<polygon fill="none" stroke="black" points="304,-199.5 304,-220.5 444,-220.5 444,-199.5 304,-199.5"/>
<text text-anchor="start" x="311.5" y="-207.3" font-family="Times New Roman,serif" font-weight="bold" font-size="14.00">confirmlogoutbutton</text>
<polygon fill="none" stroke="black" points="304,-178.5 304,-199.5 444,-199.5 444,-178.5 304,-178.5"/>
<text text-anchor="start" x="307" y="-186.3" font-family="Times New Roman,serif" font-weight="bold" font-size="14.00">confirmlogoutbutton()</text>
<polygon fill="none" stroke="black" points="304,-157.5 304,-178.5 444,-178.5 444,-157.5 304,-157.5"/>
<text text-anchor="start" x="314.5" y="-165.3" font-family="Times New Roman,serif" font-weight="bold" font-size="14.00">showconfirmation()</text>
<polygon fill="none" stroke="black" points="304,-136.5 304,-157.5 444,-157.5 444,-136.5 304,-136.5"/>
<text text-anchor="start" x="312" y="-144.3" font-family="Times New Roman,serif" font-weight="bold" font-size="14.00">clickssubmitbutton()</text>
<polygon fill="none" stroke="black" points="303,-135.5 303,-221.5 445,-221.5 445,-135.5 303,-135.5"/>
</g>
<!-- EAID_DEB54E38_FA9B_41d7_B26F_C9DEE1979662 -->
<g id="node25" class="node"><title>EAID_DEB54E38_FA9B_41d7_B26F_C9DEE1979662</title>
<polygon fill="none" stroke="black" points="117,-178.5 117,-199.5 268,-199.5 268,-178.5 117,-178.5"/>
<text text-anchor="start" x="124.5" y="-186.3" font-family="Times New Roman,serif" font-weight="bold" font-size="14.00">inputsallrequiredfields</text>
<polygon fill="none" stroke="black" points="117,-157.5 117,-178.5 268,-178.5 268,-157.5 117,-157.5"/>
<text text-anchor="start" x="120" y="-165.3" font-family="Times New Roman,serif" font-weight="bold" font-size="14.00">inputsallrequiredfields()</text>
<polygon fill="none" stroke="black" points="115.5,-156.5 115.5,-200.5 268.5,-200.5 268.5,-156.5 115.5,-156.5"/>
</g>
<!-- EAID_5BE98981_9AD3_4a72_841C_12312763D946 -->
<g id="node26" class="node"><title>EAID_5BE98981_9AD3_4a72_841C_12312763D946</title>
<polygon fill="none" stroke="black" points="26,-167.5 26,-188.5 81,-188.5 81,-167.5 26,-167.5"/>
<text text-anchor="start" x="29" y="-175.3" font-family="Times New Roman,serif" font-weight="bold" font-size="14.00">Object1</text>
<polygon fill="none" stroke="black" points="24.5,-167 24.5,-190 81.5,-190 81.5,-167 24.5,-167"/>
</g>
</g>
</svg>
