<?xml version="1.0" encoding="UTF-8" standalone="no"?>
<!DOCTYPE svg PUBLIC "-//W3C//DTD SVG 1.1//EN"
 "http://www.w3.org/Graphics/SVG/1.1/DTD/svg11.dtd">
<!-- Generated by graphviz version 2.38.0 (20140413.2041)
 -->
<!-- Title: g Pages: 1 -->
<svg width="2118pt" height="374pt"
 viewBox="0.00 0.00 2118.00 374.00" xmlns="http://www.w3.org/2000/svg" xmlns:xlink="http://www.w3.org/1999/xlink">
<g id="graph0" class="graph" transform="scale(1 1) rotate(0) translate(4 370)">
<title>g</title>
<polygon fill="white" stroke="none" points="-4,4 -4,-370 2114,-370 2114,4 -4,4"/>
<!-- EAID_057A9E7A_E830_4bd5_8EA2_4C1F4C7E52A4 -->
<g id="node1" class="node"><title>EAID_057A9E7A_E830_4bd5_8EA2_4C1F4C7E52A4</title>
<image xlink:href="img/actor1.png" width="61px" height="90px" preserveAspectRatio="xMinYMin meet" x="10.5" y="-187.5"/>
<text text-anchor="start" x="19" y="-74.3" font-family="Times New Roman,serif" font-size="24.00">User</text>
</g>
<!-- EAID_C9D0CB5A_8329_433b_BA01_2B866BBACBD3 -->
<g id="node2" class="node"><title>EAID_C9D0CB5A_8329_433b_BA01_2B866BBACBD3</title>
<image xlink:href="img/control1.png" width="106px" height="75px" preserveAspectRatio="xMinYMin meet" x="398.5" y="-359.5"/>
<text text-anchor="start" x="330" y="-261.3" font-family="Times New Roman,serif" font-size="24.00">Enter answer for question</text>
</g>
<!-- EAID_057A9E7A_E830_4bd5_8EA2_4C1F4C7E52A4&#45;&gt;EAID_C9D0CB5A_8329_433b_BA01_2B866BBACBD3 -->
<g id="edge1" class="edge"><title>EAID_057A9E7A_E830_4bd5_8EA2_4C1F4C7E52A4&#45;&gt;EAID_C9D0CB5A_8329_433b_BA01_2B866BBACBD3</title>
<path fill="none" stroke="black" d="M77.3205,-193.656C88.2606,-208.712 101.557,-223.265 117,-233.5 173.582,-270.999 246.25,-289.753 309.258,-299.031"/>
<polygon fill="black" stroke="black" points="308.894,-302.514 319.284,-300.44 309.868,-295.582 308.894,-302.514"/>
</g>
<!-- EAID_AF6F5BA6_E1D0_4586_9E0C_99B6A85C3AC7 -->
<g id="node3" class="node"><title>EAID_AF6F5BA6_E1D0_4586_9E0C_99B6A85C3AC7</title>
<image xlink:href="img/boundary3.png" width="106px" height="67px" preserveAspectRatio="xMinYMin meet" x="127" y="-218.5"/>
<text text-anchor="start" x="127" y="-128.3" font-family="Times New Roman,serif" font-size="24.00">Login page</text>
</g>
<!-- EAID_057A9E7A_E830_4bd5_8EA2_4C1F4C7E52A4&#45;&gt;EAID_AF6F5BA6_E1D0_4586_9E0C_99B6A85C3AC7 -->
<g id="edge2" class="edge"><title>EAID_057A9E7A_E830_4bd5_8EA2_4C1F4C7E52A4&#45;&gt;EAID_AF6F5BA6_E1D0_4586_9E0C_99B6A85C3AC7</title>
<path fill="none" stroke="black" d="M81.2707,-139.937C89.4252,-142.488 98.2455,-145.246 107.135,-148.026"/>
<polygon fill="black" stroke="black" points="106.192,-151.398 116.781,-151.042 108.281,-144.717 106.192,-151.398"/>
</g>
<!-- EAID_BDB28458_A7FA_4eeb_8700_17A172EBD18C -->
<g id="node4" class="node"><title>EAID_BDB28458_A7FA_4eeb_8700_17A172EBD18C</title>
<image xlink:href="img/boundary3.png" width="115px" height="67px" preserveAspectRatio="xMinYMin meet" x="744" y="-135.5"/>
<text text-anchor="start" x="680" y="-45.3" font-family="Times New Roman,serif" font-size="24.00">Enter answer for question</text>
</g>
<!-- EAID_057A9E7A_E830_4bd5_8EA2_4C1F4C7E52A4&#45;&gt;EAID_BDB28458_A7FA_4eeb_8700_17A172EBD18C -->
<g id="edge3" class="edge"><title>EAID_057A9E7A_E830_4bd5_8EA2_4C1F4C7E52A4&#45;&gt;EAID_BDB28458_A7FA_4eeb_8700_17A172EBD18C</title>
<path fill="none" stroke="black" d="M81.0734,-114.543C92.54,-111.323 105.161,-108.284 117,-106.5 302.813,-78.5027 520.19,-77.8792 658.919,-81.4724"/>
<polygon fill="black" stroke="black" points="659.094,-84.9784 669.185,-81.7498 659.283,-77.9809 659.094,-84.9784"/>
</g>
<!-- EAID_9EFDFF1E_AFA4_489b_9E24_33DC4E452251 -->
<g id="node5" class="node"><title>EAID_9EFDFF1E_AFA4_489b_9E24_33DC4E452251</title>
<image xlink:href="img/boundary3.png" width="102px" height="67px" preserveAspectRatio="xMinYMin meet" x="1998" y="-102.5"/>
<text text-anchor="start" x="1998" y="-12.3" font-family="Times New Roman,serif" font-size="24.00">Homepage</text>
</g>
<!-- EAID_057A9E7A_E830_4bd5_8EA2_4C1F4C7E52A4&#45;&gt;EAID_9EFDFF1E_AFA4_489b_9E24_33DC4E452251 -->
<g id="edge4" class="edge"><title>EAID_057A9E7A_E830_4bd5_8EA2_4C1F4C7E52A4&#45;&gt;EAID_9EFDFF1E_AFA4_489b_9E24_33DC4E452251</title>
<path fill="none" stroke="black" d="M81.0737,-104.893C92.4317,-99.005 104.996,-93.0449 117,-88.5 259.746,-34.4516 297.364,-4.5 450,-4.5 450,-4.5 450,-4.5 1574,-4.5 1742.6,-4.5 1784.93,-13.8244 1952,-36.5 1960.39,-37.6392 1969.17,-39.0192 1977.85,-40.5027"/>
<polygon fill="black" stroke="black" points="1977.52,-43.9986 1987.98,-42.2833 1978.74,-37.1043 1977.52,-43.9986"/>
</g>
<!-- EAID_873F31EF_135C_40ac_8C82_E96EEC76167F -->
<g id="node8" class="node"><title>EAID_873F31EF_135C_40ac_8C82_E96EEC76167F</title>
<image xlink:href="img/control1.png" width="106px" height="75px" preserveAspectRatio="xMinYMin meet" x="1237" y="-221.5"/>
<text text-anchor="start" x="1175.5" y="-123.3" font-family="Times New Roman,serif" font-size="24.00">Diplay security question</text>
</g>
<!-- EAID_C9D0CB5A_8329_433b_BA01_2B866BBACBD3&#45;&gt;EAID_873F31EF_135C_40ac_8C82_E96EEC76167F -->
<g id="edge9" class="edge"><title>EAID_C9D0CB5A_8329_433b_BA01_2B866BBACBD3&#45;&gt;EAID_873F31EF_135C_40ac_8C82_E96EEC76167F</title>
<path fill="none" stroke="black" d="M582.774,-318.563C722.011,-325.898 946.934,-324.875 1129,-263.5 1151.39,-255.953 1174.07,-244.992 1195.03,-233.198"/>
<polygon fill="black" stroke="black" points="1196.97,-236.117 1203.9,-228.1 1193.48,-230.048 1196.97,-236.117"/>
</g>
<!-- EAID_680921B2_D0A4_40ea_A66A_CCE4DF9FC058 -->
<g id="node11" class="node"><title>EAID_680921B2_D0A4_40ea_A66A_CCE4DF9FC058</title>
<image xlink:href="img/control1.png" width="106px" height="75px" preserveAspectRatio="xMinYMin meet" x="398" y="-224.5"/>
<text text-anchor="start" x="289" y="-126.3" font-family="Times New Roman,serif" font-size="24.00">Validates user name and password</text>
</g>
<!-- EAID_AF6F5BA6_E1D0_4586_9E0C_99B6A85C3AC7&#45;&gt;EAID_680921B2_D0A4_40ea_A66A_CCE4DF9FC058 -->
<g id="edge13" class="edge"><title>EAID_AF6F5BA6_E1D0_4586_9E0C_99B6A85C3AC7&#45;&gt;EAID_680921B2_D0A4_40ea_A66A_CCE4DF9FC058</title>
<path fill="none" stroke="black" d="M243.052,-170.961C251.169,-171.022 259.787,-171.086 268.72,-171.152"/>
<polygon fill="black" stroke="black" points="268.904,-174.654 278.93,-171.228 268.956,-167.654 268.904,-174.654"/>
</g>
<!-- EAID_BDB28458_A7FA_4eeb_8700_17A172EBD18C&#45;&gt;EAID_873F31EF_135C_40ac_8C82_E96EEC76167F -->
<g id="edge7" class="edge"><title>EAID_BDB28458_A7FA_4eeb_8700_17A172EBD18C&#45;&gt;EAID_873F31EF_135C_40ac_8C82_E96EEC76167F</title>
<path fill="none" stroke="black" d="M932.68,-100.043C992.757,-106.792 1064.79,-116.272 1129,-128.5 1137.47,-130.113 1146.16,-131.914 1154.89,-133.838"/>
<polygon fill="black" stroke="black" points="1154.24,-137.279 1164.77,-136.058 1155.78,-130.449 1154.24,-137.279"/>
</g>
<!-- EAID_0355387A_9070_4610_8F29_CA18B08BAE93 -->
<g id="node6" class="node"><title>EAID_0355387A_9070_4610_8F29_CA18B08BAE93</title>
<image xlink:href="img/control1.png" width="106px" height="75px" preserveAspectRatio="xMinYMin meet" x="1520" y="-169.5"/>
<text text-anchor="start" x="1460" y="-71.3" font-family="Times New Roman,serif" font-size="24.00">Authenticate the answer</text>
</g>
<!-- EAID_A18B6F9B_3273_49be_A46C_9463AF164D19 -->
<g id="node7" class="node"><title>EAID_A18B6F9B_3273_49be_A46C_9463AF164D19</title>
<image xlink:href="img/control1.png" width="106px" height="75px" preserveAspectRatio="xMinYMin meet" x="1789" y="-156.5"/>
<text text-anchor="start" x="1742" y="-58.3" font-family="Times New Roman,serif" font-size="24.00">Display confirmation</text>
</g>
<!-- EAID_0355387A_9070_4610_8F29_CA18B08BAE93&#45;&gt;EAID_A18B6F9B_3273_49be_A46C_9463AF164D19 -->
<g id="edge5" class="edge"><title>EAID_0355387A_9070_4610_8F29_CA18B08BAE93&#45;&gt;EAID_A18B6F9B_3273_49be_A46C_9463AF164D19</title>
<path fill="none" stroke="black" d="M1696.17,-111.552C1704.76,-111.134 1713.41,-110.712 1721.97,-110.295"/>
<polygon fill="black" stroke="black" points="1722.17,-113.79 1731.99,-109.808 1721.83,-106.798 1722.17,-113.79"/>
</g>
<!-- EAID_A18B6F9B_3273_49be_A46C_9463AF164D19&#45;&gt;EAID_9EFDFF1E_AFA4_489b_9E24_33DC4E452251 -->
<g id="edge10" class="edge"><title>EAID_A18B6F9B_3273_49be_A46C_9463AF164D19&#45;&gt;EAID_9EFDFF1E_AFA4_489b_9E24_33DC4E452251</title>
<path fill="none" stroke="black" d="M1952.1,-77.8897C1960.8,-75.7674 1969.44,-73.6606 1977.76,-71.6309"/>
<polygon fill="black" stroke="black" points="1978.85,-74.9675 1987.74,-69.1975 1977.2,-68.1668 1978.85,-74.9675"/>
</g>
<!-- EAID_873F31EF_135C_40ac_8C82_E96EEC76167F&#45;&gt;EAID_0355387A_9070_4610_8F29_CA18B08BAE93 -->
<g id="edge6" class="edge"><title>EAID_873F31EF_135C_40ac_8C82_E96EEC76167F&#45;&gt;EAID_0355387A_9070_4610_8F29_CA18B08BAE93</title>
<path fill="none" stroke="black" d="M1414.38,-146.616C1422.86,-145.05 1431.43,-143.468 1439.95,-141.893"/>
<polygon fill="black" stroke="black" points="1440.73,-145.309 1449.92,-140.05 1439.45,-138.425 1440.73,-145.309"/>
</g>
<!-- EAID_FEAF3103_8F5F_4b07_A5F3_0772C38D4468 -->
<g id="node9" class="node"><title>EAID_FEAF3103_8F5F_4b07_A5F3_0772C38D4468</title>
<image xlink:href="img/control1.png" width="106px" height="75px" preserveAspectRatio="xMinYMin meet" x="1001" y="-248.5"/>
<text text-anchor="start" x="989" y="-150.3" font-family="Times New Roman,serif" font-size="24.00">Recover page</text>
</g>
<!-- EAID_FEAF3103_8F5F_4b07_A5F3_0772C38D4468&#45;&gt;EAID_873F31EF_135C_40ac_8C82_E96EEC76167F -->
<g id="edge8" class="edge"><title>EAID_FEAF3103_8F5F_4b07_A5F3_0772C38D4468&#45;&gt;EAID_873F31EF_135C_40ac_8C82_E96EEC76167F</title>
<path fill="none" stroke="black" d="M1129.2,-187.92C1137.36,-186.977 1145.84,-185.996 1154.45,-185.001"/>
<polygon fill="black" stroke="black" points="1155.07,-188.452 1164.6,-183.827 1154.26,-181.499 1155.07,-188.452"/>
</g>
<!-- EAID_16936895_0F2F_4828_8EF2_CFCCC1912356 -->
<g id="node10" class="node"><title>EAID_16936895_0F2F_4828_8EF2_CFCCC1912356</title>
<image xlink:href="img/control1.png" width="106px" height="75px" preserveAspectRatio="xMinYMin meet" x="748" y="-270.5"/>
<text text-anchor="start" x="669" y="-172.3" font-family="Times New Roman,serif" font-size="24.00">Display incorrect user name</text>
</g>
<!-- EAID_16936895_0F2F_4828_8EF2_CFCCC1912356&#45;&gt;EAID_FEAF3103_8F5F_4b07_A5F3_0772C38D4468 -->
<g id="edge11" class="edge"><title>EAID_16936895_0F2F_4828_8EF2_CFCCC1912356&#45;&gt;EAID_FEAF3103_8F5F_4b07_A5F3_0772C38D4468</title>
<path fill="none" stroke="black" d="M943.273,-206.118C951.99,-205.353 960.605,-204.598 968.944,-203.867"/>
<polygon fill="black" stroke="black" points="969.312,-207.349 978.969,-202.989 968.701,-200.375 969.312,-207.349"/>
</g>
<!-- EAID_680921B2_D0A4_40ea_A66A_CCE4DF9FC058&#45;&gt;EAID_16936895_0F2F_4828_8EF2_CFCCC1912356 -->
<g id="edge12" class="edge"><title>EAID_680921B2_D0A4_40ea_A66A_CCE4DF9FC058&#45;&gt;EAID_16936895_0F2F_4828_8EF2_CFCCC1912356</title>
<path fill="none" stroke="black" d="M623.196,-195.129C631.775,-196.263 640.362,-197.398 648.875,-198.524"/>
<polygon fill="black" stroke="black" points="648.457,-201.999 658.83,-199.84 649.375,-195.059 648.457,-201.999"/>
</g>
</g>
</svg>
