<?xml version="1.0" encoding="UTF-8" standalone="no"?>
<!DOCTYPE svg PUBLIC "-//W3C//DTD SVG 1.1//EN"
 "http://www.w3.org/Graphics/SVG/1.1/DTD/svg11.dtd">
<!-- Generated by graphviz version 2.38.0 (20140413.2041)
 -->
<!-- Title: g Pages: 1 -->
<svg width="2926pt" height="408pt"
 viewBox="0.00 0.00 2926.00 408.00" xmlns="http://www.w3.org/2000/svg" xmlns:xlink="http://www.w3.org/1999/xlink">
<g id="graph0" class="graph" transform="scale(1 1) rotate(0) translate(4 404)">
<title>g</title>
<polygon fill="white" stroke="none" points="-4,4 -4,-404 2922,-404 2922,4 -4,4"/>
<g id="clust1" class="cluster"><title>cluster0</title>
<polygon fill="none" stroke="black" stroke-width="2" points="961,-91 961,-294 1265,-294 1265,-91 961,-91"/>
<text text-anchor="start" x="1091" y="-279.8" font-family="Times New Roman,serif" font-weight="bold" font-size="14.00">System</text>
</g>
<g id="clust3" class="cluster"><title>cluster1000</title>
<polygon fill="none" stroke="black" stroke-width="2" points="8,-8 8,-83 2910,-83 2910,-8 8,-8"/>
<text text-anchor="start" x="1413.5" y="-68.8" font-family="Times New Roman,serif" font-weight="bold" font-size="14.00">Domain Model</text>
</g>
<g id="clust2" class="cluster"><title>cluster1</title>
<polygon fill="none" stroke="black" stroke-width="2" points="950,-302 950,-392 1094,-392 1094,-302 950,-302"/>
<text text-anchor="start" x="1007.5" y="-377.8" font-family="Times New Roman,serif" font-weight="bold" font-size="14.00">User</text>
</g>
<!-- EAID_51DD8168_0FD9_44e6_B076_A95EFCDFC037___EAID_A9482750_AC36_48b9_8FB4_44DE7EFD7C46 -->
<g id="node1" class="node"><title>EAID_51DD8168_0FD9_44e6_B076_A95EFCDFC037___EAID_A9482750_AC36_48b9_8FB4_44DE7EFD7C46</title>
<image xlink:href="img/activity_icon.png" width="30px" height="20px" preserveAspectRatio="xMinYMin meet" x="1007.5" y="-250"/>
<text text-anchor="start" x="980" y="-215.8" font-family="Times New Roman,serif" font-weight="bold" font-size="14.00">User:VR Map</text>
</g>
<!-- EAID_A9482750_AC36_48b9_8FB4_44DE7EFD7C46___EAID_8625FB3A_5EFC_45e9_9CCD_ECBCC7641039 -->
<g id="node2" class="node"><title>EAID_A9482750_AC36_48b9_8FB4_44DE7EFD7C46___EAID_8625FB3A_5EFC_45e9_9CCD_ECBCC7641039</title>
<image xlink:href="img/activity_icon.png" width="30px" height="20px" preserveAspectRatio="xMinYMin meet" x="1030" y="-157"/>
<text text-anchor="start" x="979" y="-122.8" font-family="Times New Roman,serif" font-weight="bold" font-size="14.00">VR Map:Select battle</text>
<text text-anchor="start" x="1020.5" y="-108.8" font-family="Times New Roman,serif" font-weight="bold" font-size="14.00">location</text>
</g>
<!-- EAID_51DD8168_0FD9_44e6_B076_A95EFCDFC037___EAID_A9482750_AC36_48b9_8FB4_44DE7EFD7C46&#45;&gt;EAID_A9482750_AC36_48b9_8FB4_44DE7EFD7C46___EAID_8625FB3A_5EFC_45e9_9CCD_ECBCC7641039 -->
<g id="edge1" class="edge"><title>EAID_51DD8168_0FD9_44e6_B076_A95EFCDFC037___EAID_A9482750_AC36_48b9_8FB4_44DE7EFD7C46&#45;&gt;EAID_A9482750_AC36_48b9_8FB4_44DE7EFD7C46___EAID_8625FB3A_5EFC_45e9_9CCD_ECBCC7641039</title>
<path fill="none" stroke="black" d="M1027.8,-205.27C1030.11,-195.459 1032.82,-183.911 1035.4,-172.921"/>
<polygon fill="black" stroke="black" points="1038.84,-173.585 1037.71,-163.05 1032.02,-171.986 1038.84,-173.585"/>
</g>
<!-- EAID_D8C42AFA_CEFB_40b7_A674_DE63589A8B19 -->
<g id="node21" class="node"><title>EAID_D8C42AFA_CEFB_40b7_A674_DE63589A8B19</title>
<polygon fill="none" stroke="black" points="560,-23 560,-44 595,-44 595,-23 560,-23"/>
<text text-anchor="start" x="563" y="-30.8" font-family="Times New Roman,serif" font-weight="bold" font-size="14.00">Map</text>
<polygon fill="none" stroke="black" points="558.5,-22.5 558.5,-45.5 595.5,-45.5 595.5,-22.5 558.5,-22.5"/>
</g>
<!-- EAID_51DD8168_0FD9_44e6_B076_A95EFCDFC037___EAID_A9482750_AC36_48b9_8FB4_44DE7EFD7C46&#45;&gt;EAID_D8C42AFA_CEFB_40b7_A674_DE63589A8B19 -->
<g id="edge3" class="edge"><title>EAID_51DD8168_0FD9_44e6_B076_A95EFCDFC037___EAID_A9482750_AC36_48b9_8FB4_44DE7EFD7C46&#45;&gt;EAID_D8C42AFA_CEFB_40b7_A674_DE63589A8B19</title>
<path fill="none" stroke="black" stroke-dasharray="5,2" d="M1071.44,-205.434C1096.55,-191.828 1123.19,-175.244 1130,-163 1145.56,-135.037 1152.45,-113.802 1130,-91 1119.92,-80.7657 625.796,-89.5224 613,-83 603.495,-78.155 595.833,-69.5036 590.061,-60.867"/>
<polygon fill="black" stroke="black" points="592.894,-58.7874 584.732,-52.0324 586.9,-62.403 592.894,-58.7874"/>
</g>
<!-- EAID_4998CE95_6BF0_42b7_8984_BA5E8944C781 -->
<g id="node16" class="node"><title>EAID_4998CE95_6BF0_42b7_8984_BA5E8944C781</title>
<polygon fill="none" stroke="black" points="1157,-23 1157,-44 1218,-44 1218,-23 1157,-23"/>
<text text-anchor="start" x="1160" y="-30.8" font-family="Times New Roman,serif" font-weight="bold" font-size="14.00">Location</text>
<polygon fill="none" stroke="black" points="1155.5,-22.5 1155.5,-45.5 1218.5,-45.5 1218.5,-22.5 1155.5,-22.5"/>
</g>
<!-- EAID_A9482750_AC36_48b9_8FB4_44DE7EFD7C46___EAID_8625FB3A_5EFC_45e9_9CCD_ECBCC7641039&#45;&gt;EAID_4998CE95_6BF0_42b7_8984_BA5E8944C781 -->
<g id="edge4" class="edge"><title>EAID_A9482750_AC36_48b9_8FB4_44DE7EFD7C46___EAID_8625FB3A_5EFC_45e9_9CCD_ECBCC7641039&#45;&gt;EAID_4998CE95_6BF0_42b7_8984_BA5E8944C781</title>
<path fill="none" stroke="black" stroke-dasharray="5,2" d="M1113.78,-98.8756C1122.53,-93.9818 1131.16,-88.6543 1139,-83 1148.18,-76.3848 1157.22,-67.9809 1164.94,-60.0603"/>
<polygon fill="black" stroke="black" points="1167.87,-62.0623 1172.18,-52.3848 1162.77,-57.2609 1167.87,-62.0623"/>
</g>
<!-- EAID_89F2B8DC_A83A_45e8_BB81_B0AA3F7182CD___EAID_8625FB3A_5EFC_45e9_9CCD_ECBCC7641039 -->
<g id="node3" class="node"><title>EAID_89F2B8DC_A83A_45e8_BB81_B0AA3F7182CD___EAID_8625FB3A_5EFC_45e9_9CCD_ECBCC7641039</title>
<image xlink:href="img/activity_icon.png" width="30px" height="20px" preserveAspectRatio="xMinYMin meet" x="1160" y="-257"/>
<text text-anchor="start" x="1103" y="-222.8" font-family="Times New Roman,serif" font-weight="bold" font-size="14.00">VR scene library:Select</text>
<text text-anchor="start" x="1131" y="-208.8" font-family="Times New Roman,serif" font-weight="bold" font-size="14.00">battle location</text>
</g>
<!-- EAID_89F2B8DC_A83A_45e8_BB81_B0AA3F7182CD___EAID_8625FB3A_5EFC_45e9_9CCD_ECBCC7641039&#45;&gt;EAID_4998CE95_6BF0_42b7_8984_BA5E8944C781 -->
<g id="edge5" class="edge"><title>EAID_89F2B8DC_A83A_45e8_BB81_B0AA3F7182CD___EAID_8625FB3A_5EFC_45e9_9CCD_ECBCC7641039&#45;&gt;EAID_4998CE95_6BF0_42b7_8984_BA5E8944C781</title>
<path fill="none" stroke="black" stroke-dasharray="5,2" d="M1176.93,-198.67C1179.25,-160.911 1183.12,-98.0844 1185.32,-62.2497"/>
<polygon fill="black" stroke="black" points="1188.83,-62.249 1185.95,-52.0528 1181.84,-61.819 1188.83,-62.249"/>
</g>
<!-- EAID_51DD8168_0FD9_44e6_B076_A95EFCDFC037___EAID_A9482750_AC36_48b9_8FB4_44DE7EFD7C46_STL -->
<g id="node4" class="node"><title>EAID_51DD8168_0FD9_44e6_B076_A95EFCDFC037___EAID_A9482750_AC36_48b9_8FB4_44DE7EFD7C46_STL</title>
<image xlink:href="img/stimulus_icon.png" width="30px" height="20px" preserveAspectRatio="xMinYMin meet" x="1007.5" y="-354.5"/>
<text text-anchor="start" x="969" y="-320.3" font-family="Times New Roman,serif" font-weight="bold" font-size="14.00">stl#User:VR Map</text>
</g>
<!-- EAID_51DD8168_0FD9_44e6_B076_A95EFCDFC037___EAID_A9482750_AC36_48b9_8FB4_44DE7EFD7C46_STL&#45;&gt;EAID_51DD8168_0FD9_44e6_B076_A95EFCDFC037___EAID_A9482750_AC36_48b9_8FB4_44DE7EFD7C46 -->
<g id="edge2" class="edge"><title>EAID_51DD8168_0FD9_44e6_B076_A95EFCDFC037___EAID_A9482750_AC36_48b9_8FB4_44DE7EFD7C46_STL&#45;&gt;EAID_51DD8168_0FD9_44e6_B076_A95EFCDFC037___EAID_A9482750_AC36_48b9_8FB4_44DE7EFD7C46</title>
<path fill="none" stroke="black" d="M1022,-309.949C1022,-297.111 1022,-281.174 1022,-267.061"/>
<polygon fill="black" stroke="black" points="1025.5,-266.706 1022,-256.706 1018.5,-266.706 1025.5,-266.706"/>
</g>
<!-- EAID_BF5E151A_3C60_48f1_9CA0_F870C93F1C23 -->
<g id="node5" class="node"><title>EAID_BF5E151A_3C60_48f1_9CA0_F870C93F1C23</title>
<polygon fill="none" stroke="black" points="2858,-23 2858,-44 2893,-44 2893,-23 2858,-23"/>
<text text-anchor="start" x="2861" y="-30.8" font-family="Times New Roman,serif" font-weight="bold" font-size="14.00">User</text>
<polygon fill="none" stroke="black" points="2856.5,-22.5 2856.5,-45.5 2893.5,-45.5 2893.5,-22.5 2856.5,-22.5"/>
</g>
<!-- EAID_974FB299_6A5A_4951_B5B5_F51B0C4B8267 -->
<g id="node6" class="node"><title>EAID_974FB299_6A5A_4951_B5B5_F51B0C4B8267</title>
<polygon fill="none" stroke="black" points="2743,-23 2743,-44 2821,-44 2821,-23 2743,-23"/>
<text text-anchor="start" x="2746" y="-30.8" font-family="Times New Roman,serif" font-weight="bold" font-size="14.00">Show Rank</text>
<polygon fill="none" stroke="black" points="2742,-22.5 2742,-45.5 2822,-45.5 2822,-22.5 2742,-22.5"/>
</g>
<!-- EAID_C3EA7336_1F2F_47ea_BB66_D95DECA96D04 -->
<g id="node7" class="node"><title>EAID_C3EA7336_1F2F_47ea_BB66_D95DECA96D04</title>
<polygon fill="none" stroke="black" points="2589,-23 2589,-44 2707,-44 2707,-23 2589,-23"/>
<text text-anchor="start" x="2592" y="-30.8" font-family="Times New Roman,serif" font-weight="bold" font-size="14.00">Algortihm to scale</text>
<polygon fill="none" stroke="black" points="2588,-22.5 2588,-45.5 2708,-45.5 2708,-22.5 2588,-22.5"/>
</g>
<!-- EAID_FEAB27D4_69ED_4c75_B770_C9D08EF1E7A5 -->
<g id="node8" class="node"><title>EAID_FEAB27D4_69ED_4c75_B770_C9D08EF1E7A5</title>
<polygon fill="none" stroke="black" points="2369,-23 2369,-44 2553,-44 2553,-23 2369,-23"/>
<text text-anchor="start" x="2372" y="-30.8" font-family="Times New Roman,serif" font-weight="bold" font-size="14.00">Display score at end of battle</text>
<polygon fill="none" stroke="black" points="2368,-22.5 2368,-45.5 2554,-45.5 2554,-22.5 2368,-22.5"/>
</g>
<!-- EAID_8273AF7D_78C3_45c3_8CD8_F1443CD6978C -->
<g id="node9" class="node"><title>EAID_8273AF7D_78C3_45c3_8CD8_F1443CD6978C</title>
<polygon fill="none" stroke="black" points="2221,-23 2221,-44 2333,-44 2333,-23 2221,-23"/>
<text text-anchor="start" x="2224" y="-30.8" font-family="Times New Roman,serif" font-weight="bold" font-size="14.00">Update Database</text>
<polygon fill="none" stroke="black" points="2220,-22.5 2220,-45.5 2334,-45.5 2334,-22.5 2220,-22.5"/>
</g>
<!-- EAID_5B2568A1_712C_4e12_B51B_6281E5B501F8 -->
<g id="node10" class="node"><title>EAID_5B2568A1_712C_4e12_B51B_6281E5B501F8</title>
<polygon fill="none" stroke="black" points="1962,-23 1962,-44 2185,-44 2185,-23 1962,-23"/>
<text text-anchor="start" x="1965" y="-30.8" font-family="Times New Roman,serif" font-weight="bold" font-size="14.00">Count the number of enemies killed</text>
<polygon fill="none" stroke="black" points="1960.5,-22.5 1960.5,-45.5 2185.5,-45.5 2185.5,-22.5 1960.5,-22.5"/>
</g>
<!-- EAID_07A7CEE6_8A8C_4a3b_90F0_46EA39FE9CD9 -->
<g id="node11" class="node"><title>EAID_07A7CEE6_8A8C_4a3b_90F0_46EA39FE9CD9</title>
<polygon fill="none" stroke="black" points="1831,-23 1831,-44 1926,-44 1926,-23 1831,-23"/>
<text text-anchor="start" x="1834" y="-30.8" font-family="Times New Roman,serif" font-weight="bold" font-size="14.00">Single weapon</text>
<polygon fill="none" stroke="black" points="1829.5,-22.5 1829.5,-45.5 1926.5,-45.5 1926.5,-22.5 1829.5,-22.5"/>
</g>
<!-- EAID_5F6420DF_7B22_457c_ADA4_D9D9D55CB879 -->
<g id="node12" class="node"><title>EAID_5F6420DF_7B22_457c_ADA4_D9D9D55CB879</title>
<polygon fill="none" stroke="black" points="1702,-23 1702,-44 1795,-44 1795,-23 1702,-23"/>
<text text-anchor="start" x="1705" y="-30.8" font-family="Times New Roman,serif" font-weight="bold" font-size="14.00">Avatar&#39;s Page</text>
<polygon fill="none" stroke="black" points="1700.5,-22.5 1700.5,-45.5 1795.5,-45.5 1795.5,-22.5 1700.5,-22.5"/>
</g>
<!-- EAID_931A4E3F_F432_4fd1_927C_C030F3D9737B -->
<g id="node13" class="node"><title>EAID_931A4E3F_F432_4fd1_927C_C030F3D9737B</title>
<polygon fill="none" stroke="black" points="1541,-23 1541,-44 1666,-44 1666,-23 1541,-23"/>
<text text-anchor="start" x="1544" y="-30.8" font-family="Times New Roman,serif" font-weight="bold" font-size="14.00">Specify Credentials</text>
<polygon fill="none" stroke="black" points="1539.5,-22.5 1539.5,-45.5 1666.5,-45.5 1666.5,-22.5 1539.5,-22.5"/>
</g>
<!-- EAID_3E20DA63_525B_4224_BB9E_9534D0359C8D -->
<g id="node14" class="node"><title>EAID_3E20DA63_525B_4224_BB9E_9534D0359C8D</title>
<polygon fill="none" stroke="black" points="1354,-23 1354,-44 1504,-44 1504,-23 1354,-23"/>
<text text-anchor="start" x="1357" y="-30.8" font-family="Times New Roman,serif" font-weight="bold" font-size="14.00">check password format</text>
<polygon fill="none" stroke="black" points="1353,-22.5 1353,-45.5 1505,-45.5 1505,-22.5 1353,-22.5"/>
</g>
<!-- EAID_4DD41B17_9B81_4dce_A227_999219CC82AB -->
<g id="node15" class="node"><title>EAID_4DD41B17_9B81_4dce_A227_999219CC82AB</title>
<polygon fill="none" stroke="black" points="1254,-23 1254,-44 1318,-44 1318,-23 1254,-23"/>
<text text-anchor="start" x="1257" y="-30.8" font-family="Times New Roman,serif" font-weight="bold" font-size="14.00">AR mode</text>
<polygon fill="none" stroke="black" points="1253,-22.5 1253,-45.5 1319,-45.5 1319,-22.5 1253,-22.5"/>
</g>
<!-- EAID_D3CFF9D9_16DE_42ba_A3E4_A49314E45EA2 -->
<g id="node17" class="node"><title>EAID_D3CFF9D9_16DE_42ba_A3E4_A49314E45EA2</title>
<polygon fill="none" stroke="black" points="990,-23 990,-44 1121,-44 1121,-23 990,-23"/>
<text text-anchor="start" x="993" y="-30.8" font-family="Times New Roman,serif" font-weight="bold" font-size="14.00">Make Difficult to hit</text>
<polygon fill="none" stroke="black" points="988.5,-22.5 988.5,-45.5 1121.5,-45.5 1121.5,-22.5 988.5,-22.5"/>
</g>
<!-- EAID_0CEAFE9C_24D5_4399_883C_CA6EB019CA02 -->
<g id="node18" class="node"><title>EAID_0CEAFE9C_24D5_4399_883C_CA6EB019CA02</title>
<polygon fill="none" stroke="black" points="863,-23 863,-44 954,-44 954,-23 863,-23"/>
<text text-anchor="start" x="866" y="-30.8" font-family="Times New Roman,serif" font-weight="bold" font-size="14.00">Time Elapsed</text>
<polygon fill="none" stroke="black" points="861.5,-22.5 861.5,-45.5 954.5,-45.5 954.5,-22.5 861.5,-22.5"/>
</g>
<!-- EAID_83740E8F_D7B1_408d_9DCA_AAAFB7279B39 -->
<g id="node19" class="node"><title>EAID_83740E8F_D7B1_408d_9DCA_AAAFB7279B39</title>
<polygon fill="none" stroke="black" points="766,-23 766,-44 827,-44 827,-23 766,-23"/>
<text text-anchor="start" x="769" y="-30.8" font-family="Times New Roman,serif" font-weight="bold" font-size="14.00">Get level</text>
<polygon fill="none" stroke="black" points="764.5,-22.5 764.5,-45.5 827.5,-45.5 827.5,-22.5 764.5,-22.5"/>
</g>
<!-- EAID_4A2D3301_D9B3_4d72_A6EF_6134F3CC78A3 -->
<g id="node20" class="node"><title>EAID_4A2D3301_D9B3_4d72_A6EF_6134F3CC78A3</title>
<polygon fill="none" stroke="black" points="631,-23 631,-44 729,-44 729,-23 631,-23"/>
<text text-anchor="start" x="634" y="-30.8" font-family="Times New Roman,serif" font-weight="bold" font-size="14.00">Doug&#39;s E&#45;book</text>
<polygon fill="none" stroke="black" points="630,-22.5 630,-45.5 730,-45.5 730,-22.5 630,-22.5"/>
</g>
<!-- EAID_43838F35_58A6_4e13_A05C_EAFE96ED98FA -->
<g id="node22" class="node"><title>EAID_43838F35_58A6_4e13_A05C_EAFE96ED98FA</title>
<polygon fill="none" stroke="black" points="477,-23 477,-44 523,-44 523,-23 477,-23"/>
<text text-anchor="start" x="480" y="-30.8" font-family="Times New Roman,serif" font-weight="bold" font-size="14.00">Places</text>
<polygon fill="none" stroke="black" points="476,-22.5 476,-45.5 524,-45.5 524,-22.5 476,-22.5"/>
</g>
<!-- EAID_89F2B8DC_A83A_45e8_BB81_B0AA3F7182CD -->
<g id="node23" class="node"><title>EAID_89F2B8DC_A83A_45e8_BB81_B0AA3F7182CD</title>
<polygon fill="none" stroke="black" points="332,-23 332,-44 441,-44 441,-23 332,-23"/>
<text text-anchor="start" x="335" y="-30.8" font-family="Times New Roman,serif" font-weight="bold" font-size="14.00">VR scene library</text>
<polygon fill="none" stroke="black" points="330.5,-22.5 330.5,-45.5 441.5,-45.5 441.5,-22.5 330.5,-22.5"/>
</g>
<!-- EAID_971A2E65_E86B_4791_A05C_69F32AF0A809 -->
<g id="node24" class="node"><title>EAID_971A2E65_E86B_4791_A05C_69F32AF0A809</title>
<polygon fill="none" stroke="black" points="260,-23 260,-44 295,-44 295,-23 260,-23"/>
<text text-anchor="start" x="263" y="-30.8" font-family="Times New Roman,serif" font-weight="bold" font-size="14.00">GPS</text>
<polygon fill="none" stroke="black" points="258.5,-22.5 258.5,-45.5 295.5,-45.5 295.5,-22.5 258.5,-22.5"/>
</g>
<!-- EAID_EF32C35B_857E_42e0_BFCA_CEFD99C67258 -->
<g id="node25" class="node"><title>EAID_EF32C35B_857E_42e0_BFCA_CEFD99C67258</title>
<polygon fill="none" stroke="black" points="146,-23 146,-44 223,-44 223,-23 146,-23"/>
<text text-anchor="start" x="149" y="-30.8" font-family="Times New Roman,serif" font-weight="bold" font-size="14.00">if in Hawaii</text>
<polygon fill="none" stroke="black" points="144.5,-22.5 144.5,-45.5 223.5,-45.5 223.5,-22.5 144.5,-22.5"/>
</g>
<!-- EAID_4A577807_AA4A_4c30_99C2_F9A15F0651EC -->
<g id="node26" class="node"><title>EAID_4A577807_AA4A_4c30_99C2_F9A15F0651EC</title>
<polygon fill="none" stroke="black" points="25,-23 25,-44 109,-44 109,-23 25,-23"/>
<text text-anchor="start" x="28" y="-30.8" font-family="Times New Roman,serif" font-weight="bold" font-size="14.00">Achivements</text>
<polygon fill="none" stroke="black" points="24,-22.5 24,-45.5 110,-45.5 110,-22.5 24,-22.5"/>
</g>
</g>
</svg>
