<?xml version="1.0" encoding="UTF-8" standalone="no"?>
<!DOCTYPE svg PUBLIC "-//W3C//DTD SVG 1.1//EN"
 "http://www.w3.org/Graphics/SVG/1.1/DTD/svg11.dtd">
<!-- Generated by graphviz version 2.38.0 (20140413.2041)
 -->
<!-- Title: g Pages: 1 -->
<svg width="1494pt" height="206pt"
 viewBox="0.00 0.00 1494.00 205.50" xmlns="http://www.w3.org/2000/svg" xmlns:xlink="http://www.w3.org/1999/xlink">
<g id="graph0" class="graph" transform="scale(1 1) rotate(0) translate(4 201.5)">
<title>g</title>
<polygon fill="white" stroke="none" points="-4,4 -4,-201.5 1490,-201.5 1490,4 -4,4"/>
<!-- EAID_BAD84758_BC64_4dd9_9F2C_50A996286104 -->
<g id="node1" class="node"><title>EAID_BAD84758_BC64_4dd9_9F2C_50A996286104</title>
<image xlink:href="img/actor1.png" width="61px" height="90px" preserveAspectRatio="xMinYMin meet" x="10.5" y="-172.5"/>
<text text-anchor="start" x="19" y="-59.3" font-family="Times New Roman,serif" font-size="24.00">User</text>
</g>
<!-- EAID_381643D1_4F9F_4fef_B8E1_C85F74641E34 -->
<g id="node2" class="node"><title>EAID_381643D1_4F9F_4fef_B8E1_C85F74641E34</title>
<image xlink:href="img/boundary3.png" width="115px" height="67px" preserveAspectRatio="xMinYMin meet" x="681.5" y="-160.5"/>
<text text-anchor="start" x="677" y="-70.3" font-family="Times New Roman,serif" font-size="24.00">Confirm Box</text>
</g>
<!-- EAID_BAD84758_BC64_4dd9_9F2C_50A996286104&#45;&gt;EAID_381643D1_4F9F_4fef_B8E1_C85F74641E34 -->
<g id="edge1" class="edge"><title>EAID_BAD84758_BC64_4dd9_9F2C_50A996286104&#45;&gt;EAID_381643D1_4F9F_4fef_B8E1_C85F74641E34</title>
<path fill="none" stroke="black" d="M81.098,-124.922C92.5649,-127.99 105.18,-130.864 117,-132.5 343.295,-163.815 403.938,-161.652 631,-136.5 639.364,-135.573 648.03,-134.251 656.644,-132.698"/>
<polygon fill="black" stroke="black" points="657.544,-136.089 666.711,-130.778 656.232,-129.213 657.544,-136.089"/>
</g>
<!-- EAID_0A50B7A2_18D1_49ad_914B_5E275B0DA079 -->
<g id="node3" class="node"><title>EAID_0A50B7A2_18D1_49ad_914B_5E275B0DA079</title>
<image xlink:href="img/boundary3.png" width="115px" height="67px" preserveAspectRatio="xMinYMin meet" x="166.5" y="-117.5"/>
<text text-anchor="start" x="127.5" y="-27.3" font-family="Times New Roman,serif" font-size="24.00">Delete Event Button</text>
</g>
<!-- EAID_BAD84758_BC64_4dd9_9F2C_50A996286104&#45;&gt;EAID_0A50B7A2_18D1_49ad_914B_5E275B0DA079 -->
<g id="edge2" class="edge"><title>EAID_BAD84758_BC64_4dd9_9F2C_50A996286104&#45;&gt;EAID_0A50B7A2_18D1_49ad_914B_5E275B0DA079</title>
<path fill="none" stroke="black" d="M81.2212,-103.063C89.169,-101.175 97.8894,-99.1036 106.975,-96.9452"/>
<polygon fill="black" stroke="black" points="108.038,-100.29 116.958,-94.5736 106.42,-93.4798 108.038,-100.29"/>
</g>
<!-- EAID_2759DB9E_E863_4484_AB51_CA94AC1EA69C -->
<g id="node4" class="node"><title>EAID_2759DB9E_E863_4484_AB51_CA94AC1EA69C</title>
<image xlink:href="img/control1.png" width="106px" height="75px" preserveAspectRatio="xMinYMin meet" x="952" y="-164.5"/>
<text text-anchor="start" x="857.5" y="-66.3" font-family="Times New Roman,serif" font-size="24.00">Close warning and delete event</text>
</g>
<!-- EAID_381643D1_4F9F_4fef_B8E1_C85F74641E34&#45;&gt;EAID_2759DB9E_E863_4484_AB51_CA94AC1EA69C -->
<g id="edge5" class="edge"><title>EAID_381643D1_4F9F_4fef_B8E1_C85F74641E34&#45;&gt;EAID_2759DB9E_E863_4484_AB51_CA94AC1EA69C</title>
<path fill="none" stroke="black" d="M811.307,-112.5C819.502,-112.5 828.095,-112.5 836.912,-112.5"/>
<polygon fill="black" stroke="black" points="836.953,-116 846.953,-112.5 836.953,-109 836.953,-116"/>
</g>
<!-- EAID_20207C84_7981_430d_9676_26CE3BA15CEC -->
<g id="node7" class="node"><title>EAID_20207C84_7981_430d_9676_26CE3BA15CEC</title>
<image xlink:href="img/control1.png" width="106px" height="75px" preserveAspectRatio="xMinYMin meet" x="446" y="-121.5"/>
<text text-anchor="start" x="376.5" y="-23.3" font-family="Times New Roman,serif" font-size="24.00">Show warning of deletion</text>
</g>
<!-- EAID_0A50B7A2_18D1_49ad_914B_5E275B0DA079&#45;&gt;EAID_20207C84_7981_430d_9676_26CE3BA15CEC -->
<g id="edge7" class="edge"><title>EAID_0A50B7A2_18D1_49ad_914B_5E275B0DA079&#45;&gt;EAID_20207C84_7981_430d_9676_26CE3BA15CEC</title>
<path fill="none" stroke="black" d="M330.049,-62.9067C338.461,-62.8202 347.038,-62.7695 355.644,-62.7546"/>
<polygon fill="black" stroke="black" points="355.751,-66.2547 365.751,-62.7536 355.751,-59.2547 355.751,-66.2547"/>
</g>
<!-- EAID_AB5CA96A_CB67_432f_A87F_2AD056C5DD8C -->
<g id="node5" class="node"><title>EAID_AB5CA96A_CB67_432f_A87F_2AD056C5DD8C</title>
<image xlink:href="img/activity_icon.png" width="30px" height="20px" preserveAspectRatio="xMinYMin meet" x="1261.5" y="-191.5"/>
<text text-anchor="start" x="1246" y="-149.3" font-family="Times New Roman,serif" font-weight="bold" font-size="24.00">Event</text>
</g>
<!-- EAID_2759DB9E_E863_4484_AB51_CA94AC1EA69C&#45;&gt;EAID_AB5CA96A_CB67_432f_A87F_2AD056C5DD8C -->
<g id="edge3" class="edge"><title>EAID_2759DB9E_E863_4484_AB51_CA94AC1EA69C&#45;&gt;EAID_AB5CA96A_CB67_432f_A87F_2AD056C5DD8C</title>
<path fill="none" stroke="black" d="M1162.27,-143.912C1185.13,-148.493 1207.13,-152.9 1225.52,-156.586"/>
<polygon fill="black" stroke="black" points="1224.86,-160.023 1235.35,-158.556 1226.23,-153.159 1224.86,-160.023"/>
</g>
<!-- EAID_3114C8CC_36B2_479d_A73A_B2361985E28F -->
<g id="node6" class="node"><title>EAID_3114C8CC_36B2_479d_A73A_B2361985E28F</title>
<image xlink:href="img/control1.png" width="106px" height="75px" preserveAspectRatio="xMinYMin meet" x="1223" y="-110.5"/>
<text text-anchor="start" x="1208" y="-12.3" font-family="Times New Roman,serif" font-size="24.00">Delete Picture</text>
</g>
<!-- EAID_2759DB9E_E863_4484_AB51_CA94AC1EA69C&#45;&gt;EAID_3114C8CC_36B2_479d_A73A_B2361985E28F -->
<g id="edge4" class="edge"><title>EAID_2759DB9E_E863_4484_AB51_CA94AC1EA69C&#45;&gt;EAID_3114C8CC_36B2_479d_A73A_B2361985E28F</title>
<path fill="none" stroke="black" d="M1162.27,-81.088C1171,-79.3395 1179.6,-77.6163 1187.92,-75.949"/>
<polygon fill="black" stroke="black" points="1188.8,-79.3414 1197.92,-73.9449 1187.43,-72.4778 1188.8,-79.3414"/>
</g>
<!-- EAID_CAF99267_9172_461d_96D6_D5C375AFAEFD -->
<g id="node8" class="node"><title>EAID_CAF99267_9172_461d_96D6_D5C375AFAEFD</title>
<image xlink:href="img/activity_icon.png" width="30px" height="20px" preserveAspectRatio="xMinYMin meet" x="1423" y="-83.5"/>
<text text-anchor="start" x="1400" y="-41.3" font-family="Times New Roman,serif" font-weight="bold" font-size="24.00">Picture</text>
</g>
<!-- EAID_3114C8CC_36B2_479d_A73A_B2361985E28F&#45;&gt;EAID_CAF99267_9172_461d_96D6_D5C375AFAEFD -->
<g id="edge9" class="edge"><title>EAID_3114C8CC_36B2_479d_A73A_B2361985E28F&#45;&gt;EAID_CAF99267_9172_461d_96D6_D5C375AFAEFD</title>
<path fill="none" stroke="black" d="M1354.19,-58.5C1362.73,-58.5 1371.31,-58.5 1379.55,-58.5"/>
<polygon fill="black" stroke="black" points="1379.77,-62.0001 1389.77,-58.5 1379.77,-55.0001 1379.77,-62.0001"/>
</g>
<!-- EAID_20207C84_7981_430d_9676_26CE3BA15CEC&#45;&gt;EAID_381643D1_4F9F_4fef_B8E1_C85F74641E34 -->
<g id="edge6" class="edge"><title>EAID_20207C84_7981_430d_9676_26CE3BA15CEC&#45;&gt;EAID_381643D1_4F9F_4fef_B8E1_C85F74641E34</title>
<path fill="none" stroke="black" d="M631.306,-93.2638C639.961,-94.8242 648.527,-96.3685 656.818,-97.8634"/>
<polygon fill="black" stroke="black" points="656.32,-101.33 666.783,-99.66 657.563,-94.4411 656.32,-101.33"/>
</g>
<!-- EAID_20207C84_7981_430d_9676_26CE3BA15CEC&#45;&gt;EAID_0A50B7A2_18D1_49ad_914B_5E275B0DA079 -->
<g id="edge8" class="edge"><title>EAID_20207C84_7981_430d_9676_26CE3BA15CEC&#45;&gt;EAID_0A50B7A2_18D1_49ad_914B_5E275B0DA079</title>
<path fill="none" stroke="black" d="M365.751,-76.2464C357.238,-76.2594 348.699,-76.2374 340.269,-76.1803"/>
<polygon fill="black" stroke="black" points="340.078,-72.6787 330.049,-76.0933 340.019,-79.6784 340.078,-72.6787"/>
</g>
</g>
</svg>
