<?xml version="1.0" encoding="UTF-8" standalone="no"?>
<!DOCTYPE svg PUBLIC "-//W3C//DTD SVG 1.1//EN"
 "http://www.w3.org/Graphics/SVG/1.1/DTD/svg11.dtd">
<!-- Generated by graphviz version 2.38.0 (20140413.2041)
 -->
<!-- Title: g Pages: 1 -->
<svg width="1208pt" height="399pt"
 viewBox="0.00 0.00 1208.00 399.00" xmlns="http://www.w3.org/2000/svg" xmlns:xlink="http://www.w3.org/1999/xlink">
<g id="graph0" class="graph" transform="scale(1 1) rotate(0) translate(4 395)">
<title>g</title>
<polygon fill="white" stroke="none" points="-4,4 -4,-395 1204,-395 1204,4 -4,4"/>
<!-- EAID_BEB62339_EE17_4ff3_92C9_CE5644E7B9EC -->
<g id="node1" class="node"><title>EAID_BEB62339_EE17_4ff3_92C9_CE5644E7B9EC</title>
<image xlink:href="img/actor1.png" width="61px" height="90px" preserveAspectRatio="xMinYMin meet" x="10.5" y="-272.5"/>
<text text-anchor="start" x="19" y="-159.3" font-family="Times New Roman,serif" font-size="24.00">User</text>
</g>
<!-- EAID_75EB0ACE_CACA_4c57_B779_DC6D369C8E55 -->
<g id="node2" class="node"><title>EAID_75EB0ACE_CACA_4c57_B779_DC6D369C8E55</title>
<image xlink:href="img/boundary3.png" width="115px" height="67px" preserveAspectRatio="xMinYMin meet" x="164.5" y="-195.5"/>
<text text-anchor="start" x="127" y="-105.3" font-family="Times New Roman,serif" font-size="24.00">Student course page</text>
</g>
<!-- EAID_BEB62339_EE17_4ff3_92C9_CE5644E7B9EC&#45;&gt;EAID_75EB0ACE_CACA_4c57_B779_DC6D369C8E55 -->
<g id="edge1" class="edge"><title>EAID_BEB62339_EE17_4ff3_92C9_CE5644E7B9EC&#45;&gt;EAID_75EB0ACE_CACA_4c57_B779_DC6D369C8E55</title>
<path fill="none" stroke="black" d="M81.3369,-198.074C89.3092,-195.187 98.052,-192.022 107.152,-188.726"/>
<polygon fill="black" stroke="black" points="108.536,-191.948 116.746,-185.252 106.152,-185.366 108.536,-191.948"/>
</g>
<!-- EAID_DC06BE5B_DBEF_4325_952E_F44DDE313B6C -->
<g id="node3" class="node"><title>EAID_DC06BE5B_DBEF_4325_952E_F44DDE313B6C</title>
<image xlink:href="img/control1.png" width="106px" height="75px" preserveAspectRatio="xMinYMin meet" x="169" y="-330.5"/>
<text text-anchor="start" x="132" y="-232.3" font-family="Times New Roman,serif" font-size="24.00">Send student detail</text>
</g>
<!-- EAID_BEB62339_EE17_4ff3_92C9_CE5644E7B9EC&#45;&gt;EAID_DC06BE5B_DBEF_4325_952E_F44DDE313B6C -->
<g id="edge2" class="edge"><title>EAID_BEB62339_EE17_4ff3_92C9_CE5644E7B9EC&#45;&gt;EAID_DC06BE5B_DBEF_4325_952E_F44DDE313B6C</title>
<path fill="none" stroke="black" d="M81.3369,-227.148C90.7633,-230.614 101.267,-234.476 112.164,-238.482"/>
<polygon fill="black" stroke="black" points="111.231,-241.868 121.824,-242.034 113.647,-235.298 111.231,-241.868"/>
</g>
<!-- EAID_95AA583E_EF6C_466d_9D4E_87884690B17C -->
<g id="node4" class="node"><title>EAID_95AA583E_EF6C_466d_9D4E_87884690B17C</title>
<image xlink:href="img/boundary3.png" width="102px" height="67px" preserveAspectRatio="xMinYMin meet" x="1088" y="-384.5"/>
<text text-anchor="start" x="1088" y="-294.3" font-family="Times New Roman,serif" font-size="24.00">Homepage</text>
</g>
<!-- EAID_BEB62339_EE17_4ff3_92C9_CE5644E7B9EC&#45;&gt;EAID_95AA583E_EF6C_466d_9D4E_87884690B17C -->
<g id="edge3" class="edge"><title>EAID_BEB62339_EE17_4ff3_92C9_CE5644E7B9EC&#45;&gt;EAID_95AA583E_EF6C_466d_9D4E_87884690B17C</title>
<path fill="none" stroke="black" d="M62.9669,-278.78C74.7498,-304.341 92.1541,-331.086 117,-346.5 252.772,-430.733 316.221,-365.5 476,-365.5 476,-365.5 476,-365.5 704.5,-365.5 832.793,-365.5 981.969,-352.699 1067.65,-344.106"/>
<polygon fill="black" stroke="black" points="1068.18,-347.571 1077.77,-343.081 1067.47,-340.606 1068.18,-347.571"/>
</g>
<!-- EAID_6B7880ED_3C3A_4ee2_B027_4148620B3AF9 -->
<g id="node5" class="node"><title>EAID_6B7880ED_3C3A_4ee2_B027_4148620B3AF9</title>
<image xlink:href="img/control1.png" width="106px" height="75px" preserveAspectRatio="xMinYMin meet" x="424" y="-110.5"/>
<text text-anchor="start" x="379" y="-12.3" font-family="Times New Roman,serif" font-size="24.00">Confirm information</text>
</g>
<!-- EAID_BEB62339_EE17_4ff3_92C9_CE5644E7B9EC&#45;&gt;EAID_6B7880ED_3C3A_4ee2_B027_4148620B3AF9 -->
<g id="edge4" class="edge"><title>EAID_BEB62339_EE17_4ff3_92C9_CE5644E7B9EC&#45;&gt;EAID_6B7880ED_3C3A_4ee2_B027_4148620B3AF9</title>
<path fill="none" stroke="black" d="M64.8141,-146.473C76.6666,-122.613 93.6279,-98.0038 117,-83.5 188.362,-39.2152 283.769,-34.5454 358.29,-40.0975"/>
<polygon fill="black" stroke="black" points="358.41,-43.6189 368.662,-40.9457 358.981,-36.6422 358.41,-43.6189"/>
</g>
<!-- EAID_ED7AAAB7_A9F5_45ab_9A2F_0970671C56CA -->
<g id="node9" class="node"><title>EAID_ED7AAAB7_A9F5_45ab_9A2F_0970671C56CA</title>
<image xlink:href="img/control1.png" width="106px" height="75px" preserveAspectRatio="xMinYMin meet" x="424" y="-245.5"/>
<text text-anchor="start" x="373" y="-147.3" font-family="Times New Roman,serif" font-size="24.00">Request student detail</text>
</g>
<!-- EAID_75EB0ACE_CACA_4c57_B779_DC6D369C8E55&#45;&gt;EAID_ED7AAAB7_A9F5_45ab_9A2F_0970671C56CA -->
<g id="edge11" class="edge"><title>EAID_75EB0ACE_CACA_4c57_B779_DC6D369C8E55&#45;&gt;EAID_ED7AAAB7_A9F5_45ab_9A2F_0970671C56CA</title>
<path fill="none" stroke="black" d="M327,-166.409C335.615,-167.975 344.374,-169.568 353.11,-171.156"/>
<polygon fill="black" stroke="black" points="352.49,-174.601 362.954,-172.946 353.742,-167.714 352.49,-174.601"/>
</g>
<!-- EAID_69953B26_E80C_45f2_8E56_2558DEA6CB78 -->
<g id="node8" class="node"><title>EAID_69953B26_E80C_45f2_8E56_2558DEA6CB78</title>
<image xlink:href="img/control1.png" width="106px" height="75px" preserveAspectRatio="xMinYMin meet" x="651" y="-270.5"/>
<text text-anchor="start" x="637.5" y="-172.3" font-family="Times New Roman,serif" font-size="24.00">Display detail</text>
</g>
<!-- EAID_DC06BE5B_DBEF_4325_952E_F44DDE313B6C&#45;&gt;EAID_69953B26_E80C_45f2_8E56_2558DEA6CB78 -->
<g id="edge9" class="edge"><title>EAID_DC06BE5B_DBEF_4325_952E_F44DDE313B6C&#45;&gt;EAID_69953B26_E80C_45f2_8E56_2558DEA6CB78</title>
<path fill="none" stroke="black" d="M322.062,-281.933C396.742,-282.532 501.28,-279.113 591,-260.5 599.609,-258.714 608.433,-256.363 617.163,-253.685"/>
<polygon fill="black" stroke="black" points="618.514,-256.927 626.963,-250.534 616.372,-250.263 618.514,-256.927"/>
</g>
<!-- EAID_9E78A8EE_87CB_448f_B568_79BFF4E7F77A -->
<g id="node6" class="node"><title>EAID_9E78A8EE_87CB_448f_B568_79BFF4E7F77A</title>
<image xlink:href="img/control1.png" width="106px" height="75px" preserveAspectRatio="xMinYMin meet" x="876" y="-270.5"/>
<text text-anchor="start" x="826" y="-172.3" font-family="Times New Roman,serif" font-size="24.00">Display confirmation </text>
</g>
<!-- EAID_6B7880ED_3C3A_4ee2_B027_4148620B3AF9&#45;&gt;EAID_9E78A8EE_87CB_448f_B568_79BFF4E7F77A -->
<g id="edge5" class="edge"><title>EAID_6B7880ED_3C3A_4ee2_B027_4148620B3AF9&#45;&gt;EAID_9E78A8EE_87CB_448f_B568_79BFF4E7F77A</title>
<path fill="none" stroke="black" d="M585.052,-87.2967C643.336,-103.925 716.342,-126.306 780,-150.5 788.73,-153.818 797.671,-157.411 806.622,-161.154"/>
<polygon fill="black" stroke="black" points="805.374,-164.426 815.947,-165.104 808.104,-157.981 805.374,-164.426"/>
</g>
<!-- EAID_9E78A8EE_87CB_448f_B568_79BFF4E7F77A&#45;&gt;EAID_95AA583E_EF6C_466d_9D4E_87884690B17C -->
<g id="edge7" class="edge"><title>EAID_9E78A8EE_87CB_448f_B568_79BFF4E7F77A&#45;&gt;EAID_95AA583E_EF6C_466d_9D4E_87884690B17C</title>
<path fill="none" stroke="black" d="M1033.39,-277.154C1045.38,-283.955 1057.38,-290.761 1068.75,-297.213"/>
<polygon fill="black" stroke="black" points="1067.3,-300.413 1077.72,-302.303 1070.75,-294.325 1067.3,-300.413"/>
</g>
<!-- EAID_B1AD8792_A7A5_4ef6_BAF0_7396CDE81D59 -->
<g id="node7" class="node"><title>EAID_B1AD8792_A7A5_4ef6_BAF0_7396CDE81D59</title>
<image xlink:href="img/activity_icon.png" width="30px" height="20px" preserveAspectRatio="xMinYMin meet" x="1124.5" y="-243.5"/>
<text text-anchor="start" x="1092" y="-201.3" font-family="Times New Roman,serif" font-weight="bold" font-size="24.00">Database</text>
</g>
<!-- EAID_9E78A8EE_87CB_448f_B568_79BFF4E7F77A&#45;&gt;EAID_B1AD8792_A7A5_4ef6_BAF0_7396CDE81D59 -->
<g id="edge6" class="edge"><title>EAID_9E78A8EE_87CB_448f_B568_79BFF4E7F77A&#45;&gt;EAID_B1AD8792_A7A5_4ef6_BAF0_7396CDE81D59</title>
<path fill="none" stroke="black" d="M1042.22,-218.5C1052.05,-218.5 1061.78,-218.5 1071.05,-218.5"/>
<polygon fill="black" stroke="black" points="1071.32,-222 1081.32,-218.5 1071.32,-215 1071.32,-222"/>
</g>
<!-- EAID_69953B26_E80C_45f2_8E56_2558DEA6CB78&#45;&gt;EAID_9E78A8EE_87CB_448f_B568_79BFF4E7F77A -->
<g id="edge8" class="edge"><title>EAID_69953B26_E80C_45f2_8E56_2558DEA6CB78&#45;&gt;EAID_9E78A8EE_87CB_448f_B568_79BFF4E7F77A</title>
<path fill="none" stroke="black" d="M780.167,-218.5C788.45,-218.5 797.029,-218.5 805.694,-218.5"/>
<polygon fill="black" stroke="black" points="805.892,-222 815.892,-218.5 805.892,-215 805.892,-222"/>
</g>
<!-- EAID_ED7AAAB7_A9F5_45ab_9A2F_0970671C56CA&#45;&gt;EAID_69953B26_E80C_45f2_8E56_2558DEA6CB78 -->
<g id="edge10" class="edge"><title>EAID_ED7AAAB7_A9F5_45ab_9A2F_0970671C56CA&#45;&gt;EAID_69953B26_E80C_45f2_8E56_2558DEA6CB78</title>
<path fill="none" stroke="black" d="M591.237,-206.11C599.836,-207.067 608.428,-208.024 616.81,-208.958"/>
<polygon fill="black" stroke="black" points="616.591,-212.455 626.917,-210.083 617.366,-205.498 616.591,-212.455"/>
</g>
</g>
</svg>
