<?xml version="1.0" encoding="UTF-8" standalone="no"?>
<!DOCTYPE svg PUBLIC "-//W3C//DTD SVG 1.1//EN"
 "http://www.w3.org/Graphics/SVG/1.1/DTD/svg11.dtd">
<!-- Generated by graphviz version 2.38.0 (20140413.2041)
 -->
<!-- Title: g Pages: 1 -->
<svg width="2633pt" height="843pt"
 viewBox="0.00 0.00 2632.50 843.00" xmlns="http://www.w3.org/2000/svg" xmlns:xlink="http://www.w3.org/1999/xlink">
<g id="graph0" class="graph" transform="scale(1 1) rotate(0) translate(4 839)">
<title>g</title>
<polygon fill="white" stroke="none" points="-4,4 -4,-839 2628.5,-839 2628.5,4 -4,4"/>
<g id="clust1" class="cluster"><title>cluster0</title>
<polygon fill="none" stroke="black" stroke-width="2" points="79.5,-64 79.5,-581 481.5,-581 481.5,-64 79.5,-64"/>
<text text-anchor="start" x="258.5" y="-566.8" font-family="Times New Roman,serif" font-weight="bold" font-size="14.00">System</text>
</g>
<g id="clust3" class="cluster"><title>cluster1000</title>
<polygon fill="none" stroke="black" stroke-width="2" points="514.5,-589 514.5,-827 2616.5,-827 2616.5,-589 514.5,-589"/>
<text text-anchor="start" x="1520" y="-812.8" font-family="Times New Roman,serif" font-weight="bold" font-size="14.00">Domain Model</text>
</g>
<g id="clust2" class="cluster"><title>cluster1</title>
<polygon fill="none" stroke="black" stroke-width="2" points="54.5,-656.5 54.5,-759.5 506.5,-759.5 506.5,-656.5 54.5,-656.5"/>
<text text-anchor="start" x="260.5" y="-745.3" font-family="Times New Roman,serif" font-weight="bold" font-size="14.00">Admin</text>
</g>
<!-- EAID_3397D48E_64F1_4203_8534_37361851C29B___EAID_E7F3CADE_303C_48f1_82D7_E5D23E66EA9B -->
<g id="node1" class="node"><title>EAID_3397D48E_64F1_4203_8534_37361851C29B___EAID_E7F3CADE_303C_48f1_82D7_E5D23E66EA9B</title>
<image xlink:href="img/activity_icon.png" width="30px" height="20px" preserveAspectRatio="xMinYMin meet" x="364" y="-323"/>
<text text-anchor="start" x="294.5" y="-288.8" font-family="Times New Roman,serif" font-weight="bold" font-size="14.00">Admin:System Setting Page</text>
</g>
<!-- EAID_E7F3CADE_303C_48f1_82D7_E5D23E66EA9B___EAID_B27A6C70_3A85_4222_B258_1AFE855DEC93 -->
<g id="node6" class="node"><title>EAID_E7F3CADE_303C_48f1_82D7_E5D23E66EA9B___EAID_B27A6C70_3A85_4222_B258_1AFE855DEC93</title>
<image xlink:href="img/activity_icon.png" width="30px" height="20px" preserveAspectRatio="xMinYMin meet" x="235.5" y="-230"/>
<text text-anchor="start" x="169.5" y="-195.8" font-family="Times New Roman,serif" font-weight="bold" font-size="14.00">System Setting Page:Store</text>
<text text-anchor="start" x="202" y="-181.8" font-family="Times New Roman,serif" font-weight="bold" font-size="14.00">System Settings</text>
</g>
<!-- EAID_3397D48E_64F1_4203_8534_37361851C29B___EAID_E7F3CADE_303C_48f1_82D7_E5D23E66EA9B&#45;&gt;EAID_E7F3CADE_303C_48f1_82D7_E5D23E66EA9B___EAID_B27A6C70_3A85_4222_B258_1AFE855DEC93 -->
<g id="edge1" class="edge"><title>EAID_3397D48E_64F1_4203_8534_37361851C29B___EAID_E7F3CADE_303C_48f1_82D7_E5D23E66EA9B&#45;&gt;EAID_E7F3CADE_303C_48f1_82D7_E5D23E66EA9B___EAID_B27A6C70_3A85_4222_B258_1AFE855DEC93</title>
<path fill="none" stroke="black" d="M346.2,-278.27C331.947,-267.358 314.888,-254.297 299.145,-242.244"/>
<polygon fill="black" stroke="black" points="301.123,-239.35 291.055,-236.05 296.867,-244.908 301.123,-239.35"/>
</g>
<!-- EAID_281E768B_6C5E_4e44_9A08_E5E97EBF348F -->
<g id="node19" class="node"><title>EAID_281E768B_6C5E_4e44_9A08_E5E97EBF348F</title>
<text text-anchor="middle" x="161.5" y="-14.3" font-family="Times New Roman,serif" font-size="14.00">EAID_281E768B_6C5E_4e44_9A08_E5E97EBF348F</text>
</g>
<!-- EAID_3397D48E_64F1_4203_8534_37361851C29B___EAID_E7F3CADE_303C_48f1_82D7_E5D23E66EA9B&#45;&gt;EAID_281E768B_6C5E_4e44_9A08_E5E97EBF348F -->
<g id="edge8" class="edge"><title>EAID_3397D48E_64F1_4203_8534_37361851C29B___EAID_E7F3CADE_303C_48f1_82D7_E5D23E66EA9B&#45;&gt;EAID_281E768B_6C5E_4e44_9A08_E5E97EBF348F</title>
<path fill="none" stroke="black" stroke-dasharray="5,2" d="M384.611,-278.448C394.891,-230.744 409.674,-124.886 356.5,-64 347.147,-53.2904 323.841,-44.829 296.46,-38.273"/>
<polygon fill="black" stroke="black" points="297.149,-34.8403 286.622,-36.0329 295.595,-41.6656 297.149,-34.8403"/>
</g>
<!-- EAID_3397D48E_64F1_4203_8534_37361851C29B___EAID_70D54060_39F2_453d_B041_7C17C4C35591 -->
<g id="node2" class="node"><title>EAID_3397D48E_64F1_4203_8534_37361851C29B___EAID_70D54060_39F2_453d_B041_7C17C4C35591</title>
<image xlink:href="img/activity_icon.png" width="30px" height="20px" preserveAspectRatio="xMinYMin meet" x="165.5" y="-544"/>
<text text-anchor="start" x="97.5" y="-509.8" font-family="Times New Roman,serif" font-weight="bold" font-size="14.00">Admin:Click system setting</text>
<text text-anchor="start" x="160.5" y="-495.8" font-family="Times New Roman,serif" font-weight="bold" font-size="14.00">button</text>
</g>
<!-- EAID_70D54060_39F2_453d_B041_7C17C4C35591___EAID_5101F251_2FBE_4420_94FF_02CB5A6929A1 -->
<g id="node3" class="node"><title>EAID_70D54060_39F2_453d_B041_7C17C4C35591___EAID_5101F251_2FBE_4420_94FF_02CB5A6929A1</title>
<image xlink:href="img/activity_icon.png" width="30px" height="20px" preserveAspectRatio="xMinYMin meet" x="164.5" y="-444"/>
<text text-anchor="start" x="118" y="-409.8" font-family="Times New Roman,serif" font-weight="bold" font-size="14.00">Click system setting</text>
<text text-anchor="start" x="97.5" y="-395.8" font-family="Times New Roman,serif" font-weight="bold" font-size="14.00">button:Load system setting</text>
<text text-anchor="start" x="164.5" y="-381.8" font-family="Times New Roman,serif" font-weight="bold" font-size="14.00">page</text>
</g>
<!-- EAID_3397D48E_64F1_4203_8534_37361851C29B___EAID_70D54060_39F2_453d_B041_7C17C4C35591&#45;&gt;EAID_70D54060_39F2_453d_B041_7C17C4C35591___EAID_5101F251_2FBE_4420_94FF_02CB5A6929A1 -->
<g id="edge3" class="edge"><title>EAID_3397D48E_64F1_4203_8534_37361851C29B___EAID_70D54060_39F2_453d_B041_7C17C4C35591&#45;&gt;EAID_70D54060_39F2_453d_B041_7C17C4C35591___EAID_5101F251_2FBE_4420_94FF_02CB5A6929A1</title>
<path fill="none" stroke="black" d="M180.203,-485.781C180.127,-477.786 180.043,-468.999 179.961,-460.362"/>
<polygon fill="black" stroke="black" points="183.46,-460.315 179.865,-450.348 176.461,-460.381 183.46,-460.315"/>
</g>
<!-- EAID_3397D48E_64F1_4203_8534_37361851C29B___EAID_70D54060_39F2_453d_B041_7C17C4C35591&#45;&gt;EAID_281E768B_6C5E_4e44_9A08_E5E97EBF348F -->
<g id="edge9" class="edge"><title>EAID_3397D48E_64F1_4203_8534_37361851C29B___EAID_70D54060_39F2_453d_B041_7C17C4C35591&#45;&gt;EAID_281E768B_6C5E_4e44_9A08_E5E97EBF348F</title>
<path fill="none" stroke="black" stroke-dasharray="5,2" d="M119.964,-485.967C104.912,-476.062 89.853,-463.98 78.5,-450 34.8474,-396.248 21.5,-374.245 21.5,-305 21.5,-305 21.5,-305 21.5,-203 21.5,-137.041 29.6102,-113.237 73.5,-64 81.8789,-54.6003 92.685,-46.8918 103.838,-40.6774"/>
<polygon fill="black" stroke="black" points="105.559,-43.7277 112.818,-36.0101 102.331,-37.5166 105.559,-43.7277"/>
</g>
<!-- EAID_5101F251_2FBE_4420_94FF_02CB5A6929A1___EAID_E7F3CADE_303C_48f1_82D7_E5D23E66EA9B -->
<g id="node4" class="node"><title>EAID_5101F251_2FBE_4420_94FF_02CB5A6929A1___EAID_E7F3CADE_303C_48f1_82D7_E5D23E66EA9B</title>
<image xlink:href="img/activity_icon.png" width="30px" height="20px" preserveAspectRatio="xMinYMin meet" x="161.5" y="-330"/>
<text text-anchor="start" x="116" y="-295.8" font-family="Times New Roman,serif" font-weight="bold" font-size="14.00">Load system setting</text>
<text text-anchor="start" x="97.5" y="-281.8" font-family="Times New Roman,serif" font-weight="bold" font-size="14.00">page:System Setting Page</text>
</g>
<!-- EAID_70D54060_39F2_453d_B041_7C17C4C35591___EAID_5101F251_2FBE_4420_94FF_02CB5A6929A1&#45;&gt;EAID_5101F251_2FBE_4420_94FF_02CB5A6929A1___EAID_E7F3CADE_303C_48f1_82D7_E5D23E66EA9B -->
<g id="edge5" class="edge"><title>EAID_70D54060_39F2_453d_B041_7C17C4C35591___EAID_5101F251_2FBE_4420_94FF_02CB5A6929A1&#45;&gt;EAID_5101F251_2FBE_4420_94FF_02CB5A6929A1___EAID_E7F3CADE_303C_48f1_82D7_E5D23E66EA9B</title>
<path fill="none" stroke="black" d="M178.408,-371.796C178.17,-363.458 177.917,-354.6 177.676,-346.153"/>
<polygon fill="black" stroke="black" points="181.173,-346.013 177.389,-336.117 174.176,-346.213 181.173,-346.013"/>
</g>
<!-- EAID_70D54060_39F2_453d_B041_7C17C4C35591___EAID_5101F251_2FBE_4420_94FF_02CB5A6929A1&#45;&gt;EAID_281E768B_6C5E_4e44_9A08_E5E97EBF348F -->
<g id="edge10" class="edge"><title>EAID_70D54060_39F2_453d_B041_7C17C4C35591___EAID_5101F251_2FBE_4420_94FF_02CB5A6929A1&#45;&gt;EAID_281E768B_6C5E_4e44_9A08_E5E97EBF348F</title>
<path fill="none" stroke="black" stroke-dasharray="5,2" d="M108.943,-371.902C96.6631,-361.92 85.5775,-349.959 78.5,-336 49.8232,-279.439 53.5877,-158.719 106.5,-64 111.051,-55.8529 117.714,-48.5917 124.845,-42.404"/>
<polygon fill="black" stroke="black" points="127.072,-45.1045 132.687,-36.12 122.694,-39.6419 127.072,-45.1045"/>
</g>
<!-- EAID_5101F251_2FBE_4420_94FF_02CB5A6929A1___EAID_E7F3CADE_303C_48f1_82D7_E5D23E66EA9B&#45;&gt;EAID_E7F3CADE_303C_48f1_82D7_E5D23E66EA9B___EAID_B27A6C70_3A85_4222_B258_1AFE855DEC93 -->
<g id="edge6" class="edge"><title>EAID_5101F251_2FBE_4420_94FF_02CB5A6929A1___EAID_E7F3CADE_303C_48f1_82D7_E5D23E66EA9B&#45;&gt;EAID_E7F3CADE_303C_48f1_82D7_E5D23E66EA9B___EAID_B27A6C70_3A85_4222_B258_1AFE855DEC93</title>
<path fill="none" stroke="black" d="M199.914,-271.992C206.528,-263.234 213.813,-253.585 220.746,-244.404"/>
<polygon fill="black" stroke="black" points="223.751,-246.232 226.984,-236.142 218.165,-242.014 223.751,-246.232"/>
</g>
<!-- EAID_5101F251_2FBE_4420_94FF_02CB5A6929A1___EAID_E7F3CADE_303C_48f1_82D7_E5D23E66EA9B&#45;&gt;EAID_281E768B_6C5E_4e44_9A08_E5E97EBF348F -->
<g id="edge11" class="edge"><title>EAID_5101F251_2FBE_4420_94FF_02CB5A6929A1___EAID_E7F3CADE_303C_48f1_82D7_E5D23E66EA9B&#45;&gt;EAID_281E768B_6C5E_4e44_9A08_E5E97EBF348F</title>
<path fill="none" stroke="black" stroke-dasharray="5,2" d="M161.465,-271.904C146.506,-239.036 124.642,-185.24 116.5,-136 111.28,-104.429 104.254,-93.5641 116.5,-64 119.651,-56.3922 124.782,-49.4 130.472,-43.3098"/>
<polygon fill="black" stroke="black" points="133.153,-45.5849 137.872,-36.0994 128.268,-40.5712 133.153,-45.5849"/>
</g>
<!-- EAID_B27A6C70_3A85_4222_B258_1AFE855DEC93___EAID_D2A9840E_22BF_42ef_B2F9_36AF1BBE6859 -->
<g id="node5" class="node"><title>EAID_B27A6C70_3A85_4222_B258_1AFE855DEC93___EAID_D2A9840E_22BF_42ef_B2F9_36AF1BBE6859</title>
<image xlink:href="img/activity_icon.png" width="30px" height="20px" preserveAspectRatio="xMinYMin meet" x="212" y="-130"/>
<text text-anchor="start" x="136.5" y="-95.8" font-family="Times New Roman,serif" font-weight="bold" font-size="14.00">Store System Settings:System</text>
<text text-anchor="start" x="202.5" y="-81.8" font-family="Times New Roman,serif" font-weight="bold" font-size="14.00">Settings</text>
</g>
<!-- EAID_B27A6C70_3A85_4222_B258_1AFE855DEC93___EAID_D2A9840E_22BF_42ef_B2F9_36AF1BBE6859&#45;&gt;EAID_281E768B_6C5E_4e44_9A08_E5E97EBF348F -->
<g id="edge12" class="edge"><title>EAID_B27A6C70_3A85_4222_B258_1AFE855DEC93___EAID_D2A9840E_22BF_42ef_B2F9_36AF1BBE6859&#45;&gt;EAID_281E768B_6C5E_4e44_9A08_E5E97EBF348F</title>
<path fill="none" stroke="black" stroke-dasharray="5,2" d="M202.296,-71.7215C195.366,-62.7656 187.897,-53.1127 181.267,-44.5449"/>
<polygon fill="black" stroke="black" points="183.856,-42.1716 174.968,-36.4049 178.32,-46.4555 183.856,-42.1716"/>
</g>
<!-- EAID_E7F3CADE_303C_48f1_82D7_E5D23E66EA9B___EAID_B27A6C70_3A85_4222_B258_1AFE855DEC93&#45;&gt;EAID_B27A6C70_3A85_4222_B258_1AFE855DEC93___EAID_D2A9840E_22BF_42ef_B2F9_36AF1BBE6859 -->
<g id="edge7" class="edge"><title>EAID_E7F3CADE_303C_48f1_82D7_E5D23E66EA9B___EAID_B27A6C70_3A85_4222_B258_1AFE855DEC93&#45;&gt;EAID_B27A6C70_3A85_4222_B258_1AFE855DEC93___EAID_D2A9840E_22BF_42ef_B2F9_36AF1BBE6859</title>
<path fill="none" stroke="black" d="M242.906,-171.992C240.893,-163.77 238.687,-154.763 236.564,-146.095"/>
<polygon fill="black" stroke="black" points="239.905,-145.023 234.127,-136.142 233.106,-146.688 239.905,-145.023"/>
</g>
<!-- EAID_E7F3CADE_303C_48f1_82D7_E5D23E66EA9B___EAID_B27A6C70_3A85_4222_B258_1AFE855DEC93&#45;&gt;EAID_281E768B_6C5E_4e44_9A08_E5E97EBF348F -->
<g id="edge13" class="edge"><title>EAID_E7F3CADE_303C_48f1_82D7_E5D23E66EA9B___EAID_B27A6C70_3A85_4222_B258_1AFE855DEC93&#45;&gt;EAID_281E768B_6C5E_4e44_9A08_E5E97EBF348F</title>
<path fill="none" stroke="black" stroke-dasharray="5,2" d="M305.163,-171.786C317.365,-162.008 328.693,-150.032 335.5,-136 349.466,-107.208 355.091,-89.3021 335.5,-64 327.454,-53.6087 305.863,-45.1835 280.512,-38.5557"/>
<polygon fill="black" stroke="black" points="281.181,-35.1156 270.633,-36.1031 279.495,-41.9094 281.181,-35.1156"/>
</g>
<!-- EAID_3397D48E_64F1_4203_8534_37361851C29B___EAID_E7F3CADE_303C_48f1_82D7_E5D23E66EA9B_STL -->
<g id="node7" class="node"><title>EAID_3397D48E_64F1_4203_8534_37361851C29B___EAID_E7F3CADE_303C_48f1_82D7_E5D23E66EA9B_STL</title>
<image xlink:href="img/stimulus_icon.png" width="30px" height="20px" preserveAspectRatio="xMinYMin meet" x="378.5" y="-715.5"/>
<text text-anchor="start" x="298.5" y="-681.3" font-family="Times New Roman,serif" font-weight="bold" font-size="14.00">stl#Admin:System Setting Page</text>
</g>
<!-- EAID_3397D48E_64F1_4203_8534_37361851C29B___EAID_E7F3CADE_303C_48f1_82D7_E5D23E66EA9B_STL&#45;&gt;EAID_3397D48E_64F1_4203_8534_37361851C29B___EAID_E7F3CADE_303C_48f1_82D7_E5D23E66EA9B -->
<g id="edge2" class="edge"><title>EAID_3397D48E_64F1_4203_8534_37361851C29B___EAID_E7F3CADE_303C_48f1_82D7_E5D23E66EA9B_STL&#45;&gt;EAID_3397D48E_64F1_4203_8534_37361851C29B___EAID_E7F3CADE_303C_48f1_82D7_E5D23E66EA9B</title>
<path fill="none" stroke="black" d="M392.55,-670.776C389.97,-603.604 382.824,-417.576 379.838,-339.842"/>
<polygon fill="black" stroke="black" points="383.327,-339.474 379.446,-329.616 376.332,-339.743 383.327,-339.474"/>
</g>
<!-- EAID_3397D48E_64F1_4203_8534_37361851C29B___EAID_70D54060_39F2_453d_B041_7C17C4C35591_STL -->
<g id="node8" class="node"><title>EAID_3397D48E_64F1_4203_8534_37361851C29B___EAID_70D54060_39F2_453d_B041_7C17C4C35591_STL</title>
<image xlink:href="img/stimulus_icon.png" width="30px" height="20px" preserveAspectRatio="xMinYMin meet" x="151.5" y="-722.5"/>
<text text-anchor="start" x="72.5" y="-688.3" font-family="Times New Roman,serif" font-weight="bold" font-size="14.00">stl#Admin:Click system setting</text>
<text text-anchor="start" x="146.5" y="-674.3" font-family="Times New Roman,serif" font-weight="bold" font-size="14.00">button</text>
</g>
<!-- EAID_3397D48E_64F1_4203_8534_37361851C29B___EAID_70D54060_39F2_453d_B041_7C17C4C35591_STL&#45;&gt;EAID_3397D48E_64F1_4203_8534_37361851C29B___EAID_70D54060_39F2_453d_B041_7C17C4C35591 -->
<g id="edge4" class="edge"><title>EAID_3397D48E_64F1_4203_8534_37361851C29B___EAID_70D54060_39F2_453d_B041_7C17C4C35591_STL&#45;&gt;EAID_3397D48E_64F1_4203_8534_37361851C29B___EAID_70D54060_39F2_453d_B041_7C17C4C35591</title>
<path fill="none" stroke="black" d="M168.971,-664.352C171.263,-635.455 174.69,-592.244 177.213,-560.443"/>
<polygon fill="black" stroke="black" points="180.729,-560.379 178.031,-550.133 173.751,-559.825 180.729,-560.379"/>
</g>
<!-- EAID_7489B5D3_9809_4f87_AD26_41FE345759CA -->
<g id="node9" class="node"><title>EAID_7489B5D3_9809_4f87_AD26_41FE345759CA</title>
<polygon fill="none" stroke="black" points="2555.5,-696.5 2555.5,-717.5 2599.5,-717.5 2599.5,-696.5 2555.5,-696.5"/>
<text text-anchor="start" x="2563" y="-704.3" font-family="Times New Roman,serif" font-weight="bold" font-size="14.00">User</text>
<polygon fill="none" stroke="black" points="2555.5,-675.5 2555.5,-696.5 2599.5,-696.5 2599.5,-675.5 2555.5,-675.5"/>
<text text-anchor="start" x="2558.5" y="-683.3" font-family="Times New Roman,serif" font-weight="bold" font-size="14.00">User()</text>
<polygon fill="none" stroke="black" points="2554.5,-674.5 2554.5,-718.5 2600.5,-718.5 2600.5,-674.5 2554.5,-674.5"/>
</g>
<!-- EAID_7A60B82A_7E49_4a91_896C_88036575E0B9 -->
<g id="node10" class="node"><title>EAID_7A60B82A_7E49_4a91_896C_88036575E0B9</title>
<polygon fill="none" stroke="black" points="2368.5,-759.5 2368.5,-780.5 2519.5,-780.5 2519.5,-759.5 2368.5,-759.5"/>
<text text-anchor="start" x="2405.5" y="-767.3" font-family="Times New Roman,serif" font-weight="bold" font-size="14.00">Hashtagicon</text>
<polygon fill="none" stroke="black" points="2368.5,-738.5 2368.5,-759.5 2519.5,-759.5 2519.5,-738.5 2368.5,-738.5"/>
<text text-anchor="start" x="2401" y="-746.3" font-family="Times New Roman,serif" font-weight="bold" font-size="14.00">Hashtagicon()</text>
<polygon fill="none" stroke="black" points="2368.5,-717.5 2368.5,-738.5 2519.5,-738.5 2519.5,-717.5 2368.5,-717.5"/>
<text text-anchor="start" x="2371.5" y="-725.3" font-family="Times New Roman,serif" font-weight="bold" font-size="14.00">Showhashtagtextinput()</text>
<polygon fill="none" stroke="black" points="2368.5,-696.5 2368.5,-717.5 2519.5,-717.5 2519.5,-696.5 2368.5,-696.5"/>
<text text-anchor="start" x="2401.5" y="-704.3" font-family="Times New Roman,serif" font-weight="bold" font-size="14.00">ConfirmBox()</text>
<polygon fill="none" stroke="black" points="2368.5,-675.5 2368.5,-696.5 2519.5,-696.5 2519.5,-675.5 2368.5,-675.5"/>
<text text-anchor="start" x="2373.5" y="-683.3" font-family="Times New Roman,serif" font-weight="bold" font-size="14.00">Showsconfirmprompt()</text>
<polygon fill="none" stroke="black" points="2368.5,-654.5 2368.5,-675.5 2519.5,-675.5 2519.5,-654.5 2368.5,-654.5"/>
<text text-anchor="start" x="2375.5" y="-662.3" font-family="Times New Roman,serif" font-weight="bold" font-size="14.00">HeartIcononapicture()</text>
<polygon fill="none" stroke="black" points="2368.5,-633.5 2368.5,-654.5 2519.5,-654.5 2519.5,-633.5 2368.5,-633.5"/>
<text text-anchor="start" x="2401" y="-641.3" font-family="Times New Roman,serif" font-weight="bold" font-size="14.00">CameraIcon()</text>
<polygon fill="none" stroke="black" points="2368.5,-612.5 2368.5,-633.5 2519.5,-633.5 2519.5,-612.5 2368.5,-612.5"/>
<text text-anchor="start" x="2409" y="-620.3" font-family="Times New Roman,serif" font-weight="bold" font-size="14.00">FilterIcon()</text>
<polygon fill="none" stroke="black" points="2367,-611.5 2367,-781.5 2520,-781.5 2520,-611.5 2367,-611.5"/>
</g>
<!-- EAID_0C9775C5_EF89_47f8_97E3_A9DAFF21F116 -->
<g id="node11" class="node"><title>EAID_0C9775C5_EF89_47f8_97E3_A9DAFF21F116</title>
<polygon fill="none" stroke="black" points="2159.5,-717.5 2159.5,-738.5 2331.5,-738.5 2331.5,-717.5 2159.5,-717.5"/>
<text text-anchor="start" x="2204.5" y="-725.3" font-family="Times New Roman,serif" font-weight="bold" font-size="14.00">SearchResult</text>
<polygon fill="none" stroke="black" points="2159.5,-696.5 2159.5,-717.5 2331.5,-717.5 2331.5,-696.5 2159.5,-696.5"/>
<text text-anchor="start" x="2200" y="-704.3" font-family="Times New Roman,serif" font-weight="bold" font-size="14.00">SearchResult()</text>
<polygon fill="none" stroke="black" points="2159.5,-675.5 2159.5,-696.5 2331.5,-696.5 2331.5,-675.5 2159.5,-675.5"/>
<text text-anchor="start" x="2162.5" y="-683.3" font-family="Times New Roman,serif" font-weight="bold" font-size="14.00">Checkpresenceoftheevent()</text>
<polygon fill="none" stroke="black" points="2159.5,-654.5 2159.5,-675.5 2331.5,-675.5 2331.5,-654.5 2159.5,-654.5"/>
<text text-anchor="start" x="2183.5" y="-662.3" font-family="Times New Roman,serif" font-weight="bold" font-size="14.00">Searchboxofevents()</text>
<polygon fill="none" stroke="black" points="2158.5,-653.5 2158.5,-739.5 2332.5,-739.5 2332.5,-653.5 2158.5,-653.5"/>
</g>
<!-- EAID_80E4B179_2ACA_4847_95D3_EC956BEDFABF -->
<g id="node12" class="node"><title>EAID_80E4B179_2ACA_4847_95D3_EC956BEDFABF</title>
<polygon fill="none" stroke="black" points="1915.5,-727.5 1915.5,-748.5 2123.5,-748.5 2123.5,-727.5 1915.5,-727.5"/>
<text text-anchor="start" x="1923" y="-735.3" font-family="Times New Roman,serif" font-weight="bold" font-size="14.00">Warninginformationofduplicate</text>
<polygon fill="none" stroke="black" points="1915.5,-706.5 1915.5,-727.5 2123.5,-727.5 2123.5,-706.5 1915.5,-706.5"/>
<text text-anchor="start" x="1918.5" y="-714.3" font-family="Times New Roman,serif" font-weight="bold" font-size="14.00">Warninginformationofduplicate()</text>
<polygon fill="none" stroke="black" points="1915.5,-685.5 1915.5,-706.5 2123.5,-706.5 2123.5,-685.5 1915.5,-685.5"/>
<text text-anchor="start" x="1942.5" y="-693.3" font-family="Times New Roman,serif" font-weight="bold" font-size="14.00">Showwarningofdeletion()</text>
<polygon fill="none" stroke="black" points="1915.5,-664.5 1915.5,-685.5 2123.5,-685.5 2123.5,-664.5 1915.5,-664.5"/>
<text text-anchor="start" x="1942" y="-672.3" font-family="Times New Roman,serif" font-weight="bold" font-size="14.00">Storethelikeinformation()</text>
<polygon fill="none" stroke="black" points="1915.5,-643.5 1915.5,-664.5 2123.5,-664.5 2123.5,-643.5 1915.5,-643.5"/>
<text text-anchor="start" x="1960" y="-651.3" font-family="Times New Roman,serif" font-weight="bold" font-size="14.00">galleryapplication()</text>
<polygon fill="none" stroke="black" points="1914.5,-643 1914.5,-750 2124.5,-750 2124.5,-643 1914.5,-643"/>
</g>
<!-- EAID_0A50B7A2_18D1_49ad_914B_5E275B0DA079 -->
<g id="node13" class="node"><title>EAID_0A50B7A2_18D1_49ad_914B_5E275B0DA079</title>
<polygon fill="none" stroke="black" points="1688.5,-769.5 1688.5,-790.5 1879.5,-790.5 1879.5,-769.5 1688.5,-769.5"/>
<text text-anchor="start" x="1726" y="-777.3" font-family="Times New Roman,serif" font-weight="bold" font-size="14.00">DeleteEventButton</text>
<polygon fill="none" stroke="black" points="1688.5,-748.5 1688.5,-769.5 1879.5,-769.5 1879.5,-748.5 1688.5,-748.5"/>
<text text-anchor="start" x="1721.5" y="-756.3" font-family="Times New Roman,serif" font-weight="bold" font-size="14.00">DeleteEventButton()</text>
<polygon fill="none" stroke="black" points="1688.5,-727.5 1688.5,-748.5 1879.5,-748.5 1879.5,-727.5 1688.5,-727.5"/>
<text text-anchor="start" x="1761.5" y="-735.3" font-family="Times New Roman,serif" font-weight="bold" font-size="14.00">Event()</text>
<polygon fill="none" stroke="black" points="1688.5,-706.5 1688.5,-727.5 1879.5,-727.5 1879.5,-706.5 1688.5,-706.5"/>
<text text-anchor="start" x="1691.5" y="-714.3" font-family="Times New Roman,serif" font-weight="bold" font-size="14.00">Closewarninganddeleteevent()</text>
<polygon fill="none" stroke="black" points="1688.5,-685.5 1688.5,-706.5 1879.5,-706.5 1879.5,-685.5 1688.5,-685.5"/>
<text text-anchor="start" x="1737" y="-693.3" font-family="Times New Roman,serif" font-weight="bold" font-size="14.00">LogoutButton()</text>
<polygon fill="none" stroke="black" points="1688.5,-664.5 1688.5,-685.5 1879.5,-685.5 1879.5,-664.5 1688.5,-664.5"/>
<text text-anchor="start" x="1711.5" y="-672.3" font-family="Times New Roman,serif" font-weight="bold" font-size="14.00">EventandcaptionInput()</text>
<polygon fill="none" stroke="black" points="1688.5,-643.5 1688.5,-664.5 1879.5,-664.5 1879.5,-643.5 1688.5,-643.5"/>
<text text-anchor="start" x="1711.5" y="-651.3" font-family="Times New Roman,serif" font-weight="bold" font-size="14.00">storepictureintheevent()</text>
<polygon fill="none" stroke="black" points="1688.5,-622.5 1688.5,-643.5 1879.5,-643.5 1879.5,-622.5 1688.5,-622.5"/>
<text text-anchor="start" x="1736.5" y="-630.3" font-family="Times New Roman,serif" font-weight="bold" font-size="14.00">retrieveevents()</text>
<polygon fill="none" stroke="black" points="1688.5,-601.5 1688.5,-622.5 1879.5,-622.5 1879.5,-601.5 1688.5,-601.5"/>
<text text-anchor="start" x="1716" y="-609.3" font-family="Times New Roman,serif" font-weight="bold" font-size="14.00">RadiusSettingButton()</text>
<polygon fill="none" stroke="black" points="1687,-601 1687,-792 1880,-792 1880,-601 1687,-601"/>
</g>
<!-- EAID_C99981CE_38A8_458e_9DF6_3B6B8E57CBF1 -->
<g id="node14" class="node"><title>EAID_C99981CE_38A8_458e_9DF6_3B6B8E57CBF1</title>
<polygon fill="none" stroke="black" points="1539.5,-738.5 1539.5,-759.5 1651.5,-759.5 1651.5,-738.5 1539.5,-738.5"/>
<text text-anchor="start" x="1551.5" y="-746.3" font-family="Times New Roman,serif" font-weight="bold" font-size="14.00">AppMainPage</text>
<polygon fill="none" stroke="black" points="1539.5,-717.5 1539.5,-738.5 1651.5,-738.5 1651.5,-717.5 1539.5,-717.5"/>
<text text-anchor="start" x="1547" y="-725.3" font-family="Times New Roman,serif" font-weight="bold" font-size="14.00">AppMainPage()</text>
<polygon fill="none" stroke="black" points="1539.5,-696.5 1539.5,-717.5 1651.5,-717.5 1651.5,-696.5 1539.5,-696.5"/>
<text text-anchor="start" x="1557.5" y="-704.3" font-family="Times New Roman,serif" font-weight="bold" font-size="14.00">LoginPage()</text>
<polygon fill="none" stroke="black" points="1539.5,-675.5 1539.5,-696.5 1651.5,-696.5 1651.5,-675.5 1539.5,-675.5"/>
<text text-anchor="start" x="1553.5" y="-683.3" font-family="Times New Roman,serif" font-weight="bold" font-size="14.00">CameraApp()</text>
<polygon fill="none" stroke="black" points="1539.5,-654.5 1539.5,-675.5 1651.5,-675.5 1651.5,-654.5 1539.5,-654.5"/>
<text text-anchor="start" x="1549.5" y="-662.3" font-family="Times New Roman,serif" font-weight="bold" font-size="14.00">RegisterPage()</text>
<polygon fill="none" stroke="black" points="1539.5,-633.5 1539.5,-654.5 1651.5,-654.5 1651.5,-633.5 1539.5,-633.5"/>
<text text-anchor="start" x="1542.5" y="-641.3" font-family="Times New Roman,serif" font-weight="bold" font-size="14.00">ImageFilterBox()</text>
<polygon fill="none" stroke="black" points="1538.5,-632.5 1538.5,-760.5 1652.5,-760.5 1652.5,-632.5 1538.5,-632.5"/>
</g>
<!-- EAID_5B081FBB_04D9_4adb_B481_B2FA80955739 -->
<g id="node15" class="node"><title>EAID_5B081FBB_04D9_4adb_B481_B2FA80955739</title>
<polygon fill="none" stroke="black" points="1190.5,-727.5 1190.5,-748.5 1503.5,-748.5 1503.5,-727.5 1190.5,-727.5"/>
<text text-anchor="start" x="1304" y="-735.3" font-family="Times New Roman,serif" font-weight="bold" font-size="14.00">Optionstopost</text>
<polygon fill="none" stroke="black" points="1190.5,-706.5 1190.5,-727.5 1503.5,-727.5 1503.5,-706.5 1190.5,-706.5"/>
<text text-anchor="start" x="1299.5" y="-714.3" font-family="Times New Roman,serif" font-weight="bold" font-size="14.00">Optionstopost()</text>
<polygon fill="none" stroke="black" points="1190.5,-685.5 1190.5,-706.5 1503.5,-706.5 1503.5,-685.5 1190.5,-685.5"/>
<text text-anchor="start" x="1195.5" y="-693.3" font-family="Times New Roman,serif" font-weight="bold" font-size="14.00">showpictureandoptionstopostnearbyortoanevent()</text>
<polygon fill="none" stroke="black" points="1190.5,-664.5 1190.5,-685.5 1503.5,-685.5 1503.5,-664.5 1190.5,-664.5"/>
<text text-anchor="start" x="1193.5" y="-672.3" font-family="Times New Roman,serif" font-weight="bold" font-size="14.00">retriveuserslocationandpoststhepictureatlocation()</text>
<polygon fill="none" stroke="black" points="1190.5,-643.5 1190.5,-664.5 1503.5,-664.5 1503.5,-643.5 1190.5,-643.5"/>
<text text-anchor="start" x="1297.5" y="-651.3" font-family="Times New Roman,serif" font-weight="bold" font-size="14.00">Sortingoptions()</text>
<polygon fill="none" stroke="black" points="1189,-643 1189,-750 1504,-750 1504,-643 1189,-643"/>
</g>
<!-- EAID_E6CB08DD_466B_4c82_8332_5E005F8B4F04 -->
<g id="node16" class="node"><title>EAID_E6CB08DD_466B_4c82_8332_5E005F8B4F04</title>
<polygon fill="none" stroke="black" points="909.5,-738.5 909.5,-759.5 1153.5,-759.5 1153.5,-738.5 909.5,-738.5"/>
<text text-anchor="start" x="1009" y="-746.3" font-family="Times New Roman,serif" font-weight="bold" font-size="14.00">Picture</text>
<polygon fill="none" stroke="black" points="909.5,-717.5 909.5,-738.5 1153.5,-738.5 1153.5,-717.5 909.5,-717.5"/>
<text text-anchor="start" x="1004.5" y="-725.3" font-family="Times New Roman,serif" font-weight="bold" font-size="14.00">Picture()</text>
<polygon fill="none" stroke="black" points="909.5,-696.5 909.5,-717.5 1153.5,-717.5 1153.5,-696.5 909.5,-696.5"/>
<text text-anchor="start" x="912.5" y="-704.3" font-family="Times New Roman,serif" font-weight="bold" font-size="14.00">showsthepictureandtextboxforcaption()</text>
<polygon fill="none" stroke="black" points="909.5,-675.5 909.5,-696.5 1153.5,-696.5 1153.5,-675.5 909.5,-675.5"/>
<text text-anchor="start" x="955" y="-683.3" font-family="Times New Roman,serif" font-weight="bold" font-size="14.00">Restorereportedpicture()</text>
<polygon fill="none" stroke="black" points="909.5,-654.5 909.5,-675.5 1153.5,-675.5 1153.5,-654.5 909.5,-654.5"/>
<text text-anchor="start" x="960.5" y="-662.3" font-family="Times New Roman,serif" font-weight="bold" font-size="14.00">retrivethelistofpicture()</text>
<polygon fill="none" stroke="black" points="909.5,-633.5 909.5,-654.5 1153.5,-654.5 1153.5,-633.5 909.5,-633.5"/>
<text text-anchor="start" x="954.5" y="-641.3" font-family="Times New Roman,serif" font-weight="bold" font-size="14.00">Searchpicturesbyradius()</text>
<polygon fill="none" stroke="black" points="908.5,-632.5 908.5,-760.5 1154.5,-760.5 1154.5,-632.5 908.5,-632.5"/>
</g>
<!-- EAID_756FEF97_8317_4f5a_9774_168F735F5ADF -->
<g id="node17" class="node"><title>EAID_756FEF97_8317_4f5a_9774_168F735F5ADF</title>
<polygon fill="none" stroke="black" points="749.5,-696.5 749.5,-717.5 873.5,-717.5 873.5,-696.5 749.5,-696.5"/>
<text text-anchor="start" x="757" y="-704.3" font-family="Times New Roman,serif" font-weight="bold" font-size="14.00">downloadtophone</text>
<polygon fill="none" stroke="black" points="749.5,-675.5 749.5,-696.5 873.5,-696.5 873.5,-675.5 749.5,-675.5"/>
<text text-anchor="start" x="752.5" y="-683.3" font-family="Times New Roman,serif" font-weight="bold" font-size="14.00">downloadtophone()</text>
<polygon fill="none" stroke="black" points="748.5,-674.5 748.5,-718.5 874.5,-718.5 874.5,-674.5 748.5,-674.5"/>
</g>
<!-- EAID_A8B633A5_7376_4716_A0D1_05199BD4326A -->
<g id="node18" class="node"><title>EAID_A8B633A5_7376_4716_A0D1_05199BD4326A</title>
<polygon fill="none" stroke="black" points="532.5,-706.5 532.5,-727.5 713.5,-727.5 713.5,-706.5 532.5,-706.5"/>
<text text-anchor="start" x="577" y="-714.3" font-family="Times New Roman,serif" font-weight="bold" font-size="14.00">ConfirmDialog</text>
<polygon fill="none" stroke="black" points="532.5,-685.5 532.5,-706.5 713.5,-706.5 713.5,-685.5 532.5,-685.5"/>
<text text-anchor="start" x="572.5" y="-693.3" font-family="Times New Roman,serif" font-weight="bold" font-size="14.00">ConfirmDialog()</text>
<polygon fill="none" stroke="black" points="532.5,-664.5 532.5,-685.5 713.5,-685.5 713.5,-664.5 532.5,-664.5"/>
<text text-anchor="start" x="535.5" y="-672.3" font-family="Times New Roman,serif" font-weight="bold" font-size="14.00">PromptEventUpdateDialog()</text>
<polygon fill="none" stroke="black" points="531,-664 531,-729 714,-729 714,-664 531,-664"/>
</g>
</g>
</svg>
