<?xml version="1.0" encoding="UTF-8" standalone="no"?>
<!DOCTYPE svg PUBLIC "-//W3C//DTD SVG 1.1//EN"
 "http://www.w3.org/Graphics/SVG/1.1/DTD/svg11.dtd">
<!-- Generated by graphviz version 2.38.0 (20140413.2041)
 -->
<!-- Title: g Pages: 1 -->
<svg width="250pt" height="260pt"
 viewBox="0.00 0.00 250.49 260.00" xmlns="http://www.w3.org/2000/svg" xmlns:xlink="http://www.w3.org/1999/xlink">
<g id="graph0" class="graph" transform="scale(1 1) rotate(0) translate(4 256)">
<title>g</title>
<polygon fill="white" stroke="none" points="-4,4 -4,-256 246.488,-256 246.488,4 -4,4"/>
<!-- retrieve order status -->
<g id="node1" class="node"><title>retrieve order status</title>
<ellipse fill="none" stroke="black" cx="159.945" cy="-90" rx="82.5854" ry="18"/>
<text text-anchor="middle" x="159.945" y="-86.3" font-family="Times New Roman,serif" font-size="14.00">retrieve order status</text>
</g>
<!-- order -->
<g id="node2" class="node"><title>order</title>
<ellipse fill="none" stroke="black" cx="159.945" cy="-18" rx="30.5947" ry="18"/>
<text text-anchor="middle" x="159.945" y="-14.3" font-family="Times New Roman,serif" font-size="14.00">order</text>
</g>
<!-- retrieve order status&#45;&gt;order -->
<g id="edge1" class="edge"><title>retrieve order status&#45;&gt;order</title>
<path fill="none" stroke="black" d="M159.945,-71.6966C159.945,-63.9827 159.945,-54.7125 159.945,-46.1124"/>
<polygon fill="black" stroke="black" points="163.445,-46.1043 159.945,-36.1043 156.445,-46.1044 163.445,-46.1043"/>
</g>
<!-- order status -->
<g id="node3" class="node"><title>order status</title>
<ellipse fill="none" stroke="black" cx="53.9452" cy="-18" rx="53.8905" ry="18"/>
<text text-anchor="middle" x="53.9452" y="-14.3" font-family="Times New Roman,serif" font-size="14.00">order status</text>
</g>
<!-- retrieve order status&#45;&gt;order status -->
<g id="edge2" class="edge"><title>retrieve order status&#45;&gt;order status</title>
<path fill="none" stroke="black" d="M135.36,-72.7646C120.602,-63.0185 101.67,-50.5162 85.7768,-40.0208"/>
<polygon fill="black" stroke="black" points="87.5792,-37.0168 77.3058,-34.4268 83.7217,-42.8581 87.5792,-37.0168"/>
</g>
<!-- Track order button -->
<g id="node4" class="node"><title>Track order button</title>
<ellipse fill="none" stroke="black" cx="157.945" cy="-162" rx="79.8859" ry="18"/>
<text text-anchor="middle" x="157.945" y="-158.3" font-family="Times New Roman,serif" font-size="14.00">Track order button</text>
</g>
<!-- Track order button&#45;&gt;retrieve order status -->
<g id="edge3" class="edge"><title>Track order button&#45;&gt;retrieve order status</title>
<path fill="none" stroke="black" d="M158.44,-143.697C158.66,-135.983 158.925,-126.712 159.171,-118.112"/>
<polygon fill="black" stroke="black" points="162.669,-118.2 159.457,-108.104 155.672,-118 162.669,-118.2"/>
</g>
<!-- user -->
<g id="node5" class="node"><title>user</title>
<ellipse fill="none" stroke="black" cx="102.945" cy="-234" rx="27" ry="18"/>
<text text-anchor="middle" x="102.945" y="-230.3" font-family="Times New Roman,serif" font-size="14.00">user</text>
</g>
<!-- user&#45;&gt;order status -->
<g id="edge4" class="edge"><title>user&#45;&gt;order status</title>
<path fill="none" stroke="black" d="M90.3893,-217.799C82.8068,-207.723 73.7148,-193.851 68.9452,-180 53.4246,-134.929 51.8941,-78.8147 52.623,-46.1367"/>
<polygon fill="black" stroke="black" points="56.1256,-46.1074 52.9399,-36.0029 49.129,-45.8886 56.1256,-46.1074"/>
</g>
<!-- user&#45;&gt;Track order button -->
<g id="edge5" class="edge"><title>user&#45;&gt;Track order button</title>
<path fill="none" stroke="black" d="M114.879,-217.811C121.692,-209.141 130.404,-198.052 138.208,-188.12"/>
<polygon fill="black" stroke="black" points="141.062,-190.152 144.489,-180.127 135.558,-185.828 141.062,-190.152"/>
</g>
</g>
</svg>
