<?xml version="1.0" encoding="UTF-8" standalone="no"?>
<!DOCTYPE svg PUBLIC "-//W3C//DTD SVG 1.1//EN"
 "http://www.w3.org/Graphics/SVG/1.1/DTD/svg11.dtd">
<!-- Generated by graphviz version 2.38.0 (20140413.2041)
 -->
<!-- Title: g Pages: 1 -->
<svg width="1294pt" height="375pt"
 viewBox="0.00 0.00 1294.00 375.00" xmlns="http://www.w3.org/2000/svg" xmlns:xlink="http://www.w3.org/1999/xlink">
<g id="graph0" class="graph" transform="scale(1 1) rotate(0) translate(4 371)">
<title>g</title>
<polygon fill="white" stroke="none" points="-4,4 -4,-371 1290,-371 1290,4 -4,4"/>
<!-- EAID_6B977DA2_9E6A_4106_B4F8_FE1053DEA81F -->
<g id="node1" class="node"><title>EAID_6B977DA2_9E6A_4106_B4F8_FE1053DEA81F</title>
<image xlink:href="img/actor1.png" width="61px" height="90px" preserveAspectRatio="xMinYMin meet" x="10.5" y="-156.5"/>
<text text-anchor="start" x="19" y="-43.3" font-family="Times New Roman,serif" font-size="24.00">User</text>
</g>
<!-- EAID_777A4227_D946_41bb_9956_7DE7656577EF -->
<g id="node2" class="node"><title>EAID_777A4227_D946_41bb_9956_7DE7656577EF</title>
<image xlink:href="img/boundary3.png" width="115px" height="67px" preserveAspectRatio="xMinYMin meet" x="172.5" y="-248.5"/>
<text text-anchor="start" x="127" y="-158.3" font-family="Times New Roman,serif" font-size="24.00">enter credentials page</text>
</g>
<!-- EAID_6B977DA2_9E6A_4106_B4F8_FE1053DEA81F&#45;&gt;EAID_777A4227_D946_41bb_9956_7DE7656577EF -->
<g id="edge1" class="edge"><title>EAID_6B977DA2_9E6A_4106_B4F8_FE1053DEA81F&#45;&gt;EAID_777A4227_D946_41bb_9956_7DE7656577EF</title>
<path fill="none" stroke="black" d="M81.2639,-118.556C93.3709,-125.271 107.3,-132.997 121.664,-140.964"/>
<polygon fill="black" stroke="black" points="120.209,-144.159 130.651,-145.949 123.604,-138.038 120.209,-144.159"/>
</g>
<!-- EAID_02A05DF2_AFB7_42e8_AF1F_587E08F69421 -->
<g id="node3" class="node"><title>EAID_02A05DF2_AFB7_42e8_AF1F_587E08F69421</title>
<image xlink:href="img/boundary3.png" width="115px" height="67px" preserveAspectRatio="xMinYMin meet" x="659.5" y="-144.5"/>
<text text-anchor="start" x="631" y="-54.3" font-family="Times New Roman,serif" font-size="24.00">confirmation page</text>
</g>
<!-- EAID_6B977DA2_9E6A_4106_B4F8_FE1053DEA81F&#45;&gt;EAID_02A05DF2_AFB7_42e8_AF1F_587E08F69421 -->
<g id="edge2" class="edge"><title>EAID_6B977DA2_9E6A_4106_B4F8_FE1053DEA81F&#45;&gt;EAID_02A05DF2_AFB7_42e8_AF1F_587E08F69421</title>
<path fill="none" stroke="black" d="M81.1749,-96.5C183.312,-96.5 457.945,-96.5 610.393,-96.5"/>
<polygon fill="black" stroke="black" points="610.705,-100 620.705,-96.5 610.705,-93.0001 610.705,-100"/>
</g>
<!-- EAID_C056A8AC_5A18_4399_AD70_8F811363E708 -->
<g id="node4" class="node"><title>EAID_C056A8AC_5A18_4399_AD70_8F811363E708</title>
<image xlink:href="img/boundary3.png" width="115px" height="67px" preserveAspectRatio="xMinYMin meet" x="1160.5" y="-102.5"/>
<text text-anchor="start" x="1159.5" y="-12.3" font-family="Times New Roman,serif" font-size="24.00">home screen</text>
</g>
<!-- EAID_6B977DA2_9E6A_4106_B4F8_FE1053DEA81F&#45;&gt;EAID_C056A8AC_5A18_4399_AD70_8F811363E708 -->
<g id="edge3" class="edge"><title>EAID_6B977DA2_9E6A_4106_B4F8_FE1053DEA81F&#45;&gt;EAID_C056A8AC_5A18_4399_AD70_8F811363E708</title>
<path fill="none" stroke="black" d="M81.1026,-83.2188C156.024,-59.3125 324.047,-11.5 469.5,-11.5 469.5,-11.5 469.5,-11.5 718,-11.5 893.759,-11.5 938.911,-6.32909 1113,-30.5 1121.5,-31.6796 1130.32,-33.2224 1139.07,-34.9578"/>
<polygon fill="black" stroke="black" points="1138.4,-38.3931 1148.9,-36.9896 1139.82,-31.5379 1138.4,-38.3931"/>
</g>
<!-- EAID_DEAB90C1_D128_445a_85EB_911705B24BCD -->
<g id="node5" class="node"><title>EAID_DEAB90C1_D128_445a_85EB_911705B24BCD</title>
<image xlink:href="img/control1.png" width="106px" height="75px" preserveAspectRatio="xMinYMin meet" x="418" y="-252.5"/>
<text text-anchor="start" x="389.5" y="-154.3" font-family="Times New Roman,serif" font-size="24.00">check credentials</text>
</g>
<!-- EAID_777A4227_D946_41bb_9956_7DE7656577EF&#45;&gt;EAID_DEAB90C1_D128_445a_85EB_911705B24BCD -->
<g id="edge7" class="edge"><title>EAID_777A4227_D946_41bb_9956_7DE7656577EF&#45;&gt;EAID_DEAB90C1_D128_445a_85EB_911705B24BCD</title>
<path fill="none" stroke="black" d="M343.266,-200.5C351.77,-200.5 360.321,-200.5 368.746,-200.5"/>
<polygon fill="black" stroke="black" points="368.948,-204 378.948,-200.5 368.948,-197 368.948,-204"/>
</g>
<!-- EAID_D46EE3E6_ED93_4e13_80BB_30CB7B594FD0 -->
<g id="node8" class="node"><title>EAID_D46EE3E6_ED93_4e13_80BB_30CB7B594FD0</title>
<image xlink:href="img/control1.png" width="106px" height="75px" preserveAspectRatio="xMinYMin meet" x="940" y="-150.5"/>
<text text-anchor="start" x="882.5" y="-52.3" font-family="Times New Roman,serif" font-size="24.00">redirect to home screen</text>
</g>
<!-- EAID_02A05DF2_AFB7_42e8_AF1F_587E08F69421&#45;&gt;EAID_D46EE3E6_ED93_4e13_80BB_30CB7B594FD0 -->
<g id="edge8" class="edge"><title>EAID_02A05DF2_AFB7_42e8_AF1F_587E08F69421&#45;&gt;EAID_D46EE3E6_ED93_4e13_80BB_30CB7B594FD0</title>
<path fill="none" stroke="black" d="M813.273,-97.1967C828.848,-97.3106 845.217,-97.4303 861.458,-97.5491"/>
<polygon fill="black" stroke="black" points="861.521,-101.05 871.547,-97.6228 861.573,-94.0497 861.521,-101.05"/>
</g>
<!-- EAID_DEAB90C1_D128_445a_85EB_911705B24BCD&#45;&gt;EAID_02A05DF2_AFB7_42e8_AF1F_587E08F69421 -->
<g id="edge4" class="edge"><title>EAID_DEAB90C1_D128_445a_85EB_911705B24BCD&#45;&gt;EAID_02A05DF2_AFB7_42e8_AF1F_587E08F69421</title>
<path fill="none" stroke="black" d="M562.195,-161.922C578.214,-155.108 595.008,-147.965 611.372,-141.004"/>
<polygon fill="black" stroke="black" points="613.116,-144.066 620.948,-136.931 610.376,-137.624 613.116,-144.066"/>
</g>
<!-- EAID_4988C3E9_B90E_42f4_BA3E_88A40DF06B81 -->
<g id="node6" class="node"><title>EAID_4988C3E9_B90E_42f4_BA3E_88A40DF06B81</title>
<image xlink:href="img/control1.png" width="106px" height="75px" preserveAspectRatio="xMinYMin meet" x="664" y="-360.5"/>
<text text-anchor="start" x="608" y="-262.3" font-family="Times New Roman,serif" font-size="24.00">redirect to login screen</text>
</g>
<!-- EAID_DEAB90C1_D128_445a_85EB_911705B24BCD&#45;&gt;EAID_4988C3E9_B90E_42f4_BA3E_88A40DF06B81 -->
<g id="edge5" class="edge"><title>EAID_DEAB90C1_D128_445a_85EB_911705B24BCD&#45;&gt;EAID_4988C3E9_B90E_42f4_BA3E_88A40DF06B81</title>
<path fill="none" stroke="black" d="M562.195,-240.562C570.769,-244.349 579.565,-248.234 588.398,-252.136"/>
<polygon fill="black" stroke="black" points="587.047,-255.365 597.609,-256.204 589.876,-248.962 587.047,-255.365"/>
</g>
<!-- EAID_73020E82_78A0_43b6_8E9B_BFB284667DB7 -->
<g id="node7" class="node"><title>EAID_73020E82_78A0_43b6_8E9B_BFB284667DB7</title>
<image xlink:href="img/activity_icon.png" width="30px" height="20px" preserveAspectRatio="xMinYMin meet" x="702.5" y="-225.5"/>
<text text-anchor="start" x="642" y="-183.3" font-family="Times New Roman,serif" font-weight="bold" font-size="24.00">credential info</text>
</g>
<!-- EAID_DEAB90C1_D128_445a_85EB_911705B24BCD&#45;&gt;EAID_73020E82_78A0_43b6_8E9B_BFB284667DB7 -->
<g id="edge6" class="edge"><title>EAID_DEAB90C1_D128_445a_85EB_911705B24BCD&#45;&gt;EAID_73020E82_78A0_43b6_8E9B_BFB284667DB7</title>
<path fill="none" stroke="black" d="M562.195,-200.5C581.406,-200.5 601.734,-200.5 621.096,-200.5"/>
<polygon fill="black" stroke="black" points="621.122,-204 631.122,-200.5 621.122,-197 621.122,-204"/>
</g>
<!-- EAID_4988C3E9_B90E_42f4_BA3E_88A40DF06B81&#45;&gt;EAID_777A4227_D946_41bb_9956_7DE7656577EF -->
<g id="edge9" class="edge"><title>EAID_4988C3E9_B90E_42f4_BA3E_88A40DF06B81&#45;&gt;EAID_777A4227_D946_41bb_9956_7DE7656577EF</title>
<path fill="none" stroke="black" d="M597.7,-302.92C532.281,-297.651 450.085,-287.409 379,-267.5 369.929,-264.959 360.706,-261.941 351.525,-258.614"/>
<polygon fill="black" stroke="black" points="352.573,-255.269 341.98,-255.041 350.119,-261.825 352.573,-255.269"/>
</g>
<!-- EAID_D46EE3E6_ED93_4e13_80BB_30CB7B594FD0&#45;&gt;EAID_C056A8AC_5A18_4399_AD70_8F811363E708 -->
<g id="edge10" class="edge"><title>EAID_D46EE3E6_ED93_4e13_80BB_30CB7B594FD0&#45;&gt;EAID_C056A8AC_5A18_4399_AD70_8F811363E708</title>
<path fill="none" stroke="black" d="M1113.16,-74.89C1121.83,-73.1797 1130.43,-71.4825 1138.75,-69.84"/>
<polygon fill="black" stroke="black" points="1139.62,-73.2361 1148.76,-67.8664 1138.27,-66.3685 1139.62,-73.2361"/>
</g>
</g>
</svg>
