<?xml version="1.0" encoding="UTF-8" standalone="no"?>
<!DOCTYPE svg PUBLIC "-//W3C//DTD SVG 1.1//EN"
 "http://www.w3.org/Graphics/SVG/1.1/DTD/svg11.dtd">
<!-- Generated by graphviz version 2.38.0 (20140413.2041)
 -->
<!-- Title: g Pages: 1 -->
<svg width="1305pt" height="639pt"
 viewBox="0.00 0.00 1304.50 639.00" xmlns="http://www.w3.org/2000/svg" xmlns:xlink="http://www.w3.org/1999/xlink">
<g id="graph0" class="graph" transform="scale(1 1) rotate(0) translate(4 635)">
<title>g</title>
<polygon fill="white" stroke="none" points="-4,4 -4,-635 1300.5,-635 1300.5,4 -4,4"/>
<g id="clust1" class="cluster"><title>cluster1000</title>
<polygon fill="none" stroke="black" stroke-width="2" points="456.5,-427 456.5,-623 1288.5,-623 1288.5,-427 456.5,-427"/>
<text text-anchor="start" x="827" y="-608.8" font-family="Times New Roman,serif" font-weight="bold" font-size="14.00">Domain Model</text>
</g>
<!-- EAID_47249D9E_CE02_4ebf_A47E_516CA8D89967 -->
<g id="node1" class="node"><title>EAID_47249D9E_CE02_4ebf_A47E_516CA8D89967</title>
<image xlink:href="img/activity_icon.png" width="30px" height="20px" preserveAspectRatio="xMinYMin meet" x="126" y="-218.5"/>
<text text-anchor="start" x="10.5" y="-184.3" font-family="Times New Roman,serif" font-weight="bold" font-size="14.00">System displays &quot;Invalid Search&quot; message</text>
</g>
<!-- EAID_C9CE04EC_E303_4c99_818E_6FB02BA82390 -->
<g id="node8" class="node"><title>EAID_C9CE04EC_E303_4c99_818E_6FB02BA82390</title>
<image xlink:href="img/activity_icon.png" width="30px" height="20px" preserveAspectRatio="xMinYMin meet" x="125.5" y="-131.5"/>
<text text-anchor="start" x="108.5" y="-97.3" font-family="Times New Roman,serif" font-weight="bold" font-size="14.00">FlowEnd1</text>
</g>
<!-- EAID_47249D9E_CE02_4ebf_A47E_516CA8D89967&#45;&gt;EAID_C9CE04EC_E303_4c99_818E_6FB02BA82390 -->
<g id="edge1" class="edge"><title>EAID_47249D9E_CE02_4ebf_A47E_516CA8D89967&#45;&gt;EAID_C9CE04EC_E303_4c99_818E_6FB02BA82390</title>
<path fill="none" stroke="black" d="M140.5,-173.914C140.5,-165.897 140.5,-156.839 140.5,-148.222"/>
<polygon fill="black" stroke="black" points="144,-148.03 140.5,-138.03 137,-148.03 144,-148.03"/>
</g>
<!-- EAID_B6DD4234_6B18_4236_9F78_B2B12F3AA2B3 -->
<g id="node2" class="node"><title>EAID_B6DD4234_6B18_4236_9F78_B2B12F3AA2B3</title>
<image xlink:href="img/activity_icon.png" width="30px" height="20px" preserveAspectRatio="xMinYMin meet" x="380.5" y="-131.5"/>
<text text-anchor="start" x="273.5" y="-97.3" font-family="Times New Roman,serif" font-weight="bold" font-size="14.00">System displays &quot;list is empty&quot; message</text>
</g>
<!-- EAID_71D70706_F43F_4b28_9707_71DBCEA2C311 -->
<g id="node9" class="node"><title>EAID_71D70706_F43F_4b28_9707_71DBCEA2C311</title>
<image xlink:href="img/activity_icon.png" width="30px" height="20px" preserveAspectRatio="xMinYMin meet" x="380.5" y="-44.5"/>
<text text-anchor="start" x="363.5" y="-10.3" font-family="Times New Roman,serif" font-weight="bold" font-size="14.00">FlowEnd2</text>
</g>
<!-- EAID_B6DD4234_6B18_4236_9F78_B2B12F3AA2B3&#45;&gt;EAID_71D70706_F43F_4b28_9707_71DBCEA2C311 -->
<g id="edge2" class="edge"><title>EAID_B6DD4234_6B18_4236_9F78_B2B12F3AA2B3&#45;&gt;EAID_71D70706_F43F_4b28_9707_71DBCEA2C311</title>
<path fill="none" stroke="black" d="M395.5,-86.9145C395.5,-78.8972 395.5,-69.8388 395.5,-61.2221"/>
<polygon fill="black" stroke="black" points="399,-61.0302 395.5,-51.0303 392,-61.0303 399,-61.0302"/>
</g>
<!-- EAID_39DD1017_710F_4a28_9723_7FFED709C5BA -->
<g id="node3" class="node"><title>EAID_39DD1017_710F_4a28_9723_7FFED709C5BA</title>
<image xlink:href="img/activity_icon.png" width="30px" height="20px" preserveAspectRatio="xMinYMin meet" x="666" y="-131.5"/>
<text text-anchor="start" x="556.5" y="-97.3" font-family="Times New Roman,serif" font-weight="bold" font-size="14.00">System displays the returned list of items</text>
</g>
<!-- EAID_79FF891A_A6DD_4797_8240_B4E504A96918 -->
<g id="node10" class="node"><title>EAID_79FF891A_A6DD_4797_8240_B4E504A96918</title>
<image xlink:href="img/activity_icon.png" width="25px" height="20px" preserveAspectRatio="xMinYMin meet" x="668.5" y="-44.5"/>
<text text-anchor="start" x="668.5" y="-10.3" font-family="Times New Roman,serif" font-weight="bold" font-size="14.00">End</text>
</g>
<!-- EAID_39DD1017_710F_4a28_9723_7FFED709C5BA&#45;&gt;EAID_79FF891A_A6DD_4797_8240_B4E504A96918 -->
<g id="edge3" class="edge"><title>EAID_39DD1017_710F_4a28_9723_7FFED709C5BA&#45;&gt;EAID_79FF891A_A6DD_4797_8240_B4E504A96918</title>
<path fill="none" stroke="black" d="M680.5,-86.9145C680.5,-78.8972 680.5,-69.8388 680.5,-61.2221"/>
<polygon fill="black" stroke="black" points="684,-61.0302 680.5,-51.0303 677,-61.0303 684,-61.0302"/>
</g>
<!-- EAID_D4AB1359_DB27_491a_8019_ACF23ED2B703 -->
<g id="node4" class="node"><title>EAID_D4AB1359_DB27_491a_8019_ACF23ED2B703</title>
<image xlink:href="img/activity_icon.png" width="30px" height="20px" preserveAspectRatio="xMinYMin meet" x="444.5" y="-218.5"/>
<text text-anchor="start" x="309.5" y="-184.3" font-family="Times New Roman,serif" font-weight="bold" font-size="14.00">System queries from the catalog by the keywords</text>
</g>
<!-- EAID_D4AB1359_DB27_491a_8019_ACF23ED2B703&#45;&gt;EAID_B6DD4234_6B18_4236_9F78_B2B12F3AA2B3 -->
<g id="edge8" class="edge"><title>EAID_D4AB1359_DB27_491a_8019_ACF23ED2B703&#45;&gt;EAID_B6DD4234_6B18_4236_9F78_B2B12F3AA2B3</title>
<path fill="none" stroke="black" d="M440.989,-173.914C434.488,-165.28 427.078,-155.439 420.153,-146.242"/>
<polygon fill="black" stroke="black" points="422.781,-143.914 413.97,-138.03 417.189,-148.124 422.781,-143.914"/>
</g>
<!-- EAID_D4AB1359_DB27_491a_8019_ACF23ED2B703&#45;&gt;EAID_39DD1017_710F_4a28_9723_7FFED709C5BA -->
<g id="edge9" class="edge"><title>EAID_D4AB1359_DB27_491a_8019_ACF23ED2B703&#45;&gt;EAID_39DD1017_710F_4a28_9723_7FFED709C5BA</title>
<path fill="none" stroke="black" d="M523.422,-173.914C549.65,-163.827 580.164,-152.091 607.283,-141.66"/>
<polygon fill="black" stroke="black" points="608.644,-144.887 616.721,-138.03 606.131,-138.353 608.644,-144.887"/>
</g>
<!-- EAID_243DDB7B_08DC_41c6_AB72_29A28BCB9A3E -->
<g id="node5" class="node"><title>EAID_243DDB7B_08DC_41c6_AB72_29A28BCB9A3E</title>
<image xlink:href="img/activity_icon.png" width="30px" height="20px" preserveAspectRatio="xMinYMin meet" x="284.5" y="-305.5"/>
<text text-anchor="start" x="188.5" y="-271.3" font-family="Times New Roman,serif" font-weight="bold" font-size="14.00">System validates the input keywords</text>
</g>
<!-- EAID_243DDB7B_08DC_41c6_AB72_29A28BCB9A3E&#45;&gt;EAID_47249D9E_CE02_4ebf_A47E_516CA8D89967 -->
<g id="edge7" class="edge"><title>EAID_243DDB7B_08DC_41c6_AB72_29A28BCB9A3E&#45;&gt;EAID_47249D9E_CE02_4ebf_A47E_516CA8D89967</title>
<path fill="none" stroke="black" d="M253.511,-260.914C235.3,-251.179 214.218,-239.909 195.23,-229.758"/>
<polygon fill="black" stroke="black" points="196.855,-226.658 186.386,-225.03 193.555,-232.831 196.855,-226.658"/>
</g>
<!-- EAID_243DDB7B_08DC_41c6_AB72_29A28BCB9A3E&#45;&gt;EAID_D4AB1359_DB27_491a_8019_ACF23ED2B703 -->
<g id="edge6" class="edge"><title>EAID_243DDB7B_08DC_41c6_AB72_29A28BCB9A3E&#45;&gt;EAID_D4AB1359_DB27_491a_8019_ACF23ED2B703</title>
<path fill="none" stroke="black" d="M345.779,-260.914C364.104,-251.179 385.319,-239.909 404.426,-229.758"/>
<polygon fill="black" stroke="black" points="406.136,-232.813 413.325,-225.03 402.852,-226.631 406.136,-232.813"/>
</g>
<!-- EAID_8BA48998_23DD_4065_98D5_4E6824B61F8E -->
<g id="node6" class="node"><title>EAID_8BA48998_23DD_4065_98D5_4E6824B61F8E</title>
<image xlink:href="img/activity_icon.png" width="30px" height="20px" preserveAspectRatio="xMinYMin meet" x="284.5" y="-392.5"/>
<text text-anchor="start" x="134.5" y="-358.3" font-family="Times New Roman,serif" font-weight="bold" font-size="14.00">User inputs the keywords and clicks the search button</text>
</g>
<!-- EAID_8BA48998_23DD_4065_98D5_4E6824B61F8E&#45;&gt;EAID_243DDB7B_08DC_41c6_AB72_29A28BCB9A3E -->
<g id="edge4" class="edge"><title>EAID_8BA48998_23DD_4065_98D5_4E6824B61F8E&#45;&gt;EAID_243DDB7B_08DC_41c6_AB72_29A28BCB9A3E</title>
<path fill="none" stroke="black" d="M299.5,-347.914C299.5,-339.897 299.5,-330.839 299.5,-322.222"/>
<polygon fill="black" stroke="black" points="303,-322.03 299.5,-312.03 296,-322.03 303,-322.03"/>
</g>
<!-- EAID_AC000001_D027_4b4f_8BBB_64A429966983 -->
<g id="node7" class="node"><title>EAID_AC000001_D027_4b4f_8BBB_64A429966983</title>
<image xlink:href="img/activity_icon.png" width="30px" height="20px" preserveAspectRatio="xMinYMin meet" x="380.5" y="-532.5"/>
<text text-anchor="start" x="354.5" y="-498.3" font-family="Times New Roman,serif" font-weight="bold" font-size="14.00">EA_Activity1</text>
</g>
<!-- EAID_D8F33C45_60FF_4626_BD43_5241DBB5BEFA -->
<g id="node11" class="node"><title>EAID_D8F33C45_60FF_4626_BD43_5241DBB5BEFA</title>
<image xlink:href="img/activity_icon.png" width="30px" height="20px" preserveAspectRatio="xMinYMin meet" x="285" y="-532.5"/>
<text text-anchor="start" x="284.5" y="-498.3" font-family="Times New Roman,serif" font-weight="bold" font-size="14.00">Start</text>
</g>
<!-- EAID_D8F33C45_60FF_4626_BD43_5241DBB5BEFA&#45;&gt;EAID_8BA48998_23DD_4065_98D5_4E6824B61F8E -->
<g id="edge5" class="edge"><title>EAID_D8F33C45_60FF_4626_BD43_5241DBB5BEFA&#45;&gt;EAID_8BA48998_23DD_4065_98D5_4E6824B61F8E</title>
<path fill="none" stroke="black" d="M299.5,-487.828C299.5,-466.083 299.5,-434.151 299.5,-409.719"/>
<polygon fill="black" stroke="black" points="303,-409.423 299.5,-399.423 296,-409.423 303,-409.423"/>
</g>
<!-- EAID_BD32CCE3_9A4B_4aac_B926_D0CC90123FBB -->
<g id="node12" class="node"><title>EAID_BD32CCE3_9A4B_4aac_B926_D0CC90123FBB</title>
<polygon fill="none" stroke="black" points="1117.5,-513.5 1117.5,-534.5 1271.5,-534.5 1271.5,-513.5 1117.5,-513.5"/>
<text text-anchor="start" x="1170" y="-521.3" font-family="Times New Roman,serif" font-weight="bold" font-size="14.00">Catalog</text>
<polygon fill="none" stroke="black" points="1117.5,-492.5 1117.5,-513.5 1271.5,-513.5 1271.5,-492.5 1117.5,-492.5"/>
<text text-anchor="start" x="1120.5" y="-500.3" font-family="Times New Roman,serif" font-weight="bold" font-size="14.00">ItemList queryCatalog()</text>
<polygon fill="none" stroke="black" points="1116.5,-491.5 1116.5,-535.5 1272.5,-535.5 1272.5,-491.5 1116.5,-491.5"/>
</g>
<!-- EAID_6F0ED3B7_B3EB_4f6d_94C9_17E9B1FE25DA -->
<g id="node13" class="node"><title>EAID_6F0ED3B7_B3EB_4f6d_94C9_17E9B1FE25DA</title>
<polygon fill="none" stroke="black" points="884.5,-513.5 884.5,-534.5 1081.5,-534.5 1081.5,-513.5 884.5,-513.5"/>
<text text-anchor="start" x="940.5" y="-521.3" font-family="Times New Roman,serif" font-weight="bold" font-size="14.00">ItemManager</text>
<polygon fill="none" stroke="black" points="884.5,-492.5 884.5,-513.5 1081.5,-513.5 1081.5,-492.5 884.5,-492.5"/>
<text text-anchor="start" x="887.5" y="-500.3" font-family="Times New Roman,serif" font-weight="bold" font-size="14.00">void searchItemsByKeywords()</text>
<polygon fill="none" stroke="black" points="883,-491.5 883,-535.5 1082,-535.5 1082,-491.5 883,-491.5"/>
</g>
<!-- EAID_CC8035CD_7CA2_4fcc_806D_98507CF458CD -->
<g id="node14" class="node"><title>EAID_CC8035CD_7CA2_4fcc_806D_98507CF458CD</title>
<polygon fill="none" stroke="black" points="709.5,-544.5 709.5,-565.5 847.5,-565.5 847.5,-544.5 709.5,-544.5"/>
<text text-anchor="start" x="727.5" y="-552.3" font-family="Times New Roman,serif" font-weight="bold" font-size="14.00">ItemSearchPage</text>
<polygon fill="none" stroke="black" points="709.5,-523.5 709.5,-544.5 847.5,-544.5 847.5,-523.5 709.5,-523.5"/>
<text text-anchor="start" x="746" y="-531.3" font-family="Times New Roman,serif" font-weight="bold" font-size="14.00">int pageID</text>
<polygon fill="none" stroke="black" points="709.5,-502.5 709.5,-523.5 847.5,-523.5 847.5,-502.5 709.5,-502.5"/>
<text text-anchor="start" x="712.5" y="-510.3" font-family="Times New Roman,serif" font-weight="bold" font-size="14.00">InputField searchBox</text>
<polygon fill="none" stroke="black" points="709.5,-481.5 709.5,-502.5 847.5,-502.5 847.5,-481.5 709.5,-481.5"/>
<text text-anchor="start" x="715" y="-489.3" font-family="Times New Roman,serif" font-weight="bold" font-size="14.00">Button searchButton</text>
<polygon fill="none" stroke="black" points="709.5,-460.5 709.5,-481.5 847.5,-481.5 847.5,-460.5 709.5,-460.5"/>
<text text-anchor="start" x="730" y="-468.3" font-family="Times New Roman,serif" font-weight="bold" font-size="14.00">void onSearch()</text>
<polygon fill="none" stroke="black" points="708.5,-460 708.5,-567 848.5,-567 848.5,-460 708.5,-460"/>
</g>
<!-- EAID_95C25856_C5F6_475d_B9C2_27FA161F4E34 -->
<g id="node15" class="node"><title>EAID_95C25856_C5F6_475d_B9C2_27FA161F4E34</title>
<polygon fill="none" stroke="black" points="474.5,-565.5 474.5,-586.5 673.5,-586.5 673.5,-565.5 474.5,-565.5"/>
<text text-anchor="start" x="514.5" y="-573.3" font-family="Times New Roman,serif" font-weight="bold" font-size="14.00">SearchResultsPage</text>
<polygon fill="none" stroke="black" points="474.5,-544.5 474.5,-565.5 673.5,-565.5 673.5,-544.5 474.5,-544.5"/>
<text text-anchor="start" x="530.5" y="-552.3" font-family="Times New Roman,serif" font-weight="bold" font-size="14.00">String pageID</text>
<polygon fill="none" stroke="black" points="474.5,-523.5 474.5,-544.5 673.5,-544.5 673.5,-523.5 474.5,-523.5"/>
<text text-anchor="start" x="541.5" y="-531.3" font-family="Times New Roman,serif" font-weight="bold" font-size="14.00">String title</text>
<polygon fill="none" stroke="black" points="474.5,-502.5 474.5,-523.5 673.5,-523.5 673.5,-502.5 474.5,-502.5"/>
<text text-anchor="start" x="493.5" y="-510.3" font-family="Times New Roman,serif" font-weight="bold" font-size="14.00">ListView searchResultList</text>
<polygon fill="none" stroke="black" points="474.5,-481.5 474.5,-502.5 673.5,-502.5 673.5,-481.5 474.5,-481.5"/>
<text text-anchor="start" x="477.5" y="-489.3" font-family="Times New Roman,serif" font-weight="bold" font-size="14.00">void displaySearchInvalidMsg()</text>
<polygon fill="none" stroke="black" points="474.5,-460.5 474.5,-481.5 673.5,-481.5 673.5,-460.5 474.5,-460.5"/>
<text text-anchor="start" x="507.5" y="-468.3" font-family="Times New Roman,serif" font-weight="bold" font-size="14.00">void displayItemList()</text>
<polygon fill="none" stroke="black" points="474.5,-439.5 474.5,-460.5 673.5,-460.5 673.5,-439.5 474.5,-439.5"/>
<text text-anchor="start" x="482" y="-447.3" font-family="Times New Roman,serif" font-weight="bold" font-size="14.00">void displayEmptyListNotice()</text>
<polygon fill="none" stroke="black" points="473,-439 473,-588 674,-588 674,-439 473,-439"/>
</g>
</g>
</svg>
