<?xml version="1.0" encoding="UTF-8" standalone="no"?>
<!DOCTYPE svg PUBLIC "-//W3C//DTD SVG 1.1//EN"
 "http://www.w3.org/Graphics/SVG/1.1/DTD/svg11.dtd">
<!-- Generated by graphviz version 2.38.0 (20140413.2041)
 -->
<!-- Title: g Pages: 1 -->
<svg width="1210pt" height="639pt"
 viewBox="0.00 0.00 1210.00 639.00" xmlns="http://www.w3.org/2000/svg" xmlns:xlink="http://www.w3.org/1999/xlink">
<g id="graph0" class="graph" transform="scale(1 1) rotate(0) translate(4 635)">
<title>g</title>
<polygon fill="white" stroke="none" points="-4,4 -4,-635 1206,-635 1206,4 -4,4"/>
<g id="clust1" class="cluster"><title>cluster1000</title>
<polygon fill="none" stroke="black" stroke-width="2" points="362,-427 362,-623 1194,-623 1194,-427 362,-427"/>
<text text-anchor="start" x="732.5" y="-608.8" font-family="Times New Roman,serif" font-weight="bold" font-size="14.00">Domain Model</text>
</g>
<!-- EAID_BA8B93C2_E026_4d0e_889A_0B24BA238CF4 -->
<g id="node1" class="node"><title>EAID_BA8B93C2_E026_4d0e_889A_0B24BA238CF4</title>
<image xlink:href="img/activity_icon.png" width="30px" height="20px" preserveAspectRatio="xMinYMin meet" x="84" y="-532.5"/>
<text text-anchor="start" x="10" y="-498.3" font-family="Times New Roman,serif" font-weight="bold" font-size="14.00">Query Item_ActivityDiagram</text>
</g>
<!-- EAID_B690BA55_3441_4cad_BB4A_53A069F62908 -->
<g id="node2" class="node"><title>EAID_B690BA55_3441_4cad_BB4A_53A069F62908</title>
<image xlink:href="img/activity_icon.png" width="30px" height="20px" preserveAspectRatio="xMinYMin meet" x="233.5" y="-532.5"/>
<text text-anchor="start" x="227" y="-498.3" font-family="Times New Roman,serif" font-weight="bold" font-size="14.00">Event1</text>
</g>
<!-- EAID_8ED47CE1_21D4_4ec2_963A_7342527056DD -->
<g id="node3" class="node"><title>EAID_8ED47CE1_21D4_4ec2_963A_7342527056DD</title>
<image xlink:href="img/activity_icon.png" width="30px" height="20px" preserveAspectRatio="xMinYMin meet" x="151" y="-131.5"/>
<text text-anchor="start" x="134" y="-97.3" font-family="Times New Roman,serif" font-weight="bold" font-size="14.00">FlowEnd1</text>
</g>
<!-- EAID_B3FD795D_B311_432f_A3F3_D62BB1319EC9 -->
<g id="node4" class="node"><title>EAID_B3FD795D_B311_432f_A3F3_D62BB1319EC9</title>
<image xlink:href="img/activity_icon.png" width="30px" height="20px" preserveAspectRatio="xMinYMin meet" x="590" y="-44.5"/>
<text text-anchor="start" x="573" y="-10.3" font-family="Times New Roman,serif" font-weight="bold" font-size="14.00">FlowEnd2</text>
</g>
<!-- EAID_E4C502CE_2645_436f_9031_74F5DB5DC6DF -->
<g id="node5" class="node"><title>EAID_E4C502CE_2645_436f_9031_74F5DB5DC6DF</title>
<image xlink:href="img/activity_icon.png" width="30px" height="20px" preserveAspectRatio="xMinYMin meet" x="312" y="-131.5"/>
<text text-anchor="start" x="303" y="-97.3" font-family="Times New Roman,serif" font-weight="bold" font-size="14.00">Action1</text>
</g>
<!-- EAID_040E4747_D53E_48a0_AC91_C3926F3EEC5A -->
<g id="node6" class="node"><title>EAID_040E4747_D53E_48a0_AC91_C3926F3EEC5A</title>
<image xlink:href="img/activity_icon.png" width="25px" height="20px" preserveAspectRatio="xMinYMin meet" x="878" y="-44.5"/>
<text text-anchor="start" x="878" y="-10.3" font-family="Times New Roman,serif" font-weight="bold" font-size="14.00">End</text>
</g>
<!-- EAID_9738B0AF_C2A4_41f9_BCC6_CAA8FBFC2B30 -->
<g id="node7" class="node"><title>EAID_9738B0AF_C2A4_41f9_BCC6_CAA8FBFC2B30</title>
<image xlink:href="img/activity_icon.png" width="30px" height="20px" preserveAspectRatio="xMinYMin meet" x="310.5" y="-532.5"/>
<text text-anchor="start" x="310" y="-498.3" font-family="Times New Roman,serif" font-weight="bold" font-size="14.00">Start</text>
</g>
<!-- EAID_3F61A775_51C7_40b0_A4B0_D1EA58E7172C -->
<g id="node14" class="node"><title>EAID_3F61A775_51C7_40b0_A4B0_D1EA58E7172C</title>
<image xlink:href="img/activity_icon.png" width="30px" height="20px" preserveAspectRatio="xMinYMin meet" x="310" y="-392.5"/>
<text text-anchor="start" x="160" y="-358.3" font-family="Times New Roman,serif" font-weight="bold" font-size="14.00">User inputs the keywords and clicks the search button</text>
</g>
<!-- EAID_9738B0AF_C2A4_41f9_BCC6_CAA8FBFC2B30&#45;&gt;EAID_3F61A775_51C7_40b0_A4B0_D1EA58E7172C -->
<g id="edge5" class="edge"><title>EAID_9738B0AF_C2A4_41f9_BCC6_CAA8FBFC2B30&#45;&gt;EAID_3F61A775_51C7_40b0_A4B0_D1EA58E7172C</title>
<path fill="none" stroke="black" d="M325,-487.828C325,-466.083 325,-434.151 325,-409.719"/>
<polygon fill="black" stroke="black" points="328.5,-409.423 325,-399.423 321.5,-409.423 328.5,-409.423"/>
</g>
<!-- EAID_7DEBFC9F_9BD5_4fdd_9DF1_9D87AC193263 -->
<g id="node8" class="node"><title>EAID_7DEBFC9F_9BD5_4fdd_9DF1_9D87AC193263</title>
<image xlink:href="img/activity_icon.png" width="30px" height="20px" preserveAspectRatio="xMinYMin meet" x="402.5" y="-131.5"/>
<text text-anchor="start" x="390" y="-97.3" font-family="Times New Roman,serif" font-weight="bold" font-size="14.00">Activity1</text>
</g>
<!-- EAID_8C7E604F_587F_41cf_BA36_F9E9F83B4AAB -->
<g id="node9" class="node"><title>EAID_8C7E604F_587F_41cf_BA36_F9E9F83B4AAB</title>
<image xlink:href="img/activity_icon.png" width="30px" height="20px" preserveAspectRatio="xMinYMin meet" x="151.5" y="-218.5"/>
<text text-anchor="start" x="36" y="-184.3" font-family="Times New Roman,serif" font-weight="bold" font-size="14.00">System displays &quot;Invalid Search&quot; message</text>
</g>
<!-- EAID_8C7E604F_587F_41cf_BA36_F9E9F83B4AAB&#45;&gt;EAID_8ED47CE1_21D4_4ec2_963A_7342527056DD -->
<g id="edge1" class="edge"><title>EAID_8C7E604F_587F_41cf_BA36_F9E9F83B4AAB&#45;&gt;EAID_8ED47CE1_21D4_4ec2_963A_7342527056DD</title>
<path fill="none" stroke="black" d="M166,-173.914C166,-165.897 166,-156.839 166,-148.222"/>
<polygon fill="black" stroke="black" points="169.5,-148.03 166,-138.03 162.5,-148.03 169.5,-148.03"/>
</g>
<!-- EAID_2ED1F72D_AE59_4b45_B9D3_D1030A0A0DA3 -->
<g id="node10" class="node"><title>EAID_2ED1F72D_AE59_4b45_B9D3_D1030A0A0DA3</title>
<image xlink:href="img/activity_icon.png" width="30px" height="20px" preserveAspectRatio="xMinYMin meet" x="590" y="-131.5"/>
<text text-anchor="start" x="483" y="-97.3" font-family="Times New Roman,serif" font-weight="bold" font-size="14.00">System displays &quot;list is empty&quot; message</text>
</g>
<!-- EAID_2ED1F72D_AE59_4b45_B9D3_D1030A0A0DA3&#45;&gt;EAID_B3FD795D_B311_432f_A3F3_D62BB1319EC9 -->
<g id="edge2" class="edge"><title>EAID_2ED1F72D_AE59_4b45_B9D3_D1030A0A0DA3&#45;&gt;EAID_B3FD795D_B311_432f_A3F3_D62BB1319EC9</title>
<path fill="none" stroke="black" d="M605,-86.9145C605,-78.8972 605,-69.8388 605,-61.2221"/>
<polygon fill="black" stroke="black" points="608.5,-61.0302 605,-51.0303 601.5,-61.0303 608.5,-61.0302"/>
</g>
<!-- EAID_C232F586_CCBC_44e3_AB9E_418A6F0E7755 -->
<g id="node11" class="node"><title>EAID_C232F586_CCBC_44e3_AB9E_418A6F0E7755</title>
<image xlink:href="img/activity_icon.png" width="30px" height="20px" preserveAspectRatio="xMinYMin meet" x="875.5" y="-131.5"/>
<text text-anchor="start" x="766" y="-97.3" font-family="Times New Roman,serif" font-weight="bold" font-size="14.00">System displays the returned list of items</text>
</g>
<!-- EAID_C232F586_CCBC_44e3_AB9E_418A6F0E7755&#45;&gt;EAID_040E4747_D53E_48a0_AC91_C3926F3EEC5A -->
<g id="edge3" class="edge"><title>EAID_C232F586_CCBC_44e3_AB9E_418A6F0E7755&#45;&gt;EAID_040E4747_D53E_48a0_AC91_C3926F3EEC5A</title>
<path fill="none" stroke="black" d="M890,-86.9145C890,-78.8972 890,-69.8388 890,-61.2221"/>
<polygon fill="black" stroke="black" points="893.5,-61.0302 890,-51.0303 886.5,-61.0303 893.5,-61.0302"/>
</g>
<!-- EAID_A17AC6DE_8D4C_42fb_AD8B_59375CEFA373 -->
<g id="node12" class="node"><title>EAID_A17AC6DE_8D4C_42fb_AD8B_59375CEFA373</title>
<image xlink:href="img/activity_icon.png" width="30px" height="20px" preserveAspectRatio="xMinYMin meet" x="470" y="-218.5"/>
<text text-anchor="start" x="335" y="-184.3" font-family="Times New Roman,serif" font-weight="bold" font-size="14.00">System queries from the catalog by the keywords</text>
</g>
<!-- EAID_A17AC6DE_8D4C_42fb_AD8B_59375CEFA373&#45;&gt;EAID_E4C502CE_2645_436f_9031_74F5DB5DC6DF -->
<g id="edge10" class="edge"><title>EAID_A17AC6DE_8D4C_42fb_AD8B_59375CEFA373&#45;&gt;EAID_E4C502CE_2645_436f_9031_74F5DB5DC6DF</title>
<path fill="none" stroke="black" d="M437.53,-173.983C416.721,-163.118 392.061,-150.084 370,-138 369.911,-137.951 369.821,-137.902 369.731,-137.853"/>
<polygon fill="black" stroke="black" points="371.652,-134.916 361.209,-133.129 368.258,-141.038 371.652,-134.916"/>
</g>
<!-- EAID_A17AC6DE_8D4C_42fb_AD8B_59375CEFA373&#45;&gt;EAID_7DEBFC9F_9BD5_4fdd_9DF1_9D87AC193263 -->
<g id="edge8" class="edge"><title>EAID_A17AC6DE_8D4C_42fb_AD8B_59375CEFA373&#45;&gt;EAID_7DEBFC9F_9BD5_4fdd_9DF1_9D87AC193263</title>
<path fill="none" stroke="black" d="M465.332,-173.914C458.354,-165.192 450.39,-155.238 442.969,-145.961"/>
<polygon fill="black" stroke="black" points="445.604,-143.653 436.624,-138.03 440.138,-148.025 445.604,-143.653"/>
</g>
<!-- EAID_A17AC6DE_8D4C_42fb_AD8B_59375CEFA373&#45;&gt;EAID_2ED1F72D_AE59_4b45_B9D3_D1030A0A0DA3 -->
<g id="edge11" class="edge"><title>EAID_A17AC6DE_8D4C_42fb_AD8B_59375CEFA373&#45;&gt;EAID_2ED1F72D_AE59_4b45_B9D3_D1030A0A0DA3</title>
<path fill="none" stroke="black" d="M519.709,-173.914C532.893,-164.576 548.072,-153.824 561.936,-144.004"/>
<polygon fill="black" stroke="black" points="564.232,-146.667 570.369,-138.03 560.186,-140.954 564.232,-146.667"/>
</g>
<!-- EAID_A17AC6DE_8D4C_42fb_AD8B_59375CEFA373&#45;&gt;EAID_C232F586_CCBC_44e3_AB9E_418A6F0E7755 -->
<g id="edge9" class="edge"><title>EAID_A17AC6DE_8D4C_42fb_AD8B_59375CEFA373&#45;&gt;EAID_C232F586_CCBC_44e3_AB9E_418A6F0E7755</title>
<path fill="none" stroke="black" d="M601.871,-173.972C652.357,-163.376 711.546,-150.953 763.102,-140.133"/>
<polygon fill="black" stroke="black" points="763.903,-143.541 772.971,-138.062 762.465,-136.69 763.903,-143.541"/>
</g>
<!-- EAID_1D07DB93_195D_4537_B7F7_4523E095F005 -->
<g id="node13" class="node"><title>EAID_1D07DB93_195D_4537_B7F7_4523E095F005</title>
<image xlink:href="img/activity_icon.png" width="30px" height="20px" preserveAspectRatio="xMinYMin meet" x="310" y="-305.5"/>
<text text-anchor="start" x="214" y="-271.3" font-family="Times New Roman,serif" font-weight="bold" font-size="14.00">System validates the input keywords</text>
</g>
<!-- EAID_1D07DB93_195D_4537_B7F7_4523E095F005&#45;&gt;EAID_8C7E604F_587F_41cf_BA36_F9E9F83B4AAB -->
<g id="edge6" class="edge"><title>EAID_1D07DB93_195D_4537_B7F7_4523E095F005&#45;&gt;EAID_8C7E604F_587F_41cf_BA36_F9E9F83B4AAB</title>
<path fill="none" stroke="black" d="M279.011,-260.914C260.8,-251.179 239.718,-239.909 220.73,-229.758"/>
<polygon fill="black" stroke="black" points="222.355,-226.658 211.886,-225.03 219.055,-232.831 222.355,-226.658"/>
</g>
<!-- EAID_1D07DB93_195D_4537_B7F7_4523E095F005&#45;&gt;EAID_A17AC6DE_8D4C_42fb_AD8B_59375CEFA373 -->
<g id="edge7" class="edge"><title>EAID_1D07DB93_195D_4537_B7F7_4523E095F005&#45;&gt;EAID_A17AC6DE_8D4C_42fb_AD8B_59375CEFA373</title>
<path fill="none" stroke="black" d="M371.279,-260.914C389.604,-251.179 410.819,-239.909 429.926,-229.758"/>
<polygon fill="black" stroke="black" points="431.636,-232.813 438.825,-225.03 428.352,-226.631 431.636,-232.813"/>
</g>
<!-- EAID_3F61A775_51C7_40b0_A4B0_D1EA58E7172C&#45;&gt;EAID_1D07DB93_195D_4537_B7F7_4523E095F005 -->
<g id="edge4" class="edge"><title>EAID_3F61A775_51C7_40b0_A4B0_D1EA58E7172C&#45;&gt;EAID_1D07DB93_195D_4537_B7F7_4523E095F005</title>
<path fill="none" stroke="black" d="M325,-347.914C325,-339.897 325,-330.839 325,-322.222"/>
<polygon fill="black" stroke="black" points="328.5,-322.03 325,-312.03 321.5,-322.03 328.5,-322.03"/>
</g>
<!-- EAID_BD32CCE3_9A4B_4aac_B926_D0CC90123FBB -->
<g id="node15" class="node"><title>EAID_BD32CCE3_9A4B_4aac_B926_D0CC90123FBB</title>
<polygon fill="none" stroke="black" points="1023,-513.5 1023,-534.5 1177,-534.5 1177,-513.5 1023,-513.5"/>
<text text-anchor="start" x="1075.5" y="-521.3" font-family="Times New Roman,serif" font-weight="bold" font-size="14.00">Catalog</text>
<polygon fill="none" stroke="black" points="1023,-492.5 1023,-513.5 1177,-513.5 1177,-492.5 1023,-492.5"/>
<text text-anchor="start" x="1026" y="-500.3" font-family="Times New Roman,serif" font-weight="bold" font-size="14.00">ItemList queryCatalog()</text>
<polygon fill="none" stroke="black" points="1022,-491.5 1022,-535.5 1178,-535.5 1178,-491.5 1022,-491.5"/>
</g>
<!-- EAID_6F0ED3B7_B3EB_4f6d_94C9_17E9B1FE25DA -->
<g id="node16" class="node"><title>EAID_6F0ED3B7_B3EB_4f6d_94C9_17E9B1FE25DA</title>
<polygon fill="none" stroke="black" points="790,-513.5 790,-534.5 987,-534.5 987,-513.5 790,-513.5"/>
<text text-anchor="start" x="846" y="-521.3" font-family="Times New Roman,serif" font-weight="bold" font-size="14.00">ItemManager</text>
<polygon fill="none" stroke="black" points="790,-492.5 790,-513.5 987,-513.5 987,-492.5 790,-492.5"/>
<text text-anchor="start" x="793" y="-500.3" font-family="Times New Roman,serif" font-weight="bold" font-size="14.00">void searchItemsByKeywords()</text>
<polygon fill="none" stroke="black" points="788.5,-491.5 788.5,-535.5 987.5,-535.5 987.5,-491.5 788.5,-491.5"/>
</g>
<!-- EAID_CC8035CD_7CA2_4fcc_806D_98507CF458CD -->
<g id="node17" class="node"><title>EAID_CC8035CD_7CA2_4fcc_806D_98507CF458CD</title>
<polygon fill="none" stroke="black" points="615,-544.5 615,-565.5 753,-565.5 753,-544.5 615,-544.5"/>
<text text-anchor="start" x="633" y="-552.3" font-family="Times New Roman,serif" font-weight="bold" font-size="14.00">ItemSearchPage</text>
<polygon fill="none" stroke="black" points="615,-523.5 615,-544.5 753,-544.5 753,-523.5 615,-523.5"/>
<text text-anchor="start" x="651.5" y="-531.3" font-family="Times New Roman,serif" font-weight="bold" font-size="14.00">int pageID</text>
<polygon fill="none" stroke="black" points="615,-502.5 615,-523.5 753,-523.5 753,-502.5 615,-502.5"/>
<text text-anchor="start" x="618" y="-510.3" font-family="Times New Roman,serif" font-weight="bold" font-size="14.00">InputField searchBox</text>
<polygon fill="none" stroke="black" points="615,-481.5 615,-502.5 753,-502.5 753,-481.5 615,-481.5"/>
<text text-anchor="start" x="620.5" y="-489.3" font-family="Times New Roman,serif" font-weight="bold" font-size="14.00">Button searchButton</text>
<polygon fill="none" stroke="black" points="615,-460.5 615,-481.5 753,-481.5 753,-460.5 615,-460.5"/>
<text text-anchor="start" x="635.5" y="-468.3" font-family="Times New Roman,serif" font-weight="bold" font-size="14.00">void onSearch()</text>
<polygon fill="none" stroke="black" points="614,-460 614,-567 754,-567 754,-460 614,-460"/>
</g>
<!-- EAID_95C25856_C5F6_475d_B9C2_27FA161F4E34 -->
<g id="node18" class="node"><title>EAID_95C25856_C5F6_475d_B9C2_27FA161F4E34</title>
<polygon fill="none" stroke="black" points="380,-565.5 380,-586.5 579,-586.5 579,-565.5 380,-565.5"/>
<text text-anchor="start" x="420" y="-573.3" font-family="Times New Roman,serif" font-weight="bold" font-size="14.00">SearchResultsPage</text>
<polygon fill="none" stroke="black" points="380,-544.5 380,-565.5 579,-565.5 579,-544.5 380,-544.5"/>
<text text-anchor="start" x="436" y="-552.3" font-family="Times New Roman,serif" font-weight="bold" font-size="14.00">String pageID</text>
<polygon fill="none" stroke="black" points="380,-523.5 380,-544.5 579,-544.5 579,-523.5 380,-523.5"/>
<text text-anchor="start" x="447" y="-531.3" font-family="Times New Roman,serif" font-weight="bold" font-size="14.00">String title</text>
<polygon fill="none" stroke="black" points="380,-502.5 380,-523.5 579,-523.5 579,-502.5 380,-502.5"/>
<text text-anchor="start" x="399" y="-510.3" font-family="Times New Roman,serif" font-weight="bold" font-size="14.00">ListView searchResultList</text>
<polygon fill="none" stroke="black" points="380,-481.5 380,-502.5 579,-502.5 579,-481.5 380,-481.5"/>
<text text-anchor="start" x="383" y="-489.3" font-family="Times New Roman,serif" font-weight="bold" font-size="14.00">void displaySearchInvalidMsg()</text>
<polygon fill="none" stroke="black" points="380,-460.5 380,-481.5 579,-481.5 579,-460.5 380,-460.5"/>
<text text-anchor="start" x="413" y="-468.3" font-family="Times New Roman,serif" font-weight="bold" font-size="14.00">void displayItemList()</text>
<polygon fill="none" stroke="black" points="380,-439.5 380,-460.5 579,-460.5 579,-439.5 380,-439.5"/>
<text text-anchor="start" x="387.5" y="-447.3" font-family="Times New Roman,serif" font-weight="bold" font-size="14.00">void displayEmptyListNotice()</text>
<polygon fill="none" stroke="black" points="378.5,-439 378.5,-588 579.5,-588 579.5,-439 378.5,-439"/>
</g>
</g>
</svg>
