<?xml version="1.0" encoding="UTF-8" standalone="no"?>
<!DOCTYPE svg PUBLIC "-//W3C//DTD SVG 1.1//EN"
 "http://www.w3.org/Graphics/SVG/1.1/DTD/svg11.dtd">
<!-- Generated by graphviz version 2.38.0 (20140413.2041)
 -->
<!-- Title: g Pages: 1 -->
<svg width="823pt" height="266pt"
 viewBox="0.00 0.00 823.00 265.50" xmlns="http://www.w3.org/2000/svg" xmlns:xlink="http://www.w3.org/1999/xlink">
<g id="graph0" class="graph" transform="scale(1 1) rotate(0) translate(4 261.5)">
<title>g</title>
<polygon fill="white" stroke="none" points="-4,4 -4,-261.5 819,-261.5 819,4 -4,4"/>
<!-- EAID_EEFB8229_1407_41f0_B0FB_2916EDE43715 -->
<g id="node1" class="node"><title>EAID_EEFB8229_1407_41f0_B0FB_2916EDE43715</title>
<image xlink:href="img/actor1.png" width="61px" height="90px" preserveAspectRatio="xMinYMin meet" x="10.5" y="-199"/>
<text text-anchor="start" x="19" y="-85.8" font-family="Times New Roman,serif" font-size="24.00">User</text>
</g>
<!-- EAID_259F7008_3579_4273_B780_6C1C813AE7B4 -->
<g id="node2" class="node"><title>EAID_259F7008_3579_4273_B780_6C1C813AE7B4</title>
<image xlink:href="img/boundary3.png" width="115px" height="67px" preserveAspectRatio="xMinYMin meet" x="169.5" y="-251"/>
<text text-anchor="start" x="148.5" y="-160.8" font-family="Times New Roman,serif" font-size="24.00">In Hawaii Mode</text>
</g>
<!-- EAID_EEFB8229_1407_41f0_B0FB_2916EDE43715&#45;&gt;EAID_259F7008_3579_4273_B780_6C1C813AE7B4 -->
<g id="edge1" class="edge"><title>EAID_EEFB8229_1407_41f0_B0FB_2916EDE43715&#45;&gt;EAID_259F7008_3579_4273_B780_6C1C813AE7B4</title>
<path fill="none" stroke="black" d="M81.4253,-152.887C95.2969,-157.712 111.524,-163.356 127.987,-169.082"/>
<polygon fill="black" stroke="black" points="127.096,-172.478 137.691,-172.458 129.396,-165.867 127.096,-172.478"/>
</g>
<!-- EAID_D4A41A95_3E84_4e75_8B1B_E752C63CF74B -->
<g id="node3" class="node"><title>EAID_D4A41A95_3E84_4e75_8B1B_E752C63CF74B</title>
<image xlink:href="img/boundary3.png" width="115px" height="67px" preserveAspectRatio="xMinYMin meet" x="169.5" y="-124"/>
<text text-anchor="start" x="127.5" y="-33.8" font-family="Times New Roman,serif" font-size="24.00">Not In Hawaii Mode</text>
</g>
<!-- EAID_EEFB8229_1407_41f0_B0FB_2916EDE43715&#45;&gt;EAID_D4A41A95_3E84_4e75_8B1B_E752C63CF74B -->
<g id="edge2" class="edge"><title>EAID_EEFB8229_1407_41f0_B0FB_2916EDE43715&#45;&gt;EAID_D4A41A95_3E84_4e75_8B1B_E752C63CF74B</title>
<path fill="none" stroke="black" d="M81.4253,-125.33C89.3483,-122.617 98.0396,-119.641 107.104,-116.538"/>
<polygon fill="black" stroke="black" points="108.342,-119.813 116.67,-113.263 106.075,-113.191 108.342,-119.813"/>
</g>
<!-- EAID_A2A7998E_EAD1_4139_8546_376D9C89DE8D -->
<g id="node4" class="node"><title>EAID_A2A7998E_EAD1_4139_8546_376D9C89DE8D</title>
<image xlink:href="img/control1.png" width="106px" height="75px" preserveAspectRatio="xMinYMin meet" x="450" y="-191"/>
<text text-anchor="start" x="382" y="-92.8" font-family="Times New Roman,serif" font-size="24.00">Check if in Hawaii or not</text>
</g>
<!-- EAID_259F7008_3579_4273_B780_6C1C813AE7B4&#45;&gt;EAID_A2A7998E_EAD1_4139_8546_376D9C89DE8D -->
<g id="edge5" class="edge"><title>EAID_259F7008_3579_4273_B780_6C1C813AE7B4&#45;&gt;EAID_A2A7998E_EAD1_4139_8546_376D9C89DE8D</title>
<path fill="none" stroke="black" d="M315.108,-182.574C330.116,-179.075 346.038,-175.363 362.011,-171.639"/>
<polygon fill="black" stroke="black" points="363.01,-175 371.954,-169.32 361.421,-168.182 363.01,-175"/>
</g>
<!-- EAID_D4A41A95_3E84_4e75_8B1B_E752C63CF74B&#45;&gt;EAID_A2A7998E_EAD1_4139_8546_376D9C89DE8D -->
<g id="edge4" class="edge"><title>EAID_D4A41A95_3E84_4e75_8B1B_E752C63CF74B&#45;&gt;EAID_A2A7998E_EAD1_4139_8546_376D9C89DE8D</title>
<path fill="none" stroke="black" d="M336.384,-100.99C344.867,-102.937 353.501,-104.918 362.149,-106.903"/>
<polygon fill="black" stroke="black" points="361.382,-110.318 371.911,-109.144 362.947,-103.495 361.382,-110.318"/>
</g>
<!-- EAID_B637D3E5_7F88_46b8_AC5A_29D80426229A -->
<g id="node5" class="node"><title>EAID_B637D3E5_7F88_46b8_AC5A_29D80426229A</title>
<image xlink:href="img/control1.png" width="106px" height="75px" preserveAspectRatio="xMinYMin meet" x="690" y="-137"/>
<text text-anchor="start" x="680.5" y="-38.8" font-family="Times New Roman,serif" font-size="24.00">Get Location</text>
</g>
<!-- EAID_A2A7998E_EAD1_4139_8546_376D9C89DE8D&#45;&gt;EAID_B637D3E5_7F88_46b8_AC5A_29D80426229A -->
<g id="edge3" class="edge"><title>EAID_A2A7998E_EAD1_4139_8546_376D9C89DE8D&#45;&gt;EAID_B637D3E5_7F88_46b8_AC5A_29D80426229A</title>
<path fill="none" stroke="black" d="M634.215,-109.393C642.894,-107.42 651.492,-105.465 659.819,-103.572"/>
<polygon fill="black" stroke="black" points="660.854,-106.926 669.829,-101.296 659.302,-100.1 660.854,-106.926"/>
</g>
<!-- EAID_E6238CF3_1EE0_434e_88D3_864007FD952F -->
<g id="node6" class="node"><title>EAID_E6238CF3_1EE0_434e_88D3_864007FD952F</title>
<image xlink:href="img/activity_icon.png" width="30px" height="20px" preserveAspectRatio="xMinYMin meet" x="488.5" y="-56"/>
<text text-anchor="start" x="458" y="-13.8" font-family="Times New Roman,serif" font-weight="bold" font-size="24.00">Location</text>
</g>
<!-- EAID_E6238CF3_1EE0_434e_88D3_864007FD952F&#45;&gt;EAID_B637D3E5_7F88_46b8_AC5A_29D80426229A -->
<g id="edge6" class="edge"><title>EAID_E6238CF3_1EE0_434e_88D3_864007FD952F&#45;&gt;EAID_B637D3E5_7F88_46b8_AC5A_29D80426229A</title>
<path fill="none" stroke="black" d="M558.786,-43.4565C588.834,-50.2886 626.671,-58.8916 660.109,-66.4942"/>
<polygon fill="black" stroke="black" points="659.343,-69.9094 669.87,-68.7137 660.895,-63.0836 659.343,-69.9094"/>
</g>
</g>
</svg>
