<?xml version="1.0" encoding="UTF-8" standalone="no"?>
<!DOCTYPE svg PUBLIC "-//W3C//DTD SVG 1.1//EN"
 "http://www.w3.org/Graphics/SVG/1.1/DTD/svg11.dtd">
<!-- Generated by graphviz version 2.38.0 (20140413.2041)
 -->
<!-- Title: g Pages: 1 -->
<svg width="2151pt" height="1024pt"
 viewBox="0.00 0.00 2151.00 1024.00" xmlns="http://www.w3.org/2000/svg" xmlns:xlink="http://www.w3.org/1999/xlink">
<g id="graph0" class="graph" transform="scale(1 1) rotate(0) translate(4 1020)">
<title>g</title>
<polygon fill="white" stroke="none" points="-4,4 -4,-1020 2147,-1020 2147,4 -4,4"/>
<g id="clust1" class="cluster"><title>cluster0</title>
<polygon fill="none" stroke="black" stroke-width="2" points="841,-380 841,-897 1313,-897 1313,-380 841,-380"/>
<text text-anchor="start" x="1055" y="-882.8" font-family="Times New Roman,serif" font-weight="bold" font-size="14.00">System</text>
</g>
<g id="clust3" class="cluster"><title>cluster1000</title>
<polygon fill="none" stroke="black" stroke-width="2" points="8,-8 8,-372 2135,-372 2135,-8 8,-8"/>
<text text-anchor="start" x="1026" y="-357.8" font-family="Times New Roman,serif" font-weight="bold" font-size="14.00">Domain Model</text>
</g>
<g id="clust2" class="cluster"><title>cluster1</title>
<polygon fill="none" stroke="black" stroke-width="2" points="989,-905 989,-1008 1335,-1008 1335,-905 989,-905"/>
<text text-anchor="start" x="1147.5" y="-993.8" font-family="Times New Roman,serif" font-weight="bold" font-size="14.00">User</text>
</g>
<!-- EAID_F3EF4C0C_E37E_4a29_9D26_584C4F438A20___EAID_1F997653_1CB7_495c_BF39_FFCACD0B530E -->
<g id="node1" class="node"><title>EAID_F3EF4C0C_E37E_4a29_9D26_584C4F438A20___EAID_1F997653_1CB7_495c_BF39_FFCACD0B530E</title>
<image xlink:href="img/activity_icon.png" width="30px" height="20px" preserveAspectRatio="xMinYMin meet" x="1231" y="-853"/>
<text text-anchor="start" x="1197" y="-818.8" font-family="Times New Roman,serif" font-weight="bold" font-size="14.00">User:Homepage</text>
</g>
<!-- EAID_CD1037A4_A732_409d_8526_F8718FE718AC -->
<g id="node16" class="node"><title>EAID_CD1037A4_A732_409d_8526_F8718FE718AC</title>
<polygon fill="none" stroke="black" points="294,-241.5 294,-262.5 475,-262.5 475,-241.5 294,-241.5"/>
<text text-anchor="start" x="351.5" y="-249.3" font-family="Times New Roman,serif" font-weight="bold" font-size="14.00">Homepage</text>
<polygon fill="none" stroke="black" points="294,-220.5 294,-241.5 475,-241.5 475,-220.5 294,-220.5"/>
<text text-anchor="start" x="347" y="-228.3" font-family="Times New Roman,serif" font-weight="bold" font-size="14.00">Homepage()</text>
<polygon fill="none" stroke="black" points="294,-199.5 294,-220.5 475,-220.5 475,-199.5 294,-199.5"/>
<text text-anchor="start" x="335.5" y="-207.3" font-family="Times New Roman,serif" font-weight="bold" font-size="14.00">Checkoutpage()</text>
<polygon fill="none" stroke="black" points="294,-178.5 294,-199.5 475,-199.5 475,-178.5 294,-178.5"/>
<text text-anchor="start" x="297" y="-186.3" font-family="Times New Roman,serif" font-weight="bold" font-size="14.00">CustomizeDataserivcepage()</text>
<polygon fill="none" stroke="black" points="294,-157.5 294,-178.5 475,-178.5 475,-157.5 294,-157.5"/>
<text text-anchor="start" x="347.5" y="-165.3" font-family="Times New Roman,serif" font-weight="bold" font-size="14.00">Loginpage()</text>
<polygon fill="none" stroke="black" points="294,-136.5 294,-157.5 475,-157.5 475,-136.5 294,-136.5"/>
<text text-anchor="start" x="326.5" y="-144.3" font-family="Times New Roman,serif" font-weight="bold" font-size="14.00">Managedatapage()</text>
<polygon fill="none" stroke="black" points="294,-115.5 294,-136.5 475,-136.5 475,-115.5 294,-115.5"/>
<text text-anchor="start" x="326" y="-123.3" font-family="Times New Roman,serif" font-weight="bold" font-size="14.00">ReceiveDatapage()</text>
<polygon fill="none" stroke="black" points="294,-94.5 294,-115.5 475,-115.5 475,-94.5 294,-94.5"/>
<text text-anchor="start" x="321" y="-102.3" font-family="Times New Roman,serif" font-weight="bold" font-size="14.00">Updatecontentpage()</text>
<polygon fill="none" stroke="black" points="292.5,-93.5 292.5,-263.5 475.5,-263.5 475.5,-93.5 292.5,-93.5"/>
</g>
<!-- EAID_F3EF4C0C_E37E_4a29_9D26_584C4F438A20___EAID_1F997653_1CB7_495c_BF39_FFCACD0B530E&#45;&gt;EAID_CD1037A4_A732_409d_8526_F8718FE718AC -->
<g id="edge9" class="edge"><title>EAID_F3EF4C0C_E37E_4a29_9D26_584C4F438A20___EAID_1F997653_1CB7_495c_BF39_FFCACD0B530E&#45;&gt;EAID_CD1037A4_A732_409d_8526_F8718FE718AC</title>
<path fill="none" stroke="black" stroke-dasharray="5,2" d="M1305.08,-810.855C1375.85,-780.036 1485,-716.954 1485,-621 1485,-621 1485,-621 1485,-519 1485,-428.11 1419.46,-413.58 1335,-380 1313.26,-371.358 513.151,-383.876 493,-372 457.236,-350.923 432.241,-313.327 415.297,-276.918"/>
<polygon fill="black" stroke="black" points="418.447,-275.39 411.161,-267.698 412.06,-278.255 418.447,-275.39"/>
</g>
<!-- EAID_F3EF4C0C_E37E_4a29_9D26_584C4F438A20___EAID_9DEFCAF1_C353_4fb7_9A68_29E0FF255468 -->
<g id="node2" class="node"><title>EAID_F3EF4C0C_E37E_4a29_9D26_584C4F438A20___EAID_9DEFCAF1_C353_4fb7_9A68_29E0FF255468</title>
<image xlink:href="img/activity_icon.png" width="30px" height="20px" preserveAspectRatio="xMinYMin meet" x="1079" y="-860"/>
<text text-anchor="start" x="1029" y="-825.8" font-family="Times New Roman,serif" font-weight="bold" font-size="14.00">User:Create account </text>
<text text-anchor="start" x="1079" y="-811.8" font-family="Times New Roman,serif" font-weight="bold" font-size="14.00">page</text>
</g>
<!-- EAID_9DEFCAF1_C353_4fb7_9A68_29E0FF255468___EAID_564E4C4F_D2C6_41ef_AFAD_32D0421D4D9E -->
<g id="node7" class="node"><title>EAID_9DEFCAF1_C353_4fb7_9A68_29E0FF255468___EAID_564E4C4F_D2C6_41ef_AFAD_32D0421D4D9E</title>
<image xlink:href="img/activity_icon.png" width="30px" height="20px" preserveAspectRatio="xMinYMin meet" x="1117.5" y="-760"/>
<text text-anchor="start" x="1083.5" y="-725.8" font-family="Times New Roman,serif" font-weight="bold" font-size="14.00">Create account </text>
<text text-anchor="start" x="1067" y="-711.8" font-family="Times New Roman,serif" font-weight="bold" font-size="14.00">page:Create &#160;account</text>
<text text-anchor="start" x="1096.5" y="-697.8" font-family="Times New Roman,serif" font-weight="bold" font-size="14.00">information</text>
</g>
<!-- EAID_F3EF4C0C_E37E_4a29_9D26_584C4F438A20___EAID_9DEFCAF1_C353_4fb7_9A68_29E0FF255468&#45;&gt;EAID_9DEFCAF1_C353_4fb7_9A68_29E0FF255468___EAID_564E4C4F_D2C6_41ef_AFAD_32D0421D4D9E -->
<g id="edge2" class="edge"><title>EAID_F3EF4C0C_E37E_4a29_9D26_584C4F438A20___EAID_9DEFCAF1_C353_4fb7_9A68_29E0FF255468&#45;&gt;EAID_9DEFCAF1_C353_4fb7_9A68_29E0FF255468___EAID_564E4C4F_D2C6_41ef_AFAD_32D0421D4D9E</title>
<path fill="none" stroke="black" d="M1105.3,-801.781C1108.25,-793.612 1111.51,-784.616 1114.7,-775.799"/>
<polygon fill="black" stroke="black" points="1118.01,-776.943 1118.12,-766.348 1111.43,-774.561 1118.01,-776.943"/>
</g>
<!-- EAID_A1F4873A_C405_42a7_85F0_0AFD7AF6FD35 -->
<g id="node15" class="node"><title>EAID_A1F4873A_C405_42a7_85F0_0AFD7AF6FD35</title>
<polygon fill="none" stroke="black" points="1263,-251.5 1263,-272.5 1480,-272.5 1480,-251.5 1263,-251.5"/>
<text text-anchor="start" x="1330" y="-259.3" font-family="Times New Roman,serif" font-weight="bold" font-size="14.00">User Account</text>
<polygon fill="none" stroke="black" points="1263,-230.5 1263,-251.5 1480,-251.5 1480,-230.5 1263,-230.5"/>
<text text-anchor="start" x="1291.5" y="-238.3" font-family="Times New Roman,serif" font-weight="bold" font-size="14.00">EAJava_string UserEmail</text>
<polygon fill="none" stroke="black" points="1263,-209.5 1263,-230.5 1480,-230.5 1480,-209.5 1263,-209.5"/>
<text text-anchor="start" x="1291.5" y="-217.3" font-family="Times New Roman,serif" font-weight="bold" font-size="14.00">EAJava_string UserName</text>
<polygon fill="none" stroke="black" points="1263,-188.5 1263,-209.5 1480,-209.5 1480,-188.5 1263,-188.5"/>
<text text-anchor="start" x="1279.5" y="-196.3" font-family="Times New Roman,serif" font-weight="bold" font-size="14.00">EAJava_string UserPassword</text>
<polygon fill="none" stroke="black" points="1263,-167.5 1263,-188.5 1480,-188.5 1480,-167.5 1263,-167.5"/>
<text text-anchor="start" x="1266" y="-175.3" font-family="Times New Roman,serif" font-weight="bold" font-size="14.00">EAJava_date UserRegisteredDate</text>
<polygon fill="none" stroke="black" points="1263,-146.5 1263,-167.5 1480,-167.5 1480,-146.5 1263,-146.5"/>
<text text-anchor="start" x="1294" y="-154.3" font-family="Times New Roman,serif" font-weight="bold" font-size="14.00">EAJava_string UserType</text>
<polygon fill="none" stroke="black" points="1263,-125.5 1263,-146.5 1480,-146.5 1480,-125.5 1263,-125.5"/>
<text text-anchor="start" x="1327.5" y="-133.3" font-family="Times New Roman,serif" font-weight="bold" font-size="14.00">UserAccount()</text>
<polygon fill="none" stroke="black" points="1263,-104.5 1263,-125.5 1480,-125.5 1480,-104.5 1263,-104.5"/>
<text text-anchor="start" x="1307" y="-112.3" font-family="Times New Roman,serif" font-weight="bold" font-size="14.00">Createaccountpage()</text>
<polygon fill="none" stroke="black" points="1263,-83.5 1263,-104.5 1480,-104.5 1480,-83.5 1263,-83.5"/>
<text text-anchor="start" x="1336.5" y="-91.3" font-family="Times New Roman,serif" font-weight="bold" font-size="14.00">contentdb()</text>
<polygon fill="none" stroke="black" points="1261.5,-83 1261.5,-274 1480.5,-274 1480.5,-83 1261.5,-83"/>
</g>
<!-- EAID_F3EF4C0C_E37E_4a29_9D26_584C4F438A20___EAID_9DEFCAF1_C353_4fb7_9A68_29E0FF255468&#45;&gt;EAID_A1F4873A_C405_42a7_85F0_0AFD7AF6FD35 -->
<g id="edge10" class="edge"><title>EAID_F3EF4C0C_E37E_4a29_9D26_584C4F438A20___EAID_9DEFCAF1_C353_4fb7_9A68_29E0FF255468&#45;&gt;EAID_A1F4873A_C405_42a7_85F0_0AFD7AF6FD35</title>
<path fill="none" stroke="black" stroke-dasharray="5,2" d="M1158.46,-801.901C1177.9,-791.471 1198.88,-779.126 1217,-766 1293.13,-710.84 1371,-715.009 1371,-621 1371,-621 1371,-621 1371,-519 1371,-441.913 1371,-354.981 1371,-288.383"/>
<polygon fill="black" stroke="black" points="1374.5,-288.291 1371,-278.292 1367.5,-288.292 1374.5,-288.291"/>
</g>
<!-- EAID_6079936B_7DB4_41e9_B270_1E51991A4AD0___EAID_1F997653_1CB7_495c_BF39_FFCACD0B530E -->
<g id="node3" class="node"><title>EAID_6079936B_7DB4_41e9_B270_1E51991A4AD0___EAID_1F997653_1CB7_495c_BF39_FFCACD0B530E</title>
<image xlink:href="img/activity_icon.png" width="30px" height="20px" preserveAspectRatio="xMinYMin meet" x="1188" y="-439"/>
<text text-anchor="start" x="1111" y="-404.8" font-family="Times New Roman,serif" font-weight="bold" font-size="14.00">Confirmation page:Homepage</text>
</g>
<!-- EAID_6079936B_7DB4_41e9_B270_1E51991A4AD0___EAID_1F997653_1CB7_495c_BF39_FFCACD0B530E&#45;&gt;EAID_CD1037A4_A732_409d_8526_F8718FE718AC -->
<g id="edge11" class="edge"><title>EAID_6079936B_7DB4_41e9_B270_1E51991A4AD0___EAID_1F997653_1CB7_495c_BF39_FFCACD0B530E&#45;&gt;EAID_CD1037A4_A732_409d_8526_F8718FE718AC</title>
<path fill="none" stroke="black" stroke-dasharray="5,2" d="M1144.33,-394.409C1127.71,-388.54 1109.4,-383.087 1092,-380 1075.62,-377.093 507.32,-380.476 493,-372 457.277,-350.854 432.288,-313.247 415.338,-276.849"/>
<polygon fill="black" stroke="black" points="418.488,-275.322 411.2,-267.632 412.102,-278.189 418.488,-275.322"/>
</g>
<!-- EAID_6079936B_7DB4_41e9_B270_1E51991A4AD0___EAID_9DEFCAF1_C353_4fb7_9A68_29E0FF255468 -->
<g id="node4" class="node"><title>EAID_6079936B_7DB4_41e9_B270_1E51991A4AD0___EAID_9DEFCAF1_C353_4fb7_9A68_29E0FF255468</title>
<image xlink:href="img/activity_icon.png" width="30px" height="20px" preserveAspectRatio="xMinYMin meet" x="951.5" y="-446"/>
<text text-anchor="start" x="860" y="-411.8" font-family="Times New Roman,serif" font-weight="bold" font-size="14.00">Confirmation page:Create account</text>
<text text-anchor="start" x="949.5" y="-397.8" font-family="Times New Roman,serif" font-weight="bold" font-size="14.00"> page</text>
</g>
<!-- EAID_6079936B_7DB4_41e9_B270_1E51991A4AD0___EAID_9DEFCAF1_C353_4fb7_9A68_29E0FF255468&#45;&gt;EAID_9DEFCAF1_C353_4fb7_9A68_29E0FF255468___EAID_564E4C4F_D2C6_41ef_AFAD_32D0421D4D9E -->
<g id="edge4" class="edge"><title>EAID_6079936B_7DB4_41e9_B270_1E51991A4AD0___EAID_9DEFCAF1_C353_4fb7_9A68_29E0FF255468&#45;&gt;EAID_9DEFCAF1_C353_4fb7_9A68_29E0FF255468___EAID_564E4C4F_D2C6_41ef_AFAD_32D0421D4D9E</title>
<path fill="none" stroke="black" d="M967.348,-452.228C970.78,-499.454 982.94,-590.091 1026,-652 1033.61,-662.938 1043.39,-672.783 1053.92,-681.453"/>
<polygon fill="black" stroke="black" points="1052.07,-684.448 1062.1,-687.853 1056.38,-678.934 1052.07,-684.448"/>
</g>
<!-- EAID_6079936B_7DB4_41e9_B270_1E51991A4AD0___EAID_9DEFCAF1_C353_4fb7_9A68_29E0FF255468&#45;&gt;EAID_A1F4873A_C405_42a7_85F0_0AFD7AF6FD35 -->
<g id="edge12" class="edge"><title>EAID_6079936B_7DB4_41e9_B270_1E51991A4AD0___EAID_9DEFCAF1_C353_4fb7_9A68_29E0FF255468&#45;&gt;EAID_A1F4873A_C405_42a7_85F0_0AFD7AF6FD35</title>
<path fill="none" stroke="black" stroke-dasharray="5,2" d="M1056.87,-387.965C1068.59,-384.827 1080.5,-382.047 1092,-380 1108.76,-377.016 1230.24,-380.484 1245,-372 1278.85,-352.538 1305.23,-319.867 1324.9,-286.913"/>
<polygon fill="black" stroke="black" points="1328.03,-288.49 1330.01,-278.082 1321.97,-284.983 1328.03,-288.49"/>
</g>
<!-- EAID_3F40C289_0AFF_4ba6_A544_301F2A3C32CF___EAID_6079936B_7DB4_41e9_B270_1E51991A4AD0 -->
<g id="node5" class="node"><title>EAID_3F40C289_0AFF_4ba6_A544_301F2A3C32CF___EAID_6079936B_7DB4_41e9_B270_1E51991A4AD0</title>
<image xlink:href="img/activity_icon.png" width="30px" height="20px" preserveAspectRatio="xMinYMin meet" x="1171.5" y="-546"/>
<text text-anchor="start" x="1099" y="-511.8" font-family="Times New Roman,serif" font-weight="bold" font-size="14.00">validate account information</text>
<text text-anchor="start" x="1127" y="-497.8" font-family="Times New Roman,serif" font-weight="bold" font-size="14.00">:Confirmation page</text>
</g>
<!-- EAID_3F40C289_0AFF_4ba6_A544_301F2A3C32CF___EAID_6079936B_7DB4_41e9_B270_1E51991A4AD0&#45;&gt;EAID_6079936B_7DB4_41e9_B270_1E51991A4AD0___EAID_1F997653_1CB7_495c_BF39_FFCACD0B530E -->
<g id="edge5" class="edge"><title>EAID_3F40C289_0AFF_4ba6_A544_301F2A3C32CF___EAID_6079936B_7DB4_41e9_B270_1E51991A4AD0&#45;&gt;EAID_6079936B_7DB4_41e9_B270_1E51991A4AD0___EAID_1F997653_1CB7_495c_BF39_FFCACD0B530E</title>
<path fill="none" stroke="black" d="M1191.38,-487.992C1193.16,-477.73 1195.15,-466.246 1196.98,-455.724"/>
<polygon fill="black" stroke="black" points="1200.47,-456.054 1198.73,-445.603 1193.57,-454.858 1200.47,-456.054"/>
</g>
<!-- EAID_3F40C289_0AFF_4ba6_A544_301F2A3C32CF___EAID_6079936B_7DB4_41e9_B270_1E51991A4AD0&#45;&gt;EAID_6079936B_7DB4_41e9_B270_1E51991A4AD0___EAID_9DEFCAF1_C353_4fb7_9A68_29E0FF255468 -->
<g id="edge6" class="edge"><title>EAID_3F40C289_0AFF_4ba6_A544_301F2A3C32CF___EAID_6079936B_7DB4_41e9_B270_1E51991A4AD0&#45;&gt;EAID_6079936B_7DB4_41e9_B270_1E51991A4AD0___EAID_9DEFCAF1_C353_4fb7_9A68_29E0FF255468</title>
<path fill="none" stroke="black" d="M1116.39,-487.992C1093.72,-477.893 1068.39,-466.61 1045.08,-456.226"/>
<polygon fill="black" stroke="black" points="1046.47,-453.014 1035.91,-452.142 1043.62,-459.409 1046.47,-453.014"/>
</g>
<!-- EAID_6F6CAE60_486A_4184_9817_225FE07C2163 -->
<g id="node12" class="node"><title>EAID_6F6CAE60_486A_4184_9817_225FE07C2163</title>
<polygon fill="none" stroke="black" points="25,-251.5 25,-272.5 257,-272.5 257,-251.5 25,-251.5"/>
<text text-anchor="start" x="71.5" y="-259.3" font-family="Times New Roman,serif" font-weight="bold" font-size="14.00">Product Configuration</text>
<polygon fill="none" stroke="black" points="25,-230.5 25,-251.5 257,-251.5 257,-230.5 25,-230.5"/>
<text text-anchor="start" x="83" y="-238.3" font-family="Times New Roman,serif" font-weight="bold" font-size="14.00">EAJava_date Date</text>
<polygon fill="none" stroke="black" points="25,-209.5 25,-230.5 257,-230.5 257,-209.5 25,-209.5"/>
<text text-anchor="start" x="78" y="-217.3" font-family="Times New Roman,serif" font-weight="bold" font-size="14.00">EAJava_int FormID</text>
<polygon fill="none" stroke="black" points="25,-188.5 25,-209.5 257,-209.5 257,-188.5 25,-188.5"/>
<text text-anchor="start" x="28" y="-196.3" font-family="Times New Roman,serif" font-weight="bold" font-size="14.00">EAJava_int ProductConfigurationID</text>
<polygon fill="none" stroke="black" points="25,-167.5 25,-188.5 257,-188.5 257,-167.5 25,-167.5"/>
<text text-anchor="start" x="43" y="-175.3" font-family="Times New Roman,serif" font-weight="bold" font-size="14.00">EAJava_string PurchasingType</text>
<polygon fill="none" stroke="black" points="25,-146.5 25,-167.5 257,-167.5 257,-146.5 25,-146.5"/>
<text text-anchor="start" x="69" y="-154.3" font-family="Times New Roman,serif" font-weight="bold" font-size="14.00">EAJava_float TotalFee</text>
<polygon fill="none" stroke="black" points="25,-125.5 25,-146.5 257,-146.5 257,-125.5 25,-125.5"/>
<text text-anchor="start" x="80.5" y="-133.3" font-family="Times New Roman,serif" font-weight="bold" font-size="14.00">EAJava_int UserID</text>
<polygon fill="none" stroke="black" points="25,-104.5 25,-125.5 257,-125.5 257,-104.5 25,-104.5"/>
<text text-anchor="start" x="69" y="-112.3" font-family="Times New Roman,serif" font-weight="bold" font-size="14.00">ProductConfiguration()</text>
<polygon fill="none" stroke="black" points="25,-83.5 25,-104.5 257,-104.5 257,-83.5 25,-83.5"/>
<text text-anchor="start" x="80.5" y="-91.3" font-family="Times New Roman,serif" font-weight="bold" font-size="14.00">Confirmationpage()</text>
<polygon fill="none" stroke="black" points="24,-83 24,-274 258,-274 258,-83 24,-83"/>
</g>
<!-- EAID_3F40C289_0AFF_4ba6_A544_301F2A3C32CF___EAID_6079936B_7DB4_41e9_B270_1E51991A4AD0&#45;&gt;EAID_6F6CAE60_486A_4184_9817_225FE07C2163 -->
<g id="edge13" class="edge"><title>EAID_3F40C289_0AFF_4ba6_A544_301F2A3C32CF___EAID_6079936B_7DB4_41e9_B270_1E51991A4AD0&#45;&gt;EAID_6F6CAE60_486A_4184_9817_225FE07C2163</title>
<path fill="none" stroke="black" stroke-dasharray="5,2" d="M1276.45,-487.878C1291.41,-478.667 1304.97,-466.913 1314,-452 1330.57,-424.624 1336.54,-402.714 1314,-380 1303.84,-369.757 287.765,-378.73 275,-372 239.455,-353.259 211.402,-320.363 190.347,-287.009"/>
<polygon fill="black" stroke="black" points="193.077,-284.766 184.87,-278.066 187.108,-288.422 193.077,-284.766"/>
</g>
<!-- EAID_564E4C4F_D2C6_41ef_AFAD_32D0421D4D9E___EAID_3F40C289_0AFF_4ba6_A544_301F2A3C32CF -->
<g id="node6" class="node"><title>EAID_564E4C4F_D2C6_41ef_AFAD_32D0421D4D9E___EAID_3F40C289_0AFF_4ba6_A544_301F2A3C32CF</title>
<image xlink:href="img/activity_icon.png" width="30px" height="20px" preserveAspectRatio="xMinYMin meet" x="1155" y="-646"/>
<text text-anchor="start" x="1121" y="-611.8" font-family="Times New Roman,serif" font-weight="bold" font-size="14.00">Create &#160;account</text>
<text text-anchor="start" x="1045" y="-597.8" font-family="Times New Roman,serif" font-weight="bold" font-size="14.00">information:validate account information</text>
</g>
<!-- EAID_564E4C4F_D2C6_41ef_AFAD_32D0421D4D9E___EAID_3F40C289_0AFF_4ba6_A544_301F2A3C32CF&#45;&gt;EAID_3F40C289_0AFF_4ba6_A544_301F2A3C32CF___EAID_6079936B_7DB4_41e9_B270_1E51991A4AD0 -->
<g id="edge7" class="edge"><title>EAID_564E4C4F_D2C6_41ef_AFAD_32D0421D4D9E___EAID_3F40C289_0AFF_4ba6_A544_301F2A3C32CF&#45;&gt;EAID_3F40C289_0AFF_4ba6_A544_301F2A3C32CF___EAID_6079936B_7DB4_41e9_B270_1E51991A4AD0</title>
<path fill="none" stroke="black" d="M1175.06,-587.992C1176.4,-579.77 1177.88,-570.763 1179.29,-562.095"/>
<polygon fill="black" stroke="black" points="1182.76,-562.576 1180.92,-552.142 1175.85,-561.448 1182.76,-562.576"/>
</g>
<!-- EAID_F13FE8AE_A9DC_4bea_97DF_463D13956F56 -->
<g id="node11" class="node"><title>EAID_F13FE8AE_A9DC_4bea_97DF_463D13956F56</title>
<polygon fill="none" stroke="black" points="1516,-262.5 1516,-283.5 1728,-283.5 1728,-262.5 1516,-262.5"/>
<text text-anchor="start" x="1519" y="-270.3" font-family="Times New Roman,serif" font-weight="bold" font-size="14.00">Data Service Configuration Form</text>
<polygon fill="none" stroke="black" points="1516,-241.5 1516,-262.5 1728,-262.5 1728,-241.5 1516,-241.5"/>
<text text-anchor="start" x="1521" y="-249.3" font-family="Times New Roman,serif" font-weight="bold" font-size="14.00">EAJava_string ConfigParameter</text>
<polygon fill="none" stroke="black" points="1516,-220.5 1516,-241.5 1728,-241.5 1728,-220.5 1516,-220.5"/>
<text text-anchor="start" x="1564" y="-228.3" font-family="Times New Roman,serif" font-weight="bold" font-size="14.00">EAJava_date Date</text>
<polygon fill="none" stroke="black" points="1516,-199.5 1516,-220.5 1728,-220.5 1728,-199.5 1516,-199.5"/>
<text text-anchor="start" x="1558.5" y="-207.3" font-family="Times New Roman,serif" font-weight="bold" font-size="14.00">EAJava_string Type</text>
<polygon fill="none" stroke="black" points="1516,-178.5 1516,-199.5 1728,-199.5 1728,-178.5 1516,-178.5"/>
<text text-anchor="start" x="1561.5" y="-186.3" font-family="Times New Roman,serif" font-weight="bold" font-size="14.00">EAJava_int UserID</text>
<polygon fill="none" stroke="black" points="1516,-157.5 1516,-178.5 1728,-178.5 1728,-157.5 1516,-157.5"/>
<text text-anchor="start" x="1520" y="-165.3" font-family="Times New Roman,serif" font-weight="bold" font-size="14.00">DataServiceConfigurationForm()</text>
<polygon fill="none" stroke="black" points="1516,-136.5 1516,-157.5 1728,-157.5 1728,-136.5 1516,-136.5"/>
<text text-anchor="start" x="1533.5" y="-144.3" font-family="Times New Roman,serif" font-weight="bold" font-size="14.00">validateaccountinformation()</text>
<polygon fill="none" stroke="black" points="1516,-115.5 1516,-136.5 1728,-136.5 1728,-115.5 1516,-115.5"/>
<text text-anchor="start" x="1544" y="-123.3" font-family="Times New Roman,serif" font-weight="bold" font-size="14.00">Receivenotificationpage()</text>
<polygon fill="none" stroke="black" points="1516,-94.5 1516,-115.5 1728,-115.5 1728,-94.5 1516,-94.5"/>
<text text-anchor="start" x="1572" y="-102.3" font-family="Times New Roman,serif" font-weight="bold" font-size="14.00">dataservicesdb()</text>
<polygon fill="none" stroke="black" points="1516,-73.5 1516,-94.5 1728,-94.5 1728,-73.5 1516,-73.5"/>
<text text-anchor="start" x="1536" y="-81.3" font-family="Times New Roman,serif" font-weight="bold" font-size="14.00">SubscribeDataserivcepage()</text>
<polygon fill="none" stroke="black" points="1515,-72.5 1515,-284.5 1729,-284.5 1729,-72.5 1515,-72.5"/>
</g>
<!-- EAID_564E4C4F_D2C6_41ef_AFAD_32D0421D4D9E___EAID_3F40C289_0AFF_4ba6_A544_301F2A3C32CF&#45;&gt;EAID_F13FE8AE_A9DC_4bea_97DF_463D13956F56 -->
<g id="edge14" class="edge"><title>EAID_564E4C4F_D2C6_41ef_AFAD_32D0421D4D9E___EAID_3F40C289_0AFF_4ba6_A544_301F2A3C32CF&#45;&gt;EAID_F13FE8AE_A9DC_4bea_97DF_463D13956F56</title>
<path fill="none" stroke="black" stroke-dasharray="5,2" d="M1238.12,-587.974C1256.86,-577.864 1276.54,-565.674 1293,-552 1368.82,-489.016 1346.74,-427.69 1433,-380 1458.47,-365.917 1473.35,-387.474 1498,-372 1527.04,-353.775 1550.58,-325.984 1569.04,-297.141"/>
<polygon fill="black" stroke="black" points="1572.06,-298.918 1574.36,-288.576 1566.11,-295.226 1572.06,-298.918"/>
</g>
<!-- EAID_9DEFCAF1_C353_4fb7_9A68_29E0FF255468___EAID_564E4C4F_D2C6_41ef_AFAD_32D0421D4D9E&#45;&gt;EAID_564E4C4F_D2C6_41ef_AFAD_32D0421D4D9E___EAID_3F40C289_0AFF_4ba6_A544_301F2A3C32CF -->
<g id="edge8" class="edge"><title>EAID_9DEFCAF1_C353_4fb7_9A68_29E0FF255468___EAID_564E4C4F_D2C6_41ef_AFAD_32D0421D4D9E&#45;&gt;EAID_564E4C4F_D2C6_41ef_AFAD_32D0421D4D9E___EAID_3F40C289_0AFF_4ba6_A544_301F2A3C32CF</title>
<path fill="none" stroke="black" d="M1145.83,-687.796C1148.91,-679.275 1152.19,-670.21 1155.31,-661.597"/>
<polygon fill="black" stroke="black" points="1158.63,-662.711 1158.74,-652.117 1152.04,-660.329 1158.63,-662.711"/>
</g>
<!-- EAID_9DEFCAF1_C353_4fb7_9A68_29E0FF255468___EAID_564E4C4F_D2C6_41ef_AFAD_32D0421D4D9E&#45;&gt;EAID_F13FE8AE_A9DC_4bea_97DF_463D13956F56 -->
<g id="edge15" class="edge"><title>EAID_9DEFCAF1_C353_4fb7_9A68_29E0FF255468___EAID_564E4C4F_D2C6_41ef_AFAD_32D0421D4D9E&#45;&gt;EAID_F13FE8AE_A9DC_4bea_97DF_463D13956F56</title>
<path fill="none" stroke="black" stroke-dasharray="5,2" d="M1207.88,-706.499C1242.85,-694.818 1283.3,-677.227 1314,-652 1431.07,-555.808 1519.15,-403.269 1570.51,-297.646"/>
<polygon fill="black" stroke="black" points="1573.71,-299.06 1574.9,-288.533 1567.41,-296.019 1573.71,-299.06"/>
</g>
<!-- EAID_F3EF4C0C_E37E_4a29_9D26_584C4F438A20___EAID_1F997653_1CB7_495c_BF39_FFCACD0B530E_STL -->
<g id="node8" class="node"><title>EAID_F3EF4C0C_E37E_4a29_9D26_584C4F438A20___EAID_1F997653_1CB7_495c_BF39_FFCACD0B530E_STL</title>
<image xlink:href="img/stimulus_icon.png" width="30px" height="20px" preserveAspectRatio="xMinYMin meet" x="1242" y="-964"/>
<text text-anchor="start" x="1197" y="-929.8" font-family="Times New Roman,serif" font-weight="bold" font-size="14.00">stl#User:Homepage</text>
</g>
<!-- EAID_F3EF4C0C_E37E_4a29_9D26_584C4F438A20___EAID_1F997653_1CB7_495c_BF39_FFCACD0B530E_STL&#45;&gt;EAID_F3EF4C0C_E37E_4a29_9D26_584C4F438A20___EAID_1F997653_1CB7_495c_BF39_FFCACD0B530E -->
<g id="edge1" class="edge"><title>EAID_F3EF4C0C_E37E_4a29_9D26_584C4F438A20___EAID_1F997653_1CB7_495c_BF39_FFCACD0B530E_STL&#45;&gt;EAID_F3EF4C0C_E37E_4a29_9D26_584C4F438A20___EAID_1F997653_1CB7_495c_BF39_FFCACD0B530E</title>
<path fill="none" stroke="black" d="M1254.5,-919.266C1253.03,-904.633 1251.13,-885.87 1249.51,-869.765"/>
<polygon fill="black" stroke="black" points="1252.97,-869.234 1248.49,-859.636 1246.01,-869.937 1252.97,-869.234"/>
</g>
<!-- EAID_F3EF4C0C_E37E_4a29_9D26_584C4F438A20___EAID_9DEFCAF1_C353_4fb7_9A68_29E0FF255468_STL -->
<g id="node9" class="node"><title>EAID_F3EF4C0C_E37E_4a29_9D26_584C4F438A20___EAID_9DEFCAF1_C353_4fb7_9A68_29E0FF255468_STL</title>
<image xlink:href="img/stimulus_icon.png" width="30px" height="20px" preserveAspectRatio="xMinYMin meet" x="1068" y="-971"/>
<text text-anchor="start" x="1007" y="-936.8" font-family="Times New Roman,serif" font-weight="bold" font-size="14.00">stl#User:Create account </text>
<text text-anchor="start" x="1068" y="-922.8" font-family="Times New Roman,serif" font-weight="bold" font-size="14.00">page</text>
</g>
<!-- EAID_F3EF4C0C_E37E_4a29_9D26_584C4F438A20___EAID_9DEFCAF1_C353_4fb7_9A68_29E0FF255468_STL&#45;&gt;EAID_F3EF4C0C_E37E_4a29_9D26_584C4F438A20___EAID_9DEFCAF1_C353_4fb7_9A68_29E0FF255468 -->
<g id="edge3" class="edge"><title>EAID_F3EF4C0C_E37E_4a29_9D26_584C4F438A20___EAID_9DEFCAF1_C353_4fb7_9A68_29E0FF255468_STL&#45;&gt;EAID_F3EF4C0C_E37E_4a29_9D26_584C4F438A20___EAID_9DEFCAF1_C353_4fb7_9A68_29E0FF255468</title>
<path fill="none" stroke="black" d="M1086.15,-912.765C1087.29,-901.477 1088.6,-888.549 1089.81,-876.518"/>
<polygon fill="black" stroke="black" points="1093.33,-876.541 1090.85,-866.24 1086.36,-875.838 1093.33,-876.541"/>
</g>
<!-- EAID_1FE114CC_7F6B_47c8_B31C_F0526CF1B3B3 -->
<g id="node10" class="node"><title>EAID_1FE114CC_7F6B_47c8_B31C_F0526CF1B3B3</title>
<polygon fill="none" stroke="black" points="1764,-209.5 1764,-230.5 2118,-230.5 2118,-209.5 1764,-209.5"/>
<text text-anchor="start" x="1767" y="-217.3" font-family="Times New Roman,serif" font-weight="bold" font-size="14.00">Web based product configurator and data service system</text>
<polygon fill="none" stroke="black" points="1764,-188.5 1764,-209.5 2118,-209.5 2118,-188.5 1764,-188.5"/>
<text text-anchor="start" x="1775.5" y="-196.3" font-family="Times New Roman,serif" font-weight="bold" font-size="14.00">Webbasedproductconfiguratoranddataservicesystem()</text>
<polygon fill="none" stroke="black" points="1764,-167.5 1764,-188.5 2118,-188.5 2118,-167.5 1764,-167.5"/>
<text text-anchor="start" x="1846.5" y="-175.3" font-family="Times New Roman,serif" font-weight="bold" font-size="14.00">storesthedataintothedatabase()</text>
<polygon fill="none" stroke="black" points="1764,-146.5 1764,-167.5 2118,-167.5 2118,-146.5 1764,-146.5"/>
<text text-anchor="start" x="1786" y="-154.3" font-family="Times New Roman,serif" font-weight="bold" font-size="14.00">selectsthewaytoreceivenotificationanemailoratext()</text>
<polygon fill="none" stroke="black" points="1764,-125.5 1764,-146.5 2118,-146.5 2118,-125.5 1764,-125.5"/>
<text text-anchor="start" x="1864" y="-133.3" font-family="Times New Roman,serif" font-weight="bold" font-size="14.00">Choosecontenttoupdate()</text>
<polygon fill="none" stroke="black" points="1763,-125 1763,-232 2119,-232 2119,-125 1763,-125"/>
</g>
<!-- EAID_EA3F3F51_274B_48c6_96D3_BF666BE5299E -->
<g id="node13" class="node"><title>EAID_EA3F3F51_274B_48c6_96D3_BF666BE5299E</title>
<polygon fill="none" stroke="black" points="984,-314.5 984,-335.5 1227,-335.5 1227,-314.5 984,-314.5"/>
<text text-anchor="start" x="1031" y="-322.3" font-family="Times New Roman,serif" font-weight="bold" font-size="14.00">Sensor Data Export File</text>
<polygon fill="none" stroke="black" points="984,-293.5 984,-314.5 1227,-314.5 1227,-293.5 984,-293.5"/>
<text text-anchor="start" x="1027.5" y="-301.3" font-family="Times New Roman,serif" font-weight="bold" font-size="14.00">EAJava_float SignalDate</text>
<polygon fill="none" stroke="black" points="984,-272.5 984,-293.5 1227,-293.5 1227,-272.5 984,-272.5"/>
<text text-anchor="start" x="1053" y="-280.3" font-family="Times New Roman,serif" font-weight="bold" font-size="14.00">EAJava_int Tick</text>
<polygon fill="none" stroke="black" points="984,-251.5 984,-272.5 1227,-272.5 1227,-251.5 984,-251.5"/>
<text text-anchor="start" x="1018" y="-259.3" font-family="Times New Roman,serif" font-weight="bold" font-size="14.00">EAJava_float TimeDuration</text>
<polygon fill="none" stroke="black" points="984,-230.5 984,-251.5 1227,-251.5 1227,-230.5 984,-230.5"/>
<text text-anchor="start" x="1045" y="-238.3" font-family="Times New Roman,serif" font-weight="bold" font-size="14.00">EAJava_int UserID</text>
<polygon fill="none" stroke="black" points="984,-209.5 984,-230.5 1227,-230.5 1227,-209.5 984,-209.5"/>
<text text-anchor="start" x="1032" y="-217.3" font-family="Times New Roman,serif" font-weight="bold" font-size="14.00">SensorDataExportFile()</text>
<polygon fill="none" stroke="black" points="984,-188.5 984,-209.5 1227,-209.5 1227,-188.5 984,-188.5"/>
<text text-anchor="start" x="1057.5" y="-196.3" font-family="Times New Roman,serif" font-weight="bold" font-size="14.00">Checkoutdata()</text>
<polygon fill="none" stroke="black" points="984,-167.5 984,-188.5 1227,-188.5 1227,-167.5 984,-167.5"/>
<text text-anchor="start" x="1055.5" y="-175.3" font-family="Times New Roman,serif" font-weight="bold" font-size="14.00">Customizedata()</text>
<polygon fill="none" stroke="black" points="984,-146.5 984,-167.5 1227,-167.5 1227,-146.5 984,-146.5"/>
<text text-anchor="start" x="987.5" y="-154.3" font-family="Times New Roman,serif" font-weight="bold" font-size="14.00">sourceofinformationexportedintoafile()</text>
<polygon fill="none" stroke="black" points="984,-125.5 984,-146.5 1227,-146.5 1227,-125.5 984,-125.5"/>
<text text-anchor="start" x="1008" y="-133.3" font-family="Times New Roman,serif" font-weight="bold" font-size="14.00">Validateusenameandpassword()</text>
<polygon fill="none" stroke="black" points="984,-104.5 984,-125.5 1227,-125.5 1227,-104.5 984,-104.5"/>
<text text-anchor="start" x="987" y="-112.3" font-family="Times New Roman,serif" font-weight="bold" font-size="14.00">choosesthetypeofmanagementfordata()</text>
<polygon fill="none" stroke="black" points="984,-83.5 984,-104.5 1227,-104.5 1227,-83.5 984,-83.5"/>
<text text-anchor="start" x="1056" y="-91.3" font-family="Times New Roman,serif" font-weight="bold" font-size="14.00">SendDatapage()</text>
<polygon fill="none" stroke="black" points="984,-62.5 984,-83.5 1227,-83.5 1227,-62.5 984,-62.5"/>
<text text-anchor="start" x="1071" y="-70.3" font-family="Times New Roman,serif" font-weight="bold" font-size="14.00">Inputdata()</text>
<polygon fill="none" stroke="black" points="984,-41.5 984,-62.5 1227,-62.5 1227,-41.5 984,-41.5"/>
<text text-anchor="start" x="1057" y="-49.3" font-family="Times New Roman,serif" font-weight="bold" font-size="14.00">Subscribedata()</text>
<polygon fill="none" stroke="black" points="984,-20.5 984,-41.5 1227,-41.5 1227,-20.5 984,-20.5"/>
<text text-anchor="start" x="1064.5" y="-28.3" font-family="Times New Roman,serif" font-weight="bold" font-size="14.00">Choosedata()</text>
<polygon fill="none" stroke="black" points="982.5,-20 982.5,-337 1227.5,-337 1227.5,-20 982.5,-20"/>
</g>
<!-- EAID_C6CA01B0_6B98_4097_8318_1B3A172EC54D -->
<g id="node14" class="node"><title>EAID_C6CA01B0_6B98_4097_8318_1B3A172EC54D</title>
<polygon fill="none" stroke="black" points="511,-251.5 511,-272.5 947,-272.5 947,-251.5 511,-251.5"/>
<text text-anchor="start" x="618" y="-259.3" font-family="Times New Roman,serif" font-weight="bold" font-size="14.00">Sensor Product Configuration Form</text>
<polygon fill="none" stroke="black" points="511,-230.5 511,-251.5 947,-251.5 947,-230.5 511,-230.5"/>
<text text-anchor="start" x="660.5" y="-238.3" font-family="Times New Roman,serif" font-weight="bold" font-size="14.00">EAJava_string Config</text>
<polygon fill="none" stroke="black" points="511,-209.5 511,-230.5 947,-230.5 947,-209.5 511,-209.5"/>
<text text-anchor="start" x="671" y="-217.3" font-family="Times New Roman,serif" font-weight="bold" font-size="14.00">EAJava_date Date</text>
<polygon fill="none" stroke="black" points="511,-188.5 511,-209.5 947,-209.5 947,-188.5 511,-188.5"/>
<text text-anchor="start" x="668.5" y="-196.3" font-family="Times New Roman,serif" font-weight="bold" font-size="14.00">EAJava_float Price</text>
<polygon fill="none" stroke="black" points="511,-167.5 511,-188.5 947,-188.5 947,-167.5 511,-167.5"/>
<text text-anchor="start" x="664" y="-175.3" font-family="Times New Roman,serif" font-weight="bold" font-size="14.00">EAJava_int Quantity</text>
<polygon fill="none" stroke="black" points="511,-146.5 511,-167.5 947,-167.5 947,-146.5 511,-146.5"/>
<text text-anchor="start" x="637.5" y="-154.3" font-family="Times New Roman,serif" font-weight="bold" font-size="14.00">EAJava_int SensorProductID</text>
<polygon fill="none" stroke="black" points="511,-125.5 511,-146.5 947,-146.5 947,-125.5 511,-125.5"/>
<text text-anchor="start" x="668.5" y="-133.3" font-family="Times New Roman,serif" font-weight="bold" font-size="14.00">EAJava_int UserID</text>
<polygon fill="none" stroke="black" points="511,-104.5 511,-125.5 947,-125.5 947,-104.5 511,-104.5"/>
<text text-anchor="start" x="619" y="-112.3" font-family="Times New Roman,serif" font-weight="bold" font-size="14.00">SensorProductConfigurationForm()</text>
<polygon fill="none" stroke="black" points="511,-83.5 511,-104.5 947,-104.5 947,-83.5 511,-83.5"/>
<text text-anchor="start" x="514" y="-91.3" font-family="Times New Roman,serif" font-weight="bold" font-size="14.00">validateauthenticationinformationandchecksthevalidationofthesensor()</text>
<polygon fill="none" stroke="black" points="510,-83 510,-274 948,-274 948,-83 510,-83"/>
</g>
</g>
</svg>
