<?xml version="1.0" encoding="UTF-8" standalone="no"?>
<!DOCTYPE svg PUBLIC "-//W3C//DTD SVG 1.1//EN"
 "http://www.w3.org/Graphics/SVG/1.1/DTD/svg11.dtd">
<!-- Generated by graphviz version 2.38.0 (20140413.2041)
 -->
<!-- Title: g Pages: 1 -->
<svg width="1782pt" height="387pt"
 viewBox="0.00 0.00 1782.00 387.00" xmlns="http://www.w3.org/2000/svg" xmlns:xlink="http://www.w3.org/1999/xlink">
<g id="graph0" class="graph" transform="scale(1 1) rotate(0) translate(4 383)">
<title>g</title>
<polygon fill="white" stroke="none" points="-4,4 -4,-383 1778,-383 1778,4 -4,4"/>
<!-- EAID_D2F3A374_BCD2_4d2c_A80D_8805CBA99BAA -->
<g id="node1" class="node"><title>EAID_D2F3A374_BCD2_4d2c_A80D_8805CBA99BAA</title>
<image xlink:href="img/actor1.png" width="61px" height="90px" preserveAspectRatio="xMinYMin meet" x="10.5" y="-215.5"/>
<text text-anchor="start" x="19" y="-102.3" font-family="Times New Roman,serif" font-size="24.00">User</text>
</g>
<!-- EAID_A3A0D7E8_49B2_42cb_BFDB_81B0945F58D8 -->
<g id="node2" class="node"><title>EAID_A3A0D7E8_49B2_42cb_BFDB_81B0945F58D8</title>
<image xlink:href="img/boundary3.png" width="115px" height="67px" preserveAspectRatio="xMinYMin meet" x="342" y="-372.5"/>
<text text-anchor="start" x="198" y="-282.3" font-family="Times New Roman,serif" font-size="24.00">looks through a list of qualified applicants </text>
</g>
<!-- EAID_D2F3A374_BCD2_4d2c_A80D_8805CBA99BAA&#45;&gt;EAID_A3A0D7E8_49B2_42cb_BFDB_81B0945F58D8 -->
<g id="edge1" class="edge"><title>EAID_D2F3A374_BCD2_4d2c_A80D_8805CBA99BAA&#45;&gt;EAID_A3A0D7E8_49B2_42cb_BFDB_81B0945F58D8</title>
<path fill="none" stroke="black" d="M77.8609,-221.524C88.721,-236.244 101.844,-250.447 117,-260.5 135.614,-272.847 156.282,-282.834 177.721,-290.908"/>
<polygon fill="black" stroke="black" points="176.691,-294.258 187.285,-294.369 179.072,-287.675 176.691,-294.258"/>
</g>
<!-- EAID_4D70ABF1_742B_45ff_B5E7_D282368E8F12 -->
<g id="node3" class="node"><title>EAID_4D70ABF1_742B_45ff_B5E7_D282368E8F12</title>
<image xlink:href="img/boundary3.png" width="115px" height="67px" preserveAspectRatio="xMinYMin meet" x="812.5" y="-185.5"/>
<text text-anchor="start" x="727.5" y="-95.3" font-family="Times New Roman,serif" font-size="24.00">marks the user as interviewing</text>
</g>
<!-- EAID_D2F3A374_BCD2_4d2c_A80D_8805CBA99BAA&#45;&gt;EAID_4D70ABF1_742B_45ff_B5E7_D282368E8F12 -->
<g id="edge2" class="edge"><title>EAID_D2F3A374_BCD2_4d2c_A80D_8805CBA99BAA&#45;&gt;EAID_4D70ABF1_742B_45ff_B5E7_D282368E8F12</title>
<path fill="none" stroke="black" d="M81.0025,-141.705C92.4679,-138.328 105.106,-135.198 117,-133.5 365.152,-98.0819 430.348,-130.827 681,-133.5 689.366,-133.589 697.941,-133.701 706.6,-133.829"/>
<polygon fill="black" stroke="black" points="706.742,-137.332 716.795,-133.988 706.851,-130.333 706.742,-137.332"/>
</g>
<!-- EAID_21E18A65_8227_4a1e_91A8_238B8034D4FF -->
<g id="node4" class="node"><title>EAID_21E18A65_8227_4a1e_91A8_238B8034D4FF</title>
<image xlink:href="img/boundary3.png" width="102px" height="67px" preserveAspectRatio="xMinYMin meet" x="1647.5" y="-102.5"/>
<text text-anchor="start" x="1647.5" y="-12.3" font-family="Times New Roman,serif" font-size="24.00">Homepage</text>
</g>
<!-- EAID_D2F3A374_BCD2_4d2c_A80D_8805CBA99BAA&#45;&gt;EAID_21E18A65_8227_4a1e_91A8_238B8034D4FF -->
<g id="edge3" class="edge"><title>EAID_D2F3A374_BCD2_4d2c_A80D_8805CBA99BAA&#45;&gt;EAID_21E18A65_8227_4a1e_91A8_238B8034D4FF</title>
<path fill="none" stroke="black" d="M81.1898,-129.149C92.3413,-122.954 104.773,-117.11 117,-113.5 373.318,-37.8161 449.988,-84.981 717,-73.5 1057.8,-58.8463 1465.72,-55.4918 1626.96,-54.7258"/>
<polygon fill="black" stroke="black" points="1627.24,-58.2247 1637.22,-54.679 1627.2,-51.2247 1627.24,-58.2247"/>
</g>
<!-- EAID_9557B686_D612_4bdd_8468_5B1CD017EEAF -->
<g id="node5" class="node"><title>EAID_9557B686_D612_4bdd_8468_5B1CD017EEAF</title>
<image xlink:href="img/boundary3.png" width="115px" height="67px" preserveAspectRatio="xMinYMin meet" x="341.5" y="-245.5"/>
<text text-anchor="start" x="127" y="-155.3" font-family="Times New Roman,serif" font-size="24.00">selects the appropriate applicant and views his/her profile</text>
</g>
<!-- EAID_D2F3A374_BCD2_4d2c_A80D_8805CBA99BAA&#45;&gt;EAID_9557B686_D612_4bdd_8468_5B1CD017EEAF -->
<g id="edge4" class="edge"><title>EAID_D2F3A374_BCD2_4d2c_A80D_8805CBA99BAA&#45;&gt;EAID_9557B686_D612_4bdd_8468_5B1CD017EEAF</title>
<path fill="none" stroke="black" d="M81.0139,-160.155C88.7504,-161.067 97.3995,-162.086 106.755,-163.188"/>
<polygon fill="black" stroke="black" points="106.411,-166.671 116.752,-164.366 107.23,-159.72 106.411,-166.671"/>
</g>
<!-- EAID_B1E82772_9C92_4dfb_A196_4F5D52898765 -->
<g id="node8" class="node"><title>EAID_B1E82772_9C92_4dfb_A196_4F5D52898765</title>
<image xlink:href="img/control1.png" width="106px" height="75px" preserveAspectRatio="xMinYMin meet" x="817" y="-320.5"/>
<text text-anchor="start" x="737.5" y="-222.3" font-family="Times New Roman,serif" font-size="24.00">returns the correct applicant</text>
</g>
<!-- EAID_A3A0D7E8_49B2_42cb_BFDB_81B0945F58D8&#45;&gt;EAID_B1E82772_9C92_4dfb_A196_4F5D52898765 -->
<g id="edge7" class="edge"><title>EAID_A3A0D7E8_49B2_42cb_BFDB_81B0945F58D8&#45;&gt;EAID_B1E82772_9C92_4dfb_A196_4F5D52898765</title>
<path fill="none" stroke="black" d="M610.609,-299.326C646.448,-295.042 683.033,-290.669 716.961,-286.613"/>
<polygon fill="black" stroke="black" points="717.414,-290.084 726.928,-285.422 716.583,-283.134 717.414,-290.084"/>
</g>
<!-- EAID_8FCE4CAF_E9BA_4947_9DB6_8C9BF18A43BA -->
<g id="node6" class="node"><title>EAID_8FCE4CAF_E9BA_4947_9DB6_8C9BF18A43BA</title>
<image xlink:href="img/control1.png" width="106px" height="75px" preserveAspectRatio="xMinYMin meet" x="1270" y="-201.5"/>
<text text-anchor="start" x="1068.5" y="-103.3" font-family="Times New Roman,serif" font-size="24.00">modifies the Applicant profile to reflect User&#39;s change</text>
</g>
<!-- EAID_4D70ABF1_742B_45ff_B5E7_D282368E8F12&#45;&gt;EAID_8FCE4CAF_E9BA_4947_9DB6_8C9BF18A43BA -->
<g id="edge8" class="edge"><title>EAID_4D70ABF1_742B_45ff_B5E7_D282368E8F12&#45;&gt;EAID_8FCE4CAF_E9BA_4947_9DB6_8C9BF18A43BA</title>
<path fill="none" stroke="black" d="M1022.25,-141.538C1030.61,-141.76 1039.13,-141.987 1047.75,-142.216"/>
<polygon fill="black" stroke="black" points="1047.81,-145.719 1057.9,-142.486 1048,-138.721 1047.81,-145.719"/>
</g>
<!-- EAID_9557B686_D612_4bdd_8468_5B1CD017EEAF&#45;&gt;EAID_B1E82772_9C92_4dfb_A196_4F5D52898765 -->
<g id="edge10" class="edge"><title>EAID_9557B686_D612_4bdd_8468_5B1CD017EEAF&#45;&gt;EAID_B1E82772_9C92_4dfb_A196_4F5D52898765</title>
<path fill="none" stroke="black" d="M681.317,-240.133C693.341,-241.955 705.193,-243.751 716.739,-245.501"/>
<polygon fill="black" stroke="black" points="716.391,-248.988 726.802,-247.026 717.44,-242.067 716.391,-248.988"/>
</g>
<!-- EAID_8FCE4CAF_E9BA_4947_9DB6_8C9BF18A43BA&#45;&gt;EAID_21E18A65_8227_4a1e_91A8_238B8034D4FF -->
<g id="edge5" class="edge"><title>EAID_8FCE4CAF_E9BA_4947_9DB6_8C9BF18A43BA&#45;&gt;EAID_21E18A65_8227_4a1e_91A8_238B8034D4FF</title>
<path fill="none" stroke="black" d="M1553.97,-90.9578C1580.56,-84.2029 1605.92,-77.7635 1627.71,-72.2279"/>
<polygon fill="black" stroke="black" points="1628.63,-75.6045 1637.46,-69.7502 1626.91,-68.8199 1628.63,-75.6045"/>
</g>
<!-- EAID_C87CACB0_E6E3_4564_B1CF_7B63956A7E63 -->
<g id="node7" class="node"><title>EAID_C87CACB0_E6E3_4564_B1CF_7B63956A7E63</title>
<image xlink:href="img/activity_icon.png" width="30px" height="20px" preserveAspectRatio="xMinYMin meet" x="1684" y="-183.5"/>
<text text-anchor="start" x="1633.5" y="-141.3" font-family="Times New Roman,serif" font-weight="bold" font-size="24.00">Interview db</text>
</g>
<!-- EAID_8FCE4CAF_E9BA_4947_9DB6_8C9BF18A43BA&#45;&gt;EAID_C87CACB0_E6E3_4564_B1CF_7B63956A7E63 -->
<g id="edge6" class="edge"><title>EAID_8FCE4CAF_E9BA_4947_9DB6_8C9BF18A43BA&#45;&gt;EAID_C87CACB0_E6E3_4564_B1CF_7B63956A7E63</title>
<path fill="none" stroke="black" d="M1587.06,-155.842C1595.91,-156.055 1604.49,-156.262 1612.69,-156.459"/>
<polygon fill="black" stroke="black" points="1612.79,-159.962 1622.87,-156.704 1612.96,-152.964 1612.79,-159.962"/>
</g>
<!-- EAID_B1E82772_9C92_4dfb_A196_4F5D52898765&#45;&gt;EAID_8FCE4CAF_E9BA_4947_9DB6_8C9BF18A43BA -->
<g id="edge9" class="edge"><title>EAID_B1E82772_9C92_4dfb_A196_4F5D52898765&#45;&gt;EAID_8FCE4CAF_E9BA_4947_9DB6_8C9BF18A43BA</title>
<path fill="none" stroke="black" d="M1012.27,-231.093C1037,-224.568 1063.29,-217.631 1089.7,-210.663"/>
<polygon fill="black" stroke="black" points="1090.65,-214.031 1099.43,-208.095 1088.87,-207.262 1090.65,-214.031"/>
</g>
</g>
</svg>
