<?xml version="1.0" encoding="UTF-8" standalone="no"?>
<!DOCTYPE svg PUBLIC "-//W3C//DTD SVG 1.1//EN"
 "http://www.w3.org/Graphics/SVG/1.1/DTD/svg11.dtd">
<!-- Generated by graphviz version 2.40.1 (20161225.0304)
 -->
<!-- Title: class_diagram Pages: 1 -->
<svg width="3281pt" height="73pt"
 viewBox="0.00 0.00 3281.36 73.00" xmlns="http://www.w3.org/2000/svg" xmlns:xlink="http://www.w3.org/1999/xlink">
<g id="graph0" class="graph" transform="scale(1 1) rotate(0) translate(4 69)">
<title>class_diagram</title>
<polygon fill="#ffffff" stroke="transparent" points="-4,4 -4,-69 3277.3594,-69 3277.3594,4 -4,4"/>
<!-- c094cc713_d080_4a6f_86ab_0e72dc39c5de -->
<g id="c094cc713_d080_4a6f_86ab_0e72dc39c5de" class="node">
<title>c094cc713_d080_4a6f_86ab_0e72dc39c5de</title>
<polygon fill="none" stroke="#000000" points="0,-12.5 0,-52.5 116.7188,-52.5 116.7188,-12.5 0,-12.5"/>
<text text-anchor="middle" x="58.3594" y="-42.1" font-family="Times,serif" font-size="8.00" fill="#000000">AndroidProcesses</text>
<polyline fill="none" stroke="#000000" points="0,-36.5 116.7188,-36.5 "/>
<text text-anchor="start" x="8" y="-26.1" font-family="Times,serif" font-size="8.00" fill="#000000">+ log()</text>
<text text-anchor="start" x="8" y="-18.1" font-family="Times,serif" font-size="8.00" fill="#000000">+ getRunningAppProcessInfo()</text>
</g>
<!-- c636c8377_01b5_4eb1_aadd_6b59ad6836a6 -->
<g id="c636c8377_01b5_4eb1_aadd_6b59ad6836a6" class="node">
<title>c636c8377_01b5_4eb1_aadd_6b59ad6836a6</title>
<polygon fill="none" stroke="#000000" points="134.6973,-14.5 134.6973,-50.5 208.0215,-50.5 208.0215,-14.5 134.6973,-14.5"/>
<text text-anchor="middle" x="171.3594" y="-30.1" font-family="Times,serif" font-size="8.00" fill="#000000">ActivityProcesses</text>
</g>
<!-- ccac4a19b_7660_4ce4_b16b_81a0afd8291d -->
<g id="ccac4a19b_7660_4ce4_b16b_81a0afd8291d" class="node">
<title>ccac4a19b_7660_4ce4_b16b_81a0afd8291d</title>
<polygon fill="none" stroke="#000000" points="225.8105,-14.5 225.8105,-50.5 292.9082,-50.5 292.9082,-14.5 225.8105,-14.5"/>
<text text-anchor="middle" x="259.3594" y="-30.1" font-family="Times,serif" font-size="8.00" fill="#000000">ContentHandler</text>
</g>
<!-- c38a48dd0_6bcd_4531_b347_435a23942216 -->
<g id="c38a48dd0_6bcd_4531_b347_435a23942216" class="node">
<title>c38a48dd0_6bcd_4531_b347_435a23942216</title>
<polygon fill="none" stroke="#000000" points="310.918,-14.5 310.918,-50.5 391.8008,-50.5 391.8008,-14.5 310.918,-14.5"/>
<text text-anchor="middle" x="351.3594" y="-39.6" font-family="Times,serif" font-size="8.00" fill="#000000">AndroidAppProcess</text>
<polyline fill="none" stroke="#000000" points="310.918,-33.5 391.8008,-33.5 "/>
<text text-anchor="start" x="318.918" y="-22.6" font-family="Times,serif" font-size="8.00" fill="#000000">&#45; uid:int</text>
<polyline fill="none" stroke="#000000" points="310.918,-16.5 391.8008,-16.5 "/>
</g>
<!-- c51058b39_a03a_4969_8a2e_2f5e5fd49fcf -->
<g id="c51058b39_a03a_4969_8a2e_2f5e5fd49fcf" class="node">
<title>c51058b39_a03a_4969_8a2e_2f5e5fd49fcf</title>
<polygon fill="none" stroke="#000000" points="410.2559,-14.5 410.2559,-50.5 468.4629,-50.5 468.4629,-14.5 410.2559,-14.5"/>
<text text-anchor="middle" x="439.3594" y="-30.1" font-family="Times,serif" font-size="8.00" fill="#000000">DTDHandler</text>
</g>
<!-- cf45ae279_96f8_413b_8da5_0b38e756b077 -->
<g id="cf45ae279_96f8_413b_8da5_0b38e756b077" class="node">
<title>cf45ae279_96f8_413b_8da5_0b38e756b077</title>
<polygon fill="none" stroke="#000000" points="486.3359,-14.5 486.3359,-50.5 642.3828,-50.5 642.3828,-14.5 486.3359,-14.5"/>
<text text-anchor="middle" x="564.3594" y="-39.6" font-family="Times,serif" font-size="8.00" fill="#000000">ControlGroup$1</text>
<polyline fill="none" stroke="#000000" points="486.3359,-33.5 642.3828,-33.5 "/>
<text text-anchor="start" x="494.3359" y="-22.6" font-family="Times,serif" font-size="8.00" fill="#000000">&#45; CREATOR:android.os.Parcelable$Creator</text>
<polyline fill="none" stroke="#000000" points="486.3359,-16.5 642.3828,-16.5 "/>
</g>
<!-- c4ff02676_b476_4d12_912f_8c9b50cc3e9e -->
<g id="c4ff02676_b476_4d12_912f_8c9b50cc3e9e" class="node">
<title>c4ff02676_b476_4d12_912f_8c9b50cc3e9e</title>
<polygon fill="none" stroke="#000000" points="660.332,-12.5 660.332,-52.5 718.3867,-52.5 718.3867,-12.5 660.332,-12.5"/>
<text text-anchor="middle" x="689.3594" y="-42.1" font-family="Times,serif" font-size="8.00" fill="#000000">Cgroup$1</text>
<polyline fill="none" stroke="#000000" points="660.332,-36.5 718.3867,-36.5 "/>
<text text-anchor="start" x="668.332" y="-26.1" font-family="Times,serif" font-size="8.00" fill="#000000">+ getGroup()</text>
<text text-anchor="start" x="668.332" y="-18.1" font-family="Times,serif" font-size="8.00" fill="#000000">+ get()</text>
</g>
<!-- cba48b305_4804_4edc_8dad_6338626ef2eb -->
<g id="cba48b305_4804_4edc_8dad_6338626ef2eb" class="node">
<title>cba48b305_4804_4edc_8dad_6338626ef2eb</title>
<polygon fill="none" stroke="#000000" points="736.3594,-14.5 736.3594,-50.5 790.3594,-50.5 790.3594,-14.5 736.3594,-14.5"/>
<text text-anchor="middle" x="763.082" y="-35.1" font-family="Times,serif" font-size="8.00" fill="#000000">Stat</text>
<polyline fill="none" stroke="#000000" points="736.3594,-24.5 789.8047,-24.5 "/>
</g>
<!-- c89d5ee7a_d074_496b_9403_1f9af323acdc -->
<g id="c89d5ee7a_d074_496b_9403_1f9af323acdc" class="node">
<title>c89d5ee7a_d074_496b_9403_1f9af323acdc</title>
<polygon fill="none" stroke="#000000" points="808.3594,-14.5 808.3594,-50.5 862.3594,-50.5 862.3594,-14.5 808.3594,-14.5"/>
<text text-anchor="middle" x="835.1387" y="-35.1" font-family="Times,serif" font-size="8.00" fill="#000000">Status$1</text>
<polyline fill="none" stroke="#000000" points="808.3594,-24.5 861.918,-24.5 "/>
</g>
<!-- c091f67c5_47be_4908_8194_ed2a830e05b3 -->
<g id="c091f67c5_47be_4908_8194_ed2a830e05b3" class="node">
<title>c091f67c5_47be_4908_8194_ed2a830e05b3</title>
<polygon fill="none" stroke="#000000" points="880.3594,-14.5 880.3594,-50.5 934.3594,-50.5 934.3594,-14.5 880.3594,-14.5"/>
<text text-anchor="middle" x="906.9141" y="-35.1" font-family="Times,serif" font-size="8.00" fill="#000000">ProcFile</text>
<polyline fill="none" stroke="#000000" points="880.3594,-24.5 933.4688,-24.5 "/>
</g>
<!-- c6f3d30e0_f2dc_4ac7_9c38_611b40705091 -->
<g id="c6f3d30e0_f2dc_4ac7_9c38_611b40705091" class="node">
<title>c6f3d30e0_f2dc_4ac7_9c38_611b40705091</title>
<polygon fill="none" stroke="#000000" points="951.9258,-.5 951.9258,-64.5 1042.793,-64.5 1042.793,-.5 951.9258,-.5"/>
<text text-anchor="middle" x="997.3594" y="-54.1" font-family="Times,serif" font-size="8.00" fill="#000000">AndroidProcess</text>
<polyline fill="none" stroke="#000000" points="951.9258,-48.5 1042.793,-48.5 "/>
<text text-anchor="start" x="959.9258" y="-38.1" font-family="Times,serif" font-size="8.00" fill="#000000">&#45; name:java.lang.String</text>
<polyline fill="none" stroke="#000000" points="951.9258,-32.5 1042.793,-32.5 "/>
<text text-anchor="start" x="959.9258" y="-22.1" font-family="Times,serif" font-size="8.00" fill="#000000">+ status()</text>
<text text-anchor="start" x="959.9258" y="-14.1" font-family="Times,serif" font-size="8.00" fill="#000000">+ cgroup()</text>
<text text-anchor="start" x="959.9258" y="-6.1" font-family="Times,serif" font-size="8.00" fill="#000000">+ stat()</text>
</g>
<!-- c19c830f2_cb81_4d84_bb4f_469b8d689cb1 -->
<g id="c19c830f2_cb81_4d84_bb4f_469b8d689cb1" class="node">
<title>c19c830f2_cb81_4d84_bb4f_469b8d689cb1</title>
<polygon fill="none" stroke="#000000" points="1061.2598,-14.5 1061.2598,-50.5 1175.459,-50.5 1175.459,-14.5 1061.2598,-14.5"/>
<text text-anchor="middle" x="1118.3594" y="-30.1" font-family="Times,serif" font-size="8.00" fill="#000000">SAXNotRecognizedException</text>
</g>
<!-- c41be8c60_e85d_4a05_ab6e_6ba4c15aeda0 -->
<g id="c41be8c60_e85d_4a05_ab6e_6ba4c15aeda0" class="node">
<title>c41be8c60_e85d_4a05_ab6e_6ba4c15aeda0</title>
<polygon fill="none" stroke="#000000" points="1193.0371,-14.5 1193.0371,-50.5 1251.6816,-50.5 1251.6816,-14.5 1193.0371,-14.5"/>
<text text-anchor="middle" x="1222.3594" y="-30.1" font-family="Times,serif" font-size="8.00" fill="#000000">ErrorHandler</text>
</g>
<!-- c5de7c5e0_d20c_4a75_873c_732a54d93337 -->
<g id="c5de7c5e0_d20c_4a75_873c_732a54d93337" class="node">
<title>c5de7c5e0_d20c_4a75_873c_732a54d93337</title>
<polygon fill="none" stroke="#000000" points="1269.3594,-14.5 1269.3594,-50.5 1323.3594,-50.5 1323.3594,-14.5 1269.3594,-14.5"/>
<text text-anchor="middle" x="1296.2969" y="-30.1" font-family="Times,serif" font-size="8.00" fill="#000000">Locator</text>
</g>
<!-- ce4664cc7_693a_4b54_acc5_5694ae9324eb -->
<g id="ce4664cc7_693a_4b54_acc5_5694ae9324eb" class="node">
<title>ce4664cc7_693a_4b54_acc5_5694ae9324eb</title>
<polygon fill="none" stroke="#000000" points="1341.0391,-14.5 1341.0391,-50.5 1411.6797,-50.5 1411.6797,-14.5 1341.0391,-14.5"/>
<text text-anchor="middle" x="1376.3594" y="-30.1" font-family="Times,serif" font-size="8.00" fill="#000000">ServiceReader$4</text>
</g>
<!-- c871aacb2_edfc_487e_a5e0_9161991c86a1 -->
<g id="c871aacb2_edfc_487e_a5e0_9161991c86a1" class="node">
<title>c871aacb2_edfc_487e_a5e0_9161991c86a1</title>
<polygon fill="none" stroke="#000000" points="1429.9238,-14.5 1429.9238,-50.5 1498.7949,-50.5 1498.7949,-14.5 1429.9238,-14.5"/>
<text text-anchor="middle" x="1464.3594" y="-30.1" font-family="Times,serif" font-size="8.00" fill="#000000">ProcessManager</text>
</g>
<!-- c6cc71131_3e2d_4cf4_b735_5b699c9faef6 -->
<g id="c6cc71131_3e2d_4cf4_b735_5b699c9faef6" class="node">
<title>c6cc71131_3e2d_4cf4_b735_5b699c9faef6</title>
<polygon fill="none" stroke="#000000" points="1516.3594,-14.5 1516.3594,-50.5 1570.3594,-50.5 1570.3594,-14.5 1516.3594,-14.5"/>
<text text-anchor="middle" x="1543.0273" y="-30.1" font-family="Times,serif" font-size="8.00" fill="#000000">C</text>
</g>
<!-- cd1e35b00_2f52_48a6_bc06_ef2c5ca61a86 -->
<g id="cd1e35b00_2f52_48a6_bc06_ef2c5ca61a86" class="node">
<title>cd1e35b00_2f52_48a6_bc06_ef2c5ca61a86</title>
<polygon fill="none" stroke="#000000" points="1588.3594,-14.5 1588.3594,-50.5 1642.3594,-50.5 1642.3594,-14.5 1588.3594,-14.5"/>
<text text-anchor="middle" x="1615.1934" y="-30.1" font-family="Times,serif" font-size="8.00" fill="#000000">Statm</text>
</g>
<!-- c0e173176_5d5f_4023_a85c_4e0a3e5f0978 -->
<g id="c0e173176_5d5f_4023_a85c_4e0a3e5f0978" class="node">
<title>c0e173176_5d5f_4023_a85c_4e0a3e5f0978</title>
<polygon fill="none" stroke="#000000" points="1660.6973,-14.5 1660.6973,-50.5 1770.0215,-50.5 1770.0215,-14.5 1660.6973,-14.5"/>
<text text-anchor="middle" x="1715.3594" y="-30.1" font-family="Times,serif" font-size="8.00" fill="#000000">SAXNotSupportedException</text>
</g>
<!-- cb40acfc8_bc71_490d_bb84_35b98da98f41 -->
<g id="cb40acfc8_bc71_490d_bb84_35b98da98f41" class="node">
<title>cb40acfc8_bc71_490d_bb84_35b98da98f41</title>
<polygon fill="none" stroke="#000000" points="1788.1445,-14.5 1788.1445,-50.5 1844.5742,-50.5 1844.5742,-14.5 1788.1445,-14.5"/>
<text text-anchor="middle" x="1816.3594" y="-30.1" font-family="Times,serif" font-size="8.00" fill="#000000">XMLReader</text>
</g>
<!-- cfd3c7f16_132a_43ba_b31f_65fabe0b069f -->
<g id="cfd3c7f16_132a_43ba_b31f_65fabe0b069f" class="node">
<title>cfd3c7f16_132a_43ba_b31f_65fabe0b069f</title>
<polygon fill="none" stroke="#000000" points="1863.0508,-14.5 1863.0508,-50.5 1921.668,-50.5 1921.668,-14.5 1863.0508,-14.5"/>
<text text-anchor="middle" x="1892.3594" y="-30.1" font-family="Times,serif" font-size="8.00" fill="#000000">ViewGraphic</text>
</g>
<!-- ce77cf1c4_6da6_4f2e_8a53_43e6d526c0a9 -->
<g id="ce77cf1c4_6da6_4f2e_8a53_43e6d526c0a9" class="node">
<title>ce77cf1c4_6da6_4f2e_8a53_43e6d526c0a9</title>
<polygon fill="none" stroke="#000000" points="1939.8047,-14.5 1939.8047,-50.5 2002.9141,-50.5 2002.9141,-14.5 1939.8047,-14.5"/>
<text text-anchor="middle" x="1971.3594" y="-30.1" font-family="Times,serif" font-size="8.00" fill="#000000">XmlPullParser</text>
</g>
<!-- cf7d8e570_b71c_4ce0_aff3_27851abe5201 -->
<g id="cf7d8e570_b71c_4ce0_aff3_27851abe5201" class="node">
<title>cf7d8e570_b71c_4ce0_aff3_27851abe5201</title>
<polygon fill="none" stroke="#000000" points="2020.4766,-14.5 2020.4766,-50.5 2102.2422,-50.5 2102.2422,-14.5 2020.4766,-14.5"/>
<text text-anchor="middle" x="2061.3594" y="-30.1" font-family="Times,serif" font-size="8.00" fill="#000000">SAXParseException</text>
</g>
<!-- ca559edde_f643_4374_aab1_8e0fa718b8a4 -->
<g id="ca559edde_f643_4374_aab1_8e0fa718b8a4" class="node">
<title>ca559edde_f643_4374_aab1_8e0fa718b8a4</title>
<polygon fill="none" stroke="#000000" points="2120.5762,-14.5 2120.5762,-50.5 2176.1426,-50.5 2176.1426,-14.5 2120.5762,-14.5"/>
<text text-anchor="middle" x="2148.3594" y="-30.1" font-family="Times,serif" font-size="8.00" fill="#000000">BuildConfig</text>
</g>
<!-- c19d6a950_9435_4fab_a499_9c6c47675534 -->
<g id="c19d6a950_9435_4fab_a499_9c6c47675534" class="node">
<title>c19d6a950_9435_4fab_a499_9c6c47675534</title>
<polygon fill="none" stroke="#000000" points="2193.8066,-14.5 2193.8066,-50.5 2264.9121,-50.5 2264.9121,-14.5 2193.8066,-14.5"/>
<text text-anchor="middle" x="2229.3594" y="-30.1" font-family="Times,serif" font-size="8.00" fill="#000000">ActivityMain$19</text>
</g>
<!-- cec7d4eea_b5f9_4029_a0da_e50009936ef6 -->
<g id="cec7d4eea_b5f9_4029_a0da_e50009936ef6" class="node">
<title>cec7d4eea_b5f9_4029_a0da_e50009936ef6</title>
<polygon fill="none" stroke="#000000" points="2283.3633,-14.5 2283.3633,-50.5 2347.3555,-50.5 2347.3555,-14.5 2283.3633,-14.5"/>
<text text-anchor="middle" x="2315.3594" y="-30.1" font-family="Times,serif" font-size="8.00" fill="#000000">EntityResolver</text>
</g>
<!-- c015996a2_2ef5_4cd8_a0d7_0e20d84e44fb -->
<g id="c015996a2_2ef5_4cd8_a0d7_0e20d84e44fb" class="node">
<title>c015996a2_2ef5_4cd8_a0d7_0e20d84e44fb</title>
<polygon fill="none" stroke="#000000" points="2365.3594,-14.5 2365.3594,-50.5 2419.3594,-50.5 2419.3594,-14.5 2365.3594,-14.5"/>
<text text-anchor="middle" x="2392.0273" y="-30.1" font-family="Times,serif" font-size="8.00" fill="#000000">R</text>
</g>
<!-- c567f122f_fd22_4d0e_a068_141605078fa3 -->
<g id="c567f122f_fd22_4d0e_a068_141605078fa3" class="node">
<title>c567f122f_fd22_4d0e_a068_141605078fa3</title>
<polygon fill="none" stroke="#000000" points="2437.1406,-14.5 2437.1406,-50.5 2501.5781,-50.5 2501.5781,-14.5 2437.1406,-14.5"/>
<text text-anchor="middle" x="2469.3594" y="-30.1" font-family="Times,serif" font-size="8.00" fill="#000000">SAXException</text>
</g>
<!-- c0bbca575_9fad_4293_af96_3ce795033bcb -->
<g id="c0bbca575_9fad_4293_af96_3ce795033bcb" class="node">
<title>c0bbca575_9fad_4293_af96_3ce795033bcb</title>
<polygon fill="none" stroke="#000000" points="2519.8086,-14.5 2519.8086,-50.5 2574.9102,-50.5 2574.9102,-14.5 2519.8086,-14.5"/>
<text text-anchor="middle" x="2547.3594" y="-30.1" font-family="Times,serif" font-size="8.00" fill="#000000">InputSource</text>
</g>
<!-- cdfdf59f8_d048_45a8_9543_65f614de2160 -->
<g id="cdfdf59f8_d048_45a8_9543_65f614de2160" class="node">
<title>cdfdf59f8_d048_45a8_9543_65f614de2160</title>
<polygon fill="none" stroke="#000000" points="2593.3594,-14.5 2593.3594,-50.5 2647.3594,-50.5 2647.3594,-14.5 2593.3594,-14.5"/>
<text text-anchor="middle" x="2620.0254" y="-30.1" font-family="Times,serif" font-size="8.00" fill="#000000">R$layout</text>
</g>
<!-- cd99ff7bf_ee3f_4db1_91b7_5378657036cd -->
<g id="cd99ff7bf_ee3f_4db1_91b7_5378657036cd" class="node">
<title>cd99ff7bf_ee3f_4db1_91b7_5378657036cd</title>
<polygon fill="none" stroke="#000000" points="2665.5879,-14.5 2665.5879,-50.5 2761.1309,-50.5 2761.1309,-14.5 2665.5879,-14.5"/>
<text text-anchor="middle" x="2713.3594" y="-30.1" font-family="Times,serif" font-size="8.00" fill="#000000">XmlPullParserException</text>
</g>
<!-- cb53b2a14_02e4_4224_8309_d7f0b44d7504 -->
<g id="cb53b2a14_02e4_4224_8309_d7f0b44d7504" class="node">
<title>cb53b2a14_02e4_4224_8309_d7f0b44d7504</title>
<polygon fill="none" stroke="#000000" points="2778.7012,-14.5 2778.7012,-50.5 2876.0176,-50.5 2876.0176,-14.5 2778.7012,-14.5"/>
<text text-anchor="middle" x="2827.3594" y="-30.1" font-family="Times,serif" font-size="8.00" fill="#000000">LinearLayoutCustomised</text>
</g>
<!-- c3bb86a0c_3d80_49d7_b5c7_ed4c00762405 -->
<g id="c3bb86a0c_3d80_49d7_b5c7_ed4c00762405" class="node">
<title>c3bb86a0c_3d80_49d7_b5c7_ed4c00762405</title>
<polygon fill="none" stroke="#000000" points="2894.4746,-14.5 2894.4746,-50.5 2960.2441,-50.5 2960.2441,-14.5 2894.4746,-14.5"/>
<text text-anchor="middle" x="2927.3594" y="-30.1" font-family="Times,serif" font-size="8.00" fill="#000000">ActivityHelp$1</text>
</g>
<!-- ce7b83134_3c0e_4af7_a5b2_970807c42861 -->
<g id="ce7b83134_3c0e_4af7_a5b2_970807c42861" class="node">
<title>ce7b83134_3c0e_4af7_a5b2_970807c42861</title>
<polygon fill="none" stroke="#000000" points="2978.25,-14.5 2978.25,-50.5 3048.4688,-50.5 3048.4688,-14.5 2978.25,-14.5"/>
<text text-anchor="middle" x="3013.3594" y="-30.1" font-family="Times,serif" font-size="8.00" fill="#000000">ActivityAbout$2</text>
</g>
<!-- c8665eab9_b185_486d_ae2a_daa00d4b300d -->
<g id="c8665eab9_b185_486d_ae2a_daa00d4b300d" class="node">
<title>c8665eab9_b185_486d_ae2a_daa00d4b300d</title>
<polygon fill="none" stroke="#000000" points="3066.9238,-14.5 3066.9238,-50.5 3127.7949,-50.5 3127.7949,-14.5 3066.9238,-14.5"/>
<text text-anchor="middle" x="3097.3594" y="-30.1" font-family="Times,serif" font-size="8.00" fill="#000000">XmlSerializer</text>
</g>
<!-- c02be417b_8c60_482d_9972_7871c5d64988 -->
<g id="c02be417b_8c60_482d_9972_7871c5d64988" class="node">
<title>c02be417b_8c60_482d_9972_7871c5d64988</title>
<polygon fill="none" stroke="#000000" points="3145.5762,-14.5 3145.5762,-50.5 3201.1426,-50.5 3201.1426,-14.5 3145.5762,-14.5"/>
<text text-anchor="middle" x="3173.3594" y="-30.1" font-family="Times,serif" font-size="8.00" fill="#000000">BuildConfig</text>
</g>
<!-- c330e0aff_f497_4ff4_a284_d45a51ba79f1 -->
<g id="c330e0aff_f497_4ff4_a284_d45a51ba79f1" class="node">
<title>c330e0aff_f497_4ff4_a284_d45a51ba79f1</title>
<polygon fill="none" stroke="#000000" points="3219.3594,-14.5 3219.3594,-50.5 3273.3594,-50.5 3273.3594,-14.5 3219.3594,-14.5"/>
<text text-anchor="middle" x="3246.3574" y="-30.1" font-family="Times,serif" font-size="8.00" fill="#000000">Attributes</text>
</g>
</g>
</svg>
