<?xml version="1.0" encoding="UTF-8" standalone="no"?>
<!DOCTYPE svg PUBLIC "-//W3C//DTD SVG 1.1//EN"
 "http://www.w3.org/Graphics/SVG/1.1/DTD/svg11.dtd">
<!-- Generated by graphviz version 2.38.0 (20140413.2041)
 -->
<!-- Title: g Pages: 1 -->
<svg width="539pt" height="476pt"
 viewBox="0.00 0.00 539.19 476.00" xmlns="http://www.w3.org/2000/svg" xmlns:xlink="http://www.w3.org/1999/xlink">
<g id="graph0" class="graph" transform="scale(1 1) rotate(0) translate(4 472)">
<title>g</title>
<polygon fill="white" stroke="none" points="-4,4 -4,-472 535.186,-472 535.186,4 -4,4"/>
<!-- create a meeting -->
<g id="node1" class="node"><title>create a meeting</title>
<ellipse fill="none" stroke="black" cx="288.741" cy="-90" rx="68.7879" ry="18"/>
<text text-anchor="middle" x="288.741" y="-86.3" font-family="Times New Roman,serif" font-size="14.00">create a meeting</text>
</g>
<!-- meeting -->
<g id="node2" class="node"><title>meeting</title>
<ellipse fill="none" stroke="black" cx="288.741" cy="-18" rx="38.1938" ry="18"/>
<text text-anchor="middle" x="288.741" y="-14.3" font-family="Times New Roman,serif" font-size="14.00">meeting</text>
</g>
<!-- create a meeting&#45;&gt;meeting -->
<g id="edge1" class="edge"><title>create a meeting&#45;&gt;meeting</title>
<path fill="none" stroke="black" d="M288.741,-71.6966C288.741,-63.9827 288.741,-54.7125 288.741,-46.1124"/>
<polygon fill="black" stroke="black" points="292.241,-46.1043 288.741,-36.1043 285.241,-46.1044 292.241,-46.1043"/>
</g>
<!-- Verifies attendee list -->
<g id="node3" class="node"><title>Verifies attendee list</title>
<ellipse fill="none" stroke="black" cx="218.741" cy="-162" rx="83.3857" ry="18"/>
<text text-anchor="middle" x="218.741" y="-158.3" font-family="Times New Roman,serif" font-size="14.00">Verifies attendee list</text>
</g>
<!-- Verifies attendee list&#45;&gt;create a meeting -->
<g id="edge2" class="edge"><title>Verifies attendee list&#45;&gt;create a meeting</title>
<path fill="none" stroke="black" d="M235.686,-144.055C244.37,-135.371 255.097,-124.644 264.627,-115.114"/>
<polygon fill="black" stroke="black" points="267.356,-117.335 271.952,-107.789 262.406,-112.385 267.356,-117.335"/>
</g>
<!-- user already exists toasts -->
<g id="node4" class="node"><title>user already exists toasts</title>
<ellipse fill="none" stroke="black" cx="100.741" cy="-90" rx="100.983" ry="18"/>
<text text-anchor="middle" x="100.741" y="-86.3" font-family="Times New Roman,serif" font-size="14.00">user already exists toasts</text>
</g>
<!-- Verifies attendee list&#45;&gt;user already exists toasts -->
<g id="edge3" class="edge"><title>Verifies attendee list&#45;&gt;user already exists toasts</title>
<path fill="none" stroke="black" d="M191.669,-144.941C175.562,-135.385 154.91,-123.134 137.36,-112.723"/>
<polygon fill="black" stroke="black" points="138.892,-109.563 128.506,-107.471 135.321,-115.583 138.892,-109.563"/>
</g>
<!-- Create meeting screen -->
<g id="node5" class="node"><title>Create meeting screen</title>
<ellipse fill="none" stroke="black" cx="218.741" cy="-234" rx="90.1842" ry="18"/>
<text text-anchor="middle" x="218.741" y="-230.3" font-family="Times New Roman,serif" font-size="14.00">Create meeting screen</text>
</g>
<!-- Create meeting screen&#45;&gt;Verifies attendee list -->
<g id="edge4" class="edge"><title>Create meeting screen&#45;&gt;Verifies attendee list</title>
<path fill="none" stroke="black" d="M218.741,-215.697C218.741,-207.983 218.741,-198.712 218.741,-190.112"/>
<polygon fill="black" stroke="black" points="222.241,-190.104 218.741,-180.104 215.241,-190.104 222.241,-190.104"/>
</g>
<!-- display the create meeting screen -->
<g id="node6" class="node"><title>display the create meeting screen</title>
<ellipse fill="none" stroke="black" cx="359.741" cy="-306" rx="129.977" ry="18"/>
<text text-anchor="middle" x="359.741" y="-302.3" font-family="Times New Roman,serif" font-size="14.00">display the create meeting screen</text>
</g>
<!-- display the create meeting screen&#45;&gt;Create meeting screen -->
<g id="edge5" class="edge"><title>display the create meeting screen&#45;&gt;Create meeting screen</title>
<path fill="none" stroke="black" d="M326.683,-288.588C306.83,-278.732 281.396,-266.105 260.204,-255.584"/>
<polygon fill="black" stroke="black" points="261.619,-252.379 251.106,-251.068 258.506,-258.649 261.619,-252.379"/>
</g>
<!-- Tasks -->
<g id="node7" class="node"><title>Tasks</title>
<ellipse fill="none" stroke="black" cx="359.741" cy="-234" rx="32.4942" ry="18"/>
<text text-anchor="middle" x="359.741" y="-230.3" font-family="Times New Roman,serif" font-size="14.00">Tasks</text>
</g>
<!-- display the create meeting screen&#45;&gt;Tasks -->
<g id="edge6" class="edge"><title>display the create meeting screen&#45;&gt;Tasks</title>
<path fill="none" stroke="black" d="M359.741,-287.697C359.741,-279.983 359.741,-270.712 359.741,-262.112"/>
<polygon fill="black" stroke="black" points="363.241,-262.104 359.741,-252.104 356.241,-262.104 363.241,-262.104"/>
</g>
<!-- Attendee Info -->
<g id="node8" class="node"><title>Attendee Info</title>
<ellipse fill="none" stroke="black" cx="470.741" cy="-234" rx="60.3893" ry="18"/>
<text text-anchor="middle" x="470.741" y="-230.3" font-family="Times New Roman,serif" font-size="14.00">Attendee Info</text>
</g>
<!-- display the create meeting screen&#45;&gt;Attendee Info -->
<g id="edge7" class="edge"><title>display the create meeting screen&#45;&gt;Attendee Info</title>
<path fill="none" stroke="black" d="M386.328,-288.233C401.589,-278.609 420.896,-266.434 437.193,-256.157"/>
<polygon fill="black" stroke="black" points="439.301,-258.965 445.892,-250.671 435.567,-253.044 439.301,-258.965"/>
</g>
<!-- create meeting option -->
<g id="node9" class="node"><title>create meeting option</title>
<ellipse fill="none" stroke="black" cx="338.741" cy="-378" rx="88.2844" ry="18"/>
<text text-anchor="middle" x="338.741" y="-374.3" font-family="Times New Roman,serif" font-size="14.00">create meeting option</text>
</g>
<!-- create meeting option&#45;&gt;display the create meeting screen -->
<g id="edge8" class="edge"><title>create meeting option&#45;&gt;display the create meeting screen</title>
<path fill="none" stroke="black" d="M343.932,-359.697C346.272,-351.898 349.089,-342.509 351.692,-333.829"/>
<polygon fill="black" stroke="black" points="355.089,-334.688 354.61,-324.104 348.384,-332.677 355.089,-334.688"/>
</g>
<!-- Administrator -->
<g id="node10" class="node"><title>Administrator</title>
<ellipse fill="none" stroke="black" cx="201.741" cy="-450" rx="60.3893" ry="18"/>
<text text-anchor="middle" x="201.741" y="-446.3" font-family="Times New Roman,serif" font-size="14.00">Administrator</text>
</g>
<!-- Administrator&#45;&gt;user already exists toasts -->
<g id="edge11" class="edge"><title>Administrator&#45;&gt;user already exists toasts</title>
<path fill="none" stroke="black" d="M179.826,-432.885C150.121,-409.001 100.741,-361.152 100.741,-307 100.741,-307 100.741,-307 100.741,-233 100.741,-192.996 100.741,-146.653 100.741,-118.08"/>
<polygon fill="black" stroke="black" points="104.241,-118.049 100.741,-108.049 97.2412,-118.049 104.241,-118.049"/>
</g>
<!-- Administrator&#45;&gt;Create meeting screen -->
<g id="edge10" class="edge"><title>Administrator&#45;&gt;Create meeting screen</title>
<path fill="none" stroke="black" d="M203.104,-431.849C206.044,-394.832 213.007,-307.181 216.566,-262.386"/>
<polygon fill="black" stroke="black" points="220.069,-262.478 217.372,-252.232 213.091,-261.924 220.069,-262.478"/>
</g>
<!-- Administrator&#45;&gt;create meeting option -->
<g id="edge9" class="edge"><title>Administrator&#45;&gt;create meeting option</title>
<path fill="none" stroke="black" d="M230.795,-434.155C250.451,-424.112 276.68,-410.71 298.362,-399.632"/>
<polygon fill="black" stroke="black" points="300.03,-402.71 307.343,-395.043 296.845,-396.476 300.03,-402.71"/>
</g>
</g>
</svg>
