<?xml version="1.0" encoding="UTF-8" standalone="no"?>
<!DOCTYPE svg PUBLIC "-//W3C//DTD SVG 1.1//EN"
 "http://www.w3.org/Graphics/SVG/1.1/DTD/svg11.dtd">
<!-- Generated by graphviz version 2.38.0 (20140413.2041)
 -->
<!-- Title: g Pages: 1 -->
<svg width="3146pt" height="706pt"
 viewBox="0.00 0.00 3145.64 706.00" xmlns="http://www.w3.org/2000/svg" xmlns:xlink="http://www.w3.org/1999/xlink">
<g id="graph0" class="graph" transform="scale(1 1) rotate(0) translate(4 702)">
<title>g</title>
<polygon fill="white" stroke="none" points="-4,4 -4,-702 3141.64,-702 3141.64,4 -4,4"/>
<g id="clust1" class="cluster"><title>cluster0</title>
<polygon fill="none" stroke="black" stroke-width="2" points="41,-64 41,-592 551,-592 551,-64 41,-64"/>
<text text-anchor="start" x="274" y="-577.8" font-family="Times New Roman,serif" font-weight="bold" font-size="14.00">System</text>
</g>
<g id="clust2" class="cluster"><title>cluster1</title>
<polygon fill="none" stroke="black" stroke-width="2" points="8,-600 8,-690 584,-690 584,-600 8,-600"/>
<text text-anchor="start" x="281.5" y="-675.8" font-family="Times New Roman,serif" font-weight="bold" font-size="14.00">User</text>
</g>
<g id="clust3" class="cluster"><title>cluster1000</title>
<polygon fill="none" stroke="black" stroke-width="2" points="559,-164 559,-402 3008,-402 3008,-164 559,-164"/>
<text text-anchor="start" x="1738" y="-387.8" font-family="Times New Roman,serif" font-weight="bold" font-size="14.00">Domain Model</text>
</g>
<!-- EAID_6ACBE0AE_BF5E_440d_A619_A301B40ADD67___EAID_1A8595F2_971C_49bc_8FAE_710C6A89E7CE -->
<g id="node1" class="node"><title>EAID_6ACBE0AE_BF5E_440d_A619_A301B40ADD67___EAID_1A8595F2_971C_49bc_8FAE_710C6A89E7CE</title>
<image xlink:href="img/activity_icon.png" width="30px" height="20px" preserveAspectRatio="xMinYMin meet" x="257" y="-554.5"/>
<text text-anchor="start" x="217" y="-520.3" font-family="Times New Roman,serif" font-weight="bold" font-size="14.00">User:message box</text>
</g>
<!-- EAID_1A8595F2_971C_49bc_8FAE_710C6A89E7CE -->
<g id="node24" class="node"><title>EAID_1A8595F2_971C_49bc_8FAE_710C6A89E7CE</title>
<text text-anchor="middle" x="571" y="-14.3" font-family="Times New Roman,serif" font-size="14.00">EAID_1A8595F2_971C_49bc_8FAE_710C6A89E7CE</text>
</g>
<!-- EAID_6ACBE0AE_BF5E_440d_A619_A301B40ADD67___EAID_1A8595F2_971C_49bc_8FAE_710C6A89E7CE&#45;&gt;EAID_1A8595F2_971C_49bc_8FAE_710C6A89E7CE -->
<g id="edge8" class="edge"><title>EAID_6ACBE0AE_BF5E_440d_A619_A301B40ADD67___EAID_1A8595F2_971C_49bc_8FAE_710C6A89E7CE&#45;&gt;EAID_1A8595F2_971C_49bc_8FAE_710C6A89E7CE</title>
<path fill="none" stroke="black" stroke-dasharray="5,2" d="M337.097,-511.758C340.087,-511.09 343.065,-510.497 346,-510 844.3,-425.604 2117.07,-523.821 2620,-474 2796.27,-456.538 2898.62,-538.099 3012,-402 3079.7,-320.728 3084.54,-240.982 3012,-164 2934.38,-81.6376 1292.07,-35.8727 745.888,-22.8878"/>
<polygon fill="black" stroke="black" points="745.635,-19.381 735.555,-22.643 745.469,-26.379 745.635,-19.381"/>
</g>
<!-- EAID_6ACBE0AE_BF5E_440d_A619_A301B40ADD67___EAID_1D4F9E92_D222_46ca_8152_461D97CA9065 -->
<g id="node2" class="node"><title>EAID_6ACBE0AE_BF5E_440d_A619_A301B40ADD67___EAID_1D4F9E92_D222_46ca_8152_461D97CA9065</title>
<image xlink:href="img/activity_icon.png" width="30px" height="20px" preserveAspectRatio="xMinYMin meet" x="434" y="-554.5"/>
<text text-anchor="start" x="365" y="-520.3" font-family="Times New Roman,serif" font-weight="bold" font-size="14.00">User:Logout error message</text>
</g>
<!-- EAID_6ACBE0AE_BF5E_440d_A619_A301B40ADD67___EAID_1D4F9E92_D222_46ca_8152_461D97CA9065&#45;&gt;EAID_1A8595F2_971C_49bc_8FAE_710C6A89E7CE -->
<g id="edge9" class="edge"><title>EAID_6ACBE0AE_BF5E_440d_A619_A301B40ADD67___EAID_1D4F9E92_D222_46ca_8152_461D97CA9065&#45;&gt;EAID_1A8595F2_971C_49bc_8FAE_710C6A89E7CE</title>
<path fill="none" stroke="black" stroke-dasharray="5,2" d="M543.349,-534.088C1004.11,-531.855 2997.48,-519.572 3042,-474 3169.34,-343.655 3169.67,-194.018 3042,-64 3001.8,-23.0655 1303.11,-19.1211 745.959,-18.93"/>
<polygon fill="black" stroke="black" points="745.826,-15.4301 735.825,-18.9269 745.824,-22.4301 745.826,-15.4301"/>
</g>
<!-- EAID_6ACBE0AE_BF5E_440d_A619_A301B40ADD67___EAID_34C9DFBC_82E7_4a0b_8F08_3CC24A246C5E -->
<g id="node3" class="node"><title>EAID_6ACBE0AE_BF5E_440d_A619_A301B40ADD67___EAID_34C9DFBC_82E7_4a0b_8F08_3CC24A246C5E</title>
<image xlink:href="img/activity_icon.png" width="30px" height="20px" preserveAspectRatio="xMinYMin meet" x="104.5" y="-554.5"/>
<text text-anchor="start" x="60" y="-520.3" font-family="Times New Roman,serif" font-weight="bold" font-size="14.00">User:Logout button</text>
</g>
<!-- EAID_34C9DFBC_82E7_4a0b_8F08_3CC24A246C5E___EAID_69C2574E_0353_4b60_BDB0_34BBEFDE6695 -->
<g id="node5" class="node"><title>EAID_34C9DFBC_82E7_4a0b_8F08_3CC24A246C5E___EAID_69C2574E_0353_4b60_BDB0_34BBEFDE6695</title>
<image xlink:href="img/activity_icon.png" width="30px" height="20px" preserveAspectRatio="xMinYMin meet" x="436" y="-468"/>
<text text-anchor="start" x="369" y="-433.8" font-family="Times New Roman,serif" font-weight="bold" font-size="14.00">Logout button:Clear cache</text>
<text text-anchor="start" x="437" y="-419.8" font-family="Times New Roman,serif" font-weight="bold" font-size="14.00">data</text>
</g>
<!-- EAID_6ACBE0AE_BF5E_440d_A619_A301B40ADD67___EAID_34C9DFBC_82E7_4a0b_8F08_3CC24A246C5E&#45;&gt;EAID_34C9DFBC_82E7_4a0b_8F08_3CC24A246C5E___EAID_69C2574E_0353_4b60_BDB0_34BBEFDE6695 -->
<g id="edge3" class="edge"><title>EAID_6ACBE0AE_BF5E_440d_A619_A301B40ADD67___EAID_34C9DFBC_82E7_4a0b_8F08_3CC24A246C5E&#45;&gt;EAID_34C9DFBC_82E7_4a0b_8F08_3CC24A246C5E___EAID_69C2574E_0353_4b60_BDB0_34BBEFDE6695</title>
<path fill="none" stroke="black" d="M188.739,-512.699C191.866,-511.776 194.964,-510.872 198,-510 247.536,-495.766 302.846,-480.992 349.087,-468.951"/>
<polygon fill="black" stroke="black" points="350.013,-472.327 358.812,-466.424 348.253,-465.552 350.013,-472.327"/>
</g>
<!-- EAID_59A1311D_A7A4_495a_A79A_E541167ADE46 -->
<g id="node11" class="node"><title>EAID_59A1311D_A7A4_495a_A79A_E541167ADE46</title>
<polygon fill="none" stroke="black" points="2860,-313.5 2860,-334.5 2991,-334.5 2991,-313.5 2860,-313.5"/>
<text text-anchor="start" x="2911" y="-321.3" font-family="Times New Roman,serif" font-weight="bold" font-size="14.00">Blog</text>
<polygon fill="none" stroke="black" points="2860,-292.5 2860,-313.5 2991,-313.5 2991,-292.5 2860,-292.5"/>
<text text-anchor="start" x="2906.5" y="-300.3" font-family="Times New Roman,serif" font-weight="bold" font-size="14.00">Blog()</text>
<polygon fill="none" stroke="black" points="2860,-271.5 2860,-292.5 2991,-292.5 2991,-271.5 2860,-271.5"/>
<text text-anchor="start" x="2875.5" y="-279.3" font-family="Times New Roman,serif" font-weight="bold" font-size="14.00">postblogbutton()</text>
<polygon fill="none" stroke="black" points="2860,-250.5 2860,-271.5 2991,-271.5 2991,-250.5 2860,-250.5"/>
<text text-anchor="start" x="2863" y="-258.3" font-family="Times New Roman,serif" font-weight="bold" font-size="14.00">redirecttoblogpage()</text>
<polygon fill="none" stroke="black" points="2860,-229.5 2860,-250.5 2991,-250.5 2991,-229.5 2860,-229.5"/>
<text text-anchor="start" x="2876.5" y="-237.3" font-family="Times New Roman,serif" font-weight="bold" font-size="14.00">Confirmdialog()</text>
<polygon fill="none" stroke="black" points="2860,-208.5 2860,-229.5 2991,-229.5 2991,-208.5 2860,-208.5"/>
<text text-anchor="start" x="2891" y="-216.3" font-family="Times New Roman,serif" font-weight="bold" font-size="14.00">loginpage()</text>
<polygon fill="none" stroke="black" points="2858.5,-207.5 2858.5,-335.5 2991.5,-335.5 2991.5,-207.5 2858.5,-207.5"/>
</g>
<!-- EAID_6ACBE0AE_BF5E_440d_A619_A301B40ADD67___EAID_34C9DFBC_82E7_4a0b_8F08_3CC24A246C5E&#45;&gt;EAID_59A1311D_A7A4_495a_A79A_E541167ADE46 -->
<g id="edge10" class="edge"><title>EAID_6ACBE0AE_BF5E_440d_A619_A301B40ADD67___EAID_34C9DFBC_82E7_4a0b_8F08_3CC24A246C5E&#45;&gt;EAID_59A1311D_A7A4_495a_A79A_E541167ADE46</title>
<path fill="none" stroke="black" stroke-dasharray="5,2" d="M188.547,-511.857C191.725,-511.162 194.887,-510.537 198,-510 487.636,-460.049 2585.66,-547.556 2841,-402 2862.59,-389.694 2879.56,-369.313 2892.42,-348.322"/>
<polygon fill="black" stroke="black" points="2895.48,-350.028 2897.51,-339.63 2889.44,-346.494 2895.48,-350.028"/>
</g>
<!-- EAID_69C2574E_0353_4b60_BDB0_34BBEFDE6695___EAID_79D6D23D_9E79_4b9f_AC42_017530A922B2 -->
<g id="node4" class="node"><title>EAID_69C2574E_0353_4b60_BDB0_34BBEFDE6695___EAID_79D6D23D_9E79_4b9f_AC42_017530A922B2</title>
<image xlink:href="img/activity_icon.png" width="30px" height="20px" preserveAspectRatio="xMinYMin meet" x="439.5" y="-297.5"/>
<text text-anchor="start" x="379" y="-263.3" font-family="Times New Roman,serif" font-weight="bold" font-size="14.00">Clear cache data:display</text>
<text text-anchor="start" x="401.5" y="-249.3" font-family="Times New Roman,serif" font-weight="bold" font-size="14.00">a logout message</text>
</g>
<!-- EAID_79D6D23D_9E79_4b9f_AC42_017530A922B2___EAID_1D4F9E92_D222_46ca_8152_461D97CA9065 -->
<g id="node6" class="node"><title>EAID_79D6D23D_9E79_4b9f_AC42_017530A922B2___EAID_1D4F9E92_D222_46ca_8152_461D97CA9065</title>
<image xlink:href="img/activity_icon.png" width="30px" height="20px" preserveAspectRatio="xMinYMin meet" x="251.5" y="-130"/>
<text text-anchor="start" x="218" y="-95.8" font-family="Times New Roman,serif" font-weight="bold" font-size="14.00">display a logout</text>
<text text-anchor="start" x="171" y="-81.8" font-family="Times New Roman,serif" font-weight="bold" font-size="14.00">message:Logout error message</text>
</g>
<!-- EAID_69C2574E_0353_4b60_BDB0_34BBEFDE6695___EAID_79D6D23D_9E79_4b9f_AC42_017530A922B2&#45;&gt;EAID_79D6D23D_9E79_4b9f_AC42_017530A922B2___EAID_1D4F9E92_D222_46ca_8152_461D97CA9065 -->
<g id="edge5" class="edge"><title>EAID_69C2574E_0353_4b60_BDB0_34BBEFDE6695___EAID_79D6D23D_9E79_4b9f_AC42_017530A922B2&#45;&gt;EAID_79D6D23D_9E79_4b9f_AC42_017530A922B2___EAID_1D4F9E92_D222_46ca_8152_461D97CA9065</title>
<path fill="none" stroke="black" d="M418.639,-239.371C387.62,-212.065 342.418,-172.273 309.253,-143.076"/>
<polygon fill="black" stroke="black" points="311.341,-140.251 301.522,-136.271 306.715,-145.505 311.341,-140.251"/>
</g>
<!-- EAID_79D6D23D_9E79_4b9f_AC42_017530A922B2___EAID_1A8595F2_971C_49bc_8FAE_710C6A89E7CE -->
<g id="node7" class="node"><title>EAID_79D6D23D_9E79_4b9f_AC42_017530A922B2___EAID_1A8595F2_971C_49bc_8FAE_710C6A89E7CE</title>
<image xlink:href="img/activity_icon.png" width="30px" height="20px" preserveAspectRatio="xMinYMin meet" x="451.5" y="-130"/>
<text text-anchor="start" x="418" y="-95.8" font-family="Times New Roman,serif" font-weight="bold" font-size="14.00">display a logout</text>
<text text-anchor="start" x="400" y="-81.8" font-family="Times New Roman,serif" font-weight="bold" font-size="14.00">message:message box</text>
</g>
<!-- EAID_69C2574E_0353_4b60_BDB0_34BBEFDE6695___EAID_79D6D23D_9E79_4b9f_AC42_017530A922B2&#45;&gt;EAID_79D6D23D_9E79_4b9f_AC42_017530A922B2___EAID_1A8595F2_971C_49bc_8FAE_710C6A89E7CE -->
<g id="edge6" class="edge"><title>EAID_69C2574E_0353_4b60_BDB0_34BBEFDE6695___EAID_79D6D23D_9E79_4b9f_AC42_017530A922B2&#45;&gt;EAID_79D6D23D_9E79_4b9f_AC42_017530A922B2___EAID_1A8595F2_971C_49bc_8FAE_710C6A89E7CE</title>
<path fill="none" stroke="black" d="M456.257,-239.371C458.162,-213.102 460.904,-175.277 462.995,-146.447"/>
<polygon fill="black" stroke="black" points="466.5,-146.498 463.733,-136.271 459.519,-145.991 466.5,-146.498"/>
</g>
<!-- EAID_69C2574E_0353_4b60_BDB0_34BBEFDE6695___EAID_79D6D23D_9E79_4b9f_AC42_017530A922B2&#45;&gt;EAID_1A8595F2_971C_49bc_8FAE_710C6A89E7CE -->
<g id="edge11" class="edge"><title>EAID_69C2574E_0353_4b60_BDB0_34BBEFDE6695___EAID_79D6D23D_9E79_4b9f_AC42_017530A922B2&#45;&gt;EAID_1A8595F2_971C_49bc_8FAE_710C6A89E7CE</title>
<path fill="none" stroke="black" stroke-dasharray="5,2" d="M483.274,-239.431C505.758,-213.725 535.644,-175.195 552,-136 564.096,-107.014 568.522,-71.0038 570.125,-46.6474"/>
<polygon fill="black" stroke="black" points="573.637,-46.5176 570.68,-36.3438 566.647,-46.1411 573.637,-46.5176"/>
</g>
<!-- EAID_34C9DFBC_82E7_4a0b_8F08_3CC24A246C5E___EAID_69C2574E_0353_4b60_BDB0_34BBEFDE6695&#45;&gt;EAID_69C2574E_0353_4b60_BDB0_34BBEFDE6695___EAID_79D6D23D_9E79_4b9f_AC42_017530A922B2 -->
<g id="edge7" class="edge"><title>EAID_34C9DFBC_82E7_4a0b_8F08_3CC24A246C5E___EAID_69C2574E_0353_4b60_BDB0_34BBEFDE6695&#45;&gt;EAID_69C2574E_0353_4b60_BDB0_34BBEFDE6695___EAID_79D6D23D_9E79_4b9f_AC42_017530A922B2</title>
<path fill="none" stroke="black" d="M451.557,-409.701C452.039,-382.628 452.74,-343.287 453.267,-313.667"/>
<polygon fill="black" stroke="black" points="456.767,-313.692 453.446,-303.631 449.768,-313.567 456.767,-313.692"/>
</g>
<!-- EAID_6F33AB5D_9D2F_4e69_AAD5_D980AED6561C -->
<g id="node15" class="node"><title>EAID_6F33AB5D_9D2F_4e69_AAD5_D980AED6561C</title>
<polygon fill="none" stroke="black" points="2015,-323.5 2015,-344.5 2233,-344.5 2233,-323.5 2015,-323.5"/>
<text text-anchor="start" x="2057.5" y="-331.3" font-family="Times New Roman,serif" font-weight="bold" font-size="14.00">Medical Create Form</text>
<polygon fill="none" stroke="black" points="2015,-302.5 2015,-323.5 2233,-323.5 2233,-302.5 2015,-302.5"/>
<text text-anchor="start" x="2056.5" y="-310.3" font-family="Times New Roman,serif" font-weight="bold" font-size="14.00">MedicalCreateForm()</text>
<polygon fill="none" stroke="black" points="2015,-281.5 2015,-302.5 2233,-302.5 2233,-281.5 2015,-281.5"/>
<text text-anchor="start" x="2018" y="-289.3" font-family="Times New Roman,serif" font-weight="bold" font-size="14.00">redirecttothirdpartypaymentpage()</text>
<polygon fill="none" stroke="black" points="2015,-260.5 2015,-281.5 2233,-281.5 2233,-260.5 2015,-260.5"/>
<text text-anchor="start" x="2037" y="-268.3" font-family="Times New Roman,serif" font-weight="bold" font-size="14.00">displaycreatesuccessdialog()</text>
<polygon fill="none" stroke="black" points="2015,-239.5 2015,-260.5 2233,-260.5 2233,-239.5 2015,-239.5"/>
<text text-anchor="start" x="2071" y="-247.3" font-family="Times New Roman,serif" font-weight="bold" font-size="14.00">Clearcachedata()</text>
<polygon fill="none" stroke="black" points="2015,-218.5 2015,-239.5 2233,-239.5 2233,-218.5 2015,-218.5"/>
<text text-anchor="start" x="2043" y="-226.3" font-family="Times New Roman,serif" font-weight="bold" font-size="14.00">Userinfoupdatedmessage()</text>
<polygon fill="none" stroke="black" points="2015,-197.5 2015,-218.5 2233,-218.5 2233,-197.5 2015,-197.5"/>
<text text-anchor="start" x="2061.5" y="-205.3" font-family="Times New Roman,serif" font-weight="bold" font-size="14.00">invalidinfomessage()</text>
<polygon fill="none" stroke="black" points="2014,-197 2014,-346 2234,-346 2234,-197 2014,-197"/>
</g>
<!-- EAID_34C9DFBC_82E7_4a0b_8F08_3CC24A246C5E___EAID_69C2574E_0353_4b60_BDB0_34BBEFDE6695&#45;&gt;EAID_6F33AB5D_9D2F_4e69_AAD5_D980AED6561C -->
<g id="edge12" class="edge"><title>EAID_34C9DFBC_82E7_4a0b_8F08_3CC24A246C5E___EAID_69C2574E_0353_4b60_BDB0_34BBEFDE6695&#45;&gt;EAID_6F33AB5D_9D2F_4e69_AAD5_D980AED6561C</title>
<path fill="none" stroke="black" stroke-dasharray="5,2" d="M543.088,-438.791C875.301,-430.807 1992.81,-403.823 1997,-402 2020.2,-391.912 2041.34,-375.402 2059.44,-357.495"/>
<polygon fill="black" stroke="black" points="2061.99,-359.896 2066.48,-350.302 2056.99,-354.999 2061.99,-359.896"/>
</g>
<!-- EAID_79D6D23D_9E79_4b9f_AC42_017530A922B2___EAID_1D4F9E92_D222_46ca_8152_461D97CA9065&#45;&gt;EAID_1A8595F2_971C_49bc_8FAE_710C6A89E7CE -->
<g id="edge13" class="edge"><title>EAID_79D6D23D_9E79_4b9f_AC42_017530A922B2___EAID_1D4F9E92_D222_46ca_8152_461D97CA9065&#45;&gt;EAID_1A8595F2_971C_49bc_8FAE_710C6A89E7CE</title>
<path fill="none" stroke="black" stroke-dasharray="5,2" d="M354.104,-71.9035C362.817,-69.116 371.558,-66.4322 380,-64 412.634,-54.5982 448.815,-45.695 480.831,-38.3277"/>
<polygon fill="black" stroke="black" points="481.655,-41.7298 490.625,-36.0918 480.097,-34.9054 481.655,-41.7298"/>
</g>
<!-- EAID_79D6D23D_9E79_4b9f_AC42_017530A922B2___EAID_1A8595F2_971C_49bc_8FAE_710C6A89E7CE&#45;&gt;EAID_1A8595F2_971C_49bc_8FAE_710C6A89E7CE -->
<g id="edge14" class="edge"><title>EAID_79D6D23D_9E79_4b9f_AC42_017530A922B2___EAID_1A8595F2_971C_49bc_8FAE_710C6A89E7CE&#45;&gt;EAID_1A8595F2_971C_49bc_8FAE_710C6A89E7CE</title>
<path fill="none" stroke="black" stroke-dasharray="5,2" d="M504.8,-71.9602C517.022,-62.1823 530.31,-51.5522 541.751,-42.3992"/>
<polygon fill="black" stroke="black" points="544.092,-45.0087 549.714,-36.0287 539.719,-39.5426 544.092,-45.0087"/>
</g>
<!-- EAID_6ACBE0AE_BF5E_440d_A619_A301B40ADD67___EAID_1A8595F2_971C_49bc_8FAE_710C6A89E7CE_STL -->
<g id="node8" class="node"><title>EAID_6ACBE0AE_BF5E_440d_A619_A301B40ADD67___EAID_1A8595F2_971C_49bc_8FAE_710C6A89E7CE_STL</title>
<image xlink:href="img/stimulus_icon.png" width="30px" height="20px" preserveAspectRatio="xMinYMin meet" x="257" y="-652.5"/>
<text text-anchor="start" x="206" y="-618.3" font-family="Times New Roman,serif" font-weight="bold" font-size="14.00">stl#User:message box</text>
</g>
<!-- EAID_6ACBE0AE_BF5E_440d_A619_A301B40ADD67___EAID_1A8595F2_971C_49bc_8FAE_710C6A89E7CE_STL&#45;&gt;EAID_6ACBE0AE_BF5E_440d_A619_A301B40ADD67___EAID_1A8595F2_971C_49bc_8FAE_710C6A89E7CE -->
<g id="edge1" class="edge"><title>EAID_6ACBE0AE_BF5E_440d_A619_A301B40ADD67___EAID_1A8595F2_971C_49bc_8FAE_710C6A89E7CE_STL&#45;&gt;EAID_6ACBE0AE_BF5E_440d_A619_A301B40ADD67___EAID_1A8595F2_971C_49bc_8FAE_710C6A89E7CE</title>
<path fill="none" stroke="black" d="M272,-607.778C272,-596.692 272,-583.42 272,-571.351"/>
<polygon fill="black" stroke="black" points="275.5,-571.139 272,-561.139 268.5,-571.139 275.5,-571.139"/>
</g>
<!-- EAID_6ACBE0AE_BF5E_440d_A619_A301B40ADD67___EAID_1D4F9E92_D222_46ca_8152_461D97CA9065_STL -->
<g id="node9" class="node"><title>EAID_6ACBE0AE_BF5E_440d_A619_A301B40ADD67___EAID_1D4F9E92_D222_46ca_8152_461D97CA9065_STL</title>
<image xlink:href="img/stimulus_icon.png" width="30px" height="20px" preserveAspectRatio="xMinYMin meet" x="456" y="-652.5"/>
<text text-anchor="start" x="376" y="-618.3" font-family="Times New Roman,serif" font-weight="bold" font-size="14.00">stl#User:Logout error message</text>
</g>
<!-- EAID_6ACBE0AE_BF5E_440d_A619_A301B40ADD67___EAID_1D4F9E92_D222_46ca_8152_461D97CA9065_STL&#45;&gt;EAID_6ACBE0AE_BF5E_440d_A619_A301B40ADD67___EAID_1D4F9E92_D222_46ca_8152_461D97CA9065 -->
<g id="edge2" class="edge"><title>EAID_6ACBE0AE_BF5E_440d_A619_A301B40ADD67___EAID_1D4F9E92_D222_46ca_8152_461D97CA9065_STL&#45;&gt;EAID_6ACBE0AE_BF5E_440d_A619_A301B40ADD67___EAID_1D4F9E92_D222_46ca_8152_461D97CA9065</title>
<path fill="none" stroke="black" d="M465.334,-607.778C462.768,-596.58 459.691,-583.152 456.903,-570.985"/>
<polygon fill="black" stroke="black" points="460.292,-570.104 454.646,-561.139 453.469,-571.668 460.292,-570.104"/>
</g>
<!-- EAID_6ACBE0AE_BF5E_440d_A619_A301B40ADD67___EAID_34C9DFBC_82E7_4a0b_8F08_3CC24A246C5E_STL -->
<g id="node10" class="node"><title>EAID_6ACBE0AE_BF5E_440d_A619_A301B40ADD67___EAID_34C9DFBC_82E7_4a0b_8F08_3CC24A246C5E_STL</title>
<image xlink:href="img/stimulus_icon.png" width="30px" height="20px" preserveAspectRatio="xMinYMin meet" x="82.5" y="-652.5"/>
<text text-anchor="start" x="27" y="-618.3" font-family="Times New Roman,serif" font-weight="bold" font-size="14.00">stl#User:Logout button</text>
</g>
<!-- EAID_6ACBE0AE_BF5E_440d_A619_A301B40ADD67___EAID_34C9DFBC_82E7_4a0b_8F08_3CC24A246C5E_STL&#45;&gt;EAID_6ACBE0AE_BF5E_440d_A619_A301B40ADD67___EAID_34C9DFBC_82E7_4a0b_8F08_3CC24A246C5E -->
<g id="edge4" class="edge"><title>EAID_6ACBE0AE_BF5E_440d_A619_A301B40ADD67___EAID_34C9DFBC_82E7_4a0b_8F08_3CC24A246C5E_STL&#45;&gt;EAID_6ACBE0AE_BF5E_440d_A619_A301B40ADD67___EAID_34C9DFBC_82E7_4a0b_8F08_3CC24A246C5E</title>
<path fill="none" stroke="black" d="M102.666,-607.778C105.232,-596.58 108.309,-583.152 111.097,-570.985"/>
<polygon fill="black" stroke="black" points="114.531,-571.668 113.354,-561.139 107.708,-570.104 114.531,-571.668"/>
</g>
<!-- EAID_B34D9D03_AEE7_46e0_946B_5B2866E143B3 -->
<g id="node12" class="node"><title>EAID_B34D9D03_AEE7_46e0_946B_5B2866E143B3</title>
<polygon fill="none" stroke="black" points="2649,-302.5 2649,-323.5 2823,-323.5 2823,-302.5 2649,-302.5"/>
<text text-anchor="start" x="2695" y="-310.3" font-family="Times New Roman,serif" font-weight="bold" font-size="14.00">Buyer Profile</text>
<polygon fill="none" stroke="black" points="2649,-281.5 2649,-302.5 2823,-302.5 2823,-281.5 2649,-281.5"/>
<text text-anchor="start" x="2692" y="-289.3" font-family="Times New Roman,serif" font-weight="bold" font-size="14.00">BuyerProfile()</text>
<polygon fill="none" stroke="black" points="2649,-260.5 2649,-281.5 2823,-281.5 2823,-260.5 2649,-260.5"/>
<text text-anchor="start" x="2652" y="-268.3" font-family="Times New Roman,serif" font-weight="bold" font-size="14.00">addingproductinbuyinglist()</text>
<polygon fill="none" stroke="black" points="2649,-239.5 2649,-260.5 2823,-260.5 2823,-239.5 2649,-239.5"/>
<text text-anchor="start" x="2687.5" y="-247.3" font-family="Times New Roman,serif" font-weight="bold" font-size="14.00">Emailprotocol()</text>
<polygon fill="none" stroke="black" points="2649,-218.5 2649,-239.5 2823,-239.5 2823,-218.5 2649,-218.5"/>
<text text-anchor="start" x="2707.5" y="-226.3" font-family="Times New Roman,serif" font-weight="bold" font-size="14.00">product()</text>
<polygon fill="none" stroke="black" points="2648,-218 2648,-325 2824,-325 2824,-218 2648,-218"/>
</g>
<!-- EAID_2B659719_B9C5_4287_A793_484F45B8D8FE -->
<g id="node13" class="node"><title>EAID_2B659719_B9C5_4287_A793_484F45B8D8FE</title>
<polygon fill="none" stroke="black" points="2447,-313.5 2447,-334.5 2613,-334.5 2613,-313.5 2447,-313.5"/>
<text text-anchor="start" x="2453" y="-321.3" font-family="Times New Roman,serif" font-weight="bold" font-size="14.00">Buyer Registration Form</text>
<polygon fill="none" stroke="black" points="2447,-292.5 2447,-313.5 2613,-313.5 2613,-292.5 2447,-292.5"/>
<text text-anchor="start" x="2452" y="-300.3" font-family="Times New Roman,serif" font-weight="bold" font-size="14.00">BuyerRegistrationForm()</text>
<polygon fill="none" stroke="black" points="2447,-271.5 2447,-292.5 2613,-292.5 2613,-271.5 2447,-271.5"/>
<text text-anchor="start" x="2496" y="-279.3" font-family="Times New Roman,serif" font-weight="bold" font-size="14.00">buyinglist()</text>
<polygon fill="none" stroke="black" points="2447,-250.5 2447,-271.5 2613,-271.5 2613,-250.5 2447,-250.5"/>
<text text-anchor="start" x="2490.5" y="-258.3" font-family="Times New Roman,serif" font-weight="bold" font-size="14.00">notification()</text>
<polygon fill="none" stroke="black" points="2447,-229.5 2447,-250.5 2613,-250.5 2613,-229.5 2447,-229.5"/>
<text text-anchor="start" x="2453" y="-237.3" font-family="Times New Roman,serif" font-weight="bold" font-size="14.00">invalidinformationerror()</text>
<polygon fill="none" stroke="black" points="2447,-208.5 2447,-229.5 2613,-229.5 2613,-208.5 2447,-208.5"/>
<text text-anchor="start" x="2450" y="-216.3" font-family="Times New Roman,serif" font-weight="bold" font-size="14.00">Accountinformationpage()</text>
<polygon fill="none" stroke="black" points="2446,-207.5 2446,-335.5 2614,-335.5 2614,-207.5 2446,-207.5"/>
</g>
<!-- EAID_B664B6E7_136C_41d6_BDBD_11BDDFA90F56 -->
<g id="node14" class="node"><title>EAID_B664B6E7_136C_41d6_BDBD_11BDDFA90F56</title>
<polygon fill="none" stroke="black" points="2269,-292.5 2269,-313.5 2411,-313.5 2411,-292.5 2269,-292.5"/>
<text text-anchor="start" x="2310" y="-300.3" font-family="Times New Roman,serif" font-weight="bold" font-size="14.00">Comment</text>
<polygon fill="none" stroke="black" points="2269,-271.5 2269,-292.5 2411,-292.5 2411,-271.5 2269,-271.5"/>
<text text-anchor="start" x="2305.5" y="-279.3" font-family="Times New Roman,serif" font-weight="bold" font-size="14.00">Comment()</text>
<polygon fill="none" stroke="black" points="2269,-250.5 2269,-271.5 2411,-271.5 2411,-250.5 2269,-250.5"/>
<text text-anchor="start" x="2272" y="-258.3" font-family="Times New Roman,serif" font-weight="bold" font-size="14.00">paymentmethodpage()</text>
<polygon fill="none" stroke="black" points="2269,-229.5 2269,-250.5 2411,-250.5 2411,-229.5 2269,-229.5"/>
<text text-anchor="start" x="2293" y="-237.3" font-family="Times New Roman,serif" font-weight="bold" font-size="14.00">finishpayment()</text>
<polygon fill="none" stroke="black" points="2268,-228.5 2268,-314.5 2412,-314.5 2412,-228.5 2268,-228.5"/>
</g>
<!-- EAID_3BD3F3C6_DBEB_467b_9866_3C20F49D36AD -->
<g id="node16" class="node"><title>EAID_3BD3F3C6_DBEB_467b_9866_3C20F49D36AD</title>
<polygon fill="none" stroke="black" points="1791,-313.5 1791,-334.5 1979,-334.5 1979,-313.5 1791,-313.5"/>
<text text-anchor="start" x="1837.5" y="-321.3" font-family="Times New Roman,serif" font-weight="bold" font-size="14.00">Medical Profile</text>
<polygon fill="none" stroke="black" points="1791,-292.5 1791,-313.5 1979,-313.5 1979,-292.5 1791,-292.5"/>
<text text-anchor="start" x="1835" y="-300.3" font-family="Times New Roman,serif" font-weight="bold" font-size="14.00">MedicalProfile()</text>
<polygon fill="none" stroke="black" points="1791,-271.5 1791,-292.5 1979,-292.5 1979,-271.5 1791,-271.5"/>
<text text-anchor="start" x="1815" y="-279.3" font-family="Times New Roman,serif" font-weight="bold" font-size="14.00">changeunsaveddialog()</text>
<polygon fill="none" stroke="black" points="1791,-250.5 1791,-271.5 1979,-271.5 1979,-250.5 1791,-250.5"/>
<text text-anchor="start" x="1826.5" y="-258.3" font-family="Times New Roman,serif" font-weight="bold" font-size="14.00">deletefaileddialog()</text>
<polygon fill="none" stroke="black" points="1791,-229.5 1791,-250.5 1979,-250.5 1979,-229.5 1791,-229.5"/>
<text text-anchor="start" x="1794" y="-237.3" font-family="Times New Roman,serif" font-weight="bold" font-size="14.00">editbuttonforspecificproduct()</text>
<polygon fill="none" stroke="black" points="1791,-208.5 1791,-229.5 1979,-229.5 1979,-208.5 1791,-208.5"/>
<text text-anchor="start" x="1830.5" y="-216.3" font-family="Times New Roman,serif" font-weight="bold" font-size="14.00">producteditpage()</text>
<polygon fill="none" stroke="black" points="1790,-207.5 1790,-335.5 1980,-335.5 1980,-207.5 1790,-207.5"/>
</g>
<!-- EAID_883C3F81_A33A_446b_8D0E_5D7F7DF3F385 -->
<g id="node17" class="node"><title>EAID_883C3F81_A33A_446b_8D0E_5D7F7DF3F385</title>
<polygon fill="none" stroke="black" points="1599,-292.5 1599,-313.5 1755,-313.5 1755,-292.5 1599,-292.5"/>
<text text-anchor="start" x="1658" y="-300.3" font-family="Times New Roman,serif" font-weight="bold" font-size="14.00">Order</text>
<polygon fill="none" stroke="black" points="1599,-271.5 1599,-292.5 1755,-292.5 1755,-271.5 1599,-271.5"/>
<text text-anchor="start" x="1653.5" y="-279.3" font-family="Times New Roman,serif" font-weight="bold" font-size="14.00">Order()</text>
<polygon fill="none" stroke="black" points="1599,-250.5 1599,-271.5 1755,-271.5 1755,-250.5 1599,-250.5"/>
<text text-anchor="start" x="1602" y="-258.3" font-family="Times New Roman,serif" font-weight="bold" font-size="14.00">unshippedordersbutton()</text>
<polygon fill="none" stroke="black" points="1599,-229.5 1599,-250.5 1755,-250.5 1755,-229.5 1599,-229.5"/>
<text text-anchor="start" x="1625.5" y="-237.3" font-family="Times New Roman,serif" font-weight="bold" font-size="14.00">generateorders()</text>
<polygon fill="none" stroke="black" points="1598,-228.5 1598,-314.5 1756,-314.5 1756,-228.5 1598,-228.5"/>
</g>
<!-- EAID_29435C6A_F5BC_4216_B016_70CB416483BB -->
<g id="node18" class="node"><title>EAID_29435C6A_F5BC_4216_B016_70CB416483BB</title>
<polygon fill="none" stroke="black" points="1502,-271.5 1502,-292.5 1563,-292.5 1563,-271.5 1502,-271.5"/>
<text text-anchor="start" x="1509.5" y="-279.3" font-family="Times New Roman,serif" font-weight="bold" font-size="14.00">Review</text>
<polygon fill="none" stroke="black" points="1502,-250.5 1502,-271.5 1563,-271.5 1563,-250.5 1502,-250.5"/>
<text text-anchor="start" x="1505" y="-258.3" font-family="Times New Roman,serif" font-weight="bold" font-size="14.00">Review()</text>
<polygon fill="none" stroke="black" points="1500.5,-249.5 1500.5,-293.5 1563.5,-293.5 1563.5,-249.5 1500.5,-249.5"/>
</g>
<!-- EAID_40F20A7C_60EB_4852_B39F_5811C66BE4E2 -->
<g id="node19" class="node"><title>EAID_40F20A7C_60EB_4852_B39F_5811C66BE4E2</title>
<polygon fill="none" stroke="black" points="1245,-344.5 1245,-365.5 1466,-365.5 1466,-344.5 1245,-344.5"/>
<text text-anchor="start" x="1274.5" y="-352.3" font-family="Times New Roman,serif" font-weight="bold" font-size="14.00">Vender Registration Form</text>
<polygon fill="none" stroke="black" points="1245,-323.5 1245,-344.5 1466,-344.5 1466,-323.5 1245,-323.5"/>
<text text-anchor="start" x="1274" y="-331.3" font-family="Times New Roman,serif" font-weight="bold" font-size="14.00">VenderRegistrationForm()</text>
<polygon fill="none" stroke="black" points="1245,-302.5 1245,-323.5 1466,-323.5 1466,-302.5 1245,-302.5"/>
<text text-anchor="start" x="1296" y="-310.3" font-family="Times New Roman,serif" font-weight="bold" font-size="14.00">queryvendoremail()</text>
<polygon fill="none" stroke="black" points="1245,-281.5 1245,-302.5 1466,-302.5 1466,-281.5 1245,-281.5"/>
<text text-anchor="start" x="1302.5" y="-289.3" font-family="Times New Roman,serif" font-weight="bold" font-size="14.00">sendnotification()</text>
<polygon fill="none" stroke="black" points="1245,-260.5 1245,-281.5 1466,-281.5 1466,-260.5 1245,-260.5"/>
<text text-anchor="start" x="1307" y="-268.3" font-family="Times New Roman,serif" font-weight="bold" font-size="14.00">vendorsidebar()</text>
<polygon fill="none" stroke="black" points="1245,-239.5 1245,-260.5 1466,-260.5 1466,-239.5 1245,-239.5"/>
<text text-anchor="start" x="1248" y="-247.3" font-family="Times New Roman,serif" font-weight="bold" font-size="14.00">userlistwitheditandremovebuttons()</text>
<polygon fill="none" stroke="black" points="1245,-218.5 1245,-239.5 1466,-239.5 1466,-218.5 1245,-218.5"/>
<text text-anchor="start" x="1298" y="-226.3" font-family="Times New Roman,serif" font-weight="bold" font-size="14.00">vendordetailpage()</text>
<polygon fill="none" stroke="black" points="1245,-197.5 1245,-218.5 1466,-218.5 1466,-197.5 1245,-197.5"/>
<text text-anchor="start" x="1302.5" y="-205.3" font-family="Times New Roman,serif" font-weight="bold" font-size="14.00">Noresultisfound()</text>
<polygon fill="none" stroke="black" points="1245,-176.5 1245,-197.5 1466,-197.5 1466,-176.5 1245,-176.5"/>
<text text-anchor="start" x="1281.5" y="-184.3" font-family="Times New Roman,serif" font-weight="bold" font-size="14.00">sendconfirmationemail()</text>
<polygon fill="none" stroke="black" points="1243.5,-176 1243.5,-367 1466.5,-367 1466.5,-176 1243.5,-176"/>
</g>
<!-- EAID_57E30833_3116_4a22_926C_BF1F401329E4 -->
<g id="node20" class="node"><title>EAID_57E30833_3116_4a22_926C_BF1F401329E4</title>
<polygon fill="none" stroke="black" points="1020,-323.5 1020,-344.5 1209,-344.5 1209,-323.5 1020,-323.5"/>
<text text-anchor="start" x="1033" y="-331.3" font-family="Times New Roman,serif" font-weight="bold" font-size="14.00">Vendor Registration Form</text>
<polygon fill="none" stroke="black" points="1020,-302.5 1020,-323.5 1209,-323.5 1209,-302.5 1020,-302.5"/>
<text text-anchor="start" x="1032.5" y="-310.3" font-family="Times New Roman,serif" font-weight="bold" font-size="14.00">VendorRegistrationForm()</text>
<polygon fill="none" stroke="black" points="1020,-281.5 1020,-302.5 1209,-302.5 1209,-281.5 1020,-281.5"/>
<text text-anchor="start" x="1070.5" y="-289.3" font-family="Times New Roman,serif" font-weight="bold" font-size="14.00">listofvendors()</text>
<polygon fill="none" stroke="black" points="1020,-260.5 1020,-281.5 1209,-281.5 1209,-260.5 1020,-260.5"/>
<text text-anchor="start" x="1048" y="-268.3" font-family="Times New Roman,serif" font-weight="bold" font-size="14.00">Vendorapprovepage()</text>
<polygon fill="none" stroke="black" points="1020,-239.5 1020,-260.5 1209,-260.5 1209,-239.5 1020,-239.5"/>
<text text-anchor="start" x="1023" y="-247.3" font-family="Times New Roman,serif" font-weight="bold" font-size="14.00">vendoralreadyexistsmessage()</text>
<polygon fill="none" stroke="black" points="1020,-218.5 1020,-239.5 1209,-239.5 1209,-218.5 1020,-218.5"/>
<text text-anchor="start" x="1064.5" y="-226.3" font-family="Times New Roman,serif" font-weight="bold" font-size="14.00">redirectvendor()</text>
<polygon fill="none" stroke="black" points="1020,-197.5 1020,-218.5 1209,-218.5 1209,-197.5 1020,-197.5"/>
<text text-anchor="start" x="1056.5" y="-205.3" font-family="Times New Roman,serif" font-weight="bold" font-size="14.00">updatevendorinfo()</text>
<polygon fill="none" stroke="black" points="1018.5,-197 1018.5,-346 1209.5,-346 1209.5,-197 1018.5,-197"/>
</g>
<!-- EAID_52A560BE_327E_4aae_8816_5CA2C9040944 -->
<g id="node21" class="node"><title>EAID_52A560BE_327E_4aae_8816_5CA2C9040944</title>
<polygon fill="none" stroke="black" points="913,-271.5 913,-292.5 983,-292.5 983,-271.5 913,-271.5"/>
<text text-anchor="start" x="920.5" y="-279.3" font-family="Times New Roman,serif" font-weight="bold" font-size="14.00">postpage</text>
<polygon fill="none" stroke="black" points="913,-250.5 913,-271.5 983,-271.5 983,-250.5 913,-250.5"/>
<text text-anchor="start" x="916" y="-258.3" font-family="Times New Roman,serif" font-weight="bold" font-size="14.00">postpage()</text>
<polygon fill="none" stroke="black" points="912,-249.5 912,-293.5 984,-293.5 984,-249.5 912,-249.5"/>
</g>
<!-- EAID_61D92224_6962_4449_B3A0_BF55C8E96982 -->
<g id="node22" class="node"><title>EAID_61D92224_6962_4449_B3A0_BF55C8E96982</title>
<polygon fill="none" stroke="black" points="722,-271.5 722,-292.5 877,-292.5 877,-271.5 722,-271.5"/>
<text text-anchor="start" x="729.5" y="-279.3" font-family="Times New Roman,serif" font-weight="bold" font-size="14.00">Itemquantityfieldincart</text>
<polygon fill="none" stroke="black" points="722,-250.5 722,-271.5 877,-271.5 877,-250.5 722,-250.5"/>
<text text-anchor="start" x="725" y="-258.3" font-family="Times New Roman,serif" font-weight="bold" font-size="14.00">Itemquantityfieldincart()</text>
<polygon fill="none" stroke="black" points="720.5,-249.5 720.5,-293.5 877.5,-293.5 877.5,-249.5 720.5,-249.5"/>
</g>
<!-- EAID_5D3CE529_2F3C_43e6_B277_0B57C56F2359 -->
<g id="node23" class="node"><title>EAID_5D3CE529_2F3C_43e6_B277_0B57C56F2359</title>
<polygon fill="none" stroke="black" points="577,-302.5 577,-323.5 686,-323.5 686,-302.5 577,-302.5"/>
<text text-anchor="start" x="601" y="-310.3" font-family="Times New Roman,serif" font-weight="bold" font-size="14.00">notifyuser</text>
<polygon fill="none" stroke="black" points="577,-281.5 577,-302.5 686,-302.5 686,-281.5 577,-281.5"/>
<text text-anchor="start" x="596.5" y="-289.3" font-family="Times New Roman,serif" font-weight="bold" font-size="14.00">notifyuser()</text>
<polygon fill="none" stroke="black" points="577,-260.5 577,-281.5 686,-281.5 686,-260.5 577,-260.5"/>
<text text-anchor="start" x="602" y="-268.3" font-family="Times New Roman,serif" font-weight="bold" font-size="14.00">userinfo()</text>
<polygon fill="none" stroke="black" points="577,-239.5 577,-260.5 686,-260.5 686,-239.5 577,-239.5"/>
<text text-anchor="start" x="595.5" y="-247.3" font-family="Times New Roman,serif" font-weight="bold" font-size="14.00">listofusers()</text>
<polygon fill="none" stroke="black" points="577,-218.5 577,-239.5 686,-239.5 686,-218.5 577,-218.5"/>
<text text-anchor="start" x="580" y="-226.3" font-family="Times New Roman,serif" font-weight="bold" font-size="14.00">queryuseremail()</text>
<polygon fill="none" stroke="black" points="575.5,-218 575.5,-325 686.5,-325 686.5,-218 575.5,-218"/>
</g>
</g>
</svg>
