<?xml version="1.0" encoding="UTF-8" standalone="no"?>
<!DOCTYPE svg PUBLIC "-//W3C//DTD SVG 1.1//EN"
 "http://www.w3.org/Graphics/SVG/1.1/DTD/svg11.dtd">
<!-- Generated by graphviz version 2.38.0 (20140413.2041)
 -->
<!-- Title: g Pages: 1 -->
<svg width="1158pt" height="201pt"
 viewBox="0.00 0.00 1158.00 200.64" xmlns="http://www.w3.org/2000/svg" xmlns:xlink="http://www.w3.org/1999/xlink">
<g id="graph0" class="graph" transform="scale(1 1) rotate(0) translate(4 196.64)">
<title>g</title>
<polygon fill="white" stroke="none" points="-4,4 -4,-196.64 1154,-196.64 1154,4 -4,4"/>
<!-- EAID_911284F7_AC21_4a38_BF25_FE727C16AE17 -->
<g id="node1" class="node"><title>EAID_911284F7_AC21_4a38_BF25_FE727C16AE17</title>
<image xlink:href="img/actor1.png" width="61px" height="90px" preserveAspectRatio="xMinYMin meet" x="10.5" y="-186.64"/>
<text text-anchor="start" x="19" y="-73.4399" font-family="Times New Roman,serif" font-size="24.00">User</text>
</g>
<!-- EAID_55DECD5B_E009_43f5_852B_B70D441B75C3 -->
<g id="node2" class="node"><title>EAID_55DECD5B_E009_43f5_852B_B70D441B75C3</title>
<image xlink:href="img/boundary3.png" width="102px" height="67px" preserveAspectRatio="xMinYMin meet" x="1038" y="-174.64"/>
<text text-anchor="start" x="1038" y="-84.4399" font-family="Times New Roman,serif" font-size="24.00">Homepage</text>
</g>
<!-- EAID_911284F7_AC21_4a38_BF25_FE727C16AE17&#45;&gt;EAID_55DECD5B_E009_43f5_852B_B70D441B75C3 -->
<g id="edge1" class="edge"><title>EAID_911284F7_AC21_4a38_BF25_FE727C16AE17&#45;&gt;EAID_55DECD5B_E009_43f5_852B_B70D441B75C3</title>
<path fill="none" stroke="black" d="M81.0936,-139.094C92.5604,-142.163 105.177,-145.029 117,-146.64 265.858,-166.918 304.77,-149.751 455,-150.64 693.662,-152.052 755.122,-179.801 992,-150.64 1000.55,-149.588 1009.43,-148.027 1018.19,-146.198"/>
<polygon fill="black" stroke="black" points="1018.99,-149.605 1028,-144.031 1017.48,-142.77 1018.99,-149.605"/>
</g>
<!-- EAID_4D697F45_E533_43c7_9392_23F9FB92CDD8 -->
<g id="node3" class="node"><title>EAID_4D697F45_E533_43c7_9392_23F9FB92CDD8</title>
<image xlink:href="img/boundary3.png" width="115px" height="67px" preserveAspectRatio="xMinYMin meet" x="210.5" y="-131.64"/>
<text text-anchor="start" x="127" y="-41.4399" font-family="Times New Roman,serif" font-size="24.00">Post on social newwork &#160;page</text>
</g>
<!-- EAID_911284F7_AC21_4a38_BF25_FE727C16AE17&#45;&gt;EAID_4D697F45_E533_43c7_9392_23F9FB92CDD8 -->
<g id="edge2" class="edge"><title>EAID_911284F7_AC21_4a38_BF25_FE727C16AE17&#45;&gt;EAID_4D697F45_E533_43c7_9392_23F9FB92CDD8</title>
<path fill="none" stroke="black" d="M81.0371,-119.101C88.8291,-117.615 97.4429,-115.972 106.567,-114.232"/>
<polygon fill="black" stroke="black" points="107.487,-117.62 116.654,-112.309 106.176,-110.744 107.487,-117.62"/>
</g>
<!-- EAID_AA72CFF6_6CC8_4345_B50D_CB406A678BFA -->
<g id="node5" class="node"><title>EAID_AA72CFF6_6CC8_4345_B50D_CB406A678BFA</title>
<image xlink:href="img/control1.png" width="106px" height="75px" preserveAspectRatio="xMinYMin meet" x="527" y="-135.64"/>
<text text-anchor="start" x="465.5" y="-37.4399" font-family="Times New Roman,serif" font-size="24.00">Post on social networks </text>
</g>
<!-- EAID_4D697F45_E533_43c7_9392_23F9FB92CDD8&#45;&gt;EAID_AA72CFF6_6CC8_4345_B50D_CB406A678BFA -->
<g id="edge5" class="edge"><title>EAID_4D697F45_E533_43c7_9392_23F9FB92CDD8&#45;&gt;EAID_AA72CFF6_6CC8_4345_B50D_CB406A678BFA</title>
<path fill="none" stroke="black" d="M419.217,-83.6399C427.648,-83.6399 436.097,-83.6399 444.464,-83.6399"/>
<polygon fill="black" stroke="black" points="444.622,-87.14 454.622,-83.6399 444.622,-80.14 444.622,-87.14"/>
</g>
<!-- EAID_D92608DD_E572_4453_BF5F_516F14072617 -->
<g id="node4" class="node"><title>EAID_D92608DD_E572_4453_BF5F_516F14072617</title>
<image xlink:href="img/control1.png" width="106px" height="75px" preserveAspectRatio="xMinYMin meet" x="813" y="-135.64"/>
<text text-anchor="start" x="750" y="-37.4399" font-family="Times New Roman,serif" font-size="24.00">Show confirmation page</text>
</g>
<!-- EAID_D92608DD_E572_4453_BF5F_516F14072617&#45;&gt;EAID_55DECD5B_E009_43f5_852B_B70D441B75C3 -->
<g id="edge3" class="edge"><title>EAID_D92608DD_E572_4453_BF5F_516F14072617&#45;&gt;EAID_55DECD5B_E009_43f5_852B_B70D441B75C3</title>
<path fill="none" stroke="black" d="M992.03,-107.967C1000.85,-109.683 1009.54,-111.374 1017.88,-112.996"/>
<polygon fill="black" stroke="black" points="1017.37,-116.463 1027.86,-114.938 1018.71,-109.592 1017.37,-116.463"/>
</g>
<!-- EAID_D92608DD_E572_4453_BF5F_516F14072617&#45;&gt;EAID_4D697F45_E533_43c7_9392_23F9FB92CDD8 -->
<g id="edge6" class="edge"><title>EAID_D92608DD_E572_4453_BF5F_516F14072617&#45;&gt;EAID_4D697F45_E533_43c7_9392_23F9FB92CDD8</title>
<path fill="none" stroke="black" d="M739.969,-25.2467C728.004,-21.3653 715.895,-18.0489 704,-15.6399 595.535,6.32626 563.972,3.65514 455,-15.6399 440.35,-18.2338 425.339,-21.8937 410.506,-26.185"/>
<polygon fill="black" stroke="black" points="409.368,-22.8722 400.791,-29.0914 411.375,-29.5785 409.368,-22.8722"/>
</g>
<!-- EAID_AA72CFF6_6CC8_4345_B50D_CB406A678BFA&#45;&gt;EAID_D92608DD_E572_4453_BF5F_516F14072617 -->
<g id="edge4" class="edge"><title>EAID_AA72CFF6_6CC8_4345_B50D_CB406A678BFA&#45;&gt;EAID_D92608DD_E572_4453_BF5F_516F14072617</title>
<path fill="none" stroke="black" d="M704.045,-83.6399C712.559,-83.6399 721.165,-83.6399 729.737,-83.6399"/>
<polygon fill="black" stroke="black" points="729.777,-87.14 739.777,-83.6399 729.777,-80.14 729.777,-87.14"/>
</g>
</g>
</svg>
