<?xml version="1.0" encoding="UTF-8" standalone="no"?>
<!DOCTYPE svg PUBLIC "-//W3C//DTD SVG 1.1//EN"
 "http://www.w3.org/Graphics/SVG/1.1/DTD/svg11.dtd">
<!-- Generated by graphviz version 2.38.0 (20140413.2041)
 -->
<!-- Title: g Pages: 1 -->
<svg width="9318pt" height="521pt"
 viewBox="0.00 0.00 9318.00 521.00" xmlns="http://www.w3.org/2000/svg" xmlns:xlink="http://www.w3.org/1999/xlink">
<g id="graph0" class="graph" transform="scale(1 1) rotate(0) translate(4 517)">
<title>g</title>
<polygon fill="white" stroke="none" points="-4,4 -4,-517 9314,-517 9314,4 -4,4"/>
<g id="clust1" class="cluster"><title>cluster0</title>
<polygon fill="none" stroke="black" stroke-width="2" points="19,-317 19,-407 115,-407 115,-317 19,-317"/>
<text text-anchor="start" x="45" y="-392.8" font-family="Times New Roman,serif" font-weight="bold" font-size="14.00">System</text>
</g>
<g id="clust3" class="cluster"><title>cluster1000</title>
<polygon fill="none" stroke="black" stroke-width="2" points="22,-8 22,-309 9302,-309 9302,-8 22,-8"/>
<text text-anchor="start" x="4616.5" y="-294.8" font-family="Times New Roman,serif" font-weight="bold" font-size="14.00">Domain Model</text>
</g>
<g id="clust2" class="cluster"><title>cluster1</title>
<polygon fill="none" stroke="black" stroke-width="2" points="8,-415 8,-505 126,-505 126,-415 8,-415"/>
<text text-anchor="start" x="52.5" y="-490.8" font-family="Times New Roman,serif" font-weight="bold" font-size="14.00">User</text>
</g>
<!-- EAID_81ACC495_3114_4db4_B99A_4D831C6C4553 -->
<g id="node1" class="node"><title>EAID_81ACC495_3114_4db4_B99A_4D831C6C4553</title>
<image xlink:href="img/activity_icon.png" width="30px" height="20px" preserveAspectRatio="xMinYMin meet" x="52" y="-369.5"/>
<text text-anchor="start" x="37" y="-335.3" font-family="Times New Roman,serif" font-weight="bold" font-size="14.00">undefined</text>
</g>
<!-- EAID_748E89B5_03B2_481f_8154_C1E52C81E469 -->
<g id="node38" class="node"><title>EAID_748E89B5_03B2_481f_8154_C1E52C81E469</title>
<polygon fill="none" stroke="black" points="40,-136 40,-157 95,-157 95,-136 40,-136"/>
<text text-anchor="start" x="43" y="-143.8" font-family="Times New Roman,serif" font-weight="bold" font-size="14.00">Object1</text>
<polygon fill="none" stroke="black" points="38.5,-135.5 38.5,-158.5 95.5,-158.5 95.5,-135.5 38.5,-135.5"/>
</g>
<!-- EAID_81ACC495_3114_4db4_B99A_4D831C6C4553&#45;&gt;EAID_748E89B5_03B2_481f_8154_C1E52C81E469 -->
<g id="edge2" class="edge"><title>EAID_81ACC495_3114_4db4_B99A_4D831C6C4553&#45;&gt;EAID_748E89B5_03B2_481f_8154_C1E52C81E469</title>
<path fill="none" stroke="black" stroke-dasharray="5,2" d="M67,-324.792C67,-286.945 67,-214.869 67,-175.444"/>
<polygon fill="black" stroke="black" points="70.5001,-175.245 67,-165.245 63.5001,-175.245 70.5001,-175.245"/>
</g>
<!-- EAID_81ACC495_3114_4db4_B99A_4D831C6C4553_STL -->
<g id="node2" class="node"><title>EAID_81ACC495_3114_4db4_B99A_4D831C6C4553_STL</title>
<image xlink:href="img/stimulus_icon.png" width="30px" height="20px" preserveAspectRatio="xMinYMin meet" x="52" y="-467.5"/>
<text text-anchor="start" x="26" y="-433.3" font-family="Times New Roman,serif" font-weight="bold" font-size="14.00">stl#undefined</text>
</g>
<!-- EAID_81ACC495_3114_4db4_B99A_4D831C6C4553_STL&#45;&gt;EAID_81ACC495_3114_4db4_B99A_4D831C6C4553 -->
<g id="edge1" class="edge"><title>EAID_81ACC495_3114_4db4_B99A_4D831C6C4553_STL&#45;&gt;EAID_81ACC495_3114_4db4_B99A_4D831C6C4553</title>
<path fill="none" stroke="black" d="M67,-422.778C67,-411.692 67,-398.42 67,-386.351"/>
<polygon fill="black" stroke="black" points="70.5001,-386.139 67,-376.139 63.5001,-386.139 70.5001,-386.139"/>
</g>
<!-- EAID_3B0FC3C6_B2E4_455b_83E0_0110A0E57CB3 -->
<g id="node3" class="node"><title>EAID_3B0FC3C6_B2E4_455b_83E0_0110A0E57CB3</title>
<polygon fill="none" stroke="black" points="9197,-157 9197,-178 9285,-178 9285,-157 9197,-157"/>
<text text-anchor="start" x="9205" y="-164.8" font-family="Times New Roman,serif" font-weight="bold" font-size="14.00">Inputaword</text>
<polygon fill="none" stroke="black" points="9197,-136 9197,-157 9285,-157 9285,-136 9197,-136"/>
<text text-anchor="start" x="9200.5" y="-143.8" font-family="Times New Roman,serif" font-weight="bold" font-size="14.00">Inputaword()</text>
<polygon fill="none" stroke="black" points="9197,-115 9197,-136 9285,-136 9285,-115 9197,-115"/>
<text text-anchor="start" x="9200" y="-122.8" font-family="Times New Roman,serif" font-weight="bold" font-size="14.00">Inputaname()</text>
<polygon fill="none" stroke="black" points="9196,-114.5 9196,-179.5 9286,-179.5 9286,-114.5 9196,-114.5"/>
</g>
<!-- EAID_90BE6D68_F3C3_4138_AA0A_86084128913F -->
<g id="node4" class="node"><title>EAID_90BE6D68_F3C3_4138_AA0A_86084128913F</title>
<polygon fill="none" stroke="black" points="9004,-147 9004,-168 9161,-168 9161,-147 9004,-147"/>
<text text-anchor="start" x="9008" y="-154.8" font-family="Times New Roman,serif" font-weight="bold" font-size="14.00">Discussion board COTS</text>
<polygon fill="none" stroke="black" points="9004,-126 9004,-147 9161,-147 9161,-126 9004,-126"/>
<text text-anchor="start" x="9007" y="-133.8" font-family="Times New Roman,serif" font-weight="bold" font-size="14.00">DiscussionboardCOTS()</text>
<polygon fill="none" stroke="black" points="9002.5,-125 9002.5,-169 9161.5,-169 9161.5,-125 9002.5,-125"/>
</g>
<!-- EAID_00AE511F_13A5_4e5c_8EFA_E92CC6FB3225 -->
<g id="node5" class="node"><title>EAID_00AE511F_13A5_4e5c_8EFA_E92CC6FB3225</title>
<polygon fill="none" stroke="black" points="8861,-147 8861,-168 8967,-168 8967,-147 8861,-147"/>
<text text-anchor="start" x="8866.5" y="-154.8" font-family="Times New Roman,serif" font-weight="bold" font-size="14.00">Existing system</text>
<polygon fill="none" stroke="black" points="8861,-126 8861,-147 8967,-147 8967,-126 8861,-126"/>
<text text-anchor="start" x="8864" y="-133.8" font-family="Times New Roman,serif" font-weight="bold" font-size="14.00">Existingsystem()</text>
<polygon fill="none" stroke="black" points="8860,-125 8860,-169 8968,-169 8968,-125 8860,-125"/>
</g>
<!-- EAID_A6361296_A6BC_4d5e_B466_8521DFBBEC11 -->
<g id="node6" class="node"><title>EAID_A6361296_A6BC_4d5e_B466_8521DFBBEC11</title>
<polygon fill="none" stroke="black" points="8702,-157 8702,-178 8825,-178 8825,-157 8702,-157"/>
<text text-anchor="start" x="8707.5" y="-164.8" font-family="Times New Roman,serif" font-weight="bold" font-size="14.00">Messaging system</text>
<polygon fill="none" stroke="black" points="8702,-136 8702,-157 8825,-157 8825,-136 8702,-136"/>
<text text-anchor="start" x="8705" y="-143.8" font-family="Times New Roman,serif" font-weight="bold" font-size="14.00">Messagingsystem()</text>
<polygon fill="none" stroke="black" points="8702,-115 8702,-136 8825,-136 8825,-115 8702,-115"/>
<text text-anchor="start" x="8726.5" y="-122.8" font-family="Times New Roman,serif" font-weight="bold" font-size="14.00">Loginpage()</text>
<polygon fill="none" stroke="black" points="8700.5,-114.5 8700.5,-179.5 8825.5,-179.5 8825.5,-114.5 8700.5,-114.5"/>
</g>
<!-- EAID_00A72DCB_88AB_4e51_AA56_F3435D70887D -->
<g id="node7" class="node"><title>EAID_00A72DCB_88AB_4e51_AA56_F3435D70887D</title>
<polygon fill="none" stroke="black" points="8353,-147 8353,-168 8666,-168 8666,-147 8353,-147"/>
<text text-anchor="start" x="8356" y="-154.8" font-family="Times New Roman,serif" font-weight="bold" font-size="14.00">Pediatric Trauma Society Research Investigator...</text>
<polygon fill="none" stroke="black" points="8353,-126 8353,-147 8666,-147 8666,-126 8353,-126"/>
<text text-anchor="start" x="8364.5" y="-133.8" font-family="Times New Roman,serif" font-weight="bold" font-size="14.00">PediatricTraumaSocietyResearchInvestigator()</text>
<polygon fill="none" stroke="black" points="8351.5,-125 8351.5,-169 8666.5,-169 8666.5,-125 8351.5,-125"/>
</g>
<!-- EAID_9BBBED81_F3AA_4945_88F0_D63008FC137E -->
<g id="node8" class="node"><title>EAID_9BBBED81_F3AA_4945_88F0_D63008FC137E</title>
<polygon fill="none" stroke="black" points="8252,-147 8252,-168 8317,-168 8317,-147 8252,-147"/>
<text text-anchor="start" x="8259.5" y="-154.8" font-family="Times New Roman,serif" font-weight="bold" font-size="14.00">Pubmed</text>
<polygon fill="none" stroke="black" points="8252,-126 8252,-147 8317,-147 8317,-126 8252,-126"/>
<text text-anchor="start" x="8255" y="-133.8" font-family="Times New Roman,serif" font-weight="bold" font-size="14.00">Pubmed()</text>
<polygon fill="none" stroke="black" points="8250.5,-125 8250.5,-169 8317.5,-169 8317.5,-125 8250.5,-125"/>
</g>
<!-- EAID_160CB496_BB45_479a_8044_46ECC39810BE -->
<g id="node9" class="node"><title>EAID_160CB496_BB45_479a_8044_46ECC39810BE</title>
<polygon fill="none" stroke="black" points="8159,-147 8159,-168 8216,-168 8216,-147 8159,-147"/>
<text text-anchor="start" x="8166.5" y="-154.8" font-family="Times New Roman,serif" font-weight="bold" font-size="14.00">Class1</text>
<polygon fill="none" stroke="black" points="8159,-126 8159,-147 8216,-147 8216,-126 8159,-126"/>
<text text-anchor="start" x="8162" y="-133.8" font-family="Times New Roman,serif" font-weight="bold" font-size="14.00">Class1()</text>
<polygon fill="none" stroke="black" points="8157.5,-125 8157.5,-169 8216.5,-169 8216.5,-125 8157.5,-125"/>
</g>
<!-- EAID_F2F86AA1_7B52_4e89_B7BD_BC6F2DE7FDCF -->
<g id="node10" class="node"><title>EAID_F2F86AA1_7B52_4e89_B7BD_BC6F2DE7FDCF</title>
<polygon fill="none" stroke="black" points="8066,-147 8066,-168 8123,-168 8123,-147 8066,-147"/>
<text text-anchor="start" x="8073.5" y="-154.8" font-family="Times New Roman,serif" font-weight="bold" font-size="14.00">Class2</text>
<polygon fill="none" stroke="black" points="8066,-126 8066,-147 8123,-147 8123,-126 8066,-126"/>
<text text-anchor="start" x="8069" y="-133.8" font-family="Times New Roman,serif" font-weight="bold" font-size="14.00">Class2()</text>
<polygon fill="none" stroke="black" points="8064.5,-125 8064.5,-169 8123.5,-169 8123.5,-125 8064.5,-125"/>
</g>
<!-- EAID_421262B3_3CBA_472d_8037_3A060A544BB3 -->
<g id="node11" class="node"><title>EAID_421262B3_3CBA_472d_8037_3A060A544BB3</title>
<polygon fill="none" stroke="black" points="7973,-147 7973,-168 8030,-168 8030,-147 7973,-147"/>
<text text-anchor="start" x="7980.5" y="-154.8" font-family="Times New Roman,serif" font-weight="bold" font-size="14.00">Class3</text>
<polygon fill="none" stroke="black" points="7973,-126 7973,-147 8030,-147 8030,-126 7973,-126"/>
<text text-anchor="start" x="7976" y="-133.8" font-family="Times New Roman,serif" font-weight="bold" font-size="14.00">Class3()</text>
<polygon fill="none" stroke="black" points="7971.5,-125 7971.5,-169 8030.5,-169 8030.5,-125 7971.5,-125"/>
</g>
<!-- EAID_B0CC82AF_8930_4139_8933_E59441F68D5C -->
<g id="node12" class="node"><title>EAID_B0CC82AF_8930_4139_8933_E59441F68D5C</title>
<polygon fill="none" stroke="black" points="7670,-231 7670,-252 7937,-252 7937,-231 7670,-231"/>
<text text-anchor="start" x="7782.5" y="-238.8" font-family="Times New Roman,serif" font-weight="bold" font-size="14.00">Article</text>
<polygon fill="none" stroke="black" points="7670,-210 7670,-231 7937,-231 7937,-210 7670,-210"/>
<text text-anchor="start" x="7734" y="-217.8" font-family="Times New Roman,serif" font-weight="bold" font-size="14.00">EAJava_Text abstract</text>
<polygon fill="none" stroke="black" points="7670,-189 7670,-210 7937,-210 7937,-189 7670,-189"/>
<text text-anchor="start" x="7734" y="-196.8" font-family="Times New Roman,serif" font-weight="bold" font-size="14.00">EAJava_String author</text>
<polygon fill="none" stroke="black" points="7670,-168 7670,-189 7937,-189 7937,-168 7670,-168"/>
<text text-anchor="start" x="7674.5" y="-175.8" font-family="Times New Roman,serif" font-weight="bold" font-size="14.00">EAJava_ArrayList_String_ co_authorList</text>
<polygon fill="none" stroke="black" points="7670,-147 7670,-168 7937,-168 7937,-147 7670,-147"/>
<text text-anchor="start" x="7679" y="-154.8" font-family="Times New Roman,serif" font-weight="bold" font-size="14.00">EAJava_ArrayList_String_ keywordList</text>
<polygon fill="none" stroke="black" points="7670,-126 7670,-147 7937,-147 7937,-126 7670,-126"/>
<text text-anchor="start" x="7673" y="-133.8" font-family="Times New Roman,serif" font-weight="bold" font-size="14.00">EAJava_ArrayList_String_ meshTermList</text>
<polygon fill="none" stroke="black" points="7670,-105 7670,-126 7937,-126 7937,-105 7670,-105"/>
<text text-anchor="start" x="7714.5" y="-112.8" font-family="Times New Roman,serif" font-weight="bold" font-size="14.00">EAJava_Date publishedData</text>
<polygon fill="none" stroke="black" points="7670,-84 7670,-105 7937,-105 7937,-84 7670,-84"/>
<text text-anchor="start" x="7702" y="-91.8" font-family="Times New Roman,serif" font-weight="bold" font-size="14.00">EAJava_String publishedJournal</text>
<polygon fill="none" stroke="black" points="7670,-63 7670,-84 7937,-84 7937,-63 7670,-63"/>
<text text-anchor="start" x="7743" y="-70.8" font-family="Times New Roman,serif" font-weight="bold" font-size="14.00">EAJava_String title</text>
<polygon fill="none" stroke="black" points="7670,-42 7670,-63 7937,-63 7937,-42 7670,-42"/>
<text text-anchor="start" x="7778" y="-49.8" font-family="Times New Roman,serif" font-weight="bold" font-size="14.00">Article()</text>
<polygon fill="none" stroke="black" points="7668.5,-41 7668.5,-253 7937.5,-253 7937.5,-41 7668.5,-41"/>
</g>
<!-- EAID_E9BEB9F7_800A_4857_9CA1_C36AFFD3CA9F -->
<g id="node13" class="node"><title>EAID_E9BEB9F7_800A_4857_9CA1_C36AFFD3CA9F</title>
<polygon fill="none" stroke="black" points="7369,-178 7369,-199 7633,-199 7633,-178 7369,-178"/>
<text text-anchor="start" x="7436.5" y="-185.8" font-family="Times New Roman,serif" font-weight="bold" font-size="14.00">Collaboration Graph</text>
<polygon fill="none" stroke="black" points="7369,-157 7369,-178 7633,-178 7633,-157 7369,-157"/>
<text text-anchor="start" x="7372" y="-164.8" font-family="Times New Roman,serif" font-weight="bold" font-size="14.00">EAJava_ArrayList_String_ co_authorList</text>
<polygon fill="none" stroke="black" points="7369,-136 7369,-157 7633,-157 7633,-136 7369,-136"/>
<text text-anchor="start" x="7435.5" y="-143.8" font-family="Times New Roman,serif" font-weight="bold" font-size="14.00">EAJava_String name</text>
<polygon fill="none" stroke="black" points="7369,-115 7369,-136 7633,-136 7633,-115 7369,-115"/>
<text text-anchor="start" x="7434" y="-122.8" font-family="Times New Roman,serif" font-weight="bold" font-size="14.00">CollaborationGraph()</text>
<polygon fill="none" stroke="black" points="7369,-94 7369,-115 7633,-115 7633,-94 7369,-94"/>
<text text-anchor="start" x="7440.5" y="-101.8" font-family="Times New Roman,serif" font-weight="bold" font-size="14.00">Confirmationpage()</text>
<polygon fill="none" stroke="black" points="7368,-93.5 7368,-200.5 7634,-200.5 7634,-93.5 7368,-93.5"/>
</g>
<!-- EAID_366DE59B_0149_4b2c_9745_1287900FBD69 -->
<g id="node14" class="node"><title>EAID_366DE59B_0149_4b2c_9745_1287900FBD69</title>
<polygon fill="none" stroke="black" points="6918,-189 6918,-210 7333,-210 7333,-189 6918,-189"/>
<text text-anchor="start" x="7095.5" y="-196.8" font-family="Times New Roman,serif" font-weight="bold" font-size="14.00">Comment</text>
<polygon fill="none" stroke="black" points="6918,-168 6918,-189 7333,-189 7333,-168 6918,-168"/>
<text text-anchor="start" x="7048.5" y="-175.8" font-family="Times New Roman,serif" font-weight="bold" font-size="14.00">EAJava_String comment</text>
<polygon fill="none" stroke="black" points="6918,-147 6918,-168 7333,-168 7333,-147 6918,-147"/>
<text text-anchor="start" x="7036" y="-154.8" font-family="Times New Roman,serif" font-weight="bold" font-size="14.00">EAJava_String commentator</text>
<polygon fill="none" stroke="black" points="6918,-126 6918,-147 7333,-147 7333,-126 6918,-126"/>
<text text-anchor="start" x="7067.5" y="-133.8" font-family="Times New Roman,serif" font-weight="bold" font-size="14.00">EAJava_Date date</text>
<polygon fill="none" stroke="black" points="6918,-105 6918,-126 7333,-126 7333,-105 6918,-105"/>
<text text-anchor="start" x="6921" y="-112.8" font-family="Times New Roman,serif" font-weight="bold" font-size="14.00">EAID_A4B1B1D7_EE88_4c26_8BDF_7D8D447E44BF undefined</text>
<polygon fill="none" stroke="black" points="6918,-84 6918,-105 7333,-105 7333,-84 6918,-84"/>
<text text-anchor="start" x="7091" y="-91.8" font-family="Times New Roman,serif" font-weight="bold" font-size="14.00">Comment()</text>
<polygon fill="none" stroke="black" points="6916.5,-83 6916.5,-211 7333.5,-211 7333.5,-83 6916.5,-83"/>
</g>
<!-- EAID_8F71B380_298E_4a28_973B_0B6FE664CEBD -->
<g id="node15" class="node"><title>EAID_8F71B380_298E_4a28_973B_0B6FE664CEBD</title>
<polygon fill="none" stroke="black" points="6727,-210 6727,-231 6881,-231 6881,-210 6727,-210"/>
<text text-anchor="start" x="6751" y="-217.8" font-family="Times New Roman,serif" font-weight="bold" font-size="14.00">Message Context</text>
<polygon fill="none" stroke="black" points="6727,-189 6727,-210 6881,-210 6881,-189 6727,-189"/>
<text text-anchor="start" x="6740.5" y="-196.8" font-family="Times New Roman,serif" font-weight="bold" font-size="14.00">EAJava_String body</text>
<polygon fill="none" stroke="black" points="6727,-168 6727,-189 6881,-189 6881,-168 6727,-168"/>
<text text-anchor="start" x="6745.5" y="-175.8" font-family="Times New Roman,serif" font-weight="bold" font-size="14.00">EAJava_Date data</text>
<polygon fill="none" stroke="black" points="6727,-147 6727,-168 6881,-168 6881,-147 6727,-147"/>
<text text-anchor="start" x="6730" y="-154.8" font-family="Times New Roman,serif" font-weight="bold" font-size="14.00">EAJava_String receiver</text>
<polygon fill="none" stroke="black" points="6727,-126 6727,-147 6881,-147 6881,-126 6727,-126"/>
<text text-anchor="start" x="6734.5" y="-133.8" font-family="Times New Roman,serif" font-weight="bold" font-size="14.00">EAJava_String sender</text>
<polygon fill="none" stroke="black" points="6727,-105 6727,-126 6881,-126 6881,-105 6727,-105"/>
<text text-anchor="start" x="6743.5" y="-112.8" font-family="Times New Roman,serif" font-weight="bold" font-size="14.00">EAJava_String title</text>
<polygon fill="none" stroke="black" points="6727,-84 6727,-105 6881,-105 6881,-84 6727,-84"/>
<text text-anchor="start" x="6748" y="-91.8" font-family="Times New Roman,serif" font-weight="bold" font-size="14.00">MessageContext()</text>
<polygon fill="none" stroke="black" points="6727,-63 6727,-84 6881,-84 6881,-63 6727,-63"/>
<text text-anchor="start" x="6766.5" y="-70.8" font-family="Times New Roman,serif" font-weight="bold" font-size="14.00">Homepage()</text>
<polygon fill="none" stroke="black" points="6726,-62 6726,-232 6882,-232 6882,-62 6726,-62"/>
</g>
<!-- EAID_54E06473_96A5_46d5_92DA_63BD81CA2016 -->
<g id="node16" class="node"><title>EAID_54E06473_96A5_46d5_92DA_63BD81CA2016</title>
<polygon fill="none" stroke="black" points="6373,-168 6373,-189 6691,-189 6691,-168 6373,-168"/>
<text text-anchor="start" x="6475.5" y="-175.8" font-family="Times New Roman,serif" font-weight="bold" font-size="14.00">Message HistoryA</text>
<polygon fill="none" stroke="black" points="6373,-147 6373,-168 6691,-168 6691,-147 6373,-147"/>
<text text-anchor="start" x="6376" y="-154.8" font-family="Times New Roman,serif" font-weight="bold" font-size="14.00">EAJava_ArrayList_MessageContext_ messageList</text>
<polygon fill="none" stroke="black" points="6373,-126 6373,-147 6691,-147 6691,-126 6373,-126"/>
<text text-anchor="start" x="6464" y="-133.8" font-family="Times New Roman,serif" font-weight="bold" font-size="14.00">EAJava_String owner</text>
<polygon fill="none" stroke="black" points="6373,-105 6373,-126 6691,-126 6691,-105 6373,-105"/>
<text text-anchor="start" x="6473" y="-112.8" font-family="Times New Roman,serif" font-weight="bold" font-size="14.00">MessageHistoryA()</text>
<polygon fill="none" stroke="black" points="6372,-104 6372,-190 6692,-190 6692,-104 6372,-104"/>
</g>
<!-- EAID_A4B1B1D7_EE88_4c26_8BDF_7D8D447E44BF -->
<g id="node17" class="node"><title>EAID_A4B1B1D7_EE88_4c26_8BDF_7D8D447E44BF</title>
<polygon fill="none" stroke="black" points="5935,-199 5935,-220 6337,-220 6337,-199 5935,-199"/>
<text text-anchor="start" x="6122" y="-206.8" font-family="Times New Roman,serif" font-weight="bold" font-size="14.00">Post</text>
<polygon fill="none" stroke="black" points="5935,-178 5935,-199 6337,-199 6337,-178 5935,-178"/>
<text text-anchor="start" x="5999.5" y="-185.8" font-family="Times New Roman,serif" font-weight="bold" font-size="14.00">EAJava_ArrayList_Comment_ commentList</text>
<polygon fill="none" stroke="black" points="5935,-157 5935,-178 6337,-178 6337,-157 5935,-157"/>
<text text-anchor="start" x="6078" y="-164.8" font-family="Times New Roman,serif" font-weight="bold" font-size="14.00">EAJava_Date date</text>
<polygon fill="none" stroke="black" points="5935,-136 5935,-157 6337,-157 6337,-136 5935,-136"/>
<text text-anchor="start" x="6074" y="-143.8" font-family="Times New Roman,serif" font-weight="bold" font-size="14.00">EAJava_String post</text>
<polygon fill="none" stroke="black" points="5935,-115 5935,-136 6337,-136 6337,-115 5935,-115"/>
<text text-anchor="start" x="6068" y="-122.8" font-family="Times New Roman,serif" font-weight="bold" font-size="14.00">EAJava_String poster</text>
<polygon fill="none" stroke="black" points="5935,-94 5935,-115 6337,-115 6337,-94 5935,-94"/>
<text text-anchor="start" x="5938" y="-101.8" font-family="Times New Roman,serif" font-weight="bold" font-size="14.00">EAID_8DF68978_C18A_4f7e_BE0E_3EA801178B34 undefined</text>
<polygon fill="none" stroke="black" points="5935,-73 5935,-94 6337,-94 6337,-73 5935,-73"/>
<text text-anchor="start" x="6117.5" y="-80.8" font-family="Times New Roman,serif" font-weight="bold" font-size="14.00">Post()</text>
<polygon fill="none" stroke="black" points="5934,-72.5 5934,-221.5 6338,-221.5 6338,-72.5 5934,-72.5"/>
</g>
<!-- EAID_8DF68978_C18A_4f7e_BE0E_3EA801178B34 -->
<g id="node18" class="node"><title>EAID_8DF68978_C18A_4f7e_BE0E_3EA801178B34</title>
<polygon fill="none" stroke="black" points="5682,-199 5682,-220 5899,-220 5899,-199 5682,-199"/>
<text text-anchor="start" x="5734" y="-206.8" font-family="Times New Roman,serif" font-weight="bold" font-size="14.00">Subforum (Group)</text>
<polygon fill="none" stroke="black" points="5682,-178 5682,-199 5899,-199 5899,-178 5682,-178"/>
<text text-anchor="start" x="5706" y="-185.8" font-family="Times New Roman,serif" font-weight="bold" font-size="14.00">EAJava_Date creationDate</text>
<polygon fill="none" stroke="black" points="5682,-157 5682,-178 5899,-178 5899,-157 5682,-157"/>
<text text-anchor="start" x="5707.5" y="-164.8" font-family="Times New Roman,serif" font-weight="bold" font-size="14.00">EAJava_String description</text>
<polygon fill="none" stroke="black" points="5682,-136 5682,-157 5899,-157 5899,-136 5682,-136"/>
<text text-anchor="start" x="5722.5" y="-143.8" font-family="Times New Roman,serif" font-weight="bold" font-size="14.00">EAJava_String owner</text>
<polygon fill="none" stroke="black" points="5682,-115 5682,-136 5899,-136 5899,-115 5682,-115"/>
<text text-anchor="start" x="5685" y="-122.8" font-family="Times New Roman,serif" font-weight="bold" font-size="14.00">EAJava_ArrayList_Post_ postList</text>
<polygon fill="none" stroke="black" points="5682,-94 5682,-115 5899,-115 5899,-94 5682,-94"/>
<text text-anchor="start" x="5726.5" y="-101.8" font-family="Times New Roman,serif" font-weight="bold" font-size="14.00">EAJava_String topic</text>
<polygon fill="none" stroke="black" points="5682,-73 5682,-94 5899,-94 5899,-73 5682,-73"/>
<text text-anchor="start" x="5736" y="-80.8" font-family="Times New Roman,serif" font-weight="bold" font-size="14.00">SubforumGroup()</text>
<polygon fill="none" stroke="black" points="5680.5,-72.5 5680.5,-221.5 5899.5,-221.5 5899.5,-72.5 5680.5,-72.5"/>
</g>
<!-- EAID_58244DF0_D484_4a3e_A46A_5D9533007A68 -->
<g id="node19" class="node"><title>EAID_58244DF0_D484_4a3e_A46A_5D9533007A68</title>
<polygon fill="none" stroke="black" points="5343,-252 5343,-273 5645,-273 5645,-252 5343,-252"/>
<text text-anchor="start" x="5447" y="-259.8" font-family="Times New Roman,serif" font-weight="bold" font-size="14.00">User (Member)</text>
<polygon fill="none" stroke="black" points="5343,-231 5343,-252 5645,-252 5645,-231 5343,-231"/>
<text text-anchor="start" x="5445" y="-238.8" font-family="Times New Roman,serif" font-weight="bold" font-size="14.00">EAJava_int age</text>
<polygon fill="none" stroke="black" points="5343,-210 5343,-231 5645,-231 5645,-210 5343,-210"/>
<text text-anchor="start" x="5376.5" y="-217.8" font-family="Times New Roman,serif" font-weight="bold" font-size="14.00">EAJava_ArrayList_String_ articleList</text>
<polygon fill="none" stroke="black" points="5343,-189 5343,-210 5645,-210 5645,-189 5343,-189"/>
<text text-anchor="start" x="5361.5" y="-196.8" font-family="Times New Roman,serif" font-weight="bold" font-size="14.00">EAJava_ArrayList_String_ co_authourList</text>
<polygon fill="none" stroke="black" points="5343,-168 5343,-189 5645,-189 5645,-168 5343,-168"/>
<text text-anchor="start" x="5422.5" y="-175.8" font-family="Times New Roman,serif" font-weight="bold" font-size="14.00">EAJava_String contact</text>
<polygon fill="none" stroke="black" points="5343,-147 5343,-168 5645,-168 5645,-147 5343,-147"/>
<text text-anchor="start" x="5428.5" y="-154.8" font-family="Times New Roman,serif" font-weight="bold" font-size="14.00">EAJava_String email</text>
<polygon fill="none" stroke="black" points="5343,-126 5343,-147 5645,-147 5645,-126 5343,-126"/>
<text text-anchor="start" x="5424" y="-133.8" font-family="Times New Roman,serif" font-weight="bold" font-size="14.00">EAJava_String gender</text>
<polygon fill="none" stroke="black" points="5343,-105 5343,-126 5645,-126 5645,-105 5343,-105"/>
<text text-anchor="start" x="5428.5" y="-112.8" font-family="Times New Roman,serif" font-weight="bold" font-size="14.00">EAJava_String name</text>
<polygon fill="none" stroke="black" points="5343,-84 5343,-105 5645,-105 5645,-84 5343,-84"/>
<text text-anchor="start" x="5412.5" y="-91.8" font-family="Times New Roman,serif" font-weight="bold" font-size="14.00">EAJava_String nationality</text>
<polygon fill="none" stroke="black" points="5343,-63 5343,-84 5645,-84 5645,-63 5343,-63"/>
<text text-anchor="start" x="5346" y="-70.8" font-family="Times New Roman,serif" font-weight="bold" font-size="14.00">EAJava_ArrayList_String_ researchInterestList</text>
<polygon fill="none" stroke="black" points="5343,-42 5343,-63 5645,-63 5645,-42 5343,-42"/>
<text text-anchor="start" x="5427.5" y="-49.8" font-family="Times New Roman,serif" font-weight="bold" font-size="14.00">EAJava_File Resume</text>
<polygon fill="none" stroke="black" points="5343,-21 5343,-42 5645,-42 5645,-21 5343,-21"/>
<text text-anchor="start" x="5449" y="-28.8" font-family="Times New Roman,serif" font-weight="bold" font-size="14.00">UserMember()</text>
<polygon fill="none" stroke="black" points="5342,-20 5342,-274 5646,-274 5646,-20 5342,-20"/>
</g>
<!-- EAID_6B95A9AD_3C85_486b_8C1C_D09B3182CABE -->
<g id="node20" class="node"><title>EAID_6B95A9AD_3C85_486b_8C1C_D09B3182CABE</title>
<polygon fill="none" stroke="black" points="5157,-147 5157,-168 5307,-168 5307,-147 5157,-147"/>
<text text-anchor="start" x="5161" y="-154.8" font-family="Times New Roman,serif" font-weight="bold" font-size="14.00">GoDaddy Web Hosting</text>
<polygon fill="none" stroke="black" points="5157,-126 5157,-147 5307,-147 5307,-126 5157,-126"/>
<text text-anchor="start" x="5160" y="-133.8" font-family="Times New Roman,serif" font-weight="bold" font-size="14.00">GoDaddyWebHosting()</text>
<polygon fill="none" stroke="black" points="5156,-125 5156,-169 5308,-169 5308,-125 5156,-125"/>
</g>
<!-- EAID_9F914598_34F7_45a7_AEAE_B9453439C597 -->
<g id="node21" class="node"><title>EAID_9F914598_34F7_45a7_AEAE_B9453439C597</title>
<polygon fill="none" stroke="black" points="4751,-147 4751,-168 5121,-168 5121,-147 4751,-147"/>
<text text-anchor="start" x="4754" y="-154.8" font-family="Times New Roman,serif" font-weight="bold" font-size="14.00">PubMed Database Server (External Hardware Component)</text>
<polygon fill="none" stroke="black" points="4751,-126 4751,-147 5121,-147 5121,-126 4751,-126"/>
<text text-anchor="start" x="4763.5" y="-133.8" font-family="Times New Roman,serif" font-weight="bold" font-size="14.00">PubMedDatabaseServerExternalHardwareComponent()</text>
<polygon fill="none" stroke="black" points="4750,-125 4750,-169 5122,-169 5122,-125 4750,-125"/>
</g>
<!-- EAID_9690410B_5456_4112_BEC1_FC99F0C0B46D -->
<g id="node22" class="node"><title>EAID_9690410B_5456_4112_BEC1_FC99F0C0B46D</title>
<polygon fill="none" stroke="black" points="4573,-147 4573,-168 4715,-168 4715,-147 4573,-147"/>
<text text-anchor="start" x="4576" y="-154.8" font-family="Times New Roman,serif" font-weight="bold" font-size="14.00">Terminal (PC/Laptop)</text>
<polygon fill="none" stroke="black" points="4573,-126 4573,-147 4715,-147 4715,-126 4573,-126"/>
<text text-anchor="start" x="4579.5" y="-133.8" font-family="Times New Roman,serif" font-weight="bold" font-size="14.00">TerminalPCLaptop()</text>
<polygon fill="none" stroke="black" points="4572,-125 4572,-169 4716,-169 4716,-125 4572,-125"/>
</g>
<!-- EAID_852FEE0F_7ACB_4b33_81B3_BF94358C726B -->
<g id="node23" class="node"><title>EAID_852FEE0F_7ACB_4b33_81B3_BF94358C726B</title>
<polygon fill="none" stroke="black" points="4325,-147 4325,-168 4537,-168 4537,-147 4325,-147"/>
<text text-anchor="start" x="4328.5" y="-154.8" font-family="Times New Roman,serif" font-weight="bold" font-size="14.00">Advanced Search SubComponent</text>
<polygon fill="none" stroke="black" points="4325,-126 4325,-147 4537,-147 4537,-126 4325,-126"/>
<text text-anchor="start" x="4328" y="-133.8" font-family="Times New Roman,serif" font-weight="bold" font-size="14.00">AdvancedSearchSubComponent()</text>
<polygon fill="none" stroke="black" points="4324,-125 4324,-169 4538,-169 4538,-125 4324,-125"/>
</g>
<!-- EAID_40E8CEC8_B2A7_4ccb_A4DD_FE69017607B2 -->
<g id="node24" class="node"><title>EAID_40E8CEC8_B2A7_4ccb_A4DD_FE69017607B2</title>
<polygon fill="none" stroke="black" points="4101,-147 4101,-168 4289,-168 4289,-147 4101,-147"/>
<text text-anchor="start" x="4104.5" y="-154.8" font-family="Times New Roman,serif" font-weight="bold" font-size="14.00">Create Subforum Component</text>
<polygon fill="none" stroke="black" points="4101,-126 4101,-147 4289,-147 4289,-126 4101,-126"/>
<text text-anchor="start" x="4104" y="-133.8" font-family="Times New Roman,serif" font-weight="bold" font-size="14.00">CreateSubforumComponent()</text>
<polygon fill="none" stroke="black" points="4100,-125 4100,-169 4290,-169 4290,-125 4100,-125"/>
</g>
<!-- EAID_20E131DF_CE70_4878_B059_54958A5C97F5 -->
<g id="node25" class="node"><title>EAID_20E131DF_CE70_4878_B059_54958A5C97F5</title>
<polygon fill="none" stroke="black" points="3881,-147 3881,-168 4065,-168 4065,-147 3881,-147"/>
<text text-anchor="start" x="3884" y="-154.8" font-family="Times New Roman,serif" font-weight="bold" font-size="14.00">DBMS Component (MySQL)</text>
<polygon fill="none" stroke="black" points="3881,-126 3881,-147 4065,-147 4065,-126 3881,-126"/>
<text text-anchor="start" x="3887.5" y="-133.8" font-family="Times New Roman,serif" font-weight="bold" font-size="14.00">DBMSComponentMySQL()</text>
<polygon fill="none" stroke="black" points="3880,-125 3880,-169 4066,-169 4066,-125 3880,-125"/>
</g>
<!-- EAID_409B30C4_66BE_4247_83AC_F00B9C58B310 -->
<g id="node26" class="node"><title>EAID_409B30C4_66BE_4247_83AC_F00B9C58B310</title>
<polygon fill="none" stroke="black" points="3364,-189 3364,-210 3845,-210 3845,-189 3364,-189"/>
<text text-anchor="start" x="3483.5" y="-196.8" font-family="Times New Roman,serif" font-weight="bold" font-size="14.00">Discussion Board Component (Php BB)</text>
<polygon fill="none" stroke="black" points="3364,-168 3364,-189 3845,-189 3845,-168 3364,-168"/>
<text text-anchor="start" x="3367" y="-175.8" font-family="Times New Roman,serif" font-weight="bold" font-size="14.00">EAJava_Send___Receive_Message_SubComponent subComponentInstance1</text>
<polygon fill="none" stroke="black" points="3364,-147 3364,-168 3845,-168 3845,-147 3364,-147"/>
<text text-anchor="start" x="3376" y="-154.8" font-family="Times New Roman,serif" font-weight="bold" font-size="14.00">EAJava_View_Message_History_SubComponent subComponentInstance2</text>
<polygon fill="none" stroke="black" points="3364,-126 3364,-147 3845,-147 3845,-126 3364,-126"/>
<text text-anchor="start" x="3394" y="-133.8" font-family="Times New Roman,serif" font-weight="bold" font-size="14.00">EAJava_Post___Comment_SubComponent subComponentInstance3</text>
<polygon fill="none" stroke="black" points="3364,-105 3364,-126 3845,-126 3845,-105 3364,-105"/>
<text text-anchor="start" x="3403" y="-112.8" font-family="Times New Roman,serif" font-weight="bold" font-size="14.00">EAJava_Create_SubForum_Component subComponentInstance4</text>
<polygon fill="none" stroke="black" points="3364,-84 3364,-105 3845,-105 3845,-84 3364,-84"/>
<text text-anchor="start" x="3491" y="-91.8" font-family="Times New Roman,serif" font-weight="bold" font-size="14.00">DiscussionBoardComponentPhpBB()</text>
<polygon fill="none" stroke="black" points="3362.5,-83 3362.5,-211 3845.5,-211 3845.5,-83 3362.5,-83"/>
</g>
<!-- EAID_B234973F_1FF8_4323_AAD9_82CB7CC57915 -->
<g id="node27" class="node"><title>EAID_B234973F_1FF8_4323_AAD9_82CB7CC57915</title>
<polygon fill="none" stroke="black" points="3087,-147 3087,-168 3327,-168 3327,-147 3087,-147"/>
<text text-anchor="start" x="3090" y="-154.8" font-family="Times New Roman,serif" font-weight="bold" font-size="14.00">Fetch / Add / Update Data Component</text>
<polygon fill="none" stroke="black" points="3087,-126 3087,-147 3327,-147 3327,-126 3087,-126"/>
<text text-anchor="start" x="3100.5" y="-133.8" font-family="Times New Roman,serif" font-weight="bold" font-size="14.00">FetchAddUpdateDataComponent()</text>
<polygon fill="none" stroke="black" points="3086,-125 3086,-169 3328,-169 3328,-125 3086,-125"/>
</g>
<!-- EAID_FEECBFA2_2FF2_40a4_8C23_F376682AA42C -->
<g id="node28" class="node"><title>EAID_FEECBFA2_2FF2_40a4_8C23_F376682AA42C</title>
<polygon fill="none" stroke="black" points="2849,-147 2849,-168 3051,-168 3051,-147 2849,-147"/>
<text text-anchor="start" x="2852" y="-154.8" font-family="Times New Roman,serif" font-weight="bold" font-size="14.00">Post / Comment SubComponent</text>
<polygon fill="none" stroke="black" points="2849,-126 2849,-147 3051,-147 3051,-126 2849,-126"/>
<text text-anchor="start" x="2855" y="-133.8" font-family="Times New Roman,serif" font-weight="bold" font-size="14.00">PostCommentSubComponent()</text>
<polygon fill="none" stroke="black" points="2848,-125 2848,-169 3052,-169 3052,-125 2848,-125"/>
</g>
<!-- EAID_294FE017_F8FA_4387_946C_EF70A8A283F5 -->
<g id="node29" class="node"><title>EAID_294FE017_F8FA_4387_946C_EF70A8A283F5</title>
<polygon fill="none" stroke="black" points="2554,-157 2554,-178 2813,-178 2813,-157 2554,-157"/>
<text text-anchor="start" x="2557" y="-164.8" font-family="Times New Roman,serif" font-weight="bold" font-size="14.00">PubMed Database (External Component)</text>
<polygon fill="none" stroke="black" points="2554,-136 2554,-157 2813,-157 2813,-136 2554,-136"/>
<text text-anchor="start" x="2562.5" y="-143.8" font-family="Times New Roman,serif" font-weight="bold" font-size="14.00">PubMedDatabaseExternalComponent()</text>
<polygon fill="none" stroke="black" points="2554,-115 2554,-136 2813,-136 2813,-115 2554,-115"/>
<text text-anchor="start" x="2583" y="-122.8" font-family="Times New Roman,serif" font-weight="bold" font-size="14.00">Validateusernameandpassword()</text>
<polygon fill="none" stroke="black" points="2552.5,-114.5 2552.5,-179.5 2813.5,-179.5 2813.5,-114.5 2552.5,-114.5"/>
</g>
<!-- EAID_726FB0FA_F470_4627_8155_F4E59DAD1C5E -->
<g id="node30" class="node"><title>EAID_726FB0FA_F470_4627_8155_F4E59DAD1C5E</title>
<polygon fill="none" stroke="black" points="2291,-147 2291,-168 2517,-168 2517,-147 2291,-147"/>
<text text-anchor="start" x="2294" y="-154.8" font-family="Times New Roman,serif" font-weight="bold" font-size="14.00">Search By Keyword SubComponent</text>
<polygon fill="none" stroke="black" points="2291,-126 2291,-147 2517,-147 2517,-126 2291,-126"/>
<text text-anchor="start" x="2295" y="-133.8" font-family="Times New Roman,serif" font-weight="bold" font-size="14.00">SearchByKeywordSubComponent()</text>
<polygon fill="none" stroke="black" points="2290,-125 2290,-169 2518,-169 2518,-125 2290,-125"/>
</g>
<!-- EAID_0F09D2B4_0E92_481a_B776_4337D337897C -->
<g id="node31" class="node"><title>EAID_0F09D2B4_0E92_481a_B776_4337D337897C</title>
<polygon fill="none" stroke="black" points="2048,-157 2048,-178 2255,-178 2255,-157 2048,-157"/>
<text text-anchor="start" x="2051" y="-164.8" font-family="Times New Roman,serif" font-weight="bold" font-size="14.00">Search By Name SubComponent</text>
<polygon fill="none" stroke="black" points="2048,-136 2048,-157 2255,-157 2255,-136 2048,-136"/>
<text text-anchor="start" x="2052" y="-143.8" font-family="Times New Roman,serif" font-weight="bold" font-size="14.00">SearchByNameSubComponent()</text>
<polygon fill="none" stroke="black" points="2048,-115 2048,-136 2255,-136 2255,-115 2048,-115"/>
<text text-anchor="start" x="2094" y="-122.8" font-family="Times New Roman,serif" font-weight="bold" font-size="14.00">Searchnamepage()</text>
<polygon fill="none" stroke="black" points="2046.5,-114.5 2046.5,-179.5 2255.5,-179.5 2255.5,-114.5 2046.5,-114.5"/>
</g>
<!-- EAID_DB1FF795_037F_40ed_8B25_EA9E319F8F04 -->
<g id="node32" class="node"><title>EAID_DB1FF795_037F_40ed_8B25_EA9E319F8F04</title>
<polygon fill="none" stroke="black" points="1563,-189 1563,-210 2011,-210 2011,-189 1563,-189"/>
<text text-anchor="start" x="1728" y="-196.8" font-family="Times New Roman,serif" font-weight="bold" font-size="14.00">Search Component</text>
<polygon fill="none" stroke="black" points="1563,-168 1563,-189 2011,-189 2011,-168 1563,-168"/>
<text text-anchor="start" x="1566" y="-175.8" font-family="Times New Roman,serif" font-weight="bold" font-size="14.00">EAJava_Search_By_Keyword_SubComponent subComponentInstance1</text>
<polygon fill="none" stroke="black" points="1563,-147 1563,-168 2011,-168 2011,-147 1563,-147"/>
<text text-anchor="start" x="1575.5" y="-154.8" font-family="Times New Roman,serif" font-weight="bold" font-size="14.00">EAJava_Search_By_Name_SubComponent subComponentInstance2</text>
<polygon fill="none" stroke="black" points="1563,-126 1563,-147 2011,-147 2011,-126 1563,-126"/>
<text text-anchor="start" x="1579.5" y="-133.8" font-family="Times New Roman,serif" font-weight="bold" font-size="14.00">EAJava_Advance_Search_SubComponent subComponentInstance3</text>
<polygon fill="none" stroke="black" points="1563,-105 1563,-126 2011,-126 2011,-105 1563,-105"/>
<text text-anchor="start" x="1725.5" y="-112.8" font-family="Times New Roman,serif" font-weight="bold" font-size="14.00">SearchComponent()</text>
<polygon fill="none" stroke="black" points="1563,-84 1563,-105 2011,-105 2011,-84 1563,-84"/>
<text text-anchor="start" x="1746" y="-91.8" font-family="Times New Roman,serif" font-weight="bold" font-size="14.00">Searchpage()</text>
<polygon fill="none" stroke="black" points="1562,-83 1562,-211 2012,-211 2012,-83 1562,-83"/>
</g>
<!-- EAID_A9FCFFDD_4833_481c_A730_15C2A3F462DD -->
<g id="node33" class="node"><title>EAID_A9FCFFDD_4833_481c_A730_15C2A3F462DD</title>
<polygon fill="none" stroke="black" points="1276,-168 1276,-189 1527,-189 1527,-168 1276,-168"/>
<text text-anchor="start" x="1279" y="-175.8" font-family="Times New Roman,serif" font-weight="bold" font-size="14.00">Send / Receive Message SubComponent</text>
<polygon fill="none" stroke="black" points="1276,-147 1276,-168 1527,-168 1527,-147 1276,-147"/>
<text text-anchor="start" x="1284" y="-154.8" font-family="Times New Roman,serif" font-weight="bold" font-size="14.00">SendReceiveMessageSubComponent()</text>
<polygon fill="none" stroke="black" points="1276,-126 1276,-147 1527,-147 1527,-126 1276,-126"/>
<text text-anchor="start" x="1311" y="-133.8" font-family="Times New Roman,serif" font-weight="bold" font-size="14.00">Receivrprivatemessagepage()</text>
<polygon fill="none" stroke="black" points="1276,-105 1276,-126 1527,-126 1527,-105 1276,-105"/>
<text text-anchor="start" x="1345.5" y="-112.8" font-family="Times New Roman,serif" font-weight="bold" font-size="14.00">Sendprivatepage()</text>
<polygon fill="none" stroke="black" points="1274.5,-104 1274.5,-190 1527.5,-190 1527.5,-104 1274.5,-104"/>
</g>
<!-- EAID_7FA33750_EBDB_47fb_8B0A_5821AEBA12A2 -->
<g id="node34" class="node"><title>EAID_7FA33750_EBDB_47fb_8B0A_5821AEBA12A2</title>
<polygon fill="none" stroke="black" points="1089,-157 1089,-178 1239,-178 1239,-157 1089,-157"/>
<text text-anchor="start" x="1093" y="-164.8" font-family="Times New Roman,serif" font-weight="bold" font-size="14.00">Upload CV Component</text>
<polygon fill="none" stroke="black" points="1089,-136 1089,-157 1239,-157 1239,-136 1089,-136"/>
<text text-anchor="start" x="1092" y="-143.8" font-family="Times New Roman,serif" font-weight="bold" font-size="14.00">UploadCVComponent()</text>
<polygon fill="none" stroke="black" points="1089,-115 1089,-136 1239,-136 1239,-115 1089,-115"/>
<text text-anchor="start" x="1116" y="-122.8" font-family="Times New Roman,serif" font-weight="bold" font-size="14.00">Uploadcvpage()</text>
<polygon fill="none" stroke="black" points="1088,-114.5 1088,-179.5 1240,-179.5 1240,-114.5 1088,-114.5"/>
</g>
<!-- EAID_C6E4E160_86BE_449d_B4AF_01E40632458D -->
<g id="node35" class="node"><title>EAID_C6E4E160_86BE_449d_B4AF_01E40632458D</title>
<polygon fill="none" stroke="black" points="769,-157 769,-178 1053,-178 1053,-157 769,-157"/>
<text text-anchor="start" x="832.5" y="-164.8" font-family="Times New Roman,serif" font-weight="bold" font-size="14.00">View Articles Component</text>
<polygon fill="none" stroke="black" points="769,-136 769,-157 1053,-157 1053,-136 769,-136"/>
<text text-anchor="start" x="832" y="-143.8" font-family="Times New Roman,serif" font-weight="bold" font-size="14.00">ViewArticlesComponent()</text>
<polygon fill="none" stroke="black" points="769,-115 769,-136 1053,-136 1053,-115 769,-115"/>
<text text-anchor="start" x="772" y="-122.8" font-family="Times New Roman,serif" font-weight="bold" font-size="14.00">ChooseoneofarticlesandClicktheViewbutton()</text>
<polygon fill="none" stroke="black" points="768,-114.5 768,-179.5 1054,-179.5 1054,-114.5 768,-114.5"/>
</g>
<!-- EAID_49F1B580_1C66_429c_8DDF_06A734FB7D05 -->
<g id="node36" class="node"><title>EAID_49F1B580_1C66_429c_8DDF_06A734FB7D05</title>
<polygon fill="none" stroke="black" points="458,-157 458,-178 733,-178 733,-157 458,-157"/>
<text text-anchor="start" x="475" y="-164.8" font-family="Times New Roman,serif" font-weight="bold" font-size="14.00">View Collaboration Graph Component </text>
<polygon fill="none" stroke="black" points="458,-136 458,-157 733,-157 733,-136 458,-136"/>
<text text-anchor="start" x="478" y="-143.8" font-family="Times New Roman,serif" font-weight="bold" font-size="14.00">ViewCollaborationGraphComponent()</text>
<polygon fill="none" stroke="black" points="458,-115 458,-136 733,-136 733,-115 458,-115"/>
<text text-anchor="start" x="461" y="-122.8" font-family="Times New Roman,serif" font-weight="bold" font-size="14.00">ChooseoneofgraphandClicktheViewbutton()</text>
<polygon fill="none" stroke="black" points="456.5,-114.5 456.5,-179.5 733.5,-179.5 733.5,-114.5 456.5,-114.5"/>
</g>
<!-- EAID_E8116C53_3131_4a49_B71C_D90D46CC366F -->
<g id="node37" class="node"><title>EAID_E8116C53_3131_4a49_B71C_D90D46CC366F</title>
<polygon fill="none" stroke="black" points="131,-168 131,-189 422,-189 422,-168 131,-168"/>
<text text-anchor="start" x="157" y="-175.8" font-family="Times New Roman,serif" font-weight="bold" font-size="14.00">View Message History SubComponent </text>
<polygon fill="none" stroke="black" points="131,-147 131,-168 422,-168 422,-147 131,-147"/>
<text text-anchor="start" x="160" y="-154.8" font-family="Times New Roman,serif" font-weight="bold" font-size="14.00">ViewMessageHistorySubComponent()</text>
<polygon fill="none" stroke="black" points="131,-126 131,-147 422,-147 422,-126 131,-126"/>
<text text-anchor="start" x="148.5" y="-133.8" font-family="Times New Roman,serif" font-weight="bold" font-size="14.00">Composethemessagetheuserwantstopost()</text>
<polygon fill="none" stroke="black" points="131,-105 131,-126 422,-126 422,-105 131,-105"/>
<text text-anchor="start" x="134" y="-112.8" font-family="Times New Roman,serif" font-weight="bold" font-size="14.00">ChooseoneofmessageandClicktheViewbutton()</text>
<polygon fill="none" stroke="black" points="129.5,-104 129.5,-190 422.5,-190 422.5,-104 129.5,-104"/>
</g>
</g>
</svg>
