<?xml version="1.0" encoding="UTF-8" standalone="no"?>
<!DOCTYPE svg PUBLIC "-//W3C//DTD SVG 1.1//EN"
 "http://www.w3.org/Graphics/SVG/1.1/DTD/svg11.dtd">
<!-- Generated by graphviz version 2.38.0 (20140413.2041)
 -->
<!-- Title: g Pages: 1 -->
<svg width="2020pt" height="308pt"
 viewBox="0.00 0.00 2020.00 307.87" xmlns="http://www.w3.org/2000/svg" xmlns:xlink="http://www.w3.org/1999/xlink">
<g id="graph0" class="graph" transform="scale(1 1) rotate(0) translate(4 303.866)">
<title>g</title>
<polygon fill="white" stroke="none" points="-4,4 -4,-303.866 2016,-303.866 2016,4 -4,4"/>
<!-- EAID_D954B0E4_C96B_4ce2_B8E6_0A9F48480F0C -->
<g id="node1" class="node"><title>EAID_D954B0E4_C96B_4ce2_B8E6_0A9F48480F0C</title>
<image xlink:href="img/actor1.png" width="61px" height="90px" preserveAspectRatio="xMinYMin meet" x="10.5" y="-174.366"/>
<text text-anchor="start" x="19" y="-61.1658" font-family="Times New Roman,serif" font-size="24.00">User</text>
</g>
<!-- EAID_5DB3A13C_5BF3_46d0_A37A_94E61B5F9B84 -->
<g id="node2" class="node"><title>EAID_5DB3A13C_5BF3_46d0_A37A_94E61B5F9B84</title>
<image xlink:href="img/boundary3.png" width="115px" height="67px" preserveAspectRatio="xMinYMin meet" x="208.5" y="-162.366"/>
<text text-anchor="start" x="127" y="-72.1658" font-family="Times New Roman,serif" font-size="24.00">Buyer select payment method</text>
</g>
<!-- EAID_D954B0E4_C96B_4ce2_B8E6_0A9F48480F0C&#45;&gt;EAID_5DB3A13C_5BF3_46d0_A37A_94E61B5F9B84 -->
<g id="edge1" class="edge"><title>EAID_D954B0E4_C96B_4ce2_B8E6_0A9F48480F0C&#45;&gt;EAID_5DB3A13C_5BF3_46d0_A37A_94E61B5F9B84</title>
<path fill="none" stroke="black" d="M81.1998,-114.366C89.0299,-114.366 97.6828,-114.366 106.841,-114.366"/>
<polygon fill="black" stroke="black" points="106.963,-117.866 116.963,-114.366 106.963,-110.866 106.963,-117.866"/>
</g>
<!-- EAID_BDCFE96F_AEE4_4c54_9FA0_CB755469C484 -->
<g id="node3" class="node"><title>EAID_BDCFE96F_AEE4_4c54_9FA0_CB755469C484</title>
<image xlink:href="img/boundary3.png" width="102px" height="67px" preserveAspectRatio="xMinYMin meet" x="1900" y="-118.366"/>
<text text-anchor="start" x="1900" y="-28.1658" font-family="Times New Roman,serif" font-size="24.00">Homepage</text>
</g>
<!-- EAID_D954B0E4_C96B_4ce2_B8E6_0A9F48480F0C&#45;&gt;EAID_BDCFE96F_AEE4_4c54_9FA0_CB755469C484 -->
<g id="edge2" class="edge"><title>EAID_D954B0E4_C96B_4ce2_B8E6_0A9F48480F0C&#45;&gt;EAID_BDCFE96F_AEE4_4c54_9FA0_CB755469C484</title>
<path fill="none" stroke="black" d="M81.3203,-72.2699C92.0088,-63.4622 104.187,-55.345 117,-50.3658 366.984,46.7765 451.805,-27.3658 720,-27.3658 720,-27.3658 720,-27.3658 1250,-27.3658 1518.58,-27.3658 1587.98,-9.36314 1854,-46.3658 1862.53,-47.5524 1871.4,-49.1947 1880.15,-51.0686"/>
<polygon fill="black" stroke="black" points="1879.43,-54.4942 1889.96,-53.2708 1880.97,-47.6643 1879.43,-54.4942"/>
</g>
<!-- EAID_1B0A504F_C530_4123_894E_0696D4CDF441 -->
<g id="node4" class="node"><title>EAID_1B0A504F_C530_4123_894E_0696D4CDF441</title>
<image xlink:href="img/boundary3.png" width="115px" height="67px" preserveAspectRatio="xMinYMin meet" x="663.5" y="-293.366"/>
<text text-anchor="start" x="649" y="-203.166" font-family="Times New Roman,serif" font-size="24.00">Finish payment</text>
</g>
<!-- EAID_D954B0E4_C96B_4ce2_B8E6_0A9F48480F0C&#45;&gt;EAID_1B0A504F_C530_4123_894E_0696D4CDF441 -->
<g id="edge3" class="edge"><title>EAID_D954B0E4_C96B_4ce2_B8E6_0A9F48480F0C&#45;&gt;EAID_1B0A504F_C530_4123_894E_0696D4CDF441</title>
<path fill="none" stroke="black" d="M81.2815,-154.818C92.0568,-163.63 104.284,-171.932 117,-177.366 286.845,-249.946 506.871,-255.006 628.686,-250.987"/>
<polygon fill="black" stroke="black" points="628.855,-254.484 638.723,-250.628 628.604,-247.488 628.855,-254.484"/>
</g>
<!-- EAID_48EE1573_5241_41ea_A938_8DE60710502A -->
<g id="node5" class="node"><title>EAID_48EE1573_5241_41ea_A938_8DE60710502A</title>
<image xlink:href="img/control1.png" width="106px" height="75px" preserveAspectRatio="xMinYMin meet" x="668" y="-166.366"/>
<text text-anchor="start" x="461" y="-68.1658" font-family="Times New Roman,serif" font-size="24.00">Redirect to third party payment page with total amount</text>
</g>
<!-- EAID_5DB3A13C_5BF3_46d0_A37A_94E61B5F9B84&#45;&gt;EAID_48EE1573_5241_41ea_A938_8DE60710502A -->
<g id="edge4" class="edge"><title>EAID_5DB3A13C_5BF3_46d0_A37A_94E61B5F9B84&#45;&gt;EAID_48EE1573_5241_41ea_A938_8DE60710502A</title>
<path fill="none" stroke="black" d="M415.016,-114.366C423.364,-114.366 431.875,-114.366 440.494,-114.366"/>
<polygon fill="black" stroke="black" points="440.659,-117.866 450.659,-114.366 440.659,-110.866 440.659,-117.866"/>
</g>
<!-- EAID_AD76117C_90A5_4aa6_8282_E29F22B4D77A -->
<g id="node6" class="node"><title>EAID_AD76117C_90A5_4aa6_8282_E29F22B4D77A</title>
<image xlink:href="img/control1.png" width="106px" height="75px" preserveAspectRatio="xMinYMin meet" x="1196" y="-166.366"/>
<text text-anchor="start" x="1037" y="-68.1658" font-family="Times New Roman,serif" font-size="24.00">Get receipt from third party payment method</text>
</g>
<!-- EAID_1B0A504F_C530_4123_894E_0696D4CDF441&#45;&gt;EAID_AD76117C_90A5_4aa6_8282_E29F22B4D77A -->
<g id="edge5" class="edge"><title>EAID_1B0A504F_C530_4123_894E_0696D4CDF441&#45;&gt;EAID_AD76117C_90A5_4aa6_8282_E29F22B4D77A</title>
<path fill="none" stroke="black" d="M803.037,-226.563C856.486,-214.044 928.001,-197.07 991,-181.366 999.533,-179.239 1008.22,-177.057 1016.99,-174.84"/>
<polygon fill="black" stroke="black" points="1018.1,-178.171 1026.93,-172.323 1016.38,-171.385 1018.1,-178.171"/>
</g>
<!-- EAID_48EE1573_5241_41ea_A938_8DE60710502A&#45;&gt;EAID_AD76117C_90A5_4aa6_8282_E29F22B4D77A -->
<g id="edge7" class="edge"><title>EAID_48EE1573_5241_41ea_A938_8DE60710502A&#45;&gt;EAID_AD76117C_90A5_4aa6_8282_E29F22B4D77A</title>
<path fill="none" stroke="black" d="M991.164,-114.366C999.609,-114.366 1008.05,-114.366 1016.44,-114.366"/>
<polygon fill="black" stroke="black" points="1016.66,-117.866 1026.66,-114.366 1016.66,-110.866 1016.66,-117.866"/>
</g>
<!-- EAID_D9531EA4_A8DF_4ceb_A665_F7682B063FE1 -->
<g id="node7" class="node"><title>EAID_D9531EA4_A8DF_4ceb_A665_F7682B063FE1</title>
<image xlink:href="img/control1.png" width="106px" height="75px" preserveAspectRatio="xMinYMin meet" x="1628" y="-166.366"/>
<text text-anchor="start" x="1517.5" y="-68.1658" font-family="Times New Roman,serif" font-size="24.00">clear cart item and generate orders</text>
</g>
<!-- EAID_AD76117C_90A5_4aa6_8282_E29F22B4D77A&#45;&gt;EAID_D9531EA4_A8DF_4ceb_A665_F7682B063FE1 -->
<g id="edge6" class="edge"><title>EAID_AD76117C_90A5_4aa6_8282_E29F22B4D77A&#45;&gt;EAID_D9531EA4_A8DF_4ceb_A665_F7682B063FE1</title>
<path fill="none" stroke="black" d="M1471.04,-114.366C1479.68,-114.366 1488.31,-114.366 1496.87,-114.366"/>
<polygon fill="black" stroke="black" points="1496.88,-117.866 1506.88,-114.366 1496.88,-110.866 1496.88,-117.866"/>
</g>
<!-- EAID_D9531EA4_A8DF_4ceb_A665_F7682B063FE1&#45;&gt;EAID_BDCFE96F_AEE4_4c54_9FA0_CB755469C484 -->
<g id="edge8" class="edge"><title>EAID_D9531EA4_A8DF_4ceb_A665_F7682B063FE1&#45;&gt;EAID_BDCFE96F_AEE4_4c54_9FA0_CB755469C484</title>
<path fill="none" stroke="black" d="M1854.2,-86.0645C1863.01,-84.6217 1871.57,-83.2185 1879.72,-81.8825"/>
<polygon fill="black" stroke="black" points="1880.51,-85.2996 1889.82,-80.2284 1879.38,-78.3917 1880.51,-85.2996"/>
</g>
</g>
</svg>
