<?xml version="1.0" encoding="UTF-8" standalone="no"?>
<!DOCTYPE svg PUBLIC "-//W3C//DTD SVG 1.1//EN"
 "http://www.w3.org/Graphics/SVG/1.1/DTD/svg11.dtd">
<!-- Generated by graphviz version 2.38.0 (20140413.2041)
 -->
<!-- Title: g Pages: 1 -->
<svg width="2039pt" height="418pt"
 viewBox="0.00 0.00 2039.00 418.00" xmlns="http://www.w3.org/2000/svg" xmlns:xlink="http://www.w3.org/1999/xlink">
<g id="graph0" class="graph" transform="scale(1 1) rotate(0) translate(4 414)">
<title>g</title>
<polygon fill="white" stroke="none" points="-4,4 -4,-414 2035,-414 2035,4 -4,4"/>
<!-- EAID_CB127CE3_42CE_4256_AB53_1234483FA750 -->
<g id="node1" class="node"><title>EAID_CB127CE3_42CE_4256_AB53_1234483FA750</title>
<image xlink:href="img/actor1.png" width="61px" height="90px" preserveAspectRatio="xMinYMin meet" x="10.5" y="-200.5"/>
<text text-anchor="start" x="19" y="-87.3" font-family="Times New Roman,serif" font-size="24.00">User</text>
</g>
<!-- EAID_EE527DF5_DE13_4ea1_93DA_5A3D5C69A6E7 -->
<g id="node2" class="node"><title>EAID_EE527DF5_DE13_4ea1_93DA_5A3D5C69A6E7</title>
<image xlink:href="img/boundary3.png" width="115px" height="67px" preserveAspectRatio="xMinYMin meet" x="816.5" y="-403.5"/>
<text text-anchor="start" x="733.5" y="-313.3" font-family="Times New Roman,serif" font-size="24.00">role validation failed message</text>
</g>
<!-- EAID_CB127CE3_42CE_4256_AB53_1234483FA750&#45;&gt;EAID_EE527DF5_DE13_4ea1_93DA_5A3D5C69A6E7 -->
<g id="edge1" class="edge"><title>EAID_CB127CE3_42CE_4256_AB53_1234483FA750&#45;&gt;EAID_EE527DF5_DE13_4ea1_93DA_5A3D5C69A6E7</title>
<path fill="none" stroke="black" d="M76.2028,-206.646C87.2607,-221.986 100.893,-236.678 117,-246.5 299.167,-357.584 551.029,-372.056 712.866,-367.5"/>
<polygon fill="black" stroke="black" points="713.024,-370.997 722.911,-367.189 712.808,-364 713.024,-370.997"/>
</g>
<!-- EAID_64C02FEE_824C_4ac4_9941_8821B1847A61 -->
<g id="node3" class="node"><title>EAID_64C02FEE_824C_4ac4_9941_8821B1847A61</title>
<image xlink:href="img/boundary3.png" width="115px" height="67px" preserveAspectRatio="xMinYMin meet" x="1697.5" y="-102.5"/>
<text text-anchor="start" x="1636" y="-12.3" font-family="Times New Roman,serif" font-size="24.00">validation failed message</text>
</g>
<!-- EAID_CB127CE3_42CE_4256_AB53_1234483FA750&#45;&gt;EAID_64C02FEE_824C_4ac4_9941_8821B1847A61 -->
<g id="edge2" class="edge"><title>EAID_CB127CE3_42CE_4256_AB53_1234483FA750&#45;&gt;EAID_64C02FEE_824C_4ac4_9941_8821B1847A61</title>
<path fill="none" stroke="black" d="M81.1231,-103.104C91.9904,-94.8885 104.301,-87.2358 117,-82.5 294.081,-16.464 352.506,-57.5 541.5,-57.5 541.5,-57.5 541.5,-57.5 1196.5,-57.5 1339.43,-57.5 1502.96,-56.5018 1615.78,-55.657"/>
<polygon fill="black" stroke="black" points="1615.88,-59.1564 1625.85,-55.5809 1615.82,-52.1566 1615.88,-59.1564"/>
</g>
<!-- EAID_B5C06EE5_4007_44d1_A175_238AB3DB0792 -->
<g id="node4" class="node"><title>EAID_B5C06EE5_4007_44d1_A175_238AB3DB0792</title>
<image xlink:href="img/boundary3.png" width="115px" height="67px" preserveAspectRatio="xMinYMin meet" x="193.5" y="-231.5"/>
<text text-anchor="start" x="127" y="-141.3" font-family="Times New Roman,serif" font-size="24.00">&quot;Use Management&quot; button</text>
</g>
<!-- EAID_CB127CE3_42CE_4256_AB53_1234483FA750&#45;&gt;EAID_B5C06EE5_4007_44d1_A175_238AB3DB0792 -->
<g id="edge3" class="edge"><title>EAID_CB127CE3_42CE_4256_AB53_1234483FA750&#45;&gt;EAID_B5C06EE5_4007_44d1_A175_238AB3DB0792</title>
<path fill="none" stroke="black" d="M81.208,-148.689C89.0172,-150.3 97.623,-152.075 106.69,-153.944"/>
<polygon fill="black" stroke="black" points="106.192,-157.415 116.693,-156.007 107.606,-150.56 106.192,-157.415"/>
</g>
<!-- EAID_FC8421E4_6D20_4037_835E_4D28CAA8A61D -->
<g id="node5" class="node"><title>EAID_FC8421E4_6D20_4037_835E_4D28CAA8A61D</title>
<image xlink:href="img/boundary3.png" width="115px" height="67px" preserveAspectRatio="xMinYMin meet" x="1138.5" y="-213.5"/>
<text text-anchor="start" x="1093.5" y="-123.3" font-family="Times New Roman,serif" font-size="24.00">user information page</text>
</g>
<!-- EAID_CB127CE3_42CE_4256_AB53_1234483FA750&#45;&gt;EAID_FC8421E4_6D20_4037_835E_4D28CAA8A61D -->
<g id="edge4" class="edge"><title>EAID_CB127CE3_42CE_4256_AB53_1234483FA750&#45;&gt;EAID_FC8421E4_6D20_4037_835E_4D28CAA8A61D</title>
<path fill="none" stroke="black" d="M81.0465,-127.356C92.5126,-124.133 105.14,-121.139 117,-119.5 526.441,-62.903 638.769,-52.7472 1047,-117.5 1055.5,-118.849 1064.18,-120.609 1072.86,-122.657"/>
<polygon fill="black" stroke="black" points="1072.1,-126.075 1082.65,-125.085 1073.79,-119.281 1072.1,-126.075"/>
</g>
<!-- EAID_DAB2AB9C_E4F7_4d20_90A0_FE20F114FCEE -->
<g id="node6" class="node"><title>EAID_DAB2AB9C_E4F7_4d20_90A0_FE20F114FCEE</title>
<image xlink:href="img/boundary3.png" width="115px" height="67px" preserveAspectRatio="xMinYMin meet" x="485.5" y="-255.5"/>
<text text-anchor="start" x="431.5" y="-165.3" font-family="Times New Roman,serif" font-size="24.00">validate the role of user</text>
</g>
<!-- EAID_B5C06EE5_4007_44d1_A175_238AB3DB0792&#45;&gt;EAID_DAB2AB9C_E4F7_4d20_90A0_FE20F114FCEE -->
<g id="edge5" class="edge"><title>EAID_B5C06EE5_4007_44d1_A175_238AB3DB0792&#45;&gt;EAID_DAB2AB9C_E4F7_4d20_90A0_FE20F114FCEE</title>
<path fill="none" stroke="black" d="M385.311,-194.552C393.751,-195.251 402.243,-195.955 410.672,-196.654"/>
<polygon fill="black" stroke="black" points="410.659,-200.165 420.914,-197.503 411.237,-193.189 410.659,-200.165"/>
</g>
<!-- EAID_D7048A24_D719_4a9b_9C80_276C416D8945 -->
<g id="node9" class="node"><title>EAID_D7048A24_D719_4a9b_9C80_276C416D8945</title>
<image xlink:href="img/control1.png" width="106px" height="75px" preserveAspectRatio="xMinYMin meet" x="1414" y="-217.5"/>
<text text-anchor="start" x="1354" y="-119.3" font-family="Times New Roman,serif" font-size="24.00">validate the information</text>
</g>
<!-- EAID_FC8421E4_6D20_4037_835E_4D28CAA8A61D&#45;&gt;EAID_D7048A24_D719_4a9b_9C80_276C416D8945 -->
<g id="edge12" class="edge"><title>EAID_FC8421E4_6D20_4037_835E_4D28CAA8A61D&#45;&gt;EAID_D7048A24_D719_4a9b_9C80_276C416D8945</title>
<path fill="none" stroke="black" d="M1308.06,-165.5C1316.49,-165.5 1325.05,-165.5 1333.59,-165.5"/>
<polygon fill="black" stroke="black" points="1333.6,-169 1343.6,-165.5 1333.6,-162 1333.6,-169"/>
</g>
<!-- EAID_DAB2AB9C_E4F7_4d20_90A0_FE20F114FCEE&#45;&gt;EAID_EE527DF5_DE13_4ea1_93DA_5A3D5C69A6E7 -->
<g id="edge10" class="edge"><title>EAID_DAB2AB9C_E4F7_4d20_90A0_FE20F114FCEE&#45;&gt;EAID_EE527DF5_DE13_4ea1_93DA_5A3D5C69A6E7</title>
<path fill="none" stroke="black" d="M648.546,-262.095C665.626,-270.518 683.217,-278.925 700,-286.5 707.796,-290.019 715.829,-293.549 723.964,-297.051"/>
<polygon fill="black" stroke="black" points="722.615,-300.281 733.187,-300.99 725.365,-293.844 722.615,-300.281"/>
</g>
<!-- EAID_F955B52E_7994_400f_ACC4_95DAB1458281 -->
<g id="node8" class="node"><title>EAID_F955B52E_7994_400f_ACC4_95DAB1458281</title>
<image xlink:href="img/activity_icon.png" width="30px" height="20px" preserveAspectRatio="xMinYMin meet" x="1961" y="-253.5"/>
<text text-anchor="start" x="1930.5" y="-211.3" font-family="Times New Roman,serif" font-weight="bold" font-size="24.00">user info</text>
</g>
<!-- EAID_DAB2AB9C_E4F7_4d20_90A0_FE20F114FCEE&#45;&gt;EAID_F955B52E_7994_400f_ACC4_95DAB1458281 -->
<g id="edge11" class="edge"><title>EAID_DAB2AB9C_E4F7_4d20_90A0_FE20F114FCEE&#45;&gt;EAID_F955B52E_7994_400f_ACC4_95DAB1458281</title>
<path fill="none" stroke="black" d="M664.172,-245.293C676.19,-248.122 688.278,-250.606 700,-252.5 917.141,-287.588 974.543,-272.5 1194.5,-272.5 1194.5,-272.5 1194.5,-272.5 1468,-272.5 1653.1,-272.5 1701.08,-280.826 1884,-252.5 1892.52,-251.181 1901.39,-249.378 1910.11,-247.348"/>
<polygon fill="black" stroke="black" points="1910.97,-250.742 1919.86,-244.975 1909.31,-243.941 1910.97,-250.742"/>
</g>
<!-- EAID_A83AD747_0989_4fca_BB02_09C14CC8DFD7 -->
<g id="node10" class="node"><title>EAID_A83AD747_0989_4fca_BB02_09C14CC8DFD7</title>
<image xlink:href="img/control1.png" width="106px" height="75px" preserveAspectRatio="xMinYMin meet" x="821" y="-237.5"/>
<text text-anchor="start" x="710.5" y="-139.3" font-family="Times New Roman,serif" font-size="24.00">return to the user information page</text>
</g>
<!-- EAID_DAB2AB9C_E4F7_4d20_90A0_FE20F114FCEE&#45;&gt;EAID_A83AD747_0989_4fca_BB02_09C14CC8DFD7 -->
<g id="edge9" class="edge"><title>EAID_DAB2AB9C_E4F7_4d20_90A0_FE20F114FCEE&#45;&gt;EAID_A83AD747_0989_4fca_BB02_09C14CC8DFD7</title>
<path fill="none" stroke="black" d="M664.139,-199.433C672.509,-198.873 681.043,-198.303 689.644,-197.727"/>
<polygon fill="black" stroke="black" points="690.023,-201.21 699.767,-197.051 689.556,-194.226 690.023,-201.21"/>
</g>
<!-- EAID_23DF2D86_0043_4f45_A9B4_B77C1CAED6FD -->
<g id="node7" class="node"><title>EAID_23DF2D86_0043_4f45_A9B4_B77C1CAED6FD</title>
<image xlink:href="img/control1.png" width="106px" height="75px" preserveAspectRatio="xMinYMin meet" x="1702.5" y="-237.5"/>
<text text-anchor="start" x="1649" y="-139.3" font-family="Times New Roman,serif" font-size="24.00">insert user information</text>
</g>
<!-- EAID_23DF2D86_0043_4f45_A9B4_B77C1CAED6FD&#45;&gt;EAID_F955B52E_7994_400f_ACC4_95DAB1458281 -->
<g id="edge6" class="edge"><title>EAID_23DF2D86_0043_4f45_A9B4_B77C1CAED6FD&#45;&gt;EAID_F955B52E_7994_400f_ACC4_95DAB1458281</title>
<path fill="none" stroke="black" d="M1871.65,-208.259C1884.76,-210.84 1897.76,-213.397 1909.87,-215.78"/>
<polygon fill="black" stroke="black" points="1909.32,-219.241 1919.81,-217.738 1910.68,-212.373 1909.32,-219.241"/>
</g>
<!-- EAID_D7048A24_D719_4a9b_9C80_276C416D8945&#45;&gt;EAID_64C02FEE_824C_4ac4_9941_8821B1847A61 -->
<g id="edge13" class="edge"><title>EAID_D7048A24_D719_4a9b_9C80_276C416D8945&#45;&gt;EAID_64C02FEE_824C_4ac4_9941_8821B1847A61</title>
<path fill="none" stroke="black" d="M1590.12,-118.104C1598.82,-114.729 1607.62,-111.313 1616.39,-107.907"/>
<polygon fill="black" stroke="black" points="1617.84,-111.099 1625.9,-104.218 1615.31,-104.573 1617.84,-111.099"/>
</g>
<!-- EAID_D7048A24_D719_4a9b_9C80_276C416D8945&#45;&gt;EAID_23DF2D86_0043_4f45_A9B4_B77C1CAED6FD -->
<g id="edge7" class="edge"><title>EAID_D7048A24_D719_4a9b_9C80_276C416D8945&#45;&gt;EAID_23DF2D86_0043_4f45_A9B4_B77C1CAED6FD</title>
<path fill="none" stroke="black" d="M1590.12,-174.04C1602.7,-174.919 1615.5,-175.814 1628.12,-176.697"/>
<polygon fill="black" stroke="black" points="1627.97,-180.195 1638.19,-177.401 1628.46,-173.212 1627.97,-180.195"/>
</g>
<!-- EAID_A83AD747_0989_4fca_BB02_09C14CC8DFD7&#45;&gt;EAID_FC8421E4_6D20_4037_835E_4D28CAA8A61D -->
<g id="edge8" class="edge"><title>EAID_A83AD747_0989_4fca_BB02_09C14CC8DFD7&#45;&gt;EAID_FC8421E4_6D20_4037_835E_4D28CAA8A61D</title>
<path fill="none" stroke="black" d="M1047.14,-174.71C1055.75,-174.172 1064.3,-173.637 1072.71,-173.112"/>
<polygon fill="black" stroke="black" points="1073.12,-176.593 1082.88,-172.476 1072.68,-169.607 1073.12,-176.593"/>
</g>
</g>
</svg>
