<?xml version="1.0" encoding="UTF-8" standalone="no"?>
<!DOCTYPE svg PUBLIC "-//W3C//DTD SVG 1.1//EN"
 "http://www.w3.org/Graphics/SVG/1.1/DTD/svg11.dtd">
<!-- Generated by graphviz version 2.38.0 (20140413.2041)
 -->
<!-- Title: g Pages: 1 -->
<svg width="455pt" height="260pt"
 viewBox="0.00 0.00 454.74 260.00" xmlns="http://www.w3.org/2000/svg" xmlns:xlink="http://www.w3.org/1999/xlink">
<g id="graph0" class="graph" transform="scale(1 1) rotate(0) translate(4 256)">
<title>g</title>
<polygon fill="white" stroke="none" points="-4,4 -4,-256 450.735,-256 450.735,4 -4,4"/>
<!-- query product by criteria -->
<g id="node1" class="node"><title>query product by criteria</title>
<ellipse fill="none" stroke="black" cx="188.145" cy="-90" rx="100.983" ry="18"/>
<text text-anchor="middle" x="188.145" y="-86.3" font-family="Times New Roman,serif" font-size="14.00">query product by criteria</text>
</g>
<!-- product -->
<g id="node2" class="node"><title>product</title>
<ellipse fill="none" stroke="black" cx="176.145" cy="-18" rx="39.7935" ry="18"/>
<text text-anchor="middle" x="176.145" y="-14.3" font-family="Times New Roman,serif" font-size="14.00">product</text>
</g>
<!-- query product by criteria&#45;&gt;product -->
<g id="edge1" class="edge"><title>query product by criteria&#45;&gt;product</title>
<path fill="none" stroke="black" d="M185.178,-71.6966C183.856,-63.9827 182.267,-54.7125 180.793,-46.1124"/>
<polygon fill="black" stroke="black" points="184.216,-45.3692 179.077,-36.1043 177.317,-46.552 184.216,-45.3692"/>
</g>
<!-- product page -->
<g id="node3" class="node"><title>product page</title>
<ellipse fill="none" stroke="black" cx="59.1448" cy="-18" rx="59.2899" ry="18"/>
<text text-anchor="middle" x="59.1448" y="-14.3" font-family="Times New Roman,serif" font-size="14.00">product page</text>
</g>
<!-- query product by criteria&#45;&gt;product page -->
<g id="edge2" class="edge"><title>query product by criteria&#45;&gt;product page</title>
<path fill="none" stroke="black" d="M158.225,-72.7646C139.592,-62.6534 115.492,-49.5758 95.7257,-38.8501"/>
<polygon fill="black" stroke="black" points="97.1585,-35.6455 86.6998,-33.9523 93.8198,-41.7981 97.1585,-35.6455"/>
</g>
<!-- No product error message -->
<g id="node4" class="node"><title>No product error message</title>
<ellipse fill="none" stroke="black" cx="340.145" cy="-18" rx="106.681" ry="18"/>
<text text-anchor="middle" x="340.145" y="-14.3" font-family="Times New Roman,serif" font-size="14.00">No product error message</text>
</g>
<!-- query product by criteria&#45;&gt;No product error message -->
<g id="edge3" class="edge"><title>query product by criteria&#45;&gt;No product error message</title>
<path fill="none" stroke="black" d="M223.017,-72.9406C244.663,-62.9718 272.68,-50.0694 295.884,-39.3831"/>
<polygon fill="black" stroke="black" points="297.553,-42.4679 305.172,-35.1057 294.625,-36.1097 297.553,-42.4679"/>
</g>
<!-- product search page -->
<g id="node5" class="node"><title>product search page</title>
<ellipse fill="none" stroke="black" cx="188.145" cy="-162" rx="85.2851" ry="18"/>
<text text-anchor="middle" x="188.145" y="-158.3" font-family="Times New Roman,serif" font-size="14.00">product search page</text>
</g>
<!-- product search page&#45;&gt;query product by criteria -->
<g id="edge4" class="edge"><title>product search page&#45;&gt;query product by criteria</title>
<path fill="none" stroke="black" d="M188.145,-143.697C188.145,-135.983 188.145,-126.712 188.145,-118.112"/>
<polygon fill="black" stroke="black" points="191.645,-118.104 188.145,-108.104 184.645,-118.104 191.645,-118.104"/>
</g>
<!-- User -->
<g id="node6" class="node"><title>User</title>
<ellipse fill="none" stroke="black" cx="188.145" cy="-234" rx="27.8951" ry="18"/>
<text text-anchor="middle" x="188.145" y="-230.3" font-family="Times New Roman,serif" font-size="14.00">User</text>
</g>
<!-- User&#45;&gt;product page -->
<g id="edge6" class="edge"><title>User&#45;&gt;product page</title>
<path fill="none" stroke="black" d="M163.452,-225.501C141.855,-217.647 111.329,-203.175 94.1448,-180 64.7047,-140.296 59.0618,-80.8375 58.5036,-46.3827"/>
<polygon fill="black" stroke="black" points="62.003,-46.1223 58.4772,-36.1314 55.003,-46.1404 62.003,-46.1223"/>
</g>
<!-- User&#45;&gt;No product error message -->
<g id="edge7" class="edge"><title>User&#45;&gt;No product error message</title>
<path fill="none" stroke="black" d="M212.566,-224.798C233.681,-216.549 263.644,-201.894 282.145,-180 315.28,-140.787 330.109,-81.1565 336.248,-46.5382"/>
<polygon fill="black" stroke="black" points="339.773,-46.6713 337.948,-36.2349 332.866,-45.5317 339.773,-46.6713"/>
</g>
<!-- User&#45;&gt;product search page -->
<g id="edge5" class="edge"><title>User&#45;&gt;product search page</title>
<path fill="none" stroke="black" d="M188.145,-215.697C188.145,-207.983 188.145,-198.712 188.145,-190.112"/>
<polygon fill="black" stroke="black" points="191.645,-190.104 188.145,-180.104 184.645,-190.104 191.645,-190.104"/>
</g>
</g>
</svg>
