<?xml version="1.0" encoding="UTF-8" standalone="no"?>
<!DOCTYPE svg PUBLIC "-//W3C//DTD SVG 1.1//EN"
 "http://www.w3.org/Graphics/SVG/1.1/DTD/svg11.dtd">
<!-- Generated by graphviz version 2.38.0 (20140413.2041)
 -->
<!-- Title: g Pages: 1 -->
<svg width="2886pt" height="761pt"
 viewBox="0.00 0.00 2886.00 761.00" xmlns="http://www.w3.org/2000/svg" xmlns:xlink="http://www.w3.org/1999/xlink">
<g id="graph0" class="graph" transform="scale(1 1) rotate(0) translate(4 757)">
<title>g</title>
<polygon fill="white" stroke="none" points="-4,4 -4,-757 2882,-757 2882,4 -4,4"/>
<g id="clust1" class="cluster"><title>cluster0</title>
<polygon fill="none" stroke="black" stroke-width="2" points="578,-275 578,-634 1110,-634 1110,-275 578,-275"/>
<text text-anchor="start" x="822" y="-619.8" font-family="Times New Roman,serif" font-weight="bold" font-size="14.00">System</text>
</g>
<g id="clust2" class="cluster"><title>cluster1</title>
<polygon fill="none" stroke="black" stroke-width="2" points="546,-642 546,-745 1142,-745 1142,-642 546,-642"/>
<text text-anchor="start" x="830.5" y="-730.8" font-family="Times New Roman,serif" font-weight="bold" font-size="14.00">user</text>
</g>
<g id="clust3" class="cluster"><title>cluster1000</title>
<polygon fill="none" stroke="black" stroke-width="2" points="8,-8 8,-267 2870,-267 2870,-8 8,-8"/>
<text text-anchor="start" x="1393.5" y="-252.8" font-family="Times New Roman,serif" font-weight="bold" font-size="14.00">Domain Model</text>
</g>
<!-- EAID_FCC42279_1A1C_43f7_8695_866DCA472A99___EAID_9575834F_12F0_483a_90D0_048CFF46D7AF -->
<g id="node1" class="node"><title>EAID_FCC42279_1A1C_43f7_8695_866DCA472A99___EAID_9575834F_12F0_483a_90D0_048CFF46D7AF</title>
<image xlink:href="img/activity_icon.png" width="30px" height="20px" preserveAspectRatio="xMinYMin meet" x="825.5" y="-597"/>
<text text-anchor="start" x="765" y="-562.8" font-family="Times New Roman,serif" font-weight="bold" font-size="14.00">user:view assigned tasks</text>
<text text-anchor="start" x="821" y="-548.8" font-family="Times New Roman,serif" font-weight="bold" font-size="14.00">option</text>
</g>
<!-- EAID_9575834F_12F0_483a_90D0_048CFF46D7AF___EAID_8FE21072_36CC_4b4e_8A87_1AF4438EE1AC -->
<g id="node7" class="node"><title>EAID_9575834F_12F0_483a_90D0_048CFF46D7AF___EAID_8FE21072_36CC_4b4e_8A87_1AF4438EE1AC</title>
<image xlink:href="img/activity_icon.png" width="30px" height="20px" preserveAspectRatio="xMinYMin meet" x="826" y="-497"/>
<text text-anchor="start" x="780.5" y="-462.8" font-family="Times New Roman,serif" font-weight="bold" font-size="14.00">view assigned tasks</text>
<text text-anchor="start" x="751" y="-448.8" font-family="Times New Roman,serif" font-weight="bold" font-size="14.00">option:query meeting minutes</text>
<text text-anchor="start" x="797" y="-434.8" font-family="Times New Roman,serif" font-weight="bold" font-size="14.00">by project and</text>
<text text-anchor="start" x="827.5" y="-420.8" font-family="Times New Roman,serif" font-weight="bold" font-size="14.00">user</text>
</g>
<!-- EAID_FCC42279_1A1C_43f7_8695_866DCA472A99___EAID_9575834F_12F0_483a_90D0_048CFF46D7AF&#45;&gt;EAID_9575834F_12F0_483a_90D0_048CFF46D7AF___EAID_8FE21072_36CC_4b4e_8A87_1AF4438EE1AC -->
<g id="edge1" class="edge"><title>EAID_FCC42279_1A1C_43f7_8695_866DCA472A99___EAID_9575834F_12F0_483a_90D0_048CFF46D7AF&#45;&gt;EAID_9575834F_12F0_483a_90D0_048CFF46D7AF___EAID_8FE21072_36CC_4b4e_8A87_1AF4438EE1AC</title>
<path fill="none" stroke="black" d="M840.279,-538.802C840.349,-530.893 840.427,-522.157 840.505,-513.439"/>
<polygon fill="black" stroke="black" points="844.006,-513.296 840.596,-503.265 837.007,-513.233 844.006,-513.296"/>
</g>
<!-- EAID_EFF02F8D_2245_4876_8959_46CD3B88BAB0 -->
<g id="node17" class="node"><title>EAID_EFF02F8D_2245_4876_8959_46CD3B88BAB0</title>
<polygon fill="none" stroke="black" points="1767,-168 1767,-189 1963,-189 1963,-168 1767,-168"/>
<text text-anchor="start" x="1849" y="-175.8" font-family="Times New Roman,serif" font-weight="bold" font-size="14.00">Task</text>
<polygon fill="none" stroke="black" points="1767,-147 1767,-168 1963,-168 1963,-147 1767,-147"/>
<text text-anchor="start" x="1844.5" y="-154.8" font-family="Times New Roman,serif" font-weight="bold" font-size="14.00">Task()</text>
<polygon fill="none" stroke="black" points="1767,-126 1767,-147 1963,-147 1963,-126 1767,-126"/>
<text text-anchor="start" x="1800" y="-133.8" font-family="Times New Roman,serif" font-weight="bold" font-size="14.00">pendingtasksscreen()</text>
<polygon fill="none" stroke="black" points="1767,-105 1767,-126 1963,-126 1963,-105 1767,-105"/>
<text text-anchor="start" x="1819" y="-112.8" font-family="Times New Roman,serif" font-weight="bold" font-size="14.00">Querytasklist()</text>
<polygon fill="none" stroke="black" points="1767,-84 1767,-105 1963,-105 1963,-84 1767,-84"/>
<text text-anchor="start" x="1770" y="-91.8" font-family="Times New Roman,serif" font-weight="bold" font-size="14.00">querydetailoftaskandassignee()</text>
<polygon fill="none" stroke="black" points="1767,-63 1767,-84 1963,-84 1963,-63 1767,-63"/>
<text text-anchor="start" x="1785" y="-70.8" font-family="Times New Roman,serif" font-weight="bold" font-size="14.00">viewassignedtasksoption()</text>
<polygon fill="none" stroke="black" points="1766,-62 1766,-190 1964,-190 1964,-62 1766,-62"/>
</g>
<!-- EAID_FCC42279_1A1C_43f7_8695_866DCA472A99___EAID_9575834F_12F0_483a_90D0_048CFF46D7AF&#45;&gt;EAID_EFF02F8D_2245_4876_8959_46CD3B88BAB0 -->
<g id="edge8" class="edge"><title>EAID_FCC42279_1A1C_43f7_8695_866DCA472A99___EAID_9575834F_12F0_483a_90D0_048CFF46D7AF&#45;&gt;EAID_EFF02F8D_2245_4876_8959_46CD3B88BAB0</title>
<path fill="none" stroke="black" stroke-dasharray="5,2" d="M925.643,-542.003C978.72,-524.629 1037.93,-505.199 1044,-503 1302.07,-409.464 1350.09,-334.783 1618,-275 1646.47,-268.648 1723,-280.207 1749,-267 1777.7,-252.426 1801.94,-227.251 1820.72,-202.233"/>
<polygon fill="black" stroke="black" points="1823.56,-204.273 1826.62,-194.129 1817.9,-200.15 1823.56,-204.273"/>
</g>
<!-- EAID_FCC42279_1A1C_43f7_8695_866DCA472A99___EAID_BEF8732C_A195_4306_B4C8_05DC91DFAD97 -->
<g id="node2" class="node"><title>EAID_FCC42279_1A1C_43f7_8695_866DCA472A99___EAID_BEF8732C_A195_4306_B4C8_05DC91DFAD97</title>
<image xlink:href="img/activity_icon.png" width="30px" height="20px" preserveAspectRatio="xMinYMin meet" x="646" y="-590"/>
<text text-anchor="start" x="596" y="-555.8" font-family="Times New Roman,serif" font-weight="bold" font-size="14.00">user:meeting minutes</text>
</g>
<!-- EAID_A248345F_D11A_4400_BE20_A97C53DEF375 -->
<g id="node13" class="node"><title>EAID_A248345F_D11A_4400_BE20_A97C53DEF375</title>
<polygon fill="none" stroke="black" points="456,-178 456,-199 875,-199 875,-178 456,-178"/>
<text text-anchor="start" x="616.5" y="-185.8" font-family="Times New Roman,serif" font-weight="bold" font-size="14.00">Meeting Minute</text>
<polygon fill="none" stroke="black" points="456,-157 456,-178 875,-178 875,-157 456,-157"/>
<text text-anchor="start" x="467.5" y="-164.8" font-family="Times New Roman,serif" font-weight="bold" font-size="14.00">EAID_905D5DC7_566F_40c2_A927_E23E83C27975 undefined</text>
<polygon fill="none" stroke="black" points="456,-136 456,-157 875,-157 875,-136 456,-136"/>
<text text-anchor="start" x="459" y="-143.8" font-family="Times New Roman,serif" font-weight="bold" font-size="14.00">EAID_8AA0F4D1_CAA1_4d34_A2BD_4250BA9CCB27 undefined</text>
<polygon fill="none" stroke="black" points="456,-115 456,-136 875,-136 875,-115 456,-115"/>
<text text-anchor="start" x="614" y="-122.8" font-family="Times New Roman,serif" font-weight="bold" font-size="14.00">MeetingMinute()</text>
<polygon fill="none" stroke="black" points="456,-94 456,-115 875,-115 875,-94 456,-94"/>
<text text-anchor="start" x="590" y="-101.8" font-family="Times New Roman,serif" font-weight="bold" font-size="14.00">Selectingsettingsbutton()</text>
<polygon fill="none" stroke="black" points="456,-73 456,-94 875,-94 875,-73 456,-73"/>
<text text-anchor="start" x="567.5" y="-80.8" font-family="Times New Roman,serif" font-weight="bold" font-size="14.00">Displaydropdownsettingsmenu()</text>
<polygon fill="none" stroke="black" points="456,-52 456,-73 875,-73 875,-52 456,-52"/>
<text text-anchor="start" x="605.5" y="-59.8" font-family="Times New Roman,serif" font-weight="bold" font-size="14.00">selectadminoption()</text>
<polygon fill="none" stroke="black" points="454.5,-51.5 454.5,-200.5 875.5,-200.5 875.5,-51.5 454.5,-51.5"/>
</g>
<!-- EAID_FCC42279_1A1C_43f7_8695_866DCA472A99___EAID_BEF8732C_A195_4306_B4C8_05DC91DFAD97&#45;&gt;EAID_A248345F_D11A_4400_BE20_A97C53DEF375 -->
<g id="edge9" class="edge"><title>EAID_FCC42279_1A1C_43f7_8695_866DCA472A99___EAID_BEF8732C_A195_4306_B4C8_05DC91DFAD97&#45;&gt;EAID_A248345F_D11A_4400_BE20_A97C53DEF375</title>
<path fill="none" stroke="black" stroke-dasharray="5,2" d="M724.665,-545.424C731.806,-543.074 739.021,-540.873 746,-539 834.921,-515.136 865.119,-538.66 950,-503 1068.78,-453.101 1218.54,-367.628 1129,-275 1119.88,-265.568 905.562,-270.78 893,-267 851.718,-254.578 810.402,-232.763 774.502,-209.997"/>
<polygon fill="black" stroke="black" points="776.278,-206.978 765.975,-204.508 772.489,-212.864 776.278,-206.978"/>
</g>
<!-- EAID_FCC42279_1A1C_43f7_8695_866DCA472A99___EAID_18ADE8B8_12BC_4255_AC77_14343BEBE757 -->
<g id="node3" class="node"><title>EAID_FCC42279_1A1C_43f7_8695_866DCA472A99___EAID_18ADE8B8_12BC_4255_AC77_14343BEBE757</title>
<image xlink:href="img/activity_icon.png" width="30px" height="20px" preserveAspectRatio="xMinYMin meet" x="1008" y="-597"/>
<text text-anchor="start" x="954" y="-562.8" font-family="Times New Roman,serif" font-weight="bold" font-size="14.00">user:no assigned tasks</text>
<text text-anchor="start" x="997" y="-548.8" font-family="Times New Roman,serif" font-weight="bold" font-size="14.00">message</text>
</g>
<!-- EAID_FCC42279_1A1C_43f7_8695_866DCA472A99___EAID_18ADE8B8_12BC_4255_AC77_14343BEBE757&#45;&gt;EAID_EFF02F8D_2245_4876_8959_46CD3B88BAB0 -->
<g id="edge10" class="edge"><title>EAID_FCC42279_1A1C_43f7_8695_866DCA472A99___EAID_18ADE8B8_12BC_4255_AC77_14343BEBE757&#45;&gt;EAID_EFF02F8D_2245_4876_8959_46CD3B88BAB0</title>
<path fill="none" stroke="black" stroke-dasharray="5,2" d="M1102.01,-563.139C1174.08,-554.954 1282.52,-537.743 1371,-503 1555.35,-430.612 1599.91,-397.371 1749,-267 1770.89,-247.856 1792.05,-224.358 1810.17,-202.119"/>
<polygon fill="black" stroke="black" points="1812.91,-204.3 1816.45,-194.314 1807.46,-199.912 1812.91,-204.3"/>
</g>
<!-- EAID_8FE21072_36CC_4b4e_8A87_1AF4438EE1AC___EAID_BEF8732C_A195_4306_B4C8_05DC91DFAD97 -->
<g id="node4" class="node"><title>EAID_8FE21072_36CC_4b4e_8A87_1AF4438EE1AC___EAID_BEF8732C_A195_4306_B4C8_05DC91DFAD97</title>
<image xlink:href="img/activity_icon.png" width="30px" height="20px" preserveAspectRatio="xMinYMin meet" x="650" y="-362"/>
<text text-anchor="start" x="596" y="-327.8" font-family="Times New Roman,serif" font-weight="bold" font-size="14.00">query meeting minutes</text>
<text text-anchor="start" x="621" y="-313.8" font-family="Times New Roman,serif" font-weight="bold" font-size="14.00">by project and</text>
<text text-anchor="start" x="600" y="-299.8" font-family="Times New Roman,serif" font-weight="bold" font-size="14.00">user:meeting minutes</text>
</g>
<!-- EAID_8FE21072_36CC_4b4e_8A87_1AF4438EE1AC___EAID_BEF8732C_A195_4306_B4C8_05DC91DFAD97&#45;&gt;EAID_A248345F_D11A_4400_BE20_A97C53DEF375 -->
<g id="edge11" class="edge"><title>EAID_8FE21072_36CC_4b4e_8A87_1AF4438EE1AC___EAID_BEF8732C_A195_4306_B4C8_05DC91DFAD97&#45;&gt;EAID_A248345F_D11A_4400_BE20_A97C53DEF375</title>
<path fill="none" stroke="black" stroke-dasharray="5,2" d="M665,-289.72C665,-268.503 665,-241.186 665,-215.017"/>
<polygon fill="black" stroke="black" points="668.5,-214.672 665,-204.673 661.5,-214.673 668.5,-214.672"/>
</g>
<!-- EAID_8FE21072_36CC_4b4e_8A87_1AF4438EE1AC___EAID_6CDB0A9B_56E5_4be9_A2C2_B5712CD8D473 -->
<g id="node5" class="node"><title>EAID_8FE21072_36CC_4b4e_8A87_1AF4438EE1AC___EAID_6CDB0A9B_56E5_4be9_A2C2_B5712CD8D473</title>
<image xlink:href="img/activity_icon.png" width="30px" height="20px" preserveAspectRatio="xMinYMin meet" x="826" y="-362"/>
<text text-anchor="start" x="772" y="-327.8" font-family="Times New Roman,serif" font-weight="bold" font-size="14.00">query meeting minutes</text>
<text text-anchor="start" x="797" y="-313.8" font-family="Times New Roman,serif" font-weight="bold" font-size="14.00">by project and</text>
<text text-anchor="start" x="776" y="-299.8" font-family="Times New Roman,serif" font-weight="bold" font-size="14.00">user:meeting minutes</text>
</g>
<!-- EAID_8FE21072_36CC_4b4e_8A87_1AF4438EE1AC___EAID_6CDB0A9B_56E5_4be9_A2C2_B5712CD8D473&#45;&gt;EAID_A248345F_D11A_4400_BE20_A97C53DEF375 -->
<g id="edge12" class="edge"><title>EAID_8FE21072_36CC_4b4e_8A87_1AF4438EE1AC___EAID_6CDB0A9B_56E5_4be9_A2C2_B5712CD8D473&#45;&gt;EAID_A248345F_D11A_4400_BE20_A97C53DEF375</title>
<path fill="none" stroke="black" stroke-dasharray="5,2" d="M807.481,-289.72C788.246,-267.752 763.284,-239.245 739.64,-212.242"/>
<polygon fill="black" stroke="black" points="742.233,-209.89 733.012,-204.673 736.966,-214.502 742.233,-209.89"/>
</g>
<!-- EAID_8FE21072_36CC_4b4e_8A87_1AF4438EE1AC___EAID_18ADE8B8_12BC_4255_AC77_14343BEBE757 -->
<g id="node6" class="node"><title>EAID_8FE21072_36CC_4b4e_8A87_1AF4438EE1AC___EAID_18ADE8B8_12BC_4255_AC77_14343BEBE757</title>
<image xlink:href="img/activity_icon.png" width="30px" height="20px" preserveAspectRatio="xMinYMin meet" x="1002" y="-369"/>
<text text-anchor="start" x="948" y="-334.8" font-family="Times New Roman,serif" font-weight="bold" font-size="14.00">query meeting minutes</text>
<text text-anchor="start" x="973" y="-320.8" font-family="Times New Roman,serif" font-weight="bold" font-size="14.00">by project and</text>
<text text-anchor="start" x="948" y="-306.8" font-family="Times New Roman,serif" font-weight="bold" font-size="14.00">user:no assigned tasks</text>
<text text-anchor="start" x="991" y="-292.8" font-family="Times New Roman,serif" font-weight="bold" font-size="14.00">message</text>
</g>
<!-- EAID_8FE21072_36CC_4b4e_8A87_1AF4438EE1AC___EAID_18ADE8B8_12BC_4255_AC77_14343BEBE757&#45;&gt;EAID_EFF02F8D_2245_4876_8959_46CD3B88BAB0 -->
<g id="edge13" class="edge"><title>EAID_8FE21072_36CC_4b4e_8A87_1AF4438EE1AC___EAID_18ADE8B8_12BC_4255_AC77_14343BEBE757&#45;&gt;EAID_EFF02F8D_2245_4876_8959_46CD3B88BAB0</title>
<path fill="none" stroke="black" stroke-dasharray="5,2" d="M1096.32,-311.88C1162.08,-299.292 1258.2,-282.69 1343,-275 1365.47,-272.963 1728.68,-276.798 1749,-267 1778.25,-252.898 1802.72,-227.524 1821.53,-202.214"/>
<polygon fill="black" stroke="black" points="1824.43,-204.172 1827.44,-194.013 1818.76,-200.081 1824.43,-204.172"/>
</g>
<!-- EAID_9575834F_12F0_483a_90D0_048CFF46D7AF___EAID_8FE21072_36CC_4b4e_8A87_1AF4438EE1AC&#45;&gt;EAID_8FE21072_36CC_4b4e_8A87_1AF4438EE1AC___EAID_BEF8732C_A195_4306_B4C8_05DC91DFAD97 -->
<g id="edge5" class="edge"><title>EAID_9575834F_12F0_483a_90D0_048CFF46D7AF___EAID_8FE21072_36CC_4b4e_8A87_1AF4438EE1AC&#45;&gt;EAID_8FE21072_36CC_4b4e_8A87_1AF4438EE1AC___EAID_BEF8732C_A195_4306_B4C8_05DC91DFAD97</title>
<path fill="none" stroke="black" d="M777.957,-410.867C761.326,-398.961 743.399,-386.127 726.833,-374.267"/>
<polygon fill="black" stroke="black" points="728.476,-371.139 718.308,-368.163 724.401,-376.831 728.476,-371.139"/>
</g>
<!-- EAID_9575834F_12F0_483a_90D0_048CFF46D7AF___EAID_8FE21072_36CC_4b4e_8A87_1AF4438EE1AC&#45;&gt;EAID_8FE21072_36CC_4b4e_8A87_1AF4438EE1AC___EAID_6CDB0A9B_56E5_4be9_A2C2_B5712CD8D473 -->
<g id="edge6" class="edge"><title>EAID_9575834F_12F0_483a_90D0_048CFF46D7AF___EAID_8FE21072_36CC_4b4e_8A87_1AF4438EE1AC&#45;&gt;EAID_8FE21072_36CC_4b4e_8A87_1AF4438EE1AC___EAID_6CDB0A9B_56E5_4be9_A2C2_B5712CD8D473</title>
<path fill="none" stroke="black" d="M841,-410.867C841,-400.272 841,-388.941 841,-378.217"/>
<polygon fill="black" stroke="black" points="844.5,-378.163 841,-368.163 837.5,-378.164 844.5,-378.163"/>
</g>
<!-- EAID_9575834F_12F0_483a_90D0_048CFF46D7AF___EAID_8FE21072_36CC_4b4e_8A87_1AF4438EE1AC&#45;&gt;EAID_8FE21072_36CC_4b4e_8A87_1AF4438EE1AC___EAID_18ADE8B8_12BC_4255_AC77_14343BEBE757 -->
<g id="edge7" class="edge"><title>EAID_9575834F_12F0_483a_90D0_048CFF46D7AF___EAID_8FE21072_36CC_4b4e_8A87_1AF4438EE1AC&#45;&gt;EAID_8FE21072_36CC_4b4e_8A87_1AF4438EE1AC___EAID_18ADE8B8_12BC_4255_AC77_14343BEBE757</title>
<path fill="none" stroke="black" d="M904.043,-410.867C917.521,-401.218 931.85,-390.96 945.616,-381.105"/>
<polygon fill="black" stroke="black" points="948.008,-383.697 954.102,-375.03 943.933,-378.005 948.008,-383.697"/>
</g>
<!-- EAID_9575834F_12F0_483a_90D0_048CFF46D7AF___EAID_8FE21072_36CC_4b4e_8A87_1AF4438EE1AC&#45;&gt;EAID_A248345F_D11A_4400_BE20_A97C53DEF375 -->
<g id="edge14" class="edge"><title>EAID_9575834F_12F0_483a_90D0_048CFF46D7AF___EAID_8FE21072_36CC_4b4e_8A87_1AF4438EE1AC&#45;&gt;EAID_A248345F_D11A_4400_BE20_A97C53DEF375</title>
<path fill="none" stroke="black" stroke-dasharray="5,2" d="M941.148,-438.028C1007.14,-423.914 1084.94,-402.132 1105,-375 1131.42,-339.26 1135.83,-307.014 1105,-275 1096.82,-266.51 904.28,-270.418 893,-267 851.845,-254.531 810.639,-232.771 774.8,-210.071"/>
<polygon fill="black" stroke="black" points="776.591,-207.062 766.287,-204.598 772.806,-212.95 776.591,-207.062"/>
</g>
<!-- EAID_FCC42279_1A1C_43f7_8695_866DCA472A99___EAID_9575834F_12F0_483a_90D0_048CFF46D7AF_STL -->
<g id="node8" class="node"><title>EAID_FCC42279_1A1C_43f7_8695_866DCA472A99___EAID_9575834F_12F0_483a_90D0_048CFF46D7AF_STL</title>
<image xlink:href="img/stimulus_icon.png" width="30px" height="20px" preserveAspectRatio="xMinYMin meet" x="825" y="-708"/>
<text text-anchor="start" x="754" y="-673.8" font-family="Times New Roman,serif" font-weight="bold" font-size="14.00">stl#user:view assigned tasks</text>
<text text-anchor="start" x="820.5" y="-659.8" font-family="Times New Roman,serif" font-weight="bold" font-size="14.00">option</text>
</g>
<!-- EAID_FCC42279_1A1C_43f7_8695_866DCA472A99___EAID_9575834F_12F0_483a_90D0_048CFF46D7AF_STL&#45;&gt;EAID_FCC42279_1A1C_43f7_8695_866DCA472A99___EAID_9575834F_12F0_483a_90D0_048CFF46D7AF -->
<g id="edge2" class="edge"><title>EAID_FCC42279_1A1C_43f7_8695_866DCA472A99___EAID_9575834F_12F0_483a_90D0_048CFF46D7AF_STL&#45;&gt;EAID_FCC42279_1A1C_43f7_8695_866DCA472A99___EAID_9575834F_12F0_483a_90D0_048CFF46D7AF</title>
<path fill="none" stroke="black" d="M840,-649.765C840,-638.477 840,-625.549 840,-613.518"/>
<polygon fill="black" stroke="black" points="843.5,-613.24 840,-603.24 836.5,-613.24 843.5,-613.24"/>
</g>
<!-- EAID_FCC42279_1A1C_43f7_8695_866DCA472A99___EAID_BEF8732C_A195_4306_B4C8_05DC91DFAD97_STL -->
<g id="node9" class="node"><title>EAID_FCC42279_1A1C_43f7_8695_866DCA472A99___EAID_BEF8732C_A195_4306_B4C8_05DC91DFAD97_STL</title>
<image xlink:href="img/stimulus_icon.png" width="30px" height="20px" preserveAspectRatio="xMinYMin meet" x="625.5" y="-701"/>
<text text-anchor="start" x="565" y="-666.8" font-family="Times New Roman,serif" font-weight="bold" font-size="14.00">stl#user:meeting minutes</text>
</g>
<!-- EAID_FCC42279_1A1C_43f7_8695_866DCA472A99___EAID_BEF8732C_A195_4306_B4C8_05DC91DFAD97_STL&#45;&gt;EAID_FCC42279_1A1C_43f7_8695_866DCA472A99___EAID_BEF8732C_A195_4306_B4C8_05DC91DFAD97 -->
<g id="edge3" class="edge"><title>EAID_FCC42279_1A1C_43f7_8695_866DCA472A99___EAID_BEF8732C_A195_4306_B4C8_05DC91DFAD97_STL&#45;&gt;EAID_FCC42279_1A1C_43f7_8695_866DCA472A99___EAID_BEF8732C_A195_4306_B4C8_05DC91DFAD97</title>
<path fill="none" stroke="black" d="M644.765,-656.266C647.584,-641.633 651.199,-622.87 654.302,-606.765"/>
<polygon fill="black" stroke="black" points="657.799,-607.117 656.254,-596.636 650.925,-605.793 657.799,-607.117"/>
</g>
<!-- EAID_FCC42279_1A1C_43f7_8695_866DCA472A99___EAID_18ADE8B8_12BC_4255_AC77_14343BEBE757_STL -->
<g id="node10" class="node"><title>EAID_FCC42279_1A1C_43f7_8695_866DCA472A99___EAID_18ADE8B8_12BC_4255_AC77_14343BEBE757_STL</title>
<image xlink:href="img/stimulus_icon.png" width="30px" height="20px" preserveAspectRatio="xMinYMin meet" x="1029" y="-708"/>
<text text-anchor="start" x="964" y="-673.8" font-family="Times New Roman,serif" font-weight="bold" font-size="14.00">stl#user:no assigned tasks</text>
<text text-anchor="start" x="1018" y="-659.8" font-family="Times New Roman,serif" font-weight="bold" font-size="14.00">message</text>
</g>
<!-- EAID_FCC42279_1A1C_43f7_8695_866DCA472A99___EAID_18ADE8B8_12BC_4255_AC77_14343BEBE757_STL&#45;&gt;EAID_FCC42279_1A1C_43f7_8695_866DCA472A99___EAID_18ADE8B8_12BC_4255_AC77_14343BEBE757 -->
<g id="edge4" class="edge"><title>EAID_FCC42279_1A1C_43f7_8695_866DCA472A99___EAID_18ADE8B8_12BC_4255_AC77_14343BEBE757_STL&#45;&gt;EAID_FCC42279_1A1C_43f7_8695_866DCA472A99___EAID_18ADE8B8_12BC_4255_AC77_14343BEBE757</title>
<path fill="none" stroke="black" d="M1037.98,-649.765C1035.79,-638.363 1033.27,-625.288 1030.93,-613.154"/>
<polygon fill="black" stroke="black" points="1034.35,-612.397 1029.02,-603.24 1027.47,-613.721 1034.35,-612.397"/>
</g>
<!-- EAID_FDF84386_392A_47b9_AEB0_B17152B69BCF -->
<g id="node11" class="node"><title>EAID_FDF84386_392A_47b9_AEB0_B17152B69BCF</title>
<polygon fill="none" stroke="black" points="2445,-189 2445,-210 2853,-210 2853,-189 2445,-189"/>
<text text-anchor="start" x="2623.5" y="-196.8" font-family="Times New Roman,serif" font-weight="bold" font-size="14.00">Meeting</text>
<polygon fill="none" stroke="black" points="2445,-168 2445,-189 2853,-189 2853,-168 2445,-168"/>
<text text-anchor="start" x="2448" y="-175.8" font-family="Times New Roman,serif" font-weight="bold" font-size="14.00">EAID_A248345F_D11A_4400_BE20_A97C53DEF375 undefined</text>
<polygon fill="none" stroke="black" points="2445,-147 2445,-168 2853,-168 2853,-147 2445,-147"/>
<text text-anchor="start" x="2619" y="-154.8" font-family="Times New Roman,serif" font-weight="bold" font-size="14.00">Meeting()</text>
<polygon fill="none" stroke="black" points="2445,-126 2445,-147 2853,-147 2853,-126 2445,-126"/>
<text text-anchor="start" x="2573.5" y="-133.8" font-family="Times New Roman,serif" font-weight="bold" font-size="14.00">dropdownsettingsmenu()</text>
<polygon fill="none" stroke="black" points="2445,-105 2445,-126 2853,-126 2853,-105 2445,-105"/>
<text text-anchor="start" x="2550.5" y="-112.8" font-family="Times New Roman,serif" font-weight="bold" font-size="14.00">displaythecreatemeetingscreen()</text>
<polygon fill="none" stroke="black" points="2445,-84 2445,-105 2853,-105 2853,-84 2445,-84"/>
<text text-anchor="start" x="2564.5" y="-91.8" font-family="Times New Roman,serif" font-weight="bold" font-size="14.00">meetinginformationscreen()</text>
<polygon fill="none" stroke="black" points="2445,-63 2445,-84 2853,-84 2853,-63 2445,-63"/>
<text text-anchor="start" x="2571" y="-70.8" font-family="Times New Roman,serif" font-weight="bold" font-size="14.00">querymeetingsbyproject()</text>
<polygon fill="none" stroke="black" points="2445,-42 2445,-63 2853,-63 2853,-42 2445,-42"/>
<text text-anchor="start" x="2553" y="-49.8" font-family="Times New Roman,serif" font-weight="bold" font-size="14.00">meetinglistandpushlishoptions()</text>
<polygon fill="none" stroke="black" points="2444,-41 2444,-211 2854,-211 2854,-41 2444,-41"/>
</g>
<!-- EAID_7E65FF88_83D9_4e72_9255_EA0E5A41D0B2 -->
<g id="node12" class="node"><title>EAID_7E65FF88_83D9_4e72_9255_EA0E5A41D0B2</title>
<polygon fill="none" stroke="black" points="2000,-147 2000,-168 2409,-168 2409,-147 2000,-147"/>
<text text-anchor="start" x="2165" y="-154.8" font-family="Times New Roman,serif" font-weight="bold" font-size="14.00">Meeting Log</text>
<polygon fill="none" stroke="black" points="2000,-126 2000,-147 2409,-147 2409,-126 2000,-126"/>
<text text-anchor="start" x="2003" y="-133.8" font-family="Times New Roman,serif" font-weight="bold" font-size="14.00">EAID_FDF84386_392A_47b9_AEB0_B17152B69BCF undefined</text>
<polygon fill="none" stroke="black" points="2000,-105 2000,-126 2409,-126 2409,-105 2000,-105"/>
<text text-anchor="start" x="2162.5" y="-112.8" font-family="Times New Roman,serif" font-weight="bold" font-size="14.00">MeetingLog()</text>
<polygon fill="none" stroke="black" points="2000,-84 2000,-105 2409,-105 2409,-84 2000,-84"/>
<text text-anchor="start" x="2167.5" y="-91.8" font-family="Times New Roman,serif" font-weight="bold" font-size="14.00">Loginpage()</text>
<polygon fill="none" stroke="black" points="1998.5,-83 1998.5,-169 2409.5,-169 2409.5,-83 1998.5,-83"/>
</g>
<!-- EAID_8AA0F4D1_CAA1_4d34_A2BD_4250BA9CCB27 -->
<g id="node14" class="node"><title>EAID_8AA0F4D1_CAA1_4d34_A2BD_4250BA9CCB27</title>
<polygon fill="none" stroke="black" points="1555,-189 1555,-210 1731,-210 1731,-189 1555,-189"/>
<text text-anchor="start" x="1562.5" y="-196.8" font-family="Times New Roman,serif" font-weight="bold" font-size="14.00">Meeting Minute Comment</text>
<polygon fill="none" stroke="black" points="1555,-168 1555,-189 1731,-189 1731,-168 1555,-168"/>
<text text-anchor="start" x="1561.5" y="-175.8" font-family="Times New Roman,serif" font-weight="bold" font-size="14.00">MeetingMinuteComment()</text>
<polygon fill="none" stroke="black" points="1555,-147 1555,-168 1731,-168 1731,-147 1555,-147"/>
<text text-anchor="start" x="1558" y="-154.8" font-family="Times New Roman,serif" font-weight="bold" font-size="14.00">submittedcommentsscreen()</text>
<polygon fill="none" stroke="black" points="1555,-126 1555,-147 1731,-147 1731,-126 1555,-126"/>
<text text-anchor="start" x="1593" y="-133.8" font-family="Times New Roman,serif" font-weight="bold" font-size="14.00">CommentView()</text>
<polygon fill="none" stroke="black" points="1555,-105 1555,-126 1731,-126 1731,-105 1555,-105"/>
<text text-anchor="start" x="1561.5" y="-112.8" font-family="Times New Roman,serif" font-weight="bold" font-size="14.00">Tasklistwithcommentbox()</text>
<polygon fill="none" stroke="black" points="1555,-84 1555,-105 1731,-105 1731,-84 1555,-84"/>
<text text-anchor="start" x="1562.5" y="-91.8" font-family="Times New Roman,serif" font-weight="bold" font-size="14.00">errorfortoolongcomment()</text>
<polygon fill="none" stroke="black" points="1555,-63 1555,-84 1731,-84 1731,-63 1555,-63"/>
<text text-anchor="start" x="1566" y="-70.8" font-family="Times New Roman,serif" font-weight="bold" font-size="14.00">opencommentinputpage()</text>
<polygon fill="none" stroke="black" points="1555,-42 1555,-63 1731,-63 1731,-42 1555,-42"/>
<text text-anchor="start" x="1572.5" y="-49.8" font-family="Times New Roman,serif" font-weight="bold" font-size="14.00">noavailablecomments()</text>
<polygon fill="none" stroke="black" points="1554,-41 1554,-211 1732,-211 1732,-41 1554,-41"/>
</g>
<!-- EAID_80445D8E_0ED8_4028_8CF3_60CA7E370CB9 -->
<g id="node15" class="node"><title>EAID_80445D8E_0ED8_4028_8CF3_60CA7E370CB9</title>
<polygon fill="none" stroke="black" points="1110,-168 1110,-189 1519,-189 1519,-168 1110,-168"/>
<text text-anchor="start" x="1291.5" y="-175.8" font-family="Times New Roman,serif" font-weight="bold" font-size="14.00">Project</text>
<polygon fill="none" stroke="black" points="1110,-147 1110,-168 1519,-168 1519,-147 1110,-147"/>
<text text-anchor="start" x="1113" y="-154.8" font-family="Times New Roman,serif" font-weight="bold" font-size="14.00">EAID_FDF84386_392A_47b9_AEB0_B17152B69BCF undefined</text>
<polygon fill="none" stroke="black" points="1110,-126 1110,-147 1519,-147 1519,-126 1110,-126"/>
<text text-anchor="start" x="1287" y="-133.8" font-family="Times New Roman,serif" font-weight="bold" font-size="14.00">Project()</text>
<polygon fill="none" stroke="black" points="1110,-105 1110,-126 1519,-126 1519,-105 1110,-105"/>
<text text-anchor="start" x="1235.5" y="-112.8" font-family="Times New Roman,serif" font-weight="bold" font-size="14.00">Projectinformationerror()</text>
<polygon fill="none" stroke="black" points="1110,-84 1110,-105 1519,-105 1519,-84 1110,-84"/>
<text text-anchor="start" x="1261" y="-91.8" font-family="Times New Roman,serif" font-weight="bold" font-size="14.00">EditProfilePage()</text>
<polygon fill="none" stroke="black" points="1110,-63 1110,-84 1519,-84 1519,-63 1110,-63"/>
<text text-anchor="start" x="1235.5" y="-70.8" font-family="Times New Roman,serif" font-weight="bold" font-size="14.00">displayeditprojectscreen()</text>
<polygon fill="none" stroke="black" points="1108.5,-62 1108.5,-190 1519.5,-190 1519.5,-62 1108.5,-62"/>
</g>
<!-- EAID_905D5DC7_566F_40c2_A927_E23E83C27975 -->
<g id="node16" class="node"><title>EAID_905D5DC7_566F_40c2_A927_E23E83C27975</title>
<polygon fill="none" stroke="black" points="911,-147 911,-168 1074,-168 1074,-147 911,-147"/>
<text text-anchor="start" x="935" y="-154.8" font-family="Times New Roman,serif" font-weight="bold" font-size="14.00">Status Notification</text>
<polygon fill="none" stroke="black" points="911,-126 911,-147 1074,-147 1074,-126 911,-126"/>
<text text-anchor="start" x="932.5" y="-133.8" font-family="Times New Roman,serif" font-weight="bold" font-size="14.00">StatusNotification()</text>
<polygon fill="none" stroke="black" points="911,-105 911,-126 1074,-126 1074,-105 911,-105"/>
<text text-anchor="start" x="914" y="-112.8" font-family="Times New Roman,serif" font-weight="bold" font-size="14.00">Updateacceptancestatus()</text>
<polygon fill="none" stroke="black" points="911,-84 911,-105 1074,-105 1074,-84 911,-84"/>
<text text-anchor="start" x="929" y="-91.8" font-family="Times New Roman,serif" font-weight="bold" font-size="14.00">Verifiesattendeelist()</text>
<polygon fill="none" stroke="black" points="909.5,-83 909.5,-169 1074.5,-169 1074.5,-83 909.5,-83"/>
</g>
<!-- EAID_8CC61336_05C9_4a1f_A743_BF79C67F0640 -->
<g id="node18" class="node"><title>EAID_8CC61336_05C9_4a1f_A743_BF79C67F0640</title>
<polygon fill="none" stroke="black" points="225,-210 225,-231 420,-231 420,-210 225,-210"/>
<text text-anchor="start" x="295.5" y="-217.8" font-family="Times New Roman,serif" font-weight="bold" font-size="14.00">UserInfo</text>
<polygon fill="none" stroke="black" points="225,-189 225,-210 420,-210 420,-189 225,-189"/>
<text text-anchor="start" x="291" y="-196.8" font-family="Times New Roman,serif" font-weight="bold" font-size="14.00">UserInfo()</text>
<polygon fill="none" stroke="black" points="225,-168 225,-189 420,-189 420,-168 225,-168"/>
<text text-anchor="start" x="228" y="-175.8" font-family="Times New Roman,serif" font-weight="bold" font-size="14.00">Retrievecommentanduserinfo()</text>
<polygon fill="none" stroke="black" points="225,-147 225,-168 420,-168 420,-147 225,-147"/>
<text text-anchor="start" x="239" y="-154.8" font-family="Times New Roman,serif" font-weight="bold" font-size="14.00">verifyattendeeinformation()</text>
<polygon fill="none" stroke="black" points="225,-126 225,-147 420,-147 420,-126 225,-126"/>
<text text-anchor="start" x="247" y="-133.8" font-family="Times New Roman,serif" font-weight="bold" font-size="14.00">useralreadyexiststoasts()</text>
<polygon fill="none" stroke="black" points="225,-105 225,-126 420,-126 420,-105 225,-105"/>
<text text-anchor="start" x="258" y="-112.8" font-family="Times New Roman,serif" font-weight="bold" font-size="14.00">accountinformation()</text>
<polygon fill="none" stroke="black" points="225,-84 225,-105 420,-105 420,-84 225,-84"/>
<text text-anchor="start" x="256" y="-91.8" font-family="Times New Roman,serif" font-weight="bold" font-size="14.00">Verifydefaultuserlist()</text>
<polygon fill="none" stroke="black" points="225,-63 225,-84 420,-84 420,-63 225,-63"/>
<text text-anchor="start" x="249.5" y="-70.8" font-family="Times New Roman,serif" font-weight="bold" font-size="14.00">generaluserdashboard()</text>
<polygon fill="none" stroke="black" points="225,-42 225,-63 420,-63 420,-42 225,-42"/>
<text text-anchor="start" x="242" y="-49.8" font-family="Times New Roman,serif" font-weight="bold" font-size="14.00">Viewuserregistrationinfo()</text>
<polygon fill="none" stroke="black" points="225,-21 225,-42 420,-42 420,-21 225,-21"/>
<text text-anchor="start" x="246" y="-28.8" font-family="Times New Roman,serif" font-weight="bold" font-size="14.00">Userinfoalreadycreated()</text>
<polygon fill="none" stroke="black" points="223.5,-20 223.5,-232 420.5,-232 420.5,-20 223.5,-20"/>
</g>
<!-- EAID_69E671CF_1CBB_46ad_81AE_28DBEF452C35 -->
<g id="node19" class="node"><title>EAID_69E671CF_1CBB_46ad_81AE_28DBEF452C35</title>
<polygon fill="none" stroke="black" points="26,-168 26,-189 189,-189 189,-168 26,-168"/>
<text text-anchor="start" x="42.5" y="-175.8" font-family="Times New Roman,serif" font-weight="bold" font-size="14.00">approvesignupscreen</text>
<polygon fill="none" stroke="black" points="26,-147 26,-168 189,-168 189,-147 26,-147"/>
<text text-anchor="start" x="38" y="-154.8" font-family="Times New Roman,serif" font-weight="bold" font-size="14.00">approvesignupscreen()</text>
<polygon fill="none" stroke="black" points="26,-126 26,-147 189,-147 189,-126 26,-126"/>
<text text-anchor="start" x="60.5" y="-133.8" font-family="Times New Roman,serif" font-weight="bold" font-size="14.00">signuprequest()</text>
<polygon fill="none" stroke="black" points="26,-105 26,-126 189,-126 189,-105 26,-105"/>
<text text-anchor="start" x="68" y="-112.8" font-family="Times New Roman,serif" font-weight="bold" font-size="14.00">signuppage()</text>
<polygon fill="none" stroke="black" points="26,-84 26,-105 189,-105 189,-84 26,-84"/>
<text text-anchor="start" x="29" y="-91.8" font-family="Times New Roman,serif" font-weight="bold" font-size="14.00">approveuserregistration()</text>
<polygon fill="none" stroke="black" points="26,-63 26,-84 189,-84 189,-63 26,-63"/>
<text text-anchor="start" x="75.5" y="-70.8" font-family="Times New Roman,serif" font-weight="bold" font-size="14.00">Assignee()</text>
<polygon fill="none" stroke="black" points="24.5,-62 24.5,-190 189.5,-190 189.5,-62 24.5,-62"/>
</g>
</g>
</svg>
