<?xml version="1.0" encoding="UTF-8" standalone="no"?>
<!DOCTYPE svg PUBLIC "-//W3C//DTD SVG 1.1//EN"
 "http://www.w3.org/Graphics/SVG/1.1/DTD/svg11.dtd">
<!-- Generated by graphviz version 2.38.0 (20140413.2041)
 -->
<!-- Title: g Pages: 1 -->
<svg width="1212pt" height="251pt"
 viewBox="0.00 0.00 1212.00 251.00" xmlns="http://www.w3.org/2000/svg" xmlns:xlink="http://www.w3.org/1999/xlink">
<g id="graph0" class="graph" transform="scale(1 1) rotate(0) translate(4 247)">
<title>g</title>
<polygon fill="white" stroke="none" points="-4,4 -4,-247 1208,-247 1208,4 -4,4"/>
<!-- EAID_AA92644D_5AB3_41e5_A7AA_0015460E1E61 -->
<g id="node1" class="node"><title>EAID_AA92644D_5AB3_41e5_A7AA_0015460E1E61</title>
<image xlink:href="img/actor1.png" width="61px" height="90px" preserveAspectRatio="xMinYMin meet" x="10.5" y="-207.5"/>
<text text-anchor="start" x="19" y="-94.3" font-family="Times New Roman,serif" font-size="24.00">User</text>
</g>
<!-- EAID_48776ED0_1EDF_4878_8763_072D823C9CC2 -->
<g id="node2" class="node"><title>EAID_48776ED0_1EDF_4878_8763_072D823C9CC2</title>
<image xlink:href="img/boundary3.png" width="102px" height="67px" preserveAspectRatio="xMinYMin meet" x="1092" y="-236.5"/>
<text text-anchor="start" x="1092" y="-146.3" font-family="Times New Roman,serif" font-size="24.00">Homepage</text>
</g>
<!-- EAID_AA92644D_5AB3_41e5_A7AA_0015460E1E61&#45;&gt;EAID_48776ED0_1EDF_4878_8763_072D823C9CC2 -->
<g id="edge1" class="edge"><title>EAID_AA92644D_5AB3_41e5_A7AA_0015460E1E61&#45;&gt;EAID_48776ED0_1EDF_4878_8763_072D823C9CC2</title>
<path fill="none" stroke="black" d="M81.3365,-158.159C141.262,-173.586 258.417,-201.395 360,-211.5 663.391,-241.68 743.216,-247.265 1046,-211.5 1054.53,-210.492 1063.4,-208.997 1072.16,-207.244"/>
<polygon fill="black" stroke="black" points="1072.9,-210.663 1081.96,-205.168 1071.45,-203.815 1072.9,-210.663"/>
</g>
<!-- EAID_4C19BA8A_BDB5_458b_B0DF_CEC68FE3C006 -->
<g id="node3" class="node"><title>EAID_4C19BA8A_BDB5_458b_B0DF_CEC68FE3C006</title>
<image xlink:href="img/boundary3.png" width="115px" height="67px" preserveAspectRatio="xMinYMin meet" x="455" y="-195.5"/>
<text text-anchor="start" x="436" y="-105.3" font-family="Times New Roman,serif" font-size="24.00">Choose &#160;sponser</text>
</g>
<!-- EAID_AA92644D_5AB3_41e5_A7AA_0015460E1E61&#45;&gt;EAID_4C19BA8A_BDB5_458b_B0DF_CEC68FE3C006 -->
<g id="edge2" class="edge"><title>EAID_AA92644D_5AB3_41e5_A7AA_0015460E1E61&#45;&gt;EAID_4C19BA8A_BDB5_458b_B0DF_CEC68FE3C006</title>
<path fill="none" stroke="black" d="M81.1247,-147.5C154.296,-147.5 312.505,-147.5 415.23,-147.5"/>
<polygon fill="black" stroke="black" points="415.302,-151 425.302,-147.5 415.302,-144 415.302,-151"/>
</g>
<!-- EAID_835F4E7D_1C5B_4b83_95E6_8664D67A00A8 -->
<g id="node4" class="node"><title>EAID_835F4E7D_1C5B_4b83_95E6_8664D67A00A8</title>
<image xlink:href="img/boundary3.png" width="115px" height="67px" preserveAspectRatio="xMinYMin meet" x="163.5" y="-102.5"/>
<text text-anchor="start" x="127.5" y="-12.3" font-family="Times New Roman,serif" font-size="24.00">Click View sponser</text>
</g>
<!-- EAID_AA92644D_5AB3_41e5_A7AA_0015460E1E61&#45;&gt;EAID_835F4E7D_1C5B_4b83_95E6_8664D67A00A8 -->
<g id="edge3" class="edge"><title>EAID_AA92644D_5AB3_41e5_A7AA_0015460E1E61&#45;&gt;EAID_835F4E7D_1C5B_4b83_95E6_8664D67A00A8</title>
<path fill="none" stroke="black" d="M81.004,-126.86C89.2314,-122.562 98.2862,-117.831 107.706,-112.909"/>
<polygon fill="black" stroke="black" points="109.592,-115.873 116.835,-108.14 106.351,-109.668 109.592,-115.873"/>
</g>
<!-- EAID_AC19EC26_9CC7_4fdb_98D5_511A18160418 -->
<g id="node5" class="node"><title>EAID_AC19EC26_9CC7_4fdb_98D5_511A18160418</title>
<image xlink:href="img/boundary3.png" width="115px" height="67px" preserveAspectRatio="xMinYMin meet" x="815.5" y="-195.5"/>
<text text-anchor="start" x="710" y="-105.3" font-family="Times New Roman,serif" font-size="24.00">display &#160;sponser detail information</text>
</g>
<!-- EAID_4C19BA8A_BDB5_458b_B0DF_CEC68FE3C006&#45;&gt;EAID_AC19EC26_9CC7_4fdb_98D5_511A18160418 -->
<g id="edge4" class="edge"><title>EAID_4C19BA8A_BDB5_458b_B0DF_CEC68FE3C006&#45;&gt;EAID_AC19EC26_9CC7_4fdb_98D5_511A18160418</title>
<path fill="none" stroke="black" d="M598.533,-147.5C626.043,-147.5 657.653,-147.5 689.393,-147.5"/>
<polygon fill="black" stroke="black" points="689.697,-151 699.697,-147.5 689.697,-144 689.697,-151"/>
</g>
<!-- EAID_5C1A48ED_9A43_48dd_855F_3434B1C32868 -->
<g id="node6" class="node"><title>EAID_5C1A48ED_9A43_48dd_855F_3434B1C32868</title>
<image xlink:href="img/activity_icon.png" width="30px" height="20px" preserveAspectRatio="xMinYMin meet" x="497" y="-68.5"/>
<text text-anchor="start" x="370" y="-26.3" font-family="Times New Roman,serif" font-weight="bold" font-size="24.00">diplay &#160;sponser &#160;list &#160;&#160;profile</text>
</g>
<!-- EAID_835F4E7D_1C5B_4b83_95E6_8664D67A00A8&#45;&gt;EAID_5C1A48ED_9A43_48dd_855F_3434B1C32868 -->
<g id="edge5" class="edge"><title>EAID_835F4E7D_1C5B_4b83_95E6_8664D67A00A8&#45;&gt;EAID_5C1A48ED_9A43_48dd_855F_3434B1C32868</title>
<path fill="none" stroke="black" d="M324.382,-50.5908C332.676,-50.2757 341.17,-49.953 349.742,-49.6272"/>
<polygon fill="black" stroke="black" points="349.975,-53.121 359.834,-49.2438 349.709,-46.1261 349.975,-53.121"/>
</g>
<!-- EAID_AC19EC26_9CC7_4fdb_98D5_511A18160418&#45;&gt;EAID_48776ED0_1EDF_4878_8763_072D823C9CC2 -->
<g id="edge6" class="edge"><title>EAID_AC19EC26_9CC7_4fdb_98D5_511A18160418&#45;&gt;EAID_48776ED0_1EDF_4878_8763_072D823C9CC2</title>
<path fill="none" stroke="black" d="M1046,-173.814C1054.99,-175.189 1063.73,-176.525 1072.04,-177.796"/>
<polygon fill="black" stroke="black" points="1071.53,-181.26 1081.94,-179.312 1072.59,-174.34 1071.53,-181.26"/>
</g>
<!-- EAID_5C1A48ED_9A43_48dd_855F_3434B1C32868&#45;&gt;EAID_AC19EC26_9CC7_4fdb_98D5_511A18160418 -->
<g id="edge7" class="edge"><title>EAID_5C1A48ED_9A43_48dd_855F_3434B1C32868&#45;&gt;EAID_AC19EC26_9CC7_4fdb_98D5_511A18160418</title>
<path fill="none" stroke="black" d="M631.819,-74.5012C642.714,-77.487 653.571,-80.5154 664,-83.5 672.603,-85.9619 681.394,-88.516 690.265,-91.1243"/>
<polygon fill="black" stroke="black" points="689.336,-94.4992 699.918,-93.974 691.318,-87.7857 689.336,-94.4992"/>
</g>
</g>
</svg>
