<?xml version="1.0" encoding="UTF-8" standalone="no"?>
<!DOCTYPE svg PUBLIC "-//W3C//DTD SVG 1.1//EN"
 "http://www.w3.org/Graphics/SVG/1.1/DTD/svg11.dtd">
<!-- Generated by graphviz version 2.38.0 (20140413.2041)
 -->
<!-- Title: g Pages: 1 -->
<svg width="397pt" height="260pt"
 viewBox="0.00 0.00 397.48 260.00" xmlns="http://www.w3.org/2000/svg" xmlns:xlink="http://www.w3.org/1999/xlink">
<g id="graph0" class="graph" transform="scale(1 1) rotate(0) translate(4 256)">
<title>g</title>
<polygon fill="white" stroke="none" points="-4,4 -4,-256 393.48,-256 393.48,4 -4,4"/>
<!-- remove the user liking information -->
<g id="node1" class="node"><title>remove the user liking information</title>
<ellipse fill="none" stroke="black" cx="255.592" cy="-90" rx="133.776" ry="18"/>
<text text-anchor="middle" x="255.592" y="-86.3" font-family="Times New Roman,serif" font-size="14.00">remove the user liking information</text>
</g>
<!-- Total Number of Likes -->
<g id="node2" class="node"><title>Total Number of Likes</title>
<ellipse fill="none" stroke="black" cx="93.5917" cy="-18" rx="93.6835" ry="18"/>
<text text-anchor="middle" x="93.5917" y="-14.3" font-family="Times New Roman,serif" font-size="14.00">Total Number of Likes</text>
</g>
<!-- remove the user liking information&#45;&gt;Total Number of Likes -->
<g id="edge1" class="edge"><title>remove the user liking information&#45;&gt;Total Number of Likes</title>
<path fill="none" stroke="black" d="M217.61,-72.5881C194.142,-62.4476 163.887,-49.3744 139.135,-38.6792"/>
<polygon fill="black" stroke="black" points="140.512,-35.4614 129.944,-34.7077 137.735,-41.8871 140.512,-35.4614"/>
</g>
<!-- Like Information -->
<g id="node3" class="node"><title>Like Information</title>
<ellipse fill="none" stroke="black" cx="276.592" cy="-18" rx="71.4873" ry="18"/>
<text text-anchor="middle" x="276.592" y="-14.3" font-family="Times New Roman,serif" font-size="14.00">Like Information</text>
</g>
<!-- remove the user liking information&#45;&gt;Like Information -->
<g id="edge2" class="edge"><title>remove the user liking information&#45;&gt;Like Information</title>
<path fill="none" stroke="black" d="M260.783,-71.6966C263.122,-63.8979 265.939,-54.5085 268.543,-45.8292"/>
<polygon fill="black" stroke="black" points="271.939,-46.6883 271.46,-36.1043 265.234,-44.6769 271.939,-46.6883"/>
</g>
<!-- The heart icon on picture -->
<g id="node4" class="node"><title>The heart icon on picture</title>
<ellipse fill="none" stroke="black" cx="239.592" cy="-162" rx="102.082" ry="18"/>
<text text-anchor="middle" x="239.592" y="-158.3" font-family="Times New Roman,serif" font-size="14.00">The heart icon on picture</text>
</g>
<!-- The heart icon on picture&#45;&gt;remove the user liking information -->
<g id="edge3" class="edge"><title>The heart icon on picture&#45;&gt;remove the user liking information</title>
<path fill="none" stroke="black" d="M243.547,-143.697C245.31,-135.983 247.429,-126.712 249.395,-118.112"/>
<polygon fill="black" stroke="black" points="252.866,-118.633 251.682,-108.104 246.042,-117.073 252.866,-118.633"/>
</g>
<!-- User -->
<g id="node5" class="node"><title>User</title>
<ellipse fill="none" stroke="black" cx="166.592" cy="-234" rx="27.8951" ry="18"/>
<text text-anchor="middle" x="166.592" y="-230.3" font-family="Times New Roman,serif" font-size="14.00">User</text>
</g>
<!-- User&#45;&gt;Total Number of Likes -->
<g id="edge5" class="edge"><title>User&#45;&gt;Total Number of Likes</title>
<path fill="none" stroke="black" d="M153.145,-217.799C144.904,-207.723 134.783,-193.851 128.592,-180 108.771,-135.657 99.8454,-79.3048 96.0821,-46.3842"/>
<polygon fill="black" stroke="black" points="99.5338,-45.743 94.9955,-36.1693 92.573,-46.4835 99.5338,-45.743"/>
</g>
<!-- User&#45;&gt;The heart icon on picture -->
<g id="edge4" class="edge"><title>User&#45;&gt;The heart icon on picture</title>
<path fill="none" stroke="black" d="M181.717,-218.496C191.218,-209.386 203.702,-197.414 214.643,-186.924"/>
<polygon fill="black" stroke="black" points="217.119,-189.398 221.915,-179.951 212.274,-184.346 217.119,-189.398"/>
</g>
</g>
</svg>
