<?xml version="1.0" encoding="UTF-8" standalone="no"?>
<!DOCTYPE svg PUBLIC "-//W3C//DTD SVG 1.1//EN"
 "http://www.w3.org/Graphics/SVG/1.1/DTD/svg11.dtd">
<!-- Generated by graphviz version 2.40.1 (20161225.0304)
 -->
<!-- Title: class_diagram Pages: 1 -->
<svg width="3281pt" height="73pt"
 viewBox="0.00 0.00 3281.36 73.00" xmlns="http://www.w3.org/2000/svg" xmlns:xlink="http://www.w3.org/1999/xlink">
<g id="graph0" class="graph" transform="scale(1 1) rotate(0) translate(4 69)">
<title>class_diagram</title>
<polygon fill="#ffffff" stroke="transparent" points="-4,4 -4,-69 3277.3594,-69 3277.3594,4 -4,4"/>
<!-- c1fa0a0e0_4b54_4528_b200_615b0ea85a2d -->
<g id="c1fa0a0e0_4b54_4528_b200_615b0ea85a2d" class="node">
<title>c1fa0a0e0_4b54_4528_b200_615b0ea85a2d</title>
<polygon fill="none" stroke="#000000" points="0,-12.5 0,-52.5 116.7188,-52.5 116.7188,-12.5 0,-12.5"/>
<text text-anchor="middle" x="58.3594" y="-42.1" font-family="Times,serif" font-size="8.00" fill="#000000">AndroidProcesses</text>
<polyline fill="none" stroke="#000000" points="0,-36.5 116.7188,-36.5 "/>
<text text-anchor="start" x="8" y="-26.1" font-family="Times,serif" font-size="8.00" fill="#000000">+ log()</text>
<text text-anchor="start" x="8" y="-18.1" font-family="Times,serif" font-size="8.00" fill="#000000">+ getRunningAppProcessInfo()</text>
</g>
<!-- ccdcfee23_bcdc_4236_a6d1_df907c747b89 -->
<g id="ccdcfee23_bcdc_4236_a6d1_df907c747b89" class="node">
<title>ccdcfee23_bcdc_4236_a6d1_df907c747b89</title>
<polygon fill="none" stroke="#000000" points="134.6973,-14.5 134.6973,-50.5 208.0215,-50.5 208.0215,-14.5 134.6973,-14.5"/>
<text text-anchor="middle" x="171.3594" y="-30.1" font-family="Times,serif" font-size="8.00" fill="#000000">ActivityProcesses</text>
</g>
<!-- cd8535c5a_2a40_4182_8987_79d9bc47969d -->
<g id="cd8535c5a_2a40_4182_8987_79d9bc47969d" class="node">
<title>cd8535c5a_2a40_4182_8987_79d9bc47969d</title>
<polygon fill="none" stroke="#000000" points="225.8105,-14.5 225.8105,-50.5 292.9082,-50.5 292.9082,-14.5 225.8105,-14.5"/>
<text text-anchor="middle" x="259.3594" y="-30.1" font-family="Times,serif" font-size="8.00" fill="#000000">ContentHandler</text>
</g>
<!-- c2d587bf0_8716_49c7_a6e2_3d835e51c87c -->
<g id="c2d587bf0_8716_49c7_a6e2_3d835e51c87c" class="node">
<title>c2d587bf0_8716_49c7_a6e2_3d835e51c87c</title>
<polygon fill="none" stroke="#000000" points="310.918,-14.5 310.918,-50.5 391.8008,-50.5 391.8008,-14.5 310.918,-14.5"/>
<text text-anchor="middle" x="351.3594" y="-39.6" font-family="Times,serif" font-size="8.00" fill="#000000">AndroidAppProcess</text>
<polyline fill="none" stroke="#000000" points="310.918,-33.5 391.8008,-33.5 "/>
<text text-anchor="start" x="318.918" y="-22.6" font-family="Times,serif" font-size="8.00" fill="#000000">&#45; uid:int</text>
<polyline fill="none" stroke="#000000" points="310.918,-16.5 391.8008,-16.5 "/>
</g>
<!-- c5b11d5b2_5a68_4a09_8759_89f417c7ea9d -->
<g id="c5b11d5b2_5a68_4a09_8759_89f417c7ea9d" class="node">
<title>c5b11d5b2_5a68_4a09_8759_89f417c7ea9d</title>
<polygon fill="none" stroke="#000000" points="410.2559,-14.5 410.2559,-50.5 468.4629,-50.5 468.4629,-14.5 410.2559,-14.5"/>
<text text-anchor="middle" x="439.3594" y="-30.1" font-family="Times,serif" font-size="8.00" fill="#000000">DTDHandler</text>
</g>
<!-- c893cad8e_6225_4d32_9350_08100c3e719f -->
<g id="c893cad8e_6225_4d32_9350_08100c3e719f" class="node">
<title>c893cad8e_6225_4d32_9350_08100c3e719f</title>
<polygon fill="none" stroke="#000000" points="486.3359,-14.5 486.3359,-50.5 642.3828,-50.5 642.3828,-14.5 486.3359,-14.5"/>
<text text-anchor="middle" x="564.3594" y="-39.6" font-family="Times,serif" font-size="8.00" fill="#000000">ControlGroup$1</text>
<polyline fill="none" stroke="#000000" points="486.3359,-33.5 642.3828,-33.5 "/>
<text text-anchor="start" x="494.3359" y="-22.6" font-family="Times,serif" font-size="8.00" fill="#000000">&#45; CREATOR:android.os.Parcelable$Creator</text>
<polyline fill="none" stroke="#000000" points="486.3359,-16.5 642.3828,-16.5 "/>
</g>
<!-- c55d965a9_11cd_4ca3_b32a_34d5973e02af -->
<g id="c55d965a9_11cd_4ca3_b32a_34d5973e02af" class="node">
<title>c55d965a9_11cd_4ca3_b32a_34d5973e02af</title>
<polygon fill="none" stroke="#000000" points="660.332,-12.5 660.332,-52.5 718.3867,-52.5 718.3867,-12.5 660.332,-12.5"/>
<text text-anchor="middle" x="689.3594" y="-42.1" font-family="Times,serif" font-size="8.00" fill="#000000">Cgroup$1</text>
<polyline fill="none" stroke="#000000" points="660.332,-36.5 718.3867,-36.5 "/>
<text text-anchor="start" x="668.332" y="-26.1" font-family="Times,serif" font-size="8.00" fill="#000000">+ getGroup()</text>
<text text-anchor="start" x="668.332" y="-18.1" font-family="Times,serif" font-size="8.00" fill="#000000">+ get()</text>
</g>
<!-- c76c361c2_3e87_4903_9640_118f9c9c101e -->
<g id="c76c361c2_3e87_4903_9640_118f9c9c101e" class="node">
<title>c76c361c2_3e87_4903_9640_118f9c9c101e</title>
<polygon fill="none" stroke="#000000" points="736.3594,-14.5 736.3594,-50.5 790.3594,-50.5 790.3594,-14.5 736.3594,-14.5"/>
<text text-anchor="middle" x="763.082" y="-35.1" font-family="Times,serif" font-size="8.00" fill="#000000">Stat</text>
<polyline fill="none" stroke="#000000" points="736.3594,-24.5 789.8047,-24.5 "/>
</g>
<!-- cb9e4252e_8e16_4c03_a74e_5de5b4201750 -->
<g id="cb9e4252e_8e16_4c03_a74e_5de5b4201750" class="node">
<title>cb9e4252e_8e16_4c03_a74e_5de5b4201750</title>
<polygon fill="none" stroke="#000000" points="808.3594,-14.5 808.3594,-50.5 862.3594,-50.5 862.3594,-14.5 808.3594,-14.5"/>
<text text-anchor="middle" x="835.1387" y="-35.1" font-family="Times,serif" font-size="8.00" fill="#000000">Status$1</text>
<polyline fill="none" stroke="#000000" points="808.3594,-24.5 861.918,-24.5 "/>
</g>
<!-- c849d136b_9f01_4d07_823c_2e613cb4e35e -->
<g id="c849d136b_9f01_4d07_823c_2e613cb4e35e" class="node">
<title>c849d136b_9f01_4d07_823c_2e613cb4e35e</title>
<polygon fill="none" stroke="#000000" points="880.3594,-14.5 880.3594,-50.5 934.3594,-50.5 934.3594,-14.5 880.3594,-14.5"/>
<text text-anchor="middle" x="906.9141" y="-35.1" font-family="Times,serif" font-size="8.00" fill="#000000">ProcFile</text>
<polyline fill="none" stroke="#000000" points="880.3594,-24.5 933.4688,-24.5 "/>
</g>
<!-- cb65d9df9_5ee6_4732_98fc_6737e6929f98 -->
<g id="cb65d9df9_5ee6_4732_98fc_6737e6929f98" class="node">
<title>cb65d9df9_5ee6_4732_98fc_6737e6929f98</title>
<polygon fill="none" stroke="#000000" points="951.9258,-.5 951.9258,-64.5 1042.793,-64.5 1042.793,-.5 951.9258,-.5"/>
<text text-anchor="middle" x="997.3594" y="-54.1" font-family="Times,serif" font-size="8.00" fill="#000000">AndroidProcess</text>
<polyline fill="none" stroke="#000000" points="951.9258,-48.5 1042.793,-48.5 "/>
<text text-anchor="start" x="959.9258" y="-38.1" font-family="Times,serif" font-size="8.00" fill="#000000">&#45; name:java.lang.String</text>
<polyline fill="none" stroke="#000000" points="951.9258,-32.5 1042.793,-32.5 "/>
<text text-anchor="start" x="959.9258" y="-22.1" font-family="Times,serif" font-size="8.00" fill="#000000">+ status()</text>
<text text-anchor="start" x="959.9258" y="-14.1" font-family="Times,serif" font-size="8.00" fill="#000000">+ cgroup()</text>
<text text-anchor="start" x="959.9258" y="-6.1" font-family="Times,serif" font-size="8.00" fill="#000000">+ stat()</text>
</g>
<!-- c906ad39e_3fbf_4c78_b41a_fed722d01d15 -->
<g id="c906ad39e_3fbf_4c78_b41a_fed722d01d15" class="node">
<title>c906ad39e_3fbf_4c78_b41a_fed722d01d15</title>
<polygon fill="none" stroke="#000000" points="1061.2598,-14.5 1061.2598,-50.5 1175.459,-50.5 1175.459,-14.5 1061.2598,-14.5"/>
<text text-anchor="middle" x="1118.3594" y="-30.1" font-family="Times,serif" font-size="8.00" fill="#000000">SAXNotRecognizedException</text>
</g>
<!-- c2eabcd68_12a3_4fb7_93ca_fc8b1919374a -->
<g id="c2eabcd68_12a3_4fb7_93ca_fc8b1919374a" class="node">
<title>c2eabcd68_12a3_4fb7_93ca_fc8b1919374a</title>
<polygon fill="none" stroke="#000000" points="1193.0371,-14.5 1193.0371,-50.5 1251.6816,-50.5 1251.6816,-14.5 1193.0371,-14.5"/>
<text text-anchor="middle" x="1222.3594" y="-30.1" font-family="Times,serif" font-size="8.00" fill="#000000">ErrorHandler</text>
</g>
<!-- c13227d9f_c524_4e6c_96b6_3048222f5ecf -->
<g id="c13227d9f_c524_4e6c_96b6_3048222f5ecf" class="node">
<title>c13227d9f_c524_4e6c_96b6_3048222f5ecf</title>
<polygon fill="none" stroke="#000000" points="1269.3594,-14.5 1269.3594,-50.5 1323.3594,-50.5 1323.3594,-14.5 1269.3594,-14.5"/>
<text text-anchor="middle" x="1296.2969" y="-30.1" font-family="Times,serif" font-size="8.00" fill="#000000">Locator</text>
</g>
<!-- c46c56fd6_3658_43db_8fb9_280e91de0f80 -->
<g id="c46c56fd6_3658_43db_8fb9_280e91de0f80" class="node">
<title>c46c56fd6_3658_43db_8fb9_280e91de0f80</title>
<polygon fill="none" stroke="#000000" points="1341.0391,-14.5 1341.0391,-50.5 1411.6797,-50.5 1411.6797,-14.5 1341.0391,-14.5"/>
<text text-anchor="middle" x="1376.3594" y="-30.1" font-family="Times,serif" font-size="8.00" fill="#000000">ServiceReader$4</text>
</g>
<!-- c387654e5_8da3_49ed_b606_b924d56e6e09 -->
<g id="c387654e5_8da3_49ed_b606_b924d56e6e09" class="node">
<title>c387654e5_8da3_49ed_b606_b924d56e6e09</title>
<polygon fill="none" stroke="#000000" points="1429.9238,-14.5 1429.9238,-50.5 1498.7949,-50.5 1498.7949,-14.5 1429.9238,-14.5"/>
<text text-anchor="middle" x="1464.3594" y="-30.1" font-family="Times,serif" font-size="8.00" fill="#000000">ProcessManager</text>
</g>
<!-- c6ff20f38_4399_42cc_8db7_185c3c8b2dc1 -->
<g id="c6ff20f38_4399_42cc_8db7_185c3c8b2dc1" class="node">
<title>c6ff20f38_4399_42cc_8db7_185c3c8b2dc1</title>
<polygon fill="none" stroke="#000000" points="1516.3594,-14.5 1516.3594,-50.5 1570.3594,-50.5 1570.3594,-14.5 1516.3594,-14.5"/>
<text text-anchor="middle" x="1543.0273" y="-30.1" font-family="Times,serif" font-size="8.00" fill="#000000">C</text>
</g>
<!-- cc1041ef6_dbb6_49b8_ab24_6fa2f55b2df8 -->
<g id="cc1041ef6_dbb6_49b8_ab24_6fa2f55b2df8" class="node">
<title>cc1041ef6_dbb6_49b8_ab24_6fa2f55b2df8</title>
<polygon fill="none" stroke="#000000" points="1588.3594,-14.5 1588.3594,-50.5 1642.3594,-50.5 1642.3594,-14.5 1588.3594,-14.5"/>
<text text-anchor="middle" x="1615.1934" y="-30.1" font-family="Times,serif" font-size="8.00" fill="#000000">Statm</text>
</g>
<!-- ccdcc15ba_bffc_4d9f_81aa_ede7fb0db452 -->
<g id="ccdcc15ba_bffc_4d9f_81aa_ede7fb0db452" class="node">
<title>ccdcc15ba_bffc_4d9f_81aa_ede7fb0db452</title>
<polygon fill="none" stroke="#000000" points="1660.6973,-14.5 1660.6973,-50.5 1770.0215,-50.5 1770.0215,-14.5 1660.6973,-14.5"/>
<text text-anchor="middle" x="1715.3594" y="-30.1" font-family="Times,serif" font-size="8.00" fill="#000000">SAXNotSupportedException</text>
</g>
<!-- cfbe5d4ef_05e6_4bff_bfad_a67ffeddddc9 -->
<g id="cfbe5d4ef_05e6_4bff_bfad_a67ffeddddc9" class="node">
<title>cfbe5d4ef_05e6_4bff_bfad_a67ffeddddc9</title>
<polygon fill="none" stroke="#000000" points="1788.1445,-14.5 1788.1445,-50.5 1844.5742,-50.5 1844.5742,-14.5 1788.1445,-14.5"/>
<text text-anchor="middle" x="1816.3594" y="-30.1" font-family="Times,serif" font-size="8.00" fill="#000000">XMLReader</text>
</g>
<!-- c914b29bb_c7b4_485e_85e6_d18fc573936a -->
<g id="c914b29bb_c7b4_485e_85e6_d18fc573936a" class="node">
<title>c914b29bb_c7b4_485e_85e6_d18fc573936a</title>
<polygon fill="none" stroke="#000000" points="1863.0508,-14.5 1863.0508,-50.5 1921.668,-50.5 1921.668,-14.5 1863.0508,-14.5"/>
<text text-anchor="middle" x="1892.3594" y="-30.1" font-family="Times,serif" font-size="8.00" fill="#000000">ViewGraphic</text>
</g>
<!-- cb96d1a77_d73b_4753_be9b_a66efb5d0609 -->
<g id="cb96d1a77_d73b_4753_be9b_a66efb5d0609" class="node">
<title>cb96d1a77_d73b_4753_be9b_a66efb5d0609</title>
<polygon fill="none" stroke="#000000" points="1939.8047,-14.5 1939.8047,-50.5 2002.9141,-50.5 2002.9141,-14.5 1939.8047,-14.5"/>
<text text-anchor="middle" x="1971.3594" y="-30.1" font-family="Times,serif" font-size="8.00" fill="#000000">XmlPullParser</text>
</g>
<!-- cf9f0893c_e409_475f_bfbd_d22b31f9814f -->
<g id="cf9f0893c_e409_475f_bfbd_d22b31f9814f" class="node">
<title>cf9f0893c_e409_475f_bfbd_d22b31f9814f</title>
<polygon fill="none" stroke="#000000" points="2020.4766,-14.5 2020.4766,-50.5 2102.2422,-50.5 2102.2422,-14.5 2020.4766,-14.5"/>
<text text-anchor="middle" x="2061.3594" y="-30.1" font-family="Times,serif" font-size="8.00" fill="#000000">SAXParseException</text>
</g>
<!-- c46bc80e9_304d_42f7_a58f_36867cd5de1a -->
<g id="c46bc80e9_304d_42f7_a58f_36867cd5de1a" class="node">
<title>c46bc80e9_304d_42f7_a58f_36867cd5de1a</title>
<polygon fill="none" stroke="#000000" points="2120.5762,-14.5 2120.5762,-50.5 2176.1426,-50.5 2176.1426,-14.5 2120.5762,-14.5"/>
<text text-anchor="middle" x="2148.3594" y="-30.1" font-family="Times,serif" font-size="8.00" fill="#000000">BuildConfig</text>
</g>
<!-- c7dffde6c_f37d_4df5_bf34_0393a993e71d -->
<g id="c7dffde6c_f37d_4df5_bf34_0393a993e71d" class="node">
<title>c7dffde6c_f37d_4df5_bf34_0393a993e71d</title>
<polygon fill="none" stroke="#000000" points="2193.8066,-14.5 2193.8066,-50.5 2264.9121,-50.5 2264.9121,-14.5 2193.8066,-14.5"/>
<text text-anchor="middle" x="2229.3594" y="-30.1" font-family="Times,serif" font-size="8.00" fill="#000000">ActivityMain$19</text>
</g>
<!-- c3f7f04de_66f6_424a_a8be_1def768ad10f -->
<g id="c3f7f04de_66f6_424a_a8be_1def768ad10f" class="node">
<title>c3f7f04de_66f6_424a_a8be_1def768ad10f</title>
<polygon fill="none" stroke="#000000" points="2283.3633,-14.5 2283.3633,-50.5 2347.3555,-50.5 2347.3555,-14.5 2283.3633,-14.5"/>
<text text-anchor="middle" x="2315.3594" y="-30.1" font-family="Times,serif" font-size="8.00" fill="#000000">EntityResolver</text>
</g>
<!-- c3bc37ad4_4e7a_473d_9d05_3b9a3851d86d -->
<g id="c3bc37ad4_4e7a_473d_9d05_3b9a3851d86d" class="node">
<title>c3bc37ad4_4e7a_473d_9d05_3b9a3851d86d</title>
<polygon fill="none" stroke="#000000" points="2365.3594,-14.5 2365.3594,-50.5 2419.3594,-50.5 2419.3594,-14.5 2365.3594,-14.5"/>
<text text-anchor="middle" x="2392.0273" y="-30.1" font-family="Times,serif" font-size="8.00" fill="#000000">R</text>
</g>
<!-- c4895cd28_6f93_431b_a43e_a311e50be576 -->
<g id="c4895cd28_6f93_431b_a43e_a311e50be576" class="node">
<title>c4895cd28_6f93_431b_a43e_a311e50be576</title>
<polygon fill="none" stroke="#000000" points="2437.1406,-14.5 2437.1406,-50.5 2501.5781,-50.5 2501.5781,-14.5 2437.1406,-14.5"/>
<text text-anchor="middle" x="2469.3594" y="-30.1" font-family="Times,serif" font-size="8.00" fill="#000000">SAXException</text>
</g>
<!-- c15640795_21e9_49fd_bbb8_8892e4a190f0 -->
<g id="c15640795_21e9_49fd_bbb8_8892e4a190f0" class="node">
<title>c15640795_21e9_49fd_bbb8_8892e4a190f0</title>
<polygon fill="none" stroke="#000000" points="2519.8086,-14.5 2519.8086,-50.5 2574.9102,-50.5 2574.9102,-14.5 2519.8086,-14.5"/>
<text text-anchor="middle" x="2547.3594" y="-30.1" font-family="Times,serif" font-size="8.00" fill="#000000">InputSource</text>
</g>
<!-- c0d2133de_b026_40b6_8a29_9ccbce43645e -->
<g id="c0d2133de_b026_40b6_8a29_9ccbce43645e" class="node">
<title>c0d2133de_b026_40b6_8a29_9ccbce43645e</title>
<polygon fill="none" stroke="#000000" points="2593.3594,-14.5 2593.3594,-50.5 2647.3594,-50.5 2647.3594,-14.5 2593.3594,-14.5"/>
<text text-anchor="middle" x="2620.0254" y="-30.1" font-family="Times,serif" font-size="8.00" fill="#000000">R$layout</text>
</g>
<!-- c06e7e2ca_4d13_4ae1_9a05_ede85c720ba0 -->
<g id="c06e7e2ca_4d13_4ae1_9a05_ede85c720ba0" class="node">
<title>c06e7e2ca_4d13_4ae1_9a05_ede85c720ba0</title>
<polygon fill="none" stroke="#000000" points="2665.5879,-14.5 2665.5879,-50.5 2761.1309,-50.5 2761.1309,-14.5 2665.5879,-14.5"/>
<text text-anchor="middle" x="2713.3594" y="-30.1" font-family="Times,serif" font-size="8.00" fill="#000000">XmlPullParserException</text>
</g>
<!-- cdab64b5f_1b35_4641_9355_cc3475af2dad -->
<g id="cdab64b5f_1b35_4641_9355_cc3475af2dad" class="node">
<title>cdab64b5f_1b35_4641_9355_cc3475af2dad</title>
<polygon fill="none" stroke="#000000" points="2778.7012,-14.5 2778.7012,-50.5 2876.0176,-50.5 2876.0176,-14.5 2778.7012,-14.5"/>
<text text-anchor="middle" x="2827.3594" y="-30.1" font-family="Times,serif" font-size="8.00" fill="#000000">LinearLayoutCustomised</text>
</g>
<!-- c73e8cb2f_18f5_43ef_a360_ac6e8618aada -->
<g id="c73e8cb2f_18f5_43ef_a360_ac6e8618aada" class="node">
<title>c73e8cb2f_18f5_43ef_a360_ac6e8618aada</title>
<polygon fill="none" stroke="#000000" points="2894.4746,-14.5 2894.4746,-50.5 2960.2441,-50.5 2960.2441,-14.5 2894.4746,-14.5"/>
<text text-anchor="middle" x="2927.3594" y="-30.1" font-family="Times,serif" font-size="8.00" fill="#000000">ActivityHelp$1</text>
</g>
<!-- c3337b864_a068_47c2_b020_8a29d0b71d97 -->
<g id="c3337b864_a068_47c2_b020_8a29d0b71d97" class="node">
<title>c3337b864_a068_47c2_b020_8a29d0b71d97</title>
<polygon fill="none" stroke="#000000" points="2978.25,-14.5 2978.25,-50.5 3048.4688,-50.5 3048.4688,-14.5 2978.25,-14.5"/>
<text text-anchor="middle" x="3013.3594" y="-30.1" font-family="Times,serif" font-size="8.00" fill="#000000">ActivityAbout$2</text>
</g>
<!-- cc49f2a7e_9df4_400c_9e25_cc45eea0427c -->
<g id="cc49f2a7e_9df4_400c_9e25_cc45eea0427c" class="node">
<title>cc49f2a7e_9df4_400c_9e25_cc45eea0427c</title>
<polygon fill="none" stroke="#000000" points="3066.9238,-14.5 3066.9238,-50.5 3127.7949,-50.5 3127.7949,-14.5 3066.9238,-14.5"/>
<text text-anchor="middle" x="3097.3594" y="-30.1" font-family="Times,serif" font-size="8.00" fill="#000000">XmlSerializer</text>
</g>
<!-- cd9a6b92e_b08b_4d52_8d86_2155e59097fd -->
<g id="cd9a6b92e_b08b_4d52_8d86_2155e59097fd" class="node">
<title>cd9a6b92e_b08b_4d52_8d86_2155e59097fd</title>
<polygon fill="none" stroke="#000000" points="3145.5762,-14.5 3145.5762,-50.5 3201.1426,-50.5 3201.1426,-14.5 3145.5762,-14.5"/>
<text text-anchor="middle" x="3173.3594" y="-30.1" font-family="Times,serif" font-size="8.00" fill="#000000">BuildConfig</text>
</g>
<!-- ca3c15704_cbaf_4548_b21c_7b89762f8c91 -->
<g id="ca3c15704_cbaf_4548_b21c_7b89762f8c91" class="node">
<title>ca3c15704_cbaf_4548_b21c_7b89762f8c91</title>
<polygon fill="none" stroke="#000000" points="3219.3594,-14.5 3219.3594,-50.5 3273.3594,-50.5 3273.3594,-14.5 3219.3594,-14.5"/>
<text text-anchor="middle" x="3246.3574" y="-30.1" font-family="Times,serif" font-size="8.00" fill="#000000">Attributes</text>
</g>
</g>
</svg>
